G04 #@! TF.GenerationSoftware,KiCad,Pcbnew,10.0.3*
G04 #@! TF.CreationDate,2026-05-25T20:04:59+05:30*
G04 #@! TF.ProjectId,STRF_PanelX (1),53545246-5f50-4616-9e65-6c5820283129,1*
G04 #@! TF.SameCoordinates,Original*
G04 #@! TF.FileFunction,Paste,Top*
G04 #@! TF.FilePolarity,Positive*
%FSLAX46Y46*%
G04 Gerber Fmt 4.6, Leading zero omitted, Abs format (unit mm)*
G04 Created by KiCad (PCBNEW 10.0.3) date 2026-05-25 20:04:59*
%MOMM*%
%LPD*%
G01*
G04 APERTURE LIST*
G04 Aperture macros list*
%AMRoundRect*
0 Rectangle with rounded corners*
0 $1 Rounding radius*
0 $2 $3 $4 $5 $6 $7 $8 $9 X,Y pos of 4 corners*
0 Add a 4 corners polygon primitive as box body*
4,1,4,$2,$3,$4,$5,$6,$7,$8,$9,$2,$3,0*
0 Add four circle primitives for the rounded corners*
1,1,$1+$1,$2,$3*
1,1,$1+$1,$4,$5*
1,1,$1+$1,$6,$7*
1,1,$1+$1,$8,$9*
0 Add four rect primitives between the rounded corners*
20,1,$1+$1,$2,$3,$4,$5,0*
20,1,$1+$1,$4,$5,$6,$7,0*
20,1,$1+$1,$6,$7,$8,$9,0*
20,1,$1+$1,$8,$9,$2,$3,0*%
G04 Aperture macros list end*
%ADD10RoundRect,0.218750X-0.256250X0.218750X-0.256250X-0.218750X0.256250X-0.218750X0.256250X0.218750X0*%
%ADD11RoundRect,0.218750X0.256250X-0.218750X0.256250X0.218750X-0.256250X0.218750X-0.256250X-0.218750X0*%
%ADD12RoundRect,0.147500X0.147500X0.172500X-0.147500X0.172500X-0.147500X-0.172500X0.147500X-0.172500X0*%
%ADD13RoundRect,0.147500X0.172500X-0.147500X0.172500X0.147500X-0.172500X0.147500X-0.172500X-0.147500X0*%
%ADD14RoundRect,0.218750X-0.218750X-0.256250X0.218750X-0.256250X0.218750X0.256250X-0.218750X0.256250X0*%
%ADD15RoundRect,0.147500X-0.147500X-0.172500X0.147500X-0.172500X0.147500X0.172500X-0.147500X0.172500X0*%
%ADD16RoundRect,0.147500X-0.172500X0.147500X-0.172500X-0.147500X0.172500X-0.147500X0.172500X0.147500X0*%
%ADD17RoundRect,0.243750X0.243750X0.456250X-0.243750X0.456250X-0.243750X-0.456250X0.243750X-0.456250X0*%
%ADD18RoundRect,0.218750X0.218750X0.256250X-0.218750X0.256250X-0.218750X-0.256250X0.218750X-0.256250X0*%
%ADD19R,0.800000X0.900000*%
%ADD20RoundRect,0.232500X-0.232500X0.232500X-0.232500X-0.232500X0.232500X-0.232500X0.232500X0.232500X0*%
%ADD21RoundRect,0.062500X-0.062500X0.375000X-0.062500X-0.375000X0.062500X-0.375000X0.062500X0.375000X0*%
%ADD22RoundRect,0.062500X-0.375000X0.062500X-0.375000X-0.062500X0.375000X-0.062500X0.375000X0.062500X0*%
%ADD23RoundRect,0.250000X-0.255000X-0.255000X0.255000X-0.255000X0.255000X0.255000X-0.255000X0.255000X0*%
%ADD24RoundRect,0.062500X-0.350000X-0.062500X0.350000X-0.062500X0.350000X0.062500X-0.350000X0.062500X0*%
%ADD25RoundRect,0.062500X-0.062500X-0.350000X0.062500X-0.350000X0.062500X0.350000X-0.062500X0.350000X0*%
%ADD26R,1.400000X1.200000*%
%ADD27R,1.060000X0.650000*%
%ADD28R,3.600000X0.900000*%
%ADD29R,4.200000X1.350000*%
%ADD30RoundRect,0.250000X0.375000X0.625000X-0.375000X0.625000X-0.375000X-0.625000X0.375000X-0.625000X0*%
%ADD31R,1.350000X0.400000*%
%ADD32R,1.400000X1.600000*%
%ADD33R,1.600000X1.900000*%
G04 APERTURE END LIST*
D10*
X28010000Y-30670000D03*
X28010000Y-32245000D03*
D11*
X33180000Y-32240000D03*
X33180000Y-30665000D03*
D12*
X26920000Y-40910000D03*
X25950000Y-40910000D03*
D13*
X41165000Y-30755000D03*
X41165000Y-29785000D03*
X40115000Y-30755000D03*
X40115000Y-29785000D03*
D12*
X37125000Y-38130000D03*
X36155000Y-38130000D03*
D13*
X38440000Y-30755000D03*
X38440000Y-29785000D03*
D14*
X44737500Y-29575000D03*
X46312500Y-29575000D03*
D15*
X43830000Y-37550000D03*
X44800000Y-37550000D03*
X45590000Y-30875000D03*
X46560000Y-30875000D03*
D12*
X44600000Y-30875000D03*
X43630000Y-30875000D03*
D16*
X48850000Y-39490000D03*
X48850000Y-40460000D03*
D13*
X43325000Y-40460000D03*
X43325000Y-39490000D03*
D12*
X53270000Y-33900000D03*
X52300000Y-33900000D03*
D16*
X54300000Y-32930000D03*
X54300000Y-33900000D03*
D12*
X52350000Y-36900000D03*
X51380000Y-36900000D03*
X52350000Y-35900000D03*
X51380000Y-35900000D03*
D10*
X35340000Y-28605000D03*
X35340000Y-30180000D03*
X37040000Y-28605000D03*
X37040000Y-30180000D03*
D17*
X29600000Y-28400000D03*
X27725000Y-28400000D03*
D15*
X50350000Y-33900000D03*
X51320000Y-33900000D03*
D13*
X50350000Y-35895000D03*
X50350000Y-34925000D03*
D18*
X33237500Y-28400000D03*
X31662500Y-28400000D03*
D14*
X38690000Y-28380000D03*
X40265000Y-28380000D03*
D13*
X47575000Y-30895000D03*
X47575000Y-29925000D03*
D15*
X46590000Y-37575000D03*
X47560000Y-37575000D03*
D19*
X29650000Y-32240000D03*
X31550000Y-32240000D03*
X30600000Y-30240000D03*
D20*
X39815000Y-33305000D03*
X38665000Y-33305000D03*
X37515000Y-33305000D03*
X39815000Y-34455000D03*
X38665000Y-34455000D03*
X37515000Y-34455000D03*
X39815000Y-35605000D03*
X38665000Y-35605000D03*
X37515000Y-35605000D03*
D21*
X40415000Y-32017500D03*
X39915000Y-32017500D03*
X39415000Y-32017500D03*
X38915000Y-32017500D03*
X38415000Y-32017500D03*
X37915000Y-32017500D03*
X37415000Y-32017500D03*
X36915000Y-32017500D03*
D22*
X36227500Y-32705000D03*
X36227500Y-33205000D03*
X36227500Y-33705000D03*
X36227500Y-34205000D03*
X36227500Y-34705000D03*
X36227500Y-35205000D03*
X36227500Y-35705000D03*
X36227500Y-36205000D03*
D21*
X36915000Y-36892500D03*
X37415000Y-36892500D03*
X37915000Y-36892500D03*
X38415000Y-36892500D03*
X38915000Y-36892500D03*
X39415000Y-36892500D03*
X39915000Y-36892500D03*
X40415000Y-36892500D03*
D22*
X41102500Y-36205000D03*
X41102500Y-35705000D03*
X41102500Y-35205000D03*
X41102500Y-34705000D03*
X41102500Y-34205000D03*
X41102500Y-33705000D03*
X41102500Y-33205000D03*
X41102500Y-32705000D03*
D23*
X45275000Y-33525000D03*
X45275000Y-34775000D03*
X46525000Y-33525000D03*
X46525000Y-34775000D03*
D24*
X43962500Y-33150000D03*
X43962500Y-33650000D03*
X43962500Y-34150000D03*
X43962500Y-34650000D03*
X43962500Y-35150000D03*
D25*
X44900000Y-36087500D03*
X45400000Y-36087500D03*
X45900000Y-36087500D03*
X46400000Y-36087500D03*
X46900000Y-36087500D03*
D24*
X47837500Y-35150000D03*
X47837500Y-34650000D03*
X47837500Y-34150000D03*
X47837500Y-33650000D03*
X47837500Y-33150000D03*
D25*
X46900000Y-32212500D03*
X46400000Y-32212500D03*
X45900000Y-32212500D03*
X45400000Y-32212500D03*
X44900000Y-32212500D03*
D26*
X47200000Y-39125000D03*
X45000000Y-39125000D03*
X45000000Y-40825000D03*
X47200000Y-40825000D03*
D27*
X31450000Y-36050000D03*
X31450000Y-35100000D03*
X31450000Y-34150000D03*
X29250000Y-34150000D03*
X29250000Y-35100000D03*
X29250000Y-36050000D03*
D28*
X57800000Y-34500000D03*
D29*
X57600000Y-37325000D03*
X57600000Y-31675000D03*
D16*
X49350000Y-33915000D03*
X49350000Y-34885000D03*
D13*
X48625000Y-30900000D03*
X48625000Y-29930000D03*
D30*
X25950000Y-28600000D03*
X23150000Y-28600000D03*
D13*
X42215000Y-30750000D03*
X42215000Y-29780000D03*
X40115000Y-46755000D03*
X40115000Y-45785000D03*
X42215000Y-46750000D03*
X42215000Y-45780000D03*
D10*
X28010000Y-46670000D03*
X28010000Y-48245000D03*
D28*
X57800000Y-50500000D03*
D29*
X57600000Y-53325000D03*
X57600000Y-47675000D03*
D12*
X26920000Y-56910000D03*
X25950000Y-56910000D03*
D31*
X25350000Y-49200000D03*
X25350000Y-49850000D03*
X25350000Y-50500000D03*
X25350000Y-51150000D03*
X25350000Y-51800000D03*
D32*
X25125000Y-47300000D03*
D33*
X22675000Y-49300000D03*
X22675000Y-51700000D03*
D32*
X25125000Y-53700000D03*
D30*
X25950000Y-44600000D03*
X23150000Y-44600000D03*
D11*
X33180000Y-48240000D03*
X33180000Y-46665000D03*
D13*
X41165000Y-46755000D03*
X41165000Y-45785000D03*
D27*
X31450000Y-52050000D03*
X31450000Y-51100000D03*
X31450000Y-50150000D03*
X29250000Y-50150000D03*
X29250000Y-51100000D03*
X29250000Y-52050000D03*
D13*
X48625000Y-46900000D03*
X48625000Y-45930000D03*
D15*
X45590000Y-46875000D03*
X46560000Y-46875000D03*
D16*
X54300000Y-48930000D03*
X54300000Y-49900000D03*
D12*
X52350000Y-52900000D03*
X51380000Y-52900000D03*
D14*
X44737500Y-45575000D03*
X46312500Y-45575000D03*
D12*
X53270000Y-49900000D03*
X52300000Y-49900000D03*
D16*
X49350000Y-49915000D03*
X49350000Y-50885000D03*
D10*
X37040000Y-44605000D03*
X37040000Y-46180000D03*
D12*
X44600000Y-46875000D03*
X43630000Y-46875000D03*
X37125000Y-54130000D03*
X36155000Y-54130000D03*
D13*
X38440000Y-46755000D03*
X38440000Y-45785000D03*
D12*
X52350000Y-51900000D03*
X51380000Y-51900000D03*
D15*
X50350000Y-49900000D03*
X51320000Y-49900000D03*
X43830000Y-53550000D03*
X44800000Y-53550000D03*
D13*
X43325000Y-56460000D03*
X43325000Y-55490000D03*
D10*
X35340000Y-44605000D03*
X35340000Y-46180000D03*
D16*
X48850000Y-55490000D03*
X48850000Y-56460000D03*
D17*
X29600000Y-44400000D03*
X27725000Y-44400000D03*
D23*
X45275000Y-49525000D03*
X45275000Y-50775000D03*
X46525000Y-49525000D03*
X46525000Y-50775000D03*
D24*
X43962500Y-49150000D03*
X43962500Y-49650000D03*
X43962500Y-50150000D03*
X43962500Y-50650000D03*
X43962500Y-51150000D03*
D25*
X44900000Y-52087500D03*
X45400000Y-52087500D03*
X45900000Y-52087500D03*
X46400000Y-52087500D03*
X46900000Y-52087500D03*
D24*
X47837500Y-51150000D03*
X47837500Y-50650000D03*
X47837500Y-50150000D03*
X47837500Y-49650000D03*
X47837500Y-49150000D03*
D25*
X46900000Y-48212500D03*
X46400000Y-48212500D03*
X45900000Y-48212500D03*
X45400000Y-48212500D03*
X44900000Y-48212500D03*
D14*
X38690000Y-44380000D03*
X40265000Y-44380000D03*
D26*
X47200000Y-55125000D03*
X45000000Y-55125000D03*
X45000000Y-56825000D03*
X47200000Y-56825000D03*
D13*
X47575000Y-46895000D03*
X47575000Y-45925000D03*
D15*
X46590000Y-53575000D03*
X47560000Y-53575000D03*
D20*
X39815000Y-49305000D03*
X38665000Y-49305000D03*
X37515000Y-49305000D03*
X39815000Y-50455000D03*
X38665000Y-50455000D03*
X37515000Y-50455000D03*
X39815000Y-51605000D03*
X38665000Y-51605000D03*
X37515000Y-51605000D03*
D21*
X40415000Y-48017500D03*
X39915000Y-48017500D03*
X39415000Y-48017500D03*
X38915000Y-48017500D03*
X38415000Y-48017500D03*
X37915000Y-48017500D03*
X37415000Y-48017500D03*
X36915000Y-48017500D03*
D22*
X36227500Y-48705000D03*
X36227500Y-49205000D03*
X36227500Y-49705000D03*
X36227500Y-50205000D03*
X36227500Y-50705000D03*
X36227500Y-51205000D03*
X36227500Y-51705000D03*
X36227500Y-52205000D03*
D21*
X36915000Y-52892500D03*
X37415000Y-52892500D03*
X37915000Y-52892500D03*
X38415000Y-52892500D03*
X38915000Y-52892500D03*
X39415000Y-52892500D03*
X39915000Y-52892500D03*
X40415000Y-52892500D03*
D22*
X41102500Y-52205000D03*
X41102500Y-51705000D03*
X41102500Y-51205000D03*
X41102500Y-50705000D03*
X41102500Y-50205000D03*
X41102500Y-49705000D03*
X41102500Y-49205000D03*
X41102500Y-48705000D03*
D19*
X29650000Y-48240000D03*
X31550000Y-48240000D03*
X30600000Y-46240000D03*
D18*
X33237500Y-44400000D03*
X31662500Y-44400000D03*
D13*
X50350000Y-51895000D03*
X50350000Y-50925000D03*
D31*
X25350000Y-33200000D03*
X25350000Y-33850000D03*
X25350000Y-34500000D03*
X25350000Y-35150000D03*
X25350000Y-35800000D03*
D32*
X25125000Y-31300000D03*
D33*
X22675000Y-33300000D03*
X22675000Y-35700000D03*
D32*
X25125000Y-37700000D03*
M02*
