G04 #@! TF.GenerationSoftware,KiCad,Pcbnew,10.0.3*
G04 #@! TF.CreationDate,2026-05-25T20:04:59+05:30*
G04 #@! TF.ProjectId,STRF_PanelX (1),53545246-5f50-4616-9e65-6c5820283129,1*
G04 #@! TF.SameCoordinates,Original*
G04 #@! TF.FileFunction,Copper,L3,Inr*
G04 #@! TF.FilePolarity,Positive*
%FSLAX46Y46*%
G04 Gerber Fmt 4.6, Leading zero omitted, Abs format (unit mm)*
G04 Created by KiCad (PCBNEW 10.0.3) date 2026-05-25 20:04:59*
%MOMM*%
%LPD*%
G01*
G04 APERTURE LIST*
G04 #@! TA.AperFunction,ComponentPad*
%ADD10R,1.000000X1.000000*%
G04 #@! TD*
G04 #@! TA.AperFunction,ComponentPad*
%ADD11O,1.000000X1.000000*%
G04 #@! TD*
G04 #@! TA.AperFunction,ComponentPad*
%ADD12O,1.950000X1.600000*%
G04 #@! TD*
G04 #@! TA.AperFunction,ViaPad*
%ADD13C,0.800000*%
G04 #@! TD*
G04 #@! TA.AperFunction,ViaPad*
%ADD14C,0.700000*%
G04 #@! TD*
G04 APERTURE END LIST*
D10*
X33870000Y-38930000D03*
D11*
X33870000Y-40200000D03*
X32600000Y-38930000D03*
X32600000Y-40200000D03*
X31330000Y-38930000D03*
X31330000Y-40200000D03*
X30060000Y-38930000D03*
X30060000Y-40200000D03*
X28790000Y-38930000D03*
X28790000Y-40200000D03*
D12*
X22675000Y-47200000D03*
X22675000Y-53800000D03*
D10*
X33870000Y-54930000D03*
D11*
X33870000Y-56200000D03*
X32600000Y-54930000D03*
X32600000Y-56200000D03*
X31330000Y-54930000D03*
X31330000Y-56200000D03*
X30060000Y-54930000D03*
X30060000Y-56200000D03*
X28790000Y-54930000D03*
X28790000Y-56200000D03*
D12*
X22675000Y-31200000D03*
X22675000Y-37800000D03*
D13*
X31900000Y-29600000D03*
X42440000Y-27980000D03*
X42440000Y-28905000D03*
X48625000Y-29025000D03*
X46300000Y-28425000D03*
X25030000Y-40910000D03*
X43620000Y-29920000D03*
X41415000Y-28905000D03*
X41415000Y-27980000D03*
X34350000Y-31425000D03*
X28000000Y-33350000D03*
X28100000Y-37200000D03*
X53250000Y-36900000D03*
X53250000Y-35900000D03*
X58200000Y-30400000D03*
X58200000Y-38600000D03*
X48850000Y-41350000D03*
X43600000Y-38600000D03*
X45550000Y-37450000D03*
X50250000Y-41300000D03*
X52750000Y-41300000D03*
X55750000Y-41300000D03*
X58400000Y-41300000D03*
X30600000Y-32975000D03*
X30600000Y-31475000D03*
X38665000Y-34455000D03*
X38640000Y-33455000D03*
X38640000Y-35455000D03*
X50250000Y-30200000D03*
X50250000Y-32500000D03*
X50250000Y-39075000D03*
X59500000Y-39000000D03*
X59500000Y-30000000D03*
X52750000Y-27700000D03*
X58400000Y-27700000D03*
X55750000Y-27700000D03*
X50250000Y-36900000D03*
X50250000Y-27700000D03*
X27075000Y-37200000D03*
X29100000Y-37200000D03*
D14*
X45250000Y-33500000D03*
X46500000Y-33500000D03*
X45250000Y-34750000D03*
X46500000Y-34750000D03*
D13*
X57250000Y-30400000D03*
X56250000Y-30400000D03*
X57250000Y-38600000D03*
X56250000Y-38600000D03*
X38640000Y-51455000D03*
X50250000Y-43700000D03*
X50250000Y-46200000D03*
X53250000Y-52900000D03*
X58200000Y-46400000D03*
X48625000Y-45025000D03*
X25030000Y-56910000D03*
X28000000Y-49350000D03*
X54300000Y-48025000D03*
X41415000Y-43980000D03*
X43620000Y-45920000D03*
X27075000Y-52200000D03*
X28100000Y-53200000D03*
X46300000Y-44425000D03*
D14*
X36155000Y-53465000D03*
D13*
X41415000Y-44905000D03*
X53250000Y-51900000D03*
X58200000Y-54600000D03*
X30600000Y-48975000D03*
X30600000Y-47475000D03*
X34350000Y-47425000D03*
D14*
X48900000Y-48600000D03*
D13*
X43600000Y-54600000D03*
X48850000Y-57350000D03*
X38665000Y-50455000D03*
X38640000Y-49455000D03*
D14*
X30350000Y-51100000D03*
D13*
X29100000Y-53200000D03*
X52750000Y-57300000D03*
X42440000Y-44905000D03*
D14*
X46500000Y-49500000D03*
D13*
X56250000Y-54600000D03*
X50250000Y-52900000D03*
X58400000Y-57300000D03*
X27075000Y-53200000D03*
D14*
X41940000Y-48355000D03*
D13*
X57250000Y-54600000D03*
X50250000Y-57300000D03*
X59500000Y-55000000D03*
X55750000Y-43700000D03*
D14*
X45250000Y-49500000D03*
D13*
X50250000Y-48500000D03*
X57250000Y-46400000D03*
X55750000Y-57300000D03*
X56250000Y-46400000D03*
X58400000Y-43700000D03*
X31900000Y-45600000D03*
X45550000Y-53450000D03*
X47575000Y-45025000D03*
X52750000Y-43700000D03*
D14*
X45250000Y-50750000D03*
D13*
X42440000Y-43980000D03*
D14*
X46500000Y-50750000D03*
D13*
X50250000Y-55075000D03*
X59500000Y-46000000D03*
X47575000Y-29025000D03*
X27075000Y-36200000D03*
D14*
X30350000Y-35100000D03*
X48900000Y-32600000D03*
D13*
X54300000Y-32025000D03*
D14*
X36155000Y-37465000D03*
X41940000Y-32355000D03*
D13*
X44750000Y-28425000D03*
X43070000Y-37620000D03*
X33575000Y-33350000D03*
X34450000Y-33350000D03*
X34450000Y-32475000D03*
X32700000Y-49350000D03*
X34450000Y-49350000D03*
D14*
X41615000Y-47505000D03*
D13*
X44750000Y-44425000D03*
D14*
X37690000Y-54680000D03*
D13*
X33575000Y-49350000D03*
X43070000Y-53620000D03*
D14*
X48650000Y-47725000D03*
X37640000Y-47080000D03*
D13*
X34450000Y-48475000D03*
D14*
X37690000Y-38680000D03*
X48650000Y-31725000D03*
D13*
X32700000Y-33350000D03*
D14*
X37640000Y-31080000D03*
X41615000Y-31505000D03*
X39306275Y-46262975D03*
X39306275Y-30262975D03*
X42580000Y-52290000D03*
X42599910Y-50555019D03*
X42580000Y-36290000D03*
X42599910Y-34555019D03*
X27050000Y-49550000D03*
X28700000Y-51100000D03*
X27050000Y-33550000D03*
X28700000Y-35100000D03*
G04 #@! TA.AperFunction,Conductor*
G36*
X46866217Y-43226456D02*
G01*
X46869946Y-43228851D01*
X46973453Y-43298013D01*
X47137334Y-43365894D01*
X47311309Y-43400500D01*
X47311310Y-43400500D01*
X47488690Y-43400500D01*
X47488691Y-43400500D01*
X47662666Y-43365894D01*
X47738347Y-43334545D01*
X47808935Y-43326957D01*
X47856565Y-43346189D01*
X47968188Y-43420774D01*
X48095670Y-43473579D01*
X48231004Y-43500499D01*
X48234104Y-43500499D01*
X48234108Y-43500500D01*
X48299997Y-43500500D01*
X48365889Y-43500501D01*
X48365893Y-43500500D01*
X49124000Y-43500500D01*
X49192121Y-43520502D01*
X49238614Y-43574158D01*
X49250000Y-43626500D01*
X49250000Y-44420732D01*
X49229998Y-44488853D01*
X49176342Y-44535346D01*
X49106068Y-44545450D01*
X49047608Y-44519694D01*
X49047367Y-44520056D01*
X49045312Y-44518683D01*
X49044075Y-44518138D01*
X49042226Y-44516621D01*
X49036063Y-44512503D01*
X48935022Y-44444989D01*
X48815911Y-44395652D01*
X48689465Y-44370500D01*
X48689463Y-44370500D01*
X48560537Y-44370500D01*
X48560534Y-44370500D01*
X48434088Y-44395652D01*
X48434083Y-44395654D01*
X48314978Y-44444989D01*
X48207780Y-44516616D01*
X48207774Y-44516621D01*
X48189095Y-44535301D01*
X48126783Y-44569327D01*
X48055968Y-44564262D01*
X48010905Y-44535301D01*
X47992225Y-44516621D01*
X47992219Y-44516616D01*
X47951581Y-44489463D01*
X47885022Y-44444989D01*
X47765911Y-44395652D01*
X47639465Y-44370500D01*
X47639463Y-44370500D01*
X47510537Y-44370500D01*
X47510534Y-44370500D01*
X47384088Y-44395652D01*
X47384083Y-44395654D01*
X47264978Y-44444989D01*
X47152633Y-44520056D01*
X47151437Y-44518266D01*
X47095056Y-44542195D01*
X47025081Y-44530197D01*
X46972700Y-44482271D01*
X46954500Y-44417039D01*
X46954500Y-44360538D01*
X46954499Y-44360534D01*
X46948296Y-44329348D01*
X46929348Y-44234089D01*
X46880011Y-44114978D01*
X46808383Y-44007780D01*
X46808378Y-44007774D01*
X46717225Y-43916621D01*
X46717219Y-43916616D01*
X46652133Y-43873127D01*
X46610022Y-43844989D01*
X46490911Y-43795652D01*
X46364465Y-43770500D01*
X46364463Y-43770500D01*
X46235537Y-43770500D01*
X46235534Y-43770500D01*
X46109088Y-43795652D01*
X46109083Y-43795654D01*
X45989978Y-43844989D01*
X45882780Y-43916616D01*
X45882774Y-43916621D01*
X45791621Y-44007774D01*
X45791616Y-44007780D01*
X45719989Y-44114978D01*
X45670654Y-44234083D01*
X45670652Y-44234088D01*
X45645500Y-44360534D01*
X45645500Y-44489465D01*
X45655989Y-44542195D01*
X45670652Y-44615911D01*
X45719989Y-44735022D01*
X45748570Y-44777796D01*
X45791616Y-44842219D01*
X45791621Y-44842225D01*
X45882774Y-44933378D01*
X45882780Y-44933383D01*
X45989978Y-45005011D01*
X46109089Y-45054348D01*
X46235537Y-45079500D01*
X46235538Y-45079500D01*
X46364462Y-45079500D01*
X46364463Y-45079500D01*
X46490911Y-45054348D01*
X46610022Y-45005011D01*
X46717220Y-44933383D01*
X46717219Y-44933383D01*
X46722367Y-44929944D01*
X46723566Y-44931739D01*
X46779909Y-44907808D01*
X46849888Y-44919787D01*
X46902281Y-44967697D01*
X46920500Y-45032960D01*
X46920500Y-45089465D01*
X46939061Y-45182774D01*
X46945652Y-45215911D01*
X46994989Y-45335022D01*
X47042849Y-45406649D01*
X47066616Y-45442219D01*
X47066621Y-45442225D01*
X47157774Y-45533378D01*
X47157780Y-45533383D01*
X47264978Y-45605011D01*
X47384089Y-45654348D01*
X47510537Y-45679500D01*
X47510538Y-45679500D01*
X47639462Y-45679500D01*
X47639463Y-45679500D01*
X47765911Y-45654348D01*
X47885022Y-45605011D01*
X47992220Y-45533383D01*
X47995659Y-45529944D01*
X48010905Y-45514699D01*
X48073217Y-45480673D01*
X48144032Y-45485738D01*
X48189095Y-45514699D01*
X48207774Y-45533378D01*
X48207780Y-45533383D01*
X48314978Y-45605011D01*
X48434089Y-45654348D01*
X48560537Y-45679500D01*
X48560538Y-45679500D01*
X48689462Y-45679500D01*
X48689463Y-45679500D01*
X48815911Y-45654348D01*
X48935022Y-45605011D01*
X49042220Y-45533383D01*
X49042224Y-45533378D01*
X49044066Y-45531868D01*
X49045222Y-45531376D01*
X49047367Y-45529944D01*
X49047638Y-45530350D01*
X49109413Y-45504114D01*
X49179391Y-45516095D01*
X49231783Y-45564008D01*
X49250000Y-45629267D01*
X49250000Y-47903751D01*
X49229998Y-47971872D01*
X49176342Y-48018365D01*
X49106068Y-48028469D01*
X49091389Y-48025458D01*
X49046133Y-48013331D01*
X48979584Y-47995500D01*
X48820416Y-47995500D01*
X48666672Y-48036696D01*
X48666667Y-48036698D01*
X48528831Y-48116277D01*
X48528821Y-48116285D01*
X48416285Y-48228821D01*
X48416277Y-48228831D01*
X48336698Y-48366667D01*
X48336696Y-48366672D01*
X48295500Y-48520416D01*
X48295500Y-48520418D01*
X48295500Y-48679587D01*
X48332157Y-48816388D01*
X48330468Y-48887365D01*
X48290674Y-48946161D01*
X48225410Y-48974109D01*
X48210451Y-48975000D01*
X46833435Y-48975000D01*
X46770435Y-48958119D01*
X46733333Y-48936698D01*
X46733330Y-48936697D01*
X46733328Y-48936696D01*
X46579584Y-48895500D01*
X46420416Y-48895500D01*
X46281309Y-48932774D01*
X46266672Y-48936696D01*
X46266667Y-48936698D01*
X46128831Y-49016277D01*
X46128821Y-49016285D01*
X46016285Y-49128821D01*
X46016277Y-49128831D01*
X45984119Y-49184532D01*
X45932736Y-49233525D01*
X45863023Y-49246961D01*
X45797112Y-49220575D01*
X45765881Y-49184532D01*
X45733722Y-49128831D01*
X45733714Y-49128821D01*
X45621178Y-49016285D01*
X45621168Y-49016277D01*
X45483332Y-48936698D01*
X45483330Y-48936697D01*
X45483328Y-48936696D01*
X45329584Y-48895500D01*
X45170416Y-48895500D01*
X45031309Y-48932774D01*
X45016672Y-48936696D01*
X45016667Y-48936698D01*
X44878831Y-49016277D01*
X44878821Y-49016285D01*
X44766285Y-49128821D01*
X44766277Y-49128831D01*
X44686698Y-49266667D01*
X44686696Y-49266672D01*
X44645500Y-49420416D01*
X44645500Y-49579584D01*
X44667054Y-49660022D01*
X44686696Y-49733327D01*
X44686698Y-49733332D01*
X44766277Y-49871168D01*
X44766285Y-49871178D01*
X44878821Y-49983714D01*
X44878826Y-49983718D01*
X44878828Y-49983720D01*
X44878829Y-49983721D01*
X44878831Y-49983722D01*
X44934532Y-50015881D01*
X44983525Y-50067264D01*
X44996961Y-50136977D01*
X44970575Y-50202888D01*
X44934532Y-50234119D01*
X44878831Y-50266277D01*
X44878821Y-50266285D01*
X44766285Y-50378821D01*
X44766277Y-50378831D01*
X44686698Y-50516667D01*
X44686696Y-50516672D01*
X44645500Y-50670416D01*
X44645500Y-50829584D01*
X44683593Y-50971747D01*
X44686696Y-50983327D01*
X44686698Y-50983332D01*
X44766277Y-51121168D01*
X44766285Y-51121178D01*
X44878821Y-51233714D01*
X44878826Y-51233718D01*
X44878828Y-51233720D01*
X44878829Y-51233721D01*
X44878831Y-51233722D01*
X44931418Y-51264083D01*
X45016672Y-51313304D01*
X45170416Y-51354500D01*
X45170419Y-51354500D01*
X45329581Y-51354500D01*
X45329584Y-51354500D01*
X45483328Y-51313304D01*
X45621172Y-51233720D01*
X45733720Y-51121172D01*
X45765881Y-51065466D01*
X45817263Y-51016474D01*
X45886976Y-51003037D01*
X45952887Y-51029424D01*
X45984118Y-51065465D01*
X46016280Y-51121172D01*
X46016282Y-51121174D01*
X46016285Y-51121178D01*
X46128821Y-51233714D01*
X46128825Y-51233717D01*
X46128828Y-51233720D01*
X46140376Y-51240387D01*
X46189370Y-51291768D01*
X46202808Y-51361481D01*
X46176423Y-51427393D01*
X46118591Y-51468576D01*
X46077018Y-51475506D01*
X45900000Y-51474999D01*
X45900000Y-52699020D01*
X45879998Y-52767141D01*
X45826342Y-52813634D01*
X45756068Y-52823738D01*
X45747007Y-52821724D01*
X45746981Y-52821860D01*
X45740913Y-52820653D01*
X45740911Y-52820652D01*
X45667016Y-52805953D01*
X45614465Y-52795500D01*
X45614463Y-52795500D01*
X45485537Y-52795500D01*
X45485534Y-52795500D01*
X45359088Y-52820652D01*
X45359083Y-52820654D01*
X45239978Y-52869989D01*
X45132780Y-52941616D01*
X45132774Y-52941621D01*
X45041621Y-53032774D01*
X45041616Y-53032780D01*
X44969989Y-53139978D01*
X44920654Y-53259083D01*
X44920652Y-53259088D01*
X44895500Y-53385534D01*
X44895500Y-53385537D01*
X44895500Y-53514463D01*
X44920652Y-53640911D01*
X44920653Y-53640913D01*
X44921860Y-53646981D01*
X44919686Y-53647413D01*
X44920225Y-53708430D01*
X44882370Y-53768492D01*
X44818052Y-53798554D01*
X44799020Y-53800000D01*
X43600000Y-53800000D01*
X43600000Y-53829271D01*
X43579998Y-53897392D01*
X43526342Y-53943885D01*
X43498583Y-53952850D01*
X43454411Y-53961636D01*
X43409089Y-53970652D01*
X43409087Y-53970653D01*
X43409083Y-53970654D01*
X43289978Y-54019989D01*
X43182780Y-54091616D01*
X43182774Y-54091621D01*
X43091621Y-54182774D01*
X43091616Y-54182780D01*
X43019989Y-54289978D01*
X42970654Y-54409083D01*
X42970652Y-54409088D01*
X42945500Y-54535534D01*
X42945500Y-54664465D01*
X42954542Y-54709920D01*
X42970652Y-54790911D01*
X43019989Y-54910022D01*
X43033338Y-54930000D01*
X43091616Y-55017219D01*
X43091621Y-55017225D01*
X43182774Y-55108378D01*
X43182780Y-55108383D01*
X43289978Y-55180011D01*
X43409089Y-55229348D01*
X43498582Y-55247149D01*
X43561491Y-55280057D01*
X43596623Y-55341752D01*
X43600000Y-55370728D01*
X43600000Y-57328045D01*
X43579998Y-57396166D01*
X43526342Y-57442659D01*
X43473611Y-57454044D01*
X42075254Y-57449729D01*
X42075254Y-57449728D01*
X42067388Y-57449703D01*
X42067354Y-57449695D01*
X42004047Y-57449510D01*
X42004027Y-57449510D01*
X42004026Y-57449509D01*
X42004026Y-57449510D01*
X41927777Y-57449274D01*
X41927576Y-57449286D01*
X31135567Y-57417764D01*
X31131759Y-57418254D01*
X31115368Y-57419284D01*
X25720658Y-57405713D01*
X25652588Y-57385539D01*
X25606230Y-57331767D01*
X25596303Y-57261468D01*
X25608016Y-57225896D01*
X25607642Y-57225741D01*
X25609719Y-57220725D01*
X25609856Y-57220311D01*
X25610005Y-57220030D01*
X25610011Y-57220022D01*
X25659348Y-57100911D01*
X25684500Y-56974463D01*
X25684500Y-56845537D01*
X25659348Y-56719089D01*
X25610011Y-56599978D01*
X25538383Y-56492780D01*
X25538378Y-56492774D01*
X25447225Y-56401621D01*
X25447219Y-56401616D01*
X25411649Y-56377849D01*
X25340022Y-56329989D01*
X25220911Y-56280652D01*
X25189028Y-56274310D01*
X25094465Y-56255500D01*
X25094463Y-56255500D01*
X24965537Y-56255500D01*
X24965534Y-56255500D01*
X24839088Y-56280652D01*
X24839083Y-56280654D01*
X24719978Y-56329989D01*
X24612780Y-56401616D01*
X24612774Y-56401621D01*
X24521621Y-56492774D01*
X24521616Y-56492780D01*
X24449989Y-56599978D01*
X24400654Y-56719083D01*
X24400652Y-56719088D01*
X24375500Y-56845534D01*
X24375500Y-56974465D01*
X24400652Y-57100911D01*
X24400654Y-57100916D01*
X24452358Y-57225741D01*
X24450318Y-57226585D01*
X24462755Y-57286359D01*
X24437343Y-57352651D01*
X24380124Y-57394681D01*
X24336846Y-57402231D01*
X23540127Y-57400227D01*
X23472057Y-57380053D01*
X23425699Y-57326281D01*
X23415772Y-57255982D01*
X23445427Y-57191475D01*
X23483239Y-57161961D01*
X23564209Y-57120706D01*
X23701293Y-57021108D01*
X23821108Y-56901293D01*
X23920706Y-56764209D01*
X23997632Y-56613233D01*
X24049993Y-56452081D01*
X24076500Y-56284722D01*
X24076500Y-56115278D01*
X24049993Y-55947919D01*
X23997632Y-55786767D01*
X23920706Y-55635791D01*
X23821108Y-55498707D01*
X23821106Y-55498704D01*
X23701295Y-55378893D01*
X23564212Y-55279296D01*
X23564211Y-55279295D01*
X23564209Y-55279294D01*
X23413233Y-55202368D01*
X23413230Y-55202367D01*
X23413228Y-55202366D01*
X23252084Y-55150008D01*
X23252088Y-55150008D01*
X23220930Y-55145073D01*
X23084722Y-55123500D01*
X22915278Y-55123500D01*
X22747919Y-55150007D01*
X22747913Y-55150008D01*
X22586771Y-55202366D01*
X22586765Y-55202369D01*
X22435787Y-55279296D01*
X22298704Y-55378893D01*
X22178893Y-55498704D01*
X22079296Y-55635787D01*
X22002369Y-55786765D01*
X22002368Y-55786768D01*
X21996333Y-55805342D01*
X21956259Y-55863948D01*
X21890862Y-55891584D01*
X21820905Y-55879477D01*
X21768599Y-55831470D01*
X21750500Y-55766405D01*
X21750500Y-54855685D01*
X28035500Y-54855685D01*
X28035500Y-55004314D01*
X28045671Y-55055445D01*
X28064495Y-55150080D01*
X28121371Y-55287390D01*
X28182510Y-55378892D01*
X28203942Y-55410967D01*
X28203947Y-55410973D01*
X28268879Y-55475905D01*
X28302905Y-55538217D01*
X28297840Y-55609032D01*
X28268879Y-55654095D01*
X28203947Y-55719026D01*
X28203942Y-55719032D01*
X28121371Y-55842610D01*
X28064497Y-55979914D01*
X28064495Y-55979919D01*
X28035500Y-56125685D01*
X28035500Y-56274314D01*
X28045077Y-56322458D01*
X28064495Y-56420080D01*
X28121371Y-56557390D01*
X28203941Y-56680966D01*
X28203942Y-56680967D01*
X28203947Y-56680973D01*
X28309026Y-56786052D01*
X28309032Y-56786057D01*
X28309034Y-56786059D01*
X28432610Y-56868629D01*
X28569920Y-56925505D01*
X28715688Y-56954500D01*
X28715689Y-56954500D01*
X28864311Y-56954500D01*
X28864312Y-56954500D01*
X29010080Y-56925505D01*
X29147390Y-56868629D01*
X29270966Y-56786059D01*
X29292816Y-56764209D01*
X29335905Y-56721121D01*
X29398217Y-56687095D01*
X29469032Y-56692160D01*
X29514095Y-56721121D01*
X29579026Y-56786052D01*
X29579032Y-56786057D01*
X29579034Y-56786059D01*
X29702610Y-56868629D01*
X29839920Y-56925505D01*
X29985688Y-56954500D01*
X29985689Y-56954500D01*
X30134311Y-56954500D01*
X30134312Y-56954500D01*
X30280080Y-56925505D01*
X30417390Y-56868629D01*
X30540966Y-56786059D01*
X30562816Y-56764209D01*
X30605905Y-56721121D01*
X30668217Y-56687095D01*
X30739032Y-56692160D01*
X30784095Y-56721121D01*
X30849026Y-56786052D01*
X30849032Y-56786057D01*
X30849034Y-56786059D01*
X30972610Y-56868629D01*
X31109920Y-56925505D01*
X31255688Y-56954500D01*
X31255689Y-56954500D01*
X31404311Y-56954500D01*
X31404312Y-56954500D01*
X31550080Y-56925505D01*
X31687390Y-56868629D01*
X31810966Y-56786059D01*
X31832816Y-56764209D01*
X31875905Y-56721121D01*
X31938217Y-56687095D01*
X32009032Y-56692160D01*
X32054095Y-56721121D01*
X32119026Y-56786052D01*
X32119032Y-56786057D01*
X32119034Y-56786059D01*
X32242610Y-56868629D01*
X32379920Y-56925505D01*
X32525688Y-56954500D01*
X32525689Y-56954500D01*
X32674311Y-56954500D01*
X32674312Y-56954500D01*
X32820080Y-56925505D01*
X32957390Y-56868629D01*
X33080966Y-56786059D01*
X33102816Y-56764209D01*
X33145905Y-56721121D01*
X33208217Y-56687095D01*
X33279032Y-56692160D01*
X33324095Y-56721121D01*
X33389026Y-56786052D01*
X33389032Y-56786057D01*
X33389034Y-56786059D01*
X33512610Y-56868629D01*
X33649920Y-56925505D01*
X33795688Y-56954500D01*
X33795689Y-56954500D01*
X33944311Y-56954500D01*
X33944312Y-56954500D01*
X34090080Y-56925505D01*
X34227390Y-56868629D01*
X34350966Y-56786059D01*
X34456059Y-56680966D01*
X34538629Y-56557390D01*
X34595505Y-56420080D01*
X34624500Y-56274312D01*
X34624500Y-56125688D01*
X34596423Y-55984536D01*
X34602751Y-55913824D01*
X34644493Y-55859088D01*
X34732904Y-55792904D01*
X34820444Y-55675965D01*
X34820444Y-55675964D01*
X34871494Y-55539093D01*
X34877999Y-55478597D01*
X34878000Y-55478585D01*
X34878000Y-55184000D01*
X34075618Y-55184000D01*
X34130064Y-55129554D01*
X34172851Y-55055445D01*
X34195000Y-54972787D01*
X34195000Y-54887213D01*
X34172851Y-54804555D01*
X34130064Y-54730446D01*
X34075618Y-54676000D01*
X34124000Y-54676000D01*
X34878000Y-54676000D01*
X34878000Y-54381414D01*
X34877999Y-54381402D01*
X34871494Y-54320906D01*
X34820444Y-54184035D01*
X34820444Y-54184034D01*
X34732904Y-54067095D01*
X34615965Y-53979555D01*
X34479093Y-53928505D01*
X34418597Y-53922000D01*
X34124000Y-53922000D01*
X34124000Y-54676000D01*
X34075618Y-54676000D01*
X34069554Y-54669936D01*
X33995445Y-54627149D01*
X33912787Y-54605000D01*
X33827213Y-54605000D01*
X33744555Y-54627149D01*
X33670446Y-54669936D01*
X33616000Y-54724382D01*
X33616000Y-53922000D01*
X33321402Y-53922000D01*
X33260906Y-53928505D01*
X33124035Y-53979555D01*
X33124034Y-53979555D01*
X33007095Y-54067095D01*
X32940912Y-54155507D01*
X32884076Y-54198054D01*
X32815464Y-54203576D01*
X32732006Y-54186976D01*
X32674314Y-54175500D01*
X32674312Y-54175500D01*
X32525688Y-54175500D01*
X32525685Y-54175500D01*
X32379919Y-54204495D01*
X32379914Y-54204497D01*
X32242610Y-54261371D01*
X32119032Y-54343942D01*
X32119026Y-54343947D01*
X32054095Y-54408879D01*
X31991783Y-54442905D01*
X31920968Y-54437840D01*
X31875905Y-54408879D01*
X31810973Y-54343947D01*
X31810967Y-54343942D01*
X31776491Y-54320906D01*
X31687390Y-54261371D01*
X31550080Y-54204495D01*
X31517699Y-54198054D01*
X31404314Y-54175500D01*
X31404312Y-54175500D01*
X31255688Y-54175500D01*
X31255685Y-54175500D01*
X31109919Y-54204495D01*
X31109914Y-54204497D01*
X30972610Y-54261371D01*
X30849032Y-54343942D01*
X30849026Y-54343947D01*
X30784095Y-54408879D01*
X30721783Y-54442905D01*
X30650968Y-54437840D01*
X30605905Y-54408879D01*
X30540973Y-54343947D01*
X30540967Y-54343942D01*
X30506491Y-54320906D01*
X30417390Y-54261371D01*
X30280080Y-54204495D01*
X30247699Y-54198054D01*
X30134314Y-54175500D01*
X30134312Y-54175500D01*
X29985688Y-54175500D01*
X29985685Y-54175500D01*
X29839919Y-54204495D01*
X29839914Y-54204497D01*
X29702610Y-54261371D01*
X29579032Y-54343942D01*
X29579026Y-54343947D01*
X29514095Y-54408879D01*
X29451783Y-54442905D01*
X29380968Y-54437840D01*
X29335905Y-54408879D01*
X29270973Y-54343947D01*
X29270967Y-54343942D01*
X29236491Y-54320906D01*
X29147390Y-54261371D01*
X29010080Y-54204495D01*
X28977699Y-54198054D01*
X28864314Y-54175500D01*
X28864312Y-54175500D01*
X28715688Y-54175500D01*
X28715685Y-54175500D01*
X28569919Y-54204495D01*
X28569914Y-54204497D01*
X28432610Y-54261371D01*
X28309032Y-54343942D01*
X28309026Y-54343947D01*
X28203947Y-54449026D01*
X28203942Y-54449032D01*
X28121371Y-54572610D01*
X28064497Y-54709914D01*
X28064495Y-54709919D01*
X28035500Y-54855685D01*
X21750500Y-54855685D01*
X21750500Y-54803165D01*
X21770502Y-54735044D01*
X21824158Y-54688551D01*
X21894432Y-54678447D01*
X21946503Y-54698401D01*
X22000505Y-54734485D01*
X22000506Y-54734485D01*
X22000507Y-54734486D01*
X22192414Y-54813976D01*
X22396141Y-54854500D01*
X22396142Y-54854500D01*
X22953858Y-54854500D01*
X22953859Y-54854500D01*
X23157586Y-54813976D01*
X23349493Y-54734486D01*
X23522204Y-54619083D01*
X23669083Y-54472204D01*
X23784486Y-54299493D01*
X23863976Y-54107586D01*
X23904500Y-53903859D01*
X23904500Y-53696141D01*
X23863976Y-53492414D01*
X23784486Y-53300507D01*
X23669083Y-53127796D01*
X23669078Y-53127790D01*
X23522209Y-52980921D01*
X23522203Y-52980916D01*
X23463388Y-52941617D01*
X23349493Y-52865514D01*
X23157586Y-52786024D01*
X22953861Y-52745500D01*
X22953859Y-52745500D01*
X22396141Y-52745500D01*
X22396138Y-52745500D01*
X22192413Y-52786024D01*
X22192408Y-52786026D01*
X22000506Y-52865514D01*
X21946502Y-52901599D01*
X21878749Y-52922814D01*
X21810282Y-52904031D01*
X21762839Y-52851214D01*
X21750500Y-52796834D01*
X21750500Y-52135534D01*
X26420500Y-52135534D01*
X26420500Y-52135537D01*
X26420500Y-52264463D01*
X26445652Y-52390911D01*
X26494989Y-52510022D01*
X26503880Y-52523328D01*
X26566618Y-52617222D01*
X26568956Y-52620071D01*
X26569713Y-52621853D01*
X26570056Y-52622367D01*
X26569958Y-52622432D01*
X26596707Y-52685420D01*
X26584722Y-52755397D01*
X26568956Y-52779929D01*
X26566618Y-52782777D01*
X26494989Y-52889978D01*
X26445654Y-53009083D01*
X26445652Y-53009088D01*
X26420500Y-53135534D01*
X26420500Y-53264465D01*
X26444559Y-53385416D01*
X26445652Y-53390911D01*
X26494989Y-53510022D01*
X26542849Y-53581649D01*
X26566616Y-53617219D01*
X26566621Y-53617225D01*
X26657774Y-53708378D01*
X26657780Y-53708383D01*
X26764978Y-53780011D01*
X26884089Y-53829348D01*
X27010537Y-53854500D01*
X27010538Y-53854500D01*
X27139462Y-53854500D01*
X27139463Y-53854500D01*
X27265911Y-53829348D01*
X27385022Y-53780011D01*
X27492220Y-53708383D01*
X27495313Y-53705290D01*
X27498405Y-53702199D01*
X27560717Y-53668173D01*
X27631532Y-53673238D01*
X27676595Y-53702199D01*
X27682774Y-53708378D01*
X27682780Y-53708383D01*
X27789978Y-53780011D01*
X27909089Y-53829348D01*
X28035537Y-53854500D01*
X28035538Y-53854500D01*
X28164462Y-53854500D01*
X28164463Y-53854500D01*
X28290911Y-53829348D01*
X28410022Y-53780011D01*
X28517220Y-53708383D01*
X28517230Y-53708372D01*
X28520063Y-53706049D01*
X28521847Y-53705290D01*
X28522367Y-53704944D01*
X28522432Y-53705042D01*
X28585410Y-53678294D01*
X28655388Y-53690273D01*
X28679937Y-53706049D01*
X28682773Y-53708376D01*
X28682780Y-53708383D01*
X28789978Y-53780011D01*
X28909089Y-53829348D01*
X29035537Y-53854500D01*
X29035538Y-53854500D01*
X29164462Y-53854500D01*
X29164463Y-53854500D01*
X29290911Y-53829348D01*
X29410022Y-53780011D01*
X29517220Y-53708383D01*
X29608383Y-53617220D01*
X29680011Y-53510022D01*
X29729348Y-53390911D01*
X29730441Y-53385416D01*
X35550500Y-53385416D01*
X35550500Y-53544584D01*
X35591696Y-53698327D01*
X35591698Y-53698332D01*
X35671277Y-53836168D01*
X35671285Y-53836178D01*
X35783821Y-53948714D01*
X35783826Y-53948718D01*
X35783828Y-53948720D01*
X35783829Y-53948721D01*
X35783831Y-53948722D01*
X35821815Y-53970652D01*
X35921672Y-54028304D01*
X36075416Y-54069500D01*
X36075419Y-54069500D01*
X36234581Y-54069500D01*
X36234584Y-54069500D01*
X36388328Y-54028304D01*
X36526172Y-53948720D01*
X36638720Y-53836172D01*
X36718304Y-53698328D01*
X36759500Y-53544584D01*
X36759500Y-53385416D01*
X36718304Y-53231672D01*
X36662799Y-53135534D01*
X36638722Y-53093831D01*
X36638714Y-53093821D01*
X36526178Y-52981285D01*
X36526168Y-52981277D01*
X36388332Y-52901698D01*
X36388330Y-52901697D01*
X36388328Y-52901696D01*
X36234584Y-52860500D01*
X36075416Y-52860500D01*
X35948528Y-52894500D01*
X35921672Y-52901696D01*
X35921667Y-52901698D01*
X35783831Y-52981277D01*
X35783821Y-52981285D01*
X35671285Y-53093821D01*
X35671277Y-53093831D01*
X35591698Y-53231667D01*
X35591696Y-53231672D01*
X35550500Y-53385416D01*
X29730441Y-53385416D01*
X29754500Y-53264463D01*
X29754500Y-53135537D01*
X29729348Y-53009089D01*
X29680011Y-52889978D01*
X29608383Y-52782780D01*
X29608378Y-52782774D01*
X29517225Y-52691621D01*
X29517219Y-52691616D01*
X29471650Y-52661168D01*
X29410022Y-52619989D01*
X29290911Y-52570652D01*
X29164465Y-52545500D01*
X29164463Y-52545500D01*
X29035537Y-52545500D01*
X29035534Y-52545500D01*
X28909088Y-52570652D01*
X28909083Y-52570654D01*
X28789978Y-52619989D01*
X28682777Y-52691618D01*
X28679929Y-52693956D01*
X28678146Y-52694713D01*
X28677633Y-52695056D01*
X28677567Y-52694958D01*
X28614580Y-52721707D01*
X28544603Y-52709722D01*
X28520071Y-52693956D01*
X28517222Y-52691618D01*
X28471650Y-52661168D01*
X28410022Y-52619989D01*
X28290911Y-52570652D01*
X28164465Y-52545500D01*
X28164463Y-52545500D01*
X28035537Y-52545500D01*
X28035534Y-52545500D01*
X27909088Y-52570652D01*
X27909083Y-52570654D01*
X27853108Y-52593839D01*
X27782518Y-52601427D01*
X27719032Y-52569646D01*
X27682805Y-52508588D01*
X27685341Y-52437636D01*
X27688478Y-52429222D01*
X27704348Y-52390911D01*
X27729500Y-52264463D01*
X27729500Y-52210416D01*
X41975500Y-52210416D01*
X41975500Y-52369584D01*
X42013131Y-52510022D01*
X42016696Y-52523327D01*
X42016698Y-52523332D01*
X42096277Y-52661168D01*
X42096285Y-52661178D01*
X42208821Y-52773714D01*
X42208826Y-52773718D01*
X42208828Y-52773720D01*
X42208829Y-52773721D01*
X42208831Y-52773722D01*
X42277961Y-52813634D01*
X42346672Y-52853304D01*
X42500416Y-52894500D01*
X42500419Y-52894500D01*
X42659581Y-52894500D01*
X42659584Y-52894500D01*
X42813328Y-52853304D01*
X42951172Y-52773720D01*
X43063720Y-52661172D01*
X43143304Y-52523328D01*
X43184500Y-52369584D01*
X43184500Y-52210416D01*
X43143304Y-52056672D01*
X43063720Y-51918828D01*
X43063718Y-51918826D01*
X43063714Y-51918821D01*
X42951178Y-51806285D01*
X42951168Y-51806277D01*
X42813332Y-51726698D01*
X42813330Y-51726697D01*
X42813328Y-51726696D01*
X42659584Y-51685500D01*
X42500416Y-51685500D01*
X42346672Y-51726696D01*
X42346667Y-51726698D01*
X42208831Y-51806277D01*
X42208821Y-51806285D01*
X42096285Y-51918821D01*
X42096277Y-51918831D01*
X42016698Y-52056667D01*
X42016696Y-52056672D01*
X41975500Y-52210416D01*
X27729500Y-52210416D01*
X27729500Y-52135537D01*
X27704348Y-52009089D01*
X27655011Y-51889978D01*
X27583383Y-51782780D01*
X27583378Y-51782774D01*
X27492225Y-51691621D01*
X27492219Y-51691616D01*
X27423824Y-51645916D01*
X27385022Y-51619989D01*
X27265911Y-51570652D01*
X27139465Y-51545500D01*
X27139463Y-51545500D01*
X27010537Y-51545500D01*
X27010534Y-51545500D01*
X26884088Y-51570652D01*
X26884083Y-51570654D01*
X26764978Y-51619989D01*
X26657780Y-51691616D01*
X26657774Y-51691621D01*
X26566621Y-51782774D01*
X26566616Y-51782780D01*
X26494989Y-51889978D01*
X26445654Y-52009083D01*
X26445652Y-52009088D01*
X26420500Y-52135534D01*
X21750500Y-52135534D01*
X21750500Y-51020416D01*
X28095500Y-51020416D01*
X28095500Y-51179584D01*
X28131331Y-51313304D01*
X28136696Y-51333327D01*
X28136698Y-51333332D01*
X28216277Y-51471168D01*
X28216285Y-51471178D01*
X28328821Y-51583714D01*
X28328826Y-51583718D01*
X28328828Y-51583720D01*
X28466672Y-51663304D01*
X28620416Y-51704500D01*
X28620419Y-51704500D01*
X28779581Y-51704500D01*
X28779584Y-51704500D01*
X28933328Y-51663304D01*
X29071172Y-51583720D01*
X29183720Y-51471172D01*
X29263304Y-51333328D01*
X29304500Y-51179584D01*
X29304500Y-51020416D01*
X29745500Y-51020416D01*
X29745500Y-51179584D01*
X29781331Y-51313304D01*
X29786696Y-51333327D01*
X29786698Y-51333332D01*
X29866277Y-51471168D01*
X29866285Y-51471178D01*
X29978821Y-51583714D01*
X29978826Y-51583718D01*
X29978828Y-51583720D01*
X30116672Y-51663304D01*
X30270416Y-51704500D01*
X30270419Y-51704500D01*
X30429581Y-51704500D01*
X30429584Y-51704500D01*
X30583328Y-51663304D01*
X30721172Y-51583720D01*
X30833720Y-51471172D01*
X30913304Y-51333328D01*
X30954500Y-51179584D01*
X30954500Y-51020416D01*
X30913304Y-50866672D01*
X30833720Y-50728828D01*
X30833718Y-50728826D01*
X30833714Y-50728821D01*
X30721178Y-50616285D01*
X30721168Y-50616277D01*
X30583332Y-50536698D01*
X30583330Y-50536697D01*
X30583328Y-50536696D01*
X30429584Y-50495500D01*
X30270416Y-50495500D01*
X30116672Y-50536696D01*
X30116667Y-50536698D01*
X29978831Y-50616277D01*
X29978821Y-50616285D01*
X29866285Y-50728821D01*
X29866277Y-50728831D01*
X29786698Y-50866667D01*
X29786696Y-50866672D01*
X29745500Y-51020416D01*
X29304500Y-51020416D01*
X29263304Y-50866672D01*
X29183720Y-50728828D01*
X29183718Y-50728826D01*
X29183714Y-50728821D01*
X29071178Y-50616285D01*
X29071168Y-50616277D01*
X28933332Y-50536698D01*
X28933330Y-50536697D01*
X28933328Y-50536696D01*
X28779584Y-50495500D01*
X28620416Y-50495500D01*
X28466672Y-50536696D01*
X28466667Y-50536698D01*
X28328831Y-50616277D01*
X28328821Y-50616285D01*
X28216285Y-50728821D01*
X28216277Y-50728831D01*
X28136698Y-50866667D01*
X28136696Y-50866672D01*
X28095500Y-51020416D01*
X21750500Y-51020416D01*
X21750500Y-49470416D01*
X26445500Y-49470416D01*
X26445500Y-49629584D01*
X26481791Y-49765021D01*
X26486696Y-49783327D01*
X26486698Y-49783332D01*
X26566277Y-49921168D01*
X26566285Y-49921178D01*
X26678821Y-50033714D01*
X26678826Y-50033718D01*
X26678828Y-50033720D01*
X26678829Y-50033721D01*
X26678831Y-50033722D01*
X26775715Y-50089658D01*
X26816672Y-50113304D01*
X26970416Y-50154500D01*
X26970419Y-50154500D01*
X27129581Y-50154500D01*
X27129584Y-50154500D01*
X27283328Y-50113304D01*
X27421172Y-50033720D01*
X27517892Y-49936999D01*
X27580202Y-49902976D01*
X27651018Y-49908040D01*
X27676982Y-49921327D01*
X27689978Y-49930011D01*
X27809089Y-49979348D01*
X27935537Y-50004500D01*
X27935538Y-50004500D01*
X28064462Y-50004500D01*
X28064463Y-50004500D01*
X28190911Y-49979348D01*
X28310022Y-49930011D01*
X28417220Y-49858383D01*
X28508383Y-49767220D01*
X28580011Y-49660022D01*
X28629348Y-49540911D01*
X28654500Y-49414463D01*
X28654500Y-49285537D01*
X28629348Y-49159089D01*
X28580011Y-49039978D01*
X28508383Y-48932780D01*
X28508378Y-48932774D01*
X28417225Y-48841621D01*
X28417219Y-48841616D01*
X28369935Y-48810022D01*
X28310022Y-48769989D01*
X28190911Y-48720652D01*
X28064465Y-48695500D01*
X28064463Y-48695500D01*
X27935537Y-48695500D01*
X27935534Y-48695500D01*
X27809088Y-48720652D01*
X27809083Y-48720654D01*
X27689978Y-48769989D01*
X27582780Y-48841616D01*
X27582774Y-48841621D01*
X27491621Y-48932774D01*
X27491615Y-48932781D01*
X27473198Y-48960344D01*
X27418720Y-49005870D01*
X27348277Y-49014716D01*
X27305437Y-48999459D01*
X27283334Y-48986698D01*
X27283329Y-48986696D01*
X27283328Y-48986696D01*
X27129584Y-48945500D01*
X26970416Y-48945500D01*
X26860322Y-48975000D01*
X26816672Y-48986696D01*
X26816667Y-48986698D01*
X26678831Y-49066277D01*
X26678821Y-49066285D01*
X26566285Y-49178821D01*
X26566277Y-49178831D01*
X26486698Y-49316667D01*
X26486696Y-49316672D01*
X26445500Y-49470416D01*
X21750500Y-49470416D01*
X21750500Y-48203165D01*
X21770502Y-48135044D01*
X21824158Y-48088551D01*
X21894432Y-48078447D01*
X21946501Y-48098400D01*
X21955400Y-48104346D01*
X22000505Y-48134485D01*
X22000506Y-48134485D01*
X22000507Y-48134486D01*
X22192414Y-48213976D01*
X22396141Y-48254500D01*
X22396142Y-48254500D01*
X22953858Y-48254500D01*
X22953859Y-48254500D01*
X23157586Y-48213976D01*
X23349493Y-48134486D01*
X23522204Y-48019083D01*
X23669083Y-47872204D01*
X23784486Y-47699493D01*
X23863976Y-47507586D01*
X23883281Y-47410534D01*
X29945500Y-47410534D01*
X29945500Y-47410537D01*
X29945500Y-47539463D01*
X29970652Y-47665911D01*
X30019989Y-47785022D01*
X30067849Y-47856649D01*
X30091616Y-47892219D01*
X30091621Y-47892225D01*
X30182774Y-47983378D01*
X30182780Y-47983383D01*
X30289978Y-48055011D01*
X30409089Y-48104348D01*
X30409099Y-48104350D01*
X30409338Y-48104423D01*
X30409455Y-48104499D01*
X30414808Y-48106717D01*
X30414387Y-48107731D01*
X30468721Y-48143335D01*
X30497641Y-48208175D01*
X30486914Y-48278357D01*
X30439947Y-48331598D01*
X30414736Y-48343111D01*
X30414808Y-48343283D01*
X30410003Y-48345273D01*
X30409338Y-48345577D01*
X30409090Y-48345651D01*
X30409089Y-48345652D01*
X30409087Y-48345652D01*
X30409083Y-48345654D01*
X30289978Y-48394989D01*
X30182780Y-48466616D01*
X30182774Y-48466621D01*
X30091621Y-48557774D01*
X30091616Y-48557780D01*
X30019989Y-48664978D01*
X29970654Y-48784083D01*
X29970652Y-48784088D01*
X29945500Y-48910534D01*
X29945500Y-49039465D01*
X29950834Y-49066280D01*
X29970652Y-49165911D01*
X30019989Y-49285022D01*
X30041134Y-49316667D01*
X30091616Y-49392219D01*
X30091621Y-49392225D01*
X30182774Y-49483378D01*
X30182780Y-49483383D01*
X30289978Y-49555011D01*
X30409089Y-49604348D01*
X30535537Y-49629500D01*
X30535538Y-49629500D01*
X30664462Y-49629500D01*
X30664463Y-49629500D01*
X30790911Y-49604348D01*
X30910022Y-49555011D01*
X31017220Y-49483383D01*
X31108383Y-49392220D01*
X31109510Y-49390534D01*
X37985500Y-49390534D01*
X37985500Y-49519465D01*
X38010652Y-49645911D01*
X38010654Y-49645916D01*
X38016497Y-49660022D01*
X38059989Y-49765022D01*
X38093696Y-49815468D01*
X38131616Y-49872219D01*
X38131621Y-49872225D01*
X38139798Y-49880402D01*
X38173824Y-49942714D01*
X38168759Y-50013529D01*
X38155468Y-50039499D01*
X38084989Y-50144977D01*
X38035654Y-50264083D01*
X38035652Y-50264088D01*
X38010500Y-50390534D01*
X38010500Y-50390537D01*
X38010500Y-50519463D01*
X38035652Y-50645911D01*
X38084989Y-50765022D01*
X38152907Y-50866667D01*
X38155468Y-50870500D01*
X38176683Y-50938252D01*
X38157900Y-51006719D01*
X38139802Y-51029594D01*
X38131616Y-51037780D01*
X38059989Y-51144978D01*
X38010654Y-51264083D01*
X38010652Y-51264088D01*
X37985500Y-51390534D01*
X37985500Y-51390537D01*
X37985500Y-51519463D01*
X38010652Y-51645911D01*
X38059989Y-51765022D01*
X38107849Y-51836649D01*
X38131616Y-51872219D01*
X38131621Y-51872225D01*
X38222774Y-51963378D01*
X38222780Y-51963383D01*
X38329978Y-52035011D01*
X38449089Y-52084348D01*
X38575537Y-52109500D01*
X38575538Y-52109500D01*
X38704462Y-52109500D01*
X38704463Y-52109500D01*
X38830911Y-52084348D01*
X38950022Y-52035011D01*
X39057220Y-51963383D01*
X39148383Y-51872220D01*
X39220011Y-51765022D01*
X39269348Y-51645911D01*
X39294500Y-51519463D01*
X39294500Y-51390537D01*
X39269348Y-51264089D01*
X39220011Y-51144978D01*
X39149529Y-51039496D01*
X39128316Y-50971747D01*
X39147099Y-50903280D01*
X39165200Y-50880402D01*
X39173383Y-50872220D01*
X39245011Y-50765022D01*
X39294348Y-50645911D01*
X39319500Y-50519463D01*
X39319500Y-50475435D01*
X41995410Y-50475435D01*
X41995410Y-50634603D01*
X42005007Y-50670418D01*
X42036606Y-50788346D01*
X42036608Y-50788351D01*
X42116187Y-50926187D01*
X42116195Y-50926197D01*
X42228731Y-51038733D01*
X42228736Y-51038737D01*
X42228738Y-51038739D01*
X42366582Y-51118323D01*
X42520326Y-51159519D01*
X42520329Y-51159519D01*
X42679491Y-51159519D01*
X42679494Y-51159519D01*
X42833238Y-51118323D01*
X42971082Y-51038739D01*
X43083630Y-50926191D01*
X43163214Y-50788347D01*
X43204410Y-50634603D01*
X43204410Y-50475435D01*
X43163214Y-50321691D01*
X43112655Y-50234120D01*
X43083632Y-50183850D01*
X43083624Y-50183840D01*
X42971088Y-50071304D01*
X42971078Y-50071296D01*
X42833242Y-49991717D01*
X42833240Y-49991716D01*
X42833238Y-49991715D01*
X42679494Y-49950519D01*
X42520326Y-49950519D01*
X42366582Y-49991715D01*
X42366577Y-49991717D01*
X42228741Y-50071296D01*
X42228731Y-50071304D01*
X42116195Y-50183840D01*
X42116187Y-50183850D01*
X42036608Y-50321686D01*
X42036606Y-50321691D01*
X41995410Y-50475435D01*
X39319500Y-50475435D01*
X39319500Y-50390537D01*
X39294348Y-50264089D01*
X39245011Y-50144978D01*
X39173383Y-50037780D01*
X39173378Y-50037774D01*
X39165201Y-50029597D01*
X39131175Y-49967285D01*
X39136240Y-49896470D01*
X39149528Y-49870505D01*
X39220011Y-49765022D01*
X39269348Y-49645911D01*
X39294500Y-49519463D01*
X39294500Y-49390537D01*
X39269348Y-49264089D01*
X39220011Y-49144978D01*
X39148383Y-49037780D01*
X39148378Y-49037774D01*
X39057225Y-48946621D01*
X39057219Y-48946616D01*
X39003218Y-48910534D01*
X38950022Y-48874989D01*
X38830911Y-48825652D01*
X38784338Y-48816388D01*
X38704465Y-48800500D01*
X38704463Y-48800500D01*
X38575537Y-48800500D01*
X38575534Y-48800500D01*
X38449088Y-48825652D01*
X38449083Y-48825654D01*
X38329978Y-48874989D01*
X38222780Y-48946616D01*
X38222774Y-48946621D01*
X38131621Y-49037774D01*
X38131616Y-49037780D01*
X38059989Y-49144978D01*
X38010654Y-49264083D01*
X38010652Y-49264088D01*
X37985500Y-49390534D01*
X31109510Y-49390534D01*
X31180011Y-49285022D01*
X31229348Y-49165911D01*
X31254500Y-49039463D01*
X31254500Y-48910537D01*
X31229348Y-48784089D01*
X31180011Y-48664978D01*
X31108383Y-48557780D01*
X31108378Y-48557774D01*
X31017225Y-48466621D01*
X31017219Y-48466616D01*
X30970706Y-48435537D01*
X30910022Y-48394989D01*
X30897006Y-48389597D01*
X30882834Y-48383727D01*
X30882766Y-48383699D01*
X30790911Y-48345652D01*
X30787990Y-48345071D01*
X30779673Y-48341681D01*
X30756284Y-48323051D01*
X30731281Y-48306669D01*
X30728835Y-48301187D01*
X30724140Y-48297447D01*
X30716668Y-48275416D01*
X41335500Y-48275416D01*
X41335500Y-48434584D01*
X41376696Y-48588327D01*
X41376698Y-48588332D01*
X41456277Y-48726168D01*
X41456285Y-48726178D01*
X41568821Y-48838714D01*
X41568826Y-48838718D01*
X41568828Y-48838720D01*
X41568829Y-48838721D01*
X41568831Y-48838722D01*
X41631648Y-48874989D01*
X41706672Y-48918304D01*
X41860416Y-48959500D01*
X41860419Y-48959500D01*
X42019581Y-48959500D01*
X42019584Y-48959500D01*
X42173328Y-48918304D01*
X42311172Y-48838720D01*
X42423720Y-48726172D01*
X42503304Y-48588328D01*
X42544500Y-48434584D01*
X42544500Y-48275416D01*
X42503304Y-48121672D01*
X42464433Y-48054345D01*
X42423722Y-47983831D01*
X42423714Y-47983821D01*
X42311178Y-47871285D01*
X42311168Y-47871277D01*
X42173332Y-47791698D01*
X42173330Y-47791697D01*
X42173328Y-47791696D01*
X42019584Y-47750500D01*
X41860416Y-47750500D01*
X41706672Y-47791696D01*
X41706667Y-47791698D01*
X41568831Y-47871277D01*
X41568821Y-47871285D01*
X41456285Y-47983821D01*
X41456277Y-47983831D01*
X41376698Y-48121667D01*
X41376696Y-48121672D01*
X41335500Y-48275416D01*
X30716668Y-48275416D01*
X30714537Y-48269131D01*
X30702359Y-48241830D01*
X30703265Y-48235896D01*
X30701338Y-48230212D01*
X30708566Y-48201202D01*
X30713083Y-48171648D01*
X30717053Y-48167146D01*
X30718505Y-48161322D01*
X30740269Y-48140826D01*
X30760047Y-48118405D01*
X30767876Y-48114829D01*
X30770192Y-48112649D01*
X30774345Y-48111875D01*
X30785263Y-48106889D01*
X30785192Y-48106717D01*
X30790016Y-48104718D01*
X30790666Y-48104422D01*
X30790900Y-48104349D01*
X30790911Y-48104348D01*
X30910022Y-48055011D01*
X31017220Y-47983383D01*
X31108383Y-47892220D01*
X31180011Y-47785022D01*
X31229348Y-47665911D01*
X31254500Y-47539463D01*
X31254500Y-47410537D01*
X31244554Y-47360537D01*
X31244553Y-47360534D01*
X33695500Y-47360534D01*
X33695500Y-47489465D01*
X33705446Y-47539465D01*
X33720652Y-47615911D01*
X33769989Y-47735022D01*
X33803398Y-47785021D01*
X33841616Y-47842219D01*
X33841621Y-47842225D01*
X33932774Y-47933378D01*
X33932780Y-47933383D01*
X34039978Y-48005011D01*
X34159089Y-48054348D01*
X34285537Y-48079500D01*
X34285538Y-48079500D01*
X34414462Y-48079500D01*
X34414463Y-48079500D01*
X34540911Y-48054348D01*
X34660022Y-48005011D01*
X34767220Y-47933383D01*
X34858383Y-47842220D01*
X34930011Y-47735022D01*
X34979348Y-47615911D01*
X35004500Y-47489463D01*
X35004500Y-47360537D01*
X34979348Y-47234089D01*
X34930011Y-47114978D01*
X34858383Y-47007780D01*
X34858378Y-47007774D01*
X34767225Y-46916621D01*
X34767219Y-46916616D01*
X34693674Y-46867475D01*
X34660022Y-46844989D01*
X34540911Y-46795652D01*
X34414465Y-46770500D01*
X34414463Y-46770500D01*
X34285537Y-46770500D01*
X34285534Y-46770500D01*
X34159088Y-46795652D01*
X34159083Y-46795654D01*
X34039978Y-46844989D01*
X33932780Y-46916616D01*
X33932774Y-46916621D01*
X33841621Y-47007774D01*
X33841616Y-47007780D01*
X33769989Y-47114978D01*
X33720654Y-47234083D01*
X33720652Y-47234088D01*
X33695500Y-47360534D01*
X31244553Y-47360534D01*
X31241895Y-47347171D01*
X31229348Y-47284089D01*
X31180011Y-47164978D01*
X31108383Y-47057780D01*
X31108378Y-47057774D01*
X31017225Y-46966621D01*
X31017219Y-46966616D01*
X30942390Y-46916617D01*
X30910022Y-46894989D01*
X30790911Y-46845652D01*
X30787578Y-46844989D01*
X30664465Y-46820500D01*
X30664463Y-46820500D01*
X30535537Y-46820500D01*
X30535534Y-46820500D01*
X30409088Y-46845652D01*
X30409083Y-46845654D01*
X30289978Y-46894989D01*
X30182780Y-46966616D01*
X30182774Y-46966621D01*
X30091621Y-47057774D01*
X30091616Y-47057780D01*
X30019989Y-47164978D01*
X29970654Y-47284083D01*
X29970652Y-47284088D01*
X29945500Y-47410534D01*
X23883281Y-47410534D01*
X23904500Y-47303859D01*
X23904500Y-47096141D01*
X23863976Y-46892414D01*
X23784486Y-46700507D01*
X23669083Y-46527796D01*
X23669078Y-46527790D01*
X23522209Y-46380921D01*
X23522203Y-46380916D01*
X23456806Y-46337219D01*
X23349493Y-46265514D01*
X23157586Y-46186024D01*
X23127352Y-46180010D01*
X22953861Y-46145500D01*
X22953859Y-46145500D01*
X22396141Y-46145500D01*
X22396138Y-46145500D01*
X22192413Y-46186024D01*
X22192408Y-46186026D01*
X22000506Y-46265514D01*
X21946502Y-46301599D01*
X21878749Y-46322814D01*
X21810282Y-46304031D01*
X21762839Y-46251214D01*
X21750500Y-46196834D01*
X21750500Y-45535534D01*
X31245500Y-45535534D01*
X31245500Y-45664465D01*
X31258355Y-45729089D01*
X31270652Y-45790911D01*
X31319989Y-45910022D01*
X31367849Y-45981649D01*
X31391616Y-46017219D01*
X31391621Y-46017225D01*
X31482774Y-46108378D01*
X31482780Y-46108383D01*
X31589978Y-46180011D01*
X31709089Y-46229348D01*
X31835537Y-46254500D01*
X31835538Y-46254500D01*
X31964462Y-46254500D01*
X31964463Y-46254500D01*
X32090911Y-46229348D01*
X32201862Y-46183391D01*
X38701775Y-46183391D01*
X38701775Y-46342559D01*
X38724772Y-46428383D01*
X38742971Y-46496302D01*
X38742973Y-46496307D01*
X38822552Y-46634143D01*
X38822560Y-46634153D01*
X38935096Y-46746689D01*
X38935101Y-46746693D01*
X38935103Y-46746695D01*
X38935104Y-46746696D01*
X38935106Y-46746697D01*
X38992808Y-46780011D01*
X39072947Y-46826279D01*
X39226691Y-46867475D01*
X39226694Y-46867475D01*
X39385856Y-46867475D01*
X39385859Y-46867475D01*
X39539603Y-46826279D01*
X39677447Y-46746695D01*
X39789995Y-46634147D01*
X39869579Y-46496303D01*
X39910775Y-46342559D01*
X39910775Y-46183391D01*
X39869579Y-46029647D01*
X39789995Y-45891803D01*
X39789993Y-45891801D01*
X39789989Y-45891796D01*
X39753727Y-45855534D01*
X42965500Y-45855534D01*
X42965500Y-45984465D01*
X42985704Y-46086037D01*
X42990652Y-46110911D01*
X43039989Y-46230022D01*
X43087816Y-46301599D01*
X43111616Y-46337219D01*
X43111621Y-46337225D01*
X43202774Y-46428378D01*
X43202780Y-46428383D01*
X43309978Y-46500011D01*
X43429089Y-46549348D01*
X43555537Y-46574500D01*
X43555538Y-46574500D01*
X43684462Y-46574500D01*
X43684463Y-46574500D01*
X43810911Y-46549348D01*
X43930022Y-46500011D01*
X44037220Y-46428383D01*
X44128383Y-46337220D01*
X44200011Y-46230022D01*
X44249348Y-46110911D01*
X44274500Y-45984463D01*
X44274500Y-45855537D01*
X44249348Y-45729089D01*
X44200011Y-45609978D01*
X44128383Y-45502780D01*
X44128378Y-45502774D01*
X44037225Y-45411621D01*
X44037219Y-45411616D01*
X43979685Y-45373173D01*
X43930022Y-45339989D01*
X43810911Y-45290652D01*
X43797493Y-45287983D01*
X43684465Y-45265500D01*
X43684463Y-45265500D01*
X43555537Y-45265500D01*
X43555534Y-45265500D01*
X43429088Y-45290652D01*
X43429083Y-45290654D01*
X43309978Y-45339989D01*
X43202780Y-45411616D01*
X43202773Y-45411622D01*
X43163831Y-45450563D01*
X43163811Y-45450585D01*
X43111617Y-45502780D01*
X43088747Y-45537005D01*
X43088739Y-45537016D01*
X43039991Y-45609973D01*
X43039989Y-45609977D01*
X42990654Y-45729083D01*
X42990652Y-45729088D01*
X42965500Y-45855534D01*
X39753727Y-45855534D01*
X39677453Y-45779260D01*
X39677443Y-45779252D01*
X39539607Y-45699673D01*
X39539605Y-45699672D01*
X39539603Y-45699671D01*
X39385859Y-45658475D01*
X39226691Y-45658475D01*
X39103005Y-45691617D01*
X39072947Y-45699671D01*
X39072942Y-45699673D01*
X38935106Y-45779252D01*
X38935096Y-45779260D01*
X38822560Y-45891796D01*
X38822552Y-45891806D01*
X38742973Y-46029642D01*
X38742971Y-46029647D01*
X38701775Y-46183391D01*
X32201862Y-46183391D01*
X32210022Y-46180011D01*
X32317220Y-46108383D01*
X32317225Y-46108378D01*
X32339567Y-46086037D01*
X32408378Y-46017225D01*
X32408383Y-46017220D01*
X32480011Y-45910022D01*
X32529348Y-45790911D01*
X32554500Y-45664463D01*
X32554500Y-45535537D01*
X32529348Y-45409089D01*
X32480011Y-45289978D01*
X32408383Y-45182780D01*
X32408378Y-45182774D01*
X32317225Y-45091621D01*
X32317219Y-45091616D01*
X32229434Y-45032960D01*
X32210022Y-45019989D01*
X32090911Y-44970652D01*
X32084944Y-44969465D01*
X31964465Y-44945500D01*
X31964463Y-44945500D01*
X31835537Y-44945500D01*
X31835534Y-44945500D01*
X31709088Y-44970652D01*
X31709083Y-44970654D01*
X31589978Y-45019989D01*
X31482780Y-45091616D01*
X31482774Y-45091621D01*
X31391621Y-45182774D01*
X31391616Y-45182780D01*
X31319989Y-45289978D01*
X31270654Y-45409083D01*
X31270652Y-45409088D01*
X31245500Y-45535534D01*
X21750500Y-45535534D01*
X21750500Y-45004500D01*
X21750821Y-44995512D01*
X21755213Y-44934108D01*
X21765120Y-44795578D01*
X21767675Y-44777808D01*
X21809328Y-44586331D01*
X21814384Y-44569110D01*
X21882860Y-44385517D01*
X21890321Y-44369181D01*
X21984226Y-44197207D01*
X21993933Y-44182104D01*
X22111360Y-44025239D01*
X22123120Y-44011668D01*
X22261668Y-43873120D01*
X22275239Y-43861360D01*
X22432104Y-43743933D01*
X22447207Y-43734226D01*
X22619181Y-43640321D01*
X22635517Y-43632860D01*
X22819110Y-43564384D01*
X22836331Y-43559328D01*
X23027808Y-43517675D01*
X23045578Y-43515120D01*
X23229043Y-43501998D01*
X23245513Y-43500821D01*
X23254501Y-43500500D01*
X23315892Y-43500500D01*
X28334107Y-43500500D01*
X28334111Y-43500501D01*
X28400003Y-43500500D01*
X28465892Y-43500500D01*
X28468989Y-43500500D01*
X28468996Y-43500499D01*
X28604330Y-43473579D01*
X28731812Y-43420774D01*
X28731815Y-43420771D01*
X28731817Y-43420771D01*
X28843432Y-43346191D01*
X28911185Y-43324975D01*
X28961651Y-43334545D01*
X29037334Y-43365894D01*
X29211309Y-43400500D01*
X29211310Y-43400500D01*
X29388690Y-43400500D01*
X29388691Y-43400500D01*
X29562666Y-43365894D01*
X29726547Y-43298013D01*
X29830001Y-43228886D01*
X29897750Y-43207673D01*
X29966217Y-43226456D01*
X29969946Y-43228851D01*
X30073453Y-43298013D01*
X30237334Y-43365894D01*
X30411309Y-43400500D01*
X30411310Y-43400500D01*
X30588690Y-43400500D01*
X30588691Y-43400500D01*
X30762666Y-43365894D01*
X30926547Y-43298013D01*
X31030001Y-43228886D01*
X31097750Y-43207673D01*
X31166217Y-43226456D01*
X31169946Y-43228851D01*
X31273453Y-43298013D01*
X31437334Y-43365894D01*
X31611309Y-43400500D01*
X31611310Y-43400500D01*
X31788690Y-43400500D01*
X31788691Y-43400500D01*
X31962666Y-43365894D01*
X32126547Y-43298013D01*
X32230001Y-43228886D01*
X32297750Y-43207673D01*
X32366217Y-43226456D01*
X32369946Y-43228851D01*
X32473453Y-43298013D01*
X32637334Y-43365894D01*
X32811309Y-43400500D01*
X32811310Y-43400500D01*
X32988690Y-43400500D01*
X32988691Y-43400500D01*
X33162666Y-43365894D01*
X33238347Y-43334545D01*
X33308935Y-43326957D01*
X33356565Y-43346189D01*
X33468188Y-43420774D01*
X33595670Y-43473579D01*
X33731004Y-43500499D01*
X33734104Y-43500499D01*
X33734108Y-43500500D01*
X33799997Y-43500500D01*
X33865889Y-43500501D01*
X33865893Y-43500500D01*
X37434108Y-43500500D01*
X40716617Y-43500500D01*
X40784738Y-43520502D01*
X40831231Y-43574158D01*
X40841335Y-43644432D01*
X40833026Y-43674715D01*
X40812956Y-43723169D01*
X40785654Y-43789083D01*
X40785652Y-43789088D01*
X40760500Y-43915534D01*
X40760500Y-43915537D01*
X40760500Y-44044463D01*
X40785652Y-44170911D01*
X40834989Y-44290022D01*
X40861266Y-44329348D01*
X40890098Y-44372498D01*
X40911313Y-44440251D01*
X40892530Y-44508718D01*
X40890098Y-44512502D01*
X40834989Y-44594978D01*
X40785654Y-44714083D01*
X40785652Y-44714088D01*
X40760500Y-44840534D01*
X40760500Y-44969465D01*
X40782387Y-45079499D01*
X40785652Y-45095911D01*
X40834989Y-45215022D01*
X40868718Y-45265500D01*
X40906616Y-45322219D01*
X40906621Y-45322225D01*
X40997774Y-45413378D01*
X40997780Y-45413383D01*
X41104978Y-45485011D01*
X41224089Y-45534348D01*
X41350537Y-45559500D01*
X41350538Y-45559500D01*
X41479462Y-45559500D01*
X41479463Y-45559500D01*
X41605911Y-45534348D01*
X41725022Y-45485011D01*
X41832220Y-45413383D01*
X41833987Y-45411616D01*
X41838405Y-45407199D01*
X41900717Y-45373173D01*
X41971532Y-45378238D01*
X42016595Y-45407199D01*
X42022774Y-45413378D01*
X42022780Y-45413383D01*
X42129978Y-45485011D01*
X42249089Y-45534348D01*
X42375537Y-45559500D01*
X42375538Y-45559500D01*
X42504462Y-45559500D01*
X42504463Y-45559500D01*
X42630911Y-45534348D01*
X42750022Y-45485011D01*
X42857220Y-45413383D01*
X42948383Y-45322220D01*
X43020011Y-45215022D01*
X43069348Y-45095911D01*
X43094500Y-44969463D01*
X43094500Y-44840537D01*
X43069348Y-44714089D01*
X43020011Y-44594978D01*
X42964899Y-44512498D01*
X42943686Y-44444750D01*
X42962468Y-44376283D01*
X42964862Y-44372556D01*
X43020011Y-44290022D01*
X43069348Y-44170911D01*
X43094500Y-44044463D01*
X43094500Y-43915537D01*
X43069348Y-43789089D01*
X43020011Y-43669978D01*
X43018836Y-43668220D01*
X43018504Y-43667158D01*
X43017094Y-43664521D01*
X43017594Y-43664253D01*
X42997618Y-43600470D01*
X43016397Y-43532002D01*
X43069212Y-43484556D01*
X43099018Y-43474635D01*
X43104330Y-43473579D01*
X43231812Y-43420774D01*
X43231815Y-43420771D01*
X43231817Y-43420771D01*
X43343432Y-43346191D01*
X43411185Y-43324975D01*
X43461651Y-43334545D01*
X43537334Y-43365894D01*
X43711309Y-43400500D01*
X43711310Y-43400500D01*
X43888690Y-43400500D01*
X43888691Y-43400500D01*
X44062666Y-43365894D01*
X44226547Y-43298013D01*
X44330001Y-43228886D01*
X44397750Y-43207673D01*
X44466217Y-43226456D01*
X44469946Y-43228851D01*
X44573453Y-43298013D01*
X44737334Y-43365894D01*
X44911309Y-43400500D01*
X44911310Y-43400500D01*
X45088690Y-43400500D01*
X45088691Y-43400500D01*
X45262666Y-43365894D01*
X45426547Y-43298013D01*
X45530001Y-43228886D01*
X45597750Y-43207673D01*
X45666217Y-43226456D01*
X45669946Y-43228851D01*
X45773453Y-43298013D01*
X45937334Y-43365894D01*
X46111309Y-43400500D01*
X46111310Y-43400500D01*
X46288690Y-43400500D01*
X46288691Y-43400500D01*
X46462666Y-43365894D01*
X46626547Y-43298013D01*
X46730001Y-43228886D01*
X46797750Y-43207673D01*
X46866217Y-43226456D01*
G37*
G04 #@! TD.AperFunction*
G04 #@! TA.AperFunction,Conductor*
G36*
X40784738Y-27520502D02*
G01*
X40831231Y-27574158D01*
X40841335Y-27644432D01*
X40833026Y-27674715D01*
X40812956Y-27723169D01*
X40785654Y-27789083D01*
X40785652Y-27789088D01*
X40760500Y-27915534D01*
X40760500Y-27915537D01*
X40760500Y-28044463D01*
X40785652Y-28170911D01*
X40834989Y-28290022D01*
X40861266Y-28329348D01*
X40890098Y-28372498D01*
X40911313Y-28440251D01*
X40892530Y-28508718D01*
X40890098Y-28512502D01*
X40834989Y-28594978D01*
X40785654Y-28714083D01*
X40785652Y-28714088D01*
X40760500Y-28840534D01*
X40760500Y-28969465D01*
X40782387Y-29079499D01*
X40785652Y-29095911D01*
X40834989Y-29215022D01*
X40868718Y-29265500D01*
X40906616Y-29322219D01*
X40906621Y-29322225D01*
X40997774Y-29413378D01*
X40997780Y-29413383D01*
X41104978Y-29485011D01*
X41224089Y-29534348D01*
X41350537Y-29559500D01*
X41350538Y-29559500D01*
X41479462Y-29559500D01*
X41479463Y-29559500D01*
X41605911Y-29534348D01*
X41725022Y-29485011D01*
X41832220Y-29413383D01*
X41833987Y-29411616D01*
X41838405Y-29407199D01*
X41900717Y-29373173D01*
X41971532Y-29378238D01*
X42016595Y-29407199D01*
X42022774Y-29413378D01*
X42022780Y-29413383D01*
X42129978Y-29485011D01*
X42249089Y-29534348D01*
X42375537Y-29559500D01*
X42375538Y-29559500D01*
X42504462Y-29559500D01*
X42504463Y-29559500D01*
X42630911Y-29534348D01*
X42750022Y-29485011D01*
X42857220Y-29413383D01*
X42948383Y-29322220D01*
X43020011Y-29215022D01*
X43069348Y-29095911D01*
X43094500Y-28969463D01*
X43094500Y-28840537D01*
X43069348Y-28714089D01*
X43020011Y-28594978D01*
X42964899Y-28512498D01*
X42943686Y-28444750D01*
X42962468Y-28376283D01*
X42964862Y-28372556D01*
X43020011Y-28290022D01*
X43069348Y-28170911D01*
X43094500Y-28044463D01*
X43094500Y-27915537D01*
X43069348Y-27789089D01*
X43021973Y-27674716D01*
X43014385Y-27604128D01*
X43046164Y-27540641D01*
X43107222Y-27504414D01*
X43138383Y-27500500D01*
X46949829Y-27500500D01*
X47017950Y-27520502D01*
X47064443Y-27574158D01*
X47074547Y-27644432D01*
X47074278Y-27646211D01*
X47074007Y-27647916D01*
X47074007Y-27647919D01*
X47047500Y-27815278D01*
X47047500Y-27815281D01*
X47047500Y-27950277D01*
X47027498Y-28018398D01*
X46973842Y-28064891D01*
X46903568Y-28074995D01*
X46838988Y-28045501D01*
X46816736Y-28020280D01*
X46808385Y-28007783D01*
X46808378Y-28007774D01*
X46717225Y-27916621D01*
X46717219Y-27916616D01*
X46652133Y-27873127D01*
X46610022Y-27844989D01*
X46490911Y-27795652D01*
X46364465Y-27770500D01*
X46364463Y-27770500D01*
X46235537Y-27770500D01*
X46235534Y-27770500D01*
X46109088Y-27795652D01*
X46109083Y-27795654D01*
X45989978Y-27844989D01*
X45882780Y-27916616D01*
X45882774Y-27916621D01*
X45791621Y-28007774D01*
X45791616Y-28007780D01*
X45719989Y-28114978D01*
X45670654Y-28234083D01*
X45670652Y-28234088D01*
X45645500Y-28360534D01*
X45645500Y-28489465D01*
X45650083Y-28512503D01*
X45670652Y-28615911D01*
X45719989Y-28735022D01*
X45748570Y-28777796D01*
X45791616Y-28842219D01*
X45791621Y-28842225D01*
X45882774Y-28933378D01*
X45882780Y-28933383D01*
X45989978Y-29005011D01*
X46109089Y-29054348D01*
X46235537Y-29079500D01*
X46235538Y-29079500D01*
X46364462Y-29079500D01*
X46364463Y-29079500D01*
X46490911Y-29054348D01*
X46610022Y-29005011D01*
X46717220Y-28933383D01*
X46717219Y-28933383D01*
X46722367Y-28929944D01*
X46723566Y-28931739D01*
X46779909Y-28907808D01*
X46849888Y-28919787D01*
X46902281Y-28967697D01*
X46920500Y-29032960D01*
X46920500Y-29089465D01*
X46939061Y-29182774D01*
X46945652Y-29215911D01*
X46994989Y-29335022D01*
X47042849Y-29406649D01*
X47066616Y-29442219D01*
X47066621Y-29442225D01*
X47157774Y-29533378D01*
X47157780Y-29533383D01*
X47264978Y-29605011D01*
X47384089Y-29654348D01*
X47510537Y-29679500D01*
X47510538Y-29679500D01*
X47639462Y-29679500D01*
X47639463Y-29679500D01*
X47765911Y-29654348D01*
X47885022Y-29605011D01*
X47992220Y-29533383D01*
X47995659Y-29529944D01*
X48010905Y-29514699D01*
X48073217Y-29480673D01*
X48144032Y-29485738D01*
X48189095Y-29514699D01*
X48207774Y-29533378D01*
X48207780Y-29533383D01*
X48314978Y-29605011D01*
X48434089Y-29654348D01*
X48560537Y-29679500D01*
X48560538Y-29679500D01*
X48689462Y-29679500D01*
X48689463Y-29679500D01*
X48815911Y-29654348D01*
X48935022Y-29605011D01*
X49042220Y-29533383D01*
X49042224Y-29533378D01*
X49044066Y-29531868D01*
X49045222Y-29531376D01*
X49047367Y-29529944D01*
X49047638Y-29530350D01*
X49109413Y-29504114D01*
X49179391Y-29516095D01*
X49231783Y-29564008D01*
X49250000Y-29629267D01*
X49250000Y-31903751D01*
X49229998Y-31971872D01*
X49176342Y-32018365D01*
X49106068Y-32028469D01*
X49091389Y-32025458D01*
X49046133Y-32013331D01*
X48979584Y-31995500D01*
X48820416Y-31995500D01*
X48666672Y-32036696D01*
X48666667Y-32036698D01*
X48528831Y-32116277D01*
X48528821Y-32116285D01*
X48416285Y-32228821D01*
X48416277Y-32228831D01*
X48336698Y-32366667D01*
X48336696Y-32366672D01*
X48295500Y-32520416D01*
X48295500Y-32520418D01*
X48295500Y-32679587D01*
X48332157Y-32816388D01*
X48330468Y-32887365D01*
X48290674Y-32946161D01*
X48225410Y-32974109D01*
X48210451Y-32975000D01*
X46833435Y-32975000D01*
X46770435Y-32958119D01*
X46733333Y-32936698D01*
X46733330Y-32936697D01*
X46733328Y-32936696D01*
X46579584Y-32895500D01*
X46420416Y-32895500D01*
X46281309Y-32932774D01*
X46266672Y-32936696D01*
X46266667Y-32936698D01*
X46128831Y-33016277D01*
X46128821Y-33016285D01*
X46016285Y-33128821D01*
X46016277Y-33128831D01*
X45984119Y-33184532D01*
X45932736Y-33233525D01*
X45863023Y-33246961D01*
X45797112Y-33220575D01*
X45765881Y-33184532D01*
X45733722Y-33128831D01*
X45733714Y-33128821D01*
X45621178Y-33016285D01*
X45621168Y-33016277D01*
X45483332Y-32936698D01*
X45483330Y-32936697D01*
X45483328Y-32936696D01*
X45329584Y-32895500D01*
X45170416Y-32895500D01*
X45031309Y-32932774D01*
X45016672Y-32936696D01*
X45016667Y-32936698D01*
X44878831Y-33016277D01*
X44878821Y-33016285D01*
X44766285Y-33128821D01*
X44766277Y-33128831D01*
X44686698Y-33266667D01*
X44686696Y-33266672D01*
X44645500Y-33420416D01*
X44645500Y-33579584D01*
X44667054Y-33660022D01*
X44686696Y-33733327D01*
X44686698Y-33733332D01*
X44766277Y-33871168D01*
X44766285Y-33871178D01*
X44878821Y-33983714D01*
X44878826Y-33983718D01*
X44878828Y-33983720D01*
X44878829Y-33983721D01*
X44878831Y-33983722D01*
X44934532Y-34015881D01*
X44983525Y-34067264D01*
X44996961Y-34136977D01*
X44970575Y-34202888D01*
X44934532Y-34234119D01*
X44878831Y-34266277D01*
X44878821Y-34266285D01*
X44766285Y-34378821D01*
X44766277Y-34378831D01*
X44686698Y-34516667D01*
X44686696Y-34516672D01*
X44645500Y-34670416D01*
X44645500Y-34829584D01*
X44683593Y-34971747D01*
X44686696Y-34983327D01*
X44686698Y-34983332D01*
X44766277Y-35121168D01*
X44766285Y-35121178D01*
X44878821Y-35233714D01*
X44878826Y-35233718D01*
X44878828Y-35233720D01*
X44878829Y-35233721D01*
X44878831Y-35233722D01*
X44931418Y-35264083D01*
X45016672Y-35313304D01*
X45170416Y-35354500D01*
X45170419Y-35354500D01*
X45329581Y-35354500D01*
X45329584Y-35354500D01*
X45483328Y-35313304D01*
X45621172Y-35233720D01*
X45733720Y-35121172D01*
X45765881Y-35065466D01*
X45817263Y-35016474D01*
X45886976Y-35003037D01*
X45952887Y-35029424D01*
X45984118Y-35065465D01*
X46016280Y-35121172D01*
X46016282Y-35121174D01*
X46016285Y-35121178D01*
X46128821Y-35233714D01*
X46128825Y-35233717D01*
X46128828Y-35233720D01*
X46140376Y-35240387D01*
X46189370Y-35291768D01*
X46202808Y-35361481D01*
X46176423Y-35427393D01*
X46118591Y-35468576D01*
X46077018Y-35475506D01*
X45900000Y-35474999D01*
X45900000Y-36699020D01*
X45879998Y-36767141D01*
X45826342Y-36813634D01*
X45756068Y-36823738D01*
X45747007Y-36821724D01*
X45746981Y-36821860D01*
X45740913Y-36820653D01*
X45740911Y-36820652D01*
X45667016Y-36805953D01*
X45614465Y-36795500D01*
X45614463Y-36795500D01*
X45485537Y-36795500D01*
X45485534Y-36795500D01*
X45359088Y-36820652D01*
X45359083Y-36820654D01*
X45239978Y-36869989D01*
X45132780Y-36941616D01*
X45132774Y-36941621D01*
X45041621Y-37032774D01*
X45041616Y-37032780D01*
X44969989Y-37139978D01*
X44920654Y-37259083D01*
X44920652Y-37259088D01*
X44895500Y-37385534D01*
X44895500Y-37385537D01*
X44895500Y-37514463D01*
X44920652Y-37640911D01*
X44920653Y-37640913D01*
X44921860Y-37646981D01*
X44919686Y-37647413D01*
X44920225Y-37708430D01*
X44882370Y-37768492D01*
X44818052Y-37798554D01*
X44799020Y-37800000D01*
X43600000Y-37800000D01*
X43600000Y-37829271D01*
X43579998Y-37897392D01*
X43526342Y-37943885D01*
X43498583Y-37952850D01*
X43454411Y-37961636D01*
X43409089Y-37970652D01*
X43409087Y-37970653D01*
X43409083Y-37970654D01*
X43289978Y-38019989D01*
X43182780Y-38091616D01*
X43182774Y-38091621D01*
X43091621Y-38182774D01*
X43091616Y-38182780D01*
X43019989Y-38289978D01*
X42970654Y-38409083D01*
X42970652Y-38409088D01*
X42945500Y-38535534D01*
X42945500Y-38664465D01*
X42954542Y-38709920D01*
X42970652Y-38790911D01*
X43019989Y-38910022D01*
X43033338Y-38930000D01*
X43091616Y-39017219D01*
X43091621Y-39017225D01*
X43182774Y-39108378D01*
X43182780Y-39108383D01*
X43289978Y-39180011D01*
X43409089Y-39229348D01*
X43498582Y-39247149D01*
X43561491Y-39280057D01*
X43596623Y-39341752D01*
X43600000Y-39370728D01*
X43600000Y-41523957D01*
X43594277Y-41543447D01*
X43593552Y-41563748D01*
X43584479Y-41576814D01*
X43579998Y-41592078D01*
X43564645Y-41605380D01*
X43553061Y-41622066D01*
X43528728Y-41636503D01*
X43526342Y-41638571D01*
X43522218Y-41640366D01*
X43461652Y-41665453D01*
X43391062Y-41673042D01*
X43343433Y-41653810D01*
X43262154Y-41599500D01*
X43231813Y-41579226D01*
X43104332Y-41526422D01*
X43104331Y-41526421D01*
X42968997Y-41499501D01*
X42968855Y-41499500D01*
X42965895Y-41499500D01*
X42965892Y-41499500D01*
X42965874Y-41499500D01*
X42900003Y-41499500D01*
X42834111Y-41499499D01*
X42834107Y-41499500D01*
X33873622Y-41499500D01*
X33873605Y-41499499D01*
X33865889Y-41499499D01*
X33799997Y-41499500D01*
X33734108Y-41499500D01*
X33734104Y-41499500D01*
X33731004Y-41499501D01*
X33731000Y-41499501D01*
X33595668Y-41526421D01*
X33595667Y-41526422D01*
X33468183Y-41579228D01*
X33356566Y-41653809D01*
X33288813Y-41675024D01*
X33238347Y-41665453D01*
X33162675Y-41634109D01*
X33162666Y-41634106D01*
X32988693Y-41599500D01*
X32988691Y-41599500D01*
X32811309Y-41599500D01*
X32811306Y-41599500D01*
X32637333Y-41634106D01*
X32637328Y-41634108D01*
X32473452Y-41701987D01*
X32370002Y-41771111D01*
X32302249Y-41792326D01*
X32233782Y-41773543D01*
X32229998Y-41771111D01*
X32126547Y-41701987D01*
X31962671Y-41634108D01*
X31962666Y-41634106D01*
X31788693Y-41599500D01*
X31788691Y-41599500D01*
X31611309Y-41599500D01*
X31611306Y-41599500D01*
X31437333Y-41634106D01*
X31437328Y-41634108D01*
X31273452Y-41701987D01*
X31170002Y-41771111D01*
X31102249Y-41792326D01*
X31033782Y-41773543D01*
X31029998Y-41771111D01*
X30926547Y-41701987D01*
X30762671Y-41634108D01*
X30762666Y-41634106D01*
X30588693Y-41599500D01*
X30588691Y-41599500D01*
X30411309Y-41599500D01*
X30411306Y-41599500D01*
X30237333Y-41634106D01*
X30237328Y-41634108D01*
X30073452Y-41701987D01*
X29970002Y-41771111D01*
X29902249Y-41792326D01*
X29833782Y-41773543D01*
X29829998Y-41771111D01*
X29726547Y-41701987D01*
X29562671Y-41634108D01*
X29562666Y-41634106D01*
X29388693Y-41599500D01*
X29388691Y-41599500D01*
X29211309Y-41599500D01*
X29211306Y-41599500D01*
X29037334Y-41634106D01*
X28985206Y-41655697D01*
X28961651Y-41665454D01*
X28891061Y-41673042D01*
X28843433Y-41653809D01*
X28731815Y-41579228D01*
X28731814Y-41579227D01*
X28731812Y-41579226D01*
X28604331Y-41526421D01*
X28468997Y-41499501D01*
X28468855Y-41499500D01*
X28465895Y-41499500D01*
X28465892Y-41499500D01*
X28465874Y-41499500D01*
X28400003Y-41499500D01*
X28334111Y-41499499D01*
X28334107Y-41499500D01*
X25658999Y-41499500D01*
X25590878Y-41479498D01*
X25544385Y-41425842D01*
X25534281Y-41355568D01*
X25554234Y-41303498D01*
X25571216Y-41278082D01*
X25610011Y-41220022D01*
X25659348Y-41100911D01*
X25684500Y-40974463D01*
X25684500Y-40845537D01*
X25659348Y-40719089D01*
X25610011Y-40599978D01*
X25538383Y-40492780D01*
X25538378Y-40492774D01*
X25447225Y-40401621D01*
X25447219Y-40401616D01*
X25411649Y-40377849D01*
X25340022Y-40329989D01*
X25220911Y-40280652D01*
X25189028Y-40274310D01*
X25094465Y-40255500D01*
X25094463Y-40255500D01*
X24965537Y-40255500D01*
X24965534Y-40255500D01*
X24839088Y-40280652D01*
X24839083Y-40280654D01*
X24719978Y-40329989D01*
X24612780Y-40401616D01*
X24612774Y-40401621D01*
X24521621Y-40492774D01*
X24521616Y-40492780D01*
X24449989Y-40599978D01*
X24400654Y-40719083D01*
X24400652Y-40719088D01*
X24375500Y-40845534D01*
X24375500Y-40974465D01*
X24400652Y-41100911D01*
X24400654Y-41100916D01*
X24449989Y-41220022D01*
X24505766Y-41303498D01*
X24526981Y-41371251D01*
X24508198Y-41439718D01*
X24455381Y-41487161D01*
X24401001Y-41499500D01*
X23254501Y-41499500D01*
X23245512Y-41499179D01*
X23234942Y-41498423D01*
X23157127Y-41492857D01*
X23090607Y-41468046D01*
X23048061Y-41411210D01*
X23042997Y-41340394D01*
X23077022Y-41278082D01*
X23139335Y-41244057D01*
X23146370Y-41242735D01*
X23252081Y-41225993D01*
X23413233Y-41173632D01*
X23564209Y-41096706D01*
X23701293Y-40997108D01*
X23821108Y-40877293D01*
X23920706Y-40740209D01*
X23997632Y-40589233D01*
X24049993Y-40428081D01*
X24076500Y-40260722D01*
X24076500Y-40091278D01*
X24049993Y-39923919D01*
X23997632Y-39762767D01*
X23920706Y-39611791D01*
X23886535Y-39564759D01*
X23821106Y-39474704D01*
X23701295Y-39354893D01*
X23564212Y-39255296D01*
X23564211Y-39255295D01*
X23564209Y-39255294D01*
X23413233Y-39178368D01*
X23413230Y-39178367D01*
X23413228Y-39178366D01*
X23252084Y-39126008D01*
X23252088Y-39126008D01*
X23220930Y-39121073D01*
X23084722Y-39099500D01*
X22915278Y-39099500D01*
X22874207Y-39106004D01*
X22874206Y-39106005D01*
X22747913Y-39126008D01*
X22586771Y-39178366D01*
X22586765Y-39178369D01*
X22435787Y-39255296D01*
X22298704Y-39354893D01*
X22178893Y-39474704D01*
X22079296Y-39611787D01*
X22002369Y-39762765D01*
X22002368Y-39762768D01*
X21996333Y-39781342D01*
X21956259Y-39839948D01*
X21890862Y-39867584D01*
X21820905Y-39855477D01*
X21768599Y-39807470D01*
X21750500Y-39742405D01*
X21750500Y-38855685D01*
X28035500Y-38855685D01*
X28035500Y-39004314D01*
X28045671Y-39055445D01*
X28064495Y-39150080D01*
X28121371Y-39287390D01*
X28186606Y-39385022D01*
X28203942Y-39410967D01*
X28203947Y-39410973D01*
X28268879Y-39475905D01*
X28302905Y-39538217D01*
X28297840Y-39609032D01*
X28268879Y-39654095D01*
X28203947Y-39719026D01*
X28203942Y-39719032D01*
X28121371Y-39842610D01*
X28064497Y-39979914D01*
X28064495Y-39979919D01*
X28035500Y-40125685D01*
X28035500Y-40125688D01*
X28035500Y-40274312D01*
X28064495Y-40420080D01*
X28121371Y-40557390D01*
X28203941Y-40680966D01*
X28203942Y-40680967D01*
X28203947Y-40680973D01*
X28309026Y-40786052D01*
X28309032Y-40786057D01*
X28309034Y-40786059D01*
X28432610Y-40868629D01*
X28569920Y-40925505D01*
X28715688Y-40954500D01*
X28715689Y-40954500D01*
X28864311Y-40954500D01*
X28864312Y-40954500D01*
X29010080Y-40925505D01*
X29147390Y-40868629D01*
X29270966Y-40786059D01*
X29287036Y-40769989D01*
X29335905Y-40721121D01*
X29398217Y-40687095D01*
X29469032Y-40692160D01*
X29514095Y-40721121D01*
X29579026Y-40786052D01*
X29579032Y-40786057D01*
X29579034Y-40786059D01*
X29702610Y-40868629D01*
X29839920Y-40925505D01*
X29985688Y-40954500D01*
X29985689Y-40954500D01*
X30134311Y-40954500D01*
X30134312Y-40954500D01*
X30280080Y-40925505D01*
X30417390Y-40868629D01*
X30540966Y-40786059D01*
X30557036Y-40769989D01*
X30605905Y-40721121D01*
X30668217Y-40687095D01*
X30739032Y-40692160D01*
X30784095Y-40721121D01*
X30849026Y-40786052D01*
X30849032Y-40786057D01*
X30849034Y-40786059D01*
X30972610Y-40868629D01*
X31109920Y-40925505D01*
X31255688Y-40954500D01*
X31255689Y-40954500D01*
X31404311Y-40954500D01*
X31404312Y-40954500D01*
X31550080Y-40925505D01*
X31687390Y-40868629D01*
X31810966Y-40786059D01*
X31827036Y-40769989D01*
X31875905Y-40721121D01*
X31938217Y-40687095D01*
X32009032Y-40692160D01*
X32054095Y-40721121D01*
X32119026Y-40786052D01*
X32119032Y-40786057D01*
X32119034Y-40786059D01*
X32242610Y-40868629D01*
X32379920Y-40925505D01*
X32525688Y-40954500D01*
X32525689Y-40954500D01*
X32674311Y-40954500D01*
X32674312Y-40954500D01*
X32820080Y-40925505D01*
X32957390Y-40868629D01*
X33080966Y-40786059D01*
X33097036Y-40769989D01*
X33145905Y-40721121D01*
X33208217Y-40687095D01*
X33279032Y-40692160D01*
X33324095Y-40721121D01*
X33389026Y-40786052D01*
X33389032Y-40786057D01*
X33389034Y-40786059D01*
X33512610Y-40868629D01*
X33649920Y-40925505D01*
X33795688Y-40954500D01*
X33795689Y-40954500D01*
X33944311Y-40954500D01*
X33944312Y-40954500D01*
X34090080Y-40925505D01*
X34227390Y-40868629D01*
X34350966Y-40786059D01*
X34456059Y-40680966D01*
X34538629Y-40557390D01*
X34595505Y-40420080D01*
X34624500Y-40274312D01*
X34624500Y-40125688D01*
X34596423Y-39984536D01*
X34602751Y-39913824D01*
X34644493Y-39859088D01*
X34732904Y-39792904D01*
X34820444Y-39675965D01*
X34820444Y-39675964D01*
X34871494Y-39539093D01*
X34877999Y-39478597D01*
X34878000Y-39478585D01*
X34878000Y-39184000D01*
X34075618Y-39184000D01*
X34130064Y-39129554D01*
X34172851Y-39055445D01*
X34195000Y-38972787D01*
X34195000Y-38887213D01*
X34172851Y-38804555D01*
X34130064Y-38730446D01*
X34075618Y-38676000D01*
X34124000Y-38676000D01*
X34878000Y-38676000D01*
X34878000Y-38381414D01*
X34877999Y-38381402D01*
X34871494Y-38320906D01*
X34820444Y-38184035D01*
X34820444Y-38184034D01*
X34732904Y-38067095D01*
X34615965Y-37979555D01*
X34479093Y-37928505D01*
X34418597Y-37922000D01*
X34124000Y-37922000D01*
X34124000Y-38676000D01*
X34075618Y-38676000D01*
X34069554Y-38669936D01*
X33995445Y-38627149D01*
X33912787Y-38605000D01*
X33827213Y-38605000D01*
X33744555Y-38627149D01*
X33670446Y-38669936D01*
X33616000Y-38724382D01*
X33616000Y-37922000D01*
X33321402Y-37922000D01*
X33260906Y-37928505D01*
X33124035Y-37979555D01*
X33124034Y-37979555D01*
X33007095Y-38067095D01*
X32940912Y-38155507D01*
X32884076Y-38198054D01*
X32815464Y-38203576D01*
X32732006Y-38186976D01*
X32674314Y-38175500D01*
X32674312Y-38175500D01*
X32525688Y-38175500D01*
X32525685Y-38175500D01*
X32379919Y-38204495D01*
X32379914Y-38204497D01*
X32242610Y-38261371D01*
X32119032Y-38343942D01*
X32119026Y-38343947D01*
X32054095Y-38408879D01*
X31991783Y-38442905D01*
X31920968Y-38437840D01*
X31875905Y-38408879D01*
X31810973Y-38343947D01*
X31810967Y-38343942D01*
X31776491Y-38320906D01*
X31687390Y-38261371D01*
X31550080Y-38204495D01*
X31517699Y-38198054D01*
X31404314Y-38175500D01*
X31404312Y-38175500D01*
X31255688Y-38175500D01*
X31255685Y-38175500D01*
X31109919Y-38204495D01*
X31109914Y-38204497D01*
X30972610Y-38261371D01*
X30849032Y-38343942D01*
X30849026Y-38343947D01*
X30784095Y-38408879D01*
X30721783Y-38442905D01*
X30650968Y-38437840D01*
X30605905Y-38408879D01*
X30540973Y-38343947D01*
X30540967Y-38343942D01*
X30506491Y-38320906D01*
X30417390Y-38261371D01*
X30280080Y-38204495D01*
X30247699Y-38198054D01*
X30134314Y-38175500D01*
X30134312Y-38175500D01*
X29985688Y-38175500D01*
X29985685Y-38175500D01*
X29839919Y-38204495D01*
X29839914Y-38204497D01*
X29702610Y-38261371D01*
X29579032Y-38343942D01*
X29579026Y-38343947D01*
X29514095Y-38408879D01*
X29451783Y-38442905D01*
X29380968Y-38437840D01*
X29335905Y-38408879D01*
X29270973Y-38343947D01*
X29270967Y-38343942D01*
X29236491Y-38320906D01*
X29147390Y-38261371D01*
X29010080Y-38204495D01*
X28977699Y-38198054D01*
X28864314Y-38175500D01*
X28864312Y-38175500D01*
X28715688Y-38175500D01*
X28715685Y-38175500D01*
X28569919Y-38204495D01*
X28569914Y-38204497D01*
X28432610Y-38261371D01*
X28309032Y-38343942D01*
X28309026Y-38343947D01*
X28203947Y-38449026D01*
X28203942Y-38449032D01*
X28121371Y-38572610D01*
X28064497Y-38709914D01*
X28064495Y-38709919D01*
X28035500Y-38855685D01*
X21750500Y-38855685D01*
X21750500Y-38803165D01*
X21770502Y-38735044D01*
X21824158Y-38688551D01*
X21894432Y-38678447D01*
X21946503Y-38698401D01*
X22000505Y-38734485D01*
X22000506Y-38734485D01*
X22000507Y-38734486D01*
X22192414Y-38813976D01*
X22396141Y-38854500D01*
X22396142Y-38854500D01*
X22858035Y-38854500D01*
X22953859Y-38854500D01*
X23157586Y-38813976D01*
X23349493Y-38734486D01*
X23522204Y-38619083D01*
X23669083Y-38472204D01*
X23784486Y-38299493D01*
X23863976Y-38107586D01*
X23904500Y-37903859D01*
X23904500Y-37696141D01*
X23863976Y-37492414D01*
X23784486Y-37300507D01*
X23669083Y-37127796D01*
X23669078Y-37127790D01*
X23522209Y-36980921D01*
X23522203Y-36980916D01*
X23463388Y-36941617D01*
X23349493Y-36865514D01*
X23157586Y-36786024D01*
X22953861Y-36745500D01*
X22953859Y-36745500D01*
X22396141Y-36745500D01*
X22396138Y-36745500D01*
X22192413Y-36786024D01*
X22192408Y-36786026D01*
X22000506Y-36865514D01*
X21946502Y-36901599D01*
X21878749Y-36922814D01*
X21810282Y-36904031D01*
X21762839Y-36851214D01*
X21750500Y-36796834D01*
X21750500Y-36135534D01*
X26420500Y-36135534D01*
X26420500Y-36135537D01*
X26420500Y-36264463D01*
X26445652Y-36390911D01*
X26494989Y-36510022D01*
X26503880Y-36523328D01*
X26566618Y-36617222D01*
X26568956Y-36620071D01*
X26569713Y-36621853D01*
X26570056Y-36622367D01*
X26569958Y-36622432D01*
X26596707Y-36685420D01*
X26584722Y-36755397D01*
X26568956Y-36779929D01*
X26566618Y-36782777D01*
X26494989Y-36889978D01*
X26445654Y-37009083D01*
X26445652Y-37009088D01*
X26420500Y-37135534D01*
X26420500Y-37264465D01*
X26444559Y-37385416D01*
X26445652Y-37390911D01*
X26494989Y-37510022D01*
X26542849Y-37581649D01*
X26566616Y-37617219D01*
X26566621Y-37617225D01*
X26657774Y-37708378D01*
X26657780Y-37708383D01*
X26764978Y-37780011D01*
X26884089Y-37829348D01*
X27010537Y-37854500D01*
X27010538Y-37854500D01*
X27139462Y-37854500D01*
X27139463Y-37854500D01*
X27265911Y-37829348D01*
X27385022Y-37780011D01*
X27492220Y-37708383D01*
X27495313Y-37705290D01*
X27498405Y-37702199D01*
X27560717Y-37668173D01*
X27631532Y-37673238D01*
X27676595Y-37702199D01*
X27682774Y-37708378D01*
X27682780Y-37708383D01*
X27789978Y-37780011D01*
X27909089Y-37829348D01*
X28035537Y-37854500D01*
X28035538Y-37854500D01*
X28164462Y-37854500D01*
X28164463Y-37854500D01*
X28290911Y-37829348D01*
X28410022Y-37780011D01*
X28517220Y-37708383D01*
X28517230Y-37708372D01*
X28520063Y-37706049D01*
X28521847Y-37705290D01*
X28522367Y-37704944D01*
X28522432Y-37705042D01*
X28585410Y-37678294D01*
X28655388Y-37690273D01*
X28679937Y-37706049D01*
X28682773Y-37708376D01*
X28682780Y-37708383D01*
X28789978Y-37780011D01*
X28909089Y-37829348D01*
X29035537Y-37854500D01*
X29035538Y-37854500D01*
X29164462Y-37854500D01*
X29164463Y-37854500D01*
X29290911Y-37829348D01*
X29410022Y-37780011D01*
X29517220Y-37708383D01*
X29608383Y-37617220D01*
X29680011Y-37510022D01*
X29729348Y-37390911D01*
X29730441Y-37385416D01*
X35550500Y-37385416D01*
X35550500Y-37544584D01*
X35591696Y-37698327D01*
X35591698Y-37698332D01*
X35671277Y-37836168D01*
X35671285Y-37836178D01*
X35783821Y-37948714D01*
X35783826Y-37948718D01*
X35783828Y-37948720D01*
X35783829Y-37948721D01*
X35783831Y-37948722D01*
X35821815Y-37970652D01*
X35921672Y-38028304D01*
X36075416Y-38069500D01*
X36075419Y-38069500D01*
X36234581Y-38069500D01*
X36234584Y-38069500D01*
X36388328Y-38028304D01*
X36526172Y-37948720D01*
X36638720Y-37836172D01*
X36718304Y-37698328D01*
X36759500Y-37544584D01*
X36759500Y-37385416D01*
X36718304Y-37231672D01*
X36662799Y-37135534D01*
X36638722Y-37093831D01*
X36638714Y-37093821D01*
X36526178Y-36981285D01*
X36526168Y-36981277D01*
X36388332Y-36901698D01*
X36388330Y-36901697D01*
X36388328Y-36901696D01*
X36234584Y-36860500D01*
X36075416Y-36860500D01*
X35948528Y-36894500D01*
X35921672Y-36901696D01*
X35921667Y-36901698D01*
X35783831Y-36981277D01*
X35783821Y-36981285D01*
X35671285Y-37093821D01*
X35671277Y-37093831D01*
X35591698Y-37231667D01*
X35591696Y-37231672D01*
X35550500Y-37385416D01*
X29730441Y-37385416D01*
X29754500Y-37264463D01*
X29754500Y-37135537D01*
X29729348Y-37009089D01*
X29680011Y-36889978D01*
X29608383Y-36782780D01*
X29608378Y-36782774D01*
X29517225Y-36691621D01*
X29517219Y-36691616D01*
X29471650Y-36661168D01*
X29410022Y-36619989D01*
X29290911Y-36570652D01*
X29164465Y-36545500D01*
X29164463Y-36545500D01*
X29035537Y-36545500D01*
X29035534Y-36545500D01*
X28909088Y-36570652D01*
X28909083Y-36570654D01*
X28789978Y-36619989D01*
X28682777Y-36691618D01*
X28679929Y-36693956D01*
X28678146Y-36694713D01*
X28677633Y-36695056D01*
X28677567Y-36694958D01*
X28614580Y-36721707D01*
X28544603Y-36709722D01*
X28520071Y-36693956D01*
X28517222Y-36691618D01*
X28471650Y-36661168D01*
X28410022Y-36619989D01*
X28290911Y-36570652D01*
X28164465Y-36545500D01*
X28164463Y-36545500D01*
X28035537Y-36545500D01*
X28035534Y-36545500D01*
X27909088Y-36570652D01*
X27909083Y-36570654D01*
X27853108Y-36593839D01*
X27782518Y-36601427D01*
X27719032Y-36569646D01*
X27682805Y-36508588D01*
X27685341Y-36437636D01*
X27688478Y-36429222D01*
X27704348Y-36390911D01*
X27729500Y-36264463D01*
X27729500Y-36210416D01*
X41975500Y-36210416D01*
X41975500Y-36369584D01*
X42013131Y-36510022D01*
X42016696Y-36523327D01*
X42016698Y-36523332D01*
X42096277Y-36661168D01*
X42096285Y-36661178D01*
X42208821Y-36773714D01*
X42208826Y-36773718D01*
X42208828Y-36773720D01*
X42208829Y-36773721D01*
X42208831Y-36773722D01*
X42277961Y-36813634D01*
X42346672Y-36853304D01*
X42500416Y-36894500D01*
X42500419Y-36894500D01*
X42659581Y-36894500D01*
X42659584Y-36894500D01*
X42813328Y-36853304D01*
X42951172Y-36773720D01*
X43063720Y-36661172D01*
X43143304Y-36523328D01*
X43184500Y-36369584D01*
X43184500Y-36210416D01*
X43143304Y-36056672D01*
X43063720Y-35918828D01*
X43063718Y-35918826D01*
X43063714Y-35918821D01*
X42951178Y-35806285D01*
X42951168Y-35806277D01*
X42813332Y-35726698D01*
X42813330Y-35726697D01*
X42813328Y-35726696D01*
X42659584Y-35685500D01*
X42500416Y-35685500D01*
X42346672Y-35726696D01*
X42346667Y-35726698D01*
X42208831Y-35806277D01*
X42208821Y-35806285D01*
X42096285Y-35918821D01*
X42096277Y-35918831D01*
X42016698Y-36056667D01*
X42016696Y-36056672D01*
X41975500Y-36210416D01*
X27729500Y-36210416D01*
X27729500Y-36135537D01*
X27704348Y-36009089D01*
X27655011Y-35889978D01*
X27583383Y-35782780D01*
X27583378Y-35782774D01*
X27492225Y-35691621D01*
X27492219Y-35691616D01*
X27423824Y-35645916D01*
X27385022Y-35619989D01*
X27265911Y-35570652D01*
X27139465Y-35545500D01*
X27139463Y-35545500D01*
X27010537Y-35545500D01*
X27010534Y-35545500D01*
X26884088Y-35570652D01*
X26884083Y-35570654D01*
X26764978Y-35619989D01*
X26657780Y-35691616D01*
X26657774Y-35691621D01*
X26566621Y-35782774D01*
X26566616Y-35782780D01*
X26494989Y-35889978D01*
X26445654Y-36009083D01*
X26445652Y-36009088D01*
X26420500Y-36135534D01*
X21750500Y-36135534D01*
X21750500Y-35020416D01*
X28095500Y-35020416D01*
X28095500Y-35179584D01*
X28131331Y-35313304D01*
X28136696Y-35333327D01*
X28136698Y-35333332D01*
X28216277Y-35471168D01*
X28216285Y-35471178D01*
X28328821Y-35583714D01*
X28328826Y-35583718D01*
X28328828Y-35583720D01*
X28466672Y-35663304D01*
X28620416Y-35704500D01*
X28620419Y-35704500D01*
X28779581Y-35704500D01*
X28779584Y-35704500D01*
X28933328Y-35663304D01*
X29071172Y-35583720D01*
X29183720Y-35471172D01*
X29263304Y-35333328D01*
X29304500Y-35179584D01*
X29304500Y-35020416D01*
X29745500Y-35020416D01*
X29745500Y-35179584D01*
X29781331Y-35313304D01*
X29786696Y-35333327D01*
X29786698Y-35333332D01*
X29866277Y-35471168D01*
X29866285Y-35471178D01*
X29978821Y-35583714D01*
X29978826Y-35583718D01*
X29978828Y-35583720D01*
X30116672Y-35663304D01*
X30270416Y-35704500D01*
X30270419Y-35704500D01*
X30429581Y-35704500D01*
X30429584Y-35704500D01*
X30583328Y-35663304D01*
X30721172Y-35583720D01*
X30833720Y-35471172D01*
X30913304Y-35333328D01*
X30954500Y-35179584D01*
X30954500Y-35020416D01*
X30913304Y-34866672D01*
X30833720Y-34728828D01*
X30833718Y-34728826D01*
X30833714Y-34728821D01*
X30721178Y-34616285D01*
X30721168Y-34616277D01*
X30583332Y-34536698D01*
X30583330Y-34536697D01*
X30583328Y-34536696D01*
X30429584Y-34495500D01*
X30270416Y-34495500D01*
X30116672Y-34536696D01*
X30116667Y-34536698D01*
X29978831Y-34616277D01*
X29978821Y-34616285D01*
X29866285Y-34728821D01*
X29866277Y-34728831D01*
X29786698Y-34866667D01*
X29786696Y-34866672D01*
X29745500Y-35020416D01*
X29304500Y-35020416D01*
X29263304Y-34866672D01*
X29183720Y-34728828D01*
X29183718Y-34728826D01*
X29183714Y-34728821D01*
X29071178Y-34616285D01*
X29071168Y-34616277D01*
X28933332Y-34536698D01*
X28933330Y-34536697D01*
X28933328Y-34536696D01*
X28779584Y-34495500D01*
X28620416Y-34495500D01*
X28466672Y-34536696D01*
X28466667Y-34536698D01*
X28328831Y-34616277D01*
X28328821Y-34616285D01*
X28216285Y-34728821D01*
X28216277Y-34728831D01*
X28136698Y-34866667D01*
X28136696Y-34866672D01*
X28095500Y-35020416D01*
X21750500Y-35020416D01*
X21750500Y-33470416D01*
X26445500Y-33470416D01*
X26445500Y-33629584D01*
X26481791Y-33765021D01*
X26486696Y-33783327D01*
X26486698Y-33783332D01*
X26566277Y-33921168D01*
X26566285Y-33921178D01*
X26678821Y-34033714D01*
X26678826Y-34033718D01*
X26678828Y-34033720D01*
X26678829Y-34033721D01*
X26678831Y-34033722D01*
X26775715Y-34089658D01*
X26816672Y-34113304D01*
X26970416Y-34154500D01*
X26970419Y-34154500D01*
X27129581Y-34154500D01*
X27129584Y-34154500D01*
X27283328Y-34113304D01*
X27421172Y-34033720D01*
X27517892Y-33936999D01*
X27580202Y-33902976D01*
X27651018Y-33908040D01*
X27676982Y-33921327D01*
X27689978Y-33930011D01*
X27809089Y-33979348D01*
X27935537Y-34004500D01*
X27935538Y-34004500D01*
X28064462Y-34004500D01*
X28064463Y-34004500D01*
X28190911Y-33979348D01*
X28310022Y-33930011D01*
X28417220Y-33858383D01*
X28508383Y-33767220D01*
X28580011Y-33660022D01*
X28629348Y-33540911D01*
X28654500Y-33414463D01*
X28654500Y-33285537D01*
X28629348Y-33159089D01*
X28580011Y-33039978D01*
X28508383Y-32932780D01*
X28508378Y-32932774D01*
X28417225Y-32841621D01*
X28417219Y-32841616D01*
X28369935Y-32810022D01*
X28310022Y-32769989D01*
X28190911Y-32720652D01*
X28064465Y-32695500D01*
X28064463Y-32695500D01*
X27935537Y-32695500D01*
X27935534Y-32695500D01*
X27809088Y-32720652D01*
X27809083Y-32720654D01*
X27689978Y-32769989D01*
X27582780Y-32841616D01*
X27582774Y-32841621D01*
X27491621Y-32932774D01*
X27491615Y-32932781D01*
X27473198Y-32960344D01*
X27418720Y-33005870D01*
X27348277Y-33014716D01*
X27305437Y-32999459D01*
X27283334Y-32986698D01*
X27283329Y-32986696D01*
X27283328Y-32986696D01*
X27129584Y-32945500D01*
X26970416Y-32945500D01*
X26860322Y-32975000D01*
X26816672Y-32986696D01*
X26816667Y-32986698D01*
X26678831Y-33066277D01*
X26678821Y-33066285D01*
X26566285Y-33178821D01*
X26566277Y-33178831D01*
X26486698Y-33316667D01*
X26486696Y-33316672D01*
X26445500Y-33470416D01*
X21750500Y-33470416D01*
X21750500Y-32203165D01*
X21770502Y-32135044D01*
X21824158Y-32088551D01*
X21894432Y-32078447D01*
X21946501Y-32098400D01*
X21955400Y-32104346D01*
X22000505Y-32134485D01*
X22000506Y-32134485D01*
X22000507Y-32134486D01*
X22192414Y-32213976D01*
X22396141Y-32254500D01*
X22396142Y-32254500D01*
X22953858Y-32254500D01*
X22953859Y-32254500D01*
X23157586Y-32213976D01*
X23349493Y-32134486D01*
X23522204Y-32019083D01*
X23669083Y-31872204D01*
X23784486Y-31699493D01*
X23863976Y-31507586D01*
X23883281Y-31410534D01*
X29945500Y-31410534D01*
X29945500Y-31410537D01*
X29945500Y-31539463D01*
X29970652Y-31665911D01*
X30019989Y-31785022D01*
X30067849Y-31856649D01*
X30091616Y-31892219D01*
X30091621Y-31892225D01*
X30182774Y-31983378D01*
X30182780Y-31983383D01*
X30289978Y-32055011D01*
X30409089Y-32104348D01*
X30409099Y-32104350D01*
X30409338Y-32104423D01*
X30409455Y-32104499D01*
X30414808Y-32106717D01*
X30414387Y-32107731D01*
X30468721Y-32143335D01*
X30497641Y-32208175D01*
X30486914Y-32278357D01*
X30439947Y-32331598D01*
X30414736Y-32343111D01*
X30414808Y-32343283D01*
X30410003Y-32345273D01*
X30409338Y-32345577D01*
X30409090Y-32345651D01*
X30409089Y-32345652D01*
X30409087Y-32345652D01*
X30409083Y-32345654D01*
X30289978Y-32394989D01*
X30182780Y-32466616D01*
X30182774Y-32466621D01*
X30091621Y-32557774D01*
X30091616Y-32557780D01*
X30019989Y-32664978D01*
X29970654Y-32784083D01*
X29970652Y-32784088D01*
X29945500Y-32910534D01*
X29945500Y-33039465D01*
X29950834Y-33066280D01*
X29970652Y-33165911D01*
X30019989Y-33285022D01*
X30041134Y-33316667D01*
X30091616Y-33392219D01*
X30091621Y-33392225D01*
X30182774Y-33483378D01*
X30182780Y-33483383D01*
X30289978Y-33555011D01*
X30409089Y-33604348D01*
X30535537Y-33629500D01*
X30535538Y-33629500D01*
X30664462Y-33629500D01*
X30664463Y-33629500D01*
X30790911Y-33604348D01*
X30910022Y-33555011D01*
X31017220Y-33483383D01*
X31108383Y-33392220D01*
X31109510Y-33390534D01*
X37985500Y-33390534D01*
X37985500Y-33519465D01*
X38010652Y-33645911D01*
X38010654Y-33645916D01*
X38016497Y-33660022D01*
X38059989Y-33765022D01*
X38093696Y-33815468D01*
X38131616Y-33872219D01*
X38131621Y-33872225D01*
X38139798Y-33880402D01*
X38173824Y-33942714D01*
X38168759Y-34013529D01*
X38155468Y-34039499D01*
X38084989Y-34144977D01*
X38035654Y-34264083D01*
X38035652Y-34264088D01*
X38010500Y-34390534D01*
X38010500Y-34390537D01*
X38010500Y-34519463D01*
X38035652Y-34645911D01*
X38084989Y-34765022D01*
X38152907Y-34866667D01*
X38155468Y-34870500D01*
X38176683Y-34938252D01*
X38157900Y-35006719D01*
X38139802Y-35029594D01*
X38131616Y-35037780D01*
X38059989Y-35144978D01*
X38010654Y-35264083D01*
X38010652Y-35264088D01*
X37985500Y-35390534D01*
X37985500Y-35390537D01*
X37985500Y-35519463D01*
X38010652Y-35645911D01*
X38059989Y-35765022D01*
X38107849Y-35836649D01*
X38131616Y-35872219D01*
X38131621Y-35872225D01*
X38222774Y-35963378D01*
X38222780Y-35963383D01*
X38329978Y-36035011D01*
X38449089Y-36084348D01*
X38575537Y-36109500D01*
X38575538Y-36109500D01*
X38704462Y-36109500D01*
X38704463Y-36109500D01*
X38830911Y-36084348D01*
X38950022Y-36035011D01*
X39057220Y-35963383D01*
X39148383Y-35872220D01*
X39220011Y-35765022D01*
X39269348Y-35645911D01*
X39294500Y-35519463D01*
X39294500Y-35390537D01*
X39269348Y-35264089D01*
X39220011Y-35144978D01*
X39149529Y-35039496D01*
X39128316Y-34971747D01*
X39147099Y-34903280D01*
X39165200Y-34880402D01*
X39173383Y-34872220D01*
X39245011Y-34765022D01*
X39294348Y-34645911D01*
X39319500Y-34519463D01*
X39319500Y-34475435D01*
X41995410Y-34475435D01*
X41995410Y-34634603D01*
X42005007Y-34670418D01*
X42036606Y-34788346D01*
X42036608Y-34788351D01*
X42116187Y-34926187D01*
X42116195Y-34926197D01*
X42228731Y-35038733D01*
X42228736Y-35038737D01*
X42228738Y-35038739D01*
X42366582Y-35118323D01*
X42520326Y-35159519D01*
X42520329Y-35159519D01*
X42679491Y-35159519D01*
X42679494Y-35159519D01*
X42833238Y-35118323D01*
X42971082Y-35038739D01*
X43083630Y-34926191D01*
X43163214Y-34788347D01*
X43204410Y-34634603D01*
X43204410Y-34475435D01*
X43163214Y-34321691D01*
X43112655Y-34234120D01*
X43083632Y-34183850D01*
X43083624Y-34183840D01*
X42971088Y-34071304D01*
X42971078Y-34071296D01*
X42833242Y-33991717D01*
X42833240Y-33991716D01*
X42833238Y-33991715D01*
X42679494Y-33950519D01*
X42520326Y-33950519D01*
X42366582Y-33991715D01*
X42366577Y-33991717D01*
X42228741Y-34071296D01*
X42228731Y-34071304D01*
X42116195Y-34183840D01*
X42116187Y-34183850D01*
X42036608Y-34321686D01*
X42036606Y-34321691D01*
X41995410Y-34475435D01*
X39319500Y-34475435D01*
X39319500Y-34390537D01*
X39294348Y-34264089D01*
X39245011Y-34144978D01*
X39173383Y-34037780D01*
X39173378Y-34037774D01*
X39165201Y-34029597D01*
X39131175Y-33967285D01*
X39136240Y-33896470D01*
X39149528Y-33870505D01*
X39220011Y-33765022D01*
X39269348Y-33645911D01*
X39294500Y-33519463D01*
X39294500Y-33390537D01*
X39269348Y-33264089D01*
X39220011Y-33144978D01*
X39148383Y-33037780D01*
X39148378Y-33037774D01*
X39057225Y-32946621D01*
X39057219Y-32946616D01*
X39003218Y-32910534D01*
X38950022Y-32874989D01*
X38830911Y-32825652D01*
X38784338Y-32816388D01*
X38704465Y-32800500D01*
X38704463Y-32800500D01*
X38575537Y-32800500D01*
X38575534Y-32800500D01*
X38449088Y-32825652D01*
X38449083Y-32825654D01*
X38329978Y-32874989D01*
X38222780Y-32946616D01*
X38222774Y-32946621D01*
X38131621Y-33037774D01*
X38131616Y-33037780D01*
X38059989Y-33144978D01*
X38010654Y-33264083D01*
X38010652Y-33264088D01*
X37985500Y-33390534D01*
X31109510Y-33390534D01*
X31180011Y-33285022D01*
X31229348Y-33165911D01*
X31254500Y-33039463D01*
X31254500Y-32910537D01*
X31229348Y-32784089D01*
X31180011Y-32664978D01*
X31108383Y-32557780D01*
X31108378Y-32557774D01*
X31017225Y-32466621D01*
X31017219Y-32466616D01*
X30970706Y-32435537D01*
X30910022Y-32394989D01*
X30897006Y-32389597D01*
X30882834Y-32383727D01*
X30882766Y-32383699D01*
X30790911Y-32345652D01*
X30787990Y-32345071D01*
X30779673Y-32341681D01*
X30756284Y-32323051D01*
X30731281Y-32306669D01*
X30728835Y-32301187D01*
X30724140Y-32297447D01*
X30716668Y-32275416D01*
X41335500Y-32275416D01*
X41335500Y-32434584D01*
X41376696Y-32588327D01*
X41376698Y-32588332D01*
X41456277Y-32726168D01*
X41456285Y-32726178D01*
X41568821Y-32838714D01*
X41568826Y-32838718D01*
X41568828Y-32838720D01*
X41568829Y-32838721D01*
X41568831Y-32838722D01*
X41631648Y-32874989D01*
X41706672Y-32918304D01*
X41860416Y-32959500D01*
X41860419Y-32959500D01*
X42019581Y-32959500D01*
X42019584Y-32959500D01*
X42173328Y-32918304D01*
X42311172Y-32838720D01*
X42423720Y-32726172D01*
X42503304Y-32588328D01*
X42544500Y-32434584D01*
X42544500Y-32275416D01*
X42503304Y-32121672D01*
X42464433Y-32054345D01*
X42423722Y-31983831D01*
X42423714Y-31983821D01*
X42311178Y-31871285D01*
X42311168Y-31871277D01*
X42173332Y-31791698D01*
X42173330Y-31791697D01*
X42173328Y-31791696D01*
X42019584Y-31750500D01*
X41860416Y-31750500D01*
X41706672Y-31791696D01*
X41706667Y-31791698D01*
X41568831Y-31871277D01*
X41568821Y-31871285D01*
X41456285Y-31983821D01*
X41456277Y-31983831D01*
X41376698Y-32121667D01*
X41376696Y-32121672D01*
X41335500Y-32275416D01*
X30716668Y-32275416D01*
X30714537Y-32269131D01*
X30702359Y-32241830D01*
X30703265Y-32235896D01*
X30701338Y-32230212D01*
X30708566Y-32201202D01*
X30713083Y-32171648D01*
X30717053Y-32167146D01*
X30718505Y-32161322D01*
X30740269Y-32140826D01*
X30760047Y-32118405D01*
X30767876Y-32114829D01*
X30770192Y-32112649D01*
X30774345Y-32111875D01*
X30785263Y-32106889D01*
X30785192Y-32106717D01*
X30790016Y-32104718D01*
X30790666Y-32104422D01*
X30790900Y-32104349D01*
X30790911Y-32104348D01*
X30910022Y-32055011D01*
X31017220Y-31983383D01*
X31108383Y-31892220D01*
X31180011Y-31785022D01*
X31229348Y-31665911D01*
X31254500Y-31539463D01*
X31254500Y-31410537D01*
X31244554Y-31360537D01*
X31244553Y-31360534D01*
X33695500Y-31360534D01*
X33695500Y-31489465D01*
X33705446Y-31539465D01*
X33720652Y-31615911D01*
X33769989Y-31735022D01*
X33803398Y-31785021D01*
X33841616Y-31842219D01*
X33841621Y-31842225D01*
X33932774Y-31933378D01*
X33932780Y-31933383D01*
X34039978Y-32005011D01*
X34159089Y-32054348D01*
X34285537Y-32079500D01*
X34285538Y-32079500D01*
X34414462Y-32079500D01*
X34414463Y-32079500D01*
X34540911Y-32054348D01*
X34660022Y-32005011D01*
X34767220Y-31933383D01*
X34858383Y-31842220D01*
X34930011Y-31735022D01*
X34979348Y-31615911D01*
X35004500Y-31489463D01*
X35004500Y-31360537D01*
X34979348Y-31234089D01*
X34930011Y-31114978D01*
X34858383Y-31007780D01*
X34858378Y-31007774D01*
X34767225Y-30916621D01*
X34767219Y-30916616D01*
X34693674Y-30867475D01*
X34660022Y-30844989D01*
X34540911Y-30795652D01*
X34414465Y-30770500D01*
X34414463Y-30770500D01*
X34285537Y-30770500D01*
X34285534Y-30770500D01*
X34159088Y-30795652D01*
X34159083Y-30795654D01*
X34039978Y-30844989D01*
X33932780Y-30916616D01*
X33932774Y-30916621D01*
X33841621Y-31007774D01*
X33841616Y-31007780D01*
X33769989Y-31114978D01*
X33720654Y-31234083D01*
X33720652Y-31234088D01*
X33695500Y-31360534D01*
X31244553Y-31360534D01*
X31241895Y-31347171D01*
X31229348Y-31284089D01*
X31180011Y-31164978D01*
X31108383Y-31057780D01*
X31108378Y-31057774D01*
X31017225Y-30966621D01*
X31017219Y-30966616D01*
X30942390Y-30916617D01*
X30910022Y-30894989D01*
X30790911Y-30845652D01*
X30787578Y-30844989D01*
X30664465Y-30820500D01*
X30664463Y-30820500D01*
X30535537Y-30820500D01*
X30535534Y-30820500D01*
X30409088Y-30845652D01*
X30409083Y-30845654D01*
X30289978Y-30894989D01*
X30182780Y-30966616D01*
X30182774Y-30966621D01*
X30091621Y-31057774D01*
X30091616Y-31057780D01*
X30019989Y-31164978D01*
X29970654Y-31284083D01*
X29970652Y-31284088D01*
X29945500Y-31410534D01*
X23883281Y-31410534D01*
X23904500Y-31303859D01*
X23904500Y-31096141D01*
X23863976Y-30892414D01*
X23784486Y-30700507D01*
X23669083Y-30527796D01*
X23669078Y-30527790D01*
X23522209Y-30380921D01*
X23522203Y-30380916D01*
X23456806Y-30337219D01*
X23349493Y-30265514D01*
X23157586Y-30186024D01*
X23127352Y-30180010D01*
X22953861Y-30145500D01*
X22953859Y-30145500D01*
X22396141Y-30145500D01*
X22396138Y-30145500D01*
X22192413Y-30186024D01*
X22192408Y-30186026D01*
X22000506Y-30265514D01*
X21946502Y-30301599D01*
X21878749Y-30322814D01*
X21810282Y-30304031D01*
X21762839Y-30251214D01*
X21750500Y-30196834D01*
X21750500Y-29535534D01*
X31245500Y-29535534D01*
X31245500Y-29664465D01*
X31258355Y-29729089D01*
X31270652Y-29790911D01*
X31319989Y-29910022D01*
X31367849Y-29981649D01*
X31391616Y-30017219D01*
X31391621Y-30017225D01*
X31482774Y-30108378D01*
X31482780Y-30108383D01*
X31589978Y-30180011D01*
X31709089Y-30229348D01*
X31835537Y-30254500D01*
X31835538Y-30254500D01*
X31964462Y-30254500D01*
X31964463Y-30254500D01*
X32090911Y-30229348D01*
X32201862Y-30183391D01*
X38701775Y-30183391D01*
X38701775Y-30342559D01*
X38724772Y-30428383D01*
X38742971Y-30496302D01*
X38742973Y-30496307D01*
X38822552Y-30634143D01*
X38822560Y-30634153D01*
X38935096Y-30746689D01*
X38935101Y-30746693D01*
X38935103Y-30746695D01*
X38935104Y-30746696D01*
X38935106Y-30746697D01*
X38992808Y-30780011D01*
X39072947Y-30826279D01*
X39226691Y-30867475D01*
X39226694Y-30867475D01*
X39385856Y-30867475D01*
X39385859Y-30867475D01*
X39539603Y-30826279D01*
X39677447Y-30746695D01*
X39789995Y-30634147D01*
X39869579Y-30496303D01*
X39910775Y-30342559D01*
X39910775Y-30183391D01*
X39869579Y-30029647D01*
X39789995Y-29891803D01*
X39789993Y-29891801D01*
X39789989Y-29891796D01*
X39753727Y-29855534D01*
X42965500Y-29855534D01*
X42965500Y-29984465D01*
X42985704Y-30086037D01*
X42990652Y-30110911D01*
X43039989Y-30230022D01*
X43087816Y-30301599D01*
X43111616Y-30337219D01*
X43111621Y-30337225D01*
X43202774Y-30428378D01*
X43202780Y-30428383D01*
X43309978Y-30500011D01*
X43429089Y-30549348D01*
X43555537Y-30574500D01*
X43555538Y-30574500D01*
X43684462Y-30574500D01*
X43684463Y-30574500D01*
X43810911Y-30549348D01*
X43930022Y-30500011D01*
X44037220Y-30428383D01*
X44128383Y-30337220D01*
X44200011Y-30230022D01*
X44249348Y-30110911D01*
X44274500Y-29984463D01*
X44274500Y-29855537D01*
X44249348Y-29729089D01*
X44200011Y-29609978D01*
X44128383Y-29502780D01*
X44128378Y-29502774D01*
X44037225Y-29411621D01*
X44037219Y-29411616D01*
X43979685Y-29373173D01*
X43930022Y-29339989D01*
X43810911Y-29290652D01*
X43797493Y-29287983D01*
X43684465Y-29265500D01*
X43684463Y-29265500D01*
X43555537Y-29265500D01*
X43555534Y-29265500D01*
X43429088Y-29290652D01*
X43429083Y-29290654D01*
X43309978Y-29339989D01*
X43202780Y-29411616D01*
X43202773Y-29411622D01*
X43163831Y-29450563D01*
X43163811Y-29450585D01*
X43111617Y-29502780D01*
X43088747Y-29537005D01*
X43088739Y-29537016D01*
X43039991Y-29609973D01*
X43039989Y-29609977D01*
X42990654Y-29729083D01*
X42990652Y-29729088D01*
X42965500Y-29855534D01*
X39753727Y-29855534D01*
X39677453Y-29779260D01*
X39677443Y-29779252D01*
X39539607Y-29699673D01*
X39539605Y-29699672D01*
X39539603Y-29699671D01*
X39385859Y-29658475D01*
X39226691Y-29658475D01*
X39103005Y-29691617D01*
X39072947Y-29699671D01*
X39072942Y-29699673D01*
X38935106Y-29779252D01*
X38935096Y-29779260D01*
X38822560Y-29891796D01*
X38822552Y-29891806D01*
X38742973Y-30029642D01*
X38742971Y-30029647D01*
X38701775Y-30183391D01*
X32201862Y-30183391D01*
X32210022Y-30180011D01*
X32317220Y-30108383D01*
X32317225Y-30108378D01*
X32339567Y-30086037D01*
X32408378Y-30017225D01*
X32408383Y-30017220D01*
X32480011Y-29910022D01*
X32529348Y-29790911D01*
X32554500Y-29664463D01*
X32554500Y-29535537D01*
X32529348Y-29409089D01*
X32480011Y-29289978D01*
X32408383Y-29182780D01*
X32408378Y-29182774D01*
X32317225Y-29091621D01*
X32317219Y-29091616D01*
X32229434Y-29032960D01*
X32210022Y-29019989D01*
X32090911Y-28970652D01*
X32084944Y-28969465D01*
X31964465Y-28945500D01*
X31964463Y-28945500D01*
X31835537Y-28945500D01*
X31835534Y-28945500D01*
X31709088Y-28970652D01*
X31709083Y-28970654D01*
X31589978Y-29019989D01*
X31482780Y-29091616D01*
X31482774Y-29091621D01*
X31391621Y-29182774D01*
X31391616Y-29182780D01*
X31319989Y-29289978D01*
X31270654Y-29409083D01*
X31270652Y-29409088D01*
X31245500Y-29535534D01*
X21750500Y-29535534D01*
X21750500Y-29004500D01*
X21750821Y-28995512D01*
X21755213Y-28934108D01*
X21765120Y-28795578D01*
X21767675Y-28777808D01*
X21809328Y-28586331D01*
X21814384Y-28569110D01*
X21882860Y-28385517D01*
X21890321Y-28369181D01*
X21984226Y-28197207D01*
X21993933Y-28182104D01*
X22111360Y-28025239D01*
X22123120Y-28011668D01*
X22261668Y-27873120D01*
X22275239Y-27861360D01*
X22432104Y-27743933D01*
X22447207Y-27734226D01*
X22619181Y-27640321D01*
X22635517Y-27632860D01*
X22819110Y-27564384D01*
X22836331Y-27559328D01*
X23027808Y-27517675D01*
X23045578Y-27515120D01*
X23229043Y-27501998D01*
X23245513Y-27500821D01*
X23254501Y-27500500D01*
X23315892Y-27500500D01*
X37434108Y-27500500D01*
X40716617Y-27500500D01*
X40784738Y-27520502D01*
G37*
G04 #@! TD.AperFunction*
M02*
