%TF.GenerationSoftware,KiCad,Pcbnew,9.0.6*%
%TF.CreationDate,2026-04-25T22:27:49+05:30*%
%TF.ProjectId,USB TO UART,55534220-544f-4205-9541-52542e6b6963,rev?*%
%TF.SameCoordinates,Original*%
%TF.FileFunction,Drillmap*%
%TF.FilePolarity,Positive*%
%FSLAX45Y45*%
G04 Gerber Fmt 4.5, Leading zero omitted, Abs format (unit mm)*
G04 Created by KiCad (PCBNEW 9.0.6) date 2026-04-25 22:27:49*
%MOMM*%
%LPD*%
G01*
G04 APERTURE LIST*
%ADD10C,0.050000*%
%ADD11C,0.200000*%
%ADD12C,0.100000*%
G04 APERTURE END LIST*
D10*
X15045000Y-9678000D02*
X15059000Y-11126000D01*
X11974000Y-9678000D02*
X11974000Y-11126000D01*
X13122924Y-9678041D02*
X11974000Y-9678000D01*
X15044996Y-9677636D02*
X13686984Y-9680000D01*
X13687000Y-11126000D02*
X15059000Y-11126000D01*
X11974000Y-11126000D02*
X13118099Y-11126000D01*
X13686984Y-9680000D02*
G75*
G02*
X13122924Y-9678000I-282044J-3000D01*
G01*
X13118099Y-11126000D02*
G75*
G02*
X13687000Y-11126000I284450J0D01*
G01*
D11*
D12*
X12654000Y-10254000D02*
X12684000Y-10284000D01*
X12684000Y-10254000D02*
X12654000Y-10284000D01*
X12984000Y-10384000D02*
X13014000Y-10414000D01*
X13014000Y-10384000D02*
X12984000Y-10414000D01*
X13004000Y-10514000D02*
X13034000Y-10544000D01*
X13034000Y-10514000D02*
X13004000Y-10544000D01*
X13094000Y-10524000D02*
X13124000Y-10554000D01*
X13124000Y-10524000D02*
X13094000Y-10554000D01*
X13174000Y-10144000D02*
X13204000Y-10174000D01*
X13204000Y-10144000D02*
X13174000Y-10174000D01*
X13854000Y-10344000D02*
X13884000Y-10374000D01*
X13884000Y-10344000D02*
X13854000Y-10374000D01*
X13894000Y-10154000D02*
X13924000Y-10184000D01*
X13924000Y-10154000D02*
X13894000Y-10184000D01*
X13914000Y-10644000D02*
X13944000Y-10674000D01*
X13944000Y-10644000D02*
X13914000Y-10674000D01*
X13964000Y-10214000D02*
X13994000Y-10244000D01*
X13994000Y-10214000D02*
X13964000Y-10244000D01*
X14064000Y-10734000D02*
X14094000Y-10764000D01*
X14094000Y-10734000D02*
X14064000Y-10764000D01*
X14114000Y-10664000D02*
X14144000Y-10694000D01*
X14144000Y-10664000D02*
X14114000Y-10694000D01*
X14134000Y-10324000D02*
X14164000Y-10354000D01*
X14164000Y-10324000D02*
X14134000Y-10354000D01*
X14274000Y-10564000D02*
X14304000Y-10594000D01*
X14304000Y-10564000D02*
X14274000Y-10594000D01*
X14494000Y-10504000D02*
X14524000Y-10534000D01*
X14524000Y-10504000D02*
X14494000Y-10534000D01*
X14494000Y-10604000D02*
X14524000Y-10634000D01*
X14524000Y-10604000D02*
X14494000Y-10634000D01*
X12314000Y-9977000D02*
G75*
G02*
X12254000Y-9977000I-30000J0D01*
G01*
X12254000Y-9977000D02*
G75*
G02*
X12314000Y-9977000I30000J0D01*
G01*
X12314000Y-9947000D02*
X12254000Y-9947000D01*
X12254000Y-10007000D02*
G75*
G02*
X12254000Y-9947000I0J30000D01*
G01*
X12254000Y-10007000D02*
X12314000Y-10007000D01*
X12314000Y-10007000D02*
G75*
G03*
X12314000Y-9947000I0J30000D01*
G01*
X12314000Y-10841000D02*
G75*
G02*
X12254000Y-10841000I-30000J0D01*
G01*
X12254000Y-10841000D02*
G75*
G02*
X12314000Y-10841000I30000J0D01*
G01*
X12314000Y-10811000D02*
X12254000Y-10811000D01*
X12254000Y-10871000D02*
G75*
G02*
X12254000Y-10811000I0J30000D01*
G01*
X12254000Y-10871000D02*
X12314000Y-10871000D01*
X12314000Y-10871000D02*
G75*
G03*
X12314000Y-10811000I0J30000D01*
G01*
X12732000Y-9977000D02*
G75*
G02*
X12672000Y-9977000I-30000J0D01*
G01*
X12672000Y-9977000D02*
G75*
G02*
X12732000Y-9977000I30000J0D01*
G01*
X12757000Y-9947000D02*
X12647000Y-9947000D01*
X12647000Y-10007000D02*
G75*
G02*
X12647000Y-9947000I0J30000D01*
G01*
X12647000Y-10007000D02*
X12757000Y-10007000D01*
X12757000Y-10007000D02*
G75*
G03*
X12757000Y-9947000I0J30000D01*
G01*
X12732000Y-10841000D02*
G75*
G02*
X12672000Y-10841000I-30000J0D01*
G01*
X12672000Y-10841000D02*
G75*
G02*
X12732000Y-10841000I30000J0D01*
G01*
X12757000Y-10811000D02*
X12647000Y-10811000D01*
X12647000Y-10871000D02*
G75*
G02*
X12647000Y-10811000I0J30000D01*
G01*
X12647000Y-10871000D02*
X12757000Y-10871000D01*
X12757000Y-10871000D02*
G75*
G03*
X12757000Y-10811000I0J30000D01*
G01*
X14639000Y-9843000D02*
X14639000Y-9943000D01*
X14589000Y-9893000D02*
X14689000Y-9893000D01*
X14639000Y-10097000D02*
X14639000Y-10197000D01*
X14589000Y-10147000D02*
X14689000Y-10147000D01*
X14639000Y-10351000D02*
X14639000Y-10451000D01*
X14589000Y-10401000D02*
X14689000Y-10401000D01*
X14639000Y-10605000D02*
X14639000Y-10705000D01*
X14589000Y-10655000D02*
X14689000Y-10655000D01*
X14639000Y-10859000D02*
X14639000Y-10959000D01*
X14589000Y-10909000D02*
X14689000Y-10909000D01*
D11*
X12232277Y-11439984D02*
X12232277Y-11239984D01*
X12232277Y-11239984D02*
X12279896Y-11239984D01*
X12279896Y-11239984D02*
X12308467Y-11249508D01*
X12308467Y-11249508D02*
X12327515Y-11268555D01*
X12327515Y-11268555D02*
X12337039Y-11287603D01*
X12337039Y-11287603D02*
X12346562Y-11325698D01*
X12346562Y-11325698D02*
X12346562Y-11354269D01*
X12346562Y-11354269D02*
X12337039Y-11392365D01*
X12337039Y-11392365D02*
X12327515Y-11411412D01*
X12327515Y-11411412D02*
X12308467Y-11430460D01*
X12308467Y-11430460D02*
X12279896Y-11439984D01*
X12279896Y-11439984D02*
X12232277Y-11439984D01*
X12432277Y-11439984D02*
X12432277Y-11306650D01*
X12432277Y-11344746D02*
X12441801Y-11325698D01*
X12441801Y-11325698D02*
X12451324Y-11316174D01*
X12451324Y-11316174D02*
X12470372Y-11306650D01*
X12470372Y-11306650D02*
X12489420Y-11306650D01*
X12556086Y-11439984D02*
X12556086Y-11306650D01*
X12556086Y-11239984D02*
X12546562Y-11249508D01*
X12546562Y-11249508D02*
X12556086Y-11259031D01*
X12556086Y-11259031D02*
X12565610Y-11249508D01*
X12565610Y-11249508D02*
X12556086Y-11239984D01*
X12556086Y-11239984D02*
X12556086Y-11259031D01*
X12679896Y-11439984D02*
X12660848Y-11430460D01*
X12660848Y-11430460D02*
X12651324Y-11411412D01*
X12651324Y-11411412D02*
X12651324Y-11239984D01*
X12784658Y-11439984D02*
X12765610Y-11430460D01*
X12765610Y-11430460D02*
X12756086Y-11411412D01*
X12756086Y-11411412D02*
X12756086Y-11239984D01*
X13013229Y-11439984D02*
X13013229Y-11239984D01*
X13013229Y-11239984D02*
X13079896Y-11382841D01*
X13079896Y-11382841D02*
X13146562Y-11239984D01*
X13146562Y-11239984D02*
X13146562Y-11439984D01*
X13327515Y-11439984D02*
X13327515Y-11335222D01*
X13327515Y-11335222D02*
X13317991Y-11316174D01*
X13317991Y-11316174D02*
X13298943Y-11306650D01*
X13298943Y-11306650D02*
X13260848Y-11306650D01*
X13260848Y-11306650D02*
X13241801Y-11316174D01*
X13327515Y-11430460D02*
X13308467Y-11439984D01*
X13308467Y-11439984D02*
X13260848Y-11439984D01*
X13260848Y-11439984D02*
X13241801Y-11430460D01*
X13241801Y-11430460D02*
X13232277Y-11411412D01*
X13232277Y-11411412D02*
X13232277Y-11392365D01*
X13232277Y-11392365D02*
X13241801Y-11373317D01*
X13241801Y-11373317D02*
X13260848Y-11363793D01*
X13260848Y-11363793D02*
X13308467Y-11363793D01*
X13308467Y-11363793D02*
X13327515Y-11354269D01*
X13422753Y-11306650D02*
X13422753Y-11506650D01*
X13422753Y-11316174D02*
X13441801Y-11306650D01*
X13441801Y-11306650D02*
X13479896Y-11306650D01*
X13479896Y-11306650D02*
X13498943Y-11316174D01*
X13498943Y-11316174D02*
X13508467Y-11325698D01*
X13508467Y-11325698D02*
X13517991Y-11344746D01*
X13517991Y-11344746D02*
X13517991Y-11401888D01*
X13517991Y-11401888D02*
X13508467Y-11420936D01*
X13508467Y-11420936D02*
X13498943Y-11430460D01*
X13498943Y-11430460D02*
X13479896Y-11439984D01*
X13479896Y-11439984D02*
X13441801Y-11439984D01*
X13441801Y-11439984D02*
X13422753Y-11430460D01*
X13603705Y-11420936D02*
X13613229Y-11430460D01*
X13613229Y-11430460D02*
X13603705Y-11439984D01*
X13603705Y-11439984D02*
X13594182Y-11430460D01*
X13594182Y-11430460D02*
X13603705Y-11420936D01*
X13603705Y-11420936D02*
X13603705Y-11439984D01*
X13603705Y-11316174D02*
X13613229Y-11325698D01*
X13613229Y-11325698D02*
X13603705Y-11335222D01*
X13603705Y-11335222D02*
X13594182Y-11325698D01*
X13594182Y-11325698D02*
X13603705Y-11316174D01*
X13603705Y-11316174D02*
X13603705Y-11335222D01*
D12*
X11941500Y-11753500D02*
X11971500Y-11783500D01*
X11971500Y-11753500D02*
X11941500Y-11783500D01*
D11*
X12270372Y-11659984D02*
X12289420Y-11659984D01*
X12289420Y-11659984D02*
X12308467Y-11669508D01*
X12308467Y-11669508D02*
X12317991Y-11679031D01*
X12317991Y-11679031D02*
X12327515Y-11698079D01*
X12327515Y-11698079D02*
X12337039Y-11736174D01*
X12337039Y-11736174D02*
X12337039Y-11783793D01*
X12337039Y-11783793D02*
X12327515Y-11821888D01*
X12327515Y-11821888D02*
X12317991Y-11840936D01*
X12317991Y-11840936D02*
X12308467Y-11850460D01*
X12308467Y-11850460D02*
X12289420Y-11859984D01*
X12289420Y-11859984D02*
X12270372Y-11859984D01*
X12270372Y-11859984D02*
X12251324Y-11850460D01*
X12251324Y-11850460D02*
X12241801Y-11840936D01*
X12241801Y-11840936D02*
X12232277Y-11821888D01*
X12232277Y-11821888D02*
X12222753Y-11783793D01*
X12222753Y-11783793D02*
X12222753Y-11736174D01*
X12222753Y-11736174D02*
X12232277Y-11698079D01*
X12232277Y-11698079D02*
X12241801Y-11679031D01*
X12241801Y-11679031D02*
X12251324Y-11669508D01*
X12251324Y-11669508D02*
X12270372Y-11659984D01*
X12422753Y-11840936D02*
X12432277Y-11850460D01*
X12432277Y-11850460D02*
X12422753Y-11859984D01*
X12422753Y-11859984D02*
X12413229Y-11850460D01*
X12413229Y-11850460D02*
X12422753Y-11840936D01*
X12422753Y-11840936D02*
X12422753Y-11859984D01*
X12498943Y-11659984D02*
X12622753Y-11659984D01*
X12622753Y-11659984D02*
X12556086Y-11736174D01*
X12556086Y-11736174D02*
X12584658Y-11736174D01*
X12584658Y-11736174D02*
X12603705Y-11745698D01*
X12603705Y-11745698D02*
X12613229Y-11755222D01*
X12613229Y-11755222D02*
X12622753Y-11774269D01*
X12622753Y-11774269D02*
X12622753Y-11821888D01*
X12622753Y-11821888D02*
X12613229Y-11840936D01*
X12613229Y-11840936D02*
X12603705Y-11850460D01*
X12603705Y-11850460D02*
X12584658Y-11859984D01*
X12584658Y-11859984D02*
X12527515Y-11859984D01*
X12527515Y-11859984D02*
X12508467Y-11850460D01*
X12508467Y-11850460D02*
X12498943Y-11840936D01*
X12746562Y-11659984D02*
X12765610Y-11659984D01*
X12765610Y-11659984D02*
X12784658Y-11669508D01*
X12784658Y-11669508D02*
X12794182Y-11679031D01*
X12794182Y-11679031D02*
X12803705Y-11698079D01*
X12803705Y-11698079D02*
X12813229Y-11736174D01*
X12813229Y-11736174D02*
X12813229Y-11783793D01*
X12813229Y-11783793D02*
X12803705Y-11821888D01*
X12803705Y-11821888D02*
X12794182Y-11840936D01*
X12794182Y-11840936D02*
X12784658Y-11850460D01*
X12784658Y-11850460D02*
X12765610Y-11859984D01*
X12765610Y-11859984D02*
X12746562Y-11859984D01*
X12746562Y-11859984D02*
X12727515Y-11850460D01*
X12727515Y-11850460D02*
X12717991Y-11840936D01*
X12717991Y-11840936D02*
X12708467Y-11821888D01*
X12708467Y-11821888D02*
X12698943Y-11783793D01*
X12698943Y-11783793D02*
X12698943Y-11736174D01*
X12698943Y-11736174D02*
X12708467Y-11698079D01*
X12708467Y-11698079D02*
X12717991Y-11679031D01*
X12717991Y-11679031D02*
X12727515Y-11669508D01*
X12727515Y-11669508D02*
X12746562Y-11659984D01*
X12937039Y-11659984D02*
X12956086Y-11659984D01*
X12956086Y-11659984D02*
X12975134Y-11669508D01*
X12975134Y-11669508D02*
X12984658Y-11679031D01*
X12984658Y-11679031D02*
X12994182Y-11698079D01*
X12994182Y-11698079D02*
X13003705Y-11736174D01*
X13003705Y-11736174D02*
X13003705Y-11783793D01*
X13003705Y-11783793D02*
X12994182Y-11821888D01*
X12994182Y-11821888D02*
X12984658Y-11840936D01*
X12984658Y-11840936D02*
X12975134Y-11850460D01*
X12975134Y-11850460D02*
X12956086Y-11859984D01*
X12956086Y-11859984D02*
X12937039Y-11859984D01*
X12937039Y-11859984D02*
X12917991Y-11850460D01*
X12917991Y-11850460D02*
X12908467Y-11840936D01*
X12908467Y-11840936D02*
X12898943Y-11821888D01*
X12898943Y-11821888D02*
X12889420Y-11783793D01*
X12889420Y-11783793D02*
X12889420Y-11736174D01*
X12889420Y-11736174D02*
X12898943Y-11698079D01*
X12898943Y-11698079D02*
X12908467Y-11679031D01*
X12908467Y-11679031D02*
X12917991Y-11669508D01*
X12917991Y-11669508D02*
X12937039Y-11659984D01*
X13089420Y-11859984D02*
X13089420Y-11726650D01*
X13089420Y-11745698D02*
X13098943Y-11736174D01*
X13098943Y-11736174D02*
X13117991Y-11726650D01*
X13117991Y-11726650D02*
X13146563Y-11726650D01*
X13146563Y-11726650D02*
X13165610Y-11736174D01*
X13165610Y-11736174D02*
X13175134Y-11755222D01*
X13175134Y-11755222D02*
X13175134Y-11859984D01*
X13175134Y-11755222D02*
X13184658Y-11736174D01*
X13184658Y-11736174D02*
X13203705Y-11726650D01*
X13203705Y-11726650D02*
X13232277Y-11726650D01*
X13232277Y-11726650D02*
X13251324Y-11736174D01*
X13251324Y-11736174D02*
X13260848Y-11755222D01*
X13260848Y-11755222D02*
X13260848Y-11859984D01*
X13356086Y-11859984D02*
X13356086Y-11726650D01*
X13356086Y-11745698D02*
X13365610Y-11736174D01*
X13365610Y-11736174D02*
X13384658Y-11726650D01*
X13384658Y-11726650D02*
X13413229Y-11726650D01*
X13413229Y-11726650D02*
X13432277Y-11736174D01*
X13432277Y-11736174D02*
X13441801Y-11755222D01*
X13441801Y-11755222D02*
X13441801Y-11859984D01*
X13441801Y-11755222D02*
X13451324Y-11736174D01*
X13451324Y-11736174D02*
X13470372Y-11726650D01*
X13470372Y-11726650D02*
X13498943Y-11726650D01*
X13498943Y-11726650D02*
X13517991Y-11736174D01*
X13517991Y-11736174D02*
X13527515Y-11755222D01*
X13527515Y-11755222D02*
X13527515Y-11859984D01*
X13917991Y-11650460D02*
X13746563Y-11907603D01*
X14175134Y-11659984D02*
X14194182Y-11659984D01*
X14194182Y-11659984D02*
X14213229Y-11669508D01*
X14213229Y-11669508D02*
X14222753Y-11679031D01*
X14222753Y-11679031D02*
X14232277Y-11698079D01*
X14232277Y-11698079D02*
X14241801Y-11736174D01*
X14241801Y-11736174D02*
X14241801Y-11783793D01*
X14241801Y-11783793D02*
X14232277Y-11821888D01*
X14232277Y-11821888D02*
X14222753Y-11840936D01*
X14222753Y-11840936D02*
X14213229Y-11850460D01*
X14213229Y-11850460D02*
X14194182Y-11859984D01*
X14194182Y-11859984D02*
X14175134Y-11859984D01*
X14175134Y-11859984D02*
X14156086Y-11850460D01*
X14156086Y-11850460D02*
X14146563Y-11840936D01*
X14146563Y-11840936D02*
X14137039Y-11821888D01*
X14137039Y-11821888D02*
X14127515Y-11783793D01*
X14127515Y-11783793D02*
X14127515Y-11736174D01*
X14127515Y-11736174D02*
X14137039Y-11698079D01*
X14137039Y-11698079D02*
X14146563Y-11679031D01*
X14146563Y-11679031D02*
X14156086Y-11669508D01*
X14156086Y-11669508D02*
X14175134Y-11659984D01*
X14327515Y-11840936D02*
X14337039Y-11850460D01*
X14337039Y-11850460D02*
X14327515Y-11859984D01*
X14327515Y-11859984D02*
X14317991Y-11850460D01*
X14317991Y-11850460D02*
X14327515Y-11840936D01*
X14327515Y-11840936D02*
X14327515Y-11859984D01*
X14460848Y-11659984D02*
X14479896Y-11659984D01*
X14479896Y-11659984D02*
X14498944Y-11669508D01*
X14498944Y-11669508D02*
X14508467Y-11679031D01*
X14508467Y-11679031D02*
X14517991Y-11698079D01*
X14517991Y-11698079D02*
X14527515Y-11736174D01*
X14527515Y-11736174D02*
X14527515Y-11783793D01*
X14527515Y-11783793D02*
X14517991Y-11821888D01*
X14517991Y-11821888D02*
X14508467Y-11840936D01*
X14508467Y-11840936D02*
X14498944Y-11850460D01*
X14498944Y-11850460D02*
X14479896Y-11859984D01*
X14479896Y-11859984D02*
X14460848Y-11859984D01*
X14460848Y-11859984D02*
X14441801Y-11850460D01*
X14441801Y-11850460D02*
X14432277Y-11840936D01*
X14432277Y-11840936D02*
X14422753Y-11821888D01*
X14422753Y-11821888D02*
X14413229Y-11783793D01*
X14413229Y-11783793D02*
X14413229Y-11736174D01*
X14413229Y-11736174D02*
X14422753Y-11698079D01*
X14422753Y-11698079D02*
X14432277Y-11679031D01*
X14432277Y-11679031D02*
X14441801Y-11669508D01*
X14441801Y-11669508D02*
X14460848Y-11659984D01*
X14717991Y-11859984D02*
X14603706Y-11859984D01*
X14660848Y-11859984D02*
X14660848Y-11659984D01*
X14660848Y-11659984D02*
X14641801Y-11688555D01*
X14641801Y-11688555D02*
X14622753Y-11707603D01*
X14622753Y-11707603D02*
X14603706Y-11717127D01*
X14908467Y-11859984D02*
X14794182Y-11859984D01*
X14851325Y-11859984D02*
X14851325Y-11659984D01*
X14851325Y-11659984D02*
X14832277Y-11688555D01*
X14832277Y-11688555D02*
X14813229Y-11707603D01*
X14813229Y-11707603D02*
X14794182Y-11717127D01*
X15022753Y-11745698D02*
X15003706Y-11736174D01*
X15003706Y-11736174D02*
X14994182Y-11726650D01*
X14994182Y-11726650D02*
X14984658Y-11707603D01*
X14984658Y-11707603D02*
X14984658Y-11698079D01*
X14984658Y-11698079D02*
X14994182Y-11679031D01*
X14994182Y-11679031D02*
X15003706Y-11669508D01*
X15003706Y-11669508D02*
X15022753Y-11659984D01*
X15022753Y-11659984D02*
X15060848Y-11659984D01*
X15060848Y-11659984D02*
X15079896Y-11669508D01*
X15079896Y-11669508D02*
X15089420Y-11679031D01*
X15089420Y-11679031D02*
X15098944Y-11698079D01*
X15098944Y-11698079D02*
X15098944Y-11707603D01*
X15098944Y-11707603D02*
X15089420Y-11726650D01*
X15089420Y-11726650D02*
X15079896Y-11736174D01*
X15079896Y-11736174D02*
X15060848Y-11745698D01*
X15060848Y-11745698D02*
X15022753Y-11745698D01*
X15022753Y-11745698D02*
X15003706Y-11755222D01*
X15003706Y-11755222D02*
X14994182Y-11764746D01*
X14994182Y-11764746D02*
X14984658Y-11783793D01*
X14984658Y-11783793D02*
X14984658Y-11821888D01*
X14984658Y-11821888D02*
X14994182Y-11840936D01*
X14994182Y-11840936D02*
X15003706Y-11850460D01*
X15003706Y-11850460D02*
X15022753Y-11859984D01*
X15022753Y-11859984D02*
X15060848Y-11859984D01*
X15060848Y-11859984D02*
X15079896Y-11850460D01*
X15079896Y-11850460D02*
X15089420Y-11840936D01*
X15089420Y-11840936D02*
X15098944Y-11821888D01*
X15098944Y-11821888D02*
X15098944Y-11783793D01*
X15098944Y-11783793D02*
X15089420Y-11764746D01*
X15089420Y-11764746D02*
X15079896Y-11755222D01*
X15079896Y-11755222D02*
X15060848Y-11745698D01*
X15175134Y-11659984D02*
X15175134Y-11698079D01*
X15251325Y-11659984D02*
X15251325Y-11698079D01*
X15546563Y-11936174D02*
X15537039Y-11926650D01*
X15537039Y-11926650D02*
X15517991Y-11898079D01*
X15517991Y-11898079D02*
X15508468Y-11879031D01*
X15508468Y-11879031D02*
X15498944Y-11850460D01*
X15498944Y-11850460D02*
X15489420Y-11802841D01*
X15489420Y-11802841D02*
X15489420Y-11764746D01*
X15489420Y-11764746D02*
X15498944Y-11717127D01*
X15498944Y-11717127D02*
X15508468Y-11688555D01*
X15508468Y-11688555D02*
X15517991Y-11669508D01*
X15517991Y-11669508D02*
X15537039Y-11640936D01*
X15537039Y-11640936D02*
X15546563Y-11631412D01*
X15727515Y-11859984D02*
X15613229Y-11859984D01*
X15670372Y-11859984D02*
X15670372Y-11659984D01*
X15670372Y-11659984D02*
X15651325Y-11688555D01*
X15651325Y-11688555D02*
X15632277Y-11707603D01*
X15632277Y-11707603D02*
X15613229Y-11717127D01*
X15908468Y-11659984D02*
X15813229Y-11659984D01*
X15813229Y-11659984D02*
X15803706Y-11755222D01*
X15803706Y-11755222D02*
X15813229Y-11745698D01*
X15813229Y-11745698D02*
X15832277Y-11736174D01*
X15832277Y-11736174D02*
X15879896Y-11736174D01*
X15879896Y-11736174D02*
X15898944Y-11745698D01*
X15898944Y-11745698D02*
X15908468Y-11755222D01*
X15908468Y-11755222D02*
X15917991Y-11774269D01*
X15917991Y-11774269D02*
X15917991Y-11821888D01*
X15917991Y-11821888D02*
X15908468Y-11840936D01*
X15908468Y-11840936D02*
X15898944Y-11850460D01*
X15898944Y-11850460D02*
X15879896Y-11859984D01*
X15879896Y-11859984D02*
X15832277Y-11859984D01*
X15832277Y-11859984D02*
X15813229Y-11850460D01*
X15813229Y-11850460D02*
X15803706Y-11840936D01*
X16156087Y-11859984D02*
X16156087Y-11659984D01*
X16241801Y-11859984D02*
X16241801Y-11755222D01*
X16241801Y-11755222D02*
X16232277Y-11736174D01*
X16232277Y-11736174D02*
X16213230Y-11726650D01*
X16213230Y-11726650D02*
X16184658Y-11726650D01*
X16184658Y-11726650D02*
X16165610Y-11736174D01*
X16165610Y-11736174D02*
X16156087Y-11745698D01*
X16365610Y-11859984D02*
X16346563Y-11850460D01*
X16346563Y-11850460D02*
X16337039Y-11840936D01*
X16337039Y-11840936D02*
X16327515Y-11821888D01*
X16327515Y-11821888D02*
X16327515Y-11764746D01*
X16327515Y-11764746D02*
X16337039Y-11745698D01*
X16337039Y-11745698D02*
X16346563Y-11736174D01*
X16346563Y-11736174D02*
X16365610Y-11726650D01*
X16365610Y-11726650D02*
X16394182Y-11726650D01*
X16394182Y-11726650D02*
X16413230Y-11736174D01*
X16413230Y-11736174D02*
X16422753Y-11745698D01*
X16422753Y-11745698D02*
X16432277Y-11764746D01*
X16432277Y-11764746D02*
X16432277Y-11821888D01*
X16432277Y-11821888D02*
X16422753Y-11840936D01*
X16422753Y-11840936D02*
X16413230Y-11850460D01*
X16413230Y-11850460D02*
X16394182Y-11859984D01*
X16394182Y-11859984D02*
X16365610Y-11859984D01*
X16546563Y-11859984D02*
X16527515Y-11850460D01*
X16527515Y-11850460D02*
X16517991Y-11831412D01*
X16517991Y-11831412D02*
X16517991Y-11659984D01*
X16698944Y-11850460D02*
X16679896Y-11859984D01*
X16679896Y-11859984D02*
X16641801Y-11859984D01*
X16641801Y-11859984D02*
X16622753Y-11850460D01*
X16622753Y-11850460D02*
X16613230Y-11831412D01*
X16613230Y-11831412D02*
X16613230Y-11755222D01*
X16613230Y-11755222D02*
X16622753Y-11736174D01*
X16622753Y-11736174D02*
X16641801Y-11726650D01*
X16641801Y-11726650D02*
X16679896Y-11726650D01*
X16679896Y-11726650D02*
X16698944Y-11736174D01*
X16698944Y-11736174D02*
X16708468Y-11755222D01*
X16708468Y-11755222D02*
X16708468Y-11774269D01*
X16708468Y-11774269D02*
X16613230Y-11793317D01*
X16784658Y-11850460D02*
X16803706Y-11859984D01*
X16803706Y-11859984D02*
X16841801Y-11859984D01*
X16841801Y-11859984D02*
X16860849Y-11850460D01*
X16860849Y-11850460D02*
X16870373Y-11831412D01*
X16870373Y-11831412D02*
X16870373Y-11821888D01*
X16870373Y-11821888D02*
X16860849Y-11802841D01*
X16860849Y-11802841D02*
X16841801Y-11793317D01*
X16841801Y-11793317D02*
X16813230Y-11793317D01*
X16813230Y-11793317D02*
X16794182Y-11783793D01*
X16794182Y-11783793D02*
X16784658Y-11764746D01*
X16784658Y-11764746D02*
X16784658Y-11755222D01*
X16784658Y-11755222D02*
X16794182Y-11736174D01*
X16794182Y-11736174D02*
X16813230Y-11726650D01*
X16813230Y-11726650D02*
X16841801Y-11726650D01*
X16841801Y-11726650D02*
X16860849Y-11736174D01*
X16937039Y-11936174D02*
X16946563Y-11926650D01*
X16946563Y-11926650D02*
X16965611Y-11898079D01*
X16965611Y-11898079D02*
X16975134Y-11879031D01*
X16975134Y-11879031D02*
X16984658Y-11850460D01*
X16984658Y-11850460D02*
X16994182Y-11802841D01*
X16994182Y-11802841D02*
X16994182Y-11764746D01*
X16994182Y-11764746D02*
X16984658Y-11717127D01*
X16984658Y-11717127D02*
X16975134Y-11688555D01*
X16975134Y-11688555D02*
X16965611Y-11669508D01*
X16965611Y-11669508D02*
X16946563Y-11640936D01*
X16946563Y-11640936D02*
X16937039Y-11631412D01*
D12*
X11971500Y-12032500D02*
G75*
G02*
X11911500Y-12032500I-30000J0D01*
G01*
X11911500Y-12032500D02*
G75*
G02*
X11971500Y-12032500I30000J0D01*
G01*
D11*
X12270372Y-11923984D02*
X12289420Y-11923984D01*
X12289420Y-11923984D02*
X12308467Y-11933508D01*
X12308467Y-11933508D02*
X12317991Y-11943031D01*
X12317991Y-11943031D02*
X12327515Y-11962079D01*
X12327515Y-11962079D02*
X12337039Y-12000174D01*
X12337039Y-12000174D02*
X12337039Y-12047793D01*
X12337039Y-12047793D02*
X12327515Y-12085888D01*
X12327515Y-12085888D02*
X12317991Y-12104936D01*
X12317991Y-12104936D02*
X12308467Y-12114460D01*
X12308467Y-12114460D02*
X12289420Y-12123984D01*
X12289420Y-12123984D02*
X12270372Y-12123984D01*
X12270372Y-12123984D02*
X12251324Y-12114460D01*
X12251324Y-12114460D02*
X12241801Y-12104936D01*
X12241801Y-12104936D02*
X12232277Y-12085888D01*
X12232277Y-12085888D02*
X12222753Y-12047793D01*
X12222753Y-12047793D02*
X12222753Y-12000174D01*
X12222753Y-12000174D02*
X12232277Y-11962079D01*
X12232277Y-11962079D02*
X12241801Y-11943031D01*
X12241801Y-11943031D02*
X12251324Y-11933508D01*
X12251324Y-11933508D02*
X12270372Y-11923984D01*
X12422753Y-12104936D02*
X12432277Y-12114460D01*
X12432277Y-12114460D02*
X12422753Y-12123984D01*
X12422753Y-12123984D02*
X12413229Y-12114460D01*
X12413229Y-12114460D02*
X12422753Y-12104936D01*
X12422753Y-12104936D02*
X12422753Y-12123984D01*
X12603705Y-11923984D02*
X12565610Y-11923984D01*
X12565610Y-11923984D02*
X12546562Y-11933508D01*
X12546562Y-11933508D02*
X12537039Y-11943031D01*
X12537039Y-11943031D02*
X12517991Y-11971603D01*
X12517991Y-11971603D02*
X12508467Y-12009698D01*
X12508467Y-12009698D02*
X12508467Y-12085888D01*
X12508467Y-12085888D02*
X12517991Y-12104936D01*
X12517991Y-12104936D02*
X12527515Y-12114460D01*
X12527515Y-12114460D02*
X12546562Y-12123984D01*
X12546562Y-12123984D02*
X12584658Y-12123984D01*
X12584658Y-12123984D02*
X12603705Y-12114460D01*
X12603705Y-12114460D02*
X12613229Y-12104936D01*
X12613229Y-12104936D02*
X12622753Y-12085888D01*
X12622753Y-12085888D02*
X12622753Y-12038269D01*
X12622753Y-12038269D02*
X12613229Y-12019222D01*
X12613229Y-12019222D02*
X12603705Y-12009698D01*
X12603705Y-12009698D02*
X12584658Y-12000174D01*
X12584658Y-12000174D02*
X12546562Y-12000174D01*
X12546562Y-12000174D02*
X12527515Y-12009698D01*
X12527515Y-12009698D02*
X12517991Y-12019222D01*
X12517991Y-12019222D02*
X12508467Y-12038269D01*
X12746562Y-11923984D02*
X12765610Y-11923984D01*
X12765610Y-11923984D02*
X12784658Y-11933508D01*
X12784658Y-11933508D02*
X12794182Y-11943031D01*
X12794182Y-11943031D02*
X12803705Y-11962079D01*
X12803705Y-11962079D02*
X12813229Y-12000174D01*
X12813229Y-12000174D02*
X12813229Y-12047793D01*
X12813229Y-12047793D02*
X12803705Y-12085888D01*
X12803705Y-12085888D02*
X12794182Y-12104936D01*
X12794182Y-12104936D02*
X12784658Y-12114460D01*
X12784658Y-12114460D02*
X12765610Y-12123984D01*
X12765610Y-12123984D02*
X12746562Y-12123984D01*
X12746562Y-12123984D02*
X12727515Y-12114460D01*
X12727515Y-12114460D02*
X12717991Y-12104936D01*
X12717991Y-12104936D02*
X12708467Y-12085888D01*
X12708467Y-12085888D02*
X12698943Y-12047793D01*
X12698943Y-12047793D02*
X12698943Y-12000174D01*
X12698943Y-12000174D02*
X12708467Y-11962079D01*
X12708467Y-11962079D02*
X12717991Y-11943031D01*
X12717991Y-11943031D02*
X12727515Y-11933508D01*
X12727515Y-11933508D02*
X12746562Y-11923984D01*
X12937039Y-11923984D02*
X12956086Y-11923984D01*
X12956086Y-11923984D02*
X12975134Y-11933508D01*
X12975134Y-11933508D02*
X12984658Y-11943031D01*
X12984658Y-11943031D02*
X12994182Y-11962079D01*
X12994182Y-11962079D02*
X13003705Y-12000174D01*
X13003705Y-12000174D02*
X13003705Y-12047793D01*
X13003705Y-12047793D02*
X12994182Y-12085888D01*
X12994182Y-12085888D02*
X12984658Y-12104936D01*
X12984658Y-12104936D02*
X12975134Y-12114460D01*
X12975134Y-12114460D02*
X12956086Y-12123984D01*
X12956086Y-12123984D02*
X12937039Y-12123984D01*
X12937039Y-12123984D02*
X12917991Y-12114460D01*
X12917991Y-12114460D02*
X12908467Y-12104936D01*
X12908467Y-12104936D02*
X12898943Y-12085888D01*
X12898943Y-12085888D02*
X12889420Y-12047793D01*
X12889420Y-12047793D02*
X12889420Y-12000174D01*
X12889420Y-12000174D02*
X12898943Y-11962079D01*
X12898943Y-11962079D02*
X12908467Y-11943031D01*
X12908467Y-11943031D02*
X12917991Y-11933508D01*
X12917991Y-11933508D02*
X12937039Y-11923984D01*
X13089420Y-12123984D02*
X13089420Y-11990650D01*
X13089420Y-12009698D02*
X13098943Y-12000174D01*
X13098943Y-12000174D02*
X13117991Y-11990650D01*
X13117991Y-11990650D02*
X13146563Y-11990650D01*
X13146563Y-11990650D02*
X13165610Y-12000174D01*
X13165610Y-12000174D02*
X13175134Y-12019222D01*
X13175134Y-12019222D02*
X13175134Y-12123984D01*
X13175134Y-12019222D02*
X13184658Y-12000174D01*
X13184658Y-12000174D02*
X13203705Y-11990650D01*
X13203705Y-11990650D02*
X13232277Y-11990650D01*
X13232277Y-11990650D02*
X13251324Y-12000174D01*
X13251324Y-12000174D02*
X13260848Y-12019222D01*
X13260848Y-12019222D02*
X13260848Y-12123984D01*
X13356086Y-12123984D02*
X13356086Y-11990650D01*
X13356086Y-12009698D02*
X13365610Y-12000174D01*
X13365610Y-12000174D02*
X13384658Y-11990650D01*
X13384658Y-11990650D02*
X13413229Y-11990650D01*
X13413229Y-11990650D02*
X13432277Y-12000174D01*
X13432277Y-12000174D02*
X13441801Y-12019222D01*
X13441801Y-12019222D02*
X13441801Y-12123984D01*
X13441801Y-12019222D02*
X13451324Y-12000174D01*
X13451324Y-12000174D02*
X13470372Y-11990650D01*
X13470372Y-11990650D02*
X13498943Y-11990650D01*
X13498943Y-11990650D02*
X13517991Y-12000174D01*
X13517991Y-12000174D02*
X13527515Y-12019222D01*
X13527515Y-12019222D02*
X13527515Y-12123984D01*
X13917991Y-11914460D02*
X13746563Y-12171603D01*
X14175134Y-11923984D02*
X14194182Y-11923984D01*
X14194182Y-11923984D02*
X14213229Y-11933508D01*
X14213229Y-11933508D02*
X14222753Y-11943031D01*
X14222753Y-11943031D02*
X14232277Y-11962079D01*
X14232277Y-11962079D02*
X14241801Y-12000174D01*
X14241801Y-12000174D02*
X14241801Y-12047793D01*
X14241801Y-12047793D02*
X14232277Y-12085888D01*
X14232277Y-12085888D02*
X14222753Y-12104936D01*
X14222753Y-12104936D02*
X14213229Y-12114460D01*
X14213229Y-12114460D02*
X14194182Y-12123984D01*
X14194182Y-12123984D02*
X14175134Y-12123984D01*
X14175134Y-12123984D02*
X14156086Y-12114460D01*
X14156086Y-12114460D02*
X14146563Y-12104936D01*
X14146563Y-12104936D02*
X14137039Y-12085888D01*
X14137039Y-12085888D02*
X14127515Y-12047793D01*
X14127515Y-12047793D02*
X14127515Y-12000174D01*
X14127515Y-12000174D02*
X14137039Y-11962079D01*
X14137039Y-11962079D02*
X14146563Y-11943031D01*
X14146563Y-11943031D02*
X14156086Y-11933508D01*
X14156086Y-11933508D02*
X14175134Y-11923984D01*
X14327515Y-12104936D02*
X14337039Y-12114460D01*
X14337039Y-12114460D02*
X14327515Y-12123984D01*
X14327515Y-12123984D02*
X14317991Y-12114460D01*
X14317991Y-12114460D02*
X14327515Y-12104936D01*
X14327515Y-12104936D02*
X14327515Y-12123984D01*
X14460848Y-11923984D02*
X14479896Y-11923984D01*
X14479896Y-11923984D02*
X14498944Y-11933508D01*
X14498944Y-11933508D02*
X14508467Y-11943031D01*
X14508467Y-11943031D02*
X14517991Y-11962079D01*
X14517991Y-11962079D02*
X14527515Y-12000174D01*
X14527515Y-12000174D02*
X14527515Y-12047793D01*
X14527515Y-12047793D02*
X14517991Y-12085888D01*
X14517991Y-12085888D02*
X14508467Y-12104936D01*
X14508467Y-12104936D02*
X14498944Y-12114460D01*
X14498944Y-12114460D02*
X14479896Y-12123984D01*
X14479896Y-12123984D02*
X14460848Y-12123984D01*
X14460848Y-12123984D02*
X14441801Y-12114460D01*
X14441801Y-12114460D02*
X14432277Y-12104936D01*
X14432277Y-12104936D02*
X14422753Y-12085888D01*
X14422753Y-12085888D02*
X14413229Y-12047793D01*
X14413229Y-12047793D02*
X14413229Y-12000174D01*
X14413229Y-12000174D02*
X14422753Y-11962079D01*
X14422753Y-11962079D02*
X14432277Y-11943031D01*
X14432277Y-11943031D02*
X14441801Y-11933508D01*
X14441801Y-11933508D02*
X14460848Y-11923984D01*
X14603706Y-11943031D02*
X14613229Y-11933508D01*
X14613229Y-11933508D02*
X14632277Y-11923984D01*
X14632277Y-11923984D02*
X14679896Y-11923984D01*
X14679896Y-11923984D02*
X14698944Y-11933508D01*
X14698944Y-11933508D02*
X14708467Y-11943031D01*
X14708467Y-11943031D02*
X14717991Y-11962079D01*
X14717991Y-11962079D02*
X14717991Y-11981127D01*
X14717991Y-11981127D02*
X14708467Y-12009698D01*
X14708467Y-12009698D02*
X14594182Y-12123984D01*
X14594182Y-12123984D02*
X14717991Y-12123984D01*
X14784658Y-11923984D02*
X14908467Y-11923984D01*
X14908467Y-11923984D02*
X14841801Y-12000174D01*
X14841801Y-12000174D02*
X14870372Y-12000174D01*
X14870372Y-12000174D02*
X14889420Y-12009698D01*
X14889420Y-12009698D02*
X14898944Y-12019222D01*
X14898944Y-12019222D02*
X14908467Y-12038269D01*
X14908467Y-12038269D02*
X14908467Y-12085888D01*
X14908467Y-12085888D02*
X14898944Y-12104936D01*
X14898944Y-12104936D02*
X14889420Y-12114460D01*
X14889420Y-12114460D02*
X14870372Y-12123984D01*
X14870372Y-12123984D02*
X14813229Y-12123984D01*
X14813229Y-12123984D02*
X14794182Y-12114460D01*
X14794182Y-12114460D02*
X14784658Y-12104936D01*
X15079896Y-11923984D02*
X15041801Y-11923984D01*
X15041801Y-11923984D02*
X15022753Y-11933508D01*
X15022753Y-11933508D02*
X15013229Y-11943031D01*
X15013229Y-11943031D02*
X14994182Y-11971603D01*
X14994182Y-11971603D02*
X14984658Y-12009698D01*
X14984658Y-12009698D02*
X14984658Y-12085888D01*
X14984658Y-12085888D02*
X14994182Y-12104936D01*
X14994182Y-12104936D02*
X15003706Y-12114460D01*
X15003706Y-12114460D02*
X15022753Y-12123984D01*
X15022753Y-12123984D02*
X15060848Y-12123984D01*
X15060848Y-12123984D02*
X15079896Y-12114460D01*
X15079896Y-12114460D02*
X15089420Y-12104936D01*
X15089420Y-12104936D02*
X15098944Y-12085888D01*
X15098944Y-12085888D02*
X15098944Y-12038269D01*
X15098944Y-12038269D02*
X15089420Y-12019222D01*
X15089420Y-12019222D02*
X15079896Y-12009698D01*
X15079896Y-12009698D02*
X15060848Y-12000174D01*
X15060848Y-12000174D02*
X15022753Y-12000174D01*
X15022753Y-12000174D02*
X15003706Y-12009698D01*
X15003706Y-12009698D02*
X14994182Y-12019222D01*
X14994182Y-12019222D02*
X14984658Y-12038269D01*
X15175134Y-11923984D02*
X15175134Y-11962079D01*
X15251325Y-11923984D02*
X15251325Y-11962079D01*
X15546563Y-12200174D02*
X15537039Y-12190650D01*
X15537039Y-12190650D02*
X15517991Y-12162079D01*
X15517991Y-12162079D02*
X15508468Y-12143031D01*
X15508468Y-12143031D02*
X15498944Y-12114460D01*
X15498944Y-12114460D02*
X15489420Y-12066841D01*
X15489420Y-12066841D02*
X15489420Y-12028746D01*
X15489420Y-12028746D02*
X15498944Y-11981127D01*
X15498944Y-11981127D02*
X15508468Y-11952555D01*
X15508468Y-11952555D02*
X15517991Y-11933508D01*
X15517991Y-11933508D02*
X15537039Y-11904936D01*
X15537039Y-11904936D02*
X15546563Y-11895412D01*
X15660848Y-11923984D02*
X15679896Y-11923984D01*
X15679896Y-11923984D02*
X15698944Y-11933508D01*
X15698944Y-11933508D02*
X15708468Y-11943031D01*
X15708468Y-11943031D02*
X15717991Y-11962079D01*
X15717991Y-11962079D02*
X15727515Y-12000174D01*
X15727515Y-12000174D02*
X15727515Y-12047793D01*
X15727515Y-12047793D02*
X15717991Y-12085888D01*
X15717991Y-12085888D02*
X15708468Y-12104936D01*
X15708468Y-12104936D02*
X15698944Y-12114460D01*
X15698944Y-12114460D02*
X15679896Y-12123984D01*
X15679896Y-12123984D02*
X15660848Y-12123984D01*
X15660848Y-12123984D02*
X15641801Y-12114460D01*
X15641801Y-12114460D02*
X15632277Y-12104936D01*
X15632277Y-12104936D02*
X15622753Y-12085888D01*
X15622753Y-12085888D02*
X15613229Y-12047793D01*
X15613229Y-12047793D02*
X15613229Y-12000174D01*
X15613229Y-12000174D02*
X15622753Y-11962079D01*
X15622753Y-11962079D02*
X15632277Y-11943031D01*
X15632277Y-11943031D02*
X15641801Y-11933508D01*
X15641801Y-11933508D02*
X15660848Y-11923984D01*
X15965610Y-12123984D02*
X15965610Y-11923984D01*
X16051325Y-12123984D02*
X16051325Y-12019222D01*
X16051325Y-12019222D02*
X16041801Y-12000174D01*
X16041801Y-12000174D02*
X16022753Y-11990650D01*
X16022753Y-11990650D02*
X15994182Y-11990650D01*
X15994182Y-11990650D02*
X15975134Y-12000174D01*
X15975134Y-12000174D02*
X15965610Y-12009698D01*
X16175134Y-12123984D02*
X16156087Y-12114460D01*
X16156087Y-12114460D02*
X16146563Y-12104936D01*
X16146563Y-12104936D02*
X16137039Y-12085888D01*
X16137039Y-12085888D02*
X16137039Y-12028746D01*
X16137039Y-12028746D02*
X16146563Y-12009698D01*
X16146563Y-12009698D02*
X16156087Y-12000174D01*
X16156087Y-12000174D02*
X16175134Y-11990650D01*
X16175134Y-11990650D02*
X16203706Y-11990650D01*
X16203706Y-11990650D02*
X16222753Y-12000174D01*
X16222753Y-12000174D02*
X16232277Y-12009698D01*
X16232277Y-12009698D02*
X16241801Y-12028746D01*
X16241801Y-12028746D02*
X16241801Y-12085888D01*
X16241801Y-12085888D02*
X16232277Y-12104936D01*
X16232277Y-12104936D02*
X16222753Y-12114460D01*
X16222753Y-12114460D02*
X16203706Y-12123984D01*
X16203706Y-12123984D02*
X16175134Y-12123984D01*
X16356087Y-12123984D02*
X16337039Y-12114460D01*
X16337039Y-12114460D02*
X16327515Y-12095412D01*
X16327515Y-12095412D02*
X16327515Y-11923984D01*
X16508468Y-12114460D02*
X16489420Y-12123984D01*
X16489420Y-12123984D02*
X16451325Y-12123984D01*
X16451325Y-12123984D02*
X16432277Y-12114460D01*
X16432277Y-12114460D02*
X16422753Y-12095412D01*
X16422753Y-12095412D02*
X16422753Y-12019222D01*
X16422753Y-12019222D02*
X16432277Y-12000174D01*
X16432277Y-12000174D02*
X16451325Y-11990650D01*
X16451325Y-11990650D02*
X16489420Y-11990650D01*
X16489420Y-11990650D02*
X16508468Y-12000174D01*
X16508468Y-12000174D02*
X16517991Y-12019222D01*
X16517991Y-12019222D02*
X16517991Y-12038269D01*
X16517991Y-12038269D02*
X16422753Y-12057317D01*
X16594182Y-12114460D02*
X16613230Y-12123984D01*
X16613230Y-12123984D02*
X16651325Y-12123984D01*
X16651325Y-12123984D02*
X16670372Y-12114460D01*
X16670372Y-12114460D02*
X16679896Y-12095412D01*
X16679896Y-12095412D02*
X16679896Y-12085888D01*
X16679896Y-12085888D02*
X16670372Y-12066841D01*
X16670372Y-12066841D02*
X16651325Y-12057317D01*
X16651325Y-12057317D02*
X16622753Y-12057317D01*
X16622753Y-12057317D02*
X16603706Y-12047793D01*
X16603706Y-12047793D02*
X16594182Y-12028746D01*
X16594182Y-12028746D02*
X16594182Y-12019222D01*
X16594182Y-12019222D02*
X16603706Y-12000174D01*
X16603706Y-12000174D02*
X16622753Y-11990650D01*
X16622753Y-11990650D02*
X16651325Y-11990650D01*
X16651325Y-11990650D02*
X16670372Y-12000174D01*
X16917992Y-12047793D02*
X17070373Y-12047793D01*
X16994182Y-12123984D02*
X16994182Y-11971603D01*
X17403706Y-11990650D02*
X17403706Y-12123984D01*
X17356087Y-11914460D02*
X17308468Y-12057317D01*
X17308468Y-12057317D02*
X17432277Y-12057317D01*
X17651325Y-12114460D02*
X17670373Y-12123984D01*
X17670373Y-12123984D02*
X17708468Y-12123984D01*
X17708468Y-12123984D02*
X17727516Y-12114460D01*
X17727516Y-12114460D02*
X17737039Y-12095412D01*
X17737039Y-12095412D02*
X17737039Y-12085888D01*
X17737039Y-12085888D02*
X17727516Y-12066841D01*
X17727516Y-12066841D02*
X17708468Y-12057317D01*
X17708468Y-12057317D02*
X17679896Y-12057317D01*
X17679896Y-12057317D02*
X17660849Y-12047793D01*
X17660849Y-12047793D02*
X17651325Y-12028746D01*
X17651325Y-12028746D02*
X17651325Y-12019222D01*
X17651325Y-12019222D02*
X17660849Y-12000174D01*
X17660849Y-12000174D02*
X17679896Y-11990650D01*
X17679896Y-11990650D02*
X17708468Y-11990650D01*
X17708468Y-11990650D02*
X17727516Y-12000174D01*
X17851325Y-12123984D02*
X17832277Y-12114460D01*
X17832277Y-12114460D02*
X17822754Y-12095412D01*
X17822754Y-12095412D02*
X17822754Y-11923984D01*
X17956087Y-12123984D02*
X17937039Y-12114460D01*
X17937039Y-12114460D02*
X17927516Y-12104936D01*
X17927516Y-12104936D02*
X17917992Y-12085888D01*
X17917992Y-12085888D02*
X17917992Y-12028746D01*
X17917992Y-12028746D02*
X17927516Y-12009698D01*
X17927516Y-12009698D02*
X17937039Y-12000174D01*
X17937039Y-12000174D02*
X17956087Y-11990650D01*
X17956087Y-11990650D02*
X17984658Y-11990650D01*
X17984658Y-11990650D02*
X18003706Y-12000174D01*
X18003706Y-12000174D02*
X18013230Y-12009698D01*
X18013230Y-12009698D02*
X18022754Y-12028746D01*
X18022754Y-12028746D02*
X18022754Y-12085888D01*
X18022754Y-12085888D02*
X18013230Y-12104936D01*
X18013230Y-12104936D02*
X18003706Y-12114460D01*
X18003706Y-12114460D02*
X17984658Y-12123984D01*
X17984658Y-12123984D02*
X17956087Y-12123984D01*
X18079897Y-11990650D02*
X18156087Y-11990650D01*
X18108468Y-11923984D02*
X18108468Y-12095412D01*
X18108468Y-12095412D02*
X18117992Y-12114460D01*
X18117992Y-12114460D02*
X18137039Y-12123984D01*
X18137039Y-12123984D02*
X18156087Y-12123984D01*
X18213230Y-12114460D02*
X18232277Y-12123984D01*
X18232277Y-12123984D02*
X18270373Y-12123984D01*
X18270373Y-12123984D02*
X18289420Y-12114460D01*
X18289420Y-12114460D02*
X18298944Y-12095412D01*
X18298944Y-12095412D02*
X18298944Y-12085888D01*
X18298944Y-12085888D02*
X18289420Y-12066841D01*
X18289420Y-12066841D02*
X18270373Y-12057317D01*
X18270373Y-12057317D02*
X18241801Y-12057317D01*
X18241801Y-12057317D02*
X18222754Y-12047793D01*
X18222754Y-12047793D02*
X18213230Y-12028746D01*
X18213230Y-12028746D02*
X18213230Y-12019222D01*
X18213230Y-12019222D02*
X18222754Y-12000174D01*
X18222754Y-12000174D02*
X18241801Y-11990650D01*
X18241801Y-11990650D02*
X18270373Y-11990650D01*
X18270373Y-11990650D02*
X18289420Y-12000174D01*
X18365611Y-12200174D02*
X18375135Y-12190650D01*
X18375135Y-12190650D02*
X18394182Y-12162079D01*
X18394182Y-12162079D02*
X18403706Y-12143031D01*
X18403706Y-12143031D02*
X18413230Y-12114460D01*
X18413230Y-12114460D02*
X18422754Y-12066841D01*
X18422754Y-12066841D02*
X18422754Y-12028746D01*
X18422754Y-12028746D02*
X18413230Y-11981127D01*
X18413230Y-11981127D02*
X18403706Y-11952555D01*
X18403706Y-11952555D02*
X18394182Y-11933508D01*
X18394182Y-11933508D02*
X18375135Y-11904936D01*
X18375135Y-11904936D02*
X18365611Y-11895412D01*
D12*
X11921500Y-12246500D02*
X11921500Y-12346500D01*
X11871500Y-12296500D02*
X11971500Y-12296500D01*
D11*
X12337039Y-12387984D02*
X12222753Y-12387984D01*
X12279896Y-12387984D02*
X12279896Y-12187984D01*
X12279896Y-12187984D02*
X12260848Y-12216555D01*
X12260848Y-12216555D02*
X12241801Y-12235603D01*
X12241801Y-12235603D02*
X12222753Y-12245127D01*
X12422753Y-12368936D02*
X12432277Y-12378460D01*
X12432277Y-12378460D02*
X12422753Y-12387984D01*
X12422753Y-12387984D02*
X12413229Y-12378460D01*
X12413229Y-12378460D02*
X12422753Y-12368936D01*
X12422753Y-12368936D02*
X12422753Y-12387984D01*
X12556086Y-12187984D02*
X12575134Y-12187984D01*
X12575134Y-12187984D02*
X12594182Y-12197508D01*
X12594182Y-12197508D02*
X12603705Y-12207031D01*
X12603705Y-12207031D02*
X12613229Y-12226079D01*
X12613229Y-12226079D02*
X12622753Y-12264174D01*
X12622753Y-12264174D02*
X12622753Y-12311793D01*
X12622753Y-12311793D02*
X12613229Y-12349888D01*
X12613229Y-12349888D02*
X12603705Y-12368936D01*
X12603705Y-12368936D02*
X12594182Y-12378460D01*
X12594182Y-12378460D02*
X12575134Y-12387984D01*
X12575134Y-12387984D02*
X12556086Y-12387984D01*
X12556086Y-12387984D02*
X12537039Y-12378460D01*
X12537039Y-12378460D02*
X12527515Y-12368936D01*
X12527515Y-12368936D02*
X12517991Y-12349888D01*
X12517991Y-12349888D02*
X12508467Y-12311793D01*
X12508467Y-12311793D02*
X12508467Y-12264174D01*
X12508467Y-12264174D02*
X12517991Y-12226079D01*
X12517991Y-12226079D02*
X12527515Y-12207031D01*
X12527515Y-12207031D02*
X12537039Y-12197508D01*
X12537039Y-12197508D02*
X12556086Y-12187984D01*
X12746562Y-12187984D02*
X12765610Y-12187984D01*
X12765610Y-12187984D02*
X12784658Y-12197508D01*
X12784658Y-12197508D02*
X12794182Y-12207031D01*
X12794182Y-12207031D02*
X12803705Y-12226079D01*
X12803705Y-12226079D02*
X12813229Y-12264174D01*
X12813229Y-12264174D02*
X12813229Y-12311793D01*
X12813229Y-12311793D02*
X12803705Y-12349888D01*
X12803705Y-12349888D02*
X12794182Y-12368936D01*
X12794182Y-12368936D02*
X12784658Y-12378460D01*
X12784658Y-12378460D02*
X12765610Y-12387984D01*
X12765610Y-12387984D02*
X12746562Y-12387984D01*
X12746562Y-12387984D02*
X12727515Y-12378460D01*
X12727515Y-12378460D02*
X12717991Y-12368936D01*
X12717991Y-12368936D02*
X12708467Y-12349888D01*
X12708467Y-12349888D02*
X12698943Y-12311793D01*
X12698943Y-12311793D02*
X12698943Y-12264174D01*
X12698943Y-12264174D02*
X12708467Y-12226079D01*
X12708467Y-12226079D02*
X12717991Y-12207031D01*
X12717991Y-12207031D02*
X12727515Y-12197508D01*
X12727515Y-12197508D02*
X12746562Y-12187984D01*
X12937039Y-12187984D02*
X12956086Y-12187984D01*
X12956086Y-12187984D02*
X12975134Y-12197508D01*
X12975134Y-12197508D02*
X12984658Y-12207031D01*
X12984658Y-12207031D02*
X12994182Y-12226079D01*
X12994182Y-12226079D02*
X13003705Y-12264174D01*
X13003705Y-12264174D02*
X13003705Y-12311793D01*
X13003705Y-12311793D02*
X12994182Y-12349888D01*
X12994182Y-12349888D02*
X12984658Y-12368936D01*
X12984658Y-12368936D02*
X12975134Y-12378460D01*
X12975134Y-12378460D02*
X12956086Y-12387984D01*
X12956086Y-12387984D02*
X12937039Y-12387984D01*
X12937039Y-12387984D02*
X12917991Y-12378460D01*
X12917991Y-12378460D02*
X12908467Y-12368936D01*
X12908467Y-12368936D02*
X12898943Y-12349888D01*
X12898943Y-12349888D02*
X12889420Y-12311793D01*
X12889420Y-12311793D02*
X12889420Y-12264174D01*
X12889420Y-12264174D02*
X12898943Y-12226079D01*
X12898943Y-12226079D02*
X12908467Y-12207031D01*
X12908467Y-12207031D02*
X12917991Y-12197508D01*
X12917991Y-12197508D02*
X12937039Y-12187984D01*
X13089420Y-12387984D02*
X13089420Y-12254650D01*
X13089420Y-12273698D02*
X13098943Y-12264174D01*
X13098943Y-12264174D02*
X13117991Y-12254650D01*
X13117991Y-12254650D02*
X13146563Y-12254650D01*
X13146563Y-12254650D02*
X13165610Y-12264174D01*
X13165610Y-12264174D02*
X13175134Y-12283222D01*
X13175134Y-12283222D02*
X13175134Y-12387984D01*
X13175134Y-12283222D02*
X13184658Y-12264174D01*
X13184658Y-12264174D02*
X13203705Y-12254650D01*
X13203705Y-12254650D02*
X13232277Y-12254650D01*
X13232277Y-12254650D02*
X13251324Y-12264174D01*
X13251324Y-12264174D02*
X13260848Y-12283222D01*
X13260848Y-12283222D02*
X13260848Y-12387984D01*
X13356086Y-12387984D02*
X13356086Y-12254650D01*
X13356086Y-12273698D02*
X13365610Y-12264174D01*
X13365610Y-12264174D02*
X13384658Y-12254650D01*
X13384658Y-12254650D02*
X13413229Y-12254650D01*
X13413229Y-12254650D02*
X13432277Y-12264174D01*
X13432277Y-12264174D02*
X13441801Y-12283222D01*
X13441801Y-12283222D02*
X13441801Y-12387984D01*
X13441801Y-12283222D02*
X13451324Y-12264174D01*
X13451324Y-12264174D02*
X13470372Y-12254650D01*
X13470372Y-12254650D02*
X13498943Y-12254650D01*
X13498943Y-12254650D02*
X13517991Y-12264174D01*
X13517991Y-12264174D02*
X13527515Y-12283222D01*
X13527515Y-12283222D02*
X13527515Y-12387984D01*
X13917991Y-12178460D02*
X13746563Y-12435603D01*
X14175134Y-12187984D02*
X14194182Y-12187984D01*
X14194182Y-12187984D02*
X14213229Y-12197508D01*
X14213229Y-12197508D02*
X14222753Y-12207031D01*
X14222753Y-12207031D02*
X14232277Y-12226079D01*
X14232277Y-12226079D02*
X14241801Y-12264174D01*
X14241801Y-12264174D02*
X14241801Y-12311793D01*
X14241801Y-12311793D02*
X14232277Y-12349888D01*
X14232277Y-12349888D02*
X14222753Y-12368936D01*
X14222753Y-12368936D02*
X14213229Y-12378460D01*
X14213229Y-12378460D02*
X14194182Y-12387984D01*
X14194182Y-12387984D02*
X14175134Y-12387984D01*
X14175134Y-12387984D02*
X14156086Y-12378460D01*
X14156086Y-12378460D02*
X14146563Y-12368936D01*
X14146563Y-12368936D02*
X14137039Y-12349888D01*
X14137039Y-12349888D02*
X14127515Y-12311793D01*
X14127515Y-12311793D02*
X14127515Y-12264174D01*
X14127515Y-12264174D02*
X14137039Y-12226079D01*
X14137039Y-12226079D02*
X14146563Y-12207031D01*
X14146563Y-12207031D02*
X14156086Y-12197508D01*
X14156086Y-12197508D02*
X14175134Y-12187984D01*
X14327515Y-12368936D02*
X14337039Y-12378460D01*
X14337039Y-12378460D02*
X14327515Y-12387984D01*
X14327515Y-12387984D02*
X14317991Y-12378460D01*
X14317991Y-12378460D02*
X14327515Y-12368936D01*
X14327515Y-12368936D02*
X14327515Y-12387984D01*
X14460848Y-12187984D02*
X14479896Y-12187984D01*
X14479896Y-12187984D02*
X14498944Y-12197508D01*
X14498944Y-12197508D02*
X14508467Y-12207031D01*
X14508467Y-12207031D02*
X14517991Y-12226079D01*
X14517991Y-12226079D02*
X14527515Y-12264174D01*
X14527515Y-12264174D02*
X14527515Y-12311793D01*
X14527515Y-12311793D02*
X14517991Y-12349888D01*
X14517991Y-12349888D02*
X14508467Y-12368936D01*
X14508467Y-12368936D02*
X14498944Y-12378460D01*
X14498944Y-12378460D02*
X14479896Y-12387984D01*
X14479896Y-12387984D02*
X14460848Y-12387984D01*
X14460848Y-12387984D02*
X14441801Y-12378460D01*
X14441801Y-12378460D02*
X14432277Y-12368936D01*
X14432277Y-12368936D02*
X14422753Y-12349888D01*
X14422753Y-12349888D02*
X14413229Y-12311793D01*
X14413229Y-12311793D02*
X14413229Y-12264174D01*
X14413229Y-12264174D02*
X14422753Y-12226079D01*
X14422753Y-12226079D02*
X14432277Y-12207031D01*
X14432277Y-12207031D02*
X14441801Y-12197508D01*
X14441801Y-12197508D02*
X14460848Y-12187984D01*
X14594182Y-12187984D02*
X14717991Y-12187984D01*
X14717991Y-12187984D02*
X14651325Y-12264174D01*
X14651325Y-12264174D02*
X14679896Y-12264174D01*
X14679896Y-12264174D02*
X14698944Y-12273698D01*
X14698944Y-12273698D02*
X14708467Y-12283222D01*
X14708467Y-12283222D02*
X14717991Y-12302269D01*
X14717991Y-12302269D02*
X14717991Y-12349888D01*
X14717991Y-12349888D02*
X14708467Y-12368936D01*
X14708467Y-12368936D02*
X14698944Y-12378460D01*
X14698944Y-12378460D02*
X14679896Y-12387984D01*
X14679896Y-12387984D02*
X14622753Y-12387984D01*
X14622753Y-12387984D02*
X14603706Y-12378460D01*
X14603706Y-12378460D02*
X14594182Y-12368936D01*
X14813229Y-12387984D02*
X14851325Y-12387984D01*
X14851325Y-12387984D02*
X14870372Y-12378460D01*
X14870372Y-12378460D02*
X14879896Y-12368936D01*
X14879896Y-12368936D02*
X14898944Y-12340365D01*
X14898944Y-12340365D02*
X14908467Y-12302269D01*
X14908467Y-12302269D02*
X14908467Y-12226079D01*
X14908467Y-12226079D02*
X14898944Y-12207031D01*
X14898944Y-12207031D02*
X14889420Y-12197508D01*
X14889420Y-12197508D02*
X14870372Y-12187984D01*
X14870372Y-12187984D02*
X14832277Y-12187984D01*
X14832277Y-12187984D02*
X14813229Y-12197508D01*
X14813229Y-12197508D02*
X14803706Y-12207031D01*
X14803706Y-12207031D02*
X14794182Y-12226079D01*
X14794182Y-12226079D02*
X14794182Y-12273698D01*
X14794182Y-12273698D02*
X14803706Y-12292746D01*
X14803706Y-12292746D02*
X14813229Y-12302269D01*
X14813229Y-12302269D02*
X14832277Y-12311793D01*
X14832277Y-12311793D02*
X14870372Y-12311793D01*
X14870372Y-12311793D02*
X14889420Y-12302269D01*
X14889420Y-12302269D02*
X14898944Y-12292746D01*
X14898944Y-12292746D02*
X14908467Y-12273698D01*
X15079896Y-12254650D02*
X15079896Y-12387984D01*
X15032277Y-12178460D02*
X14984658Y-12321317D01*
X14984658Y-12321317D02*
X15108467Y-12321317D01*
X15175134Y-12187984D02*
X15175134Y-12226079D01*
X15251325Y-12187984D02*
X15251325Y-12226079D01*
X15546563Y-12464174D02*
X15537039Y-12454650D01*
X15537039Y-12454650D02*
X15517991Y-12426079D01*
X15517991Y-12426079D02*
X15508468Y-12407031D01*
X15508468Y-12407031D02*
X15498944Y-12378460D01*
X15498944Y-12378460D02*
X15489420Y-12330841D01*
X15489420Y-12330841D02*
X15489420Y-12292746D01*
X15489420Y-12292746D02*
X15498944Y-12245127D01*
X15498944Y-12245127D02*
X15508468Y-12216555D01*
X15508468Y-12216555D02*
X15517991Y-12197508D01*
X15517991Y-12197508D02*
X15537039Y-12168936D01*
X15537039Y-12168936D02*
X15546563Y-12159412D01*
X15717991Y-12187984D02*
X15622753Y-12187984D01*
X15622753Y-12187984D02*
X15613229Y-12283222D01*
X15613229Y-12283222D02*
X15622753Y-12273698D01*
X15622753Y-12273698D02*
X15641801Y-12264174D01*
X15641801Y-12264174D02*
X15689420Y-12264174D01*
X15689420Y-12264174D02*
X15708468Y-12273698D01*
X15708468Y-12273698D02*
X15717991Y-12283222D01*
X15717991Y-12283222D02*
X15727515Y-12302269D01*
X15727515Y-12302269D02*
X15727515Y-12349888D01*
X15727515Y-12349888D02*
X15717991Y-12368936D01*
X15717991Y-12368936D02*
X15708468Y-12378460D01*
X15708468Y-12378460D02*
X15689420Y-12387984D01*
X15689420Y-12387984D02*
X15641801Y-12387984D01*
X15641801Y-12387984D02*
X15622753Y-12378460D01*
X15622753Y-12378460D02*
X15613229Y-12368936D01*
X15965610Y-12387984D02*
X15965610Y-12187984D01*
X16051325Y-12387984D02*
X16051325Y-12283222D01*
X16051325Y-12283222D02*
X16041801Y-12264174D01*
X16041801Y-12264174D02*
X16022753Y-12254650D01*
X16022753Y-12254650D02*
X15994182Y-12254650D01*
X15994182Y-12254650D02*
X15975134Y-12264174D01*
X15975134Y-12264174D02*
X15965610Y-12273698D01*
X16175134Y-12387984D02*
X16156087Y-12378460D01*
X16156087Y-12378460D02*
X16146563Y-12368936D01*
X16146563Y-12368936D02*
X16137039Y-12349888D01*
X16137039Y-12349888D02*
X16137039Y-12292746D01*
X16137039Y-12292746D02*
X16146563Y-12273698D01*
X16146563Y-12273698D02*
X16156087Y-12264174D01*
X16156087Y-12264174D02*
X16175134Y-12254650D01*
X16175134Y-12254650D02*
X16203706Y-12254650D01*
X16203706Y-12254650D02*
X16222753Y-12264174D01*
X16222753Y-12264174D02*
X16232277Y-12273698D01*
X16232277Y-12273698D02*
X16241801Y-12292746D01*
X16241801Y-12292746D02*
X16241801Y-12349888D01*
X16241801Y-12349888D02*
X16232277Y-12368936D01*
X16232277Y-12368936D02*
X16222753Y-12378460D01*
X16222753Y-12378460D02*
X16203706Y-12387984D01*
X16203706Y-12387984D02*
X16175134Y-12387984D01*
X16356087Y-12387984D02*
X16337039Y-12378460D01*
X16337039Y-12378460D02*
X16327515Y-12359412D01*
X16327515Y-12359412D02*
X16327515Y-12187984D01*
X16508468Y-12378460D02*
X16489420Y-12387984D01*
X16489420Y-12387984D02*
X16451325Y-12387984D01*
X16451325Y-12387984D02*
X16432277Y-12378460D01*
X16432277Y-12378460D02*
X16422753Y-12359412D01*
X16422753Y-12359412D02*
X16422753Y-12283222D01*
X16422753Y-12283222D02*
X16432277Y-12264174D01*
X16432277Y-12264174D02*
X16451325Y-12254650D01*
X16451325Y-12254650D02*
X16489420Y-12254650D01*
X16489420Y-12254650D02*
X16508468Y-12264174D01*
X16508468Y-12264174D02*
X16517991Y-12283222D01*
X16517991Y-12283222D02*
X16517991Y-12302269D01*
X16517991Y-12302269D02*
X16422753Y-12321317D01*
X16594182Y-12378460D02*
X16613230Y-12387984D01*
X16613230Y-12387984D02*
X16651325Y-12387984D01*
X16651325Y-12387984D02*
X16670372Y-12378460D01*
X16670372Y-12378460D02*
X16679896Y-12359412D01*
X16679896Y-12359412D02*
X16679896Y-12349888D01*
X16679896Y-12349888D02*
X16670372Y-12330841D01*
X16670372Y-12330841D02*
X16651325Y-12321317D01*
X16651325Y-12321317D02*
X16622753Y-12321317D01*
X16622753Y-12321317D02*
X16603706Y-12311793D01*
X16603706Y-12311793D02*
X16594182Y-12292746D01*
X16594182Y-12292746D02*
X16594182Y-12283222D01*
X16594182Y-12283222D02*
X16603706Y-12264174D01*
X16603706Y-12264174D02*
X16622753Y-12254650D01*
X16622753Y-12254650D02*
X16651325Y-12254650D01*
X16651325Y-12254650D02*
X16670372Y-12264174D01*
X16746563Y-12464174D02*
X16756087Y-12454650D01*
X16756087Y-12454650D02*
X16775134Y-12426079D01*
X16775134Y-12426079D02*
X16784658Y-12407031D01*
X16784658Y-12407031D02*
X16794182Y-12378460D01*
X16794182Y-12378460D02*
X16803706Y-12330841D01*
X16803706Y-12330841D02*
X16803706Y-12292746D01*
X16803706Y-12292746D02*
X16794182Y-12245127D01*
X16794182Y-12245127D02*
X16784658Y-12216555D01*
X16784658Y-12216555D02*
X16775134Y-12197508D01*
X16775134Y-12197508D02*
X16756087Y-12168936D01*
X16756087Y-12168936D02*
X16746563Y-12159412D01*
M02*
