%TF.GenerationSoftware,KiCad,Pcbnew,10.0.3*%
%TF.CreationDate,2026-06-10T12:34:43+05:30*%
%TF.ProjectId,smart-sensor-battery-,736d6172-742d-4736-956e-736f722d6261,rev?*%
%TF.SameCoordinates,Original*%
%TF.FileFunction,Paste,Top*%
%TF.FilePolarity,Positive*%
%FSLAX46Y46*%
G04 Gerber Fmt 4.6, Leading zero omitted, Abs format (unit mm)*
G04 Created by KiCad (PCBNEW 10.0.3) date 2026-06-10 12:34:43*
%MOMM*%
%LPD*%
G01*
G04 APERTURE LIST*
G04 Aperture macros list*
%AMRoundRect*
0 Rectangle with rounded corners*
0 $1 Rounding radius*
0 $2 $3 $4 $5 $6 $7 $8 $9 X,Y pos of 4 corners*
0 Add a 4 corners polygon primitive as box body*
4,1,4,$2,$3,$4,$5,$6,$7,$8,$9,$2,$3,0*
0 Add four circle primitives for the rounded corners*
1,1,$1+$1,$2,$3*
1,1,$1+$1,$4,$5*
1,1,$1+$1,$6,$7*
1,1,$1+$1,$8,$9*
0 Add four rect primitives between the rounded corners*
20,1,$1+$1,$2,$3,$4,$5,0*
20,1,$1+$1,$4,$5,$6,$7,0*
20,1,$1+$1,$6,$7,$8,$9,0*
20,1,$1+$1,$8,$9,$2,$3,0*%
G04 Aperture macros list end*
%ADD10RoundRect,0.147500X0.147500X0.172500X-0.147500X0.172500X-0.147500X-0.172500X0.147500X-0.172500X0*%
%ADD11RoundRect,0.135000X0.185000X-0.135000X0.185000X0.135000X-0.185000X0.135000X-0.185000X-0.135000X0*%
%ADD12R,1.000000X1.900000*%
%ADD13RoundRect,0.150000X-0.150000X0.512500X-0.150000X-0.512500X0.150000X-0.512500X0.150000X0.512500X0*%
%ADD14RoundRect,0.070000X-0.355000X0.070000X-0.355000X-0.070000X0.355000X-0.070000X0.355000X0.070000X0*%
%ADD15RoundRect,0.070000X-0.305000X0.070000X-0.305000X-0.070000X0.305000X-0.070000X0.305000X0.070000X0*%
%ADD16RoundRect,0.225000X-0.225000X-0.250000X0.225000X-0.250000X0.225000X0.250000X-0.225000X0.250000X0*%
%ADD17RoundRect,0.135000X0.135000X0.185000X-0.135000X0.185000X-0.135000X-0.185000X0.135000X-0.185000X0*%
%ADD18RoundRect,0.150000X0.587500X0.150000X-0.587500X0.150000X-0.587500X-0.150000X0.587500X-0.150000X0*%
%ADD19RoundRect,0.140000X-0.140000X-0.170000X0.140000X-0.170000X0.140000X0.170000X-0.140000X0.170000X0*%
%ADD20RoundRect,0.135000X-0.135000X-0.185000X0.135000X-0.185000X0.135000X0.185000X-0.135000X0.185000X0*%
%ADD21RoundRect,0.140000X-0.170000X0.140000X-0.170000X-0.140000X0.170000X-0.140000X0.170000X0.140000X0*%
%ADD22RoundRect,0.225000X0.225000X0.250000X-0.225000X0.250000X-0.225000X-0.250000X0.225000X-0.250000X0*%
%ADD23R,0.450000X0.300000*%
%ADD24R,0.900000X0.625000*%
%ADD25RoundRect,0.150000X0.512500X0.150000X-0.512500X0.150000X-0.512500X-0.150000X0.512500X-0.150000X0*%
%ADD26RoundRect,0.087500X0.087500X-0.187500X0.087500X0.187500X-0.087500X0.187500X-0.087500X-0.187500X0*%
%ADD27RoundRect,0.125000X0.575000X-0.125000X0.575000X0.125000X-0.575000X0.125000X-0.575000X-0.125000X0*%
%ADD28RoundRect,0.087500X-0.087500X0.187500X-0.087500X-0.187500X0.087500X-0.187500X0.087500X0.187500X0*%
%ADD29RoundRect,0.135000X-0.185000X0.135000X-0.185000X-0.135000X0.185000X-0.135000X0.185000X0.135000X0*%
%TA.AperFunction,Profile*%
%ADD30C,0.050000*%
%TD*%
G04 APERTURE END LIST*
D10*
%TO.C,D1*%
X137985000Y-81500000D03*
X137015000Y-81500000D03*
%TD*%
D11*
%TO.C,R4*%
X133460000Y-67000000D03*
X133460000Y-65980000D03*
%TD*%
D12*
%TO.C,J2*%
X128340000Y-87700000D03*
X130880000Y-91000000D03*
X133420000Y-87700000D03*
X135960000Y-91000000D03*
X138500000Y-87700000D03*
X141040000Y-91000000D03*
X143580000Y-87700000D03*
%TD*%
D13*
%TO.C,U2*%
X141450000Y-81862500D03*
X140500000Y-81862500D03*
X139550000Y-81862500D03*
X139550000Y-84137500D03*
X140500000Y-84137500D03*
X141450000Y-84137500D03*
%TD*%
D14*
%TO.C,U5*%
X130900000Y-67235000D03*
D15*
X130850000Y-67735000D03*
X130850000Y-68235000D03*
X132000000Y-68235000D03*
X132000000Y-67735000D03*
X132000000Y-67235000D03*
%TD*%
D11*
%TO.C,R6*%
X130960000Y-70510000D03*
X130960000Y-69490000D03*
%TD*%
D16*
%TO.C,C2*%
X140225000Y-80000000D03*
X141775000Y-80000000D03*
%TD*%
D17*
%TO.C,R3*%
X131970000Y-66000000D03*
X130950000Y-66000000D03*
%TD*%
D18*
%TO.C,Q1*%
X143000000Y-102000000D03*
X143000000Y-100100000D03*
X141125000Y-101050000D03*
%TD*%
D19*
%TO.C,C5*%
X124970000Y-107500000D03*
X125930000Y-107500000D03*
%TD*%
D20*
%TO.C,R12*%
X138290000Y-69400000D03*
X139310000Y-69400000D03*
%TD*%
D12*
%TO.C,J5*%
X131420000Y-97650000D03*
X133960000Y-94350000D03*
X136500000Y-97650000D03*
X139040000Y-94350000D03*
X141580000Y-97650000D03*
%TD*%
%TO.C,J3*%
X128260000Y-57200000D03*
X130800000Y-60500000D03*
X133340000Y-57200000D03*
X135880000Y-60500000D03*
X138420000Y-57200000D03*
X140960000Y-60500000D03*
X143500000Y-57200000D03*
%TD*%
D20*
%TO.C,R8*%
X137490000Y-80500000D03*
X138510000Y-80500000D03*
%TD*%
D21*
%TO.C,C4*%
X133460000Y-68010000D03*
X133460000Y-68970000D03*
%TD*%
D11*
%TO.C,R7*%
X145000000Y-101610000D03*
X145000000Y-100590000D03*
%TD*%
D12*
%TO.C,J1*%
X143580000Y-72460000D03*
X141040000Y-75760000D03*
X138500000Y-72460000D03*
X135960000Y-75760000D03*
X133420000Y-72460000D03*
X130880000Y-75760000D03*
X128340000Y-72460000D03*
%TD*%
D16*
%TO.C,C1*%
X143000000Y-85000000D03*
X144550000Y-85000000D03*
%TD*%
D19*
%TO.C,C6*%
X138320000Y-70400000D03*
X139280000Y-70400000D03*
%TD*%
D22*
%TO.C,C3*%
X130500000Y-85000000D03*
X128950000Y-85000000D03*
%TD*%
D23*
%TO.C,U6*%
X129935000Y-70150000D03*
X129935000Y-69500000D03*
X129935000Y-68850000D03*
X127985000Y-68850000D03*
X127985000Y-69500000D03*
X127985000Y-70150000D03*
D24*
X128960000Y-69988000D03*
X128960000Y-69012000D03*
%TD*%
D20*
%TO.C,R11*%
X138290000Y-68400000D03*
X139310000Y-68400000D03*
%TD*%
%TO.C,R9*%
X132490000Y-100200000D03*
X133510000Y-100200000D03*
%TD*%
D25*
%TO.C,U4*%
X133137500Y-83450000D03*
X133137500Y-82500000D03*
X133137500Y-81550000D03*
X130862500Y-81550000D03*
X130862500Y-83450000D03*
%TD*%
D17*
%TO.C,R1*%
X138010000Y-84500000D03*
X136990000Y-84500000D03*
%TD*%
D26*
%TO.C,U7*%
X125450000Y-110525000D03*
X126450000Y-110525000D03*
D27*
X125950000Y-109500000D03*
D28*
X125450000Y-108475000D03*
X126450000Y-108475000D03*
%TD*%
D11*
%TO.C,R5*%
X129460000Y-67010000D03*
X129460000Y-65990000D03*
%TD*%
D29*
%TO.C,R10*%
X145900000Y-57190000D03*
X145900000Y-58210000D03*
%TD*%
D11*
%TO.C,R2*%
X143000000Y-81510000D03*
X143000000Y-80490000D03*
%TD*%
D30*
X124000000Y-55500000D02*
X146000000Y-55500000D01*
X124000000Y-104750000D02*
X124000000Y-55500000D01*
X124000000Y-106750000D02*
X125500000Y-106750000D01*
X124000000Y-107000000D02*
X124000000Y-106750000D01*
X124000000Y-111500000D02*
X124000000Y-107000000D01*
X125500000Y-104750000D02*
X124000000Y-104750000D01*
X125500000Y-106750000D02*
X125500000Y-104750000D01*
X128000000Y-106500000D02*
X128000000Y-111500000D01*
X128000000Y-106500000D02*
X129000000Y-106500000D01*
X128000000Y-111500000D02*
X124000000Y-111500000D01*
X129000000Y-106500000D02*
X130000000Y-106500000D01*
X130000000Y-106500000D02*
X130000000Y-111500000D01*
X130000000Y-111500000D02*
X146000000Y-111500000D01*
X147000000Y-55500000D02*
X146000000Y-55500000D01*
X147000000Y-94000000D02*
X147000000Y-55500000D01*
X147000000Y-94000000D02*
X147000000Y-111500000D01*
X147000000Y-111500000D02*
X146000000Y-111500000D01*
M02*
