%TF.GenerationSoftware,KiCad,Pcbnew,10.0.3*%
%TF.CreationDate,2026-06-10T12:34:43+05:30*%
%TF.ProjectId,smart-sensor-battery-,736d6172-742d-4736-956e-736f722d6261,rev?*%
%TF.SameCoordinates,Original*%
%TF.FileFunction,Legend,Bot*%
%TF.FilePolarity,Positive*%
%FSLAX46Y46*%
G04 Gerber Fmt 4.6, Leading zero omitted, Abs format (unit mm)*
G04 Created by KiCad (PCBNEW 10.0.3) date 2026-06-10 12:34:43*
%MOMM*%
%LPD*%
G01*
G04 APERTURE LIST*
%ADD10C,0.127000*%
%TA.AperFunction,Profile*%
%ADD11C,0.050000*%
%TD*%
G04 APERTURE END LIST*
%TO.C,BT1*%
D10*
X124675000Y-60925000D02*
X124675000Y-106075000D01*
X124675000Y-106075000D02*
X131500000Y-106075000D01*
X130750000Y-57500000D02*
X130750000Y-56500000D01*
X131000000Y-110500000D02*
X131000000Y-109500000D01*
X131250000Y-57000000D02*
X130250000Y-57000000D01*
X131500000Y-60925000D02*
X124675000Y-60925000D01*
X138500000Y-106075000D02*
X145325000Y-106075000D01*
X145325000Y-60925000D02*
X138500000Y-60925000D01*
X145325000Y-106075000D02*
X145325000Y-60925000D01*
%TD*%
D11*
X124000000Y-55500000D02*
X146000000Y-55500000D01*
X124000000Y-104750000D02*
X124000000Y-55500000D01*
X124000000Y-106750000D02*
X125500000Y-106750000D01*
X124000000Y-107000000D02*
X124000000Y-106750000D01*
X124000000Y-111500000D02*
X124000000Y-107000000D01*
X125500000Y-104750000D02*
X124000000Y-104750000D01*
X125500000Y-106750000D02*
X125500000Y-104750000D01*
X128000000Y-106500000D02*
X128000000Y-111500000D01*
X128000000Y-106500000D02*
X129000000Y-106500000D01*
X128000000Y-111500000D02*
X124000000Y-111500000D01*
X129000000Y-106500000D02*
X130000000Y-106500000D01*
X130000000Y-106500000D02*
X130000000Y-111500000D01*
X130000000Y-111500000D02*
X146000000Y-111500000D01*
X147000000Y-55500000D02*
X146000000Y-55500000D01*
X147000000Y-94000000D02*
X147000000Y-55500000D01*
X147000000Y-94000000D02*
X147000000Y-111500000D01*
X147000000Y-111500000D02*
X146000000Y-111500000D01*
M02*
