G04 #@! TF.GenerationSoftware,KiCad,Pcbnew,10.0.3*
G04 #@! TF.CreationDate,2026-06-15T16:25:49+05:30*
G04 #@! TF.ProjectId,EmbedMatrix,456d6265-644d-4617-9472-69782e6b6963,rev?*
G04 #@! TF.SameCoordinates,Original*
G04 #@! TF.FileFunction,Soldermask,Top*
G04 #@! TF.FilePolarity,Negative*
%FSLAX46Y46*%
G04 Gerber Fmt 4.6, Leading zero omitted, Abs format (unit mm)*
G04 Created by KiCad (PCBNEW 10.0.3) date 2026-06-15 16:25:49*
%MOMM*%
%LPD*%
G01*
G04 APERTURE LIST*
G04 Aperture macros list*
%AMRoundRect*
0 Rectangle with rounded corners*
0 $1 Rounding radius*
0 $2 $3 $4 $5 $6 $7 $8 $9 X,Y pos of 4 corners*
0 Add a 4 corners polygon primitive as box body*
4,1,4,$2,$3,$4,$5,$6,$7,$8,$9,$2,$3,0*
0 Add four circle primitives for the rounded corners*
1,1,$1+$1,$2,$3*
1,1,$1+$1,$4,$5*
1,1,$1+$1,$6,$7*
1,1,$1+$1,$8,$9*
0 Add four rect primitives between the rounded corners*
20,1,$1+$1,$2,$3,$4,$5,0*
20,1,$1+$1,$4,$5,$6,$7,0*
20,1,$1+$1,$6,$7,$8,$9,0*
20,1,$1+$1,$8,$9,$2,$3,0*%
G04 Aperture macros list end*
%ADD10O,2.100000X2.100000*%
%ADD11RoundRect,0.200000X-0.850000X-0.850000X0.850000X-0.850000X0.850000X0.850000X-0.850000X0.850000X0*%
%ADD12RoundRect,0.200000X-1.250000X-0.715000X1.250000X-0.715000X1.250000X0.715000X-1.250000X0.715000X0*%
%ADD13O,2.100000X1.750000*%
%ADD14O,1.900000X1.500000*%
%ADD15RoundRect,0.200000X-0.825000X-0.200000X0.825000X-0.200000X0.825000X0.200000X-0.825000X0.200000X0*%
%ADD16RoundRect,0.200000X-0.750000X1.000000X-0.750000X-1.000000X0.750000X-1.000000X0.750000X1.000000X0*%
%ADD17RoundRect,0.200000X-0.350000X0.912500X-0.350000X-0.912500X0.350000X-0.912500X0.350000X0.912500X0*%
%ADD18RoundRect,0.200000X-1.000000X0.675000X-1.000000X-0.675000X1.000000X-0.675000X1.000000X0.675000X0*%
%ADD19RoundRect,0.336956X0.563044X-0.438044X0.563044X0.438044X-0.563044X0.438044X-0.563044X-0.438044X0*%
%ADD20RoundRect,0.336956X-0.563044X0.438044X-0.563044X-0.438044X0.563044X-0.438044X0.563044X0.438044X0*%
%ADD21RoundRect,0.336956X0.438044X0.563044X-0.438044X0.563044X-0.438044X-0.563044X0.438044X-0.563044X0*%
%ADD22RoundRect,0.336956X-0.438044X-0.563044X0.438044X-0.563044X0.438044X0.563044X-0.438044X0.563044X0*%
%ADD23RoundRect,0.200000X-0.275000X-0.300000X0.275000X-0.300000X0.275000X0.300000X-0.275000X0.300000X0*%
%ADD24RoundRect,0.200000X-0.325000X0.780000X-0.325000X-0.780000X0.325000X-0.780000X0.325000X0.780000X0*%
%ADD25RoundRect,0.200000X-0.300000X0.275000X-0.300000X-0.275000X0.300000X-0.275000X0.300000X0.275000X0*%
%ADD26RoundRect,0.200000X0.300000X-0.275000X0.300000X0.275000X-0.300000X0.275000X-0.300000X-0.275000X0*%
%ADD27RoundRect,0.200000X0.275000X0.300000X-0.275000X0.300000X-0.275000X-0.300000X0.275000X-0.300000X0*%
%ADD28RoundRect,0.200000X-0.125000X0.650000X-0.125000X-0.650000X0.125000X-0.650000X0.125000X0.650000X0*%
%ADD29RoundRect,0.200000X-0.650000X-0.125000X0.650000X-0.125000X0.650000X0.125000X-0.650000X0.125000X0*%
%ADD30C,1.900000*%
%ADD31RoundRect,0.337500X-0.387500X-0.337500X0.387500X-0.337500X0.387500X0.337500X-0.387500X0.337500X0*%
%ADD32RoundRect,0.337500X0.337500X-0.387500X0.337500X0.387500X-0.337500X0.387500X-0.337500X-0.387500X0*%
%ADD33RoundRect,0.337500X-0.337500X0.387500X-0.337500X-0.387500X0.337500X-0.387500X0.337500X0.387500X0*%
%ADD34RoundRect,0.337500X0.387500X0.337500X-0.387500X0.337500X-0.387500X-0.337500X0.387500X-0.337500X0*%
%ADD35C,3.600000*%
G04 APERTURE END LIST*
D10*
X166370000Y-91200000D03*
X166370000Y-88660000D03*
X166370000Y-86120000D03*
X166370000Y-83580000D03*
X166370000Y-81040000D03*
D11*
X166370000Y-78500000D03*
D12*
X124345000Y-126111000D03*
X124345000Y-124191000D03*
D13*
X124615000Y-127881000D03*
X124615000Y-122421000D03*
D14*
X127615000Y-127571000D03*
X127615000Y-122731000D03*
D15*
X127495000Y-126451000D03*
X127495000Y-125801000D03*
X127495000Y-125151000D03*
X127495000Y-124501000D03*
X127495000Y-123851000D03*
D16*
X127615000Y-128051000D03*
X127595000Y-122301000D03*
D17*
X126295000Y-128151000D03*
X126295000Y-122201000D03*
D18*
X125545000Y-122421000D03*
X125545000Y-127901000D03*
D19*
X131100000Y-117500000D03*
X131100000Y-119550000D03*
D20*
X126000000Y-101450000D03*
X126000000Y-103500000D03*
X124000000Y-103500000D03*
X124000000Y-101450000D03*
D21*
X135625000Y-116550000D03*
X133575000Y-116550000D03*
X151950000Y-72000000D03*
X154000000Y-72000000D03*
X151950000Y-74000000D03*
X154000000Y-74000000D03*
D22*
X143450000Y-139000000D03*
X145500000Y-139000000D03*
D19*
X138100000Y-120000000D03*
X138100000Y-122050000D03*
D22*
X151800000Y-91400000D03*
X153850000Y-91400000D03*
D21*
X144750000Y-91400000D03*
X146800000Y-91400000D03*
D22*
X143450000Y-141000000D03*
X145500000Y-141000000D03*
D19*
X171000000Y-109950000D03*
X171000000Y-112000000D03*
X173000000Y-112025000D03*
X173000000Y-109975000D03*
D20*
X157480000Y-102750000D03*
X157480000Y-104800000D03*
D21*
X147725000Y-80500000D03*
X149775000Y-80500000D03*
D20*
X132500000Y-105725000D03*
X132500000Y-107775000D03*
D19*
X164750000Y-107775000D03*
X164750000Y-105725000D03*
D22*
X149775000Y-132750000D03*
X147725000Y-132750000D03*
X164200000Y-94750000D03*
X166250000Y-94750000D03*
X166250000Y-96750000D03*
X164200000Y-96750000D03*
D19*
X126000000Y-112550000D03*
X126000000Y-110500000D03*
X124000000Y-110500000D03*
X124000000Y-112550000D03*
D22*
X142950000Y-74000000D03*
X145000000Y-74000000D03*
D21*
X154550000Y-139000000D03*
X152500000Y-139000000D03*
D22*
X142950000Y-72000000D03*
X145000000Y-72000000D03*
D21*
X152500000Y-141000000D03*
X154550000Y-141000000D03*
D20*
X171000000Y-103050000D03*
X171000000Y-101000000D03*
X173000000Y-101000000D03*
X173000000Y-103050000D03*
D23*
X124000000Y-105750000D03*
X124750000Y-105750000D03*
X125500000Y-105750000D03*
X126250000Y-105750000D03*
X127000000Y-105750000D03*
X127750000Y-105750000D03*
X127750000Y-107750000D03*
X127000000Y-107750000D03*
X126250000Y-107750000D03*
X125500000Y-107750000D03*
X124750000Y-107750000D03*
X124000000Y-107750000D03*
D24*
X135550000Y-119550000D03*
X134600000Y-119550000D03*
X133650000Y-119550000D03*
X133650000Y-122250000D03*
X135550000Y-122250000D03*
X134600000Y-122250000D03*
D25*
X149750000Y-72000000D03*
X149750000Y-72750000D03*
X149750000Y-73500000D03*
X149750000Y-74250000D03*
X149750000Y-75000000D03*
X149750000Y-75750000D03*
X147750000Y-75750000D03*
X147750000Y-75000000D03*
X147750000Y-74250000D03*
X147750000Y-73500000D03*
X147750000Y-72750000D03*
X147750000Y-72000000D03*
D26*
X149750000Y-141250000D03*
X149750000Y-140500000D03*
X149750000Y-139750000D03*
X149750000Y-139000000D03*
X149750000Y-138250000D03*
X149750000Y-137500000D03*
X147750000Y-137500000D03*
X147750000Y-138250000D03*
X147750000Y-139000000D03*
X147750000Y-139750000D03*
X147750000Y-140500000D03*
X147750000Y-141250000D03*
D27*
X173250000Y-105750000D03*
X172500000Y-105750000D03*
X171750000Y-105750000D03*
X171000000Y-105750000D03*
X170250000Y-105750000D03*
X169500000Y-105750000D03*
X169500000Y-107750000D03*
X170250000Y-107750000D03*
X171000000Y-107750000D03*
X171750000Y-107750000D03*
X172500000Y-107750000D03*
X173250000Y-107750000D03*
D28*
X151500000Y-102400000D03*
X151000000Y-102400000D03*
X150500000Y-102400000D03*
X150000000Y-102400000D03*
X149500000Y-102400000D03*
X149000000Y-102400000D03*
X148500000Y-102400000D03*
X148000000Y-102400000D03*
X147500000Y-102400000D03*
X147000000Y-102400000D03*
X146500000Y-102400000D03*
X146000000Y-102400000D03*
D29*
X144400000Y-104000000D03*
X144400000Y-104500000D03*
X144400000Y-105000000D03*
X144400000Y-105500000D03*
X144400000Y-106000000D03*
X144400000Y-106500000D03*
X144400000Y-107000000D03*
X144400000Y-107500000D03*
X144400000Y-108000000D03*
X144400000Y-108500000D03*
X144400000Y-109000000D03*
X144400000Y-109500000D03*
D28*
X146000000Y-111100000D03*
X146500000Y-111100000D03*
X147000000Y-111100000D03*
X147500000Y-111100000D03*
X148000000Y-111100000D03*
X148500000Y-111100000D03*
X149000000Y-111100000D03*
X149500000Y-111100000D03*
X150000000Y-111100000D03*
X150500000Y-111100000D03*
X151000000Y-111100000D03*
X151500000Y-111100000D03*
D29*
X153100000Y-109500000D03*
X153100000Y-109000000D03*
X153100000Y-108500000D03*
X153100000Y-108000000D03*
X153100000Y-107500000D03*
X153100000Y-107000000D03*
X153100000Y-106500000D03*
X153100000Y-106000000D03*
X153100000Y-105500000D03*
X153100000Y-105000000D03*
X153100000Y-104500000D03*
X153100000Y-104000000D03*
D30*
X151680000Y-95600000D03*
X146800000Y-95600000D03*
D20*
X141800000Y-110450000D03*
X141800000Y-108400000D03*
D22*
X151100000Y-113538000D03*
X153150000Y-113538000D03*
D19*
X155500000Y-102750000D03*
X155500000Y-104800000D03*
D21*
X147850000Y-99500000D03*
X145800000Y-99500000D03*
D31*
X149625000Y-78000000D03*
X147875000Y-78000000D03*
D32*
X130000000Y-107625000D03*
X130000000Y-105875000D03*
D33*
X167250000Y-107625000D03*
X167250000Y-105875000D03*
D34*
X149625000Y-135250000D03*
X147875000Y-135250000D03*
D35*
X126000000Y-74000000D03*
X171000000Y-74000000D03*
X171000000Y-139500000D03*
X126000000Y-139500000D03*
M02*
