G04 #@! TF.GenerationSoftware,KiCad,Pcbnew,10.0.3*
G04 #@! TF.CreationDate,2026-06-15T16:25:49+05:30*
G04 #@! TF.ProjectId,EmbedMatrix,456d6265-644d-4617-9472-69782e6b6963,rev?*
G04 #@! TF.SameCoordinates,Original*
G04 #@! TF.FileFunction,Copper,L1,Top*
G04 #@! TF.FilePolarity,Positive*
%FSLAX46Y46*%
G04 Gerber Fmt 4.6, Leading zero omitted, Abs format (unit mm)*
G04 Created by KiCad (PCBNEW 10.0.3) date 2026-06-15 16:25:49*
%MOMM*%
%LPD*%
G01*
G04 APERTURE LIST*
G04 Aperture macros list*
%AMRoundRect*
0 Rectangle with rounded corners*
0 $1 Rounding radius*
0 $2 $3 $4 $5 $6 $7 $8 $9 X,Y pos of 4 corners*
0 Add a 4 corners polygon primitive as box body*
4,1,4,$2,$3,$4,$5,$6,$7,$8,$9,$2,$3,0*
0 Add four circle primitives for the rounded corners*
1,1,$1+$1,$2,$3*
1,1,$1+$1,$4,$5*
1,1,$1+$1,$6,$7*
1,1,$1+$1,$8,$9*
0 Add four rect primitives between the rounded corners*
20,1,$1+$1,$2,$3,$4,$5,0*
20,1,$1+$1,$4,$5,$6,$7,0*
20,1,$1+$1,$6,$7,$8,$9,0*
20,1,$1+$1,$8,$9,$2,$3,0*%
G04 Aperture macros list end*
G04 #@! TA.AperFunction,ComponentPad*
%ADD10O,1.700000X1.700000*%
G04 #@! TD*
G04 #@! TA.AperFunction,ComponentPad*
%ADD11R,1.700000X1.700000*%
G04 #@! TD*
G04 #@! TA.AperFunction,SMDPad,CuDef*
%ADD12R,2.500000X1.430000*%
G04 #@! TD*
G04 #@! TA.AperFunction,ComponentPad*
%ADD13O,1.700000X1.350000*%
G04 #@! TD*
G04 #@! TA.AperFunction,ComponentPad*
%ADD14O,1.500000X1.100000*%
G04 #@! TD*
G04 #@! TA.AperFunction,SMDPad,CuDef*
%ADD15R,1.650000X0.400000*%
G04 #@! TD*
G04 #@! TA.AperFunction,SMDPad,CuDef*
%ADD16R,1.500000X2.000000*%
G04 #@! TD*
G04 #@! TA.AperFunction,SMDPad,CuDef*
%ADD17R,0.700000X1.825000*%
G04 #@! TD*
G04 #@! TA.AperFunction,SMDPad,CuDef*
%ADD18R,2.000000X1.350000*%
G04 #@! TD*
G04 #@! TA.AperFunction,SMDPad,CuDef*
%ADD19RoundRect,0.250000X0.450000X-0.325000X0.450000X0.325000X-0.450000X0.325000X-0.450000X-0.325000X0*%
G04 #@! TD*
G04 #@! TA.AperFunction,SMDPad,CuDef*
%ADD20RoundRect,0.250000X-0.450000X0.325000X-0.450000X-0.325000X0.450000X-0.325000X0.450000X0.325000X0*%
G04 #@! TD*
G04 #@! TA.AperFunction,SMDPad,CuDef*
%ADD21RoundRect,0.250000X0.325000X0.450000X-0.325000X0.450000X-0.325000X-0.450000X0.325000X-0.450000X0*%
G04 #@! TD*
G04 #@! TA.AperFunction,SMDPad,CuDef*
%ADD22RoundRect,0.250000X-0.325000X-0.450000X0.325000X-0.450000X0.325000X0.450000X-0.325000X0.450000X0*%
G04 #@! TD*
G04 #@! TA.AperFunction,SMDPad,CuDef*
%ADD23R,0.550000X0.600000*%
G04 #@! TD*
G04 #@! TA.AperFunction,SMDPad,CuDef*
%ADD24R,0.650000X1.560000*%
G04 #@! TD*
G04 #@! TA.AperFunction,SMDPad,CuDef*
%ADD25R,0.600000X0.550000*%
G04 #@! TD*
G04 #@! TA.AperFunction,SMDPad,CuDef*
%ADD26R,0.250000X1.300000*%
G04 #@! TD*
G04 #@! TA.AperFunction,SMDPad,CuDef*
%ADD27R,1.300000X0.250000*%
G04 #@! TD*
G04 #@! TA.AperFunction,ComponentPad*
%ADD28C,1.500000*%
G04 #@! TD*
G04 #@! TA.AperFunction,SMDPad,CuDef*
%ADD29RoundRect,0.237500X-0.287500X-0.237500X0.287500X-0.237500X0.287500X0.237500X-0.287500X0.237500X0*%
G04 #@! TD*
G04 #@! TA.AperFunction,SMDPad,CuDef*
%ADD30RoundRect,0.237500X0.237500X-0.287500X0.237500X0.287500X-0.237500X0.287500X-0.237500X-0.287500X0*%
G04 #@! TD*
G04 #@! TA.AperFunction,SMDPad,CuDef*
%ADD31RoundRect,0.237500X-0.237500X0.287500X-0.237500X-0.287500X0.237500X-0.287500X0.237500X0.287500X0*%
G04 #@! TD*
G04 #@! TA.AperFunction,SMDPad,CuDef*
%ADD32RoundRect,0.237500X0.287500X0.237500X-0.287500X0.237500X-0.287500X-0.237500X0.287500X-0.237500X0*%
G04 #@! TD*
G04 #@! TA.AperFunction,ViaPad*
%ADD33C,0.685800*%
G04 #@! TD*
G04 #@! TA.AperFunction,Conductor*
%ADD34C,0.254000*%
G04 #@! TD*
G04 APERTURE END LIST*
D10*
X166370000Y-91200000D03*
X166370000Y-88660000D03*
X166370000Y-86120000D03*
X166370000Y-83580000D03*
X166370000Y-81040000D03*
D11*
X166370000Y-78500000D03*
D12*
X124345000Y-126111000D03*
X124345000Y-124191000D03*
D13*
X124615000Y-127881000D03*
X124615000Y-122421000D03*
D14*
X127615000Y-127571000D03*
X127615000Y-122731000D03*
D15*
X127495000Y-126451000D03*
X127495000Y-125801000D03*
X127495000Y-125151000D03*
X127495000Y-124501000D03*
X127495000Y-123851000D03*
D16*
X127615000Y-128051000D03*
X127595000Y-122301000D03*
D17*
X126295000Y-128151000D03*
X126295000Y-122201000D03*
D18*
X125545000Y-122421000D03*
X125545000Y-127901000D03*
D19*
X131100000Y-117500000D03*
X131100000Y-119550000D03*
D20*
X126000000Y-101450000D03*
X126000000Y-103500000D03*
X124000000Y-103500000D03*
X124000000Y-101450000D03*
D21*
X135625000Y-116550000D03*
X133575000Y-116550000D03*
X151950000Y-72000000D03*
X154000000Y-72000000D03*
X151950000Y-74000000D03*
X154000000Y-74000000D03*
D22*
X143450000Y-139000000D03*
X145500000Y-139000000D03*
D19*
X138100000Y-120000000D03*
X138100000Y-122050000D03*
D22*
X151800000Y-91400000D03*
X153850000Y-91400000D03*
D21*
X144750000Y-91400000D03*
X146800000Y-91400000D03*
D22*
X143450000Y-141000000D03*
X145500000Y-141000000D03*
D19*
X171000000Y-109950000D03*
X171000000Y-112000000D03*
X173000000Y-112025000D03*
X173000000Y-109975000D03*
D20*
X157480000Y-102750000D03*
X157480000Y-104800000D03*
D21*
X147725000Y-80500000D03*
X149775000Y-80500000D03*
D20*
X132500000Y-105725000D03*
X132500000Y-107775000D03*
D19*
X164750000Y-107775000D03*
X164750000Y-105725000D03*
D22*
X149775000Y-132750000D03*
X147725000Y-132750000D03*
X164200000Y-94750000D03*
X166250000Y-94750000D03*
X166250000Y-96750000D03*
X164200000Y-96750000D03*
D19*
X126000000Y-112550000D03*
X126000000Y-110500000D03*
X124000000Y-110500000D03*
X124000000Y-112550000D03*
D22*
X142950000Y-74000000D03*
X145000000Y-74000000D03*
D21*
X154550000Y-139000000D03*
X152500000Y-139000000D03*
D22*
X142950000Y-72000000D03*
X145000000Y-72000000D03*
D21*
X152500000Y-141000000D03*
X154550000Y-141000000D03*
D20*
X171000000Y-103050000D03*
X171000000Y-101000000D03*
X173000000Y-101000000D03*
X173000000Y-103050000D03*
D23*
X124000000Y-105750000D03*
X124750000Y-105750000D03*
X125500000Y-105750000D03*
X126250000Y-105750000D03*
X127000000Y-105750000D03*
X127750000Y-105750000D03*
X127750000Y-107750000D03*
X127000000Y-107750000D03*
X126250000Y-107750000D03*
X125500000Y-107750000D03*
X124750000Y-107750000D03*
X124000000Y-107750000D03*
D24*
X135550000Y-119550000D03*
X134600000Y-119550000D03*
X133650000Y-119550000D03*
X133650000Y-122250000D03*
X135550000Y-122250000D03*
X134600000Y-122250000D03*
D25*
X149750000Y-72000000D03*
X149750000Y-72750000D03*
X149750000Y-73500000D03*
X149750000Y-74250000D03*
X149750000Y-75000000D03*
X149750000Y-75750000D03*
X147750000Y-75750000D03*
X147750000Y-75000000D03*
X147750000Y-74250000D03*
X147750000Y-73500000D03*
X147750000Y-72750000D03*
X147750000Y-72000000D03*
X149750000Y-141250000D03*
X149750000Y-140500000D03*
X149750000Y-139750000D03*
X149750000Y-139000000D03*
X149750000Y-138250000D03*
X149750000Y-137500000D03*
X147750000Y-137500000D03*
X147750000Y-138250000D03*
X147750000Y-139000000D03*
X147750000Y-139750000D03*
X147750000Y-140500000D03*
X147750000Y-141250000D03*
D23*
X173250000Y-105750000D03*
X172500000Y-105750000D03*
X171750000Y-105750000D03*
X171000000Y-105750000D03*
X170250000Y-105750000D03*
X169500000Y-105750000D03*
X169500000Y-107750000D03*
X170250000Y-107750000D03*
X171000000Y-107750000D03*
X171750000Y-107750000D03*
X172500000Y-107750000D03*
X173250000Y-107750000D03*
D26*
X151500000Y-102400000D03*
X151000000Y-102400000D03*
X150500000Y-102400000D03*
X150000000Y-102400000D03*
X149500000Y-102400000D03*
X149000000Y-102400000D03*
X148500000Y-102400000D03*
X148000000Y-102400000D03*
X147500000Y-102400000D03*
X147000000Y-102400000D03*
X146500000Y-102400000D03*
X146000000Y-102400000D03*
D27*
X144400000Y-104000000D03*
X144400000Y-104500000D03*
X144400000Y-105000000D03*
X144400000Y-105500000D03*
X144400000Y-106000000D03*
X144400000Y-106500000D03*
X144400000Y-107000000D03*
X144400000Y-107500000D03*
X144400000Y-108000000D03*
X144400000Y-108500000D03*
X144400000Y-109000000D03*
X144400000Y-109500000D03*
D26*
X146000000Y-111100000D03*
X146500000Y-111100000D03*
X147000000Y-111100000D03*
X147500000Y-111100000D03*
X148000000Y-111100000D03*
X148500000Y-111100000D03*
X149000000Y-111100000D03*
X149500000Y-111100000D03*
X150000000Y-111100000D03*
X150500000Y-111100000D03*
X151000000Y-111100000D03*
X151500000Y-111100000D03*
D27*
X153100000Y-109500000D03*
X153100000Y-109000000D03*
X153100000Y-108500000D03*
X153100000Y-108000000D03*
X153100000Y-107500000D03*
X153100000Y-107000000D03*
X153100000Y-106500000D03*
X153100000Y-106000000D03*
X153100000Y-105500000D03*
X153100000Y-105000000D03*
X153100000Y-104500000D03*
X153100000Y-104000000D03*
D28*
X151680000Y-95600000D03*
X146800000Y-95600000D03*
D20*
X141800000Y-110450000D03*
X141800000Y-108400000D03*
D22*
X151100000Y-113538000D03*
X153150000Y-113538000D03*
D19*
X155500000Y-102750000D03*
X155500000Y-104800000D03*
D21*
X147850000Y-99500000D03*
X145800000Y-99500000D03*
D29*
X149625000Y-78000000D03*
X147875000Y-78000000D03*
D30*
X130000000Y-107625000D03*
X130000000Y-105875000D03*
D31*
X167250000Y-107625000D03*
X167250000Y-105875000D03*
D32*
X149625000Y-135250000D03*
X147875000Y-135250000D03*
D33*
X141750000Y-82500000D03*
X144500000Y-79750000D03*
X168500000Y-99750000D03*
X168500000Y-102250000D03*
X159185396Y-95000000D03*
X149499992Y-104500000D03*
X158500000Y-96500000D03*
X150000006Y-108000000D03*
X157970388Y-98000000D03*
X151750000Y-108749998D03*
X140500000Y-106622300D03*
X138000000Y-104500000D03*
X147377700Y-112907302D03*
X146000000Y-124907302D03*
X139000000Y-123750006D03*
X134500000Y-123750000D03*
X145500000Y-136750000D03*
X129250000Y-103500000D03*
X152000000Y-76500000D03*
X141500000Y-72000000D03*
X124000000Y-114000000D03*
X173000000Y-99500000D03*
X164250006Y-98500000D03*
X168250000Y-110000000D03*
X156000000Y-141000000D03*
X150800000Y-138238203D03*
X146600000Y-75000000D03*
X127000000Y-109000000D03*
X170238203Y-104500000D03*
X170250000Y-95500004D03*
X169400000Y-104500000D03*
X150800000Y-137319920D03*
X146600000Y-75880081D03*
X127838213Y-109000000D03*
X166250000Y-98500000D03*
X148000000Y-125500000D03*
X148000000Y-113500000D03*
D34*
X144376628Y-109023372D02*
X144400000Y-109000000D01*
X142423372Y-109023372D02*
X144376628Y-109023372D01*
X141800000Y-108400000D02*
X142423372Y-109023372D01*
X155150000Y-104500000D02*
X155500000Y-104850000D01*
X153100000Y-104500000D02*
X155150000Y-104500000D01*
X151000000Y-113438000D02*
X151100000Y-113538000D01*
X151000000Y-111100000D02*
X151000000Y-113438000D01*
X148000000Y-101496000D02*
X148000000Y-102400000D01*
X148000000Y-99500000D02*
X148000000Y-101496000D01*
X147850000Y-99500000D02*
X148000000Y-99500000D01*
X124000000Y-106304000D02*
X124000000Y-105750000D01*
X126250000Y-106304000D02*
X125804000Y-106750000D01*
X125804000Y-106750000D02*
X124446000Y-106750000D01*
X126250000Y-105750000D02*
X126250000Y-106304000D01*
X124446000Y-106750000D02*
X124000000Y-106304000D01*
X134600000Y-117575000D02*
X133575000Y-116550000D01*
X134600000Y-119550000D02*
X134600000Y-117575000D01*
X147750000Y-139000000D02*
X148304000Y-139000000D01*
X148304000Y-139000000D02*
X148750000Y-139446000D01*
X148750000Y-139446000D02*
X148750000Y-140804000D01*
X148304000Y-141250000D02*
X147750000Y-141250000D01*
X148750000Y-140804000D02*
X148304000Y-141250000D01*
X124345000Y-122691000D02*
X124615000Y-122421000D01*
X124345000Y-124191000D02*
X124345000Y-122691000D01*
X124345000Y-127611000D02*
X124615000Y-127881000D01*
X124345000Y-126111000D02*
X124345000Y-127611000D01*
X127495000Y-127451000D02*
X127615000Y-127571000D01*
X127495000Y-126451000D02*
X127495000Y-127451000D01*
X149196000Y-72000000D02*
X149750000Y-72000000D01*
X149750000Y-74250000D02*
X149196000Y-74250000D01*
X148750000Y-72446000D02*
X149196000Y-72000000D01*
X149196000Y-74250000D02*
X148750000Y-73804000D01*
X148750000Y-73804000D02*
X148750000Y-72446000D01*
X157480000Y-102820000D02*
X157480000Y-102750000D01*
X155500000Y-104800000D02*
X157480000Y-102820000D01*
X173250000Y-107196000D02*
X173250000Y-107750000D01*
X171000000Y-107750000D02*
X171000000Y-107196000D01*
X171446000Y-106750000D02*
X172804000Y-106750000D01*
X171000000Y-107196000D02*
X171446000Y-106750000D01*
X172804000Y-106750000D02*
X173250000Y-107196000D01*
X134600000Y-120584000D02*
X135016000Y-121000000D01*
X134600000Y-119550000D02*
X134600000Y-120584000D01*
X137100000Y-121000000D02*
X138100000Y-120000000D01*
X135016000Y-121000000D02*
X137100000Y-121000000D01*
X166210000Y-88500000D02*
X166370000Y-88660000D01*
X159500000Y-88500000D02*
X166210000Y-88500000D01*
X159185396Y-88814604D02*
X159500000Y-88500000D01*
X159185396Y-95000000D02*
X159185396Y-88814604D01*
X148500000Y-103500008D02*
X149157093Y-104157101D01*
X148500000Y-102400000D02*
X148500000Y-103500008D01*
X149157093Y-104157101D02*
X149499992Y-104500000D01*
X139622700Y-124501000D02*
X149500000Y-114623700D01*
X127495000Y-124501000D02*
X139622700Y-124501000D01*
X149500000Y-114623700D02*
X149500000Y-112004000D01*
X149500000Y-112004000D02*
X149500000Y-111100000D01*
X150000000Y-112004000D02*
X150000000Y-111100000D01*
X150000000Y-114698450D02*
X150000000Y-112004000D01*
X139547450Y-125151000D02*
X150000000Y-114698450D01*
X127495000Y-125151000D02*
X139547450Y-125151000D01*
X150500000Y-111100000D02*
X150500000Y-110500000D01*
X158500000Y-96500000D02*
X158500000Y-88610645D01*
X150000000Y-108000006D02*
X150000006Y-108000000D01*
X160990645Y-86120000D02*
X166370000Y-86120000D01*
X158500000Y-88610645D02*
X160990645Y-86120000D01*
X150000006Y-108000000D02*
X150000006Y-109249994D01*
X150500000Y-109749988D02*
X150500000Y-110500000D01*
X150000006Y-109249994D02*
X150500000Y-109749988D01*
X165167919Y-81040000D02*
X166370000Y-81040000D01*
X157970388Y-98000000D02*
X158000000Y-98000000D01*
X157877699Y-97877699D02*
X157877699Y-88330220D01*
X158000000Y-98000000D02*
X157877699Y-97877699D01*
X157877699Y-88330220D02*
X165167919Y-81040000D01*
X153100000Y-109500000D02*
X152196000Y-109500000D01*
X152196000Y-109500000D02*
X151750000Y-109054000D01*
X151750000Y-109054000D02*
X151750000Y-108749998D01*
X151000000Y-101496000D02*
X155750000Y-96746000D01*
X151000000Y-102400000D02*
X151000000Y-101496000D01*
X155750000Y-84000000D02*
X149750000Y-78000000D01*
X155750000Y-96746000D02*
X155750000Y-84000000D01*
X140500000Y-106500000D02*
X144400000Y-106500000D01*
X140500000Y-106622300D02*
X140500000Y-106500000D01*
X137515067Y-104500000D02*
X138000000Y-104500000D01*
X130000000Y-105875000D02*
X131375000Y-104500000D01*
X131375000Y-104500000D02*
X137515067Y-104500000D01*
X151127699Y-108451293D02*
X151127699Y-109127699D01*
X151578992Y-108000000D02*
X151127699Y-108451293D01*
X153100000Y-108000000D02*
X151578992Y-108000000D01*
X151906410Y-109906410D02*
X164968590Y-109906410D01*
X166750928Y-108124072D02*
X167250000Y-107625000D01*
X164968590Y-109906410D02*
X166750928Y-108124072D01*
X151127699Y-109127699D02*
X151906410Y-109906410D01*
X147500000Y-112785002D02*
X147377700Y-112907302D01*
X147500000Y-111100000D02*
X147500000Y-112785002D01*
X146000000Y-133500000D02*
X146000000Y-124907302D01*
X147750000Y-135250000D02*
X146000000Y-133500000D01*
X131100000Y-119550000D02*
X133650000Y-119550000D01*
X133650000Y-120584000D02*
X133650000Y-122250000D01*
X133650000Y-119550000D02*
X133650000Y-120584000D01*
X133650000Y-122250000D02*
X134600000Y-122250000D01*
X131100000Y-120225000D02*
X131100000Y-119550000D01*
X131100000Y-121325000D02*
X131100000Y-120225000D01*
X128574000Y-123851000D02*
X131100000Y-121325000D01*
X127495000Y-123851000D02*
X128574000Y-123851000D01*
X145250000Y-74250000D02*
X145000000Y-74000000D01*
X147750000Y-74250000D02*
X145250000Y-74250000D01*
X150450000Y-73500000D02*
X151950000Y-72000000D01*
X149750000Y-73500000D02*
X150450000Y-73500000D01*
X150950000Y-75000000D02*
X151950000Y-74000000D01*
X149750000Y-75000000D02*
X150950000Y-75000000D01*
X171750000Y-108725000D02*
X173000000Y-109975000D01*
X171750000Y-107750000D02*
X171750000Y-108725000D01*
X170250000Y-109200000D02*
X171000000Y-109950000D01*
X170250000Y-107750000D02*
X170250000Y-109200000D01*
X146750000Y-139750000D02*
X145500000Y-141000000D01*
X147750000Y-139750000D02*
X146750000Y-139750000D01*
X146250000Y-138250000D02*
X145500000Y-139000000D01*
X147750000Y-138250000D02*
X146250000Y-138250000D01*
X127000000Y-104500000D02*
X126000000Y-103500000D01*
X127000000Y-105750000D02*
X127000000Y-104500000D01*
X125500000Y-105750000D02*
X125500000Y-105000000D01*
X125500000Y-105000000D02*
X124000000Y-103500000D01*
X137900000Y-122250000D02*
X138100000Y-122050000D01*
X135550000Y-122250000D02*
X137900000Y-122250000D01*
X138100000Y-122050000D02*
X139000000Y-122950000D01*
X139000000Y-122950000D02*
X139000000Y-123265073D01*
X139000000Y-123265073D02*
X139000000Y-123750006D01*
X134984933Y-123750000D02*
X134500000Y-123750000D01*
X136400000Y-123750000D02*
X134984933Y-123750000D01*
X138100000Y-122050000D02*
X136400000Y-123750000D01*
X124000000Y-103500000D02*
X126000000Y-103500000D01*
X145500000Y-141000000D02*
X145500000Y-139000000D01*
X145500000Y-139000000D02*
X145500000Y-136750000D01*
X126000000Y-103500000D02*
X129250000Y-103500000D01*
X151950000Y-74000000D02*
X151950000Y-76450000D01*
X151950000Y-76450000D02*
X152000000Y-76500000D01*
X142950000Y-72000000D02*
X141500000Y-72000000D01*
X124000000Y-112550000D02*
X124000000Y-114000000D01*
X173000000Y-101000000D02*
X173000000Y-99500000D01*
X151950000Y-72000000D02*
X151950000Y-74000000D01*
X164200000Y-96500000D02*
X164200000Y-98449994D01*
X164200000Y-98449994D02*
X164250006Y-98500000D01*
X164200000Y-94750000D02*
X164200000Y-96750000D01*
X172975000Y-109950000D02*
X173000000Y-109975000D01*
X171000000Y-109950000D02*
X172975000Y-109950000D01*
X168300000Y-109950000D02*
X168250000Y-110000000D01*
X171000000Y-109950000D02*
X168300000Y-109950000D01*
X154550000Y-141000000D02*
X156000000Y-141000000D01*
X135550000Y-116625000D02*
X135625000Y-116550000D01*
X135550000Y-119550000D02*
X135550000Y-116625000D01*
X141800000Y-110875000D02*
X141800000Y-110450000D01*
X135625000Y-117050000D02*
X141800000Y-110875000D01*
X142750000Y-109500000D02*
X141800000Y-110450000D01*
X144400000Y-109500000D02*
X142750000Y-109500000D01*
X154300000Y-104000000D02*
X155500000Y-102800000D01*
X153100000Y-104000000D02*
X154300000Y-104000000D01*
X152526628Y-112914628D02*
X153150000Y-113538000D01*
X151500000Y-111888000D02*
X152526628Y-112914628D01*
X151500000Y-111100000D02*
X151500000Y-111888000D01*
X147500000Y-101200000D02*
X147500000Y-102400000D01*
X145800000Y-99500000D02*
X147500000Y-101200000D01*
X151500000Y-102400000D02*
X151500000Y-103304000D01*
X151500000Y-103304000D02*
X152196000Y-104000000D01*
X152196000Y-104000000D02*
X153100000Y-104000000D01*
X165266000Y-78500000D02*
X166370000Y-78500000D01*
X151500000Y-101750000D02*
X156250000Y-97000000D01*
X151500000Y-102400000D02*
X151500000Y-101750000D01*
X156250000Y-97000000D02*
X156250000Y-87516000D01*
X156250000Y-87516000D02*
X165266000Y-78500000D01*
X151073699Y-105122301D02*
X152196000Y-104000000D01*
X149201287Y-105122301D02*
X151073699Y-105122301D01*
X147500000Y-103421014D02*
X149201287Y-105122301D01*
X147500000Y-102400000D02*
X147500000Y-103421014D01*
X145304000Y-109500000D02*
X144400000Y-109500000D01*
X149201287Y-105602713D02*
X145304000Y-109500000D01*
X149201287Y-105122301D02*
X149201287Y-105602713D01*
X151500000Y-110196000D02*
X151500000Y-111100000D01*
X151500000Y-110175238D02*
X151500000Y-110196000D01*
X150622307Y-109297545D02*
X151500000Y-110175238D01*
X150622307Y-107023733D02*
X150622307Y-109297545D01*
X149201287Y-105602713D02*
X150622307Y-107023733D01*
X149500000Y-97780000D02*
X151680000Y-95600000D01*
X149500000Y-102400000D02*
X149500000Y-97780000D01*
X151680000Y-91520000D02*
X151800000Y-91400000D01*
X151680000Y-95600000D02*
X151680000Y-91520000D01*
X149000000Y-97800000D02*
X146800000Y-95600000D01*
X149000000Y-102400000D02*
X149000000Y-97800000D01*
X146800000Y-94539340D02*
X146800000Y-91400000D01*
X146800000Y-95600000D02*
X146800000Y-94539340D01*
X147875000Y-80350000D02*
X147725000Y-80500000D01*
X147875000Y-78000000D02*
X147875000Y-80350000D01*
X132325000Y-107625000D02*
X132500000Y-107800000D01*
X130000000Y-107625000D02*
X132325000Y-107625000D01*
X167100000Y-105725000D02*
X167250000Y-105875000D01*
X164750000Y-105725000D02*
X167100000Y-105725000D01*
X149625000Y-132900000D02*
X149775000Y-132750000D01*
X149625000Y-135250000D02*
X149625000Y-132900000D01*
X156280000Y-106000000D02*
X157480000Y-104800000D01*
X153100000Y-106000000D02*
X156280000Y-106000000D01*
X150788203Y-138250000D02*
X150800000Y-138238203D01*
X149750000Y-138250000D02*
X150788203Y-138250000D01*
X147750000Y-75000000D02*
X146600000Y-75000000D01*
X127000000Y-107750000D02*
X127000000Y-109000000D01*
X170250000Y-104611797D02*
X170238203Y-104600000D01*
X170250000Y-105750000D02*
X170250000Y-104611797D01*
X169907101Y-95842903D02*
X170250000Y-95500004D01*
X158750004Y-107000000D02*
X169907101Y-95842903D01*
X153100000Y-107000000D02*
X158750004Y-107000000D01*
X169499996Y-94750000D02*
X170250000Y-95500004D01*
X166250000Y-94750000D02*
X169499996Y-94750000D01*
X169500000Y-104700000D02*
X169400000Y-104600000D01*
X169500000Y-105750000D02*
X169500000Y-104700000D01*
X149750000Y-137500000D02*
X150619920Y-137500000D01*
X150619920Y-137500000D02*
X150800000Y-137319920D01*
X146730081Y-75750000D02*
X146600000Y-75880081D01*
X147750000Y-75750000D02*
X146730081Y-75750000D01*
X127750000Y-107750000D02*
X127750000Y-108911787D01*
X127750000Y-108911787D02*
X127838213Y-109000000D01*
X158250000Y-106500000D02*
X165907101Y-98842899D01*
X153100000Y-106500000D02*
X158250000Y-106500000D01*
X165907101Y-98842899D02*
X166250000Y-98500000D01*
X166250000Y-96500000D02*
X166250000Y-98500000D01*
X126250000Y-110250000D02*
X126000000Y-110500000D01*
X126250000Y-107750000D02*
X126250000Y-110250000D01*
X124000000Y-107750000D02*
X124000000Y-110500000D01*
X149750000Y-139000000D02*
X152500000Y-139000000D01*
X147750000Y-72000000D02*
X145000000Y-72000000D01*
X152250000Y-141250000D02*
X152500000Y-141000000D01*
X149750000Y-141250000D02*
X152250000Y-141250000D01*
X171000000Y-105750000D02*
X171000000Y-103050000D01*
X173250000Y-103300000D02*
X173000000Y-103050000D01*
X173250000Y-105750000D02*
X173250000Y-103300000D01*
X144400000Y-106000000D02*
X139250000Y-106000000D01*
X132700000Y-112550000D02*
X126000000Y-112550000D01*
X139250000Y-106000000D02*
X132700000Y-112550000D01*
X147000000Y-101496000D02*
X147000000Y-102400000D01*
X142950000Y-74000000D02*
X142950000Y-98950000D01*
X142950000Y-98950000D02*
X145000000Y-101000000D01*
X146504000Y-101000000D02*
X147000000Y-101496000D01*
X145000000Y-101000000D02*
X146504000Y-101000000D01*
X154550000Y-132050000D02*
X154550000Y-139000000D01*
X148000000Y-125500000D02*
X154550000Y-132050000D01*
X148000000Y-111100000D02*
X148000000Y-113500000D01*
X153100000Y-109000000D02*
X158000000Y-109000000D01*
X166000000Y-101000000D02*
X171000000Y-101000000D01*
X158000000Y-109000000D02*
X166000000Y-101000000D01*
G04 #@! TA.AperFunction,Conductor*
G36*
X145336230Y-110155502D02*
G01*
X145382723Y-110209158D01*
X145392827Y-110279432D01*
X145386165Y-110305532D01*
X145373010Y-110340800D01*
X145373009Y-110340803D01*
X145366500Y-110401350D01*
X145366500Y-111798649D01*
X145373009Y-111859196D01*
X145373011Y-111859204D01*
X145424110Y-111996202D01*
X145424112Y-111996207D01*
X145511738Y-112113261D01*
X145628792Y-112200887D01*
X145628794Y-112200888D01*
X145628796Y-112200889D01*
X145687875Y-112222924D01*
X145765795Y-112251988D01*
X145765803Y-112251990D01*
X145826350Y-112258499D01*
X145826355Y-112258499D01*
X145826362Y-112258500D01*
X145826368Y-112258500D01*
X146173632Y-112258500D01*
X146173638Y-112258500D01*
X146173645Y-112258499D01*
X146173649Y-112258499D01*
X146236532Y-112251739D01*
X146263468Y-112251739D01*
X146326350Y-112258499D01*
X146326355Y-112258499D01*
X146326362Y-112258500D01*
X146326368Y-112258500D01*
X146551516Y-112258500D01*
X146619637Y-112278502D01*
X146666130Y-112332158D01*
X146676234Y-112402432D01*
X146656281Y-112454501D01*
X146623201Y-112504008D01*
X146623196Y-112504017D01*
X146559019Y-112658951D01*
X146526300Y-112823440D01*
X146526300Y-112991163D01*
X146559019Y-113155652D01*
X146623196Y-113310586D01*
X146623198Y-113310590D01*
X146623199Y-113310591D01*
X146716374Y-113450038D01*
X146834964Y-113568628D01*
X146974411Y-113661803D01*
X147129356Y-113725984D01*
X147129357Y-113725984D01*
X147132681Y-113727361D01*
X147187962Y-113771910D01*
X147200871Y-113795551D01*
X147245496Y-113903284D01*
X147245498Y-113903288D01*
X147245499Y-113903289D01*
X147338674Y-114042736D01*
X147457264Y-114161326D01*
X147587496Y-114248344D01*
X147596711Y-114254501D01*
X147596715Y-114254503D01*
X147751649Y-114318680D01*
X147751653Y-114318680D01*
X147751656Y-114318682D01*
X147876416Y-114343497D01*
X147916138Y-114351399D01*
X147916141Y-114351399D01*
X147916144Y-114351400D01*
X147916145Y-114351400D01*
X148083855Y-114351400D01*
X148083856Y-114351400D01*
X148248344Y-114318682D01*
X148248347Y-114318680D01*
X148248350Y-114318680D01*
X148403284Y-114254503D01*
X148403283Y-114254503D01*
X148403289Y-114254501D01*
X148542736Y-114161326D01*
X148649405Y-114054657D01*
X148669151Y-114043874D01*
X148686158Y-114029138D01*
X148699705Y-114027190D01*
X148711717Y-114020631D01*
X148734160Y-114022236D01*
X148756432Y-114019034D01*
X148768881Y-114024719D01*
X148782532Y-114025696D01*
X148800545Y-114039180D01*
X148821012Y-114048528D01*
X148828410Y-114060040D01*
X148839368Y-114068243D01*
X148847231Y-114089326D01*
X148859396Y-114108254D01*
X148862598Y-114130524D01*
X148864179Y-114134763D01*
X148864500Y-114143752D01*
X148864500Y-114308276D01*
X148844498Y-114376397D01*
X148827595Y-114397371D01*
X139912630Y-123312335D01*
X139850318Y-123346361D01*
X139779503Y-123341296D01*
X139722667Y-123298749D01*
X139718770Y-123293242D01*
X139661326Y-123207270D01*
X139661324Y-123207268D01*
X139657887Y-123202124D01*
X139659904Y-123200776D01*
X139636346Y-123145292D01*
X139635500Y-123130718D01*
X139635500Y-122887410D01*
X139635499Y-122887406D01*
X139632839Y-122874031D01*
X139611078Y-122764631D01*
X139563173Y-122648978D01*
X139493625Y-122544892D01*
X139405108Y-122456375D01*
X139345404Y-122396671D01*
X139311378Y-122334359D01*
X139308499Y-122307576D01*
X139308499Y-121674455D01*
X139297887Y-121570574D01*
X139270691Y-121488500D01*
X139242115Y-121402262D01*
X139149030Y-121251348D01*
X139149029Y-121251347D01*
X139149024Y-121251341D01*
X139023657Y-121125974D01*
X139020547Y-121123515D01*
X139018967Y-121121284D01*
X139018463Y-121120780D01*
X139018549Y-121120693D01*
X138979518Y-121065575D01*
X138976326Y-120994650D01*
X139011986Y-120933259D01*
X139020558Y-120925832D01*
X139023350Y-120923624D01*
X139148629Y-120798345D01*
X139148634Y-120798339D01*
X139241657Y-120647525D01*
X139297393Y-120479321D01*
X139297394Y-120479318D01*
X139307999Y-120375516D01*
X139308000Y-120375516D01*
X139308000Y-120254000D01*
X136892000Y-120254000D01*
X136892000Y-120375516D01*
X136902605Y-120479318D01*
X136902606Y-120479321D01*
X136958342Y-120647525D01*
X137051365Y-120798339D01*
X137051370Y-120798345D01*
X137176657Y-120923632D01*
X137179446Y-120925837D01*
X137180863Y-120927838D01*
X137181850Y-120928825D01*
X137181681Y-120928993D01*
X137220479Y-120983775D01*
X137223674Y-121054700D01*
X137188017Y-121116093D01*
X137179457Y-121123511D01*
X137176345Y-121125971D01*
X137050975Y-121251341D01*
X137050970Y-121251347D01*
X137005744Y-121324670D01*
X136957885Y-121402262D01*
X136919316Y-121518660D01*
X136916177Y-121528132D01*
X136875763Y-121586504D01*
X136810207Y-121613760D01*
X136796572Y-121614500D01*
X136509500Y-121614500D01*
X136441379Y-121594498D01*
X136394886Y-121540842D01*
X136383500Y-121488500D01*
X136383500Y-121421367D01*
X136383499Y-121421350D01*
X136376990Y-121360803D01*
X136376988Y-121360795D01*
X136336563Y-121252414D01*
X136325889Y-121223796D01*
X136325888Y-121223794D01*
X136325887Y-121223792D01*
X136238261Y-121106738D01*
X136121208Y-121019113D01*
X136121205Y-121019112D01*
X136121204Y-121019111D01*
X136118370Y-121018054D01*
X136115951Y-121016243D01*
X136113299Y-121014795D01*
X136113507Y-121014413D01*
X136061538Y-120975509D01*
X136036727Y-120908989D01*
X136051819Y-120839614D01*
X136102021Y-120789412D01*
X136118362Y-120781949D01*
X136121204Y-120780889D01*
X136238261Y-120693261D01*
X136316339Y-120588961D01*
X136325887Y-120576207D01*
X136325887Y-120576206D01*
X136325889Y-120576204D01*
X136376989Y-120439201D01*
X136383500Y-120378638D01*
X136383500Y-119624483D01*
X136892000Y-119624483D01*
X136892000Y-119746000D01*
X137846000Y-119746000D01*
X138354000Y-119746000D01*
X139308000Y-119746000D01*
X139308000Y-119624483D01*
X139297394Y-119520681D01*
X139297393Y-119520678D01*
X139241657Y-119352474D01*
X139148634Y-119201660D01*
X139148629Y-119201654D01*
X139023345Y-119076370D01*
X139023339Y-119076365D01*
X138872525Y-118983342D01*
X138704321Y-118927606D01*
X138704318Y-118927605D01*
X138600516Y-118917000D01*
X138354000Y-118917000D01*
X138354000Y-119746000D01*
X137846000Y-119746000D01*
X137846000Y-118917000D01*
X137599483Y-118917000D01*
X137495681Y-118927605D01*
X137495678Y-118927606D01*
X137327474Y-118983342D01*
X137176660Y-119076365D01*
X137176654Y-119076370D01*
X137051370Y-119201654D01*
X137051365Y-119201660D01*
X136958342Y-119352474D01*
X136902606Y-119520678D01*
X136902605Y-119520681D01*
X136892000Y-119624483D01*
X136383500Y-119624483D01*
X136383500Y-118721362D01*
X136377783Y-118668184D01*
X136376990Y-118660803D01*
X136376988Y-118660795D01*
X136325889Y-118523797D01*
X136325887Y-118523792D01*
X136252554Y-118425832D01*
X136238261Y-118406739D01*
X136238260Y-118406738D01*
X136235987Y-118405036D01*
X136234284Y-118402761D01*
X136231890Y-118400367D01*
X136232234Y-118400022D01*
X136193442Y-118348199D01*
X136185500Y-118304171D01*
X136185500Y-117812007D01*
X136205502Y-117743886D01*
X136259158Y-117697393D01*
X136271859Y-117692406D01*
X136272738Y-117692115D01*
X136423652Y-117599030D01*
X136549030Y-117473652D01*
X136642115Y-117322738D01*
X136697887Y-117154426D01*
X136708500Y-117050545D01*
X136708499Y-116917422D01*
X136728501Y-116849302D01*
X136745399Y-116828332D01*
X142003328Y-111570404D01*
X142065640Y-111536378D01*
X142092423Y-111533499D01*
X142300544Y-111533499D01*
X142404426Y-111522887D01*
X142572738Y-111467115D01*
X142723652Y-111374030D01*
X142849030Y-111248652D01*
X142942115Y-111097738D01*
X142997887Y-110929426D01*
X143008500Y-110825545D01*
X143008499Y-110261499D01*
X143028501Y-110193379D01*
X143082157Y-110146886D01*
X143134499Y-110135500D01*
X145268109Y-110135500D01*
X145336230Y-110155502D01*
G37*
G04 #@! TD.AperFunction*
G04 #@! TA.AperFunction,Conductor*
G36*
X165301752Y-81909065D02*
G01*
X165346815Y-81938026D01*
X165484990Y-82076201D01*
X165484993Y-82076203D01*
X165484996Y-82076206D01*
X165657991Y-82201894D01*
X165658001Y-82201899D01*
X165659567Y-82202859D01*
X165660042Y-82203384D01*
X165661996Y-82204804D01*
X165661697Y-82205214D01*
X165707200Y-82255505D01*
X165718808Y-82325546D01*
X165690707Y-82390745D01*
X165662157Y-82415485D01*
X165662258Y-82415624D01*
X165660644Y-82416796D01*
X165659574Y-82417724D01*
X165658255Y-82418532D01*
X165485320Y-82544177D01*
X165334177Y-82695320D01*
X165208536Y-82868249D01*
X165111493Y-83058707D01*
X165111490Y-83058713D01*
X165045440Y-83261995D01*
X165035302Y-83326000D01*
X165939297Y-83326000D01*
X165904075Y-83387007D01*
X165870000Y-83514174D01*
X165870000Y-83645826D01*
X165904075Y-83772993D01*
X165939297Y-83834000D01*
X165035302Y-83834000D01*
X165045440Y-83898004D01*
X165111490Y-84101286D01*
X165111493Y-84101292D01*
X165208536Y-84291750D01*
X165334177Y-84464679D01*
X165485320Y-84615822D01*
X165658244Y-84741460D01*
X165659560Y-84742266D01*
X165659955Y-84742703D01*
X165662258Y-84744376D01*
X165661906Y-84744859D01*
X165707196Y-84794910D01*
X165718809Y-84864950D01*
X165690712Y-84930150D01*
X165661925Y-84955098D01*
X165661996Y-84955196D01*
X165660862Y-84956019D01*
X165659580Y-84957131D01*
X165657998Y-84958100D01*
X165484993Y-85083796D01*
X165484990Y-85083798D01*
X165333798Y-85234990D01*
X165333796Y-85234993D01*
X165208108Y-85407987D01*
X165204177Y-85415703D01*
X165155429Y-85467318D01*
X165091910Y-85484500D01*
X161926342Y-85484500D01*
X161858221Y-85464498D01*
X161811728Y-85410842D01*
X161801624Y-85340568D01*
X161831118Y-85275988D01*
X161837247Y-85269405D01*
X165168625Y-81938026D01*
X165230937Y-81904000D01*
X165301752Y-81909065D01*
G37*
G04 #@! TD.AperFunction*
G04 #@! TA.AperFunction,Conductor*
G36*
X171002898Y-70100634D02*
G01*
X171353984Y-70116866D01*
X171365570Y-70117939D01*
X171710775Y-70166093D01*
X171722194Y-70168227D01*
X172061481Y-70248028D01*
X172072669Y-70251211D01*
X172403140Y-70361974D01*
X172413987Y-70366176D01*
X172732845Y-70506965D01*
X172743236Y-70512140D01*
X172925184Y-70613484D01*
X173047727Y-70681740D01*
X173057620Y-70687865D01*
X173224400Y-70802112D01*
X173345167Y-70884839D01*
X173354455Y-70891853D01*
X173622601Y-71114519D01*
X173631201Y-71122360D01*
X173877639Y-71368798D01*
X173885480Y-71377398D01*
X174108146Y-71645544D01*
X174115160Y-71654832D01*
X174312133Y-71942377D01*
X174318259Y-71952272D01*
X174486320Y-72254000D01*
X174487852Y-72256749D01*
X174493037Y-72267162D01*
X174513497Y-72313498D01*
X174633822Y-72586010D01*
X174638026Y-72596862D01*
X174748787Y-72927327D01*
X174751972Y-72938521D01*
X174831769Y-73277794D01*
X174833908Y-73289235D01*
X174882059Y-73634428D01*
X174883133Y-73646015D01*
X174899366Y-73997100D01*
X174899500Y-74002920D01*
X174899500Y-139497079D01*
X174899366Y-139502899D01*
X174883133Y-139853984D01*
X174882059Y-139865571D01*
X174833908Y-140210764D01*
X174831769Y-140222205D01*
X174751972Y-140561478D01*
X174748787Y-140572672D01*
X174638026Y-140903137D01*
X174633822Y-140913989D01*
X174493040Y-141232832D01*
X174487852Y-141243250D01*
X174318259Y-141547727D01*
X174312133Y-141557622D01*
X174115160Y-141845167D01*
X174108146Y-141854455D01*
X173885480Y-142122601D01*
X173877639Y-142131201D01*
X173631201Y-142377639D01*
X173622601Y-142385480D01*
X173354455Y-142608146D01*
X173345167Y-142615160D01*
X173057622Y-142812133D01*
X173047727Y-142818259D01*
X172743250Y-142987852D01*
X172732832Y-142993040D01*
X172413989Y-143133822D01*
X172403137Y-143138026D01*
X172072672Y-143248787D01*
X172061478Y-143251972D01*
X171722205Y-143331769D01*
X171710764Y-143333908D01*
X171365571Y-143382059D01*
X171353984Y-143383133D01*
X171015145Y-143398799D01*
X171002897Y-143399366D01*
X170997079Y-143399500D01*
X126002921Y-143399500D01*
X125997102Y-143399366D01*
X125984213Y-143398770D01*
X125646015Y-143383133D01*
X125634428Y-143382059D01*
X125289235Y-143333908D01*
X125277794Y-143331769D01*
X124938521Y-143251972D01*
X124927327Y-143248787D01*
X124596862Y-143138026D01*
X124586010Y-143133822D01*
X124372623Y-143039603D01*
X124267162Y-142993037D01*
X124256754Y-142987854D01*
X124074816Y-142886516D01*
X123952272Y-142818259D01*
X123942377Y-142812133D01*
X123654832Y-142615160D01*
X123645544Y-142608146D01*
X123377398Y-142385480D01*
X123368798Y-142377639D01*
X123122360Y-142131201D01*
X123114519Y-142122601D01*
X122891853Y-141854455D01*
X122884839Y-141845167D01*
X122848619Y-141792293D01*
X122687865Y-141557620D01*
X122681740Y-141547727D01*
X122655444Y-141500516D01*
X142367000Y-141500516D01*
X142377605Y-141604318D01*
X142377606Y-141604321D01*
X142433342Y-141772525D01*
X142526365Y-141923339D01*
X142526370Y-141923345D01*
X142651654Y-142048629D01*
X142651660Y-142048634D01*
X142802474Y-142141657D01*
X142970678Y-142197393D01*
X142970681Y-142197394D01*
X143074483Y-142207999D01*
X143074483Y-142208000D01*
X143196000Y-142208000D01*
X143196000Y-141254000D01*
X142367000Y-141254000D01*
X142367000Y-141500516D01*
X122655444Y-141500516D01*
X122654374Y-141498595D01*
X122512140Y-141243236D01*
X122506965Y-141232845D01*
X122366176Y-140913987D01*
X122361973Y-140903137D01*
X122358999Y-140894265D01*
X122251211Y-140572669D01*
X122248027Y-140561478D01*
X122168227Y-140222194D01*
X122166093Y-140210775D01*
X122117939Y-139865570D01*
X122116866Y-139853983D01*
X122100634Y-139502898D01*
X122100500Y-139497079D01*
X122100500Y-139378709D01*
X124149500Y-139378709D01*
X124149500Y-139621290D01*
X124181160Y-139861782D01*
X124243944Y-140096095D01*
X124243945Y-140096097D01*
X124243946Y-140096100D01*
X124336776Y-140320212D01*
X124336777Y-140320213D01*
X124336782Y-140320224D01*
X124458061Y-140530285D01*
X124458063Y-140530288D01*
X124458064Y-140530289D01*
X124605735Y-140722738D01*
X124605739Y-140722742D01*
X124605744Y-140722748D01*
X124777251Y-140894255D01*
X124777256Y-140894259D01*
X124777262Y-140894265D01*
X124969711Y-141041936D01*
X124969714Y-141041938D01*
X125179775Y-141163217D01*
X125179779Y-141163218D01*
X125179788Y-141163224D01*
X125403900Y-141256054D01*
X125638211Y-141318838D01*
X125638215Y-141318838D01*
X125638217Y-141318839D01*
X125700202Y-141326999D01*
X125878712Y-141350500D01*
X125878719Y-141350500D01*
X126121281Y-141350500D01*
X126121288Y-141350500D01*
X126338637Y-141321885D01*
X126361782Y-141318839D01*
X126361782Y-141318838D01*
X126361789Y-141318838D01*
X126596100Y-141256054D01*
X126820212Y-141163224D01*
X126903967Y-141114867D01*
X126942381Y-141092690D01*
X126985490Y-141067800D01*
X127030289Y-141041936D01*
X127222738Y-140894265D01*
X127394265Y-140722738D01*
X127541936Y-140530289D01*
X127663224Y-140320212D01*
X127756054Y-140096100D01*
X127818838Y-139861789D01*
X127850500Y-139621288D01*
X127850500Y-139500516D01*
X142367000Y-139500516D01*
X142377605Y-139604318D01*
X142377606Y-139604321D01*
X142433342Y-139772525D01*
X142530218Y-139929585D01*
X142528690Y-139930527D01*
X142551750Y-139987704D01*
X142538491Y-140057451D01*
X142530176Y-140070389D01*
X142530218Y-140070415D01*
X142433342Y-140227474D01*
X142377606Y-140395678D01*
X142377605Y-140395681D01*
X142367000Y-140499483D01*
X142367000Y-140746000D01*
X143196000Y-140746000D01*
X143196000Y-139254000D01*
X142367000Y-139254000D01*
X142367000Y-139500516D01*
X127850500Y-139500516D01*
X127850500Y-139378712D01*
X127818838Y-139138211D01*
X127756054Y-138903900D01*
X127663224Y-138679788D01*
X127663218Y-138679777D01*
X127663213Y-138679767D01*
X127593651Y-138559284D01*
X127559125Y-138499483D01*
X142367000Y-138499483D01*
X142367000Y-138746000D01*
X143196000Y-138746000D01*
X143196000Y-137792000D01*
X143704000Y-137792000D01*
X143704000Y-142208000D01*
X143825517Y-142208000D01*
X143825516Y-142207999D01*
X143929318Y-142197394D01*
X143929321Y-142197393D01*
X144097525Y-142141657D01*
X144248339Y-142048634D01*
X144248345Y-142048629D01*
X144373624Y-141923350D01*
X144375832Y-141920558D01*
X144377837Y-141919137D01*
X144378825Y-141918150D01*
X144378993Y-141918318D01*
X144433768Y-141879522D01*
X144504693Y-141876323D01*
X144566088Y-141911976D01*
X144573515Y-141920547D01*
X144575974Y-141923657D01*
X144701341Y-142049024D01*
X144701347Y-142049029D01*
X144701348Y-142049030D01*
X144852262Y-142142115D01*
X145020574Y-142197887D01*
X145124455Y-142208500D01*
X145875544Y-142208499D01*
X145979426Y-142197887D01*
X146147738Y-142142115D01*
X146298652Y-142049030D01*
X146424030Y-141923652D01*
X146517115Y-141772738D01*
X146572887Y-141604426D01*
X146583500Y-141500545D01*
X146583499Y-140867423D01*
X146587666Y-140853231D01*
X146586873Y-140838461D01*
X146597709Y-140819028D01*
X146603501Y-140799303D01*
X146613576Y-140790572D01*
X146620404Y-140778329D01*
X146726405Y-140672328D01*
X146788717Y-140638302D01*
X146859532Y-140643367D01*
X146916368Y-140685914D01*
X146941179Y-140752434D01*
X146941500Y-140761423D01*
X146941500Y-140823649D01*
X146945826Y-140863881D01*
X146945826Y-140890817D01*
X146942000Y-140926398D01*
X146942000Y-140996001D01*
X146952318Y-141006319D01*
X146985294Y-141016002D01*
X147018041Y-141046491D01*
X147086738Y-141138261D01*
X147203792Y-141225887D01*
X147203796Y-141225889D01*
X147295102Y-141259945D01*
X147351938Y-141302491D01*
X147376748Y-141369012D01*
X147361656Y-141438386D01*
X147311454Y-141488588D01*
X147251069Y-141504000D01*
X146942000Y-141504000D01*
X146942000Y-141573597D01*
X146948505Y-141634093D01*
X146999555Y-141770964D01*
X146999555Y-141770965D01*
X147087095Y-141887904D01*
X147204034Y-141975444D01*
X147340906Y-142026494D01*
X147401402Y-142032999D01*
X147401415Y-142033000D01*
X147496000Y-142033000D01*
X147496000Y-141503999D01*
X147490596Y-141498595D01*
X147456570Y-141436283D01*
X147461635Y-141365468D01*
X147504182Y-141308632D01*
X147570702Y-141283821D01*
X147579691Y-141283500D01*
X147920309Y-141283500D01*
X147988430Y-141303502D01*
X148034923Y-141357158D01*
X148045027Y-141427432D01*
X148015533Y-141492012D01*
X148009404Y-141498595D01*
X148004000Y-141503999D01*
X148004000Y-142033000D01*
X148098585Y-142033000D01*
X148098597Y-142032999D01*
X148159093Y-142026494D01*
X148295964Y-141975444D01*
X148295965Y-141975444D01*
X148412904Y-141887904D01*
X148500444Y-141770965D01*
X148500444Y-141770964D01*
X148551494Y-141634093D01*
X148557999Y-141573597D01*
X148558000Y-141573585D01*
X148558000Y-141504000D01*
X148248931Y-141504000D01*
X148180810Y-141483998D01*
X148134317Y-141430342D01*
X148124213Y-141360068D01*
X148153707Y-141295488D01*
X148204898Y-141259945D01*
X148249658Y-141243250D01*
X148296204Y-141225889D01*
X148379915Y-141163224D01*
X148413261Y-141138261D01*
X148453988Y-141083856D01*
X148481959Y-141046490D01*
X148538794Y-141003944D01*
X148552536Y-141001464D01*
X148558000Y-140996001D01*
X148558000Y-140926413D01*
X148557999Y-140926406D01*
X148554173Y-140890821D01*
X148556535Y-140877725D01*
X148554173Y-140863881D01*
X148558500Y-140823638D01*
X148558500Y-140176362D01*
X148554426Y-140138469D01*
X148556725Y-140125722D01*
X148554426Y-140111530D01*
X148556085Y-140096099D01*
X148558500Y-140073638D01*
X148558500Y-139426362D01*
X148554173Y-139386117D01*
X148556407Y-139373734D01*
X148554173Y-139359177D01*
X148557999Y-139323593D01*
X148558000Y-139323586D01*
X148558000Y-139253999D01*
X148547681Y-139243680D01*
X148514706Y-139233998D01*
X148514034Y-139233409D01*
X148513596Y-139233276D01*
X148509755Y-139229662D01*
X148486741Y-139209507D01*
X148484259Y-139206581D01*
X148413261Y-139111739D01*
X148387358Y-139092348D01*
X148378162Y-139081507D01*
X148369292Y-139061532D01*
X148356193Y-139044034D01*
X148355169Y-139029727D01*
X148349349Y-139016620D01*
X148352686Y-138995020D01*
X148351127Y-138973218D01*
X148358000Y-138960629D01*
X148360191Y-138946456D01*
X148374677Y-138930088D01*
X148385152Y-138910906D01*
X148398740Y-138899131D01*
X148413261Y-138888261D01*
X148481959Y-138796490D01*
X148538794Y-138753944D01*
X148552536Y-138751464D01*
X148558000Y-138746001D01*
X148558000Y-138676413D01*
X148557999Y-138676406D01*
X148554173Y-138640821D01*
X148556535Y-138627725D01*
X148554173Y-138613881D01*
X148558500Y-138573638D01*
X148558500Y-137926362D01*
X148554426Y-137888469D01*
X148556725Y-137875722D01*
X148554426Y-137861530D01*
X148557087Y-137836777D01*
X148558500Y-137823638D01*
X148558500Y-137176362D01*
X148558499Y-137176350D01*
X148551990Y-137115803D01*
X148551988Y-137115795D01*
X148500889Y-136978797D01*
X148500887Y-136978792D01*
X148413261Y-136861738D01*
X148296207Y-136774112D01*
X148296202Y-136774110D01*
X148159204Y-136723011D01*
X148159196Y-136723009D01*
X148098649Y-136716500D01*
X148098638Y-136716500D01*
X147401362Y-136716500D01*
X147401350Y-136716500D01*
X147340803Y-136723009D01*
X147340795Y-136723011D01*
X147203797Y-136774110D01*
X147203792Y-136774112D01*
X147086738Y-136861738D01*
X146999112Y-136978792D01*
X146999110Y-136978797D01*
X146948011Y-137115795D01*
X146948009Y-137115803D01*
X146941500Y-137176350D01*
X146941500Y-137488500D01*
X146921498Y-137556621D01*
X146867842Y-137603114D01*
X146815500Y-137614500D01*
X146261500Y-137614500D01*
X146252674Y-137611908D01*
X146243568Y-137613218D01*
X146219142Y-137602062D01*
X146193379Y-137594498D01*
X146187354Y-137587544D01*
X146178988Y-137583724D01*
X146164473Y-137561138D01*
X146146886Y-137540842D01*
X146144561Y-137530155D01*
X146140604Y-137523998D01*
X146135500Y-137488500D01*
X146135500Y-137369287D01*
X146155502Y-137301166D01*
X146157891Y-137297884D01*
X146157887Y-137297882D01*
X146161324Y-137292737D01*
X146161326Y-137292736D01*
X146254501Y-137153289D01*
X146318682Y-136998344D01*
X146351400Y-136833856D01*
X146351400Y-136666144D01*
X146349898Y-136658595D01*
X146331365Y-136565419D01*
X146318682Y-136501656D01*
X146318680Y-136501653D01*
X146318680Y-136501649D01*
X146254503Y-136346715D01*
X146254501Y-136346711D01*
X146178856Y-136233500D01*
X146161326Y-136207264D01*
X146042736Y-136088674D01*
X145903289Y-135995499D01*
X145903290Y-135995499D01*
X145903288Y-135995498D01*
X145903284Y-135995496D01*
X145748350Y-135931319D01*
X145583861Y-135898600D01*
X145583856Y-135898600D01*
X145416144Y-135898600D01*
X145416138Y-135898600D01*
X145251649Y-135931319D01*
X145096715Y-135995496D01*
X145096711Y-135995498D01*
X144957265Y-136088673D01*
X144957259Y-136088678D01*
X144838678Y-136207259D01*
X144838673Y-136207265D01*
X144745498Y-136346711D01*
X144745496Y-136346715D01*
X144681319Y-136501649D01*
X144648600Y-136666138D01*
X144648600Y-136833861D01*
X144681319Y-136998350D01*
X144745496Y-137153284D01*
X144745498Y-137153288D01*
X144745499Y-137153289D01*
X144838674Y-137292736D01*
X144838675Y-137292737D01*
X144842113Y-137297882D01*
X144840088Y-137299234D01*
X144863649Y-137354669D01*
X144864500Y-137369287D01*
X144864500Y-137780014D01*
X144844498Y-137848135D01*
X144804648Y-137887253D01*
X144752698Y-137919297D01*
X144701347Y-137950970D01*
X144701341Y-137950975D01*
X144575971Y-138076345D01*
X144573511Y-138079457D01*
X144571281Y-138081035D01*
X144570780Y-138081537D01*
X144570694Y-138081451D01*
X144515568Y-138120483D01*
X144444643Y-138123671D01*
X144383254Y-138088008D01*
X144375837Y-138079446D01*
X144373632Y-138076657D01*
X144248345Y-137951370D01*
X144248339Y-137951365D01*
X144097525Y-137858342D01*
X143929321Y-137802606D01*
X143929318Y-137802605D01*
X143825516Y-137792000D01*
X143704000Y-137792000D01*
X143196000Y-137792000D01*
X143074483Y-137792000D01*
X142970681Y-137802605D01*
X142970678Y-137802606D01*
X142802474Y-137858342D01*
X142651660Y-137951365D01*
X142651654Y-137951370D01*
X142526370Y-138076654D01*
X142526365Y-138076660D01*
X142433342Y-138227474D01*
X142377606Y-138395678D01*
X142377605Y-138395681D01*
X142367000Y-138499483D01*
X127559125Y-138499483D01*
X127541938Y-138469714D01*
X127541936Y-138469711D01*
X127394265Y-138277262D01*
X127394259Y-138277256D01*
X127394255Y-138277251D01*
X127222748Y-138105744D01*
X127222742Y-138105739D01*
X127222738Y-138105735D01*
X127030289Y-137958064D01*
X127030288Y-137958063D01*
X127030285Y-137958061D01*
X126820224Y-137836782D01*
X126820216Y-137836778D01*
X126820212Y-137836776D01*
X126596100Y-137743946D01*
X126596097Y-137743945D01*
X126596095Y-137743944D01*
X126361782Y-137681160D01*
X126121290Y-137649500D01*
X126121288Y-137649500D01*
X125878712Y-137649500D01*
X125878709Y-137649500D01*
X125638217Y-137681160D01*
X125403904Y-137743944D01*
X125403900Y-137743946D01*
X125184284Y-137834914D01*
X125179786Y-137836777D01*
X125179775Y-137836782D01*
X124969714Y-137958061D01*
X124777262Y-138105735D01*
X124777251Y-138105744D01*
X124605744Y-138277251D01*
X124605735Y-138277262D01*
X124458061Y-138469714D01*
X124336787Y-138679767D01*
X124336777Y-138679786D01*
X124243946Y-138903900D01*
X124243944Y-138903904D01*
X124181160Y-139138217D01*
X124149500Y-139378709D01*
X122100500Y-139378709D01*
X122100500Y-124954597D01*
X122587000Y-124954597D01*
X122593505Y-125015094D01*
X122627772Y-125106968D01*
X122632836Y-125177784D01*
X122627772Y-125195032D01*
X122593505Y-125286905D01*
X122587000Y-125347402D01*
X122587000Y-125857000D01*
X124091000Y-125857000D01*
X124091000Y-124445000D01*
X122587000Y-124445000D01*
X122587000Y-124954597D01*
X122100500Y-124954597D01*
X122100500Y-123427402D01*
X122587000Y-123427402D01*
X122587000Y-123937000D01*
X124219000Y-123937000D01*
X124287121Y-123957002D01*
X124333614Y-124010658D01*
X124345000Y-124063000D01*
X124345000Y-124191000D01*
X124473000Y-124191000D01*
X124541121Y-124211002D01*
X124587614Y-124264658D01*
X124599000Y-124317000D01*
X124599000Y-125985000D01*
X124578998Y-126053121D01*
X124525342Y-126099614D01*
X124473000Y-126111000D01*
X124345000Y-126111000D01*
X124345000Y-126239000D01*
X124324998Y-126307121D01*
X124271342Y-126353614D01*
X124219000Y-126365000D01*
X122587000Y-126365000D01*
X122587000Y-126874597D01*
X122593505Y-126935093D01*
X122644555Y-127071964D01*
X122644555Y-127071965D01*
X122732095Y-127188904D01*
X122849034Y-127276444D01*
X122985906Y-127327494D01*
X123046402Y-127333999D01*
X123046415Y-127334000D01*
X123200427Y-127334000D01*
X123268548Y-127354002D01*
X123315041Y-127407658D01*
X123325145Y-127477932D01*
X123320260Y-127498937D01*
X123286129Y-127603977D01*
X123282484Y-127627000D01*
X124124025Y-127627000D01*
X124084930Y-127666095D01*
X124038852Y-127745905D01*
X124015000Y-127834922D01*
X124015000Y-127927078D01*
X124038852Y-128016095D01*
X124084930Y-128095905D01*
X124124025Y-128135000D01*
X123282484Y-128135000D01*
X123286129Y-128158022D01*
X123343670Y-128335112D01*
X123428210Y-128501030D01*
X123537660Y-128651675D01*
X123537662Y-128651678D01*
X123669321Y-128783337D01*
X123669324Y-128783339D01*
X123819969Y-128892789D01*
X123985887Y-128977329D01*
X124162976Y-129034869D01*
X124346899Y-129064000D01*
X124361000Y-129064000D01*
X124361000Y-128231000D01*
X124869000Y-128231000D01*
X124869000Y-129084000D01*
X125322978Y-129084000D01*
X125391099Y-129104002D01*
X125437592Y-129157658D01*
X125441034Y-129165967D01*
X125494556Y-129309466D01*
X125582095Y-129426404D01*
X125699034Y-129513944D01*
X125835906Y-129564994D01*
X125896402Y-129571499D01*
X125896415Y-129571500D01*
X126041000Y-129571500D01*
X126549000Y-129571500D01*
X126693585Y-129571500D01*
X126693597Y-129571499D01*
X126754095Y-129564994D01*
X126761765Y-129563182D01*
X126762044Y-129564364D01*
X126810129Y-129558324D01*
X126816410Y-129558999D01*
X126816412Y-129559000D01*
X127361000Y-129559000D01*
X127869000Y-129559000D01*
X128413585Y-129559000D01*
X128413597Y-129558999D01*
X128474093Y-129552494D01*
X128610964Y-129501444D01*
X128610965Y-129501444D01*
X128727904Y-129413904D01*
X128815444Y-129296965D01*
X128815444Y-129296964D01*
X128866494Y-129160093D01*
X128872999Y-129099597D01*
X128873000Y-129099585D01*
X128873000Y-128305000D01*
X127869000Y-128305000D01*
X127869000Y-129559000D01*
X127361000Y-129559000D01*
X127361000Y-128305000D01*
X126549000Y-128305000D01*
X126549000Y-129571500D01*
X126041000Y-129571500D01*
X126041000Y-128155000D01*
X125671000Y-128155000D01*
X125602879Y-128134998D01*
X125556386Y-128081342D01*
X125545000Y-128029000D01*
X125545000Y-127773000D01*
X125565002Y-127704879D01*
X125618658Y-127658386D01*
X125671000Y-127647000D01*
X127059000Y-127647000D01*
X127102307Y-127659716D01*
X127112149Y-127696445D01*
X127154936Y-127770554D01*
X127215446Y-127831064D01*
X127289555Y-127873851D01*
X127372213Y-127896000D01*
X127857787Y-127896000D01*
X127940445Y-127873851D01*
X128014554Y-127831064D01*
X128075064Y-127770554D01*
X128117851Y-127696445D01*
X128140000Y-127613787D01*
X128140000Y-127528213D01*
X128117851Y-127445555D01*
X128075064Y-127371446D01*
X128020618Y-127317000D01*
X128873000Y-127317000D01*
X128873000Y-127002414D01*
X128872999Y-127002402D01*
X128866494Y-126941906D01*
X128826004Y-126833346D01*
X128821331Y-126768004D01*
X128820652Y-126767931D01*
X128821056Y-126764165D01*
X128820940Y-126762531D01*
X128821438Y-126760336D01*
X128821494Y-126760098D01*
X128827999Y-126699597D01*
X128828000Y-126699585D01*
X128828000Y-126651000D01*
X128678793Y-126651000D01*
X128656357Y-126644412D01*
X128633065Y-126642409D01*
X128622941Y-126634600D01*
X128610672Y-126630998D01*
X128595360Y-126613327D01*
X128576848Y-126599049D01*
X128572552Y-126587005D01*
X128564179Y-126577342D01*
X128560851Y-126554196D01*
X128552998Y-126532178D01*
X128555894Y-126519726D01*
X128554075Y-126507068D01*
X128563787Y-126485800D01*
X128569086Y-126463028D01*
X128579703Y-126450951D01*
X128583569Y-126442488D01*
X128590990Y-126434631D01*
X128596804Y-126428982D01*
X128683261Y-126364261D01*
X128736197Y-126293546D01*
X128743315Y-126286631D01*
X128766287Y-126274513D01*
X128787085Y-126258944D01*
X128800334Y-126256553D01*
X128806110Y-126253507D01*
X128813634Y-126254154D01*
X128827314Y-126251686D01*
X128828000Y-126251001D01*
X128828000Y-126202414D01*
X128827999Y-126202404D01*
X128821485Y-126141821D01*
X128820844Y-126123837D01*
X128821263Y-126112147D01*
X128821989Y-126110201D01*
X128828500Y-126049638D01*
X128828500Y-125910246D01*
X128828581Y-125907987D01*
X128839110Y-125876364D01*
X128848502Y-125844379D01*
X128850270Y-125842846D01*
X128851010Y-125840626D01*
X128876964Y-125819716D01*
X128902158Y-125797886D01*
X128904765Y-125797318D01*
X128906297Y-125796085D01*
X128914473Y-125795207D01*
X128954500Y-125786500D01*
X139610040Y-125786500D01*
X139610041Y-125786500D01*
X139732819Y-125762078D01*
X139848472Y-125714173D01*
X139952558Y-125644625D01*
X140773743Y-124823440D01*
X145148600Y-124823440D01*
X145148600Y-124991163D01*
X145181319Y-125155652D01*
X145245496Y-125310586D01*
X145245498Y-125310590D01*
X145245499Y-125310591D01*
X145338674Y-125450038D01*
X145338675Y-125450039D01*
X145342113Y-125455184D01*
X145340088Y-125456536D01*
X145363649Y-125511971D01*
X145364500Y-125526589D01*
X145364500Y-133437409D01*
X145364500Y-133562591D01*
X145388922Y-133685369D01*
X145436827Y-133801022D01*
X145506375Y-133905108D01*
X145506377Y-133905110D01*
X146804595Y-135203328D01*
X146838621Y-135265640D01*
X146841500Y-135292422D01*
X146841500Y-135537212D01*
X146851937Y-135639380D01*
X146906791Y-135804920D01*
X146998342Y-135953346D01*
X146998347Y-135953352D01*
X147121647Y-136076652D01*
X147121653Y-136076657D01*
X147121654Y-136076658D01*
X147270080Y-136168209D01*
X147435619Y-136223062D01*
X147537787Y-136233500D01*
X148212212Y-136233499D01*
X148314381Y-136223062D01*
X148479920Y-136168209D01*
X148628346Y-136076658D01*
X148660905Y-136044098D01*
X148723215Y-136010074D01*
X148794031Y-136015138D01*
X148839094Y-136044098D01*
X148871654Y-136076658D01*
X149020080Y-136168209D01*
X149185619Y-136223062D01*
X149287787Y-136233500D01*
X149962212Y-136233499D01*
X150064381Y-136223062D01*
X150229920Y-136168209D01*
X150378346Y-136076658D01*
X150501658Y-135953346D01*
X150593209Y-135804920D01*
X150648062Y-135639381D01*
X150658500Y-135537213D01*
X150658499Y-134962788D01*
X150648062Y-134860619D01*
X150593209Y-134695080D01*
X150501658Y-134546654D01*
X150501657Y-134546653D01*
X150501652Y-134546647D01*
X150378352Y-134423347D01*
X150378343Y-134423340D01*
X150320352Y-134387570D01*
X150313417Y-134379860D01*
X150303988Y-134375554D01*
X150290081Y-134353915D01*
X150272874Y-134334784D01*
X150270186Y-134322959D01*
X150265604Y-134315828D01*
X150260500Y-134280330D01*
X150260500Y-134036859D01*
X150280502Y-133968738D01*
X150334158Y-133922245D01*
X150346848Y-133917261D01*
X150422738Y-133892115D01*
X150573652Y-133799030D01*
X150699030Y-133673652D01*
X150792115Y-133522738D01*
X150847887Y-133354426D01*
X150858500Y-133250545D01*
X150858499Y-132249456D01*
X150847887Y-132145574D01*
X150792115Y-131977262D01*
X150699030Y-131826348D01*
X150699027Y-131826345D01*
X150699024Y-131826341D01*
X150573658Y-131700975D01*
X150573652Y-131700970D01*
X150567741Y-131697324D01*
X150422738Y-131607885D01*
X150338582Y-131579999D01*
X150254427Y-131552113D01*
X150254420Y-131552112D01*
X150150553Y-131541500D01*
X149399455Y-131541500D01*
X149295574Y-131552112D01*
X149127261Y-131607885D01*
X148976347Y-131700970D01*
X148976341Y-131700975D01*
X148850971Y-131826345D01*
X148848511Y-131829457D01*
X148846281Y-131831035D01*
X148845780Y-131831537D01*
X148845694Y-131831451D01*
X148790568Y-131870483D01*
X148719643Y-131873671D01*
X148658254Y-131838008D01*
X148650837Y-131829446D01*
X148648632Y-131826657D01*
X148523345Y-131701370D01*
X148523339Y-131701365D01*
X148372525Y-131608342D01*
X148204321Y-131552606D01*
X148204318Y-131552605D01*
X148100516Y-131542000D01*
X147979000Y-131542000D01*
X147979000Y-133958000D01*
X148100517Y-133958000D01*
X148100516Y-133957999D01*
X148204318Y-133947394D01*
X148204321Y-133947393D01*
X148372525Y-133891657D01*
X148523339Y-133798634D01*
X148523345Y-133798629D01*
X148648624Y-133673350D01*
X148650832Y-133670558D01*
X148652837Y-133669137D01*
X148653825Y-133668150D01*
X148653993Y-133668318D01*
X148664697Y-133660737D01*
X148674987Y-133647221D01*
X148693066Y-133640643D01*
X148708768Y-133629522D01*
X148725739Y-133628756D01*
X148741705Y-133622948D01*
X148760472Y-133627189D01*
X148779693Y-133626323D01*
X148794904Y-133634972D01*
X148810955Y-133638600D01*
X148830455Y-133655186D01*
X148839491Y-133660324D01*
X148848222Y-133669198D01*
X148850970Y-133673652D01*
X148952944Y-133775626D01*
X148953313Y-133776001D01*
X148969851Y-133806879D01*
X148986621Y-133837590D01*
X148986701Y-133838340D01*
X148986833Y-133838586D01*
X148986788Y-133839146D01*
X148989500Y-133864373D01*
X148989500Y-134280330D01*
X148969498Y-134348451D01*
X148929648Y-134387570D01*
X148871656Y-134423340D01*
X148871647Y-134423347D01*
X148839095Y-134455900D01*
X148776783Y-134489926D01*
X148705968Y-134484861D01*
X148660905Y-134455900D01*
X148628352Y-134423347D01*
X148628346Y-134423342D01*
X148515788Y-134353915D01*
X148479920Y-134331791D01*
X148314381Y-134276938D01*
X148314379Y-134276937D01*
X148314377Y-134276937D01*
X148212221Y-134266500D01*
X148212213Y-134266500D01*
X147717423Y-134266500D01*
X147649302Y-134246498D01*
X147628328Y-134229595D01*
X147502962Y-134104229D01*
X147468936Y-134041917D01*
X147471205Y-134010191D01*
X147471000Y-134010191D01*
X147471000Y-131542000D01*
X147349483Y-131542000D01*
X147245681Y-131552605D01*
X147245678Y-131552606D01*
X147077474Y-131608342D01*
X146926660Y-131701365D01*
X146926654Y-131701370D01*
X146850595Y-131777430D01*
X146788283Y-131811456D01*
X146717468Y-131806391D01*
X146660632Y-131763844D01*
X146635821Y-131697324D01*
X146635500Y-131688335D01*
X146635500Y-125526589D01*
X146640935Y-125508075D01*
X146641305Y-125488785D01*
X146652878Y-125467401D01*
X146655502Y-125458468D01*
X146656824Y-125456454D01*
X146660710Y-125450653D01*
X146661326Y-125450038D01*
X146683977Y-125416138D01*
X147148600Y-125416138D01*
X147148600Y-125583861D01*
X147181319Y-125748350D01*
X147245496Y-125903284D01*
X147245498Y-125903288D01*
X147245499Y-125903289D01*
X147338674Y-126042736D01*
X147457264Y-126161326D01*
X147518742Y-126202404D01*
X147596711Y-126254501D01*
X147596715Y-126254503D01*
X147751649Y-126318680D01*
X147751653Y-126318680D01*
X147751656Y-126318682D01*
X147851651Y-126338571D01*
X147922215Y-126352608D01*
X147921741Y-126354989D01*
X147977620Y-126377551D01*
X147988537Y-126387270D01*
X153877595Y-132276328D01*
X153911621Y-132338640D01*
X153914500Y-132365423D01*
X153914500Y-137780014D01*
X153894498Y-137848135D01*
X153854648Y-137887253D01*
X153802698Y-137919297D01*
X153751347Y-137950970D01*
X153751341Y-137950975D01*
X153625972Y-138076344D01*
X153623834Y-138079049D01*
X153621895Y-138080421D01*
X153620780Y-138081537D01*
X153620589Y-138081346D01*
X153565892Y-138120076D01*
X153494967Y-138123264D01*
X153433577Y-138087602D01*
X153426166Y-138079049D01*
X153424027Y-138076344D01*
X153298658Y-137950975D01*
X153298652Y-137950970D01*
X153259450Y-137926790D01*
X153147738Y-137857885D01*
X153044407Y-137823645D01*
X152979427Y-137802113D01*
X152979420Y-137802112D01*
X152875553Y-137791500D01*
X152124455Y-137791500D01*
X152020574Y-137802112D01*
X151852259Y-137857886D01*
X151748605Y-137921820D01*
X151730440Y-137926790D01*
X151714294Y-137936491D01*
X151696903Y-137935966D01*
X151680125Y-137940557D01*
X151662155Y-137934917D01*
X151643329Y-137934349D01*
X151628983Y-137924506D01*
X151612387Y-137919297D01*
X151600319Y-137904838D01*
X151584788Y-137894181D01*
X151568106Y-137866240D01*
X151566896Y-137864790D01*
X151566318Y-137863439D01*
X151566224Y-137863217D01*
X151554501Y-137834914D01*
X151554005Y-137834172D01*
X151551376Y-137827922D01*
X151548016Y-137798222D01*
X151541922Y-137768973D01*
X151543933Y-137762121D01*
X151543397Y-137757376D01*
X151548159Y-137747728D01*
X151553512Y-137729499D01*
X151552132Y-137728928D01*
X151571918Y-137681160D01*
X151618682Y-137568264D01*
X151651400Y-137403776D01*
X151651400Y-137236064D01*
X151618682Y-137071576D01*
X151618680Y-137071573D01*
X151618680Y-137071569D01*
X151554503Y-136916635D01*
X151554501Y-136916631D01*
X151461326Y-136777184D01*
X151342736Y-136658594D01*
X151203289Y-136565419D01*
X151203290Y-136565419D01*
X151203288Y-136565418D01*
X151203284Y-136565416D01*
X151048350Y-136501239D01*
X150883861Y-136468520D01*
X150883856Y-136468520D01*
X150716144Y-136468520D01*
X150716138Y-136468520D01*
X150551649Y-136501239D01*
X150396715Y-136565416D01*
X150396711Y-136565418D01*
X150257262Y-136658595D01*
X150257254Y-136658602D01*
X150232203Y-136683652D01*
X150169890Y-136717675D01*
X150129646Y-136719832D01*
X150098657Y-136716501D01*
X150098641Y-136716500D01*
X150098638Y-136716500D01*
X149401362Y-136716500D01*
X149401350Y-136716500D01*
X149340803Y-136723009D01*
X149340795Y-136723011D01*
X149203797Y-136774110D01*
X149203792Y-136774112D01*
X149086738Y-136861738D01*
X148999112Y-136978792D01*
X148999110Y-136978797D01*
X148948011Y-137115795D01*
X148948009Y-137115803D01*
X148941500Y-137176350D01*
X148941500Y-137823630D01*
X148941501Y-137823654D01*
X148945573Y-137861534D01*
X148945573Y-137888466D01*
X148941501Y-137926345D01*
X148941500Y-137926369D01*
X148941500Y-138573630D01*
X148941501Y-138573654D01*
X148945573Y-138611534D01*
X148945573Y-138638466D01*
X148941501Y-138676345D01*
X148941500Y-138676369D01*
X148941500Y-139323630D01*
X148941501Y-139323654D01*
X148945573Y-139361534D01*
X148945573Y-139388466D01*
X148941501Y-139426345D01*
X148941500Y-139426369D01*
X148941500Y-140073630D01*
X148941501Y-140073654D01*
X148945573Y-140111534D01*
X148945573Y-140138466D01*
X148941501Y-140176345D01*
X148941500Y-140176369D01*
X148941500Y-140823630D01*
X148941501Y-140823654D01*
X148945573Y-140861534D01*
X148945573Y-140888466D01*
X148941501Y-140926345D01*
X148941500Y-140926369D01*
X148941500Y-141573649D01*
X148948009Y-141634196D01*
X148948011Y-141634204D01*
X148999110Y-141771202D01*
X148999112Y-141771207D01*
X149086738Y-141888261D01*
X149203792Y-141975887D01*
X149203794Y-141975888D01*
X149203796Y-141975889D01*
X149262875Y-141997924D01*
X149340795Y-142026988D01*
X149340803Y-142026990D01*
X149401350Y-142033499D01*
X149401355Y-142033499D01*
X149401362Y-142033500D01*
X149401368Y-142033500D01*
X150098632Y-142033500D01*
X150098638Y-142033500D01*
X150098645Y-142033499D01*
X150098649Y-142033499D01*
X150159196Y-142026990D01*
X150159199Y-142026989D01*
X150159201Y-142026989D01*
X150296204Y-141975889D01*
X150383377Y-141910631D01*
X150449897Y-141885821D01*
X150458886Y-141885500D01*
X151485627Y-141885500D01*
X151553748Y-141905502D01*
X151574722Y-141922405D01*
X151701341Y-142049024D01*
X151701347Y-142049029D01*
X151701348Y-142049030D01*
X151852262Y-142142115D01*
X152020574Y-142197887D01*
X152124455Y-142208500D01*
X152875544Y-142208499D01*
X152979426Y-142197887D01*
X153147738Y-142142115D01*
X153298652Y-142049030D01*
X153424030Y-141923652D01*
X153424031Y-141923649D01*
X153426162Y-141920956D01*
X153428098Y-141919584D01*
X153429220Y-141918463D01*
X153429411Y-141918654D01*
X153484101Y-141879925D01*
X153555026Y-141876733D01*
X153616418Y-141912392D01*
X153623838Y-141920956D01*
X153625971Y-141923654D01*
X153751341Y-142049024D01*
X153751347Y-142049029D01*
X153751348Y-142049030D01*
X153902262Y-142142115D01*
X154070574Y-142197887D01*
X154174455Y-142208500D01*
X154925544Y-142208499D01*
X155029426Y-142197887D01*
X155197738Y-142142115D01*
X155348652Y-142049030D01*
X155474030Y-141923652D01*
X155525769Y-141839770D01*
X155578554Y-141792293D01*
X155648629Y-141780890D01*
X155681228Y-141789510D01*
X155751649Y-141818680D01*
X155751653Y-141818680D01*
X155751656Y-141818682D01*
X155857680Y-141839771D01*
X155916138Y-141851399D01*
X155916141Y-141851399D01*
X155916144Y-141851400D01*
X155916145Y-141851400D01*
X156083855Y-141851400D01*
X156083856Y-141851400D01*
X156248344Y-141818682D01*
X156248347Y-141818680D01*
X156248350Y-141818680D01*
X156403284Y-141754503D01*
X156403283Y-141754503D01*
X156403289Y-141754501D01*
X156542736Y-141661326D01*
X156661326Y-141542736D01*
X156754501Y-141403289D01*
X156795835Y-141303502D01*
X156818680Y-141248350D01*
X156818680Y-141248347D01*
X156818682Y-141248344D01*
X156851400Y-141083856D01*
X156851400Y-140916144D01*
X156850971Y-140913989D01*
X156828159Y-140799303D01*
X156818682Y-140751656D01*
X156818680Y-140751653D01*
X156818680Y-140751649D01*
X156754503Y-140596715D01*
X156754501Y-140596711D01*
X156730959Y-140561478D01*
X156661326Y-140457264D01*
X156542736Y-140338674D01*
X156472538Y-140291770D01*
X156403288Y-140245498D01*
X156403284Y-140245496D01*
X156248350Y-140181319D01*
X156083861Y-140148600D01*
X156083856Y-140148600D01*
X155916144Y-140148600D01*
X155916138Y-140148600D01*
X155751651Y-140181319D01*
X155681227Y-140210490D01*
X155647275Y-140214140D01*
X155613430Y-140218550D01*
X155612100Y-140217921D01*
X155610637Y-140218079D01*
X155580083Y-140202785D01*
X155549245Y-140188206D01*
X155548004Y-140186727D01*
X155547150Y-140186300D01*
X155526120Y-140160794D01*
X155525863Y-140160382D01*
X155474030Y-140076348D01*
X155472392Y-140074710D01*
X155467401Y-140066713D01*
X155459662Y-140039007D01*
X155448894Y-140012324D01*
X155450235Y-140005259D01*
X155448301Y-139998334D01*
X155456770Y-139970841D01*
X155462137Y-139942574D01*
X155468553Y-139932589D01*
X155469202Y-139930484D01*
X155470481Y-139929404D01*
X155474027Y-139923654D01*
X155474030Y-139923652D01*
X155567115Y-139772738D01*
X155622887Y-139604426D01*
X155633260Y-139502898D01*
X155633500Y-139500553D01*
X155633500Y-139378709D01*
X169149500Y-139378709D01*
X169149500Y-139621290D01*
X169181160Y-139861782D01*
X169243944Y-140096095D01*
X169243945Y-140096097D01*
X169243946Y-140096100D01*
X169336776Y-140320212D01*
X169336777Y-140320213D01*
X169336782Y-140320224D01*
X169458061Y-140530285D01*
X169458063Y-140530288D01*
X169458064Y-140530289D01*
X169605735Y-140722738D01*
X169605739Y-140722742D01*
X169605744Y-140722748D01*
X169777251Y-140894255D01*
X169777256Y-140894259D01*
X169777262Y-140894265D01*
X169969711Y-141041936D01*
X169969714Y-141041938D01*
X170179775Y-141163217D01*
X170179779Y-141163218D01*
X170179788Y-141163224D01*
X170403900Y-141256054D01*
X170638211Y-141318838D01*
X170638215Y-141318838D01*
X170638217Y-141318839D01*
X170700202Y-141326999D01*
X170878712Y-141350500D01*
X170878719Y-141350500D01*
X171121281Y-141350500D01*
X171121288Y-141350500D01*
X171338637Y-141321885D01*
X171361782Y-141318839D01*
X171361782Y-141318838D01*
X171361789Y-141318838D01*
X171596100Y-141256054D01*
X171820212Y-141163224D01*
X172030289Y-141041936D01*
X172222738Y-140894265D01*
X172394265Y-140722738D01*
X172541936Y-140530289D01*
X172663224Y-140320212D01*
X172756054Y-140096100D01*
X172818838Y-139861789D01*
X172850500Y-139621288D01*
X172850500Y-139378712D01*
X172818838Y-139138211D01*
X172756054Y-138903900D01*
X172663224Y-138679788D01*
X172663218Y-138679777D01*
X172663213Y-138679767D01*
X172541938Y-138469714D01*
X172541936Y-138469711D01*
X172394265Y-138277262D01*
X172394259Y-138277256D01*
X172394255Y-138277251D01*
X172222748Y-138105744D01*
X172222742Y-138105739D01*
X172222738Y-138105735D01*
X172030289Y-137958064D01*
X172030288Y-137958063D01*
X172030285Y-137958061D01*
X171820224Y-137836782D01*
X171820216Y-137836778D01*
X171820212Y-137836776D01*
X171596100Y-137743946D01*
X171596097Y-137743945D01*
X171596095Y-137743944D01*
X171361782Y-137681160D01*
X171121290Y-137649500D01*
X171121288Y-137649500D01*
X170878712Y-137649500D01*
X170878709Y-137649500D01*
X170638217Y-137681160D01*
X170403904Y-137743944D01*
X170403900Y-137743946D01*
X170184284Y-137834914D01*
X170179786Y-137836777D01*
X170179775Y-137836782D01*
X169969714Y-137958061D01*
X169777262Y-138105735D01*
X169777251Y-138105744D01*
X169605744Y-138277251D01*
X169605735Y-138277262D01*
X169458061Y-138469714D01*
X169336787Y-138679767D01*
X169336777Y-138679786D01*
X169243946Y-138903900D01*
X169243944Y-138903904D01*
X169181160Y-139138217D01*
X169149500Y-139378709D01*
X155633500Y-139378709D01*
X155633500Y-139374587D01*
X155633499Y-138499455D01*
X155622887Y-138395574D01*
X155583679Y-138277251D01*
X155567115Y-138227262D01*
X155474030Y-138076348D01*
X155474027Y-138076345D01*
X155474024Y-138076341D01*
X155348658Y-137950975D01*
X155348652Y-137950970D01*
X155309450Y-137926790D01*
X155245351Y-137887253D01*
X155197875Y-137834469D01*
X155185500Y-137780014D01*
X155185500Y-131987410D01*
X155185499Y-131987406D01*
X155161078Y-131864631D01*
X155113173Y-131748978D01*
X155043625Y-131644892D01*
X154955108Y-131556375D01*
X148887270Y-125488537D01*
X148853244Y-125426225D01*
X148852612Y-125422214D01*
X148852608Y-125422215D01*
X148836218Y-125339819D01*
X148818682Y-125251656D01*
X148818680Y-125251653D01*
X148818680Y-125251649D01*
X148754503Y-125096715D01*
X148754501Y-125096711D01*
X148661326Y-124957264D01*
X148542736Y-124838674D01*
X148472538Y-124791770D01*
X148403288Y-124745498D01*
X148403284Y-124745496D01*
X148248350Y-124681319D01*
X148083861Y-124648600D01*
X148083856Y-124648600D01*
X147916144Y-124648600D01*
X147916138Y-124648600D01*
X147751649Y-124681319D01*
X147596715Y-124745496D01*
X147596711Y-124745498D01*
X147457265Y-124838673D01*
X147457259Y-124838678D01*
X147338678Y-124957259D01*
X147338673Y-124957265D01*
X147245498Y-125096711D01*
X147245496Y-125096715D01*
X147181319Y-125251649D01*
X147148600Y-125416138D01*
X146683977Y-125416138D01*
X146754501Y-125310591D01*
X146818682Y-125155646D01*
X146851400Y-124991158D01*
X146851400Y-124823446D01*
X146848765Y-124810201D01*
X146835896Y-124745499D01*
X146818682Y-124658958D01*
X146818680Y-124658955D01*
X146818680Y-124658951D01*
X146754503Y-124504017D01*
X146754501Y-124504013D01*
X146715070Y-124445000D01*
X146661326Y-124364566D01*
X146542736Y-124245976D01*
X146403289Y-124152801D01*
X146403290Y-124152801D01*
X146403288Y-124152800D01*
X146403284Y-124152798D01*
X146248350Y-124088621D01*
X146083861Y-124055902D01*
X146083856Y-124055902D01*
X145916144Y-124055902D01*
X145916138Y-124055902D01*
X145751649Y-124088621D01*
X145596715Y-124152798D01*
X145596711Y-124152800D01*
X145457265Y-124245975D01*
X145457259Y-124245980D01*
X145338678Y-124364561D01*
X145338673Y-124364567D01*
X145245498Y-124504013D01*
X145245496Y-124504017D01*
X145181319Y-124658951D01*
X145148600Y-124823440D01*
X140773743Y-124823440D01*
X150493625Y-115103558D01*
X150563173Y-114999472D01*
X150611078Y-114883819D01*
X150618318Y-114847417D01*
X150651225Y-114784509D01*
X150712920Y-114749377D01*
X150741897Y-114746000D01*
X150846000Y-114746000D01*
X150846000Y-113664000D01*
X150866002Y-113595879D01*
X150919658Y-113549386D01*
X150972000Y-113538000D01*
X151228000Y-113538000D01*
X151296121Y-113558002D01*
X151342614Y-113611658D01*
X151354000Y-113664000D01*
X151354000Y-114746000D01*
X151475517Y-114746000D01*
X151475516Y-114745999D01*
X151579318Y-114735394D01*
X151579321Y-114735393D01*
X151747525Y-114679657D01*
X151898339Y-114586634D01*
X151898345Y-114586629D01*
X152023624Y-114461350D01*
X152025832Y-114458558D01*
X152027837Y-114457137D01*
X152028825Y-114456150D01*
X152028993Y-114456318D01*
X152083768Y-114417522D01*
X152154693Y-114414323D01*
X152216088Y-114449976D01*
X152223515Y-114458547D01*
X152225974Y-114461657D01*
X152351341Y-114587024D01*
X152351347Y-114587029D01*
X152351348Y-114587030D01*
X152502262Y-114680115D01*
X152670574Y-114735887D01*
X152774455Y-114746500D01*
X153525544Y-114746499D01*
X153629426Y-114735887D01*
X153797738Y-114680115D01*
X153948652Y-114587030D01*
X154074030Y-114461652D01*
X154167115Y-114310738D01*
X154222887Y-114142426D01*
X154233500Y-114038545D01*
X154233499Y-113037456D01*
X154228769Y-112991158D01*
X154222887Y-112933574D01*
X154214494Y-112908245D01*
X154167115Y-112765262D01*
X154074030Y-112614348D01*
X154074029Y-112614347D01*
X154074024Y-112614341D01*
X153948658Y-112488975D01*
X153948652Y-112488970D01*
X153797738Y-112395885D01*
X153736267Y-112375516D01*
X169792000Y-112375516D01*
X169802605Y-112479318D01*
X169802606Y-112479321D01*
X169858342Y-112647525D01*
X169951365Y-112798339D01*
X169951370Y-112798345D01*
X170076654Y-112923629D01*
X170076660Y-112923634D01*
X170227474Y-113016657D01*
X170395678Y-113072393D01*
X170395681Y-113072394D01*
X170499483Y-113082999D01*
X170499483Y-113083000D01*
X170746000Y-113083000D01*
X171254000Y-113083000D01*
X171500517Y-113083000D01*
X171500516Y-113082999D01*
X171604318Y-113072394D01*
X171604321Y-113072393D01*
X171772525Y-113016657D01*
X171917911Y-112926982D01*
X171986390Y-112908245D01*
X172054129Y-112929504D01*
X172073153Y-112945128D01*
X172076654Y-112948629D01*
X172076660Y-112948634D01*
X172227474Y-113041657D01*
X172395678Y-113097393D01*
X172395681Y-113097394D01*
X172499483Y-113107999D01*
X172499483Y-113108000D01*
X172746000Y-113108000D01*
X173254000Y-113108000D01*
X173500517Y-113108000D01*
X173500516Y-113107999D01*
X173604318Y-113097394D01*
X173604321Y-113097393D01*
X173772525Y-113041657D01*
X173923339Y-112948634D01*
X173923345Y-112948629D01*
X174048629Y-112823345D01*
X174048634Y-112823339D01*
X174141657Y-112672525D01*
X174197393Y-112504321D01*
X174197394Y-112504318D01*
X174207999Y-112400516D01*
X174208000Y-112400516D01*
X174208000Y-112279000D01*
X173254000Y-112279000D01*
X173254000Y-113108000D01*
X172746000Y-113108000D01*
X172746000Y-112279000D01*
X171737191Y-112279000D01*
X171669070Y-112258998D01*
X171662868Y-112254000D01*
X171254000Y-112254000D01*
X171254000Y-113083000D01*
X170746000Y-113083000D01*
X170746000Y-112254000D01*
X169792000Y-112254000D01*
X169792000Y-112375516D01*
X153736267Y-112375516D01*
X153703222Y-112364566D01*
X153629427Y-112340113D01*
X153629420Y-112340112D01*
X153525553Y-112329500D01*
X153525545Y-112329500D01*
X152892423Y-112329500D01*
X152862507Y-112320716D01*
X152832038Y-112314088D01*
X152826942Y-112310273D01*
X152824302Y-112309498D01*
X152803328Y-112292595D01*
X152172405Y-111661672D01*
X152138379Y-111599360D01*
X152135500Y-111572577D01*
X152135500Y-110667910D01*
X152155502Y-110599789D01*
X152209158Y-110553296D01*
X152261500Y-110541910D01*
X165031180Y-110541910D01*
X165031181Y-110541910D01*
X165153959Y-110517488D01*
X165269612Y-110469583D01*
X165373698Y-110400035D01*
X165857595Y-109916138D01*
X167398600Y-109916138D01*
X167398600Y-110083861D01*
X167431319Y-110248350D01*
X167495496Y-110403284D01*
X167495498Y-110403288D01*
X167495499Y-110403289D01*
X167588674Y-110542736D01*
X167707264Y-110661326D01*
X167837957Y-110748652D01*
X167846711Y-110754501D01*
X167846715Y-110754503D01*
X168001649Y-110818680D01*
X168001653Y-110818680D01*
X168001656Y-110818682D01*
X168126416Y-110843497D01*
X168166138Y-110851399D01*
X168166141Y-110851399D01*
X168166144Y-110851400D01*
X168166145Y-110851400D01*
X168333855Y-110851400D01*
X168333856Y-110851400D01*
X168498344Y-110818682D01*
X168498347Y-110818680D01*
X168498350Y-110818680D01*
X168653284Y-110754503D01*
X168653283Y-110754503D01*
X168653289Y-110754501D01*
X168792736Y-110661326D01*
X168831657Y-110622405D01*
X168893969Y-110588379D01*
X168920752Y-110585500D01*
X169780014Y-110585500D01*
X169848135Y-110605502D01*
X169887253Y-110645351D01*
X169897104Y-110661321D01*
X169950970Y-110748652D01*
X169950975Y-110748658D01*
X170076345Y-110874028D01*
X170079450Y-110876483D01*
X170081027Y-110878710D01*
X170081537Y-110879220D01*
X170081449Y-110879307D01*
X170120481Y-110934422D01*
X170123673Y-111005347D01*
X170088014Y-111066739D01*
X170079454Y-111074157D01*
X170076654Y-111076370D01*
X169951370Y-111201654D01*
X169951365Y-111201660D01*
X169858342Y-111352474D01*
X169802606Y-111520678D01*
X169802605Y-111520681D01*
X169792000Y-111624483D01*
X169792000Y-111746000D01*
X172262809Y-111746000D01*
X172330930Y-111766002D01*
X172337132Y-111771000D01*
X174208000Y-111771000D01*
X174208000Y-111649483D01*
X174197394Y-111545681D01*
X174197393Y-111545678D01*
X174141657Y-111377474D01*
X174048634Y-111226660D01*
X174048629Y-111226654D01*
X173923344Y-111101369D01*
X173920551Y-111099161D01*
X173919131Y-111097156D01*
X173918150Y-111096175D01*
X173918317Y-111096007D01*
X173879519Y-111041222D01*
X173876325Y-110970298D01*
X173911983Y-110908905D01*
X173920554Y-110901478D01*
X173923639Y-110899037D01*
X173923652Y-110899030D01*
X174049030Y-110773652D01*
X174142115Y-110622738D01*
X174197887Y-110454426D01*
X174208500Y-110350545D01*
X174208499Y-109599456D01*
X174197887Y-109495574D01*
X174142115Y-109327262D01*
X174049030Y-109176348D01*
X174049029Y-109176347D01*
X174049024Y-109176341D01*
X173923658Y-109050975D01*
X173923652Y-109050970D01*
X173847873Y-109004229D01*
X173772738Y-108957885D01*
X173646770Y-108916144D01*
X173604427Y-108902113D01*
X173604420Y-108902112D01*
X173500553Y-108891500D01*
X173500545Y-108891500D01*
X172867423Y-108891500D01*
X172851699Y-108886883D01*
X172835318Y-108887341D01*
X172816569Y-108876568D01*
X172799302Y-108871498D01*
X172790929Y-108861835D01*
X172778328Y-108854595D01*
X172697328Y-108773595D01*
X172663302Y-108711283D01*
X172668367Y-108640468D01*
X172710914Y-108583632D01*
X172777434Y-108558821D01*
X172786423Y-108558500D01*
X172823633Y-108558500D01*
X172823638Y-108558500D01*
X172863886Y-108554173D01*
X172890821Y-108554173D01*
X172926406Y-108557999D01*
X172926413Y-108558000D01*
X172996001Y-108558000D01*
X173006319Y-108547681D01*
X173016002Y-108514706D01*
X173046491Y-108481959D01*
X173079479Y-108457265D01*
X173138261Y-108413261D01*
X173188038Y-108346767D01*
X173225887Y-108296207D01*
X173225889Y-108296203D01*
X173225890Y-108296202D01*
X173252435Y-108225032D01*
X173259945Y-108204898D01*
X173302491Y-108148062D01*
X173369012Y-108123252D01*
X173438386Y-108138344D01*
X173488588Y-108188546D01*
X173504000Y-108248931D01*
X173504000Y-108558000D01*
X173573585Y-108558000D01*
X173573597Y-108557999D01*
X173634093Y-108551494D01*
X173770964Y-108500444D01*
X173770965Y-108500444D01*
X173887904Y-108412904D01*
X173975444Y-108295965D01*
X173975444Y-108295964D01*
X174026494Y-108159093D01*
X174032999Y-108098597D01*
X174033000Y-108098585D01*
X174033000Y-108004000D01*
X173503999Y-108004000D01*
X173498595Y-108009404D01*
X173436283Y-108043430D01*
X173365468Y-108038365D01*
X173308632Y-107995818D01*
X173283821Y-107929298D01*
X173283500Y-107920309D01*
X173283500Y-107579691D01*
X173303502Y-107511570D01*
X173357158Y-107465077D01*
X173427432Y-107454973D01*
X173492012Y-107484467D01*
X173498595Y-107490596D01*
X173503999Y-107496000D01*
X174033000Y-107496000D01*
X174033000Y-107401414D01*
X174032999Y-107401402D01*
X174026494Y-107340906D01*
X173975444Y-107204035D01*
X173975444Y-107204034D01*
X173887904Y-107087095D01*
X173770965Y-106999555D01*
X173634093Y-106948505D01*
X173573597Y-106942000D01*
X173504000Y-106942000D01*
X173504000Y-107251068D01*
X173483998Y-107319189D01*
X173430342Y-107365682D01*
X173360068Y-107375786D01*
X173295488Y-107346292D01*
X173259945Y-107295101D01*
X173225978Y-107204035D01*
X173225889Y-107203796D01*
X173225888Y-107203794D01*
X173225887Y-107203792D01*
X173138261Y-107086738D01*
X173046491Y-107018040D01*
X173003944Y-106961204D01*
X173001465Y-106947464D01*
X172996001Y-106942000D01*
X172926398Y-106942000D01*
X172890817Y-106945826D01*
X172877725Y-106943463D01*
X172863881Y-106945826D01*
X172823649Y-106941500D01*
X172823638Y-106941500D01*
X172176362Y-106941500D01*
X172176357Y-106941500D01*
X172176345Y-106941501D01*
X172138466Y-106945573D01*
X172125723Y-106943273D01*
X172111534Y-106945573D01*
X172073654Y-106941501D01*
X172073642Y-106941500D01*
X172073638Y-106941500D01*
X171426362Y-106941500D01*
X171426356Y-106941500D01*
X171426348Y-106941501D01*
X171386116Y-106945826D01*
X171373734Y-106943592D01*
X171359181Y-106945826D01*
X171323601Y-106942000D01*
X171253999Y-106942000D01*
X171243679Y-106952319D01*
X171233998Y-106985293D01*
X171233409Y-106985964D01*
X171233276Y-106986403D01*
X171229662Y-106990243D01*
X171209507Y-107013258D01*
X171206571Y-107015748D01*
X171111739Y-107086739D01*
X171092350Y-107112638D01*
X171081507Y-107121837D01*
X171061529Y-107130707D01*
X171044031Y-107143807D01*
X171029726Y-107144829D01*
X171016620Y-107150650D01*
X170995017Y-107147311D01*
X170973215Y-107148871D01*
X170960628Y-107141998D01*
X170946456Y-107139808D01*
X170930086Y-107125320D01*
X170910904Y-107114845D01*
X170899133Y-107101261D01*
X170888261Y-107086739D01*
X170796491Y-107018040D01*
X170753944Y-106961204D01*
X170751465Y-106947464D01*
X170746001Y-106942000D01*
X170676398Y-106942000D01*
X170640817Y-106945826D01*
X170627725Y-106943463D01*
X170613881Y-106945826D01*
X170573649Y-106941500D01*
X170573638Y-106941500D01*
X169926362Y-106941500D01*
X169926357Y-106941500D01*
X169926345Y-106941501D01*
X169888466Y-106945573D01*
X169875723Y-106943273D01*
X169861534Y-106945573D01*
X169823654Y-106941501D01*
X169823642Y-106941500D01*
X169823638Y-106941500D01*
X169176362Y-106941500D01*
X169176350Y-106941500D01*
X169115803Y-106948009D01*
X169115795Y-106948011D01*
X168978797Y-106999110D01*
X168978792Y-106999112D01*
X168861738Y-107086738D01*
X168774112Y-107203792D01*
X168774110Y-107203797D01*
X168723011Y-107340795D01*
X168723009Y-107340803D01*
X168716500Y-107401350D01*
X168716500Y-108098649D01*
X168723009Y-108159196D01*
X168723011Y-108159204D01*
X168774110Y-108296202D01*
X168774112Y-108296207D01*
X168861738Y-108413261D01*
X168978792Y-108500887D01*
X168978794Y-108500888D01*
X168978796Y-108500889D01*
X169037875Y-108522924D01*
X169115795Y-108551988D01*
X169115803Y-108551990D01*
X169176350Y-108558499D01*
X169176355Y-108558499D01*
X169176362Y-108558500D01*
X169488500Y-108558500D01*
X169556621Y-108578502D01*
X169603114Y-108632158D01*
X169614500Y-108684500D01*
X169614500Y-109188500D01*
X169594498Y-109256621D01*
X169540842Y-109303114D01*
X169488500Y-109314500D01*
X168794778Y-109314500D01*
X168726657Y-109294498D01*
X168724776Y-109293265D01*
X168721332Y-109290964D01*
X168678869Y-109262591D01*
X168653288Y-109245498D01*
X168653284Y-109245496D01*
X168498350Y-109181319D01*
X168333861Y-109148600D01*
X168333856Y-109148600D01*
X168166144Y-109148600D01*
X168166138Y-109148600D01*
X168001649Y-109181319D01*
X167846715Y-109245496D01*
X167846711Y-109245498D01*
X167707265Y-109338673D01*
X167707259Y-109338678D01*
X167588678Y-109457259D01*
X167588673Y-109457265D01*
X167495498Y-109596711D01*
X167495496Y-109596715D01*
X167431319Y-109751649D01*
X167398600Y-109916138D01*
X165857595Y-109916138D01*
X166247762Y-109525971D01*
X167078328Y-108695404D01*
X167140640Y-108661379D01*
X167167423Y-108658499D01*
X167537212Y-108658499D01*
X167639381Y-108648062D01*
X167804920Y-108593209D01*
X167953346Y-108501658D01*
X168076658Y-108378346D01*
X168168209Y-108229920D01*
X168223062Y-108064381D01*
X168233500Y-107962213D01*
X168233499Y-107287788D01*
X168223062Y-107185619D01*
X168168209Y-107020080D01*
X168076658Y-106871654D01*
X168044098Y-106839094D01*
X168010074Y-106776785D01*
X168015138Y-106705969D01*
X168044098Y-106660905D01*
X168076658Y-106628346D01*
X168168209Y-106479920D01*
X168223062Y-106314381D01*
X168233500Y-106212213D01*
X168233499Y-105537788D01*
X168223062Y-105435619D01*
X168168209Y-105270080D01*
X168076658Y-105121654D01*
X168076657Y-105121653D01*
X168076652Y-105121647D01*
X167953352Y-104998347D01*
X167953346Y-104998342D01*
X167926362Y-104981698D01*
X167804920Y-104906791D01*
X167639381Y-104851938D01*
X167639379Y-104851937D01*
X167639377Y-104851937D01*
X167537221Y-104841500D01*
X166962787Y-104841500D01*
X166860619Y-104851937D01*
X166695079Y-104906791D01*
X166546653Y-104998342D01*
X166546652Y-104998343D01*
X166526956Y-105018040D01*
X166492399Y-105052596D01*
X166430090Y-105086620D01*
X166403306Y-105089500D01*
X165969986Y-105089500D01*
X165901865Y-105069498D01*
X165862746Y-105029648D01*
X165799030Y-104926348D01*
X165799029Y-104926347D01*
X165799024Y-104926341D01*
X165673658Y-104800975D01*
X165673652Y-104800970D01*
X165612471Y-104763233D01*
X165522738Y-104707885D01*
X165419419Y-104673649D01*
X165354427Y-104652113D01*
X165354420Y-104652112D01*
X165250553Y-104641500D01*
X164249455Y-104641500D01*
X164145574Y-104652112D01*
X163977261Y-104707885D01*
X163826347Y-104800970D01*
X163826341Y-104800975D01*
X163700975Y-104926341D01*
X163700970Y-104926347D01*
X163607885Y-105077262D01*
X163552113Y-105245572D01*
X163552112Y-105245579D01*
X163541500Y-105349446D01*
X163541500Y-106100544D01*
X163552112Y-106204425D01*
X163607885Y-106372738D01*
X163700970Y-106523652D01*
X163700975Y-106523658D01*
X163826345Y-106649028D01*
X163829450Y-106651483D01*
X163831027Y-106653710D01*
X163831537Y-106654220D01*
X163831449Y-106654307D01*
X163870481Y-106709422D01*
X163873673Y-106780347D01*
X163838014Y-106841739D01*
X163829454Y-106849157D01*
X163826654Y-106851370D01*
X163701370Y-106976654D01*
X163701365Y-106976660D01*
X163608342Y-107127474D01*
X163552606Y-107295678D01*
X163552605Y-107295681D01*
X163542000Y-107399483D01*
X163542000Y-107521000D01*
X165958000Y-107521000D01*
X165958000Y-107399483D01*
X165947394Y-107295681D01*
X165947393Y-107295678D01*
X165891657Y-107127474D01*
X165798634Y-106976660D01*
X165798629Y-106976654D01*
X165673344Y-106851369D01*
X165670551Y-106849161D01*
X165669131Y-106847156D01*
X165668150Y-106846175D01*
X165668317Y-106846007D01*
X165629519Y-106791222D01*
X165626325Y-106720298D01*
X165661983Y-106658905D01*
X165670554Y-106651478D01*
X165673639Y-106649037D01*
X165673652Y-106649030D01*
X165799030Y-106523652D01*
X165862746Y-106420351D01*
X165870455Y-106413418D01*
X165874762Y-106403988D01*
X165896401Y-106390081D01*
X165915531Y-106372875D01*
X165927355Y-106370187D01*
X165934488Y-106365604D01*
X165969986Y-106360500D01*
X166201234Y-106360500D01*
X166269355Y-106380502D01*
X166315848Y-106434158D01*
X166320838Y-106446867D01*
X166331789Y-106479916D01*
X166331790Y-106479918D01*
X166331791Y-106479920D01*
X166376854Y-106552978D01*
X166423342Y-106628346D01*
X166423347Y-106628352D01*
X166455900Y-106660905D01*
X166489926Y-106723217D01*
X166484861Y-106794032D01*
X166455900Y-106839095D01*
X166423347Y-106871647D01*
X166423342Y-106871653D01*
X166331791Y-107020080D01*
X166276937Y-107185622D01*
X166266500Y-107287778D01*
X166266500Y-107657576D01*
X166246498Y-107725697D01*
X166229595Y-107746671D01*
X165984171Y-107992095D01*
X165921859Y-108026121D01*
X165895076Y-108029000D01*
X165004000Y-108029000D01*
X165004000Y-108884571D01*
X165006064Y-108888351D01*
X165000999Y-108959166D01*
X164972038Y-109004229D01*
X164742262Y-109234005D01*
X164679950Y-109268031D01*
X164653167Y-109270910D01*
X158932013Y-109270910D01*
X158863892Y-109250908D01*
X158817399Y-109197252D01*
X158807295Y-109126978D01*
X158836789Y-109062398D01*
X158842918Y-109055815D01*
X159748217Y-108150516D01*
X163542000Y-108150516D01*
X163552605Y-108254318D01*
X163552606Y-108254321D01*
X163608342Y-108422525D01*
X163701365Y-108573339D01*
X163701370Y-108573345D01*
X163826654Y-108698629D01*
X163826660Y-108698634D01*
X163977474Y-108791657D01*
X164145678Y-108847393D01*
X164145681Y-108847394D01*
X164249483Y-108857999D01*
X164249483Y-108858000D01*
X164496000Y-108858000D01*
X164496000Y-108029000D01*
X163542000Y-108029000D01*
X163542000Y-108150516D01*
X159748217Y-108150516D01*
X166226328Y-101672405D01*
X166288640Y-101638379D01*
X166315423Y-101635500D01*
X169780014Y-101635500D01*
X169848135Y-101655502D01*
X169887253Y-101695351D01*
X169950970Y-101798652D01*
X169950975Y-101798658D01*
X170076344Y-101924027D01*
X170079049Y-101926166D01*
X170080421Y-101928104D01*
X170081537Y-101929220D01*
X170081346Y-101929410D01*
X170120076Y-101984108D01*
X170123264Y-102055033D01*
X170087602Y-102116423D01*
X170079049Y-102123834D01*
X170076344Y-102125972D01*
X169950975Y-102251341D01*
X169950970Y-102251347D01*
X169857885Y-102402262D01*
X169802113Y-102570572D01*
X169802112Y-102570579D01*
X169791500Y-102674446D01*
X169791500Y-103425544D01*
X169802114Y-103529438D01*
X169802827Y-103532769D01*
X169802669Y-103534872D01*
X169802812Y-103536269D01*
X169802562Y-103536294D01*
X169797523Y-103603567D01*
X169754784Y-103660258D01*
X169688180Y-103684844D01*
X169654709Y-103681046D01*
X169654415Y-103682526D01*
X169648345Y-103681318D01*
X169648344Y-103681318D01*
X169596446Y-103670995D01*
X169483861Y-103648600D01*
X169483856Y-103648600D01*
X169316144Y-103648600D01*
X169316138Y-103648600D01*
X169151649Y-103681319D01*
X168996715Y-103745496D01*
X168996711Y-103745498D01*
X168857265Y-103838673D01*
X168857259Y-103838678D01*
X168738678Y-103957259D01*
X168738673Y-103957265D01*
X168645498Y-104096711D01*
X168645496Y-104096715D01*
X168581319Y-104251649D01*
X168548600Y-104416138D01*
X168548600Y-104583861D01*
X168581319Y-104748350D01*
X168645496Y-104903284D01*
X168645498Y-104903288D01*
X168675380Y-104948009D01*
X168738674Y-105042736D01*
X168738678Y-105042740D01*
X168751783Y-105055845D01*
X168785809Y-105118157D01*
X168780744Y-105188972D01*
X168774718Y-105202167D01*
X168723011Y-105340795D01*
X168723009Y-105340803D01*
X168716500Y-105401350D01*
X168716500Y-106098649D01*
X168723009Y-106159196D01*
X168723011Y-106159204D01*
X168774110Y-106296202D01*
X168774112Y-106296207D01*
X168861738Y-106413261D01*
X168978792Y-106500887D01*
X168978794Y-106500888D01*
X168978796Y-106500889D01*
X169037875Y-106522924D01*
X169115795Y-106551988D01*
X169115803Y-106551990D01*
X169176350Y-106558499D01*
X169176355Y-106558499D01*
X169176362Y-106558500D01*
X169176368Y-106558500D01*
X169823634Y-106558500D01*
X169823638Y-106558500D01*
X169861532Y-106554426D01*
X169888468Y-106554426D01*
X169926362Y-106558500D01*
X169926366Y-106558500D01*
X170573634Y-106558500D01*
X170573638Y-106558500D01*
X170611532Y-106554426D01*
X170638468Y-106554426D01*
X170676362Y-106558500D01*
X170676366Y-106558500D01*
X171323634Y-106558500D01*
X171323638Y-106558500D01*
X171361532Y-106554426D01*
X171388468Y-106554426D01*
X171426362Y-106558500D01*
X171426366Y-106558500D01*
X172073634Y-106558500D01*
X172073638Y-106558500D01*
X172111532Y-106554426D01*
X172138468Y-106554426D01*
X172176362Y-106558500D01*
X172176366Y-106558500D01*
X172823634Y-106558500D01*
X172823638Y-106558500D01*
X172861532Y-106554426D01*
X172888468Y-106554426D01*
X172926362Y-106558500D01*
X172926366Y-106558500D01*
X173573632Y-106558500D01*
X173573638Y-106558500D01*
X173573645Y-106558499D01*
X173573649Y-106558499D01*
X173634196Y-106551990D01*
X173634199Y-106551989D01*
X173634201Y-106551989D01*
X173771204Y-106500889D01*
X173771799Y-106500444D01*
X173888261Y-106413261D01*
X173975887Y-106296207D01*
X173975887Y-106296206D01*
X173975889Y-106296204D01*
X174026989Y-106159201D01*
X174029665Y-106134317D01*
X174033499Y-106098649D01*
X174033500Y-106098632D01*
X174033500Y-105401367D01*
X174033499Y-105401350D01*
X174026990Y-105340803D01*
X174026988Y-105340795D01*
X173991473Y-105245579D01*
X173975889Y-105203796D01*
X173910631Y-105116622D01*
X173885821Y-105050103D01*
X173885500Y-105041114D01*
X173885500Y-104064373D01*
X173905502Y-103996252D01*
X173922405Y-103975278D01*
X174049024Y-103848658D01*
X174049030Y-103848652D01*
X174142115Y-103697738D01*
X174197887Y-103529426D01*
X174208500Y-103425545D01*
X174208499Y-102674456D01*
X174197887Y-102570574D01*
X174142115Y-102402262D01*
X174049030Y-102251348D01*
X174049029Y-102251347D01*
X174049024Y-102251341D01*
X173923654Y-102125971D01*
X173920956Y-102123838D01*
X173919584Y-102121901D01*
X173918463Y-102120780D01*
X173918654Y-102120588D01*
X173879925Y-102065899D01*
X173876733Y-101994974D01*
X173912392Y-101933582D01*
X173920956Y-101926162D01*
X173923649Y-101924031D01*
X173923652Y-101924030D01*
X174049030Y-101798652D01*
X174142115Y-101647738D01*
X174197887Y-101479426D01*
X174208500Y-101375545D01*
X174208499Y-100624456D01*
X174197887Y-100520574D01*
X174142115Y-100352262D01*
X174049030Y-100201348D01*
X174049029Y-100201347D01*
X174049024Y-100201341D01*
X173923658Y-100075975D01*
X173923652Y-100075970D01*
X173823274Y-100014056D01*
X173775797Y-99961271D01*
X173764394Y-99891196D01*
X173773013Y-99858597D01*
X173818681Y-99748346D01*
X173818680Y-99748346D01*
X173818682Y-99748344D01*
X173851400Y-99583856D01*
X173851400Y-99416144D01*
X173818682Y-99251656D01*
X173818680Y-99251653D01*
X173818680Y-99251649D01*
X173754503Y-99096715D01*
X173754501Y-99096711D01*
X173698294Y-99012591D01*
X173661326Y-98957264D01*
X173542736Y-98838674D01*
X173403289Y-98745499D01*
X173403290Y-98745499D01*
X173403288Y-98745498D01*
X173403284Y-98745496D01*
X173248350Y-98681319D01*
X173083861Y-98648600D01*
X173083856Y-98648600D01*
X172916144Y-98648600D01*
X172916138Y-98648600D01*
X172751649Y-98681319D01*
X172596715Y-98745496D01*
X172596711Y-98745498D01*
X172457265Y-98838673D01*
X172457259Y-98838678D01*
X172338678Y-98957259D01*
X172338673Y-98957265D01*
X172245498Y-99096711D01*
X172245496Y-99096715D01*
X172181319Y-99251649D01*
X172148600Y-99416138D01*
X172148600Y-99583861D01*
X172181318Y-99748346D01*
X172226987Y-99858597D01*
X172230642Y-99892597D01*
X172235032Y-99926494D01*
X172234424Y-99927776D01*
X172234576Y-99929187D01*
X172219271Y-99959761D01*
X172204636Y-99990655D01*
X172203208Y-99991851D01*
X172202797Y-99992674D01*
X172177206Y-100013759D01*
X172177052Y-100013854D01*
X172076348Y-100075970D01*
X172074686Y-100077631D01*
X172066628Y-100082652D01*
X172038947Y-100090359D01*
X172012305Y-100101107D01*
X172005200Y-100099757D01*
X171998234Y-100101697D01*
X171970781Y-100093216D01*
X171942556Y-100087853D01*
X171932501Y-100081391D01*
X171930400Y-100080742D01*
X171929331Y-100079473D01*
X171923652Y-100075970D01*
X171772738Y-99982885D01*
X171688582Y-99954999D01*
X171604427Y-99927113D01*
X171604420Y-99927112D01*
X171500553Y-99916500D01*
X170499455Y-99916500D01*
X170395574Y-99927112D01*
X170227261Y-99982885D01*
X170076347Y-100075970D01*
X170076341Y-100075975D01*
X169950975Y-100201341D01*
X169950970Y-100201347D01*
X169939115Y-100220568D01*
X169887253Y-100304648D01*
X169834469Y-100352125D01*
X169780014Y-100364500D01*
X166588427Y-100364500D01*
X166520306Y-100344498D01*
X166473813Y-100290842D01*
X166463709Y-100220568D01*
X166493203Y-100155988D01*
X166499332Y-100149405D01*
X168367452Y-98281285D01*
X170261464Y-96387272D01*
X170323774Y-96353248D01*
X170327785Y-96352616D01*
X170327785Y-96352612D01*
X170386985Y-96340836D01*
X170498344Y-96318686D01*
X170498347Y-96318684D01*
X170498350Y-96318684D01*
X170640986Y-96259601D01*
X170653289Y-96254505D01*
X170792736Y-96161330D01*
X170911326Y-96042740D01*
X171004501Y-95903293D01*
X171022140Y-95860709D01*
X171068680Y-95748354D01*
X171068680Y-95748351D01*
X171068682Y-95748348D01*
X171101400Y-95583860D01*
X171101400Y-95416148D01*
X171099282Y-95405502D01*
X171079351Y-95305300D01*
X171068682Y-95251660D01*
X171068680Y-95251657D01*
X171068680Y-95251653D01*
X171004503Y-95096719D01*
X171004501Y-95096715D01*
X170995908Y-95083854D01*
X170911326Y-94957268D01*
X170792736Y-94838678D01*
X170662498Y-94751656D01*
X170653288Y-94745502D01*
X170653284Y-94745500D01*
X170498350Y-94681323D01*
X170327785Y-94647396D01*
X170328256Y-94645025D01*
X170272330Y-94622413D01*
X170261462Y-94612733D01*
X169905106Y-94256377D01*
X169905104Y-94256375D01*
X169801018Y-94186827D01*
X169685370Y-94138924D01*
X169685365Y-94138922D01*
X169562589Y-94114500D01*
X169562587Y-94114500D01*
X167403576Y-94114500D01*
X167335455Y-94094498D01*
X167288962Y-94040842D01*
X167283972Y-94028133D01*
X167275000Y-94001057D01*
X167267115Y-93977262D01*
X167174030Y-93826348D01*
X167174029Y-93826347D01*
X167174024Y-93826341D01*
X167048658Y-93700975D01*
X167048652Y-93700970D01*
X166897738Y-93607885D01*
X166813582Y-93579999D01*
X166729427Y-93552113D01*
X166729420Y-93552112D01*
X166625553Y-93541500D01*
X165874455Y-93541500D01*
X165770574Y-93552112D01*
X165602261Y-93607885D01*
X165451347Y-93700970D01*
X165451341Y-93700975D01*
X165325972Y-93826344D01*
X165323834Y-93829049D01*
X165321895Y-93830421D01*
X165320780Y-93831537D01*
X165320589Y-93831346D01*
X165265892Y-93870076D01*
X165194967Y-93873264D01*
X165133577Y-93837602D01*
X165126166Y-93829049D01*
X165124027Y-93826344D01*
X164998658Y-93700975D01*
X164998652Y-93700970D01*
X164847738Y-93607885D01*
X164763582Y-93579999D01*
X164679427Y-93552113D01*
X164679420Y-93552112D01*
X164575553Y-93541500D01*
X163824455Y-93541500D01*
X163720574Y-93552112D01*
X163552261Y-93607885D01*
X163401347Y-93700970D01*
X163401341Y-93700975D01*
X163275975Y-93826341D01*
X163275970Y-93826347D01*
X163182885Y-93977262D01*
X163127113Y-94145572D01*
X163127112Y-94145579D01*
X163116500Y-94249446D01*
X163116500Y-95250544D01*
X163127112Y-95354425D01*
X163161817Y-95459158D01*
X163182885Y-95522738D01*
X163268367Y-95661326D01*
X163279823Y-95679898D01*
X163278197Y-95680900D01*
X163301107Y-95737695D01*
X163287853Y-95807444D01*
X163279747Y-95820055D01*
X163279823Y-95820102D01*
X163275971Y-95826346D01*
X163275970Y-95826348D01*
X163211150Y-95931438D01*
X163182885Y-95977262D01*
X163127113Y-96145572D01*
X163127112Y-96145579D01*
X163116500Y-96249446D01*
X163116500Y-97250544D01*
X163127112Y-97354425D01*
X163182885Y-97522738D01*
X163275970Y-97673652D01*
X163275975Y-97673658D01*
X163401341Y-97799024D01*
X163401345Y-97799027D01*
X163401348Y-97799030D01*
X163497665Y-97858439D01*
X163545143Y-97911224D01*
X163556546Y-97981298D01*
X163536284Y-98035680D01*
X163495503Y-98096713D01*
X163495502Y-98096715D01*
X163431325Y-98251649D01*
X163398606Y-98416138D01*
X163398606Y-98583861D01*
X163431325Y-98748350D01*
X163495502Y-98903284D01*
X163495504Y-98903288D01*
X163495505Y-98903289D01*
X163588680Y-99042736D01*
X163707270Y-99161326D01*
X163841510Y-99251022D01*
X163846717Y-99254501D01*
X163846721Y-99254503D01*
X164001655Y-99318680D01*
X164001659Y-99318680D01*
X164001662Y-99318682D01*
X164126422Y-99343497D01*
X164166144Y-99351399D01*
X164166147Y-99351399D01*
X164166150Y-99351400D01*
X164166151Y-99351400D01*
X164195676Y-99351400D01*
X164263797Y-99371402D01*
X164310290Y-99425058D01*
X164320394Y-99495332D01*
X164290900Y-99559912D01*
X164284771Y-99566495D01*
X158903594Y-104947672D01*
X158841282Y-104981698D01*
X158770467Y-104976633D01*
X158713631Y-104934086D01*
X158688820Y-104867566D01*
X158688499Y-104858577D01*
X158688499Y-104424455D01*
X158677887Y-104320574D01*
X158670623Y-104298652D01*
X158622115Y-104152262D01*
X158529030Y-104001348D01*
X158529029Y-104001347D01*
X158529024Y-104001341D01*
X158403657Y-103875974D01*
X158400547Y-103873515D01*
X158398967Y-103871284D01*
X158398463Y-103870780D01*
X158398549Y-103870693D01*
X158359518Y-103815575D01*
X158356326Y-103744650D01*
X158391986Y-103683259D01*
X158400558Y-103675832D01*
X158403350Y-103673624D01*
X158528629Y-103548345D01*
X158528634Y-103548339D01*
X158621657Y-103397525D01*
X158677393Y-103229321D01*
X158677394Y-103229318D01*
X158687999Y-103125516D01*
X158688000Y-103125516D01*
X158688000Y-103004000D01*
X157606000Y-103004000D01*
X157537879Y-102983998D01*
X157491386Y-102930342D01*
X157480000Y-102878000D01*
X157480000Y-102750000D01*
X157352000Y-102750000D01*
X157283879Y-102729998D01*
X157237386Y-102676342D01*
X157226000Y-102624000D01*
X157226000Y-102496000D01*
X157734000Y-102496000D01*
X158688000Y-102496000D01*
X158688000Y-102374483D01*
X158677394Y-102270681D01*
X158677393Y-102270678D01*
X158621657Y-102102474D01*
X158528634Y-101951660D01*
X158528629Y-101951654D01*
X158403345Y-101826370D01*
X158403339Y-101826365D01*
X158252525Y-101733342D01*
X158084321Y-101677606D01*
X158084318Y-101677605D01*
X157980516Y-101667000D01*
X157734000Y-101667000D01*
X157734000Y-102496000D01*
X157226000Y-102496000D01*
X157226000Y-101667000D01*
X156979483Y-101667000D01*
X156875681Y-101677605D01*
X156875678Y-101677606D01*
X156707472Y-101733343D01*
X156556622Y-101826388D01*
X156488143Y-101845125D01*
X156424329Y-101826388D01*
X156423653Y-101825971D01*
X156423652Y-101825970D01*
X156272738Y-101732885D01*
X156159472Y-101695353D01*
X156104427Y-101677113D01*
X156104420Y-101677112D01*
X156000553Y-101666500D01*
X154999455Y-101666500D01*
X154895574Y-101677112D01*
X154727261Y-101732885D01*
X154576347Y-101825970D01*
X154576341Y-101825975D01*
X154450975Y-101951341D01*
X154450970Y-101951347D01*
X154357885Y-102102262D01*
X154302113Y-102270572D01*
X154302112Y-102270579D01*
X154291500Y-102374446D01*
X154291500Y-103057575D01*
X154271498Y-103125696D01*
X154254596Y-103146670D01*
X154073672Y-103327595D01*
X154011360Y-103361620D01*
X153984576Y-103364500D01*
X152511423Y-103364500D01*
X152443302Y-103344498D01*
X152422328Y-103327595D01*
X152172405Y-103077672D01*
X152138379Y-103015360D01*
X152135500Y-102988577D01*
X152135500Y-102065423D01*
X152155502Y-101997302D01*
X152172405Y-101976328D01*
X154400389Y-99748344D01*
X156743625Y-97405108D01*
X156813173Y-97301022D01*
X156861078Y-97185369D01*
X156885500Y-97062591D01*
X156885500Y-96937409D01*
X156885500Y-87831422D01*
X156905502Y-87763301D01*
X156922400Y-87742332D01*
X164966041Y-79698690D01*
X165028351Y-79664666D01*
X165099166Y-79669731D01*
X165149698Y-79707556D01*
X165150366Y-79706889D01*
X165155010Y-79711533D01*
X165155997Y-79712272D01*
X165156735Y-79713258D01*
X165156736Y-79713259D01*
X165273791Y-79800886D01*
X165273792Y-79800886D01*
X165273796Y-79800889D01*
X165391711Y-79844869D01*
X165448543Y-79887414D01*
X165473354Y-79953934D01*
X165458263Y-80023308D01*
X165436771Y-80052018D01*
X165333794Y-80154995D01*
X165208104Y-80327992D01*
X165208103Y-80327993D01*
X165203793Y-80336454D01*
X165155044Y-80388069D01*
X165111197Y-80402272D01*
X165111400Y-80403292D01*
X164982549Y-80428922D01*
X164982544Y-80428924D01*
X164866896Y-80476827D01*
X164762815Y-80546372D01*
X164762808Y-80546377D01*
X157384076Y-87925109D01*
X157384071Y-87925116D01*
X157314526Y-88029197D01*
X157266623Y-88144845D01*
X157266621Y-88144850D01*
X157242199Y-88267626D01*
X157242199Y-97519111D01*
X157222197Y-97587232D01*
X157220964Y-97589113D01*
X157215886Y-97596711D01*
X157215884Y-97596715D01*
X157151707Y-97751649D01*
X157118988Y-97916138D01*
X157118988Y-98083861D01*
X157151707Y-98248350D01*
X157215884Y-98403284D01*
X157215886Y-98403288D01*
X157248880Y-98452667D01*
X157309062Y-98542736D01*
X157427652Y-98661326D01*
X157557884Y-98748344D01*
X157567099Y-98754501D01*
X157567103Y-98754503D01*
X157722037Y-98818680D01*
X157722041Y-98818680D01*
X157722044Y-98818682D01*
X157822548Y-98838673D01*
X157886526Y-98851399D01*
X157886529Y-98851399D01*
X157886532Y-98851400D01*
X157886533Y-98851400D01*
X158054243Y-98851400D01*
X158054244Y-98851400D01*
X158218732Y-98818682D01*
X158218735Y-98818680D01*
X158218738Y-98818680D01*
X158373672Y-98754503D01*
X158373671Y-98754503D01*
X158373677Y-98754501D01*
X158513124Y-98661326D01*
X158631714Y-98542736D01*
X158724889Y-98403289D01*
X158766798Y-98302113D01*
X158789068Y-98248350D01*
X158789068Y-98248347D01*
X158789070Y-98248344D01*
X158821788Y-98083856D01*
X158821788Y-97916144D01*
X158820809Y-97911224D01*
X158810310Y-97858438D01*
X158789070Y-97751656D01*
X158789068Y-97751653D01*
X158789068Y-97751649D01*
X158724891Y-97596715D01*
X158724889Y-97596711D01*
X158698577Y-97557332D01*
X158668425Y-97512206D01*
X158647211Y-97444456D01*
X158665994Y-97375989D01*
X158718811Y-97328546D01*
X158742487Y-97320666D01*
X158742430Y-97320476D01*
X158748348Y-97318681D01*
X158903284Y-97254503D01*
X158903283Y-97254503D01*
X158903289Y-97254501D01*
X159042736Y-97161326D01*
X159161326Y-97042736D01*
X159254501Y-96903289D01*
X159279891Y-96841993D01*
X159318680Y-96748350D01*
X159318680Y-96748347D01*
X159318682Y-96748344D01*
X159351400Y-96583856D01*
X159351400Y-96416144D01*
X159318682Y-96251656D01*
X159318680Y-96251653D01*
X159318680Y-96251649D01*
X159254503Y-96096715D01*
X159254501Y-96096711D01*
X159245404Y-96083096D01*
X159216313Y-96039558D01*
X159195099Y-95971809D01*
X159213882Y-95903342D01*
X159266699Y-95855898D01*
X159296493Y-95845981D01*
X159433740Y-95818682D01*
X159433743Y-95818680D01*
X159433746Y-95818680D01*
X159588680Y-95754503D01*
X159588679Y-95754503D01*
X159588685Y-95754501D01*
X159728132Y-95661326D01*
X159846722Y-95542736D01*
X159939897Y-95403289D01*
X159980486Y-95305300D01*
X160004076Y-95248350D01*
X160004076Y-95248347D01*
X160004078Y-95248344D01*
X160036796Y-95083856D01*
X160036796Y-94916144D01*
X160004078Y-94751656D01*
X160004076Y-94751653D01*
X160004076Y-94751649D01*
X159939899Y-94596715D01*
X159939897Y-94596711D01*
X159904584Y-94543861D01*
X159846722Y-94457264D01*
X159846720Y-94457262D01*
X159843283Y-94452118D01*
X159845300Y-94450770D01*
X159821742Y-94395286D01*
X159820896Y-94380712D01*
X159820896Y-89261500D01*
X159840898Y-89193379D01*
X159894554Y-89146886D01*
X159946896Y-89135500D01*
X165010386Y-89135500D01*
X165078507Y-89155502D01*
X165122651Y-89204295D01*
X165208106Y-89372009D01*
X165333794Y-89545004D01*
X165333796Y-89545006D01*
X165333798Y-89545009D01*
X165484990Y-89696201D01*
X165484993Y-89696203D01*
X165484996Y-89696206D01*
X165657991Y-89821894D01*
X165658001Y-89821899D01*
X165659567Y-89822859D01*
X165660042Y-89823384D01*
X165661996Y-89824804D01*
X165661697Y-89825214D01*
X165707200Y-89875505D01*
X165718808Y-89945546D01*
X165690707Y-90010745D01*
X165662157Y-90035485D01*
X165662258Y-90035624D01*
X165660644Y-90036796D01*
X165659574Y-90037724D01*
X165658255Y-90038532D01*
X165485320Y-90164177D01*
X165334177Y-90315320D01*
X165208536Y-90488249D01*
X165111493Y-90678707D01*
X165111490Y-90678713D01*
X165045440Y-90881995D01*
X165035302Y-90946000D01*
X165939297Y-90946000D01*
X165904075Y-91007007D01*
X165870000Y-91134174D01*
X165870000Y-91265826D01*
X165904075Y-91392993D01*
X165939297Y-91454000D01*
X165035302Y-91454000D01*
X165045440Y-91518004D01*
X165111490Y-91721286D01*
X165111493Y-91721292D01*
X165208536Y-91911750D01*
X165334177Y-92084679D01*
X165485320Y-92235822D01*
X165658249Y-92361463D01*
X165848707Y-92458506D01*
X165848713Y-92458509D01*
X166051998Y-92524560D01*
X166116000Y-92534696D01*
X166116000Y-91630702D01*
X166177007Y-91665925D01*
X166304174Y-91700000D01*
X166435826Y-91700000D01*
X166562993Y-91665925D01*
X166624000Y-91630702D01*
X166624000Y-92534696D01*
X166688001Y-92524560D01*
X166891286Y-92458509D01*
X166891292Y-92458506D01*
X167081750Y-92361463D01*
X167254679Y-92235822D01*
X167405822Y-92084679D01*
X167531463Y-91911750D01*
X167628506Y-91721292D01*
X167628509Y-91721286D01*
X167694559Y-91518004D01*
X167704698Y-91454000D01*
X166800703Y-91454000D01*
X166835925Y-91392993D01*
X166870000Y-91265826D01*
X166870000Y-91134174D01*
X166835925Y-91007007D01*
X166800703Y-90946000D01*
X167704697Y-90946000D01*
X167694559Y-90881995D01*
X167628509Y-90678713D01*
X167628506Y-90678707D01*
X167531463Y-90488249D01*
X167405822Y-90315320D01*
X167254679Y-90164177D01*
X167081749Y-90038535D01*
X167080433Y-90037729D01*
X167080037Y-90037291D01*
X167077742Y-90035624D01*
X167078092Y-90035141D01*
X167032800Y-89985084D01*
X167021190Y-89915043D01*
X167049291Y-89849844D01*
X167078076Y-89824903D01*
X167078004Y-89824804D01*
X167079158Y-89823965D01*
X167080441Y-89822854D01*
X167081992Y-89821902D01*
X167082009Y-89821894D01*
X167255004Y-89696206D01*
X167406206Y-89545004D01*
X167531894Y-89372009D01*
X167628972Y-89181483D01*
X167695049Y-88978116D01*
X167728500Y-88766916D01*
X167728500Y-88553084D01*
X167695049Y-88341884D01*
X167628972Y-88138517D01*
X167531894Y-87947991D01*
X167406206Y-87774996D01*
X167406203Y-87774993D01*
X167406201Y-87774990D01*
X167255009Y-87623798D01*
X167255006Y-87623796D01*
X167255004Y-87623794D01*
X167082009Y-87498106D01*
X167082007Y-87498105D01*
X167080920Y-87497439D01*
X167080591Y-87497075D01*
X167078004Y-87495196D01*
X167078398Y-87494652D01*
X167033283Y-87444796D01*
X167021670Y-87374756D01*
X167049766Y-87309555D01*
X167078130Y-87284978D01*
X167078004Y-87284804D01*
X167080030Y-87283331D01*
X167080920Y-87282561D01*
X167081997Y-87281899D01*
X167082009Y-87281894D01*
X167255004Y-87156206D01*
X167406206Y-87005004D01*
X167531894Y-86832009D01*
X167628972Y-86641483D01*
X167695049Y-86438116D01*
X167728500Y-86226916D01*
X167728500Y-86013084D01*
X167695049Y-85801884D01*
X167628972Y-85598517D01*
X167531894Y-85407991D01*
X167406206Y-85234996D01*
X167406203Y-85234993D01*
X167406201Y-85234990D01*
X167255009Y-85083798D01*
X167255006Y-85083796D01*
X167255004Y-85083794D01*
X167185806Y-85033518D01*
X167082006Y-84958103D01*
X167080427Y-84957136D01*
X167079952Y-84956611D01*
X167078004Y-84955196D01*
X167078301Y-84954786D01*
X167032797Y-84904488D01*
X167021191Y-84834446D01*
X167049296Y-84769249D01*
X167077844Y-84744516D01*
X167077742Y-84744376D01*
X167079382Y-84743184D01*
X167080448Y-84742261D01*
X167081754Y-84741460D01*
X167254679Y-84615822D01*
X167405822Y-84464679D01*
X167531463Y-84291750D01*
X167628506Y-84101292D01*
X167628509Y-84101286D01*
X167694559Y-83898004D01*
X167704698Y-83834000D01*
X166800703Y-83834000D01*
X166835925Y-83772993D01*
X166870000Y-83645826D01*
X166870000Y-83514174D01*
X166835925Y-83387007D01*
X166800703Y-83326000D01*
X167704697Y-83326000D01*
X167694559Y-83261995D01*
X167628509Y-83058713D01*
X167628506Y-83058707D01*
X167531463Y-82868249D01*
X167405822Y-82695320D01*
X167254679Y-82544177D01*
X167081749Y-82418535D01*
X167080433Y-82417729D01*
X167080037Y-82417291D01*
X167077742Y-82415624D01*
X167078092Y-82415141D01*
X167032800Y-82365084D01*
X167021190Y-82295043D01*
X167049291Y-82229844D01*
X167078076Y-82204903D01*
X167078004Y-82204804D01*
X167079158Y-82203965D01*
X167080441Y-82202854D01*
X167081992Y-82201902D01*
X167082009Y-82201894D01*
X167255004Y-82076206D01*
X167406206Y-81925004D01*
X167531894Y-81752009D01*
X167628972Y-81561483D01*
X167695049Y-81358116D01*
X167728500Y-81146916D01*
X167728500Y-80933084D01*
X167695049Y-80721884D01*
X167628972Y-80518517D01*
X167531894Y-80327991D01*
X167406206Y-80154996D01*
X167406203Y-80154993D01*
X167406201Y-80154990D01*
X167303229Y-80052018D01*
X167269203Y-79989706D01*
X167274268Y-79918891D01*
X167316815Y-79862055D01*
X167348284Y-79844871D01*
X167466204Y-79800889D01*
X167583261Y-79713261D01*
X167652715Y-79620482D01*
X167670887Y-79596207D01*
X167670887Y-79596206D01*
X167670889Y-79596204D01*
X167721989Y-79459201D01*
X167722832Y-79451365D01*
X167728499Y-79398649D01*
X167728500Y-79398632D01*
X167728500Y-77601367D01*
X167728499Y-77601350D01*
X167721990Y-77540803D01*
X167721988Y-77540795D01*
X167670889Y-77403797D01*
X167670887Y-77403792D01*
X167583261Y-77286738D01*
X167466207Y-77199112D01*
X167466202Y-77199110D01*
X167329204Y-77148011D01*
X167329196Y-77148009D01*
X167268649Y-77141500D01*
X167268638Y-77141500D01*
X165471362Y-77141500D01*
X165471350Y-77141500D01*
X165410803Y-77148009D01*
X165410795Y-77148011D01*
X165273797Y-77199110D01*
X165273792Y-77199112D01*
X165156738Y-77286738D01*
X165069112Y-77403792D01*
X165069110Y-77403797D01*
X165018011Y-77540795D01*
X165018009Y-77540803D01*
X165011500Y-77601350D01*
X165011500Y-77838393D01*
X164991498Y-77906514D01*
X164955502Y-77943158D01*
X164860896Y-78006371D01*
X164860889Y-78006377D01*
X156600595Y-86266672D01*
X156538283Y-86300698D01*
X156467468Y-86295633D01*
X156410632Y-86253086D01*
X156385821Y-86186566D01*
X156385500Y-86177577D01*
X156385500Y-83937410D01*
X156385499Y-83937406D01*
X156361078Y-83814631D01*
X156313173Y-83698978D01*
X156243625Y-83594892D01*
X156155108Y-83506375D01*
X150695404Y-78046671D01*
X150661378Y-77984359D01*
X150658499Y-77957576D01*
X150658499Y-77712787D01*
X150648062Y-77610619D01*
X150644991Y-77601350D01*
X150593209Y-77445080D01*
X150501658Y-77296654D01*
X150501657Y-77296653D01*
X150501652Y-77296647D01*
X150378352Y-77173347D01*
X150378346Y-77173342D01*
X150337275Y-77148009D01*
X150229920Y-77081791D01*
X150064381Y-77026938D01*
X150064379Y-77026937D01*
X150064377Y-77026937D01*
X149962221Y-77016500D01*
X149287787Y-77016500D01*
X149185619Y-77026937D01*
X149020079Y-77081791D01*
X148871653Y-77173342D01*
X148871647Y-77173347D01*
X148839095Y-77205900D01*
X148776783Y-77239926D01*
X148705968Y-77234861D01*
X148660905Y-77205900D01*
X148628352Y-77173347D01*
X148628346Y-77173342D01*
X148587275Y-77148009D01*
X148479920Y-77081791D01*
X148314381Y-77026938D01*
X148314379Y-77026937D01*
X148314377Y-77026937D01*
X148212221Y-77016500D01*
X147537787Y-77016500D01*
X147435619Y-77026937D01*
X147270079Y-77081791D01*
X147121653Y-77173342D01*
X147121647Y-77173347D01*
X146998347Y-77296647D01*
X146998342Y-77296653D01*
X146906791Y-77445080D01*
X146851937Y-77610622D01*
X146841500Y-77712778D01*
X146841500Y-78287212D01*
X146851937Y-78389380D01*
X146906791Y-78554920D01*
X146998342Y-78703346D01*
X146998347Y-78703352D01*
X147121647Y-78826652D01*
X147121653Y-78826657D01*
X147121654Y-78826658D01*
X147179647Y-78862428D01*
X147186581Y-78870138D01*
X147196012Y-78874445D01*
X147209918Y-78896084D01*
X147227125Y-78915214D01*
X147229812Y-78927038D01*
X147234396Y-78934171D01*
X147239500Y-78969669D01*
X147239500Y-79213139D01*
X147219498Y-79281260D01*
X147165842Y-79327753D01*
X147153134Y-79332743D01*
X147077264Y-79357884D01*
X146926347Y-79450970D01*
X146926341Y-79450975D01*
X146800975Y-79576341D01*
X146800970Y-79576347D01*
X146707885Y-79727262D01*
X146652113Y-79895572D01*
X146652112Y-79895579D01*
X146641500Y-79999446D01*
X146641500Y-81000544D01*
X146652112Y-81104425D01*
X146707885Y-81272738D01*
X146800970Y-81423652D01*
X146800975Y-81423658D01*
X146926341Y-81549024D01*
X146926347Y-81549029D01*
X146926348Y-81549030D01*
X147077262Y-81642115D01*
X147245574Y-81697887D01*
X147349455Y-81708500D01*
X148100544Y-81708499D01*
X148204426Y-81697887D01*
X148372738Y-81642115D01*
X148523652Y-81549030D01*
X148649030Y-81423652D01*
X148649037Y-81423639D01*
X148651478Y-81420554D01*
X148653709Y-81418973D01*
X148654220Y-81418463D01*
X148654307Y-81418550D01*
X148709416Y-81379521D01*
X148780340Y-81376324D01*
X148841734Y-81411980D01*
X148849161Y-81420551D01*
X148851369Y-81423344D01*
X148976654Y-81548629D01*
X148976660Y-81548634D01*
X149127474Y-81641657D01*
X149295678Y-81697393D01*
X149295681Y-81697394D01*
X149399483Y-81707999D01*
X149399483Y-81708000D01*
X149521000Y-81708000D01*
X150029000Y-81708000D01*
X150150517Y-81708000D01*
X150150516Y-81707999D01*
X150254318Y-81697394D01*
X150254321Y-81697393D01*
X150422525Y-81641657D01*
X150573339Y-81548634D01*
X150573345Y-81548629D01*
X150698629Y-81423345D01*
X150698634Y-81423339D01*
X150791657Y-81272525D01*
X150847393Y-81104321D01*
X150847394Y-81104318D01*
X150857999Y-81000516D01*
X150858000Y-81000516D01*
X150858000Y-80754000D01*
X150029000Y-80754000D01*
X150029000Y-81708000D01*
X149521000Y-81708000D01*
X149521000Y-79292000D01*
X149399483Y-79292000D01*
X149295681Y-79302605D01*
X149295678Y-79302606D01*
X149127474Y-79358342D01*
X148976660Y-79451365D01*
X148976654Y-79451370D01*
X148851370Y-79576654D01*
X148849157Y-79579454D01*
X148847149Y-79580875D01*
X148846175Y-79581850D01*
X148846008Y-79581683D01*
X148835296Y-79589268D01*
X148825012Y-79602778D01*
X148806925Y-79609358D01*
X148791216Y-79620482D01*
X148774252Y-79621244D01*
X148758294Y-79627051D01*
X148739518Y-79622807D01*
X148720291Y-79623672D01*
X148705084Y-79615024D01*
X148689044Y-79611399D01*
X148669547Y-79594815D01*
X148660508Y-79589675D01*
X148651777Y-79580801D01*
X148649030Y-79576348D01*
X148547055Y-79474373D01*
X148546687Y-79473999D01*
X148530148Y-79443120D01*
X148513379Y-79412410D01*
X148513298Y-79411659D01*
X148513167Y-79411414D01*
X148513211Y-79410853D01*
X148510500Y-79385627D01*
X148510500Y-78969669D01*
X148530502Y-78901548D01*
X148570351Y-78862428D01*
X148628346Y-78826658D01*
X148660905Y-78794098D01*
X148723215Y-78760074D01*
X148794031Y-78765138D01*
X148839094Y-78794098D01*
X148871654Y-78826658D01*
X149020080Y-78918209D01*
X149185619Y-78973062D01*
X149287787Y-78983500D01*
X149782576Y-78983499D01*
X149850697Y-79003501D01*
X149871671Y-79020404D01*
X149997038Y-79145771D01*
X150031064Y-79208083D01*
X150028795Y-79239809D01*
X150029000Y-79239809D01*
X150029000Y-80246000D01*
X150858001Y-80246000D01*
X150888539Y-80215462D01*
X150950851Y-80181436D01*
X151021666Y-80186501D01*
X151066729Y-80215462D01*
X155077595Y-84226328D01*
X155111621Y-84288640D01*
X155114500Y-84315423D01*
X155114500Y-90594595D01*
X155094498Y-90662716D01*
X155040842Y-90709209D01*
X154970568Y-90719313D01*
X154905988Y-90689819D01*
X154868895Y-90634228D01*
X154866657Y-90627474D01*
X154773634Y-90476660D01*
X154773629Y-90476654D01*
X154648345Y-90351370D01*
X154648339Y-90351365D01*
X154497525Y-90258342D01*
X154329321Y-90202606D01*
X154329318Y-90202605D01*
X154225516Y-90192000D01*
X154104000Y-90192000D01*
X154104000Y-92608000D01*
X154225517Y-92608000D01*
X154225516Y-92607999D01*
X154329318Y-92597394D01*
X154329321Y-92597393D01*
X154497525Y-92541657D01*
X154648339Y-92448634D01*
X154648345Y-92448629D01*
X154773629Y-92323345D01*
X154773634Y-92323339D01*
X154866658Y-92172522D01*
X154868895Y-92165774D01*
X154909307Y-92107401D01*
X154974863Y-92080144D01*
X155044748Y-92092656D01*
X155096775Y-92140965D01*
X155114500Y-92205404D01*
X155114500Y-96430577D01*
X155094498Y-96498698D01*
X155077595Y-96519672D01*
X150506377Y-101090889D01*
X150506368Y-101090900D01*
X150443159Y-101185501D01*
X150440961Y-101187337D01*
X150439986Y-101190032D01*
X150413879Y-101209971D01*
X150388683Y-101231029D01*
X150385146Y-101231916D01*
X150383564Y-101233125D01*
X150371163Y-101235424D01*
X150348595Y-101241086D01*
X150343498Y-101241500D01*
X150326362Y-101241500D01*
X150273393Y-101247194D01*
X150271701Y-101247332D01*
X150238484Y-101240441D01*
X150205098Y-101234417D01*
X150203851Y-101233256D01*
X150202185Y-101232911D01*
X150177963Y-101209153D01*
X150153137Y-101186038D01*
X150152672Y-101184346D01*
X150151500Y-101183196D01*
X150147317Y-101164822D01*
X150135500Y-101121746D01*
X150135500Y-98095422D01*
X150155502Y-98027301D01*
X150172400Y-98006331D01*
X151310485Y-96868246D01*
X151372795Y-96834223D01*
X151419282Y-96832894D01*
X151580954Y-96858500D01*
X151580957Y-96858500D01*
X151779043Y-96858500D01*
X151779046Y-96858500D01*
X151974700Y-96827512D01*
X152163097Y-96766298D01*
X152339598Y-96676366D01*
X152499858Y-96559930D01*
X152639930Y-96419858D01*
X152756366Y-96259598D01*
X152846298Y-96083097D01*
X152907512Y-95894700D01*
X152938500Y-95699046D01*
X152938500Y-95500954D01*
X152907512Y-95305300D01*
X152846298Y-95116903D01*
X152756366Y-94940402D01*
X152639930Y-94780142D01*
X152639928Y-94780139D01*
X152499864Y-94640075D01*
X152499860Y-94640072D01*
X152499858Y-94640070D01*
X152367437Y-94543860D01*
X152324085Y-94487638D01*
X152315500Y-94441925D01*
X152315500Y-92676918D01*
X152335502Y-92608797D01*
X152389158Y-92562304D01*
X152401852Y-92557319D01*
X152447738Y-92542115D01*
X152598652Y-92449030D01*
X152724030Y-92323652D01*
X152724037Y-92323639D01*
X152726478Y-92320554D01*
X152728709Y-92318973D01*
X152729220Y-92318463D01*
X152729307Y-92318550D01*
X152784416Y-92279521D01*
X152855340Y-92276324D01*
X152916734Y-92311980D01*
X152924161Y-92320551D01*
X152926369Y-92323344D01*
X153051654Y-92448629D01*
X153051660Y-92448634D01*
X153202474Y-92541657D01*
X153370678Y-92597393D01*
X153370681Y-92597394D01*
X153474483Y-92607999D01*
X153474483Y-92608000D01*
X153596000Y-92608000D01*
X153596000Y-90192000D01*
X153474483Y-90192000D01*
X153370681Y-90202605D01*
X153370678Y-90202606D01*
X153202474Y-90258342D01*
X153051660Y-90351365D01*
X153051654Y-90351370D01*
X152926370Y-90476654D01*
X152924157Y-90479454D01*
X152922149Y-90480875D01*
X152921175Y-90481850D01*
X152921008Y-90481683D01*
X152866216Y-90520482D01*
X152795291Y-90523672D01*
X152733900Y-90488011D01*
X152726483Y-90479450D01*
X152724028Y-90476345D01*
X152598658Y-90350975D01*
X152598652Y-90350970D01*
X152540854Y-90315320D01*
X152447738Y-90257885D01*
X152363582Y-90229999D01*
X152279427Y-90202113D01*
X152279420Y-90202112D01*
X152175553Y-90191500D01*
X151424455Y-90191500D01*
X151320574Y-90202112D01*
X151152261Y-90257885D01*
X151001347Y-90350970D01*
X151001341Y-90350975D01*
X150875975Y-90476341D01*
X150875970Y-90476347D01*
X150782885Y-90627262D01*
X150727113Y-90795572D01*
X150727112Y-90795579D01*
X150716500Y-90899446D01*
X150716500Y-91900544D01*
X150727112Y-92004425D01*
X150782885Y-92172738D01*
X150875970Y-92323652D01*
X150875975Y-92323658D01*
X151006537Y-92454220D01*
X151004435Y-92456321D01*
X151037665Y-92503217D01*
X151044500Y-92544151D01*
X151044500Y-94441925D01*
X151024498Y-94510046D01*
X150992562Y-94543861D01*
X150860135Y-94640075D01*
X150720071Y-94780139D01*
X150603636Y-94940398D01*
X150603634Y-94940402D01*
X150513702Y-95116903D01*
X150452488Y-95305300D01*
X150421500Y-95500954D01*
X150421500Y-95699046D01*
X150447104Y-95860710D01*
X150438005Y-95931119D01*
X150411751Y-95969514D01*
X149329094Y-97052171D01*
X149266782Y-97086197D01*
X149195967Y-97081132D01*
X149150904Y-97052171D01*
X148068248Y-95969515D01*
X148034222Y-95907203D01*
X148032894Y-95860717D01*
X148058500Y-95699046D01*
X148058500Y-95500954D01*
X148027512Y-95305300D01*
X147966298Y-95116903D01*
X147876366Y-94940402D01*
X147759930Y-94780142D01*
X147759928Y-94780139D01*
X147619864Y-94640075D01*
X147619860Y-94640072D01*
X147619858Y-94640070D01*
X147487437Y-94543860D01*
X147444085Y-94487638D01*
X147435500Y-94441925D01*
X147435500Y-92619986D01*
X147455502Y-92551865D01*
X147495351Y-92512746D01*
X147598652Y-92449030D01*
X147724030Y-92323652D01*
X147817115Y-92172738D01*
X147872887Y-92004426D01*
X147883500Y-91900545D01*
X147883499Y-90899456D01*
X147872887Y-90795574D01*
X147817115Y-90627262D01*
X147724030Y-90476348D01*
X147724027Y-90476345D01*
X147724024Y-90476341D01*
X147598658Y-90350975D01*
X147598652Y-90350970D01*
X147540854Y-90315320D01*
X147447738Y-90257885D01*
X147363582Y-90229999D01*
X147279427Y-90202113D01*
X147279420Y-90202112D01*
X147175553Y-90191500D01*
X146424455Y-90191500D01*
X146320574Y-90202112D01*
X146152261Y-90257885D01*
X146001347Y-90350970D01*
X146001341Y-90350975D01*
X145875971Y-90476345D01*
X145873511Y-90479457D01*
X145871281Y-90481035D01*
X145870780Y-90481537D01*
X145870694Y-90481451D01*
X145815568Y-90520483D01*
X145744643Y-90523671D01*
X145683254Y-90488008D01*
X145675837Y-90479446D01*
X145673632Y-90476657D01*
X145548345Y-90351370D01*
X145548339Y-90351365D01*
X145397525Y-90258342D01*
X145229321Y-90202606D01*
X145229318Y-90202605D01*
X145125516Y-90192000D01*
X145004000Y-90192000D01*
X145004000Y-92608000D01*
X145125517Y-92608000D01*
X145125516Y-92607999D01*
X145229318Y-92597394D01*
X145229321Y-92597393D01*
X145397525Y-92541657D01*
X145548339Y-92448634D01*
X145548345Y-92448629D01*
X145673624Y-92323350D01*
X145675832Y-92320558D01*
X145677837Y-92319137D01*
X145678825Y-92318150D01*
X145678993Y-92318318D01*
X145733768Y-92279522D01*
X145804693Y-92276323D01*
X145866088Y-92311976D01*
X145873515Y-92320547D01*
X145875974Y-92323657D01*
X146001341Y-92449024D01*
X146001347Y-92449029D01*
X146001348Y-92449030D01*
X146104648Y-92512746D01*
X146152125Y-92565531D01*
X146164500Y-92619986D01*
X146164500Y-94441925D01*
X146144498Y-94510046D01*
X146112562Y-94543861D01*
X145980135Y-94640075D01*
X145840071Y-94780139D01*
X145723636Y-94940398D01*
X145723634Y-94940402D01*
X145633702Y-95116903D01*
X145572488Y-95305300D01*
X145541500Y-95500954D01*
X145541500Y-95699046D01*
X145572488Y-95894700D01*
X145633702Y-96083097D01*
X145721039Y-96254505D01*
X145723636Y-96259601D01*
X145840071Y-96419860D01*
X145980139Y-96559928D01*
X145980142Y-96559930D01*
X146140402Y-96676366D01*
X146316903Y-96766298D01*
X146505300Y-96827512D01*
X146700954Y-96858500D01*
X146700957Y-96858500D01*
X146899043Y-96858500D01*
X146899046Y-96858500D01*
X147060714Y-96832894D01*
X147131120Y-96841993D01*
X147169515Y-96868248D01*
X148327595Y-98026328D01*
X148342539Y-98053696D01*
X148359396Y-98079925D01*
X148360301Y-98086223D01*
X148361621Y-98088640D01*
X148364500Y-98115423D01*
X148364500Y-98166671D01*
X148344498Y-98234792D01*
X148290842Y-98281285D01*
X148228752Y-98291514D01*
X148228720Y-98292163D01*
X148225740Y-98292011D01*
X148225694Y-98292019D01*
X148225508Y-98292000D01*
X148104000Y-98292000D01*
X148104000Y-99374000D01*
X148083998Y-99442121D01*
X148030342Y-99488614D01*
X147978000Y-99500000D01*
X147722000Y-99500000D01*
X147653879Y-99479998D01*
X147607386Y-99426342D01*
X147596000Y-99374000D01*
X147596000Y-98292000D01*
X147474483Y-98292000D01*
X147370681Y-98302605D01*
X147370678Y-98302606D01*
X147202474Y-98358342D01*
X147051660Y-98451365D01*
X147051654Y-98451370D01*
X146926370Y-98576654D01*
X146924157Y-98579454D01*
X146922149Y-98580875D01*
X146921175Y-98581850D01*
X146921008Y-98581683D01*
X146866216Y-98620482D01*
X146795291Y-98623672D01*
X146733900Y-98588011D01*
X146726483Y-98579450D01*
X146724028Y-98576345D01*
X146598658Y-98450975D01*
X146598652Y-98450970D01*
X146552033Y-98422215D01*
X146447738Y-98357885D01*
X146363582Y-98329999D01*
X146279427Y-98302113D01*
X146279420Y-98302112D01*
X146175553Y-98291500D01*
X145424455Y-98291500D01*
X145320574Y-98302112D01*
X145152261Y-98357885D01*
X145001347Y-98450970D01*
X145001341Y-98450975D01*
X144875975Y-98576341D01*
X144875970Y-98576347D01*
X144782885Y-98727262D01*
X144727113Y-98895572D01*
X144727112Y-98895579D01*
X144716500Y-98999446D01*
X144716500Y-99513577D01*
X144696498Y-99581698D01*
X144642842Y-99628191D01*
X144572568Y-99638295D01*
X144507988Y-99608801D01*
X144501405Y-99602672D01*
X143622405Y-98723672D01*
X143588379Y-98661360D01*
X143585500Y-98634577D01*
X143585500Y-92377124D01*
X143605502Y-92309003D01*
X143659158Y-92262510D01*
X143729432Y-92252406D01*
X143794012Y-92281900D01*
X143818742Y-92310979D01*
X143826365Y-92323339D01*
X143826370Y-92323345D01*
X143951654Y-92448629D01*
X143951660Y-92448634D01*
X144102474Y-92541657D01*
X144270678Y-92597393D01*
X144270681Y-92597394D01*
X144374483Y-92607999D01*
X144374483Y-92608000D01*
X144496000Y-92608000D01*
X144496000Y-90192000D01*
X144374483Y-90192000D01*
X144270681Y-90202605D01*
X144270678Y-90202606D01*
X144102474Y-90258342D01*
X143951660Y-90351365D01*
X143951654Y-90351370D01*
X143826370Y-90476654D01*
X143826365Y-90476660D01*
X143818741Y-90489022D01*
X143765955Y-90536500D01*
X143695880Y-90547903D01*
X143630764Y-90519610D01*
X143591282Y-90460605D01*
X143585500Y-90422875D01*
X143585500Y-75219986D01*
X143605502Y-75151865D01*
X143645351Y-75112746D01*
X143748652Y-75049030D01*
X143874030Y-74923652D01*
X143874031Y-74923649D01*
X143876162Y-74920956D01*
X143878098Y-74919584D01*
X143879220Y-74918463D01*
X143879411Y-74918654D01*
X143934101Y-74879925D01*
X144005026Y-74876733D01*
X144066418Y-74912392D01*
X144073838Y-74920956D01*
X144075971Y-74923654D01*
X144201341Y-75049024D01*
X144201347Y-75049029D01*
X144201348Y-75049030D01*
X144352262Y-75142115D01*
X144520574Y-75197887D01*
X144624455Y-75208500D01*
X145375544Y-75208499D01*
X145479426Y-75197887D01*
X145479429Y-75197886D01*
X145479431Y-75197886D01*
X145546147Y-75175778D01*
X145617849Y-75152018D01*
X145688801Y-75149578D01*
X145749812Y-75185886D01*
X145774589Y-75225132D01*
X145778821Y-75235793D01*
X145781318Y-75248344D01*
X145841091Y-75392648D01*
X145841449Y-75393549D01*
X145844638Y-75428000D01*
X145848338Y-75462411D01*
X145847947Y-75463740D01*
X145847994Y-75464243D01*
X145847547Y-75465102D01*
X145840749Y-75488258D01*
X145781319Y-75631732D01*
X145748600Y-75796219D01*
X145748600Y-75963942D01*
X145781319Y-76128431D01*
X145845496Y-76283365D01*
X145845498Y-76283369D01*
X145845499Y-76283370D01*
X145938674Y-76422817D01*
X146057264Y-76541407D01*
X146196707Y-76634579D01*
X146196711Y-76634582D01*
X146196715Y-76634584D01*
X146351649Y-76698761D01*
X146351653Y-76698761D01*
X146351656Y-76698763D01*
X146476416Y-76723578D01*
X146516138Y-76731480D01*
X146516141Y-76731480D01*
X146516144Y-76731481D01*
X146516145Y-76731481D01*
X146683855Y-76731481D01*
X146683856Y-76731481D01*
X146848344Y-76698763D01*
X146848347Y-76698761D01*
X146848350Y-76698761D01*
X147003284Y-76634584D01*
X147003283Y-76634584D01*
X147003289Y-76634582D01*
X147079199Y-76583861D01*
X147142731Y-76541411D01*
X147142731Y-76541409D01*
X147142736Y-76541407D01*
X147149781Y-76534360D01*
X147212090Y-76500335D01*
X147282906Y-76505396D01*
X147282911Y-76505398D01*
X147303261Y-76512987D01*
X147340799Y-76526989D01*
X147340800Y-76526989D01*
X147340804Y-76526990D01*
X147401350Y-76533499D01*
X147401355Y-76533499D01*
X147401362Y-76533500D01*
X147401368Y-76533500D01*
X148098632Y-76533500D01*
X148098638Y-76533500D01*
X148098645Y-76533499D01*
X148098649Y-76533499D01*
X148159196Y-76526990D01*
X148159199Y-76526989D01*
X148159201Y-76526989D01*
X148296204Y-76475889D01*
X148367103Y-76422815D01*
X148413261Y-76388261D01*
X148500887Y-76271207D01*
X148500887Y-76271206D01*
X148500889Y-76271204D01*
X148551989Y-76134201D01*
X148552610Y-76128431D01*
X148558499Y-76073649D01*
X148558500Y-76073632D01*
X148558500Y-75426366D01*
X148558499Y-75426354D01*
X148554426Y-75388470D01*
X148556725Y-75375722D01*
X148554426Y-75361530D01*
X148558499Y-75323645D01*
X148558500Y-75323633D01*
X148558500Y-74676366D01*
X148558499Y-74676354D01*
X148554426Y-74638470D01*
X148556788Y-74625375D01*
X148554426Y-74611530D01*
X148555201Y-74604321D01*
X148558500Y-74573638D01*
X148558500Y-73926362D01*
X148554426Y-73888469D01*
X148556660Y-73876086D01*
X148554426Y-73861530D01*
X148558499Y-73823645D01*
X148558500Y-73823633D01*
X148558500Y-73176366D01*
X148558499Y-73176354D01*
X148554426Y-73138470D01*
X148556725Y-73125722D01*
X148554426Y-73111530D01*
X148558500Y-73073638D01*
X148558500Y-72426369D01*
X148941500Y-72426369D01*
X148941500Y-73073630D01*
X148941501Y-73073654D01*
X148945573Y-73111534D01*
X148945573Y-73138466D01*
X148941501Y-73176345D01*
X148941500Y-73176369D01*
X148941500Y-73823649D01*
X148945826Y-73863881D01*
X148945826Y-73890817D01*
X148942000Y-73926398D01*
X148942000Y-73996001D01*
X148952318Y-74006319D01*
X148985294Y-74016002D01*
X148985965Y-74016590D01*
X148986404Y-74016724D01*
X148990242Y-74020335D01*
X149013260Y-74040493D01*
X149015733Y-74043408D01*
X149086739Y-74138261D01*
X149112641Y-74157651D01*
X149121838Y-74168493D01*
X149130709Y-74188472D01*
X149143807Y-74205969D01*
X149144829Y-74220272D01*
X149150650Y-74233380D01*
X149147311Y-74254982D01*
X149148871Y-74276785D01*
X149141998Y-74289371D01*
X149139808Y-74303544D01*
X149125320Y-74319913D01*
X149114845Y-74339096D01*
X149101261Y-74350867D01*
X149086739Y-74361737D01*
X149018041Y-74453509D01*
X148961206Y-74496056D01*
X148947463Y-74498535D01*
X148942000Y-74503999D01*
X148942000Y-74573601D01*
X148945826Y-74609181D01*
X148945826Y-74636116D01*
X148941501Y-74676348D01*
X148941500Y-74676369D01*
X148941500Y-75323630D01*
X148941501Y-75323654D01*
X148945573Y-75361534D01*
X148945573Y-75388466D01*
X148941501Y-75426345D01*
X148941500Y-75426369D01*
X148941500Y-76073649D01*
X148948009Y-76134196D01*
X148948011Y-76134204D01*
X148999110Y-76271202D01*
X148999112Y-76271207D01*
X149086738Y-76388261D01*
X149203792Y-76475887D01*
X149203794Y-76475888D01*
X149203796Y-76475889D01*
X149262875Y-76497924D01*
X149340795Y-76526988D01*
X149340803Y-76526990D01*
X149401350Y-76533499D01*
X149401355Y-76533499D01*
X149401362Y-76533500D01*
X149401368Y-76533500D01*
X150098632Y-76533500D01*
X150098638Y-76533500D01*
X150098645Y-76533499D01*
X150098649Y-76533499D01*
X150159196Y-76526990D01*
X150159199Y-76526989D01*
X150159201Y-76526989D01*
X150296204Y-76475889D01*
X150367103Y-76422815D01*
X150413261Y-76388261D01*
X150500887Y-76271207D01*
X150500887Y-76271206D01*
X150500889Y-76271204D01*
X150551989Y-76134201D01*
X150552610Y-76128431D01*
X150558499Y-76073649D01*
X150558500Y-76073632D01*
X150558500Y-75761500D01*
X150578502Y-75693379D01*
X150632158Y-75646886D01*
X150684500Y-75635500D01*
X151012590Y-75635500D01*
X151012591Y-75635500D01*
X151135369Y-75611078D01*
X151140282Y-75609042D01*
X151173424Y-75605479D01*
X151206432Y-75600734D01*
X151208553Y-75601703D01*
X151210871Y-75601454D01*
X151240681Y-75616375D01*
X151271012Y-75630228D01*
X151272272Y-75632188D01*
X151274358Y-75633233D01*
X151291374Y-75661912D01*
X151309396Y-75689954D01*
X151309838Y-75693031D01*
X151310586Y-75694291D01*
X151314500Y-75725452D01*
X151314500Y-75955221D01*
X151294498Y-76023342D01*
X151293266Y-76025222D01*
X151245497Y-76096713D01*
X151245496Y-76096715D01*
X151181319Y-76251649D01*
X151148600Y-76416138D01*
X151148600Y-76583861D01*
X151181319Y-76748350D01*
X151245496Y-76903284D01*
X151245498Y-76903288D01*
X151245499Y-76903289D01*
X151338674Y-77042736D01*
X151457264Y-77161326D01*
X151567318Y-77234861D01*
X151596711Y-77254501D01*
X151596715Y-77254503D01*
X151751649Y-77318680D01*
X151751653Y-77318680D01*
X151751656Y-77318682D01*
X151876416Y-77343497D01*
X151916138Y-77351399D01*
X151916141Y-77351399D01*
X151916144Y-77351400D01*
X151916145Y-77351400D01*
X152083855Y-77351400D01*
X152083856Y-77351400D01*
X152248344Y-77318682D01*
X152248347Y-77318680D01*
X152248350Y-77318680D01*
X152403284Y-77254503D01*
X152403283Y-77254503D01*
X152403289Y-77254501D01*
X152542736Y-77161326D01*
X152661326Y-77042736D01*
X152754501Y-76903289D01*
X152818682Y-76748344D01*
X152851400Y-76583856D01*
X152851400Y-76416144D01*
X152818682Y-76251656D01*
X152818680Y-76251653D01*
X152818680Y-76251649D01*
X152754503Y-76096715D01*
X152754501Y-76096711D01*
X152661326Y-75957264D01*
X152622405Y-75918343D01*
X152588379Y-75856031D01*
X152585500Y-75829248D01*
X152585500Y-75219986D01*
X152605502Y-75151865D01*
X152645351Y-75112746D01*
X152748652Y-75049030D01*
X152874030Y-74923652D01*
X152874037Y-74923639D01*
X152876478Y-74920554D01*
X152878709Y-74918973D01*
X152879220Y-74918463D01*
X152879307Y-74918550D01*
X152934416Y-74879521D01*
X153005340Y-74876324D01*
X153066734Y-74911980D01*
X153074161Y-74920551D01*
X153076369Y-74923344D01*
X153201654Y-75048629D01*
X153201660Y-75048634D01*
X153352474Y-75141657D01*
X153520678Y-75197393D01*
X153520681Y-75197394D01*
X153624483Y-75207999D01*
X153624483Y-75208000D01*
X153746000Y-75208000D01*
X154254000Y-75208000D01*
X154375517Y-75208000D01*
X154375516Y-75207999D01*
X154479318Y-75197394D01*
X154479321Y-75197393D01*
X154647525Y-75141657D01*
X154798339Y-75048634D01*
X154798345Y-75048629D01*
X154923629Y-74923345D01*
X154923634Y-74923339D01*
X155016657Y-74772525D01*
X155072393Y-74604321D01*
X155072394Y-74604318D01*
X155082999Y-74500516D01*
X155083000Y-74500516D01*
X155083000Y-74254000D01*
X154254000Y-74254000D01*
X154254000Y-75208000D01*
X153746000Y-75208000D01*
X153746000Y-73878709D01*
X169149500Y-73878709D01*
X169149500Y-74121290D01*
X169181160Y-74361782D01*
X169243944Y-74596095D01*
X169243945Y-74596097D01*
X169243946Y-74596100D01*
X169336776Y-74820212D01*
X169336777Y-74820213D01*
X169336782Y-74820224D01*
X169458061Y-75030285D01*
X169458063Y-75030288D01*
X169458064Y-75030289D01*
X169605735Y-75222738D01*
X169605739Y-75222742D01*
X169605744Y-75222748D01*
X169777251Y-75394255D01*
X169777256Y-75394259D01*
X169777262Y-75394265D01*
X169969711Y-75541936D01*
X169969714Y-75541938D01*
X170179775Y-75663217D01*
X170179779Y-75663218D01*
X170179788Y-75663224D01*
X170403900Y-75756054D01*
X170638211Y-75818838D01*
X170638215Y-75818838D01*
X170638217Y-75818839D01*
X170700202Y-75826999D01*
X170878712Y-75850500D01*
X170878719Y-75850500D01*
X171121281Y-75850500D01*
X171121288Y-75850500D01*
X171338637Y-75821885D01*
X171361782Y-75818839D01*
X171361782Y-75818838D01*
X171361789Y-75818838D01*
X171596100Y-75756054D01*
X171820212Y-75663224D01*
X172030289Y-75541936D01*
X172222738Y-75394265D01*
X172394265Y-75222738D01*
X172541936Y-75030289D01*
X172663224Y-74820212D01*
X172756054Y-74596100D01*
X172818838Y-74361789D01*
X172850500Y-74121288D01*
X172850500Y-73878712D01*
X172819866Y-73646016D01*
X172818839Y-73638217D01*
X172818838Y-73638215D01*
X172818838Y-73638211D01*
X172756054Y-73403900D01*
X172663224Y-73179788D01*
X172663218Y-73179779D01*
X172663217Y-73179775D01*
X172541938Y-72969714D01*
X172518003Y-72938521D01*
X172394265Y-72777262D01*
X172394259Y-72777256D01*
X172394255Y-72777251D01*
X172222748Y-72605744D01*
X172222742Y-72605739D01*
X172222738Y-72605735D01*
X172030289Y-72458064D01*
X172030288Y-72458063D01*
X172030285Y-72458061D01*
X171820224Y-72336782D01*
X171820216Y-72336778D01*
X171820212Y-72336776D01*
X171596100Y-72243946D01*
X171596097Y-72243945D01*
X171596095Y-72243944D01*
X171361782Y-72181160D01*
X171121290Y-72149500D01*
X171121288Y-72149500D01*
X170878712Y-72149500D01*
X170878709Y-72149500D01*
X170638217Y-72181160D01*
X170403904Y-72243944D01*
X170403900Y-72243946D01*
X170211596Y-72323601D01*
X170179786Y-72336777D01*
X170179775Y-72336782D01*
X169969714Y-72458061D01*
X169777262Y-72605735D01*
X169777251Y-72605744D01*
X169605744Y-72777251D01*
X169605735Y-72777262D01*
X169458061Y-72969714D01*
X169336782Y-73179775D01*
X169336777Y-73179786D01*
X169336776Y-73179788D01*
X169296181Y-73277794D01*
X169243946Y-73403900D01*
X169243944Y-73403904D01*
X169181160Y-73638217D01*
X169149500Y-73878709D01*
X153746000Y-73878709D01*
X153746000Y-73746000D01*
X154254000Y-73746000D01*
X155083000Y-73746000D01*
X155083000Y-73499483D01*
X155072394Y-73395681D01*
X155072393Y-73395678D01*
X155016657Y-73227474D01*
X154919782Y-73070415D01*
X154921311Y-73069471D01*
X154898251Y-73012314D01*
X154911500Y-72942565D01*
X154919824Y-72929611D01*
X154919782Y-72929585D01*
X155016657Y-72772525D01*
X155072393Y-72604321D01*
X155072394Y-72604318D01*
X155082999Y-72500516D01*
X155083000Y-72500516D01*
X155083000Y-72254000D01*
X154254000Y-72254000D01*
X154254000Y-73746000D01*
X153746000Y-73746000D01*
X153746000Y-71746000D01*
X154254000Y-71746000D01*
X155083000Y-71746000D01*
X155083000Y-71499483D01*
X155072394Y-71395681D01*
X155072393Y-71395678D01*
X155016657Y-71227474D01*
X154923634Y-71076660D01*
X154923629Y-71076654D01*
X154798345Y-70951370D01*
X154798339Y-70951365D01*
X154647525Y-70858342D01*
X154479321Y-70802606D01*
X154479318Y-70802605D01*
X154375516Y-70792000D01*
X154254000Y-70792000D01*
X154254000Y-71746000D01*
X153746000Y-71746000D01*
X153746000Y-70792000D01*
X153624483Y-70792000D01*
X153520681Y-70802605D01*
X153520678Y-70802606D01*
X153352474Y-70858342D01*
X153201660Y-70951365D01*
X153201654Y-70951370D01*
X153076370Y-71076654D01*
X153074157Y-71079454D01*
X153072149Y-71080875D01*
X153071175Y-71081850D01*
X153071008Y-71081683D01*
X153016216Y-71120482D01*
X152945291Y-71123672D01*
X152883900Y-71088011D01*
X152876483Y-71079450D01*
X152874028Y-71076345D01*
X152748658Y-70950975D01*
X152748652Y-70950970D01*
X152597738Y-70857885D01*
X152513582Y-70829999D01*
X152429427Y-70802113D01*
X152429420Y-70802112D01*
X152325553Y-70791500D01*
X151574455Y-70791500D01*
X151470574Y-70802112D01*
X151302261Y-70857885D01*
X151151347Y-70950970D01*
X151151341Y-70950975D01*
X151025975Y-71076341D01*
X151025970Y-71076347D01*
X150932885Y-71227262D01*
X150877113Y-71395572D01*
X150877112Y-71395579D01*
X150866500Y-71499446D01*
X150866500Y-72132575D01*
X150857716Y-72162490D01*
X150851088Y-72192960D01*
X150847273Y-72198055D01*
X150846498Y-72200696D01*
X150829595Y-72221670D01*
X150766728Y-72284537D01*
X150704416Y-72318563D01*
X150633601Y-72313498D01*
X150588538Y-72284537D01*
X150547681Y-72243680D01*
X150514706Y-72233998D01*
X150481959Y-72203509D01*
X150479853Y-72200696D01*
X150428859Y-72132575D01*
X150413261Y-72111738D01*
X150296207Y-72024112D01*
X150296203Y-72024110D01*
X150204898Y-71990055D01*
X150148062Y-71947509D01*
X150123252Y-71880988D01*
X150138344Y-71811614D01*
X150188546Y-71761412D01*
X150248931Y-71746000D01*
X150558000Y-71746000D01*
X150558000Y-71676414D01*
X150557999Y-71676402D01*
X150551494Y-71615906D01*
X150500444Y-71479035D01*
X150500444Y-71479034D01*
X150412904Y-71362095D01*
X150295965Y-71274555D01*
X150159093Y-71223505D01*
X150098597Y-71217000D01*
X150004000Y-71217000D01*
X150004000Y-71746001D01*
X150009404Y-71751405D01*
X150043430Y-71813717D01*
X150038365Y-71884532D01*
X149995818Y-71941368D01*
X149929298Y-71966179D01*
X149920309Y-71966500D01*
X149579691Y-71966500D01*
X149511570Y-71946498D01*
X149465077Y-71892842D01*
X149454973Y-71822568D01*
X149484467Y-71757988D01*
X149490596Y-71751405D01*
X149496000Y-71746001D01*
X149496000Y-71217000D01*
X149401402Y-71217000D01*
X149340906Y-71223505D01*
X149204035Y-71274555D01*
X149204034Y-71274555D01*
X149087095Y-71362095D01*
X148999555Y-71479034D01*
X148999555Y-71479035D01*
X148948505Y-71615906D01*
X148942000Y-71676402D01*
X148942000Y-71746000D01*
X149251069Y-71746000D01*
X149319190Y-71766002D01*
X149365683Y-71819658D01*
X149375787Y-71889932D01*
X149346293Y-71954512D01*
X149295102Y-71990055D01*
X149203796Y-72024110D01*
X149203792Y-72024112D01*
X149086738Y-72111738D01*
X149029218Y-72188577D01*
X149020147Y-72200696D01*
X149018041Y-72203509D01*
X148961206Y-72246056D01*
X148947463Y-72248535D01*
X148942000Y-72253999D01*
X148942000Y-72323601D01*
X148945826Y-72359181D01*
X148945826Y-72386116D01*
X148941501Y-72426348D01*
X148941500Y-72426369D01*
X148558500Y-72426369D01*
X148558500Y-72426362D01*
X148554380Y-72388042D01*
X148554329Y-72387530D01*
X148554426Y-72387014D01*
X148554426Y-72361530D01*
X148557087Y-72336777D01*
X148558500Y-72323638D01*
X148558500Y-71676362D01*
X148558499Y-71676350D01*
X148551990Y-71615803D01*
X148551988Y-71615795D01*
X148500978Y-71479035D01*
X148500889Y-71478796D01*
X148500888Y-71478794D01*
X148500887Y-71478792D01*
X148413261Y-71361738D01*
X148296207Y-71274112D01*
X148296202Y-71274110D01*
X148159204Y-71223011D01*
X148159196Y-71223009D01*
X148098649Y-71216500D01*
X148098638Y-71216500D01*
X147401362Y-71216500D01*
X147401350Y-71216500D01*
X147340803Y-71223009D01*
X147340795Y-71223011D01*
X147203797Y-71274110D01*
X147203796Y-71274110D01*
X147152179Y-71312750D01*
X147116622Y-71339368D01*
X147050103Y-71364179D01*
X147041114Y-71364500D01*
X146153576Y-71364500D01*
X146085455Y-71344498D01*
X146038962Y-71290842D01*
X146033972Y-71278133D01*
X146023158Y-71245499D01*
X146017115Y-71227262D01*
X145924030Y-71076348D01*
X145924027Y-71076345D01*
X145924024Y-71076341D01*
X145798658Y-70950975D01*
X145798652Y-70950970D01*
X145647738Y-70857885D01*
X145563582Y-70829999D01*
X145479427Y-70802113D01*
X145479420Y-70802112D01*
X145375553Y-70791500D01*
X144624455Y-70791500D01*
X144520574Y-70802112D01*
X144352261Y-70857885D01*
X144201347Y-70950970D01*
X144201341Y-70950975D01*
X144075972Y-71076344D01*
X144073834Y-71079049D01*
X144071895Y-71080421D01*
X144070780Y-71081537D01*
X144070589Y-71081346D01*
X144015892Y-71120076D01*
X143944967Y-71123264D01*
X143883577Y-71087602D01*
X143876166Y-71079049D01*
X143874027Y-71076344D01*
X143748658Y-70950975D01*
X143748652Y-70950970D01*
X143597738Y-70857885D01*
X143513582Y-70829999D01*
X143429427Y-70802113D01*
X143429420Y-70802112D01*
X143325553Y-70791500D01*
X142574455Y-70791500D01*
X142470574Y-70802112D01*
X142302261Y-70857885D01*
X142151347Y-70950970D01*
X142151341Y-70950975D01*
X142025975Y-71076341D01*
X142025966Y-71076353D01*
X141974231Y-71160228D01*
X141921445Y-71207706D01*
X141851370Y-71219109D01*
X141818773Y-71210490D01*
X141748348Y-71181319D01*
X141748344Y-71181318D01*
X141720309Y-71175741D01*
X141583861Y-71148600D01*
X141583856Y-71148600D01*
X141416144Y-71148600D01*
X141416138Y-71148600D01*
X141251649Y-71181319D01*
X141096715Y-71245496D01*
X141096711Y-71245498D01*
X140957265Y-71338673D01*
X140957259Y-71338678D01*
X140838678Y-71457259D01*
X140838673Y-71457265D01*
X140745498Y-71596711D01*
X140745496Y-71596715D01*
X140681319Y-71751649D01*
X140648600Y-71916138D01*
X140648600Y-72083861D01*
X140681319Y-72248350D01*
X140745496Y-72403284D01*
X140745498Y-72403288D01*
X140745499Y-72403289D01*
X140838674Y-72542736D01*
X140957264Y-72661326D01*
X141047871Y-72721867D01*
X141096711Y-72754501D01*
X141096715Y-72754503D01*
X141251649Y-72818680D01*
X141251653Y-72818680D01*
X141251656Y-72818682D01*
X141376416Y-72843497D01*
X141416138Y-72851399D01*
X141416141Y-72851399D01*
X141416144Y-72851400D01*
X141416145Y-72851400D01*
X141583855Y-72851400D01*
X141583856Y-72851400D01*
X141748344Y-72818682D01*
X141748347Y-72818680D01*
X141748350Y-72818680D01*
X141818772Y-72789510D01*
X141852717Y-72785860D01*
X141886572Y-72781449D01*
X141887900Y-72782077D01*
X141889361Y-72781920D01*
X141919891Y-72797201D01*
X141950757Y-72811794D01*
X141951996Y-72813271D01*
X141952849Y-72813698D01*
X141973881Y-72839206D01*
X141974052Y-72839481D01*
X142025970Y-72923652D01*
X142027606Y-72925288D01*
X142032599Y-72933288D01*
X142040340Y-72961003D01*
X142051107Y-72987695D01*
X142049766Y-72994751D01*
X142051698Y-73001668D01*
X142043225Y-73029169D01*
X142037853Y-73057444D01*
X142031443Y-73067417D01*
X142030796Y-73069518D01*
X142029518Y-73070595D01*
X141932885Y-73227262D01*
X141877113Y-73395572D01*
X141877112Y-73395579D01*
X141866500Y-73499446D01*
X141866500Y-74500544D01*
X141877112Y-74604425D01*
X141932885Y-74772738D01*
X142025970Y-74923652D01*
X142025975Y-74923658D01*
X142151341Y-75049024D01*
X142151347Y-75049029D01*
X142151348Y-75049030D01*
X142254648Y-75112746D01*
X142302125Y-75165531D01*
X142314500Y-75219986D01*
X142314500Y-99012593D01*
X142320496Y-99042736D01*
X142338922Y-99135369D01*
X142386827Y-99251022D01*
X142456375Y-99355108D01*
X144506375Y-101405108D01*
X144594892Y-101493625D01*
X144698978Y-101563173D01*
X144814631Y-101611078D01*
X144937409Y-101635500D01*
X145240500Y-101635500D01*
X145308621Y-101655502D01*
X145355114Y-101709158D01*
X145366500Y-101761500D01*
X145366500Y-103098649D01*
X145373009Y-103159196D01*
X145373010Y-103159197D01*
X145403778Y-103241689D01*
X145408843Y-103312505D01*
X145374818Y-103374817D01*
X145312505Y-103408842D01*
X145241690Y-103403778D01*
X145159201Y-103373011D01*
X145159199Y-103373010D01*
X145159197Y-103373010D01*
X145159196Y-103373009D01*
X145098649Y-103366500D01*
X145098638Y-103366500D01*
X143701362Y-103366500D01*
X143701350Y-103366500D01*
X143640803Y-103373009D01*
X143640795Y-103373011D01*
X143503797Y-103424110D01*
X143503792Y-103424112D01*
X143386738Y-103511738D01*
X143299112Y-103628792D01*
X143299110Y-103628797D01*
X143248011Y-103765795D01*
X143248009Y-103765803D01*
X143241500Y-103826350D01*
X143241500Y-104173649D01*
X143248261Y-104236532D01*
X143248261Y-104263468D01*
X143241500Y-104326350D01*
X143241500Y-104673649D01*
X143248261Y-104736532D01*
X143248261Y-104763468D01*
X143241500Y-104826350D01*
X143241500Y-105173649D01*
X143247025Y-105225032D01*
X143234419Y-105294900D01*
X143186041Y-105346862D01*
X143121747Y-105364500D01*
X139187406Y-105364500D01*
X139064630Y-105388922D01*
X139064625Y-105388924D01*
X138948977Y-105436827D01*
X138844896Y-105506372D01*
X138844889Y-105506377D01*
X132473672Y-111877595D01*
X132411360Y-111911621D01*
X132384577Y-111914500D01*
X127219986Y-111914500D01*
X127151865Y-111894498D01*
X127112746Y-111854648D01*
X127049030Y-111751348D01*
X127049029Y-111751347D01*
X127049024Y-111751341D01*
X126923654Y-111625971D01*
X126920956Y-111623838D01*
X126919584Y-111621901D01*
X126918463Y-111620780D01*
X126918654Y-111620588D01*
X126879925Y-111565899D01*
X126876733Y-111494974D01*
X126912392Y-111433582D01*
X126920956Y-111426162D01*
X126923649Y-111424031D01*
X126923652Y-111424030D01*
X127049030Y-111298652D01*
X127142115Y-111147738D01*
X127197887Y-110979426D01*
X127208500Y-110875545D01*
X127208499Y-110124456D01*
X127197887Y-110020574D01*
X127197886Y-110020570D01*
X127197886Y-110020568D01*
X127182002Y-109972634D01*
X127181845Y-109968081D01*
X127179520Y-109964162D01*
X127180635Y-109932920D01*
X127179561Y-109901680D01*
X127181891Y-109897764D01*
X127182054Y-109893210D01*
X127199883Y-109867531D01*
X127215869Y-109840669D01*
X127220675Y-109837584D01*
X127222545Y-109834892D01*
X127253384Y-109816594D01*
X127370888Y-109767921D01*
X127441478Y-109760333D01*
X127467325Y-109767922D01*
X127589866Y-109818681D01*
X127589867Y-109818681D01*
X127589869Y-109818682D01*
X127671364Y-109834892D01*
X127754351Y-109851399D01*
X127754354Y-109851399D01*
X127754357Y-109851400D01*
X127754358Y-109851400D01*
X127922068Y-109851400D01*
X127922069Y-109851400D01*
X128086557Y-109818682D01*
X128086560Y-109818680D01*
X128086563Y-109818680D01*
X128241497Y-109754503D01*
X128241496Y-109754503D01*
X128241502Y-109754501D01*
X128380949Y-109661326D01*
X128499539Y-109542736D01*
X128592714Y-109403289D01*
X128623489Y-109328993D01*
X128656893Y-109248350D01*
X128656893Y-109248347D01*
X128656895Y-109248344D01*
X128689613Y-109083856D01*
X128689613Y-108916144D01*
X128656895Y-108751656D01*
X128656893Y-108751653D01*
X128656893Y-108751649D01*
X128592716Y-108596715D01*
X128592714Y-108596711D01*
X128580547Y-108578502D01*
X128499539Y-108457264D01*
X128494053Y-108451778D01*
X128460027Y-108389466D01*
X128465092Y-108318651D01*
X128472563Y-108302293D01*
X128475884Y-108296210D01*
X128475889Y-108296204D01*
X128521604Y-108173638D01*
X128526988Y-108159204D01*
X128526990Y-108159196D01*
X128533499Y-108098649D01*
X128533500Y-108098632D01*
X128533500Y-107401367D01*
X128533499Y-107401350D01*
X128526990Y-107340803D01*
X128526988Y-107340795D01*
X128493122Y-107250000D01*
X128475889Y-107203796D01*
X128475888Y-107203794D01*
X128475887Y-107203792D01*
X128388261Y-107086738D01*
X128271207Y-106999112D01*
X128271202Y-106999110D01*
X128134204Y-106948011D01*
X128134196Y-106948009D01*
X128073649Y-106941500D01*
X128073638Y-106941500D01*
X127426362Y-106941500D01*
X127426357Y-106941500D01*
X127426345Y-106941501D01*
X127388466Y-106945573D01*
X127375723Y-106943273D01*
X127361534Y-106945573D01*
X127323654Y-106941501D01*
X127323642Y-106941500D01*
X127323638Y-106941500D01*
X126676362Y-106941500D01*
X126676357Y-106941500D01*
X126676345Y-106941501D01*
X126638466Y-106945573D01*
X126625376Y-106943211D01*
X126611534Y-106945573D01*
X126573654Y-106941501D01*
X126573642Y-106941500D01*
X126573638Y-106941500D01*
X125926362Y-106941500D01*
X125926357Y-106941500D01*
X125926345Y-106941501D01*
X125888466Y-106945573D01*
X125876086Y-106943339D01*
X125861534Y-106945573D01*
X125823654Y-106941501D01*
X125823642Y-106941500D01*
X125823638Y-106941500D01*
X125176362Y-106941500D01*
X125176357Y-106941500D01*
X125176345Y-106941501D01*
X125138466Y-106945573D01*
X125125723Y-106943273D01*
X125111534Y-106945573D01*
X125073654Y-106941501D01*
X125073642Y-106941500D01*
X125073638Y-106941500D01*
X124426362Y-106941500D01*
X124426357Y-106941500D01*
X124426345Y-106941501D01*
X124388466Y-106945573D01*
X124375376Y-106943211D01*
X124361534Y-106945573D01*
X124323654Y-106941501D01*
X124323642Y-106941500D01*
X124323638Y-106941500D01*
X123676362Y-106941500D01*
X123676350Y-106941500D01*
X123615803Y-106948009D01*
X123615795Y-106948011D01*
X123478797Y-106999110D01*
X123478792Y-106999112D01*
X123361738Y-107086738D01*
X123274112Y-107203792D01*
X123274110Y-107203797D01*
X123223011Y-107340795D01*
X123223009Y-107340803D01*
X123216500Y-107401350D01*
X123216500Y-108098649D01*
X123223009Y-108159196D01*
X123223011Y-108159204D01*
X123274110Y-108296202D01*
X123274110Y-108296203D01*
X123274111Y-108296204D01*
X123339368Y-108383377D01*
X123364179Y-108449897D01*
X123364500Y-108458886D01*
X123364500Y-109346423D01*
X123344498Y-109414544D01*
X123290842Y-109461037D01*
X123278134Y-109466027D01*
X123227264Y-109482884D01*
X123076347Y-109575970D01*
X123076341Y-109575975D01*
X122950975Y-109701341D01*
X122950970Y-109701347D01*
X122857885Y-109852262D01*
X122802113Y-110020572D01*
X122802112Y-110020579D01*
X122791500Y-110124446D01*
X122791500Y-110875544D01*
X122802112Y-110979425D01*
X122857885Y-111147738D01*
X122950970Y-111298652D01*
X122950975Y-111298658D01*
X123076344Y-111424027D01*
X123079049Y-111426166D01*
X123080421Y-111428104D01*
X123081537Y-111429220D01*
X123081346Y-111429410D01*
X123120076Y-111484108D01*
X123123264Y-111555033D01*
X123087602Y-111616423D01*
X123079049Y-111623834D01*
X123076344Y-111625972D01*
X122950975Y-111751341D01*
X122950970Y-111751347D01*
X122857885Y-111902262D01*
X122802113Y-112070572D01*
X122802112Y-112070579D01*
X122791500Y-112174446D01*
X122791500Y-112925544D01*
X122802112Y-113029425D01*
X122857885Y-113197738D01*
X122950970Y-113348652D01*
X122950975Y-113348658D01*
X123076341Y-113474024D01*
X123076345Y-113474027D01*
X123076348Y-113474030D01*
X123076353Y-113474033D01*
X123160228Y-113525769D01*
X123207706Y-113578555D01*
X123219109Y-113648630D01*
X123210490Y-113681227D01*
X123181319Y-113751651D01*
X123148600Y-113916138D01*
X123148600Y-114083861D01*
X123181319Y-114248350D01*
X123245496Y-114403284D01*
X123245498Y-114403288D01*
X123255009Y-114417522D01*
X123338674Y-114542736D01*
X123457264Y-114661326D01*
X123568114Y-114735393D01*
X123596711Y-114754501D01*
X123596715Y-114754503D01*
X123751649Y-114818680D01*
X123751653Y-114818680D01*
X123751656Y-114818682D01*
X123876416Y-114843497D01*
X123916138Y-114851399D01*
X123916141Y-114851399D01*
X123916144Y-114851400D01*
X123916145Y-114851400D01*
X124083855Y-114851400D01*
X124083856Y-114851400D01*
X124248344Y-114818682D01*
X124248347Y-114818680D01*
X124248350Y-114818680D01*
X124403284Y-114754503D01*
X124403283Y-114754503D01*
X124403289Y-114754501D01*
X124542736Y-114661326D01*
X124661326Y-114542736D01*
X124754501Y-114403289D01*
X124789548Y-114318680D01*
X124818680Y-114248350D01*
X124818680Y-114248347D01*
X124818682Y-114248344D01*
X124851400Y-114083856D01*
X124851400Y-113916144D01*
X124818682Y-113751656D01*
X124818680Y-113751651D01*
X124818680Y-113751649D01*
X124789510Y-113681228D01*
X124785860Y-113647287D01*
X124781449Y-113613429D01*
X124782077Y-113612100D01*
X124781920Y-113610639D01*
X124797200Y-113580110D01*
X124811793Y-113549244D01*
X124813271Y-113548003D01*
X124813698Y-113547151D01*
X124839205Y-113526119D01*
X124839395Y-113526000D01*
X124923652Y-113474030D01*
X124925292Y-113472389D01*
X124933287Y-113467400D01*
X124960996Y-113459660D01*
X124987676Y-113448894D01*
X124994741Y-113450235D01*
X125001667Y-113448301D01*
X125029161Y-113456770D01*
X125057426Y-113462137D01*
X125067409Y-113468552D01*
X125069517Y-113469202D01*
X125070597Y-113470482D01*
X125076346Y-113474028D01*
X125076348Y-113474030D01*
X125227262Y-113567115D01*
X125395574Y-113622887D01*
X125499455Y-113633500D01*
X126500544Y-113633499D01*
X126604426Y-113622887D01*
X126772738Y-113567115D01*
X126923652Y-113474030D01*
X127049030Y-113348652D01*
X127112746Y-113245351D01*
X127165531Y-113197875D01*
X127219986Y-113185500D01*
X132762590Y-113185500D01*
X132762591Y-113185500D01*
X132885369Y-113161078D01*
X133001022Y-113113173D01*
X133105108Y-113043625D01*
X139447734Y-106700998D01*
X139510044Y-106666974D01*
X139580859Y-106672039D01*
X139637695Y-106714586D01*
X139660406Y-106765513D01*
X139666846Y-106797887D01*
X139681318Y-106870644D01*
X139681319Y-106870646D01*
X139681320Y-106870651D01*
X139745496Y-107025584D01*
X139745498Y-107025588D01*
X139745499Y-107025589D01*
X139838674Y-107165036D01*
X139957264Y-107283626D01*
X140042824Y-107340795D01*
X140096711Y-107376801D01*
X140096715Y-107376803D01*
X140251649Y-107440980D01*
X140251653Y-107440980D01*
X140251656Y-107440982D01*
X140372792Y-107465077D01*
X140416138Y-107473699D01*
X140416141Y-107473699D01*
X140416144Y-107473700D01*
X140416145Y-107473700D01*
X140583855Y-107473700D01*
X140583856Y-107473700D01*
X140583856Y-107473699D01*
X140590020Y-107473093D01*
X140590214Y-107475067D01*
X140651795Y-107480563D01*
X140707872Y-107524104D01*
X140731508Y-107591051D01*
X140715197Y-107660149D01*
X140712931Y-107663971D01*
X140658343Y-107752472D01*
X140602606Y-107920678D01*
X140602605Y-107920681D01*
X140592000Y-108024483D01*
X140592000Y-108146000D01*
X141674000Y-108146000D01*
X141742121Y-108166002D01*
X141788614Y-108219658D01*
X141800000Y-108272000D01*
X141800000Y-108528000D01*
X141779998Y-108596121D01*
X141726342Y-108642614D01*
X141674000Y-108654000D01*
X140592000Y-108654000D01*
X140592000Y-108775516D01*
X140602605Y-108879318D01*
X140602606Y-108879321D01*
X140658342Y-109047525D01*
X140751365Y-109198339D01*
X140751370Y-109198345D01*
X140876657Y-109323632D01*
X140879446Y-109325837D01*
X140880863Y-109327838D01*
X140881850Y-109328825D01*
X140881681Y-109328993D01*
X140920479Y-109383775D01*
X140923674Y-109454700D01*
X140888017Y-109516093D01*
X140879457Y-109523511D01*
X140876345Y-109525971D01*
X140750975Y-109651341D01*
X140750970Y-109651347D01*
X140657885Y-109802262D01*
X140602113Y-109970572D01*
X140602112Y-109970579D01*
X140591500Y-110074446D01*
X140591500Y-110825544D01*
X140602113Y-110929426D01*
X140638577Y-111039471D01*
X140641017Y-111110426D01*
X140608067Y-111168198D01*
X136399531Y-115376734D01*
X136337219Y-115410760D01*
X136270804Y-115407244D01*
X136104427Y-115352113D01*
X136104420Y-115352112D01*
X136000553Y-115341500D01*
X135249455Y-115341500D01*
X135145574Y-115352112D01*
X134977261Y-115407885D01*
X134826347Y-115500970D01*
X134826341Y-115500975D01*
X134700971Y-115626345D01*
X134698511Y-115629457D01*
X134696281Y-115631035D01*
X134695780Y-115631537D01*
X134695694Y-115631451D01*
X134640568Y-115670483D01*
X134569643Y-115673671D01*
X134508254Y-115638008D01*
X134500837Y-115629446D01*
X134498632Y-115626657D01*
X134373345Y-115501370D01*
X134373339Y-115501365D01*
X134222525Y-115408342D01*
X134054321Y-115352606D01*
X134054318Y-115352605D01*
X133950516Y-115342000D01*
X133829000Y-115342000D01*
X133829000Y-117758000D01*
X133950517Y-117758000D01*
X133950516Y-117757999D01*
X134054318Y-117747394D01*
X134054321Y-117747393D01*
X134222525Y-117691657D01*
X134373339Y-117598634D01*
X134373345Y-117598629D01*
X134498624Y-117473350D01*
X134500832Y-117470558D01*
X134502837Y-117469137D01*
X134503825Y-117468150D01*
X134503993Y-117468318D01*
X134558768Y-117429522D01*
X134629693Y-117426323D01*
X134691088Y-117461976D01*
X134698515Y-117470547D01*
X134700974Y-117473657D01*
X134826347Y-117599030D01*
X134854643Y-117616482D01*
X134902123Y-117669266D01*
X134914500Y-117723725D01*
X134914500Y-118149309D01*
X134910208Y-118181915D01*
X134849708Y-118407746D01*
X134839515Y-118424469D01*
X134833998Y-118443261D01*
X134828868Y-118450649D01*
X134774112Y-118523792D01*
X134774110Y-118523797D01*
X134723009Y-118660800D01*
X134722621Y-118662446D01*
X134721969Y-118663589D01*
X134720256Y-118668184D01*
X134719511Y-118667906D01*
X134687486Y-118724139D01*
X134624575Y-118757043D01*
X134553861Y-118750711D01*
X134497796Y-118707154D01*
X134479962Y-118668102D01*
X134479744Y-118668184D01*
X134478605Y-118665132D01*
X134477379Y-118662446D01*
X134476990Y-118660800D01*
X134425889Y-118523797D01*
X134425887Y-118523792D01*
X134371132Y-118450649D01*
X134346321Y-118384129D01*
X134346000Y-118375140D01*
X134346000Y-118262000D01*
X134226402Y-118262000D01*
X134165903Y-118268505D01*
X134158234Y-118270318D01*
X134157672Y-118267940D01*
X134098906Y-118272131D01*
X134087675Y-118268832D01*
X134084195Y-118268009D01*
X134023649Y-118261500D01*
X134023638Y-118261500D01*
X133276362Y-118261500D01*
X133276350Y-118261500D01*
X133215803Y-118268009D01*
X133215795Y-118268011D01*
X133078797Y-118319110D01*
X133078792Y-118319112D01*
X132961738Y-118406738D01*
X132874112Y-118523792D01*
X132874110Y-118523797D01*
X132823011Y-118660795D01*
X132823009Y-118660803D01*
X132816500Y-118721350D01*
X132816500Y-118788500D01*
X132796498Y-118856621D01*
X132742842Y-118903114D01*
X132690500Y-118914500D01*
X132319986Y-118914500D01*
X132251865Y-118894498D01*
X132212746Y-118854648D01*
X132149030Y-118751348D01*
X132149029Y-118751347D01*
X132149024Y-118751341D01*
X132023657Y-118625974D01*
X132020547Y-118623515D01*
X132018967Y-118621284D01*
X132018463Y-118620780D01*
X132018549Y-118620693D01*
X131979518Y-118565575D01*
X131976326Y-118494650D01*
X132011986Y-118433259D01*
X132020558Y-118425832D01*
X132023350Y-118423624D01*
X132148629Y-118298345D01*
X132148634Y-118298339D01*
X132241657Y-118147525D01*
X132297393Y-117979321D01*
X132297394Y-117979318D01*
X132307999Y-117875516D01*
X132308000Y-117875516D01*
X132308000Y-117754000D01*
X129892000Y-117754000D01*
X129892000Y-117875516D01*
X129902605Y-117979318D01*
X129902606Y-117979321D01*
X129958342Y-118147525D01*
X130051365Y-118298339D01*
X130051370Y-118298345D01*
X130176657Y-118423632D01*
X130179446Y-118425837D01*
X130180863Y-118427838D01*
X130181850Y-118428825D01*
X130181681Y-118428993D01*
X130220479Y-118483775D01*
X130223674Y-118554700D01*
X130188017Y-118616093D01*
X130179457Y-118623511D01*
X130176345Y-118625971D01*
X130050975Y-118751341D01*
X130050970Y-118751347D01*
X129957885Y-118902262D01*
X129902113Y-119070572D01*
X129902112Y-119070579D01*
X129891500Y-119174446D01*
X129891500Y-119925544D01*
X129902112Y-120029425D01*
X129957885Y-120197738D01*
X130050970Y-120348652D01*
X130050975Y-120348658D01*
X130176341Y-120474024D01*
X130176347Y-120474029D01*
X130176348Y-120474030D01*
X130327262Y-120567115D01*
X130378133Y-120583971D01*
X130436503Y-120624383D01*
X130463760Y-120689939D01*
X130464500Y-120703575D01*
X130464500Y-121009576D01*
X130444498Y-121077697D01*
X130427595Y-121098671D01*
X129001286Y-122524979D01*
X128938974Y-122559005D01*
X128882978Y-122555000D01*
X128088663Y-122555000D01*
X128075064Y-122531446D01*
X128014554Y-122470936D01*
X127940445Y-122428149D01*
X127857787Y-122406000D01*
X127372213Y-122406000D01*
X127289555Y-122428149D01*
X127215446Y-122470936D01*
X127154936Y-122531446D01*
X127112149Y-122605555D01*
X127095678Y-122667021D01*
X127059000Y-122675000D01*
X125105975Y-122675000D01*
X125145070Y-122635905D01*
X125191148Y-122556095D01*
X125215000Y-122467078D01*
X125215000Y-122374922D01*
X125191148Y-122285905D01*
X125145070Y-122206095D01*
X125105975Y-122167000D01*
X125305000Y-122167000D01*
X125305000Y-122073000D01*
X125312634Y-122047000D01*
X126549000Y-122047000D01*
X127341000Y-122047000D01*
X127849000Y-122047000D01*
X128853000Y-122047000D01*
X128853000Y-121252414D01*
X128852999Y-121252402D01*
X128846494Y-121191906D01*
X128795444Y-121055035D01*
X128795444Y-121055034D01*
X128707904Y-120938095D01*
X128590965Y-120850555D01*
X128454093Y-120799505D01*
X128393597Y-120793000D01*
X127849000Y-120793000D01*
X127849000Y-122047000D01*
X127341000Y-122047000D01*
X127341000Y-120793000D01*
X126793036Y-120793000D01*
X126793036Y-120791894D01*
X126762167Y-120787119D01*
X126761766Y-120788818D01*
X126754096Y-120787005D01*
X126693597Y-120780500D01*
X126549000Y-120780500D01*
X126549000Y-122047000D01*
X125312634Y-122047000D01*
X125325002Y-122004879D01*
X125378658Y-121958386D01*
X125431000Y-121947000D01*
X126041000Y-121947000D01*
X126041000Y-120780500D01*
X125896402Y-120780500D01*
X125835906Y-120787005D01*
X125699035Y-120838055D01*
X125699034Y-120838055D01*
X125582095Y-120925595D01*
X125494556Y-121042533D01*
X125452223Y-121156033D01*
X125409676Y-121212868D01*
X125343155Y-121237679D01*
X125334167Y-121238000D01*
X124869000Y-121238000D01*
X124869000Y-122071000D01*
X124361000Y-122071000D01*
X124361000Y-121238000D01*
X124346899Y-121238000D01*
X124162976Y-121267130D01*
X123985887Y-121324670D01*
X123819969Y-121409210D01*
X123669324Y-121518660D01*
X123669321Y-121518662D01*
X123537662Y-121650321D01*
X123537660Y-121650324D01*
X123428210Y-121800969D01*
X123343670Y-121966887D01*
X123286129Y-122143977D01*
X123282484Y-122167000D01*
X124124025Y-122167000D01*
X124084930Y-122206095D01*
X124038852Y-122285905D01*
X124015000Y-122374922D01*
X124015000Y-122467078D01*
X124038852Y-122556095D01*
X124084930Y-122635905D01*
X124124025Y-122675000D01*
X123282484Y-122675000D01*
X123286129Y-122698022D01*
X123320260Y-122803063D01*
X123322288Y-122874031D01*
X123285625Y-122934829D01*
X123221913Y-122966155D01*
X123200427Y-122968000D01*
X123046402Y-122968000D01*
X122985906Y-122974505D01*
X122849035Y-123025555D01*
X122849034Y-123025555D01*
X122732095Y-123113095D01*
X122644555Y-123230034D01*
X122644555Y-123230035D01*
X122593505Y-123366906D01*
X122587000Y-123427402D01*
X122100500Y-123427402D01*
X122100500Y-117124483D01*
X129892000Y-117124483D01*
X129892000Y-117246000D01*
X130846000Y-117246000D01*
X131354000Y-117246000D01*
X132307999Y-117246000D01*
X132332541Y-117221458D01*
X132394853Y-117187433D01*
X132465669Y-117192497D01*
X132522505Y-117235043D01*
X132541241Y-117270919D01*
X132558341Y-117322522D01*
X132651365Y-117473339D01*
X132651370Y-117473345D01*
X132776654Y-117598629D01*
X132776660Y-117598634D01*
X132927474Y-117691657D01*
X133095678Y-117747393D01*
X133095681Y-117747394D01*
X133199483Y-117757999D01*
X133199483Y-117758000D01*
X133321000Y-117758000D01*
X133321000Y-116804000D01*
X132492000Y-116804000D01*
X132492000Y-116827139D01*
X132471998Y-116895260D01*
X132418342Y-116941753D01*
X132348068Y-116951857D01*
X132283488Y-116922363D01*
X132246396Y-116866773D01*
X132241658Y-116852477D01*
X132148634Y-116701660D01*
X132148629Y-116701654D01*
X132023345Y-116576370D01*
X132023339Y-116576365D01*
X131872525Y-116483342D01*
X131704321Y-116427606D01*
X131704318Y-116427605D01*
X131600516Y-116417000D01*
X131354000Y-116417000D01*
X131354000Y-117246000D01*
X130846000Y-117246000D01*
X130846000Y-116417000D01*
X130599483Y-116417000D01*
X130495681Y-116427605D01*
X130495678Y-116427606D01*
X130327474Y-116483342D01*
X130176660Y-116576365D01*
X130176654Y-116576370D01*
X130051370Y-116701654D01*
X130051365Y-116701660D01*
X129958342Y-116852474D01*
X129902606Y-117020678D01*
X129902605Y-117020681D01*
X129892000Y-117124483D01*
X122100500Y-117124483D01*
X122100500Y-116049483D01*
X132492000Y-116049483D01*
X132492000Y-116296000D01*
X133321000Y-116296000D01*
X133321000Y-115342000D01*
X133199483Y-115342000D01*
X133095681Y-115352605D01*
X133095678Y-115352606D01*
X132927474Y-115408342D01*
X132776660Y-115501365D01*
X132776654Y-115501370D01*
X132651370Y-115626654D01*
X132651365Y-115626660D01*
X132558342Y-115777474D01*
X132502606Y-115945678D01*
X132502605Y-115945681D01*
X132492000Y-116049483D01*
X122100500Y-116049483D01*
X122100500Y-103124446D01*
X122791500Y-103124446D01*
X122791500Y-103875544D01*
X122802112Y-103979425D01*
X122857885Y-104147738D01*
X122950970Y-104298652D01*
X122950975Y-104298658D01*
X123076341Y-104424024D01*
X123076347Y-104424029D01*
X123076348Y-104424030D01*
X123227262Y-104517115D01*
X123395574Y-104572887D01*
X123499455Y-104583500D01*
X124132576Y-104583499D01*
X124162491Y-104592282D01*
X124192961Y-104598911D01*
X124198056Y-104602725D01*
X124200697Y-104603501D01*
X124221671Y-104620404D01*
X124328172Y-104726905D01*
X124362198Y-104789217D01*
X124357133Y-104860032D01*
X124314586Y-104916868D01*
X124258040Y-104937958D01*
X124243679Y-104952319D01*
X124233998Y-104985293D01*
X124203509Y-105018040D01*
X124111738Y-105086738D01*
X124024112Y-105203792D01*
X124024110Y-105203797D01*
X123990055Y-105295101D01*
X123947508Y-105351937D01*
X123880988Y-105376747D01*
X123811614Y-105361655D01*
X123761412Y-105311452D01*
X123746000Y-105251068D01*
X123746000Y-104942000D01*
X123676402Y-104942000D01*
X123615906Y-104948505D01*
X123479035Y-104999555D01*
X123479034Y-104999555D01*
X123362095Y-105087095D01*
X123274555Y-105204034D01*
X123274555Y-105204035D01*
X123223505Y-105340906D01*
X123217000Y-105401402D01*
X123217000Y-105496000D01*
X123746001Y-105496000D01*
X123751405Y-105490596D01*
X123813717Y-105456570D01*
X123884532Y-105461635D01*
X123941368Y-105504182D01*
X123966179Y-105570702D01*
X123966500Y-105579691D01*
X123966500Y-105920309D01*
X123946498Y-105988430D01*
X123892842Y-106034923D01*
X123822568Y-106045027D01*
X123757988Y-106015533D01*
X123751405Y-106009404D01*
X123746001Y-106004000D01*
X123217000Y-106004000D01*
X123217000Y-106098597D01*
X123223505Y-106159093D01*
X123274555Y-106295964D01*
X123274555Y-106295965D01*
X123362095Y-106412904D01*
X123479034Y-106500444D01*
X123615906Y-106551494D01*
X123676402Y-106557999D01*
X123676415Y-106558000D01*
X123746000Y-106558000D01*
X123746000Y-106248931D01*
X123766002Y-106180810D01*
X123819658Y-106134317D01*
X123889932Y-106124213D01*
X123954512Y-106153707D01*
X123990055Y-106204898D01*
X124024110Y-106296203D01*
X124024112Y-106296207D01*
X124111738Y-106413261D01*
X124156631Y-106446867D01*
X124200783Y-106479919D01*
X124203509Y-106481959D01*
X124246056Y-106538794D01*
X124248535Y-106552536D01*
X124253999Y-106558000D01*
X124323587Y-106558000D01*
X124323593Y-106557999D01*
X124359177Y-106554173D01*
X124386114Y-106554173D01*
X124426362Y-106558500D01*
X124426367Y-106558500D01*
X125073634Y-106558500D01*
X125073638Y-106558500D01*
X125111532Y-106554426D01*
X125138468Y-106554426D01*
X125176362Y-106558500D01*
X125176366Y-106558500D01*
X125823633Y-106558500D01*
X125823638Y-106558500D01*
X125863886Y-106554173D01*
X125890821Y-106554173D01*
X125926406Y-106557999D01*
X125926413Y-106558000D01*
X125996001Y-106558000D01*
X126006319Y-106547681D01*
X126016002Y-106514706D01*
X126016590Y-106514034D01*
X126016724Y-106513596D01*
X126020337Y-106509755D01*
X126040493Y-106486741D01*
X126043418Y-106484259D01*
X126138261Y-106413261D01*
X126157651Y-106387358D01*
X126168493Y-106378162D01*
X126188467Y-106369292D01*
X126205966Y-106356193D01*
X126220272Y-106355169D01*
X126233380Y-106349349D01*
X126254979Y-106352686D01*
X126276782Y-106351127D01*
X126289370Y-106358000D01*
X126303544Y-106360191D01*
X126319911Y-106374677D01*
X126339094Y-106385152D01*
X126350866Y-106398737D01*
X126361739Y-106413261D01*
X126450783Y-106479919D01*
X126453509Y-106481959D01*
X126496056Y-106538794D01*
X126498535Y-106552536D01*
X126503999Y-106558000D01*
X126573587Y-106558000D01*
X126573593Y-106557999D01*
X126609177Y-106554173D01*
X126636114Y-106554173D01*
X126676362Y-106558500D01*
X126676367Y-106558500D01*
X127323634Y-106558500D01*
X127323638Y-106558500D01*
X127361532Y-106554426D01*
X127388468Y-106554426D01*
X127426362Y-106558500D01*
X127426366Y-106558500D01*
X128073632Y-106558500D01*
X128073638Y-106558500D01*
X128073645Y-106558499D01*
X128073649Y-106558499D01*
X128134196Y-106551990D01*
X128134199Y-106551989D01*
X128134201Y-106551989D01*
X128271204Y-106500889D01*
X128271799Y-106500444D01*
X128388261Y-106413261D01*
X128475887Y-106296207D01*
X128475887Y-106296206D01*
X128475889Y-106296204D01*
X128526989Y-106159201D01*
X128529665Y-106134317D01*
X128533499Y-106098649D01*
X128533500Y-106098632D01*
X128533500Y-105537778D01*
X129016500Y-105537778D01*
X129016500Y-106212212D01*
X129026937Y-106314380D01*
X129081791Y-106479920D01*
X129173342Y-106628346D01*
X129173347Y-106628352D01*
X129205900Y-106660905D01*
X129239926Y-106723217D01*
X129234861Y-106794032D01*
X129205900Y-106839095D01*
X129173347Y-106871647D01*
X129173342Y-106871653D01*
X129081791Y-107020080D01*
X129026937Y-107185622D01*
X129016500Y-107287778D01*
X129016500Y-107962212D01*
X129026937Y-108064380D01*
X129081791Y-108229920D01*
X129173342Y-108378346D01*
X129173347Y-108378352D01*
X129296647Y-108501652D01*
X129296653Y-108501657D01*
X129296654Y-108501658D01*
X129445080Y-108593209D01*
X129610619Y-108648062D01*
X129712787Y-108658500D01*
X130287212Y-108658499D01*
X130389381Y-108648062D01*
X130554920Y-108593209D01*
X130703346Y-108501658D01*
X130826658Y-108378346D01*
X130862429Y-108320351D01*
X130870138Y-108313418D01*
X130874445Y-108303988D01*
X130896084Y-108290081D01*
X130915214Y-108272875D01*
X130927038Y-108270187D01*
X130934171Y-108265604D01*
X130969669Y-108260500D01*
X131213140Y-108260500D01*
X131281261Y-108280502D01*
X131327754Y-108334158D01*
X131332741Y-108346858D01*
X131357885Y-108422738D01*
X131437608Y-108551989D01*
X131450970Y-108573652D01*
X131450975Y-108573658D01*
X131576341Y-108699024D01*
X131576347Y-108699029D01*
X131576348Y-108699030D01*
X131727262Y-108792115D01*
X131895574Y-108847887D01*
X131999455Y-108858500D01*
X133000544Y-108858499D01*
X133104426Y-108847887D01*
X133272738Y-108792115D01*
X133423652Y-108699030D01*
X133549030Y-108573652D01*
X133642115Y-108422738D01*
X133697887Y-108254426D01*
X133708500Y-108150545D01*
X133708499Y-107399456D01*
X133706476Y-107379657D01*
X133697887Y-107295574D01*
X133689131Y-107269150D01*
X133642115Y-107127262D01*
X133549030Y-106976348D01*
X133549029Y-106976347D01*
X133549024Y-106976341D01*
X133423657Y-106850974D01*
X133420547Y-106848515D01*
X133418967Y-106846284D01*
X133418463Y-106845780D01*
X133418549Y-106845693D01*
X133379518Y-106790575D01*
X133376326Y-106719650D01*
X133411986Y-106658259D01*
X133420558Y-106650832D01*
X133423350Y-106648624D01*
X133548629Y-106523345D01*
X133548634Y-106523339D01*
X133641657Y-106372525D01*
X133697393Y-106204321D01*
X133697394Y-106204318D01*
X133707999Y-106100516D01*
X133708000Y-106100516D01*
X133708000Y-105979000D01*
X131292000Y-105979000D01*
X131292000Y-106100516D01*
X131302605Y-106204318D01*
X131302606Y-106204321D01*
X131358342Y-106372525D01*
X131451365Y-106523339D01*
X131451370Y-106523345D01*
X131576657Y-106648632D01*
X131579446Y-106650837D01*
X131580863Y-106652838D01*
X131581850Y-106653825D01*
X131581681Y-106653993D01*
X131589261Y-106664696D01*
X131602778Y-106674986D01*
X131609357Y-106693071D01*
X131620479Y-106708775D01*
X131621243Y-106725743D01*
X131627050Y-106741705D01*
X131622807Y-106760474D01*
X131623674Y-106779700D01*
X131615025Y-106794909D01*
X131611399Y-106810955D01*
X131594812Y-106830456D01*
X131589676Y-106839490D01*
X131580799Y-106848224D01*
X131576348Y-106850970D01*
X131474374Y-106952943D01*
X131474000Y-106953312D01*
X131443118Y-106969852D01*
X131412410Y-106986621D01*
X131411660Y-106986701D01*
X131411415Y-106986833D01*
X131410853Y-106986788D01*
X131385627Y-106989500D01*
X130969669Y-106989500D01*
X130901548Y-106969498D01*
X130862430Y-106929649D01*
X130826658Y-106871654D01*
X130794098Y-106839094D01*
X130760074Y-106776785D01*
X130765138Y-106705969D01*
X130794098Y-106660905D01*
X130826658Y-106628346D01*
X130918209Y-106479920D01*
X130973062Y-106314381D01*
X130983500Y-106212213D01*
X130983499Y-105842421D01*
X131003501Y-105774302D01*
X131020395Y-105753336D01*
X131265830Y-105507902D01*
X131328139Y-105473879D01*
X131354922Y-105471000D01*
X133708000Y-105471000D01*
X133708000Y-105349483D01*
X133700319Y-105274307D01*
X133713293Y-105204506D01*
X133761945Y-105152800D01*
X133825666Y-105135500D01*
X137380712Y-105135500D01*
X137448833Y-105155502D01*
X137452115Y-105157891D01*
X137452118Y-105157887D01*
X137457262Y-105161324D01*
X137457264Y-105161326D01*
X137583348Y-105245572D01*
X137596711Y-105254501D01*
X137596715Y-105254503D01*
X137751649Y-105318680D01*
X137751653Y-105318680D01*
X137751656Y-105318682D01*
X137855649Y-105339367D01*
X137916138Y-105351399D01*
X137916141Y-105351399D01*
X137916144Y-105351400D01*
X137916145Y-105351400D01*
X138083855Y-105351400D01*
X138083856Y-105351400D01*
X138248344Y-105318682D01*
X138248347Y-105318680D01*
X138248350Y-105318680D01*
X138403284Y-105254503D01*
X138403283Y-105254503D01*
X138403289Y-105254501D01*
X138542736Y-105161326D01*
X138661326Y-105042736D01*
X138754501Y-104903289D01*
X138781288Y-104838621D01*
X138818680Y-104748350D01*
X138818680Y-104748347D01*
X138818682Y-104748344D01*
X138851400Y-104583856D01*
X138851400Y-104416144D01*
X138818682Y-104251656D01*
X138818680Y-104251653D01*
X138818680Y-104251649D01*
X138754503Y-104096715D01*
X138754501Y-104096711D01*
X138734724Y-104067113D01*
X138661326Y-103957264D01*
X138542736Y-103838674D01*
X138468790Y-103789265D01*
X138403288Y-103745498D01*
X138403284Y-103745496D01*
X138248350Y-103681319D01*
X138083861Y-103648600D01*
X138083856Y-103648600D01*
X137916144Y-103648600D01*
X137916138Y-103648600D01*
X137751649Y-103681319D01*
X137596715Y-103745496D01*
X137596711Y-103745498D01*
X137531210Y-103789265D01*
X137457264Y-103838674D01*
X137457262Y-103838675D01*
X137452118Y-103842113D01*
X137450770Y-103840095D01*
X137395286Y-103863654D01*
X137380712Y-103864500D01*
X131312406Y-103864500D01*
X131189630Y-103888922D01*
X131189625Y-103888924D01*
X131073977Y-103936827D01*
X130969896Y-104006372D01*
X130969894Y-104006373D01*
X130171669Y-104804596D01*
X130109357Y-104838621D01*
X130082574Y-104841500D01*
X129712787Y-104841500D01*
X129610619Y-104851937D01*
X129445079Y-104906791D01*
X129296653Y-104998342D01*
X129296647Y-104998347D01*
X129173347Y-105121647D01*
X129173342Y-105121653D01*
X129081791Y-105270080D01*
X129026937Y-105435622D01*
X129016500Y-105537778D01*
X128533500Y-105537778D01*
X128533500Y-105401367D01*
X128533499Y-105401350D01*
X128526990Y-105340803D01*
X128526988Y-105340795D01*
X128491473Y-105245579D01*
X128475889Y-105203796D01*
X128475888Y-105203794D01*
X128475887Y-105203792D01*
X128388261Y-105086738D01*
X128271207Y-104999112D01*
X128271202Y-104999110D01*
X128134204Y-104948011D01*
X128134196Y-104948009D01*
X128073649Y-104941500D01*
X128073638Y-104941500D01*
X127761500Y-104941500D01*
X127752674Y-104938908D01*
X127743568Y-104940218D01*
X127719142Y-104929062D01*
X127693379Y-104921498D01*
X127687354Y-104914544D01*
X127678988Y-104910724D01*
X127664473Y-104888138D01*
X127646886Y-104867842D01*
X127644561Y-104857155D01*
X127640604Y-104850998D01*
X127635500Y-104815500D01*
X127635500Y-104568824D01*
X127635501Y-104568803D01*
X127635501Y-104437413D01*
X127635501Y-104437409D01*
X127611078Y-104314632D01*
X127609481Y-104310775D01*
X127609038Y-104309705D01*
X127601456Y-104239115D01*
X127633243Y-104175631D01*
X127694305Y-104139410D01*
X127725452Y-104135500D01*
X128630712Y-104135500D01*
X128698833Y-104155502D01*
X128702115Y-104157891D01*
X128702118Y-104157887D01*
X128707262Y-104161324D01*
X128707264Y-104161326D01*
X128823684Y-104239115D01*
X128846711Y-104254501D01*
X128846715Y-104254503D01*
X129001649Y-104318680D01*
X129001653Y-104318680D01*
X129001656Y-104318682D01*
X129126416Y-104343497D01*
X129166138Y-104351399D01*
X129166141Y-104351399D01*
X129166144Y-104351400D01*
X129166145Y-104351400D01*
X129333855Y-104351400D01*
X129333856Y-104351400D01*
X129498344Y-104318682D01*
X129498347Y-104318680D01*
X129498350Y-104318680D01*
X129653284Y-104254503D01*
X129653283Y-104254503D01*
X129653289Y-104254501D01*
X129792736Y-104161326D01*
X129911326Y-104042736D01*
X130004501Y-103903289D01*
X130015817Y-103875970D01*
X130068680Y-103748350D01*
X130068680Y-103748347D01*
X130068682Y-103748344D01*
X130101400Y-103583856D01*
X130101400Y-103416144D01*
X130068682Y-103251656D01*
X130068680Y-103251653D01*
X130068680Y-103251649D01*
X130004503Y-103096715D01*
X130004501Y-103096711D01*
X129978351Y-103057575D01*
X129911326Y-102957264D01*
X129792736Y-102838674D01*
X129722538Y-102791770D01*
X129653288Y-102745498D01*
X129653284Y-102745496D01*
X129498350Y-102681319D01*
X129333861Y-102648600D01*
X129333856Y-102648600D01*
X129166144Y-102648600D01*
X129166138Y-102648600D01*
X129001649Y-102681319D01*
X128846715Y-102745496D01*
X128846711Y-102745498D01*
X128758189Y-102804647D01*
X128707264Y-102838674D01*
X128707262Y-102838675D01*
X128702118Y-102842113D01*
X128700770Y-102840095D01*
X128645286Y-102863654D01*
X128630712Y-102864500D01*
X127219986Y-102864500D01*
X127151865Y-102844498D01*
X127112746Y-102804648D01*
X127049030Y-102701348D01*
X127049029Y-102701347D01*
X127049024Y-102701341D01*
X126923657Y-102575974D01*
X126920547Y-102573515D01*
X126918967Y-102571284D01*
X126918463Y-102570780D01*
X126918549Y-102570693D01*
X126879518Y-102515575D01*
X126876326Y-102444650D01*
X126911986Y-102383259D01*
X126920558Y-102375832D01*
X126923350Y-102373624D01*
X127048629Y-102248345D01*
X127048634Y-102248339D01*
X127141657Y-102097525D01*
X127197393Y-101929321D01*
X127197394Y-101929318D01*
X127207999Y-101825516D01*
X127208000Y-101825516D01*
X127208000Y-101704000D01*
X122792000Y-101704000D01*
X122792000Y-101825516D01*
X122802605Y-101929318D01*
X122802606Y-101929321D01*
X122858342Y-102097525D01*
X122951365Y-102248339D01*
X122951370Y-102248345D01*
X123076657Y-102373632D01*
X123079446Y-102375837D01*
X123080863Y-102377838D01*
X123081850Y-102378825D01*
X123081681Y-102378993D01*
X123120479Y-102433775D01*
X123123674Y-102504700D01*
X123088017Y-102566093D01*
X123079457Y-102573511D01*
X123076345Y-102575971D01*
X122950975Y-102701341D01*
X122950970Y-102701347D01*
X122857885Y-102852262D01*
X122802113Y-103020572D01*
X122802112Y-103020579D01*
X122791500Y-103124446D01*
X122100500Y-103124446D01*
X122100500Y-101074483D01*
X122792000Y-101074483D01*
X122792000Y-101196000D01*
X123746000Y-101196000D01*
X124254000Y-101196000D01*
X125746000Y-101196000D01*
X126254000Y-101196000D01*
X127208000Y-101196000D01*
X127208000Y-101074483D01*
X127197394Y-100970681D01*
X127197393Y-100970678D01*
X127141657Y-100802474D01*
X127048634Y-100651660D01*
X127048629Y-100651654D01*
X126923345Y-100526370D01*
X126923339Y-100526365D01*
X126772525Y-100433342D01*
X126604321Y-100377606D01*
X126604318Y-100377605D01*
X126500516Y-100367000D01*
X126254000Y-100367000D01*
X126254000Y-101196000D01*
X125746000Y-101196000D01*
X125746000Y-100367000D01*
X125499483Y-100367000D01*
X125395681Y-100377605D01*
X125395678Y-100377606D01*
X125227474Y-100433342D01*
X125070415Y-100530218D01*
X125069472Y-100528690D01*
X125012296Y-100551750D01*
X124942549Y-100538491D01*
X124929610Y-100530176D01*
X124929585Y-100530218D01*
X124772525Y-100433342D01*
X124604321Y-100377606D01*
X124604318Y-100377605D01*
X124500516Y-100367000D01*
X124254000Y-100367000D01*
X124254000Y-101196000D01*
X123746000Y-101196000D01*
X123746000Y-100367000D01*
X123499483Y-100367000D01*
X123395681Y-100377605D01*
X123395678Y-100377606D01*
X123227474Y-100433342D01*
X123076660Y-100526365D01*
X123076654Y-100526370D01*
X122951370Y-100651654D01*
X122951365Y-100651660D01*
X122858342Y-100802474D01*
X122802606Y-100970678D01*
X122802605Y-100970681D01*
X122792000Y-101074483D01*
X122100500Y-101074483D01*
X122100500Y-74002920D01*
X122100634Y-73997101D01*
X122103904Y-73926366D01*
X122106107Y-73878709D01*
X124149500Y-73878709D01*
X124149500Y-74121290D01*
X124181160Y-74361782D01*
X124243944Y-74596095D01*
X124243945Y-74596097D01*
X124243946Y-74596100D01*
X124336776Y-74820212D01*
X124336777Y-74820213D01*
X124336782Y-74820224D01*
X124458061Y-75030285D01*
X124458063Y-75030288D01*
X124458064Y-75030289D01*
X124605735Y-75222738D01*
X124605739Y-75222742D01*
X124605744Y-75222748D01*
X124777251Y-75394255D01*
X124777256Y-75394259D01*
X124777262Y-75394265D01*
X124969711Y-75541936D01*
X124969714Y-75541938D01*
X125179775Y-75663217D01*
X125179779Y-75663218D01*
X125179788Y-75663224D01*
X125403900Y-75756054D01*
X125638211Y-75818838D01*
X125638215Y-75818838D01*
X125638217Y-75818839D01*
X125700202Y-75826999D01*
X125878712Y-75850500D01*
X125878719Y-75850500D01*
X126121281Y-75850500D01*
X126121288Y-75850500D01*
X126338637Y-75821885D01*
X126361782Y-75818839D01*
X126361782Y-75818838D01*
X126361789Y-75818838D01*
X126596100Y-75756054D01*
X126820212Y-75663224D01*
X127030289Y-75541936D01*
X127222738Y-75394265D01*
X127394265Y-75222738D01*
X127541936Y-75030289D01*
X127663224Y-74820212D01*
X127756054Y-74596100D01*
X127818838Y-74361789D01*
X127850500Y-74121288D01*
X127850500Y-73878712D01*
X127819866Y-73646016D01*
X127818839Y-73638217D01*
X127818838Y-73638215D01*
X127818838Y-73638211D01*
X127756054Y-73403900D01*
X127663224Y-73179788D01*
X127663218Y-73179779D01*
X127663217Y-73179775D01*
X127541938Y-72969714D01*
X127518003Y-72938521D01*
X127394265Y-72777262D01*
X127394259Y-72777256D01*
X127394255Y-72777251D01*
X127222748Y-72605744D01*
X127222742Y-72605739D01*
X127222738Y-72605735D01*
X127030289Y-72458064D01*
X127030288Y-72458063D01*
X127030285Y-72458061D01*
X126820224Y-72336782D01*
X126820216Y-72336778D01*
X126820212Y-72336776D01*
X126596100Y-72243946D01*
X126596097Y-72243945D01*
X126596095Y-72243944D01*
X126361782Y-72181160D01*
X126121290Y-72149500D01*
X126121288Y-72149500D01*
X125878712Y-72149500D01*
X125878709Y-72149500D01*
X125638217Y-72181160D01*
X125403904Y-72243944D01*
X125403900Y-72243946D01*
X125211596Y-72323601D01*
X125179786Y-72336777D01*
X125179775Y-72336782D01*
X124969714Y-72458061D01*
X124777262Y-72605735D01*
X124777251Y-72605744D01*
X124605744Y-72777251D01*
X124605735Y-72777262D01*
X124458061Y-72969714D01*
X124336782Y-73179775D01*
X124336777Y-73179786D01*
X124336776Y-73179788D01*
X124296181Y-73277794D01*
X124243946Y-73403900D01*
X124243944Y-73403904D01*
X124181160Y-73638217D01*
X124149500Y-73878709D01*
X122106107Y-73878709D01*
X122116866Y-73646013D01*
X122117940Y-73634428D01*
X122123510Y-73594498D01*
X122166093Y-73289220D01*
X122168227Y-73277809D01*
X122248029Y-72938512D01*
X122251212Y-72927327D01*
X122252444Y-72923652D01*
X122361976Y-72596851D01*
X122366173Y-72586019D01*
X122506969Y-72267145D01*
X122512135Y-72256771D01*
X122681746Y-71952261D01*
X122687858Y-71942388D01*
X122884847Y-71654820D01*
X122891844Y-71645554D01*
X123114528Y-71377387D01*
X123122349Y-71368809D01*
X123368809Y-71122349D01*
X123377387Y-71114528D01*
X123645554Y-70891844D01*
X123654820Y-70884847D01*
X123942388Y-70687858D01*
X123952261Y-70681746D01*
X124256771Y-70512135D01*
X124267145Y-70506969D01*
X124586019Y-70366173D01*
X124596851Y-70361976D01*
X124927336Y-70251209D01*
X124938512Y-70248029D01*
X125277809Y-70168227D01*
X125289220Y-70166093D01*
X125634431Y-70117939D01*
X125646013Y-70116866D01*
X125997102Y-70100634D01*
X126002921Y-70100500D01*
X126026929Y-70100500D01*
X170973071Y-70100500D01*
X170997079Y-70100500D01*
X171002898Y-70100634D01*
G37*
G04 #@! TD.AperFunction*
M02*
