G04 #@! TF.GenerationSoftware,KiCad,Pcbnew,10.0.3*
G04 #@! TF.CreationDate,2026-06-15T16:25:49+05:30*
G04 #@! TF.ProjectId,EmbedMatrix,456d6265-644d-4617-9472-69782e6b6963,rev?*
G04 #@! TF.SameCoordinates,Original*
G04 #@! TF.FileFunction,Legend,Top*
G04 #@! TF.FilePolarity,Positive*
%FSLAX46Y46*%
G04 Gerber Fmt 4.6, Leading zero omitted, Abs format (unit mm)*
G04 Created by KiCad (PCBNEW 10.0.3) date 2026-06-15 16:25:49*
%MOMM*%
%LPD*%
G01*
G04 APERTURE LIST*
G04 Aperture macros list*
%AMRoundRect*
0 Rectangle with rounded corners*
0 $1 Rounding radius*
0 $2 $3 $4 $5 $6 $7 $8 $9 X,Y pos of 4 corners*
0 Add a 4 corners polygon primitive as box body*
4,1,4,$2,$3,$4,$5,$6,$7,$8,$9,$2,$3,0*
0 Add four circle primitives for the rounded corners*
1,1,$1+$1,$2,$3*
1,1,$1+$1,$4,$5*
1,1,$1+$1,$6,$7*
1,1,$1+$1,$8,$9*
0 Add four rect primitives between the rounded corners*
20,1,$1+$1,$2,$3,$4,$5,0*
20,1,$1+$1,$4,$5,$6,$7,0*
20,1,$1+$1,$6,$7,$8,$9,0*
20,1,$1+$1,$8,$9,$2,$3,0*%
G04 Aperture macros list end*
%ADD10C,0.300000*%
%ADD11C,0.190500*%
%ADD12C,0.150000*%
%ADD13C,0.120000*%
%ADD14O,2.100000X2.100000*%
%ADD15RoundRect,0.200000X-0.850000X-0.850000X0.850000X-0.850000X0.850000X0.850000X-0.850000X0.850000X0*%
%ADD16RoundRect,0.200000X-1.250000X-0.715000X1.250000X-0.715000X1.250000X0.715000X-1.250000X0.715000X0*%
%ADD17O,2.100000X1.750000*%
%ADD18O,1.900000X1.500000*%
%ADD19RoundRect,0.200000X-0.825000X-0.200000X0.825000X-0.200000X0.825000X0.200000X-0.825000X0.200000X0*%
%ADD20RoundRect,0.200000X-0.750000X1.000000X-0.750000X-1.000000X0.750000X-1.000000X0.750000X1.000000X0*%
%ADD21RoundRect,0.200000X-0.350000X0.912500X-0.350000X-0.912500X0.350000X-0.912500X0.350000X0.912500X0*%
%ADD22RoundRect,0.200000X-1.000000X0.675000X-1.000000X-0.675000X1.000000X-0.675000X1.000000X0.675000X0*%
%ADD23RoundRect,0.336956X0.563044X-0.438044X0.563044X0.438044X-0.563044X0.438044X-0.563044X-0.438044X0*%
%ADD24RoundRect,0.336956X-0.563044X0.438044X-0.563044X-0.438044X0.563044X-0.438044X0.563044X0.438044X0*%
%ADD25RoundRect,0.336956X0.438044X0.563044X-0.438044X0.563044X-0.438044X-0.563044X0.438044X-0.563044X0*%
%ADD26RoundRect,0.336956X-0.438044X-0.563044X0.438044X-0.563044X0.438044X0.563044X-0.438044X0.563044X0*%
%ADD27RoundRect,0.200000X-0.275000X-0.300000X0.275000X-0.300000X0.275000X0.300000X-0.275000X0.300000X0*%
%ADD28RoundRect,0.200000X-0.325000X0.780000X-0.325000X-0.780000X0.325000X-0.780000X0.325000X0.780000X0*%
%ADD29RoundRect,0.200000X-0.300000X0.275000X-0.300000X-0.275000X0.300000X-0.275000X0.300000X0.275000X0*%
%ADD30RoundRect,0.200000X0.300000X-0.275000X0.300000X0.275000X-0.300000X0.275000X-0.300000X-0.275000X0*%
%ADD31RoundRect,0.200000X0.275000X0.300000X-0.275000X0.300000X-0.275000X-0.300000X0.275000X-0.300000X0*%
%ADD32RoundRect,0.200000X-0.125000X0.650000X-0.125000X-0.650000X0.125000X-0.650000X0.125000X0.650000X0*%
%ADD33RoundRect,0.200000X-0.650000X-0.125000X0.650000X-0.125000X0.650000X0.125000X-0.650000X0.125000X0*%
%ADD34C,1.900000*%
%ADD35RoundRect,0.337500X-0.387500X-0.337500X0.387500X-0.337500X0.387500X0.337500X-0.387500X0.337500X0*%
%ADD36RoundRect,0.337500X0.337500X-0.387500X0.337500X0.387500X-0.337500X0.387500X-0.337500X-0.387500X0*%
%ADD37RoundRect,0.337500X-0.337500X0.387500X-0.337500X-0.387500X0.337500X-0.387500X0.337500X0.387500X0*%
%ADD38RoundRect,0.337500X0.387500X0.337500X-0.387500X0.337500X-0.387500X-0.337500X0.387500X-0.337500X0*%
%ADD39C,3.600000*%
G04 APERTURE END LIST*
D10*
G36*
X155007436Y-121338161D02*
G01*
X155025204Y-121682909D01*
X154996079Y-121684100D01*
X154977220Y-121599911D01*
X154951932Y-121538562D01*
X154915242Y-121486201D01*
X154863638Y-121439094D01*
X154812348Y-121408786D01*
X154750798Y-121388261D01*
X154680300Y-121377548D01*
X154577416Y-121373332D01*
X154345690Y-121373332D01*
X154345690Y-121988824D01*
X154404217Y-121988824D01*
X154491301Y-121985243D01*
X154543619Y-121976642D01*
X154586443Y-121959389D01*
X154619364Y-121933319D01*
X154643835Y-121901495D01*
X154661222Y-121863985D01*
X154672932Y-121818543D01*
X154684486Y-121742535D01*
X154713520Y-121743726D01*
X154709398Y-122299501D01*
X154680273Y-122299501D01*
X154667901Y-122221888D01*
X154653070Y-122169258D01*
X154631575Y-122124069D01*
X154603977Y-122087284D01*
X154569746Y-122059411D01*
X154525026Y-122039382D01*
X154472987Y-122028251D01*
X154401195Y-122023995D01*
X154345690Y-122023995D01*
X154345690Y-122256819D01*
X154352834Y-122461617D01*
X154363812Y-122522477D01*
X154380220Y-122568412D01*
X154407480Y-122613254D01*
X154442184Y-122648685D01*
X154485092Y-122675757D01*
X154562134Y-122700402D01*
X154671663Y-122709829D01*
X154788423Y-122701356D01*
X154876369Y-122678688D01*
X154951604Y-122638619D01*
X155010550Y-122582242D01*
X155043538Y-122535569D01*
X155070084Y-122482042D01*
X155090958Y-122420649D01*
X155112949Y-122330916D01*
X155141892Y-122332107D01*
X155128428Y-122745000D01*
X153900191Y-122745000D01*
X153900191Y-122715874D01*
X153957645Y-122709611D01*
X153996728Y-122699479D01*
X154030490Y-122682442D01*
X154060934Y-122657072D01*
X154086900Y-122620977D01*
X154103798Y-122574549D01*
X154111982Y-122517504D01*
X154115430Y-122419851D01*
X154115430Y-121663309D01*
X154111981Y-121565667D01*
X154103798Y-121508703D01*
X154086895Y-121462196D01*
X154060934Y-121426088D01*
X154031381Y-121400714D01*
X153997827Y-121383681D01*
X153958613Y-121373569D01*
X153900191Y-121367287D01*
X153900191Y-121338161D01*
X155007436Y-121338161D01*
G37*
G36*
X156982872Y-121367287D02*
G01*
X156925447Y-121373453D01*
X156887251Y-121383224D01*
X156854266Y-121399740D01*
X156823137Y-121425172D01*
X156789981Y-121472067D01*
X156774869Y-121537371D01*
X156767725Y-121663309D01*
X156767725Y-122419851D01*
X156771309Y-122518445D01*
X156779815Y-122576014D01*
X156797243Y-122622566D01*
X156823137Y-122656980D01*
X156863355Y-122686190D01*
X156915517Y-122706180D01*
X156982872Y-122715874D01*
X156982872Y-122745000D01*
X156322226Y-122745000D01*
X156322226Y-122715874D01*
X156380544Y-122709467D01*
X156419770Y-122699021D01*
X156453612Y-122681815D01*
X156483975Y-122657072D01*
X156509941Y-122620977D01*
X156526840Y-122574549D01*
X156535024Y-122517504D01*
X156538472Y-122419851D01*
X156538472Y-121516489D01*
X156015579Y-122745000D01*
X155990208Y-122745000D01*
X155470429Y-121534898D01*
X155470429Y-122419851D01*
X155473892Y-122518318D01*
X155482061Y-122575006D01*
X155498935Y-122621042D01*
X155524925Y-122657072D01*
X155555355Y-122682448D01*
X155589039Y-122699479D01*
X155628202Y-122709613D01*
X155685668Y-122715874D01*
X155685668Y-122745000D01*
X155207379Y-122745000D01*
X155207379Y-122715874D01*
X155264833Y-122709611D01*
X155303916Y-122699479D01*
X155337661Y-122682438D01*
X155368030Y-122657072D01*
X155393996Y-122620977D01*
X155410894Y-122574549D01*
X155419143Y-122517505D01*
X155422618Y-122419851D01*
X155422618Y-121663309D01*
X155419504Y-121574191D01*
X155410147Y-121504320D01*
X155396331Y-121464465D01*
X155366038Y-121422833D01*
X155327180Y-121394306D01*
X155278688Y-121376980D01*
X155207379Y-121367287D01*
X155207379Y-121338161D01*
X155657091Y-121338161D01*
X156098835Y-122430659D01*
X156556882Y-121338161D01*
X156982872Y-121338161D01*
X156982872Y-121367287D01*
G37*
G36*
X157889349Y-121340267D02*
G01*
X157966570Y-121351355D01*
X158030924Y-121370366D01*
X158084438Y-121396413D01*
X158144198Y-121444802D01*
X158188394Y-121505956D01*
X158215734Y-121577032D01*
X158225122Y-121658088D01*
X158215324Y-121745696D01*
X158187318Y-121819341D01*
X158141316Y-121882120D01*
X158109191Y-121911653D01*
X158072989Y-121935701D01*
X157973429Y-121979207D01*
X158056649Y-121995899D01*
X158115670Y-122013278D01*
X158167943Y-122036744D01*
X158214772Y-122067775D01*
X158273407Y-122127660D01*
X158317629Y-122201132D01*
X158344984Y-122283474D01*
X158354265Y-122373415D01*
X158344648Y-122463818D01*
X158316530Y-122544690D01*
X158271103Y-122615250D01*
X158211566Y-122669895D01*
X158146181Y-122705157D01*
X158066669Y-122728605D01*
X157974207Y-122740282D01*
X157830822Y-122745000D01*
X157078768Y-122745000D01*
X157078768Y-122715874D01*
X157137086Y-122709467D01*
X157176312Y-122699021D01*
X157209957Y-122681766D01*
X157239419Y-122657072D01*
X157266093Y-122620953D01*
X157282833Y-122575006D01*
X157290680Y-122518315D01*
X157293357Y-122439085D01*
X157524267Y-122439085D01*
X157527257Y-122512118D01*
X157534891Y-122562733D01*
X157549354Y-122606869D01*
X157569788Y-122642051D01*
X157609174Y-122677810D01*
X157666036Y-122701067D01*
X157746741Y-122709829D01*
X157828198Y-122703613D01*
X157897085Y-122686070D01*
X157955589Y-122658215D01*
X158005395Y-122620161D01*
X158046135Y-122572404D01*
X158075556Y-122516804D01*
X158093907Y-122451821D01*
X158100375Y-122375338D01*
X158092842Y-122288678D01*
X158070882Y-122210291D01*
X158035160Y-122141329D01*
X157991839Y-122093604D01*
X157944954Y-122063224D01*
X157883846Y-122039612D01*
X157805116Y-122023922D01*
X157704701Y-122018133D01*
X157524267Y-122018133D01*
X157524267Y-122439085D01*
X157293357Y-122439085D01*
X157294007Y-122419851D01*
X157294007Y-121982962D01*
X157524267Y-121982962D01*
X157604317Y-121982962D01*
X157724760Y-121974627D01*
X157811771Y-121955210D01*
X157872038Y-121924435D01*
X157917566Y-121880211D01*
X157951539Y-121824509D01*
X157972321Y-121761071D01*
X157979474Y-121689504D01*
X157972169Y-121613086D01*
X157950440Y-121541035D01*
X157915831Y-121477069D01*
X157874053Y-121431767D01*
X157829730Y-121403467D01*
X157779165Y-121385696D01*
X157718870Y-121376987D01*
X157616591Y-121373332D01*
X157524267Y-121373332D01*
X157524267Y-121982962D01*
X157294007Y-121982962D01*
X157294007Y-121663309D01*
X157290680Y-121564845D01*
X157282833Y-121508154D01*
X157266093Y-121462208D01*
X157239419Y-121426088D01*
X157209794Y-121400744D01*
X157175854Y-121383681D01*
X157136361Y-121373539D01*
X157078768Y-121367287D01*
X157078768Y-121338161D01*
X157754985Y-121338161D01*
X157889349Y-121340267D01*
G37*
G36*
X159598713Y-121338161D02*
G01*
X159616482Y-121682909D01*
X159587356Y-121684100D01*
X159568497Y-121599911D01*
X159543209Y-121538562D01*
X159506519Y-121486201D01*
X159454915Y-121439094D01*
X159403625Y-121408786D01*
X159342075Y-121388261D01*
X159271577Y-121377548D01*
X159168693Y-121373332D01*
X158936967Y-121373332D01*
X158936967Y-121988824D01*
X158995494Y-121988824D01*
X159082578Y-121985243D01*
X159134896Y-121976642D01*
X159177720Y-121959389D01*
X159210642Y-121933319D01*
X159235112Y-121901495D01*
X159252499Y-121863985D01*
X159264209Y-121818543D01*
X159275763Y-121742535D01*
X159304797Y-121743726D01*
X159300676Y-122299501D01*
X159271550Y-122299501D01*
X159259178Y-122221888D01*
X159244347Y-122169258D01*
X159222852Y-122124069D01*
X159195254Y-122087284D01*
X159161023Y-122059411D01*
X159116303Y-122039382D01*
X159064264Y-122028251D01*
X158992472Y-122023995D01*
X158936967Y-122023995D01*
X158936967Y-122256819D01*
X158944112Y-122461617D01*
X158955089Y-122522477D01*
X158971497Y-122568412D01*
X158998757Y-122613254D01*
X159033462Y-122648685D01*
X159076369Y-122675757D01*
X159153411Y-122700402D01*
X159262940Y-122709829D01*
X159379700Y-122701356D01*
X159467646Y-122678688D01*
X159542881Y-122638619D01*
X159601827Y-122582242D01*
X159634815Y-122535569D01*
X159661361Y-122482042D01*
X159682235Y-122420649D01*
X159704226Y-122330916D01*
X159733169Y-122332107D01*
X159719705Y-122745000D01*
X158491468Y-122745000D01*
X158491468Y-122715874D01*
X158548922Y-122709611D01*
X158588005Y-122699479D01*
X158621767Y-122682442D01*
X158652211Y-122657072D01*
X158678177Y-122620977D01*
X158695075Y-122574549D01*
X158703259Y-122517504D01*
X158706707Y-122419851D01*
X158706707Y-121663309D01*
X158703258Y-121565667D01*
X158695075Y-121508703D01*
X158678172Y-121462196D01*
X158652211Y-121426088D01*
X158622658Y-121400714D01*
X158589105Y-121383681D01*
X158549890Y-121373569D01*
X158491468Y-121367287D01*
X158491468Y-121338161D01*
X159598713Y-121338161D01*
G37*
G36*
X160604108Y-121342282D02*
G01*
X160712003Y-121356884D01*
X160808433Y-121382713D01*
X160894856Y-121419148D01*
X160972487Y-121466022D01*
X161061086Y-121540729D01*
X161135608Y-121629378D01*
X161196794Y-121733468D01*
X161241099Y-121846061D01*
X161267912Y-121965543D01*
X161277028Y-122093421D01*
X161271835Y-122187357D01*
X161256510Y-122276615D01*
X161231232Y-122361874D01*
X161195790Y-122443137D01*
X161153372Y-122512597D01*
X161104104Y-122571618D01*
X161022095Y-122640230D01*
X160927741Y-122689954D01*
X160818706Y-122721277D01*
X160690381Y-122739038D01*
X160558862Y-122745000D01*
X159798656Y-122745000D01*
X159798656Y-122715874D01*
X159856938Y-122709580D01*
X159895743Y-122699479D01*
X159929014Y-122682526D01*
X159959307Y-122657072D01*
X159985273Y-122620977D01*
X160002172Y-122574549D01*
X160010420Y-122517505D01*
X160013895Y-122419851D01*
X160013895Y-122394938D01*
X160244155Y-122394938D01*
X160247417Y-122489614D01*
X160255329Y-122547804D01*
X160271582Y-122596581D01*
X160296820Y-122636372D01*
X160345580Y-122678432D01*
X160413646Y-122705573D01*
X160507663Y-122715690D01*
X160590482Y-122710670D01*
X160661321Y-122696509D01*
X160721986Y-122674200D01*
X160777793Y-122641835D01*
X160830797Y-122597485D01*
X160881354Y-122539561D01*
X160941956Y-122443571D01*
X160986867Y-122332748D01*
X161013907Y-122213552D01*
X161023137Y-122084719D01*
X161012032Y-121941567D01*
X160979265Y-121807382D01*
X160945282Y-121722281D01*
X160903421Y-121645903D01*
X160853694Y-121577397D01*
X160771947Y-121495522D01*
X160682411Y-121436064D01*
X160583683Y-121396962D01*
X160492036Y-121379885D01*
X160365239Y-121373332D01*
X160244155Y-121373332D01*
X160244155Y-122394938D01*
X160013895Y-122394938D01*
X160013895Y-121663309D01*
X160009810Y-121558336D01*
X160000248Y-121498995D01*
X159980042Y-121451671D01*
X159947217Y-121413998D01*
X159911899Y-121391796D01*
X159863623Y-121375747D01*
X159798656Y-121367287D01*
X159798656Y-121338161D01*
X160365239Y-121338161D01*
X160604108Y-121342282D01*
G37*
G36*
X163194945Y-121367287D02*
G01*
X163137519Y-121373453D01*
X163099323Y-121383224D01*
X163066339Y-121399740D01*
X163035210Y-121425172D01*
X163002054Y-121472067D01*
X162986941Y-121537371D01*
X162979797Y-121663309D01*
X162979797Y-122419851D01*
X162983382Y-122518445D01*
X162991887Y-122576014D01*
X163009315Y-122622566D01*
X163035210Y-122656980D01*
X163075428Y-122686190D01*
X163127589Y-122706180D01*
X163194945Y-122715874D01*
X163194945Y-122745000D01*
X162534298Y-122745000D01*
X162534298Y-122715874D01*
X162592617Y-122709467D01*
X162631843Y-122699021D01*
X162665685Y-122681815D01*
X162696048Y-122657072D01*
X162722014Y-122620977D01*
X162738913Y-122574549D01*
X162747096Y-122517504D01*
X162750545Y-122419851D01*
X162750545Y-121516489D01*
X162227651Y-122745000D01*
X162202281Y-122745000D01*
X161682501Y-121534898D01*
X161682501Y-122419851D01*
X161685965Y-122518318D01*
X161694133Y-122575006D01*
X161711008Y-122621042D01*
X161736998Y-122657072D01*
X161767428Y-122682448D01*
X161801112Y-122699479D01*
X161840275Y-122709613D01*
X161897740Y-122715874D01*
X161897740Y-122745000D01*
X161419452Y-122745000D01*
X161419452Y-122715874D01*
X161476906Y-122709611D01*
X161515989Y-122699479D01*
X161549734Y-122682438D01*
X161580102Y-122657072D01*
X161606068Y-122620977D01*
X161622967Y-122574549D01*
X161631215Y-122517505D01*
X161634691Y-122419851D01*
X161634691Y-121663309D01*
X161631577Y-121574191D01*
X161622219Y-121504320D01*
X161608404Y-121464465D01*
X161578111Y-121422833D01*
X161539253Y-121394306D01*
X161490760Y-121376980D01*
X161419452Y-121367287D01*
X161419452Y-121338161D01*
X161869164Y-121338161D01*
X162310908Y-122430659D01*
X162768954Y-121338161D01*
X163194945Y-121338161D01*
X163194945Y-121367287D01*
G37*
G36*
X164426753Y-122418844D02*
G01*
X164506345Y-122592775D01*
X164538454Y-122640040D01*
X164570184Y-122671177D01*
X164625872Y-122699021D01*
X164723050Y-122715965D01*
X164723050Y-122745000D01*
X164043994Y-122745000D01*
X164043994Y-122715965D01*
X164129347Y-122702436D01*
X164172404Y-122685374D01*
X164207526Y-122655280D01*
X164227699Y-122619834D01*
X164234595Y-122577113D01*
X164228563Y-122532856D01*
X164206110Y-122465464D01*
X164188616Y-122422416D01*
X164090980Y-122182264D01*
X163644199Y-122182264D01*
X163591717Y-122321940D01*
X163566072Y-122385505D01*
X163529730Y-122493007D01*
X163520093Y-122561726D01*
X163524268Y-122597849D01*
X163536671Y-122631152D01*
X163556256Y-122660443D01*
X163581367Y-122683450D01*
X163624926Y-122704539D01*
X163685048Y-122715965D01*
X163685048Y-122745000D01*
X163220132Y-122745000D01*
X163220132Y-122715874D01*
X163273722Y-122707282D01*
X163316944Y-122689404D01*
X163355206Y-122660571D01*
X163395987Y-122614207D01*
X163426879Y-122568575D01*
X163459734Y-122506313D01*
X163542075Y-122307927D01*
X163608944Y-122135369D01*
X163662792Y-122135369D01*
X164072295Y-122135369D01*
X163861544Y-121613483D01*
X163662792Y-122135369D01*
X163608944Y-122135369D01*
X163917873Y-121338161D01*
X163980155Y-121338161D01*
X164426753Y-122418844D01*
G37*
G36*
X165299341Y-121373332D02*
G01*
X165164153Y-121377453D01*
X165017257Y-121393250D01*
X164930046Y-121417295D01*
X164882559Y-121443013D01*
X164840642Y-121478893D01*
X164803742Y-121526197D01*
X164765030Y-121605923D01*
X164732942Y-121723210D01*
X164703999Y-121720737D01*
X164722684Y-121338161D01*
X166114593Y-121338161D01*
X166133278Y-121720737D01*
X166104335Y-121723210D01*
X166080140Y-121628040D01*
X166050916Y-121557096D01*
X166017873Y-121505498D01*
X165974675Y-121462805D01*
X165918767Y-121427886D01*
X165847605Y-121400992D01*
X165736594Y-121381755D01*
X165528593Y-121373332D01*
X165528593Y-122419393D01*
X165532041Y-122517138D01*
X165540225Y-122574274D01*
X165557125Y-122620797D01*
X165583090Y-122656980D01*
X165613520Y-122682356D01*
X165647204Y-122699387D01*
X165686371Y-122709588D01*
X165743832Y-122715874D01*
X165743832Y-122745000D01*
X165083186Y-122745000D01*
X165083186Y-122715874D01*
X165141527Y-122709593D01*
X165180730Y-122699479D01*
X165214469Y-122682420D01*
X165244844Y-122656980D01*
X165270833Y-122620862D01*
X165287709Y-122574732D01*
X165295878Y-122517951D01*
X165299341Y-122419393D01*
X165299341Y-121373332D01*
G37*
G36*
X166846497Y-121339168D02*
G01*
X166996757Y-121355036D01*
X167096449Y-121382399D01*
X167160707Y-121415276D01*
X167213081Y-121456385D01*
X167255085Y-121506047D01*
X167286103Y-121563084D01*
X167304933Y-121626145D01*
X167311413Y-121696740D01*
X167303492Y-121774742D01*
X167280650Y-121842515D01*
X167243083Y-121902214D01*
X167189414Y-121955210D01*
X167150379Y-121981483D01*
X167107257Y-122002745D01*
X166996432Y-122035810D01*
X167045876Y-122060711D01*
X167079963Y-122086185D01*
X167123377Y-122140773D01*
X167181995Y-122255720D01*
X167319748Y-122530493D01*
X167365812Y-122610491D01*
X167397875Y-122656156D01*
X167424063Y-122683946D01*
X167446602Y-122699662D01*
X167472989Y-122709167D01*
X167514288Y-122715965D01*
X167514288Y-122745000D01*
X167169264Y-122745000D01*
X167135742Y-122671360D01*
X167064026Y-122508145D01*
X166997467Y-122366455D01*
X166933967Y-122248668D01*
X166866515Y-122148588D01*
X166814898Y-122096626D01*
X166786513Y-122079218D01*
X166756372Y-122067775D01*
X166679344Y-122059166D01*
X166632083Y-122059166D01*
X166632083Y-122419760D01*
X166635531Y-122517413D01*
X166643715Y-122574457D01*
X166660618Y-122620964D01*
X166686579Y-122657072D01*
X166716026Y-122681771D01*
X166749594Y-122699021D01*
X166788900Y-122709470D01*
X166847230Y-122715874D01*
X166847230Y-122745000D01*
X166186584Y-122745000D01*
X166186584Y-122715874D01*
X166244902Y-122709467D01*
X166284128Y-122699021D01*
X166317773Y-122681766D01*
X166347234Y-122657072D01*
X166373909Y-122620953D01*
X166390648Y-122575006D01*
X166398496Y-122518315D01*
X166401823Y-122419851D01*
X166401823Y-122029856D01*
X166632083Y-122029856D01*
X166668078Y-122029856D01*
X166785712Y-122025543D01*
X166848970Y-122015660D01*
X166900645Y-121994304D01*
X166950911Y-121956584D01*
X166997833Y-121902168D01*
X167030785Y-121842687D01*
X167050750Y-121777031D01*
X167057615Y-121703609D01*
X167049798Y-121625058D01*
X167026657Y-121552117D01*
X166989305Y-121486933D01*
X166940836Y-121435430D01*
X166894915Y-121406331D01*
X166839445Y-121387070D01*
X166774187Y-121377306D01*
X166671192Y-121373332D01*
X166632083Y-121373332D01*
X166632083Y-122029856D01*
X166401823Y-122029856D01*
X166401823Y-121663309D01*
X166398496Y-121564845D01*
X166390648Y-121508154D01*
X166373909Y-121462208D01*
X166347234Y-121426088D01*
X166317609Y-121400744D01*
X166283670Y-121383681D01*
X166244177Y-121373539D01*
X166186584Y-121367287D01*
X166186584Y-121338161D01*
X166683465Y-121338161D01*
X166846497Y-121339168D01*
G37*
G36*
X168205709Y-121338161D02*
G01*
X168205709Y-121367287D01*
X168148247Y-121373572D01*
X168109080Y-121383773D01*
X168075416Y-121400738D01*
X168045058Y-121426088D01*
X168014062Y-121472557D01*
X167996698Y-121538379D01*
X167990561Y-121663309D01*
X167990561Y-122419851D01*
X167998713Y-122553757D01*
X168009976Y-122599621D01*
X168024908Y-122631885D01*
X168055086Y-122667215D01*
X168092411Y-122691877D01*
X168138066Y-122706989D01*
X168205709Y-122715874D01*
X168205709Y-122745000D01*
X167545062Y-122745000D01*
X167545062Y-122715874D01*
X167603381Y-122709467D01*
X167642607Y-122699021D01*
X167676252Y-122681766D01*
X167705713Y-122657072D01*
X167732387Y-122620953D01*
X167749127Y-122575006D01*
X167756975Y-122518315D01*
X167760301Y-122419851D01*
X167760301Y-121663309D01*
X167756975Y-121564845D01*
X167749127Y-121508154D01*
X167732387Y-121462208D01*
X167705713Y-121426088D01*
X167676088Y-121400744D01*
X167642149Y-121383681D01*
X167602656Y-121373539D01*
X167545062Y-121367287D01*
X167545062Y-121338161D01*
X168205709Y-121338161D01*
G37*
G36*
X168277241Y-121338161D02*
G01*
X168958404Y-121338161D01*
X168958404Y-121367470D01*
X168889730Y-121371029D01*
X168847762Y-121379651D01*
X168813428Y-121396970D01*
X168794695Y-121420190D01*
X168788319Y-121450909D01*
X168794730Y-121486745D01*
X168819201Y-121542849D01*
X168871759Y-121627863D01*
X169048896Y-121887341D01*
X169203135Y-121696465D01*
X169322662Y-121537463D01*
X169343767Y-121492222D01*
X169350047Y-121454023D01*
X169343980Y-121422901D01*
X169326339Y-121399359D01*
X169294635Y-121381666D01*
X169262946Y-121373866D01*
X169199472Y-121367287D01*
X169199472Y-121338161D01*
X169675654Y-121338161D01*
X169675654Y-121367470D01*
X169600641Y-121373275D01*
X169553105Y-121387711D01*
X169512251Y-121413638D01*
X169455217Y-121466272D01*
X169376792Y-121557430D01*
X169298940Y-121655982D01*
X169077930Y-121930389D01*
X169429274Y-122453007D01*
X169523784Y-122580101D01*
X169597710Y-122654691D01*
X169637024Y-122682375D01*
X169673181Y-122699479D01*
X169713797Y-122709572D01*
X169775030Y-122715874D01*
X169775030Y-122745000D01*
X169058055Y-122745000D01*
X169058055Y-122715965D01*
X169136800Y-122702701D01*
X169180512Y-122687206D01*
X169215194Y-122663194D01*
X169234140Y-122635754D01*
X169240413Y-122603491D01*
X169228323Y-122559436D01*
X169182436Y-122483049D01*
X168933674Y-122106610D01*
X168692332Y-122401075D01*
X168641477Y-122467805D01*
X168612281Y-122514923D01*
X168593988Y-122559903D01*
X168588468Y-122598362D01*
X168598789Y-122646723D01*
X168628951Y-122682076D01*
X168676145Y-122704131D01*
X168753423Y-122715874D01*
X168753423Y-122745000D01*
X168249581Y-122745000D01*
X168249581Y-122716148D01*
X168304832Y-122702786D01*
X168344927Y-122686748D01*
X168382305Y-122662993D01*
X168431847Y-122620894D01*
X168511310Y-122539699D01*
X168639576Y-122390267D01*
X168904640Y-122065485D01*
X168588193Y-121590128D01*
X168533971Y-121510993D01*
X168474412Y-121433978D01*
X168434412Y-121398886D01*
X168391180Y-121381848D01*
X168310855Y-121369485D01*
X168277241Y-121367195D01*
X168277241Y-121338161D01*
G37*
D11*
X161979428Y-90786895D02*
X161906857Y-90750609D01*
X161906857Y-90750609D02*
X161797999Y-90750609D01*
X161797999Y-90750609D02*
X161689142Y-90786895D01*
X161689142Y-90786895D02*
X161616571Y-90859466D01*
X161616571Y-90859466D02*
X161580285Y-90932038D01*
X161580285Y-90932038D02*
X161543999Y-91077181D01*
X161543999Y-91077181D02*
X161543999Y-91186038D01*
X161543999Y-91186038D02*
X161580285Y-91331181D01*
X161580285Y-91331181D02*
X161616571Y-91403752D01*
X161616571Y-91403752D02*
X161689142Y-91476324D01*
X161689142Y-91476324D02*
X161797999Y-91512609D01*
X161797999Y-91512609D02*
X161870571Y-91512609D01*
X161870571Y-91512609D02*
X161979428Y-91476324D01*
X161979428Y-91476324D02*
X162015714Y-91440038D01*
X162015714Y-91440038D02*
X162015714Y-91186038D01*
X162015714Y-91186038D02*
X161870571Y-91186038D01*
X162342285Y-91512609D02*
X162342285Y-90750609D01*
X162342285Y-90750609D02*
X162777714Y-91512609D01*
X162777714Y-91512609D02*
X162777714Y-90750609D01*
X163140571Y-91512609D02*
X163140571Y-90750609D01*
X163140571Y-90750609D02*
X163322000Y-90750609D01*
X163322000Y-90750609D02*
X163430857Y-90786895D01*
X163430857Y-90786895D02*
X163503428Y-90859466D01*
X163503428Y-90859466D02*
X163539714Y-90932038D01*
X163539714Y-90932038D02*
X163576000Y-91077181D01*
X163576000Y-91077181D02*
X163576000Y-91186038D01*
X163576000Y-91186038D02*
X163539714Y-91331181D01*
X163539714Y-91331181D02*
X163503428Y-91403752D01*
X163503428Y-91403752D02*
X163430857Y-91476324D01*
X163430857Y-91476324D02*
X163322000Y-91512609D01*
X163322000Y-91512609D02*
X163140571Y-91512609D01*
X161308143Y-88972609D02*
X161308143Y-88210609D01*
X161308143Y-88210609D02*
X161743572Y-88972609D01*
X161743572Y-88972609D02*
X161743572Y-88210609D01*
X162541858Y-88972609D02*
X162287858Y-88609752D01*
X162106429Y-88972609D02*
X162106429Y-88210609D01*
X162106429Y-88210609D02*
X162396715Y-88210609D01*
X162396715Y-88210609D02*
X162469286Y-88246895D01*
X162469286Y-88246895D02*
X162505572Y-88283181D01*
X162505572Y-88283181D02*
X162541858Y-88355752D01*
X162541858Y-88355752D02*
X162541858Y-88464609D01*
X162541858Y-88464609D02*
X162505572Y-88537181D01*
X162505572Y-88537181D02*
X162469286Y-88573466D01*
X162469286Y-88573466D02*
X162396715Y-88609752D01*
X162396715Y-88609752D02*
X162106429Y-88609752D01*
X162832143Y-88936324D02*
X162941001Y-88972609D01*
X162941001Y-88972609D02*
X163122429Y-88972609D01*
X163122429Y-88972609D02*
X163195001Y-88936324D01*
X163195001Y-88936324D02*
X163231286Y-88900038D01*
X163231286Y-88900038D02*
X163267572Y-88827466D01*
X163267572Y-88827466D02*
X163267572Y-88754895D01*
X163267572Y-88754895D02*
X163231286Y-88682324D01*
X163231286Y-88682324D02*
X163195001Y-88646038D01*
X163195001Y-88646038D02*
X163122429Y-88609752D01*
X163122429Y-88609752D02*
X162977286Y-88573466D01*
X162977286Y-88573466D02*
X162904715Y-88537181D01*
X162904715Y-88537181D02*
X162868429Y-88500895D01*
X162868429Y-88500895D02*
X162832143Y-88428324D01*
X162832143Y-88428324D02*
X162832143Y-88355752D01*
X162832143Y-88355752D02*
X162868429Y-88283181D01*
X162868429Y-88283181D02*
X162904715Y-88246895D01*
X162904715Y-88246895D02*
X162977286Y-88210609D01*
X162977286Y-88210609D02*
X163158715Y-88210609D01*
X163158715Y-88210609D02*
X163267572Y-88246895D01*
X163485286Y-88210609D02*
X163920715Y-88210609D01*
X163703000Y-88972609D02*
X163703000Y-88210609D01*
X160945285Y-86396324D02*
X161054143Y-86432609D01*
X161054143Y-86432609D02*
X161235571Y-86432609D01*
X161235571Y-86432609D02*
X161308143Y-86396324D01*
X161308143Y-86396324D02*
X161344428Y-86360038D01*
X161344428Y-86360038D02*
X161380714Y-86287466D01*
X161380714Y-86287466D02*
X161380714Y-86214895D01*
X161380714Y-86214895D02*
X161344428Y-86142324D01*
X161344428Y-86142324D02*
X161308143Y-86106038D01*
X161308143Y-86106038D02*
X161235571Y-86069752D01*
X161235571Y-86069752D02*
X161090428Y-86033466D01*
X161090428Y-86033466D02*
X161017857Y-85997181D01*
X161017857Y-85997181D02*
X160981571Y-85960895D01*
X160981571Y-85960895D02*
X160945285Y-85888324D01*
X160945285Y-85888324D02*
X160945285Y-85815752D01*
X160945285Y-85815752D02*
X160981571Y-85743181D01*
X160981571Y-85743181D02*
X161017857Y-85706895D01*
X161017857Y-85706895D02*
X161090428Y-85670609D01*
X161090428Y-85670609D02*
X161271857Y-85670609D01*
X161271857Y-85670609D02*
X161380714Y-85706895D01*
X161634714Y-85670609D02*
X161816142Y-86432609D01*
X161816142Y-86432609D02*
X161961285Y-85888324D01*
X161961285Y-85888324D02*
X162106428Y-86432609D01*
X162106428Y-86432609D02*
X162287857Y-85670609D01*
X162578142Y-86432609D02*
X162578142Y-85670609D01*
X162578142Y-85670609D02*
X162759571Y-85670609D01*
X162759571Y-85670609D02*
X162868428Y-85706895D01*
X162868428Y-85706895D02*
X162940999Y-85779466D01*
X162940999Y-85779466D02*
X162977285Y-85852038D01*
X162977285Y-85852038D02*
X163013571Y-85997181D01*
X163013571Y-85997181D02*
X163013571Y-86106038D01*
X163013571Y-86106038D02*
X162977285Y-86251181D01*
X162977285Y-86251181D02*
X162940999Y-86323752D01*
X162940999Y-86323752D02*
X162868428Y-86396324D01*
X162868428Y-86396324D02*
X162759571Y-86432609D01*
X162759571Y-86432609D02*
X162578142Y-86432609D01*
X163340142Y-86432609D02*
X163340142Y-85670609D01*
X163848142Y-85670609D02*
X163993285Y-85670609D01*
X163993285Y-85670609D02*
X164065856Y-85706895D01*
X164065856Y-85706895D02*
X164138428Y-85779466D01*
X164138428Y-85779466D02*
X164174713Y-85924609D01*
X164174713Y-85924609D02*
X164174713Y-86178609D01*
X164174713Y-86178609D02*
X164138428Y-86323752D01*
X164138428Y-86323752D02*
X164065856Y-86396324D01*
X164065856Y-86396324D02*
X163993285Y-86432609D01*
X163993285Y-86432609D02*
X163848142Y-86432609D01*
X163848142Y-86432609D02*
X163775571Y-86396324D01*
X163775571Y-86396324D02*
X163702999Y-86323752D01*
X163702999Y-86323752D02*
X163666713Y-86178609D01*
X163666713Y-86178609D02*
X163666713Y-85924609D01*
X163666713Y-85924609D02*
X163702999Y-85779466D01*
X163702999Y-85779466D02*
X163775571Y-85706895D01*
X163775571Y-85706895D02*
X163848142Y-85670609D01*
X161979428Y-83166895D02*
X161906857Y-83130609D01*
X161906857Y-83130609D02*
X161797999Y-83130609D01*
X161797999Y-83130609D02*
X161689142Y-83166895D01*
X161689142Y-83166895D02*
X161616571Y-83239466D01*
X161616571Y-83239466D02*
X161580285Y-83312038D01*
X161580285Y-83312038D02*
X161543999Y-83457181D01*
X161543999Y-83457181D02*
X161543999Y-83566038D01*
X161543999Y-83566038D02*
X161580285Y-83711181D01*
X161580285Y-83711181D02*
X161616571Y-83783752D01*
X161616571Y-83783752D02*
X161689142Y-83856324D01*
X161689142Y-83856324D02*
X161797999Y-83892609D01*
X161797999Y-83892609D02*
X161870571Y-83892609D01*
X161870571Y-83892609D02*
X161979428Y-83856324D01*
X161979428Y-83856324D02*
X162015714Y-83820038D01*
X162015714Y-83820038D02*
X162015714Y-83566038D01*
X162015714Y-83566038D02*
X161870571Y-83566038D01*
X162342285Y-83892609D02*
X162342285Y-83130609D01*
X162342285Y-83130609D02*
X162777714Y-83892609D01*
X162777714Y-83892609D02*
X162777714Y-83130609D01*
X163140571Y-83892609D02*
X163140571Y-83130609D01*
X163140571Y-83130609D02*
X163322000Y-83130609D01*
X163322000Y-83130609D02*
X163430857Y-83166895D01*
X163430857Y-83166895D02*
X163503428Y-83239466D01*
X163503428Y-83239466D02*
X163539714Y-83312038D01*
X163539714Y-83312038D02*
X163576000Y-83457181D01*
X163576000Y-83457181D02*
X163576000Y-83566038D01*
X163576000Y-83566038D02*
X163539714Y-83711181D01*
X163539714Y-83711181D02*
X163503428Y-83783752D01*
X163503428Y-83783752D02*
X163430857Y-83856324D01*
X163430857Y-83856324D02*
X163322000Y-83892609D01*
X163322000Y-83892609D02*
X163140571Y-83892609D01*
X160836428Y-81316324D02*
X160945286Y-81352609D01*
X160945286Y-81352609D02*
X161126714Y-81352609D01*
X161126714Y-81352609D02*
X161199286Y-81316324D01*
X161199286Y-81316324D02*
X161235571Y-81280038D01*
X161235571Y-81280038D02*
X161271857Y-81207466D01*
X161271857Y-81207466D02*
X161271857Y-81134895D01*
X161271857Y-81134895D02*
X161235571Y-81062324D01*
X161235571Y-81062324D02*
X161199286Y-81026038D01*
X161199286Y-81026038D02*
X161126714Y-80989752D01*
X161126714Y-80989752D02*
X160981571Y-80953466D01*
X160981571Y-80953466D02*
X160909000Y-80917181D01*
X160909000Y-80917181D02*
X160872714Y-80880895D01*
X160872714Y-80880895D02*
X160836428Y-80808324D01*
X160836428Y-80808324D02*
X160836428Y-80735752D01*
X160836428Y-80735752D02*
X160872714Y-80663181D01*
X160872714Y-80663181D02*
X160909000Y-80626895D01*
X160909000Y-80626895D02*
X160981571Y-80590609D01*
X160981571Y-80590609D02*
X161163000Y-80590609D01*
X161163000Y-80590609D02*
X161271857Y-80626895D01*
X161525857Y-80590609D02*
X161707285Y-81352609D01*
X161707285Y-81352609D02*
X161852428Y-80808324D01*
X161852428Y-80808324D02*
X161997571Y-81352609D01*
X161997571Y-81352609D02*
X162179000Y-80590609D01*
X162904714Y-81280038D02*
X162868428Y-81316324D01*
X162868428Y-81316324D02*
X162759571Y-81352609D01*
X162759571Y-81352609D02*
X162686999Y-81352609D01*
X162686999Y-81352609D02*
X162578142Y-81316324D01*
X162578142Y-81316324D02*
X162505571Y-81243752D01*
X162505571Y-81243752D02*
X162469285Y-81171181D01*
X162469285Y-81171181D02*
X162432999Y-81026038D01*
X162432999Y-81026038D02*
X162432999Y-80917181D01*
X162432999Y-80917181D02*
X162469285Y-80772038D01*
X162469285Y-80772038D02*
X162505571Y-80699466D01*
X162505571Y-80699466D02*
X162578142Y-80626895D01*
X162578142Y-80626895D02*
X162686999Y-80590609D01*
X162686999Y-80590609D02*
X162759571Y-80590609D01*
X162759571Y-80590609D02*
X162868428Y-80626895D01*
X162868428Y-80626895D02*
X162904714Y-80663181D01*
X163594142Y-81352609D02*
X163231285Y-81352609D01*
X163231285Y-81352609D02*
X163231285Y-80590609D01*
X163848142Y-81352609D02*
X163848142Y-80590609D01*
X164283571Y-81352609D02*
X163956999Y-80917181D01*
X164283571Y-80590609D02*
X163848142Y-81026038D01*
X161217428Y-78522324D02*
X161798000Y-78522324D01*
X161507714Y-78812609D02*
X161507714Y-78232038D01*
X162088286Y-78050609D02*
X162560000Y-78050609D01*
X162560000Y-78050609D02*
X162306000Y-78340895D01*
X162306000Y-78340895D02*
X162414857Y-78340895D01*
X162414857Y-78340895D02*
X162487429Y-78377181D01*
X162487429Y-78377181D02*
X162523714Y-78413466D01*
X162523714Y-78413466D02*
X162560000Y-78486038D01*
X162560000Y-78486038D02*
X162560000Y-78667466D01*
X162560000Y-78667466D02*
X162523714Y-78740038D01*
X162523714Y-78740038D02*
X162487429Y-78776324D01*
X162487429Y-78776324D02*
X162414857Y-78812609D01*
X162414857Y-78812609D02*
X162197143Y-78812609D01*
X162197143Y-78812609D02*
X162124571Y-78776324D01*
X162124571Y-78776324D02*
X162088286Y-78740038D01*
X162777714Y-78050609D02*
X163031714Y-78812609D01*
X163031714Y-78812609D02*
X163285714Y-78050609D01*
X163467143Y-78050609D02*
X163938857Y-78050609D01*
X163938857Y-78050609D02*
X163684857Y-78340895D01*
X163684857Y-78340895D02*
X163793714Y-78340895D01*
X163793714Y-78340895D02*
X163866286Y-78377181D01*
X163866286Y-78377181D02*
X163902571Y-78413466D01*
X163902571Y-78413466D02*
X163938857Y-78486038D01*
X163938857Y-78486038D02*
X163938857Y-78667466D01*
X163938857Y-78667466D02*
X163902571Y-78740038D01*
X163902571Y-78740038D02*
X163866286Y-78776324D01*
X163866286Y-78776324D02*
X163793714Y-78812609D01*
X163793714Y-78812609D02*
X163576000Y-78812609D01*
X163576000Y-78812609D02*
X163503428Y-78776324D01*
X163503428Y-78776324D02*
X163467143Y-78740038D01*
D12*
X166036666Y-75624819D02*
X166036666Y-76339104D01*
X166036666Y-76339104D02*
X165989047Y-76481961D01*
X165989047Y-76481961D02*
X165893809Y-76577200D01*
X165893809Y-76577200D02*
X165750952Y-76624819D01*
X165750952Y-76624819D02*
X165655714Y-76624819D01*
X167036666Y-76624819D02*
X166465238Y-76624819D01*
X166750952Y-76624819D02*
X166750952Y-75624819D01*
X166750952Y-75624819D02*
X166655714Y-75767676D01*
X166655714Y-75767676D02*
X166560476Y-75862914D01*
X166560476Y-75862914D02*
X166465238Y-75910533D01*
X125416666Y-130204819D02*
X125416666Y-130919104D01*
X125416666Y-130919104D02*
X125369047Y-131061961D01*
X125369047Y-131061961D02*
X125273809Y-131157200D01*
X125273809Y-131157200D02*
X125130952Y-131204819D01*
X125130952Y-131204819D02*
X125035714Y-131204819D01*
X125845238Y-130300057D02*
X125892857Y-130252438D01*
X125892857Y-130252438D02*
X125988095Y-130204819D01*
X125988095Y-130204819D02*
X126226190Y-130204819D01*
X126226190Y-130204819D02*
X126321428Y-130252438D01*
X126321428Y-130252438D02*
X126369047Y-130300057D01*
X126369047Y-130300057D02*
X126416666Y-130395295D01*
X126416666Y-130395295D02*
X126416666Y-130490533D01*
X126416666Y-130490533D02*
X126369047Y-130633390D01*
X126369047Y-130633390D02*
X125797619Y-131204819D01*
X125797619Y-131204819D02*
X126416666Y-131204819D01*
X129609580Y-118666666D02*
X129657200Y-118714285D01*
X129657200Y-118714285D02*
X129704819Y-118857142D01*
X129704819Y-118857142D02*
X129704819Y-118952380D01*
X129704819Y-118952380D02*
X129657200Y-119095237D01*
X129657200Y-119095237D02*
X129561961Y-119190475D01*
X129561961Y-119190475D02*
X129466723Y-119238094D01*
X129466723Y-119238094D02*
X129276247Y-119285713D01*
X129276247Y-119285713D02*
X129133390Y-119285713D01*
X129133390Y-119285713D02*
X128942914Y-119238094D01*
X128942914Y-119238094D02*
X128847676Y-119190475D01*
X128847676Y-119190475D02*
X128752438Y-119095237D01*
X128752438Y-119095237D02*
X128704819Y-118952380D01*
X128704819Y-118952380D02*
X128704819Y-118857142D01*
X128704819Y-118857142D02*
X128752438Y-118714285D01*
X128752438Y-118714285D02*
X128800057Y-118666666D01*
X129704819Y-117714285D02*
X129704819Y-118285713D01*
X129704819Y-117999999D02*
X128704819Y-117999999D01*
X128704819Y-117999999D02*
X128847676Y-118095237D01*
X128847676Y-118095237D02*
X128942914Y-118190475D01*
X128942914Y-118190475D02*
X128990533Y-118285713D01*
X126359580Y-99166666D02*
X126407200Y-99214285D01*
X126407200Y-99214285D02*
X126454819Y-99357142D01*
X126454819Y-99357142D02*
X126454819Y-99452380D01*
X126454819Y-99452380D02*
X126407200Y-99595237D01*
X126407200Y-99595237D02*
X126311961Y-99690475D01*
X126311961Y-99690475D02*
X126216723Y-99738094D01*
X126216723Y-99738094D02*
X126026247Y-99785713D01*
X126026247Y-99785713D02*
X125883390Y-99785713D01*
X125883390Y-99785713D02*
X125692914Y-99738094D01*
X125692914Y-99738094D02*
X125597676Y-99690475D01*
X125597676Y-99690475D02*
X125502438Y-99595237D01*
X125502438Y-99595237D02*
X125454819Y-99452380D01*
X125454819Y-99452380D02*
X125454819Y-99357142D01*
X125454819Y-99357142D02*
X125502438Y-99214285D01*
X125502438Y-99214285D02*
X125550057Y-99166666D01*
X125550057Y-98785713D02*
X125502438Y-98738094D01*
X125502438Y-98738094D02*
X125454819Y-98642856D01*
X125454819Y-98642856D02*
X125454819Y-98404761D01*
X125454819Y-98404761D02*
X125502438Y-98309523D01*
X125502438Y-98309523D02*
X125550057Y-98261904D01*
X125550057Y-98261904D02*
X125645295Y-98214285D01*
X125645295Y-98214285D02*
X125740533Y-98214285D01*
X125740533Y-98214285D02*
X125883390Y-98261904D01*
X125883390Y-98261904D02*
X126454819Y-98833332D01*
X126454819Y-98833332D02*
X126454819Y-98214285D01*
X124359580Y-99141666D02*
X124407200Y-99189285D01*
X124407200Y-99189285D02*
X124454819Y-99332142D01*
X124454819Y-99332142D02*
X124454819Y-99427380D01*
X124454819Y-99427380D02*
X124407200Y-99570237D01*
X124407200Y-99570237D02*
X124311961Y-99665475D01*
X124311961Y-99665475D02*
X124216723Y-99713094D01*
X124216723Y-99713094D02*
X124026247Y-99760713D01*
X124026247Y-99760713D02*
X123883390Y-99760713D01*
X123883390Y-99760713D02*
X123692914Y-99713094D01*
X123692914Y-99713094D02*
X123597676Y-99665475D01*
X123597676Y-99665475D02*
X123502438Y-99570237D01*
X123502438Y-99570237D02*
X123454819Y-99427380D01*
X123454819Y-99427380D02*
X123454819Y-99332142D01*
X123454819Y-99332142D02*
X123502438Y-99189285D01*
X123502438Y-99189285D02*
X123550057Y-99141666D01*
X123454819Y-98808332D02*
X123454819Y-98189285D01*
X123454819Y-98189285D02*
X123835771Y-98522618D01*
X123835771Y-98522618D02*
X123835771Y-98379761D01*
X123835771Y-98379761D02*
X123883390Y-98284523D01*
X123883390Y-98284523D02*
X123931009Y-98236904D01*
X123931009Y-98236904D02*
X124026247Y-98189285D01*
X124026247Y-98189285D02*
X124264342Y-98189285D01*
X124264342Y-98189285D02*
X124359580Y-98236904D01*
X124359580Y-98236904D02*
X124407200Y-98284523D01*
X124407200Y-98284523D02*
X124454819Y-98379761D01*
X124454819Y-98379761D02*
X124454819Y-98665475D01*
X124454819Y-98665475D02*
X124407200Y-98760713D01*
X124407200Y-98760713D02*
X124359580Y-98808332D01*
X134433333Y-115109580D02*
X134385714Y-115157200D01*
X134385714Y-115157200D02*
X134242857Y-115204819D01*
X134242857Y-115204819D02*
X134147619Y-115204819D01*
X134147619Y-115204819D02*
X134004762Y-115157200D01*
X134004762Y-115157200D02*
X133909524Y-115061961D01*
X133909524Y-115061961D02*
X133861905Y-114966723D01*
X133861905Y-114966723D02*
X133814286Y-114776247D01*
X133814286Y-114776247D02*
X133814286Y-114633390D01*
X133814286Y-114633390D02*
X133861905Y-114442914D01*
X133861905Y-114442914D02*
X133909524Y-114347676D01*
X133909524Y-114347676D02*
X134004762Y-114252438D01*
X134004762Y-114252438D02*
X134147619Y-114204819D01*
X134147619Y-114204819D02*
X134242857Y-114204819D01*
X134242857Y-114204819D02*
X134385714Y-114252438D01*
X134385714Y-114252438D02*
X134433333Y-114300057D01*
X135290476Y-114538152D02*
X135290476Y-115204819D01*
X135052381Y-114157200D02*
X134814286Y-114871485D01*
X134814286Y-114871485D02*
X135433333Y-114871485D01*
X156283333Y-72359580D02*
X156235714Y-72407200D01*
X156235714Y-72407200D02*
X156092857Y-72454819D01*
X156092857Y-72454819D02*
X155997619Y-72454819D01*
X155997619Y-72454819D02*
X155854762Y-72407200D01*
X155854762Y-72407200D02*
X155759524Y-72311961D01*
X155759524Y-72311961D02*
X155711905Y-72216723D01*
X155711905Y-72216723D02*
X155664286Y-72026247D01*
X155664286Y-72026247D02*
X155664286Y-71883390D01*
X155664286Y-71883390D02*
X155711905Y-71692914D01*
X155711905Y-71692914D02*
X155759524Y-71597676D01*
X155759524Y-71597676D02*
X155854762Y-71502438D01*
X155854762Y-71502438D02*
X155997619Y-71454819D01*
X155997619Y-71454819D02*
X156092857Y-71454819D01*
X156092857Y-71454819D02*
X156235714Y-71502438D01*
X156235714Y-71502438D02*
X156283333Y-71550057D01*
X157188095Y-71454819D02*
X156711905Y-71454819D01*
X156711905Y-71454819D02*
X156664286Y-71931009D01*
X156664286Y-71931009D02*
X156711905Y-71883390D01*
X156711905Y-71883390D02*
X156807143Y-71835771D01*
X156807143Y-71835771D02*
X157045238Y-71835771D01*
X157045238Y-71835771D02*
X157140476Y-71883390D01*
X157140476Y-71883390D02*
X157188095Y-71931009D01*
X157188095Y-71931009D02*
X157235714Y-72026247D01*
X157235714Y-72026247D02*
X157235714Y-72264342D01*
X157235714Y-72264342D02*
X157188095Y-72359580D01*
X157188095Y-72359580D02*
X157140476Y-72407200D01*
X157140476Y-72407200D02*
X157045238Y-72454819D01*
X157045238Y-72454819D02*
X156807143Y-72454819D01*
X156807143Y-72454819D02*
X156711905Y-72407200D01*
X156711905Y-72407200D02*
X156664286Y-72359580D01*
X156283333Y-74359580D02*
X156235714Y-74407200D01*
X156235714Y-74407200D02*
X156092857Y-74454819D01*
X156092857Y-74454819D02*
X155997619Y-74454819D01*
X155997619Y-74454819D02*
X155854762Y-74407200D01*
X155854762Y-74407200D02*
X155759524Y-74311961D01*
X155759524Y-74311961D02*
X155711905Y-74216723D01*
X155711905Y-74216723D02*
X155664286Y-74026247D01*
X155664286Y-74026247D02*
X155664286Y-73883390D01*
X155664286Y-73883390D02*
X155711905Y-73692914D01*
X155711905Y-73692914D02*
X155759524Y-73597676D01*
X155759524Y-73597676D02*
X155854762Y-73502438D01*
X155854762Y-73502438D02*
X155997619Y-73454819D01*
X155997619Y-73454819D02*
X156092857Y-73454819D01*
X156092857Y-73454819D02*
X156235714Y-73502438D01*
X156235714Y-73502438D02*
X156283333Y-73550057D01*
X157140476Y-73454819D02*
X156950000Y-73454819D01*
X156950000Y-73454819D02*
X156854762Y-73502438D01*
X156854762Y-73502438D02*
X156807143Y-73550057D01*
X156807143Y-73550057D02*
X156711905Y-73692914D01*
X156711905Y-73692914D02*
X156664286Y-73883390D01*
X156664286Y-73883390D02*
X156664286Y-74264342D01*
X156664286Y-74264342D02*
X156711905Y-74359580D01*
X156711905Y-74359580D02*
X156759524Y-74407200D01*
X156759524Y-74407200D02*
X156854762Y-74454819D01*
X156854762Y-74454819D02*
X157045238Y-74454819D01*
X157045238Y-74454819D02*
X157140476Y-74407200D01*
X157140476Y-74407200D02*
X157188095Y-74359580D01*
X157188095Y-74359580D02*
X157235714Y-74264342D01*
X157235714Y-74264342D02*
X157235714Y-74026247D01*
X157235714Y-74026247D02*
X157188095Y-73931009D01*
X157188095Y-73931009D02*
X157140476Y-73883390D01*
X157140476Y-73883390D02*
X157045238Y-73835771D01*
X157045238Y-73835771D02*
X156854762Y-73835771D01*
X156854762Y-73835771D02*
X156759524Y-73883390D01*
X156759524Y-73883390D02*
X156711905Y-73931009D01*
X156711905Y-73931009D02*
X156664286Y-74026247D01*
X140883333Y-139359580D02*
X140835714Y-139407200D01*
X140835714Y-139407200D02*
X140692857Y-139454819D01*
X140692857Y-139454819D02*
X140597619Y-139454819D01*
X140597619Y-139454819D02*
X140454762Y-139407200D01*
X140454762Y-139407200D02*
X140359524Y-139311961D01*
X140359524Y-139311961D02*
X140311905Y-139216723D01*
X140311905Y-139216723D02*
X140264286Y-139026247D01*
X140264286Y-139026247D02*
X140264286Y-138883390D01*
X140264286Y-138883390D02*
X140311905Y-138692914D01*
X140311905Y-138692914D02*
X140359524Y-138597676D01*
X140359524Y-138597676D02*
X140454762Y-138502438D01*
X140454762Y-138502438D02*
X140597619Y-138454819D01*
X140597619Y-138454819D02*
X140692857Y-138454819D01*
X140692857Y-138454819D02*
X140835714Y-138502438D01*
X140835714Y-138502438D02*
X140883333Y-138550057D01*
X141216667Y-138454819D02*
X141883333Y-138454819D01*
X141883333Y-138454819D02*
X141454762Y-139454819D01*
X140359580Y-121166666D02*
X140407200Y-121214285D01*
X140407200Y-121214285D02*
X140454819Y-121357142D01*
X140454819Y-121357142D02*
X140454819Y-121452380D01*
X140454819Y-121452380D02*
X140407200Y-121595237D01*
X140407200Y-121595237D02*
X140311961Y-121690475D01*
X140311961Y-121690475D02*
X140216723Y-121738094D01*
X140216723Y-121738094D02*
X140026247Y-121785713D01*
X140026247Y-121785713D02*
X139883390Y-121785713D01*
X139883390Y-121785713D02*
X139692914Y-121738094D01*
X139692914Y-121738094D02*
X139597676Y-121690475D01*
X139597676Y-121690475D02*
X139502438Y-121595237D01*
X139502438Y-121595237D02*
X139454819Y-121452380D01*
X139454819Y-121452380D02*
X139454819Y-121357142D01*
X139454819Y-121357142D02*
X139502438Y-121214285D01*
X139502438Y-121214285D02*
X139550057Y-121166666D01*
X139883390Y-120595237D02*
X139835771Y-120690475D01*
X139835771Y-120690475D02*
X139788152Y-120738094D01*
X139788152Y-120738094D02*
X139692914Y-120785713D01*
X139692914Y-120785713D02*
X139645295Y-120785713D01*
X139645295Y-120785713D02*
X139550057Y-120738094D01*
X139550057Y-120738094D02*
X139502438Y-120690475D01*
X139502438Y-120690475D02*
X139454819Y-120595237D01*
X139454819Y-120595237D02*
X139454819Y-120404761D01*
X139454819Y-120404761D02*
X139502438Y-120309523D01*
X139502438Y-120309523D02*
X139550057Y-120261904D01*
X139550057Y-120261904D02*
X139645295Y-120214285D01*
X139645295Y-120214285D02*
X139692914Y-120214285D01*
X139692914Y-120214285D02*
X139788152Y-120261904D01*
X139788152Y-120261904D02*
X139835771Y-120309523D01*
X139835771Y-120309523D02*
X139883390Y-120404761D01*
X139883390Y-120404761D02*
X139883390Y-120595237D01*
X139883390Y-120595237D02*
X139931009Y-120690475D01*
X139931009Y-120690475D02*
X139978628Y-120738094D01*
X139978628Y-120738094D02*
X140073866Y-120785713D01*
X140073866Y-120785713D02*
X140264342Y-120785713D01*
X140264342Y-120785713D02*
X140359580Y-120738094D01*
X140359580Y-120738094D02*
X140407200Y-120690475D01*
X140407200Y-120690475D02*
X140454819Y-120595237D01*
X140454819Y-120595237D02*
X140454819Y-120404761D01*
X140454819Y-120404761D02*
X140407200Y-120309523D01*
X140407200Y-120309523D02*
X140359580Y-120261904D01*
X140359580Y-120261904D02*
X140264342Y-120214285D01*
X140264342Y-120214285D02*
X140073866Y-120214285D01*
X140073866Y-120214285D02*
X139978628Y-120261904D01*
X139978628Y-120261904D02*
X139931009Y-120309523D01*
X139931009Y-120309523D02*
X139883390Y-120404761D01*
X155533333Y-91759580D02*
X155485714Y-91807200D01*
X155485714Y-91807200D02*
X155342857Y-91854819D01*
X155342857Y-91854819D02*
X155247619Y-91854819D01*
X155247619Y-91854819D02*
X155104762Y-91807200D01*
X155104762Y-91807200D02*
X155009524Y-91711961D01*
X155009524Y-91711961D02*
X154961905Y-91616723D01*
X154961905Y-91616723D02*
X154914286Y-91426247D01*
X154914286Y-91426247D02*
X154914286Y-91283390D01*
X154914286Y-91283390D02*
X154961905Y-91092914D01*
X154961905Y-91092914D02*
X155009524Y-90997676D01*
X155009524Y-90997676D02*
X155104762Y-90902438D01*
X155104762Y-90902438D02*
X155247619Y-90854819D01*
X155247619Y-90854819D02*
X155342857Y-90854819D01*
X155342857Y-90854819D02*
X155485714Y-90902438D01*
X155485714Y-90902438D02*
X155533333Y-90950057D01*
X156009524Y-91854819D02*
X156200000Y-91854819D01*
X156200000Y-91854819D02*
X156295238Y-91807200D01*
X156295238Y-91807200D02*
X156342857Y-91759580D01*
X156342857Y-91759580D02*
X156438095Y-91616723D01*
X156438095Y-91616723D02*
X156485714Y-91426247D01*
X156485714Y-91426247D02*
X156485714Y-91045295D01*
X156485714Y-91045295D02*
X156438095Y-90950057D01*
X156438095Y-90950057D02*
X156390476Y-90902438D01*
X156390476Y-90902438D02*
X156295238Y-90854819D01*
X156295238Y-90854819D02*
X156104762Y-90854819D01*
X156104762Y-90854819D02*
X156009524Y-90902438D01*
X156009524Y-90902438D02*
X155961905Y-90950057D01*
X155961905Y-90950057D02*
X155914286Y-91045295D01*
X155914286Y-91045295D02*
X155914286Y-91283390D01*
X155914286Y-91283390D02*
X155961905Y-91378628D01*
X155961905Y-91378628D02*
X156009524Y-91426247D01*
X156009524Y-91426247D02*
X156104762Y-91473866D01*
X156104762Y-91473866D02*
X156295238Y-91473866D01*
X156295238Y-91473866D02*
X156390476Y-91426247D01*
X156390476Y-91426247D02*
X156438095Y-91378628D01*
X156438095Y-91378628D02*
X156485714Y-91283390D01*
X141757142Y-91809580D02*
X141709523Y-91857200D01*
X141709523Y-91857200D02*
X141566666Y-91904819D01*
X141566666Y-91904819D02*
X141471428Y-91904819D01*
X141471428Y-91904819D02*
X141328571Y-91857200D01*
X141328571Y-91857200D02*
X141233333Y-91761961D01*
X141233333Y-91761961D02*
X141185714Y-91666723D01*
X141185714Y-91666723D02*
X141138095Y-91476247D01*
X141138095Y-91476247D02*
X141138095Y-91333390D01*
X141138095Y-91333390D02*
X141185714Y-91142914D01*
X141185714Y-91142914D02*
X141233333Y-91047676D01*
X141233333Y-91047676D02*
X141328571Y-90952438D01*
X141328571Y-90952438D02*
X141471428Y-90904819D01*
X141471428Y-90904819D02*
X141566666Y-90904819D01*
X141566666Y-90904819D02*
X141709523Y-90952438D01*
X141709523Y-90952438D02*
X141757142Y-91000057D01*
X142709523Y-91904819D02*
X142138095Y-91904819D01*
X142423809Y-91904819D02*
X142423809Y-90904819D01*
X142423809Y-90904819D02*
X142328571Y-91047676D01*
X142328571Y-91047676D02*
X142233333Y-91142914D01*
X142233333Y-91142914D02*
X142138095Y-91190533D01*
X143328571Y-90904819D02*
X143423809Y-90904819D01*
X143423809Y-90904819D02*
X143519047Y-90952438D01*
X143519047Y-90952438D02*
X143566666Y-91000057D01*
X143566666Y-91000057D02*
X143614285Y-91095295D01*
X143614285Y-91095295D02*
X143661904Y-91285771D01*
X143661904Y-91285771D02*
X143661904Y-91523866D01*
X143661904Y-91523866D02*
X143614285Y-91714342D01*
X143614285Y-91714342D02*
X143566666Y-91809580D01*
X143566666Y-91809580D02*
X143519047Y-91857200D01*
X143519047Y-91857200D02*
X143423809Y-91904819D01*
X143423809Y-91904819D02*
X143328571Y-91904819D01*
X143328571Y-91904819D02*
X143233333Y-91857200D01*
X143233333Y-91857200D02*
X143185714Y-91809580D01*
X143185714Y-91809580D02*
X143138095Y-91714342D01*
X143138095Y-91714342D02*
X143090476Y-91523866D01*
X143090476Y-91523866D02*
X143090476Y-91285771D01*
X143090476Y-91285771D02*
X143138095Y-91095295D01*
X143138095Y-91095295D02*
X143185714Y-91000057D01*
X143185714Y-91000057D02*
X143233333Y-90952438D01*
X143233333Y-90952438D02*
X143328571Y-90904819D01*
X140007142Y-141409580D02*
X139959523Y-141457200D01*
X139959523Y-141457200D02*
X139816666Y-141504819D01*
X139816666Y-141504819D02*
X139721428Y-141504819D01*
X139721428Y-141504819D02*
X139578571Y-141457200D01*
X139578571Y-141457200D02*
X139483333Y-141361961D01*
X139483333Y-141361961D02*
X139435714Y-141266723D01*
X139435714Y-141266723D02*
X139388095Y-141076247D01*
X139388095Y-141076247D02*
X139388095Y-140933390D01*
X139388095Y-140933390D02*
X139435714Y-140742914D01*
X139435714Y-140742914D02*
X139483333Y-140647676D01*
X139483333Y-140647676D02*
X139578571Y-140552438D01*
X139578571Y-140552438D02*
X139721428Y-140504819D01*
X139721428Y-140504819D02*
X139816666Y-140504819D01*
X139816666Y-140504819D02*
X139959523Y-140552438D01*
X139959523Y-140552438D02*
X140007142Y-140600057D01*
X140959523Y-141504819D02*
X140388095Y-141504819D01*
X140673809Y-141504819D02*
X140673809Y-140504819D01*
X140673809Y-140504819D02*
X140578571Y-140647676D01*
X140578571Y-140647676D02*
X140483333Y-140742914D01*
X140483333Y-140742914D02*
X140388095Y-140790533D01*
X141340476Y-140600057D02*
X141388095Y-140552438D01*
X141388095Y-140552438D02*
X141483333Y-140504819D01*
X141483333Y-140504819D02*
X141721428Y-140504819D01*
X141721428Y-140504819D02*
X141816666Y-140552438D01*
X141816666Y-140552438D02*
X141864285Y-140600057D01*
X141864285Y-140600057D02*
X141911904Y-140695295D01*
X141911904Y-140695295D02*
X141911904Y-140790533D01*
X141911904Y-140790533D02*
X141864285Y-140933390D01*
X141864285Y-140933390D02*
X141292857Y-141504819D01*
X141292857Y-141504819D02*
X141911904Y-141504819D01*
X171409580Y-115442857D02*
X171457200Y-115490476D01*
X171457200Y-115490476D02*
X171504819Y-115633333D01*
X171504819Y-115633333D02*
X171504819Y-115728571D01*
X171504819Y-115728571D02*
X171457200Y-115871428D01*
X171457200Y-115871428D02*
X171361961Y-115966666D01*
X171361961Y-115966666D02*
X171266723Y-116014285D01*
X171266723Y-116014285D02*
X171076247Y-116061904D01*
X171076247Y-116061904D02*
X170933390Y-116061904D01*
X170933390Y-116061904D02*
X170742914Y-116014285D01*
X170742914Y-116014285D02*
X170647676Y-115966666D01*
X170647676Y-115966666D02*
X170552438Y-115871428D01*
X170552438Y-115871428D02*
X170504819Y-115728571D01*
X170504819Y-115728571D02*
X170504819Y-115633333D01*
X170504819Y-115633333D02*
X170552438Y-115490476D01*
X170552438Y-115490476D02*
X170600057Y-115442857D01*
X171504819Y-114490476D02*
X171504819Y-115061904D01*
X171504819Y-114776190D02*
X170504819Y-114776190D01*
X170504819Y-114776190D02*
X170647676Y-114871428D01*
X170647676Y-114871428D02*
X170742914Y-114966666D01*
X170742914Y-114966666D02*
X170790533Y-115061904D01*
X170504819Y-114157142D02*
X170504819Y-113538095D01*
X170504819Y-113538095D02*
X170885771Y-113871428D01*
X170885771Y-113871428D02*
X170885771Y-113728571D01*
X170885771Y-113728571D02*
X170933390Y-113633333D01*
X170933390Y-113633333D02*
X170981009Y-113585714D01*
X170981009Y-113585714D02*
X171076247Y-113538095D01*
X171076247Y-113538095D02*
X171314342Y-113538095D01*
X171314342Y-113538095D02*
X171409580Y-113585714D01*
X171409580Y-113585714D02*
X171457200Y-113633333D01*
X171457200Y-113633333D02*
X171504819Y-113728571D01*
X171504819Y-113728571D02*
X171504819Y-114014285D01*
X171504819Y-114014285D02*
X171457200Y-114109523D01*
X171457200Y-114109523D02*
X171409580Y-114157142D01*
X173459580Y-115467857D02*
X173507200Y-115515476D01*
X173507200Y-115515476D02*
X173554819Y-115658333D01*
X173554819Y-115658333D02*
X173554819Y-115753571D01*
X173554819Y-115753571D02*
X173507200Y-115896428D01*
X173507200Y-115896428D02*
X173411961Y-115991666D01*
X173411961Y-115991666D02*
X173316723Y-116039285D01*
X173316723Y-116039285D02*
X173126247Y-116086904D01*
X173126247Y-116086904D02*
X172983390Y-116086904D01*
X172983390Y-116086904D02*
X172792914Y-116039285D01*
X172792914Y-116039285D02*
X172697676Y-115991666D01*
X172697676Y-115991666D02*
X172602438Y-115896428D01*
X172602438Y-115896428D02*
X172554819Y-115753571D01*
X172554819Y-115753571D02*
X172554819Y-115658333D01*
X172554819Y-115658333D02*
X172602438Y-115515476D01*
X172602438Y-115515476D02*
X172650057Y-115467857D01*
X173554819Y-114515476D02*
X173554819Y-115086904D01*
X173554819Y-114801190D02*
X172554819Y-114801190D01*
X172554819Y-114801190D02*
X172697676Y-114896428D01*
X172697676Y-114896428D02*
X172792914Y-114991666D01*
X172792914Y-114991666D02*
X172840533Y-115086904D01*
X172888152Y-113658333D02*
X173554819Y-113658333D01*
X172507200Y-113896428D02*
X173221485Y-114134523D01*
X173221485Y-114134523D02*
X173221485Y-113515476D01*
X157954819Y-106916666D02*
X157478628Y-107249999D01*
X157954819Y-107488094D02*
X156954819Y-107488094D01*
X156954819Y-107488094D02*
X156954819Y-107107142D01*
X156954819Y-107107142D02*
X157002438Y-107011904D01*
X157002438Y-107011904D02*
X157050057Y-106964285D01*
X157050057Y-106964285D02*
X157145295Y-106916666D01*
X157145295Y-106916666D02*
X157288152Y-106916666D01*
X157288152Y-106916666D02*
X157383390Y-106964285D01*
X157383390Y-106964285D02*
X157431009Y-107011904D01*
X157431009Y-107011904D02*
X157478628Y-107107142D01*
X157478628Y-107107142D02*
X157478628Y-107488094D01*
X157954819Y-105964285D02*
X157954819Y-106535713D01*
X157954819Y-106249999D02*
X156954819Y-106249999D01*
X156954819Y-106249999D02*
X157097676Y-106345237D01*
X157097676Y-106345237D02*
X157192914Y-106440475D01*
X157192914Y-106440475D02*
X157240533Y-106535713D01*
X145608333Y-80954819D02*
X145275000Y-80478628D01*
X145036905Y-80954819D02*
X145036905Y-79954819D01*
X145036905Y-79954819D02*
X145417857Y-79954819D01*
X145417857Y-79954819D02*
X145513095Y-80002438D01*
X145513095Y-80002438D02*
X145560714Y-80050057D01*
X145560714Y-80050057D02*
X145608333Y-80145295D01*
X145608333Y-80145295D02*
X145608333Y-80288152D01*
X145608333Y-80288152D02*
X145560714Y-80383390D01*
X145560714Y-80383390D02*
X145513095Y-80431009D01*
X145513095Y-80431009D02*
X145417857Y-80478628D01*
X145417857Y-80478628D02*
X145036905Y-80478628D01*
X145989286Y-80050057D02*
X146036905Y-80002438D01*
X146036905Y-80002438D02*
X146132143Y-79954819D01*
X146132143Y-79954819D02*
X146370238Y-79954819D01*
X146370238Y-79954819D02*
X146465476Y-80002438D01*
X146465476Y-80002438D02*
X146513095Y-80050057D01*
X146513095Y-80050057D02*
X146560714Y-80145295D01*
X146560714Y-80145295D02*
X146560714Y-80240533D01*
X146560714Y-80240533D02*
X146513095Y-80383390D01*
X146513095Y-80383390D02*
X145941667Y-80954819D01*
X145941667Y-80954819D02*
X146560714Y-80954819D01*
X132954819Y-109916666D02*
X132478628Y-110249999D01*
X132954819Y-110488094D02*
X131954819Y-110488094D01*
X131954819Y-110488094D02*
X131954819Y-110107142D01*
X131954819Y-110107142D02*
X132002438Y-110011904D01*
X132002438Y-110011904D02*
X132050057Y-109964285D01*
X132050057Y-109964285D02*
X132145295Y-109916666D01*
X132145295Y-109916666D02*
X132288152Y-109916666D01*
X132288152Y-109916666D02*
X132383390Y-109964285D01*
X132383390Y-109964285D02*
X132431009Y-110011904D01*
X132431009Y-110011904D02*
X132478628Y-110107142D01*
X132478628Y-110107142D02*
X132478628Y-110488094D01*
X131954819Y-109583332D02*
X131954819Y-108964285D01*
X131954819Y-108964285D02*
X132335771Y-109297618D01*
X132335771Y-109297618D02*
X132335771Y-109154761D01*
X132335771Y-109154761D02*
X132383390Y-109059523D01*
X132383390Y-109059523D02*
X132431009Y-109011904D01*
X132431009Y-109011904D02*
X132526247Y-108964285D01*
X132526247Y-108964285D02*
X132764342Y-108964285D01*
X132764342Y-108964285D02*
X132859580Y-109011904D01*
X132859580Y-109011904D02*
X132907200Y-109059523D01*
X132907200Y-109059523D02*
X132954819Y-109154761D01*
X132954819Y-109154761D02*
X132954819Y-109440475D01*
X132954819Y-109440475D02*
X132907200Y-109535713D01*
X132907200Y-109535713D02*
X132859580Y-109583332D01*
X165204819Y-103891666D02*
X164728628Y-104224999D01*
X165204819Y-104463094D02*
X164204819Y-104463094D01*
X164204819Y-104463094D02*
X164204819Y-104082142D01*
X164204819Y-104082142D02*
X164252438Y-103986904D01*
X164252438Y-103986904D02*
X164300057Y-103939285D01*
X164300057Y-103939285D02*
X164395295Y-103891666D01*
X164395295Y-103891666D02*
X164538152Y-103891666D01*
X164538152Y-103891666D02*
X164633390Y-103939285D01*
X164633390Y-103939285D02*
X164681009Y-103986904D01*
X164681009Y-103986904D02*
X164728628Y-104082142D01*
X164728628Y-104082142D02*
X164728628Y-104463094D01*
X164538152Y-103034523D02*
X165204819Y-103034523D01*
X164157200Y-103272618D02*
X164871485Y-103510713D01*
X164871485Y-103510713D02*
X164871485Y-102891666D01*
X151433333Y-133004819D02*
X151100000Y-132528628D01*
X150861905Y-133004819D02*
X150861905Y-132004819D01*
X150861905Y-132004819D02*
X151242857Y-132004819D01*
X151242857Y-132004819D02*
X151338095Y-132052438D01*
X151338095Y-132052438D02*
X151385714Y-132100057D01*
X151385714Y-132100057D02*
X151433333Y-132195295D01*
X151433333Y-132195295D02*
X151433333Y-132338152D01*
X151433333Y-132338152D02*
X151385714Y-132433390D01*
X151385714Y-132433390D02*
X151338095Y-132481009D01*
X151338095Y-132481009D02*
X151242857Y-132528628D01*
X151242857Y-132528628D02*
X150861905Y-132528628D01*
X152338095Y-132004819D02*
X151861905Y-132004819D01*
X151861905Y-132004819D02*
X151814286Y-132481009D01*
X151814286Y-132481009D02*
X151861905Y-132433390D01*
X151861905Y-132433390D02*
X151957143Y-132385771D01*
X151957143Y-132385771D02*
X152195238Y-132385771D01*
X152195238Y-132385771D02*
X152290476Y-132433390D01*
X152290476Y-132433390D02*
X152338095Y-132481009D01*
X152338095Y-132481009D02*
X152385714Y-132576247D01*
X152385714Y-132576247D02*
X152385714Y-132814342D01*
X152385714Y-132814342D02*
X152338095Y-132909580D01*
X152338095Y-132909580D02*
X152290476Y-132957200D01*
X152290476Y-132957200D02*
X152195238Y-133004819D01*
X152195238Y-133004819D02*
X151957143Y-133004819D01*
X151957143Y-133004819D02*
X151861905Y-132957200D01*
X151861905Y-132957200D02*
X151814286Y-132909580D01*
X161833333Y-95204819D02*
X161500000Y-94728628D01*
X161261905Y-95204819D02*
X161261905Y-94204819D01*
X161261905Y-94204819D02*
X161642857Y-94204819D01*
X161642857Y-94204819D02*
X161738095Y-94252438D01*
X161738095Y-94252438D02*
X161785714Y-94300057D01*
X161785714Y-94300057D02*
X161833333Y-94395295D01*
X161833333Y-94395295D02*
X161833333Y-94538152D01*
X161833333Y-94538152D02*
X161785714Y-94633390D01*
X161785714Y-94633390D02*
X161738095Y-94681009D01*
X161738095Y-94681009D02*
X161642857Y-94728628D01*
X161642857Y-94728628D02*
X161261905Y-94728628D01*
X162690476Y-94204819D02*
X162500000Y-94204819D01*
X162500000Y-94204819D02*
X162404762Y-94252438D01*
X162404762Y-94252438D02*
X162357143Y-94300057D01*
X162357143Y-94300057D02*
X162261905Y-94442914D01*
X162261905Y-94442914D02*
X162214286Y-94633390D01*
X162214286Y-94633390D02*
X162214286Y-95014342D01*
X162214286Y-95014342D02*
X162261905Y-95109580D01*
X162261905Y-95109580D02*
X162309524Y-95157200D01*
X162309524Y-95157200D02*
X162404762Y-95204819D01*
X162404762Y-95204819D02*
X162595238Y-95204819D01*
X162595238Y-95204819D02*
X162690476Y-95157200D01*
X162690476Y-95157200D02*
X162738095Y-95109580D01*
X162738095Y-95109580D02*
X162785714Y-95014342D01*
X162785714Y-95014342D02*
X162785714Y-94776247D01*
X162785714Y-94776247D02*
X162738095Y-94681009D01*
X162738095Y-94681009D02*
X162690476Y-94633390D01*
X162690476Y-94633390D02*
X162595238Y-94585771D01*
X162595238Y-94585771D02*
X162404762Y-94585771D01*
X162404762Y-94585771D02*
X162309524Y-94633390D01*
X162309524Y-94633390D02*
X162261905Y-94681009D01*
X162261905Y-94681009D02*
X162214286Y-94776247D01*
X161833333Y-97204819D02*
X161500000Y-96728628D01*
X161261905Y-97204819D02*
X161261905Y-96204819D01*
X161261905Y-96204819D02*
X161642857Y-96204819D01*
X161642857Y-96204819D02*
X161738095Y-96252438D01*
X161738095Y-96252438D02*
X161785714Y-96300057D01*
X161785714Y-96300057D02*
X161833333Y-96395295D01*
X161833333Y-96395295D02*
X161833333Y-96538152D01*
X161833333Y-96538152D02*
X161785714Y-96633390D01*
X161785714Y-96633390D02*
X161738095Y-96681009D01*
X161738095Y-96681009D02*
X161642857Y-96728628D01*
X161642857Y-96728628D02*
X161261905Y-96728628D01*
X162166667Y-96204819D02*
X162833333Y-96204819D01*
X162833333Y-96204819D02*
X162404762Y-97204819D01*
X126454819Y-114916666D02*
X125978628Y-115249999D01*
X126454819Y-115488094D02*
X125454819Y-115488094D01*
X125454819Y-115488094D02*
X125454819Y-115107142D01*
X125454819Y-115107142D02*
X125502438Y-115011904D01*
X125502438Y-115011904D02*
X125550057Y-114964285D01*
X125550057Y-114964285D02*
X125645295Y-114916666D01*
X125645295Y-114916666D02*
X125788152Y-114916666D01*
X125788152Y-114916666D02*
X125883390Y-114964285D01*
X125883390Y-114964285D02*
X125931009Y-115011904D01*
X125931009Y-115011904D02*
X125978628Y-115107142D01*
X125978628Y-115107142D02*
X125978628Y-115488094D01*
X125883390Y-114345237D02*
X125835771Y-114440475D01*
X125835771Y-114440475D02*
X125788152Y-114488094D01*
X125788152Y-114488094D02*
X125692914Y-114535713D01*
X125692914Y-114535713D02*
X125645295Y-114535713D01*
X125645295Y-114535713D02*
X125550057Y-114488094D01*
X125550057Y-114488094D02*
X125502438Y-114440475D01*
X125502438Y-114440475D02*
X125454819Y-114345237D01*
X125454819Y-114345237D02*
X125454819Y-114154761D01*
X125454819Y-114154761D02*
X125502438Y-114059523D01*
X125502438Y-114059523D02*
X125550057Y-114011904D01*
X125550057Y-114011904D02*
X125645295Y-113964285D01*
X125645295Y-113964285D02*
X125692914Y-113964285D01*
X125692914Y-113964285D02*
X125788152Y-114011904D01*
X125788152Y-114011904D02*
X125835771Y-114059523D01*
X125835771Y-114059523D02*
X125883390Y-114154761D01*
X125883390Y-114154761D02*
X125883390Y-114345237D01*
X125883390Y-114345237D02*
X125931009Y-114440475D01*
X125931009Y-114440475D02*
X125978628Y-114488094D01*
X125978628Y-114488094D02*
X126073866Y-114535713D01*
X126073866Y-114535713D02*
X126264342Y-114535713D01*
X126264342Y-114535713D02*
X126359580Y-114488094D01*
X126359580Y-114488094D02*
X126407200Y-114440475D01*
X126407200Y-114440475D02*
X126454819Y-114345237D01*
X126454819Y-114345237D02*
X126454819Y-114154761D01*
X126454819Y-114154761D02*
X126407200Y-114059523D01*
X126407200Y-114059523D02*
X126359580Y-114011904D01*
X126359580Y-114011904D02*
X126264342Y-113964285D01*
X126264342Y-113964285D02*
X126073866Y-113964285D01*
X126073866Y-113964285D02*
X125978628Y-114011904D01*
X125978628Y-114011904D02*
X125931009Y-114059523D01*
X125931009Y-114059523D02*
X125883390Y-114154761D01*
X124454819Y-114916666D02*
X123978628Y-115249999D01*
X124454819Y-115488094D02*
X123454819Y-115488094D01*
X123454819Y-115488094D02*
X123454819Y-115107142D01*
X123454819Y-115107142D02*
X123502438Y-115011904D01*
X123502438Y-115011904D02*
X123550057Y-114964285D01*
X123550057Y-114964285D02*
X123645295Y-114916666D01*
X123645295Y-114916666D02*
X123788152Y-114916666D01*
X123788152Y-114916666D02*
X123883390Y-114964285D01*
X123883390Y-114964285D02*
X123931009Y-115011904D01*
X123931009Y-115011904D02*
X123978628Y-115107142D01*
X123978628Y-115107142D02*
X123978628Y-115488094D01*
X124454819Y-114440475D02*
X124454819Y-114249999D01*
X124454819Y-114249999D02*
X124407200Y-114154761D01*
X124407200Y-114154761D02*
X124359580Y-114107142D01*
X124359580Y-114107142D02*
X124216723Y-114011904D01*
X124216723Y-114011904D02*
X124026247Y-113964285D01*
X124026247Y-113964285D02*
X123645295Y-113964285D01*
X123645295Y-113964285D02*
X123550057Y-114011904D01*
X123550057Y-114011904D02*
X123502438Y-114059523D01*
X123502438Y-114059523D02*
X123454819Y-114154761D01*
X123454819Y-114154761D02*
X123454819Y-114345237D01*
X123454819Y-114345237D02*
X123502438Y-114440475D01*
X123502438Y-114440475D02*
X123550057Y-114488094D01*
X123550057Y-114488094D02*
X123645295Y-114535713D01*
X123645295Y-114535713D02*
X123883390Y-114535713D01*
X123883390Y-114535713D02*
X123978628Y-114488094D01*
X123978628Y-114488094D02*
X124026247Y-114440475D01*
X124026247Y-114440475D02*
X124073866Y-114345237D01*
X124073866Y-114345237D02*
X124073866Y-114154761D01*
X124073866Y-114154761D02*
X124026247Y-114059523D01*
X124026247Y-114059523D02*
X123978628Y-114011904D01*
X123978628Y-114011904D02*
X123883390Y-113964285D01*
X139607142Y-74454819D02*
X139273809Y-73978628D01*
X139035714Y-74454819D02*
X139035714Y-73454819D01*
X139035714Y-73454819D02*
X139416666Y-73454819D01*
X139416666Y-73454819D02*
X139511904Y-73502438D01*
X139511904Y-73502438D02*
X139559523Y-73550057D01*
X139559523Y-73550057D02*
X139607142Y-73645295D01*
X139607142Y-73645295D02*
X139607142Y-73788152D01*
X139607142Y-73788152D02*
X139559523Y-73883390D01*
X139559523Y-73883390D02*
X139511904Y-73931009D01*
X139511904Y-73931009D02*
X139416666Y-73978628D01*
X139416666Y-73978628D02*
X139035714Y-73978628D01*
X140559523Y-74454819D02*
X139988095Y-74454819D01*
X140273809Y-74454819D02*
X140273809Y-73454819D01*
X140273809Y-73454819D02*
X140178571Y-73597676D01*
X140178571Y-73597676D02*
X140083333Y-73692914D01*
X140083333Y-73692914D02*
X139988095Y-73740533D01*
X141178571Y-73454819D02*
X141273809Y-73454819D01*
X141273809Y-73454819D02*
X141369047Y-73502438D01*
X141369047Y-73502438D02*
X141416666Y-73550057D01*
X141416666Y-73550057D02*
X141464285Y-73645295D01*
X141464285Y-73645295D02*
X141511904Y-73835771D01*
X141511904Y-73835771D02*
X141511904Y-74073866D01*
X141511904Y-74073866D02*
X141464285Y-74264342D01*
X141464285Y-74264342D02*
X141416666Y-74359580D01*
X141416666Y-74359580D02*
X141369047Y-74407200D01*
X141369047Y-74407200D02*
X141273809Y-74454819D01*
X141273809Y-74454819D02*
X141178571Y-74454819D01*
X141178571Y-74454819D02*
X141083333Y-74407200D01*
X141083333Y-74407200D02*
X141035714Y-74359580D01*
X141035714Y-74359580D02*
X140988095Y-74264342D01*
X140988095Y-74264342D02*
X140940476Y-74073866D01*
X140940476Y-74073866D02*
X140940476Y-73835771D01*
X140940476Y-73835771D02*
X140988095Y-73645295D01*
X140988095Y-73645295D02*
X141035714Y-73550057D01*
X141035714Y-73550057D02*
X141083333Y-73502438D01*
X141083333Y-73502438D02*
X141178571Y-73454819D01*
X156807142Y-139454819D02*
X156473809Y-138978628D01*
X156235714Y-139454819D02*
X156235714Y-138454819D01*
X156235714Y-138454819D02*
X156616666Y-138454819D01*
X156616666Y-138454819D02*
X156711904Y-138502438D01*
X156711904Y-138502438D02*
X156759523Y-138550057D01*
X156759523Y-138550057D02*
X156807142Y-138645295D01*
X156807142Y-138645295D02*
X156807142Y-138788152D01*
X156807142Y-138788152D02*
X156759523Y-138883390D01*
X156759523Y-138883390D02*
X156711904Y-138931009D01*
X156711904Y-138931009D02*
X156616666Y-138978628D01*
X156616666Y-138978628D02*
X156235714Y-138978628D01*
X157759523Y-139454819D02*
X157188095Y-139454819D01*
X157473809Y-139454819D02*
X157473809Y-138454819D01*
X157473809Y-138454819D02*
X157378571Y-138597676D01*
X157378571Y-138597676D02*
X157283333Y-138692914D01*
X157283333Y-138692914D02*
X157188095Y-138740533D01*
X158711904Y-139454819D02*
X158140476Y-139454819D01*
X158426190Y-139454819D02*
X158426190Y-138454819D01*
X158426190Y-138454819D02*
X158330952Y-138597676D01*
X158330952Y-138597676D02*
X158235714Y-138692914D01*
X158235714Y-138692914D02*
X158140476Y-138740533D01*
X139607142Y-72454819D02*
X139273809Y-71978628D01*
X139035714Y-72454819D02*
X139035714Y-71454819D01*
X139035714Y-71454819D02*
X139416666Y-71454819D01*
X139416666Y-71454819D02*
X139511904Y-71502438D01*
X139511904Y-71502438D02*
X139559523Y-71550057D01*
X139559523Y-71550057D02*
X139607142Y-71645295D01*
X139607142Y-71645295D02*
X139607142Y-71788152D01*
X139607142Y-71788152D02*
X139559523Y-71883390D01*
X139559523Y-71883390D02*
X139511904Y-71931009D01*
X139511904Y-71931009D02*
X139416666Y-71978628D01*
X139416666Y-71978628D02*
X139035714Y-71978628D01*
X140559523Y-72454819D02*
X139988095Y-72454819D01*
X140273809Y-72454819D02*
X140273809Y-71454819D01*
X140273809Y-71454819D02*
X140178571Y-71597676D01*
X140178571Y-71597676D02*
X140083333Y-71692914D01*
X140083333Y-71692914D02*
X139988095Y-71740533D01*
X140940476Y-71550057D02*
X140988095Y-71502438D01*
X140988095Y-71502438D02*
X141083333Y-71454819D01*
X141083333Y-71454819D02*
X141321428Y-71454819D01*
X141321428Y-71454819D02*
X141416666Y-71502438D01*
X141416666Y-71502438D02*
X141464285Y-71550057D01*
X141464285Y-71550057D02*
X141511904Y-71645295D01*
X141511904Y-71645295D02*
X141511904Y-71740533D01*
X141511904Y-71740533D02*
X141464285Y-71883390D01*
X141464285Y-71883390D02*
X140892857Y-72454819D01*
X140892857Y-72454819D02*
X141511904Y-72454819D01*
X156807142Y-141504819D02*
X156473809Y-141028628D01*
X156235714Y-141504819D02*
X156235714Y-140504819D01*
X156235714Y-140504819D02*
X156616666Y-140504819D01*
X156616666Y-140504819D02*
X156711904Y-140552438D01*
X156711904Y-140552438D02*
X156759523Y-140600057D01*
X156759523Y-140600057D02*
X156807142Y-140695295D01*
X156807142Y-140695295D02*
X156807142Y-140838152D01*
X156807142Y-140838152D02*
X156759523Y-140933390D01*
X156759523Y-140933390D02*
X156711904Y-140981009D01*
X156711904Y-140981009D02*
X156616666Y-141028628D01*
X156616666Y-141028628D02*
X156235714Y-141028628D01*
X157759523Y-141504819D02*
X157188095Y-141504819D01*
X157473809Y-141504819D02*
X157473809Y-140504819D01*
X157473809Y-140504819D02*
X157378571Y-140647676D01*
X157378571Y-140647676D02*
X157283333Y-140742914D01*
X157283333Y-140742914D02*
X157188095Y-140790533D01*
X158092857Y-140504819D02*
X158711904Y-140504819D01*
X158711904Y-140504819D02*
X158378571Y-140885771D01*
X158378571Y-140885771D02*
X158521428Y-140885771D01*
X158521428Y-140885771D02*
X158616666Y-140933390D01*
X158616666Y-140933390D02*
X158664285Y-140981009D01*
X158664285Y-140981009D02*
X158711904Y-141076247D01*
X158711904Y-141076247D02*
X158711904Y-141314342D01*
X158711904Y-141314342D02*
X158664285Y-141409580D01*
X158664285Y-141409580D02*
X158616666Y-141457200D01*
X158616666Y-141457200D02*
X158521428Y-141504819D01*
X158521428Y-141504819D02*
X158235714Y-141504819D01*
X158235714Y-141504819D02*
X158140476Y-141457200D01*
X158140476Y-141457200D02*
X158092857Y-141409580D01*
X171304819Y-98942857D02*
X170828628Y-99276190D01*
X171304819Y-99514285D02*
X170304819Y-99514285D01*
X170304819Y-99514285D02*
X170304819Y-99133333D01*
X170304819Y-99133333D02*
X170352438Y-99038095D01*
X170352438Y-99038095D02*
X170400057Y-98990476D01*
X170400057Y-98990476D02*
X170495295Y-98942857D01*
X170495295Y-98942857D02*
X170638152Y-98942857D01*
X170638152Y-98942857D02*
X170733390Y-98990476D01*
X170733390Y-98990476D02*
X170781009Y-99038095D01*
X170781009Y-99038095D02*
X170828628Y-99133333D01*
X170828628Y-99133333D02*
X170828628Y-99514285D01*
X171304819Y-97990476D02*
X171304819Y-98561904D01*
X171304819Y-98276190D02*
X170304819Y-98276190D01*
X170304819Y-98276190D02*
X170447676Y-98371428D01*
X170447676Y-98371428D02*
X170542914Y-98466666D01*
X170542914Y-98466666D02*
X170590533Y-98561904D01*
X170638152Y-97133333D02*
X171304819Y-97133333D01*
X170257200Y-97371428D02*
X170971485Y-97609523D01*
X170971485Y-97609523D02*
X170971485Y-96990476D01*
X173354819Y-98942857D02*
X172878628Y-99276190D01*
X173354819Y-99514285D02*
X172354819Y-99514285D01*
X172354819Y-99514285D02*
X172354819Y-99133333D01*
X172354819Y-99133333D02*
X172402438Y-99038095D01*
X172402438Y-99038095D02*
X172450057Y-98990476D01*
X172450057Y-98990476D02*
X172545295Y-98942857D01*
X172545295Y-98942857D02*
X172688152Y-98942857D01*
X172688152Y-98942857D02*
X172783390Y-98990476D01*
X172783390Y-98990476D02*
X172831009Y-99038095D01*
X172831009Y-99038095D02*
X172878628Y-99133333D01*
X172878628Y-99133333D02*
X172878628Y-99514285D01*
X173354819Y-97990476D02*
X173354819Y-98561904D01*
X173354819Y-98276190D02*
X172354819Y-98276190D01*
X172354819Y-98276190D02*
X172497676Y-98371428D01*
X172497676Y-98371428D02*
X172592914Y-98466666D01*
X172592914Y-98466666D02*
X172640533Y-98561904D01*
X172354819Y-97085714D02*
X172354819Y-97561904D01*
X172354819Y-97561904D02*
X172831009Y-97609523D01*
X172831009Y-97609523D02*
X172783390Y-97561904D01*
X172783390Y-97561904D02*
X172735771Y-97466666D01*
X172735771Y-97466666D02*
X172735771Y-97228571D01*
X172735771Y-97228571D02*
X172783390Y-97133333D01*
X172783390Y-97133333D02*
X172831009Y-97085714D01*
X172831009Y-97085714D02*
X172926247Y-97038095D01*
X172926247Y-97038095D02*
X173164342Y-97038095D01*
X173164342Y-97038095D02*
X173259580Y-97085714D01*
X173259580Y-97085714D02*
X173307200Y-97133333D01*
X173307200Y-97133333D02*
X173354819Y-97228571D01*
X173354819Y-97228571D02*
X173354819Y-97466666D01*
X173354819Y-97466666D02*
X173307200Y-97561904D01*
X173307200Y-97561904D02*
X173259580Y-97609523D01*
X128238095Y-103954819D02*
X128238095Y-104764342D01*
X128238095Y-104764342D02*
X128285714Y-104859580D01*
X128285714Y-104859580D02*
X128333333Y-104907200D01*
X128333333Y-104907200D02*
X128428571Y-104954819D01*
X128428571Y-104954819D02*
X128619047Y-104954819D01*
X128619047Y-104954819D02*
X128714285Y-104907200D01*
X128714285Y-104907200D02*
X128761904Y-104859580D01*
X128761904Y-104859580D02*
X128809523Y-104764342D01*
X128809523Y-104764342D02*
X128809523Y-103954819D01*
X129809523Y-104954819D02*
X129238095Y-104954819D01*
X129523809Y-104954819D02*
X129523809Y-103954819D01*
X129523809Y-103954819D02*
X129428571Y-104097676D01*
X129428571Y-104097676D02*
X129333333Y-104192914D01*
X129333333Y-104192914D02*
X129238095Y-104240533D01*
X131238095Y-121954819D02*
X131238095Y-122764342D01*
X131238095Y-122764342D02*
X131285714Y-122859580D01*
X131285714Y-122859580D02*
X131333333Y-122907200D01*
X131333333Y-122907200D02*
X131428571Y-122954819D01*
X131428571Y-122954819D02*
X131619047Y-122954819D01*
X131619047Y-122954819D02*
X131714285Y-122907200D01*
X131714285Y-122907200D02*
X131761904Y-122859580D01*
X131761904Y-122859580D02*
X131809523Y-122764342D01*
X131809523Y-122764342D02*
X131809523Y-121954819D01*
X132238095Y-122050057D02*
X132285714Y-122002438D01*
X132285714Y-122002438D02*
X132380952Y-121954819D01*
X132380952Y-121954819D02*
X132619047Y-121954819D01*
X132619047Y-121954819D02*
X132714285Y-122002438D01*
X132714285Y-122002438D02*
X132761904Y-122050057D01*
X132761904Y-122050057D02*
X132809523Y-122145295D01*
X132809523Y-122145295D02*
X132809523Y-122240533D01*
X132809523Y-122240533D02*
X132761904Y-122383390D01*
X132761904Y-122383390D02*
X132190476Y-122954819D01*
X132190476Y-122954819D02*
X132809523Y-122954819D01*
X150738095Y-76454819D02*
X150738095Y-77264342D01*
X150738095Y-77264342D02*
X150785714Y-77359580D01*
X150785714Y-77359580D02*
X150833333Y-77407200D01*
X150833333Y-77407200D02*
X150928571Y-77454819D01*
X150928571Y-77454819D02*
X151119047Y-77454819D01*
X151119047Y-77454819D02*
X151214285Y-77407200D01*
X151214285Y-77407200D02*
X151261904Y-77359580D01*
X151261904Y-77359580D02*
X151309523Y-77264342D01*
X151309523Y-77264342D02*
X151309523Y-76454819D01*
X151690476Y-76454819D02*
X152309523Y-76454819D01*
X152309523Y-76454819D02*
X151976190Y-76835771D01*
X151976190Y-76835771D02*
X152119047Y-76835771D01*
X152119047Y-76835771D02*
X152214285Y-76883390D01*
X152214285Y-76883390D02*
X152261904Y-76931009D01*
X152261904Y-76931009D02*
X152309523Y-77026247D01*
X152309523Y-77026247D02*
X152309523Y-77264342D01*
X152309523Y-77264342D02*
X152261904Y-77359580D01*
X152261904Y-77359580D02*
X152214285Y-77407200D01*
X152214285Y-77407200D02*
X152119047Y-77454819D01*
X152119047Y-77454819D02*
X151833333Y-77454819D01*
X151833333Y-77454819D02*
X151738095Y-77407200D01*
X151738095Y-77407200D02*
X151690476Y-77359580D01*
X145238095Y-135954819D02*
X145238095Y-136764342D01*
X145238095Y-136764342D02*
X145285714Y-136859580D01*
X145285714Y-136859580D02*
X145333333Y-136907200D01*
X145333333Y-136907200D02*
X145428571Y-136954819D01*
X145428571Y-136954819D02*
X145619047Y-136954819D01*
X145619047Y-136954819D02*
X145714285Y-136907200D01*
X145714285Y-136907200D02*
X145761904Y-136859580D01*
X145761904Y-136859580D02*
X145809523Y-136764342D01*
X145809523Y-136764342D02*
X145809523Y-135954819D01*
X146714285Y-136288152D02*
X146714285Y-136954819D01*
X146476190Y-135907200D02*
X146238095Y-136621485D01*
X146238095Y-136621485D02*
X146857142Y-136621485D01*
X167488095Y-108954819D02*
X167488095Y-109764342D01*
X167488095Y-109764342D02*
X167535714Y-109859580D01*
X167535714Y-109859580D02*
X167583333Y-109907200D01*
X167583333Y-109907200D02*
X167678571Y-109954819D01*
X167678571Y-109954819D02*
X167869047Y-109954819D01*
X167869047Y-109954819D02*
X167964285Y-109907200D01*
X167964285Y-109907200D02*
X168011904Y-109859580D01*
X168011904Y-109859580D02*
X168059523Y-109764342D01*
X168059523Y-109764342D02*
X168059523Y-108954819D01*
X169011904Y-108954819D02*
X168535714Y-108954819D01*
X168535714Y-108954819D02*
X168488095Y-109431009D01*
X168488095Y-109431009D02*
X168535714Y-109383390D01*
X168535714Y-109383390D02*
X168630952Y-109335771D01*
X168630952Y-109335771D02*
X168869047Y-109335771D01*
X168869047Y-109335771D02*
X168964285Y-109383390D01*
X168964285Y-109383390D02*
X169011904Y-109431009D01*
X169011904Y-109431009D02*
X169059523Y-109526247D01*
X169059523Y-109526247D02*
X169059523Y-109764342D01*
X169059523Y-109764342D02*
X169011904Y-109859580D01*
X169011904Y-109859580D02*
X168964285Y-109907200D01*
X168964285Y-109907200D02*
X168869047Y-109954819D01*
X168869047Y-109954819D02*
X168630952Y-109954819D01*
X168630952Y-109954819D02*
X168535714Y-109907200D01*
X168535714Y-109907200D02*
X168488095Y-109859580D01*
X143488095Y-110454819D02*
X143488095Y-111264342D01*
X143488095Y-111264342D02*
X143535714Y-111359580D01*
X143535714Y-111359580D02*
X143583333Y-111407200D01*
X143583333Y-111407200D02*
X143678571Y-111454819D01*
X143678571Y-111454819D02*
X143869047Y-111454819D01*
X143869047Y-111454819D02*
X143964285Y-111407200D01*
X143964285Y-111407200D02*
X144011904Y-111359580D01*
X144011904Y-111359580D02*
X144059523Y-111264342D01*
X144059523Y-111264342D02*
X144059523Y-110454819D01*
X144964285Y-110454819D02*
X144773809Y-110454819D01*
X144773809Y-110454819D02*
X144678571Y-110502438D01*
X144678571Y-110502438D02*
X144630952Y-110550057D01*
X144630952Y-110550057D02*
X144535714Y-110692914D01*
X144535714Y-110692914D02*
X144488095Y-110883390D01*
X144488095Y-110883390D02*
X144488095Y-111264342D01*
X144488095Y-111264342D02*
X144535714Y-111359580D01*
X144535714Y-111359580D02*
X144583333Y-111407200D01*
X144583333Y-111407200D02*
X144678571Y-111454819D01*
X144678571Y-111454819D02*
X144869047Y-111454819D01*
X144869047Y-111454819D02*
X144964285Y-111407200D01*
X144964285Y-111407200D02*
X145011904Y-111359580D01*
X145011904Y-111359580D02*
X145059523Y-111264342D01*
X145059523Y-111264342D02*
X145059523Y-111026247D01*
X145059523Y-111026247D02*
X145011904Y-110931009D01*
X145011904Y-110931009D02*
X144964285Y-110883390D01*
X144964285Y-110883390D02*
X144869047Y-110835771D01*
X144869047Y-110835771D02*
X144678571Y-110835771D01*
X144678571Y-110835771D02*
X144583333Y-110883390D01*
X144583333Y-110883390D02*
X144535714Y-110931009D01*
X144535714Y-110931009D02*
X144488095Y-111026247D01*
X148923809Y-91978628D02*
X148923809Y-92454819D01*
X148590476Y-91454819D02*
X148923809Y-91978628D01*
X148923809Y-91978628D02*
X149257142Y-91454819D01*
X150114285Y-92454819D02*
X149542857Y-92454819D01*
X149828571Y-92454819D02*
X149828571Y-91454819D01*
X149828571Y-91454819D02*
X149733333Y-91597676D01*
X149733333Y-91597676D02*
X149638095Y-91692914D01*
X149638095Y-91692914D02*
X149542857Y-91740533D01*
X140109580Y-110142857D02*
X140157200Y-110190476D01*
X140157200Y-110190476D02*
X140204819Y-110333333D01*
X140204819Y-110333333D02*
X140204819Y-110428571D01*
X140204819Y-110428571D02*
X140157200Y-110571428D01*
X140157200Y-110571428D02*
X140061961Y-110666666D01*
X140061961Y-110666666D02*
X139966723Y-110714285D01*
X139966723Y-110714285D02*
X139776247Y-110761904D01*
X139776247Y-110761904D02*
X139633390Y-110761904D01*
X139633390Y-110761904D02*
X139442914Y-110714285D01*
X139442914Y-110714285D02*
X139347676Y-110666666D01*
X139347676Y-110666666D02*
X139252438Y-110571428D01*
X139252438Y-110571428D02*
X139204819Y-110428571D01*
X139204819Y-110428571D02*
X139204819Y-110333333D01*
X139204819Y-110333333D02*
X139252438Y-110190476D01*
X139252438Y-110190476D02*
X139300057Y-110142857D01*
X140204819Y-109190476D02*
X140204819Y-109761904D01*
X140204819Y-109476190D02*
X139204819Y-109476190D01*
X139204819Y-109476190D02*
X139347676Y-109571428D01*
X139347676Y-109571428D02*
X139442914Y-109666666D01*
X139442914Y-109666666D02*
X139490533Y-109761904D01*
X139204819Y-108285714D02*
X139204819Y-108761904D01*
X139204819Y-108761904D02*
X139681009Y-108809523D01*
X139681009Y-108809523D02*
X139633390Y-108761904D01*
X139633390Y-108761904D02*
X139585771Y-108666666D01*
X139585771Y-108666666D02*
X139585771Y-108428571D01*
X139585771Y-108428571D02*
X139633390Y-108333333D01*
X139633390Y-108333333D02*
X139681009Y-108285714D01*
X139681009Y-108285714D02*
X139776247Y-108238095D01*
X139776247Y-108238095D02*
X140014342Y-108238095D01*
X140014342Y-108238095D02*
X140109580Y-108285714D01*
X140109580Y-108285714D02*
X140157200Y-108333333D01*
X140157200Y-108333333D02*
X140204819Y-108428571D01*
X140204819Y-108428571D02*
X140204819Y-108666666D01*
X140204819Y-108666666D02*
X140157200Y-108761904D01*
X140157200Y-108761904D02*
X140109580Y-108809523D01*
X151607142Y-115859580D02*
X151559523Y-115907200D01*
X151559523Y-115907200D02*
X151416666Y-115954819D01*
X151416666Y-115954819D02*
X151321428Y-115954819D01*
X151321428Y-115954819D02*
X151178571Y-115907200D01*
X151178571Y-115907200D02*
X151083333Y-115811961D01*
X151083333Y-115811961D02*
X151035714Y-115716723D01*
X151035714Y-115716723D02*
X150988095Y-115526247D01*
X150988095Y-115526247D02*
X150988095Y-115383390D01*
X150988095Y-115383390D02*
X151035714Y-115192914D01*
X151035714Y-115192914D02*
X151083333Y-115097676D01*
X151083333Y-115097676D02*
X151178571Y-115002438D01*
X151178571Y-115002438D02*
X151321428Y-114954819D01*
X151321428Y-114954819D02*
X151416666Y-114954819D01*
X151416666Y-114954819D02*
X151559523Y-115002438D01*
X151559523Y-115002438D02*
X151607142Y-115050057D01*
X152559523Y-115954819D02*
X151988095Y-115954819D01*
X152273809Y-115954819D02*
X152273809Y-114954819D01*
X152273809Y-114954819D02*
X152178571Y-115097676D01*
X152178571Y-115097676D02*
X152083333Y-115192914D01*
X152083333Y-115192914D02*
X151988095Y-115240533D01*
X153416666Y-114954819D02*
X153226190Y-114954819D01*
X153226190Y-114954819D02*
X153130952Y-115002438D01*
X153130952Y-115002438D02*
X153083333Y-115050057D01*
X153083333Y-115050057D02*
X152988095Y-115192914D01*
X152988095Y-115192914D02*
X152940476Y-115383390D01*
X152940476Y-115383390D02*
X152940476Y-115764342D01*
X152940476Y-115764342D02*
X152988095Y-115859580D01*
X152988095Y-115859580D02*
X153035714Y-115907200D01*
X153035714Y-115907200D02*
X153130952Y-115954819D01*
X153130952Y-115954819D02*
X153321428Y-115954819D01*
X153321428Y-115954819D02*
X153416666Y-115907200D01*
X153416666Y-115907200D02*
X153464285Y-115859580D01*
X153464285Y-115859580D02*
X153511904Y-115764342D01*
X153511904Y-115764342D02*
X153511904Y-115526247D01*
X153511904Y-115526247D02*
X153464285Y-115431009D01*
X153464285Y-115431009D02*
X153416666Y-115383390D01*
X153416666Y-115383390D02*
X153321428Y-115335771D01*
X153321428Y-115335771D02*
X153130952Y-115335771D01*
X153130952Y-115335771D02*
X153035714Y-115383390D01*
X153035714Y-115383390D02*
X152988095Y-115431009D01*
X152988095Y-115431009D02*
X152940476Y-115526247D01*
X155859580Y-107892857D02*
X155907200Y-107940476D01*
X155907200Y-107940476D02*
X155954819Y-108083333D01*
X155954819Y-108083333D02*
X155954819Y-108178571D01*
X155954819Y-108178571D02*
X155907200Y-108321428D01*
X155907200Y-108321428D02*
X155811961Y-108416666D01*
X155811961Y-108416666D02*
X155716723Y-108464285D01*
X155716723Y-108464285D02*
X155526247Y-108511904D01*
X155526247Y-108511904D02*
X155383390Y-108511904D01*
X155383390Y-108511904D02*
X155192914Y-108464285D01*
X155192914Y-108464285D02*
X155097676Y-108416666D01*
X155097676Y-108416666D02*
X155002438Y-108321428D01*
X155002438Y-108321428D02*
X154954819Y-108178571D01*
X154954819Y-108178571D02*
X154954819Y-108083333D01*
X154954819Y-108083333D02*
X155002438Y-107940476D01*
X155002438Y-107940476D02*
X155050057Y-107892857D01*
X155954819Y-106940476D02*
X155954819Y-107511904D01*
X155954819Y-107226190D02*
X154954819Y-107226190D01*
X154954819Y-107226190D02*
X155097676Y-107321428D01*
X155097676Y-107321428D02*
X155192914Y-107416666D01*
X155192914Y-107416666D02*
X155240533Y-107511904D01*
X154954819Y-106607142D02*
X154954819Y-105940476D01*
X154954819Y-105940476D02*
X155954819Y-106369047D01*
X142757142Y-99859580D02*
X142709523Y-99907200D01*
X142709523Y-99907200D02*
X142566666Y-99954819D01*
X142566666Y-99954819D02*
X142471428Y-99954819D01*
X142471428Y-99954819D02*
X142328571Y-99907200D01*
X142328571Y-99907200D02*
X142233333Y-99811961D01*
X142233333Y-99811961D02*
X142185714Y-99716723D01*
X142185714Y-99716723D02*
X142138095Y-99526247D01*
X142138095Y-99526247D02*
X142138095Y-99383390D01*
X142138095Y-99383390D02*
X142185714Y-99192914D01*
X142185714Y-99192914D02*
X142233333Y-99097676D01*
X142233333Y-99097676D02*
X142328571Y-99002438D01*
X142328571Y-99002438D02*
X142471428Y-98954819D01*
X142471428Y-98954819D02*
X142566666Y-98954819D01*
X142566666Y-98954819D02*
X142709523Y-99002438D01*
X142709523Y-99002438D02*
X142757142Y-99050057D01*
X143709523Y-99954819D02*
X143138095Y-99954819D01*
X143423809Y-99954819D02*
X143423809Y-98954819D01*
X143423809Y-98954819D02*
X143328571Y-99097676D01*
X143328571Y-99097676D02*
X143233333Y-99192914D01*
X143233333Y-99192914D02*
X143138095Y-99240533D01*
X144280952Y-99383390D02*
X144185714Y-99335771D01*
X144185714Y-99335771D02*
X144138095Y-99288152D01*
X144138095Y-99288152D02*
X144090476Y-99192914D01*
X144090476Y-99192914D02*
X144090476Y-99145295D01*
X144090476Y-99145295D02*
X144138095Y-99050057D01*
X144138095Y-99050057D02*
X144185714Y-99002438D01*
X144185714Y-99002438D02*
X144280952Y-98954819D01*
X144280952Y-98954819D02*
X144471428Y-98954819D01*
X144471428Y-98954819D02*
X144566666Y-99002438D01*
X144566666Y-99002438D02*
X144614285Y-99050057D01*
X144614285Y-99050057D02*
X144661904Y-99145295D01*
X144661904Y-99145295D02*
X144661904Y-99192914D01*
X144661904Y-99192914D02*
X144614285Y-99288152D01*
X144614285Y-99288152D02*
X144566666Y-99335771D01*
X144566666Y-99335771D02*
X144471428Y-99383390D01*
X144471428Y-99383390D02*
X144280952Y-99383390D01*
X144280952Y-99383390D02*
X144185714Y-99431009D01*
X144185714Y-99431009D02*
X144138095Y-99478628D01*
X144138095Y-99478628D02*
X144090476Y-99573866D01*
X144090476Y-99573866D02*
X144090476Y-99764342D01*
X144090476Y-99764342D02*
X144138095Y-99859580D01*
X144138095Y-99859580D02*
X144185714Y-99907200D01*
X144185714Y-99907200D02*
X144280952Y-99954819D01*
X144280952Y-99954819D02*
X144471428Y-99954819D01*
X144471428Y-99954819D02*
X144566666Y-99907200D01*
X144566666Y-99907200D02*
X144614285Y-99859580D01*
X144614285Y-99859580D02*
X144661904Y-99764342D01*
X144661904Y-99764342D02*
X144661904Y-99573866D01*
X144661904Y-99573866D02*
X144614285Y-99478628D01*
X144614285Y-99478628D02*
X144566666Y-99431009D01*
X144566666Y-99431009D02*
X144471428Y-99383390D01*
X145024405Y-78454819D02*
X145024405Y-77454819D01*
X145024405Y-77454819D02*
X145262500Y-77454819D01*
X145262500Y-77454819D02*
X145405357Y-77502438D01*
X145405357Y-77502438D02*
X145500595Y-77597676D01*
X145500595Y-77597676D02*
X145548214Y-77692914D01*
X145548214Y-77692914D02*
X145595833Y-77883390D01*
X145595833Y-77883390D02*
X145595833Y-78026247D01*
X145595833Y-78026247D02*
X145548214Y-78216723D01*
X145548214Y-78216723D02*
X145500595Y-78311961D01*
X145500595Y-78311961D02*
X145405357Y-78407200D01*
X145405357Y-78407200D02*
X145262500Y-78454819D01*
X145262500Y-78454819D02*
X145024405Y-78454819D01*
X146548214Y-78454819D02*
X145976786Y-78454819D01*
X146262500Y-78454819D02*
X146262500Y-77454819D01*
X146262500Y-77454819D02*
X146167262Y-77597676D01*
X146167262Y-77597676D02*
X146072024Y-77692914D01*
X146072024Y-77692914D02*
X145976786Y-77740533D01*
X130454819Y-110488094D02*
X129454819Y-110488094D01*
X129454819Y-110488094D02*
X129454819Y-110249999D01*
X129454819Y-110249999D02*
X129502438Y-110107142D01*
X129502438Y-110107142D02*
X129597676Y-110011904D01*
X129597676Y-110011904D02*
X129692914Y-109964285D01*
X129692914Y-109964285D02*
X129883390Y-109916666D01*
X129883390Y-109916666D02*
X130026247Y-109916666D01*
X130026247Y-109916666D02*
X130216723Y-109964285D01*
X130216723Y-109964285D02*
X130311961Y-110011904D01*
X130311961Y-110011904D02*
X130407200Y-110107142D01*
X130407200Y-110107142D02*
X130454819Y-110249999D01*
X130454819Y-110249999D02*
X130454819Y-110488094D01*
X129550057Y-109535713D02*
X129502438Y-109488094D01*
X129502438Y-109488094D02*
X129454819Y-109392856D01*
X129454819Y-109392856D02*
X129454819Y-109154761D01*
X129454819Y-109154761D02*
X129502438Y-109059523D01*
X129502438Y-109059523D02*
X129550057Y-109011904D01*
X129550057Y-109011904D02*
X129645295Y-108964285D01*
X129645295Y-108964285D02*
X129740533Y-108964285D01*
X129740533Y-108964285D02*
X129883390Y-109011904D01*
X129883390Y-109011904D02*
X130454819Y-109583332D01*
X130454819Y-109583332D02*
X130454819Y-108964285D01*
X167604819Y-104425594D02*
X166604819Y-104425594D01*
X166604819Y-104425594D02*
X166604819Y-104187499D01*
X166604819Y-104187499D02*
X166652438Y-104044642D01*
X166652438Y-104044642D02*
X166747676Y-103949404D01*
X166747676Y-103949404D02*
X166842914Y-103901785D01*
X166842914Y-103901785D02*
X167033390Y-103854166D01*
X167033390Y-103854166D02*
X167176247Y-103854166D01*
X167176247Y-103854166D02*
X167366723Y-103901785D01*
X167366723Y-103901785D02*
X167461961Y-103949404D01*
X167461961Y-103949404D02*
X167557200Y-104044642D01*
X167557200Y-104044642D02*
X167604819Y-104187499D01*
X167604819Y-104187499D02*
X167604819Y-104425594D01*
X166604819Y-103520832D02*
X166604819Y-102901785D01*
X166604819Y-102901785D02*
X166985771Y-103235118D01*
X166985771Y-103235118D02*
X166985771Y-103092261D01*
X166985771Y-103092261D02*
X167033390Y-102997023D01*
X167033390Y-102997023D02*
X167081009Y-102949404D01*
X167081009Y-102949404D02*
X167176247Y-102901785D01*
X167176247Y-102901785D02*
X167414342Y-102901785D01*
X167414342Y-102901785D02*
X167509580Y-102949404D01*
X167509580Y-102949404D02*
X167557200Y-102997023D01*
X167557200Y-102997023D02*
X167604819Y-103092261D01*
X167604819Y-103092261D02*
X167604819Y-103377975D01*
X167604819Y-103377975D02*
X167557200Y-103473213D01*
X167557200Y-103473213D02*
X167509580Y-103520832D01*
X150861905Y-135604819D02*
X150861905Y-134604819D01*
X150861905Y-134604819D02*
X151100000Y-134604819D01*
X151100000Y-134604819D02*
X151242857Y-134652438D01*
X151242857Y-134652438D02*
X151338095Y-134747676D01*
X151338095Y-134747676D02*
X151385714Y-134842914D01*
X151385714Y-134842914D02*
X151433333Y-135033390D01*
X151433333Y-135033390D02*
X151433333Y-135176247D01*
X151433333Y-135176247D02*
X151385714Y-135366723D01*
X151385714Y-135366723D02*
X151338095Y-135461961D01*
X151338095Y-135461961D02*
X151242857Y-135557200D01*
X151242857Y-135557200D02*
X151100000Y-135604819D01*
X151100000Y-135604819D02*
X150861905Y-135604819D01*
X152290476Y-134938152D02*
X152290476Y-135604819D01*
X152052381Y-134557200D02*
X151814286Y-135271485D01*
X151814286Y-135271485D02*
X152433333Y-135271485D01*
D13*
X165040000Y-77170000D02*
X166370000Y-77170000D01*
X165040000Y-78500000D02*
X165040000Y-77170000D01*
X165040000Y-79770000D02*
X167700000Y-79770000D01*
X167700000Y-79770000D02*
X167700000Y-92530000D01*
X165040000Y-79770000D02*
X165040000Y-92530000D01*
X165040000Y-92530000D02*
X167700000Y-92530000D01*
X128595000Y-123851000D02*
X129045000Y-123451000D01*
X129045000Y-123451000D02*
X129045000Y-124251000D01*
X129045000Y-124251000D02*
X128595000Y-123851000D01*
X122995000Y-129001000D02*
X125795000Y-129001000D01*
X125795000Y-129001000D02*
X125795000Y-129301000D01*
X125795000Y-129301000D02*
X127345000Y-129301000D01*
X122995000Y-121301000D02*
X125795000Y-121301000D01*
X125795000Y-121001000D02*
X125795000Y-121301000D01*
X125795000Y-121001000D02*
X127345000Y-121001000D01*
X131810000Y-118786252D02*
X131810000Y-118263748D01*
X130390000Y-118786252D02*
X130390000Y-118263748D01*
X126710000Y-102213748D02*
X126710000Y-102736252D01*
X125290000Y-102213748D02*
X125290000Y-102736252D01*
X123290000Y-102213748D02*
X123290000Y-102736252D01*
X124710000Y-102213748D02*
X124710000Y-102736252D01*
X134861252Y-117260000D02*
X134338748Y-117260000D01*
X134861252Y-115840000D02*
X134338748Y-115840000D01*
X153236252Y-71290000D02*
X152713748Y-71290000D01*
X153236252Y-72710000D02*
X152713748Y-72710000D01*
X153236252Y-73290000D02*
X152713748Y-73290000D01*
X153236252Y-74710000D02*
X152713748Y-74710000D01*
X144213748Y-138290000D02*
X144736252Y-138290000D01*
X144213748Y-139710000D02*
X144736252Y-139710000D01*
X138810000Y-121286252D02*
X138810000Y-120763748D01*
X137390000Y-121286252D02*
X137390000Y-120763748D01*
X152563748Y-90690000D02*
X153086252Y-90690000D01*
X152563748Y-92110000D02*
X153086252Y-92110000D01*
X146036252Y-90690000D02*
X145513748Y-90690000D01*
X146036252Y-92110000D02*
X145513748Y-92110000D01*
X144213748Y-140290000D02*
X144736252Y-140290000D01*
X144213748Y-141710000D02*
X144736252Y-141710000D01*
X171710000Y-111236252D02*
X171710000Y-110713748D01*
X170290000Y-111236252D02*
X170290000Y-110713748D01*
X172290000Y-111261252D02*
X172290000Y-110738748D01*
X173710000Y-111261252D02*
X173710000Y-110738748D01*
X158190000Y-103513748D02*
X158190000Y-104036252D01*
X156770000Y-103513748D02*
X156770000Y-104036252D01*
X149011252Y-79790000D02*
X148488748Y-79790000D01*
X149011252Y-81210000D02*
X148488748Y-81210000D01*
X133210000Y-106488748D02*
X133210000Y-107011252D01*
X131790000Y-106488748D02*
X131790000Y-107011252D01*
X164040000Y-107011252D02*
X164040000Y-106488748D01*
X165460000Y-107011252D02*
X165460000Y-106488748D01*
X148488748Y-133460000D02*
X149011252Y-133460000D01*
X148488748Y-132040000D02*
X149011252Y-132040000D01*
X164963748Y-94040000D02*
X165486252Y-94040000D01*
X164963748Y-95460000D02*
X165486252Y-95460000D01*
X164963748Y-97460000D02*
X165486252Y-97460000D01*
X164963748Y-96040000D02*
X165486252Y-96040000D01*
X125290000Y-111786252D02*
X125290000Y-111263748D01*
X126710000Y-111786252D02*
X126710000Y-111263748D01*
X124710000Y-111786252D02*
X124710000Y-111263748D01*
X123290000Y-111786252D02*
X123290000Y-111263748D01*
X143713748Y-73290000D02*
X144236252Y-73290000D01*
X143713748Y-74710000D02*
X144236252Y-74710000D01*
X153786252Y-139710000D02*
X153263748Y-139710000D01*
X153786252Y-138290000D02*
X153263748Y-138290000D01*
X143713748Y-71290000D02*
X144236252Y-71290000D01*
X143713748Y-72710000D02*
X144236252Y-72710000D01*
X153786252Y-140290000D02*
X153263748Y-140290000D01*
X153786252Y-141710000D02*
X153263748Y-141710000D01*
X170290000Y-101763748D02*
X170290000Y-102286252D01*
X171710000Y-101763748D02*
X171710000Y-102286252D01*
X173710000Y-101763748D02*
X173710000Y-102286252D01*
X172290000Y-101763748D02*
X172290000Y-102286252D01*
D12*
X123000000Y-107750000D02*
X123500000Y-107750000D01*
X123500000Y-108250000D02*
X123500000Y-105250000D01*
X128250000Y-108250000D02*
X123500000Y-108250000D01*
X128250000Y-105250000D02*
X128250000Y-108250000D01*
X123500000Y-105250000D02*
X128250000Y-105250000D01*
D13*
X132990000Y-120000000D02*
X132990000Y-121800000D01*
X136210000Y-121800000D02*
X136210000Y-118850000D01*
D12*
X147750000Y-71000000D02*
X147750000Y-71500000D01*
X147250000Y-71500000D02*
X150250000Y-71500000D01*
X147250000Y-76250000D02*
X147250000Y-71500000D01*
X150250000Y-76250000D02*
X147250000Y-76250000D01*
X150250000Y-71500000D02*
X150250000Y-76250000D01*
X147250000Y-141750000D02*
X147250000Y-137000000D01*
X147250000Y-137000000D02*
X150250000Y-137000000D01*
X150250000Y-137000000D02*
X150250000Y-141750000D01*
X150250000Y-141750000D02*
X147250000Y-141750000D01*
X149750000Y-142250000D02*
X149750000Y-141750000D01*
X173750000Y-108250000D02*
X169000000Y-108250000D01*
X169000000Y-108250000D02*
X169000000Y-105250000D01*
X169000000Y-105250000D02*
X173750000Y-105250000D01*
X173750000Y-105250000D02*
X173750000Y-108250000D01*
X174250000Y-105750000D02*
X173750000Y-105750000D01*
D13*
X152310000Y-110310000D02*
X151890000Y-110310000D01*
X145190000Y-110310000D02*
X145610000Y-110310000D01*
X145190000Y-103190000D02*
X145610000Y-103190000D01*
X152310000Y-103190000D02*
X152310000Y-103610000D01*
X145190000Y-110310000D02*
X145190000Y-109890000D01*
X152310000Y-110310000D02*
X152310000Y-109890000D01*
X151890000Y-103190000D02*
X151890000Y-101810000D01*
X152310000Y-103190000D02*
X151890000Y-103190000D01*
X145190000Y-103190000D02*
X145190000Y-103610000D01*
X152365000Y-98125000D02*
X146115000Y-98125000D01*
X152365000Y-93075000D02*
X146115000Y-93075000D01*
X152365000Y-93075000D02*
G75*
G02*
X152365000Y-98125000I0J-2525000D01*
G01*
X146115000Y-98125000D02*
G75*
G02*
X146115000Y-93075000I0J2525000D01*
G01*
X141090000Y-109163748D02*
X141090000Y-109686252D01*
X142510000Y-109163748D02*
X142510000Y-109686252D01*
X151863748Y-112828000D02*
X152386252Y-112828000D01*
X151863748Y-114248000D02*
X152386252Y-114248000D01*
X156210000Y-104036252D02*
X156210000Y-103513748D01*
X154790000Y-104036252D02*
X154790000Y-103513748D01*
X147086252Y-100210000D02*
X146563748Y-100210000D01*
X147086252Y-98790000D02*
X146563748Y-98790000D01*
X147090000Y-78735000D02*
X149550000Y-78735000D01*
X147090000Y-77265000D02*
X147090000Y-78735000D01*
X149550000Y-77265000D02*
X147090000Y-77265000D01*
X129265000Y-105950000D02*
X129265000Y-108410000D01*
X129265000Y-108410000D02*
X130735000Y-108410000D01*
X130735000Y-108410000D02*
X130735000Y-105950000D01*
X166515000Y-105090000D02*
X166515000Y-107550000D01*
X167985000Y-105090000D02*
X166515000Y-105090000D01*
X167985000Y-107550000D02*
X167985000Y-105090000D01*
X147950000Y-135985000D02*
X150410000Y-135985000D01*
X150410000Y-135985000D02*
X150410000Y-134515000D01*
X150410000Y-134515000D02*
X147950000Y-134515000D01*
%LPC*%
D14*
X166370000Y-91200000D03*
X166370000Y-88660000D03*
X166370000Y-86120000D03*
X166370000Y-83580000D03*
X166370000Y-81040000D03*
D15*
X166370000Y-78500000D03*
D16*
X124345000Y-126111000D03*
X124345000Y-124191000D03*
D17*
X124615000Y-127881000D03*
X124615000Y-122421000D03*
D18*
X127615000Y-127571000D03*
X127615000Y-122731000D03*
D19*
X127495000Y-126451000D03*
X127495000Y-125801000D03*
X127495000Y-125151000D03*
X127495000Y-124501000D03*
X127495000Y-123851000D03*
D20*
X127615000Y-128051000D03*
X127595000Y-122301000D03*
D21*
X126295000Y-128151000D03*
X126295000Y-122201000D03*
D22*
X125545000Y-122421000D03*
X125545000Y-127901000D03*
D23*
X131100000Y-117500000D03*
X131100000Y-119550000D03*
D24*
X126000000Y-101450000D03*
X126000000Y-103500000D03*
X124000000Y-103500000D03*
X124000000Y-101450000D03*
D25*
X135625000Y-116550000D03*
X133575000Y-116550000D03*
X151950000Y-72000000D03*
X154000000Y-72000000D03*
X151950000Y-74000000D03*
X154000000Y-74000000D03*
D26*
X143450000Y-139000000D03*
X145500000Y-139000000D03*
D23*
X138100000Y-120000000D03*
X138100000Y-122050000D03*
D26*
X151800000Y-91400000D03*
X153850000Y-91400000D03*
D25*
X144750000Y-91400000D03*
X146800000Y-91400000D03*
D26*
X143450000Y-141000000D03*
X145500000Y-141000000D03*
D23*
X171000000Y-109950000D03*
X171000000Y-112000000D03*
X173000000Y-112025000D03*
X173000000Y-109975000D03*
D24*
X157480000Y-102750000D03*
X157480000Y-104800000D03*
D25*
X147725000Y-80500000D03*
X149775000Y-80500000D03*
D24*
X132500000Y-105725000D03*
X132500000Y-107775000D03*
D23*
X164750000Y-107775000D03*
X164750000Y-105725000D03*
D26*
X149775000Y-132750000D03*
X147725000Y-132750000D03*
X164200000Y-94750000D03*
X166250000Y-94750000D03*
X166250000Y-96750000D03*
X164200000Y-96750000D03*
D23*
X126000000Y-112550000D03*
X126000000Y-110500000D03*
X124000000Y-110500000D03*
X124000000Y-112550000D03*
D26*
X142950000Y-74000000D03*
X145000000Y-74000000D03*
D25*
X154550000Y-139000000D03*
X152500000Y-139000000D03*
D26*
X142950000Y-72000000D03*
X145000000Y-72000000D03*
D25*
X152500000Y-141000000D03*
X154550000Y-141000000D03*
D24*
X171000000Y-103050000D03*
X171000000Y-101000000D03*
X173000000Y-101000000D03*
X173000000Y-103050000D03*
D27*
X124000000Y-105750000D03*
X124750000Y-105750000D03*
X125500000Y-105750000D03*
X126250000Y-105750000D03*
X127000000Y-105750000D03*
X127750000Y-105750000D03*
X127750000Y-107750000D03*
X127000000Y-107750000D03*
X126250000Y-107750000D03*
X125500000Y-107750000D03*
X124750000Y-107750000D03*
X124000000Y-107750000D03*
D28*
X135550000Y-119550000D03*
X134600000Y-119550000D03*
X133650000Y-119550000D03*
X133650000Y-122250000D03*
X135550000Y-122250000D03*
X134600000Y-122250000D03*
D29*
X149750000Y-72000000D03*
X149750000Y-72750000D03*
X149750000Y-73500000D03*
X149750000Y-74250000D03*
X149750000Y-75000000D03*
X149750000Y-75750000D03*
X147750000Y-75750000D03*
X147750000Y-75000000D03*
X147750000Y-74250000D03*
X147750000Y-73500000D03*
X147750000Y-72750000D03*
X147750000Y-72000000D03*
D30*
X149750000Y-141250000D03*
X149750000Y-140500000D03*
X149750000Y-139750000D03*
X149750000Y-139000000D03*
X149750000Y-138250000D03*
X149750000Y-137500000D03*
X147750000Y-137500000D03*
X147750000Y-138250000D03*
X147750000Y-139000000D03*
X147750000Y-139750000D03*
X147750000Y-140500000D03*
X147750000Y-141250000D03*
D31*
X173250000Y-105750000D03*
X172500000Y-105750000D03*
X171750000Y-105750000D03*
X171000000Y-105750000D03*
X170250000Y-105750000D03*
X169500000Y-105750000D03*
X169500000Y-107750000D03*
X170250000Y-107750000D03*
X171000000Y-107750000D03*
X171750000Y-107750000D03*
X172500000Y-107750000D03*
X173250000Y-107750000D03*
D32*
X151500000Y-102400000D03*
X151000000Y-102400000D03*
X150500000Y-102400000D03*
X150000000Y-102400000D03*
X149500000Y-102400000D03*
X149000000Y-102400000D03*
X148500000Y-102400000D03*
X148000000Y-102400000D03*
X147500000Y-102400000D03*
X147000000Y-102400000D03*
X146500000Y-102400000D03*
X146000000Y-102400000D03*
D33*
X144400000Y-104000000D03*
X144400000Y-104500000D03*
X144400000Y-105000000D03*
X144400000Y-105500000D03*
X144400000Y-106000000D03*
X144400000Y-106500000D03*
X144400000Y-107000000D03*
X144400000Y-107500000D03*
X144400000Y-108000000D03*
X144400000Y-108500000D03*
X144400000Y-109000000D03*
X144400000Y-109500000D03*
D32*
X146000000Y-111100000D03*
X146500000Y-111100000D03*
X147000000Y-111100000D03*
X147500000Y-111100000D03*
X148000000Y-111100000D03*
X148500000Y-111100000D03*
X149000000Y-111100000D03*
X149500000Y-111100000D03*
X150000000Y-111100000D03*
X150500000Y-111100000D03*
X151000000Y-111100000D03*
X151500000Y-111100000D03*
D33*
X153100000Y-109500000D03*
X153100000Y-109000000D03*
X153100000Y-108500000D03*
X153100000Y-108000000D03*
X153100000Y-107500000D03*
X153100000Y-107000000D03*
X153100000Y-106500000D03*
X153100000Y-106000000D03*
X153100000Y-105500000D03*
X153100000Y-105000000D03*
X153100000Y-104500000D03*
X153100000Y-104000000D03*
D34*
X151680000Y-95600000D03*
X146800000Y-95600000D03*
D24*
X141800000Y-110450000D03*
X141800000Y-108400000D03*
D26*
X151100000Y-113538000D03*
X153150000Y-113538000D03*
D23*
X155500000Y-102750000D03*
X155500000Y-104800000D03*
D25*
X147850000Y-99500000D03*
X145800000Y-99500000D03*
D35*
X149625000Y-78000000D03*
X147875000Y-78000000D03*
D36*
X130000000Y-107625000D03*
X130000000Y-105875000D03*
D37*
X167250000Y-107625000D03*
X167250000Y-105875000D03*
D38*
X149625000Y-135250000D03*
X147875000Y-135250000D03*
D39*
X126000000Y-74000000D03*
X171000000Y-74000000D03*
X171000000Y-139500000D03*
X126000000Y-139500000D03*
%LPD*%
M02*
