G04 #@! TF.GenerationSoftware,KiCad,Pcbnew,9.0.8-9.0.8~ubuntu22.04.1*
G04 #@! TF.CreationDate,2026-05-27T21:09:20+05:30*
G04 #@! TF.ProjectId,OPENWAVE2350,4f50454e-5741-4564-9532-3335302e6b69,rev?*
G04 #@! TF.SameCoordinates,Original*
G04 #@! TF.FileFunction,Legend,Top*
G04 #@! TF.FilePolarity,Positive*
%FSLAX46Y46*%
G04 Gerber Fmt 4.6, Leading zero omitted, Abs format (unit mm)*
G04 Created by KiCad (PCBNEW 9.0.8-9.0.8~ubuntu22.04.1) date 2026-05-27 21:09:20*
%MOMM*%
%LPD*%
G01*
G04 APERTURE LIST*
G04 Aperture macros list*
%AMRoundRect*
0 Rectangle with rounded corners*
0 $1 Rounding radius*
0 $2 $3 $4 $5 $6 $7 $8 $9 X,Y pos of 4 corners*
0 Add a 4 corners polygon primitive as box body*
4,1,4,$2,$3,$4,$5,$6,$7,$8,$9,$2,$3,0*
0 Add four circle primitives for the rounded corners*
1,1,$1+$1,$2,$3*
1,1,$1+$1,$4,$5*
1,1,$1+$1,$6,$7*
1,1,$1+$1,$8,$9*
0 Add four rect primitives between the rounded corners*
20,1,$1+$1,$2,$3,$4,$5,0*
20,1,$1+$1,$4,$5,$6,$7,0*
20,1,$1+$1,$6,$7,$8,$9,0*
20,1,$1+$1,$8,$9,$2,$3,0*%
G04 Aperture macros list end*
%ADD10C,0.100000*%
%ADD11C,0.175000*%
%ADD12C,0.125000*%
%ADD13C,0.150000*%
%ADD14C,0.153000*%
%ADD15C,0.120000*%
%ADD16C,0.000000*%
%ADD17O,1.802000X1.802000*%
%ADD18RoundRect,0.450500X0.450500X-0.450500X0.450500X0.450500X-0.450500X0.450500X-0.450500X-0.450500X0*%
%ADD19RoundRect,0.165500X0.165500X0.195500X-0.165500X0.195500X-0.165500X-0.195500X0.165500X-0.195500X0*%
%ADD20RoundRect,0.160500X-0.160500X-0.210500X0.160500X-0.210500X0.160500X0.210500X-0.160500X0.210500X0*%
%ADD21RoundRect,0.160500X0.160500X0.210500X-0.160500X0.210500X-0.160500X-0.210500X0.160500X-0.210500X0*%
%ADD22RoundRect,0.160500X0.210500X-0.160500X0.210500X0.160500X-0.210500X0.160500X-0.210500X-0.160500X0*%
%ADD23RoundRect,0.088000X-0.313000X-0.088000X0.313000X-0.088000X0.313000X0.088000X-0.313000X0.088000X0*%
%ADD24RoundRect,0.051000X-0.100000X-0.800000X0.100000X-0.800000X0.100000X0.800000X-0.100000X0.800000X0*%
%ADD25RoundRect,0.165500X-0.165500X-0.195500X0.165500X-0.195500X0.165500X0.195500X-0.165500X0.195500X0*%
%ADD26RoundRect,0.225500X-0.225500X-0.825500X0.225500X-0.825500X0.225500X0.825500X-0.225500X0.825500X0*%
%ADD27RoundRect,0.051000X0.600000X-0.450000X0.600000X0.450000X-0.600000X0.450000X-0.600000X-0.450000X0*%
%ADD28RoundRect,0.165500X0.195500X-0.165500X0.195500X0.165500X-0.195500X0.165500X-0.195500X-0.165500X0*%
%ADD29RoundRect,0.173000X-0.173000X-0.198000X0.173000X-0.198000X0.173000X0.198000X-0.173000X0.198000X0*%
%ADD30RoundRect,0.051000X-0.325000X0.530000X-0.325000X-0.530000X0.325000X-0.530000X0.325000X0.530000X0*%
%ADD31RoundRect,0.051000X-0.700000X-0.600000X0.700000X-0.600000X0.700000X0.600000X-0.700000X0.600000X0*%
%ADD32RoundRect,0.269250X0.481750X-0.269250X0.481750X0.269250X-0.481750X0.269250X-0.481750X-0.269250X0*%
%ADD33RoundRect,0.160500X-0.210500X0.160500X-0.210500X-0.160500X0.210500X-0.160500X0.210500X0.160500X0*%
%ADD34O,0.977000X0.302000*%
%ADD35O,0.302000X0.977000*%
%ADD36C,0.527000*%
%ADD37RoundRect,0.206000X-1.545000X-1.545000X1.545000X-1.545000X1.545000X1.545000X-1.545000X1.545000X0*%
%ADD38RoundRect,0.175500X0.175500X-0.613000X0.175500X0.613000X-0.175500X0.613000X-0.175500X-0.613000X0*%
%ADD39RoundRect,0.165500X0.255266X0.021213X0.021213X0.255266X-0.255266X-0.021213X-0.021213X-0.255266X0*%
%ADD40RoundRect,0.244250X-0.244250X-0.406750X0.244250X-0.406750X0.244250X0.406750X-0.244250X0.406750X0*%
%ADD41RoundRect,0.173000X0.198000X-0.173000X0.198000X0.173000X-0.198000X0.173000X-0.198000X-0.173000X0*%
%ADD42RoundRect,0.165500X-0.195500X0.165500X-0.195500X-0.165500X0.195500X-0.165500X0.195500X0.165500X0*%
%ADD43C,0.752000*%
%ADD44RoundRect,0.051000X0.300000X0.725000X-0.300000X0.725000X-0.300000X-0.725000X0.300000X-0.725000X0*%
%ADD45RoundRect,0.051000X0.150000X0.725000X-0.150000X0.725000X-0.150000X-0.725000X0.150000X-0.725000X0*%
%ADD46O,1.102000X2.202000*%
%ADD47O,1.102000X1.702000*%
%ADD48RoundRect,0.165500X0.021213X-0.255266X0.255266X-0.021213X-0.021213X0.255266X-0.255266X0.021213X0*%
%ADD49RoundRect,0.225500X-0.825500X0.225500X-0.825500X-0.225500X0.825500X-0.225500X0.825500X0.225500X0*%
%ADD50RoundRect,0.051000X1.750000X0.850000X-1.750000X0.850000X-1.750000X-0.850000X1.750000X-0.850000X0*%
%ADD51RoundRect,0.051000X0.850000X0.850000X-0.850000X0.850000X-0.850000X-0.850000X0.850000X-0.850000X0*%
%ADD52RoundRect,0.051000X-1.750000X-0.850000X1.750000X-0.850000X1.750000X0.850000X-1.750000X0.850000X0*%
%ADD53C,1.802000*%
%ADD54RoundRect,0.051000X-0.850000X-0.850000X0.850000X-0.850000X0.850000X0.850000X-0.850000X0.850000X0*%
G04 APERTURE END LIST*
D10*
X163470000Y-97387000D02*
G75*
G02*
X163430000Y-97387000I-20000J0D01*
G01*
X163430000Y-97387000D02*
G75*
G02*
X163470000Y-97387000I20000J0D01*
G01*
D11*
X167657500Y-92372000D02*
G75*
G02*
X167482500Y-92372000I-87500J0D01*
G01*
X167482500Y-92372000D02*
G75*
G02*
X167657500Y-92372000I87500J0D01*
G01*
D12*
X165993619Y-82342237D02*
X165969809Y-82389856D01*
X165969809Y-82389856D02*
X165969809Y-82461285D01*
X165969809Y-82461285D02*
X165993619Y-82532713D01*
X165993619Y-82532713D02*
X166041238Y-82580332D01*
X166041238Y-82580332D02*
X166088857Y-82604142D01*
X166088857Y-82604142D02*
X166184095Y-82627951D01*
X166184095Y-82627951D02*
X166255523Y-82627951D01*
X166255523Y-82627951D02*
X166350761Y-82604142D01*
X166350761Y-82604142D02*
X166398380Y-82580332D01*
X166398380Y-82580332D02*
X166446000Y-82532713D01*
X166446000Y-82532713D02*
X166469809Y-82461285D01*
X166469809Y-82461285D02*
X166469809Y-82413666D01*
X166469809Y-82413666D02*
X166446000Y-82342237D01*
X166446000Y-82342237D02*
X166422190Y-82318428D01*
X166422190Y-82318428D02*
X166255523Y-82318428D01*
X166255523Y-82318428D02*
X166255523Y-82413666D01*
X166469809Y-82104142D02*
X165969809Y-82104142D01*
X165969809Y-82104142D02*
X165969809Y-81913666D01*
X165969809Y-81913666D02*
X165993619Y-81866047D01*
X165993619Y-81866047D02*
X166017428Y-81842237D01*
X166017428Y-81842237D02*
X166065047Y-81818428D01*
X166065047Y-81818428D02*
X166136476Y-81818428D01*
X166136476Y-81818428D02*
X166184095Y-81842237D01*
X166184095Y-81842237D02*
X166207904Y-81866047D01*
X166207904Y-81866047D02*
X166231714Y-81913666D01*
X166231714Y-81913666D02*
X166231714Y-82104142D01*
X166017428Y-81627951D02*
X165993619Y-81604142D01*
X165993619Y-81604142D02*
X165969809Y-81556523D01*
X165969809Y-81556523D02*
X165969809Y-81437475D01*
X165969809Y-81437475D02*
X165993619Y-81389856D01*
X165993619Y-81389856D02*
X166017428Y-81366047D01*
X166017428Y-81366047D02*
X166065047Y-81342237D01*
X166065047Y-81342237D02*
X166112666Y-81342237D01*
X166112666Y-81342237D02*
X166184095Y-81366047D01*
X166184095Y-81366047D02*
X166469809Y-81651761D01*
X166469809Y-81651761D02*
X166469809Y-81342237D01*
X166136476Y-80913666D02*
X166469809Y-80913666D01*
X165946000Y-81032714D02*
X166303142Y-81151761D01*
X166303142Y-81151761D02*
X166303142Y-80842238D01*
X169406390Y-85305333D02*
X169430200Y-85329142D01*
X169430200Y-85329142D02*
X169454009Y-85400571D01*
X169454009Y-85400571D02*
X169454009Y-85448190D01*
X169454009Y-85448190D02*
X169430200Y-85519618D01*
X169430200Y-85519618D02*
X169382580Y-85567237D01*
X169382580Y-85567237D02*
X169334961Y-85591047D01*
X169334961Y-85591047D02*
X169239723Y-85614856D01*
X169239723Y-85614856D02*
X169168295Y-85614856D01*
X169168295Y-85614856D02*
X169073057Y-85591047D01*
X169073057Y-85591047D02*
X169025438Y-85567237D01*
X169025438Y-85567237D02*
X168977819Y-85519618D01*
X168977819Y-85519618D02*
X168954009Y-85448190D01*
X168954009Y-85448190D02*
X168954009Y-85400571D01*
X168954009Y-85400571D02*
X168977819Y-85329142D01*
X168977819Y-85329142D02*
X169001628Y-85305333D01*
X169192104Y-84924380D02*
X169215914Y-84852952D01*
X169215914Y-84852952D02*
X169239723Y-84829142D01*
X169239723Y-84829142D02*
X169287342Y-84805333D01*
X169287342Y-84805333D02*
X169358771Y-84805333D01*
X169358771Y-84805333D02*
X169406390Y-84829142D01*
X169406390Y-84829142D02*
X169430200Y-84852952D01*
X169430200Y-84852952D02*
X169454009Y-84900571D01*
X169454009Y-84900571D02*
X169454009Y-85091047D01*
X169454009Y-85091047D02*
X168954009Y-85091047D01*
X168954009Y-85091047D02*
X168954009Y-84924380D01*
X168954009Y-84924380D02*
X168977819Y-84876761D01*
X168977819Y-84876761D02*
X169001628Y-84852952D01*
X169001628Y-84852952D02*
X169049247Y-84829142D01*
X169049247Y-84829142D02*
X169096866Y-84829142D01*
X169096866Y-84829142D02*
X169144485Y-84852952D01*
X169144485Y-84852952D02*
X169168295Y-84876761D01*
X169168295Y-84876761D02*
X169192104Y-84924380D01*
X169192104Y-84924380D02*
X169192104Y-85091047D01*
X169454009Y-84591047D02*
X168954009Y-84591047D01*
X168954009Y-84591047D02*
X168954009Y-84400571D01*
X168954009Y-84400571D02*
X168977819Y-84352952D01*
X168977819Y-84352952D02*
X169001628Y-84329142D01*
X169001628Y-84329142D02*
X169049247Y-84305333D01*
X169049247Y-84305333D02*
X169120676Y-84305333D01*
X169120676Y-84305333D02*
X169168295Y-84329142D01*
X169168295Y-84329142D02*
X169192104Y-84352952D01*
X169192104Y-84352952D02*
X169215914Y-84400571D01*
X169215914Y-84400571D02*
X169215914Y-84591047D01*
X169454009Y-83829142D02*
X169454009Y-84114856D01*
X169454009Y-83971999D02*
X168954009Y-83971999D01*
X168954009Y-83971999D02*
X169025438Y-84019618D01*
X169025438Y-84019618D02*
X169073057Y-84067237D01*
X169073057Y-84067237D02*
X169096866Y-84114856D01*
X174984809Y-73598665D02*
X175484809Y-73431999D01*
X175484809Y-73431999D02*
X174984809Y-73265332D01*
X175222904Y-72931999D02*
X175246714Y-72860571D01*
X175246714Y-72860571D02*
X175270523Y-72836761D01*
X175270523Y-72836761D02*
X175318142Y-72812952D01*
X175318142Y-72812952D02*
X175389571Y-72812952D01*
X175389571Y-72812952D02*
X175437190Y-72836761D01*
X175437190Y-72836761D02*
X175461000Y-72860571D01*
X175461000Y-72860571D02*
X175484809Y-72908190D01*
X175484809Y-72908190D02*
X175484809Y-73098666D01*
X175484809Y-73098666D02*
X174984809Y-73098666D01*
X174984809Y-73098666D02*
X174984809Y-72931999D01*
X174984809Y-72931999D02*
X175008619Y-72884380D01*
X175008619Y-72884380D02*
X175032428Y-72860571D01*
X175032428Y-72860571D02*
X175080047Y-72836761D01*
X175080047Y-72836761D02*
X175127666Y-72836761D01*
X175127666Y-72836761D02*
X175175285Y-72860571D01*
X175175285Y-72860571D02*
X175199095Y-72884380D01*
X175199095Y-72884380D02*
X175222904Y-72931999D01*
X175222904Y-72931999D02*
X175222904Y-73098666D01*
X174984809Y-72598666D02*
X175389571Y-72598666D01*
X175389571Y-72598666D02*
X175437190Y-72574856D01*
X175437190Y-72574856D02*
X175461000Y-72551047D01*
X175461000Y-72551047D02*
X175484809Y-72503428D01*
X175484809Y-72503428D02*
X175484809Y-72408190D01*
X175484809Y-72408190D02*
X175461000Y-72360571D01*
X175461000Y-72360571D02*
X175437190Y-72336761D01*
X175437190Y-72336761D02*
X175389571Y-72312952D01*
X175389571Y-72312952D02*
X174984809Y-72312952D01*
X175461000Y-72098665D02*
X175484809Y-72027237D01*
X175484809Y-72027237D02*
X175484809Y-71908189D01*
X175484809Y-71908189D02*
X175461000Y-71860570D01*
X175461000Y-71860570D02*
X175437190Y-71836761D01*
X175437190Y-71836761D02*
X175389571Y-71812951D01*
X175389571Y-71812951D02*
X175341952Y-71812951D01*
X175341952Y-71812951D02*
X175294333Y-71836761D01*
X175294333Y-71836761D02*
X175270523Y-71860570D01*
X175270523Y-71860570D02*
X175246714Y-71908189D01*
X175246714Y-71908189D02*
X175222904Y-72003427D01*
X175222904Y-72003427D02*
X175199095Y-72051046D01*
X175199095Y-72051046D02*
X175175285Y-72074856D01*
X175175285Y-72074856D02*
X175127666Y-72098665D01*
X175127666Y-72098665D02*
X175080047Y-72098665D01*
X175080047Y-72098665D02*
X175032428Y-72074856D01*
X175032428Y-72074856D02*
X175008619Y-72051046D01*
X175008619Y-72051046D02*
X174984809Y-72003427D01*
X174984809Y-72003427D02*
X174984809Y-71884380D01*
X174984809Y-71884380D02*
X175008619Y-71812951D01*
X174984809Y-76059141D02*
X175484809Y-75892475D01*
X175484809Y-75892475D02*
X174984809Y-75725808D01*
X175461000Y-75582951D02*
X175484809Y-75511523D01*
X175484809Y-75511523D02*
X175484809Y-75392475D01*
X175484809Y-75392475D02*
X175461000Y-75344856D01*
X175461000Y-75344856D02*
X175437190Y-75321047D01*
X175437190Y-75321047D02*
X175389571Y-75297237D01*
X175389571Y-75297237D02*
X175341952Y-75297237D01*
X175341952Y-75297237D02*
X175294333Y-75321047D01*
X175294333Y-75321047D02*
X175270523Y-75344856D01*
X175270523Y-75344856D02*
X175246714Y-75392475D01*
X175246714Y-75392475D02*
X175222904Y-75487713D01*
X175222904Y-75487713D02*
X175199095Y-75535332D01*
X175199095Y-75535332D02*
X175175285Y-75559142D01*
X175175285Y-75559142D02*
X175127666Y-75582951D01*
X175127666Y-75582951D02*
X175080047Y-75582951D01*
X175080047Y-75582951D02*
X175032428Y-75559142D01*
X175032428Y-75559142D02*
X175008619Y-75535332D01*
X175008619Y-75535332D02*
X174984809Y-75487713D01*
X174984809Y-75487713D02*
X174984809Y-75368666D01*
X174984809Y-75368666D02*
X175008619Y-75297237D01*
X175246714Y-74987714D02*
X175484809Y-74987714D01*
X174984809Y-75154380D02*
X175246714Y-74987714D01*
X175246714Y-74987714D02*
X174984809Y-74821047D01*
X175461000Y-74678190D02*
X175484809Y-74606762D01*
X175484809Y-74606762D02*
X175484809Y-74487714D01*
X175484809Y-74487714D02*
X175461000Y-74440095D01*
X175461000Y-74440095D02*
X175437190Y-74416286D01*
X175437190Y-74416286D02*
X175389571Y-74392476D01*
X175389571Y-74392476D02*
X175341952Y-74392476D01*
X175341952Y-74392476D02*
X175294333Y-74416286D01*
X175294333Y-74416286D02*
X175270523Y-74440095D01*
X175270523Y-74440095D02*
X175246714Y-74487714D01*
X175246714Y-74487714D02*
X175222904Y-74582952D01*
X175222904Y-74582952D02*
X175199095Y-74630571D01*
X175199095Y-74630571D02*
X175175285Y-74654381D01*
X175175285Y-74654381D02*
X175127666Y-74678190D01*
X175127666Y-74678190D02*
X175080047Y-74678190D01*
X175080047Y-74678190D02*
X175032428Y-74654381D01*
X175032428Y-74654381D02*
X175008619Y-74630571D01*
X175008619Y-74630571D02*
X174984809Y-74582952D01*
X174984809Y-74582952D02*
X174984809Y-74463905D01*
X174984809Y-74463905D02*
X175008619Y-74392476D01*
X167589547Y-90017237D02*
X167627642Y-89945809D01*
X167627642Y-89945809D02*
X167665738Y-89921999D01*
X167665738Y-89921999D02*
X167741928Y-89898190D01*
X167741928Y-89898190D02*
X167856214Y-89898190D01*
X167856214Y-89898190D02*
X167932404Y-89921999D01*
X167932404Y-89921999D02*
X167970500Y-89945809D01*
X167970500Y-89945809D02*
X168008595Y-89993428D01*
X168008595Y-89993428D02*
X168008595Y-90183904D01*
X168008595Y-90183904D02*
X167208595Y-90183904D01*
X167208595Y-90183904D02*
X167208595Y-90017237D01*
X167208595Y-90017237D02*
X167246690Y-89969618D01*
X167246690Y-89969618D02*
X167284785Y-89945809D01*
X167284785Y-89945809D02*
X167360976Y-89921999D01*
X167360976Y-89921999D02*
X167437166Y-89921999D01*
X167437166Y-89921999D02*
X167513357Y-89945809D01*
X167513357Y-89945809D02*
X167551452Y-89969618D01*
X167551452Y-89969618D02*
X167589547Y-90017237D01*
X167589547Y-90017237D02*
X167589547Y-90183904D01*
X167208595Y-89588666D02*
X167208595Y-89493428D01*
X167208595Y-89493428D02*
X167246690Y-89445809D01*
X167246690Y-89445809D02*
X167322880Y-89398190D01*
X167322880Y-89398190D02*
X167475261Y-89374380D01*
X167475261Y-89374380D02*
X167741928Y-89374380D01*
X167741928Y-89374380D02*
X167894309Y-89398190D01*
X167894309Y-89398190D02*
X167970500Y-89445809D01*
X167970500Y-89445809D02*
X168008595Y-89493428D01*
X168008595Y-89493428D02*
X168008595Y-89588666D01*
X168008595Y-89588666D02*
X167970500Y-89636285D01*
X167970500Y-89636285D02*
X167894309Y-89683904D01*
X167894309Y-89683904D02*
X167741928Y-89707713D01*
X167741928Y-89707713D02*
X167475261Y-89707713D01*
X167475261Y-89707713D02*
X167322880Y-89683904D01*
X167322880Y-89683904D02*
X167246690Y-89636285D01*
X167246690Y-89636285D02*
X167208595Y-89588666D01*
X167208595Y-89064856D02*
X167208595Y-88969618D01*
X167208595Y-88969618D02*
X167246690Y-88921999D01*
X167246690Y-88921999D02*
X167322880Y-88874380D01*
X167322880Y-88874380D02*
X167475261Y-88850570D01*
X167475261Y-88850570D02*
X167741928Y-88850570D01*
X167741928Y-88850570D02*
X167894309Y-88874380D01*
X167894309Y-88874380D02*
X167970500Y-88921999D01*
X167970500Y-88921999D02*
X168008595Y-88969618D01*
X168008595Y-88969618D02*
X168008595Y-89064856D01*
X168008595Y-89064856D02*
X167970500Y-89112475D01*
X167970500Y-89112475D02*
X167894309Y-89160094D01*
X167894309Y-89160094D02*
X167741928Y-89183903D01*
X167741928Y-89183903D02*
X167475261Y-89183903D01*
X167475261Y-89183903D02*
X167322880Y-89160094D01*
X167322880Y-89160094D02*
X167246690Y-89112475D01*
X167246690Y-89112475D02*
X167208595Y-89064856D01*
X167208595Y-88707712D02*
X167208595Y-88421998D01*
X168008595Y-88564855D02*
X167208595Y-88564855D01*
X167970500Y-88279141D02*
X168008595Y-88207713D01*
X168008595Y-88207713D02*
X168008595Y-88088665D01*
X168008595Y-88088665D02*
X167970500Y-88041046D01*
X167970500Y-88041046D02*
X167932404Y-88017237D01*
X167932404Y-88017237D02*
X167856214Y-87993427D01*
X167856214Y-87993427D02*
X167780023Y-87993427D01*
X167780023Y-87993427D02*
X167703833Y-88017237D01*
X167703833Y-88017237D02*
X167665738Y-88041046D01*
X167665738Y-88041046D02*
X167627642Y-88088665D01*
X167627642Y-88088665D02*
X167589547Y-88183903D01*
X167589547Y-88183903D02*
X167551452Y-88231522D01*
X167551452Y-88231522D02*
X167513357Y-88255332D01*
X167513357Y-88255332D02*
X167437166Y-88279141D01*
X167437166Y-88279141D02*
X167360976Y-88279141D01*
X167360976Y-88279141D02*
X167284785Y-88255332D01*
X167284785Y-88255332D02*
X167246690Y-88231522D01*
X167246690Y-88231522D02*
X167208595Y-88183903D01*
X167208595Y-88183903D02*
X167208595Y-88064856D01*
X167208595Y-88064856D02*
X167246690Y-87993427D01*
X167589547Y-87779142D02*
X167589547Y-87612475D01*
X168008595Y-87541047D02*
X168008595Y-87779142D01*
X168008595Y-87779142D02*
X167208595Y-87779142D01*
X167208595Y-87779142D02*
X167208595Y-87541047D01*
X168008595Y-87088666D02*
X168008595Y-87326761D01*
X168008595Y-87326761D02*
X167208595Y-87326761D01*
D13*
X162262856Y-81985914D02*
X162291428Y-81957342D01*
X162291428Y-81957342D02*
X162348571Y-81928771D01*
X162348571Y-81928771D02*
X162491428Y-81928771D01*
X162491428Y-81928771D02*
X162548571Y-81957342D01*
X162548571Y-81957342D02*
X162577142Y-81985914D01*
X162577142Y-81985914D02*
X162605713Y-82043057D01*
X162605713Y-82043057D02*
X162605713Y-82100200D01*
X162605713Y-82100200D02*
X162577142Y-82185914D01*
X162577142Y-82185914D02*
X162234285Y-82528771D01*
X162234285Y-82528771D02*
X162605713Y-82528771D01*
X163148571Y-81928771D02*
X162862857Y-81928771D01*
X162862857Y-81928771D02*
X162834285Y-82214485D01*
X162834285Y-82214485D02*
X162862857Y-82185914D01*
X162862857Y-82185914D02*
X162920000Y-82157342D01*
X162920000Y-82157342D02*
X163062857Y-82157342D01*
X163062857Y-82157342D02*
X163120000Y-82185914D01*
X163120000Y-82185914D02*
X163148571Y-82214485D01*
X163148571Y-82214485D02*
X163177142Y-82271628D01*
X163177142Y-82271628D02*
X163177142Y-82414485D01*
X163177142Y-82414485D02*
X163148571Y-82471628D01*
X163148571Y-82471628D02*
X163120000Y-82500200D01*
X163120000Y-82500200D02*
X163062857Y-82528771D01*
X163062857Y-82528771D02*
X162920000Y-82528771D01*
X162920000Y-82528771D02*
X162862857Y-82500200D01*
X162862857Y-82500200D02*
X162834285Y-82471628D01*
X166296914Y-86329143D02*
X166268342Y-86300571D01*
X166268342Y-86300571D02*
X166239771Y-86243429D01*
X166239771Y-86243429D02*
X166239771Y-86100571D01*
X166239771Y-86100571D02*
X166268342Y-86043429D01*
X166268342Y-86043429D02*
X166296914Y-86014857D01*
X166296914Y-86014857D02*
X166354057Y-85986286D01*
X166354057Y-85986286D02*
X166411200Y-85986286D01*
X166411200Y-85986286D02*
X166496914Y-86014857D01*
X166496914Y-86014857D02*
X166839771Y-86357714D01*
X166839771Y-86357714D02*
X166839771Y-85986286D01*
X166239771Y-85786285D02*
X166239771Y-85414857D01*
X166239771Y-85414857D02*
X166468342Y-85614857D01*
X166468342Y-85614857D02*
X166468342Y-85529142D01*
X166468342Y-85529142D02*
X166496914Y-85472000D01*
X166496914Y-85472000D02*
X166525485Y-85443428D01*
X166525485Y-85443428D02*
X166582628Y-85414857D01*
X166582628Y-85414857D02*
X166725485Y-85414857D01*
X166725485Y-85414857D02*
X166782628Y-85443428D01*
X166782628Y-85443428D02*
X166811200Y-85472000D01*
X166811200Y-85472000D02*
X166839771Y-85529142D01*
X166839771Y-85529142D02*
X166839771Y-85700571D01*
X166839771Y-85700571D02*
X166811200Y-85757714D01*
X166811200Y-85757714D02*
X166782628Y-85786285D01*
X169289771Y-110593428D02*
X169004057Y-110793428D01*
X169289771Y-110936285D02*
X168689771Y-110936285D01*
X168689771Y-110936285D02*
X168689771Y-110707714D01*
X168689771Y-110707714D02*
X168718342Y-110650571D01*
X168718342Y-110650571D02*
X168746914Y-110622000D01*
X168746914Y-110622000D02*
X168804057Y-110593428D01*
X168804057Y-110593428D02*
X168889771Y-110593428D01*
X168889771Y-110593428D02*
X168946914Y-110622000D01*
X168946914Y-110622000D02*
X168975485Y-110650571D01*
X168975485Y-110650571D02*
X169004057Y-110707714D01*
X169004057Y-110707714D02*
X169004057Y-110936285D01*
X168975485Y-110336285D02*
X168975485Y-110136285D01*
X169289771Y-110050571D02*
X169289771Y-110336285D01*
X169289771Y-110336285D02*
X168689771Y-110336285D01*
X168689771Y-110336285D02*
X168689771Y-110050571D01*
X169261200Y-109822000D02*
X169289771Y-109736286D01*
X169289771Y-109736286D02*
X169289771Y-109593428D01*
X169289771Y-109593428D02*
X169261200Y-109536286D01*
X169261200Y-109536286D02*
X169232628Y-109507714D01*
X169232628Y-109507714D02*
X169175485Y-109479143D01*
X169175485Y-109479143D02*
X169118342Y-109479143D01*
X169118342Y-109479143D02*
X169061200Y-109507714D01*
X169061200Y-109507714D02*
X169032628Y-109536286D01*
X169032628Y-109536286D02*
X169004057Y-109593428D01*
X169004057Y-109593428D02*
X168975485Y-109707714D01*
X168975485Y-109707714D02*
X168946914Y-109764857D01*
X168946914Y-109764857D02*
X168918342Y-109793428D01*
X168918342Y-109793428D02*
X168861200Y-109822000D01*
X168861200Y-109822000D02*
X168804057Y-109822000D01*
X168804057Y-109822000D02*
X168746914Y-109793428D01*
X168746914Y-109793428D02*
X168718342Y-109764857D01*
X168718342Y-109764857D02*
X168689771Y-109707714D01*
X168689771Y-109707714D02*
X168689771Y-109564857D01*
X168689771Y-109564857D02*
X168718342Y-109479143D01*
X168975485Y-109221999D02*
X168975485Y-109021999D01*
X169289771Y-108936285D02*
X169289771Y-109221999D01*
X169289771Y-109221999D02*
X168689771Y-109221999D01*
X168689771Y-109221999D02*
X168689771Y-108936285D01*
X168689771Y-108764857D02*
X168689771Y-108422000D01*
X169289771Y-108593428D02*
X168689771Y-108593428D01*
X174645390Y-78204142D02*
X174607295Y-78261285D01*
X174607295Y-78261285D02*
X174607295Y-78346999D01*
X174607295Y-78346999D02*
X174645390Y-78432713D01*
X174645390Y-78432713D02*
X174721580Y-78489856D01*
X174721580Y-78489856D02*
X174797771Y-78518427D01*
X174797771Y-78518427D02*
X174950152Y-78546999D01*
X174950152Y-78546999D02*
X175064438Y-78546999D01*
X175064438Y-78546999D02*
X175216819Y-78518427D01*
X175216819Y-78518427D02*
X175293009Y-78489856D01*
X175293009Y-78489856D02*
X175369200Y-78432713D01*
X175369200Y-78432713D02*
X175407295Y-78346999D01*
X175407295Y-78346999D02*
X175407295Y-78289856D01*
X175407295Y-78289856D02*
X175369200Y-78204142D01*
X175369200Y-78204142D02*
X175331104Y-78175570D01*
X175331104Y-78175570D02*
X175064438Y-78175570D01*
X175064438Y-78175570D02*
X175064438Y-78289856D01*
X175407295Y-77918427D02*
X174607295Y-77918427D01*
X174607295Y-77918427D02*
X175407295Y-77575570D01*
X175407295Y-77575570D02*
X174607295Y-77575570D01*
X175407295Y-77289856D02*
X174607295Y-77289856D01*
X174607295Y-77289856D02*
X174607295Y-77146999D01*
X174607295Y-77146999D02*
X174645390Y-77061285D01*
X174645390Y-77061285D02*
X174721580Y-77004142D01*
X174721580Y-77004142D02*
X174797771Y-76975571D01*
X174797771Y-76975571D02*
X174950152Y-76946999D01*
X174950152Y-76946999D02*
X175064438Y-76946999D01*
X175064438Y-76946999D02*
X175216819Y-76975571D01*
X175216819Y-76975571D02*
X175293009Y-77004142D01*
X175293009Y-77004142D02*
X175369200Y-77061285D01*
X175369200Y-77061285D02*
X175407295Y-77146999D01*
X175407295Y-77146999D02*
X175407295Y-77289856D01*
X174632295Y-81625571D02*
X174632295Y-81254143D01*
X174632295Y-81254143D02*
X174937057Y-81454143D01*
X174937057Y-81454143D02*
X174937057Y-81368428D01*
X174937057Y-81368428D02*
X174975152Y-81311286D01*
X174975152Y-81311286D02*
X175013247Y-81282714D01*
X175013247Y-81282714D02*
X175089438Y-81254143D01*
X175089438Y-81254143D02*
X175279914Y-81254143D01*
X175279914Y-81254143D02*
X175356104Y-81282714D01*
X175356104Y-81282714D02*
X175394200Y-81311286D01*
X175394200Y-81311286D02*
X175432295Y-81368428D01*
X175432295Y-81368428D02*
X175432295Y-81539857D01*
X175432295Y-81539857D02*
X175394200Y-81597000D01*
X175394200Y-81597000D02*
X175356104Y-81625571D01*
X174632295Y-81082714D02*
X175432295Y-80882714D01*
X175432295Y-80882714D02*
X174632295Y-80682714D01*
X174632295Y-80539856D02*
X174632295Y-80168428D01*
X174632295Y-80168428D02*
X174937057Y-80368428D01*
X174937057Y-80368428D02*
X174937057Y-80282713D01*
X174937057Y-80282713D02*
X174975152Y-80225571D01*
X174975152Y-80225571D02*
X175013247Y-80196999D01*
X175013247Y-80196999D02*
X175089438Y-80168428D01*
X175089438Y-80168428D02*
X175279914Y-80168428D01*
X175279914Y-80168428D02*
X175356104Y-80196999D01*
X175356104Y-80196999D02*
X175394200Y-80225571D01*
X175394200Y-80225571D02*
X175432295Y-80282713D01*
X175432295Y-80282713D02*
X175432295Y-80454142D01*
X175432295Y-80454142D02*
X175394200Y-80511285D01*
X175394200Y-80511285D02*
X175356104Y-80539856D01*
X175013247Y-79911284D02*
X175013247Y-79711284D01*
X175432295Y-79625570D02*
X175432295Y-79911284D01*
X175432295Y-79911284D02*
X174632295Y-79911284D01*
X174632295Y-79911284D02*
X174632295Y-79625570D01*
X175432295Y-79368427D02*
X174632295Y-79368427D01*
X174632295Y-79368427D02*
X175432295Y-79025570D01*
X175432295Y-79025570D02*
X174632295Y-79025570D01*
X174632295Y-83564857D02*
X174632295Y-83193429D01*
X174632295Y-83193429D02*
X174937057Y-83393429D01*
X174937057Y-83393429D02*
X174937057Y-83307714D01*
X174937057Y-83307714D02*
X174975152Y-83250572D01*
X174975152Y-83250572D02*
X175013247Y-83222000D01*
X175013247Y-83222000D02*
X175089438Y-83193429D01*
X175089438Y-83193429D02*
X175279914Y-83193429D01*
X175279914Y-83193429D02*
X175356104Y-83222000D01*
X175356104Y-83222000D02*
X175394200Y-83250572D01*
X175394200Y-83250572D02*
X175432295Y-83307714D01*
X175432295Y-83307714D02*
X175432295Y-83479143D01*
X175432295Y-83479143D02*
X175394200Y-83536286D01*
X175394200Y-83536286D02*
X175356104Y-83564857D01*
X174632295Y-83022000D02*
X175432295Y-82822000D01*
X175432295Y-82822000D02*
X174632295Y-82622000D01*
X174632295Y-82479142D02*
X174632295Y-82107714D01*
X174632295Y-82107714D02*
X174937057Y-82307714D01*
X174937057Y-82307714D02*
X174937057Y-82221999D01*
X174937057Y-82221999D02*
X174975152Y-82164857D01*
X174975152Y-82164857D02*
X175013247Y-82136285D01*
X175013247Y-82136285D02*
X175089438Y-82107714D01*
X175089438Y-82107714D02*
X175279914Y-82107714D01*
X175279914Y-82107714D02*
X175356104Y-82136285D01*
X175356104Y-82136285D02*
X175394200Y-82164857D01*
X175394200Y-82164857D02*
X175432295Y-82221999D01*
X175432295Y-82221999D02*
X175432295Y-82393428D01*
X175432295Y-82393428D02*
X175394200Y-82450571D01*
X175394200Y-82450571D02*
X175356104Y-82479142D01*
X160136666Y-110397390D02*
X160069999Y-110359295D01*
X160069999Y-110359295D02*
X159969999Y-110359295D01*
X159969999Y-110359295D02*
X159869999Y-110397390D01*
X159869999Y-110397390D02*
X159803333Y-110473580D01*
X159803333Y-110473580D02*
X159769999Y-110549771D01*
X159769999Y-110549771D02*
X159736666Y-110702152D01*
X159736666Y-110702152D02*
X159736666Y-110816438D01*
X159736666Y-110816438D02*
X159769999Y-110968819D01*
X159769999Y-110968819D02*
X159803333Y-111045009D01*
X159803333Y-111045009D02*
X159869999Y-111121200D01*
X159869999Y-111121200D02*
X159969999Y-111159295D01*
X159969999Y-111159295D02*
X160036666Y-111159295D01*
X160036666Y-111159295D02*
X160136666Y-111121200D01*
X160136666Y-111121200D02*
X160169999Y-111083104D01*
X160169999Y-111083104D02*
X160169999Y-110816438D01*
X160169999Y-110816438D02*
X160036666Y-110816438D01*
X160469999Y-111159295D02*
X160469999Y-110359295D01*
X160469999Y-110359295D02*
X160736666Y-110359295D01*
X160736666Y-110359295D02*
X160803333Y-110397390D01*
X160803333Y-110397390D02*
X160836666Y-110435485D01*
X160836666Y-110435485D02*
X160869999Y-110511676D01*
X160869999Y-110511676D02*
X160869999Y-110625961D01*
X160869999Y-110625961D02*
X160836666Y-110702152D01*
X160836666Y-110702152D02*
X160803333Y-110740247D01*
X160803333Y-110740247D02*
X160736666Y-110778342D01*
X160736666Y-110778342D02*
X160469999Y-110778342D01*
X161536666Y-111159295D02*
X161136666Y-111159295D01*
X161336666Y-111159295D02*
X161336666Y-110359295D01*
X161336666Y-110359295D02*
X161269999Y-110473580D01*
X161269999Y-110473580D02*
X161203333Y-110549771D01*
X161203333Y-110549771D02*
X161136666Y-110587866D01*
X161803333Y-110435485D02*
X161836666Y-110397390D01*
X161836666Y-110397390D02*
X161903333Y-110359295D01*
X161903333Y-110359295D02*
X162070000Y-110359295D01*
X162070000Y-110359295D02*
X162136666Y-110397390D01*
X162136666Y-110397390D02*
X162170000Y-110435485D01*
X162170000Y-110435485D02*
X162203333Y-110511676D01*
X162203333Y-110511676D02*
X162203333Y-110587866D01*
X162203333Y-110587866D02*
X162170000Y-110702152D01*
X162170000Y-110702152D02*
X161770000Y-111159295D01*
X161770000Y-111159295D02*
X162203333Y-111159295D01*
D14*
X160136666Y-107849856D02*
X160069999Y-107811761D01*
X160069999Y-107811761D02*
X159969999Y-107811761D01*
X159969999Y-107811761D02*
X159869999Y-107849856D01*
X159869999Y-107849856D02*
X159803333Y-107926046D01*
X159803333Y-107926046D02*
X159769999Y-108002237D01*
X159769999Y-108002237D02*
X159736666Y-108154618D01*
X159736666Y-108154618D02*
X159736666Y-108268904D01*
X159736666Y-108268904D02*
X159769999Y-108421285D01*
X159769999Y-108421285D02*
X159803333Y-108497475D01*
X159803333Y-108497475D02*
X159869999Y-108573666D01*
X159869999Y-108573666D02*
X159969999Y-108611761D01*
X159969999Y-108611761D02*
X160036666Y-108611761D01*
X160036666Y-108611761D02*
X160136666Y-108573666D01*
X160136666Y-108573666D02*
X160169999Y-108535570D01*
X160169999Y-108535570D02*
X160169999Y-108268904D01*
X160169999Y-108268904D02*
X160036666Y-108268904D01*
X160469999Y-108611761D02*
X160469999Y-107811761D01*
X160469999Y-107811761D02*
X160736666Y-107811761D01*
X160736666Y-107811761D02*
X160803333Y-107849856D01*
X160803333Y-107849856D02*
X160836666Y-107887951D01*
X160836666Y-107887951D02*
X160869999Y-107964142D01*
X160869999Y-107964142D02*
X160869999Y-108078427D01*
X160869999Y-108078427D02*
X160836666Y-108154618D01*
X160836666Y-108154618D02*
X160803333Y-108192713D01*
X160803333Y-108192713D02*
X160736666Y-108230808D01*
X160736666Y-108230808D02*
X160469999Y-108230808D01*
X161536666Y-108611761D02*
X161136666Y-108611761D01*
X161336666Y-108611761D02*
X161336666Y-107811761D01*
X161336666Y-107811761D02*
X161269999Y-107926046D01*
X161269999Y-107926046D02*
X161203333Y-108002237D01*
X161203333Y-108002237D02*
X161136666Y-108040332D01*
X162203333Y-108611761D02*
X161803333Y-108611761D01*
X162003333Y-108611761D02*
X162003333Y-107811761D01*
X162003333Y-107811761D02*
X161936666Y-107926046D01*
X161936666Y-107926046D02*
X161870000Y-108002237D01*
X161870000Y-108002237D02*
X161803333Y-108040332D01*
D13*
X172916118Y-99922390D02*
X172839928Y-99884295D01*
X172839928Y-99884295D02*
X172725642Y-99884295D01*
X172725642Y-99884295D02*
X172611356Y-99922390D01*
X172611356Y-99922390D02*
X172535166Y-99998580D01*
X172535166Y-99998580D02*
X172497071Y-100074771D01*
X172497071Y-100074771D02*
X172458975Y-100227152D01*
X172458975Y-100227152D02*
X172458975Y-100341438D01*
X172458975Y-100341438D02*
X172497071Y-100493819D01*
X172497071Y-100493819D02*
X172535166Y-100570009D01*
X172535166Y-100570009D02*
X172611356Y-100646200D01*
X172611356Y-100646200D02*
X172725642Y-100684295D01*
X172725642Y-100684295D02*
X172801833Y-100684295D01*
X172801833Y-100684295D02*
X172916118Y-100646200D01*
X172916118Y-100646200D02*
X172954214Y-100608104D01*
X172954214Y-100608104D02*
X172954214Y-100341438D01*
X172954214Y-100341438D02*
X172801833Y-100341438D01*
X173297071Y-100684295D02*
X173297071Y-99884295D01*
X173297071Y-99884295D02*
X173601833Y-99884295D01*
X173601833Y-99884295D02*
X173678023Y-99922390D01*
X173678023Y-99922390D02*
X173716118Y-99960485D01*
X173716118Y-99960485D02*
X173754214Y-100036676D01*
X173754214Y-100036676D02*
X173754214Y-100150961D01*
X173754214Y-100150961D02*
X173716118Y-100227152D01*
X173716118Y-100227152D02*
X173678023Y-100265247D01*
X173678023Y-100265247D02*
X173601833Y-100303342D01*
X173601833Y-100303342D02*
X173297071Y-100303342D01*
X174058975Y-99960485D02*
X174097071Y-99922390D01*
X174097071Y-99922390D02*
X174173261Y-99884295D01*
X174173261Y-99884295D02*
X174363737Y-99884295D01*
X174363737Y-99884295D02*
X174439928Y-99922390D01*
X174439928Y-99922390D02*
X174478023Y-99960485D01*
X174478023Y-99960485D02*
X174516118Y-100036676D01*
X174516118Y-100036676D02*
X174516118Y-100112866D01*
X174516118Y-100112866D02*
X174478023Y-100227152D01*
X174478023Y-100227152D02*
X174020880Y-100684295D01*
X174020880Y-100684295D02*
X174516118Y-100684295D01*
X174820880Y-99960485D02*
X174858976Y-99922390D01*
X174858976Y-99922390D02*
X174935166Y-99884295D01*
X174935166Y-99884295D02*
X175125642Y-99884295D01*
X175125642Y-99884295D02*
X175201833Y-99922390D01*
X175201833Y-99922390D02*
X175239928Y-99960485D01*
X175239928Y-99960485D02*
X175278023Y-100036676D01*
X175278023Y-100036676D02*
X175278023Y-100112866D01*
X175278023Y-100112866D02*
X175239928Y-100227152D01*
X175239928Y-100227152D02*
X174782785Y-100684295D01*
X174782785Y-100684295D02*
X175278023Y-100684295D01*
X173260476Y-84934295D02*
X173527143Y-85734295D01*
X173527143Y-85734295D02*
X173793809Y-84934295D01*
X174517619Y-85734295D02*
X174250952Y-85353342D01*
X174060476Y-85734295D02*
X174060476Y-84934295D01*
X174060476Y-84934295D02*
X174365238Y-84934295D01*
X174365238Y-84934295D02*
X174441428Y-84972390D01*
X174441428Y-84972390D02*
X174479523Y-85010485D01*
X174479523Y-85010485D02*
X174517619Y-85086676D01*
X174517619Y-85086676D02*
X174517619Y-85200961D01*
X174517619Y-85200961D02*
X174479523Y-85277152D01*
X174479523Y-85277152D02*
X174441428Y-85315247D01*
X174441428Y-85315247D02*
X174365238Y-85353342D01*
X174365238Y-85353342D02*
X174060476Y-85353342D01*
X175127142Y-85315247D02*
X174860476Y-85315247D01*
X174860476Y-85734295D02*
X174860476Y-84934295D01*
X174860476Y-84934295D02*
X175241428Y-84934295D01*
D14*
X160152381Y-85130805D02*
X160152381Y-85664139D01*
X159961905Y-84826044D02*
X159771428Y-85397472D01*
X159771428Y-85397472D02*
X160266667Y-85397472D01*
X160190476Y-87426322D02*
X159809524Y-87426322D01*
X159809524Y-87426322D02*
X159771428Y-87807274D01*
X159771428Y-87807274D02*
X159809524Y-87769179D01*
X159809524Y-87769179D02*
X159885714Y-87731084D01*
X159885714Y-87731084D02*
X160076190Y-87731084D01*
X160076190Y-87731084D02*
X160152381Y-87769179D01*
X160152381Y-87769179D02*
X160190476Y-87807274D01*
X160190476Y-87807274D02*
X160228571Y-87883465D01*
X160228571Y-87883465D02*
X160228571Y-88073941D01*
X160228571Y-88073941D02*
X160190476Y-88150131D01*
X160190476Y-88150131D02*
X160152381Y-88188227D01*
X160152381Y-88188227D02*
X160076190Y-88226322D01*
X160076190Y-88226322D02*
X159885714Y-88226322D01*
X159885714Y-88226322D02*
X159809524Y-88188227D01*
X159809524Y-88188227D02*
X159771428Y-88150131D01*
X160152381Y-92511578D02*
X160000000Y-92511578D01*
X160000000Y-92511578D02*
X159923809Y-92549673D01*
X159923809Y-92549673D02*
X159885714Y-92587768D01*
X159885714Y-92587768D02*
X159809524Y-92702054D01*
X159809524Y-92702054D02*
X159771428Y-92854435D01*
X159771428Y-92854435D02*
X159771428Y-93159197D01*
X159771428Y-93159197D02*
X159809524Y-93235387D01*
X159809524Y-93235387D02*
X159847619Y-93273483D01*
X159847619Y-93273483D02*
X159923809Y-93311578D01*
X159923809Y-93311578D02*
X160076190Y-93311578D01*
X160076190Y-93311578D02*
X160152381Y-93273483D01*
X160152381Y-93273483D02*
X160190476Y-93235387D01*
X160190476Y-93235387D02*
X160228571Y-93159197D01*
X160228571Y-93159197D02*
X160228571Y-92968721D01*
X160228571Y-92968721D02*
X160190476Y-92892530D01*
X160190476Y-92892530D02*
X160152381Y-92854435D01*
X160152381Y-92854435D02*
X160076190Y-92816340D01*
X160076190Y-92816340D02*
X159923809Y-92816340D01*
X159923809Y-92816340D02*
X159847619Y-92854435D01*
X159847619Y-92854435D02*
X159809524Y-92892530D01*
X159809524Y-92892530D02*
X159771428Y-92968721D01*
X159733333Y-95114396D02*
X160266667Y-95114396D01*
X160266667Y-95114396D02*
X159923809Y-95914396D01*
X160228571Y-90006532D02*
X160152381Y-89968437D01*
X160152381Y-89968437D02*
X160038095Y-89968437D01*
X160038095Y-89968437D02*
X159923809Y-90006532D01*
X159923809Y-90006532D02*
X159847619Y-90082722D01*
X159847619Y-90082722D02*
X159809524Y-90158913D01*
X159809524Y-90158913D02*
X159771428Y-90311294D01*
X159771428Y-90311294D02*
X159771428Y-90425580D01*
X159771428Y-90425580D02*
X159809524Y-90577961D01*
X159809524Y-90577961D02*
X159847619Y-90654151D01*
X159847619Y-90654151D02*
X159923809Y-90730342D01*
X159923809Y-90730342D02*
X160038095Y-90768437D01*
X160038095Y-90768437D02*
X160114286Y-90768437D01*
X160114286Y-90768437D02*
X160228571Y-90730342D01*
X160228571Y-90730342D02*
X160266667Y-90692246D01*
X160266667Y-90692246D02*
X160266667Y-90425580D01*
X160266667Y-90425580D02*
X160114286Y-90425580D01*
X160228571Y-82382234D02*
X160152381Y-82344139D01*
X160152381Y-82344139D02*
X160038095Y-82344139D01*
X160038095Y-82344139D02*
X159923809Y-82382234D01*
X159923809Y-82382234D02*
X159847619Y-82458424D01*
X159847619Y-82458424D02*
X159809524Y-82534615D01*
X159809524Y-82534615D02*
X159771428Y-82686996D01*
X159771428Y-82686996D02*
X159771428Y-82801282D01*
X159771428Y-82801282D02*
X159809524Y-82953663D01*
X159809524Y-82953663D02*
X159847619Y-83029853D01*
X159847619Y-83029853D02*
X159923809Y-83106044D01*
X159923809Y-83106044D02*
X160038095Y-83144139D01*
X160038095Y-83144139D02*
X160114286Y-83144139D01*
X160114286Y-83144139D02*
X160228571Y-83106044D01*
X160228571Y-83106044D02*
X160266667Y-83067948D01*
X160266667Y-83067948D02*
X160266667Y-82801282D01*
X160266667Y-82801282D02*
X160114286Y-82801282D01*
X160609524Y-83144139D02*
X160609524Y-82344139D01*
X160609524Y-82344139D02*
X160914286Y-82344139D01*
X160914286Y-82344139D02*
X160990476Y-82382234D01*
X160990476Y-82382234D02*
X161028571Y-82420329D01*
X161028571Y-82420329D02*
X161066667Y-82496520D01*
X161066667Y-82496520D02*
X161066667Y-82610805D01*
X161066667Y-82610805D02*
X161028571Y-82686996D01*
X161028571Y-82686996D02*
X160990476Y-82725091D01*
X160990476Y-82725091D02*
X160914286Y-82763186D01*
X160914286Y-82763186D02*
X160609524Y-82763186D01*
X161333333Y-82344139D02*
X161828571Y-82344139D01*
X161828571Y-82344139D02*
X161561905Y-82648901D01*
X161561905Y-82648901D02*
X161676190Y-82648901D01*
X161676190Y-82648901D02*
X161752381Y-82686996D01*
X161752381Y-82686996D02*
X161790476Y-82725091D01*
X161790476Y-82725091D02*
X161828571Y-82801282D01*
X161828571Y-82801282D02*
X161828571Y-82991758D01*
X161828571Y-82991758D02*
X161790476Y-83067948D01*
X161790476Y-83067948D02*
X161752381Y-83106044D01*
X161752381Y-83106044D02*
X161676190Y-83144139D01*
X161676190Y-83144139D02*
X161447619Y-83144139D01*
X161447619Y-83144139D02*
X161371428Y-83106044D01*
X161371428Y-83106044D02*
X161333333Y-83067948D01*
X160238571Y-72297234D02*
X160162381Y-72259139D01*
X160162381Y-72259139D02*
X160048095Y-72259139D01*
X160048095Y-72259139D02*
X159933809Y-72297234D01*
X159933809Y-72297234D02*
X159857619Y-72373424D01*
X159857619Y-72373424D02*
X159819524Y-72449615D01*
X159819524Y-72449615D02*
X159781428Y-72601996D01*
X159781428Y-72601996D02*
X159781428Y-72716282D01*
X159781428Y-72716282D02*
X159819524Y-72868663D01*
X159819524Y-72868663D02*
X159857619Y-72944853D01*
X159857619Y-72944853D02*
X159933809Y-73021044D01*
X159933809Y-73021044D02*
X160048095Y-73059139D01*
X160048095Y-73059139D02*
X160124286Y-73059139D01*
X160124286Y-73059139D02*
X160238571Y-73021044D01*
X160238571Y-73021044D02*
X160276667Y-72982948D01*
X160276667Y-72982948D02*
X160276667Y-72716282D01*
X160276667Y-72716282D02*
X160124286Y-72716282D01*
X160619524Y-73059139D02*
X160619524Y-72259139D01*
X160619524Y-72259139D02*
X160924286Y-72259139D01*
X160924286Y-72259139D02*
X161000476Y-72297234D01*
X161000476Y-72297234D02*
X161038571Y-72335329D01*
X161038571Y-72335329D02*
X161076667Y-72411520D01*
X161076667Y-72411520D02*
X161076667Y-72525805D01*
X161076667Y-72525805D02*
X161038571Y-72601996D01*
X161038571Y-72601996D02*
X161000476Y-72640091D01*
X161000476Y-72640091D02*
X160924286Y-72678186D01*
X160924286Y-72678186D02*
X160619524Y-72678186D01*
X161571905Y-72259139D02*
X161648095Y-72259139D01*
X161648095Y-72259139D02*
X161724286Y-72297234D01*
X161724286Y-72297234D02*
X161762381Y-72335329D01*
X161762381Y-72335329D02*
X161800476Y-72411520D01*
X161800476Y-72411520D02*
X161838571Y-72563901D01*
X161838571Y-72563901D02*
X161838571Y-72754377D01*
X161838571Y-72754377D02*
X161800476Y-72906758D01*
X161800476Y-72906758D02*
X161762381Y-72982948D01*
X161762381Y-72982948D02*
X161724286Y-73021044D01*
X161724286Y-73021044D02*
X161648095Y-73059139D01*
X161648095Y-73059139D02*
X161571905Y-73059139D01*
X161571905Y-73059139D02*
X161495714Y-73021044D01*
X161495714Y-73021044D02*
X161457619Y-72982948D01*
X161457619Y-72982948D02*
X161419524Y-72906758D01*
X161419524Y-72906758D02*
X161381428Y-72754377D01*
X161381428Y-72754377D02*
X161381428Y-72563901D01*
X161381428Y-72563901D02*
X161419524Y-72411520D01*
X161419524Y-72411520D02*
X161457619Y-72335329D01*
X161457619Y-72335329D02*
X161495714Y-72297234D01*
X161495714Y-72297234D02*
X161571905Y-72259139D01*
X160238571Y-74836707D02*
X160162381Y-74798612D01*
X160162381Y-74798612D02*
X160048095Y-74798612D01*
X160048095Y-74798612D02*
X159933809Y-74836707D01*
X159933809Y-74836707D02*
X159857619Y-74912897D01*
X159857619Y-74912897D02*
X159819524Y-74989088D01*
X159819524Y-74989088D02*
X159781428Y-75141469D01*
X159781428Y-75141469D02*
X159781428Y-75255755D01*
X159781428Y-75255755D02*
X159819524Y-75408136D01*
X159819524Y-75408136D02*
X159857619Y-75484326D01*
X159857619Y-75484326D02*
X159933809Y-75560517D01*
X159933809Y-75560517D02*
X160048095Y-75598612D01*
X160048095Y-75598612D02*
X160124286Y-75598612D01*
X160124286Y-75598612D02*
X160238571Y-75560517D01*
X160238571Y-75560517D02*
X160276667Y-75522421D01*
X160276667Y-75522421D02*
X160276667Y-75255755D01*
X160276667Y-75255755D02*
X160124286Y-75255755D01*
X160619524Y-75598612D02*
X160619524Y-74798612D01*
X160619524Y-74798612D02*
X160924286Y-74798612D01*
X160924286Y-74798612D02*
X161000476Y-74836707D01*
X161000476Y-74836707D02*
X161038571Y-74874802D01*
X161038571Y-74874802D02*
X161076667Y-74950993D01*
X161076667Y-74950993D02*
X161076667Y-75065278D01*
X161076667Y-75065278D02*
X161038571Y-75141469D01*
X161038571Y-75141469D02*
X161000476Y-75179564D01*
X161000476Y-75179564D02*
X160924286Y-75217659D01*
X160924286Y-75217659D02*
X160619524Y-75217659D01*
X161838571Y-75598612D02*
X161381428Y-75598612D01*
X161610000Y-75598612D02*
X161610000Y-74798612D01*
X161610000Y-74798612D02*
X161533809Y-74912897D01*
X161533809Y-74912897D02*
X161457619Y-74989088D01*
X161457619Y-74989088D02*
X161381428Y-75027183D01*
X160238571Y-79834995D02*
X160162381Y-79796900D01*
X160162381Y-79796900D02*
X160048095Y-79796900D01*
X160048095Y-79796900D02*
X159933809Y-79834995D01*
X159933809Y-79834995D02*
X159857619Y-79911185D01*
X159857619Y-79911185D02*
X159819524Y-79987376D01*
X159819524Y-79987376D02*
X159781428Y-80139757D01*
X159781428Y-80139757D02*
X159781428Y-80254043D01*
X159781428Y-80254043D02*
X159819524Y-80406424D01*
X159819524Y-80406424D02*
X159857619Y-80482614D01*
X159857619Y-80482614D02*
X159933809Y-80558805D01*
X159933809Y-80558805D02*
X160048095Y-80596900D01*
X160048095Y-80596900D02*
X160124286Y-80596900D01*
X160124286Y-80596900D02*
X160238571Y-80558805D01*
X160238571Y-80558805D02*
X160276667Y-80520709D01*
X160276667Y-80520709D02*
X160276667Y-80254043D01*
X160276667Y-80254043D02*
X160124286Y-80254043D01*
X160619524Y-80596900D02*
X160619524Y-79796900D01*
X160619524Y-79796900D02*
X160924286Y-79796900D01*
X160924286Y-79796900D02*
X161000476Y-79834995D01*
X161000476Y-79834995D02*
X161038571Y-79873090D01*
X161038571Y-79873090D02*
X161076667Y-79949281D01*
X161076667Y-79949281D02*
X161076667Y-80063566D01*
X161076667Y-80063566D02*
X161038571Y-80139757D01*
X161038571Y-80139757D02*
X161000476Y-80177852D01*
X161000476Y-80177852D02*
X160924286Y-80215947D01*
X160924286Y-80215947D02*
X160619524Y-80215947D01*
X161381428Y-79873090D02*
X161419524Y-79834995D01*
X161419524Y-79834995D02*
X161495714Y-79796900D01*
X161495714Y-79796900D02*
X161686190Y-79796900D01*
X161686190Y-79796900D02*
X161762381Y-79834995D01*
X161762381Y-79834995D02*
X161800476Y-79873090D01*
X161800476Y-79873090D02*
X161838571Y-79949281D01*
X161838571Y-79949281D02*
X161838571Y-80025471D01*
X161838571Y-80025471D02*
X161800476Y-80139757D01*
X161800476Y-80139757D02*
X161343333Y-80596900D01*
X161343333Y-80596900D02*
X161838571Y-80596900D01*
X160238571Y-97691964D02*
X160162381Y-97653869D01*
X160162381Y-97653869D02*
X160048095Y-97653869D01*
X160048095Y-97653869D02*
X159933809Y-97691964D01*
X159933809Y-97691964D02*
X159857619Y-97768154D01*
X159857619Y-97768154D02*
X159819524Y-97844345D01*
X159819524Y-97844345D02*
X159781428Y-97996726D01*
X159781428Y-97996726D02*
X159781428Y-98111012D01*
X159781428Y-98111012D02*
X159819524Y-98263393D01*
X159819524Y-98263393D02*
X159857619Y-98339583D01*
X159857619Y-98339583D02*
X159933809Y-98415774D01*
X159933809Y-98415774D02*
X160048095Y-98453869D01*
X160048095Y-98453869D02*
X160124286Y-98453869D01*
X160124286Y-98453869D02*
X160238571Y-98415774D01*
X160238571Y-98415774D02*
X160276667Y-98377678D01*
X160276667Y-98377678D02*
X160276667Y-98111012D01*
X160276667Y-98111012D02*
X160124286Y-98111012D01*
X160619524Y-98453869D02*
X160619524Y-97653869D01*
X160619524Y-97653869D02*
X160924286Y-97653869D01*
X160924286Y-97653869D02*
X161000476Y-97691964D01*
X161000476Y-97691964D02*
X161038571Y-97730059D01*
X161038571Y-97730059D02*
X161076667Y-97806250D01*
X161076667Y-97806250D02*
X161076667Y-97920535D01*
X161076667Y-97920535D02*
X161038571Y-97996726D01*
X161038571Y-97996726D02*
X161000476Y-98034821D01*
X161000476Y-98034821D02*
X160924286Y-98072916D01*
X160924286Y-98072916D02*
X160619524Y-98072916D01*
X161533809Y-97996726D02*
X161457619Y-97958631D01*
X161457619Y-97958631D02*
X161419524Y-97920535D01*
X161419524Y-97920535D02*
X161381428Y-97844345D01*
X161381428Y-97844345D02*
X161381428Y-97806250D01*
X161381428Y-97806250D02*
X161419524Y-97730059D01*
X161419524Y-97730059D02*
X161457619Y-97691964D01*
X161457619Y-97691964D02*
X161533809Y-97653869D01*
X161533809Y-97653869D02*
X161686190Y-97653869D01*
X161686190Y-97653869D02*
X161762381Y-97691964D01*
X161762381Y-97691964D02*
X161800476Y-97730059D01*
X161800476Y-97730059D02*
X161838571Y-97806250D01*
X161838571Y-97806250D02*
X161838571Y-97844345D01*
X161838571Y-97844345D02*
X161800476Y-97920535D01*
X161800476Y-97920535D02*
X161762381Y-97958631D01*
X161762381Y-97958631D02*
X161686190Y-97996726D01*
X161686190Y-97996726D02*
X161533809Y-97996726D01*
X161533809Y-97996726D02*
X161457619Y-98034821D01*
X161457619Y-98034821D02*
X161419524Y-98072916D01*
X161419524Y-98072916D02*
X161381428Y-98149107D01*
X161381428Y-98149107D02*
X161381428Y-98301488D01*
X161381428Y-98301488D02*
X161419524Y-98377678D01*
X161419524Y-98377678D02*
X161457619Y-98415774D01*
X161457619Y-98415774D02*
X161533809Y-98453869D01*
X161533809Y-98453869D02*
X161686190Y-98453869D01*
X161686190Y-98453869D02*
X161762381Y-98415774D01*
X161762381Y-98415774D02*
X161800476Y-98377678D01*
X161800476Y-98377678D02*
X161838571Y-98301488D01*
X161838571Y-98301488D02*
X161838571Y-98149107D01*
X161838571Y-98149107D02*
X161800476Y-98072916D01*
X161800476Y-98072916D02*
X161762381Y-98034821D01*
X161762381Y-98034821D02*
X161686190Y-97996726D01*
X160238571Y-100231437D02*
X160162381Y-100193342D01*
X160162381Y-100193342D02*
X160048095Y-100193342D01*
X160048095Y-100193342D02*
X159933809Y-100231437D01*
X159933809Y-100231437D02*
X159857619Y-100307627D01*
X159857619Y-100307627D02*
X159819524Y-100383818D01*
X159819524Y-100383818D02*
X159781428Y-100536199D01*
X159781428Y-100536199D02*
X159781428Y-100650485D01*
X159781428Y-100650485D02*
X159819524Y-100802866D01*
X159819524Y-100802866D02*
X159857619Y-100879056D01*
X159857619Y-100879056D02*
X159933809Y-100955247D01*
X159933809Y-100955247D02*
X160048095Y-100993342D01*
X160048095Y-100993342D02*
X160124286Y-100993342D01*
X160124286Y-100993342D02*
X160238571Y-100955247D01*
X160238571Y-100955247D02*
X160276667Y-100917151D01*
X160276667Y-100917151D02*
X160276667Y-100650485D01*
X160276667Y-100650485D02*
X160124286Y-100650485D01*
X160619524Y-100993342D02*
X160619524Y-100193342D01*
X160619524Y-100193342D02*
X160924286Y-100193342D01*
X160924286Y-100193342D02*
X161000476Y-100231437D01*
X161000476Y-100231437D02*
X161038571Y-100269532D01*
X161038571Y-100269532D02*
X161076667Y-100345723D01*
X161076667Y-100345723D02*
X161076667Y-100460008D01*
X161076667Y-100460008D02*
X161038571Y-100536199D01*
X161038571Y-100536199D02*
X161000476Y-100574294D01*
X161000476Y-100574294D02*
X160924286Y-100612389D01*
X160924286Y-100612389D02*
X160619524Y-100612389D01*
X161457619Y-100993342D02*
X161610000Y-100993342D01*
X161610000Y-100993342D02*
X161686190Y-100955247D01*
X161686190Y-100955247D02*
X161724286Y-100917151D01*
X161724286Y-100917151D02*
X161800476Y-100802866D01*
X161800476Y-100802866D02*
X161838571Y-100650485D01*
X161838571Y-100650485D02*
X161838571Y-100345723D01*
X161838571Y-100345723D02*
X161800476Y-100269532D01*
X161800476Y-100269532D02*
X161762381Y-100231437D01*
X161762381Y-100231437D02*
X161686190Y-100193342D01*
X161686190Y-100193342D02*
X161533809Y-100193342D01*
X161533809Y-100193342D02*
X161457619Y-100231437D01*
X161457619Y-100231437D02*
X161419524Y-100269532D01*
X161419524Y-100269532D02*
X161381428Y-100345723D01*
X161381428Y-100345723D02*
X161381428Y-100536199D01*
X161381428Y-100536199D02*
X161419524Y-100612389D01*
X161419524Y-100612389D02*
X161457619Y-100650485D01*
X161457619Y-100650485D02*
X161533809Y-100688580D01*
X161533809Y-100688580D02*
X161686190Y-100688580D01*
X161686190Y-100688580D02*
X161762381Y-100650485D01*
X161762381Y-100650485D02*
X161800476Y-100612389D01*
X161800476Y-100612389D02*
X161838571Y-100536199D01*
X160238571Y-77376180D02*
X160162381Y-77338085D01*
X160162381Y-77338085D02*
X160048095Y-77338085D01*
X160048095Y-77338085D02*
X159933809Y-77376180D01*
X159933809Y-77376180D02*
X159857619Y-77452370D01*
X159857619Y-77452370D02*
X159819524Y-77528561D01*
X159819524Y-77528561D02*
X159781428Y-77680942D01*
X159781428Y-77680942D02*
X159781428Y-77795228D01*
X159781428Y-77795228D02*
X159819524Y-77947609D01*
X159819524Y-77947609D02*
X159857619Y-78023799D01*
X159857619Y-78023799D02*
X159933809Y-78099990D01*
X159933809Y-78099990D02*
X160048095Y-78138085D01*
X160048095Y-78138085D02*
X160124286Y-78138085D01*
X160124286Y-78138085D02*
X160238571Y-78099990D01*
X160238571Y-78099990D02*
X160276667Y-78061894D01*
X160276667Y-78061894D02*
X160276667Y-77795228D01*
X160276667Y-77795228D02*
X160124286Y-77795228D01*
X160619524Y-78138085D02*
X160619524Y-77338085D01*
X160619524Y-77338085D02*
X161076667Y-78138085D01*
X161076667Y-78138085D02*
X161076667Y-77338085D01*
X161457619Y-78138085D02*
X161457619Y-77338085D01*
X161457619Y-77338085D02*
X161648095Y-77338085D01*
X161648095Y-77338085D02*
X161762381Y-77376180D01*
X161762381Y-77376180D02*
X161838571Y-77452370D01*
X161838571Y-77452370D02*
X161876666Y-77528561D01*
X161876666Y-77528561D02*
X161914762Y-77680942D01*
X161914762Y-77680942D02*
X161914762Y-77795228D01*
X161914762Y-77795228D02*
X161876666Y-77947609D01*
X161876666Y-77947609D02*
X161838571Y-78023799D01*
X161838571Y-78023799D02*
X161762381Y-78099990D01*
X161762381Y-78099990D02*
X161648095Y-78138085D01*
X161648095Y-78138085D02*
X161457619Y-78138085D01*
X160238571Y-102770910D02*
X160162381Y-102732815D01*
X160162381Y-102732815D02*
X160048095Y-102732815D01*
X160048095Y-102732815D02*
X159933809Y-102770910D01*
X159933809Y-102770910D02*
X159857619Y-102847100D01*
X159857619Y-102847100D02*
X159819524Y-102923291D01*
X159819524Y-102923291D02*
X159781428Y-103075672D01*
X159781428Y-103075672D02*
X159781428Y-103189958D01*
X159781428Y-103189958D02*
X159819524Y-103342339D01*
X159819524Y-103342339D02*
X159857619Y-103418529D01*
X159857619Y-103418529D02*
X159933809Y-103494720D01*
X159933809Y-103494720D02*
X160048095Y-103532815D01*
X160048095Y-103532815D02*
X160124286Y-103532815D01*
X160124286Y-103532815D02*
X160238571Y-103494720D01*
X160238571Y-103494720D02*
X160276667Y-103456624D01*
X160276667Y-103456624D02*
X160276667Y-103189958D01*
X160276667Y-103189958D02*
X160124286Y-103189958D01*
X160619524Y-103532815D02*
X160619524Y-102732815D01*
X160619524Y-102732815D02*
X161076667Y-103532815D01*
X161076667Y-103532815D02*
X161076667Y-102732815D01*
X161457619Y-103532815D02*
X161457619Y-102732815D01*
X161457619Y-102732815D02*
X161648095Y-102732815D01*
X161648095Y-102732815D02*
X161762381Y-102770910D01*
X161762381Y-102770910D02*
X161838571Y-102847100D01*
X161838571Y-102847100D02*
X161876666Y-102923291D01*
X161876666Y-102923291D02*
X161914762Y-103075672D01*
X161914762Y-103075672D02*
X161914762Y-103189958D01*
X161914762Y-103189958D02*
X161876666Y-103342339D01*
X161876666Y-103342339D02*
X161838571Y-103418529D01*
X161838571Y-103418529D02*
X161762381Y-103494720D01*
X161762381Y-103494720D02*
X161648095Y-103532815D01*
X161648095Y-103532815D02*
X161457619Y-103532815D01*
X160238571Y-115468275D02*
X160162381Y-115430180D01*
X160162381Y-115430180D02*
X160048095Y-115430180D01*
X160048095Y-115430180D02*
X159933809Y-115468275D01*
X159933809Y-115468275D02*
X159857619Y-115544465D01*
X159857619Y-115544465D02*
X159819524Y-115620656D01*
X159819524Y-115620656D02*
X159781428Y-115773037D01*
X159781428Y-115773037D02*
X159781428Y-115887323D01*
X159781428Y-115887323D02*
X159819524Y-116039704D01*
X159819524Y-116039704D02*
X159857619Y-116115894D01*
X159857619Y-116115894D02*
X159933809Y-116192085D01*
X159933809Y-116192085D02*
X160048095Y-116230180D01*
X160048095Y-116230180D02*
X160124286Y-116230180D01*
X160124286Y-116230180D02*
X160238571Y-116192085D01*
X160238571Y-116192085D02*
X160276667Y-116153989D01*
X160276667Y-116153989D02*
X160276667Y-115887323D01*
X160276667Y-115887323D02*
X160124286Y-115887323D01*
X160619524Y-116230180D02*
X160619524Y-115430180D01*
X160619524Y-115430180D02*
X161076667Y-116230180D01*
X161076667Y-116230180D02*
X161076667Y-115430180D01*
X161457619Y-116230180D02*
X161457619Y-115430180D01*
X161457619Y-115430180D02*
X161648095Y-115430180D01*
X161648095Y-115430180D02*
X161762381Y-115468275D01*
X161762381Y-115468275D02*
X161838571Y-115544465D01*
X161838571Y-115544465D02*
X161876666Y-115620656D01*
X161876666Y-115620656D02*
X161914762Y-115773037D01*
X161914762Y-115773037D02*
X161914762Y-115887323D01*
X161914762Y-115887323D02*
X161876666Y-116039704D01*
X161876666Y-116039704D02*
X161838571Y-116115894D01*
X161838571Y-116115894D02*
X161762381Y-116192085D01*
X161762381Y-116192085D02*
X161648095Y-116230180D01*
X161648095Y-116230180D02*
X161457619Y-116230180D01*
X160238571Y-105310383D02*
X160162381Y-105272288D01*
X160162381Y-105272288D02*
X160048095Y-105272288D01*
X160048095Y-105272288D02*
X159933809Y-105310383D01*
X159933809Y-105310383D02*
X159857619Y-105386573D01*
X159857619Y-105386573D02*
X159819524Y-105462764D01*
X159819524Y-105462764D02*
X159781428Y-105615145D01*
X159781428Y-105615145D02*
X159781428Y-105729431D01*
X159781428Y-105729431D02*
X159819524Y-105881812D01*
X159819524Y-105881812D02*
X159857619Y-105958002D01*
X159857619Y-105958002D02*
X159933809Y-106034193D01*
X159933809Y-106034193D02*
X160048095Y-106072288D01*
X160048095Y-106072288D02*
X160124286Y-106072288D01*
X160124286Y-106072288D02*
X160238571Y-106034193D01*
X160238571Y-106034193D02*
X160276667Y-105996097D01*
X160276667Y-105996097D02*
X160276667Y-105729431D01*
X160276667Y-105729431D02*
X160124286Y-105729431D01*
X160619524Y-106072288D02*
X160619524Y-105272288D01*
X160619524Y-105272288D02*
X160924286Y-105272288D01*
X160924286Y-105272288D02*
X161000476Y-105310383D01*
X161000476Y-105310383D02*
X161038571Y-105348478D01*
X161038571Y-105348478D02*
X161076667Y-105424669D01*
X161076667Y-105424669D02*
X161076667Y-105538954D01*
X161076667Y-105538954D02*
X161038571Y-105615145D01*
X161038571Y-105615145D02*
X161000476Y-105653240D01*
X161000476Y-105653240D02*
X160924286Y-105691335D01*
X160924286Y-105691335D02*
X160619524Y-105691335D01*
X161838571Y-106072288D02*
X161381428Y-106072288D01*
X161610000Y-106072288D02*
X161610000Y-105272288D01*
X161610000Y-105272288D02*
X161533809Y-105386573D01*
X161533809Y-105386573D02*
X161457619Y-105462764D01*
X161457619Y-105462764D02*
X161381428Y-105500859D01*
X162333810Y-105272288D02*
X162410000Y-105272288D01*
X162410000Y-105272288D02*
X162486191Y-105310383D01*
X162486191Y-105310383D02*
X162524286Y-105348478D01*
X162524286Y-105348478D02*
X162562381Y-105424669D01*
X162562381Y-105424669D02*
X162600476Y-105577050D01*
X162600476Y-105577050D02*
X162600476Y-105767526D01*
X162600476Y-105767526D02*
X162562381Y-105919907D01*
X162562381Y-105919907D02*
X162524286Y-105996097D01*
X162524286Y-105996097D02*
X162486191Y-106034193D01*
X162486191Y-106034193D02*
X162410000Y-106072288D01*
X162410000Y-106072288D02*
X162333810Y-106072288D01*
X162333810Y-106072288D02*
X162257619Y-106034193D01*
X162257619Y-106034193D02*
X162219524Y-105996097D01*
X162219524Y-105996097D02*
X162181429Y-105919907D01*
X162181429Y-105919907D02*
X162143333Y-105767526D01*
X162143333Y-105767526D02*
X162143333Y-105577050D01*
X162143333Y-105577050D02*
X162181429Y-105424669D01*
X162181429Y-105424669D02*
X162219524Y-105348478D01*
X162219524Y-105348478D02*
X162257619Y-105310383D01*
X162257619Y-105310383D02*
X162333810Y-105272288D01*
X160238571Y-112928802D02*
X160162381Y-112890707D01*
X160162381Y-112890707D02*
X160048095Y-112890707D01*
X160048095Y-112890707D02*
X159933809Y-112928802D01*
X159933809Y-112928802D02*
X159857619Y-113004992D01*
X159857619Y-113004992D02*
X159819524Y-113081183D01*
X159819524Y-113081183D02*
X159781428Y-113233564D01*
X159781428Y-113233564D02*
X159781428Y-113347850D01*
X159781428Y-113347850D02*
X159819524Y-113500231D01*
X159819524Y-113500231D02*
X159857619Y-113576421D01*
X159857619Y-113576421D02*
X159933809Y-113652612D01*
X159933809Y-113652612D02*
X160048095Y-113690707D01*
X160048095Y-113690707D02*
X160124286Y-113690707D01*
X160124286Y-113690707D02*
X160238571Y-113652612D01*
X160238571Y-113652612D02*
X160276667Y-113614516D01*
X160276667Y-113614516D02*
X160276667Y-113347850D01*
X160276667Y-113347850D02*
X160124286Y-113347850D01*
X160619524Y-113690707D02*
X160619524Y-112890707D01*
X160619524Y-112890707D02*
X160924286Y-112890707D01*
X160924286Y-112890707D02*
X161000476Y-112928802D01*
X161000476Y-112928802D02*
X161038571Y-112966897D01*
X161038571Y-112966897D02*
X161076667Y-113043088D01*
X161076667Y-113043088D02*
X161076667Y-113157373D01*
X161076667Y-113157373D02*
X161038571Y-113233564D01*
X161038571Y-113233564D02*
X161000476Y-113271659D01*
X161000476Y-113271659D02*
X160924286Y-113309754D01*
X160924286Y-113309754D02*
X160619524Y-113309754D01*
X161838571Y-113690707D02*
X161381428Y-113690707D01*
X161610000Y-113690707D02*
X161610000Y-112890707D01*
X161610000Y-112890707D02*
X161533809Y-113004992D01*
X161533809Y-113004992D02*
X161457619Y-113081183D01*
X161457619Y-113081183D02*
X161381428Y-113119278D01*
X162105238Y-112890707D02*
X162600476Y-112890707D01*
X162600476Y-112890707D02*
X162333810Y-113195469D01*
X162333810Y-113195469D02*
X162448095Y-113195469D01*
X162448095Y-113195469D02*
X162524286Y-113233564D01*
X162524286Y-113233564D02*
X162562381Y-113271659D01*
X162562381Y-113271659D02*
X162600476Y-113347850D01*
X162600476Y-113347850D02*
X162600476Y-113538326D01*
X162600476Y-113538326D02*
X162562381Y-113614516D01*
X162562381Y-113614516D02*
X162524286Y-113652612D01*
X162524286Y-113652612D02*
X162448095Y-113690707D01*
X162448095Y-113690707D02*
X162219524Y-113690707D01*
X162219524Y-113690707D02*
X162143333Y-113652612D01*
X162143333Y-113652612D02*
X162105238Y-113614516D01*
X160238571Y-118007748D02*
X160162381Y-117969653D01*
X160162381Y-117969653D02*
X160048095Y-117969653D01*
X160048095Y-117969653D02*
X159933809Y-118007748D01*
X159933809Y-118007748D02*
X159857619Y-118083938D01*
X159857619Y-118083938D02*
X159819524Y-118160129D01*
X159819524Y-118160129D02*
X159781428Y-118312510D01*
X159781428Y-118312510D02*
X159781428Y-118426796D01*
X159781428Y-118426796D02*
X159819524Y-118579177D01*
X159819524Y-118579177D02*
X159857619Y-118655367D01*
X159857619Y-118655367D02*
X159933809Y-118731558D01*
X159933809Y-118731558D02*
X160048095Y-118769653D01*
X160048095Y-118769653D02*
X160124286Y-118769653D01*
X160124286Y-118769653D02*
X160238571Y-118731558D01*
X160238571Y-118731558D02*
X160276667Y-118693462D01*
X160276667Y-118693462D02*
X160276667Y-118426796D01*
X160276667Y-118426796D02*
X160124286Y-118426796D01*
X160619524Y-118769653D02*
X160619524Y-117969653D01*
X160619524Y-117969653D02*
X160924286Y-117969653D01*
X160924286Y-117969653D02*
X161000476Y-118007748D01*
X161000476Y-118007748D02*
X161038571Y-118045843D01*
X161038571Y-118045843D02*
X161076667Y-118122034D01*
X161076667Y-118122034D02*
X161076667Y-118236319D01*
X161076667Y-118236319D02*
X161038571Y-118312510D01*
X161038571Y-118312510D02*
X161000476Y-118350605D01*
X161000476Y-118350605D02*
X160924286Y-118388700D01*
X160924286Y-118388700D02*
X160619524Y-118388700D01*
X161838571Y-118769653D02*
X161381428Y-118769653D01*
X161610000Y-118769653D02*
X161610000Y-117969653D01*
X161610000Y-117969653D02*
X161533809Y-118083938D01*
X161533809Y-118083938D02*
X161457619Y-118160129D01*
X161457619Y-118160129D02*
X161381428Y-118198224D01*
X162524286Y-118236319D02*
X162524286Y-118769653D01*
X162333810Y-117931558D02*
X162143333Y-118502986D01*
X162143333Y-118502986D02*
X162638572Y-118502986D01*
X160238571Y-120547234D02*
X160162381Y-120509139D01*
X160162381Y-120509139D02*
X160048095Y-120509139D01*
X160048095Y-120509139D02*
X159933809Y-120547234D01*
X159933809Y-120547234D02*
X159857619Y-120623424D01*
X159857619Y-120623424D02*
X159819524Y-120699615D01*
X159819524Y-120699615D02*
X159781428Y-120851996D01*
X159781428Y-120851996D02*
X159781428Y-120966282D01*
X159781428Y-120966282D02*
X159819524Y-121118663D01*
X159819524Y-121118663D02*
X159857619Y-121194853D01*
X159857619Y-121194853D02*
X159933809Y-121271044D01*
X159933809Y-121271044D02*
X160048095Y-121309139D01*
X160048095Y-121309139D02*
X160124286Y-121309139D01*
X160124286Y-121309139D02*
X160238571Y-121271044D01*
X160238571Y-121271044D02*
X160276667Y-121232948D01*
X160276667Y-121232948D02*
X160276667Y-120966282D01*
X160276667Y-120966282D02*
X160124286Y-120966282D01*
X160619524Y-121309139D02*
X160619524Y-120509139D01*
X160619524Y-120509139D02*
X160924286Y-120509139D01*
X160924286Y-120509139D02*
X161000476Y-120547234D01*
X161000476Y-120547234D02*
X161038571Y-120585329D01*
X161038571Y-120585329D02*
X161076667Y-120661520D01*
X161076667Y-120661520D02*
X161076667Y-120775805D01*
X161076667Y-120775805D02*
X161038571Y-120851996D01*
X161038571Y-120851996D02*
X161000476Y-120890091D01*
X161000476Y-120890091D02*
X160924286Y-120928186D01*
X160924286Y-120928186D02*
X160619524Y-120928186D01*
X161838571Y-121309139D02*
X161381428Y-121309139D01*
X161610000Y-121309139D02*
X161610000Y-120509139D01*
X161610000Y-120509139D02*
X161533809Y-120623424D01*
X161533809Y-120623424D02*
X161457619Y-120699615D01*
X161457619Y-120699615D02*
X161381428Y-120737710D01*
X162562381Y-120509139D02*
X162181429Y-120509139D01*
X162181429Y-120509139D02*
X162143333Y-120890091D01*
X162143333Y-120890091D02*
X162181429Y-120851996D01*
X162181429Y-120851996D02*
X162257619Y-120813901D01*
X162257619Y-120813901D02*
X162448095Y-120813901D01*
X162448095Y-120813901D02*
X162524286Y-120851996D01*
X162524286Y-120851996D02*
X162562381Y-120890091D01*
X162562381Y-120890091D02*
X162600476Y-120966282D01*
X162600476Y-120966282D02*
X162600476Y-121156758D01*
X162600476Y-121156758D02*
X162562381Y-121232948D01*
X162562381Y-121232948D02*
X162524286Y-121271044D01*
X162524286Y-121271044D02*
X162448095Y-121309139D01*
X162448095Y-121309139D02*
X162257619Y-121309139D01*
X162257619Y-121309139D02*
X162181429Y-121271044D01*
X162181429Y-121271044D02*
X162143333Y-121232948D01*
X172867618Y-92422234D02*
X172791428Y-92384139D01*
X172791428Y-92384139D02*
X172677142Y-92384139D01*
X172677142Y-92384139D02*
X172562856Y-92422234D01*
X172562856Y-92422234D02*
X172486666Y-92498424D01*
X172486666Y-92498424D02*
X172448571Y-92574615D01*
X172448571Y-92574615D02*
X172410475Y-92726996D01*
X172410475Y-92726996D02*
X172410475Y-92841282D01*
X172410475Y-92841282D02*
X172448571Y-92993663D01*
X172448571Y-92993663D02*
X172486666Y-93069853D01*
X172486666Y-93069853D02*
X172562856Y-93146044D01*
X172562856Y-93146044D02*
X172677142Y-93184139D01*
X172677142Y-93184139D02*
X172753333Y-93184139D01*
X172753333Y-93184139D02*
X172867618Y-93146044D01*
X172867618Y-93146044D02*
X172905714Y-93107948D01*
X172905714Y-93107948D02*
X172905714Y-92841282D01*
X172905714Y-92841282D02*
X172753333Y-92841282D01*
X173248571Y-93184139D02*
X173248571Y-92384139D01*
X173248571Y-92384139D02*
X173553333Y-92384139D01*
X173553333Y-92384139D02*
X173629523Y-92422234D01*
X173629523Y-92422234D02*
X173667618Y-92460329D01*
X173667618Y-92460329D02*
X173705714Y-92536520D01*
X173705714Y-92536520D02*
X173705714Y-92650805D01*
X173705714Y-92650805D02*
X173667618Y-92726996D01*
X173667618Y-92726996D02*
X173629523Y-92765091D01*
X173629523Y-92765091D02*
X173553333Y-92803186D01*
X173553333Y-92803186D02*
X173248571Y-92803186D01*
X174010475Y-92460329D02*
X174048571Y-92422234D01*
X174048571Y-92422234D02*
X174124761Y-92384139D01*
X174124761Y-92384139D02*
X174315237Y-92384139D01*
X174315237Y-92384139D02*
X174391428Y-92422234D01*
X174391428Y-92422234D02*
X174429523Y-92460329D01*
X174429523Y-92460329D02*
X174467618Y-92536520D01*
X174467618Y-92536520D02*
X174467618Y-92612710D01*
X174467618Y-92612710D02*
X174429523Y-92726996D01*
X174429523Y-92726996D02*
X173972380Y-93184139D01*
X173972380Y-93184139D02*
X174467618Y-93184139D01*
X174734285Y-92384139D02*
X175267619Y-92384139D01*
X175267619Y-92384139D02*
X174924761Y-93184139D01*
X172887618Y-87537234D02*
X172811428Y-87499139D01*
X172811428Y-87499139D02*
X172697142Y-87499139D01*
X172697142Y-87499139D02*
X172582856Y-87537234D01*
X172582856Y-87537234D02*
X172506666Y-87613424D01*
X172506666Y-87613424D02*
X172468571Y-87689615D01*
X172468571Y-87689615D02*
X172430475Y-87841996D01*
X172430475Y-87841996D02*
X172430475Y-87956282D01*
X172430475Y-87956282D02*
X172468571Y-88108663D01*
X172468571Y-88108663D02*
X172506666Y-88184853D01*
X172506666Y-88184853D02*
X172582856Y-88261044D01*
X172582856Y-88261044D02*
X172697142Y-88299139D01*
X172697142Y-88299139D02*
X172773333Y-88299139D01*
X172773333Y-88299139D02*
X172887618Y-88261044D01*
X172887618Y-88261044D02*
X172925714Y-88222948D01*
X172925714Y-88222948D02*
X172925714Y-87956282D01*
X172925714Y-87956282D02*
X172773333Y-87956282D01*
X173268571Y-88299139D02*
X173268571Y-87499139D01*
X173268571Y-87499139D02*
X173573333Y-87499139D01*
X173573333Y-87499139D02*
X173649523Y-87537234D01*
X173649523Y-87537234D02*
X173687618Y-87575329D01*
X173687618Y-87575329D02*
X173725714Y-87651520D01*
X173725714Y-87651520D02*
X173725714Y-87765805D01*
X173725714Y-87765805D02*
X173687618Y-87841996D01*
X173687618Y-87841996D02*
X173649523Y-87880091D01*
X173649523Y-87880091D02*
X173573333Y-87918186D01*
X173573333Y-87918186D02*
X173268571Y-87918186D01*
X174030475Y-87575329D02*
X174068571Y-87537234D01*
X174068571Y-87537234D02*
X174144761Y-87499139D01*
X174144761Y-87499139D02*
X174335237Y-87499139D01*
X174335237Y-87499139D02*
X174411428Y-87537234D01*
X174411428Y-87537234D02*
X174449523Y-87575329D01*
X174449523Y-87575329D02*
X174487618Y-87651520D01*
X174487618Y-87651520D02*
X174487618Y-87727710D01*
X174487618Y-87727710D02*
X174449523Y-87841996D01*
X174449523Y-87841996D02*
X173992380Y-88299139D01*
X173992380Y-88299139D02*
X174487618Y-88299139D01*
X174944761Y-87841996D02*
X174868571Y-87803901D01*
X174868571Y-87803901D02*
X174830476Y-87765805D01*
X174830476Y-87765805D02*
X174792380Y-87689615D01*
X174792380Y-87689615D02*
X174792380Y-87651520D01*
X174792380Y-87651520D02*
X174830476Y-87575329D01*
X174830476Y-87575329D02*
X174868571Y-87537234D01*
X174868571Y-87537234D02*
X174944761Y-87499139D01*
X174944761Y-87499139D02*
X175097142Y-87499139D01*
X175097142Y-87499139D02*
X175173333Y-87537234D01*
X175173333Y-87537234D02*
X175211428Y-87575329D01*
X175211428Y-87575329D02*
X175249523Y-87651520D01*
X175249523Y-87651520D02*
X175249523Y-87689615D01*
X175249523Y-87689615D02*
X175211428Y-87765805D01*
X175211428Y-87765805D02*
X175173333Y-87803901D01*
X175173333Y-87803901D02*
X175097142Y-87841996D01*
X175097142Y-87841996D02*
X174944761Y-87841996D01*
X174944761Y-87841996D02*
X174868571Y-87880091D01*
X174868571Y-87880091D02*
X174830476Y-87918186D01*
X174830476Y-87918186D02*
X174792380Y-87994377D01*
X174792380Y-87994377D02*
X174792380Y-88146758D01*
X174792380Y-88146758D02*
X174830476Y-88222948D01*
X174830476Y-88222948D02*
X174868571Y-88261044D01*
X174868571Y-88261044D02*
X174944761Y-88299139D01*
X174944761Y-88299139D02*
X175097142Y-88299139D01*
X175097142Y-88299139D02*
X175173333Y-88261044D01*
X175173333Y-88261044D02*
X175211428Y-88222948D01*
X175211428Y-88222948D02*
X175249523Y-88146758D01*
X175249523Y-88146758D02*
X175249523Y-87994377D01*
X175249523Y-87994377D02*
X175211428Y-87918186D01*
X175211428Y-87918186D02*
X175173333Y-87880091D01*
X175173333Y-87880091D02*
X175097142Y-87841996D01*
X172917618Y-95157234D02*
X172841428Y-95119139D01*
X172841428Y-95119139D02*
X172727142Y-95119139D01*
X172727142Y-95119139D02*
X172612856Y-95157234D01*
X172612856Y-95157234D02*
X172536666Y-95233424D01*
X172536666Y-95233424D02*
X172498571Y-95309615D01*
X172498571Y-95309615D02*
X172460475Y-95461996D01*
X172460475Y-95461996D02*
X172460475Y-95576282D01*
X172460475Y-95576282D02*
X172498571Y-95728663D01*
X172498571Y-95728663D02*
X172536666Y-95804853D01*
X172536666Y-95804853D02*
X172612856Y-95881044D01*
X172612856Y-95881044D02*
X172727142Y-95919139D01*
X172727142Y-95919139D02*
X172803333Y-95919139D01*
X172803333Y-95919139D02*
X172917618Y-95881044D01*
X172917618Y-95881044D02*
X172955714Y-95842948D01*
X172955714Y-95842948D02*
X172955714Y-95576282D01*
X172955714Y-95576282D02*
X172803333Y-95576282D01*
X173298571Y-95919139D02*
X173298571Y-95119139D01*
X173298571Y-95119139D02*
X173603333Y-95119139D01*
X173603333Y-95119139D02*
X173679523Y-95157234D01*
X173679523Y-95157234D02*
X173717618Y-95195329D01*
X173717618Y-95195329D02*
X173755714Y-95271520D01*
X173755714Y-95271520D02*
X173755714Y-95385805D01*
X173755714Y-95385805D02*
X173717618Y-95461996D01*
X173717618Y-95461996D02*
X173679523Y-95500091D01*
X173679523Y-95500091D02*
X173603333Y-95538186D01*
X173603333Y-95538186D02*
X173298571Y-95538186D01*
X174060475Y-95195329D02*
X174098571Y-95157234D01*
X174098571Y-95157234D02*
X174174761Y-95119139D01*
X174174761Y-95119139D02*
X174365237Y-95119139D01*
X174365237Y-95119139D02*
X174441428Y-95157234D01*
X174441428Y-95157234D02*
X174479523Y-95195329D01*
X174479523Y-95195329D02*
X174517618Y-95271520D01*
X174517618Y-95271520D02*
X174517618Y-95347710D01*
X174517618Y-95347710D02*
X174479523Y-95461996D01*
X174479523Y-95461996D02*
X174022380Y-95919139D01*
X174022380Y-95919139D02*
X174517618Y-95919139D01*
X175203333Y-95119139D02*
X175050952Y-95119139D01*
X175050952Y-95119139D02*
X174974761Y-95157234D01*
X174974761Y-95157234D02*
X174936666Y-95195329D01*
X174936666Y-95195329D02*
X174860476Y-95309615D01*
X174860476Y-95309615D02*
X174822380Y-95461996D01*
X174822380Y-95461996D02*
X174822380Y-95766758D01*
X174822380Y-95766758D02*
X174860476Y-95842948D01*
X174860476Y-95842948D02*
X174898571Y-95881044D01*
X174898571Y-95881044D02*
X174974761Y-95919139D01*
X174974761Y-95919139D02*
X175127142Y-95919139D01*
X175127142Y-95919139D02*
X175203333Y-95881044D01*
X175203333Y-95881044D02*
X175241428Y-95842948D01*
X175241428Y-95842948D02*
X175279523Y-95766758D01*
X175279523Y-95766758D02*
X175279523Y-95576282D01*
X175279523Y-95576282D02*
X175241428Y-95500091D01*
X175241428Y-95500091D02*
X175203333Y-95461996D01*
X175203333Y-95461996D02*
X175127142Y-95423901D01*
X175127142Y-95423901D02*
X174974761Y-95423901D01*
X174974761Y-95423901D02*
X174898571Y-95461996D01*
X174898571Y-95461996D02*
X174860476Y-95500091D01*
X174860476Y-95500091D02*
X174822380Y-95576282D01*
X172924618Y-118015834D02*
X172848428Y-117977739D01*
X172848428Y-117977739D02*
X172734142Y-117977739D01*
X172734142Y-117977739D02*
X172619856Y-118015834D01*
X172619856Y-118015834D02*
X172543666Y-118092024D01*
X172543666Y-118092024D02*
X172505571Y-118168215D01*
X172505571Y-118168215D02*
X172467475Y-118320596D01*
X172467475Y-118320596D02*
X172467475Y-118434882D01*
X172467475Y-118434882D02*
X172505571Y-118587263D01*
X172505571Y-118587263D02*
X172543666Y-118663453D01*
X172543666Y-118663453D02*
X172619856Y-118739644D01*
X172619856Y-118739644D02*
X172734142Y-118777739D01*
X172734142Y-118777739D02*
X172810333Y-118777739D01*
X172810333Y-118777739D02*
X172924618Y-118739644D01*
X172924618Y-118739644D02*
X172962714Y-118701548D01*
X172962714Y-118701548D02*
X172962714Y-118434882D01*
X172962714Y-118434882D02*
X172810333Y-118434882D01*
X173305571Y-118777739D02*
X173305571Y-117977739D01*
X173305571Y-117977739D02*
X173610333Y-117977739D01*
X173610333Y-117977739D02*
X173686523Y-118015834D01*
X173686523Y-118015834D02*
X173724618Y-118053929D01*
X173724618Y-118053929D02*
X173762714Y-118130120D01*
X173762714Y-118130120D02*
X173762714Y-118244405D01*
X173762714Y-118244405D02*
X173724618Y-118320596D01*
X173724618Y-118320596D02*
X173686523Y-118358691D01*
X173686523Y-118358691D02*
X173610333Y-118396786D01*
X173610333Y-118396786D02*
X173305571Y-118396786D01*
X174524618Y-118777739D02*
X174067475Y-118777739D01*
X174296047Y-118777739D02*
X174296047Y-117977739D01*
X174296047Y-117977739D02*
X174219856Y-118092024D01*
X174219856Y-118092024D02*
X174143666Y-118168215D01*
X174143666Y-118168215D02*
X174067475Y-118206310D01*
X174791285Y-117977739D02*
X175324619Y-117977739D01*
X175324619Y-117977739D02*
X174981761Y-118777739D01*
X172937361Y-105315834D02*
X172861171Y-105277739D01*
X172861171Y-105277739D02*
X172746885Y-105277739D01*
X172746885Y-105277739D02*
X172632599Y-105315834D01*
X172632599Y-105315834D02*
X172556409Y-105392024D01*
X172556409Y-105392024D02*
X172518314Y-105468215D01*
X172518314Y-105468215D02*
X172480218Y-105620596D01*
X172480218Y-105620596D02*
X172480218Y-105734882D01*
X172480218Y-105734882D02*
X172518314Y-105887263D01*
X172518314Y-105887263D02*
X172556409Y-105963453D01*
X172556409Y-105963453D02*
X172632599Y-106039644D01*
X172632599Y-106039644D02*
X172746885Y-106077739D01*
X172746885Y-106077739D02*
X172823076Y-106077739D01*
X172823076Y-106077739D02*
X172937361Y-106039644D01*
X172937361Y-106039644D02*
X172975457Y-106001548D01*
X172975457Y-106001548D02*
X172975457Y-105734882D01*
X172975457Y-105734882D02*
X172823076Y-105734882D01*
X173318314Y-106077739D02*
X173318314Y-105277739D01*
X173318314Y-105277739D02*
X173623076Y-105277739D01*
X173623076Y-105277739D02*
X173699266Y-105315834D01*
X173699266Y-105315834D02*
X173737361Y-105353929D01*
X173737361Y-105353929D02*
X173775457Y-105430120D01*
X173775457Y-105430120D02*
X173775457Y-105544405D01*
X173775457Y-105544405D02*
X173737361Y-105620596D01*
X173737361Y-105620596D02*
X173699266Y-105658691D01*
X173699266Y-105658691D02*
X173623076Y-105696786D01*
X173623076Y-105696786D02*
X173318314Y-105696786D01*
X174080218Y-105353929D02*
X174118314Y-105315834D01*
X174118314Y-105315834D02*
X174194504Y-105277739D01*
X174194504Y-105277739D02*
X174384980Y-105277739D01*
X174384980Y-105277739D02*
X174461171Y-105315834D01*
X174461171Y-105315834D02*
X174499266Y-105353929D01*
X174499266Y-105353929D02*
X174537361Y-105430120D01*
X174537361Y-105430120D02*
X174537361Y-105506310D01*
X174537361Y-105506310D02*
X174499266Y-105620596D01*
X174499266Y-105620596D02*
X174042123Y-106077739D01*
X174042123Y-106077739D02*
X174537361Y-106077739D01*
X175299266Y-106077739D02*
X174842123Y-106077739D01*
X175070695Y-106077739D02*
X175070695Y-105277739D01*
X175070695Y-105277739D02*
X174994504Y-105392024D01*
X174994504Y-105392024D02*
X174918314Y-105468215D01*
X174918314Y-105468215D02*
X174842123Y-105506310D01*
X172937361Y-112935834D02*
X172861171Y-112897739D01*
X172861171Y-112897739D02*
X172746885Y-112897739D01*
X172746885Y-112897739D02*
X172632599Y-112935834D01*
X172632599Y-112935834D02*
X172556409Y-113012024D01*
X172556409Y-113012024D02*
X172518314Y-113088215D01*
X172518314Y-113088215D02*
X172480218Y-113240596D01*
X172480218Y-113240596D02*
X172480218Y-113354882D01*
X172480218Y-113354882D02*
X172518314Y-113507263D01*
X172518314Y-113507263D02*
X172556409Y-113583453D01*
X172556409Y-113583453D02*
X172632599Y-113659644D01*
X172632599Y-113659644D02*
X172746885Y-113697739D01*
X172746885Y-113697739D02*
X172823076Y-113697739D01*
X172823076Y-113697739D02*
X172937361Y-113659644D01*
X172937361Y-113659644D02*
X172975457Y-113621548D01*
X172975457Y-113621548D02*
X172975457Y-113354882D01*
X172975457Y-113354882D02*
X172823076Y-113354882D01*
X173318314Y-113697739D02*
X173318314Y-112897739D01*
X173318314Y-112897739D02*
X173623076Y-112897739D01*
X173623076Y-112897739D02*
X173699266Y-112935834D01*
X173699266Y-112935834D02*
X173737361Y-112973929D01*
X173737361Y-112973929D02*
X173775457Y-113050120D01*
X173775457Y-113050120D02*
X173775457Y-113164405D01*
X173775457Y-113164405D02*
X173737361Y-113240596D01*
X173737361Y-113240596D02*
X173699266Y-113278691D01*
X173699266Y-113278691D02*
X173623076Y-113316786D01*
X173623076Y-113316786D02*
X173318314Y-113316786D01*
X174537361Y-113697739D02*
X174080218Y-113697739D01*
X174308790Y-113697739D02*
X174308790Y-112897739D01*
X174308790Y-112897739D02*
X174232599Y-113012024D01*
X174232599Y-113012024D02*
X174156409Y-113088215D01*
X174156409Y-113088215D02*
X174080218Y-113126310D01*
X174994504Y-113240596D02*
X174918314Y-113202501D01*
X174918314Y-113202501D02*
X174880219Y-113164405D01*
X174880219Y-113164405D02*
X174842123Y-113088215D01*
X174842123Y-113088215D02*
X174842123Y-113050120D01*
X174842123Y-113050120D02*
X174880219Y-112973929D01*
X174880219Y-112973929D02*
X174918314Y-112935834D01*
X174918314Y-112935834D02*
X174994504Y-112897739D01*
X174994504Y-112897739D02*
X175146885Y-112897739D01*
X175146885Y-112897739D02*
X175223076Y-112935834D01*
X175223076Y-112935834D02*
X175261171Y-112973929D01*
X175261171Y-112973929D02*
X175299266Y-113050120D01*
X175299266Y-113050120D02*
X175299266Y-113088215D01*
X175299266Y-113088215D02*
X175261171Y-113164405D01*
X175261171Y-113164405D02*
X175223076Y-113202501D01*
X175223076Y-113202501D02*
X175146885Y-113240596D01*
X175146885Y-113240596D02*
X174994504Y-113240596D01*
X174994504Y-113240596D02*
X174918314Y-113278691D01*
X174918314Y-113278691D02*
X174880219Y-113316786D01*
X174880219Y-113316786D02*
X174842123Y-113392977D01*
X174842123Y-113392977D02*
X174842123Y-113545358D01*
X174842123Y-113545358D02*
X174880219Y-113621548D01*
X174880219Y-113621548D02*
X174918314Y-113659644D01*
X174918314Y-113659644D02*
X174994504Y-113697739D01*
X174994504Y-113697739D02*
X175146885Y-113697739D01*
X175146885Y-113697739D02*
X175223076Y-113659644D01*
X175223076Y-113659644D02*
X175261171Y-113621548D01*
X175261171Y-113621548D02*
X175299266Y-113545358D01*
X175299266Y-113545358D02*
X175299266Y-113392977D01*
X175299266Y-113392977D02*
X175261171Y-113316786D01*
X175261171Y-113316786D02*
X175223076Y-113278691D01*
X175223076Y-113278691D02*
X175146885Y-113240596D01*
X172950018Y-120555834D02*
X172873828Y-120517739D01*
X172873828Y-120517739D02*
X172759542Y-120517739D01*
X172759542Y-120517739D02*
X172645256Y-120555834D01*
X172645256Y-120555834D02*
X172569066Y-120632024D01*
X172569066Y-120632024D02*
X172530971Y-120708215D01*
X172530971Y-120708215D02*
X172492875Y-120860596D01*
X172492875Y-120860596D02*
X172492875Y-120974882D01*
X172492875Y-120974882D02*
X172530971Y-121127263D01*
X172530971Y-121127263D02*
X172569066Y-121203453D01*
X172569066Y-121203453D02*
X172645256Y-121279644D01*
X172645256Y-121279644D02*
X172759542Y-121317739D01*
X172759542Y-121317739D02*
X172835733Y-121317739D01*
X172835733Y-121317739D02*
X172950018Y-121279644D01*
X172950018Y-121279644D02*
X172988114Y-121241548D01*
X172988114Y-121241548D02*
X172988114Y-120974882D01*
X172988114Y-120974882D02*
X172835733Y-120974882D01*
X173330971Y-121317739D02*
X173330971Y-120517739D01*
X173330971Y-120517739D02*
X173635733Y-120517739D01*
X173635733Y-120517739D02*
X173711923Y-120555834D01*
X173711923Y-120555834D02*
X173750018Y-120593929D01*
X173750018Y-120593929D02*
X173788114Y-120670120D01*
X173788114Y-120670120D02*
X173788114Y-120784405D01*
X173788114Y-120784405D02*
X173750018Y-120860596D01*
X173750018Y-120860596D02*
X173711923Y-120898691D01*
X173711923Y-120898691D02*
X173635733Y-120936786D01*
X173635733Y-120936786D02*
X173330971Y-120936786D01*
X174550018Y-121317739D02*
X174092875Y-121317739D01*
X174321447Y-121317739D02*
X174321447Y-120517739D01*
X174321447Y-120517739D02*
X174245256Y-120632024D01*
X174245256Y-120632024D02*
X174169066Y-120708215D01*
X174169066Y-120708215D02*
X174092875Y-120746310D01*
X175235733Y-120517739D02*
X175083352Y-120517739D01*
X175083352Y-120517739D02*
X175007161Y-120555834D01*
X175007161Y-120555834D02*
X174969066Y-120593929D01*
X174969066Y-120593929D02*
X174892876Y-120708215D01*
X174892876Y-120708215D02*
X174854780Y-120860596D01*
X174854780Y-120860596D02*
X174854780Y-121165358D01*
X174854780Y-121165358D02*
X174892876Y-121241548D01*
X174892876Y-121241548D02*
X174930971Y-121279644D01*
X174930971Y-121279644D02*
X175007161Y-121317739D01*
X175007161Y-121317739D02*
X175159542Y-121317739D01*
X175159542Y-121317739D02*
X175235733Y-121279644D01*
X175235733Y-121279644D02*
X175273828Y-121241548D01*
X175273828Y-121241548D02*
X175311923Y-121165358D01*
X175311923Y-121165358D02*
X175311923Y-120974882D01*
X175311923Y-120974882D02*
X175273828Y-120898691D01*
X175273828Y-120898691D02*
X175235733Y-120860596D01*
X175235733Y-120860596D02*
X175159542Y-120822501D01*
X175159542Y-120822501D02*
X175007161Y-120822501D01*
X175007161Y-120822501D02*
X174930971Y-120860596D01*
X174930971Y-120860596D02*
X174892876Y-120898691D01*
X174892876Y-120898691D02*
X174854780Y-120974882D01*
X173642124Y-98399139D02*
X173375457Y-98018186D01*
X173184981Y-98399139D02*
X173184981Y-97599139D01*
X173184981Y-97599139D02*
X173489743Y-97599139D01*
X173489743Y-97599139D02*
X173565933Y-97637234D01*
X173565933Y-97637234D02*
X173604028Y-97675329D01*
X173604028Y-97675329D02*
X173642124Y-97751520D01*
X173642124Y-97751520D02*
X173642124Y-97865805D01*
X173642124Y-97865805D02*
X173604028Y-97941996D01*
X173604028Y-97941996D02*
X173565933Y-97980091D01*
X173565933Y-97980091D02*
X173489743Y-98018186D01*
X173489743Y-98018186D02*
X173184981Y-98018186D01*
X173984981Y-97599139D02*
X173984981Y-98246758D01*
X173984981Y-98246758D02*
X174023076Y-98322948D01*
X174023076Y-98322948D02*
X174061171Y-98361044D01*
X174061171Y-98361044D02*
X174137362Y-98399139D01*
X174137362Y-98399139D02*
X174289743Y-98399139D01*
X174289743Y-98399139D02*
X174365933Y-98361044D01*
X174365933Y-98361044D02*
X174404028Y-98322948D01*
X174404028Y-98322948D02*
X174442124Y-98246758D01*
X174442124Y-98246758D02*
X174442124Y-97599139D01*
X174823076Y-98399139D02*
X174823076Y-97599139D01*
X174823076Y-97599139D02*
X175280219Y-98399139D01*
X175280219Y-98399139D02*
X175280219Y-97599139D01*
X173623076Y-102775834D02*
X173546886Y-102737739D01*
X173546886Y-102737739D02*
X173432600Y-102737739D01*
X173432600Y-102737739D02*
X173318314Y-102775834D01*
X173318314Y-102775834D02*
X173242124Y-102852024D01*
X173242124Y-102852024D02*
X173204029Y-102928215D01*
X173204029Y-102928215D02*
X173165933Y-103080596D01*
X173165933Y-103080596D02*
X173165933Y-103194882D01*
X173165933Y-103194882D02*
X173204029Y-103347263D01*
X173204029Y-103347263D02*
X173242124Y-103423453D01*
X173242124Y-103423453D02*
X173318314Y-103499644D01*
X173318314Y-103499644D02*
X173432600Y-103537739D01*
X173432600Y-103537739D02*
X173508791Y-103537739D01*
X173508791Y-103537739D02*
X173623076Y-103499644D01*
X173623076Y-103499644D02*
X173661172Y-103461548D01*
X173661172Y-103461548D02*
X173661172Y-103194882D01*
X173661172Y-103194882D02*
X173508791Y-103194882D01*
X174004029Y-103537739D02*
X174004029Y-102737739D01*
X174004029Y-102737739D02*
X174461172Y-103537739D01*
X174461172Y-103537739D02*
X174461172Y-102737739D01*
X174842124Y-103537739D02*
X174842124Y-102737739D01*
X174842124Y-102737739D02*
X175032600Y-102737739D01*
X175032600Y-102737739D02*
X175146886Y-102775834D01*
X175146886Y-102775834D02*
X175223076Y-102852024D01*
X175223076Y-102852024D02*
X175261171Y-102928215D01*
X175261171Y-102928215D02*
X175299267Y-103080596D01*
X175299267Y-103080596D02*
X175299267Y-103194882D01*
X175299267Y-103194882D02*
X175261171Y-103347263D01*
X175261171Y-103347263D02*
X175223076Y-103423453D01*
X175223076Y-103423453D02*
X175146886Y-103499644D01*
X175146886Y-103499644D02*
X175032600Y-103537739D01*
X175032600Y-103537739D02*
X174842124Y-103537739D01*
X173623076Y-115475834D02*
X173546886Y-115437739D01*
X173546886Y-115437739D02*
X173432600Y-115437739D01*
X173432600Y-115437739D02*
X173318314Y-115475834D01*
X173318314Y-115475834D02*
X173242124Y-115552024D01*
X173242124Y-115552024D02*
X173204029Y-115628215D01*
X173204029Y-115628215D02*
X173165933Y-115780596D01*
X173165933Y-115780596D02*
X173165933Y-115894882D01*
X173165933Y-115894882D02*
X173204029Y-116047263D01*
X173204029Y-116047263D02*
X173242124Y-116123453D01*
X173242124Y-116123453D02*
X173318314Y-116199644D01*
X173318314Y-116199644D02*
X173432600Y-116237739D01*
X173432600Y-116237739D02*
X173508791Y-116237739D01*
X173508791Y-116237739D02*
X173623076Y-116199644D01*
X173623076Y-116199644D02*
X173661172Y-116161548D01*
X173661172Y-116161548D02*
X173661172Y-115894882D01*
X173661172Y-115894882D02*
X173508791Y-115894882D01*
X174004029Y-116237739D02*
X174004029Y-115437739D01*
X174004029Y-115437739D02*
X174461172Y-116237739D01*
X174461172Y-116237739D02*
X174461172Y-115437739D01*
X174842124Y-116237739D02*
X174842124Y-115437739D01*
X174842124Y-115437739D02*
X175032600Y-115437739D01*
X175032600Y-115437739D02*
X175146886Y-115475834D01*
X175146886Y-115475834D02*
X175223076Y-115552024D01*
X175223076Y-115552024D02*
X175261171Y-115628215D01*
X175261171Y-115628215D02*
X175299267Y-115780596D01*
X175299267Y-115780596D02*
X175299267Y-115894882D01*
X175299267Y-115894882D02*
X175261171Y-116047263D01*
X175261171Y-116047263D02*
X175223076Y-116123453D01*
X175223076Y-116123453D02*
X175146886Y-116199644D01*
X175146886Y-116199644D02*
X175032600Y-116237739D01*
X175032600Y-116237739D02*
X174842124Y-116237739D01*
X174080218Y-107893929D02*
X174118314Y-107855834D01*
X174118314Y-107855834D02*
X174194504Y-107817739D01*
X174194504Y-107817739D02*
X174384980Y-107817739D01*
X174384980Y-107817739D02*
X174461171Y-107855834D01*
X174461171Y-107855834D02*
X174499266Y-107893929D01*
X174499266Y-107893929D02*
X174537361Y-107970120D01*
X174537361Y-107970120D02*
X174537361Y-108046310D01*
X174537361Y-108046310D02*
X174499266Y-108160596D01*
X174499266Y-108160596D02*
X174042123Y-108617739D01*
X174042123Y-108617739D02*
X174537361Y-108617739D01*
X175032600Y-107817739D02*
X175108790Y-107817739D01*
X175108790Y-107817739D02*
X175184981Y-107855834D01*
X175184981Y-107855834D02*
X175223076Y-107893929D01*
X175223076Y-107893929D02*
X175261171Y-107970120D01*
X175261171Y-107970120D02*
X175299266Y-108122501D01*
X175299266Y-108122501D02*
X175299266Y-108312977D01*
X175299266Y-108312977D02*
X175261171Y-108465358D01*
X175261171Y-108465358D02*
X175223076Y-108541548D01*
X175223076Y-108541548D02*
X175184981Y-108579644D01*
X175184981Y-108579644D02*
X175108790Y-108617739D01*
X175108790Y-108617739D02*
X175032600Y-108617739D01*
X175032600Y-108617739D02*
X174956409Y-108579644D01*
X174956409Y-108579644D02*
X174918314Y-108541548D01*
X174918314Y-108541548D02*
X174880219Y-108465358D01*
X174880219Y-108465358D02*
X174842123Y-108312977D01*
X174842123Y-108312977D02*
X174842123Y-108122501D01*
X174842123Y-108122501D02*
X174880219Y-107970120D01*
X174880219Y-107970120D02*
X174918314Y-107893929D01*
X174918314Y-107893929D02*
X174956409Y-107855834D01*
X174956409Y-107855834D02*
X175032600Y-107817739D01*
X174537361Y-111159139D02*
X174080218Y-111159139D01*
X174308790Y-111159139D02*
X174308790Y-110359139D01*
X174308790Y-110359139D02*
X174232599Y-110473424D01*
X174232599Y-110473424D02*
X174156409Y-110549615D01*
X174156409Y-110549615D02*
X174080218Y-110587710D01*
X174918314Y-111159139D02*
X175070695Y-111159139D01*
X175070695Y-111159139D02*
X175146885Y-111121044D01*
X175146885Y-111121044D02*
X175184981Y-111082948D01*
X175184981Y-111082948D02*
X175261171Y-110968663D01*
X175261171Y-110968663D02*
X175299266Y-110816282D01*
X175299266Y-110816282D02*
X175299266Y-110511520D01*
X175299266Y-110511520D02*
X175261171Y-110435329D01*
X175261171Y-110435329D02*
X175223076Y-110397234D01*
X175223076Y-110397234D02*
X175146885Y-110359139D01*
X175146885Y-110359139D02*
X174994504Y-110359139D01*
X174994504Y-110359139D02*
X174918314Y-110397234D01*
X174918314Y-110397234D02*
X174880219Y-110435329D01*
X174880219Y-110435329D02*
X174842123Y-110511520D01*
X174842123Y-110511520D02*
X174842123Y-110701996D01*
X174842123Y-110701996D02*
X174880219Y-110778186D01*
X174880219Y-110778186D02*
X174918314Y-110816282D01*
X174918314Y-110816282D02*
X174994504Y-110854377D01*
X174994504Y-110854377D02*
X175146885Y-110854377D01*
X175146885Y-110854377D02*
X175223076Y-110816282D01*
X175223076Y-110816282D02*
X175261171Y-110778186D01*
X175261171Y-110778186D02*
X175299266Y-110701996D01*
X172430914Y-90610367D02*
X172811867Y-90610367D01*
X172354724Y-90838939D02*
X172621391Y-90038939D01*
X172621391Y-90038939D02*
X172888057Y-90838939D01*
X173573771Y-90077034D02*
X173497581Y-90038939D01*
X173497581Y-90038939D02*
X173383295Y-90038939D01*
X173383295Y-90038939D02*
X173269009Y-90077034D01*
X173269009Y-90077034D02*
X173192819Y-90153224D01*
X173192819Y-90153224D02*
X173154724Y-90229415D01*
X173154724Y-90229415D02*
X173116628Y-90381796D01*
X173116628Y-90381796D02*
X173116628Y-90496082D01*
X173116628Y-90496082D02*
X173154724Y-90648463D01*
X173154724Y-90648463D02*
X173192819Y-90724653D01*
X173192819Y-90724653D02*
X173269009Y-90800844D01*
X173269009Y-90800844D02*
X173383295Y-90838939D01*
X173383295Y-90838939D02*
X173459486Y-90838939D01*
X173459486Y-90838939D02*
X173573771Y-90800844D01*
X173573771Y-90800844D02*
X173611867Y-90762748D01*
X173611867Y-90762748D02*
X173611867Y-90496082D01*
X173611867Y-90496082D02*
X173459486Y-90496082D01*
X173954724Y-90838939D02*
X173954724Y-90038939D01*
X173954724Y-90038939D02*
X174411867Y-90838939D01*
X174411867Y-90838939D02*
X174411867Y-90038939D01*
X174792819Y-90838939D02*
X174792819Y-90038939D01*
X174792819Y-90038939D02*
X174983295Y-90038939D01*
X174983295Y-90038939D02*
X175097581Y-90077034D01*
X175097581Y-90077034D02*
X175173771Y-90153224D01*
X175173771Y-90153224D02*
X175211866Y-90229415D01*
X175211866Y-90229415D02*
X175249962Y-90381796D01*
X175249962Y-90381796D02*
X175249962Y-90496082D01*
X175249962Y-90496082D02*
X175211866Y-90648463D01*
X175211866Y-90648463D02*
X175173771Y-90724653D01*
X175173771Y-90724653D02*
X175097581Y-90800844D01*
X175097581Y-90800844D02*
X174983295Y-90838939D01*
X174983295Y-90838939D02*
X174792819Y-90838939D01*
D10*
X171877836Y-80912000D02*
X171662164Y-80912000D01*
X171877836Y-81632000D02*
X171662164Y-81632000D01*
X164291359Y-90417000D02*
X164598641Y-90417000D01*
X164291359Y-91177000D02*
X164598641Y-91177000D01*
X168590000Y-80927641D02*
X168590000Y-80620359D01*
X169350000Y-80927641D02*
X169350000Y-80620359D01*
X161016359Y-73592000D02*
X161323641Y-73592000D01*
X161016359Y-74352000D02*
X161323641Y-74352000D01*
D15*
X162870000Y-91437000D02*
X165870000Y-91437000D01*
X162870000Y-93707000D02*
X165870000Y-93707000D01*
X162320000Y-91522000D02*
X162040000Y-91522000D01*
X162320000Y-91242000D01*
X162320000Y-91522000D01*
G36*
X162320000Y-91522000D02*
G01*
X162040000Y-91522000D01*
X162320000Y-91242000D01*
X162320000Y-91522000D01*
G37*
D10*
X166212164Y-90437000D02*
X166427836Y-90437000D01*
X166212164Y-91157000D02*
X166427836Y-91157000D01*
X162275000Y-87177000D02*
X166415000Y-87177000D01*
X162275000Y-87477000D02*
X162275000Y-87177000D01*
X162275000Y-90317000D02*
X162275000Y-90017000D01*
X166415000Y-87177000D02*
X166415000Y-87477000D01*
X166415000Y-90017000D02*
X166415000Y-90317000D01*
X166415000Y-90317000D02*
X162275000Y-90317000D01*
X162441359Y-90442000D02*
X162748641Y-90442000D01*
X162441359Y-91202000D02*
X162748641Y-91202000D01*
X172870000Y-76722000D02*
X172870000Y-72822000D01*
X172870000Y-76722000D02*
X174870000Y-76722000D01*
X174870000Y-76722000D02*
X174870000Y-72822000D01*
X171052836Y-85787000D02*
X170837164Y-85787000D01*
X171052836Y-86507000D02*
X170837164Y-86507000D01*
X173115000Y-81625641D02*
X173115000Y-81318359D01*
X173875000Y-81625641D02*
X173875000Y-81318359D01*
X164762164Y-107212000D02*
X164977836Y-107212000D01*
X164762164Y-107932000D02*
X164977836Y-107932000D01*
X167710000Y-109179836D02*
X167710000Y-108964164D01*
X168430000Y-109179836D02*
X168430000Y-108964164D01*
X161130000Y-81282000D02*
G75*
G02*
X161030000Y-81282000I-50000J0D01*
G01*
X161030000Y-81282000D02*
G75*
G02*
X161130000Y-81282000I50000J0D01*
G01*
X169702000Y-82820400D02*
X169702000Y-84620400D01*
X172922000Y-84620400D02*
X172922000Y-82170400D01*
X168615200Y-82964636D02*
X168615200Y-82748964D01*
X169335200Y-82964636D02*
X169335200Y-82748964D01*
X163370000Y-108182000D02*
X163370000Y-111482000D01*
X163370000Y-111482000D02*
X167370000Y-111482000D01*
X167156359Y-107262000D02*
X167463641Y-107262000D01*
X167156359Y-108022000D02*
X167463641Y-108022000D01*
X173060000Y-78830578D02*
X173060000Y-78313422D01*
X174480000Y-78830578D02*
X174480000Y-78313422D01*
X173012164Y-96262000D02*
X173227836Y-96262000D01*
X173012164Y-96982000D02*
X173227836Y-96982000D01*
X168290000Y-88925641D02*
X168290000Y-88618359D01*
X169050000Y-88925641D02*
X169050000Y-88618359D01*
X169390000Y-88925641D02*
X169390000Y-88618359D01*
X170150000Y-88925641D02*
X170150000Y-88618359D01*
X173412164Y-98612000D02*
X173627836Y-98612000D01*
X173412164Y-99332000D02*
X173627836Y-99332000D01*
X164965000Y-81603359D02*
X164965000Y-81910641D01*
X165725000Y-81603359D02*
X165725000Y-81910641D01*
X163870000Y-96797000D02*
X163870000Y-96562000D01*
X163870000Y-103622000D02*
X163870000Y-103172000D01*
X164320000Y-103622000D02*
X163870000Y-103622000D01*
X164345000Y-96322000D02*
X164170000Y-96322000D01*
X170720000Y-96322000D02*
X171170000Y-96322000D01*
X170720000Y-103622000D02*
X171170000Y-103622000D01*
X171170000Y-96322000D02*
X171170000Y-96772000D01*
X171170000Y-103622000D02*
X171170000Y-103172000D01*
X163870000Y-96322000D02*
X163630000Y-95992000D01*
X164110000Y-95992000D01*
X163870000Y-96322000D01*
G36*
X163870000Y-96322000D02*
G01*
X163630000Y-95992000D01*
X164110000Y-95992000D01*
X163870000Y-96322000D01*
G37*
X161785000Y-84884500D02*
X161785000Y-84234500D01*
X161785000Y-84884500D02*
X161785000Y-86559500D01*
X164905000Y-84884500D02*
X164905000Y-84234500D01*
X164905000Y-84884500D02*
X164905000Y-85534500D01*
X173412164Y-99612000D02*
X173627836Y-99612000D01*
X173412164Y-100332000D02*
X173627836Y-100332000D01*
X169662164Y-93512000D02*
X169877836Y-93512000D01*
X169662164Y-94232000D02*
X169877836Y-94232000D01*
X161891693Y-98802810D02*
X161739190Y-98650307D01*
X162400810Y-98293693D02*
X162248307Y-98141190D01*
X169220378Y-91537000D02*
X170019622Y-91537000D01*
X169220378Y-92657000D02*
X170019622Y-92657000D01*
X171515000Y-92793359D02*
X171515000Y-93100641D01*
X172275000Y-92793359D02*
X172275000Y-93100641D01*
X165615000Y-86964500D02*
G75*
G02*
X165515000Y-86964500I-50000J0D01*
G01*
X165515000Y-86964500D02*
G75*
G02*
X165615000Y-86964500I50000J0D01*
G01*
X167160000Y-105614164D02*
X167160000Y-105829836D01*
X167880000Y-105614164D02*
X167880000Y-105829836D01*
X169612164Y-94537000D02*
X169827836Y-94537000D01*
X169612164Y-95257000D02*
X169827836Y-95257000D01*
X163637836Y-79882000D02*
X163422164Y-79882000D01*
X163637836Y-80602000D02*
X163422164Y-80602000D01*
X162191693Y-96002810D02*
X162039190Y-95850307D01*
X162700810Y-95493693D02*
X162548307Y-95341190D01*
X163890000Y-81910641D02*
X163890000Y-81603359D01*
X164650000Y-81910641D02*
X164650000Y-81603359D01*
X162027836Y-100662000D02*
X161812164Y-100662000D01*
X162027836Y-101382000D02*
X161812164Y-101382000D01*
X165410000Y-105614164D02*
X165410000Y-105829836D01*
X166130000Y-105614164D02*
X166130000Y-105829836D01*
D16*
G36*
X168867176Y-114982134D02*
G01*
X168943387Y-115058345D01*
X168782195Y-115206536D01*
X168666722Y-115312831D01*
X168587567Y-115384196D01*
X168536263Y-115425697D01*
X168504343Y-115442404D01*
X168483340Y-115439385D01*
X168464786Y-115421708D01*
X168450381Y-115405148D01*
X168411812Y-115352056D01*
X168400472Y-115321473D01*
X168420535Y-115289031D01*
X168474276Y-115226029D01*
X168552029Y-115143462D01*
X168595719Y-115099435D01*
X168790966Y-114905924D01*
X168867176Y-114982134D01*
G37*
G36*
X169060755Y-117032341D02*
G01*
X169098337Y-117077714D01*
X169113632Y-117118617D01*
X169144933Y-117216194D01*
X169147998Y-117118617D01*
X169157191Y-117050631D01*
X169188372Y-117024300D01*
X169226123Y-117021040D01*
X169262470Y-117023383D01*
X169284653Y-117038338D01*
X169296168Y-117077793D01*
X169300512Y-117153638D01*
X169301182Y-117276241D01*
X169300336Y-117399909D01*
X169295664Y-117475397D01*
X169283966Y-117514569D01*
X169262040Y-117529291D01*
X169232327Y-117531442D01*
X169181517Y-117517044D01*
X169141207Y-117465119D01*
X169114443Y-117403841D01*
X169065414Y-117276241D01*
X169063203Y-117403841D01*
X169058131Y-117484329D01*
X169040002Y-117521311D01*
X168998846Y-117531249D01*
X168985933Y-117531442D01*
X168949586Y-117529099D01*
X168927403Y-117514144D01*
X168915888Y-117474688D01*
X168911544Y-117398844D01*
X168910874Y-117276241D01*
X168910874Y-117021040D01*
X168996602Y-117021040D01*
X169060755Y-117032341D01*
G37*
G36*
X166876773Y-117027113D02*
G01*
X167064420Y-117036052D01*
X167072236Y-117283747D01*
X167075409Y-117405076D01*
X167073314Y-117478451D01*
X167062661Y-117515930D01*
X167040162Y-117529574D01*
X167004682Y-117531442D01*
X166953412Y-117523462D01*
X166932657Y-117487675D01*
X166929314Y-117428131D01*
X166921358Y-117353348D01*
X166901939Y-117308303D01*
X166899290Y-117306264D01*
X166879579Y-117319778D01*
X166869828Y-117383202D01*
X166869267Y-117409575D01*
X166865843Y-117487314D01*
X166847149Y-117522158D01*
X166800548Y-117531203D01*
X166779196Y-117531442D01*
X166689125Y-117531442D01*
X166689125Y-117274808D01*
X166689125Y-117157918D01*
X166869267Y-117157918D01*
X166883822Y-117188994D01*
X166899290Y-117186170D01*
X166928169Y-117147786D01*
X166929314Y-117139363D01*
X166906414Y-117111919D01*
X166899290Y-117111111D01*
X166872941Y-117135549D01*
X166869267Y-117157918D01*
X166689125Y-117157918D01*
X166689125Y-117018175D01*
X166876773Y-117027113D01*
G37*
G36*
X168424204Y-117268735D02*
G01*
X168415484Y-117516430D01*
X168325413Y-117516430D01*
X168235342Y-117516430D01*
X168226465Y-117313770D01*
X168217723Y-117198173D01*
X168202634Y-117133649D01*
X168178968Y-117111366D01*
X168175295Y-117111111D01*
X168150400Y-117128735D01*
X168134361Y-117187496D01*
X168124947Y-117296226D01*
X168124126Y-117313770D01*
X168117904Y-117421553D01*
X168107381Y-117483209D01*
X168086965Y-117512645D01*
X168051063Y-117523771D01*
X168039065Y-117525314D01*
X167973483Y-117524513D01*
X167941488Y-117512804D01*
X167930345Y-117473641D01*
X167922606Y-117392898D01*
X167920094Y-117301261D01*
X167916949Y-117193401D01*
X167905738Y-117134100D01*
X167883797Y-117112113D01*
X167875059Y-117111111D01*
X167835254Y-117087078D01*
X167830023Y-117066075D01*
X167839923Y-117045111D01*
X167876196Y-117031636D01*
X167948704Y-117024178D01*
X168067308Y-117021264D01*
X168131474Y-117021040D01*
X168432925Y-117021040D01*
X168424204Y-117268735D01*
G37*
G36*
X165390588Y-117022332D02*
G01*
X165433654Y-117033538D01*
X165462041Y-117065652D01*
X165483167Y-117129669D01*
X165504451Y-117236583D01*
X165516529Y-117304273D01*
X165536514Y-117418919D01*
X165543742Y-117486624D01*
X165535045Y-117519723D01*
X165507252Y-117530550D01*
X165458156Y-117531442D01*
X165386648Y-117518015D01*
X165368085Y-117486406D01*
X165351873Y-117446452D01*
X165338061Y-117441371D01*
X165311425Y-117465689D01*
X165308037Y-117486406D01*
X165281184Y-117522160D01*
X165217967Y-117531442D01*
X165147597Y-117518799D01*
X165127896Y-117484684D01*
X165132594Y-117432729D01*
X165144914Y-117341335D01*
X165152704Y-117291253D01*
X165308037Y-117291253D01*
X165319023Y-117315965D01*
X165328053Y-117311268D01*
X165331646Y-117275637D01*
X165328053Y-117271237D01*
X165310204Y-117275358D01*
X165308037Y-117291253D01*
X165152704Y-117291253D01*
X165162197Y-117230223D01*
X165162319Y-117229483D01*
X165196743Y-117021040D01*
X165325426Y-117021040D01*
X165390588Y-117022332D01*
G37*
G36*
X168738863Y-117003556D02*
G01*
X168824169Y-117054429D01*
X168860197Y-117100317D01*
X168876716Y-117156945D01*
X168877874Y-117244248D01*
X168874622Y-117297004D01*
X168859062Y-117412971D01*
X168833772Y-117486379D01*
X168818715Y-117503344D01*
X168752849Y-117523940D01*
X168661179Y-117530159D01*
X168569862Y-117522644D01*
X168505056Y-117502039D01*
X168496548Y-117495413D01*
X168476907Y-117446692D01*
X168463967Y-117357269D01*
X168460765Y-117278013D01*
X168640662Y-117278013D01*
X168645444Y-117375120D01*
X168658863Y-117423599D01*
X168670685Y-117426359D01*
X168688105Y-117387883D01*
X168698939Y-117310613D01*
X168700709Y-117259457D01*
X168695248Y-117174406D01*
X168681300Y-117120741D01*
X168670685Y-117111111D01*
X168654319Y-117138272D01*
X168643414Y-117208406D01*
X168640662Y-117278013D01*
X168460765Y-117278013D01*
X168460520Y-117271939D01*
X168463724Y-117163589D01*
X168476683Y-117097495D01*
X168504411Y-117056051D01*
X168527247Y-117037754D01*
X168631331Y-116996012D01*
X168738863Y-117003556D01*
G37*
G36*
X165951164Y-117028865D02*
G01*
X165959386Y-117059233D01*
X165954655Y-117073581D01*
X165919282Y-117215431D01*
X165933119Y-117344930D01*
X165950877Y-117394580D01*
X165984401Y-117476454D01*
X165992296Y-117516818D01*
X165970295Y-117530279D01*
X165914130Y-117531444D01*
X165910896Y-117531442D01*
X165847239Y-117521775D01*
X165813982Y-117480804D01*
X165800177Y-117433865D01*
X165777143Y-117336288D01*
X165760119Y-117426359D01*
X165734742Y-117494291D01*
X165680493Y-117522666D01*
X165656397Y-117526343D01*
X165603105Y-117529677D01*
X165581090Y-117513231D01*
X165582087Y-117461919D01*
X165590593Y-117406248D01*
X165605700Y-117307713D01*
X165611220Y-117244290D01*
X165607307Y-117191837D01*
X165594114Y-117126214D01*
X165592428Y-117118617D01*
X165581765Y-117052339D01*
X165599787Y-117025899D01*
X165659991Y-117021044D01*
X165664568Y-117021040D01*
X165731671Y-117029206D01*
X165757477Y-117061933D01*
X165760295Y-117088593D01*
X165762198Y-117156146D01*
X165789351Y-117088593D01*
X165838168Y-117032518D01*
X165895743Y-117021040D01*
X165951164Y-117028865D01*
G37*
G36*
X166562703Y-117020335D02*
G01*
X166630300Y-117074510D01*
X166658993Y-117152381D01*
X166659101Y-117157849D01*
X166649054Y-117210361D01*
X166606908Y-117229536D01*
X166569030Y-117231205D01*
X166503101Y-117221769D01*
X166479889Y-117186659D01*
X166478959Y-117171158D01*
X166466386Y-117122371D01*
X166448936Y-117111111D01*
X166431722Y-117138095D01*
X166420861Y-117207010D01*
X166418912Y-117259457D01*
X166424520Y-117348996D01*
X166438804Y-117411352D01*
X166448936Y-117426359D01*
X166471199Y-117415729D01*
X166478959Y-117368084D01*
X166488313Y-117313259D01*
X166528612Y-117293170D01*
X166569030Y-117291253D01*
X166633537Y-117299464D01*
X166657079Y-117333788D01*
X166659101Y-117364167D01*
X166633897Y-117455026D01*
X166561478Y-117512053D01*
X166448936Y-117531442D01*
X166357956Y-117519225D01*
X166290880Y-117488712D01*
X166285950Y-117484262D01*
X166250862Y-117414409D01*
X166236536Y-117311810D01*
X166242278Y-117199804D01*
X166267397Y-117101726D01*
X166298818Y-117051063D01*
X166379730Y-117003504D01*
X166473436Y-116994964D01*
X166562703Y-117020335D01*
G37*
G36*
X165091609Y-117266948D02*
G01*
X165086146Y-117389508D01*
X165077871Y-117464462D01*
X165063122Y-117504247D01*
X165038236Y-117521299D01*
X165015307Y-117526024D01*
X164976020Y-117526463D01*
X164955310Y-117504124D01*
X164946614Y-117445153D01*
X164944187Y-117375906D01*
X164940621Y-117216194D01*
X164905172Y-117366312D01*
X164876473Y-117461818D01*
X164843023Y-117510809D01*
X164806225Y-117525687D01*
X164767724Y-117523343D01*
X164742650Y-117493534D01*
X164722863Y-117423057D01*
X164713700Y-117375569D01*
X164684674Y-117216194D01*
X164681108Y-117373818D01*
X164676743Y-117465746D01*
X164664067Y-117512635D01*
X164635596Y-117529485D01*
X164602482Y-117531442D01*
X164566135Y-117529099D01*
X164543952Y-117514144D01*
X164532437Y-117474688D01*
X164528093Y-117398844D01*
X164527423Y-117276241D01*
X164527423Y-117021040D01*
X164645132Y-117021040D01*
X164722944Y-117025964D01*
X164762065Y-117050511D01*
X164783645Y-117109346D01*
X164785875Y-117118617D01*
X164808909Y-117216194D01*
X164825934Y-117126123D01*
X164843118Y-117068670D01*
X164878486Y-117040408D01*
X164951070Y-117028360D01*
X164971659Y-117026759D01*
X165100358Y-117017466D01*
X165091609Y-117266948D01*
G37*
G36*
X169868265Y-117007983D02*
G01*
X169924998Y-117037754D01*
X169965161Y-117076857D01*
X169985356Y-117133882D01*
X169991614Y-117228007D01*
X169991725Y-117249893D01*
X169985260Y-117383629D01*
X169961346Y-117468305D01*
X169913207Y-117513952D01*
X169834066Y-117530600D01*
X169801520Y-117531442D01*
X169713356Y-117523453D01*
X169648797Y-117503495D01*
X169637446Y-117495413D01*
X169605425Y-117442196D01*
X169601418Y-117420354D01*
X169625958Y-117392670D01*
X169682382Y-117381891D01*
X169744895Y-117388221D01*
X169787704Y-117411863D01*
X169791700Y-117418853D01*
X169804917Y-117429384D01*
X169809213Y-117403841D01*
X169793000Y-117364136D01*
X169731969Y-117351364D01*
X169724725Y-117351300D01*
X169653685Y-117336790D01*
X169614943Y-117286553D01*
X169601643Y-117190531D01*
X169601642Y-117190428D01*
X169759642Y-117190428D01*
X169767982Y-117223699D01*
X169787374Y-117260510D01*
X169798961Y-117241599D01*
X169803420Y-117223699D01*
X169807656Y-117147092D01*
X169803420Y-117118617D01*
X169791247Y-117081806D01*
X169775951Y-117100717D01*
X169767982Y-117118617D01*
X169759642Y-117190428D01*
X169601642Y-117190428D01*
X169601418Y-117170405D01*
X169628383Y-117082969D01*
X169697734Y-117017884D01*
X169792156Y-116991068D01*
X169796572Y-116991016D01*
X169868265Y-117007983D01*
G37*
G36*
X170313636Y-117006649D02*
G01*
X170383094Y-117043901D01*
X170432116Y-117088303D01*
X170442080Y-117112813D01*
X170417592Y-117137615D01*
X170394865Y-117141134D01*
X170368832Y-117148834D01*
X170380125Y-117180001D01*
X170409877Y-117220242D01*
X170462761Y-117311416D01*
X170462684Y-117393759D01*
X170425366Y-117464714D01*
X170359556Y-117512768D01*
X170265623Y-117532550D01*
X170169212Y-117522524D01*
X170098953Y-117484262D01*
X170066206Y-117418081D01*
X170060091Y-117366312D01*
X170231915Y-117366312D01*
X170242192Y-117422735D01*
X170261938Y-117441371D01*
X170284508Y-117415677D01*
X170291962Y-117366312D01*
X170281684Y-117309888D01*
X170261938Y-117291253D01*
X170239369Y-117316946D01*
X170231915Y-117366312D01*
X170060091Y-117366312D01*
X170052399Y-117301184D01*
X170051773Y-117260787D01*
X170055519Y-117155372D01*
X170059909Y-117136516D01*
X170231915Y-117136516D01*
X170245277Y-117182234D01*
X170276950Y-117182015D01*
X170316391Y-117162666D01*
X170321985Y-117156610D01*
X170302227Y-117133499D01*
X170276950Y-117111111D01*
X170242314Y-117091696D01*
X170232131Y-117123001D01*
X170231915Y-117136516D01*
X170059909Y-117136516D01*
X170070421Y-117091371D01*
X170101973Y-117050416D01*
X170118500Y-117037754D01*
X170192238Y-117001794D01*
X170246926Y-116991016D01*
X170313636Y-117006649D01*
G37*
G36*
X167374169Y-117025083D02*
G01*
X167425439Y-117039270D01*
X167439716Y-117066075D01*
X167414685Y-117102752D01*
X167379669Y-117111111D01*
X167330766Y-117129884D01*
X167319621Y-117156146D01*
X167343654Y-117195951D01*
X167364657Y-117201182D01*
X167401334Y-117226212D01*
X167409692Y-117261229D01*
X167390919Y-117310131D01*
X167364657Y-117321276D01*
X167324852Y-117345309D01*
X167319621Y-117366312D01*
X167344469Y-117403317D01*
X167377167Y-117411347D01*
X167432361Y-117428508D01*
X167449856Y-117448877D01*
X167461222Y-117451625D01*
X167467359Y-117405673D01*
X167467369Y-117405319D01*
X167475139Y-117327590D01*
X167483499Y-117276241D01*
X167655735Y-117276241D01*
X167658980Y-117327516D01*
X167668379Y-117332030D01*
X167669575Y-117329354D01*
X167675514Y-117269751D01*
X167670688Y-117239283D01*
X167661131Y-117227039D01*
X167655933Y-117266917D01*
X167655735Y-117276241D01*
X167483499Y-117276241D01*
X167492119Y-117223300D01*
X167502251Y-117172636D01*
X167534763Y-117021040D01*
X167662573Y-117021040D01*
X167790383Y-117021040D01*
X167829167Y-117238711D01*
X167850047Y-117350385D01*
X167868749Y-117440827D01*
X167881497Y-117491873D01*
X167882223Y-117493912D01*
X167868575Y-117522546D01*
X167803212Y-117531442D01*
X167730316Y-117518945D01*
X167709929Y-117486406D01*
X167685896Y-117446602D01*
X167664893Y-117441371D01*
X167625056Y-117463955D01*
X167619858Y-117483583D01*
X167605404Y-117505993D01*
X167555639Y-117519763D01*
X167460962Y-117526716D01*
X167384370Y-117528316D01*
X167270763Y-117527152D01*
X167181614Y-117521801D01*
X167132912Y-117513339D01*
X167129169Y-117511123D01*
X167119849Y-117473677D01*
X167112907Y-117392201D01*
X167109580Y-117282701D01*
X167109456Y-117256225D01*
X167109456Y-117021040D01*
X167274586Y-117021040D01*
X167374169Y-117025083D01*
G37*
G36*
X171079507Y-115271044D02*
G01*
X171080639Y-115559395D01*
X171080752Y-115829626D01*
X171079909Y-116075758D01*
X171078176Y-116291815D01*
X171075619Y-116471817D01*
X171072301Y-116609788D01*
X171068288Y-116699751D01*
X171063646Y-116735727D01*
X171063579Y-116735815D01*
X171057451Y-116741295D01*
X171046278Y-116746193D01*
X171027022Y-116750522D01*
X170996645Y-116754295D01*
X170952107Y-116757524D01*
X170890371Y-116760222D01*
X170808398Y-116762401D01*
X170703150Y-116764074D01*
X170571589Y-116765254D01*
X170410677Y-116765953D01*
X170217374Y-116766184D01*
X169988643Y-116765960D01*
X169721446Y-116765292D01*
X169412743Y-116764195D01*
X169059497Y-116762679D01*
X168658670Y-116760759D01*
X168207222Y-116758446D01*
X167702117Y-116755754D01*
X167140314Y-116752694D01*
X167079432Y-116752361D01*
X164062056Y-116735815D01*
X164062056Y-115302901D01*
X164062056Y-114949409D01*
X164587470Y-114949409D01*
X164736019Y-114949409D01*
X164884568Y-114949409D01*
X164893643Y-114791785D01*
X164902718Y-114634160D01*
X165153323Y-114625393D01*
X165300199Y-114625021D01*
X165401412Y-114635166D01*
X165446054Y-114651587D01*
X165459686Y-114673437D01*
X165470174Y-114717947D01*
X165477878Y-114791717D01*
X165483163Y-114901345D01*
X165486389Y-115053430D01*
X165487921Y-115254573D01*
X165488179Y-115418451D01*
X165488179Y-116150354D01*
X165187943Y-116150354D01*
X164887707Y-116150354D01*
X164887707Y-116300472D01*
X164887707Y-116450591D01*
X165383097Y-116450591D01*
X165878487Y-116450591D01*
X165879486Y-116097813D01*
X165880484Y-115745035D01*
X165942262Y-115820094D01*
X166005344Y-115894977D01*
X166076858Y-115977573D01*
X166083876Y-115985536D01*
X166142556Y-116052661D01*
X166224003Y-116146695D01*
X166311982Y-116248886D01*
X166324306Y-116263255D01*
X166484901Y-116450591D01*
X166728370Y-116450591D01*
X166971840Y-116450591D01*
X166850660Y-116322990D01*
X166767913Y-116232328D01*
X166669774Y-116119757D01*
X166582127Y-116015248D01*
X166487651Y-115901286D01*
X166386230Y-115781308D01*
X166306749Y-115689247D01*
X166239945Y-115604664D01*
X166193623Y-115529823D01*
X166178723Y-115486114D01*
X166195496Y-115434370D01*
X166239616Y-115352221D01*
X166301791Y-115256833D01*
X166306324Y-115250461D01*
X166391715Y-115130061D01*
X166415188Y-115096598D01*
X166876906Y-115096598D01*
X166889016Y-115126313D01*
X166929380Y-115169031D01*
X167004136Y-115233538D01*
X167106304Y-115317821D01*
X167191582Y-115386840D01*
X167244378Y-115422278D01*
X167278567Y-115428724D01*
X167308022Y-115410768D01*
X167328181Y-115391204D01*
X167368645Y-115346261D01*
X167366304Y-115317378D01*
X167326899Y-115282970D01*
X167271717Y-115237971D01*
X167190374Y-115170065D01*
X167116615Y-115107659D01*
X167035945Y-115040300D01*
X166986768Y-115007375D01*
X166954963Y-115004266D01*
X166926409Y-115026355D01*
X166912890Y-115041040D01*
X166886910Y-115071102D01*
X166876906Y-115096598D01*
X166415188Y-115096598D01*
X166488752Y-114991727D01*
X166569030Y-114876101D01*
X166704137Y-114680121D01*
X166891525Y-114679659D01*
X167003160Y-114683212D01*
X167082518Y-114700548D01*
X167157178Y-114740662D01*
X167221785Y-114787393D01*
X167438249Y-114954975D01*
X167648043Y-115125825D01*
X167767886Y-115226861D01*
X167852231Y-115296248D01*
X167919317Y-115346997D01*
X167955959Y-115369198D01*
X167957624Y-115369473D01*
X167967927Y-115341913D01*
X167975753Y-115268275D01*
X167979833Y-115162516D01*
X167980142Y-115121573D01*
X167980142Y-114873407D01*
X167665710Y-114611171D01*
X167477277Y-114454019D01*
X167351278Y-114348936D01*
X166907613Y-114349173D01*
X166463948Y-114349411D01*
X166303777Y-114589270D01*
X166215385Y-114715558D01*
X166120258Y-114841828D01*
X166035044Y-114946231D01*
X166012239Y-114971834D01*
X165880871Y-115114539D01*
X165879679Y-114731737D01*
X165878487Y-114348936D01*
X165232978Y-114348936D01*
X164587470Y-114348936D01*
X164587470Y-114649172D01*
X164587470Y-114949409D01*
X164062056Y-114949409D01*
X164062056Y-114649172D01*
X164062056Y-114078723D01*
X167980142Y-114078723D01*
X167980142Y-114454019D01*
X167982209Y-114597256D01*
X167987865Y-114714945D01*
X167996291Y-114795931D01*
X168006668Y-114829061D01*
X168007693Y-114829314D01*
X168038789Y-114809299D01*
X168102312Y-114754967D01*
X168188665Y-114674890D01*
X168277116Y-114588740D01*
X168518987Y-114348166D01*
X169578110Y-114356057D01*
X170637234Y-114363948D01*
X170637234Y-114694208D01*
X170637234Y-115024468D01*
X170472104Y-115024468D01*
X170306974Y-115024468D01*
X170297741Y-114896867D01*
X170288509Y-114769267D01*
X170050046Y-114769267D01*
X169811584Y-114769267D01*
X169811584Y-115624941D01*
X169811584Y-116480614D01*
X169601418Y-116480614D01*
X169391253Y-116480614D01*
X169391253Y-115624941D01*
X169391253Y-114769267D01*
X169088246Y-114769267D01*
X168971442Y-114769063D01*
X168883310Y-114772076D01*
X168812722Y-114783744D01*
X168748547Y-114809504D01*
X168679656Y-114854795D01*
X168594920Y-114925055D01*
X168483210Y-115025721D01*
X168390922Y-115109979D01*
X168283402Y-115207254D01*
X168185524Y-115294607D01*
X168109876Y-115360869D01*
X168075365Y-115389956D01*
X168040906Y-115425123D01*
X168015970Y-115472648D01*
X167999697Y-115540851D01*
X167991226Y-115638054D01*
X167989700Y-115772580D01*
X167994258Y-115952749D01*
X168000711Y-116112825D01*
X168019491Y-116540662D01*
X169410927Y-116540662D01*
X170802364Y-116540662D01*
X170802242Y-115692494D01*
X170801475Y-115448081D01*
X170799379Y-115201239D01*
X170796159Y-114964828D01*
X170792021Y-114751711D01*
X170787170Y-114574747D01*
X170782597Y-114461524D01*
X170763073Y-114078723D01*
X169371607Y-114078723D01*
X167980142Y-114078723D01*
X164062056Y-114078723D01*
X164062056Y-113869987D01*
X167566741Y-113853142D01*
X171071426Y-113836296D01*
X171079507Y-115271044D01*
G37*
D10*
X171973641Y-79892000D02*
X171666359Y-79892000D01*
X171973641Y-80652000D02*
X171666359Y-80652000D01*
X171262164Y-104412000D02*
X171477836Y-104412000D01*
X171262164Y-105132000D02*
X171477836Y-105132000D01*
X166960000Y-94879836D02*
X166960000Y-94664164D01*
X167680000Y-94879836D02*
X167680000Y-94664164D01*
X162820000Y-72847000D02*
X162820000Y-70947000D01*
X162820000Y-76747000D02*
X162820000Y-74747000D01*
X172220000Y-70947000D02*
X162820000Y-70947000D01*
X172220000Y-72847000D02*
X172220000Y-70947000D01*
X172220000Y-76747000D02*
X172220000Y-74747000D01*
X172814190Y-86318693D02*
X172966693Y-86166190D01*
X173323307Y-86827810D02*
X173475810Y-86675307D01*
X171310000Y-94714164D02*
X171310000Y-94929836D01*
X172030000Y-94714164D02*
X172030000Y-94929836D01*
X161773641Y-75592000D02*
X161466359Y-75592000D01*
X161773641Y-76352000D02*
X161466359Y-76352000D01*
X169550000Y-107402000D02*
X169850000Y-107402000D01*
X169550000Y-111542000D02*
X169550000Y-107402000D01*
X169850000Y-111542000D02*
X169550000Y-111542000D01*
X172390000Y-107402000D02*
X172690000Y-107402000D01*
X172690000Y-107402000D02*
X172690000Y-111542000D01*
X172690000Y-111542000D02*
X172390000Y-111542000D01*
X165185000Y-84103140D02*
X165185000Y-83795858D01*
X165945000Y-84103140D02*
X165945000Y-83795858D01*
%LPC*%
X104205814Y-98968931D02*
X104289635Y-99413555D01*
X104598920Y-99541053D01*
X104908206Y-99668551D01*
X105279246Y-99416246D01*
X105383157Y-99345996D01*
X105477087Y-99283272D01*
X105556652Y-99230938D01*
X105617470Y-99191857D01*
X105655157Y-99168893D01*
X105665421Y-99163942D01*
X105683910Y-99176676D01*
X105723420Y-99211882D01*
X105779522Y-99265062D01*
X105847787Y-99331718D01*
X105923786Y-99407354D01*
X106003092Y-99487472D01*
X106081275Y-99567574D01*
X106153907Y-99643164D01*
X106216559Y-99709745D01*
X106264803Y-99762818D01*
X106294210Y-99797887D01*
X106301241Y-99809623D01*
X106291123Y-99831260D01*
X106262759Y-99878662D01*
X106219129Y-99947193D01*
X106163218Y-100032215D01*
X106098006Y-100129093D01*
X106060219Y-100184350D01*
X105991343Y-100285248D01*
X105930140Y-100376299D01*
X105879578Y-100452970D01*
X105842628Y-100510728D01*
X105822258Y-100545043D01*
X105819197Y-100552254D01*
X105826136Y-100572748D01*
X105845051Y-100620513D01*
X105873087Y-100688832D01*
X105907391Y-100770989D01*
X105945109Y-100860270D01*
X105983387Y-100949958D01*
X106019370Y-101033338D01*
X106050206Y-101103694D01*
X106073039Y-101154310D01*
X106085017Y-101178471D01*
X106085724Y-101179422D01*
X106104531Y-101184036D01*
X106154618Y-101194328D01*
X106230793Y-101209287D01*
X106327865Y-101227901D01*
X106440643Y-101249159D01*
X106506442Y-101261418D01*
X106626950Y-101284362D01*
X106735797Y-101306195D01*
X106827476Y-101325722D01*
X106896481Y-101341748D01*
X106937304Y-101353079D01*
X106945511Y-101356674D01*
X106953548Y-101381006D01*
X106960033Y-101435959D01*
X106964970Y-101515108D01*
X106968364Y-101612026D01*
X106970218Y-101720287D01*
X106970538Y-101833465D01*
X106969327Y-101945135D01*
X106966590Y-102048868D01*
X106962331Y-102138241D01*
X106956555Y-102206826D01*
X106949267Y-102248197D01*
X106944895Y-102256810D01*
X106918764Y-102267133D01*
X106863393Y-102281892D01*
X106786107Y-102299352D01*
X106694230Y-102317780D01*
X106662158Y-102323741D01*
X106507524Y-102352066D01*
X106385375Y-102374876D01*
X106291673Y-102393080D01*
X106222384Y-102407583D01*
X106173471Y-102419292D01*
X106140897Y-102429115D01*
X106120628Y-102437956D01*
X106108626Y-102446724D01*
X106106947Y-102448457D01*
X106090184Y-102476371D01*
X106064614Y-102530695D01*
X106032788Y-102604777D01*
X105997260Y-102691965D01*
X105960583Y-102785608D01*
X105925311Y-102879052D01*
X105893996Y-102965647D01*
X105869193Y-103038740D01*
X105853454Y-103091678D01*
X105849332Y-103117811D01*
X105849676Y-103118726D01*
X105863641Y-103140086D01*
X105895322Y-103187084D01*
X105941391Y-103254827D01*
X105998518Y-103338423D01*
X106063373Y-103432982D01*
X106081843Y-103459854D01*
X106147699Y-103557275D01*
X106205650Y-103646163D01*
X106252538Y-103721412D01*
X106285207Y-103777920D01*
X106300500Y-103810581D01*
X106301241Y-103814593D01*
X106288392Y-103835684D01*
X106252888Y-103877464D01*
X106199293Y-103935445D01*
X106132171Y-104005135D01*
X106056087Y-104082045D01*
X105975604Y-104161683D01*
X105895287Y-104239561D01*
X105819699Y-104311186D01*
X105753405Y-104372070D01*
X105700969Y-104417721D01*
X105666955Y-104443650D01*
X105657545Y-104447883D01*
X105635643Y-104437912D01*
X105590800Y-104411020D01*
X105530321Y-104371736D01*
X105483789Y-104340117D01*
X105399475Y-104282098D01*
X105299626Y-104213784D01*
X105199473Y-104145579D01*
X105145627Y-104109075D01*
X104963371Y-103985800D01*
X104810381Y-104068520D01*
X104740682Y-104104759D01*
X104681414Y-104132926D01*
X104641311Y-104148991D01*
X104631103Y-104151226D01*
X104618829Y-104134722D01*
X104594613Y-104088082D01*
X104560263Y-104015609D01*
X104517588Y-103921606D01*
X104468394Y-103810374D01*
X104414490Y-103686215D01*
X104357684Y-103553432D01*
X104299782Y-103416327D01*
X104242593Y-103279202D01*
X104187924Y-103146358D01*
X104137584Y-103022098D01*
X104093380Y-102910725D01*
X104057119Y-102816539D01*
X104030609Y-102743844D01*
X104015658Y-102696941D01*
X104013254Y-102680833D01*
X104032311Y-102660286D01*
X104074036Y-102626933D01*
X104129706Y-102587702D01*
X104134378Y-102584599D01*
X104278264Y-102469423D01*
X104394283Y-102335053D01*
X104481430Y-102185784D01*
X104538699Y-102025913D01*
X104565086Y-101859737D01*
X104559585Y-101691552D01*
X104521190Y-101525655D01*
X104448895Y-101366342D01*
X104427626Y-101331487D01*
X104316996Y-101190737D01*
X104186302Y-101077714D01*
X104040064Y-100993003D01*
X103882808Y-100937194D01*
X103719057Y-100910874D01*
X103553333Y-100914630D01*
X103390162Y-100949050D01*
X103234065Y-101014723D01*
X103089567Y-101112235D01*
X103044869Y-101151813D01*
X102931112Y-101275703D01*
X102848218Y-101406124D01*
X102791356Y-101552315D01*
X102759687Y-101697088D01*
X102751869Y-101859860D01*
X102777938Y-102023440D01*
X102835245Y-102182298D01*
X102921144Y-102330906D01*
X103032986Y-102463735D01*
X103168123Y-102575256D01*
X103185883Y-102587011D01*
X103242150Y-102625508D01*
X103284923Y-102658863D01*
X103305372Y-102680160D01*
X103305669Y-102680833D01*
X103301279Y-102703871D01*
X103283876Y-102756157D01*
X103255268Y-102833390D01*
X103217265Y-102931268D01*
X103171674Y-103045491D01*
X103120303Y-103171758D01*
X103064962Y-103305767D01*
X103007458Y-103443218D01*
X102949601Y-103579808D01*
X102893198Y-103711237D01*
X102840058Y-103833205D01*
X102791990Y-103941409D01*
X102750801Y-104031549D01*
X102718301Y-104099323D01*
X102696297Y-104140430D01*
X102687436Y-104151226D01*
X102660360Y-104142819D01*
X102609697Y-104120272D01*
X102544183Y-104087613D01*
X102508159Y-104068520D01*
X102355168Y-103985800D01*
X102172912Y-104109075D01*
X102079875Y-104172228D01*
X101978015Y-104241727D01*
X101882562Y-104307165D01*
X101834750Y-104340117D01*
X101767505Y-104385273D01*
X101710564Y-104421057D01*
X101671354Y-104442938D01*
X101658619Y-104447563D01*
X101640083Y-104435085D01*
X101599059Y-104400252D01*
X101539525Y-104346678D01*
X101465458Y-104277983D01*
X101380835Y-104197781D01*
X101327315Y-104146286D01*
X101233681Y-104054286D01*
X101152759Y-103971999D01*
X101087823Y-103902945D01*
X101042142Y-103850644D01*
X101018989Y-103818616D01*
X101016768Y-103812116D01*
X101027076Y-103787394D01*
X101055561Y-103737405D01*
X101099063Y-103667212D01*
X101154423Y-103581875D01*
X101218480Y-103486456D01*
X101236697Y-103459854D01*
X101303073Y-103363167D01*
X101362622Y-103276117D01*
X101412016Y-103203595D01*
X101447925Y-103150493D01*
X101467019Y-103121703D01*
X101468864Y-103118726D01*
X101466105Y-103095782D01*
X101451462Y-103045336D01*
X101427487Y-102974041D01*
X101396734Y-102888547D01*
X101361756Y-102795507D01*
X101325107Y-102701574D01*
X101289339Y-102613399D01*
X101257006Y-102537634D01*
X101230662Y-102480931D01*
X101212858Y-102449943D01*
X101211593Y-102448457D01*
X101200706Y-102439601D01*
X101182318Y-102430843D01*
X101152394Y-102421277D01*
X101106897Y-102409996D01*
X101041791Y-102396093D01*
X100953039Y-102378663D01*
X100836607Y-102356798D01*
X100688458Y-102329591D01*
X100656382Y-102323741D01*
X100561314Y-102305374D01*
X100478435Y-102287405D01*
X100415070Y-102271569D01*
X100378542Y-102259600D01*
X100373644Y-102256810D01*
X100365573Y-102232072D01*
X100359013Y-102176790D01*
X100353967Y-102097389D01*
X100350441Y-102000296D01*
X100348439Y-101891938D01*
X100347964Y-101778740D01*
X100349023Y-101667128D01*
X100351618Y-101563529D01*
X100355754Y-101474368D01*
X100361437Y-101406072D01*
X100368669Y-101365066D01*
X100373029Y-101356674D01*
X100397302Y-101348208D01*
X100452574Y-101334435D01*
X100533338Y-101316550D01*
X100634088Y-101295748D01*
X100749317Y-101273223D01*
X100812098Y-101261418D01*
X100931213Y-101239151D01*
X101037435Y-101218979D01*
X101125573Y-101201915D01*
X101190434Y-101188969D01*
X101226826Y-101181155D01*
X101232816Y-101179422D01*
X101242939Y-101159890D01*
X101264338Y-101112843D01*
X101294161Y-101045003D01*
X101329555Y-100963091D01*
X101367668Y-100873828D01*
X101405647Y-100783935D01*
X101440640Y-100700135D01*
X101469794Y-100629147D01*
X101490257Y-100577694D01*
X101499177Y-100552497D01*
X101499343Y-100551396D01*
X101489231Y-100531519D01*
X101460883Y-100485777D01*
X101417277Y-100418717D01*
X101361394Y-100334884D01*
X101296213Y-100238826D01*
X101258321Y-100183650D01*
X101189275Y-100082481D01*
X101127950Y-99990630D01*
X101077337Y-99912744D01*
X101040429Y-99853469D01*
X101020218Y-99817451D01*
X101017299Y-99809377D01*
X101029847Y-99790584D01*
X101064537Y-99750457D01*
X101116937Y-99693493D01*
X101182616Y-99624185D01*
X101257144Y-99547031D01*
X101336087Y-99466525D01*
X101415017Y-99387163D01*
X101489500Y-99313440D01*
X101555106Y-99249852D01*
X101607404Y-99200894D01*
X101641961Y-99171061D01*
X101653522Y-99163942D01*
X101672346Y-99173953D01*
X101717369Y-99202078D01*
X101784213Y-99245454D01*
X101868501Y-99301218D01*
X101965856Y-99366506D01*
X102039293Y-99416246D01*
X102410333Y-99668551D01*
X103028905Y-99413555D01*
X103112725Y-98968931D01*
X103196546Y-98524307D01*
X104121994Y-98524307D01*
X104205814Y-98968931D01*
G36*
X104205814Y-98968931D02*
G01*
X104289635Y-99413555D01*
X104598920Y-99541053D01*
X104908206Y-99668551D01*
X105279246Y-99416246D01*
X105383157Y-99345996D01*
X105477087Y-99283272D01*
X105556652Y-99230938D01*
X105617470Y-99191857D01*
X105655157Y-99168893D01*
X105665421Y-99163942D01*
X105683910Y-99176676D01*
X105723420Y-99211882D01*
X105779522Y-99265062D01*
X105847787Y-99331718D01*
X105923786Y-99407354D01*
X106003092Y-99487472D01*
X106081275Y-99567574D01*
X106153907Y-99643164D01*
X106216559Y-99709745D01*
X106264803Y-99762818D01*
X106294210Y-99797887D01*
X106301241Y-99809623D01*
X106291123Y-99831260D01*
X106262759Y-99878662D01*
X106219129Y-99947193D01*
X106163218Y-100032215D01*
X106098006Y-100129093D01*
X106060219Y-100184350D01*
X105991343Y-100285248D01*
X105930140Y-100376299D01*
X105879578Y-100452970D01*
X105842628Y-100510728D01*
X105822258Y-100545043D01*
X105819197Y-100552254D01*
X105826136Y-100572748D01*
X105845051Y-100620513D01*
X105873087Y-100688832D01*
X105907391Y-100770989D01*
X105945109Y-100860270D01*
X105983387Y-100949958D01*
X106019370Y-101033338D01*
X106050206Y-101103694D01*
X106073039Y-101154310D01*
X106085017Y-101178471D01*
X106085724Y-101179422D01*
X106104531Y-101184036D01*
X106154618Y-101194328D01*
X106230793Y-101209287D01*
X106327865Y-101227901D01*
X106440643Y-101249159D01*
X106506442Y-101261418D01*
X106626950Y-101284362D01*
X106735797Y-101306195D01*
X106827476Y-101325722D01*
X106896481Y-101341748D01*
X106937304Y-101353079D01*
X106945511Y-101356674D01*
X106953548Y-101381006D01*
X106960033Y-101435959D01*
X106964970Y-101515108D01*
X106968364Y-101612026D01*
X106970218Y-101720287D01*
X106970538Y-101833465D01*
X106969327Y-101945135D01*
X106966590Y-102048868D01*
X106962331Y-102138241D01*
X106956555Y-102206826D01*
X106949267Y-102248197D01*
X106944895Y-102256810D01*
X106918764Y-102267133D01*
X106863393Y-102281892D01*
X106786107Y-102299352D01*
X106694230Y-102317780D01*
X106662158Y-102323741D01*
X106507524Y-102352066D01*
X106385375Y-102374876D01*
X106291673Y-102393080D01*
X106222384Y-102407583D01*
X106173471Y-102419292D01*
X106140897Y-102429115D01*
X106120628Y-102437956D01*
X106108626Y-102446724D01*
X106106947Y-102448457D01*
X106090184Y-102476371D01*
X106064614Y-102530695D01*
X106032788Y-102604777D01*
X105997260Y-102691965D01*
X105960583Y-102785608D01*
X105925311Y-102879052D01*
X105893996Y-102965647D01*
X105869193Y-103038740D01*
X105853454Y-103091678D01*
X105849332Y-103117811D01*
X105849676Y-103118726D01*
X105863641Y-103140086D01*
X105895322Y-103187084D01*
X105941391Y-103254827D01*
X105998518Y-103338423D01*
X106063373Y-103432982D01*
X106081843Y-103459854D01*
X106147699Y-103557275D01*
X106205650Y-103646163D01*
X106252538Y-103721412D01*
X106285207Y-103777920D01*
X106300500Y-103810581D01*
X106301241Y-103814593D01*
X106288392Y-103835684D01*
X106252888Y-103877464D01*
X106199293Y-103935445D01*
X106132171Y-104005135D01*
X106056087Y-104082045D01*
X105975604Y-104161683D01*
X105895287Y-104239561D01*
X105819699Y-104311186D01*
X105753405Y-104372070D01*
X105700969Y-104417721D01*
X105666955Y-104443650D01*
X105657545Y-104447883D01*
X105635643Y-104437912D01*
X105590800Y-104411020D01*
X105530321Y-104371736D01*
X105483789Y-104340117D01*
X105399475Y-104282098D01*
X105299626Y-104213784D01*
X105199473Y-104145579D01*
X105145627Y-104109075D01*
X104963371Y-103985800D01*
X104810381Y-104068520D01*
X104740682Y-104104759D01*
X104681414Y-104132926D01*
X104641311Y-104148991D01*
X104631103Y-104151226D01*
X104618829Y-104134722D01*
X104594613Y-104088082D01*
X104560263Y-104015609D01*
X104517588Y-103921606D01*
X104468394Y-103810374D01*
X104414490Y-103686215D01*
X104357684Y-103553432D01*
X104299782Y-103416327D01*
X104242593Y-103279202D01*
X104187924Y-103146358D01*
X104137584Y-103022098D01*
X104093380Y-102910725D01*
X104057119Y-102816539D01*
X104030609Y-102743844D01*
X104015658Y-102696941D01*
X104013254Y-102680833D01*
X104032311Y-102660286D01*
X104074036Y-102626933D01*
X104129706Y-102587702D01*
X104134378Y-102584599D01*
X104278264Y-102469423D01*
X104394283Y-102335053D01*
X104481430Y-102185784D01*
X104538699Y-102025913D01*
X104565086Y-101859737D01*
X104559585Y-101691552D01*
X104521190Y-101525655D01*
X104448895Y-101366342D01*
X104427626Y-101331487D01*
X104316996Y-101190737D01*
X104186302Y-101077714D01*
X104040064Y-100993003D01*
X103882808Y-100937194D01*
X103719057Y-100910874D01*
X103553333Y-100914630D01*
X103390162Y-100949050D01*
X103234065Y-101014723D01*
X103089567Y-101112235D01*
X103044869Y-101151813D01*
X102931112Y-101275703D01*
X102848218Y-101406124D01*
X102791356Y-101552315D01*
X102759687Y-101697088D01*
X102751869Y-101859860D01*
X102777938Y-102023440D01*
X102835245Y-102182298D01*
X102921144Y-102330906D01*
X103032986Y-102463735D01*
X103168123Y-102575256D01*
X103185883Y-102587011D01*
X103242150Y-102625508D01*
X103284923Y-102658863D01*
X103305372Y-102680160D01*
X103305669Y-102680833D01*
X103301279Y-102703871D01*
X103283876Y-102756157D01*
X103255268Y-102833390D01*
X103217265Y-102931268D01*
X103171674Y-103045491D01*
X103120303Y-103171758D01*
X103064962Y-103305767D01*
X103007458Y-103443218D01*
X102949601Y-103579808D01*
X102893198Y-103711237D01*
X102840058Y-103833205D01*
X102791990Y-103941409D01*
X102750801Y-104031549D01*
X102718301Y-104099323D01*
X102696297Y-104140430D01*
X102687436Y-104151226D01*
X102660360Y-104142819D01*
X102609697Y-104120272D01*
X102544183Y-104087613D01*
X102508159Y-104068520D01*
X102355168Y-103985800D01*
X102172912Y-104109075D01*
X102079875Y-104172228D01*
X101978015Y-104241727D01*
X101882562Y-104307165D01*
X101834750Y-104340117D01*
X101767505Y-104385273D01*
X101710564Y-104421057D01*
X101671354Y-104442938D01*
X101658619Y-104447563D01*
X101640083Y-104435085D01*
X101599059Y-104400252D01*
X101539525Y-104346678D01*
X101465458Y-104277983D01*
X101380835Y-104197781D01*
X101327315Y-104146286D01*
X101233681Y-104054286D01*
X101152759Y-103971999D01*
X101087823Y-103902945D01*
X101042142Y-103850644D01*
X101018989Y-103818616D01*
X101016768Y-103812116D01*
X101027076Y-103787394D01*
X101055561Y-103737405D01*
X101099063Y-103667212D01*
X101154423Y-103581875D01*
X101218480Y-103486456D01*
X101236697Y-103459854D01*
X101303073Y-103363167D01*
X101362622Y-103276117D01*
X101412016Y-103203595D01*
X101447925Y-103150493D01*
X101467019Y-103121703D01*
X101468864Y-103118726D01*
X101466105Y-103095782D01*
X101451462Y-103045336D01*
X101427487Y-102974041D01*
X101396734Y-102888547D01*
X101361756Y-102795507D01*
X101325107Y-102701574D01*
X101289339Y-102613399D01*
X101257006Y-102537634D01*
X101230662Y-102480931D01*
X101212858Y-102449943D01*
X101211593Y-102448457D01*
X101200706Y-102439601D01*
X101182318Y-102430843D01*
X101152394Y-102421277D01*
X101106897Y-102409996D01*
X101041791Y-102396093D01*
X100953039Y-102378663D01*
X100836607Y-102356798D01*
X100688458Y-102329591D01*
X100656382Y-102323741D01*
X100561314Y-102305374D01*
X100478435Y-102287405D01*
X100415070Y-102271569D01*
X100378542Y-102259600D01*
X100373644Y-102256810D01*
X100365573Y-102232072D01*
X100359013Y-102176790D01*
X100353967Y-102097389D01*
X100350441Y-102000296D01*
X100348439Y-101891938D01*
X100347964Y-101778740D01*
X100349023Y-101667128D01*
X100351618Y-101563529D01*
X100355754Y-101474368D01*
X100361437Y-101406072D01*
X100368669Y-101365066D01*
X100373029Y-101356674D01*
X100397302Y-101348208D01*
X100452574Y-101334435D01*
X100533338Y-101316550D01*
X100634088Y-101295748D01*
X100749317Y-101273223D01*
X100812098Y-101261418D01*
X100931213Y-101239151D01*
X101037435Y-101218979D01*
X101125573Y-101201915D01*
X101190434Y-101188969D01*
X101226826Y-101181155D01*
X101232816Y-101179422D01*
X101242939Y-101159890D01*
X101264338Y-101112843D01*
X101294161Y-101045003D01*
X101329555Y-100963091D01*
X101367668Y-100873828D01*
X101405647Y-100783935D01*
X101440640Y-100700135D01*
X101469794Y-100629147D01*
X101490257Y-100577694D01*
X101499177Y-100552497D01*
X101499343Y-100551396D01*
X101489231Y-100531519D01*
X101460883Y-100485777D01*
X101417277Y-100418717D01*
X101361394Y-100334884D01*
X101296213Y-100238826D01*
X101258321Y-100183650D01*
X101189275Y-100082481D01*
X101127950Y-99990630D01*
X101077337Y-99912744D01*
X101040429Y-99853469D01*
X101020218Y-99817451D01*
X101017299Y-99809377D01*
X101029847Y-99790584D01*
X101064537Y-99750457D01*
X101116937Y-99693493D01*
X101182616Y-99624185D01*
X101257144Y-99547031D01*
X101336087Y-99466525D01*
X101415017Y-99387163D01*
X101489500Y-99313440D01*
X101555106Y-99249852D01*
X101607404Y-99200894D01*
X101641961Y-99171061D01*
X101653522Y-99163942D01*
X101672346Y-99173953D01*
X101717369Y-99202078D01*
X101784213Y-99245454D01*
X101868501Y-99301218D01*
X101965856Y-99366506D01*
X102039293Y-99416246D01*
X102410333Y-99668551D01*
X103028905Y-99413555D01*
X103112725Y-98968931D01*
X103196546Y-98524307D01*
X104121994Y-98524307D01*
X104205814Y-98968931D01*
G37*
D17*
X164995000Y-120872000D03*
D18*
X167535000Y-120872000D03*
D17*
X170075000Y-120872000D03*
D19*
X172250000Y-81272000D03*
X171290000Y-81272000D03*
D20*
X163935000Y-90797000D03*
X164955000Y-90797000D03*
D21*
X174730000Y-101022000D03*
X173710000Y-101022000D03*
D22*
X168970000Y-81284000D03*
X168970000Y-80264000D03*
D20*
X160660000Y-73972000D03*
X161680000Y-73972000D03*
D23*
X162945000Y-91822000D03*
X162945000Y-92322000D03*
X162945000Y-92822000D03*
X162945000Y-93322000D03*
X165795000Y-93322000D03*
X165795000Y-92822000D03*
X165795000Y-92322000D03*
X165795000Y-91822000D03*
D24*
X164370000Y-92572000D03*
D25*
X165840000Y-90797000D03*
X166800000Y-90797000D03*
D26*
X162245000Y-88747000D03*
X166445000Y-88747000D03*
D20*
X162085000Y-90822000D03*
X163105000Y-90822000D03*
D27*
X173870000Y-76122000D03*
X173870000Y-72822000D03*
D19*
X171425000Y-86147000D03*
X170465000Y-86147000D03*
D22*
X173495000Y-81982000D03*
X173495000Y-80962000D03*
D25*
X164390000Y-107572000D03*
X165350000Y-107572000D03*
D28*
X168070000Y-109552000D03*
X168070000Y-108592000D03*
D29*
X161685000Y-81282000D03*
X162655000Y-81282000D03*
D30*
X172262000Y-82620400D03*
X171312000Y-82620400D03*
X170362000Y-82620400D03*
X170362000Y-84820400D03*
X172262000Y-84820400D03*
D28*
X168975200Y-83336800D03*
X168975200Y-82376800D03*
D31*
X164270000Y-110682000D03*
X166470000Y-110682000D03*
X166470000Y-108982000D03*
X164270000Y-108982000D03*
D20*
X166800000Y-107642000D03*
X167820000Y-107642000D03*
D32*
X173770000Y-79509500D03*
X173770000Y-77634500D03*
D25*
X172640000Y-96622000D03*
X173600000Y-96622000D03*
D22*
X168670000Y-89282000D03*
X168670000Y-88262000D03*
X169770000Y-89282000D03*
X169770000Y-88262000D03*
D25*
X173040000Y-98972000D03*
X174000000Y-98972000D03*
D33*
X165345000Y-81247000D03*
X165345000Y-82267000D03*
D34*
X164082500Y-97172000D03*
X164082500Y-97572000D03*
X164082500Y-97972000D03*
X164082500Y-98372000D03*
X164082500Y-98772000D03*
X164082500Y-99172000D03*
X164082500Y-99572000D03*
X164082500Y-99972000D03*
X164082500Y-100372000D03*
X164082500Y-100772000D03*
X164082500Y-101172000D03*
X164082500Y-101572000D03*
X164082500Y-101972000D03*
X164082500Y-102372000D03*
X164082500Y-102772000D03*
D35*
X164720000Y-103409500D03*
X165120000Y-103409500D03*
X165520000Y-103409500D03*
X165920000Y-103409500D03*
X166320000Y-103409500D03*
X166720000Y-103409500D03*
X167120000Y-103409500D03*
X167520000Y-103409500D03*
X167920000Y-103409500D03*
X168320000Y-103409500D03*
X168720000Y-103409500D03*
X169120000Y-103409500D03*
X169520000Y-103409500D03*
X169920000Y-103409500D03*
X170320000Y-103409500D03*
D34*
X170957500Y-102772000D03*
X170957500Y-102372000D03*
X170957500Y-101972000D03*
X170957500Y-101572000D03*
X170957500Y-101172000D03*
X170957500Y-100772000D03*
X170957500Y-100372000D03*
X170957500Y-99972000D03*
X170957500Y-99572000D03*
X170957500Y-99172000D03*
X170957500Y-98772000D03*
X170957500Y-98372000D03*
X170957500Y-97972000D03*
X170957500Y-97572000D03*
X170957500Y-97172000D03*
D35*
X170320000Y-96534500D03*
X169920000Y-96534500D03*
X169520000Y-96534500D03*
X169120000Y-96534500D03*
X168720000Y-96534500D03*
X168320000Y-96534500D03*
X167920000Y-96534500D03*
X167520000Y-96534500D03*
X167120000Y-96534500D03*
X166720000Y-96534500D03*
X166320000Y-96534500D03*
X165920000Y-96534500D03*
X165520000Y-96534500D03*
X165120000Y-96534500D03*
X164720000Y-96534500D03*
D36*
X166670000Y-99122000D03*
X166670000Y-99972000D03*
X166670000Y-100822000D03*
X167520000Y-99122000D03*
X167520000Y-99972000D03*
D37*
X167520000Y-99972000D03*
D36*
X167520000Y-100822000D03*
X168370000Y-99122000D03*
X168370000Y-99972000D03*
X168370000Y-100822000D03*
D38*
X162395000Y-85822000D03*
X164295000Y-85822000D03*
X163345000Y-83947000D03*
D25*
X173040000Y-99972000D03*
X174000000Y-99972000D03*
X169290000Y-93872000D03*
X170250000Y-93872000D03*
D39*
X162409411Y-98811411D03*
X161730589Y-98132589D03*
D40*
X168557500Y-92097000D03*
X170682500Y-92097000D03*
D33*
X171895000Y-92437000D03*
X171895000Y-93457000D03*
D41*
X165565000Y-86359500D03*
X165565000Y-85389500D03*
D42*
X167520000Y-105242000D03*
X167520000Y-106202000D03*
D25*
X169240000Y-94897000D03*
X170200000Y-94897000D03*
D19*
X164010000Y-80242000D03*
X163050000Y-80242000D03*
D39*
X162709411Y-96011411D03*
X162030589Y-95332589D03*
D22*
X164270000Y-82267000D03*
X164270000Y-81247000D03*
D19*
X162400000Y-101022000D03*
X161440000Y-101022000D03*
D42*
X165770000Y-105242000D03*
X165770000Y-106202000D03*
D21*
X172330000Y-80272000D03*
X171310000Y-80272000D03*
D25*
X170890000Y-104772000D03*
X171850000Y-104772000D03*
D28*
X167320000Y-95252000D03*
X167320000Y-94292000D03*
D43*
X170410000Y-77447000D03*
X164630000Y-77447000D03*
D44*
X170770000Y-78892000D03*
X169970000Y-78892000D03*
D45*
X168770000Y-78892000D03*
X167770000Y-78892000D03*
X167270000Y-78892000D03*
X166270000Y-78892000D03*
D44*
X165070000Y-78892000D03*
X164270000Y-78892000D03*
X164270000Y-78892000D03*
X165070000Y-78892000D03*
D45*
X165770000Y-78892000D03*
X166770000Y-78892000D03*
X168270000Y-78892000D03*
X169270000Y-78892000D03*
D44*
X169970000Y-78892000D03*
X170770000Y-78892000D03*
D46*
X171840000Y-77977000D03*
D47*
X171840000Y-73797000D03*
D46*
X163200000Y-77977000D03*
D47*
X163200000Y-73797000D03*
D48*
X172805589Y-86836411D03*
X173484411Y-86157589D03*
D42*
X171670000Y-94342000D03*
X171670000Y-95302000D03*
D21*
X162130000Y-75972000D03*
X161110000Y-75972000D03*
D49*
X171120000Y-107372000D03*
X171120000Y-111572000D03*
D22*
X165565000Y-84459499D03*
X165565000Y-83439499D03*
D50*
X178120000Y-72671138D03*
D17*
X176420000Y-72671138D03*
D50*
X178120000Y-75211138D03*
D17*
X176420000Y-75211138D03*
D50*
X178120000Y-77751138D03*
D51*
X176420000Y-77751138D03*
D50*
X178120000Y-80291138D03*
D17*
X176420000Y-80291138D03*
D50*
X178120000Y-82831138D03*
D17*
X176420000Y-82831138D03*
D50*
X178120000Y-85371138D03*
D17*
X176420000Y-85371138D03*
D50*
X178120000Y-87911138D03*
D17*
X176420000Y-87911138D03*
D50*
X178120000Y-90451138D03*
D51*
X176420000Y-90451138D03*
D50*
X178120000Y-92991138D03*
D17*
X176420000Y-92991138D03*
D50*
X178120000Y-95531138D03*
D17*
X176420000Y-95531138D03*
D50*
X178120000Y-98071138D03*
D17*
X176420000Y-98071138D03*
D50*
X178120000Y-100611138D03*
D17*
X176420000Y-100611138D03*
D50*
X178120000Y-103151138D03*
D51*
X176420000Y-103151138D03*
D50*
X178120000Y-105691138D03*
D17*
X176420000Y-105691138D03*
D50*
X178120000Y-108231138D03*
D17*
X176420000Y-108231138D03*
D50*
X178120000Y-110771138D03*
D17*
X176420000Y-110771138D03*
D50*
X178120000Y-113311138D03*
D17*
X176420000Y-113311138D03*
D50*
X178120000Y-115851138D03*
D51*
X176420000Y-115851138D03*
D50*
X178120000Y-118391138D03*
D17*
X176420000Y-118391138D03*
D50*
X178120000Y-120931138D03*
D17*
X176420000Y-120931138D03*
D52*
X156920000Y-120871138D03*
D53*
X158620000Y-120871138D03*
D52*
X156920000Y-118331138D03*
D17*
X158620000Y-118331138D03*
D52*
X156920000Y-115791138D03*
D54*
X158620000Y-115791138D03*
D52*
X156920000Y-113251138D03*
D17*
X158620000Y-113251138D03*
D52*
X156920000Y-110711138D03*
D17*
X158620000Y-110711138D03*
D52*
X156920000Y-108171138D03*
D17*
X158620000Y-108171138D03*
D52*
X156910000Y-105631138D03*
D17*
X158620000Y-105631138D03*
D52*
X156920000Y-103091138D03*
D54*
X158620000Y-103091138D03*
D52*
X156920000Y-100551138D03*
D17*
X158620000Y-100551138D03*
D52*
X156920000Y-98011138D03*
D17*
X158620000Y-98011138D03*
D52*
X156920000Y-95471138D03*
D17*
X158620000Y-95471138D03*
D52*
X156930000Y-92931138D03*
D17*
X158620000Y-92931138D03*
D52*
X156920000Y-90391138D03*
D54*
X158620000Y-90391138D03*
D52*
X156920000Y-87851138D03*
D17*
X158620000Y-87851138D03*
D52*
X156920000Y-85311138D03*
D17*
X158620000Y-85311138D03*
D52*
X156920000Y-82771138D03*
D17*
X158620000Y-82771138D03*
D52*
X156920000Y-80221138D03*
D17*
X158620000Y-80231138D03*
D52*
X156920000Y-77691138D03*
D54*
X158620000Y-77691138D03*
D52*
X156920000Y-75141138D03*
D17*
X158620000Y-75151138D03*
D52*
X156920000Y-72611138D03*
D17*
X158620000Y-72611138D03*
%LPD*%
M02*
