M48
; DRILL file {KiCad 9.0.8-9.0.8~ubuntu22.04.1} date 2026-05-27T21:09:22+0530
; FORMAT={-:-/ absolute / metric / decimal}
; #@! TF.CreationDate,2026-05-27T21:09:22+05:30
; #@! TF.GenerationSoftware,Kicad,Pcbnew,9.0.8-9.0.8~ubuntu22.04.1
; #@! TF.FileFunction,Plated,1,2,PTH
FMAT,2
METRIC
; #@! TA.AperFunction,Plated,PTH,ViaDrill
T1C0.200
; #@! TA.AperFunction,Plated,PTH,ComponentDrill
T2C0.212
; #@! TA.AperFunction,Plated,PTH,ViaDrill
T3C0.300
; #@! TA.AperFunction,Plated,PTH,ViaDrill
T4C0.400
; #@! TA.AperFunction,Plated,PTH,ComponentDrill
T5C0.600
; #@! TA.AperFunction,Plated,PTH,ComponentDrill
T6C1.000
%
G90
G05
T1
X160.77Y-107.472
X163.17Y-95.272
X163.17Y-104.272
X163.72Y-93.322
X164.995Y-99.172
X165.195Y-94.172
X166.87Y-91.872
X170.12Y-99.572
T2
X166.67Y-99.122
X166.67Y-99.972
X166.67Y-100.822
X167.52Y-99.122
X167.52Y-99.972
X167.52Y-100.822
X168.37Y-99.122
X168.37Y-99.972
X168.37Y-100.822
T3
X160.11Y-79.097
X161.07Y-75.172
X161.395Y-97.672
X161.645Y-91.572
X161.97Y-82.222
X162.37Y-87.072
X162.47Y-89.272
X162.72Y-82.272
X162.87Y-96.872
X163.545Y-88.772
X164.67Y-106.372
X165.02Y-91.822
X165.07Y-79.972
X165.42Y-88.372
X166.07Y-112.172
X166.12Y-82.222
X166.77Y-77.832
X167.32Y-97.522
X168.045Y-106.817
X168.27Y-77.572
X168.52Y-93.122
X168.975Y-81.841
X169.27Y-112.572
X169.47Y-76.972
X169.52Y-97.522
X169.57Y-91.772
X169.72Y-90.572
X170.645Y-81.147
X170.85Y-76.582
X171.07Y-103.372
X171.12Y-108.622
X171.12Y-109.972
X171.345Y-84.547
X171.745Y-96.072
X171.87Y-118.222
X172.27Y-100.872
X172.72Y-104.572
X172.795Y-78.747
X173.995Y-101.74
X174.445Y-83.947
X174.575Y-99.481
X174.87Y-80.972
X174.97Y-98.922
T4
X160.67Y-100.372
X161.07Y-103.172
X164.07Y-112.572
X164.07Y-114.772
X167.52Y-102.322
T6
X156.91Y-105.631
X156.92Y-72.611
X156.92Y-75.141
X156.92Y-77.691
X156.92Y-80.221
X156.92Y-82.771
X156.92Y-85.311
X156.92Y-87.851
X156.92Y-90.391
X156.92Y-95.471
X156.92Y-98.011
X156.92Y-100.551
X156.92Y-103.091
X156.92Y-108.171
X156.92Y-110.711
X156.92Y-113.251
X156.92Y-115.791
X156.92Y-118.331
X156.92Y-120.871
X156.93Y-92.931
X158.62Y-72.611
X158.62Y-75.151
X158.62Y-77.691
X158.62Y-80.231
X158.62Y-82.771
X158.62Y-85.311
X158.62Y-87.851
X158.62Y-90.391
X158.62Y-92.931
X158.62Y-95.471
X158.62Y-98.011
X158.62Y-100.551
X158.62Y-103.091
X158.62Y-105.631
X158.62Y-108.171
X158.62Y-110.711
X158.62Y-113.251
X158.62Y-115.791
X158.62Y-118.331
X158.62Y-120.871
X164.995Y-120.872
X167.535Y-120.872
X170.075Y-120.872
X176.42Y-72.671
X176.42Y-75.211
X176.42Y-77.751
X176.42Y-80.291
X176.42Y-82.831
X176.42Y-85.371
X176.42Y-87.911
X176.42Y-90.451
X176.42Y-92.991
X176.42Y-95.531
X176.42Y-98.071
X176.42Y-100.611
X176.42Y-103.151
X176.42Y-105.691
X176.42Y-108.231
X176.42Y-110.771
X176.42Y-113.311
X176.42Y-115.851
X176.42Y-118.391
X176.42Y-120.931
X178.12Y-72.671
X178.12Y-75.211
X178.12Y-77.751
X178.12Y-80.291
X178.12Y-82.831
X178.12Y-85.371
X178.12Y-87.911
X178.12Y-90.451
X178.12Y-92.991
X178.12Y-95.531
X178.12Y-98.071
X178.12Y-100.611
X178.12Y-103.151
X178.12Y-105.691
X178.12Y-108.231
X178.12Y-110.771
X178.12Y-113.311
X178.12Y-115.851
X178.12Y-118.391
X178.12Y-120.931
T5
G00X163.2Y-74.097
M15
G01X163.2Y-73.497
M16
G05
G00X163.2Y-78.527
M15
G01X163.2Y-77.427
M16
G05
G00X171.84Y-74.097
M15
G01X171.84Y-73.497
M16
G05
G00X171.84Y-78.527
M15
G01X171.84Y-77.427
M16
G05
M30
