G04 #@! TF.GenerationSoftware,KiCad,Pcbnew,9.0.8-9.0.8~ubuntu22.04.1*
G04 #@! TF.CreationDate,2026-05-27T21:09:20+05:30*
G04 #@! TF.ProjectId,OPENWAVE2350,4f50454e-5741-4564-9532-3335302e6b69,rev?*
G04 #@! TF.SameCoordinates,Original*
G04 #@! TF.FileFunction,Paste,Top*
G04 #@! TF.FilePolarity,Positive*
%FSLAX46Y46*%
G04 Gerber Fmt 4.6, Leading zero omitted, Abs format (unit mm)*
G04 Created by KiCad (PCBNEW 9.0.8-9.0.8~ubuntu22.04.1) date 2026-05-27 21:09:20*
%MOMM*%
%LPD*%
G01*
G04 APERTURE LIST*
G04 Aperture macros list*
%AMRoundRect*
0 Rectangle with rounded corners*
0 $1 Rounding radius*
0 $2 $3 $4 $5 $6 $7 $8 $9 X,Y pos of 4 corners*
0 Add a 4 corners polygon primitive as box body*
4,1,4,$2,$3,$4,$5,$6,$7,$8,$9,$2,$3,0*
0 Add four circle primitives for the rounded corners*
1,1,$1+$1,$2,$3*
1,1,$1+$1,$4,$5*
1,1,$1+$1,$6,$7*
1,1,$1+$1,$8,$9*
0 Add four rect primitives between the rounded corners*
20,1,$1+$1,$2,$3,$4,$5,0*
20,1,$1+$1,$4,$5,$6,$7,0*
20,1,$1+$1,$6,$7,$8,$9,0*
20,1,$1+$1,$8,$9,$2,$3,0*%
G04 Aperture macros list end*
%ADD10RoundRect,0.140000X0.140000X0.170000X-0.140000X0.170000X-0.140000X-0.170000X0.140000X-0.170000X0*%
%ADD11RoundRect,0.135000X-0.135000X-0.185000X0.135000X-0.185000X0.135000X0.185000X-0.135000X0.185000X0*%
%ADD12RoundRect,0.135000X0.135000X0.185000X-0.135000X0.185000X-0.135000X-0.185000X0.135000X-0.185000X0*%
%ADD13RoundRect,0.135000X0.185000X-0.135000X0.185000X0.135000X-0.185000X0.135000X-0.185000X-0.135000X0*%
%ADD14RoundRect,0.040000X-0.040000X-0.605000X0.040000X-0.605000X0.040000X0.605000X-0.040000X0.605000X0*%
%ADD15RoundRect,0.062500X-0.287500X-0.062500X0.287500X-0.062500X0.287500X0.062500X-0.287500X0.062500X0*%
%ADD16RoundRect,0.140000X-0.140000X-0.170000X0.140000X-0.170000X0.140000X0.170000X-0.140000X0.170000X0*%
%ADD17RoundRect,0.200000X-0.200000X-0.800000X0.200000X-0.800000X0.200000X0.800000X-0.200000X0.800000X0*%
%ADD18R,1.200000X0.900000*%
%ADD19RoundRect,0.140000X0.170000X-0.140000X0.170000X0.140000X-0.170000X0.140000X-0.170000X-0.140000X0*%
%ADD20RoundRect,0.147500X-0.147500X-0.172500X0.147500X-0.172500X0.147500X0.172500X-0.147500X0.172500X0*%
%ADD21R,0.650000X1.060000*%
%ADD22R,1.400000X1.200000*%
%ADD23RoundRect,0.243750X0.456250X-0.243750X0.456250X0.243750X-0.456250X0.243750X-0.456250X-0.243750X0*%
%ADD24RoundRect,0.135000X-0.185000X0.135000X-0.185000X-0.135000X0.185000X-0.135000X0.185000X0.135000X0*%
%ADD25RoundRect,0.125000X-0.125000X-0.125000X0.125000X-0.125000X0.125000X0.125000X-0.125000X0.125000X0*%
%ADD26O,0.875000X0.200000*%
%ADD27O,0.200000X0.875000*%
%ADD28RoundRect,0.150000X0.150000X-0.587500X0.150000X0.587500X-0.150000X0.587500X-0.150000X-0.587500X0*%
%ADD29RoundRect,0.140000X0.219203X0.021213X0.021213X0.219203X-0.219203X-0.021213X-0.021213X-0.219203X0*%
%ADD30RoundRect,0.218750X-0.218750X-0.381250X0.218750X-0.381250X0.218750X0.381250X-0.218750X0.381250X0*%
%ADD31RoundRect,0.147500X0.172500X-0.147500X0.172500X0.147500X-0.172500X0.147500X-0.172500X-0.147500X0*%
%ADD32RoundRect,0.140000X-0.170000X0.140000X-0.170000X-0.140000X0.170000X-0.140000X0.170000X0.140000X0*%
%ADD33R,0.600000X1.450000*%
%ADD34R,0.300000X1.450000*%
%ADD35RoundRect,0.140000X0.021213X-0.219203X0.219203X-0.021213X-0.021213X0.219203X-0.219203X0.021213X0*%
%ADD36RoundRect,0.200000X-0.800000X0.200000X-0.800000X-0.200000X0.800000X-0.200000X0.800000X0.200000X0*%
G04 APERTURE END LIST*
D10*
X172250000Y-81272000D03*
X171290000Y-81272000D03*
D11*
X163935000Y-90797000D03*
X164955000Y-90797000D03*
D12*
X174730000Y-101022000D03*
X173710000Y-101022000D03*
D13*
X168970000Y-81284000D03*
X168970000Y-80264000D03*
D11*
X160660000Y-73972000D03*
X161680000Y-73972000D03*
D14*
X164370000Y-92572000D03*
D15*
X162945000Y-91822000D03*
X162945000Y-92322000D03*
X162945000Y-92822000D03*
X162945000Y-93322000D03*
X165795000Y-93322000D03*
X165795000Y-92822000D03*
X165795000Y-92322000D03*
X165795000Y-91822000D03*
D16*
X165840000Y-90797000D03*
X166800000Y-90797000D03*
D17*
X162245000Y-88747000D03*
X166445000Y-88747000D03*
D11*
X162085000Y-90822000D03*
X163105000Y-90822000D03*
D18*
X173870000Y-76122000D03*
X173870000Y-72822000D03*
D10*
X171425000Y-86147000D03*
X170465000Y-86147000D03*
D13*
X173495000Y-81982000D03*
X173495000Y-80962000D03*
D16*
X164390000Y-107572000D03*
X165350000Y-107572000D03*
D19*
X168070000Y-109552000D03*
X168070000Y-108592000D03*
D20*
X161685000Y-81282000D03*
X162655000Y-81282000D03*
D21*
X172262000Y-82620400D03*
X171312000Y-82620400D03*
X170362000Y-82620400D03*
X170362000Y-84820400D03*
X172262000Y-84820400D03*
D19*
X168975200Y-83336800D03*
X168975200Y-82376800D03*
D22*
X164270000Y-110682000D03*
X166470000Y-110682000D03*
X166470000Y-108982000D03*
X164270000Y-108982000D03*
D11*
X166800000Y-107642000D03*
X167820000Y-107642000D03*
D23*
X173770000Y-79509500D03*
X173770000Y-77634500D03*
D16*
X172640000Y-96622000D03*
X173600000Y-96622000D03*
D13*
X168670000Y-89282000D03*
X168670000Y-88262000D03*
X169770000Y-89282000D03*
X169770000Y-88262000D03*
D16*
X173040000Y-98972000D03*
X174000000Y-98972000D03*
D24*
X165345000Y-81247000D03*
X165345000Y-82267000D03*
D25*
X166245000Y-98697000D03*
X166245000Y-99547000D03*
X166245000Y-100397000D03*
X166245000Y-101247000D03*
X167095000Y-98697000D03*
X167095000Y-99547000D03*
X167095000Y-100397000D03*
X167095000Y-101247000D03*
X167945000Y-98697000D03*
X167945000Y-99547000D03*
X167945000Y-100397000D03*
X167945000Y-101247000D03*
X168795000Y-98697000D03*
X168795000Y-99547000D03*
X168795000Y-100397000D03*
X168795000Y-101247000D03*
D26*
X164082500Y-97172000D03*
X164082500Y-97572000D03*
X164082500Y-97972000D03*
X164082500Y-98372000D03*
X164082500Y-98772000D03*
X164082500Y-99172000D03*
X164082500Y-99572000D03*
X164082500Y-99972000D03*
X164082500Y-100372000D03*
X164082500Y-100772000D03*
X164082500Y-101172000D03*
X164082500Y-101572000D03*
X164082500Y-101972000D03*
X164082500Y-102372000D03*
X164082500Y-102772000D03*
D27*
X164720000Y-103409500D03*
X165120000Y-103409500D03*
X165520000Y-103409500D03*
X165920000Y-103409500D03*
X166320000Y-103409500D03*
X166720000Y-103409500D03*
X167120000Y-103409500D03*
X167520000Y-103409500D03*
X167920000Y-103409500D03*
X168320000Y-103409500D03*
X168720000Y-103409500D03*
X169120000Y-103409500D03*
X169520000Y-103409500D03*
X169920000Y-103409500D03*
X170320000Y-103409500D03*
D26*
X170957500Y-102772000D03*
X170957500Y-102372000D03*
X170957500Y-101972000D03*
X170957500Y-101572000D03*
X170957500Y-101172000D03*
X170957500Y-100772000D03*
X170957500Y-100372000D03*
X170957500Y-99972000D03*
X170957500Y-99572000D03*
X170957500Y-99172000D03*
X170957500Y-98772000D03*
X170957500Y-98372000D03*
X170957500Y-97972000D03*
X170957500Y-97572000D03*
X170957500Y-97172000D03*
D27*
X170320000Y-96534500D03*
X169920000Y-96534500D03*
X169520000Y-96534500D03*
X169120000Y-96534500D03*
X168720000Y-96534500D03*
X168320000Y-96534500D03*
X167920000Y-96534500D03*
X167520000Y-96534500D03*
X167120000Y-96534500D03*
X166720000Y-96534500D03*
X166320000Y-96534500D03*
X165920000Y-96534500D03*
X165520000Y-96534500D03*
X165120000Y-96534500D03*
X164720000Y-96534500D03*
D28*
X162395000Y-85822000D03*
X164295000Y-85822000D03*
X163345000Y-83947000D03*
D16*
X173040000Y-99972000D03*
X174000000Y-99972000D03*
X169290000Y-93872000D03*
X170250000Y-93872000D03*
D29*
X162409411Y-98811411D03*
X161730589Y-98132589D03*
D30*
X168557500Y-92097000D03*
X170682500Y-92097000D03*
D24*
X171895000Y-92437000D03*
X171895000Y-93457000D03*
D31*
X165565000Y-86359500D03*
X165565000Y-85389500D03*
D32*
X167520000Y-105242000D03*
X167520000Y-106202000D03*
D16*
X169240000Y-94897000D03*
X170200000Y-94897000D03*
D10*
X164010000Y-80242000D03*
X163050000Y-80242000D03*
D29*
X162709411Y-96011411D03*
X162030589Y-95332589D03*
D13*
X164270000Y-82267000D03*
X164270000Y-81247000D03*
D10*
X162400000Y-101022000D03*
X161440000Y-101022000D03*
D32*
X165770000Y-105242000D03*
X165770000Y-106202000D03*
D12*
X172330000Y-80272000D03*
X171310000Y-80272000D03*
D16*
X170890000Y-104772000D03*
X171850000Y-104772000D03*
D19*
X167320000Y-95252000D03*
X167320000Y-94292000D03*
D33*
X170770000Y-78892000D03*
X169970000Y-78892000D03*
D34*
X168770000Y-78892000D03*
X167770000Y-78892000D03*
X167270000Y-78892000D03*
X166270000Y-78892000D03*
D33*
X165070000Y-78892000D03*
X164270000Y-78892000D03*
X164270000Y-78892000D03*
X165070000Y-78892000D03*
D34*
X165770000Y-78892000D03*
X166770000Y-78892000D03*
X168270000Y-78892000D03*
X169270000Y-78892000D03*
D33*
X169970000Y-78892000D03*
X170770000Y-78892000D03*
D35*
X172805589Y-86836411D03*
X173484411Y-86157589D03*
D32*
X171670000Y-94342000D03*
X171670000Y-95302000D03*
D12*
X162130000Y-75972000D03*
X161110000Y-75972000D03*
D36*
X171120000Y-107372000D03*
X171120000Y-111572000D03*
D13*
X165565000Y-84459499D03*
X165565000Y-83439499D03*
M02*
