G04 #@! TF.GenerationSoftware,KiCad,Pcbnew,10.0.3*
G04 #@! TF.CreationDate,2026-05-25T21:03:47+05:30*
G04 #@! TF.ProjectId,VoltForge Nexus,566f6c74-466f-4726-9765-204e65787573,1*
G04 #@! TF.SameCoordinates,Original*
G04 #@! TF.FileFunction,Copper,L4,Bot*
G04 #@! TF.FilePolarity,Positive*
%FSLAX46Y46*%
G04 Gerber Fmt 4.6, Leading zero omitted, Abs format (unit mm)*
G04 Created by KiCad (PCBNEW 10.0.3) date 2026-05-25 21:03:47*
%MOMM*%
%LPD*%
G01*
G04 APERTURE LIST*
G04 #@! TA.AperFunction,ComponentPad*
%ADD10C,5.400000*%
G04 #@! TD*
G04 #@! TA.AperFunction,ComponentPad*
%ADD11C,0.800000*%
G04 #@! TD*
G04 #@! TA.AperFunction,ComponentPad*
%ADD12C,2.000000*%
G04 #@! TD*
G04 #@! TA.AperFunction,ComponentPad*
%ADD13R,1.800000X1.800000*%
G04 #@! TD*
G04 #@! TA.AperFunction,ComponentPad*
%ADD14C,1.800000*%
G04 #@! TD*
G04 #@! TA.AperFunction,ComponentPad*
%ADD15C,3.000000*%
G04 #@! TD*
G04 #@! TA.AperFunction,ComponentPad*
%ADD16R,3.000000X3.000000*%
G04 #@! TD*
G04 #@! TA.AperFunction,ComponentPad*
%ADD17O,1.600000X1.600000*%
G04 #@! TD*
G04 #@! TA.AperFunction,ComponentPad*
%ADD18R,1.600000X1.600000*%
G04 #@! TD*
G04 #@! TA.AperFunction,ComponentPad*
%ADD19R,1.500000X1.050000*%
G04 #@! TD*
G04 #@! TA.AperFunction,ComponentPad*
%ADD20O,1.500000X1.050000*%
G04 #@! TD*
G04 #@! TA.AperFunction,ViaPad*
%ADD21C,0.800000*%
G04 #@! TD*
G04 #@! TA.AperFunction,Conductor*
%ADD22C,0.800000*%
G04 #@! TD*
G04 APERTURE END LIST*
D10*
X148000000Y-146500000D03*
D11*
X150025000Y-146500000D03*
X149431891Y-147931891D03*
X148000000Y-148525000D03*
X146568109Y-147931891D03*
X145975000Y-146500000D03*
X146568109Y-145068109D03*
X148000000Y-144475000D03*
X149431891Y-145068109D03*
X86931891Y-144568109D03*
X85500000Y-143975000D03*
X84068109Y-144568109D03*
X83475000Y-146000000D03*
X84068109Y-147431891D03*
X85500000Y-148025000D03*
X86931891Y-147431891D03*
X87525000Y-146000000D03*
D10*
X85500000Y-146000000D03*
D12*
X131074000Y-116078000D03*
X131064000Y-121158000D03*
D13*
X131500000Y-127500000D03*
D14*
X134040000Y-127500000D03*
D12*
X106162000Y-137414000D03*
X101082000Y-137404000D03*
X103632000Y-116078000D03*
X103622000Y-121158000D03*
X131064000Y-139954000D03*
X131074000Y-134874000D03*
D15*
X90678000Y-121443000D03*
D16*
X90678000Y-116443000D03*
X90678000Y-135382000D03*
D15*
X90678000Y-140382000D03*
X143764000Y-135097000D03*
D16*
X143764000Y-140097000D03*
X144018000Y-121158000D03*
D15*
X144018000Y-116158000D03*
D17*
X95758000Y-128524000D03*
D18*
X88138000Y-128524000D03*
X88138000Y-109728000D03*
D17*
X95758000Y-109728000D03*
D13*
X132500000Y-111500000D03*
D14*
X132500000Y-108960000D03*
D19*
X122000000Y-125500000D03*
D20*
X122000000Y-128040000D03*
X122000000Y-126770000D03*
X123500000Y-110270000D03*
X123500000Y-111540000D03*
D19*
X123500000Y-109000000D03*
D21*
X110000000Y-130000000D03*
X120500000Y-113000000D03*
X110500000Y-113500000D03*
X113000000Y-113500000D03*
X117900000Y-122600000D03*
X126500000Y-125500000D03*
X122500000Y-121000000D03*
X140000000Y-110500000D03*
X113500000Y-129500000D03*
X124500000Y-138500000D03*
X120000000Y-143475010D03*
X112000000Y-133000000D03*
X98500000Y-143500000D03*
X137000000Y-127000000D03*
X122500000Y-132000000D03*
X120000000Y-130500000D03*
X112000000Y-138500000D03*
X112500000Y-136500000D03*
X125500000Y-143000000D03*
X124000000Y-130500000D03*
X137000000Y-117500000D03*
X136000000Y-131500000D03*
D22*
X114500000Y-143000000D02*
X118000000Y-143000000D01*
X110000000Y-130000000D02*
X110000000Y-138500000D01*
X110000000Y-138500000D02*
X114500000Y-143000000D01*
X120500000Y-113000000D02*
X120500000Y-115500000D01*
X120500000Y-115500000D02*
X124000000Y-119000000D01*
X118000000Y-143000000D02*
X119524990Y-143000000D01*
X119524990Y-143000000D02*
X120000000Y-143475010D01*
X137000000Y-116000000D02*
X132500000Y-111500000D01*
X137000000Y-117500000D02*
X137000000Y-116000000D01*
X122000000Y-126770000D02*
X123270000Y-126770000D01*
X123270000Y-126770000D02*
X126500000Y-130000000D01*
X126500000Y-130000000D02*
X130000000Y-130000000D01*
X130000000Y-130000000D02*
X132000000Y-132000000D01*
X132000000Y-132000000D02*
X135500000Y-132000000D01*
X135500000Y-132000000D02*
X136000000Y-131500000D01*
G04 #@! TA.AperFunction,Conductor*
G36*
X150439749Y-105521346D02*
G01*
X150487423Y-105573955D01*
X150500000Y-105628831D01*
X150500000Y-144158304D01*
X150479998Y-144226425D01*
X150426342Y-144272918D01*
X150356068Y-144283022D01*
X150291488Y-144253528D01*
X150284905Y-144247399D01*
X150141345Y-144103839D01*
X149859591Y-143879147D01*
X149859584Y-143879143D01*
X149554463Y-143687423D01*
X149554460Y-143687422D01*
X149229777Y-143531062D01*
X149229757Y-143531054D01*
X148889632Y-143412039D01*
X148538293Y-143331848D01*
X148538296Y-143331848D01*
X148180188Y-143291500D01*
X148180186Y-143291500D01*
X147819814Y-143291500D01*
X147819812Y-143291500D01*
X147461705Y-143331848D01*
X147110367Y-143412039D01*
X146770242Y-143531054D01*
X146770222Y-143531062D01*
X146445539Y-143687422D01*
X146445536Y-143687423D01*
X146140415Y-143879143D01*
X146140408Y-143879147D01*
X145858654Y-144103839D01*
X145603839Y-144358654D01*
X145379147Y-144640408D01*
X145379143Y-144640415D01*
X145215348Y-144901095D01*
X145162170Y-144948133D01*
X145107728Y-144960056D01*
X88436436Y-144540269D01*
X88368465Y-144519762D01*
X88323847Y-144468941D01*
X88312582Y-144445549D01*
X88312579Y-144445542D01*
X88120851Y-144140407D01*
X87912504Y-143879149D01*
X87896160Y-143858654D01*
X87641345Y-143603839D01*
X87359591Y-143379147D01*
X87359584Y-143379143D01*
X87054463Y-143187423D01*
X87054460Y-143187422D01*
X86851081Y-143089479D01*
X86729775Y-143031061D01*
X86729771Y-143031059D01*
X86729757Y-143031054D01*
X86707483Y-143023260D01*
X86389632Y-142912039D01*
X86382968Y-142910518D01*
X124591500Y-142910518D01*
X124591500Y-142910521D01*
X124591500Y-143089479D01*
X124626413Y-143265000D01*
X124694898Y-143430336D01*
X124794322Y-143579135D01*
X124920865Y-143705678D01*
X125069664Y-143805102D01*
X125235000Y-143873587D01*
X125410521Y-143908500D01*
X125410522Y-143908500D01*
X125589478Y-143908500D01*
X125589479Y-143908500D01*
X125765000Y-143873587D01*
X125930336Y-143805102D01*
X126079135Y-143705678D01*
X126205678Y-143579135D01*
X126305102Y-143430336D01*
X126373587Y-143265000D01*
X126408500Y-143089479D01*
X126408500Y-142910521D01*
X126373587Y-142735000D01*
X126305102Y-142569664D01*
X126205678Y-142420865D01*
X126079135Y-142294322D01*
X125930336Y-142194898D01*
X125813429Y-142146473D01*
X125765003Y-142126414D01*
X125765001Y-142126413D01*
X125765000Y-142126413D01*
X125676645Y-142108838D01*
X125589481Y-142091500D01*
X125589479Y-142091500D01*
X125410521Y-142091500D01*
X125410518Y-142091500D01*
X125279771Y-142117507D01*
X125235000Y-142126413D01*
X125234999Y-142126413D01*
X125234996Y-142126414D01*
X125069662Y-142194899D01*
X124920869Y-142294319D01*
X124920862Y-142294324D01*
X124794324Y-142420862D01*
X124794319Y-142420869D01*
X124694899Y-142569662D01*
X124626414Y-142734996D01*
X124591500Y-142910518D01*
X86382968Y-142910518D01*
X86038293Y-142831848D01*
X86038296Y-142831848D01*
X85680188Y-142791500D01*
X85680186Y-142791500D01*
X85319814Y-142791500D01*
X85319812Y-142791500D01*
X84961705Y-142831848D01*
X84610367Y-142912039D01*
X84270242Y-143031054D01*
X84270222Y-143031062D01*
X83945539Y-143187422D01*
X83945536Y-143187423D01*
X83640415Y-143379143D01*
X83640408Y-143379147D01*
X83358654Y-143603839D01*
X83215095Y-143747399D01*
X83152783Y-143781425D01*
X83081968Y-143776360D01*
X83025132Y-143733813D01*
X83000321Y-143667293D01*
X83000000Y-143658304D01*
X83000000Y-140250386D01*
X88670000Y-140250386D01*
X88670000Y-140513613D01*
X88704355Y-140774575D01*
X88772484Y-141028835D01*
X88873216Y-141272023D01*
X88873221Y-141272034D01*
X89004823Y-141499975D01*
X89004827Y-141499981D01*
X89089916Y-141610870D01*
X89089917Y-141610871D01*
X89998764Y-140702024D01*
X90013359Y-140737258D01*
X90095437Y-140860097D01*
X90199903Y-140964563D01*
X90322742Y-141046641D01*
X90357974Y-141061234D01*
X89449127Y-141970081D01*
X89449127Y-141970082D01*
X89560017Y-142055171D01*
X89560024Y-142055176D01*
X89787965Y-142186778D01*
X89787976Y-142186783D01*
X90031164Y-142287515D01*
X90285424Y-142355644D01*
X90546386Y-142389999D01*
X90546396Y-142390000D01*
X90809604Y-142390000D01*
X90809613Y-142389999D01*
X91070575Y-142355644D01*
X91324835Y-142287515D01*
X91568023Y-142186783D01*
X91568034Y-142186778D01*
X91795975Y-142055176D01*
X91795981Y-142055172D01*
X91906871Y-141970082D01*
X91906871Y-141970081D01*
X90998025Y-141061234D01*
X91033258Y-141046641D01*
X91156097Y-140964563D01*
X91260563Y-140860097D01*
X91342641Y-140737258D01*
X91357235Y-140702025D01*
X92266081Y-141610871D01*
X92266082Y-141610871D01*
X92351172Y-141499981D01*
X92351176Y-141499975D01*
X92482778Y-141272034D01*
X92482783Y-141272023D01*
X92583515Y-141028835D01*
X92651644Y-140774575D01*
X92685999Y-140513613D01*
X92686000Y-140513604D01*
X92686000Y-140250396D01*
X92685999Y-140250386D01*
X92651644Y-139989425D01*
X92617752Y-139862938D01*
X92610341Y-139835278D01*
X129555500Y-139835278D01*
X129555500Y-140072722D01*
X129583639Y-140250386D01*
X129592645Y-140307246D01*
X129640936Y-140455869D01*
X129666018Y-140533063D01*
X129773815Y-140744627D01*
X129913380Y-140936722D01*
X129913382Y-140936724D01*
X129913384Y-140936727D01*
X130081272Y-141104615D01*
X130081275Y-141104617D01*
X130081278Y-141104620D01*
X130273373Y-141244185D01*
X130484937Y-141351982D01*
X130710759Y-141425356D01*
X130945278Y-141462500D01*
X130945281Y-141462500D01*
X131182719Y-141462500D01*
X131182722Y-141462500D01*
X131417241Y-141425356D01*
X131643063Y-141351982D01*
X131854627Y-141244185D01*
X132046722Y-141104620D01*
X132214620Y-140936722D01*
X132354185Y-140744627D01*
X132461982Y-140533063D01*
X132535356Y-140307241D01*
X132572500Y-140072722D01*
X132572500Y-139835278D01*
X132535356Y-139600759D01*
X132461982Y-139374937D01*
X132354185Y-139163373D01*
X132214620Y-138971278D01*
X132214617Y-138971275D01*
X132214615Y-138971272D01*
X132046727Y-138803384D01*
X132046724Y-138803382D01*
X132046722Y-138803380D01*
X131854627Y-138663815D01*
X131643063Y-138556018D01*
X131643060Y-138556017D01*
X131643058Y-138556016D01*
X131619465Y-138548350D01*
X141755500Y-138548350D01*
X141755500Y-141645649D01*
X141762009Y-141706196D01*
X141762011Y-141706204D01*
X141813110Y-141843202D01*
X141813112Y-141843207D01*
X141900738Y-141960261D01*
X142017792Y-142047887D01*
X142017794Y-142047888D01*
X142017796Y-142047889D01*
X142076875Y-142069924D01*
X142154795Y-142098988D01*
X142154803Y-142098990D01*
X142215350Y-142105499D01*
X142215355Y-142105499D01*
X142215362Y-142105500D01*
X142215368Y-142105500D01*
X145312632Y-142105500D01*
X145312638Y-142105500D01*
X145312645Y-142105499D01*
X145312649Y-142105499D01*
X145373196Y-142098990D01*
X145373199Y-142098989D01*
X145373201Y-142098989D01*
X145510204Y-142047889D01*
X145627261Y-141960261D01*
X145714889Y-141843204D01*
X145765989Y-141706201D01*
X145772500Y-141645638D01*
X145772500Y-138548362D01*
X145772499Y-138548350D01*
X145765990Y-138487803D01*
X145765988Y-138487795D01*
X145736358Y-138408355D01*
X145714889Y-138350796D01*
X145714888Y-138350794D01*
X145714887Y-138350792D01*
X145627261Y-138233738D01*
X145510207Y-138146112D01*
X145510202Y-138146110D01*
X145373204Y-138095011D01*
X145373196Y-138095009D01*
X145312649Y-138088500D01*
X145312638Y-138088500D01*
X142215362Y-138088500D01*
X142215350Y-138088500D01*
X142154803Y-138095009D01*
X142154795Y-138095011D01*
X142017797Y-138146110D01*
X142017792Y-138146112D01*
X141900738Y-138233738D01*
X141813112Y-138350792D01*
X141813110Y-138350797D01*
X141762011Y-138487795D01*
X141762009Y-138487803D01*
X141755500Y-138548350D01*
X131619465Y-138548350D01*
X131417246Y-138482645D01*
X131417242Y-138482644D01*
X131417241Y-138482644D01*
X131182722Y-138445500D01*
X130945278Y-138445500D01*
X130710759Y-138482644D01*
X130710753Y-138482645D01*
X130484941Y-138556016D01*
X130484935Y-138556019D01*
X130273369Y-138663817D01*
X130081275Y-138803382D01*
X130081272Y-138803384D01*
X129913384Y-138971272D01*
X129913382Y-138971275D01*
X129773817Y-139163369D01*
X129666019Y-139374935D01*
X129666016Y-139374941D01*
X129592645Y-139600753D01*
X129592644Y-139600758D01*
X129592644Y-139600759D01*
X129555500Y-139835278D01*
X92610341Y-139835278D01*
X92583515Y-139735164D01*
X92482783Y-139491976D01*
X92482778Y-139491965D01*
X92351176Y-139264024D01*
X92351171Y-139264017D01*
X92266081Y-139153127D01*
X91357234Y-140061974D01*
X91342641Y-140026742D01*
X91260563Y-139903903D01*
X91156097Y-139799437D01*
X91033258Y-139717359D01*
X90998024Y-139702764D01*
X91906871Y-138793917D01*
X91906870Y-138793916D01*
X91795981Y-138708827D01*
X91795975Y-138708823D01*
X91568034Y-138577221D01*
X91568023Y-138577216D01*
X91324835Y-138476484D01*
X91070575Y-138408355D01*
X90809613Y-138374000D01*
X90546386Y-138374000D01*
X90285424Y-138408355D01*
X90031164Y-138476484D01*
X89787976Y-138577216D01*
X89787965Y-138577221D01*
X89560024Y-138708823D01*
X89449127Y-138793917D01*
X90357974Y-139702764D01*
X90322742Y-139717359D01*
X90199903Y-139799437D01*
X90095437Y-139903903D01*
X90013359Y-140026742D01*
X89998764Y-140061974D01*
X89089917Y-139153127D01*
X89004823Y-139264024D01*
X88873221Y-139491965D01*
X88873216Y-139491976D01*
X88772484Y-139735164D01*
X88704355Y-139989424D01*
X88670000Y-140250386D01*
X83000000Y-140250386D01*
X83000000Y-133833350D01*
X88669500Y-133833350D01*
X88669500Y-136930649D01*
X88676009Y-136991196D01*
X88676011Y-136991204D01*
X88727110Y-137128202D01*
X88727112Y-137128207D01*
X88814738Y-137245261D01*
X88931792Y-137332887D01*
X88931794Y-137332888D01*
X88931796Y-137332889D01*
X88990875Y-137354924D01*
X89068795Y-137383988D01*
X89068803Y-137383990D01*
X89129350Y-137390499D01*
X89129355Y-137390499D01*
X89129362Y-137390500D01*
X89129368Y-137390500D01*
X92226632Y-137390500D01*
X92226638Y-137390500D01*
X92226645Y-137390499D01*
X92226649Y-137390499D01*
X92287196Y-137383990D01*
X92287199Y-137383989D01*
X92287201Y-137383989D01*
X92424204Y-137332889D01*
X92487805Y-137285278D01*
X99573500Y-137285278D01*
X99573500Y-137522722D01*
X99600770Y-137694897D01*
X99610645Y-137757246D01*
X99663810Y-137920869D01*
X99684018Y-137983063D01*
X99791815Y-138194627D01*
X99791817Y-138194630D01*
X99820231Y-138233738D01*
X99931380Y-138386722D01*
X99931382Y-138386724D01*
X99931384Y-138386727D01*
X100099272Y-138554615D01*
X100099275Y-138554617D01*
X100099278Y-138554620D01*
X100291373Y-138694185D01*
X100502937Y-138801982D01*
X100728759Y-138875356D01*
X100963278Y-138912500D01*
X100963281Y-138912500D01*
X101200719Y-138912500D01*
X101200722Y-138912500D01*
X101435241Y-138875356D01*
X101661063Y-138801982D01*
X101872627Y-138694185D01*
X102064722Y-138554620D01*
X102232620Y-138386722D01*
X102372185Y-138194627D01*
X102479982Y-137983063D01*
X102553356Y-137757241D01*
X102590500Y-137522722D01*
X102590500Y-137295278D01*
X104653500Y-137295278D01*
X104653500Y-137532722D01*
X104689060Y-137757241D01*
X104690645Y-137767246D01*
X104760769Y-137983064D01*
X104764018Y-137993063D01*
X104871815Y-138204627D01*
X105011380Y-138396722D01*
X105011382Y-138396724D01*
X105011384Y-138396727D01*
X105179272Y-138564615D01*
X105179275Y-138564617D01*
X105179278Y-138564620D01*
X105371373Y-138704185D01*
X105582937Y-138811982D01*
X105808759Y-138885356D01*
X106043278Y-138922500D01*
X106043281Y-138922500D01*
X106280719Y-138922500D01*
X106280722Y-138922500D01*
X106515241Y-138885356D01*
X106741063Y-138811982D01*
X106952627Y-138704185D01*
X107144722Y-138564620D01*
X107298824Y-138410518D01*
X111091500Y-138410518D01*
X111091500Y-138589481D01*
X111126414Y-138765003D01*
X111138391Y-138793917D01*
X111194898Y-138930336D01*
X111294322Y-139079135D01*
X111420865Y-139205678D01*
X111569664Y-139305102D01*
X111735000Y-139373587D01*
X111910521Y-139408500D01*
X111910522Y-139408500D01*
X112089478Y-139408500D01*
X112089479Y-139408500D01*
X112265000Y-139373587D01*
X112430336Y-139305102D01*
X112579135Y-139205678D01*
X112705678Y-139079135D01*
X112805102Y-138930336D01*
X112873587Y-138765000D01*
X112908500Y-138589479D01*
X112908500Y-138410521D01*
X112873587Y-138235000D01*
X112805102Y-138069664D01*
X112705678Y-137920865D01*
X112579135Y-137794322D01*
X112503730Y-137743938D01*
X112430335Y-137694897D01*
X112430330Y-137694895D01*
X112308959Y-137644620D01*
X112308949Y-137644617D01*
X112265000Y-137626413D01*
X112123869Y-137598340D01*
X112123851Y-137598336D01*
X112089482Y-137591500D01*
X112089479Y-137591500D01*
X111910521Y-137591500D01*
X111910518Y-137591500D01*
X111779771Y-137617507D01*
X111735000Y-137626413D01*
X111734999Y-137626413D01*
X111734996Y-137626414D01*
X111603902Y-137680716D01*
X111569667Y-137694897D01*
X111569662Y-137694899D01*
X111420869Y-137794319D01*
X111420862Y-137794324D01*
X111294324Y-137920862D01*
X111294319Y-137920869D01*
X111194899Y-138069662D01*
X111126414Y-138234996D01*
X111091500Y-138410518D01*
X107298824Y-138410518D01*
X107312620Y-138396722D01*
X107452185Y-138204627D01*
X107559982Y-137993063D01*
X107633356Y-137767241D01*
X107670500Y-137532722D01*
X107670500Y-137295278D01*
X107633356Y-137060759D01*
X107559982Y-136834937D01*
X107452185Y-136623373D01*
X107312620Y-136431278D01*
X107312617Y-136431275D01*
X107312615Y-136431272D01*
X107291861Y-136410518D01*
X111591500Y-136410518D01*
X111591500Y-136589481D01*
X111598241Y-136623369D01*
X111626413Y-136765000D01*
X111694898Y-136930336D01*
X111794322Y-137079135D01*
X111920865Y-137205678D01*
X112069664Y-137305102D01*
X112235000Y-137373587D01*
X112385792Y-137403581D01*
X112410513Y-137408499D01*
X112410519Y-137408499D01*
X112410521Y-137408500D01*
X112410522Y-137408500D01*
X112589478Y-137408500D01*
X112589479Y-137408500D01*
X112765000Y-137373587D01*
X112930336Y-137305102D01*
X113079135Y-137205678D01*
X113205678Y-137079135D01*
X113305102Y-136930336D01*
X113373587Y-136765000D01*
X113401759Y-136623369D01*
X113404066Y-136611773D01*
X113404066Y-136611771D01*
X113408499Y-136589486D01*
X113408500Y-136589477D01*
X113408500Y-136410522D01*
X113408499Y-136410518D01*
X113402926Y-136382500D01*
X113373587Y-136235000D01*
X113305102Y-136069664D01*
X113205678Y-135920865D01*
X113079135Y-135794322D01*
X112930336Y-135694898D01*
X112813429Y-135646473D01*
X112765003Y-135626414D01*
X112765001Y-135626413D01*
X112765000Y-135626413D01*
X112676645Y-135608838D01*
X112589481Y-135591500D01*
X112589479Y-135591500D01*
X112410521Y-135591500D01*
X112410518Y-135591500D01*
X112279771Y-135617507D01*
X112235000Y-135626413D01*
X112234999Y-135626413D01*
X112234996Y-135626414D01*
X112069662Y-135694899D01*
X111920869Y-135794319D01*
X111920862Y-135794324D01*
X111794324Y-135920862D01*
X111794319Y-135920869D01*
X111694899Y-136069662D01*
X111626414Y-136234996D01*
X111591500Y-136410518D01*
X107291861Y-136410518D01*
X107144727Y-136263384D01*
X107144724Y-136263382D01*
X107144722Y-136263380D01*
X106952627Y-136123815D01*
X106741063Y-136016018D01*
X106741060Y-136016017D01*
X106741058Y-136016016D01*
X106515246Y-135942645D01*
X106515242Y-135942644D01*
X106515241Y-135942644D01*
X106280722Y-135905500D01*
X106043278Y-135905500D01*
X105808759Y-135942644D01*
X105808753Y-135942645D01*
X105582941Y-136016016D01*
X105582935Y-136016019D01*
X105371369Y-136123817D01*
X105179275Y-136263382D01*
X105179272Y-136263384D01*
X105011384Y-136431272D01*
X105011382Y-136431275D01*
X104871817Y-136623369D01*
X104764019Y-136834935D01*
X104764016Y-136834941D01*
X104690645Y-137060753D01*
X104690644Y-137060758D01*
X104690644Y-137060759D01*
X104653500Y-137295278D01*
X102590500Y-137295278D01*
X102590500Y-137285278D01*
X102553356Y-137050759D01*
X102479982Y-136824937D01*
X102372185Y-136613373D01*
X102232620Y-136421278D01*
X102232617Y-136421275D01*
X102232615Y-136421272D01*
X102064727Y-136253384D01*
X102064724Y-136253382D01*
X102064722Y-136253380D01*
X101872627Y-136113815D01*
X101661063Y-136006018D01*
X101661060Y-136006017D01*
X101661058Y-136006016D01*
X101435246Y-135932645D01*
X101435242Y-135932644D01*
X101435241Y-135932644D01*
X101200722Y-135895500D01*
X100963278Y-135895500D01*
X100728759Y-135932644D01*
X100728753Y-135932645D01*
X100502941Y-136006016D01*
X100502935Y-136006019D01*
X100291369Y-136113817D01*
X100099275Y-136253382D01*
X100099272Y-136253384D01*
X99931384Y-136421272D01*
X99931382Y-136421275D01*
X99791817Y-136613369D01*
X99684019Y-136824935D01*
X99684016Y-136824941D01*
X99610645Y-137050753D01*
X99610644Y-137050758D01*
X99610644Y-137050759D01*
X99573500Y-137285278D01*
X92487805Y-137285278D01*
X92541261Y-137245261D01*
X92628889Y-137128204D01*
X92679989Y-136991201D01*
X92686500Y-136930638D01*
X92686500Y-134755278D01*
X129565500Y-134755278D01*
X129565500Y-134992722D01*
X129582016Y-135096999D01*
X129602645Y-135227246D01*
X129675756Y-135452258D01*
X129676018Y-135453063D01*
X129783815Y-135664627D01*
X129923380Y-135856722D01*
X129923382Y-135856724D01*
X129923384Y-135856727D01*
X130091272Y-136024615D01*
X130091275Y-136024617D01*
X130091278Y-136024620D01*
X130283373Y-136164185D01*
X130494937Y-136271982D01*
X130720759Y-136345356D01*
X130955278Y-136382500D01*
X130955281Y-136382500D01*
X131192719Y-136382500D01*
X131192722Y-136382500D01*
X131427241Y-136345356D01*
X131653063Y-136271982D01*
X131864627Y-136164185D01*
X132056722Y-136024620D01*
X132224620Y-135856722D01*
X132364185Y-135664627D01*
X132471982Y-135453063D01*
X132545356Y-135227241D01*
X132582500Y-134992722D01*
X132582500Y-134965386D01*
X141756000Y-134965386D01*
X141756000Y-135228613D01*
X141790355Y-135489575D01*
X141858484Y-135743835D01*
X141959216Y-135987023D01*
X141959221Y-135987034D01*
X142090823Y-136214975D01*
X142090827Y-136214981D01*
X142175916Y-136325870D01*
X142175917Y-136325871D01*
X143084764Y-135417024D01*
X143099359Y-135452258D01*
X143181437Y-135575097D01*
X143285903Y-135679563D01*
X143408742Y-135761641D01*
X143443974Y-135776234D01*
X142535127Y-136685081D01*
X142535127Y-136685082D01*
X142646017Y-136770171D01*
X142646024Y-136770176D01*
X142873965Y-136901778D01*
X142873976Y-136901783D01*
X143117164Y-137002515D01*
X143371424Y-137070644D01*
X143632386Y-137104999D01*
X143632396Y-137105000D01*
X143895604Y-137105000D01*
X143895613Y-137104999D01*
X144156575Y-137070644D01*
X144410835Y-137002515D01*
X144654023Y-136901783D01*
X144654034Y-136901778D01*
X144881975Y-136770176D01*
X144881981Y-136770172D01*
X144992871Y-136685082D01*
X144992871Y-136685081D01*
X144084025Y-135776234D01*
X144119258Y-135761641D01*
X144242097Y-135679563D01*
X144346563Y-135575097D01*
X144428641Y-135452258D01*
X144443235Y-135417025D01*
X145352081Y-136325871D01*
X145352082Y-136325871D01*
X145437172Y-136214981D01*
X145437176Y-136214975D01*
X145568778Y-135987034D01*
X145568783Y-135987023D01*
X145669515Y-135743835D01*
X145737644Y-135489575D01*
X145771999Y-135228613D01*
X145772000Y-135228604D01*
X145772000Y-134965396D01*
X145771999Y-134965386D01*
X145737644Y-134704424D01*
X145669515Y-134450164D01*
X145568783Y-134206976D01*
X145568778Y-134206965D01*
X145437176Y-133979024D01*
X145437171Y-133979017D01*
X145352081Y-133868127D01*
X144443234Y-134776974D01*
X144428641Y-134741742D01*
X144346563Y-134618903D01*
X144242097Y-134514437D01*
X144119258Y-134432359D01*
X144084024Y-134417764D01*
X144992871Y-133508917D01*
X144992870Y-133508916D01*
X144881981Y-133423827D01*
X144881975Y-133423823D01*
X144654034Y-133292221D01*
X144654023Y-133292216D01*
X144410835Y-133191484D01*
X144156575Y-133123355D01*
X143895613Y-133089000D01*
X143632386Y-133089000D01*
X143371424Y-133123355D01*
X143117164Y-133191484D01*
X142873976Y-133292216D01*
X142873965Y-133292221D01*
X142646024Y-133423823D01*
X142535127Y-133508917D01*
X143443974Y-134417764D01*
X143408742Y-134432359D01*
X143285903Y-134514437D01*
X143181437Y-134618903D01*
X143099359Y-134741742D01*
X143084764Y-134776974D01*
X142175917Y-133868127D01*
X142090823Y-133979024D01*
X141959221Y-134206965D01*
X141959216Y-134206976D01*
X141858484Y-134450164D01*
X141790355Y-134704424D01*
X141756000Y-134965386D01*
X132582500Y-134965386D01*
X132582500Y-134755278D01*
X132545356Y-134520759D01*
X132471982Y-134294937D01*
X132364185Y-134083373D01*
X132224620Y-133891278D01*
X132224617Y-133891275D01*
X132224615Y-133891272D01*
X132056724Y-133723381D01*
X131968909Y-133659580D01*
X131864630Y-133583817D01*
X131864629Y-133583816D01*
X131864627Y-133583815D01*
X131653063Y-133476018D01*
X131653060Y-133476017D01*
X131653058Y-133476016D01*
X131427246Y-133402645D01*
X131427242Y-133402644D01*
X131427241Y-133402644D01*
X131192722Y-133365500D01*
X130955278Y-133365500D01*
X130720759Y-133402644D01*
X130720753Y-133402645D01*
X130494941Y-133476016D01*
X130494935Y-133476019D01*
X130283369Y-133583817D01*
X130091275Y-133723382D01*
X130091272Y-133723384D01*
X129923384Y-133891272D01*
X129923382Y-133891275D01*
X129783817Y-134083369D01*
X129676019Y-134294935D01*
X129676016Y-134294941D01*
X129602645Y-134520753D01*
X129602644Y-134520758D01*
X129602644Y-134520759D01*
X129565500Y-134755278D01*
X92686500Y-134755278D01*
X92686500Y-133833362D01*
X92686499Y-133833350D01*
X92679990Y-133772803D01*
X92679988Y-133772795D01*
X92628889Y-133635797D01*
X92628887Y-133635792D01*
X92541261Y-133518738D01*
X92424207Y-133431112D01*
X92424202Y-133431110D01*
X92287204Y-133380011D01*
X92287196Y-133380009D01*
X92226649Y-133373500D01*
X92226638Y-133373500D01*
X89129362Y-133373500D01*
X89129350Y-133373500D01*
X89068803Y-133380009D01*
X89068795Y-133380011D01*
X88931797Y-133431110D01*
X88931792Y-133431112D01*
X88814738Y-133518738D01*
X88727112Y-133635792D01*
X88727110Y-133635797D01*
X88676011Y-133772795D01*
X88676009Y-133772803D01*
X88669500Y-133833350D01*
X83000000Y-133833350D01*
X83000000Y-131910518D01*
X121591500Y-131910518D01*
X121591500Y-131910521D01*
X121591500Y-132089479D01*
X121626413Y-132265000D01*
X121694898Y-132430336D01*
X121794322Y-132579135D01*
X121920865Y-132705678D01*
X122069664Y-132805102D01*
X122235000Y-132873587D01*
X122410521Y-132908500D01*
X122410522Y-132908500D01*
X122589478Y-132908500D01*
X122589479Y-132908500D01*
X122765000Y-132873587D01*
X122930336Y-132805102D01*
X123079135Y-132705678D01*
X123205678Y-132579135D01*
X123305102Y-132430336D01*
X123373587Y-132265000D01*
X123408500Y-132089479D01*
X123408500Y-131910521D01*
X123373587Y-131735000D01*
X123305102Y-131569664D01*
X123205678Y-131420865D01*
X123079135Y-131294322D01*
X122930336Y-131194898D01*
X122813429Y-131146473D01*
X122765003Y-131126414D01*
X122765001Y-131126413D01*
X122765000Y-131126413D01*
X122676645Y-131108838D01*
X122589481Y-131091500D01*
X122589479Y-131091500D01*
X122410521Y-131091500D01*
X122410518Y-131091500D01*
X122279771Y-131117507D01*
X122235000Y-131126413D01*
X122234999Y-131126413D01*
X122234996Y-131126414D01*
X122069662Y-131194899D01*
X121920869Y-131294319D01*
X121920862Y-131294324D01*
X121794324Y-131420862D01*
X121794322Y-131420865D01*
X121694898Y-131569664D01*
X121680716Y-131603902D01*
X121626414Y-131734996D01*
X121591500Y-131910518D01*
X83000000Y-131910518D01*
X83000000Y-130410518D01*
X119091500Y-130410518D01*
X119091500Y-130589481D01*
X119108838Y-130676645D01*
X119126413Y-130765000D01*
X119194898Y-130930336D01*
X119294322Y-131079135D01*
X119420865Y-131205678D01*
X119569664Y-131305102D01*
X119735000Y-131373587D01*
X119910521Y-131408500D01*
X119910522Y-131408500D01*
X120089478Y-131408500D01*
X120089479Y-131408500D01*
X120265000Y-131373587D01*
X120430336Y-131305102D01*
X120579135Y-131205678D01*
X120705678Y-131079135D01*
X120805102Y-130930336D01*
X120873587Y-130765000D01*
X120908500Y-130589479D01*
X120908500Y-130410521D01*
X120908499Y-130410518D01*
X123091500Y-130410518D01*
X123091500Y-130589481D01*
X123108838Y-130676645D01*
X123126413Y-130765000D01*
X123194898Y-130930336D01*
X123294322Y-131079135D01*
X123420865Y-131205678D01*
X123569664Y-131305102D01*
X123735000Y-131373587D01*
X123910521Y-131408500D01*
X123910522Y-131408500D01*
X124089478Y-131408500D01*
X124089479Y-131408500D01*
X124265000Y-131373587D01*
X124430336Y-131305102D01*
X124579135Y-131205678D01*
X124705678Y-131079135D01*
X124805102Y-130930336D01*
X124873587Y-130765000D01*
X124908500Y-130589479D01*
X124908500Y-130410521D01*
X124873587Y-130235000D01*
X124805102Y-130069664D01*
X124705678Y-129920865D01*
X124579135Y-129794322D01*
X124430336Y-129694898D01*
X124305356Y-129643129D01*
X124265003Y-129626414D01*
X124265001Y-129626413D01*
X124265000Y-129626413D01*
X124176645Y-129608838D01*
X124089481Y-129591500D01*
X124089479Y-129591500D01*
X123910521Y-129591500D01*
X123910518Y-129591500D01*
X123779771Y-129617507D01*
X123735000Y-129626413D01*
X123734999Y-129626413D01*
X123734996Y-129626414D01*
X123569662Y-129694899D01*
X123420869Y-129794319D01*
X123420862Y-129794324D01*
X123294324Y-129920862D01*
X123294319Y-129920869D01*
X123194899Y-130069662D01*
X123126414Y-130234996D01*
X123091500Y-130410518D01*
X120908499Y-130410518D01*
X120873587Y-130235000D01*
X120805102Y-130069664D01*
X120705678Y-129920865D01*
X120579135Y-129794322D01*
X120430336Y-129694898D01*
X120305356Y-129643129D01*
X120265003Y-129626414D01*
X120265001Y-129626413D01*
X120265000Y-129626413D01*
X120176645Y-129608838D01*
X120089481Y-129591500D01*
X120089479Y-129591500D01*
X119910521Y-129591500D01*
X119910518Y-129591500D01*
X119779771Y-129617507D01*
X119735000Y-129626413D01*
X119734999Y-129626413D01*
X119734996Y-129626414D01*
X119569662Y-129694899D01*
X119420869Y-129794319D01*
X119420862Y-129794324D01*
X119294324Y-129920862D01*
X119294319Y-129920869D01*
X119194899Y-130069662D01*
X119126414Y-130234996D01*
X119091500Y-130410518D01*
X83000000Y-130410518D01*
X83000000Y-127675350D01*
X86829500Y-127675350D01*
X86829500Y-129372649D01*
X86836009Y-129433196D01*
X86836011Y-129433204D01*
X86887110Y-129570202D01*
X86887112Y-129570207D01*
X86974738Y-129687261D01*
X87091792Y-129774887D01*
X87091794Y-129774888D01*
X87091796Y-129774889D01*
X87143889Y-129794319D01*
X87228795Y-129825988D01*
X87228803Y-129825990D01*
X87289350Y-129832499D01*
X87289355Y-129832499D01*
X87289362Y-129832500D01*
X87289368Y-129832500D01*
X88986632Y-129832500D01*
X88986638Y-129832500D01*
X88986645Y-129832499D01*
X88986649Y-129832499D01*
X89047196Y-129825990D01*
X89047199Y-129825989D01*
X89047201Y-129825989D01*
X89184204Y-129774889D01*
X89301261Y-129687261D01*
X89388889Y-129570204D01*
X89439989Y-129433201D01*
X89446093Y-129376430D01*
X89446499Y-129372649D01*
X89446500Y-129372632D01*
X89446500Y-128421019D01*
X94449500Y-128421019D01*
X94449500Y-128626981D01*
X94477745Y-128805308D01*
X94481721Y-128830412D01*
X94522486Y-128955875D01*
X94545366Y-129026290D01*
X94638871Y-129209803D01*
X94759932Y-129376430D01*
X94759934Y-129376432D01*
X94759936Y-129376435D01*
X94905564Y-129522063D01*
X94905567Y-129522065D01*
X94905570Y-129522068D01*
X95072197Y-129643129D01*
X95255710Y-129736634D01*
X95451592Y-129800280D01*
X95655019Y-129832500D01*
X95655022Y-129832500D01*
X95860978Y-129832500D01*
X95860981Y-129832500D01*
X96064408Y-129800280D01*
X96260290Y-129736634D01*
X96443803Y-129643129D01*
X96610430Y-129522068D01*
X96756068Y-129376430D01*
X96877129Y-129209803D01*
X96970634Y-129026290D01*
X97034280Y-128830408D01*
X97066500Y-128626981D01*
X97066500Y-128421019D01*
X97034280Y-128217592D01*
X96970634Y-128021710D01*
X96877129Y-127838197D01*
X96756068Y-127671570D01*
X96756065Y-127671567D01*
X96756063Y-127671564D01*
X96610435Y-127525936D01*
X96610432Y-127525934D01*
X96610430Y-127525932D01*
X96443803Y-127404871D01*
X96260290Y-127311366D01*
X96260287Y-127311365D01*
X96260285Y-127311364D01*
X96064412Y-127247721D01*
X96064410Y-127247720D01*
X96064408Y-127247720D01*
X95860981Y-127215500D01*
X95655019Y-127215500D01*
X95451592Y-127247720D01*
X95451590Y-127247720D01*
X95451587Y-127247721D01*
X95255714Y-127311364D01*
X95255708Y-127311367D01*
X95072193Y-127404873D01*
X94905567Y-127525934D01*
X94905564Y-127525936D01*
X94759936Y-127671564D01*
X94759934Y-127671567D01*
X94638873Y-127838193D01*
X94545367Y-128021708D01*
X94545364Y-128021714D01*
X94481721Y-128217587D01*
X94481720Y-128217590D01*
X94481720Y-128217592D01*
X94449500Y-128421019D01*
X89446500Y-128421019D01*
X89446500Y-127675367D01*
X89446499Y-127675350D01*
X89439990Y-127614803D01*
X89439988Y-127614795D01*
X89388889Y-127477797D01*
X89388887Y-127477792D01*
X89301261Y-127360738D01*
X89184207Y-127273112D01*
X89184202Y-127273110D01*
X89047204Y-127222011D01*
X89047196Y-127222009D01*
X88986649Y-127215500D01*
X88986638Y-127215500D01*
X87289362Y-127215500D01*
X87289350Y-127215500D01*
X87228803Y-127222009D01*
X87228795Y-127222011D01*
X87091797Y-127273110D01*
X87091792Y-127273112D01*
X86974738Y-127360738D01*
X86887112Y-127477792D01*
X86887110Y-127477797D01*
X86836011Y-127614795D01*
X86836009Y-127614803D01*
X86829500Y-127675350D01*
X83000000Y-127675350D01*
X83000000Y-124926350D01*
X120741500Y-124926350D01*
X120741500Y-126073649D01*
X120748009Y-126134196D01*
X120748011Y-126134204D01*
X120799110Y-126271203D01*
X120803430Y-126279114D01*
X120801502Y-126280166D01*
X120822025Y-126335193D01*
X120812755Y-126392396D01*
X120781220Y-126468528D01*
X120781217Y-126468538D01*
X120741500Y-126668206D01*
X120741500Y-126871793D01*
X120781217Y-127071461D01*
X120781219Y-127071466D01*
X120859124Y-127259546D01*
X120859126Y-127259550D01*
X120909539Y-127334999D01*
X120930754Y-127402752D01*
X120911971Y-127471218D01*
X120909539Y-127475001D01*
X120859126Y-127550449D01*
X120859124Y-127550453D01*
X120781219Y-127738533D01*
X120781217Y-127738538D01*
X120741500Y-127938206D01*
X120741500Y-128141793D01*
X120781217Y-128341461D01*
X120781219Y-128341466D01*
X120846117Y-128498145D01*
X120859124Y-128529546D01*
X120972228Y-128698818D01*
X121116182Y-128842772D01*
X121285454Y-128955876D01*
X121473539Y-129033783D01*
X121673209Y-129073500D01*
X121673210Y-129073500D01*
X122326790Y-129073500D01*
X122326791Y-129073500D01*
X122526461Y-129033783D01*
X122714546Y-128955876D01*
X122883818Y-128842772D01*
X123027772Y-128698818D01*
X123140876Y-128529546D01*
X123218783Y-128341461D01*
X123228850Y-128290847D01*
X123261755Y-128227941D01*
X123323450Y-128192809D01*
X123394345Y-128196608D01*
X123441523Y-128226336D01*
X125920859Y-130705673D01*
X125920865Y-130705678D01*
X126069664Y-130805103D01*
X126143294Y-130835601D01*
X126235000Y-130873587D01*
X126410521Y-130908500D01*
X129571497Y-130908500D01*
X129639618Y-130928502D01*
X129660592Y-130945405D01*
X131420859Y-132705673D01*
X131420865Y-132705678D01*
X131569664Y-132805103D01*
X131652332Y-132839344D01*
X131735000Y-132873587D01*
X131881399Y-132902707D01*
X131910520Y-132908500D01*
X131910521Y-132908500D01*
X131910523Y-132908500D01*
X135589478Y-132908500D01*
X135589479Y-132908500D01*
X135765000Y-132873587D01*
X135930336Y-132805103D01*
X136079135Y-132705678D01*
X136705678Y-132079135D01*
X136805103Y-131930336D01*
X136873587Y-131764999D01*
X136908500Y-131589479D01*
X136908500Y-131410520D01*
X136873587Y-131235000D01*
X136805103Y-131069664D01*
X136705678Y-130920865D01*
X136705673Y-130920859D01*
X136579140Y-130794326D01*
X136579134Y-130794321D01*
X136529760Y-130761330D01*
X136430336Y-130694897D01*
X136265002Y-130626414D01*
X136265000Y-130626413D01*
X136089482Y-130591500D01*
X136089480Y-130591500D01*
X136089479Y-130591500D01*
X135910521Y-130591500D01*
X135910518Y-130591500D01*
X135735000Y-130626413D01*
X135734997Y-130626414D01*
X135686572Y-130646472D01*
X135569664Y-130694897D01*
X135420865Y-130794321D01*
X135341603Y-130873584D01*
X135160590Y-131054596D01*
X135098280Y-131088620D01*
X135071497Y-131091500D01*
X132428503Y-131091500D01*
X132360382Y-131071498D01*
X132339408Y-131054595D01*
X130579140Y-129294326D01*
X130579134Y-129294321D01*
X130529760Y-129261330D01*
X130430336Y-129194897D01*
X130265000Y-129126413D01*
X130089481Y-129091500D01*
X130089479Y-129091500D01*
X126928503Y-129091500D01*
X126860382Y-129071498D01*
X126839408Y-129054595D01*
X124421897Y-126637083D01*
X124336164Y-126551350D01*
X130091500Y-126551350D01*
X130091500Y-128448649D01*
X130098009Y-128509196D01*
X130098011Y-128509204D01*
X130149110Y-128646202D01*
X130149112Y-128646207D01*
X130236738Y-128763261D01*
X130353792Y-128850887D01*
X130353794Y-128850888D01*
X130353796Y-128850889D01*
X130412875Y-128872924D01*
X130490795Y-128901988D01*
X130490803Y-128901990D01*
X130551350Y-128908499D01*
X130551355Y-128908499D01*
X130551362Y-128908500D01*
X130551368Y-128908500D01*
X132448632Y-128908500D01*
X132448638Y-128908500D01*
X132448645Y-128908499D01*
X132448649Y-128908499D01*
X132509196Y-128901990D01*
X132509199Y-128901989D01*
X132509201Y-128901989D01*
X132646204Y-128850889D01*
X132657045Y-128842774D01*
X132763261Y-128763261D01*
X132850887Y-128646207D01*
X132850888Y-128646205D01*
X132850887Y-128646205D01*
X132850889Y-128646204D01*
X132875660Y-128579789D01*
X132918204Y-128522957D01*
X132984724Y-128498145D01*
X133054098Y-128513236D01*
X133082809Y-128534729D01*
X133122421Y-128574341D01*
X133122424Y-128574343D01*
X133301785Y-128704657D01*
X133499324Y-128805308D01*
X133710176Y-128873818D01*
X133929149Y-128908500D01*
X133929152Y-128908500D01*
X134150848Y-128908500D01*
X134150851Y-128908500D01*
X134369824Y-128873818D01*
X134580676Y-128805308D01*
X134778215Y-128704657D01*
X134957576Y-128574343D01*
X135114343Y-128417576D01*
X135244657Y-128238215D01*
X135345308Y-128040676D01*
X135413818Y-127829824D01*
X135448500Y-127610851D01*
X135448500Y-127389149D01*
X135413818Y-127170176D01*
X135345308Y-126959324D01*
X135320440Y-126910518D01*
X136091500Y-126910518D01*
X136091500Y-126910521D01*
X136091500Y-127089479D01*
X136126413Y-127265000D01*
X136194898Y-127430336D01*
X136294322Y-127579135D01*
X136420865Y-127705678D01*
X136569664Y-127805102D01*
X136735000Y-127873587D01*
X136910521Y-127908500D01*
X136910522Y-127908500D01*
X137089478Y-127908500D01*
X137089479Y-127908500D01*
X137265000Y-127873587D01*
X137430336Y-127805102D01*
X137579135Y-127705678D01*
X137705678Y-127579135D01*
X137805102Y-127430336D01*
X137873587Y-127265000D01*
X137908500Y-127089479D01*
X137908500Y-126910521D01*
X137873587Y-126735000D01*
X137805102Y-126569664D01*
X137705678Y-126420865D01*
X137579135Y-126294322D01*
X137430336Y-126194898D01*
X137283790Y-126134196D01*
X137265003Y-126126414D01*
X137265001Y-126126413D01*
X137265000Y-126126413D01*
X137176645Y-126108838D01*
X137089481Y-126091500D01*
X137089479Y-126091500D01*
X136910521Y-126091500D01*
X136910518Y-126091500D01*
X136779771Y-126117507D01*
X136735000Y-126126413D01*
X136734999Y-126126413D01*
X136734996Y-126126414D01*
X136603902Y-126180716D01*
X136570162Y-126194692D01*
X136569662Y-126194899D01*
X136420869Y-126294319D01*
X136420862Y-126294324D01*
X136294324Y-126420862D01*
X136294319Y-126420869D01*
X136194899Y-126569662D01*
X136126414Y-126734996D01*
X136091500Y-126910518D01*
X135320440Y-126910518D01*
X135244657Y-126761785D01*
X135114343Y-126582424D01*
X135114341Y-126582421D01*
X134957578Y-126425658D01*
X134778218Y-126295345D01*
X134778217Y-126295344D01*
X134778215Y-126295343D01*
X134580676Y-126194692D01*
X134580673Y-126194691D01*
X134580671Y-126194690D01*
X134369829Y-126126183D01*
X134369825Y-126126182D01*
X134369824Y-126126182D01*
X134150851Y-126091500D01*
X133929149Y-126091500D01*
X133710176Y-126126182D01*
X133710170Y-126126183D01*
X133499328Y-126194690D01*
X133499322Y-126194693D01*
X133301781Y-126295345D01*
X133122421Y-126425658D01*
X133082808Y-126465271D01*
X133020496Y-126499296D01*
X132949680Y-126494230D01*
X132892845Y-126451683D01*
X132875662Y-126420214D01*
X132850889Y-126353796D01*
X132850887Y-126353794D01*
X132850887Y-126353792D01*
X132763261Y-126236738D01*
X132646207Y-126149112D01*
X132646202Y-126149110D01*
X132509204Y-126098011D01*
X132509196Y-126098009D01*
X132448649Y-126091500D01*
X132448638Y-126091500D01*
X130551362Y-126091500D01*
X130551350Y-126091500D01*
X130490803Y-126098009D01*
X130490795Y-126098011D01*
X130353797Y-126149110D01*
X130353792Y-126149112D01*
X130236738Y-126236738D01*
X130149112Y-126353792D01*
X130149110Y-126353797D01*
X130098011Y-126490795D01*
X130098009Y-126490803D01*
X130091500Y-126551350D01*
X124336164Y-126551350D01*
X123849140Y-126064326D01*
X123849134Y-126064321D01*
X123799760Y-126031330D01*
X123700336Y-125964897D01*
X123535000Y-125896413D01*
X123359918Y-125861587D01*
X123297009Y-125828679D01*
X123261877Y-125766984D01*
X123258500Y-125738008D01*
X123258500Y-124926367D01*
X123258499Y-124926350D01*
X123251990Y-124865803D01*
X123251988Y-124865795D01*
X123200889Y-124728797D01*
X123200887Y-124728792D01*
X123113261Y-124611738D01*
X122996207Y-124524112D01*
X122996202Y-124524110D01*
X122859204Y-124473011D01*
X122859196Y-124473009D01*
X122798649Y-124466500D01*
X122798638Y-124466500D01*
X121201362Y-124466500D01*
X121201350Y-124466500D01*
X121140803Y-124473009D01*
X121140795Y-124473011D01*
X121003797Y-124524110D01*
X121003792Y-124524112D01*
X120886738Y-124611738D01*
X120799112Y-124728792D01*
X120799110Y-124728797D01*
X120748011Y-124865795D01*
X120748009Y-124865803D01*
X120741500Y-124926350D01*
X83000000Y-124926350D01*
X83000000Y-121311386D01*
X88670000Y-121311386D01*
X88670000Y-121574613D01*
X88704355Y-121835575D01*
X88772484Y-122089835D01*
X88873216Y-122333023D01*
X88873221Y-122333034D01*
X89004823Y-122560975D01*
X89004827Y-122560981D01*
X89089916Y-122671870D01*
X89089917Y-122671871D01*
X89998764Y-121763024D01*
X90013359Y-121798258D01*
X90095437Y-121921097D01*
X90199903Y-122025563D01*
X90322742Y-122107641D01*
X90357974Y-122122234D01*
X89449127Y-123031081D01*
X89449127Y-123031082D01*
X89560017Y-123116171D01*
X89560024Y-123116176D01*
X89787965Y-123247778D01*
X89787976Y-123247783D01*
X90031164Y-123348515D01*
X90285424Y-123416644D01*
X90546386Y-123450999D01*
X90546396Y-123451000D01*
X90809604Y-123451000D01*
X90809613Y-123450999D01*
X91070575Y-123416644D01*
X91324835Y-123348515D01*
X91568023Y-123247783D01*
X91568034Y-123247778D01*
X91795975Y-123116176D01*
X91795981Y-123116172D01*
X91906871Y-123031082D01*
X91906871Y-123031081D01*
X90998025Y-122122234D01*
X91033258Y-122107641D01*
X91156097Y-122025563D01*
X91260563Y-121921097D01*
X91342641Y-121798258D01*
X91357235Y-121763025D01*
X92266081Y-122671871D01*
X92266082Y-122671871D01*
X92351172Y-122560981D01*
X92351176Y-122560975D01*
X92482778Y-122333034D01*
X92482783Y-122333023D01*
X92583515Y-122089835D01*
X92651644Y-121835575D01*
X92685999Y-121574613D01*
X92686000Y-121574604D01*
X92686000Y-121311396D01*
X92685999Y-121311386D01*
X92651690Y-121050773D01*
X92651690Y-121050772D01*
X92651689Y-121050768D01*
X92651643Y-121050421D01*
X92648657Y-121039278D01*
X102113500Y-121039278D01*
X102113500Y-121276722D01*
X102139836Y-121442999D01*
X102150645Y-121511246D01*
X102224016Y-121737058D01*
X102224018Y-121737063D01*
X102331815Y-121948627D01*
X102471380Y-122140722D01*
X102471382Y-122140724D01*
X102471384Y-122140727D01*
X102639272Y-122308615D01*
X102639275Y-122308617D01*
X102639278Y-122308620D01*
X102831373Y-122448185D01*
X103042937Y-122555982D01*
X103268759Y-122629356D01*
X103503278Y-122666500D01*
X103503281Y-122666500D01*
X103740719Y-122666500D01*
X103740722Y-122666500D01*
X103975241Y-122629356D01*
X104201063Y-122555982D01*
X104412627Y-122448185D01*
X104604722Y-122308620D01*
X104772620Y-122140722D01*
X104912185Y-121948627D01*
X105019982Y-121737063D01*
X105093356Y-121511241D01*
X105130500Y-121276722D01*
X105130500Y-121039278D01*
X129555500Y-121039278D01*
X129555500Y-121276722D01*
X129581836Y-121442999D01*
X129592645Y-121511246D01*
X129666016Y-121737058D01*
X129666018Y-121737063D01*
X129773815Y-121948627D01*
X129913380Y-122140722D01*
X129913382Y-122140724D01*
X129913384Y-122140727D01*
X130081272Y-122308615D01*
X130081275Y-122308617D01*
X130081278Y-122308620D01*
X130273373Y-122448185D01*
X130484937Y-122555982D01*
X130710759Y-122629356D01*
X130945278Y-122666500D01*
X130945281Y-122666500D01*
X131182719Y-122666500D01*
X131182722Y-122666500D01*
X131417241Y-122629356D01*
X131643063Y-122555982D01*
X131854627Y-122448185D01*
X132046722Y-122308620D01*
X132214620Y-122140722D01*
X132354185Y-121948627D01*
X132461982Y-121737063D01*
X132535356Y-121511241D01*
X132572500Y-121276722D01*
X132572500Y-121039278D01*
X132535356Y-120804759D01*
X132461982Y-120578937D01*
X132354185Y-120367373D01*
X132214620Y-120175278D01*
X132214617Y-120175275D01*
X132214615Y-120175272D01*
X132046727Y-120007384D01*
X132046724Y-120007382D01*
X132046722Y-120007380D01*
X131854627Y-119867815D01*
X131643063Y-119760018D01*
X131643060Y-119760017D01*
X131643058Y-119760016D01*
X131537815Y-119725821D01*
X131417246Y-119686645D01*
X131417242Y-119686644D01*
X131417241Y-119686644D01*
X131182722Y-119649500D01*
X130945278Y-119649500D01*
X130710759Y-119686644D01*
X130710753Y-119686645D01*
X130484941Y-119760016D01*
X130484935Y-119760019D01*
X130273369Y-119867817D01*
X130081275Y-120007382D01*
X130081272Y-120007384D01*
X129913384Y-120175272D01*
X129913382Y-120175275D01*
X129773817Y-120367369D01*
X129666019Y-120578935D01*
X129666016Y-120578941D01*
X129592645Y-120804753D01*
X129592644Y-120804758D01*
X129592644Y-120804759D01*
X129555500Y-121039278D01*
X105130500Y-121039278D01*
X105093356Y-120804759D01*
X105019982Y-120578937D01*
X104912185Y-120367373D01*
X104772620Y-120175278D01*
X104772617Y-120175275D01*
X104772615Y-120175272D01*
X104604727Y-120007384D01*
X104604724Y-120007382D01*
X104604722Y-120007380D01*
X104412627Y-119867815D01*
X104201063Y-119760018D01*
X104201060Y-119760017D01*
X104201058Y-119760016D01*
X103975246Y-119686645D01*
X103975242Y-119686644D01*
X103975241Y-119686644D01*
X103740722Y-119649500D01*
X103503278Y-119649500D01*
X103268759Y-119686644D01*
X103268753Y-119686645D01*
X103042941Y-119760016D01*
X103042935Y-119760019D01*
X102831369Y-119867817D01*
X102639275Y-120007382D01*
X102639272Y-120007384D01*
X102471384Y-120175272D01*
X102471382Y-120175275D01*
X102331817Y-120367369D01*
X102224019Y-120578935D01*
X102224016Y-120578941D01*
X102150645Y-120804753D01*
X102150644Y-120804758D01*
X102150644Y-120804759D01*
X102113500Y-121039278D01*
X92648657Y-121039278D01*
X92583515Y-120796164D01*
X92482783Y-120552976D01*
X92482778Y-120552965D01*
X92351176Y-120325024D01*
X92351171Y-120325017D01*
X92266081Y-120214127D01*
X91357234Y-121122974D01*
X91342641Y-121087742D01*
X91260563Y-120964903D01*
X91156097Y-120860437D01*
X91033258Y-120778359D01*
X90998024Y-120763764D01*
X91906871Y-119854917D01*
X91906870Y-119854916D01*
X91795981Y-119769827D01*
X91795975Y-119769823D01*
X91568034Y-119638221D01*
X91568023Y-119638216D01*
X91498334Y-119609350D01*
X142009500Y-119609350D01*
X142009500Y-122706649D01*
X142016009Y-122767196D01*
X142016011Y-122767204D01*
X142067110Y-122904202D01*
X142067112Y-122904207D01*
X142154738Y-123021261D01*
X142271792Y-123108887D01*
X142271794Y-123108888D01*
X142271796Y-123108889D01*
X142330875Y-123130924D01*
X142408795Y-123159988D01*
X142408803Y-123159990D01*
X142469350Y-123166499D01*
X142469355Y-123166499D01*
X142469362Y-123166500D01*
X142469368Y-123166500D01*
X145566632Y-123166500D01*
X145566638Y-123166500D01*
X145566645Y-123166499D01*
X145566649Y-123166499D01*
X145627196Y-123159990D01*
X145627199Y-123159989D01*
X145627201Y-123159989D01*
X145764204Y-123108889D01*
X145881261Y-123021261D01*
X145968889Y-122904204D01*
X146019989Y-122767201D01*
X146026500Y-122706638D01*
X146026500Y-119609362D01*
X146026499Y-119609350D01*
X146019990Y-119548803D01*
X146019988Y-119548795D01*
X145968889Y-119411797D01*
X145968887Y-119411792D01*
X145881261Y-119294738D01*
X145764207Y-119207112D01*
X145764202Y-119207110D01*
X145627204Y-119156011D01*
X145627196Y-119156009D01*
X145566649Y-119149500D01*
X145566638Y-119149500D01*
X142469362Y-119149500D01*
X142469350Y-119149500D01*
X142408803Y-119156009D01*
X142408795Y-119156011D01*
X142271797Y-119207110D01*
X142271792Y-119207112D01*
X142154738Y-119294738D01*
X142067112Y-119411792D01*
X142067110Y-119411797D01*
X142016011Y-119548795D01*
X142016009Y-119548803D01*
X142009500Y-119609350D01*
X91498334Y-119609350D01*
X91324835Y-119537484D01*
X91070575Y-119469355D01*
X90809613Y-119435000D01*
X90546386Y-119435000D01*
X90285424Y-119469355D01*
X90031164Y-119537484D01*
X89787976Y-119638216D01*
X89787965Y-119638221D01*
X89560024Y-119769823D01*
X89449127Y-119854917D01*
X90357974Y-120763764D01*
X90322742Y-120778359D01*
X90199903Y-120860437D01*
X90095437Y-120964903D01*
X90013359Y-121087742D01*
X89998764Y-121122974D01*
X89089917Y-120214127D01*
X89004823Y-120325024D01*
X88873221Y-120552965D01*
X88873216Y-120552976D01*
X88772484Y-120796164D01*
X88704355Y-121050424D01*
X88670000Y-121311386D01*
X83000000Y-121311386D01*
X83000000Y-114894350D01*
X88669500Y-114894350D01*
X88669500Y-117991649D01*
X88676009Y-118052196D01*
X88676011Y-118052204D01*
X88727110Y-118189202D01*
X88727112Y-118189207D01*
X88814738Y-118306261D01*
X88931792Y-118393887D01*
X88931794Y-118393888D01*
X88931796Y-118393889D01*
X88990875Y-118415924D01*
X89068795Y-118444988D01*
X89068803Y-118444990D01*
X89129350Y-118451499D01*
X89129355Y-118451499D01*
X89129362Y-118451500D01*
X89129368Y-118451500D01*
X92226632Y-118451500D01*
X92226638Y-118451500D01*
X92226645Y-118451499D01*
X92226649Y-118451499D01*
X92287196Y-118444990D01*
X92287199Y-118444989D01*
X92287201Y-118444989D01*
X92424204Y-118393889D01*
X92541261Y-118306261D01*
X92628889Y-118189204D01*
X92679989Y-118052201D01*
X92686500Y-117991638D01*
X92686500Y-115959278D01*
X102123500Y-115959278D01*
X102123500Y-116196722D01*
X102160644Y-116431241D01*
X102160645Y-116431246D01*
X102234016Y-116657058D01*
X102234018Y-116657063D01*
X102341815Y-116868627D01*
X102481380Y-117060722D01*
X102481382Y-117060724D01*
X102481384Y-117060727D01*
X102649272Y-117228615D01*
X102649275Y-117228617D01*
X102649278Y-117228620D01*
X102841373Y-117368185D01*
X103052937Y-117475982D01*
X103278759Y-117549356D01*
X103513278Y-117586500D01*
X103513281Y-117586500D01*
X103750719Y-117586500D01*
X103750722Y-117586500D01*
X103985241Y-117549356D01*
X104211063Y-117475982D01*
X104422627Y-117368185D01*
X104614722Y-117228620D01*
X104782620Y-117060722D01*
X104922185Y-116868627D01*
X105029982Y-116657063D01*
X105103356Y-116431241D01*
X105140500Y-116196722D01*
X105140500Y-115959278D01*
X129565500Y-115959278D01*
X129565500Y-116196722D01*
X129602644Y-116431241D01*
X129602645Y-116431246D01*
X129676016Y-116657058D01*
X129676018Y-116657063D01*
X129783815Y-116868627D01*
X129923380Y-117060722D01*
X129923382Y-117060724D01*
X129923384Y-117060727D01*
X130091272Y-117228615D01*
X130091275Y-117228617D01*
X130091278Y-117228620D01*
X130283373Y-117368185D01*
X130494937Y-117475982D01*
X130720759Y-117549356D01*
X130955278Y-117586500D01*
X130955281Y-117586500D01*
X131192719Y-117586500D01*
X131192722Y-117586500D01*
X131427241Y-117549356D01*
X131653063Y-117475982D01*
X131864627Y-117368185D01*
X132056722Y-117228620D01*
X132224620Y-117060722D01*
X132364185Y-116868627D01*
X132471982Y-116657063D01*
X132545356Y-116431241D01*
X132582500Y-116196722D01*
X132582500Y-115959278D01*
X132545356Y-115724759D01*
X132471982Y-115498937D01*
X132364185Y-115287373D01*
X132224620Y-115095278D01*
X132224617Y-115095275D01*
X132224615Y-115095272D01*
X132056727Y-114927384D01*
X132056724Y-114927382D01*
X132056722Y-114927380D01*
X131864627Y-114787815D01*
X131653063Y-114680018D01*
X131653060Y-114680017D01*
X131653058Y-114680016D01*
X131427246Y-114606645D01*
X131427242Y-114606644D01*
X131427241Y-114606644D01*
X131192722Y-114569500D01*
X130955278Y-114569500D01*
X130720759Y-114606644D01*
X130720753Y-114606645D01*
X130494941Y-114680016D01*
X130494935Y-114680019D01*
X130283369Y-114787817D01*
X130091275Y-114927382D01*
X130091272Y-114927384D01*
X129923384Y-115095272D01*
X129923382Y-115095275D01*
X129783817Y-115287369D01*
X129676019Y-115498935D01*
X129676016Y-115498941D01*
X129602645Y-115724753D01*
X129602644Y-115724758D01*
X129602644Y-115724759D01*
X129565500Y-115959278D01*
X105140500Y-115959278D01*
X105103356Y-115724759D01*
X105029982Y-115498937D01*
X104922185Y-115287373D01*
X104782620Y-115095278D01*
X104782617Y-115095275D01*
X104782615Y-115095272D01*
X104614727Y-114927384D01*
X104614724Y-114927382D01*
X104614722Y-114927380D01*
X104422627Y-114787815D01*
X104211063Y-114680018D01*
X104211060Y-114680017D01*
X104211058Y-114680016D01*
X103985246Y-114606645D01*
X103985242Y-114606644D01*
X103985241Y-114606644D01*
X103750722Y-114569500D01*
X103513278Y-114569500D01*
X103278759Y-114606644D01*
X103278753Y-114606645D01*
X103052941Y-114680016D01*
X103052935Y-114680019D01*
X102841369Y-114787817D01*
X102649275Y-114927382D01*
X102649272Y-114927384D01*
X102481384Y-115095272D01*
X102481382Y-115095275D01*
X102341817Y-115287369D01*
X102234019Y-115498935D01*
X102234016Y-115498941D01*
X102160645Y-115724753D01*
X102160644Y-115724758D01*
X102160644Y-115724759D01*
X102123500Y-115959278D01*
X92686500Y-115959278D01*
X92686500Y-114894362D01*
X92686499Y-114894350D01*
X92679990Y-114833803D01*
X92679988Y-114833795D01*
X92628889Y-114696797D01*
X92628887Y-114696792D01*
X92541261Y-114579738D01*
X92424207Y-114492112D01*
X92424202Y-114492110D01*
X92287204Y-114441011D01*
X92287196Y-114441009D01*
X92226649Y-114434500D01*
X92226638Y-114434500D01*
X89129362Y-114434500D01*
X89129350Y-114434500D01*
X89068803Y-114441009D01*
X89068795Y-114441011D01*
X88931797Y-114492110D01*
X88931792Y-114492112D01*
X88814738Y-114579738D01*
X88727112Y-114696792D01*
X88727110Y-114696797D01*
X88676011Y-114833795D01*
X88676009Y-114833803D01*
X88669500Y-114894350D01*
X83000000Y-114894350D01*
X83000000Y-108879350D01*
X86829500Y-108879350D01*
X86829500Y-110576649D01*
X86836009Y-110637196D01*
X86836011Y-110637204D01*
X86887110Y-110774202D01*
X86887112Y-110774207D01*
X86974738Y-110891261D01*
X87091792Y-110978887D01*
X87091794Y-110978888D01*
X87091796Y-110978889D01*
X87150875Y-111000924D01*
X87228795Y-111029988D01*
X87228803Y-111029990D01*
X87289350Y-111036499D01*
X87289355Y-111036499D01*
X87289362Y-111036500D01*
X87289368Y-111036500D01*
X88986632Y-111036500D01*
X88986638Y-111036500D01*
X88986645Y-111036499D01*
X88986649Y-111036499D01*
X89047196Y-111029990D01*
X89047199Y-111029989D01*
X89047201Y-111029989D01*
X89184204Y-110978889D01*
X89189397Y-110975002D01*
X89301261Y-110891261D01*
X89388887Y-110774207D01*
X89388887Y-110774206D01*
X89388889Y-110774204D01*
X89439989Y-110637201D01*
X89446093Y-110580430D01*
X89446499Y-110576649D01*
X89446500Y-110576632D01*
X89446500Y-109625019D01*
X94449500Y-109625019D01*
X94449500Y-109830981D01*
X94481710Y-110034343D01*
X94481721Y-110034412D01*
X94525194Y-110168209D01*
X94545366Y-110230290D01*
X94638871Y-110413803D01*
X94759932Y-110580430D01*
X94759934Y-110580432D01*
X94759936Y-110580435D01*
X94905564Y-110726063D01*
X94905567Y-110726065D01*
X94905570Y-110726068D01*
X95072197Y-110847129D01*
X95255710Y-110940634D01*
X95451592Y-111004280D01*
X95655019Y-111036500D01*
X95655022Y-111036500D01*
X95860978Y-111036500D01*
X95860981Y-111036500D01*
X96064408Y-111004280D01*
X96260290Y-110940634D01*
X96443803Y-110847129D01*
X96610430Y-110726068D01*
X96756068Y-110580430D01*
X96877129Y-110413803D01*
X96970634Y-110230290D01*
X97034280Y-110034408D01*
X97066500Y-109830981D01*
X97066500Y-109625019D01*
X97034280Y-109421592D01*
X96970634Y-109225710D01*
X96877129Y-109042197D01*
X96756068Y-108875570D01*
X96756065Y-108875567D01*
X96756063Y-108875564D01*
X96610435Y-108729936D01*
X96610432Y-108729934D01*
X96610430Y-108729932D01*
X96443803Y-108608871D01*
X96260290Y-108515366D01*
X96260287Y-108515365D01*
X96260285Y-108515364D01*
X96064412Y-108451721D01*
X96064410Y-108451720D01*
X96064408Y-108451720D01*
X95904230Y-108426350D01*
X122241500Y-108426350D01*
X122241500Y-109573649D01*
X122248009Y-109634196D01*
X122248011Y-109634204D01*
X122299110Y-109771203D01*
X122303430Y-109779114D01*
X122301502Y-109780166D01*
X122322025Y-109835193D01*
X122312755Y-109892396D01*
X122281220Y-109968528D01*
X122281217Y-109968538D01*
X122241500Y-110168206D01*
X122241500Y-110371793D01*
X122281217Y-110571461D01*
X122281219Y-110571466D01*
X122359124Y-110759546D01*
X122359126Y-110759550D01*
X122409539Y-110834999D01*
X122430754Y-110902752D01*
X122411971Y-110971218D01*
X122409539Y-110975001D01*
X122359126Y-111050449D01*
X122359124Y-111050453D01*
X122281219Y-111238533D01*
X122281217Y-111238538D01*
X122241500Y-111438206D01*
X122241500Y-111641793D01*
X122281217Y-111841461D01*
X122359124Y-112029546D01*
X122472228Y-112198818D01*
X122616182Y-112342772D01*
X122785454Y-112455876D01*
X122973539Y-112533783D01*
X123173209Y-112573500D01*
X123173210Y-112573500D01*
X123826790Y-112573500D01*
X123826791Y-112573500D01*
X124026461Y-112533783D01*
X124214546Y-112455876D01*
X124383818Y-112342772D01*
X124527772Y-112198818D01*
X124640876Y-112029546D01*
X124718783Y-111841461D01*
X124758500Y-111641791D01*
X124758500Y-111438209D01*
X124718783Y-111238539D01*
X124640876Y-111050454D01*
X124590459Y-110975001D01*
X124569245Y-110907249D01*
X124588028Y-110838782D01*
X124590454Y-110835005D01*
X124640876Y-110759546D01*
X124718783Y-110571461D01*
X124758500Y-110371791D01*
X124758500Y-110168209D01*
X124718783Y-109968539D01*
X124687243Y-109892396D01*
X124679655Y-109821807D01*
X124697920Y-109779850D01*
X124696570Y-109779113D01*
X124700886Y-109771207D01*
X124700889Y-109771204D01*
X124751989Y-109634201D01*
X124752977Y-109625019D01*
X124758499Y-109573649D01*
X124758500Y-109573632D01*
X124758500Y-108849149D01*
X131091500Y-108849149D01*
X131091500Y-109070851D01*
X131116028Y-109225714D01*
X131126183Y-109289829D01*
X131168994Y-109421587D01*
X131194692Y-109500676D01*
X131262728Y-109634204D01*
X131295345Y-109698218D01*
X131425658Y-109877578D01*
X131465270Y-109917190D01*
X131499296Y-109979502D01*
X131494231Y-110050317D01*
X131451684Y-110107153D01*
X131420208Y-110124340D01*
X131353797Y-110149110D01*
X131353792Y-110149112D01*
X131236738Y-110236738D01*
X131149112Y-110353792D01*
X131149110Y-110353797D01*
X131098011Y-110490795D01*
X131098009Y-110490803D01*
X131091500Y-110551350D01*
X131091500Y-112448649D01*
X131098009Y-112509196D01*
X131098011Y-112509204D01*
X131149110Y-112646202D01*
X131149112Y-112646207D01*
X131236738Y-112763261D01*
X131353792Y-112850887D01*
X131353794Y-112850888D01*
X131353796Y-112850889D01*
X131412875Y-112872924D01*
X131490795Y-112901988D01*
X131490803Y-112901990D01*
X131551350Y-112908499D01*
X131551355Y-112908499D01*
X131551362Y-112908500D01*
X132571497Y-112908500D01*
X132639618Y-112928502D01*
X132660592Y-112945405D01*
X136054595Y-116339408D01*
X136088621Y-116401720D01*
X136091500Y-116428503D01*
X136091500Y-117589479D01*
X136126413Y-117765000D01*
X136194898Y-117930336D01*
X136294322Y-118079135D01*
X136420865Y-118205678D01*
X136569664Y-118305102D01*
X136735000Y-118373587D01*
X136910521Y-118408500D01*
X136910522Y-118408500D01*
X137089478Y-118408500D01*
X137089479Y-118408500D01*
X137265000Y-118373587D01*
X137430336Y-118305102D01*
X137579135Y-118205678D01*
X137705678Y-118079135D01*
X137805102Y-117930336D01*
X137873587Y-117765000D01*
X137908500Y-117589479D01*
X137908500Y-116026386D01*
X142010000Y-116026386D01*
X142010000Y-116289613D01*
X142044355Y-116550575D01*
X142112484Y-116804835D01*
X142213216Y-117048023D01*
X142213221Y-117048034D01*
X142344823Y-117275975D01*
X142344827Y-117275981D01*
X142429916Y-117386870D01*
X142429917Y-117386871D01*
X143338764Y-116478024D01*
X143353359Y-116513258D01*
X143435437Y-116636097D01*
X143539903Y-116740563D01*
X143662742Y-116822641D01*
X143697974Y-116837234D01*
X142789127Y-117746081D01*
X142789127Y-117746082D01*
X142900017Y-117831171D01*
X142900024Y-117831176D01*
X143127965Y-117962778D01*
X143127976Y-117962783D01*
X143371164Y-118063515D01*
X143625424Y-118131644D01*
X143886386Y-118165999D01*
X143886396Y-118166000D01*
X144149604Y-118166000D01*
X144149613Y-118165999D01*
X144410575Y-118131644D01*
X144664835Y-118063515D01*
X144908023Y-117962783D01*
X144908034Y-117962778D01*
X145135975Y-117831176D01*
X145135981Y-117831172D01*
X145246871Y-117746082D01*
X145246871Y-117746081D01*
X144338025Y-116837234D01*
X144373258Y-116822641D01*
X144496097Y-116740563D01*
X144600563Y-116636097D01*
X144682641Y-116513258D01*
X144697235Y-116478025D01*
X145606081Y-117386871D01*
X145606082Y-117386871D01*
X145691172Y-117275981D01*
X145691176Y-117275975D01*
X145822778Y-117048034D01*
X145822783Y-117048023D01*
X145923515Y-116804835D01*
X145991644Y-116550575D01*
X146025999Y-116289613D01*
X146026000Y-116289604D01*
X146026000Y-116026396D01*
X146025999Y-116026386D01*
X145991644Y-115765424D01*
X145923515Y-115511164D01*
X145822783Y-115267976D01*
X145822778Y-115267965D01*
X145691176Y-115040024D01*
X145691171Y-115040017D01*
X145606081Y-114929127D01*
X144697234Y-115837974D01*
X144682641Y-115802742D01*
X144600563Y-115679903D01*
X144496097Y-115575437D01*
X144373258Y-115493359D01*
X144338024Y-115478764D01*
X145246871Y-114569917D01*
X145246870Y-114569916D01*
X145135981Y-114484827D01*
X145135975Y-114484823D01*
X144908034Y-114353221D01*
X144908023Y-114353216D01*
X144664835Y-114252484D01*
X144410575Y-114184355D01*
X144149613Y-114150000D01*
X143886386Y-114150000D01*
X143625424Y-114184355D01*
X143371164Y-114252484D01*
X143127976Y-114353216D01*
X143127965Y-114353221D01*
X142900024Y-114484823D01*
X142789127Y-114569917D01*
X143697974Y-115478764D01*
X143662742Y-115493359D01*
X143539903Y-115575437D01*
X143435437Y-115679903D01*
X143353359Y-115802742D01*
X143338764Y-115837974D01*
X142429917Y-114929127D01*
X142344823Y-115040024D01*
X142213221Y-115267965D01*
X142213216Y-115267976D01*
X142112484Y-115511164D01*
X142044355Y-115765424D01*
X142010000Y-116026386D01*
X137908500Y-116026386D01*
X137908500Y-115910521D01*
X137873587Y-115735000D01*
X137827254Y-115623142D01*
X137805103Y-115569664D01*
X137705678Y-115420865D01*
X137705673Y-115420859D01*
X133945405Y-111660591D01*
X133911379Y-111598279D01*
X133908500Y-111571496D01*
X133908500Y-110551367D01*
X133908499Y-110551350D01*
X133901990Y-110490803D01*
X133901988Y-110490795D01*
X133872924Y-110412875D01*
X133850889Y-110353796D01*
X133850888Y-110353794D01*
X133850887Y-110353792D01*
X133763261Y-110236738D01*
X133646208Y-110149113D01*
X133646205Y-110149112D01*
X133646204Y-110149111D01*
X133579788Y-110124338D01*
X133522956Y-110081794D01*
X133498145Y-110015274D01*
X133513237Y-109945899D01*
X133534730Y-109917189D01*
X133574341Y-109877578D01*
X133574343Y-109877576D01*
X133704657Y-109698215D01*
X133805308Y-109500676D01*
X133873818Y-109289824D01*
X133908500Y-109070851D01*
X133908500Y-108849149D01*
X133873818Y-108630176D01*
X133805308Y-108419324D01*
X133704657Y-108221785D01*
X133574343Y-108042424D01*
X133574341Y-108042421D01*
X133417578Y-107885658D01*
X133238218Y-107755345D01*
X133238217Y-107755344D01*
X133238215Y-107755343D01*
X133040676Y-107654692D01*
X133040673Y-107654691D01*
X133040671Y-107654690D01*
X132829829Y-107586183D01*
X132829825Y-107586182D01*
X132829824Y-107586182D01*
X132610851Y-107551500D01*
X132389149Y-107551500D01*
X132170176Y-107586182D01*
X132170170Y-107586183D01*
X131959328Y-107654690D01*
X131959322Y-107654693D01*
X131761781Y-107755345D01*
X131582421Y-107885658D01*
X131425658Y-108042421D01*
X131295345Y-108221781D01*
X131194691Y-108419325D01*
X131126183Y-108630170D01*
X131126182Y-108630175D01*
X131126182Y-108630176D01*
X131091500Y-108849149D01*
X124758500Y-108849149D01*
X124758500Y-108426367D01*
X124758499Y-108426350D01*
X124751990Y-108365803D01*
X124751988Y-108365795D01*
X124700889Y-108228797D01*
X124700887Y-108228792D01*
X124613261Y-108111738D01*
X124496207Y-108024112D01*
X124496202Y-108024110D01*
X124359204Y-107973011D01*
X124359196Y-107973009D01*
X124298649Y-107966500D01*
X124298638Y-107966500D01*
X122701362Y-107966500D01*
X122701350Y-107966500D01*
X122640803Y-107973009D01*
X122640795Y-107973011D01*
X122503797Y-108024110D01*
X122503792Y-108024112D01*
X122386738Y-108111738D01*
X122299112Y-108228792D01*
X122299110Y-108228797D01*
X122248011Y-108365795D01*
X122248009Y-108365803D01*
X122241500Y-108426350D01*
X95904230Y-108426350D01*
X95860981Y-108419500D01*
X95655019Y-108419500D01*
X95451592Y-108451720D01*
X95451590Y-108451720D01*
X95451587Y-108451721D01*
X95255714Y-108515364D01*
X95255708Y-108515367D01*
X95072193Y-108608873D01*
X94905567Y-108729934D01*
X94905564Y-108729936D01*
X94759936Y-108875564D01*
X94759934Y-108875567D01*
X94638873Y-109042193D01*
X94545367Y-109225708D01*
X94545364Y-109225714D01*
X94481721Y-109421587D01*
X94481720Y-109421590D01*
X94481720Y-109421592D01*
X94449500Y-109625019D01*
X89446500Y-109625019D01*
X89446500Y-108879367D01*
X89446499Y-108879350D01*
X89439990Y-108818803D01*
X89439988Y-108818795D01*
X89388889Y-108681797D01*
X89388887Y-108681792D01*
X89301261Y-108564738D01*
X89184207Y-108477112D01*
X89184202Y-108477110D01*
X89047204Y-108426011D01*
X89047196Y-108426009D01*
X88986649Y-108419500D01*
X88986638Y-108419500D01*
X87289362Y-108419500D01*
X87289350Y-108419500D01*
X87228803Y-108426009D01*
X87228795Y-108426011D01*
X87091797Y-108477110D01*
X87091792Y-108477112D01*
X86974738Y-108564738D01*
X86887112Y-108681792D01*
X86887110Y-108681797D01*
X86836011Y-108818795D01*
X86836009Y-108818803D01*
X86829500Y-108879350D01*
X83000000Y-108879350D01*
X83000000Y-107123231D01*
X83002194Y-107115757D01*
X83000915Y-107108075D01*
X83012056Y-107082171D01*
X83020002Y-107055110D01*
X83025889Y-107050008D01*
X83028966Y-107042855D01*
X83052343Y-107027085D01*
X83073658Y-107008617D01*
X83082845Y-107006511D01*
X83087824Y-107003153D01*
X83123199Y-106997262D01*
X83315932Y-106992979D01*
X83384479Y-107011463D01*
X83407825Y-107029853D01*
X83522487Y-107144515D01*
X83522490Y-107144517D01*
X83713567Y-107283343D01*
X83924008Y-107390568D01*
X84148632Y-107463553D01*
X84381908Y-107500500D01*
X84381911Y-107500500D01*
X84618089Y-107500500D01*
X84618092Y-107500500D01*
X84851368Y-107463553D01*
X85075992Y-107390568D01*
X85286433Y-107283343D01*
X85477510Y-107144517D01*
X85644517Y-106977510D01*
X85644519Y-106977506D01*
X85645868Y-106976158D01*
X85708180Y-106942133D01*
X85732152Y-106939285D01*
X103124286Y-106552793D01*
X103127059Y-106552765D01*
X143907546Y-106623917D01*
X143913880Y-106624868D01*
X143915680Y-106623931D01*
X143919989Y-106623939D01*
X143919989Y-106623938D01*
X143919990Y-106623939D01*
X143919991Y-106623937D01*
X143919994Y-106623936D01*
X143924706Y-106619239D01*
X143928583Y-106617226D01*
X143930419Y-106613546D01*
X143934952Y-106609030D01*
X143934952Y-106609028D01*
X143934954Y-106609027D01*
X143934962Y-106604454D01*
X143935987Y-106602402D01*
X143934976Y-106596336D01*
X143934991Y-106587904D01*
X143934990Y-106587903D01*
X143934994Y-106585798D01*
X143934994Y-106585792D01*
X143935003Y-106580431D01*
X143931484Y-106566789D01*
X143893284Y-106232957D01*
X143892477Y-106220112D01*
X143888369Y-105862953D01*
X143888881Y-105850070D01*
X143892132Y-105814414D01*
X143897227Y-105758526D01*
X143923332Y-105692505D01*
X143980987Y-105651076D01*
X144019898Y-105644001D01*
X145893454Y-105602367D01*
X145962001Y-105620851D01*
X146009675Y-105673460D01*
X146021337Y-105743493D01*
X146020701Y-105748046D01*
X145999500Y-105881908D01*
X145999500Y-106118092D01*
X146036447Y-106351368D01*
X146109432Y-106575992D01*
X146216657Y-106786433D01*
X146216659Y-106786436D01*
X146355484Y-106977512D01*
X146522487Y-107144515D01*
X146522490Y-107144517D01*
X146713567Y-107283343D01*
X146924008Y-107390568D01*
X147148632Y-107463553D01*
X147381908Y-107500500D01*
X147381911Y-107500500D01*
X147618089Y-107500500D01*
X147618092Y-107500500D01*
X147851368Y-107463553D01*
X148075992Y-107390568D01*
X148286433Y-107283343D01*
X148477510Y-107144517D01*
X148644517Y-106977510D01*
X148783343Y-106786433D01*
X148890568Y-106575992D01*
X148963553Y-106351368D01*
X149000500Y-106118092D01*
X149000500Y-105881908D01*
X148968048Y-105677015D01*
X148977148Y-105606608D01*
X149022869Y-105552294D01*
X149089694Y-105531339D01*
X150371201Y-105502862D01*
X150439749Y-105521346D01*
G37*
G04 #@! TD.AperFunction*
M02*
