G04 #@! TF.GenerationSoftware,KiCad,Pcbnew,10.0.3*
G04 #@! TF.CreationDate,2026-05-25T21:03:47+05:30*
G04 #@! TF.ProjectId,VoltForge Nexus,566f6c74-466f-4726-9765-204e65787573,1*
G04 #@! TF.SameCoordinates,Original*
G04 #@! TF.FileFunction,Legend,Top*
G04 #@! TF.FilePolarity,Positive*
%FSLAX46Y46*%
G04 Gerber Fmt 4.6, Leading zero omitted, Abs format (unit mm)*
G04 Created by KiCad (PCBNEW 10.0.3) date 2026-05-25 21:03:47*
%MOMM*%
%LPD*%
G01*
G04 APERTURE LIST*
%ADD10C,0.300000*%
%ADD11C,0.150000*%
%ADD12C,0.120000*%
G04 APERTURE END LIST*
D10*
X140428571Y-143178328D02*
X141357143Y-143178328D01*
X141357143Y-143178328D02*
X140857143Y-143749757D01*
X140857143Y-143749757D02*
X141071428Y-143749757D01*
X141071428Y-143749757D02*
X141214286Y-143821185D01*
X141214286Y-143821185D02*
X141285714Y-143892614D01*
X141285714Y-143892614D02*
X141357143Y-144035471D01*
X141357143Y-144035471D02*
X141357143Y-144392614D01*
X141357143Y-144392614D02*
X141285714Y-144535471D01*
X141285714Y-144535471D02*
X141214286Y-144606900D01*
X141214286Y-144606900D02*
X141071428Y-144678328D01*
X141071428Y-144678328D02*
X140642857Y-144678328D01*
X140642857Y-144678328D02*
X140500000Y-144606900D01*
X140500000Y-144606900D02*
X140428571Y-144535471D01*
X141785714Y-143178328D02*
X142285714Y-144678328D01*
X142285714Y-144678328D02*
X142785714Y-143178328D01*
X143142856Y-143178328D02*
X144071428Y-143178328D01*
X144071428Y-143178328D02*
X143571428Y-143749757D01*
X143571428Y-143749757D02*
X143785713Y-143749757D01*
X143785713Y-143749757D02*
X143928571Y-143821185D01*
X143928571Y-143821185D02*
X143999999Y-143892614D01*
X143999999Y-143892614D02*
X144071428Y-144035471D01*
X144071428Y-144035471D02*
X144071428Y-144392614D01*
X144071428Y-144392614D02*
X143999999Y-144535471D01*
X143999999Y-144535471D02*
X143928571Y-144606900D01*
X143928571Y-144606900D02*
X143785713Y-144678328D01*
X143785713Y-144678328D02*
X143357142Y-144678328D01*
X143357142Y-144678328D02*
X143214285Y-144606900D01*
X143214285Y-144606900D02*
X143142856Y-144535471D01*
X146142856Y-143178328D02*
X146428570Y-143178328D01*
X146428570Y-143178328D02*
X146571427Y-143249757D01*
X146571427Y-143249757D02*
X146714284Y-143392614D01*
X146714284Y-143392614D02*
X146785713Y-143678328D01*
X146785713Y-143678328D02*
X146785713Y-144178328D01*
X146785713Y-144178328D02*
X146714284Y-144464042D01*
X146714284Y-144464042D02*
X146571427Y-144606900D01*
X146571427Y-144606900D02*
X146428570Y-144678328D01*
X146428570Y-144678328D02*
X146142856Y-144678328D01*
X146142856Y-144678328D02*
X145999999Y-144606900D01*
X145999999Y-144606900D02*
X145857141Y-144464042D01*
X145857141Y-144464042D02*
X145785713Y-144178328D01*
X145785713Y-144178328D02*
X145785713Y-143678328D01*
X145785713Y-143678328D02*
X145857141Y-143392614D01*
X145857141Y-143392614D02*
X145999999Y-143249757D01*
X145999999Y-143249757D02*
X146142856Y-143178328D01*
X147428570Y-143178328D02*
X147428570Y-144392614D01*
X147428570Y-144392614D02*
X147499999Y-144535471D01*
X147499999Y-144535471D02*
X147571428Y-144606900D01*
X147571428Y-144606900D02*
X147714285Y-144678328D01*
X147714285Y-144678328D02*
X147999999Y-144678328D01*
X147999999Y-144678328D02*
X148142856Y-144606900D01*
X148142856Y-144606900D02*
X148214285Y-144535471D01*
X148214285Y-144535471D02*
X148285713Y-144392614D01*
X148285713Y-144392614D02*
X148285713Y-143178328D01*
X148785714Y-143178328D02*
X149642857Y-143178328D01*
X149214285Y-144678328D02*
X149214285Y-143178328D01*
X143500000Y-111678328D02*
X142785714Y-111678328D01*
X142785714Y-111678328D02*
X142714286Y-112392614D01*
X142714286Y-112392614D02*
X142785714Y-112321185D01*
X142785714Y-112321185D02*
X142928572Y-112249757D01*
X142928572Y-112249757D02*
X143285714Y-112249757D01*
X143285714Y-112249757D02*
X143428572Y-112321185D01*
X143428572Y-112321185D02*
X143500000Y-112392614D01*
X143500000Y-112392614D02*
X143571429Y-112535471D01*
X143571429Y-112535471D02*
X143571429Y-112892614D01*
X143571429Y-112892614D02*
X143500000Y-113035471D01*
X143500000Y-113035471D02*
X143428572Y-113106900D01*
X143428572Y-113106900D02*
X143285714Y-113178328D01*
X143285714Y-113178328D02*
X142928572Y-113178328D01*
X142928572Y-113178328D02*
X142785714Y-113106900D01*
X142785714Y-113106900D02*
X142714286Y-113035471D01*
X144000000Y-111678328D02*
X144500000Y-113178328D01*
X144500000Y-113178328D02*
X145000000Y-111678328D01*
X146928571Y-111678328D02*
X147214285Y-111678328D01*
X147214285Y-111678328D02*
X147357142Y-111749757D01*
X147357142Y-111749757D02*
X147499999Y-111892614D01*
X147499999Y-111892614D02*
X147571428Y-112178328D01*
X147571428Y-112178328D02*
X147571428Y-112678328D01*
X147571428Y-112678328D02*
X147499999Y-112964042D01*
X147499999Y-112964042D02*
X147357142Y-113106900D01*
X147357142Y-113106900D02*
X147214285Y-113178328D01*
X147214285Y-113178328D02*
X146928571Y-113178328D01*
X146928571Y-113178328D02*
X146785714Y-113106900D01*
X146785714Y-113106900D02*
X146642856Y-112964042D01*
X146642856Y-112964042D02*
X146571428Y-112678328D01*
X146571428Y-112678328D02*
X146571428Y-112178328D01*
X146571428Y-112178328D02*
X146642856Y-111892614D01*
X146642856Y-111892614D02*
X146785714Y-111749757D01*
X146785714Y-111749757D02*
X146928571Y-111678328D01*
X148214285Y-111678328D02*
X148214285Y-112892614D01*
X148214285Y-112892614D02*
X148285714Y-113035471D01*
X148285714Y-113035471D02*
X148357143Y-113106900D01*
X148357143Y-113106900D02*
X148500000Y-113178328D01*
X148500000Y-113178328D02*
X148785714Y-113178328D01*
X148785714Y-113178328D02*
X148928571Y-113106900D01*
X148928571Y-113106900D02*
X149000000Y-113035471D01*
X149000000Y-113035471D02*
X149071428Y-112892614D01*
X149071428Y-112892614D02*
X149071428Y-111678328D01*
X149571429Y-111678328D02*
X150428572Y-111678328D01*
X150000000Y-113178328D02*
X150000000Y-111678328D01*
D11*
X146666666Y-143254819D02*
X146333333Y-142778628D01*
X146095238Y-143254819D02*
X146095238Y-142254819D01*
X146095238Y-142254819D02*
X146476190Y-142254819D01*
X146476190Y-142254819D02*
X146571428Y-142302438D01*
X146571428Y-142302438D02*
X146619047Y-142350057D01*
X146619047Y-142350057D02*
X146666666Y-142445295D01*
X146666666Y-142445295D02*
X146666666Y-142588152D01*
X146666666Y-142588152D02*
X146619047Y-142683390D01*
X146619047Y-142683390D02*
X146571428Y-142731009D01*
X146571428Y-142731009D02*
X146476190Y-142778628D01*
X146476190Y-142778628D02*
X146095238Y-142778628D01*
X147095238Y-142731009D02*
X147428571Y-142731009D01*
X147571428Y-143254819D02*
X147095238Y-143254819D01*
X147095238Y-143254819D02*
X147095238Y-142254819D01*
X147095238Y-142254819D02*
X147571428Y-142254819D01*
X148333333Y-142731009D02*
X148000000Y-142731009D01*
X148000000Y-143254819D02*
X148000000Y-142254819D01*
X148000000Y-142254819D02*
X148476190Y-142254819D01*
X149000000Y-142254819D02*
X149000000Y-142492914D01*
X148761905Y-142397676D02*
X149000000Y-142492914D01*
X149000000Y-142492914D02*
X149238095Y-142397676D01*
X148857143Y-142683390D02*
X149000000Y-142492914D01*
X149000000Y-142492914D02*
X149142857Y-142683390D01*
X149761905Y-142254819D02*
X149761905Y-142492914D01*
X149523810Y-142397676D02*
X149761905Y-142492914D01*
X149761905Y-142492914D02*
X150000000Y-142397676D01*
X149619048Y-142683390D02*
X149761905Y-142492914D01*
X149761905Y-142492914D02*
X149904762Y-142683390D01*
X86666666Y-142954819D02*
X86333333Y-142478628D01*
X86095238Y-142954819D02*
X86095238Y-141954819D01*
X86095238Y-141954819D02*
X86476190Y-141954819D01*
X86476190Y-141954819D02*
X86571428Y-142002438D01*
X86571428Y-142002438D02*
X86619047Y-142050057D01*
X86619047Y-142050057D02*
X86666666Y-142145295D01*
X86666666Y-142145295D02*
X86666666Y-142288152D01*
X86666666Y-142288152D02*
X86619047Y-142383390D01*
X86619047Y-142383390D02*
X86571428Y-142431009D01*
X86571428Y-142431009D02*
X86476190Y-142478628D01*
X86476190Y-142478628D02*
X86095238Y-142478628D01*
X87095238Y-142431009D02*
X87428571Y-142431009D01*
X87571428Y-142954819D02*
X87095238Y-142954819D01*
X87095238Y-142954819D02*
X87095238Y-141954819D01*
X87095238Y-141954819D02*
X87571428Y-141954819D01*
X88333333Y-142431009D02*
X88000000Y-142431009D01*
X88000000Y-142954819D02*
X88000000Y-141954819D01*
X88000000Y-141954819D02*
X88476190Y-141954819D01*
X89000000Y-141954819D02*
X89000000Y-142192914D01*
X88761905Y-142097676D02*
X89000000Y-142192914D01*
X89000000Y-142192914D02*
X89238095Y-142097676D01*
X88857143Y-142383390D02*
X89000000Y-142192914D01*
X89000000Y-142192914D02*
X89142857Y-142383390D01*
X89761905Y-141954819D02*
X89761905Y-142192914D01*
X89523810Y-142097676D02*
X89761905Y-142192914D01*
X89761905Y-142192914D02*
X90000000Y-142097676D01*
X89619048Y-142383390D02*
X89761905Y-142192914D01*
X89761905Y-142192914D02*
X89904762Y-142383390D01*
X146166666Y-102954819D02*
X145833333Y-102478628D01*
X145595238Y-102954819D02*
X145595238Y-101954819D01*
X145595238Y-101954819D02*
X145976190Y-101954819D01*
X145976190Y-101954819D02*
X146071428Y-102002438D01*
X146071428Y-102002438D02*
X146119047Y-102050057D01*
X146119047Y-102050057D02*
X146166666Y-102145295D01*
X146166666Y-102145295D02*
X146166666Y-102288152D01*
X146166666Y-102288152D02*
X146119047Y-102383390D01*
X146119047Y-102383390D02*
X146071428Y-102431009D01*
X146071428Y-102431009D02*
X145976190Y-102478628D01*
X145976190Y-102478628D02*
X145595238Y-102478628D01*
X146595238Y-102431009D02*
X146928571Y-102431009D01*
X147071428Y-102954819D02*
X146595238Y-102954819D01*
X146595238Y-102954819D02*
X146595238Y-101954819D01*
X146595238Y-101954819D02*
X147071428Y-101954819D01*
X147833333Y-102431009D02*
X147500000Y-102431009D01*
X147500000Y-102954819D02*
X147500000Y-101954819D01*
X147500000Y-101954819D02*
X147976190Y-101954819D01*
X148500000Y-101954819D02*
X148500000Y-102192914D01*
X148261905Y-102097676D02*
X148500000Y-102192914D01*
X148500000Y-102192914D02*
X148738095Y-102097676D01*
X148357143Y-102383390D02*
X148500000Y-102192914D01*
X148500000Y-102192914D02*
X148642857Y-102383390D01*
X149261905Y-101954819D02*
X149261905Y-102192914D01*
X149023810Y-102097676D02*
X149261905Y-102192914D01*
X149261905Y-102192914D02*
X149500000Y-102097676D01*
X149119048Y-102383390D02*
X149261905Y-102192914D01*
X149261905Y-102192914D02*
X149404762Y-102383390D01*
X83166666Y-102954819D02*
X82833333Y-102478628D01*
X82595238Y-102954819D02*
X82595238Y-101954819D01*
X82595238Y-101954819D02*
X82976190Y-101954819D01*
X82976190Y-101954819D02*
X83071428Y-102002438D01*
X83071428Y-102002438D02*
X83119047Y-102050057D01*
X83119047Y-102050057D02*
X83166666Y-102145295D01*
X83166666Y-102145295D02*
X83166666Y-102288152D01*
X83166666Y-102288152D02*
X83119047Y-102383390D01*
X83119047Y-102383390D02*
X83071428Y-102431009D01*
X83071428Y-102431009D02*
X82976190Y-102478628D01*
X82976190Y-102478628D02*
X82595238Y-102478628D01*
X83595238Y-102431009D02*
X83928571Y-102431009D01*
X84071428Y-102954819D02*
X83595238Y-102954819D01*
X83595238Y-102954819D02*
X83595238Y-101954819D01*
X83595238Y-101954819D02*
X84071428Y-101954819D01*
X84833333Y-102431009D02*
X84500000Y-102431009D01*
X84500000Y-102954819D02*
X84500000Y-101954819D01*
X84500000Y-101954819D02*
X84976190Y-101954819D01*
X85500000Y-101954819D02*
X85500000Y-102192914D01*
X85261905Y-102097676D02*
X85500000Y-102192914D01*
X85500000Y-102192914D02*
X85738095Y-102097676D01*
X85357143Y-102383390D02*
X85500000Y-102192914D01*
X85500000Y-102192914D02*
X85642857Y-102383390D01*
X86261905Y-101954819D02*
X86261905Y-102192914D01*
X86023810Y-102097676D02*
X86261905Y-102192914D01*
X86261905Y-102192914D02*
X86500000Y-102097676D01*
X86119048Y-102383390D02*
X86261905Y-102192914D01*
X86261905Y-102192914D02*
X86404762Y-102383390D01*
X126412666Y-112931009D02*
X126079333Y-112931009D01*
X126079333Y-113454819D02*
X126079333Y-112454819D01*
X126079333Y-112454819D02*
X126555523Y-112454819D01*
X127365047Y-112788152D02*
X127365047Y-113454819D01*
X127126952Y-112407200D02*
X126888857Y-113121485D01*
X126888857Y-113121485D02*
X127507904Y-113121485D01*
X125134819Y-126166666D02*
X124658628Y-126499999D01*
X125134819Y-126738094D02*
X124134819Y-126738094D01*
X124134819Y-126738094D02*
X124134819Y-126357142D01*
X124134819Y-126357142D02*
X124182438Y-126261904D01*
X124182438Y-126261904D02*
X124230057Y-126214285D01*
X124230057Y-126214285D02*
X124325295Y-126166666D01*
X124325295Y-126166666D02*
X124468152Y-126166666D01*
X124468152Y-126166666D02*
X124563390Y-126214285D01*
X124563390Y-126214285D02*
X124611009Y-126261904D01*
X124611009Y-126261904D02*
X124658628Y-126357142D01*
X124658628Y-126357142D02*
X124658628Y-126738094D01*
X125134819Y-125214285D02*
X125134819Y-125785713D01*
X125134819Y-125499999D02*
X124134819Y-125499999D01*
X124134819Y-125499999D02*
X124277676Y-125595237D01*
X124277676Y-125595237D02*
X124372914Y-125690475D01*
X124372914Y-125690475D02*
X124420533Y-125785713D01*
X120019333Y-143613580D02*
X119971714Y-143661200D01*
X119971714Y-143661200D02*
X119828857Y-143708819D01*
X119828857Y-143708819D02*
X119733619Y-143708819D01*
X119733619Y-143708819D02*
X119590762Y-143661200D01*
X119590762Y-143661200D02*
X119495524Y-143565961D01*
X119495524Y-143565961D02*
X119447905Y-143470723D01*
X119447905Y-143470723D02*
X119400286Y-143280247D01*
X119400286Y-143280247D02*
X119400286Y-143137390D01*
X119400286Y-143137390D02*
X119447905Y-142946914D01*
X119447905Y-142946914D02*
X119495524Y-142851676D01*
X119495524Y-142851676D02*
X119590762Y-142756438D01*
X119590762Y-142756438D02*
X119733619Y-142708819D01*
X119733619Y-142708819D02*
X119828857Y-142708819D01*
X119828857Y-142708819D02*
X119971714Y-142756438D01*
X119971714Y-142756438D02*
X120019333Y-142804057D01*
X120971714Y-143708819D02*
X120400286Y-143708819D01*
X120686000Y-143708819D02*
X120686000Y-142708819D01*
X120686000Y-142708819D02*
X120590762Y-142851676D01*
X120590762Y-142851676D02*
X120495524Y-142946914D01*
X120495524Y-142946914D02*
X120400286Y-142994533D01*
X119765333Y-125359580D02*
X119717714Y-125407200D01*
X119717714Y-125407200D02*
X119574857Y-125454819D01*
X119574857Y-125454819D02*
X119479619Y-125454819D01*
X119479619Y-125454819D02*
X119336762Y-125407200D01*
X119336762Y-125407200D02*
X119241524Y-125311961D01*
X119241524Y-125311961D02*
X119193905Y-125216723D01*
X119193905Y-125216723D02*
X119146286Y-125026247D01*
X119146286Y-125026247D02*
X119146286Y-124883390D01*
X119146286Y-124883390D02*
X119193905Y-124692914D01*
X119193905Y-124692914D02*
X119241524Y-124597676D01*
X119241524Y-124597676D02*
X119336762Y-124502438D01*
X119336762Y-124502438D02*
X119479619Y-124454819D01*
X119479619Y-124454819D02*
X119574857Y-124454819D01*
X119574857Y-124454819D02*
X119717714Y-124502438D01*
X119717714Y-124502438D02*
X119765333Y-124550057D01*
X120146286Y-124550057D02*
X120193905Y-124502438D01*
X120193905Y-124502438D02*
X120289143Y-124454819D01*
X120289143Y-124454819D02*
X120527238Y-124454819D01*
X120527238Y-124454819D02*
X120622476Y-124502438D01*
X120622476Y-124502438D02*
X120670095Y-124550057D01*
X120670095Y-124550057D02*
X120717714Y-124645295D01*
X120717714Y-124645295D02*
X120717714Y-124740533D01*
X120717714Y-124740533D02*
X120670095Y-124883390D01*
X120670095Y-124883390D02*
X120098667Y-125454819D01*
X120098667Y-125454819D02*
X120717714Y-125454819D01*
X124333333Y-132947580D02*
X124285714Y-132995200D01*
X124285714Y-132995200D02*
X124142857Y-133042819D01*
X124142857Y-133042819D02*
X124047619Y-133042819D01*
X124047619Y-133042819D02*
X123904762Y-132995200D01*
X123904762Y-132995200D02*
X123809524Y-132899961D01*
X123809524Y-132899961D02*
X123761905Y-132804723D01*
X123761905Y-132804723D02*
X123714286Y-132614247D01*
X123714286Y-132614247D02*
X123714286Y-132471390D01*
X123714286Y-132471390D02*
X123761905Y-132280914D01*
X123761905Y-132280914D02*
X123809524Y-132185676D01*
X123809524Y-132185676D02*
X123904762Y-132090438D01*
X123904762Y-132090438D02*
X124047619Y-132042819D01*
X124047619Y-132042819D02*
X124142857Y-132042819D01*
X124142857Y-132042819D02*
X124285714Y-132090438D01*
X124285714Y-132090438D02*
X124333333Y-132138057D01*
X124666667Y-132042819D02*
X125285714Y-132042819D01*
X125285714Y-132042819D02*
X124952381Y-132423771D01*
X124952381Y-132423771D02*
X125095238Y-132423771D01*
X125095238Y-132423771D02*
X125190476Y-132471390D01*
X125190476Y-132471390D02*
X125238095Y-132519009D01*
X125238095Y-132519009D02*
X125285714Y-132614247D01*
X125285714Y-132614247D02*
X125285714Y-132852342D01*
X125285714Y-132852342D02*
X125238095Y-132947580D01*
X125238095Y-132947580D02*
X125190476Y-132995200D01*
X125190476Y-132995200D02*
X125095238Y-133042819D01*
X125095238Y-133042819D02*
X124809524Y-133042819D01*
X124809524Y-133042819D02*
X124714286Y-132995200D01*
X124714286Y-132995200D02*
X124666667Y-132947580D01*
X110859580Y-113832666D02*
X110907200Y-113880285D01*
X110907200Y-113880285D02*
X110954819Y-114023142D01*
X110954819Y-114023142D02*
X110954819Y-114118380D01*
X110954819Y-114118380D02*
X110907200Y-114261237D01*
X110907200Y-114261237D02*
X110811961Y-114356475D01*
X110811961Y-114356475D02*
X110716723Y-114404094D01*
X110716723Y-114404094D02*
X110526247Y-114451713D01*
X110526247Y-114451713D02*
X110383390Y-114451713D01*
X110383390Y-114451713D02*
X110192914Y-114404094D01*
X110192914Y-114404094D02*
X110097676Y-114356475D01*
X110097676Y-114356475D02*
X110002438Y-114261237D01*
X110002438Y-114261237D02*
X109954819Y-114118380D01*
X109954819Y-114118380D02*
X109954819Y-114023142D01*
X109954819Y-114023142D02*
X110002438Y-113880285D01*
X110002438Y-113880285D02*
X110050057Y-113832666D01*
X110288152Y-112975523D02*
X110954819Y-112975523D01*
X109907200Y-113213618D02*
X110621485Y-113451713D01*
X110621485Y-113451713D02*
X110621485Y-112832666D01*
X119635333Y-130915580D02*
X119587714Y-130963200D01*
X119587714Y-130963200D02*
X119444857Y-131010819D01*
X119444857Y-131010819D02*
X119349619Y-131010819D01*
X119349619Y-131010819D02*
X119206762Y-130963200D01*
X119206762Y-130963200D02*
X119111524Y-130867961D01*
X119111524Y-130867961D02*
X119063905Y-130772723D01*
X119063905Y-130772723D02*
X119016286Y-130582247D01*
X119016286Y-130582247D02*
X119016286Y-130439390D01*
X119016286Y-130439390D02*
X119063905Y-130248914D01*
X119063905Y-130248914D02*
X119111524Y-130153676D01*
X119111524Y-130153676D02*
X119206762Y-130058438D01*
X119206762Y-130058438D02*
X119349619Y-130010819D01*
X119349619Y-130010819D02*
X119444857Y-130010819D01*
X119444857Y-130010819D02*
X119587714Y-130058438D01*
X119587714Y-130058438D02*
X119635333Y-130106057D01*
X120540095Y-130010819D02*
X120063905Y-130010819D01*
X120063905Y-130010819D02*
X120016286Y-130487009D01*
X120016286Y-130487009D02*
X120063905Y-130439390D01*
X120063905Y-130439390D02*
X120159143Y-130391771D01*
X120159143Y-130391771D02*
X120397238Y-130391771D01*
X120397238Y-130391771D02*
X120492476Y-130439390D01*
X120492476Y-130439390D02*
X120540095Y-130487009D01*
X120540095Y-130487009D02*
X120587714Y-130582247D01*
X120587714Y-130582247D02*
X120587714Y-130820342D01*
X120587714Y-130820342D02*
X120540095Y-130915580D01*
X120540095Y-130915580D02*
X120492476Y-130963200D01*
X120492476Y-130963200D02*
X120397238Y-131010819D01*
X120397238Y-131010819D02*
X120159143Y-131010819D01*
X120159143Y-131010819D02*
X120063905Y-130963200D01*
X120063905Y-130963200D02*
X120016286Y-130915580D01*
X124359580Y-113956666D02*
X124407200Y-114004285D01*
X124407200Y-114004285D02*
X124454819Y-114147142D01*
X124454819Y-114147142D02*
X124454819Y-114242380D01*
X124454819Y-114242380D02*
X124407200Y-114385237D01*
X124407200Y-114385237D02*
X124311961Y-114480475D01*
X124311961Y-114480475D02*
X124216723Y-114528094D01*
X124216723Y-114528094D02*
X124026247Y-114575713D01*
X124026247Y-114575713D02*
X123883390Y-114575713D01*
X123883390Y-114575713D02*
X123692914Y-114528094D01*
X123692914Y-114528094D02*
X123597676Y-114480475D01*
X123597676Y-114480475D02*
X123502438Y-114385237D01*
X123502438Y-114385237D02*
X123454819Y-114242380D01*
X123454819Y-114242380D02*
X123454819Y-114147142D01*
X123454819Y-114147142D02*
X123502438Y-114004285D01*
X123502438Y-114004285D02*
X123550057Y-113956666D01*
X123454819Y-113099523D02*
X123454819Y-113289999D01*
X123454819Y-113289999D02*
X123502438Y-113385237D01*
X123502438Y-113385237D02*
X123550057Y-113432856D01*
X123550057Y-113432856D02*
X123692914Y-113528094D01*
X123692914Y-113528094D02*
X123883390Y-113575713D01*
X123883390Y-113575713D02*
X124264342Y-113575713D01*
X124264342Y-113575713D02*
X124359580Y-113528094D01*
X124359580Y-113528094D02*
X124407200Y-113480475D01*
X124407200Y-113480475D02*
X124454819Y-113385237D01*
X124454819Y-113385237D02*
X124454819Y-113194761D01*
X124454819Y-113194761D02*
X124407200Y-113099523D01*
X124407200Y-113099523D02*
X124359580Y-113051904D01*
X124359580Y-113051904D02*
X124264342Y-113004285D01*
X124264342Y-113004285D02*
X124026247Y-113004285D01*
X124026247Y-113004285D02*
X123931009Y-113051904D01*
X123931009Y-113051904D02*
X123883390Y-113099523D01*
X123883390Y-113099523D02*
X123835771Y-113194761D01*
X123835771Y-113194761D02*
X123835771Y-113385237D01*
X123835771Y-113385237D02*
X123883390Y-113480475D01*
X123883390Y-113480475D02*
X123931009Y-113528094D01*
X123931009Y-113528094D02*
X124026247Y-113575713D01*
X110577333Y-133195580D02*
X110529714Y-133243200D01*
X110529714Y-133243200D02*
X110386857Y-133290819D01*
X110386857Y-133290819D02*
X110291619Y-133290819D01*
X110291619Y-133290819D02*
X110148762Y-133243200D01*
X110148762Y-133243200D02*
X110053524Y-133147961D01*
X110053524Y-133147961D02*
X110005905Y-133052723D01*
X110005905Y-133052723D02*
X109958286Y-132862247D01*
X109958286Y-132862247D02*
X109958286Y-132719390D01*
X109958286Y-132719390D02*
X110005905Y-132528914D01*
X110005905Y-132528914D02*
X110053524Y-132433676D01*
X110053524Y-132433676D02*
X110148762Y-132338438D01*
X110148762Y-132338438D02*
X110291619Y-132290819D01*
X110291619Y-132290819D02*
X110386857Y-132290819D01*
X110386857Y-132290819D02*
X110529714Y-132338438D01*
X110529714Y-132338438D02*
X110577333Y-132386057D01*
X110910667Y-132290819D02*
X111577333Y-132290819D01*
X111577333Y-132290819D02*
X111148762Y-133290819D01*
X146833333Y-110359580D02*
X146785714Y-110407200D01*
X146785714Y-110407200D02*
X146642857Y-110454819D01*
X146642857Y-110454819D02*
X146547619Y-110454819D01*
X146547619Y-110454819D02*
X146404762Y-110407200D01*
X146404762Y-110407200D02*
X146309524Y-110311961D01*
X146309524Y-110311961D02*
X146261905Y-110216723D01*
X146261905Y-110216723D02*
X146214286Y-110026247D01*
X146214286Y-110026247D02*
X146214286Y-109883390D01*
X146214286Y-109883390D02*
X146261905Y-109692914D01*
X146261905Y-109692914D02*
X146309524Y-109597676D01*
X146309524Y-109597676D02*
X146404762Y-109502438D01*
X146404762Y-109502438D02*
X146547619Y-109454819D01*
X146547619Y-109454819D02*
X146642857Y-109454819D01*
X146642857Y-109454819D02*
X146785714Y-109502438D01*
X146785714Y-109502438D02*
X146833333Y-109550057D01*
X147404762Y-109883390D02*
X147309524Y-109835771D01*
X147309524Y-109835771D02*
X147261905Y-109788152D01*
X147261905Y-109788152D02*
X147214286Y-109692914D01*
X147214286Y-109692914D02*
X147214286Y-109645295D01*
X147214286Y-109645295D02*
X147261905Y-109550057D01*
X147261905Y-109550057D02*
X147309524Y-109502438D01*
X147309524Y-109502438D02*
X147404762Y-109454819D01*
X147404762Y-109454819D02*
X147595238Y-109454819D01*
X147595238Y-109454819D02*
X147690476Y-109502438D01*
X147690476Y-109502438D02*
X147738095Y-109550057D01*
X147738095Y-109550057D02*
X147785714Y-109645295D01*
X147785714Y-109645295D02*
X147785714Y-109692914D01*
X147785714Y-109692914D02*
X147738095Y-109788152D01*
X147738095Y-109788152D02*
X147690476Y-109835771D01*
X147690476Y-109835771D02*
X147595238Y-109883390D01*
X147595238Y-109883390D02*
X147404762Y-109883390D01*
X147404762Y-109883390D02*
X147309524Y-109931009D01*
X147309524Y-109931009D02*
X147261905Y-109978628D01*
X147261905Y-109978628D02*
X147214286Y-110073866D01*
X147214286Y-110073866D02*
X147214286Y-110264342D01*
X147214286Y-110264342D02*
X147261905Y-110359580D01*
X147261905Y-110359580D02*
X147309524Y-110407200D01*
X147309524Y-110407200D02*
X147404762Y-110454819D01*
X147404762Y-110454819D02*
X147595238Y-110454819D01*
X147595238Y-110454819D02*
X147690476Y-110407200D01*
X147690476Y-110407200D02*
X147738095Y-110359580D01*
X147738095Y-110359580D02*
X147785714Y-110264342D01*
X147785714Y-110264342D02*
X147785714Y-110073866D01*
X147785714Y-110073866D02*
X147738095Y-109978628D01*
X147738095Y-109978628D02*
X147690476Y-109931009D01*
X147690476Y-109931009D02*
X147595238Y-109883390D01*
X132031905Y-123994819D02*
X132031905Y-122994819D01*
X132031905Y-122994819D02*
X132270000Y-122994819D01*
X132270000Y-122994819D02*
X132412857Y-123042438D01*
X132412857Y-123042438D02*
X132508095Y-123137676D01*
X132508095Y-123137676D02*
X132555714Y-123232914D01*
X132555714Y-123232914D02*
X132603333Y-123423390D01*
X132603333Y-123423390D02*
X132603333Y-123566247D01*
X132603333Y-123566247D02*
X132555714Y-123756723D01*
X132555714Y-123756723D02*
X132508095Y-123851961D01*
X132508095Y-123851961D02*
X132412857Y-123947200D01*
X132412857Y-123947200D02*
X132270000Y-123994819D01*
X132270000Y-123994819D02*
X132031905Y-123994819D01*
X133555714Y-123994819D02*
X132984286Y-123994819D01*
X133270000Y-123994819D02*
X133270000Y-122994819D01*
X133270000Y-122994819D02*
X133174762Y-123137676D01*
X133174762Y-123137676D02*
X133079524Y-123232914D01*
X133079524Y-123232914D02*
X132984286Y-123280533D01*
X103166666Y-131431009D02*
X102833333Y-131431009D01*
X102833333Y-131954819D02*
X102833333Y-130954819D01*
X102833333Y-130954819D02*
X103309523Y-130954819D01*
X104214285Y-131954819D02*
X103642857Y-131954819D01*
X103928571Y-131954819D02*
X103928571Y-130954819D01*
X103928571Y-130954819D02*
X103833333Y-131097676D01*
X103833333Y-131097676D02*
X103738095Y-131192914D01*
X103738095Y-131192914D02*
X103642857Y-131240533D01*
X103298666Y-111437009D02*
X102965333Y-111437009D01*
X102965333Y-111960819D02*
X102965333Y-110960819D01*
X102965333Y-110960819D02*
X103441523Y-110960819D01*
X103774857Y-111056057D02*
X103822476Y-111008438D01*
X103822476Y-111008438D02*
X103917714Y-110960819D01*
X103917714Y-110960819D02*
X104155809Y-110960819D01*
X104155809Y-110960819D02*
X104251047Y-111008438D01*
X104251047Y-111008438D02*
X104298666Y-111056057D01*
X104298666Y-111056057D02*
X104346285Y-111151295D01*
X104346285Y-111151295D02*
X104346285Y-111246533D01*
X104346285Y-111246533D02*
X104298666Y-111389390D01*
X104298666Y-111389390D02*
X103727238Y-111960819D01*
X103727238Y-111960819D02*
X104346285Y-111960819D01*
X131746666Y-143441009D02*
X131413333Y-143441009D01*
X131413333Y-143964819D02*
X131413333Y-142964819D01*
X131413333Y-142964819D02*
X131889523Y-142964819D01*
X132175238Y-142964819D02*
X132794285Y-142964819D01*
X132794285Y-142964819D02*
X132460952Y-143345771D01*
X132460952Y-143345771D02*
X132603809Y-143345771D01*
X132603809Y-143345771D02*
X132699047Y-143393390D01*
X132699047Y-143393390D02*
X132746666Y-143441009D01*
X132746666Y-143441009D02*
X132794285Y-143536247D01*
X132794285Y-143536247D02*
X132794285Y-143774342D01*
X132794285Y-143774342D02*
X132746666Y-143869580D01*
X132746666Y-143869580D02*
X132699047Y-143917200D01*
X132699047Y-143917200D02*
X132603809Y-143964819D01*
X132603809Y-143964819D02*
X132318095Y-143964819D01*
X132318095Y-143964819D02*
X132222857Y-143917200D01*
X132222857Y-143917200D02*
X132175238Y-143869580D01*
X82666666Y-117954819D02*
X82666666Y-118669104D01*
X82666666Y-118669104D02*
X82619047Y-118811961D01*
X82619047Y-118811961D02*
X82523809Y-118907200D01*
X82523809Y-118907200D02*
X82380952Y-118954819D01*
X82380952Y-118954819D02*
X82285714Y-118954819D01*
X83666666Y-118954819D02*
X83095238Y-118954819D01*
X83380952Y-118954819D02*
X83380952Y-117954819D01*
X83380952Y-117954819D02*
X83285714Y-118097676D01*
X83285714Y-118097676D02*
X83190476Y-118192914D01*
X83190476Y-118192914D02*
X83095238Y-118240533D01*
X82166666Y-136954819D02*
X82166666Y-137669104D01*
X82166666Y-137669104D02*
X82119047Y-137811961D01*
X82119047Y-137811961D02*
X82023809Y-137907200D01*
X82023809Y-137907200D02*
X81880952Y-137954819D01*
X81880952Y-137954819D02*
X81785714Y-137954819D01*
X82595238Y-137050057D02*
X82642857Y-137002438D01*
X82642857Y-137002438D02*
X82738095Y-136954819D01*
X82738095Y-136954819D02*
X82976190Y-136954819D01*
X82976190Y-136954819D02*
X83071428Y-137002438D01*
X83071428Y-137002438D02*
X83119047Y-137050057D01*
X83119047Y-137050057D02*
X83166666Y-137145295D01*
X83166666Y-137145295D02*
X83166666Y-137240533D01*
X83166666Y-137240533D02*
X83119047Y-137383390D01*
X83119047Y-137383390D02*
X82547619Y-137954819D01*
X82547619Y-137954819D02*
X83166666Y-137954819D01*
X136018819Y-140430333D02*
X136733104Y-140430333D01*
X136733104Y-140430333D02*
X136875961Y-140477952D01*
X136875961Y-140477952D02*
X136971200Y-140573190D01*
X136971200Y-140573190D02*
X137018819Y-140716047D01*
X137018819Y-140716047D02*
X137018819Y-140811285D01*
X136018819Y-140049380D02*
X136018819Y-139430333D01*
X136018819Y-139430333D02*
X136399771Y-139763666D01*
X136399771Y-139763666D02*
X136399771Y-139620809D01*
X136399771Y-139620809D02*
X136447390Y-139525571D01*
X136447390Y-139525571D02*
X136495009Y-139477952D01*
X136495009Y-139477952D02*
X136590247Y-139430333D01*
X136590247Y-139430333D02*
X136828342Y-139430333D01*
X136828342Y-139430333D02*
X136923580Y-139477952D01*
X136923580Y-139477952D02*
X136971200Y-139525571D01*
X136971200Y-139525571D02*
X137018819Y-139620809D01*
X137018819Y-139620809D02*
X137018819Y-139906523D01*
X137018819Y-139906523D02*
X136971200Y-140001761D01*
X136971200Y-140001761D02*
X136923580Y-140049380D01*
X136272819Y-121491333D02*
X136987104Y-121491333D01*
X136987104Y-121491333D02*
X137129961Y-121538952D01*
X137129961Y-121538952D02*
X137225200Y-121634190D01*
X137225200Y-121634190D02*
X137272819Y-121777047D01*
X137272819Y-121777047D02*
X137272819Y-121872285D01*
X136606152Y-120586571D02*
X137272819Y-120586571D01*
X136225200Y-120824666D02*
X136939485Y-121062761D01*
X136939485Y-121062761D02*
X136939485Y-120443714D01*
X98166667Y-128907200D02*
X98309524Y-128954819D01*
X98309524Y-128954819D02*
X98547619Y-128954819D01*
X98547619Y-128954819D02*
X98642857Y-128907200D01*
X98642857Y-128907200D02*
X98690476Y-128859580D01*
X98690476Y-128859580D02*
X98738095Y-128764342D01*
X98738095Y-128764342D02*
X98738095Y-128669104D01*
X98738095Y-128669104D02*
X98690476Y-128573866D01*
X98690476Y-128573866D02*
X98642857Y-128526247D01*
X98642857Y-128526247D02*
X98547619Y-128478628D01*
X98547619Y-128478628D02*
X98357143Y-128431009D01*
X98357143Y-128431009D02*
X98261905Y-128383390D01*
X98261905Y-128383390D02*
X98214286Y-128335771D01*
X98214286Y-128335771D02*
X98166667Y-128240533D01*
X98166667Y-128240533D02*
X98166667Y-128145295D01*
X98166667Y-128145295D02*
X98214286Y-128050057D01*
X98214286Y-128050057D02*
X98261905Y-128002438D01*
X98261905Y-128002438D02*
X98357143Y-127954819D01*
X98357143Y-127954819D02*
X98595238Y-127954819D01*
X98595238Y-127954819D02*
X98738095Y-128002438D01*
X99071429Y-127954819D02*
X99309524Y-128954819D01*
X99309524Y-128954819D02*
X99500000Y-128240533D01*
X99500000Y-128240533D02*
X99690476Y-128954819D01*
X99690476Y-128954819D02*
X99928572Y-127954819D01*
X100833333Y-128954819D02*
X100261905Y-128954819D01*
X100547619Y-128954819D02*
X100547619Y-127954819D01*
X100547619Y-127954819D02*
X100452381Y-128097676D01*
X100452381Y-128097676D02*
X100357143Y-128192914D01*
X100357143Y-128192914D02*
X100261905Y-128240533D01*
X98666667Y-109907200D02*
X98809524Y-109954819D01*
X98809524Y-109954819D02*
X99047619Y-109954819D01*
X99047619Y-109954819D02*
X99142857Y-109907200D01*
X99142857Y-109907200D02*
X99190476Y-109859580D01*
X99190476Y-109859580D02*
X99238095Y-109764342D01*
X99238095Y-109764342D02*
X99238095Y-109669104D01*
X99238095Y-109669104D02*
X99190476Y-109573866D01*
X99190476Y-109573866D02*
X99142857Y-109526247D01*
X99142857Y-109526247D02*
X99047619Y-109478628D01*
X99047619Y-109478628D02*
X98857143Y-109431009D01*
X98857143Y-109431009D02*
X98761905Y-109383390D01*
X98761905Y-109383390D02*
X98714286Y-109335771D01*
X98714286Y-109335771D02*
X98666667Y-109240533D01*
X98666667Y-109240533D02*
X98666667Y-109145295D01*
X98666667Y-109145295D02*
X98714286Y-109050057D01*
X98714286Y-109050057D02*
X98761905Y-109002438D01*
X98761905Y-109002438D02*
X98857143Y-108954819D01*
X98857143Y-108954819D02*
X99095238Y-108954819D01*
X99095238Y-108954819D02*
X99238095Y-109002438D01*
X99571429Y-108954819D02*
X99809524Y-109954819D01*
X99809524Y-109954819D02*
X100000000Y-109240533D01*
X100000000Y-109240533D02*
X100190476Y-109954819D01*
X100190476Y-109954819D02*
X100428572Y-108954819D01*
X100761905Y-109050057D02*
X100809524Y-109002438D01*
X100809524Y-109002438D02*
X100904762Y-108954819D01*
X100904762Y-108954819D02*
X101142857Y-108954819D01*
X101142857Y-108954819D02*
X101238095Y-109002438D01*
X101238095Y-109002438D02*
X101285714Y-109050057D01*
X101285714Y-109050057D02*
X101333333Y-109145295D01*
X101333333Y-109145295D02*
X101333333Y-109240533D01*
X101333333Y-109240533D02*
X101285714Y-109383390D01*
X101285714Y-109383390D02*
X100714286Y-109954819D01*
X100714286Y-109954819D02*
X101333333Y-109954819D01*
X116332095Y-131454819D02*
X116332095Y-132264342D01*
X116332095Y-132264342D02*
X116379714Y-132359580D01*
X116379714Y-132359580D02*
X116427333Y-132407200D01*
X116427333Y-132407200D02*
X116522571Y-132454819D01*
X116522571Y-132454819D02*
X116713047Y-132454819D01*
X116713047Y-132454819D02*
X116808285Y-132407200D01*
X116808285Y-132407200D02*
X116855904Y-132359580D01*
X116855904Y-132359580D02*
X116903523Y-132264342D01*
X116903523Y-132264342D02*
X116903523Y-131454819D01*
X117903523Y-132454819D02*
X117332095Y-132454819D01*
X117617809Y-132454819D02*
X117617809Y-131454819D01*
X117617809Y-131454819D02*
X117522571Y-131597676D01*
X117522571Y-131597676D02*
X117427333Y-131692914D01*
X117427333Y-131692914D02*
X117332095Y-131740533D01*
X116840095Y-112302819D02*
X116840095Y-113112342D01*
X116840095Y-113112342D02*
X116887714Y-113207580D01*
X116887714Y-113207580D02*
X116935333Y-113255200D01*
X116935333Y-113255200D02*
X117030571Y-113302819D01*
X117030571Y-113302819D02*
X117221047Y-113302819D01*
X117221047Y-113302819D02*
X117316285Y-113255200D01*
X117316285Y-113255200D02*
X117363904Y-113207580D01*
X117363904Y-113207580D02*
X117411523Y-113112342D01*
X117411523Y-113112342D02*
X117411523Y-112302819D01*
X117840095Y-112398057D02*
X117887714Y-112350438D01*
X117887714Y-112350438D02*
X117982952Y-112302819D01*
X117982952Y-112302819D02*
X118221047Y-112302819D01*
X118221047Y-112302819D02*
X118316285Y-112350438D01*
X118316285Y-112350438D02*
X118363904Y-112398057D01*
X118363904Y-112398057D02*
X118411523Y-112493295D01*
X118411523Y-112493295D02*
X118411523Y-112588533D01*
X118411523Y-112588533D02*
X118363904Y-112731390D01*
X118363904Y-112731390D02*
X117792476Y-113302819D01*
X117792476Y-113302819D02*
X118411523Y-113302819D01*
X128994819Y-110968094D02*
X127994819Y-110968094D01*
X127994819Y-110968094D02*
X127994819Y-110729999D01*
X127994819Y-110729999D02*
X128042438Y-110587142D01*
X128042438Y-110587142D02*
X128137676Y-110491904D01*
X128137676Y-110491904D02*
X128232914Y-110444285D01*
X128232914Y-110444285D02*
X128423390Y-110396666D01*
X128423390Y-110396666D02*
X128566247Y-110396666D01*
X128566247Y-110396666D02*
X128756723Y-110444285D01*
X128756723Y-110444285D02*
X128851961Y-110491904D01*
X128851961Y-110491904D02*
X128947200Y-110587142D01*
X128947200Y-110587142D02*
X128994819Y-110729999D01*
X128994819Y-110729999D02*
X128994819Y-110968094D01*
X128090057Y-110015713D02*
X128042438Y-109968094D01*
X128042438Y-109968094D02*
X127994819Y-109872856D01*
X127994819Y-109872856D02*
X127994819Y-109634761D01*
X127994819Y-109634761D02*
X128042438Y-109539523D01*
X128042438Y-109539523D02*
X128090057Y-109491904D01*
X128090057Y-109491904D02*
X128185295Y-109444285D01*
X128185295Y-109444285D02*
X128280533Y-109444285D01*
X128280533Y-109444285D02*
X128423390Y-109491904D01*
X128423390Y-109491904D02*
X128994819Y-110063332D01*
X128994819Y-110063332D02*
X128994819Y-109444285D01*
X126110057Y-126865238D02*
X126062438Y-126960476D01*
X126062438Y-126960476D02*
X125967200Y-127055714D01*
X125967200Y-127055714D02*
X125824342Y-127198571D01*
X125824342Y-127198571D02*
X125776723Y-127293809D01*
X125776723Y-127293809D02*
X125776723Y-127389047D01*
X126014819Y-127341428D02*
X125967200Y-127436666D01*
X125967200Y-127436666D02*
X125871961Y-127531904D01*
X125871961Y-127531904D02*
X125681485Y-127579523D01*
X125681485Y-127579523D02*
X125348152Y-127579523D01*
X125348152Y-127579523D02*
X125157676Y-127531904D01*
X125157676Y-127531904D02*
X125062438Y-127436666D01*
X125062438Y-127436666D02*
X125014819Y-127341428D01*
X125014819Y-127341428D02*
X125014819Y-127150952D01*
X125014819Y-127150952D02*
X125062438Y-127055714D01*
X125062438Y-127055714D02*
X125157676Y-126960476D01*
X125157676Y-126960476D02*
X125348152Y-126912857D01*
X125348152Y-126912857D02*
X125681485Y-126912857D01*
X125681485Y-126912857D02*
X125871961Y-126960476D01*
X125871961Y-126960476D02*
X125967200Y-127055714D01*
X125967200Y-127055714D02*
X126014819Y-127150952D01*
X126014819Y-127150952D02*
X126014819Y-127341428D01*
X126014819Y-125960476D02*
X126014819Y-126531904D01*
X126014819Y-126246190D02*
X125014819Y-126246190D01*
X125014819Y-126246190D02*
X125157676Y-126341428D01*
X125157676Y-126341428D02*
X125252914Y-126436666D01*
X125252914Y-126436666D02*
X125300533Y-126531904D01*
X127610057Y-110365238D02*
X127562438Y-110460476D01*
X127562438Y-110460476D02*
X127467200Y-110555714D01*
X127467200Y-110555714D02*
X127324342Y-110698571D01*
X127324342Y-110698571D02*
X127276723Y-110793809D01*
X127276723Y-110793809D02*
X127276723Y-110889047D01*
X127514819Y-110841428D02*
X127467200Y-110936666D01*
X127467200Y-110936666D02*
X127371961Y-111031904D01*
X127371961Y-111031904D02*
X127181485Y-111079523D01*
X127181485Y-111079523D02*
X126848152Y-111079523D01*
X126848152Y-111079523D02*
X126657676Y-111031904D01*
X126657676Y-111031904D02*
X126562438Y-110936666D01*
X126562438Y-110936666D02*
X126514819Y-110841428D01*
X126514819Y-110841428D02*
X126514819Y-110650952D01*
X126514819Y-110650952D02*
X126562438Y-110555714D01*
X126562438Y-110555714D02*
X126657676Y-110460476D01*
X126657676Y-110460476D02*
X126848152Y-110412857D01*
X126848152Y-110412857D02*
X127181485Y-110412857D01*
X127181485Y-110412857D02*
X127371961Y-110460476D01*
X127371961Y-110460476D02*
X127467200Y-110555714D01*
X127467200Y-110555714D02*
X127514819Y-110650952D01*
X127514819Y-110650952D02*
X127514819Y-110841428D01*
X126610057Y-110031904D02*
X126562438Y-109984285D01*
X126562438Y-109984285D02*
X126514819Y-109889047D01*
X126514819Y-109889047D02*
X126514819Y-109650952D01*
X126514819Y-109650952D02*
X126562438Y-109555714D01*
X126562438Y-109555714D02*
X126610057Y-109508095D01*
X126610057Y-109508095D02*
X126705295Y-109460476D01*
X126705295Y-109460476D02*
X126800533Y-109460476D01*
X126800533Y-109460476D02*
X126943390Y-109508095D01*
X126943390Y-109508095D02*
X127514819Y-110079523D01*
X127514819Y-110079523D02*
X127514819Y-109460476D01*
X138134819Y-128766666D02*
X137658628Y-129099999D01*
X138134819Y-129338094D02*
X137134819Y-129338094D01*
X137134819Y-129338094D02*
X137134819Y-128957142D01*
X137134819Y-128957142D02*
X137182438Y-128861904D01*
X137182438Y-128861904D02*
X137230057Y-128814285D01*
X137230057Y-128814285D02*
X137325295Y-128766666D01*
X137325295Y-128766666D02*
X137468152Y-128766666D01*
X137468152Y-128766666D02*
X137563390Y-128814285D01*
X137563390Y-128814285D02*
X137611009Y-128861904D01*
X137611009Y-128861904D02*
X137658628Y-128957142D01*
X137658628Y-128957142D02*
X137658628Y-129338094D01*
X137230057Y-128385713D02*
X137182438Y-128338094D01*
X137182438Y-128338094D02*
X137134819Y-128242856D01*
X137134819Y-128242856D02*
X137134819Y-128004761D01*
X137134819Y-128004761D02*
X137182438Y-127909523D01*
X137182438Y-127909523D02*
X137230057Y-127861904D01*
X137230057Y-127861904D02*
X137325295Y-127814285D01*
X137325295Y-127814285D02*
X137420533Y-127814285D01*
X137420533Y-127814285D02*
X137563390Y-127861904D01*
X137563390Y-127861904D02*
X138134819Y-128433332D01*
X138134819Y-128433332D02*
X138134819Y-127814285D01*
X114933333Y-111774819D02*
X114600000Y-111298628D01*
X114361905Y-111774819D02*
X114361905Y-110774819D01*
X114361905Y-110774819D02*
X114742857Y-110774819D01*
X114742857Y-110774819D02*
X114838095Y-110822438D01*
X114838095Y-110822438D02*
X114885714Y-110870057D01*
X114885714Y-110870057D02*
X114933333Y-110965295D01*
X114933333Y-110965295D02*
X114933333Y-111108152D01*
X114933333Y-111108152D02*
X114885714Y-111203390D01*
X114885714Y-111203390D02*
X114838095Y-111251009D01*
X114838095Y-111251009D02*
X114742857Y-111298628D01*
X114742857Y-111298628D02*
X114361905Y-111298628D01*
X115266667Y-110774819D02*
X115885714Y-110774819D01*
X115885714Y-110774819D02*
X115552381Y-111155771D01*
X115552381Y-111155771D02*
X115695238Y-111155771D01*
X115695238Y-111155771D02*
X115790476Y-111203390D01*
X115790476Y-111203390D02*
X115838095Y-111251009D01*
X115838095Y-111251009D02*
X115885714Y-111346247D01*
X115885714Y-111346247D02*
X115885714Y-111584342D01*
X115885714Y-111584342D02*
X115838095Y-111679580D01*
X115838095Y-111679580D02*
X115790476Y-111727200D01*
X115790476Y-111727200D02*
X115695238Y-111774819D01*
X115695238Y-111774819D02*
X115409524Y-111774819D01*
X115409524Y-111774819D02*
X115314286Y-111727200D01*
X115314286Y-111727200D02*
X115266667Y-111679580D01*
X146274819Y-128766666D02*
X145798628Y-129099999D01*
X146274819Y-129338094D02*
X145274819Y-129338094D01*
X145274819Y-129338094D02*
X145274819Y-128957142D01*
X145274819Y-128957142D02*
X145322438Y-128861904D01*
X145322438Y-128861904D02*
X145370057Y-128814285D01*
X145370057Y-128814285D02*
X145465295Y-128766666D01*
X145465295Y-128766666D02*
X145608152Y-128766666D01*
X145608152Y-128766666D02*
X145703390Y-128814285D01*
X145703390Y-128814285D02*
X145751009Y-128861904D01*
X145751009Y-128861904D02*
X145798628Y-128957142D01*
X145798628Y-128957142D02*
X145798628Y-129338094D01*
X145608152Y-127909523D02*
X146274819Y-127909523D01*
X145227200Y-128147618D02*
X145941485Y-128385713D01*
X145941485Y-128385713D02*
X145941485Y-127766666D01*
D12*
X135824000Y-118618000D02*
G75*
G02*
X126324000Y-118618000I-4750000J0D01*
G01*
X126324000Y-118618000D02*
G75*
G02*
X135824000Y-118618000I4750000J0D01*
G01*
X135054000Y-115668000D02*
X134904000Y-115798000D01*
X135134000Y-115488000D02*
X135054000Y-115668000D01*
X135174000Y-115198000D02*
X135134000Y-115488000D01*
X135094000Y-114908000D02*
X135174000Y-115198000D01*
X134924000Y-114688000D02*
X135094000Y-114908000D01*
X134664000Y-114538000D02*
X134924000Y-114688000D01*
X134404000Y-114508000D02*
X134664000Y-114538000D01*
X134154000Y-114558000D02*
X134404000Y-114508000D01*
X133994000Y-114648000D02*
X134154000Y-114558000D01*
X133854000Y-114768000D02*
X133994000Y-114648000D01*
X125590000Y-126602064D02*
X125590000Y-125397936D01*
X127410000Y-126602064D02*
X127410000Y-125397936D01*
X115897936Y-142090000D02*
X117102064Y-142090000D01*
X115897936Y-143910000D02*
X117102064Y-143910000D01*
X115897936Y-124090000D02*
X117102064Y-124090000D01*
X115897936Y-125910000D02*
X117102064Y-125910000D01*
X123590000Y-135411936D02*
X123590000Y-136616064D01*
X125410000Y-135411936D02*
X125410000Y-136616064D01*
X111410000Y-118202064D02*
X111410000Y-116997936D01*
X109590000Y-118202064D02*
X109590000Y-116997936D01*
X115897936Y-131466000D02*
X117102064Y-131466000D01*
X115897936Y-129646000D02*
X117102064Y-129646000D01*
X124910000Y-118202064D02*
X124910000Y-116997936D01*
X123090000Y-118202064D02*
X123090000Y-116997936D01*
X111654000Y-135411936D02*
X111654000Y-136616064D01*
X109834000Y-135411936D02*
X109834000Y-136616064D01*
X142897936Y-109090000D02*
X144102064Y-109090000D01*
X142897936Y-110910000D02*
X144102064Y-110910000D01*
X135270000Y-127500000D02*
G75*
G02*
X130270000Y-127500000I-2500000J0D01*
G01*
X130270000Y-127500000D02*
G75*
G02*
X135270000Y-127500000I2500000J0D01*
G01*
X130210000Y-125955000D02*
X130210000Y-129045000D01*
X130210000Y-125955170D02*
G75*
G02*
X135760000Y-127500462I2560000J-1544830D01*
G01*
X135760000Y-127499538D02*
G75*
G02*
X130210000Y-129044830I-2990000J-462D01*
G01*
X108372000Y-137414000D02*
G75*
G02*
X98872000Y-137414000I-4750000J0D01*
G01*
X98872000Y-137414000D02*
G75*
G02*
X108372000Y-137414000I4750000J0D01*
G01*
X106572000Y-141394000D02*
X106442000Y-141244000D01*
X106752000Y-141474000D02*
X106572000Y-141394000D01*
X107042000Y-141514000D02*
X106752000Y-141474000D01*
X107332000Y-141434000D02*
X107042000Y-141514000D01*
X107552000Y-141264000D02*
X107332000Y-141434000D01*
X107702000Y-141004000D02*
X107552000Y-141264000D01*
X107732000Y-140744000D02*
X107702000Y-141004000D01*
X107682000Y-140494000D02*
X107732000Y-140744000D01*
X107592000Y-140334000D02*
X107682000Y-140494000D01*
X107472000Y-140194000D02*
X107592000Y-140334000D01*
X100842000Y-122468000D02*
X100702000Y-122588000D01*
X100702000Y-122588000D02*
X100542000Y-122678000D01*
X100542000Y-122678000D02*
X100292000Y-122728000D01*
X100292000Y-122728000D02*
X100032000Y-122698000D01*
X100032000Y-122698000D02*
X99772000Y-122548000D01*
X99772000Y-122548000D02*
X99602000Y-122328000D01*
X99602000Y-122328000D02*
X99522000Y-122038000D01*
X99522000Y-122038000D02*
X99562000Y-121748000D01*
X99562000Y-121748000D02*
X99642000Y-121568000D01*
X99642000Y-121568000D02*
X99792000Y-121438000D01*
X108372000Y-118618000D02*
G75*
G02*
X98872000Y-118618000I-4750000J0D01*
G01*
X98872000Y-118618000D02*
G75*
G02*
X108372000Y-118618000I4750000J0D01*
G01*
X133854000Y-133564000D02*
X133994000Y-133444000D01*
X133994000Y-133444000D02*
X134154000Y-133354000D01*
X134154000Y-133354000D02*
X134404000Y-133304000D01*
X134404000Y-133304000D02*
X134664000Y-133334000D01*
X134664000Y-133334000D02*
X134924000Y-133484000D01*
X134924000Y-133484000D02*
X135094000Y-133704000D01*
X135094000Y-133704000D02*
X135174000Y-133994000D01*
X135174000Y-133994000D02*
X135134000Y-134284000D01*
X135134000Y-134284000D02*
X135054000Y-134464000D01*
X135054000Y-134464000D02*
X134904000Y-134594000D01*
X135824000Y-137414000D02*
G75*
G02*
X126324000Y-137414000I-4750000J0D01*
G01*
X126324000Y-137414000D02*
G75*
G02*
X135824000Y-137414000I4750000J0D01*
G01*
X96798000Y-113823000D02*
X84058000Y-113823000D01*
X84058000Y-113823000D02*
X84058000Y-124063000D01*
X96798000Y-124063000D02*
X84058000Y-124063000D01*
X96798000Y-113823000D02*
X96798000Y-124063000D01*
X96798000Y-113823000D02*
X84058000Y-113823000D01*
X84058000Y-113823000D02*
X84058000Y-124063000D01*
X96798000Y-124063000D02*
X84058000Y-124063000D01*
X96798000Y-113823000D02*
X96798000Y-124063000D01*
X97178000Y-113443000D02*
X97178000Y-116443000D01*
X94178000Y-113443000D02*
X97178000Y-113443000D01*
X94178000Y-132382000D02*
X97178000Y-132382000D01*
X97178000Y-132382000D02*
X97178000Y-135382000D01*
X96798000Y-132762000D02*
X96798000Y-143002000D01*
X96798000Y-143002000D02*
X84058000Y-143002000D01*
X84058000Y-132762000D02*
X84058000Y-143002000D01*
X96798000Y-132762000D02*
X84058000Y-132762000D01*
X96798000Y-132762000D02*
X96798000Y-143002000D01*
X96798000Y-143002000D02*
X84058000Y-143002000D01*
X84058000Y-132762000D02*
X84058000Y-143002000D01*
X96798000Y-132762000D02*
X84058000Y-132762000D01*
X137644000Y-142717000D02*
X150384000Y-142717000D01*
X150384000Y-142717000D02*
X150384000Y-132477000D01*
X137644000Y-132477000D02*
X150384000Y-132477000D01*
X137644000Y-142717000D02*
X137644000Y-132477000D01*
X137644000Y-142717000D02*
X150384000Y-142717000D01*
X150384000Y-142717000D02*
X150384000Y-132477000D01*
X137644000Y-132477000D02*
X150384000Y-132477000D01*
X137644000Y-142717000D02*
X137644000Y-132477000D01*
X137264000Y-143097000D02*
X137264000Y-140097000D01*
X140264000Y-143097000D02*
X137264000Y-143097000D01*
X140518000Y-124158000D02*
X137518000Y-124158000D01*
X137518000Y-124158000D02*
X137518000Y-121158000D01*
X137898000Y-123778000D02*
X137898000Y-113538000D01*
X137898000Y-113538000D02*
X150638000Y-113538000D01*
X150638000Y-123778000D02*
X150638000Y-113538000D01*
X137898000Y-123778000D02*
X150638000Y-123778000D01*
X137898000Y-123778000D02*
X137898000Y-113538000D01*
X137898000Y-113538000D02*
X150638000Y-113538000D01*
X150638000Y-123778000D02*
X150638000Y-113538000D01*
X137898000Y-123778000D02*
X150638000Y-123778000D01*
X86488000Y-127714000D02*
X86488000Y-129334000D01*
X84628000Y-127714000D02*
X84628000Y-129334000D01*
X84628000Y-129334000D02*
X86488000Y-129334000D01*
X84628000Y-127714000D02*
X86488000Y-127714000D01*
X86248000Y-126174000D02*
X86248000Y-127557000D01*
X86248000Y-126174000D02*
X87631000Y-126174000D01*
X97408000Y-126414000D02*
X97408000Y-130634000D01*
X86488000Y-126414000D02*
X86488000Y-130634000D01*
X86488000Y-130634000D02*
X97408000Y-130634000D01*
X86488000Y-126414000D02*
X97408000Y-126414000D01*
X86488000Y-107618000D02*
X97408000Y-107618000D01*
X86488000Y-111838000D02*
X97408000Y-111838000D01*
X86488000Y-107618000D02*
X86488000Y-111838000D01*
X97408000Y-107618000D02*
X97408000Y-111838000D01*
X86248000Y-107378000D02*
X87631000Y-107378000D01*
X86248000Y-107378000D02*
X86248000Y-108761000D01*
X84628000Y-108918000D02*
X86488000Y-108918000D01*
X84628000Y-110538000D02*
X86488000Y-110538000D01*
X84628000Y-108918000D02*
X84628000Y-110538000D01*
X86488000Y-108918000D02*
X86488000Y-110538000D01*
X119004000Y-139808000D02*
X119004000Y-138548000D01*
X119004000Y-132988000D02*
X119004000Y-134248000D01*
X115244000Y-139808000D02*
X119004000Y-139808000D01*
X112994000Y-132988000D02*
X119004000Y-132988000D01*
X113502000Y-113938000D02*
X119512000Y-113938000D01*
X115752000Y-120758000D02*
X119512000Y-120758000D01*
X119512000Y-113938000D02*
X119512000Y-115198000D01*
X119512000Y-120758000D02*
X119512000Y-119498000D01*
X135000000Y-110230000D02*
G75*
G02*
X130000000Y-110230000I-2500000J0D01*
G01*
X130000000Y-110230000D02*
G75*
G02*
X135000000Y-110230000I2500000J0D01*
G01*
X130955000Y-112790000D02*
X134045000Y-112790000D01*
X130955170Y-112790000D02*
G75*
G02*
X132500462Y-107240000I1544830J2560000D01*
G01*
X132499538Y-107240000D02*
G75*
G02*
X134044830Y-112790000I462J-2990000D01*
G01*
X120150000Y-124970000D02*
X120150000Y-128570000D01*
X124600000Y-126770000D02*
G75*
G02*
X120161522Y-128608478I-2600000J0D01*
G01*
X120161522Y-124931522D02*
G75*
G02*
X124600001Y-126770000I1838478J-1838478D01*
G01*
X121650000Y-108470000D02*
X121650000Y-112070000D01*
X121661522Y-108431522D02*
G75*
G02*
X126100001Y-110270000I1838478J-1838478D01*
G01*
X126100000Y-110270000D02*
G75*
G02*
X121661522Y-112108478I-2600000J0D01*
G01*
X138590000Y-129202064D02*
X138590000Y-127997936D01*
X140410000Y-129202064D02*
X140410000Y-127997936D01*
X115702064Y-110410000D02*
X114497936Y-110410000D01*
X115702064Y-108590000D02*
X114497936Y-108590000D01*
X143090000Y-127997936D02*
X143090000Y-129202064D01*
X144910000Y-127997936D02*
X144910000Y-129202064D01*
M02*
