M48
; DRILL file KiCad 10.0.3 date 2026-05-25T21:03:54
; FORMAT={-:-/ absolute / metric / decimal}
; #@! TF.CreationDate,2026-05-25T21:03:54+05:30
; #@! TF.GenerationSoftware,Kicad,Pcbnew,10.0.3
; #@! TF.FileFunction,Plated,1,4,PTH
FMAT,2
METRIC
; #@! TA.AperFunction,Plated,PTH,ViaDrill
T1C0.400
; #@! TA.AperFunction,Plated,PTH,ComponentDrill
T2C0.500
; #@! TA.AperFunction,Plated,PTH,ComponentDrill
T3C0.750
; #@! TA.AperFunction,Plated,PTH,ComponentDrill
T4C0.800
; #@! TA.AperFunction,Plated,PTH,ComponentDrill
T5C0.900
; #@! TA.AperFunction,Plated,PTH,ComponentDrill
T6C1.000
; #@! TA.AperFunction,Plated,PTH,ComponentDrill
T7C1.500
; #@! TA.AperFunction,Plated,PTH,ComponentDrill
T8C2.700
%
G90
G05
T1
X98.5Y-143.5
X110.0Y-130.0
X110.5Y-113.5
X112.0Y-133.0
X112.0Y-138.5
X112.5Y-136.5
X113.0Y-113.5
X113.5Y-129.5
X117.9Y-122.6
X120.0Y-130.5
X120.0Y-143.475
X120.5Y-113.0
X122.5Y-121.0
X122.5Y-132.0
X124.0Y-130.5
X124.5Y-138.5
X125.5Y-143.0
X126.5Y-125.5
X136.0Y-131.5
X137.0Y-117.5
X137.0Y-127.0
X140.0Y-110.5
T2
X83.475Y-146.0
X84.068Y-144.568
X84.068Y-147.432
X85.5Y-143.975
X85.5Y-148.025
X86.932Y-144.568
X86.932Y-147.432
X87.525Y-146.0
X145.975Y-146.5
X146.568Y-145.068
X146.568Y-147.932
X148.0Y-144.475
X148.0Y-148.525
X149.432Y-145.068
X149.432Y-147.932
X150.025Y-146.5
T3
X122.0Y-125.5
X122.0Y-126.77
X122.0Y-128.04
X123.5Y-109.0
X123.5Y-110.27
X123.5Y-111.54
T4
X88.138Y-109.728
X88.138Y-128.524
X95.758Y-109.728
X95.758Y-128.524
T5
X131.5Y-127.5
X132.5Y-108.96
X132.5Y-111.5
X134.04Y-127.5
T6
X101.082Y-137.404
X103.622Y-121.158
X103.632Y-116.078
X106.162Y-137.414
X131.064Y-121.158
X131.064Y-139.954
X131.074Y-116.078
X131.074Y-134.874
T7
X90.678Y-116.443
X90.678Y-121.443
X90.678Y-135.382
X90.678Y-140.382
X143.764Y-135.097
X143.764Y-140.097
X144.018Y-116.158
X144.018Y-121.158
T8
X85.5Y-146.0
X148.0Y-146.5
M30
