G04 #@! TF.GenerationSoftware,KiCad,Pcbnew,9.0.6*
G04 #@! TF.CreationDate,2026-05-21T20:30:27+05:30*
G04 #@! TF.ProjectId,RaspEdge Control HAT,52617370-4564-4676-9520-436f6e74726f,1*
G04 #@! TF.SameCoordinates,Original*
G04 #@! TF.FileFunction,Copper,L2,Bot*
G04 #@! TF.FilePolarity,Positive*
%FSLAX46Y46*%
G04 Gerber Fmt 4.6, Leading zero omitted, Abs format (unit mm)*
G04 Created by KiCad (PCBNEW 9.0.6) date 2026-05-21 20:30:27*
%MOMM*%
%LPD*%
G01*
G04 APERTURE LIST*
G04 #@! TA.AperFunction,ComponentPad*
%ADD10C,2.000000*%
G04 #@! TD*
G04 #@! TA.AperFunction,ComponentPad*
%ADD11O,1.700000X1.700000*%
G04 #@! TD*
G04 #@! TA.AperFunction,ComponentPad*
%ADD12R,1.700000X1.700000*%
G04 #@! TD*
G04 #@! TA.AperFunction,ViaPad*
%ADD13C,0.800000*%
G04 #@! TD*
G04 #@! TA.AperFunction,Conductor*
%ADD14C,0.250000*%
G04 #@! TD*
G04 APERTURE END LIST*
D10*
X43233200Y-88925400D03*
X43233200Y-84425400D03*
X49733200Y-88925400D03*
X49733200Y-84425400D03*
D11*
X61036200Y-88595200D03*
X58496200Y-88595200D03*
X55956200Y-88595200D03*
D12*
X53416200Y-88595200D03*
X42062400Y-76987400D03*
D11*
X42062400Y-74447400D03*
X44602400Y-76987400D03*
X44602400Y-74447400D03*
X47142400Y-76987400D03*
X47142400Y-74447400D03*
X49682400Y-76987400D03*
X49682400Y-74447400D03*
X52222400Y-76987400D03*
X52222400Y-74447400D03*
X54762400Y-76987400D03*
X54762400Y-74447400D03*
X57302400Y-76987400D03*
X57302400Y-74447400D03*
X59842400Y-76987400D03*
X59842400Y-74447400D03*
D13*
X52603400Y-83083400D03*
D14*
X47790100Y-78879700D02*
X49682400Y-76987400D01*
X47790100Y-80759300D02*
X47790100Y-78879700D01*
X52603400Y-83083400D02*
X52203401Y-82683401D01*
X49714201Y-82683401D02*
X47790100Y-80759300D01*
X52203401Y-82683401D02*
X49714201Y-82683401D01*
G04 #@! TA.AperFunction,NonConductor*
G36*
X62058604Y-72664194D02*
G01*
X62105278Y-72717692D01*
X62116837Y-72769278D01*
X62254305Y-87911895D01*
X62234922Y-87980195D01*
X62181691Y-88027173D01*
X62111511Y-88037914D01*
X62046665Y-88009009D01*
X62026374Y-87987100D01*
X61971734Y-87911895D01*
X61919854Y-87840488D01*
X61919851Y-87840485D01*
X61919849Y-87840482D01*
X61790917Y-87711550D01*
X61790914Y-87711548D01*
X61790912Y-87711546D01*
X61643386Y-87604362D01*
X61480910Y-87521576D01*
X61480909Y-87521575D01*
X61480906Y-87521574D01*
X61307488Y-87465227D01*
X61307484Y-87465226D01*
X61307483Y-87465226D01*
X61127376Y-87436700D01*
X60945024Y-87436700D01*
X60764917Y-87465226D01*
X60764911Y-87465227D01*
X60591493Y-87521574D01*
X60429010Y-87604364D01*
X60281485Y-87711548D01*
X60281482Y-87711550D01*
X60152550Y-87840482D01*
X60152548Y-87840485D01*
X60045364Y-87988010D01*
X59962574Y-88150493D01*
X59906227Y-88323911D01*
X59906226Y-88323916D01*
X59906226Y-88323917D01*
X59890648Y-88422271D01*
X59860236Y-88486423D01*
X59799968Y-88523950D01*
X59728979Y-88522936D01*
X59669807Y-88483703D01*
X59641751Y-88422271D01*
X59626174Y-88323917D01*
X59569824Y-88150490D01*
X59487038Y-87988014D01*
X59379854Y-87840488D01*
X59379851Y-87840485D01*
X59379849Y-87840482D01*
X59250917Y-87711550D01*
X59250914Y-87711548D01*
X59250912Y-87711546D01*
X59103386Y-87604362D01*
X58940910Y-87521576D01*
X58940909Y-87521575D01*
X58940906Y-87521574D01*
X58767488Y-87465227D01*
X58767484Y-87465226D01*
X58767483Y-87465226D01*
X58587376Y-87436700D01*
X58405024Y-87436700D01*
X58224917Y-87465226D01*
X58224911Y-87465227D01*
X58051493Y-87521574D01*
X57889010Y-87604364D01*
X57741485Y-87711548D01*
X57741482Y-87711550D01*
X57612550Y-87840482D01*
X57612548Y-87840485D01*
X57505364Y-87988010D01*
X57422574Y-88150493D01*
X57366227Y-88323911D01*
X57366226Y-88323916D01*
X57366226Y-88323917D01*
X57350648Y-88422271D01*
X57320236Y-88486423D01*
X57259968Y-88523950D01*
X57188979Y-88522936D01*
X57129807Y-88483703D01*
X57101751Y-88422271D01*
X57086174Y-88323917D01*
X57029824Y-88150490D01*
X56947038Y-87988014D01*
X56839854Y-87840488D01*
X56839851Y-87840485D01*
X56839849Y-87840482D01*
X56710917Y-87711550D01*
X56710914Y-87711548D01*
X56710912Y-87711546D01*
X56563386Y-87604362D01*
X56400910Y-87521576D01*
X56400909Y-87521575D01*
X56400906Y-87521574D01*
X56227488Y-87465227D01*
X56227484Y-87465226D01*
X56227483Y-87465226D01*
X56047376Y-87436700D01*
X55865024Y-87436700D01*
X55684917Y-87465226D01*
X55684911Y-87465227D01*
X55511493Y-87521574D01*
X55349010Y-87604364D01*
X55201485Y-87711548D01*
X55201482Y-87711550D01*
X55072550Y-87840482D01*
X55072548Y-87840485D01*
X54965364Y-87988010D01*
X54882574Y-88150493D01*
X54826227Y-88323911D01*
X54826226Y-88323916D01*
X54826226Y-88323917D01*
X54825148Y-88330723D01*
X54794736Y-88394874D01*
X54734468Y-88432401D01*
X54663479Y-88431387D01*
X54604307Y-88392154D01*
X54575739Y-88327159D01*
X54574700Y-88311010D01*
X54574700Y-87699135D01*
X54574699Y-87699129D01*
X54571708Y-87673348D01*
X54571708Y-87673345D01*
X54525121Y-87567835D01*
X54525120Y-87567834D01*
X54525119Y-87567832D01*
X54443567Y-87486280D01*
X54443565Y-87486279D01*
X54338056Y-87439692D01*
X54338051Y-87439691D01*
X54312270Y-87436700D01*
X54312264Y-87436700D01*
X52520136Y-87436700D01*
X52520129Y-87436700D01*
X52494348Y-87439691D01*
X52494343Y-87439692D01*
X52388834Y-87486279D01*
X52388832Y-87486280D01*
X52307280Y-87567832D01*
X52307279Y-87567834D01*
X52260692Y-87673343D01*
X52260691Y-87673348D01*
X52257700Y-87699129D01*
X52257700Y-89491270D01*
X52260691Y-89517051D01*
X52260692Y-89517056D01*
X52307279Y-89622565D01*
X52307280Y-89622567D01*
X52388832Y-89704119D01*
X52388834Y-89704120D01*
X52388835Y-89704121D01*
X52494345Y-89750708D01*
X52520132Y-89753699D01*
X52520135Y-89753700D01*
X52520136Y-89753700D01*
X54312265Y-89753700D01*
X54312266Y-89753699D01*
X54338055Y-89750708D01*
X54443565Y-89704121D01*
X54525121Y-89622565D01*
X54571708Y-89517055D01*
X54574700Y-89491264D01*
X54574700Y-88879389D01*
X54594702Y-88811268D01*
X54648358Y-88764775D01*
X54718632Y-88754671D01*
X54783212Y-88784165D01*
X54821596Y-88843891D01*
X54825149Y-88859680D01*
X54826227Y-88866487D01*
X54882574Y-89039906D01*
X54882575Y-89039909D01*
X54882576Y-89039910D01*
X54965362Y-89202386D01*
X55072546Y-89349912D01*
X55072548Y-89349914D01*
X55072550Y-89349917D01*
X55201482Y-89478849D01*
X55201485Y-89478851D01*
X55201488Y-89478854D01*
X55349014Y-89586038D01*
X55511490Y-89668824D01*
X55684917Y-89725174D01*
X55865024Y-89753700D01*
X55865027Y-89753700D01*
X56047373Y-89753700D01*
X56047376Y-89753700D01*
X56227483Y-89725174D01*
X56400910Y-89668824D01*
X56563386Y-89586038D01*
X56710912Y-89478854D01*
X56839854Y-89349912D01*
X56947038Y-89202386D01*
X57029824Y-89039910D01*
X57086174Y-88866483D01*
X57101751Y-88768126D01*
X57132163Y-88703976D01*
X57192432Y-88666449D01*
X57263421Y-88667463D01*
X57322593Y-88706696D01*
X57350647Y-88768126D01*
X57362648Y-88843891D01*
X57366227Y-88866488D01*
X57422574Y-89039906D01*
X57422575Y-89039909D01*
X57422576Y-89039910D01*
X57505362Y-89202386D01*
X57612546Y-89349912D01*
X57612548Y-89349914D01*
X57612550Y-89349917D01*
X57741482Y-89478849D01*
X57741485Y-89478851D01*
X57741488Y-89478854D01*
X57889014Y-89586038D01*
X58051490Y-89668824D01*
X58224917Y-89725174D01*
X58405024Y-89753700D01*
X58405027Y-89753700D01*
X58587373Y-89753700D01*
X58587376Y-89753700D01*
X58767483Y-89725174D01*
X58940910Y-89668824D01*
X59103386Y-89586038D01*
X59250912Y-89478854D01*
X59379854Y-89349912D01*
X59487038Y-89202386D01*
X59569824Y-89039910D01*
X59626174Y-88866483D01*
X59641751Y-88768126D01*
X59672163Y-88703976D01*
X59732432Y-88666449D01*
X59803421Y-88667463D01*
X59862593Y-88706696D01*
X59890647Y-88768126D01*
X59902648Y-88843891D01*
X59906227Y-88866488D01*
X59962574Y-89039906D01*
X59962575Y-89039909D01*
X59962576Y-89039910D01*
X60045362Y-89202386D01*
X60152546Y-89349912D01*
X60152548Y-89349914D01*
X60152550Y-89349917D01*
X60281482Y-89478849D01*
X60281485Y-89478851D01*
X60281488Y-89478854D01*
X60429014Y-89586038D01*
X60591490Y-89668824D01*
X60764917Y-89725174D01*
X60945024Y-89753700D01*
X60945027Y-89753700D01*
X61127373Y-89753700D01*
X61127376Y-89753700D01*
X61307483Y-89725174D01*
X61480910Y-89668824D01*
X61643386Y-89586038D01*
X61790912Y-89478854D01*
X61919854Y-89349912D01*
X62027038Y-89202386D01*
X62028240Y-89200026D01*
X62028934Y-89199290D01*
X62029623Y-89198168D01*
X62029858Y-89198312D01*
X62076979Y-89148407D01*
X62145892Y-89131332D01*
X62213096Y-89154224D01*
X62257256Y-89209816D01*
X62266507Y-89256073D01*
X62279633Y-90701860D01*
X62260250Y-90770160D01*
X62207019Y-90817138D01*
X62152263Y-90828996D01*
X41462168Y-90603149D01*
X41394269Y-90582405D01*
X41348365Y-90528245D01*
X41337547Y-90478129D01*
X41324797Y-88822419D01*
X41924700Y-88822419D01*
X41924700Y-89028381D01*
X41956920Y-89231808D01*
X42020566Y-89427690D01*
X42114071Y-89611203D01*
X42235132Y-89777830D01*
X42235134Y-89777832D01*
X42235136Y-89777835D01*
X42380764Y-89923463D01*
X42380767Y-89923465D01*
X42380770Y-89923468D01*
X42547397Y-90044529D01*
X42730910Y-90138034D01*
X42926792Y-90201680D01*
X43130219Y-90233900D01*
X43130222Y-90233900D01*
X43336178Y-90233900D01*
X43336181Y-90233900D01*
X43539608Y-90201680D01*
X43735490Y-90138034D01*
X43919003Y-90044529D01*
X44085630Y-89923468D01*
X44231268Y-89777830D01*
X44352329Y-89611203D01*
X44445834Y-89427690D01*
X44509480Y-89231808D01*
X44541700Y-89028381D01*
X44541700Y-88822419D01*
X48424700Y-88822419D01*
X48424700Y-89028381D01*
X48456920Y-89231808D01*
X48520566Y-89427690D01*
X48614071Y-89611203D01*
X48735132Y-89777830D01*
X48735134Y-89777832D01*
X48735136Y-89777835D01*
X48880764Y-89923463D01*
X48880767Y-89923465D01*
X48880770Y-89923468D01*
X49047397Y-90044529D01*
X49230910Y-90138034D01*
X49426792Y-90201680D01*
X49630219Y-90233900D01*
X49630222Y-90233900D01*
X49836178Y-90233900D01*
X49836181Y-90233900D01*
X50039608Y-90201680D01*
X50235490Y-90138034D01*
X50419003Y-90044529D01*
X50585630Y-89923468D01*
X50731268Y-89777830D01*
X50852329Y-89611203D01*
X50945834Y-89427690D01*
X51009480Y-89231808D01*
X51041700Y-89028381D01*
X51041700Y-88822419D01*
X51009480Y-88618992D01*
X50945834Y-88423110D01*
X50852329Y-88239597D01*
X50731268Y-88072970D01*
X50731265Y-88072967D01*
X50731263Y-88072964D01*
X50585635Y-87927336D01*
X50585632Y-87927334D01*
X50585630Y-87927332D01*
X50419003Y-87806271D01*
X50235490Y-87712766D01*
X50235487Y-87712765D01*
X50235485Y-87712764D01*
X50039612Y-87649121D01*
X50039610Y-87649120D01*
X50039608Y-87649120D01*
X49836181Y-87616900D01*
X49630219Y-87616900D01*
X49426792Y-87649120D01*
X49426790Y-87649120D01*
X49426787Y-87649121D01*
X49230914Y-87712764D01*
X49230908Y-87712767D01*
X49047393Y-87806273D01*
X48880767Y-87927334D01*
X48880764Y-87927336D01*
X48735136Y-88072964D01*
X48735134Y-88072967D01*
X48614073Y-88239593D01*
X48520567Y-88423108D01*
X48520564Y-88423114D01*
X48456921Y-88618987D01*
X48456920Y-88618990D01*
X48456920Y-88618992D01*
X48424700Y-88822419D01*
X44541700Y-88822419D01*
X44509480Y-88618992D01*
X44445834Y-88423110D01*
X44352329Y-88239597D01*
X44231268Y-88072970D01*
X44231265Y-88072967D01*
X44231263Y-88072964D01*
X44085635Y-87927336D01*
X44085632Y-87927334D01*
X44085630Y-87927332D01*
X43919003Y-87806271D01*
X43735490Y-87712766D01*
X43735487Y-87712765D01*
X43735485Y-87712764D01*
X43539612Y-87649121D01*
X43539610Y-87649120D01*
X43539608Y-87649120D01*
X43336181Y-87616900D01*
X43130219Y-87616900D01*
X42926792Y-87649120D01*
X42926790Y-87649120D01*
X42926787Y-87649121D01*
X42730914Y-87712764D01*
X42730908Y-87712767D01*
X42547393Y-87806273D01*
X42380767Y-87927334D01*
X42380764Y-87927336D01*
X42235136Y-88072964D01*
X42235134Y-88072967D01*
X42114073Y-88239593D01*
X42020567Y-88423108D01*
X42020564Y-88423114D01*
X41956921Y-88618987D01*
X41956920Y-88618990D01*
X41956920Y-88618992D01*
X41924700Y-88822419D01*
X41324797Y-88822419D01*
X41290144Y-84322419D01*
X41924700Y-84322419D01*
X41924700Y-84528381D01*
X41956920Y-84731808D01*
X42020566Y-84927690D01*
X42114071Y-85111203D01*
X42235132Y-85277830D01*
X42235134Y-85277832D01*
X42235136Y-85277835D01*
X42380764Y-85423463D01*
X42380767Y-85423465D01*
X42380770Y-85423468D01*
X42547397Y-85544529D01*
X42730910Y-85638034D01*
X42926792Y-85701680D01*
X43130219Y-85733900D01*
X43130222Y-85733900D01*
X43336178Y-85733900D01*
X43336181Y-85733900D01*
X43539608Y-85701680D01*
X43735490Y-85638034D01*
X43919003Y-85544529D01*
X44085630Y-85423468D01*
X44231268Y-85277830D01*
X44352329Y-85111203D01*
X44445834Y-84927690D01*
X44509480Y-84731808D01*
X44541700Y-84528381D01*
X44541700Y-84322419D01*
X44509480Y-84118992D01*
X44445834Y-83923110D01*
X44352329Y-83739597D01*
X44231268Y-83572970D01*
X44231265Y-83572967D01*
X44231263Y-83572964D01*
X44085635Y-83427336D01*
X44085632Y-83427334D01*
X44085630Y-83427332D01*
X43919003Y-83306271D01*
X43735490Y-83212766D01*
X43735487Y-83212765D01*
X43735485Y-83212764D01*
X43539612Y-83149121D01*
X43539610Y-83149120D01*
X43539608Y-83149120D01*
X43336181Y-83116900D01*
X43130219Y-83116900D01*
X42926792Y-83149120D01*
X42926790Y-83149120D01*
X42926787Y-83149121D01*
X42730914Y-83212764D01*
X42730908Y-83212767D01*
X42547393Y-83306273D01*
X42380767Y-83427334D01*
X42380764Y-83427336D01*
X42235136Y-83572964D01*
X42235134Y-83572967D01*
X42114073Y-83739593D01*
X42020567Y-83923108D01*
X42020564Y-83923114D01*
X41956921Y-84118987D01*
X41956920Y-84118990D01*
X41956920Y-84118992D01*
X41924700Y-84322419D01*
X41290144Y-84322419D01*
X41249600Y-79057500D01*
X41186100Y-78892400D01*
X40772130Y-78867758D01*
X35970098Y-78581923D01*
X35903286Y-78557909D01*
X35860064Y-78501586D01*
X35851586Y-78456694D01*
X35849533Y-77984607D01*
X35838591Y-75467853D01*
X36199999Y-75467853D01*
X36199999Y-75472233D01*
X36199999Y-75712947D01*
X36236276Y-75941992D01*
X36238341Y-75955027D01*
X36307138Y-76166760D01*
X36314078Y-76188119D01*
X36425348Y-76406499D01*
X36569410Y-76604783D01*
X36569412Y-76604785D01*
X36569414Y-76604788D01*
X36742711Y-76778085D01*
X36742714Y-76778087D01*
X36742717Y-76778090D01*
X36941001Y-76922152D01*
X37159381Y-77033422D01*
X37392478Y-77109160D01*
X37634553Y-77147501D01*
X37634556Y-77147501D01*
X37879644Y-77147501D01*
X37879647Y-77147501D01*
X38121722Y-77109160D01*
X38354819Y-77033422D01*
X38573199Y-76922152D01*
X38771483Y-76778090D01*
X38944790Y-76604783D01*
X39088852Y-76406499D01*
X39200122Y-76188119D01*
X39275860Y-75955022D01*
X39314201Y-75712947D01*
X39314201Y-75467853D01*
X39275860Y-75225778D01*
X39200122Y-74992681D01*
X39088852Y-74774301D01*
X38944790Y-74576017D01*
X38944787Y-74576014D01*
X38944785Y-74576011D01*
X38771488Y-74402714D01*
X38771485Y-74402712D01*
X38771483Y-74402710D01*
X38707501Y-74356224D01*
X40903900Y-74356224D01*
X40903900Y-74538576D01*
X40932426Y-74718683D01*
X40932427Y-74718688D01*
X40988774Y-74892106D01*
X40988775Y-74892109D01*
X40988776Y-74892110D01*
X41071562Y-75054586D01*
X41178746Y-75202112D01*
X41178748Y-75202114D01*
X41178750Y-75202117D01*
X41307682Y-75331049D01*
X41307685Y-75331051D01*
X41307688Y-75331054D01*
X41455214Y-75438238D01*
X41617690Y-75521024D01*
X41791117Y-75577374D01*
X41797923Y-75578451D01*
X41862074Y-75608864D01*
X41899601Y-75669132D01*
X41898587Y-75740121D01*
X41859354Y-75799293D01*
X41794359Y-75827861D01*
X41778210Y-75828900D01*
X41166329Y-75828900D01*
X41140548Y-75831891D01*
X41140543Y-75831892D01*
X41035034Y-75878479D01*
X41035032Y-75878480D01*
X40953480Y-75960032D01*
X40953479Y-75960034D01*
X40906892Y-76065543D01*
X40906891Y-76065548D01*
X40903900Y-76091329D01*
X40903900Y-77883470D01*
X40906891Y-77909251D01*
X40906892Y-77909256D01*
X40953479Y-78014765D01*
X40953480Y-78014767D01*
X41035032Y-78096319D01*
X41035034Y-78096320D01*
X41035035Y-78096321D01*
X41140545Y-78142908D01*
X41166332Y-78145899D01*
X41166335Y-78145900D01*
X41166336Y-78145900D01*
X42958465Y-78145900D01*
X42958466Y-78145899D01*
X42984255Y-78142908D01*
X43089765Y-78096321D01*
X43171321Y-78014765D01*
X43217908Y-77909255D01*
X43220900Y-77883464D01*
X43220900Y-77271589D01*
X43240902Y-77203468D01*
X43294558Y-77156975D01*
X43364832Y-77146871D01*
X43429412Y-77176365D01*
X43467796Y-77236091D01*
X43471349Y-77251880D01*
X43472427Y-77258687D01*
X43528774Y-77432106D01*
X43528775Y-77432109D01*
X43528776Y-77432110D01*
X43611562Y-77594586D01*
X43718746Y-77742112D01*
X43718748Y-77742114D01*
X43718750Y-77742117D01*
X43847682Y-77871049D01*
X43847685Y-77871051D01*
X43847688Y-77871054D01*
X43995214Y-77978238D01*
X44157690Y-78061024D01*
X44331117Y-78117374D01*
X44511224Y-78145900D01*
X44511227Y-78145900D01*
X44693573Y-78145900D01*
X44693576Y-78145900D01*
X44873683Y-78117374D01*
X45047110Y-78061024D01*
X45209586Y-77978238D01*
X45357112Y-77871054D01*
X45486054Y-77742112D01*
X45593238Y-77594586D01*
X45676024Y-77432110D01*
X45732374Y-77258683D01*
X45747951Y-77160326D01*
X45778363Y-77096176D01*
X45838632Y-77058649D01*
X45909621Y-77059663D01*
X45968793Y-77098896D01*
X45996847Y-77160326D01*
X46003681Y-77203468D01*
X46012427Y-77258688D01*
X46068774Y-77432106D01*
X46068775Y-77432109D01*
X46068776Y-77432110D01*
X46151562Y-77594586D01*
X46258746Y-77742112D01*
X46258748Y-77742114D01*
X46258750Y-77742117D01*
X46387682Y-77871049D01*
X46387685Y-77871051D01*
X46387688Y-77871054D01*
X46535214Y-77978238D01*
X46697690Y-78061024D01*
X46871117Y-78117374D01*
X47051224Y-78145900D01*
X47051227Y-78145900D01*
X47233573Y-78145900D01*
X47233576Y-78145900D01*
X47413683Y-78117374D01*
X47587110Y-78061024D01*
X47711369Y-77997710D01*
X47781142Y-77984607D01*
X47846927Y-78011307D01*
X47887834Y-78069334D01*
X47890875Y-78140265D01*
X47857665Y-78199072D01*
X47523927Y-78532811D01*
X47523925Y-78532813D01*
X47498829Y-78557909D01*
X47443214Y-78613523D01*
X47443210Y-78613528D01*
X47399603Y-78689058D01*
X47399600Y-78689064D01*
X47393491Y-78699647D01*
X47386142Y-78712375D01*
X47367639Y-78781432D01*
X47366526Y-78785583D01*
X47366523Y-78785594D01*
X47356600Y-78822627D01*
X47356600Y-78822629D01*
X47356600Y-80816371D01*
X47382653Y-80913604D01*
X47386143Y-80926629D01*
X47443210Y-81025471D01*
X47443218Y-81025481D01*
X47531100Y-81113363D01*
X47531114Y-81113375D01*
X49367312Y-82949573D01*
X49367314Y-82949576D01*
X49387121Y-82969383D01*
X49401167Y-82995109D01*
X49421143Y-83031692D01*
X49421142Y-83031694D01*
X49421144Y-83031697D01*
X49419044Y-83061037D01*
X49416078Y-83102507D01*
X49416076Y-83102509D01*
X49416076Y-83102512D01*
X49394870Y-83130837D01*
X49373531Y-83159343D01*
X49373528Y-83159344D01*
X49373527Y-83159346D01*
X49373520Y-83159348D01*
X49336959Y-83178308D01*
X49270393Y-83199936D01*
X49230910Y-83212766D01*
X49230908Y-83212766D01*
X49230908Y-83212767D01*
X49047393Y-83306273D01*
X48880767Y-83427334D01*
X48880764Y-83427336D01*
X48735136Y-83572964D01*
X48735134Y-83572967D01*
X48614073Y-83739593D01*
X48520567Y-83923108D01*
X48520564Y-83923114D01*
X48456921Y-84118987D01*
X48456920Y-84118990D01*
X48456920Y-84118992D01*
X48424700Y-84322419D01*
X48424700Y-84528381D01*
X48456920Y-84731808D01*
X48520566Y-84927690D01*
X48614071Y-85111203D01*
X48735132Y-85277830D01*
X48735134Y-85277832D01*
X48735136Y-85277835D01*
X48880764Y-85423463D01*
X48880767Y-85423465D01*
X48880770Y-85423468D01*
X49047397Y-85544529D01*
X49230910Y-85638034D01*
X49426792Y-85701680D01*
X49630219Y-85733900D01*
X49630222Y-85733900D01*
X49836178Y-85733900D01*
X49836181Y-85733900D01*
X50039608Y-85701680D01*
X50235490Y-85638034D01*
X50419003Y-85544529D01*
X50585630Y-85423468D01*
X50731268Y-85277830D01*
X50852329Y-85111203D01*
X50945834Y-84927690D01*
X51009480Y-84731808D01*
X51041700Y-84528381D01*
X51041700Y-84322419D01*
X51009480Y-84118992D01*
X50945834Y-83923110D01*
X50852329Y-83739597D01*
X50731268Y-83572970D01*
X50731265Y-83572967D01*
X50731263Y-83572964D01*
X50585635Y-83427336D01*
X50585632Y-83427334D01*
X50585630Y-83427332D01*
X50472085Y-83344837D01*
X50428731Y-83288615D01*
X50422656Y-83217879D01*
X50455787Y-83155087D01*
X50517607Y-83120176D01*
X50546146Y-83116901D01*
X51784278Y-83116901D01*
X51852399Y-83136903D01*
X51898892Y-83190559D01*
X51907857Y-83218320D01*
X51922128Y-83290068D01*
X51975533Y-83418996D01*
X51975535Y-83419000D01*
X51981104Y-83427334D01*
X52053072Y-83535042D01*
X52151758Y-83633728D01*
X52267799Y-83711264D01*
X52267803Y-83711266D01*
X52396730Y-83764670D01*
X52396731Y-83764670D01*
X52396738Y-83764673D01*
X52533619Y-83791900D01*
X52533620Y-83791900D01*
X52673180Y-83791900D01*
X52673181Y-83791900D01*
X52810062Y-83764673D01*
X52939001Y-83711264D01*
X53055042Y-83633728D01*
X53153728Y-83535042D01*
X53231264Y-83419001D01*
X53284673Y-83290062D01*
X53311900Y-83153181D01*
X53311900Y-83013619D01*
X53284673Y-82876738D01*
X53231264Y-82747799D01*
X53153728Y-82631758D01*
X53055042Y-82533072D01*
X52939001Y-82455536D01*
X52939002Y-82455536D01*
X52939000Y-82455535D01*
X52938996Y-82455533D01*
X52810069Y-82402129D01*
X52810064Y-82402128D01*
X52810062Y-82402127D01*
X52727343Y-82385673D01*
X52673183Y-82374900D01*
X52673181Y-82374900D01*
X52560153Y-82374900D01*
X52492032Y-82354898D01*
X52471058Y-82337995D01*
X52469582Y-82336519D01*
X52469572Y-82336511D01*
X52370730Y-82279445D01*
X52370727Y-82279444D01*
X52370726Y-82279443D01*
X52370724Y-82279442D01*
X52370723Y-82279442D01*
X52341180Y-82271526D01*
X52260473Y-82249901D01*
X52260472Y-82249901D01*
X52260471Y-82249901D01*
X49945952Y-82249901D01*
X49877831Y-82229899D01*
X49856857Y-82212996D01*
X48260505Y-80616644D01*
X48226479Y-80554332D01*
X48223600Y-80527549D01*
X48223600Y-79111451D01*
X48243602Y-79043330D01*
X48260499Y-79022361D01*
X49171129Y-78111731D01*
X49233438Y-78077709D01*
X49299157Y-78080996D01*
X49346323Y-78096321D01*
X49411117Y-78117374D01*
X49591224Y-78145900D01*
X49591227Y-78145900D01*
X49773573Y-78145900D01*
X49773576Y-78145900D01*
X49953683Y-78117374D01*
X50127110Y-78061024D01*
X50289586Y-77978238D01*
X50437112Y-77871054D01*
X50566054Y-77742112D01*
X50673238Y-77594586D01*
X50756024Y-77432110D01*
X50812374Y-77258683D01*
X50827951Y-77160326D01*
X50858363Y-77096176D01*
X50918632Y-77058649D01*
X50989621Y-77059663D01*
X51048793Y-77098896D01*
X51076847Y-77160326D01*
X51083681Y-77203468D01*
X51092427Y-77258688D01*
X51148774Y-77432106D01*
X51148775Y-77432109D01*
X51148776Y-77432110D01*
X51231562Y-77594586D01*
X51338746Y-77742112D01*
X51338748Y-77742114D01*
X51338750Y-77742117D01*
X51467682Y-77871049D01*
X51467685Y-77871051D01*
X51467688Y-77871054D01*
X51615214Y-77978238D01*
X51777690Y-78061024D01*
X51951117Y-78117374D01*
X52131224Y-78145900D01*
X52131227Y-78145900D01*
X52313573Y-78145900D01*
X52313576Y-78145900D01*
X52493683Y-78117374D01*
X52667110Y-78061024D01*
X52829586Y-77978238D01*
X52977112Y-77871054D01*
X53106054Y-77742112D01*
X53213238Y-77594586D01*
X53296024Y-77432110D01*
X53352374Y-77258683D01*
X53367951Y-77160326D01*
X53398363Y-77096176D01*
X53458632Y-77058649D01*
X53529621Y-77059663D01*
X53588793Y-77098896D01*
X53616847Y-77160326D01*
X53623681Y-77203468D01*
X53632427Y-77258688D01*
X53688774Y-77432106D01*
X53688775Y-77432109D01*
X53688776Y-77432110D01*
X53771562Y-77594586D01*
X53878746Y-77742112D01*
X53878748Y-77742114D01*
X53878750Y-77742117D01*
X54007682Y-77871049D01*
X54007685Y-77871051D01*
X54007688Y-77871054D01*
X54155214Y-77978238D01*
X54317690Y-78061024D01*
X54491117Y-78117374D01*
X54671224Y-78145900D01*
X54671227Y-78145900D01*
X54853573Y-78145900D01*
X54853576Y-78145900D01*
X55033683Y-78117374D01*
X55207110Y-78061024D01*
X55369586Y-77978238D01*
X55517112Y-77871054D01*
X55646054Y-77742112D01*
X55753238Y-77594586D01*
X55836024Y-77432110D01*
X55892374Y-77258683D01*
X55907951Y-77160326D01*
X55938363Y-77096176D01*
X55998632Y-77058649D01*
X56069621Y-77059663D01*
X56128793Y-77098896D01*
X56156847Y-77160326D01*
X56163681Y-77203468D01*
X56172427Y-77258688D01*
X56228774Y-77432106D01*
X56228775Y-77432109D01*
X56228776Y-77432110D01*
X56311562Y-77594586D01*
X56418746Y-77742112D01*
X56418748Y-77742114D01*
X56418750Y-77742117D01*
X56547682Y-77871049D01*
X56547685Y-77871051D01*
X56547688Y-77871054D01*
X56695214Y-77978238D01*
X56857690Y-78061024D01*
X57031117Y-78117374D01*
X57211224Y-78145900D01*
X57211227Y-78145900D01*
X57393573Y-78145900D01*
X57393576Y-78145900D01*
X57573683Y-78117374D01*
X57747110Y-78061024D01*
X57909586Y-77978238D01*
X58057112Y-77871054D01*
X58186054Y-77742112D01*
X58293238Y-77594586D01*
X58376024Y-77432110D01*
X58432374Y-77258683D01*
X58447951Y-77160326D01*
X58478363Y-77096176D01*
X58538632Y-77058649D01*
X58609621Y-77059663D01*
X58668793Y-77098896D01*
X58696847Y-77160326D01*
X58703681Y-77203468D01*
X58712427Y-77258688D01*
X58768774Y-77432106D01*
X58768775Y-77432109D01*
X58768776Y-77432110D01*
X58851562Y-77594586D01*
X58958746Y-77742112D01*
X58958748Y-77742114D01*
X58958750Y-77742117D01*
X59087682Y-77871049D01*
X59087685Y-77871051D01*
X59087688Y-77871054D01*
X59235214Y-77978238D01*
X59397690Y-78061024D01*
X59571117Y-78117374D01*
X59751224Y-78145900D01*
X59751227Y-78145900D01*
X59933573Y-78145900D01*
X59933576Y-78145900D01*
X60113683Y-78117374D01*
X60287110Y-78061024D01*
X60449586Y-77978238D01*
X60597112Y-77871054D01*
X60726054Y-77742112D01*
X60833238Y-77594586D01*
X60916024Y-77432110D01*
X60972374Y-77258683D01*
X61000900Y-77078576D01*
X61000900Y-76896224D01*
X60972374Y-76716117D01*
X60916024Y-76542690D01*
X60833238Y-76380214D01*
X60726054Y-76232688D01*
X60726051Y-76232685D01*
X60726049Y-76232682D01*
X60597117Y-76103750D01*
X60597114Y-76103748D01*
X60597112Y-76103746D01*
X60449586Y-75996562D01*
X60287110Y-75913776D01*
X60287109Y-75913775D01*
X60287106Y-75913774D01*
X60113688Y-75857427D01*
X60113684Y-75857426D01*
X60113683Y-75857426D01*
X60015326Y-75841848D01*
X59951176Y-75811437D01*
X59913649Y-75751168D01*
X59914663Y-75680179D01*
X59953896Y-75621007D01*
X60015326Y-75592952D01*
X60113683Y-75577374D01*
X60287110Y-75521024D01*
X60449586Y-75438238D01*
X60597112Y-75331054D01*
X60726054Y-75202112D01*
X60833238Y-75054586D01*
X60916024Y-74892110D01*
X60972374Y-74718683D01*
X61000900Y-74538576D01*
X61000900Y-74356224D01*
X60972374Y-74176117D01*
X60934807Y-74060499D01*
X60916025Y-74002693D01*
X60916024Y-74002692D01*
X60916024Y-74002690D01*
X60833238Y-73840214D01*
X60726054Y-73692688D01*
X60726051Y-73692685D01*
X60726049Y-73692682D01*
X60597117Y-73563750D01*
X60597114Y-73563748D01*
X60597112Y-73563746D01*
X60449586Y-73456562D01*
X60287110Y-73373776D01*
X60287109Y-73373775D01*
X60287106Y-73373774D01*
X60113688Y-73317427D01*
X60113684Y-73317426D01*
X60113683Y-73317426D01*
X59933576Y-73288900D01*
X59751224Y-73288900D01*
X59571117Y-73317426D01*
X59571111Y-73317427D01*
X59397693Y-73373774D01*
X59235210Y-73456564D01*
X59087685Y-73563748D01*
X59087682Y-73563750D01*
X58958750Y-73692682D01*
X58958748Y-73692685D01*
X58851564Y-73840210D01*
X58768774Y-74002693D01*
X58712427Y-74176111D01*
X58712426Y-74176116D01*
X58712426Y-74176117D01*
X58696848Y-74274471D01*
X58666436Y-74338623D01*
X58606168Y-74376150D01*
X58535179Y-74375136D01*
X58476007Y-74335903D01*
X58447951Y-74274471D01*
X58432374Y-74176117D01*
X58394807Y-74060499D01*
X58376025Y-74002693D01*
X58376024Y-74002692D01*
X58376024Y-74002690D01*
X58293238Y-73840214D01*
X58186054Y-73692688D01*
X58186051Y-73692685D01*
X58186049Y-73692682D01*
X58057117Y-73563750D01*
X58057114Y-73563748D01*
X58057112Y-73563746D01*
X57909586Y-73456562D01*
X57747110Y-73373776D01*
X57747109Y-73373775D01*
X57747106Y-73373774D01*
X57573688Y-73317427D01*
X57573684Y-73317426D01*
X57573683Y-73317426D01*
X57393576Y-73288900D01*
X57211224Y-73288900D01*
X57031117Y-73317426D01*
X57031111Y-73317427D01*
X56857693Y-73373774D01*
X56695210Y-73456564D01*
X56547685Y-73563748D01*
X56547682Y-73563750D01*
X56418750Y-73692682D01*
X56418748Y-73692685D01*
X56311564Y-73840210D01*
X56228774Y-74002693D01*
X56172427Y-74176111D01*
X56172426Y-74176116D01*
X56172426Y-74176117D01*
X56156848Y-74274471D01*
X56126436Y-74338623D01*
X56066168Y-74376150D01*
X55995179Y-74375136D01*
X55936007Y-74335903D01*
X55907951Y-74274471D01*
X55892374Y-74176117D01*
X55854807Y-74060499D01*
X55836025Y-74002693D01*
X55836024Y-74002692D01*
X55836024Y-74002690D01*
X55753238Y-73840214D01*
X55646054Y-73692688D01*
X55646051Y-73692685D01*
X55646049Y-73692682D01*
X55517117Y-73563750D01*
X55517114Y-73563748D01*
X55517112Y-73563746D01*
X55369586Y-73456562D01*
X55207110Y-73373776D01*
X55207109Y-73373775D01*
X55207106Y-73373774D01*
X55033688Y-73317427D01*
X55033684Y-73317426D01*
X55033683Y-73317426D01*
X54853576Y-73288900D01*
X54671224Y-73288900D01*
X54491117Y-73317426D01*
X54491111Y-73317427D01*
X54317693Y-73373774D01*
X54155210Y-73456564D01*
X54007685Y-73563748D01*
X54007682Y-73563750D01*
X53878750Y-73692682D01*
X53878748Y-73692685D01*
X53771564Y-73840210D01*
X53688774Y-74002693D01*
X53632427Y-74176111D01*
X53632426Y-74176116D01*
X53632426Y-74176117D01*
X53616848Y-74274471D01*
X53586436Y-74338623D01*
X53526168Y-74376150D01*
X53455179Y-74375136D01*
X53396007Y-74335903D01*
X53367951Y-74274471D01*
X53352374Y-74176117D01*
X53314807Y-74060499D01*
X53296025Y-74002693D01*
X53296024Y-74002692D01*
X53296024Y-74002690D01*
X53213238Y-73840214D01*
X53106054Y-73692688D01*
X53106051Y-73692685D01*
X53106049Y-73692682D01*
X52977117Y-73563750D01*
X52977114Y-73563748D01*
X52977112Y-73563746D01*
X52829586Y-73456562D01*
X52667110Y-73373776D01*
X52667109Y-73373775D01*
X52667106Y-73373774D01*
X52493688Y-73317427D01*
X52493684Y-73317426D01*
X52493683Y-73317426D01*
X52313576Y-73288900D01*
X52131224Y-73288900D01*
X51951117Y-73317426D01*
X51951111Y-73317427D01*
X51777693Y-73373774D01*
X51615210Y-73456564D01*
X51467685Y-73563748D01*
X51467682Y-73563750D01*
X51338750Y-73692682D01*
X51338748Y-73692685D01*
X51231564Y-73840210D01*
X51148774Y-74002693D01*
X51092427Y-74176111D01*
X51092426Y-74176116D01*
X51092426Y-74176117D01*
X51076848Y-74274471D01*
X51046436Y-74338623D01*
X50986168Y-74376150D01*
X50915179Y-74375136D01*
X50856007Y-74335903D01*
X50827951Y-74274471D01*
X50812374Y-74176117D01*
X50774807Y-74060499D01*
X50756025Y-74002693D01*
X50756024Y-74002692D01*
X50756024Y-74002690D01*
X50673238Y-73840214D01*
X50566054Y-73692688D01*
X50566051Y-73692685D01*
X50566049Y-73692682D01*
X50437117Y-73563750D01*
X50437114Y-73563748D01*
X50437112Y-73563746D01*
X50289586Y-73456562D01*
X50127110Y-73373776D01*
X50127109Y-73373775D01*
X50127106Y-73373774D01*
X49953688Y-73317427D01*
X49953684Y-73317426D01*
X49953683Y-73317426D01*
X49773576Y-73288900D01*
X49591224Y-73288900D01*
X49411117Y-73317426D01*
X49411111Y-73317427D01*
X49237693Y-73373774D01*
X49075210Y-73456564D01*
X48927685Y-73563748D01*
X48927682Y-73563750D01*
X48798750Y-73692682D01*
X48798748Y-73692685D01*
X48691564Y-73840210D01*
X48608774Y-74002693D01*
X48552427Y-74176111D01*
X48552426Y-74176116D01*
X48552426Y-74176117D01*
X48536848Y-74274471D01*
X48506436Y-74338623D01*
X48446168Y-74376150D01*
X48375179Y-74375136D01*
X48316007Y-74335903D01*
X48287951Y-74274471D01*
X48272374Y-74176117D01*
X48234807Y-74060499D01*
X48216025Y-74002693D01*
X48216024Y-74002692D01*
X48216024Y-74002690D01*
X48133238Y-73840214D01*
X48026054Y-73692688D01*
X48026051Y-73692685D01*
X48026049Y-73692682D01*
X47897117Y-73563750D01*
X47897114Y-73563748D01*
X47897112Y-73563746D01*
X47749586Y-73456562D01*
X47587110Y-73373776D01*
X47587109Y-73373775D01*
X47587106Y-73373774D01*
X47413688Y-73317427D01*
X47413684Y-73317426D01*
X47413683Y-73317426D01*
X47233576Y-73288900D01*
X47051224Y-73288900D01*
X46871117Y-73317426D01*
X46871111Y-73317427D01*
X46697693Y-73373774D01*
X46535210Y-73456564D01*
X46387685Y-73563748D01*
X46387682Y-73563750D01*
X46258750Y-73692682D01*
X46258748Y-73692685D01*
X46151564Y-73840210D01*
X46068774Y-74002693D01*
X46012427Y-74176111D01*
X46012426Y-74176116D01*
X46012426Y-74176117D01*
X45996848Y-74274471D01*
X45966436Y-74338623D01*
X45906168Y-74376150D01*
X45835179Y-74375136D01*
X45776007Y-74335903D01*
X45747951Y-74274471D01*
X45732374Y-74176117D01*
X45694807Y-74060499D01*
X45676025Y-74002693D01*
X45676024Y-74002692D01*
X45676024Y-74002690D01*
X45593238Y-73840214D01*
X45486054Y-73692688D01*
X45486051Y-73692685D01*
X45486049Y-73692682D01*
X45357117Y-73563750D01*
X45357114Y-73563748D01*
X45357112Y-73563746D01*
X45209586Y-73456562D01*
X45047110Y-73373776D01*
X45047109Y-73373775D01*
X45047106Y-73373774D01*
X44873688Y-73317427D01*
X44873684Y-73317426D01*
X44873683Y-73317426D01*
X44693576Y-73288900D01*
X44511224Y-73288900D01*
X44331117Y-73317426D01*
X44331111Y-73317427D01*
X44157693Y-73373774D01*
X43995210Y-73456564D01*
X43847685Y-73563748D01*
X43847682Y-73563750D01*
X43718750Y-73692682D01*
X43718748Y-73692685D01*
X43611564Y-73840210D01*
X43528774Y-74002693D01*
X43472427Y-74176111D01*
X43472426Y-74176116D01*
X43472426Y-74176117D01*
X43456848Y-74274471D01*
X43426436Y-74338623D01*
X43366168Y-74376150D01*
X43295179Y-74375136D01*
X43236007Y-74335903D01*
X43207951Y-74274471D01*
X43192374Y-74176117D01*
X43154807Y-74060499D01*
X43136025Y-74002693D01*
X43136024Y-74002692D01*
X43136024Y-74002690D01*
X43053238Y-73840214D01*
X42946054Y-73692688D01*
X42946051Y-73692685D01*
X42946049Y-73692682D01*
X42817117Y-73563750D01*
X42817114Y-73563748D01*
X42817112Y-73563746D01*
X42669586Y-73456562D01*
X42507110Y-73373776D01*
X42507109Y-73373775D01*
X42507106Y-73373774D01*
X42333688Y-73317427D01*
X42333684Y-73317426D01*
X42333683Y-73317426D01*
X42153576Y-73288900D01*
X41971224Y-73288900D01*
X41791117Y-73317426D01*
X41791111Y-73317427D01*
X41617693Y-73373774D01*
X41455210Y-73456564D01*
X41307685Y-73563748D01*
X41307682Y-73563750D01*
X41178750Y-73692682D01*
X41178748Y-73692685D01*
X41071564Y-73840210D01*
X40988774Y-74002693D01*
X40932427Y-74176111D01*
X40932426Y-74176116D01*
X40932426Y-74176117D01*
X40903900Y-74356224D01*
X38707501Y-74356224D01*
X38573199Y-74258648D01*
X38354819Y-74147378D01*
X38354816Y-74147377D01*
X38354814Y-74147376D01*
X38121727Y-74071641D01*
X38121723Y-74071640D01*
X38121722Y-74071640D01*
X37879647Y-74033299D01*
X37634553Y-74033299D01*
X37392478Y-74071640D01*
X37392472Y-74071641D01*
X37159385Y-74147376D01*
X37159379Y-74147379D01*
X36940997Y-74258650D01*
X36742714Y-74402712D01*
X36742711Y-74402714D01*
X36569414Y-74576011D01*
X36569412Y-74576014D01*
X36425350Y-74774297D01*
X36314079Y-74992679D01*
X36314076Y-74992685D01*
X36238341Y-75225772D01*
X36238340Y-75225777D01*
X36238340Y-75225778D01*
X36199999Y-75467853D01*
X35838591Y-75467853D01*
X35827248Y-72859061D01*
X35846954Y-72790856D01*
X35900407Y-72744130D01*
X35952819Y-72732516D01*
X61990418Y-72644423D01*
X62058604Y-72664194D01*
G37*
G04 #@! TD.AperFunction*
G04 #@! TA.AperFunction,NonConductor*
G36*
X43369621Y-74519663D02*
G01*
X43428793Y-74558896D01*
X43456847Y-74620326D01*
X43472426Y-74718683D01*
X43472427Y-74718688D01*
X43528774Y-74892106D01*
X43528775Y-74892109D01*
X43528776Y-74892110D01*
X43611562Y-75054586D01*
X43718746Y-75202112D01*
X43718748Y-75202114D01*
X43718750Y-75202117D01*
X43847682Y-75331049D01*
X43847685Y-75331051D01*
X43847688Y-75331054D01*
X43995214Y-75438238D01*
X44157690Y-75521024D01*
X44331117Y-75577374D01*
X44429471Y-75592951D01*
X44493623Y-75623364D01*
X44531150Y-75683632D01*
X44530136Y-75754621D01*
X44490903Y-75813793D01*
X44429471Y-75841848D01*
X44331117Y-75857426D01*
X44331111Y-75857427D01*
X44157693Y-75913774D01*
X43995210Y-75996564D01*
X43847685Y-76103748D01*
X43847682Y-76103750D01*
X43718750Y-76232682D01*
X43718748Y-76232685D01*
X43611564Y-76380210D01*
X43528774Y-76542693D01*
X43472427Y-76716111D01*
X43472426Y-76716116D01*
X43472426Y-76716117D01*
X43471348Y-76722923D01*
X43440936Y-76787074D01*
X43380668Y-76824601D01*
X43309679Y-76823587D01*
X43250507Y-76784354D01*
X43221939Y-76719359D01*
X43220900Y-76703210D01*
X43220900Y-76091335D01*
X43220899Y-76091329D01*
X43217908Y-76065548D01*
X43217908Y-76065545D01*
X43171321Y-75960035D01*
X43171320Y-75960034D01*
X43171319Y-75960032D01*
X43089767Y-75878480D01*
X43089765Y-75878479D01*
X42984256Y-75831892D01*
X42984251Y-75831891D01*
X42958470Y-75828900D01*
X42958464Y-75828900D01*
X42346590Y-75828900D01*
X42278469Y-75808898D01*
X42231976Y-75755242D01*
X42221872Y-75684968D01*
X42251366Y-75620388D01*
X42311092Y-75582004D01*
X42326869Y-75578453D01*
X42333683Y-75577374D01*
X42507110Y-75521024D01*
X42669586Y-75438238D01*
X42817112Y-75331054D01*
X42946054Y-75202112D01*
X43053238Y-75054586D01*
X43136024Y-74892110D01*
X43192374Y-74718683D01*
X43207951Y-74620326D01*
X43238363Y-74556176D01*
X43298632Y-74518649D01*
X43369621Y-74519663D01*
G37*
G04 #@! TD.AperFunction*
G04 #@! TA.AperFunction,NonConductor*
G36*
X58609621Y-74519663D02*
G01*
X58668793Y-74558896D01*
X58696847Y-74620326D01*
X58712426Y-74718683D01*
X58712427Y-74718688D01*
X58768774Y-74892106D01*
X58768775Y-74892109D01*
X58768776Y-74892110D01*
X58851562Y-75054586D01*
X58958746Y-75202112D01*
X58958748Y-75202114D01*
X58958750Y-75202117D01*
X59087682Y-75331049D01*
X59087685Y-75331051D01*
X59087688Y-75331054D01*
X59235214Y-75438238D01*
X59397690Y-75521024D01*
X59571117Y-75577374D01*
X59669471Y-75592951D01*
X59733623Y-75623364D01*
X59771150Y-75683632D01*
X59770136Y-75754621D01*
X59730903Y-75813793D01*
X59669471Y-75841848D01*
X59571117Y-75857426D01*
X59571111Y-75857427D01*
X59397693Y-75913774D01*
X59235210Y-75996564D01*
X59087685Y-76103748D01*
X59087682Y-76103750D01*
X58958750Y-76232682D01*
X58958748Y-76232685D01*
X58851564Y-76380210D01*
X58768774Y-76542693D01*
X58712427Y-76716111D01*
X58712426Y-76716116D01*
X58712426Y-76716117D01*
X58696848Y-76814471D01*
X58666436Y-76878623D01*
X58606168Y-76916150D01*
X58535179Y-76915136D01*
X58476007Y-76875903D01*
X58447951Y-76814471D01*
X58432374Y-76716117D01*
X58376024Y-76542690D01*
X58293238Y-76380214D01*
X58186054Y-76232688D01*
X58186051Y-76232685D01*
X58186049Y-76232682D01*
X58057117Y-76103750D01*
X58057114Y-76103748D01*
X58057112Y-76103746D01*
X57909586Y-75996562D01*
X57747110Y-75913776D01*
X57747109Y-75913775D01*
X57747106Y-75913774D01*
X57573688Y-75857427D01*
X57573684Y-75857426D01*
X57573683Y-75857426D01*
X57475326Y-75841848D01*
X57411176Y-75811437D01*
X57373649Y-75751168D01*
X57374663Y-75680179D01*
X57413896Y-75621007D01*
X57475326Y-75592952D01*
X57573683Y-75577374D01*
X57747110Y-75521024D01*
X57909586Y-75438238D01*
X58057112Y-75331054D01*
X58186054Y-75202112D01*
X58293238Y-75054586D01*
X58376024Y-74892110D01*
X58432374Y-74718683D01*
X58447951Y-74620326D01*
X58478363Y-74556176D01*
X58538632Y-74518649D01*
X58609621Y-74519663D01*
G37*
G04 #@! TD.AperFunction*
G04 #@! TA.AperFunction,NonConductor*
G36*
X56069621Y-74519663D02*
G01*
X56128793Y-74558896D01*
X56156847Y-74620326D01*
X56172426Y-74718683D01*
X56172427Y-74718688D01*
X56228774Y-74892106D01*
X56228775Y-74892109D01*
X56228776Y-74892110D01*
X56311562Y-75054586D01*
X56418746Y-75202112D01*
X56418748Y-75202114D01*
X56418750Y-75202117D01*
X56547682Y-75331049D01*
X56547685Y-75331051D01*
X56547688Y-75331054D01*
X56695214Y-75438238D01*
X56857690Y-75521024D01*
X57031117Y-75577374D01*
X57129471Y-75592951D01*
X57193623Y-75623364D01*
X57231150Y-75683632D01*
X57230136Y-75754621D01*
X57190903Y-75813793D01*
X57129471Y-75841848D01*
X57031117Y-75857426D01*
X57031111Y-75857427D01*
X56857693Y-75913774D01*
X56695210Y-75996564D01*
X56547685Y-76103748D01*
X56547682Y-76103750D01*
X56418750Y-76232682D01*
X56418748Y-76232685D01*
X56311564Y-76380210D01*
X56228774Y-76542693D01*
X56172427Y-76716111D01*
X56172426Y-76716116D01*
X56172426Y-76716117D01*
X56156848Y-76814471D01*
X56126436Y-76878623D01*
X56066168Y-76916150D01*
X55995179Y-76915136D01*
X55936007Y-76875903D01*
X55907951Y-76814471D01*
X55892374Y-76716117D01*
X55836024Y-76542690D01*
X55753238Y-76380214D01*
X55646054Y-76232688D01*
X55646051Y-76232685D01*
X55646049Y-76232682D01*
X55517117Y-76103750D01*
X55517114Y-76103748D01*
X55517112Y-76103746D01*
X55369586Y-75996562D01*
X55207110Y-75913776D01*
X55207109Y-75913775D01*
X55207106Y-75913774D01*
X55033688Y-75857427D01*
X55033684Y-75857426D01*
X55033683Y-75857426D01*
X54935326Y-75841848D01*
X54871176Y-75811437D01*
X54833649Y-75751168D01*
X54834663Y-75680179D01*
X54873896Y-75621007D01*
X54935326Y-75592952D01*
X55033683Y-75577374D01*
X55207110Y-75521024D01*
X55369586Y-75438238D01*
X55517112Y-75331054D01*
X55646054Y-75202112D01*
X55753238Y-75054586D01*
X55836024Y-74892110D01*
X55892374Y-74718683D01*
X55907951Y-74620326D01*
X55938363Y-74556176D01*
X55998632Y-74518649D01*
X56069621Y-74519663D01*
G37*
G04 #@! TD.AperFunction*
G04 #@! TA.AperFunction,NonConductor*
G36*
X53529621Y-74519663D02*
G01*
X53588793Y-74558896D01*
X53616847Y-74620326D01*
X53632426Y-74718683D01*
X53632427Y-74718688D01*
X53688774Y-74892106D01*
X53688775Y-74892109D01*
X53688776Y-74892110D01*
X53771562Y-75054586D01*
X53878746Y-75202112D01*
X53878748Y-75202114D01*
X53878750Y-75202117D01*
X54007682Y-75331049D01*
X54007685Y-75331051D01*
X54007688Y-75331054D01*
X54155214Y-75438238D01*
X54317690Y-75521024D01*
X54491117Y-75577374D01*
X54589471Y-75592951D01*
X54653623Y-75623364D01*
X54691150Y-75683632D01*
X54690136Y-75754621D01*
X54650903Y-75813793D01*
X54589471Y-75841848D01*
X54491117Y-75857426D01*
X54491111Y-75857427D01*
X54317693Y-75913774D01*
X54155210Y-75996564D01*
X54007685Y-76103748D01*
X54007682Y-76103750D01*
X53878750Y-76232682D01*
X53878748Y-76232685D01*
X53771564Y-76380210D01*
X53688774Y-76542693D01*
X53632427Y-76716111D01*
X53632426Y-76716116D01*
X53632426Y-76716117D01*
X53616848Y-76814471D01*
X53586436Y-76878623D01*
X53526168Y-76916150D01*
X53455179Y-76915136D01*
X53396007Y-76875903D01*
X53367951Y-76814471D01*
X53352374Y-76716117D01*
X53296024Y-76542690D01*
X53213238Y-76380214D01*
X53106054Y-76232688D01*
X53106051Y-76232685D01*
X53106049Y-76232682D01*
X52977117Y-76103750D01*
X52977114Y-76103748D01*
X52977112Y-76103746D01*
X52829586Y-75996562D01*
X52667110Y-75913776D01*
X52667109Y-75913775D01*
X52667106Y-75913774D01*
X52493688Y-75857427D01*
X52493684Y-75857426D01*
X52493683Y-75857426D01*
X52395326Y-75841848D01*
X52331176Y-75811437D01*
X52293649Y-75751168D01*
X52294663Y-75680179D01*
X52333896Y-75621007D01*
X52395326Y-75592952D01*
X52493683Y-75577374D01*
X52667110Y-75521024D01*
X52829586Y-75438238D01*
X52977112Y-75331054D01*
X53106054Y-75202112D01*
X53213238Y-75054586D01*
X53296024Y-74892110D01*
X53352374Y-74718683D01*
X53367951Y-74620326D01*
X53398363Y-74556176D01*
X53458632Y-74518649D01*
X53529621Y-74519663D01*
G37*
G04 #@! TD.AperFunction*
G04 #@! TA.AperFunction,NonConductor*
G36*
X50989621Y-74519663D02*
G01*
X51048793Y-74558896D01*
X51076847Y-74620326D01*
X51092426Y-74718683D01*
X51092427Y-74718688D01*
X51148774Y-74892106D01*
X51148775Y-74892109D01*
X51148776Y-74892110D01*
X51231562Y-75054586D01*
X51338746Y-75202112D01*
X51338748Y-75202114D01*
X51338750Y-75202117D01*
X51467682Y-75331049D01*
X51467685Y-75331051D01*
X51467688Y-75331054D01*
X51615214Y-75438238D01*
X51777690Y-75521024D01*
X51951117Y-75577374D01*
X52049471Y-75592951D01*
X52113623Y-75623364D01*
X52151150Y-75683632D01*
X52150136Y-75754621D01*
X52110903Y-75813793D01*
X52049471Y-75841848D01*
X51951117Y-75857426D01*
X51951111Y-75857427D01*
X51777693Y-75913774D01*
X51615210Y-75996564D01*
X51467685Y-76103748D01*
X51467682Y-76103750D01*
X51338750Y-76232682D01*
X51338748Y-76232685D01*
X51231564Y-76380210D01*
X51148774Y-76542693D01*
X51092427Y-76716111D01*
X51092426Y-76716116D01*
X51092426Y-76716117D01*
X51076848Y-76814471D01*
X51046436Y-76878623D01*
X50986168Y-76916150D01*
X50915179Y-76915136D01*
X50856007Y-76875903D01*
X50827951Y-76814471D01*
X50812374Y-76716117D01*
X50756024Y-76542690D01*
X50673238Y-76380214D01*
X50566054Y-76232688D01*
X50566051Y-76232685D01*
X50566049Y-76232682D01*
X50437117Y-76103750D01*
X50437114Y-76103748D01*
X50437112Y-76103746D01*
X50289586Y-75996562D01*
X50127110Y-75913776D01*
X50127109Y-75913775D01*
X50127106Y-75913774D01*
X49953688Y-75857427D01*
X49953684Y-75857426D01*
X49953683Y-75857426D01*
X49855326Y-75841848D01*
X49791176Y-75811437D01*
X49753649Y-75751168D01*
X49754663Y-75680179D01*
X49793896Y-75621007D01*
X49855326Y-75592952D01*
X49953683Y-75577374D01*
X50127110Y-75521024D01*
X50289586Y-75438238D01*
X50437112Y-75331054D01*
X50566054Y-75202112D01*
X50673238Y-75054586D01*
X50756024Y-74892110D01*
X50812374Y-74718683D01*
X50827951Y-74620326D01*
X50858363Y-74556176D01*
X50918632Y-74518649D01*
X50989621Y-74519663D01*
G37*
G04 #@! TD.AperFunction*
G04 #@! TA.AperFunction,NonConductor*
G36*
X48449621Y-74519663D02*
G01*
X48508793Y-74558896D01*
X48536847Y-74620326D01*
X48552426Y-74718683D01*
X48552427Y-74718688D01*
X48608774Y-74892106D01*
X48608775Y-74892109D01*
X48608776Y-74892110D01*
X48691562Y-75054586D01*
X48798746Y-75202112D01*
X48798748Y-75202114D01*
X48798750Y-75202117D01*
X48927682Y-75331049D01*
X48927685Y-75331051D01*
X48927688Y-75331054D01*
X49075214Y-75438238D01*
X49237690Y-75521024D01*
X49411117Y-75577374D01*
X49509471Y-75592951D01*
X49573623Y-75623364D01*
X49611150Y-75683632D01*
X49610136Y-75754621D01*
X49570903Y-75813793D01*
X49509471Y-75841848D01*
X49411117Y-75857426D01*
X49411111Y-75857427D01*
X49237693Y-75913774D01*
X49075210Y-75996564D01*
X48927685Y-76103748D01*
X48927682Y-76103750D01*
X48798750Y-76232682D01*
X48798748Y-76232685D01*
X48691564Y-76380210D01*
X48608774Y-76542693D01*
X48552427Y-76716111D01*
X48552426Y-76716116D01*
X48552426Y-76716117D01*
X48536848Y-76814471D01*
X48506436Y-76878623D01*
X48446168Y-76916150D01*
X48375179Y-76915136D01*
X48316007Y-76875903D01*
X48287951Y-76814471D01*
X48272374Y-76716117D01*
X48216024Y-76542690D01*
X48133238Y-76380214D01*
X48026054Y-76232688D01*
X48026051Y-76232685D01*
X48026049Y-76232682D01*
X47897117Y-76103750D01*
X47897114Y-76103748D01*
X47897112Y-76103746D01*
X47749586Y-75996562D01*
X47587110Y-75913776D01*
X47587109Y-75913775D01*
X47587106Y-75913774D01*
X47413688Y-75857427D01*
X47413684Y-75857426D01*
X47413683Y-75857426D01*
X47315326Y-75841848D01*
X47251176Y-75811437D01*
X47213649Y-75751168D01*
X47214663Y-75680179D01*
X47253896Y-75621007D01*
X47315326Y-75592952D01*
X47413683Y-75577374D01*
X47587110Y-75521024D01*
X47749586Y-75438238D01*
X47897112Y-75331054D01*
X48026054Y-75202112D01*
X48133238Y-75054586D01*
X48216024Y-74892110D01*
X48272374Y-74718683D01*
X48287951Y-74620326D01*
X48318363Y-74556176D01*
X48378632Y-74518649D01*
X48449621Y-74519663D01*
G37*
G04 #@! TD.AperFunction*
G04 #@! TA.AperFunction,NonConductor*
G36*
X45909621Y-74519663D02*
G01*
X45968793Y-74558896D01*
X45996847Y-74620326D01*
X46012426Y-74718683D01*
X46012427Y-74718688D01*
X46068774Y-74892106D01*
X46068775Y-74892109D01*
X46068776Y-74892110D01*
X46151562Y-75054586D01*
X46258746Y-75202112D01*
X46258748Y-75202114D01*
X46258750Y-75202117D01*
X46387682Y-75331049D01*
X46387685Y-75331051D01*
X46387688Y-75331054D01*
X46535214Y-75438238D01*
X46697690Y-75521024D01*
X46871117Y-75577374D01*
X46969471Y-75592951D01*
X47033623Y-75623364D01*
X47071150Y-75683632D01*
X47070136Y-75754621D01*
X47030903Y-75813793D01*
X46969471Y-75841848D01*
X46871117Y-75857426D01*
X46871111Y-75857427D01*
X46697693Y-75913774D01*
X46535210Y-75996564D01*
X46387685Y-76103748D01*
X46387682Y-76103750D01*
X46258750Y-76232682D01*
X46258748Y-76232685D01*
X46151564Y-76380210D01*
X46068774Y-76542693D01*
X46012427Y-76716111D01*
X46012426Y-76716116D01*
X46012426Y-76716117D01*
X45996848Y-76814471D01*
X45966436Y-76878623D01*
X45906168Y-76916150D01*
X45835179Y-76915136D01*
X45776007Y-76875903D01*
X45747951Y-76814471D01*
X45732374Y-76716117D01*
X45676024Y-76542690D01*
X45593238Y-76380214D01*
X45486054Y-76232688D01*
X45486051Y-76232685D01*
X45486049Y-76232682D01*
X45357117Y-76103750D01*
X45357114Y-76103748D01*
X45357112Y-76103746D01*
X45209586Y-75996562D01*
X45047110Y-75913776D01*
X45047109Y-75913775D01*
X45047106Y-75913774D01*
X44873688Y-75857427D01*
X44873684Y-75857426D01*
X44873683Y-75857426D01*
X44775326Y-75841848D01*
X44711176Y-75811437D01*
X44673649Y-75751168D01*
X44674663Y-75680179D01*
X44713896Y-75621007D01*
X44775326Y-75592952D01*
X44873683Y-75577374D01*
X45047110Y-75521024D01*
X45209586Y-75438238D01*
X45357112Y-75331054D01*
X45486054Y-75202112D01*
X45593238Y-75054586D01*
X45676024Y-74892110D01*
X45732374Y-74718683D01*
X45747951Y-74620326D01*
X45778363Y-74556176D01*
X45838632Y-74518649D01*
X45909621Y-74519663D01*
G37*
G04 #@! TD.AperFunction*
G04 #@! TA.AperFunction,NonConductor*
G36*
X48424577Y-77059305D02*
G01*
X48449621Y-77059663D01*
X48458848Y-77065781D01*
X48469729Y-77067837D01*
X48487920Y-77085056D01*
X48508793Y-77098896D01*
X48513554Y-77109321D01*
X48521289Y-77116643D01*
X48534739Y-77149889D01*
X48536014Y-77155064D01*
X48552426Y-77258683D01*
X48590214Y-77374982D01*
X48591309Y-77379425D01*
X48589942Y-77410499D01*
X48590831Y-77441607D01*
X48588396Y-77445644D01*
X48588189Y-77450353D01*
X48558065Y-77498671D01*
X48354073Y-77702663D01*
X48291763Y-77736688D01*
X48220947Y-77731624D01*
X48164111Y-77689077D01*
X48139300Y-77622557D01*
X48152711Y-77556367D01*
X48216024Y-77432110D01*
X48272374Y-77258683D01*
X48287951Y-77160326D01*
X48292694Y-77150322D01*
X48293181Y-77139263D01*
X48307632Y-77118810D01*
X48318363Y-77096176D01*
X48327762Y-77090323D01*
X48334152Y-77081281D01*
X48357369Y-77071887D01*
X48378632Y-77058649D01*
X48389703Y-77058807D01*
X48399967Y-77054655D01*
X48424577Y-77059305D01*
G37*
G04 #@! TD.AperFunction*
M02*
