G04 #@! TF.GenerationSoftware,KiCad,Pcbnew,9.0.6*
G04 #@! TF.CreationDate,2026-05-21T20:30:27+05:30*
G04 #@! TF.ProjectId,RaspEdge Control HAT,52617370-4564-4676-9520-436f6e74726f,1*
G04 #@! TF.SameCoordinates,Original*
G04 #@! TF.FileFunction,Copper,L1,Top*
G04 #@! TF.FilePolarity,Positive*
%FSLAX46Y46*%
G04 Gerber Fmt 4.6, Leading zero omitted, Abs format (unit mm)*
G04 Created by KiCad (PCBNEW 9.0.6) date 2026-05-21 20:30:27*
%MOMM*%
%LPD*%
G01*
G04 APERTURE LIST*
G04 Aperture macros list*
%AMRoundRect*
0 Rectangle with rounded corners*
0 $1 Rounding radius*
0 $2 $3 $4 $5 $6 $7 $8 $9 X,Y pos of 4 corners*
0 Add a 4 corners polygon primitive as box body*
4,1,4,$2,$3,$4,$5,$6,$7,$8,$9,$2,$3,0*
0 Add four circle primitives for the rounded corners*
1,1,$1+$1,$2,$3*
1,1,$1+$1,$4,$5*
1,1,$1+$1,$6,$7*
1,1,$1+$1,$8,$9*
0 Add four rect primitives between the rounded corners*
20,1,$1+$1,$2,$3,$4,$5,0*
20,1,$1+$1,$4,$5,$6,$7,0*
20,1,$1+$1,$6,$7,$8,$9,0*
20,1,$1+$1,$8,$9,$2,$3,0*%
G04 Aperture macros list end*
G04 #@! TA.AperFunction,ComponentPad*
%ADD10C,2.000000*%
G04 #@! TD*
G04 #@! TA.AperFunction,SMDPad,CuDef*
%ADD11RoundRect,0.250000X-0.325000X-0.450000X0.325000X-0.450000X0.325000X0.450000X-0.325000X0.450000X0*%
G04 #@! TD*
G04 #@! TA.AperFunction,ComponentPad*
%ADD12O,1.700000X1.700000*%
G04 #@! TD*
G04 #@! TA.AperFunction,ComponentPad*
%ADD13R,1.700000X1.700000*%
G04 #@! TD*
G04 #@! TA.AperFunction,SMDPad,CuDef*
%ADD14RoundRect,0.250000X0.325000X0.450000X-0.325000X0.450000X-0.325000X-0.450000X0.325000X-0.450000X0*%
G04 #@! TD*
G04 #@! TA.AperFunction,ViaPad*
%ADD15C,0.800000*%
G04 #@! TD*
G04 #@! TA.AperFunction,Conductor*
%ADD16C,0.250000*%
G04 #@! TD*
G04 #@! TA.AperFunction,Conductor*
%ADD17C,0.300000*%
G04 #@! TD*
G04 APERTURE END LIST*
D10*
X43233200Y-88925400D03*
X43233200Y-84425400D03*
X49733200Y-88925400D03*
X49733200Y-84425400D03*
D11*
X60613400Y-80715400D03*
X58563400Y-80715400D03*
D12*
X61036200Y-88595200D03*
X58496200Y-88595200D03*
X55956200Y-88595200D03*
D13*
X53416200Y-88595200D03*
D14*
X53292532Y-80670400D03*
X55342532Y-80670400D03*
X53915200Y-84709000D03*
X55965200Y-84709000D03*
D11*
X51012200Y-79984600D03*
X48962200Y-79984600D03*
D14*
X44618800Y-80187800D03*
X46668800Y-80187800D03*
D11*
X60613400Y-84785200D03*
X58563400Y-84785200D03*
D13*
X42062400Y-76987400D03*
D12*
X42062400Y-74447400D03*
X44602400Y-76987400D03*
X44602400Y-74447400D03*
X47142400Y-76987400D03*
X47142400Y-74447400D03*
X49682400Y-76987400D03*
X49682400Y-74447400D03*
X52222400Y-76987400D03*
X52222400Y-74447400D03*
X54762400Y-76987400D03*
X54762400Y-74447400D03*
X57302400Y-76987400D03*
X57302400Y-74447400D03*
X59842400Y-76987400D03*
X59842400Y-74447400D03*
D15*
X52603400Y-83083400D03*
D16*
X60613400Y-84785200D02*
X60121800Y-84785200D01*
X55965200Y-85409000D02*
X55965200Y-84709000D01*
X59662400Y-86436200D02*
X56992400Y-86436200D01*
X60613400Y-84785200D02*
X60613400Y-85485200D01*
X56992400Y-86436200D02*
X55965200Y-85409000D01*
X60613400Y-85485200D02*
X59662400Y-86436200D01*
D17*
X58563400Y-82940000D02*
X58563400Y-84785200D01*
X61036200Y-87393119D02*
X61823600Y-86605719D01*
X58674000Y-82829400D02*
X58563400Y-82940000D01*
X61036200Y-88595200D02*
X61036200Y-87393119D01*
X60422566Y-82829400D02*
X58674000Y-82829400D01*
X61823600Y-86605719D02*
X61823600Y-84230434D01*
X61823600Y-84230434D02*
X60422566Y-82829400D01*
X58563400Y-81415400D02*
X58521600Y-81457200D01*
X58521600Y-82898200D02*
X58563400Y-82940000D01*
X58521600Y-81457200D02*
X58521600Y-82898200D01*
D16*
X58563400Y-81415400D02*
X58563400Y-80715400D01*
X47142400Y-74447400D02*
X48317401Y-73272399D01*
X55342532Y-79970400D02*
X56344332Y-78968600D01*
X56344332Y-78968600D02*
X59566600Y-78968600D01*
X55342532Y-80670400D02*
X55342532Y-79970400D01*
X60613400Y-80015400D02*
X60613400Y-80715400D01*
X59566600Y-78968600D02*
X60613400Y-80015400D01*
X55956200Y-88849200D02*
X55956200Y-88595200D01*
X55956200Y-88595200D02*
X55956200Y-87393119D01*
X54991000Y-86427919D02*
X54991000Y-81907058D01*
X55956200Y-87393119D02*
X54991000Y-86427919D01*
X54991000Y-81907058D02*
X54292542Y-81208600D01*
X49282588Y-79984600D02*
X48962200Y-79984600D01*
X54292542Y-81208600D02*
X54292542Y-80327542D01*
X54292542Y-80327542D02*
X54292542Y-79940798D01*
X54292542Y-80073542D02*
X54292542Y-80327542D01*
X53022500Y-78740000D02*
X52990750Y-78771750D01*
X52990750Y-78771750D02*
X54292542Y-80073542D01*
X48962200Y-79984600D02*
X48962200Y-79284600D01*
X48962200Y-79284600D02*
X49506800Y-78740000D01*
X49517300Y-78752700D02*
X53033000Y-78752700D01*
X53912401Y-77873299D02*
X53033000Y-78752700D01*
X53912401Y-77837399D02*
X53912401Y-77873299D01*
X54762400Y-76987400D02*
X53912401Y-77837399D01*
X44618800Y-80657200D02*
X44618800Y-80187800D01*
X49733200Y-84425400D02*
X43233200Y-84425400D01*
X44618800Y-80187800D02*
X44618800Y-80887800D01*
X46292401Y-75297399D02*
X47142400Y-74447400D01*
X45967399Y-75622401D02*
X46292401Y-75297399D01*
X45967399Y-78139201D02*
X45967399Y-75622401D01*
X44618800Y-79487800D02*
X45967399Y-78139201D01*
X44618800Y-80187800D02*
X44618800Y-79487800D01*
X48317401Y-73272399D02*
X52521101Y-73272399D01*
X59291600Y-82143600D02*
X60773390Y-82143600D01*
X58563400Y-81415400D02*
X59291600Y-82143600D01*
X60773390Y-82143600D02*
X61513410Y-81403580D01*
X60247902Y-73113900D02*
X55788986Y-73113900D01*
X61513410Y-81403580D02*
X61513410Y-74379408D01*
X61513410Y-74379408D02*
X60247902Y-73113900D01*
X52521101Y-73272399D02*
X52755800Y-73037700D01*
X55067200Y-73037700D02*
X55712786Y-73037700D01*
X55067200Y-73037700D02*
X55333900Y-73037700D01*
X55712786Y-73037700D02*
X55788986Y-73113900D01*
X52755800Y-73037700D02*
X55067200Y-73037700D01*
X52698901Y-73272399D02*
X52521101Y-73272399D01*
X53397401Y-75812399D02*
X53397401Y-74758299D01*
X53555900Y-74599800D02*
X53555900Y-73748900D01*
X53079399Y-73272399D02*
X52698901Y-73272399D01*
X52222400Y-76987400D02*
X53397401Y-75812399D01*
X53397401Y-74758299D02*
X53555900Y-74599800D01*
X53555900Y-73748900D02*
X53079399Y-73272399D01*
X46668800Y-81361000D02*
X49733200Y-84425400D01*
X46668800Y-80187800D02*
X46668800Y-81361000D01*
X48832401Y-75297399D02*
X49682400Y-74447400D01*
X48507399Y-77649201D02*
X48507399Y-75622401D01*
X48507399Y-75622401D02*
X48832401Y-75297399D01*
X46668800Y-79487800D02*
X48507399Y-77649201D01*
X46668800Y-80187800D02*
X46668800Y-79487800D01*
X53915200Y-84709000D02*
X53340200Y-84709000D01*
X52603400Y-83972200D02*
X52603400Y-83083400D01*
X53340200Y-84709000D02*
X52603400Y-83972200D01*
D17*
X52606732Y-79984600D02*
X53292532Y-80670400D01*
X51012200Y-79984600D02*
X52606732Y-79984600D01*
X44647413Y-88925400D02*
X49733200Y-88925400D01*
X43233200Y-88925400D02*
X44647413Y-88925400D01*
X53086000Y-88925400D02*
X53416200Y-88595200D01*
X49733200Y-88925400D02*
X53086000Y-88925400D01*
X53416200Y-87445200D02*
X53416200Y-88595200D01*
X51714400Y-81673532D02*
X51714400Y-85743400D01*
X52717532Y-80670400D02*
X51714400Y-81673532D01*
X51714400Y-85743400D02*
X53416200Y-87445200D01*
X53292532Y-80670400D02*
X52717532Y-80670400D01*
D16*
X41630600Y-87322800D02*
X43233200Y-88925400D01*
X42062400Y-76987400D02*
X41630600Y-77419200D01*
X41630600Y-77419200D02*
X41630600Y-87322800D01*
M02*
