%TF.GenerationSoftware,KiCad,Pcbnew,10.0.3*%
%TF.CreationDate,2026-06-15T15:18:08+05:30*%
%TF.ProjectId,NanoControl F031 Platform (2),4e616e6f-436f-46e7-9472-6f6c20463033,rev?*%
%TF.SameCoordinates,Original*%
%TF.FileFunction,Legend,Bot*%
%TF.FilePolarity,Positive*%
%FSLAX46Y46*%
G04 Gerber Fmt 4.6, Leading zero omitted, Abs format (unit mm)*
G04 Created by KiCad (PCBNEW 10.0.3) date 2026-06-15 15:18:08*
%MOMM*%
%LPD*%
G01*
G04 APERTURE LIST*
%ADD10C,0.120000*%
%ADD11C,0.150000*%
G04 APERTURE END LIST*
D10*
X210794523Y-123172950D02*
X210870713Y-123134855D01*
X210870713Y-123134855D02*
X210984999Y-123134855D01*
X210984999Y-123134855D02*
X211099285Y-123172950D01*
X211099285Y-123172950D02*
X211175475Y-123249140D01*
X211175475Y-123249140D02*
X211213570Y-123325331D01*
X211213570Y-123325331D02*
X211251666Y-123477712D01*
X211251666Y-123477712D02*
X211251666Y-123591998D01*
X211251666Y-123591998D02*
X211213570Y-123744379D01*
X211213570Y-123744379D02*
X211175475Y-123820569D01*
X211175475Y-123820569D02*
X211099285Y-123896760D01*
X211099285Y-123896760D02*
X210984999Y-123934855D01*
X210984999Y-123934855D02*
X210908808Y-123934855D01*
X210908808Y-123934855D02*
X210794523Y-123896760D01*
X210794523Y-123896760D02*
X210756427Y-123858664D01*
X210756427Y-123858664D02*
X210756427Y-123591998D01*
X210756427Y-123591998D02*
X210908808Y-123591998D01*
X210413570Y-123934855D02*
X210413570Y-123134855D01*
X210413570Y-123134855D02*
X209956427Y-123934855D01*
X209956427Y-123934855D02*
X209956427Y-123134855D01*
X209575475Y-123934855D02*
X209575475Y-123134855D01*
X209575475Y-123134855D02*
X209384999Y-123134855D01*
X209384999Y-123134855D02*
X209270713Y-123172950D01*
X209270713Y-123172950D02*
X209194523Y-123249140D01*
X209194523Y-123249140D02*
X209156428Y-123325331D01*
X209156428Y-123325331D02*
X209118332Y-123477712D01*
X209118332Y-123477712D02*
X209118332Y-123591998D01*
X209118332Y-123591998D02*
X209156428Y-123744379D01*
X209156428Y-123744379D02*
X209194523Y-123820569D01*
X209194523Y-123820569D02*
X209270713Y-123896760D01*
X209270713Y-123896760D02*
X209384999Y-123934855D01*
X209384999Y-123934855D02*
X209575475Y-123934855D01*
X213544047Y-123134855D02*
X213277380Y-123934855D01*
X213277380Y-123934855D02*
X213010714Y-123134855D01*
X212744047Y-123934855D02*
X212744047Y-123401521D01*
X212744047Y-123134855D02*
X212782143Y-123172950D01*
X212782143Y-123172950D02*
X212744047Y-123211045D01*
X212744047Y-123211045D02*
X212705952Y-123172950D01*
X212705952Y-123172950D02*
X212744047Y-123134855D01*
X212744047Y-123134855D02*
X212744047Y-123211045D01*
X212363095Y-123401521D02*
X212363095Y-123934855D01*
X212363095Y-123477712D02*
X212325000Y-123439617D01*
X212325000Y-123439617D02*
X212248810Y-123401521D01*
X212248810Y-123401521D02*
X212134524Y-123401521D01*
X212134524Y-123401521D02*
X212058333Y-123439617D01*
X212058333Y-123439617D02*
X212020238Y-123515807D01*
X212020238Y-123515807D02*
X212020238Y-123934855D01*
X215487189Y-123858664D02*
X215525285Y-123896760D01*
X215525285Y-123896760D02*
X215639570Y-123934855D01*
X215639570Y-123934855D02*
X215715761Y-123934855D01*
X215715761Y-123934855D02*
X215830047Y-123896760D01*
X215830047Y-123896760D02*
X215906237Y-123820569D01*
X215906237Y-123820569D02*
X215944332Y-123744379D01*
X215944332Y-123744379D02*
X215982428Y-123591998D01*
X215982428Y-123591998D02*
X215982428Y-123477712D01*
X215982428Y-123477712D02*
X215944332Y-123325331D01*
X215944332Y-123325331D02*
X215906237Y-123249140D01*
X215906237Y-123249140D02*
X215830047Y-123172950D01*
X215830047Y-123172950D02*
X215715761Y-123134855D01*
X215715761Y-123134855D02*
X215639570Y-123134855D01*
X215639570Y-123134855D02*
X215525285Y-123172950D01*
X215525285Y-123172950D02*
X215487189Y-123211045D01*
X214763380Y-123934855D02*
X215144332Y-123934855D01*
X215144332Y-123934855D02*
X215144332Y-123134855D01*
X214496713Y-123934855D02*
X214496713Y-123134855D01*
X214039570Y-123934855D02*
X214382428Y-123477712D01*
X214039570Y-123134855D02*
X214496713Y-123591998D01*
X217843046Y-123934855D02*
X217843046Y-123134855D01*
X217309713Y-123134855D02*
X217157332Y-123134855D01*
X217157332Y-123134855D02*
X217081142Y-123172950D01*
X217081142Y-123172950D02*
X217004951Y-123249140D01*
X217004951Y-123249140D02*
X216966856Y-123401521D01*
X216966856Y-123401521D02*
X216966856Y-123668188D01*
X216966856Y-123668188D02*
X217004951Y-123820569D01*
X217004951Y-123820569D02*
X217081142Y-123896760D01*
X217081142Y-123896760D02*
X217157332Y-123934855D01*
X217157332Y-123934855D02*
X217309713Y-123934855D01*
X217309713Y-123934855D02*
X217385904Y-123896760D01*
X217385904Y-123896760D02*
X217462094Y-123820569D01*
X217462094Y-123820569D02*
X217500190Y-123668188D01*
X217500190Y-123668188D02*
X217500190Y-123401521D01*
X217500190Y-123401521D02*
X217462094Y-123249140D01*
X217462094Y-123249140D02*
X217385904Y-123172950D01*
X217385904Y-123172950D02*
X217309713Y-123134855D01*
D11*
X209168951Y-126819866D02*
X208407047Y-126819866D01*
X208787999Y-127200819D02*
X208787999Y-126438914D01*
X213526666Y-125073580D02*
X213574285Y-125121200D01*
X213574285Y-125121200D02*
X213717142Y-125168819D01*
X213717142Y-125168819D02*
X213812380Y-125168819D01*
X213812380Y-125168819D02*
X213955237Y-125121200D01*
X213955237Y-125121200D02*
X214050475Y-125025961D01*
X214050475Y-125025961D02*
X214098094Y-124930723D01*
X214098094Y-124930723D02*
X214145713Y-124740247D01*
X214145713Y-124740247D02*
X214145713Y-124597390D01*
X214145713Y-124597390D02*
X214098094Y-124406914D01*
X214098094Y-124406914D02*
X214050475Y-124311676D01*
X214050475Y-124311676D02*
X213955237Y-124216438D01*
X213955237Y-124216438D02*
X213812380Y-124168819D01*
X213812380Y-124168819D02*
X213717142Y-124168819D01*
X213717142Y-124168819D02*
X213574285Y-124216438D01*
X213574285Y-124216438D02*
X213526666Y-124264057D01*
X212574285Y-125168819D02*
X213145713Y-125168819D01*
X212859999Y-125168819D02*
X212859999Y-124168819D01*
X212859999Y-124168819D02*
X212955237Y-124311676D01*
X212955237Y-124311676D02*
X213050475Y-124406914D01*
X213050475Y-124406914D02*
X213145713Y-124454533D01*
X213526666Y-128629580D02*
X213574285Y-128677200D01*
X213574285Y-128677200D02*
X213717142Y-128724819D01*
X213717142Y-128724819D02*
X213812380Y-128724819D01*
X213812380Y-128724819D02*
X213955237Y-128677200D01*
X213955237Y-128677200D02*
X214050475Y-128581961D01*
X214050475Y-128581961D02*
X214098094Y-128486723D01*
X214098094Y-128486723D02*
X214145713Y-128296247D01*
X214145713Y-128296247D02*
X214145713Y-128153390D01*
X214145713Y-128153390D02*
X214098094Y-127962914D01*
X214098094Y-127962914D02*
X214050475Y-127867676D01*
X214050475Y-127867676D02*
X213955237Y-127772438D01*
X213955237Y-127772438D02*
X213812380Y-127724819D01*
X213812380Y-127724819D02*
X213717142Y-127724819D01*
X213717142Y-127724819D02*
X213574285Y-127772438D01*
X213574285Y-127772438D02*
X213526666Y-127820057D01*
X212621904Y-127724819D02*
X213098094Y-127724819D01*
X213098094Y-127724819D02*
X213145713Y-128201009D01*
X213145713Y-128201009D02*
X213098094Y-128153390D01*
X213098094Y-128153390D02*
X213002856Y-128105771D01*
X213002856Y-128105771D02*
X212764761Y-128105771D01*
X212764761Y-128105771D02*
X212669523Y-128153390D01*
X212669523Y-128153390D02*
X212621904Y-128201009D01*
X212621904Y-128201009D02*
X212574285Y-128296247D01*
X212574285Y-128296247D02*
X212574285Y-128534342D01*
X212574285Y-128534342D02*
X212621904Y-128629580D01*
X212621904Y-128629580D02*
X212669523Y-128677200D01*
X212669523Y-128677200D02*
X212764761Y-128724819D01*
X212764761Y-128724819D02*
X213002856Y-128724819D01*
X213002856Y-128724819D02*
X213098094Y-128677200D01*
X213098094Y-128677200D02*
X213145713Y-128629580D01*
X209716666Y-143107580D02*
X209764285Y-143155200D01*
X209764285Y-143155200D02*
X209907142Y-143202819D01*
X209907142Y-143202819D02*
X210002380Y-143202819D01*
X210002380Y-143202819D02*
X210145237Y-143155200D01*
X210145237Y-143155200D02*
X210240475Y-143059961D01*
X210240475Y-143059961D02*
X210288094Y-142964723D01*
X210288094Y-142964723D02*
X210335713Y-142774247D01*
X210335713Y-142774247D02*
X210335713Y-142631390D01*
X210335713Y-142631390D02*
X210288094Y-142440914D01*
X210288094Y-142440914D02*
X210240475Y-142345676D01*
X210240475Y-142345676D02*
X210145237Y-142250438D01*
X210145237Y-142250438D02*
X210002380Y-142202819D01*
X210002380Y-142202819D02*
X209907142Y-142202819D01*
X209907142Y-142202819D02*
X209764285Y-142250438D01*
X209764285Y-142250438D02*
X209716666Y-142298057D01*
X208859523Y-142202819D02*
X209049999Y-142202819D01*
X209049999Y-142202819D02*
X209145237Y-142250438D01*
X209145237Y-142250438D02*
X209192856Y-142298057D01*
X209192856Y-142298057D02*
X209288094Y-142440914D01*
X209288094Y-142440914D02*
X209335713Y-142631390D01*
X209335713Y-142631390D02*
X209335713Y-143012342D01*
X209335713Y-143012342D02*
X209288094Y-143107580D01*
X209288094Y-143107580D02*
X209240475Y-143155200D01*
X209240475Y-143155200D02*
X209145237Y-143202819D01*
X209145237Y-143202819D02*
X208954761Y-143202819D01*
X208954761Y-143202819D02*
X208859523Y-143155200D01*
X208859523Y-143155200D02*
X208811904Y-143107580D01*
X208811904Y-143107580D02*
X208764285Y-143012342D01*
X208764285Y-143012342D02*
X208764285Y-142774247D01*
X208764285Y-142774247D02*
X208811904Y-142679009D01*
X208811904Y-142679009D02*
X208859523Y-142631390D01*
X208859523Y-142631390D02*
X208954761Y-142583771D01*
X208954761Y-142583771D02*
X209145237Y-142583771D01*
X209145237Y-142583771D02*
X209240475Y-142631390D01*
X209240475Y-142631390D02*
X209288094Y-142679009D01*
X209288094Y-142679009D02*
X209335713Y-142774247D01*
X214161666Y-138535580D02*
X214209285Y-138583200D01*
X214209285Y-138583200D02*
X214352142Y-138630819D01*
X214352142Y-138630819D02*
X214447380Y-138630819D01*
X214447380Y-138630819D02*
X214590237Y-138583200D01*
X214590237Y-138583200D02*
X214685475Y-138487961D01*
X214685475Y-138487961D02*
X214733094Y-138392723D01*
X214733094Y-138392723D02*
X214780713Y-138202247D01*
X214780713Y-138202247D02*
X214780713Y-138059390D01*
X214780713Y-138059390D02*
X214733094Y-137868914D01*
X214733094Y-137868914D02*
X214685475Y-137773676D01*
X214685475Y-137773676D02*
X214590237Y-137678438D01*
X214590237Y-137678438D02*
X214447380Y-137630819D01*
X214447380Y-137630819D02*
X214352142Y-137630819D01*
X214352142Y-137630819D02*
X214209285Y-137678438D01*
X214209285Y-137678438D02*
X214161666Y-137726057D01*
X213828332Y-137630819D02*
X213161666Y-137630819D01*
X213161666Y-137630819D02*
X213590237Y-138630819D01*
X216955666Y-131169580D02*
X217003285Y-131217200D01*
X217003285Y-131217200D02*
X217146142Y-131264819D01*
X217146142Y-131264819D02*
X217241380Y-131264819D01*
X217241380Y-131264819D02*
X217384237Y-131217200D01*
X217384237Y-131217200D02*
X217479475Y-131121961D01*
X217479475Y-131121961D02*
X217527094Y-131026723D01*
X217527094Y-131026723D02*
X217574713Y-130836247D01*
X217574713Y-130836247D02*
X217574713Y-130693390D01*
X217574713Y-130693390D02*
X217527094Y-130502914D01*
X217527094Y-130502914D02*
X217479475Y-130407676D01*
X217479475Y-130407676D02*
X217384237Y-130312438D01*
X217384237Y-130312438D02*
X217241380Y-130264819D01*
X217241380Y-130264819D02*
X217146142Y-130264819D01*
X217146142Y-130264819D02*
X217003285Y-130312438D01*
X217003285Y-130312438D02*
X216955666Y-130360057D01*
X216384237Y-130693390D02*
X216479475Y-130645771D01*
X216479475Y-130645771D02*
X216527094Y-130598152D01*
X216527094Y-130598152D02*
X216574713Y-130502914D01*
X216574713Y-130502914D02*
X216574713Y-130455295D01*
X216574713Y-130455295D02*
X216527094Y-130360057D01*
X216527094Y-130360057D02*
X216479475Y-130312438D01*
X216479475Y-130312438D02*
X216384237Y-130264819D01*
X216384237Y-130264819D02*
X216193761Y-130264819D01*
X216193761Y-130264819D02*
X216098523Y-130312438D01*
X216098523Y-130312438D02*
X216050904Y-130360057D01*
X216050904Y-130360057D02*
X216003285Y-130455295D01*
X216003285Y-130455295D02*
X216003285Y-130502914D01*
X216003285Y-130502914D02*
X216050904Y-130598152D01*
X216050904Y-130598152D02*
X216098523Y-130645771D01*
X216098523Y-130645771D02*
X216193761Y-130693390D01*
X216193761Y-130693390D02*
X216384237Y-130693390D01*
X216384237Y-130693390D02*
X216479475Y-130741009D01*
X216479475Y-130741009D02*
X216527094Y-130788628D01*
X216527094Y-130788628D02*
X216574713Y-130883866D01*
X216574713Y-130883866D02*
X216574713Y-131074342D01*
X216574713Y-131074342D02*
X216527094Y-131169580D01*
X216527094Y-131169580D02*
X216479475Y-131217200D01*
X216479475Y-131217200D02*
X216384237Y-131264819D01*
X216384237Y-131264819D02*
X216193761Y-131264819D01*
X216193761Y-131264819D02*
X216098523Y-131217200D01*
X216098523Y-131217200D02*
X216050904Y-131169580D01*
X216050904Y-131169580D02*
X216003285Y-131074342D01*
X216003285Y-131074342D02*
X216003285Y-130883866D01*
X216003285Y-130883866D02*
X216050904Y-130788628D01*
X216050904Y-130788628D02*
X216098523Y-130741009D01*
X216098523Y-130741009D02*
X216193761Y-130693390D01*
X214161666Y-142345580D02*
X214209285Y-142393200D01*
X214209285Y-142393200D02*
X214352142Y-142440819D01*
X214352142Y-142440819D02*
X214447380Y-142440819D01*
X214447380Y-142440819D02*
X214590237Y-142393200D01*
X214590237Y-142393200D02*
X214685475Y-142297961D01*
X214685475Y-142297961D02*
X214733094Y-142202723D01*
X214733094Y-142202723D02*
X214780713Y-142012247D01*
X214780713Y-142012247D02*
X214780713Y-141869390D01*
X214780713Y-141869390D02*
X214733094Y-141678914D01*
X214733094Y-141678914D02*
X214685475Y-141583676D01*
X214685475Y-141583676D02*
X214590237Y-141488438D01*
X214590237Y-141488438D02*
X214447380Y-141440819D01*
X214447380Y-141440819D02*
X214352142Y-141440819D01*
X214352142Y-141440819D02*
X214209285Y-141488438D01*
X214209285Y-141488438D02*
X214161666Y-141536057D01*
X213685475Y-142440819D02*
X213494999Y-142440819D01*
X213494999Y-142440819D02*
X213399761Y-142393200D01*
X213399761Y-142393200D02*
X213352142Y-142345580D01*
X213352142Y-142345580D02*
X213256904Y-142202723D01*
X213256904Y-142202723D02*
X213209285Y-142012247D01*
X213209285Y-142012247D02*
X213209285Y-141631295D01*
X213209285Y-141631295D02*
X213256904Y-141536057D01*
X213256904Y-141536057D02*
X213304523Y-141488438D01*
X213304523Y-141488438D02*
X213399761Y-141440819D01*
X213399761Y-141440819D02*
X213590237Y-141440819D01*
X213590237Y-141440819D02*
X213685475Y-141488438D01*
X213685475Y-141488438D02*
X213733094Y-141536057D01*
X213733094Y-141536057D02*
X213780713Y-141631295D01*
X213780713Y-141631295D02*
X213780713Y-141869390D01*
X213780713Y-141869390D02*
X213733094Y-141964628D01*
X213733094Y-141964628D02*
X213685475Y-142012247D01*
X213685475Y-142012247D02*
X213590237Y-142059866D01*
X213590237Y-142059866D02*
X213399761Y-142059866D01*
X213399761Y-142059866D02*
X213304523Y-142012247D01*
X213304523Y-142012247D02*
X213256904Y-141964628D01*
X213256904Y-141964628D02*
X213209285Y-141869390D01*
X217939857Y-133709580D02*
X217987476Y-133757200D01*
X217987476Y-133757200D02*
X218130333Y-133804819D01*
X218130333Y-133804819D02*
X218225571Y-133804819D01*
X218225571Y-133804819D02*
X218368428Y-133757200D01*
X218368428Y-133757200D02*
X218463666Y-133661961D01*
X218463666Y-133661961D02*
X218511285Y-133566723D01*
X218511285Y-133566723D02*
X218558904Y-133376247D01*
X218558904Y-133376247D02*
X218558904Y-133233390D01*
X218558904Y-133233390D02*
X218511285Y-133042914D01*
X218511285Y-133042914D02*
X218463666Y-132947676D01*
X218463666Y-132947676D02*
X218368428Y-132852438D01*
X218368428Y-132852438D02*
X218225571Y-132804819D01*
X218225571Y-132804819D02*
X218130333Y-132804819D01*
X218130333Y-132804819D02*
X217987476Y-132852438D01*
X217987476Y-132852438D02*
X217939857Y-132900057D01*
X216987476Y-133804819D02*
X217558904Y-133804819D01*
X217273190Y-133804819D02*
X217273190Y-132804819D01*
X217273190Y-132804819D02*
X217368428Y-132947676D01*
X217368428Y-132947676D02*
X217463666Y-133042914D01*
X217463666Y-133042914D02*
X217558904Y-133090533D01*
X216368428Y-132804819D02*
X216273190Y-132804819D01*
X216273190Y-132804819D02*
X216177952Y-132852438D01*
X216177952Y-132852438D02*
X216130333Y-132900057D01*
X216130333Y-132900057D02*
X216082714Y-132995295D01*
X216082714Y-132995295D02*
X216035095Y-133185771D01*
X216035095Y-133185771D02*
X216035095Y-133423866D01*
X216035095Y-133423866D02*
X216082714Y-133614342D01*
X216082714Y-133614342D02*
X216130333Y-133709580D01*
X216130333Y-133709580D02*
X216177952Y-133757200D01*
X216177952Y-133757200D02*
X216273190Y-133804819D01*
X216273190Y-133804819D02*
X216368428Y-133804819D01*
X216368428Y-133804819D02*
X216463666Y-133757200D01*
X216463666Y-133757200D02*
X216511285Y-133709580D01*
X216511285Y-133709580D02*
X216558904Y-133614342D01*
X216558904Y-133614342D02*
X216606523Y-133423866D01*
X216606523Y-133423866D02*
X216606523Y-133185771D01*
X216606523Y-133185771D02*
X216558904Y-132995295D01*
X216558904Y-132995295D02*
X216511285Y-132900057D01*
X216511285Y-132900057D02*
X216463666Y-132852438D01*
X216463666Y-132852438D02*
X216368428Y-132804819D01*
X215685666Y-136344819D02*
X216018999Y-135868628D01*
X216257094Y-136344819D02*
X216257094Y-135344819D01*
X216257094Y-135344819D02*
X215876142Y-135344819D01*
X215876142Y-135344819D02*
X215780904Y-135392438D01*
X215780904Y-135392438D02*
X215733285Y-135440057D01*
X215733285Y-135440057D02*
X215685666Y-135535295D01*
X215685666Y-135535295D02*
X215685666Y-135678152D01*
X215685666Y-135678152D02*
X215733285Y-135773390D01*
X215733285Y-135773390D02*
X215780904Y-135821009D01*
X215780904Y-135821009D02*
X215876142Y-135868628D01*
X215876142Y-135868628D02*
X216257094Y-135868628D01*
X215304713Y-135440057D02*
X215257094Y-135392438D01*
X215257094Y-135392438D02*
X215161856Y-135344819D01*
X215161856Y-135344819D02*
X214923761Y-135344819D01*
X214923761Y-135344819D02*
X214828523Y-135392438D01*
X214828523Y-135392438D02*
X214780904Y-135440057D01*
X214780904Y-135440057D02*
X214733285Y-135535295D01*
X214733285Y-135535295D02*
X214733285Y-135630533D01*
X214733285Y-135630533D02*
X214780904Y-135773390D01*
X214780904Y-135773390D02*
X215352332Y-136344819D01*
X215352332Y-136344819D02*
X214733285Y-136344819D01*
%TO.C,C1*%
D10*
X209460000Y-125315000D02*
X214960000Y-125315000D01*
X209460000Y-127415000D02*
X209460000Y-125315000D01*
X209460000Y-127415000D02*
X214960000Y-127415000D01*
%TO.C,C5*%
X209685000Y-128055000D02*
X210685000Y-128055000D01*
X210685000Y-129755000D02*
X209685000Y-129755000D01*
%TO.C,C6*%
X208700000Y-140200000D02*
X208700000Y-139200000D01*
X210400000Y-139200000D02*
X210400000Y-140200000D01*
%TO.C,C7*%
X211240000Y-140200000D02*
X211240000Y-139200000D01*
X212940000Y-139200000D02*
X212940000Y-140200000D01*
%TO.C,C8*%
X212860000Y-129960000D02*
X213860000Y-129960000D01*
X213860000Y-131660000D02*
X212860000Y-131660000D01*
%TO.C,C9*%
X212860000Y-142660000D02*
X213860000Y-142660000D01*
X213860000Y-144360000D02*
X212860000Y-144360000D01*
%TO.C,C10*%
X212860000Y-132500000D02*
X213860000Y-132500000D01*
X213860000Y-134200000D02*
X212860000Y-134200000D01*
%TO.C,R2*%
X211490000Y-136770000D02*
X212690000Y-136770000D01*
X212690000Y-135010000D02*
X211490000Y-135010000D01*
%TD*%
M02*
