M48
; DRILL file KiCad 10.0.3 date 2026-06-15T15:18:31
; FORMAT={-:-/ absolute / metric / decimal}
; #@! TF.CreationDate,2026-06-15T15:18:31+05:30
; #@! TF.GenerationSoftware,Kicad,Pcbnew,10.0.3
; #@! TF.FileFunction,Plated,1,2,PTH
FMAT,2
METRIC
; #@! TA.AperFunction,Plated,PTH,ViaDrill
T1C0.400
; #@! TA.AperFunction,Plated,PTH,ComponentDrill
T2C0.500
; #@! TA.AperFunction,Plated,PTH,ComponentDrill
T3C1.000
; #@! TA.AperFunction,Plated,PTH,ComponentDrill
T4C1.100
%
G90
G05
T1
X209.169Y-134.366
X210.566Y-124.714
X210.756Y-137.16
X211.455Y-144.272
X212.979Y-128.778
X213.106Y-132.207
X214.884Y-132.08
X215.138Y-144.272
X215.646Y-124.968
X218.821Y-138.938
X219.583Y-141.224
T2
X208.788Y-132.969
X210.132Y-131.625
T3
X205.74Y-124.46
X205.74Y-127.0
X205.74Y-129.54
X205.74Y-132.08
X205.74Y-134.62
X205.74Y-137.16
X205.74Y-139.7
X205.74Y-142.24
X205.74Y-144.78
X205.74Y-147.32
X205.74Y-149.86
X205.74Y-152.4
X209.55Y-121.92
X212.09Y-121.92
X214.63Y-121.92
X217.17Y-121.92
X220.98Y-124.46
X220.98Y-127.0
X220.98Y-129.54
X220.98Y-132.08
X220.98Y-134.62
X220.98Y-137.16
X220.98Y-139.7
X220.98Y-142.24
X220.98Y-144.78
X220.98Y-147.32
X220.98Y-149.86
X220.98Y-152.4
T4
X210.035Y-147.9
X210.035Y-152.4
X216.535Y-147.9
X216.535Y-152.4
M30
