%TF.GenerationSoftware,KiCad,Pcbnew,9.0.6*%
%TF.CreationDate,2026-05-16T23:07:52+05:30*%
%TF.ProjectId,AeroFusion Dev Board,4165726f-4675-4736-996f-6e2044657620,1*%
%TF.SameCoordinates,Original*%
%TF.FileFunction,Drillmap*%
%TF.FilePolarity,Positive*%
%FSLAX45Y45*%
G04 Gerber Fmt 4.5, Leading zero omitted, Abs format (unit mm)*
G04 Created by KiCad (PCBNEW 9.0.6) date 2026-05-16 23:07:52*
%MOMM*%
%LPD*%
G01*
G04 APERTURE LIST*
%ADD10C,0.100000*%
%ADD11C,0.200000*%
G04 APERTURE END LIST*
D10*
X11500000Y-12400000D02*
G75*
G02*
X11000000Y-11900000I0J500000D01*
G01*
X11500000Y-12400000D02*
X15500000Y-12400000D01*
X16000000Y-11900000D02*
G75*
G02*
X15500000Y-12400000I-500000J0D01*
G01*
X11000000Y-7900000D02*
X11000000Y-11900000D01*
X15500000Y-7400000D02*
G75*
G02*
X16000000Y-7900000I0J-500000D01*
G01*
X11000000Y-7900000D02*
G75*
G02*
X11500000Y-7400000I500000J0D01*
G01*
X16000000Y-11900000D02*
X16000000Y-7900000D01*
X11500000Y-7400000D02*
X15500000Y-7400000D01*
D11*
X11255777Y-12716484D02*
X11255777Y-12516484D01*
X11255777Y-12516484D02*
X11303396Y-12516484D01*
X11303396Y-12516484D02*
X11331967Y-12526008D01*
X11331967Y-12526008D02*
X11351015Y-12545055D01*
X11351015Y-12545055D02*
X11360539Y-12564103D01*
X11360539Y-12564103D02*
X11370062Y-12602198D01*
X11370062Y-12602198D02*
X11370062Y-12630769D01*
X11370062Y-12630769D02*
X11360539Y-12668865D01*
X11360539Y-12668865D02*
X11351015Y-12687912D01*
X11351015Y-12687912D02*
X11331967Y-12706960D01*
X11331967Y-12706960D02*
X11303396Y-12716484D01*
X11303396Y-12716484D02*
X11255777Y-12716484D01*
X11455777Y-12716484D02*
X11455777Y-12583150D01*
X11455777Y-12621246D02*
X11465301Y-12602198D01*
X11465301Y-12602198D02*
X11474824Y-12592674D01*
X11474824Y-12592674D02*
X11493872Y-12583150D01*
X11493872Y-12583150D02*
X11512920Y-12583150D01*
X11579586Y-12716484D02*
X11579586Y-12583150D01*
X11579586Y-12516484D02*
X11570062Y-12526008D01*
X11570062Y-12526008D02*
X11579586Y-12535531D01*
X11579586Y-12535531D02*
X11589110Y-12526008D01*
X11589110Y-12526008D02*
X11579586Y-12516484D01*
X11579586Y-12516484D02*
X11579586Y-12535531D01*
X11703396Y-12716484D02*
X11684348Y-12706960D01*
X11684348Y-12706960D02*
X11674824Y-12687912D01*
X11674824Y-12687912D02*
X11674824Y-12516484D01*
X11808158Y-12716484D02*
X11789110Y-12706960D01*
X11789110Y-12706960D02*
X11779586Y-12687912D01*
X11779586Y-12687912D02*
X11779586Y-12516484D01*
X12036729Y-12716484D02*
X12036729Y-12516484D01*
X12036729Y-12516484D02*
X12103396Y-12659341D01*
X12103396Y-12659341D02*
X12170062Y-12516484D01*
X12170062Y-12516484D02*
X12170062Y-12716484D01*
X12351015Y-12716484D02*
X12351015Y-12611722D01*
X12351015Y-12611722D02*
X12341491Y-12592674D01*
X12341491Y-12592674D02*
X12322443Y-12583150D01*
X12322443Y-12583150D02*
X12284348Y-12583150D01*
X12284348Y-12583150D02*
X12265301Y-12592674D01*
X12351015Y-12706960D02*
X12331967Y-12716484D01*
X12331967Y-12716484D02*
X12284348Y-12716484D01*
X12284348Y-12716484D02*
X12265301Y-12706960D01*
X12265301Y-12706960D02*
X12255777Y-12687912D01*
X12255777Y-12687912D02*
X12255777Y-12668865D01*
X12255777Y-12668865D02*
X12265301Y-12649817D01*
X12265301Y-12649817D02*
X12284348Y-12640293D01*
X12284348Y-12640293D02*
X12331967Y-12640293D01*
X12331967Y-12640293D02*
X12351015Y-12630769D01*
X12446253Y-12583150D02*
X12446253Y-12783150D01*
X12446253Y-12592674D02*
X12465301Y-12583150D01*
X12465301Y-12583150D02*
X12503396Y-12583150D01*
X12503396Y-12583150D02*
X12522443Y-12592674D01*
X12522443Y-12592674D02*
X12531967Y-12602198D01*
X12531967Y-12602198D02*
X12541491Y-12621246D01*
X12541491Y-12621246D02*
X12541491Y-12678388D01*
X12541491Y-12678388D02*
X12531967Y-12697436D01*
X12531967Y-12697436D02*
X12522443Y-12706960D01*
X12522443Y-12706960D02*
X12503396Y-12716484D01*
X12503396Y-12716484D02*
X12465301Y-12716484D01*
X12465301Y-12716484D02*
X12446253Y-12706960D01*
X12627205Y-12697436D02*
X12636729Y-12706960D01*
X12636729Y-12706960D02*
X12627205Y-12716484D01*
X12627205Y-12716484D02*
X12617682Y-12706960D01*
X12617682Y-12706960D02*
X12627205Y-12697436D01*
X12627205Y-12697436D02*
X12627205Y-12716484D01*
X12627205Y-12592674D02*
X12636729Y-12602198D01*
X12636729Y-12602198D02*
X12627205Y-12611722D01*
X12627205Y-12611722D02*
X12617682Y-12602198D01*
X12617682Y-12602198D02*
X12627205Y-12592674D01*
X12627205Y-12592674D02*
X12627205Y-12611722D01*
M02*
