%TF.GenerationSoftware,KiCad,Pcbnew,9.0.6*%
%TF.CreationDate,2026-05-16T23:07:52+05:30*%
%TF.ProjectId,AeroFusion Dev Board,4165726f-4675-4736-996f-6e2044657620,1*%
%TF.SameCoordinates,Original*%
%TF.FileFunction,Drillmap*%
%TF.FilePolarity,Positive*%
%FSLAX45Y45*%
G04 Gerber Fmt 4.5, Leading zero omitted, Abs format (unit mm)*
G04 Created by KiCad (PCBNEW 9.0.6) date 2026-05-16 23:07:52*
%MOMM*%
%LPD*%
G01*
G04 APERTURE LIST*
%ADD10C,0.100000*%
%ADD11C,0.200000*%
%ADD12C,0.430000*%
G04 APERTURE END LIST*
D10*
X11500000Y-12400000D02*
G75*
G02*
X11000000Y-11900000I0J500000D01*
G01*
X11500000Y-12400000D02*
X15500000Y-12400000D01*
X16000000Y-11900000D02*
G75*
G02*
X15500000Y-12400000I-500000J0D01*
G01*
X11000000Y-7900000D02*
X11000000Y-11900000D01*
X15500000Y-7400000D02*
G75*
G02*
X16000000Y-7900000I0J-500000D01*
G01*
X11000000Y-7900000D02*
G75*
G02*
X11500000Y-7400000I500000J0D01*
G01*
X16000000Y-11900000D02*
X16000000Y-7900000D01*
X11500000Y-7400000D02*
X15500000Y-7400000D01*
D11*
D10*
X11190000Y-8690000D02*
X11210000Y-8710000D01*
X11210000Y-8690000D02*
X11190000Y-8710000D01*
X11390000Y-10890000D02*
X11410000Y-10910000D01*
X11410000Y-10890000D02*
X11390000Y-10910000D01*
X11390000Y-11190000D02*
X11410000Y-11210000D01*
X11410000Y-11190000D02*
X11390000Y-11210000D01*
X11590000Y-8690000D02*
X11610000Y-8710000D01*
X11610000Y-8690000D02*
X11590000Y-8710000D01*
X11890000Y-9690000D02*
X11910000Y-9710000D01*
X11910000Y-9690000D02*
X11890000Y-9710000D01*
X11890000Y-9990000D02*
X11910000Y-10010000D01*
X11910000Y-9990000D02*
X11890000Y-10010000D01*
X11890000Y-10290000D02*
X11910000Y-10310000D01*
X11910000Y-10290000D02*
X11890000Y-10310000D01*
X11890000Y-10590000D02*
X11910000Y-10610000D01*
X11910000Y-10590000D02*
X11890000Y-10610000D01*
X12090000Y-7690000D02*
X12110000Y-7710000D01*
X12110000Y-7690000D02*
X12090000Y-7710000D01*
X12090000Y-8290000D02*
X12110000Y-8310000D01*
X12110000Y-8290000D02*
X12090000Y-8310000D01*
X12190000Y-9090000D02*
X12210000Y-9110000D01*
X12210000Y-9090000D02*
X12190000Y-9110000D01*
X12190000Y-9390000D02*
X12210000Y-9410000D01*
X12210000Y-9390000D02*
X12190000Y-9410000D01*
X12190000Y-9690000D02*
X12210000Y-9710000D01*
X12210000Y-9690000D02*
X12190000Y-9710000D01*
X12190000Y-9990000D02*
X12210000Y-10010000D01*
X12210000Y-9990000D02*
X12190000Y-10010000D01*
X12190000Y-10290000D02*
X12210000Y-10310000D01*
X12210000Y-10290000D02*
X12190000Y-10310000D01*
X12190000Y-10590000D02*
X12210000Y-10610000D01*
X12210000Y-10590000D02*
X12190000Y-10610000D01*
X12490000Y-8290000D02*
X12510000Y-8310000D01*
X12510000Y-8290000D02*
X12490000Y-8310000D01*
X12490000Y-8690000D02*
X12510000Y-8710000D01*
X12510000Y-8690000D02*
X12490000Y-8710000D01*
X12570000Y-10290000D02*
X12590000Y-10310000D01*
X12590000Y-10290000D02*
X12570000Y-10310000D01*
X12570000Y-10750000D02*
X12590000Y-10770000D01*
X12590000Y-10750000D02*
X12570000Y-10770000D01*
X12580000Y-11140000D02*
X12600000Y-11160000D01*
X12600000Y-11140000D02*
X12580000Y-11160000D01*
X12590000Y-7690000D02*
X12610000Y-7710000D01*
X12610000Y-7690000D02*
X12590000Y-7710000D01*
X12720000Y-9720000D02*
X12740000Y-9740000D01*
X12740000Y-9720000D02*
X12720000Y-9740000D01*
X12730000Y-11650000D02*
X12750000Y-11670000D01*
X12750000Y-11650000D02*
X12730000Y-11670000D01*
X12990000Y-7690000D02*
X13010000Y-7710000D01*
X13010000Y-7690000D02*
X12990000Y-7710000D01*
X12990000Y-8290000D02*
X13010000Y-8310000D01*
X13010000Y-8290000D02*
X12990000Y-8310000D01*
X12990000Y-8480000D02*
X13010000Y-8500000D01*
X13010000Y-8480000D02*
X12990000Y-8500000D01*
X12990000Y-8690000D02*
X13010000Y-8710000D01*
X13010000Y-8690000D02*
X12990000Y-8710000D01*
X13010000Y-10650000D02*
X13030000Y-10670000D01*
X13030000Y-10650000D02*
X13010000Y-10670000D01*
X13170000Y-10810000D02*
X13190000Y-10830000D01*
X13190000Y-10810000D02*
X13170000Y-10830000D01*
X13290500Y-9960000D02*
X13310500Y-9980000D01*
X13310500Y-9960000D02*
X13290500Y-9980000D01*
X13390000Y-7690000D02*
X13410000Y-7710000D01*
X13410000Y-7690000D02*
X13390000Y-7710000D01*
X13390000Y-8290000D02*
X13410000Y-8310000D01*
X13410000Y-8290000D02*
X13390000Y-8310000D01*
X13390000Y-8480000D02*
X13410000Y-8500000D01*
X13410000Y-8480000D02*
X13390000Y-8500000D01*
X13390000Y-11480000D02*
X13410000Y-11500000D01*
X13410000Y-11480000D02*
X13390000Y-11500000D01*
X13590000Y-9490000D02*
X13610000Y-9510000D01*
X13610000Y-9490000D02*
X13590000Y-9510000D01*
X13690000Y-9290000D02*
X13710000Y-9310000D01*
X13710000Y-9290000D02*
X13690000Y-9310000D01*
X13690000Y-11300000D02*
X13710000Y-11320000D01*
X13710000Y-11300000D02*
X13690000Y-11320000D01*
X13790000Y-7690000D02*
X13810000Y-7710000D01*
X13810000Y-7690000D02*
X13790000Y-7710000D01*
X13790000Y-8290000D02*
X13810000Y-8310000D01*
X13810000Y-8290000D02*
X13790000Y-8310000D01*
X13790000Y-8480000D02*
X13810000Y-8500000D01*
X13810000Y-8480000D02*
X13790000Y-8500000D01*
X14190000Y-7690000D02*
X14210000Y-7710000D01*
X14210000Y-7690000D02*
X14190000Y-7710000D01*
X14190000Y-8290000D02*
X14210000Y-8310000D01*
X14210000Y-8290000D02*
X14190000Y-8310000D01*
X14190000Y-8690000D02*
X14210000Y-8710000D01*
X14210000Y-8690000D02*
X14190000Y-8710000D01*
X14280000Y-11300000D02*
X14300000Y-11320000D01*
X14300000Y-11300000D02*
X14280000Y-11320000D01*
X14280000Y-11590000D02*
X14300000Y-11610000D01*
X14300000Y-11590000D02*
X14280000Y-11610000D01*
X14320000Y-11450000D02*
X14340000Y-11470000D01*
X14340000Y-11450000D02*
X14320000Y-11470000D01*
X14590000Y-7690000D02*
X14610000Y-7710000D01*
X14610000Y-7690000D02*
X14590000Y-7710000D01*
X14590000Y-8290000D02*
X14610000Y-8310000D01*
X14610000Y-8290000D02*
X14590000Y-8310000D01*
X14590000Y-8690000D02*
X14610000Y-8710000D01*
X14610000Y-8690000D02*
X14590000Y-8710000D01*
X14870000Y-11260000D02*
X14890000Y-11280000D01*
X14890000Y-11260000D02*
X14870000Y-11280000D01*
X14890000Y-11590000D02*
X14910000Y-11610000D01*
X14910000Y-11590000D02*
X14890000Y-11610000D01*
X14940000Y-9590000D02*
X14960000Y-9610000D01*
X14960000Y-9590000D02*
X14940000Y-9610000D01*
X14940000Y-9790000D02*
X14960000Y-9810000D01*
X14960000Y-9790000D02*
X14940000Y-9810000D01*
X14940000Y-9990000D02*
X14960000Y-10010000D01*
X14960000Y-9990000D02*
X14940000Y-10010000D01*
X14940000Y-10970000D02*
X14960000Y-10990000D01*
X14960000Y-10970000D02*
X14940000Y-10990000D01*
X14990000Y-7690000D02*
X15010000Y-7710000D01*
X15010000Y-7690000D02*
X14990000Y-7710000D01*
X14990000Y-8290000D02*
X15010000Y-8310000D01*
X15010000Y-8290000D02*
X14990000Y-8310000D01*
X14990000Y-8690000D02*
X15010000Y-8710000D01*
X15010000Y-8690000D02*
X14990000Y-8710000D01*
X15140000Y-9590000D02*
X15160000Y-9610000D01*
X15160000Y-9590000D02*
X15140000Y-9610000D01*
X15140000Y-9790000D02*
X15160000Y-9810000D01*
X15160000Y-9790000D02*
X15140000Y-9810000D01*
X15140000Y-9990000D02*
X15160000Y-10010000D01*
X15160000Y-9990000D02*
X15140000Y-10010000D01*
X15190000Y-10990000D02*
X15210000Y-11010000D01*
X15210000Y-10990000D02*
X15190000Y-11010000D01*
X15190000Y-11320000D02*
X15210000Y-11340000D01*
X15210000Y-11320000D02*
X15190000Y-11340000D01*
X15340000Y-9590000D02*
X15360000Y-9610000D01*
X15360000Y-9590000D02*
X15340000Y-9610000D01*
X15340000Y-9790000D02*
X15360000Y-9810000D01*
X15360000Y-9790000D02*
X15340000Y-9810000D01*
X15340000Y-9990000D02*
X15360000Y-10010000D01*
X15360000Y-9990000D02*
X15340000Y-10010000D01*
X15450000Y-10990000D02*
X15470000Y-11010000D01*
X15470000Y-10990000D02*
X15450000Y-11010000D01*
X15790000Y-11190000D02*
X15810000Y-11210000D01*
X15810000Y-11190000D02*
X15790000Y-11210000D01*
X15790000Y-11490000D02*
X15810000Y-11510000D01*
X15810000Y-11490000D02*
X15790000Y-11510000D01*
X11145000Y-9780000D02*
G75*
G02*
X11115000Y-9780000I-15000J0D01*
G01*
X11115000Y-9780000D02*
G75*
G02*
X11145000Y-9780000I15000J0D01*
G01*
X11215000Y-9390000D02*
G75*
G02*
X11185000Y-9390000I-15000J0D01*
G01*
X11185000Y-9390000D02*
G75*
G02*
X11215000Y-9390000I15000J0D01*
G01*
X11235000Y-9780000D02*
G75*
G02*
X11205000Y-9780000I-15000J0D01*
G01*
X11205000Y-9780000D02*
G75*
G02*
X11235000Y-9780000I15000J0D01*
G01*
X11255000Y-9150000D02*
G75*
G02*
X11225000Y-9150000I-15000J0D01*
G01*
X11225000Y-9150000D02*
G75*
G02*
X11255000Y-9150000I15000J0D01*
G01*
X11445000Y-9395000D02*
G75*
G02*
X11415000Y-9395000I-15000J0D01*
G01*
X11415000Y-9395000D02*
G75*
G02*
X11445000Y-9395000I15000J0D01*
G01*
X11635000Y-9150000D02*
G75*
G02*
X11605000Y-9150000I-15000J0D01*
G01*
X11605000Y-9150000D02*
G75*
G02*
X11635000Y-9150000I15000J0D01*
G01*
X11895000Y-9050000D02*
G75*
G02*
X11865000Y-9050000I-15000J0D01*
G01*
X11865000Y-9050000D02*
G75*
G02*
X11895000Y-9050000I15000J0D01*
G01*
X11895000Y-9460000D02*
G75*
G02*
X11865000Y-9460000I-15000J0D01*
G01*
X11865000Y-9460000D02*
G75*
G02*
X11895000Y-9460000I15000J0D01*
G01*
X11896750Y-8773500D02*
G75*
G02*
X11866750Y-8773500I-15000J0D01*
G01*
X11866750Y-8773500D02*
G75*
G02*
X11896750Y-8773500I15000J0D01*
G01*
X11966750Y-8903500D02*
G75*
G02*
X11936750Y-8903500I-15000J0D01*
G01*
X11936750Y-8903500D02*
G75*
G02*
X11966750Y-8903500I15000J0D01*
G01*
X12025000Y-9170000D02*
G75*
G02*
X11995000Y-9170000I-15000J0D01*
G01*
X11995000Y-9170000D02*
G75*
G02*
X12025000Y-9170000I15000J0D01*
G01*
X12025000Y-9325000D02*
G75*
G02*
X11995000Y-9325000I-15000J0D01*
G01*
X11995000Y-9325000D02*
G75*
G02*
X12025000Y-9325000I15000J0D01*
G01*
X12066750Y-9013500D02*
G75*
G02*
X12036750Y-9013500I-15000J0D01*
G01*
X12036750Y-9013500D02*
G75*
G02*
X12066750Y-9013500I15000J0D01*
G01*
X12495000Y-9560000D02*
G75*
G02*
X12465000Y-9560000I-15000J0D01*
G01*
X12465000Y-9560000D02*
G75*
G02*
X12495000Y-9560000I15000J0D01*
G01*
X12495000Y-9840000D02*
G75*
G02*
X12465000Y-9840000I-15000J0D01*
G01*
X12465000Y-9840000D02*
G75*
G02*
X12495000Y-9840000I15000J0D01*
G01*
X12795000Y-9210000D02*
G75*
G02*
X12765000Y-9210000I-15000J0D01*
G01*
X12765000Y-9210000D02*
G75*
G02*
X12795000Y-9210000I15000J0D01*
G01*
X12875000Y-9310000D02*
G75*
G02*
X12845000Y-9310000I-15000J0D01*
G01*
X12845000Y-9310000D02*
G75*
G02*
X12875000Y-9310000I15000J0D01*
G01*
X13137500Y-10147500D02*
G75*
G02*
X13107500Y-10147500I-15000J0D01*
G01*
X13107500Y-10147500D02*
G75*
G02*
X13137500Y-10147500I15000J0D01*
G01*
X13222306Y-9732550D02*
G75*
G02*
X13192306Y-9732550I-15000J0D01*
G01*
X13192306Y-9732550D02*
G75*
G02*
X13222306Y-9732550I15000J0D01*
G01*
X13225000Y-9340000D02*
G75*
G02*
X13195000Y-9340000I-15000J0D01*
G01*
X13195000Y-9340000D02*
G75*
G02*
X13225000Y-9340000I15000J0D01*
G01*
X13235000Y-10147500D02*
G75*
G02*
X13205000Y-10147500I-15000J0D01*
G01*
X13205000Y-10147500D02*
G75*
G02*
X13235000Y-10147500I15000J0D01*
G01*
X13327500Y-10057500D02*
G75*
G02*
X13297500Y-10057500I-15000J0D01*
G01*
X13297500Y-10057500D02*
G75*
G02*
X13327500Y-10057500I15000J0D01*
G01*
X13327500Y-10147500D02*
G75*
G02*
X13297500Y-10147500I-15000J0D01*
G01*
X13297500Y-10147500D02*
G75*
G02*
X13327500Y-10147500I15000J0D01*
G01*
X13375000Y-10650000D02*
G75*
G02*
X13345000Y-10650000I-15000J0D01*
G01*
X13345000Y-10650000D02*
G75*
G02*
X13375000Y-10650000I15000J0D01*
G01*
X13425000Y-10147500D02*
G75*
G02*
X13395000Y-10147500I-15000J0D01*
G01*
X13395000Y-10147500D02*
G75*
G02*
X13425000Y-10147500I15000J0D01*
G01*
X13755000Y-8950000D02*
G75*
G02*
X13725000Y-8950000I-15000J0D01*
G01*
X13725000Y-8950000D02*
G75*
G02*
X13755000Y-8950000I15000J0D01*
G01*
X13811000Y-10068000D02*
G75*
G02*
X13781000Y-10068000I-15000J0D01*
G01*
X13781000Y-10068000D02*
G75*
G02*
X13811000Y-10068000I15000J0D01*
G01*
X13985000Y-9330000D02*
G75*
G02*
X13955000Y-9330000I-15000J0D01*
G01*
X13955000Y-9330000D02*
G75*
G02*
X13985000Y-9330000I15000J0D01*
G01*
X14755000Y-11090000D02*
G75*
G02*
X14725000Y-11090000I-15000J0D01*
G01*
X14725000Y-11090000D02*
G75*
G02*
X14755000Y-11090000I15000J0D01*
G01*
X15195000Y-8537000D02*
G75*
G02*
X15165000Y-8537000I-15000J0D01*
G01*
X15165000Y-8537000D02*
G75*
G02*
X15195000Y-8537000I15000J0D01*
G01*
X15790000Y-8860000D02*
G75*
G02*
X15760000Y-8860000I-15000J0D01*
G01*
X15760000Y-8860000D02*
G75*
G02*
X15790000Y-8860000I15000J0D01*
G01*
X15915000Y-8860000D02*
G75*
G02*
X15885000Y-8860000I-15000J0D01*
G01*
X15885000Y-8860000D02*
G75*
G02*
X15915000Y-8860000I15000J0D01*
G01*
X15915000Y-10940000D02*
G75*
G02*
X15885000Y-10940000I-15000J0D01*
G01*
X15885000Y-10940000D02*
G75*
G02*
X15915000Y-10940000I15000J0D01*
G01*
X11177500Y-7870000D02*
X11177500Y-7930000D01*
X11147500Y-7900000D02*
X11207500Y-7900000D01*
X11177500Y-11870000D02*
X11177500Y-11930000D01*
X11147500Y-11900000D02*
X11207500Y-11900000D01*
X11271958Y-7641958D02*
X11271958Y-7701958D01*
X11241958Y-7671958D02*
X11301958Y-7671958D01*
X11271958Y-8098042D02*
X11271958Y-8158042D01*
X11241958Y-8128042D02*
X11301958Y-8128042D01*
X11271958Y-11641958D02*
X11271958Y-11701958D01*
X11241958Y-11671958D02*
X11301958Y-11671958D01*
X11271958Y-12098042D02*
X11271958Y-12158042D01*
X11241958Y-12128042D02*
X11301958Y-12128042D01*
X11500000Y-7547500D02*
X11500000Y-7607500D01*
X11470000Y-7577500D02*
X11530000Y-7577500D01*
X11500000Y-8192500D02*
X11500000Y-8252500D01*
X11470000Y-8222500D02*
X11530000Y-8222500D01*
X11500000Y-11547500D02*
X11500000Y-11607500D01*
X11470000Y-11577500D02*
X11530000Y-11577500D01*
X11500000Y-12192500D02*
X11500000Y-12252500D01*
X11470000Y-12222500D02*
X11530000Y-12222500D01*
X11728042Y-7641958D02*
X11728042Y-7701958D01*
X11698042Y-7671958D02*
X11758042Y-7671958D01*
X11728042Y-8098042D02*
X11728042Y-8158042D01*
X11698042Y-8128042D02*
X11758042Y-8128042D01*
X11728042Y-11641958D02*
X11728042Y-11701958D01*
X11698042Y-11671958D02*
X11758042Y-11671958D01*
X11728042Y-12098042D02*
X11728042Y-12158042D01*
X11698042Y-12128042D02*
X11758042Y-12128042D01*
X11822500Y-7870000D02*
X11822500Y-7930000D01*
X11792500Y-7900000D02*
X11852500Y-7900000D01*
X11822500Y-11870000D02*
X11822500Y-11930000D01*
X11792500Y-11900000D02*
X11852500Y-11900000D01*
X15177500Y-7870000D02*
X15177500Y-7930000D01*
X15147500Y-7900000D02*
X15207500Y-7900000D01*
X15177500Y-11870000D02*
X15177500Y-11930000D01*
X15147500Y-11900000D02*
X15207500Y-11900000D01*
X15271958Y-7641958D02*
X15271958Y-7701958D01*
X15241958Y-7671958D02*
X15301958Y-7671958D01*
X15271958Y-8098042D02*
X15271958Y-8158042D01*
X15241958Y-8128042D02*
X15301958Y-8128042D01*
X15271958Y-11641958D02*
X15271958Y-11701958D01*
X15241958Y-11671958D02*
X15301958Y-11671958D01*
X15271958Y-12098042D02*
X15271958Y-12158042D01*
X15241958Y-12128042D02*
X15301958Y-12128042D01*
X15500000Y-7547500D02*
X15500000Y-7607500D01*
X15470000Y-7577500D02*
X15530000Y-7577500D01*
X15500000Y-8192500D02*
X15500000Y-8252500D01*
X15470000Y-8222500D02*
X15530000Y-8222500D01*
X15500000Y-11547500D02*
X15500000Y-11607500D01*
X15470000Y-11577500D02*
X15530000Y-11577500D01*
X15500000Y-12192500D02*
X15500000Y-12252500D01*
X15470000Y-12222500D02*
X15530000Y-12222500D01*
X15728042Y-7641958D02*
X15728042Y-7701958D01*
X15698042Y-7671958D02*
X15758042Y-7671958D01*
X15728042Y-8098042D02*
X15728042Y-8158042D01*
X15698042Y-8128042D02*
X15758042Y-8128042D01*
X15728042Y-11641958D02*
X15728042Y-11701958D01*
X15698042Y-11671958D02*
X15758042Y-11671958D01*
X15728042Y-12098042D02*
X15728042Y-12158042D01*
X15698042Y-12128042D02*
X15758042Y-12128042D01*
X15822500Y-7870000D02*
X15822500Y-7930000D01*
X15792500Y-7900000D02*
X15852500Y-7900000D01*
X15822500Y-11870000D02*
X15822500Y-11930000D01*
X15792500Y-11900000D02*
X15852500Y-11900000D01*
X12643588Y-7978588D02*
X12643588Y-7911412D01*
X12576412Y-7911412D01*
X12576412Y-7978588D01*
X12643588Y-7978588D01*
X12653588Y-11883588D02*
X12653588Y-11816412D01*
X12586412Y-11816412D01*
X12586412Y-11883588D01*
X12653588Y-11883588D01*
X12893588Y-7978588D02*
X12893588Y-7911412D01*
X12826412Y-7911412D01*
X12826412Y-7978588D01*
X12893588Y-7978588D01*
X12903588Y-11883588D02*
X12903588Y-11816412D01*
X12836412Y-11816412D01*
X12836412Y-11883588D01*
X12903588Y-11883588D01*
X13143588Y-7978588D02*
X13143588Y-7911412D01*
X13076412Y-7911412D01*
X13076412Y-7978588D01*
X13143588Y-7978588D01*
X13153588Y-11883588D02*
X13153588Y-11816412D01*
X13086412Y-11816412D01*
X13086412Y-11883588D01*
X13153588Y-11883588D01*
X13923588Y-7978588D02*
X13923588Y-7911412D01*
X13856412Y-7911412D01*
X13856412Y-7978588D01*
X13923588Y-7978588D01*
X13933588Y-11883588D02*
X13933588Y-11816412D01*
X13866412Y-11816412D01*
X13866412Y-11883588D01*
X13933588Y-11883588D01*
X14173588Y-7978588D02*
X14173588Y-7911412D01*
X14106412Y-7911412D01*
X14106412Y-7978588D01*
X14173588Y-7978588D01*
X14183588Y-11883588D02*
X14183588Y-11816412D01*
X14116412Y-11816412D01*
X14116412Y-11883588D01*
X14183588Y-11883588D01*
X14423588Y-7978588D02*
X14423588Y-7911412D01*
X14356412Y-7911412D01*
X14356412Y-7978588D01*
X14423588Y-7978588D01*
X14433588Y-11883588D02*
X14433588Y-11816412D01*
X14366412Y-11816412D01*
X14366412Y-11883588D01*
X14433588Y-11883588D01*
X11545000Y-10225000D02*
X11595000Y-10175000D01*
X11545000Y-10125000D01*
X11495000Y-10175000D01*
X11545000Y-10225000D01*
X11545000Y-10475000D02*
X11595000Y-10425000D01*
X11545000Y-10375000D01*
X11495000Y-10425000D01*
X11545000Y-10475000D01*
D12*
X11285000Y-7685000D02*
X11715000Y-8115000D01*
X11715000Y-7685000D02*
X11285000Y-8115000D01*
X11715000Y-7900000D02*
G75*
G02*
X11285000Y-7900000I-215000J0D01*
G01*
X11285000Y-7900000D02*
G75*
G02*
X11715000Y-7900000I215000J0D01*
G01*
X11285000Y-11685000D02*
X11715000Y-12115000D01*
X11715000Y-11685000D02*
X11285000Y-12115000D01*
X11715000Y-11900000D02*
G75*
G02*
X11285000Y-11900000I-215000J0D01*
G01*
X11285000Y-11900000D02*
G75*
G02*
X11715000Y-11900000I215000J0D01*
G01*
X15285000Y-7685000D02*
X15715000Y-8115000D01*
X15715000Y-7685000D02*
X15285000Y-8115000D01*
X15715000Y-7900000D02*
G75*
G02*
X15285000Y-7900000I-215000J0D01*
G01*
X15285000Y-7900000D02*
G75*
G02*
X15715000Y-7900000I215000J0D01*
G01*
X15285000Y-11685000D02*
X15715000Y-12115000D01*
X15715000Y-11685000D02*
X15285000Y-12115000D01*
X15715000Y-11900000D02*
G75*
G02*
X15285000Y-11900000I-215000J0D01*
G01*
X15285000Y-11900000D02*
G75*
G02*
X15715000Y-11900000I215000J0D01*
G01*
D11*
X11255777Y-12716484D02*
X11255777Y-12516484D01*
X11255777Y-12516484D02*
X11303396Y-12516484D01*
X11303396Y-12516484D02*
X11331967Y-12526008D01*
X11331967Y-12526008D02*
X11351015Y-12545055D01*
X11351015Y-12545055D02*
X11360539Y-12564103D01*
X11360539Y-12564103D02*
X11370062Y-12602198D01*
X11370062Y-12602198D02*
X11370062Y-12630769D01*
X11370062Y-12630769D02*
X11360539Y-12668865D01*
X11360539Y-12668865D02*
X11351015Y-12687912D01*
X11351015Y-12687912D02*
X11331967Y-12706960D01*
X11331967Y-12706960D02*
X11303396Y-12716484D01*
X11303396Y-12716484D02*
X11255777Y-12716484D01*
X11455777Y-12716484D02*
X11455777Y-12583150D01*
X11455777Y-12621246D02*
X11465301Y-12602198D01*
X11465301Y-12602198D02*
X11474824Y-12592674D01*
X11474824Y-12592674D02*
X11493872Y-12583150D01*
X11493872Y-12583150D02*
X11512920Y-12583150D01*
X11579586Y-12716484D02*
X11579586Y-12583150D01*
X11579586Y-12516484D02*
X11570062Y-12526008D01*
X11570062Y-12526008D02*
X11579586Y-12535531D01*
X11579586Y-12535531D02*
X11589110Y-12526008D01*
X11589110Y-12526008D02*
X11579586Y-12516484D01*
X11579586Y-12516484D02*
X11579586Y-12535531D01*
X11703396Y-12716484D02*
X11684348Y-12706960D01*
X11684348Y-12706960D02*
X11674824Y-12687912D01*
X11674824Y-12687912D02*
X11674824Y-12516484D01*
X11808158Y-12716484D02*
X11789110Y-12706960D01*
X11789110Y-12706960D02*
X11779586Y-12687912D01*
X11779586Y-12687912D02*
X11779586Y-12516484D01*
X12036729Y-12716484D02*
X12036729Y-12516484D01*
X12036729Y-12516484D02*
X12103396Y-12659341D01*
X12103396Y-12659341D02*
X12170062Y-12516484D01*
X12170062Y-12516484D02*
X12170062Y-12716484D01*
X12351015Y-12716484D02*
X12351015Y-12611722D01*
X12351015Y-12611722D02*
X12341491Y-12592674D01*
X12341491Y-12592674D02*
X12322443Y-12583150D01*
X12322443Y-12583150D02*
X12284348Y-12583150D01*
X12284348Y-12583150D02*
X12265301Y-12592674D01*
X12351015Y-12706960D02*
X12331967Y-12716484D01*
X12331967Y-12716484D02*
X12284348Y-12716484D01*
X12284348Y-12716484D02*
X12265301Y-12706960D01*
X12265301Y-12706960D02*
X12255777Y-12687912D01*
X12255777Y-12687912D02*
X12255777Y-12668865D01*
X12255777Y-12668865D02*
X12265301Y-12649817D01*
X12265301Y-12649817D02*
X12284348Y-12640293D01*
X12284348Y-12640293D02*
X12331967Y-12640293D01*
X12331967Y-12640293D02*
X12351015Y-12630769D01*
X12446253Y-12583150D02*
X12446253Y-12783150D01*
X12446253Y-12592674D02*
X12465301Y-12583150D01*
X12465301Y-12583150D02*
X12503396Y-12583150D01*
X12503396Y-12583150D02*
X12522443Y-12592674D01*
X12522443Y-12592674D02*
X12531967Y-12602198D01*
X12531967Y-12602198D02*
X12541491Y-12621246D01*
X12541491Y-12621246D02*
X12541491Y-12678388D01*
X12541491Y-12678388D02*
X12531967Y-12697436D01*
X12531967Y-12697436D02*
X12522443Y-12706960D01*
X12522443Y-12706960D02*
X12503396Y-12716484D01*
X12503396Y-12716484D02*
X12465301Y-12716484D01*
X12465301Y-12716484D02*
X12446253Y-12706960D01*
X12627205Y-12697436D02*
X12636729Y-12706960D01*
X12636729Y-12706960D02*
X12627205Y-12716484D01*
X12627205Y-12716484D02*
X12617682Y-12706960D01*
X12617682Y-12706960D02*
X12627205Y-12697436D01*
X12627205Y-12697436D02*
X12627205Y-12716484D01*
X12627205Y-12592674D02*
X12636729Y-12602198D01*
X12636729Y-12602198D02*
X12627205Y-12611722D01*
X12627205Y-12611722D02*
X12617682Y-12602198D01*
X12617682Y-12602198D02*
X12627205Y-12592674D01*
X12627205Y-12592674D02*
X12627205Y-12611722D01*
D10*
X10975000Y-13035000D02*
X10995000Y-13055000D01*
X10995000Y-13035000D02*
X10975000Y-13055000D01*
D11*
X11293872Y-12936484D02*
X11312920Y-12936484D01*
X11312920Y-12936484D02*
X11331967Y-12946008D01*
X11331967Y-12946008D02*
X11341491Y-12955531D01*
X11341491Y-12955531D02*
X11351015Y-12974579D01*
X11351015Y-12974579D02*
X11360539Y-13012674D01*
X11360539Y-13012674D02*
X11360539Y-13060293D01*
X11360539Y-13060293D02*
X11351015Y-13098388D01*
X11351015Y-13098388D02*
X11341491Y-13117436D01*
X11341491Y-13117436D02*
X11331967Y-13126960D01*
X11331967Y-13126960D02*
X11312920Y-13136484D01*
X11312920Y-13136484D02*
X11293872Y-13136484D01*
X11293872Y-13136484D02*
X11274824Y-13126960D01*
X11274824Y-13126960D02*
X11265301Y-13117436D01*
X11265301Y-13117436D02*
X11255777Y-13098388D01*
X11255777Y-13098388D02*
X11246253Y-13060293D01*
X11246253Y-13060293D02*
X11246253Y-13012674D01*
X11246253Y-13012674D02*
X11255777Y-12974579D01*
X11255777Y-12974579D02*
X11265301Y-12955531D01*
X11265301Y-12955531D02*
X11274824Y-12946008D01*
X11274824Y-12946008D02*
X11293872Y-12936484D01*
X11446253Y-13117436D02*
X11455777Y-13126960D01*
X11455777Y-13126960D02*
X11446253Y-13136484D01*
X11446253Y-13136484D02*
X11436729Y-13126960D01*
X11436729Y-13126960D02*
X11446253Y-13117436D01*
X11446253Y-13117436D02*
X11446253Y-13136484D01*
X11531967Y-12955531D02*
X11541491Y-12946008D01*
X11541491Y-12946008D02*
X11560539Y-12936484D01*
X11560539Y-12936484D02*
X11608158Y-12936484D01*
X11608158Y-12936484D02*
X11627205Y-12946008D01*
X11627205Y-12946008D02*
X11636729Y-12955531D01*
X11636729Y-12955531D02*
X11646253Y-12974579D01*
X11646253Y-12974579D02*
X11646253Y-12993627D01*
X11646253Y-12993627D02*
X11636729Y-13022198D01*
X11636729Y-13022198D02*
X11522443Y-13136484D01*
X11522443Y-13136484D02*
X11646253Y-13136484D01*
X11770062Y-12936484D02*
X11789110Y-12936484D01*
X11789110Y-12936484D02*
X11808158Y-12946008D01*
X11808158Y-12946008D02*
X11817682Y-12955531D01*
X11817682Y-12955531D02*
X11827205Y-12974579D01*
X11827205Y-12974579D02*
X11836729Y-13012674D01*
X11836729Y-13012674D02*
X11836729Y-13060293D01*
X11836729Y-13060293D02*
X11827205Y-13098388D01*
X11827205Y-13098388D02*
X11817682Y-13117436D01*
X11817682Y-13117436D02*
X11808158Y-13126960D01*
X11808158Y-13126960D02*
X11789110Y-13136484D01*
X11789110Y-13136484D02*
X11770062Y-13136484D01*
X11770062Y-13136484D02*
X11751015Y-13126960D01*
X11751015Y-13126960D02*
X11741491Y-13117436D01*
X11741491Y-13117436D02*
X11731967Y-13098388D01*
X11731967Y-13098388D02*
X11722443Y-13060293D01*
X11722443Y-13060293D02*
X11722443Y-13012674D01*
X11722443Y-13012674D02*
X11731967Y-12974579D01*
X11731967Y-12974579D02*
X11741491Y-12955531D01*
X11741491Y-12955531D02*
X11751015Y-12946008D01*
X11751015Y-12946008D02*
X11770062Y-12936484D01*
X11960539Y-12936484D02*
X11979586Y-12936484D01*
X11979586Y-12936484D02*
X11998634Y-12946008D01*
X11998634Y-12946008D02*
X12008158Y-12955531D01*
X12008158Y-12955531D02*
X12017682Y-12974579D01*
X12017682Y-12974579D02*
X12027205Y-13012674D01*
X12027205Y-13012674D02*
X12027205Y-13060293D01*
X12027205Y-13060293D02*
X12017682Y-13098388D01*
X12017682Y-13098388D02*
X12008158Y-13117436D01*
X12008158Y-13117436D02*
X11998634Y-13126960D01*
X11998634Y-13126960D02*
X11979586Y-13136484D01*
X11979586Y-13136484D02*
X11960539Y-13136484D01*
X11960539Y-13136484D02*
X11941491Y-13126960D01*
X11941491Y-13126960D02*
X11931967Y-13117436D01*
X11931967Y-13117436D02*
X11922443Y-13098388D01*
X11922443Y-13098388D02*
X11912920Y-13060293D01*
X11912920Y-13060293D02*
X11912920Y-13012674D01*
X11912920Y-13012674D02*
X11922443Y-12974579D01*
X11922443Y-12974579D02*
X11931967Y-12955531D01*
X11931967Y-12955531D02*
X11941491Y-12946008D01*
X11941491Y-12946008D02*
X11960539Y-12936484D01*
X12112920Y-13136484D02*
X12112920Y-13003150D01*
X12112920Y-13022198D02*
X12122443Y-13012674D01*
X12122443Y-13012674D02*
X12141491Y-13003150D01*
X12141491Y-13003150D02*
X12170063Y-13003150D01*
X12170063Y-13003150D02*
X12189110Y-13012674D01*
X12189110Y-13012674D02*
X12198634Y-13031722D01*
X12198634Y-13031722D02*
X12198634Y-13136484D01*
X12198634Y-13031722D02*
X12208158Y-13012674D01*
X12208158Y-13012674D02*
X12227205Y-13003150D01*
X12227205Y-13003150D02*
X12255777Y-13003150D01*
X12255777Y-13003150D02*
X12274824Y-13012674D01*
X12274824Y-13012674D02*
X12284348Y-13031722D01*
X12284348Y-13031722D02*
X12284348Y-13136484D01*
X12379586Y-13136484D02*
X12379586Y-13003150D01*
X12379586Y-13022198D02*
X12389110Y-13012674D01*
X12389110Y-13012674D02*
X12408158Y-13003150D01*
X12408158Y-13003150D02*
X12436729Y-13003150D01*
X12436729Y-13003150D02*
X12455777Y-13012674D01*
X12455777Y-13012674D02*
X12465301Y-13031722D01*
X12465301Y-13031722D02*
X12465301Y-13136484D01*
X12465301Y-13031722D02*
X12474824Y-13012674D01*
X12474824Y-13012674D02*
X12493872Y-13003150D01*
X12493872Y-13003150D02*
X12522443Y-13003150D01*
X12522443Y-13003150D02*
X12541491Y-13012674D01*
X12541491Y-13012674D02*
X12551015Y-13031722D01*
X12551015Y-13031722D02*
X12551015Y-13136484D01*
X12941491Y-12926960D02*
X12770063Y-13184103D01*
X13198634Y-12936484D02*
X13217682Y-12936484D01*
X13217682Y-12936484D02*
X13236729Y-12946008D01*
X13236729Y-12946008D02*
X13246253Y-12955531D01*
X13246253Y-12955531D02*
X13255777Y-12974579D01*
X13255777Y-12974579D02*
X13265301Y-13012674D01*
X13265301Y-13012674D02*
X13265301Y-13060293D01*
X13265301Y-13060293D02*
X13255777Y-13098388D01*
X13255777Y-13098388D02*
X13246253Y-13117436D01*
X13246253Y-13117436D02*
X13236729Y-13126960D01*
X13236729Y-13126960D02*
X13217682Y-13136484D01*
X13217682Y-13136484D02*
X13198634Y-13136484D01*
X13198634Y-13136484D02*
X13179586Y-13126960D01*
X13179586Y-13126960D02*
X13170063Y-13117436D01*
X13170063Y-13117436D02*
X13160539Y-13098388D01*
X13160539Y-13098388D02*
X13151015Y-13060293D01*
X13151015Y-13060293D02*
X13151015Y-13012674D01*
X13151015Y-13012674D02*
X13160539Y-12974579D01*
X13160539Y-12974579D02*
X13170063Y-12955531D01*
X13170063Y-12955531D02*
X13179586Y-12946008D01*
X13179586Y-12946008D02*
X13198634Y-12936484D01*
X13351015Y-13117436D02*
X13360539Y-13126960D01*
X13360539Y-13126960D02*
X13351015Y-13136484D01*
X13351015Y-13136484D02*
X13341491Y-13126960D01*
X13341491Y-13126960D02*
X13351015Y-13117436D01*
X13351015Y-13117436D02*
X13351015Y-13136484D01*
X13484348Y-12936484D02*
X13503396Y-12936484D01*
X13503396Y-12936484D02*
X13522444Y-12946008D01*
X13522444Y-12946008D02*
X13531967Y-12955531D01*
X13531967Y-12955531D02*
X13541491Y-12974579D01*
X13541491Y-12974579D02*
X13551015Y-13012674D01*
X13551015Y-13012674D02*
X13551015Y-13060293D01*
X13551015Y-13060293D02*
X13541491Y-13098388D01*
X13541491Y-13098388D02*
X13531967Y-13117436D01*
X13531967Y-13117436D02*
X13522444Y-13126960D01*
X13522444Y-13126960D02*
X13503396Y-13136484D01*
X13503396Y-13136484D02*
X13484348Y-13136484D01*
X13484348Y-13136484D02*
X13465301Y-13126960D01*
X13465301Y-13126960D02*
X13455777Y-13117436D01*
X13455777Y-13117436D02*
X13446253Y-13098388D01*
X13446253Y-13098388D02*
X13436729Y-13060293D01*
X13436729Y-13060293D02*
X13436729Y-13012674D01*
X13436729Y-13012674D02*
X13446253Y-12974579D01*
X13446253Y-12974579D02*
X13455777Y-12955531D01*
X13455777Y-12955531D02*
X13465301Y-12946008D01*
X13465301Y-12946008D02*
X13484348Y-12936484D01*
X13674825Y-12936484D02*
X13693872Y-12936484D01*
X13693872Y-12936484D02*
X13712920Y-12946008D01*
X13712920Y-12946008D02*
X13722444Y-12955531D01*
X13722444Y-12955531D02*
X13731967Y-12974579D01*
X13731967Y-12974579D02*
X13741491Y-13012674D01*
X13741491Y-13012674D02*
X13741491Y-13060293D01*
X13741491Y-13060293D02*
X13731967Y-13098388D01*
X13731967Y-13098388D02*
X13722444Y-13117436D01*
X13722444Y-13117436D02*
X13712920Y-13126960D01*
X13712920Y-13126960D02*
X13693872Y-13136484D01*
X13693872Y-13136484D02*
X13674825Y-13136484D01*
X13674825Y-13136484D02*
X13655777Y-13126960D01*
X13655777Y-13126960D02*
X13646253Y-13117436D01*
X13646253Y-13117436D02*
X13636729Y-13098388D01*
X13636729Y-13098388D02*
X13627206Y-13060293D01*
X13627206Y-13060293D02*
X13627206Y-13012674D01*
X13627206Y-13012674D02*
X13636729Y-12974579D01*
X13636729Y-12974579D02*
X13646253Y-12955531D01*
X13646253Y-12955531D02*
X13655777Y-12946008D01*
X13655777Y-12946008D02*
X13674825Y-12936484D01*
X13808158Y-12936484D02*
X13941491Y-12936484D01*
X13941491Y-12936484D02*
X13855777Y-13136484D01*
X14027206Y-13136484D02*
X14065301Y-13136484D01*
X14065301Y-13136484D02*
X14084348Y-13126960D01*
X14084348Y-13126960D02*
X14093872Y-13117436D01*
X14093872Y-13117436D02*
X14112920Y-13088865D01*
X14112920Y-13088865D02*
X14122444Y-13050769D01*
X14122444Y-13050769D02*
X14122444Y-12974579D01*
X14122444Y-12974579D02*
X14112920Y-12955531D01*
X14112920Y-12955531D02*
X14103396Y-12946008D01*
X14103396Y-12946008D02*
X14084348Y-12936484D01*
X14084348Y-12936484D02*
X14046253Y-12936484D01*
X14046253Y-12936484D02*
X14027206Y-12946008D01*
X14027206Y-12946008D02*
X14017682Y-12955531D01*
X14017682Y-12955531D02*
X14008158Y-12974579D01*
X14008158Y-12974579D02*
X14008158Y-13022198D01*
X14008158Y-13022198D02*
X14017682Y-13041246D01*
X14017682Y-13041246D02*
X14027206Y-13050769D01*
X14027206Y-13050769D02*
X14046253Y-13060293D01*
X14046253Y-13060293D02*
X14084348Y-13060293D01*
X14084348Y-13060293D02*
X14103396Y-13050769D01*
X14103396Y-13050769D02*
X14112920Y-13041246D01*
X14112920Y-13041246D02*
X14122444Y-13022198D01*
X14198634Y-12936484D02*
X14198634Y-12974579D01*
X14274825Y-12936484D02*
X14274825Y-12974579D01*
X14570063Y-13212674D02*
X14560539Y-13203150D01*
X14560539Y-13203150D02*
X14541491Y-13174579D01*
X14541491Y-13174579D02*
X14531968Y-13155531D01*
X14531968Y-13155531D02*
X14522444Y-13126960D01*
X14522444Y-13126960D02*
X14512920Y-13079341D01*
X14512920Y-13079341D02*
X14512920Y-13041246D01*
X14512920Y-13041246D02*
X14522444Y-12993627D01*
X14522444Y-12993627D02*
X14531968Y-12965055D01*
X14531968Y-12965055D02*
X14541491Y-12946008D01*
X14541491Y-12946008D02*
X14560539Y-12917436D01*
X14560539Y-12917436D02*
X14570063Y-12907912D01*
X14627206Y-12936484D02*
X14760539Y-12936484D01*
X14760539Y-12936484D02*
X14674825Y-13136484D01*
X14874825Y-12936484D02*
X14893872Y-12936484D01*
X14893872Y-12936484D02*
X14912920Y-12946008D01*
X14912920Y-12946008D02*
X14922444Y-12955531D01*
X14922444Y-12955531D02*
X14931968Y-12974579D01*
X14931968Y-12974579D02*
X14941491Y-13012674D01*
X14941491Y-13012674D02*
X14941491Y-13060293D01*
X14941491Y-13060293D02*
X14931968Y-13098388D01*
X14931968Y-13098388D02*
X14922444Y-13117436D01*
X14922444Y-13117436D02*
X14912920Y-13126960D01*
X14912920Y-13126960D02*
X14893872Y-13136484D01*
X14893872Y-13136484D02*
X14874825Y-13136484D01*
X14874825Y-13136484D02*
X14855777Y-13126960D01*
X14855777Y-13126960D02*
X14846253Y-13117436D01*
X14846253Y-13117436D02*
X14836729Y-13098388D01*
X14836729Y-13098388D02*
X14827206Y-13060293D01*
X14827206Y-13060293D02*
X14827206Y-13012674D01*
X14827206Y-13012674D02*
X14836729Y-12974579D01*
X14836729Y-12974579D02*
X14846253Y-12955531D01*
X14846253Y-12955531D02*
X14855777Y-12946008D01*
X14855777Y-12946008D02*
X14874825Y-12936484D01*
X15179587Y-13136484D02*
X15179587Y-12936484D01*
X15265301Y-13136484D02*
X15265301Y-13031722D01*
X15265301Y-13031722D02*
X15255777Y-13012674D01*
X15255777Y-13012674D02*
X15236730Y-13003150D01*
X15236730Y-13003150D02*
X15208158Y-13003150D01*
X15208158Y-13003150D02*
X15189110Y-13012674D01*
X15189110Y-13012674D02*
X15179587Y-13022198D01*
X15389110Y-13136484D02*
X15370063Y-13126960D01*
X15370063Y-13126960D02*
X15360539Y-13117436D01*
X15360539Y-13117436D02*
X15351015Y-13098388D01*
X15351015Y-13098388D02*
X15351015Y-13041246D01*
X15351015Y-13041246D02*
X15360539Y-13022198D01*
X15360539Y-13022198D02*
X15370063Y-13012674D01*
X15370063Y-13012674D02*
X15389110Y-13003150D01*
X15389110Y-13003150D02*
X15417682Y-13003150D01*
X15417682Y-13003150D02*
X15436730Y-13012674D01*
X15436730Y-13012674D02*
X15446253Y-13022198D01*
X15446253Y-13022198D02*
X15455777Y-13041246D01*
X15455777Y-13041246D02*
X15455777Y-13098388D01*
X15455777Y-13098388D02*
X15446253Y-13117436D01*
X15446253Y-13117436D02*
X15436730Y-13126960D01*
X15436730Y-13126960D02*
X15417682Y-13136484D01*
X15417682Y-13136484D02*
X15389110Y-13136484D01*
X15570063Y-13136484D02*
X15551015Y-13126960D01*
X15551015Y-13126960D02*
X15541491Y-13107912D01*
X15541491Y-13107912D02*
X15541491Y-12936484D01*
X15722444Y-13126960D02*
X15703396Y-13136484D01*
X15703396Y-13136484D02*
X15665301Y-13136484D01*
X15665301Y-13136484D02*
X15646253Y-13126960D01*
X15646253Y-13126960D02*
X15636730Y-13107912D01*
X15636730Y-13107912D02*
X15636730Y-13031722D01*
X15636730Y-13031722D02*
X15646253Y-13012674D01*
X15646253Y-13012674D02*
X15665301Y-13003150D01*
X15665301Y-13003150D02*
X15703396Y-13003150D01*
X15703396Y-13003150D02*
X15722444Y-13012674D01*
X15722444Y-13012674D02*
X15731968Y-13031722D01*
X15731968Y-13031722D02*
X15731968Y-13050769D01*
X15731968Y-13050769D02*
X15636730Y-13069817D01*
X15808158Y-13126960D02*
X15827206Y-13136484D01*
X15827206Y-13136484D02*
X15865301Y-13136484D01*
X15865301Y-13136484D02*
X15884349Y-13126960D01*
X15884349Y-13126960D02*
X15893872Y-13107912D01*
X15893872Y-13107912D02*
X15893872Y-13098388D01*
X15893872Y-13098388D02*
X15884349Y-13079341D01*
X15884349Y-13079341D02*
X15865301Y-13069817D01*
X15865301Y-13069817D02*
X15836730Y-13069817D01*
X15836730Y-13069817D02*
X15817682Y-13060293D01*
X15817682Y-13060293D02*
X15808158Y-13041246D01*
X15808158Y-13041246D02*
X15808158Y-13031722D01*
X15808158Y-13031722D02*
X15817682Y-13012674D01*
X15817682Y-13012674D02*
X15836730Y-13003150D01*
X15836730Y-13003150D02*
X15865301Y-13003150D01*
X15865301Y-13003150D02*
X15884349Y-13012674D01*
X15960539Y-13212674D02*
X15970063Y-13203150D01*
X15970063Y-13203150D02*
X15989111Y-13174579D01*
X15989111Y-13174579D02*
X15998634Y-13155531D01*
X15998634Y-13155531D02*
X16008158Y-13126960D01*
X16008158Y-13126960D02*
X16017682Y-13079341D01*
X16017682Y-13079341D02*
X16017682Y-13041246D01*
X16017682Y-13041246D02*
X16008158Y-12993627D01*
X16008158Y-12993627D02*
X15998634Y-12965055D01*
X15998634Y-12965055D02*
X15989111Y-12946008D01*
X15989111Y-12946008D02*
X15970063Y-12917436D01*
X15970063Y-12917436D02*
X15960539Y-12907912D01*
D10*
X10995000Y-13309000D02*
G75*
G02*
X10965000Y-13309000I-15000J0D01*
G01*
X10965000Y-13309000D02*
G75*
G02*
X10995000Y-13309000I15000J0D01*
G01*
D11*
X11293872Y-13200484D02*
X11312920Y-13200484D01*
X11312920Y-13200484D02*
X11331967Y-13210008D01*
X11331967Y-13210008D02*
X11341491Y-13219531D01*
X11341491Y-13219531D02*
X11351015Y-13238579D01*
X11351015Y-13238579D02*
X11360539Y-13276674D01*
X11360539Y-13276674D02*
X11360539Y-13324293D01*
X11360539Y-13324293D02*
X11351015Y-13362388D01*
X11351015Y-13362388D02*
X11341491Y-13381436D01*
X11341491Y-13381436D02*
X11331967Y-13390960D01*
X11331967Y-13390960D02*
X11312920Y-13400484D01*
X11312920Y-13400484D02*
X11293872Y-13400484D01*
X11293872Y-13400484D02*
X11274824Y-13390960D01*
X11274824Y-13390960D02*
X11265301Y-13381436D01*
X11265301Y-13381436D02*
X11255777Y-13362388D01*
X11255777Y-13362388D02*
X11246253Y-13324293D01*
X11246253Y-13324293D02*
X11246253Y-13276674D01*
X11246253Y-13276674D02*
X11255777Y-13238579D01*
X11255777Y-13238579D02*
X11265301Y-13219531D01*
X11265301Y-13219531D02*
X11274824Y-13210008D01*
X11274824Y-13210008D02*
X11293872Y-13200484D01*
X11446253Y-13381436D02*
X11455777Y-13390960D01*
X11455777Y-13390960D02*
X11446253Y-13400484D01*
X11446253Y-13400484D02*
X11436729Y-13390960D01*
X11436729Y-13390960D02*
X11446253Y-13381436D01*
X11446253Y-13381436D02*
X11446253Y-13400484D01*
X11522443Y-13200484D02*
X11646253Y-13200484D01*
X11646253Y-13200484D02*
X11579586Y-13276674D01*
X11579586Y-13276674D02*
X11608158Y-13276674D01*
X11608158Y-13276674D02*
X11627205Y-13286198D01*
X11627205Y-13286198D02*
X11636729Y-13295722D01*
X11636729Y-13295722D02*
X11646253Y-13314769D01*
X11646253Y-13314769D02*
X11646253Y-13362388D01*
X11646253Y-13362388D02*
X11636729Y-13381436D01*
X11636729Y-13381436D02*
X11627205Y-13390960D01*
X11627205Y-13390960D02*
X11608158Y-13400484D01*
X11608158Y-13400484D02*
X11551015Y-13400484D01*
X11551015Y-13400484D02*
X11531967Y-13390960D01*
X11531967Y-13390960D02*
X11522443Y-13381436D01*
X11770062Y-13200484D02*
X11789110Y-13200484D01*
X11789110Y-13200484D02*
X11808158Y-13210008D01*
X11808158Y-13210008D02*
X11817682Y-13219531D01*
X11817682Y-13219531D02*
X11827205Y-13238579D01*
X11827205Y-13238579D02*
X11836729Y-13276674D01*
X11836729Y-13276674D02*
X11836729Y-13324293D01*
X11836729Y-13324293D02*
X11827205Y-13362388D01*
X11827205Y-13362388D02*
X11817682Y-13381436D01*
X11817682Y-13381436D02*
X11808158Y-13390960D01*
X11808158Y-13390960D02*
X11789110Y-13400484D01*
X11789110Y-13400484D02*
X11770062Y-13400484D01*
X11770062Y-13400484D02*
X11751015Y-13390960D01*
X11751015Y-13390960D02*
X11741491Y-13381436D01*
X11741491Y-13381436D02*
X11731967Y-13362388D01*
X11731967Y-13362388D02*
X11722443Y-13324293D01*
X11722443Y-13324293D02*
X11722443Y-13276674D01*
X11722443Y-13276674D02*
X11731967Y-13238579D01*
X11731967Y-13238579D02*
X11741491Y-13219531D01*
X11741491Y-13219531D02*
X11751015Y-13210008D01*
X11751015Y-13210008D02*
X11770062Y-13200484D01*
X11960539Y-13200484D02*
X11979586Y-13200484D01*
X11979586Y-13200484D02*
X11998634Y-13210008D01*
X11998634Y-13210008D02*
X12008158Y-13219531D01*
X12008158Y-13219531D02*
X12017682Y-13238579D01*
X12017682Y-13238579D02*
X12027205Y-13276674D01*
X12027205Y-13276674D02*
X12027205Y-13324293D01*
X12027205Y-13324293D02*
X12017682Y-13362388D01*
X12017682Y-13362388D02*
X12008158Y-13381436D01*
X12008158Y-13381436D02*
X11998634Y-13390960D01*
X11998634Y-13390960D02*
X11979586Y-13400484D01*
X11979586Y-13400484D02*
X11960539Y-13400484D01*
X11960539Y-13400484D02*
X11941491Y-13390960D01*
X11941491Y-13390960D02*
X11931967Y-13381436D01*
X11931967Y-13381436D02*
X11922443Y-13362388D01*
X11922443Y-13362388D02*
X11912920Y-13324293D01*
X11912920Y-13324293D02*
X11912920Y-13276674D01*
X11912920Y-13276674D02*
X11922443Y-13238579D01*
X11922443Y-13238579D02*
X11931967Y-13219531D01*
X11931967Y-13219531D02*
X11941491Y-13210008D01*
X11941491Y-13210008D02*
X11960539Y-13200484D01*
X12112920Y-13400484D02*
X12112920Y-13267150D01*
X12112920Y-13286198D02*
X12122443Y-13276674D01*
X12122443Y-13276674D02*
X12141491Y-13267150D01*
X12141491Y-13267150D02*
X12170063Y-13267150D01*
X12170063Y-13267150D02*
X12189110Y-13276674D01*
X12189110Y-13276674D02*
X12198634Y-13295722D01*
X12198634Y-13295722D02*
X12198634Y-13400484D01*
X12198634Y-13295722D02*
X12208158Y-13276674D01*
X12208158Y-13276674D02*
X12227205Y-13267150D01*
X12227205Y-13267150D02*
X12255777Y-13267150D01*
X12255777Y-13267150D02*
X12274824Y-13276674D01*
X12274824Y-13276674D02*
X12284348Y-13295722D01*
X12284348Y-13295722D02*
X12284348Y-13400484D01*
X12379586Y-13400484D02*
X12379586Y-13267150D01*
X12379586Y-13286198D02*
X12389110Y-13276674D01*
X12389110Y-13276674D02*
X12408158Y-13267150D01*
X12408158Y-13267150D02*
X12436729Y-13267150D01*
X12436729Y-13267150D02*
X12455777Y-13276674D01*
X12455777Y-13276674D02*
X12465301Y-13295722D01*
X12465301Y-13295722D02*
X12465301Y-13400484D01*
X12465301Y-13295722D02*
X12474824Y-13276674D01*
X12474824Y-13276674D02*
X12493872Y-13267150D01*
X12493872Y-13267150D02*
X12522443Y-13267150D01*
X12522443Y-13267150D02*
X12541491Y-13276674D01*
X12541491Y-13276674D02*
X12551015Y-13295722D01*
X12551015Y-13295722D02*
X12551015Y-13400484D01*
X12941491Y-13190960D02*
X12770063Y-13448103D01*
X13198634Y-13200484D02*
X13217682Y-13200484D01*
X13217682Y-13200484D02*
X13236729Y-13210008D01*
X13236729Y-13210008D02*
X13246253Y-13219531D01*
X13246253Y-13219531D02*
X13255777Y-13238579D01*
X13255777Y-13238579D02*
X13265301Y-13276674D01*
X13265301Y-13276674D02*
X13265301Y-13324293D01*
X13265301Y-13324293D02*
X13255777Y-13362388D01*
X13255777Y-13362388D02*
X13246253Y-13381436D01*
X13246253Y-13381436D02*
X13236729Y-13390960D01*
X13236729Y-13390960D02*
X13217682Y-13400484D01*
X13217682Y-13400484D02*
X13198634Y-13400484D01*
X13198634Y-13400484D02*
X13179586Y-13390960D01*
X13179586Y-13390960D02*
X13170063Y-13381436D01*
X13170063Y-13381436D02*
X13160539Y-13362388D01*
X13160539Y-13362388D02*
X13151015Y-13324293D01*
X13151015Y-13324293D02*
X13151015Y-13276674D01*
X13151015Y-13276674D02*
X13160539Y-13238579D01*
X13160539Y-13238579D02*
X13170063Y-13219531D01*
X13170063Y-13219531D02*
X13179586Y-13210008D01*
X13179586Y-13210008D02*
X13198634Y-13200484D01*
X13351015Y-13381436D02*
X13360539Y-13390960D01*
X13360539Y-13390960D02*
X13351015Y-13400484D01*
X13351015Y-13400484D02*
X13341491Y-13390960D01*
X13341491Y-13390960D02*
X13351015Y-13381436D01*
X13351015Y-13381436D02*
X13351015Y-13400484D01*
X13484348Y-13200484D02*
X13503396Y-13200484D01*
X13503396Y-13200484D02*
X13522444Y-13210008D01*
X13522444Y-13210008D02*
X13531967Y-13219531D01*
X13531967Y-13219531D02*
X13541491Y-13238579D01*
X13541491Y-13238579D02*
X13551015Y-13276674D01*
X13551015Y-13276674D02*
X13551015Y-13324293D01*
X13551015Y-13324293D02*
X13541491Y-13362388D01*
X13541491Y-13362388D02*
X13531967Y-13381436D01*
X13531967Y-13381436D02*
X13522444Y-13390960D01*
X13522444Y-13390960D02*
X13503396Y-13400484D01*
X13503396Y-13400484D02*
X13484348Y-13400484D01*
X13484348Y-13400484D02*
X13465301Y-13390960D01*
X13465301Y-13390960D02*
X13455777Y-13381436D01*
X13455777Y-13381436D02*
X13446253Y-13362388D01*
X13446253Y-13362388D02*
X13436729Y-13324293D01*
X13436729Y-13324293D02*
X13436729Y-13276674D01*
X13436729Y-13276674D02*
X13446253Y-13238579D01*
X13446253Y-13238579D02*
X13455777Y-13219531D01*
X13455777Y-13219531D02*
X13465301Y-13210008D01*
X13465301Y-13210008D02*
X13484348Y-13200484D01*
X13741491Y-13400484D02*
X13627206Y-13400484D01*
X13684348Y-13400484D02*
X13684348Y-13200484D01*
X13684348Y-13200484D02*
X13665301Y-13229055D01*
X13665301Y-13229055D02*
X13646253Y-13248103D01*
X13646253Y-13248103D02*
X13627206Y-13257627D01*
X13931967Y-13400484D02*
X13817682Y-13400484D01*
X13874825Y-13400484D02*
X13874825Y-13200484D01*
X13874825Y-13200484D02*
X13855777Y-13229055D01*
X13855777Y-13229055D02*
X13836729Y-13248103D01*
X13836729Y-13248103D02*
X13817682Y-13257627D01*
X14046253Y-13286198D02*
X14027206Y-13276674D01*
X14027206Y-13276674D02*
X14017682Y-13267150D01*
X14017682Y-13267150D02*
X14008158Y-13248103D01*
X14008158Y-13248103D02*
X14008158Y-13238579D01*
X14008158Y-13238579D02*
X14017682Y-13219531D01*
X14017682Y-13219531D02*
X14027206Y-13210008D01*
X14027206Y-13210008D02*
X14046253Y-13200484D01*
X14046253Y-13200484D02*
X14084348Y-13200484D01*
X14084348Y-13200484D02*
X14103396Y-13210008D01*
X14103396Y-13210008D02*
X14112920Y-13219531D01*
X14112920Y-13219531D02*
X14122444Y-13238579D01*
X14122444Y-13238579D02*
X14122444Y-13248103D01*
X14122444Y-13248103D02*
X14112920Y-13267150D01*
X14112920Y-13267150D02*
X14103396Y-13276674D01*
X14103396Y-13276674D02*
X14084348Y-13286198D01*
X14084348Y-13286198D02*
X14046253Y-13286198D01*
X14046253Y-13286198D02*
X14027206Y-13295722D01*
X14027206Y-13295722D02*
X14017682Y-13305246D01*
X14017682Y-13305246D02*
X14008158Y-13324293D01*
X14008158Y-13324293D02*
X14008158Y-13362388D01*
X14008158Y-13362388D02*
X14017682Y-13381436D01*
X14017682Y-13381436D02*
X14027206Y-13390960D01*
X14027206Y-13390960D02*
X14046253Y-13400484D01*
X14046253Y-13400484D02*
X14084348Y-13400484D01*
X14084348Y-13400484D02*
X14103396Y-13390960D01*
X14103396Y-13390960D02*
X14112920Y-13381436D01*
X14112920Y-13381436D02*
X14122444Y-13362388D01*
X14122444Y-13362388D02*
X14122444Y-13324293D01*
X14122444Y-13324293D02*
X14112920Y-13305246D01*
X14112920Y-13305246D02*
X14103396Y-13295722D01*
X14103396Y-13295722D02*
X14084348Y-13286198D01*
X14198634Y-13200484D02*
X14198634Y-13238579D01*
X14274825Y-13200484D02*
X14274825Y-13238579D01*
X14570063Y-13476674D02*
X14560539Y-13467150D01*
X14560539Y-13467150D02*
X14541491Y-13438579D01*
X14541491Y-13438579D02*
X14531968Y-13419531D01*
X14531968Y-13419531D02*
X14522444Y-13390960D01*
X14522444Y-13390960D02*
X14512920Y-13343341D01*
X14512920Y-13343341D02*
X14512920Y-13305246D01*
X14512920Y-13305246D02*
X14522444Y-13257627D01*
X14522444Y-13257627D02*
X14531968Y-13229055D01*
X14531968Y-13229055D02*
X14541491Y-13210008D01*
X14541491Y-13210008D02*
X14560539Y-13181436D01*
X14560539Y-13181436D02*
X14570063Y-13171912D01*
X14627206Y-13200484D02*
X14751015Y-13200484D01*
X14751015Y-13200484D02*
X14684348Y-13276674D01*
X14684348Y-13276674D02*
X14712920Y-13276674D01*
X14712920Y-13276674D02*
X14731968Y-13286198D01*
X14731968Y-13286198D02*
X14741491Y-13295722D01*
X14741491Y-13295722D02*
X14751015Y-13314769D01*
X14751015Y-13314769D02*
X14751015Y-13362388D01*
X14751015Y-13362388D02*
X14741491Y-13381436D01*
X14741491Y-13381436D02*
X14731968Y-13390960D01*
X14731968Y-13390960D02*
X14712920Y-13400484D01*
X14712920Y-13400484D02*
X14655777Y-13400484D01*
X14655777Y-13400484D02*
X14636729Y-13390960D01*
X14636729Y-13390960D02*
X14627206Y-13381436D01*
X14817682Y-13200484D02*
X14941491Y-13200484D01*
X14941491Y-13200484D02*
X14874825Y-13276674D01*
X14874825Y-13276674D02*
X14903396Y-13276674D01*
X14903396Y-13276674D02*
X14922444Y-13286198D01*
X14922444Y-13286198D02*
X14931968Y-13295722D01*
X14931968Y-13295722D02*
X14941491Y-13314769D01*
X14941491Y-13314769D02*
X14941491Y-13362388D01*
X14941491Y-13362388D02*
X14931968Y-13381436D01*
X14931968Y-13381436D02*
X14922444Y-13390960D01*
X14922444Y-13390960D02*
X14903396Y-13400484D01*
X14903396Y-13400484D02*
X14846253Y-13400484D01*
X14846253Y-13400484D02*
X14827206Y-13390960D01*
X14827206Y-13390960D02*
X14817682Y-13381436D01*
X15179587Y-13400484D02*
X15179587Y-13200484D01*
X15265301Y-13400484D02*
X15265301Y-13295722D01*
X15265301Y-13295722D02*
X15255777Y-13276674D01*
X15255777Y-13276674D02*
X15236730Y-13267150D01*
X15236730Y-13267150D02*
X15208158Y-13267150D01*
X15208158Y-13267150D02*
X15189110Y-13276674D01*
X15189110Y-13276674D02*
X15179587Y-13286198D01*
X15389110Y-13400484D02*
X15370063Y-13390960D01*
X15370063Y-13390960D02*
X15360539Y-13381436D01*
X15360539Y-13381436D02*
X15351015Y-13362388D01*
X15351015Y-13362388D02*
X15351015Y-13305246D01*
X15351015Y-13305246D02*
X15360539Y-13286198D01*
X15360539Y-13286198D02*
X15370063Y-13276674D01*
X15370063Y-13276674D02*
X15389110Y-13267150D01*
X15389110Y-13267150D02*
X15417682Y-13267150D01*
X15417682Y-13267150D02*
X15436730Y-13276674D01*
X15436730Y-13276674D02*
X15446253Y-13286198D01*
X15446253Y-13286198D02*
X15455777Y-13305246D01*
X15455777Y-13305246D02*
X15455777Y-13362388D01*
X15455777Y-13362388D02*
X15446253Y-13381436D01*
X15446253Y-13381436D02*
X15436730Y-13390960D01*
X15436730Y-13390960D02*
X15417682Y-13400484D01*
X15417682Y-13400484D02*
X15389110Y-13400484D01*
X15570063Y-13400484D02*
X15551015Y-13390960D01*
X15551015Y-13390960D02*
X15541491Y-13371912D01*
X15541491Y-13371912D02*
X15541491Y-13200484D01*
X15722444Y-13390960D02*
X15703396Y-13400484D01*
X15703396Y-13400484D02*
X15665301Y-13400484D01*
X15665301Y-13400484D02*
X15646253Y-13390960D01*
X15646253Y-13390960D02*
X15636730Y-13371912D01*
X15636730Y-13371912D02*
X15636730Y-13295722D01*
X15636730Y-13295722D02*
X15646253Y-13276674D01*
X15646253Y-13276674D02*
X15665301Y-13267150D01*
X15665301Y-13267150D02*
X15703396Y-13267150D01*
X15703396Y-13267150D02*
X15722444Y-13276674D01*
X15722444Y-13276674D02*
X15731968Y-13295722D01*
X15731968Y-13295722D02*
X15731968Y-13314769D01*
X15731968Y-13314769D02*
X15636730Y-13333817D01*
X15808158Y-13390960D02*
X15827206Y-13400484D01*
X15827206Y-13400484D02*
X15865301Y-13400484D01*
X15865301Y-13400484D02*
X15884349Y-13390960D01*
X15884349Y-13390960D02*
X15893872Y-13371912D01*
X15893872Y-13371912D02*
X15893872Y-13362388D01*
X15893872Y-13362388D02*
X15884349Y-13343341D01*
X15884349Y-13343341D02*
X15865301Y-13333817D01*
X15865301Y-13333817D02*
X15836730Y-13333817D01*
X15836730Y-13333817D02*
X15817682Y-13324293D01*
X15817682Y-13324293D02*
X15808158Y-13305246D01*
X15808158Y-13305246D02*
X15808158Y-13295722D01*
X15808158Y-13295722D02*
X15817682Y-13276674D01*
X15817682Y-13276674D02*
X15836730Y-13267150D01*
X15836730Y-13267150D02*
X15865301Y-13267150D01*
X15865301Y-13267150D02*
X15884349Y-13276674D01*
X15960539Y-13476674D02*
X15970063Y-13467150D01*
X15970063Y-13467150D02*
X15989111Y-13438579D01*
X15989111Y-13438579D02*
X15998634Y-13419531D01*
X15998634Y-13419531D02*
X16008158Y-13390960D01*
X16008158Y-13390960D02*
X16017682Y-13343341D01*
X16017682Y-13343341D02*
X16017682Y-13305246D01*
X16017682Y-13305246D02*
X16008158Y-13257627D01*
X16008158Y-13257627D02*
X15998634Y-13229055D01*
X15998634Y-13229055D02*
X15989111Y-13210008D01*
X15989111Y-13210008D02*
X15970063Y-13181436D01*
X15970063Y-13181436D02*
X15960539Y-13171912D01*
D10*
X10965000Y-13543000D02*
X10965000Y-13603000D01*
X10935000Y-13573000D02*
X10995000Y-13573000D01*
D11*
X11293872Y-13464484D02*
X11312920Y-13464484D01*
X11312920Y-13464484D02*
X11331967Y-13474008D01*
X11331967Y-13474008D02*
X11341491Y-13483531D01*
X11341491Y-13483531D02*
X11351015Y-13502579D01*
X11351015Y-13502579D02*
X11360539Y-13540674D01*
X11360539Y-13540674D02*
X11360539Y-13588293D01*
X11360539Y-13588293D02*
X11351015Y-13626388D01*
X11351015Y-13626388D02*
X11341491Y-13645436D01*
X11341491Y-13645436D02*
X11331967Y-13654960D01*
X11331967Y-13654960D02*
X11312920Y-13664484D01*
X11312920Y-13664484D02*
X11293872Y-13664484D01*
X11293872Y-13664484D02*
X11274824Y-13654960D01*
X11274824Y-13654960D02*
X11265301Y-13645436D01*
X11265301Y-13645436D02*
X11255777Y-13626388D01*
X11255777Y-13626388D02*
X11246253Y-13588293D01*
X11246253Y-13588293D02*
X11246253Y-13540674D01*
X11246253Y-13540674D02*
X11255777Y-13502579D01*
X11255777Y-13502579D02*
X11265301Y-13483531D01*
X11265301Y-13483531D02*
X11274824Y-13474008D01*
X11274824Y-13474008D02*
X11293872Y-13464484D01*
X11446253Y-13645436D02*
X11455777Y-13654960D01*
X11455777Y-13654960D02*
X11446253Y-13664484D01*
X11446253Y-13664484D02*
X11436729Y-13654960D01*
X11436729Y-13654960D02*
X11446253Y-13645436D01*
X11446253Y-13645436D02*
X11446253Y-13664484D01*
X11627205Y-13464484D02*
X11589110Y-13464484D01*
X11589110Y-13464484D02*
X11570062Y-13474008D01*
X11570062Y-13474008D02*
X11560539Y-13483531D01*
X11560539Y-13483531D02*
X11541491Y-13512103D01*
X11541491Y-13512103D02*
X11531967Y-13550198D01*
X11531967Y-13550198D02*
X11531967Y-13626388D01*
X11531967Y-13626388D02*
X11541491Y-13645436D01*
X11541491Y-13645436D02*
X11551015Y-13654960D01*
X11551015Y-13654960D02*
X11570062Y-13664484D01*
X11570062Y-13664484D02*
X11608158Y-13664484D01*
X11608158Y-13664484D02*
X11627205Y-13654960D01*
X11627205Y-13654960D02*
X11636729Y-13645436D01*
X11636729Y-13645436D02*
X11646253Y-13626388D01*
X11646253Y-13626388D02*
X11646253Y-13578769D01*
X11646253Y-13578769D02*
X11636729Y-13559722D01*
X11636729Y-13559722D02*
X11627205Y-13550198D01*
X11627205Y-13550198D02*
X11608158Y-13540674D01*
X11608158Y-13540674D02*
X11570062Y-13540674D01*
X11570062Y-13540674D02*
X11551015Y-13550198D01*
X11551015Y-13550198D02*
X11541491Y-13559722D01*
X11541491Y-13559722D02*
X11531967Y-13578769D01*
X11770062Y-13464484D02*
X11789110Y-13464484D01*
X11789110Y-13464484D02*
X11808158Y-13474008D01*
X11808158Y-13474008D02*
X11817682Y-13483531D01*
X11817682Y-13483531D02*
X11827205Y-13502579D01*
X11827205Y-13502579D02*
X11836729Y-13540674D01*
X11836729Y-13540674D02*
X11836729Y-13588293D01*
X11836729Y-13588293D02*
X11827205Y-13626388D01*
X11827205Y-13626388D02*
X11817682Y-13645436D01*
X11817682Y-13645436D02*
X11808158Y-13654960D01*
X11808158Y-13654960D02*
X11789110Y-13664484D01*
X11789110Y-13664484D02*
X11770062Y-13664484D01*
X11770062Y-13664484D02*
X11751015Y-13654960D01*
X11751015Y-13654960D02*
X11741491Y-13645436D01*
X11741491Y-13645436D02*
X11731967Y-13626388D01*
X11731967Y-13626388D02*
X11722443Y-13588293D01*
X11722443Y-13588293D02*
X11722443Y-13540674D01*
X11722443Y-13540674D02*
X11731967Y-13502579D01*
X11731967Y-13502579D02*
X11741491Y-13483531D01*
X11741491Y-13483531D02*
X11751015Y-13474008D01*
X11751015Y-13474008D02*
X11770062Y-13464484D01*
X11960539Y-13464484D02*
X11979586Y-13464484D01*
X11979586Y-13464484D02*
X11998634Y-13474008D01*
X11998634Y-13474008D02*
X12008158Y-13483531D01*
X12008158Y-13483531D02*
X12017682Y-13502579D01*
X12017682Y-13502579D02*
X12027205Y-13540674D01*
X12027205Y-13540674D02*
X12027205Y-13588293D01*
X12027205Y-13588293D02*
X12017682Y-13626388D01*
X12017682Y-13626388D02*
X12008158Y-13645436D01*
X12008158Y-13645436D02*
X11998634Y-13654960D01*
X11998634Y-13654960D02*
X11979586Y-13664484D01*
X11979586Y-13664484D02*
X11960539Y-13664484D01*
X11960539Y-13664484D02*
X11941491Y-13654960D01*
X11941491Y-13654960D02*
X11931967Y-13645436D01*
X11931967Y-13645436D02*
X11922443Y-13626388D01*
X11922443Y-13626388D02*
X11912920Y-13588293D01*
X11912920Y-13588293D02*
X11912920Y-13540674D01*
X11912920Y-13540674D02*
X11922443Y-13502579D01*
X11922443Y-13502579D02*
X11931967Y-13483531D01*
X11931967Y-13483531D02*
X11941491Y-13474008D01*
X11941491Y-13474008D02*
X11960539Y-13464484D01*
X12112920Y-13664484D02*
X12112920Y-13531150D01*
X12112920Y-13550198D02*
X12122443Y-13540674D01*
X12122443Y-13540674D02*
X12141491Y-13531150D01*
X12141491Y-13531150D02*
X12170063Y-13531150D01*
X12170063Y-13531150D02*
X12189110Y-13540674D01*
X12189110Y-13540674D02*
X12198634Y-13559722D01*
X12198634Y-13559722D02*
X12198634Y-13664484D01*
X12198634Y-13559722D02*
X12208158Y-13540674D01*
X12208158Y-13540674D02*
X12227205Y-13531150D01*
X12227205Y-13531150D02*
X12255777Y-13531150D01*
X12255777Y-13531150D02*
X12274824Y-13540674D01*
X12274824Y-13540674D02*
X12284348Y-13559722D01*
X12284348Y-13559722D02*
X12284348Y-13664484D01*
X12379586Y-13664484D02*
X12379586Y-13531150D01*
X12379586Y-13550198D02*
X12389110Y-13540674D01*
X12389110Y-13540674D02*
X12408158Y-13531150D01*
X12408158Y-13531150D02*
X12436729Y-13531150D01*
X12436729Y-13531150D02*
X12455777Y-13540674D01*
X12455777Y-13540674D02*
X12465301Y-13559722D01*
X12465301Y-13559722D02*
X12465301Y-13664484D01*
X12465301Y-13559722D02*
X12474824Y-13540674D01*
X12474824Y-13540674D02*
X12493872Y-13531150D01*
X12493872Y-13531150D02*
X12522443Y-13531150D01*
X12522443Y-13531150D02*
X12541491Y-13540674D01*
X12541491Y-13540674D02*
X12551015Y-13559722D01*
X12551015Y-13559722D02*
X12551015Y-13664484D01*
X12941491Y-13454960D02*
X12770063Y-13712103D01*
X13198634Y-13464484D02*
X13217682Y-13464484D01*
X13217682Y-13464484D02*
X13236729Y-13474008D01*
X13236729Y-13474008D02*
X13246253Y-13483531D01*
X13246253Y-13483531D02*
X13255777Y-13502579D01*
X13255777Y-13502579D02*
X13265301Y-13540674D01*
X13265301Y-13540674D02*
X13265301Y-13588293D01*
X13265301Y-13588293D02*
X13255777Y-13626388D01*
X13255777Y-13626388D02*
X13246253Y-13645436D01*
X13246253Y-13645436D02*
X13236729Y-13654960D01*
X13236729Y-13654960D02*
X13217682Y-13664484D01*
X13217682Y-13664484D02*
X13198634Y-13664484D01*
X13198634Y-13664484D02*
X13179586Y-13654960D01*
X13179586Y-13654960D02*
X13170063Y-13645436D01*
X13170063Y-13645436D02*
X13160539Y-13626388D01*
X13160539Y-13626388D02*
X13151015Y-13588293D01*
X13151015Y-13588293D02*
X13151015Y-13540674D01*
X13151015Y-13540674D02*
X13160539Y-13502579D01*
X13160539Y-13502579D02*
X13170063Y-13483531D01*
X13170063Y-13483531D02*
X13179586Y-13474008D01*
X13179586Y-13474008D02*
X13198634Y-13464484D01*
X13351015Y-13645436D02*
X13360539Y-13654960D01*
X13360539Y-13654960D02*
X13351015Y-13664484D01*
X13351015Y-13664484D02*
X13341491Y-13654960D01*
X13341491Y-13654960D02*
X13351015Y-13645436D01*
X13351015Y-13645436D02*
X13351015Y-13664484D01*
X13484348Y-13464484D02*
X13503396Y-13464484D01*
X13503396Y-13464484D02*
X13522444Y-13474008D01*
X13522444Y-13474008D02*
X13531967Y-13483531D01*
X13531967Y-13483531D02*
X13541491Y-13502579D01*
X13541491Y-13502579D02*
X13551015Y-13540674D01*
X13551015Y-13540674D02*
X13551015Y-13588293D01*
X13551015Y-13588293D02*
X13541491Y-13626388D01*
X13541491Y-13626388D02*
X13531967Y-13645436D01*
X13531967Y-13645436D02*
X13522444Y-13654960D01*
X13522444Y-13654960D02*
X13503396Y-13664484D01*
X13503396Y-13664484D02*
X13484348Y-13664484D01*
X13484348Y-13664484D02*
X13465301Y-13654960D01*
X13465301Y-13654960D02*
X13455777Y-13645436D01*
X13455777Y-13645436D02*
X13446253Y-13626388D01*
X13446253Y-13626388D02*
X13436729Y-13588293D01*
X13436729Y-13588293D02*
X13436729Y-13540674D01*
X13436729Y-13540674D02*
X13446253Y-13502579D01*
X13446253Y-13502579D02*
X13455777Y-13483531D01*
X13455777Y-13483531D02*
X13465301Y-13474008D01*
X13465301Y-13474008D02*
X13484348Y-13464484D01*
X13627206Y-13483531D02*
X13636729Y-13474008D01*
X13636729Y-13474008D02*
X13655777Y-13464484D01*
X13655777Y-13464484D02*
X13703396Y-13464484D01*
X13703396Y-13464484D02*
X13722444Y-13474008D01*
X13722444Y-13474008D02*
X13731967Y-13483531D01*
X13731967Y-13483531D02*
X13741491Y-13502579D01*
X13741491Y-13502579D02*
X13741491Y-13521627D01*
X13741491Y-13521627D02*
X13731967Y-13550198D01*
X13731967Y-13550198D02*
X13617682Y-13664484D01*
X13617682Y-13664484D02*
X13741491Y-13664484D01*
X13808158Y-13464484D02*
X13931967Y-13464484D01*
X13931967Y-13464484D02*
X13865301Y-13540674D01*
X13865301Y-13540674D02*
X13893872Y-13540674D01*
X13893872Y-13540674D02*
X13912920Y-13550198D01*
X13912920Y-13550198D02*
X13922444Y-13559722D01*
X13922444Y-13559722D02*
X13931967Y-13578769D01*
X13931967Y-13578769D02*
X13931967Y-13626388D01*
X13931967Y-13626388D02*
X13922444Y-13645436D01*
X13922444Y-13645436D02*
X13912920Y-13654960D01*
X13912920Y-13654960D02*
X13893872Y-13664484D01*
X13893872Y-13664484D02*
X13836729Y-13664484D01*
X13836729Y-13664484D02*
X13817682Y-13654960D01*
X13817682Y-13654960D02*
X13808158Y-13645436D01*
X14103396Y-13464484D02*
X14065301Y-13464484D01*
X14065301Y-13464484D02*
X14046253Y-13474008D01*
X14046253Y-13474008D02*
X14036729Y-13483531D01*
X14036729Y-13483531D02*
X14017682Y-13512103D01*
X14017682Y-13512103D02*
X14008158Y-13550198D01*
X14008158Y-13550198D02*
X14008158Y-13626388D01*
X14008158Y-13626388D02*
X14017682Y-13645436D01*
X14017682Y-13645436D02*
X14027206Y-13654960D01*
X14027206Y-13654960D02*
X14046253Y-13664484D01*
X14046253Y-13664484D02*
X14084348Y-13664484D01*
X14084348Y-13664484D02*
X14103396Y-13654960D01*
X14103396Y-13654960D02*
X14112920Y-13645436D01*
X14112920Y-13645436D02*
X14122444Y-13626388D01*
X14122444Y-13626388D02*
X14122444Y-13578769D01*
X14122444Y-13578769D02*
X14112920Y-13559722D01*
X14112920Y-13559722D02*
X14103396Y-13550198D01*
X14103396Y-13550198D02*
X14084348Y-13540674D01*
X14084348Y-13540674D02*
X14046253Y-13540674D01*
X14046253Y-13540674D02*
X14027206Y-13550198D01*
X14027206Y-13550198D02*
X14017682Y-13559722D01*
X14017682Y-13559722D02*
X14008158Y-13578769D01*
X14198634Y-13464484D02*
X14198634Y-13502579D01*
X14274825Y-13464484D02*
X14274825Y-13502579D01*
X14570063Y-13740674D02*
X14560539Y-13731150D01*
X14560539Y-13731150D02*
X14541491Y-13702579D01*
X14541491Y-13702579D02*
X14531968Y-13683531D01*
X14531968Y-13683531D02*
X14522444Y-13654960D01*
X14522444Y-13654960D02*
X14512920Y-13607341D01*
X14512920Y-13607341D02*
X14512920Y-13569246D01*
X14512920Y-13569246D02*
X14522444Y-13521627D01*
X14522444Y-13521627D02*
X14531968Y-13493055D01*
X14531968Y-13493055D02*
X14541491Y-13474008D01*
X14541491Y-13474008D02*
X14560539Y-13445436D01*
X14560539Y-13445436D02*
X14570063Y-13435912D01*
X14627206Y-13464484D02*
X14751015Y-13464484D01*
X14751015Y-13464484D02*
X14684348Y-13540674D01*
X14684348Y-13540674D02*
X14712920Y-13540674D01*
X14712920Y-13540674D02*
X14731968Y-13550198D01*
X14731968Y-13550198D02*
X14741491Y-13559722D01*
X14741491Y-13559722D02*
X14751015Y-13578769D01*
X14751015Y-13578769D02*
X14751015Y-13626388D01*
X14751015Y-13626388D02*
X14741491Y-13645436D01*
X14741491Y-13645436D02*
X14731968Y-13654960D01*
X14731968Y-13654960D02*
X14712920Y-13664484D01*
X14712920Y-13664484D02*
X14655777Y-13664484D01*
X14655777Y-13664484D02*
X14636729Y-13654960D01*
X14636729Y-13654960D02*
X14627206Y-13645436D01*
X14827206Y-13483531D02*
X14836729Y-13474008D01*
X14836729Y-13474008D02*
X14855777Y-13464484D01*
X14855777Y-13464484D02*
X14903396Y-13464484D01*
X14903396Y-13464484D02*
X14922444Y-13474008D01*
X14922444Y-13474008D02*
X14931968Y-13483531D01*
X14931968Y-13483531D02*
X14941491Y-13502579D01*
X14941491Y-13502579D02*
X14941491Y-13521627D01*
X14941491Y-13521627D02*
X14931968Y-13550198D01*
X14931968Y-13550198D02*
X14817682Y-13664484D01*
X14817682Y-13664484D02*
X14941491Y-13664484D01*
X15179587Y-13664484D02*
X15179587Y-13464484D01*
X15265301Y-13664484D02*
X15265301Y-13559722D01*
X15265301Y-13559722D02*
X15255777Y-13540674D01*
X15255777Y-13540674D02*
X15236730Y-13531150D01*
X15236730Y-13531150D02*
X15208158Y-13531150D01*
X15208158Y-13531150D02*
X15189110Y-13540674D01*
X15189110Y-13540674D02*
X15179587Y-13550198D01*
X15389110Y-13664484D02*
X15370063Y-13654960D01*
X15370063Y-13654960D02*
X15360539Y-13645436D01*
X15360539Y-13645436D02*
X15351015Y-13626388D01*
X15351015Y-13626388D02*
X15351015Y-13569246D01*
X15351015Y-13569246D02*
X15360539Y-13550198D01*
X15360539Y-13550198D02*
X15370063Y-13540674D01*
X15370063Y-13540674D02*
X15389110Y-13531150D01*
X15389110Y-13531150D02*
X15417682Y-13531150D01*
X15417682Y-13531150D02*
X15436730Y-13540674D01*
X15436730Y-13540674D02*
X15446253Y-13550198D01*
X15446253Y-13550198D02*
X15455777Y-13569246D01*
X15455777Y-13569246D02*
X15455777Y-13626388D01*
X15455777Y-13626388D02*
X15446253Y-13645436D01*
X15446253Y-13645436D02*
X15436730Y-13654960D01*
X15436730Y-13654960D02*
X15417682Y-13664484D01*
X15417682Y-13664484D02*
X15389110Y-13664484D01*
X15570063Y-13664484D02*
X15551015Y-13654960D01*
X15551015Y-13654960D02*
X15541491Y-13635912D01*
X15541491Y-13635912D02*
X15541491Y-13464484D01*
X15722444Y-13654960D02*
X15703396Y-13664484D01*
X15703396Y-13664484D02*
X15665301Y-13664484D01*
X15665301Y-13664484D02*
X15646253Y-13654960D01*
X15646253Y-13654960D02*
X15636730Y-13635912D01*
X15636730Y-13635912D02*
X15636730Y-13559722D01*
X15636730Y-13559722D02*
X15646253Y-13540674D01*
X15646253Y-13540674D02*
X15665301Y-13531150D01*
X15665301Y-13531150D02*
X15703396Y-13531150D01*
X15703396Y-13531150D02*
X15722444Y-13540674D01*
X15722444Y-13540674D02*
X15731968Y-13559722D01*
X15731968Y-13559722D02*
X15731968Y-13578769D01*
X15731968Y-13578769D02*
X15636730Y-13597817D01*
X15808158Y-13654960D02*
X15827206Y-13664484D01*
X15827206Y-13664484D02*
X15865301Y-13664484D01*
X15865301Y-13664484D02*
X15884349Y-13654960D01*
X15884349Y-13654960D02*
X15893872Y-13635912D01*
X15893872Y-13635912D02*
X15893872Y-13626388D01*
X15893872Y-13626388D02*
X15884349Y-13607341D01*
X15884349Y-13607341D02*
X15865301Y-13597817D01*
X15865301Y-13597817D02*
X15836730Y-13597817D01*
X15836730Y-13597817D02*
X15817682Y-13588293D01*
X15817682Y-13588293D02*
X15808158Y-13569246D01*
X15808158Y-13569246D02*
X15808158Y-13559722D01*
X15808158Y-13559722D02*
X15817682Y-13540674D01*
X15817682Y-13540674D02*
X15836730Y-13531150D01*
X15836730Y-13531150D02*
X15865301Y-13531150D01*
X15865301Y-13531150D02*
X15884349Y-13540674D01*
X15960539Y-13740674D02*
X15970063Y-13731150D01*
X15970063Y-13731150D02*
X15989111Y-13702579D01*
X15989111Y-13702579D02*
X15998634Y-13683531D01*
X15998634Y-13683531D02*
X16008158Y-13654960D01*
X16008158Y-13654960D02*
X16017682Y-13607341D01*
X16017682Y-13607341D02*
X16017682Y-13569246D01*
X16017682Y-13569246D02*
X16008158Y-13521627D01*
X16008158Y-13521627D02*
X15998634Y-13493055D01*
X15998634Y-13493055D02*
X15989111Y-13474008D01*
X15989111Y-13474008D02*
X15970063Y-13445436D01*
X15970063Y-13445436D02*
X15960539Y-13435912D01*
D10*
X10981088Y-13870588D02*
X10981088Y-13803412D01*
X10913912Y-13803412D01*
X10913912Y-13870588D01*
X10981088Y-13870588D01*
D11*
X11293872Y-13728484D02*
X11312920Y-13728484D01*
X11312920Y-13728484D02*
X11331967Y-13738008D01*
X11331967Y-13738008D02*
X11341491Y-13747531D01*
X11341491Y-13747531D02*
X11351015Y-13766579D01*
X11351015Y-13766579D02*
X11360539Y-13804674D01*
X11360539Y-13804674D02*
X11360539Y-13852293D01*
X11360539Y-13852293D02*
X11351015Y-13890388D01*
X11351015Y-13890388D02*
X11341491Y-13909436D01*
X11341491Y-13909436D02*
X11331967Y-13918960D01*
X11331967Y-13918960D02*
X11312920Y-13928484D01*
X11312920Y-13928484D02*
X11293872Y-13928484D01*
X11293872Y-13928484D02*
X11274824Y-13918960D01*
X11274824Y-13918960D02*
X11265301Y-13909436D01*
X11265301Y-13909436D02*
X11255777Y-13890388D01*
X11255777Y-13890388D02*
X11246253Y-13852293D01*
X11246253Y-13852293D02*
X11246253Y-13804674D01*
X11246253Y-13804674D02*
X11255777Y-13766579D01*
X11255777Y-13766579D02*
X11265301Y-13747531D01*
X11265301Y-13747531D02*
X11274824Y-13738008D01*
X11274824Y-13738008D02*
X11293872Y-13728484D01*
X11446253Y-13909436D02*
X11455777Y-13918960D01*
X11455777Y-13918960D02*
X11446253Y-13928484D01*
X11446253Y-13928484D02*
X11436729Y-13918960D01*
X11436729Y-13918960D02*
X11446253Y-13909436D01*
X11446253Y-13909436D02*
X11446253Y-13928484D01*
X11551015Y-13928484D02*
X11589110Y-13928484D01*
X11589110Y-13928484D02*
X11608158Y-13918960D01*
X11608158Y-13918960D02*
X11617682Y-13909436D01*
X11617682Y-13909436D02*
X11636729Y-13880865D01*
X11636729Y-13880865D02*
X11646253Y-13842769D01*
X11646253Y-13842769D02*
X11646253Y-13766579D01*
X11646253Y-13766579D02*
X11636729Y-13747531D01*
X11636729Y-13747531D02*
X11627205Y-13738008D01*
X11627205Y-13738008D02*
X11608158Y-13728484D01*
X11608158Y-13728484D02*
X11570062Y-13728484D01*
X11570062Y-13728484D02*
X11551015Y-13738008D01*
X11551015Y-13738008D02*
X11541491Y-13747531D01*
X11541491Y-13747531D02*
X11531967Y-13766579D01*
X11531967Y-13766579D02*
X11531967Y-13814198D01*
X11531967Y-13814198D02*
X11541491Y-13833246D01*
X11541491Y-13833246D02*
X11551015Y-13842769D01*
X11551015Y-13842769D02*
X11570062Y-13852293D01*
X11570062Y-13852293D02*
X11608158Y-13852293D01*
X11608158Y-13852293D02*
X11627205Y-13842769D01*
X11627205Y-13842769D02*
X11636729Y-13833246D01*
X11636729Y-13833246D02*
X11646253Y-13814198D01*
X11827205Y-13728484D02*
X11731967Y-13728484D01*
X11731967Y-13728484D02*
X11722443Y-13823722D01*
X11722443Y-13823722D02*
X11731967Y-13814198D01*
X11731967Y-13814198D02*
X11751015Y-13804674D01*
X11751015Y-13804674D02*
X11798634Y-13804674D01*
X11798634Y-13804674D02*
X11817682Y-13814198D01*
X11817682Y-13814198D02*
X11827205Y-13823722D01*
X11827205Y-13823722D02*
X11836729Y-13842769D01*
X11836729Y-13842769D02*
X11836729Y-13890388D01*
X11836729Y-13890388D02*
X11827205Y-13909436D01*
X11827205Y-13909436D02*
X11817682Y-13918960D01*
X11817682Y-13918960D02*
X11798634Y-13928484D01*
X11798634Y-13928484D02*
X11751015Y-13928484D01*
X11751015Y-13928484D02*
X11731967Y-13918960D01*
X11731967Y-13918960D02*
X11722443Y-13909436D01*
X11960539Y-13728484D02*
X11979586Y-13728484D01*
X11979586Y-13728484D02*
X11998634Y-13738008D01*
X11998634Y-13738008D02*
X12008158Y-13747531D01*
X12008158Y-13747531D02*
X12017682Y-13766579D01*
X12017682Y-13766579D02*
X12027205Y-13804674D01*
X12027205Y-13804674D02*
X12027205Y-13852293D01*
X12027205Y-13852293D02*
X12017682Y-13890388D01*
X12017682Y-13890388D02*
X12008158Y-13909436D01*
X12008158Y-13909436D02*
X11998634Y-13918960D01*
X11998634Y-13918960D02*
X11979586Y-13928484D01*
X11979586Y-13928484D02*
X11960539Y-13928484D01*
X11960539Y-13928484D02*
X11941491Y-13918960D01*
X11941491Y-13918960D02*
X11931967Y-13909436D01*
X11931967Y-13909436D02*
X11922443Y-13890388D01*
X11922443Y-13890388D02*
X11912920Y-13852293D01*
X11912920Y-13852293D02*
X11912920Y-13804674D01*
X11912920Y-13804674D02*
X11922443Y-13766579D01*
X11922443Y-13766579D02*
X11931967Y-13747531D01*
X11931967Y-13747531D02*
X11941491Y-13738008D01*
X11941491Y-13738008D02*
X11960539Y-13728484D01*
X12112920Y-13928484D02*
X12112920Y-13795150D01*
X12112920Y-13814198D02*
X12122443Y-13804674D01*
X12122443Y-13804674D02*
X12141491Y-13795150D01*
X12141491Y-13795150D02*
X12170063Y-13795150D01*
X12170063Y-13795150D02*
X12189110Y-13804674D01*
X12189110Y-13804674D02*
X12198634Y-13823722D01*
X12198634Y-13823722D02*
X12198634Y-13928484D01*
X12198634Y-13823722D02*
X12208158Y-13804674D01*
X12208158Y-13804674D02*
X12227205Y-13795150D01*
X12227205Y-13795150D02*
X12255777Y-13795150D01*
X12255777Y-13795150D02*
X12274824Y-13804674D01*
X12274824Y-13804674D02*
X12284348Y-13823722D01*
X12284348Y-13823722D02*
X12284348Y-13928484D01*
X12379586Y-13928484D02*
X12379586Y-13795150D01*
X12379586Y-13814198D02*
X12389110Y-13804674D01*
X12389110Y-13804674D02*
X12408158Y-13795150D01*
X12408158Y-13795150D02*
X12436729Y-13795150D01*
X12436729Y-13795150D02*
X12455777Y-13804674D01*
X12455777Y-13804674D02*
X12465301Y-13823722D01*
X12465301Y-13823722D02*
X12465301Y-13928484D01*
X12465301Y-13823722D02*
X12474824Y-13804674D01*
X12474824Y-13804674D02*
X12493872Y-13795150D01*
X12493872Y-13795150D02*
X12522443Y-13795150D01*
X12522443Y-13795150D02*
X12541491Y-13804674D01*
X12541491Y-13804674D02*
X12551015Y-13823722D01*
X12551015Y-13823722D02*
X12551015Y-13928484D01*
X12941491Y-13718960D02*
X12770063Y-13976103D01*
X13198634Y-13728484D02*
X13217682Y-13728484D01*
X13217682Y-13728484D02*
X13236729Y-13738008D01*
X13236729Y-13738008D02*
X13246253Y-13747531D01*
X13246253Y-13747531D02*
X13255777Y-13766579D01*
X13255777Y-13766579D02*
X13265301Y-13804674D01*
X13265301Y-13804674D02*
X13265301Y-13852293D01*
X13265301Y-13852293D02*
X13255777Y-13890388D01*
X13255777Y-13890388D02*
X13246253Y-13909436D01*
X13246253Y-13909436D02*
X13236729Y-13918960D01*
X13236729Y-13918960D02*
X13217682Y-13928484D01*
X13217682Y-13928484D02*
X13198634Y-13928484D01*
X13198634Y-13928484D02*
X13179586Y-13918960D01*
X13179586Y-13918960D02*
X13170063Y-13909436D01*
X13170063Y-13909436D02*
X13160539Y-13890388D01*
X13160539Y-13890388D02*
X13151015Y-13852293D01*
X13151015Y-13852293D02*
X13151015Y-13804674D01*
X13151015Y-13804674D02*
X13160539Y-13766579D01*
X13160539Y-13766579D02*
X13170063Y-13747531D01*
X13170063Y-13747531D02*
X13179586Y-13738008D01*
X13179586Y-13738008D02*
X13198634Y-13728484D01*
X13351015Y-13909436D02*
X13360539Y-13918960D01*
X13360539Y-13918960D02*
X13351015Y-13928484D01*
X13351015Y-13928484D02*
X13341491Y-13918960D01*
X13341491Y-13918960D02*
X13351015Y-13909436D01*
X13351015Y-13909436D02*
X13351015Y-13928484D01*
X13484348Y-13728484D02*
X13503396Y-13728484D01*
X13503396Y-13728484D02*
X13522444Y-13738008D01*
X13522444Y-13738008D02*
X13531967Y-13747531D01*
X13531967Y-13747531D02*
X13541491Y-13766579D01*
X13541491Y-13766579D02*
X13551015Y-13804674D01*
X13551015Y-13804674D02*
X13551015Y-13852293D01*
X13551015Y-13852293D02*
X13541491Y-13890388D01*
X13541491Y-13890388D02*
X13531967Y-13909436D01*
X13531967Y-13909436D02*
X13522444Y-13918960D01*
X13522444Y-13918960D02*
X13503396Y-13928484D01*
X13503396Y-13928484D02*
X13484348Y-13928484D01*
X13484348Y-13928484D02*
X13465301Y-13918960D01*
X13465301Y-13918960D02*
X13455777Y-13909436D01*
X13455777Y-13909436D02*
X13446253Y-13890388D01*
X13446253Y-13890388D02*
X13436729Y-13852293D01*
X13436729Y-13852293D02*
X13436729Y-13804674D01*
X13436729Y-13804674D02*
X13446253Y-13766579D01*
X13446253Y-13766579D02*
X13455777Y-13747531D01*
X13455777Y-13747531D02*
X13465301Y-13738008D01*
X13465301Y-13738008D02*
X13484348Y-13728484D01*
X13617682Y-13728484D02*
X13741491Y-13728484D01*
X13741491Y-13728484D02*
X13674825Y-13804674D01*
X13674825Y-13804674D02*
X13703396Y-13804674D01*
X13703396Y-13804674D02*
X13722444Y-13814198D01*
X13722444Y-13814198D02*
X13731967Y-13823722D01*
X13731967Y-13823722D02*
X13741491Y-13842769D01*
X13741491Y-13842769D02*
X13741491Y-13890388D01*
X13741491Y-13890388D02*
X13731967Y-13909436D01*
X13731967Y-13909436D02*
X13722444Y-13918960D01*
X13722444Y-13918960D02*
X13703396Y-13928484D01*
X13703396Y-13928484D02*
X13646253Y-13928484D01*
X13646253Y-13928484D02*
X13627206Y-13918960D01*
X13627206Y-13918960D02*
X13617682Y-13909436D01*
X13808158Y-13728484D02*
X13941491Y-13728484D01*
X13941491Y-13728484D02*
X13855777Y-13928484D01*
X14103396Y-13795150D02*
X14103396Y-13928484D01*
X14055777Y-13718960D02*
X14008158Y-13861817D01*
X14008158Y-13861817D02*
X14131967Y-13861817D01*
X14198634Y-13728484D02*
X14198634Y-13766579D01*
X14274825Y-13728484D02*
X14274825Y-13766579D01*
X14570063Y-14004674D02*
X14560539Y-13995150D01*
X14560539Y-13995150D02*
X14541491Y-13966579D01*
X14541491Y-13966579D02*
X14531968Y-13947531D01*
X14531968Y-13947531D02*
X14522444Y-13918960D01*
X14522444Y-13918960D02*
X14512920Y-13871341D01*
X14512920Y-13871341D02*
X14512920Y-13833246D01*
X14512920Y-13833246D02*
X14522444Y-13785627D01*
X14522444Y-13785627D02*
X14531968Y-13757055D01*
X14531968Y-13757055D02*
X14541491Y-13738008D01*
X14541491Y-13738008D02*
X14560539Y-13709436D01*
X14560539Y-13709436D02*
X14570063Y-13699912D01*
X14751015Y-13928484D02*
X14636729Y-13928484D01*
X14693872Y-13928484D02*
X14693872Y-13728484D01*
X14693872Y-13728484D02*
X14674825Y-13757055D01*
X14674825Y-13757055D02*
X14655777Y-13776103D01*
X14655777Y-13776103D02*
X14636729Y-13785627D01*
X14827206Y-13747531D02*
X14836729Y-13738008D01*
X14836729Y-13738008D02*
X14855777Y-13728484D01*
X14855777Y-13728484D02*
X14903396Y-13728484D01*
X14903396Y-13728484D02*
X14922444Y-13738008D01*
X14922444Y-13738008D02*
X14931968Y-13747531D01*
X14931968Y-13747531D02*
X14941491Y-13766579D01*
X14941491Y-13766579D02*
X14941491Y-13785627D01*
X14941491Y-13785627D02*
X14931968Y-13814198D01*
X14931968Y-13814198D02*
X14817682Y-13928484D01*
X14817682Y-13928484D02*
X14941491Y-13928484D01*
X15179587Y-13928484D02*
X15179587Y-13728484D01*
X15265301Y-13928484D02*
X15265301Y-13823722D01*
X15265301Y-13823722D02*
X15255777Y-13804674D01*
X15255777Y-13804674D02*
X15236730Y-13795150D01*
X15236730Y-13795150D02*
X15208158Y-13795150D01*
X15208158Y-13795150D02*
X15189110Y-13804674D01*
X15189110Y-13804674D02*
X15179587Y-13814198D01*
X15389110Y-13928484D02*
X15370063Y-13918960D01*
X15370063Y-13918960D02*
X15360539Y-13909436D01*
X15360539Y-13909436D02*
X15351015Y-13890388D01*
X15351015Y-13890388D02*
X15351015Y-13833246D01*
X15351015Y-13833246D02*
X15360539Y-13814198D01*
X15360539Y-13814198D02*
X15370063Y-13804674D01*
X15370063Y-13804674D02*
X15389110Y-13795150D01*
X15389110Y-13795150D02*
X15417682Y-13795150D01*
X15417682Y-13795150D02*
X15436730Y-13804674D01*
X15436730Y-13804674D02*
X15446253Y-13814198D01*
X15446253Y-13814198D02*
X15455777Y-13833246D01*
X15455777Y-13833246D02*
X15455777Y-13890388D01*
X15455777Y-13890388D02*
X15446253Y-13909436D01*
X15446253Y-13909436D02*
X15436730Y-13918960D01*
X15436730Y-13918960D02*
X15417682Y-13928484D01*
X15417682Y-13928484D02*
X15389110Y-13928484D01*
X15570063Y-13928484D02*
X15551015Y-13918960D01*
X15551015Y-13918960D02*
X15541491Y-13899912D01*
X15541491Y-13899912D02*
X15541491Y-13728484D01*
X15722444Y-13918960D02*
X15703396Y-13928484D01*
X15703396Y-13928484D02*
X15665301Y-13928484D01*
X15665301Y-13928484D02*
X15646253Y-13918960D01*
X15646253Y-13918960D02*
X15636730Y-13899912D01*
X15636730Y-13899912D02*
X15636730Y-13823722D01*
X15636730Y-13823722D02*
X15646253Y-13804674D01*
X15646253Y-13804674D02*
X15665301Y-13795150D01*
X15665301Y-13795150D02*
X15703396Y-13795150D01*
X15703396Y-13795150D02*
X15722444Y-13804674D01*
X15722444Y-13804674D02*
X15731968Y-13823722D01*
X15731968Y-13823722D02*
X15731968Y-13842769D01*
X15731968Y-13842769D02*
X15636730Y-13861817D01*
X15808158Y-13918960D02*
X15827206Y-13928484D01*
X15827206Y-13928484D02*
X15865301Y-13928484D01*
X15865301Y-13928484D02*
X15884349Y-13918960D01*
X15884349Y-13918960D02*
X15893872Y-13899912D01*
X15893872Y-13899912D02*
X15893872Y-13890388D01*
X15893872Y-13890388D02*
X15884349Y-13871341D01*
X15884349Y-13871341D02*
X15865301Y-13861817D01*
X15865301Y-13861817D02*
X15836730Y-13861817D01*
X15836730Y-13861817D02*
X15817682Y-13852293D01*
X15817682Y-13852293D02*
X15808158Y-13833246D01*
X15808158Y-13833246D02*
X15808158Y-13823722D01*
X15808158Y-13823722D02*
X15817682Y-13804674D01*
X15817682Y-13804674D02*
X15836730Y-13795150D01*
X15836730Y-13795150D02*
X15865301Y-13795150D01*
X15865301Y-13795150D02*
X15884349Y-13804674D01*
X15960539Y-14004674D02*
X15970063Y-13995150D01*
X15970063Y-13995150D02*
X15989111Y-13966579D01*
X15989111Y-13966579D02*
X15998634Y-13947531D01*
X15998634Y-13947531D02*
X16008158Y-13918960D01*
X16008158Y-13918960D02*
X16017682Y-13871341D01*
X16017682Y-13871341D02*
X16017682Y-13833246D01*
X16017682Y-13833246D02*
X16008158Y-13785627D01*
X16008158Y-13785627D02*
X15998634Y-13757055D01*
X15998634Y-13757055D02*
X15989111Y-13738008D01*
X15989111Y-13738008D02*
X15970063Y-13709436D01*
X15970063Y-13709436D02*
X15960539Y-13699912D01*
D10*
X10945000Y-14151000D02*
X10995000Y-14101000D01*
X10945000Y-14051000D01*
X10895000Y-14101000D01*
X10945000Y-14151000D01*
D11*
X11360539Y-14192484D02*
X11246253Y-14192484D01*
X11303396Y-14192484D02*
X11303396Y-13992484D01*
X11303396Y-13992484D02*
X11284348Y-14021055D01*
X11284348Y-14021055D02*
X11265301Y-14040103D01*
X11265301Y-14040103D02*
X11246253Y-14049627D01*
X11446253Y-14173436D02*
X11455777Y-14182960D01*
X11455777Y-14182960D02*
X11446253Y-14192484D01*
X11446253Y-14192484D02*
X11436729Y-14182960D01*
X11436729Y-14182960D02*
X11446253Y-14173436D01*
X11446253Y-14173436D02*
X11446253Y-14192484D01*
X11579586Y-13992484D02*
X11598634Y-13992484D01*
X11598634Y-13992484D02*
X11617682Y-14002008D01*
X11617682Y-14002008D02*
X11627205Y-14011531D01*
X11627205Y-14011531D02*
X11636729Y-14030579D01*
X11636729Y-14030579D02*
X11646253Y-14068674D01*
X11646253Y-14068674D02*
X11646253Y-14116293D01*
X11646253Y-14116293D02*
X11636729Y-14154388D01*
X11636729Y-14154388D02*
X11627205Y-14173436D01*
X11627205Y-14173436D02*
X11617682Y-14182960D01*
X11617682Y-14182960D02*
X11598634Y-14192484D01*
X11598634Y-14192484D02*
X11579586Y-14192484D01*
X11579586Y-14192484D02*
X11560539Y-14182960D01*
X11560539Y-14182960D02*
X11551015Y-14173436D01*
X11551015Y-14173436D02*
X11541491Y-14154388D01*
X11541491Y-14154388D02*
X11531967Y-14116293D01*
X11531967Y-14116293D02*
X11531967Y-14068674D01*
X11531967Y-14068674D02*
X11541491Y-14030579D01*
X11541491Y-14030579D02*
X11551015Y-14011531D01*
X11551015Y-14011531D02*
X11560539Y-14002008D01*
X11560539Y-14002008D02*
X11579586Y-13992484D01*
X11770062Y-13992484D02*
X11789110Y-13992484D01*
X11789110Y-13992484D02*
X11808158Y-14002008D01*
X11808158Y-14002008D02*
X11817682Y-14011531D01*
X11817682Y-14011531D02*
X11827205Y-14030579D01*
X11827205Y-14030579D02*
X11836729Y-14068674D01*
X11836729Y-14068674D02*
X11836729Y-14116293D01*
X11836729Y-14116293D02*
X11827205Y-14154388D01*
X11827205Y-14154388D02*
X11817682Y-14173436D01*
X11817682Y-14173436D02*
X11808158Y-14182960D01*
X11808158Y-14182960D02*
X11789110Y-14192484D01*
X11789110Y-14192484D02*
X11770062Y-14192484D01*
X11770062Y-14192484D02*
X11751015Y-14182960D01*
X11751015Y-14182960D02*
X11741491Y-14173436D01*
X11741491Y-14173436D02*
X11731967Y-14154388D01*
X11731967Y-14154388D02*
X11722443Y-14116293D01*
X11722443Y-14116293D02*
X11722443Y-14068674D01*
X11722443Y-14068674D02*
X11731967Y-14030579D01*
X11731967Y-14030579D02*
X11741491Y-14011531D01*
X11741491Y-14011531D02*
X11751015Y-14002008D01*
X11751015Y-14002008D02*
X11770062Y-13992484D01*
X11960539Y-13992484D02*
X11979586Y-13992484D01*
X11979586Y-13992484D02*
X11998634Y-14002008D01*
X11998634Y-14002008D02*
X12008158Y-14011531D01*
X12008158Y-14011531D02*
X12017682Y-14030579D01*
X12017682Y-14030579D02*
X12027205Y-14068674D01*
X12027205Y-14068674D02*
X12027205Y-14116293D01*
X12027205Y-14116293D02*
X12017682Y-14154388D01*
X12017682Y-14154388D02*
X12008158Y-14173436D01*
X12008158Y-14173436D02*
X11998634Y-14182960D01*
X11998634Y-14182960D02*
X11979586Y-14192484D01*
X11979586Y-14192484D02*
X11960539Y-14192484D01*
X11960539Y-14192484D02*
X11941491Y-14182960D01*
X11941491Y-14182960D02*
X11931967Y-14173436D01*
X11931967Y-14173436D02*
X11922443Y-14154388D01*
X11922443Y-14154388D02*
X11912920Y-14116293D01*
X11912920Y-14116293D02*
X11912920Y-14068674D01*
X11912920Y-14068674D02*
X11922443Y-14030579D01*
X11922443Y-14030579D02*
X11931967Y-14011531D01*
X11931967Y-14011531D02*
X11941491Y-14002008D01*
X11941491Y-14002008D02*
X11960539Y-13992484D01*
X12112920Y-14192484D02*
X12112920Y-14059150D01*
X12112920Y-14078198D02*
X12122443Y-14068674D01*
X12122443Y-14068674D02*
X12141491Y-14059150D01*
X12141491Y-14059150D02*
X12170063Y-14059150D01*
X12170063Y-14059150D02*
X12189110Y-14068674D01*
X12189110Y-14068674D02*
X12198634Y-14087722D01*
X12198634Y-14087722D02*
X12198634Y-14192484D01*
X12198634Y-14087722D02*
X12208158Y-14068674D01*
X12208158Y-14068674D02*
X12227205Y-14059150D01*
X12227205Y-14059150D02*
X12255777Y-14059150D01*
X12255777Y-14059150D02*
X12274824Y-14068674D01*
X12274824Y-14068674D02*
X12284348Y-14087722D01*
X12284348Y-14087722D02*
X12284348Y-14192484D01*
X12379586Y-14192484D02*
X12379586Y-14059150D01*
X12379586Y-14078198D02*
X12389110Y-14068674D01*
X12389110Y-14068674D02*
X12408158Y-14059150D01*
X12408158Y-14059150D02*
X12436729Y-14059150D01*
X12436729Y-14059150D02*
X12455777Y-14068674D01*
X12455777Y-14068674D02*
X12465301Y-14087722D01*
X12465301Y-14087722D02*
X12465301Y-14192484D01*
X12465301Y-14087722D02*
X12474824Y-14068674D01*
X12474824Y-14068674D02*
X12493872Y-14059150D01*
X12493872Y-14059150D02*
X12522443Y-14059150D01*
X12522443Y-14059150D02*
X12541491Y-14068674D01*
X12541491Y-14068674D02*
X12551015Y-14087722D01*
X12551015Y-14087722D02*
X12551015Y-14192484D01*
X12941491Y-13982960D02*
X12770063Y-14240103D01*
X13198634Y-13992484D02*
X13217682Y-13992484D01*
X13217682Y-13992484D02*
X13236729Y-14002008D01*
X13236729Y-14002008D02*
X13246253Y-14011531D01*
X13246253Y-14011531D02*
X13255777Y-14030579D01*
X13255777Y-14030579D02*
X13265301Y-14068674D01*
X13265301Y-14068674D02*
X13265301Y-14116293D01*
X13265301Y-14116293D02*
X13255777Y-14154388D01*
X13255777Y-14154388D02*
X13246253Y-14173436D01*
X13246253Y-14173436D02*
X13236729Y-14182960D01*
X13236729Y-14182960D02*
X13217682Y-14192484D01*
X13217682Y-14192484D02*
X13198634Y-14192484D01*
X13198634Y-14192484D02*
X13179586Y-14182960D01*
X13179586Y-14182960D02*
X13170063Y-14173436D01*
X13170063Y-14173436D02*
X13160539Y-14154388D01*
X13160539Y-14154388D02*
X13151015Y-14116293D01*
X13151015Y-14116293D02*
X13151015Y-14068674D01*
X13151015Y-14068674D02*
X13160539Y-14030579D01*
X13160539Y-14030579D02*
X13170063Y-14011531D01*
X13170063Y-14011531D02*
X13179586Y-14002008D01*
X13179586Y-14002008D02*
X13198634Y-13992484D01*
X13351015Y-14173436D02*
X13360539Y-14182960D01*
X13360539Y-14182960D02*
X13351015Y-14192484D01*
X13351015Y-14192484D02*
X13341491Y-14182960D01*
X13341491Y-14182960D02*
X13351015Y-14173436D01*
X13351015Y-14173436D02*
X13351015Y-14192484D01*
X13484348Y-13992484D02*
X13503396Y-13992484D01*
X13503396Y-13992484D02*
X13522444Y-14002008D01*
X13522444Y-14002008D02*
X13531967Y-14011531D01*
X13531967Y-14011531D02*
X13541491Y-14030579D01*
X13541491Y-14030579D02*
X13551015Y-14068674D01*
X13551015Y-14068674D02*
X13551015Y-14116293D01*
X13551015Y-14116293D02*
X13541491Y-14154388D01*
X13541491Y-14154388D02*
X13531967Y-14173436D01*
X13531967Y-14173436D02*
X13522444Y-14182960D01*
X13522444Y-14182960D02*
X13503396Y-14192484D01*
X13503396Y-14192484D02*
X13484348Y-14192484D01*
X13484348Y-14192484D02*
X13465301Y-14182960D01*
X13465301Y-14182960D02*
X13455777Y-14173436D01*
X13455777Y-14173436D02*
X13446253Y-14154388D01*
X13446253Y-14154388D02*
X13436729Y-14116293D01*
X13436729Y-14116293D02*
X13436729Y-14068674D01*
X13436729Y-14068674D02*
X13446253Y-14030579D01*
X13446253Y-14030579D02*
X13455777Y-14011531D01*
X13455777Y-14011531D02*
X13465301Y-14002008D01*
X13465301Y-14002008D02*
X13484348Y-13992484D01*
X13617682Y-13992484D02*
X13741491Y-13992484D01*
X13741491Y-13992484D02*
X13674825Y-14068674D01*
X13674825Y-14068674D02*
X13703396Y-14068674D01*
X13703396Y-14068674D02*
X13722444Y-14078198D01*
X13722444Y-14078198D02*
X13731967Y-14087722D01*
X13731967Y-14087722D02*
X13741491Y-14106769D01*
X13741491Y-14106769D02*
X13741491Y-14154388D01*
X13741491Y-14154388D02*
X13731967Y-14173436D01*
X13731967Y-14173436D02*
X13722444Y-14182960D01*
X13722444Y-14182960D02*
X13703396Y-14192484D01*
X13703396Y-14192484D02*
X13646253Y-14192484D01*
X13646253Y-14192484D02*
X13627206Y-14182960D01*
X13627206Y-14182960D02*
X13617682Y-14173436D01*
X13836729Y-14192484D02*
X13874825Y-14192484D01*
X13874825Y-14192484D02*
X13893872Y-14182960D01*
X13893872Y-14182960D02*
X13903396Y-14173436D01*
X13903396Y-14173436D02*
X13922444Y-14144865D01*
X13922444Y-14144865D02*
X13931967Y-14106769D01*
X13931967Y-14106769D02*
X13931967Y-14030579D01*
X13931967Y-14030579D02*
X13922444Y-14011531D01*
X13922444Y-14011531D02*
X13912920Y-14002008D01*
X13912920Y-14002008D02*
X13893872Y-13992484D01*
X13893872Y-13992484D02*
X13855777Y-13992484D01*
X13855777Y-13992484D02*
X13836729Y-14002008D01*
X13836729Y-14002008D02*
X13827206Y-14011531D01*
X13827206Y-14011531D02*
X13817682Y-14030579D01*
X13817682Y-14030579D02*
X13817682Y-14078198D01*
X13817682Y-14078198D02*
X13827206Y-14097246D01*
X13827206Y-14097246D02*
X13836729Y-14106769D01*
X13836729Y-14106769D02*
X13855777Y-14116293D01*
X13855777Y-14116293D02*
X13893872Y-14116293D01*
X13893872Y-14116293D02*
X13912920Y-14106769D01*
X13912920Y-14106769D02*
X13922444Y-14097246D01*
X13922444Y-14097246D02*
X13931967Y-14078198D01*
X14103396Y-14059150D02*
X14103396Y-14192484D01*
X14055777Y-13982960D02*
X14008158Y-14125817D01*
X14008158Y-14125817D02*
X14131967Y-14125817D01*
X14198634Y-13992484D02*
X14198634Y-14030579D01*
X14274825Y-13992484D02*
X14274825Y-14030579D01*
X14570063Y-14268674D02*
X14560539Y-14259150D01*
X14560539Y-14259150D02*
X14541491Y-14230579D01*
X14541491Y-14230579D02*
X14531968Y-14211531D01*
X14531968Y-14211531D02*
X14522444Y-14182960D01*
X14522444Y-14182960D02*
X14512920Y-14135341D01*
X14512920Y-14135341D02*
X14512920Y-14097246D01*
X14512920Y-14097246D02*
X14522444Y-14049627D01*
X14522444Y-14049627D02*
X14531968Y-14021055D01*
X14531968Y-14021055D02*
X14541491Y-14002008D01*
X14541491Y-14002008D02*
X14560539Y-13973436D01*
X14560539Y-13973436D02*
X14570063Y-13963912D01*
X14636729Y-14011531D02*
X14646253Y-14002008D01*
X14646253Y-14002008D02*
X14665301Y-13992484D01*
X14665301Y-13992484D02*
X14712920Y-13992484D01*
X14712920Y-13992484D02*
X14731968Y-14002008D01*
X14731968Y-14002008D02*
X14741491Y-14011531D01*
X14741491Y-14011531D02*
X14751015Y-14030579D01*
X14751015Y-14030579D02*
X14751015Y-14049627D01*
X14751015Y-14049627D02*
X14741491Y-14078198D01*
X14741491Y-14078198D02*
X14627206Y-14192484D01*
X14627206Y-14192484D02*
X14751015Y-14192484D01*
X14989110Y-14192484D02*
X14989110Y-13992484D01*
X15074825Y-14192484D02*
X15074825Y-14087722D01*
X15074825Y-14087722D02*
X15065301Y-14068674D01*
X15065301Y-14068674D02*
X15046253Y-14059150D01*
X15046253Y-14059150D02*
X15017682Y-14059150D01*
X15017682Y-14059150D02*
X14998634Y-14068674D01*
X14998634Y-14068674D02*
X14989110Y-14078198D01*
X15198634Y-14192484D02*
X15179587Y-14182960D01*
X15179587Y-14182960D02*
X15170063Y-14173436D01*
X15170063Y-14173436D02*
X15160539Y-14154388D01*
X15160539Y-14154388D02*
X15160539Y-14097246D01*
X15160539Y-14097246D02*
X15170063Y-14078198D01*
X15170063Y-14078198D02*
X15179587Y-14068674D01*
X15179587Y-14068674D02*
X15198634Y-14059150D01*
X15198634Y-14059150D02*
X15227206Y-14059150D01*
X15227206Y-14059150D02*
X15246253Y-14068674D01*
X15246253Y-14068674D02*
X15255777Y-14078198D01*
X15255777Y-14078198D02*
X15265301Y-14097246D01*
X15265301Y-14097246D02*
X15265301Y-14154388D01*
X15265301Y-14154388D02*
X15255777Y-14173436D01*
X15255777Y-14173436D02*
X15246253Y-14182960D01*
X15246253Y-14182960D02*
X15227206Y-14192484D01*
X15227206Y-14192484D02*
X15198634Y-14192484D01*
X15379587Y-14192484D02*
X15360539Y-14182960D01*
X15360539Y-14182960D02*
X15351015Y-14163912D01*
X15351015Y-14163912D02*
X15351015Y-13992484D01*
X15531968Y-14182960D02*
X15512920Y-14192484D01*
X15512920Y-14192484D02*
X15474825Y-14192484D01*
X15474825Y-14192484D02*
X15455777Y-14182960D01*
X15455777Y-14182960D02*
X15446253Y-14163912D01*
X15446253Y-14163912D02*
X15446253Y-14087722D01*
X15446253Y-14087722D02*
X15455777Y-14068674D01*
X15455777Y-14068674D02*
X15474825Y-14059150D01*
X15474825Y-14059150D02*
X15512920Y-14059150D01*
X15512920Y-14059150D02*
X15531968Y-14068674D01*
X15531968Y-14068674D02*
X15541491Y-14087722D01*
X15541491Y-14087722D02*
X15541491Y-14106769D01*
X15541491Y-14106769D02*
X15446253Y-14125817D01*
X15617682Y-14182960D02*
X15636730Y-14192484D01*
X15636730Y-14192484D02*
X15674825Y-14192484D01*
X15674825Y-14192484D02*
X15693872Y-14182960D01*
X15693872Y-14182960D02*
X15703396Y-14163912D01*
X15703396Y-14163912D02*
X15703396Y-14154388D01*
X15703396Y-14154388D02*
X15693872Y-14135341D01*
X15693872Y-14135341D02*
X15674825Y-14125817D01*
X15674825Y-14125817D02*
X15646253Y-14125817D01*
X15646253Y-14125817D02*
X15627206Y-14116293D01*
X15627206Y-14116293D02*
X15617682Y-14097246D01*
X15617682Y-14097246D02*
X15617682Y-14087722D01*
X15617682Y-14087722D02*
X15627206Y-14068674D01*
X15627206Y-14068674D02*
X15646253Y-14059150D01*
X15646253Y-14059150D02*
X15674825Y-14059150D01*
X15674825Y-14059150D02*
X15693872Y-14068674D01*
X15770063Y-14268674D02*
X15779587Y-14259150D01*
X15779587Y-14259150D02*
X15798634Y-14230579D01*
X15798634Y-14230579D02*
X15808158Y-14211531D01*
X15808158Y-14211531D02*
X15817682Y-14182960D01*
X15817682Y-14182960D02*
X15827206Y-14135341D01*
X15827206Y-14135341D02*
X15827206Y-14097246D01*
X15827206Y-14097246D02*
X15817682Y-14049627D01*
X15817682Y-14049627D02*
X15808158Y-14021055D01*
X15808158Y-14021055D02*
X15798634Y-14002008D01*
X15798634Y-14002008D02*
X15779587Y-13973436D01*
X15779587Y-13973436D02*
X15770063Y-13963912D01*
X10795000Y-14265000D02*
X10995000Y-14465000D01*
X10995000Y-14265000D02*
X10795000Y-14465000D01*
X10995000Y-14365000D02*
G75*
G02*
X10795000Y-14365000I-100000J0D01*
G01*
X10795000Y-14365000D02*
G75*
G02*
X10995000Y-14365000I100000J0D01*
G01*
X11341491Y-14323150D02*
X11341491Y-14456484D01*
X11293872Y-14246960D02*
X11246253Y-14389817D01*
X11246253Y-14389817D02*
X11370062Y-14389817D01*
X11446253Y-14437436D02*
X11455777Y-14446960D01*
X11455777Y-14446960D02*
X11446253Y-14456484D01*
X11446253Y-14456484D02*
X11436729Y-14446960D01*
X11436729Y-14446960D02*
X11446253Y-14437436D01*
X11446253Y-14437436D02*
X11446253Y-14456484D01*
X11522443Y-14256484D02*
X11646253Y-14256484D01*
X11646253Y-14256484D02*
X11579586Y-14332674D01*
X11579586Y-14332674D02*
X11608158Y-14332674D01*
X11608158Y-14332674D02*
X11627205Y-14342198D01*
X11627205Y-14342198D02*
X11636729Y-14351722D01*
X11636729Y-14351722D02*
X11646253Y-14370769D01*
X11646253Y-14370769D02*
X11646253Y-14418388D01*
X11646253Y-14418388D02*
X11636729Y-14437436D01*
X11636729Y-14437436D02*
X11627205Y-14446960D01*
X11627205Y-14446960D02*
X11608158Y-14456484D01*
X11608158Y-14456484D02*
X11551015Y-14456484D01*
X11551015Y-14456484D02*
X11531967Y-14446960D01*
X11531967Y-14446960D02*
X11522443Y-14437436D01*
X11770062Y-14256484D02*
X11789110Y-14256484D01*
X11789110Y-14256484D02*
X11808158Y-14266008D01*
X11808158Y-14266008D02*
X11817682Y-14275531D01*
X11817682Y-14275531D02*
X11827205Y-14294579D01*
X11827205Y-14294579D02*
X11836729Y-14332674D01*
X11836729Y-14332674D02*
X11836729Y-14380293D01*
X11836729Y-14380293D02*
X11827205Y-14418388D01*
X11827205Y-14418388D02*
X11817682Y-14437436D01*
X11817682Y-14437436D02*
X11808158Y-14446960D01*
X11808158Y-14446960D02*
X11789110Y-14456484D01*
X11789110Y-14456484D02*
X11770062Y-14456484D01*
X11770062Y-14456484D02*
X11751015Y-14446960D01*
X11751015Y-14446960D02*
X11741491Y-14437436D01*
X11741491Y-14437436D02*
X11731967Y-14418388D01*
X11731967Y-14418388D02*
X11722443Y-14380293D01*
X11722443Y-14380293D02*
X11722443Y-14332674D01*
X11722443Y-14332674D02*
X11731967Y-14294579D01*
X11731967Y-14294579D02*
X11741491Y-14275531D01*
X11741491Y-14275531D02*
X11751015Y-14266008D01*
X11751015Y-14266008D02*
X11770062Y-14256484D01*
X11960539Y-14256484D02*
X11979586Y-14256484D01*
X11979586Y-14256484D02*
X11998634Y-14266008D01*
X11998634Y-14266008D02*
X12008158Y-14275531D01*
X12008158Y-14275531D02*
X12017682Y-14294579D01*
X12017682Y-14294579D02*
X12027205Y-14332674D01*
X12027205Y-14332674D02*
X12027205Y-14380293D01*
X12027205Y-14380293D02*
X12017682Y-14418388D01*
X12017682Y-14418388D02*
X12008158Y-14437436D01*
X12008158Y-14437436D02*
X11998634Y-14446960D01*
X11998634Y-14446960D02*
X11979586Y-14456484D01*
X11979586Y-14456484D02*
X11960539Y-14456484D01*
X11960539Y-14456484D02*
X11941491Y-14446960D01*
X11941491Y-14446960D02*
X11931967Y-14437436D01*
X11931967Y-14437436D02*
X11922443Y-14418388D01*
X11922443Y-14418388D02*
X11912920Y-14380293D01*
X11912920Y-14380293D02*
X11912920Y-14332674D01*
X11912920Y-14332674D02*
X11922443Y-14294579D01*
X11922443Y-14294579D02*
X11931967Y-14275531D01*
X11931967Y-14275531D02*
X11941491Y-14266008D01*
X11941491Y-14266008D02*
X11960539Y-14256484D01*
X12112920Y-14456484D02*
X12112920Y-14323150D01*
X12112920Y-14342198D02*
X12122443Y-14332674D01*
X12122443Y-14332674D02*
X12141491Y-14323150D01*
X12141491Y-14323150D02*
X12170063Y-14323150D01*
X12170063Y-14323150D02*
X12189110Y-14332674D01*
X12189110Y-14332674D02*
X12198634Y-14351722D01*
X12198634Y-14351722D02*
X12198634Y-14456484D01*
X12198634Y-14351722D02*
X12208158Y-14332674D01*
X12208158Y-14332674D02*
X12227205Y-14323150D01*
X12227205Y-14323150D02*
X12255777Y-14323150D01*
X12255777Y-14323150D02*
X12274824Y-14332674D01*
X12274824Y-14332674D02*
X12284348Y-14351722D01*
X12284348Y-14351722D02*
X12284348Y-14456484D01*
X12379586Y-14456484D02*
X12379586Y-14323150D01*
X12379586Y-14342198D02*
X12389110Y-14332674D01*
X12389110Y-14332674D02*
X12408158Y-14323150D01*
X12408158Y-14323150D02*
X12436729Y-14323150D01*
X12436729Y-14323150D02*
X12455777Y-14332674D01*
X12455777Y-14332674D02*
X12465301Y-14351722D01*
X12465301Y-14351722D02*
X12465301Y-14456484D01*
X12465301Y-14351722D02*
X12474824Y-14332674D01*
X12474824Y-14332674D02*
X12493872Y-14323150D01*
X12493872Y-14323150D02*
X12522443Y-14323150D01*
X12522443Y-14323150D02*
X12541491Y-14332674D01*
X12541491Y-14332674D02*
X12551015Y-14351722D01*
X12551015Y-14351722D02*
X12551015Y-14456484D01*
X12941491Y-14246960D02*
X12770063Y-14504103D01*
X13198634Y-14256484D02*
X13217682Y-14256484D01*
X13217682Y-14256484D02*
X13236729Y-14266008D01*
X13236729Y-14266008D02*
X13246253Y-14275531D01*
X13246253Y-14275531D02*
X13255777Y-14294579D01*
X13255777Y-14294579D02*
X13265301Y-14332674D01*
X13265301Y-14332674D02*
X13265301Y-14380293D01*
X13265301Y-14380293D02*
X13255777Y-14418388D01*
X13255777Y-14418388D02*
X13246253Y-14437436D01*
X13246253Y-14437436D02*
X13236729Y-14446960D01*
X13236729Y-14446960D02*
X13217682Y-14456484D01*
X13217682Y-14456484D02*
X13198634Y-14456484D01*
X13198634Y-14456484D02*
X13179586Y-14446960D01*
X13179586Y-14446960D02*
X13170063Y-14437436D01*
X13170063Y-14437436D02*
X13160539Y-14418388D01*
X13160539Y-14418388D02*
X13151015Y-14380293D01*
X13151015Y-14380293D02*
X13151015Y-14332674D01*
X13151015Y-14332674D02*
X13160539Y-14294579D01*
X13160539Y-14294579D02*
X13170063Y-14275531D01*
X13170063Y-14275531D02*
X13179586Y-14266008D01*
X13179586Y-14266008D02*
X13198634Y-14256484D01*
X13351015Y-14437436D02*
X13360539Y-14446960D01*
X13360539Y-14446960D02*
X13351015Y-14456484D01*
X13351015Y-14456484D02*
X13341491Y-14446960D01*
X13341491Y-14446960D02*
X13351015Y-14437436D01*
X13351015Y-14437436D02*
X13351015Y-14456484D01*
X13551015Y-14456484D02*
X13436729Y-14456484D01*
X13493872Y-14456484D02*
X13493872Y-14256484D01*
X13493872Y-14256484D02*
X13474825Y-14285055D01*
X13474825Y-14285055D02*
X13455777Y-14304103D01*
X13455777Y-14304103D02*
X13436729Y-14313627D01*
X13722444Y-14256484D02*
X13684348Y-14256484D01*
X13684348Y-14256484D02*
X13665301Y-14266008D01*
X13665301Y-14266008D02*
X13655777Y-14275531D01*
X13655777Y-14275531D02*
X13636729Y-14304103D01*
X13636729Y-14304103D02*
X13627206Y-14342198D01*
X13627206Y-14342198D02*
X13627206Y-14418388D01*
X13627206Y-14418388D02*
X13636729Y-14437436D01*
X13636729Y-14437436D02*
X13646253Y-14446960D01*
X13646253Y-14446960D02*
X13665301Y-14456484D01*
X13665301Y-14456484D02*
X13703396Y-14456484D01*
X13703396Y-14456484D02*
X13722444Y-14446960D01*
X13722444Y-14446960D02*
X13731967Y-14437436D01*
X13731967Y-14437436D02*
X13741491Y-14418388D01*
X13741491Y-14418388D02*
X13741491Y-14370769D01*
X13741491Y-14370769D02*
X13731967Y-14351722D01*
X13731967Y-14351722D02*
X13722444Y-14342198D01*
X13722444Y-14342198D02*
X13703396Y-14332674D01*
X13703396Y-14332674D02*
X13665301Y-14332674D01*
X13665301Y-14332674D02*
X13646253Y-14342198D01*
X13646253Y-14342198D02*
X13636729Y-14351722D01*
X13636729Y-14351722D02*
X13627206Y-14370769D01*
X13836729Y-14456484D02*
X13874825Y-14456484D01*
X13874825Y-14456484D02*
X13893872Y-14446960D01*
X13893872Y-14446960D02*
X13903396Y-14437436D01*
X13903396Y-14437436D02*
X13922444Y-14408865D01*
X13922444Y-14408865D02*
X13931967Y-14370769D01*
X13931967Y-14370769D02*
X13931967Y-14294579D01*
X13931967Y-14294579D02*
X13922444Y-14275531D01*
X13922444Y-14275531D02*
X13912920Y-14266008D01*
X13912920Y-14266008D02*
X13893872Y-14256484D01*
X13893872Y-14256484D02*
X13855777Y-14256484D01*
X13855777Y-14256484D02*
X13836729Y-14266008D01*
X13836729Y-14266008D02*
X13827206Y-14275531D01*
X13827206Y-14275531D02*
X13817682Y-14294579D01*
X13817682Y-14294579D02*
X13817682Y-14342198D01*
X13817682Y-14342198D02*
X13827206Y-14361246D01*
X13827206Y-14361246D02*
X13836729Y-14370769D01*
X13836729Y-14370769D02*
X13855777Y-14380293D01*
X13855777Y-14380293D02*
X13893872Y-14380293D01*
X13893872Y-14380293D02*
X13912920Y-14370769D01*
X13912920Y-14370769D02*
X13922444Y-14361246D01*
X13922444Y-14361246D02*
X13931967Y-14342198D01*
X13998634Y-14256484D02*
X14122444Y-14256484D01*
X14122444Y-14256484D02*
X14055777Y-14332674D01*
X14055777Y-14332674D02*
X14084348Y-14332674D01*
X14084348Y-14332674D02*
X14103396Y-14342198D01*
X14103396Y-14342198D02*
X14112920Y-14351722D01*
X14112920Y-14351722D02*
X14122444Y-14370769D01*
X14122444Y-14370769D02*
X14122444Y-14418388D01*
X14122444Y-14418388D02*
X14112920Y-14437436D01*
X14112920Y-14437436D02*
X14103396Y-14446960D01*
X14103396Y-14446960D02*
X14084348Y-14456484D01*
X14084348Y-14456484D02*
X14027206Y-14456484D01*
X14027206Y-14456484D02*
X14008158Y-14446960D01*
X14008158Y-14446960D02*
X13998634Y-14437436D01*
X14198634Y-14256484D02*
X14198634Y-14294579D01*
X14274825Y-14256484D02*
X14274825Y-14294579D01*
X14570063Y-14532674D02*
X14560539Y-14523150D01*
X14560539Y-14523150D02*
X14541491Y-14494579D01*
X14541491Y-14494579D02*
X14531968Y-14475531D01*
X14531968Y-14475531D02*
X14522444Y-14446960D01*
X14522444Y-14446960D02*
X14512920Y-14399341D01*
X14512920Y-14399341D02*
X14512920Y-14361246D01*
X14512920Y-14361246D02*
X14522444Y-14313627D01*
X14522444Y-14313627D02*
X14531968Y-14285055D01*
X14531968Y-14285055D02*
X14541491Y-14266008D01*
X14541491Y-14266008D02*
X14560539Y-14237436D01*
X14560539Y-14237436D02*
X14570063Y-14227912D01*
X14731968Y-14323150D02*
X14731968Y-14456484D01*
X14684348Y-14246960D02*
X14636729Y-14389817D01*
X14636729Y-14389817D02*
X14760539Y-14389817D01*
X14989110Y-14456484D02*
X14989110Y-14256484D01*
X15074825Y-14456484D02*
X15074825Y-14351722D01*
X15074825Y-14351722D02*
X15065301Y-14332674D01*
X15065301Y-14332674D02*
X15046253Y-14323150D01*
X15046253Y-14323150D02*
X15017682Y-14323150D01*
X15017682Y-14323150D02*
X14998634Y-14332674D01*
X14998634Y-14332674D02*
X14989110Y-14342198D01*
X15198634Y-14456484D02*
X15179587Y-14446960D01*
X15179587Y-14446960D02*
X15170063Y-14437436D01*
X15170063Y-14437436D02*
X15160539Y-14418388D01*
X15160539Y-14418388D02*
X15160539Y-14361246D01*
X15160539Y-14361246D02*
X15170063Y-14342198D01*
X15170063Y-14342198D02*
X15179587Y-14332674D01*
X15179587Y-14332674D02*
X15198634Y-14323150D01*
X15198634Y-14323150D02*
X15227206Y-14323150D01*
X15227206Y-14323150D02*
X15246253Y-14332674D01*
X15246253Y-14332674D02*
X15255777Y-14342198D01*
X15255777Y-14342198D02*
X15265301Y-14361246D01*
X15265301Y-14361246D02*
X15265301Y-14418388D01*
X15265301Y-14418388D02*
X15255777Y-14437436D01*
X15255777Y-14437436D02*
X15246253Y-14446960D01*
X15246253Y-14446960D02*
X15227206Y-14456484D01*
X15227206Y-14456484D02*
X15198634Y-14456484D01*
X15379587Y-14456484D02*
X15360539Y-14446960D01*
X15360539Y-14446960D02*
X15351015Y-14427912D01*
X15351015Y-14427912D02*
X15351015Y-14256484D01*
X15531968Y-14446960D02*
X15512920Y-14456484D01*
X15512920Y-14456484D02*
X15474825Y-14456484D01*
X15474825Y-14456484D02*
X15455777Y-14446960D01*
X15455777Y-14446960D02*
X15446253Y-14427912D01*
X15446253Y-14427912D02*
X15446253Y-14351722D01*
X15446253Y-14351722D02*
X15455777Y-14332674D01*
X15455777Y-14332674D02*
X15474825Y-14323150D01*
X15474825Y-14323150D02*
X15512920Y-14323150D01*
X15512920Y-14323150D02*
X15531968Y-14332674D01*
X15531968Y-14332674D02*
X15541491Y-14351722D01*
X15541491Y-14351722D02*
X15541491Y-14370769D01*
X15541491Y-14370769D02*
X15446253Y-14389817D01*
X15617682Y-14446960D02*
X15636730Y-14456484D01*
X15636730Y-14456484D02*
X15674825Y-14456484D01*
X15674825Y-14456484D02*
X15693872Y-14446960D01*
X15693872Y-14446960D02*
X15703396Y-14427912D01*
X15703396Y-14427912D02*
X15703396Y-14418388D01*
X15703396Y-14418388D02*
X15693872Y-14399341D01*
X15693872Y-14399341D02*
X15674825Y-14389817D01*
X15674825Y-14389817D02*
X15646253Y-14389817D01*
X15646253Y-14389817D02*
X15627206Y-14380293D01*
X15627206Y-14380293D02*
X15617682Y-14361246D01*
X15617682Y-14361246D02*
X15617682Y-14351722D01*
X15617682Y-14351722D02*
X15627206Y-14332674D01*
X15627206Y-14332674D02*
X15646253Y-14323150D01*
X15646253Y-14323150D02*
X15674825Y-14323150D01*
X15674825Y-14323150D02*
X15693872Y-14332674D01*
X15770063Y-14532674D02*
X15779587Y-14523150D01*
X15779587Y-14523150D02*
X15798634Y-14494579D01*
X15798634Y-14494579D02*
X15808158Y-14475531D01*
X15808158Y-14475531D02*
X15817682Y-14446960D01*
X15817682Y-14446960D02*
X15827206Y-14399341D01*
X15827206Y-14399341D02*
X15827206Y-14361246D01*
X15827206Y-14361246D02*
X15817682Y-14313627D01*
X15817682Y-14313627D02*
X15808158Y-14285055D01*
X15808158Y-14285055D02*
X15798634Y-14266008D01*
X15798634Y-14266008D02*
X15779587Y-14237436D01*
X15779587Y-14237436D02*
X15770063Y-14227912D01*
M02*
