%TF.GenerationSoftware,KiCad,Pcbnew,9.0.6*%
%TF.CreationDate,2026-05-16T23:07:35+05:30*%
%TF.ProjectId,AeroFusion Dev Board,4165726f-4675-4736-996f-6e2044657620,1*%
%TF.SameCoordinates,Original*%
%TF.FileFunction,Copper,L4,Bot*%
%TF.FilePolarity,Positive*%
%FSLAX46Y46*%
G04 Gerber Fmt 4.6, Leading zero omitted, Abs format (unit mm)*
G04 Created by KiCad (PCBNEW 9.0.6) date 2026-05-16 23:07:35*
%MOMM*%
%LPD*%
G01*
G04 APERTURE LIST*
G04 Aperture macros list*
%AMRoundRect*
0 Rectangle with rounded corners*
0 $1 Rounding radius*
0 $2 $3 $4 $5 $6 $7 $8 $9 X,Y pos of 4 corners*
0 Add a 4 corners polygon primitive as box body*
4,1,4,$2,$3,$4,$5,$6,$7,$8,$9,$2,$3,0*
0 Add four circle primitives for the rounded corners*
1,1,$1+$1,$2,$3*
1,1,$1+$1,$4,$5*
1,1,$1+$1,$6,$7*
1,1,$1+$1,$8,$9*
0 Add four rect primitives between the rounded corners*
20,1,$1+$1,$2,$3,$4,$5,0*
20,1,$1+$1,$4,$5,$6,$7,0*
20,1,$1+$1,$6,$7,$8,$9,0*
20,1,$1+$1,$8,$9,$2,$3,0*%
G04 Aperture macros list end*
%TA.AperFunction,ComponentPad*%
%ADD10C,0.900000*%
%TD*%
%TA.AperFunction,ComponentPad*%
%ADD11C,8.600000*%
%TD*%
%TA.AperFunction,ComponentPad*%
%ADD12RoundRect,0.250000X0.600000X0.725000X-0.600000X0.725000X-0.600000X-0.725000X0.600000X-0.725000X0*%
%TD*%
%TA.AperFunction,ComponentPad*%
%ADD13O,1.700000X1.950000*%
%TD*%
%TA.AperFunction,ComponentPad*%
%ADD14RoundRect,0.250000X-0.750000X0.600000X-0.750000X-0.600000X0.750000X-0.600000X0.750000X0.600000X0*%
%TD*%
%TA.AperFunction,ComponentPad*%
%ADD15O,2.000000X1.700000*%
%TD*%
%TA.AperFunction,ComponentPad*%
%ADD16RoundRect,0.250000X-0.600000X-0.725000X0.600000X-0.725000X0.600000X0.725000X-0.600000X0.725000X0*%
%TD*%
%TA.AperFunction,ViaPad*%
%ADD17C,0.450000*%
%TD*%
%TA.AperFunction,ViaPad*%
%ADD18C,0.700000*%
%TD*%
G04 APERTURE END LIST*
D10*
%TO.P,H4,1,1*%
%TO.N,GND*%
X117280419Y-116719581D03*
X115000000Y-115775000D03*
X111775000Y-119000000D03*
X112719581Y-116719581D03*
X118225000Y-119000000D03*
X115000000Y-122225000D03*
X112719581Y-121280419D03*
X117280419Y-121280419D03*
D11*
X115000000Y-119000000D03*
%TD*%
D12*
%TO.P,J3,1,Pin_1*%
%TO.N,+3.3V*%
X131100000Y-79450000D03*
D13*
%TO.P,J3,2,Pin_2*%
%TO.N,PWM*%
X128600000Y-79450000D03*
%TO.P,J3,3,Pin_3*%
%TO.N,GND*%
X126100000Y-79450000D03*
%TD*%
D12*
%TO.P,J4,1,Pin_1*%
%TO.N,+3.3V*%
X143900000Y-79450000D03*
D13*
%TO.P,J4,2,Pin_2*%
%TO.N,ADC*%
X141400000Y-79450000D03*
%TO.P,J4,3,Pin_3*%
%TO.N,GND*%
X138900000Y-79450000D03*
%TD*%
D10*
%TO.P,H1,1,1*%
%TO.N,GND*%
X118225000Y-79000000D03*
X117280419Y-76719581D03*
X115000000Y-82225000D03*
X112719581Y-81280419D03*
X115000000Y-75775000D03*
X117280419Y-81280419D03*
X112719581Y-76719581D03*
D11*
X115000000Y-79000000D03*
D10*
X111775000Y-79000000D03*
%TD*%
D11*
%TO.P,H3,1,1*%
%TO.N,GND*%
X155000000Y-119000000D03*
D10*
X155000000Y-122225000D03*
X151775000Y-119000000D03*
X152719581Y-121280419D03*
X158225000Y-119000000D03*
X155000000Y-115775000D03*
X152719581Y-116719581D03*
X157280419Y-121280419D03*
X157280419Y-116719581D03*
%TD*%
%TO.P,H2,1,1*%
%TO.N,GND*%
X152719581Y-81280419D03*
X157280419Y-76719581D03*
X158225000Y-79000000D03*
X157280419Y-81280419D03*
X152719581Y-76719581D03*
X151775000Y-79000000D03*
X155000000Y-82225000D03*
D11*
X155000000Y-79000000D03*
D10*
X155000000Y-75775000D03*
%TD*%
D14*
%TO.P,J1,1,Pin_1*%
%TO.N,VCC*%
X115450000Y-101750000D03*
D15*
%TO.P,J1,2,Pin_2*%
%TO.N,GND*%
X115450000Y-104250000D03*
%TD*%
D16*
%TO.P,J5,1,Pin_1*%
%TO.N,Prog_RX*%
X139000000Y-118500000D03*
D13*
%TO.P,J5,2,Pin_2*%
%TO.N,Prog_TX*%
X141500000Y-118500000D03*
%TO.P,J5,3,Pin_3*%
%TO.N,GND*%
X144000000Y-118500000D03*
%TD*%
D16*
%TO.P,J2,1,Pin_1*%
%TO.N,SWDIO*%
X126200000Y-118500000D03*
D13*
%TO.P,J2,2,Pin_2*%
%TO.N,SWDCLK*%
X128700000Y-118500000D03*
%TO.P,J2,3,Pin_3*%
%TO.N,GND*%
X131200000Y-118500000D03*
%TD*%
D17*
%TO.N,GND*%
X122000000Y-91000000D03*
X149500000Y-96000000D03*
X125800000Y-107600000D03*
X127400000Y-116600000D03*
X136000000Y-95000000D03*
X153500000Y-100000000D03*
X122000000Y-100000000D03*
X137000000Y-93000000D03*
X146000000Y-77000000D03*
X119000000Y-100000000D03*
D18*
X159000000Y-109400000D03*
D17*
X137000000Y-113100000D03*
X126000000Y-77000000D03*
X142000000Y-87000000D03*
X122000000Y-94000000D03*
D18*
X137960000Y-100680000D03*
D17*
X138000000Y-77000000D03*
X130200000Y-106600000D03*
D18*
X120100000Y-91700000D03*
X151800000Y-85370000D03*
D17*
X142000000Y-77000000D03*
X125000000Y-83000000D03*
X142000000Y-83000000D03*
X116000000Y-87000000D03*
X151500000Y-98000000D03*
X119000000Y-97000000D03*
D18*
X119517500Y-89035000D03*
D17*
X149000000Y-116000000D03*
X152000000Y-110000000D03*
D18*
X128600000Y-93100000D03*
D17*
X153500000Y-96000000D03*
D18*
X112200000Y-97800000D03*
D17*
X138000000Y-83000000D03*
X121000000Y-83000000D03*
X148800000Y-112700000D03*
D18*
X132200000Y-101475000D03*
D17*
X122000000Y-103000000D03*
X119000000Y-103000000D03*
D18*
X147400000Y-110900000D03*
D17*
X114000000Y-109000000D03*
D18*
X133125000Y-100575000D03*
D17*
X112000000Y-87000000D03*
D18*
X131225000Y-101475000D03*
D17*
X121000000Y-77000000D03*
D18*
X118800000Y-90500000D03*
X111300000Y-97800000D03*
D17*
X122000000Y-106000000D03*
X146000000Y-83000000D03*
X125000000Y-87000000D03*
X149500000Y-98000000D03*
D18*
X133600000Y-106500000D03*
X120517500Y-90135000D03*
D17*
X158000000Y-112000000D03*
X131800000Y-108200000D03*
X150000000Y-83000000D03*
X134000000Y-83000000D03*
D18*
X134100000Y-101475000D03*
D17*
X150000000Y-87000000D03*
X151500000Y-96000000D03*
X130000000Y-87000000D03*
X130000000Y-83000000D03*
D18*
X112000000Y-93900000D03*
D17*
X130000000Y-84900000D03*
X154600000Y-110000000D03*
X146000000Y-87000000D03*
D18*
X159000000Y-88600000D03*
D17*
X142900000Y-113100000D03*
D18*
X133125000Y-101475000D03*
D17*
X134000000Y-114900000D03*
X142900000Y-116000000D03*
X138000000Y-84900000D03*
X151500000Y-100000000D03*
X134000000Y-77000000D03*
X125900000Y-111500000D03*
X127300000Y-97300000D03*
X122000000Y-97000000D03*
X114000000Y-112000000D03*
X130000000Y-77000000D03*
X134000000Y-84900000D03*
X153500000Y-98000000D03*
X149500000Y-109800000D03*
X143300000Y-114600000D03*
D18*
X132073056Y-97325500D03*
X139700000Y-93300000D03*
D17*
X158000000Y-115000000D03*
D18*
X127800000Y-92100000D03*
D17*
X119000000Y-106000000D03*
X152000000Y-113300000D03*
X125800000Y-103000000D03*
D18*
X137400000Y-89500000D03*
D17*
X150000000Y-77000000D03*
D18*
X124800000Y-95600000D03*
D17*
X149500000Y-100000000D03*
D18*
%TO.N,+3.3V*%
X112400000Y-91500000D03*
X120100000Y-93250000D03*
X114300000Y-93950000D03*
X118800000Y-94600000D03*
X116200000Y-91500000D03*
X124800000Y-98400000D03*
X132100000Y-93400000D03*
X157750000Y-88600000D03*
D17*
X133005000Y-99700000D03*
D18*
X118817500Y-87735000D03*
%TD*%
%TA.AperFunction,Conductor*%
%TO.N,GND*%
G36*
X154293336Y-74020502D02*
G01*
X154339829Y-74074158D01*
X154349933Y-74144432D01*
X154320439Y-74209012D01*
X154260713Y-74247396D01*
X154247095Y-74250586D01*
X153958364Y-74301497D01*
X153958363Y-74301497D01*
X153552820Y-74410162D01*
X153158306Y-74553754D01*
X152777803Y-74731185D01*
X152777785Y-74731195D01*
X152414213Y-74941102D01*
X152414199Y-74941111D01*
X152070286Y-75181923D01*
X151782561Y-75423350D01*
X152786007Y-76426796D01*
X152759077Y-76419581D01*
X152680085Y-76419581D01*
X152603785Y-76440025D01*
X152535376Y-76479521D01*
X152479521Y-76535376D01*
X152440025Y-76603785D01*
X152419581Y-76680085D01*
X152419581Y-76759077D01*
X152426796Y-76786007D01*
X151423350Y-75782561D01*
X151181923Y-76070286D01*
X150941111Y-76414199D01*
X150941102Y-76414213D01*
X150731195Y-76777785D01*
X150731185Y-76777803D01*
X150553754Y-77158306D01*
X150410162Y-77552820D01*
X150301497Y-77958363D01*
X150301497Y-77958364D01*
X150228591Y-78371833D01*
X150192000Y-78790084D01*
X150192000Y-79209915D01*
X150228591Y-79628166D01*
X150301497Y-80041635D01*
X150301497Y-80041636D01*
X150410162Y-80447179D01*
X150553754Y-80841693D01*
X150731185Y-81222196D01*
X150731195Y-81222214D01*
X150941102Y-81585786D01*
X150941111Y-81585800D01*
X151181923Y-81929713D01*
X151423350Y-82217437D01*
X152426797Y-81213990D01*
X152419581Y-81240923D01*
X152419581Y-81319915D01*
X152440025Y-81396215D01*
X152479521Y-81464624D01*
X152535376Y-81520479D01*
X152603785Y-81559975D01*
X152680085Y-81580419D01*
X152759077Y-81580419D01*
X152786004Y-81573204D01*
X151782561Y-82576647D01*
X151782561Y-82576648D01*
X152070286Y-82818076D01*
X152414199Y-83058888D01*
X152414213Y-83058897D01*
X152777785Y-83268804D01*
X152777803Y-83268814D01*
X153158306Y-83446245D01*
X153552820Y-83589837D01*
X153958364Y-83698502D01*
X154371833Y-83771408D01*
X154790084Y-83808000D01*
X155209916Y-83808000D01*
X155628166Y-83771408D01*
X156041635Y-83698502D01*
X156041636Y-83698502D01*
X156447179Y-83589837D01*
X156841693Y-83446245D01*
X157222196Y-83268814D01*
X157222214Y-83268804D01*
X157585786Y-83058897D01*
X157585800Y-83058888D01*
X157929719Y-82818072D01*
X157929722Y-82818071D01*
X158217436Y-82576648D01*
X158217437Y-82576647D01*
X157213993Y-81573203D01*
X157240923Y-81580419D01*
X157319915Y-81580419D01*
X157396215Y-81559975D01*
X157464624Y-81520479D01*
X157520479Y-81464624D01*
X157559975Y-81396215D01*
X157580419Y-81319915D01*
X157580419Y-81240923D01*
X157573203Y-81213993D01*
X158576647Y-82217437D01*
X158576648Y-82217436D01*
X158818071Y-81929722D01*
X158818072Y-81929719D01*
X159058888Y-81585800D01*
X159058897Y-81585786D01*
X159268804Y-81222214D01*
X159268814Y-81222196D01*
X159446245Y-80841693D01*
X159589837Y-80447179D01*
X159698502Y-80041636D01*
X159698502Y-80041635D01*
X159749414Y-79752904D01*
X159780941Y-79689292D01*
X159841855Y-79652822D01*
X159912816Y-79655075D01*
X159971294Y-79695334D01*
X159998724Y-79760818D01*
X159999500Y-79774784D01*
X159999500Y-118225215D01*
X159979498Y-118293336D01*
X159925842Y-118339829D01*
X159855568Y-118349933D01*
X159790988Y-118320439D01*
X159752604Y-118260713D01*
X159749414Y-118247095D01*
X159698502Y-117958364D01*
X159698502Y-117958363D01*
X159589837Y-117552820D01*
X159446245Y-117158306D01*
X159268814Y-116777803D01*
X159268804Y-116777785D01*
X159058897Y-116414213D01*
X159058888Y-116414199D01*
X158818076Y-116070286D01*
X158576647Y-115782561D01*
X157573203Y-116786004D01*
X157580419Y-116759077D01*
X157580419Y-116680085D01*
X157559975Y-116603785D01*
X157520479Y-116535376D01*
X157464624Y-116479521D01*
X157396215Y-116440025D01*
X157319915Y-116419581D01*
X157240923Y-116419581D01*
X157213990Y-116426797D01*
X158217437Y-115423350D01*
X157929713Y-115181923D01*
X157585800Y-114941111D01*
X157585786Y-114941102D01*
X157222214Y-114731195D01*
X157222196Y-114731185D01*
X156841693Y-114553754D01*
X156447179Y-114410162D01*
X156041635Y-114301497D01*
X155628166Y-114228591D01*
X155209916Y-114192000D01*
X154790084Y-114192000D01*
X154371833Y-114228591D01*
X153958364Y-114301497D01*
X153958363Y-114301497D01*
X153552820Y-114410162D01*
X153158306Y-114553754D01*
X152777803Y-114731185D01*
X152777785Y-114731195D01*
X152414213Y-114941102D01*
X152414199Y-114941111D01*
X152070286Y-115181923D01*
X151782561Y-115423350D01*
X152786007Y-116426796D01*
X152759077Y-116419581D01*
X152680085Y-116419581D01*
X152603785Y-116440025D01*
X152535376Y-116479521D01*
X152479521Y-116535376D01*
X152440025Y-116603785D01*
X152419581Y-116680085D01*
X152419581Y-116759077D01*
X152426796Y-116786007D01*
X151423350Y-115782561D01*
X151181923Y-116070286D01*
X150941111Y-116414199D01*
X150941102Y-116414213D01*
X150731195Y-116777785D01*
X150731185Y-116777803D01*
X150553754Y-117158306D01*
X150410162Y-117552820D01*
X150301497Y-117958363D01*
X150301497Y-117958364D01*
X150228591Y-118371833D01*
X150192000Y-118790084D01*
X150192000Y-119209915D01*
X150228591Y-119628166D01*
X150301497Y-120041635D01*
X150301497Y-120041636D01*
X150410162Y-120447179D01*
X150553754Y-120841693D01*
X150731185Y-121222196D01*
X150731195Y-121222214D01*
X150941102Y-121585786D01*
X150941111Y-121585800D01*
X151181923Y-121929713D01*
X151423350Y-122217437D01*
X152426797Y-121213990D01*
X152419581Y-121240923D01*
X152419581Y-121319915D01*
X152440025Y-121396215D01*
X152479521Y-121464624D01*
X152535376Y-121520479D01*
X152603785Y-121559975D01*
X152680085Y-121580419D01*
X152759077Y-121580419D01*
X152786004Y-121573203D01*
X151782561Y-122576647D01*
X151782561Y-122576648D01*
X152070286Y-122818076D01*
X152414199Y-123058888D01*
X152414213Y-123058897D01*
X152777785Y-123268804D01*
X152777803Y-123268814D01*
X153158306Y-123446245D01*
X153552820Y-123589837D01*
X153958364Y-123698502D01*
X154247095Y-123749414D01*
X154310707Y-123780941D01*
X154347177Y-123841855D01*
X154344924Y-123912816D01*
X154304665Y-123971294D01*
X154239181Y-123998724D01*
X154225215Y-123999500D01*
X115774785Y-123999500D01*
X115706664Y-123979498D01*
X115660171Y-123925842D01*
X115650067Y-123855568D01*
X115679561Y-123790988D01*
X115739287Y-123752604D01*
X115752905Y-123749414D01*
X116041635Y-123698502D01*
X116041636Y-123698502D01*
X116447179Y-123589837D01*
X116841693Y-123446245D01*
X117222196Y-123268814D01*
X117222214Y-123268804D01*
X117585786Y-123058897D01*
X117585800Y-123058888D01*
X117929719Y-122818072D01*
X117929722Y-122818071D01*
X118217436Y-122576648D01*
X118217437Y-122576647D01*
X117213993Y-121573203D01*
X117240923Y-121580419D01*
X117319915Y-121580419D01*
X117396215Y-121559975D01*
X117464624Y-121520479D01*
X117520479Y-121464624D01*
X117559975Y-121396215D01*
X117580419Y-121319915D01*
X117580419Y-121240923D01*
X117573203Y-121213993D01*
X118576647Y-122217437D01*
X118576648Y-122217436D01*
X118818071Y-121929722D01*
X118818072Y-121929719D01*
X119058888Y-121585800D01*
X119058897Y-121585786D01*
X119268804Y-121222214D01*
X119268814Y-121222196D01*
X119446245Y-120841693D01*
X119589837Y-120447179D01*
X119698502Y-120041636D01*
X119698502Y-120041635D01*
X119771408Y-119628166D01*
X119808000Y-119209915D01*
X119808000Y-118790084D01*
X119771408Y-118371833D01*
X119698503Y-117958366D01*
X119646456Y-117764126D01*
X119646456Y-117764125D01*
X119638822Y-117735636D01*
X124999500Y-117735636D01*
X124999500Y-119264359D01*
X124999501Y-119264368D01*
X125011865Y-119358281D01*
X125014956Y-119381762D01*
X125075464Y-119527841D01*
X125171718Y-119653282D01*
X125297159Y-119749536D01*
X125443238Y-119810044D01*
X125560639Y-119825500D01*
X126839360Y-119825499D01*
X126956762Y-119810044D01*
X127102841Y-119749536D01*
X127228282Y-119653282D01*
X127324536Y-119527841D01*
X127385044Y-119381762D01*
X127400500Y-119264361D01*
X127400499Y-119243744D01*
X127420498Y-119175627D01*
X127474152Y-119129131D01*
X127544426Y-119119025D01*
X127609008Y-119148515D01*
X127638766Y-119186540D01*
X127673241Y-119254201D01*
X127784311Y-119407075D01*
X127917924Y-119540688D01*
X127917927Y-119540690D01*
X128070801Y-119651760D01*
X128239168Y-119737547D01*
X128418882Y-119795940D01*
X128605519Y-119825500D01*
X128605522Y-119825500D01*
X128794478Y-119825500D01*
X128794481Y-119825500D01*
X128981118Y-119795940D01*
X129160832Y-119737547D01*
X129329199Y-119651760D01*
X129482073Y-119540690D01*
X129615690Y-119407073D01*
X129726760Y-119254199D01*
X129749350Y-119209862D01*
X129798095Y-119158248D01*
X129867009Y-119141180D01*
X129934212Y-119164080D01*
X129973883Y-119209862D01*
X130038535Y-119336749D01*
X130164177Y-119509679D01*
X130315320Y-119660822D01*
X130488249Y-119786463D01*
X130678707Y-119883506D01*
X130678713Y-119883509D01*
X130881998Y-119949560D01*
X130946000Y-119959696D01*
X130946000Y-118901836D01*
X131016657Y-118942630D01*
X131137465Y-118975000D01*
X131262535Y-118975000D01*
X131383343Y-118942630D01*
X131454000Y-118901836D01*
X131454000Y-119959696D01*
X131518001Y-119949560D01*
X131721286Y-119883509D01*
X131721292Y-119883506D01*
X131911750Y-119786463D01*
X132084679Y-119660822D01*
X132235822Y-119509679D01*
X132361463Y-119336750D01*
X132458506Y-119146292D01*
X132458509Y-119146286D01*
X132524559Y-118943003D01*
X132554496Y-118754000D01*
X131601836Y-118754000D01*
X131642630Y-118683343D01*
X131675000Y-118562535D01*
X131675000Y-118437465D01*
X131642630Y-118316657D01*
X131601836Y-118246000D01*
X132554495Y-118246000D01*
X132524559Y-118056996D01*
X132458509Y-117853713D01*
X132458506Y-117853707D01*
X132425392Y-117788717D01*
X132425391Y-117788715D01*
X132398346Y-117735636D01*
X137799500Y-117735636D01*
X137799500Y-119264359D01*
X137799501Y-119264368D01*
X137811865Y-119358281D01*
X137814956Y-119381762D01*
X137875464Y-119527841D01*
X137971718Y-119653282D01*
X138097159Y-119749536D01*
X138243238Y-119810044D01*
X138360639Y-119825500D01*
X139639360Y-119825499D01*
X139756762Y-119810044D01*
X139902841Y-119749536D01*
X140028282Y-119653282D01*
X140124536Y-119527841D01*
X140185044Y-119381762D01*
X140200500Y-119264361D01*
X140200499Y-119243744D01*
X140220498Y-119175627D01*
X140274152Y-119129131D01*
X140344426Y-119119025D01*
X140409008Y-119148515D01*
X140438766Y-119186540D01*
X140473241Y-119254201D01*
X140584311Y-119407075D01*
X140717924Y-119540688D01*
X140717927Y-119540690D01*
X140870801Y-119651760D01*
X141039168Y-119737547D01*
X141218882Y-119795940D01*
X141405519Y-119825500D01*
X141405522Y-119825500D01*
X141594478Y-119825500D01*
X141594481Y-119825500D01*
X141781118Y-119795940D01*
X141960832Y-119737547D01*
X142129199Y-119651760D01*
X142282073Y-119540690D01*
X142415690Y-119407073D01*
X142526760Y-119254199D01*
X142549350Y-119209862D01*
X142598095Y-119158248D01*
X142667009Y-119141180D01*
X142734212Y-119164080D01*
X142773883Y-119209862D01*
X142838535Y-119336749D01*
X142964177Y-119509679D01*
X143115320Y-119660822D01*
X143288249Y-119786463D01*
X143478707Y-119883506D01*
X143478713Y-119883509D01*
X143681998Y-119949560D01*
X143746000Y-119959696D01*
X143746000Y-118901836D01*
X143816657Y-118942630D01*
X143937465Y-118975000D01*
X144062535Y-118975000D01*
X144183343Y-118942630D01*
X144254000Y-118901836D01*
X144254000Y-119959696D01*
X144318001Y-119949560D01*
X144521286Y-119883509D01*
X144521292Y-119883506D01*
X144711750Y-119786463D01*
X144884679Y-119660822D01*
X145035822Y-119509679D01*
X145161463Y-119336750D01*
X145258506Y-119146292D01*
X145258509Y-119146286D01*
X145324559Y-118943003D01*
X145352339Y-118767618D01*
X145354496Y-118754000D01*
X144401836Y-118754000D01*
X144442630Y-118683343D01*
X144475000Y-118562535D01*
X144475000Y-118437465D01*
X144442630Y-118316657D01*
X144401836Y-118246000D01*
X145354495Y-118246000D01*
X145324559Y-118056996D01*
X145258509Y-117853713D01*
X145258506Y-117853707D01*
X145161463Y-117663249D01*
X145035822Y-117490320D01*
X144884679Y-117339177D01*
X144711750Y-117213536D01*
X144521292Y-117116493D01*
X144521286Y-117116490D01*
X144318004Y-117050440D01*
X144254000Y-117040302D01*
X144254000Y-118098163D01*
X144183343Y-118057370D01*
X144062535Y-118025000D01*
X143937465Y-118025000D01*
X143816657Y-118057370D01*
X143746000Y-118098163D01*
X143746000Y-117040302D01*
X143681995Y-117050440D01*
X143478713Y-117116490D01*
X143478707Y-117116493D01*
X143288249Y-117213536D01*
X143115320Y-117339177D01*
X142964177Y-117490320D01*
X142838535Y-117663250D01*
X142773883Y-117790137D01*
X142725134Y-117841752D01*
X142656219Y-117858818D01*
X142589018Y-117835917D01*
X142549350Y-117790137D01*
X142526760Y-117745801D01*
X142415690Y-117592927D01*
X142415688Y-117592924D01*
X142282075Y-117459311D01*
X142129202Y-117348242D01*
X142129201Y-117348241D01*
X142129199Y-117348240D01*
X141960832Y-117262453D01*
X141960831Y-117262452D01*
X141960828Y-117262451D01*
X141781123Y-117204061D01*
X141781119Y-117204060D01*
X141781118Y-117204060D01*
X141594481Y-117174500D01*
X141405519Y-117174500D01*
X141218882Y-117204060D01*
X141218876Y-117204061D01*
X141039171Y-117262451D01*
X140870797Y-117348242D01*
X140717924Y-117459311D01*
X140584311Y-117592924D01*
X140473242Y-117745797D01*
X140473240Y-117745801D01*
X140451374Y-117788717D01*
X140438766Y-117813461D01*
X140390018Y-117865076D01*
X140321103Y-117882142D01*
X140253901Y-117859241D01*
X140209749Y-117803644D01*
X140200499Y-117756258D01*
X140200499Y-117735640D01*
X140200498Y-117735631D01*
X140198328Y-117719153D01*
X140185044Y-117618238D01*
X140124536Y-117472159D01*
X140028282Y-117346718D01*
X139902841Y-117250464D01*
X139801544Y-117208505D01*
X139756760Y-117189955D01*
X139680332Y-117179893D01*
X139639361Y-117174500D01*
X139639358Y-117174500D01*
X138360640Y-117174500D01*
X138360631Y-117174501D01*
X138254978Y-117188410D01*
X138243238Y-117189956D01*
X138097160Y-117250463D01*
X138097157Y-117250465D01*
X137971718Y-117346718D01*
X137875465Y-117472157D01*
X137875463Y-117472160D01*
X137814955Y-117618239D01*
X137799500Y-117735636D01*
X132398346Y-117735636D01*
X132361465Y-117663252D01*
X132235822Y-117490320D01*
X132084679Y-117339177D01*
X131911750Y-117213536D01*
X131721292Y-117116493D01*
X131721286Y-117116490D01*
X131518004Y-117050440D01*
X131454000Y-117040302D01*
X131454000Y-118098163D01*
X131383343Y-118057370D01*
X131262535Y-118025000D01*
X131137465Y-118025000D01*
X131016657Y-118057370D01*
X130946000Y-118098163D01*
X130946000Y-117040302D01*
X130881995Y-117050440D01*
X130678713Y-117116490D01*
X130678707Y-117116493D01*
X130488249Y-117213536D01*
X130315320Y-117339177D01*
X130164177Y-117490320D01*
X130038535Y-117663250D01*
X129973883Y-117790137D01*
X129925134Y-117841752D01*
X129856219Y-117858818D01*
X129789018Y-117835917D01*
X129749350Y-117790137D01*
X129726760Y-117745801D01*
X129615690Y-117592927D01*
X129615688Y-117592924D01*
X129482075Y-117459311D01*
X129329202Y-117348242D01*
X129329201Y-117348241D01*
X129329199Y-117348240D01*
X129160832Y-117262453D01*
X129160831Y-117262452D01*
X129160828Y-117262451D01*
X128981123Y-117204061D01*
X128981119Y-117204060D01*
X128981118Y-117204060D01*
X128794481Y-117174500D01*
X128605519Y-117174500D01*
X128418882Y-117204060D01*
X128418876Y-117204061D01*
X128239171Y-117262451D01*
X128070797Y-117348242D01*
X127917924Y-117459311D01*
X127784311Y-117592924D01*
X127673242Y-117745797D01*
X127673240Y-117745801D01*
X127651374Y-117788717D01*
X127638766Y-117813461D01*
X127590018Y-117865076D01*
X127521103Y-117882142D01*
X127453901Y-117859241D01*
X127409749Y-117803644D01*
X127400499Y-117756258D01*
X127400499Y-117735640D01*
X127400498Y-117735631D01*
X127398328Y-117719153D01*
X127385044Y-117618238D01*
X127324536Y-117472159D01*
X127228282Y-117346718D01*
X127102841Y-117250464D01*
X127001544Y-117208505D01*
X126956760Y-117189955D01*
X126880332Y-117179893D01*
X126839361Y-117174500D01*
X126839358Y-117174500D01*
X125560640Y-117174500D01*
X125560631Y-117174501D01*
X125454978Y-117188410D01*
X125443238Y-117189956D01*
X125297160Y-117250463D01*
X125297157Y-117250465D01*
X125171718Y-117346718D01*
X125075465Y-117472157D01*
X125075463Y-117472160D01*
X125014955Y-117618239D01*
X124999500Y-117735636D01*
X119638822Y-117735636D01*
X119589837Y-117552820D01*
X119446245Y-117158306D01*
X119268814Y-116777803D01*
X119268804Y-116777785D01*
X119058897Y-116414213D01*
X119058888Y-116414199D01*
X118818076Y-116070286D01*
X118576647Y-115782561D01*
X117573204Y-116786004D01*
X117580419Y-116759077D01*
X117580419Y-116680085D01*
X117559975Y-116603785D01*
X117520479Y-116535376D01*
X117464624Y-116479521D01*
X117396215Y-116440025D01*
X117319915Y-116419581D01*
X117240923Y-116419581D01*
X117213990Y-116426797D01*
X118217437Y-115423350D01*
X117929713Y-115181923D01*
X117585800Y-114941111D01*
X117585786Y-114941102D01*
X117222214Y-114731195D01*
X117222196Y-114731185D01*
X116841693Y-114553754D01*
X116447179Y-114410162D01*
X116041635Y-114301497D01*
X115628166Y-114228591D01*
X115209916Y-114192000D01*
X114790084Y-114192000D01*
X114371833Y-114228591D01*
X113958364Y-114301497D01*
X113958363Y-114301497D01*
X113552820Y-114410162D01*
X113158306Y-114553754D01*
X112777803Y-114731185D01*
X112777785Y-114731195D01*
X112414213Y-114941102D01*
X112414199Y-114941111D01*
X112070286Y-115181923D01*
X111782561Y-115423350D01*
X112786007Y-116426796D01*
X112759077Y-116419581D01*
X112680085Y-116419581D01*
X112603785Y-116440025D01*
X112535376Y-116479521D01*
X112479521Y-116535376D01*
X112440025Y-116603785D01*
X112419581Y-116680085D01*
X112419581Y-116759077D01*
X112426796Y-116786007D01*
X111423350Y-115782561D01*
X111181923Y-116070286D01*
X110941111Y-116414199D01*
X110941102Y-116414213D01*
X110731195Y-116777785D01*
X110731185Y-116777803D01*
X110553754Y-117158306D01*
X110410162Y-117552820D01*
X110301497Y-117958363D01*
X110301497Y-117958364D01*
X110250586Y-118247095D01*
X110219059Y-118310707D01*
X110158145Y-118347177D01*
X110087184Y-118344924D01*
X110028706Y-118304665D01*
X110001276Y-118239181D01*
X110000500Y-118225215D01*
X110000500Y-103996000D01*
X113965302Y-103996000D01*
X115019297Y-103996000D01*
X114984075Y-104057007D01*
X114950000Y-104184174D01*
X114950000Y-104315826D01*
X114984075Y-104442993D01*
X115019297Y-104504000D01*
X113965302Y-104504000D01*
X113975440Y-104568004D01*
X114041490Y-104771286D01*
X114041493Y-104771292D01*
X114138536Y-104961750D01*
X114264177Y-105134679D01*
X114415320Y-105285822D01*
X114588249Y-105411463D01*
X114778707Y-105508506D01*
X114778713Y-105508509D01*
X114981996Y-105574559D01*
X115193126Y-105608000D01*
X115196000Y-105608000D01*
X115196000Y-104680702D01*
X115257007Y-104715925D01*
X115384174Y-104750000D01*
X115515826Y-104750000D01*
X115642993Y-104715925D01*
X115704000Y-104680702D01*
X115704000Y-105608000D01*
X115706874Y-105608000D01*
X115918003Y-105574559D01*
X116121286Y-105508509D01*
X116121292Y-105508506D01*
X116311750Y-105411463D01*
X116484679Y-105285822D01*
X116635822Y-105134679D01*
X116761463Y-104961750D01*
X116858506Y-104771292D01*
X116858509Y-104771286D01*
X116924559Y-104568004D01*
X116934698Y-104504000D01*
X115880703Y-104504000D01*
X115915925Y-104442993D01*
X115950000Y-104315826D01*
X115950000Y-104184174D01*
X115915925Y-104057007D01*
X115880703Y-103996000D01*
X116934697Y-103996000D01*
X116924559Y-103931995D01*
X116858509Y-103728713D01*
X116858506Y-103728707D01*
X116761463Y-103538249D01*
X116635822Y-103365320D01*
X116484683Y-103214181D01*
X116375559Y-103134897D01*
X116332206Y-103078674D01*
X116326131Y-103007938D01*
X116359263Y-102945146D01*
X116401398Y-102916554D01*
X116502841Y-102874536D01*
X116628282Y-102778282D01*
X116724536Y-102652841D01*
X116785044Y-102506762D01*
X116800500Y-102389361D01*
X116800499Y-101110640D01*
X116800499Y-101110639D01*
X116800498Y-101110631D01*
X116798328Y-101094153D01*
X116785044Y-100993238D01*
X116724536Y-100847159D01*
X116628282Y-100721718D01*
X116502841Y-100625464D01*
X116356762Y-100564956D01*
X116356760Y-100564955D01*
X116280332Y-100554893D01*
X116239361Y-100549500D01*
X116239358Y-100549500D01*
X114660640Y-100549500D01*
X114660631Y-100549501D01*
X114554978Y-100563410D01*
X114543238Y-100564956D01*
X114397160Y-100625463D01*
X114397157Y-100625465D01*
X114271718Y-100721718D01*
X114175465Y-100847157D01*
X114175463Y-100847160D01*
X114114955Y-100993239D01*
X114099500Y-101110636D01*
X114099500Y-102389359D01*
X114099501Y-102389368D01*
X114111865Y-102483281D01*
X114114956Y-102506762D01*
X114175464Y-102652841D01*
X114271718Y-102778282D01*
X114397159Y-102874536D01*
X114498597Y-102916553D01*
X114553877Y-102961100D01*
X114576298Y-103028464D01*
X114558740Y-103097255D01*
X114524440Y-103134896D01*
X114415323Y-103214175D01*
X114415317Y-103214180D01*
X114264177Y-103365320D01*
X114138536Y-103538249D01*
X114041493Y-103728707D01*
X114041490Y-103728713D01*
X113975440Y-103931995D01*
X113965302Y-103996000D01*
X110000500Y-103996000D01*
X110000500Y-98331004D01*
X124099500Y-98331004D01*
X124099500Y-98331007D01*
X124099500Y-98468993D01*
X124126420Y-98604328D01*
X124179225Y-98731811D01*
X124230447Y-98808471D01*
X124255885Y-98846541D01*
X124255890Y-98846547D01*
X124353452Y-98944109D01*
X124353458Y-98944114D01*
X124468189Y-99020775D01*
X124595672Y-99073580D01*
X124731007Y-99100500D01*
X124731008Y-99100500D01*
X124868992Y-99100500D01*
X124868993Y-99100500D01*
X125004328Y-99073580D01*
X125131811Y-99020775D01*
X125246542Y-98944114D01*
X125344114Y-98846542D01*
X125420775Y-98731811D01*
X125473580Y-98604328D01*
X125500500Y-98468993D01*
X125500500Y-98410000D01*
X129400000Y-98410000D01*
X129400000Y-99090000D01*
X129510000Y-99190000D01*
X131849395Y-99190000D01*
X131850618Y-99190006D01*
X132414741Y-99195482D01*
X132482663Y-99216144D01*
X132528633Y-99270249D01*
X132538055Y-99340617D01*
X132522637Y-99384475D01*
X132468720Y-99477862D01*
X132468719Y-99477865D01*
X132429500Y-99624234D01*
X132429500Y-99775766D01*
X132458209Y-99882911D01*
X132468718Y-99922132D01*
X132468721Y-99922139D01*
X132544482Y-100053361D01*
X132544490Y-100053371D01*
X132651628Y-100160509D01*
X132651633Y-100160513D01*
X132651635Y-100160515D01*
X132651636Y-100160516D01*
X132651638Y-100160517D01*
X132725344Y-100203071D01*
X132782865Y-100236281D01*
X132929234Y-100275500D01*
X132929236Y-100275500D01*
X133080764Y-100275500D01*
X133080766Y-100275500D01*
X133227135Y-100236281D01*
X133358365Y-100160515D01*
X133368880Y-100150000D01*
X133404905Y-100113976D01*
X133467217Y-100079950D01*
X133538032Y-100085015D01*
X133594868Y-100127562D01*
X133619679Y-100194082D01*
X133620000Y-100203071D01*
X133620000Y-100740000D01*
X133789998Y-100879999D01*
X133790000Y-100880000D01*
X134759999Y-100880000D01*
X134760000Y-100880000D01*
X134890000Y-100700000D01*
X134890000Y-100399011D01*
X134898043Y-100371618D01*
X134902894Y-100343486D01*
X134908875Y-100334727D01*
X134910002Y-100330890D01*
X134923113Y-100313876D01*
X134962547Y-100270856D01*
X135023321Y-100234159D01*
X135055427Y-100230000D01*
X138790000Y-100230000D01*
X138790001Y-100229999D01*
X138855142Y-100160515D01*
X138940000Y-100070000D01*
X138940000Y-96500000D01*
X138800000Y-96400000D01*
X133290000Y-96400000D01*
X133150000Y-96579999D01*
X133150000Y-98076156D01*
X133145759Y-98091943D01*
X133146413Y-98106008D01*
X133133044Y-98139286D01*
X133076398Y-98237130D01*
X133024957Y-98286062D01*
X132967354Y-98300000D01*
X129500000Y-98300000D01*
X129400000Y-98410000D01*
X125500500Y-98410000D01*
X125500500Y-98331007D01*
X125473580Y-98195672D01*
X125420775Y-98068189D01*
X125344114Y-97953458D01*
X125344109Y-97953452D01*
X125246547Y-97855890D01*
X125246541Y-97855885D01*
X125208471Y-97830447D01*
X125131811Y-97779225D01*
X125051421Y-97745926D01*
X125004331Y-97726421D01*
X125004328Y-97726420D01*
X124868995Y-97699500D01*
X124868993Y-97699500D01*
X124731007Y-97699500D01*
X124731004Y-97699500D01*
X124595671Y-97726420D01*
X124595668Y-97726421D01*
X124468189Y-97779225D01*
X124353458Y-97855885D01*
X124353452Y-97855890D01*
X124255890Y-97953452D01*
X124255885Y-97953458D01*
X124179225Y-98068189D01*
X124126421Y-98195668D01*
X124126420Y-98195671D01*
X124099500Y-98331004D01*
X110000500Y-98331004D01*
X110000500Y-93881004D01*
X113599500Y-93881004D01*
X113599500Y-94018995D01*
X113610358Y-94073579D01*
X113626420Y-94154328D01*
X113679225Y-94281811D01*
X113730447Y-94358471D01*
X113755885Y-94396541D01*
X113755890Y-94396547D01*
X113853452Y-94494109D01*
X113853458Y-94494114D01*
X113968189Y-94570775D01*
X114095672Y-94623580D01*
X114231007Y-94650500D01*
X114231008Y-94650500D01*
X114368992Y-94650500D01*
X114368993Y-94650500D01*
X114504328Y-94623580D01*
X114631811Y-94570775D01*
X114691332Y-94531004D01*
X118099500Y-94531004D01*
X118099500Y-94531007D01*
X118099500Y-94668993D01*
X118126420Y-94804328D01*
X118179225Y-94931811D01*
X118230447Y-95008471D01*
X118255885Y-95046541D01*
X118255890Y-95046547D01*
X118353452Y-95144109D01*
X118353458Y-95144114D01*
X118468189Y-95220775D01*
X118595672Y-95273580D01*
X118731007Y-95300500D01*
X118731008Y-95300500D01*
X118868992Y-95300500D01*
X118868993Y-95300500D01*
X119004328Y-95273580D01*
X119131811Y-95220775D01*
X119246542Y-95144114D01*
X119344114Y-95046542D01*
X119420775Y-94931811D01*
X119473580Y-94804328D01*
X119500500Y-94668993D01*
X119500500Y-94531007D01*
X119473580Y-94395672D01*
X119420775Y-94268189D01*
X119344114Y-94153458D01*
X119344109Y-94153452D01*
X119246547Y-94055890D01*
X119246541Y-94055885D01*
X119191325Y-94018991D01*
X119131811Y-93979225D01*
X119047033Y-93944109D01*
X119004331Y-93926421D01*
X119004328Y-93926420D01*
X118868995Y-93899500D01*
X118868993Y-93899500D01*
X118731007Y-93899500D01*
X118731004Y-93899500D01*
X118595671Y-93926420D01*
X118595668Y-93926421D01*
X118468189Y-93979225D01*
X118353458Y-94055885D01*
X118353452Y-94055890D01*
X118255890Y-94153452D01*
X118255885Y-94153458D01*
X118179225Y-94268189D01*
X118126421Y-94395668D01*
X118126420Y-94395671D01*
X118099500Y-94531004D01*
X114691332Y-94531004D01*
X114746542Y-94494114D01*
X114746547Y-94494109D01*
X114804935Y-94435722D01*
X114844109Y-94396547D01*
X114844114Y-94396542D01*
X114920775Y-94281811D01*
X114973580Y-94154328D01*
X115000500Y-94018993D01*
X115000500Y-93881007D01*
X114973580Y-93745672D01*
X114920775Y-93618189D01*
X114844114Y-93503458D01*
X114844109Y-93503452D01*
X114746547Y-93405890D01*
X114746541Y-93405885D01*
X114708471Y-93380447D01*
X114631811Y-93329225D01*
X114540073Y-93291226D01*
X114504331Y-93276421D01*
X114504328Y-93276420D01*
X114368995Y-93249500D01*
X114368993Y-93249500D01*
X114231007Y-93249500D01*
X114231004Y-93249500D01*
X114095671Y-93276420D01*
X114095668Y-93276421D01*
X113968189Y-93329225D01*
X113853458Y-93405885D01*
X113853452Y-93405890D01*
X113755890Y-93503452D01*
X113755885Y-93503458D01*
X113679225Y-93618189D01*
X113626421Y-93745668D01*
X113626420Y-93745671D01*
X113599500Y-93881004D01*
X110000500Y-93881004D01*
X110000500Y-93181004D01*
X119399500Y-93181004D01*
X119399500Y-93318995D01*
X119426420Y-93454328D01*
X119426421Y-93454331D01*
X119432494Y-93468993D01*
X119479225Y-93581811D01*
X119503532Y-93618189D01*
X119555885Y-93696541D01*
X119555890Y-93696547D01*
X119653452Y-93794109D01*
X119653458Y-93794114D01*
X119768189Y-93870775D01*
X119895672Y-93923580D01*
X120031007Y-93950500D01*
X120031008Y-93950500D01*
X120168992Y-93950500D01*
X120168993Y-93950500D01*
X120304328Y-93923580D01*
X120431811Y-93870775D01*
X120546542Y-93794114D01*
X120644114Y-93696542D01*
X120720775Y-93581811D01*
X120773580Y-93454328D01*
X120798111Y-93331004D01*
X131399500Y-93331004D01*
X131399500Y-93468995D01*
X131421941Y-93581810D01*
X131426420Y-93604328D01*
X131479225Y-93731811D01*
X131488487Y-93745672D01*
X131555885Y-93846541D01*
X131555890Y-93846547D01*
X131653452Y-93944109D01*
X131653458Y-93944114D01*
X131768189Y-94020775D01*
X131895672Y-94073580D01*
X132031007Y-94100500D01*
X132031008Y-94100500D01*
X132168992Y-94100500D01*
X132168993Y-94100500D01*
X132304328Y-94073580D01*
X132431811Y-94020775D01*
X132546542Y-93944114D01*
X132644114Y-93846542D01*
X132720775Y-93731811D01*
X132773580Y-93604328D01*
X132800500Y-93468993D01*
X132800500Y-93331007D01*
X132773580Y-93195672D01*
X132720775Y-93068189D01*
X132644114Y-92953458D01*
X132644109Y-92953452D01*
X132546547Y-92855890D01*
X132546541Y-92855885D01*
X132468069Y-92803452D01*
X132431811Y-92779225D01*
X132351421Y-92745926D01*
X132304331Y-92726421D01*
X132304328Y-92726420D01*
X132168995Y-92699500D01*
X132168993Y-92699500D01*
X132031007Y-92699500D01*
X132031004Y-92699500D01*
X131895671Y-92726420D01*
X131895668Y-92726421D01*
X131768189Y-92779225D01*
X131653458Y-92855885D01*
X131653452Y-92855890D01*
X131555890Y-92953452D01*
X131555885Y-92953458D01*
X131479225Y-93068189D01*
X131426421Y-93195668D01*
X131426420Y-93195671D01*
X131399500Y-93331004D01*
X120798111Y-93331004D01*
X120800500Y-93318993D01*
X120800500Y-93181007D01*
X120773580Y-93045672D01*
X120720775Y-92918189D01*
X120644114Y-92803458D01*
X120644109Y-92803452D01*
X120546547Y-92705890D01*
X120546541Y-92705885D01*
X120508471Y-92680447D01*
X120431811Y-92629225D01*
X120351421Y-92595926D01*
X120304331Y-92576421D01*
X120304328Y-92576420D01*
X120168995Y-92549500D01*
X120168993Y-92549500D01*
X120031007Y-92549500D01*
X120031004Y-92549500D01*
X119895671Y-92576420D01*
X119895668Y-92576421D01*
X119768189Y-92629225D01*
X119653458Y-92705885D01*
X119653452Y-92705890D01*
X119555890Y-92803452D01*
X119555885Y-92803458D01*
X119479225Y-92918189D01*
X119426421Y-93045668D01*
X119426420Y-93045671D01*
X119399500Y-93181004D01*
X110000500Y-93181004D01*
X110000500Y-91431004D01*
X111699500Y-91431004D01*
X111699500Y-91431007D01*
X111699500Y-91568993D01*
X111726420Y-91704328D01*
X111779225Y-91831811D01*
X111830447Y-91908471D01*
X111855885Y-91946541D01*
X111855890Y-91946547D01*
X111953452Y-92044109D01*
X111953458Y-92044114D01*
X112068189Y-92120775D01*
X112195672Y-92173580D01*
X112331007Y-92200500D01*
X112331008Y-92200500D01*
X112468992Y-92200500D01*
X112468993Y-92200500D01*
X112604328Y-92173580D01*
X112731811Y-92120775D01*
X112846542Y-92044114D01*
X112944114Y-91946542D01*
X113020775Y-91831811D01*
X113073580Y-91704328D01*
X113100500Y-91568993D01*
X113100500Y-91431007D01*
X113100499Y-91431004D01*
X115499500Y-91431004D01*
X115499500Y-91431007D01*
X115499500Y-91568993D01*
X115526420Y-91704328D01*
X115579225Y-91831811D01*
X115630447Y-91908471D01*
X115655885Y-91946541D01*
X115655890Y-91946547D01*
X115753452Y-92044109D01*
X115753458Y-92044114D01*
X115868189Y-92120775D01*
X115995672Y-92173580D01*
X116131007Y-92200500D01*
X116131008Y-92200500D01*
X116268992Y-92200500D01*
X116268993Y-92200500D01*
X116404328Y-92173580D01*
X116531811Y-92120775D01*
X116646542Y-92044114D01*
X116744114Y-91946542D01*
X116820775Y-91831811D01*
X116873580Y-91704328D01*
X116900500Y-91568993D01*
X116900500Y-91431007D01*
X116873580Y-91295672D01*
X116820775Y-91168189D01*
X116744114Y-91053458D01*
X116744109Y-91053452D01*
X116646547Y-90955890D01*
X116646541Y-90955885D01*
X116608471Y-90930447D01*
X116531811Y-90879225D01*
X116451421Y-90845926D01*
X116404331Y-90826421D01*
X116404328Y-90826420D01*
X116268995Y-90799500D01*
X116268993Y-90799500D01*
X116131007Y-90799500D01*
X116131004Y-90799500D01*
X115995671Y-90826420D01*
X115995668Y-90826421D01*
X115868189Y-90879225D01*
X115753458Y-90955885D01*
X115753452Y-90955890D01*
X115655890Y-91053452D01*
X115655885Y-91053458D01*
X115579225Y-91168189D01*
X115526421Y-91295668D01*
X115526420Y-91295671D01*
X115499500Y-91431004D01*
X113100499Y-91431004D01*
X113073580Y-91295672D01*
X113020775Y-91168189D01*
X112944114Y-91053458D01*
X112944109Y-91053452D01*
X112846547Y-90955890D01*
X112846541Y-90955885D01*
X112808471Y-90930447D01*
X112731811Y-90879225D01*
X112651421Y-90845926D01*
X112604331Y-90826421D01*
X112604328Y-90826420D01*
X112468995Y-90799500D01*
X112468993Y-90799500D01*
X112331007Y-90799500D01*
X112331004Y-90799500D01*
X112195671Y-90826420D01*
X112195668Y-90826421D01*
X112068189Y-90879225D01*
X111953458Y-90955885D01*
X111953452Y-90955890D01*
X111855890Y-91053452D01*
X111855885Y-91053458D01*
X111779225Y-91168189D01*
X111726421Y-91295668D01*
X111726420Y-91295671D01*
X111699500Y-91431004D01*
X110000500Y-91431004D01*
X110000500Y-88531004D01*
X157049500Y-88531004D01*
X157049500Y-88531007D01*
X157049500Y-88668993D01*
X157076420Y-88804328D01*
X157129225Y-88931811D01*
X157180447Y-89008471D01*
X157205885Y-89046541D01*
X157205890Y-89046547D01*
X157303452Y-89144109D01*
X157303458Y-89144114D01*
X157418189Y-89220775D01*
X157545672Y-89273580D01*
X157681007Y-89300500D01*
X157681008Y-89300500D01*
X157818992Y-89300500D01*
X157818993Y-89300500D01*
X157954328Y-89273580D01*
X158081811Y-89220775D01*
X158196542Y-89144114D01*
X158294114Y-89046542D01*
X158370775Y-88931811D01*
X158423580Y-88804328D01*
X158450500Y-88668993D01*
X158450500Y-88531007D01*
X158423580Y-88395672D01*
X158370775Y-88268189D01*
X158294114Y-88153458D01*
X158294109Y-88153452D01*
X158196547Y-88055890D01*
X158196541Y-88055885D01*
X158158471Y-88030447D01*
X158081811Y-87979225D01*
X157985491Y-87939328D01*
X157954331Y-87926421D01*
X157954328Y-87926420D01*
X157818995Y-87899500D01*
X157818993Y-87899500D01*
X157681007Y-87899500D01*
X157681004Y-87899500D01*
X157545671Y-87926420D01*
X157545668Y-87926421D01*
X157418189Y-87979225D01*
X157303458Y-88055885D01*
X157303452Y-88055890D01*
X157205890Y-88153452D01*
X157205885Y-88153458D01*
X157129225Y-88268189D01*
X157076421Y-88395668D01*
X157076420Y-88395671D01*
X157049500Y-88531004D01*
X110000500Y-88531004D01*
X110000500Y-87666004D01*
X118117000Y-87666004D01*
X118117000Y-87666007D01*
X118117000Y-87803993D01*
X118143920Y-87939328D01*
X118196725Y-88066811D01*
X118247947Y-88143471D01*
X118273385Y-88181541D01*
X118273390Y-88181547D01*
X118370952Y-88279109D01*
X118370958Y-88279114D01*
X118485689Y-88355775D01*
X118613172Y-88408580D01*
X118748507Y-88435500D01*
X118748508Y-88435500D01*
X118886492Y-88435500D01*
X118886493Y-88435500D01*
X119021828Y-88408580D01*
X119022243Y-88408408D01*
X119022244Y-88408408D01*
X119053000Y-88395668D01*
X119149311Y-88355775D01*
X119264042Y-88279114D01*
X119361614Y-88181542D01*
X119438275Y-88066811D01*
X119491080Y-87939328D01*
X119518000Y-87803993D01*
X119518000Y-87666007D01*
X119491080Y-87530672D01*
X119438275Y-87403189D01*
X119361614Y-87288458D01*
X119361609Y-87288452D01*
X119264047Y-87190890D01*
X119264041Y-87190885D01*
X119225971Y-87165447D01*
X119149311Y-87114225D01*
X119068921Y-87080926D01*
X119021831Y-87061421D01*
X119021828Y-87061420D01*
X118886495Y-87034500D01*
X118886493Y-87034500D01*
X118748507Y-87034500D01*
X118748504Y-87034500D01*
X118613171Y-87061420D01*
X118613168Y-87061421D01*
X118485689Y-87114225D01*
X118370958Y-87190885D01*
X118370952Y-87190890D01*
X118273390Y-87288452D01*
X118273385Y-87288458D01*
X118196725Y-87403189D01*
X118143921Y-87530668D01*
X118143920Y-87530671D01*
X118117000Y-87666004D01*
X110000500Y-87666004D01*
X110000500Y-79774784D01*
X110020502Y-79706663D01*
X110074158Y-79660170D01*
X110144432Y-79650066D01*
X110209012Y-79679560D01*
X110247396Y-79739286D01*
X110250586Y-79752904D01*
X110301497Y-80041635D01*
X110301497Y-80041636D01*
X110410162Y-80447179D01*
X110553754Y-80841693D01*
X110731185Y-81222196D01*
X110731195Y-81222214D01*
X110941102Y-81585786D01*
X110941111Y-81585800D01*
X111181923Y-81929713D01*
X111423350Y-82217437D01*
X112426797Y-81213990D01*
X112419581Y-81240923D01*
X112419581Y-81319915D01*
X112440025Y-81396215D01*
X112479521Y-81464624D01*
X112535376Y-81520479D01*
X112603785Y-81559975D01*
X112680085Y-81580419D01*
X112759077Y-81580419D01*
X112786004Y-81573204D01*
X111782561Y-82576647D01*
X111782561Y-82576648D01*
X112070286Y-82818076D01*
X112414199Y-83058888D01*
X112414213Y-83058897D01*
X112777785Y-83268804D01*
X112777803Y-83268814D01*
X113158306Y-83446245D01*
X113552820Y-83589837D01*
X113958364Y-83698502D01*
X114371833Y-83771408D01*
X114790084Y-83808000D01*
X115209916Y-83808000D01*
X115628166Y-83771408D01*
X116041635Y-83698502D01*
X116041636Y-83698502D01*
X116447179Y-83589837D01*
X116841693Y-83446245D01*
X117222196Y-83268814D01*
X117222214Y-83268804D01*
X117585786Y-83058897D01*
X117585800Y-83058888D01*
X117929719Y-82818072D01*
X117929722Y-82818071D01*
X118217436Y-82576648D01*
X118217437Y-82576647D01*
X117213993Y-81573203D01*
X117240923Y-81580419D01*
X117319915Y-81580419D01*
X117396215Y-81559975D01*
X117464624Y-81520479D01*
X117520479Y-81464624D01*
X117559975Y-81396215D01*
X117580419Y-81319915D01*
X117580419Y-81240923D01*
X117573203Y-81213993D01*
X118576647Y-82217437D01*
X118576648Y-82217436D01*
X118818071Y-81929722D01*
X118818072Y-81929719D01*
X119058888Y-81585800D01*
X119058897Y-81585786D01*
X119268804Y-81222214D01*
X119268814Y-81222196D01*
X119446245Y-80841693D01*
X119589837Y-80447179D01*
X119698502Y-80041636D01*
X119698502Y-80041635D01*
X119768536Y-79644459D01*
X119768536Y-79644458D01*
X119771408Y-79628168D01*
X119806883Y-79222680D01*
X119806883Y-79222677D01*
X119807999Y-79209928D01*
X119808000Y-79209919D01*
X119808000Y-79196000D01*
X124745504Y-79196000D01*
X125698164Y-79196000D01*
X125657370Y-79266657D01*
X125625000Y-79387465D01*
X125625000Y-79512535D01*
X125657370Y-79633343D01*
X125698164Y-79704000D01*
X124745504Y-79704000D01*
X124775440Y-79893003D01*
X124841490Y-80096286D01*
X124841493Y-80096292D01*
X124938536Y-80286750D01*
X125064177Y-80459679D01*
X125215320Y-80610822D01*
X125388249Y-80736463D01*
X125578707Y-80833506D01*
X125578713Y-80833509D01*
X125781998Y-80899560D01*
X125846000Y-80909696D01*
X125846000Y-79851836D01*
X125916657Y-79892630D01*
X126037465Y-79925000D01*
X126162535Y-79925000D01*
X126283343Y-79892630D01*
X126354000Y-79851836D01*
X126354000Y-80909696D01*
X126418001Y-80899560D01*
X126621286Y-80833509D01*
X126621292Y-80833506D01*
X126811750Y-80736463D01*
X126984679Y-80610822D01*
X127135822Y-80459679D01*
X127261465Y-80286747D01*
X127326116Y-80159863D01*
X127374864Y-80108247D01*
X127443779Y-80091181D01*
X127510980Y-80114081D01*
X127550650Y-80159863D01*
X127573240Y-80204199D01*
X127684311Y-80357075D01*
X127817924Y-80490688D01*
X127817927Y-80490690D01*
X127970801Y-80601760D01*
X128139168Y-80687547D01*
X128318882Y-80745940D01*
X128505519Y-80775500D01*
X128505522Y-80775500D01*
X128694478Y-80775500D01*
X128694481Y-80775500D01*
X128881118Y-80745940D01*
X129060832Y-80687547D01*
X129229199Y-80601760D01*
X129382073Y-80490690D01*
X129515690Y-80357073D01*
X129626760Y-80204199D01*
X129661236Y-80136535D01*
X129709979Y-80084924D01*
X129778894Y-80067857D01*
X129846096Y-80090756D01*
X129890249Y-80146353D01*
X129899500Y-80193736D01*
X129899500Y-80214357D01*
X129899501Y-80214368D01*
X129911865Y-80308281D01*
X129914956Y-80331762D01*
X129975464Y-80477841D01*
X130071718Y-80603282D01*
X130197159Y-80699536D01*
X130343238Y-80760044D01*
X130460639Y-80775500D01*
X131739360Y-80775499D01*
X131856762Y-80760044D01*
X132002841Y-80699536D01*
X132128282Y-80603282D01*
X132224536Y-80477841D01*
X132285044Y-80331762D01*
X132300500Y-80214361D01*
X132300499Y-79196000D01*
X137545504Y-79196000D01*
X138498164Y-79196000D01*
X138457370Y-79266657D01*
X138425000Y-79387465D01*
X138425000Y-79512535D01*
X138457370Y-79633343D01*
X138498164Y-79704000D01*
X137545504Y-79704000D01*
X137575440Y-79893003D01*
X137641490Y-80096286D01*
X137641493Y-80096292D01*
X137738536Y-80286750D01*
X137864177Y-80459679D01*
X138015320Y-80610822D01*
X138188249Y-80736463D01*
X138378707Y-80833506D01*
X138378713Y-80833509D01*
X138581998Y-80899560D01*
X138646000Y-80909696D01*
X138646000Y-79851836D01*
X138716657Y-79892630D01*
X138837465Y-79925000D01*
X138962535Y-79925000D01*
X139083343Y-79892630D01*
X139154000Y-79851836D01*
X139154000Y-80909696D01*
X139218001Y-80899560D01*
X139421286Y-80833509D01*
X139421292Y-80833506D01*
X139611750Y-80736463D01*
X139784679Y-80610822D01*
X139935822Y-80459679D01*
X140061465Y-80286747D01*
X140126116Y-80159863D01*
X140174864Y-80108247D01*
X140243779Y-80091181D01*
X140310980Y-80114081D01*
X140350650Y-80159863D01*
X140373240Y-80204199D01*
X140484311Y-80357075D01*
X140617924Y-80490688D01*
X140617927Y-80490690D01*
X140770801Y-80601760D01*
X140939168Y-80687547D01*
X141118882Y-80745940D01*
X141305519Y-80775500D01*
X141305522Y-80775500D01*
X141494478Y-80775500D01*
X141494481Y-80775500D01*
X141681118Y-80745940D01*
X141860832Y-80687547D01*
X142029199Y-80601760D01*
X142182073Y-80490690D01*
X142315690Y-80357073D01*
X142426760Y-80204199D01*
X142461236Y-80136535D01*
X142509979Y-80084924D01*
X142578894Y-80067857D01*
X142646096Y-80090756D01*
X142690249Y-80146353D01*
X142699500Y-80193736D01*
X142699500Y-80214357D01*
X142699501Y-80214368D01*
X142711865Y-80308281D01*
X142714956Y-80331762D01*
X142775464Y-80477841D01*
X142871718Y-80603282D01*
X142997159Y-80699536D01*
X143143238Y-80760044D01*
X143260639Y-80775500D01*
X144539360Y-80775499D01*
X144656762Y-80760044D01*
X144802841Y-80699536D01*
X144928282Y-80603282D01*
X145024536Y-80477841D01*
X145085044Y-80331762D01*
X145100500Y-80214361D01*
X145100499Y-78685640D01*
X145100499Y-78685639D01*
X145100498Y-78685631D01*
X145090969Y-78613249D01*
X145085044Y-78568238D01*
X145024536Y-78422159D01*
X144928282Y-78296718D01*
X144802841Y-78200464D01*
X144746458Y-78177109D01*
X144656760Y-78139955D01*
X144580332Y-78129893D01*
X144539361Y-78124500D01*
X144539358Y-78124500D01*
X143260640Y-78124500D01*
X143260631Y-78124501D01*
X143154978Y-78138410D01*
X143143238Y-78139956D01*
X142997160Y-78200463D01*
X142997157Y-78200465D01*
X142871718Y-78296718D01*
X142775465Y-78422157D01*
X142775463Y-78422160D01*
X142714955Y-78568239D01*
X142699500Y-78685636D01*
X142699500Y-78706256D01*
X142679498Y-78774377D01*
X142625842Y-78820870D01*
X142555568Y-78830974D01*
X142490988Y-78801480D01*
X142461233Y-78763459D01*
X142449350Y-78740137D01*
X142426760Y-78695801D01*
X142366782Y-78613249D01*
X142315688Y-78542924D01*
X142182075Y-78409311D01*
X142029202Y-78298242D01*
X142029201Y-78298241D01*
X142029199Y-78298240D01*
X141860832Y-78212453D01*
X141860831Y-78212452D01*
X141860828Y-78212451D01*
X141681123Y-78154061D01*
X141681119Y-78154060D01*
X141681118Y-78154060D01*
X141494481Y-78124500D01*
X141305519Y-78124500D01*
X141118882Y-78154060D01*
X141118876Y-78154061D01*
X140939171Y-78212451D01*
X140770797Y-78298242D01*
X140617924Y-78409311D01*
X140484311Y-78542924D01*
X140373241Y-78695798D01*
X140350650Y-78740137D01*
X140301901Y-78791752D01*
X140232986Y-78808818D01*
X140165785Y-78785917D01*
X140126116Y-78740137D01*
X140061463Y-78613249D01*
X139935822Y-78440320D01*
X139784679Y-78289177D01*
X139611750Y-78163536D01*
X139421292Y-78066493D01*
X139421286Y-78066490D01*
X139218004Y-78000440D01*
X139154000Y-77990302D01*
X139154000Y-79048163D01*
X139083343Y-79007370D01*
X138962535Y-78975000D01*
X138837465Y-78975000D01*
X138716657Y-79007370D01*
X138646000Y-79048163D01*
X138646000Y-77990302D01*
X138581995Y-78000440D01*
X138378713Y-78066490D01*
X138378707Y-78066493D01*
X138188249Y-78163536D01*
X138015320Y-78289177D01*
X137864177Y-78440320D01*
X137738536Y-78613249D01*
X137641493Y-78803707D01*
X137641490Y-78803713D01*
X137575440Y-79006996D01*
X137545504Y-79196000D01*
X132300499Y-79196000D01*
X132300499Y-78685640D01*
X132300499Y-78685639D01*
X132300498Y-78685631D01*
X132290969Y-78613249D01*
X132285044Y-78568238D01*
X132224536Y-78422159D01*
X132128282Y-78296718D01*
X132002841Y-78200464D01*
X131946458Y-78177109D01*
X131856760Y-78139955D01*
X131780332Y-78129893D01*
X131739361Y-78124500D01*
X131739358Y-78124500D01*
X130460640Y-78124500D01*
X130460631Y-78124501D01*
X130354978Y-78138410D01*
X130343238Y-78139956D01*
X130197160Y-78200463D01*
X130197157Y-78200465D01*
X130071718Y-78296718D01*
X129975465Y-78422157D01*
X129975463Y-78422160D01*
X129914955Y-78568239D01*
X129899500Y-78685636D01*
X129899500Y-78706256D01*
X129879498Y-78774377D01*
X129825842Y-78820870D01*
X129755568Y-78830974D01*
X129690988Y-78801480D01*
X129661233Y-78763459D01*
X129649350Y-78740137D01*
X129626760Y-78695801D01*
X129566782Y-78613249D01*
X129515688Y-78542924D01*
X129382075Y-78409311D01*
X129229202Y-78298242D01*
X129229201Y-78298241D01*
X129229199Y-78298240D01*
X129060832Y-78212453D01*
X129060831Y-78212452D01*
X129060828Y-78212451D01*
X128881123Y-78154061D01*
X128881119Y-78154060D01*
X128881118Y-78154060D01*
X128694481Y-78124500D01*
X128505519Y-78124500D01*
X128318882Y-78154060D01*
X128318876Y-78154061D01*
X128139171Y-78212451D01*
X127970797Y-78298242D01*
X127817924Y-78409311D01*
X127684311Y-78542924D01*
X127573241Y-78695798D01*
X127550650Y-78740137D01*
X127501901Y-78791752D01*
X127432986Y-78808818D01*
X127365785Y-78785917D01*
X127326116Y-78740137D01*
X127261463Y-78613249D01*
X127135822Y-78440320D01*
X126984679Y-78289177D01*
X126811750Y-78163536D01*
X126621292Y-78066493D01*
X126621286Y-78066490D01*
X126418004Y-78000440D01*
X126354000Y-77990302D01*
X126354000Y-79048163D01*
X126283343Y-79007370D01*
X126162535Y-78975000D01*
X126037465Y-78975000D01*
X125916657Y-79007370D01*
X125846000Y-79048163D01*
X125846000Y-77990302D01*
X125781995Y-78000440D01*
X125578713Y-78066490D01*
X125578707Y-78066493D01*
X125388249Y-78163536D01*
X125215320Y-78289177D01*
X125064177Y-78440320D01*
X124938536Y-78613249D01*
X124841493Y-78803707D01*
X124841490Y-78803713D01*
X124775440Y-79006996D01*
X124745504Y-79196000D01*
X119808000Y-79196000D01*
X119808000Y-78790084D01*
X119771408Y-78371833D01*
X119698502Y-77958364D01*
X119698502Y-77958363D01*
X119589837Y-77552820D01*
X119446245Y-77158306D01*
X119268814Y-76777803D01*
X119268804Y-76777785D01*
X119058897Y-76414213D01*
X119058888Y-76414199D01*
X118818076Y-76070286D01*
X118576647Y-75782561D01*
X117573204Y-76786004D01*
X117580419Y-76759077D01*
X117580419Y-76680085D01*
X117559975Y-76603785D01*
X117520479Y-76535376D01*
X117464624Y-76479521D01*
X117396215Y-76440025D01*
X117319915Y-76419581D01*
X117240923Y-76419581D01*
X117213990Y-76426797D01*
X118217437Y-75423350D01*
X117929713Y-75181923D01*
X117585800Y-74941111D01*
X117585786Y-74941102D01*
X117222214Y-74731195D01*
X117222196Y-74731185D01*
X116841693Y-74553754D01*
X116447179Y-74410162D01*
X116041635Y-74301497D01*
X115752905Y-74250586D01*
X115689293Y-74219059D01*
X115652823Y-74158145D01*
X115655076Y-74087184D01*
X115695335Y-74028706D01*
X115760819Y-74001276D01*
X115774785Y-74000500D01*
X154225215Y-74000500D01*
X154293336Y-74020502D01*
G37*
%TD.AperFunction*%
%TA.AperFunction,Conductor*%
G36*
X117346844Y-120987634D02*
G01*
X117319915Y-120980419D01*
X117240923Y-120980419D01*
X117164623Y-121000863D01*
X117096214Y-121040359D01*
X117040359Y-121096214D01*
X117000863Y-121164623D01*
X116980419Y-121240923D01*
X116980419Y-121319915D01*
X116987634Y-121346844D01*
X116330147Y-120689357D01*
X116420635Y-120619924D01*
X116619924Y-120420635D01*
X116689357Y-120330147D01*
X117346844Y-120987634D01*
G37*
%TD.AperFunction*%
%TA.AperFunction,Conductor*%
G36*
X153380076Y-120420635D02*
G01*
X153579365Y-120619924D01*
X153669852Y-120689357D01*
X153012365Y-121346842D01*
X153019581Y-121319915D01*
X153019581Y-121240923D01*
X152999137Y-121164623D01*
X152959641Y-121096214D01*
X152903786Y-121040359D01*
X152835377Y-121000863D01*
X152759077Y-120980419D01*
X152680085Y-120980419D01*
X152653152Y-120987635D01*
X153310641Y-120330146D01*
X153380076Y-120420635D01*
G37*
%TD.AperFunction*%
%TA.AperFunction,Conductor*%
G36*
X113669852Y-117310642D02*
G01*
X113579365Y-117380076D01*
X113380076Y-117579365D01*
X113310642Y-117669852D01*
X112653154Y-117012365D01*
X112680085Y-117019581D01*
X112759077Y-117019581D01*
X112835377Y-116999137D01*
X112903786Y-116959641D01*
X112959641Y-116903786D01*
X112999137Y-116835377D01*
X113019581Y-116759077D01*
X113019581Y-116680085D01*
X113012365Y-116653154D01*
X113669852Y-117310642D01*
G37*
%TD.AperFunction*%
%TA.AperFunction,Conductor*%
G36*
X153669852Y-117310642D02*
G01*
X153579365Y-117380076D01*
X153380076Y-117579365D01*
X153310642Y-117669852D01*
X152653154Y-117012365D01*
X152680085Y-117019581D01*
X152759077Y-117019581D01*
X152835377Y-116999137D01*
X152903786Y-116959641D01*
X152959641Y-116903786D01*
X152999137Y-116835377D01*
X153019581Y-116759077D01*
X153019581Y-116680085D01*
X153012365Y-116653154D01*
X153669852Y-117310642D01*
G37*
%TD.AperFunction*%
%TA.AperFunction,Conductor*%
G36*
X156980419Y-116680085D02*
G01*
X156980419Y-116759077D01*
X157000863Y-116835377D01*
X157040359Y-116903786D01*
X157096214Y-116959641D01*
X157164623Y-116999137D01*
X157240923Y-117019581D01*
X157319915Y-117019581D01*
X157346842Y-117012365D01*
X156689357Y-117669852D01*
X156619924Y-117579365D01*
X156420635Y-117380076D01*
X156330146Y-117310642D01*
X156987635Y-116653152D01*
X156980419Y-116680085D01*
G37*
%TD.AperFunction*%
%TA.AperFunction,Conductor*%
G36*
X116980419Y-116680085D02*
G01*
X116980419Y-116759077D01*
X117000863Y-116835377D01*
X117040359Y-116903786D01*
X117096214Y-116959641D01*
X117164623Y-116999137D01*
X117240923Y-117019581D01*
X117319915Y-117019581D01*
X117346842Y-117012366D01*
X116689356Y-117669851D01*
X116619924Y-117579365D01*
X116420635Y-117380076D01*
X116330146Y-117310642D01*
X116987635Y-116653152D01*
X116980419Y-116680085D01*
G37*
%TD.AperFunction*%
%TA.AperFunction,Conductor*%
G36*
X117346844Y-80987634D02*
G01*
X117319915Y-80980419D01*
X117240923Y-80980419D01*
X117164623Y-81000863D01*
X117096214Y-81040359D01*
X117040359Y-81096214D01*
X117000863Y-81164623D01*
X116980419Y-81240923D01*
X116980419Y-81319915D01*
X116987634Y-81346844D01*
X116330147Y-80689357D01*
X116420635Y-80619924D01*
X116619924Y-80420635D01*
X116689357Y-80330147D01*
X117346844Y-80987634D01*
G37*
%TD.AperFunction*%
%TA.AperFunction,Conductor*%
G36*
X157346844Y-80987634D02*
G01*
X157319915Y-80980419D01*
X157240923Y-80980419D01*
X157164623Y-81000863D01*
X157096214Y-81040359D01*
X157040359Y-81096214D01*
X157000863Y-81164623D01*
X156980419Y-81240923D01*
X156980419Y-81319915D01*
X156987634Y-81346844D01*
X156330147Y-80689357D01*
X156420635Y-80619924D01*
X156619924Y-80420635D01*
X156689357Y-80330147D01*
X157346844Y-80987634D01*
G37*
%TD.AperFunction*%
%TA.AperFunction,Conductor*%
G36*
X113380076Y-80420635D02*
G01*
X113579365Y-80619924D01*
X113669851Y-80689356D01*
X113012366Y-81346842D01*
X113019581Y-81319915D01*
X113019581Y-81240923D01*
X112999137Y-81164623D01*
X112959641Y-81096214D01*
X112903786Y-81040359D01*
X112835377Y-81000863D01*
X112759077Y-80980419D01*
X112680085Y-80980419D01*
X112653152Y-80987635D01*
X113310641Y-80330146D01*
X113380076Y-80420635D01*
G37*
%TD.AperFunction*%
%TA.AperFunction,Conductor*%
G36*
X153380076Y-80420635D02*
G01*
X153579365Y-80619924D01*
X153669851Y-80689356D01*
X153012366Y-81346842D01*
X153019581Y-81319915D01*
X153019581Y-81240923D01*
X152999137Y-81164623D01*
X152959641Y-81096214D01*
X152903786Y-81040359D01*
X152835377Y-81000863D01*
X152759077Y-80980419D01*
X152680085Y-80980419D01*
X152653152Y-80987635D01*
X153310641Y-80330146D01*
X153380076Y-80420635D01*
G37*
%TD.AperFunction*%
%TA.AperFunction,Conductor*%
G36*
X153669852Y-77310642D02*
G01*
X153579365Y-77380076D01*
X153380076Y-77579365D01*
X153310642Y-77669852D01*
X152653154Y-77012365D01*
X152680085Y-77019581D01*
X152759077Y-77019581D01*
X152835377Y-76999137D01*
X152903786Y-76959641D01*
X152959641Y-76903786D01*
X152999137Y-76835377D01*
X153019581Y-76759077D01*
X153019581Y-76680085D01*
X153012365Y-76653154D01*
X153669852Y-77310642D01*
G37*
%TD.AperFunction*%
%TA.AperFunction,Conductor*%
G36*
X116980419Y-76680085D02*
G01*
X116980419Y-76759077D01*
X117000863Y-76835377D01*
X117040359Y-76903786D01*
X117096214Y-76959641D01*
X117164623Y-76999137D01*
X117240923Y-77019581D01*
X117319915Y-77019581D01*
X117346842Y-77012366D01*
X116689356Y-77669851D01*
X116619924Y-77579365D01*
X116420635Y-77380076D01*
X116330146Y-77310641D01*
X116987635Y-76653152D01*
X116980419Y-76680085D01*
G37*
%TD.AperFunction*%
%TD*%
M02*
