%TF.GenerationSoftware,KiCad,Pcbnew,9.0.6*%
%TF.CreationDate,2026-05-16T23:07:35+05:30*%
%TF.ProjectId,AeroFusion Dev Board,4165726f-4675-4736-996f-6e2044657620,1*%
%TF.SameCoordinates,Original*%
%TF.FileFunction,Legend,Bot*%
%TF.FilePolarity,Positive*%
%FSLAX46Y46*%
G04 Gerber Fmt 4.6, Leading zero omitted, Abs format (unit mm)*
G04 Created by KiCad (PCBNEW 9.0.6) date 2026-05-16 23:07:35*
%MOMM*%
%LPD*%
G01*
G04 APERTURE LIST*
%ADD10C,0.300000*%
%ADD11C,0.010000*%
%ADD12C,0.000000*%
G04 APERTURE END LIST*
D10*
G36*
X132114060Y-120910828D02*
G01*
X131728041Y-120910828D01*
X131638627Y-120866121D01*
X131601622Y-120829116D01*
X131556917Y-120739704D01*
X131556917Y-120596237D01*
X131601622Y-120506825D01*
X131630800Y-120477647D01*
X131788403Y-120425114D01*
X132114060Y-120425114D01*
X132114060Y-120910828D01*
G37*
G36*
X132114060Y-120125114D02*
G01*
X131799470Y-120125114D01*
X131710056Y-120080406D01*
X131673052Y-120043403D01*
X131628345Y-119953989D01*
X131628345Y-119881952D01*
X131673052Y-119792538D01*
X131710056Y-119755535D01*
X131799470Y-119710828D01*
X132114060Y-119710828D01*
X132114060Y-120125114D01*
G37*
G36*
X134756917Y-120910828D02*
G01*
X134574117Y-120910828D01*
X134416514Y-120858294D01*
X134315909Y-120757688D01*
X134262728Y-120651328D01*
X134199774Y-120399507D01*
X134199774Y-120222148D01*
X134262728Y-119970327D01*
X134315909Y-119863967D01*
X134416515Y-119763361D01*
X134574117Y-119710828D01*
X134756917Y-119710828D01*
X134756917Y-120910828D01*
G37*
G36*
X144185489Y-120910828D02*
G01*
X144002689Y-120910828D01*
X143845086Y-120858294D01*
X143744481Y-120757688D01*
X143691300Y-120651328D01*
X143628346Y-120399507D01*
X143628346Y-120222148D01*
X143691300Y-119970327D01*
X143744481Y-119863967D01*
X143845087Y-119763361D01*
X144002689Y-119710828D01*
X144185489Y-119710828D01*
X144185489Y-120910828D01*
G37*
G36*
X144652156Y-121377495D02*
G01*
X129661715Y-121377495D01*
X129661715Y-119557480D01*
X129828382Y-119557480D01*
X129838516Y-119615123D01*
X129851796Y-119641359D01*
X130328345Y-120390221D01*
X130328345Y-121060828D01*
X130331227Y-121090092D01*
X130353625Y-121144164D01*
X130395009Y-121185548D01*
X130449081Y-121207946D01*
X130507609Y-121207946D01*
X130561681Y-121185548D01*
X130603065Y-121144164D01*
X130625463Y-121090092D01*
X130628345Y-121060828D01*
X130628345Y-120560828D01*
X131256917Y-120560828D01*
X131256917Y-120775114D01*
X131259799Y-120804378D01*
X131261861Y-120809356D01*
X131262243Y-120814732D01*
X131272753Y-120842196D01*
X131344181Y-120985053D01*
X131352108Y-120997646D01*
X131353624Y-121001306D01*
X131357005Y-121005425D01*
X131359846Y-121009939D01*
X131362839Y-121012535D01*
X131372279Y-121024037D01*
X131443708Y-121095466D01*
X131455212Y-121104907D01*
X131457807Y-121107899D01*
X131462316Y-121110737D01*
X131466439Y-121114121D01*
X131470100Y-121115637D01*
X131482692Y-121123564D01*
X131625550Y-121194992D01*
X131653013Y-121205502D01*
X131658388Y-121205883D01*
X131663367Y-121207946D01*
X131692631Y-121210828D01*
X132264060Y-121210828D01*
X132293324Y-121207946D01*
X132347396Y-121185548D01*
X132388780Y-121144164D01*
X132411178Y-121090092D01*
X132414060Y-121060828D01*
X132414060Y-120203685D01*
X133899774Y-120203685D01*
X133899774Y-120417971D01*
X133900276Y-120423074D01*
X133899951Y-120425262D01*
X133901570Y-120436212D01*
X133902656Y-120447235D01*
X133903503Y-120449279D01*
X133904253Y-120454351D01*
X133975681Y-120740065D01*
X133976452Y-120742223D01*
X133976529Y-120743304D01*
X133981187Y-120755478D01*
X133985574Y-120767756D01*
X133986218Y-120768626D01*
X133987038Y-120770767D01*
X134058467Y-120913624D01*
X134066394Y-120926217D01*
X134067910Y-120929877D01*
X134071291Y-120933996D01*
X134074132Y-120938510D01*
X134077125Y-120941106D01*
X134086565Y-120952608D01*
X134229422Y-121095466D01*
X134252152Y-121114121D01*
X134257131Y-121116183D01*
X134261203Y-121119715D01*
X134288054Y-121131703D01*
X134502340Y-121203131D01*
X134516852Y-121206430D01*
X134520510Y-121207946D01*
X134525812Y-121208468D01*
X134531014Y-121209651D01*
X134534968Y-121209369D01*
X134549774Y-121210828D01*
X134906917Y-121210828D01*
X134936181Y-121207946D01*
X134990253Y-121185548D01*
X135031637Y-121144164D01*
X135054035Y-121090092D01*
X135056917Y-121060828D01*
X135056917Y-119560828D01*
X135054035Y-119531564D01*
X135402656Y-119531564D01*
X135402656Y-119590092D01*
X135425054Y-119644164D01*
X135466438Y-119685548D01*
X135520510Y-119707946D01*
X135549774Y-119710828D01*
X136114060Y-119710828D01*
X136114060Y-120125114D01*
X135764060Y-120125114D01*
X135734796Y-120127996D01*
X135680724Y-120150394D01*
X135639340Y-120191778D01*
X135616942Y-120245850D01*
X135616942Y-120304378D01*
X135639340Y-120358450D01*
X135680724Y-120399834D01*
X135734796Y-120422232D01*
X135764060Y-120425114D01*
X136114060Y-120425114D01*
X136114060Y-120910828D01*
X135549774Y-120910828D01*
X135520510Y-120913710D01*
X135466438Y-120936108D01*
X135425054Y-120977492D01*
X135402656Y-121031564D01*
X135402656Y-121090092D01*
X135425054Y-121144164D01*
X135466438Y-121185548D01*
X135520510Y-121207946D01*
X135549774Y-121210828D01*
X136264060Y-121210828D01*
X136293324Y-121207946D01*
X136347396Y-121185548D01*
X136388780Y-121144164D01*
X136411178Y-121090092D01*
X136414060Y-121060828D01*
X136414060Y-120417971D01*
X136756917Y-120417971D01*
X136756917Y-120917971D01*
X136759799Y-120947235D01*
X136782197Y-121001307D01*
X136782200Y-121001310D01*
X136800850Y-121024036D01*
X136872278Y-121095465D01*
X136895009Y-121114120D01*
X136899985Y-121116181D01*
X136904060Y-121119715D01*
X136930911Y-121131703D01*
X137145197Y-121203131D01*
X137159709Y-121206430D01*
X137163367Y-121207946D01*
X137168669Y-121208468D01*
X137173871Y-121209651D01*
X137177825Y-121209369D01*
X137192631Y-121210828D01*
X137335488Y-121210828D01*
X137350293Y-121209369D01*
X137354248Y-121209651D01*
X137359449Y-121208468D01*
X137364752Y-121207946D01*
X137368409Y-121206430D01*
X137382922Y-121203131D01*
X137597208Y-121131703D01*
X137624059Y-121119715D01*
X137628130Y-121116183D01*
X137633110Y-121114121D01*
X137655840Y-121095466D01*
X137798697Y-120952608D01*
X137808135Y-120941106D01*
X137811130Y-120938510D01*
X137813970Y-120933996D01*
X137817352Y-120929877D01*
X137818867Y-120926217D01*
X137826795Y-120913624D01*
X137898224Y-120770768D01*
X137899043Y-120768625D01*
X137899688Y-120767756D01*
X137904072Y-120755484D01*
X137908733Y-120743304D01*
X137908809Y-120742223D01*
X137909581Y-120740065D01*
X137981009Y-120454351D01*
X137981758Y-120449279D01*
X137982606Y-120447235D01*
X137983691Y-120436212D01*
X137985311Y-120425262D01*
X137984985Y-120423074D01*
X137985488Y-120417971D01*
X137985488Y-120203685D01*
X137984985Y-120198581D01*
X137985311Y-120196394D01*
X137983691Y-120185443D01*
X137982606Y-120174421D01*
X137981758Y-120172376D01*
X137981009Y-120167305D01*
X137909581Y-119881591D01*
X137908809Y-119879432D01*
X137908733Y-119878352D01*
X137904072Y-119866171D01*
X137899688Y-119853900D01*
X137899043Y-119853030D01*
X137898224Y-119850888D01*
X137826795Y-119708032D01*
X137818868Y-119695440D01*
X137817352Y-119691778D01*
X137813968Y-119687655D01*
X137811130Y-119683146D01*
X137808137Y-119680550D01*
X137798697Y-119669048D01*
X137690477Y-119560828D01*
X138328346Y-119560828D01*
X138328346Y-121060828D01*
X138329087Y-121068353D01*
X138328712Y-121071305D01*
X138329754Y-121075125D01*
X138331228Y-121090092D01*
X138338863Y-121108524D01*
X138344112Y-121127769D01*
X138349966Y-121135328D01*
X138353626Y-121144164D01*
X138367733Y-121158271D01*
X138379947Y-121174043D01*
X138388249Y-121178787D01*
X138395010Y-121185548D01*
X138413440Y-121193182D01*
X138430763Y-121203081D01*
X138440248Y-121204286D01*
X138449082Y-121207946D01*
X138469032Y-121207946D01*
X138488823Y-121210462D01*
X138498048Y-121207946D01*
X138507610Y-121207946D01*
X138526042Y-121200310D01*
X138545287Y-121195062D01*
X138552846Y-121189207D01*
X138561682Y-121185548D01*
X138575789Y-121171440D01*
X138591561Y-121159227D01*
X138600266Y-121146963D01*
X138603066Y-121144164D01*
X138604204Y-121141416D01*
X138608582Y-121135249D01*
X139185489Y-120125663D01*
X139185489Y-121060828D01*
X139188371Y-121090092D01*
X139210769Y-121144164D01*
X139252153Y-121185548D01*
X139306225Y-121207946D01*
X139364753Y-121207946D01*
X139418825Y-121185548D01*
X139460209Y-121144164D01*
X139482607Y-121090092D01*
X139485489Y-121060828D01*
X139485489Y-119560828D01*
X139899775Y-119560828D01*
X139899775Y-121060828D01*
X139902657Y-121090092D01*
X139925055Y-121144164D01*
X139966439Y-121185548D01*
X140020511Y-121207946D01*
X140079039Y-121207946D01*
X140133111Y-121185548D01*
X140174495Y-121144164D01*
X140196893Y-121090092D01*
X140199775Y-121060828D01*
X140199775Y-120632257D01*
X140542631Y-120632257D01*
X140542631Y-120775114D01*
X140545513Y-120804378D01*
X140547576Y-120809358D01*
X140547958Y-120814733D01*
X140558467Y-120842196D01*
X140629896Y-120985053D01*
X140637823Y-120997646D01*
X140639339Y-121001306D01*
X140642720Y-121005425D01*
X140645561Y-121009939D01*
X140648554Y-121012535D01*
X140657994Y-121024037D01*
X140729423Y-121095466D01*
X140740927Y-121104907D01*
X140743522Y-121107899D01*
X140748031Y-121110737D01*
X140752154Y-121114121D01*
X140755815Y-121115637D01*
X140768407Y-121123564D01*
X140911265Y-121194992D01*
X140938728Y-121205502D01*
X140944103Y-121205883D01*
X140949082Y-121207946D01*
X140978346Y-121210828D01*
X141335489Y-121210828D01*
X141350294Y-121209369D01*
X141354249Y-121209651D01*
X141359450Y-121208468D01*
X141364753Y-121207946D01*
X141368410Y-121206430D01*
X141382923Y-121203131D01*
X141597208Y-121131703D01*
X141624059Y-121119714D01*
X141668273Y-121081367D01*
X141694447Y-121029020D01*
X141698596Y-120970640D01*
X141680088Y-120915115D01*
X141641741Y-120870901D01*
X141589394Y-120844727D01*
X141531014Y-120840578D01*
X141502340Y-120847097D01*
X141311146Y-120910828D01*
X141013756Y-120910828D01*
X140924342Y-120866121D01*
X140887338Y-120829117D01*
X140842631Y-120739703D01*
X140842631Y-120667667D01*
X140887338Y-120578253D01*
X140924343Y-120541248D01*
X141030702Y-120488069D01*
X141300440Y-120420635D01*
X141302598Y-120419863D01*
X141303679Y-120419787D01*
X141315853Y-120415128D01*
X141328131Y-120410742D01*
X141329001Y-120410097D01*
X141331142Y-120409278D01*
X141473999Y-120337849D01*
X141486594Y-120329920D01*
X141490251Y-120328406D01*
X141494368Y-120325026D01*
X141498885Y-120322184D01*
X141501482Y-120319189D01*
X141512982Y-120309752D01*
X141584411Y-120238324D01*
X141593853Y-120226818D01*
X141596845Y-120224224D01*
X141599684Y-120219713D01*
X141603066Y-120215593D01*
X141604581Y-120211933D01*
X141612510Y-120199339D01*
X141683938Y-120056481D01*
X141694448Y-120029018D01*
X141694829Y-120023642D01*
X141696892Y-120018664D01*
X141699774Y-119989400D01*
X141699774Y-119846542D01*
X141696892Y-119817278D01*
X141694829Y-119812299D01*
X141694448Y-119806924D01*
X141683938Y-119779461D01*
X141612510Y-119636603D01*
X141604581Y-119624008D01*
X141603066Y-119620349D01*
X141599684Y-119616228D01*
X141596845Y-119611718D01*
X141593853Y-119609123D01*
X141584411Y-119597618D01*
X141518356Y-119531564D01*
X141974085Y-119531564D01*
X141974085Y-119590092D01*
X141996483Y-119644164D01*
X142037867Y-119685548D01*
X142091939Y-119707946D01*
X142121203Y-119710828D01*
X142685489Y-119710828D01*
X142685489Y-120125114D01*
X142335489Y-120125114D01*
X142306225Y-120127996D01*
X142252153Y-120150394D01*
X142210769Y-120191778D01*
X142188371Y-120245850D01*
X142188371Y-120304378D01*
X142210769Y-120358450D01*
X142252153Y-120399834D01*
X142306225Y-120422232D01*
X142335489Y-120425114D01*
X142685489Y-120425114D01*
X142685489Y-120910828D01*
X142121203Y-120910828D01*
X142091939Y-120913710D01*
X142037867Y-120936108D01*
X141996483Y-120977492D01*
X141974085Y-121031564D01*
X141974085Y-121090092D01*
X141996483Y-121144164D01*
X142037867Y-121185548D01*
X142091939Y-121207946D01*
X142121203Y-121210828D01*
X142835489Y-121210828D01*
X142864753Y-121207946D01*
X142918825Y-121185548D01*
X142960209Y-121144164D01*
X142982607Y-121090092D01*
X142985489Y-121060828D01*
X142985489Y-120203685D01*
X143328346Y-120203685D01*
X143328346Y-120417971D01*
X143328848Y-120423074D01*
X143328523Y-120425262D01*
X143330142Y-120436212D01*
X143331228Y-120447235D01*
X143332075Y-120449279D01*
X143332825Y-120454351D01*
X143404253Y-120740065D01*
X143405024Y-120742223D01*
X143405101Y-120743304D01*
X143409759Y-120755478D01*
X143414146Y-120767756D01*
X143414790Y-120768626D01*
X143415610Y-120770767D01*
X143487039Y-120913624D01*
X143494966Y-120926217D01*
X143496482Y-120929877D01*
X143499863Y-120933996D01*
X143502704Y-120938510D01*
X143505697Y-120941106D01*
X143515137Y-120952608D01*
X143657994Y-121095466D01*
X143680724Y-121114121D01*
X143685703Y-121116183D01*
X143689775Y-121119715D01*
X143716626Y-121131703D01*
X143930912Y-121203131D01*
X143945424Y-121206430D01*
X143949082Y-121207946D01*
X143954384Y-121208468D01*
X143959586Y-121209651D01*
X143963540Y-121209369D01*
X143978346Y-121210828D01*
X144335489Y-121210828D01*
X144364753Y-121207946D01*
X144418825Y-121185548D01*
X144460209Y-121144164D01*
X144482607Y-121090092D01*
X144485489Y-121060828D01*
X144485489Y-119560828D01*
X144482607Y-119531564D01*
X144460209Y-119477492D01*
X144418825Y-119436108D01*
X144364753Y-119413710D01*
X144335489Y-119410828D01*
X143978346Y-119410828D01*
X143963534Y-119412286D01*
X143959585Y-119412006D01*
X143954390Y-119413187D01*
X143949082Y-119413710D01*
X143945420Y-119415226D01*
X143930911Y-119418526D01*
X143716626Y-119489955D01*
X143689775Y-119501943D01*
X143685705Y-119505472D01*
X143680724Y-119507536D01*
X143657994Y-119526191D01*
X143515137Y-119669048D01*
X143505697Y-119680549D01*
X143502704Y-119683146D01*
X143499863Y-119687659D01*
X143496482Y-119691779D01*
X143494966Y-119695438D01*
X143487039Y-119708032D01*
X143415610Y-119850889D01*
X143414790Y-119853029D01*
X143414146Y-119853900D01*
X143409759Y-119866177D01*
X143405101Y-119878352D01*
X143405024Y-119879432D01*
X143404253Y-119881591D01*
X143332825Y-120167305D01*
X143332075Y-120172376D01*
X143331228Y-120174421D01*
X143330142Y-120185443D01*
X143328523Y-120196394D01*
X143328848Y-120198581D01*
X143328346Y-120203685D01*
X142985489Y-120203685D01*
X142985489Y-119560828D01*
X142982607Y-119531564D01*
X142960209Y-119477492D01*
X142918825Y-119436108D01*
X142864753Y-119413710D01*
X142835489Y-119410828D01*
X142121203Y-119410828D01*
X142091939Y-119413710D01*
X142037867Y-119436108D01*
X141996483Y-119477492D01*
X141974085Y-119531564D01*
X141518356Y-119531564D01*
X141512982Y-119526190D01*
X141501482Y-119516752D01*
X141498885Y-119513758D01*
X141494368Y-119510915D01*
X141490251Y-119507536D01*
X141486594Y-119506021D01*
X141473999Y-119498093D01*
X141331142Y-119426664D01*
X141303679Y-119416155D01*
X141298304Y-119415773D01*
X141293324Y-119413710D01*
X141264060Y-119410828D01*
X140906917Y-119410828D01*
X140892105Y-119412286D01*
X140888156Y-119412006D01*
X140882961Y-119413187D01*
X140877653Y-119413710D01*
X140873991Y-119415226D01*
X140859482Y-119418526D01*
X140645197Y-119489955D01*
X140618346Y-119501943D01*
X140574131Y-119540291D01*
X140547958Y-119592638D01*
X140543809Y-119651018D01*
X140562317Y-119706542D01*
X140600665Y-119750757D01*
X140653012Y-119776930D01*
X140711392Y-119781079D01*
X140740065Y-119774559D01*
X140931260Y-119710828D01*
X141228650Y-119710828D01*
X141318064Y-119755535D01*
X141355068Y-119792539D01*
X141399774Y-119881951D01*
X141399774Y-119953990D01*
X141355068Y-120043402D01*
X141318064Y-120080406D01*
X141211703Y-120133587D01*
X140941966Y-120201021D01*
X140939807Y-120201792D01*
X140938727Y-120201869D01*
X140926546Y-120206529D01*
X140914275Y-120210914D01*
X140913405Y-120211558D01*
X140911263Y-120212378D01*
X140768407Y-120283807D01*
X140755813Y-120291734D01*
X140752154Y-120293250D01*
X140748034Y-120296631D01*
X140743521Y-120299472D01*
X140740924Y-120302466D01*
X140729423Y-120311905D01*
X140657994Y-120383334D01*
X140648554Y-120394835D01*
X140645561Y-120397432D01*
X140642720Y-120401945D01*
X140639339Y-120406065D01*
X140637823Y-120409724D01*
X140629896Y-120422318D01*
X140558467Y-120565175D01*
X140547958Y-120592638D01*
X140547576Y-120598012D01*
X140545513Y-120602993D01*
X140542631Y-120632257D01*
X140199775Y-120632257D01*
X140199775Y-119560828D01*
X140196893Y-119531564D01*
X140174495Y-119477492D01*
X140133111Y-119436108D01*
X140079039Y-119413710D01*
X140020511Y-119413710D01*
X139966439Y-119436108D01*
X139925055Y-119477492D01*
X139902657Y-119531564D01*
X139899775Y-119560828D01*
X139485489Y-119560828D01*
X139484747Y-119553301D01*
X139485123Y-119550350D01*
X139484080Y-119546528D01*
X139482607Y-119531564D01*
X139474971Y-119513131D01*
X139469723Y-119493887D01*
X139463868Y-119486327D01*
X139460209Y-119477492D01*
X139446101Y-119463384D01*
X139433888Y-119447613D01*
X139425585Y-119442868D01*
X139418825Y-119436108D01*
X139400394Y-119428473D01*
X139383072Y-119418575D01*
X139373586Y-119417369D01*
X139364753Y-119413710D01*
X139344803Y-119413710D01*
X139325012Y-119411194D01*
X139315787Y-119413710D01*
X139306225Y-119413710D01*
X139287796Y-119421343D01*
X139268548Y-119426593D01*
X139260986Y-119432449D01*
X139252153Y-119436108D01*
X139238047Y-119450213D01*
X139222274Y-119462429D01*
X139213568Y-119474692D01*
X139210769Y-119477492D01*
X139209630Y-119480239D01*
X139205253Y-119486407D01*
X138628346Y-120495994D01*
X138628346Y-119560828D01*
X138625464Y-119531564D01*
X138603066Y-119477492D01*
X138561682Y-119436108D01*
X138507610Y-119413710D01*
X138449082Y-119413710D01*
X138395010Y-119436108D01*
X138353626Y-119477492D01*
X138331228Y-119531564D01*
X138328346Y-119560828D01*
X137690477Y-119560828D01*
X137655840Y-119526191D01*
X137633109Y-119507536D01*
X137628129Y-119505473D01*
X137624059Y-119501943D01*
X137597208Y-119489954D01*
X137382922Y-119418526D01*
X137368414Y-119415227D01*
X137364752Y-119413710D01*
X137359443Y-119413187D01*
X137354249Y-119412006D01*
X137350299Y-119412286D01*
X137335488Y-119410828D01*
X137121203Y-119410828D01*
X137091939Y-119413710D01*
X137086961Y-119415771D01*
X137081584Y-119416154D01*
X137054121Y-119426664D01*
X136911263Y-119498093D01*
X136886377Y-119513758D01*
X136848031Y-119557973D01*
X136829523Y-119613495D01*
X136833671Y-119671876D01*
X136859846Y-119724225D01*
X136904061Y-119762571D01*
X136959583Y-119781079D01*
X137017964Y-119776931D01*
X137045427Y-119766421D01*
X137156613Y-119710828D01*
X137311148Y-119710828D01*
X137468746Y-119763361D01*
X137569353Y-119863968D01*
X137622532Y-119970327D01*
X137685488Y-120222148D01*
X137685488Y-120399507D01*
X137622532Y-120651328D01*
X137569353Y-120757688D01*
X137468747Y-120858294D01*
X137311145Y-120910828D01*
X137216974Y-120910828D01*
X137059371Y-120858294D01*
X137056917Y-120855839D01*
X137056917Y-120567971D01*
X137192631Y-120567971D01*
X137221895Y-120565089D01*
X137275967Y-120542691D01*
X137317351Y-120501307D01*
X137339749Y-120447235D01*
X137339749Y-120388707D01*
X137317351Y-120334635D01*
X137275967Y-120293251D01*
X137221895Y-120270853D01*
X137192631Y-120267971D01*
X136906917Y-120267971D01*
X136877653Y-120270853D01*
X136823581Y-120293251D01*
X136782197Y-120334635D01*
X136759799Y-120388707D01*
X136756917Y-120417971D01*
X136414060Y-120417971D01*
X136414060Y-119560828D01*
X136411178Y-119531564D01*
X136388780Y-119477492D01*
X136347396Y-119436108D01*
X136293324Y-119413710D01*
X136264060Y-119410828D01*
X135549774Y-119410828D01*
X135520510Y-119413710D01*
X135466438Y-119436108D01*
X135425054Y-119477492D01*
X135402656Y-119531564D01*
X135054035Y-119531564D01*
X135031637Y-119477492D01*
X134990253Y-119436108D01*
X134936181Y-119413710D01*
X134906917Y-119410828D01*
X134549774Y-119410828D01*
X134534962Y-119412286D01*
X134531013Y-119412006D01*
X134525818Y-119413187D01*
X134520510Y-119413710D01*
X134516848Y-119415226D01*
X134502339Y-119418526D01*
X134288054Y-119489955D01*
X134261203Y-119501943D01*
X134257133Y-119505472D01*
X134252152Y-119507536D01*
X134229422Y-119526191D01*
X134086565Y-119669048D01*
X134077125Y-119680549D01*
X134074132Y-119683146D01*
X134071291Y-119687659D01*
X134067910Y-119691779D01*
X134066394Y-119695438D01*
X134058467Y-119708032D01*
X133987038Y-119850889D01*
X133986218Y-119853029D01*
X133985574Y-119853900D01*
X133981187Y-119866177D01*
X133976529Y-119878352D01*
X133976452Y-119879432D01*
X133975681Y-119881591D01*
X133904253Y-120167305D01*
X133903503Y-120172376D01*
X133902656Y-120174421D01*
X133901570Y-120185443D01*
X133899951Y-120196394D01*
X133900276Y-120198581D01*
X133899774Y-120203685D01*
X132414060Y-120203685D01*
X132414060Y-119560828D01*
X132411178Y-119531564D01*
X132388780Y-119477492D01*
X132347396Y-119436108D01*
X132293324Y-119413710D01*
X132264060Y-119410828D01*
X131764060Y-119410828D01*
X131734796Y-119413710D01*
X131729815Y-119415773D01*
X131724441Y-119416155D01*
X131696977Y-119426664D01*
X131554121Y-119498093D01*
X131541527Y-119506020D01*
X131537868Y-119507536D01*
X131533747Y-119510917D01*
X131529235Y-119513758D01*
X131526638Y-119516751D01*
X131515138Y-119526190D01*
X131443709Y-119597618D01*
X131434269Y-119609120D01*
X131431275Y-119611717D01*
X131428433Y-119616231D01*
X131425054Y-119620349D01*
X131423538Y-119624007D01*
X131415610Y-119636603D01*
X131344181Y-119779460D01*
X131333672Y-119806923D01*
X131333290Y-119812297D01*
X131331227Y-119817278D01*
X131328345Y-119846542D01*
X131328345Y-119989400D01*
X131331227Y-120018664D01*
X131333290Y-120023644D01*
X131333672Y-120029019D01*
X131344181Y-120056482D01*
X131415610Y-120199339D01*
X131423538Y-120211934D01*
X131425054Y-120215593D01*
X131428433Y-120219710D01*
X131431275Y-120224225D01*
X131434269Y-120226821D01*
X131443709Y-120238324D01*
X131444890Y-120239505D01*
X131443708Y-120240476D01*
X131372279Y-120311905D01*
X131362839Y-120323406D01*
X131359846Y-120326003D01*
X131357005Y-120330516D01*
X131353624Y-120334636D01*
X131352108Y-120338295D01*
X131344181Y-120350889D01*
X131272753Y-120493746D01*
X131262243Y-120521210D01*
X131261861Y-120526585D01*
X131259799Y-120531564D01*
X131256917Y-120560828D01*
X130628345Y-120560828D01*
X130628345Y-120390221D01*
X131104894Y-119641360D01*
X131118174Y-119615123D01*
X131128307Y-119557480D01*
X131115611Y-119500348D01*
X131082018Y-119452422D01*
X131032640Y-119420999D01*
X130974997Y-119410866D01*
X130917864Y-119423562D01*
X130869938Y-119457155D01*
X130851796Y-119480297D01*
X130478345Y-120067147D01*
X130104894Y-119480297D01*
X130086752Y-119457155D01*
X130038825Y-119423562D01*
X129981693Y-119410865D01*
X129924050Y-119420999D01*
X129874672Y-119452421D01*
X129841079Y-119500348D01*
X129828382Y-119557480D01*
X129661715Y-119557480D01*
X129661715Y-119244161D01*
X144652156Y-119244161D01*
X144652156Y-121377495D01*
G37*
D11*
%TO.C,REF\u002A\u002A*%
X127938785Y-101928933D02*
X127990458Y-101960469D01*
X128043998Y-102003823D01*
X128043998Y-103304516D01*
X127990458Y-103347870D01*
X127927457Y-103382975D01*
X127855537Y-103384654D01*
X127792379Y-103343485D01*
X127784592Y-103334113D01*
X127773611Y-103315093D01*
X127765159Y-103287608D01*
X127758908Y-103246386D01*
X127754529Y-103186159D01*
X127751695Y-103101655D01*
X127750077Y-102987604D01*
X127749347Y-102838738D01*
X127749176Y-102649785D01*
X127749176Y-102003823D01*
X127802715Y-101960469D01*
X127850353Y-101930797D01*
X127896587Y-101917116D01*
X127938785Y-101928933D01*
G36*
X127938785Y-101928933D02*
G01*
X127990458Y-101960469D01*
X128043998Y-102003823D01*
X128043998Y-103304516D01*
X127990458Y-103347870D01*
X127927457Y-103382975D01*
X127855537Y-103384654D01*
X127792379Y-103343485D01*
X127784592Y-103334113D01*
X127773611Y-103315093D01*
X127765159Y-103287608D01*
X127758908Y-103246386D01*
X127754529Y-103186159D01*
X127751695Y-103101655D01*
X127750077Y-102987604D01*
X127749347Y-102838738D01*
X127749176Y-102649785D01*
X127749176Y-102003823D01*
X127802715Y-101960469D01*
X127850353Y-101930797D01*
X127896587Y-101917116D01*
X127938785Y-101928933D01*
G37*
X142263914Y-101925948D02*
X142332528Y-101972781D01*
X142388194Y-102028447D01*
X142388194Y-102657346D01*
X142388112Y-102826157D01*
X142387592Y-102975263D01*
X142386245Y-103089274D01*
X142383678Y-103173591D01*
X142379502Y-103233612D01*
X142373325Y-103274738D01*
X142364757Y-103302367D01*
X142353407Y-103321900D01*
X142338884Y-103338734D01*
X142275676Y-103381854D01*
X142205031Y-103385403D01*
X142138730Y-103345866D01*
X142128069Y-103334076D01*
X142117121Y-103315827D01*
X142108752Y-103289025D01*
X142102616Y-103248413D01*
X142098369Y-103188732D01*
X142095666Y-103104724D01*
X142094162Y-102991133D01*
X142093513Y-102842701D01*
X142093373Y-102654169D01*
X142093452Y-102502171D01*
X142093964Y-102345657D01*
X142095258Y-102225101D01*
X142097677Y-102135247D01*
X142101567Y-102070836D01*
X142107273Y-102026611D01*
X142115139Y-101997314D01*
X142125509Y-101977687D01*
X142138730Y-101962473D01*
X142197357Y-101924261D01*
X142263914Y-101925948D01*
G36*
X142263914Y-101925948D02*
G01*
X142332528Y-101972781D01*
X142388194Y-102028447D01*
X142388194Y-102657346D01*
X142388112Y-102826157D01*
X142387592Y-102975263D01*
X142386245Y-103089274D01*
X142383678Y-103173591D01*
X142379502Y-103233612D01*
X142373325Y-103274738D01*
X142364757Y-103302367D01*
X142353407Y-103321900D01*
X142338884Y-103338734D01*
X142275676Y-103381854D01*
X142205031Y-103385403D01*
X142138730Y-103345866D01*
X142128069Y-103334076D01*
X142117121Y-103315827D01*
X142108752Y-103289025D01*
X142102616Y-103248413D01*
X142098369Y-103188732D01*
X142095666Y-103104724D01*
X142094162Y-102991133D01*
X142093513Y-102842701D01*
X142093373Y-102654169D01*
X142093452Y-102502171D01*
X142093964Y-102345657D01*
X142095258Y-102225101D01*
X142097677Y-102135247D01*
X142101567Y-102070836D01*
X142107273Y-102026611D01*
X142115139Y-101997314D01*
X142125509Y-101977687D01*
X142138730Y-101962473D01*
X142197357Y-101924261D01*
X142263914Y-101925948D01*
G37*
X142320400Y-89085134D02*
X142530313Y-89136566D01*
X142729287Y-89228876D01*
X142911052Y-89362080D01*
X143069338Y-89536190D01*
X143197873Y-89751223D01*
X143232333Y-89826974D01*
X143260250Y-89903753D01*
X143275914Y-89980509D01*
X143282780Y-90075448D01*
X143284302Y-90206774D01*
X143283382Y-90316080D01*
X143277839Y-90416535D01*
X143264249Y-90494910D01*
X143239217Y-90569205D01*
X143199352Y-90657419D01*
X143187820Y-90680927D01*
X143051515Y-90896183D01*
X142880081Y-91073290D01*
X142678385Y-91208091D01*
X142451291Y-91296430D01*
X142334767Y-91321082D01*
X142098375Y-91332617D01*
X141869414Y-91295292D01*
X141654598Y-91212933D01*
X141460642Y-91089367D01*
X141294258Y-90928422D01*
X141162162Y-90733924D01*
X141071067Y-90509699D01*
X141037738Y-90326205D01*
X141034735Y-90123711D01*
X141061842Y-89926743D01*
X141117768Y-89756129D01*
X141182387Y-89634151D01*
X141326243Y-89440625D01*
X141496785Y-89287889D01*
X141687742Y-89175957D01*
X141892844Y-89104844D01*
X142105821Y-89074565D01*
X142320400Y-89085134D01*
G36*
X142320400Y-89085134D02*
G01*
X142530313Y-89136566D01*
X142729287Y-89228876D01*
X142911052Y-89362080D01*
X143069338Y-89536190D01*
X143197873Y-89751223D01*
X143232333Y-89826974D01*
X143260250Y-89903753D01*
X143275914Y-89980509D01*
X143282780Y-90075448D01*
X143284302Y-90206774D01*
X143283382Y-90316080D01*
X143277839Y-90416535D01*
X143264249Y-90494910D01*
X143239217Y-90569205D01*
X143199352Y-90657419D01*
X143187820Y-90680927D01*
X143051515Y-90896183D01*
X142880081Y-91073290D01*
X142678385Y-91208091D01*
X142451291Y-91296430D01*
X142334767Y-91321082D01*
X142098375Y-91332617D01*
X141869414Y-91295292D01*
X141654598Y-91212933D01*
X141460642Y-91089367D01*
X141294258Y-90928422D01*
X141162162Y-90733924D01*
X141071067Y-90509699D01*
X141037738Y-90326205D01*
X141034735Y-90123711D01*
X141061842Y-89926743D01*
X141117768Y-89756129D01*
X141182387Y-89634151D01*
X141326243Y-89440625D01*
X141496785Y-89287889D01*
X141687742Y-89175957D01*
X141892844Y-89104844D01*
X142105821Y-89074565D01*
X142320400Y-89085134D01*
G37*
X126533262Y-101917119D02*
X126722348Y-101917299D01*
X126872042Y-101917982D01*
X126987368Y-101919472D01*
X127073350Y-101922074D01*
X127135010Y-101926095D01*
X127177372Y-101931840D01*
X127205460Y-101939615D01*
X127224298Y-101949724D01*
X127238908Y-101962473D01*
X127276688Y-102028200D01*
X127279594Y-102103690D01*
X127246733Y-102170464D01*
X127244000Y-102173384D01*
X127221494Y-102190179D01*
X127187137Y-102201339D01*
X127132555Y-102207956D01*
X127049378Y-102211124D01*
X126929233Y-102211937D01*
X126649265Y-102211937D01*
X126649265Y-102741825D01*
X126649114Y-102894158D01*
X126648294Y-103028086D01*
X126646321Y-103128098D01*
X126642713Y-103200253D01*
X126636986Y-103250609D01*
X126628657Y-103285225D01*
X126617243Y-103310158D01*
X126602262Y-103331468D01*
X126597660Y-103337105D01*
X126535026Y-103382592D01*
X126465961Y-103385734D01*
X126399801Y-103345866D01*
X126385782Y-103329642D01*
X126374789Y-103308351D01*
X126366713Y-103276523D01*
X126361106Y-103228356D01*
X126357522Y-103158045D01*
X126355514Y-103059789D01*
X126354637Y-102927782D01*
X126354444Y-102756223D01*
X126354444Y-102211937D01*
X126061269Y-102211937D01*
X126038970Y-102211935D01*
X125925430Y-102211483D01*
X125847394Y-102209195D01*
X125796383Y-102203570D01*
X125763915Y-102193110D01*
X125741512Y-102176312D01*
X125720693Y-102151677D01*
X125688857Y-102090028D01*
X125695089Y-102022165D01*
X125746606Y-101956803D01*
X125756532Y-101949335D01*
X125777043Y-101939620D01*
X125808032Y-101932060D01*
X125854481Y-101926390D01*
X125921374Y-101922345D01*
X126013692Y-101919660D01*
X126136419Y-101918070D01*
X126294537Y-101917310D01*
X126493028Y-101917116D01*
X126533262Y-101917119D01*
G36*
X126533262Y-101917119D02*
G01*
X126722348Y-101917299D01*
X126872042Y-101917982D01*
X126987368Y-101919472D01*
X127073350Y-101922074D01*
X127135010Y-101926095D01*
X127177372Y-101931840D01*
X127205460Y-101939615D01*
X127224298Y-101949724D01*
X127238908Y-101962473D01*
X127276688Y-102028200D01*
X127279594Y-102103690D01*
X127246733Y-102170464D01*
X127244000Y-102173384D01*
X127221494Y-102190179D01*
X127187137Y-102201339D01*
X127132555Y-102207956D01*
X127049378Y-102211124D01*
X126929233Y-102211937D01*
X126649265Y-102211937D01*
X126649265Y-102741825D01*
X126649114Y-102894158D01*
X126648294Y-103028086D01*
X126646321Y-103128098D01*
X126642713Y-103200253D01*
X126636986Y-103250609D01*
X126628657Y-103285225D01*
X126617243Y-103310158D01*
X126602262Y-103331468D01*
X126597660Y-103337105D01*
X126535026Y-103382592D01*
X126465961Y-103385734D01*
X126399801Y-103345866D01*
X126385782Y-103329642D01*
X126374789Y-103308351D01*
X126366713Y-103276523D01*
X126361106Y-103228356D01*
X126357522Y-103158045D01*
X126355514Y-103059789D01*
X126354637Y-102927782D01*
X126354444Y-102756223D01*
X126354444Y-102211937D01*
X126061269Y-102211937D01*
X126038970Y-102211935D01*
X125925430Y-102211483D01*
X125847394Y-102209195D01*
X125796383Y-102203570D01*
X125763915Y-102193110D01*
X125741512Y-102176312D01*
X125720693Y-102151677D01*
X125688857Y-102090028D01*
X125695089Y-102022165D01*
X125746606Y-101956803D01*
X125756532Y-101949335D01*
X125777043Y-101939620D01*
X125808032Y-101932060D01*
X125854481Y-101926390D01*
X125921374Y-101922345D01*
X126013692Y-101919660D01*
X126136419Y-101918070D01*
X126294537Y-101917310D01*
X126493028Y-101917116D01*
X126533262Y-101917119D01*
G37*
X125175158Y-101962473D02*
X125186473Y-101974909D01*
X125196700Y-101991393D01*
X125204909Y-102015052D01*
X125211293Y-102050126D01*
X125216047Y-102100859D01*
X125219363Y-102171493D01*
X125221435Y-102266271D01*
X125222456Y-102389435D01*
X125222619Y-102545228D01*
X125222118Y-102737892D01*
X125221146Y-102971669D01*
X125221009Y-103000146D01*
X125219831Y-103124222D01*
X125217175Y-103211978D01*
X125212061Y-103271001D01*
X125203512Y-103308877D01*
X125190552Y-103333193D01*
X125172201Y-103351535D01*
X125104988Y-103386525D01*
X125034779Y-103380696D01*
X124972697Y-103331468D01*
X124954598Y-103304944D01*
X124939629Y-103267708D01*
X124930854Y-103215418D01*
X124926726Y-103137982D01*
X124925694Y-103025307D01*
X124925694Y-102778902D01*
X123927837Y-102778902D01*
X123927837Y-103049758D01*
X123927690Y-103121660D01*
X123926158Y-103214733D01*
X123921786Y-103276075D01*
X123913154Y-103314305D01*
X123898843Y-103338046D01*
X123877434Y-103355919D01*
X123812643Y-103386193D01*
X123741755Y-103380835D01*
X123680019Y-103331468D01*
X123670666Y-103318903D01*
X123658742Y-103297760D01*
X123649639Y-103269777D01*
X123642978Y-103229449D01*
X123638380Y-103171276D01*
X123635463Y-103089755D01*
X123633850Y-102979383D01*
X123633161Y-102834659D01*
X123633015Y-102650080D01*
X123633015Y-102028447D01*
X123688681Y-101972781D01*
X123751718Y-101928097D01*
X123818473Y-101922694D01*
X123882480Y-101962473D01*
X123899125Y-101982101D01*
X123914015Y-102014027D01*
X123922729Y-102062176D01*
X123926819Y-102136251D01*
X123927837Y-102245955D01*
X123927837Y-102484080D01*
X124925694Y-102484080D01*
X124925694Y-102256264D01*
X124925695Y-102252022D01*
X124926574Y-102148166D01*
X124930519Y-102078808D01*
X124939591Y-102033455D01*
X124955851Y-102001610D01*
X124981360Y-101972781D01*
X125044397Y-101928097D01*
X125111151Y-101922694D01*
X125175158Y-101962473D01*
G36*
X125175158Y-101962473D02*
G01*
X125186473Y-101974909D01*
X125196700Y-101991393D01*
X125204909Y-102015052D01*
X125211293Y-102050126D01*
X125216047Y-102100859D01*
X125219363Y-102171493D01*
X125221435Y-102266271D01*
X125222456Y-102389435D01*
X125222619Y-102545228D01*
X125222118Y-102737892D01*
X125221146Y-102971669D01*
X125221009Y-103000146D01*
X125219831Y-103124222D01*
X125217175Y-103211978D01*
X125212061Y-103271001D01*
X125203512Y-103308877D01*
X125190552Y-103333193D01*
X125172201Y-103351535D01*
X125104988Y-103386525D01*
X125034779Y-103380696D01*
X124972697Y-103331468D01*
X124954598Y-103304944D01*
X124939629Y-103267708D01*
X124930854Y-103215418D01*
X124926726Y-103137982D01*
X124925694Y-103025307D01*
X124925694Y-102778902D01*
X123927837Y-102778902D01*
X123927837Y-103049758D01*
X123927690Y-103121660D01*
X123926158Y-103214733D01*
X123921786Y-103276075D01*
X123913154Y-103314305D01*
X123898843Y-103338046D01*
X123877434Y-103355919D01*
X123812643Y-103386193D01*
X123741755Y-103380835D01*
X123680019Y-103331468D01*
X123670666Y-103318903D01*
X123658742Y-103297760D01*
X123649639Y-103269777D01*
X123642978Y-103229449D01*
X123638380Y-103171276D01*
X123635463Y-103089755D01*
X123633850Y-102979383D01*
X123633161Y-102834659D01*
X123633015Y-102650080D01*
X123633015Y-102028447D01*
X123688681Y-101972781D01*
X123751718Y-101928097D01*
X123818473Y-101922694D01*
X123882480Y-101962473D01*
X123899125Y-101982101D01*
X123914015Y-102014027D01*
X123922729Y-102062176D01*
X123926819Y-102136251D01*
X123927837Y-102245955D01*
X123927837Y-102484080D01*
X124925694Y-102484080D01*
X124925694Y-102256264D01*
X124925695Y-102252022D01*
X124926574Y-102148166D01*
X124930519Y-102078808D01*
X124939591Y-102033455D01*
X124955851Y-102001610D01*
X124981360Y-101972781D01*
X125044397Y-101928097D01*
X125111151Y-101922694D01*
X125175158Y-101962473D01*
G37*
X134627969Y-103145233D02*
X134624013Y-103211082D01*
X134618129Y-103257129D01*
X134609939Y-103288873D01*
X134599062Y-103311819D01*
X134585119Y-103331468D01*
X134538116Y-103391223D01*
X134205253Y-103390030D01*
X134135351Y-103389431D01*
X133937505Y-103382539D01*
X133774859Y-103367106D01*
X133640071Y-103341879D01*
X133525796Y-103305608D01*
X133424693Y-103257042D01*
X133417946Y-103253191D01*
X133301806Y-103179427D01*
X133216720Y-103105165D01*
X133150794Y-103017806D01*
X133092134Y-102904749D01*
X133083532Y-102885433D01*
X133038175Y-102758497D01*
X133026655Y-102666980D01*
X133326478Y-102666980D01*
X133337753Y-102716658D01*
X133349257Y-102748555D01*
X133415410Y-102868907D01*
X133510510Y-102960822D01*
X133638610Y-103027388D01*
X133803762Y-103071694D01*
X133809375Y-103072703D01*
X133902359Y-103084681D01*
X134015655Y-103093174D01*
X134126020Y-103096402D01*
X134314623Y-103096402D01*
X134314623Y-102211937D01*
X134138864Y-102212837D01*
X134004427Y-102217812D01*
X133818806Y-102240415D01*
X133659468Y-102279668D01*
X133534965Y-102333857D01*
X133472809Y-102375499D01*
X133416318Y-102435297D01*
X133369431Y-102520532D01*
X133355113Y-102552607D01*
X133331360Y-102617900D01*
X133326478Y-102666980D01*
X133026655Y-102666980D01*
X133024171Y-102647246D01*
X133041451Y-102536702D01*
X133089950Y-102411883D01*
X133091549Y-102408482D01*
X133172813Y-102269019D01*
X133274634Y-102155316D01*
X133400645Y-102065783D01*
X133554481Y-101998828D01*
X133739774Y-101952863D01*
X133960159Y-101926295D01*
X134219270Y-101917534D01*
X134226445Y-101917524D01*
X134347022Y-101917805D01*
X134431257Y-101919887D01*
X134487736Y-101925098D01*
X134525039Y-101934766D01*
X134551752Y-101950218D01*
X134576457Y-101972781D01*
X134632123Y-102028447D01*
X134632123Y-102650080D01*
X134632072Y-102773841D01*
X134631619Y-102932115D01*
X134630378Y-103054078D01*
X134629259Y-103096402D01*
X134627969Y-103145233D01*
G36*
X134627969Y-103145233D02*
G01*
X134624013Y-103211082D01*
X134618129Y-103257129D01*
X134609939Y-103288873D01*
X134599062Y-103311819D01*
X134585119Y-103331468D01*
X134538116Y-103391223D01*
X134205253Y-103390030D01*
X134135351Y-103389431D01*
X133937505Y-103382539D01*
X133774859Y-103367106D01*
X133640071Y-103341879D01*
X133525796Y-103305608D01*
X133424693Y-103257042D01*
X133417946Y-103253191D01*
X133301806Y-103179427D01*
X133216720Y-103105165D01*
X133150794Y-103017806D01*
X133092134Y-102904749D01*
X133083532Y-102885433D01*
X133038175Y-102758497D01*
X133026655Y-102666980D01*
X133326478Y-102666980D01*
X133337753Y-102716658D01*
X133349257Y-102748555D01*
X133415410Y-102868907D01*
X133510510Y-102960822D01*
X133638610Y-103027388D01*
X133803762Y-103071694D01*
X133809375Y-103072703D01*
X133902359Y-103084681D01*
X134015655Y-103093174D01*
X134126020Y-103096402D01*
X134314623Y-103096402D01*
X134314623Y-102211937D01*
X134138864Y-102212837D01*
X134004427Y-102217812D01*
X133818806Y-102240415D01*
X133659468Y-102279668D01*
X133534965Y-102333857D01*
X133472809Y-102375499D01*
X133416318Y-102435297D01*
X133369431Y-102520532D01*
X133355113Y-102552607D01*
X133331360Y-102617900D01*
X133326478Y-102666980D01*
X133026655Y-102666980D01*
X133024171Y-102647246D01*
X133041451Y-102536702D01*
X133089950Y-102411883D01*
X133091549Y-102408482D01*
X133172813Y-102269019D01*
X133274634Y-102155316D01*
X133400645Y-102065783D01*
X133554481Y-101998828D01*
X133739774Y-101952863D01*
X133960159Y-101926295D01*
X134219270Y-101917534D01*
X134226445Y-101917524D01*
X134347022Y-101917805D01*
X134431257Y-101919887D01*
X134487736Y-101925098D01*
X134525039Y-101934766D01*
X134551752Y-101950218D01*
X134576457Y-101972781D01*
X134632123Y-102028447D01*
X134632123Y-102650080D01*
X134632072Y-102773841D01*
X134631619Y-102932115D01*
X134630378Y-103054078D01*
X134629259Y-103096402D01*
X134627969Y-103145233D01*
G37*
X148874657Y-102289491D02*
X148874765Y-102451440D01*
X148874265Y-102654169D01*
X148874186Y-102806167D01*
X148873674Y-102962682D01*
X148872380Y-103083237D01*
X148869961Y-103173092D01*
X148866071Y-103237503D01*
X148860365Y-103281728D01*
X148852500Y-103311025D01*
X148842129Y-103330652D01*
X148828908Y-103345866D01*
X148814912Y-103358389D01*
X148788800Y-103373055D01*
X148750333Y-103382604D01*
X148691262Y-103388104D01*
X148603340Y-103390621D01*
X148478317Y-103391223D01*
X148379987Y-103390469D01*
X148165314Y-103381572D01*
X147986062Y-103361307D01*
X147835798Y-103327983D01*
X147708088Y-103279909D01*
X147596499Y-103215394D01*
X147494597Y-103132750D01*
X147482567Y-103120992D01*
X147408504Y-103023542D01*
X147346027Y-102901382D01*
X147302870Y-102772322D01*
X147292261Y-102694489D01*
X147588010Y-102694489D01*
X147624737Y-102796814D01*
X147684343Y-102889058D01*
X147778154Y-102974256D01*
X147901480Y-103034127D01*
X148060480Y-103072569D01*
X148063473Y-103073048D01*
X148161852Y-103084683D01*
X148279764Y-103093001D01*
X148392346Y-103096230D01*
X148579444Y-103096402D01*
X148579444Y-102211937D01*
X148426364Y-102211908D01*
X148420281Y-102211927D01*
X148317585Y-102215873D01*
X148196843Y-102225366D01*
X148082919Y-102238481D01*
X147982557Y-102257156D01*
X147832386Y-102309927D01*
X147716854Y-102388876D01*
X147633482Y-102495419D01*
X147590858Y-102598409D01*
X147588010Y-102694489D01*
X147292261Y-102694489D01*
X147286765Y-102654169D01*
X147289335Y-102611547D01*
X147314069Y-102496203D01*
X147359328Y-102375846D01*
X147418049Y-102267265D01*
X147483171Y-102187248D01*
X147522429Y-102153050D01*
X147632341Y-102074325D01*
X147753486Y-102013797D01*
X147892496Y-101969680D01*
X148056006Y-101940185D01*
X148250649Y-101923528D01*
X148483060Y-101917920D01*
X148562377Y-101917114D01*
X148654207Y-101916284D01*
X148726128Y-101919909D01*
X148780551Y-101932529D01*
X148819890Y-101958686D01*
X148846558Y-102002920D01*
X148862966Y-102069771D01*
X148871529Y-102163782D01*
X148872728Y-102211937D01*
X148874657Y-102289491D01*
G36*
X148874657Y-102289491D02*
G01*
X148874765Y-102451440D01*
X148874265Y-102654169D01*
X148874186Y-102806167D01*
X148873674Y-102962682D01*
X148872380Y-103083237D01*
X148869961Y-103173092D01*
X148866071Y-103237503D01*
X148860365Y-103281728D01*
X148852500Y-103311025D01*
X148842129Y-103330652D01*
X148828908Y-103345866D01*
X148814912Y-103358389D01*
X148788800Y-103373055D01*
X148750333Y-103382604D01*
X148691262Y-103388104D01*
X148603340Y-103390621D01*
X148478317Y-103391223D01*
X148379987Y-103390469D01*
X148165314Y-103381572D01*
X147986062Y-103361307D01*
X147835798Y-103327983D01*
X147708088Y-103279909D01*
X147596499Y-103215394D01*
X147494597Y-103132750D01*
X147482567Y-103120992D01*
X147408504Y-103023542D01*
X147346027Y-102901382D01*
X147302870Y-102772322D01*
X147292261Y-102694489D01*
X147588010Y-102694489D01*
X147624737Y-102796814D01*
X147684343Y-102889058D01*
X147778154Y-102974256D01*
X147901480Y-103034127D01*
X148060480Y-103072569D01*
X148063473Y-103073048D01*
X148161852Y-103084683D01*
X148279764Y-103093001D01*
X148392346Y-103096230D01*
X148579444Y-103096402D01*
X148579444Y-102211937D01*
X148426364Y-102211908D01*
X148420281Y-102211927D01*
X148317585Y-102215873D01*
X148196843Y-102225366D01*
X148082919Y-102238481D01*
X147982557Y-102257156D01*
X147832386Y-102309927D01*
X147716854Y-102388876D01*
X147633482Y-102495419D01*
X147590858Y-102598409D01*
X147588010Y-102694489D01*
X147292261Y-102694489D01*
X147286765Y-102654169D01*
X147289335Y-102611547D01*
X147314069Y-102496203D01*
X147359328Y-102375846D01*
X147418049Y-102267265D01*
X147483171Y-102187248D01*
X147522429Y-102153050D01*
X147632341Y-102074325D01*
X147753486Y-102013797D01*
X147892496Y-101969680D01*
X148056006Y-101940185D01*
X148250649Y-101923528D01*
X148483060Y-101917920D01*
X148562377Y-101917114D01*
X148654207Y-101916284D01*
X148726128Y-101919909D01*
X148780551Y-101932529D01*
X148819890Y-101958686D01*
X148846558Y-102002920D01*
X148862966Y-102069771D01*
X148871529Y-102163782D01*
X148872728Y-102211937D01*
X148874657Y-102289491D01*
G37*
X138940658Y-101914755D02*
X138963575Y-101927085D01*
X138984766Y-101948503D01*
X139007441Y-101976871D01*
X139016386Y-101988846D01*
X139028437Y-102009930D01*
X139037637Y-102037704D01*
X139044369Y-102077691D01*
X139049019Y-102135416D01*
X139051967Y-102216403D01*
X139053599Y-102326175D01*
X139054297Y-102470256D01*
X139054444Y-102654169D01*
X139054398Y-102771752D01*
X139053959Y-102930634D01*
X139052736Y-103053062D01*
X139050344Y-103144563D01*
X139046400Y-103210658D01*
X139040521Y-103256872D01*
X139032324Y-103288729D01*
X139021425Y-103311753D01*
X139007441Y-103331468D01*
X138946312Y-103380472D01*
X138876114Y-103386257D01*
X138801823Y-103347906D01*
X138793417Y-103340924D01*
X138776992Y-103323793D01*
X138764817Y-103300588D01*
X138756013Y-103264764D01*
X138749701Y-103209775D01*
X138745005Y-103129077D01*
X138741045Y-103016124D01*
X138736944Y-102864370D01*
X138725605Y-102424152D01*
X138192658Y-102907582D01*
X138044331Y-103041731D01*
X137913390Y-103158482D01*
X137808535Y-103248799D01*
X137726020Y-103314937D01*
X137662098Y-103359149D01*
X137613023Y-103383688D01*
X137575050Y-103390811D01*
X137544433Y-103382769D01*
X137517424Y-103361818D01*
X137490280Y-103330211D01*
X137477733Y-103313168D01*
X137466420Y-103291919D01*
X137457960Y-103263476D01*
X137452030Y-103222389D01*
X137448303Y-103163205D01*
X137446457Y-103080474D01*
X137446165Y-102968744D01*
X137447103Y-102822564D01*
X137448946Y-102636482D01*
X137455605Y-102003765D01*
X137509144Y-101960440D01*
X137561507Y-101927913D01*
X137627517Y-101922346D01*
X137696887Y-101960421D01*
X137705549Y-101967622D01*
X137721886Y-101984758D01*
X137733998Y-102008045D01*
X137742759Y-102044016D01*
X137749042Y-102099203D01*
X137753722Y-102180140D01*
X137757671Y-102293357D01*
X137761765Y-102445388D01*
X137773105Y-102887050D01*
X138135962Y-102557999D01*
X138310212Y-102400030D01*
X138462432Y-102262633D01*
X138587260Y-102151440D01*
X138687903Y-102064312D01*
X138767572Y-101999108D01*
X138829473Y-101953690D01*
X138876815Y-101925918D01*
X138912808Y-101913653D01*
X138940658Y-101914755D01*
G36*
X138940658Y-101914755D02*
G01*
X138963575Y-101927085D01*
X138984766Y-101948503D01*
X139007441Y-101976871D01*
X139016386Y-101988846D01*
X139028437Y-102009930D01*
X139037637Y-102037704D01*
X139044369Y-102077691D01*
X139049019Y-102135416D01*
X139051967Y-102216403D01*
X139053599Y-102326175D01*
X139054297Y-102470256D01*
X139054444Y-102654169D01*
X139054398Y-102771752D01*
X139053959Y-102930634D01*
X139052736Y-103053062D01*
X139050344Y-103144563D01*
X139046400Y-103210658D01*
X139040521Y-103256872D01*
X139032324Y-103288729D01*
X139021425Y-103311753D01*
X139007441Y-103331468D01*
X138946312Y-103380472D01*
X138876114Y-103386257D01*
X138801823Y-103347906D01*
X138793417Y-103340924D01*
X138776992Y-103323793D01*
X138764817Y-103300588D01*
X138756013Y-103264764D01*
X138749701Y-103209775D01*
X138745005Y-103129077D01*
X138741045Y-103016124D01*
X138736944Y-102864370D01*
X138725605Y-102424152D01*
X138192658Y-102907582D01*
X138044331Y-103041731D01*
X137913390Y-103158482D01*
X137808535Y-103248799D01*
X137726020Y-103314937D01*
X137662098Y-103359149D01*
X137613023Y-103383688D01*
X137575050Y-103390811D01*
X137544433Y-103382769D01*
X137517424Y-103361818D01*
X137490280Y-103330211D01*
X137477733Y-103313168D01*
X137466420Y-103291919D01*
X137457960Y-103263476D01*
X137452030Y-103222389D01*
X137448303Y-103163205D01*
X137446457Y-103080474D01*
X137446165Y-102968744D01*
X137447103Y-102822564D01*
X137448946Y-102636482D01*
X137455605Y-102003765D01*
X137509144Y-101960440D01*
X137561507Y-101927913D01*
X137627517Y-101922346D01*
X137696887Y-101960421D01*
X137705549Y-101967622D01*
X137721886Y-101984758D01*
X137733998Y-102008045D01*
X137742759Y-102044016D01*
X137749042Y-102099203D01*
X137753722Y-102180140D01*
X137757671Y-102293357D01*
X137761765Y-102445388D01*
X137773105Y-102887050D01*
X138135962Y-102557999D01*
X138310212Y-102400030D01*
X138462432Y-102262633D01*
X138587260Y-102151440D01*
X138687903Y-102064312D01*
X138767572Y-101999108D01*
X138829473Y-101953690D01*
X138876815Y-101925918D01*
X138912808Y-101913653D01*
X138940658Y-101914755D01*
G37*
X140542290Y-101927386D02*
X140755249Y-101960162D01*
X140943712Y-102016515D01*
X141102006Y-102094675D01*
X141224459Y-102192875D01*
X141276832Y-102258892D01*
X141336111Y-102357729D01*
X141386880Y-102465926D01*
X141422336Y-102568717D01*
X141435676Y-102651334D01*
X141432543Y-102690940D01*
X141406544Y-102794063D01*
X141360011Y-102907621D01*
X141299961Y-103015936D01*
X141233408Y-103103332D01*
X141212924Y-103124121D01*
X141078154Y-103228133D01*
X140917188Y-103308274D01*
X140743998Y-103357295D01*
X140633578Y-103373592D01*
X140445838Y-103386860D01*
X140265476Y-103382667D01*
X140099760Y-103362085D01*
X139955955Y-103326185D01*
X139841330Y-103276039D01*
X139763149Y-103212716D01*
X139760386Y-103208747D01*
X139746147Y-103158070D01*
X139737632Y-103063146D01*
X139734801Y-102923598D01*
X139736529Y-102798577D01*
X139746010Y-102703389D01*
X139769494Y-102638896D01*
X139813227Y-102599616D01*
X139883457Y-102580069D01*
X139986431Y-102574771D01*
X140128395Y-102578243D01*
X140226070Y-102584294D01*
X140326910Y-102600752D01*
X140392188Y-102628984D01*
X140427261Y-102671645D01*
X140437490Y-102731390D01*
X140437276Y-102740513D01*
X140419794Y-102810412D01*
X140371561Y-102857455D01*
X140288662Y-102883973D01*
X140167185Y-102892294D01*
X140029623Y-102892294D01*
X140029623Y-102969341D01*
X140029724Y-102987693D01*
X140034185Y-103022349D01*
X140052802Y-103043029D01*
X140095754Y-103056966D01*
X140173221Y-103071395D01*
X140184218Y-103073271D01*
X140378985Y-103093166D01*
X140559771Y-103087302D01*
X140722309Y-103057710D01*
X140862329Y-103006421D01*
X140975562Y-102935465D01*
X141057739Y-102846873D01*
X141104591Y-102742676D01*
X141111848Y-102624905D01*
X141100761Y-102566857D01*
X141047156Y-102454579D01*
X140954366Y-102362852D01*
X140823823Y-102292869D01*
X140656958Y-102245823D01*
X140607389Y-102236886D01*
X140427934Y-102215793D01*
X140267606Y-102218263D01*
X140110724Y-102244249D01*
X140040123Y-102257888D01*
X139948842Y-102259933D01*
X139885933Y-102234758D01*
X139845446Y-102180945D01*
X139832621Y-102124198D01*
X139851679Y-102061471D01*
X139870420Y-102034501D01*
X139939194Y-101987228D01*
X140044908Y-101951325D01*
X140182553Y-101928229D01*
X140347123Y-101919377D01*
X140542290Y-101927386D01*
G36*
X140542290Y-101927386D02*
G01*
X140755249Y-101960162D01*
X140943712Y-102016515D01*
X141102006Y-102094675D01*
X141224459Y-102192875D01*
X141276832Y-102258892D01*
X141336111Y-102357729D01*
X141386880Y-102465926D01*
X141422336Y-102568717D01*
X141435676Y-102651334D01*
X141432543Y-102690940D01*
X141406544Y-102794063D01*
X141360011Y-102907621D01*
X141299961Y-103015936D01*
X141233408Y-103103332D01*
X141212924Y-103124121D01*
X141078154Y-103228133D01*
X140917188Y-103308274D01*
X140743998Y-103357295D01*
X140633578Y-103373592D01*
X140445838Y-103386860D01*
X140265476Y-103382667D01*
X140099760Y-103362085D01*
X139955955Y-103326185D01*
X139841330Y-103276039D01*
X139763149Y-103212716D01*
X139760386Y-103208747D01*
X139746147Y-103158070D01*
X139737632Y-103063146D01*
X139734801Y-102923598D01*
X139736529Y-102798577D01*
X139746010Y-102703389D01*
X139769494Y-102638896D01*
X139813227Y-102599616D01*
X139883457Y-102580069D01*
X139986431Y-102574771D01*
X140128395Y-102578243D01*
X140226070Y-102584294D01*
X140326910Y-102600752D01*
X140392188Y-102628984D01*
X140427261Y-102671645D01*
X140437490Y-102731390D01*
X140437276Y-102740513D01*
X140419794Y-102810412D01*
X140371561Y-102857455D01*
X140288662Y-102883973D01*
X140167185Y-102892294D01*
X140029623Y-102892294D01*
X140029623Y-102969341D01*
X140029724Y-102987693D01*
X140034185Y-103022349D01*
X140052802Y-103043029D01*
X140095754Y-103056966D01*
X140173221Y-103071395D01*
X140184218Y-103073271D01*
X140378985Y-103093166D01*
X140559771Y-103087302D01*
X140722309Y-103057710D01*
X140862329Y-103006421D01*
X140975562Y-102935465D01*
X141057739Y-102846873D01*
X141104591Y-102742676D01*
X141111848Y-102624905D01*
X141100761Y-102566857D01*
X141047156Y-102454579D01*
X140954366Y-102362852D01*
X140823823Y-102292869D01*
X140656958Y-102245823D01*
X140607389Y-102236886D01*
X140427934Y-102215793D01*
X140267606Y-102218263D01*
X140110724Y-102244249D01*
X140040123Y-102257888D01*
X139948842Y-102259933D01*
X139885933Y-102234758D01*
X139845446Y-102180945D01*
X139832621Y-102124198D01*
X139851679Y-102061471D01*
X139870420Y-102034501D01*
X139939194Y-101987228D01*
X140044908Y-101951325D01*
X140182553Y-101928229D01*
X140347123Y-101919377D01*
X140542290Y-101927386D01*
G37*
X136626191Y-101976871D02*
X136636133Y-101990298D01*
X136647874Y-102011535D01*
X136656836Y-102039834D01*
X136663393Y-102080666D01*
X136667919Y-102139501D01*
X136670788Y-102221811D01*
X136672374Y-102333065D01*
X136673051Y-102478735D01*
X136673194Y-102664291D01*
X136673136Y-102796713D01*
X136672670Y-102954047D01*
X136671423Y-103075120D01*
X136669027Y-103165317D01*
X136665116Y-103230021D01*
X136659320Y-103274616D01*
X136651272Y-103304487D01*
X136640606Y-103325017D01*
X136626953Y-103341589D01*
X136617883Y-103350946D01*
X136601350Y-103363977D01*
X136578529Y-103373844D01*
X136543839Y-103380986D01*
X136491697Y-103385844D01*
X136416524Y-103388857D01*
X136312738Y-103390465D01*
X136174756Y-103391107D01*
X135997000Y-103391223D01*
X135957475Y-103391210D01*
X135782647Y-103390675D01*
X135646739Y-103389136D01*
X135544375Y-103386295D01*
X135470182Y-103381852D01*
X135418785Y-103375508D01*
X135384810Y-103366963D01*
X135362883Y-103355919D01*
X135341805Y-103335858D01*
X135315164Y-103273347D01*
X135317540Y-103201249D01*
X135350013Y-103137875D01*
X135354411Y-103133302D01*
X135371864Y-103120710D01*
X135398667Y-103111337D01*
X135440820Y-103104715D01*
X135504325Y-103100377D01*
X135595183Y-103097857D01*
X135719394Y-103096688D01*
X135882959Y-103096402D01*
X136378373Y-103096402D01*
X136378373Y-102778902D01*
X136052046Y-102778902D01*
X135980390Y-102778740D01*
X135868352Y-102777138D01*
X135789727Y-102773111D01*
X135736583Y-102765796D01*
X135700990Y-102754328D01*
X135675015Y-102737844D01*
X135667696Y-102731448D01*
X135630717Y-102669221D01*
X135629443Y-102596224D01*
X135664678Y-102528686D01*
X135664802Y-102528548D01*
X135684230Y-102511218D01*
X135710936Y-102499053D01*
X135752535Y-102491155D01*
X135816643Y-102486626D01*
X135910873Y-102484567D01*
X136042841Y-102484080D01*
X136380636Y-102484080D01*
X136373835Y-102353678D01*
X136367033Y-102223277D01*
X135880717Y-102217143D01*
X135830461Y-102216484D01*
X135666493Y-102213512D01*
X135541298Y-102208722D01*
X135449664Y-102200696D01*
X135386378Y-102188012D01*
X135346229Y-102169251D01*
X135324005Y-102142992D01*
X135314492Y-102107814D01*
X135312480Y-102062298D01*
X135312492Y-102057546D01*
X135314810Y-102017305D01*
X135324448Y-101985579D01*
X135346160Y-101961358D01*
X135384700Y-101943633D01*
X135444824Y-101931395D01*
X135531285Y-101923634D01*
X135648838Y-101919340D01*
X135802237Y-101917503D01*
X135996237Y-101917116D01*
X136579188Y-101917116D01*
X136626191Y-101976871D01*
G36*
X136626191Y-101976871D02*
G01*
X136636133Y-101990298D01*
X136647874Y-102011535D01*
X136656836Y-102039834D01*
X136663393Y-102080666D01*
X136667919Y-102139501D01*
X136670788Y-102221811D01*
X136672374Y-102333065D01*
X136673051Y-102478735D01*
X136673194Y-102664291D01*
X136673136Y-102796713D01*
X136672670Y-102954047D01*
X136671423Y-103075120D01*
X136669027Y-103165317D01*
X136665116Y-103230021D01*
X136659320Y-103274616D01*
X136651272Y-103304487D01*
X136640606Y-103325017D01*
X136626953Y-103341589D01*
X136617883Y-103350946D01*
X136601350Y-103363977D01*
X136578529Y-103373844D01*
X136543839Y-103380986D01*
X136491697Y-103385844D01*
X136416524Y-103388857D01*
X136312738Y-103390465D01*
X136174756Y-103391107D01*
X135997000Y-103391223D01*
X135957475Y-103391210D01*
X135782647Y-103390675D01*
X135646739Y-103389136D01*
X135544375Y-103386295D01*
X135470182Y-103381852D01*
X135418785Y-103375508D01*
X135384810Y-103366963D01*
X135362883Y-103355919D01*
X135341805Y-103335858D01*
X135315164Y-103273347D01*
X135317540Y-103201249D01*
X135350013Y-103137875D01*
X135354411Y-103133302D01*
X135371864Y-103120710D01*
X135398667Y-103111337D01*
X135440820Y-103104715D01*
X135504325Y-103100377D01*
X135595183Y-103097857D01*
X135719394Y-103096688D01*
X135882959Y-103096402D01*
X136378373Y-103096402D01*
X136378373Y-102778902D01*
X136052046Y-102778902D01*
X135980390Y-102778740D01*
X135868352Y-102777138D01*
X135789727Y-102773111D01*
X135736583Y-102765796D01*
X135700990Y-102754328D01*
X135675015Y-102737844D01*
X135667696Y-102731448D01*
X135630717Y-102669221D01*
X135629443Y-102596224D01*
X135664678Y-102528686D01*
X135664802Y-102528548D01*
X135684230Y-102511218D01*
X135710936Y-102499053D01*
X135752535Y-102491155D01*
X135816643Y-102486626D01*
X135910873Y-102484567D01*
X136042841Y-102484080D01*
X136380636Y-102484080D01*
X136373835Y-102353678D01*
X136367033Y-102223277D01*
X135880717Y-102217143D01*
X135830461Y-102216484D01*
X135666493Y-102213512D01*
X135541298Y-102208722D01*
X135449664Y-102200696D01*
X135386378Y-102188012D01*
X135346229Y-102169251D01*
X135324005Y-102142992D01*
X135314492Y-102107814D01*
X135312480Y-102062298D01*
X135312492Y-102057546D01*
X135314810Y-102017305D01*
X135324448Y-101985579D01*
X135346160Y-101961358D01*
X135384700Y-101943633D01*
X135444824Y-101931395D01*
X135531285Y-101923634D01*
X135648838Y-101919340D01*
X135802237Y-101917503D01*
X135996237Y-101917116D01*
X136579188Y-101917116D01*
X136626191Y-101976871D01*
G37*
X146021811Y-101917148D02*
X146176693Y-101917534D01*
X146295112Y-101918709D01*
X146382675Y-101921102D01*
X146444989Y-101925145D01*
X146487664Y-101931268D01*
X146516305Y-101939903D01*
X146536521Y-101951478D01*
X146553920Y-101966426D01*
X146557505Y-101969803D01*
X146572058Y-101984948D01*
X146583392Y-102003064D01*
X146591911Y-102029450D01*
X146598016Y-102069403D01*
X146602109Y-102128222D01*
X146604593Y-102211205D01*
X146605870Y-102323651D01*
X146606341Y-102470857D01*
X146606408Y-102658123D01*
X146606335Y-102804351D01*
X146605836Y-102961401D01*
X146604557Y-103082367D01*
X146602152Y-103172526D01*
X146598273Y-103237153D01*
X146592571Y-103281524D01*
X146584699Y-103310916D01*
X146574308Y-103330605D01*
X146561051Y-103345866D01*
X146554353Y-103352248D01*
X146537233Y-103364524D01*
X146513122Y-103373915D01*
X146476539Y-103380806D01*
X146422002Y-103385582D01*
X146344032Y-103388627D01*
X146237148Y-103390325D01*
X146095868Y-103391063D01*
X145914712Y-103391223D01*
X145830118Y-103391199D01*
X145667100Y-103390834D01*
X145541558Y-103389723D01*
X145448010Y-103387482D01*
X145380977Y-103383726D01*
X145334978Y-103378071D01*
X145304531Y-103370133D01*
X145284156Y-103359526D01*
X145268373Y-103345866D01*
X145238789Y-103302474D01*
X145223015Y-103243812D01*
X145234062Y-103195786D01*
X145268373Y-103141759D01*
X145278375Y-103132502D01*
X145298013Y-103119871D01*
X145326370Y-103110580D01*
X145369552Y-103104118D01*
X145433666Y-103099979D01*
X145524817Y-103097652D01*
X145649113Y-103096629D01*
X145812658Y-103096402D01*
X146311587Y-103096402D01*
X146311587Y-102778902D01*
X145987794Y-102778902D01*
X145915838Y-102778610D01*
X145784004Y-102775149D01*
X145689100Y-102766239D01*
X145625347Y-102749958D01*
X145586964Y-102724383D01*
X145568173Y-102687591D01*
X145563194Y-102637660D01*
X145564796Y-102596967D01*
X145575347Y-102553121D01*
X145601049Y-102522281D01*
X145647937Y-102502201D01*
X145722044Y-102490637D01*
X145829406Y-102485345D01*
X145976055Y-102484080D01*
X146313850Y-102484080D01*
X146307049Y-102353678D01*
X146300248Y-102223277D01*
X145802603Y-102217152D01*
X145676862Y-102215387D01*
X145539329Y-102212485D01*
X145437066Y-102208606D01*
X145364236Y-102203282D01*
X145315003Y-102196043D01*
X145283532Y-102186421D01*
X145263987Y-102173950D01*
X145251903Y-102161087D01*
X145225769Y-102097441D01*
X145232922Y-102025750D01*
X145272649Y-101963356D01*
X145279181Y-101957484D01*
X145297221Y-101944724D01*
X145321537Y-101934976D01*
X145357710Y-101927836D01*
X145411324Y-101922900D01*
X145487963Y-101919763D01*
X145593210Y-101918023D01*
X145732646Y-101917275D01*
X145911857Y-101917116D01*
X146021811Y-101917148D01*
G36*
X146021811Y-101917148D02*
G01*
X146176693Y-101917534D01*
X146295112Y-101918709D01*
X146382675Y-101921102D01*
X146444989Y-101925145D01*
X146487664Y-101931268D01*
X146516305Y-101939903D01*
X146536521Y-101951478D01*
X146553920Y-101966426D01*
X146557505Y-101969803D01*
X146572058Y-101984948D01*
X146583392Y-102003064D01*
X146591911Y-102029450D01*
X146598016Y-102069403D01*
X146602109Y-102128222D01*
X146604593Y-102211205D01*
X146605870Y-102323651D01*
X146606341Y-102470857D01*
X146606408Y-102658123D01*
X146606335Y-102804351D01*
X146605836Y-102961401D01*
X146604557Y-103082367D01*
X146602152Y-103172526D01*
X146598273Y-103237153D01*
X146592571Y-103281524D01*
X146584699Y-103310916D01*
X146574308Y-103330605D01*
X146561051Y-103345866D01*
X146554353Y-103352248D01*
X146537233Y-103364524D01*
X146513122Y-103373915D01*
X146476539Y-103380806D01*
X146422002Y-103385582D01*
X146344032Y-103388627D01*
X146237148Y-103390325D01*
X146095868Y-103391063D01*
X145914712Y-103391223D01*
X145830118Y-103391199D01*
X145667100Y-103390834D01*
X145541558Y-103389723D01*
X145448010Y-103387482D01*
X145380977Y-103383726D01*
X145334978Y-103378071D01*
X145304531Y-103370133D01*
X145284156Y-103359526D01*
X145268373Y-103345866D01*
X145238789Y-103302474D01*
X145223015Y-103243812D01*
X145234062Y-103195786D01*
X145268373Y-103141759D01*
X145278375Y-103132502D01*
X145298013Y-103119871D01*
X145326370Y-103110580D01*
X145369552Y-103104118D01*
X145433666Y-103099979D01*
X145524817Y-103097652D01*
X145649113Y-103096629D01*
X145812658Y-103096402D01*
X146311587Y-103096402D01*
X146311587Y-102778902D01*
X145987794Y-102778902D01*
X145915838Y-102778610D01*
X145784004Y-102775149D01*
X145689100Y-102766239D01*
X145625347Y-102749958D01*
X145586964Y-102724383D01*
X145568173Y-102687591D01*
X145563194Y-102637660D01*
X145564796Y-102596967D01*
X145575347Y-102553121D01*
X145601049Y-102522281D01*
X145647937Y-102502201D01*
X145722044Y-102490637D01*
X145829406Y-102485345D01*
X145976055Y-102484080D01*
X146313850Y-102484080D01*
X146307049Y-102353678D01*
X146300248Y-102223277D01*
X145802603Y-102217152D01*
X145676862Y-102215387D01*
X145539329Y-102212485D01*
X145437066Y-102208606D01*
X145364236Y-102203282D01*
X145315003Y-102196043D01*
X145283532Y-102186421D01*
X145263987Y-102173950D01*
X145251903Y-102161087D01*
X145225769Y-102097441D01*
X145232922Y-102025750D01*
X145272649Y-101963356D01*
X145279181Y-101957484D01*
X145297221Y-101944724D01*
X145321537Y-101934976D01*
X145357710Y-101927836D01*
X145411324Y-101922900D01*
X145487963Y-101919763D01*
X145593210Y-101918023D01*
X145732646Y-101917275D01*
X145911857Y-101917116D01*
X146021811Y-101917148D01*
G37*
X128811256Y-101936023D02*
X128847337Y-101973210D01*
X128888722Y-102035651D01*
X128938608Y-102127429D01*
X129000192Y-102252630D01*
X129076671Y-102415339D01*
X129106069Y-102478386D01*
X129165832Y-102605316D01*
X129218255Y-102715016D01*
X129260431Y-102801493D01*
X129289454Y-102858754D01*
X129302417Y-102880806D01*
X129305147Y-102879639D01*
X129325220Y-102851620D01*
X129359956Y-102792280D01*
X129405352Y-102708675D01*
X129457400Y-102607858D01*
X129489488Y-102544600D01*
X129547646Y-102433398D01*
X129592824Y-102355016D01*
X129629418Y-102303834D01*
X129661824Y-102274232D01*
X129694438Y-102260592D01*
X129731656Y-102257294D01*
X129752755Y-102258249D01*
X129785131Y-102266701D01*
X129815896Y-102288525D01*
X129849240Y-102329252D01*
X129889356Y-102394411D01*
X129940435Y-102489535D01*
X130006669Y-102620152D01*
X130026221Y-102658834D01*
X130075355Y-102752588D01*
X130116007Y-102825236D01*
X130144398Y-102870213D01*
X130156751Y-102880955D01*
X130159498Y-102874384D01*
X130178330Y-102832378D01*
X130212203Y-102758171D01*
X130258240Y-102658023D01*
X130313568Y-102538195D01*
X130375313Y-102404946D01*
X130428981Y-102289994D01*
X130488492Y-102165463D01*
X130534840Y-102073575D01*
X130570958Y-102009207D01*
X130599780Y-101967234D01*
X130624241Y-101942530D01*
X130647276Y-101929972D01*
X130666179Y-101924161D01*
X130716614Y-101923863D01*
X130771141Y-101954685D01*
X130773754Y-101956663D01*
X130818119Y-102002137D01*
X130840315Y-102046785D01*
X130840408Y-102048070D01*
X130831285Y-102083552D01*
X130805442Y-102152992D01*
X130765748Y-102250114D01*
X130715074Y-102368640D01*
X130656290Y-102502293D01*
X130592266Y-102644797D01*
X130525873Y-102789875D01*
X130459981Y-102931249D01*
X130397460Y-103062643D01*
X130341181Y-103177779D01*
X130294014Y-103270381D01*
X130258829Y-103334172D01*
X130238496Y-103362875D01*
X130169374Y-103389732D01*
X130085607Y-103376952D01*
X130074830Y-103367516D01*
X130043031Y-103323016D01*
X129998429Y-103249167D01*
X129945359Y-103153306D01*
X129888157Y-103042772D01*
X129727898Y-102722863D01*
X129580870Y-103017356D01*
X129561392Y-103056109D01*
X129507194Y-103161272D01*
X129458922Y-103251251D01*
X129421226Y-103317515D01*
X129398754Y-103351535D01*
X129396452Y-103354033D01*
X129339960Y-103384743D01*
X129269522Y-103388125D01*
X129207163Y-103362875D01*
X129202289Y-103357151D01*
X129177659Y-103315716D01*
X129138009Y-103240279D01*
X129085968Y-103136160D01*
X129024169Y-103008680D01*
X128955241Y-102863158D01*
X128881816Y-102704916D01*
X128841154Y-102616275D01*
X128767280Y-102454099D01*
X128710113Y-102326174D01*
X128667876Y-102227868D01*
X128638792Y-102154551D01*
X128621085Y-102101591D01*
X128612978Y-102064360D01*
X128612693Y-102038224D01*
X128618455Y-102018555D01*
X128647900Y-101976604D01*
X128701342Y-101935820D01*
X128702861Y-101935132D01*
X128742215Y-101921068D01*
X128777281Y-101920004D01*
X128811256Y-101936023D01*
G36*
X128811256Y-101936023D02*
G01*
X128847337Y-101973210D01*
X128888722Y-102035651D01*
X128938608Y-102127429D01*
X129000192Y-102252630D01*
X129076671Y-102415339D01*
X129106069Y-102478386D01*
X129165832Y-102605316D01*
X129218255Y-102715016D01*
X129260431Y-102801493D01*
X129289454Y-102858754D01*
X129302417Y-102880806D01*
X129305147Y-102879639D01*
X129325220Y-102851620D01*
X129359956Y-102792280D01*
X129405352Y-102708675D01*
X129457400Y-102607858D01*
X129489488Y-102544600D01*
X129547646Y-102433398D01*
X129592824Y-102355016D01*
X129629418Y-102303834D01*
X129661824Y-102274232D01*
X129694438Y-102260592D01*
X129731656Y-102257294D01*
X129752755Y-102258249D01*
X129785131Y-102266701D01*
X129815896Y-102288525D01*
X129849240Y-102329252D01*
X129889356Y-102394411D01*
X129940435Y-102489535D01*
X130006669Y-102620152D01*
X130026221Y-102658834D01*
X130075355Y-102752588D01*
X130116007Y-102825236D01*
X130144398Y-102870213D01*
X130156751Y-102880955D01*
X130159498Y-102874384D01*
X130178330Y-102832378D01*
X130212203Y-102758171D01*
X130258240Y-102658023D01*
X130313568Y-102538195D01*
X130375313Y-102404946D01*
X130428981Y-102289994D01*
X130488492Y-102165463D01*
X130534840Y-102073575D01*
X130570958Y-102009207D01*
X130599780Y-101967234D01*
X130624241Y-101942530D01*
X130647276Y-101929972D01*
X130666179Y-101924161D01*
X130716614Y-101923863D01*
X130771141Y-101954685D01*
X130773754Y-101956663D01*
X130818119Y-102002137D01*
X130840315Y-102046785D01*
X130840408Y-102048070D01*
X130831285Y-102083552D01*
X130805442Y-102152992D01*
X130765748Y-102250114D01*
X130715074Y-102368640D01*
X130656290Y-102502293D01*
X130592266Y-102644797D01*
X130525873Y-102789875D01*
X130459981Y-102931249D01*
X130397460Y-103062643D01*
X130341181Y-103177779D01*
X130294014Y-103270381D01*
X130258829Y-103334172D01*
X130238496Y-103362875D01*
X130169374Y-103389732D01*
X130085607Y-103376952D01*
X130074830Y-103367516D01*
X130043031Y-103323016D01*
X129998429Y-103249167D01*
X129945359Y-103153306D01*
X129888157Y-103042772D01*
X129727898Y-102722863D01*
X129580870Y-103017356D01*
X129561392Y-103056109D01*
X129507194Y-103161272D01*
X129458922Y-103251251D01*
X129421226Y-103317515D01*
X129398754Y-103351535D01*
X129396452Y-103354033D01*
X129339960Y-103384743D01*
X129269522Y-103388125D01*
X129207163Y-103362875D01*
X129202289Y-103357151D01*
X129177659Y-103315716D01*
X129138009Y-103240279D01*
X129085968Y-103136160D01*
X129024169Y-103008680D01*
X128955241Y-102863158D01*
X128881816Y-102704916D01*
X128841154Y-102616275D01*
X128767280Y-102454099D01*
X128710113Y-102326174D01*
X128667876Y-102227868D01*
X128638792Y-102154551D01*
X128621085Y-102101591D01*
X128612978Y-102064360D01*
X128612693Y-102038224D01*
X128618455Y-102018555D01*
X128647900Y-101976604D01*
X128701342Y-101935820D01*
X128702861Y-101935132D01*
X128742215Y-101921068D01*
X128777281Y-101920004D01*
X128811256Y-101936023D01*
G37*
X143980979Y-101918862D02*
X144114063Y-101929770D01*
X144225158Y-101949052D01*
X144327378Y-101978907D01*
X144470639Y-102045468D01*
X144573409Y-102131214D01*
X144635331Y-102235808D01*
X144656051Y-102358912D01*
X144654169Y-102421688D01*
X144642532Y-102471504D01*
X144612786Y-102515037D01*
X144556591Y-102569982D01*
X144540563Y-102584705D01*
X144492933Y-102626698D01*
X144447945Y-102660791D01*
X144399663Y-102688822D01*
X144342151Y-102712630D01*
X144269475Y-102734053D01*
X144175697Y-102754929D01*
X144054884Y-102777096D01*
X143901098Y-102802393D01*
X143708404Y-102832659D01*
X143671512Y-102838754D01*
X143546296Y-102866117D01*
X143455457Y-102897724D01*
X143402655Y-102932019D01*
X143391548Y-102967445D01*
X143396813Y-102976024D01*
X143432837Y-103006288D01*
X143489340Y-103039705D01*
X143515053Y-103051740D01*
X143557840Y-103066189D01*
X143610848Y-103075786D01*
X143682856Y-103081449D01*
X143782646Y-103084096D01*
X143918998Y-103084646D01*
X143954726Y-103084499D01*
X144090572Y-103082267D01*
X144221029Y-103077797D01*
X144332777Y-103071637D01*
X144412492Y-103064336D01*
X144483832Y-103056163D01*
X144542598Y-103054590D01*
X144580568Y-103063830D01*
X144610930Y-103085276D01*
X144618275Y-103092494D01*
X144651105Y-103156325D01*
X144648454Y-103227952D01*
X144610370Y-103289462D01*
X144569447Y-103312778D01*
X144497159Y-103338281D01*
X144411933Y-103358470D01*
X144405000Y-103359673D01*
X144319281Y-103370153D01*
X144203995Y-103378939D01*
X144073381Y-103385142D01*
X143941676Y-103387872D01*
X143909066Y-103387956D01*
X143711564Y-103382979D01*
X143550745Y-103366895D01*
X143419804Y-103337702D01*
X143311932Y-103293397D01*
X143220324Y-103231977D01*
X143138173Y-103151439D01*
X143097751Y-103098753D01*
X143074395Y-103039394D01*
X143068551Y-102959606D01*
X143068834Y-102935562D01*
X143076615Y-102869907D01*
X143101494Y-102816618D01*
X143152049Y-102754646D01*
X143194662Y-102710168D01*
X143247690Y-102664875D01*
X143307390Y-102627976D01*
X143380171Y-102597328D01*
X143472446Y-102570786D01*
X143590625Y-102546207D01*
X143741118Y-102521446D01*
X143930337Y-102494359D01*
X144021365Y-102480277D01*
X144157881Y-102451029D01*
X144256591Y-102417883D01*
X144315990Y-102381927D01*
X144334573Y-102344250D01*
X144310835Y-102305940D01*
X144243271Y-102268085D01*
X144237152Y-102265646D01*
X144144020Y-102241382D01*
X144018160Y-102224908D01*
X143870636Y-102216550D01*
X143712514Y-102216636D01*
X143554857Y-102225492D01*
X143408730Y-102243444D01*
X143400841Y-102244747D01*
X143302772Y-102260230D01*
X143237981Y-102267486D01*
X143195799Y-102266285D01*
X143165557Y-102256399D01*
X143136587Y-102237598D01*
X143134237Y-102235850D01*
X143084984Y-102174831D01*
X143075355Y-102103511D01*
X143107109Y-102034040D01*
X143116241Y-102025087D01*
X143175734Y-101994673D01*
X143270117Y-101968310D01*
X143391263Y-101946614D01*
X143531048Y-101930203D01*
X143681346Y-101919696D01*
X143834032Y-101915710D01*
X143980979Y-101918862D01*
G36*
X143980979Y-101918862D02*
G01*
X144114063Y-101929770D01*
X144225158Y-101949052D01*
X144327378Y-101978907D01*
X144470639Y-102045468D01*
X144573409Y-102131214D01*
X144635331Y-102235808D01*
X144656051Y-102358912D01*
X144654169Y-102421688D01*
X144642532Y-102471504D01*
X144612786Y-102515037D01*
X144556591Y-102569982D01*
X144540563Y-102584705D01*
X144492933Y-102626698D01*
X144447945Y-102660791D01*
X144399663Y-102688822D01*
X144342151Y-102712630D01*
X144269475Y-102734053D01*
X144175697Y-102754929D01*
X144054884Y-102777096D01*
X143901098Y-102802393D01*
X143708404Y-102832659D01*
X143671512Y-102838754D01*
X143546296Y-102866117D01*
X143455457Y-102897724D01*
X143402655Y-102932019D01*
X143391548Y-102967445D01*
X143396813Y-102976024D01*
X143432837Y-103006288D01*
X143489340Y-103039705D01*
X143515053Y-103051740D01*
X143557840Y-103066189D01*
X143610848Y-103075786D01*
X143682856Y-103081449D01*
X143782646Y-103084096D01*
X143918998Y-103084646D01*
X143954726Y-103084499D01*
X144090572Y-103082267D01*
X144221029Y-103077797D01*
X144332777Y-103071637D01*
X144412492Y-103064336D01*
X144483832Y-103056163D01*
X144542598Y-103054590D01*
X144580568Y-103063830D01*
X144610930Y-103085276D01*
X144618275Y-103092494D01*
X144651105Y-103156325D01*
X144648454Y-103227952D01*
X144610370Y-103289462D01*
X144569447Y-103312778D01*
X144497159Y-103338281D01*
X144411933Y-103358470D01*
X144405000Y-103359673D01*
X144319281Y-103370153D01*
X144203995Y-103378939D01*
X144073381Y-103385142D01*
X143941676Y-103387872D01*
X143909066Y-103387956D01*
X143711564Y-103382979D01*
X143550745Y-103366895D01*
X143419804Y-103337702D01*
X143311932Y-103293397D01*
X143220324Y-103231977D01*
X143138173Y-103151439D01*
X143097751Y-103098753D01*
X143074395Y-103039394D01*
X143068551Y-102959606D01*
X143068834Y-102935562D01*
X143076615Y-102869907D01*
X143101494Y-102816618D01*
X143152049Y-102754646D01*
X143194662Y-102710168D01*
X143247690Y-102664875D01*
X143307390Y-102627976D01*
X143380171Y-102597328D01*
X143472446Y-102570786D01*
X143590625Y-102546207D01*
X143741118Y-102521446D01*
X143930337Y-102494359D01*
X144021365Y-102480277D01*
X144157881Y-102451029D01*
X144256591Y-102417883D01*
X144315990Y-102381927D01*
X144334573Y-102344250D01*
X144310835Y-102305940D01*
X144243271Y-102268085D01*
X144237152Y-102265646D01*
X144144020Y-102241382D01*
X144018160Y-102224908D01*
X143870636Y-102216550D01*
X143712514Y-102216636D01*
X143554857Y-102225492D01*
X143408730Y-102243444D01*
X143400841Y-102244747D01*
X143302772Y-102260230D01*
X143237981Y-102267486D01*
X143195799Y-102266285D01*
X143165557Y-102256399D01*
X143136587Y-102237598D01*
X143134237Y-102235850D01*
X143084984Y-102174831D01*
X143075355Y-102103511D01*
X143107109Y-102034040D01*
X143116241Y-102025087D01*
X143175734Y-101994673D01*
X143270117Y-101968310D01*
X143391263Y-101946614D01*
X143531048Y-101930203D01*
X143681346Y-101919696D01*
X143834032Y-101915710D01*
X143980979Y-101918862D01*
G37*
X136129535Y-91335960D02*
X136496552Y-91369653D01*
X136837511Y-91437603D01*
X137165096Y-91542670D01*
X137491987Y-91687714D01*
X137815574Y-91872904D01*
X138162846Y-92125366D01*
X138484885Y-92417260D01*
X138774598Y-92741360D01*
X139024894Y-93090440D01*
X139228683Y-93457275D01*
X139247181Y-93496518D01*
X139402097Y-93875304D01*
X139519811Y-94268905D01*
X139601844Y-94684842D01*
X139649717Y-95130634D01*
X139664951Y-95613799D01*
X139646428Y-96113267D01*
X139587636Y-96605146D01*
X139487662Y-97065600D01*
X139345611Y-97497895D01*
X139160589Y-97905298D01*
X138931701Y-98291075D01*
X138716700Y-98585805D01*
X138419828Y-98917424D01*
X138096252Y-99201466D01*
X137746112Y-99437839D01*
X137369551Y-99626449D01*
X136966709Y-99767205D01*
X136537730Y-99860012D01*
X136532834Y-99860735D01*
X136450223Y-99867984D01*
X136325557Y-99873360D01*
X136170367Y-99876614D01*
X135996177Y-99877494D01*
X135814517Y-99875749D01*
X135687199Y-99873192D01*
X135498297Y-99867270D01*
X135346927Y-99858791D01*
X135222168Y-99846851D01*
X135113105Y-99830546D01*
X135008818Y-99808969D01*
X134891487Y-99781086D01*
X134769074Y-99749333D01*
X134658364Y-99716023D01*
X134549309Y-99677253D01*
X134431861Y-99629122D01*
X134295973Y-99567729D01*
X134131596Y-99489172D01*
X133928683Y-99389549D01*
X133367474Y-99112201D01*
X133816967Y-98373896D01*
X133875814Y-98277265D01*
X133981538Y-98103800D01*
X134076167Y-97948721D01*
X134156243Y-97817685D01*
X134218308Y-97716348D01*
X134258903Y-97650367D01*
X134274570Y-97625398D01*
X134278928Y-97626144D01*
X134314030Y-97650579D01*
X134375699Y-97701291D01*
X134454191Y-97770412D01*
X134593980Y-97889837D01*
X134843534Y-98066436D01*
X135085660Y-98189547D01*
X135260627Y-98251026D01*
X135556571Y-98313857D01*
X135847344Y-98324994D01*
X136128730Y-98285195D01*
X136396512Y-98195220D01*
X136646475Y-98055828D01*
X136874400Y-97867775D01*
X137001226Y-97729268D01*
X137179897Y-97473078D01*
X137326505Y-97175783D01*
X137441749Y-96835860D01*
X137526333Y-96451786D01*
X137530170Y-96427943D01*
X137547899Y-96273402D01*
X137561097Y-96081389D01*
X137569657Y-95865022D01*
X137573473Y-95637422D01*
X137572437Y-95411709D01*
X137566444Y-95201004D01*
X137555386Y-95018426D01*
X137539155Y-94877097D01*
X137476946Y-94556955D01*
X137372271Y-94182987D01*
X137240625Y-93855584D01*
X137082184Y-93574999D01*
X136897124Y-93341485D01*
X136685622Y-93155296D01*
X136447853Y-93016685D01*
X136183993Y-92925905D01*
X136125452Y-92914638D01*
X135978744Y-92899926D01*
X135807293Y-92895124D01*
X135630307Y-92899967D01*
X135466993Y-92914193D01*
X135336560Y-92937537D01*
X135119274Y-93011868D01*
X134867118Y-93147568D01*
X134642594Y-93326147D01*
X134602966Y-93363765D01*
X134531161Y-93430320D01*
X134480412Y-93475117D01*
X134459795Y-93490018D01*
X134454719Y-93482891D01*
X134423475Y-93437890D01*
X134367031Y-93356178D01*
X134289117Y-93243168D01*
X134193461Y-93104270D01*
X134083794Y-92944895D01*
X133963845Y-92770453D01*
X133473226Y-92056714D01*
X133582827Y-92023876D01*
X133594264Y-92020155D01*
X133668713Y-91990599D01*
X133776049Y-91942939D01*
X133903676Y-91882910D01*
X134038999Y-91816243D01*
X134097966Y-91786767D01*
X134425404Y-91634593D01*
X134727200Y-91516917D01*
X135014961Y-91430729D01*
X135300294Y-91373019D01*
X135594807Y-91340777D01*
X135910108Y-91330992D01*
X136129535Y-91335960D01*
G36*
X136129535Y-91335960D02*
G01*
X136496552Y-91369653D01*
X136837511Y-91437603D01*
X137165096Y-91542670D01*
X137491987Y-91687714D01*
X137815574Y-91872904D01*
X138162846Y-92125366D01*
X138484885Y-92417260D01*
X138774598Y-92741360D01*
X139024894Y-93090440D01*
X139228683Y-93457275D01*
X139247181Y-93496518D01*
X139402097Y-93875304D01*
X139519811Y-94268905D01*
X139601844Y-94684842D01*
X139649717Y-95130634D01*
X139664951Y-95613799D01*
X139646428Y-96113267D01*
X139587636Y-96605146D01*
X139487662Y-97065600D01*
X139345611Y-97497895D01*
X139160589Y-97905298D01*
X138931701Y-98291075D01*
X138716700Y-98585805D01*
X138419828Y-98917424D01*
X138096252Y-99201466D01*
X137746112Y-99437839D01*
X137369551Y-99626449D01*
X136966709Y-99767205D01*
X136537730Y-99860012D01*
X136532834Y-99860735D01*
X136450223Y-99867984D01*
X136325557Y-99873360D01*
X136170367Y-99876614D01*
X135996177Y-99877494D01*
X135814517Y-99875749D01*
X135687199Y-99873192D01*
X135498297Y-99867270D01*
X135346927Y-99858791D01*
X135222168Y-99846851D01*
X135113105Y-99830546D01*
X135008818Y-99808969D01*
X134891487Y-99781086D01*
X134769074Y-99749333D01*
X134658364Y-99716023D01*
X134549309Y-99677253D01*
X134431861Y-99629122D01*
X134295973Y-99567729D01*
X134131596Y-99489172D01*
X133928683Y-99389549D01*
X133367474Y-99112201D01*
X133816967Y-98373896D01*
X133875814Y-98277265D01*
X133981538Y-98103800D01*
X134076167Y-97948721D01*
X134156243Y-97817685D01*
X134218308Y-97716348D01*
X134258903Y-97650367D01*
X134274570Y-97625398D01*
X134278928Y-97626144D01*
X134314030Y-97650579D01*
X134375699Y-97701291D01*
X134454191Y-97770412D01*
X134593980Y-97889837D01*
X134843534Y-98066436D01*
X135085660Y-98189547D01*
X135260627Y-98251026D01*
X135556571Y-98313857D01*
X135847344Y-98324994D01*
X136128730Y-98285195D01*
X136396512Y-98195220D01*
X136646475Y-98055828D01*
X136874400Y-97867775D01*
X137001226Y-97729268D01*
X137179897Y-97473078D01*
X137326505Y-97175783D01*
X137441749Y-96835860D01*
X137526333Y-96451786D01*
X137530170Y-96427943D01*
X137547899Y-96273402D01*
X137561097Y-96081389D01*
X137569657Y-95865022D01*
X137573473Y-95637422D01*
X137572437Y-95411709D01*
X137566444Y-95201004D01*
X137555386Y-95018426D01*
X137539155Y-94877097D01*
X137476946Y-94556955D01*
X137372271Y-94182987D01*
X137240625Y-93855584D01*
X137082184Y-93574999D01*
X136897124Y-93341485D01*
X136685622Y-93155296D01*
X136447853Y-93016685D01*
X136183993Y-92925905D01*
X136125452Y-92914638D01*
X135978744Y-92899926D01*
X135807293Y-92895124D01*
X135630307Y-92899967D01*
X135466993Y-92914193D01*
X135336560Y-92937537D01*
X135119274Y-93011868D01*
X134867118Y-93147568D01*
X134642594Y-93326147D01*
X134602966Y-93363765D01*
X134531161Y-93430320D01*
X134480412Y-93475117D01*
X134459795Y-93490018D01*
X134454719Y-93482891D01*
X134423475Y-93437890D01*
X134367031Y-93356178D01*
X134289117Y-93243168D01*
X134193461Y-93104270D01*
X134083794Y-92944895D01*
X133963845Y-92770453D01*
X133473226Y-92056714D01*
X133582827Y-92023876D01*
X133594264Y-92020155D01*
X133668713Y-91990599D01*
X133776049Y-91942939D01*
X133903676Y-91882910D01*
X134038999Y-91816243D01*
X134097966Y-91786767D01*
X134425404Y-91634593D01*
X134727200Y-91516917D01*
X135014961Y-91430729D01*
X135300294Y-91373019D01*
X135594807Y-91340777D01*
X135910108Y-91330992D01*
X136129535Y-91335960D01*
G37*
X127207577Y-97027045D02*
X127201782Y-97279791D01*
X127185211Y-97502690D01*
X127156582Y-97707867D01*
X127114611Y-97907445D01*
X127058016Y-98113548D01*
X126972194Y-98359904D01*
X126814570Y-98692472D01*
X126621222Y-98990351D01*
X126395108Y-99250726D01*
X126139186Y-99470780D01*
X125856413Y-99647700D01*
X125549747Y-99778669D01*
X125222147Y-99860873D01*
X125218205Y-99861532D01*
X124978789Y-99884569D01*
X124715734Y-99881494D01*
X124447793Y-99854204D01*
X124193726Y-99804595D01*
X123972287Y-99734561D01*
X123877769Y-99691943D01*
X123754669Y-99627167D01*
X123628175Y-99553080D01*
X123511487Y-99477837D01*
X123417803Y-99409591D01*
X123360323Y-99356498D01*
X123347128Y-99341922D01*
X123331397Y-99336827D01*
X123320883Y-99362122D01*
X123313135Y-99425873D01*
X123305699Y-99536142D01*
X123292044Y-99765914D01*
X122246024Y-99773068D01*
X121200004Y-99780221D01*
X121272381Y-99656720D01*
X121276695Y-99649418D01*
X121297742Y-99615141D01*
X121316835Y-99584604D01*
X121334077Y-99555156D01*
X121349572Y-99524143D01*
X121363421Y-99488912D01*
X121375728Y-99446811D01*
X121386595Y-99395187D01*
X121396125Y-99331386D01*
X121404420Y-99252756D01*
X121411584Y-99156644D01*
X121417720Y-99040398D01*
X121422929Y-98901363D01*
X121427315Y-98736887D01*
X121430980Y-98544318D01*
X121434028Y-98321002D01*
X121436560Y-98064286D01*
X121438680Y-97771519D01*
X121440491Y-97440045D01*
X121442094Y-97067214D01*
X121443594Y-96650371D01*
X121445092Y-96186864D01*
X121446692Y-95674041D01*
X121448101Y-95232706D01*
X123428603Y-95232706D01*
X123428603Y-98071805D01*
X123565162Y-98161376D01*
X123617677Y-98193643D01*
X123737925Y-98258102D01*
X123851936Y-98309433D01*
X123901866Y-98326813D01*
X124060739Y-98361510D01*
X124261613Y-98379228D01*
X124363758Y-98382915D01*
X124458573Y-98382077D01*
X124529153Y-98372607D01*
X124592460Y-98351909D01*
X124665454Y-98317385D01*
X124805734Y-98224906D01*
X124927262Y-98094086D01*
X125024542Y-97925502D01*
X125098497Y-97716510D01*
X125150054Y-97464467D01*
X125180138Y-97166732D01*
X125189675Y-96820662D01*
X125189211Y-96741984D01*
X125175500Y-96377441D01*
X125142207Y-96060239D01*
X125088523Y-95787031D01*
X125013636Y-95554471D01*
X124916738Y-95359211D01*
X124797019Y-95197906D01*
X124747351Y-95148676D01*
X124593423Y-95046113D01*
X124412727Y-94983701D01*
X124213091Y-94961796D01*
X124002342Y-94980751D01*
X123788308Y-95040923D01*
X123578818Y-95142665D01*
X123428603Y-95232706D01*
X121448101Y-95232706D01*
X121448495Y-95109247D01*
X121462151Y-90944193D01*
X122547796Y-90937052D01*
X122626746Y-90936571D01*
X122859033Y-90935618D01*
X123071494Y-90935424D01*
X123258331Y-90935951D01*
X123413743Y-90937158D01*
X123531931Y-90939006D01*
X123607097Y-90941455D01*
X123633441Y-90944466D01*
X123630071Y-90954008D01*
X123604929Y-90999245D01*
X123563287Y-91065031D01*
X123559133Y-91071321D01*
X123526846Y-91122115D01*
X123499775Y-91171536D01*
X123477461Y-91224674D01*
X123459445Y-91286620D01*
X123445267Y-91362465D01*
X123434469Y-91457299D01*
X123426591Y-91576212D01*
X123421175Y-91724296D01*
X123417762Y-91906641D01*
X123415892Y-92128337D01*
X123415106Y-92394476D01*
X123414947Y-92710147D01*
X123415233Y-92956607D01*
X123416109Y-93198574D01*
X123417512Y-93417973D01*
X123419379Y-93609462D01*
X123421645Y-93767698D01*
X123424247Y-93887339D01*
X123427121Y-93963041D01*
X123430204Y-93989462D01*
X123440147Y-93985361D01*
X123483856Y-93956484D01*
X123546279Y-93909058D01*
X123636776Y-93845280D01*
X123806805Y-93751307D01*
X124001143Y-93667482D01*
X124201648Y-93602295D01*
X124370108Y-93569055D01*
X124579916Y-93547866D01*
X124806986Y-93540525D01*
X125033795Y-93547041D01*
X125242822Y-93567422D01*
X125416541Y-93601678D01*
X125593426Y-93659382D01*
X125888513Y-93799268D01*
X126161741Y-93985237D01*
X126408070Y-94213007D01*
X126622460Y-94478296D01*
X126799869Y-94776822D01*
X126843913Y-94868363D01*
X126967339Y-95177137D01*
X127063836Y-95512257D01*
X127134622Y-95879628D01*
X127180918Y-96285158D01*
X127203942Y-96734756D01*
X127205011Y-96820662D01*
X127207577Y-97027045D01*
G36*
X127207577Y-97027045D02*
G01*
X127201782Y-97279791D01*
X127185211Y-97502690D01*
X127156582Y-97707867D01*
X127114611Y-97907445D01*
X127058016Y-98113548D01*
X126972194Y-98359904D01*
X126814570Y-98692472D01*
X126621222Y-98990351D01*
X126395108Y-99250726D01*
X126139186Y-99470780D01*
X125856413Y-99647700D01*
X125549747Y-99778669D01*
X125222147Y-99860873D01*
X125218205Y-99861532D01*
X124978789Y-99884569D01*
X124715734Y-99881494D01*
X124447793Y-99854204D01*
X124193726Y-99804595D01*
X123972287Y-99734561D01*
X123877769Y-99691943D01*
X123754669Y-99627167D01*
X123628175Y-99553080D01*
X123511487Y-99477837D01*
X123417803Y-99409591D01*
X123360323Y-99356498D01*
X123347128Y-99341922D01*
X123331397Y-99336827D01*
X123320883Y-99362122D01*
X123313135Y-99425873D01*
X123305699Y-99536142D01*
X123292044Y-99765914D01*
X122246024Y-99773068D01*
X121200004Y-99780221D01*
X121272381Y-99656720D01*
X121276695Y-99649418D01*
X121297742Y-99615141D01*
X121316835Y-99584604D01*
X121334077Y-99555156D01*
X121349572Y-99524143D01*
X121363421Y-99488912D01*
X121375728Y-99446811D01*
X121386595Y-99395187D01*
X121396125Y-99331386D01*
X121404420Y-99252756D01*
X121411584Y-99156644D01*
X121417720Y-99040398D01*
X121422929Y-98901363D01*
X121427315Y-98736887D01*
X121430980Y-98544318D01*
X121434028Y-98321002D01*
X121436560Y-98064286D01*
X121438680Y-97771519D01*
X121440491Y-97440045D01*
X121442094Y-97067214D01*
X121443594Y-96650371D01*
X121445092Y-96186864D01*
X121446692Y-95674041D01*
X121448101Y-95232706D01*
X123428603Y-95232706D01*
X123428603Y-98071805D01*
X123565162Y-98161376D01*
X123617677Y-98193643D01*
X123737925Y-98258102D01*
X123851936Y-98309433D01*
X123901866Y-98326813D01*
X124060739Y-98361510D01*
X124261613Y-98379228D01*
X124363758Y-98382915D01*
X124458573Y-98382077D01*
X124529153Y-98372607D01*
X124592460Y-98351909D01*
X124665454Y-98317385D01*
X124805734Y-98224906D01*
X124927262Y-98094086D01*
X125024542Y-97925502D01*
X125098497Y-97716510D01*
X125150054Y-97464467D01*
X125180138Y-97166732D01*
X125189675Y-96820662D01*
X125189211Y-96741984D01*
X125175500Y-96377441D01*
X125142207Y-96060239D01*
X125088523Y-95787031D01*
X125013636Y-95554471D01*
X124916738Y-95359211D01*
X124797019Y-95197906D01*
X124747351Y-95148676D01*
X124593423Y-95046113D01*
X124412727Y-94983701D01*
X124213091Y-94961796D01*
X124002342Y-94980751D01*
X123788308Y-95040923D01*
X123578818Y-95142665D01*
X123428603Y-95232706D01*
X121448101Y-95232706D01*
X121448495Y-95109247D01*
X121462151Y-90944193D01*
X122547796Y-90937052D01*
X122626746Y-90936571D01*
X122859033Y-90935618D01*
X123071494Y-90935424D01*
X123258331Y-90935951D01*
X123413743Y-90937158D01*
X123531931Y-90939006D01*
X123607097Y-90941455D01*
X123633441Y-90944466D01*
X123630071Y-90954008D01*
X123604929Y-90999245D01*
X123563287Y-91065031D01*
X123559133Y-91071321D01*
X123526846Y-91122115D01*
X123499775Y-91171536D01*
X123477461Y-91224674D01*
X123459445Y-91286620D01*
X123445267Y-91362465D01*
X123434469Y-91457299D01*
X123426591Y-91576212D01*
X123421175Y-91724296D01*
X123417762Y-91906641D01*
X123415892Y-92128337D01*
X123415106Y-92394476D01*
X123414947Y-92710147D01*
X123415233Y-92956607D01*
X123416109Y-93198574D01*
X123417512Y-93417973D01*
X123419379Y-93609462D01*
X123421645Y-93767698D01*
X123424247Y-93887339D01*
X123427121Y-93963041D01*
X123430204Y-93989462D01*
X123440147Y-93985361D01*
X123483856Y-93956484D01*
X123546279Y-93909058D01*
X123636776Y-93845280D01*
X123806805Y-93751307D01*
X124001143Y-93667482D01*
X124201648Y-93602295D01*
X124370108Y-93569055D01*
X124579916Y-93547866D01*
X124806986Y-93540525D01*
X125033795Y-93547041D01*
X125242822Y-93567422D01*
X125416541Y-93601678D01*
X125593426Y-93659382D01*
X125888513Y-93799268D01*
X126161741Y-93985237D01*
X126408070Y-94213007D01*
X126622460Y-94478296D01*
X126799869Y-94776822D01*
X126843913Y-94868363D01*
X126967339Y-95177137D01*
X127063836Y-95512257D01*
X127134622Y-95879628D01*
X127180918Y-96285158D01*
X127203942Y-96734756D01*
X127205011Y-96820662D01*
X127207577Y-97027045D01*
G37*
X133380953Y-97886464D02*
X133368687Y-98106678D01*
X133342177Y-98311576D01*
X133302175Y-98482258D01*
X133238347Y-98657864D01*
X133090394Y-98947261D01*
X132901279Y-99201876D01*
X132672961Y-99419974D01*
X132407397Y-99599819D01*
X132106546Y-99739676D01*
X131772366Y-99837811D01*
X131636096Y-99859945D01*
X131441368Y-99875327D01*
X131229296Y-99878787D01*
X131017603Y-99870602D01*
X130824009Y-99851051D01*
X130666237Y-99820414D01*
X130586957Y-99796293D01*
X130406900Y-99725706D01*
X130223867Y-99636089D01*
X130056743Y-99537160D01*
X129924411Y-99438638D01*
X129922785Y-99437216D01*
X129850269Y-99375731D01*
X129794477Y-99331950D01*
X129767368Y-99315269D01*
X129764404Y-99319251D01*
X129757698Y-99362271D01*
X129753037Y-99442507D01*
X129751291Y-99547419D01*
X129751291Y-99779570D01*
X128727097Y-99779570D01*
X128699833Y-99779565D01*
X128471168Y-99779165D01*
X128261300Y-99778170D01*
X128076200Y-99776653D01*
X127921839Y-99774689D01*
X127804189Y-99772351D01*
X127729220Y-99769715D01*
X127702904Y-99766854D01*
X127703517Y-99764354D01*
X127720734Y-99727448D01*
X127756825Y-99658111D01*
X127805323Y-99568843D01*
X127907742Y-99383548D01*
X127922760Y-97554155D01*
X129860538Y-97554155D01*
X129861300Y-97698692D01*
X129864991Y-97850560D01*
X129872222Y-97960333D01*
X129883519Y-98035157D01*
X129899409Y-98082181D01*
X129919849Y-98115760D01*
X129996825Y-98207295D01*
X130099963Y-98302589D01*
X130213005Y-98387496D01*
X130319694Y-98447869D01*
X130378888Y-98470021D01*
X130515186Y-98499514D01*
X130693202Y-98514593D01*
X130880887Y-98512309D01*
X131059115Y-98481294D01*
X131207880Y-98417221D01*
X131336589Y-98317203D01*
X131372796Y-98280208D01*
X131467065Y-98154042D01*
X131518070Y-98018053D01*
X131533388Y-97854420D01*
X131529238Y-97767972D01*
X131488199Y-97590010D01*
X131401986Y-97437262D01*
X131269027Y-97308010D01*
X131087754Y-97200535D01*
X130856598Y-97113118D01*
X130763409Y-97090177D01*
X130650593Y-97074469D01*
X130508614Y-97065746D01*
X130324839Y-97062813D01*
X130294986Y-97062815D01*
X130157500Y-97064493D01*
X130039400Y-97068550D01*
X129952430Y-97074453D01*
X129908334Y-97081670D01*
X129903260Y-97084013D01*
X129886854Y-97098726D01*
X129875235Y-97128292D01*
X129867598Y-97180666D01*
X129863140Y-97263799D01*
X129861054Y-97385644D01*
X129860538Y-97554155D01*
X127922760Y-97554155D01*
X127923549Y-97458064D01*
X127925898Y-97177618D01*
X127929185Y-96819947D01*
X127932635Y-96509437D01*
X127936527Y-96241698D01*
X127941139Y-96012336D01*
X127946752Y-95816962D01*
X127953642Y-95651183D01*
X127962089Y-95510609D01*
X127972373Y-95390847D01*
X127984770Y-95287508D01*
X127999561Y-95196199D01*
X128017023Y-95112529D01*
X128037436Y-95032107D01*
X128061079Y-94950541D01*
X128088229Y-94863441D01*
X128195189Y-94590384D01*
X128341666Y-94338022D01*
X128524084Y-94121962D01*
X128744112Y-93941072D01*
X129003420Y-93794222D01*
X129303679Y-93680283D01*
X129646558Y-93598122D01*
X130033728Y-93546611D01*
X130169049Y-93536368D01*
X130396951Y-93528878D01*
X130622838Y-93535623D01*
X130857285Y-93557738D01*
X131110868Y-93596362D01*
X131394162Y-93652631D01*
X131717742Y-93727683D01*
X131792537Y-93745842D01*
X131980367Y-93790528D01*
X132158392Y-93831673D01*
X132315817Y-93866847D01*
X132441846Y-93893619D01*
X132525681Y-93909559D01*
X132719103Y-93941328D01*
X132447176Y-94600395D01*
X132379158Y-94764949D01*
X132312243Y-94926190D01*
X132254830Y-95063855D01*
X132209738Y-95171210D01*
X132179785Y-95241518D01*
X132167789Y-95268043D01*
X132165903Y-95268423D01*
X132131142Y-95256580D01*
X132062789Y-95226231D01*
X131973176Y-95182778D01*
X131786918Y-95098155D01*
X131530615Y-95005629D01*
X131268290Y-94934772D01*
X131010200Y-94887363D01*
X130766606Y-94865183D01*
X130547765Y-94870010D01*
X130363936Y-94903624D01*
X130235636Y-94956960D01*
X130089927Y-95066262D01*
X129977759Y-95214543D01*
X129902343Y-95397243D01*
X129866891Y-95609798D01*
X129854406Y-95805699D01*
X130506128Y-95807483D01*
X130725913Y-95809326D01*
X130969011Y-95815871D01*
X131176683Y-95828224D01*
X131359671Y-95847585D01*
X131528718Y-95875155D01*
X131694566Y-95912136D01*
X131867957Y-95959727D01*
X132127393Y-96050314D01*
X132432543Y-96199492D01*
X132700352Y-96382221D01*
X132928177Y-96595932D01*
X133113377Y-96838054D01*
X133253310Y-97106017D01*
X133345336Y-97397252D01*
X133359748Y-97475689D01*
X133378224Y-97669834D01*
X133380550Y-97854420D01*
X133380953Y-97886464D01*
G36*
X133380953Y-97886464D02*
G01*
X133368687Y-98106678D01*
X133342177Y-98311576D01*
X133302175Y-98482258D01*
X133238347Y-98657864D01*
X133090394Y-98947261D01*
X132901279Y-99201876D01*
X132672961Y-99419974D01*
X132407397Y-99599819D01*
X132106546Y-99739676D01*
X131772366Y-99837811D01*
X131636096Y-99859945D01*
X131441368Y-99875327D01*
X131229296Y-99878787D01*
X131017603Y-99870602D01*
X130824009Y-99851051D01*
X130666237Y-99820414D01*
X130586957Y-99796293D01*
X130406900Y-99725706D01*
X130223867Y-99636089D01*
X130056743Y-99537160D01*
X129924411Y-99438638D01*
X129922785Y-99437216D01*
X129850269Y-99375731D01*
X129794477Y-99331950D01*
X129767368Y-99315269D01*
X129764404Y-99319251D01*
X129757698Y-99362271D01*
X129753037Y-99442507D01*
X129751291Y-99547419D01*
X129751291Y-99779570D01*
X128727097Y-99779570D01*
X128699833Y-99779565D01*
X128471168Y-99779165D01*
X128261300Y-99778170D01*
X128076200Y-99776653D01*
X127921839Y-99774689D01*
X127804189Y-99772351D01*
X127729220Y-99769715D01*
X127702904Y-99766854D01*
X127703517Y-99764354D01*
X127720734Y-99727448D01*
X127756825Y-99658111D01*
X127805323Y-99568843D01*
X127907742Y-99383548D01*
X127922760Y-97554155D01*
X129860538Y-97554155D01*
X129861300Y-97698692D01*
X129864991Y-97850560D01*
X129872222Y-97960333D01*
X129883519Y-98035157D01*
X129899409Y-98082181D01*
X129919849Y-98115760D01*
X129996825Y-98207295D01*
X130099963Y-98302589D01*
X130213005Y-98387496D01*
X130319694Y-98447869D01*
X130378888Y-98470021D01*
X130515186Y-98499514D01*
X130693202Y-98514593D01*
X130880887Y-98512309D01*
X131059115Y-98481294D01*
X131207880Y-98417221D01*
X131336589Y-98317203D01*
X131372796Y-98280208D01*
X131467065Y-98154042D01*
X131518070Y-98018053D01*
X131533388Y-97854420D01*
X131529238Y-97767972D01*
X131488199Y-97590010D01*
X131401986Y-97437262D01*
X131269027Y-97308010D01*
X131087754Y-97200535D01*
X130856598Y-97113118D01*
X130763409Y-97090177D01*
X130650593Y-97074469D01*
X130508614Y-97065746D01*
X130324839Y-97062813D01*
X130294986Y-97062815D01*
X130157500Y-97064493D01*
X130039400Y-97068550D01*
X129952430Y-97074453D01*
X129908334Y-97081670D01*
X129903260Y-97084013D01*
X129886854Y-97098726D01*
X129875235Y-97128292D01*
X129867598Y-97180666D01*
X129863140Y-97263799D01*
X129861054Y-97385644D01*
X129860538Y-97554155D01*
X127922760Y-97554155D01*
X127923549Y-97458064D01*
X127925898Y-97177618D01*
X127929185Y-96819947D01*
X127932635Y-96509437D01*
X127936527Y-96241698D01*
X127941139Y-96012336D01*
X127946752Y-95816962D01*
X127953642Y-95651183D01*
X127962089Y-95510609D01*
X127972373Y-95390847D01*
X127984770Y-95287508D01*
X127999561Y-95196199D01*
X128017023Y-95112529D01*
X128037436Y-95032107D01*
X128061079Y-94950541D01*
X128088229Y-94863441D01*
X128195189Y-94590384D01*
X128341666Y-94338022D01*
X128524084Y-94121962D01*
X128744112Y-93941072D01*
X129003420Y-93794222D01*
X129303679Y-93680283D01*
X129646558Y-93598122D01*
X130033728Y-93546611D01*
X130169049Y-93536368D01*
X130396951Y-93528878D01*
X130622838Y-93535623D01*
X130857285Y-93557738D01*
X131110868Y-93596362D01*
X131394162Y-93652631D01*
X131717742Y-93727683D01*
X131792537Y-93745842D01*
X131980367Y-93790528D01*
X132158392Y-93831673D01*
X132315817Y-93866847D01*
X132441846Y-93893619D01*
X132525681Y-93909559D01*
X132719103Y-93941328D01*
X132447176Y-94600395D01*
X132379158Y-94764949D01*
X132312243Y-94926190D01*
X132254830Y-95063855D01*
X132209738Y-95171210D01*
X132179785Y-95241518D01*
X132167789Y-95268043D01*
X132165903Y-95268423D01*
X132131142Y-95256580D01*
X132062789Y-95226231D01*
X131973176Y-95182778D01*
X131786918Y-95098155D01*
X131530615Y-95005629D01*
X131268290Y-94934772D01*
X131010200Y-94887363D01*
X130766606Y-94865183D01*
X130547765Y-94870010D01*
X130363936Y-94903624D01*
X130235636Y-94956960D01*
X130089927Y-95066262D01*
X129977759Y-95214543D01*
X129902343Y-95397243D01*
X129866891Y-95609798D01*
X129854406Y-95805699D01*
X130506128Y-95807483D01*
X130725913Y-95809326D01*
X130969011Y-95815871D01*
X131176683Y-95828224D01*
X131359671Y-95847585D01*
X131528718Y-95875155D01*
X131694566Y-95912136D01*
X131867957Y-95959727D01*
X132127393Y-96050314D01*
X132432543Y-96199492D01*
X132700352Y-96382221D01*
X132928177Y-96595932D01*
X133113377Y-96838054D01*
X133253310Y-97106017D01*
X133345336Y-97397252D01*
X133359748Y-97475689D01*
X133378224Y-97669834D01*
X133380550Y-97854420D01*
X133380953Y-97886464D01*
G37*
X151703547Y-99833553D02*
X151700735Y-100045348D01*
X151697245Y-100227789D01*
X151693005Y-100383135D01*
X151687945Y-100513644D01*
X151681994Y-100621574D01*
X151675080Y-100709185D01*
X151667133Y-100778733D01*
X151658080Y-100832479D01*
X151647852Y-100872679D01*
X151636377Y-100901594D01*
X151623584Y-100921480D01*
X151609402Y-100934597D01*
X151593760Y-100943203D01*
X151576587Y-100949557D01*
X151557812Y-100955916D01*
X151537363Y-100964540D01*
X151525857Y-100968862D01*
X151504752Y-100973581D01*
X151473391Y-100977905D01*
X151429558Y-100981851D01*
X151371034Y-100985436D01*
X151295600Y-100988678D01*
X151201037Y-100991594D01*
X151085127Y-100994201D01*
X150945652Y-100996516D01*
X150780394Y-100998557D01*
X150587133Y-101000341D01*
X150363652Y-101001886D01*
X150107732Y-101003209D01*
X149817154Y-101004327D01*
X149489700Y-101005258D01*
X149123151Y-101006018D01*
X148715290Y-101006626D01*
X148263897Y-101007098D01*
X147766755Y-101007453D01*
X147221644Y-101007706D01*
X146626347Y-101007876D01*
X145978644Y-101007980D01*
X145773389Y-101008000D01*
X145139743Y-101008013D01*
X144557856Y-101007934D01*
X144025535Y-101007745D01*
X143540588Y-101007432D01*
X143100822Y-101006979D01*
X142704047Y-101006369D01*
X142348068Y-101005587D01*
X142030694Y-101004617D01*
X141749734Y-101003443D01*
X141502993Y-101002049D01*
X141288281Y-101000419D01*
X141103406Y-100998537D01*
X140946174Y-100996387D01*
X140814394Y-100993954D01*
X140705873Y-100991221D01*
X140618420Y-100988173D01*
X140549842Y-100984793D01*
X140497946Y-100981066D01*
X140460541Y-100976976D01*
X140435434Y-100972506D01*
X140420434Y-100967642D01*
X140415661Y-100965477D01*
X140396123Y-100958366D01*
X140378206Y-100953173D01*
X140361837Y-100947636D01*
X140346943Y-100939493D01*
X140333453Y-100926484D01*
X140321293Y-100906346D01*
X140310390Y-100876818D01*
X140300673Y-100835638D01*
X140292068Y-100780544D01*
X140284502Y-100709275D01*
X140277904Y-100619569D01*
X140272200Y-100509164D01*
X140267318Y-100375800D01*
X140263185Y-100217213D01*
X140259729Y-100031143D01*
X140256876Y-99815328D01*
X140255940Y-99715391D01*
X140976153Y-99715391D01*
X140976943Y-99724961D01*
X140991430Y-99732717D01*
X141024162Y-99738849D01*
X141079685Y-99743546D01*
X141162548Y-99747000D01*
X141277298Y-99749400D01*
X141428482Y-99750935D01*
X141620647Y-99751797D01*
X141858341Y-99752174D01*
X142146111Y-99752258D01*
X143351548Y-99752258D01*
X143147742Y-99383548D01*
X143147742Y-94030430D01*
X143351548Y-93661720D01*
X141196871Y-93661720D01*
X141189081Y-96495322D01*
X141181291Y-99328925D01*
X141104908Y-99492055D01*
X141064637Y-99572910D01*
X141019036Y-99653907D01*
X140984599Y-99703721D01*
X140984513Y-99703817D01*
X140976153Y-99715391D01*
X140255940Y-99715391D01*
X140254555Y-99567506D01*
X140252693Y-99285415D01*
X140251216Y-98966795D01*
X140250053Y-98609382D01*
X140249131Y-98210917D01*
X140248376Y-97769136D01*
X140247717Y-97281778D01*
X140247081Y-96746582D01*
X140246395Y-96161287D01*
X140245587Y-95523629D01*
X140245482Y-95446433D01*
X140244581Y-94812817D01*
X140243719Y-94231298D01*
X140242960Y-93699614D01*
X140242368Y-93215502D01*
X140242007Y-92776700D01*
X140241940Y-92380946D01*
X140242232Y-92025975D01*
X140242947Y-91709527D01*
X140244147Y-91429337D01*
X140245897Y-91183144D01*
X140248260Y-90968684D01*
X140251302Y-90783696D01*
X140255084Y-90625916D01*
X140259671Y-90493082D01*
X140265127Y-90382930D01*
X140271516Y-90293199D01*
X140278901Y-90221626D01*
X140287346Y-90165947D01*
X140296915Y-90123901D01*
X140307672Y-90093225D01*
X140319681Y-90071655D01*
X140333005Y-90056930D01*
X140347708Y-90046787D01*
X140363855Y-90038962D01*
X140381508Y-90031194D01*
X140400731Y-90021219D01*
X140406356Y-90018040D01*
X140491470Y-89987273D01*
X140584645Y-89974628D01*
X140689678Y-89974632D01*
X140691428Y-90213606D01*
X140691872Y-90241106D01*
X140725256Y-90520643D01*
X140810284Y-90783661D01*
X140945773Y-91027376D01*
X141130543Y-91249001D01*
X141229696Y-91339393D01*
X141450469Y-91489217D01*
X141691353Y-91593697D01*
X141945333Y-91652776D01*
X142205393Y-91666399D01*
X142464517Y-91634510D01*
X142715690Y-91557052D01*
X142922166Y-91449462D01*
X143835998Y-91449462D01*
X143956171Y-91535921D01*
X144057805Y-91617180D01*
X144201016Y-91749720D01*
X144363452Y-91915830D01*
X144538963Y-92109180D01*
X144721398Y-92323441D01*
X144768379Y-92380738D01*
X144848366Y-92479010D01*
X144952921Y-92607939D01*
X145078579Y-92763221D01*
X145221877Y-92940554D01*
X145379350Y-93135633D01*
X145547536Y-93344157D01*
X145722969Y-93561821D01*
X145803435Y-93661720D01*
X145902187Y-93784323D01*
X146081726Y-94007359D01*
X146258121Y-94226627D01*
X146427909Y-94437822D01*
X146587626Y-94636643D01*
X146733808Y-94818784D01*
X146862992Y-94979945D01*
X146971713Y-95115820D01*
X147056508Y-95222108D01*
X147113913Y-95294504D01*
X147140464Y-95328706D01*
X147142655Y-95341559D01*
X147135366Y-95366004D01*
X147116477Y-95404463D01*
X147084103Y-95459662D01*
X147036357Y-95534331D01*
X146971355Y-95631196D01*
X146887212Y-95752986D01*
X146782041Y-95902430D01*
X146653957Y-96082254D01*
X146501075Y-96295187D01*
X146321508Y-96543957D01*
X146113372Y-96831292D01*
X145874782Y-97159920D01*
X145684675Y-97421504D01*
X145452740Y-97740397D01*
X145248722Y-98020446D01*
X145070251Y-98264760D01*
X144914952Y-98476446D01*
X144780454Y-98658614D01*
X144664383Y-98814370D01*
X144564367Y-98946823D01*
X144478034Y-99059081D01*
X144403011Y-99154251D01*
X144336925Y-99235443D01*
X144277404Y-99305764D01*
X144222076Y-99368322D01*
X144168566Y-99426225D01*
X144114504Y-99482582D01*
X144057516Y-99540500D01*
X143847505Y-99752258D01*
X145259236Y-99752315D01*
X146670968Y-99752372D01*
X146662097Y-99581274D01*
X146661667Y-99572677D01*
X146659983Y-99504277D01*
X146663175Y-99438742D01*
X146673378Y-99372480D01*
X146692728Y-99301903D01*
X146723359Y-99223420D01*
X146767407Y-99133441D01*
X146827007Y-99028378D01*
X146904295Y-98904640D01*
X147001405Y-98758637D01*
X147120473Y-98586780D01*
X147263635Y-98385478D01*
X147433025Y-98151143D01*
X147630779Y-97880183D01*
X147859033Y-97569010D01*
X148664732Y-96472123D01*
X148671830Y-97743932D01*
X148672459Y-97862566D01*
X148673569Y-98182112D01*
X148673064Y-98453907D01*
X148670352Y-98683095D01*
X148664837Y-98874820D01*
X148655926Y-99034225D01*
X148643025Y-99166453D01*
X148625540Y-99276648D01*
X148602877Y-99369953D01*
X148574441Y-99451512D01*
X148539640Y-99526469D01*
X148497878Y-99599968D01*
X148448561Y-99677150D01*
X148398987Y-99752258D01*
X150975361Y-99752258D01*
X150908811Y-99663494D01*
X150898389Y-99649452D01*
X150815064Y-99520750D01*
X150757624Y-99390647D01*
X150719905Y-99241568D01*
X150695745Y-99055941D01*
X150695082Y-99047849D01*
X150691576Y-98971283D01*
X150688410Y-98843535D01*
X150685599Y-98667527D01*
X150683156Y-98446177D01*
X150681094Y-98182404D01*
X150679429Y-97879127D01*
X150678172Y-97539265D01*
X150677338Y-97165738D01*
X150676941Y-96761464D01*
X150676994Y-96329362D01*
X150677512Y-95872353D01*
X150678508Y-95393354D01*
X150679562Y-94963691D01*
X150680690Y-94495994D01*
X150681801Y-94077543D01*
X150683033Y-93705409D01*
X150684527Y-93376658D01*
X150686422Y-93088359D01*
X150688857Y-92837581D01*
X150691971Y-92621393D01*
X150695904Y-92436861D01*
X150700796Y-92281055D01*
X150706786Y-92151043D01*
X150714013Y-92043894D01*
X150722616Y-91956675D01*
X150732736Y-91886455D01*
X150744511Y-91830303D01*
X150758081Y-91785286D01*
X150773586Y-91748474D01*
X150791164Y-91716933D01*
X150810955Y-91687734D01*
X150833099Y-91657944D01*
X150857735Y-91624631D01*
X150881564Y-91591248D01*
X150927620Y-91525243D01*
X150955208Y-91483602D01*
X150955874Y-91481858D01*
X150946241Y-91473983D01*
X150912248Y-91467413D01*
X150850111Y-91462045D01*
X150756048Y-91457780D01*
X150626276Y-91454517D01*
X150457014Y-91452154D01*
X150244477Y-91450591D01*
X149984885Y-91449728D01*
X149674453Y-91449462D01*
X148373102Y-91449462D01*
X148441687Y-91530972D01*
X148481437Y-91586954D01*
X148547602Y-91718950D01*
X148605584Y-91883117D01*
X148649838Y-92065220D01*
X148652659Y-92082508D01*
X148661051Y-92173644D01*
X148667407Y-92314493D01*
X148671742Y-92506030D01*
X148674074Y-92749230D01*
X148674420Y-93045069D01*
X148672796Y-93394522D01*
X148664732Y-94561195D01*
X147831721Y-93507783D01*
X147807862Y-93477609D01*
X147596618Y-93210185D01*
X147416273Y-92981160D01*
X147263955Y-92786642D01*
X147136796Y-92622735D01*
X147031923Y-92485547D01*
X146946469Y-92371181D01*
X146877561Y-92275746D01*
X146822331Y-92195345D01*
X146777909Y-92126086D01*
X146741423Y-92064074D01*
X146710004Y-92005416D01*
X146680782Y-91946216D01*
X146635828Y-91841426D01*
X146606788Y-91730883D01*
X146599064Y-91611646D01*
X146599840Y-91449462D01*
X143835998Y-91449462D01*
X142922166Y-91449462D01*
X142951895Y-91433971D01*
X143166118Y-91265210D01*
X143225670Y-91205714D01*
X143401686Y-90985424D01*
X143526584Y-90746359D01*
X143601032Y-90486976D01*
X143625699Y-90205734D01*
X143625699Y-89974623D01*
X147546303Y-89974623D01*
X147791244Y-89974613D01*
X148317446Y-89974541D01*
X148792794Y-89974490D01*
X149219918Y-89974561D01*
X149601445Y-89974860D01*
X149940004Y-89975491D01*
X150238224Y-89976556D01*
X150498733Y-89978161D01*
X150724161Y-89980409D01*
X150917135Y-89983404D01*
X151080284Y-89987250D01*
X151216238Y-89992050D01*
X151327624Y-89997910D01*
X151417071Y-90004932D01*
X151487208Y-90013221D01*
X151540663Y-90022880D01*
X151580065Y-90034014D01*
X151608043Y-90046726D01*
X151627226Y-90061121D01*
X151640241Y-90077301D01*
X151649718Y-90095372D01*
X151658285Y-90115437D01*
X151668570Y-90137600D01*
X151668755Y-90137962D01*
X151673749Y-90152470D01*
X151678330Y-90176764D01*
X151682515Y-90213084D01*
X151686321Y-90263674D01*
X151689767Y-90330775D01*
X151692869Y-90416629D01*
X151695645Y-90523478D01*
X151698113Y-90653564D01*
X151700288Y-90809128D01*
X151702190Y-90992413D01*
X151703836Y-91205661D01*
X151705242Y-91451113D01*
X151706426Y-91731012D01*
X151707406Y-92047599D01*
X151708198Y-92403116D01*
X151708822Y-92799805D01*
X151709292Y-93239909D01*
X151709628Y-93725668D01*
X151709847Y-94259325D01*
X151709965Y-94843122D01*
X151710000Y-95479301D01*
X151710002Y-95604279D01*
X151710062Y-96233828D01*
X151710156Y-96811438D01*
X151710211Y-97339368D01*
X151710156Y-97819877D01*
X151709922Y-98255223D01*
X151709435Y-98647664D01*
X151708625Y-98999459D01*
X151707421Y-99312867D01*
X151705752Y-99590145D01*
X151704283Y-99752258D01*
X151703547Y-99833553D01*
G36*
X151703547Y-99833553D02*
G01*
X151700735Y-100045348D01*
X151697245Y-100227789D01*
X151693005Y-100383135D01*
X151687945Y-100513644D01*
X151681994Y-100621574D01*
X151675080Y-100709185D01*
X151667133Y-100778733D01*
X151658080Y-100832479D01*
X151647852Y-100872679D01*
X151636377Y-100901594D01*
X151623584Y-100921480D01*
X151609402Y-100934597D01*
X151593760Y-100943203D01*
X151576587Y-100949557D01*
X151557812Y-100955916D01*
X151537363Y-100964540D01*
X151525857Y-100968862D01*
X151504752Y-100973581D01*
X151473391Y-100977905D01*
X151429558Y-100981851D01*
X151371034Y-100985436D01*
X151295600Y-100988678D01*
X151201037Y-100991594D01*
X151085127Y-100994201D01*
X150945652Y-100996516D01*
X150780394Y-100998557D01*
X150587133Y-101000341D01*
X150363652Y-101001886D01*
X150107732Y-101003209D01*
X149817154Y-101004327D01*
X149489700Y-101005258D01*
X149123151Y-101006018D01*
X148715290Y-101006626D01*
X148263897Y-101007098D01*
X147766755Y-101007453D01*
X147221644Y-101007706D01*
X146626347Y-101007876D01*
X145978644Y-101007980D01*
X145773389Y-101008000D01*
X145139743Y-101008013D01*
X144557856Y-101007934D01*
X144025535Y-101007745D01*
X143540588Y-101007432D01*
X143100822Y-101006979D01*
X142704047Y-101006369D01*
X142348068Y-101005587D01*
X142030694Y-101004617D01*
X141749734Y-101003443D01*
X141502993Y-101002049D01*
X141288281Y-101000419D01*
X141103406Y-100998537D01*
X140946174Y-100996387D01*
X140814394Y-100993954D01*
X140705873Y-100991221D01*
X140618420Y-100988173D01*
X140549842Y-100984793D01*
X140497946Y-100981066D01*
X140460541Y-100976976D01*
X140435434Y-100972506D01*
X140420434Y-100967642D01*
X140415661Y-100965477D01*
X140396123Y-100958366D01*
X140378206Y-100953173D01*
X140361837Y-100947636D01*
X140346943Y-100939493D01*
X140333453Y-100926484D01*
X140321293Y-100906346D01*
X140310390Y-100876818D01*
X140300673Y-100835638D01*
X140292068Y-100780544D01*
X140284502Y-100709275D01*
X140277904Y-100619569D01*
X140272200Y-100509164D01*
X140267318Y-100375800D01*
X140263185Y-100217213D01*
X140259729Y-100031143D01*
X140256876Y-99815328D01*
X140255940Y-99715391D01*
X140976153Y-99715391D01*
X140976943Y-99724961D01*
X140991430Y-99732717D01*
X141024162Y-99738849D01*
X141079685Y-99743546D01*
X141162548Y-99747000D01*
X141277298Y-99749400D01*
X141428482Y-99750935D01*
X141620647Y-99751797D01*
X141858341Y-99752174D01*
X142146111Y-99752258D01*
X143351548Y-99752258D01*
X143147742Y-99383548D01*
X143147742Y-94030430D01*
X143351548Y-93661720D01*
X141196871Y-93661720D01*
X141189081Y-96495322D01*
X141181291Y-99328925D01*
X141104908Y-99492055D01*
X141064637Y-99572910D01*
X141019036Y-99653907D01*
X140984599Y-99703721D01*
X140984513Y-99703817D01*
X140976153Y-99715391D01*
X140255940Y-99715391D01*
X140254555Y-99567506D01*
X140252693Y-99285415D01*
X140251216Y-98966795D01*
X140250053Y-98609382D01*
X140249131Y-98210917D01*
X140248376Y-97769136D01*
X140247717Y-97281778D01*
X140247081Y-96746582D01*
X140246395Y-96161287D01*
X140245587Y-95523629D01*
X140245482Y-95446433D01*
X140244581Y-94812817D01*
X140243719Y-94231298D01*
X140242960Y-93699614D01*
X140242368Y-93215502D01*
X140242007Y-92776700D01*
X140241940Y-92380946D01*
X140242232Y-92025975D01*
X140242947Y-91709527D01*
X140244147Y-91429337D01*
X140245897Y-91183144D01*
X140248260Y-90968684D01*
X140251302Y-90783696D01*
X140255084Y-90625916D01*
X140259671Y-90493082D01*
X140265127Y-90382930D01*
X140271516Y-90293199D01*
X140278901Y-90221626D01*
X140287346Y-90165947D01*
X140296915Y-90123901D01*
X140307672Y-90093225D01*
X140319681Y-90071655D01*
X140333005Y-90056930D01*
X140347708Y-90046787D01*
X140363855Y-90038962D01*
X140381508Y-90031194D01*
X140400731Y-90021219D01*
X140406356Y-90018040D01*
X140491470Y-89987273D01*
X140584645Y-89974628D01*
X140689678Y-89974632D01*
X140691428Y-90213606D01*
X140691872Y-90241106D01*
X140725256Y-90520643D01*
X140810284Y-90783661D01*
X140945773Y-91027376D01*
X141130543Y-91249001D01*
X141229696Y-91339393D01*
X141450469Y-91489217D01*
X141691353Y-91593697D01*
X141945333Y-91652776D01*
X142205393Y-91666399D01*
X142464517Y-91634510D01*
X142715690Y-91557052D01*
X142922166Y-91449462D01*
X143835998Y-91449462D01*
X143956171Y-91535921D01*
X144057805Y-91617180D01*
X144201016Y-91749720D01*
X144363452Y-91915830D01*
X144538963Y-92109180D01*
X144721398Y-92323441D01*
X144768379Y-92380738D01*
X144848366Y-92479010D01*
X144952921Y-92607939D01*
X145078579Y-92763221D01*
X145221877Y-92940554D01*
X145379350Y-93135633D01*
X145547536Y-93344157D01*
X145722969Y-93561821D01*
X145803435Y-93661720D01*
X145902187Y-93784323D01*
X146081726Y-94007359D01*
X146258121Y-94226627D01*
X146427909Y-94437822D01*
X146587626Y-94636643D01*
X146733808Y-94818784D01*
X146862992Y-94979945D01*
X146971713Y-95115820D01*
X147056508Y-95222108D01*
X147113913Y-95294504D01*
X147140464Y-95328706D01*
X147142655Y-95341559D01*
X147135366Y-95366004D01*
X147116477Y-95404463D01*
X147084103Y-95459662D01*
X147036357Y-95534331D01*
X146971355Y-95631196D01*
X146887212Y-95752986D01*
X146782041Y-95902430D01*
X146653957Y-96082254D01*
X146501075Y-96295187D01*
X146321508Y-96543957D01*
X146113372Y-96831292D01*
X145874782Y-97159920D01*
X145684675Y-97421504D01*
X145452740Y-97740397D01*
X145248722Y-98020446D01*
X145070251Y-98264760D01*
X144914952Y-98476446D01*
X144780454Y-98658614D01*
X144664383Y-98814370D01*
X144564367Y-98946823D01*
X144478034Y-99059081D01*
X144403011Y-99154251D01*
X144336925Y-99235443D01*
X144277404Y-99305764D01*
X144222076Y-99368322D01*
X144168566Y-99426225D01*
X144114504Y-99482582D01*
X144057516Y-99540500D01*
X143847505Y-99752258D01*
X145259236Y-99752315D01*
X146670968Y-99752372D01*
X146662097Y-99581274D01*
X146661667Y-99572677D01*
X146659983Y-99504277D01*
X146663175Y-99438742D01*
X146673378Y-99372480D01*
X146692728Y-99301903D01*
X146723359Y-99223420D01*
X146767407Y-99133441D01*
X146827007Y-99028378D01*
X146904295Y-98904640D01*
X147001405Y-98758637D01*
X147120473Y-98586780D01*
X147263635Y-98385478D01*
X147433025Y-98151143D01*
X147630779Y-97880183D01*
X147859033Y-97569010D01*
X148664732Y-96472123D01*
X148671830Y-97743932D01*
X148672459Y-97862566D01*
X148673569Y-98182112D01*
X148673064Y-98453907D01*
X148670352Y-98683095D01*
X148664837Y-98874820D01*
X148655926Y-99034225D01*
X148643025Y-99166453D01*
X148625540Y-99276648D01*
X148602877Y-99369953D01*
X148574441Y-99451512D01*
X148539640Y-99526469D01*
X148497878Y-99599968D01*
X148448561Y-99677150D01*
X148398987Y-99752258D01*
X150975361Y-99752258D01*
X150908811Y-99663494D01*
X150898389Y-99649452D01*
X150815064Y-99520750D01*
X150757624Y-99390647D01*
X150719905Y-99241568D01*
X150695745Y-99055941D01*
X150695082Y-99047849D01*
X150691576Y-98971283D01*
X150688410Y-98843535D01*
X150685599Y-98667527D01*
X150683156Y-98446177D01*
X150681094Y-98182404D01*
X150679429Y-97879127D01*
X150678172Y-97539265D01*
X150677338Y-97165738D01*
X150676941Y-96761464D01*
X150676994Y-96329362D01*
X150677512Y-95872353D01*
X150678508Y-95393354D01*
X150679562Y-94963691D01*
X150680690Y-94495994D01*
X150681801Y-94077543D01*
X150683033Y-93705409D01*
X150684527Y-93376658D01*
X150686422Y-93088359D01*
X150688857Y-92837581D01*
X150691971Y-92621393D01*
X150695904Y-92436861D01*
X150700796Y-92281055D01*
X150706786Y-92151043D01*
X150714013Y-92043894D01*
X150722616Y-91956675D01*
X150732736Y-91886455D01*
X150744511Y-91830303D01*
X150758081Y-91785286D01*
X150773586Y-91748474D01*
X150791164Y-91716933D01*
X150810955Y-91687734D01*
X150833099Y-91657944D01*
X150857735Y-91624631D01*
X150881564Y-91591248D01*
X150927620Y-91525243D01*
X150955208Y-91483602D01*
X150955874Y-91481858D01*
X150946241Y-91473983D01*
X150912248Y-91467413D01*
X150850111Y-91462045D01*
X150756048Y-91457780D01*
X150626276Y-91454517D01*
X150457014Y-91452154D01*
X150244477Y-91450591D01*
X149984885Y-91449728D01*
X149674453Y-91449462D01*
X148373102Y-91449462D01*
X148441687Y-91530972D01*
X148481437Y-91586954D01*
X148547602Y-91718950D01*
X148605584Y-91883117D01*
X148649838Y-92065220D01*
X148652659Y-92082508D01*
X148661051Y-92173644D01*
X148667407Y-92314493D01*
X148671742Y-92506030D01*
X148674074Y-92749230D01*
X148674420Y-93045069D01*
X148672796Y-93394522D01*
X148664732Y-94561195D01*
X147831721Y-93507783D01*
X147807862Y-93477609D01*
X147596618Y-93210185D01*
X147416273Y-92981160D01*
X147263955Y-92786642D01*
X147136796Y-92622735D01*
X147031923Y-92485547D01*
X146946469Y-92371181D01*
X146877561Y-92275746D01*
X146822331Y-92195345D01*
X146777909Y-92126086D01*
X146741423Y-92064074D01*
X146710004Y-92005416D01*
X146680782Y-91946216D01*
X146635828Y-91841426D01*
X146606788Y-91730883D01*
X146599064Y-91611646D01*
X146599840Y-91449462D01*
X143835998Y-91449462D01*
X142922166Y-91449462D01*
X142951895Y-91433971D01*
X143166118Y-91265210D01*
X143225670Y-91205714D01*
X143401686Y-90985424D01*
X143526584Y-90746359D01*
X143601032Y-90486976D01*
X143625699Y-90205734D01*
X143625699Y-89974623D01*
X147546303Y-89974623D01*
X147791244Y-89974613D01*
X148317446Y-89974541D01*
X148792794Y-89974490D01*
X149219918Y-89974561D01*
X149601445Y-89974860D01*
X149940004Y-89975491D01*
X150238224Y-89976556D01*
X150498733Y-89978161D01*
X150724161Y-89980409D01*
X150917135Y-89983404D01*
X151080284Y-89987250D01*
X151216238Y-89992050D01*
X151327624Y-89997910D01*
X151417071Y-90004932D01*
X151487208Y-90013221D01*
X151540663Y-90022880D01*
X151580065Y-90034014D01*
X151608043Y-90046726D01*
X151627226Y-90061121D01*
X151640241Y-90077301D01*
X151649718Y-90095372D01*
X151658285Y-90115437D01*
X151668570Y-90137600D01*
X151668755Y-90137962D01*
X151673749Y-90152470D01*
X151678330Y-90176764D01*
X151682515Y-90213084D01*
X151686321Y-90263674D01*
X151689767Y-90330775D01*
X151692869Y-90416629D01*
X151695645Y-90523478D01*
X151698113Y-90653564D01*
X151700288Y-90809128D01*
X151702190Y-90992413D01*
X151703836Y-91205661D01*
X151705242Y-91451113D01*
X151706426Y-91731012D01*
X151707406Y-92047599D01*
X151708198Y-92403116D01*
X151708822Y-92799805D01*
X151709292Y-93239909D01*
X151709628Y-93725668D01*
X151709847Y-94259325D01*
X151709965Y-94843122D01*
X151710000Y-95479301D01*
X151710002Y-95604279D01*
X151710062Y-96233828D01*
X151710156Y-96811438D01*
X151710211Y-97339368D01*
X151710156Y-97819877D01*
X151709922Y-98255223D01*
X151709435Y-98647664D01*
X151708625Y-98999459D01*
X151707421Y-99312867D01*
X151705752Y-99590145D01*
X151704283Y-99752258D01*
X151703547Y-99833553D01*
G37*
D12*
%TO.C,G\u002A\u002A\u002A*%
G36*
X123160645Y-120263151D02*
G01*
X123174907Y-120268708D01*
X123188981Y-120280866D01*
X123201044Y-120295039D01*
X123207200Y-120311979D01*
X123207069Y-120336477D01*
X123206291Y-120347380D01*
X123206716Y-120363446D01*
X123211905Y-120370032D01*
X123223894Y-120371356D01*
X123238273Y-120372925D01*
X123254649Y-120378542D01*
X123261774Y-120384937D01*
X123278605Y-120401047D01*
X123303716Y-120425471D01*
X123335714Y-120456826D01*
X123373206Y-120493731D01*
X123414797Y-120534805D01*
X123459095Y-120578666D01*
X123504705Y-120623932D01*
X123550234Y-120669223D01*
X123594288Y-120713156D01*
X123635474Y-120754351D01*
X123672399Y-120791424D01*
X123703667Y-120822996D01*
X123727887Y-120847684D01*
X123759139Y-120879794D01*
X123763046Y-121048858D01*
X123766952Y-121217923D01*
X123817736Y-121261046D01*
X123868521Y-121304170D01*
X123870629Y-121138503D01*
X123870887Y-121120816D01*
X123871914Y-121073608D01*
X123873290Y-121032947D01*
X123874909Y-121001104D01*
X123876662Y-120980348D01*
X123878442Y-120972948D01*
X123880818Y-120973962D01*
X123893316Y-120982532D01*
X123913287Y-120997935D01*
X123937697Y-121017873D01*
X123991248Y-121062685D01*
X123995059Y-121299336D01*
X123995390Y-121321174D01*
X123996066Y-121379429D01*
X123996384Y-121432221D01*
X123996351Y-121477519D01*
X123995973Y-121513291D01*
X123995257Y-121537505D01*
X123994211Y-121548128D01*
X123994160Y-121548260D01*
X123989224Y-121554093D01*
X123979901Y-121551049D01*
X123962849Y-121538053D01*
X123948796Y-121526315D01*
X123924993Y-121506377D01*
X123894027Y-121480408D01*
X123858321Y-121450441D01*
X123820297Y-121418506D01*
X123782613Y-121386886D01*
X123747476Y-121357482D01*
X123717269Y-121332280D01*
X123694333Y-121313234D01*
X123681009Y-121302297D01*
X123678874Y-121300570D01*
X123666183Y-121289521D01*
X123656523Y-121278225D01*
X123649471Y-121264483D01*
X123644599Y-121246101D01*
X123641484Y-121220880D01*
X123639701Y-121186623D01*
X123638824Y-121141135D01*
X123638428Y-121082217D01*
X123637676Y-120914238D01*
X123406607Y-120684258D01*
X123398241Y-120675932D01*
X123343092Y-120621004D01*
X123297918Y-120575840D01*
X123261748Y-120539335D01*
X123233611Y-120510383D01*
X123212536Y-120487879D01*
X123197551Y-120470719D01*
X123187686Y-120457797D01*
X123181969Y-120448008D01*
X123179429Y-120440248D01*
X123179096Y-120433410D01*
X123179998Y-120426391D01*
X123184458Y-120398503D01*
X123148645Y-120401351D01*
X123141729Y-120401713D01*
X123114305Y-120399921D01*
X123093501Y-120393854D01*
X123091425Y-120392697D01*
X123068825Y-120371511D01*
X123057527Y-120343205D01*
X123058336Y-120311981D01*
X123072058Y-120282041D01*
X123076299Y-120277453D01*
X123094720Y-120268431D01*
X123125580Y-120263542D01*
X123140095Y-120262527D01*
X123160645Y-120263151D01*
G37*
G36*
X122204204Y-121241642D02*
G01*
X122203799Y-121276442D01*
X122201788Y-121301708D01*
X122197058Y-121322701D01*
X122188495Y-121344682D01*
X122174986Y-121372910D01*
X122159759Y-121400975D01*
X122117794Y-121457613D01*
X122066642Y-121501717D01*
X122005811Y-121533658D01*
X121934808Y-121553808D01*
X121912988Y-121555741D01*
X121877175Y-121554737D01*
X121837278Y-121550599D01*
X121799341Y-121543993D01*
X121769408Y-121535585D01*
X121742030Y-121523365D01*
X121687822Y-121487670D01*
X121640706Y-121440947D01*
X121603319Y-121386089D01*
X121578303Y-121325993D01*
X121578051Y-121325117D01*
X121568978Y-121272970D01*
X121568715Y-121222741D01*
X121740089Y-121222741D01*
X121742992Y-121265813D01*
X121759507Y-121308336D01*
X121778358Y-121336555D01*
X121803458Y-121359759D01*
X121836867Y-121376563D01*
X121843505Y-121379003D01*
X121865494Y-121384324D01*
X121889380Y-121384372D01*
X121921642Y-121379360D01*
X121945011Y-121372301D01*
X121980782Y-121350226D01*
X122009023Y-121318448D01*
X122027802Y-121280234D01*
X122035186Y-121238849D01*
X122029241Y-121197558D01*
X122015808Y-121172404D01*
X121993008Y-121145014D01*
X121966103Y-121121185D01*
X121940159Y-121106121D01*
X121899600Y-121098117D01*
X121854216Y-121101820D01*
X121810380Y-121117082D01*
X121805162Y-121119875D01*
X121771963Y-121146806D01*
X121750009Y-121182083D01*
X121740089Y-121222741D01*
X121568715Y-121222741D01*
X121568679Y-121215831D01*
X121576736Y-121159929D01*
X121592729Y-121111495D01*
X121608448Y-121082586D01*
X121646882Y-121032094D01*
X121694305Y-120988155D01*
X121746433Y-120955129D01*
X121755131Y-120950883D01*
X121776965Y-120941088D01*
X121796200Y-120934941D01*
X121817390Y-120931612D01*
X121845091Y-120930270D01*
X121883859Y-120930087D01*
X121899312Y-120930184D01*
X121937598Y-120931347D01*
X121966534Y-120934323D01*
X121990822Y-120939766D01*
X122015161Y-120948328D01*
X122059791Y-120971991D01*
X122106815Y-121009331D01*
X122147837Y-121054806D01*
X122178806Y-121104549D01*
X122189486Y-121127480D01*
X122197350Y-121148876D01*
X122201757Y-121170498D01*
X122203705Y-121197479D01*
X122204194Y-121234948D01*
X122204200Y-121238849D01*
X122204204Y-121241642D01*
G37*
G36*
X123428710Y-120817371D02*
G01*
X123441257Y-120825643D01*
X123461080Y-120840989D01*
X123485039Y-120861029D01*
X123536469Y-120905482D01*
X123536469Y-121082237D01*
X123536469Y-121258992D01*
X123557955Y-121278842D01*
X123566542Y-121286342D01*
X123587343Y-121303402D01*
X123614555Y-121325001D01*
X123645077Y-121348752D01*
X123675810Y-121372272D01*
X123703652Y-121393173D01*
X123725504Y-121409071D01*
X123738265Y-121417580D01*
X123740770Y-121419130D01*
X123745396Y-121424829D01*
X123746307Y-121435192D01*
X123743416Y-121453701D01*
X123736638Y-121483841D01*
X123734925Y-121490892D01*
X123727424Y-121517492D01*
X123720489Y-121536148D01*
X123715434Y-121543183D01*
X123714320Y-121543025D01*
X123702788Y-121536812D01*
X123686801Y-121524355D01*
X123679657Y-121518469D01*
X123659532Y-121502895D01*
X123631070Y-121481513D01*
X123596964Y-121456341D01*
X123559908Y-121429393D01*
X123536013Y-121412067D01*
X123501182Y-121386528D01*
X123471326Y-121364299D01*
X123449024Y-121347307D01*
X123436854Y-121337477D01*
X123432789Y-121333668D01*
X123428774Y-121328558D01*
X123425646Y-121321312D01*
X123423293Y-121310244D01*
X123421605Y-121293667D01*
X123420471Y-121269895D01*
X123419782Y-121237242D01*
X123419426Y-121194023D01*
X123419294Y-121138549D01*
X123419274Y-121069136D01*
X123419299Y-121045938D01*
X123419654Y-120981860D01*
X123420398Y-120926201D01*
X123421489Y-120880402D01*
X123422888Y-120845904D01*
X123424552Y-120824148D01*
X123426442Y-120816576D01*
X123428710Y-120817371D01*
G37*
G36*
X128166576Y-121385251D02*
G01*
X128166389Y-121403666D01*
X128163151Y-121415496D01*
X128158502Y-121435153D01*
X128155023Y-121446128D01*
X128137605Y-121474720D01*
X128111182Y-121501131D01*
X128080041Y-121520684D01*
X128054569Y-121529972D01*
X128011544Y-121534202D01*
X127968238Y-121523278D01*
X127941033Y-121509295D01*
X127907477Y-121479906D01*
X127887256Y-121442440D01*
X127880499Y-121397078D01*
X127881286Y-121390464D01*
X127963459Y-121390464D01*
X127967123Y-121408294D01*
X127982267Y-121427403D01*
X127994338Y-121437689D01*
X128020392Y-121448313D01*
X128045882Y-121443431D01*
X128069777Y-121423094D01*
X128080821Y-121404678D01*
X128081059Y-121384065D01*
X128067431Y-121360632D01*
X128046901Y-121344718D01*
X128021500Y-121339772D01*
X127996246Y-121345395D01*
X127975667Y-121360551D01*
X127964290Y-121384206D01*
X127963459Y-121390464D01*
X127881286Y-121390464D01*
X127884893Y-121360128D01*
X127903204Y-121318663D01*
X127935686Y-121283760D01*
X127946854Y-121275906D01*
X127984662Y-121260236D01*
X128026361Y-121255584D01*
X128067853Y-121261541D01*
X128105039Y-121277693D01*
X128133822Y-121303632D01*
X128136213Y-121306946D01*
X128149644Y-121331225D01*
X128160380Y-121359215D01*
X128166294Y-121384065D01*
X128166576Y-121385251D01*
G37*
G36*
X125192824Y-121424779D02*
G01*
X125175902Y-121462915D01*
X125150489Y-121495039D01*
X125118985Y-121516568D01*
X125087639Y-121525816D01*
X125043826Y-121527413D01*
X125000698Y-121518121D01*
X124962556Y-121498995D01*
X124933697Y-121471090D01*
X124921902Y-121445636D01*
X124915156Y-121410456D01*
X124914819Y-121390529D01*
X124994694Y-121390529D01*
X125002118Y-121415394D01*
X125022181Y-121436920D01*
X125027057Y-121440037D01*
X125053905Y-121447653D01*
X125080508Y-121440394D01*
X125104677Y-121418743D01*
X125114140Y-121398319D01*
X125112448Y-121375604D01*
X125100376Y-121355671D01*
X125080592Y-121341276D01*
X125055765Y-121335175D01*
X125028561Y-121340123D01*
X125016725Y-121346565D01*
X124999650Y-121366270D01*
X124994694Y-121390529D01*
X124914819Y-121390529D01*
X124914516Y-121372563D01*
X124920049Y-121337627D01*
X124931821Y-121311318D01*
X124933666Y-121308885D01*
X124965313Y-121279205D01*
X125002935Y-121261259D01*
X125043728Y-121254457D01*
X125084891Y-121258211D01*
X125123619Y-121271932D01*
X125157111Y-121295033D01*
X125182564Y-121326926D01*
X125197173Y-121367020D01*
X125198858Y-121385220D01*
X125196860Y-121398319D01*
X125192824Y-121424779D01*
G37*
G36*
X126477462Y-121299913D02*
G01*
X126507595Y-121318279D01*
X126531889Y-121346823D01*
X126543278Y-121380184D01*
X126541489Y-121415811D01*
X126526244Y-121451152D01*
X126497270Y-121483655D01*
X126479696Y-121495900D01*
X126459206Y-121502418D01*
X126430276Y-121504118D01*
X126415756Y-121503892D01*
X126393974Y-121500943D01*
X126376582Y-121492222D01*
X126356168Y-121474797D01*
X126340055Y-121458238D01*
X126326476Y-121436693D01*
X126320134Y-121411181D01*
X126319235Y-121400862D01*
X126324513Y-121363577D01*
X126341739Y-121331994D01*
X126368280Y-121307973D01*
X126401503Y-121293378D01*
X126438775Y-121290071D01*
X126477462Y-121299913D01*
G37*
G36*
X123163294Y-120619756D02*
G01*
X123180548Y-120620614D01*
X123209408Y-120622377D01*
X123229854Y-120624075D01*
X123238287Y-120625436D01*
X123235108Y-120630073D01*
X123221962Y-120644706D01*
X123199710Y-120668221D01*
X123169461Y-120699516D01*
X123132322Y-120737487D01*
X123089402Y-120781032D01*
X123041808Y-120829046D01*
X122990651Y-120880428D01*
X122937037Y-120934074D01*
X122882075Y-120988880D01*
X122826874Y-121043744D01*
X122772541Y-121097563D01*
X122720186Y-121149233D01*
X122670915Y-121197652D01*
X122625839Y-121241716D01*
X122586064Y-121280323D01*
X122552700Y-121312368D01*
X122526854Y-121336750D01*
X122509635Y-121352364D01*
X122502152Y-121358108D01*
X122486493Y-121359771D01*
X122459043Y-121361071D01*
X122424161Y-121361892D01*
X122385688Y-121362227D01*
X122347466Y-121362069D01*
X122313336Y-121361410D01*
X122287140Y-121360243D01*
X122272720Y-121358560D01*
X122266211Y-121356454D01*
X122257973Y-121350151D01*
X122256726Y-121338778D01*
X122262594Y-121319432D01*
X122275702Y-121289208D01*
X122296264Y-121244295D01*
X122375988Y-121249636D01*
X122455713Y-121254976D01*
X122748029Y-120959917D01*
X122770421Y-120937319D01*
X122826044Y-120881217D01*
X122878575Y-120828279D01*
X122926885Y-120779641D01*
X122969847Y-120736436D01*
X123006331Y-120699799D01*
X123035209Y-120670865D01*
X123055352Y-120650769D01*
X123065631Y-120640643D01*
X123069160Y-120637275D01*
X123080764Y-120627173D01*
X123091980Y-120621225D01*
X123106808Y-120618577D01*
X123129246Y-120618372D01*
X123163294Y-120619756D01*
G37*
G36*
X128054979Y-119745416D02*
G01*
X128055921Y-119765815D01*
X128056784Y-119799847D01*
X128057559Y-119846463D01*
X128058238Y-119904614D01*
X128058812Y-119973253D01*
X128059273Y-120051329D01*
X128059611Y-120137796D01*
X128059819Y-120231604D01*
X128059888Y-120331705D01*
X128059809Y-120437049D01*
X128058792Y-121137229D01*
X128041909Y-121149150D01*
X128032995Y-121155235D01*
X128012124Y-121169114D01*
X127984320Y-121187379D01*
X127953136Y-121207687D01*
X127912187Y-121236141D01*
X127874764Y-121267959D01*
X127845075Y-121301310D01*
X127808904Y-121348316D01*
X127709921Y-121346134D01*
X127610939Y-121343952D01*
X127610939Y-121286101D01*
X127610939Y-121228249D01*
X127673442Y-121229430D01*
X127687425Y-121229702D01*
X127709270Y-121229660D01*
X127727049Y-121227798D01*
X127743503Y-121222829D01*
X127761374Y-121213468D01*
X127783400Y-121198430D01*
X127812325Y-121176427D01*
X127850887Y-121146174D01*
X127880715Y-121122534D01*
X127905171Y-121102178D01*
X127921059Y-121086923D01*
X127930452Y-121074443D01*
X127935426Y-121062415D01*
X127938057Y-121048512D01*
X127938845Y-121035766D01*
X127939739Y-121008613D01*
X127940709Y-120968420D01*
X127941733Y-120916489D01*
X127942792Y-120854121D01*
X127943864Y-120782616D01*
X127944930Y-120703277D01*
X127945967Y-120617403D01*
X127946956Y-120526296D01*
X127947876Y-120431257D01*
X127953191Y-119846707D01*
X128000253Y-119794499D01*
X128010233Y-119783533D01*
X128030596Y-119761854D01*
X128046127Y-119746266D01*
X128054070Y-119739580D01*
X128054979Y-119745416D01*
G37*
G36*
X126191604Y-119759636D02*
G01*
X126207260Y-119777415D01*
X126234107Y-119808238D01*
X126266163Y-119845301D01*
X126300683Y-119885427D01*
X126334923Y-119925442D01*
X126359398Y-119954101D01*
X126396659Y-119997639D01*
X126433392Y-120040461D01*
X126466397Y-120078840D01*
X126492474Y-120109047D01*
X126501025Y-120118927D01*
X126564166Y-120192401D01*
X126619993Y-120258307D01*
X126668048Y-120316075D01*
X126707875Y-120365134D01*
X126739017Y-120404915D01*
X126761017Y-120434845D01*
X126773418Y-120454356D01*
X126775764Y-120462875D01*
X126774280Y-120463855D01*
X126759981Y-120466411D01*
X126736159Y-120466744D01*
X126707556Y-120465203D01*
X126678913Y-120462140D01*
X126654971Y-120457907D01*
X126640472Y-120452853D01*
X126638594Y-120451521D01*
X126624031Y-120438291D01*
X126604243Y-120417401D01*
X126582948Y-120392736D01*
X126580361Y-120389599D01*
X126558061Y-120362776D01*
X126537239Y-120338062D01*
X126522100Y-120320452D01*
X126501495Y-120297013D01*
X126496654Y-120445459D01*
X126495750Y-120477723D01*
X126494608Y-120531185D01*
X126493539Y-120594921D01*
X126492584Y-120665909D01*
X126491782Y-120741126D01*
X126491172Y-120817548D01*
X126490794Y-120892153D01*
X126489776Y-121190400D01*
X126469549Y-121214439D01*
X126463892Y-121220776D01*
X126443457Y-121235607D01*
X126422997Y-121235520D01*
X126399738Y-121220764D01*
X126379146Y-121203052D01*
X126379705Y-120960983D01*
X126379745Y-120946742D01*
X126380127Y-120872654D01*
X126380794Y-120788466D01*
X126381699Y-120698721D01*
X126382791Y-120607959D01*
X126384022Y-120520723D01*
X126385341Y-120441553D01*
X126390419Y-120164192D01*
X126349019Y-120115361D01*
X126343049Y-120108444D01*
X126323093Y-120087083D01*
X126306763Y-120072149D01*
X126297128Y-120066530D01*
X126296384Y-120066640D01*
X126293357Y-120070438D01*
X126290994Y-120080762D01*
X126289222Y-120099127D01*
X126287967Y-120127052D01*
X126287155Y-120166051D01*
X126286711Y-120217641D01*
X126286563Y-120283340D01*
X126286517Y-120312223D01*
X126286286Y-120367107D01*
X126285882Y-120429317D01*
X126285328Y-120497211D01*
X126284644Y-120569152D01*
X126283853Y-120643500D01*
X126282977Y-120718616D01*
X126282037Y-120792859D01*
X126281056Y-120864592D01*
X126280056Y-120932175D01*
X126279058Y-120993967D01*
X126278084Y-121048331D01*
X126277156Y-121093627D01*
X126276296Y-121128215D01*
X126275526Y-121150456D01*
X126274868Y-121158712D01*
X126274067Y-121158695D01*
X126263935Y-121153791D01*
X126244861Y-121142763D01*
X126220083Y-121127460D01*
X126167184Y-121093937D01*
X126172416Y-120539614D01*
X126173368Y-120442182D01*
X126174401Y-120346195D01*
X126175419Y-120263919D01*
X126176451Y-120194341D01*
X126177527Y-120136444D01*
X126178675Y-120089215D01*
X126179926Y-120051640D01*
X126181307Y-120022703D01*
X126182848Y-120001390D01*
X126184579Y-119986686D01*
X126186529Y-119977578D01*
X126188727Y-119973050D01*
X126192571Y-119966426D01*
X126191713Y-119957519D01*
X126184769Y-119943971D01*
X126170461Y-119923304D01*
X126147513Y-119893039D01*
X126134403Y-119876243D01*
X126109473Y-119846391D01*
X126091553Y-119829582D01*
X126079532Y-119825813D01*
X126072303Y-119835078D01*
X126068755Y-119857372D01*
X126067780Y-119892691D01*
X126067739Y-119903750D01*
X126067566Y-119932526D01*
X126067271Y-119974515D01*
X126066864Y-120028264D01*
X126066359Y-120092320D01*
X126065765Y-120165232D01*
X126065096Y-120245546D01*
X126064363Y-120331811D01*
X126063577Y-120422572D01*
X126062750Y-120516379D01*
X126057815Y-121071702D01*
X126076518Y-121089424D01*
X126080913Y-121093214D01*
X126098861Y-121106935D01*
X126125772Y-121126308D01*
X126158819Y-121149320D01*
X126195173Y-121173954D01*
X126213161Y-121186122D01*
X126246518Y-121209501D01*
X126274195Y-121229972D01*
X126293716Y-121245670D01*
X126302601Y-121254732D01*
X126309219Y-121276695D01*
X126307775Y-121303911D01*
X126297147Y-121325758D01*
X126294255Y-121328762D01*
X126281623Y-121337302D01*
X126266150Y-121339481D01*
X126245934Y-121334653D01*
X126219076Y-121322173D01*
X126183678Y-121301398D01*
X126137838Y-121271682D01*
X126097641Y-121244925D01*
X126054005Y-121215832D01*
X126020701Y-121193520D01*
X125996190Y-121176919D01*
X125978938Y-121164958D01*
X125967406Y-121156569D01*
X125960059Y-121150681D01*
X125955359Y-121146224D01*
X125951770Y-121142128D01*
X125950224Y-121138226D01*
X125948712Y-121128629D01*
X125947458Y-121112727D01*
X125946457Y-121089673D01*
X125945707Y-121058620D01*
X125945202Y-121018722D01*
X125944938Y-120969130D01*
X125944911Y-120908997D01*
X125945117Y-120837476D01*
X125945551Y-120753720D01*
X125946210Y-120656882D01*
X125947090Y-120546113D01*
X125948185Y-120420567D01*
X125954587Y-119711039D01*
X126049564Y-119708851D01*
X126144541Y-119706664D01*
X126191604Y-119759636D01*
G37*
G36*
X128294281Y-120436593D02*
G01*
X128293988Y-121242383D01*
X128268725Y-121271879D01*
X128261391Y-121280021D01*
X128239775Y-121300907D01*
X128220187Y-121316232D01*
X128218278Y-121317431D01*
X128199781Y-121327300D01*
X128186459Y-121331662D01*
X128185280Y-121330735D01*
X128183762Y-121325518D01*
X128182455Y-121315004D01*
X128181355Y-121298399D01*
X128180457Y-121274907D01*
X128179757Y-121243735D01*
X128179250Y-121204089D01*
X128178931Y-121155172D01*
X128178797Y-121096192D01*
X128178841Y-121026353D01*
X128179061Y-120944862D01*
X128179451Y-120850923D01*
X128180006Y-120743742D01*
X128180723Y-120622525D01*
X128181596Y-120486478D01*
X128181663Y-120476401D01*
X128182421Y-120363196D01*
X128183165Y-120254543D01*
X128183888Y-120151447D01*
X128184582Y-120054915D01*
X128185238Y-119965955D01*
X128185850Y-119885573D01*
X128186409Y-119814776D01*
X128186908Y-119754571D01*
X128187338Y-119705964D01*
X128187693Y-119669963D01*
X128187963Y-119647574D01*
X128188142Y-119639803D01*
X128188153Y-119639795D01*
X128196008Y-119638770D01*
X128215272Y-119636993D01*
X128241837Y-119634843D01*
X128294574Y-119630802D01*
X128294281Y-120436593D01*
G37*
G36*
X126309237Y-119545013D02*
G01*
X126311487Y-119547818D01*
X126349153Y-119594831D01*
X126388874Y-119644491D01*
X126428960Y-119694677D01*
X126467721Y-119743270D01*
X126503467Y-119788150D01*
X126534508Y-119827198D01*
X126559156Y-119858294D01*
X126575719Y-119879317D01*
X126608578Y-119921259D01*
X126647856Y-119971197D01*
X126683934Y-120016782D01*
X126720481Y-120062640D01*
X126761164Y-120113403D01*
X126779500Y-120136393D01*
X126802844Y-120166687D01*
X126818421Y-120189044D01*
X126827719Y-120205930D01*
X126832227Y-120219812D01*
X126833434Y-120233157D01*
X126833296Y-120239526D01*
X126827519Y-120263910D01*
X126810709Y-120285894D01*
X126805404Y-120291027D01*
X126790513Y-120303576D01*
X126781410Y-120308472D01*
X126780245Y-120308388D01*
X126776706Y-120307527D01*
X126772336Y-120305180D01*
X126766545Y-120300629D01*
X126758743Y-120293154D01*
X126748342Y-120282036D01*
X126734752Y-120266556D01*
X126717382Y-120245996D01*
X126695645Y-120219635D01*
X126668949Y-120186756D01*
X126636706Y-120146639D01*
X126598326Y-120098565D01*
X126553219Y-120041815D01*
X126500796Y-119975670D01*
X126440468Y-119899411D01*
X126371644Y-119812319D01*
X126293736Y-119713674D01*
X126215611Y-119614741D01*
X126128070Y-119612106D01*
X126103211Y-119611616D01*
X126062905Y-119611253D01*
X126011619Y-119611079D01*
X125951799Y-119611094D01*
X125885890Y-119611296D01*
X125816339Y-119611685D01*
X125745589Y-119612259D01*
X125450649Y-119615048D01*
X125450649Y-120422367D01*
X125450649Y-121229685D01*
X125399420Y-121273146D01*
X125390113Y-121280941D01*
X125367264Y-121299173D01*
X125349767Y-121311853D01*
X125340823Y-121316607D01*
X125340534Y-121316164D01*
X125339378Y-121304784D01*
X125338311Y-121278409D01*
X125337338Y-121237545D01*
X125336463Y-121182701D01*
X125335691Y-121114384D01*
X125335025Y-121033104D01*
X125334472Y-120939368D01*
X125334033Y-120833684D01*
X125333715Y-120716560D01*
X125333520Y-120588505D01*
X125333455Y-120450026D01*
X125333455Y-119583446D01*
X125378379Y-119539971D01*
X125423304Y-119496497D01*
X125846686Y-119496340D01*
X126270069Y-119496182D01*
X126309237Y-119545013D01*
G37*
G36*
X124926125Y-119516590D02*
G01*
X124960773Y-119552748D01*
X124956299Y-120346782D01*
X124951824Y-121140815D01*
X124899604Y-121189592D01*
X124887428Y-121200695D01*
X124865524Y-121219198D01*
X124849054Y-121231146D01*
X124840886Y-121234354D01*
X124840380Y-121231366D01*
X124839619Y-121214610D01*
X124838981Y-121184248D01*
X124838461Y-121141550D01*
X124838057Y-121087787D01*
X124837766Y-121024230D01*
X124837583Y-120952151D01*
X124837507Y-120872820D01*
X124837533Y-120787507D01*
X124837658Y-120697485D01*
X124837880Y-120604024D01*
X124838194Y-120508394D01*
X124838599Y-120411868D01*
X124839089Y-120315715D01*
X124839663Y-120221207D01*
X124840316Y-120129614D01*
X124841046Y-120042208D01*
X124841849Y-119960260D01*
X124842722Y-119885040D01*
X124843662Y-119817820D01*
X124844666Y-119759870D01*
X124847989Y-119589938D01*
X124399311Y-119589938D01*
X123950633Y-119589938D01*
X123954019Y-119537200D01*
X123957405Y-119484463D01*
X124424441Y-119482447D01*
X124891477Y-119480432D01*
X124926125Y-119516590D01*
G37*
G36*
X125104251Y-119624036D02*
G01*
X125125062Y-119625161D01*
X125153002Y-119627051D01*
X125210844Y-119631274D01*
X125205492Y-120096964D01*
X125205240Y-120119223D01*
X125204204Y-120218199D01*
X125203234Y-120322467D01*
X125202351Y-120429039D01*
X125201575Y-120534926D01*
X125200927Y-120637142D01*
X125200429Y-120732697D01*
X125200100Y-120818604D01*
X125199963Y-120891875D01*
X125199913Y-120929677D01*
X125199673Y-120997492D01*
X125199259Y-121059523D01*
X125198694Y-121114129D01*
X125198001Y-121159671D01*
X125197202Y-121194507D01*
X125196320Y-121216998D01*
X125195377Y-121225504D01*
X125191865Y-121225481D01*
X125178201Y-121218350D01*
X125157335Y-121203952D01*
X125132078Y-121184287D01*
X125105241Y-121161357D01*
X125084070Y-121142402D01*
X125088658Y-120383749D01*
X125088954Y-120335174D01*
X125089610Y-120229616D01*
X125090254Y-120129048D01*
X125090877Y-120034532D01*
X125091473Y-119947134D01*
X125092032Y-119867916D01*
X125092548Y-119797943D01*
X125093013Y-119738277D01*
X125093418Y-119689982D01*
X125093757Y-119654122D01*
X125094021Y-119631761D01*
X125094203Y-119623962D01*
X125094480Y-119623883D01*
X125104251Y-119624036D01*
G37*
G36*
X122878937Y-120579707D02*
G01*
X122951918Y-120584592D01*
X122664120Y-120872469D01*
X122376321Y-121160347D01*
X122312285Y-121160347D01*
X122308882Y-121160338D01*
X122276283Y-121159127D01*
X122253306Y-121156140D01*
X122242936Y-121151749D01*
X122242899Y-121151667D01*
X122247611Y-121144062D01*
X122262607Y-121126424D01*
X122287052Y-121099630D01*
X122320111Y-121064555D01*
X122360950Y-121022076D01*
X122408732Y-120973071D01*
X122462623Y-120918415D01*
X122521789Y-120858987D01*
X122805955Y-120574822D01*
X122878937Y-120579707D01*
G37*
G36*
X127800598Y-120805988D02*
G01*
X127821643Y-120826823D01*
X127823415Y-120829780D01*
X127827771Y-120841059D01*
X127830602Y-120857604D01*
X127832100Y-120882000D01*
X127832457Y-120916833D01*
X127831864Y-120964688D01*
X127829702Y-121083652D01*
X127786731Y-121106372D01*
X127766201Y-121116663D01*
X127745687Y-121125638D01*
X127733993Y-121129093D01*
X127732081Y-121127114D01*
X127728920Y-121112915D01*
X127726515Y-121087458D01*
X127724865Y-121053619D01*
X127723967Y-121014275D01*
X127723818Y-120972304D01*
X127724417Y-120930581D01*
X127725762Y-120891984D01*
X127727849Y-120859388D01*
X127730676Y-120835672D01*
X127734241Y-120823712D01*
X127751592Y-120807396D01*
X127776199Y-120799475D01*
X127800598Y-120805988D01*
G37*
G36*
X122260595Y-119651180D02*
G01*
X122298652Y-119689014D01*
X122347120Y-119737081D01*
X122402106Y-119791522D01*
X122461243Y-119849996D01*
X122522165Y-119910163D01*
X122582505Y-119969684D01*
X122639896Y-120026217D01*
X122641973Y-120028261D01*
X122698021Y-120083804D01*
X122748059Y-120134099D01*
X122791204Y-120178222D01*
X122826574Y-120215250D01*
X122853287Y-120244259D01*
X122870460Y-120264327D01*
X122877211Y-120274531D01*
X122878775Y-120289897D01*
X122875291Y-120309087D01*
X122875026Y-120309550D01*
X122867006Y-120319012D01*
X122849014Y-120338383D01*
X122822015Y-120366672D01*
X122786973Y-120402890D01*
X122744855Y-120446046D01*
X122696626Y-120495152D01*
X122643251Y-120549217D01*
X122585696Y-120607251D01*
X122524926Y-120668266D01*
X122181393Y-121012459D01*
X122144653Y-120971161D01*
X122107913Y-120929864D01*
X122148321Y-120887085D01*
X122160793Y-120874122D01*
X122183605Y-120850724D01*
X122214938Y-120818766D01*
X122253505Y-120779552D01*
X122298019Y-120734392D01*
X122347192Y-120684590D01*
X122399739Y-120631455D01*
X122454371Y-120576294D01*
X122475276Y-120555183D01*
X122537930Y-120491623D01*
X122590221Y-120438046D01*
X122632798Y-120393752D01*
X122666309Y-120358042D01*
X122691404Y-120330218D01*
X122708730Y-120309581D01*
X122718935Y-120295431D01*
X122722669Y-120287070D01*
X122722891Y-120284011D01*
X122721337Y-120274876D01*
X122715437Y-120263685D01*
X122703762Y-120248733D01*
X122684883Y-120228313D01*
X122657370Y-120200718D01*
X122619795Y-120164241D01*
X122613237Y-120157920D01*
X122578349Y-120124141D01*
X122537716Y-120084593D01*
X122492547Y-120040471D01*
X122444049Y-119992966D01*
X122393430Y-119943271D01*
X122341898Y-119892578D01*
X122290663Y-119842082D01*
X122240930Y-119792973D01*
X122193909Y-119746445D01*
X122150808Y-119703690D01*
X122112834Y-119665902D01*
X122081196Y-119634272D01*
X122057102Y-119609993D01*
X122041759Y-119594258D01*
X122036377Y-119588260D01*
X122036419Y-119588068D01*
X122042267Y-119580480D01*
X122056058Y-119565095D01*
X122075037Y-119544996D01*
X122113697Y-119504887D01*
X122260595Y-119651180D01*
G37*
G36*
X122203147Y-119279200D02*
G01*
X122231158Y-119281840D01*
X122254057Y-119285658D01*
X122281602Y-119289565D01*
X122297388Y-119285833D01*
X122297975Y-119285470D01*
X122310306Y-119283307D01*
X122334099Y-119282026D01*
X122365711Y-119281564D01*
X122401498Y-119281862D01*
X122437818Y-119282859D01*
X122471025Y-119284494D01*
X122497478Y-119286707D01*
X122513532Y-119289435D01*
X122518281Y-119293328D01*
X122533593Y-119307636D01*
X122558689Y-119331806D01*
X122592884Y-119365159D01*
X122635493Y-119407017D01*
X122685832Y-119456702D01*
X122743217Y-119513537D01*
X122806963Y-119576842D01*
X122876387Y-119645941D01*
X122950804Y-119720156D01*
X123029529Y-119798807D01*
X123111879Y-119881219D01*
X123197168Y-119966711D01*
X123868521Y-120640207D01*
X123870546Y-120243987D01*
X123870668Y-120221424D01*
X123871390Y-120123250D01*
X123872346Y-120039741D01*
X123873531Y-119971057D01*
X123874940Y-119917357D01*
X123876571Y-119878802D01*
X123878419Y-119855552D01*
X123880480Y-119847766D01*
X123882192Y-119848198D01*
X123894599Y-119855245D01*
X123914677Y-119869136D01*
X123939005Y-119887545D01*
X123989622Y-119927323D01*
X123990811Y-120049664D01*
X123991031Y-120073073D01*
X123991381Y-120114257D01*
X123991630Y-120149153D01*
X123991757Y-120174648D01*
X123991741Y-120187631D01*
X123991683Y-120195448D01*
X123991582Y-120217884D01*
X123991452Y-120252965D01*
X123991299Y-120299051D01*
X123991127Y-120354506D01*
X123990941Y-120417691D01*
X123990748Y-120486969D01*
X123990551Y-120560701D01*
X123990296Y-120623705D01*
X123989793Y-120692547D01*
X123989098Y-120755043D01*
X123988240Y-120809648D01*
X123987248Y-120854815D01*
X123986151Y-120888996D01*
X123984980Y-120910645D01*
X123983762Y-120918214D01*
X123981197Y-120916081D01*
X123968536Y-120904039D01*
X123945900Y-120881934D01*
X123913922Y-120850399D01*
X123873238Y-120810066D01*
X123824481Y-120761568D01*
X123768286Y-120705539D01*
X123705286Y-120642613D01*
X123636117Y-120573421D01*
X123561412Y-120498598D01*
X123481805Y-120418776D01*
X123397930Y-120334589D01*
X123310423Y-120246669D01*
X123219917Y-120155650D01*
X122461931Y-119393017D01*
X122317326Y-119398692D01*
X122268847Y-119400433D01*
X122228598Y-119401376D01*
X122200067Y-119401235D01*
X122181223Y-119399941D01*
X122170033Y-119397429D01*
X122164466Y-119393630D01*
X122160014Y-119385564D01*
X122151481Y-119366121D01*
X122141557Y-119341109D01*
X122132129Y-119315509D01*
X122125087Y-119294304D01*
X122122320Y-119282476D01*
X122122322Y-119282416D01*
X122129612Y-119279347D01*
X122148258Y-119277854D01*
X122174142Y-119277839D01*
X122203147Y-119279200D01*
G37*
G36*
X127805971Y-120635215D02*
G01*
X127832177Y-120651031D01*
X127850288Y-120676260D01*
X127857047Y-120708974D01*
X127852329Y-120729244D01*
X127838152Y-120754275D01*
X127818341Y-120775309D01*
X127816550Y-120776530D01*
X127799207Y-120782511D01*
X127776363Y-120785076D01*
X127750348Y-120780725D01*
X127725767Y-120765315D01*
X127709263Y-120742071D01*
X127701685Y-120714464D01*
X127703881Y-120685968D01*
X127716698Y-120660055D01*
X127740986Y-120640198D01*
X127742289Y-120639537D01*
X127774924Y-120630741D01*
X127805971Y-120635215D01*
G37*
G36*
X127226310Y-120423903D02*
G01*
X127219877Y-120477033D01*
X127200218Y-120526745D01*
X127167419Y-120570467D01*
X127123169Y-120604044D01*
X127068323Y-120626637D01*
X127029455Y-120633169D01*
X126978188Y-120628664D01*
X126923934Y-120609448D01*
X126907347Y-120600607D01*
X126866172Y-120567623D01*
X126835956Y-120525512D01*
X126817714Y-120476660D01*
X126812463Y-120423452D01*
X126813796Y-120415047D01*
X126937661Y-120415047D01*
X126937858Y-120448049D01*
X126950249Y-120474698D01*
X126976633Y-120496633D01*
X127002463Y-120508720D01*
X127028050Y-120509965D01*
X127057616Y-120499265D01*
X127061130Y-120497444D01*
X127086658Y-120476441D01*
X127100181Y-120450119D01*
X127102535Y-120421594D01*
X127094557Y-120393983D01*
X127077083Y-120370402D01*
X127050948Y-120353968D01*
X127016988Y-120347797D01*
X127002361Y-120348682D01*
X126970342Y-120359366D01*
X126948543Y-120381685D01*
X126937661Y-120415047D01*
X126813796Y-120415047D01*
X126821217Y-120368273D01*
X126841710Y-120321774D01*
X126874993Y-120280796D01*
X126918122Y-120249605D01*
X126968922Y-120229752D01*
X127025217Y-120222789D01*
X127031189Y-120222880D01*
X127083309Y-120231624D01*
X127129782Y-120253136D01*
X127168963Y-120285268D01*
X127199208Y-120325872D01*
X127218872Y-120372800D01*
X127225974Y-120421594D01*
X127226310Y-120423903D01*
G37*
G36*
X127827526Y-120030038D02*
G01*
X127829234Y-120046037D01*
X127830713Y-120075490D01*
X127831926Y-120117023D01*
X127832836Y-120169261D01*
X127833409Y-120230829D01*
X127833609Y-120300352D01*
X127833609Y-120573239D01*
X127813022Y-120589433D01*
X127812480Y-120589856D01*
X127794218Y-120601008D01*
X127778918Y-120605626D01*
X127778557Y-120605620D01*
X127763028Y-120600728D01*
X127744813Y-120589433D01*
X127724227Y-120573239D01*
X127724227Y-120354305D01*
X127724227Y-120135370D01*
X127769151Y-120088709D01*
X127775890Y-120081658D01*
X127795841Y-120060121D01*
X127810360Y-120043440D01*
X127816680Y-120034756D01*
X127817276Y-120033425D01*
X127826447Y-120027465D01*
X127827526Y-120030038D01*
G37*
G36*
X127994895Y-119530762D02*
G01*
X128000012Y-119538015D01*
X128012034Y-119552868D01*
X128019448Y-119558860D01*
X128028809Y-119563169D01*
X128043863Y-119573514D01*
X128062699Y-119587995D01*
X128038233Y-119618265D01*
X128037678Y-119618952D01*
X128019070Y-119641868D01*
X127992463Y-119674506D01*
X127959704Y-119714607D01*
X127922642Y-119759913D01*
X127883125Y-119808165D01*
X127843002Y-119857105D01*
X127804122Y-119904475D01*
X127768332Y-119948016D01*
X127722470Y-120003803D01*
X127661883Y-120077642D01*
X127607220Y-120144433D01*
X127559838Y-120202519D01*
X127521089Y-120250244D01*
X127521087Y-120250248D01*
X127480564Y-120300021D01*
X127448089Y-120338948D01*
X127422110Y-120368512D01*
X127401074Y-120390197D01*
X127383430Y-120405486D01*
X127367627Y-120415863D01*
X127352111Y-120422810D01*
X127335332Y-120427812D01*
X127315294Y-120432541D01*
X127295627Y-120436337D01*
X127286361Y-120436955D01*
X127284934Y-120431125D01*
X127284837Y-120413517D01*
X127286531Y-120388625D01*
X127290947Y-120342437D01*
X127423949Y-120182998D01*
X127455476Y-120145120D01*
X127491119Y-120102091D01*
X127523439Y-120062860D01*
X127550758Y-120029472D01*
X127571398Y-120003970D01*
X127583680Y-119988400D01*
X127594885Y-119974119D01*
X127619167Y-119944866D01*
X127642793Y-119918083D01*
X127644637Y-119916048D01*
X127659265Y-119899038D01*
X127681592Y-119872255D01*
X127709949Y-119837768D01*
X127742669Y-119797646D01*
X127778082Y-119753955D01*
X127814520Y-119708765D01*
X127850314Y-119664144D01*
X127883796Y-119622161D01*
X127913298Y-119584882D01*
X127937150Y-119554378D01*
X127953684Y-119532715D01*
X127975920Y-119502838D01*
X127994895Y-119530762D01*
G37*
G36*
X123741426Y-119611105D02*
G01*
X123741931Y-119634843D01*
X123742651Y-119678434D01*
X123743391Y-119732937D01*
X123744120Y-119795647D01*
X123744807Y-119863860D01*
X123745421Y-119934872D01*
X123745931Y-120005979D01*
X123745949Y-120008921D01*
X123746232Y-120073965D01*
X123746258Y-120133736D01*
X123746043Y-120186508D01*
X123745606Y-120230557D01*
X123744961Y-120264156D01*
X123744128Y-120285581D01*
X123743122Y-120293106D01*
X123740883Y-120292079D01*
X123728670Y-120283571D01*
X123708834Y-120268318D01*
X123684353Y-120248577D01*
X123630225Y-120204047D01*
X123630225Y-119886037D01*
X123630225Y-119568028D01*
X123654228Y-119559660D01*
X123661665Y-119556587D01*
X123685005Y-119543701D01*
X123708492Y-119527326D01*
X123738753Y-119503358D01*
X123741426Y-119611105D01*
G37*
G36*
X122833735Y-119959163D02*
G01*
X122851606Y-119971422D01*
X122879124Y-119994962D01*
X122916485Y-120029955D01*
X122963889Y-120076575D01*
X122975143Y-120087839D01*
X123012092Y-120125104D01*
X123039584Y-120153588D01*
X123058995Y-120174985D01*
X123071698Y-120190985D01*
X123079069Y-120203281D01*
X123082484Y-120213565D01*
X123083316Y-120223528D01*
X123082111Y-120238955D01*
X123071855Y-120264982D01*
X123052064Y-120279871D01*
X123045844Y-120282000D01*
X123033942Y-120283613D01*
X123019827Y-120278884D01*
X123016520Y-120277009D01*
X123001651Y-120265470D01*
X122979212Y-120245867D01*
X122951326Y-120220267D01*
X122920114Y-120190738D01*
X122887698Y-120159350D01*
X122856200Y-120128171D01*
X122827741Y-120099267D01*
X122804445Y-120074709D01*
X122788432Y-120056564D01*
X122781824Y-120046899D01*
X122781451Y-120039353D01*
X122785475Y-120018534D01*
X122794220Y-119994162D01*
X122803022Y-119976319D01*
X122814750Y-119961471D01*
X122827528Y-119957148D01*
X122833735Y-119959163D01*
G37*
G36*
X127819144Y-119496214D02*
G01*
X127846397Y-119496869D01*
X127865483Y-119498199D01*
X127872673Y-119499973D01*
X127872474Y-119500457D01*
X127865931Y-119509573D01*
X127851231Y-119528496D01*
X127829860Y-119555354D01*
X127803307Y-119588274D01*
X127773058Y-119625386D01*
X127727495Y-119681114D01*
X127671750Y-119749494D01*
X127611805Y-119823194D01*
X127550012Y-119899313D01*
X127488723Y-119974952D01*
X127430290Y-120047211D01*
X127377064Y-120113190D01*
X127331397Y-120169988D01*
X127308895Y-120197823D01*
X127283571Y-120228110D01*
X127264742Y-120248757D01*
X127250707Y-120261437D01*
X127239762Y-120267828D01*
X127230205Y-120269604D01*
X127225511Y-120269482D01*
X127211135Y-120264304D01*
X127204272Y-120248182D01*
X127199851Y-120230856D01*
X127192877Y-120209789D01*
X127192722Y-120209394D01*
X127191468Y-120200415D01*
X127195090Y-120188879D01*
X127204955Y-120172495D01*
X127222429Y-120148976D01*
X127248880Y-120116033D01*
X127252705Y-120111348D01*
X127275816Y-120082926D01*
X127306408Y-120045173D01*
X127342584Y-120000435D01*
X127382449Y-119951057D01*
X127424108Y-119899386D01*
X127465665Y-119847766D01*
X127474052Y-119837342D01*
X127515972Y-119785268D01*
X127557736Y-119733434D01*
X127597418Y-119684229D01*
X127633091Y-119640041D01*
X127662829Y-119603257D01*
X127684706Y-119576265D01*
X127749763Y-119496182D01*
X127811218Y-119496182D01*
X127819144Y-119496214D01*
G37*
G36*
X125917157Y-119285234D02*
G01*
X126013012Y-119285303D01*
X126094648Y-119285485D01*
X126163189Y-119285806D01*
X126219758Y-119286292D01*
X126265479Y-119286970D01*
X126301477Y-119287866D01*
X126328875Y-119289006D01*
X126348798Y-119290416D01*
X126362369Y-119292123D01*
X126370712Y-119294152D01*
X126374951Y-119296531D01*
X126381231Y-119303553D01*
X126397919Y-119323723D01*
X126423522Y-119355576D01*
X126457705Y-119398687D01*
X126500134Y-119452628D01*
X126550474Y-119516974D01*
X126608388Y-119591298D01*
X126673544Y-119675174D01*
X126745604Y-119768177D01*
X126748063Y-119771351D01*
X126777581Y-119809194D01*
X126807868Y-119847599D01*
X126835498Y-119882245D01*
X126857047Y-119908810D01*
X126861426Y-119914143D01*
X126884954Y-119943218D01*
X126906993Y-119971066D01*
X126923277Y-119992307D01*
X126932197Y-120003920D01*
X126954466Y-120031112D01*
X126976809Y-120056612D01*
X127007144Y-120089666D01*
X127088949Y-119986296D01*
X127097877Y-119975000D01*
X127134168Y-119928862D01*
X127173105Y-119879081D01*
X127210558Y-119830944D01*
X127242400Y-119789738D01*
X127247744Y-119782804D01*
X127278339Y-119743600D01*
X127309708Y-119704114D01*
X127338452Y-119668595D01*
X127361172Y-119641291D01*
X127368292Y-119632902D01*
X127393546Y-119602606D01*
X127417222Y-119573494D01*
X127434985Y-119550873D01*
X127445078Y-119537778D01*
X127464929Y-119512400D01*
X127490598Y-119479839D01*
X127519872Y-119442897D01*
X127550541Y-119404380D01*
X127639409Y-119293045D01*
X127792111Y-119293045D01*
X127944813Y-119293045D01*
X127939416Y-119310624D01*
X127937951Y-119316090D01*
X127933558Y-119338274D01*
X127929788Y-119364377D01*
X127927509Y-119381619D01*
X127922738Y-119395368D01*
X127912031Y-119401694D01*
X127890923Y-119405297D01*
X127880245Y-119406314D01*
X127851111Y-119407334D01*
X127814742Y-119407170D01*
X127776586Y-119405798D01*
X127696881Y-119401552D01*
X127593315Y-119532857D01*
X127593001Y-119533256D01*
X127557281Y-119578589D01*
X127520258Y-119625659D01*
X127484678Y-119670965D01*
X127453291Y-119711009D01*
X127428843Y-119742291D01*
X127379128Y-119806026D01*
X127317114Y-119885375D01*
X127263600Y-119953625D01*
X127217980Y-120011520D01*
X127179648Y-120059809D01*
X127147999Y-120099236D01*
X127122427Y-120130550D01*
X127102328Y-120154496D01*
X127087096Y-120171822D01*
X127076126Y-120183273D01*
X127068811Y-120189596D01*
X127064548Y-120191538D01*
X127051010Y-120189229D01*
X127031466Y-120183458D01*
X127028121Y-120182364D01*
X127004964Y-120179710D01*
X126977562Y-120186454D01*
X126970386Y-120189017D01*
X126951704Y-120195432D01*
X126941785Y-120198440D01*
X126941287Y-120198472D01*
X126936231Y-120195837D01*
X126927421Y-120187448D01*
X126913925Y-120172177D01*
X126894814Y-120148894D01*
X126869157Y-120116470D01*
X126836023Y-120073776D01*
X126794482Y-120019682D01*
X126777930Y-119998065D01*
X126731292Y-119937297D01*
X126690533Y-119884464D01*
X126652975Y-119836126D01*
X126615937Y-119788845D01*
X126576740Y-119739180D01*
X126532704Y-119683694D01*
X126531558Y-119682253D01*
X126498162Y-119639924D01*
X126460138Y-119591247D01*
X126422078Y-119542126D01*
X126388576Y-119498465D01*
X126378013Y-119484626D01*
X126352651Y-119451906D01*
X126333859Y-119429114D01*
X126319593Y-119414300D01*
X126307810Y-119405515D01*
X126296466Y-119400808D01*
X126283516Y-119398229D01*
X126282868Y-119398142D01*
X126267420Y-119397273D01*
X126238154Y-119396612D01*
X126196729Y-119396164D01*
X126144806Y-119395932D01*
X126084043Y-119395921D01*
X126016100Y-119396134D01*
X125942636Y-119396574D01*
X125865311Y-119397247D01*
X125855483Y-119397344D01*
X125779276Y-119397947D01*
X125707662Y-119398266D01*
X125642216Y-119398308D01*
X125584516Y-119398085D01*
X125536136Y-119397606D01*
X125498653Y-119396881D01*
X125473643Y-119395920D01*
X125462681Y-119394732D01*
X125458197Y-119392487D01*
X125446158Y-119377956D01*
X125437092Y-119350460D01*
X125434140Y-119338177D01*
X125427878Y-119314446D01*
X125423016Y-119298905D01*
X125422530Y-119296807D01*
X125423638Y-119294286D01*
X125427841Y-119292160D01*
X125436277Y-119290394D01*
X125450086Y-119288955D01*
X125470407Y-119287811D01*
X125498379Y-119286927D01*
X125535142Y-119286270D01*
X125581835Y-119285807D01*
X125639597Y-119285506D01*
X125709567Y-119285331D01*
X125792885Y-119285251D01*
X125890689Y-119285232D01*
X125917157Y-119285234D01*
G37*
G36*
X123424736Y-119520281D02*
G01*
X123436499Y-119526987D01*
X123454345Y-119538590D01*
X123459458Y-119541903D01*
X123483822Y-119554832D01*
X123505477Y-119562650D01*
X123528656Y-119567741D01*
X123530237Y-119830808D01*
X123530501Y-119872330D01*
X123530951Y-119934579D01*
X123531429Y-119991893D01*
X123531914Y-120042134D01*
X123532385Y-120083163D01*
X123532821Y-120112842D01*
X123533199Y-120129034D01*
X123533444Y-120138954D01*
X123532914Y-120159320D01*
X123531073Y-120170189D01*
X123530573Y-120170917D01*
X123527049Y-120172070D01*
X123519886Y-120168751D01*
X123507036Y-120159525D01*
X123486454Y-120142958D01*
X123456091Y-120117613D01*
X123419274Y-120086660D01*
X123419274Y-119803141D01*
X123419369Y-119738377D01*
X123419637Y-119678770D01*
X123420059Y-119626107D01*
X123420611Y-119582124D01*
X123421272Y-119548558D01*
X123422020Y-119527145D01*
X123422834Y-119519621D01*
X123424736Y-119520281D01*
G37*
G36*
X122601957Y-119698458D02*
G01*
X122788485Y-119885108D01*
X122783241Y-119913064D01*
X122782814Y-119915194D01*
X122775588Y-119937312D01*
X122766026Y-119952991D01*
X122758996Y-119959362D01*
X122750885Y-119963994D01*
X122741586Y-119965059D01*
X122730006Y-119961722D01*
X122715051Y-119953151D01*
X122695628Y-119938512D01*
X122670642Y-119916973D01*
X122638999Y-119887699D01*
X122599607Y-119849859D01*
X122551370Y-119802617D01*
X122493197Y-119745142D01*
X122476246Y-119728329D01*
X122429069Y-119681190D01*
X122386125Y-119637772D01*
X122348567Y-119599277D01*
X122317553Y-119566907D01*
X122294238Y-119541864D01*
X122279777Y-119525350D01*
X122275325Y-119518566D01*
X122277374Y-119517275D01*
X122291789Y-119514478D01*
X122316433Y-119512536D01*
X122347465Y-119511808D01*
X122415429Y-119511808D01*
X122601957Y-119698458D01*
G37*
G36*
X122094754Y-119365639D02*
G01*
X122093880Y-119397540D01*
X122090316Y-119421228D01*
X122082580Y-119443083D01*
X122069190Y-119469484D01*
X122056415Y-119490418D01*
X122019054Y-119533776D01*
X121973998Y-119566876D01*
X121924524Y-119587053D01*
X121880947Y-119594167D01*
X121823935Y-119591637D01*
X121770979Y-119576470D01*
X121723718Y-119550223D01*
X121683792Y-119514456D01*
X121652839Y-119470724D01*
X121632499Y-119420586D01*
X121625628Y-119373877D01*
X121759066Y-119373877D01*
X121768131Y-119405314D01*
X121786830Y-119431827D01*
X121815078Y-119449826D01*
X121842286Y-119457443D01*
X121881842Y-119457996D01*
X121915812Y-119445459D01*
X121942142Y-119420761D01*
X121958777Y-119384831D01*
X121962759Y-119363811D01*
X121960480Y-119344642D01*
X121950531Y-119320591D01*
X121947645Y-119314964D01*
X121923283Y-119284215D01*
X121891549Y-119266856D01*
X121853687Y-119263302D01*
X121810940Y-119273968D01*
X121790518Y-119285932D01*
X121770175Y-119310595D01*
X121759719Y-119341107D01*
X121759066Y-119373877D01*
X121625628Y-119373877D01*
X121624410Y-119365601D01*
X121630212Y-119307325D01*
X121632694Y-119297336D01*
X121654303Y-119245689D01*
X121687383Y-119202143D01*
X121729717Y-119167831D01*
X121779089Y-119143884D01*
X121833280Y-119131433D01*
X121890075Y-119131608D01*
X121947257Y-119145542D01*
X121992973Y-119168287D01*
X122036741Y-119205561D01*
X122071788Y-119255515D01*
X122083100Y-119278021D01*
X122090370Y-119299804D01*
X122093800Y-119324904D01*
X122094743Y-119359455D01*
X122094751Y-119363811D01*
X122094754Y-119365639D01*
G37*
G36*
X128441046Y-119387332D02*
G01*
X128427209Y-119440012D01*
X128400968Y-119488284D01*
X128363031Y-119529798D01*
X128314107Y-119562205D01*
X128295246Y-119570748D01*
X128272422Y-119577555D01*
X128245454Y-119580871D01*
X128208632Y-119581755D01*
X128205899Y-119581754D01*
X128171064Y-119580928D01*
X128145582Y-119577769D01*
X128123596Y-119571097D01*
X128099250Y-119559733D01*
X128086364Y-119552534D01*
X128043764Y-119518343D01*
X128011734Y-119475340D01*
X127990812Y-119426126D01*
X127981533Y-119373301D01*
X127982406Y-119357114D01*
X128114905Y-119357114D01*
X128116190Y-119369866D01*
X128125560Y-119398102D01*
X128141113Y-119423657D01*
X128159382Y-119440068D01*
X128187403Y-119450390D01*
X128223969Y-119452019D01*
X128257398Y-119441497D01*
X128284822Y-119420469D01*
X128303378Y-119390580D01*
X128310200Y-119353474D01*
X128310194Y-119351924D01*
X128307687Y-119330983D01*
X128298586Y-119313088D01*
X128279868Y-119292126D01*
X128276212Y-119288509D01*
X128256469Y-119271639D01*
X128238826Y-119263747D01*
X128216976Y-119261793D01*
X128209916Y-119261963D01*
X128170802Y-119270263D01*
X128140823Y-119289921D01*
X128121638Y-119319388D01*
X128114905Y-119357114D01*
X127982406Y-119357114D01*
X127984436Y-119319465D01*
X128000057Y-119267220D01*
X128028933Y-119219165D01*
X128030792Y-119216850D01*
X128072302Y-119178067D01*
X128123991Y-119150927D01*
X128185311Y-119135722D01*
X128219539Y-119133122D01*
X128277602Y-119139636D01*
X128329568Y-119160195D01*
X128374352Y-119194289D01*
X128410871Y-119241411D01*
X128428671Y-119278143D01*
X128441770Y-119332593D01*
X128441494Y-119353474D01*
X128441046Y-119387332D01*
G37*
G36*
X125380289Y-119346864D02*
G01*
X125379467Y-119372436D01*
X125376596Y-119403616D01*
X125372383Y-119426824D01*
X125358219Y-119458236D01*
X125330918Y-119493447D01*
X125295088Y-119525427D01*
X125254357Y-119550997D01*
X125212354Y-119566981D01*
X125154957Y-119574174D01*
X125099490Y-119567669D01*
X125049226Y-119548412D01*
X125005992Y-119517707D01*
X124971612Y-119476861D01*
X124947913Y-119427176D01*
X124936719Y-119369959D01*
X124935395Y-119340516D01*
X125065009Y-119340516D01*
X125065823Y-119374417D01*
X125078362Y-119405732D01*
X125100774Y-119429051D01*
X125127283Y-119441535D01*
X125160363Y-119445535D01*
X125191616Y-119438708D01*
X125218746Y-119423009D01*
X125239458Y-119400388D01*
X125251455Y-119372798D01*
X125252443Y-119342192D01*
X125240126Y-119310523D01*
X125232240Y-119299544D01*
X125205011Y-119276589D01*
X125173216Y-119265437D01*
X125140198Y-119265692D01*
X125109301Y-119276960D01*
X125083866Y-119298844D01*
X125067237Y-119330951D01*
X125065009Y-119340516D01*
X124935395Y-119340516D01*
X124935371Y-119339990D01*
X124937445Y-119317086D01*
X124944414Y-119294779D01*
X124957707Y-119265987D01*
X124967421Y-119247868D01*
X125003237Y-119200140D01*
X125047131Y-119165330D01*
X125098213Y-119144018D01*
X125155595Y-119136785D01*
X125169234Y-119137123D01*
X125227224Y-119146708D01*
X125278181Y-119168397D01*
X125320536Y-119200725D01*
X125352718Y-119242224D01*
X125373159Y-119291426D01*
X125379688Y-119342192D01*
X125380289Y-119346864D01*
G37*
G36*
X123735899Y-119409114D02*
G01*
X123711865Y-119450591D01*
X123676517Y-119484845D01*
X123630930Y-119509388D01*
X123597092Y-119516833D01*
X123552948Y-119516835D01*
X123508545Y-119508617D01*
X123470325Y-119492845D01*
X123448180Y-119477257D01*
X123416321Y-119441437D01*
X123395993Y-119398498D01*
X123387926Y-119351373D01*
X123389437Y-119336517D01*
X123493617Y-119336517D01*
X123495298Y-119364005D01*
X123511172Y-119388278D01*
X123540732Y-119406986D01*
X123556913Y-119413511D01*
X123572101Y-119417021D01*
X123585415Y-119413651D01*
X123604135Y-119402936D01*
X123623462Y-119387404D01*
X123635525Y-119363216D01*
X123634114Y-119332029D01*
X123633786Y-119330611D01*
X123620425Y-119304218D01*
X123597836Y-119286301D01*
X123570239Y-119278148D01*
X123541854Y-119281044D01*
X123516899Y-119296278D01*
X123506635Y-119308169D01*
X123493617Y-119336517D01*
X123389437Y-119336517D01*
X123392848Y-119302992D01*
X123411490Y-119256289D01*
X123419645Y-119243360D01*
X123452839Y-119207469D01*
X123492929Y-119183179D01*
X123537318Y-119170352D01*
X123583406Y-119168850D01*
X123628597Y-119178536D01*
X123670292Y-119199271D01*
X123705892Y-119230918D01*
X123732801Y-119273339D01*
X123745730Y-119314442D01*
X123747545Y-119362902D01*
X123747466Y-119363216D01*
X123735899Y-119409114D01*
G37*
G36*
X124493008Y-119289153D02*
G01*
X124581052Y-119289244D01*
X124655325Y-119289445D01*
X124716949Y-119289783D01*
X124767045Y-119290287D01*
X124806737Y-119290986D01*
X124837146Y-119291907D01*
X124859396Y-119293081D01*
X124874606Y-119294534D01*
X124883901Y-119296295D01*
X124888402Y-119298394D01*
X124889232Y-119300858D01*
X124888713Y-119303261D01*
X124885803Y-119320778D01*
X124882729Y-119343829D01*
X124882021Y-119349540D01*
X124878818Y-119371172D01*
X124875997Y-119384847D01*
X124872890Y-119386798D01*
X124863037Y-119388667D01*
X124845490Y-119390236D01*
X124819258Y-119391526D01*
X124783348Y-119392558D01*
X124736771Y-119393355D01*
X124678533Y-119393938D01*
X124607645Y-119394328D01*
X124523114Y-119394546D01*
X124423949Y-119394614D01*
X124357763Y-119394548D01*
X124279165Y-119394292D01*
X124206428Y-119393859D01*
X124140946Y-119393269D01*
X124084116Y-119392539D01*
X124037331Y-119391688D01*
X124001986Y-119390736D01*
X123979478Y-119389699D01*
X123971200Y-119388598D01*
X123969347Y-119381181D01*
X123967056Y-119361792D01*
X123965318Y-119335860D01*
X123963154Y-119289138D01*
X124427588Y-119289138D01*
X124493008Y-119289153D01*
G37*
%TD*%
M02*
