%TF.GenerationSoftware,KiCad,Pcbnew,10.0.3*%
%TF.CreationDate,2026-06-11T21:57:58+05:30*%
%TF.ProjectId,CapProbe,43617050-726f-4626-952e-6b696361645f,rev?*%
%TF.SameCoordinates,Original*%
%TF.FileFunction,Soldermask,Top*%
%TF.FilePolarity,Negative*%
%FSLAX46Y46*%
G04 Gerber Fmt 4.6, Leading zero omitted, Abs format (unit mm)*
G04 Created by KiCad (PCBNEW 10.0.3) date 2026-06-11 21:57:58*
%MOMM*%
%LPD*%
G01*
G04 APERTURE LIST*
G04 Aperture macros list*
%AMRoundRect*
0 Rectangle with rounded corners*
0 $1 Rounding radius*
0 $2 $3 $4 $5 $6 $7 $8 $9 X,Y pos of 4 corners*
0 Add a 4 corners polygon primitive as box body*
4,1,4,$2,$3,$4,$5,$6,$7,$8,$9,$2,$3,0*
0 Add four circle primitives for the rounded corners*
1,1,$1+$1,$2,$3*
1,1,$1+$1,$4,$5*
1,1,$1+$1,$6,$7*
1,1,$1+$1,$8,$9*
0 Add four rect primitives between the rounded corners*
20,1,$1+$1,$2,$3,$4,$5,0*
20,1,$1+$1,$4,$5,$6,$7,0*
20,1,$1+$1,$6,$7,$8,$9,0*
20,1,$1+$1,$8,$9,$2,$3,0*%
G04 Aperture macros list end*
%ADD10R,1.700000X1.700000*%
%ADD11C,1.700000*%
%ADD12C,4.400000*%
%ADD13R,1.050000X1.500000*%
%ADD14O,1.050000X1.500000*%
%ADD15RoundRect,0.375000X-0.625000X-0.375000X0.625000X-0.375000X0.625000X0.375000X-0.625000X0.375000X0*%
%ADD16RoundRect,0.500000X-0.500000X-1.400000X0.500000X-1.400000X0.500000X1.400000X-0.500000X1.400000X0*%
%ADD17RoundRect,0.250000X0.350000X0.450000X-0.350000X0.450000X-0.350000X-0.450000X0.350000X-0.450000X0*%
%ADD18RoundRect,0.250000X-0.550000X0.550000X-0.550000X-0.550000X0.550000X-0.550000X0.550000X0.550000X0*%
%ADD19C,1.600000*%
%ADD20RoundRect,0.150000X0.150000X-0.587500X0.150000X0.587500X-0.150000X0.587500X-0.150000X-0.587500X0*%
%ADD21RoundRect,0.250000X-0.450000X0.350000X-0.450000X-0.350000X0.450000X-0.350000X0.450000X0.350000X0*%
%ADD22RoundRect,0.250000X-0.337500X-0.475000X0.337500X-0.475000X0.337500X0.475000X-0.337500X0.475000X0*%
%ADD23RoundRect,0.250000X-0.475000X0.337500X-0.475000X-0.337500X0.475000X-0.337500X0.475000X0.337500X0*%
%ADD24RoundRect,0.250000X0.450000X-0.350000X0.450000X0.350000X-0.450000X0.350000X-0.450000X-0.350000X0*%
%ADD25RoundRect,0.250000X-0.550000X-0.550000X0.550000X-0.550000X0.550000X0.550000X-0.550000X0.550000X0*%
%ADD26RoundRect,0.225000X0.375000X-0.225000X0.375000X0.225000X-0.375000X0.225000X-0.375000X-0.225000X0*%
%ADD27C,2.600000*%
%ADD28RoundRect,0.250000X0.475000X-0.337500X0.475000X0.337500X-0.475000X0.337500X-0.475000X-0.337500X0*%
%ADD29RoundRect,0.650000X-0.650000X0.650000X-0.650000X-0.650000X0.650000X-0.650000X0.650000X0.650000X0*%
%ADD30RoundRect,0.250000X-0.350000X-0.450000X0.350000X-0.450000X0.350000X0.450000X-0.350000X0.450000X0*%
%ADD31RoundRect,0.150000X-0.825000X-0.150000X0.825000X-0.150000X0.825000X0.150000X-0.825000X0.150000X0*%
%ADD32R,1.800000X1.800000*%
%ADD33C,1.800000*%
%ADD34RoundRect,0.150000X-0.512500X-0.150000X0.512500X-0.150000X0.512500X0.150000X-0.512500X0.150000X0*%
%ADD35C,2.200000*%
%ADD36RoundRect,0.250000X-0.325000X-0.450000X0.325000X-0.450000X0.325000X0.450000X-0.325000X0.450000X0*%
%ADD37RoundRect,0.225000X0.225000X0.375000X-0.225000X0.375000X-0.225000X-0.375000X0.225000X-0.375000X0*%
%ADD38RoundRect,0.102000X0.754000X-0.754000X0.754000X0.754000X-0.754000X0.754000X-0.754000X-0.754000X0*%
%ADD39C,1.712000*%
G04 APERTURE END LIST*
D10*
%TO.C,J3*%
X126475000Y-117400000D03*
D11*
X126475000Y-114860000D03*
X126475000Y-112320000D03*
X126475000Y-109780000D03*
X126475000Y-107240000D03*
X126475000Y-104700000D03*
X126475000Y-102160000D03*
X126475000Y-99620000D03*
X126475000Y-97080000D03*
X126475000Y-94540000D03*
%TD*%
D12*
%TO.C,H4*%
X134000000Y-122500000D03*
%TD*%
D13*
%TO.C,Q6*%
X111460000Y-74500000D03*
D14*
X112730000Y-74500000D03*
X114000000Y-74500000D03*
%TD*%
D15*
%TO.C,U1*%
X41850000Y-107700000D03*
X41850000Y-110000000D03*
D16*
X48150000Y-110000000D03*
D15*
X41850000Y-112300000D03*
%TD*%
D17*
%TO.C,R8*%
X61000000Y-70000000D03*
X59000000Y-70000000D03*
%TD*%
D18*
%TO.C,D6*%
X111000000Y-62000000D03*
D19*
X111000000Y-69620000D03*
%TD*%
D20*
%TO.C,Q1*%
X51550000Y-81937500D03*
X53450000Y-81937500D03*
X52500000Y-80062500D03*
%TD*%
D21*
%TO.C,R1*%
X39000000Y-72500000D03*
X39000000Y-74500000D03*
%TD*%
D22*
%TO.C,C4*%
X43712500Y-86000000D03*
X45787500Y-86000000D03*
%TD*%
D21*
%TO.C,R13*%
X63000000Y-76000000D03*
X63000000Y-78000000D03*
%TD*%
D22*
%TO.C,C10*%
X123925000Y-86000000D03*
X126000000Y-86000000D03*
%TD*%
D17*
%TO.C,R23*%
X127500000Y-89000000D03*
X125500000Y-89000000D03*
%TD*%
D21*
%TO.C,R11*%
X59500000Y-76000000D03*
X59500000Y-78000000D03*
%TD*%
%TO.C,R15*%
X106000000Y-73000000D03*
X106000000Y-75000000D03*
%TD*%
D20*
%TO.C,Q2*%
X55050000Y-81937500D03*
X56950000Y-81937500D03*
X56000000Y-80062500D03*
%TD*%
D23*
%TO.C,C5*%
X51000000Y-106962500D03*
X51000000Y-109037500D03*
%TD*%
D24*
%TO.C,R20*%
X132500000Y-84000000D03*
X132500000Y-82000000D03*
%TD*%
D25*
%TO.C,C6*%
X49500000Y-64000000D03*
D19*
X52000000Y-64000000D03*
%TD*%
D13*
%TO.C,Q5*%
X86230000Y-74500000D03*
D14*
X87500000Y-74500000D03*
X88770000Y-74500000D03*
%TD*%
D18*
%TO.C,D4*%
X86000000Y-62190000D03*
D19*
X86000000Y-69810000D03*
%TD*%
D21*
%TO.C,R12*%
X61600000Y-84000000D03*
X61600000Y-86000000D03*
%TD*%
D17*
%TO.C,R21*%
X130000000Y-86000000D03*
X128000000Y-86000000D03*
%TD*%
D26*
%TO.C,D7*%
X129000000Y-80150000D03*
X129000000Y-76850000D03*
%TD*%
D27*
%TO.C,L1*%
X66500000Y-63000000D03*
X66500000Y-68000000D03*
%TD*%
D28*
%TO.C,C12*%
X123475000Y-101897500D03*
X123475000Y-99822500D03*
%TD*%
D29*
%TO.C,TP1*%
X80500000Y-70960000D03*
D27*
X80500000Y-76040000D03*
%TD*%
D30*
%TO.C,R2*%
X38750000Y-83750000D03*
X40750000Y-83750000D03*
%TD*%
D22*
%TO.C,C7*%
X53462500Y-68000000D03*
X55537500Y-68000000D03*
%TD*%
D23*
%TO.C,C3*%
X38500000Y-106962500D03*
X38500000Y-109037500D03*
%TD*%
D31*
%TO.C,U2*%
X55525000Y-62095000D03*
X55525000Y-63365000D03*
X55525000Y-64635000D03*
X55525000Y-65905000D03*
X60475000Y-65905000D03*
X60475000Y-64635000D03*
X60475000Y-63365000D03*
X60475000Y-62095000D03*
%TD*%
D32*
%TO.C,D5*%
X103770000Y-74000000D03*
D33*
X101230000Y-74000000D03*
%TD*%
D21*
%TO.C,R6*%
X52500000Y-76000000D03*
X52500000Y-78000000D03*
%TD*%
%TO.C,R18*%
X129500000Y-72500000D03*
X129500000Y-74500000D03*
%TD*%
D17*
%TO.C,R3*%
X42500000Y-76500000D03*
X40500000Y-76500000D03*
%TD*%
D21*
%TO.C,R19*%
X125500000Y-72500000D03*
X125500000Y-74500000D03*
%TD*%
D30*
%TO.C,R17*%
X124000000Y-84000000D03*
X126000000Y-84000000D03*
%TD*%
D21*
%TO.C,R10*%
X58500000Y-84000000D03*
X58500000Y-86000000D03*
%TD*%
D30*
%TO.C,R4*%
X43750000Y-84000000D03*
X45750000Y-84000000D03*
%TD*%
D34*
%TO.C,U4*%
X127962500Y-82100000D03*
X127962500Y-83050000D03*
X127962500Y-84000000D03*
X130237500Y-84000000D03*
X130237500Y-82100000D03*
%TD*%
D28*
%TO.C,C1*%
X131475000Y-95397500D03*
X131475000Y-93322500D03*
%TD*%
D35*
%TO.C,K1*%
X102000000Y-62000000D03*
X100500000Y-69620000D03*
X104540000Y-69620000D03*
D32*
X89300000Y-69620000D03*
D33*
X89300000Y-62000000D03*
%TD*%
D10*
%TO.C,J1*%
X70500000Y-90460000D03*
D11*
X70500000Y-93000000D03*
X70500000Y-95540000D03*
X70500000Y-98080000D03*
X70500000Y-100620000D03*
%TD*%
D36*
%TO.C,F1*%
X42975000Y-67000000D03*
X45025000Y-67000000D03*
%TD*%
D21*
%TO.C,R14*%
X77500000Y-72500000D03*
X77500000Y-74500000D03*
%TD*%
D20*
%TO.C,Q4*%
X62100000Y-82000000D03*
X64000000Y-82000000D03*
X63050000Y-80125000D03*
%TD*%
D25*
%TO.C,C8*%
X72294888Y-62500000D03*
D19*
X74794888Y-62500000D03*
%TD*%
D12*
%TO.C,H3*%
X40000000Y-122500000D03*
%TD*%
D37*
%TO.C,D1*%
X42650000Y-81500000D03*
X39350000Y-81500000D03*
%TD*%
D28*
%TO.C,C11*%
X131500000Y-80037500D03*
X131500000Y-77962500D03*
%TD*%
D17*
%TO.C,R16*%
X88500000Y-78000000D03*
X86500000Y-78000000D03*
%TD*%
D19*
%TO.C,C9*%
X76900000Y-66500000D03*
X81900000Y-66500000D03*
%TD*%
D20*
%TO.C,Q3*%
X58550000Y-81937500D03*
X60450000Y-81937500D03*
X59500000Y-80062500D03*
%TD*%
D37*
%TO.C,D2*%
X42650000Y-79000000D03*
X39350000Y-79000000D03*
%TD*%
D21*
%TO.C,R5*%
X52300000Y-84000000D03*
X52300000Y-86000000D03*
%TD*%
D10*
%TO.C,BT1*%
X39525000Y-67250000D03*
D11*
X39525000Y-69790000D03*
%TD*%
D12*
%TO.C,H2*%
X134000000Y-61000000D03*
%TD*%
%TO.C,H1*%
X40000000Y-61000000D03*
%TD*%
D10*
%TO.C,J2*%
X134475000Y-93320000D03*
D11*
X134475000Y-95860000D03*
X134475000Y-98400000D03*
X134475000Y-100940000D03*
%TD*%
D38*
%TO.C,U3*%
X40340000Y-88880000D03*
D39*
X42880000Y-88880000D03*
X45420000Y-88880000D03*
X47960000Y-88880000D03*
X50500000Y-88880000D03*
X53040000Y-88880000D03*
X55580000Y-88880000D03*
X58120000Y-88880000D03*
X60660000Y-88880000D03*
X60660000Y-91420000D03*
X60660000Y-93960000D03*
X60660000Y-96500000D03*
X60660000Y-99040000D03*
X60660000Y-101580000D03*
X60660000Y-104120000D03*
X58120000Y-104120000D03*
X55580000Y-104120000D03*
X53040000Y-104120000D03*
X50500000Y-104120000D03*
X47960000Y-104120000D03*
X45420000Y-104120000D03*
X42880000Y-104120000D03*
X40340000Y-104120000D03*
%TD*%
D37*
%TO.C,D3*%
X74650000Y-69000000D03*
X71350000Y-69000000D03*
%TD*%
D22*
%TO.C,C2*%
X38712500Y-85750000D03*
X40787500Y-85750000D03*
%TD*%
D21*
%TO.C,R9*%
X56000000Y-76000000D03*
X56000000Y-78000000D03*
%TD*%
D17*
%TO.C,R22*%
X113500000Y-79000000D03*
X111500000Y-79000000D03*
%TD*%
D35*
%TO.C,K2*%
X126902500Y-62137500D03*
X125402500Y-69757500D03*
X129442500Y-69757500D03*
D32*
X114202500Y-69757500D03*
D33*
X114202500Y-62137500D03*
%TD*%
D21*
%TO.C,R7*%
X55400000Y-84000000D03*
X55400000Y-86000000D03*
%TD*%
M02*
