G04 #@! TF.GenerationSoftware,KiCad,Pcbnew,9.0.6*
G04 #@! TF.CreationDate,2026-05-16T00:28:37+05:30*
G04 #@! TF.ProjectId,S7_Min,53375f4d-696e-42e6-9b69-6361645f7063,rev?*
G04 #@! TF.SameCoordinates,Original*
G04 #@! TF.FileFunction,Paste,Bot*
G04 #@! TF.FilePolarity,Positive*
%FSLAX46Y46*%
G04 Gerber Fmt 4.6, Leading zero omitted, Abs format (unit mm)*
G04 Created by KiCad (PCBNEW 9.0.6) date 2026-05-16 00:28:37*
%MOMM*%
%LPD*%
G01*
G04 APERTURE LIST*
G04 Aperture macros list*
%AMRoundRect*
0 Rectangle with rounded corners*
0 $1 Rounding radius*
0 $2 $3 $4 $5 $6 $7 $8 $9 X,Y pos of 4 corners*
0 Add a 4 corners polygon primitive as box body*
4,1,4,$2,$3,$4,$5,$6,$7,$8,$9,$2,$3,0*
0 Add four circle primitives for the rounded corners*
1,1,$1+$1,$2,$3*
1,1,$1+$1,$4,$5*
1,1,$1+$1,$6,$7*
1,1,$1+$1,$8,$9*
0 Add four rect primitives between the rounded corners*
20,1,$1+$1,$2,$3,$4,$5,0*
20,1,$1+$1,$4,$5,$6,$7,0*
20,1,$1+$1,$6,$7,$8,$9,0*
20,1,$1+$1,$8,$9,$2,$3,0*%
G04 Aperture macros list end*
%ADD10RoundRect,0.249999X0.450001X0.425001X-0.450001X0.425001X-0.450001X-0.425001X0.450001X-0.425001X0*%
%ADD11RoundRect,0.249999X-0.450001X-0.425001X0.450001X-0.425001X0.450001X0.425001X-0.450001X0.425001X0*%
%ADD12R,1.300000X0.700000*%
%ADD13RoundRect,0.075000X0.100000X-0.075000X0.100000X0.075000X-0.100000X0.075000X-0.100000X-0.075000X0*%
%ADD14RoundRect,0.147500X0.147500X0.172500X-0.147500X0.172500X-0.147500X-0.172500X0.147500X-0.172500X0*%
%ADD15RoundRect,0.147500X0.172500X-0.147500X0.172500X0.147500X-0.172500X0.147500X-0.172500X-0.147500X0*%
%ADD16R,2.000000X1.500000*%
%ADD17R,2.000000X3.800000*%
%ADD18RoundRect,0.147500X-0.147500X-0.172500X0.147500X-0.172500X0.147500X0.172500X-0.147500X0.172500X0*%
%ADD19R,0.700000X0.600000*%
%ADD20RoundRect,0.243750X-0.243750X-0.456250X0.243750X-0.456250X0.243750X0.456250X-0.243750X0.456250X0*%
%ADD21RoundRect,0.075000X-0.075000X-0.100000X0.075000X-0.100000X0.075000X0.100000X-0.075000X0.100000X0*%
%ADD22RoundRect,0.075000X0.075000X0.100000X-0.075000X0.100000X-0.075000X-0.100000X0.075000X-0.100000X0*%
%ADD23RoundRect,0.075000X-0.100000X0.075000X-0.100000X-0.075000X0.100000X-0.075000X0.100000X0.075000X0*%
%ADD24RoundRect,0.147500X-0.172500X0.147500X-0.172500X-0.147500X0.172500X-0.147500X0.172500X0.147500X0*%
%ADD25RoundRect,0.249999X-0.412501X-0.925001X0.412501X-0.925001X0.412501X0.925001X-0.412501X0.925001X0*%
%ADD26R,0.400000X0.500000*%
%ADD27R,0.300000X0.500000*%
G04 APERTURE END LIST*
D10*
X108250000Y-90600000D03*
X110950000Y-90600000D03*
D11*
X155850000Y-100500000D03*
X153150000Y-100500000D03*
X144550000Y-68500000D03*
X141850000Y-68500000D03*
D10*
X108250000Y-86600000D03*
X110950000Y-86600000D03*
D12*
X137000000Y-82250000D03*
X137000000Y-84150000D03*
X140000000Y-84300000D03*
X140000000Y-86200000D03*
D13*
X141000000Y-91700000D03*
X141000000Y-92300000D03*
D14*
X139015000Y-82200000D03*
X139985000Y-82200000D03*
D15*
X140700000Y-94515000D03*
X140700000Y-95485000D03*
D14*
X140515000Y-93500000D03*
X141485000Y-93500000D03*
D15*
X105200000Y-100915000D03*
X105200000Y-101885000D03*
X104200000Y-100915000D03*
X104200000Y-101885000D03*
X106200000Y-100915000D03*
X106200000Y-101885000D03*
D16*
X96350000Y-91000000D03*
X96350000Y-86400000D03*
X96350000Y-88700000D03*
D17*
X102650000Y-88700000D03*
D15*
X102600000Y-99515000D03*
X102600000Y-100485000D03*
D18*
X118685000Y-110300000D03*
X117715000Y-110300000D03*
X118685000Y-111700000D03*
X117715000Y-111700000D03*
X118685000Y-113300000D03*
X117715000Y-113300000D03*
X118685000Y-114700000D03*
X117715000Y-114700000D03*
X117385000Y-107000000D03*
X116415000Y-107000000D03*
D14*
X120215000Y-107500000D03*
X121185000Y-107500000D03*
D18*
X117385000Y-108000000D03*
X116415000Y-108000000D03*
D14*
X120215000Y-108500000D03*
X121185000Y-108500000D03*
D19*
X106200000Y-99300000D03*
X106200000Y-97900000D03*
D15*
X115000000Y-115015000D03*
X115000000Y-115985000D03*
D20*
X106537500Y-88700000D03*
X104662500Y-88700000D03*
X93837500Y-86400000D03*
X91962500Y-86400000D03*
D13*
X143050000Y-96700000D03*
X143050000Y-97300000D03*
D21*
X135300000Y-94900000D03*
X134700000Y-94900000D03*
X135300000Y-94100000D03*
X134700000Y-94100000D03*
D22*
X133700000Y-98100000D03*
X134300000Y-98100000D03*
D21*
X135300000Y-101000000D03*
X134700000Y-101000000D03*
D22*
X145700000Y-100000000D03*
X146300000Y-100000000D03*
D21*
X147300000Y-97000000D03*
X146700000Y-97000000D03*
X147300000Y-98000000D03*
X146700000Y-98000000D03*
D22*
X145700000Y-94000000D03*
X146300000Y-94000000D03*
D13*
X141950000Y-96700000D03*
X141950000Y-97300000D03*
D21*
X143300000Y-91950000D03*
X142700000Y-91950000D03*
D13*
X137950000Y-90700000D03*
X137950000Y-91300000D03*
D21*
X139300000Y-90950000D03*
X138700000Y-90950000D03*
X142300000Y-90950000D03*
X141700000Y-90950000D03*
D23*
X137950000Y-97300000D03*
X137950000Y-96700000D03*
X143050000Y-93300000D03*
X143050000Y-92700000D03*
D21*
X143300000Y-98050000D03*
X142700000Y-98050000D03*
D14*
X142515000Y-94800000D03*
X143485000Y-94800000D03*
D18*
X138485000Y-94200000D03*
X137515000Y-94200000D03*
D24*
X140800000Y-98485000D03*
X140800000Y-97515000D03*
X139400000Y-98385000D03*
X139400000Y-97415000D03*
D15*
X140800000Y-89515000D03*
X140800000Y-90485000D03*
D25*
X144737500Y-65500000D03*
X141662500Y-65500000D03*
D14*
X143615000Y-76300000D03*
X144585000Y-76300000D03*
X143615000Y-77465001D03*
X144585000Y-77465001D03*
D18*
X148385000Y-94000000D03*
X147415000Y-94000000D03*
X148385000Y-93000000D03*
X147415000Y-93000000D03*
D24*
X109900000Y-93800000D03*
X109900000Y-92830000D03*
X110900000Y-93800000D03*
X110900000Y-92830000D03*
D18*
X113485000Y-85500000D03*
X112515000Y-85500000D03*
D14*
X118250000Y-85500000D03*
X119220000Y-85500000D03*
D15*
X110000000Y-96280000D03*
X110000000Y-97250000D03*
D24*
X121500000Y-97485000D03*
X121500000Y-96515000D03*
D18*
X113470000Y-84500000D03*
X112500000Y-84500000D03*
D14*
X118280000Y-84500000D03*
X119250000Y-84500000D03*
D24*
X135500000Y-99085000D03*
X135500000Y-98115000D03*
D15*
X111000000Y-96280000D03*
X111000000Y-97250000D03*
D14*
X133515000Y-99000000D03*
X134485000Y-99000000D03*
D24*
X120500000Y-97485000D03*
X120500000Y-96515000D03*
D15*
X141500000Y-83265000D03*
X141500000Y-84235000D03*
D24*
X143500000Y-87585000D03*
X143500000Y-86615000D03*
D14*
X117715000Y-93200000D03*
X118685000Y-93200000D03*
D24*
X108900000Y-97300000D03*
X108900000Y-96330000D03*
D14*
X108930000Y-94800000D03*
X109900000Y-94800000D03*
D24*
X116400000Y-95085000D03*
X116400000Y-94115000D03*
D26*
X140650000Y-110900000D03*
D27*
X140150000Y-110900000D03*
D26*
X139150000Y-110900000D03*
D27*
X139650000Y-110900000D03*
D26*
X140650000Y-109900000D03*
D27*
X139650000Y-109900000D03*
X140150000Y-109900000D03*
D26*
X139150000Y-109900000D03*
X144500000Y-84250000D03*
D27*
X144000000Y-84250000D03*
D26*
X143000000Y-84250000D03*
D27*
X143500000Y-84250000D03*
D26*
X144500000Y-83250000D03*
D27*
X143500000Y-83250000D03*
X144000000Y-83250000D03*
D26*
X143000000Y-83250000D03*
M02*
