G04 #@! TF.GenerationSoftware,KiCad,Pcbnew,9.0.6*
G04 #@! TF.CreationDate,2026-05-16T00:28:37+05:30*
G04 #@! TF.ProjectId,S7_Min,53375f4d-696e-42e6-9b69-6361645f7063,rev?*
G04 #@! TF.SameCoordinates,Original*
G04 #@! TF.FileFunction,Paste,Top*
G04 #@! TF.FilePolarity,Positive*
%FSLAX46Y46*%
G04 Gerber Fmt 4.6, Leading zero omitted, Abs format (unit mm)*
G04 Created by KiCad (PCBNEW 9.0.6) date 2026-05-16 00:28:37*
%MOMM*%
%LPD*%
G01*
G04 APERTURE LIST*
G04 Aperture macros list*
%AMRoundRect*
0 Rectangle with rounded corners*
0 $1 Rounding radius*
0 $2 $3 $4 $5 $6 $7 $8 $9 X,Y pos of 4 corners*
0 Add a 4 corners polygon primitive as box body*
4,1,4,$2,$3,$4,$5,$6,$7,$8,$9,$2,$3,0*
0 Add four circle primitives for the rounded corners*
1,1,$1+$1,$2,$3*
1,1,$1+$1,$4,$5*
1,1,$1+$1,$6,$7*
1,1,$1+$1,$8,$9*
0 Add four rect primitives between the rounded corners*
20,1,$1+$1,$2,$3,$4,$5,0*
20,1,$1+$1,$4,$5,$6,$7,0*
20,1,$1+$1,$6,$7,$8,$9,0*
20,1,$1+$1,$8,$9,$2,$3,0*%
G04 Aperture macros list end*
%ADD10R,1.900000X0.300000*%
%ADD11R,1.600000X1.400000*%
%ADD12RoundRect,0.249999X-0.450001X-0.425001X0.450001X-0.425001X0.450001X0.425001X-0.450001X0.425001X0*%
%ADD13R,0.650000X0.400000*%
%ADD14RoundRect,0.147500X0.147500X0.172500X-0.147500X0.172500X-0.147500X-0.172500X0.147500X-0.172500X0*%
%ADD15RoundRect,0.147500X-0.147500X-0.172500X0.147500X-0.172500X0.147500X0.172500X-0.147500X0.172500X0*%
%ADD16RoundRect,0.249999X-0.325001X-0.450001X0.325001X-0.450001X0.325001X0.450001X-0.325001X0.450001X0*%
%ADD17R,0.800000X0.900000*%
%ADD18RoundRect,0.243750X0.243750X0.456250X-0.243750X0.456250X-0.243750X-0.456250X0.243750X-0.456250X0*%
%ADD19R,1.100000X0.285000*%
%ADD20R,1.300000X1.100000*%
%ADD21C,0.450000*%
%ADD22RoundRect,0.243750X-0.243750X-0.456250X0.243750X-0.456250X0.243750X0.456250X-0.243750X0.456250X0*%
%ADD23RoundRect,0.147500X-0.172500X0.147500X-0.172500X-0.147500X0.172500X-0.147500X0.172500X0.147500X0*%
%ADD24RoundRect,0.147500X0.172500X-0.147500X0.172500X0.147500X-0.172500X0.147500X-0.172500X-0.147500X0*%
%ADD25R,0.900000X1.200000*%
%ADD26R,1.000000X2.580000*%
%ADD27R,2.400000X4.200000*%
%ADD28R,0.900000X0.800000*%
%ADD29RoundRect,0.249999X-0.450001X0.325001X-0.450001X-0.325001X0.450001X-0.325001X0.450001X0.325001X0*%
%ADD30RoundRect,0.249999X0.450001X-0.325001X0.450001X0.325001X-0.450001X0.325001X-0.450001X-0.325001X0*%
%ADD31RoundRect,0.249999X0.325001X0.450001X-0.325001X0.450001X-0.325001X-0.450001X0.325001X-0.450001X0*%
%ADD32RoundRect,0.100000X-0.687500X-0.100000X0.687500X-0.100000X0.687500X0.100000X-0.687500X0.100000X0*%
%ADD33RoundRect,0.249999X-0.305001X-0.440001X0.305001X-0.440001X0.305001X0.440001X-0.305001X0.440001X0*%
%ADD34C,0.400000*%
%ADD35RoundRect,0.150000X-0.650000X-0.150000X0.650000X-0.150000X0.650000X0.150000X-0.650000X0.150000X0*%
G04 APERTURE END LIST*
D10*
X99500000Y-101300000D03*
X99500000Y-101800000D03*
X99500000Y-102300000D03*
X99500000Y-102800000D03*
X99500000Y-103300000D03*
X99500000Y-103800000D03*
X99500000Y-104300000D03*
X99500000Y-104800000D03*
X99500000Y-105300000D03*
X99500000Y-105800000D03*
X99500000Y-106300000D03*
X99500000Y-106800000D03*
X99500000Y-107300000D03*
X99500000Y-107800000D03*
X99500000Y-108300000D03*
X99500000Y-108800000D03*
X99500000Y-109300000D03*
X99500000Y-109800000D03*
X99500000Y-110300000D03*
D11*
X162600000Y-59450000D03*
X170600000Y-59450000D03*
X170600000Y-54950000D03*
X162600000Y-54950000D03*
X151800000Y-59450000D03*
X159800000Y-59450000D03*
X159800000Y-54950000D03*
X151800000Y-54950000D03*
X162700000Y-117450000D03*
X170700000Y-117450000D03*
X170700000Y-112950000D03*
X162700000Y-112950000D03*
X152000000Y-117500000D03*
X160000000Y-117500000D03*
X160000000Y-113000000D03*
X152000000Y-113000000D03*
X108400000Y-59550000D03*
X116400000Y-59550000D03*
X116400000Y-55050000D03*
X108400000Y-55050000D03*
D12*
X155850000Y-100500000D03*
X153150000Y-100500000D03*
D13*
X103300000Y-82400000D03*
X103300000Y-81100000D03*
X105200000Y-81750000D03*
X103300000Y-81750000D03*
X105200000Y-81100000D03*
X105200000Y-82400000D03*
D14*
X161630000Y-61800000D03*
X162600000Y-61800000D03*
X150830000Y-61800000D03*
X151800000Y-61800000D03*
D15*
X167185000Y-108500000D03*
X166215000Y-108500000D03*
D16*
X164000000Y-104700000D03*
X161950000Y-104700000D03*
X158950000Y-108500000D03*
X156900000Y-108500000D03*
D17*
X157850000Y-104700000D03*
X158800000Y-106700000D03*
X156900000Y-106700000D03*
D18*
X162125000Y-108500000D03*
X164000000Y-108500000D03*
D19*
X111400000Y-116000000D03*
X111400000Y-115500000D03*
X111400000Y-115000000D03*
X111400000Y-114500000D03*
X111400000Y-114000000D03*
X111400000Y-113500000D03*
X111400000Y-113000000D03*
X111400000Y-112500000D03*
X111400000Y-112000000D03*
X111400000Y-111500000D03*
X111400000Y-111000000D03*
X111400000Y-110500000D03*
X111400000Y-110000000D03*
X111400000Y-109500000D03*
X111400000Y-109000000D03*
X111400000Y-108500000D03*
X111400000Y-108000000D03*
X111400000Y-107500000D03*
X111400000Y-107000000D03*
X117100000Y-107000000D03*
X117100000Y-107500000D03*
X117100000Y-108000000D03*
X117100000Y-108500000D03*
X117100000Y-109000000D03*
X117100000Y-109500000D03*
X117100000Y-110000000D03*
X117100000Y-110500000D03*
X117100000Y-111000000D03*
X117100000Y-111500000D03*
X117100000Y-112000000D03*
X117100000Y-112500000D03*
X117100000Y-113000000D03*
X117100000Y-113500000D03*
X117100000Y-114000000D03*
X117100000Y-114500000D03*
X117100000Y-115000000D03*
X117100000Y-115500000D03*
X117100000Y-116000000D03*
D14*
X120215000Y-109000000D03*
X121185000Y-109000000D03*
X120215000Y-110100000D03*
X121185000Y-110100000D03*
X120215000Y-112000000D03*
X121185000Y-112000000D03*
X120215000Y-113100000D03*
X121185000Y-113100000D03*
D15*
X121085000Y-115500000D03*
X120115000Y-115500000D03*
X108685000Y-116500000D03*
X107715000Y-116500000D03*
X108685000Y-115500000D03*
X107715000Y-115500000D03*
X123685000Y-115500000D03*
X122715000Y-115500000D03*
D20*
X158100000Y-94500000D03*
X156000000Y-94500000D03*
X156000000Y-92850000D03*
X158100000Y-92850000D03*
D21*
X119000000Y-97400000D03*
X119000000Y-95800000D03*
X119000000Y-94200000D03*
X119000000Y-93400000D03*
X119000000Y-92600000D03*
X119000000Y-91800000D03*
X119000000Y-91000000D03*
X119000000Y-90200000D03*
X119000000Y-89400000D03*
X119000000Y-88600000D03*
X119000000Y-87800000D03*
X119000000Y-87000000D03*
X118200000Y-98200000D03*
X118200000Y-97400000D03*
X118200000Y-96600000D03*
X118200000Y-95800000D03*
X118200000Y-95000000D03*
X118200000Y-94200000D03*
X118200000Y-93400000D03*
X118200000Y-92600000D03*
X118200000Y-91800000D03*
X118200000Y-91000000D03*
X118200000Y-90200000D03*
X118200000Y-89400000D03*
X118200000Y-88600000D03*
X118200000Y-87800000D03*
X118200000Y-87000000D03*
X117400000Y-98200000D03*
X117400000Y-97400000D03*
X117400000Y-96600000D03*
X117400000Y-95800000D03*
X117400000Y-95000000D03*
X117400000Y-94200000D03*
X117400000Y-93400000D03*
X117400000Y-92600000D03*
X117400000Y-91800000D03*
X117400000Y-91000000D03*
X117400000Y-90200000D03*
X117400000Y-89400000D03*
X117400000Y-88600000D03*
X117400000Y-87800000D03*
X117400000Y-87000000D03*
X114200000Y-98200000D03*
X114200000Y-97400000D03*
X114200000Y-96600000D03*
X114200000Y-95800000D03*
X114200000Y-95000000D03*
X114200000Y-94200000D03*
X114200000Y-93400000D03*
X114200000Y-92600000D03*
X114200000Y-91800000D03*
X114200000Y-91000000D03*
X114200000Y-90200000D03*
X114200000Y-89400000D03*
X114200000Y-88600000D03*
X114200000Y-87800000D03*
X114200000Y-87000000D03*
X113400000Y-98200000D03*
X113400000Y-97400000D03*
X113400000Y-96600000D03*
X113400000Y-95800000D03*
X113400000Y-95000000D03*
X113400000Y-94200000D03*
X113400000Y-93400000D03*
X113400000Y-92600000D03*
X113400000Y-91800000D03*
X113400000Y-91000000D03*
X113400000Y-90200000D03*
X113400000Y-89400000D03*
X113400000Y-88600000D03*
X113400000Y-87800000D03*
X113400000Y-87000000D03*
X112600000Y-98200000D03*
X112600000Y-96600000D03*
X112600000Y-95000000D03*
X112600000Y-93400000D03*
X112600000Y-92600000D03*
X112600000Y-91800000D03*
X112600000Y-91000000D03*
X112600000Y-90200000D03*
X112600000Y-89400000D03*
X112600000Y-88600000D03*
X112600000Y-87800000D03*
X112600000Y-87000000D03*
D22*
X124437500Y-59500000D03*
X122562500Y-59500000D03*
X124437500Y-61900000D03*
X122562500Y-61900000D03*
D15*
X123785000Y-64000000D03*
X122815000Y-64000000D03*
D23*
X119000000Y-70485000D03*
X119000000Y-69515000D03*
D24*
X119000000Y-67330000D03*
X119000000Y-68300000D03*
X130900000Y-66030000D03*
X130900000Y-67000000D03*
D23*
X130900000Y-70570000D03*
X130900000Y-69600000D03*
D18*
X106962500Y-66700000D03*
X108837500Y-66700000D03*
D22*
X143537500Y-62000000D03*
X141662500Y-62000000D03*
X143537500Y-69900000D03*
X141662500Y-69900000D03*
D18*
X106962500Y-69000000D03*
X108837500Y-69000000D03*
D22*
X143537500Y-64300000D03*
X141662500Y-64300000D03*
X143537500Y-72200000D03*
X141662500Y-72200000D03*
X143537500Y-66700000D03*
X141662500Y-66700000D03*
D14*
X156515000Y-90600000D03*
X157485000Y-90600000D03*
D18*
X145862500Y-58200000D03*
X147737500Y-58200000D03*
D25*
X98725000Y-90600000D03*
X97275000Y-93400000D03*
X97275000Y-90600000D03*
X98725000Y-93400000D03*
X106725000Y-90600000D03*
X105275000Y-93400000D03*
X105275000Y-90600000D03*
X106725000Y-93400000D03*
D26*
X146900000Y-113015000D03*
X146900000Y-117185000D03*
X144900000Y-113015000D03*
X144900000Y-117185000D03*
X142900000Y-113015000D03*
X142900000Y-117185000D03*
X140900000Y-113015000D03*
X140900000Y-117185000D03*
X138900000Y-113015000D03*
X138900000Y-117185000D03*
X136900000Y-113015000D03*
X136900000Y-117185000D03*
X134900000Y-113015000D03*
X134900000Y-117185000D03*
D27*
X112250000Y-67600000D03*
X116750000Y-67600000D03*
X137750000Y-65300000D03*
X133250000Y-65300000D03*
X137750000Y-71300000D03*
X133250000Y-71300000D03*
D28*
X143100000Y-57400000D03*
X141100000Y-58350000D03*
X141100000Y-56450000D03*
D13*
X98150000Y-81100000D03*
X98150000Y-82400000D03*
X96250000Y-81750000D03*
X98150000Y-81750000D03*
X96250000Y-82400000D03*
X96250000Y-81100000D03*
X99550000Y-79400000D03*
X99550000Y-78100000D03*
X101450000Y-78750000D03*
X99550000Y-78750000D03*
X101450000Y-78100000D03*
X101450000Y-79400000D03*
D23*
X120800000Y-58285000D03*
X120800000Y-57315000D03*
D29*
X117300000Y-73850000D03*
X117300000Y-71800000D03*
D30*
X132700000Y-58775000D03*
X132700000Y-60825000D03*
D29*
X132700000Y-77725000D03*
X132700000Y-75675000D03*
D16*
X114900000Y-71800000D03*
X112850000Y-71800000D03*
D31*
X135075000Y-60900000D03*
X137125000Y-60900000D03*
X135075000Y-75700000D03*
X137125000Y-75700000D03*
D24*
X138800000Y-55515000D03*
X138800000Y-56485000D03*
D16*
X147825000Y-55400000D03*
X145775000Y-55400000D03*
D15*
X119085000Y-78000000D03*
X118115000Y-78000000D03*
D14*
X115115000Y-78000000D03*
X116085000Y-78000000D03*
D15*
X119085000Y-77000000D03*
X118115000Y-77000000D03*
D14*
X115115000Y-77000000D03*
X116085000Y-77000000D03*
D15*
X119085000Y-76000000D03*
X118115000Y-76000000D03*
D14*
X115115000Y-76000000D03*
X116085000Y-76000000D03*
D15*
X143985000Y-108250000D03*
X143015000Y-108250000D03*
D14*
X145530000Y-108250000D03*
X146500000Y-108250000D03*
D30*
X99250000Y-84975000D03*
X99250000Y-87025000D03*
X95250000Y-84975000D03*
X95250000Y-87025000D03*
X97250000Y-84975000D03*
X97250000Y-87025000D03*
D15*
X119085000Y-81000000D03*
X118115000Y-81000000D03*
D14*
X115115000Y-81000000D03*
X116085000Y-81000000D03*
D15*
X119085000Y-80000000D03*
X118115000Y-80000000D03*
D14*
X115115000Y-80000000D03*
X116085000Y-80000000D03*
D15*
X119085000Y-79000000D03*
X118115000Y-79000000D03*
D14*
X115115000Y-79000000D03*
X116085000Y-79000000D03*
D15*
X150585000Y-77600000D03*
X149615000Y-77600000D03*
D14*
X137015000Y-78900000D03*
X137985000Y-78900000D03*
X137015000Y-77600000D03*
X137985000Y-77600000D03*
D30*
X107250000Y-84975000D03*
X107250000Y-87025000D03*
X103250000Y-84975000D03*
X103250000Y-87025000D03*
X105250000Y-84975000D03*
X105250000Y-87025000D03*
D24*
X110000000Y-93815000D03*
X110000000Y-94785000D03*
X122000000Y-92715000D03*
X122000000Y-93685000D03*
D32*
X128000000Y-66350000D03*
X128000000Y-67000000D03*
X128000000Y-67650000D03*
X128000000Y-68300000D03*
X128000000Y-68950000D03*
X128000000Y-69600000D03*
X128000000Y-70250000D03*
X128000000Y-70900000D03*
X128000000Y-71550000D03*
X128000000Y-72200000D03*
X122275000Y-72200000D03*
X122275000Y-71550000D03*
X122275000Y-70900000D03*
X122275000Y-70250000D03*
X122275000Y-69600000D03*
X122275000Y-68950000D03*
X122275000Y-68300000D03*
X122275000Y-67650000D03*
X122275000Y-67000000D03*
X122275000Y-66350000D03*
D33*
X125827500Y-70135000D03*
X125827500Y-68415000D03*
X124447500Y-70135000D03*
X124447500Y-68415000D03*
D34*
X147000000Y-101000000D03*
X146000000Y-101000000D03*
X145000000Y-101000000D03*
X144000000Y-101000000D03*
X143000000Y-101000000D03*
X142000000Y-101000000D03*
X141000000Y-101000000D03*
X140000000Y-101000000D03*
X139000000Y-101000000D03*
X138000000Y-101000000D03*
X137000000Y-101000000D03*
X136000000Y-101000000D03*
X135000000Y-101000000D03*
X134000000Y-101000000D03*
X147000000Y-100000000D03*
X146000000Y-100000000D03*
X145000000Y-100000000D03*
X144000000Y-100000000D03*
X143000000Y-100000000D03*
X142000000Y-100000000D03*
X141000000Y-100000000D03*
X140000000Y-100000000D03*
X139000000Y-100000000D03*
X138000000Y-100000000D03*
X137000000Y-100000000D03*
X136000000Y-100000000D03*
X135000000Y-100000000D03*
X134000000Y-100000000D03*
X147000000Y-99000000D03*
X146000000Y-99000000D03*
X145000000Y-99000000D03*
X144000000Y-99000000D03*
X143000000Y-99000000D03*
X142000000Y-99000000D03*
X141000000Y-99000000D03*
X140000000Y-99000000D03*
X139000000Y-99000000D03*
X138000000Y-99000000D03*
X137000000Y-99000000D03*
X136000000Y-99000000D03*
X135000000Y-99000000D03*
X134000000Y-99000000D03*
X147000000Y-98000000D03*
X146000000Y-98000000D03*
X145000000Y-98000000D03*
X144000000Y-98000000D03*
X143000000Y-98000000D03*
X142000000Y-98000000D03*
X141000000Y-98000000D03*
X140000000Y-98000000D03*
X139000000Y-98000000D03*
X138000000Y-98000000D03*
X137000000Y-98000000D03*
X136000000Y-98000000D03*
X135000000Y-98000000D03*
X134000000Y-98000000D03*
X147000000Y-97000000D03*
X146000000Y-97000000D03*
X145000000Y-97000000D03*
X144000000Y-97000000D03*
X143000000Y-97000000D03*
X142000000Y-97000000D03*
X141000000Y-97000000D03*
X140000000Y-97000000D03*
X139000000Y-97000000D03*
X138000000Y-97000000D03*
X137000000Y-97000000D03*
X136000000Y-97000000D03*
X135000000Y-97000000D03*
X134000000Y-97000000D03*
X147000000Y-96000000D03*
X146000000Y-96000000D03*
X145000000Y-96000000D03*
X144000000Y-96000000D03*
X143000000Y-96000000D03*
X142000000Y-96000000D03*
X141000000Y-96000000D03*
X140000000Y-96000000D03*
X139000000Y-96000000D03*
X138000000Y-96000000D03*
X137000000Y-96000000D03*
X136000000Y-96000000D03*
X135000000Y-96000000D03*
X134000000Y-96000000D03*
X147000000Y-95000000D03*
X146000000Y-95000000D03*
X145000000Y-95000000D03*
X144000000Y-95000000D03*
X143000000Y-95000000D03*
X142000000Y-95000000D03*
X141000000Y-95000000D03*
X140000000Y-95000000D03*
X139000000Y-95000000D03*
X138000000Y-95000000D03*
X137000000Y-95000000D03*
X136000000Y-95000000D03*
X135000000Y-95000000D03*
X134000000Y-95000000D03*
X147000000Y-94000000D03*
X146000000Y-94000000D03*
X145000000Y-94000000D03*
X144000000Y-94000000D03*
X143000000Y-94000000D03*
X142000000Y-94000000D03*
X141000000Y-94000000D03*
X140000000Y-94000000D03*
X139000000Y-94000000D03*
X138000000Y-94000000D03*
X137000000Y-94000000D03*
X136000000Y-94000000D03*
X135000000Y-94000000D03*
X134000000Y-94000000D03*
X147000000Y-93000000D03*
X146000000Y-93000000D03*
X145000000Y-93000000D03*
X144000000Y-93000000D03*
X143000000Y-93000000D03*
X142000000Y-93000000D03*
X141000000Y-93000000D03*
X140000000Y-93000000D03*
X139000000Y-93000000D03*
X138000000Y-93000000D03*
X137000000Y-93000000D03*
X136000000Y-93000000D03*
X135000000Y-93000000D03*
X134000000Y-93000000D03*
X147000000Y-92000000D03*
X146000000Y-92000000D03*
X145000000Y-92000000D03*
X144000000Y-92000000D03*
X143000000Y-92000000D03*
X142000000Y-92000000D03*
X141000000Y-92000000D03*
X140000000Y-92000000D03*
X139000000Y-92000000D03*
X138000000Y-92000000D03*
X137000000Y-92000000D03*
X136000000Y-92000000D03*
X135000000Y-92000000D03*
X134000000Y-92000000D03*
X147000000Y-91000000D03*
X146000000Y-91000000D03*
X145000000Y-91000000D03*
X144000000Y-91000000D03*
X143000000Y-91000000D03*
X142000000Y-91000000D03*
X141000000Y-91000000D03*
X140000000Y-91000000D03*
X139000000Y-91000000D03*
X138000000Y-91000000D03*
X137000000Y-91000000D03*
X136000000Y-91000000D03*
X135000000Y-91000000D03*
X134000000Y-91000000D03*
X147000000Y-90000000D03*
X146000000Y-90000000D03*
X145000000Y-90000000D03*
X144000000Y-90000000D03*
X143000000Y-90000000D03*
X142000000Y-90000000D03*
X141000000Y-90000000D03*
X140000000Y-90000000D03*
X139000000Y-90000000D03*
X138000000Y-90000000D03*
X137000000Y-90000000D03*
X136000000Y-90000000D03*
X135000000Y-90000000D03*
X134000000Y-90000000D03*
X147000000Y-89000000D03*
X146000000Y-89000000D03*
X145000000Y-89000000D03*
X144000000Y-89000000D03*
X143000000Y-89000000D03*
X142000000Y-89000000D03*
X141000000Y-89000000D03*
X140000000Y-89000000D03*
X139000000Y-89000000D03*
X138000000Y-89000000D03*
X137000000Y-89000000D03*
X136000000Y-89000000D03*
X135000000Y-89000000D03*
X134000000Y-89000000D03*
X147000000Y-88000000D03*
X146000000Y-88000000D03*
X145000000Y-88000000D03*
X144000000Y-88000000D03*
X143000000Y-88000000D03*
X142000000Y-88000000D03*
X141000000Y-88000000D03*
X140000000Y-88000000D03*
X139000000Y-88000000D03*
X138000000Y-88000000D03*
X137000000Y-88000000D03*
X136000000Y-88000000D03*
X135000000Y-88000000D03*
X134000000Y-88000000D03*
D28*
X125800000Y-76100000D03*
X127800000Y-75150000D03*
X127800000Y-77050000D03*
D35*
X147350000Y-76345000D03*
X147350000Y-77615000D03*
X147350000Y-78885000D03*
X147350000Y-80155000D03*
X140150000Y-80155000D03*
X140150000Y-78885000D03*
X140150000Y-77615000D03*
X140150000Y-76345000D03*
M02*
