%TF.GenerationSoftware,KiCad,Pcbnew,10.0.3*%
%TF.CreationDate,2026-05-26T11:11:07+05:30*%
%TF.ProjectId,AetherSync NeuralNode,41657468-6572-4537-996e-63204e657572,1*%
%TF.SameCoordinates,Original*%
%TF.FileFunction,Copper,L1,Top*%
%TF.FilePolarity,Positive*%
%FSLAX46Y46*%
G04 Gerber Fmt 4.6, Leading zero omitted, Abs format (unit mm)*
G04 Created by KiCad (PCBNEW 10.0.3) date 2026-05-26 11:11:07*
%MOMM*%
%LPD*%
G01*
G04 APERTURE LIST*
G04 Aperture macros list*
%AMRoundRect*
0 Rectangle with rounded corners*
0 $1 Rounding radius*
0 $2 $3 $4 $5 $6 $7 $8 $9 X,Y pos of 4 corners*
0 Add a 4 corners polygon primitive as box body*
4,1,4,$2,$3,$4,$5,$6,$7,$8,$9,$2,$3,0*
0 Add four circle primitives for the rounded corners*
1,1,$1+$1,$2,$3*
1,1,$1+$1,$4,$5*
1,1,$1+$1,$6,$7*
1,1,$1+$1,$8,$9*
0 Add four rect primitives between the rounded corners*
20,1,$1+$1,$2,$3,$4,$5,0*
20,1,$1+$1,$4,$5,$6,$7,0*
20,1,$1+$1,$6,$7,$8,$9,0*
20,1,$1+$1,$8,$9,$2,$3,0*%
G04 Aperture macros list end*
%TA.AperFunction,SMDPad,CuDef*%
%ADD10RoundRect,0.250000X0.445000X-0.457500X0.445000X0.457500X-0.445000X0.457500X-0.445000X-0.457500X0*%
%TD*%
%TA.AperFunction,SMDPad,CuDef*%
%ADD11RoundRect,0.140000X-0.170000X0.140000X-0.170000X-0.140000X0.170000X-0.140000X0.170000X0.140000X0*%
%TD*%
%TA.AperFunction,SMDPad,CuDef*%
%ADD12RoundRect,0.135000X-0.135000X-0.185000X0.135000X-0.185000X0.135000X0.185000X-0.135000X0.185000X0*%
%TD*%
%TA.AperFunction,SMDPad,CuDef*%
%ADD13RoundRect,0.135000X0.135000X0.185000X-0.135000X0.185000X-0.135000X-0.185000X0.135000X-0.185000X0*%
%TD*%
%TA.AperFunction,SMDPad,CuDef*%
%ADD14RoundRect,0.150000X-0.150000X-0.470000X0.150000X-0.470000X0.150000X0.470000X-0.150000X0.470000X0*%
%TD*%
%TA.AperFunction,SMDPad,CuDef*%
%ADD15RoundRect,0.075000X-0.075000X-0.545000X0.075000X-0.545000X0.075000X0.545000X-0.075000X0.545000X0*%
%TD*%
%TA.AperFunction,ComponentPad*%
%ADD16O,1.000000X2.100000*%
%TD*%
%TA.AperFunction,ComponentPad*%
%ADD17O,1.000000X1.800000*%
%TD*%
%TA.AperFunction,SMDPad,CuDef*%
%ADD18RoundRect,0.140000X-0.140000X-0.170000X0.140000X-0.170000X0.140000X0.170000X-0.140000X0.170000X0*%
%TD*%
%TA.AperFunction,SMDPad,CuDef*%
%ADD19RoundRect,0.375000X-0.625000X-0.375000X0.625000X-0.375000X0.625000X0.375000X-0.625000X0.375000X0*%
%TD*%
%TA.AperFunction,SMDPad,CuDef*%
%ADD20RoundRect,0.500000X-0.500000X-1.400000X0.500000X-1.400000X0.500000X1.400000X-0.500000X1.400000X0*%
%TD*%
%TA.AperFunction,SMDPad,CuDef*%
%ADD21RoundRect,0.135000X-0.185000X0.135000X-0.185000X-0.135000X0.185000X-0.135000X0.185000X0.135000X0*%
%TD*%
%TA.AperFunction,SMDPad,CuDef*%
%ADD22RoundRect,0.175000X-0.175000X0.325000X-0.175000X-0.325000X0.175000X-0.325000X0.175000X0.325000X0*%
%TD*%
%TA.AperFunction,SMDPad,CuDef*%
%ADD23RoundRect,0.140000X0.170000X-0.140000X0.170000X0.140000X-0.170000X0.140000X-0.170000X-0.140000X0*%
%TD*%
%TA.AperFunction,SMDPad,CuDef*%
%ADD24RoundRect,0.200000X0.800000X-0.200000X0.800000X0.200000X-0.800000X0.200000X-0.800000X-0.200000X0*%
%TD*%
%TA.AperFunction,ComponentPad*%
%ADD25O,2.000000X1.200000*%
%TD*%
%TA.AperFunction,SMDPad,CuDef*%
%ADD26RoundRect,0.250000X-0.445000X0.457500X-0.445000X-0.457500X0.445000X-0.457500X0.445000X0.457500X0*%
%TD*%
%TA.AperFunction,SMDPad,CuDef*%
%ADD27RoundRect,0.175000X-0.175000X-0.325000X0.175000X-0.325000X0.175000X0.325000X-0.175000X0.325000X0*%
%TD*%
%TA.AperFunction,SMDPad,CuDef*%
%ADD28RoundRect,0.150000X-0.200000X-0.150000X0.200000X-0.150000X0.200000X0.150000X-0.200000X0.150000X0*%
%TD*%
%TA.AperFunction,SMDPad,CuDef*%
%ADD29RoundRect,0.135000X0.185000X-0.135000X0.185000X0.135000X-0.185000X0.135000X-0.185000X-0.135000X0*%
%TD*%
%TA.AperFunction,SMDPad,CuDef*%
%ADD30RoundRect,0.175000X0.175000X-0.325000X0.175000X0.325000X-0.175000X0.325000X-0.175000X-0.325000X0*%
%TD*%
%TA.AperFunction,SMDPad,CuDef*%
%ADD31R,1.500000X0.900000*%
%TD*%
%TA.AperFunction,SMDPad,CuDef*%
%ADD32R,0.900000X1.500000*%
%TD*%
%TA.AperFunction,SMDPad,CuDef*%
%ADD33R,0.900000X0.900000*%
%TD*%
%TA.AperFunction,SMDPad,CuDef*%
%ADD34RoundRect,0.062500X0.062500X-0.337500X0.062500X0.337500X-0.062500X0.337500X-0.062500X-0.337500X0*%
%TD*%
%TA.AperFunction,SMDPad,CuDef*%
%ADD35RoundRect,0.062500X0.337500X-0.062500X0.337500X0.062500X-0.337500X0.062500X-0.337500X-0.062500X0*%
%TD*%
%TA.AperFunction,HeatsinkPad*%
%ADD36R,3.350000X3.350000*%
%TD*%
%TA.AperFunction,SMDPad,CuDef*%
%ADD37RoundRect,0.147500X0.172500X-0.147500X0.172500X0.147500X-0.172500X0.147500X-0.172500X-0.147500X0*%
%TD*%
%TA.AperFunction,ViaPad*%
%ADD38C,0.500000*%
%TD*%
%TA.AperFunction,ViaPad*%
%ADD39C,0.700000*%
%TD*%
%TA.AperFunction,Conductor*%
%ADD40C,0.200000*%
%TD*%
%TA.AperFunction,Conductor*%
%ADD41C,0.400000*%
%TD*%
%TA.AperFunction,Conductor*%
%ADD42C,0.500000*%
%TD*%
%TA.AperFunction,Conductor*%
%ADD43C,0.300000*%
%TD*%
%TA.AperFunction,Conductor*%
%ADD44C,0.150000*%
%TD*%
G04 APERTURE END LIST*
D10*
%TO.P,C7,1*%
%TO.N,VBUS*%
X154400000Y-98527500D03*
%TO.P,C7,2*%
%TO.N,GND*%
X154400000Y-95822500D03*
%TD*%
D11*
%TO.P,C6,1*%
%TO.N,+3.3V*%
X137500000Y-92220000D03*
%TO.P,C6,2*%
%TO.N,GND*%
X137500000Y-93180000D03*
%TD*%
D12*
%TO.P,R3,1*%
%TO.N,/CC2*%
X149600000Y-108600000D03*
%TO.P,R3,2*%
%TO.N,GND*%
X150620000Y-108600000D03*
%TD*%
%TO.P,R7,1*%
%TO.N,/~{SUSPEND}*%
X149790000Y-101300000D03*
%TO.P,R7,2*%
%TO.N,GND*%
X150810000Y-101300000D03*
%TD*%
D13*
%TO.P,R2,1*%
%TO.N,/CC1*%
X143620000Y-108600000D03*
%TO.P,R2,2*%
%TO.N,GND*%
X142600000Y-108600000D03*
%TD*%
D14*
%TO.P,J1,A1,GND_A1*%
%TO.N,GND*%
X142660000Y-110380000D03*
%TO.P,J1,A4,VBUS_A4*%
%TO.N,VBUS*%
X143460000Y-110380000D03*
D15*
%TO.P,J1,A5,CC1_A5*%
%TO.N,/CC1*%
X144610000Y-110380000D03*
%TO.P,J1,A6,D+_A6*%
%TO.N,/USB_D+*%
X145610000Y-110380000D03*
%TO.P,J1,A7,D-_A7*%
%TO.N,/USB_D-*%
X146110000Y-110380000D03*
%TO.P,J1,A8,SBU1_A8*%
%TO.N,unconnected-(J1-SBU1-PadA8)*%
X147110000Y-110380000D03*
D14*
%TO.P,J1,A9,VBUS_A9*%
%TO.N,VBUS*%
X148260000Y-110380000D03*
%TO.P,J1,A12,GND_A12*%
%TO.N,GND*%
X149060000Y-110380000D03*
%TO.P,J1,B1,GND_B1*%
X149060000Y-110380000D03*
%TO.P,J1,B4,VBUS_B4*%
%TO.N,VBUS*%
X148260000Y-110380000D03*
D15*
%TO.P,J1,B5,CC2_B5*%
%TO.N,/CC2*%
X147610000Y-110380000D03*
%TO.P,J1,B6,D+_B6*%
%TO.N,/USB_D+*%
X146610000Y-110380000D03*
%TO.P,J1,B7,D-_B7*%
%TO.N,/USB_D-*%
X145110000Y-110380000D03*
%TO.P,J1,B8,SBU2_B8*%
%TO.N,unconnected-(J1-SBU2-PadB8)*%
X144110000Y-110380000D03*
D14*
%TO.P,J1,B9,VBUS_B9*%
%TO.N,VBUS*%
X143460000Y-110380000D03*
%TO.P,J1,B12,GND_B12*%
%TO.N,GND*%
X142660000Y-110380000D03*
D16*
%TO.P,J1,SH,SHIELD_SH*%
X141540000Y-110980000D03*
D17*
X141540000Y-115180000D03*
D16*
X150180000Y-110980000D03*
D17*
X150180000Y-115180000D03*
%TD*%
D18*
%TO.P,C4,1*%
%TO.N,/EN*%
X136700000Y-96700000D03*
%TO.P,C4,2*%
%TO.N,GND*%
X137660000Y-96700000D03*
%TD*%
D19*
%TO.P,U3,1,GND_1*%
%TO.N,GND*%
X142700000Y-91700000D03*
%TO.P,U3,2,VO_2*%
%TO.N,+3.3V*%
X142700000Y-94000000D03*
D20*
X149000000Y-94000000D03*
D19*
%TO.P,U3,3,VI_3*%
%TO.N,VBUS*%
X142700000Y-96300000D03*
%TD*%
D21*
%TO.P,R5,1*%
%TO.N,/~{RTS}*%
X141700000Y-105400000D03*
%TO.P,R5,2*%
%TO.N,Net-(Q2-B)*%
X141700000Y-106420000D03*
%TD*%
D22*
%TO.P,Q1,1,B_1*%
%TO.N,Net-(Q1-B)*%
X140250000Y-100000000D03*
%TO.P,Q1,2,C_2*%
%TO.N,/EN*%
X138350000Y-100000000D03*
%TO.P,Q1,3,E_3*%
%TO.N,/~{RTS}*%
X139300000Y-102400000D03*
%TD*%
D11*
%TO.P,C2,1*%
%TO.N,VBUS*%
X151400000Y-103240000D03*
%TO.P,C2,2*%
%TO.N,GND*%
X151400000Y-104200000D03*
%TD*%
D18*
%TO.P,C9,1*%
%TO.N,/EN*%
X137200000Y-108400000D03*
%TO.P,C9,2*%
%TO.N,GND*%
X138160000Y-108400000D03*
%TD*%
D23*
%TO.P,C3,1*%
%TO.N,Net-(U1-VDD)*%
X152700000Y-104160000D03*
%TO.P,C3,2*%
%TO.N,GND*%
X152700000Y-103200000D03*
%TD*%
D24*
%TO.P,SW2,1,1_1*%
%TO.N,GND*%
X153510000Y-115200000D03*
%TO.P,SW2,2,2_2*%
%TO.N,/GPIO0*%
X153510000Y-111000000D03*
%TD*%
D25*
%TO.P,U4,1,3V3_1*%
%TO.N,+3.3V*%
X133103680Y-70542720D03*
%TO.P,U4,2,CHIP_PU_2*%
%TO.N,/EN*%
X133103680Y-73082720D03*
%TO.P,U4,3,SENSOR_VP/GPIO36/ADC1_CH0_3*%
%TO.N,/GPIO36*%
X133103680Y-75622720D03*
%TO.P,U4,4,SENSOR_VN/GPIO39/ADC1_CH3_4*%
%TO.N,/GPIO39*%
X133103680Y-78162720D03*
%TO.P,U4,5,VDET_1/GPIO34/ADC1_CH6_5*%
%TO.N,/GPIO34*%
X133103680Y-80702720D03*
%TO.P,U4,6,VDET_2/GPIO35/ADC1_CH7_6*%
%TO.N,/GPIO35*%
X133103680Y-83242720D03*
%TO.P,U4,7,32K_XP/GPIO32/ADC1_CH4_7*%
%TO.N,/GPIO32*%
X133103680Y-85782720D03*
%TO.P,U4,8,32K_XN/GPIO33/ADC1_CH5_8*%
%TO.N,/GPIO33*%
X133103680Y-88322720D03*
%TO.P,U4,9,DAC_1/ADC2_CH8/GPIO25_9*%
%TO.N,/GPIO25*%
X133103680Y-90862720D03*
%TO.P,U4,10,DAC_2/ADC2_CH9/GPIO26_10*%
%TO.N,/GPIO26*%
X133103680Y-93402720D03*
%TO.P,U4,11,ADC2_CH7/GPIO27_11*%
%TO.N,/GPIO27*%
X133103680Y-95942720D03*
%TO.P,U4,12,MTMS/GPIO14/ADC2_CH6_12*%
%TO.N,/GPIO14*%
X133103680Y-98482720D03*
%TO.P,U4,13,\u002AMTDI/GPIO12/ADC2_CH5_13*%
%TO.N,/GPIO12*%
X133103680Y-101022720D03*
%TO.P,U4,14,GND_14*%
%TO.N,GND*%
X133103680Y-103562720D03*
%TO.P,U4,15,MTCK/GPIO13/ADC2_CH4_15*%
%TO.N,/GPIO13*%
X133103680Y-106102720D03*
%TO.P,U4,16,SD_DATA2/GPIO9_16*%
%TO.N,unconnected-(U4-SD_DATA2{slash}GPIO9-Pad16)*%
X133103680Y-108642720D03*
%TO.P,U4,17,SD_DATA3/GPIO10_17*%
%TO.N,unconnected-(U4-SD_DATA3{slash}GPIO10-Pad17)*%
X133103680Y-111182720D03*
%TO.P,U4,18,CMD_18*%
%TO.N,unconnected-(U4-CMD-Pad18)*%
X133103680Y-113722720D03*
%TO.P,U4,19,5V_19*%
%TO.N,VBUS*%
X133103680Y-116262720D03*
%TO.P,U4,20,SD_CLK/GPIO6_20*%
%TO.N,unconnected-(U4-SD_CLK{slash}GPIO6-Pad20)*%
X158500000Y-116260000D03*
%TO.P,U4,21,SD_DATA0/GPIO7_21*%
%TO.N,unconnected-(U4-SD_DATA0{slash}GPIO7-Pad21)*%
X158500000Y-113720000D03*
%TO.P,U4,22,SD_DATA1/GPIO8_22*%
%TO.N,unconnected-(U4-SD_DATA1{slash}GPIO8-Pad22)*%
X158503680Y-111182720D03*
%TO.P,U4,23,\u002AMTDO/GPIO15/ADC2_CH3_23*%
%TO.N,/GPIO15*%
X158503680Y-108642720D03*
%TO.P,U4,24,ADC2_CH2/\u002AGPIO2_24*%
%TO.N,/GPIO2*%
X158503680Y-106102720D03*
%TO.P,U4,25,\u002AGPIO0/BOOT/ADC2_CH1_25*%
%TO.N,/GPIO0*%
X158503680Y-103562720D03*
%TO.P,U4,26,ADC2_CH0/GPIO4_26*%
%TO.N,/GPIO4*%
X158503680Y-101022720D03*
%TO.P,U4,27,GPIO16_27*%
%TO.N,/GPIO16*%
X158503680Y-98482720D03*
%TO.P,U4,28,GPIO17_28*%
%TO.N,/GPIO17*%
X158503680Y-95942720D03*
%TO.P,U4,29,\u002AGPIO5_29*%
%TO.N,/GPIO5*%
X158503680Y-93402720D03*
%TO.P,U4,30,GPIO18_30*%
%TO.N,/GPIO18*%
X158503680Y-90862720D03*
%TO.P,U4,31,GPIO19_31*%
%TO.N,/GPIO19*%
X158503680Y-88322720D03*
%TO.P,U4,32,GND_32*%
%TO.N,GND*%
X158503680Y-85782720D03*
%TO.P,U4,33,GPIO21_33*%
%TO.N,/GPIO21*%
X158503680Y-83242720D03*
%TO.P,U4,34,U0RXD/GPIO3_34*%
%TO.N,/GPIO3*%
X158503680Y-80702720D03*
%TO.P,U4,35,U0TXD/GPIO1_35*%
%TO.N,/GPIO1*%
X158503680Y-78162720D03*
%TO.P,U4,36,GPIO22_36*%
%TO.N,/GPIO22*%
X158503680Y-75622720D03*
%TO.P,U4,37,GPIO23_37*%
%TO.N,/GPIO23*%
X158503680Y-73082720D03*
%TO.P,U4,38,GND_38*%
%TO.N,GND*%
X158503680Y-70542720D03*
%TD*%
D24*
%TO.P,SW1,1,1_1*%
%TO.N,GND*%
X138000000Y-115200000D03*
%TO.P,SW1,2,2_2*%
%TO.N,/EN*%
X138000000Y-111000000D03*
%TD*%
D26*
%TO.P,C5,1*%
%TO.N,+3.3V*%
X151800000Y-95772500D03*
%TO.P,C5,2*%
%TO.N,GND*%
X151800000Y-98477500D03*
%TD*%
D12*
%TO.P,R8,1*%
%TO.N,/~{RST}*%
X149790000Y-102300000D03*
%TO.P,R8,2*%
%TO.N,VBUS*%
X150810000Y-102300000D03*
%TD*%
D27*
%TO.P,D1,1,A_1*%
%TO.N,GND*%
X144800000Y-106200000D03*
D28*
%TO.P,D1,2,K_2*%
%TO.N,/USB_D+*%
X144800000Y-107900000D03*
%TO.P,D1,3,K_3*%
%TO.N,/USB_D-*%
X146800000Y-107900000D03*
%TO.P,D1,4,K_4*%
%TO.N,VBUS*%
X146800000Y-106000000D03*
%TD*%
D26*
%TO.P,C8,1*%
%TO.N,+3.3V*%
X139300000Y-91522500D03*
%TO.P,C8,2*%
%TO.N,GND*%
X139300000Y-94227500D03*
%TD*%
D13*
%TO.P,R1,1*%
%TO.N,+3.3V*%
X137720000Y-98000000D03*
%TO.P,R1,2*%
%TO.N,/EN*%
X136700000Y-98000000D03*
%TD*%
D11*
%TO.P,C1,1*%
%TO.N,VBUS*%
X150100000Y-103200000D03*
%TO.P,C1,2*%
%TO.N,GND*%
X150100000Y-104160000D03*
%TD*%
D29*
%TO.P,R4,1*%
%TO.N,/~{DTR}*%
X141700000Y-104100000D03*
%TO.P,R4,2*%
%TO.N,Net-(Q1-B)*%
X141700000Y-103080000D03*
%TD*%
D30*
%TO.P,Q2,1,B_1*%
%TO.N,Net-(Q2-B)*%
X138350000Y-106800000D03*
%TO.P,Q2,2,C_2*%
%TO.N,/GPIO0*%
X140250000Y-106800000D03*
%TO.P,Q2,3,E_3*%
%TO.N,/~{DTR}*%
X139300000Y-104400000D03*
%TD*%
D31*
%TO.P,U2,1,GND_1*%
%TO.N,GND*%
X137110000Y-71050000D03*
%TO.P,U2,2,3V3_2*%
%TO.N,+3.3V*%
X137110000Y-72320000D03*
%TO.P,U2,3,EN/CHIP_PU_3*%
%TO.N,/EN*%
X137110000Y-73590000D03*
%TO.P,U2,4,SENSOR_VP/GPIO36/ADC1_CH0_4*%
%TO.N,/GPIO36*%
X137110000Y-74860000D03*
%TO.P,U2,5,SENSOR_VN/GPIO39/ADC1_CH3_5*%
%TO.N,/GPIO39*%
X137110000Y-76130000D03*
%TO.P,U2,6,GPIO34/ADC1_CH6_6*%
%TO.N,/GPIO34*%
X137110000Y-77400000D03*
%TO.P,U2,7,GPIO35/ADC1_CH7_7*%
%TO.N,/GPIO35*%
X137110000Y-78670000D03*
%TO.P,U2,8,32K_XP/GPIO32/ADC1_CH4_8*%
%TO.N,/GPIO32*%
X137110000Y-79940000D03*
%TO.P,U2,9,32K_XN/GPIO33/ADC1_CH5_9*%
%TO.N,/GPIO33*%
X137110000Y-81210000D03*
%TO.P,U2,10,DAC_1/ADC2_CH8/GPIO25_10*%
%TO.N,/GPIO25*%
X137110000Y-82480000D03*
%TO.P,U2,11,DAC_2/ADC2_CH9/GPIO26_11*%
%TO.N,/GPIO26*%
X137110000Y-83750000D03*
%TO.P,U2,12,ADC2_CH7/GPIO27_12*%
%TO.N,/GPIO27*%
X137110000Y-85020000D03*
%TO.P,U2,13,MTMS/GPIO14/ADC2_CH6_13*%
%TO.N,/GPIO14*%
X137110000Y-86290000D03*
%TO.P,U2,14,MTDI/GPIO12/ADC2_CH5_14*%
%TO.N,/GPIO12*%
X137110000Y-87560000D03*
D32*
%TO.P,U2,15,GND_15*%
%TO.N,GND*%
X140140000Y-88810000D03*
%TO.P,U2,16,MTCK/GPIO13/ADC2_CH4_16*%
%TO.N,/GPIO13*%
X141410000Y-88810000D03*
%TO.P,U2,17,NC_17*%
%TO.N,unconnected-(U2-NC-Pad17)*%
X142680000Y-88810000D03*
%TO.P,U2,18,NC_18*%
%TO.N,unconnected-(U2-NC-Pad18)*%
X143950000Y-88810000D03*
%TO.P,U2,19,NC_19*%
%TO.N,unconnected-(U2-NC-Pad19)*%
X145220000Y-88810000D03*
%TO.P,U2,20,NC_20*%
%TO.N,unconnected-(U2-NC-Pad20)*%
X146490000Y-88810000D03*
%TO.P,U2,21,NC_21*%
%TO.N,unconnected-(U2-NC-Pad21)*%
X147760000Y-88810000D03*
%TO.P,U2,22,NC_22*%
%TO.N,unconnected-(U2-NC-Pad22)*%
X149030000Y-88810000D03*
%TO.P,U2,23,MTDO/GPIO15/ADC2_CH3_23*%
%TO.N,/GPIO15*%
X150300000Y-88810000D03*
%TO.P,U2,24,ADC2_CH2/GPIO2_24*%
%TO.N,/GPIO2*%
X151570000Y-88810000D03*
D31*
%TO.P,U2,25,GPIO0/BOOT/ADC2_CH1_25*%
%TO.N,/GPIO0*%
X154610000Y-87560000D03*
%TO.P,U2,26,ADC2_CH0/GPIO4_26*%
%TO.N,/GPIO4*%
X154610000Y-86290000D03*
%TO.P,U2,27,GPIO16_27*%
%TO.N,/GPIO16*%
X154610000Y-85020000D03*
%TO.P,U2,28,GPIO17_28*%
%TO.N,/GPIO17*%
X154610000Y-83750000D03*
%TO.P,U2,29,GPIO5_29*%
%TO.N,/GPIO5*%
X154610000Y-82480000D03*
%TO.P,U2,30,GPIO18_30*%
%TO.N,/GPIO18*%
X154610000Y-81210000D03*
%TO.P,U2,31,GPIO19_31*%
%TO.N,/GPIO19*%
X154610000Y-79940000D03*
%TO.P,U2,32,NC_32*%
%TO.N,unconnected-(U2-NC-Pad32)*%
X154610000Y-78670000D03*
%TO.P,U2,33,GPIO21_33*%
%TO.N,/GPIO21*%
X154610000Y-77400000D03*
%TO.P,U2,34,U0RXD/GPIO3_34*%
%TO.N,/GPIO3*%
X154610000Y-76130000D03*
%TO.P,U2,35,U0TXD/GPIO1_35*%
%TO.N,/GPIO1*%
X154610000Y-74860000D03*
%TO.P,U2,36,GPIO22_36*%
%TO.N,/GPIO22*%
X154610000Y-73590000D03*
%TO.P,U2,37,GPIO23_37*%
%TO.N,/GPIO23*%
X154610000Y-72320000D03*
%TO.P,U2,38,GND_38*%
%TO.N,GND*%
X154610000Y-71050000D03*
D33*
%TO.P,U2,39,GND_THERMAL_39*%
X142960000Y-77370000D03*
X142960000Y-78770000D03*
X142960000Y-80170000D03*
X144360000Y-77370000D03*
X144360000Y-78770000D03*
X144360000Y-80170000D03*
X145760000Y-77370000D03*
X145760000Y-78770000D03*
X145760000Y-80170000D03*
%TD*%
D18*
%TO.P,C10,1*%
%TO.N,/GPIO0*%
X153000000Y-108500000D03*
%TO.P,C10,2*%
%TO.N,GND*%
X153960000Y-108500000D03*
%TD*%
D34*
%TO.P,U1,1,~{DCD}_1*%
%TO.N,unconnected-(U1-~{DCD}-Pad1)*%
X144200000Y-104100000D03*
%TO.P,U1,2,~{RI}/CLK_2*%
%TO.N,unconnected-(U1-~{RI}{slash}CLK-Pad2)*%
X144700000Y-104100000D03*
%TO.P,U1,3,GND_3*%
%TO.N,GND*%
X145200000Y-104100000D03*
%TO.P,U1,4,D+_4*%
%TO.N,/USB_D+*%
X145700000Y-104100000D03*
%TO.P,U1,5,D-_5*%
%TO.N,/USB_D-*%
X146200000Y-104100000D03*
%TO.P,U1,6,VDD_6*%
%TO.N,Net-(U1-VDD)*%
X146700000Y-104100000D03*
%TO.P,U1,7,VREGIN_7*%
%TO.N,VBUS*%
X147200000Y-104100000D03*
D35*
%TO.P,U1,8,VBUS_8*%
X148150000Y-103150000D03*
%TO.P,U1,9,~{RST}_9*%
%TO.N,/~{RST}*%
X148150000Y-102650000D03*
%TO.P,U1,10,NC_10*%
%TO.N,unconnected-(U1-NC-Pad10)*%
X148150000Y-102150000D03*
%TO.P,U1,11,~{SUSPEND}_11*%
%TO.N,/~{SUSPEND}*%
X148150000Y-101650000D03*
%TO.P,U1,12,SUSPEND_12*%
%TO.N,unconnected-(U1-SUSPEND-Pad12)*%
X148150000Y-101150000D03*
%TO.P,U1,13,CHREN_13*%
%TO.N,unconnected-(U1-CHREN-Pad13)*%
X148150000Y-100650000D03*
%TO.P,U1,14,CHR1_14*%
%TO.N,unconnected-(U1-CHR1-Pad14)*%
X148150000Y-100150000D03*
D34*
%TO.P,U1,15,CHR0_15*%
%TO.N,unconnected-(U1-CHR0-Pad15)*%
X147200000Y-99200000D03*
%TO.P,U1,16,~{WAKEUP}/GPIO.3_16*%
%TO.N,unconnected-(U1-~{WAKEUP}{slash}GPIO.3-Pad16)*%
X146700000Y-99200000D03*
%TO.P,U1,17,RS485/GPIO.2_17*%
%TO.N,unconnected-(U1-RS485{slash}GPIO.2-Pad17)*%
X146200000Y-99200000D03*
%TO.P,U1,18,~{RXT}/GPIO.1_18*%
%TO.N,unconnected-(U1-~{RXT}{slash}GPIO.1-Pad18)*%
X145700000Y-99200000D03*
%TO.P,U1,19,~{TXT}/GPIO.0_19*%
%TO.N,unconnected-(U1-~{TXT}{slash}GPIO.0-Pad19)*%
X145200000Y-99200000D03*
%TO.P,U1,20,GPIO.6_20*%
%TO.N,unconnected-(U1-GPIO.6-Pad20)*%
X144700000Y-99200000D03*
%TO.P,U1,21,GPIO.5_21*%
%TO.N,unconnected-(U1-GPIO.5-Pad21)*%
X144200000Y-99200000D03*
D35*
%TO.P,U1,22,GPIO.4_22*%
%TO.N,unconnected-(U1-GPIO.4-Pad22)*%
X143250000Y-100150000D03*
%TO.P,U1,23,~{CTS}_23*%
%TO.N,unconnected-(U1-~{CTS}-Pad23)*%
X143250000Y-100650000D03*
%TO.P,U1,24,~{RTS}_24*%
%TO.N,/~{RTS}*%
X143250000Y-101150000D03*
%TO.P,U1,25,RXD_25*%
%TO.N,/GPIO1*%
X143250000Y-101650000D03*
%TO.P,U1,26,TXD_26*%
%TO.N,/GPIO3*%
X143250000Y-102150000D03*
%TO.P,U1,27,~{DSR}_27*%
%TO.N,unconnected-(U1-~{DSR}-Pad27)*%
X143250000Y-102650000D03*
%TO.P,U1,28,~{DTR}_28*%
%TO.N,/~{DTR}*%
X143250000Y-103150000D03*
D36*
%TO.P,U1,29,GND_29*%
%TO.N,GND*%
X145700000Y-101650000D03*
%TD*%
D37*
%TO.P,D2,1,K_1*%
%TO.N,GND*%
X139200000Y-97370000D03*
%TO.P,D2,2,A_2*%
%TO.N,Net-(D2-A)*%
X139200000Y-96400000D03*
%TD*%
D29*
%TO.P,R6,1*%
%TO.N,Net-(D2-A)*%
X140400000Y-97420000D03*
%TO.P,R6,2*%
%TO.N,VBUS*%
X140400000Y-96400000D03*
%TD*%
D38*
%TO.N,GND*%
X151500000Y-101300000D03*
X144000000Y-105200000D03*
X151400000Y-105000000D03*
X138000000Y-116500000D03*
X140200000Y-90200000D03*
X146700000Y-78100000D03*
X137700000Y-95800000D03*
X141600000Y-108700000D03*
X142000000Y-78100000D03*
X145100000Y-81100000D03*
X139200000Y-98600000D03*
X153500000Y-116500000D03*
X145100000Y-76500000D03*
X150000000Y-98500000D03*
X154300000Y-93900000D03*
X143900000Y-106200000D03*
X138800000Y-108500000D03*
X141100000Y-91700000D03*
X139300000Y-95600000D03*
X141200000Y-109300000D03*
X152700000Y-102400000D03*
X146700000Y-79500000D03*
X143700000Y-81100000D03*
X151400000Y-108600000D03*
X150100000Y-105000000D03*
X151200000Y-109300000D03*
X143700000Y-76500000D03*
X138900000Y-71100000D03*
X142000000Y-79500000D03*
X137500000Y-94100000D03*
X154700000Y-108500000D03*
D39*
%TO.N,+3.3V*%
X139300000Y-92900000D03*
D38*
X146900000Y-95000000D03*
X146900000Y-92700000D03*
X137800000Y-98900000D03*
D39*
X138900000Y-72300000D03*
D38*
X146900000Y-93900000D03*
X137600000Y-91400000D03*
%TO.N,/CC2*%
X147600000Y-108600000D03*
X148900000Y-108600000D03*
%TO.N,/USB_D+*%
X146777440Y-109349241D03*
X145610000Y-109400000D03*
%TO.N,/~{RTS}*%
X141400000Y-100800000D03*
X139400000Y-101300000D03*
%TO.N,Net-(U1-VDD)*%
X147100000Y-105100000D03*
X149400000Y-105800000D03*
%TO.N,/GPIO0*%
X155550000Y-92550000D03*
X149700000Y-107600000D03*
X157120480Y-102179520D03*
X143500000Y-107600000D03*
X155800000Y-100200000D03*
X156200000Y-106700000D03*
%TO.N,/GPIO13*%
X137200000Y-89100000D03*
X141400000Y-87400000D03*
%TO.N,/GPIO15*%
X154100000Y-102400000D03*
X151700000Y-94300000D03*
%TO.N,/GPIO2*%
X152600000Y-93700000D03*
X154600000Y-100900000D03*
%TO.N,/GPIO4*%
X156100000Y-97300000D03*
X156100000Y-94700000D03*
%TO.N,/GPIO3*%
X145800000Y-86700000D03*
X142200000Y-102400000D03*
%TO.N,/GPIO1*%
X145200000Y-86200000D03*
X141900000Y-101600000D03*
%TD*%
%TO.N,GND*%
D40*
X154400000Y-95700000D02*
X154400000Y-94000000D01*
X152700000Y-103200000D02*
X152700000Y-102400000D01*
X139200000Y-97370000D02*
X139200000Y-98600000D01*
D41*
X138850000Y-71050000D02*
X138900000Y-71100000D01*
D40*
X137500000Y-93180000D02*
X137500000Y-94100000D01*
X138160000Y-108500000D02*
X138800000Y-108500000D01*
X144512652Y-105200000D02*
X145200000Y-104512652D01*
D41*
X153510000Y-116490000D02*
X153500000Y-116500000D01*
X153510000Y-115200000D02*
X153510000Y-116490000D01*
D40*
X150100000Y-104160000D02*
X150100000Y-105000000D01*
X142660000Y-109760000D02*
X142660000Y-110380000D01*
X149060000Y-110160000D02*
X150620000Y-108600000D01*
D41*
X138000000Y-115200000D02*
X138000000Y-116500000D01*
X144800000Y-106200000D02*
X143900000Y-106200000D01*
D40*
X149060000Y-110380000D02*
X149060000Y-110160000D01*
X139300000Y-94350000D02*
X139300000Y-95600000D01*
D42*
X154610000Y-71050000D02*
X157996400Y-71050000D01*
D40*
X144000000Y-105200000D02*
X144512652Y-105200000D01*
X151800000Y-98600000D02*
X150100000Y-98600000D01*
X150100000Y-98600000D02*
X150000000Y-98500000D01*
X140140000Y-88810000D02*
X140140000Y-90140000D01*
X137660000Y-95840000D02*
X137700000Y-95800000D01*
X150620000Y-108600000D02*
X151400000Y-108600000D01*
X150810000Y-101300000D02*
X151500000Y-101300000D01*
D42*
X157996400Y-71050000D02*
X158503680Y-70542720D01*
D41*
X142700000Y-91700000D02*
X141100000Y-91700000D01*
D40*
X140140000Y-90140000D02*
X140200000Y-90200000D01*
X153960000Y-108500000D02*
X154700000Y-108500000D01*
X137660000Y-96700000D02*
X137660000Y-95840000D01*
X145200000Y-104512652D02*
X145200000Y-104100000D01*
X154400000Y-94000000D02*
X154300000Y-93900000D01*
X151400000Y-104200000D02*
X151400000Y-105000000D01*
X141600000Y-108700000D02*
X142660000Y-109760000D01*
X145200000Y-102150000D02*
X145200000Y-104100000D01*
X145700000Y-101650000D02*
X145200000Y-102150000D01*
X142500000Y-108700000D02*
X142600000Y-108600000D01*
D41*
X137110000Y-71050000D02*
X138850000Y-71050000D01*
D40*
X141600000Y-108700000D02*
X142500000Y-108700000D01*
%TO.N,+3.3V*%
D43*
X137720000Y-98000000D02*
X137720000Y-98820000D01*
X137500000Y-91500000D02*
X137600000Y-91400000D01*
X137720000Y-98820000D02*
X137800000Y-98900000D01*
D42*
X137110000Y-72320000D02*
X138880000Y-72320000D01*
X139300000Y-91400000D02*
X139300000Y-92900000D01*
D43*
X137500000Y-92220000D02*
X137500000Y-91500000D01*
D42*
X138880000Y-72320000D02*
X138900000Y-72300000D01*
%TO.N,/CC2*%
D40*
X147610000Y-110380000D02*
X147610000Y-108610000D01*
X148900000Y-108600000D02*
X149600000Y-108600000D01*
X147610000Y-108610000D02*
X147600000Y-108600000D01*
%TO.N,/CC1*%
X143620000Y-108600000D02*
X144100000Y-108600000D01*
X144610000Y-109110000D02*
X144610000Y-110380000D01*
X144100000Y-108600000D02*
X144610000Y-109110000D01*
%TO.N,/USB_D+*%
X144800000Y-107950000D02*
X144800000Y-107900000D01*
X144800000Y-107700000D02*
X144800000Y-107900000D01*
X146610000Y-109516681D02*
X146777440Y-109349241D01*
X145610000Y-109400000D02*
X145610000Y-110380000D01*
X146610000Y-110380000D02*
X146610000Y-109516681D01*
X145700000Y-104100000D02*
X145725000Y-104125000D01*
X145610000Y-109210000D02*
X145625000Y-109195000D01*
X145700000Y-104100000D02*
X145775000Y-104175000D01*
X145610000Y-109210000D02*
X145610000Y-109400000D01*
X145625000Y-108775000D02*
X144800000Y-107950000D01*
X145775000Y-104175000D02*
X145775000Y-106725000D01*
X145775000Y-106725000D02*
X144800000Y-107700000D01*
X145625000Y-109195000D02*
X145625000Y-108775000D01*
%TO.N,/USB_D-*%
X146200000Y-104100000D02*
X146125000Y-104175000D01*
X146800000Y-107375000D02*
X146125000Y-106700000D01*
X146125000Y-104175000D02*
X146125000Y-106700000D01*
X146110000Y-110380000D02*
X146110000Y-109192893D01*
X146200000Y-104100000D02*
X146175000Y-104125000D01*
X146110000Y-111250000D02*
X146110000Y-110380000D01*
X146010000Y-111350000D02*
X146110000Y-111250000D01*
X145110000Y-110380000D02*
X145110000Y-111250000D01*
X145210000Y-111350000D02*
X146010000Y-111350000D01*
X146800000Y-107900000D02*
X146800000Y-107375000D01*
X146800000Y-107950000D02*
X146800000Y-107900000D01*
X145975000Y-109057893D02*
X145975000Y-108775000D01*
X146110000Y-109192893D02*
X145975000Y-109057893D01*
X145975000Y-108775000D02*
X146800000Y-107950000D01*
X145110000Y-111250000D02*
X145210000Y-111350000D01*
%TO.N,/EN*%
X137200000Y-99800000D02*
X137200000Y-99900000D01*
X136700000Y-99300000D02*
X137200000Y-99800000D01*
X138300000Y-74250000D02*
X138300000Y-89800000D01*
X137640000Y-73590000D02*
X138300000Y-74250000D01*
X137110000Y-73590000D02*
X133610960Y-73590000D01*
X137200000Y-99900000D02*
X137200000Y-100200000D01*
X137400000Y-100000000D02*
X137200000Y-99800000D01*
X137200000Y-100200000D02*
X137200000Y-110200000D01*
X137110000Y-73590000D02*
X137640000Y-73590000D01*
X133610960Y-73590000D02*
X133103680Y-73082720D01*
X137300000Y-100000000D02*
X137400000Y-100000000D01*
X137400000Y-100000000D02*
X138350000Y-100000000D01*
X137400000Y-100000000D02*
X137200000Y-100200000D01*
X137200000Y-110200000D02*
X138000000Y-111000000D01*
X136700000Y-91400000D02*
X136700000Y-99300000D01*
X138300000Y-89800000D02*
X136700000Y-91400000D01*
%TO.N,/~{RTS}*%
X139400000Y-102300000D02*
X139300000Y-102400000D01*
X143175000Y-101075000D02*
X142075000Y-101075000D01*
X138850000Y-105400000D02*
X138200000Y-104750000D01*
X139400000Y-101300000D02*
X139400000Y-102300000D01*
X138200000Y-104750000D02*
X138200000Y-102800000D01*
X141800000Y-100800000D02*
X141400000Y-100800000D01*
X143250000Y-101150000D02*
X143175000Y-101075000D01*
X138200000Y-102800000D02*
X138600000Y-102400000D01*
X138600000Y-102400000D02*
X139300000Y-102400000D01*
X142075000Y-101075000D02*
X141800000Y-100800000D01*
X141700000Y-105400000D02*
X138850000Y-105400000D01*
%TO.N,Net-(Q2-B)*%
X141700000Y-106420000D02*
X141280000Y-106000000D01*
X139150000Y-106000000D02*
X138350000Y-106800000D01*
X141280000Y-106000000D02*
X139150000Y-106000000D01*
%TO.N,Net-(Q1-B)*%
X140250000Y-101630000D02*
X140250000Y-100000000D01*
X141700000Y-103080000D02*
X140250000Y-101630000D01*
%TO.N,Net-(U1-VDD)*%
X149400000Y-105800000D02*
X152500000Y-105800000D01*
X146700000Y-104700000D02*
X146700000Y-104100000D01*
X152700000Y-105600000D02*
X152700000Y-104160000D01*
X147100000Y-105100000D02*
X146700000Y-104700000D01*
X152500000Y-105800000D02*
X152700000Y-105600000D01*
%TO.N,/GPIO0*%
X153510000Y-109510000D02*
X153000000Y-109000000D01*
X141050000Y-107600000D02*
X143500000Y-107600000D01*
X149700000Y-107600000D02*
X152100000Y-107600000D01*
X152100000Y-107600000D02*
X153000000Y-108500000D01*
X153510000Y-109510000D02*
X153510000Y-111000000D01*
X153000000Y-109000000D02*
X153000000Y-108500000D01*
X154610000Y-91610000D02*
X154610000Y-87560000D01*
X156200000Y-106700000D02*
X154800000Y-106700000D01*
X154800000Y-106700000D02*
X153000000Y-108500000D01*
X155800000Y-100200000D02*
X155800000Y-100859040D01*
X155800000Y-100859040D02*
X158503680Y-103562720D01*
X140250000Y-106800000D02*
X141050000Y-107600000D01*
X155550000Y-92550000D02*
X154610000Y-91610000D01*
%TO.N,/GPIO36*%
X133866400Y-74860000D02*
X133103680Y-75622720D01*
X137110000Y-74860000D02*
X133866400Y-74860000D01*
%TO.N,/GPIO39*%
X137110000Y-76130000D02*
X136070000Y-76130000D01*
X134037280Y-78162720D02*
X133103680Y-78162720D01*
X136070000Y-76130000D02*
X134037280Y-78162720D01*
%TO.N,/GPIO34*%
X133103680Y-80456320D02*
X133103680Y-80702720D01*
X136160000Y-77400000D02*
X133103680Y-80456320D01*
X137110000Y-77400000D02*
X136160000Y-77400000D01*
%TO.N,/GPIO35*%
X136160000Y-78670000D02*
X134403680Y-80426320D01*
X134403680Y-80426320D02*
X134403680Y-81942720D01*
X137110000Y-78670000D02*
X136160000Y-78670000D01*
X134403680Y-81942720D02*
X133103680Y-83242720D01*
%TO.N,/GPIO32*%
X136260000Y-79940000D02*
X134803680Y-81396320D01*
X134803680Y-81396320D02*
X134803680Y-84082720D01*
X137110000Y-79940000D02*
X136260000Y-79940000D01*
X134803680Y-84082720D02*
X133103680Y-85782720D01*
%TO.N,/GPIO33*%
X135203680Y-82296320D02*
X135203680Y-84248406D01*
X134403680Y-85409928D02*
X134403680Y-86155512D01*
X134400000Y-86159192D02*
X134400000Y-87026400D01*
X134400000Y-87026400D02*
X133103680Y-88322720D01*
X136290000Y-81210000D02*
X135203680Y-82296320D01*
X135203680Y-84248406D02*
X134400000Y-85052086D01*
X137110000Y-81210000D02*
X136290000Y-81210000D01*
X134400000Y-85406248D02*
X134403680Y-85409928D01*
X134400000Y-85052086D02*
X134400000Y-85406248D01*
X134403680Y-86155512D02*
X134400000Y-86159192D01*
%TO.N,/GPIO25*%
X134800000Y-85217772D02*
X134800000Y-85240562D01*
X134803680Y-86321197D02*
X134800000Y-86324877D01*
X134800000Y-85240562D02*
X134803680Y-85244243D01*
X134803680Y-85244243D02*
X134803680Y-86321197D01*
X134403680Y-87949928D02*
X134403680Y-89562720D01*
X137110000Y-82480000D02*
X136160000Y-82480000D01*
X134800000Y-86324877D02*
X134800000Y-87192085D01*
X136160000Y-82480000D02*
X135603680Y-83036320D01*
X134800000Y-87192085D02*
X134400000Y-87592085D01*
X135603680Y-83036320D02*
X135603680Y-84414092D01*
X134400000Y-87946248D02*
X134403680Y-87949928D01*
X134400000Y-87592085D02*
X134400000Y-87946248D01*
X135603680Y-84414092D02*
X134800000Y-85217772D01*
X134403680Y-89562720D02*
X133103680Y-90862720D01*
%TO.N,/GPIO26*%
X135200000Y-87357772D02*
X134803680Y-87754092D01*
X134803680Y-89728405D02*
X134500000Y-90032086D01*
X134500000Y-90032086D02*
X134500000Y-92006400D01*
X134500000Y-92006400D02*
X133103680Y-93402720D01*
X134803680Y-87754092D02*
X134803680Y-89728405D01*
X136160000Y-83750000D02*
X136003680Y-83906320D01*
X135200000Y-86490562D02*
X135200000Y-87357772D01*
X136003680Y-84579778D02*
X135203680Y-85379778D01*
X136003680Y-83906320D02*
X136003680Y-84579778D01*
X137110000Y-83750000D02*
X136160000Y-83750000D01*
X135203680Y-86486882D02*
X135200000Y-86490562D01*
X135203680Y-85379778D02*
X135203680Y-86486882D01*
%TO.N,/GPIO27*%
X135600000Y-86656247D02*
X135600000Y-87523458D01*
X135603680Y-86652567D02*
X135600000Y-86656247D01*
X134900000Y-94146400D02*
X133103680Y-95942720D01*
X136580000Y-85020000D02*
X135603680Y-85996320D01*
X135203680Y-89894090D02*
X134900000Y-90197771D01*
X135603680Y-85996320D02*
X135603680Y-86652567D01*
X137110000Y-85020000D02*
X136580000Y-85020000D01*
X135203680Y-87919778D02*
X135203680Y-89894090D01*
X134900000Y-90197771D02*
X134900000Y-94146400D01*
X135600000Y-87523458D02*
X135203680Y-87919778D01*
%TO.N,/GPIO14*%
X135300000Y-96286400D02*
X133103680Y-98482720D01*
X136531933Y-86290000D02*
X136000000Y-86821933D01*
X136000000Y-88003680D02*
X135603680Y-88400000D01*
X136000000Y-86821933D02*
X136000000Y-88003680D01*
X135300000Y-90500000D02*
X135300000Y-96286400D01*
X135603680Y-88400000D02*
X135603680Y-90196320D01*
X135603680Y-90196320D02*
X135300000Y-90500000D01*
X137110000Y-86290000D02*
X136531933Y-86290000D01*
%TO.N,/GPIO12*%
X136003680Y-88666320D02*
X136003680Y-90362006D01*
X135700000Y-90665686D02*
X135700000Y-96452086D01*
X134700000Y-99426400D02*
X133103680Y-101022720D01*
X135700000Y-96452086D02*
X134700000Y-97452086D01*
X136003680Y-90362006D02*
X135700000Y-90665686D01*
X137110000Y-87560000D02*
X136003680Y-88666320D01*
X134700000Y-97452086D02*
X134700000Y-99426400D01*
%TO.N,/GPIO13*%
X136120000Y-90811372D02*
X137200000Y-89731372D01*
X133103680Y-106102720D02*
X136120000Y-103086400D01*
X141400000Y-88800000D02*
X141410000Y-88810000D01*
X137200000Y-89731372D02*
X137200000Y-89100000D01*
X141400000Y-87400000D02*
X141400000Y-88800000D01*
X136120000Y-103086400D02*
X136120000Y-90811372D01*
%TO.N,/GPIO15*%
X158503680Y-107903680D02*
X158503680Y-108642720D01*
X150300000Y-88810000D02*
X150300000Y-92900000D01*
X154100000Y-103500000D02*
X158503680Y-107903680D01*
X150300000Y-92900000D02*
X151700000Y-94300000D01*
X154100000Y-102400000D02*
X154100000Y-103500000D01*
%TO.N,/GPIO2*%
X152600000Y-93700000D02*
X151570000Y-92670000D01*
X151570000Y-92670000D02*
X151570000Y-88810000D01*
X158503680Y-106102720D02*
X158503680Y-105403680D01*
X154600000Y-101500000D02*
X154600000Y-100900000D01*
X158503680Y-105403680D02*
X154600000Y-101500000D01*
%TO.N,/GPIO4*%
X156100000Y-93900000D02*
X156100000Y-94700000D01*
X156100000Y-97300000D02*
X156100000Y-98619040D01*
X153660000Y-86290000D02*
X153200000Y-86750000D01*
X153200000Y-91000000D02*
X156100000Y-93900000D01*
X153200000Y-86750000D02*
X153200000Y-91000000D01*
X156100000Y-98619040D02*
X158503680Y-101022720D01*
X154610000Y-86290000D02*
X153660000Y-86290000D01*
%TO.N,/GPIO16*%
X153660000Y-85020000D02*
X152500000Y-86180000D01*
X155550000Y-94250000D02*
X155550000Y-94927818D01*
X152500000Y-91200000D02*
X155550000Y-94250000D01*
X152500000Y-86180000D02*
X152500000Y-91200000D01*
X155550000Y-94927818D02*
X158503680Y-97881498D01*
X154610000Y-85020000D02*
X153660000Y-85020000D01*
X158503680Y-97881498D02*
X158503680Y-98482720D01*
%TO.N,/GPIO17*%
X156637995Y-92237995D02*
X157200000Y-92800000D01*
X156637995Y-90400000D02*
X156637995Y-92237995D01*
X155650000Y-83750000D02*
X156000000Y-84100000D01*
X157200000Y-94639040D02*
X158503680Y-95942720D01*
X156000000Y-87927690D02*
X156234316Y-88162005D01*
X156234316Y-88162005D02*
X156234316Y-89996321D01*
X156000000Y-84100000D02*
X156000000Y-87927690D01*
X157200000Y-92800000D02*
X157200000Y-94639040D01*
X154610000Y-83750000D02*
X155650000Y-83750000D01*
X156234316Y-89996321D02*
X156637995Y-90400000D01*
%TO.N,/GPIO5*%
X157037995Y-89962720D02*
X157037995Y-91937035D01*
X156634315Y-87996320D02*
X156634315Y-89559041D01*
X157037995Y-91937035D02*
X158503680Y-93402720D01*
X156634315Y-89559041D02*
X157037995Y-89962720D01*
X156400000Y-83065686D02*
X156400000Y-87762005D01*
X155814314Y-82480000D02*
X156400000Y-83065686D01*
X154610000Y-82480000D02*
X155814314Y-82480000D01*
X156400000Y-87762005D02*
X156634315Y-87996320D01*
%TO.N,/GPIO18*%
X157203680Y-89562720D02*
X158503680Y-90862720D01*
X157203680Y-88000000D02*
X157203680Y-89562720D01*
X155150000Y-81200000D02*
X155900000Y-81200000D01*
X155900000Y-81200000D02*
X156300000Y-81600000D01*
X154610000Y-81210000D02*
X155140000Y-81210000D01*
X156300000Y-82400000D02*
X156800000Y-82900000D01*
X156300000Y-81600000D02*
X156300000Y-82400000D01*
X156800000Y-87596320D02*
X157203680Y-88000000D01*
X155140000Y-81210000D02*
X155150000Y-81200000D01*
X156800000Y-82900000D02*
X156800000Y-87596320D01*
%TO.N,/GPIO19*%
X156700000Y-82004726D02*
X157200000Y-82504726D01*
X157200000Y-87019040D02*
X158503680Y-88322720D01*
X157200000Y-82504726D02*
X157200000Y-87019040D01*
X154610000Y-79940000D02*
X155440000Y-79940000D01*
X156700000Y-81200000D02*
X156700000Y-82004726D01*
X155440000Y-79940000D02*
X156700000Y-81200000D01*
%TO.N,/GPIO21*%
X156600000Y-78440000D02*
X156600000Y-79165686D01*
X154610000Y-77400000D02*
X155560000Y-77400000D01*
X156600000Y-79165686D02*
X157100000Y-79665686D01*
X157100000Y-81839040D02*
X158503680Y-83242720D01*
X157100000Y-79665686D02*
X157100000Y-81839040D01*
X155560000Y-77400000D02*
X156600000Y-78440000D01*
%TO.N,/GPIO3*%
X142200000Y-102400000D02*
X142450000Y-102150000D01*
X155560000Y-76130000D02*
X157000000Y-77570000D01*
X153660000Y-76130000D02*
X152900000Y-76890000D01*
X154610000Y-76130000D02*
X153660000Y-76130000D01*
X146000000Y-86700000D02*
X145800000Y-86700000D01*
X154610000Y-76130000D02*
X155560000Y-76130000D01*
X157000000Y-77570000D02*
X157000000Y-79000000D01*
X157000000Y-79000000D02*
X158503680Y-80503680D01*
X152900000Y-79800000D02*
X146000000Y-86700000D01*
X158503680Y-80503680D02*
X158503680Y-80702720D01*
X152900000Y-76890000D02*
X152900000Y-79800000D01*
X142450000Y-102150000D02*
X143250000Y-102150000D01*
%TO.N,/GPIO1*%
X152500000Y-76440000D02*
X154080000Y-74860000D01*
X155560000Y-74860000D02*
X158503680Y-77803680D01*
X154080000Y-74860000D02*
X154610000Y-74860000D01*
X145200000Y-86200000D02*
X152500000Y-78900000D01*
X158503680Y-77803680D02*
X158503680Y-78162720D01*
X152500000Y-78900000D02*
X152500000Y-76440000D01*
X154610000Y-74860000D02*
X155560000Y-74860000D01*
X143250000Y-101650000D02*
X141950000Y-101650000D01*
X141950000Y-101650000D02*
X141900000Y-101600000D01*
%TO.N,/GPIO22*%
X156470960Y-73590000D02*
X158503680Y-75622720D01*
X154610000Y-73590000D02*
X156470960Y-73590000D01*
%TO.N,/GPIO23*%
X154610000Y-72320000D02*
X157740960Y-72320000D01*
X157740960Y-72320000D02*
X158503680Y-73082720D01*
%TO.N,/~{DTR}*%
X141700000Y-104100000D02*
X141400000Y-104400000D01*
X142650000Y-103150000D02*
X141700000Y-104100000D01*
X141400000Y-104400000D02*
X139300000Y-104400000D01*
X143250000Y-103150000D02*
X142650000Y-103150000D01*
%TO.N,Net-(D2-A)*%
X140400000Y-97420000D02*
X140220000Y-97420000D01*
X140220000Y-97420000D02*
X139200000Y-96400000D01*
%TO.N,VBUS*%
D41*
X133103680Y-116262720D02*
X135766400Y-113600000D01*
D43*
X147545406Y-111750000D02*
X148260000Y-111035406D01*
X151400000Y-102300000D02*
X151400000Y-103240000D01*
X148300000Y-104400000D02*
X148300000Y-103300000D01*
D41*
X154300000Y-98750000D02*
X154400000Y-98650000D01*
D40*
X148150000Y-103150000D02*
X148240000Y-103240000D01*
D43*
X153300000Y-100400000D02*
X152900000Y-100000000D01*
D40*
X140500000Y-96300000D02*
X142700000Y-96300000D01*
D43*
X143460000Y-111035406D02*
X144174594Y-111750000D01*
X148260000Y-110380000D02*
X148260000Y-107460000D01*
X146300000Y-96400000D02*
X146200000Y-96400000D01*
X151400000Y-102300000D02*
X153300000Y-100400000D01*
D40*
X148240000Y-103240000D02*
X151400000Y-103240000D01*
D43*
X149900000Y-100000000D02*
X146300000Y-96400000D01*
X146800000Y-106000000D02*
X147500000Y-106000000D01*
X148300000Y-103300000D02*
X148150000Y-103150000D01*
X146100000Y-96300000D02*
X142700000Y-96300000D01*
X153300000Y-100400000D02*
X154400000Y-99300000D01*
X146200000Y-96400000D02*
X146100000Y-96300000D01*
X152900000Y-100000000D02*
X149900000Y-100000000D01*
X148300000Y-104400000D02*
X148000000Y-104100000D01*
X154400000Y-99300000D02*
X154400000Y-98527500D01*
X147500000Y-106000000D02*
X148300000Y-105200000D01*
D41*
X144700000Y-113600000D02*
X145900000Y-112400000D01*
D43*
X150810000Y-102300000D02*
X151400000Y-102300000D01*
D41*
X135766400Y-113600000D02*
X144700000Y-113600000D01*
D43*
X148000000Y-104100000D02*
X147200000Y-104100000D01*
X143460000Y-110380000D02*
X143460000Y-111035406D01*
X148260000Y-107460000D02*
X146800000Y-106000000D01*
D40*
X140400000Y-96400000D02*
X140500000Y-96300000D01*
D43*
X148260000Y-111035406D02*
X148260000Y-110380000D01*
D41*
X145900000Y-112400000D02*
X145900000Y-111800000D01*
D43*
X144174594Y-111750000D02*
X147545406Y-111750000D01*
X148300000Y-105200000D02*
X148300000Y-104400000D01*
%TO.N,/~{SUSPEND}*%
D44*
X148150000Y-101650000D02*
X148950000Y-101650000D01*
X149300000Y-101300000D02*
X149790000Y-101300000D01*
X148950000Y-101650000D02*
X149300000Y-101300000D01*
%TO.N,/~{RST}*%
D40*
X149300000Y-102300000D02*
X149790000Y-102300000D01*
X148950000Y-102650000D02*
X149300000Y-102300000D01*
X148150000Y-102650000D02*
X148950000Y-102650000D01*
%TD*%
%TA.AperFunction,Conductor*%
%TO.N,+3.3V*%
G36*
X149858691Y-91618907D02*
G01*
X149894655Y-91668407D01*
X149899500Y-91699000D01*
X149899500Y-92955383D01*
X149900000Y-92963013D01*
X149900000Y-94800000D01*
X151438498Y-94800000D01*
X151481134Y-94811423D01*
X151481517Y-94810500D01*
X151487510Y-94812982D01*
X151487512Y-94812982D01*
X151487515Y-94812984D01*
X151627525Y-94850500D01*
X151627526Y-94850500D01*
X151772474Y-94850500D01*
X151772475Y-94850500D01*
X151912485Y-94812984D01*
X151912487Y-94812982D01*
X151912489Y-94812982D01*
X151918483Y-94810500D01*
X151918865Y-94811423D01*
X151961502Y-94800000D01*
X153001000Y-94800000D01*
X153059191Y-94818907D01*
X153095155Y-94868407D01*
X153100000Y-94899000D01*
X153100000Y-96301000D01*
X153081093Y-96359191D01*
X153031593Y-96395155D01*
X153001000Y-96400000D01*
X146978111Y-96400000D01*
X146919920Y-96381093D01*
X146908108Y-96371004D01*
X146576614Y-96039511D01*
X146576609Y-96039507D01*
X146473890Y-95980202D01*
X146473886Y-95980200D01*
X146449672Y-95973712D01*
X146449671Y-95973712D01*
X146422213Y-95966354D01*
X146422204Y-95966348D01*
X146382005Y-95943140D01*
X146381760Y-95943460D01*
X146379332Y-95941596D01*
X146377836Y-95940733D01*
X146376614Y-95939511D01*
X146376611Y-95939509D01*
X146376609Y-95939507D01*
X146273890Y-95880202D01*
X146273886Y-95880200D01*
X146249673Y-95873712D01*
X146249673Y-95873713D01*
X146159309Y-95849500D01*
X146159307Y-95849500D01*
X145799000Y-95849500D01*
X145740809Y-95830593D01*
X145739600Y-95829700D01*
X144900001Y-95200001D01*
X144900000Y-95200000D01*
X144899998Y-95200000D01*
X141499000Y-95200000D01*
X141440809Y-95181093D01*
X141404845Y-95131593D01*
X141400000Y-95101000D01*
X141400000Y-92999000D01*
X141418907Y-92940809D01*
X141468407Y-92904845D01*
X141499000Y-92900000D01*
X144900000Y-92900000D01*
X145736689Y-92260179D01*
X146573377Y-91620359D01*
X146631087Y-91600030D01*
X146633515Y-91600000D01*
X149800500Y-91600000D01*
X149858691Y-91618907D01*
G37*
%TD.AperFunction*%
%TD*%
%TA.AperFunction,Conductor*%
%TO.N,GND*%
G36*
X156862400Y-106853360D02*
G01*
X156919441Y-106885834D01*
X157678286Y-107644679D01*
X157699435Y-107672930D01*
X157706087Y-107685112D01*
X157720939Y-107753385D01*
X157696523Y-107818850D01*
X157696517Y-107818857D01*
X157689918Y-107827671D01*
X157659548Y-107856456D01*
X157611895Y-107888297D01*
X157536726Y-107938524D01*
X157529635Y-107943262D01*
X157404222Y-108068675D01*
X157404217Y-108068681D01*
X157404216Y-108068682D01*
X157305674Y-108216159D01*
X157305665Y-108216174D01*
X157305657Y-108216192D01*
X157237789Y-108380042D01*
X157237781Y-108380065D01*
X157237779Y-108380072D01*
X157203180Y-108554019D01*
X157203180Y-108731419D01*
X157237779Y-108905366D01*
X157237781Y-108905373D01*
X157237789Y-108905396D01*
X157305657Y-109069246D01*
X157305665Y-109069264D01*
X157305674Y-109069279D01*
X157404216Y-109216756D01*
X157404217Y-109216757D01*
X157404222Y-109216763D01*
X157529635Y-109342176D01*
X157529641Y-109342181D01*
X157529645Y-109342184D01*
X157677126Y-109440729D01*
X157677139Y-109440736D01*
X157796319Y-109490101D01*
X157841014Y-109508614D01*
X157841016Y-109508614D01*
X157841021Y-109508616D01*
X158007360Y-109541702D01*
X158010083Y-109542424D01*
X158014986Y-109543220D01*
X158992373Y-109543220D01*
X158996494Y-109543220D01*
X159004341Y-109540838D01*
X159060129Y-109529742D01*
X159166338Y-109508616D01*
X159166340Y-109508614D01*
X159166342Y-109508614D01*
X159166346Y-109508614D01*
X159170407Y-109506931D01*
X159177514Y-109503992D01*
X159177549Y-109503973D01*
X159311973Y-109448294D01*
X159330220Y-109440736D01*
X159330220Y-109440735D01*
X159330227Y-109440733D01*
X159330231Y-109440730D01*
X159332566Y-109439763D01*
X159332581Y-109439757D01*
X159341840Y-109435921D01*
X159350727Y-109427035D01*
X159371256Y-109413318D01*
X159387388Y-109402539D01*
X159395463Y-109397143D01*
X159395466Y-109397142D01*
X159395468Y-109397140D01*
X159427304Y-109381909D01*
X159435598Y-109379313D01*
X159440303Y-109377840D01*
X159510162Y-109376596D01*
X159569603Y-109413318D01*
X159598275Y-109468730D01*
X159600103Y-109476784D01*
X159603179Y-109504230D01*
X159603179Y-110317269D01*
X159598153Y-110352214D01*
X159594315Y-110365281D01*
X159586739Y-110377067D01*
X159583638Y-110390734D01*
X159568220Y-110405877D01*
X159556536Y-110424056D01*
X159543788Y-110429876D01*
X159533792Y-110439695D01*
X159512636Y-110444099D01*
X159492978Y-110453075D01*
X159477732Y-110451366D01*
X159465390Y-110453936D01*
X159430970Y-110446126D01*
X159425680Y-110444099D01*
X159423255Y-110443169D01*
X159398738Y-110430483D01*
X159330238Y-110384713D01*
X159330233Y-110384710D01*
X159330232Y-110384709D01*
X159330222Y-110384703D01*
X159166356Y-110316829D01*
X159166333Y-110316821D01*
X159166326Y-110316819D01*
X158992378Y-110282220D01*
X158992374Y-110282220D01*
X158992371Y-110282220D01*
X158014989Y-110282220D01*
X158014986Y-110282220D01*
X158014981Y-110282220D01*
X157841032Y-110316820D01*
X157841025Y-110316821D01*
X157841002Y-110316829D01*
X157677152Y-110384697D01*
X157677134Y-110384705D01*
X157677119Y-110384714D01*
X157529642Y-110483256D01*
X157529641Y-110483257D01*
X157529635Y-110483262D01*
X157404222Y-110608675D01*
X157404217Y-110608681D01*
X157404216Y-110608682D01*
X157305674Y-110756159D01*
X157305665Y-110756174D01*
X157305657Y-110756192D01*
X157237789Y-110920042D01*
X157237781Y-110920065D01*
X157237779Y-110920072D01*
X157203180Y-111094019D01*
X157203180Y-111271419D01*
X157237779Y-111445366D01*
X157237781Y-111445373D01*
X157237789Y-111445396D01*
X157305657Y-111609246D01*
X157305665Y-111609264D01*
X157305674Y-111609279D01*
X157404216Y-111756756D01*
X157404217Y-111756757D01*
X157404222Y-111756763D01*
X157529635Y-111882176D01*
X157529641Y-111882181D01*
X157529645Y-111882184D01*
X157677126Y-111980729D01*
X157677139Y-111980736D01*
X157785209Y-112025499D01*
X157841014Y-112048614D01*
X157841016Y-112048614D01*
X157841021Y-112048616D01*
X158007360Y-112081702D01*
X158010083Y-112082424D01*
X158014986Y-112083220D01*
X158992373Y-112083220D01*
X158996494Y-112083220D01*
X159004347Y-112080837D01*
X159050362Y-112071684D01*
X159050363Y-112071684D01*
X159068862Y-112068004D01*
X159166338Y-112048616D01*
X159166341Y-112048614D01*
X159166346Y-112048614D01*
X159306215Y-111990678D01*
X159330220Y-111980736D01*
X159330220Y-111980735D01*
X159330227Y-111980733D01*
X159330231Y-111980730D01*
X159332571Y-111979761D01*
X159332572Y-111979760D01*
X159332579Y-111979758D01*
X159341836Y-111975924D01*
X159350721Y-111967038D01*
X159379442Y-111947847D01*
X159395471Y-111937137D01*
X159427301Y-111921911D01*
X159440300Y-111917841D01*
X159458133Y-111917522D01*
X159462149Y-111916266D01*
X159466204Y-111917378D01*
X159510159Y-111916595D01*
X159569601Y-111953315D01*
X159598275Y-112008730D01*
X159600103Y-112016784D01*
X159603179Y-112044230D01*
X159603179Y-112857008D01*
X159603178Y-112857014D01*
X159603179Y-112857018D01*
X159598747Y-112887822D01*
X159598153Y-112891953D01*
X159594315Y-112905020D01*
X159556536Y-112963795D01*
X159492978Y-112992814D01*
X159430970Y-112985865D01*
X159423256Y-112982909D01*
X159398738Y-112970222D01*
X159326558Y-112921993D01*
X159326553Y-112921990D01*
X159326552Y-112921989D01*
X159326542Y-112921983D01*
X159162676Y-112854109D01*
X159162653Y-112854101D01*
X159162646Y-112854099D01*
X158988698Y-112819500D01*
X158988694Y-112819500D01*
X158988691Y-112819500D01*
X158011309Y-112819500D01*
X158011306Y-112819500D01*
X158011301Y-112819500D01*
X157837352Y-112854100D01*
X157837345Y-112854101D01*
X157837322Y-112854109D01*
X157673472Y-112921977D01*
X157673454Y-112921985D01*
X157673439Y-112921994D01*
X157525962Y-113020536D01*
X157525961Y-113020537D01*
X157525955Y-113020542D01*
X157400542Y-113145955D01*
X157400537Y-113145961D01*
X157400536Y-113145962D01*
X157301994Y-113293439D01*
X157301985Y-113293454D01*
X157301977Y-113293472D01*
X157234111Y-113457320D01*
X157234109Y-113457322D01*
X157234101Y-113457345D01*
X157234099Y-113457352D01*
X157199500Y-113631299D01*
X157199500Y-113808699D01*
X157234099Y-113982646D01*
X157234101Y-113982653D01*
X157234109Y-113982676D01*
X157301977Y-114146526D01*
X157301985Y-114146544D01*
X157301994Y-114146559D01*
X157400536Y-114294036D01*
X157400537Y-114294037D01*
X157400542Y-114294043D01*
X157525955Y-114419456D01*
X157525961Y-114419461D01*
X157525965Y-114419464D01*
X157673446Y-114518009D01*
X157673459Y-114518016D01*
X157709579Y-114532977D01*
X157795144Y-114568419D01*
X157795182Y-114568434D01*
X157796363Y-114568923D01*
X157837334Y-114585894D01*
X157837336Y-114585894D01*
X157837341Y-114585896D01*
X158003680Y-114618982D01*
X158006403Y-114619704D01*
X158011306Y-114620500D01*
X158988693Y-114620500D01*
X158992814Y-114620500D01*
X159000667Y-114618117D01*
X159046682Y-114608964D01*
X159046683Y-114608964D01*
X159162653Y-114585897D01*
X159162653Y-114585896D01*
X159162658Y-114585896D01*
X159162661Y-114585894D01*
X159162666Y-114585894D01*
X159165926Y-114584543D01*
X159173832Y-114581274D01*
X159173870Y-114581252D01*
X159326547Y-114518013D01*
X159395470Y-114471959D01*
X159427304Y-114456730D01*
X159433378Y-114454828D01*
X159440303Y-114452661D01*
X159510162Y-114451417D01*
X159569603Y-114488139D01*
X159598275Y-114543551D01*
X159600103Y-114551605D01*
X159603179Y-114579051D01*
X159603179Y-115397008D01*
X159598153Y-115431953D01*
X159594315Y-115445020D01*
X159586739Y-115456806D01*
X159583638Y-115470473D01*
X159568220Y-115485616D01*
X159556536Y-115503795D01*
X159543788Y-115509615D01*
X159533792Y-115519434D01*
X159512636Y-115523838D01*
X159492978Y-115532814D01*
X159477732Y-115531105D01*
X159465390Y-115533675D01*
X159430970Y-115525865D01*
X159425680Y-115523838D01*
X159423255Y-115522908D01*
X159398738Y-115510222D01*
X159326558Y-115461993D01*
X159326553Y-115461990D01*
X159326552Y-115461989D01*
X159326542Y-115461983D01*
X159162676Y-115394109D01*
X159162653Y-115394101D01*
X159162646Y-115394099D01*
X158988698Y-115359500D01*
X158988694Y-115359500D01*
X158988691Y-115359500D01*
X158011309Y-115359500D01*
X158011306Y-115359500D01*
X158011301Y-115359500D01*
X157837352Y-115394100D01*
X157837345Y-115394101D01*
X157837322Y-115394109D01*
X157673472Y-115461977D01*
X157673454Y-115461985D01*
X157673439Y-115461994D01*
X157525962Y-115560536D01*
X157525961Y-115560537D01*
X157525955Y-115560542D01*
X157400542Y-115685955D01*
X157400537Y-115685961D01*
X157400536Y-115685962D01*
X157301994Y-115833439D01*
X157301985Y-115833454D01*
X157301977Y-115833472D01*
X157234109Y-115997322D01*
X157234101Y-115997345D01*
X157234099Y-115997352D01*
X157199500Y-116171299D01*
X157199500Y-116348699D01*
X157234099Y-116522646D01*
X157234101Y-116522653D01*
X157234109Y-116522676D01*
X157301977Y-116686526D01*
X157301983Y-116686540D01*
X157301990Y-116686553D01*
X157347401Y-116754514D01*
X157362629Y-116786349D01*
X157366698Y-116799347D01*
X157367941Y-116869205D01*
X157331217Y-116928646D01*
X157275810Y-116957316D01*
X157273315Y-116957882D01*
X157267752Y-116959144D01*
X157240308Y-116962220D01*
X134369129Y-116962220D01*
X134334189Y-116957196D01*
X134321120Y-116953358D01*
X134309329Y-116945779D01*
X134295661Y-116942678D01*
X134280519Y-116927263D01*
X134262344Y-116915581D01*
X134256522Y-116902831D01*
X134246700Y-116892832D01*
X134242296Y-116871679D01*
X134233321Y-116852024D01*
X134235030Y-116836773D01*
X134232460Y-116824428D01*
X134240268Y-116790019D01*
X134243231Y-116782287D01*
X134255912Y-116757782D01*
X134301693Y-116689267D01*
X134369574Y-116525386D01*
X134404180Y-116351411D01*
X134404180Y-116174029D01*
X134404180Y-116174026D01*
X134404180Y-116173921D01*
X134404111Y-116173615D01*
X134403923Y-116172740D01*
X134369576Y-116000061D01*
X134369573Y-116000052D01*
X134368446Y-115997332D01*
X134355612Y-115966347D01*
X134355612Y-115966346D01*
X134321577Y-115884177D01*
X134321576Y-115884174D01*
X134321575Y-115884173D01*
X134312850Y-115849984D01*
X134311178Y-115834433D01*
X134323585Y-115765681D01*
X134329680Y-115753504D01*
X134352879Y-115721332D01*
X135924790Y-114149423D01*
X135953040Y-114128275D01*
X135976132Y-114115667D01*
X136035557Y-114100500D01*
X144765890Y-114100500D01*
X144765892Y-114100500D01*
X144893186Y-114066392D01*
X145007314Y-114000500D01*
X146189870Y-112817940D01*
X146189877Y-112817936D01*
X146207313Y-112800500D01*
X146207314Y-112800500D01*
X146300500Y-112707314D01*
X146366392Y-112593186D01*
X146400500Y-112465892D01*
X146400500Y-112342329D01*
X146405523Y-112307393D01*
X146409927Y-112292395D01*
X146447672Y-112233644D01*
X146447700Y-112233619D01*
X146447699Y-112233619D01*
X146449041Y-112232456D01*
X146503920Y-112204977D01*
X146511479Y-112203333D01*
X146537832Y-112200500D01*
X147604714Y-112200500D01*
X147604715Y-112200500D01*
X147695079Y-112176286D01*
X147719293Y-112169799D01*
X147822020Y-112110489D01*
X148122230Y-111810277D01*
X148150472Y-111789135D01*
X148162655Y-111782483D01*
X148230926Y-111767631D01*
X148296390Y-111792046D01*
X148296395Y-111792050D01*
X148305171Y-111798620D01*
X148322133Y-111815890D01*
X148322427Y-111815597D01*
X148329495Y-111822665D01*
X148427335Y-111920505D01*
X148427336Y-111920506D01*
X148427338Y-111920507D01*
X148474679Y-111947839D01*
X148547164Y-111989688D01*
X148680817Y-112025500D01*
X148680819Y-112025500D01*
X148819181Y-112025500D01*
X148819183Y-112025500D01*
X148952836Y-111989688D01*
X149072665Y-111920505D01*
X149170505Y-111822665D01*
X149239688Y-111702836D01*
X149275500Y-111569183D01*
X149275500Y-111430817D01*
X149239688Y-111297164D01*
X149170505Y-111177335D01*
X149072665Y-111079495D01*
X149072664Y-111079494D01*
X149072661Y-111079492D01*
X148965500Y-111017623D01*
X148964056Y-111016736D01*
X148962586Y-111015107D01*
X148960253Y-111013317D01*
X148943876Y-111004997D01*
X148923833Y-110992780D01*
X148911835Y-110979582D01*
X148896609Y-110970299D01*
X148876844Y-110941089D01*
X148876835Y-110941079D01*
X148876830Y-110941068D01*
X148872958Y-110933095D01*
X148860500Y-110878926D01*
X148860500Y-109855728D01*
X148859428Y-109844303D01*
X148857646Y-109825300D01*
X148857646Y-109825298D01*
X148812793Y-109697119D01*
X148812793Y-109697118D01*
X148745314Y-109605686D01*
X148728611Y-109574594D01*
X148727271Y-109570926D01*
X148724227Y-109564793D01*
X148726689Y-109563570D01*
X148710500Y-109508422D01*
X148710500Y-109292329D01*
X148710733Y-109290711D01*
X148715523Y-109257393D01*
X148716727Y-109253295D01*
X148719927Y-109242394D01*
X148757672Y-109183644D01*
X148757700Y-109183619D01*
X148757699Y-109183619D01*
X148759041Y-109182456D01*
X148813920Y-109154977D01*
X148821479Y-109153333D01*
X148847832Y-109150500D01*
X148972473Y-109150500D01*
X148972475Y-109150500D01*
X149084196Y-109120563D01*
X149119236Y-109116374D01*
X149142971Y-109116939D01*
X149196435Y-109130481D01*
X149198091Y-109131328D01*
X149208897Y-109138014D01*
X149209522Y-109138214D01*
X149209837Y-109138596D01*
X149215296Y-109141973D01*
X149259206Y-109174381D01*
X149296741Y-109187515D01*
X149383119Y-109217741D01*
X149390778Y-109218459D01*
X149412543Y-109220500D01*
X149787456Y-109220499D01*
X149816879Y-109217741D01*
X149940794Y-109174381D01*
X150046423Y-109096423D01*
X150124381Y-108990794D01*
X150147326Y-108925221D01*
X150167741Y-108866881D01*
X150167741Y-108866879D01*
X150168003Y-108864087D01*
X150170500Y-108837457D01*
X150170499Y-108362544D01*
X150167741Y-108333121D01*
X150124381Y-108209206D01*
X150124379Y-108209203D01*
X150120039Y-108200990D01*
X150120494Y-108200749D01*
X150110091Y-108181384D01*
X150105695Y-108169348D01*
X150101185Y-108099624D01*
X150135087Y-108038530D01*
X150191913Y-108006555D01*
X150201089Y-108004246D01*
X150231339Y-108000500D01*
X151864915Y-108000500D01*
X151899847Y-108005521D01*
X151925091Y-108012934D01*
X151977837Y-108044230D01*
X152370574Y-108436967D01*
X152391723Y-108465218D01*
X152404331Y-108488307D01*
X152419500Y-108547736D01*
X152419500Y-108723074D01*
X152422285Y-108752785D01*
X152422288Y-108752803D01*
X152422289Y-108752814D01*
X152422291Y-108752823D01*
X152422291Y-108752829D01*
X152462200Y-108866877D01*
X152466146Y-108878153D01*
X152466150Y-108878160D01*
X152534456Y-108970711D01*
X152545001Y-108984999D01*
X152545004Y-108985001D01*
X152551570Y-108991567D01*
X152551120Y-108992016D01*
X152566183Y-109006875D01*
X152583968Y-109030300D01*
X152604982Y-109073188D01*
X152626793Y-109154589D01*
X152653156Y-109200250D01*
X152679520Y-109245913D01*
X152679522Y-109245915D01*
X153060574Y-109626967D01*
X153081723Y-109655218D01*
X153094331Y-109678307D01*
X153109500Y-109737736D01*
X153109500Y-110157670D01*
X153104475Y-110192614D01*
X153100070Y-110207612D01*
X153062327Y-110266355D01*
X153060958Y-110267542D01*
X153006097Y-110295018D01*
X152998539Y-110296663D01*
X152972168Y-110299500D01*
X152662130Y-110299500D01*
X152662128Y-110299500D01*
X152661423Y-110299550D01*
X152659979Y-110299731D01*
X152602516Y-110305907D01*
X152487956Y-110348636D01*
X152471991Y-110354591D01*
X152467666Y-110356204D01*
X152467665Y-110356205D01*
X152352456Y-110442450D01*
X152352450Y-110442456D01*
X152266205Y-110557665D01*
X152266201Y-110557671D01*
X152266200Y-110557673D01*
X152215911Y-110692507D01*
X152215908Y-110692520D01*
X152209501Y-110752116D01*
X152209501Y-110752123D01*
X152209500Y-110752135D01*
X152209500Y-111247876D01*
X152209659Y-111249806D01*
X152209885Y-111251454D01*
X152215907Y-111307482D01*
X152243690Y-111381971D01*
X152266202Y-111442328D01*
X152266206Y-111442335D01*
X152309086Y-111499616D01*
X152352450Y-111557542D01*
X152352456Y-111557548D01*
X152381419Y-111579229D01*
X152467664Y-111643793D01*
X152467671Y-111643797D01*
X152602517Y-111694091D01*
X152602516Y-111694091D01*
X152609444Y-111694835D01*
X152662127Y-111700500D01*
X154357872Y-111700499D01*
X154417483Y-111694091D01*
X154552331Y-111643796D01*
X154667546Y-111557546D01*
X154753796Y-111442331D01*
X154804091Y-111307483D01*
X154810500Y-111247873D01*
X154810499Y-110752128D01*
X154804091Y-110692517D01*
X154804088Y-110692507D01*
X154772843Y-110608737D01*
X154772843Y-110608736D01*
X154753799Y-110557676D01*
X154753798Y-110557674D01*
X154753797Y-110557671D01*
X154753793Y-110557664D01*
X154679993Y-110459080D01*
X154667548Y-110442456D01*
X154667542Y-110442450D01*
X154595629Y-110388616D01*
X154552335Y-110356206D01*
X154552332Y-110356204D01*
X154552330Y-110356203D01*
X154552328Y-110356202D01*
X154417482Y-110305908D01*
X154417483Y-110305908D01*
X154357883Y-110299501D01*
X154357881Y-110299500D01*
X154357873Y-110299500D01*
X154357865Y-110299500D01*
X154356841Y-110299500D01*
X154052330Y-110299500D01*
X154017389Y-110294475D01*
X154002390Y-110290070D01*
X153987402Y-110280440D01*
X153970324Y-110275432D01*
X153943644Y-110252327D01*
X153942457Y-110250958D01*
X153914977Y-110196083D01*
X153913332Y-110188521D01*
X153910500Y-110162168D01*
X153910500Y-109457275D01*
X153910500Y-109457273D01*
X153887975Y-109373207D01*
X153887975Y-109373205D01*
X153883208Y-109355414D01*
X153883207Y-109355412D01*
X153833076Y-109268583D01*
X153830482Y-109264090D01*
X153830477Y-109264084D01*
X153578404Y-109012011D01*
X153557253Y-108983757D01*
X153553384Y-108976671D01*
X153549431Y-108969433D01*
X153534496Y-108902423D01*
X153535385Y-108887915D01*
X153542112Y-108854549D01*
X153577709Y-108752822D01*
X153577709Y-108752821D01*
X153577710Y-108752819D01*
X153579061Y-108738415D01*
X153579718Y-108731410D01*
X153579720Y-108731410D01*
X153579719Y-108731389D01*
X153580499Y-108723082D01*
X153580500Y-108723068D01*
X153580500Y-108555084D01*
X153585522Y-108520151D01*
X153592934Y-108494906D01*
X153624228Y-108442164D01*
X154916969Y-107149423D01*
X154945219Y-107128275D01*
X154968311Y-107115667D01*
X155027736Y-107100500D01*
X155752784Y-107100500D01*
X155787237Y-107105453D01*
X155787716Y-107105521D01*
X155812960Y-107112934D01*
X155852594Y-107136450D01*
X155853880Y-107134667D01*
X155861982Y-107140506D01*
X155861985Y-107140509D01*
X155861986Y-107140510D01*
X155861988Y-107140511D01*
X155861990Y-107140512D01*
X155862674Y-107141005D01*
X155865178Y-107142353D01*
X155987509Y-107212981D01*
X155987513Y-107212983D01*
X155987515Y-107212984D01*
X156127525Y-107250500D01*
X156127528Y-107250500D01*
X156272472Y-107250500D01*
X156272475Y-107250500D01*
X156412485Y-107212984D01*
X156538015Y-107140509D01*
X156640509Y-107038015D01*
X156680578Y-106968614D01*
X156694782Y-106944012D01*
X156701611Y-106932185D01*
X156701611Y-106932184D01*
X156712427Y-106916404D01*
X156719918Y-106907104D01*
X156730121Y-106894437D01*
X156787503Y-106854577D01*
X156857322Y-106852066D01*
X156862400Y-106853360D01*
G37*
%TD.AperFunction*%
%TA.AperFunction,Conductor*%
G36*
X136699183Y-99880429D02*
G01*
X136706172Y-99883621D01*
X136742342Y-99908734D01*
X136750573Y-99916965D01*
X136771723Y-99945217D01*
X136784331Y-99968306D01*
X136799500Y-100027735D01*
X136799500Y-107794351D01*
X136799499Y-107794355D01*
X136799500Y-107794357D01*
X136794475Y-107829292D01*
X136788130Y-107850897D01*
X136759631Y-107900750D01*
X136756870Y-107903696D01*
X136751556Y-107908422D01*
X136751568Y-107908434D01*
X136750395Y-107909606D01*
X136750353Y-107909673D01*
X136750309Y-107909693D01*
X136744999Y-107915003D01*
X136723228Y-107944503D01*
X136723227Y-107944504D01*
X136666147Y-108021842D01*
X136622291Y-108147169D01*
X136622290Y-108147175D01*
X136622285Y-108147213D01*
X136619500Y-108176924D01*
X136619500Y-108623074D01*
X136622285Y-108652785D01*
X136622290Y-108652823D01*
X136622291Y-108652827D01*
X136649793Y-108731419D01*
X136657283Y-108752823D01*
X136666148Y-108778157D01*
X136745001Y-108884999D01*
X136749131Y-108888047D01*
X136764768Y-108908640D01*
X136773527Y-108920176D01*
X136796718Y-108972702D01*
X136797449Y-108976671D01*
X136799500Y-108999131D01*
X136799500Y-110147273D01*
X136799500Y-110252727D01*
X136813749Y-110305907D01*
X136826763Y-110354476D01*
X136830278Y-110373319D01*
X136832739Y-110396218D01*
X136823143Y-110458961D01*
X136819253Y-110467897D01*
X136804827Y-110492714D01*
X136756203Y-110557667D01*
X136756200Y-110557673D01*
X136705911Y-110692507D01*
X136705908Y-110692520D01*
X136699501Y-110752116D01*
X136699501Y-110752123D01*
X136699500Y-110752135D01*
X136699500Y-111247876D01*
X136699659Y-111249806D01*
X136699885Y-111251454D01*
X136705907Y-111307482D01*
X136733690Y-111381971D01*
X136756202Y-111442328D01*
X136756206Y-111442335D01*
X136799086Y-111499616D01*
X136842450Y-111557542D01*
X136842456Y-111557548D01*
X136871419Y-111579229D01*
X136957664Y-111643793D01*
X136957671Y-111643797D01*
X137092517Y-111694091D01*
X137092516Y-111694091D01*
X137099444Y-111694835D01*
X137152127Y-111700500D01*
X138847872Y-111700499D01*
X138907483Y-111694091D01*
X139042331Y-111643796D01*
X139157546Y-111557546D01*
X139243796Y-111442331D01*
X139294091Y-111307483D01*
X139300500Y-111247873D01*
X139300499Y-110752128D01*
X139294091Y-110692517D01*
X139294088Y-110692507D01*
X139262843Y-110608737D01*
X139262843Y-110608736D01*
X139243799Y-110557676D01*
X139243798Y-110557674D01*
X139243797Y-110557671D01*
X139243793Y-110557664D01*
X139169993Y-110459080D01*
X139157548Y-110442456D01*
X139157542Y-110442450D01*
X139085629Y-110388616D01*
X139042335Y-110356206D01*
X139042332Y-110356204D01*
X139042330Y-110356203D01*
X139042328Y-110356202D01*
X138907482Y-110305908D01*
X138907483Y-110305908D01*
X138847883Y-110299501D01*
X138847881Y-110299500D01*
X138847873Y-110299500D01*
X138847865Y-110299500D01*
X138846841Y-110299500D01*
X137935085Y-110299500D01*
X137900149Y-110294477D01*
X137874907Y-110287065D01*
X137822162Y-110255769D01*
X137649426Y-110083033D01*
X137649421Y-110083028D01*
X137628274Y-110054777D01*
X137615667Y-110031688D01*
X137600500Y-109972263D01*
X137600500Y-109005647D01*
X137605523Y-108970711D01*
X137611867Y-108949106D01*
X137640357Y-108899258D01*
X137643121Y-108896310D01*
X137648441Y-108891582D01*
X137648428Y-108891569D01*
X137654995Y-108885001D01*
X137654999Y-108884999D01*
X137733852Y-108778157D01*
X137760557Y-108701836D01*
X137777708Y-108652826D01*
X137777708Y-108652823D01*
X137777710Y-108652819D01*
X137779260Y-108636289D01*
X137780500Y-108623070D01*
X137780500Y-108176929D01*
X137778250Y-108152943D01*
X137778250Y-108152944D01*
X137777710Y-108147181D01*
X137777708Y-108147177D01*
X137777708Y-108147173D01*
X137777707Y-108147169D01*
X137777662Y-108146686D01*
X137776712Y-108143693D01*
X137776572Y-108143205D01*
X137775108Y-108139743D01*
X137742721Y-108047190D01*
X137740651Y-108041273D01*
X137733852Y-108021843D01*
X137733851Y-108021841D01*
X137655000Y-107915001D01*
X137653417Y-107913418D01*
X137642344Y-107900727D01*
X137626465Y-107879812D01*
X137603271Y-107827249D01*
X137602543Y-107823288D01*
X137601786Y-107814989D01*
X137601607Y-107814518D01*
X137601702Y-107814064D01*
X137600500Y-107800873D01*
X137600500Y-107541402D01*
X137605521Y-107506475D01*
X137607181Y-107500819D01*
X137608707Y-107495620D01*
X137618345Y-107480622D01*
X137623369Y-107463511D01*
X137636841Y-107451836D01*
X137646477Y-107436841D01*
X137662697Y-107429432D01*
X137676172Y-107417756D01*
X137693814Y-107415219D01*
X137710031Y-107407812D01*
X137727682Y-107410348D01*
X137745331Y-107407811D01*
X137779179Y-107417749D01*
X137779186Y-107417750D01*
X137782287Y-107419166D01*
X137830044Y-107457649D01*
X137835310Y-107464684D01*
X137835315Y-107464689D01*
X137944769Y-107546625D01*
X137944770Y-107546625D01*
X137944774Y-107546628D01*
X138072886Y-107594412D01*
X138129515Y-107600500D01*
X138570484Y-107600499D01*
X138627114Y-107594412D01*
X138755226Y-107546628D01*
X138864687Y-107464687D01*
X138946628Y-107355226D01*
X138994412Y-107227114D01*
X138997381Y-107199500D01*
X139000499Y-107170501D01*
X139000499Y-107170490D01*
X139000500Y-107170485D01*
X139000499Y-106785080D01*
X139005522Y-106750147D01*
X139012932Y-106724910D01*
X139044226Y-106672165D01*
X139266969Y-106449423D01*
X139295220Y-106428275D01*
X139306501Y-106422115D01*
X139309503Y-106420185D01*
X139376541Y-106400500D01*
X139457671Y-106400500D01*
X139492606Y-106405523D01*
X139507604Y-106409927D01*
X139566355Y-106447672D01*
X139566379Y-106447700D01*
X139566382Y-106447702D01*
X139566383Y-106447704D01*
X139567542Y-106449041D01*
X139595018Y-106503902D01*
X139596663Y-106511460D01*
X139599500Y-106537831D01*
X139599500Y-107170481D01*
X139599501Y-107170490D01*
X139605587Y-107227114D01*
X139632587Y-107299500D01*
X139653372Y-107355226D01*
X139735313Y-107464687D01*
X139844774Y-107546628D01*
X139972886Y-107594412D01*
X140029515Y-107600500D01*
X140414917Y-107600499D01*
X140449851Y-107605522D01*
X140472574Y-107612194D01*
X140475088Y-107612932D01*
X140527835Y-107644228D01*
X140804087Y-107920480D01*
X140895412Y-107973207D01*
X140997273Y-108000500D01*
X141102727Y-108000500D01*
X142986191Y-108000500D01*
X143020719Y-108005464D01*
X143021122Y-108005522D01*
X143033418Y-108009132D01*
X143092197Y-108046904D01*
X143121224Y-108110459D01*
X143113209Y-108175171D01*
X143109620Y-108183920D01*
X143099058Y-108202695D01*
X143095618Y-108209205D01*
X143052257Y-108333117D01*
X143051883Y-108335319D01*
X143051717Y-108338888D01*
X143049500Y-108362538D01*
X143049500Y-108837453D01*
X143049501Y-108837461D01*
X143052257Y-108866871D01*
X143052260Y-108866887D01*
X143095617Y-108990792D01*
X143096521Y-108992016D01*
X143104463Y-109002777D01*
X143173576Y-109096423D01*
X143196016Y-109112984D01*
X143207185Y-109121227D01*
X143207186Y-109121228D01*
X143279204Y-109174380D01*
X143279203Y-109174380D01*
X143354649Y-109200780D01*
X143354656Y-109200782D01*
X143388347Y-109212572D01*
X143419660Y-109228851D01*
X143425817Y-109233267D01*
X143436787Y-109247316D01*
X143445122Y-109253295D01*
X143448902Y-109262833D01*
X143468817Y-109288338D01*
X143475218Y-109357914D01*
X143442987Y-109419905D01*
X143385434Y-109453853D01*
X143379885Y-109455329D01*
X143347999Y-109459500D01*
X143255730Y-109459500D01*
X143237074Y-109461249D01*
X143231069Y-109461812D01*
X143227499Y-109461978D01*
X143225297Y-109462353D01*
X143097118Y-109507206D01*
X142987849Y-109587849D01*
X142907206Y-109697118D01*
X142862353Y-109825297D01*
X142861978Y-109827499D01*
X142861812Y-109831069D01*
X142859500Y-109855733D01*
X142859500Y-110872592D01*
X142859499Y-110872598D01*
X142859500Y-110872601D01*
X142854475Y-110907536D01*
X142850070Y-110922534D01*
X142812304Y-110981297D01*
X142812292Y-110981307D01*
X142812291Y-110981309D01*
X142812289Y-110981309D01*
X142804544Y-110988022D01*
X142771551Y-111007641D01*
X142771782Y-111008131D01*
X142767150Y-111010318D01*
X142647347Y-111079485D01*
X142647337Y-111079492D01*
X142647334Y-111079495D01*
X142647324Y-111079503D01*
X142549503Y-111177324D01*
X142549497Y-111177331D01*
X142549492Y-111177337D01*
X142549485Y-111177347D01*
X142480319Y-111297148D01*
X142480313Y-111297160D01*
X142480308Y-111297177D01*
X142477547Y-111307482D01*
X142444500Y-111430817D01*
X142444500Y-111569183D01*
X142455244Y-111609279D01*
X142464493Y-111643796D01*
X142464493Y-111643797D01*
X142480311Y-111702833D01*
X142480317Y-111702846D01*
X142549488Y-111822655D01*
X142549490Y-111822658D01*
X142549492Y-111822661D01*
X142549494Y-111822664D01*
X142549495Y-111822665D01*
X142647335Y-111920505D01*
X142647336Y-111920506D01*
X142647338Y-111920507D01*
X142694679Y-111947839D01*
X142767164Y-111989688D01*
X142900817Y-112025500D01*
X142900819Y-112025500D01*
X143039181Y-112025500D01*
X143039183Y-112025500D01*
X143172836Y-111989688D01*
X143292665Y-111920505D01*
X143382736Y-111830433D01*
X143384759Y-111828459D01*
X143396643Y-111817125D01*
X143396644Y-111817126D01*
X143413046Y-111801484D01*
X143475145Y-111769465D01*
X143544698Y-111776102D01*
X143551072Y-111778654D01*
X143552596Y-111779264D01*
X143594192Y-111806701D01*
X143897984Y-112110493D01*
X143898666Y-112110984D01*
X143901172Y-112112333D01*
X144000701Y-112169795D01*
X144000708Y-112169799D01*
X144115285Y-112200500D01*
X145074495Y-112200500D01*
X145107460Y-112205239D01*
X145109422Y-112205521D01*
X145120275Y-112208707D01*
X145179056Y-112246477D01*
X145208085Y-112310031D01*
X145198146Y-112379190D01*
X145198142Y-112379199D01*
X145194957Y-112386173D01*
X145169844Y-112422341D01*
X144791686Y-112800500D01*
X144541612Y-113050573D01*
X144518279Y-113068040D01*
X144513361Y-113071722D01*
X144490273Y-113084330D01*
X144430843Y-113099500D01*
X135700508Y-113099500D01*
X135573208Y-113133609D01*
X135573206Y-113133610D01*
X135459096Y-113199493D01*
X135459082Y-113199502D01*
X135459077Y-113199506D01*
X134595835Y-114062749D01*
X134583333Y-114070222D01*
X134575884Y-114078936D01*
X134567585Y-114083898D01*
X134557658Y-114089319D01*
X134547805Y-114091462D01*
X134543877Y-114093811D01*
X134533134Y-114097043D01*
X134521811Y-114097118D01*
X134489385Y-114104173D01*
X134471363Y-114097452D01*
X134463266Y-114097506D01*
X134451462Y-114090030D01*
X134423920Y-114079759D01*
X134413710Y-114066121D01*
X134404239Y-114060123D01*
X134396086Y-114042580D01*
X134382047Y-114023827D01*
X134381220Y-114021611D01*
X134380149Y-114008287D01*
X134374793Y-113996761D01*
X134377584Y-113976383D01*
X134375794Y-113954110D01*
X134404180Y-113811411D01*
X134404180Y-113634029D01*
X134404180Y-113634026D01*
X134404180Y-113633921D01*
X134404111Y-113633615D01*
X134403923Y-113632740D01*
X134369576Y-113460061D01*
X134369573Y-113460052D01*
X134368446Y-113457332D01*
X134352603Y-113419083D01*
X134352602Y-113419082D01*
X134352602Y-113419079D01*
X134301701Y-113296192D01*
X134301696Y-113296179D01*
X134301689Y-113296166D01*
X134203144Y-113148685D01*
X134203141Y-113148681D01*
X134203136Y-113148675D01*
X134077723Y-113023262D01*
X134077717Y-113023257D01*
X134077716Y-113023256D01*
X133930239Y-112924714D01*
X133930236Y-112924712D01*
X133930233Y-112924710D01*
X133930220Y-112924703D01*
X133923680Y-112921994D01*
X133766356Y-112856829D01*
X133766333Y-112856821D01*
X133766326Y-112856819D01*
X133592378Y-112822220D01*
X133592374Y-112822220D01*
X133592371Y-112822220D01*
X132614989Y-112822220D01*
X132614986Y-112822220D01*
X132614981Y-112822220D01*
X132441032Y-112856820D01*
X132441025Y-112856821D01*
X132441002Y-112856829D01*
X132277152Y-112924697D01*
X132277134Y-112924705D01*
X132277123Y-112924712D01*
X132211893Y-112968297D01*
X132211892Y-112968298D01*
X132180053Y-112983529D01*
X132167057Y-112987598D01*
X132097199Y-112988844D01*
X132037757Y-112952124D01*
X132009079Y-112896691D01*
X132007252Y-112888636D01*
X132004180Y-112861208D01*
X132004180Y-112048168D01*
X132009203Y-112013234D01*
X132013040Y-112000166D01*
X132020619Y-111988371D01*
X132023724Y-111974696D01*
X132039137Y-111959557D01*
X132050814Y-111941388D01*
X132063566Y-111935563D01*
X132073572Y-111925737D01*
X132094720Y-111921335D01*
X132114369Y-111912362D01*
X132129624Y-111914071D01*
X132141976Y-111911501D01*
X132176387Y-111919311D01*
X132184108Y-111922269D01*
X132208618Y-111934953D01*
X132277131Y-111980732D01*
X132277132Y-111980732D01*
X132277133Y-111980733D01*
X132277135Y-111980734D01*
X132277139Y-111980736D01*
X132385209Y-112025499D01*
X132441014Y-112048614D01*
X132441016Y-112048614D01*
X132441021Y-112048616D01*
X132607360Y-112081702D01*
X132610083Y-112082424D01*
X132614986Y-112083220D01*
X133592373Y-112083220D01*
X133596494Y-112083220D01*
X133604347Y-112080837D01*
X133650362Y-112071684D01*
X133650363Y-112071684D01*
X133668862Y-112068004D01*
X133766338Y-112048616D01*
X133766341Y-112048614D01*
X133766346Y-112048614D01*
X133906215Y-111990678D01*
X133930220Y-111980736D01*
X133930220Y-111980735D01*
X133930227Y-111980733D01*
X133930229Y-111980731D01*
X133932577Y-111979759D01*
X133932579Y-111979758D01*
X133941837Y-111975923D01*
X133950723Y-111967037D01*
X134077715Y-111882184D01*
X134203144Y-111756755D01*
X134301693Y-111609267D01*
X134323116Y-111557548D01*
X134369572Y-111445391D01*
X134369573Y-111445389D01*
X134369573Y-111445387D01*
X134369574Y-111445386D01*
X134370183Y-111442328D01*
X134404179Y-111271415D01*
X134404180Y-111271413D01*
X134404180Y-111094026D01*
X134404179Y-111094024D01*
X134369576Y-110920061D01*
X134369573Y-110920052D01*
X134301696Y-110756179D01*
X134301689Y-110756166D01*
X134203144Y-110608685D01*
X134203141Y-110608681D01*
X134203136Y-110608675D01*
X134077723Y-110483262D01*
X134077717Y-110483257D01*
X134077716Y-110483256D01*
X133930239Y-110384714D01*
X133930236Y-110384712D01*
X133930233Y-110384710D01*
X133930220Y-110384703D01*
X133911785Y-110377067D01*
X133766356Y-110316829D01*
X133766333Y-110316821D01*
X133766326Y-110316819D01*
X133592378Y-110282220D01*
X133592374Y-110282220D01*
X133592371Y-110282220D01*
X132614989Y-110282220D01*
X132614986Y-110282220D01*
X132614981Y-110282220D01*
X132441032Y-110316820D01*
X132441025Y-110316821D01*
X132441002Y-110316829D01*
X132277152Y-110384697D01*
X132277134Y-110384705D01*
X132277123Y-110384712D01*
X132211893Y-110428297D01*
X132211892Y-110428298D01*
X132180053Y-110443529D01*
X132167057Y-110447598D01*
X132097199Y-110448844D01*
X132037757Y-110412124D01*
X132009079Y-110356691D01*
X132007252Y-110348636D01*
X132004180Y-110321208D01*
X132004180Y-109508168D01*
X132009203Y-109473234D01*
X132013040Y-109460166D01*
X132020619Y-109448371D01*
X132023724Y-109434696D01*
X132039137Y-109419557D01*
X132050814Y-109401388D01*
X132063566Y-109395563D01*
X132073572Y-109385737D01*
X132094720Y-109381335D01*
X132114369Y-109372362D01*
X132129624Y-109374071D01*
X132141976Y-109371501D01*
X132176387Y-109379311D01*
X132184108Y-109382269D01*
X132208618Y-109394953D01*
X132277131Y-109440732D01*
X132277132Y-109440732D01*
X132277133Y-109440733D01*
X132277135Y-109440734D01*
X132277139Y-109440736D01*
X132396319Y-109490101D01*
X132441014Y-109508614D01*
X132441016Y-109508614D01*
X132441021Y-109508616D01*
X132607360Y-109541702D01*
X132610083Y-109542424D01*
X132614986Y-109543220D01*
X133592373Y-109543220D01*
X133596494Y-109543220D01*
X133604341Y-109540838D01*
X133660129Y-109529742D01*
X133766338Y-109508616D01*
X133766340Y-109508614D01*
X133766342Y-109508614D01*
X133766346Y-109508614D01*
X133770407Y-109506931D01*
X133777514Y-109503992D01*
X133777549Y-109503973D01*
X133911973Y-109448294D01*
X133930220Y-109440736D01*
X133930220Y-109440735D01*
X133930227Y-109440733D01*
X133930231Y-109440730D01*
X133932566Y-109439763D01*
X133932581Y-109439757D01*
X133941839Y-109435922D01*
X133950723Y-109427037D01*
X134077715Y-109342184D01*
X134203144Y-109216755D01*
X134301693Y-109069267D01*
X134317834Y-109030300D01*
X134369573Y-108905388D01*
X134369574Y-108905386D01*
X134370125Y-108902619D01*
X134373023Y-108888049D01*
X134373630Y-108884999D01*
X134404179Y-108731415D01*
X134404180Y-108731413D01*
X134404180Y-108554026D01*
X134404179Y-108554024D01*
X134369576Y-108380061D01*
X134369573Y-108380052D01*
X134362319Y-108362540D01*
X134339446Y-108307317D01*
X134301696Y-108216179D01*
X134301689Y-108216166D01*
X134203144Y-108068685D01*
X134203141Y-108068681D01*
X134203136Y-108068675D01*
X134077723Y-107943262D01*
X134077717Y-107943257D01*
X134077716Y-107943256D01*
X133930239Y-107844714D01*
X133930236Y-107844712D01*
X133930233Y-107844710D01*
X133930220Y-107844703D01*
X133930206Y-107844697D01*
X133766356Y-107776829D01*
X133766333Y-107776821D01*
X133766326Y-107776819D01*
X133592378Y-107742220D01*
X133592374Y-107742220D01*
X133592371Y-107742220D01*
X132614989Y-107742220D01*
X132614986Y-107742220D01*
X132614981Y-107742220D01*
X132441032Y-107776820D01*
X132441025Y-107776821D01*
X132441002Y-107776829D01*
X132277152Y-107844697D01*
X132277134Y-107844705D01*
X132277123Y-107844712D01*
X132211893Y-107888297D01*
X132211892Y-107888298D01*
X132180053Y-107903529D01*
X132167057Y-107907598D01*
X132097199Y-107908844D01*
X132037757Y-107872124D01*
X132009079Y-107816691D01*
X132007252Y-107808636D01*
X132004180Y-107781208D01*
X132004180Y-106968168D01*
X132009203Y-106933234D01*
X132013040Y-106920166D01*
X132020619Y-106908371D01*
X132023724Y-106894696D01*
X132039137Y-106879557D01*
X132050814Y-106861388D01*
X132063566Y-106855563D01*
X132073572Y-106845737D01*
X132094720Y-106841335D01*
X132114369Y-106832362D01*
X132129624Y-106834071D01*
X132141976Y-106831501D01*
X132176387Y-106839311D01*
X132184108Y-106842269D01*
X132208618Y-106854953D01*
X132277131Y-106900732D01*
X132277132Y-106900732D01*
X132277133Y-106900733D01*
X132277135Y-106900734D01*
X132277139Y-106900736D01*
X132382510Y-106944381D01*
X132441014Y-106968614D01*
X132441016Y-106968614D01*
X132441021Y-106968616D01*
X132607360Y-107001702D01*
X132610083Y-107002424D01*
X132614986Y-107003220D01*
X133592373Y-107003220D01*
X133596494Y-107003220D01*
X133604341Y-107000838D01*
X133670189Y-106987741D01*
X133766338Y-106968616D01*
X133766340Y-106968614D01*
X133766342Y-106968614D01*
X133766346Y-106968614D01*
X133769534Y-106967293D01*
X133777515Y-106963993D01*
X133777556Y-106963971D01*
X133930220Y-106900736D01*
X133930220Y-106900735D01*
X133930227Y-106900733D01*
X134077715Y-106802184D01*
X134203144Y-106676755D01*
X134301693Y-106529267D01*
X134369574Y-106365386D01*
X134369574Y-106365383D01*
X134369576Y-106365379D01*
X134374973Y-106338244D01*
X134377251Y-106326794D01*
X134402372Y-106200499D01*
X134404180Y-106191411D01*
X134404180Y-106014029D01*
X134404180Y-106014026D01*
X134404179Y-106014024D01*
X134369576Y-105840061D01*
X134369573Y-105840052D01*
X134346275Y-105783804D01*
X134301699Y-105676186D01*
X134301694Y-105676175D01*
X134301691Y-105676169D01*
X134285997Y-105652682D01*
X134285996Y-105652681D01*
X134281551Y-105643392D01*
X134270763Y-105620844D01*
X134266091Y-105605925D01*
X134264841Y-105536068D01*
X134266788Y-105528972D01*
X134298685Y-105474104D01*
X136348470Y-103424320D01*
X136348474Y-103424318D01*
X136365912Y-103406880D01*
X136365913Y-103406880D01*
X136440480Y-103332313D01*
X136493207Y-103240987D01*
X136503459Y-103202727D01*
X136520501Y-103139127D01*
X136520501Y-103033673D01*
X136520501Y-103026078D01*
X136520501Y-103026077D01*
X136520501Y-103024394D01*
X136520500Y-103024320D01*
X136520500Y-100004083D01*
X136525521Y-99969156D01*
X136528707Y-99958303D01*
X136538345Y-99943302D01*
X136543368Y-99926195D01*
X136556839Y-99914521D01*
X136566477Y-99899522D01*
X136582697Y-99892113D01*
X136596170Y-99880438D01*
X136613814Y-99877900D01*
X136630031Y-99870493D01*
X136647679Y-99873029D01*
X136665328Y-99870491D01*
X136699183Y-99880429D01*
G37*
%TD.AperFunction*%
%TA.AperFunction,Conductor*%
G36*
X152149186Y-91430432D02*
G01*
X152156172Y-91433622D01*
X152192342Y-91458735D01*
X155100573Y-94366966D01*
X155121723Y-94395218D01*
X155129133Y-94408788D01*
X155132434Y-94414834D01*
X155134331Y-94418307D01*
X155149500Y-94477736D01*
X155149500Y-94875091D01*
X155149500Y-94980545D01*
X155153511Y-94995514D01*
X155176793Y-95082407D01*
X155184121Y-95095099D01*
X155190435Y-95106036D01*
X155190437Y-95106040D01*
X155229515Y-95173724D01*
X155229518Y-95173728D01*
X155229520Y-95173731D01*
X155229522Y-95173733D01*
X157595670Y-97539881D01*
X157616818Y-97568131D01*
X157617721Y-97569785D01*
X157623471Y-97580314D01*
X157638323Y-97648587D01*
X157613907Y-97714052D01*
X157613902Y-97714057D01*
X157607304Y-97722870D01*
X157576934Y-97751656D01*
X157563262Y-97760792D01*
X157529647Y-97783253D01*
X157529641Y-97783257D01*
X157529638Y-97783260D01*
X157529627Y-97783270D01*
X157404222Y-97908675D01*
X157404217Y-97908681D01*
X157404216Y-97908682D01*
X157305674Y-98056159D01*
X157305665Y-98056174D01*
X157305657Y-98056192D01*
X157237789Y-98220042D01*
X157237781Y-98220065D01*
X157237779Y-98220072D01*
X157203180Y-98394021D01*
X157203180Y-98571419D01*
X157237779Y-98745366D01*
X157237781Y-98745373D01*
X157237789Y-98745396D01*
X157305657Y-98909247D01*
X157306854Y-98911725D01*
X157307551Y-98914042D01*
X157308387Y-98915022D01*
X157313531Y-98928608D01*
X157316225Y-98937214D01*
X157316331Y-98943202D01*
X157318066Y-98948963D01*
X157319139Y-98956863D01*
X157316843Y-98971990D01*
X157317467Y-99007073D01*
X157309582Y-99019834D01*
X157308656Y-99025942D01*
X157299108Y-99036787D01*
X157280744Y-99066513D01*
X157267267Y-99072959D01*
X157262490Y-99078387D01*
X157246223Y-99083025D01*
X157217714Y-99096663D01*
X157204309Y-99094978D01*
X157195299Y-99097548D01*
X157174316Y-99091208D01*
X157148389Y-99087950D01*
X157148374Y-99087943D01*
X157146753Y-99087237D01*
X157135265Y-99079410D01*
X157128416Y-99077341D01*
X157123126Y-99071139D01*
X157108586Y-99061233D01*
X156549426Y-98502073D01*
X156528274Y-98473817D01*
X156515667Y-98450728D01*
X156500500Y-98391303D01*
X156500500Y-97747215D01*
X156505522Y-97712282D01*
X156512934Y-97687037D01*
X156537376Y-97645853D01*
X156535562Y-97644461D01*
X156540504Y-97638019D01*
X156540509Y-97638015D01*
X156612984Y-97512485D01*
X156650500Y-97372475D01*
X156650500Y-97227525D01*
X156612984Y-97087515D01*
X156608187Y-97079207D01*
X156585105Y-97039228D01*
X156540513Y-96961991D01*
X156540508Y-96961984D01*
X156540493Y-96961968D01*
X156438030Y-96859505D01*
X156438014Y-96859490D01*
X156438011Y-96859488D01*
X156429157Y-96854376D01*
X156312488Y-96787017D01*
X156312489Y-96787017D01*
X156284293Y-96779462D01*
X156273509Y-96776572D01*
X156273504Y-96776570D01*
X156179894Y-96751488D01*
X156172475Y-96749500D01*
X156172474Y-96749500D01*
X156027525Y-96749500D01*
X155915706Y-96779462D01*
X155915705Y-96779461D01*
X155887512Y-96787016D01*
X155887507Y-96787018D01*
X155761992Y-96859485D01*
X155761984Y-96859490D01*
X155761968Y-96859505D01*
X155659505Y-96961968D01*
X155659490Y-96961984D01*
X155659485Y-96961992D01*
X155587017Y-97087509D01*
X155586989Y-97087578D01*
X155586748Y-97088511D01*
X155554022Y-97210648D01*
X155549500Y-97227525D01*
X155549500Y-97372475D01*
X155579773Y-97485453D01*
X155584628Y-97503572D01*
X155587018Y-97512491D01*
X155659485Y-97638006D01*
X155662528Y-97642368D01*
X155662116Y-97642655D01*
X155670159Y-97654485D01*
X155684331Y-97680438D01*
X155699500Y-97739867D01*
X155699500Y-98671765D01*
X155726791Y-98773626D01*
X155753155Y-98819289D01*
X155758217Y-98828056D01*
X155779520Y-98864953D01*
X155779522Y-98864955D01*
X157303242Y-100388675D01*
X157324393Y-100416930D01*
X157331885Y-100430651D01*
X157346736Y-100498921D01*
X157346212Y-100506248D01*
X157325630Y-100566294D01*
X157305669Y-100596166D01*
X157305661Y-100596182D01*
X157237789Y-100760042D01*
X157237781Y-100760065D01*
X157237779Y-100760072D01*
X157203180Y-100934019D01*
X157203180Y-101111419D01*
X157237779Y-101285366D01*
X157237781Y-101285373D01*
X157237789Y-101285396D01*
X157267880Y-101358042D01*
X157300538Y-101436888D01*
X157301824Y-101439991D01*
X157302739Y-101448503D01*
X157307167Y-101455834D01*
X157310000Y-101469793D01*
X157311832Y-101482533D01*
X157308723Y-101504159D01*
X157309293Y-101509460D01*
X157307240Y-101514469D01*
X157301890Y-101551692D01*
X157256137Y-101604497D01*
X157189098Y-101624183D01*
X157154169Y-101619163D01*
X157145397Y-101616588D01*
X157110400Y-101595824D01*
X157096543Y-101589024D01*
X157095205Y-101586810D01*
X157092642Y-101585289D01*
X156249426Y-100742073D01*
X156228277Y-100713823D01*
X156218705Y-100696293D01*
X156203854Y-100628023D01*
X156208559Y-100601940D01*
X156212934Y-100587037D01*
X156237376Y-100545853D01*
X156235562Y-100544461D01*
X156240504Y-100538019D01*
X156240509Y-100538015D01*
X156312984Y-100412485D01*
X156350500Y-100272475D01*
X156350500Y-100127525D01*
X156312984Y-99987515D01*
X156310083Y-99982491D01*
X156310079Y-99982484D01*
X156310079Y-99982483D01*
X156260371Y-99896387D01*
X156240511Y-99861988D01*
X156240506Y-99861982D01*
X156240493Y-99861968D01*
X156138030Y-99759505D01*
X156138014Y-99759490D01*
X156138006Y-99759485D01*
X156084243Y-99728445D01*
X156055808Y-99698624D01*
X156001007Y-99683939D01*
X156001007Y-99683940D01*
X155921394Y-99662608D01*
X155872475Y-99649500D01*
X155872474Y-99649500D01*
X155727525Y-99649500D01*
X155598994Y-99683939D01*
X155598993Y-99683940D01*
X155591338Y-99685991D01*
X155587510Y-99687017D01*
X155461991Y-99759485D01*
X155461984Y-99759490D01*
X155461968Y-99759505D01*
X155359505Y-99861968D01*
X155359490Y-99861984D01*
X155359485Y-99861992D01*
X155287018Y-99987508D01*
X155286989Y-99987578D01*
X155286748Y-99988511D01*
X155256196Y-100102535D01*
X155249500Y-100127525D01*
X155249500Y-100272475D01*
X155251035Y-100278202D01*
X155278261Y-100379814D01*
X155287015Y-100412484D01*
X155287018Y-100412491D01*
X155359485Y-100538006D01*
X155362528Y-100542368D01*
X155361379Y-100543169D01*
X155365625Y-100546846D01*
X155370159Y-100554485D01*
X155384331Y-100580438D01*
X155399500Y-100639867D01*
X155399500Y-100911770D01*
X155409767Y-100950089D01*
X155409768Y-100950089D01*
X155426793Y-101013629D01*
X155449553Y-101053049D01*
X155479520Y-101104953D01*
X155479522Y-101104955D01*
X156521054Y-102146487D01*
X156542203Y-102174738D01*
X156553951Y-102196253D01*
X156554811Y-102197827D01*
X156566655Y-102244232D01*
X156568919Y-102243935D01*
X156569980Y-102251994D01*
X156607493Y-102391997D01*
X156607496Y-102392005D01*
X156607497Y-102392008D01*
X156641143Y-102450284D01*
X156678111Y-102514315D01*
X156679969Y-102517533D01*
X156782465Y-102620029D01*
X156783154Y-102620525D01*
X156785658Y-102621873D01*
X156904549Y-102690515D01*
X156907567Y-102692389D01*
X156907994Y-102692503D01*
X156907995Y-102692504D01*
X157048005Y-102730020D01*
X157048007Y-102730020D01*
X157048074Y-102730038D01*
X157064341Y-102733309D01*
X157065527Y-102733632D01*
X157082665Y-102738664D01*
X157089300Y-102740107D01*
X157092382Y-102740947D01*
X157119508Y-102757635D01*
X157147467Y-102772900D01*
X157147474Y-102772907D01*
X157303241Y-102928674D01*
X157324393Y-102956930D01*
X157331885Y-102970651D01*
X157346736Y-103038921D01*
X157346212Y-103046248D01*
X157325630Y-103106294D01*
X157305669Y-103136166D01*
X157305661Y-103136182D01*
X157241368Y-103291403D01*
X157236669Y-103301452D01*
X157223435Y-103326737D01*
X157174907Y-103377005D01*
X157106907Y-103393057D01*
X157047458Y-103374140D01*
X157040475Y-103369739D01*
X157018909Y-103352516D01*
X155070579Y-101404186D01*
X155049427Y-101375930D01*
X155041935Y-101362209D01*
X155038145Y-101344790D01*
X155029602Y-101329145D01*
X155027084Y-101293940D01*
X155027716Y-101285101D01*
X155044011Y-101231948D01*
X155112984Y-101112485D01*
X155150500Y-100972475D01*
X155150500Y-100827525D01*
X155112984Y-100687515D01*
X155109949Y-100682259D01*
X155104955Y-100673609D01*
X155040513Y-100561991D01*
X155040508Y-100561984D01*
X155040493Y-100561968D01*
X154938030Y-100459505D01*
X154938014Y-100459490D01*
X154938006Y-100459485D01*
X154888871Y-100431117D01*
X154884242Y-100428444D01*
X154855808Y-100398624D01*
X154801007Y-100383939D01*
X154801007Y-100383940D01*
X154716472Y-100361289D01*
X154672475Y-100349500D01*
X154672474Y-100349500D01*
X154527525Y-100349500D01*
X154398994Y-100383939D01*
X154398993Y-100383940D01*
X154391338Y-100385991D01*
X154387510Y-100387017D01*
X154261991Y-100459485D01*
X154261984Y-100459490D01*
X154261968Y-100459505D01*
X154159505Y-100561968D01*
X154159490Y-100561984D01*
X154159485Y-100561992D01*
X154087017Y-100687509D01*
X154086745Y-100688182D01*
X154086748Y-100688511D01*
X154049500Y-100827525D01*
X154049500Y-100972475D01*
X154086728Y-101111411D01*
X154086922Y-101112135D01*
X154087017Y-101112489D01*
X154159485Y-101238006D01*
X154162528Y-101242368D01*
X154162116Y-101242655D01*
X154170159Y-101254485D01*
X154184331Y-101280438D01*
X154199500Y-101339867D01*
X154199500Y-101447273D01*
X154199500Y-101552727D01*
X154218036Y-101621904D01*
X154226793Y-101654588D01*
X154228478Y-101658656D01*
X154228195Y-101658773D01*
X154235897Y-101679825D01*
X154239411Y-101694307D01*
X154236090Y-101764098D01*
X154195622Y-101820968D01*
X154194347Y-101821972D01*
X154141104Y-101846309D01*
X154136181Y-101847258D01*
X154112710Y-101849500D01*
X154027525Y-101849500D01*
X153904501Y-101882463D01*
X153904502Y-101882464D01*
X153887509Y-101887017D01*
X153887507Y-101887018D01*
X153761992Y-101959485D01*
X153761984Y-101959490D01*
X153761968Y-101959505D01*
X153659505Y-102061968D01*
X153659490Y-102061984D01*
X153659485Y-102061992D01*
X153587017Y-102187509D01*
X153586989Y-102187578D01*
X153586748Y-102188511D01*
X153550835Y-102322542D01*
X153549500Y-102327525D01*
X153549500Y-102472475D01*
X153561574Y-102517535D01*
X153587013Y-102612477D01*
X153587016Y-102612485D01*
X153587017Y-102612488D01*
X153635966Y-102697269D01*
X153659485Y-102738006D01*
X153662528Y-102742368D01*
X153662116Y-102742655D01*
X153670159Y-102754485D01*
X153684331Y-102780438D01*
X153699500Y-102839867D01*
X153699500Y-103552728D01*
X153705937Y-103576752D01*
X153705938Y-103576756D01*
X153707684Y-103583270D01*
X153726793Y-103654589D01*
X153750660Y-103695926D01*
X153779520Y-103745913D01*
X153779522Y-103745915D01*
X156008516Y-105974909D01*
X156029664Y-106003159D01*
X156034758Y-106012488D01*
X156036317Y-106015342D01*
X156051169Y-106083615D01*
X156026753Y-106149080D01*
X156026750Y-106149083D01*
X156021845Y-106155635D01*
X155984581Y-106188709D01*
X155861981Y-106259492D01*
X155855681Y-106264327D01*
X155854903Y-106265432D01*
X155839472Y-106273250D01*
X155824424Y-106283227D01*
X155817561Y-106286013D01*
X155815397Y-106286604D01*
X155813342Y-106287726D01*
X155806776Y-106290392D01*
X155788705Y-106292206D01*
X155760130Y-106299500D01*
X154747273Y-106299500D01*
X154645413Y-106326792D01*
X154645408Y-106326795D01*
X154554088Y-106379518D01*
X154554082Y-106379523D01*
X153100288Y-107833318D01*
X153100287Y-107833319D01*
X153072032Y-107854470D01*
X153058311Y-107861962D01*
X152990051Y-107876814D01*
X152988245Y-107876685D01*
X152930044Y-107857317D01*
X152923529Y-107853130D01*
X152902893Y-107836500D01*
X152345915Y-107279522D01*
X152345913Y-107279520D01*
X152295649Y-107250500D01*
X152254589Y-107226793D01*
X152203044Y-107212982D01*
X152203044Y-107212981D01*
X152152728Y-107199500D01*
X152152727Y-107199500D01*
X152152726Y-107199500D01*
X150147216Y-107199500D01*
X150147215Y-107199499D01*
X150147215Y-107199500D01*
X150112280Y-107194477D01*
X150086796Y-107186994D01*
X150042642Y-107162134D01*
X150042368Y-107162528D01*
X150040326Y-107161103D01*
X150040172Y-107161289D01*
X150038152Y-107159606D01*
X150038124Y-107159590D01*
X150038014Y-107159490D01*
X150038011Y-107159488D01*
X150008362Y-107142370D01*
X149984240Y-107128443D01*
X149955808Y-107098624D01*
X149900804Y-107083886D01*
X149900804Y-107083885D01*
X149795214Y-107055593D01*
X149772475Y-107049500D01*
X149772474Y-107049500D01*
X149627525Y-107049500D01*
X149499198Y-107083884D01*
X149499199Y-107083885D01*
X149487509Y-107087017D01*
X149487507Y-107087018D01*
X149361992Y-107159485D01*
X149361984Y-107159490D01*
X149361968Y-107159505D01*
X149259505Y-107261968D01*
X149259490Y-107261984D01*
X149259485Y-107261992D01*
X149187017Y-107387509D01*
X149186989Y-107387578D01*
X149186748Y-107388511D01*
X149158048Y-107495622D01*
X149149500Y-107527525D01*
X149149500Y-107672475D01*
X149171180Y-107753385D01*
X149187016Y-107812486D01*
X149187017Y-107812487D01*
X149188190Y-107814518D01*
X149229571Y-107886193D01*
X149242687Y-107918956D01*
X149245353Y-107929946D01*
X149242028Y-107999737D01*
X149201498Y-108056651D01*
X149136636Y-108082617D01*
X149128995Y-108083346D01*
X149085120Y-108079683D01*
X149018589Y-108061856D01*
X149018588Y-108061855D01*
X148972476Y-108049500D01*
X148972475Y-108049500D01*
X148852330Y-108049500D01*
X148852325Y-108049499D01*
X148852323Y-108049500D01*
X148817389Y-108044475D01*
X148802390Y-108040070D01*
X148743644Y-108002327D01*
X148743615Y-108002293D01*
X148743614Y-108002293D01*
X148743613Y-108002291D01*
X148742457Y-108000958D01*
X148714977Y-107946083D01*
X148713332Y-107938521D01*
X148710500Y-107912168D01*
X148710500Y-107400693D01*
X148710500Y-107400691D01*
X148689115Y-107320883D01*
X148683386Y-107299499D01*
X148683386Y-107299498D01*
X148679799Y-107286111D01*
X148620493Y-107183390D01*
X148620491Y-107183387D01*
X148620486Y-107183382D01*
X148620480Y-107183375D01*
X147887391Y-106450287D01*
X147871105Y-106428532D01*
X147866239Y-106422031D01*
X147858747Y-106408310D01*
X147843895Y-106340050D01*
X147844024Y-106338241D01*
X147863394Y-106280040D01*
X147867578Y-106273529D01*
X147884203Y-106252898D01*
X148016623Y-106120480D01*
X148339597Y-105797506D01*
X148409578Y-105727525D01*
X148849500Y-105727525D01*
X148849500Y-105872475D01*
X148856318Y-105897918D01*
X148879984Y-105986243D01*
X148879985Y-105986245D01*
X148883537Y-105999500D01*
X148887017Y-106012488D01*
X148958910Y-106137010D01*
X148959376Y-106137900D01*
X149061985Y-106240509D01*
X149062674Y-106241005D01*
X149065178Y-106242353D01*
X149184069Y-106310995D01*
X149187087Y-106312869D01*
X149187514Y-106312983D01*
X149187515Y-106312984D01*
X149327525Y-106350500D01*
X149327528Y-106350500D01*
X149472472Y-106350500D01*
X149472475Y-106350500D01*
X149612485Y-106312984D01*
X149738015Y-106240509D01*
X149738015Y-106240508D01*
X149738101Y-106240459D01*
X149754008Y-106230100D01*
X149780444Y-106215665D01*
X149839867Y-106200500D01*
X152552725Y-106200500D01*
X152552727Y-106200500D01*
X152654588Y-106173207D01*
X152745913Y-106120480D01*
X152928472Y-105937918D01*
X152928475Y-105937917D01*
X152945912Y-105920480D01*
X152945913Y-105920480D01*
X153020480Y-105845913D01*
X153073207Y-105754587D01*
X153076902Y-105740797D01*
X153076904Y-105740797D01*
X153076904Y-105740790D01*
X153080459Y-105727525D01*
X153082346Y-105720480D01*
X153100501Y-105652727D01*
X153100501Y-105547273D01*
X153100501Y-105539678D01*
X153100501Y-105537994D01*
X153100500Y-105537920D01*
X153100500Y-104757789D01*
X153105523Y-104722855D01*
X153111867Y-104701249D01*
X153140376Y-104651379D01*
X153143137Y-104648434D01*
X153149355Y-104642914D01*
X153149641Y-104642470D01*
X153150084Y-104642267D01*
X153160105Y-104633371D01*
X153160601Y-104633006D01*
X153184999Y-104614999D01*
X153199338Y-104595570D01*
X153263852Y-104508157D01*
X153275905Y-104473711D01*
X153307708Y-104382826D01*
X153307709Y-104382821D01*
X153307710Y-104382819D01*
X153309780Y-104360737D01*
X153309782Y-104360733D01*
X153309781Y-104360733D01*
X153310500Y-104353070D01*
X153310500Y-103966929D01*
X153307710Y-103937185D01*
X153307710Y-103937181D01*
X153307708Y-103937177D01*
X153307708Y-103937173D01*
X153307283Y-103935960D01*
X153307087Y-103934423D01*
X153305108Y-103929743D01*
X153301053Y-103918156D01*
X153264215Y-103812882D01*
X153263872Y-103811870D01*
X153255523Y-103800557D01*
X153184999Y-103705001D01*
X153078157Y-103626148D01*
X153078155Y-103626147D01*
X153075775Y-103625314D01*
X152952829Y-103582291D01*
X152952823Y-103582290D01*
X152952785Y-103582285D01*
X152923074Y-103579500D01*
X152923070Y-103579500D01*
X152923066Y-103579500D01*
X152476934Y-103579500D01*
X152476930Y-103579500D01*
X152476926Y-103579500D01*
X152447213Y-103582285D01*
X152447175Y-103582290D01*
X152447169Y-103582291D01*
X152321845Y-103626146D01*
X152321844Y-103626146D01*
X152215000Y-103705000D01*
X152136146Y-103811844D01*
X152136146Y-103811845D01*
X152092291Y-103937169D01*
X152092290Y-103937175D01*
X152092285Y-103937213D01*
X152089500Y-103966924D01*
X152089500Y-104353074D01*
X152092285Y-104382785D01*
X152092290Y-104382823D01*
X152092291Y-104382829D01*
X152120423Y-104463219D01*
X152129078Y-104487953D01*
X152136148Y-104508157D01*
X152215001Y-104614999D01*
X152239537Y-104633107D01*
X152249134Y-104640190D01*
X152266771Y-104663419D01*
X152273532Y-104672324D01*
X152296724Y-104724870D01*
X152296824Y-104725412D01*
X152297453Y-104728828D01*
X152299500Y-104751265D01*
X152299500Y-105257670D01*
X152299499Y-105257676D01*
X152299500Y-105257679D01*
X152294475Y-105292614D01*
X152290070Y-105307612D01*
X152252327Y-105366355D01*
X152252292Y-105366385D01*
X152252291Y-105366387D01*
X152252289Y-105366387D01*
X152250958Y-105367542D01*
X152196097Y-105395018D01*
X152188539Y-105396663D01*
X152162168Y-105399500D01*
X149847216Y-105399500D01*
X149847215Y-105399499D01*
X149847215Y-105399500D01*
X149812280Y-105394477D01*
X149786796Y-105386994D01*
X149742642Y-105362134D01*
X149742368Y-105362528D01*
X149740326Y-105361103D01*
X149740172Y-105361289D01*
X149738152Y-105359606D01*
X149738124Y-105359590D01*
X149738014Y-105359490D01*
X149738006Y-105359485D01*
X149684243Y-105328445D01*
X149655808Y-105298624D01*
X149601007Y-105283939D01*
X149601007Y-105283940D01*
X149509082Y-105259309D01*
X149472475Y-105249500D01*
X149472474Y-105249500D01*
X149327525Y-105249500D01*
X149198994Y-105283939D01*
X149198993Y-105283940D01*
X149191338Y-105285991D01*
X149187510Y-105287017D01*
X149061991Y-105359485D01*
X149061984Y-105359490D01*
X149061968Y-105359505D01*
X148959505Y-105461968D01*
X148959490Y-105461984D01*
X148959485Y-105461992D01*
X148887017Y-105587509D01*
X148886989Y-105587578D01*
X148886748Y-105588511D01*
X148851390Y-105720470D01*
X148849500Y-105727525D01*
X148409578Y-105727525D01*
X148505387Y-105631717D01*
X148565929Y-105571175D01*
X148660490Y-105476614D01*
X148719799Y-105373887D01*
X148736251Y-105312485D01*
X148750500Y-105259309D01*
X148750500Y-104340691D01*
X148750500Y-103782329D01*
X148750656Y-103781247D01*
X148755523Y-103747393D01*
X148755959Y-103745910D01*
X148759927Y-103732394D01*
X148797672Y-103673644D01*
X148797700Y-103673619D01*
X148797699Y-103673619D01*
X148799041Y-103672456D01*
X148853920Y-103644977D01*
X148861479Y-103643333D01*
X148887832Y-103640500D01*
X149536723Y-103640500D01*
X149556426Y-103643333D01*
X149571657Y-103645523D01*
X149601267Y-103654217D01*
X149639966Y-103673423D01*
X149721843Y-103733852D01*
X149756308Y-103745912D01*
X149839744Y-103775108D01*
X149839745Y-103775109D01*
X149843205Y-103776572D01*
X149843693Y-103776712D01*
X149846687Y-103777663D01*
X149847179Y-103777709D01*
X149847181Y-103777710D01*
X149862045Y-103779103D01*
X149862057Y-103779108D01*
X149862057Y-103779105D01*
X149873161Y-103780146D01*
X149876908Y-103780498D01*
X149876930Y-103780500D01*
X149876934Y-103780500D01*
X150323063Y-103780500D01*
X150323070Y-103780500D01*
X150336288Y-103779260D01*
X150336288Y-103779261D01*
X150336294Y-103779259D01*
X150347071Y-103778248D01*
X150351689Y-103778032D01*
X150352813Y-103777710D01*
X150352819Y-103777710D01*
X150352823Y-103777708D01*
X150352826Y-103777708D01*
X150352841Y-103777702D01*
X150356286Y-103776718D01*
X150356287Y-103776718D01*
X150356297Y-103776715D01*
X150356788Y-103776574D01*
X150360245Y-103775111D01*
X150405706Y-103759204D01*
X150478157Y-103733852D01*
X150557478Y-103675309D01*
X150580416Y-103661918D01*
X150584420Y-103660124D01*
X150592227Y-103657273D01*
X150595539Y-103655144D01*
X150604049Y-103651333D01*
X150629788Y-103647823D01*
X150654736Y-103640500D01*
X150794351Y-103640500D01*
X150829285Y-103645523D01*
X150850891Y-103651867D01*
X150900761Y-103680377D01*
X150903700Y-103683132D01*
X150908421Y-103688441D01*
X150908432Y-103688431D01*
X150915001Y-103695000D01*
X151009171Y-103764500D01*
X151021843Y-103773852D01*
X151040842Y-103780500D01*
X151139749Y-103815110D01*
X151143207Y-103816573D01*
X151143693Y-103816712D01*
X151146687Y-103817663D01*
X151147179Y-103817709D01*
X151147181Y-103817710D01*
X151162045Y-103819103D01*
X151162057Y-103819108D01*
X151162057Y-103819105D01*
X151176930Y-103820500D01*
X151176934Y-103820500D01*
X151623063Y-103820500D01*
X151623070Y-103820500D01*
X151636288Y-103819260D01*
X151636288Y-103819261D01*
X151636294Y-103819259D01*
X151647071Y-103818248D01*
X151651685Y-103818033D01*
X151652812Y-103817710D01*
X151652819Y-103817710D01*
X151652823Y-103817708D01*
X151652826Y-103817708D01*
X151652844Y-103817701D01*
X151656288Y-103816717D01*
X151656290Y-103816717D01*
X151656784Y-103816575D01*
X151660241Y-103815112D01*
X151701836Y-103800557D01*
X151778157Y-103773852D01*
X151884999Y-103694999D01*
X151963852Y-103588157D01*
X151990557Y-103511836D01*
X152005112Y-103470241D01*
X152006575Y-103466784D01*
X152006717Y-103466290D01*
X152007664Y-103463307D01*
X152008250Y-103457061D01*
X152008250Y-103457060D01*
X152010500Y-103433069D01*
X152010500Y-103046940D01*
X152010499Y-103046928D01*
X152010435Y-103046248D01*
X152009256Y-103033673D01*
X152008544Y-103026078D01*
X152008249Y-103022930D01*
X152008033Y-103018311D01*
X152007708Y-103017174D01*
X152007708Y-103017173D01*
X152007705Y-103017164D01*
X152006718Y-103013714D01*
X152006718Y-103013710D01*
X152006715Y-103013701D01*
X152006574Y-103013210D01*
X152005107Y-103009741D01*
X151998050Y-102989573D01*
X151964225Y-102892912D01*
X151963872Y-102891870D01*
X151922706Y-102836092D01*
X151893183Y-102796090D01*
X151885040Y-102783535D01*
X151881002Y-102776401D01*
X151881093Y-102776335D01*
X151872115Y-102759893D01*
X151868307Y-102753969D01*
X151866583Y-102750921D01*
X151859404Y-102720178D01*
X151850500Y-102689848D01*
X151850500Y-102555794D01*
X151855522Y-102520861D01*
X151856499Y-102517535D01*
X151862934Y-102495616D01*
X151894228Y-102442874D01*
X152754517Y-101582586D01*
X153660490Y-100676614D01*
X153660490Y-100676613D01*
X153677926Y-100659177D01*
X153677930Y-100659170D01*
X154752679Y-99584423D01*
X154780929Y-99563275D01*
X154804021Y-99550667D01*
X154863446Y-99535500D01*
X154888097Y-99535500D01*
X154888102Y-99535500D01*
X154976564Y-99524877D01*
X155117342Y-99469361D01*
X155237922Y-99377922D01*
X155329361Y-99257342D01*
X155384877Y-99116564D01*
X155395500Y-99028102D01*
X155395500Y-98026898D01*
X155384877Y-97938436D01*
X155329361Y-97797658D01*
X155329360Y-97797657D01*
X155329360Y-97797656D01*
X155325630Y-97792737D01*
X155325318Y-97792140D01*
X155324240Y-97790904D01*
X155237922Y-97677076D01*
X155117345Y-97585640D01*
X155117343Y-97585639D01*
X155001296Y-97539876D01*
X154976559Y-97530121D01*
X154937152Y-97525389D01*
X154930926Y-97524642D01*
X154930925Y-97524641D01*
X154903220Y-97521315D01*
X154888102Y-97519500D01*
X154888098Y-97519500D01*
X153911901Y-97519500D01*
X153911898Y-97519500D01*
X153901560Y-97520741D01*
X153872853Y-97524187D01*
X153872853Y-97524188D01*
X153866920Y-97524900D01*
X153823439Y-97530121D01*
X153682653Y-97585640D01*
X153562076Y-97677076D01*
X153470640Y-97797653D01*
X153470638Y-97797658D01*
X153415122Y-97938438D01*
X153409202Y-97987739D01*
X153404500Y-98026898D01*
X153404500Y-99028102D01*
X153407941Y-99056754D01*
X153407941Y-99056755D01*
X153415121Y-99116557D01*
X153415121Y-99116558D01*
X153415122Y-99116561D01*
X153470403Y-99256745D01*
X153470640Y-99257345D01*
X153538928Y-99347396D01*
X153544941Y-99356069D01*
X153545276Y-99356599D01*
X153546576Y-99361155D01*
X153555893Y-99378154D01*
X153555979Y-99378122D01*
X153556045Y-99378295D01*
X153555983Y-99378318D01*
X153556640Y-99379517D01*
X153561910Y-99393645D01*
X153564056Y-99422387D01*
X153564455Y-99423784D01*
X153564219Y-99424565D01*
X153567057Y-99462570D01*
X153565766Y-99468690D01*
X153532668Y-99530223D01*
X153532117Y-99530777D01*
X153400286Y-99662608D01*
X153372031Y-99683759D01*
X153358310Y-99691251D01*
X153290050Y-99706103D01*
X153288244Y-99705974D01*
X153230043Y-99686606D01*
X153223528Y-99682419D01*
X153202892Y-99665789D01*
X153176616Y-99639513D01*
X153176614Y-99639511D01*
X153134922Y-99615440D01*
X153073885Y-99580199D01*
X153043095Y-99571950D01*
X153043090Y-99571947D01*
X153043090Y-99571949D01*
X153001199Y-99560724D01*
X153001198Y-99560723D01*
X152959312Y-99549500D01*
X152959309Y-99549500D01*
X152959308Y-99549500D01*
X150155796Y-99549500D01*
X150155795Y-99549499D01*
X150155795Y-99549500D01*
X150120860Y-99544477D01*
X150095618Y-99537065D01*
X150042873Y-99505769D01*
X147454284Y-96917181D01*
X147420799Y-96855858D01*
X147425783Y-96786166D01*
X147467655Y-96730233D01*
X147533119Y-96705816D01*
X147541965Y-96705500D01*
X151036018Y-96705500D01*
X151075523Y-96711961D01*
X151079620Y-96713338D01*
X151085587Y-96715516D01*
X151223436Y-96769877D01*
X151311898Y-96780500D01*
X151311903Y-96780500D01*
X152288097Y-96780500D01*
X152288102Y-96780500D01*
X152376564Y-96769877D01*
X152517342Y-96714361D01*
X152517342Y-96714360D01*
X152517889Y-96714145D01*
X152563379Y-96705500D01*
X153000994Y-96705500D01*
X153001000Y-96705500D01*
X153048786Y-96701739D01*
X153079379Y-96696894D01*
X153109754Y-96690487D01*
X153211162Y-96642309D01*
X153260662Y-96606345D01*
X153317919Y-96552177D01*
X153371641Y-96453594D01*
X153373886Y-96446686D01*
X153390547Y-96395406D01*
X153390546Y-96395406D01*
X153390548Y-96395403D01*
X153405500Y-96301000D01*
X153405500Y-94899000D01*
X153401739Y-94851214D01*
X153396894Y-94820621D01*
X153390487Y-94790246D01*
X153342309Y-94688838D01*
X153342306Y-94688833D01*
X153342301Y-94688826D01*
X153306350Y-94639344D01*
X153306347Y-94639341D01*
X153306345Y-94639338D01*
X153252177Y-94582081D01*
X153252174Y-94582079D01*
X153153598Y-94528360D01*
X153153588Y-94528356D01*
X153095405Y-94509452D01*
X153095406Y-94509452D01*
X153024600Y-94498238D01*
X153001000Y-94494500D01*
X153000999Y-94494500D01*
X152496272Y-94494500D01*
X152429233Y-94474815D01*
X152383478Y-94422011D01*
X152373534Y-94352853D01*
X152402559Y-94289297D01*
X152461337Y-94251523D01*
X152496272Y-94246500D01*
X152512597Y-94246500D01*
X152527525Y-94250500D01*
X152527528Y-94250500D01*
X152672472Y-94250500D01*
X152672475Y-94250500D01*
X152812485Y-94212984D01*
X152938015Y-94140509D01*
X153040509Y-94038015D01*
X153112984Y-93912485D01*
X153150500Y-93772475D01*
X153150500Y-93627525D01*
X153112984Y-93487515D01*
X153112982Y-93487512D01*
X153112983Y-93487512D01*
X153106604Y-93476464D01*
X153106603Y-93476463D01*
X153040513Y-93361991D01*
X153040508Y-93361984D01*
X153040493Y-93361968D01*
X152938030Y-93259505D01*
X152938014Y-93259490D01*
X152938006Y-93259485D01*
X152884243Y-93228445D01*
X152855808Y-93198624D01*
X152801007Y-93183939D01*
X152801007Y-93183940D01*
X152748105Y-93169765D01*
X152672475Y-93149500D01*
X152672474Y-93149500D01*
X152672384Y-93149476D01*
X152653793Y-93145547D01*
X152624907Y-93137065D01*
X152572162Y-93105769D01*
X152019426Y-92553033D01*
X151998274Y-92524777D01*
X151985667Y-92501688D01*
X151970500Y-92442263D01*
X151970500Y-91554084D01*
X151975521Y-91519157D01*
X151978707Y-91508304D01*
X152016477Y-91449523D01*
X152080031Y-91420494D01*
X152149186Y-91430432D01*
G37*
%TD.AperFunction*%
%TA.AperFunction,Conductor*%
G36*
X142854636Y-103573367D02*
G01*
X142872311Y-103574663D01*
X142878051Y-103575500D01*
X143621948Y-103575499D01*
X143621949Y-103575499D01*
X143623908Y-103575213D01*
X143629526Y-103574911D01*
X143634162Y-103576005D01*
X143653596Y-103575960D01*
X143667351Y-103577910D01*
X143694509Y-103590250D01*
X143697527Y-103590963D01*
X143698659Y-103592136D01*
X143730959Y-103606812D01*
X143768845Y-103665516D01*
X143771018Y-103672865D01*
X143774646Y-103723559D01*
X143774824Y-103723572D01*
X143774735Y-103724796D01*
X143774814Y-103725896D01*
X143774500Y-103728054D01*
X143774500Y-104471950D01*
X143784779Y-104542506D01*
X143784779Y-104542507D01*
X143784780Y-104542509D01*
X143790000Y-104553186D01*
X143790001Y-104553190D01*
X143812989Y-104600212D01*
X143824804Y-104624379D01*
X143824804Y-104624380D01*
X143824805Y-104624381D01*
X143837987Y-104651347D01*
X143837988Y-104651349D01*
X143923649Y-104737010D01*
X144032070Y-104790015D01*
X144032071Y-104790015D01*
X144032488Y-104790219D01*
X144033206Y-104790570D01*
X144036249Y-104791142D01*
X144041370Y-104791513D01*
X144103051Y-104800500D01*
X144296948Y-104800499D01*
X144296950Y-104800499D01*
X144325172Y-104796387D01*
X144367509Y-104790220D01*
X144379522Y-104784346D01*
X144413109Y-104773516D01*
X144419432Y-104772436D01*
X144436128Y-104769585D01*
X144491928Y-104772835D01*
X144494370Y-104773552D01*
X144504866Y-104777625D01*
X144505522Y-104777702D01*
X144505932Y-104778038D01*
X144513896Y-104781129D01*
X144532491Y-104790220D01*
X144603051Y-104800500D01*
X144796948Y-104800499D01*
X144796950Y-104800499D01*
X144825172Y-104796387D01*
X144867509Y-104790220D01*
X144976347Y-104737012D01*
X145062012Y-104651347D01*
X145062013Y-104651346D01*
X145082980Y-104608457D01*
X145085530Y-104604160D01*
X145088912Y-104601011D01*
X145089456Y-104600212D01*
X145089206Y-104600063D01*
X145091884Y-104595570D01*
X145095102Y-104591914D01*
X145100632Y-104583789D01*
X145104181Y-104579905D01*
X145105009Y-104580662D01*
X145115880Y-104568315D01*
X145115029Y-104567397D01*
X145116622Y-104565919D01*
X145119060Y-104564703D01*
X145121936Y-104561438D01*
X145122905Y-104560679D01*
X145124092Y-104562195D01*
X145132588Y-104557961D01*
X145145670Y-104545829D01*
X145163210Y-104542699D01*
X145179156Y-104534752D01*
X145196890Y-104536689D01*
X145214454Y-104533556D01*
X145248582Y-104542337D01*
X145248612Y-104542341D01*
X145248634Y-104542351D01*
X145249496Y-104542710D01*
X145297135Y-104580228D01*
X145298243Y-104579316D01*
X145300078Y-104581542D01*
X145301390Y-104583579D01*
X145301930Y-104584005D01*
X145302669Y-104585016D01*
X145302428Y-104585192D01*
X145302886Y-104585903D01*
X145303815Y-104586655D01*
X145304284Y-104588075D01*
X145315796Y-104605953D01*
X145329071Y-104633107D01*
X145337988Y-104651347D01*
X145341471Y-104656226D01*
X145341596Y-104656316D01*
X145341721Y-104656576D01*
X145343960Y-104659712D01*
X145343418Y-104660098D01*
X145348885Y-104671445D01*
X145359070Y-104686981D01*
X145362228Y-104695002D01*
X145362477Y-104696033D01*
X145363041Y-104697067D01*
X145365877Y-104704267D01*
X145367491Y-104722257D01*
X145374500Y-104749701D01*
X145374500Y-106489915D01*
X145369476Y-106524852D01*
X145362064Y-106550093D01*
X145330769Y-106602837D01*
X144683033Y-107250573D01*
X144661609Y-107266611D01*
X144654782Y-107271722D01*
X144631694Y-107284330D01*
X144572264Y-107299500D01*
X144545730Y-107299500D01*
X144527074Y-107301249D01*
X144521069Y-107301812D01*
X144517499Y-107301978D01*
X144515297Y-107302353D01*
X144387118Y-107347206D01*
X144376249Y-107355228D01*
X144291530Y-107417754D01*
X144282801Y-107424196D01*
X144277852Y-107427847D01*
X144277847Y-107427853D01*
X144254952Y-107458876D01*
X144254949Y-107458878D01*
X144254948Y-107458882D01*
X144230162Y-107484005D01*
X144222939Y-107489489D01*
X144220506Y-107491337D01*
X144155208Y-107516195D01*
X144086836Y-107501805D01*
X144038349Y-107454937D01*
X144035043Y-107449256D01*
X144033135Y-107445975D01*
X144020539Y-107415712D01*
X144012984Y-107387515D01*
X143987210Y-107342874D01*
X143940511Y-107261988D01*
X143940506Y-107261982D01*
X143940493Y-107261968D01*
X143838030Y-107159505D01*
X143838014Y-107159490D01*
X143838011Y-107159488D01*
X143808362Y-107142370D01*
X143784240Y-107128443D01*
X143755808Y-107098624D01*
X143700804Y-107083886D01*
X143700804Y-107083885D01*
X143595214Y-107055593D01*
X143572475Y-107049500D01*
X143572474Y-107049500D01*
X143427525Y-107049500D01*
X143299198Y-107083884D01*
X143299199Y-107083885D01*
X143287509Y-107087017D01*
X143287507Y-107087018D01*
X143161992Y-107159485D01*
X143157631Y-107162528D01*
X143157345Y-107162118D01*
X143145511Y-107170161D01*
X143119562Y-107184331D01*
X143060133Y-107199500D01*
X142109347Y-107199500D01*
X142074404Y-107194475D01*
X142067138Y-107192341D01*
X142008363Y-107154563D01*
X141979342Y-107091005D01*
X141989290Y-107021847D01*
X142032398Y-106970798D01*
X142037142Y-106967575D01*
X142065864Y-106953104D01*
X142073767Y-106950339D01*
X142090794Y-106944381D01*
X142196423Y-106866423D01*
X142274381Y-106760794D01*
X142303807Y-106676701D01*
X142317741Y-106636881D01*
X142317741Y-106636879D01*
X142320500Y-106607457D01*
X142320499Y-106232544D01*
X142317741Y-106203121D01*
X142316823Y-106200499D01*
X142313643Y-106191410D01*
X142313641Y-106191406D01*
X142312697Y-106188709D01*
X142288141Y-106118530D01*
X142274381Y-106079206D01*
X142214430Y-105997976D01*
X142197728Y-105966888D01*
X142196374Y-105963181D01*
X142192364Y-105952203D01*
X142187853Y-105882487D01*
X142190033Y-105872784D01*
X142211245Y-105826339D01*
X142274381Y-105740794D01*
X142312549Y-105631717D01*
X142317741Y-105616881D01*
X142317741Y-105616879D01*
X142320500Y-105587457D01*
X142320499Y-105212544D01*
X142317741Y-105183121D01*
X142274381Y-105059206D01*
X142227670Y-104995915D01*
X142196423Y-104953576D01*
X142106912Y-104887515D01*
X142090794Y-104875619D01*
X142090792Y-104875618D01*
X142083101Y-104872926D01*
X142051794Y-104856649D01*
X142042602Y-104850056D01*
X141999599Y-104794988D01*
X141993195Y-104725412D01*
X142025421Y-104663421D01*
X142028278Y-104660446D01*
X142076771Y-104629287D01*
X142090794Y-104624381D01*
X142196423Y-104546423D01*
X142274381Y-104440794D01*
X142309409Y-104340691D01*
X142317741Y-104316881D01*
X142317741Y-104316879D01*
X142318645Y-104307238D01*
X142320500Y-104287457D01*
X142320499Y-104115080D01*
X142325522Y-104080146D01*
X142332932Y-104054909D01*
X142364226Y-104002164D01*
X142745377Y-103621013D01*
X142750865Y-103616906D01*
X142750711Y-103616740D01*
X142753179Y-103614446D01*
X142762075Y-103608518D01*
X142773674Y-103599840D01*
X142775751Y-103598707D01*
X142776031Y-103599220D01*
X142786299Y-103592379D01*
X142792475Y-103589573D01*
X142794367Y-103588539D01*
X142854000Y-103573366D01*
X142854636Y-103573367D01*
G37*
%TD.AperFunction*%
%TA.AperFunction,Conductor*%
G36*
X135667126Y-97206256D02*
G01*
X135708999Y-97262188D01*
X135709001Y-97262192D01*
X135711682Y-97269380D01*
X135719500Y-97312714D01*
X135719500Y-102851315D01*
X135714476Y-102886252D01*
X135707064Y-102911493D01*
X135675769Y-102964237D01*
X133486713Y-105153293D01*
X133465268Y-105169347D01*
X133458462Y-105174442D01*
X133435374Y-105187050D01*
X133375944Y-105202220D01*
X132614981Y-105202220D01*
X132441032Y-105236820D01*
X132441025Y-105236821D01*
X132441002Y-105236829D01*
X132277152Y-105304697D01*
X132277134Y-105304705D01*
X132277123Y-105304712D01*
X132211893Y-105348297D01*
X132211892Y-105348298D01*
X132180053Y-105363529D01*
X132167057Y-105367598D01*
X132097199Y-105368844D01*
X132037757Y-105332124D01*
X132009079Y-105276691D01*
X132007252Y-105268636D01*
X132004180Y-105241208D01*
X132004180Y-101888168D01*
X132009203Y-101853234D01*
X132013040Y-101840166D01*
X132020619Y-101828371D01*
X132023724Y-101814696D01*
X132039137Y-101799557D01*
X132050814Y-101781388D01*
X132063566Y-101775563D01*
X132073572Y-101765737D01*
X132094720Y-101761335D01*
X132114369Y-101752362D01*
X132129624Y-101754071D01*
X132141976Y-101751501D01*
X132176387Y-101759311D01*
X132184108Y-101762269D01*
X132208619Y-101774953D01*
X132277133Y-101820733D01*
X132277135Y-101820734D01*
X132277139Y-101820736D01*
X132337030Y-101845543D01*
X132441014Y-101888614D01*
X132441015Y-101888614D01*
X132441016Y-101888614D01*
X132441021Y-101888616D01*
X132607360Y-101921702D01*
X132610083Y-101922424D01*
X132614986Y-101923220D01*
X133592373Y-101923220D01*
X133596494Y-101923220D01*
X133604347Y-101920837D01*
X133650362Y-101911684D01*
X133650363Y-101911684D01*
X133766333Y-101888617D01*
X133766333Y-101888616D01*
X133766338Y-101888616D01*
X133766341Y-101888614D01*
X133766346Y-101888614D01*
X133769534Y-101887293D01*
X133777515Y-101883993D01*
X133777556Y-101883971D01*
X133930220Y-101820736D01*
X133930220Y-101820735D01*
X133930227Y-101820733D01*
X134077715Y-101722184D01*
X134203144Y-101596755D01*
X134301693Y-101449267D01*
X134302010Y-101448503D01*
X134307896Y-101434289D01*
X134369574Y-101285386D01*
X134371039Y-101278024D01*
X134403965Y-101112490D01*
X134404180Y-101111411D01*
X134404180Y-100934029D01*
X134404180Y-100934026D01*
X134404179Y-100934024D01*
X134369576Y-100760061D01*
X134369573Y-100760052D01*
X134368149Y-100756615D01*
X134339804Y-100688182D01*
X134301695Y-100596177D01*
X134301693Y-100596174D01*
X134301693Y-100596173D01*
X134283890Y-100569529D01*
X134281982Y-100566258D01*
X134280976Y-100562192D01*
X134270762Y-100540846D01*
X134266089Y-100525923D01*
X134265628Y-100500122D01*
X134265210Y-100498431D01*
X134265578Y-100497350D01*
X134264840Y-100456072D01*
X134266788Y-100448968D01*
X134298684Y-100394106D01*
X135020480Y-99672313D01*
X135050406Y-99620480D01*
X135073207Y-99580987D01*
X135100500Y-99479127D01*
X135100500Y-97687169D01*
X135105522Y-97652236D01*
X135112934Y-97626991D01*
X135144228Y-97574249D01*
X135495214Y-97223263D01*
X135523457Y-97202119D01*
X135533391Y-97196695D01*
X135601661Y-97181842D01*
X135667126Y-97206256D01*
G37*
%TD.AperFunction*%
%TA.AperFunction,Conductor*%
G36*
X146991928Y-99872835D02*
G01*
X146994370Y-99873552D01*
X147004866Y-99877625D01*
X147005522Y-99877702D01*
X147005932Y-99878038D01*
X147013896Y-99881129D01*
X147032491Y-99890220D01*
X147103051Y-99900500D01*
X147296948Y-99900499D01*
X147296949Y-99900499D01*
X147298889Y-99900215D01*
X147304542Y-99899912D01*
X147309172Y-99901005D01*
X147328603Y-99900961D01*
X147342348Y-99902910D01*
X147369518Y-99915255D01*
X147372541Y-99915969D01*
X147373674Y-99917143D01*
X147405957Y-99931811D01*
X147443845Y-99990515D01*
X147443846Y-99990520D01*
X147445983Y-99997747D01*
X147448201Y-100046771D01*
X147450103Y-100046960D01*
X147449500Y-100053049D01*
X147449500Y-100246951D01*
X147456994Y-100298395D01*
X147456995Y-100298398D01*
X147459779Y-100317507D01*
X147459779Y-100317508D01*
X147469575Y-100337547D01*
X147472307Y-100346048D01*
X147472420Y-100350512D01*
X147476484Y-100363117D01*
X147480414Y-100386139D01*
X147477155Y-100441954D01*
X147476440Y-100444388D01*
X147468869Y-100463896D01*
X147459781Y-100482485D01*
X147459780Y-100482489D01*
X147459779Y-100482491D01*
X147454139Y-100521211D01*
X147449500Y-100553051D01*
X147449500Y-100553052D01*
X147449500Y-100553055D01*
X147449500Y-100746951D01*
X147456994Y-100798395D01*
X147456995Y-100798398D01*
X147459779Y-100817507D01*
X147459779Y-100817508D01*
X147469575Y-100837547D01*
X147472307Y-100846048D01*
X147472420Y-100850512D01*
X147476484Y-100863117D01*
X147480414Y-100886139D01*
X147477151Y-100941967D01*
X147476436Y-100944400D01*
X147468875Y-100963883D01*
X147464682Y-100972463D01*
X147464677Y-100972472D01*
X147459781Y-100982486D01*
X147459781Y-100982488D01*
X147459780Y-100982491D01*
X147449500Y-101053051D01*
X147449500Y-101053055D01*
X147449500Y-101053056D01*
X147449500Y-101246951D01*
X147456994Y-101298395D01*
X147456995Y-101298398D01*
X147459779Y-101317507D01*
X147459779Y-101317508D01*
X147469575Y-101337547D01*
X147472307Y-101346048D01*
X147472420Y-101350512D01*
X147476484Y-101363117D01*
X147480414Y-101386139D01*
X147477150Y-101441972D01*
X147476434Y-101444408D01*
X147469106Y-101463409D01*
X147469004Y-101463620D01*
X147468765Y-101464112D01*
X147459780Y-101482489D01*
X147459780Y-101482490D01*
X147459780Y-101482491D01*
X147449500Y-101553051D01*
X147449500Y-101553054D01*
X147449500Y-101553056D01*
X147449500Y-101746951D01*
X147456994Y-101798395D01*
X147456995Y-101798398D01*
X147459779Y-101817507D01*
X147459779Y-101817508D01*
X147469575Y-101837547D01*
X147472307Y-101846048D01*
X147472420Y-101850512D01*
X147476484Y-101863117D01*
X147480414Y-101886139D01*
X147477155Y-101941954D01*
X147476440Y-101944388D01*
X147468869Y-101963896D01*
X147459781Y-101982485D01*
X147459780Y-101982489D01*
X147459779Y-101982491D01*
X147456036Y-102008187D01*
X147449500Y-102053051D01*
X147449500Y-102053052D01*
X147449500Y-102053055D01*
X147449500Y-102246951D01*
X147456994Y-102298395D01*
X147456995Y-102298398D01*
X147459779Y-102317507D01*
X147459779Y-102317508D01*
X147469575Y-102337547D01*
X147472307Y-102346048D01*
X147472420Y-102350512D01*
X147476484Y-102363117D01*
X147480414Y-102386139D01*
X147477151Y-102441967D01*
X147476436Y-102444400D01*
X147468875Y-102463883D01*
X147464682Y-102472463D01*
X147464677Y-102472472D01*
X147459781Y-102482486D01*
X147459781Y-102482488D01*
X147459780Y-102482491D01*
X147449500Y-102553051D01*
X147449500Y-102553054D01*
X147449500Y-102553056D01*
X147449500Y-102746951D01*
X147456994Y-102798395D01*
X147456995Y-102798398D01*
X147459779Y-102817507D01*
X147459779Y-102817508D01*
X147469575Y-102837547D01*
X147472307Y-102846048D01*
X147472420Y-102850512D01*
X147476484Y-102863117D01*
X147480414Y-102886139D01*
X147477155Y-102941954D01*
X147476440Y-102944388D01*
X147468869Y-102963896D01*
X147459781Y-102982485D01*
X147459780Y-102982489D01*
X147459779Y-102982491D01*
X147454726Y-103017181D01*
X147449500Y-103053051D01*
X147449500Y-103053052D01*
X147449500Y-103053055D01*
X147449500Y-103246957D01*
X147449824Y-103251427D01*
X147448992Y-103251487D01*
X147449036Y-103278617D01*
X147447087Y-103292354D01*
X147418181Y-103355963D01*
X147359473Y-103393847D01*
X147359467Y-103393849D01*
X147352119Y-103396021D01*
X147301439Y-103399645D01*
X147301427Y-103399824D01*
X147300195Y-103399734D01*
X147299102Y-103399813D01*
X147296952Y-103399500D01*
X147296949Y-103399500D01*
X147296944Y-103399500D01*
X147103049Y-103399500D01*
X147103048Y-103399500D01*
X147051599Y-103406995D01*
X147051596Y-103406995D01*
X147032492Y-103409779D01*
X147032491Y-103409779D01*
X147012460Y-103419571D01*
X147003950Y-103422306D01*
X146999489Y-103422418D01*
X146986887Y-103426482D01*
X146963864Y-103430413D01*
X146908059Y-103427159D01*
X146905620Y-103426442D01*
X146886104Y-103418870D01*
X146868000Y-103410020D01*
X146867523Y-103409784D01*
X146867503Y-103409778D01*
X146867405Y-103409764D01*
X146820545Y-103402937D01*
X146796949Y-103399500D01*
X146796946Y-103399500D01*
X146603048Y-103399500D01*
X146551599Y-103406995D01*
X146551596Y-103406995D01*
X146532492Y-103409779D01*
X146532491Y-103409779D01*
X146512460Y-103419571D01*
X146503950Y-103422306D01*
X146499489Y-103422418D01*
X146486887Y-103426482D01*
X146463864Y-103430413D01*
X146408059Y-103427159D01*
X146405620Y-103426442D01*
X146386104Y-103418870D01*
X146368000Y-103410020D01*
X146367523Y-103409784D01*
X146367503Y-103409778D01*
X146367405Y-103409764D01*
X146320545Y-103402937D01*
X146296949Y-103399500D01*
X146296946Y-103399500D01*
X146103048Y-103399500D01*
X146051599Y-103406995D01*
X146051596Y-103406995D01*
X146032492Y-103409779D01*
X146032491Y-103409779D01*
X146012460Y-103419571D01*
X146003950Y-103422306D01*
X145999489Y-103422418D01*
X145986887Y-103426482D01*
X145963864Y-103430413D01*
X145908059Y-103427159D01*
X145905620Y-103426442D01*
X145886104Y-103418870D01*
X145868000Y-103410020D01*
X145867523Y-103409784D01*
X145867503Y-103409778D01*
X145867405Y-103409764D01*
X145820545Y-103402937D01*
X145796949Y-103399500D01*
X145796946Y-103399500D01*
X145603054Y-103399500D01*
X145603049Y-103399500D01*
X145532596Y-103409764D01*
X145532493Y-103409779D01*
X145423647Y-103462990D01*
X145337986Y-103548651D01*
X145337986Y-103548652D01*
X145319229Y-103587020D01*
X145299373Y-103616199D01*
X145291045Y-103625314D01*
X145231294Y-103661529D01*
X145161448Y-103659691D01*
X145105788Y-103622876D01*
X145099185Y-103615255D01*
X145081501Y-103588518D01*
X145063691Y-103552087D01*
X145062248Y-103548889D01*
X145062010Y-103548650D01*
X144976348Y-103462988D01*
X144976002Y-103462819D01*
X144867513Y-103409780D01*
X144867508Y-103409779D01*
X144847606Y-103406879D01*
X144847606Y-103406880D01*
X144827342Y-103403928D01*
X144796949Y-103399500D01*
X144796946Y-103399500D01*
X144603048Y-103399500D01*
X144551599Y-103406995D01*
X144551596Y-103406995D01*
X144532492Y-103409779D01*
X144532491Y-103409779D01*
X144512460Y-103419571D01*
X144503950Y-103422306D01*
X144499489Y-103422418D01*
X144486887Y-103426482D01*
X144463864Y-103430413D01*
X144408059Y-103427159D01*
X144405620Y-103426442D01*
X144386104Y-103418870D01*
X144368000Y-103410020D01*
X144367523Y-103409784D01*
X144367503Y-103409778D01*
X144367405Y-103409764D01*
X144320545Y-103402937D01*
X144296949Y-103399500D01*
X144296946Y-103399500D01*
X144103041Y-103399500D01*
X144098571Y-103399824D01*
X144098510Y-103398995D01*
X144071379Y-103399036D01*
X144057643Y-103397087D01*
X143994034Y-103368180D01*
X143986376Y-103356312D01*
X143956152Y-103309476D01*
X143956042Y-103309103D01*
X143953979Y-103302127D01*
X143950357Y-103251436D01*
X143950176Y-103251423D01*
X143950267Y-103250167D01*
X143950189Y-103249080D01*
X143950500Y-103246949D01*
X143950499Y-103053052D01*
X143947675Y-103033669D01*
X143943150Y-103002605D01*
X143940220Y-102982491D01*
X143929705Y-102960983D01*
X143926737Y-102950840D01*
X143926740Y-102946888D01*
X143923516Y-102936888D01*
X143919585Y-102913870D01*
X143922844Y-102858042D01*
X143923560Y-102855605D01*
X143931134Y-102836092D01*
X143935143Y-102827893D01*
X143940220Y-102817509D01*
X143950500Y-102746949D01*
X143950499Y-102553052D01*
X143945324Y-102517531D01*
X143940220Y-102482493D01*
X143940220Y-102482491D01*
X143930423Y-102462453D01*
X143927691Y-102453948D01*
X143927578Y-102449485D01*
X143923516Y-102436888D01*
X143919585Y-102413870D01*
X143922844Y-102358042D01*
X143923560Y-102355605D01*
X143931134Y-102336092D01*
X143937759Y-102322542D01*
X143940220Y-102317509D01*
X143950500Y-102246949D01*
X143950499Y-102053052D01*
X143948045Y-102036210D01*
X143947070Y-102029515D01*
X143945611Y-102019500D01*
X143940930Y-101987367D01*
X143940220Y-101982491D01*
X143930751Y-101963123D01*
X143928151Y-101955349D01*
X143927979Y-101950728D01*
X143923516Y-101936888D01*
X143919585Y-101913871D01*
X143922844Y-101858042D01*
X143923560Y-101855605D01*
X143931134Y-101836092D01*
X143934909Y-101828371D01*
X143940220Y-101817509D01*
X143950500Y-101746949D01*
X143950499Y-101553052D01*
X143946780Y-101527525D01*
X143940968Y-101487626D01*
X143940220Y-101482491D01*
X143930728Y-101463076D01*
X143928119Y-101455254D01*
X143927951Y-101450642D01*
X143923516Y-101436888D01*
X143919585Y-101413870D01*
X143922844Y-101358042D01*
X143923560Y-101355605D01*
X143931134Y-101336092D01*
X143933553Y-101331145D01*
X143940220Y-101317509D01*
X143950500Y-101246949D01*
X143950499Y-101053052D01*
X143949729Y-101047769D01*
X143942701Y-100999522D01*
X143940220Y-100982491D01*
X143939179Y-100980361D01*
X143934346Y-100970475D01*
X143923516Y-100936888D01*
X143919585Y-100913870D01*
X143922844Y-100858042D01*
X143923560Y-100855605D01*
X143927626Y-100845128D01*
X143927703Y-100844474D01*
X143928039Y-100844064D01*
X143931134Y-100836092D01*
X143935323Y-100827525D01*
X143940220Y-100817509D01*
X143950500Y-100746949D01*
X143950499Y-100553052D01*
X143948308Y-100538015D01*
X143945175Y-100516507D01*
X143941515Y-100491380D01*
X143941167Y-100486586D01*
X143940220Y-100482490D01*
X143934346Y-100470475D01*
X143923516Y-100436888D01*
X143919585Y-100413870D01*
X143922844Y-100358042D01*
X143923560Y-100355605D01*
X143927626Y-100345128D01*
X143927703Y-100344474D01*
X143928039Y-100344064D01*
X143931134Y-100336092D01*
X143934873Y-100328445D01*
X143940220Y-100317509D01*
X143950500Y-100246949D01*
X143950499Y-100053052D01*
X143950499Y-100053049D01*
X143950499Y-100053047D01*
X143950175Y-100048573D01*
X143951012Y-100048512D01*
X143950961Y-100021392D01*
X143952910Y-100007650D01*
X143981813Y-99944039D01*
X144040514Y-99906154D01*
X144047877Y-99903977D01*
X144098561Y-99900355D01*
X144098575Y-99900176D01*
X144099818Y-99900266D01*
X144100911Y-99900188D01*
X144103051Y-99900500D01*
X144296948Y-99900499D01*
X144296950Y-99900499D01*
X144325172Y-99896387D01*
X144367509Y-99890220D01*
X144379522Y-99884346D01*
X144413109Y-99873516D01*
X144419432Y-99872436D01*
X144436128Y-99869585D01*
X144491928Y-99872835D01*
X144494370Y-99873552D01*
X144504866Y-99877625D01*
X144505522Y-99877702D01*
X144505932Y-99878038D01*
X144513896Y-99881129D01*
X144532491Y-99890220D01*
X144603051Y-99900500D01*
X144796948Y-99900499D01*
X144796950Y-99900499D01*
X144825172Y-99896387D01*
X144867509Y-99890220D01*
X144879522Y-99884346D01*
X144913109Y-99873516D01*
X144919432Y-99872436D01*
X144936128Y-99869585D01*
X144991928Y-99872835D01*
X144994370Y-99873552D01*
X145004866Y-99877625D01*
X145005522Y-99877702D01*
X145005932Y-99878038D01*
X145013896Y-99881129D01*
X145032491Y-99890220D01*
X145103051Y-99900500D01*
X145296948Y-99900499D01*
X145296950Y-99900499D01*
X145325172Y-99896387D01*
X145367509Y-99890220D01*
X145379522Y-99884346D01*
X145413109Y-99873516D01*
X145419432Y-99872436D01*
X145436128Y-99869585D01*
X145491928Y-99872835D01*
X145494370Y-99873552D01*
X145504866Y-99877625D01*
X145505522Y-99877702D01*
X145505932Y-99878038D01*
X145513896Y-99881129D01*
X145532491Y-99890220D01*
X145603051Y-99900500D01*
X145796948Y-99900499D01*
X145796950Y-99900499D01*
X145825172Y-99896387D01*
X145867509Y-99890220D01*
X145879522Y-99884346D01*
X145913109Y-99873516D01*
X145919432Y-99872436D01*
X145936128Y-99869585D01*
X145991928Y-99872835D01*
X145994370Y-99873552D01*
X146004866Y-99877625D01*
X146005522Y-99877702D01*
X146005932Y-99878038D01*
X146013896Y-99881129D01*
X146032491Y-99890220D01*
X146103051Y-99900500D01*
X146296948Y-99900499D01*
X146296950Y-99900499D01*
X146325172Y-99896387D01*
X146367509Y-99890220D01*
X146379522Y-99884346D01*
X146413109Y-99873516D01*
X146419432Y-99872436D01*
X146436128Y-99869585D01*
X146491928Y-99872835D01*
X146494370Y-99873552D01*
X146504866Y-99877625D01*
X146505522Y-99877702D01*
X146505932Y-99878038D01*
X146513896Y-99881129D01*
X146532491Y-99890220D01*
X146603051Y-99900500D01*
X146796948Y-99900499D01*
X146796950Y-99900499D01*
X146825172Y-99896387D01*
X146867509Y-99890220D01*
X146879522Y-99884346D01*
X146913109Y-99873516D01*
X146919432Y-99872436D01*
X146936128Y-99869585D01*
X146991928Y-99872835D01*
G37*
%TD.AperFunction*%
%TA.AperFunction,Conductor*%
G36*
X159496286Y-69848243D02*
G01*
X159511284Y-69852647D01*
X159570035Y-69890392D01*
X159571222Y-69891761D01*
X159598702Y-69946637D01*
X159600346Y-69954195D01*
X159603179Y-69980551D01*
X159603179Y-72217270D01*
X159603178Y-72217272D01*
X159603179Y-72217274D01*
X159601301Y-72230332D01*
X159598155Y-72252209D01*
X159594318Y-72265275D01*
X159556542Y-72324052D01*
X159492985Y-72353074D01*
X159430976Y-72346128D01*
X159424193Y-72343529D01*
X159423259Y-72343171D01*
X159398738Y-72330483D01*
X159330238Y-72284713D01*
X159330233Y-72284710D01*
X159330232Y-72284709D01*
X159330222Y-72284703D01*
X159166356Y-72216829D01*
X159166333Y-72216821D01*
X159166326Y-72216819D01*
X158992378Y-72182220D01*
X158992374Y-72182220D01*
X158992371Y-72182220D01*
X158238765Y-72182220D01*
X158238764Y-72182219D01*
X158238764Y-72182220D01*
X158203829Y-72177197D01*
X158178587Y-72169785D01*
X158125842Y-72138489D01*
X157986875Y-71999522D01*
X157986873Y-71999520D01*
X157962658Y-71985539D01*
X157941210Y-71973155D01*
X157941210Y-71973156D01*
X157895549Y-71946793D01*
X157844617Y-71933146D01*
X157844616Y-71933145D01*
X157793690Y-71919500D01*
X157793687Y-71919500D01*
X157793686Y-71919500D01*
X155799723Y-71919500D01*
X155799718Y-71919499D01*
X155799716Y-71919500D01*
X155764782Y-71914475D01*
X155749783Y-71910070D01*
X155691020Y-71872308D01*
X155687353Y-71868077D01*
X155661602Y-71820126D01*
X155661316Y-71819102D01*
X155657598Y-71800123D01*
X155657585Y-71800009D01*
X155655252Y-71794726D01*
X155612206Y-71697235D01*
X155532765Y-71617794D01*
X155532763Y-71617793D01*
X155499879Y-71603273D01*
X155429993Y-71572415D01*
X155429994Y-71572415D01*
X155404868Y-71569500D01*
X155404865Y-71569500D01*
X153815143Y-71569500D01*
X153815127Y-71569501D01*
X153815113Y-71569502D01*
X153797255Y-71571573D01*
X153790012Y-71572413D01*
X153790011Y-71572413D01*
X153790005Y-71572414D01*
X153789559Y-71572547D01*
X153787303Y-71573609D01*
X153687236Y-71617792D01*
X153607793Y-71697234D01*
X153562414Y-71800005D01*
X153561844Y-71802710D01*
X153561589Y-71807124D01*
X153559500Y-71825127D01*
X153559500Y-72814849D01*
X153559502Y-72814888D01*
X153562426Y-72840104D01*
X153563288Y-72841967D01*
X153583879Y-72888603D01*
X153593395Y-72922592D01*
X153596689Y-72947753D01*
X153587172Y-73013935D01*
X153562415Y-73070003D01*
X153561844Y-73072711D01*
X153561589Y-73077124D01*
X153559500Y-73095127D01*
X153559500Y-74084849D01*
X153559502Y-74084888D01*
X153562426Y-74110104D01*
X153563288Y-74111967D01*
X153583879Y-74158603D01*
X153593395Y-74192592D01*
X153596689Y-74217753D01*
X153587172Y-74283935D01*
X153562415Y-74340003D01*
X153561844Y-74342711D01*
X153561589Y-74347124D01*
X153559500Y-74365127D01*
X153559500Y-74744914D01*
X153559499Y-74744916D01*
X153559500Y-74744917D01*
X153554476Y-74779851D01*
X153547064Y-74805092D01*
X153515769Y-74857836D01*
X152179526Y-76194078D01*
X152179521Y-76194084D01*
X152179511Y-76194100D01*
X152121353Y-76294831D01*
X152120409Y-76309237D01*
X152099500Y-76387271D01*
X152099500Y-78664915D01*
X152099499Y-78664917D01*
X152099500Y-78664918D01*
X152094476Y-78699852D01*
X152087064Y-78725093D01*
X152055769Y-78777837D01*
X145233033Y-85600573D01*
X145204782Y-85621722D01*
X145181694Y-85634330D01*
X145135287Y-85646175D01*
X145135585Y-85648439D01*
X145127525Y-85649500D01*
X144998994Y-85683939D01*
X144998993Y-85683940D01*
X144991338Y-85685991D01*
X144987510Y-85687017D01*
X144861991Y-85759485D01*
X144861984Y-85759490D01*
X144861968Y-85759505D01*
X144759505Y-85861968D01*
X144759490Y-85861984D01*
X144759485Y-85861992D01*
X144687017Y-85987509D01*
X144686989Y-85987578D01*
X144686748Y-85988511D01*
X144652981Y-86114535D01*
X144649500Y-86127525D01*
X144649500Y-86272475D01*
X144672069Y-86356702D01*
X144672068Y-86356702D01*
X144687016Y-86412486D01*
X144687018Y-86412491D01*
X144757631Y-86534795D01*
X144759489Y-86538013D01*
X144861985Y-86640509D01*
X144862674Y-86641005D01*
X144865178Y-86642353D01*
X144984069Y-86710995D01*
X144987087Y-86712869D01*
X144987514Y-86712983D01*
X144987515Y-86712984D01*
X145127525Y-86750500D01*
X145130635Y-86750500D01*
X145165570Y-86755523D01*
X145180568Y-86759927D01*
X145239342Y-86797698D01*
X145239344Y-86797701D01*
X145239346Y-86797702D01*
X145239346Y-86797703D01*
X145245148Y-86804398D01*
X145271211Y-86853505D01*
X145280190Y-86887009D01*
X145280191Y-86887017D01*
X145280192Y-86887017D01*
X145287016Y-86912486D01*
X145357631Y-87034795D01*
X145359489Y-87038013D01*
X145461985Y-87140509D01*
X145462674Y-87141005D01*
X145465178Y-87142353D01*
X145584069Y-87210995D01*
X145587087Y-87212869D01*
X145587514Y-87212983D01*
X145587515Y-87212984D01*
X145727525Y-87250500D01*
X145727528Y-87250500D01*
X145872472Y-87250500D01*
X145872475Y-87250500D01*
X146012485Y-87212984D01*
X146138015Y-87140509D01*
X146240509Y-87038015D01*
X146244856Y-87030483D01*
X146253864Y-87017002D01*
X146263677Y-87004212D01*
X146274361Y-86992029D01*
X153128469Y-80137920D01*
X153128476Y-80137916D01*
X153145912Y-80120480D01*
X153145913Y-80120480D01*
X153220480Y-80045913D01*
X153273207Y-79954587D01*
X153300501Y-79852727D01*
X153300501Y-79747273D01*
X153300501Y-79739678D01*
X153300501Y-79737994D01*
X153300500Y-79737920D01*
X153300500Y-77125081D01*
X153304703Y-77110764D01*
X153305522Y-77090148D01*
X153309144Y-77077813D01*
X153309152Y-77077774D01*
X153309689Y-77075675D01*
X153309765Y-77075694D01*
X153309767Y-77075690D01*
X153309894Y-77075727D01*
X153310448Y-77075868D01*
X153342456Y-77017229D01*
X153370713Y-76996070D01*
X153373386Y-76994611D01*
X153441655Y-76979755D01*
X153507121Y-77004167D01*
X153520158Y-77021579D01*
X153523876Y-77023648D01*
X153529332Y-77033831D01*
X153548994Y-77060092D01*
X153551676Y-77067280D01*
X153553923Y-77079731D01*
X153556872Y-77085235D01*
X153556273Y-77092754D01*
X153559500Y-77110628D01*
X153559500Y-77894849D01*
X153559502Y-77894888D01*
X153562426Y-77920104D01*
X153563288Y-77921967D01*
X153583879Y-77968603D01*
X153593395Y-78002592D01*
X153596689Y-78027753D01*
X153587172Y-78093935D01*
X153562415Y-78150003D01*
X153561844Y-78152711D01*
X153561589Y-78157124D01*
X153559500Y-78175127D01*
X153559500Y-79164849D01*
X153559502Y-79164888D01*
X153561589Y-79182878D01*
X153562453Y-79190329D01*
X153563783Y-79193295D01*
X153570310Y-79209053D01*
X153571774Y-79211190D01*
X153579898Y-79229588D01*
X153583877Y-79238599D01*
X153583877Y-79238601D01*
X153583880Y-79238604D01*
X153593395Y-79272592D01*
X153596689Y-79297753D01*
X153587172Y-79363935D01*
X153562415Y-79420003D01*
X153561844Y-79422711D01*
X153561589Y-79427124D01*
X153559500Y-79445127D01*
X153559500Y-80434849D01*
X153559502Y-80434888D01*
X153562426Y-80460104D01*
X153563288Y-80461967D01*
X153583879Y-80508603D01*
X153593395Y-80542592D01*
X153596689Y-80567753D01*
X153587172Y-80633935D01*
X153562415Y-80690003D01*
X153561844Y-80692711D01*
X153561589Y-80697124D01*
X153559500Y-80715127D01*
X153559500Y-81704849D01*
X153559502Y-81704888D01*
X153562426Y-81730104D01*
X153563288Y-81731967D01*
X153583879Y-81778603D01*
X153593395Y-81812592D01*
X153596689Y-81837753D01*
X153587172Y-81903935D01*
X153562415Y-81960003D01*
X153561844Y-81962711D01*
X153561589Y-81967124D01*
X153559500Y-81985127D01*
X153559500Y-82974849D01*
X153559502Y-82974888D01*
X153562426Y-83000104D01*
X153563288Y-83001967D01*
X153583879Y-83048603D01*
X153593395Y-83082592D01*
X153596689Y-83107753D01*
X153587172Y-83173935D01*
X153562415Y-83230003D01*
X153561844Y-83232711D01*
X153561589Y-83237124D01*
X153559500Y-83255127D01*
X153559500Y-84244849D01*
X153559502Y-84244888D01*
X153562426Y-84270104D01*
X153563288Y-84271967D01*
X153583879Y-84318603D01*
X153593395Y-84352592D01*
X153596689Y-84377753D01*
X153587174Y-84443933D01*
X153562415Y-84500010D01*
X153559500Y-84525131D01*
X153559500Y-84534279D01*
X153557259Y-84544640D01*
X153558281Y-84551624D01*
X153551842Y-84569692D01*
X153548529Y-84585013D01*
X153548531Y-84585014D01*
X153548526Y-84585023D01*
X153548421Y-84585513D01*
X153545373Y-84592229D01*
X153545289Y-84592369D01*
X153545249Y-84592502D01*
X153544284Y-84594631D01*
X153542018Y-84597258D01*
X153541579Y-84598492D01*
X153541148Y-84599204D01*
X153540617Y-84598883D01*
X153534216Y-84606307D01*
X153513425Y-84631564D01*
X153515728Y-84633980D01*
X153508227Y-84641132D01*
X153484659Y-84658774D01*
X153414090Y-84699518D01*
X153414081Y-84699524D01*
X152179526Y-85934078D01*
X152179522Y-85934083D01*
X152179521Y-85934084D01*
X152126792Y-86025410D01*
X152103398Y-86112723D01*
X152103394Y-86112740D01*
X152099500Y-86127269D01*
X152099500Y-87617670D01*
X152099499Y-87617676D01*
X152099500Y-87617679D01*
X152094475Y-87652614D01*
X152090070Y-87667612D01*
X152052327Y-87726355D01*
X152052292Y-87726385D01*
X152052291Y-87726387D01*
X152052289Y-87726387D01*
X152050958Y-87727542D01*
X151996097Y-87755018D01*
X151988539Y-87756663D01*
X151962168Y-87759500D01*
X151075143Y-87759500D01*
X151075127Y-87759501D01*
X151075113Y-87759502D01*
X151057255Y-87761573D01*
X151050012Y-87762413D01*
X151050011Y-87762413D01*
X151050005Y-87762414D01*
X151049556Y-87762548D01*
X151047304Y-87763608D01*
X151001394Y-87783879D01*
X150967407Y-87793395D01*
X150942250Y-87796689D01*
X150876066Y-87787173D01*
X150819993Y-87762415D01*
X150819994Y-87762415D01*
X150794868Y-87759500D01*
X150794865Y-87759500D01*
X149805143Y-87759500D01*
X149805127Y-87759501D01*
X149805113Y-87759502D01*
X149787255Y-87761573D01*
X149780012Y-87762413D01*
X149780011Y-87762413D01*
X149780005Y-87762414D01*
X149779556Y-87762548D01*
X149777304Y-87763608D01*
X149731394Y-87783879D01*
X149697407Y-87793395D01*
X149672250Y-87796689D01*
X149606066Y-87787173D01*
X149549993Y-87762415D01*
X149549994Y-87762415D01*
X149524868Y-87759500D01*
X149524865Y-87759500D01*
X148535143Y-87759500D01*
X148535127Y-87759501D01*
X148535113Y-87759502D01*
X148517255Y-87761573D01*
X148510012Y-87762413D01*
X148510011Y-87762413D01*
X148510005Y-87762414D01*
X148509556Y-87762548D01*
X148507304Y-87763608D01*
X148461394Y-87783879D01*
X148427407Y-87793395D01*
X148402250Y-87796689D01*
X148336066Y-87787173D01*
X148279993Y-87762415D01*
X148279994Y-87762415D01*
X148254868Y-87759500D01*
X148254865Y-87759500D01*
X147265143Y-87759500D01*
X147265127Y-87759501D01*
X147265113Y-87759502D01*
X147247255Y-87761573D01*
X147240012Y-87762413D01*
X147240011Y-87762413D01*
X147240005Y-87762414D01*
X147239556Y-87762548D01*
X147237304Y-87763608D01*
X147191394Y-87783879D01*
X147157407Y-87793395D01*
X147132250Y-87796689D01*
X147066066Y-87787173D01*
X147009993Y-87762415D01*
X147009994Y-87762415D01*
X146984868Y-87759500D01*
X146984865Y-87759500D01*
X145995143Y-87759500D01*
X145995127Y-87759501D01*
X145995113Y-87759502D01*
X145977255Y-87761573D01*
X145970012Y-87762413D01*
X145970011Y-87762413D01*
X145970005Y-87762414D01*
X145969556Y-87762548D01*
X145967304Y-87763608D01*
X145921394Y-87783879D01*
X145887407Y-87793395D01*
X145862250Y-87796689D01*
X145796066Y-87787173D01*
X145739993Y-87762415D01*
X145739994Y-87762415D01*
X145714868Y-87759500D01*
X145714865Y-87759500D01*
X144725143Y-87759500D01*
X144725127Y-87759501D01*
X144725113Y-87759502D01*
X144707255Y-87761573D01*
X144700012Y-87762413D01*
X144700011Y-87762413D01*
X144700005Y-87762414D01*
X144699556Y-87762548D01*
X144697304Y-87763608D01*
X144651394Y-87783879D01*
X144617407Y-87793395D01*
X144592250Y-87796689D01*
X144526066Y-87787173D01*
X144469993Y-87762415D01*
X144469994Y-87762415D01*
X144444868Y-87759500D01*
X144444865Y-87759500D01*
X143455143Y-87759500D01*
X143455127Y-87759501D01*
X143455113Y-87759502D01*
X143437255Y-87761573D01*
X143430012Y-87762413D01*
X143430011Y-87762413D01*
X143430005Y-87762414D01*
X143429556Y-87762548D01*
X143427304Y-87763608D01*
X143381394Y-87783879D01*
X143347407Y-87793395D01*
X143322250Y-87796689D01*
X143256066Y-87787173D01*
X143199993Y-87762415D01*
X143199994Y-87762415D01*
X143174868Y-87759500D01*
X143174865Y-87759500D01*
X142185143Y-87759500D01*
X142185127Y-87759501D01*
X142185113Y-87759502D01*
X142167255Y-87761573D01*
X142160012Y-87762413D01*
X142160011Y-87762413D01*
X142160005Y-87762414D01*
X142159556Y-87762548D01*
X142157304Y-87763608D01*
X142111394Y-87783879D01*
X142077411Y-87793394D01*
X142061925Y-87795422D01*
X142057197Y-87796162D01*
X141987919Y-87787094D01*
X141957987Y-87768388D01*
X141949072Y-87760858D01*
X141910561Y-87702560D01*
X141909127Y-87634747D01*
X141912681Y-87621162D01*
X141912680Y-87621161D01*
X141920167Y-87592544D01*
X141920023Y-87591730D01*
X141923499Y-87573240D01*
X141950500Y-87472475D01*
X141950500Y-87327525D01*
X141912984Y-87187515D01*
X141885843Y-87140506D01*
X141840511Y-87061988D01*
X141840506Y-87061982D01*
X141840493Y-87061968D01*
X141738030Y-86959505D01*
X141738014Y-86959490D01*
X141738006Y-86959485D01*
X141684243Y-86928445D01*
X141655808Y-86898624D01*
X141601007Y-86883939D01*
X141601007Y-86883940D01*
X141536740Y-86866720D01*
X141472475Y-86849500D01*
X141472474Y-86849500D01*
X141327525Y-86849500D01*
X141198994Y-86883939D01*
X141198993Y-86883940D01*
X141191338Y-86885991D01*
X141187510Y-86887017D01*
X141061991Y-86959485D01*
X141061984Y-86959490D01*
X141061968Y-86959505D01*
X140959505Y-87061968D01*
X140959490Y-87061984D01*
X140959485Y-87061992D01*
X140887017Y-87187509D01*
X140886989Y-87187578D01*
X140886748Y-87188511D01*
X140849500Y-87327525D01*
X140849500Y-87472475D01*
X140874040Y-87564056D01*
X140877830Y-87578201D01*
X140877830Y-87578202D01*
X140889788Y-87622832D01*
X140890520Y-87625700D01*
X140895176Y-87644899D01*
X140891846Y-87714689D01*
X140853012Y-87770239D01*
X140843191Y-87778244D01*
X140814937Y-87795561D01*
X140787235Y-87807793D01*
X140707793Y-87887234D01*
X140662414Y-87990005D01*
X140661844Y-87992710D01*
X140661589Y-87997124D01*
X140659500Y-88015127D01*
X140659500Y-89604849D01*
X140659502Y-89604885D01*
X140662414Y-89629993D01*
X140662546Y-89630438D01*
X140663609Y-89632696D01*
X140707791Y-89732760D01*
X140707793Y-89732764D01*
X140707794Y-89732765D01*
X140787235Y-89812206D01*
X140890009Y-89857585D01*
X140915135Y-89860500D01*
X141904864Y-89860499D01*
X141904879Y-89860497D01*
X141904882Y-89860497D01*
X141904888Y-89860496D01*
X141905019Y-89860487D01*
X141905736Y-89860397D01*
X141929987Y-89857586D01*
X141929987Y-89857585D01*
X141929989Y-89857585D01*
X141929991Y-89857585D01*
X141929991Y-89857584D01*
X141935671Y-89856926D01*
X141935683Y-89856925D01*
X141941512Y-89856249D01*
X141954594Y-89846721D01*
X141978611Y-89836116D01*
X142012588Y-89826603D01*
X142037747Y-89823309D01*
X142103928Y-89832823D01*
X142150499Y-89853386D01*
X142160009Y-89857585D01*
X142185135Y-89860500D01*
X143174864Y-89860499D01*
X143174879Y-89860497D01*
X143174882Y-89860497D01*
X143174888Y-89860496D01*
X143175019Y-89860487D01*
X143175736Y-89860397D01*
X143199987Y-89857586D01*
X143199987Y-89857585D01*
X143199989Y-89857585D01*
X143199991Y-89857585D01*
X143199991Y-89857584D01*
X143205671Y-89856926D01*
X143205683Y-89856925D01*
X143211512Y-89856249D01*
X143224594Y-89846721D01*
X143248611Y-89836116D01*
X143282588Y-89826603D01*
X143307747Y-89823309D01*
X143373928Y-89832823D01*
X143420499Y-89853386D01*
X143430009Y-89857585D01*
X143455135Y-89860500D01*
X144444864Y-89860499D01*
X144444879Y-89860497D01*
X144444882Y-89860497D01*
X144444888Y-89860496D01*
X144445019Y-89860487D01*
X144445736Y-89860397D01*
X144469987Y-89857586D01*
X144469987Y-89857585D01*
X144469989Y-89857585D01*
X144469991Y-89857585D01*
X144469991Y-89857584D01*
X144475671Y-89856926D01*
X144475683Y-89856925D01*
X144481512Y-89856249D01*
X144494594Y-89846721D01*
X144518611Y-89836116D01*
X144552588Y-89826603D01*
X144577747Y-89823309D01*
X144643928Y-89832823D01*
X144690499Y-89853386D01*
X144700009Y-89857585D01*
X144725135Y-89860500D01*
X145714864Y-89860499D01*
X145714879Y-89860497D01*
X145714882Y-89860497D01*
X145714888Y-89860496D01*
X145715019Y-89860487D01*
X145715736Y-89860397D01*
X145739987Y-89857586D01*
X145739987Y-89857585D01*
X145739989Y-89857585D01*
X145739991Y-89857585D01*
X145739991Y-89857584D01*
X145745671Y-89856926D01*
X145745683Y-89856925D01*
X145751512Y-89856249D01*
X145764594Y-89846721D01*
X145788611Y-89836116D01*
X145822588Y-89826603D01*
X145847747Y-89823309D01*
X145913928Y-89832823D01*
X145960499Y-89853386D01*
X145970009Y-89857585D01*
X145995135Y-89860500D01*
X146984864Y-89860499D01*
X146984879Y-89860497D01*
X146984882Y-89860497D01*
X146984888Y-89860496D01*
X146985019Y-89860487D01*
X146985736Y-89860397D01*
X147009987Y-89857586D01*
X147009987Y-89857585D01*
X147009989Y-89857585D01*
X147009991Y-89857585D01*
X147009991Y-89857584D01*
X147015671Y-89856926D01*
X147015683Y-89856925D01*
X147021512Y-89856249D01*
X147034594Y-89846721D01*
X147058611Y-89836116D01*
X147092588Y-89826603D01*
X147117747Y-89823309D01*
X147183928Y-89832823D01*
X147230499Y-89853386D01*
X147240009Y-89857585D01*
X147265135Y-89860500D01*
X148254864Y-89860499D01*
X148254879Y-89860497D01*
X148254882Y-89860497D01*
X148254888Y-89860496D01*
X148255019Y-89860487D01*
X148255736Y-89860397D01*
X148279987Y-89857586D01*
X148279987Y-89857585D01*
X148279989Y-89857585D01*
X148279991Y-89857585D01*
X148279991Y-89857584D01*
X148285671Y-89856926D01*
X148285683Y-89856925D01*
X148291512Y-89856249D01*
X148304594Y-89846721D01*
X148328611Y-89836116D01*
X148362588Y-89826603D01*
X148387747Y-89823309D01*
X148453928Y-89832823D01*
X148500499Y-89853386D01*
X148510009Y-89857585D01*
X148535135Y-89860500D01*
X149524864Y-89860499D01*
X149524879Y-89860497D01*
X149524882Y-89860497D01*
X149524888Y-89860496D01*
X149525019Y-89860487D01*
X149525736Y-89860397D01*
X149549987Y-89857586D01*
X149549987Y-89857585D01*
X149549989Y-89857585D01*
X149549991Y-89857585D01*
X149549991Y-89857584D01*
X149555671Y-89856926D01*
X149555683Y-89856925D01*
X149561511Y-89856249D01*
X149574594Y-89846721D01*
X149598608Y-89836117D01*
X149629182Y-89827097D01*
X149630848Y-89826831D01*
X149643805Y-89825135D01*
X149648890Y-89823957D01*
X149653149Y-89823279D01*
X149683693Y-89827198D01*
X149714423Y-89828981D01*
X149722407Y-89832166D01*
X149722451Y-89832172D01*
X149722477Y-89832194D01*
X149722742Y-89832300D01*
X149769002Y-89852725D01*
X149780009Y-89857585D01*
X149780011Y-89857585D01*
X149789007Y-89860033D01*
X149788823Y-89860706D01*
X149790050Y-89861128D01*
X149797494Y-89860955D01*
X149818000Y-89870754D01*
X149828267Y-89874289D01*
X149828327Y-89874185D01*
X149828890Y-89874504D01*
X149829933Y-89874863D01*
X149834241Y-89877491D01*
X149834500Y-89877680D01*
X149834663Y-89877749D01*
X149836910Y-89879120D01*
X149837984Y-89880302D01*
X149838330Y-89880468D01*
X149840231Y-89881852D01*
X149839857Y-89882365D01*
X149859087Y-89903538D01*
X149876255Y-89921237D01*
X149877546Y-89920359D01*
X149877836Y-89920785D01*
X149879232Y-89924307D01*
X149882049Y-89927211D01*
X149882053Y-89927219D01*
X149884772Y-89932385D01*
X149884194Y-89932688D01*
X149885396Y-89939852D01*
X149897802Y-89971141D01*
X149897969Y-89972194D01*
X149899500Y-89991617D01*
X149899500Y-91170500D01*
X149879815Y-91237539D01*
X149827011Y-91283294D01*
X149775500Y-91294500D01*
X146633578Y-91294500D01*
X146633515Y-91294500D01*
X146629741Y-91294523D01*
X146628246Y-91294541D01*
X146627308Y-91294553D01*
X146529585Y-91311885D01*
X146471875Y-91332214D01*
X146387799Y-91377683D01*
X146387796Y-91377685D01*
X144829924Y-92569000D01*
X144764713Y-92594087D01*
X144754600Y-92594500D01*
X141498994Y-92594500D01*
X141451224Y-92598260D01*
X141451221Y-92598260D01*
X141451215Y-92598260D01*
X141451214Y-92598261D01*
X141444228Y-92599367D01*
X141420625Y-92603105D01*
X141390244Y-92609513D01*
X141390240Y-92609515D01*
X141288837Y-92657691D01*
X141288826Y-92657698D01*
X141239344Y-92693649D01*
X141182079Y-92747825D01*
X141128360Y-92846401D01*
X141128356Y-92846411D01*
X141109452Y-92904593D01*
X141094500Y-92999000D01*
X141094500Y-95101005D01*
X141098260Y-95148775D01*
X141098260Y-95148778D01*
X141103105Y-95179374D01*
X141109513Y-95209755D01*
X141109515Y-95209759D01*
X141157691Y-95311162D01*
X141157698Y-95311173D01*
X141193649Y-95360655D01*
X141193652Y-95360659D01*
X141193655Y-95360662D01*
X141247823Y-95417919D01*
X141247825Y-95417920D01*
X141346401Y-95471639D01*
X141346411Y-95471643D01*
X141377489Y-95481741D01*
X141384405Y-95486470D01*
X141392679Y-95487810D01*
X141412822Y-95505900D01*
X141435165Y-95521178D01*
X141438426Y-95528896D01*
X141444662Y-95534496D01*
X141451825Y-95560599D01*
X141462364Y-95585536D01*
X141461414Y-95595544D01*
X141463152Y-95601875D01*
X141459158Y-95619332D01*
X141457510Y-95636715D01*
X141454904Y-95645037D01*
X141454488Y-95645727D01*
X141454485Y-95645736D01*
X141410230Y-95787757D01*
X141410189Y-95787816D01*
X141401763Y-95808197D01*
X141390697Y-95829348D01*
X141342189Y-95879617D01*
X141335806Y-95883252D01*
X141274443Y-95899500D01*
X140881785Y-95899500D01*
X140881783Y-95899499D01*
X140881783Y-95899500D01*
X140846849Y-95894477D01*
X140812964Y-95884527D01*
X140795028Y-95877273D01*
X140794961Y-95877430D01*
X140790799Y-95875621D01*
X140790794Y-95875619D01*
X140790788Y-95875617D01*
X140790786Y-95875616D01*
X140666883Y-95832258D01*
X140666884Y-95832258D01*
X140655112Y-95831154D01*
X140637461Y-95829500D01*
X140637455Y-95829500D01*
X140162550Y-95829500D01*
X140162546Y-95829500D01*
X140153259Y-95830370D01*
X140133127Y-95832257D01*
X140133112Y-95832260D01*
X140009206Y-95875618D01*
X139933453Y-95931525D01*
X139932389Y-95932302D01*
X139895665Y-95958806D01*
X139895321Y-95958462D01*
X139879464Y-95970498D01*
X139878231Y-95971389D01*
X139846643Y-95982546D01*
X139815338Y-95994463D01*
X139813817Y-95994142D01*
X139812350Y-95994661D01*
X139779735Y-95986967D01*
X139746967Y-95980069D01*
X139746956Y-95980063D01*
X139740450Y-95976566D01*
X139699390Y-95940982D01*
X139692863Y-95932139D01*
X139652381Y-95902262D01*
X139652381Y-95902261D01*
X139584201Y-95851943D01*
X139520066Y-95829501D01*
X139456732Y-95807338D01*
X139456733Y-95807338D01*
X139456725Y-95807337D01*
X139456716Y-95807335D01*
X139426471Y-95804500D01*
X139426467Y-95804500D01*
X138973539Y-95804500D01*
X138943275Y-95807337D01*
X138943269Y-95807338D01*
X138943265Y-95807339D01*
X138943261Y-95807340D01*
X138815801Y-95851941D01*
X138707138Y-95932138D01*
X138626943Y-96040799D01*
X138582338Y-96168267D01*
X138582337Y-96168269D01*
X138582335Y-96168282D01*
X138579500Y-96198527D01*
X138579500Y-96198532D01*
X138579500Y-96601460D01*
X138582337Y-96631724D01*
X138582339Y-96631733D01*
X138620502Y-96740794D01*
X138626943Y-96759201D01*
X138707138Y-96867862D01*
X138815799Y-96948057D01*
X138943271Y-96992662D01*
X138973537Y-96995500D01*
X139159915Y-96995499D01*
X139188803Y-96999652D01*
X139194846Y-97000520D01*
X139220087Y-97007932D01*
X139272835Y-97039228D01*
X139730573Y-97496966D01*
X139751723Y-97525218D01*
X139764331Y-97548307D01*
X139778695Y-97604582D01*
X139779364Y-97604551D01*
X139779498Y-97607434D01*
X139782258Y-97636876D01*
X139782259Y-97636881D01*
X139782259Y-97636883D01*
X139782261Y-97636888D01*
X139824584Y-97757837D01*
X139825618Y-97760792D01*
X139903576Y-97866423D01*
X139956391Y-97905402D01*
X140009206Y-97944381D01*
X140050511Y-97958834D01*
X140133119Y-97987741D01*
X140140796Y-97988460D01*
X140140795Y-97988464D01*
X140140813Y-97988461D01*
X140162543Y-97990500D01*
X140637456Y-97990499D01*
X140666879Y-97987741D01*
X140790794Y-97944381D01*
X140896423Y-97866423D01*
X140974381Y-97760794D01*
X141003675Y-97677077D01*
X141017741Y-97636881D01*
X141017741Y-97636879D01*
X141019621Y-97616826D01*
X141019621Y-97616825D01*
X141019623Y-97616825D01*
X141019622Y-97616811D01*
X141020500Y-97607457D01*
X141020499Y-97232544D01*
X141017741Y-97203121D01*
X141013256Y-97190305D01*
X141008139Y-97175681D01*
X140974381Y-97079206D01*
X140914428Y-96997973D01*
X140898462Y-96968848D01*
X140898103Y-96967915D01*
X140895057Y-96959575D01*
X140894533Y-96958632D01*
X140892680Y-96953811D01*
X140890133Y-96922632D01*
X140886584Y-96897981D01*
X140885172Y-96897890D01*
X140885387Y-96894553D01*
X140885891Y-96893169D01*
X140885678Y-96891685D01*
X140885685Y-96891631D01*
X140886181Y-96888187D01*
X140887334Y-96888353D01*
X140886993Y-96884173D01*
X140893914Y-96871188D01*
X140909340Y-96828920D01*
X140956363Y-96765206D01*
X140981149Y-96740083D01*
X140999082Y-96726468D01*
X141051634Y-96703274D01*
X141055600Y-96702544D01*
X141063907Y-96701787D01*
X141064379Y-96701608D01*
X141064831Y-96701703D01*
X141078027Y-96700500D01*
X141266765Y-96700500D01*
X141301701Y-96705523D01*
X141316699Y-96709927D01*
X141331695Y-96719564D01*
X141348797Y-96724585D01*
X141375472Y-96747697D01*
X141380857Y-96753911D01*
X141405145Y-96797004D01*
X141414475Y-96825889D01*
X141414863Y-96827112D01*
X141454479Y-96954245D01*
X141454489Y-96954275D01*
X141539347Y-97094647D01*
X141539350Y-97094651D01*
X141539355Y-97094657D01*
X141655341Y-97210643D01*
X141655347Y-97210648D01*
X141655346Y-97210648D01*
X141655351Y-97210651D01*
X141795723Y-97295509D01*
X141795724Y-97295509D01*
X141795727Y-97295511D01*
X141795730Y-97295512D01*
X141952343Y-97344315D01*
X142020406Y-97350500D01*
X142020409Y-97350500D01*
X143379591Y-97350500D01*
X143379594Y-97350500D01*
X143447657Y-97344315D01*
X143604270Y-97295512D01*
X143659389Y-97262192D01*
X143744648Y-97210651D01*
X143744647Y-97210651D01*
X143744653Y-97210648D01*
X143860648Y-97094653D01*
X143921750Y-96993578D01*
X143945511Y-96954272D01*
X143945511Y-96954271D01*
X143945512Y-96954270D01*
X143945513Y-96954266D01*
X143945569Y-96954174D01*
X143946064Y-96952499D01*
X143965014Y-96891685D01*
X143976561Y-96854627D01*
X143991750Y-96822769D01*
X143995056Y-96817807D01*
X144000414Y-96809763D01*
X144053963Y-96764886D01*
X144053974Y-96764881D01*
X144063161Y-96760868D01*
X144112797Y-96750500D01*
X145856537Y-96750500D01*
X145886786Y-96754481D01*
X145888345Y-96754648D01*
X145888347Y-96754649D01*
X145888348Y-96754648D01*
X145892386Y-96755083D01*
X145925232Y-96763259D01*
X145926633Y-96763820D01*
X145942521Y-96771537D01*
X145945023Y-96772981D01*
X145945040Y-96772991D01*
X145975048Y-96790316D01*
X145975608Y-96790639D01*
X145975656Y-96790671D01*
X145975658Y-96790669D01*
X146022662Y-96817807D01*
X146022664Y-96817808D01*
X146026109Y-96819797D01*
X146026112Y-96819797D01*
X146026114Y-96819799D01*
X146055550Y-96827686D01*
X146085451Y-96840072D01*
X146088774Y-96841991D01*
X146112764Y-96855842D01*
X146138443Y-96875546D01*
X146889891Y-97626995D01*
X147640292Y-98377396D01*
X147640293Y-98377397D01*
X147673778Y-98438720D01*
X147673006Y-98449514D01*
X147736455Y-98474824D01*
X147747605Y-98484709D01*
X148852683Y-99589787D01*
X148873828Y-99618031D01*
X148876756Y-99623392D01*
X148880540Y-99640779D01*
X148889080Y-99656396D01*
X148887816Y-99674212D01*
X148890460Y-99686358D01*
X148939214Y-99690951D01*
X148939909Y-99691228D01*
X148981599Y-99718703D01*
X149623386Y-100360490D01*
X149726113Y-100419799D01*
X149750326Y-100426286D01*
X149768339Y-100431112D01*
X149768346Y-100431117D01*
X149800781Y-100445007D01*
X149804497Y-100447272D01*
X149805979Y-100448175D01*
X149817981Y-100461374D01*
X149827997Y-100467480D01*
X149833116Y-100478019D01*
X149852984Y-100499869D01*
X149857890Y-100529023D01*
X149858524Y-100530328D01*
X149858351Y-100531766D01*
X149864579Y-100568770D01*
X149837082Y-100633002D01*
X149779225Y-100672171D01*
X149779219Y-100672173D01*
X149774728Y-100673609D01*
X149736963Y-100679500D01*
X149602546Y-100679500D01*
X149593259Y-100680370D01*
X149573127Y-100682257D01*
X149573112Y-100682260D01*
X149449206Y-100725618D01*
X149449205Y-100725618D01*
X149343577Y-100803574D01*
X149343572Y-100803580D01*
X149291609Y-100873987D01*
X149291608Y-100873989D01*
X149266821Y-100899114D01*
X149243401Y-100916895D01*
X149200607Y-100937884D01*
X149199729Y-100938120D01*
X149199637Y-100938144D01*
X149155059Y-100950089D01*
X149140921Y-100958252D01*
X149069443Y-100999519D01*
X149056387Y-101012575D01*
X149056385Y-101012576D01*
X149056385Y-101012577D01*
X149029095Y-101033003D01*
X149028129Y-101033726D01*
X149015949Y-101040376D01*
X148947676Y-101055225D01*
X148882213Y-101030805D01*
X148877180Y-101027037D01*
X148840096Y-100982235D01*
X148834264Y-100970306D01*
X148823368Y-100936336D01*
X148820602Y-100919823D01*
X148819587Y-100913880D01*
X148820307Y-100901499D01*
X148817815Y-100893018D01*
X148822831Y-100858085D01*
X148823551Y-100855632D01*
X148831134Y-100836092D01*
X148840220Y-100817509D01*
X148850500Y-100746949D01*
X148850499Y-100553052D01*
X148848308Y-100538015D01*
X148845175Y-100516507D01*
X148841515Y-100491380D01*
X148841167Y-100486586D01*
X148840220Y-100482490D01*
X148834346Y-100470475D01*
X148823516Y-100436888D01*
X148819585Y-100413870D01*
X148822844Y-100358042D01*
X148823560Y-100355605D01*
X148827626Y-100345128D01*
X148827703Y-100344474D01*
X148828039Y-100344064D01*
X148831134Y-100336092D01*
X148834873Y-100328445D01*
X148840220Y-100317509D01*
X148850500Y-100246949D01*
X148850499Y-100053052D01*
X148848457Y-100039037D01*
X148843365Y-100004083D01*
X148841515Y-99991382D01*
X148841167Y-99986587D01*
X148840220Y-99982493D01*
X148840220Y-99982491D01*
X148789088Y-99877900D01*
X148784954Y-99869443D01*
X148779226Y-99855687D01*
X148776149Y-99846833D01*
X148774166Y-99806317D01*
X148741647Y-99804012D01*
X148741615Y-99804005D01*
X148740351Y-99803730D01*
X148705980Y-99790181D01*
X148705952Y-99790239D01*
X148705223Y-99789882D01*
X148703164Y-99789071D01*
X148701351Y-99787991D01*
X148701347Y-99787988D01*
X148643086Y-99759505D01*
X148592512Y-99734780D01*
X148592507Y-99734779D01*
X148574871Y-99732210D01*
X148557229Y-99729640D01*
X148521949Y-99724500D01*
X148521945Y-99724500D01*
X147778041Y-99724500D01*
X147773571Y-99724824D01*
X147773510Y-99723995D01*
X147746379Y-99724036D01*
X147732643Y-99722087D01*
X147669034Y-99693180D01*
X147663072Y-99683941D01*
X147631152Y-99634476D01*
X147628979Y-99627127D01*
X147625357Y-99576436D01*
X147625176Y-99576423D01*
X147625267Y-99575167D01*
X147625189Y-99574080D01*
X147625500Y-99571949D01*
X147625499Y-98828052D01*
X147625422Y-98827525D01*
X147617571Y-98773629D01*
X147616515Y-98766381D01*
X147616167Y-98761587D01*
X147615219Y-98757488D01*
X147562013Y-98648654D01*
X147559006Y-98644442D01*
X147537874Y-98583631D01*
X147493185Y-98573910D01*
X147480551Y-98565990D01*
X147476344Y-98562986D01*
X147474031Y-98561855D01*
X147367512Y-98509780D01*
X147367507Y-98509779D01*
X147349871Y-98507210D01*
X147332229Y-98504640D01*
X147296949Y-98499500D01*
X147296945Y-98499500D01*
X147103048Y-98499500D01*
X147051599Y-98506995D01*
X147051596Y-98506995D01*
X147032492Y-98509779D01*
X147032491Y-98509779D01*
X147012460Y-98519571D01*
X147003950Y-98522306D01*
X146999489Y-98522418D01*
X146986887Y-98526482D01*
X146963864Y-98530413D01*
X146908059Y-98527159D01*
X146905620Y-98526442D01*
X146886104Y-98518870D01*
X146868000Y-98510020D01*
X146867523Y-98509784D01*
X146867503Y-98509778D01*
X146867405Y-98509764D01*
X146820545Y-98502937D01*
X146796949Y-98499500D01*
X146796946Y-98499500D01*
X146603048Y-98499500D01*
X146551599Y-98506995D01*
X146551596Y-98506995D01*
X146532492Y-98509779D01*
X146532491Y-98509779D01*
X146512460Y-98519571D01*
X146503950Y-98522306D01*
X146499489Y-98522418D01*
X146486887Y-98526482D01*
X146463864Y-98530413D01*
X146408059Y-98527159D01*
X146405620Y-98526442D01*
X146386104Y-98518870D01*
X146368000Y-98510020D01*
X146367523Y-98509784D01*
X146367503Y-98509778D01*
X146367405Y-98509764D01*
X146320545Y-98502937D01*
X146296949Y-98499500D01*
X146296946Y-98499500D01*
X146103048Y-98499500D01*
X146051599Y-98506995D01*
X146051596Y-98506995D01*
X146032492Y-98509779D01*
X146032491Y-98509779D01*
X146012460Y-98519571D01*
X146003950Y-98522306D01*
X145999489Y-98522418D01*
X145986887Y-98526482D01*
X145963864Y-98530413D01*
X145908059Y-98527159D01*
X145905620Y-98526442D01*
X145886104Y-98518870D01*
X145868000Y-98510020D01*
X145867523Y-98509784D01*
X145867503Y-98509778D01*
X145867405Y-98509764D01*
X145820545Y-98502937D01*
X145796949Y-98499500D01*
X145796946Y-98499500D01*
X145603048Y-98499500D01*
X145551599Y-98506995D01*
X145551596Y-98506995D01*
X145532492Y-98509779D01*
X145532491Y-98509779D01*
X145512460Y-98519571D01*
X145503950Y-98522306D01*
X145499489Y-98522418D01*
X145486887Y-98526482D01*
X145463864Y-98530413D01*
X145408059Y-98527159D01*
X145405620Y-98526442D01*
X145386104Y-98518870D01*
X145368000Y-98510020D01*
X145367523Y-98509784D01*
X145367503Y-98509778D01*
X145367405Y-98509764D01*
X145320545Y-98502937D01*
X145296949Y-98499500D01*
X145296946Y-98499500D01*
X145103048Y-98499500D01*
X145051599Y-98506995D01*
X145051596Y-98506995D01*
X145032492Y-98509779D01*
X145032491Y-98509779D01*
X145012460Y-98519571D01*
X145003950Y-98522306D01*
X144999489Y-98522418D01*
X144986887Y-98526482D01*
X144963864Y-98530413D01*
X144908059Y-98527159D01*
X144905620Y-98526442D01*
X144886104Y-98518870D01*
X144868000Y-98510020D01*
X144867523Y-98509784D01*
X144867503Y-98509778D01*
X144867405Y-98509764D01*
X144820545Y-98502937D01*
X144796949Y-98499500D01*
X144796946Y-98499500D01*
X144603048Y-98499500D01*
X144551599Y-98506995D01*
X144551596Y-98506995D01*
X144532492Y-98509779D01*
X144532491Y-98509779D01*
X144512460Y-98519571D01*
X144503950Y-98522306D01*
X144499489Y-98522418D01*
X144486887Y-98526482D01*
X144463864Y-98530413D01*
X144408059Y-98527159D01*
X144405620Y-98526442D01*
X144386104Y-98518870D01*
X144368000Y-98510020D01*
X144367523Y-98509784D01*
X144367503Y-98509778D01*
X144367405Y-98509764D01*
X144320545Y-98502937D01*
X144296949Y-98499500D01*
X144296946Y-98499500D01*
X144103054Y-98499500D01*
X144103049Y-98499500D01*
X144032596Y-98509764D01*
X144032493Y-98509779D01*
X143923647Y-98562990D01*
X143837990Y-98648648D01*
X143837988Y-98648649D01*
X143784780Y-98757487D01*
X143784779Y-98757491D01*
X143782429Y-98773626D01*
X143782429Y-98773628D01*
X143774500Y-98828051D01*
X143774500Y-98828055D01*
X143774500Y-98828056D01*
X143774501Y-99571949D01*
X143774825Y-99576424D01*
X143773991Y-99576484D01*
X143774033Y-99601286D01*
X143774037Y-99603614D01*
X143772087Y-99617356D01*
X143743179Y-99680965D01*
X143684471Y-99718848D01*
X143684467Y-99718849D01*
X143677119Y-99721021D01*
X143626439Y-99724645D01*
X143626427Y-99724824D01*
X143625195Y-99724734D01*
X143624102Y-99724813D01*
X143621952Y-99724500D01*
X143621949Y-99724500D01*
X143621944Y-99724500D01*
X142878049Y-99724500D01*
X142807493Y-99734779D01*
X142698647Y-99787990D01*
X142612990Y-99873648D01*
X142612988Y-99873649D01*
X142559781Y-99982485D01*
X142559780Y-99982488D01*
X142559232Y-99986254D01*
X142559049Y-99987508D01*
X142559048Y-99987513D01*
X142555228Y-100013729D01*
X142549501Y-100053049D01*
X142549500Y-100053054D01*
X142549500Y-100246951D01*
X142556994Y-100298395D01*
X142556995Y-100298398D01*
X142559779Y-100317507D01*
X142559779Y-100317508D01*
X142569575Y-100337547D01*
X142572307Y-100346048D01*
X142572420Y-100350512D01*
X142576483Y-100363116D01*
X142580320Y-100385591D01*
X142580537Y-100386859D01*
X142572414Y-100456255D01*
X142569707Y-100462182D01*
X142559782Y-100482485D01*
X142559779Y-100482494D01*
X142548906Y-100557123D01*
X142548528Y-100558363D01*
X142548613Y-100559032D01*
X142546638Y-100564577D01*
X142538080Y-100592718D01*
X142535983Y-100597104D01*
X142535641Y-100597697D01*
X142535546Y-100598018D01*
X142534025Y-100601202D01*
X142532871Y-100602487D01*
X142531955Y-100604074D01*
X142531620Y-100603880D01*
X142512323Y-100625380D01*
X142491619Y-100650440D01*
X142490315Y-100651322D01*
X142488243Y-100652208D01*
X142487355Y-100653199D01*
X142483380Y-100654291D01*
X142447217Y-100669774D01*
X142439779Y-100671393D01*
X142438537Y-100671663D01*
X142412165Y-100674500D01*
X142310084Y-100674500D01*
X142310081Y-100674499D01*
X142310081Y-100674500D01*
X142275147Y-100669476D01*
X142249906Y-100662064D01*
X142197162Y-100630769D01*
X142045915Y-100479522D01*
X142045913Y-100479520D01*
X142002503Y-100454457D01*
X141954589Y-100426793D01*
X141901189Y-100412485D01*
X141852727Y-100399500D01*
X141852726Y-100399500D01*
X141829386Y-100399500D01*
X141810352Y-100393911D01*
X141810337Y-100393906D01*
X141786796Y-100386994D01*
X141742642Y-100362134D01*
X141742368Y-100362528D01*
X141740326Y-100361103D01*
X141740172Y-100361289D01*
X141738152Y-100359606D01*
X141738124Y-100359590D01*
X141738014Y-100359490D01*
X141738006Y-100359485D01*
X141684243Y-100328445D01*
X141655808Y-100298624D01*
X141601007Y-100283939D01*
X141601007Y-100283940D01*
X141526798Y-100264056D01*
X141472475Y-100249500D01*
X141472474Y-100249500D01*
X141327525Y-100249500D01*
X141198994Y-100283939D01*
X141198993Y-100283940D01*
X141190836Y-100286126D01*
X141187511Y-100287017D01*
X141187508Y-100287018D01*
X141101934Y-100336424D01*
X141069298Y-100349490D01*
X141069176Y-100349539D01*
X141055692Y-100352811D01*
X140985901Y-100349490D01*
X140928986Y-100308966D01*
X140927972Y-100307676D01*
X140903683Y-100254477D01*
X140902736Y-100249558D01*
X140900499Y-100226112D01*
X140900499Y-99629518D01*
X140900499Y-99629516D01*
X140894412Y-99572886D01*
X140894062Y-99571948D01*
X140878706Y-99530777D01*
X140872143Y-99513180D01*
X140872143Y-99513179D01*
X140846629Y-99444776D01*
X140846627Y-99444773D01*
X140833598Y-99427368D01*
X140764687Y-99335313D01*
X140764685Y-99335312D01*
X140764685Y-99335311D01*
X140690322Y-99279644D01*
X140690320Y-99279643D01*
X140679572Y-99271597D01*
X140655228Y-99253373D01*
X140655226Y-99253372D01*
X140529262Y-99206389D01*
X140527914Y-99205776D01*
X140525162Y-99205126D01*
X140520507Y-99204877D01*
X140511141Y-99203870D01*
X140470493Y-99199500D01*
X140470489Y-99199500D01*
X140029518Y-99199500D01*
X140029495Y-99199501D01*
X140029173Y-99199537D01*
X139972882Y-99205587D01*
X139844775Y-99253370D01*
X139844772Y-99253372D01*
X139735313Y-99335313D01*
X139653373Y-99444770D01*
X139653371Y-99444773D01*
X139640558Y-99479124D01*
X139640559Y-99479125D01*
X139605954Y-99571905D01*
X139605941Y-99571941D01*
X139605587Y-99572887D01*
X139605585Y-99572895D01*
X139599500Y-99629489D01*
X139599500Y-99629498D01*
X139599500Y-100370481D01*
X139599501Y-100370490D01*
X139601456Y-100388675D01*
X139605587Y-100427115D01*
X139624574Y-100478019D01*
X139646953Y-100538017D01*
X139653372Y-100555226D01*
X139653373Y-100555228D01*
X139653376Y-100555233D01*
X139655297Y-100557799D01*
X139671265Y-100587041D01*
X139672203Y-100588758D01*
X139676156Y-100599353D01*
X139681148Y-100669044D01*
X139647669Y-100730371D01*
X139586350Y-100763862D01*
X139586336Y-100763865D01*
X139582479Y-100764704D01*
X139524032Y-100763314D01*
X139506047Y-100758495D01*
X139499031Y-100756615D01*
X139499030Y-100756615D01*
X139472476Y-100749500D01*
X139472475Y-100749500D01*
X139327525Y-100749500D01*
X139198994Y-100783939D01*
X139198993Y-100783940D01*
X139191338Y-100785991D01*
X139187510Y-100787017D01*
X139061991Y-100859485D01*
X139061984Y-100859490D01*
X139061968Y-100859505D01*
X138959505Y-100961968D01*
X138959490Y-100961984D01*
X138959485Y-100961992D01*
X138887017Y-101087509D01*
X138886989Y-101087578D01*
X138886748Y-101088511D01*
X138873484Y-101138015D01*
X138849500Y-101227525D01*
X138849500Y-101372475D01*
X138858180Y-101404868D01*
X138878978Y-101482488D01*
X138887017Y-101512488D01*
X138889088Y-101517489D01*
X138895026Y-101535693D01*
X138899009Y-101552111D01*
X138895687Y-101621900D01*
X138895686Y-101621904D01*
X138893817Y-101627304D01*
X138865333Y-101673401D01*
X138864739Y-101674009D01*
X138850355Y-101686621D01*
X138785318Y-101735308D01*
X138785313Y-101735312D01*
X138785309Y-101735317D01*
X138768669Y-101757546D01*
X138703373Y-101844769D01*
X138681977Y-101902132D01*
X138668278Y-101927220D01*
X138665064Y-101933106D01*
X138655697Y-101945619D01*
X138599768Y-101987489D01*
X138596489Y-101988712D01*
X138588530Y-101991680D01*
X138555234Y-101997688D01*
X138555333Y-101998439D01*
X138547273Y-101999500D01*
X138456659Y-102023779D01*
X138453537Y-102024616D01*
X138453536Y-102024615D01*
X138453531Y-102024617D01*
X138447206Y-102026311D01*
X138445503Y-102026740D01*
X138445409Y-102026794D01*
X138361055Y-102075497D01*
X138361050Y-102075500D01*
X138356968Y-102077856D01*
X138354086Y-102079519D01*
X138354084Y-102079520D01*
X137879526Y-102554078D01*
X137879520Y-102554086D01*
X137840800Y-102621150D01*
X137829272Y-102632618D01*
X137822715Y-102645179D01*
X137818980Y-102648894D01*
X137810796Y-102656697D01*
X137798910Y-102662823D01*
X137794860Y-102666854D01*
X137785947Y-102671939D01*
X137777210Y-102674011D01*
X137748693Y-102688712D01*
X137724832Y-102686432D01*
X137717963Y-102688062D01*
X137709047Y-102684924D01*
X137679140Y-102682068D01*
X137661484Y-102668188D01*
X137652055Y-102664870D01*
X137643847Y-102654322D01*
X137624244Y-102638911D01*
X137623886Y-102638408D01*
X137615262Y-102617587D01*
X137609147Y-102609728D01*
X137608349Y-102600895D01*
X137602582Y-102586971D01*
X137602210Y-102584754D01*
X137600500Y-102564234D01*
X137600500Y-100741402D01*
X137605521Y-100706475D01*
X137608707Y-100695622D01*
X137646477Y-100636841D01*
X137710031Y-100607812D01*
X137779186Y-100617750D01*
X137782287Y-100619166D01*
X137830044Y-100657649D01*
X137835310Y-100664684D01*
X137835315Y-100664689D01*
X137944769Y-100746625D01*
X137944770Y-100746625D01*
X137944774Y-100746628D01*
X138072886Y-100794412D01*
X138129515Y-100800500D01*
X138570484Y-100800499D01*
X138627114Y-100794412D01*
X138755226Y-100746628D01*
X138864687Y-100664687D01*
X138946628Y-100555226D01*
X138994412Y-100427114D01*
X138997982Y-100393906D01*
X138999497Y-100379819D01*
X138999497Y-100379814D01*
X138999904Y-100376029D01*
X139000034Y-100375184D01*
X139000437Y-100371116D01*
X139000499Y-100370505D01*
X139000499Y-100370490D01*
X139000500Y-100370485D01*
X139000499Y-99629516D01*
X138994412Y-99572886D01*
X138994062Y-99571948D01*
X138978706Y-99530777D01*
X138972143Y-99513180D01*
X138972143Y-99513179D01*
X138946629Y-99444776D01*
X138946627Y-99444773D01*
X138933598Y-99427368D01*
X138864687Y-99335313D01*
X138864685Y-99335312D01*
X138864685Y-99335311D01*
X138790322Y-99279644D01*
X138790320Y-99279643D01*
X138779572Y-99271597D01*
X138755228Y-99253373D01*
X138755226Y-99253372D01*
X138629262Y-99206389D01*
X138627914Y-99205776D01*
X138625160Y-99205126D01*
X138620498Y-99204876D01*
X138570507Y-99199500D01*
X138570501Y-99199500D01*
X138570485Y-99199500D01*
X138469098Y-99199500D01*
X138469095Y-99199499D01*
X138469094Y-99199500D01*
X138434159Y-99194476D01*
X138420841Y-99190565D01*
X138362064Y-99152789D01*
X138333043Y-99089242D01*
X138331833Y-99080825D01*
X138334796Y-99031081D01*
X138350499Y-98972477D01*
X138350500Y-98972474D01*
X138350500Y-98827527D01*
X138350500Y-98827525D01*
X138312984Y-98687515D01*
X138312982Y-98687512D01*
X138312983Y-98687512D01*
X138303891Y-98671765D01*
X138303890Y-98671764D01*
X138261238Y-98597888D01*
X138260222Y-98593700D01*
X138260121Y-98593756D01*
X138229461Y-98537604D01*
X138223159Y-98508641D01*
X138217774Y-98498940D01*
X138218523Y-98487332D01*
X138214609Y-98469344D01*
X138215070Y-98462900D01*
X138221166Y-98446380D01*
X138222274Y-98429215D01*
X138238962Y-98398151D01*
X138238973Y-98398122D01*
X138238991Y-98398097D01*
X138238993Y-98398094D01*
X138239132Y-98397904D01*
X138241993Y-98394029D01*
X138244381Y-98390794D01*
X138258834Y-98349489D01*
X138287741Y-98266881D01*
X138287741Y-98266879D01*
X138287741Y-98266876D01*
X138288115Y-98264678D01*
X138288283Y-98261097D01*
X138290500Y-98237457D01*
X138290499Y-97762544D01*
X138287741Y-97733121D01*
X138244381Y-97609206D01*
X138202520Y-97552487D01*
X138194141Y-97541133D01*
X138194140Y-97541132D01*
X138186015Y-97530123D01*
X138166423Y-97503576D01*
X138067070Y-97430251D01*
X138061515Y-97426151D01*
X138060792Y-97425617D01*
X137936883Y-97382258D01*
X137936884Y-97382258D01*
X137925112Y-97381154D01*
X137907461Y-97379500D01*
X137907455Y-97379500D01*
X137532550Y-97379500D01*
X137532546Y-97379500D01*
X137523259Y-97380370D01*
X137503127Y-97382257D01*
X137503112Y-97382260D01*
X137379206Y-97425618D01*
X137379205Y-97425618D01*
X137312480Y-97474864D01*
X137291411Y-97487402D01*
X137286485Y-97489707D01*
X137285873Y-97489931D01*
X137285715Y-97490067D01*
X137280040Y-97492724D01*
X137276909Y-97493204D01*
X137275253Y-97493809D01*
X137275148Y-97493523D01*
X137257722Y-97500671D01*
X137256406Y-97501002D01*
X137232232Y-97500053D01*
X137210977Y-97503313D01*
X137200901Y-97498825D01*
X137186590Y-97498264D01*
X137163678Y-97482244D01*
X137147153Y-97474884D01*
X137142072Y-97467138D01*
X137129372Y-97458259D01*
X137128037Y-97456592D01*
X137114192Y-97424635D01*
X137108831Y-97416462D01*
X137108790Y-97412167D01*
X137102081Y-97396679D01*
X137101755Y-97394410D01*
X137100500Y-97376813D01*
X137100500Y-97305647D01*
X137100790Y-97303633D01*
X137105523Y-97270711D01*
X137108025Y-97262192D01*
X137111867Y-97249105D01*
X137140357Y-97199258D01*
X137143121Y-97196310D01*
X137148441Y-97191582D01*
X137148428Y-97191569D01*
X137149593Y-97190403D01*
X137149642Y-97190328D01*
X137149691Y-97190305D01*
X137154995Y-97185001D01*
X137154999Y-97184999D01*
X137233852Y-97078157D01*
X137261018Y-97000521D01*
X137266926Y-96983639D01*
X137266928Y-96983630D01*
X137274501Y-96961991D01*
X137275109Y-96960251D01*
X137276572Y-96956793D01*
X137276714Y-96956299D01*
X137277663Y-96953309D01*
X137277708Y-96952821D01*
X137277710Y-96952819D01*
X137279118Y-96937809D01*
X137280500Y-96923069D01*
X137280500Y-96476929D01*
X137279153Y-96462574D01*
X137277710Y-96447181D01*
X137277708Y-96447177D01*
X137277708Y-96447173D01*
X137277707Y-96447172D01*
X137277662Y-96446686D01*
X137276712Y-96443693D01*
X137276573Y-96443207D01*
X137275108Y-96439744D01*
X137263720Y-96407200D01*
X137234225Y-96322910D01*
X137233871Y-96321868D01*
X137155000Y-96215001D01*
X137153417Y-96213418D01*
X137142344Y-96200727D01*
X137126465Y-96179812D01*
X137103271Y-96127249D01*
X137102543Y-96123288D01*
X137101786Y-96114989D01*
X137101607Y-96114518D01*
X137101702Y-96114064D01*
X137100500Y-96100873D01*
X137100500Y-92937508D01*
X137105522Y-92902575D01*
X137109433Y-92889256D01*
X137147206Y-92830479D01*
X137210758Y-92801454D01*
X137226330Y-92799214D01*
X137255551Y-92798495D01*
X137276930Y-92800500D01*
X137276934Y-92800500D01*
X137723063Y-92800500D01*
X137723070Y-92800500D01*
X137736288Y-92799260D01*
X137736288Y-92799261D01*
X137736294Y-92799259D01*
X137747071Y-92798248D01*
X137751685Y-92798033D01*
X137752812Y-92797710D01*
X137752819Y-92797710D01*
X137752823Y-92797708D01*
X137752826Y-92797708D01*
X137752844Y-92797701D01*
X137756288Y-92796717D01*
X137756290Y-92796717D01*
X137756784Y-92796575D01*
X137760241Y-92795112D01*
X137801836Y-92780557D01*
X137878157Y-92753852D01*
X137984999Y-92674999D01*
X138063852Y-92568157D01*
X138082664Y-92514395D01*
X138092070Y-92487516D01*
X138105107Y-92450259D01*
X138106572Y-92446793D01*
X138106714Y-92446300D01*
X138107662Y-92443313D01*
X138107708Y-92442822D01*
X138107710Y-92442819D01*
X138109260Y-92426289D01*
X138110500Y-92413070D01*
X138110500Y-92262955D01*
X138112278Y-92256896D01*
X138111108Y-92250693D01*
X138115523Y-92228020D01*
X138117941Y-92219785D01*
X138127580Y-92204785D01*
X138130185Y-92195916D01*
X138139606Y-92186072D01*
X138155715Y-92161007D01*
X138219271Y-92131982D01*
X138288429Y-92141926D01*
X138299694Y-92151252D01*
X138302412Y-92151923D01*
X138309308Y-92159211D01*
X138338116Y-92183061D01*
X138341197Y-92187412D01*
X138348147Y-92200260D01*
X138350433Y-92202676D01*
X138350957Y-92205454D01*
X138355355Y-92213584D01*
X138370637Y-92252341D01*
X138370638Y-92252343D01*
X138462076Y-92372922D01*
X138582654Y-92464359D01*
X138582657Y-92464361D01*
X138603403Y-92472542D01*
X138615226Y-92477204D01*
X138645881Y-92494691D01*
X138655556Y-92502219D01*
X138658221Y-92504292D01*
X138699042Y-92560993D01*
X138699473Y-92562215D01*
X138704701Y-92624313D01*
X138703229Y-92632888D01*
X138695580Y-92659357D01*
X138677737Y-92702437D01*
X138677731Y-92702450D01*
X138674499Y-92710256D01*
X138674498Y-92710259D01*
X138674498Y-92710260D01*
X138674497Y-92710261D01*
X138674098Y-92712265D01*
X138674091Y-92712285D01*
X138674071Y-92712398D01*
X138649500Y-92835923D01*
X138649500Y-92919702D01*
X138644237Y-92937622D01*
X138674494Y-93089726D01*
X138674495Y-93089732D01*
X138674502Y-93089753D01*
X138723529Y-93208118D01*
X138723534Y-93208128D01*
X138794724Y-93314670D01*
X138794725Y-93314671D01*
X138794730Y-93314677D01*
X138885321Y-93405268D01*
X138885327Y-93405273D01*
X138885331Y-93405276D01*
X138991866Y-93476461D01*
X138991872Y-93476464D01*
X138991873Y-93476465D01*
X139105362Y-93523473D01*
X139105947Y-93523724D01*
X139106141Y-93523884D01*
X139109053Y-93525261D01*
X139110252Y-93525499D01*
X139110256Y-93525501D01*
X139110259Y-93525501D01*
X139110260Y-93525501D01*
X139110261Y-93525502D01*
X139207899Y-93544924D01*
X139235927Y-93550500D01*
X139364071Y-93550500D01*
X139364073Y-93550500D01*
X139448615Y-93533682D01*
X139489744Y-93525501D01*
X139608127Y-93476465D01*
X139714669Y-93405276D01*
X139805276Y-93314669D01*
X139876465Y-93208127D01*
X139925501Y-93089744D01*
X139935792Y-93038011D01*
X139949641Y-92968388D01*
X139950500Y-92964072D01*
X139950500Y-92835925D01*
X139927884Y-92722232D01*
X139927884Y-92722231D01*
X139926571Y-92715631D01*
X139926210Y-92713819D01*
X139926206Y-92713798D01*
X139925262Y-92709056D01*
X139923177Y-92704648D01*
X139907522Y-92666850D01*
X139907522Y-92666849D01*
X139905934Y-92663016D01*
X139905933Y-92663007D01*
X139897209Y-92628830D01*
X139895537Y-92613283D01*
X139898702Y-92595739D01*
X139898467Y-92593551D01*
X139899452Y-92591583D01*
X139907940Y-92544529D01*
X139908516Y-92543378D01*
X139949529Y-92496463D01*
X139956732Y-92491552D01*
X139981075Y-92478662D01*
X140017342Y-92464361D01*
X140137922Y-92372922D01*
X140229361Y-92252342D01*
X140284877Y-92111564D01*
X140295500Y-92023102D01*
X140295500Y-91021898D01*
X140284877Y-90933436D01*
X140229361Y-90792658D01*
X140229360Y-90792657D01*
X140229360Y-90792656D01*
X140225630Y-90787737D01*
X140225318Y-90787140D01*
X140224240Y-90785904D01*
X140137922Y-90672076D01*
X140017345Y-90580640D01*
X140017343Y-90580639D01*
X139887851Y-90529574D01*
X139876559Y-90525121D01*
X139837152Y-90520389D01*
X139830926Y-90519642D01*
X139830925Y-90519641D01*
X139803220Y-90516315D01*
X139788102Y-90514500D01*
X139788098Y-90514500D01*
X138811901Y-90514500D01*
X138811898Y-90514500D01*
X138801560Y-90515741D01*
X138772853Y-90519187D01*
X138772853Y-90519188D01*
X138766920Y-90519900D01*
X138723439Y-90525121D01*
X138582653Y-90580640D01*
X138462076Y-90672076D01*
X138370640Y-90792653D01*
X138315121Y-90933440D01*
X138312449Y-90955697D01*
X138311994Y-90959489D01*
X138304500Y-91021898D01*
X138304500Y-91021903D01*
X138304500Y-91038626D01*
X138300257Y-91054309D01*
X138300862Y-91068441D01*
X138299476Y-91073564D01*
X138296289Y-91084417D01*
X138289075Y-91095640D01*
X138287587Y-91101144D01*
X138282411Y-91110010D01*
X138275872Y-91116184D01*
X138258514Y-91143194D01*
X138236743Y-91153135D01*
X138231612Y-91157981D01*
X138222307Y-91159727D01*
X138194957Y-91172217D01*
X138172755Y-91169029D01*
X138162941Y-91170872D01*
X138150547Y-91165841D01*
X138125849Y-91162295D01*
X138125288Y-91162038D01*
X138107420Y-91148333D01*
X138098203Y-91144592D01*
X138093096Y-91137347D01*
X138081134Y-91128172D01*
X138079704Y-91126440D01*
X138067936Y-91109491D01*
X138059939Y-91095640D01*
X138047194Y-91073564D01*
X138040510Y-91061986D01*
X137938012Y-90959488D01*
X137934625Y-90956889D01*
X137920379Y-90944092D01*
X137909567Y-90932754D01*
X137877547Y-90870653D01*
X137884184Y-90801101D01*
X137887348Y-90793199D01*
X137914781Y-90751609D01*
X138528469Y-90137920D01*
X138528476Y-90137916D01*
X138545912Y-90120480D01*
X138545913Y-90120480D01*
X138620480Y-90045913D01*
X138673207Y-89954587D01*
X138680834Y-89926122D01*
X138688564Y-89897276D01*
X138688564Y-89897273D01*
X138690669Y-89889417D01*
X138690671Y-89889414D01*
X138690673Y-89889403D01*
X138691595Y-89885962D01*
X138692559Y-89882365D01*
X138700501Y-89852727D01*
X138700501Y-89747273D01*
X138700501Y-89739678D01*
X138700500Y-89739660D01*
X138700500Y-74197275D01*
X138700500Y-74197273D01*
X138673207Y-74095413D01*
X138673207Y-74095412D01*
X138620480Y-74004087D01*
X138209420Y-73593027D01*
X138188273Y-73564776D01*
X138175666Y-73541687D01*
X138160499Y-73482262D01*
X138160499Y-73095142D01*
X138160499Y-73095136D01*
X138160497Y-73095117D01*
X138157586Y-73070012D01*
X138157585Y-73070010D01*
X138157585Y-73070009D01*
X138153559Y-73060890D01*
X138144045Y-73026909D01*
X138142243Y-73013147D01*
X138153056Y-72944122D01*
X138199468Y-72891900D01*
X138203554Y-72889346D01*
X138269270Y-72870500D01*
X138540594Y-72870500D01*
X138564782Y-72872882D01*
X138588278Y-72877555D01*
X138611542Y-72884611D01*
X138704650Y-72923179D01*
X138709055Y-72925262D01*
X138710260Y-72925501D01*
X138710261Y-72925502D01*
X138730435Y-72929515D01*
X138835926Y-72950500D01*
X138964071Y-72950500D01*
X138964073Y-72950500D01*
X139048615Y-72933682D01*
X139089744Y-72925501D01*
X139208127Y-72876465D01*
X139314669Y-72805276D01*
X139314672Y-72805273D01*
X139314674Y-72805272D01*
X139405273Y-72714672D01*
X139405276Y-72714669D01*
X139476465Y-72608127D01*
X139525501Y-72489744D01*
X139546683Y-72383258D01*
X139546684Y-72383256D01*
X139550500Y-72364075D01*
X139550500Y-72235925D01*
X139525295Y-72109220D01*
X139523724Y-72105947D01*
X139523473Y-72105362D01*
X139476465Y-71991873D01*
X139476464Y-71991872D01*
X139476461Y-71991866D01*
X139405276Y-71885331D01*
X139405273Y-71885327D01*
X139405268Y-71885321D01*
X139314677Y-71794730D01*
X139314671Y-71794725D01*
X139314670Y-71794724D01*
X139208127Y-71723534D01*
X139208128Y-71723534D01*
X139208118Y-71723529D01*
X139089753Y-71674502D01*
X139089733Y-71674495D01*
X139089725Y-71674493D01*
X138964074Y-71649500D01*
X138964071Y-71649500D01*
X138964069Y-71649500D01*
X138835931Y-71649500D01*
X138835929Y-71649500D01*
X138835926Y-71649500D01*
X138710273Y-71674493D01*
X138710265Y-71674495D01*
X138710245Y-71674502D01*
X138591877Y-71723531D01*
X138591872Y-71723534D01*
X138569178Y-71738698D01*
X138537344Y-71753928D01*
X138505709Y-71763834D01*
X138468658Y-71769500D01*
X138242742Y-71769500D01*
X138207803Y-71764476D01*
X138192803Y-71760071D01*
X138134030Y-71722298D01*
X138110621Y-71695283D01*
X138110581Y-71695238D01*
X138110059Y-71694635D01*
X138101119Y-71684317D01*
X138099021Y-71683397D01*
X138091140Y-71676169D01*
X138064471Y-71649500D01*
X138032765Y-71617794D01*
X137999880Y-71603274D01*
X137929993Y-71572415D01*
X137929994Y-71572415D01*
X137904868Y-71569500D01*
X137904865Y-71569500D01*
X136315143Y-71569500D01*
X136315127Y-71569501D01*
X136315113Y-71569502D01*
X136297255Y-71571573D01*
X136290012Y-71572413D01*
X136290011Y-71572413D01*
X136290005Y-71572414D01*
X136289559Y-71572547D01*
X136287303Y-71573609D01*
X136187236Y-71617792D01*
X136107793Y-71697234D01*
X136062414Y-71800005D01*
X136061844Y-71802710D01*
X136061589Y-71807124D01*
X136059500Y-71825127D01*
X136059500Y-72814849D01*
X136059502Y-72814888D01*
X136062426Y-72840104D01*
X136063288Y-72841967D01*
X136083879Y-72888603D01*
X136093394Y-72922588D01*
X136094862Y-72933798D01*
X136094862Y-72933803D01*
X136095073Y-72934712D01*
X136095061Y-72934903D01*
X136095399Y-72936767D01*
X136095254Y-72936793D01*
X136095255Y-72936800D01*
X136095115Y-72936818D01*
X136094948Y-72936848D01*
X136091004Y-73004463D01*
X136087699Y-73012742D01*
X136062415Y-73070008D01*
X136059966Y-73079010D01*
X136059292Y-73078826D01*
X136058868Y-73080057D01*
X136059042Y-73087502D01*
X136049229Y-73108040D01*
X136045698Y-73118291D01*
X136045801Y-73118349D01*
X136045488Y-73118900D01*
X136045131Y-73119939D01*
X136042498Y-73124252D01*
X136042317Y-73124502D01*
X136042250Y-73124659D01*
X136040872Y-73126918D01*
X136039703Y-73127978D01*
X136039549Y-73128303D01*
X136038165Y-73130205D01*
X136037658Y-73129836D01*
X136016516Y-73149035D01*
X135998709Y-73166302D01*
X135999581Y-73167585D01*
X135999153Y-73167876D01*
X135995659Y-73169259D01*
X135992779Y-73172053D01*
X135987615Y-73174771D01*
X135987312Y-73174196D01*
X135980175Y-73175392D01*
X135948838Y-73187805D01*
X135947784Y-73187972D01*
X135928379Y-73189500D01*
X134546010Y-73189500D01*
X134546005Y-73189499D01*
X134546003Y-73189500D01*
X134511069Y-73184475D01*
X134496070Y-73180070D01*
X134437324Y-73142327D01*
X134437295Y-73142293D01*
X134437294Y-73142293D01*
X134437293Y-73142291D01*
X134436137Y-73140958D01*
X134408657Y-73086083D01*
X134407012Y-73078521D01*
X134404180Y-73052168D01*
X134404180Y-72993845D01*
X134403754Y-72991889D01*
X134369576Y-72820061D01*
X134369573Y-72820052D01*
X134366982Y-72813796D01*
X134363451Y-72805272D01*
X134363449Y-72805268D01*
X134336492Y-72740184D01*
X134336492Y-72740183D01*
X134301699Y-72656185D01*
X134301694Y-72656176D01*
X134301689Y-72656166D01*
X134203144Y-72508685D01*
X134203141Y-72508681D01*
X134203136Y-72508675D01*
X134077721Y-72383260D01*
X134077716Y-72383256D01*
X133930239Y-72284714D01*
X133930236Y-72284712D01*
X133930233Y-72284710D01*
X133930220Y-72284703D01*
X133930206Y-72284697D01*
X133766356Y-72216829D01*
X133766333Y-72216821D01*
X133766326Y-72216819D01*
X133592378Y-72182220D01*
X133592374Y-72182220D01*
X133592371Y-72182220D01*
X132614989Y-72182220D01*
X132614986Y-72182220D01*
X132614981Y-72182220D01*
X132441032Y-72216820D01*
X132441025Y-72216821D01*
X132441002Y-72216829D01*
X132277152Y-72284697D01*
X132277134Y-72284705D01*
X132277123Y-72284712D01*
X132211893Y-72328297D01*
X132211892Y-72328298D01*
X132180053Y-72343529D01*
X132167057Y-72347598D01*
X132097199Y-72348844D01*
X132037757Y-72312124D01*
X132009079Y-72256691D01*
X132007252Y-72248636D01*
X132004180Y-72221208D01*
X132004180Y-71408168D01*
X132009203Y-71373234D01*
X132013040Y-71360166D01*
X132020619Y-71348371D01*
X132023724Y-71334696D01*
X132039137Y-71319557D01*
X132050814Y-71301388D01*
X132063566Y-71295563D01*
X132073572Y-71285737D01*
X132094720Y-71281335D01*
X132114369Y-71272362D01*
X132129624Y-71274071D01*
X132141976Y-71271501D01*
X132176387Y-71279311D01*
X132184108Y-71282269D01*
X132208618Y-71294953D01*
X132277131Y-71340732D01*
X132277132Y-71340732D01*
X132277133Y-71340733D01*
X132277135Y-71340734D01*
X132277139Y-71340736D01*
X132396894Y-71390339D01*
X132441014Y-71408614D01*
X132441016Y-71408614D01*
X132441021Y-71408616D01*
X132607360Y-71441702D01*
X132610083Y-71442424D01*
X132614986Y-71443220D01*
X133592373Y-71443220D01*
X133596494Y-71443220D01*
X133604347Y-71440837D01*
X133650362Y-71431684D01*
X133650363Y-71431684D01*
X133766333Y-71408617D01*
X133766333Y-71408616D01*
X133766338Y-71408616D01*
X133766341Y-71408614D01*
X133766346Y-71408614D01*
X133769534Y-71407293D01*
X133777515Y-71403993D01*
X133777556Y-71403971D01*
X133930220Y-71340736D01*
X133930220Y-71340735D01*
X133930227Y-71340733D01*
X134077715Y-71242184D01*
X134203144Y-71116755D01*
X134301693Y-70969267D01*
X134369574Y-70805386D01*
X134404180Y-70631411D01*
X134404180Y-70454029D01*
X134404180Y-70454026D01*
X134404180Y-70453845D01*
X134403754Y-70451889D01*
X134369576Y-70280061D01*
X134369573Y-70280052D01*
X134301696Y-70116179D01*
X134301692Y-70116172D01*
X134258096Y-70050927D01*
X134242868Y-70019093D01*
X134238799Y-70006097D01*
X134237553Y-69936239D01*
X134274273Y-69876797D01*
X134329704Y-69848119D01*
X134335034Y-69846910D01*
X134337761Y-69846292D01*
X134365189Y-69843220D01*
X159461350Y-69843220D01*
X159496286Y-69848243D01*
G37*
%TD.AperFunction*%
%TA.AperFunction,Conductor*%
G36*
X152330131Y-100455521D02*
G01*
X152340984Y-100458707D01*
X152399765Y-100496477D01*
X152428794Y-100560031D01*
X152418855Y-100629190D01*
X152418854Y-100629192D01*
X152415669Y-100636167D01*
X152390553Y-100672342D01*
X151346152Y-101716742D01*
X151346151Y-101716743D01*
X151317896Y-101737894D01*
X151304175Y-101745386D01*
X151235918Y-101760238D01*
X151235902Y-101760236D01*
X151235902Y-101760237D01*
X151235901Y-101760236D01*
X151229476Y-101759778D01*
X151164679Y-101735866D01*
X151150794Y-101725619D01*
X151125426Y-101716742D01*
X151026883Y-101682258D01*
X151026884Y-101682258D01*
X151015112Y-101681154D01*
X150997461Y-101679500D01*
X150997455Y-101679500D01*
X150622550Y-101679500D01*
X150622546Y-101679500D01*
X150613259Y-101680370D01*
X150593127Y-101682257D01*
X150593115Y-101682260D01*
X150537259Y-101701804D01*
X150537258Y-101701805D01*
X150537255Y-101701805D01*
X150537251Y-101701807D01*
X150502624Y-101708604D01*
X150493272Y-101709081D01*
X150488762Y-101709311D01*
X150420807Y-101693072D01*
X150372419Y-101642672D01*
X150372033Y-101641930D01*
X150358123Y-101583529D01*
X150358220Y-101574502D01*
X150358219Y-101574501D01*
X150358318Y-101565273D01*
X150358855Y-101554999D01*
X150359037Y-101553054D01*
X150359037Y-101553051D01*
X150360500Y-101537457D01*
X150360499Y-101062544D01*
X150357741Y-101033121D01*
X150314381Y-100909206D01*
X150275402Y-100856391D01*
X150236423Y-100803576D01*
X150236420Y-100803574D01*
X150164860Y-100750761D01*
X150163151Y-100749500D01*
X150130794Y-100725619D01*
X150130792Y-100725618D01*
X150130790Y-100725617D01*
X150050235Y-100697429D01*
X150036330Y-100687456D01*
X150020111Y-100681994D01*
X150018918Y-100681149D01*
X150012764Y-100676735D01*
X150001790Y-100662683D01*
X149993459Y-100656707D01*
X149989545Y-100647001D01*
X149969762Y-100621667D01*
X149963358Y-100552091D01*
X149979410Y-100521211D01*
X149979891Y-100518604D01*
X149981856Y-100516507D01*
X149995586Y-100490098D01*
X150020269Y-100475540D01*
X150027682Y-100467635D01*
X150038127Y-100465008D01*
X150053160Y-100456142D01*
X150058708Y-100454665D01*
X150090578Y-100450500D01*
X152295204Y-100450500D01*
X152330131Y-100455521D01*
G37*
%TD.AperFunction*%
%TA.AperFunction,Conductor*%
G36*
X159466204Y-83977378D02*
G01*
X159510159Y-83976595D01*
X159569601Y-84013315D01*
X159598275Y-84068730D01*
X159600103Y-84076784D01*
X159603179Y-84104230D01*
X159603179Y-87457269D01*
X159603178Y-87457275D01*
X159603179Y-87457279D01*
X159598823Y-87487556D01*
X159598153Y-87492214D01*
X159594315Y-87505281D01*
X159556536Y-87564056D01*
X159492978Y-87593075D01*
X159430970Y-87586126D01*
X159423256Y-87583170D01*
X159398738Y-87570483D01*
X159330238Y-87524713D01*
X159330233Y-87524710D01*
X159330232Y-87524709D01*
X159330222Y-87524703D01*
X159166356Y-87456829D01*
X159166333Y-87456821D01*
X159166326Y-87456819D01*
X158992378Y-87422220D01*
X158992374Y-87422220D01*
X158992371Y-87422220D01*
X158238765Y-87422220D01*
X158238764Y-87422219D01*
X158238764Y-87422220D01*
X158203829Y-87417197D01*
X158178587Y-87409785D01*
X158125842Y-87378489D01*
X157649426Y-86902073D01*
X157628274Y-86873817D01*
X157615667Y-86850728D01*
X157600500Y-86791303D01*
X157600500Y-84212398D01*
X157605522Y-84177465D01*
X157609433Y-84164146D01*
X157647206Y-84105369D01*
X157710758Y-84076344D01*
X157715955Y-84075597D01*
X157781046Y-84083774D01*
X157841014Y-84108614D01*
X157841015Y-84108614D01*
X157841016Y-84108614D01*
X157841021Y-84108616D01*
X158007360Y-84141702D01*
X158010083Y-84142424D01*
X158014986Y-84143220D01*
X158992373Y-84143220D01*
X158996494Y-84143220D01*
X159004347Y-84140837D01*
X159050362Y-84131684D01*
X159050363Y-84131684D01*
X159166333Y-84108617D01*
X159166333Y-84108616D01*
X159166338Y-84108616D01*
X159166341Y-84108614D01*
X159166346Y-84108614D01*
X159169534Y-84107293D01*
X159177515Y-84103993D01*
X159177556Y-84103971D01*
X159330222Y-84040735D01*
X159330221Y-84040735D01*
X159330227Y-84040733D01*
X159379442Y-84007847D01*
X159395471Y-83997137D01*
X159427301Y-83981911D01*
X159440300Y-83977841D01*
X159458133Y-83977522D01*
X159462149Y-83976266D01*
X159466204Y-83977378D01*
G37*
%TD.AperFunction*%
%TD*%
M02*
