%TF.GenerationSoftware,KiCad,Pcbnew,10.0.3*%
%TF.CreationDate,2026-06-12T19:49:54+05:30*%
%TF.ProjectId,ImpactControl H7,496d7061-6374-4436-9f6e-74726f6c2048,rev?*%
%TF.SameCoordinates,Original*%
%TF.FileFunction,Paste,Top*%
%TF.FilePolarity,Positive*%
%FSLAX46Y46*%
G04 Gerber Fmt 4.6, Leading zero omitted, Abs format (unit mm)*
G04 Created by KiCad (PCBNEW 10.0.3) date 2026-06-12 19:49:54*
%MOMM*%
%LPD*%
G01*
G04 APERTURE LIST*
G04 Aperture macros list*
%AMRoundRect*
0 Rectangle with rounded corners*
0 $1 Rounding radius*
0 $2 $3 $4 $5 $6 $7 $8 $9 X,Y pos of 4 corners*
0 Add a 4 corners polygon primitive as box body*
4,1,4,$2,$3,$4,$5,$6,$7,$8,$9,$2,$3,0*
0 Add four circle primitives for the rounded corners*
1,1,$1+$1,$2,$3*
1,1,$1+$1,$4,$5*
1,1,$1+$1,$6,$7*
1,1,$1+$1,$8,$9*
0 Add four rect primitives between the rounded corners*
20,1,$1+$1,$2,$3,$4,$5,0*
20,1,$1+$1,$4,$5,$6,$7,0*
20,1,$1+$1,$6,$7,$8,$9,0*
20,1,$1+$1,$8,$9,$2,$3,0*%
G04 Aperture macros list end*
%ADD10RoundRect,0.218750X0.256250X-0.218750X0.256250X0.218750X-0.256250X0.218750X-0.256250X-0.218750X0*%
%ADD11RoundRect,0.200000X-0.275000X0.200000X-0.275000X-0.200000X0.275000X-0.200000X0.275000X0.200000X0*%
%ADD12RoundRect,0.200000X0.200000X0.275000X-0.200000X0.275000X-0.200000X-0.275000X0.200000X-0.275000X0*%
%ADD13RoundRect,0.200000X-0.200000X-0.275000X0.200000X-0.275000X0.200000X0.275000X-0.200000X0.275000X0*%
%ADD14R,2.450000X1.000000*%
%ADD15R,1.000000X2.450000*%
%ADD16RoundRect,0.225000X0.250000X-0.225000X0.250000X0.225000X-0.250000X0.225000X-0.250000X-0.225000X0*%
%ADD17RoundRect,0.218750X-0.218750X-0.256250X0.218750X-0.256250X0.218750X0.256250X-0.218750X0.256250X0*%
G04 APERTURE END LIST*
D10*
%TO.C,D2*%
X149415500Y-83210500D03*
X149415500Y-81635500D03*
%TD*%
D11*
%TO.C,R1*%
X155702000Y-65977000D03*
X155702000Y-67627000D03*
%TD*%
D12*
%TO.C,R3*%
X146367000Y-80200500D03*
X144717000Y-80200500D03*
%TD*%
D13*
%TO.C,R2*%
X147765000Y-80200500D03*
X149415000Y-80200500D03*
%TD*%
D14*
%TO.C,DWM1*%
X140766000Y-63336200D03*
X140766000Y-64736200D03*
X140766000Y-66136200D03*
X140766000Y-67536200D03*
X140766000Y-68936200D03*
X140766000Y-70336200D03*
X140766000Y-71736200D03*
X140766000Y-73136200D03*
D15*
X142166000Y-75431200D03*
X143566000Y-75431200D03*
X144966000Y-75431200D03*
X146366000Y-75431200D03*
X147766000Y-75431200D03*
X149166000Y-75431200D03*
X150566000Y-75431200D03*
X151966000Y-75431200D03*
D14*
X153366000Y-73135000D03*
X153366000Y-71735000D03*
X153366000Y-70336200D03*
X153366000Y-68936200D03*
X153366000Y-67536200D03*
X153366000Y-66136200D03*
X153366000Y-64736200D03*
X153366000Y-63336200D03*
%TD*%
D16*
%TO.C,C1*%
X138430000Y-71755000D03*
X138430000Y-70205000D03*
%TD*%
D10*
%TO.C,D1*%
X144716500Y-83236000D03*
X144716500Y-81661000D03*
%TD*%
D17*
%TO.C,D3*%
X144627500Y-106680000D03*
X146202500Y-106680000D03*
%TD*%
D12*
%TO.C,R4*%
X149224000Y-106680000D03*
X147574000Y-106680000D03*
%TD*%
M02*
