M48
; DRILL file KiCad 10.0.3 date 2026-06-12T19:50:12
; FORMAT={-:-/ absolute / metric / decimal}
; #@! TF.CreationDate,2026-06-12T19:50:12+05:30
; #@! TF.GenerationSoftware,Kicad,Pcbnew,10.0.3
; #@! TF.FileFunction,Plated,1,2,PTH
FMAT,2
METRIC
; #@! TA.AperFunction,Plated,PTH,ViaDrill
T1C0.400
; #@! TA.AperFunction,Plated,PTH,ComponentDrill
T2C1.000
%
G90
G05
T1
X138.43Y-69.342
X142.177Y-90.17
X142.621Y-64.77
X142.621Y-67.564
X142.621Y-70.358
X142.621Y-73.152
X143.51Y-73.533
X143.573Y-90.17
X143.637Y-106.68
X143.637Y-106.68
X143.637Y-106.68
X143.637Y-106.68
X144.78Y-84.328
X145.669Y-64.77
X145.669Y-67.564
X145.669Y-70.358
X145.669Y-73.533
X148.463Y-64.77
X148.463Y-67.564
X148.463Y-70.358
X148.463Y-73.533
X149.352Y-84.328
X150.622Y-73.533
X151.511Y-64.77
X151.511Y-67.564
X151.511Y-70.358
X151.511Y-73.152
T2
X139.446Y-78.867
X139.446Y-81.407
X139.446Y-83.947
X139.446Y-86.487
X139.446Y-89.027
X139.446Y-91.567
X139.446Y-94.107
X139.446Y-96.647
X139.446Y-99.187
X139.446Y-101.727
X139.446Y-104.267
X139.446Y-106.807
X154.686Y-78.867
X154.686Y-81.407
X154.686Y-83.947
X154.686Y-86.487
X154.686Y-89.027
X154.686Y-91.567
X154.686Y-94.107
X154.686Y-96.647
X154.686Y-99.187
X154.686Y-101.727
X154.686Y-104.267
X154.686Y-106.807
M30
