%TF.GenerationSoftware,KiCad,Pcbnew,10.0.3*%
%TF.CreationDate,2026-06-12T19:49:54+05:30*%
%TF.ProjectId,ImpactControl H7,496d7061-6374-4436-9f6e-74726f6c2048,rev?*%
%TF.SameCoordinates,Original*%
%TF.FileFunction,Copper,L2,Bot*%
%TF.FilePolarity,Positive*%
%FSLAX46Y46*%
G04 Gerber Fmt 4.6, Leading zero omitted, Abs format (unit mm)*
G04 Created by KiCad (PCBNEW 10.0.3) date 2026-06-12 19:49:54*
%MOMM*%
%LPD*%
G01*
G04 APERTURE LIST*
%TA.AperFunction,ComponentPad*%
%ADD10R,1.700000X1.700000*%
%TD*%
%TA.AperFunction,ComponentPad*%
%ADD11O,1.700000X1.700000*%
%TD*%
%TA.AperFunction,ViaPad*%
%ADD12C,0.600000*%
%TD*%
%TA.AperFunction,Conductor*%
%ADD13C,0.250000*%
%TD*%
G04 APERTURE END LIST*
D10*
%TO.P,P1,1*%
%TO.N,GND*%
X139446000Y-78867000D03*
D11*
%TO.P,P1,2*%
%TO.N,/D2*%
X139446000Y-81407000D03*
%TO.P,P1,3*%
%TO.N,/D3*%
X139446000Y-83947000D03*
%TO.P,P1,4*%
%TO.N,/D4*%
X139446000Y-86487000D03*
%TO.P,P1,5*%
%TO.N,/D5*%
X139446000Y-89027000D03*
%TO.P,P1,6*%
%TO.N,/D6*%
X139446000Y-91567000D03*
%TO.P,P1,7*%
%TO.N,/D7*%
X139446000Y-94107000D03*
%TO.P,P1,8*%
%TO.N,/D8*%
X139446000Y-96647000D03*
%TO.P,P1,9*%
%TO.N,/D9*%
X139446000Y-99187000D03*
%TO.P,P1,10*%
%TO.N,/D10*%
X139446000Y-101727000D03*
%TO.P,P1,11*%
%TO.N,/D11*%
X139446000Y-104267000D03*
%TO.P,P1,12*%
%TO.N,/D12*%
X139446000Y-106807000D03*
%TD*%
D10*
%TO.P,P2,1*%
%TO.N,Net-(P2-Pad1)*%
X154686000Y-78867000D03*
D11*
%TO.P,P2,2*%
%TO.N,/A7(SS)*%
X154686000Y-81407000D03*
%TO.P,P2,3*%
%TO.N,/A6(MOSI)*%
X154686000Y-83947000D03*
%TO.P,P2,4*%
%TO.N,/A5(MISO)*%
X154686000Y-86487000D03*
%TO.P,P2,5*%
%TO.N,/A4(SCK)*%
X154686000Y-89027000D03*
%TO.P,P2,6*%
%TO.N,/A3*%
X154686000Y-91567000D03*
%TO.P,P2,7*%
%TO.N,/A2*%
X154686000Y-94107000D03*
%TO.P,P2,8*%
%TO.N,/A1*%
X154686000Y-96647000D03*
%TO.P,P2,9*%
%TO.N,/A0*%
X154686000Y-99187000D03*
%TO.P,P2,10*%
%TO.N,/AREF*%
X154686000Y-101727000D03*
%TO.P,P2,11*%
%TO.N,+3V3*%
X154686000Y-104267000D03*
%TO.P,P2,12*%
%TO.N,/13*%
X154686000Y-106807000D03*
%TD*%
D12*
%TO.N,GND*%
X151511000Y-73152000D03*
X145669000Y-73533000D03*
X148463000Y-73533000D03*
X142621000Y-70358000D03*
X142621000Y-67564000D03*
X142621000Y-64770000D03*
X151511000Y-70358000D03*
X150622000Y-73533000D03*
X148463000Y-70358000D03*
X145669000Y-70358000D03*
X148463000Y-67564000D03*
X145669000Y-67564000D03*
X148463000Y-64770000D03*
X145669000Y-64770000D03*
X151511000Y-64770000D03*
X149352000Y-84328000D03*
X143637000Y-106680000D03*
X143637000Y-106680000D03*
X143637000Y-106680000D03*
X144780000Y-84328000D03*
X151511000Y-67564000D03*
X143510000Y-73533000D03*
X142621000Y-73152000D03*
X138430000Y-69342000D03*
X143637000Y-106680000D03*
%TO.N,/D6*%
X142176500Y-90170000D03*
%TO.N,/D7*%
X143573500Y-90170000D03*
%TD*%
%TO.N,/D6*%
D13*
X142176500Y-90170000D02*
X140779500Y-91567000D01*
X140779500Y-91567000D02*
X139446000Y-91567000D01*
%TO.N,/D7*%
X143573500Y-90170000D02*
X139636500Y-94107000D01*
X139636500Y-94107000D02*
X139446000Y-94107000D01*
%TD*%
%TA.AperFunction,Conductor*%
%TO.N,GND*%
G36*
X158387621Y-62554502D02*
G01*
X158434114Y-62608158D01*
X158445500Y-62660500D01*
X158445500Y-108408500D01*
X158425498Y-108476621D01*
X158371842Y-108523114D01*
X158319500Y-108534500D01*
X135812500Y-108534500D01*
X135744379Y-108514498D01*
X135697886Y-108460842D01*
X135686500Y-108408500D01*
X135686500Y-81300084D01*
X138087500Y-81300084D01*
X138087500Y-81513916D01*
X138120951Y-81725116D01*
X138120952Y-81725121D01*
X138187026Y-81928478D01*
X138187028Y-81928483D01*
X138284106Y-82119009D01*
X138409794Y-82292004D01*
X138409796Y-82292006D01*
X138409798Y-82292009D01*
X138560990Y-82443201D01*
X138560993Y-82443203D01*
X138560996Y-82443206D01*
X138733991Y-82568894D01*
X138733996Y-82568896D01*
X138735088Y-82569566D01*
X138735418Y-82569931D01*
X138737996Y-82571804D01*
X138737602Y-82572345D01*
X138782721Y-82622213D01*
X138794328Y-82692255D01*
X138766226Y-82757453D01*
X138737870Y-82782023D01*
X138737996Y-82782196D01*
X138735982Y-82783658D01*
X138735088Y-82784434D01*
X138733987Y-82785108D01*
X138560993Y-82910796D01*
X138560990Y-82910798D01*
X138409798Y-83061990D01*
X138409796Y-83061993D01*
X138284108Y-83234987D01*
X138187029Y-83425515D01*
X138187026Y-83425521D01*
X138120952Y-83628878D01*
X138120951Y-83628883D01*
X138120951Y-83628884D01*
X138087500Y-83840084D01*
X138087500Y-84053916D01*
X138120951Y-84265116D01*
X138120952Y-84265121D01*
X138187026Y-84468478D01*
X138187028Y-84468483D01*
X138284106Y-84659009D01*
X138409794Y-84832004D01*
X138409796Y-84832006D01*
X138409798Y-84832009D01*
X138560990Y-84983201D01*
X138560993Y-84983203D01*
X138560996Y-84983206D01*
X138733991Y-85108894D01*
X138733996Y-85108896D01*
X138735088Y-85109566D01*
X138735418Y-85109931D01*
X138737996Y-85111804D01*
X138737602Y-85112345D01*
X138782721Y-85162213D01*
X138794328Y-85232255D01*
X138766226Y-85297453D01*
X138737870Y-85322023D01*
X138737996Y-85322196D01*
X138735982Y-85323658D01*
X138735088Y-85324434D01*
X138733987Y-85325108D01*
X138560993Y-85450796D01*
X138560990Y-85450798D01*
X138409798Y-85601990D01*
X138409796Y-85601993D01*
X138284108Y-85774987D01*
X138187029Y-85965515D01*
X138187026Y-85965521D01*
X138120952Y-86168878D01*
X138120951Y-86168883D01*
X138120951Y-86168884D01*
X138087500Y-86380084D01*
X138087500Y-86593916D01*
X138120951Y-86805116D01*
X138120952Y-86805121D01*
X138187026Y-87008478D01*
X138187028Y-87008483D01*
X138284106Y-87199009D01*
X138409794Y-87372004D01*
X138409796Y-87372006D01*
X138409798Y-87372009D01*
X138560990Y-87523201D01*
X138560993Y-87523203D01*
X138560996Y-87523206D01*
X138733991Y-87648894D01*
X138733996Y-87648896D01*
X138735088Y-87649566D01*
X138735418Y-87649931D01*
X138737996Y-87651804D01*
X138737602Y-87652345D01*
X138782721Y-87702213D01*
X138794328Y-87772255D01*
X138766226Y-87837453D01*
X138737870Y-87862023D01*
X138737996Y-87862196D01*
X138735982Y-87863658D01*
X138735088Y-87864434D01*
X138733987Y-87865108D01*
X138560993Y-87990796D01*
X138560990Y-87990798D01*
X138409798Y-88141990D01*
X138409796Y-88141993D01*
X138284108Y-88314987D01*
X138187029Y-88505515D01*
X138187026Y-88505521D01*
X138120952Y-88708878D01*
X138120951Y-88708883D01*
X138120951Y-88708884D01*
X138087500Y-88920084D01*
X138087500Y-89133916D01*
X138120951Y-89345116D01*
X138120952Y-89345121D01*
X138187026Y-89548478D01*
X138187028Y-89548483D01*
X138284106Y-89739009D01*
X138284108Y-89739012D01*
X138315182Y-89781781D01*
X138409794Y-89912004D01*
X138409796Y-89912006D01*
X138409798Y-89912009D01*
X138560990Y-90063201D01*
X138560993Y-90063203D01*
X138560996Y-90063206D01*
X138733991Y-90188894D01*
X138733996Y-90188896D01*
X138735088Y-90189566D01*
X138735418Y-90189931D01*
X138737996Y-90191804D01*
X138737602Y-90192345D01*
X138782721Y-90242213D01*
X138794328Y-90312255D01*
X138766226Y-90377453D01*
X138737870Y-90402023D01*
X138737996Y-90402196D01*
X138735982Y-90403658D01*
X138735088Y-90404434D01*
X138733987Y-90405108D01*
X138560993Y-90530796D01*
X138560990Y-90530798D01*
X138409798Y-90681990D01*
X138409796Y-90681993D01*
X138284108Y-90854987D01*
X138187029Y-91045515D01*
X138187026Y-91045521D01*
X138120952Y-91248878D01*
X138120951Y-91248883D01*
X138120951Y-91248884D01*
X138087500Y-91460084D01*
X138087500Y-91673916D01*
X138120951Y-91885116D01*
X138120952Y-91885121D01*
X138187026Y-92088478D01*
X138187028Y-92088483D01*
X138284106Y-92279009D01*
X138409794Y-92452004D01*
X138409796Y-92452006D01*
X138409798Y-92452009D01*
X138560990Y-92603201D01*
X138560993Y-92603203D01*
X138560996Y-92603206D01*
X138733991Y-92728894D01*
X138733996Y-92728896D01*
X138735088Y-92729566D01*
X138735418Y-92729931D01*
X138737996Y-92731804D01*
X138737602Y-92732345D01*
X138782721Y-92782213D01*
X138794328Y-92852255D01*
X138766226Y-92917453D01*
X138737870Y-92942023D01*
X138737996Y-92942196D01*
X138735982Y-92943658D01*
X138735088Y-92944434D01*
X138733987Y-92945108D01*
X138560993Y-93070796D01*
X138560990Y-93070798D01*
X138409798Y-93221990D01*
X138409796Y-93221993D01*
X138284108Y-93394987D01*
X138187029Y-93585515D01*
X138187026Y-93585521D01*
X138120952Y-93788878D01*
X138120951Y-93788883D01*
X138120951Y-93788884D01*
X138087500Y-94000084D01*
X138087500Y-94213916D01*
X138120951Y-94425116D01*
X138120952Y-94425121D01*
X138187026Y-94628478D01*
X138187028Y-94628483D01*
X138284106Y-94819009D01*
X138409794Y-94992004D01*
X138409796Y-94992006D01*
X138409798Y-94992009D01*
X138560990Y-95143201D01*
X138560993Y-95143203D01*
X138560996Y-95143206D01*
X138733991Y-95268894D01*
X138733996Y-95268896D01*
X138735088Y-95269566D01*
X138735418Y-95269931D01*
X138737996Y-95271804D01*
X138737602Y-95272345D01*
X138782721Y-95322213D01*
X138794328Y-95392255D01*
X138766226Y-95457453D01*
X138737870Y-95482023D01*
X138737996Y-95482196D01*
X138735982Y-95483658D01*
X138735088Y-95484434D01*
X138733987Y-95485108D01*
X138560993Y-95610796D01*
X138560990Y-95610798D01*
X138409798Y-95761990D01*
X138409796Y-95761993D01*
X138284108Y-95934987D01*
X138187029Y-96125515D01*
X138187026Y-96125521D01*
X138120952Y-96328878D01*
X138120951Y-96328883D01*
X138120951Y-96328884D01*
X138087500Y-96540084D01*
X138087500Y-96753916D01*
X138120951Y-96965116D01*
X138120952Y-96965121D01*
X138187026Y-97168478D01*
X138187028Y-97168483D01*
X138284106Y-97359009D01*
X138409794Y-97532004D01*
X138409796Y-97532006D01*
X138409798Y-97532009D01*
X138560990Y-97683201D01*
X138560993Y-97683203D01*
X138560996Y-97683206D01*
X138733991Y-97808894D01*
X138733996Y-97808896D01*
X138735088Y-97809566D01*
X138735418Y-97809931D01*
X138737996Y-97811804D01*
X138737602Y-97812345D01*
X138782721Y-97862213D01*
X138794328Y-97932255D01*
X138766226Y-97997453D01*
X138737870Y-98022023D01*
X138737996Y-98022196D01*
X138735982Y-98023658D01*
X138735088Y-98024434D01*
X138733987Y-98025108D01*
X138560993Y-98150796D01*
X138560990Y-98150798D01*
X138409798Y-98301990D01*
X138409796Y-98301993D01*
X138284108Y-98474987D01*
X138187029Y-98665515D01*
X138187026Y-98665521D01*
X138120952Y-98868878D01*
X138120951Y-98868883D01*
X138120951Y-98868884D01*
X138087500Y-99080084D01*
X138087500Y-99293916D01*
X138120951Y-99505116D01*
X138120952Y-99505121D01*
X138187026Y-99708478D01*
X138187028Y-99708483D01*
X138284106Y-99899009D01*
X138409794Y-100072004D01*
X138409796Y-100072006D01*
X138409798Y-100072009D01*
X138560990Y-100223201D01*
X138560993Y-100223203D01*
X138560996Y-100223206D01*
X138733991Y-100348894D01*
X138733996Y-100348896D01*
X138735088Y-100349566D01*
X138735418Y-100349931D01*
X138737996Y-100351804D01*
X138737602Y-100352345D01*
X138782721Y-100402213D01*
X138794328Y-100472255D01*
X138766226Y-100537453D01*
X138737870Y-100562023D01*
X138737996Y-100562196D01*
X138735982Y-100563658D01*
X138735088Y-100564434D01*
X138733987Y-100565108D01*
X138560993Y-100690796D01*
X138560990Y-100690798D01*
X138409798Y-100841990D01*
X138409796Y-100841993D01*
X138284108Y-101014987D01*
X138187029Y-101205515D01*
X138187026Y-101205521D01*
X138120952Y-101408878D01*
X138120951Y-101408883D01*
X138120951Y-101408884D01*
X138087500Y-101620084D01*
X138087500Y-101833916D01*
X138120951Y-102045116D01*
X138120952Y-102045121D01*
X138187026Y-102248478D01*
X138187028Y-102248483D01*
X138284106Y-102439009D01*
X138409794Y-102612004D01*
X138409796Y-102612006D01*
X138409798Y-102612009D01*
X138560990Y-102763201D01*
X138560993Y-102763203D01*
X138560996Y-102763206D01*
X138733991Y-102888894D01*
X138733996Y-102888896D01*
X138735088Y-102889566D01*
X138735418Y-102889931D01*
X138737996Y-102891804D01*
X138737602Y-102892345D01*
X138782721Y-102942213D01*
X138794328Y-103012255D01*
X138766226Y-103077453D01*
X138737870Y-103102023D01*
X138737996Y-103102196D01*
X138735982Y-103103658D01*
X138735088Y-103104434D01*
X138733987Y-103105108D01*
X138560993Y-103230796D01*
X138560990Y-103230798D01*
X138409798Y-103381990D01*
X138409796Y-103381993D01*
X138284108Y-103554987D01*
X138187029Y-103745515D01*
X138187026Y-103745521D01*
X138120952Y-103948878D01*
X138120951Y-103948883D01*
X138120951Y-103948884D01*
X138087500Y-104160084D01*
X138087500Y-104373916D01*
X138120951Y-104585116D01*
X138120952Y-104585121D01*
X138187026Y-104788478D01*
X138187028Y-104788483D01*
X138284106Y-104979009D01*
X138409794Y-105152004D01*
X138409796Y-105152006D01*
X138409798Y-105152009D01*
X138560990Y-105303201D01*
X138560993Y-105303203D01*
X138560996Y-105303206D01*
X138733991Y-105428894D01*
X138733996Y-105428896D01*
X138735088Y-105429566D01*
X138735418Y-105429931D01*
X138737996Y-105431804D01*
X138737602Y-105432345D01*
X138782721Y-105482213D01*
X138794328Y-105552255D01*
X138766226Y-105617453D01*
X138737870Y-105642023D01*
X138737996Y-105642196D01*
X138735982Y-105643658D01*
X138735088Y-105644434D01*
X138733987Y-105645108D01*
X138560993Y-105770796D01*
X138560990Y-105770798D01*
X138409798Y-105921990D01*
X138409796Y-105921993D01*
X138284108Y-106094987D01*
X138187029Y-106285515D01*
X138187026Y-106285521D01*
X138120952Y-106488878D01*
X138120951Y-106488883D01*
X138120951Y-106488884D01*
X138087500Y-106700084D01*
X138087500Y-106913916D01*
X138120951Y-107125116D01*
X138120952Y-107125121D01*
X138187026Y-107328478D01*
X138187028Y-107328483D01*
X138284106Y-107519009D01*
X138409794Y-107692004D01*
X138409796Y-107692006D01*
X138409798Y-107692009D01*
X138560990Y-107843201D01*
X138560993Y-107843203D01*
X138560996Y-107843206D01*
X138733991Y-107968894D01*
X138924517Y-108065972D01*
X139127878Y-108132047D01*
X139127879Y-108132047D01*
X139127884Y-108132049D01*
X139339084Y-108165500D01*
X139339087Y-108165500D01*
X139552913Y-108165500D01*
X139552916Y-108165500D01*
X139764116Y-108132049D01*
X139967483Y-108065972D01*
X140158009Y-107968894D01*
X140331004Y-107843206D01*
X140482206Y-107692004D01*
X140607894Y-107519009D01*
X140704972Y-107328483D01*
X140771049Y-107125116D01*
X140804500Y-106913916D01*
X140804500Y-106700084D01*
X140771049Y-106488884D01*
X140704972Y-106285517D01*
X140607894Y-106094991D01*
X140482206Y-105921996D01*
X140482203Y-105921993D01*
X140482201Y-105921990D01*
X140331009Y-105770798D01*
X140331006Y-105770796D01*
X140331004Y-105770794D01*
X140158009Y-105645106D01*
X140158007Y-105645105D01*
X140156920Y-105644439D01*
X140156591Y-105644075D01*
X140154004Y-105642196D01*
X140154398Y-105641652D01*
X140109283Y-105591796D01*
X140097670Y-105521756D01*
X140125766Y-105456555D01*
X140154130Y-105431978D01*
X140154004Y-105431804D01*
X140156030Y-105430331D01*
X140156920Y-105429561D01*
X140157997Y-105428899D01*
X140158009Y-105428894D01*
X140331004Y-105303206D01*
X140482206Y-105152004D01*
X140607894Y-104979009D01*
X140704972Y-104788483D01*
X140771049Y-104585116D01*
X140804500Y-104373916D01*
X140804500Y-104160084D01*
X140771049Y-103948884D01*
X140704972Y-103745517D01*
X140607894Y-103554991D01*
X140482206Y-103381996D01*
X140482203Y-103381993D01*
X140482201Y-103381990D01*
X140331009Y-103230798D01*
X140331006Y-103230796D01*
X140331004Y-103230794D01*
X140158009Y-103105106D01*
X140158007Y-103105105D01*
X140156920Y-103104439D01*
X140156591Y-103104075D01*
X140154004Y-103102196D01*
X140154398Y-103101652D01*
X140109283Y-103051796D01*
X140097670Y-102981756D01*
X140125766Y-102916555D01*
X140154130Y-102891978D01*
X140154004Y-102891804D01*
X140156030Y-102890331D01*
X140156920Y-102889561D01*
X140157997Y-102888899D01*
X140158009Y-102888894D01*
X140331004Y-102763206D01*
X140482206Y-102612004D01*
X140607894Y-102439009D01*
X140704972Y-102248483D01*
X140771049Y-102045116D01*
X140804500Y-101833916D01*
X140804500Y-101620084D01*
X140771049Y-101408884D01*
X140704972Y-101205517D01*
X140607894Y-101014991D01*
X140482206Y-100841996D01*
X140482203Y-100841993D01*
X140482201Y-100841990D01*
X140331009Y-100690798D01*
X140331006Y-100690796D01*
X140331004Y-100690794D01*
X140158009Y-100565106D01*
X140158007Y-100565105D01*
X140156920Y-100564439D01*
X140156591Y-100564075D01*
X140154004Y-100562196D01*
X140154398Y-100561652D01*
X140109283Y-100511796D01*
X140097670Y-100441756D01*
X140125766Y-100376555D01*
X140154130Y-100351978D01*
X140154004Y-100351804D01*
X140156030Y-100350331D01*
X140156920Y-100349561D01*
X140157997Y-100348899D01*
X140158009Y-100348894D01*
X140331004Y-100223206D01*
X140482206Y-100072004D01*
X140607894Y-99899009D01*
X140704972Y-99708483D01*
X140771049Y-99505116D01*
X140804500Y-99293916D01*
X140804500Y-99080084D01*
X140771049Y-98868884D01*
X140704972Y-98665517D01*
X140607894Y-98474991D01*
X140482206Y-98301996D01*
X140482203Y-98301993D01*
X140482201Y-98301990D01*
X140331009Y-98150798D01*
X140331006Y-98150796D01*
X140331004Y-98150794D01*
X140158009Y-98025106D01*
X140158007Y-98025105D01*
X140156920Y-98024439D01*
X140156591Y-98024075D01*
X140154004Y-98022196D01*
X140154398Y-98021652D01*
X140109283Y-97971796D01*
X140097670Y-97901756D01*
X140125766Y-97836555D01*
X140154130Y-97811978D01*
X140154004Y-97811804D01*
X140156030Y-97810331D01*
X140156920Y-97809561D01*
X140157997Y-97808899D01*
X140158009Y-97808894D01*
X140331004Y-97683206D01*
X140482206Y-97532004D01*
X140607894Y-97359009D01*
X140704972Y-97168483D01*
X140771049Y-96965116D01*
X140804500Y-96753916D01*
X140804500Y-96540084D01*
X140771049Y-96328884D01*
X140704972Y-96125517D01*
X140607894Y-95934991D01*
X140482206Y-95761996D01*
X140482203Y-95761993D01*
X140482201Y-95761990D01*
X140331009Y-95610798D01*
X140331006Y-95610796D01*
X140331004Y-95610794D01*
X140158009Y-95485106D01*
X140158007Y-95485105D01*
X140156920Y-95484439D01*
X140156591Y-95484075D01*
X140154004Y-95482196D01*
X140154398Y-95481652D01*
X140109283Y-95431796D01*
X140097670Y-95361756D01*
X140125766Y-95296555D01*
X140154130Y-95271978D01*
X140154004Y-95271804D01*
X140156030Y-95270331D01*
X140156920Y-95269561D01*
X140157997Y-95268899D01*
X140158009Y-95268894D01*
X140331004Y-95143206D01*
X140482206Y-94992004D01*
X140607894Y-94819009D01*
X140704972Y-94628483D01*
X140771049Y-94425116D01*
X140804500Y-94213916D01*
X140804500Y-94000084D01*
X140791957Y-93920894D01*
X140801056Y-93850488D01*
X140827308Y-93812095D01*
X143635809Y-91003594D01*
X143698119Y-90969570D01*
X143700255Y-90969125D01*
X143809331Y-90947430D01*
X143809334Y-90947428D01*
X143809337Y-90947428D01*
X143956463Y-90886485D01*
X143956462Y-90886485D01*
X143956468Y-90886483D01*
X144088889Y-90798003D01*
X144201503Y-90685389D01*
X144289983Y-90552968D01*
X144350930Y-90405831D01*
X144382000Y-90249630D01*
X144382000Y-90090370D01*
X144350930Y-89934169D01*
X144289983Y-89787032D01*
X144201503Y-89654611D01*
X144201501Y-89654609D01*
X144201496Y-89654603D01*
X144088896Y-89542003D01*
X144088890Y-89541998D01*
X144088889Y-89541997D01*
X143956468Y-89453517D01*
X143809331Y-89392570D01*
X143731230Y-89377035D01*
X143653132Y-89361500D01*
X143653130Y-89361500D01*
X143493870Y-89361500D01*
X143493867Y-89361500D01*
X143376719Y-89384802D01*
X143337669Y-89392570D01*
X143337667Y-89392571D01*
X143190532Y-89453517D01*
X143058109Y-89541998D01*
X143058103Y-89542003D01*
X142964095Y-89636012D01*
X142901783Y-89670038D01*
X142830968Y-89664973D01*
X142785905Y-89636012D01*
X142691896Y-89542003D01*
X142691890Y-89541998D01*
X142691889Y-89541997D01*
X142559468Y-89453517D01*
X142412331Y-89392570D01*
X142334230Y-89377035D01*
X142256132Y-89361500D01*
X142256130Y-89361500D01*
X142096870Y-89361500D01*
X142096867Y-89361500D01*
X141979719Y-89384802D01*
X141940669Y-89392570D01*
X141940667Y-89392571D01*
X141793532Y-89453517D01*
X141661109Y-89541998D01*
X141661103Y-89542003D01*
X141548503Y-89654603D01*
X141548498Y-89654609D01*
X141460017Y-89787032D01*
X141399070Y-89934169D01*
X141377386Y-90043179D01*
X141344478Y-90106089D01*
X141342902Y-90107692D01*
X140707039Y-90743555D01*
X140644727Y-90777581D01*
X140573912Y-90772516D01*
X140517076Y-90729969D01*
X140516008Y-90728521D01*
X140482206Y-90681996D01*
X140482203Y-90681993D01*
X140482201Y-90681990D01*
X140331009Y-90530798D01*
X140331006Y-90530796D01*
X140331004Y-90530794D01*
X140158009Y-90405106D01*
X140158007Y-90405105D01*
X140156920Y-90404439D01*
X140156591Y-90404075D01*
X140154004Y-90402196D01*
X140154398Y-90401652D01*
X140109283Y-90351796D01*
X140097670Y-90281756D01*
X140125766Y-90216555D01*
X140154130Y-90191978D01*
X140154004Y-90191804D01*
X140156030Y-90190331D01*
X140156920Y-90189561D01*
X140157997Y-90188899D01*
X140158009Y-90188894D01*
X140331004Y-90063206D01*
X140482206Y-89912004D01*
X140607894Y-89739009D01*
X140704972Y-89548483D01*
X140771049Y-89345116D01*
X140804500Y-89133916D01*
X140804500Y-88920084D01*
X140771049Y-88708884D01*
X140704972Y-88505517D01*
X140607894Y-88314991D01*
X140482206Y-88141996D01*
X140482203Y-88141993D01*
X140482201Y-88141990D01*
X140331009Y-87990798D01*
X140331006Y-87990796D01*
X140331004Y-87990794D01*
X140158009Y-87865106D01*
X140158007Y-87865105D01*
X140156920Y-87864439D01*
X140156591Y-87864075D01*
X140154004Y-87862196D01*
X140154398Y-87861652D01*
X140109283Y-87811796D01*
X140097670Y-87741756D01*
X140125766Y-87676555D01*
X140154130Y-87651978D01*
X140154004Y-87651804D01*
X140156030Y-87650331D01*
X140156920Y-87649561D01*
X140157997Y-87648899D01*
X140158009Y-87648894D01*
X140331004Y-87523206D01*
X140482206Y-87372004D01*
X140607894Y-87199009D01*
X140704972Y-87008483D01*
X140771049Y-86805116D01*
X140804500Y-86593916D01*
X140804500Y-86380084D01*
X140771049Y-86168884D01*
X140704972Y-85965517D01*
X140607894Y-85774991D01*
X140482206Y-85601996D01*
X140482203Y-85601993D01*
X140482201Y-85601990D01*
X140331009Y-85450798D01*
X140331006Y-85450796D01*
X140331004Y-85450794D01*
X140158009Y-85325106D01*
X140158007Y-85325105D01*
X140156920Y-85324439D01*
X140156591Y-85324075D01*
X140154004Y-85322196D01*
X140154398Y-85321652D01*
X140109283Y-85271796D01*
X140097670Y-85201756D01*
X140125766Y-85136555D01*
X140154130Y-85111978D01*
X140154004Y-85111804D01*
X140156030Y-85110331D01*
X140156920Y-85109561D01*
X140157997Y-85108899D01*
X140158009Y-85108894D01*
X140331004Y-84983206D01*
X140482206Y-84832004D01*
X140607894Y-84659009D01*
X140704972Y-84468483D01*
X140771049Y-84265116D01*
X140804500Y-84053916D01*
X140804500Y-83840084D01*
X140771049Y-83628884D01*
X140704972Y-83425517D01*
X140607894Y-83234991D01*
X140482206Y-83061996D01*
X140482203Y-83061993D01*
X140482201Y-83061990D01*
X140331009Y-82910798D01*
X140331006Y-82910796D01*
X140331004Y-82910794D01*
X140158009Y-82785106D01*
X140158007Y-82785105D01*
X140156920Y-82784439D01*
X140156591Y-82784075D01*
X140154004Y-82782196D01*
X140154398Y-82781652D01*
X140109283Y-82731796D01*
X140097670Y-82661756D01*
X140125766Y-82596555D01*
X140154130Y-82571978D01*
X140154004Y-82571804D01*
X140156030Y-82570331D01*
X140156920Y-82569561D01*
X140157997Y-82568899D01*
X140158009Y-82568894D01*
X140331004Y-82443206D01*
X140482206Y-82292004D01*
X140607894Y-82119009D01*
X140704972Y-81928483D01*
X140771049Y-81725116D01*
X140804500Y-81513916D01*
X140804500Y-81300084D01*
X140771049Y-81088884D01*
X140704972Y-80885517D01*
X140607894Y-80694991D01*
X140482206Y-80521996D01*
X140482203Y-80521993D01*
X140482201Y-80521990D01*
X140378840Y-80418629D01*
X140344814Y-80356317D01*
X140349879Y-80285502D01*
X140392426Y-80228666D01*
X140423903Y-80211478D01*
X140541965Y-80167444D01*
X140658904Y-80079904D01*
X140746444Y-79962965D01*
X140746444Y-79962964D01*
X140797494Y-79826093D01*
X140803999Y-79765597D01*
X140804000Y-79765585D01*
X140804000Y-79121000D01*
X139876703Y-79121000D01*
X139911925Y-79059993D01*
X139946000Y-78932826D01*
X139946000Y-78801174D01*
X139911925Y-78674007D01*
X139876703Y-78613000D01*
X140804000Y-78613000D01*
X140804000Y-77968410D01*
X140803999Y-77968406D01*
X140803993Y-77968350D01*
X153327500Y-77968350D01*
X153327500Y-79765649D01*
X153334009Y-79826196D01*
X153334011Y-79826204D01*
X153385110Y-79963202D01*
X153385112Y-79963207D01*
X153472738Y-80080261D01*
X153589791Y-80167886D01*
X153589792Y-80167886D01*
X153589796Y-80167889D01*
X153707711Y-80211869D01*
X153764543Y-80254414D01*
X153789354Y-80320934D01*
X153774263Y-80390308D01*
X153752771Y-80419018D01*
X153649794Y-80521995D01*
X153524108Y-80694987D01*
X153427029Y-80885515D01*
X153427026Y-80885521D01*
X153360952Y-81088878D01*
X153360951Y-81088883D01*
X153360951Y-81088884D01*
X153327500Y-81300084D01*
X153327500Y-81513916D01*
X153360951Y-81725116D01*
X153360952Y-81725121D01*
X153427026Y-81928478D01*
X153427028Y-81928483D01*
X153524106Y-82119009D01*
X153649794Y-82292004D01*
X153649796Y-82292006D01*
X153649798Y-82292009D01*
X153800990Y-82443201D01*
X153800993Y-82443203D01*
X153800996Y-82443206D01*
X153973991Y-82568894D01*
X153973996Y-82568896D01*
X153975088Y-82569566D01*
X153975418Y-82569931D01*
X153977996Y-82571804D01*
X153977602Y-82572345D01*
X154022721Y-82622213D01*
X154034328Y-82692255D01*
X154006226Y-82757453D01*
X153977870Y-82782023D01*
X153977996Y-82782196D01*
X153975982Y-82783658D01*
X153975088Y-82784434D01*
X153973987Y-82785108D01*
X153800993Y-82910796D01*
X153800990Y-82910798D01*
X153649798Y-83061990D01*
X153649796Y-83061993D01*
X153524108Y-83234987D01*
X153427029Y-83425515D01*
X153427026Y-83425521D01*
X153360952Y-83628878D01*
X153360951Y-83628883D01*
X153360951Y-83628884D01*
X153327500Y-83840084D01*
X153327500Y-84053916D01*
X153360951Y-84265116D01*
X153360952Y-84265121D01*
X153427026Y-84468478D01*
X153427028Y-84468483D01*
X153524106Y-84659009D01*
X153649794Y-84832004D01*
X153649796Y-84832006D01*
X153649798Y-84832009D01*
X153800990Y-84983201D01*
X153800993Y-84983203D01*
X153800996Y-84983206D01*
X153973991Y-85108894D01*
X153973996Y-85108896D01*
X153975088Y-85109566D01*
X153975418Y-85109931D01*
X153977996Y-85111804D01*
X153977602Y-85112345D01*
X154022721Y-85162213D01*
X154034328Y-85232255D01*
X154006226Y-85297453D01*
X153977870Y-85322023D01*
X153977996Y-85322196D01*
X153975982Y-85323658D01*
X153975088Y-85324434D01*
X153973987Y-85325108D01*
X153800993Y-85450796D01*
X153800990Y-85450798D01*
X153649798Y-85601990D01*
X153649796Y-85601993D01*
X153524108Y-85774987D01*
X153427029Y-85965515D01*
X153427026Y-85965521D01*
X153360952Y-86168878D01*
X153360951Y-86168883D01*
X153360951Y-86168884D01*
X153327500Y-86380084D01*
X153327500Y-86593916D01*
X153360951Y-86805116D01*
X153360952Y-86805121D01*
X153427026Y-87008478D01*
X153427028Y-87008483D01*
X153524106Y-87199009D01*
X153649794Y-87372004D01*
X153649796Y-87372006D01*
X153649798Y-87372009D01*
X153800990Y-87523201D01*
X153800993Y-87523203D01*
X153800996Y-87523206D01*
X153973991Y-87648894D01*
X153973996Y-87648896D01*
X153975088Y-87649566D01*
X153975418Y-87649931D01*
X153977996Y-87651804D01*
X153977602Y-87652345D01*
X154022721Y-87702213D01*
X154034328Y-87772255D01*
X154006226Y-87837453D01*
X153977870Y-87862023D01*
X153977996Y-87862196D01*
X153975982Y-87863658D01*
X153975088Y-87864434D01*
X153973987Y-87865108D01*
X153800993Y-87990796D01*
X153800990Y-87990798D01*
X153649798Y-88141990D01*
X153649796Y-88141993D01*
X153524108Y-88314987D01*
X153427029Y-88505515D01*
X153427026Y-88505521D01*
X153360952Y-88708878D01*
X153360951Y-88708883D01*
X153360951Y-88708884D01*
X153327500Y-88920084D01*
X153327500Y-89133916D01*
X153360951Y-89345116D01*
X153360952Y-89345121D01*
X153427026Y-89548478D01*
X153427028Y-89548483D01*
X153524106Y-89739009D01*
X153524108Y-89739012D01*
X153555182Y-89781781D01*
X153649794Y-89912004D01*
X153649796Y-89912006D01*
X153649798Y-89912009D01*
X153800990Y-90063201D01*
X153800993Y-90063203D01*
X153800996Y-90063206D01*
X153973991Y-90188894D01*
X153973996Y-90188896D01*
X153975088Y-90189566D01*
X153975418Y-90189931D01*
X153977996Y-90191804D01*
X153977602Y-90192345D01*
X154022721Y-90242213D01*
X154034328Y-90312255D01*
X154006226Y-90377453D01*
X153977870Y-90402023D01*
X153977996Y-90402196D01*
X153975982Y-90403658D01*
X153975088Y-90404434D01*
X153973987Y-90405108D01*
X153800993Y-90530796D01*
X153800990Y-90530798D01*
X153649798Y-90681990D01*
X153649796Y-90681993D01*
X153524108Y-90854987D01*
X153427029Y-91045515D01*
X153427026Y-91045521D01*
X153360952Y-91248878D01*
X153360951Y-91248883D01*
X153360951Y-91248884D01*
X153327500Y-91460084D01*
X153327500Y-91673916D01*
X153360951Y-91885116D01*
X153360952Y-91885121D01*
X153427026Y-92088478D01*
X153427028Y-92088483D01*
X153524106Y-92279009D01*
X153649794Y-92452004D01*
X153649796Y-92452006D01*
X153649798Y-92452009D01*
X153800990Y-92603201D01*
X153800993Y-92603203D01*
X153800996Y-92603206D01*
X153973991Y-92728894D01*
X153973996Y-92728896D01*
X153975088Y-92729566D01*
X153975418Y-92729931D01*
X153977996Y-92731804D01*
X153977602Y-92732345D01*
X154022721Y-92782213D01*
X154034328Y-92852255D01*
X154006226Y-92917453D01*
X153977870Y-92942023D01*
X153977996Y-92942196D01*
X153975982Y-92943658D01*
X153975088Y-92944434D01*
X153973987Y-92945108D01*
X153800993Y-93070796D01*
X153800990Y-93070798D01*
X153649798Y-93221990D01*
X153649796Y-93221993D01*
X153524108Y-93394987D01*
X153427029Y-93585515D01*
X153427026Y-93585521D01*
X153360952Y-93788878D01*
X153360951Y-93788883D01*
X153360951Y-93788884D01*
X153327500Y-94000084D01*
X153327500Y-94213916D01*
X153360951Y-94425116D01*
X153360952Y-94425121D01*
X153427026Y-94628478D01*
X153427028Y-94628483D01*
X153524106Y-94819009D01*
X153649794Y-94992004D01*
X153649796Y-94992006D01*
X153649798Y-94992009D01*
X153800990Y-95143201D01*
X153800993Y-95143203D01*
X153800996Y-95143206D01*
X153973991Y-95268894D01*
X153973996Y-95268896D01*
X153975088Y-95269566D01*
X153975418Y-95269931D01*
X153977996Y-95271804D01*
X153977602Y-95272345D01*
X154022721Y-95322213D01*
X154034328Y-95392255D01*
X154006226Y-95457453D01*
X153977870Y-95482023D01*
X153977996Y-95482196D01*
X153975982Y-95483658D01*
X153975088Y-95484434D01*
X153973987Y-95485108D01*
X153800993Y-95610796D01*
X153800990Y-95610798D01*
X153649798Y-95761990D01*
X153649796Y-95761993D01*
X153524108Y-95934987D01*
X153427029Y-96125515D01*
X153427026Y-96125521D01*
X153360952Y-96328878D01*
X153360951Y-96328883D01*
X153360951Y-96328884D01*
X153327500Y-96540084D01*
X153327500Y-96753916D01*
X153360951Y-96965116D01*
X153360952Y-96965121D01*
X153427026Y-97168478D01*
X153427028Y-97168483D01*
X153524106Y-97359009D01*
X153649794Y-97532004D01*
X153649796Y-97532006D01*
X153649798Y-97532009D01*
X153800990Y-97683201D01*
X153800993Y-97683203D01*
X153800996Y-97683206D01*
X153973991Y-97808894D01*
X153973996Y-97808896D01*
X153975088Y-97809566D01*
X153975418Y-97809931D01*
X153977996Y-97811804D01*
X153977602Y-97812345D01*
X154022721Y-97862213D01*
X154034328Y-97932255D01*
X154006226Y-97997453D01*
X153977870Y-98022023D01*
X153977996Y-98022196D01*
X153975982Y-98023658D01*
X153975088Y-98024434D01*
X153973987Y-98025108D01*
X153800993Y-98150796D01*
X153800990Y-98150798D01*
X153649798Y-98301990D01*
X153649796Y-98301993D01*
X153524108Y-98474987D01*
X153427029Y-98665515D01*
X153427026Y-98665521D01*
X153360952Y-98868878D01*
X153360951Y-98868883D01*
X153360951Y-98868884D01*
X153327500Y-99080084D01*
X153327500Y-99293916D01*
X153360951Y-99505116D01*
X153360952Y-99505121D01*
X153427026Y-99708478D01*
X153427028Y-99708483D01*
X153524106Y-99899009D01*
X153649794Y-100072004D01*
X153649796Y-100072006D01*
X153649798Y-100072009D01*
X153800990Y-100223201D01*
X153800993Y-100223203D01*
X153800996Y-100223206D01*
X153973991Y-100348894D01*
X153973996Y-100348896D01*
X153975088Y-100349566D01*
X153975418Y-100349931D01*
X153977996Y-100351804D01*
X153977602Y-100352345D01*
X154022721Y-100402213D01*
X154034328Y-100472255D01*
X154006226Y-100537453D01*
X153977870Y-100562023D01*
X153977996Y-100562196D01*
X153975982Y-100563658D01*
X153975088Y-100564434D01*
X153973987Y-100565108D01*
X153800993Y-100690796D01*
X153800990Y-100690798D01*
X153649798Y-100841990D01*
X153649796Y-100841993D01*
X153524108Y-101014987D01*
X153427029Y-101205515D01*
X153427026Y-101205521D01*
X153360952Y-101408878D01*
X153360951Y-101408883D01*
X153360951Y-101408884D01*
X153327500Y-101620084D01*
X153327500Y-101833916D01*
X153360951Y-102045116D01*
X153360952Y-102045121D01*
X153427026Y-102248478D01*
X153427028Y-102248483D01*
X153524106Y-102439009D01*
X153649794Y-102612004D01*
X153649796Y-102612006D01*
X153649798Y-102612009D01*
X153800990Y-102763201D01*
X153800993Y-102763203D01*
X153800996Y-102763206D01*
X153973991Y-102888894D01*
X153973996Y-102888896D01*
X153975088Y-102889566D01*
X153975418Y-102889931D01*
X153977996Y-102891804D01*
X153977602Y-102892345D01*
X154022721Y-102942213D01*
X154034328Y-103012255D01*
X154006226Y-103077453D01*
X153977870Y-103102023D01*
X153977996Y-103102196D01*
X153975982Y-103103658D01*
X153975088Y-103104434D01*
X153973987Y-103105108D01*
X153800993Y-103230796D01*
X153800990Y-103230798D01*
X153649798Y-103381990D01*
X153649796Y-103381993D01*
X153524108Y-103554987D01*
X153427029Y-103745515D01*
X153427026Y-103745521D01*
X153360952Y-103948878D01*
X153360951Y-103948883D01*
X153360951Y-103948884D01*
X153327500Y-104160084D01*
X153327500Y-104373916D01*
X153360951Y-104585116D01*
X153360952Y-104585121D01*
X153427026Y-104788478D01*
X153427028Y-104788483D01*
X153524106Y-104979009D01*
X153649794Y-105152004D01*
X153649796Y-105152006D01*
X153649798Y-105152009D01*
X153800990Y-105303201D01*
X153800993Y-105303203D01*
X153800996Y-105303206D01*
X153973991Y-105428894D01*
X153973996Y-105428896D01*
X153975088Y-105429566D01*
X153975418Y-105429931D01*
X153977996Y-105431804D01*
X153977602Y-105432345D01*
X154022721Y-105482213D01*
X154034328Y-105552255D01*
X154006226Y-105617453D01*
X153977870Y-105642023D01*
X153977996Y-105642196D01*
X153975982Y-105643658D01*
X153975088Y-105644434D01*
X153973987Y-105645108D01*
X153800993Y-105770796D01*
X153800990Y-105770798D01*
X153649798Y-105921990D01*
X153649796Y-105921993D01*
X153524108Y-106094987D01*
X153427029Y-106285515D01*
X153427026Y-106285521D01*
X153360952Y-106488878D01*
X153360951Y-106488883D01*
X153360951Y-106488884D01*
X153327500Y-106700084D01*
X153327500Y-106913916D01*
X153360951Y-107125116D01*
X153360952Y-107125121D01*
X153427026Y-107328478D01*
X153427028Y-107328483D01*
X153524106Y-107519009D01*
X153649794Y-107692004D01*
X153649796Y-107692006D01*
X153649798Y-107692009D01*
X153800990Y-107843201D01*
X153800993Y-107843203D01*
X153800996Y-107843206D01*
X153973991Y-107968894D01*
X154164517Y-108065972D01*
X154367878Y-108132047D01*
X154367879Y-108132047D01*
X154367884Y-108132049D01*
X154579084Y-108165500D01*
X154579087Y-108165500D01*
X154792913Y-108165500D01*
X154792916Y-108165500D01*
X155004116Y-108132049D01*
X155207483Y-108065972D01*
X155398009Y-107968894D01*
X155571004Y-107843206D01*
X155722206Y-107692004D01*
X155847894Y-107519009D01*
X155944972Y-107328483D01*
X156011049Y-107125116D01*
X156044500Y-106913916D01*
X156044500Y-106700084D01*
X156011049Y-106488884D01*
X155944972Y-106285517D01*
X155847894Y-106094991D01*
X155722206Y-105921996D01*
X155722203Y-105921993D01*
X155722201Y-105921990D01*
X155571009Y-105770798D01*
X155571006Y-105770796D01*
X155571004Y-105770794D01*
X155398009Y-105645106D01*
X155398007Y-105645105D01*
X155396920Y-105644439D01*
X155396591Y-105644075D01*
X155394004Y-105642196D01*
X155394398Y-105641652D01*
X155349283Y-105591796D01*
X155337670Y-105521756D01*
X155365766Y-105456555D01*
X155394130Y-105431978D01*
X155394004Y-105431804D01*
X155396030Y-105430331D01*
X155396920Y-105429561D01*
X155397997Y-105428899D01*
X155398009Y-105428894D01*
X155571004Y-105303206D01*
X155722206Y-105152004D01*
X155847894Y-104979009D01*
X155944972Y-104788483D01*
X156011049Y-104585116D01*
X156044500Y-104373916D01*
X156044500Y-104160084D01*
X156011049Y-103948884D01*
X155944972Y-103745517D01*
X155847894Y-103554991D01*
X155722206Y-103381996D01*
X155722203Y-103381993D01*
X155722201Y-103381990D01*
X155571009Y-103230798D01*
X155571006Y-103230796D01*
X155571004Y-103230794D01*
X155398009Y-103105106D01*
X155398007Y-103105105D01*
X155396920Y-103104439D01*
X155396591Y-103104075D01*
X155394004Y-103102196D01*
X155394398Y-103101652D01*
X155349283Y-103051796D01*
X155337670Y-102981756D01*
X155365766Y-102916555D01*
X155394130Y-102891978D01*
X155394004Y-102891804D01*
X155396030Y-102890331D01*
X155396920Y-102889561D01*
X155397997Y-102888899D01*
X155398009Y-102888894D01*
X155571004Y-102763206D01*
X155722206Y-102612004D01*
X155847894Y-102439009D01*
X155944972Y-102248483D01*
X156011049Y-102045116D01*
X156044500Y-101833916D01*
X156044500Y-101620084D01*
X156011049Y-101408884D01*
X155944972Y-101205517D01*
X155847894Y-101014991D01*
X155722206Y-100841996D01*
X155722203Y-100841993D01*
X155722201Y-100841990D01*
X155571009Y-100690798D01*
X155571006Y-100690796D01*
X155571004Y-100690794D01*
X155398009Y-100565106D01*
X155398007Y-100565105D01*
X155396920Y-100564439D01*
X155396591Y-100564075D01*
X155394004Y-100562196D01*
X155394398Y-100561652D01*
X155349283Y-100511796D01*
X155337670Y-100441756D01*
X155365766Y-100376555D01*
X155394130Y-100351978D01*
X155394004Y-100351804D01*
X155396030Y-100350331D01*
X155396920Y-100349561D01*
X155397997Y-100348899D01*
X155398009Y-100348894D01*
X155571004Y-100223206D01*
X155722206Y-100072004D01*
X155847894Y-99899009D01*
X155944972Y-99708483D01*
X156011049Y-99505116D01*
X156044500Y-99293916D01*
X156044500Y-99080084D01*
X156011049Y-98868884D01*
X155944972Y-98665517D01*
X155847894Y-98474991D01*
X155722206Y-98301996D01*
X155722203Y-98301993D01*
X155722201Y-98301990D01*
X155571009Y-98150798D01*
X155571006Y-98150796D01*
X155571004Y-98150794D01*
X155398009Y-98025106D01*
X155398007Y-98025105D01*
X155396920Y-98024439D01*
X155396591Y-98024075D01*
X155394004Y-98022196D01*
X155394398Y-98021652D01*
X155349283Y-97971796D01*
X155337670Y-97901756D01*
X155365766Y-97836555D01*
X155394130Y-97811978D01*
X155394004Y-97811804D01*
X155396030Y-97810331D01*
X155396920Y-97809561D01*
X155397997Y-97808899D01*
X155398009Y-97808894D01*
X155571004Y-97683206D01*
X155722206Y-97532004D01*
X155847894Y-97359009D01*
X155944972Y-97168483D01*
X156011049Y-96965116D01*
X156044500Y-96753916D01*
X156044500Y-96540084D01*
X156011049Y-96328884D01*
X155944972Y-96125517D01*
X155847894Y-95934991D01*
X155722206Y-95761996D01*
X155722203Y-95761993D01*
X155722201Y-95761990D01*
X155571009Y-95610798D01*
X155571006Y-95610796D01*
X155571004Y-95610794D01*
X155398009Y-95485106D01*
X155398007Y-95485105D01*
X155396920Y-95484439D01*
X155396591Y-95484075D01*
X155394004Y-95482196D01*
X155394398Y-95481652D01*
X155349283Y-95431796D01*
X155337670Y-95361756D01*
X155365766Y-95296555D01*
X155394130Y-95271978D01*
X155394004Y-95271804D01*
X155396030Y-95270331D01*
X155396920Y-95269561D01*
X155397997Y-95268899D01*
X155398009Y-95268894D01*
X155571004Y-95143206D01*
X155722206Y-94992004D01*
X155847894Y-94819009D01*
X155944972Y-94628483D01*
X156011049Y-94425116D01*
X156044500Y-94213916D01*
X156044500Y-94000084D01*
X156011049Y-93788884D01*
X155944972Y-93585517D01*
X155847894Y-93394991D01*
X155722206Y-93221996D01*
X155722203Y-93221993D01*
X155722201Y-93221990D01*
X155571009Y-93070798D01*
X155571006Y-93070796D01*
X155571004Y-93070794D01*
X155398009Y-92945106D01*
X155398007Y-92945105D01*
X155396920Y-92944439D01*
X155396591Y-92944075D01*
X155394004Y-92942196D01*
X155394398Y-92941652D01*
X155349283Y-92891796D01*
X155337670Y-92821756D01*
X155365766Y-92756555D01*
X155394130Y-92731978D01*
X155394004Y-92731804D01*
X155396030Y-92730331D01*
X155396920Y-92729561D01*
X155397997Y-92728899D01*
X155398009Y-92728894D01*
X155571004Y-92603206D01*
X155722206Y-92452004D01*
X155847894Y-92279009D01*
X155944972Y-92088483D01*
X156011049Y-91885116D01*
X156044500Y-91673916D01*
X156044500Y-91460084D01*
X156011049Y-91248884D01*
X155944972Y-91045517D01*
X155847894Y-90854991D01*
X155722206Y-90681996D01*
X155722203Y-90681993D01*
X155722201Y-90681990D01*
X155571009Y-90530798D01*
X155571006Y-90530796D01*
X155571004Y-90530794D01*
X155398009Y-90405106D01*
X155398007Y-90405105D01*
X155396920Y-90404439D01*
X155396591Y-90404075D01*
X155394004Y-90402196D01*
X155394398Y-90401652D01*
X155349283Y-90351796D01*
X155337670Y-90281756D01*
X155365766Y-90216555D01*
X155394130Y-90191978D01*
X155394004Y-90191804D01*
X155396030Y-90190331D01*
X155396920Y-90189561D01*
X155397997Y-90188899D01*
X155398009Y-90188894D01*
X155571004Y-90063206D01*
X155722206Y-89912004D01*
X155847894Y-89739009D01*
X155944972Y-89548483D01*
X156011049Y-89345116D01*
X156044500Y-89133916D01*
X156044500Y-88920084D01*
X156011049Y-88708884D01*
X155944972Y-88505517D01*
X155847894Y-88314991D01*
X155722206Y-88141996D01*
X155722203Y-88141993D01*
X155722201Y-88141990D01*
X155571009Y-87990798D01*
X155571006Y-87990796D01*
X155571004Y-87990794D01*
X155398009Y-87865106D01*
X155398007Y-87865105D01*
X155396920Y-87864439D01*
X155396591Y-87864075D01*
X155394004Y-87862196D01*
X155394398Y-87861652D01*
X155349283Y-87811796D01*
X155337670Y-87741756D01*
X155365766Y-87676555D01*
X155394130Y-87651978D01*
X155394004Y-87651804D01*
X155396030Y-87650331D01*
X155396920Y-87649561D01*
X155397997Y-87648899D01*
X155398009Y-87648894D01*
X155571004Y-87523206D01*
X155722206Y-87372004D01*
X155847894Y-87199009D01*
X155944972Y-87008483D01*
X156011049Y-86805116D01*
X156044500Y-86593916D01*
X156044500Y-86380084D01*
X156011049Y-86168884D01*
X155944972Y-85965517D01*
X155847894Y-85774991D01*
X155722206Y-85601996D01*
X155722203Y-85601993D01*
X155722201Y-85601990D01*
X155571009Y-85450798D01*
X155571006Y-85450796D01*
X155571004Y-85450794D01*
X155398009Y-85325106D01*
X155398007Y-85325105D01*
X155396920Y-85324439D01*
X155396591Y-85324075D01*
X155394004Y-85322196D01*
X155394398Y-85321652D01*
X155349283Y-85271796D01*
X155337670Y-85201756D01*
X155365766Y-85136555D01*
X155394130Y-85111978D01*
X155394004Y-85111804D01*
X155396030Y-85110331D01*
X155396920Y-85109561D01*
X155397997Y-85108899D01*
X155398009Y-85108894D01*
X155571004Y-84983206D01*
X155722206Y-84832004D01*
X155847894Y-84659009D01*
X155944972Y-84468483D01*
X156011049Y-84265116D01*
X156044500Y-84053916D01*
X156044500Y-83840084D01*
X156011049Y-83628884D01*
X155944972Y-83425517D01*
X155847894Y-83234991D01*
X155722206Y-83061996D01*
X155722203Y-83061993D01*
X155722201Y-83061990D01*
X155571009Y-82910798D01*
X155571006Y-82910796D01*
X155571004Y-82910794D01*
X155398009Y-82785106D01*
X155398007Y-82785105D01*
X155396920Y-82784439D01*
X155396591Y-82784075D01*
X155394004Y-82782196D01*
X155394398Y-82781652D01*
X155349283Y-82731796D01*
X155337670Y-82661756D01*
X155365766Y-82596555D01*
X155394130Y-82571978D01*
X155394004Y-82571804D01*
X155396030Y-82570331D01*
X155396920Y-82569561D01*
X155397997Y-82568899D01*
X155398009Y-82568894D01*
X155571004Y-82443206D01*
X155722206Y-82292004D01*
X155847894Y-82119009D01*
X155944972Y-81928483D01*
X156011049Y-81725116D01*
X156044500Y-81513916D01*
X156044500Y-81300084D01*
X156011049Y-81088884D01*
X155944972Y-80885517D01*
X155847894Y-80694991D01*
X155722206Y-80521996D01*
X155722203Y-80521993D01*
X155722201Y-80521990D01*
X155619229Y-80419018D01*
X155585203Y-80356706D01*
X155590268Y-80285891D01*
X155632815Y-80229055D01*
X155664284Y-80211871D01*
X155782204Y-80167889D01*
X155782799Y-80167444D01*
X155899261Y-80080261D01*
X155986887Y-79963207D01*
X155986887Y-79963206D01*
X155986889Y-79963204D01*
X156037989Y-79826201D01*
X156044500Y-79765638D01*
X156044500Y-77968362D01*
X156038001Y-77907906D01*
X156037990Y-77907803D01*
X156037988Y-77907795D01*
X155986978Y-77771035D01*
X155986889Y-77770796D01*
X155986888Y-77770794D01*
X155986887Y-77770792D01*
X155899261Y-77653738D01*
X155782207Y-77566112D01*
X155782202Y-77566110D01*
X155645204Y-77515011D01*
X155645196Y-77515009D01*
X155584649Y-77508500D01*
X155584638Y-77508500D01*
X153787362Y-77508500D01*
X153787350Y-77508500D01*
X153726803Y-77515009D01*
X153726795Y-77515011D01*
X153589797Y-77566110D01*
X153589792Y-77566112D01*
X153472738Y-77653738D01*
X153385112Y-77770792D01*
X153385110Y-77770797D01*
X153334011Y-77907795D01*
X153334009Y-77907803D01*
X153327500Y-77968350D01*
X140803993Y-77968350D01*
X140797494Y-77907906D01*
X140746444Y-77771035D01*
X140746444Y-77771034D01*
X140658904Y-77654095D01*
X140541965Y-77566555D01*
X140405093Y-77515505D01*
X140344597Y-77509000D01*
X139700000Y-77509000D01*
X139700000Y-78436297D01*
X139638993Y-78401075D01*
X139511826Y-78367000D01*
X139380174Y-78367000D01*
X139253007Y-78401075D01*
X139192000Y-78436297D01*
X139192000Y-77509000D01*
X138547402Y-77509000D01*
X138486906Y-77515505D01*
X138350035Y-77566555D01*
X138350034Y-77566555D01*
X138233095Y-77654095D01*
X138145555Y-77771034D01*
X138145555Y-77771035D01*
X138094505Y-77907906D01*
X138088000Y-77968402D01*
X138088000Y-78613000D01*
X139015297Y-78613000D01*
X138980075Y-78674007D01*
X138946000Y-78801174D01*
X138946000Y-78932826D01*
X138980075Y-79059993D01*
X139015297Y-79121000D01*
X138088000Y-79121000D01*
X138088000Y-79765597D01*
X138094505Y-79826093D01*
X138145555Y-79962964D01*
X138145555Y-79962965D01*
X138233095Y-80079904D01*
X138350034Y-80167444D01*
X138468096Y-80211478D01*
X138524932Y-80254024D01*
X138549743Y-80320545D01*
X138534652Y-80389919D01*
X138513160Y-80418629D01*
X138409794Y-80521995D01*
X138284108Y-80694987D01*
X138187029Y-80885515D01*
X138187026Y-80885521D01*
X138120952Y-81088878D01*
X138120951Y-81088883D01*
X138120951Y-81088884D01*
X138087500Y-81300084D01*
X135686500Y-81300084D01*
X135686500Y-62660500D01*
X135706502Y-62592379D01*
X135760158Y-62545886D01*
X135812500Y-62534500D01*
X158319500Y-62534500D01*
X158387621Y-62554502D01*
G37*
%TD.AperFunction*%
%TD*%
M02*
