%TF.GenerationSoftware,KiCad,Pcbnew,9.0.8-9.0.8~ubuntu22.04.1*%
%TF.CreationDate,2026-05-29T22:11:33+05:30*%
%TF.ProjectId,RP2040-Guide,52503230-3430-42d4-9775-6964652e6b69,rev?*%
%TF.SameCoordinates,Original*%
%TF.FileFunction,Legend,Bot*%
%TF.FilePolarity,Positive*%
%FSLAX46Y46*%
G04 Gerber Fmt 4.6, Leading zero omitted, Abs format (unit mm)*
G04 Created by KiCad (PCBNEW 9.0.8-9.0.8~ubuntu22.04.1) date 2026-05-29 22:11:33*
%MOMM*%
%LPD*%
G01*
G04 APERTURE LIST*
%ADD10C,0.500000*%
%ADD11C,0.300000*%
%ADD12C,0.150000*%
%ADD13C,0.000000*%
%ADD14C,0.120000*%
G04 APERTURE END LIST*
D10*
X180029238Y-54605137D02*
X178029238Y-54605137D01*
X180029238Y-55557518D02*
X178029238Y-55557518D01*
X178029238Y-55557518D02*
X180029238Y-56700375D01*
X180029238Y-56700375D02*
X178029238Y-56700375D01*
X180029238Y-57652756D02*
X178029238Y-57652756D01*
X178029238Y-57652756D02*
X180029238Y-58795613D01*
X180029238Y-58795613D02*
X178029238Y-58795613D01*
X178981619Y-59747994D02*
X178981619Y-60414661D01*
X180029238Y-60700375D02*
X180029238Y-59747994D01*
X180029238Y-59747994D02*
X178029238Y-59747994D01*
X178029238Y-59747994D02*
X178029238Y-60700375D01*
X178029238Y-61271804D02*
X180029238Y-61938470D01*
X180029238Y-61938470D02*
X178029238Y-62605137D01*
X180029238Y-63271804D02*
X178029238Y-63271804D01*
X178029238Y-63938471D02*
X178029238Y-65081328D01*
X180029238Y-64509899D02*
X178029238Y-64509899D01*
X179457809Y-65652757D02*
X179457809Y-66605138D01*
X180029238Y-65462281D02*
X178029238Y-66128947D01*
X178029238Y-66128947D02*
X180029238Y-66795614D01*
X178981619Y-68128948D02*
X179076857Y-68414662D01*
X179076857Y-68414662D02*
X179172095Y-68509900D01*
X179172095Y-68509900D02*
X179362571Y-68605138D01*
X179362571Y-68605138D02*
X179648285Y-68605138D01*
X179648285Y-68605138D02*
X179838761Y-68509900D01*
X179838761Y-68509900D02*
X179934000Y-68414662D01*
X179934000Y-68414662D02*
X180029238Y-68224186D01*
X180029238Y-68224186D02*
X180029238Y-67462281D01*
X180029238Y-67462281D02*
X178029238Y-67462281D01*
X178029238Y-67462281D02*
X178029238Y-68128948D01*
X178029238Y-68128948D02*
X178124476Y-68319424D01*
X178124476Y-68319424D02*
X178219714Y-68414662D01*
X178219714Y-68414662D02*
X178410190Y-68509900D01*
X178410190Y-68509900D02*
X178600666Y-68509900D01*
X178600666Y-68509900D02*
X178791142Y-68414662D01*
X178791142Y-68414662D02*
X178886380Y-68319424D01*
X178886380Y-68319424D02*
X178981619Y-68128948D01*
X178981619Y-68128948D02*
X178981619Y-67462281D01*
X180029238Y-70414662D02*
X180029238Y-69462281D01*
X180029238Y-69462281D02*
X178029238Y-69462281D01*
X178981619Y-71081329D02*
X178981619Y-71747996D01*
X180029238Y-72033710D02*
X180029238Y-71081329D01*
X180029238Y-71081329D02*
X178029238Y-71081329D01*
X178029238Y-71081329D02*
X178029238Y-72033710D01*
X180029238Y-74414663D02*
X178029238Y-74414663D01*
X178029238Y-74414663D02*
X178029238Y-74890853D01*
X178029238Y-74890853D02*
X178124476Y-75176568D01*
X178124476Y-75176568D02*
X178314952Y-75367044D01*
X178314952Y-75367044D02*
X178505428Y-75462282D01*
X178505428Y-75462282D02*
X178886380Y-75557520D01*
X178886380Y-75557520D02*
X179172095Y-75557520D01*
X179172095Y-75557520D02*
X179553047Y-75462282D01*
X179553047Y-75462282D02*
X179743523Y-75367044D01*
X179743523Y-75367044D02*
X179934000Y-75176568D01*
X179934000Y-75176568D02*
X180029238Y-74890853D01*
X180029238Y-74890853D02*
X180029238Y-74414663D01*
X178981619Y-76414663D02*
X178981619Y-77081330D01*
X180029238Y-77367044D02*
X180029238Y-76414663D01*
X180029238Y-76414663D02*
X178029238Y-76414663D01*
X178029238Y-76414663D02*
X178029238Y-77367044D01*
X179934000Y-78128949D02*
X180029238Y-78414663D01*
X180029238Y-78414663D02*
X180029238Y-78890854D01*
X180029238Y-78890854D02*
X179934000Y-79081330D01*
X179934000Y-79081330D02*
X179838761Y-79176568D01*
X179838761Y-79176568D02*
X179648285Y-79271806D01*
X179648285Y-79271806D02*
X179457809Y-79271806D01*
X179457809Y-79271806D02*
X179267333Y-79176568D01*
X179267333Y-79176568D02*
X179172095Y-79081330D01*
X179172095Y-79081330D02*
X179076857Y-78890854D01*
X179076857Y-78890854D02*
X178981619Y-78509901D01*
X178981619Y-78509901D02*
X178886380Y-78319425D01*
X178886380Y-78319425D02*
X178791142Y-78224187D01*
X178791142Y-78224187D02*
X178600666Y-78128949D01*
X178600666Y-78128949D02*
X178410190Y-78128949D01*
X178410190Y-78128949D02*
X178219714Y-78224187D01*
X178219714Y-78224187D02*
X178124476Y-78319425D01*
X178124476Y-78319425D02*
X178029238Y-78509901D01*
X178029238Y-78509901D02*
X178029238Y-78986092D01*
X178029238Y-78986092D02*
X178124476Y-79271806D01*
X180029238Y-80128949D02*
X178029238Y-80128949D01*
X178124476Y-82128949D02*
X178029238Y-81938473D01*
X178029238Y-81938473D02*
X178029238Y-81652759D01*
X178029238Y-81652759D02*
X178124476Y-81367044D01*
X178124476Y-81367044D02*
X178314952Y-81176568D01*
X178314952Y-81176568D02*
X178505428Y-81081330D01*
X178505428Y-81081330D02*
X178886380Y-80986092D01*
X178886380Y-80986092D02*
X179172095Y-80986092D01*
X179172095Y-80986092D02*
X179553047Y-81081330D01*
X179553047Y-81081330D02*
X179743523Y-81176568D01*
X179743523Y-81176568D02*
X179934000Y-81367044D01*
X179934000Y-81367044D02*
X180029238Y-81652759D01*
X180029238Y-81652759D02*
X180029238Y-81843235D01*
X180029238Y-81843235D02*
X179934000Y-82128949D01*
X179934000Y-82128949D02*
X179838761Y-82224187D01*
X179838761Y-82224187D02*
X179172095Y-82224187D01*
X179172095Y-82224187D02*
X179172095Y-81843235D01*
X180029238Y-83081330D02*
X178029238Y-83081330D01*
X178029238Y-83081330D02*
X180029238Y-84224187D01*
X180029238Y-84224187D02*
X178029238Y-84224187D01*
D11*
X212276106Y-84665025D02*
X212061821Y-84736453D01*
X212061821Y-84736453D02*
X211704678Y-84736453D01*
X211704678Y-84736453D02*
X211561821Y-84665025D01*
X211561821Y-84665025D02*
X211490392Y-84593596D01*
X211490392Y-84593596D02*
X211418963Y-84450739D01*
X211418963Y-84450739D02*
X211418963Y-84307882D01*
X211418963Y-84307882D02*
X211490392Y-84165025D01*
X211490392Y-84165025D02*
X211561821Y-84093596D01*
X211561821Y-84093596D02*
X211704678Y-84022167D01*
X211704678Y-84022167D02*
X211990392Y-83950739D01*
X211990392Y-83950739D02*
X212133249Y-83879310D01*
X212133249Y-83879310D02*
X212204678Y-83807882D01*
X212204678Y-83807882D02*
X212276106Y-83665025D01*
X212276106Y-83665025D02*
X212276106Y-83522167D01*
X212276106Y-83522167D02*
X212204678Y-83379310D01*
X212204678Y-83379310D02*
X212133249Y-83307882D01*
X212133249Y-83307882D02*
X211990392Y-83236453D01*
X211990392Y-83236453D02*
X211633249Y-83236453D01*
X211633249Y-83236453D02*
X211418963Y-83307882D01*
X210918964Y-83236453D02*
X210561821Y-84736453D01*
X210561821Y-84736453D02*
X210276107Y-83665025D01*
X210276107Y-83665025D02*
X209990392Y-84736453D01*
X209990392Y-84736453D02*
X209633250Y-83236453D01*
X208204678Y-84593596D02*
X208276106Y-84665025D01*
X208276106Y-84665025D02*
X208490392Y-84736453D01*
X208490392Y-84736453D02*
X208633249Y-84736453D01*
X208633249Y-84736453D02*
X208847535Y-84665025D01*
X208847535Y-84665025D02*
X208990392Y-84522167D01*
X208990392Y-84522167D02*
X209061821Y-84379310D01*
X209061821Y-84379310D02*
X209133249Y-84093596D01*
X209133249Y-84093596D02*
X209133249Y-83879310D01*
X209133249Y-83879310D02*
X209061821Y-83593596D01*
X209061821Y-83593596D02*
X208990392Y-83450739D01*
X208990392Y-83450739D02*
X208847535Y-83307882D01*
X208847535Y-83307882D02*
X208633249Y-83236453D01*
X208633249Y-83236453D02*
X208490392Y-83236453D01*
X208490392Y-83236453D02*
X208276106Y-83307882D01*
X208276106Y-83307882D02*
X208204678Y-83379310D01*
X206847535Y-84736453D02*
X207561821Y-84736453D01*
X207561821Y-84736453D02*
X207561821Y-83236453D01*
X206347535Y-84736453D02*
X206347535Y-83236453D01*
X205490392Y-84736453D02*
X206133249Y-83879310D01*
X205490392Y-83236453D02*
X206347535Y-84093596D01*
X205784154Y-93003310D02*
X205936535Y-92927120D01*
X205936535Y-92927120D02*
X206165106Y-92927120D01*
X206165106Y-92927120D02*
X206393678Y-93003310D01*
X206393678Y-93003310D02*
X206546059Y-93155691D01*
X206546059Y-93155691D02*
X206622249Y-93308072D01*
X206622249Y-93308072D02*
X206698440Y-93612834D01*
X206698440Y-93612834D02*
X206698440Y-93841406D01*
X206698440Y-93841406D02*
X206622249Y-94146168D01*
X206622249Y-94146168D02*
X206546059Y-94298549D01*
X206546059Y-94298549D02*
X206393678Y-94450930D01*
X206393678Y-94450930D02*
X206165106Y-94527120D01*
X206165106Y-94527120D02*
X206012725Y-94527120D01*
X206012725Y-94527120D02*
X205784154Y-94450930D01*
X205784154Y-94450930D02*
X205707963Y-94374739D01*
X205707963Y-94374739D02*
X205707963Y-93841406D01*
X205707963Y-93841406D02*
X206012725Y-93841406D01*
X205022249Y-94527120D02*
X205022249Y-92927120D01*
X205022249Y-92927120D02*
X204412725Y-92927120D01*
X204412725Y-92927120D02*
X204260344Y-93003310D01*
X204260344Y-93003310D02*
X204184154Y-93079501D01*
X204184154Y-93079501D02*
X204107963Y-93231882D01*
X204107963Y-93231882D02*
X204107963Y-93460453D01*
X204107963Y-93460453D02*
X204184154Y-93612834D01*
X204184154Y-93612834D02*
X204260344Y-93689025D01*
X204260344Y-93689025D02*
X204412725Y-93765215D01*
X204412725Y-93765215D02*
X205022249Y-93765215D01*
X203422249Y-94527120D02*
X203422249Y-92927120D01*
X202355582Y-92927120D02*
X202050820Y-92927120D01*
X202050820Y-92927120D02*
X201898439Y-93003310D01*
X201898439Y-93003310D02*
X201746058Y-93155691D01*
X201746058Y-93155691D02*
X201669868Y-93460453D01*
X201669868Y-93460453D02*
X201669868Y-93993787D01*
X201669868Y-93993787D02*
X201746058Y-94298549D01*
X201746058Y-94298549D02*
X201898439Y-94450930D01*
X201898439Y-94450930D02*
X202050820Y-94527120D01*
X202050820Y-94527120D02*
X202355582Y-94527120D01*
X202355582Y-94527120D02*
X202507963Y-94450930D01*
X202507963Y-94450930D02*
X202660344Y-94298549D01*
X202660344Y-94298549D02*
X202736535Y-93993787D01*
X202736535Y-93993787D02*
X202736535Y-93460453D01*
X202736535Y-93460453D02*
X202660344Y-93155691D01*
X202660344Y-93155691D02*
X202507963Y-93003310D01*
X202507963Y-93003310D02*
X202355582Y-92927120D01*
X200907964Y-94527120D02*
X200603202Y-94527120D01*
X200603202Y-94527120D02*
X200450821Y-94450930D01*
X200450821Y-94450930D02*
X200374630Y-94374739D01*
X200374630Y-94374739D02*
X200222249Y-94146168D01*
X200222249Y-94146168D02*
X200146059Y-93841406D01*
X200146059Y-93841406D02*
X200146059Y-93231882D01*
X200146059Y-93231882D02*
X200222249Y-93079501D01*
X200222249Y-93079501D02*
X200298440Y-93003310D01*
X200298440Y-93003310D02*
X200450821Y-92927120D01*
X200450821Y-92927120D02*
X200755583Y-92927120D01*
X200755583Y-92927120D02*
X200907964Y-93003310D01*
X200907964Y-93003310D02*
X200984154Y-93079501D01*
X200984154Y-93079501D02*
X201060345Y-93231882D01*
X201060345Y-93231882D02*
X201060345Y-93612834D01*
X201060345Y-93612834D02*
X200984154Y-93765215D01*
X200984154Y-93765215D02*
X200907964Y-93841406D01*
X200907964Y-93841406D02*
X200755583Y-93917596D01*
X200755583Y-93917596D02*
X200450821Y-93917596D01*
X200450821Y-93917596D02*
X200298440Y-93841406D01*
X200298440Y-93841406D02*
X200222249Y-93765215D01*
X200222249Y-93765215D02*
X200146059Y-93612834D01*
X205784154Y-95579220D02*
X205936535Y-95503030D01*
X205936535Y-95503030D02*
X206165106Y-95503030D01*
X206165106Y-95503030D02*
X206393678Y-95579220D01*
X206393678Y-95579220D02*
X206546059Y-95731601D01*
X206546059Y-95731601D02*
X206622249Y-95883982D01*
X206622249Y-95883982D02*
X206698440Y-96188744D01*
X206698440Y-96188744D02*
X206698440Y-96417316D01*
X206698440Y-96417316D02*
X206622249Y-96722078D01*
X206622249Y-96722078D02*
X206546059Y-96874459D01*
X206546059Y-96874459D02*
X206393678Y-97026840D01*
X206393678Y-97026840D02*
X206165106Y-97103030D01*
X206165106Y-97103030D02*
X206012725Y-97103030D01*
X206012725Y-97103030D02*
X205784154Y-97026840D01*
X205784154Y-97026840D02*
X205707963Y-96950649D01*
X205707963Y-96950649D02*
X205707963Y-96417316D01*
X205707963Y-96417316D02*
X206012725Y-96417316D01*
X205022249Y-97103030D02*
X205022249Y-95503030D01*
X205022249Y-95503030D02*
X204412725Y-95503030D01*
X204412725Y-95503030D02*
X204260344Y-95579220D01*
X204260344Y-95579220D02*
X204184154Y-95655411D01*
X204184154Y-95655411D02*
X204107963Y-95807792D01*
X204107963Y-95807792D02*
X204107963Y-96036363D01*
X204107963Y-96036363D02*
X204184154Y-96188744D01*
X204184154Y-96188744D02*
X204260344Y-96264935D01*
X204260344Y-96264935D02*
X204412725Y-96341125D01*
X204412725Y-96341125D02*
X205022249Y-96341125D01*
X203422249Y-97103030D02*
X203422249Y-95503030D01*
X202355582Y-95503030D02*
X202050820Y-95503030D01*
X202050820Y-95503030D02*
X201898439Y-95579220D01*
X201898439Y-95579220D02*
X201746058Y-95731601D01*
X201746058Y-95731601D02*
X201669868Y-96036363D01*
X201669868Y-96036363D02*
X201669868Y-96569697D01*
X201669868Y-96569697D02*
X201746058Y-96874459D01*
X201746058Y-96874459D02*
X201898439Y-97026840D01*
X201898439Y-97026840D02*
X202050820Y-97103030D01*
X202050820Y-97103030D02*
X202355582Y-97103030D01*
X202355582Y-97103030D02*
X202507963Y-97026840D01*
X202507963Y-97026840D02*
X202660344Y-96874459D01*
X202660344Y-96874459D02*
X202736535Y-96569697D01*
X202736535Y-96569697D02*
X202736535Y-96036363D01*
X202736535Y-96036363D02*
X202660344Y-95731601D01*
X202660344Y-95731601D02*
X202507963Y-95579220D01*
X202507963Y-95579220D02*
X202355582Y-95503030D01*
X200755583Y-96188744D02*
X200907964Y-96112554D01*
X200907964Y-96112554D02*
X200984154Y-96036363D01*
X200984154Y-96036363D02*
X201060345Y-95883982D01*
X201060345Y-95883982D02*
X201060345Y-95807792D01*
X201060345Y-95807792D02*
X200984154Y-95655411D01*
X200984154Y-95655411D02*
X200907964Y-95579220D01*
X200907964Y-95579220D02*
X200755583Y-95503030D01*
X200755583Y-95503030D02*
X200450821Y-95503030D01*
X200450821Y-95503030D02*
X200298440Y-95579220D01*
X200298440Y-95579220D02*
X200222249Y-95655411D01*
X200222249Y-95655411D02*
X200146059Y-95807792D01*
X200146059Y-95807792D02*
X200146059Y-95883982D01*
X200146059Y-95883982D02*
X200222249Y-96036363D01*
X200222249Y-96036363D02*
X200298440Y-96112554D01*
X200298440Y-96112554D02*
X200450821Y-96188744D01*
X200450821Y-96188744D02*
X200755583Y-96188744D01*
X200755583Y-96188744D02*
X200907964Y-96264935D01*
X200907964Y-96264935D02*
X200984154Y-96341125D01*
X200984154Y-96341125D02*
X201060345Y-96493506D01*
X201060345Y-96493506D02*
X201060345Y-96798268D01*
X201060345Y-96798268D02*
X200984154Y-96950649D01*
X200984154Y-96950649D02*
X200907964Y-97026840D01*
X200907964Y-97026840D02*
X200755583Y-97103030D01*
X200755583Y-97103030D02*
X200450821Y-97103030D01*
X200450821Y-97103030D02*
X200298440Y-97026840D01*
X200298440Y-97026840D02*
X200222249Y-96950649D01*
X200222249Y-96950649D02*
X200146059Y-96798268D01*
X200146059Y-96798268D02*
X200146059Y-96493506D01*
X200146059Y-96493506D02*
X200222249Y-96341125D01*
X200222249Y-96341125D02*
X200298440Y-96264935D01*
X200298440Y-96264935D02*
X200450821Y-96188744D01*
X205784154Y-98155130D02*
X205936535Y-98078940D01*
X205936535Y-98078940D02*
X206165106Y-98078940D01*
X206165106Y-98078940D02*
X206393678Y-98155130D01*
X206393678Y-98155130D02*
X206546059Y-98307511D01*
X206546059Y-98307511D02*
X206622249Y-98459892D01*
X206622249Y-98459892D02*
X206698440Y-98764654D01*
X206698440Y-98764654D02*
X206698440Y-98993226D01*
X206698440Y-98993226D02*
X206622249Y-99297988D01*
X206622249Y-99297988D02*
X206546059Y-99450369D01*
X206546059Y-99450369D02*
X206393678Y-99602750D01*
X206393678Y-99602750D02*
X206165106Y-99678940D01*
X206165106Y-99678940D02*
X206012725Y-99678940D01*
X206012725Y-99678940D02*
X205784154Y-99602750D01*
X205784154Y-99602750D02*
X205707963Y-99526559D01*
X205707963Y-99526559D02*
X205707963Y-98993226D01*
X205707963Y-98993226D02*
X206012725Y-98993226D01*
X205022249Y-99678940D02*
X205022249Y-98078940D01*
X205022249Y-98078940D02*
X204412725Y-98078940D01*
X204412725Y-98078940D02*
X204260344Y-98155130D01*
X204260344Y-98155130D02*
X204184154Y-98231321D01*
X204184154Y-98231321D02*
X204107963Y-98383702D01*
X204107963Y-98383702D02*
X204107963Y-98612273D01*
X204107963Y-98612273D02*
X204184154Y-98764654D01*
X204184154Y-98764654D02*
X204260344Y-98840845D01*
X204260344Y-98840845D02*
X204412725Y-98917035D01*
X204412725Y-98917035D02*
X205022249Y-98917035D01*
X203422249Y-99678940D02*
X203422249Y-98078940D01*
X202355582Y-98078940D02*
X202050820Y-98078940D01*
X202050820Y-98078940D02*
X201898439Y-98155130D01*
X201898439Y-98155130D02*
X201746058Y-98307511D01*
X201746058Y-98307511D02*
X201669868Y-98612273D01*
X201669868Y-98612273D02*
X201669868Y-99145607D01*
X201669868Y-99145607D02*
X201746058Y-99450369D01*
X201746058Y-99450369D02*
X201898439Y-99602750D01*
X201898439Y-99602750D02*
X202050820Y-99678940D01*
X202050820Y-99678940D02*
X202355582Y-99678940D01*
X202355582Y-99678940D02*
X202507963Y-99602750D01*
X202507963Y-99602750D02*
X202660344Y-99450369D01*
X202660344Y-99450369D02*
X202736535Y-99145607D01*
X202736535Y-99145607D02*
X202736535Y-98612273D01*
X202736535Y-98612273D02*
X202660344Y-98307511D01*
X202660344Y-98307511D02*
X202507963Y-98155130D01*
X202507963Y-98155130D02*
X202355582Y-98078940D01*
X201136535Y-98078940D02*
X200069868Y-98078940D01*
X200069868Y-98078940D02*
X200755583Y-99678940D01*
X205784154Y-100731040D02*
X205936535Y-100654850D01*
X205936535Y-100654850D02*
X206165106Y-100654850D01*
X206165106Y-100654850D02*
X206393678Y-100731040D01*
X206393678Y-100731040D02*
X206546059Y-100883421D01*
X206546059Y-100883421D02*
X206622249Y-101035802D01*
X206622249Y-101035802D02*
X206698440Y-101340564D01*
X206698440Y-101340564D02*
X206698440Y-101569136D01*
X206698440Y-101569136D02*
X206622249Y-101873898D01*
X206622249Y-101873898D02*
X206546059Y-102026279D01*
X206546059Y-102026279D02*
X206393678Y-102178660D01*
X206393678Y-102178660D02*
X206165106Y-102254850D01*
X206165106Y-102254850D02*
X206012725Y-102254850D01*
X206012725Y-102254850D02*
X205784154Y-102178660D01*
X205784154Y-102178660D02*
X205707963Y-102102469D01*
X205707963Y-102102469D02*
X205707963Y-101569136D01*
X205707963Y-101569136D02*
X206012725Y-101569136D01*
X205022249Y-102254850D02*
X205022249Y-100654850D01*
X205022249Y-100654850D02*
X204412725Y-100654850D01*
X204412725Y-100654850D02*
X204260344Y-100731040D01*
X204260344Y-100731040D02*
X204184154Y-100807231D01*
X204184154Y-100807231D02*
X204107963Y-100959612D01*
X204107963Y-100959612D02*
X204107963Y-101188183D01*
X204107963Y-101188183D02*
X204184154Y-101340564D01*
X204184154Y-101340564D02*
X204260344Y-101416755D01*
X204260344Y-101416755D02*
X204412725Y-101492945D01*
X204412725Y-101492945D02*
X205022249Y-101492945D01*
X203422249Y-102254850D02*
X203422249Y-100654850D01*
X202355582Y-100654850D02*
X202050820Y-100654850D01*
X202050820Y-100654850D02*
X201898439Y-100731040D01*
X201898439Y-100731040D02*
X201746058Y-100883421D01*
X201746058Y-100883421D02*
X201669868Y-101188183D01*
X201669868Y-101188183D02*
X201669868Y-101721517D01*
X201669868Y-101721517D02*
X201746058Y-102026279D01*
X201746058Y-102026279D02*
X201898439Y-102178660D01*
X201898439Y-102178660D02*
X202050820Y-102254850D01*
X202050820Y-102254850D02*
X202355582Y-102254850D01*
X202355582Y-102254850D02*
X202507963Y-102178660D01*
X202507963Y-102178660D02*
X202660344Y-102026279D01*
X202660344Y-102026279D02*
X202736535Y-101721517D01*
X202736535Y-101721517D02*
X202736535Y-101188183D01*
X202736535Y-101188183D02*
X202660344Y-100883421D01*
X202660344Y-100883421D02*
X202507963Y-100731040D01*
X202507963Y-100731040D02*
X202355582Y-100654850D01*
X200298440Y-100654850D02*
X200603202Y-100654850D01*
X200603202Y-100654850D02*
X200755583Y-100731040D01*
X200755583Y-100731040D02*
X200831773Y-100807231D01*
X200831773Y-100807231D02*
X200984154Y-101035802D01*
X200984154Y-101035802D02*
X201060345Y-101340564D01*
X201060345Y-101340564D02*
X201060345Y-101950088D01*
X201060345Y-101950088D02*
X200984154Y-102102469D01*
X200984154Y-102102469D02*
X200907964Y-102178660D01*
X200907964Y-102178660D02*
X200755583Y-102254850D01*
X200755583Y-102254850D02*
X200450821Y-102254850D01*
X200450821Y-102254850D02*
X200298440Y-102178660D01*
X200298440Y-102178660D02*
X200222249Y-102102469D01*
X200222249Y-102102469D02*
X200146059Y-101950088D01*
X200146059Y-101950088D02*
X200146059Y-101569136D01*
X200146059Y-101569136D02*
X200222249Y-101416755D01*
X200222249Y-101416755D02*
X200298440Y-101340564D01*
X200298440Y-101340564D02*
X200450821Y-101264374D01*
X200450821Y-101264374D02*
X200755583Y-101264374D01*
X200755583Y-101264374D02*
X200907964Y-101340564D01*
X200907964Y-101340564D02*
X200984154Y-101416755D01*
X200984154Y-101416755D02*
X201060345Y-101569136D01*
X205784154Y-103306950D02*
X205936535Y-103230760D01*
X205936535Y-103230760D02*
X206165106Y-103230760D01*
X206165106Y-103230760D02*
X206393678Y-103306950D01*
X206393678Y-103306950D02*
X206546059Y-103459331D01*
X206546059Y-103459331D02*
X206622249Y-103611712D01*
X206622249Y-103611712D02*
X206698440Y-103916474D01*
X206698440Y-103916474D02*
X206698440Y-104145046D01*
X206698440Y-104145046D02*
X206622249Y-104449808D01*
X206622249Y-104449808D02*
X206546059Y-104602189D01*
X206546059Y-104602189D02*
X206393678Y-104754570D01*
X206393678Y-104754570D02*
X206165106Y-104830760D01*
X206165106Y-104830760D02*
X206012725Y-104830760D01*
X206012725Y-104830760D02*
X205784154Y-104754570D01*
X205784154Y-104754570D02*
X205707963Y-104678379D01*
X205707963Y-104678379D02*
X205707963Y-104145046D01*
X205707963Y-104145046D02*
X206012725Y-104145046D01*
X205022249Y-104830760D02*
X205022249Y-103230760D01*
X205022249Y-103230760D02*
X204412725Y-103230760D01*
X204412725Y-103230760D02*
X204260344Y-103306950D01*
X204260344Y-103306950D02*
X204184154Y-103383141D01*
X204184154Y-103383141D02*
X204107963Y-103535522D01*
X204107963Y-103535522D02*
X204107963Y-103764093D01*
X204107963Y-103764093D02*
X204184154Y-103916474D01*
X204184154Y-103916474D02*
X204260344Y-103992665D01*
X204260344Y-103992665D02*
X204412725Y-104068855D01*
X204412725Y-104068855D02*
X205022249Y-104068855D01*
X203422249Y-104830760D02*
X203422249Y-103230760D01*
X202355582Y-103230760D02*
X202050820Y-103230760D01*
X202050820Y-103230760D02*
X201898439Y-103306950D01*
X201898439Y-103306950D02*
X201746058Y-103459331D01*
X201746058Y-103459331D02*
X201669868Y-103764093D01*
X201669868Y-103764093D02*
X201669868Y-104297427D01*
X201669868Y-104297427D02*
X201746058Y-104602189D01*
X201746058Y-104602189D02*
X201898439Y-104754570D01*
X201898439Y-104754570D02*
X202050820Y-104830760D01*
X202050820Y-104830760D02*
X202355582Y-104830760D01*
X202355582Y-104830760D02*
X202507963Y-104754570D01*
X202507963Y-104754570D02*
X202660344Y-104602189D01*
X202660344Y-104602189D02*
X202736535Y-104297427D01*
X202736535Y-104297427D02*
X202736535Y-103764093D01*
X202736535Y-103764093D02*
X202660344Y-103459331D01*
X202660344Y-103459331D02*
X202507963Y-103306950D01*
X202507963Y-103306950D02*
X202355582Y-103230760D01*
X200222249Y-103230760D02*
X200984154Y-103230760D01*
X200984154Y-103230760D02*
X201060345Y-103992665D01*
X201060345Y-103992665D02*
X200984154Y-103916474D01*
X200984154Y-103916474D02*
X200831773Y-103840284D01*
X200831773Y-103840284D02*
X200450821Y-103840284D01*
X200450821Y-103840284D02*
X200298440Y-103916474D01*
X200298440Y-103916474D02*
X200222249Y-103992665D01*
X200222249Y-103992665D02*
X200146059Y-104145046D01*
X200146059Y-104145046D02*
X200146059Y-104525998D01*
X200146059Y-104525998D02*
X200222249Y-104678379D01*
X200222249Y-104678379D02*
X200298440Y-104754570D01*
X200298440Y-104754570D02*
X200450821Y-104830760D01*
X200450821Y-104830760D02*
X200831773Y-104830760D01*
X200831773Y-104830760D02*
X200984154Y-104754570D01*
X200984154Y-104754570D02*
X201060345Y-104678379D01*
X205784154Y-105882860D02*
X205936535Y-105806670D01*
X205936535Y-105806670D02*
X206165106Y-105806670D01*
X206165106Y-105806670D02*
X206393678Y-105882860D01*
X206393678Y-105882860D02*
X206546059Y-106035241D01*
X206546059Y-106035241D02*
X206622249Y-106187622D01*
X206622249Y-106187622D02*
X206698440Y-106492384D01*
X206698440Y-106492384D02*
X206698440Y-106720956D01*
X206698440Y-106720956D02*
X206622249Y-107025718D01*
X206622249Y-107025718D02*
X206546059Y-107178099D01*
X206546059Y-107178099D02*
X206393678Y-107330480D01*
X206393678Y-107330480D02*
X206165106Y-107406670D01*
X206165106Y-107406670D02*
X206012725Y-107406670D01*
X206012725Y-107406670D02*
X205784154Y-107330480D01*
X205784154Y-107330480D02*
X205707963Y-107254289D01*
X205707963Y-107254289D02*
X205707963Y-106720956D01*
X205707963Y-106720956D02*
X206012725Y-106720956D01*
X205022249Y-107406670D02*
X205022249Y-105806670D01*
X205022249Y-105806670D02*
X204412725Y-105806670D01*
X204412725Y-105806670D02*
X204260344Y-105882860D01*
X204260344Y-105882860D02*
X204184154Y-105959051D01*
X204184154Y-105959051D02*
X204107963Y-106111432D01*
X204107963Y-106111432D02*
X204107963Y-106340003D01*
X204107963Y-106340003D02*
X204184154Y-106492384D01*
X204184154Y-106492384D02*
X204260344Y-106568575D01*
X204260344Y-106568575D02*
X204412725Y-106644765D01*
X204412725Y-106644765D02*
X205022249Y-106644765D01*
X203422249Y-107406670D02*
X203422249Y-105806670D01*
X202355582Y-105806670D02*
X202050820Y-105806670D01*
X202050820Y-105806670D02*
X201898439Y-105882860D01*
X201898439Y-105882860D02*
X201746058Y-106035241D01*
X201746058Y-106035241D02*
X201669868Y-106340003D01*
X201669868Y-106340003D02*
X201669868Y-106873337D01*
X201669868Y-106873337D02*
X201746058Y-107178099D01*
X201746058Y-107178099D02*
X201898439Y-107330480D01*
X201898439Y-107330480D02*
X202050820Y-107406670D01*
X202050820Y-107406670D02*
X202355582Y-107406670D01*
X202355582Y-107406670D02*
X202507963Y-107330480D01*
X202507963Y-107330480D02*
X202660344Y-107178099D01*
X202660344Y-107178099D02*
X202736535Y-106873337D01*
X202736535Y-106873337D02*
X202736535Y-106340003D01*
X202736535Y-106340003D02*
X202660344Y-106035241D01*
X202660344Y-106035241D02*
X202507963Y-105882860D01*
X202507963Y-105882860D02*
X202355582Y-105806670D01*
X200298440Y-106340003D02*
X200298440Y-107406670D01*
X200679392Y-105730480D02*
X201060345Y-106873337D01*
X201060345Y-106873337D02*
X200069868Y-106873337D01*
X205784154Y-108458770D02*
X205936535Y-108382580D01*
X205936535Y-108382580D02*
X206165106Y-108382580D01*
X206165106Y-108382580D02*
X206393678Y-108458770D01*
X206393678Y-108458770D02*
X206546059Y-108611151D01*
X206546059Y-108611151D02*
X206622249Y-108763532D01*
X206622249Y-108763532D02*
X206698440Y-109068294D01*
X206698440Y-109068294D02*
X206698440Y-109296866D01*
X206698440Y-109296866D02*
X206622249Y-109601628D01*
X206622249Y-109601628D02*
X206546059Y-109754009D01*
X206546059Y-109754009D02*
X206393678Y-109906390D01*
X206393678Y-109906390D02*
X206165106Y-109982580D01*
X206165106Y-109982580D02*
X206012725Y-109982580D01*
X206012725Y-109982580D02*
X205784154Y-109906390D01*
X205784154Y-109906390D02*
X205707963Y-109830199D01*
X205707963Y-109830199D02*
X205707963Y-109296866D01*
X205707963Y-109296866D02*
X206012725Y-109296866D01*
X205022249Y-109982580D02*
X205022249Y-108382580D01*
X205022249Y-108382580D02*
X204412725Y-108382580D01*
X204412725Y-108382580D02*
X204260344Y-108458770D01*
X204260344Y-108458770D02*
X204184154Y-108534961D01*
X204184154Y-108534961D02*
X204107963Y-108687342D01*
X204107963Y-108687342D02*
X204107963Y-108915913D01*
X204107963Y-108915913D02*
X204184154Y-109068294D01*
X204184154Y-109068294D02*
X204260344Y-109144485D01*
X204260344Y-109144485D02*
X204412725Y-109220675D01*
X204412725Y-109220675D02*
X205022249Y-109220675D01*
X203422249Y-109982580D02*
X203422249Y-108382580D01*
X202355582Y-108382580D02*
X202050820Y-108382580D01*
X202050820Y-108382580D02*
X201898439Y-108458770D01*
X201898439Y-108458770D02*
X201746058Y-108611151D01*
X201746058Y-108611151D02*
X201669868Y-108915913D01*
X201669868Y-108915913D02*
X201669868Y-109449247D01*
X201669868Y-109449247D02*
X201746058Y-109754009D01*
X201746058Y-109754009D02*
X201898439Y-109906390D01*
X201898439Y-109906390D02*
X202050820Y-109982580D01*
X202050820Y-109982580D02*
X202355582Y-109982580D01*
X202355582Y-109982580D02*
X202507963Y-109906390D01*
X202507963Y-109906390D02*
X202660344Y-109754009D01*
X202660344Y-109754009D02*
X202736535Y-109449247D01*
X202736535Y-109449247D02*
X202736535Y-108915913D01*
X202736535Y-108915913D02*
X202660344Y-108611151D01*
X202660344Y-108611151D02*
X202507963Y-108458770D01*
X202507963Y-108458770D02*
X202355582Y-108382580D01*
X201136535Y-108382580D02*
X200146059Y-108382580D01*
X200146059Y-108382580D02*
X200679392Y-108992104D01*
X200679392Y-108992104D02*
X200450821Y-108992104D01*
X200450821Y-108992104D02*
X200298440Y-109068294D01*
X200298440Y-109068294D02*
X200222249Y-109144485D01*
X200222249Y-109144485D02*
X200146059Y-109296866D01*
X200146059Y-109296866D02*
X200146059Y-109677818D01*
X200146059Y-109677818D02*
X200222249Y-109830199D01*
X200222249Y-109830199D02*
X200298440Y-109906390D01*
X200298440Y-109906390D02*
X200450821Y-109982580D01*
X200450821Y-109982580D02*
X200907964Y-109982580D01*
X200907964Y-109982580D02*
X201060345Y-109906390D01*
X201060345Y-109906390D02*
X201136535Y-109830199D01*
X205784154Y-111034680D02*
X205936535Y-110958490D01*
X205936535Y-110958490D02*
X206165106Y-110958490D01*
X206165106Y-110958490D02*
X206393678Y-111034680D01*
X206393678Y-111034680D02*
X206546059Y-111187061D01*
X206546059Y-111187061D02*
X206622249Y-111339442D01*
X206622249Y-111339442D02*
X206698440Y-111644204D01*
X206698440Y-111644204D02*
X206698440Y-111872776D01*
X206698440Y-111872776D02*
X206622249Y-112177538D01*
X206622249Y-112177538D02*
X206546059Y-112329919D01*
X206546059Y-112329919D02*
X206393678Y-112482300D01*
X206393678Y-112482300D02*
X206165106Y-112558490D01*
X206165106Y-112558490D02*
X206012725Y-112558490D01*
X206012725Y-112558490D02*
X205784154Y-112482300D01*
X205784154Y-112482300D02*
X205707963Y-112406109D01*
X205707963Y-112406109D02*
X205707963Y-111872776D01*
X205707963Y-111872776D02*
X206012725Y-111872776D01*
X205022249Y-112558490D02*
X205022249Y-110958490D01*
X205022249Y-110958490D02*
X204412725Y-110958490D01*
X204412725Y-110958490D02*
X204260344Y-111034680D01*
X204260344Y-111034680D02*
X204184154Y-111110871D01*
X204184154Y-111110871D02*
X204107963Y-111263252D01*
X204107963Y-111263252D02*
X204107963Y-111491823D01*
X204107963Y-111491823D02*
X204184154Y-111644204D01*
X204184154Y-111644204D02*
X204260344Y-111720395D01*
X204260344Y-111720395D02*
X204412725Y-111796585D01*
X204412725Y-111796585D02*
X205022249Y-111796585D01*
X203422249Y-112558490D02*
X203422249Y-110958490D01*
X202355582Y-110958490D02*
X202050820Y-110958490D01*
X202050820Y-110958490D02*
X201898439Y-111034680D01*
X201898439Y-111034680D02*
X201746058Y-111187061D01*
X201746058Y-111187061D02*
X201669868Y-111491823D01*
X201669868Y-111491823D02*
X201669868Y-112025157D01*
X201669868Y-112025157D02*
X201746058Y-112329919D01*
X201746058Y-112329919D02*
X201898439Y-112482300D01*
X201898439Y-112482300D02*
X202050820Y-112558490D01*
X202050820Y-112558490D02*
X202355582Y-112558490D01*
X202355582Y-112558490D02*
X202507963Y-112482300D01*
X202507963Y-112482300D02*
X202660344Y-112329919D01*
X202660344Y-112329919D02*
X202736535Y-112025157D01*
X202736535Y-112025157D02*
X202736535Y-111491823D01*
X202736535Y-111491823D02*
X202660344Y-111187061D01*
X202660344Y-111187061D02*
X202507963Y-111034680D01*
X202507963Y-111034680D02*
X202355582Y-110958490D01*
X201060345Y-111110871D02*
X200984154Y-111034680D01*
X200984154Y-111034680D02*
X200831773Y-110958490D01*
X200831773Y-110958490D02*
X200450821Y-110958490D01*
X200450821Y-110958490D02*
X200298440Y-111034680D01*
X200298440Y-111034680D02*
X200222249Y-111110871D01*
X200222249Y-111110871D02*
X200146059Y-111263252D01*
X200146059Y-111263252D02*
X200146059Y-111415633D01*
X200146059Y-111415633D02*
X200222249Y-111644204D01*
X200222249Y-111644204D02*
X201136535Y-112558490D01*
X201136535Y-112558490D02*
X200146059Y-112558490D01*
X205784154Y-113610590D02*
X205936535Y-113534400D01*
X205936535Y-113534400D02*
X206165106Y-113534400D01*
X206165106Y-113534400D02*
X206393678Y-113610590D01*
X206393678Y-113610590D02*
X206546059Y-113762971D01*
X206546059Y-113762971D02*
X206622249Y-113915352D01*
X206622249Y-113915352D02*
X206698440Y-114220114D01*
X206698440Y-114220114D02*
X206698440Y-114448686D01*
X206698440Y-114448686D02*
X206622249Y-114753448D01*
X206622249Y-114753448D02*
X206546059Y-114905829D01*
X206546059Y-114905829D02*
X206393678Y-115058210D01*
X206393678Y-115058210D02*
X206165106Y-115134400D01*
X206165106Y-115134400D02*
X206012725Y-115134400D01*
X206012725Y-115134400D02*
X205784154Y-115058210D01*
X205784154Y-115058210D02*
X205707963Y-114982019D01*
X205707963Y-114982019D02*
X205707963Y-114448686D01*
X205707963Y-114448686D02*
X206012725Y-114448686D01*
X205022249Y-115134400D02*
X205022249Y-113534400D01*
X205022249Y-113534400D02*
X204412725Y-113534400D01*
X204412725Y-113534400D02*
X204260344Y-113610590D01*
X204260344Y-113610590D02*
X204184154Y-113686781D01*
X204184154Y-113686781D02*
X204107963Y-113839162D01*
X204107963Y-113839162D02*
X204107963Y-114067733D01*
X204107963Y-114067733D02*
X204184154Y-114220114D01*
X204184154Y-114220114D02*
X204260344Y-114296305D01*
X204260344Y-114296305D02*
X204412725Y-114372495D01*
X204412725Y-114372495D02*
X205022249Y-114372495D01*
X203422249Y-115134400D02*
X203422249Y-113534400D01*
X202355582Y-113534400D02*
X202050820Y-113534400D01*
X202050820Y-113534400D02*
X201898439Y-113610590D01*
X201898439Y-113610590D02*
X201746058Y-113762971D01*
X201746058Y-113762971D02*
X201669868Y-114067733D01*
X201669868Y-114067733D02*
X201669868Y-114601067D01*
X201669868Y-114601067D02*
X201746058Y-114905829D01*
X201746058Y-114905829D02*
X201898439Y-115058210D01*
X201898439Y-115058210D02*
X202050820Y-115134400D01*
X202050820Y-115134400D02*
X202355582Y-115134400D01*
X202355582Y-115134400D02*
X202507963Y-115058210D01*
X202507963Y-115058210D02*
X202660344Y-114905829D01*
X202660344Y-114905829D02*
X202736535Y-114601067D01*
X202736535Y-114601067D02*
X202736535Y-114067733D01*
X202736535Y-114067733D02*
X202660344Y-113762971D01*
X202660344Y-113762971D02*
X202507963Y-113610590D01*
X202507963Y-113610590D02*
X202355582Y-113534400D01*
X200146059Y-115134400D02*
X201060345Y-115134400D01*
X200603202Y-115134400D02*
X200603202Y-113534400D01*
X200603202Y-113534400D02*
X200755583Y-113762971D01*
X200755583Y-113762971D02*
X200907964Y-113915352D01*
X200907964Y-113915352D02*
X201060345Y-113991543D01*
X205784154Y-116186500D02*
X205936535Y-116110310D01*
X205936535Y-116110310D02*
X206165106Y-116110310D01*
X206165106Y-116110310D02*
X206393678Y-116186500D01*
X206393678Y-116186500D02*
X206546059Y-116338881D01*
X206546059Y-116338881D02*
X206622249Y-116491262D01*
X206622249Y-116491262D02*
X206698440Y-116796024D01*
X206698440Y-116796024D02*
X206698440Y-117024596D01*
X206698440Y-117024596D02*
X206622249Y-117329358D01*
X206622249Y-117329358D02*
X206546059Y-117481739D01*
X206546059Y-117481739D02*
X206393678Y-117634120D01*
X206393678Y-117634120D02*
X206165106Y-117710310D01*
X206165106Y-117710310D02*
X206012725Y-117710310D01*
X206012725Y-117710310D02*
X205784154Y-117634120D01*
X205784154Y-117634120D02*
X205707963Y-117557929D01*
X205707963Y-117557929D02*
X205707963Y-117024596D01*
X205707963Y-117024596D02*
X206012725Y-117024596D01*
X205022249Y-117710310D02*
X205022249Y-116110310D01*
X205022249Y-116110310D02*
X204412725Y-116110310D01*
X204412725Y-116110310D02*
X204260344Y-116186500D01*
X204260344Y-116186500D02*
X204184154Y-116262691D01*
X204184154Y-116262691D02*
X204107963Y-116415072D01*
X204107963Y-116415072D02*
X204107963Y-116643643D01*
X204107963Y-116643643D02*
X204184154Y-116796024D01*
X204184154Y-116796024D02*
X204260344Y-116872215D01*
X204260344Y-116872215D02*
X204412725Y-116948405D01*
X204412725Y-116948405D02*
X205022249Y-116948405D01*
X203422249Y-117710310D02*
X203422249Y-116110310D01*
X202355582Y-116110310D02*
X202050820Y-116110310D01*
X202050820Y-116110310D02*
X201898439Y-116186500D01*
X201898439Y-116186500D02*
X201746058Y-116338881D01*
X201746058Y-116338881D02*
X201669868Y-116643643D01*
X201669868Y-116643643D02*
X201669868Y-117176977D01*
X201669868Y-117176977D02*
X201746058Y-117481739D01*
X201746058Y-117481739D02*
X201898439Y-117634120D01*
X201898439Y-117634120D02*
X202050820Y-117710310D01*
X202050820Y-117710310D02*
X202355582Y-117710310D01*
X202355582Y-117710310D02*
X202507963Y-117634120D01*
X202507963Y-117634120D02*
X202660344Y-117481739D01*
X202660344Y-117481739D02*
X202736535Y-117176977D01*
X202736535Y-117176977D02*
X202736535Y-116643643D01*
X202736535Y-116643643D02*
X202660344Y-116338881D01*
X202660344Y-116338881D02*
X202507963Y-116186500D01*
X202507963Y-116186500D02*
X202355582Y-116110310D01*
X200679392Y-116110310D02*
X200527011Y-116110310D01*
X200527011Y-116110310D02*
X200374630Y-116186500D01*
X200374630Y-116186500D02*
X200298440Y-116262691D01*
X200298440Y-116262691D02*
X200222249Y-116415072D01*
X200222249Y-116415072D02*
X200146059Y-116719834D01*
X200146059Y-116719834D02*
X200146059Y-117100786D01*
X200146059Y-117100786D02*
X200222249Y-117405548D01*
X200222249Y-117405548D02*
X200298440Y-117557929D01*
X200298440Y-117557929D02*
X200374630Y-117634120D01*
X200374630Y-117634120D02*
X200527011Y-117710310D01*
X200527011Y-117710310D02*
X200679392Y-117710310D01*
X200679392Y-117710310D02*
X200831773Y-117634120D01*
X200831773Y-117634120D02*
X200907964Y-117557929D01*
X200907964Y-117557929D02*
X200984154Y-117405548D01*
X200984154Y-117405548D02*
X201060345Y-117100786D01*
X201060345Y-117100786D02*
X201060345Y-116719834D01*
X201060345Y-116719834D02*
X200984154Y-116415072D01*
X200984154Y-116415072D02*
X200907964Y-116262691D01*
X200907964Y-116262691D02*
X200831773Y-116186500D01*
X200831773Y-116186500D02*
X200679392Y-116110310D01*
X213963106Y-118740882D02*
X214105964Y-118669453D01*
X214105964Y-118669453D02*
X214320249Y-118669453D01*
X214320249Y-118669453D02*
X214534535Y-118740882D01*
X214534535Y-118740882D02*
X214677392Y-118883739D01*
X214677392Y-118883739D02*
X214748821Y-119026596D01*
X214748821Y-119026596D02*
X214820249Y-119312310D01*
X214820249Y-119312310D02*
X214820249Y-119526596D01*
X214820249Y-119526596D02*
X214748821Y-119812310D01*
X214748821Y-119812310D02*
X214677392Y-119955167D01*
X214677392Y-119955167D02*
X214534535Y-120098025D01*
X214534535Y-120098025D02*
X214320249Y-120169453D01*
X214320249Y-120169453D02*
X214177392Y-120169453D01*
X214177392Y-120169453D02*
X213963106Y-120098025D01*
X213963106Y-120098025D02*
X213891678Y-120026596D01*
X213891678Y-120026596D02*
X213891678Y-119526596D01*
X213891678Y-119526596D02*
X214177392Y-119526596D01*
X213248821Y-120169453D02*
X213248821Y-118669453D01*
X213248821Y-118669453D02*
X212391678Y-120169453D01*
X212391678Y-120169453D02*
X212391678Y-118669453D01*
X211677392Y-120169453D02*
X211677392Y-118669453D01*
X211677392Y-118669453D02*
X211320249Y-118669453D01*
X211320249Y-118669453D02*
X211105963Y-118740882D01*
X211105963Y-118740882D02*
X210963106Y-118883739D01*
X210963106Y-118883739D02*
X210891677Y-119026596D01*
X210891677Y-119026596D02*
X210820249Y-119312310D01*
X210820249Y-119312310D02*
X210820249Y-119526596D01*
X210820249Y-119526596D02*
X210891677Y-119812310D01*
X210891677Y-119812310D02*
X210963106Y-119955167D01*
X210963106Y-119955167D02*
X211105963Y-120098025D01*
X211105963Y-120098025D02*
X211320249Y-120169453D01*
X211320249Y-120169453D02*
X211677392Y-120169453D01*
X197846007Y-86344268D02*
X197774578Y-86201411D01*
X197774578Y-86201411D02*
X197774578Y-85987125D01*
X197774578Y-85987125D02*
X197846007Y-85772839D01*
X197846007Y-85772839D02*
X197988864Y-85629982D01*
X197988864Y-85629982D02*
X198131721Y-85558553D01*
X198131721Y-85558553D02*
X198417435Y-85487125D01*
X198417435Y-85487125D02*
X198631721Y-85487125D01*
X198631721Y-85487125D02*
X198917435Y-85558553D01*
X198917435Y-85558553D02*
X199060292Y-85629982D01*
X199060292Y-85629982D02*
X199203150Y-85772839D01*
X199203150Y-85772839D02*
X199274578Y-85987125D01*
X199274578Y-85987125D02*
X199274578Y-86129982D01*
X199274578Y-86129982D02*
X199203150Y-86344268D01*
X199203150Y-86344268D02*
X199131721Y-86415696D01*
X199131721Y-86415696D02*
X198631721Y-86415696D01*
X198631721Y-86415696D02*
X198631721Y-86129982D01*
X199274578Y-87058553D02*
X197774578Y-87058553D01*
X197774578Y-87058553D02*
X199274578Y-87915696D01*
X199274578Y-87915696D02*
X197774578Y-87915696D01*
X199274578Y-88629982D02*
X197774578Y-88629982D01*
X197774578Y-88629982D02*
X197774578Y-88987125D01*
X197774578Y-88987125D02*
X197846007Y-89201411D01*
X197846007Y-89201411D02*
X197988864Y-89344268D01*
X197988864Y-89344268D02*
X198131721Y-89415697D01*
X198131721Y-89415697D02*
X198417435Y-89487125D01*
X198417435Y-89487125D02*
X198631721Y-89487125D01*
X198631721Y-89487125D02*
X198917435Y-89415697D01*
X198917435Y-89415697D02*
X199060292Y-89344268D01*
X199060292Y-89344268D02*
X199203150Y-89201411D01*
X199203150Y-89201411D02*
X199274578Y-88987125D01*
X199274578Y-88987125D02*
X199274578Y-88629982D01*
X193242834Y-93112355D02*
X193395215Y-93036165D01*
X193395215Y-93036165D02*
X193623786Y-93036165D01*
X193623786Y-93036165D02*
X193852358Y-93112355D01*
X193852358Y-93112355D02*
X194004739Y-93264736D01*
X194004739Y-93264736D02*
X194080929Y-93417117D01*
X194080929Y-93417117D02*
X194157120Y-93721879D01*
X194157120Y-93721879D02*
X194157120Y-93950451D01*
X194157120Y-93950451D02*
X194080929Y-94255213D01*
X194080929Y-94255213D02*
X194004739Y-94407594D01*
X194004739Y-94407594D02*
X193852358Y-94559975D01*
X193852358Y-94559975D02*
X193623786Y-94636165D01*
X193623786Y-94636165D02*
X193471405Y-94636165D01*
X193471405Y-94636165D02*
X193242834Y-94559975D01*
X193242834Y-94559975D02*
X193166643Y-94483784D01*
X193166643Y-94483784D02*
X193166643Y-93950451D01*
X193166643Y-93950451D02*
X193471405Y-93950451D01*
X192480929Y-94636165D02*
X192480929Y-93036165D01*
X192480929Y-93036165D02*
X191871405Y-93036165D01*
X191871405Y-93036165D02*
X191719024Y-93112355D01*
X191719024Y-93112355D02*
X191642834Y-93188546D01*
X191642834Y-93188546D02*
X191566643Y-93340927D01*
X191566643Y-93340927D02*
X191566643Y-93569498D01*
X191566643Y-93569498D02*
X191642834Y-93721879D01*
X191642834Y-93721879D02*
X191719024Y-93798070D01*
X191719024Y-93798070D02*
X191871405Y-93874260D01*
X191871405Y-93874260D02*
X192480929Y-93874260D01*
X190880929Y-94636165D02*
X190880929Y-93036165D01*
X189814262Y-93036165D02*
X189509500Y-93036165D01*
X189509500Y-93036165D02*
X189357119Y-93112355D01*
X189357119Y-93112355D02*
X189204738Y-93264736D01*
X189204738Y-93264736D02*
X189128548Y-93569498D01*
X189128548Y-93569498D02*
X189128548Y-94102832D01*
X189128548Y-94102832D02*
X189204738Y-94407594D01*
X189204738Y-94407594D02*
X189357119Y-94559975D01*
X189357119Y-94559975D02*
X189509500Y-94636165D01*
X189509500Y-94636165D02*
X189814262Y-94636165D01*
X189814262Y-94636165D02*
X189966643Y-94559975D01*
X189966643Y-94559975D02*
X190119024Y-94407594D01*
X190119024Y-94407594D02*
X190195215Y-94102832D01*
X190195215Y-94102832D02*
X190195215Y-93569498D01*
X190195215Y-93569498D02*
X190119024Y-93264736D01*
X190119024Y-93264736D02*
X189966643Y-93112355D01*
X189966643Y-93112355D02*
X189814262Y-93036165D01*
X187604739Y-94636165D02*
X188519025Y-94636165D01*
X188061882Y-94636165D02*
X188061882Y-93036165D01*
X188061882Y-93036165D02*
X188214263Y-93264736D01*
X188214263Y-93264736D02*
X188366644Y-93417117D01*
X188366644Y-93417117D02*
X188519025Y-93493308D01*
X186842834Y-94636165D02*
X186538072Y-94636165D01*
X186538072Y-94636165D02*
X186385691Y-94559975D01*
X186385691Y-94559975D02*
X186309500Y-94483784D01*
X186309500Y-94483784D02*
X186157119Y-94255213D01*
X186157119Y-94255213D02*
X186080929Y-93950451D01*
X186080929Y-93950451D02*
X186080929Y-93340927D01*
X186080929Y-93340927D02*
X186157119Y-93188546D01*
X186157119Y-93188546D02*
X186233310Y-93112355D01*
X186233310Y-93112355D02*
X186385691Y-93036165D01*
X186385691Y-93036165D02*
X186690453Y-93036165D01*
X186690453Y-93036165D02*
X186842834Y-93112355D01*
X186842834Y-93112355D02*
X186919024Y-93188546D01*
X186919024Y-93188546D02*
X186995215Y-93340927D01*
X186995215Y-93340927D02*
X186995215Y-93721879D01*
X186995215Y-93721879D02*
X186919024Y-93874260D01*
X186919024Y-93874260D02*
X186842834Y-93950451D01*
X186842834Y-93950451D02*
X186690453Y-94026641D01*
X186690453Y-94026641D02*
X186385691Y-94026641D01*
X186385691Y-94026641D02*
X186233310Y-93950451D01*
X186233310Y-93950451D02*
X186157119Y-93874260D01*
X186157119Y-93874260D02*
X186080929Y-93721879D01*
X193242834Y-95688265D02*
X193395215Y-95612075D01*
X193395215Y-95612075D02*
X193623786Y-95612075D01*
X193623786Y-95612075D02*
X193852358Y-95688265D01*
X193852358Y-95688265D02*
X194004739Y-95840646D01*
X194004739Y-95840646D02*
X194080929Y-95993027D01*
X194080929Y-95993027D02*
X194157120Y-96297789D01*
X194157120Y-96297789D02*
X194157120Y-96526361D01*
X194157120Y-96526361D02*
X194080929Y-96831123D01*
X194080929Y-96831123D02*
X194004739Y-96983504D01*
X194004739Y-96983504D02*
X193852358Y-97135885D01*
X193852358Y-97135885D02*
X193623786Y-97212075D01*
X193623786Y-97212075D02*
X193471405Y-97212075D01*
X193471405Y-97212075D02*
X193242834Y-97135885D01*
X193242834Y-97135885D02*
X193166643Y-97059694D01*
X193166643Y-97059694D02*
X193166643Y-96526361D01*
X193166643Y-96526361D02*
X193471405Y-96526361D01*
X192480929Y-97212075D02*
X192480929Y-95612075D01*
X192480929Y-95612075D02*
X191871405Y-95612075D01*
X191871405Y-95612075D02*
X191719024Y-95688265D01*
X191719024Y-95688265D02*
X191642834Y-95764456D01*
X191642834Y-95764456D02*
X191566643Y-95916837D01*
X191566643Y-95916837D02*
X191566643Y-96145408D01*
X191566643Y-96145408D02*
X191642834Y-96297789D01*
X191642834Y-96297789D02*
X191719024Y-96373980D01*
X191719024Y-96373980D02*
X191871405Y-96450170D01*
X191871405Y-96450170D02*
X192480929Y-96450170D01*
X190880929Y-97212075D02*
X190880929Y-95612075D01*
X189814262Y-95612075D02*
X189509500Y-95612075D01*
X189509500Y-95612075D02*
X189357119Y-95688265D01*
X189357119Y-95688265D02*
X189204738Y-95840646D01*
X189204738Y-95840646D02*
X189128548Y-96145408D01*
X189128548Y-96145408D02*
X189128548Y-96678742D01*
X189128548Y-96678742D02*
X189204738Y-96983504D01*
X189204738Y-96983504D02*
X189357119Y-97135885D01*
X189357119Y-97135885D02*
X189509500Y-97212075D01*
X189509500Y-97212075D02*
X189814262Y-97212075D01*
X189814262Y-97212075D02*
X189966643Y-97135885D01*
X189966643Y-97135885D02*
X190119024Y-96983504D01*
X190119024Y-96983504D02*
X190195215Y-96678742D01*
X190195215Y-96678742D02*
X190195215Y-96145408D01*
X190195215Y-96145408D02*
X190119024Y-95840646D01*
X190119024Y-95840646D02*
X189966643Y-95688265D01*
X189966643Y-95688265D02*
X189814262Y-95612075D01*
X187604739Y-97212075D02*
X188519025Y-97212075D01*
X188061882Y-97212075D02*
X188061882Y-95612075D01*
X188061882Y-95612075D02*
X188214263Y-95840646D01*
X188214263Y-95840646D02*
X188366644Y-95993027D01*
X188366644Y-95993027D02*
X188519025Y-96069218D01*
X186690453Y-96297789D02*
X186842834Y-96221599D01*
X186842834Y-96221599D02*
X186919024Y-96145408D01*
X186919024Y-96145408D02*
X186995215Y-95993027D01*
X186995215Y-95993027D02*
X186995215Y-95916837D01*
X186995215Y-95916837D02*
X186919024Y-95764456D01*
X186919024Y-95764456D02*
X186842834Y-95688265D01*
X186842834Y-95688265D02*
X186690453Y-95612075D01*
X186690453Y-95612075D02*
X186385691Y-95612075D01*
X186385691Y-95612075D02*
X186233310Y-95688265D01*
X186233310Y-95688265D02*
X186157119Y-95764456D01*
X186157119Y-95764456D02*
X186080929Y-95916837D01*
X186080929Y-95916837D02*
X186080929Y-95993027D01*
X186080929Y-95993027D02*
X186157119Y-96145408D01*
X186157119Y-96145408D02*
X186233310Y-96221599D01*
X186233310Y-96221599D02*
X186385691Y-96297789D01*
X186385691Y-96297789D02*
X186690453Y-96297789D01*
X186690453Y-96297789D02*
X186842834Y-96373980D01*
X186842834Y-96373980D02*
X186919024Y-96450170D01*
X186919024Y-96450170D02*
X186995215Y-96602551D01*
X186995215Y-96602551D02*
X186995215Y-96907313D01*
X186995215Y-96907313D02*
X186919024Y-97059694D01*
X186919024Y-97059694D02*
X186842834Y-97135885D01*
X186842834Y-97135885D02*
X186690453Y-97212075D01*
X186690453Y-97212075D02*
X186385691Y-97212075D01*
X186385691Y-97212075D02*
X186233310Y-97135885D01*
X186233310Y-97135885D02*
X186157119Y-97059694D01*
X186157119Y-97059694D02*
X186080929Y-96907313D01*
X186080929Y-96907313D02*
X186080929Y-96602551D01*
X186080929Y-96602551D02*
X186157119Y-96450170D01*
X186157119Y-96450170D02*
X186233310Y-96373980D01*
X186233310Y-96373980D02*
X186385691Y-96297789D01*
X193242834Y-98264175D02*
X193395215Y-98187985D01*
X193395215Y-98187985D02*
X193623786Y-98187985D01*
X193623786Y-98187985D02*
X193852358Y-98264175D01*
X193852358Y-98264175D02*
X194004739Y-98416556D01*
X194004739Y-98416556D02*
X194080929Y-98568937D01*
X194080929Y-98568937D02*
X194157120Y-98873699D01*
X194157120Y-98873699D02*
X194157120Y-99102271D01*
X194157120Y-99102271D02*
X194080929Y-99407033D01*
X194080929Y-99407033D02*
X194004739Y-99559414D01*
X194004739Y-99559414D02*
X193852358Y-99711795D01*
X193852358Y-99711795D02*
X193623786Y-99787985D01*
X193623786Y-99787985D02*
X193471405Y-99787985D01*
X193471405Y-99787985D02*
X193242834Y-99711795D01*
X193242834Y-99711795D02*
X193166643Y-99635604D01*
X193166643Y-99635604D02*
X193166643Y-99102271D01*
X193166643Y-99102271D02*
X193471405Y-99102271D01*
X192480929Y-99787985D02*
X192480929Y-98187985D01*
X192480929Y-98187985D02*
X191871405Y-98187985D01*
X191871405Y-98187985D02*
X191719024Y-98264175D01*
X191719024Y-98264175D02*
X191642834Y-98340366D01*
X191642834Y-98340366D02*
X191566643Y-98492747D01*
X191566643Y-98492747D02*
X191566643Y-98721318D01*
X191566643Y-98721318D02*
X191642834Y-98873699D01*
X191642834Y-98873699D02*
X191719024Y-98949890D01*
X191719024Y-98949890D02*
X191871405Y-99026080D01*
X191871405Y-99026080D02*
X192480929Y-99026080D01*
X190880929Y-99787985D02*
X190880929Y-98187985D01*
X189814262Y-98187985D02*
X189509500Y-98187985D01*
X189509500Y-98187985D02*
X189357119Y-98264175D01*
X189357119Y-98264175D02*
X189204738Y-98416556D01*
X189204738Y-98416556D02*
X189128548Y-98721318D01*
X189128548Y-98721318D02*
X189128548Y-99254652D01*
X189128548Y-99254652D02*
X189204738Y-99559414D01*
X189204738Y-99559414D02*
X189357119Y-99711795D01*
X189357119Y-99711795D02*
X189509500Y-99787985D01*
X189509500Y-99787985D02*
X189814262Y-99787985D01*
X189814262Y-99787985D02*
X189966643Y-99711795D01*
X189966643Y-99711795D02*
X190119024Y-99559414D01*
X190119024Y-99559414D02*
X190195215Y-99254652D01*
X190195215Y-99254652D02*
X190195215Y-98721318D01*
X190195215Y-98721318D02*
X190119024Y-98416556D01*
X190119024Y-98416556D02*
X189966643Y-98264175D01*
X189966643Y-98264175D02*
X189814262Y-98187985D01*
X187604739Y-99787985D02*
X188519025Y-99787985D01*
X188061882Y-99787985D02*
X188061882Y-98187985D01*
X188061882Y-98187985D02*
X188214263Y-98416556D01*
X188214263Y-98416556D02*
X188366644Y-98568937D01*
X188366644Y-98568937D02*
X188519025Y-98645128D01*
X187071405Y-98187985D02*
X186004738Y-98187985D01*
X186004738Y-98187985D02*
X186690453Y-99787985D01*
X193242834Y-100840085D02*
X193395215Y-100763895D01*
X193395215Y-100763895D02*
X193623786Y-100763895D01*
X193623786Y-100763895D02*
X193852358Y-100840085D01*
X193852358Y-100840085D02*
X194004739Y-100992466D01*
X194004739Y-100992466D02*
X194080929Y-101144847D01*
X194080929Y-101144847D02*
X194157120Y-101449609D01*
X194157120Y-101449609D02*
X194157120Y-101678181D01*
X194157120Y-101678181D02*
X194080929Y-101982943D01*
X194080929Y-101982943D02*
X194004739Y-102135324D01*
X194004739Y-102135324D02*
X193852358Y-102287705D01*
X193852358Y-102287705D02*
X193623786Y-102363895D01*
X193623786Y-102363895D02*
X193471405Y-102363895D01*
X193471405Y-102363895D02*
X193242834Y-102287705D01*
X193242834Y-102287705D02*
X193166643Y-102211514D01*
X193166643Y-102211514D02*
X193166643Y-101678181D01*
X193166643Y-101678181D02*
X193471405Y-101678181D01*
X192480929Y-102363895D02*
X192480929Y-100763895D01*
X192480929Y-100763895D02*
X191871405Y-100763895D01*
X191871405Y-100763895D02*
X191719024Y-100840085D01*
X191719024Y-100840085D02*
X191642834Y-100916276D01*
X191642834Y-100916276D02*
X191566643Y-101068657D01*
X191566643Y-101068657D02*
X191566643Y-101297228D01*
X191566643Y-101297228D02*
X191642834Y-101449609D01*
X191642834Y-101449609D02*
X191719024Y-101525800D01*
X191719024Y-101525800D02*
X191871405Y-101601990D01*
X191871405Y-101601990D02*
X192480929Y-101601990D01*
X190880929Y-102363895D02*
X190880929Y-100763895D01*
X189814262Y-100763895D02*
X189509500Y-100763895D01*
X189509500Y-100763895D02*
X189357119Y-100840085D01*
X189357119Y-100840085D02*
X189204738Y-100992466D01*
X189204738Y-100992466D02*
X189128548Y-101297228D01*
X189128548Y-101297228D02*
X189128548Y-101830562D01*
X189128548Y-101830562D02*
X189204738Y-102135324D01*
X189204738Y-102135324D02*
X189357119Y-102287705D01*
X189357119Y-102287705D02*
X189509500Y-102363895D01*
X189509500Y-102363895D02*
X189814262Y-102363895D01*
X189814262Y-102363895D02*
X189966643Y-102287705D01*
X189966643Y-102287705D02*
X190119024Y-102135324D01*
X190119024Y-102135324D02*
X190195215Y-101830562D01*
X190195215Y-101830562D02*
X190195215Y-101297228D01*
X190195215Y-101297228D02*
X190119024Y-100992466D01*
X190119024Y-100992466D02*
X189966643Y-100840085D01*
X189966643Y-100840085D02*
X189814262Y-100763895D01*
X187604739Y-102363895D02*
X188519025Y-102363895D01*
X188061882Y-102363895D02*
X188061882Y-100763895D01*
X188061882Y-100763895D02*
X188214263Y-100992466D01*
X188214263Y-100992466D02*
X188366644Y-101144847D01*
X188366644Y-101144847D02*
X188519025Y-101221038D01*
X186233310Y-100763895D02*
X186538072Y-100763895D01*
X186538072Y-100763895D02*
X186690453Y-100840085D01*
X186690453Y-100840085D02*
X186766643Y-100916276D01*
X186766643Y-100916276D02*
X186919024Y-101144847D01*
X186919024Y-101144847D02*
X186995215Y-101449609D01*
X186995215Y-101449609D02*
X186995215Y-102059133D01*
X186995215Y-102059133D02*
X186919024Y-102211514D01*
X186919024Y-102211514D02*
X186842834Y-102287705D01*
X186842834Y-102287705D02*
X186690453Y-102363895D01*
X186690453Y-102363895D02*
X186385691Y-102363895D01*
X186385691Y-102363895D02*
X186233310Y-102287705D01*
X186233310Y-102287705D02*
X186157119Y-102211514D01*
X186157119Y-102211514D02*
X186080929Y-102059133D01*
X186080929Y-102059133D02*
X186080929Y-101678181D01*
X186080929Y-101678181D02*
X186157119Y-101525800D01*
X186157119Y-101525800D02*
X186233310Y-101449609D01*
X186233310Y-101449609D02*
X186385691Y-101373419D01*
X186385691Y-101373419D02*
X186690453Y-101373419D01*
X186690453Y-101373419D02*
X186842834Y-101449609D01*
X186842834Y-101449609D02*
X186919024Y-101525800D01*
X186919024Y-101525800D02*
X186995215Y-101678181D01*
X193242834Y-103415995D02*
X193395215Y-103339805D01*
X193395215Y-103339805D02*
X193623786Y-103339805D01*
X193623786Y-103339805D02*
X193852358Y-103415995D01*
X193852358Y-103415995D02*
X194004739Y-103568376D01*
X194004739Y-103568376D02*
X194080929Y-103720757D01*
X194080929Y-103720757D02*
X194157120Y-104025519D01*
X194157120Y-104025519D02*
X194157120Y-104254091D01*
X194157120Y-104254091D02*
X194080929Y-104558853D01*
X194080929Y-104558853D02*
X194004739Y-104711234D01*
X194004739Y-104711234D02*
X193852358Y-104863615D01*
X193852358Y-104863615D02*
X193623786Y-104939805D01*
X193623786Y-104939805D02*
X193471405Y-104939805D01*
X193471405Y-104939805D02*
X193242834Y-104863615D01*
X193242834Y-104863615D02*
X193166643Y-104787424D01*
X193166643Y-104787424D02*
X193166643Y-104254091D01*
X193166643Y-104254091D02*
X193471405Y-104254091D01*
X192480929Y-104939805D02*
X192480929Y-103339805D01*
X192480929Y-103339805D02*
X191871405Y-103339805D01*
X191871405Y-103339805D02*
X191719024Y-103415995D01*
X191719024Y-103415995D02*
X191642834Y-103492186D01*
X191642834Y-103492186D02*
X191566643Y-103644567D01*
X191566643Y-103644567D02*
X191566643Y-103873138D01*
X191566643Y-103873138D02*
X191642834Y-104025519D01*
X191642834Y-104025519D02*
X191719024Y-104101710D01*
X191719024Y-104101710D02*
X191871405Y-104177900D01*
X191871405Y-104177900D02*
X192480929Y-104177900D01*
X190880929Y-104939805D02*
X190880929Y-103339805D01*
X189814262Y-103339805D02*
X189509500Y-103339805D01*
X189509500Y-103339805D02*
X189357119Y-103415995D01*
X189357119Y-103415995D02*
X189204738Y-103568376D01*
X189204738Y-103568376D02*
X189128548Y-103873138D01*
X189128548Y-103873138D02*
X189128548Y-104406472D01*
X189128548Y-104406472D02*
X189204738Y-104711234D01*
X189204738Y-104711234D02*
X189357119Y-104863615D01*
X189357119Y-104863615D02*
X189509500Y-104939805D01*
X189509500Y-104939805D02*
X189814262Y-104939805D01*
X189814262Y-104939805D02*
X189966643Y-104863615D01*
X189966643Y-104863615D02*
X190119024Y-104711234D01*
X190119024Y-104711234D02*
X190195215Y-104406472D01*
X190195215Y-104406472D02*
X190195215Y-103873138D01*
X190195215Y-103873138D02*
X190119024Y-103568376D01*
X190119024Y-103568376D02*
X189966643Y-103415995D01*
X189966643Y-103415995D02*
X189814262Y-103339805D01*
X187604739Y-104939805D02*
X188519025Y-104939805D01*
X188061882Y-104939805D02*
X188061882Y-103339805D01*
X188061882Y-103339805D02*
X188214263Y-103568376D01*
X188214263Y-103568376D02*
X188366644Y-103720757D01*
X188366644Y-103720757D02*
X188519025Y-103796948D01*
X186157119Y-103339805D02*
X186919024Y-103339805D01*
X186919024Y-103339805D02*
X186995215Y-104101710D01*
X186995215Y-104101710D02*
X186919024Y-104025519D01*
X186919024Y-104025519D02*
X186766643Y-103949329D01*
X186766643Y-103949329D02*
X186385691Y-103949329D01*
X186385691Y-103949329D02*
X186233310Y-104025519D01*
X186233310Y-104025519D02*
X186157119Y-104101710D01*
X186157119Y-104101710D02*
X186080929Y-104254091D01*
X186080929Y-104254091D02*
X186080929Y-104635043D01*
X186080929Y-104635043D02*
X186157119Y-104787424D01*
X186157119Y-104787424D02*
X186233310Y-104863615D01*
X186233310Y-104863615D02*
X186385691Y-104939805D01*
X186385691Y-104939805D02*
X186766643Y-104939805D01*
X186766643Y-104939805D02*
X186919024Y-104863615D01*
X186919024Y-104863615D02*
X186995215Y-104787424D01*
X193242834Y-105991905D02*
X193395215Y-105915715D01*
X193395215Y-105915715D02*
X193623786Y-105915715D01*
X193623786Y-105915715D02*
X193852358Y-105991905D01*
X193852358Y-105991905D02*
X194004739Y-106144286D01*
X194004739Y-106144286D02*
X194080929Y-106296667D01*
X194080929Y-106296667D02*
X194157120Y-106601429D01*
X194157120Y-106601429D02*
X194157120Y-106830001D01*
X194157120Y-106830001D02*
X194080929Y-107134763D01*
X194080929Y-107134763D02*
X194004739Y-107287144D01*
X194004739Y-107287144D02*
X193852358Y-107439525D01*
X193852358Y-107439525D02*
X193623786Y-107515715D01*
X193623786Y-107515715D02*
X193471405Y-107515715D01*
X193471405Y-107515715D02*
X193242834Y-107439525D01*
X193242834Y-107439525D02*
X193166643Y-107363334D01*
X193166643Y-107363334D02*
X193166643Y-106830001D01*
X193166643Y-106830001D02*
X193471405Y-106830001D01*
X192480929Y-107515715D02*
X192480929Y-105915715D01*
X192480929Y-105915715D02*
X191871405Y-105915715D01*
X191871405Y-105915715D02*
X191719024Y-105991905D01*
X191719024Y-105991905D02*
X191642834Y-106068096D01*
X191642834Y-106068096D02*
X191566643Y-106220477D01*
X191566643Y-106220477D02*
X191566643Y-106449048D01*
X191566643Y-106449048D02*
X191642834Y-106601429D01*
X191642834Y-106601429D02*
X191719024Y-106677620D01*
X191719024Y-106677620D02*
X191871405Y-106753810D01*
X191871405Y-106753810D02*
X192480929Y-106753810D01*
X190880929Y-107515715D02*
X190880929Y-105915715D01*
X189814262Y-105915715D02*
X189509500Y-105915715D01*
X189509500Y-105915715D02*
X189357119Y-105991905D01*
X189357119Y-105991905D02*
X189204738Y-106144286D01*
X189204738Y-106144286D02*
X189128548Y-106449048D01*
X189128548Y-106449048D02*
X189128548Y-106982382D01*
X189128548Y-106982382D02*
X189204738Y-107287144D01*
X189204738Y-107287144D02*
X189357119Y-107439525D01*
X189357119Y-107439525D02*
X189509500Y-107515715D01*
X189509500Y-107515715D02*
X189814262Y-107515715D01*
X189814262Y-107515715D02*
X189966643Y-107439525D01*
X189966643Y-107439525D02*
X190119024Y-107287144D01*
X190119024Y-107287144D02*
X190195215Y-106982382D01*
X190195215Y-106982382D02*
X190195215Y-106449048D01*
X190195215Y-106449048D02*
X190119024Y-106144286D01*
X190119024Y-106144286D02*
X189966643Y-105991905D01*
X189966643Y-105991905D02*
X189814262Y-105915715D01*
X187604739Y-107515715D02*
X188519025Y-107515715D01*
X188061882Y-107515715D02*
X188061882Y-105915715D01*
X188061882Y-105915715D02*
X188214263Y-106144286D01*
X188214263Y-106144286D02*
X188366644Y-106296667D01*
X188366644Y-106296667D02*
X188519025Y-106372858D01*
X186233310Y-106449048D02*
X186233310Y-107515715D01*
X186614262Y-105839525D02*
X186995215Y-106982382D01*
X186995215Y-106982382D02*
X186004738Y-106982382D01*
X193242834Y-108567815D02*
X193395215Y-108491625D01*
X193395215Y-108491625D02*
X193623786Y-108491625D01*
X193623786Y-108491625D02*
X193852358Y-108567815D01*
X193852358Y-108567815D02*
X194004739Y-108720196D01*
X194004739Y-108720196D02*
X194080929Y-108872577D01*
X194080929Y-108872577D02*
X194157120Y-109177339D01*
X194157120Y-109177339D02*
X194157120Y-109405911D01*
X194157120Y-109405911D02*
X194080929Y-109710673D01*
X194080929Y-109710673D02*
X194004739Y-109863054D01*
X194004739Y-109863054D02*
X193852358Y-110015435D01*
X193852358Y-110015435D02*
X193623786Y-110091625D01*
X193623786Y-110091625D02*
X193471405Y-110091625D01*
X193471405Y-110091625D02*
X193242834Y-110015435D01*
X193242834Y-110015435D02*
X193166643Y-109939244D01*
X193166643Y-109939244D02*
X193166643Y-109405911D01*
X193166643Y-109405911D02*
X193471405Y-109405911D01*
X192480929Y-110091625D02*
X192480929Y-108491625D01*
X192480929Y-108491625D02*
X191871405Y-108491625D01*
X191871405Y-108491625D02*
X191719024Y-108567815D01*
X191719024Y-108567815D02*
X191642834Y-108644006D01*
X191642834Y-108644006D02*
X191566643Y-108796387D01*
X191566643Y-108796387D02*
X191566643Y-109024958D01*
X191566643Y-109024958D02*
X191642834Y-109177339D01*
X191642834Y-109177339D02*
X191719024Y-109253530D01*
X191719024Y-109253530D02*
X191871405Y-109329720D01*
X191871405Y-109329720D02*
X192480929Y-109329720D01*
X190880929Y-110091625D02*
X190880929Y-108491625D01*
X189814262Y-108491625D02*
X189509500Y-108491625D01*
X189509500Y-108491625D02*
X189357119Y-108567815D01*
X189357119Y-108567815D02*
X189204738Y-108720196D01*
X189204738Y-108720196D02*
X189128548Y-109024958D01*
X189128548Y-109024958D02*
X189128548Y-109558292D01*
X189128548Y-109558292D02*
X189204738Y-109863054D01*
X189204738Y-109863054D02*
X189357119Y-110015435D01*
X189357119Y-110015435D02*
X189509500Y-110091625D01*
X189509500Y-110091625D02*
X189814262Y-110091625D01*
X189814262Y-110091625D02*
X189966643Y-110015435D01*
X189966643Y-110015435D02*
X190119024Y-109863054D01*
X190119024Y-109863054D02*
X190195215Y-109558292D01*
X190195215Y-109558292D02*
X190195215Y-109024958D01*
X190195215Y-109024958D02*
X190119024Y-108720196D01*
X190119024Y-108720196D02*
X189966643Y-108567815D01*
X189966643Y-108567815D02*
X189814262Y-108491625D01*
X187604739Y-110091625D02*
X188519025Y-110091625D01*
X188061882Y-110091625D02*
X188061882Y-108491625D01*
X188061882Y-108491625D02*
X188214263Y-108720196D01*
X188214263Y-108720196D02*
X188366644Y-108872577D01*
X188366644Y-108872577D02*
X188519025Y-108948768D01*
X187071405Y-108491625D02*
X186080929Y-108491625D01*
X186080929Y-108491625D02*
X186614262Y-109101149D01*
X186614262Y-109101149D02*
X186385691Y-109101149D01*
X186385691Y-109101149D02*
X186233310Y-109177339D01*
X186233310Y-109177339D02*
X186157119Y-109253530D01*
X186157119Y-109253530D02*
X186080929Y-109405911D01*
X186080929Y-109405911D02*
X186080929Y-109786863D01*
X186080929Y-109786863D02*
X186157119Y-109939244D01*
X186157119Y-109939244D02*
X186233310Y-110015435D01*
X186233310Y-110015435D02*
X186385691Y-110091625D01*
X186385691Y-110091625D02*
X186842834Y-110091625D01*
X186842834Y-110091625D02*
X186995215Y-110015435D01*
X186995215Y-110015435D02*
X187071405Y-109939244D01*
X193242834Y-111143725D02*
X193395215Y-111067535D01*
X193395215Y-111067535D02*
X193623786Y-111067535D01*
X193623786Y-111067535D02*
X193852358Y-111143725D01*
X193852358Y-111143725D02*
X194004739Y-111296106D01*
X194004739Y-111296106D02*
X194080929Y-111448487D01*
X194080929Y-111448487D02*
X194157120Y-111753249D01*
X194157120Y-111753249D02*
X194157120Y-111981821D01*
X194157120Y-111981821D02*
X194080929Y-112286583D01*
X194080929Y-112286583D02*
X194004739Y-112438964D01*
X194004739Y-112438964D02*
X193852358Y-112591345D01*
X193852358Y-112591345D02*
X193623786Y-112667535D01*
X193623786Y-112667535D02*
X193471405Y-112667535D01*
X193471405Y-112667535D02*
X193242834Y-112591345D01*
X193242834Y-112591345D02*
X193166643Y-112515154D01*
X193166643Y-112515154D02*
X193166643Y-111981821D01*
X193166643Y-111981821D02*
X193471405Y-111981821D01*
X192480929Y-112667535D02*
X192480929Y-111067535D01*
X192480929Y-111067535D02*
X191871405Y-111067535D01*
X191871405Y-111067535D02*
X191719024Y-111143725D01*
X191719024Y-111143725D02*
X191642834Y-111219916D01*
X191642834Y-111219916D02*
X191566643Y-111372297D01*
X191566643Y-111372297D02*
X191566643Y-111600868D01*
X191566643Y-111600868D02*
X191642834Y-111753249D01*
X191642834Y-111753249D02*
X191719024Y-111829440D01*
X191719024Y-111829440D02*
X191871405Y-111905630D01*
X191871405Y-111905630D02*
X192480929Y-111905630D01*
X190880929Y-112667535D02*
X190880929Y-111067535D01*
X189814262Y-111067535D02*
X189509500Y-111067535D01*
X189509500Y-111067535D02*
X189357119Y-111143725D01*
X189357119Y-111143725D02*
X189204738Y-111296106D01*
X189204738Y-111296106D02*
X189128548Y-111600868D01*
X189128548Y-111600868D02*
X189128548Y-112134202D01*
X189128548Y-112134202D02*
X189204738Y-112438964D01*
X189204738Y-112438964D02*
X189357119Y-112591345D01*
X189357119Y-112591345D02*
X189509500Y-112667535D01*
X189509500Y-112667535D02*
X189814262Y-112667535D01*
X189814262Y-112667535D02*
X189966643Y-112591345D01*
X189966643Y-112591345D02*
X190119024Y-112438964D01*
X190119024Y-112438964D02*
X190195215Y-112134202D01*
X190195215Y-112134202D02*
X190195215Y-111600868D01*
X190195215Y-111600868D02*
X190119024Y-111296106D01*
X190119024Y-111296106D02*
X189966643Y-111143725D01*
X189966643Y-111143725D02*
X189814262Y-111067535D01*
X187604739Y-112667535D02*
X188519025Y-112667535D01*
X188061882Y-112667535D02*
X188061882Y-111067535D01*
X188061882Y-111067535D02*
X188214263Y-111296106D01*
X188214263Y-111296106D02*
X188366644Y-111448487D01*
X188366644Y-111448487D02*
X188519025Y-111524678D01*
X186995215Y-111219916D02*
X186919024Y-111143725D01*
X186919024Y-111143725D02*
X186766643Y-111067535D01*
X186766643Y-111067535D02*
X186385691Y-111067535D01*
X186385691Y-111067535D02*
X186233310Y-111143725D01*
X186233310Y-111143725D02*
X186157119Y-111219916D01*
X186157119Y-111219916D02*
X186080929Y-111372297D01*
X186080929Y-111372297D02*
X186080929Y-111524678D01*
X186080929Y-111524678D02*
X186157119Y-111753249D01*
X186157119Y-111753249D02*
X187071405Y-112667535D01*
X187071405Y-112667535D02*
X186080929Y-112667535D01*
X193242834Y-113719635D02*
X193395215Y-113643445D01*
X193395215Y-113643445D02*
X193623786Y-113643445D01*
X193623786Y-113643445D02*
X193852358Y-113719635D01*
X193852358Y-113719635D02*
X194004739Y-113872016D01*
X194004739Y-113872016D02*
X194080929Y-114024397D01*
X194080929Y-114024397D02*
X194157120Y-114329159D01*
X194157120Y-114329159D02*
X194157120Y-114557731D01*
X194157120Y-114557731D02*
X194080929Y-114862493D01*
X194080929Y-114862493D02*
X194004739Y-115014874D01*
X194004739Y-115014874D02*
X193852358Y-115167255D01*
X193852358Y-115167255D02*
X193623786Y-115243445D01*
X193623786Y-115243445D02*
X193471405Y-115243445D01*
X193471405Y-115243445D02*
X193242834Y-115167255D01*
X193242834Y-115167255D02*
X193166643Y-115091064D01*
X193166643Y-115091064D02*
X193166643Y-114557731D01*
X193166643Y-114557731D02*
X193471405Y-114557731D01*
X192480929Y-115243445D02*
X192480929Y-113643445D01*
X192480929Y-113643445D02*
X191871405Y-113643445D01*
X191871405Y-113643445D02*
X191719024Y-113719635D01*
X191719024Y-113719635D02*
X191642834Y-113795826D01*
X191642834Y-113795826D02*
X191566643Y-113948207D01*
X191566643Y-113948207D02*
X191566643Y-114176778D01*
X191566643Y-114176778D02*
X191642834Y-114329159D01*
X191642834Y-114329159D02*
X191719024Y-114405350D01*
X191719024Y-114405350D02*
X191871405Y-114481540D01*
X191871405Y-114481540D02*
X192480929Y-114481540D01*
X190880929Y-115243445D02*
X190880929Y-113643445D01*
X189814262Y-113643445D02*
X189509500Y-113643445D01*
X189509500Y-113643445D02*
X189357119Y-113719635D01*
X189357119Y-113719635D02*
X189204738Y-113872016D01*
X189204738Y-113872016D02*
X189128548Y-114176778D01*
X189128548Y-114176778D02*
X189128548Y-114710112D01*
X189128548Y-114710112D02*
X189204738Y-115014874D01*
X189204738Y-115014874D02*
X189357119Y-115167255D01*
X189357119Y-115167255D02*
X189509500Y-115243445D01*
X189509500Y-115243445D02*
X189814262Y-115243445D01*
X189814262Y-115243445D02*
X189966643Y-115167255D01*
X189966643Y-115167255D02*
X190119024Y-115014874D01*
X190119024Y-115014874D02*
X190195215Y-114710112D01*
X190195215Y-114710112D02*
X190195215Y-114176778D01*
X190195215Y-114176778D02*
X190119024Y-113872016D01*
X190119024Y-113872016D02*
X189966643Y-113719635D01*
X189966643Y-113719635D02*
X189814262Y-113643445D01*
X187604739Y-115243445D02*
X188519025Y-115243445D01*
X188061882Y-115243445D02*
X188061882Y-113643445D01*
X188061882Y-113643445D02*
X188214263Y-113872016D01*
X188214263Y-113872016D02*
X188366644Y-114024397D01*
X188366644Y-114024397D02*
X188519025Y-114100588D01*
X186080929Y-115243445D02*
X186995215Y-115243445D01*
X186538072Y-115243445D02*
X186538072Y-113643445D01*
X186538072Y-113643445D02*
X186690453Y-113872016D01*
X186690453Y-113872016D02*
X186842834Y-114024397D01*
X186842834Y-114024397D02*
X186995215Y-114100588D01*
X193242834Y-116295545D02*
X193395215Y-116219355D01*
X193395215Y-116219355D02*
X193623786Y-116219355D01*
X193623786Y-116219355D02*
X193852358Y-116295545D01*
X193852358Y-116295545D02*
X194004739Y-116447926D01*
X194004739Y-116447926D02*
X194080929Y-116600307D01*
X194080929Y-116600307D02*
X194157120Y-116905069D01*
X194157120Y-116905069D02*
X194157120Y-117133641D01*
X194157120Y-117133641D02*
X194080929Y-117438403D01*
X194080929Y-117438403D02*
X194004739Y-117590784D01*
X194004739Y-117590784D02*
X193852358Y-117743165D01*
X193852358Y-117743165D02*
X193623786Y-117819355D01*
X193623786Y-117819355D02*
X193471405Y-117819355D01*
X193471405Y-117819355D02*
X193242834Y-117743165D01*
X193242834Y-117743165D02*
X193166643Y-117666974D01*
X193166643Y-117666974D02*
X193166643Y-117133641D01*
X193166643Y-117133641D02*
X193471405Y-117133641D01*
X192480929Y-117819355D02*
X192480929Y-116219355D01*
X192480929Y-116219355D02*
X191871405Y-116219355D01*
X191871405Y-116219355D02*
X191719024Y-116295545D01*
X191719024Y-116295545D02*
X191642834Y-116371736D01*
X191642834Y-116371736D02*
X191566643Y-116524117D01*
X191566643Y-116524117D02*
X191566643Y-116752688D01*
X191566643Y-116752688D02*
X191642834Y-116905069D01*
X191642834Y-116905069D02*
X191719024Y-116981260D01*
X191719024Y-116981260D02*
X191871405Y-117057450D01*
X191871405Y-117057450D02*
X192480929Y-117057450D01*
X190880929Y-117819355D02*
X190880929Y-116219355D01*
X189814262Y-116219355D02*
X189509500Y-116219355D01*
X189509500Y-116219355D02*
X189357119Y-116295545D01*
X189357119Y-116295545D02*
X189204738Y-116447926D01*
X189204738Y-116447926D02*
X189128548Y-116752688D01*
X189128548Y-116752688D02*
X189128548Y-117286022D01*
X189128548Y-117286022D02*
X189204738Y-117590784D01*
X189204738Y-117590784D02*
X189357119Y-117743165D01*
X189357119Y-117743165D02*
X189509500Y-117819355D01*
X189509500Y-117819355D02*
X189814262Y-117819355D01*
X189814262Y-117819355D02*
X189966643Y-117743165D01*
X189966643Y-117743165D02*
X190119024Y-117590784D01*
X190119024Y-117590784D02*
X190195215Y-117286022D01*
X190195215Y-117286022D02*
X190195215Y-116752688D01*
X190195215Y-116752688D02*
X190119024Y-116447926D01*
X190119024Y-116447926D02*
X189966643Y-116295545D01*
X189966643Y-116295545D02*
X189814262Y-116219355D01*
X187604739Y-117819355D02*
X188519025Y-117819355D01*
X188061882Y-117819355D02*
X188061882Y-116219355D01*
X188061882Y-116219355D02*
X188214263Y-116447926D01*
X188214263Y-116447926D02*
X188366644Y-116600307D01*
X188366644Y-116600307D02*
X188519025Y-116676498D01*
X186614262Y-116219355D02*
X186461881Y-116219355D01*
X186461881Y-116219355D02*
X186309500Y-116295545D01*
X186309500Y-116295545D02*
X186233310Y-116371736D01*
X186233310Y-116371736D02*
X186157119Y-116524117D01*
X186157119Y-116524117D02*
X186080929Y-116828879D01*
X186080929Y-116828879D02*
X186080929Y-117209831D01*
X186080929Y-117209831D02*
X186157119Y-117514593D01*
X186157119Y-117514593D02*
X186233310Y-117666974D01*
X186233310Y-117666974D02*
X186309500Y-117743165D01*
X186309500Y-117743165D02*
X186461881Y-117819355D01*
X186461881Y-117819355D02*
X186614262Y-117819355D01*
X186614262Y-117819355D02*
X186766643Y-117743165D01*
X186766643Y-117743165D02*
X186842834Y-117666974D01*
X186842834Y-117666974D02*
X186919024Y-117514593D01*
X186919024Y-117514593D02*
X186995215Y-117209831D01*
X186995215Y-117209831D02*
X186995215Y-116828879D01*
X186995215Y-116828879D02*
X186919024Y-116524117D01*
X186919024Y-116524117D02*
X186842834Y-116371736D01*
X186842834Y-116371736D02*
X186766643Y-116295545D01*
X186766643Y-116295545D02*
X186614262Y-116219355D01*
X193242834Y-118871455D02*
X193395215Y-118795265D01*
X193395215Y-118795265D02*
X193623786Y-118795265D01*
X193623786Y-118795265D02*
X193852358Y-118871455D01*
X193852358Y-118871455D02*
X194004739Y-119023836D01*
X194004739Y-119023836D02*
X194080929Y-119176217D01*
X194080929Y-119176217D02*
X194157120Y-119480979D01*
X194157120Y-119480979D02*
X194157120Y-119709551D01*
X194157120Y-119709551D02*
X194080929Y-120014313D01*
X194080929Y-120014313D02*
X194004739Y-120166694D01*
X194004739Y-120166694D02*
X193852358Y-120319075D01*
X193852358Y-120319075D02*
X193623786Y-120395265D01*
X193623786Y-120395265D02*
X193471405Y-120395265D01*
X193471405Y-120395265D02*
X193242834Y-120319075D01*
X193242834Y-120319075D02*
X193166643Y-120242884D01*
X193166643Y-120242884D02*
X193166643Y-119709551D01*
X193166643Y-119709551D02*
X193471405Y-119709551D01*
X192480929Y-120395265D02*
X192480929Y-118795265D01*
X192480929Y-118795265D02*
X191566643Y-120395265D01*
X191566643Y-120395265D02*
X191566643Y-118795265D01*
X190804739Y-120395265D02*
X190804739Y-118795265D01*
X190804739Y-118795265D02*
X190423787Y-118795265D01*
X190423787Y-118795265D02*
X190195215Y-118871455D01*
X190195215Y-118871455D02*
X190042834Y-119023836D01*
X190042834Y-119023836D02*
X189966644Y-119176217D01*
X189966644Y-119176217D02*
X189890453Y-119480979D01*
X189890453Y-119480979D02*
X189890453Y-119709551D01*
X189890453Y-119709551D02*
X189966644Y-120014313D01*
X189966644Y-120014313D02*
X190042834Y-120166694D01*
X190042834Y-120166694D02*
X190195215Y-120319075D01*
X190195215Y-120319075D02*
X190423787Y-120395265D01*
X190423787Y-120395265D02*
X190804739Y-120395265D01*
X195107578Y-85629982D02*
X195107578Y-86558554D01*
X195107578Y-86558554D02*
X195679007Y-86058554D01*
X195679007Y-86058554D02*
X195679007Y-86272839D01*
X195679007Y-86272839D02*
X195750435Y-86415697D01*
X195750435Y-86415697D02*
X195821864Y-86487125D01*
X195821864Y-86487125D02*
X195964721Y-86558554D01*
X195964721Y-86558554D02*
X196321864Y-86558554D01*
X196321864Y-86558554D02*
X196464721Y-86487125D01*
X196464721Y-86487125D02*
X196536150Y-86415697D01*
X196536150Y-86415697D02*
X196607578Y-86272839D01*
X196607578Y-86272839D02*
X196607578Y-85844268D01*
X196607578Y-85844268D02*
X196536150Y-85701411D01*
X196536150Y-85701411D02*
X196464721Y-85629982D01*
X195107578Y-86987125D02*
X196607578Y-87487125D01*
X196607578Y-87487125D02*
X195107578Y-87987125D01*
X195107578Y-88344267D02*
X195107578Y-89272839D01*
X195107578Y-89272839D02*
X195679007Y-88772839D01*
X195679007Y-88772839D02*
X195679007Y-88987124D01*
X195679007Y-88987124D02*
X195750435Y-89129982D01*
X195750435Y-89129982D02*
X195821864Y-89201410D01*
X195821864Y-89201410D02*
X195964721Y-89272839D01*
X195964721Y-89272839D02*
X196321864Y-89272839D01*
X196321864Y-89272839D02*
X196464721Y-89201410D01*
X196464721Y-89201410D02*
X196536150Y-89129982D01*
X196536150Y-89129982D02*
X196607578Y-88987124D01*
X196607578Y-88987124D02*
X196607578Y-88558553D01*
X196607578Y-88558553D02*
X196536150Y-88415696D01*
X196536150Y-88415696D02*
X196464721Y-88344267D01*
X201489150Y-85578411D02*
X201560578Y-85792697D01*
X201560578Y-85792697D02*
X201560578Y-86149839D01*
X201560578Y-86149839D02*
X201489150Y-86292697D01*
X201489150Y-86292697D02*
X201417721Y-86364125D01*
X201417721Y-86364125D02*
X201274864Y-86435554D01*
X201274864Y-86435554D02*
X201132007Y-86435554D01*
X201132007Y-86435554D02*
X200989150Y-86364125D01*
X200989150Y-86364125D02*
X200917721Y-86292697D01*
X200917721Y-86292697D02*
X200846292Y-86149839D01*
X200846292Y-86149839D02*
X200774864Y-85864125D01*
X200774864Y-85864125D02*
X200703435Y-85721268D01*
X200703435Y-85721268D02*
X200632007Y-85649839D01*
X200632007Y-85649839D02*
X200489150Y-85578411D01*
X200489150Y-85578411D02*
X200346292Y-85578411D01*
X200346292Y-85578411D02*
X200203435Y-85649839D01*
X200203435Y-85649839D02*
X200132007Y-85721268D01*
X200132007Y-85721268D02*
X200060578Y-85864125D01*
X200060578Y-85864125D02*
X200060578Y-86221268D01*
X200060578Y-86221268D02*
X200132007Y-86435554D01*
X200060578Y-86935553D02*
X201560578Y-87292696D01*
X201560578Y-87292696D02*
X200489150Y-87578410D01*
X200489150Y-87578410D02*
X201560578Y-87864125D01*
X201560578Y-87864125D02*
X200060578Y-88221268D01*
X201560578Y-88792696D02*
X200060578Y-88792696D01*
X200060578Y-88792696D02*
X200060578Y-89149839D01*
X200060578Y-89149839D02*
X200132007Y-89364125D01*
X200132007Y-89364125D02*
X200274864Y-89506982D01*
X200274864Y-89506982D02*
X200417721Y-89578411D01*
X200417721Y-89578411D02*
X200703435Y-89649839D01*
X200703435Y-89649839D02*
X200917721Y-89649839D01*
X200917721Y-89649839D02*
X201203435Y-89578411D01*
X201203435Y-89578411D02*
X201346292Y-89506982D01*
X201346292Y-89506982D02*
X201489150Y-89364125D01*
X201489150Y-89364125D02*
X201560578Y-89149839D01*
X201560578Y-89149839D02*
X201560578Y-88792696D01*
X214875393Y-43104453D02*
X214875393Y-44318739D01*
X214875393Y-44318739D02*
X214803964Y-44461596D01*
X214803964Y-44461596D02*
X214732536Y-44533025D01*
X214732536Y-44533025D02*
X214589678Y-44604453D01*
X214589678Y-44604453D02*
X214303964Y-44604453D01*
X214303964Y-44604453D02*
X214161107Y-44533025D01*
X214161107Y-44533025D02*
X214089678Y-44461596D01*
X214089678Y-44461596D02*
X214018250Y-44318739D01*
X214018250Y-44318739D02*
X214018250Y-43104453D01*
X213375392Y-44533025D02*
X213161107Y-44604453D01*
X213161107Y-44604453D02*
X212803964Y-44604453D01*
X212803964Y-44604453D02*
X212661107Y-44533025D01*
X212661107Y-44533025D02*
X212589678Y-44461596D01*
X212589678Y-44461596D02*
X212518249Y-44318739D01*
X212518249Y-44318739D02*
X212518249Y-44175882D01*
X212518249Y-44175882D02*
X212589678Y-44033025D01*
X212589678Y-44033025D02*
X212661107Y-43961596D01*
X212661107Y-43961596D02*
X212803964Y-43890167D01*
X212803964Y-43890167D02*
X213089678Y-43818739D01*
X213089678Y-43818739D02*
X213232535Y-43747310D01*
X213232535Y-43747310D02*
X213303964Y-43675882D01*
X213303964Y-43675882D02*
X213375392Y-43533025D01*
X213375392Y-43533025D02*
X213375392Y-43390167D01*
X213375392Y-43390167D02*
X213303964Y-43247310D01*
X213303964Y-43247310D02*
X213232535Y-43175882D01*
X213232535Y-43175882D02*
X213089678Y-43104453D01*
X213089678Y-43104453D02*
X212732535Y-43104453D01*
X212732535Y-43104453D02*
X212518249Y-43175882D01*
X211375393Y-43818739D02*
X211161107Y-43890167D01*
X211161107Y-43890167D02*
X211089678Y-43961596D01*
X211089678Y-43961596D02*
X211018250Y-44104453D01*
X211018250Y-44104453D02*
X211018250Y-44318739D01*
X211018250Y-44318739D02*
X211089678Y-44461596D01*
X211089678Y-44461596D02*
X211161107Y-44533025D01*
X211161107Y-44533025D02*
X211303964Y-44604453D01*
X211303964Y-44604453D02*
X211875393Y-44604453D01*
X211875393Y-44604453D02*
X211875393Y-43104453D01*
X211875393Y-43104453D02*
X211375393Y-43104453D01*
X211375393Y-43104453D02*
X211232536Y-43175882D01*
X211232536Y-43175882D02*
X211161107Y-43247310D01*
X211161107Y-43247310D02*
X211089678Y-43390167D01*
X211089678Y-43390167D02*
X211089678Y-43533025D01*
X211089678Y-43533025D02*
X211161107Y-43675882D01*
X211161107Y-43675882D02*
X211232536Y-43747310D01*
X211232536Y-43747310D02*
X211375393Y-43818739D01*
X211375393Y-43818739D02*
X211875393Y-43818739D01*
X208732536Y-43818739D02*
X208518250Y-43890167D01*
X208518250Y-43890167D02*
X208446821Y-43961596D01*
X208446821Y-43961596D02*
X208375393Y-44104453D01*
X208375393Y-44104453D02*
X208375393Y-44318739D01*
X208375393Y-44318739D02*
X208446821Y-44461596D01*
X208446821Y-44461596D02*
X208518250Y-44533025D01*
X208518250Y-44533025D02*
X208661107Y-44604453D01*
X208661107Y-44604453D02*
X209232536Y-44604453D01*
X209232536Y-44604453D02*
X209232536Y-43104453D01*
X209232536Y-43104453D02*
X208732536Y-43104453D01*
X208732536Y-43104453D02*
X208589679Y-43175882D01*
X208589679Y-43175882D02*
X208518250Y-43247310D01*
X208518250Y-43247310D02*
X208446821Y-43390167D01*
X208446821Y-43390167D02*
X208446821Y-43533025D01*
X208446821Y-43533025D02*
X208518250Y-43675882D01*
X208518250Y-43675882D02*
X208589679Y-43747310D01*
X208589679Y-43747310D02*
X208732536Y-43818739D01*
X208732536Y-43818739D02*
X209232536Y-43818739D01*
X207446821Y-43104453D02*
X207161107Y-43104453D01*
X207161107Y-43104453D02*
X207018250Y-43175882D01*
X207018250Y-43175882D02*
X206875393Y-43318739D01*
X206875393Y-43318739D02*
X206803964Y-43604453D01*
X206803964Y-43604453D02*
X206803964Y-44104453D01*
X206803964Y-44104453D02*
X206875393Y-44390167D01*
X206875393Y-44390167D02*
X207018250Y-44533025D01*
X207018250Y-44533025D02*
X207161107Y-44604453D01*
X207161107Y-44604453D02*
X207446821Y-44604453D01*
X207446821Y-44604453D02*
X207589679Y-44533025D01*
X207589679Y-44533025D02*
X207732536Y-44390167D01*
X207732536Y-44390167D02*
X207803964Y-44104453D01*
X207803964Y-44104453D02*
X207803964Y-43604453D01*
X207803964Y-43604453D02*
X207732536Y-43318739D01*
X207732536Y-43318739D02*
X207589679Y-43175882D01*
X207589679Y-43175882D02*
X207446821Y-43104453D01*
X205875392Y-43104453D02*
X205589678Y-43104453D01*
X205589678Y-43104453D02*
X205446821Y-43175882D01*
X205446821Y-43175882D02*
X205303964Y-43318739D01*
X205303964Y-43318739D02*
X205232535Y-43604453D01*
X205232535Y-43604453D02*
X205232535Y-44104453D01*
X205232535Y-44104453D02*
X205303964Y-44390167D01*
X205303964Y-44390167D02*
X205446821Y-44533025D01*
X205446821Y-44533025D02*
X205589678Y-44604453D01*
X205589678Y-44604453D02*
X205875392Y-44604453D01*
X205875392Y-44604453D02*
X206018250Y-44533025D01*
X206018250Y-44533025D02*
X206161107Y-44390167D01*
X206161107Y-44390167D02*
X206232535Y-44104453D01*
X206232535Y-44104453D02*
X206232535Y-43604453D01*
X206232535Y-43604453D02*
X206161107Y-43318739D01*
X206161107Y-43318739D02*
X206018250Y-43175882D01*
X206018250Y-43175882D02*
X205875392Y-43104453D01*
X204803963Y-43104453D02*
X203946821Y-43104453D01*
X204375392Y-44604453D02*
X204375392Y-43104453D01*
D12*
X196167951Y-33030444D02*
X196167951Y-33744729D01*
X196167951Y-33744729D02*
X196120332Y-33887586D01*
X196120332Y-33887586D02*
X196025094Y-33982825D01*
X196025094Y-33982825D02*
X195882237Y-34030444D01*
X195882237Y-34030444D02*
X195786999Y-34030444D01*
X197120332Y-34030444D02*
X196644142Y-34030444D01*
X196644142Y-34030444D02*
X196644142Y-33030444D01*
X198025094Y-33935205D02*
X197977475Y-33982825D01*
X197977475Y-33982825D02*
X197834618Y-34030444D01*
X197834618Y-34030444D02*
X197739380Y-34030444D01*
X197739380Y-34030444D02*
X197596523Y-33982825D01*
X197596523Y-33982825D02*
X197501285Y-33887586D01*
X197501285Y-33887586D02*
X197453666Y-33792348D01*
X197453666Y-33792348D02*
X197406047Y-33601872D01*
X197406047Y-33601872D02*
X197406047Y-33459015D01*
X197406047Y-33459015D02*
X197453666Y-33268539D01*
X197453666Y-33268539D02*
X197501285Y-33173301D01*
X197501285Y-33173301D02*
X197596523Y-33078063D01*
X197596523Y-33078063D02*
X197739380Y-33030444D01*
X197739380Y-33030444D02*
X197834618Y-33030444D01*
X197834618Y-33030444D02*
X197977475Y-33078063D01*
X197977475Y-33078063D02*
X198025094Y-33125682D01*
X198739380Y-33030444D02*
X198739380Y-33744729D01*
X198739380Y-33744729D02*
X198691761Y-33887586D01*
X198691761Y-33887586D02*
X198596523Y-33982825D01*
X198596523Y-33982825D02*
X198453666Y-34030444D01*
X198453666Y-34030444D02*
X198358428Y-34030444D01*
X199691761Y-34030444D02*
X199215571Y-34030444D01*
X199215571Y-34030444D02*
X199215571Y-33030444D01*
X200596523Y-33935205D02*
X200548904Y-33982825D01*
X200548904Y-33982825D02*
X200406047Y-34030444D01*
X200406047Y-34030444D02*
X200310809Y-34030444D01*
X200310809Y-34030444D02*
X200167952Y-33982825D01*
X200167952Y-33982825D02*
X200072714Y-33887586D01*
X200072714Y-33887586D02*
X200025095Y-33792348D01*
X200025095Y-33792348D02*
X199977476Y-33601872D01*
X199977476Y-33601872D02*
X199977476Y-33459015D01*
X199977476Y-33459015D02*
X200025095Y-33268539D01*
X200025095Y-33268539D02*
X200072714Y-33173301D01*
X200072714Y-33173301D02*
X200167952Y-33078063D01*
X200167952Y-33078063D02*
X200310809Y-33030444D01*
X200310809Y-33030444D02*
X200406047Y-33030444D01*
X200406047Y-33030444D02*
X200548904Y-33078063D01*
X200548904Y-33078063D02*
X200596523Y-33125682D01*
X201310809Y-33030444D02*
X201310809Y-33744729D01*
X201310809Y-33744729D02*
X201263190Y-33887586D01*
X201263190Y-33887586D02*
X201167952Y-33982825D01*
X201167952Y-33982825D02*
X201025095Y-34030444D01*
X201025095Y-34030444D02*
X200929857Y-34030444D01*
X202263190Y-34030444D02*
X201787000Y-34030444D01*
X201787000Y-34030444D02*
X201787000Y-33030444D01*
X203167952Y-33935205D02*
X203120333Y-33982825D01*
X203120333Y-33982825D02*
X202977476Y-34030444D01*
X202977476Y-34030444D02*
X202882238Y-34030444D01*
X202882238Y-34030444D02*
X202739381Y-33982825D01*
X202739381Y-33982825D02*
X202644143Y-33887586D01*
X202644143Y-33887586D02*
X202596524Y-33792348D01*
X202596524Y-33792348D02*
X202548905Y-33601872D01*
X202548905Y-33601872D02*
X202548905Y-33459015D01*
X202548905Y-33459015D02*
X202596524Y-33268539D01*
X202596524Y-33268539D02*
X202644143Y-33173301D01*
X202644143Y-33173301D02*
X202739381Y-33078063D01*
X202739381Y-33078063D02*
X202882238Y-33030444D01*
X202882238Y-33030444D02*
X202977476Y-33030444D01*
X202977476Y-33030444D02*
X203120333Y-33078063D01*
X203120333Y-33078063D02*
X203167952Y-33125682D01*
X203882238Y-33030444D02*
X203882238Y-33744729D01*
X203882238Y-33744729D02*
X203834619Y-33887586D01*
X203834619Y-33887586D02*
X203739381Y-33982825D01*
X203739381Y-33982825D02*
X203596524Y-34030444D01*
X203596524Y-34030444D02*
X203501286Y-34030444D01*
X204834619Y-34030444D02*
X204358429Y-34030444D01*
X204358429Y-34030444D02*
X204358429Y-33030444D01*
X205739381Y-33935205D02*
X205691762Y-33982825D01*
X205691762Y-33982825D02*
X205548905Y-34030444D01*
X205548905Y-34030444D02*
X205453667Y-34030444D01*
X205453667Y-34030444D02*
X205310810Y-33982825D01*
X205310810Y-33982825D02*
X205215572Y-33887586D01*
X205215572Y-33887586D02*
X205167953Y-33792348D01*
X205167953Y-33792348D02*
X205120334Y-33601872D01*
X205120334Y-33601872D02*
X205120334Y-33459015D01*
X205120334Y-33459015D02*
X205167953Y-33268539D01*
X205167953Y-33268539D02*
X205215572Y-33173301D01*
X205215572Y-33173301D02*
X205310810Y-33078063D01*
X205310810Y-33078063D02*
X205453667Y-33030444D01*
X205453667Y-33030444D02*
X205548905Y-33030444D01*
X205548905Y-33030444D02*
X205691762Y-33078063D01*
X205691762Y-33078063D02*
X205739381Y-33125682D01*
D11*
X189979821Y-84990453D02*
X190479821Y-84276167D01*
X190836964Y-84990453D02*
X190836964Y-83490453D01*
X190836964Y-83490453D02*
X190265535Y-83490453D01*
X190265535Y-83490453D02*
X190122678Y-83561882D01*
X190122678Y-83561882D02*
X190051249Y-83633310D01*
X190051249Y-83633310D02*
X189979821Y-83776167D01*
X189979821Y-83776167D02*
X189979821Y-83990453D01*
X189979821Y-83990453D02*
X190051249Y-84133310D01*
X190051249Y-84133310D02*
X190122678Y-84204739D01*
X190122678Y-84204739D02*
X190265535Y-84276167D01*
X190265535Y-84276167D02*
X190836964Y-84276167D01*
X189336964Y-84204739D02*
X188836964Y-84204739D01*
X188622678Y-84990453D02*
X189336964Y-84990453D01*
X189336964Y-84990453D02*
X189336964Y-83490453D01*
X189336964Y-83490453D02*
X188622678Y-83490453D01*
X188051249Y-84919025D02*
X187836964Y-84990453D01*
X187836964Y-84990453D02*
X187479821Y-84990453D01*
X187479821Y-84990453D02*
X187336964Y-84919025D01*
X187336964Y-84919025D02*
X187265535Y-84847596D01*
X187265535Y-84847596D02*
X187194106Y-84704739D01*
X187194106Y-84704739D02*
X187194106Y-84561882D01*
X187194106Y-84561882D02*
X187265535Y-84419025D01*
X187265535Y-84419025D02*
X187336964Y-84347596D01*
X187336964Y-84347596D02*
X187479821Y-84276167D01*
X187479821Y-84276167D02*
X187765535Y-84204739D01*
X187765535Y-84204739D02*
X187908392Y-84133310D01*
X187908392Y-84133310D02*
X187979821Y-84061882D01*
X187979821Y-84061882D02*
X188051249Y-83919025D01*
X188051249Y-83919025D02*
X188051249Y-83776167D01*
X188051249Y-83776167D02*
X187979821Y-83633310D01*
X187979821Y-83633310D02*
X187908392Y-83561882D01*
X187908392Y-83561882D02*
X187765535Y-83490453D01*
X187765535Y-83490453D02*
X187408392Y-83490453D01*
X187408392Y-83490453D02*
X187194106Y-83561882D01*
X186551250Y-84204739D02*
X186051250Y-84204739D01*
X185836964Y-84990453D02*
X186551250Y-84990453D01*
X186551250Y-84990453D02*
X186551250Y-83490453D01*
X186551250Y-83490453D02*
X185836964Y-83490453D01*
X185408392Y-83490453D02*
X184551250Y-83490453D01*
X184979821Y-84990453D02*
X184979821Y-83490453D01*
X191044107Y-83074025D02*
X184558393Y-83074025D01*
X180193584Y-93509230D02*
X180345965Y-93433040D01*
X180345965Y-93433040D02*
X180574536Y-93433040D01*
X180574536Y-93433040D02*
X180803108Y-93509230D01*
X180803108Y-93509230D02*
X180955489Y-93661611D01*
X180955489Y-93661611D02*
X181031679Y-93813992D01*
X181031679Y-93813992D02*
X181107870Y-94118754D01*
X181107870Y-94118754D02*
X181107870Y-94347326D01*
X181107870Y-94347326D02*
X181031679Y-94652088D01*
X181031679Y-94652088D02*
X180955489Y-94804469D01*
X180955489Y-94804469D02*
X180803108Y-94956850D01*
X180803108Y-94956850D02*
X180574536Y-95033040D01*
X180574536Y-95033040D02*
X180422155Y-95033040D01*
X180422155Y-95033040D02*
X180193584Y-94956850D01*
X180193584Y-94956850D02*
X180117393Y-94880659D01*
X180117393Y-94880659D02*
X180117393Y-94347326D01*
X180117393Y-94347326D02*
X180422155Y-94347326D01*
X179431679Y-95033040D02*
X179431679Y-93433040D01*
X179431679Y-93433040D02*
X178822155Y-93433040D01*
X178822155Y-93433040D02*
X178669774Y-93509230D01*
X178669774Y-93509230D02*
X178593584Y-93585421D01*
X178593584Y-93585421D02*
X178517393Y-93737802D01*
X178517393Y-93737802D02*
X178517393Y-93966373D01*
X178517393Y-93966373D02*
X178593584Y-94118754D01*
X178593584Y-94118754D02*
X178669774Y-94194945D01*
X178669774Y-94194945D02*
X178822155Y-94271135D01*
X178822155Y-94271135D02*
X179431679Y-94271135D01*
X177831679Y-95033040D02*
X177831679Y-93433040D01*
X176765012Y-93433040D02*
X176460250Y-93433040D01*
X176460250Y-93433040D02*
X176307869Y-93509230D01*
X176307869Y-93509230D02*
X176155488Y-93661611D01*
X176155488Y-93661611D02*
X176079298Y-93966373D01*
X176079298Y-93966373D02*
X176079298Y-94499707D01*
X176079298Y-94499707D02*
X176155488Y-94804469D01*
X176155488Y-94804469D02*
X176307869Y-94956850D01*
X176307869Y-94956850D02*
X176460250Y-95033040D01*
X176460250Y-95033040D02*
X176765012Y-95033040D01*
X176765012Y-95033040D02*
X176917393Y-94956850D01*
X176917393Y-94956850D02*
X177069774Y-94804469D01*
X177069774Y-94804469D02*
X177145965Y-94499707D01*
X177145965Y-94499707D02*
X177145965Y-93966373D01*
X177145965Y-93966373D02*
X177069774Y-93661611D01*
X177069774Y-93661611D02*
X176917393Y-93509230D01*
X176917393Y-93509230D02*
X176765012Y-93433040D01*
X175469775Y-93585421D02*
X175393584Y-93509230D01*
X175393584Y-93509230D02*
X175241203Y-93433040D01*
X175241203Y-93433040D02*
X174860251Y-93433040D01*
X174860251Y-93433040D02*
X174707870Y-93509230D01*
X174707870Y-93509230D02*
X174631679Y-93585421D01*
X174631679Y-93585421D02*
X174555489Y-93737802D01*
X174555489Y-93737802D02*
X174555489Y-93890183D01*
X174555489Y-93890183D02*
X174631679Y-94118754D01*
X174631679Y-94118754D02*
X175545965Y-95033040D01*
X175545965Y-95033040D02*
X174555489Y-95033040D01*
X173793584Y-95033040D02*
X173488822Y-95033040D01*
X173488822Y-95033040D02*
X173336441Y-94956850D01*
X173336441Y-94956850D02*
X173260250Y-94880659D01*
X173260250Y-94880659D02*
X173107869Y-94652088D01*
X173107869Y-94652088D02*
X173031679Y-94347326D01*
X173031679Y-94347326D02*
X173031679Y-93737802D01*
X173031679Y-93737802D02*
X173107869Y-93585421D01*
X173107869Y-93585421D02*
X173184060Y-93509230D01*
X173184060Y-93509230D02*
X173336441Y-93433040D01*
X173336441Y-93433040D02*
X173641203Y-93433040D01*
X173641203Y-93433040D02*
X173793584Y-93509230D01*
X173793584Y-93509230D02*
X173869774Y-93585421D01*
X173869774Y-93585421D02*
X173945965Y-93737802D01*
X173945965Y-93737802D02*
X173945965Y-94118754D01*
X173945965Y-94118754D02*
X173869774Y-94271135D01*
X173869774Y-94271135D02*
X173793584Y-94347326D01*
X173793584Y-94347326D02*
X173641203Y-94423516D01*
X173641203Y-94423516D02*
X173336441Y-94423516D01*
X173336441Y-94423516D02*
X173184060Y-94347326D01*
X173184060Y-94347326D02*
X173107869Y-94271135D01*
X173107869Y-94271135D02*
X173031679Y-94118754D01*
X180193584Y-96085140D02*
X180345965Y-96008950D01*
X180345965Y-96008950D02*
X180574536Y-96008950D01*
X180574536Y-96008950D02*
X180803108Y-96085140D01*
X180803108Y-96085140D02*
X180955489Y-96237521D01*
X180955489Y-96237521D02*
X181031679Y-96389902D01*
X181031679Y-96389902D02*
X181107870Y-96694664D01*
X181107870Y-96694664D02*
X181107870Y-96923236D01*
X181107870Y-96923236D02*
X181031679Y-97227998D01*
X181031679Y-97227998D02*
X180955489Y-97380379D01*
X180955489Y-97380379D02*
X180803108Y-97532760D01*
X180803108Y-97532760D02*
X180574536Y-97608950D01*
X180574536Y-97608950D02*
X180422155Y-97608950D01*
X180422155Y-97608950D02*
X180193584Y-97532760D01*
X180193584Y-97532760D02*
X180117393Y-97456569D01*
X180117393Y-97456569D02*
X180117393Y-96923236D01*
X180117393Y-96923236D02*
X180422155Y-96923236D01*
X179431679Y-97608950D02*
X179431679Y-96008950D01*
X179431679Y-96008950D02*
X178822155Y-96008950D01*
X178822155Y-96008950D02*
X178669774Y-96085140D01*
X178669774Y-96085140D02*
X178593584Y-96161331D01*
X178593584Y-96161331D02*
X178517393Y-96313712D01*
X178517393Y-96313712D02*
X178517393Y-96542283D01*
X178517393Y-96542283D02*
X178593584Y-96694664D01*
X178593584Y-96694664D02*
X178669774Y-96770855D01*
X178669774Y-96770855D02*
X178822155Y-96847045D01*
X178822155Y-96847045D02*
X179431679Y-96847045D01*
X177831679Y-97608950D02*
X177831679Y-96008950D01*
X176765012Y-96008950D02*
X176460250Y-96008950D01*
X176460250Y-96008950D02*
X176307869Y-96085140D01*
X176307869Y-96085140D02*
X176155488Y-96237521D01*
X176155488Y-96237521D02*
X176079298Y-96542283D01*
X176079298Y-96542283D02*
X176079298Y-97075617D01*
X176079298Y-97075617D02*
X176155488Y-97380379D01*
X176155488Y-97380379D02*
X176307869Y-97532760D01*
X176307869Y-97532760D02*
X176460250Y-97608950D01*
X176460250Y-97608950D02*
X176765012Y-97608950D01*
X176765012Y-97608950D02*
X176917393Y-97532760D01*
X176917393Y-97532760D02*
X177069774Y-97380379D01*
X177069774Y-97380379D02*
X177145965Y-97075617D01*
X177145965Y-97075617D02*
X177145965Y-96542283D01*
X177145965Y-96542283D02*
X177069774Y-96237521D01*
X177069774Y-96237521D02*
X176917393Y-96085140D01*
X176917393Y-96085140D02*
X176765012Y-96008950D01*
X175469775Y-96161331D02*
X175393584Y-96085140D01*
X175393584Y-96085140D02*
X175241203Y-96008950D01*
X175241203Y-96008950D02*
X174860251Y-96008950D01*
X174860251Y-96008950D02*
X174707870Y-96085140D01*
X174707870Y-96085140D02*
X174631679Y-96161331D01*
X174631679Y-96161331D02*
X174555489Y-96313712D01*
X174555489Y-96313712D02*
X174555489Y-96466093D01*
X174555489Y-96466093D02*
X174631679Y-96694664D01*
X174631679Y-96694664D02*
X175545965Y-97608950D01*
X175545965Y-97608950D02*
X174555489Y-97608950D01*
X173641203Y-96694664D02*
X173793584Y-96618474D01*
X173793584Y-96618474D02*
X173869774Y-96542283D01*
X173869774Y-96542283D02*
X173945965Y-96389902D01*
X173945965Y-96389902D02*
X173945965Y-96313712D01*
X173945965Y-96313712D02*
X173869774Y-96161331D01*
X173869774Y-96161331D02*
X173793584Y-96085140D01*
X173793584Y-96085140D02*
X173641203Y-96008950D01*
X173641203Y-96008950D02*
X173336441Y-96008950D01*
X173336441Y-96008950D02*
X173184060Y-96085140D01*
X173184060Y-96085140D02*
X173107869Y-96161331D01*
X173107869Y-96161331D02*
X173031679Y-96313712D01*
X173031679Y-96313712D02*
X173031679Y-96389902D01*
X173031679Y-96389902D02*
X173107869Y-96542283D01*
X173107869Y-96542283D02*
X173184060Y-96618474D01*
X173184060Y-96618474D02*
X173336441Y-96694664D01*
X173336441Y-96694664D02*
X173641203Y-96694664D01*
X173641203Y-96694664D02*
X173793584Y-96770855D01*
X173793584Y-96770855D02*
X173869774Y-96847045D01*
X173869774Y-96847045D02*
X173945965Y-96999426D01*
X173945965Y-96999426D02*
X173945965Y-97304188D01*
X173945965Y-97304188D02*
X173869774Y-97456569D01*
X173869774Y-97456569D02*
X173793584Y-97532760D01*
X173793584Y-97532760D02*
X173641203Y-97608950D01*
X173641203Y-97608950D02*
X173336441Y-97608950D01*
X173336441Y-97608950D02*
X173184060Y-97532760D01*
X173184060Y-97532760D02*
X173107869Y-97456569D01*
X173107869Y-97456569D02*
X173031679Y-97304188D01*
X173031679Y-97304188D02*
X173031679Y-96999426D01*
X173031679Y-96999426D02*
X173107869Y-96847045D01*
X173107869Y-96847045D02*
X173184060Y-96770855D01*
X173184060Y-96770855D02*
X173336441Y-96694664D01*
X180193584Y-98661050D02*
X180345965Y-98584860D01*
X180345965Y-98584860D02*
X180574536Y-98584860D01*
X180574536Y-98584860D02*
X180803108Y-98661050D01*
X180803108Y-98661050D02*
X180955489Y-98813431D01*
X180955489Y-98813431D02*
X181031679Y-98965812D01*
X181031679Y-98965812D02*
X181107870Y-99270574D01*
X181107870Y-99270574D02*
X181107870Y-99499146D01*
X181107870Y-99499146D02*
X181031679Y-99803908D01*
X181031679Y-99803908D02*
X180955489Y-99956289D01*
X180955489Y-99956289D02*
X180803108Y-100108670D01*
X180803108Y-100108670D02*
X180574536Y-100184860D01*
X180574536Y-100184860D02*
X180422155Y-100184860D01*
X180422155Y-100184860D02*
X180193584Y-100108670D01*
X180193584Y-100108670D02*
X180117393Y-100032479D01*
X180117393Y-100032479D02*
X180117393Y-99499146D01*
X180117393Y-99499146D02*
X180422155Y-99499146D01*
X179431679Y-100184860D02*
X179431679Y-98584860D01*
X179431679Y-98584860D02*
X178822155Y-98584860D01*
X178822155Y-98584860D02*
X178669774Y-98661050D01*
X178669774Y-98661050D02*
X178593584Y-98737241D01*
X178593584Y-98737241D02*
X178517393Y-98889622D01*
X178517393Y-98889622D02*
X178517393Y-99118193D01*
X178517393Y-99118193D02*
X178593584Y-99270574D01*
X178593584Y-99270574D02*
X178669774Y-99346765D01*
X178669774Y-99346765D02*
X178822155Y-99422955D01*
X178822155Y-99422955D02*
X179431679Y-99422955D01*
X177831679Y-100184860D02*
X177831679Y-98584860D01*
X176765012Y-98584860D02*
X176460250Y-98584860D01*
X176460250Y-98584860D02*
X176307869Y-98661050D01*
X176307869Y-98661050D02*
X176155488Y-98813431D01*
X176155488Y-98813431D02*
X176079298Y-99118193D01*
X176079298Y-99118193D02*
X176079298Y-99651527D01*
X176079298Y-99651527D02*
X176155488Y-99956289D01*
X176155488Y-99956289D02*
X176307869Y-100108670D01*
X176307869Y-100108670D02*
X176460250Y-100184860D01*
X176460250Y-100184860D02*
X176765012Y-100184860D01*
X176765012Y-100184860D02*
X176917393Y-100108670D01*
X176917393Y-100108670D02*
X177069774Y-99956289D01*
X177069774Y-99956289D02*
X177145965Y-99651527D01*
X177145965Y-99651527D02*
X177145965Y-99118193D01*
X177145965Y-99118193D02*
X177069774Y-98813431D01*
X177069774Y-98813431D02*
X176917393Y-98661050D01*
X176917393Y-98661050D02*
X176765012Y-98584860D01*
X175469775Y-98737241D02*
X175393584Y-98661050D01*
X175393584Y-98661050D02*
X175241203Y-98584860D01*
X175241203Y-98584860D02*
X174860251Y-98584860D01*
X174860251Y-98584860D02*
X174707870Y-98661050D01*
X174707870Y-98661050D02*
X174631679Y-98737241D01*
X174631679Y-98737241D02*
X174555489Y-98889622D01*
X174555489Y-98889622D02*
X174555489Y-99042003D01*
X174555489Y-99042003D02*
X174631679Y-99270574D01*
X174631679Y-99270574D02*
X175545965Y-100184860D01*
X175545965Y-100184860D02*
X174555489Y-100184860D01*
X174022155Y-98584860D02*
X172955488Y-98584860D01*
X172955488Y-98584860D02*
X173641203Y-100184860D01*
X180193584Y-101236960D02*
X180345965Y-101160770D01*
X180345965Y-101160770D02*
X180574536Y-101160770D01*
X180574536Y-101160770D02*
X180803108Y-101236960D01*
X180803108Y-101236960D02*
X180955489Y-101389341D01*
X180955489Y-101389341D02*
X181031679Y-101541722D01*
X181031679Y-101541722D02*
X181107870Y-101846484D01*
X181107870Y-101846484D02*
X181107870Y-102075056D01*
X181107870Y-102075056D02*
X181031679Y-102379818D01*
X181031679Y-102379818D02*
X180955489Y-102532199D01*
X180955489Y-102532199D02*
X180803108Y-102684580D01*
X180803108Y-102684580D02*
X180574536Y-102760770D01*
X180574536Y-102760770D02*
X180422155Y-102760770D01*
X180422155Y-102760770D02*
X180193584Y-102684580D01*
X180193584Y-102684580D02*
X180117393Y-102608389D01*
X180117393Y-102608389D02*
X180117393Y-102075056D01*
X180117393Y-102075056D02*
X180422155Y-102075056D01*
X179431679Y-102760770D02*
X179431679Y-101160770D01*
X179431679Y-101160770D02*
X178822155Y-101160770D01*
X178822155Y-101160770D02*
X178669774Y-101236960D01*
X178669774Y-101236960D02*
X178593584Y-101313151D01*
X178593584Y-101313151D02*
X178517393Y-101465532D01*
X178517393Y-101465532D02*
X178517393Y-101694103D01*
X178517393Y-101694103D02*
X178593584Y-101846484D01*
X178593584Y-101846484D02*
X178669774Y-101922675D01*
X178669774Y-101922675D02*
X178822155Y-101998865D01*
X178822155Y-101998865D02*
X179431679Y-101998865D01*
X177831679Y-102760770D02*
X177831679Y-101160770D01*
X176765012Y-101160770D02*
X176460250Y-101160770D01*
X176460250Y-101160770D02*
X176307869Y-101236960D01*
X176307869Y-101236960D02*
X176155488Y-101389341D01*
X176155488Y-101389341D02*
X176079298Y-101694103D01*
X176079298Y-101694103D02*
X176079298Y-102227437D01*
X176079298Y-102227437D02*
X176155488Y-102532199D01*
X176155488Y-102532199D02*
X176307869Y-102684580D01*
X176307869Y-102684580D02*
X176460250Y-102760770D01*
X176460250Y-102760770D02*
X176765012Y-102760770D01*
X176765012Y-102760770D02*
X176917393Y-102684580D01*
X176917393Y-102684580D02*
X177069774Y-102532199D01*
X177069774Y-102532199D02*
X177145965Y-102227437D01*
X177145965Y-102227437D02*
X177145965Y-101694103D01*
X177145965Y-101694103D02*
X177069774Y-101389341D01*
X177069774Y-101389341D02*
X176917393Y-101236960D01*
X176917393Y-101236960D02*
X176765012Y-101160770D01*
X175469775Y-101313151D02*
X175393584Y-101236960D01*
X175393584Y-101236960D02*
X175241203Y-101160770D01*
X175241203Y-101160770D02*
X174860251Y-101160770D01*
X174860251Y-101160770D02*
X174707870Y-101236960D01*
X174707870Y-101236960D02*
X174631679Y-101313151D01*
X174631679Y-101313151D02*
X174555489Y-101465532D01*
X174555489Y-101465532D02*
X174555489Y-101617913D01*
X174555489Y-101617913D02*
X174631679Y-101846484D01*
X174631679Y-101846484D02*
X175545965Y-102760770D01*
X175545965Y-102760770D02*
X174555489Y-102760770D01*
X173184060Y-101160770D02*
X173488822Y-101160770D01*
X173488822Y-101160770D02*
X173641203Y-101236960D01*
X173641203Y-101236960D02*
X173717393Y-101313151D01*
X173717393Y-101313151D02*
X173869774Y-101541722D01*
X173869774Y-101541722D02*
X173945965Y-101846484D01*
X173945965Y-101846484D02*
X173945965Y-102456008D01*
X173945965Y-102456008D02*
X173869774Y-102608389D01*
X173869774Y-102608389D02*
X173793584Y-102684580D01*
X173793584Y-102684580D02*
X173641203Y-102760770D01*
X173641203Y-102760770D02*
X173336441Y-102760770D01*
X173336441Y-102760770D02*
X173184060Y-102684580D01*
X173184060Y-102684580D02*
X173107869Y-102608389D01*
X173107869Y-102608389D02*
X173031679Y-102456008D01*
X173031679Y-102456008D02*
X173031679Y-102075056D01*
X173031679Y-102075056D02*
X173107869Y-101922675D01*
X173107869Y-101922675D02*
X173184060Y-101846484D01*
X173184060Y-101846484D02*
X173336441Y-101770294D01*
X173336441Y-101770294D02*
X173641203Y-101770294D01*
X173641203Y-101770294D02*
X173793584Y-101846484D01*
X173793584Y-101846484D02*
X173869774Y-101922675D01*
X173869774Y-101922675D02*
X173945965Y-102075056D01*
X180193584Y-103812870D02*
X180345965Y-103736680D01*
X180345965Y-103736680D02*
X180574536Y-103736680D01*
X180574536Y-103736680D02*
X180803108Y-103812870D01*
X180803108Y-103812870D02*
X180955489Y-103965251D01*
X180955489Y-103965251D02*
X181031679Y-104117632D01*
X181031679Y-104117632D02*
X181107870Y-104422394D01*
X181107870Y-104422394D02*
X181107870Y-104650966D01*
X181107870Y-104650966D02*
X181031679Y-104955728D01*
X181031679Y-104955728D02*
X180955489Y-105108109D01*
X180955489Y-105108109D02*
X180803108Y-105260490D01*
X180803108Y-105260490D02*
X180574536Y-105336680D01*
X180574536Y-105336680D02*
X180422155Y-105336680D01*
X180422155Y-105336680D02*
X180193584Y-105260490D01*
X180193584Y-105260490D02*
X180117393Y-105184299D01*
X180117393Y-105184299D02*
X180117393Y-104650966D01*
X180117393Y-104650966D02*
X180422155Y-104650966D01*
X179431679Y-105336680D02*
X179431679Y-103736680D01*
X179431679Y-103736680D02*
X178822155Y-103736680D01*
X178822155Y-103736680D02*
X178669774Y-103812870D01*
X178669774Y-103812870D02*
X178593584Y-103889061D01*
X178593584Y-103889061D02*
X178517393Y-104041442D01*
X178517393Y-104041442D02*
X178517393Y-104270013D01*
X178517393Y-104270013D02*
X178593584Y-104422394D01*
X178593584Y-104422394D02*
X178669774Y-104498585D01*
X178669774Y-104498585D02*
X178822155Y-104574775D01*
X178822155Y-104574775D02*
X179431679Y-104574775D01*
X177831679Y-105336680D02*
X177831679Y-103736680D01*
X176765012Y-103736680D02*
X176460250Y-103736680D01*
X176460250Y-103736680D02*
X176307869Y-103812870D01*
X176307869Y-103812870D02*
X176155488Y-103965251D01*
X176155488Y-103965251D02*
X176079298Y-104270013D01*
X176079298Y-104270013D02*
X176079298Y-104803347D01*
X176079298Y-104803347D02*
X176155488Y-105108109D01*
X176155488Y-105108109D02*
X176307869Y-105260490D01*
X176307869Y-105260490D02*
X176460250Y-105336680D01*
X176460250Y-105336680D02*
X176765012Y-105336680D01*
X176765012Y-105336680D02*
X176917393Y-105260490D01*
X176917393Y-105260490D02*
X177069774Y-105108109D01*
X177069774Y-105108109D02*
X177145965Y-104803347D01*
X177145965Y-104803347D02*
X177145965Y-104270013D01*
X177145965Y-104270013D02*
X177069774Y-103965251D01*
X177069774Y-103965251D02*
X176917393Y-103812870D01*
X176917393Y-103812870D02*
X176765012Y-103736680D01*
X175469775Y-103889061D02*
X175393584Y-103812870D01*
X175393584Y-103812870D02*
X175241203Y-103736680D01*
X175241203Y-103736680D02*
X174860251Y-103736680D01*
X174860251Y-103736680D02*
X174707870Y-103812870D01*
X174707870Y-103812870D02*
X174631679Y-103889061D01*
X174631679Y-103889061D02*
X174555489Y-104041442D01*
X174555489Y-104041442D02*
X174555489Y-104193823D01*
X174555489Y-104193823D02*
X174631679Y-104422394D01*
X174631679Y-104422394D02*
X175545965Y-105336680D01*
X175545965Y-105336680D02*
X174555489Y-105336680D01*
X173107869Y-103736680D02*
X173869774Y-103736680D01*
X173869774Y-103736680D02*
X173945965Y-104498585D01*
X173945965Y-104498585D02*
X173869774Y-104422394D01*
X173869774Y-104422394D02*
X173717393Y-104346204D01*
X173717393Y-104346204D02*
X173336441Y-104346204D01*
X173336441Y-104346204D02*
X173184060Y-104422394D01*
X173184060Y-104422394D02*
X173107869Y-104498585D01*
X173107869Y-104498585D02*
X173031679Y-104650966D01*
X173031679Y-104650966D02*
X173031679Y-105031918D01*
X173031679Y-105031918D02*
X173107869Y-105184299D01*
X173107869Y-105184299D02*
X173184060Y-105260490D01*
X173184060Y-105260490D02*
X173336441Y-105336680D01*
X173336441Y-105336680D02*
X173717393Y-105336680D01*
X173717393Y-105336680D02*
X173869774Y-105260490D01*
X173869774Y-105260490D02*
X173945965Y-105184299D01*
X180193584Y-106388780D02*
X180345965Y-106312590D01*
X180345965Y-106312590D02*
X180574536Y-106312590D01*
X180574536Y-106312590D02*
X180803108Y-106388780D01*
X180803108Y-106388780D02*
X180955489Y-106541161D01*
X180955489Y-106541161D02*
X181031679Y-106693542D01*
X181031679Y-106693542D02*
X181107870Y-106998304D01*
X181107870Y-106998304D02*
X181107870Y-107226876D01*
X181107870Y-107226876D02*
X181031679Y-107531638D01*
X181031679Y-107531638D02*
X180955489Y-107684019D01*
X180955489Y-107684019D02*
X180803108Y-107836400D01*
X180803108Y-107836400D02*
X180574536Y-107912590D01*
X180574536Y-107912590D02*
X180422155Y-107912590D01*
X180422155Y-107912590D02*
X180193584Y-107836400D01*
X180193584Y-107836400D02*
X180117393Y-107760209D01*
X180117393Y-107760209D02*
X180117393Y-107226876D01*
X180117393Y-107226876D02*
X180422155Y-107226876D01*
X179431679Y-107912590D02*
X179431679Y-106312590D01*
X179431679Y-106312590D02*
X178822155Y-106312590D01*
X178822155Y-106312590D02*
X178669774Y-106388780D01*
X178669774Y-106388780D02*
X178593584Y-106464971D01*
X178593584Y-106464971D02*
X178517393Y-106617352D01*
X178517393Y-106617352D02*
X178517393Y-106845923D01*
X178517393Y-106845923D02*
X178593584Y-106998304D01*
X178593584Y-106998304D02*
X178669774Y-107074495D01*
X178669774Y-107074495D02*
X178822155Y-107150685D01*
X178822155Y-107150685D02*
X179431679Y-107150685D01*
X177831679Y-107912590D02*
X177831679Y-106312590D01*
X176765012Y-106312590D02*
X176460250Y-106312590D01*
X176460250Y-106312590D02*
X176307869Y-106388780D01*
X176307869Y-106388780D02*
X176155488Y-106541161D01*
X176155488Y-106541161D02*
X176079298Y-106845923D01*
X176079298Y-106845923D02*
X176079298Y-107379257D01*
X176079298Y-107379257D02*
X176155488Y-107684019D01*
X176155488Y-107684019D02*
X176307869Y-107836400D01*
X176307869Y-107836400D02*
X176460250Y-107912590D01*
X176460250Y-107912590D02*
X176765012Y-107912590D01*
X176765012Y-107912590D02*
X176917393Y-107836400D01*
X176917393Y-107836400D02*
X177069774Y-107684019D01*
X177069774Y-107684019D02*
X177145965Y-107379257D01*
X177145965Y-107379257D02*
X177145965Y-106845923D01*
X177145965Y-106845923D02*
X177069774Y-106541161D01*
X177069774Y-106541161D02*
X176917393Y-106388780D01*
X176917393Y-106388780D02*
X176765012Y-106312590D01*
X175469775Y-106464971D02*
X175393584Y-106388780D01*
X175393584Y-106388780D02*
X175241203Y-106312590D01*
X175241203Y-106312590D02*
X174860251Y-106312590D01*
X174860251Y-106312590D02*
X174707870Y-106388780D01*
X174707870Y-106388780D02*
X174631679Y-106464971D01*
X174631679Y-106464971D02*
X174555489Y-106617352D01*
X174555489Y-106617352D02*
X174555489Y-106769733D01*
X174555489Y-106769733D02*
X174631679Y-106998304D01*
X174631679Y-106998304D02*
X175545965Y-107912590D01*
X175545965Y-107912590D02*
X174555489Y-107912590D01*
X173184060Y-106845923D02*
X173184060Y-107912590D01*
X173565012Y-106236400D02*
X173945965Y-107379257D01*
X173945965Y-107379257D02*
X172955488Y-107379257D01*
X180193584Y-108964690D02*
X180345965Y-108888500D01*
X180345965Y-108888500D02*
X180574536Y-108888500D01*
X180574536Y-108888500D02*
X180803108Y-108964690D01*
X180803108Y-108964690D02*
X180955489Y-109117071D01*
X180955489Y-109117071D02*
X181031679Y-109269452D01*
X181031679Y-109269452D02*
X181107870Y-109574214D01*
X181107870Y-109574214D02*
X181107870Y-109802786D01*
X181107870Y-109802786D02*
X181031679Y-110107548D01*
X181031679Y-110107548D02*
X180955489Y-110259929D01*
X180955489Y-110259929D02*
X180803108Y-110412310D01*
X180803108Y-110412310D02*
X180574536Y-110488500D01*
X180574536Y-110488500D02*
X180422155Y-110488500D01*
X180422155Y-110488500D02*
X180193584Y-110412310D01*
X180193584Y-110412310D02*
X180117393Y-110336119D01*
X180117393Y-110336119D02*
X180117393Y-109802786D01*
X180117393Y-109802786D02*
X180422155Y-109802786D01*
X179431679Y-110488500D02*
X179431679Y-108888500D01*
X179431679Y-108888500D02*
X178822155Y-108888500D01*
X178822155Y-108888500D02*
X178669774Y-108964690D01*
X178669774Y-108964690D02*
X178593584Y-109040881D01*
X178593584Y-109040881D02*
X178517393Y-109193262D01*
X178517393Y-109193262D02*
X178517393Y-109421833D01*
X178517393Y-109421833D02*
X178593584Y-109574214D01*
X178593584Y-109574214D02*
X178669774Y-109650405D01*
X178669774Y-109650405D02*
X178822155Y-109726595D01*
X178822155Y-109726595D02*
X179431679Y-109726595D01*
X177831679Y-110488500D02*
X177831679Y-108888500D01*
X176765012Y-108888500D02*
X176460250Y-108888500D01*
X176460250Y-108888500D02*
X176307869Y-108964690D01*
X176307869Y-108964690D02*
X176155488Y-109117071D01*
X176155488Y-109117071D02*
X176079298Y-109421833D01*
X176079298Y-109421833D02*
X176079298Y-109955167D01*
X176079298Y-109955167D02*
X176155488Y-110259929D01*
X176155488Y-110259929D02*
X176307869Y-110412310D01*
X176307869Y-110412310D02*
X176460250Y-110488500D01*
X176460250Y-110488500D02*
X176765012Y-110488500D01*
X176765012Y-110488500D02*
X176917393Y-110412310D01*
X176917393Y-110412310D02*
X177069774Y-110259929D01*
X177069774Y-110259929D02*
X177145965Y-109955167D01*
X177145965Y-109955167D02*
X177145965Y-109421833D01*
X177145965Y-109421833D02*
X177069774Y-109117071D01*
X177069774Y-109117071D02*
X176917393Y-108964690D01*
X176917393Y-108964690D02*
X176765012Y-108888500D01*
X175469775Y-109040881D02*
X175393584Y-108964690D01*
X175393584Y-108964690D02*
X175241203Y-108888500D01*
X175241203Y-108888500D02*
X174860251Y-108888500D01*
X174860251Y-108888500D02*
X174707870Y-108964690D01*
X174707870Y-108964690D02*
X174631679Y-109040881D01*
X174631679Y-109040881D02*
X174555489Y-109193262D01*
X174555489Y-109193262D02*
X174555489Y-109345643D01*
X174555489Y-109345643D02*
X174631679Y-109574214D01*
X174631679Y-109574214D02*
X175545965Y-110488500D01*
X175545965Y-110488500D02*
X174555489Y-110488500D01*
X174022155Y-108888500D02*
X173031679Y-108888500D01*
X173031679Y-108888500D02*
X173565012Y-109498024D01*
X173565012Y-109498024D02*
X173336441Y-109498024D01*
X173336441Y-109498024D02*
X173184060Y-109574214D01*
X173184060Y-109574214D02*
X173107869Y-109650405D01*
X173107869Y-109650405D02*
X173031679Y-109802786D01*
X173031679Y-109802786D02*
X173031679Y-110183738D01*
X173031679Y-110183738D02*
X173107869Y-110336119D01*
X173107869Y-110336119D02*
X173184060Y-110412310D01*
X173184060Y-110412310D02*
X173336441Y-110488500D01*
X173336441Y-110488500D02*
X173793584Y-110488500D01*
X173793584Y-110488500D02*
X173945965Y-110412310D01*
X173945965Y-110412310D02*
X174022155Y-110336119D01*
X180193584Y-111540600D02*
X180345965Y-111464410D01*
X180345965Y-111464410D02*
X180574536Y-111464410D01*
X180574536Y-111464410D02*
X180803108Y-111540600D01*
X180803108Y-111540600D02*
X180955489Y-111692981D01*
X180955489Y-111692981D02*
X181031679Y-111845362D01*
X181031679Y-111845362D02*
X181107870Y-112150124D01*
X181107870Y-112150124D02*
X181107870Y-112378696D01*
X181107870Y-112378696D02*
X181031679Y-112683458D01*
X181031679Y-112683458D02*
X180955489Y-112835839D01*
X180955489Y-112835839D02*
X180803108Y-112988220D01*
X180803108Y-112988220D02*
X180574536Y-113064410D01*
X180574536Y-113064410D02*
X180422155Y-113064410D01*
X180422155Y-113064410D02*
X180193584Y-112988220D01*
X180193584Y-112988220D02*
X180117393Y-112912029D01*
X180117393Y-112912029D02*
X180117393Y-112378696D01*
X180117393Y-112378696D02*
X180422155Y-112378696D01*
X179431679Y-113064410D02*
X179431679Y-111464410D01*
X179431679Y-111464410D02*
X178822155Y-111464410D01*
X178822155Y-111464410D02*
X178669774Y-111540600D01*
X178669774Y-111540600D02*
X178593584Y-111616791D01*
X178593584Y-111616791D02*
X178517393Y-111769172D01*
X178517393Y-111769172D02*
X178517393Y-111997743D01*
X178517393Y-111997743D02*
X178593584Y-112150124D01*
X178593584Y-112150124D02*
X178669774Y-112226315D01*
X178669774Y-112226315D02*
X178822155Y-112302505D01*
X178822155Y-112302505D02*
X179431679Y-112302505D01*
X177831679Y-113064410D02*
X177831679Y-111464410D01*
X176765012Y-111464410D02*
X176460250Y-111464410D01*
X176460250Y-111464410D02*
X176307869Y-111540600D01*
X176307869Y-111540600D02*
X176155488Y-111692981D01*
X176155488Y-111692981D02*
X176079298Y-111997743D01*
X176079298Y-111997743D02*
X176079298Y-112531077D01*
X176079298Y-112531077D02*
X176155488Y-112835839D01*
X176155488Y-112835839D02*
X176307869Y-112988220D01*
X176307869Y-112988220D02*
X176460250Y-113064410D01*
X176460250Y-113064410D02*
X176765012Y-113064410D01*
X176765012Y-113064410D02*
X176917393Y-112988220D01*
X176917393Y-112988220D02*
X177069774Y-112835839D01*
X177069774Y-112835839D02*
X177145965Y-112531077D01*
X177145965Y-112531077D02*
X177145965Y-111997743D01*
X177145965Y-111997743D02*
X177069774Y-111692981D01*
X177069774Y-111692981D02*
X176917393Y-111540600D01*
X176917393Y-111540600D02*
X176765012Y-111464410D01*
X175469775Y-111616791D02*
X175393584Y-111540600D01*
X175393584Y-111540600D02*
X175241203Y-111464410D01*
X175241203Y-111464410D02*
X174860251Y-111464410D01*
X174860251Y-111464410D02*
X174707870Y-111540600D01*
X174707870Y-111540600D02*
X174631679Y-111616791D01*
X174631679Y-111616791D02*
X174555489Y-111769172D01*
X174555489Y-111769172D02*
X174555489Y-111921553D01*
X174555489Y-111921553D02*
X174631679Y-112150124D01*
X174631679Y-112150124D02*
X175545965Y-113064410D01*
X175545965Y-113064410D02*
X174555489Y-113064410D01*
X173945965Y-111616791D02*
X173869774Y-111540600D01*
X173869774Y-111540600D02*
X173717393Y-111464410D01*
X173717393Y-111464410D02*
X173336441Y-111464410D01*
X173336441Y-111464410D02*
X173184060Y-111540600D01*
X173184060Y-111540600D02*
X173107869Y-111616791D01*
X173107869Y-111616791D02*
X173031679Y-111769172D01*
X173031679Y-111769172D02*
X173031679Y-111921553D01*
X173031679Y-111921553D02*
X173107869Y-112150124D01*
X173107869Y-112150124D02*
X174022155Y-113064410D01*
X174022155Y-113064410D02*
X173031679Y-113064410D01*
X180193584Y-114116510D02*
X180345965Y-114040320D01*
X180345965Y-114040320D02*
X180574536Y-114040320D01*
X180574536Y-114040320D02*
X180803108Y-114116510D01*
X180803108Y-114116510D02*
X180955489Y-114268891D01*
X180955489Y-114268891D02*
X181031679Y-114421272D01*
X181031679Y-114421272D02*
X181107870Y-114726034D01*
X181107870Y-114726034D02*
X181107870Y-114954606D01*
X181107870Y-114954606D02*
X181031679Y-115259368D01*
X181031679Y-115259368D02*
X180955489Y-115411749D01*
X180955489Y-115411749D02*
X180803108Y-115564130D01*
X180803108Y-115564130D02*
X180574536Y-115640320D01*
X180574536Y-115640320D02*
X180422155Y-115640320D01*
X180422155Y-115640320D02*
X180193584Y-115564130D01*
X180193584Y-115564130D02*
X180117393Y-115487939D01*
X180117393Y-115487939D02*
X180117393Y-114954606D01*
X180117393Y-114954606D02*
X180422155Y-114954606D01*
X179431679Y-115640320D02*
X179431679Y-114040320D01*
X179431679Y-114040320D02*
X178822155Y-114040320D01*
X178822155Y-114040320D02*
X178669774Y-114116510D01*
X178669774Y-114116510D02*
X178593584Y-114192701D01*
X178593584Y-114192701D02*
X178517393Y-114345082D01*
X178517393Y-114345082D02*
X178517393Y-114573653D01*
X178517393Y-114573653D02*
X178593584Y-114726034D01*
X178593584Y-114726034D02*
X178669774Y-114802225D01*
X178669774Y-114802225D02*
X178822155Y-114878415D01*
X178822155Y-114878415D02*
X179431679Y-114878415D01*
X177831679Y-115640320D02*
X177831679Y-114040320D01*
X176765012Y-114040320D02*
X176460250Y-114040320D01*
X176460250Y-114040320D02*
X176307869Y-114116510D01*
X176307869Y-114116510D02*
X176155488Y-114268891D01*
X176155488Y-114268891D02*
X176079298Y-114573653D01*
X176079298Y-114573653D02*
X176079298Y-115106987D01*
X176079298Y-115106987D02*
X176155488Y-115411749D01*
X176155488Y-115411749D02*
X176307869Y-115564130D01*
X176307869Y-115564130D02*
X176460250Y-115640320D01*
X176460250Y-115640320D02*
X176765012Y-115640320D01*
X176765012Y-115640320D02*
X176917393Y-115564130D01*
X176917393Y-115564130D02*
X177069774Y-115411749D01*
X177069774Y-115411749D02*
X177145965Y-115106987D01*
X177145965Y-115106987D02*
X177145965Y-114573653D01*
X177145965Y-114573653D02*
X177069774Y-114268891D01*
X177069774Y-114268891D02*
X176917393Y-114116510D01*
X176917393Y-114116510D02*
X176765012Y-114040320D01*
X175469775Y-114192701D02*
X175393584Y-114116510D01*
X175393584Y-114116510D02*
X175241203Y-114040320D01*
X175241203Y-114040320D02*
X174860251Y-114040320D01*
X174860251Y-114040320D02*
X174707870Y-114116510D01*
X174707870Y-114116510D02*
X174631679Y-114192701D01*
X174631679Y-114192701D02*
X174555489Y-114345082D01*
X174555489Y-114345082D02*
X174555489Y-114497463D01*
X174555489Y-114497463D02*
X174631679Y-114726034D01*
X174631679Y-114726034D02*
X175545965Y-115640320D01*
X175545965Y-115640320D02*
X174555489Y-115640320D01*
X173031679Y-115640320D02*
X173945965Y-115640320D01*
X173488822Y-115640320D02*
X173488822Y-114040320D01*
X173488822Y-114040320D02*
X173641203Y-114268891D01*
X173641203Y-114268891D02*
X173793584Y-114421272D01*
X173793584Y-114421272D02*
X173945965Y-114497463D01*
X180193584Y-116692420D02*
X180345965Y-116616230D01*
X180345965Y-116616230D02*
X180574536Y-116616230D01*
X180574536Y-116616230D02*
X180803108Y-116692420D01*
X180803108Y-116692420D02*
X180955489Y-116844801D01*
X180955489Y-116844801D02*
X181031679Y-116997182D01*
X181031679Y-116997182D02*
X181107870Y-117301944D01*
X181107870Y-117301944D02*
X181107870Y-117530516D01*
X181107870Y-117530516D02*
X181031679Y-117835278D01*
X181031679Y-117835278D02*
X180955489Y-117987659D01*
X180955489Y-117987659D02*
X180803108Y-118140040D01*
X180803108Y-118140040D02*
X180574536Y-118216230D01*
X180574536Y-118216230D02*
X180422155Y-118216230D01*
X180422155Y-118216230D02*
X180193584Y-118140040D01*
X180193584Y-118140040D02*
X180117393Y-118063849D01*
X180117393Y-118063849D02*
X180117393Y-117530516D01*
X180117393Y-117530516D02*
X180422155Y-117530516D01*
X179431679Y-118216230D02*
X179431679Y-116616230D01*
X179431679Y-116616230D02*
X178822155Y-116616230D01*
X178822155Y-116616230D02*
X178669774Y-116692420D01*
X178669774Y-116692420D02*
X178593584Y-116768611D01*
X178593584Y-116768611D02*
X178517393Y-116920992D01*
X178517393Y-116920992D02*
X178517393Y-117149563D01*
X178517393Y-117149563D02*
X178593584Y-117301944D01*
X178593584Y-117301944D02*
X178669774Y-117378135D01*
X178669774Y-117378135D02*
X178822155Y-117454325D01*
X178822155Y-117454325D02*
X179431679Y-117454325D01*
X177831679Y-118216230D02*
X177831679Y-116616230D01*
X176765012Y-116616230D02*
X176460250Y-116616230D01*
X176460250Y-116616230D02*
X176307869Y-116692420D01*
X176307869Y-116692420D02*
X176155488Y-116844801D01*
X176155488Y-116844801D02*
X176079298Y-117149563D01*
X176079298Y-117149563D02*
X176079298Y-117682897D01*
X176079298Y-117682897D02*
X176155488Y-117987659D01*
X176155488Y-117987659D02*
X176307869Y-118140040D01*
X176307869Y-118140040D02*
X176460250Y-118216230D01*
X176460250Y-118216230D02*
X176765012Y-118216230D01*
X176765012Y-118216230D02*
X176917393Y-118140040D01*
X176917393Y-118140040D02*
X177069774Y-117987659D01*
X177069774Y-117987659D02*
X177145965Y-117682897D01*
X177145965Y-117682897D02*
X177145965Y-117149563D01*
X177145965Y-117149563D02*
X177069774Y-116844801D01*
X177069774Y-116844801D02*
X176917393Y-116692420D01*
X176917393Y-116692420D02*
X176765012Y-116616230D01*
X175469775Y-116768611D02*
X175393584Y-116692420D01*
X175393584Y-116692420D02*
X175241203Y-116616230D01*
X175241203Y-116616230D02*
X174860251Y-116616230D01*
X174860251Y-116616230D02*
X174707870Y-116692420D01*
X174707870Y-116692420D02*
X174631679Y-116768611D01*
X174631679Y-116768611D02*
X174555489Y-116920992D01*
X174555489Y-116920992D02*
X174555489Y-117073373D01*
X174555489Y-117073373D02*
X174631679Y-117301944D01*
X174631679Y-117301944D02*
X175545965Y-118216230D01*
X175545965Y-118216230D02*
X174555489Y-118216230D01*
X173565012Y-116616230D02*
X173412631Y-116616230D01*
X173412631Y-116616230D02*
X173260250Y-116692420D01*
X173260250Y-116692420D02*
X173184060Y-116768611D01*
X173184060Y-116768611D02*
X173107869Y-116920992D01*
X173107869Y-116920992D02*
X173031679Y-117225754D01*
X173031679Y-117225754D02*
X173031679Y-117606706D01*
X173031679Y-117606706D02*
X173107869Y-117911468D01*
X173107869Y-117911468D02*
X173184060Y-118063849D01*
X173184060Y-118063849D02*
X173260250Y-118140040D01*
X173260250Y-118140040D02*
X173412631Y-118216230D01*
X173412631Y-118216230D02*
X173565012Y-118216230D01*
X173565012Y-118216230D02*
X173717393Y-118140040D01*
X173717393Y-118140040D02*
X173793584Y-118063849D01*
X173793584Y-118063849D02*
X173869774Y-117911468D01*
X173869774Y-117911468D02*
X173945965Y-117606706D01*
X173945965Y-117606706D02*
X173945965Y-117225754D01*
X173945965Y-117225754D02*
X173869774Y-116920992D01*
X173869774Y-116920992D02*
X173793584Y-116768611D01*
X173793584Y-116768611D02*
X173717393Y-116692420D01*
X173717393Y-116692420D02*
X173565012Y-116616230D01*
X180193584Y-119268330D02*
X180345965Y-119192140D01*
X180345965Y-119192140D02*
X180574536Y-119192140D01*
X180574536Y-119192140D02*
X180803108Y-119268330D01*
X180803108Y-119268330D02*
X180955489Y-119420711D01*
X180955489Y-119420711D02*
X181031679Y-119573092D01*
X181031679Y-119573092D02*
X181107870Y-119877854D01*
X181107870Y-119877854D02*
X181107870Y-120106426D01*
X181107870Y-120106426D02*
X181031679Y-120411188D01*
X181031679Y-120411188D02*
X180955489Y-120563569D01*
X180955489Y-120563569D02*
X180803108Y-120715950D01*
X180803108Y-120715950D02*
X180574536Y-120792140D01*
X180574536Y-120792140D02*
X180422155Y-120792140D01*
X180422155Y-120792140D02*
X180193584Y-120715950D01*
X180193584Y-120715950D02*
X180117393Y-120639759D01*
X180117393Y-120639759D02*
X180117393Y-120106426D01*
X180117393Y-120106426D02*
X180422155Y-120106426D01*
X179431679Y-120792140D02*
X179431679Y-119192140D01*
X179431679Y-119192140D02*
X178517393Y-120792140D01*
X178517393Y-120792140D02*
X178517393Y-119192140D01*
X177755489Y-120792140D02*
X177755489Y-119192140D01*
X177755489Y-119192140D02*
X177374537Y-119192140D01*
X177374537Y-119192140D02*
X177145965Y-119268330D01*
X177145965Y-119268330D02*
X176993584Y-119420711D01*
X176993584Y-119420711D02*
X176917394Y-119573092D01*
X176917394Y-119573092D02*
X176841203Y-119877854D01*
X176841203Y-119877854D02*
X176841203Y-120106426D01*
X176841203Y-120106426D02*
X176917394Y-120411188D01*
X176917394Y-120411188D02*
X176993584Y-120563569D01*
X176993584Y-120563569D02*
X177145965Y-120715950D01*
X177145965Y-120715950D02*
X177374537Y-120792140D01*
X177374537Y-120792140D02*
X177755489Y-120792140D01*
D12*
X200159916Y-61176705D02*
X200207535Y-61224325D01*
X200207535Y-61224325D02*
X200350392Y-61271944D01*
X200350392Y-61271944D02*
X200445630Y-61271944D01*
X200445630Y-61271944D02*
X200588487Y-61224325D01*
X200588487Y-61224325D02*
X200683725Y-61129086D01*
X200683725Y-61129086D02*
X200731344Y-61033848D01*
X200731344Y-61033848D02*
X200778963Y-60843372D01*
X200778963Y-60843372D02*
X200778963Y-60700515D01*
X200778963Y-60700515D02*
X200731344Y-60510039D01*
X200731344Y-60510039D02*
X200683725Y-60414801D01*
X200683725Y-60414801D02*
X200588487Y-60319563D01*
X200588487Y-60319563D02*
X200445630Y-60271944D01*
X200445630Y-60271944D02*
X200350392Y-60271944D01*
X200350392Y-60271944D02*
X200207535Y-60319563D01*
X200207535Y-60319563D02*
X200159916Y-60367182D01*
X199302773Y-60605277D02*
X199302773Y-61271944D01*
X199540868Y-60224325D02*
X199778963Y-60938610D01*
X199778963Y-60938610D02*
X199159916Y-60938610D01*
X199865654Y-46809944D02*
X199865654Y-47619467D01*
X199865654Y-47619467D02*
X199818035Y-47714705D01*
X199818035Y-47714705D02*
X199770416Y-47762325D01*
X199770416Y-47762325D02*
X199675178Y-47809944D01*
X199675178Y-47809944D02*
X199484702Y-47809944D01*
X199484702Y-47809944D02*
X199389464Y-47762325D01*
X199389464Y-47762325D02*
X199341845Y-47714705D01*
X199341845Y-47714705D02*
X199294226Y-47619467D01*
X199294226Y-47619467D02*
X199294226Y-46809944D01*
X198389464Y-47143277D02*
X198389464Y-47809944D01*
X198627559Y-46762325D02*
X198865654Y-47476610D01*
X198865654Y-47476610D02*
X198246607Y-47476610D01*
X198287819Y-55078333D02*
X197811628Y-54745000D01*
X198287819Y-54506905D02*
X197287819Y-54506905D01*
X197287819Y-54506905D02*
X197287819Y-54887857D01*
X197287819Y-54887857D02*
X197335438Y-54983095D01*
X197335438Y-54983095D02*
X197383057Y-55030714D01*
X197383057Y-55030714D02*
X197478295Y-55078333D01*
X197478295Y-55078333D02*
X197621152Y-55078333D01*
X197621152Y-55078333D02*
X197716390Y-55030714D01*
X197716390Y-55030714D02*
X197764009Y-54983095D01*
X197764009Y-54983095D02*
X197811628Y-54887857D01*
X197811628Y-54887857D02*
X197811628Y-54506905D01*
X197287819Y-55935476D02*
X197287819Y-55745000D01*
X197287819Y-55745000D02*
X197335438Y-55649762D01*
X197335438Y-55649762D02*
X197383057Y-55602143D01*
X197383057Y-55602143D02*
X197525914Y-55506905D01*
X197525914Y-55506905D02*
X197716390Y-55459286D01*
X197716390Y-55459286D02*
X198097342Y-55459286D01*
X198097342Y-55459286D02*
X198192580Y-55506905D01*
X198192580Y-55506905D02*
X198240200Y-55554524D01*
X198240200Y-55554524D02*
X198287819Y-55649762D01*
X198287819Y-55649762D02*
X198287819Y-55840238D01*
X198287819Y-55840238D02*
X198240200Y-55935476D01*
X198240200Y-55935476D02*
X198192580Y-55983095D01*
X198192580Y-55983095D02*
X198097342Y-56030714D01*
X198097342Y-56030714D02*
X197859247Y-56030714D01*
X197859247Y-56030714D02*
X197764009Y-55983095D01*
X197764009Y-55983095D02*
X197716390Y-55935476D01*
X197716390Y-55935476D02*
X197668771Y-55840238D01*
X197668771Y-55840238D02*
X197668771Y-55649762D01*
X197668771Y-55649762D02*
X197716390Y-55554524D01*
X197716390Y-55554524D02*
X197764009Y-55506905D01*
X197764009Y-55506905D02*
X197859247Y-55459286D01*
X194611583Y-41190134D02*
X194944916Y-41190134D01*
X194944916Y-41713944D02*
X194944916Y-40713944D01*
X194944916Y-40713944D02*
X194468726Y-40713944D01*
X193563964Y-41713944D02*
X194135392Y-41713944D01*
X193849678Y-41713944D02*
X193849678Y-40713944D01*
X193849678Y-40713944D02*
X193944916Y-40856801D01*
X193944916Y-40856801D02*
X194040154Y-40952039D01*
X194040154Y-40952039D02*
X194135392Y-40999658D01*
X198540666Y-38554819D02*
X198873999Y-38078628D01*
X199112094Y-38554819D02*
X199112094Y-37554819D01*
X199112094Y-37554819D02*
X198731142Y-37554819D01*
X198731142Y-37554819D02*
X198635904Y-37602438D01*
X198635904Y-37602438D02*
X198588285Y-37650057D01*
X198588285Y-37650057D02*
X198540666Y-37745295D01*
X198540666Y-37745295D02*
X198540666Y-37888152D01*
X198540666Y-37888152D02*
X198588285Y-37983390D01*
X198588285Y-37983390D02*
X198635904Y-38031009D01*
X198635904Y-38031009D02*
X198731142Y-38078628D01*
X198731142Y-38078628D02*
X199112094Y-38078628D01*
X198207332Y-37554819D02*
X197588285Y-37554819D01*
X197588285Y-37554819D02*
X197921618Y-37935771D01*
X197921618Y-37935771D02*
X197778761Y-37935771D01*
X197778761Y-37935771D02*
X197683523Y-37983390D01*
X197683523Y-37983390D02*
X197635904Y-38031009D01*
X197635904Y-38031009D02*
X197588285Y-38126247D01*
X197588285Y-38126247D02*
X197588285Y-38364342D01*
X197588285Y-38364342D02*
X197635904Y-38459580D01*
X197635904Y-38459580D02*
X197683523Y-38507200D01*
X197683523Y-38507200D02*
X197778761Y-38554819D01*
X197778761Y-38554819D02*
X198064475Y-38554819D01*
X198064475Y-38554819D02*
X198159713Y-38507200D01*
X198159713Y-38507200D02*
X198207332Y-38459580D01*
X203493666Y-38173819D02*
X203826999Y-37697628D01*
X204065094Y-38173819D02*
X204065094Y-37173819D01*
X204065094Y-37173819D02*
X203684142Y-37173819D01*
X203684142Y-37173819D02*
X203588904Y-37221438D01*
X203588904Y-37221438D02*
X203541285Y-37269057D01*
X203541285Y-37269057D02*
X203493666Y-37364295D01*
X203493666Y-37364295D02*
X203493666Y-37507152D01*
X203493666Y-37507152D02*
X203541285Y-37602390D01*
X203541285Y-37602390D02*
X203588904Y-37650009D01*
X203588904Y-37650009D02*
X203684142Y-37697628D01*
X203684142Y-37697628D02*
X204065094Y-37697628D01*
X202636523Y-37507152D02*
X202636523Y-38173819D01*
X202874618Y-37126200D02*
X203112713Y-37840485D01*
X203112713Y-37840485D02*
X202493666Y-37840485D01*
X195662856Y-70674719D02*
X195730200Y-70674719D01*
X195730200Y-70674719D02*
X195864887Y-70607375D01*
X195864887Y-70607375D02*
X195932230Y-70540032D01*
X195932230Y-70540032D02*
X195999574Y-70405345D01*
X195999574Y-70405345D02*
X195999574Y-70270658D01*
X195999574Y-70270658D02*
X195965902Y-70169643D01*
X195965902Y-70169643D02*
X195864887Y-70001284D01*
X195864887Y-70001284D02*
X195763872Y-69900269D01*
X195763872Y-69900269D02*
X195595513Y-69799253D01*
X195595513Y-69799253D02*
X195494498Y-69765582D01*
X195494498Y-69765582D02*
X195359811Y-69765582D01*
X195359811Y-69765582D02*
X195225124Y-69832925D01*
X195225124Y-69832925D02*
X195157780Y-69900269D01*
X195157780Y-69900269D02*
X195090437Y-70034956D01*
X195090437Y-70034956D02*
X195090437Y-70102299D01*
X195056765Y-71415497D02*
X195460826Y-71011436D01*
X195258795Y-71213467D02*
X194551689Y-70506360D01*
X194551689Y-70506360D02*
X194720047Y-70540032D01*
X194720047Y-70540032D02*
X194854734Y-70540032D01*
X194854734Y-70540032D02*
X194955750Y-70506360D01*
X194383330Y-72088933D02*
X194787391Y-71684872D01*
X194585360Y-71886902D02*
X193878253Y-71179795D01*
X193878253Y-71179795D02*
X194046612Y-71213467D01*
X194046612Y-71213467D02*
X194181299Y-71213467D01*
X194181299Y-71213467D02*
X194282314Y-71179795D01*
X196349916Y-61176705D02*
X196397535Y-61224325D01*
X196397535Y-61224325D02*
X196540392Y-61271944D01*
X196540392Y-61271944D02*
X196635630Y-61271944D01*
X196635630Y-61271944D02*
X196778487Y-61224325D01*
X196778487Y-61224325D02*
X196873725Y-61129086D01*
X196873725Y-61129086D02*
X196921344Y-61033848D01*
X196921344Y-61033848D02*
X196968963Y-60843372D01*
X196968963Y-60843372D02*
X196968963Y-60700515D01*
X196968963Y-60700515D02*
X196921344Y-60510039D01*
X196921344Y-60510039D02*
X196873725Y-60414801D01*
X196873725Y-60414801D02*
X196778487Y-60319563D01*
X196778487Y-60319563D02*
X196635630Y-60271944D01*
X196635630Y-60271944D02*
X196540392Y-60271944D01*
X196540392Y-60271944D02*
X196397535Y-60319563D01*
X196397535Y-60319563D02*
X196349916Y-60367182D01*
X195778487Y-60700515D02*
X195873725Y-60652896D01*
X195873725Y-60652896D02*
X195921344Y-60605277D01*
X195921344Y-60605277D02*
X195968963Y-60510039D01*
X195968963Y-60510039D02*
X195968963Y-60462420D01*
X195968963Y-60462420D02*
X195921344Y-60367182D01*
X195921344Y-60367182D02*
X195873725Y-60319563D01*
X195873725Y-60319563D02*
X195778487Y-60271944D01*
X195778487Y-60271944D02*
X195588011Y-60271944D01*
X195588011Y-60271944D02*
X195492773Y-60319563D01*
X195492773Y-60319563D02*
X195445154Y-60367182D01*
X195445154Y-60367182D02*
X195397535Y-60462420D01*
X195397535Y-60462420D02*
X195397535Y-60510039D01*
X195397535Y-60510039D02*
X195445154Y-60605277D01*
X195445154Y-60605277D02*
X195492773Y-60652896D01*
X195492773Y-60652896D02*
X195588011Y-60700515D01*
X195588011Y-60700515D02*
X195778487Y-60700515D01*
X195778487Y-60700515D02*
X195873725Y-60748134D01*
X195873725Y-60748134D02*
X195921344Y-60795753D01*
X195921344Y-60795753D02*
X195968963Y-60890991D01*
X195968963Y-60890991D02*
X195968963Y-61081467D01*
X195968963Y-61081467D02*
X195921344Y-61176705D01*
X195921344Y-61176705D02*
X195873725Y-61224325D01*
X195873725Y-61224325D02*
X195778487Y-61271944D01*
X195778487Y-61271944D02*
X195588011Y-61271944D01*
X195588011Y-61271944D02*
X195492773Y-61224325D01*
X195492773Y-61224325D02*
X195445154Y-61176705D01*
X195445154Y-61176705D02*
X195397535Y-61081467D01*
X195397535Y-61081467D02*
X195397535Y-60890991D01*
X195397535Y-60890991D02*
X195445154Y-60795753D01*
X195445154Y-60795753D02*
X195492773Y-60748134D01*
X195492773Y-60748134D02*
X195588011Y-60700515D01*
X194317857Y-51413580D02*
X194365476Y-51461200D01*
X194365476Y-51461200D02*
X194508333Y-51508819D01*
X194508333Y-51508819D02*
X194603571Y-51508819D01*
X194603571Y-51508819D02*
X194746428Y-51461200D01*
X194746428Y-51461200D02*
X194841666Y-51365961D01*
X194841666Y-51365961D02*
X194889285Y-51270723D01*
X194889285Y-51270723D02*
X194936904Y-51080247D01*
X194936904Y-51080247D02*
X194936904Y-50937390D01*
X194936904Y-50937390D02*
X194889285Y-50746914D01*
X194889285Y-50746914D02*
X194841666Y-50651676D01*
X194841666Y-50651676D02*
X194746428Y-50556438D01*
X194746428Y-50556438D02*
X194603571Y-50508819D01*
X194603571Y-50508819D02*
X194508333Y-50508819D01*
X194508333Y-50508819D02*
X194365476Y-50556438D01*
X194365476Y-50556438D02*
X194317857Y-50604057D01*
X193365476Y-51508819D02*
X193936904Y-51508819D01*
X193651190Y-51508819D02*
X193651190Y-50508819D01*
X193651190Y-50508819D02*
X193746428Y-50651676D01*
X193746428Y-50651676D02*
X193841666Y-50746914D01*
X193841666Y-50746914D02*
X193936904Y-50794533D01*
X193032142Y-50508819D02*
X192365476Y-50508819D01*
X192365476Y-50508819D02*
X192794047Y-51508819D01*
X200102707Y-59398705D02*
X200150326Y-59446325D01*
X200150326Y-59446325D02*
X200293183Y-59493944D01*
X200293183Y-59493944D02*
X200388421Y-59493944D01*
X200388421Y-59493944D02*
X200531278Y-59446325D01*
X200531278Y-59446325D02*
X200626516Y-59351086D01*
X200626516Y-59351086D02*
X200674135Y-59255848D01*
X200674135Y-59255848D02*
X200721754Y-59065372D01*
X200721754Y-59065372D02*
X200721754Y-58922515D01*
X200721754Y-58922515D02*
X200674135Y-58732039D01*
X200674135Y-58732039D02*
X200626516Y-58636801D01*
X200626516Y-58636801D02*
X200531278Y-58541563D01*
X200531278Y-58541563D02*
X200388421Y-58493944D01*
X200388421Y-58493944D02*
X200293183Y-58493944D01*
X200293183Y-58493944D02*
X200150326Y-58541563D01*
X200150326Y-58541563D02*
X200102707Y-58589182D01*
X199150326Y-59493944D02*
X199721754Y-59493944D01*
X199436040Y-59493944D02*
X199436040Y-58493944D01*
X199436040Y-58493944D02*
X199531278Y-58636801D01*
X199531278Y-58636801D02*
X199626516Y-58732039D01*
X199626516Y-58732039D02*
X199721754Y-58779658D01*
X198816992Y-58493944D02*
X198197945Y-58493944D01*
X198197945Y-58493944D02*
X198531278Y-58874896D01*
X198531278Y-58874896D02*
X198388421Y-58874896D01*
X198388421Y-58874896D02*
X198293183Y-58922515D01*
X198293183Y-58922515D02*
X198245564Y-58970134D01*
X198245564Y-58970134D02*
X198197945Y-59065372D01*
X198197945Y-59065372D02*
X198197945Y-59303467D01*
X198197945Y-59303467D02*
X198245564Y-59398705D01*
X198245564Y-59398705D02*
X198293183Y-59446325D01*
X198293183Y-59446325D02*
X198388421Y-59493944D01*
X198388421Y-59493944D02*
X198674135Y-59493944D01*
X198674135Y-59493944D02*
X198769373Y-59446325D01*
X198769373Y-59446325D02*
X198816992Y-59398705D01*
X194565507Y-44057105D02*
X194613126Y-44104725D01*
X194613126Y-44104725D02*
X194755983Y-44152344D01*
X194755983Y-44152344D02*
X194851221Y-44152344D01*
X194851221Y-44152344D02*
X194994078Y-44104725D01*
X194994078Y-44104725D02*
X195089316Y-44009486D01*
X195089316Y-44009486D02*
X195136935Y-43914248D01*
X195136935Y-43914248D02*
X195184554Y-43723772D01*
X195184554Y-43723772D02*
X195184554Y-43580915D01*
X195184554Y-43580915D02*
X195136935Y-43390439D01*
X195136935Y-43390439D02*
X195089316Y-43295201D01*
X195089316Y-43295201D02*
X194994078Y-43199963D01*
X194994078Y-43199963D02*
X194851221Y-43152344D01*
X194851221Y-43152344D02*
X194755983Y-43152344D01*
X194755983Y-43152344D02*
X194613126Y-43199963D01*
X194613126Y-43199963D02*
X194565507Y-43247582D01*
X193613126Y-44152344D02*
X194184554Y-44152344D01*
X193898840Y-44152344D02*
X193898840Y-43152344D01*
X193898840Y-43152344D02*
X193994078Y-43295201D01*
X193994078Y-43295201D02*
X194089316Y-43390439D01*
X194089316Y-43390439D02*
X194184554Y-43438058D01*
X192755983Y-43152344D02*
X192946459Y-43152344D01*
X192946459Y-43152344D02*
X193041697Y-43199963D01*
X193041697Y-43199963D02*
X193089316Y-43247582D01*
X193089316Y-43247582D02*
X193184554Y-43390439D01*
X193184554Y-43390439D02*
X193232173Y-43580915D01*
X193232173Y-43580915D02*
X193232173Y-43961867D01*
X193232173Y-43961867D02*
X193184554Y-44057105D01*
X193184554Y-44057105D02*
X193136935Y-44104725D01*
X193136935Y-44104725D02*
X193041697Y-44152344D01*
X193041697Y-44152344D02*
X192851221Y-44152344D01*
X192851221Y-44152344D02*
X192755983Y-44104725D01*
X192755983Y-44104725D02*
X192708364Y-44057105D01*
X192708364Y-44057105D02*
X192660745Y-43961867D01*
X192660745Y-43961867D02*
X192660745Y-43723772D01*
X192660745Y-43723772D02*
X192708364Y-43628534D01*
X192708364Y-43628534D02*
X192755983Y-43580915D01*
X192755983Y-43580915D02*
X192851221Y-43533296D01*
X192851221Y-43533296D02*
X193041697Y-43533296D01*
X193041697Y-43533296D02*
X193136935Y-43580915D01*
X193136935Y-43580915D02*
X193184554Y-43628534D01*
X193184554Y-43628534D02*
X193232173Y-43723772D01*
X201144107Y-72860705D02*
X201191726Y-72908325D01*
X201191726Y-72908325D02*
X201334583Y-72955944D01*
X201334583Y-72955944D02*
X201429821Y-72955944D01*
X201429821Y-72955944D02*
X201572678Y-72908325D01*
X201572678Y-72908325D02*
X201667916Y-72813086D01*
X201667916Y-72813086D02*
X201715535Y-72717848D01*
X201715535Y-72717848D02*
X201763154Y-72527372D01*
X201763154Y-72527372D02*
X201763154Y-72384515D01*
X201763154Y-72384515D02*
X201715535Y-72194039D01*
X201715535Y-72194039D02*
X201667916Y-72098801D01*
X201667916Y-72098801D02*
X201572678Y-72003563D01*
X201572678Y-72003563D02*
X201429821Y-71955944D01*
X201429821Y-71955944D02*
X201334583Y-71955944D01*
X201334583Y-71955944D02*
X201191726Y-72003563D01*
X201191726Y-72003563D02*
X201144107Y-72051182D01*
X200191726Y-72955944D02*
X200763154Y-72955944D01*
X200477440Y-72955944D02*
X200477440Y-71955944D01*
X200477440Y-71955944D02*
X200572678Y-72098801D01*
X200572678Y-72098801D02*
X200667916Y-72194039D01*
X200667916Y-72194039D02*
X200763154Y-72241658D01*
X199572678Y-71955944D02*
X199477440Y-71955944D01*
X199477440Y-71955944D02*
X199382202Y-72003563D01*
X199382202Y-72003563D02*
X199334583Y-72051182D01*
X199334583Y-72051182D02*
X199286964Y-72146420D01*
X199286964Y-72146420D02*
X199239345Y-72336896D01*
X199239345Y-72336896D02*
X199239345Y-72574991D01*
X199239345Y-72574991D02*
X199286964Y-72765467D01*
X199286964Y-72765467D02*
X199334583Y-72860705D01*
X199334583Y-72860705D02*
X199382202Y-72908325D01*
X199382202Y-72908325D02*
X199477440Y-72955944D01*
X199477440Y-72955944D02*
X199572678Y-72955944D01*
X199572678Y-72955944D02*
X199667916Y-72908325D01*
X199667916Y-72908325D02*
X199715535Y-72860705D01*
X199715535Y-72860705D02*
X199763154Y-72765467D01*
X199763154Y-72765467D02*
X199810773Y-72574991D01*
X199810773Y-72574991D02*
X199810773Y-72336896D01*
X199810773Y-72336896D02*
X199763154Y-72146420D01*
X199763154Y-72146420D02*
X199715535Y-72051182D01*
X199715535Y-72051182D02*
X199667916Y-72003563D01*
X199667916Y-72003563D02*
X199572678Y-71955944D01*
X209145107Y-63335705D02*
X209192726Y-63383325D01*
X209192726Y-63383325D02*
X209335583Y-63430944D01*
X209335583Y-63430944D02*
X209430821Y-63430944D01*
X209430821Y-63430944D02*
X209573678Y-63383325D01*
X209573678Y-63383325D02*
X209668916Y-63288086D01*
X209668916Y-63288086D02*
X209716535Y-63192848D01*
X209716535Y-63192848D02*
X209764154Y-63002372D01*
X209764154Y-63002372D02*
X209764154Y-62859515D01*
X209764154Y-62859515D02*
X209716535Y-62669039D01*
X209716535Y-62669039D02*
X209668916Y-62573801D01*
X209668916Y-62573801D02*
X209573678Y-62478563D01*
X209573678Y-62478563D02*
X209430821Y-62430944D01*
X209430821Y-62430944D02*
X209335583Y-62430944D01*
X209335583Y-62430944D02*
X209192726Y-62478563D01*
X209192726Y-62478563D02*
X209145107Y-62526182D01*
X208192726Y-63430944D02*
X208764154Y-63430944D01*
X208478440Y-63430944D02*
X208478440Y-62430944D01*
X208478440Y-62430944D02*
X208573678Y-62573801D01*
X208573678Y-62573801D02*
X208668916Y-62669039D01*
X208668916Y-62669039D02*
X208764154Y-62716658D01*
X207287964Y-62430944D02*
X207764154Y-62430944D01*
X207764154Y-62430944D02*
X207811773Y-62907134D01*
X207811773Y-62907134D02*
X207764154Y-62859515D01*
X207764154Y-62859515D02*
X207668916Y-62811896D01*
X207668916Y-62811896D02*
X207430821Y-62811896D01*
X207430821Y-62811896D02*
X207335583Y-62859515D01*
X207335583Y-62859515D02*
X207287964Y-62907134D01*
X207287964Y-62907134D02*
X207240345Y-63002372D01*
X207240345Y-63002372D02*
X207240345Y-63240467D01*
X207240345Y-63240467D02*
X207287964Y-63335705D01*
X207287964Y-63335705D02*
X207335583Y-63383325D01*
X207335583Y-63383325D02*
X207430821Y-63430944D01*
X207430821Y-63430944D02*
X207668916Y-63430944D01*
X207668916Y-63430944D02*
X207764154Y-63383325D01*
X207764154Y-63383325D02*
X207811773Y-63335705D01*
X201644154Y-43507944D02*
X201644154Y-44317467D01*
X201644154Y-44317467D02*
X201596535Y-44412705D01*
X201596535Y-44412705D02*
X201548916Y-44460325D01*
X201548916Y-44460325D02*
X201453678Y-44507944D01*
X201453678Y-44507944D02*
X201263202Y-44507944D01*
X201263202Y-44507944D02*
X201167964Y-44460325D01*
X201167964Y-44460325D02*
X201120345Y-44412705D01*
X201120345Y-44412705D02*
X201072726Y-44317467D01*
X201072726Y-44317467D02*
X201072726Y-43507944D01*
X200644154Y-43603182D02*
X200596535Y-43555563D01*
X200596535Y-43555563D02*
X200501297Y-43507944D01*
X200501297Y-43507944D02*
X200263202Y-43507944D01*
X200263202Y-43507944D02*
X200167964Y-43555563D01*
X200167964Y-43555563D02*
X200120345Y-43603182D01*
X200120345Y-43603182D02*
X200072726Y-43698420D01*
X200072726Y-43698420D02*
X200072726Y-43793658D01*
X200072726Y-43793658D02*
X200120345Y-43936515D01*
X200120345Y-43936515D02*
X200691773Y-44507944D01*
X200691773Y-44507944D02*
X200072726Y-44507944D01*
X197619916Y-75527705D02*
X197667535Y-75575325D01*
X197667535Y-75575325D02*
X197810392Y-75622944D01*
X197810392Y-75622944D02*
X197905630Y-75622944D01*
X197905630Y-75622944D02*
X198048487Y-75575325D01*
X198048487Y-75575325D02*
X198143725Y-75480086D01*
X198143725Y-75480086D02*
X198191344Y-75384848D01*
X198191344Y-75384848D02*
X198238963Y-75194372D01*
X198238963Y-75194372D02*
X198238963Y-75051515D01*
X198238963Y-75051515D02*
X198191344Y-74861039D01*
X198191344Y-74861039D02*
X198143725Y-74765801D01*
X198143725Y-74765801D02*
X198048487Y-74670563D01*
X198048487Y-74670563D02*
X197905630Y-74622944D01*
X197905630Y-74622944D02*
X197810392Y-74622944D01*
X197810392Y-74622944D02*
X197667535Y-74670563D01*
X197667535Y-74670563D02*
X197619916Y-74718182D01*
X196762773Y-74622944D02*
X196953249Y-74622944D01*
X196953249Y-74622944D02*
X197048487Y-74670563D01*
X197048487Y-74670563D02*
X197096106Y-74718182D01*
X197096106Y-74718182D02*
X197191344Y-74861039D01*
X197191344Y-74861039D02*
X197238963Y-75051515D01*
X197238963Y-75051515D02*
X197238963Y-75432467D01*
X197238963Y-75432467D02*
X197191344Y-75527705D01*
X197191344Y-75527705D02*
X197143725Y-75575325D01*
X197143725Y-75575325D02*
X197048487Y-75622944D01*
X197048487Y-75622944D02*
X196858011Y-75622944D01*
X196858011Y-75622944D02*
X196762773Y-75575325D01*
X196762773Y-75575325D02*
X196715154Y-75527705D01*
X196715154Y-75527705D02*
X196667535Y-75432467D01*
X196667535Y-75432467D02*
X196667535Y-75194372D01*
X196667535Y-75194372D02*
X196715154Y-75099134D01*
X196715154Y-75099134D02*
X196762773Y-75051515D01*
X196762773Y-75051515D02*
X196858011Y-75003896D01*
X196858011Y-75003896D02*
X197048487Y-75003896D01*
X197048487Y-75003896D02*
X197143725Y-75051515D01*
X197143725Y-75051515D02*
X197191344Y-75099134D01*
X197191344Y-75099134D02*
X197238963Y-75194372D01*
X204985916Y-46920944D02*
X205319249Y-46444753D01*
X205557344Y-46920944D02*
X205557344Y-45920944D01*
X205557344Y-45920944D02*
X205176392Y-45920944D01*
X205176392Y-45920944D02*
X205081154Y-45968563D01*
X205081154Y-45968563D02*
X205033535Y-46016182D01*
X205033535Y-46016182D02*
X204985916Y-46111420D01*
X204985916Y-46111420D02*
X204985916Y-46254277D01*
X204985916Y-46254277D02*
X205033535Y-46349515D01*
X205033535Y-46349515D02*
X205081154Y-46397134D01*
X205081154Y-46397134D02*
X205176392Y-46444753D01*
X205176392Y-46444753D02*
X205557344Y-46444753D01*
X204033535Y-46920944D02*
X204604963Y-46920944D01*
X204319249Y-46920944D02*
X204319249Y-45920944D01*
X204319249Y-45920944D02*
X204414487Y-46063801D01*
X204414487Y-46063801D02*
X204509725Y-46159039D01*
X204509725Y-46159039D02*
X204604963Y-46206658D01*
X204477916Y-59398705D02*
X204525535Y-59446325D01*
X204525535Y-59446325D02*
X204668392Y-59493944D01*
X204668392Y-59493944D02*
X204763630Y-59493944D01*
X204763630Y-59493944D02*
X204906487Y-59446325D01*
X204906487Y-59446325D02*
X205001725Y-59351086D01*
X205001725Y-59351086D02*
X205049344Y-59255848D01*
X205049344Y-59255848D02*
X205096963Y-59065372D01*
X205096963Y-59065372D02*
X205096963Y-58922515D01*
X205096963Y-58922515D02*
X205049344Y-58732039D01*
X205049344Y-58732039D02*
X205001725Y-58636801D01*
X205001725Y-58636801D02*
X204906487Y-58541563D01*
X204906487Y-58541563D02*
X204763630Y-58493944D01*
X204763630Y-58493944D02*
X204668392Y-58493944D01*
X204668392Y-58493944D02*
X204525535Y-58541563D01*
X204525535Y-58541563D02*
X204477916Y-58589182D01*
X203573154Y-58493944D02*
X204049344Y-58493944D01*
X204049344Y-58493944D02*
X204096963Y-58970134D01*
X204096963Y-58970134D02*
X204049344Y-58922515D01*
X204049344Y-58922515D02*
X203954106Y-58874896D01*
X203954106Y-58874896D02*
X203716011Y-58874896D01*
X203716011Y-58874896D02*
X203620773Y-58922515D01*
X203620773Y-58922515D02*
X203573154Y-58970134D01*
X203573154Y-58970134D02*
X203525535Y-59065372D01*
X203525535Y-59065372D02*
X203525535Y-59303467D01*
X203525535Y-59303467D02*
X203573154Y-59398705D01*
X203573154Y-59398705D02*
X203620773Y-59446325D01*
X203620773Y-59446325D02*
X203716011Y-59493944D01*
X203716011Y-59493944D02*
X203954106Y-59493944D01*
X203954106Y-59493944D02*
X204049344Y-59446325D01*
X204049344Y-59446325D02*
X204096963Y-59398705D01*
X209583316Y-56401505D02*
X209630935Y-56449125D01*
X209630935Y-56449125D02*
X209773792Y-56496744D01*
X209773792Y-56496744D02*
X209869030Y-56496744D01*
X209869030Y-56496744D02*
X210011887Y-56449125D01*
X210011887Y-56449125D02*
X210107125Y-56353886D01*
X210107125Y-56353886D02*
X210154744Y-56258648D01*
X210154744Y-56258648D02*
X210202363Y-56068172D01*
X210202363Y-56068172D02*
X210202363Y-55925315D01*
X210202363Y-55925315D02*
X210154744Y-55734839D01*
X210154744Y-55734839D02*
X210107125Y-55639601D01*
X210107125Y-55639601D02*
X210011887Y-55544363D01*
X210011887Y-55544363D02*
X209869030Y-55496744D01*
X209869030Y-55496744D02*
X209773792Y-55496744D01*
X209773792Y-55496744D02*
X209630935Y-55544363D01*
X209630935Y-55544363D02*
X209583316Y-55591982D01*
X208630935Y-56496744D02*
X209202363Y-56496744D01*
X208916649Y-56496744D02*
X208916649Y-55496744D01*
X208916649Y-55496744D02*
X209011887Y-55639601D01*
X209011887Y-55639601D02*
X209107125Y-55734839D01*
X209107125Y-55734839D02*
X209202363Y-55782458D01*
X208795916Y-78829705D02*
X208843535Y-78877325D01*
X208843535Y-78877325D02*
X208986392Y-78924944D01*
X208986392Y-78924944D02*
X209081630Y-78924944D01*
X209081630Y-78924944D02*
X209224487Y-78877325D01*
X209224487Y-78877325D02*
X209319725Y-78782086D01*
X209319725Y-78782086D02*
X209367344Y-78686848D01*
X209367344Y-78686848D02*
X209414963Y-78496372D01*
X209414963Y-78496372D02*
X209414963Y-78353515D01*
X209414963Y-78353515D02*
X209367344Y-78163039D01*
X209367344Y-78163039D02*
X209319725Y-78067801D01*
X209319725Y-78067801D02*
X209224487Y-77972563D01*
X209224487Y-77972563D02*
X209081630Y-77924944D01*
X209081630Y-77924944D02*
X208986392Y-77924944D01*
X208986392Y-77924944D02*
X208843535Y-77972563D01*
X208843535Y-77972563D02*
X208795916Y-78020182D01*
X208414963Y-78020182D02*
X208367344Y-77972563D01*
X208367344Y-77972563D02*
X208272106Y-77924944D01*
X208272106Y-77924944D02*
X208034011Y-77924944D01*
X208034011Y-77924944D02*
X207938773Y-77972563D01*
X207938773Y-77972563D02*
X207891154Y-78020182D01*
X207891154Y-78020182D02*
X207843535Y-78115420D01*
X207843535Y-78115420D02*
X207843535Y-78210658D01*
X207843535Y-78210658D02*
X207891154Y-78353515D01*
X207891154Y-78353515D02*
X208462582Y-78924944D01*
X208462582Y-78924944D02*
X207843535Y-78924944D01*
X193174916Y-63970705D02*
X193222535Y-64018325D01*
X193222535Y-64018325D02*
X193365392Y-64065944D01*
X193365392Y-64065944D02*
X193460630Y-64065944D01*
X193460630Y-64065944D02*
X193603487Y-64018325D01*
X193603487Y-64018325D02*
X193698725Y-63923086D01*
X193698725Y-63923086D02*
X193746344Y-63827848D01*
X193746344Y-63827848D02*
X193793963Y-63637372D01*
X193793963Y-63637372D02*
X193793963Y-63494515D01*
X193793963Y-63494515D02*
X193746344Y-63304039D01*
X193746344Y-63304039D02*
X193698725Y-63208801D01*
X193698725Y-63208801D02*
X193603487Y-63113563D01*
X193603487Y-63113563D02*
X193460630Y-63065944D01*
X193460630Y-63065944D02*
X193365392Y-63065944D01*
X193365392Y-63065944D02*
X193222535Y-63113563D01*
X193222535Y-63113563D02*
X193174916Y-63161182D01*
X192698725Y-64065944D02*
X192508249Y-64065944D01*
X192508249Y-64065944D02*
X192413011Y-64018325D01*
X192413011Y-64018325D02*
X192365392Y-63970705D01*
X192365392Y-63970705D02*
X192270154Y-63827848D01*
X192270154Y-63827848D02*
X192222535Y-63637372D01*
X192222535Y-63637372D02*
X192222535Y-63256420D01*
X192222535Y-63256420D02*
X192270154Y-63161182D01*
X192270154Y-63161182D02*
X192317773Y-63113563D01*
X192317773Y-63113563D02*
X192413011Y-63065944D01*
X192413011Y-63065944D02*
X192603487Y-63065944D01*
X192603487Y-63065944D02*
X192698725Y-63113563D01*
X192698725Y-63113563D02*
X192746344Y-63161182D01*
X192746344Y-63161182D02*
X192793963Y-63256420D01*
X192793963Y-63256420D02*
X192793963Y-63494515D01*
X192793963Y-63494515D02*
X192746344Y-63589753D01*
X192746344Y-63589753D02*
X192698725Y-63637372D01*
X192698725Y-63637372D02*
X192603487Y-63684991D01*
X192603487Y-63684991D02*
X192413011Y-63684991D01*
X192413011Y-63684991D02*
X192317773Y-63637372D01*
X192317773Y-63637372D02*
X192270154Y-63589753D01*
X192270154Y-63589753D02*
X192222535Y-63494515D01*
X198159666Y-50397580D02*
X198207285Y-50445200D01*
X198207285Y-50445200D02*
X198350142Y-50492819D01*
X198350142Y-50492819D02*
X198445380Y-50492819D01*
X198445380Y-50492819D02*
X198588237Y-50445200D01*
X198588237Y-50445200D02*
X198683475Y-50349961D01*
X198683475Y-50349961D02*
X198731094Y-50254723D01*
X198731094Y-50254723D02*
X198778713Y-50064247D01*
X198778713Y-50064247D02*
X198778713Y-49921390D01*
X198778713Y-49921390D02*
X198731094Y-49730914D01*
X198731094Y-49730914D02*
X198683475Y-49635676D01*
X198683475Y-49635676D02*
X198588237Y-49540438D01*
X198588237Y-49540438D02*
X198445380Y-49492819D01*
X198445380Y-49492819D02*
X198350142Y-49492819D01*
X198350142Y-49492819D02*
X198207285Y-49540438D01*
X198207285Y-49540438D02*
X198159666Y-49588057D01*
X197826332Y-49492819D02*
X197159666Y-49492819D01*
X197159666Y-49492819D02*
X197588237Y-50492819D01*
X199016916Y-78575705D02*
X199064535Y-78623325D01*
X199064535Y-78623325D02*
X199207392Y-78670944D01*
X199207392Y-78670944D02*
X199302630Y-78670944D01*
X199302630Y-78670944D02*
X199445487Y-78623325D01*
X199445487Y-78623325D02*
X199540725Y-78528086D01*
X199540725Y-78528086D02*
X199588344Y-78432848D01*
X199588344Y-78432848D02*
X199635963Y-78242372D01*
X199635963Y-78242372D02*
X199635963Y-78099515D01*
X199635963Y-78099515D02*
X199588344Y-77909039D01*
X199588344Y-77909039D02*
X199540725Y-77813801D01*
X199540725Y-77813801D02*
X199445487Y-77718563D01*
X199445487Y-77718563D02*
X199302630Y-77670944D01*
X199302630Y-77670944D02*
X199207392Y-77670944D01*
X199207392Y-77670944D02*
X199064535Y-77718563D01*
X199064535Y-77718563D02*
X199016916Y-77766182D01*
X198683582Y-77670944D02*
X198064535Y-77670944D01*
X198064535Y-77670944D02*
X198397868Y-78051896D01*
X198397868Y-78051896D02*
X198255011Y-78051896D01*
X198255011Y-78051896D02*
X198159773Y-78099515D01*
X198159773Y-78099515D02*
X198112154Y-78147134D01*
X198112154Y-78147134D02*
X198064535Y-78242372D01*
X198064535Y-78242372D02*
X198064535Y-78480467D01*
X198064535Y-78480467D02*
X198112154Y-78575705D01*
X198112154Y-78575705D02*
X198159773Y-78623325D01*
X198159773Y-78623325D02*
X198255011Y-78670944D01*
X198255011Y-78670944D02*
X198540725Y-78670944D01*
X198540725Y-78670944D02*
X198635963Y-78623325D01*
X198635963Y-78623325D02*
X198683582Y-78575705D01*
X199938819Y-55078333D02*
X199462628Y-54745000D01*
X199938819Y-54506905D02*
X198938819Y-54506905D01*
X198938819Y-54506905D02*
X198938819Y-54887857D01*
X198938819Y-54887857D02*
X198986438Y-54983095D01*
X198986438Y-54983095D02*
X199034057Y-55030714D01*
X199034057Y-55030714D02*
X199129295Y-55078333D01*
X199129295Y-55078333D02*
X199272152Y-55078333D01*
X199272152Y-55078333D02*
X199367390Y-55030714D01*
X199367390Y-55030714D02*
X199415009Y-54983095D01*
X199415009Y-54983095D02*
X199462628Y-54887857D01*
X199462628Y-54887857D02*
X199462628Y-54506905D01*
X198938819Y-55983095D02*
X198938819Y-55506905D01*
X198938819Y-55506905D02*
X199415009Y-55459286D01*
X199415009Y-55459286D02*
X199367390Y-55506905D01*
X199367390Y-55506905D02*
X199319771Y-55602143D01*
X199319771Y-55602143D02*
X199319771Y-55840238D01*
X199319771Y-55840238D02*
X199367390Y-55935476D01*
X199367390Y-55935476D02*
X199415009Y-55983095D01*
X199415009Y-55983095D02*
X199510247Y-56030714D01*
X199510247Y-56030714D02*
X199748342Y-56030714D01*
X199748342Y-56030714D02*
X199843580Y-55983095D01*
X199843580Y-55983095D02*
X199891200Y-55935476D01*
X199891200Y-55935476D02*
X199938819Y-55840238D01*
X199938819Y-55840238D02*
X199938819Y-55602143D01*
X199938819Y-55602143D02*
X199891200Y-55506905D01*
X199891200Y-55506905D02*
X199843580Y-55459286D01*
X202152154Y-61668944D02*
X202152154Y-62478467D01*
X202152154Y-62478467D02*
X202104535Y-62573705D01*
X202104535Y-62573705D02*
X202056916Y-62621325D01*
X202056916Y-62621325D02*
X201961678Y-62668944D01*
X201961678Y-62668944D02*
X201771202Y-62668944D01*
X201771202Y-62668944D02*
X201675964Y-62621325D01*
X201675964Y-62621325D02*
X201628345Y-62573705D01*
X201628345Y-62573705D02*
X201580726Y-62478467D01*
X201580726Y-62478467D02*
X201580726Y-61668944D01*
X201199773Y-61668944D02*
X200580726Y-61668944D01*
X200580726Y-61668944D02*
X200914059Y-62049896D01*
X200914059Y-62049896D02*
X200771202Y-62049896D01*
X200771202Y-62049896D02*
X200675964Y-62097515D01*
X200675964Y-62097515D02*
X200628345Y-62145134D01*
X200628345Y-62145134D02*
X200580726Y-62240372D01*
X200580726Y-62240372D02*
X200580726Y-62478467D01*
X200580726Y-62478467D02*
X200628345Y-62573705D01*
X200628345Y-62573705D02*
X200675964Y-62621325D01*
X200675964Y-62621325D02*
X200771202Y-62668944D01*
X200771202Y-62668944D02*
X201056916Y-62668944D01*
X201056916Y-62668944D02*
X201152154Y-62621325D01*
X201152154Y-62621325D02*
X201199773Y-62573705D01*
X204124190Y-80628985D02*
X204124190Y-81105176D01*
X204457523Y-80105176D02*
X204124190Y-80628985D01*
X204124190Y-80628985D02*
X203790857Y-80105176D01*
X202933714Y-81105176D02*
X203505142Y-81105176D01*
X203219428Y-81105176D02*
X203219428Y-80105176D01*
X203219428Y-80105176D02*
X203314666Y-80248033D01*
X203314666Y-80248033D02*
X203409904Y-80343271D01*
X203409904Y-80343271D02*
X203505142Y-80390890D01*
X206724154Y-50028944D02*
X206724154Y-50838467D01*
X206724154Y-50838467D02*
X206676535Y-50933705D01*
X206676535Y-50933705D02*
X206628916Y-50981325D01*
X206628916Y-50981325D02*
X206533678Y-51028944D01*
X206533678Y-51028944D02*
X206343202Y-51028944D01*
X206343202Y-51028944D02*
X206247964Y-50981325D01*
X206247964Y-50981325D02*
X206200345Y-50933705D01*
X206200345Y-50933705D02*
X206152726Y-50838467D01*
X206152726Y-50838467D02*
X206152726Y-50028944D01*
X205152726Y-51028944D02*
X205724154Y-51028944D01*
X205438440Y-51028944D02*
X205438440Y-50028944D01*
X205438440Y-50028944D02*
X205533678Y-50171801D01*
X205533678Y-50171801D02*
X205628916Y-50267039D01*
X205628916Y-50267039D02*
X205724154Y-50314658D01*
X193968666Y-80945819D02*
X194301999Y-80469628D01*
X194540094Y-80945819D02*
X194540094Y-79945819D01*
X194540094Y-79945819D02*
X194159142Y-79945819D01*
X194159142Y-79945819D02*
X194063904Y-79993438D01*
X194063904Y-79993438D02*
X194016285Y-80041057D01*
X194016285Y-80041057D02*
X193968666Y-80136295D01*
X193968666Y-80136295D02*
X193968666Y-80279152D01*
X193968666Y-80279152D02*
X194016285Y-80374390D01*
X194016285Y-80374390D02*
X194063904Y-80422009D01*
X194063904Y-80422009D02*
X194159142Y-80469628D01*
X194159142Y-80469628D02*
X194540094Y-80469628D01*
X193587713Y-80041057D02*
X193540094Y-79993438D01*
X193540094Y-79993438D02*
X193444856Y-79945819D01*
X193444856Y-79945819D02*
X193206761Y-79945819D01*
X193206761Y-79945819D02*
X193111523Y-79993438D01*
X193111523Y-79993438D02*
X193063904Y-80041057D01*
X193063904Y-80041057D02*
X193016285Y-80136295D01*
X193016285Y-80136295D02*
X193016285Y-80231533D01*
X193016285Y-80231533D02*
X193063904Y-80374390D01*
X193063904Y-80374390D02*
X193635332Y-80945819D01*
X193635332Y-80945819D02*
X193016285Y-80945819D01*
X209938857Y-68685579D02*
X209986476Y-68733199D01*
X209986476Y-68733199D02*
X210129333Y-68780818D01*
X210129333Y-68780818D02*
X210224571Y-68780818D01*
X210224571Y-68780818D02*
X210367428Y-68733199D01*
X210367428Y-68733199D02*
X210462666Y-68637960D01*
X210462666Y-68637960D02*
X210510285Y-68542722D01*
X210510285Y-68542722D02*
X210557904Y-68352246D01*
X210557904Y-68352246D02*
X210557904Y-68209389D01*
X210557904Y-68209389D02*
X210510285Y-68018913D01*
X210510285Y-68018913D02*
X210462666Y-67923675D01*
X210462666Y-67923675D02*
X210367428Y-67828437D01*
X210367428Y-67828437D02*
X210224571Y-67780818D01*
X210224571Y-67780818D02*
X210129333Y-67780818D01*
X210129333Y-67780818D02*
X209986476Y-67828437D01*
X209986476Y-67828437D02*
X209938857Y-67876056D01*
X208986476Y-68780818D02*
X209557904Y-68780818D01*
X209272190Y-68780818D02*
X209272190Y-67780818D01*
X209272190Y-67780818D02*
X209367428Y-67923675D01*
X209367428Y-67923675D02*
X209462666Y-68018913D01*
X209462666Y-68018913D02*
X209557904Y-68066532D01*
X208605523Y-67876056D02*
X208557904Y-67828437D01*
X208557904Y-67828437D02*
X208462666Y-67780818D01*
X208462666Y-67780818D02*
X208224571Y-67780818D01*
X208224571Y-67780818D02*
X208129333Y-67828437D01*
X208129333Y-67828437D02*
X208081714Y-67876056D01*
X208081714Y-67876056D02*
X208034095Y-67971294D01*
X208034095Y-67971294D02*
X208034095Y-68066532D01*
X208034095Y-68066532D02*
X208081714Y-68209389D01*
X208081714Y-68209389D02*
X208653142Y-68780818D01*
X208653142Y-68780818D02*
X208034095Y-68780818D01*
X201215583Y-31188944D02*
X201215583Y-31903229D01*
X201215583Y-31903229D02*
X201263202Y-32046086D01*
X201263202Y-32046086D02*
X201358440Y-32141325D01*
X201358440Y-32141325D02*
X201501297Y-32188944D01*
X201501297Y-32188944D02*
X201596535Y-32188944D01*
X200215583Y-32188944D02*
X200787011Y-32188944D01*
X200501297Y-32188944D02*
X200501297Y-31188944D01*
X200501297Y-31188944D02*
X200596535Y-31331801D01*
X200596535Y-31331801D02*
X200691773Y-31427039D01*
X200691773Y-31427039D02*
X200787011Y-31474658D01*
X204223916Y-74733944D02*
X204557249Y-74257753D01*
X204795344Y-74733944D02*
X204795344Y-73733944D01*
X204795344Y-73733944D02*
X204414392Y-73733944D01*
X204414392Y-73733944D02*
X204319154Y-73781563D01*
X204319154Y-73781563D02*
X204271535Y-73829182D01*
X204271535Y-73829182D02*
X204223916Y-73924420D01*
X204223916Y-73924420D02*
X204223916Y-74067277D01*
X204223916Y-74067277D02*
X204271535Y-74162515D01*
X204271535Y-74162515D02*
X204319154Y-74210134D01*
X204319154Y-74210134D02*
X204414392Y-74257753D01*
X204414392Y-74257753D02*
X204795344Y-74257753D01*
X203890582Y-73733944D02*
X203223916Y-73733944D01*
X203223916Y-73733944D02*
X203652487Y-74733944D01*
X193143107Y-62446705D02*
X193190726Y-62494325D01*
X193190726Y-62494325D02*
X193333583Y-62541944D01*
X193333583Y-62541944D02*
X193428821Y-62541944D01*
X193428821Y-62541944D02*
X193571678Y-62494325D01*
X193571678Y-62494325D02*
X193666916Y-62399086D01*
X193666916Y-62399086D02*
X193714535Y-62303848D01*
X193714535Y-62303848D02*
X193762154Y-62113372D01*
X193762154Y-62113372D02*
X193762154Y-61970515D01*
X193762154Y-61970515D02*
X193714535Y-61780039D01*
X193714535Y-61780039D02*
X193666916Y-61684801D01*
X193666916Y-61684801D02*
X193571678Y-61589563D01*
X193571678Y-61589563D02*
X193428821Y-61541944D01*
X193428821Y-61541944D02*
X193333583Y-61541944D01*
X193333583Y-61541944D02*
X193190726Y-61589563D01*
X193190726Y-61589563D02*
X193143107Y-61637182D01*
X192190726Y-62541944D02*
X192762154Y-62541944D01*
X192476440Y-62541944D02*
X192476440Y-61541944D01*
X192476440Y-61541944D02*
X192571678Y-61684801D01*
X192571678Y-61684801D02*
X192666916Y-61780039D01*
X192666916Y-61780039D02*
X192762154Y-61827658D01*
X191333583Y-61875277D02*
X191333583Y-62541944D01*
X191571678Y-61494325D02*
X191809773Y-62208610D01*
X191809773Y-62208610D02*
X191190726Y-62208610D01*
D13*
%TO.C,G\u002A\u002A\u002A*%
G36*
X185125950Y-34296323D02*
G01*
X185120301Y-34393401D01*
X185072582Y-34474144D01*
X184939969Y-34509872D01*
X184679964Y-34522097D01*
X184233977Y-34532188D01*
X184684920Y-34614315D01*
X184823364Y-34641068D01*
X185020580Y-34696905D01*
X185103522Y-34768110D01*
X185109669Y-34877946D01*
X185080858Y-34964922D01*
X184956370Y-35067140D01*
X184701201Y-35145648D01*
X184318927Y-35231846D01*
X184722439Y-35258854D01*
X184839403Y-35267772D01*
X185028047Y-35300032D01*
X185108838Y-35367718D01*
X185125950Y-35496890D01*
X185125945Y-35507374D01*
X185118545Y-35604758D01*
X185074488Y-35662621D01*
X184960489Y-35689392D01*
X184743260Y-35693500D01*
X184389517Y-35683373D01*
X183653084Y-35658828D01*
X183652802Y-35319028D01*
X183653244Y-35238119D01*
X183674025Y-35059378D01*
X183756697Y-34980988D01*
X183943248Y-34949537D01*
X184233977Y-34919845D01*
X183936653Y-34822112D01*
X183752804Y-34746662D01*
X183659416Y-34633466D01*
X183639328Y-34427055D01*
X183639328Y-34129731D01*
X184382639Y-34105186D01*
X185125950Y-34080641D01*
X185125950Y-34296323D01*
G37*
G36*
X185125950Y-36036884D02*
G01*
X185098946Y-36221259D01*
X184998526Y-36295952D01*
X184939907Y-36305536D01*
X184871101Y-36380901D01*
X184886953Y-36421216D01*
X185002579Y-36465851D01*
X185039709Y-36471170D01*
X185094721Y-36534387D01*
X185115411Y-36696850D01*
X185108767Y-36993275D01*
X185090957Y-37263763D01*
X185056383Y-37440330D01*
X184989017Y-37529813D01*
X184871101Y-37575728D01*
X184658726Y-37630757D01*
X184892338Y-37694637D01*
X184946349Y-37711152D01*
X185089265Y-37810271D01*
X185125950Y-38004157D01*
X185125997Y-38038551D01*
X185119044Y-38180661D01*
X185071270Y-38233514D01*
X184943312Y-38206824D01*
X184695807Y-38110303D01*
X184523293Y-38048873D01*
X184288045Y-38015840D01*
X184037880Y-38065734D01*
X183983430Y-38081248D01*
X183781936Y-38116245D01*
X183671595Y-38099041D01*
X183644691Y-38032360D01*
X183678447Y-37872159D01*
X183780857Y-37719055D01*
X183912678Y-37646681D01*
X183933553Y-37645245D01*
X183982287Y-37625292D01*
X183867927Y-37582969D01*
X183743657Y-37532815D01*
X183676790Y-37464012D01*
X183679654Y-37394982D01*
X183681803Y-37219542D01*
X183682249Y-37190357D01*
X183708706Y-37094510D01*
X183809238Y-37068041D01*
X184029791Y-37094431D01*
X184060719Y-37099066D01*
X184321241Y-37117937D01*
X184571037Y-37107873D01*
X184770327Y-37075048D01*
X184879330Y-37025639D01*
X184858267Y-36965820D01*
X184711855Y-36914785D01*
X184488827Y-36887106D01*
X184486323Y-36887042D01*
X184221634Y-36852670D01*
X183943097Y-36779618D01*
X183922886Y-36772509D01*
X183743286Y-36688386D01*
X183667877Y-36567083D01*
X183653517Y-36352585D01*
X184389719Y-36352585D01*
X184402169Y-36362752D01*
X184502985Y-36352585D01*
X184516275Y-36327033D01*
X184446352Y-36295952D01*
X184401380Y-36302082D01*
X184389719Y-36352585D01*
X183653517Y-36352585D01*
X183652852Y-36342645D01*
X183654875Y-36241565D01*
X183679860Y-36098584D01*
X183757154Y-36002364D01*
X183915969Y-35937249D01*
X184185519Y-35887585D01*
X184446352Y-35855820D01*
X184595014Y-35837715D01*
X185125950Y-35777816D01*
X185125950Y-36036884D01*
G37*
G36*
X184462624Y-38947021D02*
G01*
X184637035Y-38964681D01*
X184910010Y-39023360D01*
X185046450Y-39105205D01*
X185104455Y-39268465D01*
X185121723Y-39536869D01*
X185082747Y-39802572D01*
X184992458Y-39985201D01*
X184871227Y-40065111D01*
X184652659Y-40118694D01*
X184566704Y-40112972D01*
X184469585Y-40046361D01*
X184446352Y-39863845D01*
X184448105Y-39798058D01*
X184491890Y-39649044D01*
X184616251Y-39608995D01*
X184714987Y-39593376D01*
X184786151Y-39525670D01*
X184772414Y-39503259D01*
X184636674Y-39477835D01*
X184382639Y-39495163D01*
X184120501Y-39535399D01*
X183965639Y-39572677D01*
X183951669Y-39599013D01*
X184092394Y-39608995D01*
X184153569Y-39613024D01*
X184251416Y-39679330D01*
X184276452Y-39863845D01*
X184271728Y-39971017D01*
X184217474Y-40090266D01*
X184068895Y-40118694D01*
X184048260Y-40118164D01*
X183827626Y-40034731D01*
X183676487Y-39842273D01*
X183608467Y-39588693D01*
X183637188Y-39321893D01*
X183776275Y-39089775D01*
X183832785Y-39037773D01*
X183968941Y-38961353D01*
X184160085Y-38935013D01*
X184462624Y-38947021D01*
G37*
G36*
X184069091Y-40203644D02*
G01*
X184399823Y-40203644D01*
X185125950Y-40203644D01*
X185125950Y-40458493D01*
X185125276Y-40518909D01*
X185099683Y-40650761D01*
X185001094Y-40703656D01*
X184781138Y-40713343D01*
X184706518Y-40714932D01*
X184527062Y-40742521D01*
X184488827Y-40798293D01*
X184494594Y-40805787D01*
X184622045Y-40860733D01*
X184833640Y-40883243D01*
X185002116Y-40892701D01*
X185103371Y-40951425D01*
X185125950Y-41096492D01*
X185120665Y-41196879D01*
X185082061Y-41260540D01*
X184976016Y-41290681D01*
X184768408Y-41296609D01*
X184425114Y-41287629D01*
X183724278Y-41265517D01*
X183702022Y-40798293D01*
X183936653Y-40798293D01*
X183938941Y-40818448D01*
X184016589Y-40883243D01*
X184040423Y-40880002D01*
X184149027Y-40798293D01*
X184157019Y-40754526D01*
X184069091Y-40713343D01*
X184005799Y-40723740D01*
X183936653Y-40798293D01*
X183702022Y-40798293D01*
X183698987Y-40734580D01*
X183673696Y-40203644D01*
X184069091Y-40203644D01*
G37*
G36*
X184423013Y-41393238D02*
G01*
X184732139Y-41402658D01*
X184962809Y-41422645D01*
X185069317Y-41449575D01*
X185073586Y-41455642D01*
X185100128Y-41583255D01*
X185118858Y-41827284D01*
X185125950Y-42141046D01*
X185123568Y-42351740D01*
X185103882Y-42625129D01*
X185057730Y-42789944D01*
X184977288Y-42885369D01*
X184912794Y-42934632D01*
X184874802Y-42999175D01*
X184977288Y-43052485D01*
X185016822Y-43079742D01*
X185091646Y-43212226D01*
X185131035Y-43386611D01*
X185124672Y-43536800D01*
X185062238Y-43596694D01*
X185046303Y-43594527D01*
X184898890Y-43566923D01*
X184641928Y-43514872D01*
X184319299Y-43447203D01*
X183640072Y-43302655D01*
X183668854Y-42963685D01*
X183669764Y-42953867D01*
X184264664Y-42953867D01*
X184299306Y-42980908D01*
X184385515Y-42994565D01*
X184554156Y-42977760D01*
X184561729Y-42974375D01*
X184548956Y-42947782D01*
X184403877Y-42938599D01*
X184377497Y-42939160D01*
X184264664Y-42953867D01*
X183669764Y-42953867D01*
X183675528Y-42891668D01*
X183701182Y-42690974D01*
X183724909Y-42596604D01*
X183729093Y-42593989D01*
X183841834Y-42562759D01*
X184071756Y-42513489D01*
X184375354Y-42455609D01*
X184403877Y-42450370D01*
X184446663Y-42442511D01*
X184708940Y-42390437D01*
X184868243Y-42352113D01*
X184892338Y-42335056D01*
X184830881Y-42299060D01*
X184786151Y-42157490D01*
X184762500Y-42058413D01*
X184658726Y-41987590D01*
X184599301Y-42002391D01*
X184531302Y-42115015D01*
X184499767Y-42189323D01*
X184361402Y-42242440D01*
X184262325Y-42218789D01*
X184191502Y-42115015D01*
X184176701Y-42055590D01*
X184064078Y-41987590D01*
X183989770Y-42019125D01*
X183936653Y-42157490D01*
X183934082Y-42245948D01*
X183891749Y-42320627D01*
X183752464Y-42284041D01*
X183717528Y-42259691D01*
X183667470Y-42109733D01*
X183668765Y-41816817D01*
X183698201Y-41392942D01*
X184355442Y-41392942D01*
X184423013Y-41393238D01*
G37*
G36*
X183868653Y-43446538D02*
G01*
X183936653Y-43559162D01*
X183939489Y-43583886D01*
X184001700Y-43645966D01*
X184169487Y-43677688D01*
X184474668Y-43686587D01*
X184733951Y-43693694D01*
X184962407Y-43715590D01*
X185073217Y-43747120D01*
X185106347Y-43837646D01*
X185108613Y-44023207D01*
X185104245Y-44057154D01*
X185072768Y-44158735D01*
X184989478Y-44216502D01*
X184815027Y-44246276D01*
X184510064Y-44263880D01*
X184460423Y-44266205D01*
X184152779Y-44292839D01*
X183986519Y-44338221D01*
X183936653Y-44408661D01*
X183937375Y-44419052D01*
X184000424Y-44486014D01*
X184182990Y-44528707D01*
X184510064Y-44553441D01*
X185083476Y-44578560D01*
X185083476Y-44833410D01*
X185083476Y-45088259D01*
X184369570Y-45088259D01*
X183655665Y-45088259D01*
X183662200Y-44727222D01*
X183664510Y-44594448D01*
X183670105Y-44247264D01*
X183675269Y-43898962D01*
X183689675Y-43627367D01*
X183731430Y-43475450D01*
X183809228Y-43431738D01*
X183868653Y-43446538D01*
G37*
G36*
X184403877Y-45220679D02*
G01*
X184638705Y-45230097D01*
X184885887Y-45263683D01*
X185024011Y-45317624D01*
X185042758Y-45341697D01*
X185101057Y-45525061D01*
X185122320Y-45783435D01*
X185104725Y-46042809D01*
X185046450Y-46229173D01*
X184998449Y-46271774D01*
X184790745Y-46343332D01*
X184462624Y-46387357D01*
X184290690Y-46397664D01*
X184054333Y-46392030D01*
X183898766Y-46341929D01*
X183766412Y-46234741D01*
X183680257Y-46135266D01*
X183612101Y-45958953D01*
X183620192Y-45769584D01*
X184101760Y-45769584D01*
X184171786Y-45786949D01*
X184423186Y-45800865D01*
X184681485Y-45786082D01*
X184728802Y-45768586D01*
X184629544Y-45756138D01*
X184403877Y-45751706D01*
X184400128Y-45751714D01*
X184183810Y-45756938D01*
X184101760Y-45769584D01*
X183620192Y-45769584D01*
X183623025Y-45703278D01*
X183634288Y-45634404D01*
X183699288Y-45413934D01*
X183781549Y-45289692D01*
X183840548Y-45264897D01*
X184056261Y-45229360D01*
X184342238Y-45218207D01*
X184403877Y-45220679D01*
G37*
G36*
X184750774Y-46491826D02*
G01*
X184965370Y-46504118D01*
X185077006Y-46536700D01*
X185119321Y-46599464D01*
X185125950Y-46702306D01*
X185125406Y-46738841D01*
X185097285Y-46855289D01*
X184992647Y-46906585D01*
X184764914Y-46920936D01*
X184403877Y-46927192D01*
X184764914Y-47065916D01*
X184938296Y-47141642D01*
X185085212Y-47255696D01*
X185125950Y-47399460D01*
X185119865Y-47483532D01*
X185078211Y-47545570D01*
X184967375Y-47578669D01*
X184753786Y-47591886D01*
X184403877Y-47594279D01*
X184056980Y-47592384D01*
X183842384Y-47580093D01*
X183730747Y-47547511D01*
X183688433Y-47484746D01*
X183681803Y-47381905D01*
X183691028Y-47275092D01*
X183765531Y-47186869D01*
X183957890Y-47160858D01*
X184233977Y-47152185D01*
X183957890Y-47063619D01*
X183842158Y-47020343D01*
X183713780Y-46914008D01*
X183681803Y-46732492D01*
X183681803Y-46489932D01*
X184403877Y-46489932D01*
X184750774Y-46491826D01*
G37*
G36*
X184873436Y-48455115D02*
G01*
X185024011Y-48545717D01*
X185046876Y-48577833D01*
X185103346Y-48760498D01*
X185125950Y-49009953D01*
X185123569Y-49102039D01*
X185076463Y-49325963D01*
X184947310Y-49462169D01*
X184707725Y-49529832D01*
X184329329Y-49548125D01*
X184267402Y-49547809D01*
X184001083Y-49530103D01*
X183839733Y-49472963D01*
X183729095Y-49359324D01*
X183725834Y-49354623D01*
X183614857Y-49081674D01*
X183615968Y-48980885D01*
X183853737Y-48980885D01*
X183957890Y-49015327D01*
X184038458Y-49027314D01*
X184255215Y-49015327D01*
X184305859Y-49002712D01*
X184359368Y-48969926D01*
X184255215Y-48915060D01*
X184161076Y-48891460D01*
X183957890Y-48915060D01*
X183907246Y-48937607D01*
X183853737Y-48980885D01*
X183615968Y-48980885D01*
X183617982Y-48798220D01*
X183734720Y-48572896D01*
X183904702Y-48480275D01*
X184161076Y-48464470D01*
X184223182Y-48460641D01*
X184297311Y-48466539D01*
X184485118Y-48500794D01*
X184568827Y-48585542D01*
X184600396Y-48762340D01*
X184602190Y-48779735D01*
X184656924Y-48975913D01*
X184770296Y-49031720D01*
X184840868Y-49019865D01*
X184807389Y-48982166D01*
X184787609Y-48970861D01*
X184720716Y-48849736D01*
X184702806Y-48672858D01*
X184733305Y-48513212D01*
X184811636Y-48443778D01*
X184873436Y-48455115D01*
G37*
G36*
X184491500Y-49718526D02*
G01*
X184658726Y-49728002D01*
X184777850Y-49734752D01*
X184945216Y-49780945D01*
X185034196Y-49866687D01*
X185094812Y-50040247D01*
X185120386Y-50303008D01*
X185096482Y-50555146D01*
X185024011Y-50720433D01*
X184868939Y-50792399D01*
X184623750Y-50819323D01*
X184376191Y-50795335D01*
X184208492Y-50720433D01*
X184131627Y-50661332D01*
X184106553Y-50720433D01*
X184105857Y-50734144D01*
X184036405Y-50813927D01*
X183892550Y-50797272D01*
X183730346Y-50688880D01*
X183724175Y-50682545D01*
X183615086Y-50457692D01*
X183616120Y-50275916D01*
X183860706Y-50275916D01*
X183976407Y-50342350D01*
X184040810Y-50355243D01*
X184142461Y-50312674D01*
X184446352Y-50312674D01*
X184499079Y-50368544D01*
X184658726Y-50397624D01*
X184798403Y-50376533D01*
X184871101Y-50312674D01*
X184818374Y-50256804D01*
X184658726Y-50227724D01*
X184519050Y-50248815D01*
X184446352Y-50312674D01*
X184142461Y-50312674D01*
X184151320Y-50308964D01*
X184145056Y-50259088D01*
X184026616Y-50227724D01*
X183910145Y-50235663D01*
X183860706Y-50275916D01*
X183616120Y-50275916D01*
X183616689Y-50175946D01*
X183729095Y-49906827D01*
X183786855Y-49836003D01*
X183904949Y-49761328D01*
X184026616Y-49739015D01*
X184094490Y-49726568D01*
X184404473Y-49718025D01*
X184491500Y-49718526D01*
G37*
G36*
X176121268Y-32770534D02*
G01*
X178819917Y-32770534D01*
X182874780Y-32770534D01*
X182920589Y-41265517D01*
X182922695Y-41656354D01*
X182931099Y-43227411D01*
X182938486Y-44639158D01*
X182944821Y-45900178D01*
X182950069Y-47019054D01*
X182954196Y-48004368D01*
X182957168Y-48864703D01*
X182958948Y-49608642D01*
X182959503Y-50244766D01*
X182958797Y-50781660D01*
X182956796Y-51227905D01*
X182953466Y-51592085D01*
X182948771Y-51882781D01*
X182942677Y-52108576D01*
X182935148Y-52278054D01*
X182926151Y-52399796D01*
X182915651Y-52482385D01*
X182903612Y-52534404D01*
X182890000Y-52564436D01*
X182874780Y-52581062D01*
X182874511Y-52581263D01*
X182772576Y-52594356D01*
X182517903Y-52605669D01*
X182127403Y-52615020D01*
X181617988Y-52622225D01*
X181006568Y-52627101D01*
X180310056Y-52629466D01*
X179545362Y-52629136D01*
X178729397Y-52625928D01*
X174668965Y-52603062D01*
X174711343Y-43856487D01*
X175356720Y-43856487D01*
X175356720Y-47793544D01*
X175356720Y-51730602D01*
X176439830Y-51785842D01*
X176678181Y-51796305D01*
X177147407Y-51810842D01*
X177697015Y-51822355D01*
X178301978Y-51830836D01*
X178937272Y-51836273D01*
X179577871Y-51838656D01*
X180198750Y-51837974D01*
X180774885Y-51834217D01*
X181281249Y-51827374D01*
X181692818Y-51817436D01*
X181984566Y-51804391D01*
X182131469Y-51788228D01*
X182322606Y-51737006D01*
X182322606Y-47851403D01*
X182322606Y-43965801D01*
X180940888Y-43906153D01*
X180540484Y-43890028D01*
X180072245Y-43877853D01*
X179729097Y-43882552D01*
X179484522Y-43907386D01*
X179312005Y-43955613D01*
X179185029Y-44030494D01*
X179077078Y-44135290D01*
X179018157Y-44201363D01*
X178847892Y-44391490D01*
X178615992Y-44649907D01*
X178355005Y-44940330D01*
X178199691Y-45112491D01*
X177875696Y-45470341D01*
X177641071Y-45736888D01*
X177481564Y-45939982D01*
X177382921Y-46107472D01*
X177330889Y-46267209D01*
X177311214Y-46447042D01*
X177309643Y-46674820D01*
X177311923Y-46978393D01*
X177311806Y-47147620D01*
X177315192Y-47481818D01*
X177329205Y-47688637D01*
X177360515Y-47798769D01*
X177415791Y-47842905D01*
X177501703Y-47851739D01*
X177614852Y-47852218D01*
X177880314Y-47852354D01*
X178268643Y-47852095D01*
X178755033Y-47851466D01*
X179314679Y-47850494D01*
X179922773Y-47849205D01*
X182152706Y-47844060D01*
X182152706Y-48441243D01*
X182152706Y-49038426D01*
X179731636Y-49038426D01*
X177310566Y-49038426D01*
X177310566Y-49713141D01*
X177310566Y-50387855D01*
X177671603Y-50413977D01*
X178032639Y-50440099D01*
X178032639Y-50907323D01*
X178032639Y-51374547D01*
X177098191Y-51374547D01*
X176163743Y-51374547D01*
X176141412Y-48373889D01*
X176119081Y-45373232D01*
X176799773Y-44691624D01*
X177042834Y-44443150D01*
X177269750Y-44199653D01*
X177423734Y-44020656D01*
X177480466Y-43933252D01*
X177479478Y-43929933D01*
X177383449Y-43901288D01*
X177153184Y-43877948D01*
X176820845Y-43862240D01*
X176418593Y-43856487D01*
X175356720Y-43856487D01*
X174711343Y-43856487D01*
X174717010Y-42686798D01*
X174719990Y-42071771D01*
X176116731Y-42071771D01*
X176418593Y-42430539D01*
X176777361Y-42856940D01*
X177036740Y-43164321D01*
X177270588Y-43439724D01*
X177446199Y-43644672D01*
X177538110Y-43749298D01*
X177648503Y-43790841D01*
X177870268Y-43825025D01*
X178156181Y-43849261D01*
X178459654Y-43861660D01*
X178734100Y-43860334D01*
X178932932Y-43843393D01*
X179009563Y-43808949D01*
X178978586Y-43756273D01*
X178858464Y-43594799D01*
X178668897Y-43354902D01*
X178432447Y-43065638D01*
X178275547Y-42876317D01*
X177886917Y-42403749D01*
X177590938Y-42033117D01*
X177375067Y-41743592D01*
X177226763Y-41514343D01*
X177133485Y-41324540D01*
X177082690Y-41153353D01*
X177061838Y-40979952D01*
X177061412Y-40955711D01*
X177975584Y-40955711D01*
X177984349Y-41045729D01*
X178077458Y-41184920D01*
X178268023Y-41413199D01*
X178445290Y-41622097D01*
X178633009Y-41844961D01*
X178754713Y-41991413D01*
X178837437Y-42082143D01*
X178926090Y-42096647D01*
X179065186Y-41996890D01*
X179248233Y-41846033D01*
X178823031Y-41343400D01*
X178784473Y-41297858D01*
X178575968Y-41052892D01*
X178411359Y-40861583D01*
X178323429Y-40762073D01*
X178235813Y-40743485D01*
X178078893Y-40837348D01*
X178038055Y-40874952D01*
X177975584Y-40955711D01*
X177061412Y-40955711D01*
X177058386Y-40783508D01*
X177062988Y-40559029D01*
X177089047Y-40338753D01*
X177152067Y-40201488D01*
X177267704Y-40095796D01*
X177296134Y-40075138D01*
X177777791Y-39731947D01*
X178233033Y-39419503D01*
X178235813Y-39417675D01*
X178639868Y-39151922D01*
X178976301Y-38943317D01*
X179220338Y-38807804D01*
X179349987Y-38759497D01*
X179367754Y-38762631D01*
X179510126Y-38835688D01*
X179734930Y-38984549D01*
X180004671Y-39181145D01*
X180281853Y-39397403D01*
X180528981Y-39605251D01*
X180708559Y-39776618D01*
X180724057Y-39791418D01*
X180842880Y-39896040D01*
X181046932Y-40071423D01*
X181303208Y-40289122D01*
X181386785Y-40360209D01*
X181644725Y-40585319D01*
X181848138Y-40771187D01*
X181958868Y-40883243D01*
X182009633Y-40916894D01*
X182042137Y-40849743D01*
X182059207Y-40657661D01*
X182065055Y-40318236D01*
X182067757Y-39625806D01*
X181538752Y-39171414D01*
X181488083Y-39127929D01*
X181210669Y-38891053D01*
X180965969Y-38683907D01*
X180801942Y-38547122D01*
X180777629Y-38527140D01*
X180561214Y-38344528D01*
X180332785Y-38146101D01*
X180071435Y-37914979D01*
X181069596Y-37912489D01*
X182067757Y-37909998D01*
X182067757Y-36508326D01*
X182067757Y-35106654D01*
X181643007Y-35106654D01*
X181218258Y-35106654D01*
X181218258Y-35956152D01*
X181218258Y-36805651D01*
X179147389Y-36805651D01*
X178683707Y-36804920D01*
X178114587Y-36800586D01*
X177684271Y-36791456D01*
X177374086Y-36776504D01*
X177165360Y-36754704D01*
X177039422Y-36725031D01*
X176977600Y-36686459D01*
X176931138Y-36560148D01*
X176902433Y-36273773D01*
X176903486Y-35858198D01*
X176928292Y-35149129D01*
X177374278Y-35123452D01*
X177820265Y-35097775D01*
X177820265Y-34677465D01*
X177820265Y-34257156D01*
X176970767Y-34257156D01*
X176121268Y-34257156D01*
X176121268Y-36083577D01*
X176121268Y-37909998D01*
X177183141Y-37909998D01*
X177228986Y-37910043D01*
X177625250Y-37914379D01*
X177948119Y-37924779D01*
X178165429Y-37939789D01*
X178245014Y-37957958D01*
X178230898Y-37989962D01*
X178099447Y-38126171D01*
X177835501Y-38347174D01*
X177445852Y-38647446D01*
X176937292Y-39021464D01*
X176163743Y-39580756D01*
X176140237Y-40826263D01*
X176116731Y-42071771D01*
X174719990Y-42071771D01*
X174765055Y-32770534D01*
X176121268Y-32770534D01*
G37*
G36*
X178957628Y-45076607D02*
G01*
X179107058Y-45184562D01*
X179162216Y-45237459D01*
X179207506Y-45312582D01*
X179192443Y-45403857D01*
X179102578Y-45537768D01*
X178923459Y-45740799D01*
X178640637Y-46039434D01*
X178640430Y-46039651D01*
X178395794Y-46292381D01*
X178235646Y-46439350D01*
X178127684Y-46498161D01*
X178039610Y-46486413D01*
X177939121Y-46421708D01*
X177802170Y-46300087D01*
X177737985Y-46194893D01*
X177737983Y-46193871D01*
X177796189Y-46095313D01*
X177945571Y-45917704D01*
X178152211Y-45695385D01*
X178382192Y-45462694D01*
X178601595Y-45253970D01*
X178776502Y-45103554D01*
X178872995Y-45045784D01*
X178957628Y-45076607D01*
G37*
D14*
%TO.C,C4*%
X198236250Y-60924961D02*
X198236250Y-60709289D01*
X198956250Y-60924961D02*
X198956250Y-60709289D01*
%TO.C,U4*%
X197996750Y-47368125D02*
X197996750Y-49043125D01*
X194876750Y-47368125D02*
X194876750Y-48018125D01*
X197996750Y-47368125D02*
X197996750Y-46718125D01*
X194876750Y-47368125D02*
X194876750Y-46718125D01*
%TO.C,R6*%
X199785500Y-55007742D02*
X199785500Y-55482258D01*
X198740500Y-55007742D02*
X198740500Y-55482258D01*
%TO.C,F1*%
X195400250Y-40657061D02*
X195400250Y-41861189D01*
X197220250Y-40657061D02*
X197220250Y-41861189D01*
%TO.C,R3*%
X197994000Y-39597359D02*
X197994000Y-39904641D01*
X198754000Y-39597359D02*
X198754000Y-39904641D01*
%TO.C,R4*%
X202947000Y-39597359D02*
X202947000Y-39904641D01*
X203707000Y-39597359D02*
X203707000Y-39904641D01*
%TO.C,C11*%
X194386810Y-70155307D02*
X194234307Y-70307810D01*
X193877693Y-69646190D02*
X193725190Y-69798693D01*
%TO.C,C8*%
X197940250Y-60924961D02*
X197940250Y-60709289D01*
X197220250Y-60924961D02*
X197220250Y-60709289D01*
%TO.C,C17*%
X196068836Y-51414000D02*
X195853164Y-51414000D01*
X196068836Y-50694000D02*
X195853164Y-50694000D01*
%TO.C,C13*%
X201002000Y-59131193D02*
X201002000Y-58915521D01*
X201722000Y-59131193D02*
X201722000Y-58915521D01*
%TO.C,C16*%
X195566914Y-44214125D02*
X195782586Y-44214125D01*
X195566914Y-44934125D02*
X195782586Y-44934125D01*
%TO.C,C10*%
X200113000Y-74536521D02*
X200113000Y-74752193D01*
X200833000Y-74536521D02*
X200833000Y-74752193D01*
%TO.C,C15*%
X206237250Y-63464961D02*
X206237250Y-63249289D01*
X206957250Y-63464961D02*
X206957250Y-63249289D01*
%TO.C,U2*%
X202442250Y-41259125D02*
X202442250Y-40459125D01*
X202442250Y-41259125D02*
X202442250Y-43059125D01*
X199322250Y-41259125D02*
X199322250Y-40459125D01*
X199322250Y-41259125D02*
X199322250Y-42059125D01*
%TO.C,C6*%
X198589000Y-74536521D02*
X198589000Y-74752193D01*
X199309000Y-74536521D02*
X199309000Y-74752193D01*
%TO.C,R1*%
X205963250Y-46312484D02*
X205963250Y-46619766D01*
X206723250Y-46312484D02*
X206723250Y-46619766D01*
%TO.C,C5*%
X203246000Y-59131193D02*
X203246000Y-58915521D01*
X202526000Y-59131193D02*
X202526000Y-58915521D01*
%TO.C,C1*%
X207721086Y-55631125D02*
X207505414Y-55631125D01*
X207721086Y-56351125D02*
X207505414Y-56351125D01*
%TO.C,C2*%
X207437000Y-78362289D02*
X207437000Y-78577961D01*
X206717000Y-78362289D02*
X206717000Y-78577961D01*
%TO.C,C9*%
X194992836Y-63235357D02*
X194777164Y-63235357D01*
X194992836Y-63955357D02*
X194777164Y-63955357D01*
%TO.C,C7*%
X195853164Y-50398000D02*
X196068836Y-50398000D01*
X195853164Y-49678000D02*
X196068836Y-49678000D01*
%TO.C,C3*%
X200734250Y-78323961D02*
X200734250Y-78108289D01*
X200014250Y-78323961D02*
X200014250Y-78108289D01*
%TO.C,R5*%
X201436500Y-55007742D02*
X201436500Y-55482258D01*
X200391500Y-55007742D02*
X200391500Y-55482258D01*
%TO.C,U3*%
X198402000Y-70666107D02*
X197752000Y-70666107D01*
X204972000Y-70666107D02*
X204972000Y-70016107D01*
X198402000Y-63446107D02*
X197752000Y-63446107D01*
X197752000Y-63446107D02*
X197752000Y-64096107D01*
X204322000Y-63446107D02*
X204972000Y-63446107D01*
X204322000Y-70666107D02*
X204972000Y-70666107D01*
X197752000Y-70666107D02*
X197752000Y-70016107D01*
%TO.C,Y1*%
X201648000Y-79850357D02*
X201648000Y-76550357D01*
X201648000Y-76550357D02*
X205648000Y-76550357D01*
%TO.C,U1*%
X207301250Y-50574125D02*
X207301250Y-53299125D01*
X207301250Y-47849125D02*
X207561250Y-47849125D01*
X207301250Y-50574125D02*
X207301250Y-47849125D01*
X207301250Y-53299125D02*
X207561250Y-53299125D01*
X212751250Y-50574125D02*
X212751250Y-47849125D01*
X212751250Y-50574125D02*
X212751250Y-53299125D01*
X207561250Y-47849125D02*
X207561250Y-46174125D01*
X212751250Y-47849125D02*
X212491250Y-47849125D01*
X212751250Y-53299125D02*
X212491250Y-53299125D01*
%TO.C,R2*%
X193955641Y-82041000D02*
X193648359Y-82041000D01*
X193955641Y-81281000D02*
X193648359Y-81281000D01*
%TO.C,C12*%
X207791557Y-68868315D02*
X207944060Y-69020818D01*
X207282440Y-69377432D02*
X207434943Y-69529935D01*
%TO.C,J1*%
X196087000Y-28881875D02*
X205487000Y-28881875D01*
X196087000Y-30781875D02*
X196087000Y-28881875D01*
X196087000Y-34681875D02*
X196087000Y-32681875D01*
X205487000Y-30781875D02*
X205487000Y-28881875D01*
X205487000Y-34681875D02*
X205487000Y-32681875D01*
%TO.C,R7*%
X202125000Y-74797998D02*
X202125000Y-74490716D01*
X202885000Y-74797998D02*
X202885000Y-74490716D01*
%TO.C,C14*%
X194992836Y-61711357D02*
X194777164Y-61711357D01*
X194992836Y-62431357D02*
X194777164Y-62431357D01*
%TD*%
M02*
