%TF.GenerationSoftware,KiCad,Pcbnew,9.0.8-9.0.8~ubuntu22.04.1*%
%TF.CreationDate,2026-05-29T22:11:32+05:30*%
%TF.ProjectId,RP2040-Guide,52503230-3430-42d4-9775-6964652e6b69,rev?*%
%TF.SameCoordinates,Original*%
%TF.FileFunction,Copper,L2,Bot*%
%TF.FilePolarity,Positive*%
%FSLAX46Y46*%
G04 Gerber Fmt 4.6, Leading zero omitted, Abs format (unit mm)*
G04 Created by KiCad (PCBNEW 9.0.8-9.0.8~ubuntu22.04.1) date 2026-05-29 22:11:32*
%MOMM*%
%LPD*%
G01*
G04 APERTURE LIST*
G04 Aperture macros list*
%AMRoundRect*
0 Rectangle with rounded corners*
0 $1 Rounding radius*
0 $2 $3 $4 $5 $6 $7 $8 $9 X,Y pos of 4 corners*
0 Add a 4 corners polygon primitive as box body*
4,1,4,$2,$3,$4,$5,$6,$7,$8,$9,$2,$3,0*
0 Add four circle primitives for the rounded corners*
1,1,$1+$1,$2,$3*
1,1,$1+$1,$4,$5*
1,1,$1+$1,$6,$7*
1,1,$1+$1,$8,$9*
0 Add four rect primitives between the rounded corners*
20,1,$1+$1,$2,$3,$4,$5,0*
20,1,$1+$1,$4,$5,$6,$7,0*
20,1,$1+$1,$6,$7,$8,$9,0*
20,1,$1+$1,$8,$9,$2,$3,0*%
G04 Aperture macros list end*
%TA.AperFunction,ComponentPad*%
%ADD10R,1.700000X1.700000*%
%TD*%
%TA.AperFunction,ComponentPad*%
%ADD11O,1.700000X1.700000*%
%TD*%
%TA.AperFunction,SMDPad,CuDef*%
%ADD12RoundRect,0.140000X0.170000X-0.140000X0.170000X0.140000X-0.170000X0.140000X-0.170000X-0.140000X0*%
%TD*%
%TA.AperFunction,SMDPad,CuDef*%
%ADD13RoundRect,0.150000X0.150000X-0.587500X0.150000X0.587500X-0.150000X0.587500X-0.150000X-0.587500X0*%
%TD*%
%TA.AperFunction,SMDPad,CuDef*%
%ADD14RoundRect,0.200000X-0.275000X0.200000X-0.275000X-0.200000X0.275000X-0.200000X0.275000X0.200000X0*%
%TD*%
%TA.AperFunction,SMDPad,CuDef*%
%ADD15RoundRect,0.250000X-0.625000X0.375000X-0.625000X-0.375000X0.625000X-0.375000X0.625000X0.375000X0*%
%TD*%
%TA.AperFunction,SMDPad,CuDef*%
%ADD16RoundRect,0.135000X-0.185000X0.135000X-0.185000X-0.135000X0.185000X-0.135000X0.185000X0.135000X0*%
%TD*%
%TA.AperFunction,SMDPad,CuDef*%
%ADD17RoundRect,0.140000X-0.021213X0.219203X-0.219203X0.021213X0.021213X-0.219203X0.219203X-0.021213X0*%
%TD*%
%TA.AperFunction,SMDPad,CuDef*%
%ADD18RoundRect,0.140000X0.140000X0.170000X-0.140000X0.170000X-0.140000X-0.170000X0.140000X-0.170000X0*%
%TD*%
%TA.AperFunction,SMDPad,CuDef*%
%ADD19RoundRect,0.140000X-0.140000X-0.170000X0.140000X-0.170000X0.140000X0.170000X-0.140000X0.170000X0*%
%TD*%
%TA.AperFunction,SMDPad,CuDef*%
%ADD20RoundRect,0.140000X-0.170000X0.140000X-0.170000X-0.140000X0.170000X-0.140000X0.170000X0.140000X0*%
%TD*%
%TA.AperFunction,SMDPad,CuDef*%
%ADD21RoundRect,0.150000X0.150000X-0.512500X0.150000X0.512500X-0.150000X0.512500X-0.150000X-0.512500X0*%
%TD*%
%TA.AperFunction,SMDPad,CuDef*%
%ADD22RoundRect,0.050000X0.387500X0.050000X-0.387500X0.050000X-0.387500X-0.050000X0.387500X-0.050000X0*%
%TD*%
%TA.AperFunction,SMDPad,CuDef*%
%ADD23RoundRect,0.050000X0.050000X0.387500X-0.050000X0.387500X-0.050000X-0.387500X0.050000X-0.387500X0*%
%TD*%
%TA.AperFunction,ComponentPad*%
%ADD24C,0.600000*%
%TD*%
%TA.AperFunction,SMDPad,CuDef*%
%ADD25RoundRect,0.144000X1.456000X1.456000X-1.456000X1.456000X-1.456000X-1.456000X1.456000X-1.456000X0*%
%TD*%
%TA.AperFunction,SMDPad,CuDef*%
%ADD26R,1.400000X1.200000*%
%TD*%
%TA.AperFunction,SMDPad,CuDef*%
%ADD27RoundRect,0.150000X-0.150000X0.650000X-0.150000X-0.650000X0.150000X-0.650000X0.150000X0.650000X0*%
%TD*%
%TA.AperFunction,SMDPad,CuDef*%
%ADD28RoundRect,0.135000X0.135000X0.185000X-0.135000X0.185000X-0.135000X-0.185000X0.135000X-0.185000X0*%
%TD*%
%TA.AperFunction,SMDPad,CuDef*%
%ADD29RoundRect,0.140000X-0.219203X-0.021213X-0.021213X-0.219203X0.219203X0.021213X0.021213X0.219203X0*%
%TD*%
%TA.AperFunction,SMDPad,CuDef*%
%ADD30R,0.600000X1.450000*%
%TD*%
%TA.AperFunction,SMDPad,CuDef*%
%ADD31R,0.300000X1.450000*%
%TD*%
%TA.AperFunction,ComponentPad*%
%ADD32O,1.000000X2.100000*%
%TD*%
%TA.AperFunction,ComponentPad*%
%ADD33O,1.000000X1.600000*%
%TD*%
%TA.AperFunction,SMDPad,CuDef*%
%ADD34RoundRect,0.135000X0.185000X-0.135000X0.185000X0.135000X-0.185000X0.135000X-0.185000X-0.135000X0*%
%TD*%
%TA.AperFunction,ViaPad*%
%ADD35C,0.600000*%
%TD*%
%TA.AperFunction,Conductor*%
%ADD36C,0.200000*%
%TD*%
%TA.AperFunction,Conductor*%
%ADD37C,0.635000*%
%TD*%
%TA.AperFunction,Conductor*%
%ADD38C,0.500000*%
%TD*%
%TA.AperFunction,Conductor*%
%ADD39C,0.381000*%
%TD*%
%TA.AperFunction,Conductor*%
%ADD40C,0.254000*%
%TD*%
%TA.AperFunction,Conductor*%
%ADD41C,0.600000*%
%TD*%
G04 APERTURE END LIST*
D10*
%TO.P,J5,1,Pin_1*%
%TO.N,GND*%
X208699500Y-119275625D03*
D11*
%TO.P,J5,2,Pin_2*%
%TO.N,/GPIO0*%
X208699500Y-116735625D03*
%TO.P,J5,3,Pin_3*%
%TO.N,/GPIO1*%
X208699500Y-114195625D03*
%TO.P,J5,4,Pin_4*%
%TO.N,/GPIO2*%
X208699500Y-111655625D03*
%TO.P,J5,5,Pin_5*%
%TO.N,/GPIO3*%
X208699500Y-109115625D03*
%TO.P,J5,6,Pin_6*%
%TO.N,/GPIO4*%
X208699500Y-106575625D03*
%TO.P,J5,7,Pin_7*%
%TO.N,/GPIO5*%
X208699500Y-104035625D03*
%TO.P,J5,8,Pin_8*%
%TO.N,/GPIO6*%
X208699500Y-101495625D03*
%TO.P,J5,9,Pin_9*%
%TO.N,/GPIO7*%
X208699500Y-98955625D03*
%TO.P,J5,10,Pin_10*%
%TO.N,/GPIO8*%
X208699500Y-96415625D03*
%TO.P,J5,11,Pin_11*%
%TO.N,/GPIO9*%
X208699500Y-93875625D03*
%TD*%
D10*
%TO.P,J3,1,Pin_1*%
%TO.N,GND*%
X183515000Y-119507000D03*
D11*
%TO.P,J3,2,Pin_2*%
%TO.N,/GPIO20*%
X183515000Y-116967000D03*
%TO.P,J3,3,Pin_3*%
%TO.N,/GPIO21*%
X183515000Y-114427000D03*
%TO.P,J3,4,Pin_4*%
%TO.N,/GPIO22*%
X183515000Y-111887000D03*
%TO.P,J3,5,Pin_5*%
%TO.N,/GPIO23*%
X183515000Y-109347000D03*
%TO.P,J3,6,Pin_6*%
%TO.N,/GPIO24*%
X183515000Y-106807000D03*
%TO.P,J3,7,Pin_7*%
%TO.N,/GPIO25*%
X183515000Y-104267000D03*
%TO.P,J3,8,Pin_8*%
%TO.N,/GPIO26*%
X183515000Y-101727000D03*
%TO.P,J3,9,Pin_9*%
%TO.N,/GPIO27*%
X183515000Y-99187000D03*
%TO.P,J3,10,Pin_10*%
%TO.N,/GPIO28*%
X183515000Y-96647000D03*
%TO.P,J3,11,Pin_11*%
%TO.N,/GPIO29*%
X183515000Y-94107000D03*
%TD*%
D10*
%TO.P,J2,1,Pin_1*%
%TO.N,~{RESET}*%
X193262250Y-83931125D03*
D11*
%TO.P,J2,2,Pin_2*%
%TO.N,+3V3*%
X195802250Y-83931125D03*
%TO.P,J2,3,Pin_3*%
%TO.N,GND*%
X198342250Y-83931125D03*
%TO.P,J2,4,Pin_4*%
%TO.N,SWD*%
X200882250Y-83931125D03*
%TO.P,J2,5,Pin_5*%
%TO.N,SWCLK*%
X203422250Y-83931125D03*
%TD*%
D10*
%TO.P,SW1,1,1*%
%TO.N,GND*%
X211931250Y-41132125D03*
D11*
%TO.P,SW1,2,2*%
%TO.N,/~{USB_BOOT}*%
X209391250Y-41132125D03*
%TD*%
D10*
%TO.P,J4,1,Pin_1*%
%TO.N,GND*%
X196183250Y-119364125D03*
D11*
%TO.P,J4,2,Pin_2*%
%TO.N,/GPIO10*%
X196183250Y-116824125D03*
%TO.P,J4,3,Pin_3*%
%TO.N,/GPIO11*%
X196183250Y-114284125D03*
%TO.P,J4,4,Pin_4*%
%TO.N,/GPIO12*%
X196183250Y-111744125D03*
%TO.P,J4,5,Pin_5*%
%TO.N,/GPIO13*%
X196183250Y-109204125D03*
%TO.P,J4,6,Pin_6*%
%TO.N,/GPIO14*%
X196183250Y-106664125D03*
%TO.P,J4,7,Pin_7*%
%TO.N,/GPIO15*%
X196183250Y-104124125D03*
%TO.P,J4,8,Pin_8*%
%TO.N,/GPIO16*%
X196183250Y-101584125D03*
%TO.P,J4,9,Pin_9*%
%TO.N,/GPIO17*%
X196183250Y-99044125D03*
%TO.P,J4,10,Pin_10*%
%TO.N,/GPIO18*%
X196183250Y-96504125D03*
%TO.P,J4,11,Pin_11*%
%TO.N,/GPIO19*%
X196183250Y-93964125D03*
%TD*%
D12*
%TO.P,C4,1*%
%TO.N,+1V1*%
X198596250Y-61297125D03*
%TO.P,C4,2*%
%TO.N,GND*%
X198596250Y-60337125D03*
%TD*%
D13*
%TO.P,U4,1,GND*%
%TO.N,GND*%
X197386750Y-48305625D03*
%TO.P,U4,2,VO*%
%TO.N,+3V3*%
X195486750Y-48305625D03*
%TO.P,U4,3,VI*%
%TO.N,+5V*%
X196436750Y-46430625D03*
%TD*%
D14*
%TO.P,R6,1*%
%TO.N,D_N*%
X199263000Y-54420000D03*
%TO.P,R6,2*%
%TO.N,/D_-*%
X199263000Y-56070000D03*
%TD*%
D15*
%TO.P,F1,1*%
%TO.N,VBUS*%
X196310250Y-39859125D03*
%TO.P,F1,2*%
%TO.N,+5V*%
X196310250Y-42659125D03*
%TD*%
D16*
%TO.P,R3,1*%
%TO.N,/CC1*%
X198374000Y-39241000D03*
%TO.P,R3,2*%
%TO.N,GND*%
X198374000Y-40261000D03*
%TD*%
%TO.P,R4,1*%
%TO.N,/CC2*%
X203327000Y-39241000D03*
%TO.P,R4,2*%
%TO.N,GND*%
X203327000Y-40261000D03*
%TD*%
D17*
%TO.P,C11,1*%
%TO.N,+3V3*%
X194395411Y-69637589D03*
%TO.P,C11,2*%
%TO.N,GND*%
X193716589Y-70316411D03*
%TD*%
D12*
%TO.P,C8,1*%
%TO.N,+3V3*%
X197580250Y-61297125D03*
%TO.P,C8,2*%
%TO.N,GND*%
X197580250Y-60337125D03*
%TD*%
D18*
%TO.P,C17,1*%
%TO.N,GND*%
X196441000Y-51054000D03*
%TO.P,C17,2*%
%TO.N,+3V3*%
X195481000Y-51054000D03*
%TD*%
D12*
%TO.P,C13,1*%
%TO.N,+3V3*%
X201362000Y-59503357D03*
%TO.P,C13,2*%
%TO.N,GND*%
X201362000Y-58543357D03*
%TD*%
D19*
%TO.P,C16,1*%
%TO.N,GND*%
X195194750Y-44574125D03*
%TO.P,C16,2*%
%TO.N,+5V*%
X196154750Y-44574125D03*
%TD*%
D20*
%TO.P,C10,1*%
%TO.N,+3V3*%
X200473000Y-74164357D03*
%TO.P,C10,2*%
%TO.N,GND*%
X200473000Y-75124357D03*
%TD*%
D12*
%TO.P,C15,1*%
%TO.N,+3V3*%
X206597250Y-63837125D03*
%TO.P,C15,2*%
%TO.N,GND*%
X206597250Y-62877125D03*
%TD*%
D21*
%TO.P,U2,1,I/O1*%
%TO.N,D_P*%
X201832250Y-42396625D03*
%TO.P,U2,2,GND*%
%TO.N,GND*%
X200882250Y-42396625D03*
%TO.P,U2,3,I/O2*%
%TO.N,D_N*%
X199932250Y-42396625D03*
%TO.P,U2,4,I/O2*%
%TO.N,D_USB_N*%
X199932250Y-40121625D03*
%TO.P,U2,5,VBUS*%
%TO.N,+5V*%
X200882250Y-40121625D03*
%TO.P,U2,6,I/O1*%
%TO.N,D_USB_P*%
X201832250Y-40121625D03*
%TD*%
D20*
%TO.P,C6,1*%
%TO.N,+1V1*%
X198949000Y-74164357D03*
%TO.P,C6,2*%
%TO.N,GND*%
X198949000Y-75124357D03*
%TD*%
D16*
%TO.P,R1,1*%
%TO.N,/~{USB_BOOT}*%
X206343250Y-45956125D03*
%TO.P,R1,2*%
%TO.N,CS*%
X206343250Y-46976125D03*
%TD*%
D12*
%TO.P,C5,1*%
%TO.N,+1V1*%
X202886000Y-59503357D03*
%TO.P,C5,2*%
%TO.N,GND*%
X202886000Y-58543357D03*
%TD*%
D18*
%TO.P,C1,1*%
%TO.N,+3V3*%
X208093250Y-55991125D03*
%TO.P,C1,2*%
%TO.N,GND*%
X207133250Y-55991125D03*
%TD*%
D20*
%TO.P,C2,1*%
%TO.N,GND*%
X207077000Y-77990125D03*
%TO.P,C2,2*%
%TO.N,XTAL_IN*%
X207077000Y-78950125D03*
%TD*%
D18*
%TO.P,C9,1*%
%TO.N,+3V3*%
X195365000Y-63595357D03*
%TO.P,C9,2*%
%TO.N,GND*%
X194405000Y-63595357D03*
%TD*%
D19*
%TO.P,C7,1*%
%TO.N,+3V3*%
X195481000Y-50038000D03*
%TO.P,C7,2*%
%TO.N,GND*%
X196441000Y-50038000D03*
%TD*%
D12*
%TO.P,C3,1*%
%TO.N,GND*%
X200374250Y-78696125D03*
%TO.P,C3,2*%
%TO.N,/XTAL_O*%
X200374250Y-77736125D03*
%TD*%
D14*
%TO.P,R5,1*%
%TO.N,D_P*%
X200914000Y-54420000D03*
%TO.P,R5,2*%
%TO.N,/D_+*%
X200914000Y-56070000D03*
%TD*%
D22*
%TO.P,U3,1,IOVDD*%
%TO.N,+3V3*%
X204799500Y-64456107D03*
%TO.P,U3,2,GPIO0*%
%TO.N,/GPIO0*%
X204799500Y-64856107D03*
%TO.P,U3,3,GPIO1*%
%TO.N,/GPIO1*%
X204799500Y-65256107D03*
%TO.P,U3,4,GPIO2*%
%TO.N,/GPIO2*%
X204799500Y-65656107D03*
%TO.P,U3,5,GPIO3*%
%TO.N,/GPIO3*%
X204799500Y-66056107D03*
%TO.P,U3,6,GPIO4*%
%TO.N,/GPIO4*%
X204799500Y-66456107D03*
%TO.P,U3,7,GPIO5*%
%TO.N,/GPIO5*%
X204799500Y-66856107D03*
%TO.P,U3,8,GPIO6*%
%TO.N,/GPIO6*%
X204799500Y-67256107D03*
%TO.P,U3,9,GPIO7*%
%TO.N,/GPIO7*%
X204799500Y-67656107D03*
%TO.P,U3,10,IOVDD*%
%TO.N,+3V3*%
X204799500Y-68056107D03*
%TO.P,U3,11,GPIO8*%
%TO.N,/GPIO8*%
X204799500Y-68456107D03*
%TO.P,U3,12,GPIO9*%
%TO.N,/GPIO9*%
X204799500Y-68856107D03*
%TO.P,U3,13,GPIO10*%
%TO.N,/GPIO10*%
X204799500Y-69256107D03*
%TO.P,U3,14,GPIO11*%
%TO.N,/GPIO11*%
X204799500Y-69656107D03*
D23*
%TO.P,U3,15,GPIO12*%
%TO.N,/GPIO12*%
X203962000Y-70493607D03*
%TO.P,U3,16,GPIO13*%
%TO.N,/GPIO13*%
X203562000Y-70493607D03*
%TO.P,U3,17,GPIO14*%
%TO.N,/GPIO14*%
X203162000Y-70493607D03*
%TO.P,U3,18,GPIO15*%
%TO.N,/GPIO15*%
X202762000Y-70493607D03*
%TO.P,U3,19,TESTEN*%
%TO.N,GND*%
X202362000Y-70493607D03*
%TO.P,U3,20,XTAL_IN*%
%TO.N,XTAL_IN*%
X201962000Y-70493607D03*
%TO.P,U3,21,XTAL_OUT*%
%TO.N,XTAL_OUT*%
X201562000Y-70493607D03*
%TO.P,U3,22,IOVDD*%
%TO.N,+3V3*%
X201162000Y-70493607D03*
%TO.P,U3,23,DVDD*%
%TO.N,+1V1*%
X200762000Y-70493607D03*
%TO.P,U3,24,SWCLK*%
%TO.N,SWCLK*%
X200362000Y-70493607D03*
%TO.P,U3,25,SWDIO*%
%TO.N,SWD*%
X199962000Y-70493607D03*
%TO.P,U3,26,~{RUN}*%
%TO.N,~{RESET}*%
X199562000Y-70493607D03*
%TO.P,U3,27,GPIO16*%
%TO.N,/GPIO16*%
X199162000Y-70493607D03*
%TO.P,U3,28,GPIO17*%
%TO.N,/GPIO17*%
X198762000Y-70493607D03*
D22*
%TO.P,U3,29,GPIO18*%
%TO.N,/GPIO18*%
X197924500Y-69656107D03*
%TO.P,U3,30,GPIO19*%
%TO.N,/GPIO19*%
X197924500Y-69256107D03*
%TO.P,U3,31,GPIO20*%
%TO.N,/GPIO20*%
X197924500Y-68856107D03*
%TO.P,U3,32,GPIO21*%
%TO.N,/GPIO21*%
X197924500Y-68456107D03*
%TO.P,U3,33,IOVDD*%
%TO.N,+3V3*%
X197924500Y-68056107D03*
%TO.P,U3,34,GPIO22*%
%TO.N,/GPIO22*%
X197924500Y-67656107D03*
%TO.P,U3,35,GPIO23*%
%TO.N,/GPIO23*%
X197924500Y-67256107D03*
%TO.P,U3,36,GPIO24*%
%TO.N,/GPIO24*%
X197924500Y-66856107D03*
%TO.P,U3,37,GPIO25*%
%TO.N,/GPIO25*%
X197924500Y-66456107D03*
%TO.P,U3,38,GPIO26/ADC0*%
%TO.N,/GPIO26*%
X197924500Y-66056107D03*
%TO.P,U3,39,GPIO27/ADC1*%
%TO.N,/GPIO27*%
X197924500Y-65656107D03*
%TO.P,U3,40,GPIO28/ADC2*%
%TO.N,/GPIO28*%
X197924500Y-65256107D03*
%TO.P,U3,41,GPIO29/ADC3*%
%TO.N,/GPIO29*%
X197924500Y-64856107D03*
%TO.P,U3,42,IOVDD*%
%TO.N,+3V3*%
X197924500Y-64456107D03*
D23*
%TO.P,U3,43,ADC_AVDD*%
X198762000Y-63618607D03*
%TO.P,U3,44,VREG_VIN*%
X199162000Y-63618607D03*
%TO.P,U3,45,VREG_VOUT*%
%TO.N,+1V1*%
X199562000Y-63618607D03*
%TO.P,U3,46,D-*%
%TO.N,/D_-*%
X199962000Y-63618607D03*
%TO.P,U3,47,D+*%
%TO.N,/D_+*%
X200362000Y-63618607D03*
%TO.P,U3,48,USB_VDD*%
%TO.N,+3V3*%
X200762000Y-63618607D03*
%TO.P,U3,49,IOVDD*%
X201162000Y-63618607D03*
%TO.P,U3,50,DVDD*%
%TO.N,+1V1*%
X201562000Y-63618607D03*
%TO.P,U3,51,QSPI_SD3*%
%TO.N,SD3*%
X201962000Y-63618607D03*
%TO.P,U3,52,QSPI_SCLK*%
%TO.N,QSPI_CLK*%
X202362000Y-63618607D03*
%TO.P,U3,53,QSPI_SD0*%
%TO.N,SD0*%
X202762000Y-63618607D03*
%TO.P,U3,54,QSPI_SD2*%
%TO.N,SD2*%
X203162000Y-63618607D03*
%TO.P,U3,55,QSPI_SD1*%
%TO.N,SD1*%
X203562000Y-63618607D03*
%TO.P,U3,56,QSPI_SS_N*%
%TO.N,CS*%
X203962000Y-63618607D03*
D24*
%TO.P,U3,57,GND*%
%TO.N,GND*%
X202637000Y-67056107D03*
X202637000Y-68331107D03*
X201362000Y-67056107D03*
X202637000Y-65781107D03*
X201362000Y-68331107D03*
X200087000Y-68331107D03*
X200087000Y-65781107D03*
X201362000Y-65781107D03*
D25*
X201362000Y-67056107D03*
D24*
X200087000Y-67056107D03*
%TD*%
D26*
%TO.P,Y1,1,1*%
%TO.N,/XTAL_O*%
X202548000Y-77350357D03*
%TO.P,Y1,2,2*%
%TO.N,GND*%
X204748000Y-77350357D03*
%TO.P,Y1,3,3*%
%TO.N,XTAL_IN*%
X204748000Y-79050357D03*
%TO.P,Y1,4,4*%
%TO.N,GND*%
X202548000Y-79050357D03*
%TD*%
D27*
%TO.P,U1,1,~{CS}*%
%TO.N,CS*%
X208121250Y-46974125D03*
%TO.P,U1,2,DO(IO1)*%
%TO.N,SD1*%
X209391250Y-46974125D03*
%TO.P,U1,3,IO2*%
%TO.N,SD2*%
X210661250Y-46974125D03*
%TO.P,U1,4,GND*%
%TO.N,GND*%
X211931250Y-46974125D03*
%TO.P,U1,5,DI(IO0)*%
%TO.N,SD0*%
X211931250Y-54174125D03*
%TO.P,U1,6,CLK*%
%TO.N,QSPI_CLK*%
X210661250Y-54174125D03*
%TO.P,U1,7,IO3*%
%TO.N,SD3*%
X209391250Y-54174125D03*
%TO.P,U1,8,VCC*%
%TO.N,+3V3*%
X208121250Y-54174125D03*
%TD*%
D28*
%TO.P,R2,1*%
%TO.N,+3V3*%
X194312000Y-81661000D03*
%TO.P,R2,2*%
%TO.N,~{RESET}*%
X193292000Y-81661000D03*
%TD*%
D29*
%TO.P,C12,1*%
%TO.N,+3V3*%
X207273839Y-68859714D03*
%TO.P,C12,2*%
%TO.N,GND*%
X207952661Y-69538536D03*
%TD*%
D30*
%TO.P,J1,A1,GND*%
%TO.N,GND*%
X197537000Y-36826875D03*
%TO.P,J1,A4,VBUS*%
%TO.N,VBUS*%
X198337000Y-36826875D03*
D31*
%TO.P,J1,A5,CC1*%
%TO.N,/CC1*%
X199537000Y-36826875D03*
%TO.P,J1,A6,D+*%
%TO.N,D_USB_P*%
X200537000Y-36826875D03*
%TO.P,J1,A7,D-*%
%TO.N,D_USB_N*%
X201037000Y-36826875D03*
%TO.P,J1,A8,SBU1*%
%TO.N,unconnected-(J1-PadA8)*%
X202037000Y-36826875D03*
D30*
%TO.P,J1,A9,VBUS*%
%TO.N,VBUS*%
X203237000Y-36826875D03*
%TO.P,J1,A12,GND*%
%TO.N,GND*%
X204037000Y-36826875D03*
%TO.P,J1,B1,GND*%
X204037000Y-36826875D03*
%TO.P,J1,B4,VBUS*%
%TO.N,VBUS*%
X203237000Y-36826875D03*
D31*
%TO.P,J1,B5,CC2*%
%TO.N,/CC2*%
X202537000Y-36826875D03*
%TO.P,J1,B6,D+*%
%TO.N,D_USB_P*%
X201537000Y-36826875D03*
%TO.P,J1,B7,D-*%
%TO.N,D_USB_N*%
X200037000Y-36826875D03*
%TO.P,J1,B8,SBU2*%
%TO.N,unconnected-(J1-PadB8)*%
X199037000Y-36826875D03*
D30*
%TO.P,J1,B9,VBUS*%
%TO.N,VBUS*%
X198337000Y-36826875D03*
%TO.P,J1,B12,GND*%
%TO.N,GND*%
X197537000Y-36826875D03*
D32*
%TO.P,J1,S1,SHIELD*%
X205107000Y-35911875D03*
X196467000Y-35911875D03*
D33*
X205107000Y-31731875D03*
X196467000Y-31731875D03*
%TD*%
D34*
%TO.P,R7,1*%
%TO.N,/XTAL_O*%
X202505000Y-75154357D03*
%TO.P,R7,2*%
%TO.N,XTAL_OUT*%
X202505000Y-74134357D03*
%TD*%
D18*
%TO.P,C14,1*%
%TO.N,+3V3*%
X195365000Y-62071357D03*
%TO.P,C14,2*%
%TO.N,GND*%
X194405000Y-62071357D03*
%TD*%
D35*
%TO.N,+3V3*%
X207740250Y-56880125D03*
X201136250Y-60436125D03*
X201009250Y-73263125D03*
%TO.N,GND*%
X201041000Y-57404000D03*
X198882000Y-53086000D03*
X199771000Y-44958000D03*
X206597250Y-62087125D03*
X197580250Y-59420125D03*
X198596250Y-48244125D03*
X199739250Y-76057125D03*
X194405250Y-60944125D03*
X202184000Y-44958000D03*
X206343250Y-38592125D03*
X194564000Y-50038000D03*
X211931250Y-48415125D03*
X202946000Y-41275000D03*
X202152250Y-57896125D03*
X201041000Y-53086000D03*
X207077000Y-77073125D03*
X194913250Y-38338125D03*
X194024250Y-44561125D03*
X197485000Y-51054000D03*
X206216250Y-55991125D03*
X200374250Y-79740125D03*
X199136000Y-57404000D03*
X208629250Y-70215125D03*
X193040000Y-70993000D03*
X209804000Y-50800000D03*
%TO.N,+1V1*%
X200628250Y-64918357D03*
X201997000Y-60928357D03*
X198088250Y-74152125D03*
X200755250Y-69155607D03*
%TD*%
D36*
%TO.N,+3V3*%
X195976893Y-68056107D02*
X195722875Y-68310125D01*
D37*
X195486750Y-48305625D02*
X195486750Y-61005625D01*
D38*
X208093250Y-55991125D02*
X208093250Y-54202125D01*
D36*
X201136250Y-60436125D02*
X200983850Y-60588525D01*
X197924500Y-68056107D02*
X195976893Y-68056107D01*
X199162000Y-63618607D02*
X198762000Y-63218607D01*
D39*
X195365000Y-62071357D02*
X195365000Y-63595357D01*
D36*
X201162000Y-70493607D02*
X201162000Y-69764357D01*
X200762000Y-63618607D02*
X200762000Y-64212357D01*
X206597250Y-68255607D02*
X206397750Y-68056107D01*
X201162000Y-73110375D02*
X201162000Y-70493607D01*
X200983850Y-60588525D02*
X200983850Y-62703507D01*
X197924500Y-64456107D02*
X198793750Y-64456107D01*
D38*
X195802250Y-83151250D02*
X194312000Y-81661000D01*
D36*
X198762000Y-63618607D02*
X198762000Y-62478875D01*
X201136250Y-60436125D02*
X201136250Y-60024107D01*
D39*
X206597250Y-68255607D02*
X206641732Y-68255607D01*
D36*
X199162000Y-64144357D02*
X199162000Y-63618607D01*
X198822000Y-64484357D02*
X199162000Y-64144357D01*
X201162000Y-63618607D02*
X201162000Y-64474375D01*
X198762000Y-64417357D02*
X198695000Y-64484357D01*
D39*
X195660000Y-63595357D02*
X195365000Y-63595357D01*
D36*
X201009250Y-73263125D02*
X201162000Y-73110375D01*
D38*
X195802250Y-83931125D02*
X195802250Y-83151250D01*
D36*
X201136250Y-60024107D02*
X201362000Y-59798357D01*
X197924500Y-64456107D02*
X196520750Y-64456107D01*
X198762000Y-63618607D02*
X198762000Y-64417357D01*
X197924500Y-68056107D02*
X198806250Y-68056107D01*
X203632232Y-64456107D02*
X203549250Y-64373125D01*
X204799500Y-68056107D02*
X204044750Y-68056107D01*
D38*
X207740250Y-56880125D02*
X208093250Y-56527125D01*
D36*
X201162000Y-62887357D02*
X201162000Y-63618607D01*
X205978268Y-64456107D02*
X206597250Y-63837125D01*
X204799500Y-64456107D02*
X203632232Y-64456107D01*
D38*
X208093250Y-56527125D02*
X208093250Y-55991125D01*
D36*
X196520750Y-64456107D02*
X195660000Y-63595357D01*
X201162000Y-64474375D02*
X201136250Y-64500125D01*
X200981000Y-62706357D02*
X201162000Y-62887357D01*
D39*
X206641732Y-68255607D02*
X207232250Y-68846125D01*
D36*
X204044750Y-68056107D02*
X204029000Y-68040357D01*
X200983850Y-62703507D02*
X200981000Y-62706357D01*
D38*
X200473000Y-73799375D02*
X200473000Y-74164357D01*
X201009250Y-73263125D02*
X200473000Y-73799375D01*
X197580250Y-61297125D02*
X195534750Y-61297125D01*
D36*
X198762000Y-62478875D02*
X197580250Y-61297125D01*
X200762000Y-63618607D02*
X200762000Y-62925357D01*
D39*
X195722875Y-68310125D02*
X194395411Y-69637589D01*
D36*
X204799500Y-64456107D02*
X205978268Y-64456107D01*
X206397750Y-68056107D02*
X204799500Y-68056107D01*
X198793750Y-64456107D02*
X198822000Y-64484357D01*
X200762000Y-62925357D02*
X200981000Y-62706357D01*
D39*
%TO.N,GND*%
X196441000Y-50038000D02*
X196441000Y-49251375D01*
D38*
X207133250Y-55991125D02*
X206216250Y-55991125D01*
D39*
X194405000Y-62071357D02*
X194405000Y-63595357D01*
X204819250Y-38592125D02*
X206343250Y-38592125D01*
D36*
X207077000Y-76365351D02*
X207077000Y-77073125D01*
D39*
X204037000Y-37809875D02*
X204819250Y-38592125D01*
X198374000Y-40386000D02*
X197612000Y-41148000D01*
X204037000Y-36826875D02*
X204037000Y-37809875D01*
X196441000Y-51054000D02*
X197485000Y-51054000D01*
D36*
X193040000Y-70993000D02*
X193716589Y-70316411D01*
D39*
X196945250Y-38211125D02*
X196818250Y-38338125D01*
X197537000Y-37619375D02*
X196945250Y-38211125D01*
D38*
X195194750Y-44574125D02*
X194037250Y-44574125D01*
X197386750Y-48305625D02*
X198534750Y-48305625D01*
D36*
X197580250Y-60337125D02*
X197580250Y-59420125D01*
D39*
X198374000Y-40261000D02*
X198374000Y-40386000D01*
X196441000Y-49251375D02*
X197386750Y-48305625D01*
X201295000Y-41275000D02*
X202313000Y-41275000D01*
D40*
X202794978Y-79050357D02*
X204494978Y-77350357D01*
D36*
X202362000Y-71650351D02*
X207077000Y-76365351D01*
D38*
X194037250Y-44574125D02*
X194024250Y-44561125D01*
D39*
X197537000Y-36826875D02*
X197537000Y-37619375D01*
X200374250Y-78696125D02*
X200374250Y-79740125D01*
D36*
X202362000Y-70493607D02*
X202362000Y-71650351D01*
D39*
X194405250Y-60944125D02*
X194405250Y-62071107D01*
X200374250Y-78696125D02*
X202193768Y-78696125D01*
X206597250Y-62877125D02*
X206597250Y-62087125D01*
X207952661Y-69538536D02*
X208629250Y-70215125D01*
X200882250Y-42396625D02*
X200882250Y-41687750D01*
X211931250Y-46974125D02*
X211931250Y-48415125D01*
X200882250Y-41687750D02*
X201295000Y-41275000D01*
X196818250Y-38338125D02*
X194913250Y-38338125D01*
D38*
X202886000Y-58543357D02*
X201362000Y-58543357D01*
X198534750Y-48305625D02*
X198596250Y-48244125D01*
D39*
X207077000Y-77073125D02*
X207077000Y-77990125D01*
D36*
%TO.N,XTAL_IN*%
X201962000Y-70493607D02*
X201962000Y-71815357D01*
X206061000Y-75914357D02*
X206061000Y-77819357D01*
X201962000Y-71815357D02*
X206061000Y-75914357D01*
X207077000Y-78950125D02*
X204848232Y-78950125D01*
X206061000Y-77819357D02*
X204830000Y-79050357D01*
%TO.N,/XTAL_O*%
X200374250Y-77736125D02*
X202162232Y-77736125D01*
X202505000Y-77307357D02*
X202505000Y-75154357D01*
%TO.N,+1V1*%
X200762000Y-72056357D02*
X200762000Y-70493607D01*
D38*
X198088250Y-74152125D02*
X198100482Y-74164357D01*
D36*
X201562000Y-61363357D02*
X201562000Y-63618607D01*
X199562000Y-63618607D02*
X199562000Y-64462357D01*
D38*
X198100482Y-74164357D02*
X198949000Y-74164357D01*
D36*
X199562000Y-62262875D02*
X198596250Y-61297125D01*
D39*
X200628250Y-64918357D02*
X200700037Y-64990144D01*
D36*
X199562000Y-63618607D02*
X199562000Y-62262875D01*
X199562000Y-64462357D02*
X199711000Y-64611357D01*
X198949000Y-73869357D02*
X200762000Y-72056357D01*
D39*
X201997000Y-60928357D02*
X202886000Y-60039357D01*
X202886000Y-60039357D02*
X202886000Y-59798357D01*
D36*
X201997000Y-60928357D02*
X201562000Y-61363357D01*
D41*
%TO.N,+5V*%
X196436750Y-44856125D02*
X196154750Y-44574125D01*
D39*
X200474020Y-41275000D02*
X198882000Y-41275000D01*
X200882250Y-40866770D02*
X200474020Y-41275000D01*
X197497875Y-42659125D02*
X196310250Y-42659125D01*
X200882250Y-40121625D02*
X200882250Y-40866770D01*
X198882000Y-41275000D02*
X197497875Y-42659125D01*
D41*
X196436750Y-46430625D02*
X196436750Y-44856125D01*
X196154750Y-44574125D02*
X196154750Y-42814625D01*
D39*
%TO.N,VBUS*%
X198337000Y-36057375D02*
X199485250Y-34909125D01*
X203237000Y-35993875D02*
X203237000Y-36826875D01*
X202152250Y-34909125D02*
X203237000Y-35993875D01*
X199485250Y-34909125D02*
X202152250Y-34909125D01*
D41*
X198337000Y-37832375D02*
X196310250Y-39859125D01*
X198337000Y-36826875D02*
X198337000Y-37832375D01*
D39*
X198337000Y-36826875D02*
X198337000Y-36057375D01*
D36*
%TO.N,/CC1*%
X198836375Y-39241000D02*
X198374000Y-39241000D01*
X199537000Y-38540375D02*
X198836375Y-39241000D01*
X199537000Y-36826875D02*
X199537000Y-38540375D01*
D40*
%TO.N,D_USB_P*%
X200980796Y-38298693D02*
X201832250Y-39150147D01*
X200537000Y-36826875D02*
X200537000Y-37854897D01*
X201832250Y-39150147D02*
X201832250Y-40121625D01*
X200980796Y-38298693D02*
X201537000Y-37742489D01*
X200537000Y-37854897D02*
X200980796Y-38298693D01*
X201537000Y-37742489D02*
X201537000Y-36826875D01*
%TO.N,D_USB_N*%
X201037000Y-35798853D02*
X201037000Y-36826875D01*
X200037000Y-40016875D02*
X200037000Y-36826875D01*
X200037000Y-35798853D02*
X200291728Y-35544125D01*
X200782272Y-35544125D02*
X201037000Y-35798853D01*
X200037000Y-36826875D02*
X200037000Y-35798853D01*
X200291728Y-35544125D02*
X200782272Y-35544125D01*
D36*
%TO.N,/CC2*%
X202537000Y-36826875D02*
X202537000Y-38451000D01*
X202537000Y-38451000D02*
X203327000Y-39241000D01*
%TO.N,~{RESET}*%
X193262250Y-83931125D02*
X193262250Y-81690750D01*
X191558330Y-76960081D02*
X196633766Y-71884645D01*
X193262250Y-81690750D02*
X193292000Y-81661000D01*
X191558330Y-80070205D02*
X191558330Y-76960081D01*
X196633766Y-71884645D02*
X199142736Y-71884645D01*
X193292000Y-81661000D02*
X193149125Y-81661000D01*
X199562000Y-71465381D02*
X199562000Y-70493607D01*
X199142736Y-71884645D02*
X199562000Y-71465381D01*
X193149125Y-81661000D02*
X191558330Y-80070205D01*
%TO.N,SWD*%
X199962000Y-71630387D02*
X199308222Y-72284165D01*
X196528761Y-73876608D02*
X196528761Y-78047142D01*
X198121204Y-72284165D02*
X196528761Y-73876608D01*
X199308222Y-72284165D02*
X198121204Y-72284165D01*
X200882250Y-82400631D02*
X200882250Y-83931125D01*
X199962000Y-70493607D02*
X199962000Y-71630387D01*
X196528761Y-78047142D02*
X200882250Y-82400631D01*
%TO.N,SWCLK*%
X198286690Y-72683685D02*
X199473708Y-72683685D01*
X202977750Y-83931125D02*
X196928281Y-77881656D01*
X199473708Y-72683685D02*
X200362000Y-71795393D01*
X196928281Y-77881656D02*
X196928281Y-74042094D01*
X196928281Y-74042094D02*
X198286690Y-72683685D01*
X200362000Y-71795393D02*
X200362000Y-70493607D01*
%TO.N,/GPIO10*%
X204799500Y-69256107D02*
X205438382Y-69256107D01*
X200665290Y-97197335D02*
X200665290Y-112342085D01*
X211079300Y-73331205D02*
X211079300Y-86783325D01*
X205438382Y-69256107D02*
X207958440Y-71776165D01*
X207958440Y-71776165D02*
X209524260Y-71776165D01*
X211079300Y-86783325D02*
X200665290Y-97197335D01*
X209524260Y-71776165D02*
X211079300Y-73331205D01*
X200665290Y-112342085D02*
X196183250Y-116824125D01*
%TO.N,/GPIO11*%
X200265770Y-97031849D02*
X210679780Y-86617839D01*
X196183250Y-114284125D02*
X200265770Y-110201605D01*
X210679780Y-73496691D02*
X209358774Y-72175685D01*
X210679780Y-86617839D02*
X210679780Y-73496691D01*
X200265770Y-110201605D02*
X200265770Y-97031849D01*
X209358774Y-72175685D02*
X207792953Y-72175684D01*
X205273376Y-69656107D02*
X204799500Y-69656107D01*
X207792953Y-72175684D02*
X205273376Y-69656107D01*
%TO.N,/GPIO12*%
X210280250Y-73662167D02*
X210280250Y-86452363D01*
X199866250Y-96866363D02*
X199866250Y-108061125D01*
X199866250Y-108061125D02*
X196183250Y-111744125D01*
X203962000Y-70493607D02*
X205545870Y-70493607D01*
X209193286Y-72575203D02*
X210280250Y-73662167D01*
X207627467Y-72575203D02*
X209193286Y-72575204D01*
X210280250Y-86452363D02*
X199866250Y-96866363D01*
X205545870Y-70493607D02*
X207627467Y-72575204D01*
%TO.N,/GPIO13*%
X199466731Y-96700876D02*
X199466731Y-105920644D01*
X205972382Y-71485125D02*
X207461980Y-72974723D01*
X203562000Y-70493607D02*
X203562000Y-71116875D01*
X209027800Y-72974723D02*
X209880730Y-73827653D01*
X203930250Y-71485125D02*
X205972382Y-71485125D01*
X207461980Y-72974723D02*
X209027800Y-72974723D01*
X199466731Y-105920644D02*
X196183250Y-109204125D01*
X209880730Y-86286877D02*
X199466731Y-96700876D01*
X209880730Y-73827653D02*
X209880730Y-86286877D01*
X203562000Y-71116875D02*
X203930250Y-71485125D01*
%TO.N,/GPIO14*%
X203764763Y-71884644D02*
X205806895Y-71884644D01*
X209481210Y-73993139D02*
X209481210Y-86121391D01*
X199067211Y-103780164D02*
X196183250Y-106664125D01*
X209481210Y-86121391D02*
X199067211Y-96535390D01*
X199067211Y-96535390D02*
X199067211Y-103780164D01*
X208862313Y-73374242D02*
X209481210Y-73993139D01*
X207296494Y-73374242D02*
X208862313Y-73374243D01*
X205806895Y-71884644D02*
X207296494Y-73374243D01*
X203162000Y-70493607D02*
X203162000Y-71281881D01*
X203162000Y-71281881D02*
X203764763Y-71884644D01*
%TO.N,/GPIO15*%
X209081690Y-74158625D02*
X208696827Y-73773762D01*
X207131008Y-73773763D02*
X205641409Y-72284164D01*
X202762000Y-71446887D02*
X202762000Y-70493607D01*
X208696827Y-73773762D02*
X207131008Y-73773763D01*
X196088000Y-104219375D02*
X198667692Y-101639683D01*
X205641409Y-72284164D02*
X203599277Y-72284164D01*
X203599277Y-72284164D02*
X202762000Y-71446887D01*
X209081690Y-85955905D02*
X209081690Y-74158625D01*
X198667692Y-96369903D02*
X209081690Y-85955905D01*
X198667692Y-101639683D02*
X198667692Y-96369903D01*
%TO.N,/GPIO16*%
X199162000Y-70493607D02*
X199162000Y-71300375D01*
X196468280Y-71485125D02*
X191158810Y-76794595D01*
X196895224Y-91387087D02*
X198252289Y-92744152D01*
X198252288Y-92744152D02*
X198252288Y-99515087D01*
X191158810Y-76794595D02*
X191158810Y-87244667D01*
X191158810Y-87244667D02*
X195301230Y-91387087D01*
X195301230Y-91387087D02*
X196895224Y-91387087D01*
X198977250Y-71485125D02*
X196468280Y-71485125D01*
X198252288Y-99515087D02*
X196088000Y-101679375D01*
X199162000Y-71300375D02*
X198977250Y-71485125D01*
%TO.N,/GPIO17*%
X195135743Y-91786606D02*
X196729737Y-91786606D01*
X190759290Y-76629109D02*
X190759290Y-87410153D01*
X197852769Y-97374606D02*
X196183250Y-99044125D01*
X198762000Y-70493607D02*
X196894792Y-70493607D01*
X196894792Y-70493607D02*
X190759290Y-76629109D01*
X196729737Y-91786606D02*
X197852769Y-92909638D01*
X197852769Y-92909638D02*
X197852769Y-97374606D01*
X190759290Y-87410153D02*
X195135743Y-91786606D01*
%TO.N,/GPIO18*%
X197924500Y-69656107D02*
X197167286Y-69656107D01*
X190359770Y-76463623D02*
X190359770Y-87575639D01*
X196564250Y-92186125D02*
X197453250Y-93075125D01*
X197167286Y-69656107D02*
X190359770Y-76463623D01*
X194970256Y-92186125D02*
X196564250Y-92186125D01*
X197453250Y-95234125D02*
X196215000Y-96472375D01*
X190359770Y-87575639D02*
X194970256Y-92186125D01*
X197453250Y-93075125D02*
X197453250Y-95234125D01*
%TO.N,/GPIO19*%
X189960250Y-87741125D02*
X196024500Y-93805375D01*
X189960250Y-76298137D02*
X189960250Y-87741125D01*
X197002280Y-69256107D02*
X189960250Y-76298137D01*
X197924500Y-69256107D02*
X197002280Y-69256107D01*
%TO.N,/GPIO0*%
X204799500Y-64856107D02*
X208254982Y-64856107D01*
X215074500Y-71675625D02*
X215074500Y-110360625D01*
X215074500Y-110360625D02*
X208724500Y-116710625D01*
X208254982Y-64856107D02*
X215074500Y-71675625D01*
%TO.N,/GPIO1*%
X208089976Y-65256107D02*
X214674980Y-71841111D01*
X214674980Y-71841111D02*
X214674980Y-108220145D01*
X214674980Y-108220145D02*
X208724500Y-114170625D01*
X204799500Y-65256107D02*
X208089976Y-65256107D01*
%TO.N,/GPIO2*%
X214275460Y-72006597D02*
X214275460Y-106079665D01*
X204799500Y-65656107D02*
X207924970Y-65656107D01*
X214275460Y-106079665D02*
X208724500Y-111630625D01*
X207924970Y-65656107D02*
X214275460Y-72006597D01*
%TO.N,/GPIO3*%
X213875940Y-72172083D02*
X213875940Y-103939185D01*
X207759964Y-66056107D02*
X213875940Y-72172083D01*
X213875940Y-103939185D02*
X208724500Y-109090625D01*
X204799500Y-66056107D02*
X207759964Y-66056107D01*
%TO.N,/GPIO4*%
X207594958Y-66456107D02*
X213476420Y-72337569D01*
X213476420Y-72337569D02*
X213476420Y-101798705D01*
X204799500Y-66456107D02*
X207594958Y-66456107D01*
X213476420Y-101798705D02*
X208724500Y-106550625D01*
%TO.N,/GPIO5*%
X213076900Y-72503055D02*
X209137610Y-68563765D01*
X208724500Y-104010625D02*
X213076900Y-99658225D01*
X207428752Y-66855627D02*
X206851250Y-66855627D01*
X213076900Y-99658225D02*
X213076900Y-72503055D01*
X206851250Y-66855627D02*
X206850770Y-66856107D01*
X209137610Y-68563765D02*
X209136890Y-68563765D01*
X206850770Y-66856107D02*
X204799500Y-66856107D01*
X209136890Y-68563765D02*
X207428752Y-66855627D01*
%TO.N,/GPIO6*%
X212677380Y-72669261D02*
X212677380Y-97517745D01*
X207264226Y-67256107D02*
X212677380Y-72669261D01*
X204799500Y-67256107D02*
X207264226Y-67256107D01*
X212677380Y-97517745D02*
X208724500Y-101470625D01*
%TO.N,/GPIO7*%
X208724500Y-98930625D02*
X212277860Y-95377265D01*
X212277860Y-95377265D02*
X212277860Y-72834747D01*
X206958272Y-67656107D02*
X204799500Y-67656107D01*
X207098740Y-67655627D02*
X206958752Y-67655627D01*
X206958752Y-67655627D02*
X206958272Y-67656107D01*
X212277860Y-72834747D02*
X207098740Y-67655627D01*
%TO.N,/GPIO8*%
X205768394Y-68456107D02*
X204799500Y-68456107D01*
X208289412Y-70977125D02*
X205768394Y-68456107D01*
X208724500Y-96390625D02*
X211878340Y-93236785D01*
X209855232Y-70977125D02*
X208289412Y-70977125D01*
X211878340Y-73000233D02*
X209855232Y-70977125D01*
X211878340Y-93236785D02*
X211878340Y-73000233D01*
%TO.N,/GPIO9*%
X211478820Y-91305055D02*
X211478820Y-73165719D01*
X208724500Y-94059375D02*
X211478820Y-91305055D01*
X205603868Y-68856587D02*
X204946250Y-68856587D01*
X211478820Y-73165719D02*
X209689746Y-71376645D01*
X208123926Y-71376645D02*
X205603868Y-68856587D01*
X209689746Y-71376645D02*
X208123926Y-71376645D01*
D38*
%TO.N,/~{USB_BOOT}*%
X206343250Y-44180125D02*
X209391250Y-41132125D01*
X206343250Y-45956125D02*
X206343250Y-44180125D01*
D36*
%TO.N,CS*%
X206427200Y-60256205D02*
X209488191Y-60256202D01*
X208121250Y-46155119D02*
X208121250Y-46974125D01*
X214032039Y-55712354D02*
X214032039Y-45630039D01*
X214032039Y-45630039D02*
X213360000Y-44958000D01*
X203962000Y-62721405D02*
X206427200Y-60256205D01*
X203962000Y-63618607D02*
X203962000Y-62721405D01*
X213360000Y-44958000D02*
X209318369Y-44958000D01*
D38*
X206343250Y-46972125D02*
X208119250Y-46972125D01*
D36*
X209488191Y-60256202D02*
X214032039Y-55712354D01*
X209318369Y-44958000D02*
X208121250Y-46155119D01*
D40*
%TO.N,D_P*%
X201832250Y-43609125D02*
X201261250Y-44180125D01*
X200279000Y-53785000D02*
X200914000Y-54420000D01*
X200279000Y-47933757D02*
X200279000Y-53785000D01*
X201261250Y-46951507D02*
X200279000Y-47933757D01*
X201261250Y-44180125D02*
X201261250Y-46951507D01*
X201832250Y-42396625D02*
X201832250Y-43609125D01*
D36*
%TO.N,/D_+*%
X200914000Y-56261000D02*
X200914000Y-56070000D01*
X200362000Y-63618607D02*
X200362000Y-56813000D01*
X200362000Y-56813000D02*
X200914000Y-56261000D01*
X200362000Y-63618607D02*
X200361520Y-63618127D01*
D40*
%TO.N,D_N*%
X199741250Y-53941750D02*
X199263000Y-54420000D01*
X200757250Y-44180125D02*
X200757250Y-46742743D01*
X199932250Y-43355125D02*
X200757250Y-44180125D01*
X199932250Y-42396625D02*
X199932250Y-43355125D01*
X200757250Y-46742743D02*
X199741250Y-47758743D01*
X199741250Y-47758743D02*
X199741250Y-53941750D01*
D36*
%TO.N,/D_-*%
X199962000Y-56769000D02*
X199263000Y-56070000D01*
X199962000Y-63618607D02*
X199962000Y-56769000D01*
%TO.N,XTAL_OUT*%
X202505000Y-73819357D02*
X201562000Y-72876357D01*
X202505000Y-74134357D02*
X202505000Y-73819357D01*
X201562000Y-72876357D02*
X201562000Y-70493607D01*
%TO.N,SD1*%
X206261714Y-59856685D02*
X209322704Y-59856683D01*
X203562000Y-63618607D02*
X203562000Y-62556399D01*
X209322704Y-59856683D02*
X213632520Y-55546867D01*
X213632520Y-45992520D02*
X213106000Y-45466000D01*
X203562000Y-62556399D02*
X206261714Y-59856685D01*
X209804000Y-45466000D02*
X209391250Y-45878750D01*
X213106000Y-45466000D02*
X209804000Y-45466000D01*
X209391250Y-45878750D02*
X209391250Y-46974125D01*
X213632520Y-55546867D02*
X213632520Y-45992520D01*
%TO.N,SD2*%
X203162000Y-63618607D02*
X203162000Y-62391393D01*
X203162000Y-62391393D02*
X206096228Y-59457165D01*
X209157217Y-59457164D02*
X213233000Y-55381381D01*
X213233000Y-55381381D02*
X213233000Y-52593875D01*
X206096228Y-59457165D02*
X209157217Y-59457164D01*
X210661250Y-50022125D02*
X210661250Y-46974125D01*
X213233000Y-52593875D02*
X210661250Y-50022125D01*
%TO.N,SD0*%
X202762000Y-63618607D02*
X202762000Y-62226387D01*
X205930742Y-59057645D02*
X208991730Y-59057645D01*
X202762000Y-62226387D02*
X205930742Y-59057645D01*
X208991730Y-59057645D02*
X211931250Y-56118125D01*
X211931250Y-56118125D02*
X211931250Y-54174125D01*
%TO.N,QSPI_CLK*%
X210661250Y-56546750D02*
X210661250Y-54174125D01*
X205765256Y-58658125D02*
X208549875Y-58658125D01*
X202362000Y-63618607D02*
X202362000Y-62061381D01*
X208549875Y-58658125D02*
X210661250Y-56546750D01*
X202362000Y-62061381D02*
X205765256Y-58658125D01*
%TO.N,SD3*%
X201962000Y-61896375D02*
X201962000Y-63618607D01*
X208384389Y-58258605D02*
X205599770Y-58258605D01*
X209391250Y-54174125D02*
X209391250Y-57251744D01*
X205599770Y-58258605D02*
X201962000Y-61896375D01*
X209391250Y-57251744D02*
X208384389Y-58258605D01*
%TO.N,/GPIO20*%
X196837274Y-68856107D02*
X189560730Y-76132651D01*
X197924500Y-68856107D02*
X196837274Y-68856107D01*
X189560730Y-110921270D02*
X183515000Y-116967000D01*
X189560730Y-76132651D02*
X189560730Y-110921270D01*
%TO.N,/GPIO21*%
X189161211Y-75967164D02*
X189161211Y-108780789D01*
X189161211Y-108780789D02*
X183515000Y-114427000D01*
X196672268Y-68456107D02*
X189161211Y-75967164D01*
X197924500Y-68456107D02*
X196672268Y-68456107D01*
%TO.N,/GPIO22*%
X188761692Y-75801677D02*
X188761692Y-106640308D01*
X192405000Y-72158369D02*
X188761692Y-75801677D01*
X192405000Y-70612000D02*
X192405000Y-72158369D01*
X188761692Y-106640308D02*
X183515000Y-111887000D01*
X197924500Y-67656107D02*
X195360893Y-67656107D01*
X195360893Y-67656107D02*
X192405000Y-70612000D01*
%TO.N,/GPIO23*%
X192005480Y-71992883D02*
X192005481Y-70446513D01*
X188362172Y-75636191D02*
X192005480Y-71992883D01*
X192005481Y-70446513D02*
X195195887Y-67256107D01*
X188362172Y-104499828D02*
X188362172Y-75636191D01*
X195195887Y-67256107D02*
X197924500Y-67256107D01*
X183515000Y-109347000D02*
X188362172Y-104499828D01*
%TO.N,/GPIO24*%
X187962653Y-102359347D02*
X183515000Y-106807000D01*
X187962653Y-75470704D02*
X187962653Y-102359347D01*
X197924500Y-66856107D02*
X195030881Y-66856107D01*
X191605960Y-70281028D02*
X191605960Y-71827397D01*
X191605960Y-71827397D02*
X187962653Y-75470704D01*
X195030881Y-66856107D02*
X191605960Y-70281028D01*
%TO.N,/GPIO25*%
X183515000Y-104267000D02*
X187563133Y-100218867D01*
X191206440Y-70115542D02*
X194865875Y-66456107D01*
X187563133Y-75305218D02*
X191206440Y-71661911D01*
X191206440Y-71661911D02*
X191206440Y-70115542D01*
X194865875Y-66456107D02*
X197924500Y-66456107D01*
X187563133Y-100218867D02*
X187563133Y-75305218D01*
%TO.N,/GPIO26*%
X190806920Y-69950056D02*
X190806920Y-71496425D01*
X190806920Y-71496425D02*
X187163614Y-75139731D01*
X187163614Y-98078386D02*
X183515000Y-101727000D01*
X194700869Y-66056107D02*
X190806920Y-69950056D01*
X187163614Y-75139731D02*
X187163614Y-98078386D01*
X197924500Y-66056107D02*
X194700869Y-66056107D01*
%TO.N,/GPIO27*%
X186764094Y-74974245D02*
X190407400Y-71330939D01*
X194535863Y-65656107D02*
X197924500Y-65656107D01*
X190407400Y-71330939D02*
X190407401Y-69784569D01*
X190407401Y-69784569D02*
X194535863Y-65656107D01*
X183515000Y-99187000D02*
X186764094Y-95937906D01*
X186764094Y-95937906D02*
X186764094Y-74974245D01*
%TO.N,/GPIO28*%
X190007880Y-69619084D02*
X190007880Y-71165453D01*
X186364574Y-74808759D02*
X186364574Y-93797426D01*
X194370857Y-65256107D02*
X190007880Y-69619084D01*
X190007880Y-71165453D02*
X186364574Y-74808759D01*
X197924500Y-65256107D02*
X194370857Y-65256107D01*
X186364574Y-93797426D02*
X183515000Y-96647000D01*
%TO.N,/GPIO29*%
X183515000Y-94107000D02*
X185965054Y-91656946D01*
X194205851Y-64856107D02*
X197924500Y-64856107D01*
X189608360Y-70999967D02*
X189608361Y-69453597D01*
X185965055Y-74643272D02*
X189608360Y-70999967D01*
X185965054Y-91656946D02*
X185965055Y-74643272D01*
X189608361Y-69453597D02*
X194205851Y-64856107D01*
%TD*%
%TA.AperFunction,Conductor*%
%TO.N,GND*%
G36*
X205488298Y-72704626D02*
G01*
X205519157Y-72728305D01*
X206885095Y-74094243D01*
X206885097Y-74094244D01*
X206885101Y-74094247D01*
X206976416Y-74146968D01*
X206976417Y-74146968D01*
X206976420Y-74146970D01*
X207078281Y-74174263D01*
X207078283Y-74174263D01*
X207245446Y-74174263D01*
X207245454Y-74174262D01*
X208469216Y-74174262D01*
X208488164Y-74179339D01*
X208507780Y-74179339D01*
X208524767Y-74189146D01*
X208543716Y-74194224D01*
X208574575Y-74217903D01*
X208637549Y-74280877D01*
X208676113Y-74347672D01*
X208681190Y-74386236D01*
X208681190Y-85728294D01*
X208661228Y-85802794D01*
X208637549Y-85833653D01*
X198907147Y-95564055D01*
X198840352Y-95602619D01*
X198763224Y-95602619D01*
X198696429Y-95564055D01*
X198657865Y-95497260D01*
X198652788Y-95458696D01*
X198652788Y-92807276D01*
X198652790Y-92807247D01*
X198652790Y-92691428D01*
X198652790Y-92691425D01*
X198625496Y-92589565D01*
X198572769Y-92498240D01*
X197141137Y-91066607D01*
X197141134Y-91066605D01*
X197141130Y-91066602D01*
X197049815Y-91013881D01*
X197049812Y-91013880D01*
X197022519Y-91006567D01*
X196947953Y-90986587D01*
X196947951Y-90986587D01*
X195528840Y-90986587D01*
X195454340Y-90966625D01*
X195423481Y-90942946D01*
X191602951Y-87122415D01*
X191564387Y-87055620D01*
X191559310Y-87017056D01*
X191559310Y-80997296D01*
X191579272Y-80922796D01*
X191633810Y-80868258D01*
X191708310Y-80848296D01*
X191782810Y-80868258D01*
X191813669Y-80891937D01*
X192677859Y-81756127D01*
X192716423Y-81822922D01*
X192721500Y-81861482D01*
X192721500Y-81898450D01*
X192721502Y-81898475D01*
X192724258Y-81927878D01*
X192724260Y-81927885D01*
X192767617Y-82051791D01*
X192767618Y-82051793D01*
X192767619Y-82051794D01*
X192832636Y-82139888D01*
X192860813Y-82211682D01*
X192861750Y-82228366D01*
X192861750Y-82631625D01*
X192841788Y-82706125D01*
X192787250Y-82760663D01*
X192712750Y-82780625D01*
X192367383Y-82780625D01*
X192342260Y-82783539D01*
X192342257Y-82783540D01*
X192239485Y-82828918D01*
X192160043Y-82908360D01*
X192114666Y-83011130D01*
X192114665Y-83011133D01*
X192114665Y-83011134D01*
X192111750Y-83036260D01*
X192111750Y-83036261D01*
X192111750Y-83036265D01*
X192111750Y-84825991D01*
X192114664Y-84851114D01*
X192114665Y-84851117D01*
X192160043Y-84953889D01*
X192160044Y-84953890D01*
X192239485Y-85033331D01*
X192342259Y-85078710D01*
X192367385Y-85081625D01*
X194157114Y-85081624D01*
X194157116Y-85081624D01*
X194169677Y-85080167D01*
X194182241Y-85078710D01*
X194285015Y-85033331D01*
X194364456Y-84953890D01*
X194409835Y-84851116D01*
X194412750Y-84825990D01*
X194412749Y-84318527D01*
X194432711Y-84244030D01*
X194487249Y-84189492D01*
X194561749Y-84169530D01*
X194636249Y-84189492D01*
X194690787Y-84244030D01*
X194703456Y-84272487D01*
X194736035Y-84372756D01*
X194736037Y-84372761D01*
X194774569Y-84448382D01*
X194818254Y-84534119D01*
X194924697Y-84680626D01*
X195052749Y-84808678D01*
X195199256Y-84915121D01*
X195360611Y-84997336D01*
X195532841Y-85053296D01*
X195711704Y-85081625D01*
X195711708Y-85081625D01*
X195892792Y-85081625D01*
X195892796Y-85081625D01*
X196071659Y-85053296D01*
X196243889Y-84997336D01*
X196405244Y-84915121D01*
X196551751Y-84808678D01*
X196679803Y-84680626D01*
X196786246Y-84534119D01*
X196823049Y-84461888D01*
X196874658Y-84404572D01*
X196948011Y-84380738D01*
X197023454Y-84396774D01*
X197080771Y-84448383D01*
X197088569Y-84461889D01*
X197180785Y-84642873D01*
X197180785Y-84642874D01*
X197306420Y-84815795D01*
X197457579Y-84966954D01*
X197630501Y-85092589D01*
X197820953Y-85189629D01*
X197820965Y-85189634D01*
X198024246Y-85255684D01*
X198024246Y-85255685D01*
X198088250Y-85265821D01*
X198088250Y-84361827D01*
X198149257Y-84397050D01*
X198276424Y-84431125D01*
X198408076Y-84431125D01*
X198535243Y-84397050D01*
X198596250Y-84361827D01*
X198596250Y-85265821D01*
X198660253Y-85255685D01*
X198660253Y-85255684D01*
X198863534Y-85189634D01*
X198863546Y-85189629D01*
X199053998Y-85092589D01*
X199053999Y-85092589D01*
X199226920Y-84966954D01*
X199378079Y-84815795D01*
X199503714Y-84642874D01*
X199503717Y-84642869D01*
X199595930Y-84461890D01*
X199647538Y-84404572D01*
X199720891Y-84380738D01*
X199796334Y-84396774D01*
X199853652Y-84448382D01*
X199861449Y-84461888D01*
X199898251Y-84534115D01*
X199898254Y-84534120D01*
X200004697Y-84680626D01*
X200132749Y-84808678D01*
X200279256Y-84915121D01*
X200440611Y-84997336D01*
X200612841Y-85053296D01*
X200791704Y-85081625D01*
X200791708Y-85081625D01*
X200972792Y-85081625D01*
X200972796Y-85081625D01*
X201151659Y-85053296D01*
X201323889Y-84997336D01*
X201485244Y-84915121D01*
X201631751Y-84808678D01*
X201759803Y-84680626D01*
X201866246Y-84534119D01*
X201948461Y-84372764D01*
X202004421Y-84200534D01*
X202005084Y-84196348D01*
X202036454Y-84125887D01*
X202098852Y-84080552D01*
X202175557Y-84072489D01*
X202246018Y-84103859D01*
X202291353Y-84166257D01*
X202299416Y-84196348D01*
X202300078Y-84200533D01*
X202342542Y-84331224D01*
X202356039Y-84372764D01*
X202438254Y-84534119D01*
X202544697Y-84680626D01*
X202672749Y-84808678D01*
X202819256Y-84915121D01*
X202980611Y-84997336D01*
X203152841Y-85053296D01*
X203331704Y-85081625D01*
X203331708Y-85081625D01*
X203512792Y-85081625D01*
X203512796Y-85081625D01*
X203691659Y-85053296D01*
X203863889Y-84997336D01*
X204025244Y-84915121D01*
X204171751Y-84808678D01*
X204299803Y-84680626D01*
X204406246Y-84534119D01*
X204488461Y-84372764D01*
X204544421Y-84200534D01*
X204572750Y-84021671D01*
X204572750Y-83840579D01*
X204544421Y-83661716D01*
X204488461Y-83489486D01*
X204406246Y-83328131D01*
X204299803Y-83181624D01*
X204171751Y-83053572D01*
X204025244Y-82947129D01*
X203863889Y-82864914D01*
X203691659Y-82808954D01*
X203512796Y-82780625D01*
X203331704Y-82780625D01*
X203152841Y-82808954D01*
X202980610Y-82864914D01*
X202819254Y-82947130D01*
X202819248Y-82947133D01*
X202772133Y-82981364D01*
X202700127Y-83009003D01*
X202623949Y-82996936D01*
X202579196Y-82966178D01*
X198563143Y-78950125D01*
X199562577Y-78950125D01*
X199604820Y-79095524D01*
X199688159Y-79236443D01*
X199688161Y-79236446D01*
X199803928Y-79352213D01*
X199803931Y-79352215D01*
X199944849Y-79435554D01*
X200102079Y-79481234D01*
X200120249Y-79482664D01*
X200120250Y-79482663D01*
X200120250Y-78950125D01*
X199562577Y-78950125D01*
X198563143Y-78950125D01*
X197372422Y-77759404D01*
X197333858Y-77692609D01*
X197328781Y-77654045D01*
X197328781Y-75378357D01*
X198137327Y-75378357D01*
X198179570Y-75523756D01*
X198262909Y-75664675D01*
X198262911Y-75664678D01*
X198378678Y-75780445D01*
X198378681Y-75780447D01*
X198519599Y-75863786D01*
X198676829Y-75909466D01*
X198694999Y-75910896D01*
X199203000Y-75910896D01*
X199221170Y-75909466D01*
X199378400Y-75863786D01*
X199519318Y-75780447D01*
X199519321Y-75780445D01*
X199605641Y-75694126D01*
X199672436Y-75655562D01*
X199749564Y-75655562D01*
X199816359Y-75694126D01*
X199902678Y-75780445D01*
X199902681Y-75780447D01*
X200043599Y-75863786D01*
X200200829Y-75909466D01*
X200218999Y-75910896D01*
X200727000Y-75910896D01*
X200745170Y-75909466D01*
X200902400Y-75863786D01*
X201043318Y-75780447D01*
X201043321Y-75780445D01*
X201159088Y-75664678D01*
X201159090Y-75664675D01*
X201242429Y-75523756D01*
X201284673Y-75378357D01*
X200727000Y-75378357D01*
X200727000Y-75910896D01*
X200218999Y-75910896D01*
X200219000Y-75910895D01*
X200219000Y-75378357D01*
X199203000Y-75378357D01*
X199203000Y-75910896D01*
X198694999Y-75910896D01*
X198695000Y-75910895D01*
X198695000Y-75378357D01*
X198137327Y-75378357D01*
X197328781Y-75378357D01*
X197328781Y-74593762D01*
X197348743Y-74519262D01*
X197403281Y-74464724D01*
X197477781Y-74444762D01*
X197552281Y-74464724D01*
X197601144Y-74513587D01*
X197601786Y-74513095D01*
X197605525Y-74517968D01*
X197606817Y-74519260D01*
X197607730Y-74520841D01*
X197719534Y-74632645D01*
X197856466Y-74711702D01*
X198009193Y-74752625D01*
X198009195Y-74752625D01*
X198012837Y-74753601D01*
X198079632Y-74792165D01*
X198091074Y-74811983D01*
X198092625Y-74810819D01*
X198137327Y-74870357D01*
X201284672Y-74870357D01*
X201242429Y-74724957D01*
X201159090Y-74584038D01*
X201159088Y-74584035D01*
X201116199Y-74541146D01*
X201077635Y-74474351D01*
X201077635Y-74397223D01*
X201080652Y-74387441D01*
X201080710Y-74387174D01*
X201083499Y-74357431D01*
X201083500Y-74357423D01*
X201083500Y-74029117D01*
X201088577Y-74010169D01*
X201088577Y-73990554D01*
X201098384Y-73973566D01*
X201103462Y-73954617D01*
X201127140Y-73923759D01*
X201155778Y-73895121D01*
X201198165Y-73852734D01*
X201233475Y-73829143D01*
X201232576Y-73827585D01*
X201244548Y-73820673D01*
X201377966Y-73743645D01*
X201489770Y-73631841D01*
X201489772Y-73631838D01*
X201495714Y-73624095D01*
X201497331Y-73625335D01*
X201502196Y-73620469D01*
X201512008Y-73603476D01*
X201528990Y-73593671D01*
X201542855Y-73579804D01*
X201561809Y-73574723D01*
X201578803Y-73564912D01*
X201598412Y-73564912D01*
X201617353Y-73559835D01*
X201636308Y-73564912D01*
X201655931Y-73564912D01*
X201672912Y-73574716D01*
X201691855Y-73579790D01*
X201722726Y-73603476D01*
X201859802Y-73740552D01*
X201898366Y-73807347D01*
X201898366Y-73884475D01*
X201895082Y-73895121D01*
X201887258Y-73917479D01*
X201887258Y-73917482D01*
X201884500Y-73946891D01*
X201884500Y-74321809D01*
X201884502Y-74321832D01*
X201887258Y-74351235D01*
X201887260Y-74351242D01*
X201930617Y-74475149D01*
X201930618Y-74475150D01*
X201990198Y-74555878D01*
X202018376Y-74627674D01*
X202006881Y-74703941D01*
X201990198Y-74732836D01*
X201930619Y-74813561D01*
X201910746Y-74870357D01*
X201887262Y-74937471D01*
X201887258Y-74937482D01*
X201884500Y-74966891D01*
X201884500Y-75341809D01*
X201884502Y-75341832D01*
X201887258Y-75371235D01*
X201887260Y-75371242D01*
X201930617Y-75495148D01*
X201930618Y-75495150D01*
X201930619Y-75495151D01*
X202008577Y-75600780D01*
X202043979Y-75626908D01*
X202092067Y-75687205D01*
X202104500Y-75746792D01*
X202104500Y-76300857D01*
X202084538Y-76375357D01*
X202030000Y-76429895D01*
X201955501Y-76449857D01*
X201803133Y-76449857D01*
X201778010Y-76452771D01*
X201778007Y-76452772D01*
X201675235Y-76498150D01*
X201595793Y-76577592D01*
X201550416Y-76680362D01*
X201550415Y-76680365D01*
X201550415Y-76680366D01*
X201547500Y-76705492D01*
X201547500Y-76705493D01*
X201547500Y-76705497D01*
X201547500Y-77186625D01*
X201527538Y-77261125D01*
X201473000Y-77315663D01*
X201398500Y-77335625D01*
X200974690Y-77335625D01*
X200900190Y-77315663D01*
X200868674Y-77287498D01*
X200867148Y-77289025D01*
X200859251Y-77281129D01*
X200859249Y-77281126D01*
X200752407Y-77202273D01*
X200627069Y-77158415D01*
X200627066Y-77158414D01*
X200627064Y-77158414D01*
X200597324Y-77155625D01*
X200597316Y-77155625D01*
X200151184Y-77155625D01*
X200151175Y-77155625D01*
X200121435Y-77158414D01*
X200121432Y-77158414D01*
X200121431Y-77158415D01*
X200040812Y-77186625D01*
X199996093Y-77202273D01*
X199889251Y-77281126D01*
X199810398Y-77387968D01*
X199766539Y-77513310D01*
X199763750Y-77543050D01*
X199763750Y-77929199D01*
X199766539Y-77958939D01*
X199768474Y-77967797D01*
X199767063Y-77968105D01*
X199772091Y-78035266D01*
X199738622Y-78104754D01*
X199731051Y-78112913D01*
X199688161Y-78155803D01*
X199688159Y-78155806D01*
X199604820Y-78296725D01*
X199562577Y-78442125D01*
X200225250Y-78442125D01*
X200299750Y-78462087D01*
X200354288Y-78516625D01*
X200374250Y-78591125D01*
X200374250Y-78696125D01*
X200479250Y-78696125D01*
X200553750Y-78716087D01*
X200608288Y-78770625D01*
X200628250Y-78845125D01*
X200628250Y-79482664D01*
X200646420Y-79481234D01*
X200803650Y-79435554D01*
X200944568Y-79352215D01*
X200944571Y-79352213D01*
X201060338Y-79236446D01*
X201060343Y-79236440D01*
X201062748Y-79232374D01*
X201065866Y-79229320D01*
X201066086Y-79229037D01*
X201066124Y-79229067D01*
X201117853Y-79178409D01*
X201192557Y-79159226D01*
X201266844Y-79179966D01*
X201320809Y-79235071D01*
X201340000Y-79308218D01*
X201340000Y-79698941D01*
X201340001Y-79698959D01*
X201346504Y-79759452D01*
X201397552Y-79896314D01*
X201397555Y-79896320D01*
X201485096Y-80013260D01*
X201602036Y-80100801D01*
X201602042Y-80100804D01*
X201738906Y-80151852D01*
X201738902Y-80151852D01*
X201799397Y-80158355D01*
X201799416Y-80158357D01*
X202294000Y-80158357D01*
X202294000Y-79199357D01*
X202313962Y-79124857D01*
X202368500Y-79070319D01*
X202443000Y-79050357D01*
X202653000Y-79050357D01*
X202727500Y-79070319D01*
X202782038Y-79124857D01*
X202802000Y-79199357D01*
X202802000Y-80158357D01*
X203296584Y-80158357D01*
X203296602Y-80158355D01*
X203357095Y-80151852D01*
X203493957Y-80100804D01*
X203493963Y-80100801D01*
X203610903Y-80013261D01*
X203669663Y-79934767D01*
X203730289Y-79887090D01*
X203806632Y-79876113D01*
X203862535Y-79897141D01*
X203862604Y-79896986D01*
X203865369Y-79898207D01*
X203873148Y-79901133D01*
X203875233Y-79902561D01*
X203875235Y-79902563D01*
X203978009Y-79947942D01*
X204003135Y-79950857D01*
X205492864Y-79950856D01*
X205492866Y-79950856D01*
X205505427Y-79949399D01*
X205517991Y-79947942D01*
X205620765Y-79902563D01*
X205700206Y-79823122D01*
X205745585Y-79720348D01*
X205748500Y-79695222D01*
X205748500Y-79499625D01*
X205768462Y-79425125D01*
X205823000Y-79370587D01*
X205897500Y-79350625D01*
X206476560Y-79350625D01*
X206551060Y-79370587D01*
X206582575Y-79398751D01*
X206584102Y-79397225D01*
X206591998Y-79405120D01*
X206592001Y-79405124D01*
X206698843Y-79483977D01*
X206824181Y-79527835D01*
X206853934Y-79530625D01*
X206853942Y-79530625D01*
X207300058Y-79530625D01*
X207300066Y-79530625D01*
X207329819Y-79527835D01*
X207455157Y-79483977D01*
X207561999Y-79405124D01*
X207640852Y-79298282D01*
X207684710Y-79172944D01*
X207687500Y-79143191D01*
X207687500Y-78757059D01*
X207684710Y-78727306D01*
X207684709Y-78727304D01*
X207682776Y-78718451D01*
X207684188Y-78718142D01*
X207679156Y-78650993D01*
X207712620Y-78581502D01*
X207720201Y-78573332D01*
X207763090Y-78530444D01*
X207846429Y-78389524D01*
X207888673Y-78244125D01*
X207226000Y-78244125D01*
X207151500Y-78224163D01*
X207096962Y-78169625D01*
X207077000Y-78095125D01*
X207077000Y-77990125D01*
X206972000Y-77990125D01*
X206897500Y-77970163D01*
X206842962Y-77915625D01*
X206823000Y-77841125D01*
X206823000Y-77203585D01*
X207331000Y-77203585D01*
X207331000Y-77736125D01*
X207888672Y-77736125D01*
X207846429Y-77590725D01*
X207763090Y-77449806D01*
X207763088Y-77449803D01*
X207647321Y-77334036D01*
X207647318Y-77334034D01*
X207506399Y-77250695D01*
X207349168Y-77205015D01*
X207331001Y-77203584D01*
X207331000Y-77203585D01*
X206823000Y-77203585D01*
X206822998Y-77203584D01*
X206804830Y-77205015D01*
X206652070Y-77249396D01*
X206574958Y-77251011D01*
X206507371Y-77213854D01*
X206467416Y-77147882D01*
X206461500Y-77106312D01*
X206461500Y-75861630D01*
X206461499Y-75861628D01*
X206434207Y-75759770D01*
X206399055Y-75698886D01*
X206381481Y-75668445D01*
X203652059Y-72939023D01*
X203613495Y-72872228D01*
X203613495Y-72795100D01*
X203652059Y-72728305D01*
X203718854Y-72689741D01*
X203757418Y-72684664D01*
X205413798Y-72684664D01*
X205488298Y-72704626D01*
G37*
%TD.AperFunction*%
%TA.AperFunction,Conductor*%
G36*
X197268613Y-72305107D02*
G01*
X197323151Y-72359645D01*
X197343113Y-72434145D01*
X197323151Y-72508645D01*
X197299472Y-72539504D01*
X196208279Y-73630697D01*
X196208276Y-73630701D01*
X196155555Y-73722016D01*
X196141427Y-73774744D01*
X196128261Y-73823877D01*
X196128261Y-78099871D01*
X196155555Y-78201733D01*
X196208276Y-78293048D01*
X196208279Y-78293052D01*
X196208281Y-78293055D01*
X200438110Y-82522884D01*
X200447916Y-82539869D01*
X200461788Y-82553741D01*
X200466865Y-82572689D01*
X200476673Y-82589677D01*
X200481750Y-82628241D01*
X200481750Y-82752645D01*
X200461788Y-82827145D01*
X200407250Y-82881683D01*
X200400395Y-82885405D01*
X200279254Y-82947130D01*
X200279253Y-82947130D01*
X200132750Y-83053571D01*
X200132747Y-83053573D01*
X200004698Y-83181622D01*
X200004696Y-83181625D01*
X199898255Y-83328128D01*
X199898254Y-83328130D01*
X199861449Y-83400362D01*
X199809839Y-83457678D01*
X199736485Y-83481511D01*
X199661043Y-83465474D01*
X199603727Y-83413864D01*
X199595930Y-83400359D01*
X199503717Y-83219381D01*
X199503714Y-83219375D01*
X199378079Y-83046454D01*
X199226920Y-82895295D01*
X199053998Y-82769660D01*
X198863546Y-82672620D01*
X198863542Y-82672618D01*
X198660244Y-82606563D01*
X198596250Y-82596427D01*
X198596250Y-83500422D01*
X198535243Y-83465200D01*
X198408076Y-83431125D01*
X198276424Y-83431125D01*
X198149257Y-83465200D01*
X198088250Y-83500422D01*
X198088250Y-82596427D01*
X198024255Y-82606563D01*
X197820957Y-82672618D01*
X197820953Y-82672620D01*
X197630501Y-82769660D01*
X197630500Y-82769660D01*
X197457579Y-82895295D01*
X197306420Y-83046454D01*
X197180785Y-83219375D01*
X197180785Y-83219376D01*
X197088569Y-83400360D01*
X197036960Y-83457677D01*
X196963607Y-83481511D01*
X196888164Y-83465475D01*
X196830847Y-83413866D01*
X196823050Y-83400361D01*
X196786248Y-83328134D01*
X196786244Y-83328128D01*
X196765145Y-83299088D01*
X196679803Y-83181624D01*
X196551751Y-83053572D01*
X196405250Y-82947133D01*
X196405246Y-82947130D01*
X196405240Y-82947126D01*
X196323885Y-82905673D01*
X196266568Y-82854064D01*
X196262493Y-82847414D01*
X196242760Y-82813235D01*
X194923521Y-81493996D01*
X194884957Y-81427201D01*
X194880531Y-81402545D01*
X194879741Y-81394121D01*
X194879739Y-81394114D01*
X194836382Y-81270207D01*
X194836381Y-81270205D01*
X194758425Y-81164580D01*
X194758423Y-81164577D01*
X194756125Y-81162881D01*
X194652796Y-81086620D01*
X194652794Y-81086619D01*
X194528879Y-81043259D01*
X194528876Y-81043258D01*
X194528874Y-81043258D01*
X194499457Y-81040500D01*
X194124547Y-81040500D01*
X194124524Y-81040502D01*
X194095121Y-81043258D01*
X194095114Y-81043260D01*
X193971207Y-81086617D01*
X193971206Y-81086618D01*
X193890479Y-81146198D01*
X193818683Y-81174376D01*
X193742416Y-81162881D01*
X193713521Y-81146198D01*
X193632795Y-81086619D01*
X193593357Y-81072819D01*
X193508879Y-81043259D01*
X193508876Y-81043258D01*
X193508874Y-81043258D01*
X193479465Y-81040500D01*
X193156736Y-81040500D01*
X193082236Y-81020538D01*
X193051377Y-80996859D01*
X192002471Y-79947953D01*
X191963907Y-79881158D01*
X191958830Y-79842594D01*
X191958830Y-77187692D01*
X191978792Y-77113192D01*
X192002471Y-77082333D01*
X196756018Y-72328786D01*
X196822813Y-72290222D01*
X196861377Y-72285145D01*
X197194113Y-72285145D01*
X197268613Y-72305107D01*
G37*
%TD.AperFunction*%
%TA.AperFunction,Conductor*%
G36*
X203333011Y-73765921D02*
G01*
X203376241Y-73795991D01*
X205568248Y-75987998D01*
X205606812Y-76054793D01*
X205606812Y-76131921D01*
X205568248Y-76198716D01*
X205501453Y-76237280D01*
X205462889Y-76242357D01*
X205002000Y-76242357D01*
X205002000Y-77201357D01*
X204982038Y-77275857D01*
X204927500Y-77330395D01*
X204853000Y-77350357D01*
X204643000Y-77350357D01*
X204568500Y-77330395D01*
X204513962Y-77275857D01*
X204494000Y-77201357D01*
X204494000Y-76242357D01*
X203999416Y-76242357D01*
X203999397Y-76242358D01*
X203938904Y-76248861D01*
X203802042Y-76299909D01*
X203802036Y-76299912D01*
X203685095Y-76387453D01*
X203685094Y-76387454D01*
X203626335Y-76465947D01*
X203565708Y-76513624D01*
X203489365Y-76524600D01*
X203433464Y-76503572D01*
X203433396Y-76503728D01*
X203430625Y-76502504D01*
X203422853Y-76499581D01*
X203420765Y-76498151D01*
X203317994Y-76452773D01*
X203317991Y-76452772D01*
X203317982Y-76452771D01*
X203292865Y-76449857D01*
X203292859Y-76449857D01*
X203054500Y-76449857D01*
X202980000Y-76429895D01*
X202925462Y-76375357D01*
X202905500Y-76300857D01*
X202905500Y-75746792D01*
X202925462Y-75672292D01*
X202966019Y-75626908D01*
X203001423Y-75600780D01*
X203079381Y-75495151D01*
X203122741Y-75371236D01*
X203125500Y-75341814D01*
X203125499Y-74966901D01*
X203122741Y-74937478D01*
X203122739Y-74937471D01*
X203079382Y-74813564D01*
X203079381Y-74813562D01*
X203034407Y-74752625D01*
X203019801Y-74732836D01*
X202991623Y-74661041D01*
X203003118Y-74584774D01*
X203019800Y-74555878D01*
X203079381Y-74475151D01*
X203122741Y-74351236D01*
X203125500Y-74321814D01*
X203125499Y-73946901D01*
X203125498Y-73946891D01*
X203125498Y-73946883D01*
X203122533Y-73915259D01*
X203135453Y-73839221D01*
X203184662Y-73779830D01*
X203256973Y-73753001D01*
X203333011Y-73765921D01*
G37*
%TD.AperFunction*%
%TA.AperFunction,Conductor*%
G36*
X193642342Y-70242164D02*
G01*
X193790834Y-70390656D01*
X193829398Y-70457451D01*
X193829398Y-70534579D01*
X193790834Y-70601374D01*
X193340026Y-71052182D01*
X193340802Y-71071941D01*
X193352710Y-71089267D01*
X193358762Y-71166157D01*
X193325558Y-71235772D01*
X193317616Y-71244364D01*
X193059859Y-71502122D01*
X192993064Y-71540686D01*
X192915936Y-71540686D01*
X192849141Y-71502122D01*
X192810577Y-71435327D01*
X192805500Y-71396763D01*
X192805500Y-70841053D01*
X192825462Y-70766553D01*
X192880000Y-70712015D01*
X192954500Y-70692053D01*
X192960352Y-70692168D01*
X192980816Y-70692972D01*
X193431624Y-70242164D01*
X193498419Y-70203600D01*
X193575547Y-70203600D01*
X193642342Y-70242164D01*
G37*
%TD.AperFunction*%
%TA.AperFunction,Conductor*%
G36*
X208237625Y-69464290D02*
G01*
X208688433Y-69915098D01*
X208722790Y-69913749D01*
X208798016Y-69930772D01*
X208833996Y-69957275D01*
X209198987Y-70322266D01*
X209237551Y-70389061D01*
X209237551Y-70466189D01*
X209198987Y-70532984D01*
X209132192Y-70571548D01*
X209093628Y-70576625D01*
X208517023Y-70576625D01*
X208498075Y-70571548D01*
X208478459Y-70571548D01*
X208461471Y-70561740D01*
X208442523Y-70556663D01*
X208411664Y-70532984D01*
X208348146Y-70469466D01*
X208309582Y-70402671D01*
X208309582Y-70325543D01*
X208328498Y-70292779D01*
X208329223Y-70274308D01*
X207878415Y-69823500D01*
X207839851Y-69756705D01*
X207839851Y-69679577D01*
X207878415Y-69612782D01*
X208026907Y-69464290D01*
X208093702Y-69425726D01*
X208170830Y-69425726D01*
X208237625Y-69464290D01*
G37*
%TD.AperFunction*%
%TA.AperFunction,Conductor*%
G36*
X200418242Y-65543819D02*
G01*
X200472780Y-65598357D01*
X200492742Y-65672857D01*
X200472780Y-65747357D01*
X200449101Y-65778216D01*
X200446210Y-65781107D01*
X200724500Y-66059397D01*
X201002790Y-65781107D01*
X200999899Y-65778216D01*
X200981471Y-65746297D01*
X201187000Y-65746297D01*
X201187000Y-65815917D01*
X201213643Y-65880236D01*
X201262871Y-65929464D01*
X201327190Y-65956107D01*
X201396810Y-65956107D01*
X201461129Y-65929464D01*
X201510357Y-65880236D01*
X201537000Y-65815917D01*
X201537000Y-65746297D01*
X201510357Y-65681978D01*
X201461129Y-65632750D01*
X201396810Y-65606107D01*
X201327190Y-65606107D01*
X201262871Y-65632750D01*
X201213643Y-65681978D01*
X201187000Y-65746297D01*
X200981471Y-65746297D01*
X200961335Y-65711421D01*
X200961335Y-65634293D01*
X200999899Y-65567498D01*
X201066694Y-65528934D01*
X201105258Y-65523857D01*
X201618742Y-65523857D01*
X201693242Y-65543819D01*
X201747780Y-65598357D01*
X201767742Y-65672857D01*
X201747780Y-65747357D01*
X201724101Y-65778216D01*
X201721210Y-65781107D01*
X201999500Y-66059397D01*
X202277790Y-65781107D01*
X202274899Y-65778216D01*
X202265091Y-65761228D01*
X202251220Y-65747357D01*
X202250936Y-65746297D01*
X202462000Y-65746297D01*
X202462000Y-65815917D01*
X202488643Y-65880236D01*
X202537871Y-65929464D01*
X202602190Y-65956107D01*
X202671810Y-65956107D01*
X202736129Y-65929464D01*
X202785357Y-65880236D01*
X202812000Y-65815917D01*
X202812000Y-65746297D01*
X202785357Y-65681978D01*
X202736129Y-65632750D01*
X202671810Y-65606107D01*
X202602190Y-65606107D01*
X202537871Y-65632750D01*
X202488643Y-65681978D01*
X202462000Y-65746297D01*
X202250936Y-65746297D01*
X202246142Y-65728408D01*
X202236335Y-65711421D01*
X202236335Y-65691804D01*
X202231258Y-65672857D01*
X202236335Y-65653909D01*
X202236335Y-65634293D01*
X202246142Y-65617305D01*
X202251220Y-65598357D01*
X202265091Y-65584485D01*
X202274899Y-65567498D01*
X202291886Y-65557690D01*
X202305758Y-65543819D01*
X202324706Y-65538741D01*
X202341694Y-65528934D01*
X202380258Y-65523857D01*
X202677242Y-65523857D01*
X202751742Y-65543819D01*
X202782601Y-65567498D01*
X202813358Y-65598255D01*
X202851922Y-65665050D01*
X202856999Y-65703614D01*
X202856999Y-66000598D01*
X202837037Y-66075098D01*
X202782499Y-66129636D01*
X202707999Y-66149598D01*
X202673361Y-66140317D01*
X202637000Y-66140317D01*
X202358710Y-66418607D01*
X202637000Y-66696897D01*
X202662153Y-66696897D01*
X202669435Y-66692693D01*
X202746563Y-66692693D01*
X202813358Y-66731257D01*
X202851922Y-66798052D01*
X202856999Y-66836616D01*
X202856999Y-67275598D01*
X202837037Y-67350098D01*
X202782499Y-67404636D01*
X202707999Y-67424598D01*
X202673361Y-67415317D01*
X202637000Y-67415317D01*
X202358710Y-67693607D01*
X202637000Y-67971897D01*
X202662153Y-67971897D01*
X202669435Y-67967693D01*
X202746563Y-67967693D01*
X202813358Y-68006257D01*
X202851922Y-68073052D01*
X202856999Y-68111616D01*
X202856999Y-68402106D01*
X202837037Y-68476606D01*
X202782499Y-68531144D01*
X202707999Y-68551106D01*
X202417509Y-68551106D01*
X202343009Y-68531144D01*
X202288471Y-68476606D01*
X202268509Y-68402106D01*
X202277790Y-68367468D01*
X202277790Y-68331107D01*
X202242980Y-68296297D01*
X202462000Y-68296297D01*
X202462000Y-68365917D01*
X202488643Y-68430236D01*
X202537871Y-68479464D01*
X202602190Y-68506107D01*
X202671810Y-68506107D01*
X202736129Y-68479464D01*
X202785357Y-68430236D01*
X202812000Y-68365917D01*
X202812000Y-68296297D01*
X202785357Y-68231978D01*
X202736129Y-68182750D01*
X202671810Y-68156107D01*
X202602190Y-68156107D01*
X202537871Y-68182750D01*
X202488643Y-68231978D01*
X202462000Y-68296297D01*
X202242980Y-68296297D01*
X201999500Y-68052817D01*
X201721210Y-68331107D01*
X201721210Y-68356260D01*
X201725414Y-68363542D01*
X201725414Y-68440670D01*
X201686850Y-68507465D01*
X201620055Y-68546029D01*
X201581491Y-68551106D01*
X201142509Y-68551106D01*
X201068009Y-68531144D01*
X201013471Y-68476606D01*
X200993509Y-68402106D01*
X201002790Y-68367468D01*
X201002790Y-68331107D01*
X200967980Y-68296297D01*
X201187000Y-68296297D01*
X201187000Y-68365917D01*
X201213643Y-68430236D01*
X201262871Y-68479464D01*
X201327190Y-68506107D01*
X201396810Y-68506107D01*
X201461129Y-68479464D01*
X201510357Y-68430236D01*
X201537000Y-68365917D01*
X201537000Y-68296297D01*
X201510357Y-68231978D01*
X201461129Y-68182750D01*
X201396810Y-68156107D01*
X201327190Y-68156107D01*
X201262871Y-68182750D01*
X201213643Y-68231978D01*
X201187000Y-68296297D01*
X200967980Y-68296297D01*
X200724500Y-68052817D01*
X200446210Y-68331107D01*
X200446210Y-68341721D01*
X200450992Y-68350097D01*
X200470149Y-68383277D01*
X200470149Y-68383644D01*
X200470330Y-68383961D01*
X200470149Y-68422103D01*
X200470149Y-68460405D01*
X200469965Y-68460722D01*
X200469964Y-68461088D01*
X200450733Y-68494033D01*
X200431585Y-68527200D01*
X200431267Y-68527383D01*
X200431083Y-68527699D01*
X200425640Y-68530632D01*
X200364790Y-68565764D01*
X200364106Y-68565945D01*
X200360535Y-68566883D01*
X200325085Y-68574362D01*
X200312926Y-68579398D01*
X200303128Y-68581974D01*
X200274339Y-68581837D01*
X200245793Y-68585594D01*
X200231002Y-68581631D01*
X200226001Y-68581608D01*
X200221833Y-68579175D01*
X200208244Y-68575535D01*
X200205398Y-68574356D01*
X200198860Y-68571736D01*
X200198858Y-68571735D01*
X200088502Y-68551106D01*
X200088499Y-68551106D01*
X200016000Y-68551106D01*
X199941500Y-68531144D01*
X199886962Y-68476606D01*
X199867000Y-68402106D01*
X199867000Y-68296297D01*
X199912000Y-68296297D01*
X199912000Y-68365917D01*
X199938643Y-68430236D01*
X199987871Y-68479464D01*
X200052190Y-68506107D01*
X200121810Y-68506107D01*
X200186129Y-68479464D01*
X200235357Y-68430236D01*
X200262000Y-68365917D01*
X200262000Y-68296297D01*
X200235357Y-68231978D01*
X200186129Y-68182750D01*
X200121810Y-68156107D01*
X200052190Y-68156107D01*
X199987871Y-68182750D01*
X199938643Y-68231978D01*
X199912000Y-68296297D01*
X199867000Y-68296297D01*
X199867000Y-68111615D01*
X199886962Y-68037115D01*
X199941500Y-67982577D01*
X200016000Y-67962615D01*
X200050641Y-67971897D01*
X200087000Y-67971897D01*
X200365290Y-67693607D01*
X201083710Y-67693607D01*
X201362000Y-67971897D01*
X201640290Y-67693607D01*
X201362000Y-67415317D01*
X201083710Y-67693607D01*
X200365290Y-67693607D01*
X200087000Y-67415317D01*
X200061847Y-67415317D01*
X200054564Y-67419522D01*
X199977436Y-67419522D01*
X199910641Y-67380958D01*
X199872077Y-67314163D01*
X199867000Y-67275599D01*
X199867000Y-67021297D01*
X199912000Y-67021297D01*
X199912000Y-67090917D01*
X199938643Y-67155236D01*
X199987871Y-67204464D01*
X200052190Y-67231107D01*
X200121810Y-67231107D01*
X200186129Y-67204464D01*
X200235357Y-67155236D01*
X200262000Y-67090917D01*
X200262000Y-67056107D01*
X200446210Y-67056107D01*
X200724500Y-67334397D01*
X201002790Y-67056107D01*
X200967980Y-67021297D01*
X201187000Y-67021297D01*
X201187000Y-67090917D01*
X201213643Y-67155236D01*
X201262871Y-67204464D01*
X201327190Y-67231107D01*
X201396810Y-67231107D01*
X201461129Y-67204464D01*
X201510357Y-67155236D01*
X201537000Y-67090917D01*
X201537000Y-67056107D01*
X201721210Y-67056107D01*
X201999500Y-67334397D01*
X202277790Y-67056107D01*
X202242980Y-67021297D01*
X202462000Y-67021297D01*
X202462000Y-67090917D01*
X202488643Y-67155236D01*
X202537871Y-67204464D01*
X202602190Y-67231107D01*
X202671810Y-67231107D01*
X202736129Y-67204464D01*
X202785357Y-67155236D01*
X202812000Y-67090917D01*
X202812000Y-67021297D01*
X202785357Y-66956978D01*
X202736129Y-66907750D01*
X202671810Y-66881107D01*
X202602190Y-66881107D01*
X202537871Y-66907750D01*
X202488643Y-66956978D01*
X202462000Y-67021297D01*
X202242980Y-67021297D01*
X201999500Y-66777817D01*
X201721210Y-67056107D01*
X201537000Y-67056107D01*
X201537000Y-67021297D01*
X201510357Y-66956978D01*
X201461129Y-66907750D01*
X201396810Y-66881107D01*
X201327190Y-66881107D01*
X201262871Y-66907750D01*
X201213643Y-66956978D01*
X201187000Y-67021297D01*
X200967980Y-67021297D01*
X200724500Y-66777817D01*
X200446210Y-67056107D01*
X200262000Y-67056107D01*
X200262000Y-67021297D01*
X200235357Y-66956978D01*
X200186129Y-66907750D01*
X200121810Y-66881107D01*
X200052190Y-66881107D01*
X199987871Y-66907750D01*
X199938643Y-66956978D01*
X199912000Y-67021297D01*
X199867000Y-67021297D01*
X199867000Y-66836615D01*
X199886962Y-66762115D01*
X199941500Y-66707577D01*
X200016000Y-66687615D01*
X200050641Y-66696897D01*
X200087000Y-66696897D01*
X200365290Y-66418607D01*
X201083710Y-66418607D01*
X201362000Y-66696897D01*
X201640290Y-66418607D01*
X201362000Y-66140317D01*
X201083710Y-66418607D01*
X200365290Y-66418607D01*
X200087000Y-66140317D01*
X200061847Y-66140317D01*
X200054564Y-66144522D01*
X200034948Y-66144522D01*
X200016000Y-66149599D01*
X199997052Y-66144522D01*
X199977436Y-66144522D01*
X199960448Y-66134714D01*
X199941500Y-66129637D01*
X199927628Y-66115765D01*
X199910641Y-66105958D01*
X199900833Y-66088970D01*
X199886962Y-66075099D01*
X199881884Y-66056150D01*
X199872077Y-66039163D01*
X199867000Y-66000599D01*
X199867000Y-65746297D01*
X199912000Y-65746297D01*
X199912000Y-65815917D01*
X199938643Y-65880236D01*
X199987871Y-65929464D01*
X200052190Y-65956107D01*
X200121810Y-65956107D01*
X200186129Y-65929464D01*
X200235357Y-65880236D01*
X200262000Y-65815917D01*
X200262000Y-65746297D01*
X200235357Y-65681978D01*
X200186129Y-65632750D01*
X200121810Y-65606107D01*
X200052190Y-65606107D01*
X199987871Y-65632750D01*
X199938643Y-65681978D01*
X199912000Y-65746297D01*
X199867000Y-65746297D01*
X199867000Y-65703615D01*
X199886962Y-65629115D01*
X199910641Y-65598256D01*
X199941399Y-65567498D01*
X200008194Y-65528934D01*
X200046758Y-65523857D01*
X200343742Y-65523857D01*
X200418242Y-65543819D01*
G37*
%TD.AperFunction*%
%TA.AperFunction,Conductor*%
G36*
X199257250Y-41785962D02*
G01*
X199311788Y-41840500D01*
X199331750Y-41915000D01*
X199331750Y-42963400D01*
X199334603Y-42993820D01*
X199379457Y-43122008D01*
X199460098Y-43231273D01*
X199461109Y-43232284D01*
X199462060Y-43233931D01*
X199466730Y-43240259D01*
X199466017Y-43240785D01*
X199499673Y-43299079D01*
X199504750Y-43337643D01*
X199504750Y-43411408D01*
X199533883Y-43520135D01*
X199535281Y-43522556D01*
X199590165Y-43617616D01*
X200286110Y-44313561D01*
X200324673Y-44380354D01*
X200329750Y-44418918D01*
X200329750Y-46503949D01*
X200309788Y-46578449D01*
X200286109Y-46609308D01*
X199399164Y-47496253D01*
X199342883Y-47593732D01*
X199313750Y-47702459D01*
X199313750Y-53570500D01*
X199293788Y-53645000D01*
X199239250Y-53699538D01*
X199164751Y-53719500D01*
X198940136Y-53719500D01*
X198940111Y-53719502D01*
X198880521Y-53725908D01*
X198880515Y-53725909D01*
X198745670Y-53776202D01*
X198745666Y-53776204D01*
X198630455Y-53862452D01*
X198630452Y-53862455D01*
X198544204Y-53977666D01*
X198544202Y-53977670D01*
X198493908Y-54112517D01*
X198487500Y-54172114D01*
X198487500Y-54667863D01*
X198487502Y-54667888D01*
X198493908Y-54727478D01*
X198493909Y-54727484D01*
X198544202Y-54862329D01*
X198544204Y-54862333D01*
X198630452Y-54977544D01*
X198630455Y-54977547D01*
X198745666Y-55063795D01*
X198745670Y-55063797D01*
X198857198Y-55105394D01*
X198920025Y-55150133D01*
X198952066Y-55220291D01*
X198944735Y-55297069D01*
X198899996Y-55359896D01*
X198857198Y-55384606D01*
X198745670Y-55426202D01*
X198745666Y-55426204D01*
X198630455Y-55512452D01*
X198630452Y-55512455D01*
X198544204Y-55627666D01*
X198544202Y-55627670D01*
X198493908Y-55762517D01*
X198487500Y-55822114D01*
X198487500Y-56317863D01*
X198487502Y-56317888D01*
X198493908Y-56377478D01*
X198493909Y-56377484D01*
X198544202Y-56512329D01*
X198544204Y-56512333D01*
X198630452Y-56627544D01*
X198630455Y-56627547D01*
X198745666Y-56713795D01*
X198745670Y-56713797D01*
X198880517Y-56764091D01*
X198940114Y-56770499D01*
X198940118Y-56770499D01*
X198940127Y-56770500D01*
X199335388Y-56770499D01*
X199354336Y-56775576D01*
X199373952Y-56775576D01*
X199390939Y-56785383D01*
X199409888Y-56790461D01*
X199440747Y-56814140D01*
X199517859Y-56891252D01*
X199556423Y-56958047D01*
X199561500Y-56996611D01*
X199561500Y-59724186D01*
X199541538Y-59798686D01*
X199487000Y-59853224D01*
X199412500Y-59873186D01*
X199338000Y-59853224D01*
X199288302Y-59804044D01*
X199288086Y-59804213D01*
X199286807Y-59802565D01*
X199284249Y-59800033D01*
X199282340Y-59796806D01*
X199282338Y-59796803D01*
X199166571Y-59681036D01*
X199166568Y-59681034D01*
X199025649Y-59597695D01*
X198868418Y-59552015D01*
X198850251Y-59550584D01*
X198850250Y-59550585D01*
X198850250Y-60188125D01*
X198830288Y-60262625D01*
X198775750Y-60317163D01*
X198701250Y-60337125D01*
X198596250Y-60337125D01*
X198596250Y-60442125D01*
X198576288Y-60516625D01*
X198521750Y-60571163D01*
X198447250Y-60591125D01*
X196765663Y-60591125D01*
X196712053Y-60633158D01*
X196654416Y-60645102D01*
X196254569Y-60647299D01*
X196179960Y-60627746D01*
X196125124Y-60573509D01*
X196104752Y-60499120D01*
X196104750Y-60498301D01*
X196104750Y-60083125D01*
X196768577Y-60083125D01*
X197326250Y-60083125D01*
X197326250Y-59550585D01*
X197834250Y-59550585D01*
X197834250Y-60083125D01*
X198342250Y-60083125D01*
X198342250Y-59550585D01*
X198342248Y-59550584D01*
X198324081Y-59552015D01*
X198166846Y-59597696D01*
X198164089Y-59599327D01*
X198161238Y-59600122D01*
X198158245Y-59601418D01*
X198158067Y-59601007D01*
X198089801Y-59620064D01*
X198015097Y-59600878D01*
X198012411Y-59599327D01*
X198009653Y-59597696D01*
X197852418Y-59552015D01*
X197834251Y-59550584D01*
X197834250Y-59550585D01*
X197326250Y-59550585D01*
X197326248Y-59550584D01*
X197308081Y-59552015D01*
X197150850Y-59597695D01*
X197009931Y-59681034D01*
X197009928Y-59681036D01*
X196894161Y-59796803D01*
X196894159Y-59796806D01*
X196810820Y-59937725D01*
X196768577Y-60083125D01*
X196104750Y-60083125D01*
X196104750Y-52001879D01*
X196124712Y-51927379D01*
X196164287Y-51882726D01*
X196187000Y-51865672D01*
X196187000Y-51865671D01*
X196695000Y-51865671D01*
X196840399Y-51823429D01*
X196981318Y-51740090D01*
X196981321Y-51740088D01*
X197097088Y-51624321D01*
X197097090Y-51624318D01*
X197180429Y-51483400D01*
X197226109Y-51326170D01*
X197227539Y-51308000D01*
X196695000Y-51308000D01*
X196695000Y-51865671D01*
X196187000Y-51865671D01*
X196187000Y-50800000D01*
X196695000Y-50800000D01*
X197227539Y-50800000D01*
X197227539Y-50799999D01*
X197226109Y-50781829D01*
X197180429Y-50624601D01*
X197178804Y-50621853D01*
X197178009Y-50619007D01*
X197176707Y-50615998D01*
X197177119Y-50615819D01*
X197158059Y-50547567D01*
X197177237Y-50472862D01*
X197178804Y-50470147D01*
X197180429Y-50467398D01*
X197226109Y-50310170D01*
X197227539Y-50292000D01*
X196695000Y-50292000D01*
X196695000Y-50800000D01*
X196187000Y-50800000D01*
X196187000Y-49226324D01*
X196164287Y-49209271D01*
X196116696Y-49148576D01*
X196104750Y-49090119D01*
X196104750Y-48959587D01*
X196578751Y-48959587D01*
X196581684Y-48996872D01*
X196581685Y-48996876D01*
X196601476Y-49064999D01*
X196635462Y-49090516D01*
X196683053Y-49151211D01*
X196695000Y-49209670D01*
X196695000Y-49784000D01*
X197227539Y-49784000D01*
X197227539Y-49783999D01*
X197226109Y-49765828D01*
X197226108Y-49765821D01*
X197208763Y-49706124D01*
X197192288Y-49693754D01*
X197144697Y-49633060D01*
X197132750Y-49574601D01*
X197132750Y-49548116D01*
X197640750Y-49548116D01*
X197800152Y-49501805D01*
X197943246Y-49417180D01*
X197943249Y-49417178D01*
X198060803Y-49299624D01*
X198060805Y-49299621D01*
X198145432Y-49156524D01*
X198191813Y-48996885D01*
X198191814Y-48996880D01*
X198194749Y-48959575D01*
X198194750Y-48959574D01*
X198194750Y-48559625D01*
X197640750Y-48559625D01*
X197640750Y-49548116D01*
X197132750Y-49548116D01*
X197132750Y-48559625D01*
X196578751Y-48559625D01*
X196578751Y-48959587D01*
X196104750Y-48959587D01*
X196104750Y-48244761D01*
X196104749Y-48244753D01*
X196102372Y-48232805D01*
X196090113Y-48171173D01*
X196087250Y-48142104D01*
X196087250Y-47663866D01*
X196087250Y-47663859D01*
X196084396Y-47633426D01*
X196084219Y-47631536D01*
X196085412Y-47624509D01*
X196083568Y-47617625D01*
X196091806Y-47586879D01*
X196097138Y-47555497D01*
X196101685Y-47550008D01*
X196103530Y-47543125D01*
X196126035Y-47520619D01*
X196146346Y-47496106D01*
X196153028Y-47493626D01*
X196158068Y-47488587D01*
X196188815Y-47480348D01*
X196218657Y-47469276D01*
X196232568Y-47468625D01*
X196431969Y-47468625D01*
X196506469Y-47488587D01*
X196561007Y-47543125D01*
X196580969Y-47617625D01*
X196580510Y-47629317D01*
X196578750Y-47651677D01*
X196578750Y-48051625D01*
X197132750Y-48051625D01*
X197640750Y-48051625D01*
X198194749Y-48051625D01*
X198194749Y-47651680D01*
X198194748Y-47651662D01*
X198191815Y-47614377D01*
X198191813Y-47614367D01*
X198145432Y-47454725D01*
X198060805Y-47311628D01*
X198060803Y-47311625D01*
X197943249Y-47194071D01*
X197943246Y-47194069D01*
X197800152Y-47109444D01*
X197640750Y-47063132D01*
X197640750Y-48051625D01*
X197132750Y-48051625D01*
X197132750Y-47063131D01*
X197096787Y-47036130D01*
X197049196Y-46975435D01*
X197037250Y-46916977D01*
X197037250Y-44777069D01*
X197037249Y-44777062D01*
X197019839Y-44712087D01*
X196996327Y-44624340D01*
X196967389Y-44574220D01*
X196917270Y-44487409D01*
X196917269Y-44487408D01*
X196917267Y-44487405D01*
X196800264Y-44370403D01*
X196800262Y-44370402D01*
X196798891Y-44369031D01*
X196760327Y-44302236D01*
X196755250Y-44263672D01*
X196755250Y-43733625D01*
X196775212Y-43659125D01*
X196829750Y-43604587D01*
X196904250Y-43584625D01*
X196978351Y-43584625D01*
X196978352Y-43584625D01*
X197066814Y-43574002D01*
X197207592Y-43518486D01*
X197328172Y-43427047D01*
X197419611Y-43306467D01*
X197444632Y-43243018D01*
X197490531Y-43181038D01*
X197553374Y-43153741D01*
X197553083Y-43152653D01*
X197560383Y-43150696D01*
X197561274Y-43150310D01*
X197562434Y-43150147D01*
X197562516Y-43150125D01*
X197562517Y-43150125D01*
X197687394Y-43116664D01*
X197799356Y-43052023D01*
X199041738Y-41809641D01*
X199058725Y-41799833D01*
X199072597Y-41785962D01*
X199091545Y-41780884D01*
X199108533Y-41771077D01*
X199147097Y-41766000D01*
X199182750Y-41766000D01*
X199257250Y-41785962D01*
G37*
%TD.AperFunction*%
%TA.AperFunction,Conductor*%
G36*
X212952889Y-45886462D02*
G01*
X212983748Y-45910141D01*
X213188379Y-46114771D01*
X213226943Y-46181566D01*
X213232020Y-46220130D01*
X213232020Y-51666784D01*
X213212058Y-51741284D01*
X213157520Y-51795822D01*
X213083020Y-51815784D01*
X213008520Y-51795822D01*
X212977661Y-51772143D01*
X211105391Y-49899873D01*
X211066827Y-49833078D01*
X211061750Y-49794514D01*
X211061750Y-48194896D01*
X211081712Y-48120396D01*
X211136250Y-48065858D01*
X211210750Y-48045896D01*
X211285250Y-48065858D01*
X211316109Y-48089537D01*
X211374750Y-48148178D01*
X211374753Y-48148180D01*
X211517847Y-48232805D01*
X211677249Y-48279116D01*
X211677250Y-48279116D01*
X212185250Y-48279116D01*
X212344652Y-48232805D01*
X212487746Y-48148180D01*
X212487749Y-48148178D01*
X212605303Y-48030624D01*
X212605305Y-48030621D01*
X212689932Y-47887524D01*
X212736313Y-47727885D01*
X212736314Y-47727880D01*
X212739249Y-47690575D01*
X212739250Y-47690574D01*
X212739250Y-47228125D01*
X212185250Y-47228125D01*
X212185250Y-48279116D01*
X211677250Y-48279116D01*
X211677250Y-47123125D01*
X211697212Y-47048625D01*
X211751750Y-46994087D01*
X211826250Y-46974125D01*
X211931250Y-46974125D01*
X211931250Y-46869125D01*
X211951212Y-46794625D01*
X212005750Y-46740087D01*
X212080250Y-46720125D01*
X212739249Y-46720125D01*
X212739249Y-46257680D01*
X212739248Y-46257662D01*
X212736315Y-46220377D01*
X212736313Y-46220367D01*
X212688870Y-46057071D01*
X212688426Y-46035929D01*
X212682953Y-46015500D01*
X212687632Y-45998034D01*
X212687254Y-45979960D01*
X212697440Y-45961429D01*
X212702915Y-45941000D01*
X212715700Y-45928214D01*
X212724410Y-45912372D01*
X212742497Y-45901417D01*
X212757453Y-45886462D01*
X212774918Y-45881782D01*
X212790382Y-45872417D01*
X212831953Y-45866500D01*
X212878389Y-45866500D01*
X212952889Y-45886462D01*
G37*
%TD.AperFunction*%
%TA.AperFunction,Conductor*%
G36*
X195787005Y-30421087D02*
G01*
X195841543Y-30475625D01*
X195861505Y-30550125D01*
X195841543Y-30624625D01*
X195817864Y-30655484D01*
X195684038Y-30789309D01*
X195684034Y-30789314D01*
X195573724Y-30954403D01*
X195573718Y-30954415D01*
X195497737Y-31137850D01*
X195497736Y-31137854D01*
X195459000Y-31332595D01*
X195459000Y-31477875D01*
X196167000Y-31477875D01*
X196167000Y-31985875D01*
X195459000Y-31985875D01*
X195459000Y-32131154D01*
X195497736Y-32325895D01*
X195497737Y-32325899D01*
X195573718Y-32509334D01*
X195573724Y-32509346D01*
X195684034Y-32674435D01*
X195684038Y-32674440D01*
X195824434Y-32814836D01*
X195824439Y-32814840D01*
X195989528Y-32925150D01*
X195989540Y-32925156D01*
X196172975Y-33001137D01*
X196172979Y-33001138D01*
X196212999Y-33009099D01*
X196213000Y-33009098D01*
X196213000Y-32191935D01*
X196226940Y-32216080D01*
X196282795Y-32271935D01*
X196351204Y-32311431D01*
X196427504Y-32331875D01*
X196506496Y-32331875D01*
X196582796Y-32311431D01*
X196651205Y-32271935D01*
X196707060Y-32216080D01*
X196721000Y-32191935D01*
X196721000Y-33009099D01*
X196761020Y-33001138D01*
X196761024Y-33001137D01*
X196944459Y-32925156D01*
X196944471Y-32925150D01*
X197109560Y-32814840D01*
X197109565Y-32814836D01*
X197249961Y-32674440D01*
X197249965Y-32674435D01*
X197360275Y-32509346D01*
X197360281Y-32509334D01*
X197436262Y-32325899D01*
X197436263Y-32325895D01*
X197475000Y-32131154D01*
X197475000Y-31985875D01*
X196767000Y-31985875D01*
X196767000Y-31477875D01*
X197475000Y-31477875D01*
X197475000Y-31332595D01*
X197436263Y-31137854D01*
X197436262Y-31137850D01*
X197360281Y-30954415D01*
X197360275Y-30954403D01*
X197249965Y-30789314D01*
X197249961Y-30789309D01*
X197116136Y-30655484D01*
X197077572Y-30588689D01*
X197077572Y-30511561D01*
X197116136Y-30444766D01*
X197182931Y-30406202D01*
X197221495Y-30401125D01*
X204352505Y-30401125D01*
X204427005Y-30421087D01*
X204481543Y-30475625D01*
X204501505Y-30550125D01*
X204481543Y-30624625D01*
X204457864Y-30655484D01*
X204324038Y-30789309D01*
X204324034Y-30789314D01*
X204213724Y-30954403D01*
X204213718Y-30954415D01*
X204137737Y-31137850D01*
X204137736Y-31137854D01*
X204099000Y-31332595D01*
X204099000Y-31477875D01*
X204807000Y-31477875D01*
X204807000Y-31985875D01*
X204099000Y-31985875D01*
X204099000Y-32131154D01*
X204137736Y-32325895D01*
X204137737Y-32325899D01*
X204213718Y-32509334D01*
X204213724Y-32509346D01*
X204324034Y-32674435D01*
X204324038Y-32674440D01*
X204464434Y-32814836D01*
X204464439Y-32814840D01*
X204629528Y-32925150D01*
X204629540Y-32925156D01*
X204812975Y-33001137D01*
X204812979Y-33001138D01*
X204852999Y-33009099D01*
X204853000Y-33009098D01*
X204853000Y-32191935D01*
X204866940Y-32216080D01*
X204922795Y-32271935D01*
X204991204Y-32311431D01*
X205067504Y-32331875D01*
X205146496Y-32331875D01*
X205222796Y-32311431D01*
X205291205Y-32271935D01*
X205347060Y-32216080D01*
X205361000Y-32191935D01*
X205361000Y-33009099D01*
X205401020Y-33001138D01*
X205401024Y-33001137D01*
X205584459Y-32925156D01*
X205584471Y-32925150D01*
X205749560Y-32814840D01*
X205749565Y-32814836D01*
X205889961Y-32674440D01*
X205889965Y-32674435D01*
X206000275Y-32509346D01*
X206000281Y-32509334D01*
X206076262Y-32325899D01*
X206076263Y-32325895D01*
X206115000Y-32131154D01*
X206115000Y-31985875D01*
X205407000Y-31985875D01*
X205407000Y-31477875D01*
X206115000Y-31477875D01*
X206115000Y-31332595D01*
X206076263Y-31137854D01*
X206076262Y-31137850D01*
X206000281Y-30954415D01*
X206000275Y-30954403D01*
X205889965Y-30789314D01*
X205889961Y-30789309D01*
X205756136Y-30655484D01*
X205717572Y-30588689D01*
X205717572Y-30511561D01*
X205756136Y-30444766D01*
X205822931Y-30406202D01*
X205861495Y-30401125D01*
X215069185Y-30401125D01*
X215079813Y-30401505D01*
X215274973Y-30415462D01*
X215287608Y-30416912D01*
X215324105Y-30422693D01*
X215332436Y-30424257D01*
X215503103Y-30461384D01*
X215517437Y-30465261D01*
X215543743Y-30473808D01*
X215549659Y-30475871D01*
X215722996Y-30540523D01*
X215738546Y-30547358D01*
X215742380Y-30549312D01*
X215746052Y-30551248D01*
X215923149Y-30647951D01*
X215941028Y-30659442D01*
X216105232Y-30782363D01*
X216121299Y-30796285D01*
X216266339Y-30941325D01*
X216280261Y-30957392D01*
X216403183Y-31121598D01*
X216414676Y-31139482D01*
X216511151Y-31316162D01*
X216513129Y-31319911D01*
X216515291Y-31324153D01*
X216522143Y-31339739D01*
X216539446Y-31386130D01*
X216586596Y-31512546D01*
X216588699Y-31518576D01*
X216597393Y-31545336D01*
X216601279Y-31559701D01*
X216638284Y-31729803D01*
X216639855Y-31738169D01*
X216645728Y-31775251D01*
X216647182Y-31787930D01*
X216661120Y-31982811D01*
X216661500Y-31993440D01*
X216661500Y-122232183D01*
X216661120Y-122242813D01*
X216647291Y-122436164D01*
X216645836Y-122448843D01*
X216645836Y-122448845D01*
X216639363Y-122489710D01*
X216637793Y-122498071D01*
X216601565Y-122664607D01*
X216597677Y-122678981D01*
X216587598Y-122709999D01*
X216585497Y-122716022D01*
X216522569Y-122884742D01*
X216515720Y-122900324D01*
X216510804Y-122909971D01*
X216508821Y-122913728D01*
X216414676Y-123086142D01*
X216403183Y-123104026D01*
X216280261Y-123268232D01*
X216266339Y-123284299D01*
X216121299Y-123429339D01*
X216105232Y-123443261D01*
X215941026Y-123566183D01*
X215923142Y-123577676D01*
X215750728Y-123671821D01*
X215746971Y-123673804D01*
X215737324Y-123678720D01*
X215721742Y-123685569D01*
X215553022Y-123748497D01*
X215546999Y-123750598D01*
X215515981Y-123760677D01*
X215501607Y-123764565D01*
X215335071Y-123800793D01*
X215326710Y-123802363D01*
X215285845Y-123808836D01*
X215273164Y-123810291D01*
X215079813Y-123824120D01*
X215069183Y-123824500D01*
X173042817Y-123824500D01*
X173032187Y-123824120D01*
X172838834Y-123810291D01*
X172826153Y-123808836D01*
X172785288Y-123802363D01*
X172776927Y-123800793D01*
X172610391Y-123764565D01*
X172596017Y-123760677D01*
X172564999Y-123750598D01*
X172558976Y-123748497D01*
X172390256Y-123685569D01*
X172374685Y-123678725D01*
X172365038Y-123673810D01*
X172361270Y-123671822D01*
X172188853Y-123577674D01*
X172170977Y-123566186D01*
X172006767Y-123443261D01*
X171990700Y-123429339D01*
X171845660Y-123284299D01*
X171831738Y-123268232D01*
X171774360Y-123191584D01*
X171708810Y-123104019D01*
X171697327Y-123086149D01*
X171603160Y-122913697D01*
X171601209Y-122910000D01*
X171596271Y-122900307D01*
X171589435Y-122884757D01*
X171526500Y-122716021D01*
X171524410Y-122710030D01*
X171514314Y-122678957D01*
X171510435Y-122664617D01*
X171474202Y-122498059D01*
X171472635Y-122489709D01*
X171471945Y-122485353D01*
X171466160Y-122448832D01*
X171464710Y-122436188D01*
X171450880Y-122242812D01*
X171450500Y-122232184D01*
X171450500Y-118608415D01*
X182157000Y-118608415D01*
X182157000Y-119253000D01*
X183084297Y-119253000D01*
X183049075Y-119314007D01*
X183015000Y-119441174D01*
X183015000Y-119572826D01*
X183049075Y-119699993D01*
X183084297Y-119761000D01*
X182157000Y-119761000D01*
X182157000Y-120405584D01*
X182157001Y-120405602D01*
X182163504Y-120466095D01*
X182214552Y-120602957D01*
X182214555Y-120602963D01*
X182302096Y-120719903D01*
X182419036Y-120807444D01*
X182419042Y-120807447D01*
X182555906Y-120858495D01*
X182555902Y-120858495D01*
X182616397Y-120864998D01*
X182616416Y-120865000D01*
X183261000Y-120865000D01*
X183261000Y-119937702D01*
X183322007Y-119972925D01*
X183449174Y-120007000D01*
X183580826Y-120007000D01*
X183707993Y-119972925D01*
X183769000Y-119937702D01*
X183769000Y-120865000D01*
X184413584Y-120865000D01*
X184413602Y-120864998D01*
X184474095Y-120858495D01*
X184610957Y-120807447D01*
X184610963Y-120807444D01*
X184727903Y-120719903D01*
X184815444Y-120602963D01*
X184815447Y-120602957D01*
X184866495Y-120466095D01*
X184872998Y-120405602D01*
X184873000Y-120405584D01*
X184873000Y-119761000D01*
X183945703Y-119761000D01*
X183980925Y-119699993D01*
X184015000Y-119572826D01*
X184015000Y-119441174D01*
X183980925Y-119314007D01*
X183945703Y-119253000D01*
X184873000Y-119253000D01*
X184873000Y-118608415D01*
X184872998Y-118608397D01*
X184866495Y-118547904D01*
X184815447Y-118411042D01*
X184815444Y-118411036D01*
X184727903Y-118294096D01*
X184610963Y-118206555D01*
X184610957Y-118206552D01*
X184474093Y-118155504D01*
X184474097Y-118155504D01*
X184413602Y-118149001D01*
X184413584Y-118149000D01*
X184304041Y-118149000D01*
X184229541Y-118129038D01*
X184175003Y-118074500D01*
X184155041Y-118000000D01*
X184175003Y-117925500D01*
X184216461Y-117879456D01*
X184219044Y-117877578D01*
X184264501Y-117844553D01*
X184392553Y-117716501D01*
X184498996Y-117569994D01*
X184581211Y-117408639D01*
X184637171Y-117236409D01*
X184665500Y-117057546D01*
X184665500Y-116876454D01*
X184637171Y-116697591D01*
X184595158Y-116568286D01*
X184591122Y-116491263D01*
X184626138Y-116422542D01*
X184631488Y-116416903D01*
X189881210Y-111167183D01*
X189933936Y-111075858D01*
X189933937Y-111075857D01*
X189961230Y-110973997D01*
X189961230Y-88668215D01*
X189981192Y-88593715D01*
X190035730Y-88539177D01*
X190110230Y-88519215D01*
X190184730Y-88539177D01*
X190215589Y-88562856D01*
X195066742Y-93414009D01*
X195105306Y-93480804D01*
X195105306Y-93557932D01*
X195103091Y-93565410D01*
X195061079Y-93694713D01*
X195046914Y-93784147D01*
X195032750Y-93873579D01*
X195032750Y-94054671D01*
X195061079Y-94233534D01*
X195117039Y-94405764D01*
X195189839Y-94548642D01*
X195199255Y-94567120D01*
X195199255Y-94567121D01*
X195241397Y-94625124D01*
X195305697Y-94713626D01*
X195433749Y-94841678D01*
X195580256Y-94948121D01*
X195741611Y-95030336D01*
X195913841Y-95086296D01*
X195913842Y-95086296D01*
X195913845Y-95086297D01*
X195918029Y-95086960D01*
X195988488Y-95118331D01*
X196033823Y-95180729D01*
X196041884Y-95257435D01*
X196010513Y-95327894D01*
X195948115Y-95373229D01*
X195918029Y-95381290D01*
X195913845Y-95381952D01*
X195741610Y-95437914D01*
X195580254Y-95520130D01*
X195580253Y-95520130D01*
X195433750Y-95626571D01*
X195433747Y-95626573D01*
X195305698Y-95754622D01*
X195305696Y-95754625D01*
X195199255Y-95901128D01*
X195199255Y-95901129D01*
X195117039Y-96062485D01*
X195104024Y-96102542D01*
X195061079Y-96234716D01*
X195032750Y-96413579D01*
X195032750Y-96594671D01*
X195061079Y-96773534D01*
X195117039Y-96945764D01*
X195199254Y-97107119D01*
X195305697Y-97253626D01*
X195433749Y-97381678D01*
X195580256Y-97488121D01*
X195741611Y-97570336D01*
X195913841Y-97626296D01*
X195913842Y-97626296D01*
X195913845Y-97626297D01*
X195918029Y-97626960D01*
X195988488Y-97658331D01*
X196033823Y-97720729D01*
X196041884Y-97797435D01*
X196010513Y-97867894D01*
X195948115Y-97913229D01*
X195918029Y-97921290D01*
X195913845Y-97921952D01*
X195741610Y-97977914D01*
X195580254Y-98060130D01*
X195580253Y-98060130D01*
X195433750Y-98166571D01*
X195433747Y-98166573D01*
X195305698Y-98294622D01*
X195305696Y-98294625D01*
X195199255Y-98441128D01*
X195199255Y-98441129D01*
X195117039Y-98602485D01*
X195089834Y-98686216D01*
X195061079Y-98774716D01*
X195032750Y-98953579D01*
X195032750Y-99134671D01*
X195061079Y-99313534D01*
X195117039Y-99485764D01*
X195199254Y-99647119D01*
X195305697Y-99793626D01*
X195433749Y-99921678D01*
X195580256Y-100028121D01*
X195741611Y-100110336D01*
X195913841Y-100166296D01*
X195913842Y-100166296D01*
X195913845Y-100166297D01*
X195918029Y-100166960D01*
X195988488Y-100198331D01*
X196033823Y-100260729D01*
X196041884Y-100337435D01*
X196010513Y-100407894D01*
X195948115Y-100453229D01*
X195918029Y-100461290D01*
X195913845Y-100461952D01*
X195741610Y-100517914D01*
X195580254Y-100600130D01*
X195580253Y-100600130D01*
X195433750Y-100706571D01*
X195433747Y-100706573D01*
X195305698Y-100834622D01*
X195305696Y-100834625D01*
X195199255Y-100981128D01*
X195199255Y-100981129D01*
X195117039Y-101142485D01*
X195104024Y-101182542D01*
X195061079Y-101314716D01*
X195032750Y-101493579D01*
X195032750Y-101674671D01*
X195061079Y-101853534D01*
X195117039Y-102025764D01*
X195189839Y-102168642D01*
X195199255Y-102187120D01*
X195199255Y-102187121D01*
X195224347Y-102221657D01*
X195305697Y-102333626D01*
X195433749Y-102461678D01*
X195580256Y-102568121D01*
X195741611Y-102650336D01*
X195913841Y-102706296D01*
X195913842Y-102706296D01*
X195913845Y-102706297D01*
X195918029Y-102706960D01*
X195988488Y-102738331D01*
X196033823Y-102800729D01*
X196041884Y-102877435D01*
X196010513Y-102947894D01*
X195948115Y-102993229D01*
X195918029Y-103001290D01*
X195913845Y-103001952D01*
X195741610Y-103057914D01*
X195580254Y-103140130D01*
X195580253Y-103140130D01*
X195433750Y-103246571D01*
X195433747Y-103246573D01*
X195305698Y-103374622D01*
X195305696Y-103374625D01*
X195199255Y-103521128D01*
X195199255Y-103521129D01*
X195117039Y-103682485D01*
X195070617Y-103825360D01*
X195061079Y-103854716D01*
X195032750Y-104033579D01*
X195032750Y-104214671D01*
X195061079Y-104393534D01*
X195117039Y-104565764D01*
X195199254Y-104727119D01*
X195305697Y-104873626D01*
X195433749Y-105001678D01*
X195580256Y-105108121D01*
X195741611Y-105190336D01*
X195913841Y-105246296D01*
X195913842Y-105246296D01*
X195913845Y-105246297D01*
X195918029Y-105246960D01*
X195988488Y-105278331D01*
X196033823Y-105340729D01*
X196041884Y-105417435D01*
X196010513Y-105487894D01*
X195948115Y-105533229D01*
X195918029Y-105541290D01*
X195913845Y-105541952D01*
X195741610Y-105597914D01*
X195580254Y-105680130D01*
X195580253Y-105680130D01*
X195433750Y-105786571D01*
X195433747Y-105786573D01*
X195305698Y-105914622D01*
X195305696Y-105914625D01*
X195199255Y-106061128D01*
X195199255Y-106061129D01*
X195117039Y-106222485D01*
X195104024Y-106262542D01*
X195061079Y-106394716D01*
X195032750Y-106573579D01*
X195032750Y-106754671D01*
X195061079Y-106933534D01*
X195117039Y-107105764D01*
X195199254Y-107267119D01*
X195305697Y-107413626D01*
X195433749Y-107541678D01*
X195580256Y-107648121D01*
X195741611Y-107730336D01*
X195913841Y-107786296D01*
X195913842Y-107786296D01*
X195913845Y-107786297D01*
X195918029Y-107786960D01*
X195988488Y-107818331D01*
X196033823Y-107880729D01*
X196041884Y-107957435D01*
X196010513Y-108027894D01*
X195948115Y-108073229D01*
X195918029Y-108081290D01*
X195913845Y-108081952D01*
X195741610Y-108137914D01*
X195580254Y-108220130D01*
X195580253Y-108220130D01*
X195433750Y-108326571D01*
X195433747Y-108326573D01*
X195305698Y-108454622D01*
X195305696Y-108454625D01*
X195199255Y-108601128D01*
X195199255Y-108601129D01*
X195117039Y-108762485D01*
X195104024Y-108802542D01*
X195061079Y-108934716D01*
X195032750Y-109113579D01*
X195032750Y-109294671D01*
X195061079Y-109473534D01*
X195117039Y-109645764D01*
X195199254Y-109807119D01*
X195305697Y-109953626D01*
X195433749Y-110081678D01*
X195580256Y-110188121D01*
X195741611Y-110270336D01*
X195913841Y-110326296D01*
X195913842Y-110326296D01*
X195913845Y-110326297D01*
X195918029Y-110326960D01*
X195988488Y-110358331D01*
X196033823Y-110420729D01*
X196041884Y-110497435D01*
X196010513Y-110567894D01*
X195948115Y-110613229D01*
X195918029Y-110621290D01*
X195913845Y-110621952D01*
X195741610Y-110677914D01*
X195580254Y-110760130D01*
X195580253Y-110760130D01*
X195433750Y-110866571D01*
X195433747Y-110866573D01*
X195305698Y-110994622D01*
X195305696Y-110994625D01*
X195199255Y-111141128D01*
X195199255Y-111141129D01*
X195117039Y-111302485D01*
X195104024Y-111342542D01*
X195061079Y-111474716D01*
X195032750Y-111653579D01*
X195032750Y-111834671D01*
X195061079Y-112013534D01*
X195117039Y-112185764D01*
X195199254Y-112347119D01*
X195305697Y-112493626D01*
X195433749Y-112621678D01*
X195580256Y-112728121D01*
X195741611Y-112810336D01*
X195913841Y-112866296D01*
X195913842Y-112866296D01*
X195913845Y-112866297D01*
X195918029Y-112866960D01*
X195988488Y-112898331D01*
X196033823Y-112960729D01*
X196041884Y-113037435D01*
X196010513Y-113107894D01*
X195948115Y-113153229D01*
X195918029Y-113161290D01*
X195913845Y-113161952D01*
X195741610Y-113217914D01*
X195580254Y-113300130D01*
X195580253Y-113300130D01*
X195433750Y-113406571D01*
X195433747Y-113406573D01*
X195305698Y-113534622D01*
X195305696Y-113534625D01*
X195199255Y-113681128D01*
X195199255Y-113681129D01*
X195117039Y-113842485D01*
X195104024Y-113882542D01*
X195061079Y-114014716D01*
X195032750Y-114193579D01*
X195032750Y-114374671D01*
X195061079Y-114553534D01*
X195117039Y-114725764D01*
X195199254Y-114887119D01*
X195305697Y-115033626D01*
X195433749Y-115161678D01*
X195580256Y-115268121D01*
X195741611Y-115350336D01*
X195913841Y-115406296D01*
X195913842Y-115406296D01*
X195913845Y-115406297D01*
X195918029Y-115406960D01*
X195988488Y-115438331D01*
X196033823Y-115500729D01*
X196041884Y-115577435D01*
X196010513Y-115647894D01*
X195948115Y-115693229D01*
X195918029Y-115701290D01*
X195913845Y-115701952D01*
X195741610Y-115757914D01*
X195580254Y-115840130D01*
X195580253Y-115840130D01*
X195433750Y-115946571D01*
X195433747Y-115946573D01*
X195305698Y-116074622D01*
X195305696Y-116074625D01*
X195199255Y-116221128D01*
X195199255Y-116221129D01*
X195117039Y-116382485D01*
X195104024Y-116422542D01*
X195061079Y-116554716D01*
X195032750Y-116733579D01*
X195032750Y-116914671D01*
X195061079Y-117093534D01*
X195117039Y-117265764D01*
X195199254Y-117427119D01*
X195305697Y-117573626D01*
X195433749Y-117701678D01*
X195454153Y-117716502D01*
X195481789Y-117736581D01*
X195530327Y-117796521D01*
X195542393Y-117872700D01*
X195514753Y-117944705D01*
X195454813Y-117993243D01*
X195394209Y-118006125D01*
X195284666Y-118006125D01*
X195284647Y-118006126D01*
X195224154Y-118012629D01*
X195087292Y-118063677D01*
X195087286Y-118063680D01*
X194970346Y-118151221D01*
X194882805Y-118268161D01*
X194882802Y-118268167D01*
X194831754Y-118405029D01*
X194825251Y-118465522D01*
X194825250Y-118465540D01*
X194825250Y-119110125D01*
X195752547Y-119110125D01*
X195717325Y-119171132D01*
X195683250Y-119298299D01*
X195683250Y-119429951D01*
X195717325Y-119557118D01*
X195752547Y-119618125D01*
X194825250Y-119618125D01*
X194825250Y-120262709D01*
X194825251Y-120262727D01*
X194831754Y-120323220D01*
X194882802Y-120460082D01*
X194882805Y-120460088D01*
X194970346Y-120577028D01*
X195087286Y-120664569D01*
X195087292Y-120664572D01*
X195224156Y-120715620D01*
X195224152Y-120715620D01*
X195284647Y-120722123D01*
X195284666Y-120722125D01*
X195929250Y-120722125D01*
X195929250Y-119794827D01*
X195990257Y-119830050D01*
X196117424Y-119864125D01*
X196249076Y-119864125D01*
X196376243Y-119830050D01*
X196437250Y-119794827D01*
X196437250Y-120722125D01*
X197081834Y-120722125D01*
X197081852Y-120722123D01*
X197142345Y-120715620D01*
X197279207Y-120664572D01*
X197279213Y-120664569D01*
X197396153Y-120577028D01*
X197483694Y-120460088D01*
X197483697Y-120460082D01*
X197534745Y-120323220D01*
X197541248Y-120262727D01*
X197541250Y-120262709D01*
X197541250Y-119618125D01*
X196613953Y-119618125D01*
X196649175Y-119557118D01*
X196683250Y-119429951D01*
X196683250Y-119298299D01*
X196649175Y-119171132D01*
X196613953Y-119110125D01*
X197541250Y-119110125D01*
X197541250Y-118465540D01*
X197541248Y-118465522D01*
X197534745Y-118405029D01*
X197483697Y-118268167D01*
X197483694Y-118268161D01*
X197396153Y-118151221D01*
X197279213Y-118063680D01*
X197279207Y-118063677D01*
X197142343Y-118012629D01*
X197142347Y-118012629D01*
X197081852Y-118006126D01*
X197081834Y-118006125D01*
X196972291Y-118006125D01*
X196897791Y-117986163D01*
X196843253Y-117931625D01*
X196823291Y-117857125D01*
X196843253Y-117782625D01*
X196884711Y-117736581D01*
X196908054Y-117719621D01*
X196932751Y-117701678D01*
X197060803Y-117573626D01*
X197167246Y-117427119D01*
X197249461Y-117265764D01*
X197305421Y-117093534D01*
X197333750Y-116914671D01*
X197333750Y-116733579D01*
X197305421Y-116554716D01*
X197263408Y-116425411D01*
X197259372Y-116348388D01*
X197294388Y-116279667D01*
X197299738Y-116274028D01*
X200911200Y-112662566D01*
X200911203Y-112662565D01*
X200985770Y-112587998D01*
X201017420Y-112533178D01*
X201038497Y-112496673D01*
X201065791Y-112394812D01*
X201065791Y-112289358D01*
X201065791Y-112280230D01*
X201065790Y-112280212D01*
X201065790Y-97424946D01*
X201085752Y-97350446D01*
X201109431Y-97319587D01*
X210823961Y-87605057D01*
X210890756Y-87566493D01*
X210967884Y-87566493D01*
X211034679Y-87605057D01*
X211073243Y-87671852D01*
X211078320Y-87710416D01*
X211078320Y-91077443D01*
X211058358Y-91151943D01*
X211034679Y-91182802D01*
X209394515Y-92822965D01*
X209327720Y-92861529D01*
X209250592Y-92861529D01*
X209221511Y-92850366D01*
X209149403Y-92813625D01*
X209141139Y-92809414D01*
X208968909Y-92753454D01*
X208790046Y-92725125D01*
X208608954Y-92725125D01*
X208430091Y-92753454D01*
X208257860Y-92809414D01*
X208096504Y-92891630D01*
X208096503Y-92891630D01*
X207950000Y-92998071D01*
X207949997Y-92998073D01*
X207821948Y-93126122D01*
X207821946Y-93126125D01*
X207715505Y-93272628D01*
X207715505Y-93272629D01*
X207633289Y-93433985D01*
X207577329Y-93606216D01*
X207549000Y-93785079D01*
X207549000Y-93966171D01*
X207577329Y-94145034D01*
X207633289Y-94317264D01*
X207715504Y-94478619D01*
X207821947Y-94625126D01*
X207949999Y-94753178D01*
X208096506Y-94859621D01*
X208257861Y-94941836D01*
X208430091Y-94997796D01*
X208430092Y-94997796D01*
X208430095Y-94997797D01*
X208434279Y-94998460D01*
X208504738Y-95029831D01*
X208550073Y-95092229D01*
X208558134Y-95168935D01*
X208526763Y-95239394D01*
X208464365Y-95284729D01*
X208434279Y-95292790D01*
X208430095Y-95293452D01*
X208257860Y-95349414D01*
X208096504Y-95431630D01*
X208096503Y-95431630D01*
X207950000Y-95538071D01*
X207949997Y-95538073D01*
X207821948Y-95666122D01*
X207821946Y-95666125D01*
X207715505Y-95812628D01*
X207715505Y-95812629D01*
X207633289Y-95973985D01*
X207633289Y-95973986D01*
X207577329Y-96146216D01*
X207549000Y-96325079D01*
X207549000Y-96506171D01*
X207577329Y-96685034D01*
X207633289Y-96857264D01*
X207715504Y-97018619D01*
X207821947Y-97165126D01*
X207949999Y-97293178D01*
X208096506Y-97399621D01*
X208257861Y-97481836D01*
X208430091Y-97537796D01*
X208430092Y-97537796D01*
X208430095Y-97537797D01*
X208434279Y-97538460D01*
X208504738Y-97569831D01*
X208550073Y-97632229D01*
X208558134Y-97708935D01*
X208526763Y-97779394D01*
X208464365Y-97824729D01*
X208434279Y-97832790D01*
X208430095Y-97833452D01*
X208257860Y-97889414D01*
X208096504Y-97971630D01*
X208096503Y-97971630D01*
X207950000Y-98078071D01*
X207949997Y-98078073D01*
X207821948Y-98206122D01*
X207821946Y-98206125D01*
X207715505Y-98352628D01*
X207715505Y-98352629D01*
X207633289Y-98513985D01*
X207633289Y-98513986D01*
X207577329Y-98686216D01*
X207549000Y-98865079D01*
X207549000Y-99046171D01*
X207577329Y-99225034D01*
X207633289Y-99397264D01*
X207715504Y-99558619D01*
X207821947Y-99705126D01*
X207949999Y-99833178D01*
X208096506Y-99939621D01*
X208257861Y-100021836D01*
X208430091Y-100077796D01*
X208430092Y-100077796D01*
X208430095Y-100077797D01*
X208434279Y-100078460D01*
X208504738Y-100109831D01*
X208550073Y-100172229D01*
X208558134Y-100248935D01*
X208526763Y-100319394D01*
X208464365Y-100364729D01*
X208434279Y-100372790D01*
X208430095Y-100373452D01*
X208257860Y-100429414D01*
X208096504Y-100511630D01*
X208096503Y-100511630D01*
X207950000Y-100618071D01*
X207949997Y-100618073D01*
X207821948Y-100746122D01*
X207821946Y-100746125D01*
X207715505Y-100892628D01*
X207715505Y-100892629D01*
X207633289Y-101053985D01*
X207633289Y-101053986D01*
X207577329Y-101226216D01*
X207549000Y-101405079D01*
X207549000Y-101586171D01*
X207577329Y-101765034D01*
X207633289Y-101937264D01*
X207704862Y-102077734D01*
X207715505Y-102098620D01*
X207715505Y-102098621D01*
X207756367Y-102154862D01*
X207821947Y-102245126D01*
X207949999Y-102373178D01*
X208096506Y-102479621D01*
X208257861Y-102561836D01*
X208430091Y-102617796D01*
X208430092Y-102617796D01*
X208430095Y-102617797D01*
X208434279Y-102618460D01*
X208504738Y-102649831D01*
X208550073Y-102712229D01*
X208558134Y-102788935D01*
X208526763Y-102859394D01*
X208464365Y-102904729D01*
X208434279Y-102912790D01*
X208430095Y-102913452D01*
X208257860Y-102969414D01*
X208096504Y-103051630D01*
X208096503Y-103051630D01*
X207950000Y-103158071D01*
X207949997Y-103158073D01*
X207821948Y-103286122D01*
X207821946Y-103286125D01*
X207715505Y-103432628D01*
X207715505Y-103432629D01*
X207633289Y-103593985D01*
X207633289Y-103593986D01*
X207577329Y-103766216D01*
X207549000Y-103945079D01*
X207549000Y-104126171D01*
X207577329Y-104305034D01*
X207633289Y-104477264D01*
X207704862Y-104617734D01*
X207715505Y-104638620D01*
X207715505Y-104638621D01*
X207756367Y-104694862D01*
X207821947Y-104785126D01*
X207949999Y-104913178D01*
X208096506Y-105019621D01*
X208257861Y-105101836D01*
X208430091Y-105157796D01*
X208430092Y-105157796D01*
X208430095Y-105157797D01*
X208434279Y-105158460D01*
X208504738Y-105189831D01*
X208550073Y-105252229D01*
X208558134Y-105328935D01*
X208526763Y-105399394D01*
X208464365Y-105444729D01*
X208434279Y-105452790D01*
X208430095Y-105453452D01*
X208257860Y-105509414D01*
X208096504Y-105591630D01*
X208096503Y-105591630D01*
X207950000Y-105698071D01*
X207949997Y-105698073D01*
X207821948Y-105826122D01*
X207821946Y-105826125D01*
X207715505Y-105972628D01*
X207715505Y-105972629D01*
X207633289Y-106133985D01*
X207633289Y-106133986D01*
X207577329Y-106306216D01*
X207549000Y-106485079D01*
X207549000Y-106666171D01*
X207577329Y-106845034D01*
X207633289Y-107017264D01*
X207704862Y-107157734D01*
X207715505Y-107178620D01*
X207715505Y-107178621D01*
X207756367Y-107234862D01*
X207821947Y-107325126D01*
X207949999Y-107453178D01*
X208096506Y-107559621D01*
X208257861Y-107641836D01*
X208430091Y-107697796D01*
X208430092Y-107697796D01*
X208430095Y-107697797D01*
X208434279Y-107698460D01*
X208504738Y-107729831D01*
X208550073Y-107792229D01*
X208558134Y-107868935D01*
X208526763Y-107939394D01*
X208464365Y-107984729D01*
X208434279Y-107992790D01*
X208430095Y-107993452D01*
X208257860Y-108049414D01*
X208096504Y-108131630D01*
X208096503Y-108131630D01*
X207950000Y-108238071D01*
X207949997Y-108238073D01*
X207821948Y-108366122D01*
X207821946Y-108366125D01*
X207715505Y-108512628D01*
X207715505Y-108512629D01*
X207633289Y-108673985D01*
X207633289Y-108673986D01*
X207577329Y-108846216D01*
X207549000Y-109025079D01*
X207549000Y-109206171D01*
X207577329Y-109385034D01*
X207633289Y-109557264D01*
X207710032Y-109707880D01*
X207715505Y-109718620D01*
X207715505Y-109718621D01*
X207756367Y-109774862D01*
X207821947Y-109865126D01*
X207949999Y-109993178D01*
X208096506Y-110099621D01*
X208257861Y-110181836D01*
X208430091Y-110237796D01*
X208430092Y-110237796D01*
X208430095Y-110237797D01*
X208434279Y-110238460D01*
X208504738Y-110269831D01*
X208550073Y-110332229D01*
X208558134Y-110408935D01*
X208526763Y-110479394D01*
X208464365Y-110524729D01*
X208434279Y-110532790D01*
X208430095Y-110533452D01*
X208257860Y-110589414D01*
X208096504Y-110671630D01*
X208096503Y-110671630D01*
X207950000Y-110778071D01*
X207949997Y-110778073D01*
X207821948Y-110906122D01*
X207821946Y-110906125D01*
X207715505Y-111052628D01*
X207715505Y-111052629D01*
X207633289Y-111213985D01*
X207633289Y-111213986D01*
X207577329Y-111386216D01*
X207549000Y-111565079D01*
X207549000Y-111746171D01*
X207577329Y-111925034D01*
X207633289Y-112097264D01*
X207704862Y-112237734D01*
X207715505Y-112258620D01*
X207715505Y-112258621D01*
X207756367Y-112314862D01*
X207821947Y-112405126D01*
X207949999Y-112533178D01*
X208096506Y-112639621D01*
X208257861Y-112721836D01*
X208430091Y-112777796D01*
X208430092Y-112777796D01*
X208430095Y-112777797D01*
X208434279Y-112778460D01*
X208504738Y-112809831D01*
X208550073Y-112872229D01*
X208558134Y-112948935D01*
X208526763Y-113019394D01*
X208464365Y-113064729D01*
X208434279Y-113072790D01*
X208430095Y-113073452D01*
X208257860Y-113129414D01*
X208096504Y-113211630D01*
X208096503Y-113211630D01*
X207950000Y-113318071D01*
X207949997Y-113318073D01*
X207821948Y-113446122D01*
X207821946Y-113446125D01*
X207715505Y-113592628D01*
X207715505Y-113592629D01*
X207633289Y-113753985D01*
X207633289Y-113753986D01*
X207577329Y-113926216D01*
X207549000Y-114105079D01*
X207549000Y-114286171D01*
X207577329Y-114465034D01*
X207633289Y-114637264D01*
X207704862Y-114777734D01*
X207715505Y-114798620D01*
X207715505Y-114798621D01*
X207756367Y-114854862D01*
X207821947Y-114945126D01*
X207949999Y-115073178D01*
X208096506Y-115179621D01*
X208257861Y-115261836D01*
X208430091Y-115317796D01*
X208430092Y-115317796D01*
X208430095Y-115317797D01*
X208434279Y-115318460D01*
X208504738Y-115349831D01*
X208550073Y-115412229D01*
X208558134Y-115488935D01*
X208526763Y-115559394D01*
X208464365Y-115604729D01*
X208434279Y-115612790D01*
X208430095Y-115613452D01*
X208257860Y-115669414D01*
X208096504Y-115751630D01*
X208096503Y-115751630D01*
X207950000Y-115858071D01*
X207949997Y-115858073D01*
X207821948Y-115986122D01*
X207821946Y-115986125D01*
X207715505Y-116132628D01*
X207715505Y-116132629D01*
X207633289Y-116293985D01*
X207633289Y-116293986D01*
X207577329Y-116466216D01*
X207549000Y-116645079D01*
X207549000Y-116826171D01*
X207577329Y-117005034D01*
X207633289Y-117177264D01*
X207715504Y-117338619D01*
X207821947Y-117485126D01*
X207949999Y-117613178D01*
X207993135Y-117644518D01*
X207998039Y-117648081D01*
X208046577Y-117708021D01*
X208058643Y-117784200D01*
X208031003Y-117856205D01*
X207971063Y-117904743D01*
X207910459Y-117917625D01*
X207800916Y-117917625D01*
X207800897Y-117917626D01*
X207740404Y-117924129D01*
X207603542Y-117975177D01*
X207603536Y-117975180D01*
X207486596Y-118062721D01*
X207399055Y-118179661D01*
X207399052Y-118179667D01*
X207348004Y-118316529D01*
X207341501Y-118377022D01*
X207341500Y-118377040D01*
X207341500Y-119021625D01*
X208268797Y-119021625D01*
X208233575Y-119082632D01*
X208199500Y-119209799D01*
X208199500Y-119341451D01*
X208233575Y-119468618D01*
X208268797Y-119529625D01*
X207341500Y-119529625D01*
X207341500Y-120174209D01*
X207341501Y-120174227D01*
X207348004Y-120234720D01*
X207399052Y-120371582D01*
X207399055Y-120371588D01*
X207486596Y-120488528D01*
X207603536Y-120576069D01*
X207603542Y-120576072D01*
X207740406Y-120627120D01*
X207740402Y-120627120D01*
X207800897Y-120633623D01*
X207800916Y-120633625D01*
X208445500Y-120633625D01*
X208445500Y-119706327D01*
X208506507Y-119741550D01*
X208633674Y-119775625D01*
X208765326Y-119775625D01*
X208892493Y-119741550D01*
X208953500Y-119706327D01*
X208953500Y-120633625D01*
X209598084Y-120633625D01*
X209598102Y-120633623D01*
X209658595Y-120627120D01*
X209795457Y-120576072D01*
X209795463Y-120576069D01*
X209912403Y-120488528D01*
X209999944Y-120371588D01*
X209999947Y-120371582D01*
X210050995Y-120234720D01*
X210057498Y-120174227D01*
X210057500Y-120174209D01*
X210057500Y-119529625D01*
X209130203Y-119529625D01*
X209165425Y-119468618D01*
X209199500Y-119341451D01*
X209199500Y-119209799D01*
X209165425Y-119082632D01*
X209130203Y-119021625D01*
X210057500Y-119021625D01*
X210057500Y-118377040D01*
X210057498Y-118377022D01*
X210050995Y-118316529D01*
X209999947Y-118179667D01*
X209999944Y-118179661D01*
X209912403Y-118062721D01*
X209795463Y-117975180D01*
X209795457Y-117975177D01*
X209658593Y-117924129D01*
X209658597Y-117924129D01*
X209598102Y-117917626D01*
X209598084Y-117917625D01*
X209488541Y-117917625D01*
X209414041Y-117897663D01*
X209359503Y-117843125D01*
X209339541Y-117768625D01*
X209359503Y-117694125D01*
X209400961Y-117648081D01*
X209403544Y-117646203D01*
X209449001Y-117613178D01*
X209577053Y-117485126D01*
X209683496Y-117338619D01*
X209765711Y-117177264D01*
X209821671Y-117005034D01*
X209850000Y-116826171D01*
X209850000Y-116645079D01*
X209821671Y-116466216D01*
X209779658Y-116336911D01*
X209775622Y-116259888D01*
X209810638Y-116191167D01*
X209815988Y-116185528D01*
X215394980Y-110606538D01*
X215447707Y-110515213D01*
X215475000Y-110413352D01*
X215475000Y-110307898D01*
X215475000Y-71622898D01*
X215459263Y-71564165D01*
X215447707Y-71521037D01*
X215437493Y-71503346D01*
X215394984Y-71429718D01*
X215394981Y-71429714D01*
X215394980Y-71429712D01*
X208500895Y-64535627D01*
X208500892Y-64535625D01*
X208500888Y-64535622D01*
X208409573Y-64482901D01*
X208409570Y-64482900D01*
X208382277Y-64475587D01*
X208307711Y-64455607D01*
X208307709Y-64455607D01*
X207256746Y-64455607D01*
X207182246Y-64435645D01*
X207127708Y-64381107D01*
X207107746Y-64306607D01*
X207127708Y-64232107D01*
X207136861Y-64218128D01*
X207161101Y-64185283D01*
X207161100Y-64185283D01*
X207161102Y-64185282D01*
X207204960Y-64059944D01*
X207207750Y-64030191D01*
X207207750Y-63644059D01*
X207204960Y-63614306D01*
X207204959Y-63614304D01*
X207203026Y-63605451D01*
X207204438Y-63605142D01*
X207199406Y-63537993D01*
X207232870Y-63468502D01*
X207240451Y-63460332D01*
X207283340Y-63417444D01*
X207366679Y-63276524D01*
X207408923Y-63131125D01*
X205785577Y-63131125D01*
X205827820Y-63276524D01*
X205911159Y-63417443D01*
X205911161Y-63417446D01*
X205954050Y-63460335D01*
X205992614Y-63527130D01*
X205997553Y-63572111D01*
X205996604Y-63594117D01*
X205989540Y-63614306D01*
X205986750Y-63644059D01*
X205986750Y-63822729D01*
X205986612Y-63825931D01*
X205975965Y-63859763D01*
X205966788Y-63894014D01*
X205964073Y-63897550D01*
X205963460Y-63899502D01*
X205960477Y-63902237D01*
X205943109Y-63924873D01*
X205856016Y-64011966D01*
X205789221Y-64050530D01*
X205750657Y-64055607D01*
X204511500Y-64055607D01*
X204437000Y-64035645D01*
X204382462Y-63981107D01*
X204362500Y-63906607D01*
X204362500Y-62949015D01*
X204382462Y-62874515D01*
X204406137Y-62843660D01*
X204626672Y-62623125D01*
X205785577Y-62623125D01*
X206343250Y-62623125D01*
X206343250Y-62090585D01*
X206851250Y-62090585D01*
X206851250Y-62623125D01*
X207408922Y-62623125D01*
X207366679Y-62477725D01*
X207283340Y-62336806D01*
X207283338Y-62336803D01*
X207167571Y-62221036D01*
X207167568Y-62221034D01*
X207026649Y-62137695D01*
X206869418Y-62092015D01*
X206851251Y-62090584D01*
X206851250Y-62090585D01*
X206343250Y-62090585D01*
X206343248Y-62090584D01*
X206325081Y-62092015D01*
X206167850Y-62137695D01*
X206026931Y-62221034D01*
X206026928Y-62221036D01*
X205911161Y-62336803D01*
X205911159Y-62336806D01*
X205827820Y-62477725D01*
X205785577Y-62623125D01*
X204626672Y-62623125D01*
X206549454Y-60700342D01*
X206616247Y-60661780D01*
X206654803Y-60656703D01*
X209540918Y-60656702D01*
X209642779Y-60629409D01*
X209734104Y-60576682D01*
X214352519Y-55958267D01*
X214393207Y-55887793D01*
X214405246Y-55866941D01*
X214432539Y-55765081D01*
X214432539Y-45694783D01*
X214432540Y-45694770D01*
X214432540Y-45577315D01*
X214432540Y-45577312D01*
X214405246Y-45475452D01*
X214369347Y-45413273D01*
X214352519Y-45384126D01*
X214277952Y-45309559D01*
X214277949Y-45309557D01*
X213605913Y-44637520D01*
X213605910Y-44637518D01*
X213605906Y-44637515D01*
X213514591Y-44584794D01*
X213514588Y-44584793D01*
X213475151Y-44574226D01*
X213412729Y-44557500D01*
X213412727Y-44557500D01*
X209371096Y-44557500D01*
X209265642Y-44557500D01*
X209265639Y-44557500D01*
X209163777Y-44584794D01*
X209072462Y-44637515D01*
X209072458Y-44637518D01*
X207828986Y-45880988D01*
X207772845Y-45916265D01*
X207758374Y-45921329D01*
X207758362Y-45921335D01*
X207649101Y-46001973D01*
X207649098Y-46001976D01*
X207568457Y-46111241D01*
X207523603Y-46239429D01*
X207520750Y-46269849D01*
X207520750Y-46272625D01*
X207520593Y-46273209D01*
X207520587Y-46273346D01*
X207520557Y-46273344D01*
X207500788Y-46347125D01*
X207446250Y-46401663D01*
X207371750Y-46421625D01*
X207083991Y-46421625D01*
X207009491Y-46401663D01*
X206954953Y-46347125D01*
X206934991Y-46272625D01*
X206943352Y-46223414D01*
X206947572Y-46211351D01*
X206960991Y-46173004D01*
X206963750Y-46143582D01*
X206963749Y-45768669D01*
X206960991Y-45739246D01*
X206945433Y-45694783D01*
X206917632Y-45615332D01*
X206912414Y-45605459D01*
X206915555Y-45603798D01*
X206894686Y-45550621D01*
X206893750Y-45533943D01*
X206893750Y-44469867D01*
X206913712Y-44395367D01*
X206937387Y-44364512D01*
X209004072Y-42297826D01*
X209070865Y-42259264D01*
X209132733Y-42256021D01*
X209300704Y-42282625D01*
X209300709Y-42282625D01*
X209481792Y-42282625D01*
X209481796Y-42282625D01*
X209660659Y-42254296D01*
X209832889Y-42198336D01*
X209994244Y-42116121D01*
X210140751Y-42009678D01*
X210268803Y-41881626D01*
X210303706Y-41833586D01*
X210363645Y-41785047D01*
X210439823Y-41772981D01*
X210511829Y-41800621D01*
X210560368Y-41860560D01*
X210573250Y-41921165D01*
X210573250Y-42030709D01*
X210573251Y-42030727D01*
X210579754Y-42091220D01*
X210630802Y-42228082D01*
X210630805Y-42228088D01*
X210718346Y-42345028D01*
X210835286Y-42432569D01*
X210835292Y-42432572D01*
X210972156Y-42483620D01*
X210972152Y-42483620D01*
X211032647Y-42490123D01*
X211032666Y-42490125D01*
X211677250Y-42490125D01*
X211677250Y-41562827D01*
X211738257Y-41598050D01*
X211865424Y-41632125D01*
X211997076Y-41632125D01*
X212124243Y-41598050D01*
X212185250Y-41562827D01*
X212185250Y-42490125D01*
X212829834Y-42490125D01*
X212829852Y-42490123D01*
X212890345Y-42483620D01*
X213027207Y-42432572D01*
X213027213Y-42432569D01*
X213144153Y-42345028D01*
X213231694Y-42228088D01*
X213231697Y-42228082D01*
X213282745Y-42091220D01*
X213289248Y-42030727D01*
X213289250Y-42030709D01*
X213289250Y-41386125D01*
X212361953Y-41386125D01*
X212397175Y-41325118D01*
X212431250Y-41197951D01*
X212431250Y-41066299D01*
X212397175Y-40939132D01*
X212361953Y-40878125D01*
X213289250Y-40878125D01*
X213289250Y-40233540D01*
X213289248Y-40233522D01*
X213282745Y-40173029D01*
X213231697Y-40036167D01*
X213231694Y-40036161D01*
X213144153Y-39919221D01*
X213027213Y-39831680D01*
X213027207Y-39831677D01*
X212890343Y-39780629D01*
X212890347Y-39780629D01*
X212829852Y-39774126D01*
X212829834Y-39774125D01*
X212185250Y-39774125D01*
X212185250Y-40701422D01*
X212124243Y-40666200D01*
X211997076Y-40632125D01*
X211865424Y-40632125D01*
X211738257Y-40666200D01*
X211677250Y-40701422D01*
X211677250Y-39774125D01*
X211032666Y-39774125D01*
X211032647Y-39774126D01*
X210972154Y-39780629D01*
X210835292Y-39831677D01*
X210835286Y-39831680D01*
X210718346Y-39919221D01*
X210630805Y-40036161D01*
X210630802Y-40036167D01*
X210579754Y-40173029D01*
X210573251Y-40233522D01*
X210573250Y-40233540D01*
X210573250Y-40343084D01*
X210553288Y-40417584D01*
X210498750Y-40472122D01*
X210424250Y-40492084D01*
X210349750Y-40472122D01*
X210303706Y-40430664D01*
X210294203Y-40417584D01*
X210268803Y-40382624D01*
X210140751Y-40254572D01*
X209994244Y-40148129D01*
X209832889Y-40065914D01*
X209660659Y-40009954D01*
X209481796Y-39981625D01*
X209300704Y-39981625D01*
X209140492Y-40007000D01*
X209121841Y-40009954D01*
X208949610Y-40065914D01*
X208788254Y-40148130D01*
X208788253Y-40148130D01*
X208641750Y-40254571D01*
X208641747Y-40254573D01*
X208513698Y-40382622D01*
X208513696Y-40382625D01*
X208407255Y-40529128D01*
X208407255Y-40529129D01*
X208325039Y-40690485D01*
X208291656Y-40793230D01*
X208269079Y-40862716D01*
X208240750Y-41041579D01*
X208240750Y-41222671D01*
X208267353Y-41390635D01*
X208259290Y-41467340D01*
X208225546Y-41519302D01*
X205902739Y-43842110D01*
X205859137Y-43917633D01*
X205859136Y-43917635D01*
X205830267Y-43967636D01*
X205792750Y-44107648D01*
X205792750Y-45533943D01*
X205773649Y-45605228D01*
X205774086Y-45605459D01*
X205773074Y-45607371D01*
X205772788Y-45608443D01*
X205771340Y-45610654D01*
X205768870Y-45615326D01*
X205745272Y-45682766D01*
X205725512Y-45739239D01*
X205725508Y-45739250D01*
X205722750Y-45768659D01*
X205722750Y-46143577D01*
X205722751Y-46143587D01*
X205725508Y-46173003D01*
X205725510Y-46173010D01*
X205768867Y-46296917D01*
X205768868Y-46296918D01*
X205828448Y-46377646D01*
X205856626Y-46449442D01*
X205845131Y-46525709D01*
X205828448Y-46554604D01*
X205768869Y-46635329D01*
X205725508Y-46759250D01*
X205722750Y-46788659D01*
X205722750Y-47163577D01*
X205722752Y-47163600D01*
X205725508Y-47193003D01*
X205725510Y-47193010D01*
X205768867Y-47316917D01*
X205768868Y-47316919D01*
X205827215Y-47395975D01*
X205846827Y-47422548D01*
X205952456Y-47500506D01*
X206076371Y-47543866D01*
X206105793Y-47546625D01*
X206580706Y-47546624D01*
X206610129Y-47543866D01*
X206646938Y-47530986D01*
X206696150Y-47522625D01*
X207371750Y-47522625D01*
X207446250Y-47542587D01*
X207500788Y-47597125D01*
X207520750Y-47671625D01*
X207520750Y-47678400D01*
X207523603Y-47708820D01*
X207568457Y-47837008D01*
X207649098Y-47946273D01*
X207649101Y-47946276D01*
X207758366Y-48026917D01*
X207758367Y-48026917D01*
X207758368Y-48026918D01*
X207886551Y-48071771D01*
X207916984Y-48074625D01*
X207916991Y-48074625D01*
X208325509Y-48074625D01*
X208325516Y-48074625D01*
X208355949Y-48071771D01*
X208484132Y-48026918D01*
X208593400Y-47946275D01*
X208636364Y-47888059D01*
X208696665Y-47839971D01*
X208772931Y-47828475D01*
X208844728Y-47856652D01*
X208876136Y-47888060D01*
X208919099Y-47946274D01*
X208919101Y-47946276D01*
X209028366Y-48026917D01*
X209028367Y-48026917D01*
X209028368Y-48026918D01*
X209156551Y-48071771D01*
X209186984Y-48074625D01*
X209186991Y-48074625D01*
X209595509Y-48074625D01*
X209595516Y-48074625D01*
X209625949Y-48071771D01*
X209754132Y-48026918D01*
X209863400Y-47946275D01*
X209906364Y-47888059D01*
X209919114Y-47877891D01*
X209928201Y-47864344D01*
X209948760Y-47854249D01*
X209966665Y-47839971D01*
X209982792Y-47837540D01*
X209997434Y-47830351D01*
X210020286Y-47831888D01*
X210042931Y-47828475D01*
X210058112Y-47834433D01*
X210074389Y-47835528D01*
X210089968Y-47846935D01*
X210114728Y-47856652D01*
X210138444Y-47878489D01*
X210142482Y-47883109D01*
X210189100Y-47946275D01*
X210213276Y-47964118D01*
X210223944Y-47976324D01*
X210234036Y-47996880D01*
X210248316Y-48014784D01*
X210252372Y-48034223D01*
X210257937Y-48045557D01*
X210257156Y-48057153D01*
X210260750Y-48074373D01*
X210260750Y-50074854D01*
X210288044Y-50176716D01*
X210340765Y-50268031D01*
X210340768Y-50268035D01*
X210340770Y-50268038D01*
X211697051Y-51624318D01*
X212788859Y-52716126D01*
X212827423Y-52782921D01*
X212832500Y-52821485D01*
X212832500Y-55153770D01*
X212812538Y-55228270D01*
X212788859Y-55259129D01*
X212586109Y-55461879D01*
X212569121Y-55471686D01*
X212555250Y-55485558D01*
X212536301Y-55490635D01*
X212519314Y-55500443D01*
X212499698Y-55500443D01*
X212480750Y-55505520D01*
X212461802Y-55500443D01*
X212442186Y-55500443D01*
X212425198Y-55490635D01*
X212406250Y-55485558D01*
X212392378Y-55471686D01*
X212375391Y-55461879D01*
X212365583Y-55444891D01*
X212351712Y-55431020D01*
X212346634Y-55412071D01*
X212336827Y-55395084D01*
X212331750Y-55356520D01*
X212331750Y-55274373D01*
X212351712Y-55199873D01*
X212392273Y-55154486D01*
X212403400Y-55146275D01*
X212484043Y-55037007D01*
X212528896Y-54908824D01*
X212531750Y-54878391D01*
X212531750Y-53469859D01*
X212528896Y-53439426D01*
X212484043Y-53311243D01*
X212481855Y-53308279D01*
X212403401Y-53201976D01*
X212403398Y-53201973D01*
X212294133Y-53121332D01*
X212234292Y-53100393D01*
X212165949Y-53076479D01*
X212165947Y-53076478D01*
X212165945Y-53076478D01*
X212135525Y-53073625D01*
X212135516Y-53073625D01*
X211726984Y-53073625D01*
X211726974Y-53073625D01*
X211696554Y-53076478D01*
X211568366Y-53121332D01*
X211459101Y-53201973D01*
X211459098Y-53201976D01*
X211416135Y-53260190D01*
X211355834Y-53308279D01*
X211279567Y-53319774D01*
X211207771Y-53291596D01*
X211176365Y-53260190D01*
X211133401Y-53201976D01*
X211133398Y-53201973D01*
X211024133Y-53121332D01*
X210964292Y-53100393D01*
X210895949Y-53076479D01*
X210895947Y-53076478D01*
X210895945Y-53076478D01*
X210865525Y-53073625D01*
X210865516Y-53073625D01*
X210456984Y-53073625D01*
X210456974Y-53073625D01*
X210426554Y-53076478D01*
X210298366Y-53121332D01*
X210189101Y-53201973D01*
X210189098Y-53201976D01*
X210146135Y-53260190D01*
X210085834Y-53308279D01*
X210009567Y-53319774D01*
X209937771Y-53291596D01*
X209906365Y-53260190D01*
X209863401Y-53201976D01*
X209863398Y-53201973D01*
X209754133Y-53121332D01*
X209694292Y-53100393D01*
X209625949Y-53076479D01*
X209625947Y-53076478D01*
X209625945Y-53076478D01*
X209595525Y-53073625D01*
X209595516Y-53073625D01*
X209186984Y-53073625D01*
X209186974Y-53073625D01*
X209156554Y-53076478D01*
X209028366Y-53121332D01*
X208919101Y-53201973D01*
X208919098Y-53201976D01*
X208876135Y-53260190D01*
X208815834Y-53308279D01*
X208739567Y-53319774D01*
X208667771Y-53291596D01*
X208636365Y-53260190D01*
X208593401Y-53201976D01*
X208593398Y-53201973D01*
X208484133Y-53121332D01*
X208424292Y-53100393D01*
X208355949Y-53076479D01*
X208355947Y-53076478D01*
X208355945Y-53076478D01*
X208325525Y-53073625D01*
X208325516Y-53073625D01*
X207916984Y-53073625D01*
X207916974Y-53073625D01*
X207886554Y-53076478D01*
X207758366Y-53121332D01*
X207649101Y-53201973D01*
X207649098Y-53201976D01*
X207568457Y-53311241D01*
X207523603Y-53439429D01*
X207520750Y-53469849D01*
X207520750Y-54878400D01*
X207523603Y-54908820D01*
X207523603Y-54908821D01*
X207534389Y-54939646D01*
X207542750Y-54988857D01*
X207542750Y-55026178D01*
X207522788Y-55100678D01*
X207468250Y-55155216D01*
X207393750Y-55175178D01*
X207393070Y-55175081D01*
X207387250Y-55179451D01*
X207387250Y-56322171D01*
X207367288Y-56396671D01*
X207343609Y-56427530D01*
X207259730Y-56511408D01*
X207208816Y-56599595D01*
X207180673Y-56648341D01*
X207139750Y-56801068D01*
X207139750Y-56915936D01*
X207139750Y-56959183D01*
X207146683Y-56985058D01*
X207180673Y-57111909D01*
X207259730Y-57248841D01*
X207371534Y-57360645D01*
X207508466Y-57439702D01*
X207661193Y-57480625D01*
X207819307Y-57480625D01*
X207972034Y-57439702D01*
X208108966Y-57360645D01*
X208220770Y-57248841D01*
X208299827Y-57111909D01*
X208299827Y-57111908D01*
X208304710Y-57103451D01*
X208306268Y-57104350D01*
X208329857Y-57069041D01*
X208533760Y-56865140D01*
X208606234Y-56739610D01*
X208616489Y-56701337D01*
X208643750Y-56599600D01*
X208643750Y-56347020D01*
X208652112Y-56297807D01*
X208658656Y-56279106D01*
X208670960Y-56243944D01*
X208673750Y-56214191D01*
X208673750Y-55768059D01*
X208670960Y-55738306D01*
X208652111Y-55684438D01*
X208643750Y-55635227D01*
X208643750Y-55225993D01*
X208663712Y-55151493D01*
X208718250Y-55096955D01*
X208792750Y-55076993D01*
X208867250Y-55096955D01*
X208897436Y-55119965D01*
X208905716Y-55128140D01*
X208919100Y-55146275D01*
X208938833Y-55160838D01*
X208946436Y-55168345D01*
X208960710Y-55192709D01*
X208978316Y-55214784D01*
X208980900Y-55227170D01*
X208985425Y-55234893D01*
X208985516Y-55249292D01*
X208990750Y-55274373D01*
X208990750Y-57024133D01*
X208970788Y-57098633D01*
X208947109Y-57129492D01*
X208262137Y-57814464D01*
X208195342Y-57853028D01*
X208156778Y-57858105D01*
X205661642Y-57858105D01*
X205661626Y-57858104D01*
X205652497Y-57858104D01*
X205547043Y-57858104D01*
X205445183Y-57885398D01*
X205445182Y-57885398D01*
X205445180Y-57885399D01*
X205353859Y-57938123D01*
X205353856Y-57938125D01*
X205279288Y-58012694D01*
X203750859Y-59541122D01*
X203737284Y-59548959D01*
X203726810Y-59560622D01*
X203704440Y-59567921D01*
X203684064Y-59579686D01*
X203668389Y-59579686D01*
X203653487Y-59584549D01*
X203630465Y-59579686D01*
X203606936Y-59579686D01*
X203593361Y-59571848D01*
X203578024Y-59568609D01*
X203560517Y-59552886D01*
X203540141Y-59541122D01*
X203532303Y-59527547D01*
X203520641Y-59517073D01*
X203514696Y-59497050D01*
X203501577Y-59474327D01*
X203496714Y-59443750D01*
X203496500Y-59439763D01*
X203496500Y-59310291D01*
X203493710Y-59280538D01*
X203486909Y-59261103D01*
X203485772Y-59239912D01*
X203489505Y-59222235D01*
X203488156Y-59204225D01*
X203497337Y-59185158D01*
X203501712Y-59164449D01*
X203513782Y-59151008D01*
X203521620Y-59134734D01*
X203529201Y-59126564D01*
X203572090Y-59083676D01*
X203655429Y-58942756D01*
X203697673Y-58797357D01*
X201511000Y-58797357D01*
X201436500Y-58777395D01*
X201381962Y-58722857D01*
X201362000Y-58648357D01*
X201362000Y-58543357D01*
X201257000Y-58543357D01*
X201182500Y-58523395D01*
X201127962Y-58468857D01*
X201108000Y-58394357D01*
X201108000Y-57756817D01*
X201616000Y-57756817D01*
X201616000Y-58289357D01*
X202632000Y-58289357D01*
X202632000Y-57756817D01*
X203140000Y-57756817D01*
X203140000Y-58289357D01*
X203697672Y-58289357D01*
X203655429Y-58143957D01*
X203572090Y-58003038D01*
X203572088Y-58003035D01*
X203456321Y-57887268D01*
X203456318Y-57887266D01*
X203315399Y-57803927D01*
X203158168Y-57758247D01*
X203140001Y-57756816D01*
X203140000Y-57756817D01*
X202632000Y-57756817D01*
X202631998Y-57756816D01*
X202613831Y-57758247D01*
X202456600Y-57803927D01*
X202315681Y-57887266D01*
X202315678Y-57887268D01*
X202229359Y-57973588D01*
X202162564Y-58012152D01*
X202085436Y-58012152D01*
X202018641Y-57973588D01*
X201932321Y-57887268D01*
X201932318Y-57887266D01*
X201791399Y-57803927D01*
X201634168Y-57758247D01*
X201616001Y-57756816D01*
X201616000Y-57756817D01*
X201108000Y-57756817D01*
X201107998Y-57756816D01*
X201089830Y-57758247D01*
X200953070Y-57797980D01*
X200875959Y-57799595D01*
X200808371Y-57762438D01*
X200768416Y-57696466D01*
X200762500Y-57654896D01*
X200762500Y-57040610D01*
X200767577Y-57021662D01*
X200767577Y-57002046D01*
X200777384Y-56985058D01*
X200782462Y-56966110D01*
X200806138Y-56935254D01*
X200927252Y-56814139D01*
X200994047Y-56775576D01*
X201032611Y-56770499D01*
X201236864Y-56770499D01*
X201236872Y-56770499D01*
X201296483Y-56764091D01*
X201392447Y-56728298D01*
X201431329Y-56713797D01*
X201431333Y-56713795D01*
X201518770Y-56648339D01*
X201546546Y-56627546D01*
X201589671Y-56569938D01*
X201632795Y-56512333D01*
X201632797Y-56512329D01*
X201664425Y-56427530D01*
X201683091Y-56377483D01*
X201689088Y-56321705D01*
X201689499Y-56317885D01*
X201689499Y-56317882D01*
X201689500Y-56317873D01*
X201689500Y-56245125D01*
X206346711Y-56245125D01*
X206348140Y-56263295D01*
X206393820Y-56420525D01*
X206477159Y-56561443D01*
X206477161Y-56561446D01*
X206592928Y-56677213D01*
X206592931Y-56677215D01*
X206733850Y-56760554D01*
X206855801Y-56795985D01*
X206879250Y-56630967D01*
X206879250Y-56245125D01*
X206346711Y-56245125D01*
X201689500Y-56245125D01*
X201689499Y-55822128D01*
X201683091Y-55762517D01*
X201673620Y-55737124D01*
X206346710Y-55737124D01*
X206346711Y-55737125D01*
X206879250Y-55737125D01*
X206879250Y-55179451D01*
X206879249Y-55179450D01*
X206733859Y-55221691D01*
X206733849Y-55221696D01*
X206592934Y-55305032D01*
X206592928Y-55305036D01*
X206477161Y-55420803D01*
X206477159Y-55420806D01*
X206393820Y-55561724D01*
X206348140Y-55718954D01*
X206346710Y-55737124D01*
X201673620Y-55737124D01*
X201665830Y-55716238D01*
X201632797Y-55627670D01*
X201632795Y-55627666D01*
X201546547Y-55512455D01*
X201546544Y-55512452D01*
X201431333Y-55426204D01*
X201431331Y-55426203D01*
X201319800Y-55384605D01*
X201256973Y-55339866D01*
X201224933Y-55269708D01*
X201232264Y-55192929D01*
X201277003Y-55130102D01*
X201319799Y-55105394D01*
X201431331Y-55063796D01*
X201431331Y-55063795D01*
X201431333Y-55063795D01*
X201531436Y-54988857D01*
X201546546Y-54977546D01*
X201620767Y-54878400D01*
X201632795Y-54862333D01*
X201632797Y-54862329D01*
X201653174Y-54807693D01*
X201683091Y-54727483D01*
X201684823Y-54711370D01*
X201689499Y-54667885D01*
X201689499Y-54667882D01*
X201689500Y-54667873D01*
X201689499Y-54172128D01*
X201683091Y-54112517D01*
X201668588Y-54073633D01*
X201632797Y-53977670D01*
X201632795Y-53977666D01*
X201546547Y-53862455D01*
X201546544Y-53862452D01*
X201431333Y-53776204D01*
X201431329Y-53776202D01*
X201296482Y-53725908D01*
X201236885Y-53719500D01*
X201236873Y-53719500D01*
X200879794Y-53719500D01*
X200860846Y-53714423D01*
X200841230Y-53714423D01*
X200824242Y-53704615D01*
X200805294Y-53699538D01*
X200774435Y-53675859D01*
X200750141Y-53651565D01*
X200711577Y-53584770D01*
X200706500Y-53546206D01*
X200706500Y-48172551D01*
X200726462Y-48098051D01*
X200750141Y-48067192D01*
X201153484Y-47663849D01*
X201603335Y-47213999D01*
X201659617Y-47116516D01*
X201688750Y-47007789D01*
X201688750Y-46895226D01*
X201688750Y-44418918D01*
X201708712Y-44344418D01*
X201732387Y-44313563D01*
X202174335Y-43871616D01*
X202230617Y-43774134D01*
X202259750Y-43665406D01*
X202259750Y-43552844D01*
X202259750Y-43337643D01*
X202279712Y-43263143D01*
X202303391Y-43232284D01*
X202304396Y-43231277D01*
X202304400Y-43231275D01*
X202385043Y-43122007D01*
X202429896Y-42993824D01*
X202432750Y-42963391D01*
X202432750Y-41829859D01*
X202429896Y-41799426D01*
X202385043Y-41671243D01*
X202382574Y-41667898D01*
X202304401Y-41561976D01*
X202304398Y-41561973D01*
X202195133Y-41481332D01*
X202135292Y-41460393D01*
X202066949Y-41436479D01*
X202066947Y-41436478D01*
X202066945Y-41436478D01*
X202036525Y-41433625D01*
X202036516Y-41433625D01*
X201627984Y-41433625D01*
X201610524Y-41435262D01*
X201591956Y-41437003D01*
X201515918Y-41424081D01*
X201490333Y-41409097D01*
X201349277Y-41306370D01*
X201329356Y-41281713D01*
X201307183Y-41259071D01*
X201305375Y-41252031D01*
X201300806Y-41246376D01*
X201295882Y-41215063D01*
X201288001Y-41184367D01*
X201289941Y-41177271D01*
X201288827Y-41170184D01*
X201299353Y-41142853D01*
X201307942Y-41111449D01*
X201309133Y-41109385D01*
X201314194Y-41104322D01*
X201316549Y-41098210D01*
X201336076Y-41082433D01*
X201363660Y-41054840D01*
X201373492Y-41052203D01*
X201376543Y-41049739D01*
X201391385Y-41047405D01*
X201438156Y-41034864D01*
X201487390Y-41043224D01*
X201597551Y-41081771D01*
X201597552Y-41081771D01*
X201597555Y-41081772D01*
X201625220Y-41084365D01*
X201627984Y-41084625D01*
X201627991Y-41084625D01*
X202036509Y-41084625D01*
X202036516Y-41084625D01*
X202066949Y-41081771D01*
X202195132Y-41036918D01*
X202304400Y-40956275D01*
X202385043Y-40847007D01*
X202390261Y-40837135D01*
X202392009Y-40838059D01*
X202427576Y-40785891D01*
X202497065Y-40752425D01*
X202573978Y-40758187D01*
X202630128Y-40793468D01*
X202744766Y-40908106D01*
X202744769Y-40908108D01*
X202884605Y-40990806D01*
X203040613Y-41036131D01*
X203040617Y-41036132D01*
X203073000Y-41038680D01*
X203581000Y-41038680D01*
X203613382Y-41036132D01*
X203613386Y-41036131D01*
X203769394Y-40990806D01*
X203769395Y-40990806D01*
X203909230Y-40908108D01*
X203909233Y-40908106D01*
X204024106Y-40793233D01*
X204024108Y-40793230D01*
X204106806Y-40653395D01*
X204106806Y-40653394D01*
X204147015Y-40515000D01*
X203581000Y-40515000D01*
X203581000Y-41038680D01*
X203073000Y-41038680D01*
X203073000Y-40410000D01*
X203092962Y-40335500D01*
X203147500Y-40280962D01*
X203222000Y-40261000D01*
X203327000Y-40261000D01*
X203327000Y-40156000D01*
X203346962Y-40081500D01*
X203401500Y-40026962D01*
X203476000Y-40007000D01*
X204147014Y-40007000D01*
X204106806Y-39868605D01*
X204106806Y-39868604D01*
X204024108Y-39728769D01*
X204024106Y-39728766D01*
X203961297Y-39665957D01*
X203922733Y-39599162D01*
X203922733Y-39522034D01*
X203926018Y-39511385D01*
X203944741Y-39457879D01*
X203947500Y-39428457D01*
X203947499Y-39053544D01*
X203944741Y-39024121D01*
X203944739Y-39024114D01*
X203901382Y-38900207D01*
X203901381Y-38900205D01*
X203823425Y-38794580D01*
X203823423Y-38794577D01*
X203734807Y-38729175D01*
X203717796Y-38716620D01*
X203717794Y-38716619D01*
X203593879Y-38673259D01*
X203593876Y-38673258D01*
X203593874Y-38673258D01*
X203564466Y-38670500D01*
X203564457Y-38670500D01*
X203384610Y-38670500D01*
X203310110Y-38650538D01*
X203279251Y-38626859D01*
X202981141Y-38328748D01*
X202971333Y-38311760D01*
X202957462Y-38297889D01*
X202952384Y-38278940D01*
X202942577Y-38261953D01*
X202937500Y-38223389D01*
X202937500Y-38001374D01*
X202957462Y-37926874D01*
X203012000Y-37872336D01*
X203086500Y-37852374D01*
X203252796Y-37852374D01*
X203327296Y-37872336D01*
X203372076Y-37912081D01*
X203374094Y-37914777D01*
X203374095Y-37914778D01*
X203491036Y-38002319D01*
X203491042Y-38002322D01*
X203627906Y-38053370D01*
X203627902Y-38053370D01*
X203688397Y-38059873D01*
X203688416Y-38059875D01*
X203783000Y-38059875D01*
X203783000Y-37770125D01*
X203795695Y-37709942D01*
X203834585Y-37621866D01*
X203837500Y-37596740D01*
X203837499Y-36975872D01*
X203857461Y-36901375D01*
X203911999Y-36846837D01*
X203986499Y-36826875D01*
X204142000Y-36826875D01*
X204216500Y-36846837D01*
X204271038Y-36901375D01*
X204291000Y-36975875D01*
X204291000Y-38059875D01*
X204385584Y-38059875D01*
X204385602Y-38059873D01*
X204446095Y-38053370D01*
X204582957Y-38002322D01*
X204582963Y-38002319D01*
X204699903Y-37914778D01*
X204787444Y-37797838D01*
X204787447Y-37797832D01*
X204838495Y-37660970D01*
X204844998Y-37600477D01*
X204845000Y-37600459D01*
X204845000Y-37516133D01*
X204853000Y-37486276D01*
X204853000Y-36621935D01*
X204866940Y-36646080D01*
X204922795Y-36701935D01*
X204991204Y-36741431D01*
X205067504Y-36761875D01*
X205146496Y-36761875D01*
X205222796Y-36741431D01*
X205291205Y-36701935D01*
X205347060Y-36646080D01*
X205361000Y-36621935D01*
X205361000Y-37439099D01*
X205401020Y-37431138D01*
X205401024Y-37431137D01*
X205584459Y-37355156D01*
X205584471Y-37355150D01*
X205749560Y-37244840D01*
X205749565Y-37244836D01*
X205889961Y-37104440D01*
X205889965Y-37104435D01*
X206000275Y-36939346D01*
X206000281Y-36939334D01*
X206076262Y-36755899D01*
X206076263Y-36755895D01*
X206115000Y-36561154D01*
X206115000Y-36165875D01*
X205407000Y-36165875D01*
X205407000Y-35657875D01*
X206115000Y-35657875D01*
X206115000Y-35262595D01*
X206076263Y-35067854D01*
X206076262Y-35067850D01*
X206000281Y-34884415D01*
X206000275Y-34884403D01*
X205889965Y-34719314D01*
X205889961Y-34719309D01*
X205749565Y-34578913D01*
X205749560Y-34578909D01*
X205584471Y-34468599D01*
X205584462Y-34468594D01*
X205401026Y-34392613D01*
X205401018Y-34392611D01*
X205361000Y-34384649D01*
X205361000Y-35201814D01*
X205347060Y-35177670D01*
X205291205Y-35121815D01*
X205222796Y-35082319D01*
X205146496Y-35061875D01*
X205067504Y-35061875D01*
X204991204Y-35082319D01*
X204922795Y-35121815D01*
X204866940Y-35177670D01*
X204853000Y-35201814D01*
X204853000Y-34384650D01*
X204852999Y-34384649D01*
X204812981Y-34392611D01*
X204812973Y-34392613D01*
X204629537Y-34468594D01*
X204629528Y-34468599D01*
X204464439Y-34578909D01*
X204464434Y-34578913D01*
X204324038Y-34719309D01*
X204324034Y-34719314D01*
X204213724Y-34884403D01*
X204213718Y-34884415D01*
X204137737Y-35067850D01*
X204136712Y-35071230D01*
X204135591Y-35073031D01*
X204134936Y-35074614D01*
X204134674Y-35074505D01*
X204095976Y-35136723D01*
X204027951Y-35173073D01*
X203950864Y-35170542D01*
X203888773Y-35133321D01*
X203876862Y-35121410D01*
X203802638Y-35078557D01*
X203719853Y-35056375D01*
X203634147Y-35056375D01*
X203551362Y-35078557D01*
X203551360Y-35078557D01*
X203551360Y-35078558D01*
X203477137Y-35121410D01*
X203416534Y-35182013D01*
X203404907Y-35202152D01*
X203350368Y-35256688D01*
X203275868Y-35276649D01*
X203201368Y-35256685D01*
X203170512Y-35233008D01*
X202453731Y-34516227D01*
X202341770Y-34451586D01*
X202216892Y-34418125D01*
X202216891Y-34418125D01*
X199549892Y-34418125D01*
X199420609Y-34418125D01*
X199295731Y-34451586D01*
X199295729Y-34451586D01*
X199295729Y-34451587D01*
X199183768Y-34516227D01*
X198426729Y-35273265D01*
X198359934Y-35311829D01*
X198282806Y-35311829D01*
X198216011Y-35273265D01*
X198192332Y-35242405D01*
X198157465Y-35182013D01*
X198096862Y-35121410D01*
X198022638Y-35078557D01*
X197939853Y-35056375D01*
X197854147Y-35056375D01*
X197771362Y-35078557D01*
X197771360Y-35078557D01*
X197771360Y-35078558D01*
X197697136Y-35121411D01*
X197685223Y-35133324D01*
X197618427Y-35171886D01*
X197541299Y-35171884D01*
X197474505Y-35133318D01*
X197439269Y-35074529D01*
X197439064Y-35074614D01*
X197438491Y-35073231D01*
X197437284Y-35071217D01*
X197436263Y-35067852D01*
X197360281Y-34884415D01*
X197360275Y-34884403D01*
X197249965Y-34719314D01*
X197249961Y-34719309D01*
X197109565Y-34578913D01*
X197109560Y-34578909D01*
X196944471Y-34468599D01*
X196944462Y-34468594D01*
X196761026Y-34392613D01*
X196761018Y-34392611D01*
X196721000Y-34384649D01*
X196721000Y-35201814D01*
X196707060Y-35177670D01*
X196651205Y-35121815D01*
X196582796Y-35082319D01*
X196506496Y-35061875D01*
X196427504Y-35061875D01*
X196351204Y-35082319D01*
X196282795Y-35121815D01*
X196226940Y-35177670D01*
X196213000Y-35201814D01*
X196213000Y-34384650D01*
X196212999Y-34384649D01*
X196172981Y-34392611D01*
X196172973Y-34392613D01*
X195989537Y-34468594D01*
X195989528Y-34468599D01*
X195824439Y-34578909D01*
X195824434Y-34578913D01*
X195684038Y-34719309D01*
X195684034Y-34719314D01*
X195573724Y-34884403D01*
X195573718Y-34884415D01*
X195497737Y-35067850D01*
X195497736Y-35067854D01*
X195459000Y-35262595D01*
X195459000Y-35657875D01*
X196167000Y-35657875D01*
X196167000Y-36165875D01*
X195459000Y-36165875D01*
X195459000Y-36561154D01*
X195497736Y-36755895D01*
X195497737Y-36755899D01*
X195573718Y-36939334D01*
X195573724Y-36939346D01*
X195684034Y-37104435D01*
X195684038Y-37104440D01*
X195824434Y-37244836D01*
X195824439Y-37244840D01*
X195989528Y-37355150D01*
X195989540Y-37355156D01*
X196172975Y-37431137D01*
X196172979Y-37431138D01*
X196212999Y-37439099D01*
X196213000Y-37439098D01*
X196213000Y-36621935D01*
X196226940Y-36646080D01*
X196282795Y-36701935D01*
X196351204Y-36741431D01*
X196427504Y-36761875D01*
X196506496Y-36761875D01*
X196582796Y-36741431D01*
X196651205Y-36701935D01*
X196707060Y-36646080D01*
X196746556Y-36577671D01*
X196747841Y-36572875D01*
X197388000Y-36572875D01*
X197462500Y-36592837D01*
X197517038Y-36647375D01*
X197537000Y-36721875D01*
X197537000Y-36826875D01*
X197587500Y-36826875D01*
X197662000Y-36846837D01*
X197716538Y-36901375D01*
X197736500Y-36975875D01*
X197736500Y-37521922D01*
X197731423Y-37540869D01*
X197731423Y-37560486D01*
X197721615Y-37577473D01*
X197716538Y-37596422D01*
X197692859Y-37627281D01*
X197537359Y-37782781D01*
X197470564Y-37821345D01*
X197393436Y-37821345D01*
X197326641Y-37782781D01*
X197288077Y-37715986D01*
X197283000Y-37677422D01*
X197283000Y-37080875D01*
X196721000Y-37080875D01*
X196721000Y-37472171D01*
X196729000Y-37516133D01*
X196729000Y-37600459D01*
X196729001Y-37600477D01*
X196735504Y-37660970D01*
X196786552Y-37797832D01*
X196786555Y-37797838D01*
X196874096Y-37914778D01*
X196991036Y-38002319D01*
X196991038Y-38002320D01*
X197011817Y-38010071D01*
X197074643Y-38054810D01*
X197106682Y-38124969D01*
X197099350Y-38201748D01*
X197065104Y-38255035D01*
X196430156Y-38889984D01*
X196363361Y-38928548D01*
X196324797Y-38933625D01*
X195642144Y-38933625D01*
X195553686Y-38944247D01*
X195412908Y-38999763D01*
X195412908Y-38999764D01*
X195292329Y-39091201D01*
X195292326Y-39091204D01*
X195200889Y-39211783D01*
X195200888Y-39211783D01*
X195145372Y-39352561D01*
X195134750Y-39441019D01*
X195134750Y-40277230D01*
X195145372Y-40365688D01*
X195200888Y-40506466D01*
X195292325Y-40627044D01*
X195292328Y-40627047D01*
X195412908Y-40718486D01*
X195553686Y-40774002D01*
X195642148Y-40784625D01*
X195642149Y-40784625D01*
X196978351Y-40784625D01*
X196978352Y-40784625D01*
X197066814Y-40774002D01*
X197207592Y-40718486D01*
X197328172Y-40627047D01*
X197336131Y-40616552D01*
X197397051Y-40569251D01*
X197473461Y-40558747D01*
X197544885Y-40587856D01*
X197591601Y-40647406D01*
X197594190Y-40653390D01*
X197676891Y-40793230D01*
X197676893Y-40793233D01*
X197791766Y-40908106D01*
X197791769Y-40908108D01*
X197931605Y-40990806D01*
X198087611Y-41036131D01*
X198094660Y-41037418D01*
X198164365Y-41070433D01*
X198208223Y-41133877D01*
X198214483Y-41210751D01*
X198181468Y-41280456D01*
X198173264Y-41289355D01*
X197553908Y-41908711D01*
X197487113Y-41947275D01*
X197409985Y-41947275D01*
X197343190Y-41908711D01*
X197329828Y-41893387D01*
X197328172Y-41891203D01*
X197328170Y-41891201D01*
X197328169Y-41891200D01*
X197247265Y-41829849D01*
X197207592Y-41799764D01*
X197207591Y-41799763D01*
X197066813Y-41744247D01*
X196978355Y-41733625D01*
X196978352Y-41733625D01*
X195642148Y-41733625D01*
X195642144Y-41733625D01*
X195553686Y-41744247D01*
X195412908Y-41799763D01*
X195412908Y-41799764D01*
X195292329Y-41891201D01*
X195292326Y-41891204D01*
X195200889Y-42011783D01*
X195200888Y-42011783D01*
X195145372Y-42152561D01*
X195134750Y-42241019D01*
X195134750Y-43077230D01*
X195145372Y-43165688D01*
X195200888Y-43306466D01*
X195280468Y-43411408D01*
X195292328Y-43427047D01*
X195412908Y-43518486D01*
X195412913Y-43518488D01*
X195420147Y-43522556D01*
X195475302Y-43576469D01*
X195496110Y-43650737D01*
X195476997Y-43725460D01*
X195448750Y-43757699D01*
X195448750Y-45385796D01*
X195594149Y-45343554D01*
X195611400Y-45333352D01*
X195685686Y-45312609D01*
X195760391Y-45331788D01*
X195815499Y-45385751D01*
X195836242Y-45460037D01*
X195836250Y-45461601D01*
X195836250Y-47072395D01*
X195839281Y-47104714D01*
X195826362Y-47180753D01*
X195777154Y-47240144D01*
X195704843Y-47266974D01*
X195690932Y-47267625D01*
X195282474Y-47267625D01*
X195252054Y-47270478D01*
X195123866Y-47315332D01*
X195014601Y-47395973D01*
X195014598Y-47395976D01*
X194933957Y-47505241D01*
X194889103Y-47633429D01*
X194886250Y-47663849D01*
X194886250Y-48142104D01*
X194883387Y-48171173D01*
X194868750Y-48244753D01*
X194868750Y-60605027D01*
X194848788Y-60679527D01*
X194805722Y-60726722D01*
X194747380Y-60767937D01*
X194747378Y-60767939D01*
X194721346Y-60807143D01*
X194692430Y-60850692D01*
X194685269Y-60861476D01*
X194663165Y-60913559D01*
X194660464Y-60920134D01*
X194660463Y-60920139D01*
X194638879Y-61030306D01*
X194638878Y-61030318D01*
X194633583Y-61641956D01*
X194626348Y-62477725D01*
X194617950Y-63447647D01*
X194597344Y-63521971D01*
X194542336Y-63576035D01*
X194468956Y-63595357D01*
X194405000Y-63595357D01*
X194405000Y-63700357D01*
X194385038Y-63774857D01*
X194330500Y-63829395D01*
X194256000Y-63849357D01*
X193618461Y-63849357D01*
X193619890Y-63867527D01*
X193665570Y-64024757D01*
X193748909Y-64165675D01*
X193748911Y-64165678D01*
X193864678Y-64281445D01*
X193864684Y-64281449D01*
X193918918Y-64313523D01*
X193932105Y-64326989D01*
X193948430Y-64336414D01*
X193958621Y-64354066D01*
X193972882Y-64368628D01*
X193977569Y-64386884D01*
X193986995Y-64403209D01*
X193986995Y-64423591D01*
X193992064Y-64443333D01*
X193986995Y-64461488D01*
X193986995Y-64480337D01*
X193976804Y-64497988D01*
X193971323Y-64517620D01*
X193948432Y-64547132D01*
X193885372Y-64610193D01*
X189287879Y-69207686D01*
X189287876Y-69207690D01*
X189235154Y-69299006D01*
X189224340Y-69339368D01*
X189207861Y-69400866D01*
X189207860Y-69400871D01*
X189207860Y-70772354D01*
X189187898Y-70846854D01*
X189164219Y-70877713D01*
X185644573Y-74397361D01*
X185644572Y-74397362D01*
X185591848Y-74488684D01*
X185591847Y-74488685D01*
X185588144Y-74502506D01*
X185586789Y-74507564D01*
X185586789Y-74507565D01*
X185586788Y-74507564D01*
X185564555Y-74590539D01*
X185564554Y-74590546D01*
X185564554Y-91429334D01*
X185544592Y-91503834D01*
X185520913Y-91534693D01*
X184065113Y-92990492D01*
X183998318Y-93029056D01*
X183921190Y-93029056D01*
X183913711Y-93026841D01*
X183859333Y-93009173D01*
X183784409Y-92984829D01*
X183605546Y-92956500D01*
X183424454Y-92956500D01*
X183275266Y-92980129D01*
X183245591Y-92984829D01*
X183073360Y-93040789D01*
X182912004Y-93123005D01*
X182912003Y-93123005D01*
X182765500Y-93229446D01*
X182765497Y-93229448D01*
X182637448Y-93357497D01*
X182637446Y-93357500D01*
X182531005Y-93504003D01*
X182531005Y-93504004D01*
X182448789Y-93665360D01*
X182448789Y-93665361D01*
X182392829Y-93837591D01*
X182364500Y-94016454D01*
X182364500Y-94197546D01*
X182392829Y-94376409D01*
X182448789Y-94548639D01*
X182520362Y-94689109D01*
X182531005Y-94709995D01*
X182531005Y-94709996D01*
X182562377Y-94753176D01*
X182637447Y-94856501D01*
X182765499Y-94984553D01*
X182912006Y-95090996D01*
X183073361Y-95173211D01*
X183245591Y-95229171D01*
X183245592Y-95229171D01*
X183245595Y-95229172D01*
X183249779Y-95229835D01*
X183320238Y-95261206D01*
X183365573Y-95323604D01*
X183373634Y-95400310D01*
X183342263Y-95470769D01*
X183279865Y-95516104D01*
X183249779Y-95524165D01*
X183245595Y-95524827D01*
X183073360Y-95580789D01*
X182912004Y-95663005D01*
X182912003Y-95663005D01*
X182765500Y-95769446D01*
X182765497Y-95769448D01*
X182637448Y-95897497D01*
X182637446Y-95897500D01*
X182531005Y-96044003D01*
X182531005Y-96044004D01*
X182448789Y-96205360D01*
X182448789Y-96205361D01*
X182392829Y-96377591D01*
X182364500Y-96556454D01*
X182364500Y-96737546D01*
X182392829Y-96916409D01*
X182448789Y-97088639D01*
X182520362Y-97229109D01*
X182531005Y-97249995D01*
X182531005Y-97249996D01*
X182562377Y-97293176D01*
X182637447Y-97396501D01*
X182765499Y-97524553D01*
X182912006Y-97630996D01*
X183073361Y-97713211D01*
X183245591Y-97769171D01*
X183245592Y-97769171D01*
X183245595Y-97769172D01*
X183249779Y-97769835D01*
X183320238Y-97801206D01*
X183365573Y-97863604D01*
X183373634Y-97940310D01*
X183342263Y-98010769D01*
X183279865Y-98056104D01*
X183249779Y-98064165D01*
X183245595Y-98064827D01*
X183073360Y-98120789D01*
X182912004Y-98203005D01*
X182912003Y-98203005D01*
X182765500Y-98309446D01*
X182765497Y-98309448D01*
X182637448Y-98437497D01*
X182637446Y-98437500D01*
X182531005Y-98584003D01*
X182531005Y-98584004D01*
X182448789Y-98745360D01*
X182448789Y-98745361D01*
X182392829Y-98917591D01*
X182364500Y-99096454D01*
X182364500Y-99277546D01*
X182392829Y-99456409D01*
X182448789Y-99628639D01*
X182520362Y-99769109D01*
X182531005Y-99789995D01*
X182531005Y-99789996D01*
X182562377Y-99833176D01*
X182637447Y-99936501D01*
X182765499Y-100064553D01*
X182912006Y-100170996D01*
X183073361Y-100253211D01*
X183245591Y-100309171D01*
X183245592Y-100309171D01*
X183245595Y-100309172D01*
X183249779Y-100309835D01*
X183320238Y-100341206D01*
X183365573Y-100403604D01*
X183373634Y-100480310D01*
X183342263Y-100550769D01*
X183279865Y-100596104D01*
X183249779Y-100604165D01*
X183245595Y-100604827D01*
X183073360Y-100660789D01*
X182912004Y-100743005D01*
X182912003Y-100743005D01*
X182765500Y-100849446D01*
X182765497Y-100849448D01*
X182637448Y-100977497D01*
X182637446Y-100977500D01*
X182531005Y-101124003D01*
X182531005Y-101124004D01*
X182448789Y-101285360D01*
X182448789Y-101285361D01*
X182392829Y-101457591D01*
X182364500Y-101636454D01*
X182364500Y-101817546D01*
X182392829Y-101996409D01*
X182448789Y-102168639D01*
X182520896Y-102310157D01*
X182531005Y-102329995D01*
X182531005Y-102329996D01*
X182562377Y-102373176D01*
X182637447Y-102476501D01*
X182765499Y-102604553D01*
X182912006Y-102710996D01*
X183073361Y-102793211D01*
X183245591Y-102849171D01*
X183245592Y-102849171D01*
X183245595Y-102849172D01*
X183249779Y-102849835D01*
X183320238Y-102881206D01*
X183365573Y-102943604D01*
X183373634Y-103020310D01*
X183342263Y-103090769D01*
X183279865Y-103136104D01*
X183249779Y-103144165D01*
X183245595Y-103144827D01*
X183073360Y-103200789D01*
X182912004Y-103283005D01*
X182912003Y-103283005D01*
X182765500Y-103389446D01*
X182765497Y-103389448D01*
X182637448Y-103517497D01*
X182637446Y-103517500D01*
X182531005Y-103664003D01*
X182531005Y-103664004D01*
X182448789Y-103825360D01*
X182448789Y-103825361D01*
X182392829Y-103997591D01*
X182364500Y-104176454D01*
X182364500Y-104357546D01*
X182392829Y-104536409D01*
X182448789Y-104708639D01*
X182529109Y-104866275D01*
X182531005Y-104869995D01*
X182531005Y-104869996D01*
X182544610Y-104888721D01*
X182637447Y-105016501D01*
X182765499Y-105144553D01*
X182912006Y-105250996D01*
X183073361Y-105333211D01*
X183245591Y-105389171D01*
X183245592Y-105389171D01*
X183245595Y-105389172D01*
X183249779Y-105389835D01*
X183320238Y-105421206D01*
X183365573Y-105483604D01*
X183373634Y-105560310D01*
X183342263Y-105630769D01*
X183279865Y-105676104D01*
X183249779Y-105684165D01*
X183245595Y-105684827D01*
X183073360Y-105740789D01*
X182912004Y-105823005D01*
X182912003Y-105823005D01*
X182765500Y-105929446D01*
X182765497Y-105929448D01*
X182637448Y-106057497D01*
X182637446Y-106057500D01*
X182531005Y-106204003D01*
X182531005Y-106204004D01*
X182448789Y-106365360D01*
X182392829Y-106537591D01*
X182364500Y-106716454D01*
X182364500Y-106897546D01*
X182392829Y-107076409D01*
X182448789Y-107248639D01*
X182520896Y-107390157D01*
X182531005Y-107409995D01*
X182531005Y-107409996D01*
X182540799Y-107423476D01*
X182637447Y-107556501D01*
X182765499Y-107684553D01*
X182912006Y-107790996D01*
X183073361Y-107873211D01*
X183245591Y-107929171D01*
X183245592Y-107929171D01*
X183245595Y-107929172D01*
X183249779Y-107929835D01*
X183320238Y-107961206D01*
X183365573Y-108023604D01*
X183373634Y-108100310D01*
X183342263Y-108170769D01*
X183279865Y-108216104D01*
X183249779Y-108224165D01*
X183245595Y-108224827D01*
X183073360Y-108280789D01*
X182912004Y-108363005D01*
X182912003Y-108363005D01*
X182765500Y-108469446D01*
X182765497Y-108469448D01*
X182637448Y-108597497D01*
X182637446Y-108597500D01*
X182531005Y-108744003D01*
X182531005Y-108744004D01*
X182448789Y-108905360D01*
X182416963Y-109003312D01*
X182392829Y-109077591D01*
X182364500Y-109256454D01*
X182364500Y-109437546D01*
X182392829Y-109616409D01*
X182448789Y-109788639D01*
X182520896Y-109930157D01*
X182531005Y-109949995D01*
X182531005Y-109949996D01*
X182544610Y-109968721D01*
X182637447Y-110096501D01*
X182765499Y-110224553D01*
X182912006Y-110330996D01*
X183073361Y-110413211D01*
X183245591Y-110469171D01*
X183245592Y-110469171D01*
X183245595Y-110469172D01*
X183249779Y-110469835D01*
X183320238Y-110501206D01*
X183365573Y-110563604D01*
X183373634Y-110640310D01*
X183342263Y-110710769D01*
X183279865Y-110756104D01*
X183249779Y-110764165D01*
X183245595Y-110764827D01*
X183073360Y-110820789D01*
X182912004Y-110903005D01*
X182912003Y-110903005D01*
X182765500Y-111009446D01*
X182765497Y-111009448D01*
X182637448Y-111137497D01*
X182637446Y-111137500D01*
X182531005Y-111284003D01*
X182531005Y-111284004D01*
X182448789Y-111445360D01*
X182448789Y-111445361D01*
X182392829Y-111617591D01*
X182364500Y-111796454D01*
X182364500Y-111977546D01*
X182392829Y-112156409D01*
X182448789Y-112328639D01*
X182520896Y-112470157D01*
X182531005Y-112489995D01*
X182531005Y-112489996D01*
X182562377Y-112533176D01*
X182637447Y-112636501D01*
X182765499Y-112764553D01*
X182912006Y-112870996D01*
X183073361Y-112953211D01*
X183245591Y-113009171D01*
X183245592Y-113009171D01*
X183245595Y-113009172D01*
X183249779Y-113009835D01*
X183320238Y-113041206D01*
X183365573Y-113103604D01*
X183373634Y-113180310D01*
X183342263Y-113250769D01*
X183279865Y-113296104D01*
X183249779Y-113304165D01*
X183245595Y-113304827D01*
X183073360Y-113360789D01*
X182912004Y-113443005D01*
X182912003Y-113443005D01*
X182765500Y-113549446D01*
X182765497Y-113549448D01*
X182637448Y-113677497D01*
X182637446Y-113677500D01*
X182531005Y-113824003D01*
X182531005Y-113824004D01*
X182448789Y-113985360D01*
X182448789Y-113985361D01*
X182392829Y-114157591D01*
X182364500Y-114336454D01*
X182364500Y-114517546D01*
X182392829Y-114696409D01*
X182448789Y-114868639D01*
X182520896Y-115010157D01*
X182531005Y-115029995D01*
X182531005Y-115029996D01*
X182544610Y-115048721D01*
X182637447Y-115176501D01*
X182765499Y-115304553D01*
X182912006Y-115410996D01*
X183073361Y-115493211D01*
X183245591Y-115549171D01*
X183245592Y-115549171D01*
X183245595Y-115549172D01*
X183249779Y-115549835D01*
X183320238Y-115581206D01*
X183365573Y-115643604D01*
X183373634Y-115720310D01*
X183342263Y-115790769D01*
X183279865Y-115836104D01*
X183249779Y-115844165D01*
X183245595Y-115844827D01*
X183073360Y-115900789D01*
X182912004Y-115983005D01*
X182912003Y-115983005D01*
X182765500Y-116089446D01*
X182765497Y-116089448D01*
X182637448Y-116217497D01*
X182637446Y-116217500D01*
X182531005Y-116364003D01*
X182531005Y-116364004D01*
X182448789Y-116525360D01*
X182448789Y-116525361D01*
X182392829Y-116697591D01*
X182364500Y-116876454D01*
X182364500Y-117057546D01*
X182392829Y-117236409D01*
X182448789Y-117408639D01*
X182487761Y-117485126D01*
X182531005Y-117569995D01*
X182531005Y-117569996D01*
X182562377Y-117613176D01*
X182637447Y-117716501D01*
X182765499Y-117844553D01*
X182783727Y-117857796D01*
X182813539Y-117879456D01*
X182862077Y-117939396D01*
X182874143Y-118015575D01*
X182846503Y-118087580D01*
X182786563Y-118136118D01*
X182725959Y-118149000D01*
X182616416Y-118149000D01*
X182616397Y-118149001D01*
X182555904Y-118155504D01*
X182419042Y-118206552D01*
X182419036Y-118206555D01*
X182302096Y-118294096D01*
X182214555Y-118411036D01*
X182214552Y-118411042D01*
X182163504Y-118547904D01*
X182157001Y-118608397D01*
X182157000Y-118608415D01*
X171450500Y-118608415D01*
X171450500Y-63341356D01*
X193618460Y-63341356D01*
X193618461Y-63341357D01*
X194151000Y-63341357D01*
X194151000Y-62325357D01*
X193618461Y-62325357D01*
X193619890Y-62343527D01*
X193665570Y-62500757D01*
X193748909Y-62641675D01*
X193748911Y-62641678D01*
X193835231Y-62727998D01*
X193873795Y-62794793D01*
X193873795Y-62871921D01*
X193835231Y-62938716D01*
X193748911Y-63025035D01*
X193748909Y-63025038D01*
X193665570Y-63165956D01*
X193619890Y-63323186D01*
X193618460Y-63341356D01*
X171450500Y-63341356D01*
X171450500Y-61817356D01*
X193618460Y-61817356D01*
X193618461Y-61817357D01*
X194151000Y-61817357D01*
X194151000Y-61259683D01*
X194150999Y-61259682D01*
X194005609Y-61301923D01*
X194005599Y-61301928D01*
X193864684Y-61385264D01*
X193864678Y-61385268D01*
X193748911Y-61501035D01*
X193748909Y-61501038D01*
X193665570Y-61641956D01*
X193619890Y-61799186D01*
X193618460Y-61817356D01*
X171450500Y-61817356D01*
X171450500Y-44828125D01*
X194408211Y-44828125D01*
X194409640Y-44846295D01*
X194455320Y-45003525D01*
X194538659Y-45144443D01*
X194538661Y-45144446D01*
X194654428Y-45260213D01*
X194654431Y-45260215D01*
X194795350Y-45343554D01*
X194940750Y-45385797D01*
X194940750Y-44828125D01*
X194408211Y-44828125D01*
X171450500Y-44828125D01*
X171450500Y-44320124D01*
X194408210Y-44320124D01*
X194408211Y-44320125D01*
X194940750Y-44320125D01*
X194940750Y-43762451D01*
X194940749Y-43762450D01*
X194795359Y-43804691D01*
X194795349Y-43804696D01*
X194654434Y-43888032D01*
X194654428Y-43888036D01*
X194538661Y-44003803D01*
X194538659Y-44003806D01*
X194455320Y-44144724D01*
X194409640Y-44301954D01*
X194408210Y-44320124D01*
X171450500Y-44320124D01*
X171450500Y-31993440D01*
X171450880Y-31982811D01*
X171455835Y-31913528D01*
X171455835Y-31913527D01*
X171464798Y-31788199D01*
X171466247Y-31775570D01*
X171472240Y-31737732D01*
X171473810Y-31729371D01*
X171510669Y-31559933D01*
X171514549Y-31545589D01*
X171523509Y-31518015D01*
X171525608Y-31511996D01*
X171589785Y-31339930D01*
X171596620Y-31324381D01*
X171599310Y-31319103D01*
X171601244Y-31315435D01*
X171697330Y-31139469D01*
X171708816Y-31121598D01*
X171831743Y-30957385D01*
X171845653Y-30941332D01*
X171990707Y-30796278D01*
X172006760Y-30782368D01*
X172170986Y-30659431D01*
X172188843Y-30647955D01*
X172365169Y-30551673D01*
X172368819Y-30549747D01*
X172373674Y-30547274D01*
X172389216Y-30540443D01*
X172561796Y-30476074D01*
X172567690Y-30474019D01*
X172594814Y-30465205D01*
X172609137Y-30461331D01*
X172779120Y-30424353D01*
X172787454Y-30422788D01*
X172824691Y-30416891D01*
X172837332Y-30415440D01*
X173017654Y-30402544D01*
X173032188Y-30401505D01*
X173042816Y-30401125D01*
X195712505Y-30401125D01*
X195787005Y-30421087D01*
G37*
%TD.AperFunction*%
%TD*%
%TA.AperFunction,Conductor*%
%TO.N,+1V1*%
G36*
X199797429Y-64230827D02*
G01*
X199814260Y-64242073D01*
X199887326Y-64256607D01*
X199887328Y-64256607D01*
X200036672Y-64256607D01*
X200036674Y-64256607D01*
X200109740Y-64242073D01*
X200120888Y-64234623D01*
X200176437Y-64223575D01*
X200180689Y-64224552D01*
X200192749Y-64227699D01*
X200214260Y-64242073D01*
X200287326Y-64256607D01*
X200303498Y-64256607D01*
X200312689Y-64259006D01*
X200328270Y-64270802D01*
X200346326Y-64278281D01*
X200350061Y-64287299D01*
X200357845Y-64293192D01*
X200360521Y-64312551D01*
X200368000Y-64330607D01*
X200368000Y-64618357D01*
X200694000Y-64618357D01*
X200746326Y-64640031D01*
X200768000Y-64692357D01*
X200768000Y-64818357D01*
X203494000Y-64818357D01*
X203546326Y-64840031D01*
X203568000Y-64892357D01*
X203568000Y-69144357D01*
X203546326Y-69196683D01*
X203494000Y-69218357D01*
X201168000Y-69218357D01*
X201168000Y-69344357D01*
X201146326Y-69396683D01*
X201094000Y-69418357D01*
X200442000Y-69418357D01*
X200389674Y-69396683D01*
X200368000Y-69344357D01*
X200368000Y-68930606D01*
X200389674Y-68878280D01*
X200441998Y-68856606D01*
X202858362Y-68856606D01*
X202908539Y-68850001D01*
X203018645Y-68798658D01*
X203104551Y-68712752D01*
X203155894Y-68602646D01*
X203162500Y-68552470D01*
X203162499Y-65559745D01*
X203155894Y-65509568D01*
X203104551Y-65399462D01*
X203018645Y-65313556D01*
X203010722Y-65309861D01*
X202972461Y-65268101D01*
X202968000Y-65242796D01*
X202968000Y-65218357D01*
X199442000Y-65218357D01*
X199389674Y-65196683D01*
X199368000Y-65144357D01*
X199368000Y-64393979D01*
X199380180Y-64353306D01*
X199384330Y-64346997D01*
X199402460Y-64328868D01*
X199442022Y-64260345D01*
X199442490Y-64258598D01*
X199447039Y-64251684D01*
X199465101Y-64239427D01*
X199480541Y-64223989D01*
X199490887Y-64221931D01*
X199493905Y-64219884D01*
X199497611Y-64220593D01*
X199508859Y-64218357D01*
X199756319Y-64218357D01*
X199797429Y-64230827D01*
G37*
%TD.AperFunction*%
%TD*%
%TA.AperFunction,Conductor*%
%TO.N,+3V3*%
G36*
X197853670Y-60965692D02*
G01*
X197856439Y-60968584D01*
X198066557Y-61200197D01*
X198085750Y-61249918D01*
X198085750Y-61477024D01*
X198092277Y-61526610D01*
X198092278Y-61526612D01*
X198143026Y-61635441D01*
X198227934Y-61720349D01*
X198336763Y-61771097D01*
X198386349Y-61777625D01*
X198557612Y-61777624D01*
X198609938Y-61799298D01*
X198612419Y-61801903D01*
X199010168Y-62240341D01*
X199242307Y-62496229D01*
X199261500Y-62545949D01*
X199261500Y-64142189D01*
X199251585Y-64179191D01*
X199240535Y-64198329D01*
X199233824Y-64208063D01*
X199212640Y-64234068D01*
X199208493Y-64240373D01*
X199183317Y-64294354D01*
X199183316Y-64294357D01*
X199171138Y-64335024D01*
X199171137Y-64335025D01*
X199162500Y-64393970D01*
X199162500Y-65144355D01*
X199178141Y-65222992D01*
X199178144Y-65223002D01*
X199199814Y-65275319D01*
X199199816Y-65275323D01*
X199199817Y-65275324D01*
X199236445Y-65333618D01*
X199311033Y-65386540D01*
X199363359Y-65408214D01*
X199442000Y-65423857D01*
X199495009Y-65423857D01*
X199547335Y-65445531D01*
X199569009Y-65497857D01*
X199568376Y-65507516D01*
X199561500Y-65559745D01*
X199561500Y-68552467D01*
X199568106Y-68602645D01*
X199568106Y-68602647D01*
X199619449Y-68712752D01*
X199705356Y-68798659D01*
X199760408Y-68824329D01*
X199815461Y-68850001D01*
X199865637Y-68856607D01*
X200088500Y-68856606D01*
X200140826Y-68878280D01*
X200162500Y-68930606D01*
X200162500Y-69344357D01*
X200163605Y-69349911D01*
X200178141Y-69422992D01*
X200178144Y-69423002D01*
X200199814Y-69475319D01*
X200199816Y-69475323D01*
X200199817Y-69475324D01*
X200236445Y-69533618D01*
X200311033Y-69586540D01*
X200363359Y-69608214D01*
X200442000Y-69623857D01*
X200559255Y-69623857D01*
X200578406Y-69626377D01*
X200689358Y-69656107D01*
X200821142Y-69656107D01*
X200932093Y-69626378D01*
X200951245Y-69623857D01*
X201093998Y-69623857D01*
X201094000Y-69623857D01*
X201172641Y-69608214D01*
X201224967Y-69586540D01*
X201283261Y-69549912D01*
X201336183Y-69475324D01*
X201338580Y-69469536D01*
X201378630Y-69429489D01*
X201406947Y-69423857D01*
X203493998Y-69423857D01*
X203494000Y-69423857D01*
X203572641Y-69408214D01*
X203624967Y-69386540D01*
X203683261Y-69349912D01*
X203736183Y-69275324D01*
X203757857Y-69222998D01*
X203773500Y-69144357D01*
X203773500Y-64892357D01*
X203757857Y-64813716D01*
X203736183Y-64761390D01*
X203699555Y-64703096D01*
X203624967Y-64650174D01*
X203624966Y-64650173D01*
X203572645Y-64628501D01*
X203572635Y-64628498D01*
X203519974Y-64618023D01*
X203494000Y-64612857D01*
X203493998Y-64612857D01*
X201061216Y-64612857D01*
X201008890Y-64591183D01*
X200935564Y-64517857D01*
X200872777Y-64481607D01*
X200856932Y-64472459D01*
X200851122Y-64468732D01*
X200824967Y-64450174D01*
X200824963Y-64450172D01*
X200824957Y-64450169D01*
X200772645Y-64428501D01*
X200772635Y-64428498D01*
X200719974Y-64418023D01*
X200694000Y-64412857D01*
X200693998Y-64412857D01*
X200647500Y-64412857D01*
X200595174Y-64391183D01*
X200574374Y-64350196D01*
X200573500Y-64344559D01*
X200573500Y-64330607D01*
X200563685Y-64281269D01*
X200563447Y-64279729D01*
X200563462Y-64279665D01*
X200563273Y-64278541D01*
X200561409Y-64265053D01*
X200561407Y-64265046D01*
X200561312Y-64264623D01*
X200561332Y-64264503D01*
X200560982Y-64261966D01*
X200561791Y-64261854D01*
X200570967Y-64208815D01*
X200587475Y-64191890D01*
X200587447Y-64191862D01*
X200589779Y-64189529D01*
X200592402Y-64186840D01*
X200592601Y-64186708D01*
X200627112Y-64135057D01*
X200674202Y-64103592D01*
X200701229Y-64103249D01*
X201367047Y-64218193D01*
X201395569Y-64229585D01*
X201414258Y-64242072D01*
X201414260Y-64242073D01*
X201487326Y-64256607D01*
X201487328Y-64256607D01*
X201636672Y-64256607D01*
X201636674Y-64256607D01*
X201709740Y-64242073D01*
X201720888Y-64234623D01*
X201776437Y-64223575D01*
X201803111Y-64234623D01*
X201814260Y-64242073D01*
X201887326Y-64256607D01*
X201887328Y-64256607D01*
X202036672Y-64256607D01*
X202036674Y-64256607D01*
X202109740Y-64242073D01*
X202120888Y-64234623D01*
X202176437Y-64223575D01*
X202203111Y-64234623D01*
X202214260Y-64242073D01*
X202287326Y-64256607D01*
X202287328Y-64256607D01*
X202436672Y-64256607D01*
X202436674Y-64256607D01*
X202509740Y-64242073D01*
X202520888Y-64234623D01*
X202576437Y-64223575D01*
X202603111Y-64234623D01*
X202614260Y-64242073D01*
X202687326Y-64256607D01*
X202687328Y-64256607D01*
X202836672Y-64256607D01*
X202836674Y-64256607D01*
X202909740Y-64242073D01*
X202920888Y-64234623D01*
X202976437Y-64223575D01*
X203003111Y-64234623D01*
X203014260Y-64242073D01*
X203087326Y-64256607D01*
X203087328Y-64256607D01*
X203236672Y-64256607D01*
X203236674Y-64256607D01*
X203309740Y-64242073D01*
X203320888Y-64234623D01*
X203376437Y-64223575D01*
X203403111Y-64234623D01*
X203414260Y-64242073D01*
X203487326Y-64256607D01*
X203487328Y-64256607D01*
X203636672Y-64256607D01*
X203636674Y-64256607D01*
X203709740Y-64242073D01*
X203720888Y-64234623D01*
X203776437Y-64223575D01*
X203803111Y-64234623D01*
X203814260Y-64242073D01*
X203887326Y-64256607D01*
X203887328Y-64256607D01*
X204036672Y-64256607D01*
X204036674Y-64256607D01*
X204079564Y-64248075D01*
X204135112Y-64259124D01*
X204166578Y-64306216D01*
X204168000Y-64320653D01*
X204168000Y-64741467D01*
X204166578Y-64755903D01*
X204161500Y-64781433D01*
X204161500Y-64930779D01*
X204166578Y-64956308D01*
X204168000Y-64970745D01*
X204168000Y-65141467D01*
X204166578Y-65155903D01*
X204161500Y-65181433D01*
X204161500Y-65330781D01*
X204162065Y-65333619D01*
X204166578Y-65356308D01*
X204168000Y-65370745D01*
X204168000Y-65541467D01*
X204166578Y-65555903D01*
X204161500Y-65581433D01*
X204161500Y-65730779D01*
X204166578Y-65756308D01*
X204168000Y-65770745D01*
X204168000Y-65941467D01*
X204166578Y-65955903D01*
X204161500Y-65981433D01*
X204161500Y-66130779D01*
X204166578Y-66156308D01*
X204168000Y-66170745D01*
X204168000Y-66341467D01*
X204166578Y-66355903D01*
X204161500Y-66381433D01*
X204161500Y-66530779D01*
X204166578Y-66556308D01*
X204168000Y-66570745D01*
X204168000Y-66741467D01*
X204166578Y-66755903D01*
X204161500Y-66781433D01*
X204161500Y-66930779D01*
X204166578Y-66956308D01*
X204168000Y-66970745D01*
X204168000Y-67141467D01*
X204166578Y-67155903D01*
X204161500Y-67181433D01*
X204161500Y-67330779D01*
X204166578Y-67356308D01*
X204168000Y-67370745D01*
X204168000Y-67541467D01*
X204166578Y-67555903D01*
X204161500Y-67581433D01*
X204161500Y-67730779D01*
X204166578Y-67756308D01*
X204168000Y-67770745D01*
X204168000Y-68341467D01*
X204166578Y-68355903D01*
X204161500Y-68381433D01*
X204161500Y-68530779D01*
X204166578Y-68556308D01*
X204168000Y-68570745D01*
X204168000Y-68741467D01*
X204166578Y-68755903D01*
X204161500Y-68781433D01*
X204161500Y-68930779D01*
X204166578Y-68956308D01*
X204168000Y-68970745D01*
X204168000Y-69141467D01*
X204166578Y-69155903D01*
X204161500Y-69181433D01*
X204161500Y-69330781D01*
X204166578Y-69356308D01*
X204168000Y-69370745D01*
X204168000Y-69541467D01*
X204166578Y-69555903D01*
X204161500Y-69581433D01*
X204161500Y-69730783D01*
X204161856Y-69734396D01*
X204160410Y-69734538D01*
X204150279Y-69785470D01*
X204103186Y-69816935D01*
X204088751Y-69818357D01*
X198642404Y-69818357D01*
X198590078Y-69796683D01*
X198568404Y-69744357D01*
X198568405Y-69743954D01*
X198596250Y-64627125D01*
X198517471Y-64627125D01*
X198476360Y-64614654D01*
X198409740Y-64570141D01*
X198336674Y-64555607D01*
X197964062Y-64555607D01*
X194988512Y-64555607D01*
X194936186Y-64533933D01*
X194914512Y-64481607D01*
X194914515Y-64480966D01*
X194914970Y-64428501D01*
X194944368Y-61032956D01*
X194966494Y-60980821D01*
X195017957Y-60959599D01*
X197801226Y-60944306D01*
X197853670Y-60965692D01*
G37*
%TD.AperFunction*%
%TD*%
M02*
