%TF.GenerationSoftware,KiCad,Pcbnew,9.0.6*%
%TF.CreationDate,2026-05-16T14:26:13+05:30*%
%TF.ProjectId,esp_Extension,6573705f-4578-4746-956e-73696f6e2e6b,1*%
%TF.SameCoordinates,Original*%
%TF.FileFunction,Legend,Bot*%
%TF.FilePolarity,Positive*%
%FSLAX46Y46*%
G04 Gerber Fmt 4.6, Leading zero omitted, Abs format (unit mm)*
G04 Created by KiCad (PCBNEW 9.0.6) date 2026-05-16 14:26:13*
%MOMM*%
%LPD*%
G01*
G04 APERTURE LIST*
%ADD10C,0.400000*%
%ADD11C,0.010000*%
%ADD12C,0.000000*%
G04 APERTURE END LIST*
D10*
X115780652Y-147974438D02*
X115780652Y-145974438D01*
X115780652Y-145974438D02*
X115304462Y-145974438D01*
X115304462Y-145974438D02*
X115018747Y-146069676D01*
X115018747Y-146069676D02*
X114828271Y-146260152D01*
X114828271Y-146260152D02*
X114733033Y-146450628D01*
X114733033Y-146450628D02*
X114637795Y-146831580D01*
X114637795Y-146831580D02*
X114637795Y-147117295D01*
X114637795Y-147117295D02*
X114733033Y-147498247D01*
X114733033Y-147498247D02*
X114828271Y-147688723D01*
X114828271Y-147688723D02*
X115018747Y-147879200D01*
X115018747Y-147879200D02*
X115304462Y-147974438D01*
X115304462Y-147974438D02*
X115780652Y-147974438D01*
X113780652Y-146926819D02*
X113113985Y-146926819D01*
X112828271Y-147974438D02*
X113780652Y-147974438D01*
X113780652Y-147974438D02*
X113780652Y-145974438D01*
X113780652Y-145974438D02*
X112828271Y-145974438D01*
X112066366Y-147879200D02*
X111780652Y-147974438D01*
X111780652Y-147974438D02*
X111304461Y-147974438D01*
X111304461Y-147974438D02*
X111113985Y-147879200D01*
X111113985Y-147879200D02*
X111018747Y-147783961D01*
X111018747Y-147783961D02*
X110923509Y-147593485D01*
X110923509Y-147593485D02*
X110923509Y-147403009D01*
X110923509Y-147403009D02*
X111018747Y-147212533D01*
X111018747Y-147212533D02*
X111113985Y-147117295D01*
X111113985Y-147117295D02*
X111304461Y-147022057D01*
X111304461Y-147022057D02*
X111685414Y-146926819D01*
X111685414Y-146926819D02*
X111875890Y-146831580D01*
X111875890Y-146831580D02*
X111971128Y-146736342D01*
X111971128Y-146736342D02*
X112066366Y-146545866D01*
X112066366Y-146545866D02*
X112066366Y-146355390D01*
X112066366Y-146355390D02*
X111971128Y-146164914D01*
X111971128Y-146164914D02*
X111875890Y-146069676D01*
X111875890Y-146069676D02*
X111685414Y-145974438D01*
X111685414Y-145974438D02*
X111209223Y-145974438D01*
X111209223Y-145974438D02*
X110923509Y-146069676D01*
X110066366Y-147974438D02*
X110066366Y-145974438D01*
X109113985Y-147974438D02*
X109113985Y-145974438D01*
X109113985Y-145974438D02*
X107971128Y-147974438D01*
X107971128Y-147974438D02*
X107971128Y-145974438D01*
X105971128Y-146069676D02*
X106161604Y-145974438D01*
X106161604Y-145974438D02*
X106447318Y-145974438D01*
X106447318Y-145974438D02*
X106733033Y-146069676D01*
X106733033Y-146069676D02*
X106923509Y-146260152D01*
X106923509Y-146260152D02*
X107018747Y-146450628D01*
X107018747Y-146450628D02*
X107113985Y-146831580D01*
X107113985Y-146831580D02*
X107113985Y-147117295D01*
X107113985Y-147117295D02*
X107018747Y-147498247D01*
X107018747Y-147498247D02*
X106923509Y-147688723D01*
X106923509Y-147688723D02*
X106733033Y-147879200D01*
X106733033Y-147879200D02*
X106447318Y-147974438D01*
X106447318Y-147974438D02*
X106256842Y-147974438D01*
X106256842Y-147974438D02*
X105971128Y-147879200D01*
X105971128Y-147879200D02*
X105875890Y-147783961D01*
X105875890Y-147783961D02*
X105875890Y-147117295D01*
X105875890Y-147117295D02*
X106256842Y-147117295D01*
X105018747Y-146926819D02*
X104352080Y-146926819D01*
X104066366Y-147974438D02*
X105018747Y-147974438D01*
X105018747Y-147974438D02*
X105018747Y-145974438D01*
X105018747Y-145974438D02*
X104066366Y-145974438D01*
X103209223Y-147974438D02*
X103209223Y-145974438D01*
X103209223Y-145974438D02*
X102733033Y-145974438D01*
X102733033Y-145974438D02*
X102447318Y-146069676D01*
X102447318Y-146069676D02*
X102256842Y-146260152D01*
X102256842Y-146260152D02*
X102161604Y-146450628D01*
X102161604Y-146450628D02*
X102066366Y-146831580D01*
X102066366Y-146831580D02*
X102066366Y-147117295D01*
X102066366Y-147117295D02*
X102161604Y-147498247D01*
X102161604Y-147498247D02*
X102256842Y-147688723D01*
X102256842Y-147688723D02*
X102447318Y-147879200D01*
X102447318Y-147879200D02*
X102733033Y-147974438D01*
X102733033Y-147974438D02*
X103209223Y-147974438D01*
X99018746Y-146926819D02*
X98733032Y-147022057D01*
X98733032Y-147022057D02*
X98637794Y-147117295D01*
X98637794Y-147117295D02*
X98542556Y-147307771D01*
X98542556Y-147307771D02*
X98542556Y-147593485D01*
X98542556Y-147593485D02*
X98637794Y-147783961D01*
X98637794Y-147783961D02*
X98733032Y-147879200D01*
X98733032Y-147879200D02*
X98923508Y-147974438D01*
X98923508Y-147974438D02*
X99685413Y-147974438D01*
X99685413Y-147974438D02*
X99685413Y-145974438D01*
X99685413Y-145974438D02*
X99018746Y-145974438D01*
X99018746Y-145974438D02*
X98828270Y-146069676D01*
X98828270Y-146069676D02*
X98733032Y-146164914D01*
X98733032Y-146164914D02*
X98637794Y-146355390D01*
X98637794Y-146355390D02*
X98637794Y-146545866D01*
X98637794Y-146545866D02*
X98733032Y-146736342D01*
X98733032Y-146736342D02*
X98828270Y-146831580D01*
X98828270Y-146831580D02*
X99018746Y-146926819D01*
X99018746Y-146926819D02*
X99685413Y-146926819D01*
X97304461Y-147022057D02*
X97304461Y-147974438D01*
X97971127Y-145974438D02*
X97304461Y-147022057D01*
X97304461Y-147022057D02*
X96637794Y-145974438D01*
D11*
%TO.C,REF\u002A\u002A*%
X94167027Y-116824745D02*
X94295636Y-116903235D01*
X94428889Y-117011137D01*
X94428889Y-120248419D01*
X94295636Y-120356321D01*
X94138833Y-120443694D01*
X93959831Y-120447873D01*
X93802637Y-120345408D01*
X93783259Y-120322082D01*
X93755928Y-120274745D01*
X93734892Y-120206336D01*
X93719333Y-120103740D01*
X93708435Y-119953840D01*
X93701381Y-119743519D01*
X93697353Y-119459661D01*
X93695536Y-119089148D01*
X93695111Y-118618865D01*
X93695111Y-117011137D01*
X93828365Y-116903235D01*
X93946930Y-116829384D01*
X94062000Y-116795334D01*
X94167027Y-116824745D01*
G36*
X94167027Y-116824745D02*
G01*
X94295636Y-116903235D01*
X94428889Y-117011137D01*
X94428889Y-120248419D01*
X94295636Y-120356321D01*
X94138833Y-120443694D01*
X93959831Y-120447873D01*
X93802637Y-120345408D01*
X93783259Y-120322082D01*
X93755928Y-120274745D01*
X93734892Y-120206336D01*
X93719333Y-120103740D01*
X93708435Y-119953840D01*
X93701381Y-119743519D01*
X93697353Y-119459661D01*
X93695536Y-119089148D01*
X93695111Y-118618865D01*
X93695111Y-117011137D01*
X93828365Y-116903235D01*
X93946930Y-116829384D01*
X94062000Y-116795334D01*
X94167027Y-116824745D01*
G37*
X129820682Y-116817317D02*
X129991455Y-116933879D01*
X130130000Y-117072425D01*
X130130000Y-118637686D01*
X130129796Y-119057837D01*
X130128503Y-119428944D01*
X130125149Y-119712706D01*
X130118760Y-119922561D01*
X130108366Y-120071947D01*
X130092992Y-120174304D01*
X130071667Y-120243070D01*
X130043418Y-120291684D01*
X130007272Y-120333585D01*
X129849956Y-120440905D01*
X129674129Y-120449736D01*
X129509111Y-120351334D01*
X129482578Y-120321991D01*
X129455330Y-120276572D01*
X129434500Y-120209864D01*
X129419229Y-120108784D01*
X129408658Y-119960244D01*
X129401931Y-119751159D01*
X129398187Y-119468444D01*
X129396571Y-119099012D01*
X129396223Y-118629778D01*
X129396420Y-118251472D01*
X129397695Y-117861925D01*
X129400914Y-117561875D01*
X129406936Y-117338238D01*
X129416618Y-117177926D01*
X129430819Y-117067855D01*
X129450396Y-116994937D01*
X129476207Y-116946089D01*
X129509111Y-116908223D01*
X129655029Y-116813116D01*
X129820682Y-116817317D01*
G36*
X129820682Y-116817317D02*
G01*
X129991455Y-116933879D01*
X130130000Y-117072425D01*
X130130000Y-118637686D01*
X130129796Y-119057837D01*
X130128503Y-119428944D01*
X130125149Y-119712706D01*
X130118760Y-119922561D01*
X130108366Y-120071947D01*
X130092992Y-120174304D01*
X130071667Y-120243070D01*
X130043418Y-120291684D01*
X130007272Y-120333585D01*
X129849956Y-120440905D01*
X129674129Y-120449736D01*
X129509111Y-120351334D01*
X129482578Y-120321991D01*
X129455330Y-120276572D01*
X129434500Y-120209864D01*
X129419229Y-120108784D01*
X129408658Y-119960244D01*
X129401931Y-119751159D01*
X129398187Y-119468444D01*
X129396571Y-119099012D01*
X129396223Y-118629778D01*
X129396420Y-118251472D01*
X129397695Y-117861925D01*
X129400914Y-117561875D01*
X129406936Y-117338238D01*
X129416618Y-117177926D01*
X129430819Y-117067855D01*
X129450396Y-116994937D01*
X129476207Y-116946089D01*
X129509111Y-116908223D01*
X129655029Y-116813116D01*
X129820682Y-116817317D01*
G37*
X129515999Y-85582835D02*
X130040780Y-85711416D01*
X130538215Y-85942192D01*
X130992628Y-86275200D01*
X131388342Y-86710476D01*
X131709680Y-87248059D01*
X131795830Y-87437435D01*
X131865623Y-87629382D01*
X131904784Y-87821274D01*
X131921949Y-88058622D01*
X131925752Y-88386936D01*
X131923453Y-88660200D01*
X131909596Y-88911338D01*
X131875620Y-89107276D01*
X131813042Y-89293013D01*
X131713378Y-89513549D01*
X131684548Y-89572317D01*
X131343785Y-90110459D01*
X130915202Y-90553225D01*
X130410961Y-90890228D01*
X129843225Y-91111075D01*
X129551917Y-91172705D01*
X128960936Y-91201544D01*
X128388533Y-91108231D01*
X127851493Y-90902333D01*
X127366602Y-90593419D01*
X126950644Y-90191056D01*
X126620403Y-89704810D01*
X126392665Y-89144249D01*
X126309342Y-88685513D01*
X126301836Y-88179277D01*
X126369604Y-87686858D01*
X126509417Y-87260323D01*
X126670967Y-86955377D01*
X127030606Y-86471564D01*
X127456960Y-86089724D01*
X127934354Y-85809894D01*
X128447109Y-85632111D01*
X128979550Y-85556413D01*
X129515999Y-85582835D01*
G36*
X129515999Y-85582835D02*
G01*
X130040780Y-85711416D01*
X130538215Y-85942192D01*
X130992628Y-86275200D01*
X131388342Y-86710476D01*
X131709680Y-87248059D01*
X131795830Y-87437435D01*
X131865623Y-87629382D01*
X131904784Y-87821274D01*
X131921949Y-88058622D01*
X131925752Y-88386936D01*
X131923453Y-88660200D01*
X131909596Y-88911338D01*
X131875620Y-89107276D01*
X131813042Y-89293013D01*
X131713378Y-89513549D01*
X131684548Y-89572317D01*
X131343785Y-90110459D01*
X130915202Y-90553225D01*
X130410961Y-90890228D01*
X129843225Y-91111075D01*
X129551917Y-91172705D01*
X128960936Y-91201544D01*
X128388533Y-91108231D01*
X127851493Y-90902333D01*
X127366602Y-90593419D01*
X126950644Y-90191056D01*
X126620403Y-89704810D01*
X126392665Y-89144249D01*
X126309342Y-88685513D01*
X126301836Y-88179277D01*
X126369604Y-87686858D01*
X126509417Y-87260323D01*
X126670967Y-86955377D01*
X127030606Y-86471564D01*
X127456960Y-86089724D01*
X127934354Y-85809894D01*
X128447109Y-85632111D01*
X128979550Y-85556413D01*
X129515999Y-85582835D01*
G37*
X90668835Y-116795341D02*
X91139450Y-116795790D01*
X91512023Y-116797489D01*
X91799056Y-116801197D01*
X92013055Y-116807675D01*
X92166520Y-116817683D01*
X92271955Y-116831981D01*
X92341863Y-116851331D01*
X92388748Y-116876491D01*
X92425111Y-116908223D01*
X92519141Y-117071810D01*
X92526373Y-117259696D01*
X92444586Y-117425889D01*
X92437784Y-117433156D01*
X92381770Y-117474958D01*
X92296258Y-117502733D01*
X92160410Y-117519202D01*
X91953391Y-117527088D01*
X91654363Y-117529111D01*
X90957556Y-117529111D01*
X90957556Y-118847944D01*
X90957179Y-119227083D01*
X90955138Y-119560414D01*
X90950228Y-119809333D01*
X90941247Y-119988919D01*
X90926992Y-120114250D01*
X90906263Y-120200404D01*
X90877856Y-120262461D01*
X90840570Y-120315499D01*
X90829117Y-120329530D01*
X90673227Y-120442742D01*
X90501331Y-120450561D01*
X90336667Y-120351334D01*
X90301775Y-120310955D01*
X90274416Y-120257963D01*
X90254314Y-120178747D01*
X90240358Y-120058864D01*
X90231438Y-119883869D01*
X90226442Y-119639320D01*
X90224259Y-119310771D01*
X90223778Y-118883778D01*
X90223778Y-117529111D01*
X89494097Y-117529111D01*
X89438598Y-117529106D01*
X89156010Y-117527980D01*
X88961788Y-117522285D01*
X88834826Y-117508287D01*
X88754017Y-117482252D01*
X88698258Y-117440445D01*
X88646442Y-117379131D01*
X88567205Y-117225692D01*
X88582716Y-117056789D01*
X88710936Y-116894111D01*
X88735642Y-116875524D01*
X88786691Y-116851344D01*
X88863819Y-116832528D01*
X88979427Y-116818416D01*
X89145915Y-116808348D01*
X89375685Y-116801665D01*
X89681138Y-116797708D01*
X90074675Y-116795817D01*
X90568698Y-116795334D01*
X90668835Y-116795341D01*
G36*
X90668835Y-116795341D02*
G01*
X91139450Y-116795790D01*
X91512023Y-116797489D01*
X91799056Y-116801197D01*
X92013055Y-116807675D01*
X92166520Y-116817683D01*
X92271955Y-116831981D01*
X92341863Y-116851331D01*
X92388748Y-116876491D01*
X92425111Y-116908223D01*
X92519141Y-117071810D01*
X92526373Y-117259696D01*
X92444586Y-117425889D01*
X92437784Y-117433156D01*
X92381770Y-117474958D01*
X92296258Y-117502733D01*
X92160410Y-117519202D01*
X91953391Y-117527088D01*
X91654363Y-117529111D01*
X90957556Y-117529111D01*
X90957556Y-118847944D01*
X90957179Y-119227083D01*
X90955138Y-119560414D01*
X90950228Y-119809333D01*
X90941247Y-119988919D01*
X90926992Y-120114250D01*
X90906263Y-120200404D01*
X90877856Y-120262461D01*
X90840570Y-120315499D01*
X90829117Y-120329530D01*
X90673227Y-120442742D01*
X90501331Y-120450561D01*
X90336667Y-120351334D01*
X90301775Y-120310955D01*
X90274416Y-120257963D01*
X90254314Y-120178747D01*
X90240358Y-120058864D01*
X90231438Y-119883869D01*
X90226442Y-119639320D01*
X90224259Y-119310771D01*
X90223778Y-118883778D01*
X90223778Y-117529111D01*
X89494097Y-117529111D01*
X89438598Y-117529106D01*
X89156010Y-117527980D01*
X88961788Y-117522285D01*
X88834826Y-117508287D01*
X88754017Y-117482252D01*
X88698258Y-117440445D01*
X88646442Y-117379131D01*
X88567205Y-117225692D01*
X88582716Y-117056789D01*
X88710936Y-116894111D01*
X88735642Y-116875524D01*
X88786691Y-116851344D01*
X88863819Y-116832528D01*
X88979427Y-116818416D01*
X89145915Y-116808348D01*
X89375685Y-116801665D01*
X89681138Y-116797708D01*
X90074675Y-116795817D01*
X90568698Y-116795334D01*
X90668835Y-116795341D01*
G37*
X87288667Y-116908223D02*
X87316828Y-116939173D01*
X87342281Y-116980203D01*
X87362712Y-117039086D01*
X87378603Y-117126382D01*
X87390435Y-117252651D01*
X87398688Y-117428451D01*
X87403845Y-117664343D01*
X87406386Y-117970884D01*
X87406792Y-118358635D01*
X87405545Y-118838154D01*
X87403126Y-119420000D01*
X87402783Y-119490875D01*
X87399853Y-119799686D01*
X87393241Y-120018101D01*
X87380513Y-120165003D01*
X87359237Y-120259273D01*
X87326979Y-120319793D01*
X87281307Y-120365445D01*
X87114020Y-120452530D01*
X86939279Y-120438022D01*
X86784764Y-120315499D01*
X86739718Y-120249484D01*
X86702460Y-120156807D01*
X86680621Y-120026663D01*
X86670346Y-119833934D01*
X86667778Y-119553499D01*
X86667778Y-118940223D01*
X84184223Y-118940223D01*
X84184223Y-119614355D01*
X84183858Y-119793309D01*
X84180044Y-120024960D01*
X84169162Y-120177631D01*
X84147678Y-120272783D01*
X84112059Y-120331871D01*
X84058774Y-120376355D01*
X83897518Y-120451703D01*
X83721086Y-120438367D01*
X83567430Y-120315499D01*
X83544152Y-120284226D01*
X83514475Y-120231605D01*
X83491819Y-120161956D01*
X83475241Y-120061586D01*
X83463795Y-119916799D01*
X83456537Y-119713901D01*
X83452523Y-119439199D01*
X83450807Y-119078996D01*
X83450445Y-118619600D01*
X83450445Y-117072425D01*
X83588990Y-116933879D01*
X83745882Y-116822666D01*
X83912027Y-116809218D01*
X84071334Y-116908223D01*
X84112763Y-116957075D01*
X84149822Y-117036536D01*
X84171510Y-117156374D01*
X84181688Y-117340738D01*
X84184223Y-117613778D01*
X84184223Y-118206445D01*
X86667778Y-118206445D01*
X86667778Y-117639435D01*
X86667780Y-117628878D01*
X86669967Y-117370392D01*
X86679787Y-117197769D01*
X86702367Y-117084888D01*
X86742836Y-117005631D01*
X86806324Y-116933879D01*
X86963216Y-116822666D01*
X87129360Y-116809218D01*
X87288667Y-116908223D01*
G36*
X87288667Y-116908223D02*
G01*
X87316828Y-116939173D01*
X87342281Y-116980203D01*
X87362712Y-117039086D01*
X87378603Y-117126382D01*
X87390435Y-117252651D01*
X87398688Y-117428451D01*
X87403845Y-117664343D01*
X87406386Y-117970884D01*
X87406792Y-118358635D01*
X87405545Y-118838154D01*
X87403126Y-119420000D01*
X87402783Y-119490875D01*
X87399853Y-119799686D01*
X87393241Y-120018101D01*
X87380513Y-120165003D01*
X87359237Y-120259273D01*
X87326979Y-120319793D01*
X87281307Y-120365445D01*
X87114020Y-120452530D01*
X86939279Y-120438022D01*
X86784764Y-120315499D01*
X86739718Y-120249484D01*
X86702460Y-120156807D01*
X86680621Y-120026663D01*
X86670346Y-119833934D01*
X86667778Y-119553499D01*
X86667778Y-118940223D01*
X84184223Y-118940223D01*
X84184223Y-119614355D01*
X84183858Y-119793309D01*
X84180044Y-120024960D01*
X84169162Y-120177631D01*
X84147678Y-120272783D01*
X84112059Y-120331871D01*
X84058774Y-120376355D01*
X83897518Y-120451703D01*
X83721086Y-120438367D01*
X83567430Y-120315499D01*
X83544152Y-120284226D01*
X83514475Y-120231605D01*
X83491819Y-120161956D01*
X83475241Y-120061586D01*
X83463795Y-119916799D01*
X83456537Y-119713901D01*
X83452523Y-119439199D01*
X83450807Y-119078996D01*
X83450445Y-118619600D01*
X83450445Y-117072425D01*
X83588990Y-116933879D01*
X83745882Y-116822666D01*
X83912027Y-116809218D01*
X84071334Y-116908223D01*
X84112763Y-116957075D01*
X84149822Y-117036536D01*
X84171510Y-117156374D01*
X84181688Y-117340738D01*
X84184223Y-117613778D01*
X84184223Y-118206445D01*
X86667778Y-118206445D01*
X86667778Y-117639435D01*
X86667780Y-117628878D01*
X86669967Y-117370392D01*
X86679787Y-117197769D01*
X86702367Y-117084888D01*
X86742836Y-117005631D01*
X86806324Y-116933879D01*
X86963216Y-116822666D01*
X87129360Y-116809218D01*
X87288667Y-116908223D01*
G37*
X110815663Y-119851980D02*
X110805816Y-120015873D01*
X110791172Y-120130476D01*
X110770787Y-120209486D01*
X110743716Y-120266595D01*
X110709015Y-120315499D01*
X110592029Y-120464223D01*
X109763570Y-120461253D01*
X109589590Y-120459763D01*
X109097173Y-120442610D01*
X108692366Y-120404197D01*
X108356893Y-120341411D01*
X108072477Y-120251136D01*
X107820842Y-120130260D01*
X107804049Y-120120676D01*
X107514990Y-119937085D01*
X107303221Y-119752256D01*
X107139139Y-119534829D01*
X106993139Y-119253444D01*
X106971730Y-119205367D01*
X106858843Y-118889437D01*
X106830169Y-118661663D01*
X107576396Y-118661663D01*
X107604459Y-118785304D01*
X107633090Y-118864694D01*
X107797738Y-119164235D01*
X108034431Y-119393002D01*
X108353257Y-119558678D01*
X108764303Y-119668951D01*
X108778272Y-119671461D01*
X109009700Y-119701273D01*
X109291680Y-119722413D01*
X109566367Y-119730445D01*
X110035778Y-119730445D01*
X110035778Y-117529111D01*
X109598334Y-117531352D01*
X109263736Y-117543732D01*
X108801746Y-117599989D01*
X108405171Y-117697686D01*
X108095297Y-117832556D01*
X107940598Y-117936198D01*
X107799998Y-118085028D01*
X107683300Y-118297168D01*
X107647665Y-118377000D01*
X107588546Y-118539508D01*
X107576396Y-118661663D01*
X106830169Y-118661663D01*
X106823986Y-118612547D01*
X106866995Y-118337414D01*
X106987704Y-118026754D01*
X106991683Y-118018290D01*
X107193941Y-117671182D01*
X107447362Y-117388188D01*
X107760990Y-117165349D01*
X108143870Y-116998707D01*
X108605044Y-116884304D01*
X109153558Y-116818179D01*
X109798455Y-116796374D01*
X109816314Y-116796350D01*
X110116415Y-116797049D01*
X110326069Y-116802232D01*
X110466637Y-116815201D01*
X110559482Y-116839263D01*
X110625967Y-116877721D01*
X110687455Y-116933879D01*
X110826000Y-117072425D01*
X110826000Y-118619600D01*
X110825873Y-118927629D01*
X110824747Y-119321553D01*
X110821659Y-119625105D01*
X110818875Y-119730445D01*
X110815663Y-119851980D01*
G36*
X110815663Y-119851980D02*
G01*
X110805816Y-120015873D01*
X110791172Y-120130476D01*
X110770787Y-120209486D01*
X110743716Y-120266595D01*
X110709015Y-120315499D01*
X110592029Y-120464223D01*
X109763570Y-120461253D01*
X109589590Y-120459763D01*
X109097173Y-120442610D01*
X108692366Y-120404197D01*
X108356893Y-120341411D01*
X108072477Y-120251136D01*
X107820842Y-120130260D01*
X107804049Y-120120676D01*
X107514990Y-119937085D01*
X107303221Y-119752256D01*
X107139139Y-119534829D01*
X106993139Y-119253444D01*
X106971730Y-119205367D01*
X106858843Y-118889437D01*
X106830169Y-118661663D01*
X107576396Y-118661663D01*
X107604459Y-118785304D01*
X107633090Y-118864694D01*
X107797738Y-119164235D01*
X108034431Y-119393002D01*
X108353257Y-119558678D01*
X108764303Y-119668951D01*
X108778272Y-119671461D01*
X109009700Y-119701273D01*
X109291680Y-119722413D01*
X109566367Y-119730445D01*
X110035778Y-119730445D01*
X110035778Y-117529111D01*
X109598334Y-117531352D01*
X109263736Y-117543732D01*
X108801746Y-117599989D01*
X108405171Y-117697686D01*
X108095297Y-117832556D01*
X107940598Y-117936198D01*
X107799998Y-118085028D01*
X107683300Y-118297168D01*
X107647665Y-118377000D01*
X107588546Y-118539508D01*
X107576396Y-118661663D01*
X106830169Y-118661663D01*
X106823986Y-118612547D01*
X106866995Y-118337414D01*
X106987704Y-118026754D01*
X106991683Y-118018290D01*
X107193941Y-117671182D01*
X107447362Y-117388188D01*
X107760990Y-117165349D01*
X108143870Y-116998707D01*
X108605044Y-116884304D01*
X109153558Y-116818179D01*
X109798455Y-116796374D01*
X109816314Y-116796350D01*
X110116415Y-116797049D01*
X110326069Y-116802232D01*
X110466637Y-116815201D01*
X110559482Y-116839263D01*
X110625967Y-116877721D01*
X110687455Y-116933879D01*
X110826000Y-117072425D01*
X110826000Y-118619600D01*
X110825873Y-118927629D01*
X110824747Y-119321553D01*
X110821659Y-119625105D01*
X110818875Y-119730445D01*
X110815663Y-119851980D01*
G37*
X146274087Y-117722133D02*
X146274355Y-118125207D01*
X146273111Y-118629778D01*
X146272914Y-119008084D01*
X146271639Y-119397631D01*
X146268420Y-119697681D01*
X146262398Y-119921318D01*
X146252716Y-120081630D01*
X146238515Y-120191702D01*
X146218938Y-120264619D01*
X146193127Y-120313468D01*
X146160223Y-120351334D01*
X146125386Y-120382504D01*
X146060396Y-120419005D01*
X145964656Y-120442772D01*
X145817637Y-120456460D01*
X145598808Y-120462724D01*
X145287639Y-120464223D01*
X145042907Y-120462346D01*
X144508609Y-120440204D01*
X144062471Y-120389766D01*
X143688480Y-120306825D01*
X143370625Y-120187173D01*
X143092892Y-120026605D01*
X142839271Y-119820912D01*
X142809330Y-119791648D01*
X142624995Y-119549104D01*
X142469496Y-119245063D01*
X142362082Y-118923847D01*
X142335678Y-118730129D01*
X143071765Y-118730129D01*
X143163174Y-118984804D01*
X143311526Y-119214390D01*
X143545011Y-119426437D01*
X143851957Y-119575450D01*
X144247690Y-119671128D01*
X144255140Y-119672321D01*
X144499994Y-119701279D01*
X144793464Y-119721982D01*
X145073667Y-119730018D01*
X145539334Y-119730445D01*
X145539334Y-117529111D01*
X145158334Y-117529039D01*
X145143194Y-117529086D01*
X144887595Y-117538908D01*
X144587081Y-117562533D01*
X144303537Y-117595175D01*
X144053748Y-117641656D01*
X143679990Y-117772998D01*
X143392443Y-117969493D01*
X143184938Y-118234667D01*
X143078853Y-118490998D01*
X143071765Y-118730129D01*
X142335678Y-118730129D01*
X142322000Y-118629778D01*
X142328395Y-118523695D01*
X142389956Y-118236617D01*
X142502600Y-117937063D01*
X142648751Y-117666816D01*
X142810832Y-117467662D01*
X142908540Y-117382549D01*
X143182100Y-117186610D01*
X143483615Y-117035963D01*
X143829596Y-116926159D01*
X144236554Y-116852751D01*
X144721000Y-116811293D01*
X145299445Y-116797336D01*
X145496856Y-116795330D01*
X145725411Y-116793264D01*
X145904413Y-116802285D01*
X146039867Y-116833696D01*
X146137778Y-116898797D01*
X146204150Y-117008890D01*
X146244990Y-117175277D01*
X146266300Y-117409257D01*
X146269283Y-117529111D01*
X146274087Y-117722133D01*
G36*
X146274087Y-117722133D02*
G01*
X146274355Y-118125207D01*
X146273111Y-118629778D01*
X146272914Y-119008084D01*
X146271639Y-119397631D01*
X146268420Y-119697681D01*
X146262398Y-119921318D01*
X146252716Y-120081630D01*
X146238515Y-120191702D01*
X146218938Y-120264619D01*
X146193127Y-120313468D01*
X146160223Y-120351334D01*
X146125386Y-120382504D01*
X146060396Y-120419005D01*
X145964656Y-120442772D01*
X145817637Y-120456460D01*
X145598808Y-120462724D01*
X145287639Y-120464223D01*
X145042907Y-120462346D01*
X144508609Y-120440204D01*
X144062471Y-120389766D01*
X143688480Y-120306825D01*
X143370625Y-120187173D01*
X143092892Y-120026605D01*
X142839271Y-119820912D01*
X142809330Y-119791648D01*
X142624995Y-119549104D01*
X142469496Y-119245063D01*
X142362082Y-118923847D01*
X142335678Y-118730129D01*
X143071765Y-118730129D01*
X143163174Y-118984804D01*
X143311526Y-119214390D01*
X143545011Y-119426437D01*
X143851957Y-119575450D01*
X144247690Y-119671128D01*
X144255140Y-119672321D01*
X144499994Y-119701279D01*
X144793464Y-119721982D01*
X145073667Y-119730018D01*
X145539334Y-119730445D01*
X145539334Y-117529111D01*
X145158334Y-117529039D01*
X145143194Y-117529086D01*
X144887595Y-117538908D01*
X144587081Y-117562533D01*
X144303537Y-117595175D01*
X144053748Y-117641656D01*
X143679990Y-117772998D01*
X143392443Y-117969493D01*
X143184938Y-118234667D01*
X143078853Y-118490998D01*
X143071765Y-118730129D01*
X142335678Y-118730129D01*
X142322000Y-118629778D01*
X142328395Y-118523695D01*
X142389956Y-118236617D01*
X142502600Y-117937063D01*
X142648751Y-117666816D01*
X142810832Y-117467662D01*
X142908540Y-117382549D01*
X143182100Y-117186610D01*
X143483615Y-117035963D01*
X143829596Y-116926159D01*
X144236554Y-116852751D01*
X144721000Y-116811293D01*
X145299445Y-116797336D01*
X145496856Y-116795330D01*
X145725411Y-116793264D01*
X145904413Y-116802285D01*
X146039867Y-116833696D01*
X146137778Y-116898797D01*
X146204150Y-117008890D01*
X146244990Y-117175277D01*
X146266300Y-117409257D01*
X146269283Y-117529111D01*
X146274087Y-117722133D01*
G37*
X121549466Y-116789458D02*
X121606503Y-116820146D01*
X121659247Y-116873454D01*
X121715681Y-116944057D01*
X121737945Y-116973862D01*
X121767937Y-117026338D01*
X121790835Y-117095464D01*
X121807592Y-117194988D01*
X121819164Y-117338660D01*
X121826503Y-117540226D01*
X121830563Y-117813436D01*
X121832300Y-118172037D01*
X121832667Y-118629778D01*
X121832553Y-118922429D01*
X121831461Y-119317867D01*
X121828415Y-119622579D01*
X121822461Y-119850312D01*
X121812646Y-120014816D01*
X121798014Y-120129839D01*
X121777612Y-120209128D01*
X121750486Y-120266432D01*
X121715681Y-120315499D01*
X121563537Y-120437464D01*
X121388824Y-120451862D01*
X121203920Y-120356411D01*
X121183001Y-120339035D01*
X121142121Y-120296397D01*
X121111817Y-120238642D01*
X121089904Y-120149479D01*
X121074196Y-120012619D01*
X121062508Y-119811770D01*
X121052652Y-119530642D01*
X121042445Y-119152945D01*
X121014223Y-118057291D01*
X119687778Y-119260493D01*
X119318608Y-119594376D01*
X118992711Y-119884956D01*
X118731738Y-120109746D01*
X118526366Y-120274355D01*
X118367272Y-120384393D01*
X118245131Y-120445470D01*
X118150620Y-120463196D01*
X118074416Y-120443181D01*
X118007196Y-120391036D01*
X117939635Y-120312370D01*
X117908409Y-120269953D01*
X117880251Y-120217065D01*
X117859196Y-120146275D01*
X117844435Y-120044013D01*
X117835161Y-119896712D01*
X117830565Y-119690804D01*
X117829839Y-119412720D01*
X117832173Y-119048894D01*
X117836761Y-118585755D01*
X117853334Y-117010993D01*
X117986587Y-116903164D01*
X118116913Y-116822206D01*
X118281205Y-116808352D01*
X118453858Y-116903115D01*
X118475417Y-116921038D01*
X118516079Y-116963686D01*
X118546224Y-117021646D01*
X118568029Y-117111174D01*
X118583667Y-117248530D01*
X118595313Y-117449971D01*
X118605144Y-117731757D01*
X118615334Y-118110144D01*
X118643556Y-119209391D01*
X119546667Y-118390421D01*
X119980357Y-117997254D01*
X120359215Y-117655288D01*
X120669897Y-117378541D01*
X120920388Y-117161688D01*
X121118673Y-116999403D01*
X121272739Y-116886363D01*
X121390569Y-116817242D01*
X121480150Y-116786715D01*
X121549466Y-116789458D01*
G36*
X121549466Y-116789458D02*
G01*
X121606503Y-116820146D01*
X121659247Y-116873454D01*
X121715681Y-116944057D01*
X121737945Y-116973862D01*
X121767937Y-117026338D01*
X121790835Y-117095464D01*
X121807592Y-117194988D01*
X121819164Y-117338660D01*
X121826503Y-117540226D01*
X121830563Y-117813436D01*
X121832300Y-118172037D01*
X121832667Y-118629778D01*
X121832553Y-118922429D01*
X121831461Y-119317867D01*
X121828415Y-119622579D01*
X121822461Y-119850312D01*
X121812646Y-120014816D01*
X121798014Y-120129839D01*
X121777612Y-120209128D01*
X121750486Y-120266432D01*
X121715681Y-120315499D01*
X121563537Y-120437464D01*
X121388824Y-120451862D01*
X121203920Y-120356411D01*
X121183001Y-120339035D01*
X121142121Y-120296397D01*
X121111817Y-120238642D01*
X121089904Y-120149479D01*
X121074196Y-120012619D01*
X121062508Y-119811770D01*
X121052652Y-119530642D01*
X121042445Y-119152945D01*
X121014223Y-118057291D01*
X119687778Y-119260493D01*
X119318608Y-119594376D01*
X118992711Y-119884956D01*
X118731738Y-120109746D01*
X118526366Y-120274355D01*
X118367272Y-120384393D01*
X118245131Y-120445470D01*
X118150620Y-120463196D01*
X118074416Y-120443181D01*
X118007196Y-120391036D01*
X117939635Y-120312370D01*
X117908409Y-120269953D01*
X117880251Y-120217065D01*
X117859196Y-120146275D01*
X117844435Y-120044013D01*
X117835161Y-119896712D01*
X117830565Y-119690804D01*
X117829839Y-119412720D01*
X117832173Y-119048894D01*
X117836761Y-118585755D01*
X117853334Y-117010993D01*
X117986587Y-116903164D01*
X118116913Y-116822206D01*
X118281205Y-116808352D01*
X118453858Y-116903115D01*
X118475417Y-116921038D01*
X118516079Y-116963686D01*
X118546224Y-117021646D01*
X118568029Y-117111174D01*
X118583667Y-117248530D01*
X118595313Y-117449971D01*
X118605144Y-117731757D01*
X118615334Y-118110144D01*
X118643556Y-119209391D01*
X119546667Y-118390421D01*
X119980357Y-117997254D01*
X120359215Y-117655288D01*
X120669897Y-117378541D01*
X120920388Y-117161688D01*
X121118673Y-116999403D01*
X121272739Y-116886363D01*
X121390569Y-116817242D01*
X121480150Y-116786715D01*
X121549466Y-116789458D01*
G37*
X125535751Y-116820894D02*
X126065782Y-116902472D01*
X126534845Y-117042727D01*
X126928822Y-117237260D01*
X127233593Y-117481668D01*
X127363943Y-117645977D01*
X127511482Y-117891970D01*
X127637841Y-118161261D01*
X127726088Y-118417096D01*
X127759289Y-118622720D01*
X127751491Y-118721296D01*
X127686782Y-118977958D01*
X127570968Y-119260590D01*
X127421509Y-119530174D01*
X127255866Y-119747695D01*
X127204884Y-119799436D01*
X126869457Y-120058309D01*
X126468829Y-120257772D01*
X126037778Y-120379779D01*
X125762957Y-120420341D01*
X125295692Y-120453363D01*
X124846791Y-120442928D01*
X124434342Y-120391702D01*
X124076429Y-120302351D01*
X123791138Y-120177542D01*
X123596556Y-120019939D01*
X123589678Y-120010059D01*
X123554240Y-119883930D01*
X123533045Y-119647676D01*
X123526000Y-119300355D01*
X123530300Y-118989192D01*
X123553899Y-118752281D01*
X123612347Y-118591765D01*
X123721195Y-118494002D01*
X123895989Y-118445349D01*
X124152279Y-118432165D01*
X124505612Y-118440805D01*
X124748714Y-118455866D01*
X124999694Y-118496828D01*
X125162162Y-118567094D01*
X125249457Y-118673272D01*
X125274914Y-118821971D01*
X125274383Y-118844679D01*
X125230872Y-119018648D01*
X125110824Y-119135733D01*
X124904498Y-119201733D01*
X124602156Y-119222445D01*
X124259778Y-119222445D01*
X124259778Y-119414206D01*
X124260029Y-119459882D01*
X124271132Y-119546137D01*
X124317468Y-119597606D01*
X124424372Y-119632294D01*
X124617179Y-119668206D01*
X124644550Y-119672874D01*
X125129301Y-119722391D01*
X125579259Y-119707797D01*
X125983798Y-119634146D01*
X126332292Y-119506493D01*
X126614117Y-119329891D01*
X126818646Y-119109396D01*
X126935254Y-118850062D01*
X126953316Y-118556942D01*
X126925723Y-118412468D01*
X126792306Y-118133021D01*
X126561362Y-117904723D01*
X126236455Y-117730542D01*
X125821146Y-117613448D01*
X125697773Y-117591206D01*
X125251130Y-117538709D01*
X124852093Y-117544855D01*
X124461630Y-117609531D01*
X124285913Y-117643479D01*
X124058725Y-117648567D01*
X123902151Y-117585910D01*
X123801383Y-117451975D01*
X123769462Y-117310739D01*
X123816896Y-117154618D01*
X123863540Y-117087493D01*
X124034712Y-116969834D01*
X124297822Y-116880476D01*
X124640406Y-116822994D01*
X125050000Y-116800961D01*
X125535751Y-116820894D01*
G36*
X125535751Y-116820894D02*
G01*
X126065782Y-116902472D01*
X126534845Y-117042727D01*
X126928822Y-117237260D01*
X127233593Y-117481668D01*
X127363943Y-117645977D01*
X127511482Y-117891970D01*
X127637841Y-118161261D01*
X127726088Y-118417096D01*
X127759289Y-118622720D01*
X127751491Y-118721296D01*
X127686782Y-118977958D01*
X127570968Y-119260590D01*
X127421509Y-119530174D01*
X127255866Y-119747695D01*
X127204884Y-119799436D01*
X126869457Y-120058309D01*
X126468829Y-120257772D01*
X126037778Y-120379779D01*
X125762957Y-120420341D01*
X125295692Y-120453363D01*
X124846791Y-120442928D01*
X124434342Y-120391702D01*
X124076429Y-120302351D01*
X123791138Y-120177542D01*
X123596556Y-120019939D01*
X123589678Y-120010059D01*
X123554240Y-119883930D01*
X123533045Y-119647676D01*
X123526000Y-119300355D01*
X123530300Y-118989192D01*
X123553899Y-118752281D01*
X123612347Y-118591765D01*
X123721195Y-118494002D01*
X123895989Y-118445349D01*
X124152279Y-118432165D01*
X124505612Y-118440805D01*
X124748714Y-118455866D01*
X124999694Y-118496828D01*
X125162162Y-118567094D01*
X125249457Y-118673272D01*
X125274914Y-118821971D01*
X125274383Y-118844679D01*
X125230872Y-119018648D01*
X125110824Y-119135733D01*
X124904498Y-119201733D01*
X124602156Y-119222445D01*
X124259778Y-119222445D01*
X124259778Y-119414206D01*
X124260029Y-119459882D01*
X124271132Y-119546137D01*
X124317468Y-119597606D01*
X124424372Y-119632294D01*
X124617179Y-119668206D01*
X124644550Y-119672874D01*
X125129301Y-119722391D01*
X125579259Y-119707797D01*
X125983798Y-119634146D01*
X126332292Y-119506493D01*
X126614117Y-119329891D01*
X126818646Y-119109396D01*
X126935254Y-118850062D01*
X126953316Y-118556942D01*
X126925723Y-118412468D01*
X126792306Y-118133021D01*
X126561362Y-117904723D01*
X126236455Y-117730542D01*
X125821146Y-117613448D01*
X125697773Y-117591206D01*
X125251130Y-117538709D01*
X124852093Y-117544855D01*
X124461630Y-117609531D01*
X124285913Y-117643479D01*
X124058725Y-117648567D01*
X123902151Y-117585910D01*
X123801383Y-117451975D01*
X123769462Y-117310739D01*
X123816896Y-117154618D01*
X123863540Y-117087493D01*
X124034712Y-116969834D01*
X124297822Y-116880476D01*
X124640406Y-116822994D01*
X125050000Y-116800961D01*
X125535751Y-116820894D01*
G37*
X115789015Y-116944057D02*
X115813758Y-116977475D01*
X115842981Y-117030332D01*
X115865286Y-117100766D01*
X115881606Y-117202392D01*
X115892871Y-117348827D01*
X115900011Y-117553686D01*
X115903959Y-117830585D01*
X115905645Y-118193141D01*
X115906000Y-118654969D01*
X115905856Y-118984553D01*
X115904696Y-119376139D01*
X115901593Y-119677478D01*
X115895630Y-119901967D01*
X115885894Y-120063009D01*
X115871469Y-120174002D01*
X115851440Y-120248346D01*
X115824893Y-120299443D01*
X115790913Y-120340690D01*
X115768337Y-120363977D01*
X115727189Y-120396411D01*
X115670390Y-120420968D01*
X115584049Y-120438745D01*
X115454275Y-120450836D01*
X115267177Y-120458334D01*
X115008864Y-120462335D01*
X114665445Y-120463933D01*
X114223027Y-120464223D01*
X114124655Y-120464190D01*
X113689529Y-120462859D01*
X113351268Y-120459029D01*
X113096495Y-120451958D01*
X112911836Y-120440899D01*
X112783915Y-120425109D01*
X112699355Y-120403843D01*
X112644782Y-120376355D01*
X112592320Y-120326424D01*
X112526014Y-120170842D01*
X112531927Y-119991398D01*
X112612749Y-119833667D01*
X112623696Y-119822286D01*
X112667134Y-119790946D01*
X112733843Y-119767617D01*
X112838758Y-119751136D01*
X112996815Y-119740340D01*
X113222950Y-119734068D01*
X113532097Y-119731157D01*
X113939193Y-119730445D01*
X115172223Y-119730445D01*
X115172223Y-118940223D01*
X114360031Y-118940223D01*
X114181688Y-118939821D01*
X113902838Y-118935834D01*
X113707149Y-118925811D01*
X113574880Y-118907604D01*
X113486292Y-118879061D01*
X113421642Y-118838034D01*
X113403428Y-118822116D01*
X113311390Y-118667241D01*
X113308220Y-118485559D01*
X113395915Y-118317463D01*
X113396225Y-118317121D01*
X113444578Y-118273989D01*
X113511046Y-118243712D01*
X113614583Y-118224054D01*
X113774139Y-118212781D01*
X114008668Y-118207656D01*
X114337121Y-118206445D01*
X115177856Y-118206445D01*
X115160928Y-117881889D01*
X115144000Y-117557334D01*
X113933614Y-117542068D01*
X113808532Y-117540429D01*
X113400433Y-117533030D01*
X113088837Y-117521110D01*
X112860770Y-117501133D01*
X112703259Y-117469565D01*
X112603333Y-117422870D01*
X112548018Y-117357513D01*
X112524343Y-117269960D01*
X112519334Y-117156675D01*
X112519364Y-117144848D01*
X112525133Y-117044693D01*
X112549121Y-116965730D01*
X112603159Y-116905448D01*
X112699083Y-116861333D01*
X112848724Y-116830873D01*
X113063916Y-116811556D01*
X113356492Y-116800868D01*
X113738286Y-116796299D01*
X114221130Y-116795334D01*
X115672029Y-116795334D01*
X115789015Y-116944057D01*
G36*
X115789015Y-116944057D02*
G01*
X115813758Y-116977475D01*
X115842981Y-117030332D01*
X115865286Y-117100766D01*
X115881606Y-117202392D01*
X115892871Y-117348827D01*
X115900011Y-117553686D01*
X115903959Y-117830585D01*
X115905645Y-118193141D01*
X115906000Y-118654969D01*
X115905856Y-118984553D01*
X115904696Y-119376139D01*
X115901593Y-119677478D01*
X115895630Y-119901967D01*
X115885894Y-120063009D01*
X115871469Y-120174002D01*
X115851440Y-120248346D01*
X115824893Y-120299443D01*
X115790913Y-120340690D01*
X115768337Y-120363977D01*
X115727189Y-120396411D01*
X115670390Y-120420968D01*
X115584049Y-120438745D01*
X115454275Y-120450836D01*
X115267177Y-120458334D01*
X115008864Y-120462335D01*
X114665445Y-120463933D01*
X114223027Y-120464223D01*
X114124655Y-120464190D01*
X113689529Y-120462859D01*
X113351268Y-120459029D01*
X113096495Y-120451958D01*
X112911836Y-120440899D01*
X112783915Y-120425109D01*
X112699355Y-120403843D01*
X112644782Y-120376355D01*
X112592320Y-120326424D01*
X112526014Y-120170842D01*
X112531927Y-119991398D01*
X112612749Y-119833667D01*
X112623696Y-119822286D01*
X112667134Y-119790946D01*
X112733843Y-119767617D01*
X112838758Y-119751136D01*
X112996815Y-119740340D01*
X113222950Y-119734068D01*
X113532097Y-119731157D01*
X113939193Y-119730445D01*
X115172223Y-119730445D01*
X115172223Y-118940223D01*
X114360031Y-118940223D01*
X114181688Y-118939821D01*
X113902838Y-118935834D01*
X113707149Y-118925811D01*
X113574880Y-118907604D01*
X113486292Y-118879061D01*
X113421642Y-118838034D01*
X113403428Y-118822116D01*
X113311390Y-118667241D01*
X113308220Y-118485559D01*
X113395915Y-118317463D01*
X113396225Y-118317121D01*
X113444578Y-118273989D01*
X113511046Y-118243712D01*
X113614583Y-118224054D01*
X113774139Y-118212781D01*
X114008668Y-118207656D01*
X114337121Y-118206445D01*
X115177856Y-118206445D01*
X115160928Y-117881889D01*
X115144000Y-117557334D01*
X113933614Y-117542068D01*
X113808532Y-117540429D01*
X113400433Y-117533030D01*
X113088837Y-117521110D01*
X112860770Y-117501133D01*
X112703259Y-117469565D01*
X112603333Y-117422870D01*
X112548018Y-117357513D01*
X112524343Y-117269960D01*
X112519334Y-117156675D01*
X112519364Y-117144848D01*
X112525133Y-117044693D01*
X112549121Y-116965730D01*
X112603159Y-116905448D01*
X112699083Y-116861333D01*
X112848724Y-116830873D01*
X113063916Y-116811556D01*
X113356492Y-116800868D01*
X113738286Y-116796299D01*
X114221130Y-116795334D01*
X115672029Y-116795334D01*
X115789015Y-116944057D01*
G37*
X139173670Y-116795415D02*
X139559154Y-116796376D01*
X139853884Y-116799299D01*
X140071819Y-116805256D01*
X140226913Y-116815318D01*
X140333125Y-116830558D01*
X140404410Y-116852047D01*
X140454726Y-116880858D01*
X140498029Y-116918062D01*
X140506953Y-116926466D01*
X140543172Y-116964160D01*
X140571382Y-117009249D01*
X140592584Y-117074920D01*
X140607779Y-117174359D01*
X140617967Y-117320754D01*
X140624149Y-117527290D01*
X140627326Y-117807155D01*
X140628499Y-118173535D01*
X140628667Y-118639617D01*
X140628485Y-119003564D01*
X140627241Y-119394444D01*
X140624060Y-119695516D01*
X140618074Y-119919910D01*
X140608419Y-120080759D01*
X140594228Y-120191195D01*
X140574635Y-120264348D01*
X140548773Y-120313350D01*
X140515778Y-120351334D01*
X140499107Y-120367219D01*
X140456498Y-120397772D01*
X140396488Y-120421145D01*
X140305436Y-120438296D01*
X140169701Y-120450182D01*
X139975642Y-120457761D01*
X139709618Y-120461989D01*
X139357988Y-120463824D01*
X138907111Y-120464223D01*
X138696568Y-120464163D01*
X138290834Y-120463253D01*
X137978372Y-120460488D01*
X137745543Y-120454911D01*
X137578705Y-120445564D01*
X137464218Y-120431490D01*
X137388439Y-120411732D01*
X137337728Y-120385332D01*
X137298445Y-120351334D01*
X137224814Y-120243337D01*
X137185556Y-120097334D01*
X137213049Y-119977802D01*
X137298445Y-119843334D01*
X137323339Y-119820294D01*
X137372215Y-119788858D01*
X137442793Y-119765732D01*
X137550269Y-119749651D01*
X137709841Y-119739349D01*
X137936708Y-119733558D01*
X138246065Y-119731012D01*
X138653111Y-119730445D01*
X139894889Y-119730445D01*
X139894889Y-118940223D01*
X139089004Y-118940223D01*
X138909914Y-118939496D01*
X138581794Y-118930882D01*
X138345589Y-118908707D01*
X138186914Y-118868185D01*
X138091384Y-118804531D01*
X138044616Y-118712961D01*
X138032223Y-118588689D01*
X138036210Y-118487408D01*
X138062469Y-118378280D01*
X138126439Y-118301522D01*
X138243137Y-118251546D01*
X138427583Y-118222765D01*
X138694793Y-118209594D01*
X139059788Y-118206445D01*
X139900523Y-118206445D01*
X139883595Y-117881889D01*
X139866667Y-117557334D01*
X138628084Y-117542091D01*
X138315130Y-117537696D01*
X137972826Y-117530476D01*
X137718303Y-117520822D01*
X137537037Y-117507568D01*
X137414503Y-117489551D01*
X137336175Y-117465605D01*
X137287528Y-117434565D01*
X137257453Y-117402550D01*
X137192408Y-117244142D01*
X137210212Y-117065711D01*
X137309088Y-116910421D01*
X137325346Y-116895806D01*
X137370246Y-116864048D01*
X137430764Y-116839786D01*
X137520795Y-116822015D01*
X137654236Y-116809729D01*
X137844982Y-116801923D01*
X138106928Y-116797592D01*
X138453971Y-116795731D01*
X138900006Y-116795334D01*
X139173670Y-116795415D01*
G36*
X139173670Y-116795415D02*
G01*
X139559154Y-116796376D01*
X139853884Y-116799299D01*
X140071819Y-116805256D01*
X140226913Y-116815318D01*
X140333125Y-116830558D01*
X140404410Y-116852047D01*
X140454726Y-116880858D01*
X140498029Y-116918062D01*
X140506953Y-116926466D01*
X140543172Y-116964160D01*
X140571382Y-117009249D01*
X140592584Y-117074920D01*
X140607779Y-117174359D01*
X140617967Y-117320754D01*
X140624149Y-117527290D01*
X140627326Y-117807155D01*
X140628499Y-118173535D01*
X140628667Y-118639617D01*
X140628485Y-119003564D01*
X140627241Y-119394444D01*
X140624060Y-119695516D01*
X140618074Y-119919910D01*
X140608419Y-120080759D01*
X140594228Y-120191195D01*
X140574635Y-120264348D01*
X140548773Y-120313350D01*
X140515778Y-120351334D01*
X140499107Y-120367219D01*
X140456498Y-120397772D01*
X140396488Y-120421145D01*
X140305436Y-120438296D01*
X140169701Y-120450182D01*
X139975642Y-120457761D01*
X139709618Y-120461989D01*
X139357988Y-120463824D01*
X138907111Y-120464223D01*
X138696568Y-120464163D01*
X138290834Y-120463253D01*
X137978372Y-120460488D01*
X137745543Y-120454911D01*
X137578705Y-120445564D01*
X137464218Y-120431490D01*
X137388439Y-120411732D01*
X137337728Y-120385332D01*
X137298445Y-120351334D01*
X137224814Y-120243337D01*
X137185556Y-120097334D01*
X137213049Y-119977802D01*
X137298445Y-119843334D01*
X137323339Y-119820294D01*
X137372215Y-119788858D01*
X137442793Y-119765732D01*
X137550269Y-119749651D01*
X137709841Y-119739349D01*
X137936708Y-119733558D01*
X138246065Y-119731012D01*
X138653111Y-119730445D01*
X139894889Y-119730445D01*
X139894889Y-118940223D01*
X139089004Y-118940223D01*
X138909914Y-118939496D01*
X138581794Y-118930882D01*
X138345589Y-118908707D01*
X138186914Y-118868185D01*
X138091384Y-118804531D01*
X138044616Y-118712961D01*
X138032223Y-118588689D01*
X138036210Y-118487408D01*
X138062469Y-118378280D01*
X138126439Y-118301522D01*
X138243137Y-118251546D01*
X138427583Y-118222765D01*
X138694793Y-118209594D01*
X139059788Y-118206445D01*
X139900523Y-118206445D01*
X139883595Y-117881889D01*
X139866667Y-117557334D01*
X138628084Y-117542091D01*
X138315130Y-117537696D01*
X137972826Y-117530476D01*
X137718303Y-117520822D01*
X137537037Y-117507568D01*
X137414503Y-117489551D01*
X137336175Y-117465605D01*
X137287528Y-117434565D01*
X137257453Y-117402550D01*
X137192408Y-117244142D01*
X137210212Y-117065711D01*
X137309088Y-116910421D01*
X137325346Y-116895806D01*
X137370246Y-116864048D01*
X137430764Y-116839786D01*
X137520795Y-116822015D01*
X137654236Y-116809729D01*
X137844982Y-116801923D01*
X138106928Y-116797592D01*
X138453971Y-116795731D01*
X138900006Y-116795334D01*
X139173670Y-116795415D01*
G37*
X96338509Y-116842391D02*
X96428312Y-116934946D01*
X96531314Y-117090354D01*
X96655474Y-117318780D01*
X96808750Y-117630392D01*
X96999099Y-118035357D01*
X97072268Y-118192272D01*
X97221012Y-118508188D01*
X97351486Y-118781219D01*
X97456457Y-118996450D01*
X97528692Y-119138966D01*
X97560956Y-119193852D01*
X97567750Y-119190947D01*
X97617709Y-119121210D01*
X97704165Y-118973520D01*
X97817148Y-118765436D01*
X97946691Y-118514514D01*
X98026555Y-118357072D01*
X98171304Y-118080303D01*
X98283746Y-117885218D01*
X98374824Y-117757832D01*
X98455478Y-117684157D01*
X98536651Y-117650208D01*
X98629284Y-117642000D01*
X98681797Y-117644376D01*
X98762377Y-117665412D01*
X98838947Y-117719730D01*
X98921938Y-117821094D01*
X99021782Y-117983270D01*
X99148912Y-118220020D01*
X99313760Y-118545111D01*
X99362424Y-118641387D01*
X99484713Y-118874730D01*
X99585890Y-119055543D01*
X99656552Y-119167486D01*
X99687298Y-119194223D01*
X99694134Y-119177867D01*
X99741007Y-119073319D01*
X99825310Y-118888626D01*
X99939892Y-118639371D01*
X100077598Y-118341132D01*
X100231273Y-118009490D01*
X100364847Y-117723386D01*
X100512965Y-117413442D01*
X100628319Y-117184744D01*
X100718213Y-117024539D01*
X100789948Y-116920072D01*
X100850829Y-116858588D01*
X100908159Y-116827332D01*
X100955207Y-116812869D01*
X101080734Y-116812127D01*
X101216447Y-116888838D01*
X101222950Y-116893763D01*
X101333369Y-117006941D01*
X101388612Y-117118066D01*
X101388843Y-117121263D01*
X101366139Y-117209574D01*
X101301818Y-117382404D01*
X101203024Y-117624129D01*
X101076902Y-117919127D01*
X100930595Y-118251776D01*
X100771247Y-118606453D01*
X100606002Y-118967534D01*
X100442004Y-119319399D01*
X100286397Y-119646423D01*
X100146324Y-119932985D01*
X100028929Y-120163461D01*
X99941358Y-120322229D01*
X99890752Y-120393667D01*
X99718715Y-120460511D01*
X99510227Y-120428703D01*
X99483406Y-120405218D01*
X99404261Y-120294463D01*
X99293251Y-120110661D01*
X99161166Y-119872074D01*
X99018797Y-119596967D01*
X98619929Y-118800749D01*
X98253995Y-119533708D01*
X98205516Y-119630161D01*
X98070622Y-119891901D01*
X97950480Y-120115848D01*
X97856659Y-120280771D01*
X97800727Y-120365445D01*
X97794999Y-120371661D01*
X97654394Y-120448095D01*
X97479083Y-120456511D01*
X97323878Y-120393667D01*
X97311747Y-120379422D01*
X97250447Y-120276295D01*
X97151761Y-120088540D01*
X97022239Y-119829399D01*
X96868426Y-119512114D01*
X96696873Y-119149927D01*
X96514125Y-118756080D01*
X96412922Y-118535463D01*
X96229058Y-118131826D01*
X96086776Y-117813434D01*
X95981653Y-117568762D01*
X95909267Y-117386283D01*
X95865196Y-117254473D01*
X95845018Y-117161807D01*
X95844310Y-117096759D01*
X95858649Y-117047804D01*
X95931935Y-116943392D01*
X96064947Y-116841887D01*
X96068726Y-116840173D01*
X96166674Y-116805171D01*
X96253949Y-116802521D01*
X96338509Y-116842391D01*
G36*
X96338509Y-116842391D02*
G01*
X96428312Y-116934946D01*
X96531314Y-117090354D01*
X96655474Y-117318780D01*
X96808750Y-117630392D01*
X96999099Y-118035357D01*
X97072268Y-118192272D01*
X97221012Y-118508188D01*
X97351486Y-118781219D01*
X97456457Y-118996450D01*
X97528692Y-119138966D01*
X97560956Y-119193852D01*
X97567750Y-119190947D01*
X97617709Y-119121210D01*
X97704165Y-118973520D01*
X97817148Y-118765436D01*
X97946691Y-118514514D01*
X98026555Y-118357072D01*
X98171304Y-118080303D01*
X98283746Y-117885218D01*
X98374824Y-117757832D01*
X98455478Y-117684157D01*
X98536651Y-117650208D01*
X98629284Y-117642000D01*
X98681797Y-117644376D01*
X98762377Y-117665412D01*
X98838947Y-117719730D01*
X98921938Y-117821094D01*
X99021782Y-117983270D01*
X99148912Y-118220020D01*
X99313760Y-118545111D01*
X99362424Y-118641387D01*
X99484713Y-118874730D01*
X99585890Y-119055543D01*
X99656552Y-119167486D01*
X99687298Y-119194223D01*
X99694134Y-119177867D01*
X99741007Y-119073319D01*
X99825310Y-118888626D01*
X99939892Y-118639371D01*
X100077598Y-118341132D01*
X100231273Y-118009490D01*
X100364847Y-117723386D01*
X100512965Y-117413442D01*
X100628319Y-117184744D01*
X100718213Y-117024539D01*
X100789948Y-116920072D01*
X100850829Y-116858588D01*
X100908159Y-116827332D01*
X100955207Y-116812869D01*
X101080734Y-116812127D01*
X101216447Y-116888838D01*
X101222950Y-116893763D01*
X101333369Y-117006941D01*
X101388612Y-117118066D01*
X101388843Y-117121263D01*
X101366139Y-117209574D01*
X101301818Y-117382404D01*
X101203024Y-117624129D01*
X101076902Y-117919127D01*
X100930595Y-118251776D01*
X100771247Y-118606453D01*
X100606002Y-118967534D01*
X100442004Y-119319399D01*
X100286397Y-119646423D01*
X100146324Y-119932985D01*
X100028929Y-120163461D01*
X99941358Y-120322229D01*
X99890752Y-120393667D01*
X99718715Y-120460511D01*
X99510227Y-120428703D01*
X99483406Y-120405218D01*
X99404261Y-120294463D01*
X99293251Y-120110661D01*
X99161166Y-119872074D01*
X99018797Y-119596967D01*
X98619929Y-118800749D01*
X98253995Y-119533708D01*
X98205516Y-119630161D01*
X98070622Y-119891901D01*
X97950480Y-120115848D01*
X97856659Y-120280771D01*
X97800727Y-120365445D01*
X97794999Y-120371661D01*
X97654394Y-120448095D01*
X97479083Y-120456511D01*
X97323878Y-120393667D01*
X97311747Y-120379422D01*
X97250447Y-120276295D01*
X97151761Y-120088540D01*
X97022239Y-119829399D01*
X96868426Y-119512114D01*
X96696873Y-119149927D01*
X96514125Y-118756080D01*
X96412922Y-118535463D01*
X96229058Y-118131826D01*
X96086776Y-117813434D01*
X95981653Y-117568762D01*
X95909267Y-117386283D01*
X95865196Y-117254473D01*
X95845018Y-117161807D01*
X95844310Y-117096759D01*
X95858649Y-117047804D01*
X95931935Y-116943392D01*
X96064947Y-116841887D01*
X96068726Y-116840173D01*
X96166674Y-116805171D01*
X96253949Y-116802521D01*
X96338509Y-116842391D01*
G37*
X134094265Y-116799680D02*
X134425497Y-116826829D01*
X134702000Y-116874820D01*
X134956413Y-116949126D01*
X135312976Y-117114788D01*
X135568758Y-117328201D01*
X135722876Y-117588524D01*
X135774445Y-117894915D01*
X135769761Y-118051159D01*
X135740798Y-118175145D01*
X135666762Y-118283494D01*
X135526900Y-118420246D01*
X135487008Y-118456890D01*
X135368461Y-118561405D01*
X135256491Y-118646257D01*
X135136322Y-118716024D01*
X134993183Y-118775279D01*
X134812299Y-118828598D01*
X134578898Y-118880557D01*
X134278206Y-118935729D01*
X133895449Y-118998691D01*
X133415856Y-119074018D01*
X133324037Y-119089189D01*
X133012388Y-119157292D01*
X132786300Y-119235959D01*
X132654880Y-119321315D01*
X132627236Y-119409487D01*
X132640340Y-119430840D01*
X132730000Y-119506163D01*
X132870630Y-119589334D01*
X132934627Y-119619287D01*
X133041119Y-119655250D01*
X133173049Y-119679136D01*
X133352271Y-119693230D01*
X133600637Y-119699819D01*
X133940000Y-119701187D01*
X134028924Y-119700820D01*
X134367030Y-119695265D01*
X134691724Y-119684140D01*
X134969851Y-119668809D01*
X135168254Y-119650637D01*
X135345811Y-119630295D01*
X135492072Y-119626381D01*
X135586576Y-119649379D01*
X135662143Y-119702754D01*
X135680425Y-119720719D01*
X135762134Y-119879588D01*
X135755535Y-120057858D01*
X135660750Y-120210952D01*
X135558897Y-120268982D01*
X135378980Y-120332456D01*
X135166861Y-120382704D01*
X135149607Y-120385699D01*
X134936261Y-120411781D01*
X134649328Y-120433649D01*
X134324243Y-120449088D01*
X133996445Y-120455883D01*
X133915282Y-120456092D01*
X133423721Y-120443704D01*
X133023461Y-120403673D01*
X132697562Y-120331015D01*
X132429082Y-120220745D01*
X132201080Y-120067878D01*
X131996614Y-119867428D01*
X131896008Y-119736296D01*
X131837878Y-119588559D01*
X131823334Y-119389977D01*
X131824037Y-119330132D01*
X131843402Y-119166724D01*
X131905325Y-119034096D01*
X132031150Y-118879853D01*
X132137209Y-118769153D01*
X132269191Y-118656423D01*
X132417776Y-118564586D01*
X132598922Y-118488306D01*
X132828583Y-118422247D01*
X133122717Y-118361071D01*
X133497278Y-118299444D01*
X133968223Y-118232028D01*
X134194782Y-118196979D01*
X134534554Y-118124183D01*
X134780232Y-118041687D01*
X134928069Y-117952197D01*
X134974320Y-117858423D01*
X134915239Y-117763073D01*
X134747081Y-117668856D01*
X134731850Y-117662786D01*
X134500055Y-117602396D01*
X134186804Y-117561394D01*
X133819634Y-117540593D01*
X133426085Y-117540806D01*
X133033694Y-117562847D01*
X132670000Y-117607527D01*
X132650366Y-117610772D01*
X132406284Y-117649307D01*
X132245026Y-117667366D01*
X132140039Y-117664378D01*
X132064770Y-117639772D01*
X131992667Y-117592979D01*
X131986819Y-117588627D01*
X131864233Y-117436757D01*
X131840267Y-117259250D01*
X131919301Y-117086345D01*
X131942028Y-117064063D01*
X132090100Y-116988366D01*
X132325008Y-116922749D01*
X132626529Y-116868751D01*
X132974438Y-116827907D01*
X133348512Y-116801756D01*
X133728529Y-116791834D01*
X134094265Y-116799680D01*
G36*
X134094265Y-116799680D02*
G01*
X134425497Y-116826829D01*
X134702000Y-116874820D01*
X134956413Y-116949126D01*
X135312976Y-117114788D01*
X135568758Y-117328201D01*
X135722876Y-117588524D01*
X135774445Y-117894915D01*
X135769761Y-118051159D01*
X135740798Y-118175145D01*
X135666762Y-118283494D01*
X135526900Y-118420246D01*
X135487008Y-118456890D01*
X135368461Y-118561405D01*
X135256491Y-118646257D01*
X135136322Y-118716024D01*
X134993183Y-118775279D01*
X134812299Y-118828598D01*
X134578898Y-118880557D01*
X134278206Y-118935729D01*
X133895449Y-118998691D01*
X133415856Y-119074018D01*
X133324037Y-119089189D01*
X133012388Y-119157292D01*
X132786300Y-119235959D01*
X132654880Y-119321315D01*
X132627236Y-119409487D01*
X132640340Y-119430840D01*
X132730000Y-119506163D01*
X132870630Y-119589334D01*
X132934627Y-119619287D01*
X133041119Y-119655250D01*
X133173049Y-119679136D01*
X133352271Y-119693230D01*
X133600637Y-119699819D01*
X133940000Y-119701187D01*
X134028924Y-119700820D01*
X134367030Y-119695265D01*
X134691724Y-119684140D01*
X134969851Y-119668809D01*
X135168254Y-119650637D01*
X135345811Y-119630295D01*
X135492072Y-119626381D01*
X135586576Y-119649379D01*
X135662143Y-119702754D01*
X135680425Y-119720719D01*
X135762134Y-119879588D01*
X135755535Y-120057858D01*
X135660750Y-120210952D01*
X135558897Y-120268982D01*
X135378980Y-120332456D01*
X135166861Y-120382704D01*
X135149607Y-120385699D01*
X134936261Y-120411781D01*
X134649328Y-120433649D01*
X134324243Y-120449088D01*
X133996445Y-120455883D01*
X133915282Y-120456092D01*
X133423721Y-120443704D01*
X133023461Y-120403673D01*
X132697562Y-120331015D01*
X132429082Y-120220745D01*
X132201080Y-120067878D01*
X131996614Y-119867428D01*
X131896008Y-119736296D01*
X131837878Y-119588559D01*
X131823334Y-119389977D01*
X131824037Y-119330132D01*
X131843402Y-119166724D01*
X131905325Y-119034096D01*
X132031150Y-118879853D01*
X132137209Y-118769153D01*
X132269191Y-118656423D01*
X132417776Y-118564586D01*
X132598922Y-118488306D01*
X132828583Y-118422247D01*
X133122717Y-118361071D01*
X133497278Y-118299444D01*
X133968223Y-118232028D01*
X134194782Y-118196979D01*
X134534554Y-118124183D01*
X134780232Y-118041687D01*
X134928069Y-117952197D01*
X134974320Y-117858423D01*
X134915239Y-117763073D01*
X134747081Y-117668856D01*
X134731850Y-117662786D01*
X134500055Y-117602396D01*
X134186804Y-117561394D01*
X133819634Y-117540593D01*
X133426085Y-117540806D01*
X133033694Y-117562847D01*
X132670000Y-117607527D01*
X132650366Y-117610772D01*
X132406284Y-117649307D01*
X132245026Y-117667366D01*
X132140039Y-117664378D01*
X132064770Y-117639772D01*
X131992667Y-117592979D01*
X131986819Y-117588627D01*
X131864233Y-117436757D01*
X131840267Y-117259250D01*
X131919301Y-117086345D01*
X131942028Y-117064063D01*
X132090100Y-116988366D01*
X132325008Y-116922749D01*
X132626529Y-116868751D01*
X132974438Y-116827907D01*
X133348512Y-116801756D01*
X133728529Y-116791834D01*
X134094265Y-116799680D01*
G37*
X114038836Y-91209901D02*
X114956377Y-91294133D01*
X115808776Y-91464008D01*
X116627738Y-91726676D01*
X117444965Y-92089286D01*
X118253933Y-92552261D01*
X119122114Y-93183417D01*
X119927211Y-93913151D01*
X120651493Y-94723400D01*
X121277234Y-95596100D01*
X121786705Y-96513188D01*
X121832950Y-96611295D01*
X122220241Y-97558260D01*
X122514527Y-98542264D01*
X122719609Y-99582106D01*
X122839291Y-100696585D01*
X122877376Y-101904499D01*
X122831069Y-103153168D01*
X122684089Y-104382865D01*
X122434153Y-105534001D01*
X122079026Y-106614739D01*
X121616471Y-107633247D01*
X121044251Y-108597688D01*
X120506747Y-109334514D01*
X119764569Y-110163561D01*
X118955628Y-110873666D01*
X118080278Y-111464598D01*
X117138875Y-111936124D01*
X116131771Y-112288013D01*
X115059322Y-112520031D01*
X115047084Y-112521838D01*
X114840555Y-112539960D01*
X114528892Y-112553401D01*
X114140915Y-112561535D01*
X113705441Y-112563735D01*
X113251290Y-112559372D01*
X112932996Y-112552982D01*
X112460742Y-112538175D01*
X112082315Y-112516978D01*
X111770419Y-112487128D01*
X111497760Y-112446365D01*
X111237043Y-112392424D01*
X110943715Y-112322715D01*
X110637683Y-112243333D01*
X110360908Y-112160057D01*
X110088270Y-112063133D01*
X109794651Y-111942807D01*
X109454930Y-111789324D01*
X109043988Y-111592931D01*
X108536706Y-111343874D01*
X107133682Y-110650504D01*
X108257415Y-108804741D01*
X108404532Y-108563163D01*
X108668842Y-108129501D01*
X108905415Y-107741804D01*
X109105605Y-107414214D01*
X109260767Y-107160871D01*
X109362255Y-106995918D01*
X109401424Y-106933495D01*
X109412317Y-106935360D01*
X109500073Y-106996448D01*
X109654245Y-107123228D01*
X109850475Y-107296031D01*
X110199948Y-107594593D01*
X110823834Y-108036092D01*
X111429149Y-108343868D01*
X111866566Y-108497567D01*
X112606425Y-108654643D01*
X113333358Y-108682485D01*
X114036823Y-108582989D01*
X114706279Y-108358052D01*
X115331185Y-108009570D01*
X115900999Y-107539439D01*
X116218063Y-107193170D01*
X116664741Y-106552696D01*
X117031260Y-105809459D01*
X117319372Y-104959652D01*
X117530830Y-103999466D01*
X117540424Y-103939857D01*
X117584745Y-103553507D01*
X117617740Y-103073472D01*
X117639140Y-102532555D01*
X117648680Y-101963556D01*
X117646091Y-101399274D01*
X117631108Y-100872511D01*
X117603462Y-100416067D01*
X117562887Y-100062742D01*
X117407363Y-99262387D01*
X117145675Y-98327469D01*
X116816560Y-97508961D01*
X116420458Y-96807498D01*
X115957809Y-96223713D01*
X115429053Y-95758240D01*
X114834631Y-95411712D01*
X114174982Y-95184764D01*
X114028627Y-95156596D01*
X113661859Y-95119816D01*
X113233232Y-95107811D01*
X112790766Y-95119919D01*
X112382481Y-95155483D01*
X112056397Y-95213844D01*
X111513183Y-95399670D01*
X110882792Y-95738920D01*
X110321484Y-96185369D01*
X110222414Y-96279414D01*
X110042901Y-96445802D01*
X109916027Y-96557793D01*
X109864485Y-96595046D01*
X109851795Y-96577229D01*
X109773686Y-96464725D01*
X109632576Y-96260446D01*
X109437791Y-95977921D01*
X109198652Y-95630676D01*
X108924484Y-95232238D01*
X108624610Y-94796134D01*
X107398064Y-93011785D01*
X107672066Y-92929691D01*
X107700658Y-92920388D01*
X107886780Y-92846498D01*
X108155120Y-92727349D01*
X108474189Y-92577275D01*
X108812495Y-92410609D01*
X108959914Y-92336919D01*
X109778509Y-91956484D01*
X110532998Y-91662294D01*
X111252400Y-91446824D01*
X111965733Y-91302549D01*
X112702017Y-91221944D01*
X113490268Y-91197481D01*
X114038836Y-91209901D01*
G36*
X114038836Y-91209901D02*
G01*
X114956377Y-91294133D01*
X115808776Y-91464008D01*
X116627738Y-91726676D01*
X117444965Y-92089286D01*
X118253933Y-92552261D01*
X119122114Y-93183417D01*
X119927211Y-93913151D01*
X120651493Y-94723400D01*
X121277234Y-95596100D01*
X121786705Y-96513188D01*
X121832950Y-96611295D01*
X122220241Y-97558260D01*
X122514527Y-98542264D01*
X122719609Y-99582106D01*
X122839291Y-100696585D01*
X122877376Y-101904499D01*
X122831069Y-103153168D01*
X122684089Y-104382865D01*
X122434153Y-105534001D01*
X122079026Y-106614739D01*
X121616471Y-107633247D01*
X121044251Y-108597688D01*
X120506747Y-109334514D01*
X119764569Y-110163561D01*
X118955628Y-110873666D01*
X118080278Y-111464598D01*
X117138875Y-111936124D01*
X116131771Y-112288013D01*
X115059322Y-112520031D01*
X115047084Y-112521838D01*
X114840555Y-112539960D01*
X114528892Y-112553401D01*
X114140915Y-112561535D01*
X113705441Y-112563735D01*
X113251290Y-112559372D01*
X112932996Y-112552982D01*
X112460742Y-112538175D01*
X112082315Y-112516978D01*
X111770419Y-112487128D01*
X111497760Y-112446365D01*
X111237043Y-112392424D01*
X110943715Y-112322715D01*
X110637683Y-112243333D01*
X110360908Y-112160057D01*
X110088270Y-112063133D01*
X109794651Y-111942807D01*
X109454930Y-111789324D01*
X109043988Y-111592931D01*
X108536706Y-111343874D01*
X107133682Y-110650504D01*
X108257415Y-108804741D01*
X108404532Y-108563163D01*
X108668842Y-108129501D01*
X108905415Y-107741804D01*
X109105605Y-107414214D01*
X109260767Y-107160871D01*
X109362255Y-106995918D01*
X109401424Y-106933495D01*
X109412317Y-106935360D01*
X109500073Y-106996448D01*
X109654245Y-107123228D01*
X109850475Y-107296031D01*
X110199948Y-107594593D01*
X110823834Y-108036092D01*
X111429149Y-108343868D01*
X111866566Y-108497567D01*
X112606425Y-108654643D01*
X113333358Y-108682485D01*
X114036823Y-108582989D01*
X114706279Y-108358052D01*
X115331185Y-108009570D01*
X115900999Y-107539439D01*
X116218063Y-107193170D01*
X116664741Y-106552696D01*
X117031260Y-105809459D01*
X117319372Y-104959652D01*
X117530830Y-103999466D01*
X117540424Y-103939857D01*
X117584745Y-103553507D01*
X117617740Y-103073472D01*
X117639140Y-102532555D01*
X117648680Y-101963556D01*
X117646091Y-101399274D01*
X117631108Y-100872511D01*
X117603462Y-100416067D01*
X117562887Y-100062742D01*
X117407363Y-99262387D01*
X117145675Y-98327469D01*
X116816560Y-97508961D01*
X116420458Y-96807498D01*
X115957809Y-96223713D01*
X115429053Y-95758240D01*
X114834631Y-95411712D01*
X114174982Y-95184764D01*
X114028627Y-95156596D01*
X113661859Y-95119816D01*
X113233232Y-95107811D01*
X112790766Y-95119919D01*
X112382481Y-95155483D01*
X112056397Y-95213844D01*
X111513183Y-95399670D01*
X110882792Y-95738920D01*
X110321484Y-96185369D01*
X110222414Y-96279414D01*
X110042901Y-96445802D01*
X109916027Y-96557793D01*
X109864485Y-96595046D01*
X109851795Y-96577229D01*
X109773686Y-96464725D01*
X109632576Y-96260446D01*
X109437791Y-95977921D01*
X109198652Y-95630676D01*
X108924484Y-95232238D01*
X108624610Y-94796134D01*
X107398064Y-93011785D01*
X107672066Y-92929691D01*
X107700658Y-92920388D01*
X107886780Y-92846498D01*
X108155120Y-92727349D01*
X108474189Y-92577275D01*
X108812495Y-92410609D01*
X108959914Y-92336919D01*
X109778509Y-91956484D01*
X110532998Y-91662294D01*
X111252400Y-91446824D01*
X111965733Y-91302549D01*
X112702017Y-91221944D01*
X113490268Y-91197481D01*
X114038836Y-91209901D01*
G37*
X91733942Y-105437612D02*
X91719453Y-106069477D01*
X91678026Y-106626726D01*
X91606453Y-107139668D01*
X91501527Y-107638614D01*
X91360039Y-108153871D01*
X91145484Y-108769760D01*
X90751424Y-109601181D01*
X90268054Y-110345879D01*
X89702769Y-110996815D01*
X89062962Y-111546952D01*
X88356030Y-111989251D01*
X87589366Y-112316674D01*
X86770366Y-112522183D01*
X86760511Y-112523832D01*
X86161972Y-112581422D01*
X85504332Y-112573736D01*
X84834482Y-112505511D01*
X84199313Y-112381487D01*
X83645715Y-112206403D01*
X83409420Y-112099858D01*
X83101670Y-111937917D01*
X82785436Y-111752700D01*
X82493716Y-111564592D01*
X82259507Y-111393979D01*
X82115806Y-111261246D01*
X82082817Y-111224807D01*
X82043490Y-111212067D01*
X82017206Y-111275307D01*
X81997835Y-111434684D01*
X81979247Y-111710357D01*
X81945107Y-112284785D01*
X79330058Y-112302670D01*
X76715009Y-112320554D01*
X76895951Y-112011800D01*
X76906736Y-111993547D01*
X76959353Y-111907852D01*
X77007086Y-111831511D01*
X77050192Y-111757890D01*
X77088928Y-111680357D01*
X77123551Y-111592281D01*
X77154318Y-111487028D01*
X77181485Y-111357968D01*
X77205310Y-111198466D01*
X77226049Y-111001891D01*
X77243959Y-110761612D01*
X77259298Y-110470995D01*
X77272321Y-110123408D01*
X77283286Y-109712219D01*
X77292449Y-109230795D01*
X77300068Y-108672506D01*
X77306399Y-108030717D01*
X77311699Y-107298797D01*
X77316225Y-106470114D01*
X77320234Y-105538035D01*
X77323983Y-104495929D01*
X77327728Y-103337162D01*
X77331727Y-102055103D01*
X77335250Y-100951766D01*
X82286505Y-100951766D01*
X82286505Y-108049513D01*
X82627903Y-108273441D01*
X82759192Y-108354107D01*
X83059812Y-108515256D01*
X83344838Y-108643584D01*
X83469662Y-108687034D01*
X83866845Y-108773776D01*
X84369032Y-108818071D01*
X84624392Y-108827288D01*
X84861430Y-108825192D01*
X85037881Y-108801519D01*
X85196148Y-108749774D01*
X85378634Y-108663464D01*
X85729333Y-108432265D01*
X86033154Y-108105217D01*
X86276352Y-107683755D01*
X86461240Y-107161275D01*
X86590132Y-106531169D01*
X86665343Y-105786831D01*
X86689185Y-104921655D01*
X86688026Y-104724961D01*
X86653749Y-103813603D01*
X86570517Y-103020597D01*
X86436305Y-102337578D01*
X86249089Y-101756177D01*
X86006844Y-101268029D01*
X85707546Y-100864766D01*
X85583377Y-100741690D01*
X85198556Y-100485283D01*
X84746816Y-100329254D01*
X84247725Y-100274490D01*
X83720852Y-100321879D01*
X83185769Y-100472307D01*
X82662043Y-100726663D01*
X82286505Y-100951766D01*
X77335250Y-100951766D01*
X77336236Y-100643119D01*
X77370376Y-90230484D01*
X80084489Y-90212631D01*
X80281864Y-90211428D01*
X80862581Y-90209046D01*
X81393734Y-90208562D01*
X81860825Y-90209878D01*
X82249355Y-90212896D01*
X82544827Y-90217515D01*
X82732742Y-90223638D01*
X82798602Y-90231165D01*
X82790175Y-90255020D01*
X82727321Y-90368113D01*
X82623215Y-90532579D01*
X82612830Y-90548302D01*
X82532114Y-90675288D01*
X82464436Y-90798840D01*
X82408651Y-90931686D01*
X82363610Y-91086551D01*
X82328165Y-91276163D01*
X82301170Y-91513247D01*
X82281476Y-91810531D01*
X82267936Y-92180741D01*
X82259402Y-92636603D01*
X82254728Y-93190844D01*
X82252764Y-93856190D01*
X82252365Y-94645368D01*
X82253080Y-95261517D01*
X82255271Y-95866436D01*
X82258779Y-96414934D01*
X82263445Y-96893657D01*
X82269111Y-97289247D01*
X82275616Y-97588348D01*
X82282802Y-97777603D01*
X82290509Y-97843656D01*
X82315365Y-97833403D01*
X82424639Y-97761210D01*
X82580697Y-97642646D01*
X82806937Y-97483200D01*
X83232012Y-97248268D01*
X83717855Y-97038705D01*
X84219119Y-96875739D01*
X84640269Y-96792638D01*
X85164787Y-96739666D01*
X85732463Y-96721313D01*
X86299487Y-96737603D01*
X86822052Y-96788556D01*
X87256351Y-96874196D01*
X87698564Y-97018456D01*
X88436280Y-97368171D01*
X89119350Y-97833094D01*
X89735173Y-98402519D01*
X90271147Y-99065741D01*
X90714670Y-99812055D01*
X90824781Y-100040908D01*
X91133346Y-100812844D01*
X91374588Y-101650642D01*
X91551554Y-102569070D01*
X91667293Y-103582897D01*
X91724852Y-104706890D01*
X91727524Y-104921655D01*
X91733942Y-105437612D01*
G36*
X91733942Y-105437612D02*
G01*
X91719453Y-106069477D01*
X91678026Y-106626726D01*
X91606453Y-107139668D01*
X91501527Y-107638614D01*
X91360039Y-108153871D01*
X91145484Y-108769760D01*
X90751424Y-109601181D01*
X90268054Y-110345879D01*
X89702769Y-110996815D01*
X89062962Y-111546952D01*
X88356030Y-111989251D01*
X87589366Y-112316674D01*
X86770366Y-112522183D01*
X86760511Y-112523832D01*
X86161972Y-112581422D01*
X85504332Y-112573736D01*
X84834482Y-112505511D01*
X84199313Y-112381487D01*
X83645715Y-112206403D01*
X83409420Y-112099858D01*
X83101670Y-111937917D01*
X82785436Y-111752700D01*
X82493716Y-111564592D01*
X82259507Y-111393979D01*
X82115806Y-111261246D01*
X82082817Y-111224807D01*
X82043490Y-111212067D01*
X82017206Y-111275307D01*
X81997835Y-111434684D01*
X81979247Y-111710357D01*
X81945107Y-112284785D01*
X79330058Y-112302670D01*
X76715009Y-112320554D01*
X76895951Y-112011800D01*
X76906736Y-111993547D01*
X76959353Y-111907852D01*
X77007086Y-111831511D01*
X77050192Y-111757890D01*
X77088928Y-111680357D01*
X77123551Y-111592281D01*
X77154318Y-111487028D01*
X77181485Y-111357968D01*
X77205310Y-111198466D01*
X77226049Y-111001891D01*
X77243959Y-110761612D01*
X77259298Y-110470995D01*
X77272321Y-110123408D01*
X77283286Y-109712219D01*
X77292449Y-109230795D01*
X77300068Y-108672506D01*
X77306399Y-108030717D01*
X77311699Y-107298797D01*
X77316225Y-106470114D01*
X77320234Y-105538035D01*
X77323983Y-104495929D01*
X77327728Y-103337162D01*
X77331727Y-102055103D01*
X77335250Y-100951766D01*
X82286505Y-100951766D01*
X82286505Y-108049513D01*
X82627903Y-108273441D01*
X82759192Y-108354107D01*
X83059812Y-108515256D01*
X83344838Y-108643584D01*
X83469662Y-108687034D01*
X83866845Y-108773776D01*
X84369032Y-108818071D01*
X84624392Y-108827288D01*
X84861430Y-108825192D01*
X85037881Y-108801519D01*
X85196148Y-108749774D01*
X85378634Y-108663464D01*
X85729333Y-108432265D01*
X86033154Y-108105217D01*
X86276352Y-107683755D01*
X86461240Y-107161275D01*
X86590132Y-106531169D01*
X86665343Y-105786831D01*
X86689185Y-104921655D01*
X86688026Y-104724961D01*
X86653749Y-103813603D01*
X86570517Y-103020597D01*
X86436305Y-102337578D01*
X86249089Y-101756177D01*
X86006844Y-101268029D01*
X85707546Y-100864766D01*
X85583377Y-100741690D01*
X85198556Y-100485283D01*
X84746816Y-100329254D01*
X84247725Y-100274490D01*
X83720852Y-100321879D01*
X83185769Y-100472307D01*
X82662043Y-100726663D01*
X82286505Y-100951766D01*
X77335250Y-100951766D01*
X77336236Y-100643119D01*
X77370376Y-90230484D01*
X80084489Y-90212631D01*
X80281864Y-90211428D01*
X80862581Y-90209046D01*
X81393734Y-90208562D01*
X81860825Y-90209878D01*
X82249355Y-90212896D01*
X82544827Y-90217515D01*
X82732742Y-90223638D01*
X82798602Y-90231165D01*
X82790175Y-90255020D01*
X82727321Y-90368113D01*
X82623215Y-90532579D01*
X82612830Y-90548302D01*
X82532114Y-90675288D01*
X82464436Y-90798840D01*
X82408651Y-90931686D01*
X82363610Y-91086551D01*
X82328165Y-91276163D01*
X82301170Y-91513247D01*
X82281476Y-91810531D01*
X82267936Y-92180741D01*
X82259402Y-92636603D01*
X82254728Y-93190844D01*
X82252764Y-93856190D01*
X82252365Y-94645368D01*
X82253080Y-95261517D01*
X82255271Y-95866436D01*
X82258779Y-96414934D01*
X82263445Y-96893657D01*
X82269111Y-97289247D01*
X82275616Y-97588348D01*
X82282802Y-97777603D01*
X82290509Y-97843656D01*
X82315365Y-97833403D01*
X82424639Y-97761210D01*
X82580697Y-97642646D01*
X82806937Y-97483200D01*
X83232012Y-97248268D01*
X83717855Y-97038705D01*
X84219119Y-96875739D01*
X84640269Y-96792638D01*
X85164787Y-96739666D01*
X85732463Y-96721313D01*
X86299487Y-96737603D01*
X86822052Y-96788556D01*
X87256351Y-96874196D01*
X87698564Y-97018456D01*
X88436280Y-97368171D01*
X89119350Y-97833094D01*
X89735173Y-98402519D01*
X90271147Y-99065741D01*
X90714670Y-99812055D01*
X90824781Y-100040908D01*
X91133346Y-100812844D01*
X91374588Y-101650642D01*
X91551554Y-102569070D01*
X91667293Y-103582897D01*
X91724852Y-104706890D01*
X91727524Y-104921655D01*
X91733942Y-105437612D01*
G37*
X107167381Y-107586160D02*
X107136716Y-108136696D01*
X107070441Y-108648942D01*
X106970437Y-109075645D01*
X106810867Y-109514660D01*
X106440984Y-110238154D01*
X105968196Y-110874691D01*
X105397400Y-111419935D01*
X104733491Y-111869548D01*
X103981363Y-112219191D01*
X103145913Y-112464527D01*
X102805238Y-112519863D01*
X102318419Y-112558319D01*
X101788239Y-112566967D01*
X101259005Y-112546505D01*
X100775021Y-112497629D01*
X100380591Y-112421037D01*
X100182392Y-112360733D01*
X99732249Y-112184266D01*
X99274666Y-111960223D01*
X98856855Y-111712900D01*
X98526025Y-111466595D01*
X98521960Y-111463040D01*
X98340671Y-111309328D01*
X98201190Y-111199876D01*
X98133418Y-111158172D01*
X98126008Y-111168129D01*
X98109243Y-111275678D01*
X98097591Y-111476267D01*
X98093225Y-111738549D01*
X98093225Y-112318925D01*
X95532741Y-112318925D01*
X95464580Y-112318914D01*
X94892917Y-112317914D01*
X94368248Y-112315425D01*
X93905498Y-112311632D01*
X93519597Y-112306722D01*
X93225471Y-112300879D01*
X93038049Y-112294288D01*
X92972258Y-112287136D01*
X92973790Y-112280885D01*
X93016834Y-112188621D01*
X93107061Y-112015278D01*
X93228306Y-111792109D01*
X93484354Y-111328871D01*
X93521898Y-106755388D01*
X98366344Y-106755388D01*
X98368248Y-107116730D01*
X98377476Y-107496401D01*
X98395554Y-107770832D01*
X98423797Y-107957894D01*
X98463521Y-108075454D01*
X98514622Y-108159401D01*
X98707061Y-108388239D01*
X98964906Y-108626474D01*
X99247511Y-108838740D01*
X99514234Y-108989672D01*
X99662218Y-109045052D01*
X100002963Y-109118786D01*
X100448002Y-109156482D01*
X100917215Y-109150774D01*
X101362787Y-109073235D01*
X101734698Y-108913052D01*
X102056471Y-108663009D01*
X102146987Y-108570520D01*
X102382662Y-108255106D01*
X102510173Y-107915133D01*
X102548467Y-107506052D01*
X102538093Y-107289931D01*
X102435496Y-106845025D01*
X102219962Y-106463155D01*
X101887566Y-106140026D01*
X101434384Y-105871339D01*
X100856493Y-105652795D01*
X100623521Y-105595443D01*
X100341481Y-105556174D01*
X99986534Y-105534366D01*
X99527096Y-105527034D01*
X99452463Y-105527038D01*
X99108747Y-105531234D01*
X98813497Y-105541376D01*
X98596072Y-105556132D01*
X98485833Y-105574175D01*
X98473147Y-105580032D01*
X98432133Y-105616815D01*
X98403085Y-105690731D01*
X98383994Y-105821665D01*
X98372847Y-106029497D01*
X98367634Y-106334111D01*
X98366344Y-106755388D01*
X93521898Y-106755388D01*
X93523870Y-106515162D01*
X93529744Y-105814045D01*
X93537960Y-104919868D01*
X93546585Y-104143594D01*
X93556315Y-103474245D01*
X93567846Y-102900841D01*
X93581877Y-102412405D01*
X93599103Y-101997958D01*
X93620222Y-101646523D01*
X93645930Y-101347119D01*
X93676924Y-101088771D01*
X93713900Y-100860498D01*
X93757556Y-100651323D01*
X93808589Y-100450268D01*
X93867695Y-100246354D01*
X93935570Y-100028602D01*
X94202970Y-99345961D01*
X94569164Y-98715057D01*
X95025208Y-98174905D01*
X95575277Y-97722681D01*
X96223548Y-97355557D01*
X96974195Y-97070708D01*
X97831394Y-96865307D01*
X98799319Y-96736528D01*
X99137621Y-96710920D01*
X99707377Y-96692196D01*
X100272094Y-96709058D01*
X100858212Y-96764347D01*
X101492168Y-96860906D01*
X102200403Y-97001579D01*
X103009354Y-97189208D01*
X103196340Y-97234606D01*
X103665915Y-97346321D01*
X104110979Y-97449184D01*
X104504542Y-97537118D01*
X104819612Y-97604048D01*
X105029200Y-97643897D01*
X105512756Y-97723321D01*
X104832938Y-99370989D01*
X104662893Y-99782374D01*
X104495606Y-100185475D01*
X104352074Y-100529639D01*
X104239343Y-100798025D01*
X104164460Y-100973795D01*
X104134472Y-101040108D01*
X104129755Y-101041058D01*
X104042852Y-101011452D01*
X103871971Y-100935579D01*
X103647938Y-100826945D01*
X103182294Y-100615389D01*
X102541536Y-100384073D01*
X101885722Y-100206930D01*
X101240499Y-100088409D01*
X100631514Y-100032957D01*
X100084411Y-100045025D01*
X99624839Y-100129061D01*
X99304089Y-100262400D01*
X98939816Y-100535655D01*
X98659396Y-100906359D01*
X98470856Y-101363107D01*
X98382225Y-101894495D01*
X98351013Y-102384248D01*
X99980318Y-102388708D01*
X100529781Y-102393316D01*
X101137525Y-102409679D01*
X101656705Y-102440561D01*
X102114176Y-102488964D01*
X102536793Y-102557889D01*
X102951414Y-102650340D01*
X103384892Y-102769318D01*
X104033481Y-102995787D01*
X104796357Y-103368730D01*
X105465878Y-103825553D01*
X106035440Y-104359830D01*
X106498440Y-104965135D01*
X106848274Y-105635044D01*
X107078338Y-106363130D01*
X107114367Y-106559222D01*
X107160558Y-107044585D01*
X107166372Y-107506052D01*
X107167381Y-107586160D01*
G36*
X107167381Y-107586160D02*
G01*
X107136716Y-108136696D01*
X107070441Y-108648942D01*
X106970437Y-109075645D01*
X106810867Y-109514660D01*
X106440984Y-110238154D01*
X105968196Y-110874691D01*
X105397400Y-111419935D01*
X104733491Y-111869548D01*
X103981363Y-112219191D01*
X103145913Y-112464527D01*
X102805238Y-112519863D01*
X102318419Y-112558319D01*
X101788239Y-112566967D01*
X101259005Y-112546505D01*
X100775021Y-112497629D01*
X100380591Y-112421037D01*
X100182392Y-112360733D01*
X99732249Y-112184266D01*
X99274666Y-111960223D01*
X98856855Y-111712900D01*
X98526025Y-111466595D01*
X98521960Y-111463040D01*
X98340671Y-111309328D01*
X98201190Y-111199876D01*
X98133418Y-111158172D01*
X98126008Y-111168129D01*
X98109243Y-111275678D01*
X98097591Y-111476267D01*
X98093225Y-111738549D01*
X98093225Y-112318925D01*
X95532741Y-112318925D01*
X95464580Y-112318914D01*
X94892917Y-112317914D01*
X94368248Y-112315425D01*
X93905498Y-112311632D01*
X93519597Y-112306722D01*
X93225471Y-112300879D01*
X93038049Y-112294288D01*
X92972258Y-112287136D01*
X92973790Y-112280885D01*
X93016834Y-112188621D01*
X93107061Y-112015278D01*
X93228306Y-111792109D01*
X93484354Y-111328871D01*
X93521898Y-106755388D01*
X98366344Y-106755388D01*
X98368248Y-107116730D01*
X98377476Y-107496401D01*
X98395554Y-107770832D01*
X98423797Y-107957894D01*
X98463521Y-108075454D01*
X98514622Y-108159401D01*
X98707061Y-108388239D01*
X98964906Y-108626474D01*
X99247511Y-108838740D01*
X99514234Y-108989672D01*
X99662218Y-109045052D01*
X100002963Y-109118786D01*
X100448002Y-109156482D01*
X100917215Y-109150774D01*
X101362787Y-109073235D01*
X101734698Y-108913052D01*
X102056471Y-108663009D01*
X102146987Y-108570520D01*
X102382662Y-108255106D01*
X102510173Y-107915133D01*
X102548467Y-107506052D01*
X102538093Y-107289931D01*
X102435496Y-106845025D01*
X102219962Y-106463155D01*
X101887566Y-106140026D01*
X101434384Y-105871339D01*
X100856493Y-105652795D01*
X100623521Y-105595443D01*
X100341481Y-105556174D01*
X99986534Y-105534366D01*
X99527096Y-105527034D01*
X99452463Y-105527038D01*
X99108747Y-105531234D01*
X98813497Y-105541376D01*
X98596072Y-105556132D01*
X98485833Y-105574175D01*
X98473147Y-105580032D01*
X98432133Y-105616815D01*
X98403085Y-105690731D01*
X98383994Y-105821665D01*
X98372847Y-106029497D01*
X98367634Y-106334111D01*
X98366344Y-106755388D01*
X93521898Y-106755388D01*
X93523870Y-106515162D01*
X93529744Y-105814045D01*
X93537960Y-104919868D01*
X93546585Y-104143594D01*
X93556315Y-103474245D01*
X93567846Y-102900841D01*
X93581877Y-102412405D01*
X93599103Y-101997958D01*
X93620222Y-101646523D01*
X93645930Y-101347119D01*
X93676924Y-101088771D01*
X93713900Y-100860498D01*
X93757556Y-100651323D01*
X93808589Y-100450268D01*
X93867695Y-100246354D01*
X93935570Y-100028602D01*
X94202970Y-99345961D01*
X94569164Y-98715057D01*
X95025208Y-98174905D01*
X95575277Y-97722681D01*
X96223548Y-97355557D01*
X96974195Y-97070708D01*
X97831394Y-96865307D01*
X98799319Y-96736528D01*
X99137621Y-96710920D01*
X99707377Y-96692196D01*
X100272094Y-96709058D01*
X100858212Y-96764347D01*
X101492168Y-96860906D01*
X102200403Y-97001579D01*
X103009354Y-97189208D01*
X103196340Y-97234606D01*
X103665915Y-97346321D01*
X104110979Y-97449184D01*
X104504542Y-97537118D01*
X104819612Y-97604048D01*
X105029200Y-97643897D01*
X105512756Y-97723321D01*
X104832938Y-99370989D01*
X104662893Y-99782374D01*
X104495606Y-100185475D01*
X104352074Y-100529639D01*
X104239343Y-100798025D01*
X104164460Y-100973795D01*
X104134472Y-101040108D01*
X104129755Y-101041058D01*
X104042852Y-101011452D01*
X103871971Y-100935579D01*
X103647938Y-100826945D01*
X103182294Y-100615389D01*
X102541536Y-100384073D01*
X101885722Y-100206930D01*
X101240499Y-100088409D01*
X100631514Y-100032957D01*
X100084411Y-100045025D01*
X99624839Y-100129061D01*
X99304089Y-100262400D01*
X98939816Y-100535655D01*
X98659396Y-100906359D01*
X98470856Y-101363107D01*
X98382225Y-101894495D01*
X98351013Y-102384248D01*
X99980318Y-102388708D01*
X100529781Y-102393316D01*
X101137525Y-102409679D01*
X101656705Y-102440561D01*
X102114176Y-102488964D01*
X102536793Y-102557889D01*
X102951414Y-102650340D01*
X103384892Y-102769318D01*
X104033481Y-102995787D01*
X104796357Y-103368730D01*
X105465878Y-103825553D01*
X106035440Y-104359830D01*
X106498440Y-104965135D01*
X106848274Y-105635044D01*
X107078338Y-106363130D01*
X107114367Y-106559222D01*
X107160558Y-107044585D01*
X107166372Y-107506052D01*
X107167381Y-107586160D01*
G37*
X152973866Y-112453882D02*
X152966836Y-112983370D01*
X152958111Y-113439473D01*
X152947512Y-113827838D01*
X152934862Y-114154111D01*
X152919983Y-114423936D01*
X152902699Y-114642962D01*
X152882830Y-114816834D01*
X152860199Y-114951197D01*
X152834629Y-115051699D01*
X152805941Y-115123985D01*
X152773959Y-115173701D01*
X152738504Y-115206494D01*
X152699399Y-115228009D01*
X152656466Y-115243893D01*
X152609527Y-115259791D01*
X152558405Y-115281351D01*
X152529641Y-115292155D01*
X152476877Y-115303954D01*
X152398477Y-115314764D01*
X152288894Y-115324629D01*
X152142583Y-115333592D01*
X151953997Y-115341696D01*
X151717590Y-115348985D01*
X151427816Y-115355502D01*
X151079129Y-115361290D01*
X150665983Y-115366393D01*
X150182831Y-115370854D01*
X149624128Y-115374717D01*
X148984327Y-115378024D01*
X148257882Y-115380819D01*
X147439247Y-115383146D01*
X146522877Y-115385047D01*
X145503223Y-115386566D01*
X144374742Y-115387747D01*
X143131886Y-115388632D01*
X141769109Y-115389266D01*
X140280865Y-115389691D01*
X138661609Y-115389951D01*
X138148470Y-115390001D01*
X136564356Y-115390034D01*
X135109638Y-115389835D01*
X133778836Y-115389364D01*
X132566468Y-115388582D01*
X131467054Y-115387449D01*
X130475115Y-115385924D01*
X129585168Y-115383969D01*
X128791734Y-115381544D01*
X128089332Y-115378609D01*
X127472482Y-115375123D01*
X126935702Y-115371048D01*
X126473513Y-115366343D01*
X126080433Y-115360969D01*
X125750983Y-115354885D01*
X125479681Y-115348053D01*
X125261048Y-115340432D01*
X125089602Y-115331983D01*
X124959863Y-115322666D01*
X124866351Y-115312440D01*
X124803584Y-115301267D01*
X124766083Y-115289106D01*
X124754151Y-115283694D01*
X124705306Y-115265916D01*
X124660513Y-115252933D01*
X124619590Y-115239090D01*
X124582357Y-115218734D01*
X124548631Y-115186211D01*
X124518230Y-115135866D01*
X124490974Y-115062045D01*
X124466680Y-114959095D01*
X124445167Y-114821360D01*
X124426254Y-114643188D01*
X124409758Y-114418923D01*
X124395498Y-114142911D01*
X124383293Y-113809500D01*
X124372961Y-113413033D01*
X124364320Y-112947858D01*
X124357189Y-112408320D01*
X124354849Y-112158479D01*
X126155380Y-112158479D01*
X126157355Y-112182404D01*
X126193573Y-112201793D01*
X126275402Y-112217123D01*
X126414212Y-112228867D01*
X126621369Y-112237501D01*
X126908243Y-112243500D01*
X127286202Y-112247339D01*
X127766615Y-112249492D01*
X128360850Y-112250436D01*
X129080276Y-112250645D01*
X132093867Y-112250645D01*
X131839111Y-111789758D01*
X131584354Y-111328871D01*
X131584354Y-97946076D01*
X131839111Y-97485188D01*
X132093867Y-97024301D01*
X126707176Y-97024301D01*
X126687701Y-104108307D01*
X126668225Y-111192312D01*
X126477267Y-111600138D01*
X126376590Y-111802276D01*
X126262588Y-112004768D01*
X126176496Y-112129304D01*
X126176280Y-112129543D01*
X126155380Y-112158479D01*
X124354849Y-112158479D01*
X124351386Y-111788765D01*
X124346730Y-111083539D01*
X124343039Y-110286987D01*
X124340131Y-109393456D01*
X124337825Y-108397292D01*
X124335939Y-107292840D01*
X124334292Y-106074446D01*
X124332702Y-104736457D01*
X124330987Y-103273217D01*
X124328966Y-101679073D01*
X124328704Y-101486084D01*
X124326450Y-99902042D01*
X124324295Y-98448245D01*
X124322398Y-97119035D01*
X124320918Y-95908756D01*
X124320015Y-94811752D01*
X124319849Y-93822365D01*
X124320579Y-92934939D01*
X124322365Y-92143818D01*
X124325365Y-91443344D01*
X124329740Y-90827861D01*
X124335649Y-90291712D01*
X124343252Y-89829241D01*
X124352708Y-89434791D01*
X124364176Y-89102705D01*
X124377816Y-88827326D01*
X124393788Y-88602998D01*
X124412250Y-88424065D01*
X124433364Y-88284869D01*
X124457287Y-88179754D01*
X124484179Y-88103063D01*
X124514201Y-88049139D01*
X124547511Y-88012326D01*
X124584269Y-87986967D01*
X124624635Y-87967406D01*
X124668767Y-87947985D01*
X124716826Y-87923049D01*
X124730888Y-87915102D01*
X124943674Y-87838184D01*
X125176610Y-87806570D01*
X125439193Y-87806581D01*
X125443569Y-88404017D01*
X125444679Y-88472766D01*
X125528139Y-89171607D01*
X125740708Y-89829154D01*
X126079432Y-90438441D01*
X126541356Y-90992503D01*
X126789237Y-91218483D01*
X127341170Y-91593044D01*
X127943381Y-91854243D01*
X128578331Y-92001941D01*
X129228480Y-92035999D01*
X129876290Y-91956275D01*
X130504222Y-91762631D01*
X131020414Y-91493656D01*
X133304994Y-91493656D01*
X133605427Y-91709804D01*
X133859511Y-91912950D01*
X134217537Y-92244300D01*
X134623629Y-92659576D01*
X135062406Y-93142952D01*
X135518492Y-93678602D01*
X135635945Y-93821845D01*
X135835914Y-94067526D01*
X136097300Y-94389847D01*
X136411445Y-94778053D01*
X136769690Y-95221385D01*
X137163373Y-95709084D01*
X137583837Y-96230393D01*
X138022421Y-96774554D01*
X138223584Y-97024301D01*
X138470466Y-97330809D01*
X138919312Y-97888399D01*
X139360300Y-98436568D01*
X139784770Y-98964557D01*
X140184063Y-99461607D01*
X140549518Y-99916962D01*
X140872478Y-100319863D01*
X141144281Y-100659551D01*
X141356268Y-100925270D01*
X141499781Y-101106261D01*
X141566159Y-101191766D01*
X141571637Y-101223897D01*
X141553414Y-101285011D01*
X141506191Y-101381158D01*
X141425255Y-101519156D01*
X141305891Y-101705827D01*
X141143387Y-101947991D01*
X140933028Y-102252467D01*
X140670100Y-102626075D01*
X140349890Y-103075635D01*
X139967685Y-103607968D01*
X139518769Y-104229893D01*
X138998429Y-104948230D01*
X138401953Y-105769800D01*
X137926686Y-106423762D01*
X137346847Y-107220993D01*
X136836804Y-107921116D01*
X136390625Y-108531900D01*
X136002378Y-109061117D01*
X135666132Y-109516535D01*
X135375955Y-109905925D01*
X135125917Y-110237057D01*
X134910084Y-110517702D01*
X134722526Y-110755629D01*
X134557312Y-110958609D01*
X134408509Y-111134411D01*
X134270187Y-111290806D01*
X134136414Y-111435564D01*
X134001258Y-111576456D01*
X133858788Y-111721250D01*
X133333760Y-112250645D01*
X136863089Y-112250789D01*
X140392419Y-112250932D01*
X140370241Y-111823186D01*
X140369166Y-111801693D01*
X140364957Y-111630694D01*
X140372937Y-111466855D01*
X140398444Y-111301201D01*
X140446818Y-111124757D01*
X140523396Y-110928550D01*
X140633515Y-110703604D01*
X140782516Y-110440946D01*
X140975735Y-110131601D01*
X141218511Y-109766594D01*
X141516182Y-109336951D01*
X141874086Y-108833697D01*
X142297562Y-108247858D01*
X142791947Y-107570459D01*
X143362580Y-106792527D01*
X145376827Y-104050309D01*
X145394573Y-107229830D01*
X145396146Y-107526415D01*
X145398920Y-108325280D01*
X145397659Y-109004769D01*
X145390877Y-109577739D01*
X145377090Y-110057051D01*
X145354813Y-110455562D01*
X145322561Y-110786132D01*
X145278848Y-111061620D01*
X145222190Y-111294883D01*
X145151101Y-111498782D01*
X145064097Y-111686174D01*
X144959692Y-111869920D01*
X144836401Y-112062877D01*
X144712466Y-112250645D01*
X151153401Y-112250645D01*
X150987026Y-112028737D01*
X150960970Y-111993631D01*
X150752658Y-111671877D01*
X150609057Y-111346617D01*
X150514760Y-110973920D01*
X150454361Y-110509854D01*
X150452702Y-110489624D01*
X150443937Y-110298207D01*
X150436024Y-109978839D01*
X150428996Y-109538819D01*
X150422888Y-108985443D01*
X150417734Y-108326010D01*
X150413570Y-107567817D01*
X150410428Y-106718163D01*
X150408343Y-105784345D01*
X150407351Y-104773660D01*
X150407484Y-103693407D01*
X150408778Y-102550883D01*
X150411267Y-101353386D01*
X150413904Y-100279229D01*
X150416724Y-99109985D01*
X150419501Y-98063859D01*
X150422582Y-97133522D01*
X150426317Y-96311645D01*
X150431053Y-95590899D01*
X150437140Y-94963954D01*
X150444926Y-94423482D01*
X150454759Y-93962154D01*
X150466989Y-93572639D01*
X150481963Y-93247609D01*
X150500030Y-92979736D01*
X150521539Y-92761689D01*
X150546838Y-92586139D01*
X150576276Y-92445758D01*
X150610201Y-92333217D01*
X150648962Y-92241185D01*
X150692908Y-92162334D01*
X150742386Y-92089336D01*
X150797746Y-92014860D01*
X150859337Y-91931577D01*
X150918908Y-91848121D01*
X151034049Y-91683109D01*
X151103018Y-91579006D01*
X151104683Y-91574645D01*
X151080602Y-91554959D01*
X150995618Y-91538532D01*
X150840276Y-91525114D01*
X150605118Y-91514452D01*
X150280689Y-91506293D01*
X149857533Y-91500386D01*
X149326192Y-91496479D01*
X148677210Y-91494320D01*
X147901132Y-91493656D01*
X144647753Y-91493656D01*
X144819217Y-91697430D01*
X144918590Y-91837386D01*
X145084002Y-92167376D01*
X145228959Y-92577793D01*
X145339594Y-93033051D01*
X145346646Y-93076271D01*
X145367626Y-93304110D01*
X145383515Y-93656232D01*
X145394353Y-94135075D01*
X145400183Y-94743076D01*
X145401047Y-95482674D01*
X145396988Y-96356306D01*
X145376827Y-99272987D01*
X143294301Y-96639458D01*
X143234652Y-96564023D01*
X142706544Y-95895462D01*
X142255681Y-95322902D01*
X141874887Y-94836606D01*
X141556987Y-94426839D01*
X141294807Y-94083867D01*
X141081170Y-93797954D01*
X140908902Y-93559365D01*
X140770827Y-93358364D01*
X140659770Y-93185217D01*
X140568555Y-93030187D01*
X140490008Y-92883540D01*
X140416954Y-92735541D01*
X140304569Y-92473567D01*
X140231969Y-92197208D01*
X140212658Y-91899116D01*
X140214597Y-91493656D01*
X133304994Y-91493656D01*
X131020414Y-91493656D01*
X131094737Y-91454928D01*
X131630294Y-91033025D01*
X131779174Y-90884285D01*
X132219214Y-90333561D01*
X132531458Y-89735898D01*
X132717578Y-89087441D01*
X132779247Y-88384335D01*
X132779247Y-87806559D01*
X142580756Y-87806559D01*
X143193107Y-87806532D01*
X144508613Y-87806354D01*
X145696984Y-87806225D01*
X146764792Y-87806404D01*
X147718610Y-87807152D01*
X148565008Y-87808728D01*
X149310558Y-87811392D01*
X149961831Y-87815404D01*
X150525400Y-87821023D01*
X151007835Y-87828510D01*
X151415709Y-87838125D01*
X151755592Y-87850127D01*
X152034057Y-87864775D01*
X152257675Y-87882330D01*
X152433017Y-87903052D01*
X152566656Y-87927201D01*
X152665161Y-87955035D01*
X152735107Y-87986816D01*
X152783062Y-88022802D01*
X152815601Y-88063254D01*
X152839293Y-88108431D01*
X152860710Y-88158594D01*
X152886424Y-88214002D01*
X152886886Y-88214907D01*
X152899370Y-88251177D01*
X152910822Y-88311910D01*
X152921285Y-88402712D01*
X152930801Y-88529187D01*
X152939416Y-88696939D01*
X152947171Y-88911574D01*
X152954111Y-89178696D01*
X152960280Y-89503910D01*
X152965719Y-89892822D01*
X152970474Y-90351034D01*
X152974587Y-90884154D01*
X152978102Y-91497784D01*
X152981063Y-92197531D01*
X152983513Y-92988998D01*
X152985494Y-93877791D01*
X152987052Y-94869514D01*
X152988229Y-95969773D01*
X152989069Y-97184171D01*
X152989615Y-98518314D01*
X152989911Y-99977806D01*
X152989999Y-101568253D01*
X152990004Y-101880699D01*
X152990156Y-103454570D01*
X152990389Y-104898595D01*
X152990526Y-106218421D01*
X152990390Y-107419693D01*
X152989802Y-108508058D01*
X152988585Y-109489161D01*
X152986560Y-110368649D01*
X152983550Y-111152168D01*
X152979378Y-111845363D01*
X152975706Y-112250645D01*
X152973866Y-112453882D01*
G36*
X152973866Y-112453882D02*
G01*
X152966836Y-112983370D01*
X152958111Y-113439473D01*
X152947512Y-113827838D01*
X152934862Y-114154111D01*
X152919983Y-114423936D01*
X152902699Y-114642962D01*
X152882830Y-114816834D01*
X152860199Y-114951197D01*
X152834629Y-115051699D01*
X152805941Y-115123985D01*
X152773959Y-115173701D01*
X152738504Y-115206494D01*
X152699399Y-115228009D01*
X152656466Y-115243893D01*
X152609527Y-115259791D01*
X152558405Y-115281351D01*
X152529641Y-115292155D01*
X152476877Y-115303954D01*
X152398477Y-115314764D01*
X152288894Y-115324629D01*
X152142583Y-115333592D01*
X151953997Y-115341696D01*
X151717590Y-115348985D01*
X151427816Y-115355502D01*
X151079129Y-115361290D01*
X150665983Y-115366393D01*
X150182831Y-115370854D01*
X149624128Y-115374717D01*
X148984327Y-115378024D01*
X148257882Y-115380819D01*
X147439247Y-115383146D01*
X146522877Y-115385047D01*
X145503223Y-115386566D01*
X144374742Y-115387747D01*
X143131886Y-115388632D01*
X141769109Y-115389266D01*
X140280865Y-115389691D01*
X138661609Y-115389951D01*
X138148470Y-115390001D01*
X136564356Y-115390034D01*
X135109638Y-115389835D01*
X133778836Y-115389364D01*
X132566468Y-115388582D01*
X131467054Y-115387449D01*
X130475115Y-115385924D01*
X129585168Y-115383969D01*
X128791734Y-115381544D01*
X128089332Y-115378609D01*
X127472482Y-115375123D01*
X126935702Y-115371048D01*
X126473513Y-115366343D01*
X126080433Y-115360969D01*
X125750983Y-115354885D01*
X125479681Y-115348053D01*
X125261048Y-115340432D01*
X125089602Y-115331983D01*
X124959863Y-115322666D01*
X124866351Y-115312440D01*
X124803584Y-115301267D01*
X124766083Y-115289106D01*
X124754151Y-115283694D01*
X124705306Y-115265916D01*
X124660513Y-115252933D01*
X124619590Y-115239090D01*
X124582357Y-115218734D01*
X124548631Y-115186211D01*
X124518230Y-115135866D01*
X124490974Y-115062045D01*
X124466680Y-114959095D01*
X124445167Y-114821360D01*
X124426254Y-114643188D01*
X124409758Y-114418923D01*
X124395498Y-114142911D01*
X124383293Y-113809500D01*
X124372961Y-113413033D01*
X124364320Y-112947858D01*
X124357189Y-112408320D01*
X124354849Y-112158479D01*
X126155380Y-112158479D01*
X126157355Y-112182404D01*
X126193573Y-112201793D01*
X126275402Y-112217123D01*
X126414212Y-112228867D01*
X126621369Y-112237501D01*
X126908243Y-112243500D01*
X127286202Y-112247339D01*
X127766615Y-112249492D01*
X128360850Y-112250436D01*
X129080276Y-112250645D01*
X132093867Y-112250645D01*
X131839111Y-111789758D01*
X131584354Y-111328871D01*
X131584354Y-97946076D01*
X131839111Y-97485188D01*
X132093867Y-97024301D01*
X126707176Y-97024301D01*
X126687701Y-104108307D01*
X126668225Y-111192312D01*
X126477267Y-111600138D01*
X126376590Y-111802276D01*
X126262588Y-112004768D01*
X126176496Y-112129304D01*
X126176280Y-112129543D01*
X126155380Y-112158479D01*
X124354849Y-112158479D01*
X124351386Y-111788765D01*
X124346730Y-111083539D01*
X124343039Y-110286987D01*
X124340131Y-109393456D01*
X124337825Y-108397292D01*
X124335939Y-107292840D01*
X124334292Y-106074446D01*
X124332702Y-104736457D01*
X124330987Y-103273217D01*
X124328966Y-101679073D01*
X124328704Y-101486084D01*
X124326450Y-99902042D01*
X124324295Y-98448245D01*
X124322398Y-97119035D01*
X124320918Y-95908756D01*
X124320015Y-94811752D01*
X124319849Y-93822365D01*
X124320579Y-92934939D01*
X124322365Y-92143818D01*
X124325365Y-91443344D01*
X124329740Y-90827861D01*
X124335649Y-90291712D01*
X124343252Y-89829241D01*
X124352708Y-89434791D01*
X124364176Y-89102705D01*
X124377816Y-88827326D01*
X124393788Y-88602998D01*
X124412250Y-88424065D01*
X124433364Y-88284869D01*
X124457287Y-88179754D01*
X124484179Y-88103063D01*
X124514201Y-88049139D01*
X124547511Y-88012326D01*
X124584269Y-87986967D01*
X124624635Y-87967406D01*
X124668767Y-87947985D01*
X124716826Y-87923049D01*
X124730888Y-87915102D01*
X124943674Y-87838184D01*
X125176610Y-87806570D01*
X125439193Y-87806581D01*
X125443569Y-88404017D01*
X125444679Y-88472766D01*
X125528139Y-89171607D01*
X125740708Y-89829154D01*
X126079432Y-90438441D01*
X126541356Y-90992503D01*
X126789237Y-91218483D01*
X127341170Y-91593044D01*
X127943381Y-91854243D01*
X128578331Y-92001941D01*
X129228480Y-92035999D01*
X129876290Y-91956275D01*
X130504222Y-91762631D01*
X131020414Y-91493656D01*
X133304994Y-91493656D01*
X133605427Y-91709804D01*
X133859511Y-91912950D01*
X134217537Y-92244300D01*
X134623629Y-92659576D01*
X135062406Y-93142952D01*
X135518492Y-93678602D01*
X135635945Y-93821845D01*
X135835914Y-94067526D01*
X136097300Y-94389847D01*
X136411445Y-94778053D01*
X136769690Y-95221385D01*
X137163373Y-95709084D01*
X137583837Y-96230393D01*
X138022421Y-96774554D01*
X138223584Y-97024301D01*
X138470466Y-97330809D01*
X138919312Y-97888399D01*
X139360300Y-98436568D01*
X139784770Y-98964557D01*
X140184063Y-99461607D01*
X140549518Y-99916962D01*
X140872478Y-100319863D01*
X141144281Y-100659551D01*
X141356268Y-100925270D01*
X141499781Y-101106261D01*
X141566159Y-101191766D01*
X141571637Y-101223897D01*
X141553414Y-101285011D01*
X141506191Y-101381158D01*
X141425255Y-101519156D01*
X141305891Y-101705827D01*
X141143387Y-101947991D01*
X140933028Y-102252467D01*
X140670100Y-102626075D01*
X140349890Y-103075635D01*
X139967685Y-103607968D01*
X139518769Y-104229893D01*
X138998429Y-104948230D01*
X138401953Y-105769800D01*
X137926686Y-106423762D01*
X137346847Y-107220993D01*
X136836804Y-107921116D01*
X136390625Y-108531900D01*
X136002378Y-109061117D01*
X135666132Y-109516535D01*
X135375955Y-109905925D01*
X135125917Y-110237057D01*
X134910084Y-110517702D01*
X134722526Y-110755629D01*
X134557312Y-110958609D01*
X134408509Y-111134411D01*
X134270187Y-111290806D01*
X134136414Y-111435564D01*
X134001258Y-111576456D01*
X133858788Y-111721250D01*
X133333760Y-112250645D01*
X136863089Y-112250789D01*
X140392419Y-112250932D01*
X140370241Y-111823186D01*
X140369166Y-111801693D01*
X140364957Y-111630694D01*
X140372937Y-111466855D01*
X140398444Y-111301201D01*
X140446818Y-111124757D01*
X140523396Y-110928550D01*
X140633515Y-110703604D01*
X140782516Y-110440946D01*
X140975735Y-110131601D01*
X141218511Y-109766594D01*
X141516182Y-109336951D01*
X141874086Y-108833697D01*
X142297562Y-108247858D01*
X142791947Y-107570459D01*
X143362580Y-106792527D01*
X145376827Y-104050309D01*
X145394573Y-107229830D01*
X145396146Y-107526415D01*
X145398920Y-108325280D01*
X145397659Y-109004769D01*
X145390877Y-109577739D01*
X145377090Y-110057051D01*
X145354813Y-110455562D01*
X145322561Y-110786132D01*
X145278848Y-111061620D01*
X145222190Y-111294883D01*
X145151101Y-111498782D01*
X145064097Y-111686174D01*
X144959692Y-111869920D01*
X144836401Y-112062877D01*
X144712466Y-112250645D01*
X151153401Y-112250645D01*
X150987026Y-112028737D01*
X150960970Y-111993631D01*
X150752658Y-111671877D01*
X150609057Y-111346617D01*
X150514760Y-110973920D01*
X150454361Y-110509854D01*
X150452702Y-110489624D01*
X150443937Y-110298207D01*
X150436024Y-109978839D01*
X150428996Y-109538819D01*
X150422888Y-108985443D01*
X150417734Y-108326010D01*
X150413570Y-107567817D01*
X150410428Y-106718163D01*
X150408343Y-105784345D01*
X150407351Y-104773660D01*
X150407484Y-103693407D01*
X150408778Y-102550883D01*
X150411267Y-101353386D01*
X150413904Y-100279229D01*
X150416724Y-99109985D01*
X150419501Y-98063859D01*
X150422582Y-97133522D01*
X150426317Y-96311645D01*
X150431053Y-95590899D01*
X150437140Y-94963954D01*
X150444926Y-94423482D01*
X150454759Y-93962154D01*
X150466989Y-93572639D01*
X150481963Y-93247609D01*
X150500030Y-92979736D01*
X150521539Y-92761689D01*
X150546838Y-92586139D01*
X150576276Y-92445758D01*
X150610201Y-92333217D01*
X150648962Y-92241185D01*
X150692908Y-92162334D01*
X150742386Y-92089336D01*
X150797746Y-92014860D01*
X150859337Y-91931577D01*
X150918908Y-91848121D01*
X151034049Y-91683109D01*
X151103018Y-91579006D01*
X151104683Y-91574645D01*
X151080602Y-91554959D01*
X150995618Y-91538532D01*
X150840276Y-91525114D01*
X150605118Y-91514452D01*
X150280689Y-91506293D01*
X149857533Y-91500386D01*
X149326192Y-91496479D01*
X148677210Y-91494320D01*
X147901132Y-91493656D01*
X144647753Y-91493656D01*
X144819217Y-91697430D01*
X144918590Y-91837386D01*
X145084002Y-92167376D01*
X145228959Y-92577793D01*
X145339594Y-93033051D01*
X145346646Y-93076271D01*
X145367626Y-93304110D01*
X145383515Y-93656232D01*
X145394353Y-94135075D01*
X145400183Y-94743076D01*
X145401047Y-95482674D01*
X145396988Y-96356306D01*
X145376827Y-99272987D01*
X143294301Y-96639458D01*
X143234652Y-96564023D01*
X142706544Y-95895462D01*
X142255681Y-95322902D01*
X141874887Y-94836606D01*
X141556987Y-94426839D01*
X141294807Y-94083867D01*
X141081170Y-93797954D01*
X140908902Y-93559365D01*
X140770827Y-93358364D01*
X140659770Y-93185217D01*
X140568555Y-93030187D01*
X140490008Y-92883540D01*
X140416954Y-92735541D01*
X140304569Y-92473567D01*
X140231969Y-92197208D01*
X140212658Y-91899116D01*
X140214597Y-91493656D01*
X133304994Y-91493656D01*
X131020414Y-91493656D01*
X131094737Y-91454928D01*
X131630294Y-91033025D01*
X131779174Y-90884285D01*
X132219214Y-90333561D01*
X132531458Y-89735898D01*
X132717578Y-89087441D01*
X132779247Y-88384335D01*
X132779247Y-87806559D01*
X142580756Y-87806559D01*
X143193107Y-87806532D01*
X144508613Y-87806354D01*
X145696984Y-87806225D01*
X146764792Y-87806404D01*
X147718610Y-87807152D01*
X148565008Y-87808728D01*
X149310558Y-87811392D01*
X149961831Y-87815404D01*
X150525400Y-87821023D01*
X151007835Y-87828510D01*
X151415709Y-87838125D01*
X151755592Y-87850127D01*
X152034057Y-87864775D01*
X152257675Y-87882330D01*
X152433017Y-87903052D01*
X152566656Y-87927201D01*
X152665161Y-87955035D01*
X152735107Y-87986816D01*
X152783062Y-88022802D01*
X152815601Y-88063254D01*
X152839293Y-88108431D01*
X152860710Y-88158594D01*
X152886424Y-88214002D01*
X152886886Y-88214907D01*
X152899370Y-88251177D01*
X152910822Y-88311910D01*
X152921285Y-88402712D01*
X152930801Y-88529187D01*
X152939416Y-88696939D01*
X152947171Y-88911574D01*
X152954111Y-89178696D01*
X152960280Y-89503910D01*
X152965719Y-89892822D01*
X152970474Y-90351034D01*
X152974587Y-90884154D01*
X152978102Y-91497784D01*
X152981063Y-92197531D01*
X152983513Y-92988998D01*
X152985494Y-93877791D01*
X152987052Y-94869514D01*
X152988229Y-95969773D01*
X152989069Y-97184171D01*
X152989615Y-98518314D01*
X152989911Y-99977806D01*
X152989999Y-101568253D01*
X152990004Y-101880699D01*
X152990156Y-103454570D01*
X152990389Y-104898595D01*
X152990526Y-106218421D01*
X152990390Y-107419693D01*
X152989802Y-108508058D01*
X152988585Y-109489161D01*
X152986560Y-110368649D01*
X152983550Y-111152168D01*
X152979378Y-111845363D01*
X152975706Y-112250645D01*
X152973866Y-112453882D01*
G37*
D12*
%TO.C,G\u002A\u002A\u002A*%
G36*
X75739743Y-143892996D02*
G01*
X75793282Y-143913859D01*
X75846116Y-143959499D01*
X75891401Y-144012704D01*
X75914510Y-144076299D01*
X75914020Y-144168267D01*
X75911100Y-144209196D01*
X75912694Y-144269509D01*
X75932175Y-144294233D01*
X75977179Y-144299202D01*
X76031161Y-144305092D01*
X76092636Y-144326179D01*
X76119383Y-144350188D01*
X76182567Y-144410665D01*
X76276836Y-144502351D01*
X76396959Y-144620059D01*
X76537704Y-144758603D01*
X76693840Y-144912796D01*
X76860135Y-145077452D01*
X77031357Y-145247385D01*
X77202274Y-145417408D01*
X77367656Y-145582335D01*
X77522270Y-145736980D01*
X77660886Y-145876156D01*
X77778270Y-145994678D01*
X77869192Y-146087358D01*
X77986513Y-146207898D01*
X78001178Y-146842574D01*
X78015843Y-147477249D01*
X78206490Y-147639137D01*
X78397137Y-147801026D01*
X78405053Y-147179104D01*
X78406020Y-147112707D01*
X78409875Y-146935485D01*
X78415042Y-146782844D01*
X78421116Y-146663304D01*
X78427697Y-146585384D01*
X78434383Y-146557604D01*
X78443301Y-146561411D01*
X78490220Y-146593582D01*
X78565192Y-146651407D01*
X78656828Y-146726253D01*
X78857860Y-146894480D01*
X78872167Y-147782877D01*
X78873410Y-147864860D01*
X78875948Y-148083549D01*
X78877141Y-148281734D01*
X78877015Y-148451785D01*
X78875596Y-148586075D01*
X78872910Y-148676973D01*
X78868984Y-148716853D01*
X78868792Y-148717350D01*
X78850261Y-148739247D01*
X78815264Y-148727818D01*
X78751250Y-148679033D01*
X78698494Y-148634966D01*
X78609136Y-148560117D01*
X78492889Y-148462631D01*
X78358847Y-148350131D01*
X78216103Y-148230246D01*
X78074635Y-148111546D01*
X77942729Y-148001160D01*
X77829330Y-147906550D01*
X77743227Y-147835051D01*
X77693211Y-147793995D01*
X77685193Y-147787512D01*
X77637551Y-147746033D01*
X77601289Y-147703625D01*
X77574813Y-147652040D01*
X77556526Y-147583030D01*
X77544832Y-147488349D01*
X77538137Y-147359749D01*
X77534844Y-147188984D01*
X77533358Y-146967806D01*
X77530536Y-146337205D01*
X76663095Y-145473851D01*
X76631688Y-145442592D01*
X76424656Y-145236392D01*
X76255072Y-145066845D01*
X76119288Y-144929802D01*
X76013660Y-144821115D01*
X75934542Y-144736636D01*
X75878288Y-144672215D01*
X75841253Y-144623705D01*
X75819792Y-144586958D01*
X75810259Y-144557824D01*
X75809008Y-144532156D01*
X75812394Y-144505805D01*
X75829135Y-144401113D01*
X75694693Y-144411806D01*
X75668729Y-144413165D01*
X75565778Y-144406437D01*
X75487681Y-144383660D01*
X75479888Y-144379317D01*
X75395047Y-144299784D01*
X75352632Y-144193523D01*
X75355669Y-144076307D01*
X75407183Y-143963912D01*
X75423103Y-143946686D01*
X75492256Y-143912819D01*
X75608105Y-143894463D01*
X75662596Y-143890653D01*
X75739743Y-143892996D01*
G37*
G36*
X72149220Y-147566291D02*
G01*
X72147700Y-147696932D01*
X72140152Y-147791783D01*
X72122396Y-147870593D01*
X72090251Y-147953108D01*
X72039535Y-148059079D01*
X71982374Y-148164433D01*
X71824835Y-148377056D01*
X71632810Y-148542625D01*
X71404448Y-148662534D01*
X71137899Y-148738177D01*
X71055984Y-148745434D01*
X70921541Y-148741665D01*
X70771767Y-148726130D01*
X70629350Y-148701331D01*
X70516981Y-148669765D01*
X70414200Y-148623891D01*
X70210704Y-148489892D01*
X70033826Y-148314490D01*
X69893476Y-148108554D01*
X69799564Y-147882949D01*
X69798616Y-147879661D01*
X69764556Y-147683900D01*
X69763571Y-147495337D01*
X70406914Y-147495337D01*
X70417812Y-147657033D01*
X70479809Y-147816664D01*
X70550579Y-147922600D01*
X70644804Y-148009710D01*
X70770224Y-148072791D01*
X70795144Y-148081952D01*
X70877691Y-148101927D01*
X70967358Y-148102106D01*
X71088471Y-148083291D01*
X71176201Y-148056792D01*
X71310487Y-147973920D01*
X71416506Y-147854627D01*
X71487002Y-147711170D01*
X71514720Y-147555808D01*
X71492405Y-147400799D01*
X71441977Y-147306371D01*
X71356385Y-147203546D01*
X71255380Y-147114093D01*
X71157987Y-147057543D01*
X71005726Y-147027492D01*
X70835353Y-147041393D01*
X70670790Y-147098690D01*
X70651202Y-147109174D01*
X70526570Y-147210275D01*
X70444154Y-147342707D01*
X70406914Y-147495337D01*
X69763571Y-147495337D01*
X69763435Y-147469396D01*
X69793680Y-147259538D01*
X69853718Y-147077716D01*
X69912730Y-146969188D01*
X70057012Y-146779640D01*
X70235041Y-146614692D01*
X70430732Y-146490709D01*
X70463383Y-146474770D01*
X70545350Y-146437999D01*
X70617557Y-146414923D01*
X70697106Y-146402426D01*
X70801098Y-146397390D01*
X70946635Y-146396700D01*
X71004646Y-146397065D01*
X71148370Y-146401431D01*
X71256998Y-146412605D01*
X71348175Y-146433037D01*
X71439548Y-146465180D01*
X71607088Y-146554011D01*
X71783618Y-146694186D01*
X71937620Y-146864903D01*
X72053878Y-147051639D01*
X72093970Y-147137725D01*
X72123493Y-147218043D01*
X72140036Y-147299216D01*
X72147350Y-147400503D01*
X72149184Y-147541164D01*
X72149205Y-147555808D01*
X72149220Y-147566291D01*
G37*
G36*
X76746068Y-145973560D02*
G01*
X76793171Y-146004614D01*
X76867587Y-146062225D01*
X76957531Y-146137454D01*
X77150601Y-146304332D01*
X77150601Y-146967879D01*
X77150601Y-147631427D01*
X77231259Y-147705944D01*
X77263494Y-147734098D01*
X77341583Y-147798142D01*
X77443737Y-147879224D01*
X77558320Y-147968389D01*
X77673691Y-148056681D01*
X77778212Y-148135146D01*
X77860245Y-148194827D01*
X77908149Y-148226770D01*
X77917555Y-148232591D01*
X77934923Y-148253984D01*
X77938341Y-148292886D01*
X77927488Y-148362372D01*
X77902043Y-148475517D01*
X77895611Y-148501986D01*
X77867454Y-148601844D01*
X77841420Y-148671879D01*
X77822441Y-148698291D01*
X77818260Y-148697697D01*
X77774969Y-148674373D01*
X77714954Y-148627608D01*
X77688135Y-148605511D01*
X77612585Y-148547047D01*
X77505736Y-148466780D01*
X77377700Y-148372280D01*
X77238592Y-148271116D01*
X77148888Y-148206076D01*
X77018132Y-148110200D01*
X76906052Y-148026752D01*
X76822328Y-147962963D01*
X76776640Y-147926062D01*
X76761381Y-147911762D01*
X76746310Y-147892579D01*
X76734565Y-147865377D01*
X76725731Y-147823826D01*
X76719394Y-147761595D01*
X76715139Y-147672356D01*
X76712552Y-147549776D01*
X76711217Y-147387527D01*
X76710720Y-147179277D01*
X76710647Y-146918698D01*
X76710740Y-146831611D01*
X76712073Y-146591062D01*
X76714864Y-146382115D01*
X76718962Y-146210183D01*
X76724212Y-146080676D01*
X76730460Y-145999003D01*
X76737554Y-145970577D01*
X76746068Y-145973560D01*
G37*
G36*
X94532214Y-148105405D02*
G01*
X94531511Y-148174538D01*
X94519356Y-148218946D01*
X94501904Y-148292739D01*
X94488843Y-148333942D01*
X94423456Y-148441277D01*
X94324261Y-148540423D01*
X94207357Y-148613829D01*
X94111737Y-148648696D01*
X93950220Y-148664576D01*
X93787646Y-148623565D01*
X93685515Y-148571072D01*
X93559544Y-148460747D01*
X93483636Y-148320097D01*
X93458268Y-148149805D01*
X93461221Y-148124975D01*
X93769706Y-148124975D01*
X93783459Y-148191909D01*
X93840312Y-148263645D01*
X93885625Y-148302263D01*
X93983434Y-148342144D01*
X94079123Y-148323817D01*
X94168829Y-148247472D01*
X94210285Y-148178335D01*
X94211179Y-148100954D01*
X94160019Y-148012985D01*
X94082948Y-147953243D01*
X93987592Y-147934677D01*
X93892790Y-147955785D01*
X93815536Y-148012682D01*
X93772823Y-148101484D01*
X93769706Y-148124975D01*
X93461221Y-148124975D01*
X93474765Y-148011093D01*
X93543504Y-147855434D01*
X93665443Y-147724405D01*
X93707370Y-147694922D01*
X93849302Y-147636095D01*
X94005841Y-147618633D01*
X94161603Y-147640992D01*
X94301203Y-147701630D01*
X94409256Y-147799004D01*
X94418231Y-147811445D01*
X94468651Y-147902592D01*
X94508953Y-148007668D01*
X94531155Y-148100954D01*
X94532214Y-148105405D01*
G37*
G36*
X83368625Y-148253798D02*
G01*
X83305098Y-148396959D01*
X83209700Y-148517557D01*
X83091431Y-148598374D01*
X82973757Y-148633091D01*
X82809280Y-148639087D01*
X82647378Y-148604205D01*
X82504189Y-148532405D01*
X82395854Y-148427650D01*
X82351573Y-148332094D01*
X82326249Y-148200027D01*
X82324986Y-148125220D01*
X82624839Y-148125220D01*
X82652707Y-148218565D01*
X82728024Y-148299372D01*
X82746329Y-148311077D01*
X82847117Y-148339667D01*
X82946985Y-148312417D01*
X83037717Y-148231136D01*
X83073242Y-148154463D01*
X83066891Y-148069190D01*
X83021572Y-147994361D01*
X82947303Y-147940322D01*
X82854099Y-147917419D01*
X82751975Y-147935996D01*
X82707544Y-147960178D01*
X82643444Y-148034153D01*
X82624839Y-148125220D01*
X82324986Y-148125220D01*
X82323847Y-148057774D01*
X82344617Y-147926623D01*
X82388809Y-147827857D01*
X82395737Y-147818724D01*
X82514541Y-147707306D01*
X82655773Y-147639934D01*
X82808914Y-147614399D01*
X82963439Y-147628491D01*
X83108828Y-147680003D01*
X83234558Y-147766726D01*
X83330107Y-147886450D01*
X83384954Y-148036967D01*
X83391278Y-148105291D01*
X83383777Y-148154463D01*
X83368625Y-148253798D01*
G37*
G36*
X88191212Y-147785045D02*
G01*
X88304331Y-147853992D01*
X88395531Y-147961145D01*
X88438288Y-148086384D01*
X88431568Y-148220130D01*
X88374340Y-148352802D01*
X88265570Y-148474820D01*
X88199595Y-148520787D01*
X88122676Y-148545255D01*
X88014074Y-148551639D01*
X87959562Y-148550791D01*
X87877794Y-148539720D01*
X87812501Y-148506980D01*
X87735868Y-148441566D01*
X87675379Y-148379403D01*
X87624404Y-148298522D01*
X87600596Y-148202750D01*
X87597220Y-148164010D01*
X87617033Y-148024043D01*
X87681700Y-147905476D01*
X87781337Y-147815302D01*
X87906057Y-147760512D01*
X88045977Y-147748096D01*
X88191212Y-147785045D01*
G37*
G36*
X75749685Y-145231708D02*
G01*
X75814457Y-145234926D01*
X75922798Y-145241544D01*
X75999555Y-145247920D01*
X76031212Y-145253030D01*
X76019277Y-145270438D01*
X75969928Y-145325370D01*
X75886394Y-145413648D01*
X75772836Y-145531130D01*
X75633415Y-145673675D01*
X75472290Y-145837143D01*
X75293624Y-146017392D01*
X75101576Y-146210280D01*
X74900308Y-146411668D01*
X74693979Y-146617414D01*
X74486751Y-146823376D01*
X74282784Y-147025414D01*
X74086239Y-147219387D01*
X73901276Y-147401153D01*
X73732057Y-147566572D01*
X73582741Y-147711501D01*
X73457490Y-147831801D01*
X73360464Y-147923331D01*
X73295824Y-147981948D01*
X73267730Y-148003512D01*
X73208948Y-148009755D01*
X73105899Y-148014632D01*
X72974950Y-148017714D01*
X72830520Y-148018973D01*
X72687032Y-148018380D01*
X72558907Y-148015907D01*
X72460567Y-148011526D01*
X72406432Y-148005208D01*
X72381999Y-147997301D01*
X72351074Y-147973639D01*
X72346391Y-147930946D01*
X72368420Y-147858319D01*
X72417629Y-147744858D01*
X72494819Y-147576253D01*
X72794108Y-147596301D01*
X73093397Y-147616350D01*
X74190763Y-146508685D01*
X74274824Y-146423850D01*
X74483635Y-146213240D01*
X74680838Y-146014511D01*
X74862198Y-145831920D01*
X75023477Y-145669728D01*
X75160440Y-145532192D01*
X75268848Y-145423573D01*
X75344466Y-145348129D01*
X75383057Y-145310119D01*
X75396302Y-145297472D01*
X75439864Y-145259548D01*
X75481970Y-145237221D01*
X75537634Y-145227279D01*
X75621868Y-145226511D01*
X75749685Y-145231708D01*
G37*
G36*
X94113274Y-141949399D02*
G01*
X94116810Y-142025977D01*
X94120049Y-142153733D01*
X94122959Y-142328731D01*
X94125509Y-142547034D01*
X94127664Y-142804705D01*
X94129394Y-143097809D01*
X94130665Y-143422409D01*
X94131446Y-143774568D01*
X94131703Y-144150349D01*
X94131405Y-144545818D01*
X94127589Y-147174323D01*
X94064210Y-147219073D01*
X94030744Y-147241917D01*
X93952396Y-147294017D01*
X93848017Y-147362586D01*
X93730952Y-147438823D01*
X93577227Y-147545641D01*
X93436741Y-147665086D01*
X93325286Y-147790287D01*
X93189500Y-147966751D01*
X92817914Y-147958560D01*
X92446328Y-147950369D01*
X92446328Y-147733192D01*
X92446328Y-147516015D01*
X92680970Y-147520447D01*
X92733463Y-147521470D01*
X92815469Y-147521312D01*
X92882212Y-147514320D01*
X92943982Y-147495668D01*
X93011067Y-147460527D01*
X93093757Y-147404072D01*
X93202340Y-147321473D01*
X93347105Y-147207903D01*
X93459080Y-147119156D01*
X93550890Y-147042739D01*
X93610532Y-146985470D01*
X93645795Y-146938622D01*
X93664468Y-146893466D01*
X93674343Y-146841275D01*
X93677303Y-146793425D01*
X93680659Y-146691492D01*
X93684299Y-146540607D01*
X93688145Y-146345656D01*
X93692120Y-146111523D01*
X93696146Y-145843091D01*
X93700145Y-145545246D01*
X93704040Y-145222872D01*
X93707752Y-144880853D01*
X93711204Y-144524074D01*
X93731159Y-142329649D01*
X93907831Y-142133658D01*
X93945298Y-142092491D01*
X94021740Y-142011105D01*
X94080042Y-141952587D01*
X94109863Y-141927490D01*
X94113274Y-141949399D01*
G37*
G36*
X87118087Y-142002779D02*
G01*
X87176862Y-142069522D01*
X87277644Y-142185234D01*
X87397984Y-142324370D01*
X87527575Y-142475006D01*
X87656112Y-142625221D01*
X87747993Y-142732812D01*
X87887874Y-142896253D01*
X88025771Y-143057009D01*
X88149671Y-143201084D01*
X88247566Y-143314482D01*
X88279668Y-143351575D01*
X88516703Y-143627398D01*
X88726278Y-143874812D01*
X88906679Y-144091675D01*
X89056190Y-144275846D01*
X89173098Y-144425183D01*
X89255687Y-144537544D01*
X89302242Y-144610787D01*
X89311048Y-144642770D01*
X89305479Y-144646447D01*
X89251800Y-144656045D01*
X89162371Y-144657292D01*
X89054992Y-144651508D01*
X88947464Y-144640010D01*
X88857586Y-144624117D01*
X88803158Y-144605147D01*
X88796108Y-144600145D01*
X88741435Y-144550481D01*
X88667150Y-144472058D01*
X88587208Y-144379464D01*
X88577496Y-144367687D01*
X88493780Y-144266994D01*
X88415615Y-144174216D01*
X88358785Y-144108106D01*
X88281432Y-144020115D01*
X88263258Y-144577390D01*
X88259863Y-144698510D01*
X88255576Y-144899206D01*
X88251565Y-145138474D01*
X88247979Y-145404966D01*
X88244967Y-145687333D01*
X88242678Y-145974226D01*
X88241261Y-146254297D01*
X88237437Y-147373928D01*
X88161504Y-147464170D01*
X88140267Y-147487962D01*
X88063554Y-147543638D01*
X87986746Y-147543309D01*
X87899432Y-147487917D01*
X87822128Y-147421423D01*
X87824226Y-146512686D01*
X87824377Y-146459224D01*
X87825809Y-146181095D01*
X87828315Y-145865052D01*
X87831711Y-145528145D01*
X87835812Y-145187422D01*
X87840432Y-144859932D01*
X87845386Y-144562725D01*
X87864448Y-143521501D01*
X87709028Y-143338187D01*
X87686618Y-143312222D01*
X87611702Y-143232031D01*
X87550400Y-143175968D01*
X87514230Y-143154873D01*
X87511437Y-143155287D01*
X87500073Y-143169545D01*
X87491203Y-143208300D01*
X87484551Y-143277245D01*
X87479839Y-143382074D01*
X87476789Y-143528478D01*
X87475125Y-143722152D01*
X87474568Y-143968787D01*
X87474394Y-144077213D01*
X87473527Y-144283252D01*
X87472012Y-144516789D01*
X87469929Y-144771669D01*
X87467363Y-145041739D01*
X87464394Y-145320844D01*
X87461105Y-145602830D01*
X87457578Y-145881544D01*
X87453895Y-146150832D01*
X87450139Y-146404539D01*
X87446392Y-146636511D01*
X87442736Y-146840595D01*
X87439253Y-147010637D01*
X87436025Y-147140482D01*
X87433135Y-147223977D01*
X87430665Y-147254968D01*
X87427658Y-147254907D01*
X87389621Y-147236495D01*
X87318016Y-147195096D01*
X87224998Y-147137647D01*
X87026414Y-147011801D01*
X87046055Y-144930851D01*
X87049630Y-144565085D01*
X87053507Y-144204746D01*
X87057329Y-143895881D01*
X87061204Y-143634679D01*
X87065242Y-143417333D01*
X87069553Y-143240034D01*
X87074246Y-143098974D01*
X87079432Y-142990343D01*
X87085219Y-142910333D01*
X87091717Y-142855136D01*
X87099036Y-142820943D01*
X87107286Y-142803944D01*
X87121716Y-142779077D01*
X87118498Y-142745640D01*
X87092428Y-142694781D01*
X87038716Y-142617195D01*
X86952568Y-142503580D01*
X86903351Y-142440528D01*
X86809765Y-142328461D01*
X86742491Y-142265361D01*
X86697365Y-142251211D01*
X86670225Y-142285992D01*
X86656907Y-142369686D01*
X86653248Y-142502274D01*
X86653094Y-142543791D01*
X86652445Y-142651817D01*
X86651336Y-142809445D01*
X86649810Y-143011220D01*
X86647911Y-143251692D01*
X86645684Y-143525405D01*
X86643171Y-143826908D01*
X86640418Y-144150747D01*
X86637469Y-144491470D01*
X86634366Y-144843623D01*
X86615838Y-146928332D01*
X86686049Y-146994859D01*
X86702550Y-147009089D01*
X86769926Y-147060597D01*
X86870953Y-147133326D01*
X86995011Y-147219711D01*
X87131484Y-147312188D01*
X87199012Y-147357867D01*
X87324235Y-147445636D01*
X87428138Y-147522482D01*
X87501418Y-147581413D01*
X87534775Y-147615433D01*
X87559618Y-147697884D01*
X87554199Y-147800054D01*
X87514300Y-147882067D01*
X87503442Y-147893346D01*
X87456024Y-147925406D01*
X87397935Y-147933583D01*
X87322044Y-147915458D01*
X87221220Y-147868611D01*
X87088332Y-147790620D01*
X86916249Y-147679064D01*
X86765347Y-147578615D01*
X86601537Y-147469400D01*
X86476509Y-147385639D01*
X86384496Y-147323318D01*
X86319729Y-147278419D01*
X86276439Y-147246926D01*
X86248856Y-147224821D01*
X86231213Y-147208089D01*
X86217741Y-147192713D01*
X86211939Y-147178066D01*
X86206261Y-147142035D01*
X86201552Y-147082338D01*
X86197797Y-146995794D01*
X86194979Y-146879222D01*
X86193082Y-146729441D01*
X86192092Y-146543271D01*
X86191991Y-146317530D01*
X86192764Y-146049038D01*
X86194396Y-145734614D01*
X86196870Y-145371077D01*
X86200171Y-144955247D01*
X86204283Y-144483943D01*
X86228314Y-141820346D01*
X86584862Y-141812133D01*
X86941410Y-141803919D01*
X87118087Y-142002779D01*
G37*
G36*
X95011624Y-144544105D02*
G01*
X95010523Y-147569076D01*
X94915685Y-147679802D01*
X94888153Y-147710367D01*
X94807007Y-147788776D01*
X94733473Y-147846307D01*
X94726306Y-147850808D01*
X94656868Y-147887856D01*
X94606857Y-147904230D01*
X94602431Y-147900752D01*
X94596731Y-147881168D01*
X94591825Y-147841698D01*
X94587695Y-147779360D01*
X94584324Y-147691172D01*
X94581696Y-147574151D01*
X94579792Y-147425315D01*
X94578596Y-147241681D01*
X94578091Y-147020266D01*
X94578259Y-146758089D01*
X94579083Y-146452167D01*
X94580547Y-146099516D01*
X94582632Y-145697156D01*
X94585322Y-145242102D01*
X94588600Y-144731374D01*
X94588850Y-144693546D01*
X94591696Y-144268570D01*
X94594491Y-143860680D01*
X94597205Y-143473653D01*
X94599809Y-143111271D01*
X94602274Y-142777311D01*
X94604571Y-142475554D01*
X94606669Y-142209780D01*
X94608541Y-141983767D01*
X94610157Y-141801295D01*
X94611487Y-141666144D01*
X94612503Y-141582093D01*
X94613175Y-141552922D01*
X94613216Y-141552890D01*
X94642704Y-141549044D01*
X94715021Y-141542373D01*
X94814746Y-141534302D01*
X95012726Y-141519133D01*
X95011624Y-144544105D01*
G37*
G36*
X87559686Y-141197078D02*
G01*
X87568131Y-141207608D01*
X87709534Y-141384096D01*
X87858649Y-141570520D01*
X88009133Y-141758921D01*
X88154642Y-141941342D01*
X88288834Y-142109824D01*
X88405365Y-142256411D01*
X88497891Y-142373145D01*
X88560070Y-142452067D01*
X88683426Y-142609518D01*
X88830876Y-142796991D01*
X88966316Y-142968115D01*
X89103515Y-143140271D01*
X89256240Y-143330836D01*
X89325072Y-143417141D01*
X89412706Y-143530867D01*
X89471183Y-143614796D01*
X89506089Y-143678188D01*
X89523014Y-143730302D01*
X89527545Y-143780397D01*
X89527024Y-143804307D01*
X89505338Y-143895847D01*
X89442233Y-143978376D01*
X89422317Y-143997644D01*
X89366416Y-144044754D01*
X89332245Y-144063135D01*
X89327872Y-144062819D01*
X89314586Y-144059586D01*
X89298179Y-144050776D01*
X89276439Y-144033690D01*
X89247152Y-144005628D01*
X89208106Y-143963891D01*
X89157086Y-143905779D01*
X89091881Y-143828594D01*
X89010277Y-143729636D01*
X88910060Y-143606206D01*
X88789018Y-143455605D01*
X88644937Y-143275133D01*
X88475605Y-143062091D01*
X88278808Y-142813780D01*
X88052333Y-142527500D01*
X87793967Y-142200553D01*
X87501496Y-141830238D01*
X87208211Y-141458837D01*
X86879579Y-141448945D01*
X86786257Y-141447107D01*
X86634945Y-141445743D01*
X86442415Y-141445091D01*
X86217849Y-141445146D01*
X85970426Y-141445906D01*
X85709326Y-141447365D01*
X85443730Y-141449522D01*
X84336513Y-141459991D01*
X84336513Y-144490699D01*
X84336513Y-147521407D01*
X84144197Y-147684560D01*
X84109258Y-147713821D01*
X84023481Y-147782266D01*
X83957798Y-147829867D01*
X83924220Y-147847713D01*
X83923137Y-147846050D01*
X83918795Y-147803332D01*
X83914789Y-147704317D01*
X83911136Y-147550911D01*
X83907852Y-147345024D01*
X83904953Y-147088562D01*
X83902456Y-146783432D01*
X83900376Y-146431542D01*
X83898731Y-146034800D01*
X83897535Y-145595113D01*
X83896806Y-145114388D01*
X83896559Y-144594534D01*
X83896559Y-141341354D01*
X84065208Y-141178150D01*
X84233857Y-141014946D01*
X85823252Y-141014355D01*
X87412648Y-141013764D01*
X87559686Y-141197078D01*
G37*
G36*
X82367428Y-141090376D02*
G01*
X82497497Y-141226116D01*
X82480700Y-144206949D01*
X82463904Y-147187782D01*
X82267867Y-147370895D01*
X82222158Y-147412575D01*
X82139927Y-147482036D01*
X82078098Y-147526890D01*
X82047436Y-147538931D01*
X82045536Y-147527714D01*
X82042680Y-147464813D01*
X82040283Y-147350832D01*
X82038332Y-147190542D01*
X82036816Y-146988714D01*
X82035722Y-146750120D01*
X82035037Y-146479531D01*
X82034750Y-146181718D01*
X82034848Y-145861452D01*
X82035319Y-145523505D01*
X82036151Y-145172647D01*
X82037332Y-144813650D01*
X82038849Y-144451285D01*
X82040690Y-144090323D01*
X82042843Y-143735535D01*
X82045296Y-143391694D01*
X82048036Y-143063568D01*
X82051051Y-142755931D01*
X82054330Y-142473554D01*
X82057859Y-142221206D01*
X82061626Y-142003660D01*
X82074102Y-141365727D01*
X80389745Y-141365727D01*
X78705388Y-141365727D01*
X78718101Y-141167748D01*
X78730813Y-140969769D01*
X80484086Y-140962203D01*
X82237358Y-140954637D01*
X82367428Y-141090376D01*
G37*
G36*
X83036120Y-141493732D02*
G01*
X83114246Y-141497954D01*
X83219131Y-141505051D01*
X83436275Y-141520904D01*
X83416182Y-143269124D01*
X83415237Y-143352685D01*
X83411347Y-143724244D01*
X83407705Y-144115670D01*
X83404389Y-144515745D01*
X83401476Y-144913252D01*
X83399046Y-145296974D01*
X83397175Y-145655692D01*
X83395942Y-145978191D01*
X83395424Y-146253251D01*
X83395239Y-146395162D01*
X83394337Y-146649743D01*
X83392783Y-146882610D01*
X83390663Y-147087604D01*
X83388061Y-147258569D01*
X83385062Y-147389346D01*
X83381750Y-147473778D01*
X83378210Y-147505708D01*
X83365026Y-147505623D01*
X83313732Y-147478852D01*
X83235399Y-147424801D01*
X83140581Y-147350979D01*
X83039834Y-147264898D01*
X82960360Y-147193743D01*
X82977584Y-144345728D01*
X82978694Y-144163376D01*
X82981158Y-143767105D01*
X82983574Y-143389567D01*
X82985914Y-143034753D01*
X82988149Y-142706656D01*
X82990250Y-142409269D01*
X82992187Y-142146585D01*
X82993931Y-141922597D01*
X82995453Y-141741297D01*
X82996724Y-141606678D01*
X82997715Y-141522733D01*
X82998397Y-141493455D01*
X82999439Y-141493157D01*
X83036120Y-141493732D01*
G37*
G36*
X74682198Y-145081361D02*
G01*
X74956173Y-145099698D01*
X73875764Y-146180403D01*
X72795355Y-147261108D01*
X72554963Y-147261108D01*
X72542188Y-147261073D01*
X72419809Y-147256526D01*
X72333552Y-147245315D01*
X72294622Y-147228830D01*
X72294484Y-147228521D01*
X72312172Y-147199974D01*
X72368468Y-147133761D01*
X72460236Y-147033172D01*
X72584342Y-146901499D01*
X72737651Y-146742033D01*
X72917028Y-146558065D01*
X73119339Y-146352886D01*
X73341448Y-146129788D01*
X74408222Y-145063023D01*
X74682198Y-145081361D01*
G37*
G36*
X93158318Y-145930828D02*
G01*
X93237321Y-146009045D01*
X93243972Y-146020145D01*
X93260326Y-146062486D01*
X93270955Y-146124596D01*
X93276579Y-146216180D01*
X93277919Y-146346944D01*
X93275693Y-146526594D01*
X93267575Y-146973191D01*
X93106259Y-147058482D01*
X93029189Y-147097116D01*
X92952178Y-147130810D01*
X92908280Y-147143780D01*
X92901103Y-147136348D01*
X92889234Y-147083045D01*
X92880207Y-146987478D01*
X92874012Y-146860446D01*
X92870640Y-146712748D01*
X92870083Y-146555185D01*
X92872332Y-146398556D01*
X92877379Y-146253660D01*
X92885213Y-146131297D01*
X92895828Y-146042265D01*
X92909213Y-145997366D01*
X92974346Y-145936116D01*
X93066724Y-145906379D01*
X93158318Y-145930828D01*
G37*
G36*
X72360918Y-141595633D02*
G01*
X72503784Y-141737663D01*
X72685734Y-141918109D01*
X72892153Y-142122481D01*
X73114157Y-142341995D01*
X73342860Y-142567866D01*
X73569379Y-142791308D01*
X73784828Y-143003536D01*
X73792624Y-143011211D01*
X74003031Y-143219722D01*
X74190876Y-143408530D01*
X74352844Y-143574169D01*
X74485625Y-143713173D01*
X74585906Y-143822076D01*
X74650374Y-143897413D01*
X74675717Y-143935717D01*
X74681590Y-143993401D01*
X74668510Y-144065443D01*
X74667515Y-144067179D01*
X74637410Y-144102702D01*
X74569867Y-144175421D01*
X74468509Y-144281619D01*
X74336961Y-144417582D01*
X74178848Y-144579593D01*
X73997794Y-144763937D01*
X73797422Y-144966899D01*
X73581358Y-145184763D01*
X73353226Y-145413814D01*
X72063587Y-146705929D01*
X71925664Y-146550897D01*
X71787740Y-146395866D01*
X71939436Y-146235271D01*
X71986254Y-146186605D01*
X72071892Y-146098771D01*
X72189518Y-145978797D01*
X72334300Y-145831589D01*
X72501407Y-145662054D01*
X72686007Y-145475097D01*
X72883269Y-145275626D01*
X73088361Y-145068547D01*
X73166839Y-144989298D01*
X73402042Y-144750691D01*
X73598345Y-144549559D01*
X73758181Y-144383278D01*
X73883985Y-144249223D01*
X73978191Y-144144770D01*
X74043232Y-144067297D01*
X74081544Y-144014178D01*
X74095560Y-143982790D01*
X74096394Y-143971305D01*
X74090559Y-143937011D01*
X74068411Y-143895003D01*
X74024583Y-143838872D01*
X73953710Y-143762213D01*
X73850427Y-143658620D01*
X73709368Y-143521685D01*
X73684748Y-143497955D01*
X73553778Y-143371145D01*
X73401241Y-143222683D01*
X73231673Y-143057045D01*
X73049609Y-142878709D01*
X72859584Y-142692152D01*
X72666133Y-142501852D01*
X72473791Y-142312285D01*
X72287093Y-142127928D01*
X72110575Y-141953260D01*
X71948771Y-141792758D01*
X71806216Y-141650897D01*
X71687446Y-141532157D01*
X71596995Y-141441014D01*
X71539399Y-141381945D01*
X71519192Y-141359428D01*
X71519352Y-141358705D01*
X71541305Y-141330222D01*
X71593078Y-141272466D01*
X71664324Y-141197013D01*
X71809456Y-141046441D01*
X72360918Y-141595633D01*
G37*
G36*
X72145256Y-140199204D02*
G01*
X72250409Y-140209113D01*
X72336372Y-140223446D01*
X72439776Y-140238115D01*
X72499038Y-140224102D01*
X72501243Y-140222742D01*
X72547534Y-140214623D01*
X72636854Y-140209811D01*
X72755527Y-140208079D01*
X72889873Y-140209198D01*
X73026217Y-140212940D01*
X73150880Y-140219078D01*
X73250184Y-140227383D01*
X73310453Y-140237628D01*
X73328280Y-140252239D01*
X73385764Y-140305955D01*
X73479974Y-140396689D01*
X73608341Y-140521897D01*
X73768297Y-140679034D01*
X73957273Y-140865554D01*
X74172698Y-141078913D01*
X74412006Y-141316565D01*
X74672625Y-141575965D01*
X74951989Y-141854569D01*
X75247527Y-142149831D01*
X75556670Y-142459206D01*
X75876850Y-142780150D01*
X78397137Y-145308480D01*
X78404738Y-143821053D01*
X78405197Y-143736351D01*
X78407909Y-143367803D01*
X78411496Y-143054306D01*
X78415944Y-142796462D01*
X78421236Y-142594872D01*
X78427357Y-142450135D01*
X78434294Y-142362853D01*
X78442030Y-142333625D01*
X78448459Y-142335247D01*
X78495035Y-142361702D01*
X78570410Y-142413848D01*
X78661739Y-142482954D01*
X78851756Y-142632283D01*
X78856220Y-143091557D01*
X78857046Y-143179434D01*
X78858360Y-143334042D01*
X78859293Y-143465043D01*
X78859769Y-143560754D01*
X78859709Y-143609491D01*
X78859493Y-143638835D01*
X78859114Y-143723063D01*
X78858627Y-143854757D01*
X78858050Y-144027768D01*
X78857404Y-144235948D01*
X78856708Y-144473147D01*
X78855981Y-144733218D01*
X78855244Y-145010011D01*
X78854285Y-145246532D01*
X78852398Y-145504966D01*
X78849788Y-145739580D01*
X78846566Y-145944570D01*
X78842842Y-146114126D01*
X78838726Y-146242444D01*
X78834327Y-146323715D01*
X78829758Y-146352132D01*
X78820127Y-146344121D01*
X78772597Y-146298918D01*
X78687619Y-146215935D01*
X78567575Y-146097549D01*
X78414845Y-145946137D01*
X78231810Y-145764075D01*
X78020850Y-145553741D01*
X77784347Y-145317512D01*
X77524682Y-145057764D01*
X77244235Y-144776874D01*
X76945388Y-144477219D01*
X76630521Y-144161176D01*
X76302015Y-143831123D01*
X75962250Y-143489435D01*
X73116740Y-140626476D01*
X72573887Y-140647780D01*
X72391895Y-140654319D01*
X72240799Y-140657858D01*
X72133692Y-140657326D01*
X72062949Y-140652471D01*
X72020941Y-140643039D01*
X72000043Y-140628779D01*
X71983331Y-140598499D01*
X71951299Y-140525509D01*
X71914042Y-140431611D01*
X71878649Y-140335509D01*
X71852213Y-140255906D01*
X71841825Y-140211503D01*
X71841832Y-140211276D01*
X71869201Y-140199755D01*
X71939198Y-140194152D01*
X72036367Y-140194093D01*
X72145256Y-140199204D01*
G37*
G36*
X93178489Y-145289739D02*
G01*
X93276868Y-145349113D01*
X93344854Y-145443825D01*
X93370231Y-145566636D01*
X93352517Y-145642729D01*
X93299298Y-145736698D01*
X93224926Y-145815660D01*
X93218201Y-145820241D01*
X93153097Y-145842694D01*
X93067340Y-145852323D01*
X92969678Y-145835990D01*
X92877398Y-145778143D01*
X92815442Y-145690882D01*
X92786994Y-145587245D01*
X92795237Y-145480269D01*
X92843355Y-145382990D01*
X92934531Y-145308447D01*
X92939424Y-145305966D01*
X93061935Y-145272943D01*
X93178489Y-145289739D01*
G37*
G36*
X91002417Y-144496466D02*
G01*
X90978269Y-144695919D01*
X90904466Y-144882541D01*
X90781337Y-145046672D01*
X90615223Y-145172724D01*
X90409326Y-145257538D01*
X90263416Y-145282059D01*
X90070955Y-145265147D01*
X89867283Y-145193009D01*
X89805016Y-145159821D01*
X89650445Y-145035996D01*
X89537013Y-144877909D01*
X89468532Y-144694516D01*
X89448817Y-144494771D01*
X89453823Y-144463219D01*
X89918818Y-144463219D01*
X89919556Y-144587109D01*
X89966073Y-144687153D01*
X90065117Y-144769496D01*
X90162084Y-144814872D01*
X90258141Y-144819545D01*
X90369131Y-144779379D01*
X90382325Y-144772542D01*
X90478156Y-144693697D01*
X90528922Y-144594883D01*
X90537761Y-144487799D01*
X90507812Y-144384145D01*
X90442212Y-144295621D01*
X90344100Y-144233926D01*
X90216614Y-144210762D01*
X90161701Y-144214085D01*
X90041504Y-144254191D01*
X89959667Y-144337978D01*
X89918818Y-144463219D01*
X89453823Y-144463219D01*
X89481681Y-144287629D01*
X89558612Y-144113069D01*
X89683557Y-143959237D01*
X89845467Y-143842143D01*
X90036173Y-143767615D01*
X90247506Y-143741478D01*
X90269925Y-143741816D01*
X90465584Y-143774642D01*
X90640045Y-143855400D01*
X90787134Y-143976026D01*
X90900675Y-144128455D01*
X90974494Y-144304623D01*
X91001156Y-144487799D01*
X91002417Y-144496466D01*
G37*
G36*
X93259407Y-143017880D02*
G01*
X93265819Y-143077940D01*
X93271370Y-143188509D01*
X93275923Y-143344426D01*
X93279342Y-143540529D01*
X93281493Y-143771658D01*
X93282241Y-144032651D01*
X93282241Y-145057081D01*
X93204960Y-145117871D01*
X93202923Y-145119459D01*
X93134368Y-145161325D01*
X93076929Y-145178660D01*
X93075577Y-145178639D01*
X93017279Y-145160275D01*
X92948898Y-145117871D01*
X92871617Y-145057081D01*
X92871617Y-144235192D01*
X92871617Y-143413302D01*
X93040266Y-143238132D01*
X93065564Y-143211663D01*
X93140460Y-143130812D01*
X93194963Y-143068194D01*
X93218692Y-143035592D01*
X93220929Y-143030594D01*
X93255355Y-143008221D01*
X93259407Y-143017880D01*
G37*
G36*
X93887718Y-141143577D02*
G01*
X93906926Y-141170807D01*
X93952056Y-141226565D01*
X93979891Y-141249058D01*
X94015033Y-141265236D01*
X94071543Y-141304071D01*
X94142255Y-141358432D01*
X94050410Y-141472068D01*
X94048325Y-141474647D01*
X93978472Y-141560675D01*
X93878586Y-141683198D01*
X93755608Y-141833739D01*
X93616475Y-142003819D01*
X93468127Y-142184959D01*
X93317505Y-142368683D01*
X93171546Y-142546512D01*
X93037190Y-142709967D01*
X92865021Y-142919393D01*
X92637574Y-143196588D01*
X92432370Y-143447323D01*
X92254494Y-143665381D01*
X92109030Y-143844544D01*
X92109020Y-143844557D01*
X91956897Y-144031407D01*
X91834985Y-144177541D01*
X91737457Y-144288526D01*
X91658489Y-144369932D01*
X91592253Y-144427328D01*
X91532925Y-144466282D01*
X91474679Y-144492364D01*
X91411689Y-144511141D01*
X91336467Y-144528893D01*
X91262637Y-144543144D01*
X91227850Y-144545465D01*
X91222494Y-144523578D01*
X91222131Y-144457475D01*
X91228490Y-144364032D01*
X91245068Y-144190641D01*
X91744362Y-143592099D01*
X91862714Y-143449903D01*
X91996519Y-143288372D01*
X92117851Y-143141097D01*
X92220409Y-143015754D01*
X92297891Y-142920020D01*
X92343997Y-142861570D01*
X92386061Y-142807959D01*
X92477219Y-142698142D01*
X92565912Y-142597598D01*
X92572832Y-142589958D01*
X92627746Y-142526101D01*
X92711563Y-142425557D01*
X92818019Y-142296092D01*
X92940850Y-142145469D01*
X93073792Y-141981454D01*
X93210582Y-141811809D01*
X93344955Y-141644301D01*
X93470648Y-141486692D01*
X93581397Y-141346748D01*
X93670939Y-141232232D01*
X93733009Y-141150910D01*
X93816485Y-141038748D01*
X93887718Y-141143577D01*
G37*
G36*
X77920019Y-141445190D02*
G01*
X77921913Y-141534301D01*
X77924617Y-141697946D01*
X77927395Y-141902551D01*
X77930131Y-142137966D01*
X77932709Y-142394041D01*
X77935013Y-142660623D01*
X77936928Y-142927563D01*
X77936998Y-142938607D01*
X77938059Y-143182785D01*
X77938156Y-143407167D01*
X77937351Y-143605277D01*
X77935707Y-143770637D01*
X77933289Y-143896771D01*
X77930160Y-143977201D01*
X77926382Y-144005450D01*
X77917978Y-144001594D01*
X77872131Y-143969654D01*
X77797665Y-143912394D01*
X77705764Y-143838284D01*
X77502564Y-143671118D01*
X77502564Y-142477296D01*
X77502564Y-141283475D01*
X77592672Y-141252063D01*
X77620591Y-141240527D01*
X77708212Y-141192152D01*
X77796381Y-141130677D01*
X77909983Y-141040703D01*
X77920019Y-141445190D01*
G37*
G36*
X74512507Y-142751811D02*
G01*
X74579598Y-142797835D01*
X74682898Y-142886203D01*
X74823154Y-143017568D01*
X75001112Y-143192583D01*
X75043359Y-143234868D01*
X75182068Y-143374761D01*
X75285275Y-143481693D01*
X75358142Y-143562016D01*
X75405830Y-143622081D01*
X75433503Y-143668242D01*
X75446321Y-143706848D01*
X75449446Y-143744252D01*
X75444920Y-143802164D01*
X75406419Y-143899870D01*
X75332125Y-143955765D01*
X75308774Y-143963757D01*
X75264093Y-143969812D01*
X75211105Y-143952060D01*
X75198692Y-143945021D01*
X75142872Y-143901703D01*
X75058636Y-143828110D01*
X74953949Y-143732006D01*
X74836777Y-143621156D01*
X74715086Y-143503324D01*
X74596841Y-143386274D01*
X74490007Y-143277771D01*
X74402551Y-143185577D01*
X74342438Y-143117459D01*
X74317633Y-143081179D01*
X74316233Y-143052850D01*
X74331337Y-142974694D01*
X74364168Y-142883200D01*
X74397210Y-142816216D01*
X74441239Y-142760477D01*
X74489205Y-142744249D01*
X74512507Y-142751811D01*
G37*
G36*
X93227941Y-141013883D02*
G01*
X93330247Y-141016344D01*
X93401898Y-141021336D01*
X93428892Y-141027996D01*
X93428145Y-141029810D01*
X93403580Y-141064034D01*
X93348394Y-141135072D01*
X93268170Y-141235896D01*
X93168489Y-141359481D01*
X93054931Y-141498798D01*
X92883886Y-141708007D01*
X92674618Y-141964707D01*
X92449583Y-142241379D01*
X92217609Y-142527134D01*
X91987527Y-142811087D01*
X91768165Y-143082350D01*
X91568352Y-143330037D01*
X91396917Y-143543260D01*
X91312444Y-143647751D01*
X91217377Y-143761453D01*
X91146694Y-143838959D01*
X91094003Y-143886562D01*
X91052915Y-143910552D01*
X91017037Y-143917221D01*
X90999419Y-143916762D01*
X90945450Y-143897326D01*
X90919684Y-143836801D01*
X90903088Y-143771759D01*
X90876908Y-143692672D01*
X90876327Y-143691191D01*
X90871619Y-143657485D01*
X90885215Y-143614175D01*
X90922248Y-143552669D01*
X90987848Y-143464378D01*
X91087147Y-143340709D01*
X91101504Y-143323123D01*
X91188265Y-143216424D01*
X91303106Y-143074697D01*
X91438913Y-142906748D01*
X91588569Y-142721383D01*
X91744959Y-142527406D01*
X91900966Y-142333625D01*
X91932451Y-142294490D01*
X92089819Y-142099003D01*
X92246603Y-141904418D01*
X92395571Y-141719701D01*
X92529490Y-141553816D01*
X92641128Y-141415727D01*
X92723253Y-141314399D01*
X92967483Y-141013764D01*
X93198187Y-141013764D01*
X93227941Y-141013883D01*
G37*
G36*
X86087803Y-140221857D02*
G01*
X86447647Y-140222115D01*
X86754111Y-140222797D01*
X87011414Y-140224002D01*
X87223777Y-140225827D01*
X87395418Y-140228372D01*
X87530555Y-140231735D01*
X87633410Y-140236015D01*
X87708200Y-140241309D01*
X87759146Y-140247716D01*
X87790466Y-140255335D01*
X87806380Y-140264264D01*
X87829955Y-140290625D01*
X87892602Y-140366344D01*
X87988717Y-140485923D01*
X88117043Y-140647761D01*
X88276323Y-140850259D01*
X88465298Y-141091816D01*
X88682713Y-141370832D01*
X88927309Y-141685708D01*
X89197828Y-142034843D01*
X89207057Y-142046759D01*
X89317871Y-142188822D01*
X89431567Y-142332996D01*
X89535291Y-142463059D01*
X89616186Y-142562787D01*
X89632628Y-142582805D01*
X89720951Y-142691954D01*
X89803688Y-142796497D01*
X89864818Y-142876235D01*
X89898306Y-142919832D01*
X89981903Y-143021913D01*
X90065781Y-143117642D01*
X90179658Y-143241728D01*
X90486760Y-142853670D01*
X90520276Y-142811264D01*
X90656514Y-142638063D01*
X90802682Y-142451183D01*
X90943283Y-142270473D01*
X91062820Y-142115785D01*
X91082879Y-142089754D01*
X91197735Y-141942581D01*
X91315497Y-141794350D01*
X91423404Y-141661009D01*
X91508694Y-141558510D01*
X91535422Y-141527016D01*
X91630228Y-141413283D01*
X91719107Y-141303994D01*
X91785793Y-141219076D01*
X91823681Y-141169914D01*
X91898204Y-141074645D01*
X91994565Y-140952409D01*
X92104462Y-140813730D01*
X92219592Y-140669134D01*
X92553208Y-140251177D01*
X93126457Y-140251177D01*
X93699706Y-140251177D01*
X93679446Y-140317170D01*
X93673948Y-140337690D01*
X93657456Y-140420971D01*
X93643302Y-140518961D01*
X93634747Y-140583689D01*
X93616836Y-140635303D01*
X93576642Y-140659049D01*
X93497402Y-140672578D01*
X93457315Y-140676396D01*
X93347945Y-140680224D01*
X93211414Y-140679609D01*
X93068174Y-140674459D01*
X92768961Y-140658520D01*
X92380169Y-141151442D01*
X92378988Y-141152940D01*
X92244896Y-141323123D01*
X92105909Y-141499824D01*
X91972342Y-141669905D01*
X91854512Y-141820231D01*
X91762733Y-141937667D01*
X91576101Y-142176929D01*
X91343300Y-142474811D01*
X91142405Y-142731021D01*
X90971144Y-142948364D01*
X90827244Y-143129640D01*
X90708433Y-143277654D01*
X90612437Y-143395207D01*
X90536984Y-143485103D01*
X90479802Y-143550143D01*
X90438619Y-143593130D01*
X90411160Y-143616867D01*
X90395154Y-143624157D01*
X90344334Y-143615491D01*
X90270964Y-143593827D01*
X90258405Y-143589719D01*
X90171474Y-143579754D01*
X90068608Y-143605073D01*
X90041666Y-143614693D01*
X89971535Y-143638778D01*
X89934297Y-143650068D01*
X89932429Y-143650189D01*
X89913449Y-143640295D01*
X89880374Y-143608804D01*
X89829711Y-143551476D01*
X89757968Y-143464071D01*
X89661650Y-143342350D01*
X89537264Y-143182073D01*
X89381317Y-142979002D01*
X89319178Y-142897853D01*
X89144097Y-142669727D01*
X88991089Y-142471388D01*
X88850093Y-142289927D01*
X88711052Y-142112431D01*
X88563904Y-141925989D01*
X88398591Y-141717690D01*
X88394290Y-141712280D01*
X88268921Y-141553375D01*
X88126174Y-141370642D01*
X87983296Y-141186240D01*
X87857530Y-141022332D01*
X87817875Y-140970382D01*
X87722664Y-140847548D01*
X87652118Y-140761985D01*
X87598565Y-140706374D01*
X87554330Y-140673394D01*
X87511742Y-140655724D01*
X87463128Y-140646044D01*
X87460695Y-140645717D01*
X87402702Y-140642453D01*
X87292837Y-140639973D01*
X87137328Y-140638291D01*
X86942405Y-140637421D01*
X86714299Y-140637378D01*
X86459237Y-140638177D01*
X86183451Y-140639832D01*
X85893169Y-140642358D01*
X85856275Y-140642721D01*
X85570190Y-140644986D01*
X85301348Y-140646180D01*
X85055664Y-140646340D01*
X84839054Y-140645502D01*
X84657435Y-140643704D01*
X84516722Y-140640982D01*
X84422831Y-140637374D01*
X84381680Y-140632916D01*
X84364848Y-140624488D01*
X84319652Y-140569937D01*
X84285616Y-140466717D01*
X84274538Y-140420604D01*
X84251027Y-140331518D01*
X84232777Y-140273175D01*
X84230951Y-140265300D01*
X84235111Y-140255838D01*
X84250888Y-140247855D01*
X84282557Y-140241226D01*
X84334397Y-140235825D01*
X84410684Y-140231528D01*
X84515693Y-140228209D01*
X84653703Y-140225744D01*
X84828990Y-140224008D01*
X85045830Y-140222875D01*
X85308501Y-140222221D01*
X85621278Y-140221920D01*
X85988439Y-140221847D01*
X86087803Y-140221857D01*
G37*
G36*
X76731150Y-141104233D02*
G01*
X76775310Y-141129407D01*
X76842305Y-141172964D01*
X76861498Y-141185402D01*
X76952962Y-141233939D01*
X77034254Y-141263285D01*
X77121271Y-141282397D01*
X77127204Y-142269963D01*
X77128194Y-142425838D01*
X77129884Y-142659525D01*
X77131679Y-142874684D01*
X77133501Y-143063289D01*
X77135269Y-143217313D01*
X77136904Y-143328731D01*
X77138326Y-143389515D01*
X77139244Y-143426754D01*
X77137256Y-143503209D01*
X77130343Y-143544015D01*
X77128465Y-143546748D01*
X77115237Y-143551073D01*
X77088346Y-143538613D01*
X77040109Y-143503980D01*
X76962842Y-143441785D01*
X76848860Y-143346641D01*
X76710647Y-143230441D01*
X76710647Y-142166098D01*
X76711001Y-141922973D01*
X76712010Y-141699206D01*
X76713591Y-141501506D01*
X76715664Y-141336393D01*
X76718146Y-141210384D01*
X76720955Y-141129998D01*
X76724010Y-141101755D01*
X76731150Y-141104233D01*
G37*
G36*
X73642403Y-141773116D02*
G01*
X74342638Y-142473808D01*
X74322950Y-142578755D01*
X74321348Y-142586750D01*
X74294223Y-142669785D01*
X74258324Y-142728641D01*
X74231933Y-142752561D01*
X74201484Y-142769950D01*
X74166577Y-142773946D01*
X74123106Y-142761419D01*
X74066965Y-142729243D01*
X73994048Y-142674289D01*
X73900249Y-142593430D01*
X73781462Y-142483536D01*
X73633581Y-142341480D01*
X73452499Y-142164134D01*
X73234112Y-141948370D01*
X73170477Y-141885254D01*
X72993375Y-141708289D01*
X72832159Y-141545296D01*
X72691169Y-141400785D01*
X72574741Y-141279268D01*
X72487214Y-141185256D01*
X72432925Y-141123260D01*
X72416214Y-141097792D01*
X72423906Y-141092948D01*
X72478020Y-141082447D01*
X72570535Y-141075155D01*
X72687030Y-141072425D01*
X72942168Y-141072425D01*
X73642403Y-141773116D01*
G37*
G36*
X71738342Y-140523700D02*
G01*
X71735062Y-140643456D01*
X71721682Y-140732383D01*
X71692639Y-140814427D01*
X71642373Y-140913537D01*
X71594416Y-140992125D01*
X71454162Y-141154893D01*
X71285020Y-141279150D01*
X71099291Y-141354898D01*
X70935703Y-141381602D01*
X70721676Y-141372105D01*
X70522876Y-141315167D01*
X70345458Y-141216637D01*
X70195573Y-141082362D01*
X70079375Y-140918192D01*
X70003016Y-140729973D01*
X69977222Y-140554625D01*
X70478157Y-140554625D01*
X70512187Y-140672641D01*
X70582382Y-140772172D01*
X70688425Y-140839739D01*
X70790565Y-140868336D01*
X70939063Y-140870412D01*
X71066588Y-140823348D01*
X71165430Y-140730631D01*
X71227881Y-140595746D01*
X71242829Y-140516837D01*
X71234273Y-140444874D01*
X71196924Y-140354588D01*
X71186090Y-140333464D01*
X71094633Y-140218030D01*
X70975502Y-140152862D01*
X70833365Y-140139520D01*
X70672891Y-140179563D01*
X70596228Y-140224475D01*
X70519860Y-140317063D01*
X70480609Y-140431606D01*
X70478157Y-140554625D01*
X69977222Y-140554625D01*
X69972651Y-140523555D01*
X69994432Y-140304785D01*
X70003750Y-140267286D01*
X70084871Y-140073400D01*
X70209055Y-139909930D01*
X70367979Y-139781121D01*
X70553321Y-139691222D01*
X70756759Y-139644478D01*
X70969970Y-139645137D01*
X71184631Y-139697446D01*
X71356250Y-139782830D01*
X71520559Y-139922761D01*
X71652128Y-140110288D01*
X71694594Y-140194779D01*
X71721885Y-140276552D01*
X71734759Y-140370778D01*
X71738302Y-140500485D01*
X71738330Y-140516837D01*
X71738342Y-140523700D01*
G37*
G36*
X95562586Y-140605136D02*
G01*
X95510643Y-140802899D01*
X95412132Y-140984112D01*
X95269715Y-141139957D01*
X95086051Y-141261616D01*
X95015247Y-141293687D01*
X94929563Y-141319240D01*
X94828325Y-141331689D01*
X94690093Y-141335008D01*
X94679833Y-141335004D01*
X94549064Y-141331904D01*
X94453402Y-141320042D01*
X94370864Y-141294995D01*
X94279469Y-141252337D01*
X94231096Y-141225309D01*
X94071173Y-141096955D01*
X93950932Y-140935521D01*
X93872388Y-140750769D01*
X93837557Y-140552462D01*
X93840833Y-140491695D01*
X94338239Y-140491695D01*
X94343062Y-140539566D01*
X94378239Y-140645565D01*
X94436625Y-140741502D01*
X94505209Y-140803110D01*
X94610399Y-140841858D01*
X94747672Y-140847975D01*
X94873162Y-140808474D01*
X94976116Y-140729533D01*
X95045776Y-140617327D01*
X95071386Y-140478031D01*
X95071361Y-140472212D01*
X95061951Y-140393598D01*
X95027787Y-140326422D01*
X94957516Y-140247727D01*
X94943791Y-140234150D01*
X94869676Y-140170818D01*
X94803444Y-140141193D01*
X94721417Y-140133856D01*
X94694915Y-140134496D01*
X94548080Y-140165654D01*
X94435537Y-140239451D01*
X94363514Y-140350070D01*
X94338239Y-140491695D01*
X93840833Y-140491695D01*
X93848454Y-140350361D01*
X93907096Y-140154230D01*
X94015497Y-139973830D01*
X94022474Y-139965138D01*
X94178304Y-139819546D01*
X94372348Y-139717661D01*
X94602547Y-139660582D01*
X94731041Y-139650822D01*
X94949010Y-139675276D01*
X95144092Y-139752453D01*
X95312215Y-139880445D01*
X95449308Y-140057343D01*
X95516132Y-140195237D01*
X95565302Y-140399643D01*
X95564266Y-140478031D01*
X95562586Y-140605136D01*
G37*
G36*
X84072377Y-140453215D02*
G01*
X84069290Y-140549214D01*
X84058514Y-140666266D01*
X84042700Y-140753390D01*
X83989524Y-140871311D01*
X83887037Y-141003496D01*
X83752531Y-141123549D01*
X83599625Y-141219542D01*
X83441940Y-141279546D01*
X83226470Y-141306550D01*
X83018244Y-141282129D01*
X82829553Y-141209836D01*
X82667250Y-141094570D01*
X82538187Y-140941229D01*
X82449219Y-140754712D01*
X82407198Y-140539917D01*
X82402226Y-140429385D01*
X82888805Y-140429385D01*
X82891860Y-140556651D01*
X82938929Y-140674210D01*
X83023068Y-140761749D01*
X83122581Y-140808614D01*
X83246766Y-140823630D01*
X83364091Y-140798005D01*
X83465938Y-140739067D01*
X83543690Y-140654147D01*
X83588729Y-140550575D01*
X83592438Y-140435680D01*
X83546199Y-140316792D01*
X83516597Y-140275574D01*
X83414376Y-140189402D01*
X83295017Y-140147537D01*
X83171067Y-140148494D01*
X83055076Y-140190793D01*
X82959593Y-140272949D01*
X82897168Y-140393480D01*
X82888805Y-140429385D01*
X82402226Y-140429385D01*
X82402137Y-140427410D01*
X82409921Y-140341428D01*
X82436083Y-140257686D01*
X82485987Y-140149601D01*
X82522455Y-140081583D01*
X82656909Y-139902409D01*
X82821687Y-139771730D01*
X83013451Y-139691725D01*
X83228865Y-139664572D01*
X83280067Y-139665842D01*
X83497765Y-139701822D01*
X83689061Y-139783246D01*
X83848062Y-139904606D01*
X83968876Y-140060393D01*
X84045612Y-140245099D01*
X84070122Y-140435680D01*
X84072377Y-140453215D01*
G37*
G36*
X77899267Y-140686906D02*
G01*
X77809043Y-140842613D01*
X77676347Y-140971204D01*
X77505210Y-141063339D01*
X77378182Y-141091289D01*
X77212462Y-141091294D01*
X77045773Y-141060445D01*
X76902292Y-141001234D01*
X76819160Y-140942718D01*
X76699560Y-140808248D01*
X76623248Y-140647054D01*
X76592963Y-140470144D01*
X76598637Y-140414374D01*
X76989732Y-140414374D01*
X76996044Y-140517564D01*
X77055636Y-140608688D01*
X77166605Y-140678916D01*
X77227349Y-140703413D01*
X77284365Y-140716590D01*
X77334347Y-140703939D01*
X77404622Y-140663715D01*
X77477177Y-140605405D01*
X77522460Y-140514604D01*
X77517163Y-140397527D01*
X77515931Y-140392202D01*
X77465775Y-140293122D01*
X77380976Y-140225861D01*
X77277375Y-140195253D01*
X77170814Y-140206127D01*
X77077135Y-140263317D01*
X77038601Y-140307953D01*
X76989732Y-140414374D01*
X76598637Y-140414374D01*
X76611442Y-140288521D01*
X76681422Y-140113194D01*
X76712038Y-140064660D01*
X76836649Y-139929923D01*
X76987150Y-139838737D01*
X77153786Y-139790584D01*
X77326804Y-139784946D01*
X77496452Y-139821307D01*
X77652976Y-139899148D01*
X77786622Y-140017952D01*
X77887639Y-140177201D01*
X77936176Y-140331502D01*
X77942989Y-140513423D01*
X77942691Y-140514604D01*
X77899267Y-140686906D01*
G37*
G36*
X80741489Y-140236567D02*
G01*
X81072009Y-140236910D01*
X81350832Y-140237663D01*
X81582169Y-140238933D01*
X81770234Y-140240825D01*
X81919239Y-140243448D01*
X82033398Y-140246908D01*
X82116921Y-140251312D01*
X82174024Y-140256767D01*
X82208917Y-140263380D01*
X82225815Y-140271258D01*
X82228929Y-140280508D01*
X82226979Y-140289531D01*
X82216056Y-140355291D01*
X82204516Y-140441824D01*
X82201858Y-140463263D01*
X82189835Y-140544470D01*
X82179245Y-140595808D01*
X82167581Y-140603133D01*
X82130592Y-140610148D01*
X82064720Y-140616036D01*
X81966242Y-140620879D01*
X81831437Y-140624756D01*
X81656583Y-140627748D01*
X81437958Y-140629935D01*
X81171839Y-140631397D01*
X80854506Y-140632216D01*
X80482236Y-140632471D01*
X80233772Y-140632225D01*
X79938712Y-140631262D01*
X79665653Y-140629638D01*
X79419833Y-140627422D01*
X79206488Y-140624682D01*
X79030855Y-140621490D01*
X78898172Y-140617913D01*
X78813674Y-140614023D01*
X78782600Y-140609888D01*
X78775641Y-140582043D01*
X78767044Y-140509257D01*
X78760518Y-140411908D01*
X78752393Y-140236512D01*
X80495897Y-140236512D01*
X80741489Y-140236567D01*
G37*
%TD*%
M02*
