%TF.GenerationSoftware,KiCad,Pcbnew,9.0.6*%
%TF.CreationDate,2026-05-16T14:26:25+05:30*%
%TF.ProjectId,esp_Extension,6573705f-4578-4746-956e-73696f6e2e6b,1*%
%TF.SameCoordinates,Original*%
%TF.FileFunction,Drillmap*%
%TF.FilePolarity,Positive*%
%FSLAX45Y45*%
G04 Gerber Fmt 4.5, Leading zero omitted, Abs format (unit mm)*
G04 Created by KiCad (PCBNEW 9.0.6) date 2026-05-16 14:26:25*
%MOMM*%
%LPD*%
G01*
G04 APERTURE LIST*
%ADD10C,0.050000*%
%ADD11C,0.200000*%
%ADD12C,0.100000*%
%ADD13C,0.110000*%
%ADD14C,0.130000*%
G04 APERTURE END LIST*
D10*
X6777000Y-5046000D02*
X16677000Y-5046000D01*
X16677000Y-14996000D01*
X6777000Y-14996000D01*
X6777000Y-5046000D01*
D11*
D12*
X8381510Y-13129200D02*
X8411510Y-13159200D01*
X8411510Y-13129200D02*
X8381510Y-13159200D01*
X8646980Y-11715100D02*
X8676980Y-11745100D01*
X8676980Y-11715100D02*
X8646980Y-11745100D01*
X10600390Y-12098200D02*
X10630390Y-12128200D01*
X10630390Y-12098200D02*
X10600390Y-12128200D01*
X12150020Y-9496130D02*
X12180020Y-9526130D01*
X12180020Y-9496130D02*
X12150020Y-9526130D01*
X14606600Y-12098200D02*
X14636600Y-12128200D01*
X14636600Y-12098200D02*
X14606600Y-12128200D01*
X14979600Y-11715100D02*
X15009600Y-11745100D01*
X15009600Y-11715100D02*
X14979600Y-11745100D01*
X15417000Y-6665000D02*
G75*
G02*
X15337000Y-6665000I-40000J0D01*
G01*
X15337000Y-6665000D02*
G75*
G02*
X15417000Y-6665000I40000J0D01*
G01*
X15417000Y-7427000D02*
G75*
G02*
X15337000Y-7427000I-40000J0D01*
G01*
X15337000Y-7427000D02*
G75*
G02*
X15417000Y-7427000I40000J0D01*
G01*
X15049500Y-5551000D02*
X15049500Y-5641000D01*
X15004500Y-5596000D02*
X15094500Y-5596000D01*
X15303500Y-5551000D02*
X15303500Y-5641000D01*
X15258500Y-5596000D02*
X15348500Y-5596000D01*
X7733556Y-8281356D02*
X7733556Y-8210644D01*
X7662844Y-8210644D01*
X7662844Y-8281356D01*
X7733556Y-8281356D01*
X7733556Y-8535356D02*
X7733556Y-8464644D01*
X7662844Y-8464644D01*
X7662844Y-8535356D01*
X7733556Y-8535356D01*
X7733556Y-8789356D02*
X7733556Y-8718644D01*
X7662844Y-8718644D01*
X7662844Y-8789356D01*
X7733556Y-8789356D01*
X7733556Y-9043356D02*
X7733556Y-8972644D01*
X7662844Y-8972644D01*
X7662844Y-9043356D01*
X7733556Y-9043356D01*
X7733556Y-9297356D02*
X7733556Y-9226644D01*
X7662844Y-9226644D01*
X7662844Y-9297356D01*
X7733556Y-9297356D01*
X7733556Y-9551356D02*
X7733556Y-9480644D01*
X7662844Y-9480644D01*
X7662844Y-9551356D01*
X7733556Y-9551356D01*
X7733556Y-9805356D02*
X7733556Y-9734644D01*
X7662844Y-9734644D01*
X7662844Y-9805356D01*
X7733556Y-9805356D01*
X7733556Y-10059356D02*
X7733556Y-9988644D01*
X7662844Y-9988644D01*
X7662844Y-10059356D01*
X7733556Y-10059356D01*
X8212356Y-8253356D02*
X8212356Y-8182644D01*
X8141644Y-8182644D01*
X8141644Y-8253356D01*
X8212356Y-8253356D01*
X8212356Y-8507356D02*
X8212356Y-8436644D01*
X8141644Y-8436644D01*
X8141644Y-8507356D01*
X8212356Y-8507356D01*
X8212356Y-8761356D02*
X8212356Y-8690644D01*
X8141644Y-8690644D01*
X8141644Y-8761356D01*
X8212356Y-8761356D01*
X8212356Y-9015356D02*
X8212356Y-8944644D01*
X8141644Y-8944644D01*
X8141644Y-9015356D01*
X8212356Y-9015356D01*
X8212356Y-9269356D02*
X8212356Y-9198644D01*
X8141644Y-9198644D01*
X8141644Y-9269356D01*
X8212356Y-9269356D01*
X8212356Y-9523356D02*
X8212356Y-9452644D01*
X8141644Y-9452644D01*
X8141644Y-9523356D01*
X8212356Y-9523356D01*
X8212356Y-9777356D02*
X8212356Y-9706644D01*
X8141644Y-9706644D01*
X8141644Y-9777356D01*
X8212356Y-9777356D01*
X8212356Y-10031356D02*
X8212356Y-9960644D01*
X8141644Y-9960644D01*
X8141644Y-10031356D01*
X8212356Y-10031356D01*
X8212356Y-12053356D02*
X8212356Y-11982644D01*
X8141644Y-11982644D01*
X8141644Y-12053356D01*
X8212356Y-12053356D01*
X8212356Y-12307356D02*
X8212356Y-12236644D01*
X8141644Y-12236644D01*
X8141644Y-12307356D01*
X8212356Y-12307356D01*
X8212356Y-12561356D02*
X8212356Y-12490644D01*
X8141644Y-12490644D01*
X8141644Y-12561356D01*
X8212356Y-12561356D01*
X8212356Y-12815356D02*
X8212356Y-12744644D01*
X8141644Y-12744644D01*
X8141644Y-12815356D01*
X8212356Y-12815356D01*
X8212356Y-13069356D02*
X8212356Y-12998644D01*
X8141644Y-12998644D01*
X8141644Y-13069356D01*
X8212356Y-13069356D01*
X8212356Y-13323356D02*
X8212356Y-13252644D01*
X8141644Y-13252644D01*
X8141644Y-13323356D01*
X8212356Y-13323356D01*
X8212356Y-13577356D02*
X8212356Y-13506644D01*
X8141644Y-13506644D01*
X8141644Y-13577356D01*
X8212356Y-13577356D01*
X8212356Y-13831356D02*
X8212356Y-13760644D01*
X8141644Y-13760644D01*
X8141644Y-13831356D01*
X8212356Y-13831356D01*
X10498356Y-8253356D02*
X10498356Y-8182644D01*
X10427644Y-8182644D01*
X10427644Y-8253356D01*
X10498356Y-8253356D01*
X10498356Y-8507356D02*
X10498356Y-8436644D01*
X10427644Y-8436644D01*
X10427644Y-8507356D01*
X10498356Y-8507356D01*
X10498356Y-8761356D02*
X10498356Y-8690644D01*
X10427644Y-8690644D01*
X10427644Y-8761356D01*
X10498356Y-8761356D01*
X10498356Y-9015356D02*
X10498356Y-8944644D01*
X10427644Y-8944644D01*
X10427644Y-9015356D01*
X10498356Y-9015356D01*
X10498356Y-9269356D02*
X10498356Y-9198644D01*
X10427644Y-9198644D01*
X10427644Y-9269356D01*
X10498356Y-9269356D01*
X10498356Y-9523356D02*
X10498356Y-9452644D01*
X10427644Y-9452644D01*
X10427644Y-9523356D01*
X10498356Y-9523356D01*
X10498356Y-9777356D02*
X10498356Y-9706644D01*
X10427644Y-9706644D01*
X10427644Y-9777356D01*
X10498356Y-9777356D01*
X10498356Y-10031356D02*
X10498356Y-9960644D01*
X10427644Y-9960644D01*
X10427644Y-10031356D01*
X10498356Y-10031356D01*
X10498356Y-12053356D02*
X10498356Y-11982644D01*
X10427644Y-11982644D01*
X10427644Y-12053356D01*
X10498356Y-12053356D01*
X10498356Y-12307356D02*
X10498356Y-12236644D01*
X10427644Y-12236644D01*
X10427644Y-12307356D01*
X10498356Y-12307356D01*
X10498356Y-12561356D02*
X10498356Y-12490644D01*
X10427644Y-12490644D01*
X10427644Y-12561356D01*
X10498356Y-12561356D01*
X10498356Y-12815356D02*
X10498356Y-12744644D01*
X10427644Y-12744644D01*
X10427644Y-12815356D01*
X10498356Y-12815356D01*
X10498356Y-13069356D02*
X10498356Y-12998644D01*
X10427644Y-12998644D01*
X10427644Y-13069356D01*
X10498356Y-13069356D01*
X10498356Y-13323356D02*
X10498356Y-13252644D01*
X10427644Y-13252644D01*
X10427644Y-13323356D01*
X10498356Y-13323356D01*
X10498356Y-13577356D02*
X10498356Y-13506644D01*
X10427644Y-13506644D01*
X10427644Y-13577356D01*
X10498356Y-13577356D01*
X10498356Y-13831356D02*
X10498356Y-13760644D01*
X10427644Y-13760644D01*
X10427644Y-13831356D01*
X10498356Y-13831356D01*
X10962356Y-8277356D02*
X10962356Y-8206644D01*
X10891644Y-8206644D01*
X10891644Y-8277356D01*
X10962356Y-8277356D01*
X10962356Y-8531356D02*
X10962356Y-8460644D01*
X10891644Y-8460644D01*
X10891644Y-8531356D01*
X10962356Y-8531356D01*
X10962356Y-8785356D02*
X10962356Y-8714644D01*
X10891644Y-8714644D01*
X10891644Y-8785356D01*
X10962356Y-8785356D01*
X10962356Y-9039356D02*
X10962356Y-8968644D01*
X10891644Y-8968644D01*
X10891644Y-9039356D01*
X10962356Y-9039356D01*
X10962356Y-9293356D02*
X10962356Y-9222644D01*
X10891644Y-9222644D01*
X10891644Y-9293356D01*
X10962356Y-9293356D01*
X10962356Y-9547356D02*
X10962356Y-9476644D01*
X10891644Y-9476644D01*
X10891644Y-9547356D01*
X10962356Y-9547356D01*
X10962356Y-9801356D02*
X10962356Y-9730644D01*
X10891644Y-9730644D01*
X10891644Y-9801356D01*
X10962356Y-9801356D01*
X10962356Y-10055356D02*
X10962356Y-9984644D01*
X10891644Y-9984644D01*
X10891644Y-10055356D01*
X10962356Y-10055356D01*
X12512356Y-8253356D02*
X12512356Y-8182644D01*
X12441644Y-8182644D01*
X12441644Y-8253356D01*
X12512356Y-8253356D01*
X12512356Y-8507356D02*
X12512356Y-8436644D01*
X12441644Y-8436644D01*
X12441644Y-8507356D01*
X12512356Y-8507356D01*
X12512356Y-8761356D02*
X12512356Y-8690644D01*
X12441644Y-8690644D01*
X12441644Y-8761356D01*
X12512356Y-8761356D01*
X12512356Y-9015356D02*
X12512356Y-8944644D01*
X12441644Y-8944644D01*
X12441644Y-9015356D01*
X12512356Y-9015356D01*
X12512356Y-9269356D02*
X12512356Y-9198644D01*
X12441644Y-9198644D01*
X12441644Y-9269356D01*
X12512356Y-9269356D01*
X12512356Y-9523356D02*
X12512356Y-9452644D01*
X12441644Y-9452644D01*
X12441644Y-9523356D01*
X12512356Y-9523356D01*
X12512356Y-9777356D02*
X12512356Y-9706644D01*
X12441644Y-9706644D01*
X12441644Y-9777356D01*
X12512356Y-9777356D01*
X12512356Y-10031356D02*
X12512356Y-9960644D01*
X12441644Y-9960644D01*
X12441644Y-10031356D01*
X12512356Y-10031356D01*
X12512356Y-12053356D02*
X12512356Y-11982644D01*
X12441644Y-11982644D01*
X12441644Y-12053356D01*
X12512356Y-12053356D01*
X12512356Y-12307356D02*
X12512356Y-12236644D01*
X12441644Y-12236644D01*
X12441644Y-12307356D01*
X12512356Y-12307356D01*
X12512356Y-12561356D02*
X12512356Y-12490644D01*
X12441644Y-12490644D01*
X12441644Y-12561356D01*
X12512356Y-12561356D01*
X12512356Y-12815356D02*
X12512356Y-12744644D01*
X12441644Y-12744644D01*
X12441644Y-12815356D01*
X12512356Y-12815356D01*
X12512356Y-13069356D02*
X12512356Y-12998644D01*
X12441644Y-12998644D01*
X12441644Y-13069356D01*
X12512356Y-13069356D01*
X12512356Y-13323356D02*
X12512356Y-13252644D01*
X12441644Y-13252644D01*
X12441644Y-13323356D01*
X12512356Y-13323356D01*
X12512356Y-13577356D02*
X12512356Y-13506644D01*
X12441644Y-13506644D01*
X12441644Y-13577356D01*
X12512356Y-13577356D01*
X12512356Y-13831356D02*
X12512356Y-13760644D01*
X12441644Y-13760644D01*
X12441644Y-13831356D01*
X12512356Y-13831356D01*
X14798356Y-8253356D02*
X14798356Y-8182644D01*
X14727644Y-8182644D01*
X14727644Y-8253356D01*
X14798356Y-8253356D01*
X14798356Y-8507356D02*
X14798356Y-8436644D01*
X14727644Y-8436644D01*
X14727644Y-8507356D01*
X14798356Y-8507356D01*
X14798356Y-8761356D02*
X14798356Y-8690644D01*
X14727644Y-8690644D01*
X14727644Y-8761356D01*
X14798356Y-8761356D01*
X14798356Y-9015356D02*
X14798356Y-8944644D01*
X14727644Y-8944644D01*
X14727644Y-9015356D01*
X14798356Y-9015356D01*
X14798356Y-9269356D02*
X14798356Y-9198644D01*
X14727644Y-9198644D01*
X14727644Y-9269356D01*
X14798356Y-9269356D01*
X14798356Y-9523356D02*
X14798356Y-9452644D01*
X14727644Y-9452644D01*
X14727644Y-9523356D01*
X14798356Y-9523356D01*
X14798356Y-9777356D02*
X14798356Y-9706644D01*
X14727644Y-9706644D01*
X14727644Y-9777356D01*
X14798356Y-9777356D01*
X14798356Y-10031356D02*
X14798356Y-9960644D01*
X14727644Y-9960644D01*
X14727644Y-10031356D01*
X14798356Y-10031356D01*
X14798356Y-12053356D02*
X14798356Y-11982644D01*
X14727644Y-11982644D01*
X14727644Y-12053356D01*
X14798356Y-12053356D01*
X14798356Y-12307356D02*
X14798356Y-12236644D01*
X14727644Y-12236644D01*
X14727644Y-12307356D01*
X14798356Y-12307356D01*
X14798356Y-12561356D02*
X14798356Y-12490644D01*
X14727644Y-12490644D01*
X14727644Y-12561356D01*
X14798356Y-12561356D01*
X14798356Y-12815356D02*
X14798356Y-12744644D01*
X14727644Y-12744644D01*
X14727644Y-12815356D01*
X14798356Y-12815356D01*
X14798356Y-13069356D02*
X14798356Y-12998644D01*
X14727644Y-12998644D01*
X14727644Y-13069356D01*
X14798356Y-13069356D01*
X14798356Y-13323356D02*
X14798356Y-13252644D01*
X14727644Y-13252644D01*
X14727644Y-13323356D01*
X14798356Y-13323356D01*
X14798356Y-13577356D02*
X14798356Y-13506644D01*
X14727644Y-13506644D01*
X14727644Y-13577356D01*
X14798356Y-13577356D01*
X14798356Y-13831356D02*
X14798356Y-13760644D01*
X14727644Y-13760644D01*
X14727644Y-13831356D01*
X14798356Y-13831356D01*
X15362356Y-9069356D02*
X15362356Y-8998644D01*
X15291644Y-8998644D01*
X15291644Y-9069356D01*
X15362356Y-9069356D01*
X15362356Y-9323356D02*
X15362356Y-9252644D01*
X15291644Y-9252644D01*
X15291644Y-9323356D01*
X15362356Y-9323356D01*
X15362356Y-9577356D02*
X15362356Y-9506644D01*
X15291644Y-9506644D01*
X15291644Y-9577356D01*
X15362356Y-9577356D01*
X15362356Y-9831356D02*
X15362356Y-9760644D01*
X15291644Y-9760644D01*
X15291644Y-9831356D01*
X15362356Y-9831356D01*
X15362356Y-10085356D02*
X15362356Y-10014644D01*
X15291644Y-10014644D01*
X15291644Y-10085356D01*
X15362356Y-10085356D01*
X15362356Y-11023856D02*
X15362356Y-10953144D01*
X15291644Y-10953144D01*
X15291644Y-11023856D01*
X15362356Y-11023856D01*
X15362356Y-11277856D02*
X15362356Y-11207144D01*
X15291644Y-11207144D01*
X15291644Y-11277856D01*
X15362356Y-11277856D01*
X15362356Y-11531856D02*
X15362356Y-11461144D01*
X15291644Y-11461144D01*
X15291644Y-11531856D01*
X15362356Y-11531856D01*
X15362356Y-11785856D02*
X15362356Y-11715144D01*
X15291644Y-11715144D01*
X15291644Y-11785856D01*
X15362356Y-11785856D01*
X15362356Y-12039856D02*
X15362356Y-11969144D01*
X15291644Y-11969144D01*
X15291644Y-12039856D01*
X15362356Y-12039856D01*
X15362356Y-12973856D02*
X15362356Y-12903144D01*
X15291644Y-12903144D01*
X15291644Y-12973856D01*
X15362356Y-12973856D01*
X15362356Y-13227856D02*
X15362356Y-13157144D01*
X15291644Y-13157144D01*
X15291644Y-13227856D01*
X15362356Y-13227856D01*
X15362356Y-13481856D02*
X15362356Y-13411144D01*
X15291644Y-13411144D01*
X15291644Y-13481856D01*
X15362356Y-13481856D01*
X15362356Y-13735856D02*
X15362356Y-13665144D01*
X15291644Y-13665144D01*
X15291644Y-13735856D01*
X15362356Y-13735856D01*
X15362356Y-13989856D02*
X15362356Y-13919144D01*
X15291644Y-13919144D01*
X15291644Y-13989856D01*
X15362356Y-13989856D01*
D13*
X6927000Y-11251000D02*
X6982000Y-11196000D01*
X6927000Y-11141000D01*
X6872000Y-11196000D01*
X6927000Y-11251000D01*
X6927000Y-11701000D02*
X6982000Y-11646000D01*
X6927000Y-11591000D01*
X6872000Y-11646000D01*
X6927000Y-11701000D01*
X7577000Y-11251000D02*
X7632000Y-11196000D01*
X7577000Y-11141000D01*
X7522000Y-11196000D01*
X7577000Y-11251000D01*
X7577000Y-11701000D02*
X7632000Y-11646000D01*
X7577000Y-11591000D01*
X7522000Y-11646000D01*
X7577000Y-11701000D01*
D14*
X15962000Y-6631000D02*
X16092000Y-6761000D01*
X16092000Y-6631000D02*
X15962000Y-6761000D01*
X16092000Y-6696000D02*
G75*
G02*
X15962000Y-6696000I-65000J0D01*
G01*
X15962000Y-6696000D02*
G75*
G02*
X16092000Y-6696000I65000J0D01*
G01*
X15962000Y-7131000D02*
X16092000Y-7261000D01*
X16092000Y-7131000D02*
X15962000Y-7261000D01*
X16092000Y-7196000D02*
G75*
G02*
X15962000Y-7196000I-65000J0D01*
G01*
X15962000Y-7196000D02*
G75*
G02*
X16092000Y-7196000I65000J0D01*
G01*
X15962000Y-7631000D02*
X16092000Y-7761000D01*
X16092000Y-7631000D02*
X15962000Y-7761000D01*
X16092000Y-7696000D02*
G75*
G02*
X15962000Y-7696000I-65000J0D01*
G01*
X15962000Y-7696000D02*
G75*
G02*
X16092000Y-7696000I65000J0D01*
G01*
X15962000Y-8131000D02*
X16092000Y-8261000D01*
X16092000Y-8131000D02*
X15962000Y-8261000D01*
X16092000Y-8196000D02*
G75*
G02*
X15962000Y-8196000I-65000J0D01*
G01*
X15962000Y-8196000D02*
G75*
G02*
X16092000Y-8196000I65000J0D01*
G01*
X15962000Y-8631000D02*
X16092000Y-8761000D01*
X16092000Y-8631000D02*
X15962000Y-8761000D01*
X16092000Y-8696000D02*
G75*
G02*
X15962000Y-8696000I-65000J0D01*
G01*
X15962000Y-8696000D02*
G75*
G02*
X16092000Y-8696000I65000J0D01*
G01*
X15962000Y-9131000D02*
X16092000Y-9261000D01*
X16092000Y-9131000D02*
X15962000Y-9261000D01*
X16092000Y-9196000D02*
G75*
G02*
X15962000Y-9196000I-65000J0D01*
G01*
X15962000Y-9196000D02*
G75*
G02*
X16092000Y-9196000I65000J0D01*
G01*
X15962000Y-9631000D02*
X16092000Y-9761000D01*
X16092000Y-9631000D02*
X15962000Y-9761000D01*
X16092000Y-9696000D02*
G75*
G02*
X15962000Y-9696000I-65000J0D01*
G01*
X15962000Y-9696000D02*
G75*
G02*
X16092000Y-9696000I65000J0D01*
G01*
X15962000Y-10131000D02*
X16092000Y-10261000D01*
X16092000Y-10131000D02*
X15962000Y-10261000D01*
X16092000Y-10196000D02*
G75*
G02*
X15962000Y-10196000I-65000J0D01*
G01*
X15962000Y-10196000D02*
G75*
G02*
X16092000Y-10196000I65000J0D01*
G01*
X15962000Y-11031000D02*
X16092000Y-11161000D01*
X16092000Y-11031000D02*
X15962000Y-11161000D01*
X16092000Y-11096000D02*
G75*
G02*
X15962000Y-11096000I-65000J0D01*
G01*
X15962000Y-11096000D02*
G75*
G02*
X16092000Y-11096000I65000J0D01*
G01*
X15962000Y-11531000D02*
X16092000Y-11661000D01*
X16092000Y-11531000D02*
X15962000Y-11661000D01*
X16092000Y-11596000D02*
G75*
G02*
X15962000Y-11596000I-65000J0D01*
G01*
X15962000Y-11596000D02*
G75*
G02*
X16092000Y-11596000I65000J0D01*
G01*
X15962000Y-12031000D02*
X16092000Y-12161000D01*
X16092000Y-12031000D02*
X15962000Y-12161000D01*
X16092000Y-12096000D02*
G75*
G02*
X15962000Y-12096000I-65000J0D01*
G01*
X15962000Y-12096000D02*
G75*
G02*
X16092000Y-12096000I65000J0D01*
G01*
X15962000Y-12531000D02*
X16092000Y-12661000D01*
X16092000Y-12531000D02*
X15962000Y-12661000D01*
X16092000Y-12596000D02*
G75*
G02*
X15962000Y-12596000I-65000J0D01*
G01*
X15962000Y-12596000D02*
G75*
G02*
X16092000Y-12596000I65000J0D01*
G01*
X15962000Y-13031000D02*
X16092000Y-13161000D01*
X16092000Y-13031000D02*
X15962000Y-13161000D01*
X16092000Y-13096000D02*
G75*
G02*
X15962000Y-13096000I-65000J0D01*
G01*
X15962000Y-13096000D02*
G75*
G02*
X16092000Y-13096000I65000J0D01*
G01*
X15962000Y-13531000D02*
X16092000Y-13661000D01*
X16092000Y-13531000D02*
X15962000Y-13661000D01*
X16092000Y-13596000D02*
G75*
G02*
X15962000Y-13596000I-65000J0D01*
G01*
X15962000Y-13596000D02*
G75*
G02*
X16092000Y-13596000I65000J0D01*
G01*
X15962000Y-14031000D02*
X16092000Y-14161000D01*
X16092000Y-14031000D02*
X15962000Y-14161000D01*
X16092000Y-14096000D02*
G75*
G02*
X15962000Y-14096000I-65000J0D01*
G01*
X15962000Y-14096000D02*
G75*
G02*
X16092000Y-14096000I65000J0D01*
G01*
X15962000Y-14531000D02*
X16092000Y-14661000D01*
X16092000Y-14531000D02*
X15962000Y-14661000D01*
X16092000Y-14596000D02*
G75*
G02*
X15962000Y-14596000I-65000J0D01*
G01*
X15962000Y-14596000D02*
G75*
G02*
X16092000Y-14596000I65000J0D01*
G01*
D11*
X7035277Y-15309984D02*
X7035277Y-15109984D01*
X7035277Y-15109984D02*
X7082896Y-15109984D01*
X7082896Y-15109984D02*
X7111467Y-15119508D01*
X7111467Y-15119508D02*
X7130515Y-15138555D01*
X7130515Y-15138555D02*
X7140039Y-15157603D01*
X7140039Y-15157603D02*
X7149562Y-15195698D01*
X7149562Y-15195698D02*
X7149562Y-15224269D01*
X7149562Y-15224269D02*
X7140039Y-15262365D01*
X7140039Y-15262365D02*
X7130515Y-15281412D01*
X7130515Y-15281412D02*
X7111467Y-15300460D01*
X7111467Y-15300460D02*
X7082896Y-15309984D01*
X7082896Y-15309984D02*
X7035277Y-15309984D01*
X7235277Y-15309984D02*
X7235277Y-15176650D01*
X7235277Y-15214746D02*
X7244801Y-15195698D01*
X7244801Y-15195698D02*
X7254324Y-15186174D01*
X7254324Y-15186174D02*
X7273372Y-15176650D01*
X7273372Y-15176650D02*
X7292420Y-15176650D01*
X7359086Y-15309984D02*
X7359086Y-15176650D01*
X7359086Y-15109984D02*
X7349562Y-15119508D01*
X7349562Y-15119508D02*
X7359086Y-15129031D01*
X7359086Y-15129031D02*
X7368610Y-15119508D01*
X7368610Y-15119508D02*
X7359086Y-15109984D01*
X7359086Y-15109984D02*
X7359086Y-15129031D01*
X7482896Y-15309984D02*
X7463848Y-15300460D01*
X7463848Y-15300460D02*
X7454324Y-15281412D01*
X7454324Y-15281412D02*
X7454324Y-15109984D01*
X7587658Y-15309984D02*
X7568610Y-15300460D01*
X7568610Y-15300460D02*
X7559086Y-15281412D01*
X7559086Y-15281412D02*
X7559086Y-15109984D01*
X7816229Y-15309984D02*
X7816229Y-15109984D01*
X7816229Y-15109984D02*
X7882896Y-15252841D01*
X7882896Y-15252841D02*
X7949562Y-15109984D01*
X7949562Y-15109984D02*
X7949562Y-15309984D01*
X8130515Y-15309984D02*
X8130515Y-15205222D01*
X8130515Y-15205222D02*
X8120991Y-15186174D01*
X8120991Y-15186174D02*
X8101943Y-15176650D01*
X8101943Y-15176650D02*
X8063848Y-15176650D01*
X8063848Y-15176650D02*
X8044801Y-15186174D01*
X8130515Y-15300460D02*
X8111467Y-15309984D01*
X8111467Y-15309984D02*
X8063848Y-15309984D01*
X8063848Y-15309984D02*
X8044801Y-15300460D01*
X8044801Y-15300460D02*
X8035277Y-15281412D01*
X8035277Y-15281412D02*
X8035277Y-15262365D01*
X8035277Y-15262365D02*
X8044801Y-15243317D01*
X8044801Y-15243317D02*
X8063848Y-15233793D01*
X8063848Y-15233793D02*
X8111467Y-15233793D01*
X8111467Y-15233793D02*
X8130515Y-15224269D01*
X8225753Y-15176650D02*
X8225753Y-15376650D01*
X8225753Y-15186174D02*
X8244801Y-15176650D01*
X8244801Y-15176650D02*
X8282896Y-15176650D01*
X8282896Y-15176650D02*
X8301943Y-15186174D01*
X8301943Y-15186174D02*
X8311467Y-15195698D01*
X8311467Y-15195698D02*
X8320991Y-15214746D01*
X8320991Y-15214746D02*
X8320991Y-15271888D01*
X8320991Y-15271888D02*
X8311467Y-15290936D01*
X8311467Y-15290936D02*
X8301943Y-15300460D01*
X8301943Y-15300460D02*
X8282896Y-15309984D01*
X8282896Y-15309984D02*
X8244801Y-15309984D01*
X8244801Y-15309984D02*
X8225753Y-15300460D01*
X8406705Y-15290936D02*
X8416229Y-15300460D01*
X8416229Y-15300460D02*
X8406705Y-15309984D01*
X8406705Y-15309984D02*
X8397182Y-15300460D01*
X8397182Y-15300460D02*
X8406705Y-15290936D01*
X8406705Y-15290936D02*
X8406705Y-15309984D01*
X8406705Y-15186174D02*
X8416229Y-15195698D01*
X8416229Y-15195698D02*
X8406705Y-15205222D01*
X8406705Y-15205222D02*
X8397182Y-15195698D01*
X8397182Y-15195698D02*
X8406705Y-15186174D01*
X8406705Y-15186174D02*
X8406705Y-15205222D01*
D12*
X6744500Y-15623500D02*
X6774500Y-15653500D01*
X6774500Y-15623500D02*
X6744500Y-15653500D01*
D11*
X7073372Y-15529984D02*
X7092420Y-15529984D01*
X7092420Y-15529984D02*
X7111467Y-15539508D01*
X7111467Y-15539508D02*
X7120991Y-15549031D01*
X7120991Y-15549031D02*
X7130515Y-15568079D01*
X7130515Y-15568079D02*
X7140039Y-15606174D01*
X7140039Y-15606174D02*
X7140039Y-15653793D01*
X7140039Y-15653793D02*
X7130515Y-15691888D01*
X7130515Y-15691888D02*
X7120991Y-15710936D01*
X7120991Y-15710936D02*
X7111467Y-15720460D01*
X7111467Y-15720460D02*
X7092420Y-15729984D01*
X7092420Y-15729984D02*
X7073372Y-15729984D01*
X7073372Y-15729984D02*
X7054324Y-15720460D01*
X7054324Y-15720460D02*
X7044801Y-15710936D01*
X7044801Y-15710936D02*
X7035277Y-15691888D01*
X7035277Y-15691888D02*
X7025753Y-15653793D01*
X7025753Y-15653793D02*
X7025753Y-15606174D01*
X7025753Y-15606174D02*
X7035277Y-15568079D01*
X7035277Y-15568079D02*
X7044801Y-15549031D01*
X7044801Y-15549031D02*
X7054324Y-15539508D01*
X7054324Y-15539508D02*
X7073372Y-15529984D01*
X7225753Y-15710936D02*
X7235277Y-15720460D01*
X7235277Y-15720460D02*
X7225753Y-15729984D01*
X7225753Y-15729984D02*
X7216229Y-15720460D01*
X7216229Y-15720460D02*
X7225753Y-15710936D01*
X7225753Y-15710936D02*
X7225753Y-15729984D01*
X7301943Y-15529984D02*
X7425753Y-15529984D01*
X7425753Y-15529984D02*
X7359086Y-15606174D01*
X7359086Y-15606174D02*
X7387658Y-15606174D01*
X7387658Y-15606174D02*
X7406705Y-15615698D01*
X7406705Y-15615698D02*
X7416229Y-15625222D01*
X7416229Y-15625222D02*
X7425753Y-15644269D01*
X7425753Y-15644269D02*
X7425753Y-15691888D01*
X7425753Y-15691888D02*
X7416229Y-15710936D01*
X7416229Y-15710936D02*
X7406705Y-15720460D01*
X7406705Y-15720460D02*
X7387658Y-15729984D01*
X7387658Y-15729984D02*
X7330515Y-15729984D01*
X7330515Y-15729984D02*
X7311467Y-15720460D01*
X7311467Y-15720460D02*
X7301943Y-15710936D01*
X7549562Y-15529984D02*
X7568610Y-15529984D01*
X7568610Y-15529984D02*
X7587658Y-15539508D01*
X7587658Y-15539508D02*
X7597182Y-15549031D01*
X7597182Y-15549031D02*
X7606705Y-15568079D01*
X7606705Y-15568079D02*
X7616229Y-15606174D01*
X7616229Y-15606174D02*
X7616229Y-15653793D01*
X7616229Y-15653793D02*
X7606705Y-15691888D01*
X7606705Y-15691888D02*
X7597182Y-15710936D01*
X7597182Y-15710936D02*
X7587658Y-15720460D01*
X7587658Y-15720460D02*
X7568610Y-15729984D01*
X7568610Y-15729984D02*
X7549562Y-15729984D01*
X7549562Y-15729984D02*
X7530515Y-15720460D01*
X7530515Y-15720460D02*
X7520991Y-15710936D01*
X7520991Y-15710936D02*
X7511467Y-15691888D01*
X7511467Y-15691888D02*
X7501943Y-15653793D01*
X7501943Y-15653793D02*
X7501943Y-15606174D01*
X7501943Y-15606174D02*
X7511467Y-15568079D01*
X7511467Y-15568079D02*
X7520991Y-15549031D01*
X7520991Y-15549031D02*
X7530515Y-15539508D01*
X7530515Y-15539508D02*
X7549562Y-15529984D01*
X7740039Y-15529984D02*
X7759086Y-15529984D01*
X7759086Y-15529984D02*
X7778134Y-15539508D01*
X7778134Y-15539508D02*
X7787658Y-15549031D01*
X7787658Y-15549031D02*
X7797182Y-15568079D01*
X7797182Y-15568079D02*
X7806705Y-15606174D01*
X7806705Y-15606174D02*
X7806705Y-15653793D01*
X7806705Y-15653793D02*
X7797182Y-15691888D01*
X7797182Y-15691888D02*
X7787658Y-15710936D01*
X7787658Y-15710936D02*
X7778134Y-15720460D01*
X7778134Y-15720460D02*
X7759086Y-15729984D01*
X7759086Y-15729984D02*
X7740039Y-15729984D01*
X7740039Y-15729984D02*
X7720991Y-15720460D01*
X7720991Y-15720460D02*
X7711467Y-15710936D01*
X7711467Y-15710936D02*
X7701943Y-15691888D01*
X7701943Y-15691888D02*
X7692420Y-15653793D01*
X7692420Y-15653793D02*
X7692420Y-15606174D01*
X7692420Y-15606174D02*
X7701943Y-15568079D01*
X7701943Y-15568079D02*
X7711467Y-15549031D01*
X7711467Y-15549031D02*
X7720991Y-15539508D01*
X7720991Y-15539508D02*
X7740039Y-15529984D01*
X7892420Y-15729984D02*
X7892420Y-15596650D01*
X7892420Y-15615698D02*
X7901943Y-15606174D01*
X7901943Y-15606174D02*
X7920991Y-15596650D01*
X7920991Y-15596650D02*
X7949563Y-15596650D01*
X7949563Y-15596650D02*
X7968610Y-15606174D01*
X7968610Y-15606174D02*
X7978134Y-15625222D01*
X7978134Y-15625222D02*
X7978134Y-15729984D01*
X7978134Y-15625222D02*
X7987658Y-15606174D01*
X7987658Y-15606174D02*
X8006705Y-15596650D01*
X8006705Y-15596650D02*
X8035277Y-15596650D01*
X8035277Y-15596650D02*
X8054324Y-15606174D01*
X8054324Y-15606174D02*
X8063848Y-15625222D01*
X8063848Y-15625222D02*
X8063848Y-15729984D01*
X8159086Y-15729984D02*
X8159086Y-15596650D01*
X8159086Y-15615698D02*
X8168610Y-15606174D01*
X8168610Y-15606174D02*
X8187658Y-15596650D01*
X8187658Y-15596650D02*
X8216229Y-15596650D01*
X8216229Y-15596650D02*
X8235277Y-15606174D01*
X8235277Y-15606174D02*
X8244801Y-15625222D01*
X8244801Y-15625222D02*
X8244801Y-15729984D01*
X8244801Y-15625222D02*
X8254324Y-15606174D01*
X8254324Y-15606174D02*
X8273372Y-15596650D01*
X8273372Y-15596650D02*
X8301943Y-15596650D01*
X8301943Y-15596650D02*
X8320991Y-15606174D01*
X8320991Y-15606174D02*
X8330515Y-15625222D01*
X8330515Y-15625222D02*
X8330515Y-15729984D01*
X8720991Y-15520460D02*
X8549563Y-15777603D01*
X8978134Y-15529984D02*
X8997182Y-15529984D01*
X8997182Y-15529984D02*
X9016229Y-15539508D01*
X9016229Y-15539508D02*
X9025753Y-15549031D01*
X9025753Y-15549031D02*
X9035277Y-15568079D01*
X9035277Y-15568079D02*
X9044801Y-15606174D01*
X9044801Y-15606174D02*
X9044801Y-15653793D01*
X9044801Y-15653793D02*
X9035277Y-15691888D01*
X9035277Y-15691888D02*
X9025753Y-15710936D01*
X9025753Y-15710936D02*
X9016229Y-15720460D01*
X9016229Y-15720460D02*
X8997182Y-15729984D01*
X8997182Y-15729984D02*
X8978134Y-15729984D01*
X8978134Y-15729984D02*
X8959087Y-15720460D01*
X8959087Y-15720460D02*
X8949563Y-15710936D01*
X8949563Y-15710936D02*
X8940039Y-15691888D01*
X8940039Y-15691888D02*
X8930515Y-15653793D01*
X8930515Y-15653793D02*
X8930515Y-15606174D01*
X8930515Y-15606174D02*
X8940039Y-15568079D01*
X8940039Y-15568079D02*
X8949563Y-15549031D01*
X8949563Y-15549031D02*
X8959087Y-15539508D01*
X8959087Y-15539508D02*
X8978134Y-15529984D01*
X9130515Y-15710936D02*
X9140039Y-15720460D01*
X9140039Y-15720460D02*
X9130515Y-15729984D01*
X9130515Y-15729984D02*
X9120991Y-15720460D01*
X9120991Y-15720460D02*
X9130515Y-15710936D01*
X9130515Y-15710936D02*
X9130515Y-15729984D01*
X9263848Y-15529984D02*
X9282896Y-15529984D01*
X9282896Y-15529984D02*
X9301944Y-15539508D01*
X9301944Y-15539508D02*
X9311468Y-15549031D01*
X9311468Y-15549031D02*
X9320991Y-15568079D01*
X9320991Y-15568079D02*
X9330515Y-15606174D01*
X9330515Y-15606174D02*
X9330515Y-15653793D01*
X9330515Y-15653793D02*
X9320991Y-15691888D01*
X9320991Y-15691888D02*
X9311468Y-15710936D01*
X9311468Y-15710936D02*
X9301944Y-15720460D01*
X9301944Y-15720460D02*
X9282896Y-15729984D01*
X9282896Y-15729984D02*
X9263848Y-15729984D01*
X9263848Y-15729984D02*
X9244801Y-15720460D01*
X9244801Y-15720460D02*
X9235277Y-15710936D01*
X9235277Y-15710936D02*
X9225753Y-15691888D01*
X9225753Y-15691888D02*
X9216229Y-15653793D01*
X9216229Y-15653793D02*
X9216229Y-15606174D01*
X9216229Y-15606174D02*
X9225753Y-15568079D01*
X9225753Y-15568079D02*
X9235277Y-15549031D01*
X9235277Y-15549031D02*
X9244801Y-15539508D01*
X9244801Y-15539508D02*
X9263848Y-15529984D01*
X9520991Y-15729984D02*
X9406706Y-15729984D01*
X9463848Y-15729984D02*
X9463848Y-15529984D01*
X9463848Y-15529984D02*
X9444801Y-15558555D01*
X9444801Y-15558555D02*
X9425753Y-15577603D01*
X9425753Y-15577603D02*
X9406706Y-15587127D01*
X9711468Y-15729984D02*
X9597182Y-15729984D01*
X9654325Y-15729984D02*
X9654325Y-15529984D01*
X9654325Y-15529984D02*
X9635277Y-15558555D01*
X9635277Y-15558555D02*
X9616229Y-15577603D01*
X9616229Y-15577603D02*
X9597182Y-15587127D01*
X9825753Y-15615698D02*
X9806706Y-15606174D01*
X9806706Y-15606174D02*
X9797182Y-15596650D01*
X9797182Y-15596650D02*
X9787658Y-15577603D01*
X9787658Y-15577603D02*
X9787658Y-15568079D01*
X9787658Y-15568079D02*
X9797182Y-15549031D01*
X9797182Y-15549031D02*
X9806706Y-15539508D01*
X9806706Y-15539508D02*
X9825753Y-15529984D01*
X9825753Y-15529984D02*
X9863849Y-15529984D01*
X9863849Y-15529984D02*
X9882896Y-15539508D01*
X9882896Y-15539508D02*
X9892420Y-15549031D01*
X9892420Y-15549031D02*
X9901944Y-15568079D01*
X9901944Y-15568079D02*
X9901944Y-15577603D01*
X9901944Y-15577603D02*
X9892420Y-15596650D01*
X9892420Y-15596650D02*
X9882896Y-15606174D01*
X9882896Y-15606174D02*
X9863849Y-15615698D01*
X9863849Y-15615698D02*
X9825753Y-15615698D01*
X9825753Y-15615698D02*
X9806706Y-15625222D01*
X9806706Y-15625222D02*
X9797182Y-15634746D01*
X9797182Y-15634746D02*
X9787658Y-15653793D01*
X9787658Y-15653793D02*
X9787658Y-15691888D01*
X9787658Y-15691888D02*
X9797182Y-15710936D01*
X9797182Y-15710936D02*
X9806706Y-15720460D01*
X9806706Y-15720460D02*
X9825753Y-15729984D01*
X9825753Y-15729984D02*
X9863849Y-15729984D01*
X9863849Y-15729984D02*
X9882896Y-15720460D01*
X9882896Y-15720460D02*
X9892420Y-15710936D01*
X9892420Y-15710936D02*
X9901944Y-15691888D01*
X9901944Y-15691888D02*
X9901944Y-15653793D01*
X9901944Y-15653793D02*
X9892420Y-15634746D01*
X9892420Y-15634746D02*
X9882896Y-15625222D01*
X9882896Y-15625222D02*
X9863849Y-15615698D01*
X9978134Y-15529984D02*
X9978134Y-15568079D01*
X10054325Y-15529984D02*
X10054325Y-15568079D01*
X10349563Y-15806174D02*
X10340039Y-15796650D01*
X10340039Y-15796650D02*
X10320991Y-15768079D01*
X10320991Y-15768079D02*
X10311468Y-15749031D01*
X10311468Y-15749031D02*
X10301944Y-15720460D01*
X10301944Y-15720460D02*
X10292420Y-15672841D01*
X10292420Y-15672841D02*
X10292420Y-15634746D01*
X10292420Y-15634746D02*
X10301944Y-15587127D01*
X10301944Y-15587127D02*
X10311468Y-15558555D01*
X10311468Y-15558555D02*
X10320991Y-15539508D01*
X10320991Y-15539508D02*
X10340039Y-15510936D01*
X10340039Y-15510936D02*
X10349563Y-15501412D01*
X10511468Y-15529984D02*
X10473372Y-15529984D01*
X10473372Y-15529984D02*
X10454325Y-15539508D01*
X10454325Y-15539508D02*
X10444801Y-15549031D01*
X10444801Y-15549031D02*
X10425753Y-15577603D01*
X10425753Y-15577603D02*
X10416230Y-15615698D01*
X10416230Y-15615698D02*
X10416230Y-15691888D01*
X10416230Y-15691888D02*
X10425753Y-15710936D01*
X10425753Y-15710936D02*
X10435277Y-15720460D01*
X10435277Y-15720460D02*
X10454325Y-15729984D01*
X10454325Y-15729984D02*
X10492420Y-15729984D01*
X10492420Y-15729984D02*
X10511468Y-15720460D01*
X10511468Y-15720460D02*
X10520991Y-15710936D01*
X10520991Y-15710936D02*
X10530515Y-15691888D01*
X10530515Y-15691888D02*
X10530515Y-15644269D01*
X10530515Y-15644269D02*
X10520991Y-15625222D01*
X10520991Y-15625222D02*
X10511468Y-15615698D01*
X10511468Y-15615698D02*
X10492420Y-15606174D01*
X10492420Y-15606174D02*
X10454325Y-15606174D01*
X10454325Y-15606174D02*
X10435277Y-15615698D01*
X10435277Y-15615698D02*
X10425753Y-15625222D01*
X10425753Y-15625222D02*
X10416230Y-15644269D01*
X10768611Y-15729984D02*
X10768611Y-15529984D01*
X10854325Y-15729984D02*
X10854325Y-15625222D01*
X10854325Y-15625222D02*
X10844801Y-15606174D01*
X10844801Y-15606174D02*
X10825753Y-15596650D01*
X10825753Y-15596650D02*
X10797182Y-15596650D01*
X10797182Y-15596650D02*
X10778134Y-15606174D01*
X10778134Y-15606174D02*
X10768611Y-15615698D01*
X10978134Y-15729984D02*
X10959087Y-15720460D01*
X10959087Y-15720460D02*
X10949563Y-15710936D01*
X10949563Y-15710936D02*
X10940039Y-15691888D01*
X10940039Y-15691888D02*
X10940039Y-15634746D01*
X10940039Y-15634746D02*
X10949563Y-15615698D01*
X10949563Y-15615698D02*
X10959087Y-15606174D01*
X10959087Y-15606174D02*
X10978134Y-15596650D01*
X10978134Y-15596650D02*
X11006706Y-15596650D01*
X11006706Y-15596650D02*
X11025753Y-15606174D01*
X11025753Y-15606174D02*
X11035277Y-15615698D01*
X11035277Y-15615698D02*
X11044801Y-15634746D01*
X11044801Y-15634746D02*
X11044801Y-15691888D01*
X11044801Y-15691888D02*
X11035277Y-15710936D01*
X11035277Y-15710936D02*
X11025753Y-15720460D01*
X11025753Y-15720460D02*
X11006706Y-15729984D01*
X11006706Y-15729984D02*
X10978134Y-15729984D01*
X11159087Y-15729984D02*
X11140039Y-15720460D01*
X11140039Y-15720460D02*
X11130515Y-15701412D01*
X11130515Y-15701412D02*
X11130515Y-15529984D01*
X11311468Y-15720460D02*
X11292420Y-15729984D01*
X11292420Y-15729984D02*
X11254325Y-15729984D01*
X11254325Y-15729984D02*
X11235277Y-15720460D01*
X11235277Y-15720460D02*
X11225753Y-15701412D01*
X11225753Y-15701412D02*
X11225753Y-15625222D01*
X11225753Y-15625222D02*
X11235277Y-15606174D01*
X11235277Y-15606174D02*
X11254325Y-15596650D01*
X11254325Y-15596650D02*
X11292420Y-15596650D01*
X11292420Y-15596650D02*
X11311468Y-15606174D01*
X11311468Y-15606174D02*
X11320991Y-15625222D01*
X11320991Y-15625222D02*
X11320991Y-15644269D01*
X11320991Y-15644269D02*
X11225753Y-15663317D01*
X11397182Y-15720460D02*
X11416230Y-15729984D01*
X11416230Y-15729984D02*
X11454325Y-15729984D01*
X11454325Y-15729984D02*
X11473372Y-15720460D01*
X11473372Y-15720460D02*
X11482896Y-15701412D01*
X11482896Y-15701412D02*
X11482896Y-15691888D01*
X11482896Y-15691888D02*
X11473372Y-15672841D01*
X11473372Y-15672841D02*
X11454325Y-15663317D01*
X11454325Y-15663317D02*
X11425753Y-15663317D01*
X11425753Y-15663317D02*
X11406706Y-15653793D01*
X11406706Y-15653793D02*
X11397182Y-15634746D01*
X11397182Y-15634746D02*
X11397182Y-15625222D01*
X11397182Y-15625222D02*
X11406706Y-15606174D01*
X11406706Y-15606174D02*
X11425753Y-15596650D01*
X11425753Y-15596650D02*
X11454325Y-15596650D01*
X11454325Y-15596650D02*
X11473372Y-15606174D01*
X11549563Y-15806174D02*
X11559087Y-15796650D01*
X11559087Y-15796650D02*
X11578134Y-15768079D01*
X11578134Y-15768079D02*
X11587658Y-15749031D01*
X11587658Y-15749031D02*
X11597182Y-15720460D01*
X11597182Y-15720460D02*
X11606706Y-15672841D01*
X11606706Y-15672841D02*
X11606706Y-15634746D01*
X11606706Y-15634746D02*
X11597182Y-15587127D01*
X11597182Y-15587127D02*
X11587658Y-15558555D01*
X11587658Y-15558555D02*
X11578134Y-15539508D01*
X11578134Y-15539508D02*
X11559087Y-15510936D01*
X11559087Y-15510936D02*
X11549563Y-15501412D01*
D12*
X6774500Y-15902500D02*
G75*
G02*
X6694500Y-15902500I-40000J0D01*
G01*
X6694500Y-15902500D02*
G75*
G02*
X6774500Y-15902500I40000J0D01*
G01*
D11*
X7073372Y-15793984D02*
X7092420Y-15793984D01*
X7092420Y-15793984D02*
X7111467Y-15803508D01*
X7111467Y-15803508D02*
X7120991Y-15813031D01*
X7120991Y-15813031D02*
X7130515Y-15832079D01*
X7130515Y-15832079D02*
X7140039Y-15870174D01*
X7140039Y-15870174D02*
X7140039Y-15917793D01*
X7140039Y-15917793D02*
X7130515Y-15955888D01*
X7130515Y-15955888D02*
X7120991Y-15974936D01*
X7120991Y-15974936D02*
X7111467Y-15984460D01*
X7111467Y-15984460D02*
X7092420Y-15993984D01*
X7092420Y-15993984D02*
X7073372Y-15993984D01*
X7073372Y-15993984D02*
X7054324Y-15984460D01*
X7054324Y-15984460D02*
X7044801Y-15974936D01*
X7044801Y-15974936D02*
X7035277Y-15955888D01*
X7035277Y-15955888D02*
X7025753Y-15917793D01*
X7025753Y-15917793D02*
X7025753Y-15870174D01*
X7025753Y-15870174D02*
X7035277Y-15832079D01*
X7035277Y-15832079D02*
X7044801Y-15813031D01*
X7044801Y-15813031D02*
X7054324Y-15803508D01*
X7054324Y-15803508D02*
X7073372Y-15793984D01*
X7225753Y-15974936D02*
X7235277Y-15984460D01*
X7235277Y-15984460D02*
X7225753Y-15993984D01*
X7225753Y-15993984D02*
X7216229Y-15984460D01*
X7216229Y-15984460D02*
X7225753Y-15974936D01*
X7225753Y-15974936D02*
X7225753Y-15993984D01*
X7349562Y-15879698D02*
X7330515Y-15870174D01*
X7330515Y-15870174D02*
X7320991Y-15860650D01*
X7320991Y-15860650D02*
X7311467Y-15841603D01*
X7311467Y-15841603D02*
X7311467Y-15832079D01*
X7311467Y-15832079D02*
X7320991Y-15813031D01*
X7320991Y-15813031D02*
X7330515Y-15803508D01*
X7330515Y-15803508D02*
X7349562Y-15793984D01*
X7349562Y-15793984D02*
X7387658Y-15793984D01*
X7387658Y-15793984D02*
X7406705Y-15803508D01*
X7406705Y-15803508D02*
X7416229Y-15813031D01*
X7416229Y-15813031D02*
X7425753Y-15832079D01*
X7425753Y-15832079D02*
X7425753Y-15841603D01*
X7425753Y-15841603D02*
X7416229Y-15860650D01*
X7416229Y-15860650D02*
X7406705Y-15870174D01*
X7406705Y-15870174D02*
X7387658Y-15879698D01*
X7387658Y-15879698D02*
X7349562Y-15879698D01*
X7349562Y-15879698D02*
X7330515Y-15889222D01*
X7330515Y-15889222D02*
X7320991Y-15898746D01*
X7320991Y-15898746D02*
X7311467Y-15917793D01*
X7311467Y-15917793D02*
X7311467Y-15955888D01*
X7311467Y-15955888D02*
X7320991Y-15974936D01*
X7320991Y-15974936D02*
X7330515Y-15984460D01*
X7330515Y-15984460D02*
X7349562Y-15993984D01*
X7349562Y-15993984D02*
X7387658Y-15993984D01*
X7387658Y-15993984D02*
X7406705Y-15984460D01*
X7406705Y-15984460D02*
X7416229Y-15974936D01*
X7416229Y-15974936D02*
X7425753Y-15955888D01*
X7425753Y-15955888D02*
X7425753Y-15917793D01*
X7425753Y-15917793D02*
X7416229Y-15898746D01*
X7416229Y-15898746D02*
X7406705Y-15889222D01*
X7406705Y-15889222D02*
X7387658Y-15879698D01*
X7549562Y-15793984D02*
X7568610Y-15793984D01*
X7568610Y-15793984D02*
X7587658Y-15803508D01*
X7587658Y-15803508D02*
X7597182Y-15813031D01*
X7597182Y-15813031D02*
X7606705Y-15832079D01*
X7606705Y-15832079D02*
X7616229Y-15870174D01*
X7616229Y-15870174D02*
X7616229Y-15917793D01*
X7616229Y-15917793D02*
X7606705Y-15955888D01*
X7606705Y-15955888D02*
X7597182Y-15974936D01*
X7597182Y-15974936D02*
X7587658Y-15984460D01*
X7587658Y-15984460D02*
X7568610Y-15993984D01*
X7568610Y-15993984D02*
X7549562Y-15993984D01*
X7549562Y-15993984D02*
X7530515Y-15984460D01*
X7530515Y-15984460D02*
X7520991Y-15974936D01*
X7520991Y-15974936D02*
X7511467Y-15955888D01*
X7511467Y-15955888D02*
X7501943Y-15917793D01*
X7501943Y-15917793D02*
X7501943Y-15870174D01*
X7501943Y-15870174D02*
X7511467Y-15832079D01*
X7511467Y-15832079D02*
X7520991Y-15813031D01*
X7520991Y-15813031D02*
X7530515Y-15803508D01*
X7530515Y-15803508D02*
X7549562Y-15793984D01*
X7740039Y-15793984D02*
X7759086Y-15793984D01*
X7759086Y-15793984D02*
X7778134Y-15803508D01*
X7778134Y-15803508D02*
X7787658Y-15813031D01*
X7787658Y-15813031D02*
X7797182Y-15832079D01*
X7797182Y-15832079D02*
X7806705Y-15870174D01*
X7806705Y-15870174D02*
X7806705Y-15917793D01*
X7806705Y-15917793D02*
X7797182Y-15955888D01*
X7797182Y-15955888D02*
X7787658Y-15974936D01*
X7787658Y-15974936D02*
X7778134Y-15984460D01*
X7778134Y-15984460D02*
X7759086Y-15993984D01*
X7759086Y-15993984D02*
X7740039Y-15993984D01*
X7740039Y-15993984D02*
X7720991Y-15984460D01*
X7720991Y-15984460D02*
X7711467Y-15974936D01*
X7711467Y-15974936D02*
X7701943Y-15955888D01*
X7701943Y-15955888D02*
X7692420Y-15917793D01*
X7692420Y-15917793D02*
X7692420Y-15870174D01*
X7692420Y-15870174D02*
X7701943Y-15832079D01*
X7701943Y-15832079D02*
X7711467Y-15813031D01*
X7711467Y-15813031D02*
X7720991Y-15803508D01*
X7720991Y-15803508D02*
X7740039Y-15793984D01*
X7892420Y-15993984D02*
X7892420Y-15860650D01*
X7892420Y-15879698D02*
X7901943Y-15870174D01*
X7901943Y-15870174D02*
X7920991Y-15860650D01*
X7920991Y-15860650D02*
X7949563Y-15860650D01*
X7949563Y-15860650D02*
X7968610Y-15870174D01*
X7968610Y-15870174D02*
X7978134Y-15889222D01*
X7978134Y-15889222D02*
X7978134Y-15993984D01*
X7978134Y-15889222D02*
X7987658Y-15870174D01*
X7987658Y-15870174D02*
X8006705Y-15860650D01*
X8006705Y-15860650D02*
X8035277Y-15860650D01*
X8035277Y-15860650D02*
X8054324Y-15870174D01*
X8054324Y-15870174D02*
X8063848Y-15889222D01*
X8063848Y-15889222D02*
X8063848Y-15993984D01*
X8159086Y-15993984D02*
X8159086Y-15860650D01*
X8159086Y-15879698D02*
X8168610Y-15870174D01*
X8168610Y-15870174D02*
X8187658Y-15860650D01*
X8187658Y-15860650D02*
X8216229Y-15860650D01*
X8216229Y-15860650D02*
X8235277Y-15870174D01*
X8235277Y-15870174D02*
X8244801Y-15889222D01*
X8244801Y-15889222D02*
X8244801Y-15993984D01*
X8244801Y-15889222D02*
X8254324Y-15870174D01*
X8254324Y-15870174D02*
X8273372Y-15860650D01*
X8273372Y-15860650D02*
X8301943Y-15860650D01*
X8301943Y-15860650D02*
X8320991Y-15870174D01*
X8320991Y-15870174D02*
X8330515Y-15889222D01*
X8330515Y-15889222D02*
X8330515Y-15993984D01*
X8720991Y-15784460D02*
X8549563Y-16041603D01*
X8978134Y-15793984D02*
X8997182Y-15793984D01*
X8997182Y-15793984D02*
X9016229Y-15803508D01*
X9016229Y-15803508D02*
X9025753Y-15813031D01*
X9025753Y-15813031D02*
X9035277Y-15832079D01*
X9035277Y-15832079D02*
X9044801Y-15870174D01*
X9044801Y-15870174D02*
X9044801Y-15917793D01*
X9044801Y-15917793D02*
X9035277Y-15955888D01*
X9035277Y-15955888D02*
X9025753Y-15974936D01*
X9025753Y-15974936D02*
X9016229Y-15984460D01*
X9016229Y-15984460D02*
X8997182Y-15993984D01*
X8997182Y-15993984D02*
X8978134Y-15993984D01*
X8978134Y-15993984D02*
X8959087Y-15984460D01*
X8959087Y-15984460D02*
X8949563Y-15974936D01*
X8949563Y-15974936D02*
X8940039Y-15955888D01*
X8940039Y-15955888D02*
X8930515Y-15917793D01*
X8930515Y-15917793D02*
X8930515Y-15870174D01*
X8930515Y-15870174D02*
X8940039Y-15832079D01*
X8940039Y-15832079D02*
X8949563Y-15813031D01*
X8949563Y-15813031D02*
X8959087Y-15803508D01*
X8959087Y-15803508D02*
X8978134Y-15793984D01*
X9130515Y-15974936D02*
X9140039Y-15984460D01*
X9140039Y-15984460D02*
X9130515Y-15993984D01*
X9130515Y-15993984D02*
X9120991Y-15984460D01*
X9120991Y-15984460D02*
X9130515Y-15974936D01*
X9130515Y-15974936D02*
X9130515Y-15993984D01*
X9263848Y-15793984D02*
X9282896Y-15793984D01*
X9282896Y-15793984D02*
X9301944Y-15803508D01*
X9301944Y-15803508D02*
X9311468Y-15813031D01*
X9311468Y-15813031D02*
X9320991Y-15832079D01*
X9320991Y-15832079D02*
X9330515Y-15870174D01*
X9330515Y-15870174D02*
X9330515Y-15917793D01*
X9330515Y-15917793D02*
X9320991Y-15955888D01*
X9320991Y-15955888D02*
X9311468Y-15974936D01*
X9311468Y-15974936D02*
X9301944Y-15984460D01*
X9301944Y-15984460D02*
X9282896Y-15993984D01*
X9282896Y-15993984D02*
X9263848Y-15993984D01*
X9263848Y-15993984D02*
X9244801Y-15984460D01*
X9244801Y-15984460D02*
X9235277Y-15974936D01*
X9235277Y-15974936D02*
X9225753Y-15955888D01*
X9225753Y-15955888D02*
X9216229Y-15917793D01*
X9216229Y-15917793D02*
X9216229Y-15870174D01*
X9216229Y-15870174D02*
X9225753Y-15832079D01*
X9225753Y-15832079D02*
X9235277Y-15813031D01*
X9235277Y-15813031D02*
X9244801Y-15803508D01*
X9244801Y-15803508D02*
X9263848Y-15793984D01*
X9397182Y-15793984D02*
X9520991Y-15793984D01*
X9520991Y-15793984D02*
X9454325Y-15870174D01*
X9454325Y-15870174D02*
X9482896Y-15870174D01*
X9482896Y-15870174D02*
X9501944Y-15879698D01*
X9501944Y-15879698D02*
X9511468Y-15889222D01*
X9511468Y-15889222D02*
X9520991Y-15908269D01*
X9520991Y-15908269D02*
X9520991Y-15955888D01*
X9520991Y-15955888D02*
X9511468Y-15974936D01*
X9511468Y-15974936D02*
X9501944Y-15984460D01*
X9501944Y-15984460D02*
X9482896Y-15993984D01*
X9482896Y-15993984D02*
X9425753Y-15993984D01*
X9425753Y-15993984D02*
X9406706Y-15984460D01*
X9406706Y-15984460D02*
X9397182Y-15974936D01*
X9711468Y-15993984D02*
X9597182Y-15993984D01*
X9654325Y-15993984D02*
X9654325Y-15793984D01*
X9654325Y-15793984D02*
X9635277Y-15822555D01*
X9635277Y-15822555D02*
X9616229Y-15841603D01*
X9616229Y-15841603D02*
X9597182Y-15851127D01*
X9892420Y-15793984D02*
X9797182Y-15793984D01*
X9797182Y-15793984D02*
X9787658Y-15889222D01*
X9787658Y-15889222D02*
X9797182Y-15879698D01*
X9797182Y-15879698D02*
X9816229Y-15870174D01*
X9816229Y-15870174D02*
X9863849Y-15870174D01*
X9863849Y-15870174D02*
X9882896Y-15879698D01*
X9882896Y-15879698D02*
X9892420Y-15889222D01*
X9892420Y-15889222D02*
X9901944Y-15908269D01*
X9901944Y-15908269D02*
X9901944Y-15955888D01*
X9901944Y-15955888D02*
X9892420Y-15974936D01*
X9892420Y-15974936D02*
X9882896Y-15984460D01*
X9882896Y-15984460D02*
X9863849Y-15993984D01*
X9863849Y-15993984D02*
X9816229Y-15993984D01*
X9816229Y-15993984D02*
X9797182Y-15984460D01*
X9797182Y-15984460D02*
X9787658Y-15974936D01*
X9978134Y-15793984D02*
X9978134Y-15832079D01*
X10054325Y-15793984D02*
X10054325Y-15832079D01*
X10349563Y-16070174D02*
X10340039Y-16060650D01*
X10340039Y-16060650D02*
X10320991Y-16032079D01*
X10320991Y-16032079D02*
X10311468Y-16013031D01*
X10311468Y-16013031D02*
X10301944Y-15984460D01*
X10301944Y-15984460D02*
X10292420Y-15936841D01*
X10292420Y-15936841D02*
X10292420Y-15898746D01*
X10292420Y-15898746D02*
X10301944Y-15851127D01*
X10301944Y-15851127D02*
X10311468Y-15822555D01*
X10311468Y-15822555D02*
X10320991Y-15803508D01*
X10320991Y-15803508D02*
X10340039Y-15774936D01*
X10340039Y-15774936D02*
X10349563Y-15765412D01*
X10416230Y-15813031D02*
X10425753Y-15803508D01*
X10425753Y-15803508D02*
X10444801Y-15793984D01*
X10444801Y-15793984D02*
X10492420Y-15793984D01*
X10492420Y-15793984D02*
X10511468Y-15803508D01*
X10511468Y-15803508D02*
X10520991Y-15813031D01*
X10520991Y-15813031D02*
X10530515Y-15832079D01*
X10530515Y-15832079D02*
X10530515Y-15851127D01*
X10530515Y-15851127D02*
X10520991Y-15879698D01*
X10520991Y-15879698D02*
X10406706Y-15993984D01*
X10406706Y-15993984D02*
X10530515Y-15993984D01*
X10768611Y-15993984D02*
X10768611Y-15793984D01*
X10854325Y-15993984D02*
X10854325Y-15889222D01*
X10854325Y-15889222D02*
X10844801Y-15870174D01*
X10844801Y-15870174D02*
X10825753Y-15860650D01*
X10825753Y-15860650D02*
X10797182Y-15860650D01*
X10797182Y-15860650D02*
X10778134Y-15870174D01*
X10778134Y-15870174D02*
X10768611Y-15879698D01*
X10978134Y-15993984D02*
X10959087Y-15984460D01*
X10959087Y-15984460D02*
X10949563Y-15974936D01*
X10949563Y-15974936D02*
X10940039Y-15955888D01*
X10940039Y-15955888D02*
X10940039Y-15898746D01*
X10940039Y-15898746D02*
X10949563Y-15879698D01*
X10949563Y-15879698D02*
X10959087Y-15870174D01*
X10959087Y-15870174D02*
X10978134Y-15860650D01*
X10978134Y-15860650D02*
X11006706Y-15860650D01*
X11006706Y-15860650D02*
X11025753Y-15870174D01*
X11025753Y-15870174D02*
X11035277Y-15879698D01*
X11035277Y-15879698D02*
X11044801Y-15898746D01*
X11044801Y-15898746D02*
X11044801Y-15955888D01*
X11044801Y-15955888D02*
X11035277Y-15974936D01*
X11035277Y-15974936D02*
X11025753Y-15984460D01*
X11025753Y-15984460D02*
X11006706Y-15993984D01*
X11006706Y-15993984D02*
X10978134Y-15993984D01*
X11159087Y-15993984D02*
X11140039Y-15984460D01*
X11140039Y-15984460D02*
X11130515Y-15965412D01*
X11130515Y-15965412D02*
X11130515Y-15793984D01*
X11311468Y-15984460D02*
X11292420Y-15993984D01*
X11292420Y-15993984D02*
X11254325Y-15993984D01*
X11254325Y-15993984D02*
X11235277Y-15984460D01*
X11235277Y-15984460D02*
X11225753Y-15965412D01*
X11225753Y-15965412D02*
X11225753Y-15889222D01*
X11225753Y-15889222D02*
X11235277Y-15870174D01*
X11235277Y-15870174D02*
X11254325Y-15860650D01*
X11254325Y-15860650D02*
X11292420Y-15860650D01*
X11292420Y-15860650D02*
X11311468Y-15870174D01*
X11311468Y-15870174D02*
X11320991Y-15889222D01*
X11320991Y-15889222D02*
X11320991Y-15908269D01*
X11320991Y-15908269D02*
X11225753Y-15927317D01*
X11397182Y-15984460D02*
X11416230Y-15993984D01*
X11416230Y-15993984D02*
X11454325Y-15993984D01*
X11454325Y-15993984D02*
X11473372Y-15984460D01*
X11473372Y-15984460D02*
X11482896Y-15965412D01*
X11482896Y-15965412D02*
X11482896Y-15955888D01*
X11482896Y-15955888D02*
X11473372Y-15936841D01*
X11473372Y-15936841D02*
X11454325Y-15927317D01*
X11454325Y-15927317D02*
X11425753Y-15927317D01*
X11425753Y-15927317D02*
X11406706Y-15917793D01*
X11406706Y-15917793D02*
X11397182Y-15898746D01*
X11397182Y-15898746D02*
X11397182Y-15889222D01*
X11397182Y-15889222D02*
X11406706Y-15870174D01*
X11406706Y-15870174D02*
X11425753Y-15860650D01*
X11425753Y-15860650D02*
X11454325Y-15860650D01*
X11454325Y-15860650D02*
X11473372Y-15870174D01*
X11549563Y-16070174D02*
X11559087Y-16060650D01*
X11559087Y-16060650D02*
X11578134Y-16032079D01*
X11578134Y-16032079D02*
X11587658Y-16013031D01*
X11587658Y-16013031D02*
X11597182Y-15984460D01*
X11597182Y-15984460D02*
X11606706Y-15936841D01*
X11606706Y-15936841D02*
X11606706Y-15898746D01*
X11606706Y-15898746D02*
X11597182Y-15851127D01*
X11597182Y-15851127D02*
X11587658Y-15822555D01*
X11587658Y-15822555D02*
X11578134Y-15803508D01*
X11578134Y-15803508D02*
X11559087Y-15774936D01*
X11559087Y-15774936D02*
X11549563Y-15765412D01*
D12*
X6729500Y-16121500D02*
X6729500Y-16211500D01*
X6684500Y-16166500D02*
X6774500Y-16166500D01*
D11*
X7073372Y-16057984D02*
X7092420Y-16057984D01*
X7092420Y-16057984D02*
X7111467Y-16067508D01*
X7111467Y-16067508D02*
X7120991Y-16077031D01*
X7120991Y-16077031D02*
X7130515Y-16096079D01*
X7130515Y-16096079D02*
X7140039Y-16134174D01*
X7140039Y-16134174D02*
X7140039Y-16181793D01*
X7140039Y-16181793D02*
X7130515Y-16219888D01*
X7130515Y-16219888D02*
X7120991Y-16238936D01*
X7120991Y-16238936D02*
X7111467Y-16248460D01*
X7111467Y-16248460D02*
X7092420Y-16257984D01*
X7092420Y-16257984D02*
X7073372Y-16257984D01*
X7073372Y-16257984D02*
X7054324Y-16248460D01*
X7054324Y-16248460D02*
X7044801Y-16238936D01*
X7044801Y-16238936D02*
X7035277Y-16219888D01*
X7035277Y-16219888D02*
X7025753Y-16181793D01*
X7025753Y-16181793D02*
X7025753Y-16134174D01*
X7025753Y-16134174D02*
X7035277Y-16096079D01*
X7035277Y-16096079D02*
X7044801Y-16077031D01*
X7044801Y-16077031D02*
X7054324Y-16067508D01*
X7054324Y-16067508D02*
X7073372Y-16057984D01*
X7225753Y-16238936D02*
X7235277Y-16248460D01*
X7235277Y-16248460D02*
X7225753Y-16257984D01*
X7225753Y-16257984D02*
X7216229Y-16248460D01*
X7216229Y-16248460D02*
X7225753Y-16238936D01*
X7225753Y-16238936D02*
X7225753Y-16257984D01*
X7330515Y-16257984D02*
X7368610Y-16257984D01*
X7368610Y-16257984D02*
X7387658Y-16248460D01*
X7387658Y-16248460D02*
X7397182Y-16238936D01*
X7397182Y-16238936D02*
X7416229Y-16210365D01*
X7416229Y-16210365D02*
X7425753Y-16172269D01*
X7425753Y-16172269D02*
X7425753Y-16096079D01*
X7425753Y-16096079D02*
X7416229Y-16077031D01*
X7416229Y-16077031D02*
X7406705Y-16067508D01*
X7406705Y-16067508D02*
X7387658Y-16057984D01*
X7387658Y-16057984D02*
X7349562Y-16057984D01*
X7349562Y-16057984D02*
X7330515Y-16067508D01*
X7330515Y-16067508D02*
X7320991Y-16077031D01*
X7320991Y-16077031D02*
X7311467Y-16096079D01*
X7311467Y-16096079D02*
X7311467Y-16143698D01*
X7311467Y-16143698D02*
X7320991Y-16162746D01*
X7320991Y-16162746D02*
X7330515Y-16172269D01*
X7330515Y-16172269D02*
X7349562Y-16181793D01*
X7349562Y-16181793D02*
X7387658Y-16181793D01*
X7387658Y-16181793D02*
X7406705Y-16172269D01*
X7406705Y-16172269D02*
X7416229Y-16162746D01*
X7416229Y-16162746D02*
X7425753Y-16143698D01*
X7549562Y-16057984D02*
X7568610Y-16057984D01*
X7568610Y-16057984D02*
X7587658Y-16067508D01*
X7587658Y-16067508D02*
X7597182Y-16077031D01*
X7597182Y-16077031D02*
X7606705Y-16096079D01*
X7606705Y-16096079D02*
X7616229Y-16134174D01*
X7616229Y-16134174D02*
X7616229Y-16181793D01*
X7616229Y-16181793D02*
X7606705Y-16219888D01*
X7606705Y-16219888D02*
X7597182Y-16238936D01*
X7597182Y-16238936D02*
X7587658Y-16248460D01*
X7587658Y-16248460D02*
X7568610Y-16257984D01*
X7568610Y-16257984D02*
X7549562Y-16257984D01*
X7549562Y-16257984D02*
X7530515Y-16248460D01*
X7530515Y-16248460D02*
X7520991Y-16238936D01*
X7520991Y-16238936D02*
X7511467Y-16219888D01*
X7511467Y-16219888D02*
X7501943Y-16181793D01*
X7501943Y-16181793D02*
X7501943Y-16134174D01*
X7501943Y-16134174D02*
X7511467Y-16096079D01*
X7511467Y-16096079D02*
X7520991Y-16077031D01*
X7520991Y-16077031D02*
X7530515Y-16067508D01*
X7530515Y-16067508D02*
X7549562Y-16057984D01*
X7740039Y-16057984D02*
X7759086Y-16057984D01*
X7759086Y-16057984D02*
X7778134Y-16067508D01*
X7778134Y-16067508D02*
X7787658Y-16077031D01*
X7787658Y-16077031D02*
X7797182Y-16096079D01*
X7797182Y-16096079D02*
X7806705Y-16134174D01*
X7806705Y-16134174D02*
X7806705Y-16181793D01*
X7806705Y-16181793D02*
X7797182Y-16219888D01*
X7797182Y-16219888D02*
X7787658Y-16238936D01*
X7787658Y-16238936D02*
X7778134Y-16248460D01*
X7778134Y-16248460D02*
X7759086Y-16257984D01*
X7759086Y-16257984D02*
X7740039Y-16257984D01*
X7740039Y-16257984D02*
X7720991Y-16248460D01*
X7720991Y-16248460D02*
X7711467Y-16238936D01*
X7711467Y-16238936D02*
X7701943Y-16219888D01*
X7701943Y-16219888D02*
X7692420Y-16181793D01*
X7692420Y-16181793D02*
X7692420Y-16134174D01*
X7692420Y-16134174D02*
X7701943Y-16096079D01*
X7701943Y-16096079D02*
X7711467Y-16077031D01*
X7711467Y-16077031D02*
X7720991Y-16067508D01*
X7720991Y-16067508D02*
X7740039Y-16057984D01*
X7892420Y-16257984D02*
X7892420Y-16124650D01*
X7892420Y-16143698D02*
X7901943Y-16134174D01*
X7901943Y-16134174D02*
X7920991Y-16124650D01*
X7920991Y-16124650D02*
X7949563Y-16124650D01*
X7949563Y-16124650D02*
X7968610Y-16134174D01*
X7968610Y-16134174D02*
X7978134Y-16153222D01*
X7978134Y-16153222D02*
X7978134Y-16257984D01*
X7978134Y-16153222D02*
X7987658Y-16134174D01*
X7987658Y-16134174D02*
X8006705Y-16124650D01*
X8006705Y-16124650D02*
X8035277Y-16124650D01*
X8035277Y-16124650D02*
X8054324Y-16134174D01*
X8054324Y-16134174D02*
X8063848Y-16153222D01*
X8063848Y-16153222D02*
X8063848Y-16257984D01*
X8159086Y-16257984D02*
X8159086Y-16124650D01*
X8159086Y-16143698D02*
X8168610Y-16134174D01*
X8168610Y-16134174D02*
X8187658Y-16124650D01*
X8187658Y-16124650D02*
X8216229Y-16124650D01*
X8216229Y-16124650D02*
X8235277Y-16134174D01*
X8235277Y-16134174D02*
X8244801Y-16153222D01*
X8244801Y-16153222D02*
X8244801Y-16257984D01*
X8244801Y-16153222D02*
X8254324Y-16134174D01*
X8254324Y-16134174D02*
X8273372Y-16124650D01*
X8273372Y-16124650D02*
X8301943Y-16124650D01*
X8301943Y-16124650D02*
X8320991Y-16134174D01*
X8320991Y-16134174D02*
X8330515Y-16153222D01*
X8330515Y-16153222D02*
X8330515Y-16257984D01*
X8720991Y-16048460D02*
X8549563Y-16305603D01*
X8978134Y-16057984D02*
X8997182Y-16057984D01*
X8997182Y-16057984D02*
X9016229Y-16067508D01*
X9016229Y-16067508D02*
X9025753Y-16077031D01*
X9025753Y-16077031D02*
X9035277Y-16096079D01*
X9035277Y-16096079D02*
X9044801Y-16134174D01*
X9044801Y-16134174D02*
X9044801Y-16181793D01*
X9044801Y-16181793D02*
X9035277Y-16219888D01*
X9035277Y-16219888D02*
X9025753Y-16238936D01*
X9025753Y-16238936D02*
X9016229Y-16248460D01*
X9016229Y-16248460D02*
X8997182Y-16257984D01*
X8997182Y-16257984D02*
X8978134Y-16257984D01*
X8978134Y-16257984D02*
X8959087Y-16248460D01*
X8959087Y-16248460D02*
X8949563Y-16238936D01*
X8949563Y-16238936D02*
X8940039Y-16219888D01*
X8940039Y-16219888D02*
X8930515Y-16181793D01*
X8930515Y-16181793D02*
X8930515Y-16134174D01*
X8930515Y-16134174D02*
X8940039Y-16096079D01*
X8940039Y-16096079D02*
X8949563Y-16077031D01*
X8949563Y-16077031D02*
X8959087Y-16067508D01*
X8959087Y-16067508D02*
X8978134Y-16057984D01*
X9130515Y-16238936D02*
X9140039Y-16248460D01*
X9140039Y-16248460D02*
X9130515Y-16257984D01*
X9130515Y-16257984D02*
X9120991Y-16248460D01*
X9120991Y-16248460D02*
X9130515Y-16238936D01*
X9130515Y-16238936D02*
X9130515Y-16257984D01*
X9263848Y-16057984D02*
X9282896Y-16057984D01*
X9282896Y-16057984D02*
X9301944Y-16067508D01*
X9301944Y-16067508D02*
X9311468Y-16077031D01*
X9311468Y-16077031D02*
X9320991Y-16096079D01*
X9320991Y-16096079D02*
X9330515Y-16134174D01*
X9330515Y-16134174D02*
X9330515Y-16181793D01*
X9330515Y-16181793D02*
X9320991Y-16219888D01*
X9320991Y-16219888D02*
X9311468Y-16238936D01*
X9311468Y-16238936D02*
X9301944Y-16248460D01*
X9301944Y-16248460D02*
X9282896Y-16257984D01*
X9282896Y-16257984D02*
X9263848Y-16257984D01*
X9263848Y-16257984D02*
X9244801Y-16248460D01*
X9244801Y-16248460D02*
X9235277Y-16238936D01*
X9235277Y-16238936D02*
X9225753Y-16219888D01*
X9225753Y-16219888D02*
X9216229Y-16181793D01*
X9216229Y-16181793D02*
X9216229Y-16134174D01*
X9216229Y-16134174D02*
X9225753Y-16096079D01*
X9225753Y-16096079D02*
X9235277Y-16077031D01*
X9235277Y-16077031D02*
X9244801Y-16067508D01*
X9244801Y-16067508D02*
X9263848Y-16057984D01*
X9397182Y-16057984D02*
X9520991Y-16057984D01*
X9520991Y-16057984D02*
X9454325Y-16134174D01*
X9454325Y-16134174D02*
X9482896Y-16134174D01*
X9482896Y-16134174D02*
X9501944Y-16143698D01*
X9501944Y-16143698D02*
X9511468Y-16153222D01*
X9511468Y-16153222D02*
X9520991Y-16172269D01*
X9520991Y-16172269D02*
X9520991Y-16219888D01*
X9520991Y-16219888D02*
X9511468Y-16238936D01*
X9511468Y-16238936D02*
X9501944Y-16248460D01*
X9501944Y-16248460D02*
X9482896Y-16257984D01*
X9482896Y-16257984D02*
X9425753Y-16257984D01*
X9425753Y-16257984D02*
X9406706Y-16248460D01*
X9406706Y-16248460D02*
X9397182Y-16238936D01*
X9701944Y-16057984D02*
X9606706Y-16057984D01*
X9606706Y-16057984D02*
X9597182Y-16153222D01*
X9597182Y-16153222D02*
X9606706Y-16143698D01*
X9606706Y-16143698D02*
X9625753Y-16134174D01*
X9625753Y-16134174D02*
X9673372Y-16134174D01*
X9673372Y-16134174D02*
X9692420Y-16143698D01*
X9692420Y-16143698D02*
X9701944Y-16153222D01*
X9701944Y-16153222D02*
X9711468Y-16172269D01*
X9711468Y-16172269D02*
X9711468Y-16219888D01*
X9711468Y-16219888D02*
X9701944Y-16238936D01*
X9701944Y-16238936D02*
X9692420Y-16248460D01*
X9692420Y-16248460D02*
X9673372Y-16257984D01*
X9673372Y-16257984D02*
X9625753Y-16257984D01*
X9625753Y-16257984D02*
X9606706Y-16248460D01*
X9606706Y-16248460D02*
X9597182Y-16238936D01*
X9882896Y-16124650D02*
X9882896Y-16257984D01*
X9835277Y-16048460D02*
X9787658Y-16191317D01*
X9787658Y-16191317D02*
X9911468Y-16191317D01*
X9978134Y-16057984D02*
X9978134Y-16096079D01*
X10054325Y-16057984D02*
X10054325Y-16096079D01*
X10349563Y-16334174D02*
X10340039Y-16324650D01*
X10340039Y-16324650D02*
X10320991Y-16296079D01*
X10320991Y-16296079D02*
X10311468Y-16277031D01*
X10311468Y-16277031D02*
X10301944Y-16248460D01*
X10301944Y-16248460D02*
X10292420Y-16200841D01*
X10292420Y-16200841D02*
X10292420Y-16162746D01*
X10292420Y-16162746D02*
X10301944Y-16115127D01*
X10301944Y-16115127D02*
X10311468Y-16086555D01*
X10311468Y-16086555D02*
X10320991Y-16067508D01*
X10320991Y-16067508D02*
X10340039Y-16038936D01*
X10340039Y-16038936D02*
X10349563Y-16029412D01*
X10416230Y-16077031D02*
X10425753Y-16067508D01*
X10425753Y-16067508D02*
X10444801Y-16057984D01*
X10444801Y-16057984D02*
X10492420Y-16057984D01*
X10492420Y-16057984D02*
X10511468Y-16067508D01*
X10511468Y-16067508D02*
X10520991Y-16077031D01*
X10520991Y-16077031D02*
X10530515Y-16096079D01*
X10530515Y-16096079D02*
X10530515Y-16115127D01*
X10530515Y-16115127D02*
X10520991Y-16143698D01*
X10520991Y-16143698D02*
X10406706Y-16257984D01*
X10406706Y-16257984D02*
X10530515Y-16257984D01*
X10768611Y-16257984D02*
X10768611Y-16057984D01*
X10854325Y-16257984D02*
X10854325Y-16153222D01*
X10854325Y-16153222D02*
X10844801Y-16134174D01*
X10844801Y-16134174D02*
X10825753Y-16124650D01*
X10825753Y-16124650D02*
X10797182Y-16124650D01*
X10797182Y-16124650D02*
X10778134Y-16134174D01*
X10778134Y-16134174D02*
X10768611Y-16143698D01*
X10978134Y-16257984D02*
X10959087Y-16248460D01*
X10959087Y-16248460D02*
X10949563Y-16238936D01*
X10949563Y-16238936D02*
X10940039Y-16219888D01*
X10940039Y-16219888D02*
X10940039Y-16162746D01*
X10940039Y-16162746D02*
X10949563Y-16143698D01*
X10949563Y-16143698D02*
X10959087Y-16134174D01*
X10959087Y-16134174D02*
X10978134Y-16124650D01*
X10978134Y-16124650D02*
X11006706Y-16124650D01*
X11006706Y-16124650D02*
X11025753Y-16134174D01*
X11025753Y-16134174D02*
X11035277Y-16143698D01*
X11035277Y-16143698D02*
X11044801Y-16162746D01*
X11044801Y-16162746D02*
X11044801Y-16219888D01*
X11044801Y-16219888D02*
X11035277Y-16238936D01*
X11035277Y-16238936D02*
X11025753Y-16248460D01*
X11025753Y-16248460D02*
X11006706Y-16257984D01*
X11006706Y-16257984D02*
X10978134Y-16257984D01*
X11159087Y-16257984D02*
X11140039Y-16248460D01*
X11140039Y-16248460D02*
X11130515Y-16229412D01*
X11130515Y-16229412D02*
X11130515Y-16057984D01*
X11311468Y-16248460D02*
X11292420Y-16257984D01*
X11292420Y-16257984D02*
X11254325Y-16257984D01*
X11254325Y-16257984D02*
X11235277Y-16248460D01*
X11235277Y-16248460D02*
X11225753Y-16229412D01*
X11225753Y-16229412D02*
X11225753Y-16153222D01*
X11225753Y-16153222D02*
X11235277Y-16134174D01*
X11235277Y-16134174D02*
X11254325Y-16124650D01*
X11254325Y-16124650D02*
X11292420Y-16124650D01*
X11292420Y-16124650D02*
X11311468Y-16134174D01*
X11311468Y-16134174D02*
X11320991Y-16153222D01*
X11320991Y-16153222D02*
X11320991Y-16172269D01*
X11320991Y-16172269D02*
X11225753Y-16191317D01*
X11397182Y-16248460D02*
X11416230Y-16257984D01*
X11416230Y-16257984D02*
X11454325Y-16257984D01*
X11454325Y-16257984D02*
X11473372Y-16248460D01*
X11473372Y-16248460D02*
X11482896Y-16229412D01*
X11482896Y-16229412D02*
X11482896Y-16219888D01*
X11482896Y-16219888D02*
X11473372Y-16200841D01*
X11473372Y-16200841D02*
X11454325Y-16191317D01*
X11454325Y-16191317D02*
X11425753Y-16191317D01*
X11425753Y-16191317D02*
X11406706Y-16181793D01*
X11406706Y-16181793D02*
X11397182Y-16162746D01*
X11397182Y-16162746D02*
X11397182Y-16153222D01*
X11397182Y-16153222D02*
X11406706Y-16134174D01*
X11406706Y-16134174D02*
X11425753Y-16124650D01*
X11425753Y-16124650D02*
X11454325Y-16124650D01*
X11454325Y-16124650D02*
X11473372Y-16134174D01*
X11549563Y-16334174D02*
X11559087Y-16324650D01*
X11559087Y-16324650D02*
X11578134Y-16296079D01*
X11578134Y-16296079D02*
X11587658Y-16277031D01*
X11587658Y-16277031D02*
X11597182Y-16248460D01*
X11597182Y-16248460D02*
X11606706Y-16200841D01*
X11606706Y-16200841D02*
X11606706Y-16162746D01*
X11606706Y-16162746D02*
X11597182Y-16115127D01*
X11597182Y-16115127D02*
X11587658Y-16086555D01*
X11587658Y-16086555D02*
X11578134Y-16067508D01*
X11578134Y-16067508D02*
X11559087Y-16038936D01*
X11559087Y-16038936D02*
X11549563Y-16029412D01*
D12*
X6759856Y-16465856D02*
X6759856Y-16395144D01*
X6689144Y-16395144D01*
X6689144Y-16465856D01*
X6759856Y-16465856D01*
D11*
X7140039Y-16521984D02*
X7025753Y-16521984D01*
X7082896Y-16521984D02*
X7082896Y-16321984D01*
X7082896Y-16321984D02*
X7063848Y-16350555D01*
X7063848Y-16350555D02*
X7044801Y-16369603D01*
X7044801Y-16369603D02*
X7025753Y-16379127D01*
X7225753Y-16502936D02*
X7235277Y-16512460D01*
X7235277Y-16512460D02*
X7225753Y-16521984D01*
X7225753Y-16521984D02*
X7216229Y-16512460D01*
X7216229Y-16512460D02*
X7225753Y-16502936D01*
X7225753Y-16502936D02*
X7225753Y-16521984D01*
X7359086Y-16321984D02*
X7378134Y-16321984D01*
X7378134Y-16321984D02*
X7397182Y-16331508D01*
X7397182Y-16331508D02*
X7406705Y-16341031D01*
X7406705Y-16341031D02*
X7416229Y-16360079D01*
X7416229Y-16360079D02*
X7425753Y-16398174D01*
X7425753Y-16398174D02*
X7425753Y-16445793D01*
X7425753Y-16445793D02*
X7416229Y-16483888D01*
X7416229Y-16483888D02*
X7406705Y-16502936D01*
X7406705Y-16502936D02*
X7397182Y-16512460D01*
X7397182Y-16512460D02*
X7378134Y-16521984D01*
X7378134Y-16521984D02*
X7359086Y-16521984D01*
X7359086Y-16521984D02*
X7340039Y-16512460D01*
X7340039Y-16512460D02*
X7330515Y-16502936D01*
X7330515Y-16502936D02*
X7320991Y-16483888D01*
X7320991Y-16483888D02*
X7311467Y-16445793D01*
X7311467Y-16445793D02*
X7311467Y-16398174D01*
X7311467Y-16398174D02*
X7320991Y-16360079D01*
X7320991Y-16360079D02*
X7330515Y-16341031D01*
X7330515Y-16341031D02*
X7340039Y-16331508D01*
X7340039Y-16331508D02*
X7359086Y-16321984D01*
X7549562Y-16321984D02*
X7568610Y-16321984D01*
X7568610Y-16321984D02*
X7587658Y-16331508D01*
X7587658Y-16331508D02*
X7597182Y-16341031D01*
X7597182Y-16341031D02*
X7606705Y-16360079D01*
X7606705Y-16360079D02*
X7616229Y-16398174D01*
X7616229Y-16398174D02*
X7616229Y-16445793D01*
X7616229Y-16445793D02*
X7606705Y-16483888D01*
X7606705Y-16483888D02*
X7597182Y-16502936D01*
X7597182Y-16502936D02*
X7587658Y-16512460D01*
X7587658Y-16512460D02*
X7568610Y-16521984D01*
X7568610Y-16521984D02*
X7549562Y-16521984D01*
X7549562Y-16521984D02*
X7530515Y-16512460D01*
X7530515Y-16512460D02*
X7520991Y-16502936D01*
X7520991Y-16502936D02*
X7511467Y-16483888D01*
X7511467Y-16483888D02*
X7501943Y-16445793D01*
X7501943Y-16445793D02*
X7501943Y-16398174D01*
X7501943Y-16398174D02*
X7511467Y-16360079D01*
X7511467Y-16360079D02*
X7520991Y-16341031D01*
X7520991Y-16341031D02*
X7530515Y-16331508D01*
X7530515Y-16331508D02*
X7549562Y-16321984D01*
X7740039Y-16321984D02*
X7759086Y-16321984D01*
X7759086Y-16321984D02*
X7778134Y-16331508D01*
X7778134Y-16331508D02*
X7787658Y-16341031D01*
X7787658Y-16341031D02*
X7797182Y-16360079D01*
X7797182Y-16360079D02*
X7806705Y-16398174D01*
X7806705Y-16398174D02*
X7806705Y-16445793D01*
X7806705Y-16445793D02*
X7797182Y-16483888D01*
X7797182Y-16483888D02*
X7787658Y-16502936D01*
X7787658Y-16502936D02*
X7778134Y-16512460D01*
X7778134Y-16512460D02*
X7759086Y-16521984D01*
X7759086Y-16521984D02*
X7740039Y-16521984D01*
X7740039Y-16521984D02*
X7720991Y-16512460D01*
X7720991Y-16512460D02*
X7711467Y-16502936D01*
X7711467Y-16502936D02*
X7701943Y-16483888D01*
X7701943Y-16483888D02*
X7692420Y-16445793D01*
X7692420Y-16445793D02*
X7692420Y-16398174D01*
X7692420Y-16398174D02*
X7701943Y-16360079D01*
X7701943Y-16360079D02*
X7711467Y-16341031D01*
X7711467Y-16341031D02*
X7720991Y-16331508D01*
X7720991Y-16331508D02*
X7740039Y-16321984D01*
X7892420Y-16521984D02*
X7892420Y-16388650D01*
X7892420Y-16407698D02*
X7901943Y-16398174D01*
X7901943Y-16398174D02*
X7920991Y-16388650D01*
X7920991Y-16388650D02*
X7949563Y-16388650D01*
X7949563Y-16388650D02*
X7968610Y-16398174D01*
X7968610Y-16398174D02*
X7978134Y-16417222D01*
X7978134Y-16417222D02*
X7978134Y-16521984D01*
X7978134Y-16417222D02*
X7987658Y-16398174D01*
X7987658Y-16398174D02*
X8006705Y-16388650D01*
X8006705Y-16388650D02*
X8035277Y-16388650D01*
X8035277Y-16388650D02*
X8054324Y-16398174D01*
X8054324Y-16398174D02*
X8063848Y-16417222D01*
X8063848Y-16417222D02*
X8063848Y-16521984D01*
X8159086Y-16521984D02*
X8159086Y-16388650D01*
X8159086Y-16407698D02*
X8168610Y-16398174D01*
X8168610Y-16398174D02*
X8187658Y-16388650D01*
X8187658Y-16388650D02*
X8216229Y-16388650D01*
X8216229Y-16388650D02*
X8235277Y-16398174D01*
X8235277Y-16398174D02*
X8244801Y-16417222D01*
X8244801Y-16417222D02*
X8244801Y-16521984D01*
X8244801Y-16417222D02*
X8254324Y-16398174D01*
X8254324Y-16398174D02*
X8273372Y-16388650D01*
X8273372Y-16388650D02*
X8301943Y-16388650D01*
X8301943Y-16388650D02*
X8320991Y-16398174D01*
X8320991Y-16398174D02*
X8330515Y-16417222D01*
X8330515Y-16417222D02*
X8330515Y-16521984D01*
X8720991Y-16312460D02*
X8549563Y-16569603D01*
X8978134Y-16321984D02*
X8997182Y-16321984D01*
X8997182Y-16321984D02*
X9016229Y-16331508D01*
X9016229Y-16331508D02*
X9025753Y-16341031D01*
X9025753Y-16341031D02*
X9035277Y-16360079D01*
X9035277Y-16360079D02*
X9044801Y-16398174D01*
X9044801Y-16398174D02*
X9044801Y-16445793D01*
X9044801Y-16445793D02*
X9035277Y-16483888D01*
X9035277Y-16483888D02*
X9025753Y-16502936D01*
X9025753Y-16502936D02*
X9016229Y-16512460D01*
X9016229Y-16512460D02*
X8997182Y-16521984D01*
X8997182Y-16521984D02*
X8978134Y-16521984D01*
X8978134Y-16521984D02*
X8959087Y-16512460D01*
X8959087Y-16512460D02*
X8949563Y-16502936D01*
X8949563Y-16502936D02*
X8940039Y-16483888D01*
X8940039Y-16483888D02*
X8930515Y-16445793D01*
X8930515Y-16445793D02*
X8930515Y-16398174D01*
X8930515Y-16398174D02*
X8940039Y-16360079D01*
X8940039Y-16360079D02*
X8949563Y-16341031D01*
X8949563Y-16341031D02*
X8959087Y-16331508D01*
X8959087Y-16331508D02*
X8978134Y-16321984D01*
X9130515Y-16502936D02*
X9140039Y-16512460D01*
X9140039Y-16512460D02*
X9130515Y-16521984D01*
X9130515Y-16521984D02*
X9120991Y-16512460D01*
X9120991Y-16512460D02*
X9130515Y-16502936D01*
X9130515Y-16502936D02*
X9130515Y-16521984D01*
X9263848Y-16321984D02*
X9282896Y-16321984D01*
X9282896Y-16321984D02*
X9301944Y-16331508D01*
X9301944Y-16331508D02*
X9311468Y-16341031D01*
X9311468Y-16341031D02*
X9320991Y-16360079D01*
X9320991Y-16360079D02*
X9330515Y-16398174D01*
X9330515Y-16398174D02*
X9330515Y-16445793D01*
X9330515Y-16445793D02*
X9320991Y-16483888D01*
X9320991Y-16483888D02*
X9311468Y-16502936D01*
X9311468Y-16502936D02*
X9301944Y-16512460D01*
X9301944Y-16512460D02*
X9282896Y-16521984D01*
X9282896Y-16521984D02*
X9263848Y-16521984D01*
X9263848Y-16521984D02*
X9244801Y-16512460D01*
X9244801Y-16512460D02*
X9235277Y-16502936D01*
X9235277Y-16502936D02*
X9225753Y-16483888D01*
X9225753Y-16483888D02*
X9216229Y-16445793D01*
X9216229Y-16445793D02*
X9216229Y-16398174D01*
X9216229Y-16398174D02*
X9225753Y-16360079D01*
X9225753Y-16360079D02*
X9235277Y-16341031D01*
X9235277Y-16341031D02*
X9244801Y-16331508D01*
X9244801Y-16331508D02*
X9263848Y-16321984D01*
X9397182Y-16321984D02*
X9520991Y-16321984D01*
X9520991Y-16321984D02*
X9454325Y-16398174D01*
X9454325Y-16398174D02*
X9482896Y-16398174D01*
X9482896Y-16398174D02*
X9501944Y-16407698D01*
X9501944Y-16407698D02*
X9511468Y-16417222D01*
X9511468Y-16417222D02*
X9520991Y-16436269D01*
X9520991Y-16436269D02*
X9520991Y-16483888D01*
X9520991Y-16483888D02*
X9511468Y-16502936D01*
X9511468Y-16502936D02*
X9501944Y-16512460D01*
X9501944Y-16512460D02*
X9482896Y-16521984D01*
X9482896Y-16521984D02*
X9425753Y-16521984D01*
X9425753Y-16521984D02*
X9406706Y-16512460D01*
X9406706Y-16512460D02*
X9397182Y-16502936D01*
X9616229Y-16521984D02*
X9654325Y-16521984D01*
X9654325Y-16521984D02*
X9673372Y-16512460D01*
X9673372Y-16512460D02*
X9682896Y-16502936D01*
X9682896Y-16502936D02*
X9701944Y-16474365D01*
X9701944Y-16474365D02*
X9711468Y-16436269D01*
X9711468Y-16436269D02*
X9711468Y-16360079D01*
X9711468Y-16360079D02*
X9701944Y-16341031D01*
X9701944Y-16341031D02*
X9692420Y-16331508D01*
X9692420Y-16331508D02*
X9673372Y-16321984D01*
X9673372Y-16321984D02*
X9635277Y-16321984D01*
X9635277Y-16321984D02*
X9616229Y-16331508D01*
X9616229Y-16331508D02*
X9606706Y-16341031D01*
X9606706Y-16341031D02*
X9597182Y-16360079D01*
X9597182Y-16360079D02*
X9597182Y-16407698D01*
X9597182Y-16407698D02*
X9606706Y-16426746D01*
X9606706Y-16426746D02*
X9616229Y-16436269D01*
X9616229Y-16436269D02*
X9635277Y-16445793D01*
X9635277Y-16445793D02*
X9673372Y-16445793D01*
X9673372Y-16445793D02*
X9692420Y-16436269D01*
X9692420Y-16436269D02*
X9701944Y-16426746D01*
X9701944Y-16426746D02*
X9711468Y-16407698D01*
X9882896Y-16388650D02*
X9882896Y-16521984D01*
X9835277Y-16312460D02*
X9787658Y-16455317D01*
X9787658Y-16455317D02*
X9911468Y-16455317D01*
X9978134Y-16321984D02*
X9978134Y-16360079D01*
X10054325Y-16321984D02*
X10054325Y-16360079D01*
X10349563Y-16598174D02*
X10340039Y-16588650D01*
X10340039Y-16588650D02*
X10320991Y-16560079D01*
X10320991Y-16560079D02*
X10311468Y-16541031D01*
X10311468Y-16541031D02*
X10301944Y-16512460D01*
X10301944Y-16512460D02*
X10292420Y-16464841D01*
X10292420Y-16464841D02*
X10292420Y-16426746D01*
X10292420Y-16426746D02*
X10301944Y-16379127D01*
X10301944Y-16379127D02*
X10311468Y-16350555D01*
X10311468Y-16350555D02*
X10320991Y-16331508D01*
X10320991Y-16331508D02*
X10340039Y-16302936D01*
X10340039Y-16302936D02*
X10349563Y-16293412D01*
X10435277Y-16521984D02*
X10473372Y-16521984D01*
X10473372Y-16521984D02*
X10492420Y-16512460D01*
X10492420Y-16512460D02*
X10501944Y-16502936D01*
X10501944Y-16502936D02*
X10520991Y-16474365D01*
X10520991Y-16474365D02*
X10530515Y-16436269D01*
X10530515Y-16436269D02*
X10530515Y-16360079D01*
X10530515Y-16360079D02*
X10520991Y-16341031D01*
X10520991Y-16341031D02*
X10511468Y-16331508D01*
X10511468Y-16331508D02*
X10492420Y-16321984D01*
X10492420Y-16321984D02*
X10454325Y-16321984D01*
X10454325Y-16321984D02*
X10435277Y-16331508D01*
X10435277Y-16331508D02*
X10425753Y-16341031D01*
X10425753Y-16341031D02*
X10416230Y-16360079D01*
X10416230Y-16360079D02*
X10416230Y-16407698D01*
X10416230Y-16407698D02*
X10425753Y-16426746D01*
X10425753Y-16426746D02*
X10435277Y-16436269D01*
X10435277Y-16436269D02*
X10454325Y-16445793D01*
X10454325Y-16445793D02*
X10492420Y-16445793D01*
X10492420Y-16445793D02*
X10511468Y-16436269D01*
X10511468Y-16436269D02*
X10520991Y-16426746D01*
X10520991Y-16426746D02*
X10530515Y-16407698D01*
X10711468Y-16321984D02*
X10616230Y-16321984D01*
X10616230Y-16321984D02*
X10606706Y-16417222D01*
X10606706Y-16417222D02*
X10616230Y-16407698D01*
X10616230Y-16407698D02*
X10635277Y-16398174D01*
X10635277Y-16398174D02*
X10682896Y-16398174D01*
X10682896Y-16398174D02*
X10701944Y-16407698D01*
X10701944Y-16407698D02*
X10711468Y-16417222D01*
X10711468Y-16417222D02*
X10720991Y-16436269D01*
X10720991Y-16436269D02*
X10720991Y-16483888D01*
X10720991Y-16483888D02*
X10711468Y-16502936D01*
X10711468Y-16502936D02*
X10701944Y-16512460D01*
X10701944Y-16512460D02*
X10682896Y-16521984D01*
X10682896Y-16521984D02*
X10635277Y-16521984D01*
X10635277Y-16521984D02*
X10616230Y-16512460D01*
X10616230Y-16512460D02*
X10606706Y-16502936D01*
X10959087Y-16521984D02*
X10959087Y-16321984D01*
X11044801Y-16521984D02*
X11044801Y-16417222D01*
X11044801Y-16417222D02*
X11035277Y-16398174D01*
X11035277Y-16398174D02*
X11016230Y-16388650D01*
X11016230Y-16388650D02*
X10987658Y-16388650D01*
X10987658Y-16388650D02*
X10968611Y-16398174D01*
X10968611Y-16398174D02*
X10959087Y-16407698D01*
X11168611Y-16521984D02*
X11149563Y-16512460D01*
X11149563Y-16512460D02*
X11140039Y-16502936D01*
X11140039Y-16502936D02*
X11130515Y-16483888D01*
X11130515Y-16483888D02*
X11130515Y-16426746D01*
X11130515Y-16426746D02*
X11140039Y-16407698D01*
X11140039Y-16407698D02*
X11149563Y-16398174D01*
X11149563Y-16398174D02*
X11168611Y-16388650D01*
X11168611Y-16388650D02*
X11197182Y-16388650D01*
X11197182Y-16388650D02*
X11216230Y-16398174D01*
X11216230Y-16398174D02*
X11225753Y-16407698D01*
X11225753Y-16407698D02*
X11235277Y-16426746D01*
X11235277Y-16426746D02*
X11235277Y-16483888D01*
X11235277Y-16483888D02*
X11225753Y-16502936D01*
X11225753Y-16502936D02*
X11216230Y-16512460D01*
X11216230Y-16512460D02*
X11197182Y-16521984D01*
X11197182Y-16521984D02*
X11168611Y-16521984D01*
X11349563Y-16521984D02*
X11330515Y-16512460D01*
X11330515Y-16512460D02*
X11320991Y-16493412D01*
X11320991Y-16493412D02*
X11320991Y-16321984D01*
X11501944Y-16512460D02*
X11482896Y-16521984D01*
X11482896Y-16521984D02*
X11444801Y-16521984D01*
X11444801Y-16521984D02*
X11425753Y-16512460D01*
X11425753Y-16512460D02*
X11416230Y-16493412D01*
X11416230Y-16493412D02*
X11416230Y-16417222D01*
X11416230Y-16417222D02*
X11425753Y-16398174D01*
X11425753Y-16398174D02*
X11444801Y-16388650D01*
X11444801Y-16388650D02*
X11482896Y-16388650D01*
X11482896Y-16388650D02*
X11501944Y-16398174D01*
X11501944Y-16398174D02*
X11511468Y-16417222D01*
X11511468Y-16417222D02*
X11511468Y-16436269D01*
X11511468Y-16436269D02*
X11416230Y-16455317D01*
X11587658Y-16512460D02*
X11606706Y-16521984D01*
X11606706Y-16521984D02*
X11644801Y-16521984D01*
X11644801Y-16521984D02*
X11663849Y-16512460D01*
X11663849Y-16512460D02*
X11673372Y-16493412D01*
X11673372Y-16493412D02*
X11673372Y-16483888D01*
X11673372Y-16483888D02*
X11663849Y-16464841D01*
X11663849Y-16464841D02*
X11644801Y-16455317D01*
X11644801Y-16455317D02*
X11616230Y-16455317D01*
X11616230Y-16455317D02*
X11597182Y-16445793D01*
X11597182Y-16445793D02*
X11587658Y-16426746D01*
X11587658Y-16426746D02*
X11587658Y-16417222D01*
X11587658Y-16417222D02*
X11597182Y-16398174D01*
X11597182Y-16398174D02*
X11616230Y-16388650D01*
X11616230Y-16388650D02*
X11644801Y-16388650D01*
X11644801Y-16388650D02*
X11663849Y-16398174D01*
X11740039Y-16598174D02*
X11749563Y-16588650D01*
X11749563Y-16588650D02*
X11768611Y-16560079D01*
X11768611Y-16560079D02*
X11778134Y-16541031D01*
X11778134Y-16541031D02*
X11787658Y-16512460D01*
X11787658Y-16512460D02*
X11797182Y-16464841D01*
X11797182Y-16464841D02*
X11797182Y-16426746D01*
X11797182Y-16426746D02*
X11787658Y-16379127D01*
X11787658Y-16379127D02*
X11778134Y-16350555D01*
X11778134Y-16350555D02*
X11768611Y-16331508D01*
X11768611Y-16331508D02*
X11749563Y-16302936D01*
X11749563Y-16302936D02*
X11740039Y-16293412D01*
D13*
X6719500Y-16749500D02*
X6774500Y-16694500D01*
X6719500Y-16639500D01*
X6664500Y-16694500D01*
X6719500Y-16749500D01*
D11*
X7140039Y-16785984D02*
X7025753Y-16785984D01*
X7082896Y-16785984D02*
X7082896Y-16585984D01*
X7082896Y-16585984D02*
X7063848Y-16614555D01*
X7063848Y-16614555D02*
X7044801Y-16633603D01*
X7044801Y-16633603D02*
X7025753Y-16643127D01*
X7225753Y-16766936D02*
X7235277Y-16776460D01*
X7235277Y-16776460D02*
X7225753Y-16785984D01*
X7225753Y-16785984D02*
X7216229Y-16776460D01*
X7216229Y-16776460D02*
X7225753Y-16766936D01*
X7225753Y-16766936D02*
X7225753Y-16785984D01*
X7425753Y-16785984D02*
X7311467Y-16785984D01*
X7368610Y-16785984D02*
X7368610Y-16585984D01*
X7368610Y-16585984D02*
X7349562Y-16614555D01*
X7349562Y-16614555D02*
X7330515Y-16633603D01*
X7330515Y-16633603D02*
X7311467Y-16643127D01*
X7549562Y-16585984D02*
X7568610Y-16585984D01*
X7568610Y-16585984D02*
X7587658Y-16595508D01*
X7587658Y-16595508D02*
X7597182Y-16605031D01*
X7597182Y-16605031D02*
X7606705Y-16624079D01*
X7606705Y-16624079D02*
X7616229Y-16662174D01*
X7616229Y-16662174D02*
X7616229Y-16709793D01*
X7616229Y-16709793D02*
X7606705Y-16747888D01*
X7606705Y-16747888D02*
X7597182Y-16766936D01*
X7597182Y-16766936D02*
X7587658Y-16776460D01*
X7587658Y-16776460D02*
X7568610Y-16785984D01*
X7568610Y-16785984D02*
X7549562Y-16785984D01*
X7549562Y-16785984D02*
X7530515Y-16776460D01*
X7530515Y-16776460D02*
X7520991Y-16766936D01*
X7520991Y-16766936D02*
X7511467Y-16747888D01*
X7511467Y-16747888D02*
X7501943Y-16709793D01*
X7501943Y-16709793D02*
X7501943Y-16662174D01*
X7501943Y-16662174D02*
X7511467Y-16624079D01*
X7511467Y-16624079D02*
X7520991Y-16605031D01*
X7520991Y-16605031D02*
X7530515Y-16595508D01*
X7530515Y-16595508D02*
X7549562Y-16585984D01*
X7740039Y-16585984D02*
X7759086Y-16585984D01*
X7759086Y-16585984D02*
X7778134Y-16595508D01*
X7778134Y-16595508D02*
X7787658Y-16605031D01*
X7787658Y-16605031D02*
X7797182Y-16624079D01*
X7797182Y-16624079D02*
X7806705Y-16662174D01*
X7806705Y-16662174D02*
X7806705Y-16709793D01*
X7806705Y-16709793D02*
X7797182Y-16747888D01*
X7797182Y-16747888D02*
X7787658Y-16766936D01*
X7787658Y-16766936D02*
X7778134Y-16776460D01*
X7778134Y-16776460D02*
X7759086Y-16785984D01*
X7759086Y-16785984D02*
X7740039Y-16785984D01*
X7740039Y-16785984D02*
X7720991Y-16776460D01*
X7720991Y-16776460D02*
X7711467Y-16766936D01*
X7711467Y-16766936D02*
X7701943Y-16747888D01*
X7701943Y-16747888D02*
X7692420Y-16709793D01*
X7692420Y-16709793D02*
X7692420Y-16662174D01*
X7692420Y-16662174D02*
X7701943Y-16624079D01*
X7701943Y-16624079D02*
X7711467Y-16605031D01*
X7711467Y-16605031D02*
X7720991Y-16595508D01*
X7720991Y-16595508D02*
X7740039Y-16585984D01*
X7892420Y-16785984D02*
X7892420Y-16652650D01*
X7892420Y-16671698D02*
X7901943Y-16662174D01*
X7901943Y-16662174D02*
X7920991Y-16652650D01*
X7920991Y-16652650D02*
X7949563Y-16652650D01*
X7949563Y-16652650D02*
X7968610Y-16662174D01*
X7968610Y-16662174D02*
X7978134Y-16681222D01*
X7978134Y-16681222D02*
X7978134Y-16785984D01*
X7978134Y-16681222D02*
X7987658Y-16662174D01*
X7987658Y-16662174D02*
X8006705Y-16652650D01*
X8006705Y-16652650D02*
X8035277Y-16652650D01*
X8035277Y-16652650D02*
X8054324Y-16662174D01*
X8054324Y-16662174D02*
X8063848Y-16681222D01*
X8063848Y-16681222D02*
X8063848Y-16785984D01*
X8159086Y-16785984D02*
X8159086Y-16652650D01*
X8159086Y-16671698D02*
X8168610Y-16662174D01*
X8168610Y-16662174D02*
X8187658Y-16652650D01*
X8187658Y-16652650D02*
X8216229Y-16652650D01*
X8216229Y-16652650D02*
X8235277Y-16662174D01*
X8235277Y-16662174D02*
X8244801Y-16681222D01*
X8244801Y-16681222D02*
X8244801Y-16785984D01*
X8244801Y-16681222D02*
X8254324Y-16662174D01*
X8254324Y-16662174D02*
X8273372Y-16652650D01*
X8273372Y-16652650D02*
X8301943Y-16652650D01*
X8301943Y-16652650D02*
X8320991Y-16662174D01*
X8320991Y-16662174D02*
X8330515Y-16681222D01*
X8330515Y-16681222D02*
X8330515Y-16785984D01*
X8720991Y-16576460D02*
X8549563Y-16833603D01*
X8978134Y-16585984D02*
X8997182Y-16585984D01*
X8997182Y-16585984D02*
X9016229Y-16595508D01*
X9016229Y-16595508D02*
X9025753Y-16605031D01*
X9025753Y-16605031D02*
X9035277Y-16624079D01*
X9035277Y-16624079D02*
X9044801Y-16662174D01*
X9044801Y-16662174D02*
X9044801Y-16709793D01*
X9044801Y-16709793D02*
X9035277Y-16747888D01*
X9035277Y-16747888D02*
X9025753Y-16766936D01*
X9025753Y-16766936D02*
X9016229Y-16776460D01*
X9016229Y-16776460D02*
X8997182Y-16785984D01*
X8997182Y-16785984D02*
X8978134Y-16785984D01*
X8978134Y-16785984D02*
X8959087Y-16776460D01*
X8959087Y-16776460D02*
X8949563Y-16766936D01*
X8949563Y-16766936D02*
X8940039Y-16747888D01*
X8940039Y-16747888D02*
X8930515Y-16709793D01*
X8930515Y-16709793D02*
X8930515Y-16662174D01*
X8930515Y-16662174D02*
X8940039Y-16624079D01*
X8940039Y-16624079D02*
X8949563Y-16605031D01*
X8949563Y-16605031D02*
X8959087Y-16595508D01*
X8959087Y-16595508D02*
X8978134Y-16585984D01*
X9130515Y-16766936D02*
X9140039Y-16776460D01*
X9140039Y-16776460D02*
X9130515Y-16785984D01*
X9130515Y-16785984D02*
X9120991Y-16776460D01*
X9120991Y-16776460D02*
X9130515Y-16766936D01*
X9130515Y-16766936D02*
X9130515Y-16785984D01*
X9263848Y-16585984D02*
X9282896Y-16585984D01*
X9282896Y-16585984D02*
X9301944Y-16595508D01*
X9301944Y-16595508D02*
X9311468Y-16605031D01*
X9311468Y-16605031D02*
X9320991Y-16624079D01*
X9320991Y-16624079D02*
X9330515Y-16662174D01*
X9330515Y-16662174D02*
X9330515Y-16709793D01*
X9330515Y-16709793D02*
X9320991Y-16747888D01*
X9320991Y-16747888D02*
X9311468Y-16766936D01*
X9311468Y-16766936D02*
X9301944Y-16776460D01*
X9301944Y-16776460D02*
X9282896Y-16785984D01*
X9282896Y-16785984D02*
X9263848Y-16785984D01*
X9263848Y-16785984D02*
X9244801Y-16776460D01*
X9244801Y-16776460D02*
X9235277Y-16766936D01*
X9235277Y-16766936D02*
X9225753Y-16747888D01*
X9225753Y-16747888D02*
X9216229Y-16709793D01*
X9216229Y-16709793D02*
X9216229Y-16662174D01*
X9216229Y-16662174D02*
X9225753Y-16624079D01*
X9225753Y-16624079D02*
X9235277Y-16605031D01*
X9235277Y-16605031D02*
X9244801Y-16595508D01*
X9244801Y-16595508D02*
X9263848Y-16585984D01*
X9501944Y-16652650D02*
X9501944Y-16785984D01*
X9454325Y-16576460D02*
X9406706Y-16719317D01*
X9406706Y-16719317D02*
X9530515Y-16719317D01*
X9587658Y-16585984D02*
X9711468Y-16585984D01*
X9711468Y-16585984D02*
X9644801Y-16662174D01*
X9644801Y-16662174D02*
X9673372Y-16662174D01*
X9673372Y-16662174D02*
X9692420Y-16671698D01*
X9692420Y-16671698D02*
X9701944Y-16681222D01*
X9701944Y-16681222D02*
X9711468Y-16700269D01*
X9711468Y-16700269D02*
X9711468Y-16747888D01*
X9711468Y-16747888D02*
X9701944Y-16766936D01*
X9701944Y-16766936D02*
X9692420Y-16776460D01*
X9692420Y-16776460D02*
X9673372Y-16785984D01*
X9673372Y-16785984D02*
X9616229Y-16785984D01*
X9616229Y-16785984D02*
X9597182Y-16776460D01*
X9597182Y-16776460D02*
X9587658Y-16766936D01*
X9778134Y-16585984D02*
X9901944Y-16585984D01*
X9901944Y-16585984D02*
X9835277Y-16662174D01*
X9835277Y-16662174D02*
X9863849Y-16662174D01*
X9863849Y-16662174D02*
X9882896Y-16671698D01*
X9882896Y-16671698D02*
X9892420Y-16681222D01*
X9892420Y-16681222D02*
X9901944Y-16700269D01*
X9901944Y-16700269D02*
X9901944Y-16747888D01*
X9901944Y-16747888D02*
X9892420Y-16766936D01*
X9892420Y-16766936D02*
X9882896Y-16776460D01*
X9882896Y-16776460D02*
X9863849Y-16785984D01*
X9863849Y-16785984D02*
X9806706Y-16785984D01*
X9806706Y-16785984D02*
X9787658Y-16776460D01*
X9787658Y-16776460D02*
X9778134Y-16766936D01*
X9978134Y-16585984D02*
X9978134Y-16624079D01*
X10054325Y-16585984D02*
X10054325Y-16624079D01*
X10349563Y-16862174D02*
X10340039Y-16852650D01*
X10340039Y-16852650D02*
X10320991Y-16824079D01*
X10320991Y-16824079D02*
X10311468Y-16805031D01*
X10311468Y-16805031D02*
X10301944Y-16776460D01*
X10301944Y-16776460D02*
X10292420Y-16728841D01*
X10292420Y-16728841D02*
X10292420Y-16690746D01*
X10292420Y-16690746D02*
X10301944Y-16643127D01*
X10301944Y-16643127D02*
X10311468Y-16614555D01*
X10311468Y-16614555D02*
X10320991Y-16595508D01*
X10320991Y-16595508D02*
X10340039Y-16566936D01*
X10340039Y-16566936D02*
X10349563Y-16557412D01*
X10511468Y-16652650D02*
X10511468Y-16785984D01*
X10463849Y-16576460D02*
X10416230Y-16719317D01*
X10416230Y-16719317D02*
X10540039Y-16719317D01*
X10768611Y-16785984D02*
X10768611Y-16585984D01*
X10854325Y-16785984D02*
X10854325Y-16681222D01*
X10854325Y-16681222D02*
X10844801Y-16662174D01*
X10844801Y-16662174D02*
X10825753Y-16652650D01*
X10825753Y-16652650D02*
X10797182Y-16652650D01*
X10797182Y-16652650D02*
X10778134Y-16662174D01*
X10778134Y-16662174D02*
X10768611Y-16671698D01*
X10978134Y-16785984D02*
X10959087Y-16776460D01*
X10959087Y-16776460D02*
X10949563Y-16766936D01*
X10949563Y-16766936D02*
X10940039Y-16747888D01*
X10940039Y-16747888D02*
X10940039Y-16690746D01*
X10940039Y-16690746D02*
X10949563Y-16671698D01*
X10949563Y-16671698D02*
X10959087Y-16662174D01*
X10959087Y-16662174D02*
X10978134Y-16652650D01*
X10978134Y-16652650D02*
X11006706Y-16652650D01*
X11006706Y-16652650D02*
X11025753Y-16662174D01*
X11025753Y-16662174D02*
X11035277Y-16671698D01*
X11035277Y-16671698D02*
X11044801Y-16690746D01*
X11044801Y-16690746D02*
X11044801Y-16747888D01*
X11044801Y-16747888D02*
X11035277Y-16766936D01*
X11035277Y-16766936D02*
X11025753Y-16776460D01*
X11025753Y-16776460D02*
X11006706Y-16785984D01*
X11006706Y-16785984D02*
X10978134Y-16785984D01*
X11159087Y-16785984D02*
X11140039Y-16776460D01*
X11140039Y-16776460D02*
X11130515Y-16757412D01*
X11130515Y-16757412D02*
X11130515Y-16585984D01*
X11311468Y-16776460D02*
X11292420Y-16785984D01*
X11292420Y-16785984D02*
X11254325Y-16785984D01*
X11254325Y-16785984D02*
X11235277Y-16776460D01*
X11235277Y-16776460D02*
X11225753Y-16757412D01*
X11225753Y-16757412D02*
X11225753Y-16681222D01*
X11225753Y-16681222D02*
X11235277Y-16662174D01*
X11235277Y-16662174D02*
X11254325Y-16652650D01*
X11254325Y-16652650D02*
X11292420Y-16652650D01*
X11292420Y-16652650D02*
X11311468Y-16662174D01*
X11311468Y-16662174D02*
X11320991Y-16681222D01*
X11320991Y-16681222D02*
X11320991Y-16700269D01*
X11320991Y-16700269D02*
X11225753Y-16719317D01*
X11397182Y-16776460D02*
X11416230Y-16785984D01*
X11416230Y-16785984D02*
X11454325Y-16785984D01*
X11454325Y-16785984D02*
X11473372Y-16776460D01*
X11473372Y-16776460D02*
X11482896Y-16757412D01*
X11482896Y-16757412D02*
X11482896Y-16747888D01*
X11482896Y-16747888D02*
X11473372Y-16728841D01*
X11473372Y-16728841D02*
X11454325Y-16719317D01*
X11454325Y-16719317D02*
X11425753Y-16719317D01*
X11425753Y-16719317D02*
X11406706Y-16709793D01*
X11406706Y-16709793D02*
X11397182Y-16690746D01*
X11397182Y-16690746D02*
X11397182Y-16681222D01*
X11397182Y-16681222D02*
X11406706Y-16662174D01*
X11406706Y-16662174D02*
X11425753Y-16652650D01*
X11425753Y-16652650D02*
X11454325Y-16652650D01*
X11454325Y-16652650D02*
X11473372Y-16662174D01*
X11549563Y-16862174D02*
X11559087Y-16852650D01*
X11559087Y-16852650D02*
X11578134Y-16824079D01*
X11578134Y-16824079D02*
X11587658Y-16805031D01*
X11587658Y-16805031D02*
X11597182Y-16776460D01*
X11597182Y-16776460D02*
X11606706Y-16728841D01*
X11606706Y-16728841D02*
X11606706Y-16690746D01*
X11606706Y-16690746D02*
X11597182Y-16643127D01*
X11597182Y-16643127D02*
X11587658Y-16614555D01*
X11587658Y-16614555D02*
X11578134Y-16595508D01*
X11578134Y-16595508D02*
X11559087Y-16566936D01*
X11559087Y-16566936D02*
X11549563Y-16557412D01*
D14*
X6644500Y-16893500D02*
X6774500Y-17023500D01*
X6774500Y-16893500D02*
X6644500Y-17023500D01*
X6774500Y-16958500D02*
G75*
G02*
X6644500Y-16958500I-65000J0D01*
G01*
X6644500Y-16958500D02*
G75*
G02*
X6774500Y-16958500I65000J0D01*
G01*
D11*
X7140039Y-17049984D02*
X7025753Y-17049984D01*
X7082896Y-17049984D02*
X7082896Y-16849984D01*
X7082896Y-16849984D02*
X7063848Y-16878555D01*
X7063848Y-16878555D02*
X7044801Y-16897603D01*
X7044801Y-16897603D02*
X7025753Y-16907127D01*
X7225753Y-17030936D02*
X7235277Y-17040460D01*
X7235277Y-17040460D02*
X7225753Y-17049984D01*
X7225753Y-17049984D02*
X7216229Y-17040460D01*
X7216229Y-17040460D02*
X7225753Y-17030936D01*
X7225753Y-17030936D02*
X7225753Y-17049984D01*
X7301943Y-16849984D02*
X7425753Y-16849984D01*
X7425753Y-16849984D02*
X7359086Y-16926174D01*
X7359086Y-16926174D02*
X7387658Y-16926174D01*
X7387658Y-16926174D02*
X7406705Y-16935698D01*
X7406705Y-16935698D02*
X7416229Y-16945222D01*
X7416229Y-16945222D02*
X7425753Y-16964270D01*
X7425753Y-16964270D02*
X7425753Y-17011889D01*
X7425753Y-17011889D02*
X7416229Y-17030936D01*
X7416229Y-17030936D02*
X7406705Y-17040460D01*
X7406705Y-17040460D02*
X7387658Y-17049984D01*
X7387658Y-17049984D02*
X7330515Y-17049984D01*
X7330515Y-17049984D02*
X7311467Y-17040460D01*
X7311467Y-17040460D02*
X7301943Y-17030936D01*
X7549562Y-16849984D02*
X7568610Y-16849984D01*
X7568610Y-16849984D02*
X7587658Y-16859508D01*
X7587658Y-16859508D02*
X7597182Y-16869031D01*
X7597182Y-16869031D02*
X7606705Y-16888079D01*
X7606705Y-16888079D02*
X7616229Y-16926174D01*
X7616229Y-16926174D02*
X7616229Y-16973793D01*
X7616229Y-16973793D02*
X7606705Y-17011889D01*
X7606705Y-17011889D02*
X7597182Y-17030936D01*
X7597182Y-17030936D02*
X7587658Y-17040460D01*
X7587658Y-17040460D02*
X7568610Y-17049984D01*
X7568610Y-17049984D02*
X7549562Y-17049984D01*
X7549562Y-17049984D02*
X7530515Y-17040460D01*
X7530515Y-17040460D02*
X7520991Y-17030936D01*
X7520991Y-17030936D02*
X7511467Y-17011889D01*
X7511467Y-17011889D02*
X7501943Y-16973793D01*
X7501943Y-16973793D02*
X7501943Y-16926174D01*
X7501943Y-16926174D02*
X7511467Y-16888079D01*
X7511467Y-16888079D02*
X7520991Y-16869031D01*
X7520991Y-16869031D02*
X7530515Y-16859508D01*
X7530515Y-16859508D02*
X7549562Y-16849984D01*
X7740039Y-16849984D02*
X7759086Y-16849984D01*
X7759086Y-16849984D02*
X7778134Y-16859508D01*
X7778134Y-16859508D02*
X7787658Y-16869031D01*
X7787658Y-16869031D02*
X7797182Y-16888079D01*
X7797182Y-16888079D02*
X7806705Y-16926174D01*
X7806705Y-16926174D02*
X7806705Y-16973793D01*
X7806705Y-16973793D02*
X7797182Y-17011889D01*
X7797182Y-17011889D02*
X7787658Y-17030936D01*
X7787658Y-17030936D02*
X7778134Y-17040460D01*
X7778134Y-17040460D02*
X7759086Y-17049984D01*
X7759086Y-17049984D02*
X7740039Y-17049984D01*
X7740039Y-17049984D02*
X7720991Y-17040460D01*
X7720991Y-17040460D02*
X7711467Y-17030936D01*
X7711467Y-17030936D02*
X7701943Y-17011889D01*
X7701943Y-17011889D02*
X7692420Y-16973793D01*
X7692420Y-16973793D02*
X7692420Y-16926174D01*
X7692420Y-16926174D02*
X7701943Y-16888079D01*
X7701943Y-16888079D02*
X7711467Y-16869031D01*
X7711467Y-16869031D02*
X7720991Y-16859508D01*
X7720991Y-16859508D02*
X7740039Y-16849984D01*
X7892420Y-17049984D02*
X7892420Y-16916650D01*
X7892420Y-16935698D02*
X7901943Y-16926174D01*
X7901943Y-16926174D02*
X7920991Y-16916650D01*
X7920991Y-16916650D02*
X7949563Y-16916650D01*
X7949563Y-16916650D02*
X7968610Y-16926174D01*
X7968610Y-16926174D02*
X7978134Y-16945222D01*
X7978134Y-16945222D02*
X7978134Y-17049984D01*
X7978134Y-16945222D02*
X7987658Y-16926174D01*
X7987658Y-16926174D02*
X8006705Y-16916650D01*
X8006705Y-16916650D02*
X8035277Y-16916650D01*
X8035277Y-16916650D02*
X8054324Y-16926174D01*
X8054324Y-16926174D02*
X8063848Y-16945222D01*
X8063848Y-16945222D02*
X8063848Y-17049984D01*
X8159086Y-17049984D02*
X8159086Y-16916650D01*
X8159086Y-16935698D02*
X8168610Y-16926174D01*
X8168610Y-16926174D02*
X8187658Y-16916650D01*
X8187658Y-16916650D02*
X8216229Y-16916650D01*
X8216229Y-16916650D02*
X8235277Y-16926174D01*
X8235277Y-16926174D02*
X8244801Y-16945222D01*
X8244801Y-16945222D02*
X8244801Y-17049984D01*
X8244801Y-16945222D02*
X8254324Y-16926174D01*
X8254324Y-16926174D02*
X8273372Y-16916650D01*
X8273372Y-16916650D02*
X8301943Y-16916650D01*
X8301943Y-16916650D02*
X8320991Y-16926174D01*
X8320991Y-16926174D02*
X8330515Y-16945222D01*
X8330515Y-16945222D02*
X8330515Y-17049984D01*
X8720991Y-16840460D02*
X8549563Y-17097603D01*
X8978134Y-16849984D02*
X8997182Y-16849984D01*
X8997182Y-16849984D02*
X9016229Y-16859508D01*
X9016229Y-16859508D02*
X9025753Y-16869031D01*
X9025753Y-16869031D02*
X9035277Y-16888079D01*
X9035277Y-16888079D02*
X9044801Y-16926174D01*
X9044801Y-16926174D02*
X9044801Y-16973793D01*
X9044801Y-16973793D02*
X9035277Y-17011889D01*
X9035277Y-17011889D02*
X9025753Y-17030936D01*
X9025753Y-17030936D02*
X9016229Y-17040460D01*
X9016229Y-17040460D02*
X8997182Y-17049984D01*
X8997182Y-17049984D02*
X8978134Y-17049984D01*
X8978134Y-17049984D02*
X8959087Y-17040460D01*
X8959087Y-17040460D02*
X8949563Y-17030936D01*
X8949563Y-17030936D02*
X8940039Y-17011889D01*
X8940039Y-17011889D02*
X8930515Y-16973793D01*
X8930515Y-16973793D02*
X8930515Y-16926174D01*
X8930515Y-16926174D02*
X8940039Y-16888079D01*
X8940039Y-16888079D02*
X8949563Y-16869031D01*
X8949563Y-16869031D02*
X8959087Y-16859508D01*
X8959087Y-16859508D02*
X8978134Y-16849984D01*
X9130515Y-17030936D02*
X9140039Y-17040460D01*
X9140039Y-17040460D02*
X9130515Y-17049984D01*
X9130515Y-17049984D02*
X9120991Y-17040460D01*
X9120991Y-17040460D02*
X9130515Y-17030936D01*
X9130515Y-17030936D02*
X9130515Y-17049984D01*
X9263848Y-16849984D02*
X9282896Y-16849984D01*
X9282896Y-16849984D02*
X9301944Y-16859508D01*
X9301944Y-16859508D02*
X9311468Y-16869031D01*
X9311468Y-16869031D02*
X9320991Y-16888079D01*
X9320991Y-16888079D02*
X9330515Y-16926174D01*
X9330515Y-16926174D02*
X9330515Y-16973793D01*
X9330515Y-16973793D02*
X9320991Y-17011889D01*
X9320991Y-17011889D02*
X9311468Y-17030936D01*
X9311468Y-17030936D02*
X9301944Y-17040460D01*
X9301944Y-17040460D02*
X9282896Y-17049984D01*
X9282896Y-17049984D02*
X9263848Y-17049984D01*
X9263848Y-17049984D02*
X9244801Y-17040460D01*
X9244801Y-17040460D02*
X9235277Y-17030936D01*
X9235277Y-17030936D02*
X9225753Y-17011889D01*
X9225753Y-17011889D02*
X9216229Y-16973793D01*
X9216229Y-16973793D02*
X9216229Y-16926174D01*
X9216229Y-16926174D02*
X9225753Y-16888079D01*
X9225753Y-16888079D02*
X9235277Y-16869031D01*
X9235277Y-16869031D02*
X9244801Y-16859508D01*
X9244801Y-16859508D02*
X9263848Y-16849984D01*
X9511468Y-16849984D02*
X9416229Y-16849984D01*
X9416229Y-16849984D02*
X9406706Y-16945222D01*
X9406706Y-16945222D02*
X9416229Y-16935698D01*
X9416229Y-16935698D02*
X9435277Y-16926174D01*
X9435277Y-16926174D02*
X9482896Y-16926174D01*
X9482896Y-16926174D02*
X9501944Y-16935698D01*
X9501944Y-16935698D02*
X9511468Y-16945222D01*
X9511468Y-16945222D02*
X9520991Y-16964270D01*
X9520991Y-16964270D02*
X9520991Y-17011889D01*
X9520991Y-17011889D02*
X9511468Y-17030936D01*
X9511468Y-17030936D02*
X9501944Y-17040460D01*
X9501944Y-17040460D02*
X9482896Y-17049984D01*
X9482896Y-17049984D02*
X9435277Y-17049984D01*
X9435277Y-17049984D02*
X9416229Y-17040460D01*
X9416229Y-17040460D02*
X9406706Y-17030936D01*
X9711468Y-17049984D02*
X9597182Y-17049984D01*
X9654325Y-17049984D02*
X9654325Y-16849984D01*
X9654325Y-16849984D02*
X9635277Y-16878555D01*
X9635277Y-16878555D02*
X9616229Y-16897603D01*
X9616229Y-16897603D02*
X9597182Y-16907127D01*
X9787658Y-16869031D02*
X9797182Y-16859508D01*
X9797182Y-16859508D02*
X9816229Y-16849984D01*
X9816229Y-16849984D02*
X9863849Y-16849984D01*
X9863849Y-16849984D02*
X9882896Y-16859508D01*
X9882896Y-16859508D02*
X9892420Y-16869031D01*
X9892420Y-16869031D02*
X9901944Y-16888079D01*
X9901944Y-16888079D02*
X9901944Y-16907127D01*
X9901944Y-16907127D02*
X9892420Y-16935698D01*
X9892420Y-16935698D02*
X9778134Y-17049984D01*
X9778134Y-17049984D02*
X9901944Y-17049984D01*
X9978134Y-16849984D02*
X9978134Y-16888079D01*
X10054325Y-16849984D02*
X10054325Y-16888079D01*
X10349563Y-17126174D02*
X10340039Y-17116650D01*
X10340039Y-17116650D02*
X10320991Y-17088079D01*
X10320991Y-17088079D02*
X10311468Y-17069031D01*
X10311468Y-17069031D02*
X10301944Y-17040460D01*
X10301944Y-17040460D02*
X10292420Y-16992841D01*
X10292420Y-16992841D02*
X10292420Y-16954746D01*
X10292420Y-16954746D02*
X10301944Y-16907127D01*
X10301944Y-16907127D02*
X10311468Y-16878555D01*
X10311468Y-16878555D02*
X10320991Y-16859508D01*
X10320991Y-16859508D02*
X10340039Y-16830936D01*
X10340039Y-16830936D02*
X10349563Y-16821412D01*
X10530515Y-17049984D02*
X10416230Y-17049984D01*
X10473372Y-17049984D02*
X10473372Y-16849984D01*
X10473372Y-16849984D02*
X10454325Y-16878555D01*
X10454325Y-16878555D02*
X10435277Y-16897603D01*
X10435277Y-16897603D02*
X10416230Y-16907127D01*
X10701944Y-16849984D02*
X10663849Y-16849984D01*
X10663849Y-16849984D02*
X10644801Y-16859508D01*
X10644801Y-16859508D02*
X10635277Y-16869031D01*
X10635277Y-16869031D02*
X10616230Y-16897603D01*
X10616230Y-16897603D02*
X10606706Y-16935698D01*
X10606706Y-16935698D02*
X10606706Y-17011889D01*
X10606706Y-17011889D02*
X10616230Y-17030936D01*
X10616230Y-17030936D02*
X10625753Y-17040460D01*
X10625753Y-17040460D02*
X10644801Y-17049984D01*
X10644801Y-17049984D02*
X10682896Y-17049984D01*
X10682896Y-17049984D02*
X10701944Y-17040460D01*
X10701944Y-17040460D02*
X10711468Y-17030936D01*
X10711468Y-17030936D02*
X10720991Y-17011889D01*
X10720991Y-17011889D02*
X10720991Y-16964270D01*
X10720991Y-16964270D02*
X10711468Y-16945222D01*
X10711468Y-16945222D02*
X10701944Y-16935698D01*
X10701944Y-16935698D02*
X10682896Y-16926174D01*
X10682896Y-16926174D02*
X10644801Y-16926174D01*
X10644801Y-16926174D02*
X10625753Y-16935698D01*
X10625753Y-16935698D02*
X10616230Y-16945222D01*
X10616230Y-16945222D02*
X10606706Y-16964270D01*
X10959087Y-17049984D02*
X10959087Y-16849984D01*
X11044801Y-17049984D02*
X11044801Y-16945222D01*
X11044801Y-16945222D02*
X11035277Y-16926174D01*
X11035277Y-16926174D02*
X11016230Y-16916650D01*
X11016230Y-16916650D02*
X10987658Y-16916650D01*
X10987658Y-16916650D02*
X10968611Y-16926174D01*
X10968611Y-16926174D02*
X10959087Y-16935698D01*
X11168611Y-17049984D02*
X11149563Y-17040460D01*
X11149563Y-17040460D02*
X11140039Y-17030936D01*
X11140039Y-17030936D02*
X11130515Y-17011889D01*
X11130515Y-17011889D02*
X11130515Y-16954746D01*
X11130515Y-16954746D02*
X11140039Y-16935698D01*
X11140039Y-16935698D02*
X11149563Y-16926174D01*
X11149563Y-16926174D02*
X11168611Y-16916650D01*
X11168611Y-16916650D02*
X11197182Y-16916650D01*
X11197182Y-16916650D02*
X11216230Y-16926174D01*
X11216230Y-16926174D02*
X11225753Y-16935698D01*
X11225753Y-16935698D02*
X11235277Y-16954746D01*
X11235277Y-16954746D02*
X11235277Y-17011889D01*
X11235277Y-17011889D02*
X11225753Y-17030936D01*
X11225753Y-17030936D02*
X11216230Y-17040460D01*
X11216230Y-17040460D02*
X11197182Y-17049984D01*
X11197182Y-17049984D02*
X11168611Y-17049984D01*
X11349563Y-17049984D02*
X11330515Y-17040460D01*
X11330515Y-17040460D02*
X11320991Y-17021412D01*
X11320991Y-17021412D02*
X11320991Y-16849984D01*
X11501944Y-17040460D02*
X11482896Y-17049984D01*
X11482896Y-17049984D02*
X11444801Y-17049984D01*
X11444801Y-17049984D02*
X11425753Y-17040460D01*
X11425753Y-17040460D02*
X11416230Y-17021412D01*
X11416230Y-17021412D02*
X11416230Y-16945222D01*
X11416230Y-16945222D02*
X11425753Y-16926174D01*
X11425753Y-16926174D02*
X11444801Y-16916650D01*
X11444801Y-16916650D02*
X11482896Y-16916650D01*
X11482896Y-16916650D02*
X11501944Y-16926174D01*
X11501944Y-16926174D02*
X11511468Y-16945222D01*
X11511468Y-16945222D02*
X11511468Y-16964270D01*
X11511468Y-16964270D02*
X11416230Y-16983317D01*
X11587658Y-17040460D02*
X11606706Y-17049984D01*
X11606706Y-17049984D02*
X11644801Y-17049984D01*
X11644801Y-17049984D02*
X11663849Y-17040460D01*
X11663849Y-17040460D02*
X11673372Y-17021412D01*
X11673372Y-17021412D02*
X11673372Y-17011889D01*
X11673372Y-17011889D02*
X11663849Y-16992841D01*
X11663849Y-16992841D02*
X11644801Y-16983317D01*
X11644801Y-16983317D02*
X11616230Y-16983317D01*
X11616230Y-16983317D02*
X11597182Y-16973793D01*
X11597182Y-16973793D02*
X11587658Y-16954746D01*
X11587658Y-16954746D02*
X11587658Y-16945222D01*
X11587658Y-16945222D02*
X11597182Y-16926174D01*
X11597182Y-16926174D02*
X11616230Y-16916650D01*
X11616230Y-16916650D02*
X11644801Y-16916650D01*
X11644801Y-16916650D02*
X11663849Y-16926174D01*
X11740039Y-17126174D02*
X11749563Y-17116650D01*
X11749563Y-17116650D02*
X11768611Y-17088079D01*
X11768611Y-17088079D02*
X11778134Y-17069031D01*
X11778134Y-17069031D02*
X11787658Y-17040460D01*
X11787658Y-17040460D02*
X11797182Y-16992841D01*
X11797182Y-16992841D02*
X11797182Y-16954746D01*
X11797182Y-16954746D02*
X11787658Y-16907127D01*
X11787658Y-16907127D02*
X11778134Y-16878555D01*
X11778134Y-16878555D02*
X11768611Y-16859508D01*
X11768611Y-16859508D02*
X11749563Y-16830936D01*
X11749563Y-16830936D02*
X11740039Y-16821412D01*
M02*
