%TF.GenerationSoftware,KiCad,Pcbnew,9.0.6*%
%TF.CreationDate,2026-05-16T12:54:51+05:30*%
%TF.ProjectId,S7_Min_Enet,53375f4d-696e-45f4-956e-65742e6b6963,rev?*%
%TF.SameCoordinates,Original*%
%TF.FileFunction,Drillmap*%
%TF.FilePolarity,Positive*%
%FSLAX45Y45*%
G04 Gerber Fmt 4.5, Leading zero omitted, Abs format (unit mm)*
G04 Created by KiCad (PCBNEW 9.0.6) date 2026-05-16 12:54:51*
%MOMM*%
%LPD*%
G01*
G04 APERTURE LIST*
%ADD10C,0.050000*%
%ADD11C,0.200000*%
%ADD12C,0.100000*%
%ADD13C,0.102000*%
G04 APERTURE END LIST*
D10*
X14900000Y-7700000D02*
X8700000Y-7700000D01*
X13900000Y-11900000D02*
X14900000Y-11900000D01*
X8700000Y-7700000D02*
X8700000Y-11900000D01*
X14900000Y-11900000D02*
X14900000Y-7700000D01*
X8700000Y-11900000D02*
X13900000Y-11900000D01*
D11*
D12*
X9490000Y-10440000D02*
X9510000Y-10460000D01*
X9510000Y-10440000D02*
X9490000Y-10460000D01*
X9590000Y-10440000D02*
X9610000Y-10460000D01*
X9610000Y-10440000D02*
X9590000Y-10460000D01*
X9690000Y-10260000D02*
X9710000Y-10280000D01*
X9710000Y-10260000D02*
X9690000Y-10280000D01*
X9690000Y-10440000D02*
X9710000Y-10460000D01*
X9710000Y-10440000D02*
X9690000Y-10460000D01*
X9790000Y-10260000D02*
X9810000Y-10280000D01*
X9810000Y-10260000D02*
X9790000Y-10280000D01*
X10635000Y-10590000D02*
X10655000Y-10610000D01*
X10655000Y-10590000D02*
X10635000Y-10610000D01*
X10830000Y-8360000D02*
X10850000Y-8380000D01*
X10850000Y-8360000D02*
X10830000Y-8380000D01*
X10830000Y-9005000D02*
X10850000Y-9025000D01*
X10850000Y-9005000D02*
X10830000Y-9025000D01*
X10975000Y-9970000D02*
X10995000Y-9990000D01*
X10995000Y-9970000D02*
X10975000Y-9990000D01*
X11045000Y-10590000D02*
X11065000Y-10610000D01*
X11065000Y-10590000D02*
X11045000Y-10610000D01*
X11130000Y-9930000D02*
X11150000Y-9950000D01*
X11150000Y-9930000D02*
X11130000Y-9950000D01*
X11170000Y-9210000D02*
X11190000Y-9230000D01*
X11190000Y-9210000D02*
X11170000Y-9230000D01*
X11220000Y-9910001D02*
X11240000Y-9930001D01*
X11240000Y-9910001D02*
X11220000Y-9930001D01*
X11255057Y-9764943D02*
X11275057Y-9784943D01*
X11275057Y-9764943D02*
X11255057Y-9784943D01*
X11288941Y-9841059D02*
X11308941Y-9861059D01*
X11308941Y-9841059D02*
X11288941Y-9861059D01*
X11300000Y-9190000D02*
X11320000Y-9210000D01*
X11320000Y-9190000D02*
X11300000Y-9210000D01*
X11300000Y-9300000D02*
X11320000Y-9320000D01*
X11320000Y-9300000D02*
X11300000Y-9320000D01*
X11330000Y-10170000D02*
X11350000Y-10190000D01*
X11350000Y-10170000D02*
X11330000Y-10190000D01*
X11487882Y-10040000D02*
X11507882Y-10060000D01*
X11507882Y-10040000D02*
X11487882Y-10060000D01*
X11520000Y-9395000D02*
X11540000Y-9415000D01*
X11540000Y-9395000D02*
X11520000Y-9415000D01*
X11540000Y-10590000D02*
X11560000Y-10610000D01*
X11560000Y-10590000D02*
X11540000Y-10610000D01*
X11730000Y-9830000D02*
X11750000Y-9850000D01*
X11750000Y-9830000D02*
X11730000Y-9850000D01*
X11905001Y-11565001D02*
X11925001Y-11585001D01*
X11925001Y-11565001D02*
X11905001Y-11585001D01*
X11920000Y-9285000D02*
X11940000Y-9305000D01*
X11940000Y-9285000D02*
X11920000Y-9305000D01*
X12260000Y-9920000D02*
X12280000Y-9940000D01*
X12280000Y-9920000D02*
X12260000Y-9940000D01*
X12750000Y-9920000D02*
X12770000Y-9940000D01*
X12770000Y-9920000D02*
X12750000Y-9940000D01*
X12750000Y-10210000D02*
X12770000Y-10230000D01*
X12770000Y-10210000D02*
X12750000Y-10230000D01*
X12814750Y-11309750D02*
X12834750Y-11329750D01*
X12834750Y-11309750D02*
X12814750Y-11329750D01*
X12815000Y-10790000D02*
X12835000Y-10810000D01*
X12835000Y-10790000D02*
X12815000Y-10810000D01*
X12815000Y-11415000D02*
X12835000Y-11435000D01*
X12835000Y-11415000D02*
X12815000Y-11435000D01*
X12880000Y-10490000D02*
X12900000Y-10510000D01*
X12900000Y-10490000D02*
X12880000Y-10510000D01*
X12940000Y-10490000D02*
X12960000Y-10510000D01*
X12960000Y-10490000D02*
X12940000Y-10510000D01*
X12940000Y-11310000D02*
X12960000Y-11330000D01*
X12960000Y-11310000D02*
X12940000Y-11330000D01*
X13005000Y-10490000D02*
X13025000Y-10510000D01*
X13025000Y-10490000D02*
X13005000Y-10510000D01*
X13070000Y-10490000D02*
X13090000Y-10510000D01*
X13090000Y-10490000D02*
X13070000Y-10510000D01*
X13140000Y-10805000D02*
X13160000Y-10825000D01*
X13160000Y-10805000D02*
X13140000Y-10825000D01*
X13140000Y-10875000D02*
X13160000Y-10895000D01*
X13160000Y-10875000D02*
X13140000Y-10895000D01*
X13220000Y-9920000D02*
X13240000Y-9940000D01*
X13240000Y-9920000D02*
X13220000Y-9940000D01*
X13505000Y-9920000D02*
X13525000Y-9940000D01*
X13525000Y-9920000D02*
X13505000Y-9940000D01*
X13560000Y-10840000D02*
X13580000Y-10860000D01*
X13580000Y-10840000D02*
X13560000Y-10860000D01*
X13620000Y-10940000D02*
X13640000Y-10960000D01*
X13640000Y-10940000D02*
X13620000Y-10960000D01*
X13800000Y-10190000D02*
X13820000Y-10210000D01*
X13820000Y-10190000D02*
X13800000Y-10210000D01*
X13804997Y-9984997D02*
X13824997Y-10004997D01*
X13824997Y-9984997D02*
X13804997Y-10004997D01*
X13830000Y-10545000D02*
X13850000Y-10565000D01*
X13850000Y-10545000D02*
X13830000Y-10565000D01*
X13830000Y-11235000D02*
X13850000Y-11255000D01*
X13850000Y-11235000D02*
X13830000Y-11255000D01*
X13925000Y-11565000D02*
X13945000Y-11585000D01*
X13945000Y-11565000D02*
X13925000Y-11585000D01*
X14130000Y-10560000D02*
X14150000Y-10580000D01*
X14150000Y-10560000D02*
X14130000Y-10580000D01*
X14130000Y-11405000D02*
X14150000Y-11425000D01*
X14150000Y-11405000D02*
X14130000Y-11425000D01*
X14130000Y-11680000D02*
X14150000Y-11700000D01*
X14150000Y-11680000D02*
X14130000Y-11700000D01*
X14250000Y-10720000D02*
X14270000Y-10740000D01*
X14270000Y-10720000D02*
X14250000Y-10740000D01*
X14590000Y-10750000D02*
X14610000Y-10770000D01*
X14610000Y-10750000D02*
X14590000Y-10770000D01*
X14590000Y-10950000D02*
X14610000Y-10970000D01*
X14610000Y-10950000D02*
X14590000Y-10970000D01*
X10520086Y-9600000D02*
G75*
G02*
X10500086Y-9600000I-10000J0D01*
G01*
X10500086Y-9600000D02*
G75*
G02*
X10520086Y-9600000I10000J0D01*
G01*
X10592565Y-9527522D02*
G75*
G02*
X10572565Y-9527522I-10000J0D01*
G01*
X10572565Y-9527522D02*
G75*
G02*
X10592565Y-9527522I10000J0D01*
G01*
X10592565Y-9672478D02*
G75*
G02*
X10572565Y-9672478I-10000J0D01*
G01*
X10572565Y-9672478D02*
G75*
G02*
X10592565Y-9672478I10000J0D01*
G01*
X10665043Y-9455043D02*
G75*
G02*
X10645043Y-9455043I-10000J0D01*
G01*
X10645043Y-9455043D02*
G75*
G02*
X10665043Y-9455043I10000J0D01*
G01*
X10665043Y-9600000D02*
G75*
G02*
X10645043Y-9600000I-10000J0D01*
G01*
X10645043Y-9600000D02*
G75*
G02*
X10665043Y-9600000I10000J0D01*
G01*
X10665043Y-9744957D02*
G75*
G02*
X10645043Y-9744957I-10000J0D01*
G01*
X10645043Y-9744957D02*
G75*
G02*
X10665043Y-9744957I10000J0D01*
G01*
X10737522Y-9382565D02*
G75*
G02*
X10717522Y-9382565I-10000J0D01*
G01*
X10717522Y-9382565D02*
G75*
G02*
X10737522Y-9382565I10000J0D01*
G01*
X10737522Y-9527522D02*
G75*
G02*
X10717522Y-9527522I-10000J0D01*
G01*
X10717522Y-9527522D02*
G75*
G02*
X10737522Y-9527522I10000J0D01*
G01*
X10737522Y-9672478D02*
G75*
G02*
X10717522Y-9672478I-10000J0D01*
G01*
X10717522Y-9672478D02*
G75*
G02*
X10737522Y-9672478I10000J0D01*
G01*
X10737522Y-9817435D02*
G75*
G02*
X10717522Y-9817435I-10000J0D01*
G01*
X10717522Y-9817435D02*
G75*
G02*
X10737522Y-9817435I10000J0D01*
G01*
X10810000Y-9310086D02*
G75*
G02*
X10790000Y-9310086I-10000J0D01*
G01*
X10790000Y-9310086D02*
G75*
G02*
X10810000Y-9310086I10000J0D01*
G01*
X10810000Y-9455043D02*
G75*
G02*
X10790000Y-9455043I-10000J0D01*
G01*
X10790000Y-9455043D02*
G75*
G02*
X10810000Y-9455043I10000J0D01*
G01*
X10810000Y-9600000D02*
G75*
G02*
X10790000Y-9600000I-10000J0D01*
G01*
X10790000Y-9600000D02*
G75*
G02*
X10810000Y-9600000I10000J0D01*
G01*
X10810000Y-9744957D02*
G75*
G02*
X10790000Y-9744957I-10000J0D01*
G01*
X10790000Y-9744957D02*
G75*
G02*
X10810000Y-9744957I10000J0D01*
G01*
X10810000Y-9889914D02*
G75*
G02*
X10790000Y-9889914I-10000J0D01*
G01*
X10790000Y-9889914D02*
G75*
G02*
X10810000Y-9889914I10000J0D01*
G01*
X10882478Y-9382565D02*
G75*
G02*
X10862478Y-9382565I-10000J0D01*
G01*
X10862478Y-9382565D02*
G75*
G02*
X10882478Y-9382565I10000J0D01*
G01*
X10882478Y-9527522D02*
G75*
G02*
X10862478Y-9527522I-10000J0D01*
G01*
X10862478Y-9527522D02*
G75*
G02*
X10882478Y-9527522I10000J0D01*
G01*
X10882478Y-9672478D02*
G75*
G02*
X10862478Y-9672478I-10000J0D01*
G01*
X10862478Y-9672478D02*
G75*
G02*
X10882478Y-9672478I10000J0D01*
G01*
X10882478Y-9817435D02*
G75*
G02*
X10862478Y-9817435I-10000J0D01*
G01*
X10862478Y-9817435D02*
G75*
G02*
X10882478Y-9817435I10000J0D01*
G01*
X10954957Y-9455043D02*
G75*
G02*
X10934957Y-9455043I-10000J0D01*
G01*
X10934957Y-9455043D02*
G75*
G02*
X10954957Y-9455043I10000J0D01*
G01*
X10954957Y-9600000D02*
G75*
G02*
X10934957Y-9600000I-10000J0D01*
G01*
X10934957Y-9600000D02*
G75*
G02*
X10954957Y-9600000I10000J0D01*
G01*
X10954957Y-9744957D02*
G75*
G02*
X10934957Y-9744957I-10000J0D01*
G01*
X10934957Y-9744957D02*
G75*
G02*
X10954957Y-9744957I10000J0D01*
G01*
X11027435Y-9527522D02*
G75*
G02*
X11007435Y-9527522I-10000J0D01*
G01*
X11007435Y-9527522D02*
G75*
G02*
X11027435Y-9527522I10000J0D01*
G01*
X11027435Y-9672478D02*
G75*
G02*
X11007435Y-9672478I-10000J0D01*
G01*
X11007435Y-9672478D02*
G75*
G02*
X11027435Y-9672478I10000J0D01*
G01*
X11099914Y-9600000D02*
G75*
G02*
X11079914Y-9600000I-10000J0D01*
G01*
X11079914Y-9600000D02*
G75*
G02*
X11099914Y-9600000I10000J0D01*
G01*
X9530000Y-8277500D02*
X9530000Y-8302500D01*
X9517500Y-8290000D02*
X9542500Y-8290000D01*
X9530000Y-8517500D02*
X9530000Y-8542500D01*
X9517500Y-8530000D02*
X9542500Y-8530000D01*
X9530000Y-8627500D02*
X9530000Y-8652500D01*
X9517500Y-8640000D02*
X9542500Y-8640000D01*
X9530000Y-8827500D02*
X9530000Y-8852500D01*
X9517500Y-8840000D02*
X9542500Y-8840000D01*
X9530000Y-9007500D02*
X9530000Y-9032500D01*
X9517500Y-9020000D02*
X9542500Y-9020000D01*
X10860000Y-8107500D02*
X10860000Y-8132500D01*
X10847500Y-8120000D02*
X10872500Y-8120000D01*
X10950000Y-9057500D02*
X10950000Y-9082500D01*
X10937500Y-9070000D02*
X10962500Y-9070000D01*
X11210000Y-8327500D02*
X11210000Y-8352500D01*
X11197500Y-8340000D02*
X11222500Y-8340000D01*
X11270000Y-9077500D02*
X11270000Y-9102500D01*
X11257500Y-9090000D02*
X11282500Y-9090000D01*
X11590000Y-9077500D02*
X11590000Y-9102500D01*
X11577500Y-9090000D02*
X11602500Y-9090000D01*
X11590000Y-9187500D02*
X11590000Y-9212500D01*
X11577500Y-9200000D02*
X11602500Y-9200000D01*
X11590000Y-9297500D02*
X11590000Y-9322500D01*
X11577500Y-9310000D02*
X11602500Y-9310000D01*
X11680000Y-8107500D02*
X11680000Y-8132500D01*
X11667500Y-8120000D02*
X11692500Y-8120000D01*
X12040000Y-8327500D02*
X12040000Y-8352500D01*
X12027500Y-8340000D02*
X12052500Y-8340000D01*
X9964142Y-9564142D02*
X9964142Y-9535858D01*
X9935858Y-9535858D01*
X9935858Y-9564142D01*
X9964142Y-9564142D01*
X9964142Y-9664142D02*
X9964142Y-9635858D01*
X9935858Y-9635858D01*
X9935858Y-9664142D01*
X9964142Y-9664142D01*
X11894142Y-9714142D02*
X11894142Y-9685858D01*
X11865858Y-9685858D01*
X11865858Y-9714142D01*
X11894142Y-9714142D01*
X14730000Y-10535000D02*
X14755000Y-10510000D01*
X14730000Y-10485000D01*
X14705000Y-10510000D01*
X14730000Y-10535000D01*
X14697500Y-10535000D02*
X14762500Y-10535000D01*
X14762500Y-10485000D02*
G75*
G02*
X14762500Y-10535000I0J-25000D01*
G01*
X14762500Y-10485000D02*
X14697500Y-10485000D01*
X14697500Y-10485000D02*
G75*
G03*
X14697500Y-10535000I0J-25000D01*
G01*
X14730000Y-11235000D02*
X14755000Y-11210000D01*
X14730000Y-11185000D01*
X14705000Y-11210000D01*
X14730000Y-11235000D01*
X14697500Y-11235000D02*
X14762500Y-11235000D01*
X14762500Y-11185000D02*
G75*
G02*
X14762500Y-11235000I0J-25000D01*
G01*
X14762500Y-11185000D02*
X14697500Y-11185000D01*
X14697500Y-11185000D02*
G75*
G03*
X14697500Y-11235000I0J-25000D01*
G01*
X14432500Y-10582500D02*
X14487500Y-10637500D01*
X14487500Y-10582500D02*
X14432500Y-10637500D01*
X14487500Y-10610000D02*
G75*
G02*
X14432500Y-10610000I-27500J0D01*
G01*
X14432500Y-10610000D02*
G75*
G02*
X14487500Y-10610000I27500J0D01*
G01*
X14487500Y-10625000D02*
X14487500Y-10595000D01*
X14432500Y-10595000D02*
G75*
G02*
X14487500Y-10595000I27500J0D01*
G01*
X14432500Y-10595000D02*
X14432500Y-10625000D01*
X14432500Y-10625000D02*
G75*
G03*
X14487500Y-10625000I27500J0D01*
G01*
X14432500Y-11082500D02*
X14487500Y-11137500D01*
X14487500Y-11082500D02*
X14432500Y-11137500D01*
X14487500Y-11110000D02*
G75*
G02*
X14432500Y-11110000I-27500J0D01*
G01*
X14432500Y-11110000D02*
G75*
G02*
X14487500Y-11110000I27500J0D01*
G01*
X14487500Y-11125000D02*
X14487500Y-11095000D01*
X14432500Y-11095000D02*
G75*
G02*
X14487500Y-11095000I27500J0D01*
G01*
X14432500Y-11095000D02*
X14432500Y-11125000D01*
X14432500Y-11125000D02*
G75*
G03*
X14487500Y-11125000I27500J0D01*
G01*
X13455000Y-7972500D02*
X13535000Y-8052500D01*
X13535000Y-7972500D02*
X13455000Y-8052500D01*
X13495000Y-7972500D02*
X13495000Y-8052500D01*
X13455000Y-8012500D02*
X13535000Y-8012500D01*
X13455000Y-8052500D02*
X13535000Y-8052500D01*
X13535000Y-7972500D02*
G75*
G02*
X13535000Y-8052500I0J-40000D01*
G01*
X13535000Y-7972500D02*
X13455000Y-7972500D01*
X13455000Y-7972500D02*
G75*
G03*
X13455000Y-8052500I0J-40000D01*
G01*
X13455000Y-9547500D02*
X13535000Y-9627500D01*
X13535000Y-9547500D02*
X13455000Y-9627500D01*
X13495000Y-9547500D02*
X13495000Y-9627500D01*
X13455000Y-9587500D02*
X13535000Y-9587500D01*
X13455000Y-9627500D02*
X13535000Y-9627500D01*
X13535000Y-9547500D02*
G75*
G02*
X13535000Y-9627500I0J-40000D01*
G01*
X13535000Y-9547500D02*
X13455000Y-9547500D01*
X13455000Y-9547500D02*
G75*
G03*
X13455000Y-9627500I0J-40000D01*
G01*
X12866000Y-8310500D02*
X12956000Y-8400500D01*
X12956000Y-8310500D02*
X12866000Y-8400500D01*
X12942820Y-8387320D02*
X12942820Y-8323680D01*
X12879180Y-8323680D01*
X12879180Y-8387320D01*
X12942820Y-8387320D01*
X12866000Y-8564500D02*
X12956000Y-8654500D01*
X12956000Y-8564500D02*
X12866000Y-8654500D01*
X12942820Y-8641320D02*
X12942820Y-8577680D01*
X12879180Y-8577680D01*
X12879180Y-8641320D01*
X12942820Y-8641320D01*
X12866000Y-8818500D02*
X12956000Y-8908500D01*
X12956000Y-8818500D02*
X12866000Y-8908500D01*
X12942820Y-8895320D02*
X12942820Y-8831680D01*
X12879180Y-8831680D01*
X12879180Y-8895320D01*
X12942820Y-8895320D01*
X12866000Y-9072500D02*
X12956000Y-9162500D01*
X12956000Y-9072500D02*
X12866000Y-9162500D01*
X12942820Y-9149320D02*
X12942820Y-9085680D01*
X12879180Y-9085680D01*
X12879180Y-9149320D01*
X12942820Y-9149320D01*
X13120000Y-8437500D02*
X13210000Y-8527500D01*
X13210000Y-8437500D02*
X13120000Y-8527500D01*
X13196820Y-8514320D02*
X13196820Y-8450680D01*
X13133180Y-8450680D01*
X13133180Y-8514320D01*
X13196820Y-8514320D01*
X13120000Y-8691500D02*
X13210000Y-8781500D01*
X13210000Y-8691500D02*
X13120000Y-8781500D01*
X13196820Y-8768320D02*
X13196820Y-8704680D01*
X13133180Y-8704680D01*
X13133180Y-8768320D01*
X13196820Y-8768320D01*
X13120000Y-8945500D02*
X13210000Y-9035500D01*
X13210000Y-8945500D02*
X13120000Y-9035500D01*
X13196820Y-9022320D02*
X13196820Y-8958680D01*
X13133180Y-8958680D01*
X13133180Y-9022320D01*
X13196820Y-9022320D01*
X13120000Y-9199500D02*
X13210000Y-9289500D01*
X13210000Y-9199500D02*
X13120000Y-9289500D01*
X13196820Y-9276320D02*
X13196820Y-9212680D01*
X13133180Y-9212680D01*
X13133180Y-9276320D01*
X13196820Y-9276320D01*
X8950000Y-7950000D02*
X9050000Y-8050000D01*
X9050000Y-7950000D02*
X8950000Y-8050000D01*
X9000000Y-8050000D02*
X9050000Y-8000000D01*
X9000000Y-7950000D01*
X8950000Y-8000000D01*
X9000000Y-8050000D01*
X8950000Y-8204000D02*
X9050000Y-8304000D01*
X9050000Y-8204000D02*
X8950000Y-8304000D01*
X9000000Y-8304000D02*
X9050000Y-8254000D01*
X9000000Y-8204000D01*
X8950000Y-8254000D01*
X9000000Y-8304000D01*
X8950000Y-8458000D02*
X9050000Y-8558000D01*
X9050000Y-8458000D02*
X8950000Y-8558000D01*
X9000000Y-8558000D02*
X9050000Y-8508000D01*
X9000000Y-8458000D01*
X8950000Y-8508000D01*
X9000000Y-8558000D01*
X8950000Y-8712000D02*
X9050000Y-8812000D01*
X9050000Y-8712000D02*
X8950000Y-8812000D01*
X9000000Y-8812000D02*
X9050000Y-8762000D01*
X9000000Y-8712000D01*
X8950000Y-8762000D01*
X9000000Y-8812000D01*
X8950000Y-8966000D02*
X9050000Y-9066000D01*
X9050000Y-8966000D02*
X8950000Y-9066000D01*
X9000000Y-9066000D02*
X9050000Y-9016000D01*
X9000000Y-8966000D01*
X8950000Y-9016000D01*
X9000000Y-9066000D01*
X8950000Y-9220000D02*
X9050000Y-9320000D01*
X9050000Y-9220000D02*
X8950000Y-9320000D01*
X9000000Y-9320000D02*
X9050000Y-9270000D01*
X9000000Y-9220000D01*
X8950000Y-9270000D01*
X9000000Y-9320000D01*
X8950000Y-9474000D02*
X9050000Y-9574000D01*
X9050000Y-9474000D02*
X8950000Y-9574000D01*
X9000000Y-9574000D02*
X9050000Y-9524000D01*
X9000000Y-9474000D01*
X8950000Y-9524000D01*
X9000000Y-9574000D01*
X8950000Y-9728000D02*
X9050000Y-9828000D01*
X9050000Y-9728000D02*
X8950000Y-9828000D01*
X9000000Y-9828000D02*
X9050000Y-9778000D01*
X9000000Y-9728000D01*
X8950000Y-9778000D01*
X9000000Y-9828000D01*
X8950000Y-9982000D02*
X9050000Y-10082000D01*
X9050000Y-9982000D02*
X8950000Y-10082000D01*
X9000000Y-10082000D02*
X9050000Y-10032000D01*
X9000000Y-9982000D01*
X8950000Y-10032000D01*
X9000000Y-10082000D01*
X8950000Y-10236000D02*
X9050000Y-10336000D01*
X9050000Y-10236000D02*
X8950000Y-10336000D01*
X9000000Y-10336000D02*
X9050000Y-10286000D01*
X9000000Y-10236000D01*
X8950000Y-10286000D01*
X9000000Y-10336000D01*
X8950000Y-10490000D02*
X9050000Y-10590000D01*
X9050000Y-10490000D02*
X8950000Y-10590000D01*
X9000000Y-10590000D02*
X9050000Y-10540000D01*
X9000000Y-10490000D01*
X8950000Y-10540000D01*
X9000000Y-10590000D01*
X8950000Y-10744000D02*
X9050000Y-10844000D01*
X9050000Y-10744000D02*
X8950000Y-10844000D01*
X9000000Y-10844000D02*
X9050000Y-10794000D01*
X9000000Y-10744000D01*
X8950000Y-10794000D01*
X9000000Y-10844000D01*
X8950000Y-10998000D02*
X9050000Y-11098000D01*
X9050000Y-10998000D02*
X8950000Y-11098000D01*
X9000000Y-11098000D02*
X9050000Y-11048000D01*
X9000000Y-10998000D01*
X8950000Y-11048000D01*
X9000000Y-11098000D01*
X8950000Y-11252000D02*
X9050000Y-11352000D01*
X9050000Y-11252000D02*
X8950000Y-11352000D01*
X9000000Y-11352000D02*
X9050000Y-11302000D01*
X9000000Y-11252000D01*
X8950000Y-11302000D01*
X9000000Y-11352000D01*
X8950000Y-11506000D02*
X9050000Y-11606000D01*
X9050000Y-11506000D02*
X8950000Y-11606000D01*
X9000000Y-11606000D02*
X9050000Y-11556000D01*
X9000000Y-11506000D01*
X8950000Y-11556000D01*
X9000000Y-11606000D01*
X9204000Y-7950000D02*
X9304000Y-8050000D01*
X9304000Y-7950000D02*
X9204000Y-8050000D01*
X9254000Y-8050000D02*
X9304000Y-8000000D01*
X9254000Y-7950000D01*
X9204000Y-8000000D01*
X9254000Y-8050000D01*
X9204000Y-8204000D02*
X9304000Y-8304000D01*
X9304000Y-8204000D02*
X9204000Y-8304000D01*
X9254000Y-8304000D02*
X9304000Y-8254000D01*
X9254000Y-8204000D01*
X9204000Y-8254000D01*
X9254000Y-8304000D01*
X9204000Y-8458000D02*
X9304000Y-8558000D01*
X9304000Y-8458000D02*
X9204000Y-8558000D01*
X9254000Y-8558000D02*
X9304000Y-8508000D01*
X9254000Y-8458000D01*
X9204000Y-8508000D01*
X9254000Y-8558000D01*
X9204000Y-8712000D02*
X9304000Y-8812000D01*
X9304000Y-8712000D02*
X9204000Y-8812000D01*
X9254000Y-8812000D02*
X9304000Y-8762000D01*
X9254000Y-8712000D01*
X9204000Y-8762000D01*
X9254000Y-8812000D01*
X9204000Y-8966000D02*
X9304000Y-9066000D01*
X9304000Y-8966000D02*
X9204000Y-9066000D01*
X9254000Y-9066000D02*
X9304000Y-9016000D01*
X9254000Y-8966000D01*
X9204000Y-9016000D01*
X9254000Y-9066000D01*
X9204000Y-9220000D02*
X9304000Y-9320000D01*
X9304000Y-9220000D02*
X9204000Y-9320000D01*
X9254000Y-9320000D02*
X9304000Y-9270000D01*
X9254000Y-9220000D01*
X9204000Y-9270000D01*
X9254000Y-9320000D01*
X9204000Y-9474000D02*
X9304000Y-9574000D01*
X9304000Y-9474000D02*
X9204000Y-9574000D01*
X9254000Y-9574000D02*
X9304000Y-9524000D01*
X9254000Y-9474000D01*
X9204000Y-9524000D01*
X9254000Y-9574000D01*
X9204000Y-9728000D02*
X9304000Y-9828000D01*
X9304000Y-9728000D02*
X9204000Y-9828000D01*
X9254000Y-9828000D02*
X9304000Y-9778000D01*
X9254000Y-9728000D01*
X9204000Y-9778000D01*
X9254000Y-9828000D01*
X9204000Y-9982000D02*
X9304000Y-10082000D01*
X9304000Y-9982000D02*
X9204000Y-10082000D01*
X9254000Y-10082000D02*
X9304000Y-10032000D01*
X9254000Y-9982000D01*
X9204000Y-10032000D01*
X9254000Y-10082000D01*
X9204000Y-10236000D02*
X9304000Y-10336000D01*
X9304000Y-10236000D02*
X9204000Y-10336000D01*
X9254000Y-10336000D02*
X9304000Y-10286000D01*
X9254000Y-10236000D01*
X9204000Y-10286000D01*
X9254000Y-10336000D01*
X9204000Y-10490000D02*
X9304000Y-10590000D01*
X9304000Y-10490000D02*
X9204000Y-10590000D01*
X9254000Y-10590000D02*
X9304000Y-10540000D01*
X9254000Y-10490000D01*
X9204000Y-10540000D01*
X9254000Y-10590000D01*
X9204000Y-10744000D02*
X9304000Y-10844000D01*
X9304000Y-10744000D02*
X9204000Y-10844000D01*
X9254000Y-10844000D02*
X9304000Y-10794000D01*
X9254000Y-10744000D01*
X9204000Y-10794000D01*
X9254000Y-10844000D01*
X9204000Y-10998000D02*
X9304000Y-11098000D01*
X9304000Y-10998000D02*
X9204000Y-11098000D01*
X9254000Y-11098000D02*
X9304000Y-11048000D01*
X9254000Y-10998000D01*
X9204000Y-11048000D01*
X9254000Y-11098000D01*
X9204000Y-11252000D02*
X9304000Y-11352000D01*
X9304000Y-11252000D02*
X9204000Y-11352000D01*
X9254000Y-11352000D02*
X9304000Y-11302000D01*
X9254000Y-11252000D01*
X9204000Y-11302000D01*
X9254000Y-11352000D01*
X9204000Y-11506000D02*
X9304000Y-11606000D01*
X9304000Y-11506000D02*
X9204000Y-11606000D01*
X9254000Y-11606000D02*
X9304000Y-11556000D01*
X9254000Y-11506000D01*
X9204000Y-11556000D01*
X9254000Y-11606000D01*
D13*
X14138000Y-8116500D02*
X14138000Y-8218500D01*
X14087000Y-8167500D02*
X14189000Y-8167500D01*
X14189000Y-8167500D02*
G75*
G02*
X14087000Y-8167500I-51000J0D01*
G01*
X14087000Y-8167500D02*
G75*
G02*
X14189000Y-8167500I51000J0D01*
G01*
X14138000Y-9127500D02*
X14138000Y-9229500D01*
X14087000Y-9178500D02*
X14189000Y-9178500D01*
X14189000Y-9178500D02*
G75*
G02*
X14087000Y-9178500I-51000J0D01*
G01*
X14087000Y-9178500D02*
G75*
G02*
X14189000Y-9178500I51000J0D01*
G01*
X14308000Y-8370500D02*
X14308000Y-8472500D01*
X14257000Y-8421500D02*
X14359000Y-8421500D01*
X14359000Y-8421500D02*
G75*
G02*
X14257000Y-8421500I-51000J0D01*
G01*
X14257000Y-8421500D02*
G75*
G02*
X14359000Y-8421500I51000J0D01*
G01*
X14308000Y-9381500D02*
X14308000Y-9483500D01*
X14257000Y-9432500D02*
X14359000Y-9432500D01*
X14359000Y-9432500D02*
G75*
G02*
X14257000Y-9432500I-51000J0D01*
G01*
X14257000Y-9432500D02*
G75*
G02*
X14359000Y-9432500I51000J0D01*
G01*
D11*
X8958277Y-12213984D02*
X8958277Y-12013984D01*
X8958277Y-12013984D02*
X9005896Y-12013984D01*
X9005896Y-12013984D02*
X9034467Y-12023508D01*
X9034467Y-12023508D02*
X9053515Y-12042555D01*
X9053515Y-12042555D02*
X9063039Y-12061603D01*
X9063039Y-12061603D02*
X9072563Y-12099698D01*
X9072563Y-12099698D02*
X9072563Y-12128269D01*
X9072563Y-12128269D02*
X9063039Y-12166365D01*
X9063039Y-12166365D02*
X9053515Y-12185412D01*
X9053515Y-12185412D02*
X9034467Y-12204460D01*
X9034467Y-12204460D02*
X9005896Y-12213984D01*
X9005896Y-12213984D02*
X8958277Y-12213984D01*
X9158277Y-12213984D02*
X9158277Y-12080650D01*
X9158277Y-12118746D02*
X9167801Y-12099698D01*
X9167801Y-12099698D02*
X9177324Y-12090174D01*
X9177324Y-12090174D02*
X9196372Y-12080650D01*
X9196372Y-12080650D02*
X9215420Y-12080650D01*
X9282086Y-12213984D02*
X9282086Y-12080650D01*
X9282086Y-12013984D02*
X9272563Y-12023508D01*
X9272563Y-12023508D02*
X9282086Y-12033031D01*
X9282086Y-12033031D02*
X9291610Y-12023508D01*
X9291610Y-12023508D02*
X9282086Y-12013984D01*
X9282086Y-12013984D02*
X9282086Y-12033031D01*
X9405896Y-12213984D02*
X9386848Y-12204460D01*
X9386848Y-12204460D02*
X9377324Y-12185412D01*
X9377324Y-12185412D02*
X9377324Y-12013984D01*
X9510658Y-12213984D02*
X9491610Y-12204460D01*
X9491610Y-12204460D02*
X9482086Y-12185412D01*
X9482086Y-12185412D02*
X9482086Y-12013984D01*
X9739229Y-12213984D02*
X9739229Y-12013984D01*
X9739229Y-12013984D02*
X9805896Y-12156841D01*
X9805896Y-12156841D02*
X9872563Y-12013984D01*
X9872563Y-12013984D02*
X9872563Y-12213984D01*
X10053515Y-12213984D02*
X10053515Y-12109222D01*
X10053515Y-12109222D02*
X10043991Y-12090174D01*
X10043991Y-12090174D02*
X10024944Y-12080650D01*
X10024944Y-12080650D02*
X9986848Y-12080650D01*
X9986848Y-12080650D02*
X9967801Y-12090174D01*
X10053515Y-12204460D02*
X10034467Y-12213984D01*
X10034467Y-12213984D02*
X9986848Y-12213984D01*
X9986848Y-12213984D02*
X9967801Y-12204460D01*
X9967801Y-12204460D02*
X9958277Y-12185412D01*
X9958277Y-12185412D02*
X9958277Y-12166365D01*
X9958277Y-12166365D02*
X9967801Y-12147317D01*
X9967801Y-12147317D02*
X9986848Y-12137793D01*
X9986848Y-12137793D02*
X10034467Y-12137793D01*
X10034467Y-12137793D02*
X10053515Y-12128269D01*
X10148753Y-12080650D02*
X10148753Y-12280650D01*
X10148753Y-12090174D02*
X10167801Y-12080650D01*
X10167801Y-12080650D02*
X10205896Y-12080650D01*
X10205896Y-12080650D02*
X10224944Y-12090174D01*
X10224944Y-12090174D02*
X10234467Y-12099698D01*
X10234467Y-12099698D02*
X10243991Y-12118746D01*
X10243991Y-12118746D02*
X10243991Y-12175888D01*
X10243991Y-12175888D02*
X10234467Y-12194936D01*
X10234467Y-12194936D02*
X10224944Y-12204460D01*
X10224944Y-12204460D02*
X10205896Y-12213984D01*
X10205896Y-12213984D02*
X10167801Y-12213984D01*
X10167801Y-12213984D02*
X10148753Y-12204460D01*
X10329705Y-12194936D02*
X10339229Y-12204460D01*
X10339229Y-12204460D02*
X10329705Y-12213984D01*
X10329705Y-12213984D02*
X10320182Y-12204460D01*
X10320182Y-12204460D02*
X10329705Y-12194936D01*
X10329705Y-12194936D02*
X10329705Y-12213984D01*
X10329705Y-12090174D02*
X10339229Y-12099698D01*
X10339229Y-12099698D02*
X10329705Y-12109222D01*
X10329705Y-12109222D02*
X10320182Y-12099698D01*
X10320182Y-12099698D02*
X10329705Y-12090174D01*
X10329705Y-12090174D02*
X10329705Y-12109222D01*
D12*
X8677500Y-12532500D02*
X8697500Y-12552500D01*
X8697500Y-12532500D02*
X8677500Y-12552500D01*
D11*
X8996372Y-12433984D02*
X9015420Y-12433984D01*
X9015420Y-12433984D02*
X9034467Y-12443508D01*
X9034467Y-12443508D02*
X9043991Y-12453031D01*
X9043991Y-12453031D02*
X9053515Y-12472079D01*
X9053515Y-12472079D02*
X9063039Y-12510174D01*
X9063039Y-12510174D02*
X9063039Y-12557793D01*
X9063039Y-12557793D02*
X9053515Y-12595888D01*
X9053515Y-12595888D02*
X9043991Y-12614936D01*
X9043991Y-12614936D02*
X9034467Y-12624460D01*
X9034467Y-12624460D02*
X9015420Y-12633984D01*
X9015420Y-12633984D02*
X8996372Y-12633984D01*
X8996372Y-12633984D02*
X8977324Y-12624460D01*
X8977324Y-12624460D02*
X8967801Y-12614936D01*
X8967801Y-12614936D02*
X8958277Y-12595888D01*
X8958277Y-12595888D02*
X8948753Y-12557793D01*
X8948753Y-12557793D02*
X8948753Y-12510174D01*
X8948753Y-12510174D02*
X8958277Y-12472079D01*
X8958277Y-12472079D02*
X8967801Y-12453031D01*
X8967801Y-12453031D02*
X8977324Y-12443508D01*
X8977324Y-12443508D02*
X8996372Y-12433984D01*
X9148753Y-12614936D02*
X9158277Y-12624460D01*
X9158277Y-12624460D02*
X9148753Y-12633984D01*
X9148753Y-12633984D02*
X9139229Y-12624460D01*
X9139229Y-12624460D02*
X9148753Y-12614936D01*
X9148753Y-12614936D02*
X9148753Y-12633984D01*
X9234467Y-12453031D02*
X9243991Y-12443508D01*
X9243991Y-12443508D02*
X9263039Y-12433984D01*
X9263039Y-12433984D02*
X9310658Y-12433984D01*
X9310658Y-12433984D02*
X9329705Y-12443508D01*
X9329705Y-12443508D02*
X9339229Y-12453031D01*
X9339229Y-12453031D02*
X9348753Y-12472079D01*
X9348753Y-12472079D02*
X9348753Y-12491127D01*
X9348753Y-12491127D02*
X9339229Y-12519698D01*
X9339229Y-12519698D02*
X9224944Y-12633984D01*
X9224944Y-12633984D02*
X9348753Y-12633984D01*
X9472563Y-12433984D02*
X9491610Y-12433984D01*
X9491610Y-12433984D02*
X9510658Y-12443508D01*
X9510658Y-12443508D02*
X9520182Y-12453031D01*
X9520182Y-12453031D02*
X9529705Y-12472079D01*
X9529705Y-12472079D02*
X9539229Y-12510174D01*
X9539229Y-12510174D02*
X9539229Y-12557793D01*
X9539229Y-12557793D02*
X9529705Y-12595888D01*
X9529705Y-12595888D02*
X9520182Y-12614936D01*
X9520182Y-12614936D02*
X9510658Y-12624460D01*
X9510658Y-12624460D02*
X9491610Y-12633984D01*
X9491610Y-12633984D02*
X9472563Y-12633984D01*
X9472563Y-12633984D02*
X9453515Y-12624460D01*
X9453515Y-12624460D02*
X9443991Y-12614936D01*
X9443991Y-12614936D02*
X9434467Y-12595888D01*
X9434467Y-12595888D02*
X9424944Y-12557793D01*
X9424944Y-12557793D02*
X9424944Y-12510174D01*
X9424944Y-12510174D02*
X9434467Y-12472079D01*
X9434467Y-12472079D02*
X9443991Y-12453031D01*
X9443991Y-12453031D02*
X9453515Y-12443508D01*
X9453515Y-12443508D02*
X9472563Y-12433984D01*
X9663039Y-12433984D02*
X9682086Y-12433984D01*
X9682086Y-12433984D02*
X9701134Y-12443508D01*
X9701134Y-12443508D02*
X9710658Y-12453031D01*
X9710658Y-12453031D02*
X9720182Y-12472079D01*
X9720182Y-12472079D02*
X9729705Y-12510174D01*
X9729705Y-12510174D02*
X9729705Y-12557793D01*
X9729705Y-12557793D02*
X9720182Y-12595888D01*
X9720182Y-12595888D02*
X9710658Y-12614936D01*
X9710658Y-12614936D02*
X9701134Y-12624460D01*
X9701134Y-12624460D02*
X9682086Y-12633984D01*
X9682086Y-12633984D02*
X9663039Y-12633984D01*
X9663039Y-12633984D02*
X9643991Y-12624460D01*
X9643991Y-12624460D02*
X9634467Y-12614936D01*
X9634467Y-12614936D02*
X9624944Y-12595888D01*
X9624944Y-12595888D02*
X9615420Y-12557793D01*
X9615420Y-12557793D02*
X9615420Y-12510174D01*
X9615420Y-12510174D02*
X9624944Y-12472079D01*
X9624944Y-12472079D02*
X9634467Y-12453031D01*
X9634467Y-12453031D02*
X9643991Y-12443508D01*
X9643991Y-12443508D02*
X9663039Y-12433984D01*
X9815420Y-12633984D02*
X9815420Y-12500650D01*
X9815420Y-12519698D02*
X9824944Y-12510174D01*
X9824944Y-12510174D02*
X9843991Y-12500650D01*
X9843991Y-12500650D02*
X9872563Y-12500650D01*
X9872563Y-12500650D02*
X9891610Y-12510174D01*
X9891610Y-12510174D02*
X9901134Y-12529222D01*
X9901134Y-12529222D02*
X9901134Y-12633984D01*
X9901134Y-12529222D02*
X9910658Y-12510174D01*
X9910658Y-12510174D02*
X9929705Y-12500650D01*
X9929705Y-12500650D02*
X9958277Y-12500650D01*
X9958277Y-12500650D02*
X9977325Y-12510174D01*
X9977325Y-12510174D02*
X9986848Y-12529222D01*
X9986848Y-12529222D02*
X9986848Y-12633984D01*
X10082086Y-12633984D02*
X10082086Y-12500650D01*
X10082086Y-12519698D02*
X10091610Y-12510174D01*
X10091610Y-12510174D02*
X10110658Y-12500650D01*
X10110658Y-12500650D02*
X10139229Y-12500650D01*
X10139229Y-12500650D02*
X10158277Y-12510174D01*
X10158277Y-12510174D02*
X10167801Y-12529222D01*
X10167801Y-12529222D02*
X10167801Y-12633984D01*
X10167801Y-12529222D02*
X10177325Y-12510174D01*
X10177325Y-12510174D02*
X10196372Y-12500650D01*
X10196372Y-12500650D02*
X10224944Y-12500650D01*
X10224944Y-12500650D02*
X10243991Y-12510174D01*
X10243991Y-12510174D02*
X10253515Y-12529222D01*
X10253515Y-12529222D02*
X10253515Y-12633984D01*
X10643991Y-12424460D02*
X10472563Y-12681603D01*
X10901134Y-12433984D02*
X10920182Y-12433984D01*
X10920182Y-12433984D02*
X10939229Y-12443508D01*
X10939229Y-12443508D02*
X10948753Y-12453031D01*
X10948753Y-12453031D02*
X10958277Y-12472079D01*
X10958277Y-12472079D02*
X10967801Y-12510174D01*
X10967801Y-12510174D02*
X10967801Y-12557793D01*
X10967801Y-12557793D02*
X10958277Y-12595888D01*
X10958277Y-12595888D02*
X10948753Y-12614936D01*
X10948753Y-12614936D02*
X10939229Y-12624460D01*
X10939229Y-12624460D02*
X10920182Y-12633984D01*
X10920182Y-12633984D02*
X10901134Y-12633984D01*
X10901134Y-12633984D02*
X10882087Y-12624460D01*
X10882087Y-12624460D02*
X10872563Y-12614936D01*
X10872563Y-12614936D02*
X10863039Y-12595888D01*
X10863039Y-12595888D02*
X10853515Y-12557793D01*
X10853515Y-12557793D02*
X10853515Y-12510174D01*
X10853515Y-12510174D02*
X10863039Y-12472079D01*
X10863039Y-12472079D02*
X10872563Y-12453031D01*
X10872563Y-12453031D02*
X10882087Y-12443508D01*
X10882087Y-12443508D02*
X10901134Y-12433984D01*
X11053515Y-12614936D02*
X11063039Y-12624460D01*
X11063039Y-12624460D02*
X11053515Y-12633984D01*
X11053515Y-12633984D02*
X11043991Y-12624460D01*
X11043991Y-12624460D02*
X11053515Y-12614936D01*
X11053515Y-12614936D02*
X11053515Y-12633984D01*
X11186848Y-12433984D02*
X11205896Y-12433984D01*
X11205896Y-12433984D02*
X11224944Y-12443508D01*
X11224944Y-12443508D02*
X11234467Y-12453031D01*
X11234467Y-12453031D02*
X11243991Y-12472079D01*
X11243991Y-12472079D02*
X11253515Y-12510174D01*
X11253515Y-12510174D02*
X11253515Y-12557793D01*
X11253515Y-12557793D02*
X11243991Y-12595888D01*
X11243991Y-12595888D02*
X11234467Y-12614936D01*
X11234467Y-12614936D02*
X11224944Y-12624460D01*
X11224944Y-12624460D02*
X11205896Y-12633984D01*
X11205896Y-12633984D02*
X11186848Y-12633984D01*
X11186848Y-12633984D02*
X11167801Y-12624460D01*
X11167801Y-12624460D02*
X11158277Y-12614936D01*
X11158277Y-12614936D02*
X11148753Y-12595888D01*
X11148753Y-12595888D02*
X11139229Y-12557793D01*
X11139229Y-12557793D02*
X11139229Y-12510174D01*
X11139229Y-12510174D02*
X11148753Y-12472079D01*
X11148753Y-12472079D02*
X11158277Y-12453031D01*
X11158277Y-12453031D02*
X11167801Y-12443508D01*
X11167801Y-12443508D02*
X11186848Y-12433984D01*
X11377325Y-12433984D02*
X11396372Y-12433984D01*
X11396372Y-12433984D02*
X11415420Y-12443508D01*
X11415420Y-12443508D02*
X11424944Y-12453031D01*
X11424944Y-12453031D02*
X11434467Y-12472079D01*
X11434467Y-12472079D02*
X11443991Y-12510174D01*
X11443991Y-12510174D02*
X11443991Y-12557793D01*
X11443991Y-12557793D02*
X11434467Y-12595888D01*
X11434467Y-12595888D02*
X11424944Y-12614936D01*
X11424944Y-12614936D02*
X11415420Y-12624460D01*
X11415420Y-12624460D02*
X11396372Y-12633984D01*
X11396372Y-12633984D02*
X11377325Y-12633984D01*
X11377325Y-12633984D02*
X11358277Y-12624460D01*
X11358277Y-12624460D02*
X11348753Y-12614936D01*
X11348753Y-12614936D02*
X11339229Y-12595888D01*
X11339229Y-12595888D02*
X11329706Y-12557793D01*
X11329706Y-12557793D02*
X11329706Y-12510174D01*
X11329706Y-12510174D02*
X11339229Y-12472079D01*
X11339229Y-12472079D02*
X11348753Y-12453031D01*
X11348753Y-12453031D02*
X11358277Y-12443508D01*
X11358277Y-12443508D02*
X11377325Y-12433984D01*
X11510658Y-12433984D02*
X11643991Y-12433984D01*
X11643991Y-12433984D02*
X11558277Y-12633984D01*
X11729706Y-12633984D02*
X11767801Y-12633984D01*
X11767801Y-12633984D02*
X11786848Y-12624460D01*
X11786848Y-12624460D02*
X11796372Y-12614936D01*
X11796372Y-12614936D02*
X11815420Y-12586365D01*
X11815420Y-12586365D02*
X11824944Y-12548269D01*
X11824944Y-12548269D02*
X11824944Y-12472079D01*
X11824944Y-12472079D02*
X11815420Y-12453031D01*
X11815420Y-12453031D02*
X11805896Y-12443508D01*
X11805896Y-12443508D02*
X11786848Y-12433984D01*
X11786848Y-12433984D02*
X11748753Y-12433984D01*
X11748753Y-12433984D02*
X11729706Y-12443508D01*
X11729706Y-12443508D02*
X11720182Y-12453031D01*
X11720182Y-12453031D02*
X11710658Y-12472079D01*
X11710658Y-12472079D02*
X11710658Y-12519698D01*
X11710658Y-12519698D02*
X11720182Y-12538746D01*
X11720182Y-12538746D02*
X11729706Y-12548269D01*
X11729706Y-12548269D02*
X11748753Y-12557793D01*
X11748753Y-12557793D02*
X11786848Y-12557793D01*
X11786848Y-12557793D02*
X11805896Y-12548269D01*
X11805896Y-12548269D02*
X11815420Y-12538746D01*
X11815420Y-12538746D02*
X11824944Y-12519698D01*
X11901134Y-12433984D02*
X11901134Y-12472079D01*
X11977325Y-12433984D02*
X11977325Y-12472079D01*
X12272563Y-12710174D02*
X12263039Y-12700650D01*
X12263039Y-12700650D02*
X12243991Y-12672079D01*
X12243991Y-12672079D02*
X12234468Y-12653031D01*
X12234468Y-12653031D02*
X12224944Y-12624460D01*
X12224944Y-12624460D02*
X12215420Y-12576841D01*
X12215420Y-12576841D02*
X12215420Y-12538746D01*
X12215420Y-12538746D02*
X12224944Y-12491127D01*
X12224944Y-12491127D02*
X12234468Y-12462555D01*
X12234468Y-12462555D02*
X12243991Y-12443508D01*
X12243991Y-12443508D02*
X12263039Y-12414936D01*
X12263039Y-12414936D02*
X12272563Y-12405412D01*
X12443991Y-12433984D02*
X12348753Y-12433984D01*
X12348753Y-12433984D02*
X12339229Y-12529222D01*
X12339229Y-12529222D02*
X12348753Y-12519698D01*
X12348753Y-12519698D02*
X12367801Y-12510174D01*
X12367801Y-12510174D02*
X12415420Y-12510174D01*
X12415420Y-12510174D02*
X12434468Y-12519698D01*
X12434468Y-12519698D02*
X12443991Y-12529222D01*
X12443991Y-12529222D02*
X12453515Y-12548269D01*
X12453515Y-12548269D02*
X12453515Y-12595888D01*
X12453515Y-12595888D02*
X12443991Y-12614936D01*
X12443991Y-12614936D02*
X12434468Y-12624460D01*
X12434468Y-12624460D02*
X12415420Y-12633984D01*
X12415420Y-12633984D02*
X12367801Y-12633984D01*
X12367801Y-12633984D02*
X12348753Y-12624460D01*
X12348753Y-12624460D02*
X12339229Y-12614936D01*
X12529706Y-12453031D02*
X12539229Y-12443508D01*
X12539229Y-12443508D02*
X12558277Y-12433984D01*
X12558277Y-12433984D02*
X12605896Y-12433984D01*
X12605896Y-12433984D02*
X12624944Y-12443508D01*
X12624944Y-12443508D02*
X12634468Y-12453031D01*
X12634468Y-12453031D02*
X12643991Y-12472079D01*
X12643991Y-12472079D02*
X12643991Y-12491127D01*
X12643991Y-12491127D02*
X12634468Y-12519698D01*
X12634468Y-12519698D02*
X12520182Y-12633984D01*
X12520182Y-12633984D02*
X12643991Y-12633984D01*
X12882087Y-12633984D02*
X12882087Y-12433984D01*
X12967801Y-12633984D02*
X12967801Y-12529222D01*
X12967801Y-12529222D02*
X12958277Y-12510174D01*
X12958277Y-12510174D02*
X12939230Y-12500650D01*
X12939230Y-12500650D02*
X12910658Y-12500650D01*
X12910658Y-12500650D02*
X12891610Y-12510174D01*
X12891610Y-12510174D02*
X12882087Y-12519698D01*
X13091610Y-12633984D02*
X13072563Y-12624460D01*
X13072563Y-12624460D02*
X13063039Y-12614936D01*
X13063039Y-12614936D02*
X13053515Y-12595888D01*
X13053515Y-12595888D02*
X13053515Y-12538746D01*
X13053515Y-12538746D02*
X13063039Y-12519698D01*
X13063039Y-12519698D02*
X13072563Y-12510174D01*
X13072563Y-12510174D02*
X13091610Y-12500650D01*
X13091610Y-12500650D02*
X13120182Y-12500650D01*
X13120182Y-12500650D02*
X13139230Y-12510174D01*
X13139230Y-12510174D02*
X13148753Y-12519698D01*
X13148753Y-12519698D02*
X13158277Y-12538746D01*
X13158277Y-12538746D02*
X13158277Y-12595888D01*
X13158277Y-12595888D02*
X13148753Y-12614936D01*
X13148753Y-12614936D02*
X13139230Y-12624460D01*
X13139230Y-12624460D02*
X13120182Y-12633984D01*
X13120182Y-12633984D02*
X13091610Y-12633984D01*
X13272563Y-12633984D02*
X13253515Y-12624460D01*
X13253515Y-12624460D02*
X13243991Y-12605412D01*
X13243991Y-12605412D02*
X13243991Y-12433984D01*
X13424944Y-12624460D02*
X13405896Y-12633984D01*
X13405896Y-12633984D02*
X13367801Y-12633984D01*
X13367801Y-12633984D02*
X13348753Y-12624460D01*
X13348753Y-12624460D02*
X13339230Y-12605412D01*
X13339230Y-12605412D02*
X13339230Y-12529222D01*
X13339230Y-12529222D02*
X13348753Y-12510174D01*
X13348753Y-12510174D02*
X13367801Y-12500650D01*
X13367801Y-12500650D02*
X13405896Y-12500650D01*
X13405896Y-12500650D02*
X13424944Y-12510174D01*
X13424944Y-12510174D02*
X13434468Y-12529222D01*
X13434468Y-12529222D02*
X13434468Y-12548269D01*
X13434468Y-12548269D02*
X13339230Y-12567317D01*
X13510658Y-12624460D02*
X13529706Y-12633984D01*
X13529706Y-12633984D02*
X13567801Y-12633984D01*
X13567801Y-12633984D02*
X13586849Y-12624460D01*
X13586849Y-12624460D02*
X13596372Y-12605412D01*
X13596372Y-12605412D02*
X13596372Y-12595888D01*
X13596372Y-12595888D02*
X13586849Y-12576841D01*
X13586849Y-12576841D02*
X13567801Y-12567317D01*
X13567801Y-12567317D02*
X13539230Y-12567317D01*
X13539230Y-12567317D02*
X13520182Y-12557793D01*
X13520182Y-12557793D02*
X13510658Y-12538746D01*
X13510658Y-12538746D02*
X13510658Y-12529222D01*
X13510658Y-12529222D02*
X13520182Y-12510174D01*
X13520182Y-12510174D02*
X13539230Y-12500650D01*
X13539230Y-12500650D02*
X13567801Y-12500650D01*
X13567801Y-12500650D02*
X13586849Y-12510174D01*
X13663039Y-12710174D02*
X13672563Y-12700650D01*
X13672563Y-12700650D02*
X13691611Y-12672079D01*
X13691611Y-12672079D02*
X13701134Y-12653031D01*
X13701134Y-12653031D02*
X13710658Y-12624460D01*
X13710658Y-12624460D02*
X13720182Y-12576841D01*
X13720182Y-12576841D02*
X13720182Y-12538746D01*
X13720182Y-12538746D02*
X13710658Y-12491127D01*
X13710658Y-12491127D02*
X13701134Y-12462555D01*
X13701134Y-12462555D02*
X13691611Y-12443508D01*
X13691611Y-12443508D02*
X13672563Y-12414936D01*
X13672563Y-12414936D02*
X13663039Y-12405412D01*
D12*
X8697500Y-12806500D02*
G75*
G02*
X8677500Y-12806500I-10000J0D01*
G01*
X8677500Y-12806500D02*
G75*
G02*
X8697500Y-12806500I10000J0D01*
G01*
D11*
X8996372Y-12697984D02*
X9015420Y-12697984D01*
X9015420Y-12697984D02*
X9034467Y-12707508D01*
X9034467Y-12707508D02*
X9043991Y-12717031D01*
X9043991Y-12717031D02*
X9053515Y-12736079D01*
X9053515Y-12736079D02*
X9063039Y-12774174D01*
X9063039Y-12774174D02*
X9063039Y-12821793D01*
X9063039Y-12821793D02*
X9053515Y-12859888D01*
X9053515Y-12859888D02*
X9043991Y-12878936D01*
X9043991Y-12878936D02*
X9034467Y-12888460D01*
X9034467Y-12888460D02*
X9015420Y-12897984D01*
X9015420Y-12897984D02*
X8996372Y-12897984D01*
X8996372Y-12897984D02*
X8977324Y-12888460D01*
X8977324Y-12888460D02*
X8967801Y-12878936D01*
X8967801Y-12878936D02*
X8958277Y-12859888D01*
X8958277Y-12859888D02*
X8948753Y-12821793D01*
X8948753Y-12821793D02*
X8948753Y-12774174D01*
X8948753Y-12774174D02*
X8958277Y-12736079D01*
X8958277Y-12736079D02*
X8967801Y-12717031D01*
X8967801Y-12717031D02*
X8977324Y-12707508D01*
X8977324Y-12707508D02*
X8996372Y-12697984D01*
X9148753Y-12878936D02*
X9158277Y-12888460D01*
X9158277Y-12888460D02*
X9148753Y-12897984D01*
X9148753Y-12897984D02*
X9139229Y-12888460D01*
X9139229Y-12888460D02*
X9148753Y-12878936D01*
X9148753Y-12878936D02*
X9148753Y-12897984D01*
X9234467Y-12717031D02*
X9243991Y-12707508D01*
X9243991Y-12707508D02*
X9263039Y-12697984D01*
X9263039Y-12697984D02*
X9310658Y-12697984D01*
X9310658Y-12697984D02*
X9329705Y-12707508D01*
X9329705Y-12707508D02*
X9339229Y-12717031D01*
X9339229Y-12717031D02*
X9348753Y-12736079D01*
X9348753Y-12736079D02*
X9348753Y-12755127D01*
X9348753Y-12755127D02*
X9339229Y-12783698D01*
X9339229Y-12783698D02*
X9224944Y-12897984D01*
X9224944Y-12897984D02*
X9348753Y-12897984D01*
X9472563Y-12697984D02*
X9491610Y-12697984D01*
X9491610Y-12697984D02*
X9510658Y-12707508D01*
X9510658Y-12707508D02*
X9520182Y-12717031D01*
X9520182Y-12717031D02*
X9529705Y-12736079D01*
X9529705Y-12736079D02*
X9539229Y-12774174D01*
X9539229Y-12774174D02*
X9539229Y-12821793D01*
X9539229Y-12821793D02*
X9529705Y-12859888D01*
X9529705Y-12859888D02*
X9520182Y-12878936D01*
X9520182Y-12878936D02*
X9510658Y-12888460D01*
X9510658Y-12888460D02*
X9491610Y-12897984D01*
X9491610Y-12897984D02*
X9472563Y-12897984D01*
X9472563Y-12897984D02*
X9453515Y-12888460D01*
X9453515Y-12888460D02*
X9443991Y-12878936D01*
X9443991Y-12878936D02*
X9434467Y-12859888D01*
X9434467Y-12859888D02*
X9424944Y-12821793D01*
X9424944Y-12821793D02*
X9424944Y-12774174D01*
X9424944Y-12774174D02*
X9434467Y-12736079D01*
X9434467Y-12736079D02*
X9443991Y-12717031D01*
X9443991Y-12717031D02*
X9453515Y-12707508D01*
X9453515Y-12707508D02*
X9472563Y-12697984D01*
X9663039Y-12697984D02*
X9682086Y-12697984D01*
X9682086Y-12697984D02*
X9701134Y-12707508D01*
X9701134Y-12707508D02*
X9710658Y-12717031D01*
X9710658Y-12717031D02*
X9720182Y-12736079D01*
X9720182Y-12736079D02*
X9729705Y-12774174D01*
X9729705Y-12774174D02*
X9729705Y-12821793D01*
X9729705Y-12821793D02*
X9720182Y-12859888D01*
X9720182Y-12859888D02*
X9710658Y-12878936D01*
X9710658Y-12878936D02*
X9701134Y-12888460D01*
X9701134Y-12888460D02*
X9682086Y-12897984D01*
X9682086Y-12897984D02*
X9663039Y-12897984D01*
X9663039Y-12897984D02*
X9643991Y-12888460D01*
X9643991Y-12888460D02*
X9634467Y-12878936D01*
X9634467Y-12878936D02*
X9624944Y-12859888D01*
X9624944Y-12859888D02*
X9615420Y-12821793D01*
X9615420Y-12821793D02*
X9615420Y-12774174D01*
X9615420Y-12774174D02*
X9624944Y-12736079D01*
X9624944Y-12736079D02*
X9634467Y-12717031D01*
X9634467Y-12717031D02*
X9643991Y-12707508D01*
X9643991Y-12707508D02*
X9663039Y-12697984D01*
X9815420Y-12897984D02*
X9815420Y-12764650D01*
X9815420Y-12783698D02*
X9824944Y-12774174D01*
X9824944Y-12774174D02*
X9843991Y-12764650D01*
X9843991Y-12764650D02*
X9872563Y-12764650D01*
X9872563Y-12764650D02*
X9891610Y-12774174D01*
X9891610Y-12774174D02*
X9901134Y-12793222D01*
X9901134Y-12793222D02*
X9901134Y-12897984D01*
X9901134Y-12793222D02*
X9910658Y-12774174D01*
X9910658Y-12774174D02*
X9929705Y-12764650D01*
X9929705Y-12764650D02*
X9958277Y-12764650D01*
X9958277Y-12764650D02*
X9977325Y-12774174D01*
X9977325Y-12774174D02*
X9986848Y-12793222D01*
X9986848Y-12793222D02*
X9986848Y-12897984D01*
X10082086Y-12897984D02*
X10082086Y-12764650D01*
X10082086Y-12783698D02*
X10091610Y-12774174D01*
X10091610Y-12774174D02*
X10110658Y-12764650D01*
X10110658Y-12764650D02*
X10139229Y-12764650D01*
X10139229Y-12764650D02*
X10158277Y-12774174D01*
X10158277Y-12774174D02*
X10167801Y-12793222D01*
X10167801Y-12793222D02*
X10167801Y-12897984D01*
X10167801Y-12793222D02*
X10177325Y-12774174D01*
X10177325Y-12774174D02*
X10196372Y-12764650D01*
X10196372Y-12764650D02*
X10224944Y-12764650D01*
X10224944Y-12764650D02*
X10243991Y-12774174D01*
X10243991Y-12774174D02*
X10253515Y-12793222D01*
X10253515Y-12793222D02*
X10253515Y-12897984D01*
X10643991Y-12688460D02*
X10472563Y-12945603D01*
X10901134Y-12697984D02*
X10920182Y-12697984D01*
X10920182Y-12697984D02*
X10939229Y-12707508D01*
X10939229Y-12707508D02*
X10948753Y-12717031D01*
X10948753Y-12717031D02*
X10958277Y-12736079D01*
X10958277Y-12736079D02*
X10967801Y-12774174D01*
X10967801Y-12774174D02*
X10967801Y-12821793D01*
X10967801Y-12821793D02*
X10958277Y-12859888D01*
X10958277Y-12859888D02*
X10948753Y-12878936D01*
X10948753Y-12878936D02*
X10939229Y-12888460D01*
X10939229Y-12888460D02*
X10920182Y-12897984D01*
X10920182Y-12897984D02*
X10901134Y-12897984D01*
X10901134Y-12897984D02*
X10882087Y-12888460D01*
X10882087Y-12888460D02*
X10872563Y-12878936D01*
X10872563Y-12878936D02*
X10863039Y-12859888D01*
X10863039Y-12859888D02*
X10853515Y-12821793D01*
X10853515Y-12821793D02*
X10853515Y-12774174D01*
X10853515Y-12774174D02*
X10863039Y-12736079D01*
X10863039Y-12736079D02*
X10872563Y-12717031D01*
X10872563Y-12717031D02*
X10882087Y-12707508D01*
X10882087Y-12707508D02*
X10901134Y-12697984D01*
X11053515Y-12878936D02*
X11063039Y-12888460D01*
X11063039Y-12888460D02*
X11053515Y-12897984D01*
X11053515Y-12897984D02*
X11043991Y-12888460D01*
X11043991Y-12888460D02*
X11053515Y-12878936D01*
X11053515Y-12878936D02*
X11053515Y-12897984D01*
X11186848Y-12697984D02*
X11205896Y-12697984D01*
X11205896Y-12697984D02*
X11224944Y-12707508D01*
X11224944Y-12707508D02*
X11234467Y-12717031D01*
X11234467Y-12717031D02*
X11243991Y-12736079D01*
X11243991Y-12736079D02*
X11253515Y-12774174D01*
X11253515Y-12774174D02*
X11253515Y-12821793D01*
X11253515Y-12821793D02*
X11243991Y-12859888D01*
X11243991Y-12859888D02*
X11234467Y-12878936D01*
X11234467Y-12878936D02*
X11224944Y-12888460D01*
X11224944Y-12888460D02*
X11205896Y-12897984D01*
X11205896Y-12897984D02*
X11186848Y-12897984D01*
X11186848Y-12897984D02*
X11167801Y-12888460D01*
X11167801Y-12888460D02*
X11158277Y-12878936D01*
X11158277Y-12878936D02*
X11148753Y-12859888D01*
X11148753Y-12859888D02*
X11139229Y-12821793D01*
X11139229Y-12821793D02*
X11139229Y-12774174D01*
X11139229Y-12774174D02*
X11148753Y-12736079D01*
X11148753Y-12736079D02*
X11158277Y-12717031D01*
X11158277Y-12717031D02*
X11167801Y-12707508D01*
X11167801Y-12707508D02*
X11186848Y-12697984D01*
X11377325Y-12697984D02*
X11396372Y-12697984D01*
X11396372Y-12697984D02*
X11415420Y-12707508D01*
X11415420Y-12707508D02*
X11424944Y-12717031D01*
X11424944Y-12717031D02*
X11434467Y-12736079D01*
X11434467Y-12736079D02*
X11443991Y-12774174D01*
X11443991Y-12774174D02*
X11443991Y-12821793D01*
X11443991Y-12821793D02*
X11434467Y-12859888D01*
X11434467Y-12859888D02*
X11424944Y-12878936D01*
X11424944Y-12878936D02*
X11415420Y-12888460D01*
X11415420Y-12888460D02*
X11396372Y-12897984D01*
X11396372Y-12897984D02*
X11377325Y-12897984D01*
X11377325Y-12897984D02*
X11358277Y-12888460D01*
X11358277Y-12888460D02*
X11348753Y-12878936D01*
X11348753Y-12878936D02*
X11339229Y-12859888D01*
X11339229Y-12859888D02*
X11329706Y-12821793D01*
X11329706Y-12821793D02*
X11329706Y-12774174D01*
X11329706Y-12774174D02*
X11339229Y-12736079D01*
X11339229Y-12736079D02*
X11348753Y-12717031D01*
X11348753Y-12717031D02*
X11358277Y-12707508D01*
X11358277Y-12707508D02*
X11377325Y-12697984D01*
X11510658Y-12697984D02*
X11643991Y-12697984D01*
X11643991Y-12697984D02*
X11558277Y-12897984D01*
X11729706Y-12897984D02*
X11767801Y-12897984D01*
X11767801Y-12897984D02*
X11786848Y-12888460D01*
X11786848Y-12888460D02*
X11796372Y-12878936D01*
X11796372Y-12878936D02*
X11815420Y-12850365D01*
X11815420Y-12850365D02*
X11824944Y-12812269D01*
X11824944Y-12812269D02*
X11824944Y-12736079D01*
X11824944Y-12736079D02*
X11815420Y-12717031D01*
X11815420Y-12717031D02*
X11805896Y-12707508D01*
X11805896Y-12707508D02*
X11786848Y-12697984D01*
X11786848Y-12697984D02*
X11748753Y-12697984D01*
X11748753Y-12697984D02*
X11729706Y-12707508D01*
X11729706Y-12707508D02*
X11720182Y-12717031D01*
X11720182Y-12717031D02*
X11710658Y-12736079D01*
X11710658Y-12736079D02*
X11710658Y-12783698D01*
X11710658Y-12783698D02*
X11720182Y-12802746D01*
X11720182Y-12802746D02*
X11729706Y-12812269D01*
X11729706Y-12812269D02*
X11748753Y-12821793D01*
X11748753Y-12821793D02*
X11786848Y-12821793D01*
X11786848Y-12821793D02*
X11805896Y-12812269D01*
X11805896Y-12812269D02*
X11815420Y-12802746D01*
X11815420Y-12802746D02*
X11824944Y-12783698D01*
X11901134Y-12697984D02*
X11901134Y-12736079D01*
X11977325Y-12697984D02*
X11977325Y-12736079D01*
X12272563Y-12974174D02*
X12263039Y-12964650D01*
X12263039Y-12964650D02*
X12243991Y-12936079D01*
X12243991Y-12936079D02*
X12234468Y-12917031D01*
X12234468Y-12917031D02*
X12224944Y-12888460D01*
X12224944Y-12888460D02*
X12215420Y-12840841D01*
X12215420Y-12840841D02*
X12215420Y-12802746D01*
X12215420Y-12802746D02*
X12224944Y-12755127D01*
X12224944Y-12755127D02*
X12234468Y-12726555D01*
X12234468Y-12726555D02*
X12243991Y-12707508D01*
X12243991Y-12707508D02*
X12263039Y-12678936D01*
X12263039Y-12678936D02*
X12272563Y-12669412D01*
X12339229Y-12717031D02*
X12348753Y-12707508D01*
X12348753Y-12707508D02*
X12367801Y-12697984D01*
X12367801Y-12697984D02*
X12415420Y-12697984D01*
X12415420Y-12697984D02*
X12434468Y-12707508D01*
X12434468Y-12707508D02*
X12443991Y-12717031D01*
X12443991Y-12717031D02*
X12453515Y-12736079D01*
X12453515Y-12736079D02*
X12453515Y-12755127D01*
X12453515Y-12755127D02*
X12443991Y-12783698D01*
X12443991Y-12783698D02*
X12329706Y-12897984D01*
X12329706Y-12897984D02*
X12453515Y-12897984D01*
X12634468Y-12697984D02*
X12539229Y-12697984D01*
X12539229Y-12697984D02*
X12529706Y-12793222D01*
X12529706Y-12793222D02*
X12539229Y-12783698D01*
X12539229Y-12783698D02*
X12558277Y-12774174D01*
X12558277Y-12774174D02*
X12605896Y-12774174D01*
X12605896Y-12774174D02*
X12624944Y-12783698D01*
X12624944Y-12783698D02*
X12634468Y-12793222D01*
X12634468Y-12793222D02*
X12643991Y-12812269D01*
X12643991Y-12812269D02*
X12643991Y-12859888D01*
X12643991Y-12859888D02*
X12634468Y-12878936D01*
X12634468Y-12878936D02*
X12624944Y-12888460D01*
X12624944Y-12888460D02*
X12605896Y-12897984D01*
X12605896Y-12897984D02*
X12558277Y-12897984D01*
X12558277Y-12897984D02*
X12539229Y-12888460D01*
X12539229Y-12888460D02*
X12529706Y-12878936D01*
X12882087Y-12897984D02*
X12882087Y-12697984D01*
X12967801Y-12897984D02*
X12967801Y-12793222D01*
X12967801Y-12793222D02*
X12958277Y-12774174D01*
X12958277Y-12774174D02*
X12939230Y-12764650D01*
X12939230Y-12764650D02*
X12910658Y-12764650D01*
X12910658Y-12764650D02*
X12891610Y-12774174D01*
X12891610Y-12774174D02*
X12882087Y-12783698D01*
X13091610Y-12897984D02*
X13072563Y-12888460D01*
X13072563Y-12888460D02*
X13063039Y-12878936D01*
X13063039Y-12878936D02*
X13053515Y-12859888D01*
X13053515Y-12859888D02*
X13053515Y-12802746D01*
X13053515Y-12802746D02*
X13063039Y-12783698D01*
X13063039Y-12783698D02*
X13072563Y-12774174D01*
X13072563Y-12774174D02*
X13091610Y-12764650D01*
X13091610Y-12764650D02*
X13120182Y-12764650D01*
X13120182Y-12764650D02*
X13139230Y-12774174D01*
X13139230Y-12774174D02*
X13148753Y-12783698D01*
X13148753Y-12783698D02*
X13158277Y-12802746D01*
X13158277Y-12802746D02*
X13158277Y-12859888D01*
X13158277Y-12859888D02*
X13148753Y-12878936D01*
X13148753Y-12878936D02*
X13139230Y-12888460D01*
X13139230Y-12888460D02*
X13120182Y-12897984D01*
X13120182Y-12897984D02*
X13091610Y-12897984D01*
X13272563Y-12897984D02*
X13253515Y-12888460D01*
X13253515Y-12888460D02*
X13243991Y-12869412D01*
X13243991Y-12869412D02*
X13243991Y-12697984D01*
X13424944Y-12888460D02*
X13405896Y-12897984D01*
X13405896Y-12897984D02*
X13367801Y-12897984D01*
X13367801Y-12897984D02*
X13348753Y-12888460D01*
X13348753Y-12888460D02*
X13339230Y-12869412D01*
X13339230Y-12869412D02*
X13339230Y-12793222D01*
X13339230Y-12793222D02*
X13348753Y-12774174D01*
X13348753Y-12774174D02*
X13367801Y-12764650D01*
X13367801Y-12764650D02*
X13405896Y-12764650D01*
X13405896Y-12764650D02*
X13424944Y-12774174D01*
X13424944Y-12774174D02*
X13434468Y-12793222D01*
X13434468Y-12793222D02*
X13434468Y-12812269D01*
X13434468Y-12812269D02*
X13339230Y-12831317D01*
X13510658Y-12888460D02*
X13529706Y-12897984D01*
X13529706Y-12897984D02*
X13567801Y-12897984D01*
X13567801Y-12897984D02*
X13586849Y-12888460D01*
X13586849Y-12888460D02*
X13596372Y-12869412D01*
X13596372Y-12869412D02*
X13596372Y-12859888D01*
X13596372Y-12859888D02*
X13586849Y-12840841D01*
X13586849Y-12840841D02*
X13567801Y-12831317D01*
X13567801Y-12831317D02*
X13539230Y-12831317D01*
X13539230Y-12831317D02*
X13520182Y-12821793D01*
X13520182Y-12821793D02*
X13510658Y-12802746D01*
X13510658Y-12802746D02*
X13510658Y-12793222D01*
X13510658Y-12793222D02*
X13520182Y-12774174D01*
X13520182Y-12774174D02*
X13539230Y-12764650D01*
X13539230Y-12764650D02*
X13567801Y-12764650D01*
X13567801Y-12764650D02*
X13586849Y-12774174D01*
X13663039Y-12974174D02*
X13672563Y-12964650D01*
X13672563Y-12964650D02*
X13691611Y-12936079D01*
X13691611Y-12936079D02*
X13701134Y-12917031D01*
X13701134Y-12917031D02*
X13710658Y-12888460D01*
X13710658Y-12888460D02*
X13720182Y-12840841D01*
X13720182Y-12840841D02*
X13720182Y-12802746D01*
X13720182Y-12802746D02*
X13710658Y-12755127D01*
X13710658Y-12755127D02*
X13701134Y-12726555D01*
X13701134Y-12726555D02*
X13691611Y-12707508D01*
X13691611Y-12707508D02*
X13672563Y-12678936D01*
X13672563Y-12678936D02*
X13663039Y-12669412D01*
D12*
X8685000Y-13058000D02*
X8685000Y-13083000D01*
X8672500Y-13070500D02*
X8697500Y-13070500D01*
D11*
X8996372Y-12961984D02*
X9015420Y-12961984D01*
X9015420Y-12961984D02*
X9034467Y-12971508D01*
X9034467Y-12971508D02*
X9043991Y-12981031D01*
X9043991Y-12981031D02*
X9053515Y-13000079D01*
X9053515Y-13000079D02*
X9063039Y-13038174D01*
X9063039Y-13038174D02*
X9063039Y-13085793D01*
X9063039Y-13085793D02*
X9053515Y-13123888D01*
X9053515Y-13123888D02*
X9043991Y-13142936D01*
X9043991Y-13142936D02*
X9034467Y-13152460D01*
X9034467Y-13152460D02*
X9015420Y-13161984D01*
X9015420Y-13161984D02*
X8996372Y-13161984D01*
X8996372Y-13161984D02*
X8977324Y-13152460D01*
X8977324Y-13152460D02*
X8967801Y-13142936D01*
X8967801Y-13142936D02*
X8958277Y-13123888D01*
X8958277Y-13123888D02*
X8948753Y-13085793D01*
X8948753Y-13085793D02*
X8948753Y-13038174D01*
X8948753Y-13038174D02*
X8958277Y-13000079D01*
X8958277Y-13000079D02*
X8967801Y-12981031D01*
X8967801Y-12981031D02*
X8977324Y-12971508D01*
X8977324Y-12971508D02*
X8996372Y-12961984D01*
X9148753Y-13142936D02*
X9158277Y-13152460D01*
X9158277Y-13152460D02*
X9148753Y-13161984D01*
X9148753Y-13161984D02*
X9139229Y-13152460D01*
X9139229Y-13152460D02*
X9148753Y-13142936D01*
X9148753Y-13142936D02*
X9148753Y-13161984D01*
X9234467Y-12981031D02*
X9243991Y-12971508D01*
X9243991Y-12971508D02*
X9263039Y-12961984D01*
X9263039Y-12961984D02*
X9310658Y-12961984D01*
X9310658Y-12961984D02*
X9329705Y-12971508D01*
X9329705Y-12971508D02*
X9339229Y-12981031D01*
X9339229Y-12981031D02*
X9348753Y-13000079D01*
X9348753Y-13000079D02*
X9348753Y-13019127D01*
X9348753Y-13019127D02*
X9339229Y-13047698D01*
X9339229Y-13047698D02*
X9224944Y-13161984D01*
X9224944Y-13161984D02*
X9348753Y-13161984D01*
X9529705Y-12961984D02*
X9434467Y-12961984D01*
X9434467Y-12961984D02*
X9424944Y-13057222D01*
X9424944Y-13057222D02*
X9434467Y-13047698D01*
X9434467Y-13047698D02*
X9453515Y-13038174D01*
X9453515Y-13038174D02*
X9501134Y-13038174D01*
X9501134Y-13038174D02*
X9520182Y-13047698D01*
X9520182Y-13047698D02*
X9529705Y-13057222D01*
X9529705Y-13057222D02*
X9539229Y-13076269D01*
X9539229Y-13076269D02*
X9539229Y-13123888D01*
X9539229Y-13123888D02*
X9529705Y-13142936D01*
X9529705Y-13142936D02*
X9520182Y-13152460D01*
X9520182Y-13152460D02*
X9501134Y-13161984D01*
X9501134Y-13161984D02*
X9453515Y-13161984D01*
X9453515Y-13161984D02*
X9434467Y-13152460D01*
X9434467Y-13152460D02*
X9424944Y-13142936D01*
X9663039Y-12961984D02*
X9682086Y-12961984D01*
X9682086Y-12961984D02*
X9701134Y-12971508D01*
X9701134Y-12971508D02*
X9710658Y-12981031D01*
X9710658Y-12981031D02*
X9720182Y-13000079D01*
X9720182Y-13000079D02*
X9729705Y-13038174D01*
X9729705Y-13038174D02*
X9729705Y-13085793D01*
X9729705Y-13085793D02*
X9720182Y-13123888D01*
X9720182Y-13123888D02*
X9710658Y-13142936D01*
X9710658Y-13142936D02*
X9701134Y-13152460D01*
X9701134Y-13152460D02*
X9682086Y-13161984D01*
X9682086Y-13161984D02*
X9663039Y-13161984D01*
X9663039Y-13161984D02*
X9643991Y-13152460D01*
X9643991Y-13152460D02*
X9634467Y-13142936D01*
X9634467Y-13142936D02*
X9624944Y-13123888D01*
X9624944Y-13123888D02*
X9615420Y-13085793D01*
X9615420Y-13085793D02*
X9615420Y-13038174D01*
X9615420Y-13038174D02*
X9624944Y-13000079D01*
X9624944Y-13000079D02*
X9634467Y-12981031D01*
X9634467Y-12981031D02*
X9643991Y-12971508D01*
X9643991Y-12971508D02*
X9663039Y-12961984D01*
X9815420Y-13161984D02*
X9815420Y-13028650D01*
X9815420Y-13047698D02*
X9824944Y-13038174D01*
X9824944Y-13038174D02*
X9843991Y-13028650D01*
X9843991Y-13028650D02*
X9872563Y-13028650D01*
X9872563Y-13028650D02*
X9891610Y-13038174D01*
X9891610Y-13038174D02*
X9901134Y-13057222D01*
X9901134Y-13057222D02*
X9901134Y-13161984D01*
X9901134Y-13057222D02*
X9910658Y-13038174D01*
X9910658Y-13038174D02*
X9929705Y-13028650D01*
X9929705Y-13028650D02*
X9958277Y-13028650D01*
X9958277Y-13028650D02*
X9977325Y-13038174D01*
X9977325Y-13038174D02*
X9986848Y-13057222D01*
X9986848Y-13057222D02*
X9986848Y-13161984D01*
X10082086Y-13161984D02*
X10082086Y-13028650D01*
X10082086Y-13047698D02*
X10091610Y-13038174D01*
X10091610Y-13038174D02*
X10110658Y-13028650D01*
X10110658Y-13028650D02*
X10139229Y-13028650D01*
X10139229Y-13028650D02*
X10158277Y-13038174D01*
X10158277Y-13038174D02*
X10167801Y-13057222D01*
X10167801Y-13057222D02*
X10167801Y-13161984D01*
X10167801Y-13057222D02*
X10177325Y-13038174D01*
X10177325Y-13038174D02*
X10196372Y-13028650D01*
X10196372Y-13028650D02*
X10224944Y-13028650D01*
X10224944Y-13028650D02*
X10243991Y-13038174D01*
X10243991Y-13038174D02*
X10253515Y-13057222D01*
X10253515Y-13057222D02*
X10253515Y-13161984D01*
X10643991Y-12952460D02*
X10472563Y-13209603D01*
X10901134Y-12961984D02*
X10920182Y-12961984D01*
X10920182Y-12961984D02*
X10939229Y-12971508D01*
X10939229Y-12971508D02*
X10948753Y-12981031D01*
X10948753Y-12981031D02*
X10958277Y-13000079D01*
X10958277Y-13000079D02*
X10967801Y-13038174D01*
X10967801Y-13038174D02*
X10967801Y-13085793D01*
X10967801Y-13085793D02*
X10958277Y-13123888D01*
X10958277Y-13123888D02*
X10948753Y-13142936D01*
X10948753Y-13142936D02*
X10939229Y-13152460D01*
X10939229Y-13152460D02*
X10920182Y-13161984D01*
X10920182Y-13161984D02*
X10901134Y-13161984D01*
X10901134Y-13161984D02*
X10882087Y-13152460D01*
X10882087Y-13152460D02*
X10872563Y-13142936D01*
X10872563Y-13142936D02*
X10863039Y-13123888D01*
X10863039Y-13123888D02*
X10853515Y-13085793D01*
X10853515Y-13085793D02*
X10853515Y-13038174D01*
X10853515Y-13038174D02*
X10863039Y-13000079D01*
X10863039Y-13000079D02*
X10872563Y-12981031D01*
X10872563Y-12981031D02*
X10882087Y-12971508D01*
X10882087Y-12971508D02*
X10901134Y-12961984D01*
X11053515Y-13142936D02*
X11063039Y-13152460D01*
X11063039Y-13152460D02*
X11053515Y-13161984D01*
X11053515Y-13161984D02*
X11043991Y-13152460D01*
X11043991Y-13152460D02*
X11053515Y-13142936D01*
X11053515Y-13142936D02*
X11053515Y-13161984D01*
X11186848Y-12961984D02*
X11205896Y-12961984D01*
X11205896Y-12961984D02*
X11224944Y-12971508D01*
X11224944Y-12971508D02*
X11234467Y-12981031D01*
X11234467Y-12981031D02*
X11243991Y-13000079D01*
X11243991Y-13000079D02*
X11253515Y-13038174D01*
X11253515Y-13038174D02*
X11253515Y-13085793D01*
X11253515Y-13085793D02*
X11243991Y-13123888D01*
X11243991Y-13123888D02*
X11234467Y-13142936D01*
X11234467Y-13142936D02*
X11224944Y-13152460D01*
X11224944Y-13152460D02*
X11205896Y-13161984D01*
X11205896Y-13161984D02*
X11186848Y-13161984D01*
X11186848Y-13161984D02*
X11167801Y-13152460D01*
X11167801Y-13152460D02*
X11158277Y-13142936D01*
X11158277Y-13142936D02*
X11148753Y-13123888D01*
X11148753Y-13123888D02*
X11139229Y-13085793D01*
X11139229Y-13085793D02*
X11139229Y-13038174D01*
X11139229Y-13038174D02*
X11148753Y-13000079D01*
X11148753Y-13000079D02*
X11158277Y-12981031D01*
X11158277Y-12981031D02*
X11167801Y-12971508D01*
X11167801Y-12971508D02*
X11186848Y-12961984D01*
X11377325Y-12961984D02*
X11396372Y-12961984D01*
X11396372Y-12961984D02*
X11415420Y-12971508D01*
X11415420Y-12971508D02*
X11424944Y-12981031D01*
X11424944Y-12981031D02*
X11434467Y-13000079D01*
X11434467Y-13000079D02*
X11443991Y-13038174D01*
X11443991Y-13038174D02*
X11443991Y-13085793D01*
X11443991Y-13085793D02*
X11434467Y-13123888D01*
X11434467Y-13123888D02*
X11424944Y-13142936D01*
X11424944Y-13142936D02*
X11415420Y-13152460D01*
X11415420Y-13152460D02*
X11396372Y-13161984D01*
X11396372Y-13161984D02*
X11377325Y-13161984D01*
X11377325Y-13161984D02*
X11358277Y-13152460D01*
X11358277Y-13152460D02*
X11348753Y-13142936D01*
X11348753Y-13142936D02*
X11339229Y-13123888D01*
X11339229Y-13123888D02*
X11329706Y-13085793D01*
X11329706Y-13085793D02*
X11329706Y-13038174D01*
X11329706Y-13038174D02*
X11339229Y-13000079D01*
X11339229Y-13000079D02*
X11348753Y-12981031D01*
X11348753Y-12981031D02*
X11358277Y-12971508D01*
X11358277Y-12971508D02*
X11377325Y-12961984D01*
X11539229Y-13161984D02*
X11577325Y-13161984D01*
X11577325Y-13161984D02*
X11596372Y-13152460D01*
X11596372Y-13152460D02*
X11605896Y-13142936D01*
X11605896Y-13142936D02*
X11624944Y-13114365D01*
X11624944Y-13114365D02*
X11634467Y-13076269D01*
X11634467Y-13076269D02*
X11634467Y-13000079D01*
X11634467Y-13000079D02*
X11624944Y-12981031D01*
X11624944Y-12981031D02*
X11615420Y-12971508D01*
X11615420Y-12971508D02*
X11596372Y-12961984D01*
X11596372Y-12961984D02*
X11558277Y-12961984D01*
X11558277Y-12961984D02*
X11539229Y-12971508D01*
X11539229Y-12971508D02*
X11529706Y-12981031D01*
X11529706Y-12981031D02*
X11520182Y-13000079D01*
X11520182Y-13000079D02*
X11520182Y-13047698D01*
X11520182Y-13047698D02*
X11529706Y-13066746D01*
X11529706Y-13066746D02*
X11539229Y-13076269D01*
X11539229Y-13076269D02*
X11558277Y-13085793D01*
X11558277Y-13085793D02*
X11596372Y-13085793D01*
X11596372Y-13085793D02*
X11615420Y-13076269D01*
X11615420Y-13076269D02*
X11624944Y-13066746D01*
X11624944Y-13066746D02*
X11634467Y-13047698D01*
X11748753Y-13047698D02*
X11729706Y-13038174D01*
X11729706Y-13038174D02*
X11720182Y-13028650D01*
X11720182Y-13028650D02*
X11710658Y-13009603D01*
X11710658Y-13009603D02*
X11710658Y-13000079D01*
X11710658Y-13000079D02*
X11720182Y-12981031D01*
X11720182Y-12981031D02*
X11729706Y-12971508D01*
X11729706Y-12971508D02*
X11748753Y-12961984D01*
X11748753Y-12961984D02*
X11786848Y-12961984D01*
X11786848Y-12961984D02*
X11805896Y-12971508D01*
X11805896Y-12971508D02*
X11815420Y-12981031D01*
X11815420Y-12981031D02*
X11824944Y-13000079D01*
X11824944Y-13000079D02*
X11824944Y-13009603D01*
X11824944Y-13009603D02*
X11815420Y-13028650D01*
X11815420Y-13028650D02*
X11805896Y-13038174D01*
X11805896Y-13038174D02*
X11786848Y-13047698D01*
X11786848Y-13047698D02*
X11748753Y-13047698D01*
X11748753Y-13047698D02*
X11729706Y-13057222D01*
X11729706Y-13057222D02*
X11720182Y-13066746D01*
X11720182Y-13066746D02*
X11710658Y-13085793D01*
X11710658Y-13085793D02*
X11710658Y-13123888D01*
X11710658Y-13123888D02*
X11720182Y-13142936D01*
X11720182Y-13142936D02*
X11729706Y-13152460D01*
X11729706Y-13152460D02*
X11748753Y-13161984D01*
X11748753Y-13161984D02*
X11786848Y-13161984D01*
X11786848Y-13161984D02*
X11805896Y-13152460D01*
X11805896Y-13152460D02*
X11815420Y-13142936D01*
X11815420Y-13142936D02*
X11824944Y-13123888D01*
X11824944Y-13123888D02*
X11824944Y-13085793D01*
X11824944Y-13085793D02*
X11815420Y-13066746D01*
X11815420Y-13066746D02*
X11805896Y-13057222D01*
X11805896Y-13057222D02*
X11786848Y-13047698D01*
X11901134Y-12961984D02*
X11901134Y-13000079D01*
X11977325Y-12961984D02*
X11977325Y-13000079D01*
X12272563Y-13238174D02*
X12263039Y-13228650D01*
X12263039Y-13228650D02*
X12243991Y-13200079D01*
X12243991Y-13200079D02*
X12234468Y-13181031D01*
X12234468Y-13181031D02*
X12224944Y-13152460D01*
X12224944Y-13152460D02*
X12215420Y-13104841D01*
X12215420Y-13104841D02*
X12215420Y-13066746D01*
X12215420Y-13066746D02*
X12224944Y-13019127D01*
X12224944Y-13019127D02*
X12234468Y-12990555D01*
X12234468Y-12990555D02*
X12243991Y-12971508D01*
X12243991Y-12971508D02*
X12263039Y-12942936D01*
X12263039Y-12942936D02*
X12272563Y-12933412D01*
X12453515Y-13161984D02*
X12339229Y-13161984D01*
X12396372Y-13161984D02*
X12396372Y-12961984D01*
X12396372Y-12961984D02*
X12377325Y-12990555D01*
X12377325Y-12990555D02*
X12358277Y-13009603D01*
X12358277Y-13009603D02*
X12339229Y-13019127D01*
X12624944Y-13028650D02*
X12624944Y-13161984D01*
X12577325Y-12952460D02*
X12529706Y-13095317D01*
X12529706Y-13095317D02*
X12653515Y-13095317D01*
X12882087Y-13161984D02*
X12882087Y-12961984D01*
X12967801Y-13161984D02*
X12967801Y-13057222D01*
X12967801Y-13057222D02*
X12958277Y-13038174D01*
X12958277Y-13038174D02*
X12939230Y-13028650D01*
X12939230Y-13028650D02*
X12910658Y-13028650D01*
X12910658Y-13028650D02*
X12891610Y-13038174D01*
X12891610Y-13038174D02*
X12882087Y-13047698D01*
X13091610Y-13161984D02*
X13072563Y-13152460D01*
X13072563Y-13152460D02*
X13063039Y-13142936D01*
X13063039Y-13142936D02*
X13053515Y-13123888D01*
X13053515Y-13123888D02*
X13053515Y-13066746D01*
X13053515Y-13066746D02*
X13063039Y-13047698D01*
X13063039Y-13047698D02*
X13072563Y-13038174D01*
X13072563Y-13038174D02*
X13091610Y-13028650D01*
X13091610Y-13028650D02*
X13120182Y-13028650D01*
X13120182Y-13028650D02*
X13139230Y-13038174D01*
X13139230Y-13038174D02*
X13148753Y-13047698D01*
X13148753Y-13047698D02*
X13158277Y-13066746D01*
X13158277Y-13066746D02*
X13158277Y-13123888D01*
X13158277Y-13123888D02*
X13148753Y-13142936D01*
X13148753Y-13142936D02*
X13139230Y-13152460D01*
X13139230Y-13152460D02*
X13120182Y-13161984D01*
X13120182Y-13161984D02*
X13091610Y-13161984D01*
X13272563Y-13161984D02*
X13253515Y-13152460D01*
X13253515Y-13152460D02*
X13243991Y-13133412D01*
X13243991Y-13133412D02*
X13243991Y-12961984D01*
X13424944Y-13152460D02*
X13405896Y-13161984D01*
X13405896Y-13161984D02*
X13367801Y-13161984D01*
X13367801Y-13161984D02*
X13348753Y-13152460D01*
X13348753Y-13152460D02*
X13339230Y-13133412D01*
X13339230Y-13133412D02*
X13339230Y-13057222D01*
X13339230Y-13057222D02*
X13348753Y-13038174D01*
X13348753Y-13038174D02*
X13367801Y-13028650D01*
X13367801Y-13028650D02*
X13405896Y-13028650D01*
X13405896Y-13028650D02*
X13424944Y-13038174D01*
X13424944Y-13038174D02*
X13434468Y-13057222D01*
X13434468Y-13057222D02*
X13434468Y-13076269D01*
X13434468Y-13076269D02*
X13339230Y-13095317D01*
X13510658Y-13152460D02*
X13529706Y-13161984D01*
X13529706Y-13161984D02*
X13567801Y-13161984D01*
X13567801Y-13161984D02*
X13586849Y-13152460D01*
X13586849Y-13152460D02*
X13596372Y-13133412D01*
X13596372Y-13133412D02*
X13596372Y-13123888D01*
X13596372Y-13123888D02*
X13586849Y-13104841D01*
X13586849Y-13104841D02*
X13567801Y-13095317D01*
X13567801Y-13095317D02*
X13539230Y-13095317D01*
X13539230Y-13095317D02*
X13520182Y-13085793D01*
X13520182Y-13085793D02*
X13510658Y-13066746D01*
X13510658Y-13066746D02*
X13510658Y-13057222D01*
X13510658Y-13057222D02*
X13520182Y-13038174D01*
X13520182Y-13038174D02*
X13539230Y-13028650D01*
X13539230Y-13028650D02*
X13567801Y-13028650D01*
X13567801Y-13028650D02*
X13586849Y-13038174D01*
X13663039Y-13238174D02*
X13672563Y-13228650D01*
X13672563Y-13228650D02*
X13691611Y-13200079D01*
X13691611Y-13200079D02*
X13701134Y-13181031D01*
X13701134Y-13181031D02*
X13710658Y-13152460D01*
X13710658Y-13152460D02*
X13720182Y-13104841D01*
X13720182Y-13104841D02*
X13720182Y-13066746D01*
X13720182Y-13066746D02*
X13710658Y-13019127D01*
X13710658Y-13019127D02*
X13701134Y-12990555D01*
X13701134Y-12990555D02*
X13691611Y-12971508D01*
X13691611Y-12971508D02*
X13672563Y-12942936D01*
X13672563Y-12942936D02*
X13663039Y-12933412D01*
D12*
X8691642Y-13348642D02*
X8691642Y-13320358D01*
X8663358Y-13320358D01*
X8663358Y-13348642D01*
X8691642Y-13348642D01*
D11*
X8996372Y-13225984D02*
X9015420Y-13225984D01*
X9015420Y-13225984D02*
X9034467Y-13235508D01*
X9034467Y-13235508D02*
X9043991Y-13245031D01*
X9043991Y-13245031D02*
X9053515Y-13264079D01*
X9053515Y-13264079D02*
X9063039Y-13302174D01*
X9063039Y-13302174D02*
X9063039Y-13349793D01*
X9063039Y-13349793D02*
X9053515Y-13387888D01*
X9053515Y-13387888D02*
X9043991Y-13406936D01*
X9043991Y-13406936D02*
X9034467Y-13416460D01*
X9034467Y-13416460D02*
X9015420Y-13425984D01*
X9015420Y-13425984D02*
X8996372Y-13425984D01*
X8996372Y-13425984D02*
X8977324Y-13416460D01*
X8977324Y-13416460D02*
X8967801Y-13406936D01*
X8967801Y-13406936D02*
X8958277Y-13387888D01*
X8958277Y-13387888D02*
X8948753Y-13349793D01*
X8948753Y-13349793D02*
X8948753Y-13302174D01*
X8948753Y-13302174D02*
X8958277Y-13264079D01*
X8958277Y-13264079D02*
X8967801Y-13245031D01*
X8967801Y-13245031D02*
X8977324Y-13235508D01*
X8977324Y-13235508D02*
X8996372Y-13225984D01*
X9148753Y-13406936D02*
X9158277Y-13416460D01*
X9158277Y-13416460D02*
X9148753Y-13425984D01*
X9148753Y-13425984D02*
X9139229Y-13416460D01*
X9139229Y-13416460D02*
X9148753Y-13406936D01*
X9148753Y-13406936D02*
X9148753Y-13425984D01*
X9329705Y-13292650D02*
X9329705Y-13425984D01*
X9282086Y-13216460D02*
X9234467Y-13359317D01*
X9234467Y-13359317D02*
X9358277Y-13359317D01*
X9472563Y-13225984D02*
X9491610Y-13225984D01*
X9491610Y-13225984D02*
X9510658Y-13235508D01*
X9510658Y-13235508D02*
X9520182Y-13245031D01*
X9520182Y-13245031D02*
X9529705Y-13264079D01*
X9529705Y-13264079D02*
X9539229Y-13302174D01*
X9539229Y-13302174D02*
X9539229Y-13349793D01*
X9539229Y-13349793D02*
X9529705Y-13387888D01*
X9529705Y-13387888D02*
X9520182Y-13406936D01*
X9520182Y-13406936D02*
X9510658Y-13416460D01*
X9510658Y-13416460D02*
X9491610Y-13425984D01*
X9491610Y-13425984D02*
X9472563Y-13425984D01*
X9472563Y-13425984D02*
X9453515Y-13416460D01*
X9453515Y-13416460D02*
X9443991Y-13406936D01*
X9443991Y-13406936D02*
X9434467Y-13387888D01*
X9434467Y-13387888D02*
X9424944Y-13349793D01*
X9424944Y-13349793D02*
X9424944Y-13302174D01*
X9424944Y-13302174D02*
X9434467Y-13264079D01*
X9434467Y-13264079D02*
X9443991Y-13245031D01*
X9443991Y-13245031D02*
X9453515Y-13235508D01*
X9453515Y-13235508D02*
X9472563Y-13225984D01*
X9663039Y-13225984D02*
X9682086Y-13225984D01*
X9682086Y-13225984D02*
X9701134Y-13235508D01*
X9701134Y-13235508D02*
X9710658Y-13245031D01*
X9710658Y-13245031D02*
X9720182Y-13264079D01*
X9720182Y-13264079D02*
X9729705Y-13302174D01*
X9729705Y-13302174D02*
X9729705Y-13349793D01*
X9729705Y-13349793D02*
X9720182Y-13387888D01*
X9720182Y-13387888D02*
X9710658Y-13406936D01*
X9710658Y-13406936D02*
X9701134Y-13416460D01*
X9701134Y-13416460D02*
X9682086Y-13425984D01*
X9682086Y-13425984D02*
X9663039Y-13425984D01*
X9663039Y-13425984D02*
X9643991Y-13416460D01*
X9643991Y-13416460D02*
X9634467Y-13406936D01*
X9634467Y-13406936D02*
X9624944Y-13387888D01*
X9624944Y-13387888D02*
X9615420Y-13349793D01*
X9615420Y-13349793D02*
X9615420Y-13302174D01*
X9615420Y-13302174D02*
X9624944Y-13264079D01*
X9624944Y-13264079D02*
X9634467Y-13245031D01*
X9634467Y-13245031D02*
X9643991Y-13235508D01*
X9643991Y-13235508D02*
X9663039Y-13225984D01*
X9815420Y-13425984D02*
X9815420Y-13292650D01*
X9815420Y-13311698D02*
X9824944Y-13302174D01*
X9824944Y-13302174D02*
X9843991Y-13292650D01*
X9843991Y-13292650D02*
X9872563Y-13292650D01*
X9872563Y-13292650D02*
X9891610Y-13302174D01*
X9891610Y-13302174D02*
X9901134Y-13321222D01*
X9901134Y-13321222D02*
X9901134Y-13425984D01*
X9901134Y-13321222D02*
X9910658Y-13302174D01*
X9910658Y-13302174D02*
X9929705Y-13292650D01*
X9929705Y-13292650D02*
X9958277Y-13292650D01*
X9958277Y-13292650D02*
X9977325Y-13302174D01*
X9977325Y-13302174D02*
X9986848Y-13321222D01*
X9986848Y-13321222D02*
X9986848Y-13425984D01*
X10082086Y-13425984D02*
X10082086Y-13292650D01*
X10082086Y-13311698D02*
X10091610Y-13302174D01*
X10091610Y-13302174D02*
X10110658Y-13292650D01*
X10110658Y-13292650D02*
X10139229Y-13292650D01*
X10139229Y-13292650D02*
X10158277Y-13302174D01*
X10158277Y-13302174D02*
X10167801Y-13321222D01*
X10167801Y-13321222D02*
X10167801Y-13425984D01*
X10167801Y-13321222D02*
X10177325Y-13302174D01*
X10177325Y-13302174D02*
X10196372Y-13292650D01*
X10196372Y-13292650D02*
X10224944Y-13292650D01*
X10224944Y-13292650D02*
X10243991Y-13302174D01*
X10243991Y-13302174D02*
X10253515Y-13321222D01*
X10253515Y-13321222D02*
X10253515Y-13425984D01*
X10643991Y-13216460D02*
X10472563Y-13473603D01*
X10901134Y-13225984D02*
X10920182Y-13225984D01*
X10920182Y-13225984D02*
X10939229Y-13235508D01*
X10939229Y-13235508D02*
X10948753Y-13245031D01*
X10948753Y-13245031D02*
X10958277Y-13264079D01*
X10958277Y-13264079D02*
X10967801Y-13302174D01*
X10967801Y-13302174D02*
X10967801Y-13349793D01*
X10967801Y-13349793D02*
X10958277Y-13387888D01*
X10958277Y-13387888D02*
X10948753Y-13406936D01*
X10948753Y-13406936D02*
X10939229Y-13416460D01*
X10939229Y-13416460D02*
X10920182Y-13425984D01*
X10920182Y-13425984D02*
X10901134Y-13425984D01*
X10901134Y-13425984D02*
X10882087Y-13416460D01*
X10882087Y-13416460D02*
X10872563Y-13406936D01*
X10872563Y-13406936D02*
X10863039Y-13387888D01*
X10863039Y-13387888D02*
X10853515Y-13349793D01*
X10853515Y-13349793D02*
X10853515Y-13302174D01*
X10853515Y-13302174D02*
X10863039Y-13264079D01*
X10863039Y-13264079D02*
X10872563Y-13245031D01*
X10872563Y-13245031D02*
X10882087Y-13235508D01*
X10882087Y-13235508D02*
X10901134Y-13225984D01*
X11053515Y-13406936D02*
X11063039Y-13416460D01*
X11063039Y-13416460D02*
X11053515Y-13425984D01*
X11053515Y-13425984D02*
X11043991Y-13416460D01*
X11043991Y-13416460D02*
X11053515Y-13406936D01*
X11053515Y-13406936D02*
X11053515Y-13425984D01*
X11186848Y-13225984D02*
X11205896Y-13225984D01*
X11205896Y-13225984D02*
X11224944Y-13235508D01*
X11224944Y-13235508D02*
X11234467Y-13245031D01*
X11234467Y-13245031D02*
X11243991Y-13264079D01*
X11243991Y-13264079D02*
X11253515Y-13302174D01*
X11253515Y-13302174D02*
X11253515Y-13349793D01*
X11253515Y-13349793D02*
X11243991Y-13387888D01*
X11243991Y-13387888D02*
X11234467Y-13406936D01*
X11234467Y-13406936D02*
X11224944Y-13416460D01*
X11224944Y-13416460D02*
X11205896Y-13425984D01*
X11205896Y-13425984D02*
X11186848Y-13425984D01*
X11186848Y-13425984D02*
X11167801Y-13416460D01*
X11167801Y-13416460D02*
X11158277Y-13406936D01*
X11158277Y-13406936D02*
X11148753Y-13387888D01*
X11148753Y-13387888D02*
X11139229Y-13349793D01*
X11139229Y-13349793D02*
X11139229Y-13302174D01*
X11139229Y-13302174D02*
X11148753Y-13264079D01*
X11148753Y-13264079D02*
X11158277Y-13245031D01*
X11158277Y-13245031D02*
X11167801Y-13235508D01*
X11167801Y-13235508D02*
X11186848Y-13225984D01*
X11443991Y-13425984D02*
X11329706Y-13425984D01*
X11386848Y-13425984D02*
X11386848Y-13225984D01*
X11386848Y-13225984D02*
X11367801Y-13254555D01*
X11367801Y-13254555D02*
X11348753Y-13273603D01*
X11348753Y-13273603D02*
X11329706Y-13283127D01*
X11624944Y-13225984D02*
X11529706Y-13225984D01*
X11529706Y-13225984D02*
X11520182Y-13321222D01*
X11520182Y-13321222D02*
X11529706Y-13311698D01*
X11529706Y-13311698D02*
X11548753Y-13302174D01*
X11548753Y-13302174D02*
X11596372Y-13302174D01*
X11596372Y-13302174D02*
X11615420Y-13311698D01*
X11615420Y-13311698D02*
X11624944Y-13321222D01*
X11624944Y-13321222D02*
X11634467Y-13340269D01*
X11634467Y-13340269D02*
X11634467Y-13387888D01*
X11634467Y-13387888D02*
X11624944Y-13406936D01*
X11624944Y-13406936D02*
X11615420Y-13416460D01*
X11615420Y-13416460D02*
X11596372Y-13425984D01*
X11596372Y-13425984D02*
X11548753Y-13425984D01*
X11548753Y-13425984D02*
X11529706Y-13416460D01*
X11529706Y-13416460D02*
X11520182Y-13406936D01*
X11701134Y-13225984D02*
X11834467Y-13225984D01*
X11834467Y-13225984D02*
X11748753Y-13425984D01*
X11901134Y-13225984D02*
X11901134Y-13264079D01*
X11977325Y-13225984D02*
X11977325Y-13264079D01*
X12272563Y-13502174D02*
X12263039Y-13492650D01*
X12263039Y-13492650D02*
X12243991Y-13464079D01*
X12243991Y-13464079D02*
X12234468Y-13445031D01*
X12234468Y-13445031D02*
X12224944Y-13416460D01*
X12224944Y-13416460D02*
X12215420Y-13368841D01*
X12215420Y-13368841D02*
X12215420Y-13330746D01*
X12215420Y-13330746D02*
X12224944Y-13283127D01*
X12224944Y-13283127D02*
X12234468Y-13254555D01*
X12234468Y-13254555D02*
X12243991Y-13235508D01*
X12243991Y-13235508D02*
X12263039Y-13206936D01*
X12263039Y-13206936D02*
X12272563Y-13197412D01*
X12329706Y-13225984D02*
X12453515Y-13225984D01*
X12453515Y-13225984D02*
X12386848Y-13302174D01*
X12386848Y-13302174D02*
X12415420Y-13302174D01*
X12415420Y-13302174D02*
X12434468Y-13311698D01*
X12434468Y-13311698D02*
X12443991Y-13321222D01*
X12443991Y-13321222D02*
X12453515Y-13340269D01*
X12453515Y-13340269D02*
X12453515Y-13387888D01*
X12453515Y-13387888D02*
X12443991Y-13406936D01*
X12443991Y-13406936D02*
X12434468Y-13416460D01*
X12434468Y-13416460D02*
X12415420Y-13425984D01*
X12415420Y-13425984D02*
X12358277Y-13425984D01*
X12358277Y-13425984D02*
X12339229Y-13416460D01*
X12339229Y-13416460D02*
X12329706Y-13406936D01*
X12691610Y-13425984D02*
X12691610Y-13225984D01*
X12777325Y-13425984D02*
X12777325Y-13321222D01*
X12777325Y-13321222D02*
X12767801Y-13302174D01*
X12767801Y-13302174D02*
X12748753Y-13292650D01*
X12748753Y-13292650D02*
X12720182Y-13292650D01*
X12720182Y-13292650D02*
X12701134Y-13302174D01*
X12701134Y-13302174D02*
X12691610Y-13311698D01*
X12901134Y-13425984D02*
X12882087Y-13416460D01*
X12882087Y-13416460D02*
X12872563Y-13406936D01*
X12872563Y-13406936D02*
X12863039Y-13387888D01*
X12863039Y-13387888D02*
X12863039Y-13330746D01*
X12863039Y-13330746D02*
X12872563Y-13311698D01*
X12872563Y-13311698D02*
X12882087Y-13302174D01*
X12882087Y-13302174D02*
X12901134Y-13292650D01*
X12901134Y-13292650D02*
X12929706Y-13292650D01*
X12929706Y-13292650D02*
X12948753Y-13302174D01*
X12948753Y-13302174D02*
X12958277Y-13311698D01*
X12958277Y-13311698D02*
X12967801Y-13330746D01*
X12967801Y-13330746D02*
X12967801Y-13387888D01*
X12967801Y-13387888D02*
X12958277Y-13406936D01*
X12958277Y-13406936D02*
X12948753Y-13416460D01*
X12948753Y-13416460D02*
X12929706Y-13425984D01*
X12929706Y-13425984D02*
X12901134Y-13425984D01*
X13082087Y-13425984D02*
X13063039Y-13416460D01*
X13063039Y-13416460D02*
X13053515Y-13397412D01*
X13053515Y-13397412D02*
X13053515Y-13225984D01*
X13234468Y-13416460D02*
X13215420Y-13425984D01*
X13215420Y-13425984D02*
X13177325Y-13425984D01*
X13177325Y-13425984D02*
X13158277Y-13416460D01*
X13158277Y-13416460D02*
X13148753Y-13397412D01*
X13148753Y-13397412D02*
X13148753Y-13321222D01*
X13148753Y-13321222D02*
X13158277Y-13302174D01*
X13158277Y-13302174D02*
X13177325Y-13292650D01*
X13177325Y-13292650D02*
X13215420Y-13292650D01*
X13215420Y-13292650D02*
X13234468Y-13302174D01*
X13234468Y-13302174D02*
X13243991Y-13321222D01*
X13243991Y-13321222D02*
X13243991Y-13340269D01*
X13243991Y-13340269D02*
X13148753Y-13359317D01*
X13320182Y-13416460D02*
X13339230Y-13425984D01*
X13339230Y-13425984D02*
X13377325Y-13425984D01*
X13377325Y-13425984D02*
X13396372Y-13416460D01*
X13396372Y-13416460D02*
X13405896Y-13397412D01*
X13405896Y-13397412D02*
X13405896Y-13387888D01*
X13405896Y-13387888D02*
X13396372Y-13368841D01*
X13396372Y-13368841D02*
X13377325Y-13359317D01*
X13377325Y-13359317D02*
X13348753Y-13359317D01*
X13348753Y-13359317D02*
X13329706Y-13349793D01*
X13329706Y-13349793D02*
X13320182Y-13330746D01*
X13320182Y-13330746D02*
X13320182Y-13321222D01*
X13320182Y-13321222D02*
X13329706Y-13302174D01*
X13329706Y-13302174D02*
X13348753Y-13292650D01*
X13348753Y-13292650D02*
X13377325Y-13292650D01*
X13377325Y-13292650D02*
X13396372Y-13302174D01*
X13472563Y-13502174D02*
X13482087Y-13492650D01*
X13482087Y-13492650D02*
X13501134Y-13464079D01*
X13501134Y-13464079D02*
X13510658Y-13445031D01*
X13510658Y-13445031D02*
X13520182Y-13416460D01*
X13520182Y-13416460D02*
X13529706Y-13368841D01*
X13529706Y-13368841D02*
X13529706Y-13330746D01*
X13529706Y-13330746D02*
X13520182Y-13283127D01*
X13520182Y-13283127D02*
X13510658Y-13254555D01*
X13510658Y-13254555D02*
X13501134Y-13235508D01*
X13501134Y-13235508D02*
X13482087Y-13206936D01*
X13482087Y-13206936D02*
X13472563Y-13197412D01*
D12*
X8672500Y-13623500D02*
X8697500Y-13598500D01*
X8672500Y-13573500D01*
X8647500Y-13598500D01*
X8672500Y-13623500D01*
D11*
X8996372Y-13489984D02*
X9015420Y-13489984D01*
X9015420Y-13489984D02*
X9034467Y-13499508D01*
X9034467Y-13499508D02*
X9043991Y-13509031D01*
X9043991Y-13509031D02*
X9053515Y-13528079D01*
X9053515Y-13528079D02*
X9063039Y-13566174D01*
X9063039Y-13566174D02*
X9063039Y-13613793D01*
X9063039Y-13613793D02*
X9053515Y-13651888D01*
X9053515Y-13651888D02*
X9043991Y-13670936D01*
X9043991Y-13670936D02*
X9034467Y-13680460D01*
X9034467Y-13680460D02*
X9015420Y-13689984D01*
X9015420Y-13689984D02*
X8996372Y-13689984D01*
X8996372Y-13689984D02*
X8977324Y-13680460D01*
X8977324Y-13680460D02*
X8967801Y-13670936D01*
X8967801Y-13670936D02*
X8958277Y-13651888D01*
X8958277Y-13651888D02*
X8948753Y-13613793D01*
X8948753Y-13613793D02*
X8948753Y-13566174D01*
X8948753Y-13566174D02*
X8958277Y-13528079D01*
X8958277Y-13528079D02*
X8967801Y-13509031D01*
X8967801Y-13509031D02*
X8977324Y-13499508D01*
X8977324Y-13499508D02*
X8996372Y-13489984D01*
X9148753Y-13670936D02*
X9158277Y-13680460D01*
X9158277Y-13680460D02*
X9148753Y-13689984D01*
X9148753Y-13689984D02*
X9139229Y-13680460D01*
X9139229Y-13680460D02*
X9148753Y-13670936D01*
X9148753Y-13670936D02*
X9148753Y-13689984D01*
X9339229Y-13489984D02*
X9243991Y-13489984D01*
X9243991Y-13489984D02*
X9234467Y-13585222D01*
X9234467Y-13585222D02*
X9243991Y-13575698D01*
X9243991Y-13575698D02*
X9263039Y-13566174D01*
X9263039Y-13566174D02*
X9310658Y-13566174D01*
X9310658Y-13566174D02*
X9329705Y-13575698D01*
X9329705Y-13575698D02*
X9339229Y-13585222D01*
X9339229Y-13585222D02*
X9348753Y-13604269D01*
X9348753Y-13604269D02*
X9348753Y-13651888D01*
X9348753Y-13651888D02*
X9339229Y-13670936D01*
X9339229Y-13670936D02*
X9329705Y-13680460D01*
X9329705Y-13680460D02*
X9310658Y-13689984D01*
X9310658Y-13689984D02*
X9263039Y-13689984D01*
X9263039Y-13689984D02*
X9243991Y-13680460D01*
X9243991Y-13680460D02*
X9234467Y-13670936D01*
X9472563Y-13489984D02*
X9491610Y-13489984D01*
X9491610Y-13489984D02*
X9510658Y-13499508D01*
X9510658Y-13499508D02*
X9520182Y-13509031D01*
X9520182Y-13509031D02*
X9529705Y-13528079D01*
X9529705Y-13528079D02*
X9539229Y-13566174D01*
X9539229Y-13566174D02*
X9539229Y-13613793D01*
X9539229Y-13613793D02*
X9529705Y-13651888D01*
X9529705Y-13651888D02*
X9520182Y-13670936D01*
X9520182Y-13670936D02*
X9510658Y-13680460D01*
X9510658Y-13680460D02*
X9491610Y-13689984D01*
X9491610Y-13689984D02*
X9472563Y-13689984D01*
X9472563Y-13689984D02*
X9453515Y-13680460D01*
X9453515Y-13680460D02*
X9443991Y-13670936D01*
X9443991Y-13670936D02*
X9434467Y-13651888D01*
X9434467Y-13651888D02*
X9424944Y-13613793D01*
X9424944Y-13613793D02*
X9424944Y-13566174D01*
X9424944Y-13566174D02*
X9434467Y-13528079D01*
X9434467Y-13528079D02*
X9443991Y-13509031D01*
X9443991Y-13509031D02*
X9453515Y-13499508D01*
X9453515Y-13499508D02*
X9472563Y-13489984D01*
X9663039Y-13489984D02*
X9682086Y-13489984D01*
X9682086Y-13489984D02*
X9701134Y-13499508D01*
X9701134Y-13499508D02*
X9710658Y-13509031D01*
X9710658Y-13509031D02*
X9720182Y-13528079D01*
X9720182Y-13528079D02*
X9729705Y-13566174D01*
X9729705Y-13566174D02*
X9729705Y-13613793D01*
X9729705Y-13613793D02*
X9720182Y-13651888D01*
X9720182Y-13651888D02*
X9710658Y-13670936D01*
X9710658Y-13670936D02*
X9701134Y-13680460D01*
X9701134Y-13680460D02*
X9682086Y-13689984D01*
X9682086Y-13689984D02*
X9663039Y-13689984D01*
X9663039Y-13689984D02*
X9643991Y-13680460D01*
X9643991Y-13680460D02*
X9634467Y-13670936D01*
X9634467Y-13670936D02*
X9624944Y-13651888D01*
X9624944Y-13651888D02*
X9615420Y-13613793D01*
X9615420Y-13613793D02*
X9615420Y-13566174D01*
X9615420Y-13566174D02*
X9624944Y-13528079D01*
X9624944Y-13528079D02*
X9634467Y-13509031D01*
X9634467Y-13509031D02*
X9643991Y-13499508D01*
X9643991Y-13499508D02*
X9663039Y-13489984D01*
X9815420Y-13689984D02*
X9815420Y-13556650D01*
X9815420Y-13575698D02*
X9824944Y-13566174D01*
X9824944Y-13566174D02*
X9843991Y-13556650D01*
X9843991Y-13556650D02*
X9872563Y-13556650D01*
X9872563Y-13556650D02*
X9891610Y-13566174D01*
X9891610Y-13566174D02*
X9901134Y-13585222D01*
X9901134Y-13585222D02*
X9901134Y-13689984D01*
X9901134Y-13585222D02*
X9910658Y-13566174D01*
X9910658Y-13566174D02*
X9929705Y-13556650D01*
X9929705Y-13556650D02*
X9958277Y-13556650D01*
X9958277Y-13556650D02*
X9977325Y-13566174D01*
X9977325Y-13566174D02*
X9986848Y-13585222D01*
X9986848Y-13585222D02*
X9986848Y-13689984D01*
X10082086Y-13689984D02*
X10082086Y-13556650D01*
X10082086Y-13575698D02*
X10091610Y-13566174D01*
X10091610Y-13566174D02*
X10110658Y-13556650D01*
X10110658Y-13556650D02*
X10139229Y-13556650D01*
X10139229Y-13556650D02*
X10158277Y-13566174D01*
X10158277Y-13566174D02*
X10167801Y-13585222D01*
X10167801Y-13585222D02*
X10167801Y-13689984D01*
X10167801Y-13585222D02*
X10177325Y-13566174D01*
X10177325Y-13566174D02*
X10196372Y-13556650D01*
X10196372Y-13556650D02*
X10224944Y-13556650D01*
X10224944Y-13556650D02*
X10243991Y-13566174D01*
X10243991Y-13566174D02*
X10253515Y-13585222D01*
X10253515Y-13585222D02*
X10253515Y-13689984D01*
X10643991Y-13480460D02*
X10472563Y-13737603D01*
X10901134Y-13489984D02*
X10920182Y-13489984D01*
X10920182Y-13489984D02*
X10939229Y-13499508D01*
X10939229Y-13499508D02*
X10948753Y-13509031D01*
X10948753Y-13509031D02*
X10958277Y-13528079D01*
X10958277Y-13528079D02*
X10967801Y-13566174D01*
X10967801Y-13566174D02*
X10967801Y-13613793D01*
X10967801Y-13613793D02*
X10958277Y-13651888D01*
X10958277Y-13651888D02*
X10948753Y-13670936D01*
X10948753Y-13670936D02*
X10939229Y-13680460D01*
X10939229Y-13680460D02*
X10920182Y-13689984D01*
X10920182Y-13689984D02*
X10901134Y-13689984D01*
X10901134Y-13689984D02*
X10882087Y-13680460D01*
X10882087Y-13680460D02*
X10872563Y-13670936D01*
X10872563Y-13670936D02*
X10863039Y-13651888D01*
X10863039Y-13651888D02*
X10853515Y-13613793D01*
X10853515Y-13613793D02*
X10853515Y-13566174D01*
X10853515Y-13566174D02*
X10863039Y-13528079D01*
X10863039Y-13528079D02*
X10872563Y-13509031D01*
X10872563Y-13509031D02*
X10882087Y-13499508D01*
X10882087Y-13499508D02*
X10901134Y-13489984D01*
X11053515Y-13670936D02*
X11063039Y-13680460D01*
X11063039Y-13680460D02*
X11053515Y-13689984D01*
X11053515Y-13689984D02*
X11043991Y-13680460D01*
X11043991Y-13680460D02*
X11053515Y-13670936D01*
X11053515Y-13670936D02*
X11053515Y-13689984D01*
X11186848Y-13489984D02*
X11205896Y-13489984D01*
X11205896Y-13489984D02*
X11224944Y-13499508D01*
X11224944Y-13499508D02*
X11234467Y-13509031D01*
X11234467Y-13509031D02*
X11243991Y-13528079D01*
X11243991Y-13528079D02*
X11253515Y-13566174D01*
X11253515Y-13566174D02*
X11253515Y-13613793D01*
X11253515Y-13613793D02*
X11243991Y-13651888D01*
X11243991Y-13651888D02*
X11234467Y-13670936D01*
X11234467Y-13670936D02*
X11224944Y-13680460D01*
X11224944Y-13680460D02*
X11205896Y-13689984D01*
X11205896Y-13689984D02*
X11186848Y-13689984D01*
X11186848Y-13689984D02*
X11167801Y-13680460D01*
X11167801Y-13680460D02*
X11158277Y-13670936D01*
X11158277Y-13670936D02*
X11148753Y-13651888D01*
X11148753Y-13651888D02*
X11139229Y-13613793D01*
X11139229Y-13613793D02*
X11139229Y-13566174D01*
X11139229Y-13566174D02*
X11148753Y-13528079D01*
X11148753Y-13528079D02*
X11158277Y-13509031D01*
X11158277Y-13509031D02*
X11167801Y-13499508D01*
X11167801Y-13499508D02*
X11186848Y-13489984D01*
X11443991Y-13689984D02*
X11329706Y-13689984D01*
X11386848Y-13689984D02*
X11386848Y-13489984D01*
X11386848Y-13489984D02*
X11367801Y-13518555D01*
X11367801Y-13518555D02*
X11348753Y-13537603D01*
X11348753Y-13537603D02*
X11329706Y-13547127D01*
X11539229Y-13689984D02*
X11577325Y-13689984D01*
X11577325Y-13689984D02*
X11596372Y-13680460D01*
X11596372Y-13680460D02*
X11605896Y-13670936D01*
X11605896Y-13670936D02*
X11624944Y-13642365D01*
X11624944Y-13642365D02*
X11634467Y-13604269D01*
X11634467Y-13604269D02*
X11634467Y-13528079D01*
X11634467Y-13528079D02*
X11624944Y-13509031D01*
X11624944Y-13509031D02*
X11615420Y-13499508D01*
X11615420Y-13499508D02*
X11596372Y-13489984D01*
X11596372Y-13489984D02*
X11558277Y-13489984D01*
X11558277Y-13489984D02*
X11539229Y-13499508D01*
X11539229Y-13499508D02*
X11529706Y-13509031D01*
X11529706Y-13509031D02*
X11520182Y-13528079D01*
X11520182Y-13528079D02*
X11520182Y-13575698D01*
X11520182Y-13575698D02*
X11529706Y-13594746D01*
X11529706Y-13594746D02*
X11539229Y-13604269D01*
X11539229Y-13604269D02*
X11558277Y-13613793D01*
X11558277Y-13613793D02*
X11596372Y-13613793D01*
X11596372Y-13613793D02*
X11615420Y-13604269D01*
X11615420Y-13604269D02*
X11624944Y-13594746D01*
X11624944Y-13594746D02*
X11634467Y-13575698D01*
X11701134Y-13489984D02*
X11834467Y-13489984D01*
X11834467Y-13489984D02*
X11748753Y-13689984D01*
X11901134Y-13489984D02*
X11901134Y-13528079D01*
X11977325Y-13489984D02*
X11977325Y-13528079D01*
X12272563Y-13766174D02*
X12263039Y-13756650D01*
X12263039Y-13756650D02*
X12243991Y-13728079D01*
X12243991Y-13728079D02*
X12234468Y-13709031D01*
X12234468Y-13709031D02*
X12224944Y-13680460D01*
X12224944Y-13680460D02*
X12215420Y-13632841D01*
X12215420Y-13632841D02*
X12215420Y-13594746D01*
X12215420Y-13594746D02*
X12224944Y-13547127D01*
X12224944Y-13547127D02*
X12234468Y-13518555D01*
X12234468Y-13518555D02*
X12243991Y-13499508D01*
X12243991Y-13499508D02*
X12263039Y-13470936D01*
X12263039Y-13470936D02*
X12272563Y-13461412D01*
X12386848Y-13489984D02*
X12405896Y-13489984D01*
X12405896Y-13489984D02*
X12424944Y-13499508D01*
X12424944Y-13499508D02*
X12434468Y-13509031D01*
X12434468Y-13509031D02*
X12443991Y-13528079D01*
X12443991Y-13528079D02*
X12453515Y-13566174D01*
X12453515Y-13566174D02*
X12453515Y-13613793D01*
X12453515Y-13613793D02*
X12443991Y-13651888D01*
X12443991Y-13651888D02*
X12434468Y-13670936D01*
X12434468Y-13670936D02*
X12424944Y-13680460D01*
X12424944Y-13680460D02*
X12405896Y-13689984D01*
X12405896Y-13689984D02*
X12386848Y-13689984D01*
X12386848Y-13689984D02*
X12367801Y-13680460D01*
X12367801Y-13680460D02*
X12358277Y-13670936D01*
X12358277Y-13670936D02*
X12348753Y-13651888D01*
X12348753Y-13651888D02*
X12339229Y-13613793D01*
X12339229Y-13613793D02*
X12339229Y-13566174D01*
X12339229Y-13566174D02*
X12348753Y-13528079D01*
X12348753Y-13528079D02*
X12358277Y-13509031D01*
X12358277Y-13509031D02*
X12367801Y-13499508D01*
X12367801Y-13499508D02*
X12386848Y-13489984D01*
X12691610Y-13689984D02*
X12691610Y-13489984D01*
X12777325Y-13689984D02*
X12777325Y-13585222D01*
X12777325Y-13585222D02*
X12767801Y-13566174D01*
X12767801Y-13566174D02*
X12748753Y-13556650D01*
X12748753Y-13556650D02*
X12720182Y-13556650D01*
X12720182Y-13556650D02*
X12701134Y-13566174D01*
X12701134Y-13566174D02*
X12691610Y-13575698D01*
X12901134Y-13689984D02*
X12882087Y-13680460D01*
X12882087Y-13680460D02*
X12872563Y-13670936D01*
X12872563Y-13670936D02*
X12863039Y-13651888D01*
X12863039Y-13651888D02*
X12863039Y-13594746D01*
X12863039Y-13594746D02*
X12872563Y-13575698D01*
X12872563Y-13575698D02*
X12882087Y-13566174D01*
X12882087Y-13566174D02*
X12901134Y-13556650D01*
X12901134Y-13556650D02*
X12929706Y-13556650D01*
X12929706Y-13556650D02*
X12948753Y-13566174D01*
X12948753Y-13566174D02*
X12958277Y-13575698D01*
X12958277Y-13575698D02*
X12967801Y-13594746D01*
X12967801Y-13594746D02*
X12967801Y-13651888D01*
X12967801Y-13651888D02*
X12958277Y-13670936D01*
X12958277Y-13670936D02*
X12948753Y-13680460D01*
X12948753Y-13680460D02*
X12929706Y-13689984D01*
X12929706Y-13689984D02*
X12901134Y-13689984D01*
X13082087Y-13689984D02*
X13063039Y-13680460D01*
X13063039Y-13680460D02*
X13053515Y-13661412D01*
X13053515Y-13661412D02*
X13053515Y-13489984D01*
X13234468Y-13680460D02*
X13215420Y-13689984D01*
X13215420Y-13689984D02*
X13177325Y-13689984D01*
X13177325Y-13689984D02*
X13158277Y-13680460D01*
X13158277Y-13680460D02*
X13148753Y-13661412D01*
X13148753Y-13661412D02*
X13148753Y-13585222D01*
X13148753Y-13585222D02*
X13158277Y-13566174D01*
X13158277Y-13566174D02*
X13177325Y-13556650D01*
X13177325Y-13556650D02*
X13215420Y-13556650D01*
X13215420Y-13556650D02*
X13234468Y-13566174D01*
X13234468Y-13566174D02*
X13243991Y-13585222D01*
X13243991Y-13585222D02*
X13243991Y-13604269D01*
X13243991Y-13604269D02*
X13148753Y-13623317D01*
X13320182Y-13680460D02*
X13339230Y-13689984D01*
X13339230Y-13689984D02*
X13377325Y-13689984D01*
X13377325Y-13689984D02*
X13396372Y-13680460D01*
X13396372Y-13680460D02*
X13405896Y-13661412D01*
X13405896Y-13661412D02*
X13405896Y-13651888D01*
X13405896Y-13651888D02*
X13396372Y-13632841D01*
X13396372Y-13632841D02*
X13377325Y-13623317D01*
X13377325Y-13623317D02*
X13348753Y-13623317D01*
X13348753Y-13623317D02*
X13329706Y-13613793D01*
X13329706Y-13613793D02*
X13320182Y-13594746D01*
X13320182Y-13594746D02*
X13320182Y-13585222D01*
X13320182Y-13585222D02*
X13329706Y-13566174D01*
X13329706Y-13566174D02*
X13348753Y-13556650D01*
X13348753Y-13556650D02*
X13377325Y-13556650D01*
X13377325Y-13556650D02*
X13396372Y-13566174D01*
X13643992Y-13613793D02*
X13796373Y-13613793D01*
X13720182Y-13689984D02*
X13720182Y-13537603D01*
X14034468Y-13509031D02*
X14043992Y-13499508D01*
X14043992Y-13499508D02*
X14063039Y-13489984D01*
X14063039Y-13489984D02*
X14110658Y-13489984D01*
X14110658Y-13489984D02*
X14129706Y-13499508D01*
X14129706Y-13499508D02*
X14139230Y-13509031D01*
X14139230Y-13509031D02*
X14148753Y-13528079D01*
X14148753Y-13528079D02*
X14148753Y-13547127D01*
X14148753Y-13547127D02*
X14139230Y-13575698D01*
X14139230Y-13575698D02*
X14024944Y-13689984D01*
X14024944Y-13689984D02*
X14148753Y-13689984D01*
X14377325Y-13680460D02*
X14396373Y-13689984D01*
X14396373Y-13689984D02*
X14434468Y-13689984D01*
X14434468Y-13689984D02*
X14453515Y-13680460D01*
X14453515Y-13680460D02*
X14463039Y-13661412D01*
X14463039Y-13661412D02*
X14463039Y-13651888D01*
X14463039Y-13651888D02*
X14453515Y-13632841D01*
X14453515Y-13632841D02*
X14434468Y-13623317D01*
X14434468Y-13623317D02*
X14405896Y-13623317D01*
X14405896Y-13623317D02*
X14386849Y-13613793D01*
X14386849Y-13613793D02*
X14377325Y-13594746D01*
X14377325Y-13594746D02*
X14377325Y-13585222D01*
X14377325Y-13585222D02*
X14386849Y-13566174D01*
X14386849Y-13566174D02*
X14405896Y-13556650D01*
X14405896Y-13556650D02*
X14434468Y-13556650D01*
X14434468Y-13556650D02*
X14453515Y-13566174D01*
X14577325Y-13689984D02*
X14558277Y-13680460D01*
X14558277Y-13680460D02*
X14548754Y-13661412D01*
X14548754Y-13661412D02*
X14548754Y-13489984D01*
X14682087Y-13689984D02*
X14663039Y-13680460D01*
X14663039Y-13680460D02*
X14653515Y-13670936D01*
X14653515Y-13670936D02*
X14643992Y-13651888D01*
X14643992Y-13651888D02*
X14643992Y-13594746D01*
X14643992Y-13594746D02*
X14653515Y-13575698D01*
X14653515Y-13575698D02*
X14663039Y-13566174D01*
X14663039Y-13566174D02*
X14682087Y-13556650D01*
X14682087Y-13556650D02*
X14710658Y-13556650D01*
X14710658Y-13556650D02*
X14729706Y-13566174D01*
X14729706Y-13566174D02*
X14739230Y-13575698D01*
X14739230Y-13575698D02*
X14748754Y-13594746D01*
X14748754Y-13594746D02*
X14748754Y-13651888D01*
X14748754Y-13651888D02*
X14739230Y-13670936D01*
X14739230Y-13670936D02*
X14729706Y-13680460D01*
X14729706Y-13680460D02*
X14710658Y-13689984D01*
X14710658Y-13689984D02*
X14682087Y-13689984D01*
X14805896Y-13556650D02*
X14882087Y-13556650D01*
X14834468Y-13489984D02*
X14834468Y-13661412D01*
X14834468Y-13661412D02*
X14843992Y-13680460D01*
X14843992Y-13680460D02*
X14863039Y-13689984D01*
X14863039Y-13689984D02*
X14882087Y-13689984D01*
X14939230Y-13680460D02*
X14958277Y-13689984D01*
X14958277Y-13689984D02*
X14996373Y-13689984D01*
X14996373Y-13689984D02*
X15015420Y-13680460D01*
X15015420Y-13680460D02*
X15024944Y-13661412D01*
X15024944Y-13661412D02*
X15024944Y-13651888D01*
X15024944Y-13651888D02*
X15015420Y-13632841D01*
X15015420Y-13632841D02*
X14996373Y-13623317D01*
X14996373Y-13623317D02*
X14967801Y-13623317D01*
X14967801Y-13623317D02*
X14948754Y-13613793D01*
X14948754Y-13613793D02*
X14939230Y-13594746D01*
X14939230Y-13594746D02*
X14939230Y-13585222D01*
X14939230Y-13585222D02*
X14948754Y-13566174D01*
X14948754Y-13566174D02*
X14967801Y-13556650D01*
X14967801Y-13556650D02*
X14996373Y-13556650D01*
X14996373Y-13556650D02*
X15015420Y-13566174D01*
X15091611Y-13766174D02*
X15101135Y-13756650D01*
X15101135Y-13756650D02*
X15120182Y-13728079D01*
X15120182Y-13728079D02*
X15129706Y-13709031D01*
X15129706Y-13709031D02*
X15139230Y-13680460D01*
X15139230Y-13680460D02*
X15148754Y-13632841D01*
X15148754Y-13632841D02*
X15148754Y-13594746D01*
X15148754Y-13594746D02*
X15139230Y-13547127D01*
X15139230Y-13547127D02*
X15129706Y-13518555D01*
X15129706Y-13518555D02*
X15120182Y-13499508D01*
X15120182Y-13499508D02*
X15101135Y-13470936D01*
X15101135Y-13470936D02*
X15091611Y-13461412D01*
D12*
X8642500Y-13835000D02*
X8697500Y-13890000D01*
X8697500Y-13835000D02*
X8642500Y-13890000D01*
X8697500Y-13862500D02*
G75*
G02*
X8642500Y-13862500I-27500J0D01*
G01*
X8642500Y-13862500D02*
G75*
G02*
X8697500Y-13862500I27500J0D01*
G01*
D11*
X8996372Y-13753984D02*
X9015420Y-13753984D01*
X9015420Y-13753984D02*
X9034467Y-13763508D01*
X9034467Y-13763508D02*
X9043991Y-13773031D01*
X9043991Y-13773031D02*
X9053515Y-13792079D01*
X9053515Y-13792079D02*
X9063039Y-13830174D01*
X9063039Y-13830174D02*
X9063039Y-13877793D01*
X9063039Y-13877793D02*
X9053515Y-13915888D01*
X9053515Y-13915888D02*
X9043991Y-13934936D01*
X9043991Y-13934936D02*
X9034467Y-13944460D01*
X9034467Y-13944460D02*
X9015420Y-13953984D01*
X9015420Y-13953984D02*
X8996372Y-13953984D01*
X8996372Y-13953984D02*
X8977324Y-13944460D01*
X8977324Y-13944460D02*
X8967801Y-13934936D01*
X8967801Y-13934936D02*
X8958277Y-13915888D01*
X8958277Y-13915888D02*
X8948753Y-13877793D01*
X8948753Y-13877793D02*
X8948753Y-13830174D01*
X8948753Y-13830174D02*
X8958277Y-13792079D01*
X8958277Y-13792079D02*
X8967801Y-13773031D01*
X8967801Y-13773031D02*
X8977324Y-13763508D01*
X8977324Y-13763508D02*
X8996372Y-13753984D01*
X9148753Y-13934936D02*
X9158277Y-13944460D01*
X9158277Y-13944460D02*
X9148753Y-13953984D01*
X9148753Y-13953984D02*
X9139229Y-13944460D01*
X9139229Y-13944460D02*
X9148753Y-13934936D01*
X9148753Y-13934936D02*
X9148753Y-13953984D01*
X9339229Y-13753984D02*
X9243991Y-13753984D01*
X9243991Y-13753984D02*
X9234467Y-13849222D01*
X9234467Y-13849222D02*
X9243991Y-13839698D01*
X9243991Y-13839698D02*
X9263039Y-13830174D01*
X9263039Y-13830174D02*
X9310658Y-13830174D01*
X9310658Y-13830174D02*
X9329705Y-13839698D01*
X9329705Y-13839698D02*
X9339229Y-13849222D01*
X9339229Y-13849222D02*
X9348753Y-13868269D01*
X9348753Y-13868269D02*
X9348753Y-13915888D01*
X9348753Y-13915888D02*
X9339229Y-13934936D01*
X9339229Y-13934936D02*
X9329705Y-13944460D01*
X9329705Y-13944460D02*
X9310658Y-13953984D01*
X9310658Y-13953984D02*
X9263039Y-13953984D01*
X9263039Y-13953984D02*
X9243991Y-13944460D01*
X9243991Y-13944460D02*
X9234467Y-13934936D01*
X9529705Y-13753984D02*
X9434467Y-13753984D01*
X9434467Y-13753984D02*
X9424944Y-13849222D01*
X9424944Y-13849222D02*
X9434467Y-13839698D01*
X9434467Y-13839698D02*
X9453515Y-13830174D01*
X9453515Y-13830174D02*
X9501134Y-13830174D01*
X9501134Y-13830174D02*
X9520182Y-13839698D01*
X9520182Y-13839698D02*
X9529705Y-13849222D01*
X9529705Y-13849222D02*
X9539229Y-13868269D01*
X9539229Y-13868269D02*
X9539229Y-13915888D01*
X9539229Y-13915888D02*
X9529705Y-13934936D01*
X9529705Y-13934936D02*
X9520182Y-13944460D01*
X9520182Y-13944460D02*
X9501134Y-13953984D01*
X9501134Y-13953984D02*
X9453515Y-13953984D01*
X9453515Y-13953984D02*
X9434467Y-13944460D01*
X9434467Y-13944460D02*
X9424944Y-13934936D01*
X9663039Y-13753984D02*
X9682086Y-13753984D01*
X9682086Y-13753984D02*
X9701134Y-13763508D01*
X9701134Y-13763508D02*
X9710658Y-13773031D01*
X9710658Y-13773031D02*
X9720182Y-13792079D01*
X9720182Y-13792079D02*
X9729705Y-13830174D01*
X9729705Y-13830174D02*
X9729705Y-13877793D01*
X9729705Y-13877793D02*
X9720182Y-13915888D01*
X9720182Y-13915888D02*
X9710658Y-13934936D01*
X9710658Y-13934936D02*
X9701134Y-13944460D01*
X9701134Y-13944460D02*
X9682086Y-13953984D01*
X9682086Y-13953984D02*
X9663039Y-13953984D01*
X9663039Y-13953984D02*
X9643991Y-13944460D01*
X9643991Y-13944460D02*
X9634467Y-13934936D01*
X9634467Y-13934936D02*
X9624944Y-13915888D01*
X9624944Y-13915888D02*
X9615420Y-13877793D01*
X9615420Y-13877793D02*
X9615420Y-13830174D01*
X9615420Y-13830174D02*
X9624944Y-13792079D01*
X9624944Y-13792079D02*
X9634467Y-13773031D01*
X9634467Y-13773031D02*
X9643991Y-13763508D01*
X9643991Y-13763508D02*
X9663039Y-13753984D01*
X9815420Y-13953984D02*
X9815420Y-13820650D01*
X9815420Y-13839698D02*
X9824944Y-13830174D01*
X9824944Y-13830174D02*
X9843991Y-13820650D01*
X9843991Y-13820650D02*
X9872563Y-13820650D01*
X9872563Y-13820650D02*
X9891610Y-13830174D01*
X9891610Y-13830174D02*
X9901134Y-13849222D01*
X9901134Y-13849222D02*
X9901134Y-13953984D01*
X9901134Y-13849222D02*
X9910658Y-13830174D01*
X9910658Y-13830174D02*
X9929705Y-13820650D01*
X9929705Y-13820650D02*
X9958277Y-13820650D01*
X9958277Y-13820650D02*
X9977325Y-13830174D01*
X9977325Y-13830174D02*
X9986848Y-13849222D01*
X9986848Y-13849222D02*
X9986848Y-13953984D01*
X10082086Y-13953984D02*
X10082086Y-13820650D01*
X10082086Y-13839698D02*
X10091610Y-13830174D01*
X10091610Y-13830174D02*
X10110658Y-13820650D01*
X10110658Y-13820650D02*
X10139229Y-13820650D01*
X10139229Y-13820650D02*
X10158277Y-13830174D01*
X10158277Y-13830174D02*
X10167801Y-13849222D01*
X10167801Y-13849222D02*
X10167801Y-13953984D01*
X10167801Y-13849222D02*
X10177325Y-13830174D01*
X10177325Y-13830174D02*
X10196372Y-13820650D01*
X10196372Y-13820650D02*
X10224944Y-13820650D01*
X10224944Y-13820650D02*
X10243991Y-13830174D01*
X10243991Y-13830174D02*
X10253515Y-13849222D01*
X10253515Y-13849222D02*
X10253515Y-13953984D01*
X10643991Y-13744460D02*
X10472563Y-14001603D01*
X10901134Y-13753984D02*
X10920182Y-13753984D01*
X10920182Y-13753984D02*
X10939229Y-13763508D01*
X10939229Y-13763508D02*
X10948753Y-13773031D01*
X10948753Y-13773031D02*
X10958277Y-13792079D01*
X10958277Y-13792079D02*
X10967801Y-13830174D01*
X10967801Y-13830174D02*
X10967801Y-13877793D01*
X10967801Y-13877793D02*
X10958277Y-13915888D01*
X10958277Y-13915888D02*
X10948753Y-13934936D01*
X10948753Y-13934936D02*
X10939229Y-13944460D01*
X10939229Y-13944460D02*
X10920182Y-13953984D01*
X10920182Y-13953984D02*
X10901134Y-13953984D01*
X10901134Y-13953984D02*
X10882087Y-13944460D01*
X10882087Y-13944460D02*
X10872563Y-13934936D01*
X10872563Y-13934936D02*
X10863039Y-13915888D01*
X10863039Y-13915888D02*
X10853515Y-13877793D01*
X10853515Y-13877793D02*
X10853515Y-13830174D01*
X10853515Y-13830174D02*
X10863039Y-13792079D01*
X10863039Y-13792079D02*
X10872563Y-13773031D01*
X10872563Y-13773031D02*
X10882087Y-13763508D01*
X10882087Y-13763508D02*
X10901134Y-13753984D01*
X11053515Y-13934936D02*
X11063039Y-13944460D01*
X11063039Y-13944460D02*
X11053515Y-13953984D01*
X11053515Y-13953984D02*
X11043991Y-13944460D01*
X11043991Y-13944460D02*
X11053515Y-13934936D01*
X11053515Y-13934936D02*
X11053515Y-13953984D01*
X11186848Y-13753984D02*
X11205896Y-13753984D01*
X11205896Y-13753984D02*
X11224944Y-13763508D01*
X11224944Y-13763508D02*
X11234467Y-13773031D01*
X11234467Y-13773031D02*
X11243991Y-13792079D01*
X11243991Y-13792079D02*
X11253515Y-13830174D01*
X11253515Y-13830174D02*
X11253515Y-13877793D01*
X11253515Y-13877793D02*
X11243991Y-13915888D01*
X11243991Y-13915888D02*
X11234467Y-13934936D01*
X11234467Y-13934936D02*
X11224944Y-13944460D01*
X11224944Y-13944460D02*
X11205896Y-13953984D01*
X11205896Y-13953984D02*
X11186848Y-13953984D01*
X11186848Y-13953984D02*
X11167801Y-13944460D01*
X11167801Y-13944460D02*
X11158277Y-13934936D01*
X11158277Y-13934936D02*
X11148753Y-13915888D01*
X11148753Y-13915888D02*
X11139229Y-13877793D01*
X11139229Y-13877793D02*
X11139229Y-13830174D01*
X11139229Y-13830174D02*
X11148753Y-13792079D01*
X11148753Y-13792079D02*
X11158277Y-13773031D01*
X11158277Y-13773031D02*
X11167801Y-13763508D01*
X11167801Y-13763508D02*
X11186848Y-13753984D01*
X11329706Y-13773031D02*
X11339229Y-13763508D01*
X11339229Y-13763508D02*
X11358277Y-13753984D01*
X11358277Y-13753984D02*
X11405896Y-13753984D01*
X11405896Y-13753984D02*
X11424944Y-13763508D01*
X11424944Y-13763508D02*
X11434467Y-13773031D01*
X11434467Y-13773031D02*
X11443991Y-13792079D01*
X11443991Y-13792079D02*
X11443991Y-13811127D01*
X11443991Y-13811127D02*
X11434467Y-13839698D01*
X11434467Y-13839698D02*
X11320182Y-13953984D01*
X11320182Y-13953984D02*
X11443991Y-13953984D01*
X11634467Y-13953984D02*
X11520182Y-13953984D01*
X11577325Y-13953984D02*
X11577325Y-13753984D01*
X11577325Y-13753984D02*
X11558277Y-13782555D01*
X11558277Y-13782555D02*
X11539229Y-13801603D01*
X11539229Y-13801603D02*
X11520182Y-13811127D01*
X11701134Y-13753984D02*
X11834467Y-13753984D01*
X11834467Y-13753984D02*
X11748753Y-13953984D01*
X11901134Y-13753984D02*
X11901134Y-13792079D01*
X11977325Y-13753984D02*
X11977325Y-13792079D01*
X12272563Y-14030174D02*
X12263039Y-14020650D01*
X12263039Y-14020650D02*
X12243991Y-13992079D01*
X12243991Y-13992079D02*
X12234468Y-13973031D01*
X12234468Y-13973031D02*
X12224944Y-13944460D01*
X12224944Y-13944460D02*
X12215420Y-13896841D01*
X12215420Y-13896841D02*
X12215420Y-13858746D01*
X12215420Y-13858746D02*
X12224944Y-13811127D01*
X12224944Y-13811127D02*
X12234468Y-13782555D01*
X12234468Y-13782555D02*
X12243991Y-13763508D01*
X12243991Y-13763508D02*
X12263039Y-13734936D01*
X12263039Y-13734936D02*
X12272563Y-13725412D01*
X12386848Y-13753984D02*
X12405896Y-13753984D01*
X12405896Y-13753984D02*
X12424944Y-13763508D01*
X12424944Y-13763508D02*
X12434468Y-13773031D01*
X12434468Y-13773031D02*
X12443991Y-13792079D01*
X12443991Y-13792079D02*
X12453515Y-13830174D01*
X12453515Y-13830174D02*
X12453515Y-13877793D01*
X12453515Y-13877793D02*
X12443991Y-13915888D01*
X12443991Y-13915888D02*
X12434468Y-13934936D01*
X12434468Y-13934936D02*
X12424944Y-13944460D01*
X12424944Y-13944460D02*
X12405896Y-13953984D01*
X12405896Y-13953984D02*
X12386848Y-13953984D01*
X12386848Y-13953984D02*
X12367801Y-13944460D01*
X12367801Y-13944460D02*
X12358277Y-13934936D01*
X12358277Y-13934936D02*
X12348753Y-13915888D01*
X12348753Y-13915888D02*
X12339229Y-13877793D01*
X12339229Y-13877793D02*
X12339229Y-13830174D01*
X12339229Y-13830174D02*
X12348753Y-13792079D01*
X12348753Y-13792079D02*
X12358277Y-13773031D01*
X12358277Y-13773031D02*
X12367801Y-13763508D01*
X12367801Y-13763508D02*
X12386848Y-13753984D01*
X12691610Y-13953984D02*
X12691610Y-13753984D01*
X12777325Y-13953984D02*
X12777325Y-13849222D01*
X12777325Y-13849222D02*
X12767801Y-13830174D01*
X12767801Y-13830174D02*
X12748753Y-13820650D01*
X12748753Y-13820650D02*
X12720182Y-13820650D01*
X12720182Y-13820650D02*
X12701134Y-13830174D01*
X12701134Y-13830174D02*
X12691610Y-13839698D01*
X12901134Y-13953984D02*
X12882087Y-13944460D01*
X12882087Y-13944460D02*
X12872563Y-13934936D01*
X12872563Y-13934936D02*
X12863039Y-13915888D01*
X12863039Y-13915888D02*
X12863039Y-13858746D01*
X12863039Y-13858746D02*
X12872563Y-13839698D01*
X12872563Y-13839698D02*
X12882087Y-13830174D01*
X12882087Y-13830174D02*
X12901134Y-13820650D01*
X12901134Y-13820650D02*
X12929706Y-13820650D01*
X12929706Y-13820650D02*
X12948753Y-13830174D01*
X12948753Y-13830174D02*
X12958277Y-13839698D01*
X12958277Y-13839698D02*
X12967801Y-13858746D01*
X12967801Y-13858746D02*
X12967801Y-13915888D01*
X12967801Y-13915888D02*
X12958277Y-13934936D01*
X12958277Y-13934936D02*
X12948753Y-13944460D01*
X12948753Y-13944460D02*
X12929706Y-13953984D01*
X12929706Y-13953984D02*
X12901134Y-13953984D01*
X13082087Y-13953984D02*
X13063039Y-13944460D01*
X13063039Y-13944460D02*
X13053515Y-13925412D01*
X13053515Y-13925412D02*
X13053515Y-13753984D01*
X13234468Y-13944460D02*
X13215420Y-13953984D01*
X13215420Y-13953984D02*
X13177325Y-13953984D01*
X13177325Y-13953984D02*
X13158277Y-13944460D01*
X13158277Y-13944460D02*
X13148753Y-13925412D01*
X13148753Y-13925412D02*
X13148753Y-13849222D01*
X13148753Y-13849222D02*
X13158277Y-13830174D01*
X13158277Y-13830174D02*
X13177325Y-13820650D01*
X13177325Y-13820650D02*
X13215420Y-13820650D01*
X13215420Y-13820650D02*
X13234468Y-13830174D01*
X13234468Y-13830174D02*
X13243991Y-13849222D01*
X13243991Y-13849222D02*
X13243991Y-13868269D01*
X13243991Y-13868269D02*
X13148753Y-13887317D01*
X13320182Y-13944460D02*
X13339230Y-13953984D01*
X13339230Y-13953984D02*
X13377325Y-13953984D01*
X13377325Y-13953984D02*
X13396372Y-13944460D01*
X13396372Y-13944460D02*
X13405896Y-13925412D01*
X13405896Y-13925412D02*
X13405896Y-13915888D01*
X13405896Y-13915888D02*
X13396372Y-13896841D01*
X13396372Y-13896841D02*
X13377325Y-13887317D01*
X13377325Y-13887317D02*
X13348753Y-13887317D01*
X13348753Y-13887317D02*
X13329706Y-13877793D01*
X13329706Y-13877793D02*
X13320182Y-13858746D01*
X13320182Y-13858746D02*
X13320182Y-13849222D01*
X13320182Y-13849222D02*
X13329706Y-13830174D01*
X13329706Y-13830174D02*
X13348753Y-13820650D01*
X13348753Y-13820650D02*
X13377325Y-13820650D01*
X13377325Y-13820650D02*
X13396372Y-13830174D01*
X13643992Y-13877793D02*
X13796373Y-13877793D01*
X13720182Y-13953984D02*
X13720182Y-13801603D01*
X14034468Y-13773031D02*
X14043992Y-13763508D01*
X14043992Y-13763508D02*
X14063039Y-13753984D01*
X14063039Y-13753984D02*
X14110658Y-13753984D01*
X14110658Y-13753984D02*
X14129706Y-13763508D01*
X14129706Y-13763508D02*
X14139230Y-13773031D01*
X14139230Y-13773031D02*
X14148753Y-13792079D01*
X14148753Y-13792079D02*
X14148753Y-13811127D01*
X14148753Y-13811127D02*
X14139230Y-13839698D01*
X14139230Y-13839698D02*
X14024944Y-13953984D01*
X14024944Y-13953984D02*
X14148753Y-13953984D01*
X14377325Y-13944460D02*
X14396373Y-13953984D01*
X14396373Y-13953984D02*
X14434468Y-13953984D01*
X14434468Y-13953984D02*
X14453515Y-13944460D01*
X14453515Y-13944460D02*
X14463039Y-13925412D01*
X14463039Y-13925412D02*
X14463039Y-13915888D01*
X14463039Y-13915888D02*
X14453515Y-13896841D01*
X14453515Y-13896841D02*
X14434468Y-13887317D01*
X14434468Y-13887317D02*
X14405896Y-13887317D01*
X14405896Y-13887317D02*
X14386849Y-13877793D01*
X14386849Y-13877793D02*
X14377325Y-13858746D01*
X14377325Y-13858746D02*
X14377325Y-13849222D01*
X14377325Y-13849222D02*
X14386849Y-13830174D01*
X14386849Y-13830174D02*
X14405896Y-13820650D01*
X14405896Y-13820650D02*
X14434468Y-13820650D01*
X14434468Y-13820650D02*
X14453515Y-13830174D01*
X14577325Y-13953984D02*
X14558277Y-13944460D01*
X14558277Y-13944460D02*
X14548754Y-13925412D01*
X14548754Y-13925412D02*
X14548754Y-13753984D01*
X14682087Y-13953984D02*
X14663039Y-13944460D01*
X14663039Y-13944460D02*
X14653515Y-13934936D01*
X14653515Y-13934936D02*
X14643992Y-13915888D01*
X14643992Y-13915888D02*
X14643992Y-13858746D01*
X14643992Y-13858746D02*
X14653515Y-13839698D01*
X14653515Y-13839698D02*
X14663039Y-13830174D01*
X14663039Y-13830174D02*
X14682087Y-13820650D01*
X14682087Y-13820650D02*
X14710658Y-13820650D01*
X14710658Y-13820650D02*
X14729706Y-13830174D01*
X14729706Y-13830174D02*
X14739230Y-13839698D01*
X14739230Y-13839698D02*
X14748754Y-13858746D01*
X14748754Y-13858746D02*
X14748754Y-13915888D01*
X14748754Y-13915888D02*
X14739230Y-13934936D01*
X14739230Y-13934936D02*
X14729706Y-13944460D01*
X14729706Y-13944460D02*
X14710658Y-13953984D01*
X14710658Y-13953984D02*
X14682087Y-13953984D01*
X14805896Y-13820650D02*
X14882087Y-13820650D01*
X14834468Y-13753984D02*
X14834468Y-13925412D01*
X14834468Y-13925412D02*
X14843992Y-13944460D01*
X14843992Y-13944460D02*
X14863039Y-13953984D01*
X14863039Y-13953984D02*
X14882087Y-13953984D01*
X14939230Y-13944460D02*
X14958277Y-13953984D01*
X14958277Y-13953984D02*
X14996373Y-13953984D01*
X14996373Y-13953984D02*
X15015420Y-13944460D01*
X15015420Y-13944460D02*
X15024944Y-13925412D01*
X15024944Y-13925412D02*
X15024944Y-13915888D01*
X15024944Y-13915888D02*
X15015420Y-13896841D01*
X15015420Y-13896841D02*
X14996373Y-13887317D01*
X14996373Y-13887317D02*
X14967801Y-13887317D01*
X14967801Y-13887317D02*
X14948754Y-13877793D01*
X14948754Y-13877793D02*
X14939230Y-13858746D01*
X14939230Y-13858746D02*
X14939230Y-13849222D01*
X14939230Y-13849222D02*
X14948754Y-13830174D01*
X14948754Y-13830174D02*
X14967801Y-13820650D01*
X14967801Y-13820650D02*
X14996373Y-13820650D01*
X14996373Y-13820650D02*
X15015420Y-13830174D01*
X15091611Y-14030174D02*
X15101135Y-14020650D01*
X15101135Y-14020650D02*
X15120182Y-13992079D01*
X15120182Y-13992079D02*
X15129706Y-13973031D01*
X15129706Y-13973031D02*
X15139230Y-13944460D01*
X15139230Y-13944460D02*
X15148754Y-13896841D01*
X15148754Y-13896841D02*
X15148754Y-13858746D01*
X15148754Y-13858746D02*
X15139230Y-13811127D01*
X15139230Y-13811127D02*
X15129706Y-13782555D01*
X15129706Y-13782555D02*
X15120182Y-13763508D01*
X15120182Y-13763508D02*
X15101135Y-13734936D01*
X15101135Y-13734936D02*
X15091611Y-13725412D01*
D12*
X8617500Y-14086500D02*
X8697500Y-14166500D01*
X8697500Y-14086500D02*
X8617500Y-14166500D01*
X8657500Y-14086500D02*
X8657500Y-14166500D01*
X8617500Y-14126500D02*
X8697500Y-14126500D01*
D11*
X8996372Y-14017984D02*
X9015420Y-14017984D01*
X9015420Y-14017984D02*
X9034467Y-14027508D01*
X9034467Y-14027508D02*
X9043991Y-14037031D01*
X9043991Y-14037031D02*
X9053515Y-14056079D01*
X9053515Y-14056079D02*
X9063039Y-14094174D01*
X9063039Y-14094174D02*
X9063039Y-14141793D01*
X9063039Y-14141793D02*
X9053515Y-14179888D01*
X9053515Y-14179888D02*
X9043991Y-14198936D01*
X9043991Y-14198936D02*
X9034467Y-14208460D01*
X9034467Y-14208460D02*
X9015420Y-14217984D01*
X9015420Y-14217984D02*
X8996372Y-14217984D01*
X8996372Y-14217984D02*
X8977324Y-14208460D01*
X8977324Y-14208460D02*
X8967801Y-14198936D01*
X8967801Y-14198936D02*
X8958277Y-14179888D01*
X8958277Y-14179888D02*
X8948753Y-14141793D01*
X8948753Y-14141793D02*
X8948753Y-14094174D01*
X8948753Y-14094174D02*
X8958277Y-14056079D01*
X8958277Y-14056079D02*
X8967801Y-14037031D01*
X8967801Y-14037031D02*
X8977324Y-14027508D01*
X8977324Y-14027508D02*
X8996372Y-14017984D01*
X9148753Y-14198936D02*
X9158277Y-14208460D01*
X9158277Y-14208460D02*
X9148753Y-14217984D01*
X9148753Y-14217984D02*
X9139229Y-14208460D01*
X9139229Y-14208460D02*
X9148753Y-14198936D01*
X9148753Y-14198936D02*
X9148753Y-14217984D01*
X9272563Y-14103698D02*
X9253515Y-14094174D01*
X9253515Y-14094174D02*
X9243991Y-14084650D01*
X9243991Y-14084650D02*
X9234467Y-14065603D01*
X9234467Y-14065603D02*
X9234467Y-14056079D01*
X9234467Y-14056079D02*
X9243991Y-14037031D01*
X9243991Y-14037031D02*
X9253515Y-14027508D01*
X9253515Y-14027508D02*
X9272563Y-14017984D01*
X9272563Y-14017984D02*
X9310658Y-14017984D01*
X9310658Y-14017984D02*
X9329705Y-14027508D01*
X9329705Y-14027508D02*
X9339229Y-14037031D01*
X9339229Y-14037031D02*
X9348753Y-14056079D01*
X9348753Y-14056079D02*
X9348753Y-14065603D01*
X9348753Y-14065603D02*
X9339229Y-14084650D01*
X9339229Y-14084650D02*
X9329705Y-14094174D01*
X9329705Y-14094174D02*
X9310658Y-14103698D01*
X9310658Y-14103698D02*
X9272563Y-14103698D01*
X9272563Y-14103698D02*
X9253515Y-14113222D01*
X9253515Y-14113222D02*
X9243991Y-14122746D01*
X9243991Y-14122746D02*
X9234467Y-14141793D01*
X9234467Y-14141793D02*
X9234467Y-14179888D01*
X9234467Y-14179888D02*
X9243991Y-14198936D01*
X9243991Y-14198936D02*
X9253515Y-14208460D01*
X9253515Y-14208460D02*
X9272563Y-14217984D01*
X9272563Y-14217984D02*
X9310658Y-14217984D01*
X9310658Y-14217984D02*
X9329705Y-14208460D01*
X9329705Y-14208460D02*
X9339229Y-14198936D01*
X9339229Y-14198936D02*
X9348753Y-14179888D01*
X9348753Y-14179888D02*
X9348753Y-14141793D01*
X9348753Y-14141793D02*
X9339229Y-14122746D01*
X9339229Y-14122746D02*
X9329705Y-14113222D01*
X9329705Y-14113222D02*
X9310658Y-14103698D01*
X9472563Y-14017984D02*
X9491610Y-14017984D01*
X9491610Y-14017984D02*
X9510658Y-14027508D01*
X9510658Y-14027508D02*
X9520182Y-14037031D01*
X9520182Y-14037031D02*
X9529705Y-14056079D01*
X9529705Y-14056079D02*
X9539229Y-14094174D01*
X9539229Y-14094174D02*
X9539229Y-14141793D01*
X9539229Y-14141793D02*
X9529705Y-14179888D01*
X9529705Y-14179888D02*
X9520182Y-14198936D01*
X9520182Y-14198936D02*
X9510658Y-14208460D01*
X9510658Y-14208460D02*
X9491610Y-14217984D01*
X9491610Y-14217984D02*
X9472563Y-14217984D01*
X9472563Y-14217984D02*
X9453515Y-14208460D01*
X9453515Y-14208460D02*
X9443991Y-14198936D01*
X9443991Y-14198936D02*
X9434467Y-14179888D01*
X9434467Y-14179888D02*
X9424944Y-14141793D01*
X9424944Y-14141793D02*
X9424944Y-14094174D01*
X9424944Y-14094174D02*
X9434467Y-14056079D01*
X9434467Y-14056079D02*
X9443991Y-14037031D01*
X9443991Y-14037031D02*
X9453515Y-14027508D01*
X9453515Y-14027508D02*
X9472563Y-14017984D01*
X9663039Y-14017984D02*
X9682086Y-14017984D01*
X9682086Y-14017984D02*
X9701134Y-14027508D01*
X9701134Y-14027508D02*
X9710658Y-14037031D01*
X9710658Y-14037031D02*
X9720182Y-14056079D01*
X9720182Y-14056079D02*
X9729705Y-14094174D01*
X9729705Y-14094174D02*
X9729705Y-14141793D01*
X9729705Y-14141793D02*
X9720182Y-14179888D01*
X9720182Y-14179888D02*
X9710658Y-14198936D01*
X9710658Y-14198936D02*
X9701134Y-14208460D01*
X9701134Y-14208460D02*
X9682086Y-14217984D01*
X9682086Y-14217984D02*
X9663039Y-14217984D01*
X9663039Y-14217984D02*
X9643991Y-14208460D01*
X9643991Y-14208460D02*
X9634467Y-14198936D01*
X9634467Y-14198936D02*
X9624944Y-14179888D01*
X9624944Y-14179888D02*
X9615420Y-14141793D01*
X9615420Y-14141793D02*
X9615420Y-14094174D01*
X9615420Y-14094174D02*
X9624944Y-14056079D01*
X9624944Y-14056079D02*
X9634467Y-14037031D01*
X9634467Y-14037031D02*
X9643991Y-14027508D01*
X9643991Y-14027508D02*
X9663039Y-14017984D01*
X9815420Y-14217984D02*
X9815420Y-14084650D01*
X9815420Y-14103698D02*
X9824944Y-14094174D01*
X9824944Y-14094174D02*
X9843991Y-14084650D01*
X9843991Y-14084650D02*
X9872563Y-14084650D01*
X9872563Y-14084650D02*
X9891610Y-14094174D01*
X9891610Y-14094174D02*
X9901134Y-14113222D01*
X9901134Y-14113222D02*
X9901134Y-14217984D01*
X9901134Y-14113222D02*
X9910658Y-14094174D01*
X9910658Y-14094174D02*
X9929705Y-14084650D01*
X9929705Y-14084650D02*
X9958277Y-14084650D01*
X9958277Y-14084650D02*
X9977325Y-14094174D01*
X9977325Y-14094174D02*
X9986848Y-14113222D01*
X9986848Y-14113222D02*
X9986848Y-14217984D01*
X10082086Y-14217984D02*
X10082086Y-14084650D01*
X10082086Y-14103698D02*
X10091610Y-14094174D01*
X10091610Y-14094174D02*
X10110658Y-14084650D01*
X10110658Y-14084650D02*
X10139229Y-14084650D01*
X10139229Y-14084650D02*
X10158277Y-14094174D01*
X10158277Y-14094174D02*
X10167801Y-14113222D01*
X10167801Y-14113222D02*
X10167801Y-14217984D01*
X10167801Y-14113222D02*
X10177325Y-14094174D01*
X10177325Y-14094174D02*
X10196372Y-14084650D01*
X10196372Y-14084650D02*
X10224944Y-14084650D01*
X10224944Y-14084650D02*
X10243991Y-14094174D01*
X10243991Y-14094174D02*
X10253515Y-14113222D01*
X10253515Y-14113222D02*
X10253515Y-14217984D01*
X10643991Y-14008460D02*
X10472563Y-14265603D01*
X10901134Y-14017984D02*
X10920182Y-14017984D01*
X10920182Y-14017984D02*
X10939229Y-14027508D01*
X10939229Y-14027508D02*
X10948753Y-14037031D01*
X10948753Y-14037031D02*
X10958277Y-14056079D01*
X10958277Y-14056079D02*
X10967801Y-14094174D01*
X10967801Y-14094174D02*
X10967801Y-14141793D01*
X10967801Y-14141793D02*
X10958277Y-14179888D01*
X10958277Y-14179888D02*
X10948753Y-14198936D01*
X10948753Y-14198936D02*
X10939229Y-14208460D01*
X10939229Y-14208460D02*
X10920182Y-14217984D01*
X10920182Y-14217984D02*
X10901134Y-14217984D01*
X10901134Y-14217984D02*
X10882087Y-14208460D01*
X10882087Y-14208460D02*
X10872563Y-14198936D01*
X10872563Y-14198936D02*
X10863039Y-14179888D01*
X10863039Y-14179888D02*
X10853515Y-14141793D01*
X10853515Y-14141793D02*
X10853515Y-14094174D01*
X10853515Y-14094174D02*
X10863039Y-14056079D01*
X10863039Y-14056079D02*
X10872563Y-14037031D01*
X10872563Y-14037031D02*
X10882087Y-14027508D01*
X10882087Y-14027508D02*
X10901134Y-14017984D01*
X11053515Y-14198936D02*
X11063039Y-14208460D01*
X11063039Y-14208460D02*
X11053515Y-14217984D01*
X11053515Y-14217984D02*
X11043991Y-14208460D01*
X11043991Y-14208460D02*
X11053515Y-14198936D01*
X11053515Y-14198936D02*
X11053515Y-14217984D01*
X11186848Y-14017984D02*
X11205896Y-14017984D01*
X11205896Y-14017984D02*
X11224944Y-14027508D01*
X11224944Y-14027508D02*
X11234467Y-14037031D01*
X11234467Y-14037031D02*
X11243991Y-14056079D01*
X11243991Y-14056079D02*
X11253515Y-14094174D01*
X11253515Y-14094174D02*
X11253515Y-14141793D01*
X11253515Y-14141793D02*
X11243991Y-14179888D01*
X11243991Y-14179888D02*
X11234467Y-14198936D01*
X11234467Y-14198936D02*
X11224944Y-14208460D01*
X11224944Y-14208460D02*
X11205896Y-14217984D01*
X11205896Y-14217984D02*
X11186848Y-14217984D01*
X11186848Y-14217984D02*
X11167801Y-14208460D01*
X11167801Y-14208460D02*
X11158277Y-14198936D01*
X11158277Y-14198936D02*
X11148753Y-14179888D01*
X11148753Y-14179888D02*
X11139229Y-14141793D01*
X11139229Y-14141793D02*
X11139229Y-14094174D01*
X11139229Y-14094174D02*
X11148753Y-14056079D01*
X11148753Y-14056079D02*
X11158277Y-14037031D01*
X11158277Y-14037031D02*
X11167801Y-14027508D01*
X11167801Y-14027508D02*
X11186848Y-14017984D01*
X11320182Y-14017984D02*
X11443991Y-14017984D01*
X11443991Y-14017984D02*
X11377325Y-14094174D01*
X11377325Y-14094174D02*
X11405896Y-14094174D01*
X11405896Y-14094174D02*
X11424944Y-14103698D01*
X11424944Y-14103698D02*
X11434467Y-14113222D01*
X11434467Y-14113222D02*
X11443991Y-14132269D01*
X11443991Y-14132269D02*
X11443991Y-14179888D01*
X11443991Y-14179888D02*
X11434467Y-14198936D01*
X11434467Y-14198936D02*
X11424944Y-14208460D01*
X11424944Y-14208460D02*
X11405896Y-14217984D01*
X11405896Y-14217984D02*
X11348753Y-14217984D01*
X11348753Y-14217984D02*
X11329706Y-14208460D01*
X11329706Y-14208460D02*
X11320182Y-14198936D01*
X11634467Y-14217984D02*
X11520182Y-14217984D01*
X11577325Y-14217984D02*
X11577325Y-14017984D01*
X11577325Y-14017984D02*
X11558277Y-14046555D01*
X11558277Y-14046555D02*
X11539229Y-14065603D01*
X11539229Y-14065603D02*
X11520182Y-14075127D01*
X11815420Y-14017984D02*
X11720182Y-14017984D01*
X11720182Y-14017984D02*
X11710658Y-14113222D01*
X11710658Y-14113222D02*
X11720182Y-14103698D01*
X11720182Y-14103698D02*
X11739229Y-14094174D01*
X11739229Y-14094174D02*
X11786848Y-14094174D01*
X11786848Y-14094174D02*
X11805896Y-14103698D01*
X11805896Y-14103698D02*
X11815420Y-14113222D01*
X11815420Y-14113222D02*
X11824944Y-14132269D01*
X11824944Y-14132269D02*
X11824944Y-14179888D01*
X11824944Y-14179888D02*
X11815420Y-14198936D01*
X11815420Y-14198936D02*
X11805896Y-14208460D01*
X11805896Y-14208460D02*
X11786848Y-14217984D01*
X11786848Y-14217984D02*
X11739229Y-14217984D01*
X11739229Y-14217984D02*
X11720182Y-14208460D01*
X11720182Y-14208460D02*
X11710658Y-14198936D01*
X11901134Y-14017984D02*
X11901134Y-14056079D01*
X11977325Y-14017984D02*
X11977325Y-14056079D01*
X12272563Y-14294174D02*
X12263039Y-14284650D01*
X12263039Y-14284650D02*
X12243991Y-14256079D01*
X12243991Y-14256079D02*
X12234468Y-14237031D01*
X12234468Y-14237031D02*
X12224944Y-14208460D01*
X12224944Y-14208460D02*
X12215420Y-14160841D01*
X12215420Y-14160841D02*
X12215420Y-14122746D01*
X12215420Y-14122746D02*
X12224944Y-14075127D01*
X12224944Y-14075127D02*
X12234468Y-14046555D01*
X12234468Y-14046555D02*
X12243991Y-14027508D01*
X12243991Y-14027508D02*
X12263039Y-13998936D01*
X12263039Y-13998936D02*
X12272563Y-13989412D01*
X12386848Y-14017984D02*
X12405896Y-14017984D01*
X12405896Y-14017984D02*
X12424944Y-14027508D01*
X12424944Y-14027508D02*
X12434468Y-14037031D01*
X12434468Y-14037031D02*
X12443991Y-14056079D01*
X12443991Y-14056079D02*
X12453515Y-14094174D01*
X12453515Y-14094174D02*
X12453515Y-14141793D01*
X12453515Y-14141793D02*
X12443991Y-14179888D01*
X12443991Y-14179888D02*
X12434468Y-14198936D01*
X12434468Y-14198936D02*
X12424944Y-14208460D01*
X12424944Y-14208460D02*
X12405896Y-14217984D01*
X12405896Y-14217984D02*
X12386848Y-14217984D01*
X12386848Y-14217984D02*
X12367801Y-14208460D01*
X12367801Y-14208460D02*
X12358277Y-14198936D01*
X12358277Y-14198936D02*
X12348753Y-14179888D01*
X12348753Y-14179888D02*
X12339229Y-14141793D01*
X12339229Y-14141793D02*
X12339229Y-14094174D01*
X12339229Y-14094174D02*
X12348753Y-14056079D01*
X12348753Y-14056079D02*
X12358277Y-14037031D01*
X12358277Y-14037031D02*
X12367801Y-14027508D01*
X12367801Y-14027508D02*
X12386848Y-14017984D01*
X12691610Y-14217984D02*
X12691610Y-14017984D01*
X12777325Y-14217984D02*
X12777325Y-14113222D01*
X12777325Y-14113222D02*
X12767801Y-14094174D01*
X12767801Y-14094174D02*
X12748753Y-14084650D01*
X12748753Y-14084650D02*
X12720182Y-14084650D01*
X12720182Y-14084650D02*
X12701134Y-14094174D01*
X12701134Y-14094174D02*
X12691610Y-14103698D01*
X12901134Y-14217984D02*
X12882087Y-14208460D01*
X12882087Y-14208460D02*
X12872563Y-14198936D01*
X12872563Y-14198936D02*
X12863039Y-14179888D01*
X12863039Y-14179888D02*
X12863039Y-14122746D01*
X12863039Y-14122746D02*
X12872563Y-14103698D01*
X12872563Y-14103698D02*
X12882087Y-14094174D01*
X12882087Y-14094174D02*
X12901134Y-14084650D01*
X12901134Y-14084650D02*
X12929706Y-14084650D01*
X12929706Y-14084650D02*
X12948753Y-14094174D01*
X12948753Y-14094174D02*
X12958277Y-14103698D01*
X12958277Y-14103698D02*
X12967801Y-14122746D01*
X12967801Y-14122746D02*
X12967801Y-14179888D01*
X12967801Y-14179888D02*
X12958277Y-14198936D01*
X12958277Y-14198936D02*
X12948753Y-14208460D01*
X12948753Y-14208460D02*
X12929706Y-14217984D01*
X12929706Y-14217984D02*
X12901134Y-14217984D01*
X13082087Y-14217984D02*
X13063039Y-14208460D01*
X13063039Y-14208460D02*
X13053515Y-14189412D01*
X13053515Y-14189412D02*
X13053515Y-14017984D01*
X13234468Y-14208460D02*
X13215420Y-14217984D01*
X13215420Y-14217984D02*
X13177325Y-14217984D01*
X13177325Y-14217984D02*
X13158277Y-14208460D01*
X13158277Y-14208460D02*
X13148753Y-14189412D01*
X13148753Y-14189412D02*
X13148753Y-14113222D01*
X13148753Y-14113222D02*
X13158277Y-14094174D01*
X13158277Y-14094174D02*
X13177325Y-14084650D01*
X13177325Y-14084650D02*
X13215420Y-14084650D01*
X13215420Y-14084650D02*
X13234468Y-14094174D01*
X13234468Y-14094174D02*
X13243991Y-14113222D01*
X13243991Y-14113222D02*
X13243991Y-14132269D01*
X13243991Y-14132269D02*
X13148753Y-14151317D01*
X13320182Y-14208460D02*
X13339230Y-14217984D01*
X13339230Y-14217984D02*
X13377325Y-14217984D01*
X13377325Y-14217984D02*
X13396372Y-14208460D01*
X13396372Y-14208460D02*
X13405896Y-14189412D01*
X13405896Y-14189412D02*
X13405896Y-14179888D01*
X13405896Y-14179888D02*
X13396372Y-14160841D01*
X13396372Y-14160841D02*
X13377325Y-14151317D01*
X13377325Y-14151317D02*
X13348753Y-14151317D01*
X13348753Y-14151317D02*
X13329706Y-14141793D01*
X13329706Y-14141793D02*
X13320182Y-14122746D01*
X13320182Y-14122746D02*
X13320182Y-14113222D01*
X13320182Y-14113222D02*
X13329706Y-14094174D01*
X13329706Y-14094174D02*
X13348753Y-14084650D01*
X13348753Y-14084650D02*
X13377325Y-14084650D01*
X13377325Y-14084650D02*
X13396372Y-14094174D01*
X13643992Y-14141793D02*
X13796373Y-14141793D01*
X13720182Y-14217984D02*
X13720182Y-14065603D01*
X14034468Y-14037031D02*
X14043992Y-14027508D01*
X14043992Y-14027508D02*
X14063039Y-14017984D01*
X14063039Y-14017984D02*
X14110658Y-14017984D01*
X14110658Y-14017984D02*
X14129706Y-14027508D01*
X14129706Y-14027508D02*
X14139230Y-14037031D01*
X14139230Y-14037031D02*
X14148753Y-14056079D01*
X14148753Y-14056079D02*
X14148753Y-14075127D01*
X14148753Y-14075127D02*
X14139230Y-14103698D01*
X14139230Y-14103698D02*
X14024944Y-14217984D01*
X14024944Y-14217984D02*
X14148753Y-14217984D01*
X14377325Y-14208460D02*
X14396373Y-14217984D01*
X14396373Y-14217984D02*
X14434468Y-14217984D01*
X14434468Y-14217984D02*
X14453515Y-14208460D01*
X14453515Y-14208460D02*
X14463039Y-14189412D01*
X14463039Y-14189412D02*
X14463039Y-14179888D01*
X14463039Y-14179888D02*
X14453515Y-14160841D01*
X14453515Y-14160841D02*
X14434468Y-14151317D01*
X14434468Y-14151317D02*
X14405896Y-14151317D01*
X14405896Y-14151317D02*
X14386849Y-14141793D01*
X14386849Y-14141793D02*
X14377325Y-14122746D01*
X14377325Y-14122746D02*
X14377325Y-14113222D01*
X14377325Y-14113222D02*
X14386849Y-14094174D01*
X14386849Y-14094174D02*
X14405896Y-14084650D01*
X14405896Y-14084650D02*
X14434468Y-14084650D01*
X14434468Y-14084650D02*
X14453515Y-14094174D01*
X14577325Y-14217984D02*
X14558277Y-14208460D01*
X14558277Y-14208460D02*
X14548754Y-14189412D01*
X14548754Y-14189412D02*
X14548754Y-14017984D01*
X14682087Y-14217984D02*
X14663039Y-14208460D01*
X14663039Y-14208460D02*
X14653515Y-14198936D01*
X14653515Y-14198936D02*
X14643992Y-14179888D01*
X14643992Y-14179888D02*
X14643992Y-14122746D01*
X14643992Y-14122746D02*
X14653515Y-14103698D01*
X14653515Y-14103698D02*
X14663039Y-14094174D01*
X14663039Y-14094174D02*
X14682087Y-14084650D01*
X14682087Y-14084650D02*
X14710658Y-14084650D01*
X14710658Y-14084650D02*
X14729706Y-14094174D01*
X14729706Y-14094174D02*
X14739230Y-14103698D01*
X14739230Y-14103698D02*
X14748754Y-14122746D01*
X14748754Y-14122746D02*
X14748754Y-14179888D01*
X14748754Y-14179888D02*
X14739230Y-14198936D01*
X14739230Y-14198936D02*
X14729706Y-14208460D01*
X14729706Y-14208460D02*
X14710658Y-14217984D01*
X14710658Y-14217984D02*
X14682087Y-14217984D01*
X14805896Y-14084650D02*
X14882087Y-14084650D01*
X14834468Y-14017984D02*
X14834468Y-14189412D01*
X14834468Y-14189412D02*
X14843992Y-14208460D01*
X14843992Y-14208460D02*
X14863039Y-14217984D01*
X14863039Y-14217984D02*
X14882087Y-14217984D01*
X14939230Y-14208460D02*
X14958277Y-14217984D01*
X14958277Y-14217984D02*
X14996373Y-14217984D01*
X14996373Y-14217984D02*
X15015420Y-14208460D01*
X15015420Y-14208460D02*
X15024944Y-14189412D01*
X15024944Y-14189412D02*
X15024944Y-14179888D01*
X15024944Y-14179888D02*
X15015420Y-14160841D01*
X15015420Y-14160841D02*
X14996373Y-14151317D01*
X14996373Y-14151317D02*
X14967801Y-14151317D01*
X14967801Y-14151317D02*
X14948754Y-14141793D01*
X14948754Y-14141793D02*
X14939230Y-14122746D01*
X14939230Y-14122746D02*
X14939230Y-14113222D01*
X14939230Y-14113222D02*
X14948754Y-14094174D01*
X14948754Y-14094174D02*
X14967801Y-14084650D01*
X14967801Y-14084650D02*
X14996373Y-14084650D01*
X14996373Y-14084650D02*
X15015420Y-14094174D01*
X15091611Y-14294174D02*
X15101135Y-14284650D01*
X15101135Y-14284650D02*
X15120182Y-14256079D01*
X15120182Y-14256079D02*
X15129706Y-14237031D01*
X15129706Y-14237031D02*
X15139230Y-14208460D01*
X15139230Y-14208460D02*
X15148754Y-14160841D01*
X15148754Y-14160841D02*
X15148754Y-14122746D01*
X15148754Y-14122746D02*
X15139230Y-14075127D01*
X15139230Y-14075127D02*
X15129706Y-14046555D01*
X15129706Y-14046555D02*
X15120182Y-14027508D01*
X15120182Y-14027508D02*
X15101135Y-13998936D01*
X15101135Y-13998936D02*
X15091611Y-13989412D01*
D12*
X8607500Y-14345500D02*
X8697500Y-14435500D01*
X8697500Y-14345500D02*
X8607500Y-14435500D01*
X8684320Y-14422320D02*
X8684320Y-14358680D01*
X8620680Y-14358680D01*
X8620680Y-14422320D01*
X8684320Y-14422320D01*
D11*
X8996372Y-14281984D02*
X9015420Y-14281984D01*
X9015420Y-14281984D02*
X9034467Y-14291508D01*
X9034467Y-14291508D02*
X9043991Y-14301031D01*
X9043991Y-14301031D02*
X9053515Y-14320079D01*
X9053515Y-14320079D02*
X9063039Y-14358174D01*
X9063039Y-14358174D02*
X9063039Y-14405793D01*
X9063039Y-14405793D02*
X9053515Y-14443888D01*
X9053515Y-14443888D02*
X9043991Y-14462936D01*
X9043991Y-14462936D02*
X9034467Y-14472460D01*
X9034467Y-14472460D02*
X9015420Y-14481984D01*
X9015420Y-14481984D02*
X8996372Y-14481984D01*
X8996372Y-14481984D02*
X8977324Y-14472460D01*
X8977324Y-14472460D02*
X8967801Y-14462936D01*
X8967801Y-14462936D02*
X8958277Y-14443888D01*
X8958277Y-14443888D02*
X8948753Y-14405793D01*
X8948753Y-14405793D02*
X8948753Y-14358174D01*
X8948753Y-14358174D02*
X8958277Y-14320079D01*
X8958277Y-14320079D02*
X8967801Y-14301031D01*
X8967801Y-14301031D02*
X8977324Y-14291508D01*
X8977324Y-14291508D02*
X8996372Y-14281984D01*
X9148753Y-14462936D02*
X9158277Y-14472460D01*
X9158277Y-14472460D02*
X9148753Y-14481984D01*
X9148753Y-14481984D02*
X9139229Y-14472460D01*
X9139229Y-14472460D02*
X9148753Y-14462936D01*
X9148753Y-14462936D02*
X9148753Y-14481984D01*
X9253515Y-14481984D02*
X9291610Y-14481984D01*
X9291610Y-14481984D02*
X9310658Y-14472460D01*
X9310658Y-14472460D02*
X9320182Y-14462936D01*
X9320182Y-14462936D02*
X9339229Y-14434365D01*
X9339229Y-14434365D02*
X9348753Y-14396269D01*
X9348753Y-14396269D02*
X9348753Y-14320079D01*
X9348753Y-14320079D02*
X9339229Y-14301031D01*
X9339229Y-14301031D02*
X9329705Y-14291508D01*
X9329705Y-14291508D02*
X9310658Y-14281984D01*
X9310658Y-14281984D02*
X9272563Y-14281984D01*
X9272563Y-14281984D02*
X9253515Y-14291508D01*
X9253515Y-14291508D02*
X9243991Y-14301031D01*
X9243991Y-14301031D02*
X9234467Y-14320079D01*
X9234467Y-14320079D02*
X9234467Y-14367698D01*
X9234467Y-14367698D02*
X9243991Y-14386746D01*
X9243991Y-14386746D02*
X9253515Y-14396269D01*
X9253515Y-14396269D02*
X9272563Y-14405793D01*
X9272563Y-14405793D02*
X9310658Y-14405793D01*
X9310658Y-14405793D02*
X9329705Y-14396269D01*
X9329705Y-14396269D02*
X9339229Y-14386746D01*
X9339229Y-14386746D02*
X9348753Y-14367698D01*
X9472563Y-14281984D02*
X9491610Y-14281984D01*
X9491610Y-14281984D02*
X9510658Y-14291508D01*
X9510658Y-14291508D02*
X9520182Y-14301031D01*
X9520182Y-14301031D02*
X9529705Y-14320079D01*
X9529705Y-14320079D02*
X9539229Y-14358174D01*
X9539229Y-14358174D02*
X9539229Y-14405793D01*
X9539229Y-14405793D02*
X9529705Y-14443888D01*
X9529705Y-14443888D02*
X9520182Y-14462936D01*
X9520182Y-14462936D02*
X9510658Y-14472460D01*
X9510658Y-14472460D02*
X9491610Y-14481984D01*
X9491610Y-14481984D02*
X9472563Y-14481984D01*
X9472563Y-14481984D02*
X9453515Y-14472460D01*
X9453515Y-14472460D02*
X9443991Y-14462936D01*
X9443991Y-14462936D02*
X9434467Y-14443888D01*
X9434467Y-14443888D02*
X9424944Y-14405793D01*
X9424944Y-14405793D02*
X9424944Y-14358174D01*
X9424944Y-14358174D02*
X9434467Y-14320079D01*
X9434467Y-14320079D02*
X9443991Y-14301031D01*
X9443991Y-14301031D02*
X9453515Y-14291508D01*
X9453515Y-14291508D02*
X9472563Y-14281984D01*
X9663039Y-14281984D02*
X9682086Y-14281984D01*
X9682086Y-14281984D02*
X9701134Y-14291508D01*
X9701134Y-14291508D02*
X9710658Y-14301031D01*
X9710658Y-14301031D02*
X9720182Y-14320079D01*
X9720182Y-14320079D02*
X9729705Y-14358174D01*
X9729705Y-14358174D02*
X9729705Y-14405793D01*
X9729705Y-14405793D02*
X9720182Y-14443888D01*
X9720182Y-14443888D02*
X9710658Y-14462936D01*
X9710658Y-14462936D02*
X9701134Y-14472460D01*
X9701134Y-14472460D02*
X9682086Y-14481984D01*
X9682086Y-14481984D02*
X9663039Y-14481984D01*
X9663039Y-14481984D02*
X9643991Y-14472460D01*
X9643991Y-14472460D02*
X9634467Y-14462936D01*
X9634467Y-14462936D02*
X9624944Y-14443888D01*
X9624944Y-14443888D02*
X9615420Y-14405793D01*
X9615420Y-14405793D02*
X9615420Y-14358174D01*
X9615420Y-14358174D02*
X9624944Y-14320079D01*
X9624944Y-14320079D02*
X9634467Y-14301031D01*
X9634467Y-14301031D02*
X9643991Y-14291508D01*
X9643991Y-14291508D02*
X9663039Y-14281984D01*
X9815420Y-14481984D02*
X9815420Y-14348650D01*
X9815420Y-14367698D02*
X9824944Y-14358174D01*
X9824944Y-14358174D02*
X9843991Y-14348650D01*
X9843991Y-14348650D02*
X9872563Y-14348650D01*
X9872563Y-14348650D02*
X9891610Y-14358174D01*
X9891610Y-14358174D02*
X9901134Y-14377222D01*
X9901134Y-14377222D02*
X9901134Y-14481984D01*
X9901134Y-14377222D02*
X9910658Y-14358174D01*
X9910658Y-14358174D02*
X9929705Y-14348650D01*
X9929705Y-14348650D02*
X9958277Y-14348650D01*
X9958277Y-14348650D02*
X9977325Y-14358174D01*
X9977325Y-14358174D02*
X9986848Y-14377222D01*
X9986848Y-14377222D02*
X9986848Y-14481984D01*
X10082086Y-14481984D02*
X10082086Y-14348650D01*
X10082086Y-14367698D02*
X10091610Y-14358174D01*
X10091610Y-14358174D02*
X10110658Y-14348650D01*
X10110658Y-14348650D02*
X10139229Y-14348650D01*
X10139229Y-14348650D02*
X10158277Y-14358174D01*
X10158277Y-14358174D02*
X10167801Y-14377222D01*
X10167801Y-14377222D02*
X10167801Y-14481984D01*
X10167801Y-14377222D02*
X10177325Y-14358174D01*
X10177325Y-14358174D02*
X10196372Y-14348650D01*
X10196372Y-14348650D02*
X10224944Y-14348650D01*
X10224944Y-14348650D02*
X10243991Y-14358174D01*
X10243991Y-14358174D02*
X10253515Y-14377222D01*
X10253515Y-14377222D02*
X10253515Y-14481984D01*
X10643991Y-14272460D02*
X10472563Y-14529603D01*
X10901134Y-14281984D02*
X10920182Y-14281984D01*
X10920182Y-14281984D02*
X10939229Y-14291508D01*
X10939229Y-14291508D02*
X10948753Y-14301031D01*
X10948753Y-14301031D02*
X10958277Y-14320079D01*
X10958277Y-14320079D02*
X10967801Y-14358174D01*
X10967801Y-14358174D02*
X10967801Y-14405793D01*
X10967801Y-14405793D02*
X10958277Y-14443888D01*
X10958277Y-14443888D02*
X10948753Y-14462936D01*
X10948753Y-14462936D02*
X10939229Y-14472460D01*
X10939229Y-14472460D02*
X10920182Y-14481984D01*
X10920182Y-14481984D02*
X10901134Y-14481984D01*
X10901134Y-14481984D02*
X10882087Y-14472460D01*
X10882087Y-14472460D02*
X10872563Y-14462936D01*
X10872563Y-14462936D02*
X10863039Y-14443888D01*
X10863039Y-14443888D02*
X10853515Y-14405793D01*
X10853515Y-14405793D02*
X10853515Y-14358174D01*
X10853515Y-14358174D02*
X10863039Y-14320079D01*
X10863039Y-14320079D02*
X10872563Y-14301031D01*
X10872563Y-14301031D02*
X10882087Y-14291508D01*
X10882087Y-14291508D02*
X10901134Y-14281984D01*
X11053515Y-14462936D02*
X11063039Y-14472460D01*
X11063039Y-14472460D02*
X11053515Y-14481984D01*
X11053515Y-14481984D02*
X11043991Y-14472460D01*
X11043991Y-14472460D02*
X11053515Y-14462936D01*
X11053515Y-14462936D02*
X11053515Y-14481984D01*
X11186848Y-14281984D02*
X11205896Y-14281984D01*
X11205896Y-14281984D02*
X11224944Y-14291508D01*
X11224944Y-14291508D02*
X11234467Y-14301031D01*
X11234467Y-14301031D02*
X11243991Y-14320079D01*
X11243991Y-14320079D02*
X11253515Y-14358174D01*
X11253515Y-14358174D02*
X11253515Y-14405793D01*
X11253515Y-14405793D02*
X11243991Y-14443888D01*
X11243991Y-14443888D02*
X11234467Y-14462936D01*
X11234467Y-14462936D02*
X11224944Y-14472460D01*
X11224944Y-14472460D02*
X11205896Y-14481984D01*
X11205896Y-14481984D02*
X11186848Y-14481984D01*
X11186848Y-14481984D02*
X11167801Y-14472460D01*
X11167801Y-14472460D02*
X11158277Y-14462936D01*
X11158277Y-14462936D02*
X11148753Y-14443888D01*
X11148753Y-14443888D02*
X11139229Y-14405793D01*
X11139229Y-14405793D02*
X11139229Y-14358174D01*
X11139229Y-14358174D02*
X11148753Y-14320079D01*
X11148753Y-14320079D02*
X11158277Y-14301031D01*
X11158277Y-14301031D02*
X11167801Y-14291508D01*
X11167801Y-14291508D02*
X11186848Y-14281984D01*
X11320182Y-14281984D02*
X11443991Y-14281984D01*
X11443991Y-14281984D02*
X11377325Y-14358174D01*
X11377325Y-14358174D02*
X11405896Y-14358174D01*
X11405896Y-14358174D02*
X11424944Y-14367698D01*
X11424944Y-14367698D02*
X11434467Y-14377222D01*
X11434467Y-14377222D02*
X11443991Y-14396269D01*
X11443991Y-14396269D02*
X11443991Y-14443888D01*
X11443991Y-14443888D02*
X11434467Y-14462936D01*
X11434467Y-14462936D02*
X11424944Y-14472460D01*
X11424944Y-14472460D02*
X11405896Y-14481984D01*
X11405896Y-14481984D02*
X11348753Y-14481984D01*
X11348753Y-14481984D02*
X11329706Y-14472460D01*
X11329706Y-14472460D02*
X11320182Y-14462936D01*
X11624944Y-14281984D02*
X11529706Y-14281984D01*
X11529706Y-14281984D02*
X11520182Y-14377222D01*
X11520182Y-14377222D02*
X11529706Y-14367698D01*
X11529706Y-14367698D02*
X11548753Y-14358174D01*
X11548753Y-14358174D02*
X11596372Y-14358174D01*
X11596372Y-14358174D02*
X11615420Y-14367698D01*
X11615420Y-14367698D02*
X11624944Y-14377222D01*
X11624944Y-14377222D02*
X11634467Y-14396269D01*
X11634467Y-14396269D02*
X11634467Y-14443888D01*
X11634467Y-14443888D02*
X11624944Y-14462936D01*
X11624944Y-14462936D02*
X11615420Y-14472460D01*
X11615420Y-14472460D02*
X11596372Y-14481984D01*
X11596372Y-14481984D02*
X11548753Y-14481984D01*
X11548753Y-14481984D02*
X11529706Y-14472460D01*
X11529706Y-14472460D02*
X11520182Y-14462936D01*
X11805896Y-14348650D02*
X11805896Y-14481984D01*
X11758277Y-14272460D02*
X11710658Y-14415317D01*
X11710658Y-14415317D02*
X11834467Y-14415317D01*
X11901134Y-14281984D02*
X11901134Y-14320079D01*
X11977325Y-14281984D02*
X11977325Y-14320079D01*
X12272563Y-14558174D02*
X12263039Y-14548650D01*
X12263039Y-14548650D02*
X12243991Y-14520079D01*
X12243991Y-14520079D02*
X12234468Y-14501031D01*
X12234468Y-14501031D02*
X12224944Y-14472460D01*
X12224944Y-14472460D02*
X12215420Y-14424841D01*
X12215420Y-14424841D02*
X12215420Y-14386746D01*
X12215420Y-14386746D02*
X12224944Y-14339127D01*
X12224944Y-14339127D02*
X12234468Y-14310555D01*
X12234468Y-14310555D02*
X12243991Y-14291508D01*
X12243991Y-14291508D02*
X12263039Y-14262936D01*
X12263039Y-14262936D02*
X12272563Y-14253412D01*
X12377325Y-14367698D02*
X12358277Y-14358174D01*
X12358277Y-14358174D02*
X12348753Y-14348650D01*
X12348753Y-14348650D02*
X12339229Y-14329603D01*
X12339229Y-14329603D02*
X12339229Y-14320079D01*
X12339229Y-14320079D02*
X12348753Y-14301031D01*
X12348753Y-14301031D02*
X12358277Y-14291508D01*
X12358277Y-14291508D02*
X12377325Y-14281984D01*
X12377325Y-14281984D02*
X12415420Y-14281984D01*
X12415420Y-14281984D02*
X12434468Y-14291508D01*
X12434468Y-14291508D02*
X12443991Y-14301031D01*
X12443991Y-14301031D02*
X12453515Y-14320079D01*
X12453515Y-14320079D02*
X12453515Y-14329603D01*
X12453515Y-14329603D02*
X12443991Y-14348650D01*
X12443991Y-14348650D02*
X12434468Y-14358174D01*
X12434468Y-14358174D02*
X12415420Y-14367698D01*
X12415420Y-14367698D02*
X12377325Y-14367698D01*
X12377325Y-14367698D02*
X12358277Y-14377222D01*
X12358277Y-14377222D02*
X12348753Y-14386746D01*
X12348753Y-14386746D02*
X12339229Y-14405793D01*
X12339229Y-14405793D02*
X12339229Y-14443888D01*
X12339229Y-14443888D02*
X12348753Y-14462936D01*
X12348753Y-14462936D02*
X12358277Y-14472460D01*
X12358277Y-14472460D02*
X12377325Y-14481984D01*
X12377325Y-14481984D02*
X12415420Y-14481984D01*
X12415420Y-14481984D02*
X12434468Y-14472460D01*
X12434468Y-14472460D02*
X12443991Y-14462936D01*
X12443991Y-14462936D02*
X12453515Y-14443888D01*
X12453515Y-14443888D02*
X12453515Y-14405793D01*
X12453515Y-14405793D02*
X12443991Y-14386746D01*
X12443991Y-14386746D02*
X12434468Y-14377222D01*
X12434468Y-14377222D02*
X12415420Y-14367698D01*
X12691610Y-14481984D02*
X12691610Y-14281984D01*
X12777325Y-14481984D02*
X12777325Y-14377222D01*
X12777325Y-14377222D02*
X12767801Y-14358174D01*
X12767801Y-14358174D02*
X12748753Y-14348650D01*
X12748753Y-14348650D02*
X12720182Y-14348650D01*
X12720182Y-14348650D02*
X12701134Y-14358174D01*
X12701134Y-14358174D02*
X12691610Y-14367698D01*
X12901134Y-14481984D02*
X12882087Y-14472460D01*
X12882087Y-14472460D02*
X12872563Y-14462936D01*
X12872563Y-14462936D02*
X12863039Y-14443888D01*
X12863039Y-14443888D02*
X12863039Y-14386746D01*
X12863039Y-14386746D02*
X12872563Y-14367698D01*
X12872563Y-14367698D02*
X12882087Y-14358174D01*
X12882087Y-14358174D02*
X12901134Y-14348650D01*
X12901134Y-14348650D02*
X12929706Y-14348650D01*
X12929706Y-14348650D02*
X12948753Y-14358174D01*
X12948753Y-14358174D02*
X12958277Y-14367698D01*
X12958277Y-14367698D02*
X12967801Y-14386746D01*
X12967801Y-14386746D02*
X12967801Y-14443888D01*
X12967801Y-14443888D02*
X12958277Y-14462936D01*
X12958277Y-14462936D02*
X12948753Y-14472460D01*
X12948753Y-14472460D02*
X12929706Y-14481984D01*
X12929706Y-14481984D02*
X12901134Y-14481984D01*
X13082087Y-14481984D02*
X13063039Y-14472460D01*
X13063039Y-14472460D02*
X13053515Y-14453412D01*
X13053515Y-14453412D02*
X13053515Y-14281984D01*
X13234468Y-14472460D02*
X13215420Y-14481984D01*
X13215420Y-14481984D02*
X13177325Y-14481984D01*
X13177325Y-14481984D02*
X13158277Y-14472460D01*
X13158277Y-14472460D02*
X13148753Y-14453412D01*
X13148753Y-14453412D02*
X13148753Y-14377222D01*
X13148753Y-14377222D02*
X13158277Y-14358174D01*
X13158277Y-14358174D02*
X13177325Y-14348650D01*
X13177325Y-14348650D02*
X13215420Y-14348650D01*
X13215420Y-14348650D02*
X13234468Y-14358174D01*
X13234468Y-14358174D02*
X13243991Y-14377222D01*
X13243991Y-14377222D02*
X13243991Y-14396269D01*
X13243991Y-14396269D02*
X13148753Y-14415317D01*
X13320182Y-14472460D02*
X13339230Y-14481984D01*
X13339230Y-14481984D02*
X13377325Y-14481984D01*
X13377325Y-14481984D02*
X13396372Y-14472460D01*
X13396372Y-14472460D02*
X13405896Y-14453412D01*
X13405896Y-14453412D02*
X13405896Y-14443888D01*
X13405896Y-14443888D02*
X13396372Y-14424841D01*
X13396372Y-14424841D02*
X13377325Y-14415317D01*
X13377325Y-14415317D02*
X13348753Y-14415317D01*
X13348753Y-14415317D02*
X13329706Y-14405793D01*
X13329706Y-14405793D02*
X13320182Y-14386746D01*
X13320182Y-14386746D02*
X13320182Y-14377222D01*
X13320182Y-14377222D02*
X13329706Y-14358174D01*
X13329706Y-14358174D02*
X13348753Y-14348650D01*
X13348753Y-14348650D02*
X13377325Y-14348650D01*
X13377325Y-14348650D02*
X13396372Y-14358174D01*
X13472563Y-14558174D02*
X13482087Y-14548650D01*
X13482087Y-14548650D02*
X13501134Y-14520079D01*
X13501134Y-14520079D02*
X13510658Y-14501031D01*
X13510658Y-14501031D02*
X13520182Y-14472460D01*
X13520182Y-14472460D02*
X13529706Y-14424841D01*
X13529706Y-14424841D02*
X13529706Y-14386746D01*
X13529706Y-14386746D02*
X13520182Y-14339127D01*
X13520182Y-14339127D02*
X13510658Y-14310555D01*
X13510658Y-14310555D02*
X13501134Y-14291508D01*
X13501134Y-14291508D02*
X13482087Y-14262936D01*
X13482087Y-14262936D02*
X13472563Y-14253412D01*
D12*
X8597500Y-14604500D02*
X8697500Y-14704500D01*
X8697500Y-14604500D02*
X8597500Y-14704500D01*
X8647500Y-14704500D02*
X8697500Y-14654500D01*
X8647500Y-14604500D01*
X8597500Y-14654500D01*
X8647500Y-14704500D01*
D11*
X9063039Y-14745984D02*
X8948753Y-14745984D01*
X9005896Y-14745984D02*
X9005896Y-14545984D01*
X9005896Y-14545984D02*
X8986848Y-14574555D01*
X8986848Y-14574555D02*
X8967801Y-14593603D01*
X8967801Y-14593603D02*
X8948753Y-14603127D01*
X9148753Y-14726936D02*
X9158277Y-14736460D01*
X9158277Y-14736460D02*
X9148753Y-14745984D01*
X9148753Y-14745984D02*
X9139229Y-14736460D01*
X9139229Y-14736460D02*
X9148753Y-14726936D01*
X9148753Y-14726936D02*
X9148753Y-14745984D01*
X9282086Y-14545984D02*
X9301134Y-14545984D01*
X9301134Y-14545984D02*
X9320182Y-14555508D01*
X9320182Y-14555508D02*
X9329705Y-14565031D01*
X9329705Y-14565031D02*
X9339229Y-14584079D01*
X9339229Y-14584079D02*
X9348753Y-14622174D01*
X9348753Y-14622174D02*
X9348753Y-14669793D01*
X9348753Y-14669793D02*
X9339229Y-14707888D01*
X9339229Y-14707888D02*
X9329705Y-14726936D01*
X9329705Y-14726936D02*
X9320182Y-14736460D01*
X9320182Y-14736460D02*
X9301134Y-14745984D01*
X9301134Y-14745984D02*
X9282086Y-14745984D01*
X9282086Y-14745984D02*
X9263039Y-14736460D01*
X9263039Y-14736460D02*
X9253515Y-14726936D01*
X9253515Y-14726936D02*
X9243991Y-14707888D01*
X9243991Y-14707888D02*
X9234467Y-14669793D01*
X9234467Y-14669793D02*
X9234467Y-14622174D01*
X9234467Y-14622174D02*
X9243991Y-14584079D01*
X9243991Y-14584079D02*
X9253515Y-14565031D01*
X9253515Y-14565031D02*
X9263039Y-14555508D01*
X9263039Y-14555508D02*
X9282086Y-14545984D01*
X9472563Y-14545984D02*
X9491610Y-14545984D01*
X9491610Y-14545984D02*
X9510658Y-14555508D01*
X9510658Y-14555508D02*
X9520182Y-14565031D01*
X9520182Y-14565031D02*
X9529705Y-14584079D01*
X9529705Y-14584079D02*
X9539229Y-14622174D01*
X9539229Y-14622174D02*
X9539229Y-14669793D01*
X9539229Y-14669793D02*
X9529705Y-14707888D01*
X9529705Y-14707888D02*
X9520182Y-14726936D01*
X9520182Y-14726936D02*
X9510658Y-14736460D01*
X9510658Y-14736460D02*
X9491610Y-14745984D01*
X9491610Y-14745984D02*
X9472563Y-14745984D01*
X9472563Y-14745984D02*
X9453515Y-14736460D01*
X9453515Y-14736460D02*
X9443991Y-14726936D01*
X9443991Y-14726936D02*
X9434467Y-14707888D01*
X9434467Y-14707888D02*
X9424944Y-14669793D01*
X9424944Y-14669793D02*
X9424944Y-14622174D01*
X9424944Y-14622174D02*
X9434467Y-14584079D01*
X9434467Y-14584079D02*
X9443991Y-14565031D01*
X9443991Y-14565031D02*
X9453515Y-14555508D01*
X9453515Y-14555508D02*
X9472563Y-14545984D01*
X9663039Y-14545984D02*
X9682086Y-14545984D01*
X9682086Y-14545984D02*
X9701134Y-14555508D01*
X9701134Y-14555508D02*
X9710658Y-14565031D01*
X9710658Y-14565031D02*
X9720182Y-14584079D01*
X9720182Y-14584079D02*
X9729705Y-14622174D01*
X9729705Y-14622174D02*
X9729705Y-14669793D01*
X9729705Y-14669793D02*
X9720182Y-14707888D01*
X9720182Y-14707888D02*
X9710658Y-14726936D01*
X9710658Y-14726936D02*
X9701134Y-14736460D01*
X9701134Y-14736460D02*
X9682086Y-14745984D01*
X9682086Y-14745984D02*
X9663039Y-14745984D01*
X9663039Y-14745984D02*
X9643991Y-14736460D01*
X9643991Y-14736460D02*
X9634467Y-14726936D01*
X9634467Y-14726936D02*
X9624944Y-14707888D01*
X9624944Y-14707888D02*
X9615420Y-14669793D01*
X9615420Y-14669793D02*
X9615420Y-14622174D01*
X9615420Y-14622174D02*
X9624944Y-14584079D01*
X9624944Y-14584079D02*
X9634467Y-14565031D01*
X9634467Y-14565031D02*
X9643991Y-14555508D01*
X9643991Y-14555508D02*
X9663039Y-14545984D01*
X9815420Y-14745984D02*
X9815420Y-14612650D01*
X9815420Y-14631698D02*
X9824944Y-14622174D01*
X9824944Y-14622174D02*
X9843991Y-14612650D01*
X9843991Y-14612650D02*
X9872563Y-14612650D01*
X9872563Y-14612650D02*
X9891610Y-14622174D01*
X9891610Y-14622174D02*
X9901134Y-14641222D01*
X9901134Y-14641222D02*
X9901134Y-14745984D01*
X9901134Y-14641222D02*
X9910658Y-14622174D01*
X9910658Y-14622174D02*
X9929705Y-14612650D01*
X9929705Y-14612650D02*
X9958277Y-14612650D01*
X9958277Y-14612650D02*
X9977325Y-14622174D01*
X9977325Y-14622174D02*
X9986848Y-14641222D01*
X9986848Y-14641222D02*
X9986848Y-14745984D01*
X10082086Y-14745984D02*
X10082086Y-14612650D01*
X10082086Y-14631698D02*
X10091610Y-14622174D01*
X10091610Y-14622174D02*
X10110658Y-14612650D01*
X10110658Y-14612650D02*
X10139229Y-14612650D01*
X10139229Y-14612650D02*
X10158277Y-14622174D01*
X10158277Y-14622174D02*
X10167801Y-14641222D01*
X10167801Y-14641222D02*
X10167801Y-14745984D01*
X10167801Y-14641222D02*
X10177325Y-14622174D01*
X10177325Y-14622174D02*
X10196372Y-14612650D01*
X10196372Y-14612650D02*
X10224944Y-14612650D01*
X10224944Y-14612650D02*
X10243991Y-14622174D01*
X10243991Y-14622174D02*
X10253515Y-14641222D01*
X10253515Y-14641222D02*
X10253515Y-14745984D01*
X10643991Y-14536460D02*
X10472563Y-14793603D01*
X10901134Y-14545984D02*
X10920182Y-14545984D01*
X10920182Y-14545984D02*
X10939229Y-14555508D01*
X10939229Y-14555508D02*
X10948753Y-14565031D01*
X10948753Y-14565031D02*
X10958277Y-14584079D01*
X10958277Y-14584079D02*
X10967801Y-14622174D01*
X10967801Y-14622174D02*
X10967801Y-14669793D01*
X10967801Y-14669793D02*
X10958277Y-14707888D01*
X10958277Y-14707888D02*
X10948753Y-14726936D01*
X10948753Y-14726936D02*
X10939229Y-14736460D01*
X10939229Y-14736460D02*
X10920182Y-14745984D01*
X10920182Y-14745984D02*
X10901134Y-14745984D01*
X10901134Y-14745984D02*
X10882087Y-14736460D01*
X10882087Y-14736460D02*
X10872563Y-14726936D01*
X10872563Y-14726936D02*
X10863039Y-14707888D01*
X10863039Y-14707888D02*
X10853515Y-14669793D01*
X10853515Y-14669793D02*
X10853515Y-14622174D01*
X10853515Y-14622174D02*
X10863039Y-14584079D01*
X10863039Y-14584079D02*
X10872563Y-14565031D01*
X10872563Y-14565031D02*
X10882087Y-14555508D01*
X10882087Y-14555508D02*
X10901134Y-14545984D01*
X11053515Y-14726936D02*
X11063039Y-14736460D01*
X11063039Y-14736460D02*
X11053515Y-14745984D01*
X11053515Y-14745984D02*
X11043991Y-14736460D01*
X11043991Y-14736460D02*
X11053515Y-14726936D01*
X11053515Y-14726936D02*
X11053515Y-14745984D01*
X11186848Y-14545984D02*
X11205896Y-14545984D01*
X11205896Y-14545984D02*
X11224944Y-14555508D01*
X11224944Y-14555508D02*
X11234467Y-14565031D01*
X11234467Y-14565031D02*
X11243991Y-14584079D01*
X11243991Y-14584079D02*
X11253515Y-14622174D01*
X11253515Y-14622174D02*
X11253515Y-14669793D01*
X11253515Y-14669793D02*
X11243991Y-14707888D01*
X11243991Y-14707888D02*
X11234467Y-14726936D01*
X11234467Y-14726936D02*
X11224944Y-14736460D01*
X11224944Y-14736460D02*
X11205896Y-14745984D01*
X11205896Y-14745984D02*
X11186848Y-14745984D01*
X11186848Y-14745984D02*
X11167801Y-14736460D01*
X11167801Y-14736460D02*
X11158277Y-14726936D01*
X11158277Y-14726936D02*
X11148753Y-14707888D01*
X11148753Y-14707888D02*
X11139229Y-14669793D01*
X11139229Y-14669793D02*
X11139229Y-14622174D01*
X11139229Y-14622174D02*
X11148753Y-14584079D01*
X11148753Y-14584079D02*
X11158277Y-14565031D01*
X11158277Y-14565031D02*
X11167801Y-14555508D01*
X11167801Y-14555508D02*
X11186848Y-14545984D01*
X11320182Y-14545984D02*
X11443991Y-14545984D01*
X11443991Y-14545984D02*
X11377325Y-14622174D01*
X11377325Y-14622174D02*
X11405896Y-14622174D01*
X11405896Y-14622174D02*
X11424944Y-14631698D01*
X11424944Y-14631698D02*
X11434467Y-14641222D01*
X11434467Y-14641222D02*
X11443991Y-14660269D01*
X11443991Y-14660269D02*
X11443991Y-14707888D01*
X11443991Y-14707888D02*
X11434467Y-14726936D01*
X11434467Y-14726936D02*
X11424944Y-14736460D01*
X11424944Y-14736460D02*
X11405896Y-14745984D01*
X11405896Y-14745984D02*
X11348753Y-14745984D01*
X11348753Y-14745984D02*
X11329706Y-14736460D01*
X11329706Y-14736460D02*
X11320182Y-14726936D01*
X11539229Y-14745984D02*
X11577325Y-14745984D01*
X11577325Y-14745984D02*
X11596372Y-14736460D01*
X11596372Y-14736460D02*
X11605896Y-14726936D01*
X11605896Y-14726936D02*
X11624944Y-14698365D01*
X11624944Y-14698365D02*
X11634467Y-14660269D01*
X11634467Y-14660269D02*
X11634467Y-14584079D01*
X11634467Y-14584079D02*
X11624944Y-14565031D01*
X11624944Y-14565031D02*
X11615420Y-14555508D01*
X11615420Y-14555508D02*
X11596372Y-14545984D01*
X11596372Y-14545984D02*
X11558277Y-14545984D01*
X11558277Y-14545984D02*
X11539229Y-14555508D01*
X11539229Y-14555508D02*
X11529706Y-14565031D01*
X11529706Y-14565031D02*
X11520182Y-14584079D01*
X11520182Y-14584079D02*
X11520182Y-14631698D01*
X11520182Y-14631698D02*
X11529706Y-14650746D01*
X11529706Y-14650746D02*
X11539229Y-14660269D01*
X11539229Y-14660269D02*
X11558277Y-14669793D01*
X11558277Y-14669793D02*
X11596372Y-14669793D01*
X11596372Y-14669793D02*
X11615420Y-14660269D01*
X11615420Y-14660269D02*
X11624944Y-14650746D01*
X11624944Y-14650746D02*
X11634467Y-14631698D01*
X11805896Y-14612650D02*
X11805896Y-14745984D01*
X11758277Y-14536460D02*
X11710658Y-14679317D01*
X11710658Y-14679317D02*
X11834467Y-14679317D01*
X11901134Y-14545984D02*
X11901134Y-14584079D01*
X11977325Y-14545984D02*
X11977325Y-14584079D01*
X12272563Y-14822174D02*
X12263039Y-14812650D01*
X12263039Y-14812650D02*
X12243991Y-14784079D01*
X12243991Y-14784079D02*
X12234468Y-14765031D01*
X12234468Y-14765031D02*
X12224944Y-14736460D01*
X12224944Y-14736460D02*
X12215420Y-14688841D01*
X12215420Y-14688841D02*
X12215420Y-14650746D01*
X12215420Y-14650746D02*
X12224944Y-14603127D01*
X12224944Y-14603127D02*
X12234468Y-14574555D01*
X12234468Y-14574555D02*
X12243991Y-14555508D01*
X12243991Y-14555508D02*
X12263039Y-14526936D01*
X12263039Y-14526936D02*
X12272563Y-14517412D01*
X12329706Y-14545984D02*
X12453515Y-14545984D01*
X12453515Y-14545984D02*
X12386848Y-14622174D01*
X12386848Y-14622174D02*
X12415420Y-14622174D01*
X12415420Y-14622174D02*
X12434468Y-14631698D01*
X12434468Y-14631698D02*
X12443991Y-14641222D01*
X12443991Y-14641222D02*
X12453515Y-14660269D01*
X12453515Y-14660269D02*
X12453515Y-14707888D01*
X12453515Y-14707888D02*
X12443991Y-14726936D01*
X12443991Y-14726936D02*
X12434468Y-14736460D01*
X12434468Y-14736460D02*
X12415420Y-14745984D01*
X12415420Y-14745984D02*
X12358277Y-14745984D01*
X12358277Y-14745984D02*
X12339229Y-14736460D01*
X12339229Y-14736460D02*
X12329706Y-14726936D01*
X12577325Y-14545984D02*
X12596372Y-14545984D01*
X12596372Y-14545984D02*
X12615420Y-14555508D01*
X12615420Y-14555508D02*
X12624944Y-14565031D01*
X12624944Y-14565031D02*
X12634468Y-14584079D01*
X12634468Y-14584079D02*
X12643991Y-14622174D01*
X12643991Y-14622174D02*
X12643991Y-14669793D01*
X12643991Y-14669793D02*
X12634468Y-14707888D01*
X12634468Y-14707888D02*
X12624944Y-14726936D01*
X12624944Y-14726936D02*
X12615420Y-14736460D01*
X12615420Y-14736460D02*
X12596372Y-14745984D01*
X12596372Y-14745984D02*
X12577325Y-14745984D01*
X12577325Y-14745984D02*
X12558277Y-14736460D01*
X12558277Y-14736460D02*
X12548753Y-14726936D01*
X12548753Y-14726936D02*
X12539229Y-14707888D01*
X12539229Y-14707888D02*
X12529706Y-14669793D01*
X12529706Y-14669793D02*
X12529706Y-14622174D01*
X12529706Y-14622174D02*
X12539229Y-14584079D01*
X12539229Y-14584079D02*
X12548753Y-14565031D01*
X12548753Y-14565031D02*
X12558277Y-14555508D01*
X12558277Y-14555508D02*
X12577325Y-14545984D01*
X12882087Y-14745984D02*
X12882087Y-14545984D01*
X12967801Y-14745984D02*
X12967801Y-14641222D01*
X12967801Y-14641222D02*
X12958277Y-14622174D01*
X12958277Y-14622174D02*
X12939230Y-14612650D01*
X12939230Y-14612650D02*
X12910658Y-14612650D01*
X12910658Y-14612650D02*
X12891610Y-14622174D01*
X12891610Y-14622174D02*
X12882087Y-14631698D01*
X13091610Y-14745984D02*
X13072563Y-14736460D01*
X13072563Y-14736460D02*
X13063039Y-14726936D01*
X13063039Y-14726936D02*
X13053515Y-14707888D01*
X13053515Y-14707888D02*
X13053515Y-14650746D01*
X13053515Y-14650746D02*
X13063039Y-14631698D01*
X13063039Y-14631698D02*
X13072563Y-14622174D01*
X13072563Y-14622174D02*
X13091610Y-14612650D01*
X13091610Y-14612650D02*
X13120182Y-14612650D01*
X13120182Y-14612650D02*
X13139230Y-14622174D01*
X13139230Y-14622174D02*
X13148753Y-14631698D01*
X13148753Y-14631698D02*
X13158277Y-14650746D01*
X13158277Y-14650746D02*
X13158277Y-14707888D01*
X13158277Y-14707888D02*
X13148753Y-14726936D01*
X13148753Y-14726936D02*
X13139230Y-14736460D01*
X13139230Y-14736460D02*
X13120182Y-14745984D01*
X13120182Y-14745984D02*
X13091610Y-14745984D01*
X13272563Y-14745984D02*
X13253515Y-14736460D01*
X13253515Y-14736460D02*
X13243991Y-14717412D01*
X13243991Y-14717412D02*
X13243991Y-14545984D01*
X13424944Y-14736460D02*
X13405896Y-14745984D01*
X13405896Y-14745984D02*
X13367801Y-14745984D01*
X13367801Y-14745984D02*
X13348753Y-14736460D01*
X13348753Y-14736460D02*
X13339230Y-14717412D01*
X13339230Y-14717412D02*
X13339230Y-14641222D01*
X13339230Y-14641222D02*
X13348753Y-14622174D01*
X13348753Y-14622174D02*
X13367801Y-14612650D01*
X13367801Y-14612650D02*
X13405896Y-14612650D01*
X13405896Y-14612650D02*
X13424944Y-14622174D01*
X13424944Y-14622174D02*
X13434468Y-14641222D01*
X13434468Y-14641222D02*
X13434468Y-14660269D01*
X13434468Y-14660269D02*
X13339230Y-14679317D01*
X13510658Y-14736460D02*
X13529706Y-14745984D01*
X13529706Y-14745984D02*
X13567801Y-14745984D01*
X13567801Y-14745984D02*
X13586849Y-14736460D01*
X13586849Y-14736460D02*
X13596372Y-14717412D01*
X13596372Y-14717412D02*
X13596372Y-14707888D01*
X13596372Y-14707888D02*
X13586849Y-14688841D01*
X13586849Y-14688841D02*
X13567801Y-14679317D01*
X13567801Y-14679317D02*
X13539230Y-14679317D01*
X13539230Y-14679317D02*
X13520182Y-14669793D01*
X13520182Y-14669793D02*
X13510658Y-14650746D01*
X13510658Y-14650746D02*
X13510658Y-14641222D01*
X13510658Y-14641222D02*
X13520182Y-14622174D01*
X13520182Y-14622174D02*
X13539230Y-14612650D01*
X13539230Y-14612650D02*
X13567801Y-14612650D01*
X13567801Y-14612650D02*
X13586849Y-14622174D01*
X13663039Y-14822174D02*
X13672563Y-14812650D01*
X13672563Y-14812650D02*
X13691611Y-14784079D01*
X13691611Y-14784079D02*
X13701134Y-14765031D01*
X13701134Y-14765031D02*
X13710658Y-14736460D01*
X13710658Y-14736460D02*
X13720182Y-14688841D01*
X13720182Y-14688841D02*
X13720182Y-14650746D01*
X13720182Y-14650746D02*
X13710658Y-14603127D01*
X13710658Y-14603127D02*
X13701134Y-14574555D01*
X13701134Y-14574555D02*
X13691611Y-14555508D01*
X13691611Y-14555508D02*
X13672563Y-14526936D01*
X13672563Y-14526936D02*
X13663039Y-14517412D01*
D13*
X8646500Y-14867500D02*
X8646500Y-14969500D01*
X8595500Y-14918500D02*
X8697500Y-14918500D01*
X8697500Y-14918500D02*
G75*
G02*
X8595500Y-14918500I-51000J0D01*
G01*
X8595500Y-14918500D02*
G75*
G02*
X8697500Y-14918500I51000J0D01*
G01*
D11*
X9063039Y-15009984D02*
X8948753Y-15009984D01*
X9005896Y-15009984D02*
X9005896Y-14809984D01*
X9005896Y-14809984D02*
X8986848Y-14838555D01*
X8986848Y-14838555D02*
X8967801Y-14857603D01*
X8967801Y-14857603D02*
X8948753Y-14867127D01*
X9148753Y-14990936D02*
X9158277Y-15000460D01*
X9158277Y-15000460D02*
X9148753Y-15009984D01*
X9148753Y-15009984D02*
X9139229Y-15000460D01*
X9139229Y-15000460D02*
X9148753Y-14990936D01*
X9148753Y-14990936D02*
X9148753Y-15009984D01*
X9282086Y-14809984D02*
X9301134Y-14809984D01*
X9301134Y-14809984D02*
X9320182Y-14819508D01*
X9320182Y-14819508D02*
X9329705Y-14829031D01*
X9329705Y-14829031D02*
X9339229Y-14848079D01*
X9339229Y-14848079D02*
X9348753Y-14886174D01*
X9348753Y-14886174D02*
X9348753Y-14933793D01*
X9348753Y-14933793D02*
X9339229Y-14971888D01*
X9339229Y-14971888D02*
X9329705Y-14990936D01*
X9329705Y-14990936D02*
X9320182Y-15000460D01*
X9320182Y-15000460D02*
X9301134Y-15009984D01*
X9301134Y-15009984D02*
X9282086Y-15009984D01*
X9282086Y-15009984D02*
X9263039Y-15000460D01*
X9263039Y-15000460D02*
X9253515Y-14990936D01*
X9253515Y-14990936D02*
X9243991Y-14971888D01*
X9243991Y-14971888D02*
X9234467Y-14933793D01*
X9234467Y-14933793D02*
X9234467Y-14886174D01*
X9234467Y-14886174D02*
X9243991Y-14848079D01*
X9243991Y-14848079D02*
X9253515Y-14829031D01*
X9253515Y-14829031D02*
X9263039Y-14819508D01*
X9263039Y-14819508D02*
X9282086Y-14809984D01*
X9424944Y-14829031D02*
X9434467Y-14819508D01*
X9434467Y-14819508D02*
X9453515Y-14809984D01*
X9453515Y-14809984D02*
X9501134Y-14809984D01*
X9501134Y-14809984D02*
X9520182Y-14819508D01*
X9520182Y-14819508D02*
X9529705Y-14829031D01*
X9529705Y-14829031D02*
X9539229Y-14848079D01*
X9539229Y-14848079D02*
X9539229Y-14867127D01*
X9539229Y-14867127D02*
X9529705Y-14895698D01*
X9529705Y-14895698D02*
X9415420Y-15009984D01*
X9415420Y-15009984D02*
X9539229Y-15009984D01*
X9663039Y-14809984D02*
X9682086Y-14809984D01*
X9682086Y-14809984D02*
X9701134Y-14819508D01*
X9701134Y-14819508D02*
X9710658Y-14829031D01*
X9710658Y-14829031D02*
X9720182Y-14848079D01*
X9720182Y-14848079D02*
X9729705Y-14886174D01*
X9729705Y-14886174D02*
X9729705Y-14933793D01*
X9729705Y-14933793D02*
X9720182Y-14971888D01*
X9720182Y-14971888D02*
X9710658Y-14990936D01*
X9710658Y-14990936D02*
X9701134Y-15000460D01*
X9701134Y-15000460D02*
X9682086Y-15009984D01*
X9682086Y-15009984D02*
X9663039Y-15009984D01*
X9663039Y-15009984D02*
X9643991Y-15000460D01*
X9643991Y-15000460D02*
X9634467Y-14990936D01*
X9634467Y-14990936D02*
X9624944Y-14971888D01*
X9624944Y-14971888D02*
X9615420Y-14933793D01*
X9615420Y-14933793D02*
X9615420Y-14886174D01*
X9615420Y-14886174D02*
X9624944Y-14848079D01*
X9624944Y-14848079D02*
X9634467Y-14829031D01*
X9634467Y-14829031D02*
X9643991Y-14819508D01*
X9643991Y-14819508D02*
X9663039Y-14809984D01*
X9815420Y-15009984D02*
X9815420Y-14876650D01*
X9815420Y-14895698D02*
X9824944Y-14886174D01*
X9824944Y-14886174D02*
X9843991Y-14876650D01*
X9843991Y-14876650D02*
X9872563Y-14876650D01*
X9872563Y-14876650D02*
X9891610Y-14886174D01*
X9891610Y-14886174D02*
X9901134Y-14905222D01*
X9901134Y-14905222D02*
X9901134Y-15009984D01*
X9901134Y-14905222D02*
X9910658Y-14886174D01*
X9910658Y-14886174D02*
X9929705Y-14876650D01*
X9929705Y-14876650D02*
X9958277Y-14876650D01*
X9958277Y-14876650D02*
X9977325Y-14886174D01*
X9977325Y-14886174D02*
X9986848Y-14905222D01*
X9986848Y-14905222D02*
X9986848Y-15009984D01*
X10082086Y-15009984D02*
X10082086Y-14876650D01*
X10082086Y-14895698D02*
X10091610Y-14886174D01*
X10091610Y-14886174D02*
X10110658Y-14876650D01*
X10110658Y-14876650D02*
X10139229Y-14876650D01*
X10139229Y-14876650D02*
X10158277Y-14886174D01*
X10158277Y-14886174D02*
X10167801Y-14905222D01*
X10167801Y-14905222D02*
X10167801Y-15009984D01*
X10167801Y-14905222D02*
X10177325Y-14886174D01*
X10177325Y-14886174D02*
X10196372Y-14876650D01*
X10196372Y-14876650D02*
X10224944Y-14876650D01*
X10224944Y-14876650D02*
X10243991Y-14886174D01*
X10243991Y-14886174D02*
X10253515Y-14905222D01*
X10253515Y-14905222D02*
X10253515Y-15009984D01*
X10643991Y-14800460D02*
X10472563Y-15057603D01*
X10901134Y-14809984D02*
X10920182Y-14809984D01*
X10920182Y-14809984D02*
X10939229Y-14819508D01*
X10939229Y-14819508D02*
X10948753Y-14829031D01*
X10948753Y-14829031D02*
X10958277Y-14848079D01*
X10958277Y-14848079D02*
X10967801Y-14886174D01*
X10967801Y-14886174D02*
X10967801Y-14933793D01*
X10967801Y-14933793D02*
X10958277Y-14971888D01*
X10958277Y-14971888D02*
X10948753Y-14990936D01*
X10948753Y-14990936D02*
X10939229Y-15000460D01*
X10939229Y-15000460D02*
X10920182Y-15009984D01*
X10920182Y-15009984D02*
X10901134Y-15009984D01*
X10901134Y-15009984D02*
X10882087Y-15000460D01*
X10882087Y-15000460D02*
X10872563Y-14990936D01*
X10872563Y-14990936D02*
X10863039Y-14971888D01*
X10863039Y-14971888D02*
X10853515Y-14933793D01*
X10853515Y-14933793D02*
X10853515Y-14886174D01*
X10853515Y-14886174D02*
X10863039Y-14848079D01*
X10863039Y-14848079D02*
X10872563Y-14829031D01*
X10872563Y-14829031D02*
X10882087Y-14819508D01*
X10882087Y-14819508D02*
X10901134Y-14809984D01*
X11053515Y-14990936D02*
X11063039Y-15000460D01*
X11063039Y-15000460D02*
X11053515Y-15009984D01*
X11053515Y-15009984D02*
X11043991Y-15000460D01*
X11043991Y-15000460D02*
X11053515Y-14990936D01*
X11053515Y-14990936D02*
X11053515Y-15009984D01*
X11186848Y-14809984D02*
X11205896Y-14809984D01*
X11205896Y-14809984D02*
X11224944Y-14819508D01*
X11224944Y-14819508D02*
X11234467Y-14829031D01*
X11234467Y-14829031D02*
X11243991Y-14848079D01*
X11243991Y-14848079D02*
X11253515Y-14886174D01*
X11253515Y-14886174D02*
X11253515Y-14933793D01*
X11253515Y-14933793D02*
X11243991Y-14971888D01*
X11243991Y-14971888D02*
X11234467Y-14990936D01*
X11234467Y-14990936D02*
X11224944Y-15000460D01*
X11224944Y-15000460D02*
X11205896Y-15009984D01*
X11205896Y-15009984D02*
X11186848Y-15009984D01*
X11186848Y-15009984D02*
X11167801Y-15000460D01*
X11167801Y-15000460D02*
X11158277Y-14990936D01*
X11158277Y-14990936D02*
X11148753Y-14971888D01*
X11148753Y-14971888D02*
X11139229Y-14933793D01*
X11139229Y-14933793D02*
X11139229Y-14886174D01*
X11139229Y-14886174D02*
X11148753Y-14848079D01*
X11148753Y-14848079D02*
X11158277Y-14829031D01*
X11158277Y-14829031D02*
X11167801Y-14819508D01*
X11167801Y-14819508D02*
X11186848Y-14809984D01*
X11424944Y-14876650D02*
X11424944Y-15009984D01*
X11377325Y-14800460D02*
X11329706Y-14943317D01*
X11329706Y-14943317D02*
X11453515Y-14943317D01*
X11567801Y-14809984D02*
X11586848Y-14809984D01*
X11586848Y-14809984D02*
X11605896Y-14819508D01*
X11605896Y-14819508D02*
X11615420Y-14829031D01*
X11615420Y-14829031D02*
X11624944Y-14848079D01*
X11624944Y-14848079D02*
X11634467Y-14886174D01*
X11634467Y-14886174D02*
X11634467Y-14933793D01*
X11634467Y-14933793D02*
X11624944Y-14971888D01*
X11624944Y-14971888D02*
X11615420Y-14990936D01*
X11615420Y-14990936D02*
X11605896Y-15000460D01*
X11605896Y-15000460D02*
X11586848Y-15009984D01*
X11586848Y-15009984D02*
X11567801Y-15009984D01*
X11567801Y-15009984D02*
X11548753Y-15000460D01*
X11548753Y-15000460D02*
X11539229Y-14990936D01*
X11539229Y-14990936D02*
X11529706Y-14971888D01*
X11529706Y-14971888D02*
X11520182Y-14933793D01*
X11520182Y-14933793D02*
X11520182Y-14886174D01*
X11520182Y-14886174D02*
X11529706Y-14848079D01*
X11529706Y-14848079D02*
X11539229Y-14829031D01*
X11539229Y-14829031D02*
X11548753Y-14819508D01*
X11548753Y-14819508D02*
X11567801Y-14809984D01*
X11710658Y-14829031D02*
X11720182Y-14819508D01*
X11720182Y-14819508D02*
X11739229Y-14809984D01*
X11739229Y-14809984D02*
X11786848Y-14809984D01*
X11786848Y-14809984D02*
X11805896Y-14819508D01*
X11805896Y-14819508D02*
X11815420Y-14829031D01*
X11815420Y-14829031D02*
X11824944Y-14848079D01*
X11824944Y-14848079D02*
X11824944Y-14867127D01*
X11824944Y-14867127D02*
X11815420Y-14895698D01*
X11815420Y-14895698D02*
X11701134Y-15009984D01*
X11701134Y-15009984D02*
X11824944Y-15009984D01*
X11901134Y-14809984D02*
X11901134Y-14848079D01*
X11977325Y-14809984D02*
X11977325Y-14848079D01*
X12272563Y-15086174D02*
X12263039Y-15076650D01*
X12263039Y-15076650D02*
X12243991Y-15048079D01*
X12243991Y-15048079D02*
X12234468Y-15029031D01*
X12234468Y-15029031D02*
X12224944Y-15000460D01*
X12224944Y-15000460D02*
X12215420Y-14952841D01*
X12215420Y-14952841D02*
X12215420Y-14914746D01*
X12215420Y-14914746D02*
X12224944Y-14867127D01*
X12224944Y-14867127D02*
X12234468Y-14838555D01*
X12234468Y-14838555D02*
X12243991Y-14819508D01*
X12243991Y-14819508D02*
X12263039Y-14790936D01*
X12263039Y-14790936D02*
X12272563Y-14781412D01*
X12434468Y-14876650D02*
X12434468Y-15009984D01*
X12386848Y-14800460D02*
X12339229Y-14943317D01*
X12339229Y-14943317D02*
X12463039Y-14943317D01*
X12691610Y-15009984D02*
X12691610Y-14809984D01*
X12777325Y-15009984D02*
X12777325Y-14905222D01*
X12777325Y-14905222D02*
X12767801Y-14886174D01*
X12767801Y-14886174D02*
X12748753Y-14876650D01*
X12748753Y-14876650D02*
X12720182Y-14876650D01*
X12720182Y-14876650D02*
X12701134Y-14886174D01*
X12701134Y-14886174D02*
X12691610Y-14895698D01*
X12901134Y-15009984D02*
X12882087Y-15000460D01*
X12882087Y-15000460D02*
X12872563Y-14990936D01*
X12872563Y-14990936D02*
X12863039Y-14971888D01*
X12863039Y-14971888D02*
X12863039Y-14914746D01*
X12863039Y-14914746D02*
X12872563Y-14895698D01*
X12872563Y-14895698D02*
X12882087Y-14886174D01*
X12882087Y-14886174D02*
X12901134Y-14876650D01*
X12901134Y-14876650D02*
X12929706Y-14876650D01*
X12929706Y-14876650D02*
X12948753Y-14886174D01*
X12948753Y-14886174D02*
X12958277Y-14895698D01*
X12958277Y-14895698D02*
X12967801Y-14914746D01*
X12967801Y-14914746D02*
X12967801Y-14971888D01*
X12967801Y-14971888D02*
X12958277Y-14990936D01*
X12958277Y-14990936D02*
X12948753Y-15000460D01*
X12948753Y-15000460D02*
X12929706Y-15009984D01*
X12929706Y-15009984D02*
X12901134Y-15009984D01*
X13082087Y-15009984D02*
X13063039Y-15000460D01*
X13063039Y-15000460D02*
X13053515Y-14981412D01*
X13053515Y-14981412D02*
X13053515Y-14809984D01*
X13234468Y-15000460D02*
X13215420Y-15009984D01*
X13215420Y-15009984D02*
X13177325Y-15009984D01*
X13177325Y-15009984D02*
X13158277Y-15000460D01*
X13158277Y-15000460D02*
X13148753Y-14981412D01*
X13148753Y-14981412D02*
X13148753Y-14905222D01*
X13148753Y-14905222D02*
X13158277Y-14886174D01*
X13158277Y-14886174D02*
X13177325Y-14876650D01*
X13177325Y-14876650D02*
X13215420Y-14876650D01*
X13215420Y-14876650D02*
X13234468Y-14886174D01*
X13234468Y-14886174D02*
X13243991Y-14905222D01*
X13243991Y-14905222D02*
X13243991Y-14924269D01*
X13243991Y-14924269D02*
X13148753Y-14943317D01*
X13320182Y-15000460D02*
X13339230Y-15009984D01*
X13339230Y-15009984D02*
X13377325Y-15009984D01*
X13377325Y-15009984D02*
X13396372Y-15000460D01*
X13396372Y-15000460D02*
X13405896Y-14981412D01*
X13405896Y-14981412D02*
X13405896Y-14971888D01*
X13405896Y-14971888D02*
X13396372Y-14952841D01*
X13396372Y-14952841D02*
X13377325Y-14943317D01*
X13377325Y-14943317D02*
X13348753Y-14943317D01*
X13348753Y-14943317D02*
X13329706Y-14933793D01*
X13329706Y-14933793D02*
X13320182Y-14914746D01*
X13320182Y-14914746D02*
X13320182Y-14905222D01*
X13320182Y-14905222D02*
X13329706Y-14886174D01*
X13329706Y-14886174D02*
X13348753Y-14876650D01*
X13348753Y-14876650D02*
X13377325Y-14876650D01*
X13377325Y-14876650D02*
X13396372Y-14886174D01*
X13472563Y-15086174D02*
X13482087Y-15076650D01*
X13482087Y-15076650D02*
X13501134Y-15048079D01*
X13501134Y-15048079D02*
X13510658Y-15029031D01*
X13510658Y-15029031D02*
X13520182Y-15000460D01*
X13520182Y-15000460D02*
X13529706Y-14952841D01*
X13529706Y-14952841D02*
X13529706Y-14914746D01*
X13529706Y-14914746D02*
X13520182Y-14867127D01*
X13520182Y-14867127D02*
X13510658Y-14838555D01*
X13510658Y-14838555D02*
X13501134Y-14819508D01*
X13501134Y-14819508D02*
X13482087Y-14790936D01*
X13482087Y-14790936D02*
X13472563Y-14781412D01*
M02*
