%TF.GenerationSoftware,KiCad,Pcbnew,9.0.6*%
%TF.CreationDate,2026-05-16T12:54:42+05:30*%
%TF.ProjectId,S7_Min_Enet,53375f4d-696e-45f4-956e-65742e6b6963,rev?*%
%TF.SameCoordinates,Original*%
%TF.FileFunction,Soldermask,Bot*%
%TF.FilePolarity,Negative*%
%FSLAX46Y46*%
G04 Gerber Fmt 4.6, Leading zero omitted, Abs format (unit mm)*
G04 Created by KiCad (PCBNEW 9.0.6) date 2026-05-16 12:54:42*
%MOMM*%
%LPD*%
G01*
G04 APERTURE LIST*
%ADD10O,1.550000X0.890000*%
%ADD11O,0.950000X1.250000*%
%ADD12R,1.700000X1.700000*%
%ADD13O,1.700000X1.700000*%
%ADD14C,3.250000*%
%ADD15R,1.600000X1.600000*%
%ADD16C,1.600000*%
%ADD17O,2.200000X1.400000*%
G04 APERTURE END LIST*
D10*
%TO.C,J1*%
X147300000Y-112100000D03*
D11*
X144600000Y-111100000D03*
X144600000Y-106100000D03*
D10*
X147300000Y-105100000D03*
%TD*%
D12*
%TO.C,J2*%
X90000000Y-80000000D03*
D13*
X92540000Y-80000000D03*
X90000000Y-82540000D03*
X92540000Y-82540000D03*
X90000000Y-85080000D03*
X92540000Y-85080000D03*
X90000000Y-87620000D03*
X92540000Y-87620000D03*
X90000000Y-90160000D03*
X92540000Y-90160000D03*
X90000000Y-92700000D03*
X92540000Y-92700000D03*
X90000000Y-95240000D03*
X92540000Y-95240000D03*
X90000000Y-97780000D03*
X92540000Y-97780000D03*
X90000000Y-100320000D03*
X92540000Y-100320000D03*
X90000000Y-102860000D03*
X92540000Y-102860000D03*
X90000000Y-105400000D03*
X92540000Y-105400000D03*
X90000000Y-107940000D03*
X92540000Y-107940000D03*
X90000000Y-110480000D03*
X92540000Y-110480000D03*
X90000000Y-113020000D03*
X92540000Y-113020000D03*
X90000000Y-115560000D03*
X92540000Y-115560000D03*
%TD*%
D14*
%TO.C,J3*%
X138000000Y-93715000D03*
X138000000Y-82285000D03*
D15*
X131650000Y-92445000D03*
D16*
X129110000Y-91175000D03*
X131650000Y-89905000D03*
X129110000Y-88635000D03*
X131650000Y-87365000D03*
X129110000Y-86095000D03*
X131650000Y-84825000D03*
X129110000Y-83555000D03*
X143080000Y-94325000D03*
X141380000Y-91785000D03*
X143080000Y-84215000D03*
X141380000Y-81675000D03*
D17*
X134950000Y-95875000D03*
X134950000Y-80125000D03*
%TD*%
M02*
