%TF.GenerationSoftware,KiCad,Pcbnew,9.0.6*%
%TF.CreationDate,2026-05-16T12:54:42+05:30*%
%TF.ProjectId,S7_Min_Enet,53375f4d-696e-45f4-956e-65742e6b6963,rev?*%
%TF.SameCoordinates,Original*%
%TF.FileFunction,Soldermask,Top*%
%TF.FilePolarity,Negative*%
%FSLAX46Y46*%
G04 Gerber Fmt 4.6, Leading zero omitted, Abs format (unit mm)*
G04 Created by KiCad (PCBNEW 9.0.6) date 2026-05-16 12:54:42*
%MOMM*%
%LPD*%
G01*
G04 APERTURE LIST*
G04 Aperture macros list*
%AMRoundRect*
0 Rectangle with rounded corners*
0 $1 Rounding radius*
0 $2 $3 $4 $5 $6 $7 $8 $9 X,Y pos of 4 corners*
0 Add a 4 corners polygon primitive as box body*
4,1,4,$2,$3,$4,$5,$6,$7,$8,$9,$2,$3,0*
0 Add four circle primitives for the rounded corners*
1,1,$1+$1,$2,$3*
1,1,$1+$1,$4,$5*
1,1,$1+$1,$6,$7*
1,1,$1+$1,$8,$9*
0 Add four rect primitives between the rounded corners*
20,1,$1+$1,$2,$3,$4,$5,0*
20,1,$1+$1,$4,$5,$6,$7,0*
20,1,$1+$1,$6,$7,$8,$9,0*
20,1,$1+$1,$8,$9,$2,$3,0*%
%AMRotRect*
0 Rectangle, with rotation*
0 The origin of the aperture is its center*
0 $1 length*
0 $2 width*
0 $3 Rotation angle, in degrees counterclockwise*
0 Add horizontal line*
21,1,$1,$2,0,0,$3*%
G04 Aperture macros list end*
%ADD10RoundRect,0.140000X0.170000X-0.140000X0.170000X0.140000X-0.170000X0.140000X-0.170000X-0.140000X0*%
%ADD11RoundRect,0.250000X-0.250000X-0.475000X0.250000X-0.475000X0.250000X0.475000X-0.250000X0.475000X0*%
%ADD12RoundRect,0.140000X-0.021213X0.219203X-0.219203X0.021213X0.021213X-0.219203X0.219203X-0.021213X0*%
%ADD13RoundRect,0.140000X-0.219203X-0.021213X-0.021213X-0.219203X0.219203X0.021213X0.021213X0.219203X0*%
%ADD14RoundRect,0.140000X-0.140000X-0.170000X0.140000X-0.170000X0.140000X0.170000X-0.140000X0.170000X0*%
%ADD15RoundRect,0.250000X0.475000X-0.250000X0.475000X0.250000X-0.475000X0.250000X-0.475000X-0.250000X0*%
%ADD16RoundRect,0.140000X-0.170000X0.140000X-0.170000X-0.140000X0.170000X-0.140000X0.170000X0.140000X0*%
%ADD17RoundRect,0.140000X0.140000X0.170000X-0.140000X0.170000X-0.140000X-0.170000X0.140000X-0.170000X0*%
%ADD18R,1.198880X1.198880*%
%ADD19RoundRect,0.218750X0.218750X0.256250X-0.218750X0.256250X-0.218750X-0.256250X0.218750X-0.256250X0*%
%ADD20R,1.350000X0.400000*%
%ADD21O,1.550000X0.890000*%
%ADD22R,1.550000X1.200000*%
%ADD23O,0.950000X1.250000*%
%ADD24R,1.550000X1.500000*%
%ADD25RoundRect,0.135000X0.185000X-0.135000X0.185000X0.135000X-0.185000X0.135000X-0.185000X-0.135000X0*%
%ADD26RoundRect,0.135000X0.135000X0.185000X-0.135000X0.185000X-0.135000X-0.185000X0.135000X-0.185000X0*%
%ADD27RoundRect,0.135000X-0.135000X-0.185000X0.135000X-0.185000X0.135000X0.185000X-0.135000X0.185000X0*%
%ADD28RoundRect,0.249998X-0.262502X-0.450002X0.262502X-0.450002X0.262502X0.450002X-0.262502X0.450002X0*%
%ADD29RoundRect,0.249998X0.262502X0.450002X-0.262502X0.450002X-0.262502X-0.450002X0.262502X-0.450002X0*%
%ADD30RoundRect,0.200000X0.200000X0.275000X-0.200000X0.275000X-0.200000X-0.275000X0.200000X-0.275000X0*%
%ADD31R,1.700000X1.700000*%
%ADD32O,1.700000X1.700000*%
%ADD33R,0.400000X1.200000*%
%ADD34R,1.200000X1.400000*%
%ADD35RoundRect,0.062500X-0.203293X-0.291682X0.291682X0.203293X0.203293X0.291682X-0.291682X-0.203293X0*%
%ADD36RoundRect,0.062500X0.203293X-0.291682X0.291682X-0.203293X-0.203293X0.291682X-0.291682X0.203293X0*%
%ADD37RotRect,4.600000X4.600000X45.000000*%
%ADD38C,3.250000*%
%ADD39R,1.600000X1.600000*%
%ADD40C,1.600000*%
%ADD41O,2.200000X1.400000*%
G04 APERTURE END LIST*
D10*
%TO.C,C1*%
X138400000Y-107380000D03*
X138400000Y-106420000D03*
%TD*%
D11*
%TO.C,C3*%
X113950000Y-89200000D03*
X115850000Y-89200000D03*
%TD*%
D10*
%TO.C,C4*%
X100600000Y-96480000D03*
X100600000Y-95520000D03*
%TD*%
%TO.C,C6*%
X101800000Y-96480000D03*
X101800000Y-95520000D03*
%TD*%
D12*
%TO.C,C7*%
X113539411Y-99060589D03*
X112860589Y-99739411D03*
%TD*%
%TO.C,C8*%
X114339411Y-99860589D03*
X113660589Y-100539411D03*
%TD*%
D11*
%TO.C,C9*%
X111950000Y-106000000D03*
X113850000Y-106000000D03*
%TD*%
D13*
%TO.C,C10*%
X112160589Y-100560589D03*
X112839411Y-101239411D03*
%TD*%
D14*
%TO.C,C11*%
X115520000Y-98400000D03*
X116480000Y-98400000D03*
%TD*%
%TO.C,C12*%
X108420000Y-88600000D03*
X109380000Y-88600000D03*
%TD*%
D15*
%TO.C,C13*%
X108400000Y-87150000D03*
X108400000Y-85250000D03*
%TD*%
D16*
%TO.C,C14*%
X127600000Y-100500000D03*
X127600000Y-101460000D03*
%TD*%
D14*
%TO.C,C15*%
X133220000Y-99300000D03*
X134180000Y-99300000D03*
%TD*%
D17*
%TO.C,C16*%
X119380000Y-83400000D03*
X118420000Y-83400000D03*
%TD*%
%TO.C,C17*%
X110580000Y-81200000D03*
X109620000Y-81200000D03*
%TD*%
D18*
%TO.C,D1*%
X122899020Y-115750000D03*
X120800980Y-115750000D03*
%TD*%
D19*
%TO.C,FB1*%
X109200000Y-106000000D03*
X107625000Y-106000000D03*
%TD*%
D20*
%TO.C,J1*%
X144600000Y-109900000D03*
X144600000Y-109250000D03*
X144600000Y-108600000D03*
X144600000Y-107950000D03*
X144600000Y-107300000D03*
D21*
X147300000Y-112100000D03*
D22*
X147300000Y-111500000D03*
D23*
X144600000Y-111100000D03*
D24*
X147300000Y-109600000D03*
X147300000Y-107600000D03*
D23*
X144600000Y-106100000D03*
D22*
X147300000Y-105700000D03*
D21*
X147300000Y-105100000D03*
%TD*%
D25*
%TO.C,R1*%
X141400000Y-113360000D03*
X141400000Y-112340000D03*
%TD*%
%TO.C,R2*%
X141400000Y-116010000D03*
X141400000Y-114990000D03*
%TD*%
D26*
%TO.C,R3*%
X97510000Y-88400000D03*
X96490000Y-88400000D03*
%TD*%
%TO.C,R4*%
X97510000Y-90200000D03*
X96490000Y-90200000D03*
%TD*%
%TO.C,R5*%
X97510000Y-85300000D03*
X96490000Y-85300000D03*
%TD*%
%TO.C,R6*%
X97510000Y-86400000D03*
X96490000Y-86400000D03*
%TD*%
%TO.C,R7*%
X97510000Y-82900000D03*
X96490000Y-82900000D03*
%TD*%
D27*
%TO.C,R8*%
X113890000Y-92000000D03*
X114910000Y-92000000D03*
%TD*%
%TO.C,R9*%
X137390000Y-108500000D03*
X138410000Y-108500000D03*
%TD*%
%TO.C,R10*%
X137390000Y-109500000D03*
X138410000Y-109500000D03*
%TD*%
%TO.C,R11*%
X113890000Y-93100000D03*
X114910000Y-93100000D03*
%TD*%
D28*
%TO.C,R12*%
X126437500Y-115750000D03*
X128262500Y-115750000D03*
%TD*%
D29*
%TO.C,R13*%
X132612500Y-115750000D03*
X130787500Y-115750000D03*
%TD*%
D30*
%TO.C,R14*%
X117425000Y-97000000D03*
X115775000Y-97000000D03*
%TD*%
D27*
%TO.C,R15*%
X130390000Y-99300000D03*
X131410000Y-99300000D03*
%TD*%
D26*
%TO.C,R16*%
X129410000Y-99300000D03*
X128390000Y-99300000D03*
%TD*%
D27*
%TO.C,R17*%
X125790000Y-99300000D03*
X126810000Y-99300000D03*
%TD*%
D26*
%TO.C,R18*%
X124810000Y-99300000D03*
X123790000Y-99300000D03*
%TD*%
D28*
%TO.C,R19*%
X139587500Y-99950000D03*
X141412500Y-99950000D03*
%TD*%
%TO.C,R20*%
X139587500Y-102000000D03*
X141412500Y-102000000D03*
%TD*%
D30*
%TO.C,R21*%
X115225000Y-85800000D03*
X113575000Y-85800000D03*
%TD*%
D31*
%TO.C,J2*%
X90000000Y-80000000D03*
D32*
X92540000Y-80000000D03*
X90000000Y-82540000D03*
X92540000Y-82540000D03*
X90000000Y-85080000D03*
X92540000Y-85080000D03*
X90000000Y-87620000D03*
X92540000Y-87620000D03*
X90000000Y-90160000D03*
X92540000Y-90160000D03*
X90000000Y-92700000D03*
X92540000Y-92700000D03*
X90000000Y-95240000D03*
X92540000Y-95240000D03*
X90000000Y-97780000D03*
X92540000Y-97780000D03*
X90000000Y-100320000D03*
X92540000Y-100320000D03*
X90000000Y-102860000D03*
X92540000Y-102860000D03*
X90000000Y-105400000D03*
X92540000Y-105400000D03*
X90000000Y-107940000D03*
X92540000Y-107940000D03*
X90000000Y-110480000D03*
X92540000Y-110480000D03*
X90000000Y-113020000D03*
X92540000Y-113020000D03*
X90000000Y-115560000D03*
X92540000Y-115560000D03*
%TD*%
D33*
%TO.C,U1*%
X126977500Y-111600000D03*
X127612500Y-111600000D03*
X128247500Y-111600000D03*
X128882500Y-111600000D03*
X129517500Y-111600000D03*
X130152500Y-111600000D03*
X130787500Y-111600000D03*
X131422500Y-111600000D03*
X131422500Y-106400000D03*
X130787500Y-106400000D03*
X130152500Y-106400000D03*
X129517500Y-106400000D03*
X128882500Y-106400000D03*
X128247500Y-106400000D03*
X127612500Y-106400000D03*
X126977500Y-106400000D03*
%TD*%
D34*
%TO.C,Y1*%
X115250000Y-83400000D03*
X115250000Y-81200000D03*
X113550000Y-81200000D03*
X113550000Y-83400000D03*
%TD*%
D35*
%TO.C,U2*%
X104331884Y-96486136D03*
X104685437Y-96839689D03*
X105038990Y-97193243D03*
X105392544Y-97546796D03*
X105746097Y-97900349D03*
X106099651Y-98253903D03*
X106453204Y-98607456D03*
X106806757Y-98961010D03*
X107160311Y-99314563D03*
X107513864Y-99668116D03*
D36*
X108486136Y-99668116D03*
X108839689Y-99314563D03*
X109193243Y-98961010D03*
X109546796Y-98607456D03*
X109900349Y-98253903D03*
X110253903Y-97900349D03*
X110607456Y-97546796D03*
X110961010Y-97193243D03*
X111314563Y-96839689D03*
X111668116Y-96486136D03*
D35*
X111668116Y-95513864D03*
X111314563Y-95160311D03*
X110961010Y-94806757D03*
X110607456Y-94453204D03*
X110253903Y-94099651D03*
X109900349Y-93746097D03*
X109546796Y-93392544D03*
X109193243Y-93038990D03*
X108839689Y-92685437D03*
X108486136Y-92331884D03*
D36*
X107513864Y-92331884D03*
X107160311Y-92685437D03*
X106806757Y-93038990D03*
X106453204Y-93392544D03*
X106099651Y-93746097D03*
X105746097Y-94099651D03*
X105392544Y-94453204D03*
X105038990Y-94806757D03*
X104685437Y-95160311D03*
X104331884Y-95513864D03*
D37*
X108000000Y-96000000D03*
%TD*%
D14*
%TO.C,C5*%
X113920000Y-90900000D03*
X114880000Y-90900000D03*
%TD*%
D16*
%TO.C,C2*%
X138400000Y-110620000D03*
X138400000Y-111580000D03*
%TD*%
D38*
%TO.C,J3*%
X138000000Y-93715000D03*
X138000000Y-82285000D03*
D39*
X131650000Y-92445000D03*
D40*
X129110000Y-91175000D03*
X131650000Y-89905000D03*
X129110000Y-88635000D03*
X131650000Y-87365000D03*
X129110000Y-86095000D03*
X131650000Y-84825000D03*
X129110000Y-83555000D03*
X143080000Y-94325000D03*
X141380000Y-91785000D03*
X143080000Y-84215000D03*
X141380000Y-81675000D03*
D41*
X134950000Y-95875000D03*
X134950000Y-80125000D03*
%TD*%
D18*
%TO.C,D2*%
X135800980Y-115750000D03*
X137899020Y-115750000D03*
%TD*%
M02*
