%TF.GenerationSoftware,KiCad,Pcbnew,9.0.6*%
%TF.CreationDate,2026-05-17T12:56:21+05:30*%
%TF.ProjectId,project,70726f6a-6563-4742-9e6b-696361645f70,1*%
%TF.SameCoordinates,Original*%
%TF.FileFunction,Drillmap*%
%TF.FilePolarity,Positive*%
%FSLAX45Y45*%
G04 Gerber Fmt 4.5, Leading zero omitted, Abs format (unit mm)*
G04 Created by KiCad (PCBNEW 9.0.6) date 2026-05-17 12:56:21*
%MOMM*%
%LPD*%
G01*
G04 APERTURE LIST*
%ADD10C,0.050000*%
%ADD11C,0.200000*%
%ADD12C,0.100000*%
G04 APERTURE END LIST*
D10*
X12547600Y-11665160D02*
X12547600Y-8625160D01*
X12547600Y-8625160D02*
X16004540Y-8625160D01*
X16004540Y-8625160D02*
X16004540Y-11665160D01*
X16004540Y-11665160D02*
X12547600Y-11665160D01*
D11*
D12*
X13162600Y-11051600D02*
X13202600Y-11091600D01*
X13202600Y-11051600D02*
X13162600Y-11091600D01*
X14014040Y-10810160D02*
X14054040Y-10850160D01*
X14054040Y-10810160D02*
X14014040Y-10850160D01*
X14279040Y-11205160D02*
X14319040Y-11245160D01*
X14319040Y-11205160D02*
X14279040Y-11245160D01*
X14519040Y-10130160D02*
X14559040Y-10170160D01*
X14559040Y-10130160D02*
X14519040Y-10170160D01*
X14579040Y-10805160D02*
X14619040Y-10845160D01*
X14619040Y-10805160D02*
X14579040Y-10845160D01*
X12800800Y-8839200D02*
G75*
G02*
X12700800Y-8839200I-50000J0D01*
G01*
X12700800Y-8839200D02*
G75*
G02*
X12800800Y-8839200I50000J0D01*
G01*
X12800800Y-9093200D02*
G75*
G02*
X12700800Y-9093200I-50000J0D01*
G01*
X12700800Y-9093200D02*
G75*
G02*
X12800800Y-9093200I50000J0D01*
G01*
X12800800Y-9347200D02*
G75*
G02*
X12700800Y-9347200I-50000J0D01*
G01*
X12700800Y-9347200D02*
G75*
G02*
X12800800Y-9347200I50000J0D01*
G01*
X12800800Y-9601200D02*
G75*
G02*
X12700800Y-9601200I-50000J0D01*
G01*
X12700800Y-9601200D02*
G75*
G02*
X12800800Y-9601200I50000J0D01*
G01*
X12800800Y-9855200D02*
G75*
G02*
X12700800Y-9855200I-50000J0D01*
G01*
X12700800Y-9855200D02*
G75*
G02*
X12800800Y-9855200I50000J0D01*
G01*
X12800800Y-10109200D02*
G75*
G02*
X12700800Y-10109200I-50000J0D01*
G01*
X12700800Y-10109200D02*
G75*
G02*
X12800800Y-10109200I50000J0D01*
G01*
X12800800Y-10363200D02*
G75*
G02*
X12700800Y-10363200I-50000J0D01*
G01*
X12700800Y-10363200D02*
G75*
G02*
X12800800Y-10363200I50000J0D01*
G01*
X12800800Y-10617200D02*
G75*
G02*
X12700800Y-10617200I-50000J0D01*
G01*
X12700800Y-10617200D02*
G75*
G02*
X12800800Y-10617200I50000J0D01*
G01*
X12800800Y-10871200D02*
G75*
G02*
X12700800Y-10871200I-50000J0D01*
G01*
X12700800Y-10871200D02*
G75*
G02*
X12800800Y-10871200I50000J0D01*
G01*
X12801040Y-11460160D02*
G75*
G02*
X12701040Y-11460160I-50000J0D01*
G01*
X12701040Y-11460160D02*
G75*
G02*
X12801040Y-11460160I50000J0D01*
G01*
X13054800Y-8839200D02*
G75*
G02*
X12954800Y-8839200I-50000J0D01*
G01*
X12954800Y-8839200D02*
G75*
G02*
X13054800Y-8839200I50000J0D01*
G01*
X13054800Y-9093200D02*
G75*
G02*
X12954800Y-9093200I-50000J0D01*
G01*
X12954800Y-9093200D02*
G75*
G02*
X13054800Y-9093200I50000J0D01*
G01*
X13054800Y-9347200D02*
G75*
G02*
X12954800Y-9347200I-50000J0D01*
G01*
X12954800Y-9347200D02*
G75*
G02*
X13054800Y-9347200I50000J0D01*
G01*
X13054800Y-9601200D02*
G75*
G02*
X12954800Y-9601200I-50000J0D01*
G01*
X12954800Y-9601200D02*
G75*
G02*
X13054800Y-9601200I50000J0D01*
G01*
X13054800Y-9855200D02*
G75*
G02*
X12954800Y-9855200I-50000J0D01*
G01*
X12954800Y-9855200D02*
G75*
G02*
X13054800Y-9855200I50000J0D01*
G01*
X13054800Y-10109200D02*
G75*
G02*
X12954800Y-10109200I-50000J0D01*
G01*
X12954800Y-10109200D02*
G75*
G02*
X13054800Y-10109200I50000J0D01*
G01*
X13054800Y-10363200D02*
G75*
G02*
X12954800Y-10363200I-50000J0D01*
G01*
X12954800Y-10363200D02*
G75*
G02*
X13054800Y-10363200I50000J0D01*
G01*
X13054800Y-10617200D02*
G75*
G02*
X12954800Y-10617200I-50000J0D01*
G01*
X12954800Y-10617200D02*
G75*
G02*
X13054800Y-10617200I50000J0D01*
G01*
X13054800Y-10871200D02*
G75*
G02*
X12954800Y-10871200I-50000J0D01*
G01*
X12954800Y-10871200D02*
G75*
G02*
X13054800Y-10871200I50000J0D01*
G01*
X13055040Y-11460160D02*
G75*
G02*
X12955040Y-11460160I-50000J0D01*
G01*
X12955040Y-11460160D02*
G75*
G02*
X13055040Y-11460160I50000J0D01*
G01*
X13309040Y-11460160D02*
G75*
G02*
X13209040Y-11460160I-50000J0D01*
G01*
X13209040Y-11460160D02*
G75*
G02*
X13309040Y-11460160I50000J0D01*
G01*
X13727740Y-9684100D02*
G75*
G02*
X13627740Y-9684100I-50000J0D01*
G01*
X13627740Y-9684100D02*
G75*
G02*
X13727740Y-9684100I50000J0D01*
G01*
X13727740Y-9938100D02*
G75*
G02*
X13627740Y-9938100I-50000J0D01*
G01*
X13627740Y-9938100D02*
G75*
G02*
X13727740Y-9938100I50000J0D01*
G01*
X13727740Y-10192100D02*
G75*
G02*
X13627740Y-10192100I-50000J0D01*
G01*
X13627740Y-10192100D02*
G75*
G02*
X13727740Y-10192100I50000J0D01*
G01*
X13727740Y-10446100D02*
G75*
G02*
X13627740Y-10446100I-50000J0D01*
G01*
X13627740Y-10446100D02*
G75*
G02*
X13727740Y-10446100I50000J0D01*
G01*
X13727740Y-10700100D02*
G75*
G02*
X13627740Y-10700100I-50000J0D01*
G01*
X13627740Y-10700100D02*
G75*
G02*
X13727740Y-10700100I50000J0D01*
G01*
X13727740Y-10954100D02*
G75*
G02*
X13627740Y-10954100I-50000J0D01*
G01*
X13627740Y-10954100D02*
G75*
G02*
X13727740Y-10954100I50000J0D01*
G01*
X13727740Y-11208100D02*
G75*
G02*
X13627740Y-11208100I-50000J0D01*
G01*
X13627740Y-11208100D02*
G75*
G02*
X13727740Y-11208100I50000J0D01*
G01*
X13727740Y-11462100D02*
G75*
G02*
X13627740Y-11462100I-50000J0D01*
G01*
X13627740Y-11462100D02*
G75*
G02*
X13727740Y-11462100I50000J0D01*
G01*
X13754040Y-8816160D02*
G75*
G02*
X13654040Y-8816160I-50000J0D01*
G01*
X13654040Y-8816160D02*
G75*
G02*
X13754040Y-8816160I50000J0D01*
G01*
X13754040Y-9070160D02*
G75*
G02*
X13654040Y-9070160I-50000J0D01*
G01*
X13654040Y-9070160D02*
G75*
G02*
X13754040Y-9070160I50000J0D01*
G01*
X14008040Y-8816160D02*
G75*
G02*
X13908040Y-8816160I-50000J0D01*
G01*
X13908040Y-8816160D02*
G75*
G02*
X14008040Y-8816160I50000J0D01*
G01*
X14008040Y-9070160D02*
G75*
G02*
X13908040Y-9070160I-50000J0D01*
G01*
X13908040Y-9070160D02*
G75*
G02*
X14008040Y-9070160I50000J0D01*
G01*
X14262040Y-8816160D02*
G75*
G02*
X14162040Y-8816160I-50000J0D01*
G01*
X14162040Y-8816160D02*
G75*
G02*
X14262040Y-8816160I50000J0D01*
G01*
X14262040Y-9070160D02*
G75*
G02*
X14162040Y-9070160I-50000J0D01*
G01*
X14162040Y-9070160D02*
G75*
G02*
X14262040Y-9070160I50000J0D01*
G01*
X14516040Y-8816160D02*
G75*
G02*
X14416040Y-8816160I-50000J0D01*
G01*
X14416040Y-8816160D02*
G75*
G02*
X14516040Y-8816160I50000J0D01*
G01*
X14516040Y-9070160D02*
G75*
G02*
X14416040Y-9070160I-50000J0D01*
G01*
X14416040Y-9070160D02*
G75*
G02*
X14516040Y-9070160I50000J0D01*
G01*
X14770040Y-8816160D02*
G75*
G02*
X14670040Y-8816160I-50000J0D01*
G01*
X14670040Y-8816160D02*
G75*
G02*
X14770040Y-8816160I50000J0D01*
G01*
X14770040Y-9070160D02*
G75*
G02*
X14670040Y-9070160I-50000J0D01*
G01*
X14670040Y-9070160D02*
G75*
G02*
X14770040Y-9070160I50000J0D01*
G01*
X15005360Y-9684100D02*
G75*
G02*
X14905360Y-9684100I-50000J0D01*
G01*
X14905360Y-9684100D02*
G75*
G02*
X15005360Y-9684100I50000J0D01*
G01*
X15005360Y-9938100D02*
G75*
G02*
X14905360Y-9938100I-50000J0D01*
G01*
X14905360Y-9938100D02*
G75*
G02*
X15005360Y-9938100I50000J0D01*
G01*
X15005360Y-10192100D02*
G75*
G02*
X14905360Y-10192100I-50000J0D01*
G01*
X14905360Y-10192100D02*
G75*
G02*
X15005360Y-10192100I50000J0D01*
G01*
X15005360Y-10446100D02*
G75*
G02*
X14905360Y-10446100I-50000J0D01*
G01*
X14905360Y-10446100D02*
G75*
G02*
X15005360Y-10446100I50000J0D01*
G01*
X15005360Y-10700100D02*
G75*
G02*
X14905360Y-10700100I-50000J0D01*
G01*
X14905360Y-10700100D02*
G75*
G02*
X15005360Y-10700100I50000J0D01*
G01*
X15005360Y-10954100D02*
G75*
G02*
X14905360Y-10954100I-50000J0D01*
G01*
X14905360Y-10954100D02*
G75*
G02*
X15005360Y-10954100I50000J0D01*
G01*
X15005360Y-11208100D02*
G75*
G02*
X14905360Y-11208100I-50000J0D01*
G01*
X14905360Y-11208100D02*
G75*
G02*
X15005360Y-11208100I50000J0D01*
G01*
X15005360Y-11462100D02*
G75*
G02*
X14905360Y-11462100I-50000J0D01*
G01*
X14905360Y-11462100D02*
G75*
G02*
X15005360Y-11462100I50000J0D01*
G01*
X15024040Y-8816160D02*
G75*
G02*
X14924040Y-8816160I-50000J0D01*
G01*
X14924040Y-8816160D02*
G75*
G02*
X15024040Y-8816160I50000J0D01*
G01*
X15024040Y-9070160D02*
G75*
G02*
X14924040Y-9070160I-50000J0D01*
G01*
X14924040Y-9070160D02*
G75*
G02*
X15024040Y-9070160I50000J0D01*
G01*
X15594040Y-8838160D02*
G75*
G02*
X15494040Y-8838160I-50000J0D01*
G01*
X15494040Y-8838160D02*
G75*
G02*
X15594040Y-8838160I50000J0D01*
G01*
X15594040Y-9092160D02*
G75*
G02*
X15494040Y-9092160I-50000J0D01*
G01*
X15494040Y-9092160D02*
G75*
G02*
X15594040Y-9092160I50000J0D01*
G01*
X15594040Y-9346160D02*
G75*
G02*
X15494040Y-9346160I-50000J0D01*
G01*
X15494040Y-9346160D02*
G75*
G02*
X15594040Y-9346160I50000J0D01*
G01*
X15594040Y-9600160D02*
G75*
G02*
X15494040Y-9600160I-50000J0D01*
G01*
X15494040Y-9600160D02*
G75*
G02*
X15594040Y-9600160I50000J0D01*
G01*
X15594040Y-9854160D02*
G75*
G02*
X15494040Y-9854160I-50000J0D01*
G01*
X15494040Y-9854160D02*
G75*
G02*
X15594040Y-9854160I50000J0D01*
G01*
X15594040Y-10108160D02*
G75*
G02*
X15494040Y-10108160I-50000J0D01*
G01*
X15494040Y-10108160D02*
G75*
G02*
X15594040Y-10108160I50000J0D01*
G01*
X15594040Y-10362160D02*
G75*
G02*
X15494040Y-10362160I-50000J0D01*
G01*
X15494040Y-10362160D02*
G75*
G02*
X15594040Y-10362160I50000J0D01*
G01*
X15594040Y-10616160D02*
G75*
G02*
X15494040Y-10616160I-50000J0D01*
G01*
X15494040Y-10616160D02*
G75*
G02*
X15594040Y-10616160I50000J0D01*
G01*
X15594040Y-10870160D02*
G75*
G02*
X15494040Y-10870160I-50000J0D01*
G01*
X15494040Y-10870160D02*
G75*
G02*
X15594040Y-10870160I50000J0D01*
G01*
X15848040Y-8838160D02*
G75*
G02*
X15748040Y-8838160I-50000J0D01*
G01*
X15748040Y-8838160D02*
G75*
G02*
X15848040Y-8838160I50000J0D01*
G01*
X15848040Y-9092160D02*
G75*
G02*
X15748040Y-9092160I-50000J0D01*
G01*
X15748040Y-9092160D02*
G75*
G02*
X15848040Y-9092160I50000J0D01*
G01*
X15848040Y-9346160D02*
G75*
G02*
X15748040Y-9346160I-50000J0D01*
G01*
X15748040Y-9346160D02*
G75*
G02*
X15848040Y-9346160I50000J0D01*
G01*
X15848040Y-9600160D02*
G75*
G02*
X15748040Y-9600160I-50000J0D01*
G01*
X15748040Y-9600160D02*
G75*
G02*
X15848040Y-9600160I50000J0D01*
G01*
X15848040Y-9854160D02*
G75*
G02*
X15748040Y-9854160I-50000J0D01*
G01*
X15748040Y-9854160D02*
G75*
G02*
X15848040Y-9854160I50000J0D01*
G01*
X15848040Y-10108160D02*
G75*
G02*
X15748040Y-10108160I-50000J0D01*
G01*
X15748040Y-10108160D02*
G75*
G02*
X15848040Y-10108160I50000J0D01*
G01*
X15848040Y-10362160D02*
G75*
G02*
X15748040Y-10362160I-50000J0D01*
G01*
X15748040Y-10362160D02*
G75*
G02*
X15848040Y-10362160I50000J0D01*
G01*
X15848040Y-10616160D02*
G75*
G02*
X15748040Y-10616160I-50000J0D01*
G01*
X15748040Y-10616160D02*
G75*
G02*
X15848040Y-10616160I50000J0D01*
G01*
X15848040Y-10870160D02*
G75*
G02*
X15748040Y-10870160I-50000J0D01*
G01*
X15748040Y-10870160D02*
G75*
G02*
X15848040Y-10870160I50000J0D01*
G01*
D11*
X12805877Y-11979144D02*
X12805877Y-11779144D01*
X12805877Y-11779144D02*
X12853496Y-11779144D01*
X12853496Y-11779144D02*
X12882067Y-11788668D01*
X12882067Y-11788668D02*
X12901115Y-11807715D01*
X12901115Y-11807715D02*
X12910639Y-11826763D01*
X12910639Y-11826763D02*
X12920162Y-11864858D01*
X12920162Y-11864858D02*
X12920162Y-11893429D01*
X12920162Y-11893429D02*
X12910639Y-11931525D01*
X12910639Y-11931525D02*
X12901115Y-11950572D01*
X12901115Y-11950572D02*
X12882067Y-11969620D01*
X12882067Y-11969620D02*
X12853496Y-11979144D01*
X12853496Y-11979144D02*
X12805877Y-11979144D01*
X13005877Y-11979144D02*
X13005877Y-11845810D01*
X13005877Y-11883906D02*
X13015401Y-11864858D01*
X13015401Y-11864858D02*
X13024924Y-11855334D01*
X13024924Y-11855334D02*
X13043972Y-11845810D01*
X13043972Y-11845810D02*
X13063020Y-11845810D01*
X13129686Y-11979144D02*
X13129686Y-11845810D01*
X13129686Y-11779144D02*
X13120162Y-11788668D01*
X13120162Y-11788668D02*
X13129686Y-11798191D01*
X13129686Y-11798191D02*
X13139210Y-11788668D01*
X13139210Y-11788668D02*
X13129686Y-11779144D01*
X13129686Y-11779144D02*
X13129686Y-11798191D01*
X13253496Y-11979144D02*
X13234448Y-11969620D01*
X13234448Y-11969620D02*
X13224924Y-11950572D01*
X13224924Y-11950572D02*
X13224924Y-11779144D01*
X13358258Y-11979144D02*
X13339210Y-11969620D01*
X13339210Y-11969620D02*
X13329686Y-11950572D01*
X13329686Y-11950572D02*
X13329686Y-11779144D01*
X13586829Y-11979144D02*
X13586829Y-11779144D01*
X13586829Y-11779144D02*
X13653496Y-11922001D01*
X13653496Y-11922001D02*
X13720162Y-11779144D01*
X13720162Y-11779144D02*
X13720162Y-11979144D01*
X13901115Y-11979144D02*
X13901115Y-11874382D01*
X13901115Y-11874382D02*
X13891591Y-11855334D01*
X13891591Y-11855334D02*
X13872543Y-11845810D01*
X13872543Y-11845810D02*
X13834448Y-11845810D01*
X13834448Y-11845810D02*
X13815401Y-11855334D01*
X13901115Y-11969620D02*
X13882067Y-11979144D01*
X13882067Y-11979144D02*
X13834448Y-11979144D01*
X13834448Y-11979144D02*
X13815401Y-11969620D01*
X13815401Y-11969620D02*
X13805877Y-11950572D01*
X13805877Y-11950572D02*
X13805877Y-11931525D01*
X13805877Y-11931525D02*
X13815401Y-11912477D01*
X13815401Y-11912477D02*
X13834448Y-11902953D01*
X13834448Y-11902953D02*
X13882067Y-11902953D01*
X13882067Y-11902953D02*
X13901115Y-11893429D01*
X13996353Y-11845810D02*
X13996353Y-12045810D01*
X13996353Y-11855334D02*
X14015401Y-11845810D01*
X14015401Y-11845810D02*
X14053496Y-11845810D01*
X14053496Y-11845810D02*
X14072543Y-11855334D01*
X14072543Y-11855334D02*
X14082067Y-11864858D01*
X14082067Y-11864858D02*
X14091591Y-11883906D01*
X14091591Y-11883906D02*
X14091591Y-11941048D01*
X14091591Y-11941048D02*
X14082067Y-11960096D01*
X14082067Y-11960096D02*
X14072543Y-11969620D01*
X14072543Y-11969620D02*
X14053496Y-11979144D01*
X14053496Y-11979144D02*
X14015401Y-11979144D01*
X14015401Y-11979144D02*
X13996353Y-11969620D01*
X14177305Y-11960096D02*
X14186829Y-11969620D01*
X14186829Y-11969620D02*
X14177305Y-11979144D01*
X14177305Y-11979144D02*
X14167782Y-11969620D01*
X14167782Y-11969620D02*
X14177305Y-11960096D01*
X14177305Y-11960096D02*
X14177305Y-11979144D01*
X14177305Y-11855334D02*
X14186829Y-11864858D01*
X14186829Y-11864858D02*
X14177305Y-11874382D01*
X14177305Y-11874382D02*
X14167782Y-11864858D01*
X14167782Y-11864858D02*
X14177305Y-11855334D01*
X14177305Y-11855334D02*
X14177305Y-11874382D01*
D12*
X12505100Y-12287660D02*
X12545100Y-12327660D01*
X12545100Y-12287660D02*
X12505100Y-12327660D01*
D11*
X12843972Y-12199144D02*
X12863020Y-12199144D01*
X12863020Y-12199144D02*
X12882067Y-12208668D01*
X12882067Y-12208668D02*
X12891591Y-12218191D01*
X12891591Y-12218191D02*
X12901115Y-12237239D01*
X12901115Y-12237239D02*
X12910639Y-12275334D01*
X12910639Y-12275334D02*
X12910639Y-12322953D01*
X12910639Y-12322953D02*
X12901115Y-12361048D01*
X12901115Y-12361048D02*
X12891591Y-12380096D01*
X12891591Y-12380096D02*
X12882067Y-12389620D01*
X12882067Y-12389620D02*
X12863020Y-12399144D01*
X12863020Y-12399144D02*
X12843972Y-12399144D01*
X12843972Y-12399144D02*
X12824924Y-12389620D01*
X12824924Y-12389620D02*
X12815401Y-12380096D01*
X12815401Y-12380096D02*
X12805877Y-12361048D01*
X12805877Y-12361048D02*
X12796353Y-12322953D01*
X12796353Y-12322953D02*
X12796353Y-12275334D01*
X12796353Y-12275334D02*
X12805877Y-12237239D01*
X12805877Y-12237239D02*
X12815401Y-12218191D01*
X12815401Y-12218191D02*
X12824924Y-12208668D01*
X12824924Y-12208668D02*
X12843972Y-12199144D01*
X12996353Y-12380096D02*
X13005877Y-12389620D01*
X13005877Y-12389620D02*
X12996353Y-12399144D01*
X12996353Y-12399144D02*
X12986829Y-12389620D01*
X12986829Y-12389620D02*
X12996353Y-12380096D01*
X12996353Y-12380096D02*
X12996353Y-12399144D01*
X13177305Y-12265810D02*
X13177305Y-12399144D01*
X13129686Y-12189620D02*
X13082067Y-12332477D01*
X13082067Y-12332477D02*
X13205877Y-12332477D01*
X13320162Y-12199144D02*
X13339210Y-12199144D01*
X13339210Y-12199144D02*
X13358258Y-12208668D01*
X13358258Y-12208668D02*
X13367782Y-12218191D01*
X13367782Y-12218191D02*
X13377305Y-12237239D01*
X13377305Y-12237239D02*
X13386829Y-12275334D01*
X13386829Y-12275334D02*
X13386829Y-12322953D01*
X13386829Y-12322953D02*
X13377305Y-12361048D01*
X13377305Y-12361048D02*
X13367782Y-12380096D01*
X13367782Y-12380096D02*
X13358258Y-12389620D01*
X13358258Y-12389620D02*
X13339210Y-12399144D01*
X13339210Y-12399144D02*
X13320162Y-12399144D01*
X13320162Y-12399144D02*
X13301115Y-12389620D01*
X13301115Y-12389620D02*
X13291591Y-12380096D01*
X13291591Y-12380096D02*
X13282067Y-12361048D01*
X13282067Y-12361048D02*
X13272543Y-12322953D01*
X13272543Y-12322953D02*
X13272543Y-12275334D01*
X13272543Y-12275334D02*
X13282067Y-12237239D01*
X13282067Y-12237239D02*
X13291591Y-12218191D01*
X13291591Y-12218191D02*
X13301115Y-12208668D01*
X13301115Y-12208668D02*
X13320162Y-12199144D01*
X13510639Y-12199144D02*
X13529686Y-12199144D01*
X13529686Y-12199144D02*
X13548734Y-12208668D01*
X13548734Y-12208668D02*
X13558258Y-12218191D01*
X13558258Y-12218191D02*
X13567782Y-12237239D01*
X13567782Y-12237239D02*
X13577305Y-12275334D01*
X13577305Y-12275334D02*
X13577305Y-12322953D01*
X13577305Y-12322953D02*
X13567782Y-12361048D01*
X13567782Y-12361048D02*
X13558258Y-12380096D01*
X13558258Y-12380096D02*
X13548734Y-12389620D01*
X13548734Y-12389620D02*
X13529686Y-12399144D01*
X13529686Y-12399144D02*
X13510639Y-12399144D01*
X13510639Y-12399144D02*
X13491591Y-12389620D01*
X13491591Y-12389620D02*
X13482067Y-12380096D01*
X13482067Y-12380096D02*
X13472543Y-12361048D01*
X13472543Y-12361048D02*
X13463020Y-12322953D01*
X13463020Y-12322953D02*
X13463020Y-12275334D01*
X13463020Y-12275334D02*
X13472543Y-12237239D01*
X13472543Y-12237239D02*
X13482067Y-12218191D01*
X13482067Y-12218191D02*
X13491591Y-12208668D01*
X13491591Y-12208668D02*
X13510639Y-12199144D01*
X13663020Y-12399144D02*
X13663020Y-12265810D01*
X13663020Y-12284858D02*
X13672543Y-12275334D01*
X13672543Y-12275334D02*
X13691591Y-12265810D01*
X13691591Y-12265810D02*
X13720163Y-12265810D01*
X13720163Y-12265810D02*
X13739210Y-12275334D01*
X13739210Y-12275334D02*
X13748734Y-12294382D01*
X13748734Y-12294382D02*
X13748734Y-12399144D01*
X13748734Y-12294382D02*
X13758258Y-12275334D01*
X13758258Y-12275334D02*
X13777305Y-12265810D01*
X13777305Y-12265810D02*
X13805877Y-12265810D01*
X13805877Y-12265810D02*
X13824924Y-12275334D01*
X13824924Y-12275334D02*
X13834448Y-12294382D01*
X13834448Y-12294382D02*
X13834448Y-12399144D01*
X13929686Y-12399144D02*
X13929686Y-12265810D01*
X13929686Y-12284858D02*
X13939210Y-12275334D01*
X13939210Y-12275334D02*
X13958258Y-12265810D01*
X13958258Y-12265810D02*
X13986829Y-12265810D01*
X13986829Y-12265810D02*
X14005877Y-12275334D01*
X14005877Y-12275334D02*
X14015401Y-12294382D01*
X14015401Y-12294382D02*
X14015401Y-12399144D01*
X14015401Y-12294382D02*
X14024924Y-12275334D01*
X14024924Y-12275334D02*
X14043972Y-12265810D01*
X14043972Y-12265810D02*
X14072543Y-12265810D01*
X14072543Y-12265810D02*
X14091591Y-12275334D01*
X14091591Y-12275334D02*
X14101115Y-12294382D01*
X14101115Y-12294382D02*
X14101115Y-12399144D01*
X14491591Y-12189620D02*
X14320163Y-12446763D01*
X14748734Y-12199144D02*
X14767782Y-12199144D01*
X14767782Y-12199144D02*
X14786829Y-12208668D01*
X14786829Y-12208668D02*
X14796353Y-12218191D01*
X14796353Y-12218191D02*
X14805877Y-12237239D01*
X14805877Y-12237239D02*
X14815401Y-12275334D01*
X14815401Y-12275334D02*
X14815401Y-12322953D01*
X14815401Y-12322953D02*
X14805877Y-12361048D01*
X14805877Y-12361048D02*
X14796353Y-12380096D01*
X14796353Y-12380096D02*
X14786829Y-12389620D01*
X14786829Y-12389620D02*
X14767782Y-12399144D01*
X14767782Y-12399144D02*
X14748734Y-12399144D01*
X14748734Y-12399144D02*
X14729686Y-12389620D01*
X14729686Y-12389620D02*
X14720163Y-12380096D01*
X14720163Y-12380096D02*
X14710639Y-12361048D01*
X14710639Y-12361048D02*
X14701115Y-12322953D01*
X14701115Y-12322953D02*
X14701115Y-12275334D01*
X14701115Y-12275334D02*
X14710639Y-12237239D01*
X14710639Y-12237239D02*
X14720163Y-12218191D01*
X14720163Y-12218191D02*
X14729686Y-12208668D01*
X14729686Y-12208668D02*
X14748734Y-12199144D01*
X14901115Y-12380096D02*
X14910639Y-12389620D01*
X14910639Y-12389620D02*
X14901115Y-12399144D01*
X14901115Y-12399144D02*
X14891591Y-12389620D01*
X14891591Y-12389620D02*
X14901115Y-12380096D01*
X14901115Y-12380096D02*
X14901115Y-12399144D01*
X15034448Y-12199144D02*
X15053496Y-12199144D01*
X15053496Y-12199144D02*
X15072544Y-12208668D01*
X15072544Y-12208668D02*
X15082067Y-12218191D01*
X15082067Y-12218191D02*
X15091591Y-12237239D01*
X15091591Y-12237239D02*
X15101115Y-12275334D01*
X15101115Y-12275334D02*
X15101115Y-12322953D01*
X15101115Y-12322953D02*
X15091591Y-12361048D01*
X15091591Y-12361048D02*
X15082067Y-12380096D01*
X15082067Y-12380096D02*
X15072544Y-12389620D01*
X15072544Y-12389620D02*
X15053496Y-12399144D01*
X15053496Y-12399144D02*
X15034448Y-12399144D01*
X15034448Y-12399144D02*
X15015401Y-12389620D01*
X15015401Y-12389620D02*
X15005877Y-12380096D01*
X15005877Y-12380096D02*
X14996353Y-12361048D01*
X14996353Y-12361048D02*
X14986829Y-12322953D01*
X14986829Y-12322953D02*
X14986829Y-12275334D01*
X14986829Y-12275334D02*
X14996353Y-12237239D01*
X14996353Y-12237239D02*
X15005877Y-12218191D01*
X15005877Y-12218191D02*
X15015401Y-12208668D01*
X15015401Y-12208668D02*
X15034448Y-12199144D01*
X15291591Y-12399144D02*
X15177306Y-12399144D01*
X15234448Y-12399144D02*
X15234448Y-12199144D01*
X15234448Y-12199144D02*
X15215401Y-12227715D01*
X15215401Y-12227715D02*
X15196353Y-12246763D01*
X15196353Y-12246763D02*
X15177306Y-12256287D01*
X15472544Y-12199144D02*
X15377306Y-12199144D01*
X15377306Y-12199144D02*
X15367782Y-12294382D01*
X15367782Y-12294382D02*
X15377306Y-12284858D01*
X15377306Y-12284858D02*
X15396353Y-12275334D01*
X15396353Y-12275334D02*
X15443972Y-12275334D01*
X15443972Y-12275334D02*
X15463020Y-12284858D01*
X15463020Y-12284858D02*
X15472544Y-12294382D01*
X15472544Y-12294382D02*
X15482067Y-12313429D01*
X15482067Y-12313429D02*
X15482067Y-12361048D01*
X15482067Y-12361048D02*
X15472544Y-12380096D01*
X15472544Y-12380096D02*
X15463020Y-12389620D01*
X15463020Y-12389620D02*
X15443972Y-12399144D01*
X15443972Y-12399144D02*
X15396353Y-12399144D01*
X15396353Y-12399144D02*
X15377306Y-12389620D01*
X15377306Y-12389620D02*
X15367782Y-12380096D01*
X15548734Y-12199144D02*
X15682067Y-12199144D01*
X15682067Y-12199144D02*
X15596353Y-12399144D01*
X15748734Y-12199144D02*
X15748734Y-12237239D01*
X15824925Y-12199144D02*
X15824925Y-12237239D01*
X16120163Y-12475334D02*
X16110639Y-12465810D01*
X16110639Y-12465810D02*
X16091591Y-12437239D01*
X16091591Y-12437239D02*
X16082068Y-12418191D01*
X16082068Y-12418191D02*
X16072544Y-12389620D01*
X16072544Y-12389620D02*
X16063020Y-12342001D01*
X16063020Y-12342001D02*
X16063020Y-12303906D01*
X16063020Y-12303906D02*
X16072544Y-12256287D01*
X16072544Y-12256287D02*
X16082068Y-12227715D01*
X16082068Y-12227715D02*
X16091591Y-12208668D01*
X16091591Y-12208668D02*
X16110639Y-12180096D01*
X16110639Y-12180096D02*
X16120163Y-12170572D01*
X16291591Y-12199144D02*
X16196353Y-12199144D01*
X16196353Y-12199144D02*
X16186829Y-12294382D01*
X16186829Y-12294382D02*
X16196353Y-12284858D01*
X16196353Y-12284858D02*
X16215401Y-12275334D01*
X16215401Y-12275334D02*
X16263020Y-12275334D01*
X16263020Y-12275334D02*
X16282068Y-12284858D01*
X16282068Y-12284858D02*
X16291591Y-12294382D01*
X16291591Y-12294382D02*
X16301115Y-12313429D01*
X16301115Y-12313429D02*
X16301115Y-12361048D01*
X16301115Y-12361048D02*
X16291591Y-12380096D01*
X16291591Y-12380096D02*
X16282068Y-12389620D01*
X16282068Y-12389620D02*
X16263020Y-12399144D01*
X16263020Y-12399144D02*
X16215401Y-12399144D01*
X16215401Y-12399144D02*
X16196353Y-12389620D01*
X16196353Y-12389620D02*
X16186829Y-12380096D01*
X16539210Y-12399144D02*
X16539210Y-12199144D01*
X16624925Y-12399144D02*
X16624925Y-12294382D01*
X16624925Y-12294382D02*
X16615401Y-12275334D01*
X16615401Y-12275334D02*
X16596353Y-12265810D01*
X16596353Y-12265810D02*
X16567782Y-12265810D01*
X16567782Y-12265810D02*
X16548734Y-12275334D01*
X16548734Y-12275334D02*
X16539210Y-12284858D01*
X16748734Y-12399144D02*
X16729687Y-12389620D01*
X16729687Y-12389620D02*
X16720163Y-12380096D01*
X16720163Y-12380096D02*
X16710639Y-12361048D01*
X16710639Y-12361048D02*
X16710639Y-12303906D01*
X16710639Y-12303906D02*
X16720163Y-12284858D01*
X16720163Y-12284858D02*
X16729687Y-12275334D01*
X16729687Y-12275334D02*
X16748734Y-12265810D01*
X16748734Y-12265810D02*
X16777306Y-12265810D01*
X16777306Y-12265810D02*
X16796353Y-12275334D01*
X16796353Y-12275334D02*
X16805877Y-12284858D01*
X16805877Y-12284858D02*
X16815401Y-12303906D01*
X16815401Y-12303906D02*
X16815401Y-12361048D01*
X16815401Y-12361048D02*
X16805877Y-12380096D01*
X16805877Y-12380096D02*
X16796353Y-12389620D01*
X16796353Y-12389620D02*
X16777306Y-12399144D01*
X16777306Y-12399144D02*
X16748734Y-12399144D01*
X16929687Y-12399144D02*
X16910639Y-12389620D01*
X16910639Y-12389620D02*
X16901115Y-12370572D01*
X16901115Y-12370572D02*
X16901115Y-12199144D01*
X17082068Y-12389620D02*
X17063020Y-12399144D01*
X17063020Y-12399144D02*
X17024925Y-12399144D01*
X17024925Y-12399144D02*
X17005877Y-12389620D01*
X17005877Y-12389620D02*
X16996353Y-12370572D01*
X16996353Y-12370572D02*
X16996353Y-12294382D01*
X16996353Y-12294382D02*
X17005877Y-12275334D01*
X17005877Y-12275334D02*
X17024925Y-12265810D01*
X17024925Y-12265810D02*
X17063020Y-12265810D01*
X17063020Y-12265810D02*
X17082068Y-12275334D01*
X17082068Y-12275334D02*
X17091592Y-12294382D01*
X17091592Y-12294382D02*
X17091592Y-12313429D01*
X17091592Y-12313429D02*
X16996353Y-12332477D01*
X17167782Y-12389620D02*
X17186830Y-12399144D01*
X17186830Y-12399144D02*
X17224925Y-12399144D01*
X17224925Y-12399144D02*
X17243973Y-12389620D01*
X17243973Y-12389620D02*
X17253496Y-12370572D01*
X17253496Y-12370572D02*
X17253496Y-12361048D01*
X17253496Y-12361048D02*
X17243973Y-12342001D01*
X17243973Y-12342001D02*
X17224925Y-12332477D01*
X17224925Y-12332477D02*
X17196353Y-12332477D01*
X17196353Y-12332477D02*
X17177306Y-12322953D01*
X17177306Y-12322953D02*
X17167782Y-12303906D01*
X17167782Y-12303906D02*
X17167782Y-12294382D01*
X17167782Y-12294382D02*
X17177306Y-12275334D01*
X17177306Y-12275334D02*
X17196353Y-12265810D01*
X17196353Y-12265810D02*
X17224925Y-12265810D01*
X17224925Y-12265810D02*
X17243973Y-12275334D01*
X17320163Y-12475334D02*
X17329687Y-12465810D01*
X17329687Y-12465810D02*
X17348734Y-12437239D01*
X17348734Y-12437239D02*
X17358258Y-12418191D01*
X17358258Y-12418191D02*
X17367782Y-12389620D01*
X17367782Y-12389620D02*
X17377306Y-12342001D01*
X17377306Y-12342001D02*
X17377306Y-12303906D01*
X17377306Y-12303906D02*
X17367782Y-12256287D01*
X17367782Y-12256287D02*
X17358258Y-12227715D01*
X17358258Y-12227715D02*
X17348734Y-12208668D01*
X17348734Y-12208668D02*
X17329687Y-12180096D01*
X17329687Y-12180096D02*
X17320163Y-12170572D01*
D12*
X12545100Y-12571660D02*
G75*
G02*
X12445100Y-12571660I-50000J0D01*
G01*
X12445100Y-12571660D02*
G75*
G02*
X12545100Y-12571660I50000J0D01*
G01*
D11*
X12910639Y-12663144D02*
X12796353Y-12663144D01*
X12853496Y-12663144D02*
X12853496Y-12463144D01*
X12853496Y-12463144D02*
X12834448Y-12491715D01*
X12834448Y-12491715D02*
X12815401Y-12510763D01*
X12815401Y-12510763D02*
X12796353Y-12520287D01*
X12996353Y-12644096D02*
X13005877Y-12653620D01*
X13005877Y-12653620D02*
X12996353Y-12663144D01*
X12996353Y-12663144D02*
X12986829Y-12653620D01*
X12986829Y-12653620D02*
X12996353Y-12644096D01*
X12996353Y-12644096D02*
X12996353Y-12663144D01*
X13129686Y-12463144D02*
X13148734Y-12463144D01*
X13148734Y-12463144D02*
X13167782Y-12472668D01*
X13167782Y-12472668D02*
X13177305Y-12482191D01*
X13177305Y-12482191D02*
X13186829Y-12501239D01*
X13186829Y-12501239D02*
X13196353Y-12539334D01*
X13196353Y-12539334D02*
X13196353Y-12586953D01*
X13196353Y-12586953D02*
X13186829Y-12625048D01*
X13186829Y-12625048D02*
X13177305Y-12644096D01*
X13177305Y-12644096D02*
X13167782Y-12653620D01*
X13167782Y-12653620D02*
X13148734Y-12663144D01*
X13148734Y-12663144D02*
X13129686Y-12663144D01*
X13129686Y-12663144D02*
X13110639Y-12653620D01*
X13110639Y-12653620D02*
X13101115Y-12644096D01*
X13101115Y-12644096D02*
X13091591Y-12625048D01*
X13091591Y-12625048D02*
X13082067Y-12586953D01*
X13082067Y-12586953D02*
X13082067Y-12539334D01*
X13082067Y-12539334D02*
X13091591Y-12501239D01*
X13091591Y-12501239D02*
X13101115Y-12482191D01*
X13101115Y-12482191D02*
X13110639Y-12472668D01*
X13110639Y-12472668D02*
X13129686Y-12463144D01*
X13320162Y-12463144D02*
X13339210Y-12463144D01*
X13339210Y-12463144D02*
X13358258Y-12472668D01*
X13358258Y-12472668D02*
X13367782Y-12482191D01*
X13367782Y-12482191D02*
X13377305Y-12501239D01*
X13377305Y-12501239D02*
X13386829Y-12539334D01*
X13386829Y-12539334D02*
X13386829Y-12586953D01*
X13386829Y-12586953D02*
X13377305Y-12625048D01*
X13377305Y-12625048D02*
X13367782Y-12644096D01*
X13367782Y-12644096D02*
X13358258Y-12653620D01*
X13358258Y-12653620D02*
X13339210Y-12663144D01*
X13339210Y-12663144D02*
X13320162Y-12663144D01*
X13320162Y-12663144D02*
X13301115Y-12653620D01*
X13301115Y-12653620D02*
X13291591Y-12644096D01*
X13291591Y-12644096D02*
X13282067Y-12625048D01*
X13282067Y-12625048D02*
X13272543Y-12586953D01*
X13272543Y-12586953D02*
X13272543Y-12539334D01*
X13272543Y-12539334D02*
X13282067Y-12501239D01*
X13282067Y-12501239D02*
X13291591Y-12482191D01*
X13291591Y-12482191D02*
X13301115Y-12472668D01*
X13301115Y-12472668D02*
X13320162Y-12463144D01*
X13510639Y-12463144D02*
X13529686Y-12463144D01*
X13529686Y-12463144D02*
X13548734Y-12472668D01*
X13548734Y-12472668D02*
X13558258Y-12482191D01*
X13558258Y-12482191D02*
X13567782Y-12501239D01*
X13567782Y-12501239D02*
X13577305Y-12539334D01*
X13577305Y-12539334D02*
X13577305Y-12586953D01*
X13577305Y-12586953D02*
X13567782Y-12625048D01*
X13567782Y-12625048D02*
X13558258Y-12644096D01*
X13558258Y-12644096D02*
X13548734Y-12653620D01*
X13548734Y-12653620D02*
X13529686Y-12663144D01*
X13529686Y-12663144D02*
X13510639Y-12663144D01*
X13510639Y-12663144D02*
X13491591Y-12653620D01*
X13491591Y-12653620D02*
X13482067Y-12644096D01*
X13482067Y-12644096D02*
X13472543Y-12625048D01*
X13472543Y-12625048D02*
X13463020Y-12586953D01*
X13463020Y-12586953D02*
X13463020Y-12539334D01*
X13463020Y-12539334D02*
X13472543Y-12501239D01*
X13472543Y-12501239D02*
X13482067Y-12482191D01*
X13482067Y-12482191D02*
X13491591Y-12472668D01*
X13491591Y-12472668D02*
X13510639Y-12463144D01*
X13663020Y-12663144D02*
X13663020Y-12529810D01*
X13663020Y-12548858D02*
X13672543Y-12539334D01*
X13672543Y-12539334D02*
X13691591Y-12529810D01*
X13691591Y-12529810D02*
X13720163Y-12529810D01*
X13720163Y-12529810D02*
X13739210Y-12539334D01*
X13739210Y-12539334D02*
X13748734Y-12558382D01*
X13748734Y-12558382D02*
X13748734Y-12663144D01*
X13748734Y-12558382D02*
X13758258Y-12539334D01*
X13758258Y-12539334D02*
X13777305Y-12529810D01*
X13777305Y-12529810D02*
X13805877Y-12529810D01*
X13805877Y-12529810D02*
X13824924Y-12539334D01*
X13824924Y-12539334D02*
X13834448Y-12558382D01*
X13834448Y-12558382D02*
X13834448Y-12663144D01*
X13929686Y-12663144D02*
X13929686Y-12529810D01*
X13929686Y-12548858D02*
X13939210Y-12539334D01*
X13939210Y-12539334D02*
X13958258Y-12529810D01*
X13958258Y-12529810D02*
X13986829Y-12529810D01*
X13986829Y-12529810D02*
X14005877Y-12539334D01*
X14005877Y-12539334D02*
X14015401Y-12558382D01*
X14015401Y-12558382D02*
X14015401Y-12663144D01*
X14015401Y-12558382D02*
X14024924Y-12539334D01*
X14024924Y-12539334D02*
X14043972Y-12529810D01*
X14043972Y-12529810D02*
X14072543Y-12529810D01*
X14072543Y-12529810D02*
X14091591Y-12539334D01*
X14091591Y-12539334D02*
X14101115Y-12558382D01*
X14101115Y-12558382D02*
X14101115Y-12663144D01*
X14491591Y-12453620D02*
X14320163Y-12710763D01*
X14748734Y-12463144D02*
X14767782Y-12463144D01*
X14767782Y-12463144D02*
X14786829Y-12472668D01*
X14786829Y-12472668D02*
X14796353Y-12482191D01*
X14796353Y-12482191D02*
X14805877Y-12501239D01*
X14805877Y-12501239D02*
X14815401Y-12539334D01*
X14815401Y-12539334D02*
X14815401Y-12586953D01*
X14815401Y-12586953D02*
X14805877Y-12625048D01*
X14805877Y-12625048D02*
X14796353Y-12644096D01*
X14796353Y-12644096D02*
X14786829Y-12653620D01*
X14786829Y-12653620D02*
X14767782Y-12663144D01*
X14767782Y-12663144D02*
X14748734Y-12663144D01*
X14748734Y-12663144D02*
X14729686Y-12653620D01*
X14729686Y-12653620D02*
X14720163Y-12644096D01*
X14720163Y-12644096D02*
X14710639Y-12625048D01*
X14710639Y-12625048D02*
X14701115Y-12586953D01*
X14701115Y-12586953D02*
X14701115Y-12539334D01*
X14701115Y-12539334D02*
X14710639Y-12501239D01*
X14710639Y-12501239D02*
X14720163Y-12482191D01*
X14720163Y-12482191D02*
X14729686Y-12472668D01*
X14729686Y-12472668D02*
X14748734Y-12463144D01*
X14901115Y-12644096D02*
X14910639Y-12653620D01*
X14910639Y-12653620D02*
X14901115Y-12663144D01*
X14901115Y-12663144D02*
X14891591Y-12653620D01*
X14891591Y-12653620D02*
X14901115Y-12644096D01*
X14901115Y-12644096D02*
X14901115Y-12663144D01*
X15034448Y-12463144D02*
X15053496Y-12463144D01*
X15053496Y-12463144D02*
X15072544Y-12472668D01*
X15072544Y-12472668D02*
X15082067Y-12482191D01*
X15082067Y-12482191D02*
X15091591Y-12501239D01*
X15091591Y-12501239D02*
X15101115Y-12539334D01*
X15101115Y-12539334D02*
X15101115Y-12586953D01*
X15101115Y-12586953D02*
X15091591Y-12625048D01*
X15091591Y-12625048D02*
X15082067Y-12644096D01*
X15082067Y-12644096D02*
X15072544Y-12653620D01*
X15072544Y-12653620D02*
X15053496Y-12663144D01*
X15053496Y-12663144D02*
X15034448Y-12663144D01*
X15034448Y-12663144D02*
X15015401Y-12653620D01*
X15015401Y-12653620D02*
X15005877Y-12644096D01*
X15005877Y-12644096D02*
X14996353Y-12625048D01*
X14996353Y-12625048D02*
X14986829Y-12586953D01*
X14986829Y-12586953D02*
X14986829Y-12539334D01*
X14986829Y-12539334D02*
X14996353Y-12501239D01*
X14996353Y-12501239D02*
X15005877Y-12482191D01*
X15005877Y-12482191D02*
X15015401Y-12472668D01*
X15015401Y-12472668D02*
X15034448Y-12463144D01*
X15167782Y-12463144D02*
X15291591Y-12463144D01*
X15291591Y-12463144D02*
X15224925Y-12539334D01*
X15224925Y-12539334D02*
X15253496Y-12539334D01*
X15253496Y-12539334D02*
X15272544Y-12548858D01*
X15272544Y-12548858D02*
X15282067Y-12558382D01*
X15282067Y-12558382D02*
X15291591Y-12577429D01*
X15291591Y-12577429D02*
X15291591Y-12625048D01*
X15291591Y-12625048D02*
X15282067Y-12644096D01*
X15282067Y-12644096D02*
X15272544Y-12653620D01*
X15272544Y-12653620D02*
X15253496Y-12663144D01*
X15253496Y-12663144D02*
X15196353Y-12663144D01*
X15196353Y-12663144D02*
X15177306Y-12653620D01*
X15177306Y-12653620D02*
X15167782Y-12644096D01*
X15386829Y-12663144D02*
X15424925Y-12663144D01*
X15424925Y-12663144D02*
X15443972Y-12653620D01*
X15443972Y-12653620D02*
X15453496Y-12644096D01*
X15453496Y-12644096D02*
X15472544Y-12615525D01*
X15472544Y-12615525D02*
X15482067Y-12577429D01*
X15482067Y-12577429D02*
X15482067Y-12501239D01*
X15482067Y-12501239D02*
X15472544Y-12482191D01*
X15472544Y-12482191D02*
X15463020Y-12472668D01*
X15463020Y-12472668D02*
X15443972Y-12463144D01*
X15443972Y-12463144D02*
X15405877Y-12463144D01*
X15405877Y-12463144D02*
X15386829Y-12472668D01*
X15386829Y-12472668D02*
X15377306Y-12482191D01*
X15377306Y-12482191D02*
X15367782Y-12501239D01*
X15367782Y-12501239D02*
X15367782Y-12548858D01*
X15367782Y-12548858D02*
X15377306Y-12567906D01*
X15377306Y-12567906D02*
X15386829Y-12577429D01*
X15386829Y-12577429D02*
X15405877Y-12586953D01*
X15405877Y-12586953D02*
X15443972Y-12586953D01*
X15443972Y-12586953D02*
X15463020Y-12577429D01*
X15463020Y-12577429D02*
X15472544Y-12567906D01*
X15472544Y-12567906D02*
X15482067Y-12548858D01*
X15653496Y-12529810D02*
X15653496Y-12663144D01*
X15605877Y-12453620D02*
X15558258Y-12596477D01*
X15558258Y-12596477D02*
X15682067Y-12596477D01*
X15748734Y-12463144D02*
X15748734Y-12501239D01*
X15824925Y-12463144D02*
X15824925Y-12501239D01*
X16120163Y-12739334D02*
X16110639Y-12729810D01*
X16110639Y-12729810D02*
X16091591Y-12701239D01*
X16091591Y-12701239D02*
X16082068Y-12682191D01*
X16082068Y-12682191D02*
X16072544Y-12653620D01*
X16072544Y-12653620D02*
X16063020Y-12606001D01*
X16063020Y-12606001D02*
X16063020Y-12567906D01*
X16063020Y-12567906D02*
X16072544Y-12520287D01*
X16072544Y-12520287D02*
X16082068Y-12491715D01*
X16082068Y-12491715D02*
X16091591Y-12472668D01*
X16091591Y-12472668D02*
X16110639Y-12444096D01*
X16110639Y-12444096D02*
X16120163Y-12434572D01*
X16282068Y-12463144D02*
X16243972Y-12463144D01*
X16243972Y-12463144D02*
X16224925Y-12472668D01*
X16224925Y-12472668D02*
X16215401Y-12482191D01*
X16215401Y-12482191D02*
X16196353Y-12510763D01*
X16196353Y-12510763D02*
X16186829Y-12548858D01*
X16186829Y-12548858D02*
X16186829Y-12625048D01*
X16186829Y-12625048D02*
X16196353Y-12644096D01*
X16196353Y-12644096D02*
X16205877Y-12653620D01*
X16205877Y-12653620D02*
X16224925Y-12663144D01*
X16224925Y-12663144D02*
X16263020Y-12663144D01*
X16263020Y-12663144D02*
X16282068Y-12653620D01*
X16282068Y-12653620D02*
X16291591Y-12644096D01*
X16291591Y-12644096D02*
X16301115Y-12625048D01*
X16301115Y-12625048D02*
X16301115Y-12577429D01*
X16301115Y-12577429D02*
X16291591Y-12558382D01*
X16291591Y-12558382D02*
X16282068Y-12548858D01*
X16282068Y-12548858D02*
X16263020Y-12539334D01*
X16263020Y-12539334D02*
X16224925Y-12539334D01*
X16224925Y-12539334D02*
X16205877Y-12548858D01*
X16205877Y-12548858D02*
X16196353Y-12558382D01*
X16196353Y-12558382D02*
X16186829Y-12577429D01*
X16367782Y-12463144D02*
X16501115Y-12463144D01*
X16501115Y-12463144D02*
X16415401Y-12663144D01*
X16729687Y-12663144D02*
X16729687Y-12463144D01*
X16815401Y-12663144D02*
X16815401Y-12558382D01*
X16815401Y-12558382D02*
X16805877Y-12539334D01*
X16805877Y-12539334D02*
X16786830Y-12529810D01*
X16786830Y-12529810D02*
X16758258Y-12529810D01*
X16758258Y-12529810D02*
X16739210Y-12539334D01*
X16739210Y-12539334D02*
X16729687Y-12548858D01*
X16939211Y-12663144D02*
X16920163Y-12653620D01*
X16920163Y-12653620D02*
X16910639Y-12644096D01*
X16910639Y-12644096D02*
X16901115Y-12625048D01*
X16901115Y-12625048D02*
X16901115Y-12567906D01*
X16901115Y-12567906D02*
X16910639Y-12548858D01*
X16910639Y-12548858D02*
X16920163Y-12539334D01*
X16920163Y-12539334D02*
X16939211Y-12529810D01*
X16939211Y-12529810D02*
X16967782Y-12529810D01*
X16967782Y-12529810D02*
X16986830Y-12539334D01*
X16986830Y-12539334D02*
X16996353Y-12548858D01*
X16996353Y-12548858D02*
X17005877Y-12567906D01*
X17005877Y-12567906D02*
X17005877Y-12625048D01*
X17005877Y-12625048D02*
X16996353Y-12644096D01*
X16996353Y-12644096D02*
X16986830Y-12653620D01*
X16986830Y-12653620D02*
X16967782Y-12663144D01*
X16967782Y-12663144D02*
X16939211Y-12663144D01*
X17120163Y-12663144D02*
X17101115Y-12653620D01*
X17101115Y-12653620D02*
X17091592Y-12634572D01*
X17091592Y-12634572D02*
X17091592Y-12463144D01*
X17272544Y-12653620D02*
X17253496Y-12663144D01*
X17253496Y-12663144D02*
X17215401Y-12663144D01*
X17215401Y-12663144D02*
X17196353Y-12653620D01*
X17196353Y-12653620D02*
X17186830Y-12634572D01*
X17186830Y-12634572D02*
X17186830Y-12558382D01*
X17186830Y-12558382D02*
X17196353Y-12539334D01*
X17196353Y-12539334D02*
X17215401Y-12529810D01*
X17215401Y-12529810D02*
X17253496Y-12529810D01*
X17253496Y-12529810D02*
X17272544Y-12539334D01*
X17272544Y-12539334D02*
X17282068Y-12558382D01*
X17282068Y-12558382D02*
X17282068Y-12577429D01*
X17282068Y-12577429D02*
X17186830Y-12596477D01*
X17358258Y-12653620D02*
X17377306Y-12663144D01*
X17377306Y-12663144D02*
X17415401Y-12663144D01*
X17415401Y-12663144D02*
X17434449Y-12653620D01*
X17434449Y-12653620D02*
X17443973Y-12634572D01*
X17443973Y-12634572D02*
X17443973Y-12625048D01*
X17443973Y-12625048D02*
X17434449Y-12606001D01*
X17434449Y-12606001D02*
X17415401Y-12596477D01*
X17415401Y-12596477D02*
X17386830Y-12596477D01*
X17386830Y-12596477D02*
X17367782Y-12586953D01*
X17367782Y-12586953D02*
X17358258Y-12567906D01*
X17358258Y-12567906D02*
X17358258Y-12558382D01*
X17358258Y-12558382D02*
X17367782Y-12539334D01*
X17367782Y-12539334D02*
X17386830Y-12529810D01*
X17386830Y-12529810D02*
X17415401Y-12529810D01*
X17415401Y-12529810D02*
X17434449Y-12539334D01*
X17510639Y-12739334D02*
X17520163Y-12729810D01*
X17520163Y-12729810D02*
X17539211Y-12701239D01*
X17539211Y-12701239D02*
X17548734Y-12682191D01*
X17548734Y-12682191D02*
X17558258Y-12653620D01*
X17558258Y-12653620D02*
X17567782Y-12606001D01*
X17567782Y-12606001D02*
X17567782Y-12567906D01*
X17567782Y-12567906D02*
X17558258Y-12520287D01*
X17558258Y-12520287D02*
X17548734Y-12491715D01*
X17548734Y-12491715D02*
X17539211Y-12472668D01*
X17539211Y-12472668D02*
X17520163Y-12444096D01*
X17520163Y-12444096D02*
X17510639Y-12434572D01*
M02*
