%TF.GenerationSoftware,KiCad,Pcbnew,9.0.6*%
%TF.CreationDate,2026-05-17T12:56:21+05:30*%
%TF.ProjectId,project,70726f6a-6563-4742-9e6b-696361645f70,1*%
%TF.SameCoordinates,Original*%
%TF.FileFunction,Drillmap*%
%TF.FilePolarity,Positive*%
%FSLAX45Y45*%
G04 Gerber Fmt 4.5, Leading zero omitted, Abs format (unit mm)*
G04 Created by KiCad (PCBNEW 9.0.6) date 2026-05-17 12:56:21*
%MOMM*%
%LPD*%
G01*
G04 APERTURE LIST*
%ADD10C,0.050000*%
%ADD11C,0.200000*%
G04 APERTURE END LIST*
D10*
X12547600Y-11665160D02*
X12547600Y-8625160D01*
X12547600Y-8625160D02*
X16004540Y-8625160D01*
X16004540Y-8625160D02*
X16004540Y-11665160D01*
X16004540Y-11665160D02*
X12547600Y-11665160D01*
D11*
X12805877Y-11979144D02*
X12805877Y-11779144D01*
X12805877Y-11779144D02*
X12853496Y-11779144D01*
X12853496Y-11779144D02*
X12882067Y-11788668D01*
X12882067Y-11788668D02*
X12901115Y-11807715D01*
X12901115Y-11807715D02*
X12910639Y-11826763D01*
X12910639Y-11826763D02*
X12920162Y-11864858D01*
X12920162Y-11864858D02*
X12920162Y-11893429D01*
X12920162Y-11893429D02*
X12910639Y-11931525D01*
X12910639Y-11931525D02*
X12901115Y-11950572D01*
X12901115Y-11950572D02*
X12882067Y-11969620D01*
X12882067Y-11969620D02*
X12853496Y-11979144D01*
X12853496Y-11979144D02*
X12805877Y-11979144D01*
X13005877Y-11979144D02*
X13005877Y-11845810D01*
X13005877Y-11883906D02*
X13015401Y-11864858D01*
X13015401Y-11864858D02*
X13024924Y-11855334D01*
X13024924Y-11855334D02*
X13043972Y-11845810D01*
X13043972Y-11845810D02*
X13063020Y-11845810D01*
X13129686Y-11979144D02*
X13129686Y-11845810D01*
X13129686Y-11779144D02*
X13120162Y-11788668D01*
X13120162Y-11788668D02*
X13129686Y-11798191D01*
X13129686Y-11798191D02*
X13139210Y-11788668D01*
X13139210Y-11788668D02*
X13129686Y-11779144D01*
X13129686Y-11779144D02*
X13129686Y-11798191D01*
X13253496Y-11979144D02*
X13234448Y-11969620D01*
X13234448Y-11969620D02*
X13224924Y-11950572D01*
X13224924Y-11950572D02*
X13224924Y-11779144D01*
X13358258Y-11979144D02*
X13339210Y-11969620D01*
X13339210Y-11969620D02*
X13329686Y-11950572D01*
X13329686Y-11950572D02*
X13329686Y-11779144D01*
X13586829Y-11979144D02*
X13586829Y-11779144D01*
X13586829Y-11779144D02*
X13653496Y-11922001D01*
X13653496Y-11922001D02*
X13720162Y-11779144D01*
X13720162Y-11779144D02*
X13720162Y-11979144D01*
X13901115Y-11979144D02*
X13901115Y-11874382D01*
X13901115Y-11874382D02*
X13891591Y-11855334D01*
X13891591Y-11855334D02*
X13872543Y-11845810D01*
X13872543Y-11845810D02*
X13834448Y-11845810D01*
X13834448Y-11845810D02*
X13815401Y-11855334D01*
X13901115Y-11969620D02*
X13882067Y-11979144D01*
X13882067Y-11979144D02*
X13834448Y-11979144D01*
X13834448Y-11979144D02*
X13815401Y-11969620D01*
X13815401Y-11969620D02*
X13805877Y-11950572D01*
X13805877Y-11950572D02*
X13805877Y-11931525D01*
X13805877Y-11931525D02*
X13815401Y-11912477D01*
X13815401Y-11912477D02*
X13834448Y-11902953D01*
X13834448Y-11902953D02*
X13882067Y-11902953D01*
X13882067Y-11902953D02*
X13901115Y-11893429D01*
X13996353Y-11845810D02*
X13996353Y-12045810D01*
X13996353Y-11855334D02*
X14015401Y-11845810D01*
X14015401Y-11845810D02*
X14053496Y-11845810D01*
X14053496Y-11845810D02*
X14072543Y-11855334D01*
X14072543Y-11855334D02*
X14082067Y-11864858D01*
X14082067Y-11864858D02*
X14091591Y-11883906D01*
X14091591Y-11883906D02*
X14091591Y-11941048D01*
X14091591Y-11941048D02*
X14082067Y-11960096D01*
X14082067Y-11960096D02*
X14072543Y-11969620D01*
X14072543Y-11969620D02*
X14053496Y-11979144D01*
X14053496Y-11979144D02*
X14015401Y-11979144D01*
X14015401Y-11979144D02*
X13996353Y-11969620D01*
X14177305Y-11960096D02*
X14186829Y-11969620D01*
X14186829Y-11969620D02*
X14177305Y-11979144D01*
X14177305Y-11979144D02*
X14167782Y-11969620D01*
X14167782Y-11969620D02*
X14177305Y-11960096D01*
X14177305Y-11960096D02*
X14177305Y-11979144D01*
X14177305Y-11855334D02*
X14186829Y-11864858D01*
X14186829Y-11864858D02*
X14177305Y-11874382D01*
X14177305Y-11874382D02*
X14167782Y-11864858D01*
X14167782Y-11864858D02*
X14177305Y-11855334D01*
X14177305Y-11855334D02*
X14177305Y-11874382D01*
M02*
