%TF.GenerationSoftware,KiCad,Pcbnew,9.0.6*%
%TF.CreationDate,2026-05-17T12:56:21+05:30*%
%TF.ProjectId,project,70726f6a-6563-4742-9e6b-696361645f70,1*%
%TF.SameCoordinates,Original*%
%TF.FileFunction,Plated,1,2,PTH,Drill*%
%TF.FilePolarity,Positive*%
%FSLAX46Y46*%
G04 Gerber Fmt 4.6, Leading zero omitted, Abs format (unit mm)*
G04 Created by KiCad (PCBNEW 9.0.6) date 2026-05-17 12:56:21*
%MOMM*%
%LPD*%
G01*
G04 APERTURE LIST*
%TA.AperFunction,ViaDrill*%
%ADD10C,0.400000*%
%TD*%
%TA.AperFunction,ComponentDrill*%
%ADD11C,1.000000*%
%TD*%
G04 APERTURE END LIST*
D10*
X131825999Y-110716001D03*
X140340400Y-108301600D03*
X142990400Y-112251600D03*
X145390400Y-101501600D03*
X145990400Y-108251600D03*
D11*
%TO.C,J1*%
X127508000Y-88392000D03*
X127508000Y-90932000D03*
X127508000Y-93472000D03*
X127508000Y-96012000D03*
X127508000Y-98552000D03*
X127508000Y-101092000D03*
X127508000Y-103632000D03*
X127508000Y-106172000D03*
X127508000Y-108712000D03*
%TO.C,J6*%
X127510400Y-114601600D03*
%TO.C,J1*%
X130048000Y-88392000D03*
X130048000Y-90932000D03*
X130048000Y-93472000D03*
X130048000Y-96012000D03*
X130048000Y-98552000D03*
X130048000Y-101092000D03*
X130048000Y-103632000D03*
X130048000Y-106172000D03*
X130048000Y-108712000D03*
%TO.C,J6*%
X130050400Y-114601600D03*
X132590400Y-114601600D03*
%TO.C,J3*%
X136777400Y-96841000D03*
X136777400Y-99381000D03*
X136777400Y-101921000D03*
X136777400Y-104461000D03*
X136777400Y-107001000D03*
X136777400Y-109541000D03*
X136777400Y-112081000D03*
X136777400Y-114621000D03*
%TO.C,J5*%
X137040400Y-88161600D03*
X137040400Y-90701600D03*
X139580400Y-88161600D03*
X139580400Y-90701600D03*
X142120400Y-88161600D03*
X142120400Y-90701600D03*
X144660400Y-88161600D03*
X144660400Y-90701600D03*
X147200400Y-88161600D03*
X147200400Y-90701600D03*
%TO.C,J4*%
X149553600Y-96841000D03*
X149553600Y-99381000D03*
X149553600Y-101921000D03*
X149553600Y-104461000D03*
X149553600Y-107001000D03*
X149553600Y-109541000D03*
X149553600Y-112081000D03*
X149553600Y-114621000D03*
%TO.C,J5*%
X149740400Y-88161600D03*
X149740400Y-90701600D03*
%TO.C,J2*%
X155440400Y-88381600D03*
X155440400Y-90921600D03*
X155440400Y-93461600D03*
X155440400Y-96001600D03*
X155440400Y-98541600D03*
X155440400Y-101081600D03*
X155440400Y-103621600D03*
X155440400Y-106161600D03*
X155440400Y-108701600D03*
X157980400Y-88381600D03*
X157980400Y-90921600D03*
X157980400Y-93461600D03*
X157980400Y-96001600D03*
X157980400Y-98541600D03*
X157980400Y-101081600D03*
X157980400Y-103621600D03*
X157980400Y-106161600D03*
X157980400Y-108701600D03*
M02*
