%TF.GenerationSoftware,KiCad,Pcbnew,10.0.3*%
%TF.CreationDate,2026-06-09T15:28:26+05:30*%
%TF.ProjectId,LoRaFlux RF HAT,4c6f5261-466c-4757-9820-524620484154,rev?*%
%TF.SameCoordinates,Original*%
%TF.FileFunction,Soldermask,Top*%
%TF.FilePolarity,Negative*%
%FSLAX46Y46*%
G04 Gerber Fmt 4.6, Leading zero omitted, Abs format (unit mm)*
G04 Created by KiCad (PCBNEW 10.0.3) date 2026-06-09 15:28:26*
%MOMM*%
%LPD*%
G01*
G04 APERTURE LIST*
G04 Aperture macros list*
%AMRoundRect*
0 Rectangle with rounded corners*
0 $1 Rounding radius*
0 $2 $3 $4 $5 $6 $7 $8 $9 X,Y pos of 4 corners*
0 Add a 4 corners polygon primitive as box body*
4,1,4,$2,$3,$4,$5,$6,$7,$8,$9,$2,$3,0*
0 Add four circle primitives for the rounded corners*
1,1,$1+$1,$2,$3*
1,1,$1+$1,$4,$5*
1,1,$1+$1,$6,$7*
1,1,$1+$1,$8,$9*
0 Add four rect primitives between the rounded corners*
20,1,$1+$1,$2,$3,$4,$5,0*
20,1,$1+$1,$4,$5,$6,$7,0*
20,1,$1+$1,$6,$7,$8,$9,0*
20,1,$1+$1,$8,$9,$2,$3,0*%
G04 Aperture macros list end*
%ADD10C,0.300000*%
%ADD11RoundRect,0.225000X-0.225000X-0.250000X0.225000X-0.250000X0.225000X0.250000X-0.225000X0.250000X0*%
%ADD12RoundRect,0.200000X0.275000X-0.200000X0.275000X0.200000X-0.275000X0.200000X-0.275000X-0.200000X0*%
%ADD13RoundRect,0.225000X-0.250000X0.225000X-0.250000X-0.225000X0.250000X-0.225000X0.250000X0.225000X0*%
%ADD14C,2.700000*%
%ADD15C,2.050000*%
%ADD16C,2.250000*%
%ADD17RoundRect,0.200000X-0.200000X-0.275000X0.200000X-0.275000X0.200000X0.275000X-0.200000X0.275000X0*%
%ADD18RoundRect,0.218750X-0.256250X0.218750X-0.256250X-0.218750X0.256250X-0.218750X0.256250X0.218750X0*%
%ADD19R,0.900000X0.800000*%
%ADD20R,0.850000X0.300000*%
%ADD21R,0.300000X0.850000*%
%ADD22R,3.200000X3.200000*%
%ADD23RoundRect,0.225000X0.250000X-0.225000X0.250000X0.225000X-0.250000X0.225000X-0.250000X-0.225000X0*%
%ADD24RoundRect,0.218750X-0.218750X-0.256250X0.218750X-0.256250X0.218750X0.256250X-0.218750X0.256250X0*%
%ADD25R,1.700000X1.700000*%
%ADD26O,1.700000X1.700000*%
G04 APERTURE END LIST*
D10*
G36*
X143883507Y-97493776D02*
G01*
X143957735Y-97516320D01*
X144026653Y-97553912D01*
X144091373Y-97607907D01*
X144152455Y-97680733D01*
X144196627Y-97756482D01*
X144234272Y-97853982D01*
X144264003Y-97977791D01*
X144283785Y-98133130D01*
X144291032Y-98325809D01*
X144284347Y-98499007D01*
X144265823Y-98643290D01*
X144237475Y-98762664D01*
X144200881Y-98860753D01*
X144157126Y-98940751D01*
X144097549Y-99017001D01*
X144033187Y-99073562D01*
X143963473Y-99113050D01*
X143887152Y-99136849D01*
X143802394Y-99145000D01*
X143261274Y-99145000D01*
X143239945Y-99141670D01*
X143227843Y-99133184D01*
X143221390Y-99117763D01*
X143218409Y-99083084D01*
X143221612Y-99027763D01*
X143695690Y-99027763D01*
X143747073Y-99027763D01*
X143781419Y-99022398D01*
X143807973Y-99007152D01*
X143828681Y-98981235D01*
X143846765Y-98924923D01*
X143854784Y-98813531D01*
X143854784Y-97766829D01*
X143846252Y-97703817D01*
X143822727Y-97657103D01*
X143798673Y-97633959D01*
X143768929Y-97619993D01*
X143731686Y-97615062D01*
X143695690Y-97615062D01*
X143695690Y-99027763D01*
X143221612Y-99027763D01*
X143221707Y-99026114D01*
X143229290Y-99014832D01*
X143252756Y-98998820D01*
X143284558Y-98975703D01*
X143302510Y-98947745D01*
X143308627Y-98913274D01*
X143308627Y-97672398D01*
X143299908Y-97657353D01*
X143273822Y-97644280D01*
X143249559Y-97633144D01*
X143236361Y-97619367D01*
X143229759Y-97598287D01*
X143226653Y-97550582D01*
X143230913Y-97515957D01*
X143240849Y-97499016D01*
X143260817Y-97490323D01*
X143311557Y-97486102D01*
X143802394Y-97486102D01*
X143883507Y-97493776D01*
G37*
G36*
X144843143Y-97620924D02*
G01*
X144843143Y-98201245D01*
X144909913Y-98201245D01*
X144935005Y-98198020D01*
X144949938Y-98189888D01*
X144959946Y-98174356D01*
X144969447Y-98139146D01*
X144990055Y-98052226D01*
X145000676Y-98040947D01*
X145016434Y-98037114D01*
X145089983Y-98039784D01*
X145110040Y-98044350D01*
X145117840Y-98057157D01*
X145121855Y-98097747D01*
X145121855Y-98434894D01*
X145118452Y-98464206D01*
X145110681Y-98478033D01*
X145093938Y-98484916D01*
X145045102Y-98488475D01*
X145012727Y-98484438D01*
X144996467Y-98474919D01*
X144986064Y-98455015D01*
X144972561Y-98400914D01*
X144959959Y-98352949D01*
X144951312Y-98335884D01*
X144939135Y-98327483D01*
X144920080Y-98324344D01*
X144843143Y-98324344D01*
X144843143Y-99021901D01*
X144894526Y-99021901D01*
X144937362Y-99014323D01*
X144961479Y-98994607D01*
X144980707Y-98953851D01*
X145021746Y-98833590D01*
X145041788Y-98782403D01*
X145058565Y-98758577D01*
X145082155Y-98745786D01*
X145124969Y-98740533D01*
X145165235Y-98746616D01*
X145184962Y-98761300D01*
X145191464Y-98784497D01*
X145187342Y-98820767D01*
X145149424Y-99053408D01*
X145131838Y-99131169D01*
X145119885Y-99140652D01*
X145088149Y-99145000D01*
X144404697Y-99145000D01*
X144380928Y-99141196D01*
X144369617Y-99131994D01*
X144364494Y-99113312D01*
X144361832Y-99060553D01*
X144371229Y-99027717D01*
X144400484Y-99004590D01*
X144433030Y-98985874D01*
X144449779Y-98965621D01*
X144455072Y-98942950D01*
X144455072Y-97670841D01*
X144446381Y-97655235D01*
X144410650Y-97633930D01*
X144383166Y-97618599D01*
X144372823Y-97606819D01*
X144366870Y-97545087D01*
X144369223Y-97507751D01*
X144373739Y-97494895D01*
X144384134Y-97488964D01*
X144411841Y-97486102D01*
X145065618Y-97486102D01*
X145089059Y-97488644D01*
X145103262Y-97494986D01*
X145112992Y-97507582D01*
X145121763Y-97535928D01*
X145173970Y-97802091D01*
X145178183Y-97830484D01*
X145173348Y-97846378D01*
X145158138Y-97856820D01*
X145126068Y-97861259D01*
X145074797Y-97857117D01*
X145050597Y-97847978D01*
X145033862Y-97828547D01*
X145013686Y-97782582D01*
X144981452Y-97698552D01*
X144959464Y-97655912D01*
X144934387Y-97628667D01*
X144909913Y-97620924D01*
X144843143Y-97620924D01*
G37*
G36*
X145723608Y-97532539D02*
G01*
X145756306Y-97489125D01*
X145778942Y-97468449D01*
X145807872Y-97461647D01*
X145866582Y-97469066D01*
X145875783Y-97484071D01*
X145883526Y-97514587D01*
X145938847Y-97863366D01*
X145942969Y-97896796D01*
X145939636Y-97915286D01*
X145931154Y-97924823D01*
X145914970Y-97929332D01*
X145872444Y-97931601D01*
X145824248Y-97927151D01*
X145803018Y-97917496D01*
X145785715Y-97892412D01*
X145743667Y-97804289D01*
X145688536Y-97694157D01*
X145645237Y-97633443D01*
X145611240Y-97605244D01*
X145583382Y-97597477D01*
X145557637Y-97604394D01*
X145541645Y-97625000D01*
X145535114Y-97666353D01*
X145545899Y-97725171D01*
X145590000Y-97833182D01*
X145689536Y-98015865D01*
X145847967Y-98298836D01*
X145920804Y-98453029D01*
X145950242Y-98544681D01*
X145968456Y-98645265D01*
X145974751Y-98756104D01*
X145967964Y-98856402D01*
X145949109Y-98938811D01*
X145919797Y-99006450D01*
X145880687Y-99061835D01*
X145812627Y-99122904D01*
X145742684Y-99157199D01*
X145668470Y-99168447D01*
X145595940Y-99158220D01*
X145524489Y-99126681D01*
X145499459Y-99114207D01*
X145484006Y-99111019D01*
X145474312Y-99114751D01*
X145465138Y-99128422D01*
X145449746Y-99149506D01*
X145423798Y-99163153D01*
X145382615Y-99168447D01*
X145359286Y-99165919D01*
X145347352Y-99160020D01*
X145340070Y-99148015D01*
X145333522Y-99117980D01*
X145282322Y-98778360D01*
X145272064Y-98708568D01*
X145277280Y-98691902D01*
X145293893Y-98680810D01*
X145329309Y-98676053D01*
X145395741Y-98682795D01*
X145418427Y-98696295D01*
X145457078Y-98786604D01*
X145513057Y-98917109D01*
X145560346Y-98989624D01*
X145600275Y-99023901D01*
X145635681Y-99033625D01*
X145665193Y-99027633D01*
X145688346Y-99009903D01*
X145703346Y-98983684D01*
X145708587Y-98950368D01*
X145698307Y-98884793D01*
X145662151Y-98798053D01*
X145548211Y-98600949D01*
X145401546Y-98351233D01*
X145318867Y-98184392D01*
X145281271Y-98078827D01*
X145259030Y-97972917D01*
X145251639Y-97865747D01*
X145261614Y-97745744D01*
X145289187Y-97649582D01*
X145332240Y-97572472D01*
X145376857Y-97522623D01*
X145424068Y-97489012D01*
X145474687Y-97469303D01*
X145530168Y-97462655D01*
X145582443Y-97469163D01*
X145645906Y-97490962D01*
X145723608Y-97532539D01*
G37*
G36*
X146028332Y-97575953D02*
G01*
X146028332Y-97521090D01*
X146037368Y-97494989D01*
X146065060Y-97486102D01*
X146555896Y-97486102D01*
X146581869Y-97488614D01*
X146593723Y-97494162D01*
X146599844Y-97506207D01*
X146602882Y-97539500D01*
X146596837Y-97609017D01*
X146587602Y-97620255D01*
X146569635Y-97626786D01*
X146535592Y-97640356D01*
X146515850Y-97665150D01*
X146508544Y-97705005D01*
X146508544Y-98939744D01*
X146518787Y-98971880D01*
X146553057Y-98998729D01*
X146579814Y-99013890D01*
X146590151Y-99024649D01*
X146596746Y-99063758D01*
X146596746Y-99102410D01*
X146594214Y-99131745D01*
X146589510Y-99140328D01*
X146555896Y-99145000D01*
X146055809Y-99145000D01*
X146031596Y-99138108D01*
X146024210Y-99119171D01*
X146029614Y-99026023D01*
X146040215Y-99011481D01*
X146067349Y-98998545D01*
X146098704Y-98984655D01*
X146115140Y-98966496D01*
X146120564Y-98943133D01*
X146120564Y-97730833D01*
X146117686Y-97691414D01*
X146110672Y-97667452D01*
X146096087Y-97649158D01*
X146066983Y-97632373D01*
X146034377Y-97611124D01*
X146028332Y-97575953D01*
G37*
G36*
X146900828Y-98218739D02*
G01*
X146900828Y-98933241D01*
X146906022Y-98959177D01*
X146921630Y-98980617D01*
X146950287Y-98998729D01*
X146984802Y-99023564D01*
X146995075Y-99054508D01*
X146990954Y-99136024D01*
X146983120Y-99142023D01*
X146958347Y-99145000D01*
X146685864Y-99145000D01*
X146667033Y-99140426D01*
X146657654Y-99127872D01*
X146652158Y-99047363D01*
X146659434Y-99021437D01*
X146681559Y-99004590D01*
X146722733Y-98977952D01*
X146733125Y-98954032D01*
X146733125Y-97743839D01*
X146730775Y-97703181D01*
X146725157Y-97679176D01*
X146713051Y-97660501D01*
X146689619Y-97644097D01*
X146666364Y-97629924D01*
X146654082Y-97616436D01*
X146647747Y-97597941D01*
X146644923Y-97560657D01*
X146650976Y-97514306D01*
X146664980Y-97492780D01*
X146685772Y-97486102D01*
X146972544Y-97486102D01*
X147311980Y-98278456D01*
X147311980Y-97699967D01*
X147306641Y-97671395D01*
X147291132Y-97649385D01*
X147263529Y-97632373D01*
X147236937Y-97616551D01*
X147223778Y-97600957D01*
X147217553Y-97579073D01*
X147214711Y-97533180D01*
X147217013Y-97504548D01*
X147221672Y-97493704D01*
X147247317Y-97486102D01*
X147530334Y-97486102D01*
X147542867Y-97492957D01*
X147552343Y-97513175D01*
X147556620Y-97557452D01*
X147551583Y-97607643D01*
X147529234Y-97626603D01*
X147498229Y-97641786D01*
X147485454Y-97653164D01*
X147476753Y-97688335D01*
X147476753Y-99145000D01*
X147297692Y-99145000D01*
X146900828Y-98218739D01*
G37*
G36*
X148340365Y-99049653D02*
G01*
X148289982Y-99103037D01*
X148235854Y-99139484D01*
X148176997Y-99161099D01*
X148111754Y-99168447D01*
X148032739Y-99159229D01*
X147960015Y-99131845D01*
X147891616Y-99085124D01*
X147826386Y-99015925D01*
X147764074Y-98919411D01*
X147706660Y-98793311D01*
X147664545Y-98654195D01*
X147638344Y-98500244D01*
X147629252Y-98329381D01*
X147636220Y-98170902D01*
X147656067Y-98031070D01*
X147687470Y-97907729D01*
X147729483Y-97798933D01*
X147781568Y-97702990D01*
X147850553Y-97609737D01*
X147920355Y-97542775D01*
X147991430Y-97497666D01*
X148064890Y-97471406D01*
X148142437Y-97462655D01*
X148207775Y-97468585D01*
X148266627Y-97485866D01*
X148320307Y-97514404D01*
X148356668Y-97529241D01*
X148370473Y-97522737D01*
X148385611Y-97496269D01*
X148403934Y-97470822D01*
X148431407Y-97462655D01*
X148443863Y-97462655D01*
X148476836Y-97464670D01*
X148504543Y-97478764D01*
X148520341Y-97512938D01*
X148585921Y-97836896D01*
X148596270Y-97904765D01*
X148590625Y-97925181D01*
X148573596Y-97938028D01*
X148539026Y-97943325D01*
X148490054Y-97938405D01*
X148468592Y-97927663D01*
X148450443Y-97902118D01*
X148406219Y-97820593D01*
X148343797Y-97708963D01*
X148298966Y-97650691D01*
X148249881Y-97614441D01*
X148200963Y-97603339D01*
X148154133Y-97611114D01*
X148118195Y-97633322D01*
X148090400Y-97671725D01*
X148071069Y-97732133D01*
X148063485Y-97823340D01*
X148063485Y-98921700D01*
X148069652Y-98979916D01*
X148084883Y-99014351D01*
X148106897Y-99033057D01*
X148137399Y-99039487D01*
X148171492Y-99032732D01*
X148195601Y-99013439D01*
X148211928Y-98978744D01*
X148218457Y-98921059D01*
X148218457Y-98383420D01*
X148209167Y-98340408D01*
X148184385Y-98318207D01*
X148162019Y-98303362D01*
X148148554Y-98281407D01*
X148143627Y-98249788D01*
X148147378Y-98200648D01*
X148154710Y-98183476D01*
X148169390Y-98175472D01*
X148200872Y-98171936D01*
X148634281Y-98171936D01*
X148664001Y-98175522D01*
X148678886Y-98183934D01*
X148686867Y-98200031D01*
X148690518Y-98236599D01*
X148683465Y-98293844D01*
X148672687Y-98306576D01*
X148649668Y-98318299D01*
X148623758Y-98337661D01*
X148614772Y-98372062D01*
X148614772Y-99070994D01*
X148611857Y-99128618D01*
X148605979Y-99151411D01*
X148592320Y-99163360D01*
X148560550Y-99168447D01*
X148513930Y-99163592D01*
X148474546Y-99134741D01*
X148404040Y-99078577D01*
X148340365Y-99049653D01*
G37*
G36*
X149216067Y-97620924D02*
G01*
X149216067Y-98201245D01*
X149282837Y-98201245D01*
X149307929Y-98198020D01*
X149322862Y-98189888D01*
X149332870Y-98174356D01*
X149342371Y-98139146D01*
X149362979Y-98052226D01*
X149373600Y-98040947D01*
X149389357Y-98037114D01*
X149462907Y-98039784D01*
X149482964Y-98044350D01*
X149490764Y-98057157D01*
X149494779Y-98097747D01*
X149494779Y-98434894D01*
X149491376Y-98464206D01*
X149483605Y-98478033D01*
X149466862Y-98484916D01*
X149418025Y-98488475D01*
X149385651Y-98484438D01*
X149369391Y-98474919D01*
X149358988Y-98455015D01*
X149345485Y-98400914D01*
X149332883Y-98352949D01*
X149324236Y-98335884D01*
X149312059Y-98327483D01*
X149293004Y-98324344D01*
X149216067Y-98324344D01*
X149216067Y-99021901D01*
X149267450Y-99021901D01*
X149310286Y-99014323D01*
X149334403Y-98994607D01*
X149353631Y-98953851D01*
X149394670Y-98833590D01*
X149414712Y-98782403D01*
X149431489Y-98758577D01*
X149455079Y-98745786D01*
X149497893Y-98740533D01*
X149538159Y-98746616D01*
X149557886Y-98761300D01*
X149564388Y-98784497D01*
X149560266Y-98820767D01*
X149522348Y-99053408D01*
X149504762Y-99131169D01*
X149492809Y-99140652D01*
X149461073Y-99145000D01*
X148777621Y-99145000D01*
X148753852Y-99141196D01*
X148742541Y-99131994D01*
X148737418Y-99113312D01*
X148734756Y-99060553D01*
X148744153Y-99027717D01*
X148773408Y-99004590D01*
X148805954Y-98985874D01*
X148822703Y-98965621D01*
X148827996Y-98942950D01*
X148827996Y-97670841D01*
X148819305Y-97655235D01*
X148783574Y-97633930D01*
X148756090Y-97618599D01*
X148745747Y-97606819D01*
X148739794Y-97545087D01*
X148742147Y-97507751D01*
X148746663Y-97494895D01*
X148757058Y-97488964D01*
X148784765Y-97486102D01*
X149438542Y-97486102D01*
X149461983Y-97488644D01*
X149476186Y-97494986D01*
X149485916Y-97507582D01*
X149494687Y-97535928D01*
X149546894Y-97802091D01*
X149551107Y-97830484D01*
X149546272Y-97846378D01*
X149531062Y-97856820D01*
X149498992Y-97861259D01*
X149447721Y-97857117D01*
X149423521Y-97847978D01*
X149406786Y-97828547D01*
X149386610Y-97782582D01*
X149354376Y-97698552D01*
X149332388Y-97655912D01*
X149307311Y-97628667D01*
X149282837Y-97620924D01*
X149216067Y-97620924D01*
G37*
G36*
X150267038Y-97493776D02*
G01*
X150341266Y-97516320D01*
X150410184Y-97553912D01*
X150474904Y-97607907D01*
X150535986Y-97680733D01*
X150580158Y-97756482D01*
X150617803Y-97853982D01*
X150647535Y-97977791D01*
X150667316Y-98133130D01*
X150674563Y-98325809D01*
X150667878Y-98499007D01*
X150649354Y-98643290D01*
X150621006Y-98762664D01*
X150584413Y-98860753D01*
X150540657Y-98940751D01*
X150481080Y-99017001D01*
X150416718Y-99073562D01*
X150347004Y-99113050D01*
X150270683Y-99136849D01*
X150185925Y-99145000D01*
X149644805Y-99145000D01*
X149623476Y-99141670D01*
X149611374Y-99133184D01*
X149604921Y-99117763D01*
X149601940Y-99083084D01*
X149605143Y-99027763D01*
X150079221Y-99027763D01*
X150130604Y-99027763D01*
X150164950Y-99022398D01*
X150191504Y-99007152D01*
X150212212Y-98981235D01*
X150230296Y-98924923D01*
X150238315Y-98813531D01*
X150238315Y-97766829D01*
X150229783Y-97703817D01*
X150206258Y-97657103D01*
X150182204Y-97633959D01*
X150152460Y-97619993D01*
X150115217Y-97615062D01*
X150079221Y-97615062D01*
X150079221Y-99027763D01*
X149605143Y-99027763D01*
X149605238Y-99026114D01*
X149612821Y-99014832D01*
X149636287Y-98998820D01*
X149668089Y-98975703D01*
X149686041Y-98947745D01*
X149692158Y-98913274D01*
X149692158Y-97672398D01*
X149683439Y-97657353D01*
X149657353Y-97644280D01*
X149633090Y-97633144D01*
X149619892Y-97619367D01*
X149613290Y-97598287D01*
X149610184Y-97550582D01*
X149614444Y-97515957D01*
X149624380Y-97499016D01*
X149644348Y-97490323D01*
X149695088Y-97486102D01*
X150185925Y-97486102D01*
X150267038Y-97493776D01*
G37*
G36*
X151972057Y-97493540D02*
G01*
X152056372Y-97514276D01*
X152125966Y-97546725D01*
X152183343Y-97590424D01*
X152231194Y-97645982D01*
X152265051Y-97707770D01*
X152285728Y-97777063D01*
X152292886Y-97855672D01*
X152282965Y-97941795D01*
X152254287Y-98015950D01*
X152206607Y-98080894D01*
X152145111Y-98135091D01*
X152078282Y-98174515D01*
X152005107Y-98200238D01*
X152120348Y-98250022D01*
X152201291Y-98303642D01*
X152255425Y-98360430D01*
X152293200Y-98429056D01*
X152317716Y-98516896D01*
X152326683Y-98628975D01*
X152317129Y-98759877D01*
X152290785Y-98865158D01*
X152250025Y-98949658D01*
X152195616Y-99017138D01*
X152126986Y-99069687D01*
X152039683Y-99109517D01*
X151929434Y-99135511D01*
X151790875Y-99145000D01*
X151289872Y-99145000D01*
X151264630Y-99136496D01*
X151256167Y-99110836D01*
X151256167Y-99050386D01*
X151263169Y-99027327D01*
X151270371Y-99021901D01*
X151729326Y-99021901D01*
X151811367Y-99014235D01*
X151850959Y-98996988D01*
X151874275Y-98963623D01*
X151887962Y-98896605D01*
X151893549Y-98640333D01*
X151890435Y-98472538D01*
X151884761Y-98354306D01*
X151878436Y-98315734D01*
X151866071Y-98292432D01*
X151847112Y-98274793D01*
X151821562Y-98264107D01*
X151780709Y-98259863D01*
X151729326Y-98259863D01*
X151729326Y-99021901D01*
X151270371Y-99021901D01*
X151285567Y-99010452D01*
X151318302Y-98988602D01*
X151336267Y-98962932D01*
X151342262Y-98932050D01*
X151342262Y-98136765D01*
X151729326Y-98136765D01*
X151780709Y-98136765D01*
X151826401Y-98129208D01*
X151859019Y-98108189D01*
X151880273Y-98073038D01*
X151891992Y-98011560D01*
X151896571Y-97838911D01*
X151892266Y-97740015D01*
X151882038Y-97682083D01*
X151869094Y-97651424D01*
X151847695Y-97628433D01*
X151819049Y-97614313D01*
X151780709Y-97609200D01*
X151729326Y-97609200D01*
X151729326Y-98136765D01*
X151342262Y-98136765D01*
X151342262Y-97693373D01*
X151339926Y-97671160D01*
X151334569Y-97660217D01*
X151286575Y-97632373D01*
X151268259Y-97621147D01*
X151261021Y-97610666D01*
X151257174Y-97554246D01*
X151260694Y-97518134D01*
X151268715Y-97500299D01*
X151283247Y-97490073D01*
X151308282Y-97486102D01*
X151869827Y-97486102D01*
X151972057Y-97493540D01*
G37*
G36*
X153076539Y-98405310D02*
G01*
X153076539Y-98942950D01*
X153081635Y-98965580D01*
X153097247Y-98984205D01*
X153126914Y-98999736D01*
X153159337Y-99016864D01*
X153165366Y-99032644D01*
X153168771Y-99088579D01*
X153165769Y-99123402D01*
X153159704Y-99136298D01*
X153148112Y-99142378D01*
X153124808Y-99145000D01*
X152639192Y-99145000D01*
X152609611Y-99136193D01*
X152600357Y-99111386D01*
X152600357Y-99052859D01*
X152605401Y-99030431D01*
X152620669Y-99012672D01*
X152649542Y-98998637D01*
X152670444Y-98989114D01*
X152680774Y-98979678D01*
X152686073Y-98965859D01*
X152688468Y-98936721D01*
X152688468Y-98431963D01*
X152482571Y-97702440D01*
X152460303Y-97657372D01*
X152426884Y-97632373D01*
X152408618Y-97617533D01*
X152402612Y-97595553D01*
X152402612Y-97516968D01*
X152410618Y-97493958D01*
X152435218Y-97486102D01*
X152869635Y-97486102D01*
X152887209Y-97489305D01*
X152896563Y-97497551D01*
X152901072Y-97513144D01*
X152903340Y-97554154D01*
X152899494Y-97611765D01*
X152892928Y-97623019D01*
X152878428Y-97634205D01*
X152861516Y-97650753D01*
X152856263Y-97670109D01*
X152861300Y-97699509D01*
X152992642Y-98148763D01*
X153128196Y-97700150D01*
X153129112Y-97681466D01*
X153120650Y-97651885D01*
X153090095Y-97616528D01*
X153074805Y-97598470D01*
X153070677Y-97584288D01*
X153070677Y-97523196D01*
X153079177Y-97494987D01*
X153103284Y-97486102D01*
X153327682Y-97486102D01*
X153352694Y-97495086D01*
X153361387Y-97523196D01*
X153361387Y-97588409D01*
X153356143Y-97605979D01*
X153337665Y-97624954D01*
X153305698Y-97657366D01*
X153284451Y-97702440D01*
X153076539Y-98405310D01*
G37*
D11*
%TO.C,C9*%
X142227000Y-85979000D03*
X143777000Y-85979000D03*
%TD*%
%TO.C,C1*%
X142227000Y-89027000D03*
X143777000Y-89027000D03*
%TD*%
D12*
%TO.C,R1*%
X139192000Y-81851000D03*
X139192000Y-80201000D03*
%TD*%
%TO.C,R3*%
X136144000Y-81851000D03*
X136144000Y-80201000D03*
%TD*%
%TO.C,R2*%
X137668000Y-81851000D03*
X137668000Y-80201000D03*
%TD*%
D13*
%TO.C,C12*%
X135382000Y-93459000D03*
X135382000Y-95009000D03*
%TD*%
D14*
%TO.C,H2*%
X161500000Y-96500000D03*
%TD*%
D15*
%TO.C,J1*%
X156500000Y-86000000D03*
D16*
X152907898Y-86000000D03*
X156500000Y-89592102D03*
X156500000Y-82407898D03*
X160092102Y-86000000D03*
%TD*%
D17*
%TO.C,R6*%
X128568400Y-86372764D03*
X130218400Y-86372764D03*
%TD*%
D13*
%TO.C,C13*%
X133096000Y-93459000D03*
X133096000Y-95009000D03*
%TD*%
%TO.C,C4*%
X138430000Y-93459000D03*
X138430000Y-95009000D03*
%TD*%
D18*
%TO.C,L1*%
X131445000Y-93446500D03*
X131445000Y-95021500D03*
%TD*%
D14*
%TO.C,H3*%
X161500000Y-73500000D03*
%TD*%
D19*
%TO.C,Y1*%
X143743390Y-80857000D03*
X142343390Y-80857000D03*
X142343390Y-81957000D03*
X143743390Y-81957000D03*
%TD*%
D11*
%TO.C,C7*%
X142227000Y-90551000D03*
X143777000Y-90551000D03*
%TD*%
D13*
%TO.C,C11*%
X136906000Y-93459000D03*
X136906000Y-95009000D03*
%TD*%
D17*
%TO.C,R4*%
X128568400Y-89964867D03*
X130218400Y-89964867D03*
%TD*%
D20*
%TO.C,IC1*%
X138848000Y-89380000D03*
X138848000Y-88880000D03*
X138848000Y-88380000D03*
X138848000Y-87880000D03*
X138848000Y-87380000D03*
X138848000Y-86880000D03*
X138848000Y-86380000D03*
X138848000Y-85880000D03*
D21*
X138148000Y-85180000D03*
X137648000Y-85180000D03*
X137148000Y-85180000D03*
X136648000Y-85180000D03*
X136148000Y-85180000D03*
X135648000Y-85180000D03*
X135148000Y-85180000D03*
X134648000Y-85180000D03*
D20*
X133948000Y-85880000D03*
X133948000Y-86380000D03*
X133948000Y-86880000D03*
X133948000Y-87380000D03*
X133948000Y-87880000D03*
X133948000Y-88380000D03*
X133948000Y-88880000D03*
X133948000Y-89380000D03*
D21*
X134648000Y-90080000D03*
X135148000Y-90080000D03*
X135648000Y-90080000D03*
X136148000Y-90080000D03*
X136648000Y-90080000D03*
X137148000Y-90080000D03*
X137648000Y-90080000D03*
X138148000Y-90080000D03*
D22*
X136398000Y-87630000D03*
%TD*%
D14*
%TO.C,H4*%
X103500000Y-73500000D03*
%TD*%
D13*
%TO.C,C8*%
X139954000Y-93459000D03*
X139954000Y-95009000D03*
%TD*%
D23*
%TO.C,C3*%
X145557861Y-82182000D03*
X145557861Y-80632000D03*
%TD*%
D24*
%TO.C,L2*%
X127990499Y-96774000D03*
X129565501Y-96774000D03*
%TD*%
D23*
%TO.C,C2*%
X134620000Y-81801000D03*
X134620000Y-80251000D03*
%TD*%
%TO.C,C6*%
X133096000Y-81801000D03*
X133096000Y-80251000D03*
%TD*%
D14*
%TO.C,H1*%
X103500000Y-96500000D03*
%TD*%
D11*
%TO.C,C5*%
X142227000Y-87503000D03*
X143777000Y-87503000D03*
%TD*%
D17*
%TO.C,R7*%
X128568400Y-84576713D03*
X130218400Y-84576713D03*
%TD*%
%TO.C,R5*%
X128568400Y-88168816D03*
X130218400Y-88168816D03*
%TD*%
D11*
%TO.C,C10*%
X142227000Y-84455000D03*
X143777000Y-84455000D03*
%TD*%
D15*
%TO.C,J2*%
X108500000Y-86000000D03*
D16*
X104907898Y-86000000D03*
X108500000Y-89592102D03*
X108500000Y-82407898D03*
X112092102Y-86000000D03*
%TD*%
D25*
%TO.C,J3*%
X108370000Y-74770000D03*
D26*
X108370000Y-72230000D03*
X110910000Y-74770000D03*
X110910000Y-72230000D03*
X113450000Y-74770000D03*
X113450000Y-72230000D03*
X115990000Y-74770000D03*
X115990000Y-72230000D03*
X118530000Y-74770000D03*
X118530000Y-72230000D03*
X121070000Y-74770000D03*
X121070000Y-72230000D03*
X123610000Y-74770000D03*
X123610000Y-72230000D03*
X126150000Y-74770000D03*
X126150000Y-72230000D03*
X128690000Y-74770000D03*
X128690000Y-72230000D03*
X131230000Y-74770000D03*
X131230000Y-72230000D03*
X133770000Y-74770000D03*
X133770000Y-72230000D03*
X136310000Y-74770000D03*
X136310000Y-72230000D03*
X138850000Y-74770000D03*
X138850000Y-72230000D03*
X141390000Y-74770000D03*
X141390000Y-72230000D03*
X143930000Y-74770000D03*
X143930000Y-72230000D03*
X146470000Y-74770000D03*
X146470000Y-72230000D03*
X149010000Y-74770000D03*
X149010000Y-72230000D03*
X151550000Y-74770000D03*
X151550000Y-72230000D03*
X154090000Y-74770000D03*
X154090000Y-72230000D03*
X156630000Y-74770000D03*
X156630000Y-72230000D03*
%TD*%
M02*
