%TF.GenerationSoftware,KiCad,Pcbnew,10.0.3*%
%TF.CreationDate,2026-06-09T15:28:25+05:30*%
%TF.ProjectId,LoRaFlux RF HAT,4c6f5261-466c-4757-9820-524620484154,rev?*%
%TF.SameCoordinates,Original*%
%TF.FileFunction,Copper,L1,Top*%
%TF.FilePolarity,Positive*%
%FSLAX46Y46*%
G04 Gerber Fmt 4.6, Leading zero omitted, Abs format (unit mm)*
G04 Created by KiCad (PCBNEW 10.0.3) date 2026-06-09 15:28:25*
%MOMM*%
%LPD*%
G01*
G04 APERTURE LIST*
G04 Aperture macros list*
%AMRoundRect*
0 Rectangle with rounded corners*
0 $1 Rounding radius*
0 $2 $3 $4 $5 $6 $7 $8 $9 X,Y pos of 4 corners*
0 Add a 4 corners polygon primitive as box body*
4,1,4,$2,$3,$4,$5,$6,$7,$8,$9,$2,$3,0*
0 Add four circle primitives for the rounded corners*
1,1,$1+$1,$2,$3*
1,1,$1+$1,$4,$5*
1,1,$1+$1,$6,$7*
1,1,$1+$1,$8,$9*
0 Add four rect primitives between the rounded corners*
20,1,$1+$1,$2,$3,$4,$5,0*
20,1,$1+$1,$4,$5,$6,$7,0*
20,1,$1+$1,$6,$7,$8,$9,0*
20,1,$1+$1,$8,$9,$2,$3,0*%
G04 Aperture macros list end*
%TA.AperFunction,SMDPad,CuDef*%
%ADD10RoundRect,0.225000X-0.225000X-0.250000X0.225000X-0.250000X0.225000X0.250000X-0.225000X0.250000X0*%
%TD*%
%TA.AperFunction,SMDPad,CuDef*%
%ADD11RoundRect,0.200000X0.275000X-0.200000X0.275000X0.200000X-0.275000X0.200000X-0.275000X-0.200000X0*%
%TD*%
%TA.AperFunction,SMDPad,CuDef*%
%ADD12RoundRect,0.225000X-0.250000X0.225000X-0.250000X-0.225000X0.250000X-0.225000X0.250000X0.225000X0*%
%TD*%
%TA.AperFunction,ComponentPad*%
%ADD13C,2.050000*%
%TD*%
%TA.AperFunction,ComponentPad*%
%ADD14C,2.250000*%
%TD*%
%TA.AperFunction,SMDPad,CuDef*%
%ADD15RoundRect,0.200000X-0.200000X-0.275000X0.200000X-0.275000X0.200000X0.275000X-0.200000X0.275000X0*%
%TD*%
%TA.AperFunction,SMDPad,CuDef*%
%ADD16RoundRect,0.218750X-0.256250X0.218750X-0.256250X-0.218750X0.256250X-0.218750X0.256250X0.218750X0*%
%TD*%
%TA.AperFunction,SMDPad,CuDef*%
%ADD17R,0.900000X0.800000*%
%TD*%
%TA.AperFunction,SMDPad,CuDef*%
%ADD18R,0.850000X0.300000*%
%TD*%
%TA.AperFunction,SMDPad,CuDef*%
%ADD19R,0.300000X0.850000*%
%TD*%
%TA.AperFunction,SMDPad,CuDef*%
%ADD20R,3.200000X3.200000*%
%TD*%
%TA.AperFunction,SMDPad,CuDef*%
%ADD21RoundRect,0.225000X0.250000X-0.225000X0.250000X0.225000X-0.250000X0.225000X-0.250000X-0.225000X0*%
%TD*%
%TA.AperFunction,SMDPad,CuDef*%
%ADD22RoundRect,0.218750X-0.218750X-0.256250X0.218750X-0.256250X0.218750X0.256250X-0.218750X0.256250X0*%
%TD*%
%TA.AperFunction,ComponentPad*%
%ADD23R,1.700000X1.700000*%
%TD*%
%TA.AperFunction,ComponentPad*%
%ADD24O,1.700000X1.700000*%
%TD*%
%TA.AperFunction,ViaPad*%
%ADD25C,0.600000*%
%TD*%
%TA.AperFunction,Conductor*%
%ADD26C,0.200000*%
%TD*%
G04 APERTURE END LIST*
D10*
%TO.P,C9,1*%
%TO.N,Net-(IC1-VR_ANAI)*%
X142227000Y-85979000D03*
%TO.P,C9,2*%
%TO.N,GND*%
X143777000Y-85979000D03*
%TD*%
%TO.P,C1,1*%
%TO.N,+3V3*%
X142227000Y-89027000D03*
%TO.P,C1,2*%
%TO.N,GND*%
X143777000Y-89027000D03*
%TD*%
D11*
%TO.P,R1,1*%
%TO.N,Net-(IC1-CK_OUT)*%
X139192000Y-81851000D03*
%TO.P,R1,2*%
%TO.N,/OUT*%
X139192000Y-80201000D03*
%TD*%
%TO.P,R3,1*%
%TO.N,Net-(IC1-I_OUT)*%
X136144000Y-81851000D03*
%TO.P,R3,2*%
%TO.N,/I_OUT*%
X136144000Y-80201000D03*
%TD*%
%TO.P,R2,1*%
%TO.N,Net-(IC1-I_IN)*%
X137668000Y-81851000D03*
%TO.P,R2,2*%
%TO.N,/I_IN*%
X137668000Y-80201000D03*
%TD*%
D12*
%TO.P,C12,1*%
%TO.N,Net-(IC1-RFO_N)*%
X135382000Y-93459000D03*
%TO.P,C12,2*%
%TO.N,GND*%
X135382000Y-95009000D03*
%TD*%
D13*
%TO.P,J1,1,In*%
%TO.N,Net-(J1-In)*%
X156500000Y-86000000D03*
D14*
%TO.P,J1,2,Ext*%
%TO.N,GND*%
X152907898Y-86000000D03*
X156500000Y-89592102D03*
X156500000Y-82407898D03*
X160092102Y-86000000D03*
%TD*%
D15*
%TO.P,R6,1*%
%TO.N,/MISO*%
X128568400Y-86372764D03*
%TO.P,R6,2*%
%TO.N,Net-(IC1-MISO)*%
X130218400Y-86372764D03*
%TD*%
D12*
%TO.P,C13,1*%
%TO.N,Net-(IC1-VR_ANA2)*%
X133096000Y-93459000D03*
%TO.P,C13,2*%
%TO.N,GND*%
X133096000Y-95009000D03*
%TD*%
%TO.P,C4,1*%
%TO.N,+3V3*%
X138430000Y-93459000D03*
%TO.P,C4,2*%
%TO.N,GND*%
X138430000Y-95009000D03*
%TD*%
D16*
%TO.P,L1,1*%
%TO.N,GND*%
X131445000Y-93446500D03*
%TO.P,L1,2*%
%TO.N,Net-(IC1-RFI)*%
X131445000Y-95021500D03*
%TD*%
D17*
%TO.P,Y1,1,Tri-State*%
%TO.N,GND*%
X143743390Y-80857000D03*
%TO.P,Y1,2,GND*%
X142343390Y-80857000D03*
%TO.P,Y1,3,OUT*%
%TO.N,/TCXO_CLK*%
X142343390Y-81957000D03*
%TO.P,Y1,4,VDD*%
%TO.N,+3V3*%
X143743390Y-81957000D03*
%TD*%
D10*
%TO.P,C7,1*%
%TO.N,Net-(IC1-VR_PA)*%
X142227000Y-90551000D03*
%TO.P,C7,2*%
%TO.N,GND*%
X143777000Y-90551000D03*
%TD*%
D12*
%TO.P,C11,1*%
%TO.N,Net-(IC1-RFO_P)*%
X136906000Y-93459000D03*
%TO.P,C11,2*%
%TO.N,Net-(J1-In)*%
X136906000Y-95009000D03*
%TD*%
D15*
%TO.P,R4,1*%
%TO.N,/DIO2*%
X128568400Y-89964867D03*
%TO.P,R4,2*%
%TO.N,Net-(IC1-DIO2)*%
X130218400Y-89964867D03*
%TD*%
D18*
%TO.P,IC1,1,VR_PA*%
%TO.N,Net-(IC1-VR_PA)*%
X138848000Y-89380000D03*
%TO.P,IC1,2,VBATI*%
%TO.N,+3V3*%
X138848000Y-88880000D03*
%TO.P,IC1,3,VR_ANAI*%
%TO.N,Net-(IC1-VR_ANAI)*%
X138848000Y-88380000D03*
%TO.P,IC1,4,GND_1*%
%TO.N,GND*%
X138848000Y-87880000D03*
%TO.P,IC1,5,VR_DIG*%
%TO.N,Net-(IC1-VR_DIG)*%
X138848000Y-87380000D03*
%TO.P,IC1,6,XTA*%
%TO.N,unconnected-(IC1-XTA-Pad6)*%
X138848000Y-86880000D03*
%TO.P,IC1,7,GND_2*%
%TO.N,GND*%
X138848000Y-86380000D03*
%TO.P,IC1,8,XTB*%
%TO.N,/TCXO_CLK*%
X138848000Y-85880000D03*
D19*
%TO.P,IC1,9,RESET*%
%TO.N,/RST*%
X138148000Y-85180000D03*
%TO.P,IC1,10,CK_OUT*%
%TO.N,Net-(IC1-CK_OUT)*%
X137648000Y-85180000D03*
%TO.P,IC1,11,CK_IN*%
%TO.N,unconnected-(IC1-CK_IN-Pad11)*%
X137148000Y-85180000D03*
%TO.P,IC1,12,Q_IN*%
%TO.N,unconnected-(IC1-Q_IN-Pad12)*%
X136648000Y-85180000D03*
%TO.P,IC1,13,I_IN*%
%TO.N,Net-(IC1-I_IN)*%
X136148000Y-85180000D03*
%TO.P,IC1,14,Q_OUT*%
%TO.N,unconnected-(IC1-Q_OUT-Pad14)*%
X135648000Y-85180000D03*
%TO.P,IC1,15,I_OUT*%
%TO.N,Net-(IC1-I_OUT)*%
X135148000Y-85180000D03*
%TO.P,IC1,16,VBAT2*%
%TO.N,+3V3*%
X134648000Y-85180000D03*
D18*
%TO.P,IC1,17,SCK*%
%TO.N,Net-(IC1-SCK)*%
X133948000Y-85880000D03*
%TO.P,IC1,18,MISO*%
%TO.N,Net-(IC1-MISO)*%
X133948000Y-86380000D03*
%TO.P,IC1,19,MOSI*%
%TO.N,Net-(IC1-MOSI)*%
X133948000Y-86880000D03*
%TO.P,IC1,20,NSS*%
%TO.N,/~{CS}*%
X133948000Y-87380000D03*
%TO.P,IC1,21,DIO0*%
%TO.N,unconnected-(IC1-DIO0-Pad21)*%
X133948000Y-87880000D03*
%TO.P,IC1,22,DIO1*%
%TO.N,unconnected-(IC1-DIO1-Pad22)*%
X133948000Y-88380000D03*
%TO.P,IC1,23,DIO2*%
%TO.N,Net-(IC1-DIO2)*%
X133948000Y-88880000D03*
%TO.P,IC1,24,DIO3*%
%TO.N,unconnected-(IC1-DIO3-Pad24)*%
X133948000Y-89380000D03*
D19*
%TO.P,IC1,25,VR_ANA2*%
%TO.N,Net-(IC1-VR_ANA2)*%
X134648000Y-90080000D03*
%TO.P,IC1,26,GND_3*%
%TO.N,GND*%
X135148000Y-90080000D03*
%TO.P,IC1,27,RFI*%
%TO.N,Net-(IC1-RFI)*%
X135648000Y-90080000D03*
%TO.P,IC1,28,GND_4*%
%TO.N,GND*%
X136148000Y-90080000D03*
%TO.P,IC1,29,RFO_N*%
%TO.N,Net-(IC1-RFO_N)*%
X136648000Y-90080000D03*
%TO.P,IC1,30,RFO_P*%
%TO.N,Net-(IC1-RFO_P)*%
X137148000Y-90080000D03*
%TO.P,IC1,31,GND_5*%
%TO.N,GND*%
X137648000Y-90080000D03*
%TO.P,IC1,32,VBAT3*%
%TO.N,+3V3*%
X138148000Y-90080000D03*
D20*
%TO.P,IC1,33,GND_6*%
%TO.N,GND*%
X136398000Y-87630000D03*
%TD*%
D12*
%TO.P,C8,1*%
%TO.N,+3V3*%
X139954000Y-93459000D03*
%TO.P,C8,2*%
%TO.N,GND*%
X139954000Y-95009000D03*
%TD*%
D21*
%TO.P,C3,1*%
%TO.N,+3V3*%
X145557861Y-82182000D03*
%TO.P,C3,2*%
%TO.N,GND*%
X145557861Y-80632000D03*
%TD*%
D22*
%TO.P,L2,1*%
%TO.N,Net-(J2-In)*%
X127990499Y-96774000D03*
%TO.P,L2,2*%
%TO.N,Net-(IC1-RFI)*%
X129565501Y-96774000D03*
%TD*%
D21*
%TO.P,C2,1*%
%TO.N,+3V3*%
X134620000Y-81801000D03*
%TO.P,C2,2*%
%TO.N,GND*%
X134620000Y-80251000D03*
%TD*%
%TO.P,C6,1*%
%TO.N,+3V3*%
X133096000Y-81801000D03*
%TO.P,C6,2*%
%TO.N,GND*%
X133096000Y-80251000D03*
%TD*%
D10*
%TO.P,C5,1*%
%TO.N,+3V3*%
X142227000Y-87503000D03*
%TO.P,C5,2*%
%TO.N,GND*%
X143777000Y-87503000D03*
%TD*%
D15*
%TO.P,R7,1*%
%TO.N,/SCK*%
X128568400Y-84576713D03*
%TO.P,R7,2*%
%TO.N,Net-(IC1-SCK)*%
X130218400Y-84576713D03*
%TD*%
%TO.P,R5,1*%
%TO.N,/MOSI*%
X128568400Y-88168816D03*
%TO.P,R5,2*%
%TO.N,Net-(IC1-MOSI)*%
X130218400Y-88168816D03*
%TD*%
D10*
%TO.P,C10,1*%
%TO.N,Net-(IC1-VR_DIG)*%
X142227000Y-84455000D03*
%TO.P,C10,2*%
%TO.N,GND*%
X143777000Y-84455000D03*
%TD*%
D13*
%TO.P,J2,1,In*%
%TO.N,Net-(J2-In)*%
X108500000Y-86000000D03*
D14*
%TO.P,J2,2,Ext*%
%TO.N,GND*%
X104907898Y-86000000D03*
X108500000Y-89592102D03*
X108500000Y-82407898D03*
X112092102Y-86000000D03*
%TD*%
D23*
%TO.P,J3,1,Pin_1*%
%TO.N,+3V3*%
X108370000Y-74770000D03*
D24*
%TO.P,J3,2,Pin_2*%
%TO.N,unconnected-(J3-Pin_2-Pad2)*%
X108370000Y-72230000D03*
%TO.P,J3,3,Pin_3*%
%TO.N,unconnected-(J3-Pin_3-Pad3)*%
X110910000Y-74770000D03*
%TO.P,J3,4,Pin_4*%
%TO.N,unconnected-(J3-Pin_4-Pad4)*%
X110910000Y-72230000D03*
%TO.P,J3,5,Pin_5*%
%TO.N,unconnected-(J3-Pin_5-Pad5)*%
X113450000Y-74770000D03*
%TO.P,J3,6,Pin_6*%
%TO.N,unconnected-(J3-Pin_6-Pad6)*%
X113450000Y-72230000D03*
%TO.P,J3,7,Pin_7*%
%TO.N,unconnected-(J3-Pin_7-Pad7)*%
X115990000Y-74770000D03*
%TO.P,J3,8,Pin_8*%
%TO.N,unconnected-(J3-Pin_8-Pad8)*%
X115990000Y-72230000D03*
%TO.P,J3,9,Pin_9*%
%TO.N,unconnected-(J3-Pin_9-Pad9)*%
X118530000Y-74770000D03*
%TO.P,J3,10,Pin_10*%
%TO.N,unconnected-(J3-Pin_10-Pad10)*%
X118530000Y-72230000D03*
%TO.P,J3,11,Pin_11*%
%TO.N,unconnected-(J3-Pin_11-Pad11)*%
X121070000Y-74770000D03*
%TO.P,J3,12,Pin_12*%
%TO.N,/OUT*%
X121070000Y-72230000D03*
%TO.P,J3,13,Pin_13*%
%TO.N,unconnected-(J3-Pin_13-Pad13)*%
X123610000Y-74770000D03*
%TO.P,J3,14,Pin_14*%
%TO.N,unconnected-(J3-Pin_14-Pad14)*%
X123610000Y-72230000D03*
%TO.P,J3,15,Pin_15*%
%TO.N,unconnected-(J3-Pin_15-Pad15)*%
X126150000Y-74770000D03*
%TO.P,J3,16,Pin_16*%
%TO.N,unconnected-(J3-Pin_16-Pad16)*%
X126150000Y-72230000D03*
%TO.P,J3,17,Pin_17*%
%TO.N,unconnected-(J3-Pin_17-Pad17)*%
X128690000Y-74770000D03*
%TO.P,J3,18,Pin_18*%
%TO.N,unconnected-(J3-Pin_18-Pad18)*%
X128690000Y-72230000D03*
%TO.P,J3,19,Pin_19*%
%TO.N,/MOSI*%
X131230000Y-74770000D03*
%TO.P,J3,20,Pin_20*%
%TO.N,unconnected-(J3-Pin_20-Pad20)*%
X131230000Y-72230000D03*
%TO.P,J3,21,Pin_21*%
%TO.N,/MISO*%
X133770000Y-74770000D03*
%TO.P,J3,22,Pin_22*%
%TO.N,/RST*%
X133770000Y-72230000D03*
%TO.P,J3,23,Pin_23*%
%TO.N,/SCK*%
X136310000Y-74770000D03*
%TO.P,J3,24,Pin_24*%
%TO.N,/~{CS}*%
X136310000Y-72230000D03*
%TO.P,J3,25,Pin_25*%
%TO.N,unconnected-(J3-Pin_25-Pad25)*%
X138850000Y-74770000D03*
%TO.P,J3,26,Pin_26*%
%TO.N,unconnected-(J3-Pin_26-Pad26)*%
X138850000Y-72230000D03*
%TO.P,J3,27,Pin_27*%
%TO.N,unconnected-(J3-Pin_27-Pad27)*%
X141390000Y-74770000D03*
%TO.P,J3,28,Pin_28*%
%TO.N,unconnected-(J3-Pin_28-Pad28)*%
X141390000Y-72230000D03*
%TO.P,J3,29,Pin_29*%
%TO.N,unconnected-(J3-Pin_29-Pad29)*%
X143930000Y-74770000D03*
%TO.P,J3,30,Pin_30*%
%TO.N,unconnected-(J3-Pin_30-Pad30)*%
X143930000Y-72230000D03*
%TO.P,J3,31,Pin_31*%
%TO.N,unconnected-(J3-Pin_31-Pad31)*%
X146470000Y-74770000D03*
%TO.P,J3,32,Pin_32*%
%TO.N,unconnected-(J3-Pin_32-Pad32)*%
X146470000Y-72230000D03*
%TO.P,J3,33,Pin_33*%
%TO.N,unconnected-(J3-Pin_33-Pad33)*%
X149010000Y-74770000D03*
%TO.P,J3,34,Pin_34*%
%TO.N,unconnected-(J3-Pin_34-Pad34)*%
X149010000Y-72230000D03*
%TO.P,J3,35,Pin_35*%
%TO.N,/DIO2*%
X151550000Y-74770000D03*
%TO.P,J3,36,Pin_36*%
%TO.N,unconnected-(J3-Pin_36-Pad36)*%
X151550000Y-72230000D03*
%TO.P,J3,37,Pin_37*%
%TO.N,unconnected-(J3-Pin_37-Pad37)*%
X154090000Y-74770000D03*
%TO.P,J3,38,Pin_38*%
%TO.N,/I_OUT*%
X154090000Y-72230000D03*
%TO.P,J3,39,Pin_39*%
%TO.N,GND*%
X156630000Y-74770000D03*
%TO.P,J3,40,Pin_40*%
%TO.N,/I_IN*%
X156630000Y-72230000D03*
%TD*%
D25*
%TO.N,+3V3*%
X145542000Y-83312000D03*
X138176000Y-91948000D03*
X140716000Y-89027000D03*
X134648001Y-82804000D03*
%TO.N,GND*%
X104013000Y-91186000D03*
X135382000Y-98044000D03*
X151638000Y-93091000D03*
X143002000Y-83185000D03*
X148209000Y-85471000D03*
X150876000Y-88773000D03*
X144780000Y-94361000D03*
X139192000Y-98044000D03*
X142367000Y-94742000D03*
X133096000Y-96012000D03*
X127508000Y-95504000D03*
X130048000Y-82550000D03*
X120015000Y-90297000D03*
X132588000Y-90932000D03*
X144780000Y-87503000D03*
X139827000Y-86360000D03*
X112776000Y-88646000D03*
X120523000Y-95123000D03*
X144272000Y-83185000D03*
X131826000Y-77978000D03*
X147066000Y-92583000D03*
X104140000Y-80010000D03*
X130175000Y-95504000D03*
X142367000Y-79629000D03*
X137160000Y-88392000D03*
X148082000Y-78740000D03*
X160909000Y-91440000D03*
X135636000Y-88392000D03*
X119507000Y-97663000D03*
X135636000Y-86868000D03*
X115189000Y-90932000D03*
X130175000Y-98044000D03*
X140970000Y-82169000D03*
X123444000Y-80899000D03*
X149606000Y-95123000D03*
X127508000Y-98044000D03*
X124206000Y-98044000D03*
X152781000Y-78740000D03*
X111125000Y-90297000D03*
X146558000Y-82169000D03*
X127381000Y-79883000D03*
X135382000Y-96012000D03*
X129286000Y-77978000D03*
X146304000Y-97282000D03*
X141478000Y-78359000D03*
X144780000Y-89027000D03*
X140000000Y-91500000D03*
X160909000Y-79502000D03*
X134620000Y-79248000D03*
X131699000Y-81026000D03*
X138430000Y-96012000D03*
X140970000Y-80518000D03*
X153543000Y-91186000D03*
X127508000Y-93472000D03*
X128651000Y-81153000D03*
X133096000Y-79248000D03*
X130175000Y-93472000D03*
X115316000Y-78359000D03*
X136398000Y-87630000D03*
X137160000Y-86868000D03*
X116713000Y-87376000D03*
X142367000Y-98044000D03*
X144780000Y-85979000D03*
X131699000Y-88900000D03*
X144780000Y-90551000D03*
X109347000Y-95758000D03*
X145542000Y-79629000D03*
X146558000Y-80645000D03*
X132207000Y-83566000D03*
X143764000Y-79629000D03*
X115824000Y-95250000D03*
X124206000Y-95504000D03*
X132334000Y-96012000D03*
X113411000Y-92710000D03*
X117729000Y-93472000D03*
X124460000Y-87503000D03*
X139954000Y-96012000D03*
X132334000Y-98044000D03*
X154686000Y-96266000D03*
X149098000Y-90678000D03*
X120650000Y-83693000D03*
%TO.N,/~{CS}*%
X132588000Y-88011000D03*
X134620000Y-78232000D03*
%TO.N,/DIO2*%
X129921000Y-92710000D03*
%TO.N,/RST*%
X139992003Y-79121000D03*
%TO.N,/OUT*%
X123571000Y-76962000D03*
X139192000Y-79121000D03*
%TD*%
%TO.N,+3V3*%
D26*
X134648001Y-85180000D02*
X134648001Y-82804000D01*
X144793000Y-82182000D02*
X145557861Y-82182000D01*
X145557861Y-83296139D02*
X145542000Y-83312000D01*
X139954000Y-93459000D02*
X138430000Y-93459000D01*
X143743390Y-81957000D02*
X144568000Y-81957000D01*
X145542000Y-82197861D02*
X145557861Y-82182000D01*
X134620000Y-81801000D02*
X133096000Y-81801000D01*
X138430000Y-92710000D02*
X138430000Y-93459000D01*
X140716000Y-89027000D02*
X142227000Y-89027000D01*
X138147999Y-90080000D02*
X138147999Y-91919999D01*
X142227000Y-89027000D02*
X142227000Y-87503000D01*
X138176000Y-91948000D02*
X138176000Y-92456000D01*
X134648001Y-81829001D02*
X134620000Y-81801000D01*
X138848000Y-88880000D02*
X140569000Y-88880000D01*
X145542000Y-83312000D02*
X145542000Y-82197861D01*
X134648001Y-82804000D02*
X134648001Y-81829001D01*
X140569000Y-88880000D02*
X140716000Y-89027000D01*
X138147999Y-91919999D02*
X138176000Y-91948000D01*
X138176000Y-92456000D02*
X138430000Y-92710000D01*
X144568000Y-81957000D02*
X144793000Y-82182000D01*
%TO.N,GND*%
X136148000Y-88904000D02*
X135636000Y-88392000D01*
X138848000Y-87880000D02*
X137672000Y-87880000D01*
X137672000Y-87880000D02*
X137160000Y-88392000D01*
X137648000Y-90080000D02*
X137648000Y-88880000D01*
X137648000Y-86380000D02*
X137160000Y-86868000D01*
X138848000Y-86380000D02*
X137648000Y-86380000D01*
X135148000Y-88880000D02*
X135636000Y-88392000D01*
X137648000Y-88880000D02*
X137160000Y-88392000D01*
X135148000Y-90080000D02*
X135148000Y-88880000D01*
X138848000Y-86380000D02*
X139807000Y-86380000D01*
X136148000Y-90080000D02*
X136148000Y-88904000D01*
X139807000Y-86380000D02*
X139827000Y-86360000D01*
%TO.N,Net-(IC1-VR_PA)*%
X139544999Y-89379999D02*
X140716000Y-90551000D01*
X140716000Y-90551000D02*
X142227000Y-90551000D01*
X138848000Y-89379999D02*
X139544999Y-89379999D01*
%TO.N,Net-(IC1-VR_ANAI)*%
X140220000Y-88380000D02*
X140843000Y-87757000D01*
X141478000Y-85979000D02*
X142227000Y-85979000D01*
X140843000Y-87757000D02*
X140843000Y-86614000D01*
X138848001Y-88380000D02*
X140220000Y-88380000D01*
X140843000Y-86614000D02*
X141478000Y-85979000D01*
%TO.N,Net-(IC1-VR_DIG)*%
X140443000Y-85490000D02*
X141478000Y-84455000D01*
X141478000Y-84455000D02*
X142227000Y-84455000D01*
X140443000Y-86887000D02*
X140443000Y-85490000D01*
X138848000Y-87380000D02*
X139950000Y-87380000D01*
X139950000Y-87380000D02*
X140443000Y-86887000D01*
%TO.N,Net-(IC1-RFO_P)*%
X136976710Y-92004289D02*
X137077289Y-91903710D01*
X136906000Y-92175000D02*
X136906000Y-93459000D01*
X137148000Y-91733000D02*
X137148000Y-90080001D01*
X137077289Y-91903710D02*
G75*
G03*
X137148006Y-91732999I-170689J170710D01*
G01*
X136976710Y-92004289D02*
G75*
G03*
X136905993Y-92175000I170690J-170711D01*
G01*
%TO.N,Net-(J1-In)*%
X142726000Y-96774000D02*
X137406000Y-96774000D01*
X136906000Y-95009000D02*
X136906000Y-96274000D01*
X147847320Y-94652679D02*
X156500000Y-86000000D01*
X147847320Y-94652679D02*
G75*
G02*
X142726000Y-96774011I-5121320J5121279D01*
G01*
X136906000Y-96274000D02*
G75*
G03*
X137406000Y-96774000I500000J0D01*
G01*
%TO.N,Net-(IC1-RFO_N)*%
X135382000Y-92956000D02*
X135382000Y-93459000D01*
X136648000Y-90690000D02*
X136648000Y-90080000D01*
X135735553Y-92102446D02*
X136294446Y-91543553D01*
X136294446Y-91543553D02*
G75*
G03*
X136648001Y-90690000I-853546J853553D01*
G01*
X135735553Y-92102446D02*
G75*
G03*
X135381997Y-92956000I853547J-853554D01*
G01*
%TO.N,Net-(IC1-VR_ANA2)*%
X134648001Y-90080000D02*
X134648001Y-90776999D01*
X133096000Y-92329000D02*
X133096000Y-93459000D01*
X134648001Y-90776999D02*
X133096000Y-92329000D01*
%TO.N,Net-(IC1-I_IN)*%
X137668000Y-82550000D02*
X137668000Y-81851000D01*
X136148000Y-84070000D02*
X137668000Y-82550000D01*
X136148000Y-85180000D02*
X136148000Y-84070000D01*
%TO.N,/TCXO_CLK*%
X141605000Y-82804000D02*
X142113000Y-82804000D01*
X142113000Y-82804000D02*
X142343390Y-82573610D01*
X142343390Y-82573610D02*
X142343390Y-81957000D01*
X138848000Y-85561000D02*
X141605000Y-82804000D01*
X138848000Y-85880001D02*
X138848000Y-85561000D01*
%TO.N,Net-(IC1-MISO)*%
X133940764Y-86372764D02*
X133948000Y-86380000D01*
X130218400Y-86372764D02*
X133940764Y-86372764D01*
%TO.N,Net-(IC1-SCK)*%
X133948000Y-85880001D02*
X132461000Y-85880001D01*
X131157712Y-84576713D02*
X130218400Y-84576713D01*
X132461000Y-85880001D02*
X131157712Y-84576713D01*
%TO.N,Net-(IC1-MOSI)*%
X130218400Y-88168816D02*
X131160184Y-88168816D01*
X132449000Y-86880000D02*
X133947999Y-86880000D01*
X131160184Y-88168816D02*
X132449000Y-86880000D01*
%TO.N,/~{CS}*%
X133219000Y-87380000D02*
X133948000Y-87380000D01*
X137541000Y-75311000D02*
X134620000Y-78232000D01*
X136310000Y-72230000D02*
X137541000Y-73461000D01*
X132588000Y-88011000D02*
X133219000Y-87380000D01*
X137541000Y-73461000D02*
X137541000Y-75311000D01*
%TO.N,Net-(IC1-CK_OUT)*%
X137648000Y-85180000D02*
X137648000Y-84094000D01*
X139192000Y-82550000D02*
X139192000Y-81851000D01*
X137648000Y-84094000D02*
X139192000Y-82550000D01*
%TO.N,/DIO2*%
X129921000Y-92710000D02*
X128568400Y-91357400D01*
X128568400Y-91357400D02*
X128568400Y-89964867D01*
%TO.N,Net-(IC1-RFI)*%
X133739000Y-96774000D02*
X131445000Y-96774000D01*
X131445000Y-95021500D02*
X131445000Y-96774000D01*
X129565501Y-96774000D02*
X131445000Y-96774000D01*
X134592553Y-92102446D02*
X135294446Y-91400553D01*
X135648000Y-90547000D02*
X135648000Y-90080001D01*
X134239000Y-96274000D02*
X134239000Y-92956000D01*
X134592553Y-92102446D02*
G75*
G03*
X134238997Y-92956000I853547J-853554D01*
G01*
X135294446Y-91400553D02*
G75*
G03*
X135648001Y-90547000I-853546J853553D01*
G01*
X134239000Y-96274000D02*
G75*
G02*
X133739000Y-96774000I-500000J0D01*
G01*
%TO.N,/RST*%
X139992003Y-82765997D02*
X138147999Y-84610001D01*
X139992003Y-79121000D02*
X139992003Y-82765997D01*
X138147999Y-84610001D02*
X138147999Y-85180000D01*
%TO.N,Net-(IC1-I_OUT)*%
X136144000Y-82550000D02*
X136144000Y-81851000D01*
X135148000Y-85180000D02*
X135148000Y-83546000D01*
X135148000Y-83546000D02*
X136144000Y-82550000D01*
%TO.N,Net-(J2-In)*%
X122274000Y-96774000D02*
X127990499Y-96774000D01*
X117152679Y-94652679D02*
X108500000Y-86000000D01*
X122274000Y-96774000D02*
G75*
G02*
X117152687Y-94652670I0J7242600D01*
G01*
%TO.N,/I_OUT*%
X136144000Y-80201000D02*
X136144000Y-79502000D01*
X152787000Y-75692000D02*
X152787000Y-73533000D01*
X138811000Y-76835000D02*
X151644000Y-76835000D01*
X136144000Y-79502000D02*
X138811000Y-76835000D01*
X152787000Y-73533000D02*
X154090000Y-72230000D01*
X151644000Y-76835000D02*
X152787000Y-75692000D01*
%TO.N,/I_IN*%
X155321000Y-73539000D02*
X156630000Y-72230000D01*
X137668000Y-79502000D02*
X139827000Y-77343000D01*
X155321000Y-75692000D02*
X155321000Y-73539000D01*
X139827000Y-77343000D02*
X153670000Y-77343000D01*
X153670000Y-77343000D02*
X155321000Y-75692000D01*
X137668000Y-80201000D02*
X137668000Y-79502000D01*
%TO.N,/OUT*%
X122301000Y-75692000D02*
X123571000Y-76962000D01*
X121070000Y-72230000D02*
X122301000Y-73461000D01*
X139192000Y-79121000D02*
X139192000Y-80201000D01*
X122301000Y-73461000D02*
X122301000Y-75692000D01*
%TO.N,/SCK*%
X128568400Y-82511600D02*
X128568400Y-84576713D01*
X136310000Y-74770000D02*
X128568400Y-82511600D01*
%TO.N,/MISO*%
X127901764Y-86372764D02*
X128568400Y-86372764D01*
X133770000Y-74770000D02*
X127127000Y-81413000D01*
X127127000Y-85598000D02*
X127901764Y-86372764D01*
X127127000Y-81413000D02*
X127127000Y-85598000D01*
%TO.N,/MOSI*%
X131230000Y-74770000D02*
X126365000Y-79635000D01*
X126365000Y-86614000D02*
X127919816Y-88168816D01*
X127919816Y-88168816D02*
X128568400Y-88168816D01*
X126365000Y-79635000D02*
X126365000Y-86614000D01*
%TO.N,Net-(IC1-DIO2)*%
X130218400Y-89964867D02*
X132158133Y-89964867D01*
X133243000Y-88880000D02*
X133948000Y-88880000D01*
X132158133Y-89964867D02*
X133243000Y-88880000D01*
%TD*%
%TA.AperFunction,Conductor*%
%TO.N,GND*%
G36*
X133289039Y-95028685D02*
G01*
X133334794Y-95081489D01*
X133346000Y-95133000D01*
X133346000Y-95759000D01*
X133387102Y-95759000D01*
X133471467Y-95748868D01*
X133471468Y-95748868D01*
X133605729Y-95695922D01*
X133639574Y-95670257D01*
X133704885Y-95645433D01*
X133773249Y-95659860D01*
X133822961Y-95708958D01*
X133838500Y-95769060D01*
X133838500Y-96249500D01*
X133818815Y-96316539D01*
X133766011Y-96362294D01*
X133714500Y-96373500D01*
X131969500Y-96373500D01*
X131902461Y-96353815D01*
X131856706Y-96301011D01*
X131845500Y-96249500D01*
X131845500Y-95825925D01*
X131865185Y-95758886D01*
X131917989Y-95713131D01*
X131923995Y-95710576D01*
X131958132Y-95697115D01*
X132071867Y-95610867D01*
X132158115Y-95497132D01*
X132158117Y-95497126D01*
X132162271Y-95489740D01*
X132164536Y-95491014D01*
X132199293Y-95446323D01*
X132265195Y-95423113D01*
X132333183Y-95439218D01*
X132379063Y-95486816D01*
X132379920Y-95486335D01*
X132384077Y-95493729D01*
X132471278Y-95608721D01*
X132586270Y-95695922D01*
X132720532Y-95748868D01*
X132804898Y-95759000D01*
X132846000Y-95759000D01*
X132846000Y-95133000D01*
X132865685Y-95065961D01*
X132918489Y-95020206D01*
X132970000Y-95009000D01*
X133222000Y-95009000D01*
X133289039Y-95028685D01*
G37*
%TD.AperFunction*%
%TA.AperFunction,Conductor*%
G36*
X131928150Y-88069755D02*
G01*
X131984084Y-88111626D01*
X132004591Y-88153842D01*
X132017546Y-88202190D01*
X132028423Y-88242783D01*
X132028426Y-88242790D01*
X132107475Y-88379709D01*
X132107479Y-88379714D01*
X132107480Y-88379716D01*
X132219284Y-88491520D01*
X132219286Y-88491521D01*
X132219290Y-88491524D01*
X132345825Y-88564578D01*
X132356216Y-88570577D01*
X132508943Y-88611500D01*
X132508945Y-88611500D01*
X132645745Y-88611500D01*
X132712784Y-88631185D01*
X132758539Y-88683989D01*
X132768483Y-88753147D01*
X132739458Y-88816703D01*
X132733426Y-88823181D01*
X132028559Y-89528048D01*
X131967236Y-89561533D01*
X131940878Y-89564367D01*
X130991867Y-89564367D01*
X130924828Y-89544682D01*
X130879073Y-89491878D01*
X130875685Y-89483701D01*
X130862196Y-89447536D01*
X130862193Y-89447531D01*
X130775947Y-89332322D01*
X130775944Y-89332319D01*
X130660735Y-89246073D01*
X130660728Y-89246069D01*
X130525882Y-89195775D01*
X130525884Y-89195775D01*
X130473373Y-89190130D01*
X130408822Y-89163392D01*
X130368974Y-89105999D01*
X130366481Y-89036174D01*
X130402134Y-88976085D01*
X130464613Y-88944811D01*
X130473370Y-88943551D01*
X130525883Y-88937907D01*
X130660731Y-88887612D01*
X130775946Y-88801362D01*
X130862196Y-88686147D01*
X130875685Y-88649982D01*
X130917557Y-88594049D01*
X130983021Y-88569632D01*
X130991867Y-88569316D01*
X131212909Y-88569316D01*
X131212911Y-88569316D01*
X131314772Y-88542023D01*
X131406097Y-88489296D01*
X131797136Y-88098255D01*
X131858459Y-88064771D01*
X131928150Y-88069755D01*
G37*
%TD.AperFunction*%
%TA.AperFunction,Conductor*%
G36*
X135076630Y-74780253D02*
G01*
X135134863Y-74818863D01*
X135162473Y-74879321D01*
X135187829Y-75039412D01*
X135234575Y-75183283D01*
X135236570Y-75253124D01*
X135204325Y-75309281D01*
X128247922Y-82265684D01*
X128247920Y-82265687D01*
X128195191Y-82357014D01*
X128187908Y-82384199D01*
X128187908Y-82384201D01*
X128167900Y-82458873D01*
X128167900Y-83764532D01*
X128148215Y-83831571D01*
X128118212Y-83863798D01*
X128010852Y-83944168D01*
X127924606Y-84059377D01*
X127924602Y-84059384D01*
X127874310Y-84194226D01*
X127874309Y-84194230D01*
X127867900Y-84253840D01*
X127867900Y-84253847D01*
X127867900Y-84253848D01*
X127867900Y-84899583D01*
X127867901Y-84899589D01*
X127874308Y-84959196D01*
X127924602Y-85094041D01*
X127924606Y-85094048D01*
X128010852Y-85209257D01*
X128010855Y-85209260D01*
X128126064Y-85295506D01*
X128126071Y-85295510D01*
X128165838Y-85310342D01*
X128260917Y-85345804D01*
X128313428Y-85351449D01*
X128377975Y-85378186D01*
X128417824Y-85435578D01*
X128420318Y-85505403D01*
X128384666Y-85565492D01*
X128322187Y-85596768D01*
X128313425Y-85598028D01*
X128260916Y-85603673D01*
X128126071Y-85653966D01*
X128126064Y-85653970D01*
X128003755Y-85745532D01*
X128002978Y-85744494D01*
X127949570Y-85773647D01*
X127879879Y-85768652D01*
X127835550Y-85740158D01*
X127714965Y-85619573D01*
X127563819Y-85468426D01*
X127530334Y-85407103D01*
X127527500Y-85380745D01*
X127527500Y-81630253D01*
X127547185Y-81563214D01*
X127563814Y-81542577D01*
X133230719Y-75875671D01*
X133292040Y-75842188D01*
X133356712Y-75845422D01*
X133449815Y-75875673D01*
X133500590Y-75892171D01*
X133679449Y-75920500D01*
X133679454Y-75920500D01*
X133860551Y-75920500D01*
X133949987Y-75906334D01*
X134039409Y-75892171D01*
X134205424Y-75838230D01*
X134211636Y-75836212D01*
X134211639Y-75836211D01*
X134212550Y-75835747D01*
X134372994Y-75753996D01*
X134519501Y-75647553D01*
X134647553Y-75519501D01*
X134753996Y-75372994D01*
X134836211Y-75211639D01*
X134892171Y-75039409D01*
X134906422Y-74949425D01*
X134917527Y-74879321D01*
X134947456Y-74816186D01*
X135006768Y-74779255D01*
X135076630Y-74780253D01*
G37*
%TD.AperFunction*%
%TA.AperFunction,Conductor*%
G36*
X132536630Y-74780253D02*
G01*
X132594863Y-74818863D01*
X132622473Y-74879321D01*
X132647829Y-75039412D01*
X132694575Y-75183283D01*
X132696570Y-75253124D01*
X132664325Y-75309281D01*
X132300901Y-75672705D01*
X126977181Y-80996426D01*
X126915858Y-81029911D01*
X126846166Y-81024927D01*
X126790233Y-80983055D01*
X126765816Y-80917591D01*
X126765500Y-80908745D01*
X126765500Y-79852254D01*
X126785185Y-79785215D01*
X126801814Y-79764578D01*
X130690719Y-75875672D01*
X130752040Y-75842189D01*
X130816716Y-75845424D01*
X130820299Y-75846588D01*
X130960591Y-75892171D01*
X131043429Y-75905291D01*
X131139449Y-75920500D01*
X131139454Y-75920500D01*
X131320551Y-75920500D01*
X131409987Y-75906334D01*
X131499409Y-75892171D01*
X131665424Y-75838230D01*
X131671636Y-75836212D01*
X131671639Y-75836211D01*
X131672550Y-75835747D01*
X131832994Y-75753996D01*
X131979501Y-75647553D01*
X132107553Y-75519501D01*
X132213996Y-75372994D01*
X132296211Y-75211639D01*
X132352171Y-75039409D01*
X132366422Y-74949425D01*
X132377527Y-74879321D01*
X132407456Y-74816186D01*
X132466768Y-74779255D01*
X132536630Y-74780253D01*
G37*
%TD.AperFunction*%
%TA.AperFunction,Conductor*%
G36*
X162003736Y-70500726D02*
G01*
X162293796Y-70518271D01*
X162308659Y-70520076D01*
X162590797Y-70571780D01*
X162605334Y-70575363D01*
X162879182Y-70660698D01*
X162893163Y-70666000D01*
X163154734Y-70783724D01*
X163167987Y-70790680D01*
X163413458Y-70939071D01*
X163425776Y-70947573D01*
X163594168Y-71079500D01*
X163651573Y-71124474D01*
X163662781Y-71134404D01*
X163865595Y-71337218D01*
X163875525Y-71348426D01*
X164052422Y-71574217D01*
X164060928Y-71586541D01*
X164209319Y-71832012D01*
X164216277Y-71845269D01*
X164333994Y-72106823D01*
X164339304Y-72120825D01*
X164424635Y-72394664D01*
X164428219Y-72409202D01*
X164479923Y-72691340D01*
X164481728Y-72706205D01*
X164499274Y-72996263D01*
X164499500Y-73003750D01*
X164499500Y-96996249D01*
X164499274Y-97003736D01*
X164481728Y-97293794D01*
X164479923Y-97308659D01*
X164428219Y-97590797D01*
X164424635Y-97605335D01*
X164339304Y-97879174D01*
X164333994Y-97893176D01*
X164216277Y-98154730D01*
X164209319Y-98167987D01*
X164060928Y-98413458D01*
X164052422Y-98425782D01*
X163875525Y-98651573D01*
X163865595Y-98662781D01*
X163662781Y-98865595D01*
X163651573Y-98875525D01*
X163425782Y-99052422D01*
X163413458Y-99060928D01*
X163167987Y-99209319D01*
X163154730Y-99216277D01*
X162893176Y-99333994D01*
X162879174Y-99339304D01*
X162605335Y-99424635D01*
X162590797Y-99428219D01*
X162308659Y-99479923D01*
X162293794Y-99481728D01*
X162003736Y-99499274D01*
X161996249Y-99499500D01*
X103003751Y-99499500D01*
X102996264Y-99499274D01*
X102706205Y-99481728D01*
X102691340Y-99479923D01*
X102409202Y-99428219D01*
X102394664Y-99424635D01*
X102120825Y-99339304D01*
X102106827Y-99333995D01*
X101954096Y-99265256D01*
X101845269Y-99216277D01*
X101832012Y-99209319D01*
X101586541Y-99060928D01*
X101574217Y-99052422D01*
X101510883Y-99002803D01*
X101387752Y-98906335D01*
X101348426Y-98875525D01*
X101337218Y-98865595D01*
X101134404Y-98662781D01*
X101124474Y-98651573D01*
X101103035Y-98624208D01*
X100947573Y-98425776D01*
X100939071Y-98413458D01*
X100790680Y-98167987D01*
X100783722Y-98154730D01*
X100666000Y-97893163D01*
X100660698Y-97879182D01*
X100575363Y-97605334D01*
X100571780Y-97590797D01*
X100554543Y-97496737D01*
X100520075Y-97308657D01*
X100518271Y-97293794D01*
X100517459Y-97280377D01*
X100500726Y-97003736D01*
X100500500Y-96996249D01*
X100500500Y-96353952D01*
X100899500Y-96353952D01*
X100899500Y-96646047D01*
X100932199Y-96936271D01*
X100932201Y-96936283D01*
X100932202Y-96936286D01*
X100945888Y-96996249D01*
X100997196Y-97221044D01*
X100997197Y-97221046D01*
X101093665Y-97496738D01*
X101220393Y-97759890D01*
X101220395Y-97759893D01*
X101375792Y-98007206D01*
X101557902Y-98235565D01*
X101764435Y-98442098D01*
X101992794Y-98624208D01*
X102240107Y-98779605D01*
X102503263Y-98906335D01*
X102778955Y-99002803D01*
X103063714Y-99067798D01*
X103063723Y-99067799D01*
X103063728Y-99067800D01*
X103257210Y-99089599D01*
X103353953Y-99100499D01*
X103353956Y-99100500D01*
X103353959Y-99100500D01*
X103646044Y-99100500D01*
X103646045Y-99100499D01*
X103794371Y-99083787D01*
X103936271Y-99067800D01*
X103936274Y-99067799D01*
X103936286Y-99067798D01*
X104221045Y-99002803D01*
X104496737Y-98906335D01*
X104759893Y-98779605D01*
X105007206Y-98624208D01*
X105235565Y-98442098D01*
X105442098Y-98235565D01*
X105624208Y-98007206D01*
X105779605Y-97759893D01*
X105906335Y-97496737D01*
X106002803Y-97221045D01*
X106067798Y-96936286D01*
X106068044Y-96934108D01*
X106094359Y-96700544D01*
X106100500Y-96646041D01*
X106100500Y-96353959D01*
X106088009Y-96243093D01*
X106067800Y-96063728D01*
X106067799Y-96063723D01*
X106067798Y-96063714D01*
X106002803Y-95778955D01*
X105906335Y-95503263D01*
X105779605Y-95240107D01*
X105624208Y-94992794D01*
X105442098Y-94764435D01*
X105235565Y-94557902D01*
X105007206Y-94375792D01*
X104778461Y-94232062D01*
X104759890Y-94220393D01*
X104496738Y-94093665D01*
X104221046Y-93997197D01*
X104221044Y-93997196D01*
X103987866Y-93943975D01*
X103936286Y-93932202D01*
X103936283Y-93932201D01*
X103936271Y-93932199D01*
X103646047Y-93899500D01*
X103646041Y-93899500D01*
X103353959Y-93899500D01*
X103353952Y-93899500D01*
X103063728Y-93932199D01*
X103063714Y-93932202D01*
X102778955Y-93997196D01*
X102778953Y-93997197D01*
X102503261Y-94093665D01*
X102240109Y-94220393D01*
X101992795Y-94375791D01*
X101764435Y-94557901D01*
X101557901Y-94764435D01*
X101375791Y-94992795D01*
X101220393Y-95240109D01*
X101093665Y-95503261D01*
X100997197Y-95778953D01*
X100997196Y-95778955D01*
X100932202Y-96063714D01*
X100932199Y-96063728D01*
X100899500Y-96353952D01*
X100500500Y-96353952D01*
X100500500Y-89342102D01*
X107096834Y-89342102D01*
X107683520Y-89342102D01*
X107682665Y-89344166D01*
X107650000Y-89508384D01*
X107650000Y-89675820D01*
X107682665Y-89840038D01*
X107683520Y-89842102D01*
X107096834Y-89842102D01*
X107110089Y-89925791D01*
X107179399Y-90139109D01*
X107179400Y-90139112D01*
X107281231Y-90338965D01*
X107413073Y-90520428D01*
X107413073Y-90520429D01*
X107571672Y-90679028D01*
X107753136Y-90810870D01*
X107952989Y-90912701D01*
X107952992Y-90912702D01*
X108166310Y-90982012D01*
X108250000Y-90995268D01*
X108250000Y-90408582D01*
X108252064Y-90409437D01*
X108416282Y-90442102D01*
X108583718Y-90442102D01*
X108747936Y-90409437D01*
X108750000Y-90408582D01*
X108750000Y-90995267D01*
X108833689Y-90982012D01*
X109047007Y-90912702D01*
X109047010Y-90912701D01*
X109246863Y-90810870D01*
X109428326Y-90679028D01*
X109428327Y-90679028D01*
X109586926Y-90520429D01*
X109586926Y-90520428D01*
X109718768Y-90338965D01*
X109820599Y-90139112D01*
X109820600Y-90139109D01*
X109889910Y-89925791D01*
X109903166Y-89842102D01*
X109316480Y-89842102D01*
X109317335Y-89840038D01*
X109350000Y-89675820D01*
X109350000Y-89508384D01*
X109317335Y-89344166D01*
X109316480Y-89342102D01*
X109903166Y-89342102D01*
X109889910Y-89258412D01*
X109820600Y-89045094D01*
X109820599Y-89045091D01*
X109718768Y-88845238D01*
X109586926Y-88663775D01*
X109586926Y-88663774D01*
X109428327Y-88505175D01*
X109246863Y-88373333D01*
X109047010Y-88271502D01*
X109047007Y-88271501D01*
X108833684Y-88202190D01*
X108750000Y-88188935D01*
X108750000Y-88775621D01*
X108747936Y-88774767D01*
X108583718Y-88742102D01*
X108416282Y-88742102D01*
X108252064Y-88774767D01*
X108250000Y-88775621D01*
X108250000Y-88188935D01*
X108249999Y-88188935D01*
X108166315Y-88202190D01*
X107952992Y-88271501D01*
X107952989Y-88271502D01*
X107753136Y-88373333D01*
X107571673Y-88505175D01*
X107571672Y-88505175D01*
X107413073Y-88663774D01*
X107413073Y-88663775D01*
X107281231Y-88845238D01*
X107179400Y-89045091D01*
X107179399Y-89045094D01*
X107110089Y-89258412D01*
X107096834Y-89342102D01*
X100500500Y-89342102D01*
X100500500Y-85750000D01*
X103504732Y-85750000D01*
X104091418Y-85750000D01*
X104090563Y-85752064D01*
X104057898Y-85916282D01*
X104057898Y-86083718D01*
X104090563Y-86247936D01*
X104091418Y-86250000D01*
X103504732Y-86250000D01*
X103517987Y-86333689D01*
X103587297Y-86547007D01*
X103587298Y-86547010D01*
X103689129Y-86746863D01*
X103820971Y-86928326D01*
X103820971Y-86928327D01*
X103979570Y-87086926D01*
X104161034Y-87218768D01*
X104360887Y-87320599D01*
X104360890Y-87320600D01*
X104574208Y-87389910D01*
X104657898Y-87403166D01*
X104657898Y-86816480D01*
X104659962Y-86817335D01*
X104824180Y-86850000D01*
X104991616Y-86850000D01*
X105155834Y-86817335D01*
X105157898Y-86816480D01*
X105157898Y-87403165D01*
X105241587Y-87389910D01*
X105454905Y-87320600D01*
X105454908Y-87320599D01*
X105654761Y-87218768D01*
X105836224Y-87086926D01*
X105836225Y-87086926D01*
X105994824Y-86928327D01*
X105994824Y-86928326D01*
X106126666Y-86746863D01*
X106228497Y-86547010D01*
X106228498Y-86547007D01*
X106297808Y-86333689D01*
X106311064Y-86250000D01*
X105724378Y-86250000D01*
X105725233Y-86247936D01*
X105757898Y-86083718D01*
X105757898Y-85916282D01*
X105753799Y-85895675D01*
X107174500Y-85895675D01*
X107174500Y-86104324D01*
X107207137Y-86310389D01*
X107271612Y-86508820D01*
X107352070Y-86666727D01*
X107366330Y-86694714D01*
X107488965Y-86863505D01*
X107636495Y-87011035D01*
X107805286Y-87133670D01*
X107884906Y-87174238D01*
X107991179Y-87228387D01*
X107991181Y-87228387D01*
X107991184Y-87228389D01*
X108066929Y-87253000D01*
X108189610Y-87292862D01*
X108395676Y-87325500D01*
X108395681Y-87325500D01*
X108604324Y-87325500D01*
X108810389Y-87292862D01*
X108848435Y-87280500D01*
X109008816Y-87228389D01*
X109030021Y-87217584D01*
X109098686Y-87204688D01*
X109163427Y-87230963D01*
X109173995Y-87240388D01*
X116828765Y-94895158D01*
X116869482Y-94935875D01*
X117046408Y-95112801D01*
X117422644Y-95442751D01*
X117422650Y-95442756D01*
X117819653Y-95747387D01*
X118235723Y-96025396D01*
X118235748Y-96025412D01*
X118669117Y-96275618D01*
X118908472Y-96393654D01*
X119117932Y-96496948D01*
X119580261Y-96688451D01*
X120018549Y-96837229D01*
X120050388Y-96848038D01*
X120054124Y-96849306D01*
X120537494Y-96978825D01*
X120537498Y-96978825D01*
X120537499Y-96978826D01*
X120537517Y-96978830D01*
X121028289Y-97076450D01*
X121028294Y-97076450D01*
X121028300Y-97076452D01*
X121339215Y-97117384D01*
X121524447Y-97141771D01*
X122023785Y-97174500D01*
X122023789Y-97174500D01*
X122221273Y-97174500D01*
X127186074Y-97174500D01*
X127253113Y-97194185D01*
X127298868Y-97246989D01*
X127301429Y-97253011D01*
X127314884Y-97287132D01*
X127314885Y-97287134D01*
X127401131Y-97400867D01*
X127514864Y-97487113D01*
X127514867Y-97487115D01*
X127647653Y-97539479D01*
X127731097Y-97549500D01*
X128249901Y-97549500D01*
X128333345Y-97539479D01*
X128466131Y-97487115D01*
X128579866Y-97400867D01*
X128666114Y-97287132D01*
X128666116Y-97287124D01*
X128669911Y-97280377D01*
X128719924Y-97231587D01*
X128788376Y-97217581D01*
X128853533Y-97242806D01*
X128886089Y-97280377D01*
X128889889Y-97287137D01*
X128976133Y-97400867D01*
X129089866Y-97487113D01*
X129089869Y-97487115D01*
X129222655Y-97539479D01*
X129306099Y-97549500D01*
X129824903Y-97549500D01*
X129908347Y-97539479D01*
X130041133Y-97487115D01*
X130154868Y-97400867D01*
X130241116Y-97287132D01*
X130254571Y-97253009D01*
X130297477Y-97197867D01*
X130363384Y-97174673D01*
X130369926Y-97174500D01*
X133827694Y-97174500D01*
X133827695Y-97174499D01*
X134001667Y-97139894D01*
X134165547Y-97072012D01*
X134313035Y-96973463D01*
X134438463Y-96848035D01*
X134537012Y-96700547D01*
X134604894Y-96536667D01*
X134639500Y-96362692D01*
X134639500Y-96274001D01*
X134639500Y-96216418D01*
X134639500Y-96216417D01*
X134639500Y-95769060D01*
X134659185Y-95702021D01*
X134711989Y-95656266D01*
X134781147Y-95646322D01*
X134838426Y-95670257D01*
X134872270Y-95695922D01*
X135006532Y-95748868D01*
X135090898Y-95759000D01*
X135132000Y-95759000D01*
X135132000Y-95133000D01*
X135151685Y-95065961D01*
X135204489Y-95020206D01*
X135256000Y-95009000D01*
X135508000Y-95009000D01*
X135575039Y-95028685D01*
X135620794Y-95081489D01*
X135632000Y-95133000D01*
X135632000Y-95759000D01*
X135673102Y-95759000D01*
X135757467Y-95748868D01*
X135757468Y-95748868D01*
X135891729Y-95695922D01*
X136006721Y-95608721D01*
X136044882Y-95558398D01*
X136101074Y-95516875D01*
X136170795Y-95512323D01*
X136231909Y-95546187D01*
X136242490Y-95558398D01*
X136280921Y-95609078D01*
X136328863Y-95645433D01*
X136396025Y-95696364D01*
X136426990Y-95708575D01*
X136482133Y-95751479D01*
X136505327Y-95817387D01*
X136505500Y-95823929D01*
X136505500Y-96362695D01*
X136540103Y-96536658D01*
X136540106Y-96536667D01*
X136607983Y-96700540D01*
X136607990Y-96700553D01*
X136706535Y-96848034D01*
X136706538Y-96848038D01*
X136831961Y-96973461D01*
X136831965Y-96973464D01*
X136979446Y-97072009D01*
X136979459Y-97072016D01*
X137102363Y-97122923D01*
X137143334Y-97139894D01*
X137143336Y-97139894D01*
X137143341Y-97139896D01*
X137317304Y-97174499D01*
X137317307Y-97174500D01*
X137317309Y-97174500D01*
X142786323Y-97174500D01*
X142786339Y-97174499D01*
X142976214Y-97174499D01*
X143475551Y-97141770D01*
X143475553Y-97141770D01*
X143589424Y-97126778D01*
X143971700Y-97076451D01*
X144096015Y-97051723D01*
X144462488Y-96978828D01*
X144462492Y-96978827D01*
X144462497Y-96978825D01*
X144462505Y-96978824D01*
X144945875Y-96849306D01*
X145419739Y-96688451D01*
X145683926Y-96579020D01*
X145882061Y-96496951D01*
X145882064Y-96496949D01*
X145882067Y-96496948D01*
X146172034Y-96353952D01*
X158899500Y-96353952D01*
X158899500Y-96646047D01*
X158932199Y-96936271D01*
X158932201Y-96936283D01*
X158932202Y-96936286D01*
X158945888Y-96996249D01*
X158997196Y-97221044D01*
X158997197Y-97221046D01*
X159093665Y-97496738D01*
X159220393Y-97759890D01*
X159220395Y-97759893D01*
X159375792Y-98007206D01*
X159557902Y-98235565D01*
X159764435Y-98442098D01*
X159992794Y-98624208D01*
X160240107Y-98779605D01*
X160503263Y-98906335D01*
X160778955Y-99002803D01*
X161063714Y-99067798D01*
X161063723Y-99067799D01*
X161063728Y-99067800D01*
X161257210Y-99089599D01*
X161353953Y-99100499D01*
X161353956Y-99100500D01*
X161353959Y-99100500D01*
X161646044Y-99100500D01*
X161646045Y-99100499D01*
X161794371Y-99083787D01*
X161936271Y-99067800D01*
X161936274Y-99067799D01*
X161936286Y-99067798D01*
X162221045Y-99002803D01*
X162496737Y-98906335D01*
X162759893Y-98779605D01*
X163007206Y-98624208D01*
X163235565Y-98442098D01*
X163442098Y-98235565D01*
X163624208Y-98007206D01*
X163779605Y-97759893D01*
X163906335Y-97496737D01*
X164002803Y-97221045D01*
X164067798Y-96936286D01*
X164068044Y-96934108D01*
X164094359Y-96700544D01*
X164100500Y-96646041D01*
X164100500Y-96353959D01*
X164088009Y-96243093D01*
X164067800Y-96063728D01*
X164067799Y-96063723D01*
X164067798Y-96063714D01*
X164002803Y-95778955D01*
X163906335Y-95503263D01*
X163779605Y-95240107D01*
X163624208Y-94992794D01*
X163442098Y-94764435D01*
X163235565Y-94557902D01*
X163007206Y-94375792D01*
X162778461Y-94232062D01*
X162759890Y-94220393D01*
X162496738Y-94093665D01*
X162221046Y-93997197D01*
X162221044Y-93997196D01*
X161987866Y-93943975D01*
X161936286Y-93932202D01*
X161936283Y-93932201D01*
X161936271Y-93932199D01*
X161646047Y-93899500D01*
X161646041Y-93899500D01*
X161353959Y-93899500D01*
X161353952Y-93899500D01*
X161063728Y-93932199D01*
X161063714Y-93932202D01*
X160778955Y-93997196D01*
X160778953Y-93997197D01*
X160503261Y-94093665D01*
X160240109Y-94220393D01*
X159992795Y-94375791D01*
X159764435Y-94557901D01*
X159557901Y-94764435D01*
X159375791Y-94992795D01*
X159220393Y-95240109D01*
X159093665Y-95503261D01*
X158997197Y-95778953D01*
X158997196Y-95778955D01*
X158932202Y-96063714D01*
X158932199Y-96063728D01*
X158899500Y-96353952D01*
X146172034Y-96353952D01*
X146330881Y-96275617D01*
X146356429Y-96260867D01*
X146387215Y-96243093D01*
X146764249Y-96025412D01*
X146764258Y-96025407D01*
X147180343Y-95747388D01*
X147577354Y-95442751D01*
X147953590Y-95112801D01*
X148083023Y-94983366D01*
X148083027Y-94983364D01*
X148093231Y-94973159D01*
X148093233Y-94973159D01*
X153724289Y-89342102D01*
X155096834Y-89342102D01*
X155683520Y-89342102D01*
X155682665Y-89344166D01*
X155650000Y-89508384D01*
X155650000Y-89675820D01*
X155682665Y-89840038D01*
X155683520Y-89842102D01*
X155096834Y-89842102D01*
X155110089Y-89925791D01*
X155179399Y-90139109D01*
X155179400Y-90139112D01*
X155281231Y-90338965D01*
X155413073Y-90520428D01*
X155413073Y-90520429D01*
X155571672Y-90679028D01*
X155753136Y-90810870D01*
X155952989Y-90912701D01*
X155952992Y-90912702D01*
X156166310Y-90982012D01*
X156250000Y-90995268D01*
X156250000Y-90408582D01*
X156252064Y-90409437D01*
X156416282Y-90442102D01*
X156583718Y-90442102D01*
X156747936Y-90409437D01*
X156750000Y-90408582D01*
X156750000Y-90995267D01*
X156833689Y-90982012D01*
X157047007Y-90912702D01*
X157047010Y-90912701D01*
X157246863Y-90810870D01*
X157428326Y-90679028D01*
X157428327Y-90679028D01*
X157586926Y-90520429D01*
X157586926Y-90520428D01*
X157718768Y-90338965D01*
X157820599Y-90139112D01*
X157820600Y-90139109D01*
X157889910Y-89925791D01*
X157903166Y-89842102D01*
X157316480Y-89842102D01*
X157317335Y-89840038D01*
X157350000Y-89675820D01*
X157350000Y-89508384D01*
X157317335Y-89344166D01*
X157316480Y-89342102D01*
X157903166Y-89342102D01*
X157889910Y-89258412D01*
X157820600Y-89045094D01*
X157820599Y-89045091D01*
X157718768Y-88845238D01*
X157586926Y-88663775D01*
X157586926Y-88663774D01*
X157428327Y-88505175D01*
X157246863Y-88373333D01*
X157047010Y-88271502D01*
X157047007Y-88271501D01*
X156833684Y-88202190D01*
X156750000Y-88188935D01*
X156750000Y-88775621D01*
X156747936Y-88774767D01*
X156583718Y-88742102D01*
X156416282Y-88742102D01*
X156252064Y-88774767D01*
X156250000Y-88775621D01*
X156250000Y-88188935D01*
X156249999Y-88188935D01*
X156166315Y-88202190D01*
X155952992Y-88271501D01*
X155952989Y-88271502D01*
X155753136Y-88373333D01*
X155571673Y-88505175D01*
X155571672Y-88505175D01*
X155413073Y-88663774D01*
X155413073Y-88663775D01*
X155281231Y-88845238D01*
X155179400Y-89045091D01*
X155179399Y-89045094D01*
X155110089Y-89258412D01*
X155096834Y-89342102D01*
X153724289Y-89342102D01*
X155826004Y-87240386D01*
X155887325Y-87206903D01*
X155957017Y-87211887D01*
X155969978Y-87217584D01*
X155991179Y-87228387D01*
X155991181Y-87228387D01*
X155991184Y-87228389D01*
X156066929Y-87253000D01*
X156189610Y-87292862D01*
X156395676Y-87325500D01*
X156395681Y-87325500D01*
X156604324Y-87325500D01*
X156810389Y-87292862D01*
X156848435Y-87280500D01*
X157008816Y-87228389D01*
X157194714Y-87133670D01*
X157363505Y-87011035D01*
X157511035Y-86863505D01*
X157633670Y-86694714D01*
X157728389Y-86508816D01*
X157792862Y-86310389D01*
X157802427Y-86250000D01*
X157811370Y-86193539D01*
X157825500Y-86104324D01*
X157825500Y-85895675D01*
X157811370Y-85806461D01*
X157802427Y-85750000D01*
X158688936Y-85750000D01*
X159275622Y-85750000D01*
X159274767Y-85752064D01*
X159242102Y-85916282D01*
X159242102Y-86083718D01*
X159274767Y-86247936D01*
X159275622Y-86250000D01*
X158688936Y-86250000D01*
X158702191Y-86333689D01*
X158771501Y-86547007D01*
X158771502Y-86547010D01*
X158873333Y-86746863D01*
X159005175Y-86928326D01*
X159005175Y-86928327D01*
X159163774Y-87086926D01*
X159345238Y-87218768D01*
X159545091Y-87320599D01*
X159545094Y-87320600D01*
X159758412Y-87389910D01*
X159842102Y-87403166D01*
X159842102Y-86816480D01*
X159844166Y-86817335D01*
X160008384Y-86850000D01*
X160175820Y-86850000D01*
X160340038Y-86817335D01*
X160342102Y-86816480D01*
X160342102Y-87403165D01*
X160425791Y-87389910D01*
X160639109Y-87320600D01*
X160639112Y-87320599D01*
X160838965Y-87218768D01*
X161020428Y-87086926D01*
X161020429Y-87086926D01*
X161179028Y-86928327D01*
X161179028Y-86928326D01*
X161310870Y-86746863D01*
X161412701Y-86547010D01*
X161412702Y-86547007D01*
X161482012Y-86333689D01*
X161495268Y-86250000D01*
X160908582Y-86250000D01*
X160909437Y-86247936D01*
X160942102Y-86083718D01*
X160942102Y-85916282D01*
X160909437Y-85752064D01*
X160908582Y-85750000D01*
X161495268Y-85750000D01*
X161482012Y-85666310D01*
X161412702Y-85452992D01*
X161412701Y-85452989D01*
X161310870Y-85253136D01*
X161179028Y-85071673D01*
X161179028Y-85071672D01*
X161020429Y-84913073D01*
X160838965Y-84781231D01*
X160639112Y-84679400D01*
X160639109Y-84679399D01*
X160425786Y-84610088D01*
X160342102Y-84596833D01*
X160342102Y-85183519D01*
X160340038Y-85182665D01*
X160175820Y-85150000D01*
X160008384Y-85150000D01*
X159844166Y-85182665D01*
X159842102Y-85183519D01*
X159842102Y-84596833D01*
X159842101Y-84596833D01*
X159758417Y-84610088D01*
X159545094Y-84679399D01*
X159545091Y-84679400D01*
X159345238Y-84781231D01*
X159163775Y-84913073D01*
X159163774Y-84913073D01*
X159005175Y-85071672D01*
X159005175Y-85071673D01*
X158873333Y-85253136D01*
X158771502Y-85452989D01*
X158771501Y-85452992D01*
X158702191Y-85666310D01*
X158688936Y-85750000D01*
X157802427Y-85750000D01*
X157792862Y-85689610D01*
X157749396Y-85555838D01*
X157728389Y-85491184D01*
X157728387Y-85491181D01*
X157728387Y-85491179D01*
X157658632Y-85354278D01*
X157633670Y-85305286D01*
X157511035Y-85136495D01*
X157363505Y-84988965D01*
X157194714Y-84866330D01*
X157008820Y-84771612D01*
X156810389Y-84707137D01*
X156604324Y-84674500D01*
X156604319Y-84674500D01*
X156395681Y-84674500D01*
X156395676Y-84674500D01*
X156189610Y-84707137D01*
X155991179Y-84771612D01*
X155805285Y-84866330D01*
X155636493Y-84988966D01*
X155488966Y-85136493D01*
X155366330Y-85305285D01*
X155271612Y-85491179D01*
X155207137Y-85689610D01*
X155174500Y-85895675D01*
X155174500Y-86104324D01*
X155207138Y-86310390D01*
X155207138Y-86310393D01*
X155271608Y-86508810D01*
X155271610Y-86508814D01*
X155271611Y-86508816D01*
X155282415Y-86530021D01*
X155295311Y-86598688D01*
X155269035Y-86663428D01*
X155259611Y-86673995D01*
X147565684Y-94367920D01*
X147562499Y-94370994D01*
X147209891Y-94699284D01*
X147203201Y-94705081D01*
X146829785Y-95005998D01*
X146822699Y-95011302D01*
X146428784Y-95284802D01*
X146421338Y-95289588D01*
X146008890Y-95534306D01*
X146001120Y-95538548D01*
X145572290Y-95753204D01*
X145564239Y-95756881D01*
X145121168Y-95940407D01*
X145112874Y-95943500D01*
X144657858Y-96094944D01*
X144649365Y-96097438D01*
X144184698Y-96216038D01*
X144176049Y-96217920D01*
X143704099Y-96303069D01*
X143695337Y-96304329D01*
X143218509Y-96355593D01*
X143209680Y-96356224D01*
X142728212Y-96373420D01*
X142723788Y-96373499D01*
X142668417Y-96373499D01*
X142668414Y-96373499D01*
X142658417Y-96373500D01*
X142658416Y-96373499D01*
X142658415Y-96373500D01*
X137430500Y-96373500D01*
X137363461Y-96353815D01*
X137317706Y-96301011D01*
X137306500Y-96249500D01*
X137306500Y-95823929D01*
X137326185Y-95756890D01*
X137378989Y-95711135D01*
X137384994Y-95708581D01*
X137415975Y-95696364D01*
X137531078Y-95609078D01*
X137569511Y-95558396D01*
X137625700Y-95516875D01*
X137695421Y-95512322D01*
X137756536Y-95546186D01*
X137767117Y-95558397D01*
X137805280Y-95608722D01*
X137920270Y-95695922D01*
X138054532Y-95748868D01*
X138138898Y-95759000D01*
X138180000Y-95759000D01*
X138680000Y-95759000D01*
X138721102Y-95759000D01*
X138805467Y-95748868D01*
X138805468Y-95748868D01*
X138939729Y-95695922D01*
X139054721Y-95608721D01*
X139093196Y-95557984D01*
X139149388Y-95516461D01*
X139219109Y-95511909D01*
X139280223Y-95545773D01*
X139290804Y-95557984D01*
X139329278Y-95608721D01*
X139444270Y-95695922D01*
X139578532Y-95748868D01*
X139662898Y-95759000D01*
X139704000Y-95759000D01*
X140204000Y-95759000D01*
X140245102Y-95759000D01*
X140329467Y-95748868D01*
X140329468Y-95748868D01*
X140463729Y-95695922D01*
X140578721Y-95608721D01*
X140665922Y-95493729D01*
X140718868Y-95359468D01*
X140718868Y-95359467D01*
X140729000Y-95275102D01*
X140729000Y-95259000D01*
X140204000Y-95259000D01*
X140204000Y-95759000D01*
X139704000Y-95759000D01*
X139704000Y-95259000D01*
X138680000Y-95259000D01*
X138680000Y-95759000D01*
X138180000Y-95759000D01*
X138180000Y-95133000D01*
X138199685Y-95065961D01*
X138252489Y-95020206D01*
X138304000Y-95009000D01*
X138430000Y-95009000D01*
X138430000Y-94883000D01*
X138449685Y-94815961D01*
X138502489Y-94770206D01*
X138554000Y-94759000D01*
X140729000Y-94759000D01*
X140729000Y-94742897D01*
X140718868Y-94658532D01*
X140718868Y-94658531D01*
X140665922Y-94524270D01*
X140578721Y-94409278D01*
X140478288Y-94333118D01*
X140436764Y-94276926D01*
X140432213Y-94207204D01*
X140466078Y-94146090D01*
X140478288Y-94135510D01*
X140579078Y-94059078D01*
X140629393Y-93992728D01*
X140666364Y-93943975D01*
X140719359Y-93809590D01*
X140729500Y-93725144D01*
X140729500Y-93192856D01*
X140719359Y-93108410D01*
X140666364Y-92974025D01*
X140666363Y-92974024D01*
X140666363Y-92974023D01*
X140579078Y-92858921D01*
X140463976Y-92771636D01*
X140329588Y-92718640D01*
X140286242Y-92713435D01*
X140245144Y-92708500D01*
X139662856Y-92708500D01*
X139624841Y-92713065D01*
X139578411Y-92718640D01*
X139444023Y-92771636D01*
X139328923Y-92858920D01*
X139290804Y-92909188D01*
X139234611Y-92950711D01*
X139164890Y-92955262D01*
X139103776Y-92921397D01*
X139093196Y-92909188D01*
X139055076Y-92858920D01*
X138939973Y-92771634D01*
X138908305Y-92759146D01*
X138903645Y-92755520D01*
X138897840Y-92754449D01*
X138876383Y-92734309D01*
X138853161Y-92716240D01*
X138850088Y-92709626D01*
X138846897Y-92706631D01*
X138841770Y-92691722D01*
X138833523Y-92673969D01*
X138830500Y-92661920D01*
X138830500Y-92657273D01*
X138812423Y-92589808D01*
X138803207Y-92555412D01*
X138750480Y-92464087D01*
X138704250Y-92417857D01*
X138670765Y-92356534D01*
X138675749Y-92286842D01*
X138684544Y-92268176D01*
X138700297Y-92240892D01*
X138735577Y-92179784D01*
X138776500Y-92027057D01*
X138776500Y-91868943D01*
X138735577Y-91716216D01*
X138695307Y-91646465D01*
X138656524Y-91579290D01*
X138656518Y-91579282D01*
X138584818Y-91507582D01*
X138551333Y-91446259D01*
X138548499Y-91419901D01*
X138548499Y-90707787D01*
X138559064Y-90657702D01*
X138595585Y-90574991D01*
X138598500Y-90549865D01*
X138598499Y-89954498D01*
X138618183Y-89887460D01*
X138670987Y-89841705D01*
X138722499Y-89830499D01*
X139317856Y-89830499D01*
X139317864Y-89830499D01*
X139317879Y-89830497D01*
X139317882Y-89830497D01*
X139352258Y-89826511D01*
X139352539Y-89828941D01*
X139408845Y-89830055D01*
X139459244Y-89860637D01*
X140395519Y-90796912D01*
X140395520Y-90796913D01*
X140470087Y-90871480D01*
X140561413Y-90924207D01*
X140663273Y-90951500D01*
X141412070Y-90951500D01*
X141479109Y-90971185D01*
X141524864Y-91023989D01*
X141527424Y-91030010D01*
X141539634Y-91060972D01*
X141539634Y-91060973D01*
X141626921Y-91176078D01*
X141742023Y-91263363D01*
X141742024Y-91263363D01*
X141742025Y-91263364D01*
X141876410Y-91316359D01*
X141960856Y-91326500D01*
X141960862Y-91326500D01*
X142493138Y-91326500D01*
X142493144Y-91326500D01*
X142577590Y-91316359D01*
X142711975Y-91263364D01*
X142827078Y-91176078D01*
X142903510Y-91075287D01*
X142959703Y-91033764D01*
X143029424Y-91029213D01*
X143090538Y-91063078D01*
X143101118Y-91075288D01*
X143177278Y-91175721D01*
X143292270Y-91262922D01*
X143426532Y-91315868D01*
X143510898Y-91326000D01*
X143527000Y-91326000D01*
X144027000Y-91326000D01*
X144043102Y-91326000D01*
X144127467Y-91315868D01*
X144127468Y-91315868D01*
X144261729Y-91262922D01*
X144376721Y-91175721D01*
X144463922Y-91060729D01*
X144516868Y-90926468D01*
X144516868Y-90926467D01*
X144527000Y-90842102D01*
X144527000Y-90801000D01*
X144027000Y-90801000D01*
X144027000Y-91326000D01*
X143527000Y-91326000D01*
X143527000Y-90301000D01*
X144027000Y-90301000D01*
X144527000Y-90301000D01*
X144527000Y-90259897D01*
X144516868Y-90175532D01*
X144516868Y-90175531D01*
X144463922Y-90041270D01*
X144376721Y-89926278D01*
X144325984Y-89887804D01*
X144284461Y-89831612D01*
X144279909Y-89761891D01*
X144313773Y-89700777D01*
X144325984Y-89690196D01*
X144376721Y-89651721D01*
X144463922Y-89536729D01*
X144516868Y-89402468D01*
X144516868Y-89402467D01*
X144527000Y-89318102D01*
X144527000Y-89277000D01*
X144027000Y-89277000D01*
X144027000Y-90301000D01*
X143527000Y-90301000D01*
X143527000Y-88777000D01*
X144027000Y-88777000D01*
X144527000Y-88777000D01*
X144527000Y-88735897D01*
X144516868Y-88651532D01*
X144516868Y-88651531D01*
X144463922Y-88517270D01*
X144376721Y-88402278D01*
X144325984Y-88363804D01*
X144284461Y-88307612D01*
X144279909Y-88237891D01*
X144313773Y-88176777D01*
X144325984Y-88166196D01*
X144376721Y-88127721D01*
X144463922Y-88012729D01*
X144516868Y-87878468D01*
X144516868Y-87878467D01*
X144527000Y-87794102D01*
X144527000Y-87753000D01*
X144027000Y-87753000D01*
X144027000Y-88777000D01*
X143527000Y-88777000D01*
X143527000Y-87253000D01*
X144027000Y-87253000D01*
X144527000Y-87253000D01*
X144527000Y-87211897D01*
X144516868Y-87127532D01*
X144516868Y-87127531D01*
X144463922Y-86993270D01*
X144376721Y-86878278D01*
X144325984Y-86839804D01*
X144284461Y-86783612D01*
X144279909Y-86713891D01*
X144313773Y-86652777D01*
X144325984Y-86642196D01*
X144376721Y-86603721D01*
X144463922Y-86488729D01*
X144516868Y-86354468D01*
X144516868Y-86354467D01*
X144527000Y-86270102D01*
X144527000Y-86229000D01*
X144027000Y-86229000D01*
X144027000Y-87253000D01*
X143527000Y-87253000D01*
X143527000Y-85750000D01*
X151504732Y-85750000D01*
X152091418Y-85750000D01*
X152090563Y-85752064D01*
X152057898Y-85916282D01*
X152057898Y-86083718D01*
X152090563Y-86247936D01*
X152091418Y-86250000D01*
X151504732Y-86250000D01*
X151517987Y-86333689D01*
X151587297Y-86547007D01*
X151587298Y-86547010D01*
X151689129Y-86746863D01*
X151820971Y-86928326D01*
X151820971Y-86928327D01*
X151979570Y-87086926D01*
X152161034Y-87218768D01*
X152360887Y-87320599D01*
X152360890Y-87320600D01*
X152574208Y-87389910D01*
X152657898Y-87403166D01*
X152657898Y-86816480D01*
X152659962Y-86817335D01*
X152824180Y-86850000D01*
X152991616Y-86850000D01*
X153155834Y-86817335D01*
X153157898Y-86816480D01*
X153157898Y-87403165D01*
X153241587Y-87389910D01*
X153454905Y-87320600D01*
X153454908Y-87320599D01*
X153654761Y-87218768D01*
X153836224Y-87086926D01*
X153836225Y-87086926D01*
X153994824Y-86928327D01*
X153994824Y-86928326D01*
X154126666Y-86746863D01*
X154228497Y-86547010D01*
X154228498Y-86547007D01*
X154297808Y-86333689D01*
X154311064Y-86250000D01*
X153724378Y-86250000D01*
X153725233Y-86247936D01*
X153757898Y-86083718D01*
X153757898Y-85916282D01*
X153725233Y-85752064D01*
X153724378Y-85750000D01*
X154311064Y-85750000D01*
X154297808Y-85666310D01*
X154228498Y-85452992D01*
X154228497Y-85452989D01*
X154126666Y-85253136D01*
X153994824Y-85071673D01*
X153994824Y-85071672D01*
X153836225Y-84913073D01*
X153654761Y-84781231D01*
X153454908Y-84679400D01*
X153454905Y-84679399D01*
X153241582Y-84610088D01*
X153157898Y-84596833D01*
X153157898Y-85183519D01*
X153155834Y-85182665D01*
X152991616Y-85150000D01*
X152824180Y-85150000D01*
X152659962Y-85182665D01*
X152657898Y-85183519D01*
X152657898Y-84596833D01*
X152657897Y-84596833D01*
X152574213Y-84610088D01*
X152360890Y-84679399D01*
X152360887Y-84679400D01*
X152161034Y-84781231D01*
X151979571Y-84913073D01*
X151979570Y-84913073D01*
X151820971Y-85071672D01*
X151820971Y-85071673D01*
X151689129Y-85253136D01*
X151587298Y-85452989D01*
X151587297Y-85452992D01*
X151517987Y-85666310D01*
X151504732Y-85750000D01*
X143527000Y-85750000D01*
X143527000Y-85729000D01*
X144027000Y-85729000D01*
X144527000Y-85729000D01*
X144527000Y-85687897D01*
X144516868Y-85603532D01*
X144516868Y-85603531D01*
X144463922Y-85469270D01*
X144376721Y-85354278D01*
X144325984Y-85315804D01*
X144284461Y-85259612D01*
X144279909Y-85189891D01*
X144313773Y-85128777D01*
X144325984Y-85118196D01*
X144376721Y-85079721D01*
X144463922Y-84964729D01*
X144516868Y-84830468D01*
X144516868Y-84830467D01*
X144527000Y-84746102D01*
X144527000Y-84705000D01*
X144027000Y-84705000D01*
X144027000Y-85729000D01*
X143527000Y-85729000D01*
X143527000Y-84205000D01*
X144027000Y-84205000D01*
X144527000Y-84205000D01*
X144527000Y-84163897D01*
X144516868Y-84079532D01*
X144516868Y-84079531D01*
X144463922Y-83945270D01*
X144376721Y-83830278D01*
X144261729Y-83743077D01*
X144127467Y-83690131D01*
X144043102Y-83680000D01*
X144027000Y-83680000D01*
X144027000Y-84205000D01*
X143527000Y-84205000D01*
X143527000Y-83680000D01*
X143510898Y-83680000D01*
X143426532Y-83690131D01*
X143426531Y-83690131D01*
X143292270Y-83743077D01*
X143177280Y-83830277D01*
X143101118Y-83930712D01*
X143044925Y-83972235D01*
X142975204Y-83976786D01*
X142914090Y-83942921D01*
X142903511Y-83930712D01*
X142827078Y-83829922D01*
X142711976Y-83742636D01*
X142577588Y-83689640D01*
X142534242Y-83684435D01*
X142493144Y-83679500D01*
X141960856Y-83679500D01*
X141922841Y-83684065D01*
X141876411Y-83689640D01*
X141742023Y-83742636D01*
X141626921Y-83829921D01*
X141539635Y-83945025D01*
X141527146Y-83976695D01*
X141484239Y-84031839D01*
X141433052Y-84052133D01*
X141433123Y-84052397D01*
X141430857Y-84053003D01*
X141427990Y-84054141D01*
X141425283Y-84054497D01*
X141323410Y-84081793D01*
X141232087Y-84134520D01*
X141232084Y-84134522D01*
X140122522Y-85244084D01*
X140122520Y-85244087D01*
X140069793Y-85335411D01*
X140050769Y-85406412D01*
X140042500Y-85437271D01*
X140042500Y-86669745D01*
X140036896Y-86688827D01*
X140036220Y-86708707D01*
X140026367Y-86724687D01*
X140022815Y-86736784D01*
X140014426Y-86744052D01*
X140006181Y-86757426D01*
X139820426Y-86943181D01*
X139759103Y-86976666D01*
X139732745Y-86979500D01*
X139697500Y-86979500D01*
X139630461Y-86959815D01*
X139584706Y-86907011D01*
X139573500Y-86855501D01*
X139573499Y-86685144D01*
X139573499Y-86685136D01*
X139570585Y-86660009D01*
X139570574Y-86659911D01*
X139570567Y-86659899D01*
X139570568Y-86659859D01*
X139569511Y-86650742D01*
X139570884Y-86650582D01*
X139571016Y-86646688D01*
X139571018Y-86609372D01*
X139569015Y-86609140D01*
X139572999Y-86574797D01*
X139573000Y-86574791D01*
X139573000Y-86530000D01*
X139549333Y-86530000D01*
X139520880Y-86521645D01*
X139491797Y-86515843D01*
X139485596Y-86511284D01*
X139482294Y-86510315D01*
X139463181Y-86495184D01*
X139462416Y-86494445D01*
X139445765Y-86477794D01*
X139444685Y-86477317D01*
X139436266Y-86469184D01*
X139423938Y-86447507D01*
X139408165Y-86428190D01*
X139406964Y-86417659D01*
X139401726Y-86408449D01*
X139403074Y-86383547D01*
X139400249Y-86358770D01*
X139404930Y-86349264D01*
X139405504Y-86338682D01*
X139420102Y-86318460D01*
X139431121Y-86296090D01*
X139437699Y-86290390D01*
X139437640Y-86290331D01*
X139461652Y-86266319D01*
X139522975Y-86232834D01*
X139549333Y-86230000D01*
X139572999Y-86230000D01*
X139572999Y-86185214D01*
X139572997Y-86185191D01*
X139569016Y-86150859D01*
X139571016Y-86150627D01*
X139571016Y-86109429D01*
X139569510Y-86109255D01*
X139570585Y-86099991D01*
X139573500Y-86074865D01*
X139573499Y-85685136D01*
X139571316Y-85666310D01*
X139570586Y-85660012D01*
X139570585Y-85660011D01*
X139570585Y-85660009D01*
X139526725Y-85560676D01*
X139517654Y-85491400D01*
X139547477Y-85428215D01*
X139552461Y-85422929D01*
X141734573Y-83240819D01*
X141795896Y-83207334D01*
X141822254Y-83204500D01*
X142165725Y-83204500D01*
X142165727Y-83204500D01*
X142267588Y-83177207D01*
X142358913Y-83124480D01*
X142589301Y-82894091D01*
X142589303Y-82894090D01*
X142663870Y-82819523D01*
X142716597Y-82728197D01*
X142716597Y-82728196D01*
X142720661Y-82721158D01*
X142723323Y-82722695D01*
X142758006Y-82679649D01*
X142787884Y-82664421D01*
X142807722Y-82657499D01*
X142838254Y-82657499D01*
X142863381Y-82654585D01*
X142966155Y-82609206D01*
X142976887Y-82598473D01*
X143002539Y-82589523D01*
X143021598Y-82588567D01*
X143039741Y-82582655D01*
X143055769Y-82586853D01*
X143072321Y-82586023D01*
X143088871Y-82595523D01*
X143107331Y-82600358D01*
X143113470Y-82604303D01*
X143120619Y-82609200D01*
X143120625Y-82609206D01*
X143223399Y-82654585D01*
X143248525Y-82657500D01*
X144238254Y-82657499D01*
X144238269Y-82657497D01*
X144238272Y-82657497D01*
X144263377Y-82654586D01*
X144263378Y-82654585D01*
X144263381Y-82654585D01*
X144366155Y-82609206D01*
X144432764Y-82542596D01*
X144494083Y-82509114D01*
X144562968Y-82513800D01*
X144573101Y-82517499D01*
X144638412Y-82555207D01*
X144740273Y-82582500D01*
X144751137Y-82582500D01*
X144770077Y-82589415D01*
X144787655Y-82602384D01*
X144807635Y-82611224D01*
X144816625Y-82623759D01*
X144826300Y-82630898D01*
X144831460Y-82644444D01*
X144842905Y-82660403D01*
X144845496Y-82666975D01*
X144932782Y-82782078D01*
X144999875Y-82832956D01*
X145041399Y-82889149D01*
X145045950Y-82958870D01*
X145032338Y-82993759D01*
X144982423Y-83080215D01*
X144982423Y-83080216D01*
X144941500Y-83232943D01*
X144941500Y-83391056D01*
X144982423Y-83543783D01*
X144982426Y-83543790D01*
X145061475Y-83680709D01*
X145061479Y-83680714D01*
X145061480Y-83680716D01*
X145173284Y-83792520D01*
X145173286Y-83792521D01*
X145173290Y-83792524D01*
X145286556Y-83857917D01*
X145310216Y-83871577D01*
X145462943Y-83912500D01*
X145462945Y-83912500D01*
X145621055Y-83912500D01*
X145621057Y-83912500D01*
X145773784Y-83871577D01*
X145910716Y-83792520D01*
X146022520Y-83680716D01*
X146101577Y-83543784D01*
X146142500Y-83391057D01*
X146142500Y-83232943D01*
X146101577Y-83080216D01*
X146061320Y-83010489D01*
X146044848Y-82942591D01*
X146067700Y-82876564D01*
X146093780Y-82849689D01*
X146182939Y-82782078D01*
X146270225Y-82666975D01*
X146323220Y-82532590D01*
X146333361Y-82448144D01*
X146333361Y-82157898D01*
X155096834Y-82157898D01*
X155683520Y-82157898D01*
X155682665Y-82159962D01*
X155650000Y-82324180D01*
X155650000Y-82491616D01*
X155682665Y-82655834D01*
X155683520Y-82657898D01*
X155096834Y-82657898D01*
X155110089Y-82741587D01*
X155179399Y-82954905D01*
X155179400Y-82954908D01*
X155281231Y-83154761D01*
X155413073Y-83336224D01*
X155413073Y-83336225D01*
X155571672Y-83494824D01*
X155753136Y-83626666D01*
X155952989Y-83728497D01*
X155952992Y-83728498D01*
X156166310Y-83797808D01*
X156250000Y-83811064D01*
X156250000Y-83224378D01*
X156252064Y-83225233D01*
X156416282Y-83257898D01*
X156583718Y-83257898D01*
X156747936Y-83225233D01*
X156750000Y-83224378D01*
X156750000Y-83811063D01*
X156833689Y-83797808D01*
X157047007Y-83728498D01*
X157047010Y-83728497D01*
X157246863Y-83626666D01*
X157428326Y-83494824D01*
X157428327Y-83494824D01*
X157586926Y-83336225D01*
X157586926Y-83336224D01*
X157718768Y-83154761D01*
X157820599Y-82954908D01*
X157820600Y-82954905D01*
X157889910Y-82741587D01*
X157903166Y-82657898D01*
X157316480Y-82657898D01*
X157317335Y-82655834D01*
X157350000Y-82491616D01*
X157350000Y-82324180D01*
X157317335Y-82159962D01*
X157316480Y-82157898D01*
X157903166Y-82157898D01*
X157889910Y-82074208D01*
X157820600Y-81860890D01*
X157820599Y-81860887D01*
X157718768Y-81661034D01*
X157586926Y-81479571D01*
X157586926Y-81479570D01*
X157428327Y-81320971D01*
X157246863Y-81189129D01*
X157047010Y-81087298D01*
X157047007Y-81087297D01*
X156833684Y-81017986D01*
X156750000Y-81004731D01*
X156750000Y-81591417D01*
X156747936Y-81590563D01*
X156583718Y-81557898D01*
X156416282Y-81557898D01*
X156252064Y-81590563D01*
X156250000Y-81591417D01*
X156250000Y-81004731D01*
X156249999Y-81004731D01*
X156166315Y-81017986D01*
X155952992Y-81087297D01*
X155952989Y-81087298D01*
X155753136Y-81189129D01*
X155571673Y-81320971D01*
X155571672Y-81320971D01*
X155413073Y-81479570D01*
X155413073Y-81479571D01*
X155281231Y-81661034D01*
X155179400Y-81860887D01*
X155179399Y-81860890D01*
X155110089Y-82074208D01*
X155096834Y-82157898D01*
X146333361Y-82157898D01*
X146333361Y-81915856D01*
X146323220Y-81831410D01*
X146270225Y-81697025D01*
X146270224Y-81697024D01*
X146270224Y-81697023D01*
X146189492Y-81590563D01*
X146182939Y-81581922D01*
X146182938Y-81581921D01*
X146082148Y-81505488D01*
X146040625Y-81449296D01*
X146036074Y-81379574D01*
X146069939Y-81318461D01*
X146082149Y-81307881D01*
X146182582Y-81231721D01*
X146269783Y-81116729D01*
X146322729Y-80982468D01*
X146322729Y-80982467D01*
X146332861Y-80898102D01*
X146332861Y-80882000D01*
X144782861Y-80882000D01*
X144782861Y-80898102D01*
X144792992Y-80982467D01*
X144792992Y-80982468D01*
X144845938Y-81116729D01*
X144933139Y-81231721D01*
X145033572Y-81307881D01*
X145047911Y-81327285D01*
X145065510Y-81343787D01*
X145068299Y-81354876D01*
X145075095Y-81364073D01*
X145076666Y-81388145D01*
X145082552Y-81411546D01*
X145078902Y-81422384D01*
X145079647Y-81433795D01*
X145067953Y-81454897D01*
X145060254Y-81477762D01*
X145048536Y-81489938D01*
X145045782Y-81494909D01*
X145036113Y-81503509D01*
X145034799Y-81504559D01*
X144932783Y-81581922D01*
X144924572Y-81592749D01*
X144912539Y-81602377D01*
X144893889Y-81610025D01*
X144877677Y-81622004D01*
X144862222Y-81623012D01*
X144847895Y-81628888D01*
X144828072Y-81625239D01*
X144807956Y-81626552D01*
X144783633Y-81617060D01*
X144779179Y-81616241D01*
X144777501Y-81614668D01*
X144773073Y-81612940D01*
X144722591Y-81583794D01*
X144722588Y-81583793D01*
X144620727Y-81556500D01*
X144620726Y-81556500D01*
X144602456Y-81556500D01*
X144584617Y-81551261D01*
X144566026Y-81551028D01*
X144551786Y-81541621D01*
X144535417Y-81536815D01*
X144523244Y-81522766D01*
X144507728Y-81512517D01*
X144490558Y-81485046D01*
X144489662Y-81484011D01*
X144489050Y-81482650D01*
X144477488Y-81456464D01*
X144468417Y-81387190D01*
X144477490Y-81356292D01*
X144490479Y-81326874D01*
X144493389Y-81301794D01*
X144493390Y-81301791D01*
X144493390Y-81107000D01*
X141593391Y-81107000D01*
X141593391Y-81301785D01*
X141593392Y-81301808D01*
X141596299Y-81326872D01*
X141596300Y-81326876D01*
X141609290Y-81356297D01*
X141618360Y-81425575D01*
X141609291Y-81456464D01*
X141595805Y-81487007D01*
X141595805Y-81487009D01*
X141592890Y-81512131D01*
X141592890Y-82297467D01*
X141586726Y-82318456D01*
X141585262Y-82340288D01*
X141577075Y-82351325D01*
X141573205Y-82364506D01*
X141556673Y-82378831D01*
X141543637Y-82396406D01*
X141527026Y-82404520D01*
X141520401Y-82410261D01*
X141512735Y-82413457D01*
X141506947Y-82415644D01*
X141450412Y-82430793D01*
X141427929Y-82443774D01*
X141419202Y-82448812D01*
X141419198Y-82448814D01*
X141359090Y-82483518D01*
X141359084Y-82483522D01*
X141284518Y-82558089D01*
X138810180Y-85032426D01*
X138790743Y-85043038D01*
X138774010Y-85057539D01*
X138760678Y-85059455D01*
X138748857Y-85065911D01*
X138726770Y-85064331D01*
X138704852Y-85067483D01*
X138692600Y-85061887D01*
X138679165Y-85060927D01*
X138661438Y-85047656D01*
X138641296Y-85038458D01*
X138634013Y-85027126D01*
X138623232Y-85019055D01*
X138615494Y-84998309D01*
X138603522Y-84979680D01*
X138600370Y-84957761D01*
X138598815Y-84953591D01*
X138598499Y-84944745D01*
X138598499Y-84777255D01*
X138618184Y-84710216D01*
X138634818Y-84689574D01*
X139452819Y-83871573D01*
X140312483Y-83011910D01*
X140314941Y-83007651D01*
X140358329Y-82932503D01*
X140358330Y-82932501D01*
X140361121Y-82927665D01*
X140365210Y-82920584D01*
X140392503Y-82818724D01*
X140392503Y-80412205D01*
X141593390Y-80412205D01*
X141593390Y-80607000D01*
X142093390Y-80607000D01*
X142593390Y-80607000D01*
X143493390Y-80607000D01*
X143993390Y-80607000D01*
X144493389Y-80607000D01*
X144493389Y-80412214D01*
X144493387Y-80412191D01*
X144490481Y-80387130D01*
X144490480Y-80387127D01*
X144481106Y-80365897D01*
X144782861Y-80365897D01*
X144782861Y-80382000D01*
X145307861Y-80382000D01*
X145807861Y-80382000D01*
X146332861Y-80382000D01*
X146332861Y-80365897D01*
X146322729Y-80281532D01*
X146322729Y-80281531D01*
X146269783Y-80147270D01*
X146182582Y-80032278D01*
X146067590Y-79945077D01*
X145933328Y-79892131D01*
X145848963Y-79882000D01*
X145807861Y-79882000D01*
X145807861Y-80382000D01*
X145307861Y-80382000D01*
X145307861Y-79882000D01*
X145266759Y-79882000D01*
X145182393Y-79892131D01*
X145182392Y-79892131D01*
X145048131Y-79945077D01*
X144933139Y-80032278D01*
X144845938Y-80147270D01*
X144792992Y-80281531D01*
X144792992Y-80281532D01*
X144782861Y-80365897D01*
X144481106Y-80365897D01*
X144445178Y-80284525D01*
X144445175Y-80284520D01*
X144365869Y-80205214D01*
X144365864Y-80205211D01*
X144263266Y-80159910D01*
X144238184Y-80157000D01*
X143993390Y-80157000D01*
X143993390Y-80607000D01*
X143493390Y-80607000D01*
X143493390Y-80157000D01*
X143248604Y-80157000D01*
X143248581Y-80157002D01*
X143223520Y-80159908D01*
X143223516Y-80159909D01*
X143120909Y-80205213D01*
X143113467Y-80210312D01*
X143047036Y-80231959D01*
X142979446Y-80214254D01*
X142973313Y-80210312D01*
X142965870Y-80205213D01*
X142863266Y-80159910D01*
X142838184Y-80157000D01*
X142593390Y-80157000D01*
X142593390Y-80607000D01*
X142093390Y-80607000D01*
X142093390Y-80157000D01*
X141848604Y-80157000D01*
X141848581Y-80157002D01*
X141823520Y-80159908D01*
X141823516Y-80159909D01*
X141720915Y-80205211D01*
X141720910Y-80205214D01*
X141641604Y-80284520D01*
X141641601Y-80284525D01*
X141596300Y-80387122D01*
X141596300Y-80387124D01*
X141593390Y-80412205D01*
X140392503Y-80412205D01*
X140392503Y-79621098D01*
X140412188Y-79554059D01*
X140428822Y-79533417D01*
X140448611Y-79513628D01*
X140472523Y-79489716D01*
X140551580Y-79352784D01*
X140592503Y-79200057D01*
X140592503Y-79041943D01*
X140551580Y-78889216D01*
X140551576Y-78889209D01*
X140472527Y-78752290D01*
X140472521Y-78752282D01*
X140360720Y-78640481D01*
X140360712Y-78640475D01*
X140223793Y-78561426D01*
X140223789Y-78561424D01*
X140223787Y-78561423D01*
X140071060Y-78520500D01*
X139912946Y-78520500D01*
X139760219Y-78561423D01*
X139760218Y-78561423D01*
X139654000Y-78622747D01*
X139643043Y-78625404D01*
X139633938Y-78632052D01*
X139609697Y-78633493D01*
X139586099Y-78639218D01*
X139573635Y-78635638D01*
X139564192Y-78636200D01*
X139533380Y-78624076D01*
X139531273Y-78623471D01*
X139530618Y-78623103D01*
X139423784Y-78561423D01*
X139418098Y-78559899D01*
X139406022Y-78553116D01*
X139386574Y-78533196D01*
X139364896Y-78515728D01*
X139362503Y-78508541D01*
X139357213Y-78503122D01*
X139351622Y-78475850D01*
X139342829Y-78449434D01*
X139344702Y-78442094D01*
X139343181Y-78434675D01*
X139353221Y-78408710D01*
X139360106Y-78381734D01*
X139367170Y-78372640D01*
X139368381Y-78369509D01*
X139371203Y-78367448D01*
X139379065Y-78357327D01*
X139956574Y-77779819D01*
X140017897Y-77746334D01*
X140044255Y-77743500D01*
X153722725Y-77743500D01*
X153722727Y-77743500D01*
X153824588Y-77716207D01*
X153915913Y-77663480D01*
X155556703Y-76022687D01*
X155556708Y-76022684D01*
X155566911Y-76012480D01*
X155566913Y-76012480D01*
X155641480Y-75937913D01*
X155694207Y-75846587D01*
X155696987Y-75836211D01*
X155721501Y-75744727D01*
X155722648Y-75740447D01*
X155759013Y-75680787D01*
X155821860Y-75650259D01*
X155891236Y-75658554D01*
X155915307Y-75672224D01*
X156027265Y-75753565D01*
X156188552Y-75835747D01*
X156188555Y-75835748D01*
X156360699Y-75891680D01*
X156360712Y-75891683D01*
X156380000Y-75894738D01*
X156380000Y-75203012D01*
X156437007Y-75235925D01*
X156564174Y-75270000D01*
X156695826Y-75270000D01*
X156822993Y-75235925D01*
X156880000Y-75203012D01*
X156880000Y-75894737D01*
X156899287Y-75891683D01*
X156899300Y-75891680D01*
X157071444Y-75835748D01*
X157071447Y-75835747D01*
X157232734Y-75753565D01*
X157379169Y-75647176D01*
X157507176Y-75519169D01*
X157613565Y-75372734D01*
X157695747Y-75211447D01*
X157695749Y-75211441D01*
X157751681Y-75039295D01*
X157751684Y-75039285D01*
X157754739Y-75020000D01*
X157063012Y-75020000D01*
X157095925Y-74962993D01*
X157130000Y-74835826D01*
X157130000Y-74704174D01*
X157095925Y-74577007D01*
X157063012Y-74520000D01*
X157754739Y-74520000D01*
X157751684Y-74500714D01*
X157751681Y-74500704D01*
X157695749Y-74328558D01*
X157695747Y-74328552D01*
X157613565Y-74167265D01*
X157507176Y-74020830D01*
X157379169Y-73892823D01*
X157232734Y-73786434D01*
X157071447Y-73704252D01*
X157071444Y-73704251D01*
X156899293Y-73648317D01*
X156737720Y-73622726D01*
X156674585Y-73592797D01*
X156637654Y-73533485D01*
X156638652Y-73463623D01*
X156677262Y-73405390D01*
X156737720Y-73377780D01*
X156752270Y-73375475D01*
X156888164Y-73353952D01*
X158899500Y-73353952D01*
X158899500Y-73646047D01*
X158932199Y-73936271D01*
X158932202Y-73936285D01*
X158997196Y-74221044D01*
X158997197Y-74221046D01*
X159093665Y-74496738D01*
X159220393Y-74759890D01*
X159220395Y-74759893D01*
X159375792Y-75007206D01*
X159505695Y-75170099D01*
X159538668Y-75211447D01*
X159557902Y-75235565D01*
X159764435Y-75442098D01*
X159992794Y-75624208D01*
X160240107Y-75779605D01*
X160503263Y-75906335D01*
X160778955Y-76002803D01*
X161063714Y-76067798D01*
X161063723Y-76067799D01*
X161063728Y-76067800D01*
X161257210Y-76089599D01*
X161353953Y-76100499D01*
X161353956Y-76100500D01*
X161353959Y-76100500D01*
X161646044Y-76100500D01*
X161646045Y-76100499D01*
X161794371Y-76083787D01*
X161936271Y-76067800D01*
X161936274Y-76067799D01*
X161936286Y-76067798D01*
X162221045Y-76002803D01*
X162496737Y-75906335D01*
X162759893Y-75779605D01*
X163007206Y-75624208D01*
X163235565Y-75442098D01*
X163442098Y-75235565D01*
X163624208Y-75007206D01*
X163779605Y-74759893D01*
X163906335Y-74496737D01*
X164002803Y-74221045D01*
X164067798Y-73936286D01*
X164072738Y-73892447D01*
X164089098Y-73747235D01*
X164100500Y-73646041D01*
X164100500Y-73353959D01*
X164086454Y-73229292D01*
X164067800Y-73063728D01*
X164067799Y-73063723D01*
X164067798Y-73063714D01*
X164002803Y-72778955D01*
X163906335Y-72503263D01*
X163779605Y-72240107D01*
X163624208Y-71992794D01*
X163442098Y-71764435D01*
X163235565Y-71557902D01*
X163007206Y-71375792D01*
X162759893Y-71220395D01*
X162759890Y-71220393D01*
X162496738Y-71093665D01*
X162221046Y-70997197D01*
X162221044Y-70997196D01*
X161983384Y-70942952D01*
X161936286Y-70932202D01*
X161936283Y-70932201D01*
X161936271Y-70932199D01*
X161646047Y-70899500D01*
X161646041Y-70899500D01*
X161353959Y-70899500D01*
X161353952Y-70899500D01*
X161063728Y-70932199D01*
X161063714Y-70932202D01*
X160778955Y-70997196D01*
X160778953Y-70997197D01*
X160503261Y-71093665D01*
X160240109Y-71220393D01*
X159992795Y-71375791D01*
X159764435Y-71557901D01*
X159557901Y-71764435D01*
X159375791Y-71992795D01*
X159220393Y-72240109D01*
X159093665Y-72503261D01*
X158997197Y-72778953D01*
X158997196Y-72778955D01*
X158932202Y-73063714D01*
X158932199Y-73063728D01*
X158899500Y-73353952D01*
X156888164Y-73353952D01*
X156899409Y-73352171D01*
X157071639Y-73296211D01*
X157232994Y-73213996D01*
X157379501Y-73107553D01*
X157507553Y-72979501D01*
X157613996Y-72832994D01*
X157696211Y-72671639D01*
X157752171Y-72499409D01*
X157768761Y-72394664D01*
X157780500Y-72320551D01*
X157780500Y-72139448D01*
X157764019Y-72035397D01*
X157752171Y-71960591D01*
X157696211Y-71788361D01*
X157696211Y-71788360D01*
X157667740Y-71732484D01*
X157613996Y-71627006D01*
X157575643Y-71574217D01*
X157507558Y-71480505D01*
X157507554Y-71480500D01*
X157379499Y-71352445D01*
X157379494Y-71352441D01*
X157232997Y-71246006D01*
X157232996Y-71246005D01*
X157232994Y-71246004D01*
X157181300Y-71219664D01*
X157071639Y-71163788D01*
X157071636Y-71163787D01*
X156899410Y-71107829D01*
X156720551Y-71079500D01*
X156720546Y-71079500D01*
X156539454Y-71079500D01*
X156539449Y-71079500D01*
X156360589Y-71107829D01*
X156188363Y-71163787D01*
X156188360Y-71163788D01*
X156027002Y-71246006D01*
X155880505Y-71352441D01*
X155880500Y-71352445D01*
X155752445Y-71480500D01*
X155752441Y-71480505D01*
X155646006Y-71627002D01*
X155563788Y-71788360D01*
X155563787Y-71788363D01*
X155507829Y-71960589D01*
X155482473Y-72120678D01*
X155452544Y-72183813D01*
X155393232Y-72220744D01*
X155323369Y-72219746D01*
X155265137Y-72181136D01*
X155237527Y-72120678D01*
X155223740Y-72033639D01*
X155212171Y-71960591D01*
X155156211Y-71788361D01*
X155156211Y-71788360D01*
X155127740Y-71732484D01*
X155073996Y-71627006D01*
X155035643Y-71574217D01*
X154967558Y-71480505D01*
X154967554Y-71480500D01*
X154839499Y-71352445D01*
X154839494Y-71352441D01*
X154692997Y-71246006D01*
X154692996Y-71246005D01*
X154692994Y-71246004D01*
X154641300Y-71219664D01*
X154531639Y-71163788D01*
X154531636Y-71163787D01*
X154359410Y-71107829D01*
X154180551Y-71079500D01*
X154180546Y-71079500D01*
X153999454Y-71079500D01*
X153999449Y-71079500D01*
X153820589Y-71107829D01*
X153648363Y-71163787D01*
X153648360Y-71163788D01*
X153487002Y-71246006D01*
X153340505Y-71352441D01*
X153340500Y-71352445D01*
X153212445Y-71480500D01*
X153212441Y-71480505D01*
X153106006Y-71627002D01*
X153023788Y-71788360D01*
X153023787Y-71788363D01*
X152967829Y-71960589D01*
X152942473Y-72120678D01*
X152912544Y-72183813D01*
X152853232Y-72220744D01*
X152783369Y-72219746D01*
X152725137Y-72181136D01*
X152697527Y-72120678D01*
X152683740Y-72033639D01*
X152672171Y-71960591D01*
X152616211Y-71788361D01*
X152616211Y-71788360D01*
X152587740Y-71732484D01*
X152533996Y-71627006D01*
X152495643Y-71574217D01*
X152427558Y-71480505D01*
X152427554Y-71480500D01*
X152299499Y-71352445D01*
X152299494Y-71352441D01*
X152152997Y-71246006D01*
X152152996Y-71246005D01*
X152152994Y-71246004D01*
X152101300Y-71219664D01*
X151991639Y-71163788D01*
X151991636Y-71163787D01*
X151819410Y-71107829D01*
X151640551Y-71079500D01*
X151640546Y-71079500D01*
X151459454Y-71079500D01*
X151459449Y-71079500D01*
X151280589Y-71107829D01*
X151108363Y-71163787D01*
X151108360Y-71163788D01*
X150947002Y-71246006D01*
X150800505Y-71352441D01*
X150800500Y-71352445D01*
X150672445Y-71480500D01*
X150672441Y-71480505D01*
X150566006Y-71627002D01*
X150483788Y-71788360D01*
X150483787Y-71788363D01*
X150427829Y-71960589D01*
X150402473Y-72120678D01*
X150372544Y-72183813D01*
X150313232Y-72220744D01*
X150243369Y-72219746D01*
X150185137Y-72181136D01*
X150157527Y-72120678D01*
X150143740Y-72033639D01*
X150132171Y-71960591D01*
X150076211Y-71788361D01*
X150076211Y-71788360D01*
X150047740Y-71732484D01*
X149993996Y-71627006D01*
X149955643Y-71574217D01*
X149887558Y-71480505D01*
X149887554Y-71480500D01*
X149759499Y-71352445D01*
X149759494Y-71352441D01*
X149612997Y-71246006D01*
X149612996Y-71246005D01*
X149612994Y-71246004D01*
X149561300Y-71219664D01*
X149451639Y-71163788D01*
X149451636Y-71163787D01*
X149279410Y-71107829D01*
X149100551Y-71079500D01*
X149100546Y-71079500D01*
X148919454Y-71079500D01*
X148919449Y-71079500D01*
X148740589Y-71107829D01*
X148568363Y-71163787D01*
X148568360Y-71163788D01*
X148407002Y-71246006D01*
X148260505Y-71352441D01*
X148260500Y-71352445D01*
X148132445Y-71480500D01*
X148132441Y-71480505D01*
X148026006Y-71627002D01*
X147943788Y-71788360D01*
X147943787Y-71788363D01*
X147887829Y-71960589D01*
X147862473Y-72120678D01*
X147832544Y-72183813D01*
X147773232Y-72220744D01*
X147703369Y-72219746D01*
X147645137Y-72181136D01*
X147617527Y-72120678D01*
X147603740Y-72033639D01*
X147592171Y-71960591D01*
X147536211Y-71788361D01*
X147536211Y-71788360D01*
X147507740Y-71732484D01*
X147453996Y-71627006D01*
X147415643Y-71574217D01*
X147347558Y-71480505D01*
X147347554Y-71480500D01*
X147219499Y-71352445D01*
X147219494Y-71352441D01*
X147072997Y-71246006D01*
X147072996Y-71246005D01*
X147072994Y-71246004D01*
X147021300Y-71219664D01*
X146911639Y-71163788D01*
X146911636Y-71163787D01*
X146739410Y-71107829D01*
X146560551Y-71079500D01*
X146560546Y-71079500D01*
X146379454Y-71079500D01*
X146379449Y-71079500D01*
X146200589Y-71107829D01*
X146028363Y-71163787D01*
X146028360Y-71163788D01*
X145867002Y-71246006D01*
X145720505Y-71352441D01*
X145720500Y-71352445D01*
X145592445Y-71480500D01*
X145592441Y-71480505D01*
X145486006Y-71627002D01*
X145403788Y-71788360D01*
X145403787Y-71788363D01*
X145347829Y-71960589D01*
X145322473Y-72120678D01*
X145292544Y-72183813D01*
X145233232Y-72220744D01*
X145163369Y-72219746D01*
X145105137Y-72181136D01*
X145077527Y-72120678D01*
X145063740Y-72033639D01*
X145052171Y-71960591D01*
X144996211Y-71788361D01*
X144996211Y-71788360D01*
X144967740Y-71732484D01*
X144913996Y-71627006D01*
X144875643Y-71574217D01*
X144807558Y-71480505D01*
X144807554Y-71480500D01*
X144679499Y-71352445D01*
X144679494Y-71352441D01*
X144532997Y-71246006D01*
X144532996Y-71246005D01*
X144532994Y-71246004D01*
X144481300Y-71219664D01*
X144371639Y-71163788D01*
X144371636Y-71163787D01*
X144199410Y-71107829D01*
X144020551Y-71079500D01*
X144020546Y-71079500D01*
X143839454Y-71079500D01*
X143839449Y-71079500D01*
X143660589Y-71107829D01*
X143488363Y-71163787D01*
X143488360Y-71163788D01*
X143327002Y-71246006D01*
X143180505Y-71352441D01*
X143180500Y-71352445D01*
X143052445Y-71480500D01*
X143052441Y-71480505D01*
X142946006Y-71627002D01*
X142863788Y-71788360D01*
X142863787Y-71788363D01*
X142807829Y-71960589D01*
X142782473Y-72120678D01*
X142752544Y-72183813D01*
X142693232Y-72220744D01*
X142623369Y-72219746D01*
X142565137Y-72181136D01*
X142537527Y-72120678D01*
X142523740Y-72033639D01*
X142512171Y-71960591D01*
X142456211Y-71788361D01*
X142456211Y-71788360D01*
X142427740Y-71732484D01*
X142373996Y-71627006D01*
X142335643Y-71574217D01*
X142267558Y-71480505D01*
X142267554Y-71480500D01*
X142139499Y-71352445D01*
X142139494Y-71352441D01*
X141992997Y-71246006D01*
X141992996Y-71246005D01*
X141992994Y-71246004D01*
X141941300Y-71219664D01*
X141831639Y-71163788D01*
X141831636Y-71163787D01*
X141659410Y-71107829D01*
X141480551Y-71079500D01*
X141480546Y-71079500D01*
X141299454Y-71079500D01*
X141299449Y-71079500D01*
X141120589Y-71107829D01*
X140948363Y-71163787D01*
X140948360Y-71163788D01*
X140787002Y-71246006D01*
X140640505Y-71352441D01*
X140640500Y-71352445D01*
X140512445Y-71480500D01*
X140512441Y-71480505D01*
X140406006Y-71627002D01*
X140323788Y-71788360D01*
X140323787Y-71788363D01*
X140267829Y-71960589D01*
X140242473Y-72120678D01*
X140212544Y-72183813D01*
X140153232Y-72220744D01*
X140083369Y-72219746D01*
X140025137Y-72181136D01*
X139997527Y-72120678D01*
X139983740Y-72033639D01*
X139972171Y-71960591D01*
X139916211Y-71788361D01*
X139916211Y-71788360D01*
X139887740Y-71732484D01*
X139833996Y-71627006D01*
X139795643Y-71574217D01*
X139727558Y-71480505D01*
X139727554Y-71480500D01*
X139599499Y-71352445D01*
X139599494Y-71352441D01*
X139452997Y-71246006D01*
X139452996Y-71246005D01*
X139452994Y-71246004D01*
X139401300Y-71219664D01*
X139291639Y-71163788D01*
X139291636Y-71163787D01*
X139119410Y-71107829D01*
X138940551Y-71079500D01*
X138940546Y-71079500D01*
X138759454Y-71079500D01*
X138759449Y-71079500D01*
X138580589Y-71107829D01*
X138408363Y-71163787D01*
X138408360Y-71163788D01*
X138247002Y-71246006D01*
X138100505Y-71352441D01*
X138100500Y-71352445D01*
X137972445Y-71480500D01*
X137972441Y-71480505D01*
X137866006Y-71627002D01*
X137783788Y-71788360D01*
X137783787Y-71788363D01*
X137727829Y-71960589D01*
X137702473Y-72120678D01*
X137672544Y-72183813D01*
X137613232Y-72220744D01*
X137543369Y-72219746D01*
X137485137Y-72181136D01*
X137457527Y-72120678D01*
X137443740Y-72033639D01*
X137432171Y-71960591D01*
X137376211Y-71788361D01*
X137376211Y-71788360D01*
X137347740Y-71732484D01*
X137293996Y-71627006D01*
X137255643Y-71574217D01*
X137187558Y-71480505D01*
X137187554Y-71480500D01*
X137059499Y-71352445D01*
X137059494Y-71352441D01*
X136912997Y-71246006D01*
X136912996Y-71246005D01*
X136912994Y-71246004D01*
X136861300Y-71219664D01*
X136751639Y-71163788D01*
X136751636Y-71163787D01*
X136579410Y-71107829D01*
X136400551Y-71079500D01*
X136400546Y-71079500D01*
X136219454Y-71079500D01*
X136219449Y-71079500D01*
X136040589Y-71107829D01*
X135868363Y-71163787D01*
X135868360Y-71163788D01*
X135707002Y-71246006D01*
X135560505Y-71352441D01*
X135560500Y-71352445D01*
X135432445Y-71480500D01*
X135432441Y-71480505D01*
X135326006Y-71627002D01*
X135243788Y-71788360D01*
X135243787Y-71788363D01*
X135187829Y-71960589D01*
X135162473Y-72120678D01*
X135132544Y-72183813D01*
X135073232Y-72220744D01*
X135003369Y-72219746D01*
X134945137Y-72181136D01*
X134917527Y-72120678D01*
X134903740Y-72033639D01*
X134892171Y-71960591D01*
X134836211Y-71788361D01*
X134836211Y-71788360D01*
X134807740Y-71732484D01*
X134753996Y-71627006D01*
X134715643Y-71574217D01*
X134647558Y-71480505D01*
X134647554Y-71480500D01*
X134519499Y-71352445D01*
X134519494Y-71352441D01*
X134372997Y-71246006D01*
X134372996Y-71246005D01*
X134372994Y-71246004D01*
X134321300Y-71219664D01*
X134211639Y-71163788D01*
X134211636Y-71163787D01*
X134039410Y-71107829D01*
X133860551Y-71079500D01*
X133860546Y-71079500D01*
X133679454Y-71079500D01*
X133679449Y-71079500D01*
X133500589Y-71107829D01*
X133328363Y-71163787D01*
X133328360Y-71163788D01*
X133167002Y-71246006D01*
X133020505Y-71352441D01*
X133020500Y-71352445D01*
X132892445Y-71480500D01*
X132892441Y-71480505D01*
X132786006Y-71627002D01*
X132703788Y-71788360D01*
X132703787Y-71788363D01*
X132647829Y-71960589D01*
X132622473Y-72120678D01*
X132592544Y-72183813D01*
X132533232Y-72220744D01*
X132463369Y-72219746D01*
X132405137Y-72181136D01*
X132377527Y-72120678D01*
X132363740Y-72033639D01*
X132352171Y-71960591D01*
X132296211Y-71788361D01*
X132296211Y-71788360D01*
X132267740Y-71732484D01*
X132213996Y-71627006D01*
X132175643Y-71574217D01*
X132107558Y-71480505D01*
X132107554Y-71480500D01*
X131979499Y-71352445D01*
X131979494Y-71352441D01*
X131832997Y-71246006D01*
X131832996Y-71246005D01*
X131832994Y-71246004D01*
X131781300Y-71219664D01*
X131671639Y-71163788D01*
X131671636Y-71163787D01*
X131499410Y-71107829D01*
X131320551Y-71079500D01*
X131320546Y-71079500D01*
X131139454Y-71079500D01*
X131139449Y-71079500D01*
X130960589Y-71107829D01*
X130788363Y-71163787D01*
X130788360Y-71163788D01*
X130627002Y-71246006D01*
X130480505Y-71352441D01*
X130480500Y-71352445D01*
X130352445Y-71480500D01*
X130352441Y-71480505D01*
X130246006Y-71627002D01*
X130163788Y-71788360D01*
X130163787Y-71788363D01*
X130107829Y-71960589D01*
X130082473Y-72120678D01*
X130052544Y-72183813D01*
X129993232Y-72220744D01*
X129923369Y-72219746D01*
X129865137Y-72181136D01*
X129837527Y-72120678D01*
X129823740Y-72033639D01*
X129812171Y-71960591D01*
X129756211Y-71788361D01*
X129756211Y-71788360D01*
X129727740Y-71732484D01*
X129673996Y-71627006D01*
X129635643Y-71574217D01*
X129567558Y-71480505D01*
X129567554Y-71480500D01*
X129439499Y-71352445D01*
X129439494Y-71352441D01*
X129292997Y-71246006D01*
X129292996Y-71246005D01*
X129292994Y-71246004D01*
X129241300Y-71219664D01*
X129131639Y-71163788D01*
X129131636Y-71163787D01*
X128959410Y-71107829D01*
X128780551Y-71079500D01*
X128780546Y-71079500D01*
X128599454Y-71079500D01*
X128599449Y-71079500D01*
X128420589Y-71107829D01*
X128248363Y-71163787D01*
X128248360Y-71163788D01*
X128087002Y-71246006D01*
X127940505Y-71352441D01*
X127940500Y-71352445D01*
X127812445Y-71480500D01*
X127812441Y-71480505D01*
X127706006Y-71627002D01*
X127623788Y-71788360D01*
X127623787Y-71788363D01*
X127567829Y-71960589D01*
X127542473Y-72120678D01*
X127512544Y-72183813D01*
X127453232Y-72220744D01*
X127383369Y-72219746D01*
X127325137Y-72181136D01*
X127297527Y-72120678D01*
X127283740Y-72033639D01*
X127272171Y-71960591D01*
X127216211Y-71788361D01*
X127216211Y-71788360D01*
X127187740Y-71732484D01*
X127133996Y-71627006D01*
X127095643Y-71574217D01*
X127027558Y-71480505D01*
X127027554Y-71480500D01*
X126899499Y-71352445D01*
X126899494Y-71352441D01*
X126752997Y-71246006D01*
X126752996Y-71246005D01*
X126752994Y-71246004D01*
X126701300Y-71219664D01*
X126591639Y-71163788D01*
X126591636Y-71163787D01*
X126419410Y-71107829D01*
X126240551Y-71079500D01*
X126240546Y-71079500D01*
X126059454Y-71079500D01*
X126059449Y-71079500D01*
X125880589Y-71107829D01*
X125708363Y-71163787D01*
X125708360Y-71163788D01*
X125547002Y-71246006D01*
X125400505Y-71352441D01*
X125400500Y-71352445D01*
X125272445Y-71480500D01*
X125272441Y-71480505D01*
X125166006Y-71627002D01*
X125083788Y-71788360D01*
X125083787Y-71788363D01*
X125027829Y-71960589D01*
X125002473Y-72120678D01*
X124972544Y-72183813D01*
X124913232Y-72220744D01*
X124843369Y-72219746D01*
X124785137Y-72181136D01*
X124757527Y-72120678D01*
X124743740Y-72033639D01*
X124732171Y-71960591D01*
X124676211Y-71788361D01*
X124676211Y-71788360D01*
X124647740Y-71732484D01*
X124593996Y-71627006D01*
X124555643Y-71574217D01*
X124487558Y-71480505D01*
X124487554Y-71480500D01*
X124359499Y-71352445D01*
X124359494Y-71352441D01*
X124212997Y-71246006D01*
X124212996Y-71246005D01*
X124212994Y-71246004D01*
X124161300Y-71219664D01*
X124051639Y-71163788D01*
X124051636Y-71163787D01*
X123879410Y-71107829D01*
X123700551Y-71079500D01*
X123700546Y-71079500D01*
X123519454Y-71079500D01*
X123519449Y-71079500D01*
X123340589Y-71107829D01*
X123168363Y-71163787D01*
X123168360Y-71163788D01*
X123007002Y-71246006D01*
X122860505Y-71352441D01*
X122860500Y-71352445D01*
X122732445Y-71480500D01*
X122732441Y-71480505D01*
X122626006Y-71627002D01*
X122543788Y-71788360D01*
X122543787Y-71788363D01*
X122487829Y-71960589D01*
X122462473Y-72120678D01*
X122432544Y-72183813D01*
X122373232Y-72220744D01*
X122303369Y-72219746D01*
X122245137Y-72181136D01*
X122217527Y-72120678D01*
X122203740Y-72033639D01*
X122192171Y-71960591D01*
X122136211Y-71788361D01*
X122136211Y-71788360D01*
X122107740Y-71732484D01*
X122053996Y-71627006D01*
X122015643Y-71574217D01*
X121947558Y-71480505D01*
X121947554Y-71480500D01*
X121819499Y-71352445D01*
X121819494Y-71352441D01*
X121672997Y-71246006D01*
X121672996Y-71246005D01*
X121672994Y-71246004D01*
X121621300Y-71219664D01*
X121511639Y-71163788D01*
X121511636Y-71163787D01*
X121339410Y-71107829D01*
X121160551Y-71079500D01*
X121160546Y-71079500D01*
X120979454Y-71079500D01*
X120979449Y-71079500D01*
X120800589Y-71107829D01*
X120628363Y-71163787D01*
X120628360Y-71163788D01*
X120467002Y-71246006D01*
X120320505Y-71352441D01*
X120320500Y-71352445D01*
X120192445Y-71480500D01*
X120192441Y-71480505D01*
X120086006Y-71627002D01*
X120003788Y-71788360D01*
X120003787Y-71788363D01*
X119947829Y-71960589D01*
X119922473Y-72120678D01*
X119892544Y-72183813D01*
X119833232Y-72220744D01*
X119763369Y-72219746D01*
X119705137Y-72181136D01*
X119677527Y-72120678D01*
X119663740Y-72033639D01*
X119652171Y-71960591D01*
X119596211Y-71788361D01*
X119596211Y-71788360D01*
X119567740Y-71732484D01*
X119513996Y-71627006D01*
X119475643Y-71574217D01*
X119407558Y-71480505D01*
X119407554Y-71480500D01*
X119279499Y-71352445D01*
X119279494Y-71352441D01*
X119132997Y-71246006D01*
X119132996Y-71246005D01*
X119132994Y-71246004D01*
X119081300Y-71219664D01*
X118971639Y-71163788D01*
X118971636Y-71163787D01*
X118799410Y-71107829D01*
X118620551Y-71079500D01*
X118620546Y-71079500D01*
X118439454Y-71079500D01*
X118439449Y-71079500D01*
X118260589Y-71107829D01*
X118088363Y-71163787D01*
X118088360Y-71163788D01*
X117927002Y-71246006D01*
X117780505Y-71352441D01*
X117780500Y-71352445D01*
X117652445Y-71480500D01*
X117652441Y-71480505D01*
X117546006Y-71627002D01*
X117463788Y-71788360D01*
X117463787Y-71788363D01*
X117407829Y-71960589D01*
X117382473Y-72120678D01*
X117352544Y-72183813D01*
X117293232Y-72220744D01*
X117223369Y-72219746D01*
X117165137Y-72181136D01*
X117137527Y-72120678D01*
X117123740Y-72033639D01*
X117112171Y-71960591D01*
X117056211Y-71788361D01*
X117056211Y-71788360D01*
X117027740Y-71732484D01*
X116973996Y-71627006D01*
X116935643Y-71574217D01*
X116867558Y-71480505D01*
X116867554Y-71480500D01*
X116739499Y-71352445D01*
X116739494Y-71352441D01*
X116592997Y-71246006D01*
X116592996Y-71246005D01*
X116592994Y-71246004D01*
X116541300Y-71219664D01*
X116431639Y-71163788D01*
X116431636Y-71163787D01*
X116259410Y-71107829D01*
X116080551Y-71079500D01*
X116080546Y-71079500D01*
X115899454Y-71079500D01*
X115899449Y-71079500D01*
X115720589Y-71107829D01*
X115548363Y-71163787D01*
X115548360Y-71163788D01*
X115387002Y-71246006D01*
X115240505Y-71352441D01*
X115240500Y-71352445D01*
X115112445Y-71480500D01*
X115112441Y-71480505D01*
X115006006Y-71627002D01*
X114923788Y-71788360D01*
X114923787Y-71788363D01*
X114867829Y-71960589D01*
X114842473Y-72120678D01*
X114812544Y-72183813D01*
X114753232Y-72220744D01*
X114683369Y-72219746D01*
X114625137Y-72181136D01*
X114597527Y-72120678D01*
X114583740Y-72033639D01*
X114572171Y-71960591D01*
X114516211Y-71788361D01*
X114516211Y-71788360D01*
X114487740Y-71732484D01*
X114433996Y-71627006D01*
X114395643Y-71574217D01*
X114327558Y-71480505D01*
X114327554Y-71480500D01*
X114199499Y-71352445D01*
X114199494Y-71352441D01*
X114052997Y-71246006D01*
X114052996Y-71246005D01*
X114052994Y-71246004D01*
X114001300Y-71219664D01*
X113891639Y-71163788D01*
X113891636Y-71163787D01*
X113719410Y-71107829D01*
X113540551Y-71079500D01*
X113540546Y-71079500D01*
X113359454Y-71079500D01*
X113359449Y-71079500D01*
X113180589Y-71107829D01*
X113008363Y-71163787D01*
X113008360Y-71163788D01*
X112847002Y-71246006D01*
X112700505Y-71352441D01*
X112700500Y-71352445D01*
X112572445Y-71480500D01*
X112572441Y-71480505D01*
X112466006Y-71627002D01*
X112383788Y-71788360D01*
X112383787Y-71788363D01*
X112327829Y-71960589D01*
X112302473Y-72120678D01*
X112272544Y-72183813D01*
X112213232Y-72220744D01*
X112143369Y-72219746D01*
X112085137Y-72181136D01*
X112057527Y-72120678D01*
X112043740Y-72033639D01*
X112032171Y-71960591D01*
X111976211Y-71788361D01*
X111976211Y-71788360D01*
X111947740Y-71732484D01*
X111893996Y-71627006D01*
X111855643Y-71574217D01*
X111787558Y-71480505D01*
X111787554Y-71480500D01*
X111659499Y-71352445D01*
X111659494Y-71352441D01*
X111512997Y-71246006D01*
X111512996Y-71246005D01*
X111512994Y-71246004D01*
X111461300Y-71219664D01*
X111351639Y-71163788D01*
X111351636Y-71163787D01*
X111179410Y-71107829D01*
X111000551Y-71079500D01*
X111000546Y-71079500D01*
X110819454Y-71079500D01*
X110819449Y-71079500D01*
X110640589Y-71107829D01*
X110468363Y-71163787D01*
X110468360Y-71163788D01*
X110307002Y-71246006D01*
X110160505Y-71352441D01*
X110160500Y-71352445D01*
X110032445Y-71480500D01*
X110032441Y-71480505D01*
X109926006Y-71627002D01*
X109843788Y-71788360D01*
X109843787Y-71788363D01*
X109787829Y-71960589D01*
X109762473Y-72120678D01*
X109732544Y-72183813D01*
X109673232Y-72220744D01*
X109603369Y-72219746D01*
X109545137Y-72181136D01*
X109517527Y-72120678D01*
X109503740Y-72033639D01*
X109492171Y-71960591D01*
X109436211Y-71788361D01*
X109436211Y-71788360D01*
X109407740Y-71732484D01*
X109353996Y-71627006D01*
X109315643Y-71574217D01*
X109247558Y-71480505D01*
X109247554Y-71480500D01*
X109119499Y-71352445D01*
X109119494Y-71352441D01*
X108972997Y-71246006D01*
X108972996Y-71246005D01*
X108972994Y-71246004D01*
X108921300Y-71219664D01*
X108811639Y-71163788D01*
X108811636Y-71163787D01*
X108639410Y-71107829D01*
X108460551Y-71079500D01*
X108460546Y-71079500D01*
X108279454Y-71079500D01*
X108279449Y-71079500D01*
X108100589Y-71107829D01*
X107928363Y-71163787D01*
X107928360Y-71163788D01*
X107767002Y-71246006D01*
X107620505Y-71352441D01*
X107620500Y-71352445D01*
X107492445Y-71480500D01*
X107492441Y-71480505D01*
X107386006Y-71627002D01*
X107303788Y-71788360D01*
X107303787Y-71788363D01*
X107247829Y-71960589D01*
X107219500Y-72139448D01*
X107219500Y-72320551D01*
X107247829Y-72499410D01*
X107303787Y-72671636D01*
X107303788Y-72671639D01*
X107353540Y-72769281D01*
X107383475Y-72828031D01*
X107386006Y-72832997D01*
X107492441Y-72979494D01*
X107492445Y-72979499D01*
X107620500Y-73107554D01*
X107620505Y-73107558D01*
X107736852Y-73192088D01*
X107767006Y-73213996D01*
X107872484Y-73267740D01*
X107928360Y-73296211D01*
X107928363Y-73296212D01*
X108014476Y-73324191D01*
X108100591Y-73352171D01*
X108204716Y-73368662D01*
X108232270Y-73373027D01*
X108295405Y-73402956D01*
X108332336Y-73462268D01*
X108331338Y-73532130D01*
X108292728Y-73590363D01*
X108228765Y-73618477D01*
X108212872Y-73619500D01*
X107475143Y-73619500D01*
X107475117Y-73619502D01*
X107450012Y-73622413D01*
X107450008Y-73622415D01*
X107347235Y-73667793D01*
X107267794Y-73747234D01*
X107222415Y-73850006D01*
X107222415Y-73850008D01*
X107219500Y-73875131D01*
X107219500Y-75664856D01*
X107219502Y-75664882D01*
X107222413Y-75689987D01*
X107222415Y-75689991D01*
X107267793Y-75792764D01*
X107267794Y-75792765D01*
X107347235Y-75872206D01*
X107450009Y-75917585D01*
X107475135Y-75920500D01*
X109264864Y-75920499D01*
X109264879Y-75920497D01*
X109264882Y-75920497D01*
X109289987Y-75917586D01*
X109289988Y-75917585D01*
X109289991Y-75917585D01*
X109392765Y-75872206D01*
X109472206Y-75792765D01*
X109517585Y-75689991D01*
X109520500Y-75664865D01*
X109520499Y-74927125D01*
X109540183Y-74860089D01*
X109592987Y-74814334D01*
X109662146Y-74804390D01*
X109725702Y-74833415D01*
X109763476Y-74892193D01*
X109766972Y-74907729D01*
X109787829Y-75039410D01*
X109843787Y-75211636D01*
X109843788Y-75211639D01*
X109926006Y-75372997D01*
X110032441Y-75519494D01*
X110032445Y-75519499D01*
X110160500Y-75647554D01*
X110160505Y-75647558D01*
X110260458Y-75720177D01*
X110307006Y-75753996D01*
X110383094Y-75792765D01*
X110468360Y-75836211D01*
X110468363Y-75836212D01*
X110554476Y-75864191D01*
X110640591Y-75892171D01*
X110723429Y-75905291D01*
X110819449Y-75920500D01*
X110819454Y-75920500D01*
X111000551Y-75920500D01*
X111089987Y-75906334D01*
X111179409Y-75892171D01*
X111345424Y-75838230D01*
X111351636Y-75836212D01*
X111351639Y-75836211D01*
X111352550Y-75835747D01*
X111512994Y-75753996D01*
X111659501Y-75647553D01*
X111787553Y-75519501D01*
X111893996Y-75372994D01*
X111976211Y-75211639D01*
X112032171Y-75039409D01*
X112046422Y-74949425D01*
X112057527Y-74879321D01*
X112087456Y-74816186D01*
X112146768Y-74779255D01*
X112216630Y-74780253D01*
X112274863Y-74818863D01*
X112302473Y-74879321D01*
X112327829Y-75039410D01*
X112383787Y-75211636D01*
X112383788Y-75211639D01*
X112466006Y-75372997D01*
X112572441Y-75519494D01*
X112572445Y-75519499D01*
X112700500Y-75647554D01*
X112700505Y-75647558D01*
X112800458Y-75720177D01*
X112847006Y-75753996D01*
X112923094Y-75792765D01*
X113008360Y-75836211D01*
X113008363Y-75836212D01*
X113094476Y-75864191D01*
X113180591Y-75892171D01*
X113263429Y-75905291D01*
X113359449Y-75920500D01*
X113359454Y-75920500D01*
X113540551Y-75920500D01*
X113629987Y-75906334D01*
X113719409Y-75892171D01*
X113885424Y-75838230D01*
X113891636Y-75836212D01*
X113891639Y-75836211D01*
X113892550Y-75835747D01*
X114052994Y-75753996D01*
X114199501Y-75647553D01*
X114327553Y-75519501D01*
X114433996Y-75372994D01*
X114516211Y-75211639D01*
X114572171Y-75039409D01*
X114586422Y-74949425D01*
X114597527Y-74879321D01*
X114627456Y-74816186D01*
X114686768Y-74779255D01*
X114756630Y-74780253D01*
X114814863Y-74818863D01*
X114842473Y-74879321D01*
X114867829Y-75039410D01*
X114923787Y-75211636D01*
X114923788Y-75211639D01*
X115006006Y-75372997D01*
X115112441Y-75519494D01*
X115112445Y-75519499D01*
X115240500Y-75647554D01*
X115240505Y-75647558D01*
X115340458Y-75720177D01*
X115387006Y-75753996D01*
X115463094Y-75792765D01*
X115548360Y-75836211D01*
X115548363Y-75836212D01*
X115634476Y-75864191D01*
X115720591Y-75892171D01*
X115803429Y-75905291D01*
X115899449Y-75920500D01*
X115899454Y-75920500D01*
X116080551Y-75920500D01*
X116169987Y-75906334D01*
X116259409Y-75892171D01*
X116425424Y-75838230D01*
X116431636Y-75836212D01*
X116431639Y-75836211D01*
X116432550Y-75835747D01*
X116592994Y-75753996D01*
X116739501Y-75647553D01*
X116867553Y-75519501D01*
X116973996Y-75372994D01*
X117056211Y-75211639D01*
X117112171Y-75039409D01*
X117126422Y-74949425D01*
X117137527Y-74879321D01*
X117167456Y-74816186D01*
X117226768Y-74779255D01*
X117296630Y-74780253D01*
X117354863Y-74818863D01*
X117382473Y-74879321D01*
X117407829Y-75039410D01*
X117463787Y-75211636D01*
X117463788Y-75211639D01*
X117546006Y-75372997D01*
X117652441Y-75519494D01*
X117652445Y-75519499D01*
X117780500Y-75647554D01*
X117780505Y-75647558D01*
X117880458Y-75720177D01*
X117927006Y-75753996D01*
X118003094Y-75792765D01*
X118088360Y-75836211D01*
X118088363Y-75836212D01*
X118174476Y-75864191D01*
X118260591Y-75892171D01*
X118343429Y-75905291D01*
X118439449Y-75920500D01*
X118439454Y-75920500D01*
X118620551Y-75920500D01*
X118709987Y-75906334D01*
X118799409Y-75892171D01*
X118965424Y-75838230D01*
X118971636Y-75836212D01*
X118971639Y-75836211D01*
X118972550Y-75835747D01*
X119132994Y-75753996D01*
X119279501Y-75647553D01*
X119407553Y-75519501D01*
X119513996Y-75372994D01*
X119596211Y-75211639D01*
X119652171Y-75039409D01*
X119666422Y-74949425D01*
X119677527Y-74879321D01*
X119707456Y-74816186D01*
X119766768Y-74779255D01*
X119836630Y-74780253D01*
X119894863Y-74818863D01*
X119922473Y-74879321D01*
X119947829Y-75039410D01*
X120003787Y-75211636D01*
X120003788Y-75211639D01*
X120086006Y-75372997D01*
X120192441Y-75519494D01*
X120192445Y-75519499D01*
X120320500Y-75647554D01*
X120320505Y-75647558D01*
X120420458Y-75720177D01*
X120467006Y-75753996D01*
X120543094Y-75792765D01*
X120628360Y-75836211D01*
X120628363Y-75836212D01*
X120714476Y-75864191D01*
X120800591Y-75892171D01*
X120883429Y-75905291D01*
X120979449Y-75920500D01*
X120979454Y-75920500D01*
X121160551Y-75920500D01*
X121249987Y-75906334D01*
X121339409Y-75892171D01*
X121505424Y-75838230D01*
X121511636Y-75836212D01*
X121511639Y-75836211D01*
X121512550Y-75835747D01*
X121672994Y-75753996D01*
X121719543Y-75720176D01*
X121785347Y-75696697D01*
X121853401Y-75712522D01*
X121902096Y-75762627D01*
X121912202Y-75788401D01*
X121927793Y-75846589D01*
X121944585Y-75875673D01*
X121980520Y-75937913D01*
X121980521Y-75937914D01*
X121980522Y-75937915D01*
X122934181Y-76891574D01*
X122967666Y-76952897D01*
X122970500Y-76979255D01*
X122970500Y-77041056D01*
X123011423Y-77193783D01*
X123011426Y-77193790D01*
X123090475Y-77330709D01*
X123090479Y-77330714D01*
X123090480Y-77330716D01*
X123202284Y-77442520D01*
X123202286Y-77442521D01*
X123202290Y-77442524D01*
X123339209Y-77521573D01*
X123339216Y-77521577D01*
X123491943Y-77562500D01*
X123491945Y-77562500D01*
X123650055Y-77562500D01*
X123650057Y-77562500D01*
X123802784Y-77521577D01*
X123939716Y-77442520D01*
X124051520Y-77330716D01*
X124130577Y-77193784D01*
X124171500Y-77041057D01*
X124171500Y-76882943D01*
X124130577Y-76730216D01*
X124130573Y-76730209D01*
X124051524Y-76593290D01*
X124051518Y-76593282D01*
X123939717Y-76481481D01*
X123939709Y-76481475D01*
X123802790Y-76402426D01*
X123802786Y-76402424D01*
X123802784Y-76402423D01*
X123650057Y-76361500D01*
X123650056Y-76361500D01*
X123588255Y-76361500D01*
X123521216Y-76341815D01*
X123500574Y-76325181D01*
X123286037Y-76110644D01*
X123252552Y-76049321D01*
X123257536Y-75979629D01*
X123299408Y-75923696D01*
X123364872Y-75899279D01*
X123393114Y-75900489D01*
X123430013Y-75906334D01*
X123519450Y-75920500D01*
X123519454Y-75920500D01*
X123700551Y-75920500D01*
X123789987Y-75906334D01*
X123879409Y-75892171D01*
X124045424Y-75838230D01*
X124051636Y-75836212D01*
X124051639Y-75836211D01*
X124052550Y-75835747D01*
X124212994Y-75753996D01*
X124359501Y-75647553D01*
X124487553Y-75519501D01*
X124593996Y-75372994D01*
X124676211Y-75211639D01*
X124732171Y-75039409D01*
X124746422Y-74949425D01*
X124757527Y-74879321D01*
X124787456Y-74816186D01*
X124846768Y-74779255D01*
X124916630Y-74780253D01*
X124974863Y-74818863D01*
X125002473Y-74879321D01*
X125027829Y-75039410D01*
X125083787Y-75211636D01*
X125083788Y-75211639D01*
X125166006Y-75372997D01*
X125272441Y-75519494D01*
X125272445Y-75519499D01*
X125400500Y-75647554D01*
X125400505Y-75647558D01*
X125500458Y-75720177D01*
X125547006Y-75753996D01*
X125623094Y-75792765D01*
X125708360Y-75836211D01*
X125708363Y-75836212D01*
X125794476Y-75864191D01*
X125880591Y-75892171D01*
X125963429Y-75905291D01*
X126059449Y-75920500D01*
X126059454Y-75920500D01*
X126240551Y-75920500D01*
X126329987Y-75906334D01*
X126419409Y-75892171D01*
X126585424Y-75838230D01*
X126591636Y-75836212D01*
X126591639Y-75836211D01*
X126592550Y-75835747D01*
X126752994Y-75753996D01*
X126899501Y-75647553D01*
X127027553Y-75519501D01*
X127133996Y-75372994D01*
X127216211Y-75211639D01*
X127272171Y-75039409D01*
X127286422Y-74949425D01*
X127297527Y-74879321D01*
X127327456Y-74816186D01*
X127386768Y-74779255D01*
X127456630Y-74780253D01*
X127514863Y-74818863D01*
X127542473Y-74879321D01*
X127567829Y-75039410D01*
X127623787Y-75211636D01*
X127623788Y-75211639D01*
X127706006Y-75372997D01*
X127812441Y-75519494D01*
X127812445Y-75519499D01*
X127940500Y-75647554D01*
X127940505Y-75647558D01*
X128040458Y-75720177D01*
X128087006Y-75753996D01*
X128163094Y-75792765D01*
X128248360Y-75836211D01*
X128248363Y-75836212D01*
X128334476Y-75864191D01*
X128420591Y-75892171D01*
X128503429Y-75905291D01*
X128599449Y-75920500D01*
X128599454Y-75920500D01*
X128780551Y-75920500D01*
X128869987Y-75906334D01*
X128959409Y-75892171D01*
X129125424Y-75838230D01*
X129131636Y-75836212D01*
X129131639Y-75836211D01*
X129132550Y-75835747D01*
X129292994Y-75753996D01*
X129439501Y-75647553D01*
X129567553Y-75519501D01*
X129673996Y-75372994D01*
X129756211Y-75211639D01*
X129812171Y-75039409D01*
X129826422Y-74949425D01*
X129837527Y-74879321D01*
X129867456Y-74816186D01*
X129926768Y-74779255D01*
X129996630Y-74780253D01*
X130054863Y-74818863D01*
X130082473Y-74879321D01*
X130107829Y-75039410D01*
X130154575Y-75183281D01*
X130156570Y-75253122D01*
X130124325Y-75309280D01*
X129592702Y-75840903D01*
X126044522Y-79389084D01*
X126044520Y-79389087D01*
X125991792Y-79480412D01*
X125989299Y-79489719D01*
X125964500Y-79582271D01*
X125964500Y-79582273D01*
X125964500Y-86561273D01*
X125964500Y-86666727D01*
X125972246Y-86695636D01*
X125991793Y-86768589D01*
X126005858Y-86792949D01*
X126044520Y-86859913D01*
X127673903Y-88489296D01*
X127765228Y-88542023D01*
X127820828Y-88556920D01*
X127880488Y-88593285D01*
X127904916Y-88633362D01*
X127924602Y-88686144D01*
X127924606Y-88686151D01*
X128010852Y-88801360D01*
X128010855Y-88801363D01*
X128126064Y-88887609D01*
X128126071Y-88887613D01*
X128171018Y-88904377D01*
X128260917Y-88937907D01*
X128313428Y-88943552D01*
X128377975Y-88970289D01*
X128417824Y-89027681D01*
X128420318Y-89097506D01*
X128384666Y-89157595D01*
X128322187Y-89188871D01*
X128313425Y-89190131D01*
X128260916Y-89195776D01*
X128126071Y-89246069D01*
X128126064Y-89246073D01*
X128010855Y-89332319D01*
X128010852Y-89332322D01*
X127924606Y-89447531D01*
X127924602Y-89447538D01*
X127874310Y-89582380D01*
X127874309Y-89582384D01*
X127867900Y-89641994D01*
X127867900Y-89642001D01*
X127867900Y-89642002D01*
X127867900Y-90287737D01*
X127867901Y-90287743D01*
X127874308Y-90347350D01*
X127924602Y-90482195D01*
X127924606Y-90482202D01*
X127975262Y-90549868D01*
X128010854Y-90597413D01*
X128118211Y-90677781D01*
X128160082Y-90733714D01*
X128167900Y-90777047D01*
X128167900Y-91410126D01*
X128195193Y-91511989D01*
X128204013Y-91527265D01*
X128247920Y-91603313D01*
X128247922Y-91603315D01*
X129284181Y-92639574D01*
X129317666Y-92700897D01*
X129320500Y-92727255D01*
X129320500Y-92789057D01*
X129359911Y-92936139D01*
X129361423Y-92941783D01*
X129361426Y-92941790D01*
X129440475Y-93078709D01*
X129440479Y-93078714D01*
X129440480Y-93078716D01*
X129552284Y-93190520D01*
X129552286Y-93190521D01*
X129552290Y-93190524D01*
X129689209Y-93269573D01*
X129689216Y-93269577D01*
X129841943Y-93310500D01*
X129841945Y-93310500D01*
X130000055Y-93310500D01*
X130000057Y-93310500D01*
X130152784Y-93269577D01*
X130289716Y-93190520D01*
X130293092Y-93187144D01*
X130670000Y-93187144D01*
X130670000Y-93196500D01*
X131195000Y-93196500D01*
X131195000Y-92709000D01*
X131148144Y-92709000D01*
X131064775Y-92719010D01*
X130932113Y-92771325D01*
X130818489Y-92857489D01*
X130732324Y-92971115D01*
X130720813Y-93000305D01*
X130697589Y-93059196D01*
X130697588Y-93059195D01*
X130680011Y-93103770D01*
X130670000Y-93187144D01*
X130293092Y-93187144D01*
X130401520Y-93078716D01*
X130480577Y-92941784D01*
X130521500Y-92789057D01*
X130521500Y-92630943D01*
X130480577Y-92478216D01*
X130433535Y-92396736D01*
X130401524Y-92341290D01*
X130401518Y-92341282D01*
X130289717Y-92229481D01*
X130289709Y-92229475D01*
X130152790Y-92150426D01*
X130152786Y-92150424D01*
X130152784Y-92150423D01*
X130000057Y-92109500D01*
X130000056Y-92109500D01*
X129938255Y-92109500D01*
X129871216Y-92089815D01*
X129850574Y-92073181D01*
X129005219Y-91227826D01*
X128971734Y-91166503D01*
X128968900Y-91140145D01*
X128968900Y-90777047D01*
X128988585Y-90710008D01*
X129018587Y-90677781D01*
X129125946Y-90597413D01*
X129212196Y-90482198D01*
X129262491Y-90347350D01*
X129268900Y-90287740D01*
X129268899Y-89641995D01*
X129262491Y-89582384D01*
X129259686Y-89574864D01*
X129212197Y-89447538D01*
X129212193Y-89447531D01*
X129125947Y-89332322D01*
X129125944Y-89332319D01*
X129010735Y-89246073D01*
X129010728Y-89246069D01*
X128875882Y-89195775D01*
X128875884Y-89195775D01*
X128823373Y-89190130D01*
X128758822Y-89163392D01*
X128718974Y-89105999D01*
X128716481Y-89036174D01*
X128752134Y-88976085D01*
X128814613Y-88944811D01*
X128823370Y-88943551D01*
X128875883Y-88937907D01*
X129010731Y-88887612D01*
X129125946Y-88801362D01*
X129212196Y-88686147D01*
X129262491Y-88551299D01*
X129268900Y-88491689D01*
X129268899Y-87845944D01*
X129262491Y-87786333D01*
X129260315Y-87780500D01*
X129212197Y-87651487D01*
X129212193Y-87651480D01*
X129125947Y-87536271D01*
X129125944Y-87536268D01*
X129010735Y-87450022D01*
X129010728Y-87450018D01*
X128875883Y-87399724D01*
X128823367Y-87394078D01*
X128758816Y-87367339D01*
X128718969Y-87309946D01*
X128716476Y-87240121D01*
X128752130Y-87180033D01*
X128814609Y-87148759D01*
X128823354Y-87147501D01*
X128875883Y-87141855D01*
X129010731Y-87091560D01*
X129125946Y-87005310D01*
X129212196Y-86890095D01*
X129262491Y-86755247D01*
X129268900Y-86695637D01*
X129268899Y-86049892D01*
X129262491Y-85990281D01*
X129255653Y-85971948D01*
X129212197Y-85855435D01*
X129212193Y-85855428D01*
X129125947Y-85740219D01*
X129125944Y-85740216D01*
X129010735Y-85653970D01*
X129010728Y-85653966D01*
X128875882Y-85603672D01*
X128875884Y-85603672D01*
X128823373Y-85598027D01*
X128758822Y-85571289D01*
X128718974Y-85513896D01*
X128716481Y-85444071D01*
X128752134Y-85383982D01*
X128814613Y-85352708D01*
X128823370Y-85351448D01*
X128875883Y-85345804D01*
X129010731Y-85295509D01*
X129125946Y-85209259D01*
X129212196Y-85094044D01*
X129262491Y-84959196D01*
X129268900Y-84899586D01*
X129268899Y-84253841D01*
X129262491Y-84194230D01*
X129251162Y-84163856D01*
X129212197Y-84059384D01*
X129212193Y-84059377D01*
X129125947Y-83944168D01*
X129124281Y-83942921D01*
X129087534Y-83915412D01*
X129018588Y-83863798D01*
X128976718Y-83807864D01*
X128968900Y-83764532D01*
X128968900Y-82728853D01*
X128988585Y-82661814D01*
X129005214Y-82641177D01*
X131661494Y-79984897D01*
X132321000Y-79984897D01*
X132321000Y-80001000D01*
X132846000Y-80001000D01*
X133346000Y-80001000D01*
X134370000Y-80001000D01*
X134370000Y-79501000D01*
X134328898Y-79501000D01*
X134244532Y-79511131D01*
X134244531Y-79511131D01*
X134110270Y-79564077D01*
X133995278Y-79651278D01*
X133956804Y-79702015D01*
X133900611Y-79743539D01*
X133830890Y-79748090D01*
X133769776Y-79714225D01*
X133759196Y-79702015D01*
X133720721Y-79651278D01*
X133605729Y-79564077D01*
X133471467Y-79511131D01*
X133387102Y-79501000D01*
X133346000Y-79501000D01*
X133346000Y-80001000D01*
X132846000Y-80001000D01*
X132846000Y-79501000D01*
X132804898Y-79501000D01*
X132720532Y-79511131D01*
X132720531Y-79511131D01*
X132586270Y-79564077D01*
X132471278Y-79651278D01*
X132384077Y-79766270D01*
X132331131Y-79900531D01*
X132331131Y-79900532D01*
X132321000Y-79984897D01*
X131661494Y-79984897D01*
X135770719Y-75875671D01*
X135832040Y-75842188D01*
X135896712Y-75845422D01*
X135989815Y-75875673D01*
X136040590Y-75892171D01*
X136104824Y-75902345D01*
X136167959Y-75932275D01*
X136204890Y-75991586D01*
X136203892Y-76061449D01*
X136173107Y-76112499D01*
X134690426Y-77595181D01*
X134629103Y-77628666D01*
X134602745Y-77631500D01*
X134540943Y-77631500D01*
X134388216Y-77672423D01*
X134388209Y-77672426D01*
X134251290Y-77751475D01*
X134251282Y-77751481D01*
X134139481Y-77863282D01*
X134139475Y-77863290D01*
X134060426Y-78000209D01*
X134060423Y-78000216D01*
X134019500Y-78152943D01*
X134019500Y-78311057D01*
X134052624Y-78434675D01*
X134060423Y-78463783D01*
X134060426Y-78463790D01*
X134139475Y-78600709D01*
X134139479Y-78600714D01*
X134139480Y-78600716D01*
X134251284Y-78712520D01*
X134251286Y-78712521D01*
X134251290Y-78712524D01*
X134320168Y-78752290D01*
X134388216Y-78791577D01*
X134540943Y-78832500D01*
X134540945Y-78832500D01*
X134699055Y-78832500D01*
X134699057Y-78832500D01*
X134851784Y-78791577D01*
X134988716Y-78712520D01*
X135100520Y-78600716D01*
X135179577Y-78463784D01*
X135220500Y-78311057D01*
X135220500Y-78249255D01*
X135240185Y-78182216D01*
X135256819Y-78161574D01*
X136548382Y-76870011D01*
X137847990Y-75570402D01*
X137909311Y-75536919D01*
X137979003Y-75541903D01*
X138023350Y-75570404D01*
X138100500Y-75647554D01*
X138100505Y-75647558D01*
X138200458Y-75720177D01*
X138247006Y-75753996D01*
X138323094Y-75792765D01*
X138408360Y-75836211D01*
X138408363Y-75836212D01*
X138494476Y-75864191D01*
X138580591Y-75892171D01*
X138663429Y-75905291D01*
X138759449Y-75920500D01*
X138759454Y-75920500D01*
X138940551Y-75920500D01*
X139029987Y-75906334D01*
X139119409Y-75892171D01*
X139285424Y-75838230D01*
X139291636Y-75836212D01*
X139291639Y-75836211D01*
X139292550Y-75835747D01*
X139452994Y-75753996D01*
X139599501Y-75647553D01*
X139727553Y-75519501D01*
X139833996Y-75372994D01*
X139916211Y-75211639D01*
X139972171Y-75039409D01*
X139986422Y-74949425D01*
X139997527Y-74879321D01*
X140027456Y-74816186D01*
X140086768Y-74779255D01*
X140156630Y-74780253D01*
X140214863Y-74818863D01*
X140242473Y-74879321D01*
X140267829Y-75039410D01*
X140323787Y-75211636D01*
X140323788Y-75211639D01*
X140406006Y-75372997D01*
X140512441Y-75519494D01*
X140512445Y-75519499D01*
X140640500Y-75647554D01*
X140640505Y-75647558D01*
X140740458Y-75720177D01*
X140787006Y-75753996D01*
X140863094Y-75792765D01*
X140948360Y-75836211D01*
X140948363Y-75836212D01*
X141034476Y-75864191D01*
X141120591Y-75892171D01*
X141203429Y-75905291D01*
X141299449Y-75920500D01*
X141299454Y-75920500D01*
X141480551Y-75920500D01*
X141569987Y-75906334D01*
X141659409Y-75892171D01*
X141825424Y-75838230D01*
X141831636Y-75836212D01*
X141831639Y-75836211D01*
X141832550Y-75835747D01*
X141992994Y-75753996D01*
X142139501Y-75647553D01*
X142267553Y-75519501D01*
X142373996Y-75372994D01*
X142456211Y-75211639D01*
X142512171Y-75039409D01*
X142526422Y-74949425D01*
X142537527Y-74879321D01*
X142567456Y-74816186D01*
X142626768Y-74779255D01*
X142696630Y-74780253D01*
X142754863Y-74818863D01*
X142782473Y-74879321D01*
X142807829Y-75039410D01*
X142863787Y-75211636D01*
X142863788Y-75211639D01*
X142946006Y-75372997D01*
X143052441Y-75519494D01*
X143052445Y-75519499D01*
X143180500Y-75647554D01*
X143180505Y-75647558D01*
X143280458Y-75720177D01*
X143327006Y-75753996D01*
X143403094Y-75792765D01*
X143488360Y-75836211D01*
X143488363Y-75836212D01*
X143574476Y-75864191D01*
X143660591Y-75892171D01*
X143743429Y-75905291D01*
X143839449Y-75920500D01*
X143839454Y-75920500D01*
X144020551Y-75920500D01*
X144109987Y-75906334D01*
X144199409Y-75892171D01*
X144365424Y-75838230D01*
X144371636Y-75836212D01*
X144371639Y-75836211D01*
X144372550Y-75835747D01*
X144532994Y-75753996D01*
X144679501Y-75647553D01*
X144807553Y-75519501D01*
X144913996Y-75372994D01*
X144996211Y-75211639D01*
X145052171Y-75039409D01*
X145066422Y-74949425D01*
X145077527Y-74879321D01*
X145107456Y-74816186D01*
X145166768Y-74779255D01*
X145236630Y-74780253D01*
X145294863Y-74818863D01*
X145322473Y-74879321D01*
X145347829Y-75039410D01*
X145403787Y-75211636D01*
X145403788Y-75211639D01*
X145486006Y-75372997D01*
X145592441Y-75519494D01*
X145592445Y-75519499D01*
X145720500Y-75647554D01*
X145720505Y-75647558D01*
X145820458Y-75720177D01*
X145867006Y-75753996D01*
X145943094Y-75792765D01*
X146028360Y-75836211D01*
X146028363Y-75836212D01*
X146114476Y-75864191D01*
X146200591Y-75892171D01*
X146283429Y-75905291D01*
X146379449Y-75920500D01*
X146379454Y-75920500D01*
X146560551Y-75920500D01*
X146649987Y-75906334D01*
X146739409Y-75892171D01*
X146905424Y-75838230D01*
X146911636Y-75836212D01*
X146911639Y-75836211D01*
X146912550Y-75835747D01*
X147072994Y-75753996D01*
X147219501Y-75647553D01*
X147347553Y-75519501D01*
X147453996Y-75372994D01*
X147536211Y-75211639D01*
X147592171Y-75039409D01*
X147606422Y-74949425D01*
X147617527Y-74879321D01*
X147647456Y-74816186D01*
X147706768Y-74779255D01*
X147776630Y-74780253D01*
X147834863Y-74818863D01*
X147862473Y-74879321D01*
X147887829Y-75039410D01*
X147943787Y-75211636D01*
X147943788Y-75211639D01*
X148026006Y-75372997D01*
X148132441Y-75519494D01*
X148132445Y-75519499D01*
X148260500Y-75647554D01*
X148260505Y-75647558D01*
X148360458Y-75720177D01*
X148407006Y-75753996D01*
X148483094Y-75792765D01*
X148568360Y-75836211D01*
X148568363Y-75836212D01*
X148654476Y-75864191D01*
X148740591Y-75892171D01*
X148823429Y-75905291D01*
X148919449Y-75920500D01*
X148919454Y-75920500D01*
X149100551Y-75920500D01*
X149189987Y-75906334D01*
X149279409Y-75892171D01*
X149445424Y-75838230D01*
X149451636Y-75836212D01*
X149451639Y-75836211D01*
X149452550Y-75835747D01*
X149612994Y-75753996D01*
X149759501Y-75647553D01*
X149887553Y-75519501D01*
X149993996Y-75372994D01*
X150076211Y-75211639D01*
X150132171Y-75039409D01*
X150146422Y-74949425D01*
X150157527Y-74879321D01*
X150187456Y-74816186D01*
X150246768Y-74779255D01*
X150316630Y-74780253D01*
X150374863Y-74818863D01*
X150402473Y-74879321D01*
X150427829Y-75039410D01*
X150483787Y-75211636D01*
X150483788Y-75211639D01*
X150566006Y-75372997D01*
X150672441Y-75519494D01*
X150672445Y-75519499D01*
X150800500Y-75647554D01*
X150800505Y-75647558D01*
X150900458Y-75720177D01*
X150947006Y-75753996D01*
X151023094Y-75792765D01*
X151108360Y-75836211D01*
X151108363Y-75836212D01*
X151194476Y-75864191D01*
X151280591Y-75892171D01*
X151363429Y-75905291D01*
X151459449Y-75920500D01*
X151459454Y-75920500D01*
X151640549Y-75920500D01*
X151660932Y-75917271D01*
X151681331Y-75914040D01*
X151750623Y-75922994D01*
X151804076Y-75967989D01*
X151824717Y-76034740D01*
X151805993Y-76102054D01*
X151788412Y-76124194D01*
X151693935Y-76218670D01*
X151514424Y-76398182D01*
X151453104Y-76431666D01*
X151426745Y-76434500D01*
X138871339Y-76434500D01*
X138871323Y-76434499D01*
X138863727Y-76434499D01*
X138758273Y-76434499D01*
X138690366Y-76452695D01*
X138656412Y-76461793D01*
X138565084Y-76514522D01*
X135823522Y-79256084D01*
X135823520Y-79256087D01*
X135770793Y-79347412D01*
X135757342Y-79397613D01*
X135757342Y-79397614D01*
X135757341Y-79397613D01*
X135741397Y-79457122D01*
X135738444Y-79456331D01*
X135716012Y-79506965D01*
X135664721Y-79543011D01*
X135626664Y-79557206D01*
X135511455Y-79643452D01*
X135474627Y-79692648D01*
X135418693Y-79734518D01*
X135349001Y-79739502D01*
X135287678Y-79706016D01*
X135276557Y-79693261D01*
X135244721Y-79651278D01*
X135129729Y-79564077D01*
X134995467Y-79511131D01*
X134911102Y-79501000D01*
X134870000Y-79501000D01*
X134870000Y-80127000D01*
X134850315Y-80194039D01*
X134797511Y-80239794D01*
X134746000Y-80251000D01*
X134620000Y-80251000D01*
X134620000Y-80377000D01*
X134600315Y-80444039D01*
X134547511Y-80489794D01*
X134496000Y-80501000D01*
X132321000Y-80501000D01*
X132321000Y-80517102D01*
X132331131Y-80601467D01*
X132331131Y-80601468D01*
X132384077Y-80735729D01*
X132471278Y-80850721D01*
X132571711Y-80926881D01*
X132613234Y-80983073D01*
X132617786Y-81052795D01*
X132583921Y-81113909D01*
X132571712Y-81124488D01*
X132470922Y-81200920D01*
X132383636Y-81316023D01*
X132330640Y-81450411D01*
X132326246Y-81487007D01*
X132320500Y-81534856D01*
X132320500Y-82067144D01*
X132325825Y-82111494D01*
X132330640Y-82151588D01*
X132383636Y-82285976D01*
X132470921Y-82401078D01*
X132586023Y-82488363D01*
X132586024Y-82488363D01*
X132586025Y-82488364D01*
X132720410Y-82541359D01*
X132804856Y-82551500D01*
X132804862Y-82551500D01*
X133387138Y-82551500D01*
X133387144Y-82551500D01*
X133471590Y-82541359D01*
X133605975Y-82488364D01*
X133721078Y-82401078D01*
X133759196Y-82350811D01*
X133773276Y-82340406D01*
X133783783Y-82326400D01*
X133800793Y-82320073D01*
X133815388Y-82309289D01*
X133832859Y-82308148D01*
X133849270Y-82302045D01*
X133866999Y-82305919D01*
X133885109Y-82304737D01*
X133900582Y-82313257D01*
X133917529Y-82316961D01*
X133935614Y-82332549D01*
X133945764Y-82338138D01*
X133951711Y-82344096D01*
X133994922Y-82401078D01*
X134051128Y-82443700D01*
X134057158Y-82449742D01*
X134069952Y-82473225D01*
X134085842Y-82494729D01*
X134086410Y-82503434D01*
X134090585Y-82511097D01*
X134088652Y-82537769D01*
X134090394Y-82564450D01*
X134089169Y-82569434D01*
X134064794Y-82660403D01*
X134047501Y-82724943D01*
X134047501Y-82883057D01*
X134082028Y-83011911D01*
X134088424Y-83035783D01*
X134088427Y-83035790D01*
X134167476Y-83172709D01*
X134167482Y-83172717D01*
X134211182Y-83216417D01*
X134244667Y-83277740D01*
X134247501Y-83304098D01*
X134247501Y-84552212D01*
X134236935Y-84602298D01*
X134200416Y-84685004D01*
X134200415Y-84685008D01*
X134197500Y-84710131D01*
X134197500Y-85305500D01*
X134177815Y-85372539D01*
X134125011Y-85418294D01*
X134073500Y-85429500D01*
X133478143Y-85429500D01*
X133478117Y-85429502D01*
X133453012Y-85432413D01*
X133453008Y-85432414D01*
X133370299Y-85468935D01*
X133320213Y-85479501D01*
X132678254Y-85479501D01*
X132611215Y-85459816D01*
X132590573Y-85443182D01*
X132013721Y-84866330D01*
X131403625Y-84256233D01*
X131341239Y-84220214D01*
X131312301Y-84203506D01*
X131261369Y-84189859D01*
X131210439Y-84176213D01*
X131210438Y-84176213D01*
X130991867Y-84176213D01*
X130924828Y-84156528D01*
X130879073Y-84103724D01*
X130875685Y-84095547D01*
X130862196Y-84059382D01*
X130862193Y-84059377D01*
X130775947Y-83944168D01*
X130775944Y-83944165D01*
X130660735Y-83857919D01*
X130660728Y-83857915D01*
X130525886Y-83807623D01*
X130525885Y-83807622D01*
X130525883Y-83807622D01*
X130466273Y-83801213D01*
X130466263Y-83801213D01*
X129970529Y-83801213D01*
X129970523Y-83801214D01*
X129910916Y-83807621D01*
X129776071Y-83857915D01*
X129776064Y-83857919D01*
X129660855Y-83944165D01*
X129660852Y-83944168D01*
X129574606Y-84059377D01*
X129574602Y-84059384D01*
X129524310Y-84194226D01*
X129524309Y-84194230D01*
X129517900Y-84253840D01*
X129517900Y-84253847D01*
X129517900Y-84253848D01*
X129517900Y-84899583D01*
X129517901Y-84899589D01*
X129524308Y-84959196D01*
X129574602Y-85094041D01*
X129574606Y-85094048D01*
X129660852Y-85209257D01*
X129660855Y-85209260D01*
X129776064Y-85295506D01*
X129776071Y-85295510D01*
X129815838Y-85310342D01*
X129910917Y-85345804D01*
X129963428Y-85351449D01*
X130027975Y-85378186D01*
X130067824Y-85435578D01*
X130070318Y-85505403D01*
X130034666Y-85565492D01*
X129972187Y-85596768D01*
X129963425Y-85598028D01*
X129910916Y-85603673D01*
X129776071Y-85653966D01*
X129776064Y-85653970D01*
X129660855Y-85740216D01*
X129660852Y-85740219D01*
X129574606Y-85855428D01*
X129574602Y-85855435D01*
X129528324Y-85979516D01*
X129524309Y-85990281D01*
X129517900Y-86049891D01*
X129517900Y-86049898D01*
X129517900Y-86049899D01*
X129517900Y-86695634D01*
X129517901Y-86695640D01*
X129524308Y-86755247D01*
X129574602Y-86890092D01*
X129574606Y-86890099D01*
X129660852Y-87005308D01*
X129660855Y-87005311D01*
X129776064Y-87091557D01*
X129776071Y-87091561D01*
X129821018Y-87108325D01*
X129910917Y-87141855D01*
X129963433Y-87147501D01*
X130027981Y-87174238D01*
X130067829Y-87231631D01*
X130070323Y-87301456D01*
X130034671Y-87361545D01*
X129972192Y-87392820D01*
X129963428Y-87394080D01*
X129910916Y-87399724D01*
X129776071Y-87450018D01*
X129776064Y-87450022D01*
X129660855Y-87536268D01*
X129660852Y-87536271D01*
X129574606Y-87651480D01*
X129574602Y-87651487D01*
X129524310Y-87786329D01*
X129524309Y-87786333D01*
X129517900Y-87845943D01*
X129517900Y-87845950D01*
X129517900Y-87845951D01*
X129517900Y-88491686D01*
X129517901Y-88491692D01*
X129524308Y-88551299D01*
X129574602Y-88686144D01*
X129574606Y-88686151D01*
X129660852Y-88801360D01*
X129660855Y-88801363D01*
X129776064Y-88887609D01*
X129776071Y-88887613D01*
X129821018Y-88904377D01*
X129910917Y-88937907D01*
X129963428Y-88943552D01*
X130027975Y-88970289D01*
X130067824Y-89027681D01*
X130070318Y-89097506D01*
X130034666Y-89157595D01*
X129972187Y-89188871D01*
X129963425Y-89190131D01*
X129910916Y-89195776D01*
X129776071Y-89246069D01*
X129776064Y-89246073D01*
X129660855Y-89332319D01*
X129660852Y-89332322D01*
X129574606Y-89447531D01*
X129574602Y-89447538D01*
X129524310Y-89582380D01*
X129524309Y-89582384D01*
X129517900Y-89641994D01*
X129517900Y-89642001D01*
X129517900Y-89642002D01*
X129517900Y-90287737D01*
X129517901Y-90287743D01*
X129524308Y-90347350D01*
X129574602Y-90482195D01*
X129574606Y-90482202D01*
X129660852Y-90597411D01*
X129660855Y-90597414D01*
X129776064Y-90683660D01*
X129776071Y-90683664D01*
X129796392Y-90691243D01*
X129910917Y-90733958D01*
X129970527Y-90740367D01*
X130466272Y-90740366D01*
X130525883Y-90733958D01*
X130660731Y-90683663D01*
X130775946Y-90597413D01*
X130862196Y-90482198D01*
X130875685Y-90446033D01*
X130917557Y-90390100D01*
X130983021Y-90365683D01*
X130991867Y-90365367D01*
X132210858Y-90365367D01*
X132210860Y-90365367D01*
X132312721Y-90338074D01*
X132404046Y-90285347D01*
X133055755Y-89633635D01*
X133117078Y-89600151D01*
X133186769Y-89605135D01*
X133242703Y-89647006D01*
X133256869Y-89671229D01*
X133270794Y-89702765D01*
X133350235Y-89782206D01*
X133453009Y-89827585D01*
X133478135Y-89830500D01*
X134073500Y-89830499D01*
X134140539Y-89850183D01*
X134186294Y-89902987D01*
X134197500Y-89954499D01*
X134197500Y-90549856D01*
X134197502Y-90549882D01*
X134201489Y-90584258D01*
X134199060Y-90584539D01*
X134197939Y-90640860D01*
X134167362Y-90691243D01*
X132775522Y-92083084D01*
X132775520Y-92083087D01*
X132722792Y-92174413D01*
X132721357Y-92179772D01*
X132721354Y-92179784D01*
X132695500Y-92276273D01*
X132695500Y-92644070D01*
X132675815Y-92711109D01*
X132623011Y-92756864D01*
X132616990Y-92759424D01*
X132586027Y-92771634D01*
X132586026Y-92771634D01*
X132470921Y-92858921D01*
X132383634Y-92974026D01*
X132379478Y-92981419D01*
X132376384Y-92979679D01*
X132343605Y-93021745D01*
X132277681Y-93044891D01*
X132209708Y-93028721D01*
X132161268Y-92978369D01*
X132159174Y-92973781D01*
X132157676Y-92971116D01*
X132071510Y-92857489D01*
X131957886Y-92771325D01*
X131825224Y-92719010D01*
X131741856Y-92709000D01*
X131695000Y-92709000D01*
X131695000Y-93322500D01*
X131675315Y-93389539D01*
X131622511Y-93435294D01*
X131571000Y-93446500D01*
X131445000Y-93446500D01*
X131445000Y-93572500D01*
X131425315Y-93639539D01*
X131372511Y-93685294D01*
X131321000Y-93696500D01*
X130670000Y-93696500D01*
X130670000Y-93705855D01*
X130680010Y-93789224D01*
X130732325Y-93921886D01*
X130818489Y-94035510D01*
X130932113Y-94121673D01*
X130939137Y-94125623D01*
X130987926Y-94175637D01*
X131001930Y-94244089D01*
X130976703Y-94309246D01*
X130939143Y-94341793D01*
X130931872Y-94345881D01*
X130818132Y-94432132D01*
X130731886Y-94545865D01*
X130679520Y-94678655D01*
X130679520Y-94678656D01*
X130669500Y-94762097D01*
X130669500Y-95280902D01*
X130679520Y-95364343D01*
X130679520Y-95364344D01*
X130679521Y-95364346D01*
X130729472Y-95491014D01*
X130731886Y-95497134D01*
X130818132Y-95610867D01*
X130931865Y-95697113D01*
X130931868Y-95697115D01*
X130965990Y-95710570D01*
X131021133Y-95753476D01*
X131044327Y-95819383D01*
X131044500Y-95825925D01*
X131044500Y-96249500D01*
X131024815Y-96316539D01*
X130972011Y-96362294D01*
X130920500Y-96373500D01*
X130369926Y-96373500D01*
X130302887Y-96353815D01*
X130257132Y-96301011D01*
X130254571Y-96294989D01*
X130241116Y-96260868D01*
X130241114Y-96260865D01*
X130154868Y-96147132D01*
X130041135Y-96060886D01*
X130041133Y-96060885D01*
X129908347Y-96008521D01*
X129908346Y-96008520D01*
X129908344Y-96008520D01*
X129824903Y-95998500D01*
X129306099Y-95998500D01*
X129222657Y-96008520D01*
X129222656Y-96008520D01*
X129089866Y-96060886D01*
X128976133Y-96147132D01*
X128889887Y-96260865D01*
X128886087Y-96267625D01*
X128836073Y-96316414D01*
X128767621Y-96330418D01*
X128702464Y-96305191D01*
X128669913Y-96267625D01*
X128666112Y-96260865D01*
X128579866Y-96147132D01*
X128466133Y-96060886D01*
X128466131Y-96060885D01*
X128333345Y-96008521D01*
X128333344Y-96008520D01*
X128333342Y-96008520D01*
X128249901Y-95998500D01*
X127731097Y-95998500D01*
X127647655Y-96008520D01*
X127647654Y-96008520D01*
X127514864Y-96060886D01*
X127401131Y-96147132D01*
X127314885Y-96260865D01*
X127314884Y-96260867D01*
X127301429Y-96294989D01*
X127258523Y-96350133D01*
X127192616Y-96373327D01*
X127186074Y-96373500D01*
X122276214Y-96373500D01*
X122271788Y-96373421D01*
X121790319Y-96356225D01*
X121781490Y-96355594D01*
X121304662Y-96304330D01*
X121295900Y-96303070D01*
X120823949Y-96217920D01*
X120815300Y-96216038D01*
X120350633Y-96097439D01*
X120342140Y-96094945D01*
X119887124Y-95943501D01*
X119878830Y-95940408D01*
X119435765Y-95756884D01*
X119427714Y-95753207D01*
X118998866Y-95538542D01*
X118991115Y-95534310D01*
X118578657Y-95289588D01*
X118571219Y-95284807D01*
X118177299Y-95011302D01*
X118170213Y-95005998D01*
X117796796Y-94705082D01*
X117790106Y-94699285D01*
X117746334Y-94658532D01*
X117437511Y-94371007D01*
X117434326Y-94367933D01*
X109740388Y-86673995D01*
X109706903Y-86612672D01*
X109711887Y-86542980D01*
X109717576Y-86530036D01*
X109728389Y-86508816D01*
X109792862Y-86310389D01*
X109802427Y-86250000D01*
X109811370Y-86193539D01*
X109825500Y-86104324D01*
X109825500Y-85895675D01*
X109811370Y-85806461D01*
X109802427Y-85750000D01*
X110688936Y-85750000D01*
X111275622Y-85750000D01*
X111274767Y-85752064D01*
X111242102Y-85916282D01*
X111242102Y-86083718D01*
X111274767Y-86247936D01*
X111275622Y-86250000D01*
X110688936Y-86250000D01*
X110702191Y-86333689D01*
X110771501Y-86547007D01*
X110771502Y-86547010D01*
X110873333Y-86746863D01*
X111005175Y-86928326D01*
X111005175Y-86928327D01*
X111163774Y-87086926D01*
X111345238Y-87218768D01*
X111545091Y-87320599D01*
X111545094Y-87320600D01*
X111758412Y-87389910D01*
X111842102Y-87403166D01*
X111842102Y-86816480D01*
X111844166Y-86817335D01*
X112008384Y-86850000D01*
X112175820Y-86850000D01*
X112340038Y-86817335D01*
X112342102Y-86816480D01*
X112342102Y-87403165D01*
X112425791Y-87389910D01*
X112639109Y-87320600D01*
X112639112Y-87320599D01*
X112838965Y-87218768D01*
X113020428Y-87086926D01*
X113020429Y-87086926D01*
X113179028Y-86928327D01*
X113179028Y-86928326D01*
X113310870Y-86746863D01*
X113412701Y-86547010D01*
X113412702Y-86547007D01*
X113482012Y-86333689D01*
X113495268Y-86250000D01*
X112908582Y-86250000D01*
X112909437Y-86247936D01*
X112942102Y-86083718D01*
X112942102Y-85916282D01*
X112909437Y-85752064D01*
X112908582Y-85750000D01*
X113495268Y-85750000D01*
X113482012Y-85666310D01*
X113412702Y-85452992D01*
X113412701Y-85452989D01*
X113310870Y-85253136D01*
X113179028Y-85071673D01*
X113179028Y-85071672D01*
X113020429Y-84913073D01*
X112838965Y-84781231D01*
X112639112Y-84679400D01*
X112639109Y-84679399D01*
X112425786Y-84610088D01*
X112342102Y-84596833D01*
X112342102Y-85183519D01*
X112340038Y-85182665D01*
X112175820Y-85150000D01*
X112008384Y-85150000D01*
X111844166Y-85182665D01*
X111842102Y-85183519D01*
X111842102Y-84596833D01*
X111842101Y-84596833D01*
X111758417Y-84610088D01*
X111545094Y-84679399D01*
X111545091Y-84679400D01*
X111345238Y-84781231D01*
X111163775Y-84913073D01*
X111163774Y-84913073D01*
X111005175Y-85071672D01*
X111005175Y-85071673D01*
X110873333Y-85253136D01*
X110771502Y-85452989D01*
X110771501Y-85452992D01*
X110702191Y-85666310D01*
X110688936Y-85750000D01*
X109802427Y-85750000D01*
X109792862Y-85689610D01*
X109749396Y-85555838D01*
X109728389Y-85491184D01*
X109728387Y-85491181D01*
X109728387Y-85491179D01*
X109658632Y-85354278D01*
X109633670Y-85305286D01*
X109511035Y-85136495D01*
X109363505Y-84988965D01*
X109194714Y-84866330D01*
X109008820Y-84771612D01*
X108810389Y-84707137D01*
X108604324Y-84674500D01*
X108604319Y-84674500D01*
X108395681Y-84674500D01*
X108395676Y-84674500D01*
X108189610Y-84707137D01*
X107991179Y-84771612D01*
X107805285Y-84866330D01*
X107636493Y-84988966D01*
X107488966Y-85136493D01*
X107366330Y-85305285D01*
X107271612Y-85491179D01*
X107207137Y-85689610D01*
X107174500Y-85895675D01*
X105753799Y-85895675D01*
X105725233Y-85752064D01*
X105724378Y-85750000D01*
X106311064Y-85750000D01*
X106297808Y-85666310D01*
X106228498Y-85452992D01*
X106228497Y-85452989D01*
X106126666Y-85253136D01*
X105994824Y-85071673D01*
X105994824Y-85071672D01*
X105836225Y-84913073D01*
X105654761Y-84781231D01*
X105454908Y-84679400D01*
X105454905Y-84679399D01*
X105241582Y-84610088D01*
X105157898Y-84596833D01*
X105157898Y-85183519D01*
X105155834Y-85182665D01*
X104991616Y-85150000D01*
X104824180Y-85150000D01*
X104659962Y-85182665D01*
X104657898Y-85183519D01*
X104657898Y-84596833D01*
X104657897Y-84596833D01*
X104574213Y-84610088D01*
X104360890Y-84679399D01*
X104360887Y-84679400D01*
X104161034Y-84781231D01*
X103979571Y-84913073D01*
X103979570Y-84913073D01*
X103820971Y-85071672D01*
X103820971Y-85071673D01*
X103689129Y-85253136D01*
X103587298Y-85452989D01*
X103587297Y-85452992D01*
X103517987Y-85666310D01*
X103504732Y-85750000D01*
X100500500Y-85750000D01*
X100500500Y-82157898D01*
X107096834Y-82157898D01*
X107683520Y-82157898D01*
X107682665Y-82159962D01*
X107650000Y-82324180D01*
X107650000Y-82491616D01*
X107682665Y-82655834D01*
X107683520Y-82657898D01*
X107096834Y-82657898D01*
X107110089Y-82741587D01*
X107179399Y-82954905D01*
X107179400Y-82954908D01*
X107281231Y-83154761D01*
X107413073Y-83336224D01*
X107413073Y-83336225D01*
X107571672Y-83494824D01*
X107753136Y-83626666D01*
X107952989Y-83728497D01*
X107952992Y-83728498D01*
X108166310Y-83797808D01*
X108250000Y-83811064D01*
X108250000Y-83224378D01*
X108252064Y-83225233D01*
X108416282Y-83257898D01*
X108583718Y-83257898D01*
X108747936Y-83225233D01*
X108750000Y-83224378D01*
X108750000Y-83811063D01*
X108833689Y-83797808D01*
X109047007Y-83728498D01*
X109047010Y-83728497D01*
X109246863Y-83626666D01*
X109428326Y-83494824D01*
X109428327Y-83494824D01*
X109586926Y-83336225D01*
X109586926Y-83336224D01*
X109718768Y-83154761D01*
X109820599Y-82954908D01*
X109820600Y-82954905D01*
X109889910Y-82741587D01*
X109903166Y-82657898D01*
X109316480Y-82657898D01*
X109317335Y-82655834D01*
X109350000Y-82491616D01*
X109350000Y-82324180D01*
X109317335Y-82159962D01*
X109316480Y-82157898D01*
X109903166Y-82157898D01*
X109889910Y-82074208D01*
X109820600Y-81860890D01*
X109820599Y-81860887D01*
X109718768Y-81661034D01*
X109586926Y-81479571D01*
X109586926Y-81479570D01*
X109428327Y-81320971D01*
X109246863Y-81189129D01*
X109047010Y-81087298D01*
X109047007Y-81087297D01*
X108833684Y-81017986D01*
X108750000Y-81004731D01*
X108750000Y-81591417D01*
X108747936Y-81590563D01*
X108583718Y-81557898D01*
X108416282Y-81557898D01*
X108252064Y-81590563D01*
X108250000Y-81591417D01*
X108250000Y-81004731D01*
X108249999Y-81004731D01*
X108166315Y-81017986D01*
X107952992Y-81087297D01*
X107952989Y-81087298D01*
X107753136Y-81189129D01*
X107571673Y-81320971D01*
X107571672Y-81320971D01*
X107413073Y-81479570D01*
X107413073Y-81479571D01*
X107281231Y-81661034D01*
X107179400Y-81860887D01*
X107179399Y-81860890D01*
X107110089Y-82074208D01*
X107096834Y-82157898D01*
X100500500Y-82157898D01*
X100500500Y-73353952D01*
X100899500Y-73353952D01*
X100899500Y-73646047D01*
X100932199Y-73936271D01*
X100932202Y-73936285D01*
X100997196Y-74221044D01*
X100997197Y-74221046D01*
X101093665Y-74496738D01*
X101220393Y-74759890D01*
X101220395Y-74759893D01*
X101375792Y-75007206D01*
X101505695Y-75170099D01*
X101538668Y-75211447D01*
X101557902Y-75235565D01*
X101764435Y-75442098D01*
X101992794Y-75624208D01*
X102240107Y-75779605D01*
X102503263Y-75906335D01*
X102778955Y-76002803D01*
X103063714Y-76067798D01*
X103063723Y-76067799D01*
X103063728Y-76067800D01*
X103257210Y-76089599D01*
X103353953Y-76100499D01*
X103353956Y-76100500D01*
X103353959Y-76100500D01*
X103646044Y-76100500D01*
X103646045Y-76100499D01*
X103794371Y-76083787D01*
X103936271Y-76067800D01*
X103936274Y-76067799D01*
X103936286Y-76067798D01*
X104221045Y-76002803D01*
X104496737Y-75906335D01*
X104759893Y-75779605D01*
X105007206Y-75624208D01*
X105235565Y-75442098D01*
X105442098Y-75235565D01*
X105624208Y-75007206D01*
X105779605Y-74759893D01*
X105906335Y-74496737D01*
X106002803Y-74221045D01*
X106067798Y-73936286D01*
X106072738Y-73892447D01*
X106089098Y-73747235D01*
X106100500Y-73646041D01*
X106100500Y-73353959D01*
X106086454Y-73229292D01*
X106067800Y-73063728D01*
X106067799Y-73063723D01*
X106067798Y-73063714D01*
X106002803Y-72778955D01*
X105906335Y-72503263D01*
X105779605Y-72240107D01*
X105624208Y-71992794D01*
X105442098Y-71764435D01*
X105235565Y-71557902D01*
X105007206Y-71375792D01*
X104759893Y-71220395D01*
X104759890Y-71220393D01*
X104496738Y-71093665D01*
X104221046Y-70997197D01*
X104221044Y-70997196D01*
X103983384Y-70942952D01*
X103936286Y-70932202D01*
X103936283Y-70932201D01*
X103936271Y-70932199D01*
X103646047Y-70899500D01*
X103646041Y-70899500D01*
X103353959Y-70899500D01*
X103353952Y-70899500D01*
X103063728Y-70932199D01*
X103063714Y-70932202D01*
X102778955Y-70997196D01*
X102778953Y-70997197D01*
X102503261Y-71093665D01*
X102240109Y-71220393D01*
X101992795Y-71375791D01*
X101764435Y-71557901D01*
X101557901Y-71764435D01*
X101375791Y-71992795D01*
X101220393Y-72240109D01*
X101093665Y-72503261D01*
X100997197Y-72778953D01*
X100997196Y-72778955D01*
X100932202Y-73063714D01*
X100932199Y-73063728D01*
X100899500Y-73353952D01*
X100500500Y-73353952D01*
X100500500Y-73003750D01*
X100500726Y-72996263D01*
X100514456Y-72769281D01*
X100518271Y-72706201D01*
X100520076Y-72691340D01*
X100523687Y-72671639D01*
X100571780Y-72409198D01*
X100575364Y-72394664D01*
X100660699Y-72120812D01*
X100665997Y-72106842D01*
X100783727Y-71845258D01*
X100790680Y-71832012D01*
X100831531Y-71764435D01*
X100939075Y-71586534D01*
X100947567Y-71574230D01*
X101124481Y-71348417D01*
X101134396Y-71337226D01*
X101337226Y-71134396D01*
X101348417Y-71124481D01*
X101574230Y-70947567D01*
X101586534Y-70939075D01*
X101832012Y-70790680D01*
X101845258Y-70783727D01*
X102106842Y-70665997D01*
X102120812Y-70660699D01*
X102394668Y-70575362D01*
X102409198Y-70571780D01*
X102691344Y-70520075D01*
X102706201Y-70518271D01*
X102996264Y-70500726D01*
X103003751Y-70500500D01*
X103065892Y-70500500D01*
X161934108Y-70500500D01*
X161996249Y-70500500D01*
X162003736Y-70500726D01*
G37*
%TD.AperFunction*%
%TD*%
M02*
