%TF.GenerationSoftware,KiCad,Pcbnew,10.0.3*%
%TF.CreationDate,2026-06-09T15:28:26+05:30*%
%TF.ProjectId,LoRaFlux RF HAT,4c6f5261-466c-4757-9820-524620484154,rev?*%
%TF.SameCoordinates,Original*%
%TF.FileFunction,Soldermask,Bot*%
%TF.FilePolarity,Negative*%
%FSLAX46Y46*%
G04 Gerber Fmt 4.6, Leading zero omitted, Abs format (unit mm)*
G04 Created by KiCad (PCBNEW 10.0.3) date 2026-06-09 15:28:26*
%MOMM*%
%LPD*%
G01*
G04 APERTURE LIST*
%ADD10C,2.700000*%
%ADD11C,2.050000*%
%ADD12C,2.250000*%
%ADD13R,1.700000X1.700000*%
%ADD14O,1.700000X1.700000*%
G04 APERTURE END LIST*
D10*
%TO.C,H2*%
X161500000Y-96500000D03*
%TD*%
D11*
%TO.C,J1*%
X156500000Y-86000000D03*
D12*
X152907898Y-86000000D03*
X156500000Y-89592102D03*
X156500000Y-82407898D03*
X160092102Y-86000000D03*
%TD*%
D10*
%TO.C,H3*%
X161500000Y-73500000D03*
%TD*%
%TO.C,H4*%
X103500000Y-73500000D03*
%TD*%
%TO.C,H1*%
X103500000Y-96500000D03*
%TD*%
D11*
%TO.C,J2*%
X108500000Y-86000000D03*
D12*
X104907898Y-86000000D03*
X108500000Y-89592102D03*
X108500000Y-82407898D03*
X112092102Y-86000000D03*
%TD*%
D13*
%TO.C,J3*%
X108370000Y-74770000D03*
D14*
X108370000Y-72230000D03*
X110910000Y-74770000D03*
X110910000Y-72230000D03*
X113450000Y-74770000D03*
X113450000Y-72230000D03*
X115990000Y-74770000D03*
X115990000Y-72230000D03*
X118530000Y-74770000D03*
X118530000Y-72230000D03*
X121070000Y-74770000D03*
X121070000Y-72230000D03*
X123610000Y-74770000D03*
X123610000Y-72230000D03*
X126150000Y-74770000D03*
X126150000Y-72230000D03*
X128690000Y-74770000D03*
X128690000Y-72230000D03*
X131230000Y-74770000D03*
X131230000Y-72230000D03*
X133770000Y-74770000D03*
X133770000Y-72230000D03*
X136310000Y-74770000D03*
X136310000Y-72230000D03*
X138850000Y-74770000D03*
X138850000Y-72230000D03*
X141390000Y-74770000D03*
X141390000Y-72230000D03*
X143930000Y-74770000D03*
X143930000Y-72230000D03*
X146470000Y-74770000D03*
X146470000Y-72230000D03*
X149010000Y-74770000D03*
X149010000Y-72230000D03*
X151550000Y-74770000D03*
X151550000Y-72230000D03*
X154090000Y-74770000D03*
X154090000Y-72230000D03*
X156630000Y-74770000D03*
X156630000Y-72230000D03*
%TD*%
M02*
