%TF.GenerationSoftware,KiCad,Pcbnew,10.0.3*%
%TF.CreationDate,2026-06-09T15:28:26+05:30*%
%TF.ProjectId,LoRaFlux RF HAT,4c6f5261-466c-4757-9820-524620484154,rev?*%
%TF.SameCoordinates,Original*%
%TF.FileFunction,Paste,Top*%
%TF.FilePolarity,Positive*%
%FSLAX46Y46*%
G04 Gerber Fmt 4.6, Leading zero omitted, Abs format (unit mm)*
G04 Created by KiCad (PCBNEW 10.0.3) date 2026-06-09 15:28:26*
%MOMM*%
%LPD*%
G01*
G04 APERTURE LIST*
G04 Aperture macros list*
%AMRoundRect*
0 Rectangle with rounded corners*
0 $1 Rounding radius*
0 $2 $3 $4 $5 $6 $7 $8 $9 X,Y pos of 4 corners*
0 Add a 4 corners polygon primitive as box body*
4,1,4,$2,$3,$4,$5,$6,$7,$8,$9,$2,$3,0*
0 Add four circle primitives for the rounded corners*
1,1,$1+$1,$2,$3*
1,1,$1+$1,$4,$5*
1,1,$1+$1,$6,$7*
1,1,$1+$1,$8,$9*
0 Add four rect primitives between the rounded corners*
20,1,$1+$1,$2,$3,$4,$5,0*
20,1,$1+$1,$4,$5,$6,$7,0*
20,1,$1+$1,$6,$7,$8,$9,0*
20,1,$1+$1,$8,$9,$2,$3,0*%
G04 Aperture macros list end*
%ADD10RoundRect,0.225000X-0.225000X-0.250000X0.225000X-0.250000X0.225000X0.250000X-0.225000X0.250000X0*%
%ADD11RoundRect,0.200000X0.275000X-0.200000X0.275000X0.200000X-0.275000X0.200000X-0.275000X-0.200000X0*%
%ADD12RoundRect,0.225000X-0.250000X0.225000X-0.250000X-0.225000X0.250000X-0.225000X0.250000X0.225000X0*%
%ADD13RoundRect,0.200000X-0.200000X-0.275000X0.200000X-0.275000X0.200000X0.275000X-0.200000X0.275000X0*%
%ADD14RoundRect,0.218750X-0.256250X0.218750X-0.256250X-0.218750X0.256250X-0.218750X0.256250X0.218750X0*%
%ADD15R,0.900000X0.800000*%
%ADD16R,0.850000X0.300000*%
%ADD17R,0.300000X0.850000*%
%ADD18R,3.200000X3.200000*%
%ADD19RoundRect,0.225000X0.250000X-0.225000X0.250000X0.225000X-0.250000X0.225000X-0.250000X-0.225000X0*%
%ADD20RoundRect,0.218750X-0.218750X-0.256250X0.218750X-0.256250X0.218750X0.256250X-0.218750X0.256250X0*%
G04 APERTURE END LIST*
D10*
%TO.C,C9*%
X142227000Y-85979000D03*
X143777000Y-85979000D03*
%TD*%
%TO.C,C1*%
X142227000Y-89027000D03*
X143777000Y-89027000D03*
%TD*%
D11*
%TO.C,R1*%
X139192000Y-81851000D03*
X139192000Y-80201000D03*
%TD*%
%TO.C,R3*%
X136144000Y-81851000D03*
X136144000Y-80201000D03*
%TD*%
%TO.C,R2*%
X137668000Y-81851000D03*
X137668000Y-80201000D03*
%TD*%
D12*
%TO.C,C12*%
X135382000Y-93459000D03*
X135382000Y-95009000D03*
%TD*%
D13*
%TO.C,R6*%
X128568400Y-86372764D03*
X130218400Y-86372764D03*
%TD*%
D12*
%TO.C,C13*%
X133096000Y-93459000D03*
X133096000Y-95009000D03*
%TD*%
%TO.C,C4*%
X138430000Y-93459000D03*
X138430000Y-95009000D03*
%TD*%
D14*
%TO.C,L1*%
X131445000Y-93446500D03*
X131445000Y-95021500D03*
%TD*%
D15*
%TO.C,Y1*%
X143743390Y-80857000D03*
X142343390Y-80857000D03*
X142343390Y-81957000D03*
X143743390Y-81957000D03*
%TD*%
D10*
%TO.C,C7*%
X142227000Y-90551000D03*
X143777000Y-90551000D03*
%TD*%
D12*
%TO.C,C11*%
X136906000Y-93459000D03*
X136906000Y-95009000D03*
%TD*%
D13*
%TO.C,R4*%
X128568400Y-89964867D03*
X130218400Y-89964867D03*
%TD*%
D16*
%TO.C,IC1*%
X138848000Y-89380000D03*
X138848000Y-88880000D03*
X138848000Y-88380000D03*
X138848000Y-87880000D03*
X138848000Y-87380000D03*
X138848000Y-86880000D03*
X138848000Y-86380000D03*
X138848000Y-85880000D03*
D17*
X138148000Y-85180000D03*
X137648000Y-85180000D03*
X137148000Y-85180000D03*
X136648000Y-85180000D03*
X136148000Y-85180000D03*
X135648000Y-85180000D03*
X135148000Y-85180000D03*
X134648000Y-85180000D03*
D16*
X133948000Y-85880000D03*
X133948000Y-86380000D03*
X133948000Y-86880000D03*
X133948000Y-87380000D03*
X133948000Y-87880000D03*
X133948000Y-88380000D03*
X133948000Y-88880000D03*
X133948000Y-89380000D03*
D17*
X134648000Y-90080000D03*
X135148000Y-90080000D03*
X135648000Y-90080000D03*
X136148000Y-90080000D03*
X136648000Y-90080000D03*
X137148000Y-90080000D03*
X137648000Y-90080000D03*
X138148000Y-90080000D03*
D18*
X136398000Y-87630000D03*
%TD*%
D12*
%TO.C,C8*%
X139954000Y-93459000D03*
X139954000Y-95009000D03*
%TD*%
D19*
%TO.C,C3*%
X145557861Y-82182000D03*
X145557861Y-80632000D03*
%TD*%
D20*
%TO.C,L2*%
X127990499Y-96774000D03*
X129565501Y-96774000D03*
%TD*%
D19*
%TO.C,C2*%
X134620000Y-81801000D03*
X134620000Y-80251000D03*
%TD*%
%TO.C,C6*%
X133096000Y-81801000D03*
X133096000Y-80251000D03*
%TD*%
D10*
%TO.C,C5*%
X142227000Y-87503000D03*
X143777000Y-87503000D03*
%TD*%
D13*
%TO.C,R7*%
X128568400Y-84576713D03*
X130218400Y-84576713D03*
%TD*%
%TO.C,R5*%
X128568400Y-88168816D03*
X130218400Y-88168816D03*
%TD*%
D10*
%TO.C,C10*%
X142227000Y-84455000D03*
X143777000Y-84455000D03*
%TD*%
M02*
