%TF.GenerationSoftware,KiCad,Pcbnew,9.0.6*%
%TF.CreationDate,2026-05-21T01:06:00+05:30*%
%TF.ProjectId,Arduino Hive,41726475-696e-46f2-9048-6976652e6b69,1*%
%TF.SameCoordinates,Original*%
%TF.FileFunction,Drillmap*%
%TF.FilePolarity,Positive*%
%FSLAX45Y45*%
G04 Gerber Fmt 4.5, Leading zero omitted, Abs format (unit mm)*
G04 Created by KiCad (PCBNEW 9.0.6) date 2026-05-21 01:06:00*
%MOMM*%
%LPD*%
G01*
G04 APERTURE LIST*
%ADD10C,0.050000*%
%ADD11C,0.200000*%
%ADD12C,0.100000*%
G04 APERTURE END LIST*
D10*
X15125700Y-12331700D02*
X15125933Y-15249185D01*
X14973300Y-15405100D02*
X9511541Y-15487371D01*
X9423400Y-15341600D02*
X9423919Y-12286068D01*
X14959509Y-12093361D02*
X9588500Y-12115800D01*
X15048224Y-15139676D02*
G75*
G02*
X14796776Y-15139676I-125724J0D01*
G01*
X14796776Y-15139676D02*
G75*
G02*
X15048224Y-15139676I125724J0D01*
G01*
X15035524Y-12280900D02*
G75*
G02*
X14784076Y-12280900I-125724J0D01*
G01*
X14784076Y-12280900D02*
G75*
G02*
X15035524Y-12280900I125724J0D01*
G01*
X9511541Y-15487371D02*
G75*
G02*
X9423400Y-15341600I13459J107671D01*
G01*
X9423919Y-12286068D02*
G75*
G02*
X9588500Y-12115800I151881J17868D01*
G01*
X14959509Y-12093361D02*
G75*
G02*
X15125700Y-12331700I-87809J-238339D01*
G01*
X15125933Y-15249185D02*
G75*
G02*
X14973300Y-15405100I-165333J9185D01*
G01*
D11*
D12*
X10057660Y-15057360D02*
X10097660Y-15097360D01*
X10097660Y-15057360D02*
X10057660Y-15097360D01*
X10404380Y-14836740D02*
X10444380Y-14876740D01*
X10444380Y-14836740D02*
X10404380Y-14876740D01*
X10598460Y-15161860D02*
X10638460Y-15201860D01*
X10638460Y-15161860D02*
X10598460Y-15201860D01*
X10821040Y-15164410D02*
X10861040Y-15204410D01*
X10861040Y-15164410D02*
X10821040Y-15204410D01*
X11347570Y-13161970D02*
X11387570Y-13201970D01*
X11387570Y-13161970D02*
X11347570Y-13201970D01*
X11441020Y-13470090D02*
X11481020Y-13510090D01*
X11481020Y-13470090D02*
X11441020Y-13510090D01*
X11516120Y-13720550D02*
X11556120Y-13760550D01*
X11556120Y-13720550D02*
X11516120Y-13760550D01*
X11799170Y-14197700D02*
X11839170Y-14237700D01*
X11839170Y-14197700D02*
X11799170Y-14237700D01*
X11914650Y-14197720D02*
X11954650Y-14237720D01*
X11954650Y-14197720D02*
X11914650Y-14237720D01*
X12070400Y-14198340D02*
X12110400Y-14238340D01*
X12110400Y-14198340D02*
X12070400Y-14238340D01*
X12144280Y-13447120D02*
X12184280Y-13487120D01*
X12184280Y-13447120D02*
X12144280Y-13487120D01*
X12506950Y-13561350D02*
X12546950Y-13601350D01*
X12546950Y-13561350D02*
X12506950Y-13601350D01*
X14041180Y-13048300D02*
X14081180Y-13088300D01*
X14081180Y-13048300D02*
X14041180Y-13088300D01*
X14751610Y-13937300D02*
X14791610Y-13977300D01*
X14791610Y-13937300D02*
X14751610Y-13977300D01*
X9749000Y-12573000D02*
G75*
G02*
X9649000Y-12573000I-50000J0D01*
G01*
X9649000Y-12573000D02*
G75*
G02*
X9749000Y-12573000I50000J0D01*
G01*
X9749000Y-12827000D02*
G75*
G02*
X9649000Y-12827000I-50000J0D01*
G01*
X9649000Y-12827000D02*
G75*
G02*
X9749000Y-12827000I50000J0D01*
G01*
X10679900Y-12420600D02*
G75*
G02*
X10579900Y-12420600I-50000J0D01*
G01*
X10579900Y-12420600D02*
G75*
G02*
X10679900Y-12420600I50000J0D01*
G01*
X10679900Y-12674600D02*
G75*
G02*
X10579900Y-12674600I-50000J0D01*
G01*
X10579900Y-12674600D02*
G75*
G02*
X10679900Y-12674600I50000J0D01*
G01*
X10933900Y-12420600D02*
G75*
G02*
X10833900Y-12420600I-50000J0D01*
G01*
X10833900Y-12420600D02*
G75*
G02*
X10933900Y-12420600I50000J0D01*
G01*
X10933900Y-12674600D02*
G75*
G02*
X10833900Y-12674600I-50000J0D01*
G01*
X10833900Y-12674600D02*
G75*
G02*
X10933900Y-12674600I50000J0D01*
G01*
X11187900Y-12420600D02*
G75*
G02*
X11087900Y-12420600I-50000J0D01*
G01*
X11087900Y-12420600D02*
G75*
G02*
X11187900Y-12420600I50000J0D01*
G01*
X11187900Y-12674600D02*
G75*
G02*
X11087900Y-12674600I-50000J0D01*
G01*
X11087900Y-12674600D02*
G75*
G02*
X11187900Y-12674600I50000J0D01*
G01*
X11441000Y-15228400D02*
G75*
G02*
X11341000Y-15228400I-50000J0D01*
G01*
X11341000Y-15228400D02*
G75*
G02*
X11441000Y-15228400I50000J0D01*
G01*
X11683200Y-12400200D02*
G75*
G02*
X11583200Y-12400200I-50000J0D01*
G01*
X11583200Y-12400200D02*
G75*
G02*
X11683200Y-12400200I50000J0D01*
G01*
X11695000Y-15228400D02*
G75*
G02*
X11595000Y-15228400I-50000J0D01*
G01*
X11595000Y-15228400D02*
G75*
G02*
X11695000Y-15228400I50000J0D01*
G01*
X11937200Y-12400200D02*
G75*
G02*
X11837200Y-12400200I-50000J0D01*
G01*
X11837200Y-12400200D02*
G75*
G02*
X11937200Y-12400200I50000J0D01*
G01*
X11949000Y-15228400D02*
G75*
G02*
X11849000Y-15228400I-50000J0D01*
G01*
X11849000Y-15228400D02*
G75*
G02*
X11949000Y-15228400I50000J0D01*
G01*
X12191200Y-12400200D02*
G75*
G02*
X12091200Y-12400200I-50000J0D01*
G01*
X12091200Y-12400200D02*
G75*
G02*
X12191200Y-12400200I50000J0D01*
G01*
X12203000Y-15228400D02*
G75*
G02*
X12103000Y-15228400I-50000J0D01*
G01*
X12103000Y-15228400D02*
G75*
G02*
X12203000Y-15228400I50000J0D01*
G01*
X12445200Y-12400200D02*
G75*
G02*
X12345200Y-12400200I-50000J0D01*
G01*
X12345200Y-12400200D02*
G75*
G02*
X12445200Y-12400200I50000J0D01*
G01*
X12457000Y-15228400D02*
G75*
G02*
X12357000Y-15228400I-50000J0D01*
G01*
X12357000Y-15228400D02*
G75*
G02*
X12457000Y-15228400I50000J0D01*
G01*
X12711000Y-15228400D02*
G75*
G02*
X12611000Y-15228400I-50000J0D01*
G01*
X12611000Y-15228400D02*
G75*
G02*
X12711000Y-15228400I50000J0D01*
G01*
X12915100Y-12395200D02*
G75*
G02*
X12815100Y-12395200I-50000J0D01*
G01*
X12815100Y-12395200D02*
G75*
G02*
X12915100Y-12395200I50000J0D01*
G01*
X12965000Y-15228400D02*
G75*
G02*
X12865000Y-15228400I-50000J0D01*
G01*
X12865000Y-15228400D02*
G75*
G02*
X12965000Y-15228400I50000J0D01*
G01*
X13169100Y-12395200D02*
G75*
G02*
X13069100Y-12395200I-50000J0D01*
G01*
X13069100Y-12395200D02*
G75*
G02*
X13169100Y-12395200I50000J0D01*
G01*
X13219000Y-15228400D02*
G75*
G02*
X13119000Y-15228400I-50000J0D01*
G01*
X13119000Y-15228400D02*
G75*
G02*
X13219000Y-15228400I50000J0D01*
G01*
X13423100Y-12395200D02*
G75*
G02*
X13323100Y-12395200I-50000J0D01*
G01*
X13323100Y-12395200D02*
G75*
G02*
X13423100Y-12395200I50000J0D01*
G01*
X13473000Y-15228400D02*
G75*
G02*
X13373000Y-15228400I-50000J0D01*
G01*
X13373000Y-15228400D02*
G75*
G02*
X13473000Y-15228400I50000J0D01*
G01*
X13677100Y-12395200D02*
G75*
G02*
X13577100Y-12395200I-50000J0D01*
G01*
X13577100Y-12395200D02*
G75*
G02*
X13677100Y-12395200I50000J0D01*
G01*
D11*
X9674768Y-15801355D02*
X9674768Y-15601355D01*
X9674768Y-15601355D02*
X9722387Y-15601355D01*
X9722387Y-15601355D02*
X9750959Y-15610878D01*
X9750959Y-15610878D02*
X9770006Y-15629926D01*
X9770006Y-15629926D02*
X9779530Y-15648974D01*
X9779530Y-15648974D02*
X9789054Y-15687069D01*
X9789054Y-15687069D02*
X9789054Y-15715640D01*
X9789054Y-15715640D02*
X9779530Y-15753736D01*
X9779530Y-15753736D02*
X9770006Y-15772783D01*
X9770006Y-15772783D02*
X9750959Y-15791831D01*
X9750959Y-15791831D02*
X9722387Y-15801355D01*
X9722387Y-15801355D02*
X9674768Y-15801355D01*
X9874768Y-15801355D02*
X9874768Y-15668021D01*
X9874768Y-15706117D02*
X9884292Y-15687069D01*
X9884292Y-15687069D02*
X9893816Y-15677545D01*
X9893816Y-15677545D02*
X9912863Y-15668021D01*
X9912863Y-15668021D02*
X9931911Y-15668021D01*
X9998578Y-15801355D02*
X9998578Y-15668021D01*
X9998578Y-15601355D02*
X9989054Y-15610878D01*
X9989054Y-15610878D02*
X9998578Y-15620402D01*
X9998578Y-15620402D02*
X10008101Y-15610878D01*
X10008101Y-15610878D02*
X9998578Y-15601355D01*
X9998578Y-15601355D02*
X9998578Y-15620402D01*
X10122387Y-15801355D02*
X10103339Y-15791831D01*
X10103339Y-15791831D02*
X10093816Y-15772783D01*
X10093816Y-15772783D02*
X10093816Y-15601355D01*
X10227149Y-15801355D02*
X10208101Y-15791831D01*
X10208101Y-15791831D02*
X10198578Y-15772783D01*
X10198578Y-15772783D02*
X10198578Y-15601355D01*
X10455720Y-15801355D02*
X10455720Y-15601355D01*
X10455720Y-15601355D02*
X10522387Y-15744212D01*
X10522387Y-15744212D02*
X10589054Y-15601355D01*
X10589054Y-15601355D02*
X10589054Y-15801355D01*
X10770006Y-15801355D02*
X10770006Y-15696593D01*
X10770006Y-15696593D02*
X10760482Y-15677545D01*
X10760482Y-15677545D02*
X10741435Y-15668021D01*
X10741435Y-15668021D02*
X10703339Y-15668021D01*
X10703339Y-15668021D02*
X10684292Y-15677545D01*
X10770006Y-15791831D02*
X10750959Y-15801355D01*
X10750959Y-15801355D02*
X10703339Y-15801355D01*
X10703339Y-15801355D02*
X10684292Y-15791831D01*
X10684292Y-15791831D02*
X10674768Y-15772783D01*
X10674768Y-15772783D02*
X10674768Y-15753736D01*
X10674768Y-15753736D02*
X10684292Y-15734688D01*
X10684292Y-15734688D02*
X10703339Y-15725164D01*
X10703339Y-15725164D02*
X10750959Y-15725164D01*
X10750959Y-15725164D02*
X10770006Y-15715640D01*
X10865244Y-15668021D02*
X10865244Y-15868021D01*
X10865244Y-15677545D02*
X10884292Y-15668021D01*
X10884292Y-15668021D02*
X10922387Y-15668021D01*
X10922387Y-15668021D02*
X10941435Y-15677545D01*
X10941435Y-15677545D02*
X10950959Y-15687069D01*
X10950959Y-15687069D02*
X10960482Y-15706117D01*
X10960482Y-15706117D02*
X10960482Y-15763259D01*
X10960482Y-15763259D02*
X10950959Y-15782307D01*
X10950959Y-15782307D02*
X10941435Y-15791831D01*
X10941435Y-15791831D02*
X10922387Y-15801355D01*
X10922387Y-15801355D02*
X10884292Y-15801355D01*
X10884292Y-15801355D02*
X10865244Y-15791831D01*
X11046197Y-15782307D02*
X11055720Y-15791831D01*
X11055720Y-15791831D02*
X11046197Y-15801355D01*
X11046197Y-15801355D02*
X11036673Y-15791831D01*
X11036673Y-15791831D02*
X11046197Y-15782307D01*
X11046197Y-15782307D02*
X11046197Y-15801355D01*
X11046197Y-15677545D02*
X11055720Y-15687069D01*
X11055720Y-15687069D02*
X11046197Y-15696593D01*
X11046197Y-15696593D02*
X11036673Y-15687069D01*
X11036673Y-15687069D02*
X11046197Y-15677545D01*
X11046197Y-15677545D02*
X11046197Y-15696593D01*
D12*
X9373991Y-16109871D02*
X9413991Y-16149871D01*
X9413991Y-16109871D02*
X9373991Y-16149871D01*
D11*
X9712863Y-16021355D02*
X9731911Y-16021355D01*
X9731911Y-16021355D02*
X9750959Y-16030878D01*
X9750959Y-16030878D02*
X9760482Y-16040402D01*
X9760482Y-16040402D02*
X9770006Y-16059450D01*
X9770006Y-16059450D02*
X9779530Y-16097545D01*
X9779530Y-16097545D02*
X9779530Y-16145164D01*
X9779530Y-16145164D02*
X9770006Y-16183259D01*
X9770006Y-16183259D02*
X9760482Y-16202307D01*
X9760482Y-16202307D02*
X9750959Y-16211831D01*
X9750959Y-16211831D02*
X9731911Y-16221355D01*
X9731911Y-16221355D02*
X9712863Y-16221355D01*
X9712863Y-16221355D02*
X9693816Y-16211831D01*
X9693816Y-16211831D02*
X9684292Y-16202307D01*
X9684292Y-16202307D02*
X9674768Y-16183259D01*
X9674768Y-16183259D02*
X9665244Y-16145164D01*
X9665244Y-16145164D02*
X9665244Y-16097545D01*
X9665244Y-16097545D02*
X9674768Y-16059450D01*
X9674768Y-16059450D02*
X9684292Y-16040402D01*
X9684292Y-16040402D02*
X9693816Y-16030878D01*
X9693816Y-16030878D02*
X9712863Y-16021355D01*
X9865244Y-16202307D02*
X9874768Y-16211831D01*
X9874768Y-16211831D02*
X9865244Y-16221355D01*
X9865244Y-16221355D02*
X9855720Y-16211831D01*
X9855720Y-16211831D02*
X9865244Y-16202307D01*
X9865244Y-16202307D02*
X9865244Y-16221355D01*
X10046197Y-16088021D02*
X10046197Y-16221355D01*
X9998578Y-16011831D02*
X9950959Y-16154688D01*
X9950959Y-16154688D02*
X10074768Y-16154688D01*
X10189054Y-16021355D02*
X10208101Y-16021355D01*
X10208101Y-16021355D02*
X10227149Y-16030878D01*
X10227149Y-16030878D02*
X10236673Y-16040402D01*
X10236673Y-16040402D02*
X10246197Y-16059450D01*
X10246197Y-16059450D02*
X10255720Y-16097545D01*
X10255720Y-16097545D02*
X10255720Y-16145164D01*
X10255720Y-16145164D02*
X10246197Y-16183259D01*
X10246197Y-16183259D02*
X10236673Y-16202307D01*
X10236673Y-16202307D02*
X10227149Y-16211831D01*
X10227149Y-16211831D02*
X10208101Y-16221355D01*
X10208101Y-16221355D02*
X10189054Y-16221355D01*
X10189054Y-16221355D02*
X10170006Y-16211831D01*
X10170006Y-16211831D02*
X10160482Y-16202307D01*
X10160482Y-16202307D02*
X10150959Y-16183259D01*
X10150959Y-16183259D02*
X10141435Y-16145164D01*
X10141435Y-16145164D02*
X10141435Y-16097545D01*
X10141435Y-16097545D02*
X10150959Y-16059450D01*
X10150959Y-16059450D02*
X10160482Y-16040402D01*
X10160482Y-16040402D02*
X10170006Y-16030878D01*
X10170006Y-16030878D02*
X10189054Y-16021355D01*
X10379530Y-16021355D02*
X10398578Y-16021355D01*
X10398578Y-16021355D02*
X10417625Y-16030878D01*
X10417625Y-16030878D02*
X10427149Y-16040402D01*
X10427149Y-16040402D02*
X10436673Y-16059450D01*
X10436673Y-16059450D02*
X10446197Y-16097545D01*
X10446197Y-16097545D02*
X10446197Y-16145164D01*
X10446197Y-16145164D02*
X10436673Y-16183259D01*
X10436673Y-16183259D02*
X10427149Y-16202307D01*
X10427149Y-16202307D02*
X10417625Y-16211831D01*
X10417625Y-16211831D02*
X10398578Y-16221355D01*
X10398578Y-16221355D02*
X10379530Y-16221355D01*
X10379530Y-16221355D02*
X10360482Y-16211831D01*
X10360482Y-16211831D02*
X10350959Y-16202307D01*
X10350959Y-16202307D02*
X10341435Y-16183259D01*
X10341435Y-16183259D02*
X10331911Y-16145164D01*
X10331911Y-16145164D02*
X10331911Y-16097545D01*
X10331911Y-16097545D02*
X10341435Y-16059450D01*
X10341435Y-16059450D02*
X10350959Y-16040402D01*
X10350959Y-16040402D02*
X10360482Y-16030878D01*
X10360482Y-16030878D02*
X10379530Y-16021355D01*
X10531911Y-16221355D02*
X10531911Y-16088021D01*
X10531911Y-16107069D02*
X10541435Y-16097545D01*
X10541435Y-16097545D02*
X10560482Y-16088021D01*
X10560482Y-16088021D02*
X10589054Y-16088021D01*
X10589054Y-16088021D02*
X10608101Y-16097545D01*
X10608101Y-16097545D02*
X10617625Y-16116593D01*
X10617625Y-16116593D02*
X10617625Y-16221355D01*
X10617625Y-16116593D02*
X10627149Y-16097545D01*
X10627149Y-16097545D02*
X10646197Y-16088021D01*
X10646197Y-16088021D02*
X10674768Y-16088021D01*
X10674768Y-16088021D02*
X10693816Y-16097545D01*
X10693816Y-16097545D02*
X10703340Y-16116593D01*
X10703340Y-16116593D02*
X10703340Y-16221355D01*
X10798578Y-16221355D02*
X10798578Y-16088021D01*
X10798578Y-16107069D02*
X10808101Y-16097545D01*
X10808101Y-16097545D02*
X10827149Y-16088021D01*
X10827149Y-16088021D02*
X10855721Y-16088021D01*
X10855721Y-16088021D02*
X10874768Y-16097545D01*
X10874768Y-16097545D02*
X10884292Y-16116593D01*
X10884292Y-16116593D02*
X10884292Y-16221355D01*
X10884292Y-16116593D02*
X10893816Y-16097545D01*
X10893816Y-16097545D02*
X10912863Y-16088021D01*
X10912863Y-16088021D02*
X10941435Y-16088021D01*
X10941435Y-16088021D02*
X10960482Y-16097545D01*
X10960482Y-16097545D02*
X10970006Y-16116593D01*
X10970006Y-16116593D02*
X10970006Y-16221355D01*
X11360482Y-16011831D02*
X11189054Y-16268974D01*
X11617625Y-16021355D02*
X11636673Y-16021355D01*
X11636673Y-16021355D02*
X11655721Y-16030878D01*
X11655721Y-16030878D02*
X11665244Y-16040402D01*
X11665244Y-16040402D02*
X11674768Y-16059450D01*
X11674768Y-16059450D02*
X11684292Y-16097545D01*
X11684292Y-16097545D02*
X11684292Y-16145164D01*
X11684292Y-16145164D02*
X11674768Y-16183259D01*
X11674768Y-16183259D02*
X11665244Y-16202307D01*
X11665244Y-16202307D02*
X11655721Y-16211831D01*
X11655721Y-16211831D02*
X11636673Y-16221355D01*
X11636673Y-16221355D02*
X11617625Y-16221355D01*
X11617625Y-16221355D02*
X11598578Y-16211831D01*
X11598578Y-16211831D02*
X11589054Y-16202307D01*
X11589054Y-16202307D02*
X11579530Y-16183259D01*
X11579530Y-16183259D02*
X11570006Y-16145164D01*
X11570006Y-16145164D02*
X11570006Y-16097545D01*
X11570006Y-16097545D02*
X11579530Y-16059450D01*
X11579530Y-16059450D02*
X11589054Y-16040402D01*
X11589054Y-16040402D02*
X11598578Y-16030878D01*
X11598578Y-16030878D02*
X11617625Y-16021355D01*
X11770006Y-16202307D02*
X11779530Y-16211831D01*
X11779530Y-16211831D02*
X11770006Y-16221355D01*
X11770006Y-16221355D02*
X11760482Y-16211831D01*
X11760482Y-16211831D02*
X11770006Y-16202307D01*
X11770006Y-16202307D02*
X11770006Y-16221355D01*
X11903340Y-16021355D02*
X11922387Y-16021355D01*
X11922387Y-16021355D02*
X11941435Y-16030878D01*
X11941435Y-16030878D02*
X11950959Y-16040402D01*
X11950959Y-16040402D02*
X11960482Y-16059450D01*
X11960482Y-16059450D02*
X11970006Y-16097545D01*
X11970006Y-16097545D02*
X11970006Y-16145164D01*
X11970006Y-16145164D02*
X11960482Y-16183259D01*
X11960482Y-16183259D02*
X11950959Y-16202307D01*
X11950959Y-16202307D02*
X11941435Y-16211831D01*
X11941435Y-16211831D02*
X11922387Y-16221355D01*
X11922387Y-16221355D02*
X11903340Y-16221355D01*
X11903340Y-16221355D02*
X11884292Y-16211831D01*
X11884292Y-16211831D02*
X11874768Y-16202307D01*
X11874768Y-16202307D02*
X11865244Y-16183259D01*
X11865244Y-16183259D02*
X11855721Y-16145164D01*
X11855721Y-16145164D02*
X11855721Y-16097545D01*
X11855721Y-16097545D02*
X11865244Y-16059450D01*
X11865244Y-16059450D02*
X11874768Y-16040402D01*
X11874768Y-16040402D02*
X11884292Y-16030878D01*
X11884292Y-16030878D02*
X11903340Y-16021355D01*
X12160482Y-16221355D02*
X12046197Y-16221355D01*
X12103340Y-16221355D02*
X12103340Y-16021355D01*
X12103340Y-16021355D02*
X12084292Y-16049926D01*
X12084292Y-16049926D02*
X12065244Y-16068974D01*
X12065244Y-16068974D02*
X12046197Y-16078497D01*
X12341435Y-16021355D02*
X12246197Y-16021355D01*
X12246197Y-16021355D02*
X12236673Y-16116593D01*
X12236673Y-16116593D02*
X12246197Y-16107069D01*
X12246197Y-16107069D02*
X12265244Y-16097545D01*
X12265244Y-16097545D02*
X12312863Y-16097545D01*
X12312863Y-16097545D02*
X12331911Y-16107069D01*
X12331911Y-16107069D02*
X12341435Y-16116593D01*
X12341435Y-16116593D02*
X12350959Y-16135640D01*
X12350959Y-16135640D02*
X12350959Y-16183259D01*
X12350959Y-16183259D02*
X12341435Y-16202307D01*
X12341435Y-16202307D02*
X12331911Y-16211831D01*
X12331911Y-16211831D02*
X12312863Y-16221355D01*
X12312863Y-16221355D02*
X12265244Y-16221355D01*
X12265244Y-16221355D02*
X12246197Y-16211831D01*
X12246197Y-16211831D02*
X12236673Y-16202307D01*
X12417625Y-16021355D02*
X12550959Y-16021355D01*
X12550959Y-16021355D02*
X12465244Y-16221355D01*
X12617625Y-16021355D02*
X12617625Y-16059450D01*
X12693816Y-16021355D02*
X12693816Y-16059450D01*
X12989054Y-16297545D02*
X12979530Y-16288021D01*
X12979530Y-16288021D02*
X12960483Y-16259450D01*
X12960483Y-16259450D02*
X12950959Y-16240402D01*
X12950959Y-16240402D02*
X12941435Y-16211831D01*
X12941435Y-16211831D02*
X12931911Y-16164212D01*
X12931911Y-16164212D02*
X12931911Y-16126117D01*
X12931911Y-16126117D02*
X12941435Y-16078497D01*
X12941435Y-16078497D02*
X12950959Y-16049926D01*
X12950959Y-16049926D02*
X12960483Y-16030878D01*
X12960483Y-16030878D02*
X12979530Y-16002307D01*
X12979530Y-16002307D02*
X12989054Y-15992783D01*
X13170006Y-16221355D02*
X13055721Y-16221355D01*
X13112863Y-16221355D02*
X13112863Y-16021355D01*
X13112863Y-16021355D02*
X13093816Y-16049926D01*
X13093816Y-16049926D02*
X13074768Y-16068974D01*
X13074768Y-16068974D02*
X13055721Y-16078497D01*
X13341435Y-16088021D02*
X13341435Y-16221355D01*
X13293816Y-16011831D02*
X13246197Y-16154688D01*
X13246197Y-16154688D02*
X13370006Y-16154688D01*
X13598578Y-16221355D02*
X13598578Y-16021355D01*
X13684292Y-16221355D02*
X13684292Y-16116593D01*
X13684292Y-16116593D02*
X13674768Y-16097545D01*
X13674768Y-16097545D02*
X13655721Y-16088021D01*
X13655721Y-16088021D02*
X13627149Y-16088021D01*
X13627149Y-16088021D02*
X13608102Y-16097545D01*
X13608102Y-16097545D02*
X13598578Y-16107069D01*
X13808102Y-16221355D02*
X13789054Y-16211831D01*
X13789054Y-16211831D02*
X13779530Y-16202307D01*
X13779530Y-16202307D02*
X13770006Y-16183259D01*
X13770006Y-16183259D02*
X13770006Y-16126117D01*
X13770006Y-16126117D02*
X13779530Y-16107069D01*
X13779530Y-16107069D02*
X13789054Y-16097545D01*
X13789054Y-16097545D02*
X13808102Y-16088021D01*
X13808102Y-16088021D02*
X13836673Y-16088021D01*
X13836673Y-16088021D02*
X13855721Y-16097545D01*
X13855721Y-16097545D02*
X13865245Y-16107069D01*
X13865245Y-16107069D02*
X13874768Y-16126117D01*
X13874768Y-16126117D02*
X13874768Y-16183259D01*
X13874768Y-16183259D02*
X13865245Y-16202307D01*
X13865245Y-16202307D02*
X13855721Y-16211831D01*
X13855721Y-16211831D02*
X13836673Y-16221355D01*
X13836673Y-16221355D02*
X13808102Y-16221355D01*
X13989054Y-16221355D02*
X13970006Y-16211831D01*
X13970006Y-16211831D02*
X13960483Y-16192783D01*
X13960483Y-16192783D02*
X13960483Y-16021355D01*
X14141435Y-16211831D02*
X14122387Y-16221355D01*
X14122387Y-16221355D02*
X14084292Y-16221355D01*
X14084292Y-16221355D02*
X14065245Y-16211831D01*
X14065245Y-16211831D02*
X14055721Y-16192783D01*
X14055721Y-16192783D02*
X14055721Y-16116593D01*
X14055721Y-16116593D02*
X14065245Y-16097545D01*
X14065245Y-16097545D02*
X14084292Y-16088021D01*
X14084292Y-16088021D02*
X14122387Y-16088021D01*
X14122387Y-16088021D02*
X14141435Y-16097545D01*
X14141435Y-16097545D02*
X14150959Y-16116593D01*
X14150959Y-16116593D02*
X14150959Y-16135640D01*
X14150959Y-16135640D02*
X14055721Y-16154688D01*
X14227149Y-16211831D02*
X14246197Y-16221355D01*
X14246197Y-16221355D02*
X14284292Y-16221355D01*
X14284292Y-16221355D02*
X14303340Y-16211831D01*
X14303340Y-16211831D02*
X14312864Y-16192783D01*
X14312864Y-16192783D02*
X14312864Y-16183259D01*
X14312864Y-16183259D02*
X14303340Y-16164212D01*
X14303340Y-16164212D02*
X14284292Y-16154688D01*
X14284292Y-16154688D02*
X14255721Y-16154688D01*
X14255721Y-16154688D02*
X14236673Y-16145164D01*
X14236673Y-16145164D02*
X14227149Y-16126117D01*
X14227149Y-16126117D02*
X14227149Y-16116593D01*
X14227149Y-16116593D02*
X14236673Y-16097545D01*
X14236673Y-16097545D02*
X14255721Y-16088021D01*
X14255721Y-16088021D02*
X14284292Y-16088021D01*
X14284292Y-16088021D02*
X14303340Y-16097545D01*
X14379530Y-16297545D02*
X14389054Y-16288021D01*
X14389054Y-16288021D02*
X14408102Y-16259450D01*
X14408102Y-16259450D02*
X14417626Y-16240402D01*
X14417626Y-16240402D02*
X14427149Y-16211831D01*
X14427149Y-16211831D02*
X14436673Y-16164212D01*
X14436673Y-16164212D02*
X14436673Y-16126117D01*
X14436673Y-16126117D02*
X14427149Y-16078497D01*
X14427149Y-16078497D02*
X14417626Y-16049926D01*
X14417626Y-16049926D02*
X14408102Y-16030878D01*
X14408102Y-16030878D02*
X14389054Y-16002307D01*
X14389054Y-16002307D02*
X14379530Y-15992783D01*
D12*
X9413991Y-16393871D02*
G75*
G02*
X9313991Y-16393871I-50000J0D01*
G01*
X9313991Y-16393871D02*
G75*
G02*
X9413991Y-16393871I50000J0D01*
G01*
D11*
X9779530Y-16485355D02*
X9665244Y-16485355D01*
X9722387Y-16485355D02*
X9722387Y-16285355D01*
X9722387Y-16285355D02*
X9703339Y-16313926D01*
X9703339Y-16313926D02*
X9684292Y-16332974D01*
X9684292Y-16332974D02*
X9665244Y-16342497D01*
X9865244Y-16466307D02*
X9874768Y-16475831D01*
X9874768Y-16475831D02*
X9865244Y-16485355D01*
X9865244Y-16485355D02*
X9855720Y-16475831D01*
X9855720Y-16475831D02*
X9865244Y-16466307D01*
X9865244Y-16466307D02*
X9865244Y-16485355D01*
X9998578Y-16285355D02*
X10017625Y-16285355D01*
X10017625Y-16285355D02*
X10036673Y-16294878D01*
X10036673Y-16294878D02*
X10046197Y-16304402D01*
X10046197Y-16304402D02*
X10055720Y-16323450D01*
X10055720Y-16323450D02*
X10065244Y-16361545D01*
X10065244Y-16361545D02*
X10065244Y-16409164D01*
X10065244Y-16409164D02*
X10055720Y-16447259D01*
X10055720Y-16447259D02*
X10046197Y-16466307D01*
X10046197Y-16466307D02*
X10036673Y-16475831D01*
X10036673Y-16475831D02*
X10017625Y-16485355D01*
X10017625Y-16485355D02*
X9998578Y-16485355D01*
X9998578Y-16485355D02*
X9979530Y-16475831D01*
X9979530Y-16475831D02*
X9970006Y-16466307D01*
X9970006Y-16466307D02*
X9960482Y-16447259D01*
X9960482Y-16447259D02*
X9950959Y-16409164D01*
X9950959Y-16409164D02*
X9950959Y-16361545D01*
X9950959Y-16361545D02*
X9960482Y-16323450D01*
X9960482Y-16323450D02*
X9970006Y-16304402D01*
X9970006Y-16304402D02*
X9979530Y-16294878D01*
X9979530Y-16294878D02*
X9998578Y-16285355D01*
X10189054Y-16285355D02*
X10208101Y-16285355D01*
X10208101Y-16285355D02*
X10227149Y-16294878D01*
X10227149Y-16294878D02*
X10236673Y-16304402D01*
X10236673Y-16304402D02*
X10246197Y-16323450D01*
X10246197Y-16323450D02*
X10255720Y-16361545D01*
X10255720Y-16361545D02*
X10255720Y-16409164D01*
X10255720Y-16409164D02*
X10246197Y-16447259D01*
X10246197Y-16447259D02*
X10236673Y-16466307D01*
X10236673Y-16466307D02*
X10227149Y-16475831D01*
X10227149Y-16475831D02*
X10208101Y-16485355D01*
X10208101Y-16485355D02*
X10189054Y-16485355D01*
X10189054Y-16485355D02*
X10170006Y-16475831D01*
X10170006Y-16475831D02*
X10160482Y-16466307D01*
X10160482Y-16466307D02*
X10150959Y-16447259D01*
X10150959Y-16447259D02*
X10141435Y-16409164D01*
X10141435Y-16409164D02*
X10141435Y-16361545D01*
X10141435Y-16361545D02*
X10150959Y-16323450D01*
X10150959Y-16323450D02*
X10160482Y-16304402D01*
X10160482Y-16304402D02*
X10170006Y-16294878D01*
X10170006Y-16294878D02*
X10189054Y-16285355D01*
X10379530Y-16285355D02*
X10398578Y-16285355D01*
X10398578Y-16285355D02*
X10417625Y-16294878D01*
X10417625Y-16294878D02*
X10427149Y-16304402D01*
X10427149Y-16304402D02*
X10436673Y-16323450D01*
X10436673Y-16323450D02*
X10446197Y-16361545D01*
X10446197Y-16361545D02*
X10446197Y-16409164D01*
X10446197Y-16409164D02*
X10436673Y-16447259D01*
X10436673Y-16447259D02*
X10427149Y-16466307D01*
X10427149Y-16466307D02*
X10417625Y-16475831D01*
X10417625Y-16475831D02*
X10398578Y-16485355D01*
X10398578Y-16485355D02*
X10379530Y-16485355D01*
X10379530Y-16485355D02*
X10360482Y-16475831D01*
X10360482Y-16475831D02*
X10350959Y-16466307D01*
X10350959Y-16466307D02*
X10341435Y-16447259D01*
X10341435Y-16447259D02*
X10331911Y-16409164D01*
X10331911Y-16409164D02*
X10331911Y-16361545D01*
X10331911Y-16361545D02*
X10341435Y-16323450D01*
X10341435Y-16323450D02*
X10350959Y-16304402D01*
X10350959Y-16304402D02*
X10360482Y-16294878D01*
X10360482Y-16294878D02*
X10379530Y-16285355D01*
X10531911Y-16485355D02*
X10531911Y-16352021D01*
X10531911Y-16371069D02*
X10541435Y-16361545D01*
X10541435Y-16361545D02*
X10560482Y-16352021D01*
X10560482Y-16352021D02*
X10589054Y-16352021D01*
X10589054Y-16352021D02*
X10608101Y-16361545D01*
X10608101Y-16361545D02*
X10617625Y-16380593D01*
X10617625Y-16380593D02*
X10617625Y-16485355D01*
X10617625Y-16380593D02*
X10627149Y-16361545D01*
X10627149Y-16361545D02*
X10646197Y-16352021D01*
X10646197Y-16352021D02*
X10674768Y-16352021D01*
X10674768Y-16352021D02*
X10693816Y-16361545D01*
X10693816Y-16361545D02*
X10703340Y-16380593D01*
X10703340Y-16380593D02*
X10703340Y-16485355D01*
X10798578Y-16485355D02*
X10798578Y-16352021D01*
X10798578Y-16371069D02*
X10808101Y-16361545D01*
X10808101Y-16361545D02*
X10827149Y-16352021D01*
X10827149Y-16352021D02*
X10855721Y-16352021D01*
X10855721Y-16352021D02*
X10874768Y-16361545D01*
X10874768Y-16361545D02*
X10884292Y-16380593D01*
X10884292Y-16380593D02*
X10884292Y-16485355D01*
X10884292Y-16380593D02*
X10893816Y-16361545D01*
X10893816Y-16361545D02*
X10912863Y-16352021D01*
X10912863Y-16352021D02*
X10941435Y-16352021D01*
X10941435Y-16352021D02*
X10960482Y-16361545D01*
X10960482Y-16361545D02*
X10970006Y-16380593D01*
X10970006Y-16380593D02*
X10970006Y-16485355D01*
X11360482Y-16275831D02*
X11189054Y-16532974D01*
X11617625Y-16285355D02*
X11636673Y-16285355D01*
X11636673Y-16285355D02*
X11655721Y-16294878D01*
X11655721Y-16294878D02*
X11665244Y-16304402D01*
X11665244Y-16304402D02*
X11674768Y-16323450D01*
X11674768Y-16323450D02*
X11684292Y-16361545D01*
X11684292Y-16361545D02*
X11684292Y-16409164D01*
X11684292Y-16409164D02*
X11674768Y-16447259D01*
X11674768Y-16447259D02*
X11665244Y-16466307D01*
X11665244Y-16466307D02*
X11655721Y-16475831D01*
X11655721Y-16475831D02*
X11636673Y-16485355D01*
X11636673Y-16485355D02*
X11617625Y-16485355D01*
X11617625Y-16485355D02*
X11598578Y-16475831D01*
X11598578Y-16475831D02*
X11589054Y-16466307D01*
X11589054Y-16466307D02*
X11579530Y-16447259D01*
X11579530Y-16447259D02*
X11570006Y-16409164D01*
X11570006Y-16409164D02*
X11570006Y-16361545D01*
X11570006Y-16361545D02*
X11579530Y-16323450D01*
X11579530Y-16323450D02*
X11589054Y-16304402D01*
X11589054Y-16304402D02*
X11598578Y-16294878D01*
X11598578Y-16294878D02*
X11617625Y-16285355D01*
X11770006Y-16466307D02*
X11779530Y-16475831D01*
X11779530Y-16475831D02*
X11770006Y-16485355D01*
X11770006Y-16485355D02*
X11760482Y-16475831D01*
X11760482Y-16475831D02*
X11770006Y-16466307D01*
X11770006Y-16466307D02*
X11770006Y-16485355D01*
X11903340Y-16285355D02*
X11922387Y-16285355D01*
X11922387Y-16285355D02*
X11941435Y-16294878D01*
X11941435Y-16294878D02*
X11950959Y-16304402D01*
X11950959Y-16304402D02*
X11960482Y-16323450D01*
X11960482Y-16323450D02*
X11970006Y-16361545D01*
X11970006Y-16361545D02*
X11970006Y-16409164D01*
X11970006Y-16409164D02*
X11960482Y-16447259D01*
X11960482Y-16447259D02*
X11950959Y-16466307D01*
X11950959Y-16466307D02*
X11941435Y-16475831D01*
X11941435Y-16475831D02*
X11922387Y-16485355D01*
X11922387Y-16485355D02*
X11903340Y-16485355D01*
X11903340Y-16485355D02*
X11884292Y-16475831D01*
X11884292Y-16475831D02*
X11874768Y-16466307D01*
X11874768Y-16466307D02*
X11865244Y-16447259D01*
X11865244Y-16447259D02*
X11855721Y-16409164D01*
X11855721Y-16409164D02*
X11855721Y-16361545D01*
X11855721Y-16361545D02*
X11865244Y-16323450D01*
X11865244Y-16323450D02*
X11874768Y-16304402D01*
X11874768Y-16304402D02*
X11884292Y-16294878D01*
X11884292Y-16294878D02*
X11903340Y-16285355D01*
X12036673Y-16285355D02*
X12160482Y-16285355D01*
X12160482Y-16285355D02*
X12093816Y-16361545D01*
X12093816Y-16361545D02*
X12122387Y-16361545D01*
X12122387Y-16361545D02*
X12141435Y-16371069D01*
X12141435Y-16371069D02*
X12150959Y-16380593D01*
X12150959Y-16380593D02*
X12160482Y-16399640D01*
X12160482Y-16399640D02*
X12160482Y-16447259D01*
X12160482Y-16447259D02*
X12150959Y-16466307D01*
X12150959Y-16466307D02*
X12141435Y-16475831D01*
X12141435Y-16475831D02*
X12122387Y-16485355D01*
X12122387Y-16485355D02*
X12065244Y-16485355D01*
X12065244Y-16485355D02*
X12046197Y-16475831D01*
X12046197Y-16475831D02*
X12036673Y-16466307D01*
X12255721Y-16485355D02*
X12293816Y-16485355D01*
X12293816Y-16485355D02*
X12312863Y-16475831D01*
X12312863Y-16475831D02*
X12322387Y-16466307D01*
X12322387Y-16466307D02*
X12341435Y-16437736D01*
X12341435Y-16437736D02*
X12350959Y-16399640D01*
X12350959Y-16399640D02*
X12350959Y-16323450D01*
X12350959Y-16323450D02*
X12341435Y-16304402D01*
X12341435Y-16304402D02*
X12331911Y-16294878D01*
X12331911Y-16294878D02*
X12312863Y-16285355D01*
X12312863Y-16285355D02*
X12274768Y-16285355D01*
X12274768Y-16285355D02*
X12255721Y-16294878D01*
X12255721Y-16294878D02*
X12246197Y-16304402D01*
X12246197Y-16304402D02*
X12236673Y-16323450D01*
X12236673Y-16323450D02*
X12236673Y-16371069D01*
X12236673Y-16371069D02*
X12246197Y-16390117D01*
X12246197Y-16390117D02*
X12255721Y-16399640D01*
X12255721Y-16399640D02*
X12274768Y-16409164D01*
X12274768Y-16409164D02*
X12312863Y-16409164D01*
X12312863Y-16409164D02*
X12331911Y-16399640D01*
X12331911Y-16399640D02*
X12341435Y-16390117D01*
X12341435Y-16390117D02*
X12350959Y-16371069D01*
X12522387Y-16352021D02*
X12522387Y-16485355D01*
X12474768Y-16275831D02*
X12427149Y-16418688D01*
X12427149Y-16418688D02*
X12550959Y-16418688D01*
X12617625Y-16285355D02*
X12617625Y-16323450D01*
X12693816Y-16285355D02*
X12693816Y-16323450D01*
X12989054Y-16561545D02*
X12979530Y-16552021D01*
X12979530Y-16552021D02*
X12960483Y-16523450D01*
X12960483Y-16523450D02*
X12950959Y-16504402D01*
X12950959Y-16504402D02*
X12941435Y-16475831D01*
X12941435Y-16475831D02*
X12931911Y-16428212D01*
X12931911Y-16428212D02*
X12931911Y-16390117D01*
X12931911Y-16390117D02*
X12941435Y-16342497D01*
X12941435Y-16342497D02*
X12950959Y-16313926D01*
X12950959Y-16313926D02*
X12960483Y-16294878D01*
X12960483Y-16294878D02*
X12979530Y-16266307D01*
X12979530Y-16266307D02*
X12989054Y-16256783D01*
X13055721Y-16304402D02*
X13065244Y-16294878D01*
X13065244Y-16294878D02*
X13084292Y-16285355D01*
X13084292Y-16285355D02*
X13131911Y-16285355D01*
X13131911Y-16285355D02*
X13150959Y-16294878D01*
X13150959Y-16294878D02*
X13160483Y-16304402D01*
X13160483Y-16304402D02*
X13170006Y-16323450D01*
X13170006Y-16323450D02*
X13170006Y-16342497D01*
X13170006Y-16342497D02*
X13160483Y-16371069D01*
X13160483Y-16371069D02*
X13046197Y-16485355D01*
X13046197Y-16485355D02*
X13170006Y-16485355D01*
X13350959Y-16285355D02*
X13255721Y-16285355D01*
X13255721Y-16285355D02*
X13246197Y-16380593D01*
X13246197Y-16380593D02*
X13255721Y-16371069D01*
X13255721Y-16371069D02*
X13274768Y-16361545D01*
X13274768Y-16361545D02*
X13322387Y-16361545D01*
X13322387Y-16361545D02*
X13341435Y-16371069D01*
X13341435Y-16371069D02*
X13350959Y-16380593D01*
X13350959Y-16380593D02*
X13360483Y-16399640D01*
X13360483Y-16399640D02*
X13360483Y-16447259D01*
X13360483Y-16447259D02*
X13350959Y-16466307D01*
X13350959Y-16466307D02*
X13341435Y-16475831D01*
X13341435Y-16475831D02*
X13322387Y-16485355D01*
X13322387Y-16485355D02*
X13274768Y-16485355D01*
X13274768Y-16485355D02*
X13255721Y-16475831D01*
X13255721Y-16475831D02*
X13246197Y-16466307D01*
X13598578Y-16485355D02*
X13598578Y-16285355D01*
X13684292Y-16485355D02*
X13684292Y-16380593D01*
X13684292Y-16380593D02*
X13674768Y-16361545D01*
X13674768Y-16361545D02*
X13655721Y-16352021D01*
X13655721Y-16352021D02*
X13627149Y-16352021D01*
X13627149Y-16352021D02*
X13608102Y-16361545D01*
X13608102Y-16361545D02*
X13598578Y-16371069D01*
X13808102Y-16485355D02*
X13789054Y-16475831D01*
X13789054Y-16475831D02*
X13779530Y-16466307D01*
X13779530Y-16466307D02*
X13770006Y-16447259D01*
X13770006Y-16447259D02*
X13770006Y-16390117D01*
X13770006Y-16390117D02*
X13779530Y-16371069D01*
X13779530Y-16371069D02*
X13789054Y-16361545D01*
X13789054Y-16361545D02*
X13808102Y-16352021D01*
X13808102Y-16352021D02*
X13836673Y-16352021D01*
X13836673Y-16352021D02*
X13855721Y-16361545D01*
X13855721Y-16361545D02*
X13865245Y-16371069D01*
X13865245Y-16371069D02*
X13874768Y-16390117D01*
X13874768Y-16390117D02*
X13874768Y-16447259D01*
X13874768Y-16447259D02*
X13865245Y-16466307D01*
X13865245Y-16466307D02*
X13855721Y-16475831D01*
X13855721Y-16475831D02*
X13836673Y-16485355D01*
X13836673Y-16485355D02*
X13808102Y-16485355D01*
X13989054Y-16485355D02*
X13970006Y-16475831D01*
X13970006Y-16475831D02*
X13960483Y-16456783D01*
X13960483Y-16456783D02*
X13960483Y-16285355D01*
X14141435Y-16475831D02*
X14122387Y-16485355D01*
X14122387Y-16485355D02*
X14084292Y-16485355D01*
X14084292Y-16485355D02*
X14065245Y-16475831D01*
X14065245Y-16475831D02*
X14055721Y-16456783D01*
X14055721Y-16456783D02*
X14055721Y-16380593D01*
X14055721Y-16380593D02*
X14065245Y-16361545D01*
X14065245Y-16361545D02*
X14084292Y-16352021D01*
X14084292Y-16352021D02*
X14122387Y-16352021D01*
X14122387Y-16352021D02*
X14141435Y-16361545D01*
X14141435Y-16361545D02*
X14150959Y-16380593D01*
X14150959Y-16380593D02*
X14150959Y-16399640D01*
X14150959Y-16399640D02*
X14055721Y-16418688D01*
X14227149Y-16475831D02*
X14246197Y-16485355D01*
X14246197Y-16485355D02*
X14284292Y-16485355D01*
X14284292Y-16485355D02*
X14303340Y-16475831D01*
X14303340Y-16475831D02*
X14312864Y-16456783D01*
X14312864Y-16456783D02*
X14312864Y-16447259D01*
X14312864Y-16447259D02*
X14303340Y-16428212D01*
X14303340Y-16428212D02*
X14284292Y-16418688D01*
X14284292Y-16418688D02*
X14255721Y-16418688D01*
X14255721Y-16418688D02*
X14236673Y-16409164D01*
X14236673Y-16409164D02*
X14227149Y-16390117D01*
X14227149Y-16390117D02*
X14227149Y-16380593D01*
X14227149Y-16380593D02*
X14236673Y-16361545D01*
X14236673Y-16361545D02*
X14255721Y-16352021D01*
X14255721Y-16352021D02*
X14284292Y-16352021D01*
X14284292Y-16352021D02*
X14303340Y-16361545D01*
X14379530Y-16561545D02*
X14389054Y-16552021D01*
X14389054Y-16552021D02*
X14408102Y-16523450D01*
X14408102Y-16523450D02*
X14417626Y-16504402D01*
X14417626Y-16504402D02*
X14427149Y-16475831D01*
X14427149Y-16475831D02*
X14436673Y-16428212D01*
X14436673Y-16428212D02*
X14436673Y-16390117D01*
X14436673Y-16390117D02*
X14427149Y-16342497D01*
X14427149Y-16342497D02*
X14417626Y-16313926D01*
X14417626Y-16313926D02*
X14408102Y-16294878D01*
X14408102Y-16294878D02*
X14389054Y-16266307D01*
X14389054Y-16266307D02*
X14379530Y-16256783D01*
M02*
