G04 #@! TF.GenerationSoftware,KiCad,Pcbnew,9.0.6*
G04 #@! TF.CreationDate,2026-05-21T01:05:58+05:30*
G04 #@! TF.ProjectId,Arduino Hive,41726475-696e-46f2-9048-6976652e6b69,1*
G04 #@! TF.SameCoordinates,Original*
G04 #@! TF.FileFunction,Legend,Top*
G04 #@! TF.FilePolarity,Positive*
%FSLAX46Y46*%
G04 Gerber Fmt 4.6, Leading zero omitted, Abs format (unit mm)*
G04 Created by KiCad (PCBNEW 9.0.6) date 2026-05-21 01:05:58*
%MOMM*%
%LPD*%
G01*
G04 APERTURE LIST*
%ADD10C,0.300000*%
%ADD11C,0.150000*%
%ADD12C,0.120000*%
%ADD13C,0.100000*%
G04 APERTURE END LIST*
D10*
G36*
X117830625Y-148503361D02*
G01*
X117931232Y-148603968D01*
X117984411Y-148710327D01*
X118047367Y-148962148D01*
X118047367Y-149139507D01*
X117984411Y-149391328D01*
X117931232Y-149497688D01*
X117830626Y-149598294D01*
X117673024Y-149650828D01*
X117490224Y-149650828D01*
X117490224Y-148450828D01*
X117673027Y-148450828D01*
X117830625Y-148503361D01*
G37*
G36*
X123322800Y-148495535D02*
G01*
X123419066Y-148591801D01*
X123475940Y-148819292D01*
X123475940Y-149282363D01*
X123419066Y-149509854D01*
X123322799Y-149606122D01*
X123233387Y-149650828D01*
X123018493Y-149650828D01*
X122929079Y-149606121D01*
X122832812Y-149509854D01*
X122775940Y-149282364D01*
X122775940Y-148819291D01*
X122832812Y-148591802D01*
X122929079Y-148495534D01*
X123018493Y-148450828D01*
X123233387Y-148450828D01*
X123322800Y-148495535D01*
G37*
G36*
X116465657Y-148495535D02*
G01*
X116502661Y-148532539D01*
X116547367Y-148621951D01*
X116547367Y-148765418D01*
X116502660Y-148854831D01*
X116465655Y-148891836D01*
X116376243Y-148936542D01*
X115990224Y-148936542D01*
X115990224Y-148450828D01*
X116376243Y-148450828D01*
X116465657Y-148495535D01*
G37*
G36*
X114989255Y-149222257D02*
G01*
X114691196Y-149222257D01*
X114840225Y-148775169D01*
X114989255Y-149222257D01*
G37*
G36*
X130011154Y-150117495D02*
G01*
X114024736Y-150117495D01*
X114024736Y-149782067D01*
X114191403Y-149782067D01*
X114195552Y-149840448D01*
X114221726Y-149892795D01*
X114265940Y-149931142D01*
X114321464Y-149949650D01*
X114379845Y-149945501D01*
X114432192Y-149919327D01*
X114470539Y-149875113D01*
X114482527Y-149848262D01*
X114591196Y-149522257D01*
X115089255Y-149522257D01*
X115197923Y-149848262D01*
X115209911Y-149875113D01*
X115248258Y-149919328D01*
X115300606Y-149945501D01*
X115358986Y-149949651D01*
X115414510Y-149931142D01*
X115458724Y-149892795D01*
X115484898Y-149840448D01*
X115489048Y-149782068D01*
X115482528Y-149753394D01*
X114998338Y-148300828D01*
X115690224Y-148300828D01*
X115690224Y-149800828D01*
X115693106Y-149830092D01*
X115715504Y-149884164D01*
X115756888Y-149925548D01*
X115810960Y-149947946D01*
X115869488Y-149947946D01*
X115923560Y-149925548D01*
X115964944Y-149884164D01*
X115987342Y-149830092D01*
X115990224Y-149800828D01*
X115990224Y-149236542D01*
X116119269Y-149236542D01*
X116574482Y-149886847D01*
X116593625Y-149909169D01*
X116642982Y-149940622D01*
X116700618Y-149950793D01*
X116757760Y-149938134D01*
X116805708Y-149904570D01*
X116837161Y-149855213D01*
X116847332Y-149797577D01*
X116834673Y-149740435D01*
X116820252Y-149714809D01*
X116475300Y-149222020D01*
X116478735Y-149220706D01*
X116621592Y-149149278D01*
X116634185Y-149141350D01*
X116637845Y-149139835D01*
X116641964Y-149136453D01*
X116646478Y-149133613D01*
X116649074Y-149130619D01*
X116660576Y-149121180D01*
X116732005Y-149049751D01*
X116741446Y-149038246D01*
X116744438Y-149035652D01*
X116747276Y-149031142D01*
X116750660Y-149027020D01*
X116752176Y-149023358D01*
X116760103Y-149010767D01*
X116831531Y-148867909D01*
X116842041Y-148840446D01*
X116842422Y-148835070D01*
X116844485Y-148830092D01*
X116847367Y-148800828D01*
X116847367Y-148586542D01*
X116844485Y-148557278D01*
X116842422Y-148552299D01*
X116842041Y-148546924D01*
X116831531Y-148519461D01*
X116760103Y-148376603D01*
X116752174Y-148364008D01*
X116750659Y-148360349D01*
X116747277Y-148356228D01*
X116744438Y-148351718D01*
X116741446Y-148349123D01*
X116732004Y-148337618D01*
X116695213Y-148300828D01*
X117190224Y-148300828D01*
X117190224Y-149800828D01*
X117193106Y-149830092D01*
X117215504Y-149884164D01*
X117256888Y-149925548D01*
X117310960Y-149947946D01*
X117340224Y-149950828D01*
X117697367Y-149950828D01*
X117712172Y-149949369D01*
X117716127Y-149949651D01*
X117721328Y-149948468D01*
X117726631Y-149947946D01*
X117730288Y-149946430D01*
X117744801Y-149943131D01*
X117959087Y-149871703D01*
X117985938Y-149859715D01*
X117990009Y-149856183D01*
X117994989Y-149854121D01*
X118017719Y-149835466D01*
X118160576Y-149692608D01*
X118170014Y-149681106D01*
X118173009Y-149678510D01*
X118175849Y-149673996D01*
X118179231Y-149669877D01*
X118180746Y-149666217D01*
X118188674Y-149653624D01*
X118260103Y-149510768D01*
X118260922Y-149508625D01*
X118261567Y-149507756D01*
X118265951Y-149495484D01*
X118270612Y-149483304D01*
X118270688Y-149482223D01*
X118271460Y-149480065D01*
X118342888Y-149194351D01*
X118343637Y-149189279D01*
X118344485Y-149187235D01*
X118345570Y-149176212D01*
X118347190Y-149165262D01*
X118346864Y-149163074D01*
X118347367Y-149157971D01*
X118347367Y-148943685D01*
X118346864Y-148938581D01*
X118347190Y-148936394D01*
X118345570Y-148925443D01*
X118344485Y-148914421D01*
X118343637Y-148912376D01*
X118342888Y-148907305D01*
X118271460Y-148621591D01*
X118270688Y-148619432D01*
X118270612Y-148618352D01*
X118265951Y-148606171D01*
X118261567Y-148593900D01*
X118260922Y-148593030D01*
X118260103Y-148590888D01*
X118188674Y-148448032D01*
X118180747Y-148435440D01*
X118179231Y-148431778D01*
X118175847Y-148427655D01*
X118173009Y-148423146D01*
X118170016Y-148420550D01*
X118160576Y-148409048D01*
X118052356Y-148300828D01*
X118690224Y-148300828D01*
X118690224Y-149515114D01*
X118693106Y-149544378D01*
X118695169Y-149549358D01*
X118695551Y-149554733D01*
X118706060Y-149582196D01*
X118777489Y-149725053D01*
X118785416Y-149737646D01*
X118786932Y-149741306D01*
X118790313Y-149745425D01*
X118793154Y-149749939D01*
X118796147Y-149752535D01*
X118805587Y-149764037D01*
X118877016Y-149835466D01*
X118888520Y-149844907D01*
X118891115Y-149847899D01*
X118895624Y-149850737D01*
X118899747Y-149854121D01*
X118903408Y-149855637D01*
X118916000Y-149863564D01*
X119058858Y-149934992D01*
X119086321Y-149945502D01*
X119091696Y-149945883D01*
X119096675Y-149947946D01*
X119125939Y-149950828D01*
X119411653Y-149950828D01*
X119440917Y-149947946D01*
X119445895Y-149945883D01*
X119451271Y-149945502D01*
X119478735Y-149934992D01*
X119621592Y-149863564D01*
X119634185Y-149855636D01*
X119637845Y-149854121D01*
X119641964Y-149850739D01*
X119646478Y-149847899D01*
X119649074Y-149844905D01*
X119660576Y-149835466D01*
X119732005Y-149764037D01*
X119741446Y-149752532D01*
X119744438Y-149749938D01*
X119747276Y-149745428D01*
X119750660Y-149741306D01*
X119752176Y-149737644D01*
X119760103Y-149725053D01*
X119831531Y-149582195D01*
X119842041Y-149554732D01*
X119842422Y-149549356D01*
X119844485Y-149544378D01*
X119847367Y-149515114D01*
X119847367Y-148300828D01*
X120261653Y-148300828D01*
X120261653Y-149800828D01*
X120264535Y-149830092D01*
X120286933Y-149884164D01*
X120328317Y-149925548D01*
X120382389Y-149947946D01*
X120440917Y-149947946D01*
X120494989Y-149925548D01*
X120536373Y-149884164D01*
X120558771Y-149830092D01*
X120561653Y-149800828D01*
X120561653Y-148300828D01*
X120975939Y-148300828D01*
X120975939Y-149800828D01*
X120978821Y-149830092D01*
X121001219Y-149884164D01*
X121042603Y-149925548D01*
X121096675Y-149947946D01*
X121155203Y-149947946D01*
X121209275Y-149925548D01*
X121250659Y-149884164D01*
X121273057Y-149830092D01*
X121275939Y-149800828D01*
X121275939Y-148865661D01*
X121852846Y-149875249D01*
X121857223Y-149881416D01*
X121858362Y-149884164D01*
X121861161Y-149886963D01*
X121869867Y-149899227D01*
X121885640Y-149911442D01*
X121899746Y-149925548D01*
X121908579Y-149929206D01*
X121916141Y-149935063D01*
X121935389Y-149940312D01*
X121953818Y-149947946D01*
X121963380Y-149947946D01*
X121972605Y-149950462D01*
X121992396Y-149947946D01*
X122012346Y-149947946D01*
X122021179Y-149944286D01*
X122030665Y-149943081D01*
X122047987Y-149933182D01*
X122066418Y-149925548D01*
X122073178Y-149918787D01*
X122081481Y-149914043D01*
X122093694Y-149898271D01*
X122107802Y-149884164D01*
X122111461Y-149875328D01*
X122117316Y-149867769D01*
X122122564Y-149848524D01*
X122130200Y-149830092D01*
X122131673Y-149815127D01*
X122132716Y-149811306D01*
X122132340Y-149808354D01*
X122133082Y-149800828D01*
X122133082Y-148800828D01*
X122475940Y-148800828D01*
X122475940Y-149300828D01*
X122476442Y-149305931D01*
X122476117Y-149308119D01*
X122477736Y-149319069D01*
X122478822Y-149330092D01*
X122479669Y-149332136D01*
X122480419Y-149337208D01*
X122551847Y-149622922D01*
X122561740Y-149650613D01*
X122568379Y-149659573D01*
X122572647Y-149669877D01*
X122591302Y-149692608D01*
X122734160Y-149835466D01*
X122745664Y-149844907D01*
X122748259Y-149847899D01*
X122752768Y-149850737D01*
X122756891Y-149854121D01*
X122760552Y-149855637D01*
X122773144Y-149863564D01*
X122916002Y-149934992D01*
X122943465Y-149945502D01*
X122948840Y-149945883D01*
X122953819Y-149947946D01*
X122983083Y-149950828D01*
X123268797Y-149950828D01*
X123298061Y-149947946D01*
X123303039Y-149945883D01*
X123308415Y-149945502D01*
X123335879Y-149934992D01*
X123478736Y-149863564D01*
X123491327Y-149855637D01*
X123494990Y-149854121D01*
X123499112Y-149850737D01*
X123503622Y-149847899D01*
X123506217Y-149844906D01*
X123517720Y-149835466D01*
X123660577Y-149692608D01*
X123679232Y-149669877D01*
X123683498Y-149659575D01*
X123690139Y-149650614D01*
X123700032Y-149622923D01*
X123771461Y-149337209D01*
X123772211Y-149332136D01*
X123773058Y-149330092D01*
X123774143Y-149319072D01*
X123775763Y-149308120D01*
X123775437Y-149305931D01*
X123775940Y-149300828D01*
X123775940Y-148800828D01*
X123775437Y-148795724D01*
X123775763Y-148793536D01*
X123774143Y-148782583D01*
X123773058Y-148771564D01*
X123772211Y-148769519D01*
X123771461Y-148764447D01*
X123700032Y-148478733D01*
X123690139Y-148451042D01*
X123683499Y-148442081D01*
X123679232Y-148431778D01*
X123660577Y-148409048D01*
X123552357Y-148300828D01*
X125261654Y-148300828D01*
X125261654Y-149800828D01*
X125264536Y-149830092D01*
X125286934Y-149884164D01*
X125328318Y-149925548D01*
X125382390Y-149947946D01*
X125440918Y-149947946D01*
X125494990Y-149925548D01*
X125536374Y-149884164D01*
X125558772Y-149830092D01*
X125561654Y-149800828D01*
X125561654Y-149165114D01*
X126118797Y-149165114D01*
X126118797Y-149800828D01*
X126121679Y-149830092D01*
X126144077Y-149884164D01*
X126185461Y-149925548D01*
X126239533Y-149947946D01*
X126298061Y-149947946D01*
X126352133Y-149925548D01*
X126393517Y-149884164D01*
X126415915Y-149830092D01*
X126418797Y-149800828D01*
X126418797Y-148300828D01*
X126833083Y-148300828D01*
X126833083Y-149800828D01*
X126835965Y-149830092D01*
X126858363Y-149884164D01*
X126899747Y-149925548D01*
X126953819Y-149947946D01*
X127012347Y-149947946D01*
X127066419Y-149925548D01*
X127107803Y-149884164D01*
X127130201Y-149830092D01*
X127133083Y-149800828D01*
X127133083Y-148319589D01*
X127334262Y-148319589D01*
X127340782Y-148348262D01*
X127840782Y-149848262D01*
X127852770Y-149875113D01*
X127859792Y-149883210D01*
X127864585Y-149892795D01*
X127878791Y-149905116D01*
X127891117Y-149919328D01*
X127900704Y-149924121D01*
X127908799Y-149931142D01*
X127926641Y-149937089D01*
X127943465Y-149945501D01*
X127954155Y-149946260D01*
X127964323Y-149949650D01*
X127983079Y-149948317D01*
X128001845Y-149949651D01*
X128012015Y-149946260D01*
X128022704Y-149945501D01*
X128039525Y-149937090D01*
X128057369Y-149931142D01*
X128065465Y-149924119D01*
X128075051Y-149919327D01*
X128087374Y-149905118D01*
X128101583Y-149892795D01*
X128106375Y-149883209D01*
X128113398Y-149875113D01*
X128125386Y-149848262D01*
X128625387Y-148348262D01*
X128631907Y-148319588D01*
X128630573Y-148300828D01*
X128833083Y-148300828D01*
X128833083Y-149800828D01*
X128835965Y-149830092D01*
X128858363Y-149884164D01*
X128899747Y-149925548D01*
X128953819Y-149947946D01*
X128983083Y-149950828D01*
X129697369Y-149950828D01*
X129726633Y-149947946D01*
X129780705Y-149925548D01*
X129822089Y-149884164D01*
X129844487Y-149830092D01*
X129844487Y-149771564D01*
X129822089Y-149717492D01*
X129780705Y-149676108D01*
X129726633Y-149653710D01*
X129697369Y-149650828D01*
X129133083Y-149650828D01*
X129133083Y-149165114D01*
X129483083Y-149165114D01*
X129512347Y-149162232D01*
X129566419Y-149139834D01*
X129607803Y-149098450D01*
X129630201Y-149044378D01*
X129630201Y-148985850D01*
X129607803Y-148931778D01*
X129566419Y-148890394D01*
X129512347Y-148867996D01*
X129483083Y-148865114D01*
X129133083Y-148865114D01*
X129133083Y-148450828D01*
X129697369Y-148450828D01*
X129726633Y-148447946D01*
X129780705Y-148425548D01*
X129822089Y-148384164D01*
X129844487Y-148330092D01*
X129844487Y-148271564D01*
X129822089Y-148217492D01*
X129780705Y-148176108D01*
X129726633Y-148153710D01*
X129697369Y-148150828D01*
X128983083Y-148150828D01*
X128953819Y-148153710D01*
X128899747Y-148176108D01*
X128858363Y-148217492D01*
X128835965Y-148271564D01*
X128833083Y-148300828D01*
X128630573Y-148300828D01*
X128627757Y-148261208D01*
X128601583Y-148208861D01*
X128557369Y-148170514D01*
X128501845Y-148152005D01*
X128443465Y-148156155D01*
X128391117Y-148182328D01*
X128352770Y-148226543D01*
X128340782Y-148253394D01*
X127983084Y-149326486D01*
X127625386Y-148253394D01*
X127613398Y-148226543D01*
X127575051Y-148182329D01*
X127522704Y-148156155D01*
X127464323Y-148152006D01*
X127408799Y-148170514D01*
X127364585Y-148208861D01*
X127338411Y-148261208D01*
X127334262Y-148319589D01*
X127133083Y-148319589D01*
X127133083Y-148300828D01*
X127130201Y-148271564D01*
X127107803Y-148217492D01*
X127066419Y-148176108D01*
X127012347Y-148153710D01*
X126953819Y-148153710D01*
X126899747Y-148176108D01*
X126858363Y-148217492D01*
X126835965Y-148271564D01*
X126833083Y-148300828D01*
X126418797Y-148300828D01*
X126415915Y-148271564D01*
X126393517Y-148217492D01*
X126352133Y-148176108D01*
X126298061Y-148153710D01*
X126239533Y-148153710D01*
X126185461Y-148176108D01*
X126144077Y-148217492D01*
X126121679Y-148271564D01*
X126118797Y-148300828D01*
X126118797Y-148865114D01*
X125561654Y-148865114D01*
X125561654Y-148300828D01*
X125558772Y-148271564D01*
X125536374Y-148217492D01*
X125494990Y-148176108D01*
X125440918Y-148153710D01*
X125382390Y-148153710D01*
X125328318Y-148176108D01*
X125286934Y-148217492D01*
X125264536Y-148271564D01*
X125261654Y-148300828D01*
X123552357Y-148300828D01*
X123517720Y-148266191D01*
X123506218Y-148256751D01*
X123503622Y-148253758D01*
X123499108Y-148250917D01*
X123494989Y-148247536D01*
X123491329Y-148246020D01*
X123478736Y-148238093D01*
X123335879Y-148166664D01*
X123308416Y-148156155D01*
X123303041Y-148155773D01*
X123298061Y-148153710D01*
X123268797Y-148150828D01*
X122983083Y-148150828D01*
X122953819Y-148153710D01*
X122948838Y-148155773D01*
X122943464Y-148156155D01*
X122916000Y-148166664D01*
X122773144Y-148238093D01*
X122760550Y-148246020D01*
X122756891Y-148247536D01*
X122752771Y-148250917D01*
X122748258Y-148253758D01*
X122745661Y-148256752D01*
X122734160Y-148266191D01*
X122591302Y-148409048D01*
X122572647Y-148431778D01*
X122568378Y-148442083D01*
X122561740Y-148451043D01*
X122551847Y-148478734D01*
X122480419Y-148764448D01*
X122479669Y-148769519D01*
X122478822Y-148771564D01*
X122477736Y-148782586D01*
X122476117Y-148793537D01*
X122476442Y-148795724D01*
X122475940Y-148800828D01*
X122133082Y-148800828D01*
X122133082Y-148300828D01*
X122130200Y-148271564D01*
X122107802Y-148217492D01*
X122066418Y-148176108D01*
X122012346Y-148153710D01*
X121953818Y-148153710D01*
X121899746Y-148176108D01*
X121858362Y-148217492D01*
X121835964Y-148271564D01*
X121833082Y-148300828D01*
X121833082Y-149235992D01*
X121256175Y-148226407D01*
X121251797Y-148220239D01*
X121250659Y-148217492D01*
X121247859Y-148214692D01*
X121239154Y-148202429D01*
X121223382Y-148190215D01*
X121209275Y-148176108D01*
X121200439Y-148172448D01*
X121192880Y-148166594D01*
X121173635Y-148161345D01*
X121155203Y-148153710D01*
X121145641Y-148153710D01*
X121136416Y-148151194D01*
X121116625Y-148153710D01*
X121096675Y-148153710D01*
X121087841Y-148157369D01*
X121078356Y-148158575D01*
X121061033Y-148168473D01*
X121042603Y-148176108D01*
X121035842Y-148182868D01*
X121027540Y-148187613D01*
X121015326Y-148203384D01*
X121001219Y-148217492D01*
X120997559Y-148226327D01*
X120991705Y-148233887D01*
X120986456Y-148253131D01*
X120978821Y-148271564D01*
X120977347Y-148286530D01*
X120976305Y-148290351D01*
X120976680Y-148293302D01*
X120975939Y-148300828D01*
X120561653Y-148300828D01*
X120558771Y-148271564D01*
X120536373Y-148217492D01*
X120494989Y-148176108D01*
X120440917Y-148153710D01*
X120382389Y-148153710D01*
X120328317Y-148176108D01*
X120286933Y-148217492D01*
X120264535Y-148271564D01*
X120261653Y-148300828D01*
X119847367Y-148300828D01*
X119844485Y-148271564D01*
X119822087Y-148217492D01*
X119780703Y-148176108D01*
X119726631Y-148153710D01*
X119668103Y-148153710D01*
X119614031Y-148176108D01*
X119572647Y-148217492D01*
X119550249Y-148271564D01*
X119547367Y-148300828D01*
X119547367Y-149479704D01*
X119502660Y-149569117D01*
X119465655Y-149606122D01*
X119376243Y-149650828D01*
X119161349Y-149650828D01*
X119071935Y-149606121D01*
X119034931Y-149569117D01*
X118990224Y-149479703D01*
X118990224Y-148300828D01*
X118987342Y-148271564D01*
X118964944Y-148217492D01*
X118923560Y-148176108D01*
X118869488Y-148153710D01*
X118810960Y-148153710D01*
X118756888Y-148176108D01*
X118715504Y-148217492D01*
X118693106Y-148271564D01*
X118690224Y-148300828D01*
X118052356Y-148300828D01*
X118017719Y-148266191D01*
X117994988Y-148247536D01*
X117990008Y-148245473D01*
X117985938Y-148241943D01*
X117959087Y-148229954D01*
X117744801Y-148158526D01*
X117730293Y-148155227D01*
X117726631Y-148153710D01*
X117721322Y-148153187D01*
X117716128Y-148152006D01*
X117712178Y-148152286D01*
X117697367Y-148150828D01*
X117340224Y-148150828D01*
X117310960Y-148153710D01*
X117256888Y-148176108D01*
X117215504Y-148217492D01*
X117193106Y-148271564D01*
X117190224Y-148300828D01*
X116695213Y-148300828D01*
X116660575Y-148266190D01*
X116649075Y-148256752D01*
X116646478Y-148253758D01*
X116641961Y-148250915D01*
X116637844Y-148247536D01*
X116634187Y-148246021D01*
X116621592Y-148238093D01*
X116478735Y-148166664D01*
X116451272Y-148156155D01*
X116445897Y-148155773D01*
X116440917Y-148153710D01*
X116411653Y-148150828D01*
X115840224Y-148150828D01*
X115810960Y-148153710D01*
X115756888Y-148176108D01*
X115715504Y-148217492D01*
X115693106Y-148271564D01*
X115690224Y-148300828D01*
X114998338Y-148300828D01*
X114982527Y-148253394D01*
X114970539Y-148226543D01*
X114963516Y-148218446D01*
X114958724Y-148208861D01*
X114944515Y-148196537D01*
X114932192Y-148182329D01*
X114922606Y-148177536D01*
X114914510Y-148170514D01*
X114896666Y-148164565D01*
X114879845Y-148156155D01*
X114869156Y-148155395D01*
X114858986Y-148152005D01*
X114840220Y-148153338D01*
X114821464Y-148152006D01*
X114811296Y-148155395D01*
X114800606Y-148156155D01*
X114783782Y-148164566D01*
X114765940Y-148170514D01*
X114757845Y-148177534D01*
X114748258Y-148182328D01*
X114735932Y-148196539D01*
X114721726Y-148208861D01*
X114716933Y-148218445D01*
X114709911Y-148226543D01*
X114697923Y-148253394D01*
X114197923Y-149753394D01*
X114191403Y-149782067D01*
X114024736Y-149782067D01*
X114024736Y-147984161D01*
X130011154Y-147984161D01*
X130011154Y-150117495D01*
G37*
D11*
X96204285Y-123331009D02*
X96347142Y-123378628D01*
X96347142Y-123378628D02*
X96394761Y-123426247D01*
X96394761Y-123426247D02*
X96442380Y-123521485D01*
X96442380Y-123521485D02*
X96442380Y-123664342D01*
X96442380Y-123664342D02*
X96394761Y-123759580D01*
X96394761Y-123759580D02*
X96347142Y-123807200D01*
X96347142Y-123807200D02*
X96251904Y-123854819D01*
X96251904Y-123854819D02*
X95870952Y-123854819D01*
X95870952Y-123854819D02*
X95870952Y-122854819D01*
X95870952Y-122854819D02*
X96204285Y-122854819D01*
X96204285Y-122854819D02*
X96299523Y-122902438D01*
X96299523Y-122902438D02*
X96347142Y-122950057D01*
X96347142Y-122950057D02*
X96394761Y-123045295D01*
X96394761Y-123045295D02*
X96394761Y-123140533D01*
X96394761Y-123140533D02*
X96347142Y-123235771D01*
X96347142Y-123235771D02*
X96299523Y-123283390D01*
X96299523Y-123283390D02*
X96204285Y-123331009D01*
X96204285Y-123331009D02*
X95870952Y-123331009D01*
X96728095Y-122854819D02*
X97299523Y-122854819D01*
X97013809Y-123854819D02*
X97013809Y-122854819D01*
X98156666Y-123854819D02*
X97585238Y-123854819D01*
X97870952Y-123854819D02*
X97870952Y-122854819D01*
X97870952Y-122854819D02*
X97775714Y-122997676D01*
X97775714Y-122997676D02*
X97680476Y-123092914D01*
X97680476Y-123092914D02*
X97585238Y-123140533D01*
X131794580Y-130214666D02*
X131842200Y-130262285D01*
X131842200Y-130262285D02*
X131889819Y-130405142D01*
X131889819Y-130405142D02*
X131889819Y-130500380D01*
X131889819Y-130500380D02*
X131842200Y-130643237D01*
X131842200Y-130643237D02*
X131746961Y-130738475D01*
X131746961Y-130738475D02*
X131651723Y-130786094D01*
X131651723Y-130786094D02*
X131461247Y-130833713D01*
X131461247Y-130833713D02*
X131318390Y-130833713D01*
X131318390Y-130833713D02*
X131127914Y-130786094D01*
X131127914Y-130786094D02*
X131032676Y-130738475D01*
X131032676Y-130738475D02*
X130937438Y-130643237D01*
X130937438Y-130643237D02*
X130889819Y-130500380D01*
X130889819Y-130500380D02*
X130889819Y-130405142D01*
X130889819Y-130405142D02*
X130937438Y-130262285D01*
X130937438Y-130262285D02*
X130985057Y-130214666D01*
X130985057Y-129833713D02*
X130937438Y-129786094D01*
X130937438Y-129786094D02*
X130889819Y-129690856D01*
X130889819Y-129690856D02*
X130889819Y-129452761D01*
X130889819Y-129452761D02*
X130937438Y-129357523D01*
X130937438Y-129357523D02*
X130985057Y-129309904D01*
X130985057Y-129309904D02*
X131080295Y-129262285D01*
X131080295Y-129262285D02*
X131175533Y-129262285D01*
X131175533Y-129262285D02*
X131318390Y-129309904D01*
X131318390Y-129309904D02*
X131889819Y-129881332D01*
X131889819Y-129881332D02*
X131889819Y-129262285D01*
X103992580Y-134650666D02*
X104040200Y-134698285D01*
X104040200Y-134698285D02*
X104087819Y-134841142D01*
X104087819Y-134841142D02*
X104087819Y-134936380D01*
X104087819Y-134936380D02*
X104040200Y-135079237D01*
X104040200Y-135079237D02*
X103944961Y-135174475D01*
X103944961Y-135174475D02*
X103849723Y-135222094D01*
X103849723Y-135222094D02*
X103659247Y-135269713D01*
X103659247Y-135269713D02*
X103516390Y-135269713D01*
X103516390Y-135269713D02*
X103325914Y-135222094D01*
X103325914Y-135222094D02*
X103230676Y-135174475D01*
X103230676Y-135174475D02*
X103135438Y-135079237D01*
X103135438Y-135079237D02*
X103087819Y-134936380D01*
X103087819Y-134936380D02*
X103087819Y-134841142D01*
X103087819Y-134841142D02*
X103135438Y-134698285D01*
X103135438Y-134698285D02*
X103183057Y-134650666D01*
X103087819Y-134317332D02*
X103087819Y-133698285D01*
X103087819Y-133698285D02*
X103468771Y-134031618D01*
X103468771Y-134031618D02*
X103468771Y-133888761D01*
X103468771Y-133888761D02*
X103516390Y-133793523D01*
X103516390Y-133793523D02*
X103564009Y-133745904D01*
X103564009Y-133745904D02*
X103659247Y-133698285D01*
X103659247Y-133698285D02*
X103897342Y-133698285D01*
X103897342Y-133698285D02*
X103992580Y-133745904D01*
X103992580Y-133745904D02*
X104040200Y-133793523D01*
X104040200Y-133793523D02*
X104087819Y-133888761D01*
X104087819Y-133888761D02*
X104087819Y-134174475D01*
X104087819Y-134174475D02*
X104040200Y-134269713D01*
X104040200Y-134269713D02*
X103992580Y-134317332D01*
X107292580Y-141009666D02*
X107340200Y-141057285D01*
X107340200Y-141057285D02*
X107387819Y-141200142D01*
X107387819Y-141200142D02*
X107387819Y-141295380D01*
X107387819Y-141295380D02*
X107340200Y-141438237D01*
X107340200Y-141438237D02*
X107244961Y-141533475D01*
X107244961Y-141533475D02*
X107149723Y-141581094D01*
X107149723Y-141581094D02*
X106959247Y-141628713D01*
X106959247Y-141628713D02*
X106816390Y-141628713D01*
X106816390Y-141628713D02*
X106625914Y-141581094D01*
X106625914Y-141581094D02*
X106530676Y-141533475D01*
X106530676Y-141533475D02*
X106435438Y-141438237D01*
X106435438Y-141438237D02*
X106387819Y-141295380D01*
X106387819Y-141295380D02*
X106387819Y-141200142D01*
X106387819Y-141200142D02*
X106435438Y-141057285D01*
X106435438Y-141057285D02*
X106483057Y-141009666D01*
X106721152Y-140152523D02*
X107387819Y-140152523D01*
X106340200Y-140390618D02*
X107054485Y-140628713D01*
X107054485Y-140628713D02*
X107054485Y-140009666D01*
X111034819Y-152617333D02*
X111749104Y-152617333D01*
X111749104Y-152617333D02*
X111891961Y-152664952D01*
X111891961Y-152664952D02*
X111987200Y-152760190D01*
X111987200Y-152760190D02*
X112034819Y-152903047D01*
X112034819Y-152903047D02*
X112034819Y-152998285D01*
X112034819Y-151617333D02*
X112034819Y-152188761D01*
X112034819Y-151903047D02*
X111034819Y-151903047D01*
X111034819Y-151903047D02*
X111177676Y-151998285D01*
X111177676Y-151998285D02*
X111272914Y-152093523D01*
X111272914Y-152093523D02*
X111320533Y-152188761D01*
X125775819Y-124285333D02*
X126490104Y-124285333D01*
X126490104Y-124285333D02*
X126632961Y-124332952D01*
X126632961Y-124332952D02*
X126728200Y-124428190D01*
X126728200Y-124428190D02*
X126775819Y-124571047D01*
X126775819Y-124571047D02*
X126775819Y-124666285D01*
X125871057Y-123856761D02*
X125823438Y-123809142D01*
X125823438Y-123809142D02*
X125775819Y-123713904D01*
X125775819Y-123713904D02*
X125775819Y-123475809D01*
X125775819Y-123475809D02*
X125823438Y-123380571D01*
X125823438Y-123380571D02*
X125871057Y-123332952D01*
X125871057Y-123332952D02*
X125966295Y-123285333D01*
X125966295Y-123285333D02*
X126061533Y-123285333D01*
X126061533Y-123285333D02*
X126204390Y-123332952D01*
X126204390Y-123332952D02*
X126775819Y-123904380D01*
X126775819Y-123904380D02*
X126775819Y-123285333D01*
X113163819Y-128349333D02*
X113878104Y-128349333D01*
X113878104Y-128349333D02*
X114020961Y-128396952D01*
X114020961Y-128396952D02*
X114116200Y-128492190D01*
X114116200Y-128492190D02*
X114163819Y-128635047D01*
X114163819Y-128635047D02*
X114163819Y-128730285D01*
X113163819Y-127968380D02*
X113163819Y-127349333D01*
X113163819Y-127349333D02*
X113544771Y-127682666D01*
X113544771Y-127682666D02*
X113544771Y-127539809D01*
X113544771Y-127539809D02*
X113592390Y-127444571D01*
X113592390Y-127444571D02*
X113640009Y-127396952D01*
X113640009Y-127396952D02*
X113735247Y-127349333D01*
X113735247Y-127349333D02*
X113973342Y-127349333D01*
X113973342Y-127349333D02*
X114068580Y-127396952D01*
X114068580Y-127396952D02*
X114116200Y-127444571D01*
X114116200Y-127444571D02*
X114163819Y-127539809D01*
X114163819Y-127539809D02*
X114163819Y-127825523D01*
X114163819Y-127825523D02*
X114116200Y-127920761D01*
X114116200Y-127920761D02*
X114068580Y-127968380D01*
X125736819Y-124335333D02*
X126451104Y-124335333D01*
X126451104Y-124335333D02*
X126593961Y-124382952D01*
X126593961Y-124382952D02*
X126689200Y-124478190D01*
X126689200Y-124478190D02*
X126736819Y-124621047D01*
X126736819Y-124621047D02*
X126736819Y-124716285D01*
X126070152Y-123430571D02*
X126736819Y-123430571D01*
X125689200Y-123668666D02*
X126403485Y-123906761D01*
X126403485Y-123906761D02*
X126403485Y-123287714D01*
X130494333Y-137613819D02*
X130161000Y-137137628D01*
X129922905Y-137613819D02*
X129922905Y-136613819D01*
X129922905Y-136613819D02*
X130303857Y-136613819D01*
X130303857Y-136613819D02*
X130399095Y-136661438D01*
X130399095Y-136661438D02*
X130446714Y-136709057D01*
X130446714Y-136709057D02*
X130494333Y-136804295D01*
X130494333Y-136804295D02*
X130494333Y-136947152D01*
X130494333Y-136947152D02*
X130446714Y-137042390D01*
X130446714Y-137042390D02*
X130399095Y-137090009D01*
X130399095Y-137090009D02*
X130303857Y-137137628D01*
X130303857Y-137137628D02*
X129922905Y-137137628D01*
X131446714Y-137613819D02*
X130875286Y-137613819D01*
X131161000Y-137613819D02*
X131161000Y-136613819D01*
X131161000Y-136613819D02*
X131065762Y-136756676D01*
X131065762Y-136756676D02*
X130970524Y-136851914D01*
X130970524Y-136851914D02*
X130875286Y-136899533D01*
X130494333Y-138885819D02*
X130161000Y-138409628D01*
X129922905Y-138885819D02*
X129922905Y-137885819D01*
X129922905Y-137885819D02*
X130303857Y-137885819D01*
X130303857Y-137885819D02*
X130399095Y-137933438D01*
X130399095Y-137933438D02*
X130446714Y-137981057D01*
X130446714Y-137981057D02*
X130494333Y-138076295D01*
X130494333Y-138076295D02*
X130494333Y-138219152D01*
X130494333Y-138219152D02*
X130446714Y-138314390D01*
X130446714Y-138314390D02*
X130399095Y-138362009D01*
X130399095Y-138362009D02*
X130303857Y-138409628D01*
X130303857Y-138409628D02*
X129922905Y-138409628D01*
X130875286Y-137981057D02*
X130922905Y-137933438D01*
X130922905Y-137933438D02*
X131018143Y-137885819D01*
X131018143Y-137885819D02*
X131256238Y-137885819D01*
X131256238Y-137885819D02*
X131351476Y-137933438D01*
X131351476Y-137933438D02*
X131399095Y-137981057D01*
X131399095Y-137981057D02*
X131446714Y-138076295D01*
X131446714Y-138076295D02*
X131446714Y-138171533D01*
X131446714Y-138171533D02*
X131399095Y-138314390D01*
X131399095Y-138314390D02*
X130827667Y-138885819D01*
X130827667Y-138885819D02*
X131446714Y-138885819D01*
X129540095Y-144488819D02*
X129540095Y-145298342D01*
X129540095Y-145298342D02*
X129587714Y-145393580D01*
X129587714Y-145393580D02*
X129635333Y-145441200D01*
X129635333Y-145441200D02*
X129730571Y-145488819D01*
X129730571Y-145488819D02*
X129921047Y-145488819D01*
X129921047Y-145488819D02*
X130016285Y-145441200D01*
X130016285Y-145441200D02*
X130063904Y-145393580D01*
X130063904Y-145393580D02*
X130111523Y-145298342D01*
X130111523Y-145298342D02*
X130111523Y-144488819D01*
X130540095Y-144584057D02*
X130587714Y-144536438D01*
X130587714Y-144536438D02*
X130682952Y-144488819D01*
X130682952Y-144488819D02*
X130921047Y-144488819D01*
X130921047Y-144488819D02*
X131016285Y-144536438D01*
X131016285Y-144536438D02*
X131063904Y-144584057D01*
X131063904Y-144584057D02*
X131111523Y-144679295D01*
X131111523Y-144679295D02*
X131111523Y-144774533D01*
X131111523Y-144774533D02*
X131063904Y-144917390D01*
X131063904Y-144917390D02*
X130492476Y-145488819D01*
X130492476Y-145488819D02*
X131111523Y-145488819D01*
X144780095Y-137252819D02*
X144780095Y-138062342D01*
X144780095Y-138062342D02*
X144827714Y-138157580D01*
X144827714Y-138157580D02*
X144875333Y-138205200D01*
X144875333Y-138205200D02*
X144970571Y-138252819D01*
X144970571Y-138252819D02*
X145161047Y-138252819D01*
X145161047Y-138252819D02*
X145256285Y-138205200D01*
X145256285Y-138205200D02*
X145303904Y-138157580D01*
X145303904Y-138157580D02*
X145351523Y-138062342D01*
X145351523Y-138062342D02*
X145351523Y-137252819D01*
X145732476Y-137252819D02*
X146351523Y-137252819D01*
X146351523Y-137252819D02*
X146018190Y-137633771D01*
X146018190Y-137633771D02*
X146161047Y-137633771D01*
X146161047Y-137633771D02*
X146256285Y-137681390D01*
X146256285Y-137681390D02*
X146303904Y-137729009D01*
X146303904Y-137729009D02*
X146351523Y-137824247D01*
X146351523Y-137824247D02*
X146351523Y-138062342D01*
X146351523Y-138062342D02*
X146303904Y-138157580D01*
X146303904Y-138157580D02*
X146256285Y-138205200D01*
X146256285Y-138205200D02*
X146161047Y-138252819D01*
X146161047Y-138252819D02*
X145875333Y-138252819D01*
X145875333Y-138252819D02*
X145780095Y-138205200D01*
X145780095Y-138205200D02*
X145732476Y-138157580D01*
X144680095Y-126547819D02*
X144680095Y-127357342D01*
X144680095Y-127357342D02*
X144727714Y-127452580D01*
X144727714Y-127452580D02*
X144775333Y-127500200D01*
X144775333Y-127500200D02*
X144870571Y-127547819D01*
X144870571Y-127547819D02*
X145061047Y-127547819D01*
X145061047Y-127547819D02*
X145156285Y-127500200D01*
X145156285Y-127500200D02*
X145203904Y-127452580D01*
X145203904Y-127452580D02*
X145251523Y-127357342D01*
X145251523Y-127357342D02*
X145251523Y-126547819D01*
X146156285Y-126881152D02*
X146156285Y-127547819D01*
X145918190Y-126500200D02*
X145680095Y-127214485D01*
X145680095Y-127214485D02*
X146299142Y-127214485D01*
X140053628Y-140938190D02*
X140529819Y-140938190D01*
X139529819Y-141271523D02*
X140053628Y-140938190D01*
X140053628Y-140938190D02*
X139529819Y-140604857D01*
X140529819Y-139747714D02*
X140529819Y-140319142D01*
X140529819Y-140033428D02*
X139529819Y-140033428D01*
X139529819Y-140033428D02*
X139672676Y-140128666D01*
X139672676Y-140128666D02*
X139767914Y-140223904D01*
X139767914Y-140223904D02*
X139815533Y-140319142D01*
X94218628Y-139414190D02*
X94694819Y-139414190D01*
X93694819Y-139747523D02*
X94218628Y-139414190D01*
X94218628Y-139414190D02*
X93694819Y-139080857D01*
X93790057Y-138795142D02*
X93742438Y-138747523D01*
X93742438Y-138747523D02*
X93694819Y-138652285D01*
X93694819Y-138652285D02*
X93694819Y-138414190D01*
X93694819Y-138414190D02*
X93742438Y-138318952D01*
X93742438Y-138318952D02*
X93790057Y-138271333D01*
X93790057Y-138271333D02*
X93885295Y-138223714D01*
X93885295Y-138223714D02*
X93980533Y-138223714D01*
X93980533Y-138223714D02*
X94123390Y-138271333D01*
X94123390Y-138271333D02*
X94694819Y-138842761D01*
X94694819Y-138842761D02*
X94694819Y-138223714D01*
X101092095Y-147338819D02*
X101092095Y-148148342D01*
X101092095Y-148148342D02*
X101139714Y-148243580D01*
X101139714Y-148243580D02*
X101187333Y-148291200D01*
X101187333Y-148291200D02*
X101282571Y-148338819D01*
X101282571Y-148338819D02*
X101473047Y-148338819D01*
X101473047Y-148338819D02*
X101568285Y-148291200D01*
X101568285Y-148291200D02*
X101615904Y-148243580D01*
X101615904Y-148243580D02*
X101663523Y-148148342D01*
X101663523Y-148148342D02*
X101663523Y-147338819D01*
X102615904Y-147338819D02*
X102139714Y-147338819D01*
X102139714Y-147338819D02*
X102092095Y-147815009D01*
X102092095Y-147815009D02*
X102139714Y-147767390D01*
X102139714Y-147767390D02*
X102234952Y-147719771D01*
X102234952Y-147719771D02*
X102473047Y-147719771D01*
X102473047Y-147719771D02*
X102568285Y-147767390D01*
X102568285Y-147767390D02*
X102615904Y-147815009D01*
X102615904Y-147815009D02*
X102663523Y-147910247D01*
X102663523Y-147910247D02*
X102663523Y-148148342D01*
X102663523Y-148148342D02*
X102615904Y-148243580D01*
X102615904Y-148243580D02*
X102568285Y-148291200D01*
X102568285Y-148291200D02*
X102473047Y-148338819D01*
X102473047Y-148338819D02*
X102234952Y-148338819D01*
X102234952Y-148338819D02*
X102139714Y-148291200D01*
X102139714Y-148291200D02*
X102092095Y-148243580D01*
X146630819Y-153011094D02*
X145630819Y-153011094D01*
X145630819Y-153011094D02*
X145630819Y-152772999D01*
X145630819Y-152772999D02*
X145678438Y-152630142D01*
X145678438Y-152630142D02*
X145773676Y-152534904D01*
X145773676Y-152534904D02*
X145868914Y-152487285D01*
X145868914Y-152487285D02*
X146059390Y-152439666D01*
X146059390Y-152439666D02*
X146202247Y-152439666D01*
X146202247Y-152439666D02*
X146392723Y-152487285D01*
X146392723Y-152487285D02*
X146487961Y-152534904D01*
X146487961Y-152534904D02*
X146583200Y-152630142D01*
X146583200Y-152630142D02*
X146630819Y-152772999D01*
X146630819Y-152772999D02*
X146630819Y-153011094D01*
X146630819Y-151487285D02*
X146630819Y-152058713D01*
X146630819Y-151772999D02*
X145630819Y-151772999D01*
X145630819Y-151772999D02*
X145773676Y-151868237D01*
X145773676Y-151868237D02*
X145868914Y-151963475D01*
X145868914Y-151963475D02*
X145916533Y-152058713D01*
D12*
X95660000Y-124400000D02*
X96990000Y-124400000D01*
X95660000Y-125730000D02*
X95660000Y-124400000D01*
X95660000Y-127000000D02*
X95660000Y-129600000D01*
X95660000Y-127000000D02*
X98320000Y-127000000D01*
X95660000Y-129600000D02*
X98320000Y-129600000D01*
X98320000Y-127000000D02*
X98320000Y-129600000D01*
X132375000Y-130309252D02*
X132375000Y-129786748D01*
X133795000Y-130309252D02*
X133795000Y-129786748D01*
X104573000Y-134745252D02*
X104573000Y-134222748D01*
X105993000Y-134745252D02*
X105993000Y-134222748D01*
X104573000Y-140581748D02*
X104573000Y-141104252D01*
X105993000Y-140581748D02*
X105993000Y-141104252D01*
X112580000Y-150954000D02*
X113910000Y-150954000D01*
X112580000Y-152284000D02*
X112580000Y-150954000D01*
X115180000Y-150954000D02*
X135560000Y-150954000D01*
X115180000Y-153614000D02*
X115180000Y-150954000D01*
X115180000Y-153614000D02*
X135560000Y-153614000D01*
X135560000Y-153614000D02*
X135560000Y-150954000D01*
X127321000Y-122622000D02*
X128651000Y-122622000D01*
X127321000Y-123952000D02*
X127321000Y-122622000D01*
X129921000Y-122622000D02*
X137601000Y-122622000D01*
X129921000Y-125282000D02*
X129921000Y-122622000D01*
X129921000Y-125282000D02*
X137601000Y-125282000D01*
X137601000Y-125282000D02*
X137601000Y-122622000D01*
X104969000Y-122876000D02*
X104969000Y-128076000D01*
X110109000Y-125476000D02*
X110109000Y-128076000D01*
X110109000Y-128076000D02*
X104969000Y-128076000D01*
X112709000Y-122876000D02*
X104969000Y-122876000D01*
X112709000Y-122876000D02*
X112709000Y-125476000D01*
X112709000Y-125476000D02*
X110109000Y-125476000D01*
X112709000Y-126746000D02*
X112709000Y-128076000D01*
X112709000Y-128076000D02*
X111379000Y-128076000D01*
X115002000Y-122672000D02*
X115002000Y-125332000D01*
X122682000Y-122672000D02*
X115002000Y-122672000D01*
X122682000Y-122672000D02*
X122682000Y-125332000D01*
X122682000Y-125332000D02*
X115002000Y-125332000D01*
X125282000Y-124002000D02*
X125282000Y-125332000D01*
X125282000Y-125332000D02*
X123952000Y-125332000D01*
X130922252Y-134799000D02*
X130399748Y-134799000D01*
X130922252Y-136219000D02*
X130399748Y-136219000D01*
X130399748Y-139371000D02*
X130922252Y-139371000D01*
X130399748Y-140791000D02*
X130922252Y-140791000D01*
X109124000Y-130190000D02*
X109124000Y-147670000D01*
X109124000Y-147670000D02*
X127604000Y-147670000D01*
X110124000Y-129190000D02*
X109124000Y-130190000D01*
D13*
X111929000Y-133145000D02*
X111929000Y-133645000D01*
X111929000Y-144865000D02*
X111929000Y-143215000D01*
X113079000Y-131995000D02*
X111929000Y-133145000D01*
X113579000Y-131995000D02*
X113079000Y-131995000D01*
X113579000Y-144865000D02*
X111929000Y-144865000D01*
D12*
X117364000Y-129190000D02*
X110124000Y-129190000D01*
D13*
X123149000Y-131995000D02*
X124799000Y-131995000D01*
X123149000Y-144865000D02*
X124799000Y-144865000D01*
X124799000Y-131995000D02*
X124799000Y-133645000D01*
X124799000Y-144865000D02*
X124799000Y-143215000D01*
D12*
X127604000Y-129190000D02*
X119364000Y-129190000D01*
X127604000Y-147670000D02*
X127604000Y-129190000D01*
D11*
X142792000Y-138723000D02*
X142792000Y-138928000D01*
X142792000Y-138723000D02*
X148292000Y-138723000D01*
X142792000Y-138928000D02*
X141042000Y-138928000D01*
X142792000Y-144233000D02*
X142792000Y-143933000D01*
X142792000Y-144233000D02*
X148292000Y-144233000D01*
X148292000Y-138723000D02*
X148292000Y-139023000D01*
X148292000Y-144233000D02*
X148292000Y-143933000D01*
D12*
X142694500Y-127935500D02*
X142694500Y-128218000D01*
X142694500Y-128218000D02*
X141042000Y-128218000D01*
X142694500Y-133430500D02*
X142694500Y-133148000D01*
X145442000Y-127935500D02*
X142694500Y-127935500D01*
X145442000Y-127935500D02*
X148189500Y-127935500D01*
X145442000Y-133430500D02*
X142694500Y-133430500D01*
X145442000Y-133430500D02*
X148189500Y-133430500D01*
X148189500Y-127935500D02*
X148189500Y-128218000D01*
X148189500Y-133430500D02*
X148189500Y-133148000D01*
X133975000Y-133762000D02*
X133975000Y-146362000D01*
X139075000Y-133762000D02*
X133975000Y-133762000D01*
X139075000Y-146362000D02*
X139075000Y-133762000D01*
X95240000Y-133038000D02*
X95240000Y-145638000D01*
X95240000Y-145638000D02*
X100340000Y-145638000D01*
X100340000Y-145638000D02*
X100340000Y-133038000D01*
D11*
X99779000Y-148809000D02*
X99779000Y-148859000D01*
X99779000Y-148809000D02*
X103929000Y-148809000D01*
X99779000Y-148859000D02*
X98379000Y-148859000D01*
X99779000Y-153959000D02*
X99779000Y-153814000D01*
X99779000Y-153959000D02*
X103929000Y-153959000D01*
X103929000Y-148809000D02*
X103929000Y-148954000D01*
X103929000Y-153959000D02*
X103929000Y-153814000D01*
D12*
X143566000Y-150413000D02*
X143566000Y-153273000D01*
X145486000Y-150413000D02*
X143566000Y-150413000D01*
X145486000Y-153273000D02*
X145486000Y-150413000D01*
M02*
