G04 #@! TF.GenerationSoftware,KiCad,Pcbnew,9.0.6*
G04 #@! TF.CreationDate,2026-05-20T20:54:06+05:30*
G04 #@! TF.ProjectId,2-Raspberry Pi FS Hat v01,322d5261-7370-4626-9572-727920506920,1*
G04 #@! TF.SameCoordinates,Original*
G04 #@! TF.FileFunction,Soldermask,Top*
G04 #@! TF.FilePolarity,Negative*
%FSLAX46Y46*%
G04 Gerber Fmt 4.6, Leading zero omitted, Abs format (unit mm)*
G04 Created by KiCad (PCBNEW 9.0.6) date 2026-05-20 20:54:06*
%MOMM*%
%LPD*%
G01*
G04 APERTURE LIST*
G04 APERTURE END LIST*
G36*
X170074547Y-102816798D02*
G01*
X170237729Y-102884390D01*
X170384589Y-102982519D01*
X170509483Y-103107413D01*
X170607612Y-103254273D01*
X170675204Y-103417455D01*
X170709662Y-103590688D01*
X170709662Y-103767314D01*
X170675204Y-103940547D01*
X170607612Y-104103729D01*
X170509483Y-104250589D01*
X170384589Y-104375483D01*
X170237729Y-104473612D01*
X170074547Y-104541204D01*
X169901314Y-104575662D01*
X169724688Y-104575662D01*
X169551455Y-104541204D01*
X169388273Y-104473612D01*
X169241413Y-104375483D01*
X169116519Y-104250589D01*
X169018390Y-104103729D01*
X168950798Y-103940547D01*
X168916340Y-103767314D01*
X168916340Y-103590688D01*
X168950798Y-103417455D01*
X169018390Y-103254273D01*
X169116519Y-103107413D01*
X169241413Y-102982519D01*
X169388273Y-102884390D01*
X169551455Y-102816798D01*
X169724688Y-102782340D01*
X169901314Y-102782340D01*
X170074547Y-102816798D01*
G37*
G36*
X172614547Y-102816798D02*
G01*
X172777729Y-102884390D01*
X172924589Y-102982519D01*
X173049483Y-103107413D01*
X173147612Y-103254273D01*
X173215204Y-103417455D01*
X173249662Y-103590688D01*
X173249662Y-103767314D01*
X173215204Y-103940547D01*
X173147612Y-104103729D01*
X173049483Y-104250589D01*
X172924589Y-104375483D01*
X172777729Y-104473612D01*
X172614547Y-104541204D01*
X172441314Y-104575662D01*
X172264688Y-104575662D01*
X172091455Y-104541204D01*
X171928273Y-104473612D01*
X171781413Y-104375483D01*
X171656519Y-104250589D01*
X171558390Y-104103729D01*
X171490798Y-103940547D01*
X171456340Y-103767314D01*
X171456340Y-103590688D01*
X171490798Y-103417455D01*
X171558390Y-103254273D01*
X171656519Y-103107413D01*
X171781413Y-102982519D01*
X171928273Y-102884390D01*
X172091455Y-102816798D01*
X172264688Y-102782340D01*
X172441314Y-102782340D01*
X172614547Y-102816798D01*
G37*
G36*
X166385733Y-102260829D02*
G01*
X166401330Y-102267716D01*
X166408850Y-102268907D01*
X166440166Y-102284863D01*
X166484824Y-102304582D01*
X166561418Y-102381176D01*
X166581139Y-102425840D01*
X166597092Y-102457149D01*
X166598282Y-102464666D01*
X166605171Y-102480267D01*
X166613000Y-102547750D01*
X166613000Y-103035250D01*
X166605171Y-103102733D01*
X166598282Y-103118334D01*
X166597092Y-103125850D01*
X166581142Y-103157152D01*
X166561418Y-103201824D01*
X166484824Y-103278418D01*
X166440152Y-103298142D01*
X166408850Y-103314092D01*
X166401334Y-103315282D01*
X166385733Y-103322171D01*
X166318250Y-103330000D01*
X165405750Y-103330000D01*
X165338267Y-103322171D01*
X165322666Y-103315282D01*
X165315149Y-103314092D01*
X165283840Y-103298139D01*
X165239176Y-103278418D01*
X165162582Y-103201824D01*
X165142863Y-103157166D01*
X165126907Y-103125850D01*
X165125716Y-103118330D01*
X165118829Y-103102733D01*
X165111000Y-103035250D01*
X165111000Y-102547750D01*
X165118829Y-102480267D01*
X165125715Y-102464669D01*
X165126907Y-102457149D01*
X165142867Y-102425825D01*
X165162582Y-102381176D01*
X165239176Y-102304582D01*
X165283825Y-102284867D01*
X165315149Y-102268907D01*
X165322669Y-102267715D01*
X165338267Y-102260829D01*
X165405750Y-102253000D01*
X166318250Y-102253000D01*
X166385733Y-102260829D01*
G37*
G36*
X157206517Y-101083882D02*
G01*
X157223062Y-101094938D01*
X157234118Y-101111483D01*
X157238000Y-101131000D01*
X157238000Y-102831000D01*
X157234118Y-102850517D01*
X157223062Y-102867062D01*
X157206517Y-102878118D01*
X157187000Y-102882000D01*
X155487000Y-102882000D01*
X155467483Y-102878118D01*
X155450938Y-102867062D01*
X155439882Y-102850517D01*
X155436000Y-102831000D01*
X155436000Y-101131000D01*
X155439882Y-101111483D01*
X155450938Y-101094938D01*
X155467483Y-101083882D01*
X155487000Y-101080000D01*
X157187000Y-101080000D01*
X157206517Y-101083882D01*
G37*
G36*
X162321733Y-101244829D02*
G01*
X162337330Y-101251716D01*
X162344850Y-101252907D01*
X162376166Y-101268863D01*
X162420824Y-101288582D01*
X162497418Y-101365176D01*
X162517139Y-101409840D01*
X162533092Y-101441149D01*
X162534282Y-101448666D01*
X162541171Y-101464267D01*
X162549000Y-101531750D01*
X162549000Y-102019250D01*
X162541171Y-102086733D01*
X162534282Y-102102334D01*
X162533092Y-102109850D01*
X162517142Y-102141152D01*
X162497418Y-102185824D01*
X162420824Y-102262418D01*
X162376152Y-102282142D01*
X162344850Y-102298092D01*
X162337334Y-102299282D01*
X162321733Y-102306171D01*
X162254250Y-102314000D01*
X161341750Y-102314000D01*
X161274267Y-102306171D01*
X161258666Y-102299282D01*
X161251149Y-102298092D01*
X161219840Y-102282139D01*
X161175176Y-102262418D01*
X161098582Y-102185824D01*
X161078863Y-102141166D01*
X161062907Y-102109850D01*
X161061716Y-102102330D01*
X161054829Y-102086733D01*
X161047000Y-102019250D01*
X161047000Y-101531750D01*
X161054829Y-101464267D01*
X161061715Y-101448669D01*
X161062907Y-101441149D01*
X161078867Y-101409825D01*
X161098582Y-101365176D01*
X161175176Y-101288582D01*
X161219825Y-101268867D01*
X161251149Y-101252907D01*
X161258669Y-101251715D01*
X161274267Y-101244829D01*
X161341750Y-101237000D01*
X162254250Y-101237000D01*
X162321733Y-101244829D01*
G37*
G36*
X170074547Y-100276798D02*
G01*
X170237729Y-100344390D01*
X170384589Y-100442519D01*
X170509483Y-100567413D01*
X170607612Y-100714273D01*
X170675204Y-100877455D01*
X170709662Y-101050688D01*
X170709662Y-101227314D01*
X170675204Y-101400547D01*
X170607612Y-101563729D01*
X170509483Y-101710589D01*
X170384589Y-101835483D01*
X170237729Y-101933612D01*
X170074547Y-102001204D01*
X169901314Y-102035662D01*
X169724688Y-102035662D01*
X169551455Y-102001204D01*
X169388273Y-101933612D01*
X169241413Y-101835483D01*
X169116519Y-101710589D01*
X169018390Y-101563729D01*
X168950798Y-101400547D01*
X168916340Y-101227314D01*
X168916340Y-101050688D01*
X168950798Y-100877455D01*
X169018390Y-100714273D01*
X169116519Y-100567413D01*
X169241413Y-100442519D01*
X169388273Y-100344390D01*
X169551455Y-100276798D01*
X169724688Y-100242340D01*
X169901314Y-100242340D01*
X170074547Y-100276798D01*
G37*
G36*
X172614547Y-100276798D02*
G01*
X172777729Y-100344390D01*
X172924589Y-100442519D01*
X173049483Y-100567413D01*
X173147612Y-100714273D01*
X173215204Y-100877455D01*
X173249662Y-101050688D01*
X173249662Y-101227314D01*
X173215204Y-101400547D01*
X173147612Y-101563729D01*
X173049483Y-101710589D01*
X172924589Y-101835483D01*
X172777729Y-101933612D01*
X172614547Y-102001204D01*
X172441314Y-102035662D01*
X172264688Y-102035662D01*
X172091455Y-102001204D01*
X171928273Y-101933612D01*
X171781413Y-101835483D01*
X171656519Y-101710589D01*
X171558390Y-101563729D01*
X171490798Y-101400547D01*
X171456340Y-101227314D01*
X171456340Y-101050688D01*
X171490798Y-100877455D01*
X171558390Y-100714273D01*
X171656519Y-100567413D01*
X171781413Y-100442519D01*
X171928273Y-100344390D01*
X172091455Y-100276798D01*
X172264688Y-100242340D01*
X172441314Y-100242340D01*
X172614547Y-100276798D01*
G37*
G36*
X166385733Y-100385829D02*
G01*
X166401330Y-100392716D01*
X166408850Y-100393907D01*
X166440166Y-100409863D01*
X166484824Y-100429582D01*
X166561418Y-100506176D01*
X166581139Y-100550840D01*
X166597092Y-100582149D01*
X166598282Y-100589666D01*
X166605171Y-100605267D01*
X166613000Y-100672750D01*
X166613000Y-101160250D01*
X166605171Y-101227733D01*
X166598282Y-101243334D01*
X166597092Y-101250850D01*
X166581142Y-101282152D01*
X166561418Y-101326824D01*
X166484824Y-101403418D01*
X166440152Y-101423142D01*
X166408850Y-101439092D01*
X166401334Y-101440282D01*
X166385733Y-101447171D01*
X166318250Y-101455000D01*
X165405750Y-101455000D01*
X165338267Y-101447171D01*
X165322666Y-101440282D01*
X165315149Y-101439092D01*
X165283840Y-101423139D01*
X165239176Y-101403418D01*
X165162582Y-101326824D01*
X165142863Y-101282166D01*
X165126907Y-101250850D01*
X165125716Y-101243330D01*
X165118829Y-101227733D01*
X165111000Y-101160250D01*
X165111000Y-100672750D01*
X165118829Y-100605267D01*
X165125715Y-100589669D01*
X165126907Y-100582149D01*
X165142867Y-100550825D01*
X165162582Y-100506176D01*
X165239176Y-100429582D01*
X165283825Y-100409867D01*
X165315149Y-100393907D01*
X165322669Y-100392715D01*
X165338267Y-100385829D01*
X165405750Y-100378000D01*
X166318250Y-100378000D01*
X166385733Y-100385829D01*
G37*
G36*
X162321733Y-99369829D02*
G01*
X162337330Y-99376716D01*
X162344850Y-99377907D01*
X162376166Y-99393863D01*
X162420824Y-99413582D01*
X162497418Y-99490176D01*
X162517139Y-99534840D01*
X162533092Y-99566149D01*
X162534282Y-99573666D01*
X162541171Y-99589267D01*
X162549000Y-99656750D01*
X162549000Y-100144250D01*
X162541171Y-100211733D01*
X162534282Y-100227334D01*
X162533092Y-100234850D01*
X162517142Y-100266152D01*
X162497418Y-100310824D01*
X162420824Y-100387418D01*
X162376152Y-100407142D01*
X162344850Y-100423092D01*
X162337334Y-100424282D01*
X162321733Y-100431171D01*
X162254250Y-100439000D01*
X161341750Y-100439000D01*
X161274267Y-100431171D01*
X161258666Y-100424282D01*
X161251149Y-100423092D01*
X161219840Y-100407139D01*
X161175176Y-100387418D01*
X161098582Y-100310824D01*
X161078863Y-100266166D01*
X161062907Y-100234850D01*
X161061716Y-100227330D01*
X161054829Y-100211733D01*
X161047000Y-100144250D01*
X161047000Y-99656750D01*
X161054829Y-99589267D01*
X161061715Y-99573669D01*
X161062907Y-99566149D01*
X161078867Y-99534825D01*
X161098582Y-99490176D01*
X161175176Y-99413582D01*
X161219825Y-99393867D01*
X161251149Y-99377907D01*
X161258669Y-99376715D01*
X161274267Y-99369829D01*
X161341750Y-99362000D01*
X162254250Y-99362000D01*
X162321733Y-99369829D01*
G37*
G36*
X156598546Y-98578797D02*
G01*
X156761728Y-98646389D01*
X156908588Y-98744518D01*
X157033482Y-98869412D01*
X157131611Y-99016272D01*
X157199203Y-99179454D01*
X157233661Y-99352687D01*
X157233661Y-99529313D01*
X157199203Y-99702546D01*
X157131611Y-99865728D01*
X157033482Y-100012588D01*
X156908588Y-100137482D01*
X156761728Y-100235611D01*
X156598546Y-100303203D01*
X156425313Y-100337661D01*
X156248687Y-100337661D01*
X156075454Y-100303203D01*
X155912272Y-100235611D01*
X155765412Y-100137482D01*
X155640518Y-100012588D01*
X155542389Y-99865728D01*
X155474797Y-99702546D01*
X155440339Y-99529313D01*
X155440339Y-99352687D01*
X155474797Y-99179454D01*
X155542389Y-99016272D01*
X155640518Y-98869412D01*
X155765412Y-98744518D01*
X155912272Y-98646389D01*
X156075454Y-98578797D01*
X156248687Y-98544339D01*
X156425313Y-98544339D01*
X156598546Y-98578797D01*
G37*
G36*
X170074547Y-97736798D02*
G01*
X170237729Y-97804390D01*
X170384589Y-97902519D01*
X170509483Y-98027413D01*
X170607612Y-98174273D01*
X170675204Y-98337455D01*
X170709662Y-98510688D01*
X170709662Y-98687314D01*
X170675204Y-98860547D01*
X170607612Y-99023729D01*
X170509483Y-99170589D01*
X170384589Y-99295483D01*
X170237729Y-99393612D01*
X170074547Y-99461204D01*
X169901314Y-99495662D01*
X169724688Y-99495662D01*
X169551455Y-99461204D01*
X169388273Y-99393612D01*
X169241413Y-99295483D01*
X169116519Y-99170589D01*
X169018390Y-99023729D01*
X168950798Y-98860547D01*
X168916340Y-98687314D01*
X168916340Y-98510688D01*
X168950798Y-98337455D01*
X169018390Y-98174273D01*
X169116519Y-98027413D01*
X169241413Y-97902519D01*
X169388273Y-97804390D01*
X169551455Y-97736798D01*
X169724688Y-97702340D01*
X169901314Y-97702340D01*
X170074547Y-97736798D01*
G37*
G36*
X172614547Y-97736798D02*
G01*
X172777729Y-97804390D01*
X172924589Y-97902519D01*
X173049483Y-98027413D01*
X173147612Y-98174273D01*
X173215204Y-98337455D01*
X173249662Y-98510688D01*
X173249662Y-98687314D01*
X173215204Y-98860547D01*
X173147612Y-99023729D01*
X173049483Y-99170589D01*
X172924589Y-99295483D01*
X172777729Y-99393612D01*
X172614547Y-99461204D01*
X172441314Y-99495662D01*
X172264688Y-99495662D01*
X172091455Y-99461204D01*
X171928273Y-99393612D01*
X171781413Y-99295483D01*
X171656519Y-99170589D01*
X171558390Y-99023729D01*
X171490798Y-98860547D01*
X171456340Y-98687314D01*
X171456340Y-98510688D01*
X171490798Y-98337455D01*
X171558390Y-98174273D01*
X171656519Y-98027413D01*
X171781413Y-97902519D01*
X171928273Y-97804390D01*
X172091455Y-97736798D01*
X172264688Y-97702340D01*
X172441314Y-97702340D01*
X172614547Y-97736798D01*
G37*
G36*
X156598546Y-96038797D02*
G01*
X156761728Y-96106389D01*
X156908588Y-96204518D01*
X157033482Y-96329412D01*
X157131611Y-96476272D01*
X157199203Y-96639454D01*
X157233661Y-96812687D01*
X157233661Y-96989313D01*
X157199203Y-97162546D01*
X157131611Y-97325728D01*
X157033482Y-97472588D01*
X156908588Y-97597482D01*
X156761728Y-97695611D01*
X156598546Y-97763203D01*
X156425313Y-97797661D01*
X156248687Y-97797661D01*
X156075454Y-97763203D01*
X155912272Y-97695611D01*
X155765412Y-97597482D01*
X155640518Y-97472588D01*
X155542389Y-97325728D01*
X155474797Y-97162546D01*
X155440339Y-96989313D01*
X155440339Y-96812687D01*
X155474797Y-96639454D01*
X155542389Y-96476272D01*
X155640518Y-96329412D01*
X155765412Y-96204518D01*
X155912272Y-96106389D01*
X156075454Y-96038797D01*
X156248687Y-96004339D01*
X156425313Y-96004339D01*
X156598546Y-96038797D01*
G37*
G36*
X166385733Y-96672829D02*
G01*
X166401330Y-96679716D01*
X166408850Y-96680907D01*
X166440166Y-96696863D01*
X166484824Y-96716582D01*
X166561418Y-96793176D01*
X166581139Y-96837840D01*
X166597092Y-96869149D01*
X166598282Y-96876666D01*
X166605171Y-96892267D01*
X166613000Y-96959750D01*
X166613000Y-97447250D01*
X166605171Y-97514733D01*
X166598282Y-97530334D01*
X166597092Y-97537850D01*
X166581142Y-97569152D01*
X166561418Y-97613824D01*
X166484824Y-97690418D01*
X166440152Y-97710142D01*
X166408850Y-97726092D01*
X166401334Y-97727282D01*
X166385733Y-97734171D01*
X166318250Y-97742000D01*
X165405750Y-97742000D01*
X165338267Y-97734171D01*
X165322666Y-97727282D01*
X165315149Y-97726092D01*
X165283840Y-97710139D01*
X165239176Y-97690418D01*
X165162582Y-97613824D01*
X165142863Y-97569166D01*
X165126907Y-97537850D01*
X165125716Y-97530330D01*
X165118829Y-97514733D01*
X165111000Y-97447250D01*
X165111000Y-96959750D01*
X165118829Y-96892267D01*
X165125715Y-96876669D01*
X165126907Y-96869149D01*
X165142867Y-96837825D01*
X165162582Y-96793176D01*
X165239176Y-96716582D01*
X165283825Y-96696867D01*
X165315149Y-96680907D01*
X165322669Y-96679715D01*
X165338267Y-96672829D01*
X165405750Y-96665000D01*
X166318250Y-96665000D01*
X166385733Y-96672829D01*
G37*
G36*
X162067733Y-95910829D02*
G01*
X162083330Y-95917716D01*
X162090850Y-95918907D01*
X162122166Y-95934863D01*
X162166824Y-95954582D01*
X162243418Y-96031176D01*
X162263139Y-96075840D01*
X162279092Y-96107149D01*
X162280282Y-96114666D01*
X162287171Y-96130267D01*
X162295000Y-96197750D01*
X162295000Y-96685250D01*
X162287171Y-96752733D01*
X162280282Y-96768334D01*
X162279092Y-96775850D01*
X162263142Y-96807152D01*
X162243418Y-96851824D01*
X162166824Y-96928418D01*
X162122152Y-96948142D01*
X162090850Y-96964092D01*
X162083334Y-96965282D01*
X162067733Y-96972171D01*
X162000250Y-96980000D01*
X161087750Y-96980000D01*
X161020267Y-96972171D01*
X161004666Y-96965282D01*
X160997149Y-96964092D01*
X160965840Y-96948139D01*
X160921176Y-96928418D01*
X160844582Y-96851824D01*
X160824863Y-96807166D01*
X160808907Y-96775850D01*
X160807716Y-96768330D01*
X160800829Y-96752733D01*
X160793000Y-96685250D01*
X160793000Y-96197750D01*
X160800829Y-96130267D01*
X160807715Y-96114669D01*
X160808907Y-96107149D01*
X160824867Y-96075825D01*
X160844582Y-96031176D01*
X160921176Y-95954582D01*
X160965825Y-95934867D01*
X160997149Y-95918907D01*
X161004669Y-95917715D01*
X161020267Y-95910829D01*
X161087750Y-95903000D01*
X162000250Y-95903000D01*
X162067733Y-95910829D01*
G37*
G36*
X170074547Y-95196798D02*
G01*
X170237729Y-95264390D01*
X170384589Y-95362519D01*
X170509483Y-95487413D01*
X170607612Y-95634273D01*
X170675204Y-95797455D01*
X170709662Y-95970688D01*
X170709662Y-96147314D01*
X170675204Y-96320547D01*
X170607612Y-96483729D01*
X170509483Y-96630589D01*
X170384589Y-96755483D01*
X170237729Y-96853612D01*
X170074547Y-96921204D01*
X169901314Y-96955662D01*
X169724688Y-96955662D01*
X169551455Y-96921204D01*
X169388273Y-96853612D01*
X169241413Y-96755483D01*
X169116519Y-96630589D01*
X169018390Y-96483729D01*
X168950798Y-96320547D01*
X168916340Y-96147314D01*
X168916340Y-95970688D01*
X168950798Y-95797455D01*
X169018390Y-95634273D01*
X169116519Y-95487413D01*
X169241413Y-95362519D01*
X169388273Y-95264390D01*
X169551455Y-95196798D01*
X169724688Y-95162340D01*
X169901314Y-95162340D01*
X170074547Y-95196798D01*
G37*
G36*
X172614547Y-95196798D02*
G01*
X172777729Y-95264390D01*
X172924589Y-95362519D01*
X173049483Y-95487413D01*
X173147612Y-95634273D01*
X173215204Y-95797455D01*
X173249662Y-95970688D01*
X173249662Y-96147314D01*
X173215204Y-96320547D01*
X173147612Y-96483729D01*
X173049483Y-96630589D01*
X172924589Y-96755483D01*
X172777729Y-96853612D01*
X172614547Y-96921204D01*
X172441314Y-96955662D01*
X172264688Y-96955662D01*
X172091455Y-96921204D01*
X171928273Y-96853612D01*
X171781413Y-96755483D01*
X171656519Y-96630589D01*
X171558390Y-96483729D01*
X171490798Y-96320547D01*
X171456340Y-96147314D01*
X171456340Y-95970688D01*
X171490798Y-95797455D01*
X171558390Y-95634273D01*
X171656519Y-95487413D01*
X171781413Y-95362519D01*
X171928273Y-95264390D01*
X172091455Y-95196798D01*
X172264688Y-95162340D01*
X172441314Y-95162340D01*
X172614547Y-95196798D01*
G37*
G36*
X166385733Y-94797829D02*
G01*
X166401330Y-94804716D01*
X166408850Y-94805907D01*
X166440166Y-94821863D01*
X166484824Y-94841582D01*
X166561418Y-94918176D01*
X166581139Y-94962840D01*
X166597092Y-94994149D01*
X166598282Y-95001666D01*
X166605171Y-95017267D01*
X166613000Y-95084750D01*
X166613000Y-95572250D01*
X166605171Y-95639733D01*
X166598282Y-95655334D01*
X166597092Y-95662850D01*
X166581142Y-95694152D01*
X166561418Y-95738824D01*
X166484824Y-95815418D01*
X166440152Y-95835142D01*
X166408850Y-95851092D01*
X166401334Y-95852282D01*
X166385733Y-95859171D01*
X166318250Y-95867000D01*
X165405750Y-95867000D01*
X165338267Y-95859171D01*
X165322666Y-95852282D01*
X165315149Y-95851092D01*
X165283840Y-95835139D01*
X165239176Y-95815418D01*
X165162582Y-95738824D01*
X165142863Y-95694166D01*
X165126907Y-95662850D01*
X165125716Y-95655330D01*
X165118829Y-95639733D01*
X165111000Y-95572250D01*
X165111000Y-95084750D01*
X165118829Y-95017267D01*
X165125715Y-95001669D01*
X165126907Y-94994149D01*
X165142867Y-94962825D01*
X165162582Y-94918176D01*
X165239176Y-94841582D01*
X165283825Y-94821867D01*
X165315149Y-94805907D01*
X165322669Y-94804715D01*
X165338267Y-94797829D01*
X165405750Y-94790000D01*
X166318250Y-94790000D01*
X166385733Y-94797829D01*
G37*
G36*
X162067733Y-94035829D02*
G01*
X162083330Y-94042716D01*
X162090850Y-94043907D01*
X162122166Y-94059863D01*
X162166824Y-94079582D01*
X162243418Y-94156176D01*
X162263139Y-94200840D01*
X162279092Y-94232149D01*
X162280282Y-94239666D01*
X162287171Y-94255267D01*
X162295000Y-94322750D01*
X162295000Y-94810250D01*
X162287171Y-94877733D01*
X162280282Y-94893334D01*
X162279092Y-94900850D01*
X162263142Y-94932152D01*
X162243418Y-94976824D01*
X162166824Y-95053418D01*
X162122152Y-95073142D01*
X162090850Y-95089092D01*
X162083334Y-95090282D01*
X162067733Y-95097171D01*
X162000250Y-95105000D01*
X161087750Y-95105000D01*
X161020267Y-95097171D01*
X161004666Y-95090282D01*
X160997149Y-95089092D01*
X160965840Y-95073139D01*
X160921176Y-95053418D01*
X160844582Y-94976824D01*
X160824863Y-94932166D01*
X160808907Y-94900850D01*
X160807716Y-94893330D01*
X160800829Y-94877733D01*
X160793000Y-94810250D01*
X160793000Y-94322750D01*
X160800829Y-94255267D01*
X160807715Y-94239669D01*
X160808907Y-94232149D01*
X160824867Y-94200825D01*
X160844582Y-94156176D01*
X160921176Y-94079582D01*
X160965825Y-94059867D01*
X160997149Y-94043907D01*
X161004669Y-94042715D01*
X161020267Y-94035829D01*
X161087750Y-94028000D01*
X162000250Y-94028000D01*
X162067733Y-94035829D01*
G37*
G36*
X170074547Y-92656798D02*
G01*
X170237729Y-92724390D01*
X170384589Y-92822519D01*
X170509483Y-92947413D01*
X170607612Y-93094273D01*
X170675204Y-93257455D01*
X170709662Y-93430688D01*
X170709662Y-93607314D01*
X170675204Y-93780547D01*
X170607612Y-93943729D01*
X170509483Y-94090589D01*
X170384589Y-94215483D01*
X170237729Y-94313612D01*
X170074547Y-94381204D01*
X169901314Y-94415662D01*
X169724688Y-94415662D01*
X169551455Y-94381204D01*
X169388273Y-94313612D01*
X169241413Y-94215483D01*
X169116519Y-94090589D01*
X169018390Y-93943729D01*
X168950798Y-93780547D01*
X168916340Y-93607314D01*
X168916340Y-93430688D01*
X168950798Y-93257455D01*
X169018390Y-93094273D01*
X169116519Y-92947413D01*
X169241413Y-92822519D01*
X169388273Y-92724390D01*
X169551455Y-92656798D01*
X169724688Y-92622340D01*
X169901314Y-92622340D01*
X170074547Y-92656798D01*
G37*
G36*
X172614547Y-92656798D02*
G01*
X172777729Y-92724390D01*
X172924589Y-92822519D01*
X173049483Y-92947413D01*
X173147612Y-93094273D01*
X173215204Y-93257455D01*
X173249662Y-93430688D01*
X173249662Y-93607314D01*
X173215204Y-93780547D01*
X173147612Y-93943729D01*
X173049483Y-94090589D01*
X172924589Y-94215483D01*
X172777729Y-94313612D01*
X172614547Y-94381204D01*
X172441314Y-94415662D01*
X172264688Y-94415662D01*
X172091455Y-94381204D01*
X171928273Y-94313612D01*
X171781413Y-94215483D01*
X171656519Y-94090589D01*
X171558390Y-93943729D01*
X171490798Y-93780547D01*
X171456340Y-93607314D01*
X171456340Y-93430688D01*
X171490798Y-93257455D01*
X171558390Y-93094273D01*
X171656519Y-92947413D01*
X171781413Y-92822519D01*
X171928273Y-92724390D01*
X172091455Y-92656798D01*
X172264688Y-92622340D01*
X172441314Y-92622340D01*
X172614547Y-92656798D01*
G37*
G36*
X165877733Y-90830829D02*
G01*
X165893330Y-90837716D01*
X165900850Y-90838907D01*
X165932166Y-90854863D01*
X165976824Y-90874582D01*
X166053418Y-90951176D01*
X166073139Y-90995840D01*
X166089092Y-91027149D01*
X166090282Y-91034666D01*
X166097171Y-91050267D01*
X166105000Y-91117750D01*
X166105000Y-91605250D01*
X166097171Y-91672733D01*
X166090282Y-91688334D01*
X166089092Y-91695850D01*
X166073142Y-91727152D01*
X166053418Y-91771824D01*
X165976824Y-91848418D01*
X165932152Y-91868142D01*
X165900850Y-91884092D01*
X165893334Y-91885282D01*
X165877733Y-91892171D01*
X165810250Y-91900000D01*
X164897750Y-91900000D01*
X164830267Y-91892171D01*
X164814666Y-91885282D01*
X164807149Y-91884092D01*
X164775840Y-91868139D01*
X164731176Y-91848418D01*
X164654582Y-91771824D01*
X164634863Y-91727166D01*
X164618907Y-91695850D01*
X164617716Y-91688330D01*
X164610829Y-91672733D01*
X164603000Y-91605250D01*
X164603000Y-91117750D01*
X164610829Y-91050267D01*
X164617715Y-91034669D01*
X164618907Y-91027149D01*
X164634867Y-90995825D01*
X164654582Y-90951176D01*
X164731176Y-90874582D01*
X164775825Y-90854867D01*
X164807149Y-90838907D01*
X164814669Y-90837715D01*
X164830267Y-90830829D01*
X164897750Y-90823000D01*
X165810250Y-90823000D01*
X165877733Y-90830829D01*
G37*
G36*
X170074547Y-90116798D02*
G01*
X170237729Y-90184390D01*
X170384589Y-90282519D01*
X170509483Y-90407413D01*
X170607612Y-90554273D01*
X170675204Y-90717455D01*
X170709662Y-90890688D01*
X170709662Y-91067314D01*
X170675204Y-91240547D01*
X170607612Y-91403729D01*
X170509483Y-91550589D01*
X170384589Y-91675483D01*
X170237729Y-91773612D01*
X170074547Y-91841204D01*
X169901314Y-91875662D01*
X169724688Y-91875662D01*
X169551455Y-91841204D01*
X169388273Y-91773612D01*
X169241413Y-91675483D01*
X169116519Y-91550589D01*
X169018390Y-91403729D01*
X168950798Y-91240547D01*
X168916340Y-91067314D01*
X168916340Y-90890688D01*
X168950798Y-90717455D01*
X169018390Y-90554273D01*
X169116519Y-90407413D01*
X169241413Y-90282519D01*
X169388273Y-90184390D01*
X169551455Y-90116798D01*
X169724688Y-90082340D01*
X169901314Y-90082340D01*
X170074547Y-90116798D01*
G37*
G36*
X172614547Y-90116798D02*
G01*
X172777729Y-90184390D01*
X172924589Y-90282519D01*
X173049483Y-90407413D01*
X173147612Y-90554273D01*
X173215204Y-90717455D01*
X173249662Y-90890688D01*
X173249662Y-91067314D01*
X173215204Y-91240547D01*
X173147612Y-91403729D01*
X173049483Y-91550589D01*
X172924589Y-91675483D01*
X172777729Y-91773612D01*
X172614547Y-91841204D01*
X172441314Y-91875662D01*
X172264688Y-91875662D01*
X172091455Y-91841204D01*
X171928273Y-91773612D01*
X171781413Y-91675483D01*
X171656519Y-91550589D01*
X171558390Y-91403729D01*
X171490798Y-91240547D01*
X171456340Y-91067314D01*
X171456340Y-90890688D01*
X171490798Y-90717455D01*
X171558390Y-90554273D01*
X171656519Y-90407413D01*
X171781413Y-90282519D01*
X171928273Y-90184390D01*
X172091455Y-90116798D01*
X172264688Y-90082340D01*
X172441314Y-90082340D01*
X172614547Y-90116798D01*
G37*
G36*
X153752368Y-90032476D02*
G01*
X153922613Y-90102994D01*
X154075830Y-90205370D01*
X154206130Y-90335670D01*
X154308506Y-90488887D01*
X154379024Y-90659132D01*
X154414974Y-90839864D01*
X154414974Y-91024136D01*
X154379024Y-91204868D01*
X154308506Y-91375113D01*
X154206130Y-91528330D01*
X154075830Y-91658630D01*
X153922613Y-91761006D01*
X153752368Y-91831524D01*
X153571636Y-91867474D01*
X153387364Y-91867474D01*
X153206632Y-91831524D01*
X153036387Y-91761006D01*
X152883170Y-91658630D01*
X152752870Y-91528330D01*
X152650494Y-91375113D01*
X152579976Y-91204868D01*
X152544026Y-91024136D01*
X152544026Y-90839864D01*
X152579976Y-90659132D01*
X152650494Y-90488887D01*
X152752870Y-90335670D01*
X152883170Y-90205370D01*
X153036387Y-90102994D01*
X153206632Y-90032476D01*
X153387364Y-89996526D01*
X153571636Y-89996526D01*
X153752368Y-90032476D01*
G37*
G36*
X161372368Y-90032476D02*
G01*
X161542613Y-90102994D01*
X161695830Y-90205370D01*
X161826130Y-90335670D01*
X161928506Y-90488887D01*
X161999024Y-90659132D01*
X162034974Y-90839864D01*
X162034974Y-91024136D01*
X161999024Y-91204868D01*
X161928506Y-91375113D01*
X161826130Y-91528330D01*
X161695830Y-91658630D01*
X161542613Y-91761006D01*
X161372368Y-91831524D01*
X161191636Y-91867474D01*
X161007364Y-91867474D01*
X160826632Y-91831524D01*
X160656387Y-91761006D01*
X160503170Y-91658630D01*
X160372870Y-91528330D01*
X160270494Y-91375113D01*
X160199976Y-91204868D01*
X160164026Y-91024136D01*
X160164026Y-90839864D01*
X160199976Y-90659132D01*
X160270494Y-90488887D01*
X160372870Y-90335670D01*
X160503170Y-90205370D01*
X160656387Y-90102994D01*
X160826632Y-90032476D01*
X161007364Y-89996526D01*
X161191636Y-89996526D01*
X161372368Y-90032476D01*
G37*
G36*
X165877733Y-88955829D02*
G01*
X165893330Y-88962716D01*
X165900850Y-88963907D01*
X165932166Y-88979863D01*
X165976824Y-88999582D01*
X166053418Y-89076176D01*
X166073139Y-89120840D01*
X166089092Y-89152149D01*
X166090282Y-89159666D01*
X166097171Y-89175267D01*
X166105000Y-89242750D01*
X166105000Y-89730250D01*
X166097171Y-89797733D01*
X166090282Y-89813334D01*
X166089092Y-89820850D01*
X166073142Y-89852152D01*
X166053418Y-89896824D01*
X165976824Y-89973418D01*
X165932152Y-89993142D01*
X165900850Y-90009092D01*
X165893334Y-90010282D01*
X165877733Y-90017171D01*
X165810250Y-90025000D01*
X164897750Y-90025000D01*
X164830267Y-90017171D01*
X164814666Y-90010282D01*
X164807149Y-90009092D01*
X164775840Y-89993139D01*
X164731176Y-89973418D01*
X164654582Y-89896824D01*
X164634863Y-89852166D01*
X164618907Y-89820850D01*
X164617716Y-89813330D01*
X164610829Y-89797733D01*
X164603000Y-89730250D01*
X164603000Y-89242750D01*
X164610829Y-89175267D01*
X164617715Y-89159669D01*
X164618907Y-89152149D01*
X164634867Y-89120825D01*
X164654582Y-89076176D01*
X164731176Y-88999582D01*
X164775825Y-88979867D01*
X164807149Y-88963907D01*
X164814669Y-88962715D01*
X164830267Y-88955829D01*
X164897750Y-88948000D01*
X165810250Y-88948000D01*
X165877733Y-88955829D01*
G37*
G36*
X170074547Y-87576798D02*
G01*
X170237729Y-87644390D01*
X170384589Y-87742519D01*
X170509483Y-87867413D01*
X170607612Y-88014273D01*
X170675204Y-88177455D01*
X170709662Y-88350688D01*
X170709662Y-88527314D01*
X170675204Y-88700547D01*
X170607612Y-88863729D01*
X170509483Y-89010589D01*
X170384589Y-89135483D01*
X170237729Y-89233612D01*
X170074547Y-89301204D01*
X169901314Y-89335662D01*
X169724688Y-89335662D01*
X169551455Y-89301204D01*
X169388273Y-89233612D01*
X169241413Y-89135483D01*
X169116519Y-89010589D01*
X169018390Y-88863729D01*
X168950798Y-88700547D01*
X168916340Y-88527314D01*
X168916340Y-88350688D01*
X168950798Y-88177455D01*
X169018390Y-88014273D01*
X169116519Y-87867413D01*
X169241413Y-87742519D01*
X169388273Y-87644390D01*
X169551455Y-87576798D01*
X169724688Y-87542340D01*
X169901314Y-87542340D01*
X170074547Y-87576798D01*
G37*
G36*
X172614547Y-87576798D02*
G01*
X172777729Y-87644390D01*
X172924589Y-87742519D01*
X173049483Y-87867413D01*
X173147612Y-88014273D01*
X173215204Y-88177455D01*
X173249662Y-88350688D01*
X173249662Y-88527314D01*
X173215204Y-88700547D01*
X173147612Y-88863729D01*
X173049483Y-89010589D01*
X172924589Y-89135483D01*
X172777729Y-89233612D01*
X172614547Y-89301204D01*
X172441314Y-89335662D01*
X172264688Y-89335662D01*
X172091455Y-89301204D01*
X171928273Y-89233612D01*
X171781413Y-89135483D01*
X171656519Y-89010589D01*
X171558390Y-88863729D01*
X171490798Y-88700547D01*
X171456340Y-88527314D01*
X171456340Y-88350688D01*
X171490798Y-88177455D01*
X171558390Y-88014273D01*
X171656519Y-87867413D01*
X171781413Y-87742519D01*
X171928273Y-87644390D01*
X172091455Y-87576798D01*
X172264688Y-87542340D01*
X172441314Y-87542340D01*
X172614547Y-87576798D01*
G37*
G36*
X161372368Y-87492476D02*
G01*
X161542613Y-87562994D01*
X161695830Y-87665370D01*
X161826130Y-87795670D01*
X161928506Y-87948887D01*
X161999024Y-88119132D01*
X162034974Y-88299864D01*
X162034974Y-88484136D01*
X161999024Y-88664868D01*
X161928506Y-88835113D01*
X161826130Y-88988330D01*
X161695830Y-89118630D01*
X161542613Y-89221006D01*
X161372368Y-89291524D01*
X161191636Y-89327474D01*
X161007364Y-89327474D01*
X160826632Y-89291524D01*
X160656387Y-89221006D01*
X160503170Y-89118630D01*
X160372870Y-88988330D01*
X160270494Y-88835113D01*
X160199976Y-88664868D01*
X160164026Y-88484136D01*
X160164026Y-88299864D01*
X160199976Y-88119132D01*
X160270494Y-87948887D01*
X160372870Y-87795670D01*
X160503170Y-87665370D01*
X160656387Y-87562994D01*
X160826632Y-87492476D01*
X161007364Y-87456526D01*
X161191636Y-87456526D01*
X161372368Y-87492476D01*
G37*
G36*
X165877733Y-86512829D02*
G01*
X165893330Y-86519716D01*
X165900850Y-86520907D01*
X165932166Y-86536863D01*
X165976824Y-86556582D01*
X166053418Y-86633176D01*
X166073139Y-86677840D01*
X166089092Y-86709149D01*
X166090282Y-86716666D01*
X166097171Y-86732267D01*
X166105000Y-86799750D01*
X166105000Y-87287250D01*
X166097171Y-87354733D01*
X166090282Y-87370334D01*
X166089092Y-87377850D01*
X166073142Y-87409152D01*
X166053418Y-87453824D01*
X165976824Y-87530418D01*
X165932152Y-87550142D01*
X165900850Y-87566092D01*
X165893334Y-87567282D01*
X165877733Y-87574171D01*
X165810250Y-87582000D01*
X164897750Y-87582000D01*
X164830267Y-87574171D01*
X164814666Y-87567282D01*
X164807149Y-87566092D01*
X164775840Y-87550139D01*
X164731176Y-87530418D01*
X164654582Y-87453824D01*
X164634863Y-87409166D01*
X164618907Y-87377850D01*
X164617716Y-87370330D01*
X164610829Y-87354733D01*
X164603000Y-87287250D01*
X164603000Y-86799750D01*
X164610829Y-86732267D01*
X164617715Y-86716669D01*
X164618907Y-86709149D01*
X164634867Y-86677825D01*
X164654582Y-86633176D01*
X164731176Y-86556582D01*
X164775825Y-86536867D01*
X164807149Y-86520907D01*
X164814669Y-86519715D01*
X164830267Y-86512829D01*
X164897750Y-86505000D01*
X165810250Y-86505000D01*
X165877733Y-86512829D01*
G37*
G36*
X173222518Y-85001883D02*
G01*
X173239063Y-85012939D01*
X173250119Y-85029484D01*
X173254001Y-85049001D01*
X173254001Y-86749001D01*
X173250119Y-86768518D01*
X173239063Y-86785063D01*
X173222518Y-86796119D01*
X173203001Y-86800001D01*
X171503001Y-86800001D01*
X171483484Y-86796119D01*
X171466939Y-86785063D01*
X171455883Y-86768518D01*
X171452001Y-86749001D01*
X171452001Y-85049001D01*
X171455883Y-85029484D01*
X171466939Y-85012939D01*
X171483484Y-85001883D01*
X171503001Y-84998001D01*
X173203001Y-84998001D01*
X173222518Y-85001883D01*
G37*
G36*
X170074547Y-85036798D02*
G01*
X170237729Y-85104390D01*
X170384589Y-85202519D01*
X170509483Y-85327413D01*
X170607612Y-85474273D01*
X170675204Y-85637455D01*
X170709662Y-85810688D01*
X170709662Y-85987314D01*
X170675204Y-86160547D01*
X170607612Y-86323729D01*
X170509483Y-86470589D01*
X170384589Y-86595483D01*
X170237729Y-86693612D01*
X170074547Y-86761204D01*
X169901314Y-86795662D01*
X169724688Y-86795662D01*
X169551455Y-86761204D01*
X169388273Y-86693612D01*
X169241413Y-86595483D01*
X169116519Y-86470589D01*
X169018390Y-86323729D01*
X168950798Y-86160547D01*
X168916340Y-85987314D01*
X168916340Y-85810688D01*
X168950798Y-85637455D01*
X169018390Y-85474273D01*
X169116519Y-85327413D01*
X169241413Y-85202519D01*
X169388273Y-85104390D01*
X169551455Y-85036798D01*
X169724688Y-85002340D01*
X169901314Y-85002340D01*
X170074547Y-85036798D01*
G37*
G36*
X153752368Y-84952476D02*
G01*
X153922613Y-85022994D01*
X154075830Y-85125370D01*
X154206130Y-85255670D01*
X154308506Y-85408887D01*
X154379024Y-85579132D01*
X154414974Y-85759864D01*
X154414974Y-85944136D01*
X154379024Y-86124868D01*
X154308506Y-86295113D01*
X154206130Y-86448330D01*
X154075830Y-86578630D01*
X153922613Y-86681006D01*
X153752368Y-86751524D01*
X153571636Y-86787474D01*
X153387364Y-86787474D01*
X153206632Y-86751524D01*
X153036387Y-86681006D01*
X152883170Y-86578630D01*
X152752870Y-86448330D01*
X152650494Y-86295113D01*
X152579976Y-86124868D01*
X152544026Y-85944136D01*
X152544026Y-85759864D01*
X152579976Y-85579132D01*
X152650494Y-85408887D01*
X152752870Y-85255670D01*
X152883170Y-85125370D01*
X153036387Y-85022994D01*
X153206632Y-84952476D01*
X153387364Y-84916526D01*
X153571636Y-84916526D01*
X153752368Y-84952476D01*
G37*
G36*
X161372368Y-84952476D02*
G01*
X161542613Y-85022994D01*
X161695830Y-85125370D01*
X161826130Y-85255670D01*
X161928506Y-85408887D01*
X161999024Y-85579132D01*
X162034974Y-85759864D01*
X162034974Y-85944136D01*
X161999024Y-86124868D01*
X161928506Y-86295113D01*
X161826130Y-86448330D01*
X161695830Y-86578630D01*
X161542613Y-86681006D01*
X161372368Y-86751524D01*
X161191636Y-86787474D01*
X161007364Y-86787474D01*
X160826632Y-86751524D01*
X160656387Y-86681006D01*
X160503170Y-86578630D01*
X160372870Y-86448330D01*
X160270494Y-86295113D01*
X160199976Y-86124868D01*
X160164026Y-85944136D01*
X160164026Y-85759864D01*
X160199976Y-85579132D01*
X160270494Y-85408887D01*
X160372870Y-85255670D01*
X160503170Y-85125370D01*
X160656387Y-85022994D01*
X160826632Y-84952476D01*
X161007364Y-84916526D01*
X161191636Y-84916526D01*
X161372368Y-84952476D01*
G37*
G36*
X165877733Y-84637829D02*
G01*
X165893330Y-84644716D01*
X165900850Y-84645907D01*
X165932166Y-84661863D01*
X165976824Y-84681582D01*
X166053418Y-84758176D01*
X166073139Y-84802840D01*
X166089092Y-84834149D01*
X166090282Y-84841666D01*
X166097171Y-84857267D01*
X166105000Y-84924750D01*
X166105000Y-85412250D01*
X166097171Y-85479733D01*
X166090282Y-85495334D01*
X166089092Y-85502850D01*
X166073142Y-85534152D01*
X166053418Y-85578824D01*
X165976824Y-85655418D01*
X165932152Y-85675142D01*
X165900850Y-85691092D01*
X165893334Y-85692282D01*
X165877733Y-85699171D01*
X165810250Y-85707000D01*
X164897750Y-85707000D01*
X164830267Y-85699171D01*
X164814666Y-85692282D01*
X164807149Y-85691092D01*
X164775840Y-85675139D01*
X164731176Y-85655418D01*
X164654582Y-85578824D01*
X164634863Y-85534166D01*
X164618907Y-85502850D01*
X164617716Y-85495330D01*
X164610829Y-85479733D01*
X164603000Y-85412250D01*
X164603000Y-84924750D01*
X164610829Y-84857267D01*
X164617715Y-84841669D01*
X164618907Y-84834149D01*
X164634867Y-84802825D01*
X164654582Y-84758176D01*
X164731176Y-84681582D01*
X164775825Y-84661867D01*
X164807149Y-84645907D01*
X164814669Y-84644715D01*
X164830267Y-84637829D01*
X164897750Y-84630000D01*
X165810250Y-84630000D01*
X165877733Y-84637829D01*
G37*
M02*
