G04 #@! TF.GenerationSoftware,KiCad,Pcbnew,9.0.6*
G04 #@! TF.CreationDate,2026-05-20T20:54:06+05:30*
G04 #@! TF.ProjectId,2-Raspberry Pi FS Hat v01,322d5261-7370-4626-9572-727920506920,1*
G04 #@! TF.SameCoordinates,Original*
G04 #@! TF.FileFunction,Copper,L2,Bot*
G04 #@! TF.FilePolarity,Positive*
%FSLAX46Y46*%
G04 Gerber Fmt 4.6, Leading zero omitted, Abs format (unit mm)*
G04 Created by KiCad (PCBNEW 9.0.6) date 2026-05-20 20:54:06*
%MOMM*%
%LPD*%
G01*
G04 APERTURE LIST*
G04 #@! TA.AperFunction,ComponentPad*
%ADD10R,1.700000X1.700000*%
G04 #@! TD*
G04 #@! TA.AperFunction,ComponentPad*
%ADD11O,1.700000X1.700000*%
G04 #@! TD*
G04 #@! TA.AperFunction,ComponentPad*
%ADD12C,1.778000*%
G04 #@! TD*
G04 #@! TA.AperFunction,Conductor*
%ADD13C,0.250000*%
G04 #@! TD*
G04 APERTURE END LIST*
D10*
X172353001Y-85899001D03*
D11*
X169813001Y-85899001D03*
X172353001Y-88439001D03*
X169813001Y-88439001D03*
X172353001Y-90979001D03*
X169813001Y-90979001D03*
X172353001Y-93519001D03*
X169813001Y-93519001D03*
X172353001Y-96059001D03*
X169813001Y-96059001D03*
X172353001Y-98599001D03*
X169813001Y-98599001D03*
X172353001Y-101139001D03*
X169813001Y-101139001D03*
X172353001Y-103679001D03*
X169813001Y-103679001D03*
D10*
X156337000Y-101981000D03*
D11*
X156337000Y-99441000D03*
X156337000Y-96901000D03*
D12*
X153479500Y-90932000D03*
X153479500Y-85852000D03*
X161099500Y-85852000D03*
X161099500Y-88392000D03*
X161099500Y-90932000D03*
D13*
X161544000Y-96456500D02*
X160401000Y-96456500D01*
X162877500Y-104140000D02*
X165925500Y-101092000D01*
X153606500Y-104140000D02*
X162877500Y-104140000D01*
X153352500Y-103886000D02*
X153606500Y-104140000D01*
X153352500Y-95631000D02*
X153352500Y-103886000D01*
X154114500Y-94869000D02*
X153352500Y-95631000D01*
X158813500Y-94869000D02*
X154114500Y-94869000D01*
X160401000Y-96456500D02*
X158813500Y-94869000D01*
X153479500Y-90932000D02*
X156019500Y-90932000D01*
X156019500Y-90932000D02*
X161099500Y-85852000D01*
X156337000Y-101981000D02*
X161480500Y-101981000D01*
X165227000Y-89662000D02*
X165227000Y-89598500D01*
X163893500Y-90995500D02*
X165227000Y-89662000D01*
X163893500Y-95377000D02*
X163893500Y-90995500D01*
X165989000Y-97472500D02*
X163893500Y-95377000D01*
X161480500Y-101981000D02*
X165989000Y-97472500D01*
X161099500Y-88392000D02*
X164211000Y-88392000D01*
X164211000Y-88392000D02*
X165290500Y-87312500D01*
X165290500Y-87312500D02*
X165544500Y-87058500D01*
X165290500Y-87312500D02*
X165290500Y-88996500D01*
X165290500Y-88996500D02*
X169813001Y-93519001D01*
M02*
