%TF.GenerationSoftware,KiCad,Pcbnew,10.0.3*%
%TF.CreationDate,2026-05-26T11:57:11+05:30*%
%TF.ProjectId,PicoForge QuantumLite,5069636f-466f-4726-9765-205175616e74,1*%
%TF.SameCoordinates,Original*%
%TF.FileFunction,Legend,Bot*%
%TF.FilePolarity,Positive*%
%FSLAX46Y46*%
G04 Gerber Fmt 4.6, Leading zero omitted, Abs format (unit mm)*
G04 Created by KiCad (PCBNEW 10.0.3) date 2026-05-26 11:57:11*
%MOMM*%
%LPD*%
G01*
G04 APERTURE LIST*
%ADD10C,0.150000*%
%ADD11C,0.010000*%
%ADD12C,0.120000*%
G04 APERTURE END LIST*
D10*
X151700000Y-81500000D02*
X151700000Y-88800000D01*
X138457982Y-77439866D02*
X138524649Y-77406533D01*
X138524649Y-77406533D02*
X138624649Y-77406533D01*
X138624649Y-77406533D02*
X138724649Y-77439866D01*
X138724649Y-77439866D02*
X138791316Y-77506533D01*
X138791316Y-77506533D02*
X138824649Y-77573200D01*
X138824649Y-77573200D02*
X138857982Y-77706533D01*
X138857982Y-77706533D02*
X138857982Y-77806533D01*
X138857982Y-77806533D02*
X138824649Y-77939866D01*
X138824649Y-77939866D02*
X138791316Y-78006533D01*
X138791316Y-78006533D02*
X138724649Y-78073200D01*
X138724649Y-78073200D02*
X138624649Y-78106533D01*
X138624649Y-78106533D02*
X138557982Y-78106533D01*
X138557982Y-78106533D02*
X138457982Y-78073200D01*
X138457982Y-78073200D02*
X138424649Y-78039866D01*
X138424649Y-78039866D02*
X138424649Y-77806533D01*
X138424649Y-77806533D02*
X138557982Y-77806533D01*
X138124649Y-78106533D02*
X138124649Y-77406533D01*
X138124649Y-77406533D02*
X137857982Y-77406533D01*
X137857982Y-77406533D02*
X137791316Y-77439866D01*
X137791316Y-77439866D02*
X137757982Y-77473200D01*
X137757982Y-77473200D02*
X137724649Y-77539866D01*
X137724649Y-77539866D02*
X137724649Y-77639866D01*
X137724649Y-77639866D02*
X137757982Y-77706533D01*
X137757982Y-77706533D02*
X137791316Y-77739866D01*
X137791316Y-77739866D02*
X137857982Y-77773200D01*
X137857982Y-77773200D02*
X138124649Y-77773200D01*
X137291316Y-77406533D02*
X137224649Y-77406533D01*
X137224649Y-77406533D02*
X137157982Y-77439866D01*
X137157982Y-77439866D02*
X137124649Y-77473200D01*
X137124649Y-77473200D02*
X137091316Y-77539866D01*
X137091316Y-77539866D02*
X137057982Y-77673200D01*
X137057982Y-77673200D02*
X137057982Y-77839866D01*
X137057982Y-77839866D02*
X137091316Y-77973200D01*
X137091316Y-77973200D02*
X137124649Y-78039866D01*
X137124649Y-78039866D02*
X137157982Y-78073200D01*
X137157982Y-78073200D02*
X137224649Y-78106533D01*
X137224649Y-78106533D02*
X137291316Y-78106533D01*
X137291316Y-78106533D02*
X137357982Y-78073200D01*
X137357982Y-78073200D02*
X137391316Y-78039866D01*
X137391316Y-78039866D02*
X137424649Y-77973200D01*
X137424649Y-77973200D02*
X137457982Y-77839866D01*
X137457982Y-77839866D02*
X137457982Y-77673200D01*
X137457982Y-77673200D02*
X137424649Y-77539866D01*
X137424649Y-77539866D02*
X137391316Y-77473200D01*
X137391316Y-77473200D02*
X137357982Y-77439866D01*
X137357982Y-77439866D02*
X137291316Y-77406533D01*
X138457982Y-78606866D02*
X138524649Y-78573533D01*
X138524649Y-78573533D02*
X138624649Y-78573533D01*
X138624649Y-78573533D02*
X138724649Y-78606866D01*
X138724649Y-78606866D02*
X138791316Y-78673533D01*
X138791316Y-78673533D02*
X138824649Y-78740200D01*
X138824649Y-78740200D02*
X138857982Y-78873533D01*
X138857982Y-78873533D02*
X138857982Y-78973533D01*
X138857982Y-78973533D02*
X138824649Y-79106866D01*
X138824649Y-79106866D02*
X138791316Y-79173533D01*
X138791316Y-79173533D02*
X138724649Y-79240200D01*
X138724649Y-79240200D02*
X138624649Y-79273533D01*
X138624649Y-79273533D02*
X138557982Y-79273533D01*
X138557982Y-79273533D02*
X138457982Y-79240200D01*
X138457982Y-79240200D02*
X138424649Y-79206866D01*
X138424649Y-79206866D02*
X138424649Y-78973533D01*
X138424649Y-78973533D02*
X138557982Y-78973533D01*
X138124649Y-79273533D02*
X138124649Y-78573533D01*
X138124649Y-78573533D02*
X137857982Y-78573533D01*
X137857982Y-78573533D02*
X137791316Y-78606866D01*
X137791316Y-78606866D02*
X137757982Y-78640200D01*
X137757982Y-78640200D02*
X137724649Y-78706866D01*
X137724649Y-78706866D02*
X137724649Y-78806866D01*
X137724649Y-78806866D02*
X137757982Y-78873533D01*
X137757982Y-78873533D02*
X137791316Y-78906866D01*
X137791316Y-78906866D02*
X137857982Y-78940200D01*
X137857982Y-78940200D02*
X138124649Y-78940200D01*
X137057982Y-79273533D02*
X137457982Y-79273533D01*
X137257982Y-79273533D02*
X137257982Y-78573533D01*
X137257982Y-78573533D02*
X137324649Y-78673533D01*
X137324649Y-78673533D02*
X137391316Y-78740200D01*
X137391316Y-78740200D02*
X137457982Y-78773533D01*
X138457982Y-79773866D02*
X138524649Y-79740533D01*
X138524649Y-79740533D02*
X138624649Y-79740533D01*
X138624649Y-79740533D02*
X138724649Y-79773866D01*
X138724649Y-79773866D02*
X138791316Y-79840533D01*
X138791316Y-79840533D02*
X138824649Y-79907200D01*
X138824649Y-79907200D02*
X138857982Y-80040533D01*
X138857982Y-80040533D02*
X138857982Y-80140533D01*
X138857982Y-80140533D02*
X138824649Y-80273866D01*
X138824649Y-80273866D02*
X138791316Y-80340533D01*
X138791316Y-80340533D02*
X138724649Y-80407200D01*
X138724649Y-80407200D02*
X138624649Y-80440533D01*
X138624649Y-80440533D02*
X138557982Y-80440533D01*
X138557982Y-80440533D02*
X138457982Y-80407200D01*
X138457982Y-80407200D02*
X138424649Y-80373866D01*
X138424649Y-80373866D02*
X138424649Y-80140533D01*
X138424649Y-80140533D02*
X138557982Y-80140533D01*
X138124649Y-80440533D02*
X138124649Y-79740533D01*
X138124649Y-79740533D02*
X137724649Y-80440533D01*
X137724649Y-80440533D02*
X137724649Y-79740533D01*
X137391316Y-80440533D02*
X137391316Y-79740533D01*
X137391316Y-79740533D02*
X137224649Y-79740533D01*
X137224649Y-79740533D02*
X137124649Y-79773866D01*
X137124649Y-79773866D02*
X137057983Y-79840533D01*
X137057983Y-79840533D02*
X137024649Y-79907200D01*
X137024649Y-79907200D02*
X136991316Y-80040533D01*
X136991316Y-80040533D02*
X136991316Y-80140533D01*
X136991316Y-80140533D02*
X137024649Y-80273866D01*
X137024649Y-80273866D02*
X137057983Y-80340533D01*
X137057983Y-80340533D02*
X137124649Y-80407200D01*
X137124649Y-80407200D02*
X137224649Y-80440533D01*
X137224649Y-80440533D02*
X137391316Y-80440533D01*
X138457982Y-82313866D02*
X138524649Y-82280533D01*
X138524649Y-82280533D02*
X138624649Y-82280533D01*
X138624649Y-82280533D02*
X138724649Y-82313866D01*
X138724649Y-82313866D02*
X138791316Y-82380533D01*
X138791316Y-82380533D02*
X138824649Y-82447200D01*
X138824649Y-82447200D02*
X138857982Y-82580533D01*
X138857982Y-82580533D02*
X138857982Y-82680533D01*
X138857982Y-82680533D02*
X138824649Y-82813866D01*
X138824649Y-82813866D02*
X138791316Y-82880533D01*
X138791316Y-82880533D02*
X138724649Y-82947200D01*
X138724649Y-82947200D02*
X138624649Y-82980533D01*
X138624649Y-82980533D02*
X138557982Y-82980533D01*
X138557982Y-82980533D02*
X138457982Y-82947200D01*
X138457982Y-82947200D02*
X138424649Y-82913866D01*
X138424649Y-82913866D02*
X138424649Y-82680533D01*
X138424649Y-82680533D02*
X138557982Y-82680533D01*
X138124649Y-82980533D02*
X138124649Y-82280533D01*
X138124649Y-82280533D02*
X137857982Y-82280533D01*
X137857982Y-82280533D02*
X137791316Y-82313866D01*
X137791316Y-82313866D02*
X137757982Y-82347200D01*
X137757982Y-82347200D02*
X137724649Y-82413866D01*
X137724649Y-82413866D02*
X137724649Y-82513866D01*
X137724649Y-82513866D02*
X137757982Y-82580533D01*
X137757982Y-82580533D02*
X137791316Y-82613866D01*
X137791316Y-82613866D02*
X137857982Y-82647200D01*
X137857982Y-82647200D02*
X138124649Y-82647200D01*
X137457982Y-82347200D02*
X137424649Y-82313866D01*
X137424649Y-82313866D02*
X137357982Y-82280533D01*
X137357982Y-82280533D02*
X137191316Y-82280533D01*
X137191316Y-82280533D02*
X137124649Y-82313866D01*
X137124649Y-82313866D02*
X137091316Y-82347200D01*
X137091316Y-82347200D02*
X137057982Y-82413866D01*
X137057982Y-82413866D02*
X137057982Y-82480533D01*
X137057982Y-82480533D02*
X137091316Y-82580533D01*
X137091316Y-82580533D02*
X137491316Y-82980533D01*
X137491316Y-82980533D02*
X137057982Y-82980533D01*
X138457982Y-84853866D02*
X138524649Y-84820533D01*
X138524649Y-84820533D02*
X138624649Y-84820533D01*
X138624649Y-84820533D02*
X138724649Y-84853866D01*
X138724649Y-84853866D02*
X138791316Y-84920533D01*
X138791316Y-84920533D02*
X138824649Y-84987200D01*
X138824649Y-84987200D02*
X138857982Y-85120533D01*
X138857982Y-85120533D02*
X138857982Y-85220533D01*
X138857982Y-85220533D02*
X138824649Y-85353866D01*
X138824649Y-85353866D02*
X138791316Y-85420533D01*
X138791316Y-85420533D02*
X138724649Y-85487200D01*
X138724649Y-85487200D02*
X138624649Y-85520533D01*
X138624649Y-85520533D02*
X138557982Y-85520533D01*
X138557982Y-85520533D02*
X138457982Y-85487200D01*
X138457982Y-85487200D02*
X138424649Y-85453866D01*
X138424649Y-85453866D02*
X138424649Y-85220533D01*
X138424649Y-85220533D02*
X138557982Y-85220533D01*
X138124649Y-85520533D02*
X138124649Y-84820533D01*
X138124649Y-84820533D02*
X137857982Y-84820533D01*
X137857982Y-84820533D02*
X137791316Y-84853866D01*
X137791316Y-84853866D02*
X137757982Y-84887200D01*
X137757982Y-84887200D02*
X137724649Y-84953866D01*
X137724649Y-84953866D02*
X137724649Y-85053866D01*
X137724649Y-85053866D02*
X137757982Y-85120533D01*
X137757982Y-85120533D02*
X137791316Y-85153866D01*
X137791316Y-85153866D02*
X137857982Y-85187200D01*
X137857982Y-85187200D02*
X138124649Y-85187200D01*
X137491316Y-84820533D02*
X137057982Y-84820533D01*
X137057982Y-84820533D02*
X137291316Y-85087200D01*
X137291316Y-85087200D02*
X137191316Y-85087200D01*
X137191316Y-85087200D02*
X137124649Y-85120533D01*
X137124649Y-85120533D02*
X137091316Y-85153866D01*
X137091316Y-85153866D02*
X137057982Y-85220533D01*
X137057982Y-85220533D02*
X137057982Y-85387200D01*
X137057982Y-85387200D02*
X137091316Y-85453866D01*
X137091316Y-85453866D02*
X137124649Y-85487200D01*
X137124649Y-85487200D02*
X137191316Y-85520533D01*
X137191316Y-85520533D02*
X137391316Y-85520533D01*
X137391316Y-85520533D02*
X137457982Y-85487200D01*
X137457982Y-85487200D02*
X137491316Y-85453866D01*
X138457982Y-87393866D02*
X138524649Y-87360533D01*
X138524649Y-87360533D02*
X138624649Y-87360533D01*
X138624649Y-87360533D02*
X138724649Y-87393866D01*
X138724649Y-87393866D02*
X138791316Y-87460533D01*
X138791316Y-87460533D02*
X138824649Y-87527200D01*
X138824649Y-87527200D02*
X138857982Y-87660533D01*
X138857982Y-87660533D02*
X138857982Y-87760533D01*
X138857982Y-87760533D02*
X138824649Y-87893866D01*
X138824649Y-87893866D02*
X138791316Y-87960533D01*
X138791316Y-87960533D02*
X138724649Y-88027200D01*
X138724649Y-88027200D02*
X138624649Y-88060533D01*
X138624649Y-88060533D02*
X138557982Y-88060533D01*
X138557982Y-88060533D02*
X138457982Y-88027200D01*
X138457982Y-88027200D02*
X138424649Y-87993866D01*
X138424649Y-87993866D02*
X138424649Y-87760533D01*
X138424649Y-87760533D02*
X138557982Y-87760533D01*
X138124649Y-88060533D02*
X138124649Y-87360533D01*
X138124649Y-87360533D02*
X137857982Y-87360533D01*
X137857982Y-87360533D02*
X137791316Y-87393866D01*
X137791316Y-87393866D02*
X137757982Y-87427200D01*
X137757982Y-87427200D02*
X137724649Y-87493866D01*
X137724649Y-87493866D02*
X137724649Y-87593866D01*
X137724649Y-87593866D02*
X137757982Y-87660533D01*
X137757982Y-87660533D02*
X137791316Y-87693866D01*
X137791316Y-87693866D02*
X137857982Y-87727200D01*
X137857982Y-87727200D02*
X138124649Y-87727200D01*
X137124649Y-87593866D02*
X137124649Y-88060533D01*
X137291316Y-87327200D02*
X137457982Y-87827200D01*
X137457982Y-87827200D02*
X137024649Y-87827200D01*
X138457982Y-89933866D02*
X138524649Y-89900533D01*
X138524649Y-89900533D02*
X138624649Y-89900533D01*
X138624649Y-89900533D02*
X138724649Y-89933866D01*
X138724649Y-89933866D02*
X138791316Y-90000533D01*
X138791316Y-90000533D02*
X138824649Y-90067200D01*
X138824649Y-90067200D02*
X138857982Y-90200533D01*
X138857982Y-90200533D02*
X138857982Y-90300533D01*
X138857982Y-90300533D02*
X138824649Y-90433866D01*
X138824649Y-90433866D02*
X138791316Y-90500533D01*
X138791316Y-90500533D02*
X138724649Y-90567200D01*
X138724649Y-90567200D02*
X138624649Y-90600533D01*
X138624649Y-90600533D02*
X138557982Y-90600533D01*
X138557982Y-90600533D02*
X138457982Y-90567200D01*
X138457982Y-90567200D02*
X138424649Y-90533866D01*
X138424649Y-90533866D02*
X138424649Y-90300533D01*
X138424649Y-90300533D02*
X138557982Y-90300533D01*
X138124649Y-90600533D02*
X138124649Y-89900533D01*
X138124649Y-89900533D02*
X137857982Y-89900533D01*
X137857982Y-89900533D02*
X137791316Y-89933866D01*
X137791316Y-89933866D02*
X137757982Y-89967200D01*
X137757982Y-89967200D02*
X137724649Y-90033866D01*
X137724649Y-90033866D02*
X137724649Y-90133866D01*
X137724649Y-90133866D02*
X137757982Y-90200533D01*
X137757982Y-90200533D02*
X137791316Y-90233866D01*
X137791316Y-90233866D02*
X137857982Y-90267200D01*
X137857982Y-90267200D02*
X138124649Y-90267200D01*
X137091316Y-89900533D02*
X137424649Y-89900533D01*
X137424649Y-89900533D02*
X137457982Y-90233866D01*
X137457982Y-90233866D02*
X137424649Y-90200533D01*
X137424649Y-90200533D02*
X137357982Y-90167200D01*
X137357982Y-90167200D02*
X137191316Y-90167200D01*
X137191316Y-90167200D02*
X137124649Y-90200533D01*
X137124649Y-90200533D02*
X137091316Y-90233866D01*
X137091316Y-90233866D02*
X137057982Y-90300533D01*
X137057982Y-90300533D02*
X137057982Y-90467200D01*
X137057982Y-90467200D02*
X137091316Y-90533866D01*
X137091316Y-90533866D02*
X137124649Y-90567200D01*
X137124649Y-90567200D02*
X137191316Y-90600533D01*
X137191316Y-90600533D02*
X137357982Y-90600533D01*
X137357982Y-90600533D02*
X137424649Y-90567200D01*
X137424649Y-90567200D02*
X137457982Y-90533866D01*
X138457982Y-92219866D02*
X138524649Y-92186533D01*
X138524649Y-92186533D02*
X138624649Y-92186533D01*
X138624649Y-92186533D02*
X138724649Y-92219866D01*
X138724649Y-92219866D02*
X138791316Y-92286533D01*
X138791316Y-92286533D02*
X138824649Y-92353200D01*
X138824649Y-92353200D02*
X138857982Y-92486533D01*
X138857982Y-92486533D02*
X138857982Y-92586533D01*
X138857982Y-92586533D02*
X138824649Y-92719866D01*
X138824649Y-92719866D02*
X138791316Y-92786533D01*
X138791316Y-92786533D02*
X138724649Y-92853200D01*
X138724649Y-92853200D02*
X138624649Y-92886533D01*
X138624649Y-92886533D02*
X138557982Y-92886533D01*
X138557982Y-92886533D02*
X138457982Y-92853200D01*
X138457982Y-92853200D02*
X138424649Y-92819866D01*
X138424649Y-92819866D02*
X138424649Y-92586533D01*
X138424649Y-92586533D02*
X138557982Y-92586533D01*
X138124649Y-92886533D02*
X138124649Y-92186533D01*
X138124649Y-92186533D02*
X137724649Y-92886533D01*
X137724649Y-92886533D02*
X137724649Y-92186533D01*
X137391316Y-92886533D02*
X137391316Y-92186533D01*
X137391316Y-92186533D02*
X137224649Y-92186533D01*
X137224649Y-92186533D02*
X137124649Y-92219866D01*
X137124649Y-92219866D02*
X137057983Y-92286533D01*
X137057983Y-92286533D02*
X137024649Y-92353200D01*
X137024649Y-92353200D02*
X136991316Y-92486533D01*
X136991316Y-92486533D02*
X136991316Y-92586533D01*
X136991316Y-92586533D02*
X137024649Y-92719866D01*
X137024649Y-92719866D02*
X137057983Y-92786533D01*
X137057983Y-92786533D02*
X137124649Y-92853200D01*
X137124649Y-92853200D02*
X137224649Y-92886533D01*
X137224649Y-92886533D02*
X137391316Y-92886533D01*
X138457982Y-95013866D02*
X138524649Y-94980533D01*
X138524649Y-94980533D02*
X138624649Y-94980533D01*
X138624649Y-94980533D02*
X138724649Y-95013866D01*
X138724649Y-95013866D02*
X138791316Y-95080533D01*
X138791316Y-95080533D02*
X138824649Y-95147200D01*
X138824649Y-95147200D02*
X138857982Y-95280533D01*
X138857982Y-95280533D02*
X138857982Y-95380533D01*
X138857982Y-95380533D02*
X138824649Y-95513866D01*
X138824649Y-95513866D02*
X138791316Y-95580533D01*
X138791316Y-95580533D02*
X138724649Y-95647200D01*
X138724649Y-95647200D02*
X138624649Y-95680533D01*
X138624649Y-95680533D02*
X138557982Y-95680533D01*
X138557982Y-95680533D02*
X138457982Y-95647200D01*
X138457982Y-95647200D02*
X138424649Y-95613866D01*
X138424649Y-95613866D02*
X138424649Y-95380533D01*
X138424649Y-95380533D02*
X138557982Y-95380533D01*
X138124649Y-95680533D02*
X138124649Y-94980533D01*
X138124649Y-94980533D02*
X137857982Y-94980533D01*
X137857982Y-94980533D02*
X137791316Y-95013866D01*
X137791316Y-95013866D02*
X137757982Y-95047200D01*
X137757982Y-95047200D02*
X137724649Y-95113866D01*
X137724649Y-95113866D02*
X137724649Y-95213866D01*
X137724649Y-95213866D02*
X137757982Y-95280533D01*
X137757982Y-95280533D02*
X137791316Y-95313866D01*
X137791316Y-95313866D02*
X137857982Y-95347200D01*
X137857982Y-95347200D02*
X138124649Y-95347200D01*
X137124649Y-94980533D02*
X137257982Y-94980533D01*
X137257982Y-94980533D02*
X137324649Y-95013866D01*
X137324649Y-95013866D02*
X137357982Y-95047200D01*
X137357982Y-95047200D02*
X137424649Y-95147200D01*
X137424649Y-95147200D02*
X137457982Y-95280533D01*
X137457982Y-95280533D02*
X137457982Y-95547200D01*
X137457982Y-95547200D02*
X137424649Y-95613866D01*
X137424649Y-95613866D02*
X137391316Y-95647200D01*
X137391316Y-95647200D02*
X137324649Y-95680533D01*
X137324649Y-95680533D02*
X137191316Y-95680533D01*
X137191316Y-95680533D02*
X137124649Y-95647200D01*
X137124649Y-95647200D02*
X137091316Y-95613866D01*
X137091316Y-95613866D02*
X137057982Y-95547200D01*
X137057982Y-95547200D02*
X137057982Y-95380533D01*
X137057982Y-95380533D02*
X137091316Y-95313866D01*
X137091316Y-95313866D02*
X137124649Y-95280533D01*
X137124649Y-95280533D02*
X137191316Y-95247200D01*
X137191316Y-95247200D02*
X137324649Y-95247200D01*
X137324649Y-95247200D02*
X137391316Y-95280533D01*
X137391316Y-95280533D02*
X137424649Y-95313866D01*
X137424649Y-95313866D02*
X137457982Y-95380533D01*
X138457982Y-97553866D02*
X138524649Y-97520533D01*
X138524649Y-97520533D02*
X138624649Y-97520533D01*
X138624649Y-97520533D02*
X138724649Y-97553866D01*
X138724649Y-97553866D02*
X138791316Y-97620533D01*
X138791316Y-97620533D02*
X138824649Y-97687200D01*
X138824649Y-97687200D02*
X138857982Y-97820533D01*
X138857982Y-97820533D02*
X138857982Y-97920533D01*
X138857982Y-97920533D02*
X138824649Y-98053866D01*
X138824649Y-98053866D02*
X138791316Y-98120533D01*
X138791316Y-98120533D02*
X138724649Y-98187200D01*
X138724649Y-98187200D02*
X138624649Y-98220533D01*
X138624649Y-98220533D02*
X138557982Y-98220533D01*
X138557982Y-98220533D02*
X138457982Y-98187200D01*
X138457982Y-98187200D02*
X138424649Y-98153866D01*
X138424649Y-98153866D02*
X138424649Y-97920533D01*
X138424649Y-97920533D02*
X138557982Y-97920533D01*
X138124649Y-98220533D02*
X138124649Y-97520533D01*
X138124649Y-97520533D02*
X137857982Y-97520533D01*
X137857982Y-97520533D02*
X137791316Y-97553866D01*
X137791316Y-97553866D02*
X137757982Y-97587200D01*
X137757982Y-97587200D02*
X137724649Y-97653866D01*
X137724649Y-97653866D02*
X137724649Y-97753866D01*
X137724649Y-97753866D02*
X137757982Y-97820533D01*
X137757982Y-97820533D02*
X137791316Y-97853866D01*
X137791316Y-97853866D02*
X137857982Y-97887200D01*
X137857982Y-97887200D02*
X138124649Y-97887200D01*
X137491316Y-97520533D02*
X137024649Y-97520533D01*
X137024649Y-97520533D02*
X137324649Y-98220533D01*
X138457982Y-100093866D02*
X138524649Y-100060533D01*
X138524649Y-100060533D02*
X138624649Y-100060533D01*
X138624649Y-100060533D02*
X138724649Y-100093866D01*
X138724649Y-100093866D02*
X138791316Y-100160533D01*
X138791316Y-100160533D02*
X138824649Y-100227200D01*
X138824649Y-100227200D02*
X138857982Y-100360533D01*
X138857982Y-100360533D02*
X138857982Y-100460533D01*
X138857982Y-100460533D02*
X138824649Y-100593866D01*
X138824649Y-100593866D02*
X138791316Y-100660533D01*
X138791316Y-100660533D02*
X138724649Y-100727200D01*
X138724649Y-100727200D02*
X138624649Y-100760533D01*
X138624649Y-100760533D02*
X138557982Y-100760533D01*
X138557982Y-100760533D02*
X138457982Y-100727200D01*
X138457982Y-100727200D02*
X138424649Y-100693866D01*
X138424649Y-100693866D02*
X138424649Y-100460533D01*
X138424649Y-100460533D02*
X138557982Y-100460533D01*
X138124649Y-100760533D02*
X138124649Y-100060533D01*
X138124649Y-100060533D02*
X137857982Y-100060533D01*
X137857982Y-100060533D02*
X137791316Y-100093866D01*
X137791316Y-100093866D02*
X137757982Y-100127200D01*
X137757982Y-100127200D02*
X137724649Y-100193866D01*
X137724649Y-100193866D02*
X137724649Y-100293866D01*
X137724649Y-100293866D02*
X137757982Y-100360533D01*
X137757982Y-100360533D02*
X137791316Y-100393866D01*
X137791316Y-100393866D02*
X137857982Y-100427200D01*
X137857982Y-100427200D02*
X138124649Y-100427200D01*
X137324649Y-100360533D02*
X137391316Y-100327200D01*
X137391316Y-100327200D02*
X137424649Y-100293866D01*
X137424649Y-100293866D02*
X137457982Y-100227200D01*
X137457982Y-100227200D02*
X137457982Y-100193866D01*
X137457982Y-100193866D02*
X137424649Y-100127200D01*
X137424649Y-100127200D02*
X137391316Y-100093866D01*
X137391316Y-100093866D02*
X137324649Y-100060533D01*
X137324649Y-100060533D02*
X137191316Y-100060533D01*
X137191316Y-100060533D02*
X137124649Y-100093866D01*
X137124649Y-100093866D02*
X137091316Y-100127200D01*
X137091316Y-100127200D02*
X137057982Y-100193866D01*
X137057982Y-100193866D02*
X137057982Y-100227200D01*
X137057982Y-100227200D02*
X137091316Y-100293866D01*
X137091316Y-100293866D02*
X137124649Y-100327200D01*
X137124649Y-100327200D02*
X137191316Y-100360533D01*
X137191316Y-100360533D02*
X137324649Y-100360533D01*
X137324649Y-100360533D02*
X137391316Y-100393866D01*
X137391316Y-100393866D02*
X137424649Y-100427200D01*
X137424649Y-100427200D02*
X137457982Y-100493866D01*
X137457982Y-100493866D02*
X137457982Y-100627200D01*
X137457982Y-100627200D02*
X137424649Y-100693866D01*
X137424649Y-100693866D02*
X137391316Y-100727200D01*
X137391316Y-100727200D02*
X137324649Y-100760533D01*
X137324649Y-100760533D02*
X137191316Y-100760533D01*
X137191316Y-100760533D02*
X137124649Y-100727200D01*
X137124649Y-100727200D02*
X137091316Y-100693866D01*
X137091316Y-100693866D02*
X137057982Y-100627200D01*
X137057982Y-100627200D02*
X137057982Y-100493866D01*
X137057982Y-100493866D02*
X137091316Y-100427200D01*
X137091316Y-100427200D02*
X137124649Y-100393866D01*
X137124649Y-100393866D02*
X137191316Y-100360533D01*
X138457982Y-102633866D02*
X138524649Y-102600533D01*
X138524649Y-102600533D02*
X138624649Y-102600533D01*
X138624649Y-102600533D02*
X138724649Y-102633866D01*
X138724649Y-102633866D02*
X138791316Y-102700533D01*
X138791316Y-102700533D02*
X138824649Y-102767200D01*
X138824649Y-102767200D02*
X138857982Y-102900533D01*
X138857982Y-102900533D02*
X138857982Y-103000533D01*
X138857982Y-103000533D02*
X138824649Y-103133866D01*
X138824649Y-103133866D02*
X138791316Y-103200533D01*
X138791316Y-103200533D02*
X138724649Y-103267200D01*
X138724649Y-103267200D02*
X138624649Y-103300533D01*
X138624649Y-103300533D02*
X138557982Y-103300533D01*
X138557982Y-103300533D02*
X138457982Y-103267200D01*
X138457982Y-103267200D02*
X138424649Y-103233866D01*
X138424649Y-103233866D02*
X138424649Y-103000533D01*
X138424649Y-103000533D02*
X138557982Y-103000533D01*
X138124649Y-103300533D02*
X138124649Y-102600533D01*
X138124649Y-102600533D02*
X137857982Y-102600533D01*
X137857982Y-102600533D02*
X137791316Y-102633866D01*
X137791316Y-102633866D02*
X137757982Y-102667200D01*
X137757982Y-102667200D02*
X137724649Y-102733866D01*
X137724649Y-102733866D02*
X137724649Y-102833866D01*
X137724649Y-102833866D02*
X137757982Y-102900533D01*
X137757982Y-102900533D02*
X137791316Y-102933866D01*
X137791316Y-102933866D02*
X137857982Y-102967200D01*
X137857982Y-102967200D02*
X138124649Y-102967200D01*
X137391316Y-103300533D02*
X137257982Y-103300533D01*
X137257982Y-103300533D02*
X137191316Y-103267200D01*
X137191316Y-103267200D02*
X137157982Y-103233866D01*
X137157982Y-103233866D02*
X137091316Y-103133866D01*
X137091316Y-103133866D02*
X137057982Y-103000533D01*
X137057982Y-103000533D02*
X137057982Y-102733866D01*
X137057982Y-102733866D02*
X137091316Y-102667200D01*
X137091316Y-102667200D02*
X137124649Y-102633866D01*
X137124649Y-102633866D02*
X137191316Y-102600533D01*
X137191316Y-102600533D02*
X137324649Y-102600533D01*
X137324649Y-102600533D02*
X137391316Y-102633866D01*
X137391316Y-102633866D02*
X137424649Y-102667200D01*
X137424649Y-102667200D02*
X137457982Y-102733866D01*
X137457982Y-102733866D02*
X137457982Y-102900533D01*
X137457982Y-102900533D02*
X137424649Y-102967200D01*
X137424649Y-102967200D02*
X137391316Y-103000533D01*
X137391316Y-103000533D02*
X137324649Y-103033866D01*
X137324649Y-103033866D02*
X137191316Y-103033866D01*
X137191316Y-103033866D02*
X137124649Y-103000533D01*
X137124649Y-103000533D02*
X137091316Y-102967200D01*
X137091316Y-102967200D02*
X137057982Y-102900533D01*
X138457982Y-104919866D02*
X138524649Y-104886533D01*
X138524649Y-104886533D02*
X138624649Y-104886533D01*
X138624649Y-104886533D02*
X138724649Y-104919866D01*
X138724649Y-104919866D02*
X138791316Y-104986533D01*
X138791316Y-104986533D02*
X138824649Y-105053200D01*
X138824649Y-105053200D02*
X138857982Y-105186533D01*
X138857982Y-105186533D02*
X138857982Y-105286533D01*
X138857982Y-105286533D02*
X138824649Y-105419866D01*
X138824649Y-105419866D02*
X138791316Y-105486533D01*
X138791316Y-105486533D02*
X138724649Y-105553200D01*
X138724649Y-105553200D02*
X138624649Y-105586533D01*
X138624649Y-105586533D02*
X138557982Y-105586533D01*
X138557982Y-105586533D02*
X138457982Y-105553200D01*
X138457982Y-105553200D02*
X138424649Y-105519866D01*
X138424649Y-105519866D02*
X138424649Y-105286533D01*
X138424649Y-105286533D02*
X138557982Y-105286533D01*
X138124649Y-105586533D02*
X138124649Y-104886533D01*
X138124649Y-104886533D02*
X137724649Y-105586533D01*
X137724649Y-105586533D02*
X137724649Y-104886533D01*
X137391316Y-105586533D02*
X137391316Y-104886533D01*
X137391316Y-104886533D02*
X137224649Y-104886533D01*
X137224649Y-104886533D02*
X137124649Y-104919866D01*
X137124649Y-104919866D02*
X137057983Y-104986533D01*
X137057983Y-104986533D02*
X137024649Y-105053200D01*
X137024649Y-105053200D02*
X136991316Y-105186533D01*
X136991316Y-105186533D02*
X136991316Y-105286533D01*
X136991316Y-105286533D02*
X137024649Y-105419866D01*
X137024649Y-105419866D02*
X137057983Y-105486533D01*
X137057983Y-105486533D02*
X137124649Y-105553200D01*
X137124649Y-105553200D02*
X137224649Y-105586533D01*
X137224649Y-105586533D02*
X137391316Y-105586533D01*
X139219982Y-107459866D02*
X139286649Y-107426533D01*
X139286649Y-107426533D02*
X139386649Y-107426533D01*
X139386649Y-107426533D02*
X139486649Y-107459866D01*
X139486649Y-107459866D02*
X139553316Y-107526533D01*
X139553316Y-107526533D02*
X139586649Y-107593200D01*
X139586649Y-107593200D02*
X139619982Y-107726533D01*
X139619982Y-107726533D02*
X139619982Y-107826533D01*
X139619982Y-107826533D02*
X139586649Y-107959866D01*
X139586649Y-107959866D02*
X139553316Y-108026533D01*
X139553316Y-108026533D02*
X139486649Y-108093200D01*
X139486649Y-108093200D02*
X139386649Y-108126533D01*
X139386649Y-108126533D02*
X139319982Y-108126533D01*
X139319982Y-108126533D02*
X139219982Y-108093200D01*
X139219982Y-108093200D02*
X139186649Y-108059866D01*
X139186649Y-108059866D02*
X139186649Y-107826533D01*
X139186649Y-107826533D02*
X139319982Y-107826533D01*
X138886649Y-108126533D02*
X138886649Y-107426533D01*
X138886649Y-107426533D02*
X138619982Y-107426533D01*
X138619982Y-107426533D02*
X138553316Y-107459866D01*
X138553316Y-107459866D02*
X138519982Y-107493200D01*
X138519982Y-107493200D02*
X138486649Y-107559866D01*
X138486649Y-107559866D02*
X138486649Y-107659866D01*
X138486649Y-107659866D02*
X138519982Y-107726533D01*
X138519982Y-107726533D02*
X138553316Y-107759866D01*
X138553316Y-107759866D02*
X138619982Y-107793200D01*
X138619982Y-107793200D02*
X138886649Y-107793200D01*
X137819982Y-108126533D02*
X138219982Y-108126533D01*
X138019982Y-108126533D02*
X138019982Y-107426533D01*
X138019982Y-107426533D02*
X138086649Y-107526533D01*
X138086649Y-107526533D02*
X138153316Y-107593200D01*
X138153316Y-107593200D02*
X138219982Y-107626533D01*
X137386649Y-107426533D02*
X137319982Y-107426533D01*
X137319982Y-107426533D02*
X137253315Y-107459866D01*
X137253315Y-107459866D02*
X137219982Y-107493200D01*
X137219982Y-107493200D02*
X137186649Y-107559866D01*
X137186649Y-107559866D02*
X137153315Y-107693200D01*
X137153315Y-107693200D02*
X137153315Y-107859866D01*
X137153315Y-107859866D02*
X137186649Y-107993200D01*
X137186649Y-107993200D02*
X137219982Y-108059866D01*
X137219982Y-108059866D02*
X137253315Y-108093200D01*
X137253315Y-108093200D02*
X137319982Y-108126533D01*
X137319982Y-108126533D02*
X137386649Y-108126533D01*
X137386649Y-108126533D02*
X137453315Y-108093200D01*
X137453315Y-108093200D02*
X137486649Y-108059866D01*
X137486649Y-108059866D02*
X137519982Y-107993200D01*
X137519982Y-107993200D02*
X137553315Y-107859866D01*
X137553315Y-107859866D02*
X137553315Y-107693200D01*
X137553315Y-107693200D02*
X137519982Y-107559866D01*
X137519982Y-107559866D02*
X137486649Y-107493200D01*
X137486649Y-107493200D02*
X137453315Y-107459866D01*
X137453315Y-107459866D02*
X137386649Y-107426533D01*
X139219982Y-109999866D02*
X139286649Y-109966533D01*
X139286649Y-109966533D02*
X139386649Y-109966533D01*
X139386649Y-109966533D02*
X139486649Y-109999866D01*
X139486649Y-109999866D02*
X139553316Y-110066533D01*
X139553316Y-110066533D02*
X139586649Y-110133200D01*
X139586649Y-110133200D02*
X139619982Y-110266533D01*
X139619982Y-110266533D02*
X139619982Y-110366533D01*
X139619982Y-110366533D02*
X139586649Y-110499866D01*
X139586649Y-110499866D02*
X139553316Y-110566533D01*
X139553316Y-110566533D02*
X139486649Y-110633200D01*
X139486649Y-110633200D02*
X139386649Y-110666533D01*
X139386649Y-110666533D02*
X139319982Y-110666533D01*
X139319982Y-110666533D02*
X139219982Y-110633200D01*
X139219982Y-110633200D02*
X139186649Y-110599866D01*
X139186649Y-110599866D02*
X139186649Y-110366533D01*
X139186649Y-110366533D02*
X139319982Y-110366533D01*
X138886649Y-110666533D02*
X138886649Y-109966533D01*
X138886649Y-109966533D02*
X138619982Y-109966533D01*
X138619982Y-109966533D02*
X138553316Y-109999866D01*
X138553316Y-109999866D02*
X138519982Y-110033200D01*
X138519982Y-110033200D02*
X138486649Y-110099866D01*
X138486649Y-110099866D02*
X138486649Y-110199866D01*
X138486649Y-110199866D02*
X138519982Y-110266533D01*
X138519982Y-110266533D02*
X138553316Y-110299866D01*
X138553316Y-110299866D02*
X138619982Y-110333200D01*
X138619982Y-110333200D02*
X138886649Y-110333200D01*
X137819982Y-110666533D02*
X138219982Y-110666533D01*
X138019982Y-110666533D02*
X138019982Y-109966533D01*
X138019982Y-109966533D02*
X138086649Y-110066533D01*
X138086649Y-110066533D02*
X138153316Y-110133200D01*
X138153316Y-110133200D02*
X138219982Y-110166533D01*
X137153315Y-110666533D02*
X137553315Y-110666533D01*
X137353315Y-110666533D02*
X137353315Y-109966533D01*
X137353315Y-109966533D02*
X137419982Y-110066533D01*
X137419982Y-110066533D02*
X137486649Y-110133200D01*
X137486649Y-110133200D02*
X137553315Y-110166533D01*
X139219982Y-112539866D02*
X139286649Y-112506533D01*
X139286649Y-112506533D02*
X139386649Y-112506533D01*
X139386649Y-112506533D02*
X139486649Y-112539866D01*
X139486649Y-112539866D02*
X139553316Y-112606533D01*
X139553316Y-112606533D02*
X139586649Y-112673200D01*
X139586649Y-112673200D02*
X139619982Y-112806533D01*
X139619982Y-112806533D02*
X139619982Y-112906533D01*
X139619982Y-112906533D02*
X139586649Y-113039866D01*
X139586649Y-113039866D02*
X139553316Y-113106533D01*
X139553316Y-113106533D02*
X139486649Y-113173200D01*
X139486649Y-113173200D02*
X139386649Y-113206533D01*
X139386649Y-113206533D02*
X139319982Y-113206533D01*
X139319982Y-113206533D02*
X139219982Y-113173200D01*
X139219982Y-113173200D02*
X139186649Y-113139866D01*
X139186649Y-113139866D02*
X139186649Y-112906533D01*
X139186649Y-112906533D02*
X139319982Y-112906533D01*
X138886649Y-113206533D02*
X138886649Y-112506533D01*
X138886649Y-112506533D02*
X138619982Y-112506533D01*
X138619982Y-112506533D02*
X138553316Y-112539866D01*
X138553316Y-112539866D02*
X138519982Y-112573200D01*
X138519982Y-112573200D02*
X138486649Y-112639866D01*
X138486649Y-112639866D02*
X138486649Y-112739866D01*
X138486649Y-112739866D02*
X138519982Y-112806533D01*
X138519982Y-112806533D02*
X138553316Y-112839866D01*
X138553316Y-112839866D02*
X138619982Y-112873200D01*
X138619982Y-112873200D02*
X138886649Y-112873200D01*
X137819982Y-113206533D02*
X138219982Y-113206533D01*
X138019982Y-113206533D02*
X138019982Y-112506533D01*
X138019982Y-112506533D02*
X138086649Y-112606533D01*
X138086649Y-112606533D02*
X138153316Y-112673200D01*
X138153316Y-112673200D02*
X138219982Y-112706533D01*
X137553315Y-112573200D02*
X137519982Y-112539866D01*
X137519982Y-112539866D02*
X137453315Y-112506533D01*
X137453315Y-112506533D02*
X137286649Y-112506533D01*
X137286649Y-112506533D02*
X137219982Y-112539866D01*
X137219982Y-112539866D02*
X137186649Y-112573200D01*
X137186649Y-112573200D02*
X137153315Y-112639866D01*
X137153315Y-112639866D02*
X137153315Y-112706533D01*
X137153315Y-112706533D02*
X137186649Y-112806533D01*
X137186649Y-112806533D02*
X137586649Y-113206533D01*
X137586649Y-113206533D02*
X137153315Y-113206533D01*
X139219982Y-115079866D02*
X139286649Y-115046533D01*
X139286649Y-115046533D02*
X139386649Y-115046533D01*
X139386649Y-115046533D02*
X139486649Y-115079866D01*
X139486649Y-115079866D02*
X139553316Y-115146533D01*
X139553316Y-115146533D02*
X139586649Y-115213200D01*
X139586649Y-115213200D02*
X139619982Y-115346533D01*
X139619982Y-115346533D02*
X139619982Y-115446533D01*
X139619982Y-115446533D02*
X139586649Y-115579866D01*
X139586649Y-115579866D02*
X139553316Y-115646533D01*
X139553316Y-115646533D02*
X139486649Y-115713200D01*
X139486649Y-115713200D02*
X139386649Y-115746533D01*
X139386649Y-115746533D02*
X139319982Y-115746533D01*
X139319982Y-115746533D02*
X139219982Y-115713200D01*
X139219982Y-115713200D02*
X139186649Y-115679866D01*
X139186649Y-115679866D02*
X139186649Y-115446533D01*
X139186649Y-115446533D02*
X139319982Y-115446533D01*
X138886649Y-115746533D02*
X138886649Y-115046533D01*
X138886649Y-115046533D02*
X138619982Y-115046533D01*
X138619982Y-115046533D02*
X138553316Y-115079866D01*
X138553316Y-115079866D02*
X138519982Y-115113200D01*
X138519982Y-115113200D02*
X138486649Y-115179866D01*
X138486649Y-115179866D02*
X138486649Y-115279866D01*
X138486649Y-115279866D02*
X138519982Y-115346533D01*
X138519982Y-115346533D02*
X138553316Y-115379866D01*
X138553316Y-115379866D02*
X138619982Y-115413200D01*
X138619982Y-115413200D02*
X138886649Y-115413200D01*
X137819982Y-115746533D02*
X138219982Y-115746533D01*
X138019982Y-115746533D02*
X138019982Y-115046533D01*
X138019982Y-115046533D02*
X138086649Y-115146533D01*
X138086649Y-115146533D02*
X138153316Y-115213200D01*
X138153316Y-115213200D02*
X138219982Y-115246533D01*
X137586649Y-115046533D02*
X137153315Y-115046533D01*
X137153315Y-115046533D02*
X137386649Y-115313200D01*
X137386649Y-115313200D02*
X137286649Y-115313200D01*
X137286649Y-115313200D02*
X137219982Y-115346533D01*
X137219982Y-115346533D02*
X137186649Y-115379866D01*
X137186649Y-115379866D02*
X137153315Y-115446533D01*
X137153315Y-115446533D02*
X137153315Y-115613200D01*
X137153315Y-115613200D02*
X137186649Y-115679866D01*
X137186649Y-115679866D02*
X137219982Y-115713200D01*
X137219982Y-115713200D02*
X137286649Y-115746533D01*
X137286649Y-115746533D02*
X137486649Y-115746533D01*
X137486649Y-115746533D02*
X137553315Y-115713200D01*
X137553315Y-115713200D02*
X137586649Y-115679866D01*
X139219982Y-117619866D02*
X139286649Y-117586533D01*
X139286649Y-117586533D02*
X139386649Y-117586533D01*
X139386649Y-117586533D02*
X139486649Y-117619866D01*
X139486649Y-117619866D02*
X139553316Y-117686533D01*
X139553316Y-117686533D02*
X139586649Y-117753200D01*
X139586649Y-117753200D02*
X139619982Y-117886533D01*
X139619982Y-117886533D02*
X139619982Y-117986533D01*
X139619982Y-117986533D02*
X139586649Y-118119866D01*
X139586649Y-118119866D02*
X139553316Y-118186533D01*
X139553316Y-118186533D02*
X139486649Y-118253200D01*
X139486649Y-118253200D02*
X139386649Y-118286533D01*
X139386649Y-118286533D02*
X139319982Y-118286533D01*
X139319982Y-118286533D02*
X139219982Y-118253200D01*
X139219982Y-118253200D02*
X139186649Y-118219866D01*
X139186649Y-118219866D02*
X139186649Y-117986533D01*
X139186649Y-117986533D02*
X139319982Y-117986533D01*
X138886649Y-118286533D02*
X138886649Y-117586533D01*
X138886649Y-117586533D02*
X138486649Y-118286533D01*
X138486649Y-118286533D02*
X138486649Y-117586533D01*
X138153316Y-118286533D02*
X138153316Y-117586533D01*
X138153316Y-117586533D02*
X137986649Y-117586533D01*
X137986649Y-117586533D02*
X137886649Y-117619866D01*
X137886649Y-117619866D02*
X137819983Y-117686533D01*
X137819983Y-117686533D02*
X137786649Y-117753200D01*
X137786649Y-117753200D02*
X137753316Y-117886533D01*
X137753316Y-117886533D02*
X137753316Y-117986533D01*
X137753316Y-117986533D02*
X137786649Y-118119866D01*
X137786649Y-118119866D02*
X137819983Y-118186533D01*
X137819983Y-118186533D02*
X137886649Y-118253200D01*
X137886649Y-118253200D02*
X137986649Y-118286533D01*
X137986649Y-118286533D02*
X138153316Y-118286533D01*
X139219982Y-118778905D02*
X139286649Y-118745572D01*
X139286649Y-118745572D02*
X139386649Y-118745572D01*
X139386649Y-118745572D02*
X139486649Y-118778905D01*
X139486649Y-118778905D02*
X139553316Y-118845572D01*
X139553316Y-118845572D02*
X139586649Y-118912239D01*
X139586649Y-118912239D02*
X139619982Y-119045572D01*
X139619982Y-119045572D02*
X139619982Y-119145572D01*
X139619982Y-119145572D02*
X139586649Y-119278905D01*
X139586649Y-119278905D02*
X139553316Y-119345572D01*
X139553316Y-119345572D02*
X139486649Y-119412239D01*
X139486649Y-119412239D02*
X139386649Y-119445572D01*
X139386649Y-119445572D02*
X139319982Y-119445572D01*
X139319982Y-119445572D02*
X139219982Y-119412239D01*
X139219982Y-119412239D02*
X139186649Y-119378905D01*
X139186649Y-119378905D02*
X139186649Y-119145572D01*
X139186649Y-119145572D02*
X139319982Y-119145572D01*
X138886649Y-119445572D02*
X138886649Y-118745572D01*
X138886649Y-118745572D02*
X138619982Y-118745572D01*
X138619982Y-118745572D02*
X138553316Y-118778905D01*
X138553316Y-118778905D02*
X138519982Y-118812239D01*
X138519982Y-118812239D02*
X138486649Y-118878905D01*
X138486649Y-118878905D02*
X138486649Y-118978905D01*
X138486649Y-118978905D02*
X138519982Y-119045572D01*
X138519982Y-119045572D02*
X138553316Y-119078905D01*
X138553316Y-119078905D02*
X138619982Y-119112239D01*
X138619982Y-119112239D02*
X138886649Y-119112239D01*
X137819982Y-119445572D02*
X138219982Y-119445572D01*
X138019982Y-119445572D02*
X138019982Y-118745572D01*
X138019982Y-118745572D02*
X138086649Y-118845572D01*
X138086649Y-118845572D02*
X138153316Y-118912239D01*
X138153316Y-118912239D02*
X138219982Y-118945572D01*
X137219982Y-118978905D02*
X137219982Y-119445572D01*
X137386649Y-118712239D02*
X137553315Y-119212239D01*
X137553315Y-119212239D02*
X137119982Y-119212239D01*
X139219982Y-119905866D02*
X139286649Y-119872533D01*
X139286649Y-119872533D02*
X139386649Y-119872533D01*
X139386649Y-119872533D02*
X139486649Y-119905866D01*
X139486649Y-119905866D02*
X139553316Y-119972533D01*
X139553316Y-119972533D02*
X139586649Y-120039200D01*
X139586649Y-120039200D02*
X139619982Y-120172533D01*
X139619982Y-120172533D02*
X139619982Y-120272533D01*
X139619982Y-120272533D02*
X139586649Y-120405866D01*
X139586649Y-120405866D02*
X139553316Y-120472533D01*
X139553316Y-120472533D02*
X139486649Y-120539200D01*
X139486649Y-120539200D02*
X139386649Y-120572533D01*
X139386649Y-120572533D02*
X139319982Y-120572533D01*
X139319982Y-120572533D02*
X139219982Y-120539200D01*
X139219982Y-120539200D02*
X139186649Y-120505866D01*
X139186649Y-120505866D02*
X139186649Y-120272533D01*
X139186649Y-120272533D02*
X139319982Y-120272533D01*
X138886649Y-120572533D02*
X138886649Y-119872533D01*
X138886649Y-119872533D02*
X138619982Y-119872533D01*
X138619982Y-119872533D02*
X138553316Y-119905866D01*
X138553316Y-119905866D02*
X138519982Y-119939200D01*
X138519982Y-119939200D02*
X138486649Y-120005866D01*
X138486649Y-120005866D02*
X138486649Y-120105866D01*
X138486649Y-120105866D02*
X138519982Y-120172533D01*
X138519982Y-120172533D02*
X138553316Y-120205866D01*
X138553316Y-120205866D02*
X138619982Y-120239200D01*
X138619982Y-120239200D02*
X138886649Y-120239200D01*
X137819982Y-120572533D02*
X138219982Y-120572533D01*
X138019982Y-120572533D02*
X138019982Y-119872533D01*
X138019982Y-119872533D02*
X138086649Y-119972533D01*
X138086649Y-119972533D02*
X138153316Y-120039200D01*
X138153316Y-120039200D02*
X138219982Y-120072533D01*
X137186649Y-119872533D02*
X137519982Y-119872533D01*
X137519982Y-119872533D02*
X137553315Y-120205866D01*
X137553315Y-120205866D02*
X137519982Y-120172533D01*
X137519982Y-120172533D02*
X137453315Y-120139200D01*
X137453315Y-120139200D02*
X137286649Y-120139200D01*
X137286649Y-120139200D02*
X137219982Y-120172533D01*
X137219982Y-120172533D02*
X137186649Y-120205866D01*
X137186649Y-120205866D02*
X137153315Y-120272533D01*
X137153315Y-120272533D02*
X137153315Y-120439200D01*
X137153315Y-120439200D02*
X137186649Y-120505866D01*
X137186649Y-120505866D02*
X137219982Y-120539200D01*
X137219982Y-120539200D02*
X137286649Y-120572533D01*
X137286649Y-120572533D02*
X137453315Y-120572533D01*
X137453315Y-120572533D02*
X137519982Y-120539200D01*
X137519982Y-120539200D02*
X137553315Y-120505866D01*
X151201316Y-84606533D02*
X150767982Y-84606533D01*
X150767982Y-84606533D02*
X151001316Y-84873200D01*
X151001316Y-84873200D02*
X150901316Y-84873200D01*
X150901316Y-84873200D02*
X150834649Y-84906533D01*
X150834649Y-84906533D02*
X150801316Y-84939866D01*
X150801316Y-84939866D02*
X150767982Y-85006533D01*
X150767982Y-85006533D02*
X150767982Y-85173200D01*
X150767982Y-85173200D02*
X150801316Y-85239866D01*
X150801316Y-85239866D02*
X150834649Y-85273200D01*
X150834649Y-85273200D02*
X150901316Y-85306533D01*
X150901316Y-85306533D02*
X151101316Y-85306533D01*
X151101316Y-85306533D02*
X151167982Y-85273200D01*
X151167982Y-85273200D02*
X151201316Y-85239866D01*
X150467982Y-85239866D02*
X150434649Y-85273200D01*
X150434649Y-85273200D02*
X150467982Y-85306533D01*
X150467982Y-85306533D02*
X150501315Y-85273200D01*
X150501315Y-85273200D02*
X150467982Y-85239866D01*
X150467982Y-85239866D02*
X150467982Y-85306533D01*
X150201316Y-84606533D02*
X149767982Y-84606533D01*
X149767982Y-84606533D02*
X150001316Y-84873200D01*
X150001316Y-84873200D02*
X149901316Y-84873200D01*
X149901316Y-84873200D02*
X149834649Y-84906533D01*
X149834649Y-84906533D02*
X149801316Y-84939866D01*
X149801316Y-84939866D02*
X149767982Y-85006533D01*
X149767982Y-85006533D02*
X149767982Y-85173200D01*
X149767982Y-85173200D02*
X149801316Y-85239866D01*
X149801316Y-85239866D02*
X149834649Y-85273200D01*
X149834649Y-85273200D02*
X149901316Y-85306533D01*
X149901316Y-85306533D02*
X150101316Y-85306533D01*
X150101316Y-85306533D02*
X150167982Y-85273200D01*
X150167982Y-85273200D02*
X150201316Y-85239866D01*
X149567982Y-84606533D02*
X149334649Y-85306533D01*
X149334649Y-85306533D02*
X149101315Y-84606533D01*
X151157982Y-89933866D02*
X151224649Y-89900533D01*
X151224649Y-89900533D02*
X151324649Y-89900533D01*
X151324649Y-89900533D02*
X151424649Y-89933866D01*
X151424649Y-89933866D02*
X151491316Y-90000533D01*
X151491316Y-90000533D02*
X151524649Y-90067200D01*
X151524649Y-90067200D02*
X151557982Y-90200533D01*
X151557982Y-90200533D02*
X151557982Y-90300533D01*
X151557982Y-90300533D02*
X151524649Y-90433866D01*
X151524649Y-90433866D02*
X151491316Y-90500533D01*
X151491316Y-90500533D02*
X151424649Y-90567200D01*
X151424649Y-90567200D02*
X151324649Y-90600533D01*
X151324649Y-90600533D02*
X151257982Y-90600533D01*
X151257982Y-90600533D02*
X151157982Y-90567200D01*
X151157982Y-90567200D02*
X151124649Y-90533866D01*
X151124649Y-90533866D02*
X151124649Y-90300533D01*
X151124649Y-90300533D02*
X151257982Y-90300533D01*
X150824649Y-90600533D02*
X150824649Y-89900533D01*
X150824649Y-89900533D02*
X150557982Y-89900533D01*
X150557982Y-89900533D02*
X150491316Y-89933866D01*
X150491316Y-89933866D02*
X150457982Y-89967200D01*
X150457982Y-89967200D02*
X150424649Y-90033866D01*
X150424649Y-90033866D02*
X150424649Y-90133866D01*
X150424649Y-90133866D02*
X150457982Y-90200533D01*
X150457982Y-90200533D02*
X150491316Y-90233866D01*
X150491316Y-90233866D02*
X150557982Y-90267200D01*
X150557982Y-90267200D02*
X150824649Y-90267200D01*
X150157982Y-89967200D02*
X150124649Y-89933866D01*
X150124649Y-89933866D02*
X150057982Y-89900533D01*
X150057982Y-89900533D02*
X149891316Y-89900533D01*
X149891316Y-89900533D02*
X149824649Y-89933866D01*
X149824649Y-89933866D02*
X149791316Y-89967200D01*
X149791316Y-89967200D02*
X149757982Y-90033866D01*
X149757982Y-90033866D02*
X149757982Y-90100533D01*
X149757982Y-90100533D02*
X149791316Y-90200533D01*
X149791316Y-90200533D02*
X150191316Y-90600533D01*
X150191316Y-90600533D02*
X149757982Y-90600533D01*
X149357982Y-90200533D02*
X149424649Y-90167200D01*
X149424649Y-90167200D02*
X149457982Y-90133866D01*
X149457982Y-90133866D02*
X149491315Y-90067200D01*
X149491315Y-90067200D02*
X149491315Y-90033866D01*
X149491315Y-90033866D02*
X149457982Y-89967200D01*
X149457982Y-89967200D02*
X149424649Y-89933866D01*
X149424649Y-89933866D02*
X149357982Y-89900533D01*
X149357982Y-89900533D02*
X149224649Y-89900533D01*
X149224649Y-89900533D02*
X149157982Y-89933866D01*
X149157982Y-89933866D02*
X149124649Y-89967200D01*
X149124649Y-89967200D02*
X149091315Y-90033866D01*
X149091315Y-90033866D02*
X149091315Y-90067200D01*
X149091315Y-90067200D02*
X149124649Y-90133866D01*
X149124649Y-90133866D02*
X149157982Y-90167200D01*
X149157982Y-90167200D02*
X149224649Y-90200533D01*
X149224649Y-90200533D02*
X149357982Y-90200533D01*
X149357982Y-90200533D02*
X149424649Y-90233866D01*
X149424649Y-90233866D02*
X149457982Y-90267200D01*
X149457982Y-90267200D02*
X149491315Y-90333866D01*
X149491315Y-90333866D02*
X149491315Y-90467200D01*
X149491315Y-90467200D02*
X149457982Y-90533866D01*
X149457982Y-90533866D02*
X149424649Y-90567200D01*
X149424649Y-90567200D02*
X149357982Y-90600533D01*
X149357982Y-90600533D02*
X149224649Y-90600533D01*
X149224649Y-90600533D02*
X149157982Y-90567200D01*
X149157982Y-90567200D02*
X149124649Y-90533866D01*
X149124649Y-90533866D02*
X149091315Y-90467200D01*
X149091315Y-90467200D02*
X149091315Y-90333866D01*
X149091315Y-90333866D02*
X149124649Y-90267200D01*
X149124649Y-90267200D02*
X149157982Y-90233866D01*
X149157982Y-90233866D02*
X149224649Y-90200533D01*
X148957982Y-90667200D02*
X148424648Y-90667200D01*
X148291315Y-90400533D02*
X147957982Y-90400533D01*
X148357982Y-90600533D02*
X148124649Y-89900533D01*
X148124649Y-89900533D02*
X147891315Y-90600533D01*
X147691315Y-89967200D02*
X147657982Y-89933866D01*
X147657982Y-89933866D02*
X147591315Y-89900533D01*
X147591315Y-89900533D02*
X147424649Y-89900533D01*
X147424649Y-89900533D02*
X147357982Y-89933866D01*
X147357982Y-89933866D02*
X147324649Y-89967200D01*
X147324649Y-89967200D02*
X147291315Y-90033866D01*
X147291315Y-90033866D02*
X147291315Y-90100533D01*
X147291315Y-90100533D02*
X147324649Y-90200533D01*
X147324649Y-90200533D02*
X147724649Y-90600533D01*
X147724649Y-90600533D02*
X147291315Y-90600533D01*
X151157982Y-92219866D02*
X151224649Y-92186533D01*
X151224649Y-92186533D02*
X151324649Y-92186533D01*
X151324649Y-92186533D02*
X151424649Y-92219866D01*
X151424649Y-92219866D02*
X151491316Y-92286533D01*
X151491316Y-92286533D02*
X151524649Y-92353200D01*
X151524649Y-92353200D02*
X151557982Y-92486533D01*
X151557982Y-92486533D02*
X151557982Y-92586533D01*
X151557982Y-92586533D02*
X151524649Y-92719866D01*
X151524649Y-92719866D02*
X151491316Y-92786533D01*
X151491316Y-92786533D02*
X151424649Y-92853200D01*
X151424649Y-92853200D02*
X151324649Y-92886533D01*
X151324649Y-92886533D02*
X151257982Y-92886533D01*
X151257982Y-92886533D02*
X151157982Y-92853200D01*
X151157982Y-92853200D02*
X151124649Y-92819866D01*
X151124649Y-92819866D02*
X151124649Y-92586533D01*
X151124649Y-92586533D02*
X151257982Y-92586533D01*
X150824649Y-92886533D02*
X150824649Y-92186533D01*
X150824649Y-92186533D02*
X150424649Y-92886533D01*
X150424649Y-92886533D02*
X150424649Y-92186533D01*
X150091316Y-92886533D02*
X150091316Y-92186533D01*
X150091316Y-92186533D02*
X149924649Y-92186533D01*
X149924649Y-92186533D02*
X149824649Y-92219866D01*
X149824649Y-92219866D02*
X149757983Y-92286533D01*
X149757983Y-92286533D02*
X149724649Y-92353200D01*
X149724649Y-92353200D02*
X149691316Y-92486533D01*
X149691316Y-92486533D02*
X149691316Y-92586533D01*
X149691316Y-92586533D02*
X149724649Y-92719866D01*
X149724649Y-92719866D02*
X149757983Y-92786533D01*
X149757983Y-92786533D02*
X149824649Y-92853200D01*
X149824649Y-92853200D02*
X149924649Y-92886533D01*
X149924649Y-92886533D02*
X150091316Y-92886533D01*
X151157982Y-95013866D02*
X151224649Y-94980533D01*
X151224649Y-94980533D02*
X151324649Y-94980533D01*
X151324649Y-94980533D02*
X151424649Y-95013866D01*
X151424649Y-95013866D02*
X151491316Y-95080533D01*
X151491316Y-95080533D02*
X151524649Y-95147200D01*
X151524649Y-95147200D02*
X151557982Y-95280533D01*
X151557982Y-95280533D02*
X151557982Y-95380533D01*
X151557982Y-95380533D02*
X151524649Y-95513866D01*
X151524649Y-95513866D02*
X151491316Y-95580533D01*
X151491316Y-95580533D02*
X151424649Y-95647200D01*
X151424649Y-95647200D02*
X151324649Y-95680533D01*
X151324649Y-95680533D02*
X151257982Y-95680533D01*
X151257982Y-95680533D02*
X151157982Y-95647200D01*
X151157982Y-95647200D02*
X151124649Y-95613866D01*
X151124649Y-95613866D02*
X151124649Y-95380533D01*
X151124649Y-95380533D02*
X151257982Y-95380533D01*
X150824649Y-95680533D02*
X150824649Y-94980533D01*
X150824649Y-94980533D02*
X150557982Y-94980533D01*
X150557982Y-94980533D02*
X150491316Y-95013866D01*
X150491316Y-95013866D02*
X150457982Y-95047200D01*
X150457982Y-95047200D02*
X150424649Y-95113866D01*
X150424649Y-95113866D02*
X150424649Y-95213866D01*
X150424649Y-95213866D02*
X150457982Y-95280533D01*
X150457982Y-95280533D02*
X150491316Y-95313866D01*
X150491316Y-95313866D02*
X150557982Y-95347200D01*
X150557982Y-95347200D02*
X150824649Y-95347200D01*
X150157982Y-95047200D02*
X150124649Y-95013866D01*
X150124649Y-95013866D02*
X150057982Y-94980533D01*
X150057982Y-94980533D02*
X149891316Y-94980533D01*
X149891316Y-94980533D02*
X149824649Y-95013866D01*
X149824649Y-95013866D02*
X149791316Y-95047200D01*
X149791316Y-95047200D02*
X149757982Y-95113866D01*
X149757982Y-95113866D02*
X149757982Y-95180533D01*
X149757982Y-95180533D02*
X149791316Y-95280533D01*
X149791316Y-95280533D02*
X150191316Y-95680533D01*
X150191316Y-95680533D02*
X149757982Y-95680533D01*
X149524649Y-94980533D02*
X149057982Y-94980533D01*
X149057982Y-94980533D02*
X149357982Y-95680533D01*
X148957982Y-95747200D02*
X148424648Y-95747200D01*
X148291315Y-95480533D02*
X147957982Y-95480533D01*
X148357982Y-95680533D02*
X148124649Y-94980533D01*
X148124649Y-94980533D02*
X147891315Y-95680533D01*
X147291315Y-95680533D02*
X147691315Y-95680533D01*
X147491315Y-95680533D02*
X147491315Y-94980533D01*
X147491315Y-94980533D02*
X147557982Y-95080533D01*
X147557982Y-95080533D02*
X147624649Y-95147200D01*
X147624649Y-95147200D02*
X147691315Y-95180533D01*
X151124649Y-100760533D02*
X151357982Y-100427200D01*
X151524649Y-100760533D02*
X151524649Y-100060533D01*
X151524649Y-100060533D02*
X151257982Y-100060533D01*
X151257982Y-100060533D02*
X151191316Y-100093866D01*
X151191316Y-100093866D02*
X151157982Y-100127200D01*
X151157982Y-100127200D02*
X151124649Y-100193866D01*
X151124649Y-100193866D02*
X151124649Y-100293866D01*
X151124649Y-100293866D02*
X151157982Y-100360533D01*
X151157982Y-100360533D02*
X151191316Y-100393866D01*
X151191316Y-100393866D02*
X151257982Y-100427200D01*
X151257982Y-100427200D02*
X151524649Y-100427200D01*
X150824649Y-100060533D02*
X150824649Y-100627200D01*
X150824649Y-100627200D02*
X150791316Y-100693866D01*
X150791316Y-100693866D02*
X150757982Y-100727200D01*
X150757982Y-100727200D02*
X150691316Y-100760533D01*
X150691316Y-100760533D02*
X150557982Y-100760533D01*
X150557982Y-100760533D02*
X150491316Y-100727200D01*
X150491316Y-100727200D02*
X150457982Y-100693866D01*
X150457982Y-100693866D02*
X150424649Y-100627200D01*
X150424649Y-100627200D02*
X150424649Y-100060533D01*
X150091316Y-100760533D02*
X150091316Y-100060533D01*
X150091316Y-100060533D02*
X149691316Y-100760533D01*
X149691316Y-100760533D02*
X149691316Y-100060533D01*
X151157982Y-102633866D02*
X151224649Y-102600533D01*
X151224649Y-102600533D02*
X151324649Y-102600533D01*
X151324649Y-102600533D02*
X151424649Y-102633866D01*
X151424649Y-102633866D02*
X151491316Y-102700533D01*
X151491316Y-102700533D02*
X151524649Y-102767200D01*
X151524649Y-102767200D02*
X151557982Y-102900533D01*
X151557982Y-102900533D02*
X151557982Y-103000533D01*
X151557982Y-103000533D02*
X151524649Y-103133866D01*
X151524649Y-103133866D02*
X151491316Y-103200533D01*
X151491316Y-103200533D02*
X151424649Y-103267200D01*
X151424649Y-103267200D02*
X151324649Y-103300533D01*
X151324649Y-103300533D02*
X151257982Y-103300533D01*
X151257982Y-103300533D02*
X151157982Y-103267200D01*
X151157982Y-103267200D02*
X151124649Y-103233866D01*
X151124649Y-103233866D02*
X151124649Y-103000533D01*
X151124649Y-103000533D02*
X151257982Y-103000533D01*
X150824649Y-103300533D02*
X150824649Y-102600533D01*
X150824649Y-102600533D02*
X150557982Y-102600533D01*
X150557982Y-102600533D02*
X150491316Y-102633866D01*
X150491316Y-102633866D02*
X150457982Y-102667200D01*
X150457982Y-102667200D02*
X150424649Y-102733866D01*
X150424649Y-102733866D02*
X150424649Y-102833866D01*
X150424649Y-102833866D02*
X150457982Y-102900533D01*
X150457982Y-102900533D02*
X150491316Y-102933866D01*
X150491316Y-102933866D02*
X150557982Y-102967200D01*
X150557982Y-102967200D02*
X150824649Y-102967200D01*
X150157982Y-102667200D02*
X150124649Y-102633866D01*
X150124649Y-102633866D02*
X150057982Y-102600533D01*
X150057982Y-102600533D02*
X149891316Y-102600533D01*
X149891316Y-102600533D02*
X149824649Y-102633866D01*
X149824649Y-102633866D02*
X149791316Y-102667200D01*
X149791316Y-102667200D02*
X149757982Y-102733866D01*
X149757982Y-102733866D02*
X149757982Y-102800533D01*
X149757982Y-102800533D02*
X149791316Y-102900533D01*
X149791316Y-102900533D02*
X150191316Y-103300533D01*
X150191316Y-103300533D02*
X149757982Y-103300533D01*
X149491315Y-102667200D02*
X149457982Y-102633866D01*
X149457982Y-102633866D02*
X149391315Y-102600533D01*
X149391315Y-102600533D02*
X149224649Y-102600533D01*
X149224649Y-102600533D02*
X149157982Y-102633866D01*
X149157982Y-102633866D02*
X149124649Y-102667200D01*
X149124649Y-102667200D02*
X149091315Y-102733866D01*
X149091315Y-102733866D02*
X149091315Y-102800533D01*
X149091315Y-102800533D02*
X149124649Y-102900533D01*
X149124649Y-102900533D02*
X149524649Y-103300533D01*
X149524649Y-103300533D02*
X149091315Y-103300533D01*
X151157982Y-104919866D02*
X151224649Y-104886533D01*
X151224649Y-104886533D02*
X151324649Y-104886533D01*
X151324649Y-104886533D02*
X151424649Y-104919866D01*
X151424649Y-104919866D02*
X151491316Y-104986533D01*
X151491316Y-104986533D02*
X151524649Y-105053200D01*
X151524649Y-105053200D02*
X151557982Y-105186533D01*
X151557982Y-105186533D02*
X151557982Y-105286533D01*
X151557982Y-105286533D02*
X151524649Y-105419866D01*
X151524649Y-105419866D02*
X151491316Y-105486533D01*
X151491316Y-105486533D02*
X151424649Y-105553200D01*
X151424649Y-105553200D02*
X151324649Y-105586533D01*
X151324649Y-105586533D02*
X151257982Y-105586533D01*
X151257982Y-105586533D02*
X151157982Y-105553200D01*
X151157982Y-105553200D02*
X151124649Y-105519866D01*
X151124649Y-105519866D02*
X151124649Y-105286533D01*
X151124649Y-105286533D02*
X151257982Y-105286533D01*
X150824649Y-105586533D02*
X150824649Y-104886533D01*
X150824649Y-104886533D02*
X150424649Y-105586533D01*
X150424649Y-105586533D02*
X150424649Y-104886533D01*
X150091316Y-105586533D02*
X150091316Y-104886533D01*
X150091316Y-104886533D02*
X149924649Y-104886533D01*
X149924649Y-104886533D02*
X149824649Y-104919866D01*
X149824649Y-104919866D02*
X149757983Y-104986533D01*
X149757983Y-104986533D02*
X149724649Y-105053200D01*
X149724649Y-105053200D02*
X149691316Y-105186533D01*
X149691316Y-105186533D02*
X149691316Y-105286533D01*
X149691316Y-105286533D02*
X149724649Y-105419866D01*
X149724649Y-105419866D02*
X149757983Y-105486533D01*
X149757983Y-105486533D02*
X149824649Y-105553200D01*
X149824649Y-105553200D02*
X149924649Y-105586533D01*
X149924649Y-105586533D02*
X150091316Y-105586533D01*
X151157982Y-107459866D02*
X151224649Y-107426533D01*
X151224649Y-107426533D02*
X151324649Y-107426533D01*
X151324649Y-107426533D02*
X151424649Y-107459866D01*
X151424649Y-107459866D02*
X151491316Y-107526533D01*
X151491316Y-107526533D02*
X151524649Y-107593200D01*
X151524649Y-107593200D02*
X151557982Y-107726533D01*
X151557982Y-107726533D02*
X151557982Y-107826533D01*
X151557982Y-107826533D02*
X151524649Y-107959866D01*
X151524649Y-107959866D02*
X151491316Y-108026533D01*
X151491316Y-108026533D02*
X151424649Y-108093200D01*
X151424649Y-108093200D02*
X151324649Y-108126533D01*
X151324649Y-108126533D02*
X151257982Y-108126533D01*
X151257982Y-108126533D02*
X151157982Y-108093200D01*
X151157982Y-108093200D02*
X151124649Y-108059866D01*
X151124649Y-108059866D02*
X151124649Y-107826533D01*
X151124649Y-107826533D02*
X151257982Y-107826533D01*
X150824649Y-108126533D02*
X150824649Y-107426533D01*
X150824649Y-107426533D02*
X150557982Y-107426533D01*
X150557982Y-107426533D02*
X150491316Y-107459866D01*
X150491316Y-107459866D02*
X150457982Y-107493200D01*
X150457982Y-107493200D02*
X150424649Y-107559866D01*
X150424649Y-107559866D02*
X150424649Y-107659866D01*
X150424649Y-107659866D02*
X150457982Y-107726533D01*
X150457982Y-107726533D02*
X150491316Y-107759866D01*
X150491316Y-107759866D02*
X150557982Y-107793200D01*
X150557982Y-107793200D02*
X150824649Y-107793200D01*
X150157982Y-107493200D02*
X150124649Y-107459866D01*
X150124649Y-107459866D02*
X150057982Y-107426533D01*
X150057982Y-107426533D02*
X149891316Y-107426533D01*
X149891316Y-107426533D02*
X149824649Y-107459866D01*
X149824649Y-107459866D02*
X149791316Y-107493200D01*
X149791316Y-107493200D02*
X149757982Y-107559866D01*
X149757982Y-107559866D02*
X149757982Y-107626533D01*
X149757982Y-107626533D02*
X149791316Y-107726533D01*
X149791316Y-107726533D02*
X150191316Y-108126533D01*
X150191316Y-108126533D02*
X149757982Y-108126533D01*
X149091315Y-108126533D02*
X149491315Y-108126533D01*
X149291315Y-108126533D02*
X149291315Y-107426533D01*
X149291315Y-107426533D02*
X149357982Y-107526533D01*
X149357982Y-107526533D02*
X149424649Y-107593200D01*
X149424649Y-107593200D02*
X149491315Y-107626533D01*
X151157982Y-109999866D02*
X151224649Y-109966533D01*
X151224649Y-109966533D02*
X151324649Y-109966533D01*
X151324649Y-109966533D02*
X151424649Y-109999866D01*
X151424649Y-109999866D02*
X151491316Y-110066533D01*
X151491316Y-110066533D02*
X151524649Y-110133200D01*
X151524649Y-110133200D02*
X151557982Y-110266533D01*
X151557982Y-110266533D02*
X151557982Y-110366533D01*
X151557982Y-110366533D02*
X151524649Y-110499866D01*
X151524649Y-110499866D02*
X151491316Y-110566533D01*
X151491316Y-110566533D02*
X151424649Y-110633200D01*
X151424649Y-110633200D02*
X151324649Y-110666533D01*
X151324649Y-110666533D02*
X151257982Y-110666533D01*
X151257982Y-110666533D02*
X151157982Y-110633200D01*
X151157982Y-110633200D02*
X151124649Y-110599866D01*
X151124649Y-110599866D02*
X151124649Y-110366533D01*
X151124649Y-110366533D02*
X151257982Y-110366533D01*
X150824649Y-110666533D02*
X150824649Y-109966533D01*
X150824649Y-109966533D02*
X150557982Y-109966533D01*
X150557982Y-109966533D02*
X150491316Y-109999866D01*
X150491316Y-109999866D02*
X150457982Y-110033200D01*
X150457982Y-110033200D02*
X150424649Y-110099866D01*
X150424649Y-110099866D02*
X150424649Y-110199866D01*
X150424649Y-110199866D02*
X150457982Y-110266533D01*
X150457982Y-110266533D02*
X150491316Y-110299866D01*
X150491316Y-110299866D02*
X150557982Y-110333200D01*
X150557982Y-110333200D02*
X150824649Y-110333200D01*
X150157982Y-110033200D02*
X150124649Y-109999866D01*
X150124649Y-109999866D02*
X150057982Y-109966533D01*
X150057982Y-109966533D02*
X149891316Y-109966533D01*
X149891316Y-109966533D02*
X149824649Y-109999866D01*
X149824649Y-109999866D02*
X149791316Y-110033200D01*
X149791316Y-110033200D02*
X149757982Y-110099866D01*
X149757982Y-110099866D02*
X149757982Y-110166533D01*
X149757982Y-110166533D02*
X149791316Y-110266533D01*
X149791316Y-110266533D02*
X150191316Y-110666533D01*
X150191316Y-110666533D02*
X149757982Y-110666533D01*
X149324649Y-109966533D02*
X149257982Y-109966533D01*
X149257982Y-109966533D02*
X149191315Y-109999866D01*
X149191315Y-109999866D02*
X149157982Y-110033200D01*
X149157982Y-110033200D02*
X149124649Y-110099866D01*
X149124649Y-110099866D02*
X149091315Y-110233200D01*
X149091315Y-110233200D02*
X149091315Y-110399866D01*
X149091315Y-110399866D02*
X149124649Y-110533200D01*
X149124649Y-110533200D02*
X149157982Y-110599866D01*
X149157982Y-110599866D02*
X149191315Y-110633200D01*
X149191315Y-110633200D02*
X149257982Y-110666533D01*
X149257982Y-110666533D02*
X149324649Y-110666533D01*
X149324649Y-110666533D02*
X149391315Y-110633200D01*
X149391315Y-110633200D02*
X149424649Y-110599866D01*
X149424649Y-110599866D02*
X149457982Y-110533200D01*
X149457982Y-110533200D02*
X149491315Y-110399866D01*
X149491315Y-110399866D02*
X149491315Y-110233200D01*
X149491315Y-110233200D02*
X149457982Y-110099866D01*
X149457982Y-110099866D02*
X149424649Y-110033200D01*
X149424649Y-110033200D02*
X149391315Y-109999866D01*
X149391315Y-109999866D02*
X149324649Y-109966533D01*
X151157982Y-115079866D02*
X151224649Y-115046533D01*
X151224649Y-115046533D02*
X151324649Y-115046533D01*
X151324649Y-115046533D02*
X151424649Y-115079866D01*
X151424649Y-115079866D02*
X151491316Y-115146533D01*
X151491316Y-115146533D02*
X151524649Y-115213200D01*
X151524649Y-115213200D02*
X151557982Y-115346533D01*
X151557982Y-115346533D02*
X151557982Y-115446533D01*
X151557982Y-115446533D02*
X151524649Y-115579866D01*
X151524649Y-115579866D02*
X151491316Y-115646533D01*
X151491316Y-115646533D02*
X151424649Y-115713200D01*
X151424649Y-115713200D02*
X151324649Y-115746533D01*
X151324649Y-115746533D02*
X151257982Y-115746533D01*
X151257982Y-115746533D02*
X151157982Y-115713200D01*
X151157982Y-115713200D02*
X151124649Y-115679866D01*
X151124649Y-115679866D02*
X151124649Y-115446533D01*
X151124649Y-115446533D02*
X151257982Y-115446533D01*
X150824649Y-115746533D02*
X150824649Y-115046533D01*
X150824649Y-115046533D02*
X150557982Y-115046533D01*
X150557982Y-115046533D02*
X150491316Y-115079866D01*
X150491316Y-115079866D02*
X150457982Y-115113200D01*
X150457982Y-115113200D02*
X150424649Y-115179866D01*
X150424649Y-115179866D02*
X150424649Y-115279866D01*
X150424649Y-115279866D02*
X150457982Y-115346533D01*
X150457982Y-115346533D02*
X150491316Y-115379866D01*
X150491316Y-115379866D02*
X150557982Y-115413200D01*
X150557982Y-115413200D02*
X150824649Y-115413200D01*
X149757982Y-115746533D02*
X150157982Y-115746533D01*
X149957982Y-115746533D02*
X149957982Y-115046533D01*
X149957982Y-115046533D02*
X150024649Y-115146533D01*
X150024649Y-115146533D02*
X150091316Y-115213200D01*
X150091316Y-115213200D02*
X150157982Y-115246533D01*
X149357982Y-115346533D02*
X149424649Y-115313200D01*
X149424649Y-115313200D02*
X149457982Y-115279866D01*
X149457982Y-115279866D02*
X149491315Y-115213200D01*
X149491315Y-115213200D02*
X149491315Y-115179866D01*
X149491315Y-115179866D02*
X149457982Y-115113200D01*
X149457982Y-115113200D02*
X149424649Y-115079866D01*
X149424649Y-115079866D02*
X149357982Y-115046533D01*
X149357982Y-115046533D02*
X149224649Y-115046533D01*
X149224649Y-115046533D02*
X149157982Y-115079866D01*
X149157982Y-115079866D02*
X149124649Y-115113200D01*
X149124649Y-115113200D02*
X149091315Y-115179866D01*
X149091315Y-115179866D02*
X149091315Y-115213200D01*
X149091315Y-115213200D02*
X149124649Y-115279866D01*
X149124649Y-115279866D02*
X149157982Y-115313200D01*
X149157982Y-115313200D02*
X149224649Y-115346533D01*
X149224649Y-115346533D02*
X149357982Y-115346533D01*
X149357982Y-115346533D02*
X149424649Y-115379866D01*
X149424649Y-115379866D02*
X149457982Y-115413200D01*
X149457982Y-115413200D02*
X149491315Y-115479866D01*
X149491315Y-115479866D02*
X149491315Y-115613200D01*
X149491315Y-115613200D02*
X149457982Y-115679866D01*
X149457982Y-115679866D02*
X149424649Y-115713200D01*
X149424649Y-115713200D02*
X149357982Y-115746533D01*
X149357982Y-115746533D02*
X149224649Y-115746533D01*
X149224649Y-115746533D02*
X149157982Y-115713200D01*
X149157982Y-115713200D02*
X149124649Y-115679866D01*
X149124649Y-115679866D02*
X149091315Y-115613200D01*
X149091315Y-115613200D02*
X149091315Y-115479866D01*
X149091315Y-115479866D02*
X149124649Y-115413200D01*
X149124649Y-115413200D02*
X149157982Y-115379866D01*
X149157982Y-115379866D02*
X149224649Y-115346533D01*
X151157982Y-117619866D02*
X151224649Y-117586533D01*
X151224649Y-117586533D02*
X151324649Y-117586533D01*
X151324649Y-117586533D02*
X151424649Y-117619866D01*
X151424649Y-117619866D02*
X151491316Y-117686533D01*
X151491316Y-117686533D02*
X151524649Y-117753200D01*
X151524649Y-117753200D02*
X151557982Y-117886533D01*
X151557982Y-117886533D02*
X151557982Y-117986533D01*
X151557982Y-117986533D02*
X151524649Y-118119866D01*
X151524649Y-118119866D02*
X151491316Y-118186533D01*
X151491316Y-118186533D02*
X151424649Y-118253200D01*
X151424649Y-118253200D02*
X151324649Y-118286533D01*
X151324649Y-118286533D02*
X151257982Y-118286533D01*
X151257982Y-118286533D02*
X151157982Y-118253200D01*
X151157982Y-118253200D02*
X151124649Y-118219866D01*
X151124649Y-118219866D02*
X151124649Y-117986533D01*
X151124649Y-117986533D02*
X151257982Y-117986533D01*
X150824649Y-118286533D02*
X150824649Y-117586533D01*
X150824649Y-117586533D02*
X150424649Y-118286533D01*
X150424649Y-118286533D02*
X150424649Y-117586533D01*
X150091316Y-118286533D02*
X150091316Y-117586533D01*
X150091316Y-117586533D02*
X149924649Y-117586533D01*
X149924649Y-117586533D02*
X149824649Y-117619866D01*
X149824649Y-117619866D02*
X149757983Y-117686533D01*
X149757983Y-117686533D02*
X149724649Y-117753200D01*
X149724649Y-117753200D02*
X149691316Y-117886533D01*
X149691316Y-117886533D02*
X149691316Y-117986533D01*
X149691316Y-117986533D02*
X149724649Y-118119866D01*
X149724649Y-118119866D02*
X149757983Y-118186533D01*
X149757983Y-118186533D02*
X149824649Y-118253200D01*
X149824649Y-118253200D02*
X149924649Y-118286533D01*
X149924649Y-118286533D02*
X150091316Y-118286533D01*
X151157982Y-118778905D02*
X151224649Y-118745572D01*
X151224649Y-118745572D02*
X151324649Y-118745572D01*
X151324649Y-118745572D02*
X151424649Y-118778905D01*
X151424649Y-118778905D02*
X151491316Y-118845572D01*
X151491316Y-118845572D02*
X151524649Y-118912239D01*
X151524649Y-118912239D02*
X151557982Y-119045572D01*
X151557982Y-119045572D02*
X151557982Y-119145572D01*
X151557982Y-119145572D02*
X151524649Y-119278905D01*
X151524649Y-119278905D02*
X151491316Y-119345572D01*
X151491316Y-119345572D02*
X151424649Y-119412239D01*
X151424649Y-119412239D02*
X151324649Y-119445572D01*
X151324649Y-119445572D02*
X151257982Y-119445572D01*
X151257982Y-119445572D02*
X151157982Y-119412239D01*
X151157982Y-119412239D02*
X151124649Y-119378905D01*
X151124649Y-119378905D02*
X151124649Y-119145572D01*
X151124649Y-119145572D02*
X151257982Y-119145572D01*
X150824649Y-119445572D02*
X150824649Y-118745572D01*
X150824649Y-118745572D02*
X150557982Y-118745572D01*
X150557982Y-118745572D02*
X150491316Y-118778905D01*
X150491316Y-118778905D02*
X150457982Y-118812239D01*
X150457982Y-118812239D02*
X150424649Y-118878905D01*
X150424649Y-118878905D02*
X150424649Y-118978905D01*
X150424649Y-118978905D02*
X150457982Y-119045572D01*
X150457982Y-119045572D02*
X150491316Y-119078905D01*
X150491316Y-119078905D02*
X150557982Y-119112239D01*
X150557982Y-119112239D02*
X150824649Y-119112239D01*
X149757982Y-119445572D02*
X150157982Y-119445572D01*
X149957982Y-119445572D02*
X149957982Y-118745572D01*
X149957982Y-118745572D02*
X150024649Y-118845572D01*
X150024649Y-118845572D02*
X150091316Y-118912239D01*
X150091316Y-118912239D02*
X150157982Y-118945572D01*
X149524649Y-118745572D02*
X149057982Y-118745572D01*
X149057982Y-118745572D02*
X149357982Y-119445572D01*
X151157982Y-119905866D02*
X151224649Y-119872533D01*
X151224649Y-119872533D02*
X151324649Y-119872533D01*
X151324649Y-119872533D02*
X151424649Y-119905866D01*
X151424649Y-119905866D02*
X151491316Y-119972533D01*
X151491316Y-119972533D02*
X151524649Y-120039200D01*
X151524649Y-120039200D02*
X151557982Y-120172533D01*
X151557982Y-120172533D02*
X151557982Y-120272533D01*
X151557982Y-120272533D02*
X151524649Y-120405866D01*
X151524649Y-120405866D02*
X151491316Y-120472533D01*
X151491316Y-120472533D02*
X151424649Y-120539200D01*
X151424649Y-120539200D02*
X151324649Y-120572533D01*
X151324649Y-120572533D02*
X151257982Y-120572533D01*
X151257982Y-120572533D02*
X151157982Y-120539200D01*
X151157982Y-120539200D02*
X151124649Y-120505866D01*
X151124649Y-120505866D02*
X151124649Y-120272533D01*
X151124649Y-120272533D02*
X151257982Y-120272533D01*
X150824649Y-120572533D02*
X150824649Y-119872533D01*
X150824649Y-119872533D02*
X150557982Y-119872533D01*
X150557982Y-119872533D02*
X150491316Y-119905866D01*
X150491316Y-119905866D02*
X150457982Y-119939200D01*
X150457982Y-119939200D02*
X150424649Y-120005866D01*
X150424649Y-120005866D02*
X150424649Y-120105866D01*
X150424649Y-120105866D02*
X150457982Y-120172533D01*
X150457982Y-120172533D02*
X150491316Y-120205866D01*
X150491316Y-120205866D02*
X150557982Y-120239200D01*
X150557982Y-120239200D02*
X150824649Y-120239200D01*
X149757982Y-120572533D02*
X150157982Y-120572533D01*
X149957982Y-120572533D02*
X149957982Y-119872533D01*
X149957982Y-119872533D02*
X150024649Y-119972533D01*
X150024649Y-119972533D02*
X150091316Y-120039200D01*
X150091316Y-120039200D02*
X150157982Y-120072533D01*
X149157982Y-119872533D02*
X149291315Y-119872533D01*
X149291315Y-119872533D02*
X149357982Y-119905866D01*
X149357982Y-119905866D02*
X149391315Y-119939200D01*
X149391315Y-119939200D02*
X149457982Y-120039200D01*
X149457982Y-120039200D02*
X149491315Y-120172533D01*
X149491315Y-120172533D02*
X149491315Y-120439200D01*
X149491315Y-120439200D02*
X149457982Y-120505866D01*
X149457982Y-120505866D02*
X149424649Y-120539200D01*
X149424649Y-120539200D02*
X149357982Y-120572533D01*
X149357982Y-120572533D02*
X149224649Y-120572533D01*
X149224649Y-120572533D02*
X149157982Y-120539200D01*
X149157982Y-120539200D02*
X149124649Y-120505866D01*
X149124649Y-120505866D02*
X149091315Y-120439200D01*
X149091315Y-120439200D02*
X149091315Y-120272533D01*
X149091315Y-120272533D02*
X149124649Y-120205866D01*
X149124649Y-120205866D02*
X149157982Y-120172533D01*
X149157982Y-120172533D02*
X149224649Y-120139200D01*
X149224649Y-120139200D02*
X149357982Y-120139200D01*
X149357982Y-120139200D02*
X149424649Y-120172533D01*
X149424649Y-120172533D02*
X149457982Y-120205866D01*
X149457982Y-120205866D02*
X149491315Y-120272533D01*
X151167982Y-96789866D02*
X151234649Y-96756533D01*
X151234649Y-96756533D02*
X151334649Y-96756533D01*
X151334649Y-96756533D02*
X151434649Y-96789866D01*
X151434649Y-96789866D02*
X151501316Y-96856533D01*
X151501316Y-96856533D02*
X151534649Y-96923200D01*
X151534649Y-96923200D02*
X151567982Y-97056533D01*
X151567982Y-97056533D02*
X151567982Y-97156533D01*
X151567982Y-97156533D02*
X151534649Y-97289866D01*
X151534649Y-97289866D02*
X151501316Y-97356533D01*
X151501316Y-97356533D02*
X151434649Y-97423200D01*
X151434649Y-97423200D02*
X151334649Y-97456533D01*
X151334649Y-97456533D02*
X151267982Y-97456533D01*
X151267982Y-97456533D02*
X151167982Y-97423200D01*
X151167982Y-97423200D02*
X151134649Y-97389866D01*
X151134649Y-97389866D02*
X151134649Y-97156533D01*
X151134649Y-97156533D02*
X151267982Y-97156533D01*
X150834649Y-97456533D02*
X150834649Y-96756533D01*
X150834649Y-96756533D02*
X150567982Y-96756533D01*
X150567982Y-96756533D02*
X150501316Y-96789866D01*
X150501316Y-96789866D02*
X150467982Y-96823200D01*
X150467982Y-96823200D02*
X150434649Y-96889866D01*
X150434649Y-96889866D02*
X150434649Y-96989866D01*
X150434649Y-96989866D02*
X150467982Y-97056533D01*
X150467982Y-97056533D02*
X150501316Y-97089866D01*
X150501316Y-97089866D02*
X150567982Y-97123200D01*
X150567982Y-97123200D02*
X150834649Y-97123200D01*
X150167982Y-96823200D02*
X150134649Y-96789866D01*
X150134649Y-96789866D02*
X150067982Y-96756533D01*
X150067982Y-96756533D02*
X149901316Y-96756533D01*
X149901316Y-96756533D02*
X149834649Y-96789866D01*
X149834649Y-96789866D02*
X149801316Y-96823200D01*
X149801316Y-96823200D02*
X149767982Y-96889866D01*
X149767982Y-96889866D02*
X149767982Y-96956533D01*
X149767982Y-96956533D02*
X149801316Y-97056533D01*
X149801316Y-97056533D02*
X150201316Y-97456533D01*
X150201316Y-97456533D02*
X149767982Y-97456533D01*
X149167982Y-96756533D02*
X149301315Y-96756533D01*
X149301315Y-96756533D02*
X149367982Y-96789866D01*
X149367982Y-96789866D02*
X149401315Y-96823200D01*
X149401315Y-96823200D02*
X149467982Y-96923200D01*
X149467982Y-96923200D02*
X149501315Y-97056533D01*
X149501315Y-97056533D02*
X149501315Y-97323200D01*
X149501315Y-97323200D02*
X149467982Y-97389866D01*
X149467982Y-97389866D02*
X149434649Y-97423200D01*
X149434649Y-97423200D02*
X149367982Y-97456533D01*
X149367982Y-97456533D02*
X149234649Y-97456533D01*
X149234649Y-97456533D02*
X149167982Y-97423200D01*
X149167982Y-97423200D02*
X149134649Y-97389866D01*
X149134649Y-97389866D02*
X149101315Y-97323200D01*
X149101315Y-97323200D02*
X149101315Y-97156533D01*
X149101315Y-97156533D02*
X149134649Y-97089866D01*
X149134649Y-97089866D02*
X149167982Y-97056533D01*
X149167982Y-97056533D02*
X149234649Y-97023200D01*
X149234649Y-97023200D02*
X149367982Y-97023200D01*
X149367982Y-97023200D02*
X149434649Y-97056533D01*
X149434649Y-97056533D02*
X149467982Y-97089866D01*
X149467982Y-97089866D02*
X149501315Y-97156533D01*
X148967982Y-97523200D02*
X148434648Y-97523200D01*
X148301315Y-97256533D02*
X147967982Y-97256533D01*
X148367982Y-97456533D02*
X148134649Y-96756533D01*
X148134649Y-96756533D02*
X147901315Y-97456533D01*
X147534649Y-96756533D02*
X147467982Y-96756533D01*
X147467982Y-96756533D02*
X147401315Y-96789866D01*
X147401315Y-96789866D02*
X147367982Y-96823200D01*
X147367982Y-96823200D02*
X147334649Y-96889866D01*
X147334649Y-96889866D02*
X147301315Y-97023200D01*
X147301315Y-97023200D02*
X147301315Y-97189866D01*
X147301315Y-97189866D02*
X147334649Y-97323200D01*
X147334649Y-97323200D02*
X147367982Y-97389866D01*
X147367982Y-97389866D02*
X147401315Y-97423200D01*
X147401315Y-97423200D02*
X147467982Y-97456533D01*
X147467982Y-97456533D02*
X147534649Y-97456533D01*
X147534649Y-97456533D02*
X147601315Y-97423200D01*
X147601315Y-97423200D02*
X147634649Y-97389866D01*
X147634649Y-97389866D02*
X147667982Y-97323200D01*
X147667982Y-97323200D02*
X147701315Y-97189866D01*
X147701315Y-97189866D02*
X147701315Y-97023200D01*
X147701315Y-97023200D02*
X147667982Y-96889866D01*
X147667982Y-96889866D02*
X147634649Y-96823200D01*
X147634649Y-96823200D02*
X147601315Y-96789866D01*
X147601315Y-96789866D02*
X147534649Y-96756533D01*
X152034649Y-77539533D02*
X151801316Y-78239533D01*
X151801316Y-78239533D02*
X151567982Y-77539533D01*
X151101316Y-77872866D02*
X151001316Y-77906200D01*
X151001316Y-77906200D02*
X150967982Y-77939533D01*
X150967982Y-77939533D02*
X150934649Y-78006200D01*
X150934649Y-78006200D02*
X150934649Y-78106200D01*
X150934649Y-78106200D02*
X150967982Y-78172866D01*
X150967982Y-78172866D02*
X151001316Y-78206200D01*
X151001316Y-78206200D02*
X151067982Y-78239533D01*
X151067982Y-78239533D02*
X151334649Y-78239533D01*
X151334649Y-78239533D02*
X151334649Y-77539533D01*
X151334649Y-77539533D02*
X151101316Y-77539533D01*
X151101316Y-77539533D02*
X151034649Y-77572866D01*
X151034649Y-77572866D02*
X151001316Y-77606200D01*
X151001316Y-77606200D02*
X150967982Y-77672866D01*
X150967982Y-77672866D02*
X150967982Y-77739533D01*
X150967982Y-77739533D02*
X151001316Y-77806200D01*
X151001316Y-77806200D02*
X151034649Y-77839533D01*
X151034649Y-77839533D02*
X151101316Y-77872866D01*
X151101316Y-77872866D02*
X151334649Y-77872866D01*
X150634649Y-77539533D02*
X150634649Y-78106200D01*
X150634649Y-78106200D02*
X150601316Y-78172866D01*
X150601316Y-78172866D02*
X150567982Y-78206200D01*
X150567982Y-78206200D02*
X150501316Y-78239533D01*
X150501316Y-78239533D02*
X150367982Y-78239533D01*
X150367982Y-78239533D02*
X150301316Y-78206200D01*
X150301316Y-78206200D02*
X150267982Y-78172866D01*
X150267982Y-78172866D02*
X150234649Y-78106200D01*
X150234649Y-78106200D02*
X150234649Y-77539533D01*
X149934649Y-78206200D02*
X149834649Y-78239533D01*
X149834649Y-78239533D02*
X149667983Y-78239533D01*
X149667983Y-78239533D02*
X149601316Y-78206200D01*
X149601316Y-78206200D02*
X149567983Y-78172866D01*
X149567983Y-78172866D02*
X149534649Y-78106200D01*
X149534649Y-78106200D02*
X149534649Y-78039533D01*
X149534649Y-78039533D02*
X149567983Y-77972866D01*
X149567983Y-77972866D02*
X149601316Y-77939533D01*
X149601316Y-77939533D02*
X149667983Y-77906200D01*
X149667983Y-77906200D02*
X149801316Y-77872866D01*
X149801316Y-77872866D02*
X149867983Y-77839533D01*
X149867983Y-77839533D02*
X149901316Y-77806200D01*
X149901316Y-77806200D02*
X149934649Y-77739533D01*
X149934649Y-77739533D02*
X149934649Y-77672866D01*
X149934649Y-77672866D02*
X149901316Y-77606200D01*
X149901316Y-77606200D02*
X149867983Y-77572866D01*
X149867983Y-77572866D02*
X149801316Y-77539533D01*
X149801316Y-77539533D02*
X149634649Y-77539533D01*
X149634649Y-77539533D02*
X149534649Y-77572866D01*
X152034649Y-78706533D02*
X151801316Y-79406533D01*
X151801316Y-79406533D02*
X151567982Y-78706533D01*
X151367982Y-79373200D02*
X151267982Y-79406533D01*
X151267982Y-79406533D02*
X151101316Y-79406533D01*
X151101316Y-79406533D02*
X151034649Y-79373200D01*
X151034649Y-79373200D02*
X151001316Y-79339866D01*
X151001316Y-79339866D02*
X150967982Y-79273200D01*
X150967982Y-79273200D02*
X150967982Y-79206533D01*
X150967982Y-79206533D02*
X151001316Y-79139866D01*
X151001316Y-79139866D02*
X151034649Y-79106533D01*
X151034649Y-79106533D02*
X151101316Y-79073200D01*
X151101316Y-79073200D02*
X151234649Y-79039866D01*
X151234649Y-79039866D02*
X151301316Y-79006533D01*
X151301316Y-79006533D02*
X151334649Y-78973200D01*
X151334649Y-78973200D02*
X151367982Y-78906533D01*
X151367982Y-78906533D02*
X151367982Y-78839866D01*
X151367982Y-78839866D02*
X151334649Y-78773200D01*
X151334649Y-78773200D02*
X151301316Y-78739866D01*
X151301316Y-78739866D02*
X151234649Y-78706533D01*
X151234649Y-78706533D02*
X151067982Y-78706533D01*
X151067982Y-78706533D02*
X150967982Y-78739866D01*
X150534649Y-79073200D02*
X150534649Y-79406533D01*
X150767982Y-78706533D02*
X150534649Y-79073200D01*
X150534649Y-79073200D02*
X150301315Y-78706533D01*
X150101315Y-79373200D02*
X150001315Y-79406533D01*
X150001315Y-79406533D02*
X149834649Y-79406533D01*
X149834649Y-79406533D02*
X149767982Y-79373200D01*
X149767982Y-79373200D02*
X149734649Y-79339866D01*
X149734649Y-79339866D02*
X149701315Y-79273200D01*
X149701315Y-79273200D02*
X149701315Y-79206533D01*
X149701315Y-79206533D02*
X149734649Y-79139866D01*
X149734649Y-79139866D02*
X149767982Y-79106533D01*
X149767982Y-79106533D02*
X149834649Y-79073200D01*
X149834649Y-79073200D02*
X149967982Y-79039866D01*
X149967982Y-79039866D02*
X150034649Y-79006533D01*
X150034649Y-79006533D02*
X150067982Y-78973200D01*
X150067982Y-78973200D02*
X150101315Y-78906533D01*
X150101315Y-78906533D02*
X150101315Y-78839866D01*
X150101315Y-78839866D02*
X150067982Y-78773200D01*
X150067982Y-78773200D02*
X150034649Y-78739866D01*
X150034649Y-78739866D02*
X149967982Y-78706533D01*
X149967982Y-78706533D02*
X149801315Y-78706533D01*
X149801315Y-78706533D02*
X149701315Y-78739866D01*
X151567982Y-79906866D02*
X151634649Y-79873533D01*
X151634649Y-79873533D02*
X151734649Y-79873533D01*
X151734649Y-79873533D02*
X151834649Y-79906866D01*
X151834649Y-79906866D02*
X151901316Y-79973533D01*
X151901316Y-79973533D02*
X151934649Y-80040200D01*
X151934649Y-80040200D02*
X151967982Y-80173533D01*
X151967982Y-80173533D02*
X151967982Y-80273533D01*
X151967982Y-80273533D02*
X151934649Y-80406866D01*
X151934649Y-80406866D02*
X151901316Y-80473533D01*
X151901316Y-80473533D02*
X151834649Y-80540200D01*
X151834649Y-80540200D02*
X151734649Y-80573533D01*
X151734649Y-80573533D02*
X151667982Y-80573533D01*
X151667982Y-80573533D02*
X151567982Y-80540200D01*
X151567982Y-80540200D02*
X151534649Y-80506866D01*
X151534649Y-80506866D02*
X151534649Y-80273533D01*
X151534649Y-80273533D02*
X151667982Y-80273533D01*
X151234649Y-80573533D02*
X151234649Y-79873533D01*
X151234649Y-79873533D02*
X150834649Y-80573533D01*
X150834649Y-80573533D02*
X150834649Y-79873533D01*
X150501316Y-80573533D02*
X150501316Y-79873533D01*
X150501316Y-79873533D02*
X150334649Y-79873533D01*
X150334649Y-79873533D02*
X150234649Y-79906866D01*
X150234649Y-79906866D02*
X150167983Y-79973533D01*
X150167983Y-79973533D02*
X150134649Y-80040200D01*
X150134649Y-80040200D02*
X150101316Y-80173533D01*
X150101316Y-80173533D02*
X150101316Y-80273533D01*
X150101316Y-80273533D02*
X150134649Y-80406866D01*
X150134649Y-80406866D02*
X150167983Y-80473533D01*
X150167983Y-80473533D02*
X150234649Y-80540200D01*
X150234649Y-80540200D02*
X150334649Y-80573533D01*
X150334649Y-80573533D02*
X150501316Y-80573533D01*
X141516800Y-121367982D02*
X141483466Y-121267982D01*
X141483466Y-121267982D02*
X141483466Y-121101316D01*
X141483466Y-121101316D02*
X141516800Y-121034649D01*
X141516800Y-121034649D02*
X141550133Y-121001316D01*
X141550133Y-121001316D02*
X141616800Y-120967982D01*
X141616800Y-120967982D02*
X141683466Y-120967982D01*
X141683466Y-120967982D02*
X141750133Y-121001316D01*
X141750133Y-121001316D02*
X141783466Y-121034649D01*
X141783466Y-121034649D02*
X141816800Y-121101316D01*
X141816800Y-121101316D02*
X141850133Y-121234649D01*
X141850133Y-121234649D02*
X141883466Y-121301316D01*
X141883466Y-121301316D02*
X141916800Y-121334649D01*
X141916800Y-121334649D02*
X141983466Y-121367982D01*
X141983466Y-121367982D02*
X142050133Y-121367982D01*
X142050133Y-121367982D02*
X142116800Y-121334649D01*
X142116800Y-121334649D02*
X142150133Y-121301316D01*
X142150133Y-121301316D02*
X142183466Y-121234649D01*
X142183466Y-121234649D02*
X142183466Y-121067982D01*
X142183466Y-121067982D02*
X142150133Y-120967982D01*
X142183466Y-120734649D02*
X141483466Y-120567982D01*
X141483466Y-120567982D02*
X141983466Y-120434649D01*
X141983466Y-120434649D02*
X141483466Y-120301315D01*
X141483466Y-120301315D02*
X142183466Y-120134649D01*
X141550133Y-119467982D02*
X141516800Y-119501315D01*
X141516800Y-119501315D02*
X141483466Y-119601315D01*
X141483466Y-119601315D02*
X141483466Y-119667982D01*
X141483466Y-119667982D02*
X141516800Y-119767982D01*
X141516800Y-119767982D02*
X141583466Y-119834649D01*
X141583466Y-119834649D02*
X141650133Y-119867982D01*
X141650133Y-119867982D02*
X141783466Y-119901315D01*
X141783466Y-119901315D02*
X141883466Y-119901315D01*
X141883466Y-119901315D02*
X142016800Y-119867982D01*
X142016800Y-119867982D02*
X142083466Y-119834649D01*
X142083466Y-119834649D02*
X142150133Y-119767982D01*
X142150133Y-119767982D02*
X142183466Y-119667982D01*
X142183466Y-119667982D02*
X142183466Y-119601315D01*
X142183466Y-119601315D02*
X142150133Y-119501315D01*
X142150133Y-119501315D02*
X142116800Y-119467982D01*
X141483466Y-118834649D02*
X141483466Y-119167982D01*
X141483466Y-119167982D02*
X142183466Y-119167982D01*
X141483466Y-118601315D02*
X142183466Y-118601315D01*
X141483466Y-118201315D02*
X141883466Y-118501315D01*
X142183466Y-118201315D02*
X141783466Y-118601315D01*
X144750133Y-120967982D02*
X144783466Y-121034649D01*
X144783466Y-121034649D02*
X144783466Y-121134649D01*
X144783466Y-121134649D02*
X144750133Y-121234649D01*
X144750133Y-121234649D02*
X144683466Y-121301316D01*
X144683466Y-121301316D02*
X144616800Y-121334649D01*
X144616800Y-121334649D02*
X144483466Y-121367982D01*
X144483466Y-121367982D02*
X144383466Y-121367982D01*
X144383466Y-121367982D02*
X144250133Y-121334649D01*
X144250133Y-121334649D02*
X144183466Y-121301316D01*
X144183466Y-121301316D02*
X144116800Y-121234649D01*
X144116800Y-121234649D02*
X144083466Y-121134649D01*
X144083466Y-121134649D02*
X144083466Y-121067982D01*
X144083466Y-121067982D02*
X144116800Y-120967982D01*
X144116800Y-120967982D02*
X144150133Y-120934649D01*
X144150133Y-120934649D02*
X144383466Y-120934649D01*
X144383466Y-120934649D02*
X144383466Y-121067982D01*
X144083466Y-120634649D02*
X144783466Y-120634649D01*
X144783466Y-120634649D02*
X144083466Y-120234649D01*
X144083466Y-120234649D02*
X144783466Y-120234649D01*
X144083466Y-119901316D02*
X144783466Y-119901316D01*
X144783466Y-119901316D02*
X144783466Y-119734649D01*
X144783466Y-119734649D02*
X144750133Y-119634649D01*
X144750133Y-119634649D02*
X144683466Y-119567983D01*
X144683466Y-119567983D02*
X144616800Y-119534649D01*
X144616800Y-119534649D02*
X144483466Y-119501316D01*
X144483466Y-119501316D02*
X144383466Y-119501316D01*
X144383466Y-119501316D02*
X144250133Y-119534649D01*
X144250133Y-119534649D02*
X144183466Y-119567983D01*
X144183466Y-119567983D02*
X144116800Y-119634649D01*
X144116800Y-119634649D02*
X144083466Y-119734649D01*
X144083466Y-119734649D02*
X144083466Y-119901316D01*
X146716800Y-121367982D02*
X146683466Y-121267982D01*
X146683466Y-121267982D02*
X146683466Y-121101316D01*
X146683466Y-121101316D02*
X146716800Y-121034649D01*
X146716800Y-121034649D02*
X146750133Y-121001316D01*
X146750133Y-121001316D02*
X146816800Y-120967982D01*
X146816800Y-120967982D02*
X146883466Y-120967982D01*
X146883466Y-120967982D02*
X146950133Y-121001316D01*
X146950133Y-121001316D02*
X146983466Y-121034649D01*
X146983466Y-121034649D02*
X147016800Y-121101316D01*
X147016800Y-121101316D02*
X147050133Y-121234649D01*
X147050133Y-121234649D02*
X147083466Y-121301316D01*
X147083466Y-121301316D02*
X147116800Y-121334649D01*
X147116800Y-121334649D02*
X147183466Y-121367982D01*
X147183466Y-121367982D02*
X147250133Y-121367982D01*
X147250133Y-121367982D02*
X147316800Y-121334649D01*
X147316800Y-121334649D02*
X147350133Y-121301316D01*
X147350133Y-121301316D02*
X147383466Y-121234649D01*
X147383466Y-121234649D02*
X147383466Y-121067982D01*
X147383466Y-121067982D02*
X147350133Y-120967982D01*
X147383466Y-120734649D02*
X146683466Y-120567982D01*
X146683466Y-120567982D02*
X147183466Y-120434649D01*
X147183466Y-120434649D02*
X146683466Y-120301315D01*
X146683466Y-120301315D02*
X147383466Y-120134649D01*
X146683466Y-119867982D02*
X147383466Y-119867982D01*
X147383466Y-119867982D02*
X147383466Y-119701315D01*
X147383466Y-119701315D02*
X147350133Y-119601315D01*
X147350133Y-119601315D02*
X147283466Y-119534649D01*
X147283466Y-119534649D02*
X147216800Y-119501315D01*
X147216800Y-119501315D02*
X147083466Y-119467982D01*
X147083466Y-119467982D02*
X146983466Y-119467982D01*
X146983466Y-119467982D02*
X146850133Y-119501315D01*
X146850133Y-119501315D02*
X146783466Y-119534649D01*
X146783466Y-119534649D02*
X146716800Y-119601315D01*
X146716800Y-119601315D02*
X146683466Y-119701315D01*
X146683466Y-119701315D02*
X146683466Y-119867982D01*
X146683466Y-119167982D02*
X147383466Y-119167982D01*
X147383466Y-118701316D02*
X147383466Y-118567982D01*
X147383466Y-118567982D02*
X147350133Y-118501316D01*
X147350133Y-118501316D02*
X147283466Y-118434649D01*
X147283466Y-118434649D02*
X147150133Y-118401316D01*
X147150133Y-118401316D02*
X146916800Y-118401316D01*
X146916800Y-118401316D02*
X146783466Y-118434649D01*
X146783466Y-118434649D02*
X146716800Y-118501316D01*
X146716800Y-118501316D02*
X146683466Y-118567982D01*
X146683466Y-118567982D02*
X146683466Y-118701316D01*
X146683466Y-118701316D02*
X146716800Y-118767982D01*
X146716800Y-118767982D02*
X146783466Y-118834649D01*
X146783466Y-118834649D02*
X146916800Y-118867982D01*
X146916800Y-118867982D02*
X147150133Y-118867982D01*
X147150133Y-118867982D02*
X147283466Y-118834649D01*
X147283466Y-118834649D02*
X147350133Y-118767982D01*
X147350133Y-118767982D02*
X147383466Y-118701316D01*
X146916077Y-76039819D02*
X146582744Y-77039819D01*
X146582744Y-77039819D02*
X146249411Y-76039819D01*
X145392268Y-77039819D02*
X145963696Y-77039819D01*
X145677982Y-77039819D02*
X145677982Y-76039819D01*
X145677982Y-76039819D02*
X145773220Y-76182676D01*
X145773220Y-76182676D02*
X145868458Y-76277914D01*
X145868458Y-76277914D02*
X145963696Y-76325533D01*
X144963696Y-76944580D02*
X144916077Y-76992200D01*
X144916077Y-76992200D02*
X144963696Y-77039819D01*
X144963696Y-77039819D02*
X145011315Y-76992200D01*
X145011315Y-76992200D02*
X144963696Y-76944580D01*
X144963696Y-76944580D02*
X144963696Y-77039819D01*
X143963697Y-77039819D02*
X144535125Y-77039819D01*
X144249411Y-77039819D02*
X144249411Y-76039819D01*
X144249411Y-76039819D02*
X144344649Y-76182676D01*
X144344649Y-76182676D02*
X144439887Y-76277914D01*
X144439887Y-76277914D02*
X144535125Y-76325533D01*
X143535125Y-76944580D02*
X143487506Y-76992200D01*
X143487506Y-76992200D02*
X143535125Y-77039819D01*
X143535125Y-77039819D02*
X143582744Y-76992200D01*
X143582744Y-76992200D02*
X143535125Y-76944580D01*
X143535125Y-76944580D02*
X143535125Y-77039819D01*
X142535126Y-77039819D02*
X143106554Y-77039819D01*
X142820840Y-77039819D02*
X142820840Y-76039819D01*
X142820840Y-76039819D02*
X142916078Y-76182676D01*
X142916078Y-76182676D02*
X143011316Y-76277914D01*
X143011316Y-76277914D02*
X143106554Y-76325533D01*
X151157982Y-112539866D02*
X151224649Y-112506533D01*
X151224649Y-112506533D02*
X151324649Y-112506533D01*
X151324649Y-112506533D02*
X151424649Y-112539866D01*
X151424649Y-112539866D02*
X151491316Y-112606533D01*
X151491316Y-112606533D02*
X151524649Y-112673200D01*
X151524649Y-112673200D02*
X151557982Y-112806533D01*
X151557982Y-112806533D02*
X151557982Y-112906533D01*
X151557982Y-112906533D02*
X151524649Y-113039866D01*
X151524649Y-113039866D02*
X151491316Y-113106533D01*
X151491316Y-113106533D02*
X151424649Y-113173200D01*
X151424649Y-113173200D02*
X151324649Y-113206533D01*
X151324649Y-113206533D02*
X151257982Y-113206533D01*
X151257982Y-113206533D02*
X151157982Y-113173200D01*
X151157982Y-113173200D02*
X151124649Y-113139866D01*
X151124649Y-113139866D02*
X151124649Y-112906533D01*
X151124649Y-112906533D02*
X151257982Y-112906533D01*
X150824649Y-113206533D02*
X150824649Y-112506533D01*
X150824649Y-112506533D02*
X150557982Y-112506533D01*
X150557982Y-112506533D02*
X150491316Y-112539866D01*
X150491316Y-112539866D02*
X150457982Y-112573200D01*
X150457982Y-112573200D02*
X150424649Y-112639866D01*
X150424649Y-112639866D02*
X150424649Y-112739866D01*
X150424649Y-112739866D02*
X150457982Y-112806533D01*
X150457982Y-112806533D02*
X150491316Y-112839866D01*
X150491316Y-112839866D02*
X150557982Y-112873200D01*
X150557982Y-112873200D02*
X150824649Y-112873200D01*
X149757982Y-113206533D02*
X150157982Y-113206533D01*
X149957982Y-113206533D02*
X149957982Y-112506533D01*
X149957982Y-112506533D02*
X150024649Y-112606533D01*
X150024649Y-112606533D02*
X150091316Y-112673200D01*
X150091316Y-112673200D02*
X150157982Y-112706533D01*
X149424649Y-113206533D02*
X149291315Y-113206533D01*
X149291315Y-113206533D02*
X149224649Y-113173200D01*
X149224649Y-113173200D02*
X149191315Y-113139866D01*
X149191315Y-113139866D02*
X149124649Y-113039866D01*
X149124649Y-113039866D02*
X149091315Y-112906533D01*
X149091315Y-112906533D02*
X149091315Y-112639866D01*
X149091315Y-112639866D02*
X149124649Y-112573200D01*
X149124649Y-112573200D02*
X149157982Y-112539866D01*
X149157982Y-112539866D02*
X149224649Y-112506533D01*
X149224649Y-112506533D02*
X149357982Y-112506533D01*
X149357982Y-112506533D02*
X149424649Y-112539866D01*
X149424649Y-112539866D02*
X149457982Y-112573200D01*
X149457982Y-112573200D02*
X149491315Y-112639866D01*
X149491315Y-112639866D02*
X149491315Y-112806533D01*
X149491315Y-112806533D02*
X149457982Y-112873200D01*
X149457982Y-112873200D02*
X149424649Y-112906533D01*
X149424649Y-112906533D02*
X149357982Y-112939866D01*
X149357982Y-112939866D02*
X149224649Y-112939866D01*
X149224649Y-112939866D02*
X149157982Y-112906533D01*
X149157982Y-112906533D02*
X149124649Y-112873200D01*
X149124649Y-112873200D02*
X149091315Y-112806533D01*
X153774333Y-71893819D02*
X153774333Y-72608104D01*
X153774333Y-72608104D02*
X153821952Y-72750961D01*
X153821952Y-72750961D02*
X153917190Y-72846200D01*
X153917190Y-72846200D02*
X154060047Y-72893819D01*
X154060047Y-72893819D02*
X154155285Y-72893819D01*
X152869571Y-72227152D02*
X152869571Y-72893819D01*
X153107666Y-71846200D02*
X153345761Y-72560485D01*
X153345761Y-72560485D02*
X152726714Y-72560485D01*
X135867333Y-71893819D02*
X135867333Y-72608104D01*
X135867333Y-72608104D02*
X135914952Y-72750961D01*
X135914952Y-72750961D02*
X136010190Y-72846200D01*
X136010190Y-72846200D02*
X136153047Y-72893819D01*
X136153047Y-72893819D02*
X136248285Y-72893819D01*
X135486380Y-71893819D02*
X134867333Y-71893819D01*
X134867333Y-71893819D02*
X135200666Y-72274771D01*
X135200666Y-72274771D02*
X135057809Y-72274771D01*
X135057809Y-72274771D02*
X134962571Y-72322390D01*
X134962571Y-72322390D02*
X134914952Y-72370009D01*
X134914952Y-72370009D02*
X134867333Y-72465247D01*
X134867333Y-72465247D02*
X134867333Y-72703342D01*
X134867333Y-72703342D02*
X134914952Y-72798580D01*
X134914952Y-72798580D02*
X134962571Y-72846200D01*
X134962571Y-72846200D02*
X135057809Y-72893819D01*
X135057809Y-72893819D02*
X135343523Y-72893819D01*
X135343523Y-72893819D02*
X135438761Y-72846200D01*
X135438761Y-72846200D02*
X135486380Y-72798580D01*
D11*
%TO.C,REF\u002A\u002A*%
X142159123Y-98856386D02*
X142144353Y-98832673D01*
X142122773Y-98806022D01*
X141801227Y-98806022D01*
X141707170Y-98806107D01*
X141633068Y-98806471D01*
X141576296Y-98807276D01*
X141534232Y-98808687D01*
X141504252Y-98810867D01*
X141483733Y-98813979D01*
X141470051Y-98818186D01*
X141460584Y-98823652D01*
X141455918Y-98827528D01*
X141435425Y-98858966D01*
X141436261Y-98894767D01*
X141453736Y-98926127D01*
X141475316Y-98952778D01*
X142122773Y-98952778D01*
X142144353Y-98926127D01*
X142160051Y-98900406D01*
X142165933Y-98879400D01*
X142159123Y-98856386D01*
G36*
X142144353Y-98832673D02*
G01*
X142159123Y-98856386D01*
X142165933Y-98879400D01*
X142160051Y-98900406D01*
X142144353Y-98926127D01*
X142122773Y-98952778D01*
X141475316Y-98952778D01*
X141453736Y-98926127D01*
X141436261Y-98894767D01*
X141435425Y-98858966D01*
X141455918Y-98827528D01*
X141460584Y-98823652D01*
X141470051Y-98818186D01*
X141483733Y-98813979D01*
X141504252Y-98810867D01*
X141534232Y-98808687D01*
X141576296Y-98807276D01*
X141633068Y-98806471D01*
X141707170Y-98806107D01*
X141801227Y-98806022D01*
X142122773Y-98806022D01*
X142144353Y-98832673D01*
G37*
X142143355Y-105968822D02*
X142135782Y-105962242D01*
X142126013Y-105957079D01*
X142111429Y-105953164D01*
X142089415Y-105950324D01*
X142057352Y-105948387D01*
X142012625Y-105947183D01*
X141952615Y-105946539D01*
X141874706Y-105946284D01*
X141799044Y-105946245D01*
X141705198Y-105946314D01*
X141631311Y-105946638D01*
X141574768Y-105947386D01*
X141532951Y-105948732D01*
X141503243Y-105950846D01*
X141483027Y-105953900D01*
X141469686Y-105958066D01*
X141460602Y-105963516D01*
X141454733Y-105968822D01*
X141435053Y-106001826D01*
X141436819Y-106036991D01*
X141458283Y-106068455D01*
X141466663Y-106075684D01*
X141476386Y-106081334D01*
X141490139Y-106085599D01*
X141510611Y-106088673D01*
X141540488Y-106090752D01*
X141582459Y-106092030D01*
X141639211Y-106092701D01*
X141713433Y-106092959D01*
X141797463Y-106093000D01*
X142110515Y-106093000D01*
X142138224Y-106065291D01*
X142161537Y-106031137D01*
X142162377Y-105998006D01*
X142143355Y-105968822D01*
G36*
X141874706Y-105946284D02*
G01*
X141952615Y-105946539D01*
X142012625Y-105947183D01*
X142057352Y-105948387D01*
X142089415Y-105950324D01*
X142111429Y-105953164D01*
X142126013Y-105957079D01*
X142135782Y-105962242D01*
X142143355Y-105968822D01*
X142162377Y-105998006D01*
X142161537Y-106031137D01*
X142138224Y-106065291D01*
X142110515Y-106093000D01*
X141797463Y-106093000D01*
X141713433Y-106092959D01*
X141639211Y-106092701D01*
X141582459Y-106092030D01*
X141540488Y-106090752D01*
X141510611Y-106088673D01*
X141490139Y-106085599D01*
X141476386Y-106081334D01*
X141466663Y-106075684D01*
X141458283Y-106068455D01*
X141436819Y-106036991D01*
X141435053Y-106001826D01*
X141454733Y-105968822D01*
X141460602Y-105963516D01*
X141469686Y-105958066D01*
X141483027Y-105953900D01*
X141503243Y-105950846D01*
X141532951Y-105948732D01*
X141574768Y-105947386D01*
X141631311Y-105946638D01*
X141705198Y-105946314D01*
X141799044Y-105946245D01*
X141874706Y-105946284D01*
G37*
X147408429Y-105318043D02*
X147384191Y-105221768D01*
X147341359Y-105135184D01*
X147281581Y-105060373D01*
X147206506Y-104999418D01*
X147117780Y-104954399D01*
X147021470Y-104928136D01*
X146924205Y-104922286D01*
X146830346Y-104937140D01*
X146742489Y-104970840D01*
X146663230Y-105021528D01*
X146595164Y-105087345D01*
X146540888Y-105166434D01*
X146502998Y-105256934D01*
X146490574Y-105308200D01*
X146483053Y-105352698D01*
X146480081Y-105386999D01*
X146481906Y-105419960D01*
X146488775Y-105460434D01*
X146495750Y-105493531D01*
X146527259Y-105586947D01*
X146578383Y-105670619D01*
X146647571Y-105742665D01*
X146733272Y-105801200D01*
X146760511Y-105815148D01*
X146796878Y-105831586D01*
X146827418Y-105841894D01*
X146859550Y-105847460D01*
X146900693Y-105849669D01*
X146946778Y-105849948D01*
X147031135Y-105845861D01*
X147100414Y-105832446D01*
X147161039Y-105807256D01*
X147219433Y-105767846D01*
X147263698Y-105729298D01*
X147329516Y-105657406D01*
X147374947Y-105582313D01*
X147402150Y-105499562D01*
X147412424Y-105421928D01*
X147408429Y-105318043D01*
G36*
X147021470Y-104928136D02*
G01*
X147117780Y-104954399D01*
X147206506Y-104999418D01*
X147281581Y-105060373D01*
X147341359Y-105135184D01*
X147384191Y-105221768D01*
X147408429Y-105318043D01*
X147412424Y-105421928D01*
X147402150Y-105499562D01*
X147374947Y-105582313D01*
X147329516Y-105657406D01*
X147263698Y-105729298D01*
X147219433Y-105767846D01*
X147161039Y-105807256D01*
X147100414Y-105832446D01*
X147031135Y-105845861D01*
X146946778Y-105849948D01*
X146900693Y-105849669D01*
X146859550Y-105847460D01*
X146827418Y-105841894D01*
X146796878Y-105831586D01*
X146760511Y-105815148D01*
X146733272Y-105801200D01*
X146647571Y-105742665D01*
X146578383Y-105670619D01*
X146527259Y-105586947D01*
X146495750Y-105493531D01*
X146488775Y-105460434D01*
X146481906Y-105419960D01*
X146480081Y-105386999D01*
X146483053Y-105352698D01*
X146490574Y-105308200D01*
X146502998Y-105256934D01*
X146540888Y-105166434D01*
X146595164Y-105087345D01*
X146663230Y-105021528D01*
X146742489Y-104970840D01*
X146830346Y-104937140D01*
X146924205Y-104922286D01*
X147021470Y-104928136D01*
G37*
X142165837Y-98081935D02*
X142165458Y-98003228D01*
X142164667Y-97942137D01*
X142163330Y-97896183D01*
X142161317Y-97862886D01*
X142158494Y-97839764D01*
X142154731Y-97824338D01*
X142149895Y-97814129D01*
X142146178Y-97809187D01*
X142113642Y-97783543D01*
X142079862Y-97780441D01*
X142049174Y-97796289D01*
X142036911Y-97806652D01*
X142028550Y-97817804D01*
X142023343Y-97833965D01*
X142020543Y-97859358D01*
X142019404Y-97898202D01*
X142019179Y-97954720D01*
X142019178Y-97965820D01*
X142019178Y-98111756D01*
X141748244Y-98111756D01*
X141662846Y-98111852D01*
X141597136Y-98112289D01*
X141548226Y-98113288D01*
X141513227Y-98115072D01*
X141489251Y-98117863D01*
X141473407Y-98121883D01*
X141462809Y-98127355D01*
X141454733Y-98134334D01*
X141434888Y-98167266D01*
X141436452Y-98201646D01*
X141459094Y-98232824D01*
X141461900Y-98235114D01*
X141472508Y-98242571D01*
X141484919Y-98248253D01*
X141502150Y-98252399D01*
X141527216Y-98255250D01*
X141563133Y-98257046D01*
X141612917Y-98258028D01*
X141679583Y-98258436D01*
X141755411Y-98258511D01*
X142019178Y-98258511D01*
X142019178Y-98397873D01*
X142019582Y-98457678D01*
X142021160Y-98499082D01*
X142024453Y-98526252D01*
X142030008Y-98543354D01*
X142038369Y-98554557D01*
X142039822Y-98555917D01*
X142073061Y-98572275D01*
X142110638Y-98570828D01*
X142143355Y-98552022D01*
X142149702Y-98544750D01*
X142154734Y-98535373D01*
X142158604Y-98521391D01*
X142161463Y-98500304D01*
X142163465Y-98469611D01*
X142164761Y-98426811D01*
X142165502Y-98369405D01*
X142165842Y-98294890D01*
X142165932Y-98200767D01*
X142165933Y-98180740D01*
X142165837Y-98081935D01*
G36*
X142113642Y-97783543D02*
G01*
X142146178Y-97809187D01*
X142149895Y-97814129D01*
X142154731Y-97824338D01*
X142158494Y-97839764D01*
X142161317Y-97862886D01*
X142163330Y-97896183D01*
X142164667Y-97942137D01*
X142165458Y-98003228D01*
X142165837Y-98081935D01*
X142165933Y-98180740D01*
X142165932Y-98200767D01*
X142165842Y-98294890D01*
X142165502Y-98369405D01*
X142164761Y-98426811D01*
X142163465Y-98469611D01*
X142161463Y-98500304D01*
X142158604Y-98521391D01*
X142154734Y-98535373D01*
X142149702Y-98544750D01*
X142143355Y-98552022D01*
X142110638Y-98570828D01*
X142073061Y-98572275D01*
X142039822Y-98555917D01*
X142038369Y-98554557D01*
X142030008Y-98543354D01*
X142024453Y-98526252D01*
X142021160Y-98499082D01*
X142019582Y-98457678D01*
X142019178Y-98397873D01*
X142019178Y-98258511D01*
X141755411Y-98258511D01*
X141679583Y-98258436D01*
X141612917Y-98258028D01*
X141563133Y-98257046D01*
X141527216Y-98255250D01*
X141502150Y-98252399D01*
X141484919Y-98248253D01*
X141472508Y-98242571D01*
X141461900Y-98235114D01*
X141459094Y-98232824D01*
X141436452Y-98201646D01*
X141434888Y-98167266D01*
X141454733Y-98134334D01*
X141462809Y-98127355D01*
X141473407Y-98121883D01*
X141489251Y-98117863D01*
X141513227Y-98115072D01*
X141548226Y-98113288D01*
X141597136Y-98112289D01*
X141662846Y-98111852D01*
X141748244Y-98111756D01*
X142019178Y-98111756D01*
X142019178Y-97965820D01*
X142019179Y-97954720D01*
X142019404Y-97898202D01*
X142020543Y-97859358D01*
X142023343Y-97833965D01*
X142028550Y-97817804D01*
X142036911Y-97806652D01*
X142049174Y-97796289D01*
X142079862Y-97780441D01*
X142113642Y-97783543D01*
G37*
X142160467Y-96816177D02*
X142138224Y-96784798D01*
X142110515Y-96757089D01*
X141801080Y-96757089D01*
X141709201Y-96757162D01*
X141637160Y-96757505D01*
X141582220Y-96758308D01*
X141541640Y-96759759D01*
X141512683Y-96762048D01*
X141492609Y-96765364D01*
X141478679Y-96769895D01*
X141468155Y-96775831D01*
X141461900Y-96780486D01*
X141437327Y-96811217D01*
X141434659Y-96846504D01*
X141449729Y-96878755D01*
X141458626Y-96889412D01*
X141470443Y-96896536D01*
X141489474Y-96900833D01*
X141520008Y-96903009D01*
X141566338Y-96903772D01*
X141602129Y-96903845D01*
X141736955Y-96903845D01*
X141736955Y-97400556D01*
X141614300Y-97400556D01*
X141558213Y-97401069D01*
X141519667Y-97403124D01*
X141493639Y-97407492D01*
X141475103Y-97414944D01*
X141461900Y-97423953D01*
X141437396Y-97454856D01*
X141434494Y-97489804D01*
X141451911Y-97523262D01*
X141461041Y-97532396D01*
X141473145Y-97538848D01*
X141491999Y-97543103D01*
X141521380Y-97545648D01*
X141565063Y-97546971D01*
X141626825Y-97547557D01*
X141641000Y-97547625D01*
X141757369Y-97548109D01*
X141853273Y-97548359D01*
X141930823Y-97548277D01*
X141992131Y-97547769D01*
X142039310Y-97546738D01*
X142074470Y-97545087D01*
X142099724Y-97542721D01*
X142117183Y-97539543D01*
X142128959Y-97535456D01*
X142137165Y-97530366D01*
X142143355Y-97524734D01*
X142163156Y-97492872D01*
X142160467Y-97459643D01*
X142138224Y-97428265D01*
X142123874Y-97415567D01*
X142108022Y-97407474D01*
X142085446Y-97402958D01*
X142050922Y-97400994D01*
X141999224Y-97400556D01*
X141883711Y-97400556D01*
X141883711Y-96903845D01*
X142002244Y-96903845D01*
X142056852Y-96903338D01*
X142093725Y-96901302D01*
X142117693Y-96896965D01*
X142133585Y-96889553D01*
X142143355Y-96881267D01*
X142163156Y-96849406D01*
X142160467Y-96816177D01*
G36*
X142138224Y-96784798D02*
G01*
X142160467Y-96816177D01*
X142163156Y-96849406D01*
X142143355Y-96881267D01*
X142133585Y-96889553D01*
X142117693Y-96896965D01*
X142093725Y-96901302D01*
X142056852Y-96903338D01*
X142002244Y-96903845D01*
X141883711Y-96903845D01*
X141883711Y-97400556D01*
X141999224Y-97400556D01*
X142050922Y-97400994D01*
X142085446Y-97402958D01*
X142108022Y-97407474D01*
X142123874Y-97415567D01*
X142138224Y-97428265D01*
X142160467Y-97459643D01*
X142163156Y-97492872D01*
X142143355Y-97524734D01*
X142137165Y-97530366D01*
X142128959Y-97535456D01*
X142117183Y-97539543D01*
X142099724Y-97542721D01*
X142074470Y-97545087D01*
X142039310Y-97546738D01*
X141992131Y-97547769D01*
X141930823Y-97548277D01*
X141853273Y-97548359D01*
X141757369Y-97548109D01*
X141641000Y-97547625D01*
X141626825Y-97547557D01*
X141565063Y-97546971D01*
X141521380Y-97545648D01*
X141491999Y-97543103D01*
X141473145Y-97538848D01*
X141461041Y-97532396D01*
X141451911Y-97523262D01*
X141434494Y-97489804D01*
X141437396Y-97454856D01*
X141461900Y-97423953D01*
X141475103Y-97414944D01*
X141493639Y-97407492D01*
X141519667Y-97403124D01*
X141558213Y-97401069D01*
X141614300Y-97400556D01*
X141736955Y-97400556D01*
X141736955Y-96903845D01*
X141602129Y-96903845D01*
X141566338Y-96903772D01*
X141520008Y-96903009D01*
X141489474Y-96900833D01*
X141470443Y-96896536D01*
X141458626Y-96889412D01*
X141449729Y-96878755D01*
X141434659Y-96846504D01*
X141437327Y-96811217D01*
X141461900Y-96780486D01*
X141468155Y-96775831D01*
X141478679Y-96769895D01*
X141492609Y-96765364D01*
X141512683Y-96762048D01*
X141541640Y-96759759D01*
X141582220Y-96758308D01*
X141637160Y-96757505D01*
X141709201Y-96757162D01*
X141801080Y-96757089D01*
X142110515Y-96757089D01*
X142138224Y-96784798D01*
G37*
X142165725Y-102026691D02*
X142161364Y-101897712D01*
X142148139Y-101788009D01*
X142125259Y-101695774D01*
X142091930Y-101619198D01*
X142047362Y-101556473D01*
X141990764Y-101505788D01*
X141921342Y-101465337D01*
X141919649Y-101464541D01*
X141857517Y-101440399D01*
X141802491Y-101431797D01*
X141747113Y-101438769D01*
X141683927Y-101461346D01*
X141674311Y-101465628D01*
X141618034Y-101494828D01*
X141574549Y-101527644D01*
X141537583Y-101569998D01*
X141500865Y-101627810D01*
X141498948Y-101631169D01*
X141474773Y-101681496D01*
X141456718Y-101738379D01*
X141444161Y-101805473D01*
X141436478Y-101886435D01*
X141433047Y-101984918D01*
X141432749Y-102019714D01*
X141432155Y-102185406D01*
X141461900Y-102208803D01*
X141471681Y-102215743D01*
X141483103Y-102221158D01*
X141498905Y-102225235D01*
X141521825Y-102228163D01*
X141554604Y-102230133D01*
X141578911Y-102230775D01*
X141578911Y-102074156D01*
X141578911Y-101980274D01*
X141580517Y-101925336D01*
X141584745Y-101868940D01*
X141590708Y-101822655D01*
X141591210Y-101819861D01*
X141613264Y-101737652D01*
X141646400Y-101673886D01*
X141692153Y-101626548D01*
X141752061Y-101593618D01*
X141767939Y-101587892D01*
X141792667Y-101582279D01*
X141817098Y-101584709D01*
X141849600Y-101596533D01*
X141865566Y-101603660D01*
X141907994Y-101627000D01*
X141937760Y-101655120D01*
X141958489Y-101686060D01*
X141985463Y-101748034D01*
X142005002Y-101827349D01*
X142016254Y-101919747D01*
X142018730Y-101986667D01*
X142019178Y-102074156D01*
X141578911Y-102074156D01*
X141578911Y-102230775D01*
X141599979Y-102231332D01*
X141660689Y-102231950D01*
X141739474Y-102232175D01*
X141801080Y-102232200D01*
X142110515Y-102232200D01*
X142138224Y-102204491D01*
X142149456Y-102192194D01*
X142157147Y-102178897D01*
X142161960Y-102160328D01*
X142164554Y-102132214D01*
X142165590Y-102090283D01*
X142165730Y-102030263D01*
X142165725Y-102026691D01*
G36*
X141857517Y-101440399D02*
G01*
X141919649Y-101464541D01*
X141921342Y-101465337D01*
X141990764Y-101505788D01*
X142047362Y-101556473D01*
X142091930Y-101619198D01*
X142125259Y-101695774D01*
X142148139Y-101788009D01*
X142161364Y-101897712D01*
X142165725Y-102026691D01*
X142165730Y-102030263D01*
X142165590Y-102090283D01*
X142164554Y-102132214D01*
X142161960Y-102160328D01*
X142157147Y-102178897D01*
X142149456Y-102192194D01*
X142138224Y-102204491D01*
X142110515Y-102232200D01*
X141801080Y-102232200D01*
X141739474Y-102232175D01*
X141660689Y-102231950D01*
X141599979Y-102231332D01*
X141578911Y-102230775D01*
X141554604Y-102230133D01*
X141521825Y-102228163D01*
X141498905Y-102225235D01*
X141483103Y-102221158D01*
X141471681Y-102215743D01*
X141461900Y-102208803D01*
X141432155Y-102185406D01*
X141432749Y-102019714D01*
X141433047Y-101984918D01*
X141433209Y-101980274D01*
X141578911Y-101980274D01*
X141578911Y-102074156D01*
X142019178Y-102074156D01*
X142018730Y-101986667D01*
X142016254Y-101919747D01*
X142005002Y-101827349D01*
X141985463Y-101748034D01*
X141958489Y-101686060D01*
X141937760Y-101655120D01*
X141907994Y-101627000D01*
X141865566Y-101603660D01*
X141849600Y-101596533D01*
X141817098Y-101584709D01*
X141792667Y-101582279D01*
X141767939Y-101587892D01*
X141752061Y-101593618D01*
X141692153Y-101626548D01*
X141646400Y-101673886D01*
X141613264Y-101737652D01*
X141591210Y-101819861D01*
X141590708Y-101822655D01*
X141584745Y-101868940D01*
X141580517Y-101925336D01*
X141578911Y-101980274D01*
X141433209Y-101980274D01*
X141436478Y-101886435D01*
X141444161Y-101805473D01*
X141456718Y-101738379D01*
X141474773Y-101681496D01*
X141498948Y-101631169D01*
X141500865Y-101627810D01*
X141537583Y-101569998D01*
X141574549Y-101527644D01*
X141618034Y-101494828D01*
X141674311Y-101465628D01*
X141683927Y-101461346D01*
X141747113Y-101438769D01*
X141802491Y-101431797D01*
X141857517Y-101440399D01*
G37*
X142165934Y-109166371D02*
X142165533Y-109126889D01*
X142162741Y-109011200D01*
X142154450Y-108914311D01*
X142139768Y-108832919D01*
X142117807Y-108763723D01*
X142087678Y-108703420D01*
X142048490Y-108648708D01*
X142031468Y-108629167D01*
X141991637Y-108596750D01*
X141937587Y-108567520D01*
X141877677Y-108544991D01*
X141820261Y-108532679D01*
X141799044Y-108531400D01*
X141740231Y-108539417D01*
X141675987Y-108560899D01*
X141615179Y-108591999D01*
X141566670Y-108628866D01*
X141560818Y-108634854D01*
X141519679Y-108685579D01*
X141487565Y-108741125D01*
X141463635Y-108804696D01*
X141447047Y-108879494D01*
X141436959Y-108968722D01*
X141432531Y-109075582D01*
X141432155Y-109124528D01*
X141432455Y-109186762D01*
X141433708Y-109230528D01*
X141436446Y-109259931D01*
X141441199Y-109279079D01*
X141448499Y-109292077D01*
X141454733Y-109299045D01*
X141462306Y-109305626D01*
X141472076Y-109310788D01*
X141486660Y-109314703D01*
X141508674Y-109317543D01*
X141540736Y-109319480D01*
X141585464Y-109320684D01*
X141645474Y-109321328D01*
X141723383Y-109321583D01*
X141799044Y-109321622D01*
X141899959Y-109321870D01*
X141980573Y-109321817D01*
X142019178Y-109320857D01*
X142019178Y-109174867D01*
X141578911Y-109174867D01*
X141578996Y-109081734D01*
X141580604Y-109025693D01*
X141584744Y-108966999D01*
X141590536Y-108918028D01*
X141590774Y-108916538D01*
X141609910Y-108837392D01*
X141639713Y-108776002D01*
X141682122Y-108729305D01*
X141728039Y-108699635D01*
X141778974Y-108681353D01*
X141826800Y-108682771D01*
X141878067Y-108703988D01*
X141931101Y-108745489D01*
X141970400Y-108802998D01*
X141996669Y-108877750D01*
X142005965Y-108927708D01*
X142012493Y-108984416D01*
X142017218Y-109044519D01*
X142019183Y-109095639D01*
X142019192Y-109098667D01*
X142019178Y-109174867D01*
X142019178Y-109320857D01*
X142043149Y-109320260D01*
X142089945Y-109315998D01*
X142123222Y-109307830D01*
X142145241Y-109294556D01*
X142158261Y-109274974D01*
X142164543Y-109247883D01*
X142166347Y-109212082D01*
X142165934Y-109166371D01*
G36*
X141820261Y-108532679D02*
G01*
X141877677Y-108544991D01*
X141937587Y-108567520D01*
X141991637Y-108596750D01*
X142031468Y-108629167D01*
X142048490Y-108648708D01*
X142087678Y-108703420D01*
X142117807Y-108763723D01*
X142139768Y-108832919D01*
X142154450Y-108914311D01*
X142162741Y-109011200D01*
X142165533Y-109126889D01*
X142165934Y-109166371D01*
X142166347Y-109212082D01*
X142164543Y-109247883D01*
X142158261Y-109274974D01*
X142145241Y-109294556D01*
X142123222Y-109307830D01*
X142089945Y-109315998D01*
X142043149Y-109320260D01*
X142019178Y-109320857D01*
X141980573Y-109321817D01*
X141899959Y-109321870D01*
X141799044Y-109321622D01*
X141723383Y-109321583D01*
X141645474Y-109321328D01*
X141585464Y-109320684D01*
X141540736Y-109319480D01*
X141508674Y-109317543D01*
X141486660Y-109314703D01*
X141472076Y-109310788D01*
X141462306Y-109305626D01*
X141454733Y-109299045D01*
X141448499Y-109292077D01*
X141441199Y-109279079D01*
X141436446Y-109259931D01*
X141433708Y-109230528D01*
X141432455Y-109186762D01*
X141432398Y-109174867D01*
X141578911Y-109174867D01*
X142019178Y-109174867D01*
X142019192Y-109098667D01*
X142019183Y-109095639D01*
X142017218Y-109044519D01*
X142012493Y-108984416D01*
X142005965Y-108927708D01*
X141996669Y-108877750D01*
X141970400Y-108802998D01*
X141931101Y-108745489D01*
X141878067Y-108703988D01*
X141826800Y-108682771D01*
X141778974Y-108681353D01*
X141728039Y-108699635D01*
X141682122Y-108729305D01*
X141639713Y-108776002D01*
X141609910Y-108837392D01*
X141590774Y-108916538D01*
X141590536Y-108918028D01*
X141584744Y-108966999D01*
X141580604Y-109025693D01*
X141578996Y-109081734D01*
X141578911Y-109174867D01*
X141432398Y-109174867D01*
X141432155Y-109124528D01*
X141432531Y-109075582D01*
X141436959Y-108968722D01*
X141447047Y-108879494D01*
X141463635Y-108804696D01*
X141487565Y-108741125D01*
X141519679Y-108685579D01*
X141560818Y-108634854D01*
X141566670Y-108628866D01*
X141615179Y-108591999D01*
X141675987Y-108560899D01*
X141740231Y-108539417D01*
X141799044Y-108531400D01*
X141820261Y-108532679D01*
G37*
X142161552Y-104345114D02*
X142147727Y-104321548D01*
X142125119Y-104290735D01*
X142092662Y-104251078D01*
X142049292Y-104200980D01*
X141993942Y-104138843D01*
X141925549Y-104063072D01*
X141846916Y-103976334D01*
X141683122Y-103795711D01*
X141902971Y-103790067D01*
X141978649Y-103788029D01*
X142035006Y-103786063D01*
X142075294Y-103783734D01*
X142102765Y-103780606D01*
X142120671Y-103776245D01*
X142132263Y-103770216D01*
X142140792Y-103762084D01*
X142144377Y-103757772D01*
X142163330Y-103723241D01*
X142160559Y-103690383D01*
X142144367Y-103664318D01*
X142122801Y-103637667D01*
X141807849Y-103634352D01*
X141715221Y-103633435D01*
X141642456Y-103632968D01*
X141586839Y-103633113D01*
X141545658Y-103634032D01*
X141516197Y-103635887D01*
X141495745Y-103638839D01*
X141481587Y-103643050D01*
X141471009Y-103648682D01*
X141462526Y-103654927D01*
X141446793Y-103668439D01*
X141436364Y-103681883D01*
X141432361Y-103697124D01*
X141435906Y-103716026D01*
X141448121Y-103740455D01*
X141470129Y-103772273D01*
X141503051Y-103813348D01*
X141548009Y-103865542D01*
X141606125Y-103930722D01*
X141672901Y-104004556D01*
X141913542Y-104269845D01*
X141694411Y-104275489D01*
X141618872Y-104277531D01*
X141562646Y-104279502D01*
X141522476Y-104281839D01*
X141495104Y-104284981D01*
X141477272Y-104289364D01*
X141465721Y-104295424D01*
X141457193Y-104303600D01*
X141453718Y-104307784D01*
X141434628Y-104344765D01*
X141437507Y-104379708D01*
X141461900Y-104410136D01*
X141471714Y-104417097D01*
X141483174Y-104422523D01*
X141499032Y-104426603D01*
X141522037Y-104429529D01*
X141554938Y-104431492D01*
X141600484Y-104432683D01*
X141661427Y-104433292D01*
X141740514Y-104433511D01*
X141799044Y-104433534D01*
X141890593Y-104433460D01*
X141962313Y-104433113D01*
X142016955Y-104432301D01*
X142057268Y-104430833D01*
X142086002Y-104428519D01*
X142105907Y-104425167D01*
X142119732Y-104420588D01*
X142130228Y-104414589D01*
X142136189Y-104410136D01*
X142150309Y-104398850D01*
X142160971Y-104388301D01*
X142167108Y-104376893D01*
X142167657Y-104363030D01*
X142161552Y-104345114D01*
G36*
X141715221Y-103633435D02*
G01*
X141807849Y-103634352D01*
X142122801Y-103637667D01*
X142144367Y-103664318D01*
X142160559Y-103690383D01*
X142163330Y-103723241D01*
X142144377Y-103757772D01*
X142140792Y-103762084D01*
X142132263Y-103770216D01*
X142120671Y-103776245D01*
X142102765Y-103780606D01*
X142075294Y-103783734D01*
X142035006Y-103786063D01*
X141978649Y-103788029D01*
X141902971Y-103790067D01*
X141683122Y-103795711D01*
X141846916Y-103976334D01*
X141925549Y-104063072D01*
X141993942Y-104138843D01*
X142049292Y-104200980D01*
X142092662Y-104251078D01*
X142125119Y-104290735D01*
X142147727Y-104321548D01*
X142161552Y-104345114D01*
X142167657Y-104363030D01*
X142167108Y-104376893D01*
X142160971Y-104388301D01*
X142150309Y-104398850D01*
X142136189Y-104410136D01*
X142130228Y-104414589D01*
X142119732Y-104420588D01*
X142105907Y-104425167D01*
X142086002Y-104428519D01*
X142057268Y-104430833D01*
X142016955Y-104432301D01*
X141962313Y-104433113D01*
X141890593Y-104433460D01*
X141799044Y-104433534D01*
X141740514Y-104433511D01*
X141661427Y-104433292D01*
X141600484Y-104432683D01*
X141554938Y-104431492D01*
X141522037Y-104429529D01*
X141499032Y-104426603D01*
X141483174Y-104422523D01*
X141471714Y-104417097D01*
X141461900Y-104410136D01*
X141437507Y-104379708D01*
X141434628Y-104344765D01*
X141453718Y-104307784D01*
X141457193Y-104303600D01*
X141465721Y-104295424D01*
X141477272Y-104289364D01*
X141495104Y-104284981D01*
X141522476Y-104281839D01*
X141562646Y-104279502D01*
X141618872Y-104277531D01*
X141694411Y-104275489D01*
X141913542Y-104269845D01*
X141672901Y-104004556D01*
X141606125Y-103930722D01*
X141548009Y-103865542D01*
X141503051Y-103813348D01*
X141470129Y-103772273D01*
X141448121Y-103740455D01*
X141435906Y-103716026D01*
X141432361Y-103697124D01*
X141436364Y-103681883D01*
X141446793Y-103668439D01*
X141462526Y-103654927D01*
X141471009Y-103648682D01*
X141481587Y-103643050D01*
X141495745Y-103638839D01*
X141516197Y-103635887D01*
X141545658Y-103634032D01*
X141586839Y-103633113D01*
X141642456Y-103632968D01*
X141715221Y-103633435D01*
G37*
X142160401Y-104995081D02*
X142148905Y-104926565D01*
X142131033Y-104873943D01*
X142107501Y-104839708D01*
X142094076Y-104830379D01*
X142062852Y-104820893D01*
X142034605Y-104827277D01*
X142007818Y-104847430D01*
X141995287Y-104878745D01*
X141996304Y-104924183D01*
X142003094Y-104959326D01*
X142016029Y-105037419D01*
X142017258Y-105117226D01*
X142006759Y-105206555D01*
X142002310Y-105231229D01*
X141978892Y-105314291D01*
X141944055Y-105379273D01*
X141898396Y-105425461D01*
X141842506Y-105452145D01*
X141813612Y-105457663D01*
X141754988Y-105454051D01*
X141703121Y-105430729D01*
X141659022Y-105389824D01*
X141623701Y-105333459D01*
X141598171Y-105263760D01*
X141583441Y-105182852D01*
X141580522Y-105092860D01*
X141590425Y-104995910D01*
X141591359Y-104990436D01*
X141598541Y-104951875D01*
X141605479Y-104930494D01*
X141615773Y-104921227D01*
X141633024Y-104919006D01*
X141642159Y-104918956D01*
X141680511Y-104918956D01*
X141680511Y-104987431D01*
X141684653Y-105047900D01*
X141697853Y-105089165D01*
X141721270Y-105113175D01*
X141756064Y-105121877D01*
X141760606Y-105121983D01*
X141790346Y-105116892D01*
X141811581Y-105099433D01*
X141825634Y-105066939D01*
X141833827Y-105016743D01*
X141836839Y-104968123D01*
X141838567Y-104897456D01*
X141835930Y-104846198D01*
X141826200Y-104811239D01*
X141806647Y-104789470D01*
X141774544Y-104777780D01*
X141727162Y-104773060D01*
X141664929Y-104772200D01*
X141595465Y-104773609D01*
X141548214Y-104777848D01*
X141522988Y-104784936D01*
X141521012Y-104786311D01*
X141489492Y-104825228D01*
X141464530Y-104882286D01*
X141446660Y-104953869D01*
X141436414Y-105036358D01*
X141434327Y-105126139D01*
X141440932Y-105219592D01*
X141449044Y-105274556D01*
X141473446Y-105360766D01*
X141513338Y-105440892D01*
X141565113Y-105507977D01*
X141575461Y-105518173D01*
X141618965Y-105551302D01*
X141672882Y-105581194D01*
X141729408Y-105604357D01*
X141780741Y-105617298D01*
X141800456Y-105618858D01*
X141841581Y-105612218D01*
X141892748Y-105594568D01*
X141946606Y-105569297D01*
X141995805Y-105539789D01*
X142028666Y-105513719D01*
X142077548Y-105452765D01*
X142116455Y-105373969D01*
X142144506Y-105280157D01*
X142160821Y-105174150D01*
X142164808Y-105077000D01*
X142160401Y-104995081D01*
G36*
X141727162Y-104773060D02*
G01*
X141774544Y-104777780D01*
X141806647Y-104789470D01*
X141826200Y-104811239D01*
X141835930Y-104846198D01*
X141838567Y-104897456D01*
X141836839Y-104968123D01*
X141833827Y-105016743D01*
X141825634Y-105066939D01*
X141811581Y-105099433D01*
X141790346Y-105116892D01*
X141760606Y-105121983D01*
X141756064Y-105121877D01*
X141721270Y-105113175D01*
X141697853Y-105089165D01*
X141684653Y-105047900D01*
X141680511Y-104987431D01*
X141680511Y-104918956D01*
X141642159Y-104918956D01*
X141633024Y-104919006D01*
X141615773Y-104921227D01*
X141605479Y-104930494D01*
X141598541Y-104951875D01*
X141591359Y-104990436D01*
X141590425Y-104995910D01*
X141580522Y-105092860D01*
X141583441Y-105182852D01*
X141598171Y-105263760D01*
X141623701Y-105333459D01*
X141659022Y-105389824D01*
X141703121Y-105430729D01*
X141754988Y-105454051D01*
X141813612Y-105457663D01*
X141842506Y-105452145D01*
X141898396Y-105425461D01*
X141944055Y-105379273D01*
X141978892Y-105314291D01*
X142002310Y-105231229D01*
X142006759Y-105206555D01*
X142017258Y-105117226D01*
X142016029Y-105037419D01*
X142003094Y-104959326D01*
X141996304Y-104924183D01*
X141995287Y-104878745D01*
X142007818Y-104847430D01*
X142034605Y-104827277D01*
X142062852Y-104820893D01*
X142094076Y-104830379D01*
X142107501Y-104839708D01*
X142131033Y-104873943D01*
X142148905Y-104926565D01*
X142160401Y-104995081D01*
X142164808Y-105077000D01*
X142160821Y-105174150D01*
X142144506Y-105280157D01*
X142116455Y-105373969D01*
X142077548Y-105452765D01*
X142028666Y-105513719D01*
X141995805Y-105539789D01*
X141946606Y-105569297D01*
X141892748Y-105594568D01*
X141841581Y-105612218D01*
X141800456Y-105618858D01*
X141780741Y-105617298D01*
X141729408Y-105604357D01*
X141672882Y-105581194D01*
X141618965Y-105551302D01*
X141575461Y-105518173D01*
X141565113Y-105507977D01*
X141513338Y-105440892D01*
X141473446Y-105360766D01*
X141449044Y-105274556D01*
X141440932Y-105219592D01*
X141434327Y-105126139D01*
X141436414Y-105036358D01*
X141446660Y-104953869D01*
X141464530Y-104882286D01*
X141489492Y-104825228D01*
X141521012Y-104786311D01*
X141522988Y-104784936D01*
X141548214Y-104777848D01*
X141595465Y-104773609D01*
X141664929Y-104772200D01*
X141727162Y-104773060D01*
G37*
X142165740Y-102814657D02*
X142164826Y-102738299D01*
X142162689Y-102679783D01*
X142158825Y-102636745D01*
X142152733Y-102606817D01*
X142143910Y-102587632D01*
X142131854Y-102576824D01*
X142116061Y-102572027D01*
X142096030Y-102570873D01*
X142093665Y-102570867D01*
X142071008Y-102571869D01*
X142053497Y-102576604D01*
X142040426Y-102587667D01*
X142031087Y-102607652D01*
X142024773Y-102639154D01*
X142020778Y-102684768D01*
X142018394Y-102747087D01*
X142016914Y-102828707D01*
X142016586Y-102853723D01*
X142013533Y-103095800D01*
X141948622Y-103099186D01*
X141883711Y-103102571D01*
X141883711Y-102934424D01*
X141883469Y-102868734D01*
X141882444Y-102821828D01*
X141880189Y-102789917D01*
X141876258Y-102769209D01*
X141870202Y-102755916D01*
X141861576Y-102746245D01*
X141861507Y-102746183D01*
X141827888Y-102728644D01*
X141791552Y-102729278D01*
X141760577Y-102747686D01*
X141757393Y-102751329D01*
X141749188Y-102764259D01*
X141743479Y-102781976D01*
X141739838Y-102808430D01*
X141737833Y-102847568D01*
X141737036Y-102903338D01*
X141736955Y-102939006D01*
X141736955Y-103101445D01*
X141578911Y-103101445D01*
X141578911Y-102854839D01*
X141578769Y-102773420D01*
X141578186Y-102711590D01*
X141576932Y-102666363D01*
X141574773Y-102634752D01*
X141571477Y-102613769D01*
X141566811Y-102600427D01*
X141560543Y-102591739D01*
X141558267Y-102589550D01*
X141526720Y-102573386D01*
X141490832Y-102572203D01*
X141459715Y-102585464D01*
X141449729Y-102595957D01*
X141444231Y-102606871D01*
X141439978Y-102623783D01*
X141436820Y-102649367D01*
X141434608Y-102686299D01*
X141433194Y-102737254D01*
X141432428Y-102804906D01*
X141432162Y-102891931D01*
X141432155Y-102911606D01*
X141432213Y-103000089D01*
X141432533Y-103068773D01*
X141433333Y-103120436D01*
X141434833Y-103157855D01*
X141437251Y-103183810D01*
X141440806Y-103201078D01*
X141445718Y-103212438D01*
X141452205Y-103220668D01*
X141456862Y-103225183D01*
X141465111Y-103231979D01*
X141475331Y-103237288D01*
X141490200Y-103241294D01*
X141512398Y-103244179D01*
X141544607Y-103246126D01*
X141589504Y-103247319D01*
X141649772Y-103247939D01*
X141728089Y-103248171D01*
X141794006Y-103248200D01*
X141886372Y-103248129D01*
X141958883Y-103247792D01*
X142014263Y-103247002D01*
X142055235Y-103245574D01*
X142084522Y-103243321D01*
X142104847Y-103240057D01*
X142118934Y-103235596D01*
X142129505Y-103229752D01*
X142136189Y-103224803D01*
X142165933Y-103201406D01*
X142165933Y-102911226D01*
X142165740Y-102814657D01*
G36*
X142096030Y-102570873D02*
G01*
X142116061Y-102572027D01*
X142131854Y-102576824D01*
X142143910Y-102587632D01*
X142152733Y-102606817D01*
X142158825Y-102636745D01*
X142162689Y-102679783D01*
X142164826Y-102738299D01*
X142165740Y-102814657D01*
X142165933Y-102911226D01*
X142165933Y-103201406D01*
X142136189Y-103224803D01*
X142129505Y-103229752D01*
X142118934Y-103235596D01*
X142104847Y-103240057D01*
X142084522Y-103243321D01*
X142055235Y-103245574D01*
X142014263Y-103247002D01*
X141958883Y-103247792D01*
X141886372Y-103248129D01*
X141794006Y-103248200D01*
X141728089Y-103248171D01*
X141649772Y-103247939D01*
X141589504Y-103247319D01*
X141544607Y-103246126D01*
X141512398Y-103244179D01*
X141490200Y-103241294D01*
X141475331Y-103237288D01*
X141465111Y-103231979D01*
X141456862Y-103225183D01*
X141452205Y-103220668D01*
X141445718Y-103212438D01*
X141440806Y-103201078D01*
X141437251Y-103183810D01*
X141434833Y-103157855D01*
X141433333Y-103120436D01*
X141432533Y-103068773D01*
X141432213Y-103000089D01*
X141432155Y-102911606D01*
X141432162Y-102891931D01*
X141432428Y-102804906D01*
X141433194Y-102737254D01*
X141434608Y-102686299D01*
X141436820Y-102649367D01*
X141439978Y-102623783D01*
X141444231Y-102606871D01*
X141449729Y-102595957D01*
X141459715Y-102585464D01*
X141490832Y-102572203D01*
X141526720Y-102573386D01*
X141558267Y-102589550D01*
X141560543Y-102591739D01*
X141566811Y-102600427D01*
X141571477Y-102613769D01*
X141574773Y-102634752D01*
X141576932Y-102666363D01*
X141578186Y-102711590D01*
X141578769Y-102773420D01*
X141578911Y-102854839D01*
X141578911Y-103101445D01*
X141736955Y-103101445D01*
X141736955Y-102939006D01*
X141737036Y-102903338D01*
X141737833Y-102847568D01*
X141739838Y-102808430D01*
X141743479Y-102781976D01*
X141749188Y-102764259D01*
X141757393Y-102751329D01*
X141760577Y-102747686D01*
X141791552Y-102729278D01*
X141827888Y-102728644D01*
X141861507Y-102746183D01*
X141861576Y-102746245D01*
X141870202Y-102755916D01*
X141876258Y-102769209D01*
X141880189Y-102789917D01*
X141882444Y-102821828D01*
X141883469Y-102868734D01*
X141883711Y-102934424D01*
X141883711Y-103102571D01*
X141948622Y-103099186D01*
X142013533Y-103095800D01*
X142016586Y-102853723D01*
X142016914Y-102828707D01*
X142018394Y-102747087D01*
X142020778Y-102684768D01*
X142024773Y-102639154D01*
X142031087Y-102607652D01*
X142040426Y-102587667D01*
X142053497Y-102576604D01*
X142071008Y-102571869D01*
X142093665Y-102570867D01*
X142096030Y-102570873D01*
G37*
X142165854Y-107757794D02*
X142165482Y-107688386D01*
X142164615Y-107635997D01*
X142163054Y-107597847D01*
X142160597Y-107571159D01*
X142157043Y-107553153D01*
X142152190Y-107541049D01*
X142145839Y-107532069D01*
X142142916Y-107528818D01*
X142111858Y-107509043D01*
X142076172Y-107505482D01*
X142044490Y-107518491D01*
X142038087Y-107524506D01*
X142031879Y-107534235D01*
X142027090Y-107549901D01*
X142023486Y-107574408D01*
X142020836Y-107610661D01*
X142018905Y-107661565D01*
X142017461Y-107730026D01*
X142016582Y-107792617D01*
X142013533Y-108040334D01*
X141948622Y-108043719D01*
X141883711Y-108047105D01*
X141883711Y-107878958D01*
X141883081Y-107805959D01*
X141880447Y-107752517D01*
X141874691Y-107715628D01*
X141864696Y-107692288D01*
X141849344Y-107679494D01*
X141827518Y-107674242D01*
X141807262Y-107673445D01*
X141782408Y-107675923D01*
X141764094Y-107685277D01*
X141751363Y-107704383D01*
X141743259Y-107736118D01*
X141738824Y-107783359D01*
X141737101Y-107848983D01*
X141736955Y-107884801D01*
X141736955Y-108045978D01*
X141578911Y-108045978D01*
X141578911Y-107797622D01*
X141578798Y-107716213D01*
X141578288Y-107654342D01*
X141577130Y-107608968D01*
X141575070Y-107577054D01*
X141571854Y-107555559D01*
X141567228Y-107541443D01*
X141560941Y-107531668D01*
X141556333Y-107526689D01*
X141529440Y-107509610D01*
X141505533Y-107504111D01*
X141476333Y-107511963D01*
X141454733Y-107526689D01*
X141447934Y-107534546D01*
X141442654Y-107544688D01*
X141438702Y-107559844D01*
X141435887Y-107582741D01*
X141434018Y-107616109D01*
X141432902Y-107662675D01*
X141432349Y-107725167D01*
X141432167Y-107806314D01*
X141432155Y-107848422D01*
X141432235Y-107938598D01*
X141432602Y-108008924D01*
X141433448Y-108062129D01*
X141434964Y-108100940D01*
X141437341Y-108128087D01*
X141440771Y-108146298D01*
X141445446Y-108158300D01*
X141451556Y-108166822D01*
X141454733Y-108170156D01*
X141462330Y-108176755D01*
X141472130Y-108181927D01*
X141486761Y-108185846D01*
X141508848Y-108188684D01*
X141541018Y-108190615D01*
X141585897Y-108191812D01*
X141646111Y-108192448D01*
X141724287Y-108192697D01*
X141797077Y-108192734D01*
X141890293Y-108192700D01*
X141963569Y-108192465D01*
X142019542Y-108191830D01*
X142060849Y-108190594D01*
X142090128Y-108188556D01*
X142110016Y-108185517D01*
X142123150Y-108181277D01*
X142132168Y-108175635D01*
X142139707Y-108168391D01*
X142141388Y-108166606D01*
X142148828Y-108157945D01*
X142154591Y-108147882D01*
X142158888Y-108133625D01*
X142161936Y-108112383D01*
X142163949Y-108081364D01*
X142165140Y-108037777D01*
X142165725Y-107978831D01*
X142165917Y-107901734D01*
X142165933Y-107847001D01*
X142165854Y-107757794D01*
G36*
X141529440Y-107509610D02*
G01*
X141556333Y-107526689D01*
X141560941Y-107531668D01*
X141567228Y-107541443D01*
X141571854Y-107555559D01*
X141575070Y-107577054D01*
X141577130Y-107608968D01*
X141578288Y-107654342D01*
X141578798Y-107716213D01*
X141578911Y-107797622D01*
X141578911Y-108045978D01*
X141736955Y-108045978D01*
X141736955Y-107884801D01*
X141737101Y-107848983D01*
X141738824Y-107783359D01*
X141743259Y-107736118D01*
X141751363Y-107704383D01*
X141764094Y-107685277D01*
X141782408Y-107675923D01*
X141807262Y-107673445D01*
X141827518Y-107674242D01*
X141849344Y-107679494D01*
X141864696Y-107692288D01*
X141874691Y-107715628D01*
X141880447Y-107752517D01*
X141883081Y-107805959D01*
X141883711Y-107878958D01*
X141883711Y-108047105D01*
X141948622Y-108043719D01*
X142013533Y-108040334D01*
X142016582Y-107792617D01*
X142017461Y-107730026D01*
X142018905Y-107661565D01*
X142020836Y-107610661D01*
X142023486Y-107574408D01*
X142027090Y-107549901D01*
X142031879Y-107534235D01*
X142038087Y-107524506D01*
X142044490Y-107518491D01*
X142076172Y-107505482D01*
X142111858Y-107509043D01*
X142142916Y-107528818D01*
X142145839Y-107532069D01*
X142152190Y-107541049D01*
X142157043Y-107553153D01*
X142160597Y-107571159D01*
X142163054Y-107597847D01*
X142164615Y-107635997D01*
X142165482Y-107688386D01*
X142165854Y-107757794D01*
X142165933Y-107847001D01*
X142165917Y-107901734D01*
X142165725Y-107978831D01*
X142165140Y-108037777D01*
X142163949Y-108081364D01*
X142161936Y-108112383D01*
X142158888Y-108133625D01*
X142154591Y-108147882D01*
X142148828Y-108157945D01*
X142141388Y-108166606D01*
X142139707Y-108168391D01*
X142132168Y-108175635D01*
X142123150Y-108181277D01*
X142110016Y-108185517D01*
X142090128Y-108188556D01*
X142060849Y-108190594D01*
X142019542Y-108191830D01*
X141963569Y-108192465D01*
X141890293Y-108192700D01*
X141797077Y-108192734D01*
X141724287Y-108192697D01*
X141646111Y-108192448D01*
X141585897Y-108191812D01*
X141541018Y-108190615D01*
X141508848Y-108188684D01*
X141486761Y-108185846D01*
X141472130Y-108181927D01*
X141462330Y-108176755D01*
X141454733Y-108170156D01*
X141451556Y-108166822D01*
X141445446Y-108158300D01*
X141440771Y-108146298D01*
X141437341Y-108128087D01*
X141434964Y-108100940D01*
X141433448Y-108062129D01*
X141432602Y-108008924D01*
X141432235Y-107938598D01*
X141432155Y-107848422D01*
X141432167Y-107806314D01*
X141432349Y-107725167D01*
X141432902Y-107662675D01*
X141434018Y-107616109D01*
X141435887Y-107582741D01*
X141438702Y-107559844D01*
X141442654Y-107544688D01*
X141447934Y-107534546D01*
X141454733Y-107526689D01*
X141476333Y-107511963D01*
X141505533Y-107504111D01*
X141529440Y-107509610D01*
G37*
X142163966Y-99300335D02*
X142156965Y-99280745D01*
X142156623Y-99279990D01*
X142136322Y-99253387D01*
X142115439Y-99238730D01*
X142105648Y-99235862D01*
X142092639Y-99236004D01*
X142074105Y-99240039D01*
X142047743Y-99248854D01*
X142011248Y-99263331D01*
X141962313Y-99284355D01*
X141898635Y-99312812D01*
X141817907Y-99349585D01*
X141773784Y-99369825D01*
X141695015Y-99406375D01*
X141622577Y-99440685D01*
X141559120Y-99471448D01*
X141507292Y-99497352D01*
X141469741Y-99517090D01*
X141449116Y-99529350D01*
X141446267Y-99531776D01*
X141433698Y-99562817D01*
X141435381Y-99597879D01*
X141450668Y-99626000D01*
X141451911Y-99627146D01*
X141468846Y-99638332D01*
X141501830Y-99657096D01*
X141546620Y-99681125D01*
X141598968Y-99708103D01*
X141618258Y-99717799D01*
X141764850Y-99790986D01*
X141605607Y-99870760D01*
X141550585Y-99899233D01*
X141502868Y-99925650D01*
X141466107Y-99947852D01*
X141443956Y-99963681D01*
X141439259Y-99969046D01*
X141432898Y-100010743D01*
X141446267Y-100045151D01*
X141460554Y-100055272D01*
X141492308Y-100072786D01*
X141538403Y-100096265D01*
X141595715Y-100124280D01*
X141661120Y-100155401D01*
X141731493Y-100188201D01*
X141803709Y-100221250D01*
X141874645Y-100253119D01*
X141941175Y-100282381D01*
X142000174Y-100307605D01*
X142048519Y-100327364D01*
X142083085Y-100340228D01*
X142100747Y-100344769D01*
X142101387Y-100344723D01*
X142123612Y-100333674D01*
X142146247Y-100311590D01*
X142147232Y-100310290D01*
X142162575Y-100283147D01*
X142162426Y-100258042D01*
X142159534Y-100248632D01*
X142153282Y-100237166D01*
X142140986Y-100224990D01*
X142120092Y-100210643D01*
X142088051Y-100192664D01*
X142042312Y-100169593D01*
X141980323Y-100139970D01*
X141923102Y-100113255D01*
X141856774Y-100082520D01*
X141797126Y-100054979D01*
X141747275Y-100032062D01*
X141710336Y-100015202D01*
X141689427Y-100005827D01*
X141686155Y-100004460D01*
X141691503Y-99998311D01*
X141713891Y-99984178D01*
X141750054Y-99963943D01*
X141796723Y-99939485D01*
X141815978Y-99929752D01*
X141880996Y-99896783D01*
X141928346Y-99871357D01*
X141960781Y-99851388D01*
X141981054Y-99834790D01*
X141991918Y-99819476D01*
X141996125Y-99803360D01*
X141996600Y-99792857D01*
X141994958Y-99774330D01*
X141988169Y-99758096D01*
X141973434Y-99741965D01*
X141947956Y-99723749D01*
X141908939Y-99701261D01*
X141853586Y-99672311D01*
X141822097Y-99656338D01*
X141771913Y-99630430D01*
X141730296Y-99607833D01*
X141700758Y-99590542D01*
X141686811Y-99580550D01*
X141686230Y-99579191D01*
X141697207Y-99572739D01*
X141725710Y-99558292D01*
X141768756Y-99537297D01*
X141823362Y-99511203D01*
X141886546Y-99481454D01*
X141917929Y-99466820D01*
X141998922Y-99428750D01*
X142061244Y-99398095D01*
X142106929Y-99373263D01*
X142138011Y-99352663D01*
X142156522Y-99334702D01*
X142164496Y-99317790D01*
X142163966Y-99300335D01*
G36*
X142115439Y-99238730D02*
G01*
X142136322Y-99253387D01*
X142156623Y-99279990D01*
X142156965Y-99280745D01*
X142163966Y-99300335D01*
X142164496Y-99317790D01*
X142156522Y-99334702D01*
X142138011Y-99352663D01*
X142106929Y-99373263D01*
X142061244Y-99398095D01*
X141998922Y-99428750D01*
X141917929Y-99466820D01*
X141886546Y-99481454D01*
X141823362Y-99511203D01*
X141768756Y-99537297D01*
X141725710Y-99558292D01*
X141697207Y-99572739D01*
X141686230Y-99579191D01*
X141686811Y-99580550D01*
X141700758Y-99590542D01*
X141730296Y-99607833D01*
X141771913Y-99630430D01*
X141822097Y-99656338D01*
X141853586Y-99672311D01*
X141908939Y-99701261D01*
X141947956Y-99723749D01*
X141973434Y-99741965D01*
X141988169Y-99758096D01*
X141994958Y-99774330D01*
X141996600Y-99792857D01*
X141996125Y-99803360D01*
X141991918Y-99819476D01*
X141981054Y-99834790D01*
X141960781Y-99851388D01*
X141928346Y-99871357D01*
X141880996Y-99896783D01*
X141815978Y-99929752D01*
X141796723Y-99939485D01*
X141750054Y-99963943D01*
X141713891Y-99984178D01*
X141691503Y-99998311D01*
X141686155Y-100004460D01*
X141689427Y-100005827D01*
X141710336Y-100015202D01*
X141747275Y-100032062D01*
X141797126Y-100054979D01*
X141856774Y-100082520D01*
X141923102Y-100113255D01*
X141980323Y-100139970D01*
X142042312Y-100169593D01*
X142088051Y-100192664D01*
X142120092Y-100210643D01*
X142140986Y-100224990D01*
X142153282Y-100237166D01*
X142159534Y-100248632D01*
X142162426Y-100258042D01*
X142162575Y-100283147D01*
X142147232Y-100310290D01*
X142146247Y-100311590D01*
X142123612Y-100333674D01*
X142101387Y-100344723D01*
X142100747Y-100344769D01*
X142083085Y-100340228D01*
X142048519Y-100327364D01*
X142000174Y-100307605D01*
X141941175Y-100282381D01*
X141874645Y-100253119D01*
X141803709Y-100221250D01*
X141731493Y-100188201D01*
X141661120Y-100155401D01*
X141595715Y-100124280D01*
X141538403Y-100096265D01*
X141492308Y-100072786D01*
X141460554Y-100055272D01*
X141446267Y-100045151D01*
X141432898Y-100010743D01*
X141439259Y-99969046D01*
X141443956Y-99963681D01*
X141466107Y-99947852D01*
X141502868Y-99925650D01*
X141550585Y-99899233D01*
X141605607Y-99870760D01*
X141764850Y-99790986D01*
X141618258Y-99717799D01*
X141598968Y-99708103D01*
X141546620Y-99681125D01*
X141501830Y-99657096D01*
X141468846Y-99638332D01*
X141451911Y-99627146D01*
X141450668Y-99626000D01*
X141435381Y-99597879D01*
X141433698Y-99562817D01*
X141446267Y-99531776D01*
X141449116Y-99529350D01*
X141469741Y-99517090D01*
X141507292Y-99497352D01*
X141559120Y-99471448D01*
X141622577Y-99440685D01*
X141695015Y-99406375D01*
X141773784Y-99369825D01*
X141817907Y-99349585D01*
X141898635Y-99312812D01*
X141962313Y-99284355D01*
X142011248Y-99263331D01*
X142047743Y-99248854D01*
X142074105Y-99240039D01*
X142092639Y-99236004D01*
X142105648Y-99235862D01*
X142115439Y-99238730D01*
G37*
X142164649Y-106736703D02*
X142159419Y-106661888D01*
X142151250Y-106592306D01*
X142140450Y-106532002D01*
X142127327Y-106485020D01*
X142112187Y-106455406D01*
X142107731Y-106450860D01*
X142073150Y-106435054D01*
X142037649Y-106439847D01*
X142007275Y-106464364D01*
X142006404Y-106465534D01*
X141997046Y-106479954D01*
X141992124Y-106495008D01*
X141991527Y-106516005D01*
X141995139Y-106548257D01*
X142002846Y-106597073D01*
X142003495Y-106601000D01*
X142012431Y-106673739D01*
X142016839Y-106752217D01*
X142016881Y-106830927D01*
X142012721Y-106904361D01*
X142004521Y-106967011D01*
X141992443Y-107013370D01*
X141991229Y-107016416D01*
X141972385Y-107050048D01*
X141953315Y-107061864D01*
X141934561Y-107052614D01*
X141916663Y-107023047D01*
X141900163Y-106973911D01*
X141885604Y-106905957D01*
X141878594Y-106860645D01*
X141865111Y-106766456D01*
X141852786Y-106691544D01*
X141840551Y-106632717D01*
X141827339Y-106586785D01*
X141812083Y-106550555D01*
X141793715Y-106520838D01*
X141771169Y-106494442D01*
X141749029Y-106473230D01*
X141718181Y-106448065D01*
X141691655Y-106435681D01*
X141658974Y-106431808D01*
X141647005Y-106431667D01*
X141607288Y-106434576D01*
X141577741Y-106446202D01*
X141551514Y-106466323D01*
X141511424Y-106507216D01*
X141480851Y-106552817D01*
X141458797Y-106606513D01*
X141444265Y-106671692D01*
X141436259Y-106751744D01*
X141433782Y-106850057D01*
X141433823Y-106866289D01*
X141435182Y-106931849D01*
X141438270Y-106996866D01*
X141442644Y-107054252D01*
X141447860Y-107096922D01*
X141448459Y-107100372D01*
X141458509Y-107142796D01*
X141471204Y-107178780D01*
X141482810Y-107199150D01*
X141513428Y-107218107D01*
X141549082Y-107219427D01*
X141580856Y-107203085D01*
X141584449Y-107199429D01*
X141595124Y-107184315D01*
X141599724Y-107165415D01*
X141598941Y-107136162D01*
X141594873Y-107100651D01*
X141591238Y-107060970D01*
X141588172Y-107005345D01*
X141585947Y-106940406D01*
X141584836Y-106872785D01*
X141584763Y-106855000D01*
X141585036Y-106787128D01*
X141586354Y-106737454D01*
X141589173Y-106701610D01*
X141593950Y-106675224D01*
X141601143Y-106653926D01*
X141607133Y-106641126D01*
X141623767Y-106613000D01*
X141638832Y-106595068D01*
X141643103Y-106592447D01*
X141660737Y-106597976D01*
X141677808Y-106624260D01*
X141693542Y-106669478D01*
X141707162Y-106731808D01*
X141710196Y-106750171D01*
X141725262Y-106846090D01*
X141737854Y-106922641D01*
X141748889Y-106982780D01*
X141759280Y-107029460D01*
X141769944Y-107065637D01*
X141781795Y-107094265D01*
X141795749Y-107118298D01*
X141812719Y-107140692D01*
X141833622Y-107164402D01*
X141840951Y-107172380D01*
X141868301Y-107200353D01*
X141889971Y-107215160D01*
X141914768Y-107220952D01*
X141946017Y-107221889D01*
X142007295Y-107211575D01*
X142059360Y-107180752D01*
X142102042Y-107129595D01*
X142135175Y-107058283D01*
X142150036Y-107007400D01*
X142159634Y-106952100D01*
X142165064Y-106885853D01*
X142166633Y-106812706D01*
X142164649Y-106736703D01*
G36*
X141658974Y-106431808D02*
G01*
X141691655Y-106435681D01*
X141718181Y-106448065D01*
X141749029Y-106473230D01*
X141771169Y-106494442D01*
X141793715Y-106520838D01*
X141812083Y-106550555D01*
X141827339Y-106586785D01*
X141840551Y-106632717D01*
X141852786Y-106691544D01*
X141865111Y-106766456D01*
X141878594Y-106860645D01*
X141885604Y-106905957D01*
X141900163Y-106973911D01*
X141916663Y-107023047D01*
X141934561Y-107052614D01*
X141953315Y-107061864D01*
X141972385Y-107050048D01*
X141991229Y-107016416D01*
X141992443Y-107013370D01*
X142004521Y-106967011D01*
X142012721Y-106904361D01*
X142016881Y-106830927D01*
X142016839Y-106752217D01*
X142012431Y-106673739D01*
X142003495Y-106601000D01*
X142002846Y-106597073D01*
X141995139Y-106548257D01*
X141991527Y-106516005D01*
X141992124Y-106495008D01*
X141997046Y-106479954D01*
X142006404Y-106465534D01*
X142007275Y-106464364D01*
X142037649Y-106439847D01*
X142073150Y-106435054D01*
X142107731Y-106450860D01*
X142112187Y-106455406D01*
X142127327Y-106485020D01*
X142140450Y-106532002D01*
X142151250Y-106592306D01*
X142159419Y-106661888D01*
X142164649Y-106736703D01*
X142166633Y-106812706D01*
X142165064Y-106885853D01*
X142159634Y-106952100D01*
X142150036Y-107007400D01*
X142135175Y-107058283D01*
X142102042Y-107129595D01*
X142059360Y-107180752D01*
X142007295Y-107211575D01*
X141946017Y-107221889D01*
X141914768Y-107220952D01*
X141889971Y-107215160D01*
X141868301Y-107200353D01*
X141840951Y-107172380D01*
X141833622Y-107164402D01*
X141812719Y-107140692D01*
X141795749Y-107118298D01*
X141781795Y-107094265D01*
X141769944Y-107065637D01*
X141759280Y-107029460D01*
X141748889Y-106982780D01*
X141737854Y-106922641D01*
X141725262Y-106846090D01*
X141710196Y-106750171D01*
X141707162Y-106731808D01*
X141693542Y-106669478D01*
X141677808Y-106624260D01*
X141660737Y-106597976D01*
X141643103Y-106592447D01*
X141638832Y-106595068D01*
X141623767Y-106613000D01*
X141607133Y-106641126D01*
X141601143Y-106653926D01*
X141593950Y-106675224D01*
X141589173Y-106701610D01*
X141586354Y-106737454D01*
X141585036Y-106787128D01*
X141584763Y-106855000D01*
X141584836Y-106872785D01*
X141585947Y-106940406D01*
X141588172Y-107005345D01*
X141591238Y-107060970D01*
X141594873Y-107100651D01*
X141598941Y-107136162D01*
X141599724Y-107165415D01*
X141595124Y-107184315D01*
X141584449Y-107199429D01*
X141580856Y-107203085D01*
X141549082Y-107219427D01*
X141513428Y-107218107D01*
X141482810Y-107199150D01*
X141471204Y-107178780D01*
X141458509Y-107142796D01*
X141448459Y-107100372D01*
X141447860Y-107096922D01*
X141442644Y-107054252D01*
X141438270Y-106996866D01*
X141435182Y-106931849D01*
X141433823Y-106866289D01*
X141433782Y-106850057D01*
X141436259Y-106751744D01*
X141444265Y-106671692D01*
X141458797Y-106606513D01*
X141480851Y-106552817D01*
X141511424Y-106507216D01*
X141551514Y-106466323D01*
X141577741Y-106446202D01*
X141607288Y-106434576D01*
X141647005Y-106431667D01*
X141658974Y-106431808D01*
G37*
X146485929Y-102716571D02*
X146464755Y-102556430D01*
X146424615Y-102392490D01*
X146365111Y-102222687D01*
X146285846Y-102044957D01*
X146280301Y-102033690D01*
X146252275Y-101975995D01*
X146228198Y-101924448D01*
X146209751Y-101882809D01*
X146198614Y-101854838D01*
X146196067Y-101845267D01*
X146191059Y-101826050D01*
X146186853Y-101821439D01*
X146176420Y-101826542D01*
X146150132Y-101842582D01*
X146110743Y-101867712D01*
X146061009Y-101900086D01*
X146003685Y-101937857D01*
X145941524Y-101979178D01*
X145877282Y-102022202D01*
X145813715Y-102065083D01*
X145753575Y-102105974D01*
X145699620Y-102143029D01*
X145654603Y-102174400D01*
X145621279Y-102198241D01*
X145602403Y-102212706D01*
X145600213Y-102214691D01*
X145604862Y-102224809D01*
X145622038Y-102247150D01*
X145648560Y-102277720D01*
X145663036Y-102293464D01*
X145738318Y-102389953D01*
X145793759Y-102496664D01*
X145828859Y-102612168D01*
X145843120Y-102735038D01*
X145841949Y-102804439D01*
X145824788Y-102925577D01*
X145788906Y-103034795D01*
X145734041Y-103132418D01*
X145659930Y-103218772D01*
X145566312Y-103294185D01*
X145452924Y-103358982D01*
X145366333Y-103396399D01*
X145230634Y-103440252D01*
X145083150Y-103472572D01*
X144927686Y-103493443D01*
X144768044Y-103502949D01*
X144608027Y-103501173D01*
X144451439Y-103488197D01*
X144302082Y-103464106D01*
X144163760Y-103428982D01*
X144040276Y-103382908D01*
X144006022Y-103366627D01*
X143891936Y-103298380D01*
X143795443Y-103217921D01*
X143717330Y-103126430D01*
X143658383Y-103025089D01*
X143619388Y-102915080D01*
X143601132Y-102797585D01*
X143599789Y-102756117D01*
X143610710Y-102634559D01*
X143643526Y-102514122D01*
X143697561Y-102396334D01*
X143772135Y-102282723D01*
X143850461Y-102191315D01*
X143894992Y-102144785D01*
X143597729Y-101963517D01*
X143523567Y-101918420D01*
X143455354Y-101877181D01*
X143395541Y-101841265D01*
X143346580Y-101812134D01*
X143310921Y-101791250D01*
X143291016Y-101780076D01*
X143287921Y-101778625D01*
X143278282Y-101786854D01*
X143261001Y-101812433D01*
X143237717Y-101852127D01*
X143210066Y-101902703D01*
X143179685Y-101960926D01*
X143148210Y-102023563D01*
X143117278Y-102087379D01*
X143088527Y-102149140D01*
X143063592Y-102205612D01*
X143044111Y-102253562D01*
X143035682Y-102277014D01*
X142997867Y-102410779D01*
X142972864Y-102548673D01*
X142959860Y-102696378D01*
X142957532Y-102823167D01*
X142958627Y-102891122D01*
X142960725Y-102956723D01*
X142963566Y-103014153D01*
X142966894Y-103057597D01*
X142968578Y-103071702D01*
X142997413Y-103210716D01*
X143042532Y-103352243D01*
X143101250Y-103489725D01*
X143170880Y-103616606D01*
X143223559Y-103694111D01*
X143331761Y-103821519D01*
X143458329Y-103939822D01*
X143600134Y-104046828D01*
X143754049Y-104140348D01*
X143916947Y-104218190D01*
X144034244Y-104262044D01*
X144217872Y-104312292D01*
X144412419Y-104345791D01*
X144613675Y-104362551D01*
X144817432Y-104362584D01*
X145019479Y-104345899D01*
X145215608Y-104312507D01*
X145401609Y-104262420D01*
X145413197Y-104258603D01*
X145575250Y-104195719D01*
X145723168Y-104118972D01*
X145861135Y-104025758D01*
X145993339Y-103913473D01*
X146038601Y-103869608D01*
X146162543Y-103733466D01*
X146265085Y-103593509D01*
X146347344Y-103447589D01*
X146410436Y-103293558D01*
X146455477Y-103129268D01*
X146472967Y-103033711D01*
X146488534Y-102874977D01*
X146485929Y-102716571D01*
G36*
X143291016Y-101780076D02*
G01*
X143310921Y-101791250D01*
X143346580Y-101812134D01*
X143395541Y-101841265D01*
X143455354Y-101877181D01*
X143523567Y-101918420D01*
X143597729Y-101963517D01*
X143894992Y-102144785D01*
X143850461Y-102191315D01*
X143772135Y-102282723D01*
X143697561Y-102396334D01*
X143643526Y-102514122D01*
X143610710Y-102634559D01*
X143599789Y-102756117D01*
X143601132Y-102797585D01*
X143619388Y-102915080D01*
X143658383Y-103025089D01*
X143717330Y-103126430D01*
X143795443Y-103217921D01*
X143891936Y-103298380D01*
X144006022Y-103366627D01*
X144040276Y-103382908D01*
X144163760Y-103428982D01*
X144302082Y-103464106D01*
X144451439Y-103488197D01*
X144608027Y-103501173D01*
X144768044Y-103502949D01*
X144927686Y-103493443D01*
X145083150Y-103472572D01*
X145230634Y-103440252D01*
X145366333Y-103396399D01*
X145452924Y-103358982D01*
X145566312Y-103294185D01*
X145659930Y-103218772D01*
X145734041Y-103132418D01*
X145788906Y-103034795D01*
X145824788Y-102925577D01*
X145841949Y-102804439D01*
X145843120Y-102735038D01*
X145828859Y-102612168D01*
X145793759Y-102496664D01*
X145738318Y-102389953D01*
X145663036Y-102293464D01*
X145648560Y-102277720D01*
X145622038Y-102247150D01*
X145604862Y-102224809D01*
X145600213Y-102214691D01*
X145602403Y-102212706D01*
X145621279Y-102198241D01*
X145654603Y-102174400D01*
X145699620Y-102143029D01*
X145753575Y-102105974D01*
X145813715Y-102065083D01*
X145877282Y-102022202D01*
X145941524Y-101979178D01*
X146003685Y-101937857D01*
X146061009Y-101900086D01*
X146110743Y-101867712D01*
X146150132Y-101842582D01*
X146176420Y-101826542D01*
X146186853Y-101821439D01*
X146191059Y-101826050D01*
X146196067Y-101845267D01*
X146198614Y-101854838D01*
X146209751Y-101882809D01*
X146228198Y-101924448D01*
X146252275Y-101975995D01*
X146280301Y-102033690D01*
X146285846Y-102044957D01*
X146365111Y-102222687D01*
X146424615Y-102392490D01*
X146464755Y-102556430D01*
X146485929Y-102716571D01*
X146488534Y-102874977D01*
X146472967Y-103033711D01*
X146455477Y-103129268D01*
X146410436Y-103293558D01*
X146347344Y-103447589D01*
X146265085Y-103593509D01*
X146162543Y-103733466D01*
X146038601Y-103869608D01*
X145993339Y-103913473D01*
X145861135Y-104025758D01*
X145723168Y-104118972D01*
X145575250Y-104195719D01*
X145413197Y-104258603D01*
X145401609Y-104262420D01*
X145215608Y-104312507D01*
X145019479Y-104345899D01*
X144817432Y-104362584D01*
X144613675Y-104362551D01*
X144412419Y-104345791D01*
X144217872Y-104312292D01*
X144034244Y-104262044D01*
X143916947Y-104218190D01*
X143754049Y-104140348D01*
X143600134Y-104046828D01*
X143458329Y-103939822D01*
X143331761Y-103821519D01*
X143223559Y-103694111D01*
X143170880Y-103616606D01*
X143101250Y-103489725D01*
X143042532Y-103352243D01*
X142997413Y-103210716D01*
X142968578Y-103071702D01*
X142966894Y-103057597D01*
X142963566Y-103014153D01*
X142960725Y-102956723D01*
X142958627Y-102891122D01*
X142957532Y-102823167D01*
X142959860Y-102696378D01*
X142972864Y-102548673D01*
X142997867Y-102410779D01*
X143035682Y-102277014D01*
X143044111Y-102253562D01*
X143063592Y-102205612D01*
X143088527Y-102149140D01*
X143117278Y-102087379D01*
X143148210Y-102023563D01*
X143179685Y-101960926D01*
X143210066Y-101902703D01*
X143237717Y-101852127D01*
X143261001Y-101812433D01*
X143278282Y-101786854D01*
X143287921Y-101778625D01*
X143291016Y-101780076D01*
G37*
X144962755Y-96858493D02*
X144728338Y-96858474D01*
X144515397Y-96858448D01*
X144322832Y-96858375D01*
X144149541Y-96858218D01*
X143994424Y-96857936D01*
X143856380Y-96857491D01*
X143734308Y-96856844D01*
X143627106Y-96855955D01*
X143533674Y-96854787D01*
X143452910Y-96853299D01*
X143383714Y-96851454D01*
X143324985Y-96849211D01*
X143275621Y-96846531D01*
X143234522Y-96843377D01*
X143200587Y-96839708D01*
X143172714Y-96835487D01*
X143149802Y-96830673D01*
X143130751Y-96825227D01*
X143114460Y-96819112D01*
X143099827Y-96812288D01*
X143085751Y-96804715D01*
X143071132Y-96796355D01*
X143062026Y-96791161D01*
X143001311Y-96756896D01*
X143001311Y-97615045D01*
X143097267Y-97615045D01*
X143140630Y-97615776D01*
X143173795Y-97617728D01*
X143191576Y-97620537D01*
X143193222Y-97621779D01*
X143186338Y-97633201D01*
X143168495Y-97655916D01*
X143149121Y-97678615D01*
X143108386Y-97733200D01*
X143067383Y-97802679D01*
X143029877Y-97879730D01*
X142999636Y-97957035D01*
X142989988Y-97987887D01*
X142975422Y-98056384D01*
X142965461Y-98139236D01*
X142960417Y-98228629D01*
X142960604Y-98316752D01*
X142966334Y-98395793D01*
X142972142Y-98433489D01*
X143010203Y-98571586D01*
X143067927Y-98698887D01*
X143144789Y-98814708D01*
X143240261Y-98918363D01*
X143353821Y-99009167D01*
X143464619Y-99075969D01*
X143581375Y-99130836D01*
X143700724Y-99172837D01*
X143826717Y-99202833D01*
X143963406Y-99221689D01*
X144114842Y-99230268D01*
X144192289Y-99230994D01*
X144249066Y-99228900D01*
X144249066Y-98399783D01*
X144155998Y-98399576D01*
X144068308Y-98396663D01*
X143991228Y-98391000D01*
X143929991Y-98382545D01*
X143917650Y-98379962D01*
X143810367Y-98348160D01*
X143723342Y-98306502D01*
X143656358Y-98254637D01*
X143609195Y-98192219D01*
X143581635Y-98118900D01*
X143573459Y-98034331D01*
X143584449Y-97938165D01*
X143600171Y-97874689D01*
X143618361Y-97825546D01*
X143644209Y-97771417D01*
X143667911Y-97730756D01*
X143714279Y-97660200D01*
X144864470Y-97660200D01*
X144908038Y-97727608D01*
X144948960Y-97806133D01*
X144975611Y-97890319D01*
X144987535Y-97975443D01*
X144984278Y-98056784D01*
X144965385Y-98129620D01*
X144949816Y-98161574D01*
X144906819Y-98219499D01*
X144850047Y-98268456D01*
X144777425Y-98309610D01*
X144686879Y-98344126D01*
X144576334Y-98373167D01*
X144570467Y-98374448D01*
X144508212Y-98384619D01*
X144430406Y-98392261D01*
X144342280Y-98397330D01*
X144249066Y-98399783D01*
X144249066Y-99228900D01*
X144405105Y-99223143D01*
X144600941Y-99201198D01*
X144779668Y-99165214D01*
X144941155Y-99115241D01*
X145085274Y-99051332D01*
X145211894Y-98973538D01*
X145320885Y-98881911D01*
X145412117Y-98776503D01*
X145443068Y-98731338D01*
X145499215Y-98630389D01*
X145538826Y-98527099D01*
X145562986Y-98417011D01*
X145572781Y-98295670D01*
X145571735Y-98203164D01*
X145560769Y-98073510D01*
X145538954Y-97960916D01*
X145505286Y-97862125D01*
X145458764Y-97773879D01*
X145424552Y-97725014D01*
X145402638Y-97695647D01*
X145387667Y-97673957D01*
X145383267Y-97665747D01*
X145394096Y-97664132D01*
X145424749Y-97662841D01*
X145472474Y-97661862D01*
X145534521Y-97661183D01*
X145608138Y-97660790D01*
X145690573Y-97660670D01*
X145779075Y-97660812D01*
X145870893Y-97661203D01*
X145963276Y-97661829D01*
X146053472Y-97662680D01*
X146138729Y-97663740D01*
X146216297Y-97664999D01*
X146283424Y-97666444D01*
X146337359Y-97668062D01*
X146375350Y-97669839D01*
X146382333Y-97670331D01*
X146452749Y-97677908D01*
X146507898Y-97689469D01*
X146555019Y-97707208D01*
X146601353Y-97733318D01*
X146610933Y-97739585D01*
X146647622Y-97764017D01*
X146647622Y-96858689D01*
X144962755Y-96858493D01*
G36*
X143062026Y-96791161D02*
G01*
X143071132Y-96796355D01*
X143085751Y-96804715D01*
X143099827Y-96812288D01*
X143114460Y-96819112D01*
X143130751Y-96825227D01*
X143149802Y-96830673D01*
X143172714Y-96835487D01*
X143200587Y-96839708D01*
X143234522Y-96843377D01*
X143275621Y-96846531D01*
X143324985Y-96849211D01*
X143383714Y-96851454D01*
X143452910Y-96853299D01*
X143533674Y-96854787D01*
X143627106Y-96855955D01*
X143734308Y-96856844D01*
X143856380Y-96857491D01*
X143994424Y-96857936D01*
X144149541Y-96858218D01*
X144322832Y-96858375D01*
X144515397Y-96858448D01*
X144728338Y-96858474D01*
X144962755Y-96858493D01*
X146647622Y-96858689D01*
X146647622Y-97764017D01*
X146610933Y-97739585D01*
X146601353Y-97733318D01*
X146555019Y-97707208D01*
X146507898Y-97689469D01*
X146452749Y-97677908D01*
X146382333Y-97670331D01*
X146375350Y-97669839D01*
X146337359Y-97668062D01*
X146283424Y-97666444D01*
X146216297Y-97664999D01*
X146138729Y-97663740D01*
X146053472Y-97662680D01*
X145963276Y-97661829D01*
X145870893Y-97661203D01*
X145779075Y-97660812D01*
X145690573Y-97660670D01*
X145608138Y-97660790D01*
X145534521Y-97661183D01*
X145472474Y-97661862D01*
X145424749Y-97662841D01*
X145394096Y-97664132D01*
X145383267Y-97665747D01*
X145387667Y-97673957D01*
X145402638Y-97695647D01*
X145424552Y-97725014D01*
X145458764Y-97773879D01*
X145505286Y-97862125D01*
X145538954Y-97960916D01*
X145560769Y-98073510D01*
X145571735Y-98203164D01*
X145572781Y-98295670D01*
X145562986Y-98417011D01*
X145538826Y-98527099D01*
X145499215Y-98630389D01*
X145443068Y-98731338D01*
X145412117Y-98776503D01*
X145320885Y-98881911D01*
X145211894Y-98973538D01*
X145085274Y-99051332D01*
X144941155Y-99115241D01*
X144779668Y-99165214D01*
X144600941Y-99201198D01*
X144405105Y-99223143D01*
X144249066Y-99228900D01*
X144192289Y-99230994D01*
X144114842Y-99230268D01*
X143963406Y-99221689D01*
X143826717Y-99202833D01*
X143700724Y-99172837D01*
X143581375Y-99130836D01*
X143464619Y-99075969D01*
X143353821Y-99009167D01*
X143240261Y-98918363D01*
X143144789Y-98814708D01*
X143067927Y-98698887D01*
X143010203Y-98571586D01*
X142972142Y-98433489D01*
X142966334Y-98395793D01*
X142960604Y-98316752D01*
X142960417Y-98228629D01*
X142965461Y-98139236D01*
X142975422Y-98056384D01*
X142980112Y-98034331D01*
X143573459Y-98034331D01*
X143581635Y-98118900D01*
X143609195Y-98192219D01*
X143656358Y-98254637D01*
X143723342Y-98306502D01*
X143810367Y-98348160D01*
X143917650Y-98379962D01*
X143929991Y-98382545D01*
X143991228Y-98391000D01*
X144068308Y-98396663D01*
X144155998Y-98399576D01*
X144249066Y-98399783D01*
X144342280Y-98397330D01*
X144430406Y-98392261D01*
X144508212Y-98384619D01*
X144570467Y-98374448D01*
X144576334Y-98373167D01*
X144686879Y-98344126D01*
X144777425Y-98309610D01*
X144850047Y-98268456D01*
X144906819Y-98219499D01*
X144949816Y-98161574D01*
X144965385Y-98129620D01*
X144984278Y-98056784D01*
X144987535Y-97975443D01*
X144975611Y-97890319D01*
X144948960Y-97806133D01*
X144908038Y-97727608D01*
X144864470Y-97660200D01*
X143714279Y-97660200D01*
X143667911Y-97730756D01*
X143644209Y-97771417D01*
X143618361Y-97825546D01*
X143600171Y-97874689D01*
X143584449Y-97938165D01*
X143573459Y-98034331D01*
X142980112Y-98034331D01*
X142989988Y-97987887D01*
X142999636Y-97957035D01*
X143029877Y-97879730D01*
X143067383Y-97802679D01*
X143108386Y-97733200D01*
X143149121Y-97678615D01*
X143168495Y-97655916D01*
X143186338Y-97633201D01*
X143193222Y-97621779D01*
X143191576Y-97620537D01*
X143173795Y-97617728D01*
X143140630Y-97615776D01*
X143097267Y-97615045D01*
X143001311Y-97615045D01*
X143001311Y-96756896D01*
X143062026Y-96791161D01*
G37*
X145568448Y-100371426D02*
X145548433Y-100219508D01*
X145514798Y-100084244D01*
X145467275Y-99964761D01*
X145405595Y-99860185D01*
X145342035Y-99782576D01*
X145267901Y-99713735D01*
X145188129Y-99659994D01*
X145095909Y-99617090D01*
X145052839Y-99601616D01*
X145013858Y-99588756D01*
X144977711Y-99577554D01*
X144942566Y-99567880D01*
X144906590Y-99559604D01*
X144867950Y-99552597D01*
X144824815Y-99546728D01*
X144775351Y-99541869D01*
X144717727Y-99537890D01*
X144650109Y-99534660D01*
X144570666Y-99532051D01*
X144477564Y-99529933D01*
X144368973Y-99528176D01*
X144243058Y-99526651D01*
X144097988Y-99525228D01*
X143955222Y-99523975D01*
X143799032Y-99522649D01*
X143663761Y-99521444D01*
X143547754Y-99520234D01*
X143449355Y-99518894D01*
X143366907Y-99517300D01*
X143298754Y-99515325D01*
X143243240Y-99512844D01*
X143198708Y-99509731D01*
X143163502Y-99505862D01*
X143135966Y-99501111D01*
X143114444Y-99495352D01*
X143097278Y-99488461D01*
X143082814Y-99480311D01*
X143069394Y-99470777D01*
X143055362Y-99459734D01*
X143049929Y-99455434D01*
X143027090Y-99439614D01*
X143011537Y-99432578D01*
X143011078Y-99432556D01*
X143008879Y-99443433D01*
X143006853Y-99474418D01*
X143005058Y-99523043D01*
X143003549Y-99586837D01*
X143002384Y-99663331D01*
X143001620Y-99750056D01*
X143001314Y-99844543D01*
X143001311Y-99855450D01*
X143001311Y-100278343D01*
X143097378Y-100281605D01*
X143193444Y-100284867D01*
X143142457Y-100346956D01*
X143074943Y-100444286D01*
X143020251Y-100554187D01*
X142990022Y-100640651D01*
X142975334Y-100709722D01*
X142965341Y-100793075D01*
X142960354Y-100882841D01*
X142960687Y-100971155D01*
X142966649Y-101050149D01*
X142972362Y-101086378D01*
X143010224Y-101226397D01*
X143065068Y-101352822D01*
X143136076Y-101464740D01*
X143222432Y-101561238D01*
X143323321Y-101641400D01*
X143437924Y-101704313D01*
X143564016Y-101748688D01*
X143620599Y-101761022D01*
X143682798Y-101768632D01*
X143757637Y-101772261D01*
X143791533Y-101772755D01*
X143794718Y-101772690D01*
X143794718Y-101012752D01*
X143719667Y-101003459D01*
X143655840Y-100975272D01*
X143600202Y-100926803D01*
X143595789Y-100921746D01*
X143560963Y-100873452D01*
X143538380Y-100821743D01*
X143526460Y-100761011D01*
X143523617Y-100685648D01*
X143524022Y-100667541D01*
X143526675Y-100613722D01*
X143532091Y-100573692D01*
X143542255Y-100538676D01*
X143559150Y-100499897D01*
X143564328Y-100489255D01*
X143600156Y-100428604D01*
X143642788Y-100381785D01*
X143658027Y-100369048D01*
X143714538Y-100324378D01*
X143910414Y-100324378D01*
X143989061Y-100324914D01*
X144047012Y-100326604D01*
X144086125Y-100329572D01*
X144108259Y-100333943D01*
X144114726Y-100338028D01*
X144117889Y-100353953D01*
X144120512Y-100387736D01*
X144122345Y-100434660D01*
X144123143Y-100490007D01*
X144123158Y-100498894D01*
X144117904Y-100619670D01*
X144101737Y-100722340D01*
X144074039Y-100808894D01*
X144034192Y-100881319D01*
X143987242Y-100936249D01*
X143929355Y-100980796D01*
X143866307Y-101005520D01*
X143794718Y-101012752D01*
X143794718Y-101772690D01*
X143885288Y-101770822D01*
X143964188Y-101762478D01*
X144035410Y-101746232D01*
X144106136Y-101720595D01*
X144158507Y-101696599D01*
X144253804Y-101637980D01*
X144341830Y-101559883D01*
X144420983Y-101464685D01*
X144489660Y-101354762D01*
X144546259Y-101232490D01*
X144589179Y-101100245D01*
X144604118Y-101035578D01*
X144626223Y-100899396D01*
X144640806Y-100750951D01*
X144647187Y-100599495D01*
X144645555Y-100472936D01*
X144638776Y-100311050D01*
X144697755Y-100318470D01*
X144796908Y-100337762D01*
X144877628Y-100368896D01*
X144940534Y-100412731D01*
X144986244Y-100470129D01*
X145015378Y-100541952D01*
X145028553Y-100629059D01*
X145026389Y-100732314D01*
X145022388Y-100770289D01*
X144997220Y-100911480D01*
X144956186Y-101048293D01*
X144918185Y-101142822D01*
X144898810Y-101187982D01*
X144883240Y-101226415D01*
X144873595Y-101252766D01*
X144871548Y-101260454D01*
X144880626Y-101270198D01*
X144909595Y-101286917D01*
X144958783Y-101310768D01*
X145028516Y-101341907D01*
X145119121Y-101380493D01*
X145134911Y-101387090D01*
X145207228Y-101417147D01*
X145272575Y-101444126D01*
X145328094Y-101466864D01*
X145370928Y-101484194D01*
X145398219Y-101494952D01*
X145407058Y-101498059D01*
X145411813Y-101488060D01*
X145417090Y-101461783D01*
X145420769Y-101433511D01*
X145425526Y-101403354D01*
X145434972Y-101355567D01*
X145448180Y-101294388D01*
X145464224Y-101224054D01*
X145482180Y-101148806D01*
X145489203Y-101120245D01*
X145514791Y-101015184D01*
X145534853Y-100927520D01*
X145550031Y-100852932D01*
X145560965Y-100787097D01*
X145568296Y-100725693D01*
X145572665Y-100664398D01*
X145574713Y-100598890D01*
X145575111Y-100540872D01*
X145568448Y-100371426D01*
G36*
X143011537Y-99432578D02*
G01*
X143027090Y-99439614D01*
X143049929Y-99455434D01*
X143055362Y-99459734D01*
X143069394Y-99470777D01*
X143082814Y-99480311D01*
X143097278Y-99488461D01*
X143114444Y-99495352D01*
X143135966Y-99501111D01*
X143163502Y-99505862D01*
X143198708Y-99509731D01*
X143243240Y-99512844D01*
X143298754Y-99515325D01*
X143366907Y-99517300D01*
X143449355Y-99518894D01*
X143547754Y-99520234D01*
X143663761Y-99521444D01*
X143799032Y-99522649D01*
X143955222Y-99523975D01*
X144097988Y-99525228D01*
X144243058Y-99526651D01*
X144368973Y-99528176D01*
X144477564Y-99529933D01*
X144570666Y-99532051D01*
X144650109Y-99534660D01*
X144717727Y-99537890D01*
X144775351Y-99541869D01*
X144824815Y-99546728D01*
X144867950Y-99552597D01*
X144906590Y-99559604D01*
X144942566Y-99567880D01*
X144977711Y-99577554D01*
X145013858Y-99588756D01*
X145052839Y-99601616D01*
X145095909Y-99617090D01*
X145188129Y-99659994D01*
X145267901Y-99713735D01*
X145342035Y-99782576D01*
X145405595Y-99860185D01*
X145467275Y-99964761D01*
X145514798Y-100084244D01*
X145548433Y-100219508D01*
X145568448Y-100371426D01*
X145575111Y-100540872D01*
X145574713Y-100598890D01*
X145572665Y-100664398D01*
X145568296Y-100725693D01*
X145560965Y-100787097D01*
X145550031Y-100852932D01*
X145534853Y-100927520D01*
X145514791Y-101015184D01*
X145489203Y-101120245D01*
X145482180Y-101148806D01*
X145464224Y-101224054D01*
X145448180Y-101294388D01*
X145434972Y-101355567D01*
X145425526Y-101403354D01*
X145420769Y-101433511D01*
X145417090Y-101461783D01*
X145411813Y-101488060D01*
X145407058Y-101498059D01*
X145398219Y-101494952D01*
X145370928Y-101484194D01*
X145328094Y-101466864D01*
X145272575Y-101444126D01*
X145207228Y-101417147D01*
X145134911Y-101387090D01*
X145119121Y-101380493D01*
X145028516Y-101341907D01*
X144958783Y-101310768D01*
X144909595Y-101286917D01*
X144880626Y-101270198D01*
X144871548Y-101260454D01*
X144873595Y-101252766D01*
X144883240Y-101226415D01*
X144898810Y-101187982D01*
X144918185Y-101142822D01*
X144956186Y-101048293D01*
X144997220Y-100911480D01*
X145022388Y-100770289D01*
X145026389Y-100732314D01*
X145028553Y-100629059D01*
X145015378Y-100541952D01*
X144986244Y-100470129D01*
X144940534Y-100412731D01*
X144877628Y-100368896D01*
X144796908Y-100337762D01*
X144697755Y-100318470D01*
X144638776Y-100311050D01*
X144645555Y-100472936D01*
X144647187Y-100599495D01*
X144640806Y-100750951D01*
X144626223Y-100899396D01*
X144604118Y-101035578D01*
X144589179Y-101100245D01*
X144546259Y-101232490D01*
X144489660Y-101354762D01*
X144420983Y-101464685D01*
X144341830Y-101559883D01*
X144253804Y-101637980D01*
X144158507Y-101696599D01*
X144106136Y-101720595D01*
X144035410Y-101746232D01*
X143964188Y-101762478D01*
X143885288Y-101770822D01*
X143794718Y-101772690D01*
X143791533Y-101772755D01*
X143757637Y-101772261D01*
X143682798Y-101768632D01*
X143620599Y-101761022D01*
X143564016Y-101748688D01*
X143437924Y-101704313D01*
X143323321Y-101641400D01*
X143222432Y-101561238D01*
X143136076Y-101464740D01*
X143065068Y-101352822D01*
X143010224Y-101226397D01*
X142972362Y-101086378D01*
X142966649Y-101050149D01*
X142960687Y-100971155D01*
X142960354Y-100882841D01*
X142965341Y-100793075D01*
X142975334Y-100709722D01*
X142980453Y-100685648D01*
X143523617Y-100685648D01*
X143526460Y-100761011D01*
X143538380Y-100821743D01*
X143560963Y-100873452D01*
X143595789Y-100921746D01*
X143600202Y-100926803D01*
X143655840Y-100975272D01*
X143719667Y-101003459D01*
X143794718Y-101012752D01*
X143866307Y-101005520D01*
X143929355Y-100980796D01*
X143987242Y-100936249D01*
X144034192Y-100881319D01*
X144074039Y-100808894D01*
X144101737Y-100722340D01*
X144117904Y-100619670D01*
X144123158Y-100498894D01*
X144123143Y-100490007D01*
X144122345Y-100434660D01*
X144120512Y-100387736D01*
X144117889Y-100353953D01*
X144114726Y-100338028D01*
X144108259Y-100333943D01*
X144086125Y-100329572D01*
X144047012Y-100326604D01*
X143989061Y-100324914D01*
X143910414Y-100324378D01*
X143714538Y-100324378D01*
X143658027Y-100369048D01*
X143642788Y-100381785D01*
X143600156Y-100428604D01*
X143564328Y-100489255D01*
X143559150Y-100499897D01*
X143542255Y-100538676D01*
X143532091Y-100573692D01*
X143526675Y-100613722D01*
X143524022Y-100667541D01*
X143523617Y-100685648D01*
X142980453Y-100685648D01*
X142990022Y-100640651D01*
X143020251Y-100554187D01*
X143074943Y-100444286D01*
X143142457Y-100346956D01*
X143193444Y-100284867D01*
X143097378Y-100281605D01*
X143001311Y-100278343D01*
X143001311Y-99855450D01*
X143001314Y-99844543D01*
X143001620Y-99750056D01*
X143002384Y-99663331D01*
X143003549Y-99586837D01*
X143005058Y-99523043D01*
X143006853Y-99474418D01*
X143008879Y-99443433D01*
X143011078Y-99432556D01*
X143011537Y-99432578D01*
G37*
X146945946Y-105991400D02*
X146832007Y-105980535D01*
X146724384Y-105948918D01*
X146625385Y-105898015D01*
X146537316Y-105829293D01*
X146462484Y-105744219D01*
X146404616Y-105647232D01*
X146364995Y-105540964D01*
X146346427Y-105433950D01*
X146347566Y-105328300D01*
X146367070Y-105226125D01*
X146403594Y-105129534D01*
X146455795Y-105040638D01*
X146522327Y-104961546D01*
X146601848Y-104894369D01*
X146693013Y-104841217D01*
X146794477Y-104804199D01*
X146904898Y-104785427D01*
X146954794Y-104783489D01*
X147042733Y-104783489D01*
X147042733Y-104731560D01*
X147039889Y-104695253D01*
X147028089Y-104668355D01*
X147004351Y-104641249D01*
X146965969Y-104602867D01*
X144774398Y-104602867D01*
X144512261Y-104602876D01*
X144271759Y-104602908D01*
X144051952Y-104602972D01*
X143851899Y-104603076D01*
X143670656Y-104603227D01*
X143507284Y-104603434D01*
X143360840Y-104603706D01*
X143230383Y-104604050D01*
X143114971Y-104604474D01*
X143013662Y-104604987D01*
X142925516Y-104605597D01*
X142849590Y-104606312D01*
X142784943Y-104607140D01*
X142730633Y-104608089D01*
X142685720Y-104609167D01*
X142649260Y-104610383D01*
X142620313Y-104611745D01*
X142597937Y-104613261D01*
X142581191Y-104614938D01*
X142569132Y-104616786D01*
X142560820Y-104618813D01*
X142555313Y-104621025D01*
X142553463Y-104622108D01*
X142546451Y-104626271D01*
X142540004Y-104629805D01*
X142534100Y-104633635D01*
X142528714Y-104638682D01*
X142523822Y-104645871D01*
X142519402Y-104656123D01*
X142515428Y-104670364D01*
X142511879Y-104689514D01*
X142508730Y-104714499D01*
X142505958Y-104746240D01*
X142503539Y-104785662D01*
X142501449Y-104833686D01*
X142499665Y-104891237D01*
X142498163Y-104959237D01*
X142496920Y-105038610D01*
X142495911Y-105130279D01*
X142495115Y-105235166D01*
X142494506Y-105354196D01*
X142494061Y-105488290D01*
X142493757Y-105638373D01*
X142493570Y-105805367D01*
X142493476Y-105990196D01*
X142493452Y-106193783D01*
X142493475Y-106417050D01*
X142493520Y-106660922D01*
X142493563Y-106926321D01*
X142493568Y-106964704D01*
X142493611Y-107231682D01*
X142493682Y-107477002D01*
X142493787Y-107701583D01*
X142493934Y-107906345D01*
X142494131Y-108092206D01*
X142494384Y-108260088D01*
X142494700Y-108410908D01*
X142495087Y-108545587D01*
X142495553Y-108665044D01*
X142496103Y-108770199D01*
X142496747Y-108861971D01*
X142497489Y-108941279D01*
X142498339Y-109009043D01*
X142499303Y-109066182D01*
X142500389Y-109113617D01*
X142501603Y-109152266D01*
X142502953Y-109183049D01*
X142504445Y-109206885D01*
X142506089Y-109224694D01*
X142507889Y-109237395D01*
X142509855Y-109245908D01*
X142511523Y-109250266D01*
X142515094Y-109258728D01*
X142517730Y-109266497D01*
X142520366Y-109273602D01*
X142523938Y-109280073D01*
X142529379Y-109285939D01*
X142537625Y-109291229D01*
X142549610Y-109295974D01*
X142566269Y-109300202D01*
X142588537Y-109303943D01*
X142617348Y-109307227D01*
X142653637Y-109310083D01*
X142698339Y-109312540D01*
X142752389Y-109314629D01*
X142816721Y-109316378D01*
X142892270Y-109317817D01*
X142979970Y-109318976D01*
X143080757Y-109319883D01*
X143195566Y-109320569D01*
X143325330Y-109321063D01*
X143470985Y-109321395D01*
X143633465Y-109321593D01*
X143813705Y-109321687D01*
X144012640Y-109321708D01*
X144231204Y-109321685D01*
X144470332Y-109321646D01*
X144730960Y-109321622D01*
X144773111Y-109321622D01*
X145036008Y-109321636D01*
X145277268Y-109321661D01*
X145497835Y-109321671D01*
X145698648Y-109321642D01*
X145880651Y-109321548D01*
X146044784Y-109321362D01*
X146191989Y-109321059D01*
X146323208Y-109320614D01*
X146433133Y-109320034D01*
X146433133Y-109017197D01*
X146375289Y-108977407D01*
X146359521Y-108966236D01*
X146345559Y-108956166D01*
X146332216Y-108947138D01*
X146318307Y-108939097D01*
X146302644Y-108931986D01*
X146284042Y-108925747D01*
X146261314Y-108920325D01*
X146233273Y-108915662D01*
X146198733Y-108911701D01*
X146156508Y-108908385D01*
X146105411Y-108905659D01*
X146044256Y-108903464D01*
X145971856Y-108901745D01*
X145887025Y-108900444D01*
X145788578Y-108899505D01*
X145675326Y-108898870D01*
X145546084Y-108898484D01*
X145399666Y-108898288D01*
X145234884Y-108898227D01*
X145050553Y-108898243D01*
X144845487Y-108898280D01*
X144722867Y-108898289D01*
X144505918Y-108898265D01*
X144310358Y-108898231D01*
X144135001Y-108898243D01*
X143978659Y-108898358D01*
X143840143Y-108898630D01*
X143718266Y-108899118D01*
X143611840Y-108899876D01*
X143519678Y-108900962D01*
X143440591Y-108902431D01*
X143373392Y-108904340D01*
X143316893Y-108906744D01*
X143269907Y-108909701D01*
X143231245Y-108913266D01*
X143199720Y-108917495D01*
X143174145Y-108922446D01*
X143153330Y-108928173D01*
X143136089Y-108934733D01*
X143121235Y-108942183D01*
X143107578Y-108950579D01*
X143093931Y-108959976D01*
X143079107Y-108970432D01*
X143070217Y-108976523D01*
X143012600Y-109015296D01*
X143012600Y-108483732D01*
X143012635Y-108360483D01*
X143012785Y-108257987D01*
X143013122Y-108174420D01*
X143013714Y-108107956D01*
X143014633Y-108056771D01*
X143015949Y-108019041D01*
X143017731Y-107992940D01*
X143020049Y-107976644D01*
X143022974Y-107968328D01*
X143026576Y-107966168D01*
X143030925Y-107968339D01*
X143032355Y-107969535D01*
X143069427Y-107994685D01*
X143122228Y-108020583D01*
X143184230Y-108044192D01*
X143210643Y-108052461D01*
X143228584Y-108057078D01*
X143249645Y-108060979D01*
X143275911Y-108064248D01*
X143309468Y-108066966D01*
X143352401Y-108069215D01*
X143406796Y-108071077D01*
X143474738Y-108072636D01*
X143558312Y-108073972D01*
X143659605Y-108075169D01*
X143780700Y-108076308D01*
X143825400Y-108076685D01*
X143950551Y-108077702D01*
X144054918Y-108078460D01*
X144140293Y-108078903D01*
X144208467Y-108078970D01*
X144261235Y-108078605D01*
X144300386Y-108077748D01*
X144327715Y-108076341D01*
X144345014Y-108074325D01*
X144354074Y-108071643D01*
X144356688Y-108068236D01*
X144354649Y-108064044D01*
X144350333Y-108059571D01*
X144337398Y-108049216D01*
X144308324Y-108027158D01*
X144265241Y-107994957D01*
X144210282Y-107954174D01*
X144145577Y-107906370D01*
X144073258Y-107853105D01*
X143995456Y-107795940D01*
X143914302Y-107736437D01*
X143831928Y-107676155D01*
X143750464Y-107616655D01*
X143672043Y-107559498D01*
X143598796Y-107506245D01*
X143532853Y-107458457D01*
X143476346Y-107417693D01*
X143431407Y-107385516D01*
X143400166Y-107363485D01*
X143393534Y-107358917D01*
X143356631Y-107335996D01*
X143308641Y-107309188D01*
X143259103Y-107283789D01*
X143252423Y-107280568D01*
X143204228Y-107258890D01*
X143166666Y-107246304D01*
X143130840Y-107240574D01*
X143088800Y-107239456D01*
X143012600Y-107240090D01*
X143012600Y-106085651D01*
X143106331Y-106176815D01*
X143156225Y-106223612D01*
X143212705Y-106273899D01*
X143266974Y-106319944D01*
X143292327Y-106340369D01*
X143331872Y-106370807D01*
X143385084Y-106410862D01*
X143450333Y-106459361D01*
X143525989Y-106515135D01*
X143610423Y-106577011D01*
X143702006Y-106643819D01*
X143799108Y-106714387D01*
X143900099Y-106787545D01*
X144003350Y-106862121D01*
X144107232Y-106936944D01*
X144210115Y-107010843D01*
X144310369Y-107082646D01*
X144406364Y-107151184D01*
X144496473Y-107215284D01*
X144579064Y-107273775D01*
X144652508Y-107325486D01*
X144715176Y-107369247D01*
X144765439Y-107403885D01*
X144801666Y-107428230D01*
X144822229Y-107441111D01*
X144826332Y-107442869D01*
X144837658Y-107434910D01*
X144864838Y-107414115D01*
X144906171Y-107381847D01*
X144959956Y-107339470D01*
X145024494Y-107288347D01*
X145098082Y-107229841D01*
X145179022Y-107165314D01*
X145265612Y-107096131D01*
X145356152Y-107023653D01*
X145448940Y-106949246D01*
X145523298Y-106889517D01*
X145523298Y-105878511D01*
X145510341Y-105872602D01*
X145488092Y-105858272D01*
X145486609Y-105857225D01*
X145456456Y-105838438D01*
X145419625Y-105818791D01*
X145411489Y-105814892D01*
X145403060Y-105811356D01*
X145392941Y-105808230D01*
X145379740Y-105805486D01*
X145362062Y-105803092D01*
X145338516Y-105801019D01*
X145307707Y-105799235D01*
X145268243Y-105797712D01*
X145218731Y-105796419D01*
X145157777Y-105795326D01*
X145083989Y-105794403D01*
X144995972Y-105793619D01*
X144892335Y-105792945D01*
X144771684Y-105792350D01*
X144632626Y-105791805D01*
X144473768Y-105791279D01*
X144294911Y-105790745D01*
X144109793Y-105790206D01*
X143945855Y-105789772D01*
X143801697Y-105789509D01*
X143675921Y-105789484D01*
X143567129Y-105789765D01*
X143473923Y-105790419D01*
X143394903Y-105791514D01*
X143328672Y-105793118D01*
X143273830Y-105795297D01*
X143228979Y-105798119D01*
X143192722Y-105801651D01*
X143163659Y-105805961D01*
X143140391Y-105811117D01*
X143121521Y-105817185D01*
X143105649Y-105824233D01*
X143091378Y-105832329D01*
X143077309Y-105841540D01*
X143064842Y-105850040D01*
X143038548Y-105867176D01*
X143020963Y-105877322D01*
X143017743Y-105878511D01*
X143016666Y-105867604D01*
X143015665Y-105836411D01*
X143014765Y-105787223D01*
X143013990Y-105722333D01*
X143013363Y-105644030D01*
X143012909Y-105554607D01*
X143012651Y-105456356D01*
X143012600Y-105387445D01*
X143012820Y-105282452D01*
X143013452Y-105185610D01*
X143014451Y-105099107D01*
X143015773Y-105025132D01*
X143017374Y-104965874D01*
X143019209Y-104923520D01*
X143021235Y-104900260D01*
X143022507Y-104896378D01*
X143037409Y-104904076D01*
X143045440Y-104912074D01*
X143062566Y-104925246D01*
X143092817Y-104942485D01*
X143117378Y-104954407D01*
X143176289Y-104981045D01*
X144353155Y-104984120D01*
X145530022Y-104987195D01*
X145530022Y-105432853D01*
X145529858Y-105530670D01*
X145529389Y-105621064D01*
X145528653Y-105701630D01*
X145527684Y-105769962D01*
X145526520Y-105823656D01*
X145525197Y-105860305D01*
X145523751Y-105877504D01*
X145523298Y-105878511D01*
X145523298Y-106889517D01*
X145542278Y-106874270D01*
X145634463Y-106800090D01*
X145723796Y-106728069D01*
X145808576Y-106659569D01*
X145887102Y-106595955D01*
X145957674Y-106538588D01*
X146018591Y-106488833D01*
X146068153Y-106448052D01*
X146088822Y-106430888D01*
X146189484Y-106344596D01*
X146272741Y-106267997D01*
X146340562Y-106199183D01*
X146394911Y-106136248D01*
X146402278Y-106126867D01*
X146432883Y-106087356D01*
X146433133Y-107219116D01*
X146385156Y-107213827D01*
X146327812Y-107217130D01*
X146259537Y-107238661D01*
X146179788Y-107278635D01*
X146107505Y-107323943D01*
X146084860Y-107340161D01*
X146047304Y-107368214D01*
X145996979Y-107406430D01*
X145936027Y-107453137D01*
X145866589Y-107506661D01*
X145790806Y-107565331D01*
X145710820Y-107627475D01*
X145628772Y-107691421D01*
X145546804Y-107755495D01*
X145467057Y-107818027D01*
X145391673Y-107877343D01*
X145322793Y-107931771D01*
X145262558Y-107979639D01*
X145213111Y-108019275D01*
X145176592Y-108049006D01*
X145155142Y-108067161D01*
X145151844Y-108070220D01*
X145159851Y-108073079D01*
X145190145Y-108075293D01*
X145242444Y-108076857D01*
X145316469Y-108077767D01*
X145411937Y-108078020D01*
X145528566Y-108077613D01*
X145648555Y-108076704D01*
X145780667Y-108075382D01*
X145892406Y-108073857D01*
X145985975Y-108071881D01*
X146063581Y-108069206D01*
X146127426Y-108065582D01*
X146179717Y-108060761D01*
X146222656Y-108054494D01*
X146258449Y-108046532D01*
X146289300Y-108036627D01*
X146317414Y-108024531D01*
X146344995Y-108009993D01*
X146370034Y-107995311D01*
X146433133Y-107957314D01*
X146433133Y-109017197D01*
X146433133Y-109320034D01*
X146439383Y-109320001D01*
X146541456Y-109319195D01*
X146630367Y-109318170D01*
X146707059Y-109316900D01*
X146772473Y-109315360D01*
X146827551Y-109313524D01*
X146873235Y-109311367D01*
X146910466Y-109308863D01*
X146940187Y-109305987D01*
X146963338Y-109302713D01*
X146980861Y-109299015D01*
X146993699Y-109294869D01*
X147002792Y-109290247D01*
X147009082Y-109285126D01*
X147013512Y-109279478D01*
X147017022Y-109273279D01*
X147020555Y-109266504D01*
X147024124Y-109260508D01*
X147026700Y-109255275D01*
X147029028Y-109247099D01*
X147031122Y-109234886D01*
X147032993Y-109217541D01*
X147034653Y-109193969D01*
X147036116Y-109163077D01*
X147037392Y-109123768D01*
X147038496Y-109074950D01*
X147039439Y-109015527D01*
X147040233Y-108944404D01*
X147040891Y-108860488D01*
X147041425Y-108762683D01*
X147041847Y-108649894D01*
X147042171Y-108521029D01*
X147042408Y-108374991D01*
X147042570Y-108210686D01*
X147042670Y-108027020D01*
X147042720Y-107822897D01*
X147042733Y-107611753D01*
X147042733Y-105991400D01*
X146945946Y-105991400D01*
G36*
X147004351Y-104641249D02*
G01*
X147028089Y-104668355D01*
X147039889Y-104695253D01*
X147042733Y-104731560D01*
X147042733Y-104783489D01*
X146954794Y-104783489D01*
X146904898Y-104785427D01*
X146794477Y-104804199D01*
X146693013Y-104841217D01*
X146601848Y-104894369D01*
X146522327Y-104961546D01*
X146455795Y-105040638D01*
X146403594Y-105129534D01*
X146367070Y-105226125D01*
X146347566Y-105328300D01*
X146346427Y-105433950D01*
X146364995Y-105540964D01*
X146404616Y-105647232D01*
X146462484Y-105744219D01*
X146537316Y-105829293D01*
X146625385Y-105898015D01*
X146724384Y-105948918D01*
X146832007Y-105980535D01*
X146945946Y-105991400D01*
X147042733Y-105991400D01*
X147042733Y-107611753D01*
X147042720Y-107822897D01*
X147042670Y-108027020D01*
X147042570Y-108210686D01*
X147042408Y-108374991D01*
X147042171Y-108521029D01*
X147041847Y-108649894D01*
X147041425Y-108762683D01*
X147040891Y-108860488D01*
X147040233Y-108944404D01*
X147039439Y-109015527D01*
X147038496Y-109074950D01*
X147037392Y-109123768D01*
X147036116Y-109163077D01*
X147034653Y-109193969D01*
X147032993Y-109217541D01*
X147031122Y-109234886D01*
X147029028Y-109247099D01*
X147026700Y-109255275D01*
X147024124Y-109260508D01*
X147020555Y-109266504D01*
X147017022Y-109273279D01*
X147013512Y-109279478D01*
X147009082Y-109285126D01*
X147002792Y-109290247D01*
X146993699Y-109294869D01*
X146980861Y-109299015D01*
X146963338Y-109302713D01*
X146940187Y-109305987D01*
X146910466Y-109308863D01*
X146873235Y-109311367D01*
X146827551Y-109313524D01*
X146772473Y-109315360D01*
X146707059Y-109316900D01*
X146630367Y-109318170D01*
X146541456Y-109319195D01*
X146439383Y-109320001D01*
X146433133Y-109320034D01*
X146323208Y-109320614D01*
X146191989Y-109321059D01*
X146044784Y-109321362D01*
X145880651Y-109321548D01*
X145698648Y-109321642D01*
X145497835Y-109321671D01*
X145277268Y-109321661D01*
X145036008Y-109321636D01*
X144773111Y-109321622D01*
X144730960Y-109321622D01*
X144470332Y-109321646D01*
X144231204Y-109321685D01*
X144012640Y-109321708D01*
X143813705Y-109321687D01*
X143633465Y-109321593D01*
X143470985Y-109321395D01*
X143325330Y-109321063D01*
X143195566Y-109320569D01*
X143080757Y-109319883D01*
X142979970Y-109318976D01*
X142892270Y-109317817D01*
X142816721Y-109316378D01*
X142752389Y-109314629D01*
X142698339Y-109312540D01*
X142653637Y-109310083D01*
X142617348Y-109307227D01*
X142588537Y-109303943D01*
X142566269Y-109300202D01*
X142549610Y-109295974D01*
X142537625Y-109291229D01*
X142529379Y-109285939D01*
X142523938Y-109280073D01*
X142520366Y-109273602D01*
X142517730Y-109266497D01*
X142515094Y-109258728D01*
X142511523Y-109250266D01*
X142509855Y-109245908D01*
X142507889Y-109237395D01*
X142506089Y-109224694D01*
X142504445Y-109206885D01*
X142502953Y-109183049D01*
X142501603Y-109152266D01*
X142500389Y-109113617D01*
X142499303Y-109066182D01*
X142498339Y-109009043D01*
X142497489Y-108941279D01*
X142496747Y-108861971D01*
X142496103Y-108770199D01*
X142495553Y-108665044D01*
X142495087Y-108545587D01*
X142494700Y-108410908D01*
X142494384Y-108260088D01*
X142494131Y-108092206D01*
X142493934Y-107906345D01*
X142493787Y-107701583D01*
X142493682Y-107477002D01*
X142493613Y-107240090D01*
X143012600Y-107240090D01*
X143088800Y-107239456D01*
X143130840Y-107240574D01*
X143166666Y-107246304D01*
X143204228Y-107258890D01*
X143252423Y-107280568D01*
X143259103Y-107283789D01*
X143308641Y-107309188D01*
X143356631Y-107335996D01*
X143393534Y-107358917D01*
X143400166Y-107363485D01*
X143431407Y-107385516D01*
X143476346Y-107417693D01*
X143532853Y-107458457D01*
X143598796Y-107506245D01*
X143672043Y-107559498D01*
X143750464Y-107616655D01*
X143831928Y-107676155D01*
X143914302Y-107736437D01*
X143995456Y-107795940D01*
X144073258Y-107853105D01*
X144145577Y-107906370D01*
X144210282Y-107954174D01*
X144265241Y-107994957D01*
X144308324Y-108027158D01*
X144337398Y-108049216D01*
X144350333Y-108059571D01*
X144354649Y-108064044D01*
X144356688Y-108068236D01*
X144354074Y-108071643D01*
X144345014Y-108074325D01*
X144327715Y-108076341D01*
X144300386Y-108077748D01*
X144261235Y-108078605D01*
X144208467Y-108078970D01*
X144140293Y-108078903D01*
X144054918Y-108078460D01*
X143950551Y-108077702D01*
X143825400Y-108076685D01*
X143780700Y-108076308D01*
X143659605Y-108075169D01*
X143558312Y-108073972D01*
X143474738Y-108072636D01*
X143406796Y-108071077D01*
X143352401Y-108069215D01*
X143309468Y-108066966D01*
X143275911Y-108064248D01*
X143249645Y-108060979D01*
X143228584Y-108057078D01*
X143210643Y-108052461D01*
X143184230Y-108044192D01*
X143122228Y-108020583D01*
X143069427Y-107994685D01*
X143032355Y-107969535D01*
X143030925Y-107968339D01*
X143026576Y-107966168D01*
X143022974Y-107968328D01*
X143020049Y-107976644D01*
X143017731Y-107992940D01*
X143015949Y-108019041D01*
X143014633Y-108056771D01*
X143013714Y-108107956D01*
X143013122Y-108174420D01*
X143012785Y-108257987D01*
X143012635Y-108360483D01*
X143012600Y-108483732D01*
X143012600Y-109015296D01*
X143070217Y-108976523D01*
X143079107Y-108970432D01*
X143093931Y-108959976D01*
X143107578Y-108950579D01*
X143121235Y-108942183D01*
X143136089Y-108934733D01*
X143153330Y-108928173D01*
X143174145Y-108922446D01*
X143199720Y-108917495D01*
X143231245Y-108913266D01*
X143269907Y-108909701D01*
X143316893Y-108906744D01*
X143373392Y-108904340D01*
X143440591Y-108902431D01*
X143519678Y-108900962D01*
X143611840Y-108899876D01*
X143718266Y-108899118D01*
X143840143Y-108898630D01*
X143978659Y-108898358D01*
X144135001Y-108898243D01*
X144310358Y-108898231D01*
X144505918Y-108898265D01*
X144722867Y-108898289D01*
X144845487Y-108898280D01*
X145050553Y-108898243D01*
X145234884Y-108898227D01*
X145399666Y-108898288D01*
X145546084Y-108898484D01*
X145675326Y-108898870D01*
X145788578Y-108899505D01*
X145887025Y-108900444D01*
X145971856Y-108901745D01*
X146044256Y-108903464D01*
X146105411Y-108905659D01*
X146156508Y-108908385D01*
X146198733Y-108911701D01*
X146233273Y-108915662D01*
X146261314Y-108920325D01*
X146284042Y-108925747D01*
X146302644Y-108931986D01*
X146318307Y-108939097D01*
X146332216Y-108947138D01*
X146345559Y-108956166D01*
X146359521Y-108966236D01*
X146375289Y-108977407D01*
X146433133Y-109017197D01*
X146433133Y-107957314D01*
X146370034Y-107995311D01*
X146344995Y-108009993D01*
X146317414Y-108024531D01*
X146289300Y-108036627D01*
X146258449Y-108046532D01*
X146222656Y-108054494D01*
X146179717Y-108060761D01*
X146127426Y-108065582D01*
X146063581Y-108069206D01*
X145985975Y-108071881D01*
X145892406Y-108073857D01*
X145780667Y-108075382D01*
X145648555Y-108076704D01*
X145528566Y-108077613D01*
X145411937Y-108078020D01*
X145316469Y-108077767D01*
X145242444Y-108076857D01*
X145190145Y-108075293D01*
X145159851Y-108073079D01*
X145151844Y-108070220D01*
X145155142Y-108067161D01*
X145176592Y-108049006D01*
X145213111Y-108019275D01*
X145262558Y-107979639D01*
X145322793Y-107931771D01*
X145391673Y-107877343D01*
X145467057Y-107818027D01*
X145546804Y-107755495D01*
X145628772Y-107691421D01*
X145710820Y-107627475D01*
X145790806Y-107565331D01*
X145866589Y-107506661D01*
X145936027Y-107453137D01*
X145996979Y-107406430D01*
X146047304Y-107368214D01*
X146084860Y-107340161D01*
X146107505Y-107323943D01*
X146179788Y-107278635D01*
X146259537Y-107238661D01*
X146327812Y-107217130D01*
X146385156Y-107213827D01*
X146433133Y-107219116D01*
X146432883Y-106087356D01*
X146402278Y-106126867D01*
X146394911Y-106136248D01*
X146340562Y-106199183D01*
X146272741Y-106267997D01*
X146189484Y-106344596D01*
X146088822Y-106430888D01*
X146068153Y-106448052D01*
X146018591Y-106488833D01*
X145957674Y-106538588D01*
X145887102Y-106595955D01*
X145808576Y-106659569D01*
X145723796Y-106728069D01*
X145634463Y-106800090D01*
X145542278Y-106874270D01*
X145523298Y-106889517D01*
X145448940Y-106949246D01*
X145356152Y-107023653D01*
X145265612Y-107096131D01*
X145179022Y-107165314D01*
X145098082Y-107229841D01*
X145024494Y-107288347D01*
X144959956Y-107339470D01*
X144906171Y-107381847D01*
X144864838Y-107414115D01*
X144837658Y-107434910D01*
X144826332Y-107442869D01*
X144822229Y-107441111D01*
X144801666Y-107428230D01*
X144765439Y-107403885D01*
X144715176Y-107369247D01*
X144652508Y-107325486D01*
X144579064Y-107273775D01*
X144496473Y-107215284D01*
X144406364Y-107151184D01*
X144310369Y-107082646D01*
X144210115Y-107010843D01*
X144107232Y-106936944D01*
X144003350Y-106862121D01*
X143900099Y-106787545D01*
X143799108Y-106714387D01*
X143702006Y-106643819D01*
X143610423Y-106577011D01*
X143525989Y-106515135D01*
X143450333Y-106459361D01*
X143385084Y-106410862D01*
X143331872Y-106370807D01*
X143292327Y-106340369D01*
X143266974Y-106319944D01*
X143212705Y-106273899D01*
X143156225Y-106223612D01*
X143106331Y-106176815D01*
X143012600Y-106085651D01*
X143012600Y-107240090D01*
X142493613Y-107240090D01*
X142493611Y-107231682D01*
X142493568Y-106964704D01*
X142493563Y-106926321D01*
X142493520Y-106660922D01*
X142493475Y-106417050D01*
X142493452Y-106193783D01*
X142493476Y-105990196D01*
X142493570Y-105805367D01*
X142493757Y-105638373D01*
X142494061Y-105488290D01*
X142494396Y-105387445D01*
X143012600Y-105387445D01*
X143012651Y-105456356D01*
X143012909Y-105554607D01*
X143013363Y-105644030D01*
X143013990Y-105722333D01*
X143014765Y-105787223D01*
X143015665Y-105836411D01*
X143016666Y-105867604D01*
X143017743Y-105878511D01*
X143020963Y-105877322D01*
X143038548Y-105867176D01*
X143064842Y-105850040D01*
X143077309Y-105841540D01*
X143091378Y-105832329D01*
X143105649Y-105824233D01*
X143121521Y-105817185D01*
X143140391Y-105811117D01*
X143163659Y-105805961D01*
X143192722Y-105801651D01*
X143228979Y-105798119D01*
X143273830Y-105795297D01*
X143328672Y-105793118D01*
X143394903Y-105791514D01*
X143473923Y-105790419D01*
X143567129Y-105789765D01*
X143675921Y-105789484D01*
X143801697Y-105789509D01*
X143945855Y-105789772D01*
X144109793Y-105790206D01*
X144294911Y-105790745D01*
X144473768Y-105791279D01*
X144632626Y-105791805D01*
X144771684Y-105792350D01*
X144892335Y-105792945D01*
X144995972Y-105793619D01*
X145083989Y-105794403D01*
X145157777Y-105795326D01*
X145218731Y-105796419D01*
X145268243Y-105797712D01*
X145307707Y-105799235D01*
X145338516Y-105801019D01*
X145362062Y-105803092D01*
X145379740Y-105805486D01*
X145392941Y-105808230D01*
X145403060Y-105811356D01*
X145411489Y-105814892D01*
X145419625Y-105818791D01*
X145456456Y-105838438D01*
X145486609Y-105857225D01*
X145488092Y-105858272D01*
X145510341Y-105872602D01*
X145523298Y-105878511D01*
X145523751Y-105877504D01*
X145525197Y-105860305D01*
X145526520Y-105823656D01*
X145527684Y-105769962D01*
X145528653Y-105701630D01*
X145529389Y-105621064D01*
X145529858Y-105530670D01*
X145530022Y-105432853D01*
X145530022Y-104987195D01*
X144353155Y-104984120D01*
X143176289Y-104981045D01*
X143117378Y-104954407D01*
X143092817Y-104942485D01*
X143062566Y-104925246D01*
X143045440Y-104912074D01*
X143037409Y-104904076D01*
X143022507Y-104896378D01*
X143021235Y-104900260D01*
X143019209Y-104923520D01*
X143017374Y-104965874D01*
X143015773Y-105025132D01*
X143014451Y-105099107D01*
X143013452Y-105185610D01*
X143012820Y-105282452D01*
X143012600Y-105387445D01*
X142494396Y-105387445D01*
X142494506Y-105354196D01*
X142495115Y-105235166D01*
X142495911Y-105130279D01*
X142496920Y-105038610D01*
X142498163Y-104959237D01*
X142499665Y-104891237D01*
X142501449Y-104833686D01*
X142503539Y-104785662D01*
X142505958Y-104746240D01*
X142508730Y-104714499D01*
X142511879Y-104689514D01*
X142515428Y-104670364D01*
X142519402Y-104656123D01*
X142523822Y-104645871D01*
X142528714Y-104638682D01*
X142534100Y-104633635D01*
X142540004Y-104629805D01*
X142546451Y-104626271D01*
X142553463Y-104622108D01*
X142555313Y-104621025D01*
X142560820Y-104618813D01*
X142569132Y-104616786D01*
X142581191Y-104614938D01*
X142597937Y-104613261D01*
X142620313Y-104611745D01*
X142649260Y-104610383D01*
X142685720Y-104609167D01*
X142730633Y-104608089D01*
X142784943Y-104607140D01*
X142849590Y-104606312D01*
X142925516Y-104605597D01*
X143013662Y-104604987D01*
X143114971Y-104604474D01*
X143230383Y-104604050D01*
X143360840Y-104603706D01*
X143507284Y-104603434D01*
X143670656Y-104603227D01*
X143851899Y-104603076D01*
X144051952Y-104602972D01*
X144271759Y-104602908D01*
X144512261Y-104602876D01*
X144774398Y-104602867D01*
X146965969Y-104602867D01*
X147004351Y-104641249D01*
G37*
%TO.C,J4*%
D12*
X152061000Y-76089000D02*
X152061000Y-124459000D01*
X154821000Y-73439000D02*
X153441000Y-73439000D01*
X154821000Y-74819000D02*
X154821000Y-73439000D01*
X154821000Y-76089000D02*
X152061000Y-76089000D01*
X154821000Y-76089000D02*
X154821000Y-124459000D01*
X154821000Y-124459000D02*
X152061000Y-124459000D01*
%TO.C,J3*%
X134154000Y-76089000D02*
X134154000Y-124459000D01*
X136914000Y-73439000D02*
X135534000Y-73439000D01*
X136914000Y-74819000D02*
X136914000Y-73439000D01*
X136914000Y-76089000D02*
X134154000Y-76089000D01*
X136914000Y-76089000D02*
X136914000Y-124459000D01*
X136914000Y-124459000D02*
X134154000Y-124459000D01*
%TD*%
M02*
