%TF.GenerationSoftware,KiCad,Pcbnew,10.0.3*%
%TF.CreationDate,2026-06-09T18:55:56+05:30*%
%TF.ProjectId,MosaicCore HAT,4d6f7361-6963-4436-9f72-65204841542e,rev?*%
%TF.SameCoordinates,Original*%
%TF.FileFunction,Legend,Top*%
%TF.FilePolarity,Positive*%
%FSLAX46Y46*%
G04 Gerber Fmt 4.6, Leading zero omitted, Abs format (unit mm)*
G04 Created by KiCad (PCBNEW 10.0.3) date 2026-06-09 18:55:56*
%MOMM*%
%LPD*%
G01*
G04 APERTURE LIST*
%ADD10C,0.300000*%
%ADD11C,0.100000*%
%ADD12C,0.150000*%
%ADD13C,0.000000*%
%ADD14C,0.120000*%
%ADD15C,0.010000*%
G04 APERTURE END LIST*
D10*
G36*
X148883507Y-72604276D02*
G01*
X148957735Y-72626820D01*
X149026653Y-72664412D01*
X149091373Y-72718407D01*
X149152455Y-72791233D01*
X149196627Y-72866982D01*
X149234272Y-72964482D01*
X149264003Y-73088291D01*
X149283785Y-73243630D01*
X149291032Y-73436309D01*
X149284347Y-73609507D01*
X149265823Y-73753790D01*
X149237475Y-73873164D01*
X149200881Y-73971253D01*
X149157126Y-74051251D01*
X149097549Y-74127501D01*
X149033187Y-74184062D01*
X148963473Y-74223550D01*
X148887152Y-74247349D01*
X148802394Y-74255500D01*
X148261274Y-74255500D01*
X148239945Y-74252170D01*
X148227843Y-74243684D01*
X148221390Y-74228263D01*
X148218409Y-74193584D01*
X148221612Y-74138263D01*
X148695690Y-74138263D01*
X148747073Y-74138263D01*
X148781419Y-74132898D01*
X148807973Y-74117652D01*
X148828681Y-74091735D01*
X148846765Y-74035423D01*
X148854784Y-73924031D01*
X148854784Y-72877329D01*
X148846252Y-72814317D01*
X148822727Y-72767603D01*
X148798673Y-72744459D01*
X148768929Y-72730493D01*
X148731686Y-72725562D01*
X148695690Y-72725562D01*
X148695690Y-74138263D01*
X148221612Y-74138263D01*
X148221707Y-74136614D01*
X148229290Y-74125332D01*
X148252756Y-74109320D01*
X148284558Y-74086203D01*
X148302510Y-74058245D01*
X148308627Y-74023774D01*
X148308627Y-72782898D01*
X148299908Y-72767853D01*
X148273822Y-72754780D01*
X148249559Y-72743644D01*
X148236361Y-72729867D01*
X148229759Y-72708787D01*
X148226653Y-72661082D01*
X148230913Y-72626457D01*
X148240849Y-72609516D01*
X148260817Y-72600823D01*
X148311557Y-72596602D01*
X148802394Y-72596602D01*
X148883507Y-72604276D01*
G37*
G36*
X149843143Y-72731424D02*
G01*
X149843143Y-73311745D01*
X149909913Y-73311745D01*
X149935005Y-73308520D01*
X149949938Y-73300388D01*
X149959946Y-73284856D01*
X149969447Y-73249646D01*
X149990055Y-73162726D01*
X150000676Y-73151447D01*
X150016434Y-73147614D01*
X150089983Y-73150284D01*
X150110040Y-73154850D01*
X150117840Y-73167657D01*
X150121855Y-73208247D01*
X150121855Y-73545394D01*
X150118452Y-73574706D01*
X150110681Y-73588533D01*
X150093938Y-73595416D01*
X150045102Y-73598975D01*
X150012727Y-73594938D01*
X149996467Y-73585419D01*
X149986064Y-73565515D01*
X149972561Y-73511414D01*
X149959959Y-73463449D01*
X149951312Y-73446384D01*
X149939135Y-73437983D01*
X149920080Y-73434844D01*
X149843143Y-73434844D01*
X149843143Y-74132401D01*
X149894526Y-74132401D01*
X149937362Y-74124823D01*
X149961479Y-74105107D01*
X149980707Y-74064351D01*
X150021746Y-73944090D01*
X150041788Y-73892903D01*
X150058565Y-73869077D01*
X150082155Y-73856286D01*
X150124969Y-73851033D01*
X150165235Y-73857116D01*
X150184962Y-73871800D01*
X150191464Y-73894997D01*
X150187342Y-73931267D01*
X150149424Y-74163908D01*
X150131838Y-74241669D01*
X150119885Y-74251152D01*
X150088149Y-74255500D01*
X149404697Y-74255500D01*
X149380928Y-74251696D01*
X149369617Y-74242494D01*
X149364494Y-74223812D01*
X149361832Y-74171053D01*
X149371229Y-74138217D01*
X149400484Y-74115090D01*
X149433030Y-74096374D01*
X149449779Y-74076121D01*
X149455072Y-74053450D01*
X149455072Y-72781341D01*
X149446381Y-72765735D01*
X149410650Y-72744430D01*
X149383166Y-72729099D01*
X149372823Y-72717319D01*
X149366870Y-72655587D01*
X149369223Y-72618251D01*
X149373739Y-72605395D01*
X149384134Y-72599464D01*
X149411841Y-72596602D01*
X150065618Y-72596602D01*
X150089059Y-72599144D01*
X150103262Y-72605486D01*
X150112992Y-72618082D01*
X150121763Y-72646428D01*
X150173970Y-72912591D01*
X150178183Y-72940984D01*
X150173348Y-72956878D01*
X150158138Y-72967320D01*
X150126068Y-72971759D01*
X150074797Y-72967617D01*
X150050597Y-72958478D01*
X150033862Y-72939047D01*
X150013686Y-72893082D01*
X149981452Y-72809052D01*
X149959464Y-72766412D01*
X149934387Y-72739167D01*
X149909913Y-72731424D01*
X149843143Y-72731424D01*
G37*
G36*
X150723608Y-72643039D02*
G01*
X150756306Y-72599625D01*
X150778942Y-72578949D01*
X150807872Y-72572147D01*
X150866582Y-72579566D01*
X150875783Y-72594571D01*
X150883526Y-72625087D01*
X150938847Y-72973866D01*
X150942969Y-73007296D01*
X150939636Y-73025786D01*
X150931154Y-73035323D01*
X150914970Y-73039832D01*
X150872444Y-73042101D01*
X150824248Y-73037651D01*
X150803018Y-73027996D01*
X150785715Y-73002912D01*
X150743667Y-72914789D01*
X150688536Y-72804657D01*
X150645237Y-72743943D01*
X150611240Y-72715744D01*
X150583382Y-72707977D01*
X150557637Y-72714894D01*
X150541645Y-72735500D01*
X150535114Y-72776853D01*
X150545899Y-72835671D01*
X150590000Y-72943682D01*
X150689536Y-73126365D01*
X150847967Y-73409336D01*
X150920804Y-73563529D01*
X150950242Y-73655181D01*
X150968456Y-73755765D01*
X150974751Y-73866604D01*
X150967964Y-73966902D01*
X150949109Y-74049311D01*
X150919797Y-74116950D01*
X150880687Y-74172335D01*
X150812627Y-74233404D01*
X150742684Y-74267699D01*
X150668470Y-74278947D01*
X150595940Y-74268720D01*
X150524489Y-74237181D01*
X150499459Y-74224707D01*
X150484006Y-74221519D01*
X150474312Y-74225251D01*
X150465138Y-74238922D01*
X150449746Y-74260006D01*
X150423798Y-74273653D01*
X150382615Y-74278947D01*
X150359286Y-74276419D01*
X150347352Y-74270520D01*
X150340070Y-74258515D01*
X150333522Y-74228480D01*
X150282322Y-73888860D01*
X150272064Y-73819068D01*
X150277280Y-73802402D01*
X150293893Y-73791310D01*
X150329309Y-73786553D01*
X150395741Y-73793295D01*
X150418427Y-73806795D01*
X150457078Y-73897104D01*
X150513057Y-74027609D01*
X150560346Y-74100124D01*
X150600275Y-74134401D01*
X150635681Y-74144125D01*
X150665193Y-74138133D01*
X150688346Y-74120403D01*
X150703346Y-74094184D01*
X150708587Y-74060868D01*
X150698307Y-73995293D01*
X150662151Y-73908553D01*
X150548211Y-73711449D01*
X150401546Y-73461733D01*
X150318867Y-73294892D01*
X150281271Y-73189327D01*
X150259030Y-73083417D01*
X150251639Y-72976247D01*
X150261614Y-72856244D01*
X150289187Y-72760082D01*
X150332240Y-72682972D01*
X150376857Y-72633123D01*
X150424068Y-72599512D01*
X150474687Y-72579803D01*
X150530168Y-72573155D01*
X150582443Y-72579663D01*
X150645906Y-72601462D01*
X150723608Y-72643039D01*
G37*
G36*
X151028332Y-72686453D02*
G01*
X151028332Y-72631590D01*
X151037368Y-72605489D01*
X151065060Y-72596602D01*
X151555896Y-72596602D01*
X151581869Y-72599114D01*
X151593723Y-72604662D01*
X151599844Y-72616707D01*
X151602882Y-72650000D01*
X151596837Y-72719517D01*
X151587602Y-72730755D01*
X151569635Y-72737286D01*
X151535592Y-72750856D01*
X151515850Y-72775650D01*
X151508544Y-72815505D01*
X151508544Y-74050244D01*
X151518787Y-74082380D01*
X151553057Y-74109229D01*
X151579814Y-74124390D01*
X151590151Y-74135149D01*
X151596746Y-74174258D01*
X151596746Y-74212910D01*
X151594214Y-74242245D01*
X151589510Y-74250828D01*
X151555896Y-74255500D01*
X151055809Y-74255500D01*
X151031596Y-74248608D01*
X151024210Y-74229671D01*
X151029614Y-74136523D01*
X151040215Y-74121981D01*
X151067349Y-74109045D01*
X151098704Y-74095155D01*
X151115140Y-74076996D01*
X151120564Y-74053633D01*
X151120564Y-72841333D01*
X151117686Y-72801914D01*
X151110672Y-72777952D01*
X151096087Y-72759658D01*
X151066983Y-72742873D01*
X151034377Y-72721624D01*
X151028332Y-72686453D01*
G37*
G36*
X151900828Y-73329239D02*
G01*
X151900828Y-74043741D01*
X151906022Y-74069677D01*
X151921630Y-74091117D01*
X151950287Y-74109229D01*
X151984802Y-74134064D01*
X151995075Y-74165008D01*
X151990954Y-74246524D01*
X151983120Y-74252523D01*
X151958347Y-74255500D01*
X151685864Y-74255500D01*
X151667033Y-74250926D01*
X151657654Y-74238372D01*
X151652158Y-74157863D01*
X151659434Y-74131937D01*
X151681559Y-74115090D01*
X151722733Y-74088452D01*
X151733125Y-74064532D01*
X151733125Y-72854339D01*
X151730775Y-72813681D01*
X151725157Y-72789676D01*
X151713051Y-72771001D01*
X151689619Y-72754597D01*
X151666364Y-72740424D01*
X151654082Y-72726936D01*
X151647747Y-72708441D01*
X151644923Y-72671157D01*
X151650976Y-72624806D01*
X151664980Y-72603280D01*
X151685772Y-72596602D01*
X151972544Y-72596602D01*
X152311980Y-73388956D01*
X152311980Y-72810467D01*
X152306641Y-72781895D01*
X152291132Y-72759885D01*
X152263529Y-72742873D01*
X152236937Y-72727051D01*
X152223778Y-72711457D01*
X152217553Y-72689573D01*
X152214711Y-72643680D01*
X152217013Y-72615048D01*
X152221672Y-72604204D01*
X152247317Y-72596602D01*
X152530334Y-72596602D01*
X152542867Y-72603457D01*
X152552343Y-72623675D01*
X152556620Y-72667952D01*
X152551583Y-72718143D01*
X152529234Y-72737103D01*
X152498229Y-72752286D01*
X152485454Y-72763664D01*
X152476753Y-72798835D01*
X152476753Y-74255500D01*
X152297692Y-74255500D01*
X151900828Y-73329239D01*
G37*
G36*
X153340365Y-74160153D02*
G01*
X153289982Y-74213537D01*
X153235854Y-74249984D01*
X153176997Y-74271599D01*
X153111754Y-74278947D01*
X153032739Y-74269729D01*
X152960015Y-74242345D01*
X152891616Y-74195624D01*
X152826386Y-74126425D01*
X152764074Y-74029911D01*
X152706660Y-73903811D01*
X152664545Y-73764695D01*
X152638344Y-73610744D01*
X152629252Y-73439881D01*
X152636220Y-73281402D01*
X152656067Y-73141570D01*
X152687470Y-73018229D01*
X152729483Y-72909433D01*
X152781568Y-72813490D01*
X152850553Y-72720237D01*
X152920355Y-72653275D01*
X152991430Y-72608166D01*
X153064890Y-72581906D01*
X153142437Y-72573155D01*
X153207775Y-72579085D01*
X153266627Y-72596366D01*
X153320307Y-72624904D01*
X153356668Y-72639741D01*
X153370473Y-72633237D01*
X153385611Y-72606769D01*
X153403934Y-72581322D01*
X153431407Y-72573155D01*
X153443863Y-72573155D01*
X153476836Y-72575170D01*
X153504543Y-72589264D01*
X153520341Y-72623438D01*
X153585921Y-72947396D01*
X153596270Y-73015265D01*
X153590625Y-73035681D01*
X153573596Y-73048528D01*
X153539026Y-73053825D01*
X153490054Y-73048905D01*
X153468592Y-73038163D01*
X153450443Y-73012618D01*
X153406219Y-72931093D01*
X153343797Y-72819463D01*
X153298966Y-72761191D01*
X153249881Y-72724941D01*
X153200963Y-72713839D01*
X153154133Y-72721614D01*
X153118195Y-72743822D01*
X153090400Y-72782225D01*
X153071069Y-72842633D01*
X153063485Y-72933840D01*
X153063485Y-74032200D01*
X153069652Y-74090416D01*
X153084883Y-74124851D01*
X153106897Y-74143557D01*
X153137399Y-74149987D01*
X153171492Y-74143232D01*
X153195601Y-74123939D01*
X153211928Y-74089244D01*
X153218457Y-74031559D01*
X153218457Y-73493920D01*
X153209167Y-73450908D01*
X153184385Y-73428707D01*
X153162019Y-73413862D01*
X153148554Y-73391907D01*
X153143627Y-73360288D01*
X153147378Y-73311148D01*
X153154710Y-73293976D01*
X153169390Y-73285972D01*
X153200872Y-73282436D01*
X153634281Y-73282436D01*
X153664001Y-73286022D01*
X153678886Y-73294434D01*
X153686867Y-73310531D01*
X153690518Y-73347099D01*
X153683465Y-73404344D01*
X153672687Y-73417076D01*
X153649668Y-73428799D01*
X153623758Y-73448161D01*
X153614772Y-73482562D01*
X153614772Y-74181494D01*
X153611857Y-74239118D01*
X153605979Y-74261911D01*
X153592320Y-74273860D01*
X153560550Y-74278947D01*
X153513930Y-74274092D01*
X153474546Y-74245241D01*
X153404040Y-74189077D01*
X153340365Y-74160153D01*
G37*
G36*
X154216067Y-72731424D02*
G01*
X154216067Y-73311745D01*
X154282837Y-73311745D01*
X154307929Y-73308520D01*
X154322862Y-73300388D01*
X154332870Y-73284856D01*
X154342371Y-73249646D01*
X154362979Y-73162726D01*
X154373600Y-73151447D01*
X154389357Y-73147614D01*
X154462907Y-73150284D01*
X154482964Y-73154850D01*
X154490764Y-73167657D01*
X154494779Y-73208247D01*
X154494779Y-73545394D01*
X154491376Y-73574706D01*
X154483605Y-73588533D01*
X154466862Y-73595416D01*
X154418025Y-73598975D01*
X154385651Y-73594938D01*
X154369391Y-73585419D01*
X154358988Y-73565515D01*
X154345485Y-73511414D01*
X154332883Y-73463449D01*
X154324236Y-73446384D01*
X154312059Y-73437983D01*
X154293004Y-73434844D01*
X154216067Y-73434844D01*
X154216067Y-74132401D01*
X154267450Y-74132401D01*
X154310286Y-74124823D01*
X154334403Y-74105107D01*
X154353631Y-74064351D01*
X154394670Y-73944090D01*
X154414712Y-73892903D01*
X154431489Y-73869077D01*
X154455079Y-73856286D01*
X154497893Y-73851033D01*
X154538159Y-73857116D01*
X154557886Y-73871800D01*
X154564388Y-73894997D01*
X154560266Y-73931267D01*
X154522348Y-74163908D01*
X154504762Y-74241669D01*
X154492809Y-74251152D01*
X154461073Y-74255500D01*
X153777621Y-74255500D01*
X153753852Y-74251696D01*
X153742541Y-74242494D01*
X153737418Y-74223812D01*
X153734756Y-74171053D01*
X153744153Y-74138217D01*
X153773408Y-74115090D01*
X153805954Y-74096374D01*
X153822703Y-74076121D01*
X153827996Y-74053450D01*
X153827996Y-72781341D01*
X153819305Y-72765735D01*
X153783574Y-72744430D01*
X153756090Y-72729099D01*
X153745747Y-72717319D01*
X153739794Y-72655587D01*
X153742147Y-72618251D01*
X153746663Y-72605395D01*
X153757058Y-72599464D01*
X153784765Y-72596602D01*
X154438542Y-72596602D01*
X154461983Y-72599144D01*
X154476186Y-72605486D01*
X154485916Y-72618082D01*
X154494687Y-72646428D01*
X154546894Y-72912591D01*
X154551107Y-72940984D01*
X154546272Y-72956878D01*
X154531062Y-72967320D01*
X154498992Y-72971759D01*
X154447721Y-72967617D01*
X154423521Y-72958478D01*
X154406786Y-72939047D01*
X154386610Y-72893082D01*
X154354376Y-72809052D01*
X154332388Y-72766412D01*
X154307311Y-72739167D01*
X154282837Y-72731424D01*
X154216067Y-72731424D01*
G37*
G36*
X155267038Y-72604276D02*
G01*
X155341266Y-72626820D01*
X155410184Y-72664412D01*
X155474904Y-72718407D01*
X155535986Y-72791233D01*
X155580158Y-72866982D01*
X155617803Y-72964482D01*
X155647535Y-73088291D01*
X155667316Y-73243630D01*
X155674563Y-73436309D01*
X155667878Y-73609507D01*
X155649354Y-73753790D01*
X155621006Y-73873164D01*
X155584413Y-73971253D01*
X155540657Y-74051251D01*
X155481080Y-74127501D01*
X155416718Y-74184062D01*
X155347004Y-74223550D01*
X155270683Y-74247349D01*
X155185925Y-74255500D01*
X154644805Y-74255500D01*
X154623476Y-74252170D01*
X154611374Y-74243684D01*
X154604921Y-74228263D01*
X154601940Y-74193584D01*
X154605143Y-74138263D01*
X155079221Y-74138263D01*
X155130604Y-74138263D01*
X155164950Y-74132898D01*
X155191504Y-74117652D01*
X155212212Y-74091735D01*
X155230296Y-74035423D01*
X155238315Y-73924031D01*
X155238315Y-72877329D01*
X155229783Y-72814317D01*
X155206258Y-72767603D01*
X155182204Y-72744459D01*
X155152460Y-72730493D01*
X155115217Y-72725562D01*
X155079221Y-72725562D01*
X155079221Y-74138263D01*
X154605143Y-74138263D01*
X154605238Y-74136614D01*
X154612821Y-74125332D01*
X154636287Y-74109320D01*
X154668089Y-74086203D01*
X154686041Y-74058245D01*
X154692158Y-74023774D01*
X154692158Y-72782898D01*
X154683439Y-72767853D01*
X154657353Y-72754780D01*
X154633090Y-72743644D01*
X154619892Y-72729867D01*
X154613290Y-72708787D01*
X154610184Y-72661082D01*
X154614444Y-72626457D01*
X154624380Y-72609516D01*
X154644348Y-72600823D01*
X154695088Y-72596602D01*
X155185925Y-72596602D01*
X155267038Y-72604276D01*
G37*
G36*
X156972057Y-72604040D02*
G01*
X157056372Y-72624776D01*
X157125966Y-72657225D01*
X157183343Y-72700924D01*
X157231194Y-72756482D01*
X157265051Y-72818270D01*
X157285728Y-72887563D01*
X157292886Y-72966172D01*
X157282965Y-73052295D01*
X157254287Y-73126450D01*
X157206607Y-73191394D01*
X157145111Y-73245591D01*
X157078282Y-73285015D01*
X157005107Y-73310738D01*
X157120348Y-73360522D01*
X157201291Y-73414142D01*
X157255425Y-73470930D01*
X157293200Y-73539556D01*
X157317716Y-73627396D01*
X157326683Y-73739475D01*
X157317129Y-73870377D01*
X157290785Y-73975658D01*
X157250025Y-74060158D01*
X157195616Y-74127638D01*
X157126986Y-74180187D01*
X157039683Y-74220017D01*
X156929434Y-74246011D01*
X156790875Y-74255500D01*
X156289872Y-74255500D01*
X156264630Y-74246996D01*
X156256167Y-74221336D01*
X156256167Y-74160886D01*
X156263169Y-74137827D01*
X156270371Y-74132401D01*
X156729326Y-74132401D01*
X156811367Y-74124735D01*
X156850959Y-74107488D01*
X156874275Y-74074123D01*
X156887962Y-74007105D01*
X156893549Y-73750833D01*
X156890435Y-73583038D01*
X156884761Y-73464806D01*
X156878436Y-73426234D01*
X156866071Y-73402932D01*
X156847112Y-73385293D01*
X156821562Y-73374607D01*
X156780709Y-73370363D01*
X156729326Y-73370363D01*
X156729326Y-74132401D01*
X156270371Y-74132401D01*
X156285567Y-74120952D01*
X156318302Y-74099102D01*
X156336267Y-74073432D01*
X156342262Y-74042550D01*
X156342262Y-73247265D01*
X156729326Y-73247265D01*
X156780709Y-73247265D01*
X156826401Y-73239708D01*
X156859019Y-73218689D01*
X156880273Y-73183538D01*
X156891992Y-73122060D01*
X156896571Y-72949411D01*
X156892266Y-72850515D01*
X156882038Y-72792583D01*
X156869094Y-72761924D01*
X156847695Y-72738933D01*
X156819049Y-72724813D01*
X156780709Y-72719700D01*
X156729326Y-72719700D01*
X156729326Y-73247265D01*
X156342262Y-73247265D01*
X156342262Y-72803873D01*
X156339926Y-72781660D01*
X156334569Y-72770717D01*
X156286575Y-72742873D01*
X156268259Y-72731647D01*
X156261021Y-72721166D01*
X156257174Y-72664746D01*
X156260694Y-72628634D01*
X156268715Y-72610799D01*
X156283247Y-72600573D01*
X156308282Y-72596602D01*
X156869827Y-72596602D01*
X156972057Y-72604040D01*
G37*
G36*
X158076539Y-73515810D02*
G01*
X158076539Y-74053450D01*
X158081635Y-74076080D01*
X158097247Y-74094705D01*
X158126914Y-74110236D01*
X158159337Y-74127364D01*
X158165366Y-74143144D01*
X158168771Y-74199079D01*
X158165769Y-74233902D01*
X158159704Y-74246798D01*
X158148112Y-74252878D01*
X158124808Y-74255500D01*
X157639192Y-74255500D01*
X157609611Y-74246693D01*
X157600357Y-74221886D01*
X157600357Y-74163359D01*
X157605401Y-74140931D01*
X157620669Y-74123172D01*
X157649542Y-74109137D01*
X157670444Y-74099614D01*
X157680774Y-74090178D01*
X157686073Y-74076359D01*
X157688468Y-74047221D01*
X157688468Y-73542463D01*
X157482571Y-72812940D01*
X157460303Y-72767872D01*
X157426884Y-72742873D01*
X157408618Y-72728033D01*
X157402612Y-72706053D01*
X157402612Y-72627468D01*
X157410618Y-72604458D01*
X157435218Y-72596602D01*
X157869635Y-72596602D01*
X157887209Y-72599805D01*
X157896563Y-72608051D01*
X157901072Y-72623644D01*
X157903340Y-72664654D01*
X157899494Y-72722265D01*
X157892928Y-72733519D01*
X157878428Y-72744705D01*
X157861516Y-72761253D01*
X157856263Y-72780609D01*
X157861300Y-72810009D01*
X157992642Y-73259263D01*
X158128196Y-72810650D01*
X158129112Y-72791966D01*
X158120650Y-72762385D01*
X158090095Y-72727028D01*
X158074805Y-72708970D01*
X158070677Y-72694788D01*
X158070677Y-72633696D01*
X158079177Y-72605487D01*
X158103284Y-72596602D01*
X158327682Y-72596602D01*
X158352694Y-72605586D01*
X158361387Y-72633696D01*
X158361387Y-72698909D01*
X158356143Y-72716479D01*
X158337665Y-72735454D01*
X158305698Y-72767866D01*
X158284451Y-72812940D01*
X158076539Y-73515810D01*
G37*
D11*
X167540000Y-64480000D02*
X166720000Y-64480000D01*
X166720000Y-63550000D01*
X167540000Y-63550000D01*
X167540000Y-64480000D01*
G36*
X167540000Y-64480000D02*
G01*
X166720000Y-64480000D01*
X166720000Y-63550000D01*
X167540000Y-63550000D01*
X167540000Y-64480000D01*
G37*
X168910000Y-64460000D02*
X167050000Y-64460000D01*
X167050000Y-63510000D01*
X168910000Y-63510000D01*
X168910000Y-64460000D01*
G36*
X168910000Y-64460000D02*
G01*
X167050000Y-64460000D01*
X167050000Y-63510000D01*
X168910000Y-63510000D01*
X168910000Y-64460000D01*
G37*
X169600000Y-64470000D02*
X168590000Y-64470000D01*
X168590000Y-61940000D01*
X169600000Y-61940000D01*
X169600000Y-64470000D01*
G36*
X169600000Y-64470000D02*
G01*
X168590000Y-64470000D01*
X168590000Y-61940000D01*
X169600000Y-61940000D01*
X169600000Y-64470000D01*
G37*
X169610000Y-62000000D02*
X168600000Y-62000000D01*
X168600000Y-61690000D01*
X169610000Y-61690000D01*
X169610000Y-62000000D01*
G36*
X169610000Y-62000000D02*
G01*
X168600000Y-62000000D01*
X168600000Y-61690000D01*
X169610000Y-61690000D01*
X169610000Y-62000000D01*
G37*
D12*
X169426033Y-49743332D02*
X168959366Y-49743332D01*
X169026033Y-49743332D02*
X168992700Y-49709999D01*
X168992700Y-49709999D02*
X168959366Y-49643332D01*
X168959366Y-49643332D02*
X168959366Y-49543332D01*
X168959366Y-49543332D02*
X168992700Y-49476665D01*
X168992700Y-49476665D02*
X169059366Y-49443332D01*
X169059366Y-49443332D02*
X169426033Y-49443332D01*
X169059366Y-49443332D02*
X168992700Y-49409999D01*
X168992700Y-49409999D02*
X168959366Y-49343332D01*
X168959366Y-49343332D02*
X168959366Y-49243332D01*
X168959366Y-49243332D02*
X168992700Y-49176665D01*
X168992700Y-49176665D02*
X169059366Y-49143332D01*
X169059366Y-49143332D02*
X169426033Y-49143332D01*
X169426033Y-48709999D02*
X169392700Y-48776666D01*
X169392700Y-48776666D02*
X169359366Y-48809999D01*
X169359366Y-48809999D02*
X169292700Y-48843332D01*
X169292700Y-48843332D02*
X169092700Y-48843332D01*
X169092700Y-48843332D02*
X169026033Y-48809999D01*
X169026033Y-48809999D02*
X168992700Y-48776666D01*
X168992700Y-48776666D02*
X168959366Y-48709999D01*
X168959366Y-48709999D02*
X168959366Y-48609999D01*
X168959366Y-48609999D02*
X168992700Y-48543332D01*
X168992700Y-48543332D02*
X169026033Y-48509999D01*
X169026033Y-48509999D02*
X169092700Y-48476666D01*
X169092700Y-48476666D02*
X169292700Y-48476666D01*
X169292700Y-48476666D02*
X169359366Y-48509999D01*
X169359366Y-48509999D02*
X169392700Y-48543332D01*
X169392700Y-48543332D02*
X169426033Y-48609999D01*
X169426033Y-48609999D02*
X169426033Y-48709999D01*
X169392700Y-48209999D02*
X169426033Y-48143333D01*
X169426033Y-48143333D02*
X169426033Y-48009999D01*
X169426033Y-48009999D02*
X169392700Y-47943333D01*
X169392700Y-47943333D02*
X169326033Y-47909999D01*
X169326033Y-47909999D02*
X169292700Y-47909999D01*
X169292700Y-47909999D02*
X169226033Y-47943333D01*
X169226033Y-47943333D02*
X169192700Y-48009999D01*
X169192700Y-48009999D02*
X169192700Y-48109999D01*
X169192700Y-48109999D02*
X169159366Y-48176666D01*
X169159366Y-48176666D02*
X169092700Y-48209999D01*
X169092700Y-48209999D02*
X169059366Y-48209999D01*
X169059366Y-48209999D02*
X168992700Y-48176666D01*
X168992700Y-48176666D02*
X168959366Y-48109999D01*
X168959366Y-48109999D02*
X168959366Y-48009999D01*
X168959366Y-48009999D02*
X168992700Y-47943333D01*
X169426033Y-47309999D02*
X169059366Y-47309999D01*
X169059366Y-47309999D02*
X168992700Y-47343332D01*
X168992700Y-47343332D02*
X168959366Y-47409999D01*
X168959366Y-47409999D02*
X168959366Y-47543332D01*
X168959366Y-47543332D02*
X168992700Y-47609999D01*
X169392700Y-47309999D02*
X169426033Y-47376666D01*
X169426033Y-47376666D02*
X169426033Y-47543332D01*
X169426033Y-47543332D02*
X169392700Y-47609999D01*
X169392700Y-47609999D02*
X169326033Y-47643332D01*
X169326033Y-47643332D02*
X169259366Y-47643332D01*
X169259366Y-47643332D02*
X169192700Y-47609999D01*
X169192700Y-47609999D02*
X169159366Y-47543332D01*
X169159366Y-47543332D02*
X169159366Y-47376666D01*
X169159366Y-47376666D02*
X169126033Y-47309999D01*
X169426033Y-46976666D02*
X168959366Y-46976666D01*
X168726033Y-46976666D02*
X168759366Y-47009999D01*
X168759366Y-47009999D02*
X168792700Y-46976666D01*
X168792700Y-46976666D02*
X168759366Y-46943333D01*
X168759366Y-46943333D02*
X168726033Y-46976666D01*
X168726033Y-46976666D02*
X168792700Y-46976666D01*
X169392700Y-46343333D02*
X169426033Y-46410000D01*
X169426033Y-46410000D02*
X169426033Y-46543333D01*
X169426033Y-46543333D02*
X169392700Y-46610000D01*
X169392700Y-46610000D02*
X169359366Y-46643333D01*
X169359366Y-46643333D02*
X169292700Y-46676666D01*
X169292700Y-46676666D02*
X169092700Y-46676666D01*
X169092700Y-46676666D02*
X169026033Y-46643333D01*
X169026033Y-46643333D02*
X168992700Y-46610000D01*
X168992700Y-46610000D02*
X168959366Y-46543333D01*
X168959366Y-46543333D02*
X168959366Y-46410000D01*
X168959366Y-46410000D02*
X168992700Y-46343333D01*
X154753332Y-31673966D02*
X154753332Y-32140633D01*
X154753332Y-32073966D02*
X154719999Y-32107300D01*
X154719999Y-32107300D02*
X154653332Y-32140633D01*
X154653332Y-32140633D02*
X154553332Y-32140633D01*
X154553332Y-32140633D02*
X154486665Y-32107300D01*
X154486665Y-32107300D02*
X154453332Y-32040633D01*
X154453332Y-32040633D02*
X154453332Y-31673966D01*
X154453332Y-32040633D02*
X154419999Y-32107300D01*
X154419999Y-32107300D02*
X154353332Y-32140633D01*
X154353332Y-32140633D02*
X154253332Y-32140633D01*
X154253332Y-32140633D02*
X154186665Y-32107300D01*
X154186665Y-32107300D02*
X154153332Y-32040633D01*
X154153332Y-32040633D02*
X154153332Y-31673966D01*
X153719999Y-31673966D02*
X153786666Y-31707300D01*
X153786666Y-31707300D02*
X153819999Y-31740633D01*
X153819999Y-31740633D02*
X153853332Y-31807300D01*
X153853332Y-31807300D02*
X153853332Y-32007300D01*
X153853332Y-32007300D02*
X153819999Y-32073966D01*
X153819999Y-32073966D02*
X153786666Y-32107300D01*
X153786666Y-32107300D02*
X153719999Y-32140633D01*
X153719999Y-32140633D02*
X153619999Y-32140633D01*
X153619999Y-32140633D02*
X153553332Y-32107300D01*
X153553332Y-32107300D02*
X153519999Y-32073966D01*
X153519999Y-32073966D02*
X153486666Y-32007300D01*
X153486666Y-32007300D02*
X153486666Y-31807300D01*
X153486666Y-31807300D02*
X153519999Y-31740633D01*
X153519999Y-31740633D02*
X153553332Y-31707300D01*
X153553332Y-31707300D02*
X153619999Y-31673966D01*
X153619999Y-31673966D02*
X153719999Y-31673966D01*
X153219999Y-31707300D02*
X153153333Y-31673966D01*
X153153333Y-31673966D02*
X153019999Y-31673966D01*
X153019999Y-31673966D02*
X152953333Y-31707300D01*
X152953333Y-31707300D02*
X152919999Y-31773966D01*
X152919999Y-31773966D02*
X152919999Y-31807300D01*
X152919999Y-31807300D02*
X152953333Y-31873966D01*
X152953333Y-31873966D02*
X153019999Y-31907300D01*
X153019999Y-31907300D02*
X153119999Y-31907300D01*
X153119999Y-31907300D02*
X153186666Y-31940633D01*
X153186666Y-31940633D02*
X153219999Y-32007300D01*
X153219999Y-32007300D02*
X153219999Y-32040633D01*
X153219999Y-32040633D02*
X153186666Y-32107300D01*
X153186666Y-32107300D02*
X153119999Y-32140633D01*
X153119999Y-32140633D02*
X153019999Y-32140633D01*
X153019999Y-32140633D02*
X152953333Y-32107300D01*
X152319999Y-31673966D02*
X152319999Y-32040633D01*
X152319999Y-32040633D02*
X152353332Y-32107300D01*
X152353332Y-32107300D02*
X152419999Y-32140633D01*
X152419999Y-32140633D02*
X152553332Y-32140633D01*
X152553332Y-32140633D02*
X152619999Y-32107300D01*
X152319999Y-31707300D02*
X152386666Y-31673966D01*
X152386666Y-31673966D02*
X152553332Y-31673966D01*
X152553332Y-31673966D02*
X152619999Y-31707300D01*
X152619999Y-31707300D02*
X152653332Y-31773966D01*
X152653332Y-31773966D02*
X152653332Y-31840633D01*
X152653332Y-31840633D02*
X152619999Y-31907300D01*
X152619999Y-31907300D02*
X152553332Y-31940633D01*
X152553332Y-31940633D02*
X152386666Y-31940633D01*
X152386666Y-31940633D02*
X152319999Y-31973966D01*
X151986666Y-31673966D02*
X151986666Y-32140633D01*
X151986666Y-32373966D02*
X152019999Y-32340633D01*
X152019999Y-32340633D02*
X151986666Y-32307300D01*
X151986666Y-32307300D02*
X151953333Y-32340633D01*
X151953333Y-32340633D02*
X151986666Y-32373966D01*
X151986666Y-32373966D02*
X151986666Y-32307300D01*
X151353333Y-31707300D02*
X151420000Y-31673966D01*
X151420000Y-31673966D02*
X151553333Y-31673966D01*
X151553333Y-31673966D02*
X151620000Y-31707300D01*
X151620000Y-31707300D02*
X151653333Y-31740633D01*
X151653333Y-31740633D02*
X151686666Y-31807300D01*
X151686666Y-31807300D02*
X151686666Y-32007300D01*
X151686666Y-32007300D02*
X151653333Y-32073966D01*
X151653333Y-32073966D02*
X151620000Y-32107300D01*
X151620000Y-32107300D02*
X151553333Y-32140633D01*
X151553333Y-32140633D02*
X151420000Y-32140633D01*
X151420000Y-32140633D02*
X151353333Y-32107300D01*
X136763966Y-46336667D02*
X137230633Y-46336667D01*
X137163966Y-46336667D02*
X137197300Y-46370001D01*
X137197300Y-46370001D02*
X137230633Y-46436667D01*
X137230633Y-46436667D02*
X137230633Y-46536667D01*
X137230633Y-46536667D02*
X137197300Y-46603334D01*
X137197300Y-46603334D02*
X137130633Y-46636667D01*
X137130633Y-46636667D02*
X136763966Y-46636667D01*
X137130633Y-46636667D02*
X137197300Y-46670001D01*
X137197300Y-46670001D02*
X137230633Y-46736667D01*
X137230633Y-46736667D02*
X137230633Y-46836667D01*
X137230633Y-46836667D02*
X137197300Y-46903334D01*
X137197300Y-46903334D02*
X137130633Y-46936667D01*
X137130633Y-46936667D02*
X136763966Y-46936667D01*
X136763966Y-47370000D02*
X136797300Y-47303334D01*
X136797300Y-47303334D02*
X136830633Y-47270000D01*
X136830633Y-47270000D02*
X136897300Y-47236667D01*
X136897300Y-47236667D02*
X137097300Y-47236667D01*
X137097300Y-47236667D02*
X137163966Y-47270000D01*
X137163966Y-47270000D02*
X137197300Y-47303334D01*
X137197300Y-47303334D02*
X137230633Y-47370000D01*
X137230633Y-47370000D02*
X137230633Y-47470000D01*
X137230633Y-47470000D02*
X137197300Y-47536667D01*
X137197300Y-47536667D02*
X137163966Y-47570000D01*
X137163966Y-47570000D02*
X137097300Y-47603334D01*
X137097300Y-47603334D02*
X136897300Y-47603334D01*
X136897300Y-47603334D02*
X136830633Y-47570000D01*
X136830633Y-47570000D02*
X136797300Y-47536667D01*
X136797300Y-47536667D02*
X136763966Y-47470000D01*
X136763966Y-47470000D02*
X136763966Y-47370000D01*
X136797300Y-47870000D02*
X136763966Y-47936667D01*
X136763966Y-47936667D02*
X136763966Y-48070000D01*
X136763966Y-48070000D02*
X136797300Y-48136667D01*
X136797300Y-48136667D02*
X136863966Y-48170000D01*
X136863966Y-48170000D02*
X136897300Y-48170000D01*
X136897300Y-48170000D02*
X136963966Y-48136667D01*
X136963966Y-48136667D02*
X136997300Y-48070000D01*
X136997300Y-48070000D02*
X136997300Y-47970000D01*
X136997300Y-47970000D02*
X137030633Y-47903333D01*
X137030633Y-47903333D02*
X137097300Y-47870000D01*
X137097300Y-47870000D02*
X137130633Y-47870000D01*
X137130633Y-47870000D02*
X137197300Y-47903333D01*
X137197300Y-47903333D02*
X137230633Y-47970000D01*
X137230633Y-47970000D02*
X137230633Y-48070000D01*
X137230633Y-48070000D02*
X137197300Y-48136667D01*
X136763966Y-48770000D02*
X137130633Y-48770000D01*
X137130633Y-48770000D02*
X137197300Y-48736667D01*
X137197300Y-48736667D02*
X137230633Y-48670000D01*
X137230633Y-48670000D02*
X137230633Y-48536667D01*
X137230633Y-48536667D02*
X137197300Y-48470000D01*
X136797300Y-48770000D02*
X136763966Y-48703334D01*
X136763966Y-48703334D02*
X136763966Y-48536667D01*
X136763966Y-48536667D02*
X136797300Y-48470000D01*
X136797300Y-48470000D02*
X136863966Y-48436667D01*
X136863966Y-48436667D02*
X136930633Y-48436667D01*
X136930633Y-48436667D02*
X136997300Y-48470000D01*
X136997300Y-48470000D02*
X137030633Y-48536667D01*
X137030633Y-48536667D02*
X137030633Y-48703334D01*
X137030633Y-48703334D02*
X137063966Y-48770000D01*
X136763966Y-49103333D02*
X137230633Y-49103333D01*
X137463966Y-49103333D02*
X137430633Y-49070000D01*
X137430633Y-49070000D02*
X137397300Y-49103333D01*
X137397300Y-49103333D02*
X137430633Y-49136667D01*
X137430633Y-49136667D02*
X137463966Y-49103333D01*
X137463966Y-49103333D02*
X137397300Y-49103333D01*
X136797300Y-49736666D02*
X136763966Y-49670000D01*
X136763966Y-49670000D02*
X136763966Y-49536666D01*
X136763966Y-49536666D02*
X136797300Y-49470000D01*
X136797300Y-49470000D02*
X136830633Y-49436666D01*
X136830633Y-49436666D02*
X136897300Y-49403333D01*
X136897300Y-49403333D02*
X137097300Y-49403333D01*
X137097300Y-49403333D02*
X137163966Y-49436666D01*
X137163966Y-49436666D02*
X137197300Y-49470000D01*
X137197300Y-49470000D02*
X137230633Y-49536666D01*
X137230633Y-49536666D02*
X137230633Y-49670000D01*
X137230633Y-49670000D02*
X137197300Y-49736666D01*
X130397619Y-52612295D02*
X130016667Y-52612295D01*
X130016667Y-52612295D02*
X129978571Y-52993247D01*
X129978571Y-52993247D02*
X130016667Y-52955152D01*
X130016667Y-52955152D02*
X130092857Y-52917057D01*
X130092857Y-52917057D02*
X130283333Y-52917057D01*
X130283333Y-52917057D02*
X130359524Y-52955152D01*
X130359524Y-52955152D02*
X130397619Y-52993247D01*
X130397619Y-52993247D02*
X130435714Y-53069438D01*
X130435714Y-53069438D02*
X130435714Y-53259914D01*
X130435714Y-53259914D02*
X130397619Y-53336104D01*
X130397619Y-53336104D02*
X130359524Y-53374200D01*
X130359524Y-53374200D02*
X130283333Y-53412295D01*
X130283333Y-53412295D02*
X130092857Y-53412295D01*
X130092857Y-53412295D02*
X130016667Y-53374200D01*
X130016667Y-53374200D02*
X129978571Y-53336104D01*
X130664286Y-52612295D02*
X130930953Y-53412295D01*
X130930953Y-53412295D02*
X131197619Y-52612295D01*
X129609523Y-48362295D02*
X130104761Y-48362295D01*
X130104761Y-48362295D02*
X129838095Y-48667057D01*
X129838095Y-48667057D02*
X129952380Y-48667057D01*
X129952380Y-48667057D02*
X130028571Y-48705152D01*
X130028571Y-48705152D02*
X130066666Y-48743247D01*
X130066666Y-48743247D02*
X130104761Y-48819438D01*
X130104761Y-48819438D02*
X130104761Y-49009914D01*
X130104761Y-49009914D02*
X130066666Y-49086104D01*
X130066666Y-49086104D02*
X130028571Y-49124200D01*
X130028571Y-49124200D02*
X129952380Y-49162295D01*
X129952380Y-49162295D02*
X129723809Y-49162295D01*
X129723809Y-49162295D02*
X129647618Y-49124200D01*
X129647618Y-49124200D02*
X129609523Y-49086104D01*
X130333333Y-48362295D02*
X130600000Y-49162295D01*
X130600000Y-49162295D02*
X130866666Y-48362295D01*
X131057142Y-48362295D02*
X131552380Y-48362295D01*
X131552380Y-48362295D02*
X131285714Y-48667057D01*
X131285714Y-48667057D02*
X131399999Y-48667057D01*
X131399999Y-48667057D02*
X131476190Y-48705152D01*
X131476190Y-48705152D02*
X131514285Y-48743247D01*
X131514285Y-48743247D02*
X131552380Y-48819438D01*
X131552380Y-48819438D02*
X131552380Y-49009914D01*
X131552380Y-49009914D02*
X131514285Y-49086104D01*
X131514285Y-49086104D02*
X131476190Y-49124200D01*
X131476190Y-49124200D02*
X131399999Y-49162295D01*
X131399999Y-49162295D02*
X131171428Y-49162295D01*
X131171428Y-49162295D02*
X131095237Y-49124200D01*
X131095237Y-49124200D02*
X131057142Y-49086104D01*
X129866667Y-50462295D02*
X130133334Y-51262295D01*
X130133334Y-51262295D02*
X130400000Y-50462295D01*
X130628571Y-51033723D02*
X131009524Y-51033723D01*
X130552381Y-51262295D02*
X130819048Y-50462295D01*
X130819048Y-50462295D02*
X131085714Y-51262295D01*
X131352381Y-51262295D02*
X131352381Y-50462295D01*
X131352381Y-50462295D02*
X131809524Y-51262295D01*
X131809524Y-51262295D02*
X131809524Y-50462295D01*
X132076190Y-50462295D02*
X132533333Y-50462295D01*
X132304761Y-51262295D02*
X132304761Y-50462295D01*
X133083333Y-77072295D02*
X133083333Y-76272295D01*
X133083333Y-76272295D02*
X133388095Y-76272295D01*
X133388095Y-76272295D02*
X133464285Y-76310390D01*
X133464285Y-76310390D02*
X133502380Y-76348485D01*
X133502380Y-76348485D02*
X133540476Y-76424676D01*
X133540476Y-76424676D02*
X133540476Y-76538961D01*
X133540476Y-76538961D02*
X133502380Y-76615152D01*
X133502380Y-76615152D02*
X133464285Y-76653247D01*
X133464285Y-76653247D02*
X133388095Y-76691342D01*
X133388095Y-76691342D02*
X133083333Y-76691342D01*
X133807142Y-76272295D02*
X133997618Y-77072295D01*
X133997618Y-77072295D02*
X134149999Y-76500866D01*
X134149999Y-76500866D02*
X134302380Y-77072295D01*
X134302380Y-77072295D02*
X134492857Y-76272295D01*
X135254762Y-77072295D02*
X134988095Y-76691342D01*
X134797619Y-77072295D02*
X134797619Y-76272295D01*
X134797619Y-76272295D02*
X135102381Y-76272295D01*
X135102381Y-76272295D02*
X135178571Y-76310390D01*
X135178571Y-76310390D02*
X135216666Y-76348485D01*
X135216666Y-76348485D02*
X135254762Y-76424676D01*
X135254762Y-76424676D02*
X135254762Y-76538961D01*
X135254762Y-76538961D02*
X135216666Y-76615152D01*
X135216666Y-76615152D02*
X135178571Y-76653247D01*
X135178571Y-76653247D02*
X135102381Y-76691342D01*
X135102381Y-76691342D02*
X134797619Y-76691342D01*
X136139524Y-77082295D02*
X136139524Y-76282295D01*
X136139524Y-76282295D02*
X136444286Y-76282295D01*
X136444286Y-76282295D02*
X136520476Y-76320390D01*
X136520476Y-76320390D02*
X136558571Y-76358485D01*
X136558571Y-76358485D02*
X136596667Y-76434676D01*
X136596667Y-76434676D02*
X136596667Y-76548961D01*
X136596667Y-76548961D02*
X136558571Y-76625152D01*
X136558571Y-76625152D02*
X136520476Y-76663247D01*
X136520476Y-76663247D02*
X136444286Y-76701342D01*
X136444286Y-76701342D02*
X136139524Y-76701342D01*
X136939524Y-77082295D02*
X136939524Y-76282295D01*
X136939524Y-76282295D02*
X137244286Y-76282295D01*
X137244286Y-76282295D02*
X137320476Y-76320390D01*
X137320476Y-76320390D02*
X137358571Y-76358485D01*
X137358571Y-76358485D02*
X137396667Y-76434676D01*
X137396667Y-76434676D02*
X137396667Y-76548961D01*
X137396667Y-76548961D02*
X137358571Y-76625152D01*
X137358571Y-76625152D02*
X137320476Y-76663247D01*
X137320476Y-76663247D02*
X137244286Y-76701342D01*
X137244286Y-76701342D02*
X136939524Y-76701342D01*
X137701428Y-77044200D02*
X137815714Y-77082295D01*
X137815714Y-77082295D02*
X138006190Y-77082295D01*
X138006190Y-77082295D02*
X138082381Y-77044200D01*
X138082381Y-77044200D02*
X138120476Y-77006104D01*
X138120476Y-77006104D02*
X138158571Y-76929914D01*
X138158571Y-76929914D02*
X138158571Y-76853723D01*
X138158571Y-76853723D02*
X138120476Y-76777533D01*
X138120476Y-76777533D02*
X138082381Y-76739438D01*
X138082381Y-76739438D02*
X138006190Y-76701342D01*
X138006190Y-76701342D02*
X137853809Y-76663247D01*
X137853809Y-76663247D02*
X137777619Y-76625152D01*
X137777619Y-76625152D02*
X137739524Y-76587057D01*
X137739524Y-76587057D02*
X137701428Y-76510866D01*
X137701428Y-76510866D02*
X137701428Y-76434676D01*
X137701428Y-76434676D02*
X137739524Y-76358485D01*
X137739524Y-76358485D02*
X137777619Y-76320390D01*
X137777619Y-76320390D02*
X137853809Y-76282295D01*
X137853809Y-76282295D02*
X138044286Y-76282295D01*
X138044286Y-76282295D02*
X138158571Y-76320390D01*
X139629761Y-76300390D02*
X139553571Y-76262295D01*
X139553571Y-76262295D02*
X139439285Y-76262295D01*
X139439285Y-76262295D02*
X139324999Y-76300390D01*
X139324999Y-76300390D02*
X139248809Y-76376580D01*
X139248809Y-76376580D02*
X139210714Y-76452771D01*
X139210714Y-76452771D02*
X139172618Y-76605152D01*
X139172618Y-76605152D02*
X139172618Y-76719438D01*
X139172618Y-76719438D02*
X139210714Y-76871819D01*
X139210714Y-76871819D02*
X139248809Y-76948009D01*
X139248809Y-76948009D02*
X139324999Y-77024200D01*
X139324999Y-77024200D02*
X139439285Y-77062295D01*
X139439285Y-77062295D02*
X139515476Y-77062295D01*
X139515476Y-77062295D02*
X139629761Y-77024200D01*
X139629761Y-77024200D02*
X139667857Y-76986104D01*
X139667857Y-76986104D02*
X139667857Y-76719438D01*
X139667857Y-76719438D02*
X139515476Y-76719438D01*
X140391666Y-77062295D02*
X140010714Y-77062295D01*
X140010714Y-77062295D02*
X140010714Y-76262295D01*
X141077380Y-77062295D02*
X140620237Y-77062295D01*
X140848809Y-77062295D02*
X140848809Y-76262295D01*
X140848809Y-76262295D02*
X140772618Y-76376580D01*
X140772618Y-76376580D02*
X140696428Y-76452771D01*
X140696428Y-76452771D02*
X140620237Y-76490866D01*
X142779761Y-76300390D02*
X142703571Y-76262295D01*
X142703571Y-76262295D02*
X142589285Y-76262295D01*
X142589285Y-76262295D02*
X142474999Y-76300390D01*
X142474999Y-76300390D02*
X142398809Y-76376580D01*
X142398809Y-76376580D02*
X142360714Y-76452771D01*
X142360714Y-76452771D02*
X142322618Y-76605152D01*
X142322618Y-76605152D02*
X142322618Y-76719438D01*
X142322618Y-76719438D02*
X142360714Y-76871819D01*
X142360714Y-76871819D02*
X142398809Y-76948009D01*
X142398809Y-76948009D02*
X142474999Y-77024200D01*
X142474999Y-77024200D02*
X142589285Y-77062295D01*
X142589285Y-77062295D02*
X142665476Y-77062295D01*
X142665476Y-77062295D02*
X142779761Y-77024200D01*
X142779761Y-77024200D02*
X142817857Y-76986104D01*
X142817857Y-76986104D02*
X142817857Y-76719438D01*
X142817857Y-76719438D02*
X142665476Y-76719438D01*
X143541666Y-77062295D02*
X143160714Y-77062295D01*
X143160714Y-77062295D02*
X143160714Y-76262295D01*
X143770237Y-76338485D02*
X143808333Y-76300390D01*
X143808333Y-76300390D02*
X143884523Y-76262295D01*
X143884523Y-76262295D02*
X144074999Y-76262295D01*
X144074999Y-76262295D02*
X144151190Y-76300390D01*
X144151190Y-76300390D02*
X144189285Y-76338485D01*
X144189285Y-76338485D02*
X144227380Y-76414676D01*
X144227380Y-76414676D02*
X144227380Y-76490866D01*
X144227380Y-76490866D02*
X144189285Y-76605152D01*
X144189285Y-76605152D02*
X143732142Y-77062295D01*
X143732142Y-77062295D02*
X144227380Y-77062295D01*
X145217857Y-77112295D02*
X145217857Y-76312295D01*
X145217857Y-76312295D02*
X145522619Y-76312295D01*
X145522619Y-76312295D02*
X145598809Y-76350390D01*
X145598809Y-76350390D02*
X145636904Y-76388485D01*
X145636904Y-76388485D02*
X145675000Y-76464676D01*
X145675000Y-76464676D02*
X145675000Y-76578961D01*
X145675000Y-76578961D02*
X145636904Y-76655152D01*
X145636904Y-76655152D02*
X145598809Y-76693247D01*
X145598809Y-76693247D02*
X145522619Y-76731342D01*
X145522619Y-76731342D02*
X145217857Y-76731342D01*
X145903571Y-76312295D02*
X146170238Y-77112295D01*
X146170238Y-77112295D02*
X146436904Y-76312295D01*
X146589285Y-76312295D02*
X147046428Y-76312295D01*
X146817856Y-77112295D02*
X146817856Y-76312295D01*
X126933723Y-54661905D02*
X126933723Y-54280952D01*
X127162295Y-54738095D02*
X126362295Y-54471428D01*
X126362295Y-54471428D02*
X127162295Y-54204762D01*
X127162295Y-53938095D02*
X126362295Y-53938095D01*
X126362295Y-53938095D02*
X127162295Y-53480952D01*
X127162295Y-53480952D02*
X126362295Y-53480952D01*
X126362295Y-53214286D02*
X126362295Y-52757143D01*
X127162295Y-52985715D02*
X126362295Y-52985715D01*
X127162295Y-51880952D02*
X126362295Y-51880952D01*
X126362295Y-51880952D02*
X126362295Y-51576190D01*
X126362295Y-51576190D02*
X126400390Y-51500000D01*
X126400390Y-51500000D02*
X126438485Y-51461905D01*
X126438485Y-51461905D02*
X126514676Y-51423809D01*
X126514676Y-51423809D02*
X126628961Y-51423809D01*
X126628961Y-51423809D02*
X126705152Y-51461905D01*
X126705152Y-51461905D02*
X126743247Y-51500000D01*
X126743247Y-51500000D02*
X126781342Y-51576190D01*
X126781342Y-51576190D02*
X126781342Y-51880952D01*
X126362295Y-51157143D02*
X127162295Y-50966667D01*
X127162295Y-50966667D02*
X126590866Y-50814286D01*
X126590866Y-50814286D02*
X127162295Y-50661905D01*
X127162295Y-50661905D02*
X126362295Y-50471429D01*
X127162295Y-49709523D02*
X126781342Y-49976190D01*
X127162295Y-50166666D02*
X126362295Y-50166666D01*
X126362295Y-50166666D02*
X126362295Y-49861904D01*
X126362295Y-49861904D02*
X126400390Y-49785714D01*
X126400390Y-49785714D02*
X126438485Y-49747619D01*
X126438485Y-49747619D02*
X126514676Y-49709523D01*
X126514676Y-49709523D02*
X126628961Y-49709523D01*
X126628961Y-49709523D02*
X126705152Y-49747619D01*
X126705152Y-49747619D02*
X126743247Y-49785714D01*
X126743247Y-49785714D02*
X126781342Y-49861904D01*
X126781342Y-49861904D02*
X126781342Y-50166666D01*
X127124200Y-48795238D02*
X127162295Y-48680952D01*
X127162295Y-48680952D02*
X127162295Y-48490476D01*
X127162295Y-48490476D02*
X127124200Y-48414285D01*
X127124200Y-48414285D02*
X127086104Y-48376190D01*
X127086104Y-48376190D02*
X127009914Y-48338095D01*
X127009914Y-48338095D02*
X126933723Y-48338095D01*
X126933723Y-48338095D02*
X126857533Y-48376190D01*
X126857533Y-48376190D02*
X126819438Y-48414285D01*
X126819438Y-48414285D02*
X126781342Y-48490476D01*
X126781342Y-48490476D02*
X126743247Y-48642857D01*
X126743247Y-48642857D02*
X126705152Y-48719047D01*
X126705152Y-48719047D02*
X126667057Y-48757142D01*
X126667057Y-48757142D02*
X126590866Y-48795238D01*
X126590866Y-48795238D02*
X126514676Y-48795238D01*
X126514676Y-48795238D02*
X126438485Y-48757142D01*
X126438485Y-48757142D02*
X126400390Y-48719047D01*
X126400390Y-48719047D02*
X126362295Y-48642857D01*
X126362295Y-48642857D02*
X126362295Y-48452380D01*
X126362295Y-48452380D02*
X126400390Y-48338095D01*
X127162295Y-47538094D02*
X126781342Y-47804761D01*
X127162295Y-47995237D02*
X126362295Y-47995237D01*
X126362295Y-47995237D02*
X126362295Y-47690475D01*
X126362295Y-47690475D02*
X126400390Y-47614285D01*
X126400390Y-47614285D02*
X126438485Y-47576190D01*
X126438485Y-47576190D02*
X126514676Y-47538094D01*
X126514676Y-47538094D02*
X126628961Y-47538094D01*
X126628961Y-47538094D02*
X126705152Y-47576190D01*
X126705152Y-47576190D02*
X126743247Y-47614285D01*
X126743247Y-47614285D02*
X126781342Y-47690475D01*
X126781342Y-47690475D02*
X126781342Y-47995237D01*
X127086104Y-46738094D02*
X127124200Y-46776190D01*
X127124200Y-46776190D02*
X127162295Y-46890475D01*
X127162295Y-46890475D02*
X127162295Y-46966666D01*
X127162295Y-46966666D02*
X127124200Y-47080952D01*
X127124200Y-47080952D02*
X127048009Y-47157142D01*
X127048009Y-47157142D02*
X126971819Y-47195237D01*
X126971819Y-47195237D02*
X126819438Y-47233333D01*
X126819438Y-47233333D02*
X126705152Y-47233333D01*
X126705152Y-47233333D02*
X126552771Y-47195237D01*
X126552771Y-47195237D02*
X126476580Y-47157142D01*
X126476580Y-47157142D02*
X126400390Y-47080952D01*
X126400390Y-47080952D02*
X126362295Y-46966666D01*
X126362295Y-46966666D02*
X126362295Y-46890475D01*
X126362295Y-46890475D02*
X126400390Y-46776190D01*
X126400390Y-46776190D02*
X126438485Y-46738094D01*
X172262295Y-72009523D02*
X171462295Y-72009523D01*
X171462295Y-72009523D02*
X172033723Y-71742857D01*
X172033723Y-71742857D02*
X171462295Y-71476190D01*
X171462295Y-71476190D02*
X172262295Y-71476190D01*
X172262295Y-71095237D02*
X171728961Y-71095237D01*
X171462295Y-71095237D02*
X171500390Y-71133333D01*
X171500390Y-71133333D02*
X171538485Y-71095237D01*
X171538485Y-71095237D02*
X171500390Y-71057142D01*
X171500390Y-71057142D02*
X171462295Y-71095237D01*
X171462295Y-71095237D02*
X171538485Y-71095237D01*
X172224200Y-70371428D02*
X172262295Y-70447619D01*
X172262295Y-70447619D02*
X172262295Y-70600000D01*
X172262295Y-70600000D02*
X172224200Y-70676190D01*
X172224200Y-70676190D02*
X172186104Y-70714285D01*
X172186104Y-70714285D02*
X172109914Y-70752381D01*
X172109914Y-70752381D02*
X171881342Y-70752381D01*
X171881342Y-70752381D02*
X171805152Y-70714285D01*
X171805152Y-70714285D02*
X171767057Y-70676190D01*
X171767057Y-70676190D02*
X171728961Y-70600000D01*
X171728961Y-70600000D02*
X171728961Y-70447619D01*
X171728961Y-70447619D02*
X171767057Y-70371428D01*
X172262295Y-70028571D02*
X171728961Y-70028571D01*
X171881342Y-70028571D02*
X171805152Y-69990476D01*
X171805152Y-69990476D02*
X171767057Y-69952381D01*
X171767057Y-69952381D02*
X171728961Y-69876190D01*
X171728961Y-69876190D02*
X171728961Y-69800000D01*
X172262295Y-69419048D02*
X172224200Y-69495238D01*
X172224200Y-69495238D02*
X172186104Y-69533333D01*
X172186104Y-69533333D02*
X172109914Y-69571429D01*
X172109914Y-69571429D02*
X171881342Y-69571429D01*
X171881342Y-69571429D02*
X171805152Y-69533333D01*
X171805152Y-69533333D02*
X171767057Y-69495238D01*
X171767057Y-69495238D02*
X171728961Y-69419048D01*
X171728961Y-69419048D02*
X171728961Y-69304762D01*
X171728961Y-69304762D02*
X171767057Y-69228571D01*
X171767057Y-69228571D02*
X171805152Y-69190476D01*
X171805152Y-69190476D02*
X171881342Y-69152381D01*
X171881342Y-69152381D02*
X172109914Y-69152381D01*
X172109914Y-69152381D02*
X172186104Y-69190476D01*
X172186104Y-69190476D02*
X172224200Y-69228571D01*
X172224200Y-69228571D02*
X172262295Y-69304762D01*
X172262295Y-69304762D02*
X172262295Y-69419048D01*
X171462295Y-68809523D02*
X172109914Y-68809523D01*
X172109914Y-68809523D02*
X172186104Y-68771428D01*
X172186104Y-68771428D02*
X172224200Y-68733333D01*
X172224200Y-68733333D02*
X172262295Y-68657142D01*
X172262295Y-68657142D02*
X172262295Y-68504761D01*
X172262295Y-68504761D02*
X172224200Y-68428571D01*
X172224200Y-68428571D02*
X172186104Y-68390476D01*
X172186104Y-68390476D02*
X172109914Y-68352380D01*
X172109914Y-68352380D02*
X171462295Y-68352380D01*
X172224200Y-68009524D02*
X172262295Y-67895238D01*
X172262295Y-67895238D02*
X172262295Y-67704762D01*
X172262295Y-67704762D02*
X172224200Y-67628571D01*
X172224200Y-67628571D02*
X172186104Y-67590476D01*
X172186104Y-67590476D02*
X172109914Y-67552381D01*
X172109914Y-67552381D02*
X172033723Y-67552381D01*
X172033723Y-67552381D02*
X171957533Y-67590476D01*
X171957533Y-67590476D02*
X171919438Y-67628571D01*
X171919438Y-67628571D02*
X171881342Y-67704762D01*
X171881342Y-67704762D02*
X171843247Y-67857143D01*
X171843247Y-67857143D02*
X171805152Y-67933333D01*
X171805152Y-67933333D02*
X171767057Y-67971428D01*
X171767057Y-67971428D02*
X171690866Y-68009524D01*
X171690866Y-68009524D02*
X171614676Y-68009524D01*
X171614676Y-68009524D02*
X171538485Y-67971428D01*
X171538485Y-67971428D02*
X171500390Y-67933333D01*
X171500390Y-67933333D02*
X171462295Y-67857143D01*
X171462295Y-67857143D02*
X171462295Y-67666666D01*
X171462295Y-67666666D02*
X171500390Y-67552381D01*
X171843247Y-66942857D02*
X171881342Y-66828571D01*
X171881342Y-66828571D02*
X171919438Y-66790476D01*
X171919438Y-66790476D02*
X171995628Y-66752380D01*
X171995628Y-66752380D02*
X172109914Y-66752380D01*
X172109914Y-66752380D02*
X172186104Y-66790476D01*
X172186104Y-66790476D02*
X172224200Y-66828571D01*
X172224200Y-66828571D02*
X172262295Y-66904761D01*
X172262295Y-66904761D02*
X172262295Y-67209523D01*
X172262295Y-67209523D02*
X171462295Y-67209523D01*
X171462295Y-67209523D02*
X171462295Y-66942857D01*
X171462295Y-66942857D02*
X171500390Y-66866666D01*
X171500390Y-66866666D02*
X171538485Y-66828571D01*
X171538485Y-66828571D02*
X171614676Y-66790476D01*
X171614676Y-66790476D02*
X171690866Y-66790476D01*
X171690866Y-66790476D02*
X171767057Y-66828571D01*
X171767057Y-66828571D02*
X171805152Y-66866666D01*
X171805152Y-66866666D02*
X171843247Y-66942857D01*
X171843247Y-66942857D02*
X171843247Y-67209523D01*
X174643247Y-70128571D02*
X174643247Y-70395237D01*
X175062295Y-70395237D02*
X174262295Y-70395237D01*
X174262295Y-70395237D02*
X174262295Y-70014285D01*
X174262295Y-69823809D02*
X174262295Y-69366666D01*
X175062295Y-69595238D02*
X174262295Y-69595238D01*
X175062295Y-69099999D02*
X174262295Y-69099999D01*
X174262295Y-69099999D02*
X174262295Y-68909523D01*
X174262295Y-68909523D02*
X174300390Y-68795237D01*
X174300390Y-68795237D02*
X174376580Y-68719047D01*
X174376580Y-68719047D02*
X174452771Y-68680952D01*
X174452771Y-68680952D02*
X174605152Y-68642856D01*
X174605152Y-68642856D02*
X174719438Y-68642856D01*
X174719438Y-68642856D02*
X174871819Y-68680952D01*
X174871819Y-68680952D02*
X174948009Y-68719047D01*
X174948009Y-68719047D02*
X175024200Y-68795237D01*
X175024200Y-68795237D02*
X175062295Y-68909523D01*
X175062295Y-68909523D02*
X175062295Y-69099999D01*
X175062295Y-68299999D02*
X174262295Y-68299999D01*
X175062295Y-67309523D02*
X174262295Y-67309523D01*
X174262295Y-67309523D02*
X174262295Y-67004761D01*
X174262295Y-67004761D02*
X174300390Y-66928571D01*
X174300390Y-66928571D02*
X174338485Y-66890476D01*
X174338485Y-66890476D02*
X174414676Y-66852380D01*
X174414676Y-66852380D02*
X174528961Y-66852380D01*
X174528961Y-66852380D02*
X174605152Y-66890476D01*
X174605152Y-66890476D02*
X174643247Y-66928571D01*
X174643247Y-66928571D02*
X174681342Y-67004761D01*
X174681342Y-67004761D02*
X174681342Y-67309523D01*
X174262295Y-66585714D02*
X175062295Y-66395238D01*
X175062295Y-66395238D02*
X174490866Y-66242857D01*
X174490866Y-66242857D02*
X175062295Y-66090476D01*
X175062295Y-66090476D02*
X174262295Y-65900000D01*
X175062295Y-65138094D02*
X174681342Y-65404761D01*
X175062295Y-65595237D02*
X174262295Y-65595237D01*
X174262295Y-65595237D02*
X174262295Y-65290475D01*
X174262295Y-65290475D02*
X174300390Y-65214285D01*
X174300390Y-65214285D02*
X174338485Y-65176190D01*
X174338485Y-65176190D02*
X174414676Y-65138094D01*
X174414676Y-65138094D02*
X174528961Y-65138094D01*
X174528961Y-65138094D02*
X174605152Y-65176190D01*
X174605152Y-65176190D02*
X174643247Y-65214285D01*
X174643247Y-65214285D02*
X174681342Y-65290475D01*
X174681342Y-65290475D02*
X174681342Y-65595237D01*
X175024200Y-64223809D02*
X175062295Y-64109523D01*
X175062295Y-64109523D02*
X175062295Y-63919047D01*
X175062295Y-63919047D02*
X175024200Y-63842856D01*
X175024200Y-63842856D02*
X174986104Y-63804761D01*
X174986104Y-63804761D02*
X174909914Y-63766666D01*
X174909914Y-63766666D02*
X174833723Y-63766666D01*
X174833723Y-63766666D02*
X174757533Y-63804761D01*
X174757533Y-63804761D02*
X174719438Y-63842856D01*
X174719438Y-63842856D02*
X174681342Y-63919047D01*
X174681342Y-63919047D02*
X174643247Y-64071428D01*
X174643247Y-64071428D02*
X174605152Y-64147618D01*
X174605152Y-64147618D02*
X174567057Y-64185713D01*
X174567057Y-64185713D02*
X174490866Y-64223809D01*
X174490866Y-64223809D02*
X174414676Y-64223809D01*
X174414676Y-64223809D02*
X174338485Y-64185713D01*
X174338485Y-64185713D02*
X174300390Y-64147618D01*
X174300390Y-64147618D02*
X174262295Y-64071428D01*
X174262295Y-64071428D02*
X174262295Y-63880951D01*
X174262295Y-63880951D02*
X174300390Y-63766666D01*
X175062295Y-62966665D02*
X174681342Y-63233332D01*
X175062295Y-63423808D02*
X174262295Y-63423808D01*
X174262295Y-63423808D02*
X174262295Y-63119046D01*
X174262295Y-63119046D02*
X174300390Y-63042856D01*
X174300390Y-63042856D02*
X174338485Y-63004761D01*
X174338485Y-63004761D02*
X174414676Y-62966665D01*
X174414676Y-62966665D02*
X174528961Y-62966665D01*
X174528961Y-62966665D02*
X174605152Y-63004761D01*
X174605152Y-63004761D02*
X174643247Y-63042856D01*
X174643247Y-63042856D02*
X174681342Y-63119046D01*
X174681342Y-63119046D02*
X174681342Y-63423808D01*
X174986104Y-62166665D02*
X175024200Y-62204761D01*
X175024200Y-62204761D02*
X175062295Y-62319046D01*
X175062295Y-62319046D02*
X175062295Y-62395237D01*
X175062295Y-62395237D02*
X175024200Y-62509523D01*
X175024200Y-62509523D02*
X174948009Y-62585713D01*
X174948009Y-62585713D02*
X174871819Y-62623808D01*
X174871819Y-62623808D02*
X174719438Y-62661904D01*
X174719438Y-62661904D02*
X174605152Y-62661904D01*
X174605152Y-62661904D02*
X174452771Y-62623808D01*
X174452771Y-62623808D02*
X174376580Y-62585713D01*
X174376580Y-62585713D02*
X174300390Y-62509523D01*
X174300390Y-62509523D02*
X174262295Y-62395237D01*
X174262295Y-62395237D02*
X174262295Y-62319046D01*
X174262295Y-62319046D02*
X174300390Y-62204761D01*
X174300390Y-62204761D02*
X174338485Y-62166665D01*
X175462295Y-63552380D02*
X175462295Y-63933332D01*
X175462295Y-63933332D02*
X175843247Y-63971428D01*
X175843247Y-63971428D02*
X175805152Y-63933332D01*
X175805152Y-63933332D02*
X175767057Y-63857142D01*
X175767057Y-63857142D02*
X175767057Y-63666666D01*
X175767057Y-63666666D02*
X175805152Y-63590475D01*
X175805152Y-63590475D02*
X175843247Y-63552380D01*
X175843247Y-63552380D02*
X175919438Y-63514285D01*
X175919438Y-63514285D02*
X176109914Y-63514285D01*
X176109914Y-63514285D02*
X176186104Y-63552380D01*
X176186104Y-63552380D02*
X176224200Y-63590475D01*
X176224200Y-63590475D02*
X176262295Y-63666666D01*
X176262295Y-63666666D02*
X176262295Y-63857142D01*
X176262295Y-63857142D02*
X176224200Y-63933332D01*
X176224200Y-63933332D02*
X176186104Y-63971428D01*
X175462295Y-63285713D02*
X176262295Y-63019046D01*
X176262295Y-63019046D02*
X175462295Y-62752380D01*
X175462295Y-66766666D02*
X176262295Y-66499999D01*
X176262295Y-66499999D02*
X175462295Y-66233333D01*
X176186104Y-65509523D02*
X176224200Y-65547619D01*
X176224200Y-65547619D02*
X176262295Y-65661904D01*
X176262295Y-65661904D02*
X176262295Y-65738095D01*
X176262295Y-65738095D02*
X176224200Y-65852381D01*
X176224200Y-65852381D02*
X176148009Y-65928571D01*
X176148009Y-65928571D02*
X176071819Y-65966666D01*
X176071819Y-65966666D02*
X175919438Y-66004762D01*
X175919438Y-66004762D02*
X175805152Y-66004762D01*
X175805152Y-66004762D02*
X175652771Y-65966666D01*
X175652771Y-65966666D02*
X175576580Y-65928571D01*
X175576580Y-65928571D02*
X175500390Y-65852381D01*
X175500390Y-65852381D02*
X175462295Y-65738095D01*
X175462295Y-65738095D02*
X175462295Y-65661904D01*
X175462295Y-65661904D02*
X175500390Y-65547619D01*
X175500390Y-65547619D02*
X175538485Y-65509523D01*
X176186104Y-64709523D02*
X176224200Y-64747619D01*
X176224200Y-64747619D02*
X176262295Y-64861904D01*
X176262295Y-64861904D02*
X176262295Y-64938095D01*
X176262295Y-64938095D02*
X176224200Y-65052381D01*
X176224200Y-65052381D02*
X176148009Y-65128571D01*
X176148009Y-65128571D02*
X176071819Y-65166666D01*
X176071819Y-65166666D02*
X175919438Y-65204762D01*
X175919438Y-65204762D02*
X175805152Y-65204762D01*
X175805152Y-65204762D02*
X175652771Y-65166666D01*
X175652771Y-65166666D02*
X175576580Y-65128571D01*
X175576580Y-65128571D02*
X175500390Y-65052381D01*
X175500390Y-65052381D02*
X175462295Y-64938095D01*
X175462295Y-64938095D02*
X175462295Y-64861904D01*
X175462295Y-64861904D02*
X175500390Y-64747619D01*
X175500390Y-64747619D02*
X175538485Y-64709523D01*
X175462295Y-69190476D02*
X175462295Y-68695238D01*
X175462295Y-68695238D02*
X175767057Y-68961904D01*
X175767057Y-68961904D02*
X175767057Y-68847619D01*
X175767057Y-68847619D02*
X175805152Y-68771428D01*
X175805152Y-68771428D02*
X175843247Y-68733333D01*
X175843247Y-68733333D02*
X175919438Y-68695238D01*
X175919438Y-68695238D02*
X176109914Y-68695238D01*
X176109914Y-68695238D02*
X176186104Y-68733333D01*
X176186104Y-68733333D02*
X176224200Y-68771428D01*
X176224200Y-68771428D02*
X176262295Y-68847619D01*
X176262295Y-68847619D02*
X176262295Y-69076190D01*
X176262295Y-69076190D02*
X176224200Y-69152381D01*
X176224200Y-69152381D02*
X176186104Y-69190476D01*
X175462295Y-68466666D02*
X176262295Y-68199999D01*
X176262295Y-68199999D02*
X175462295Y-67933333D01*
X175462295Y-67742857D02*
X175462295Y-67247619D01*
X175462295Y-67247619D02*
X175767057Y-67514285D01*
X175767057Y-67514285D02*
X175767057Y-67400000D01*
X175767057Y-67400000D02*
X175805152Y-67323809D01*
X175805152Y-67323809D02*
X175843247Y-67285714D01*
X175843247Y-67285714D02*
X175919438Y-67247619D01*
X175919438Y-67247619D02*
X176109914Y-67247619D01*
X176109914Y-67247619D02*
X176186104Y-67285714D01*
X176186104Y-67285714D02*
X176224200Y-67323809D01*
X176224200Y-67323809D02*
X176262295Y-67400000D01*
X176262295Y-67400000D02*
X176262295Y-67628571D01*
X176262295Y-67628571D02*
X176224200Y-67704762D01*
X176224200Y-67704762D02*
X176186104Y-67742857D01*
X177586104Y-61452380D02*
X177624200Y-61490476D01*
X177624200Y-61490476D02*
X177662295Y-61604761D01*
X177662295Y-61604761D02*
X177662295Y-61680952D01*
X177662295Y-61680952D02*
X177624200Y-61795238D01*
X177624200Y-61795238D02*
X177548009Y-61871428D01*
X177548009Y-61871428D02*
X177471819Y-61909523D01*
X177471819Y-61909523D02*
X177319438Y-61947619D01*
X177319438Y-61947619D02*
X177205152Y-61947619D01*
X177205152Y-61947619D02*
X177052771Y-61909523D01*
X177052771Y-61909523D02*
X176976580Y-61871428D01*
X176976580Y-61871428D02*
X176900390Y-61795238D01*
X176900390Y-61795238D02*
X176862295Y-61680952D01*
X176862295Y-61680952D02*
X176862295Y-61604761D01*
X176862295Y-61604761D02*
X176900390Y-61490476D01*
X176900390Y-61490476D02*
X176938485Y-61452380D01*
X176862295Y-60957142D02*
X176862295Y-60804761D01*
X176862295Y-60804761D02*
X176900390Y-60728571D01*
X176900390Y-60728571D02*
X176976580Y-60652380D01*
X176976580Y-60652380D02*
X177128961Y-60614285D01*
X177128961Y-60614285D02*
X177395628Y-60614285D01*
X177395628Y-60614285D02*
X177548009Y-60652380D01*
X177548009Y-60652380D02*
X177624200Y-60728571D01*
X177624200Y-60728571D02*
X177662295Y-60804761D01*
X177662295Y-60804761D02*
X177662295Y-60957142D01*
X177662295Y-60957142D02*
X177624200Y-61033333D01*
X177624200Y-61033333D02*
X177548009Y-61109523D01*
X177548009Y-61109523D02*
X177395628Y-61147619D01*
X177395628Y-61147619D02*
X177128961Y-61147619D01*
X177128961Y-61147619D02*
X176976580Y-61109523D01*
X176976580Y-61109523D02*
X176900390Y-61033333D01*
X176900390Y-61033333D02*
X176862295Y-60957142D01*
X177662295Y-60271428D02*
X176862295Y-60271428D01*
X176862295Y-60271428D02*
X177433723Y-60004762D01*
X177433723Y-60004762D02*
X176862295Y-59738095D01*
X176862295Y-59738095D02*
X177662295Y-59738095D01*
X176938485Y-59395238D02*
X176900390Y-59357142D01*
X176900390Y-59357142D02*
X176862295Y-59280952D01*
X176862295Y-59280952D02*
X176862295Y-59090476D01*
X176862295Y-59090476D02*
X176900390Y-59014285D01*
X176900390Y-59014285D02*
X176938485Y-58976190D01*
X176938485Y-58976190D02*
X177014676Y-58938095D01*
X177014676Y-58938095D02*
X177090866Y-58938095D01*
X177090866Y-58938095D02*
X177205152Y-58976190D01*
X177205152Y-58976190D02*
X177662295Y-59433333D01*
X177662295Y-59433333D02*
X177662295Y-58938095D01*
X177243247Y-57719047D02*
X177243247Y-57985713D01*
X177662295Y-57985713D02*
X176862295Y-57985713D01*
X176862295Y-57985713D02*
X176862295Y-57604761D01*
X176862295Y-57414285D02*
X176862295Y-56957142D01*
X177662295Y-57185714D02*
X176862295Y-57185714D01*
X177662295Y-56690475D02*
X176862295Y-56690475D01*
X176862295Y-56690475D02*
X176862295Y-56499999D01*
X176862295Y-56499999D02*
X176900390Y-56385713D01*
X176900390Y-56385713D02*
X176976580Y-56309523D01*
X176976580Y-56309523D02*
X177052771Y-56271428D01*
X177052771Y-56271428D02*
X177205152Y-56233332D01*
X177205152Y-56233332D02*
X177319438Y-56233332D01*
X177319438Y-56233332D02*
X177471819Y-56271428D01*
X177471819Y-56271428D02*
X177548009Y-56309523D01*
X177548009Y-56309523D02*
X177624200Y-56385713D01*
X177624200Y-56385713D02*
X177662295Y-56499999D01*
X177662295Y-56499999D02*
X177662295Y-56690475D01*
X177662295Y-55890475D02*
X176862295Y-55890475D01*
X179243247Y-45219047D02*
X179243247Y-44952381D01*
X179662295Y-44838095D02*
X179662295Y-45219047D01*
X179662295Y-45219047D02*
X178862295Y-45219047D01*
X178862295Y-45219047D02*
X178862295Y-44838095D01*
X179128961Y-44571428D02*
X179662295Y-44380952D01*
X179662295Y-44380952D02*
X179128961Y-44190475D01*
X179433723Y-43923809D02*
X179433723Y-43542856D01*
X179662295Y-43999999D02*
X178862295Y-43733332D01*
X178862295Y-43733332D02*
X179662295Y-43466666D01*
X179243247Y-47676190D02*
X179243247Y-47409524D01*
X179662295Y-47295238D02*
X179662295Y-47676190D01*
X179662295Y-47676190D02*
X178862295Y-47676190D01*
X178862295Y-47676190D02*
X178862295Y-47295238D01*
X179128961Y-47028571D02*
X179662295Y-46838095D01*
X179662295Y-46838095D02*
X179128961Y-46647618D01*
X179243247Y-46076190D02*
X179281342Y-45961904D01*
X179281342Y-45961904D02*
X179319438Y-45923809D01*
X179319438Y-45923809D02*
X179395628Y-45885713D01*
X179395628Y-45885713D02*
X179509914Y-45885713D01*
X179509914Y-45885713D02*
X179586104Y-45923809D01*
X179586104Y-45923809D02*
X179624200Y-45961904D01*
X179624200Y-45961904D02*
X179662295Y-46038094D01*
X179662295Y-46038094D02*
X179662295Y-46342856D01*
X179662295Y-46342856D02*
X178862295Y-46342856D01*
X178862295Y-46342856D02*
X178862295Y-46076190D01*
X178862295Y-46076190D02*
X178900390Y-45999999D01*
X178900390Y-45999999D02*
X178938485Y-45961904D01*
X178938485Y-45961904D02*
X179014676Y-45923809D01*
X179014676Y-45923809D02*
X179090866Y-45923809D01*
X179090866Y-45923809D02*
X179167057Y-45961904D01*
X179167057Y-45961904D02*
X179205152Y-45999999D01*
X179205152Y-45999999D02*
X179243247Y-46076190D01*
X179243247Y-46076190D02*
X179243247Y-46342856D01*
X179662295Y-50390475D02*
X178862295Y-50390475D01*
X178862295Y-50390475D02*
X178862295Y-50085713D01*
X178862295Y-50085713D02*
X178900390Y-50009523D01*
X178900390Y-50009523D02*
X178938485Y-49971428D01*
X178938485Y-49971428D02*
X179014676Y-49933332D01*
X179014676Y-49933332D02*
X179128961Y-49933332D01*
X179128961Y-49933332D02*
X179205152Y-49971428D01*
X179205152Y-49971428D02*
X179243247Y-50009523D01*
X179243247Y-50009523D02*
X179281342Y-50085713D01*
X179281342Y-50085713D02*
X179281342Y-50390475D01*
X179662295Y-49590475D02*
X178862295Y-49590475D01*
X178862295Y-49590475D02*
X178862295Y-49285713D01*
X178862295Y-49285713D02*
X178900390Y-49209523D01*
X178900390Y-49209523D02*
X178938485Y-49171428D01*
X178938485Y-49171428D02*
X179014676Y-49133332D01*
X179014676Y-49133332D02*
X179128961Y-49133332D01*
X179128961Y-49133332D02*
X179205152Y-49171428D01*
X179205152Y-49171428D02*
X179243247Y-49209523D01*
X179243247Y-49209523D02*
X179281342Y-49285713D01*
X179281342Y-49285713D02*
X179281342Y-49590475D01*
X179624200Y-48828571D02*
X179662295Y-48714285D01*
X179662295Y-48714285D02*
X179662295Y-48523809D01*
X179662295Y-48523809D02*
X179624200Y-48447618D01*
X179624200Y-48447618D02*
X179586104Y-48409523D01*
X179586104Y-48409523D02*
X179509914Y-48371428D01*
X179509914Y-48371428D02*
X179433723Y-48371428D01*
X179433723Y-48371428D02*
X179357533Y-48409523D01*
X179357533Y-48409523D02*
X179319438Y-48447618D01*
X179319438Y-48447618D02*
X179281342Y-48523809D01*
X179281342Y-48523809D02*
X179243247Y-48676190D01*
X179243247Y-48676190D02*
X179205152Y-48752380D01*
X179205152Y-48752380D02*
X179167057Y-48790475D01*
X179167057Y-48790475D02*
X179090866Y-48828571D01*
X179090866Y-48828571D02*
X179014676Y-48828571D01*
X179014676Y-48828571D02*
X178938485Y-48790475D01*
X178938485Y-48790475D02*
X178900390Y-48752380D01*
X178900390Y-48752380D02*
X178862295Y-48676190D01*
X178862295Y-48676190D02*
X178862295Y-48485713D01*
X178862295Y-48485713D02*
X178900390Y-48371428D01*
X178900390Y-52609523D02*
X178862295Y-52685713D01*
X178862295Y-52685713D02*
X178862295Y-52799999D01*
X178862295Y-52799999D02*
X178900390Y-52914285D01*
X178900390Y-52914285D02*
X178976580Y-52990475D01*
X178976580Y-52990475D02*
X179052771Y-53028570D01*
X179052771Y-53028570D02*
X179205152Y-53066666D01*
X179205152Y-53066666D02*
X179319438Y-53066666D01*
X179319438Y-53066666D02*
X179471819Y-53028570D01*
X179471819Y-53028570D02*
X179548009Y-52990475D01*
X179548009Y-52990475D02*
X179624200Y-52914285D01*
X179624200Y-52914285D02*
X179662295Y-52799999D01*
X179662295Y-52799999D02*
X179662295Y-52723808D01*
X179662295Y-52723808D02*
X179624200Y-52609523D01*
X179624200Y-52609523D02*
X179586104Y-52571427D01*
X179586104Y-52571427D02*
X179319438Y-52571427D01*
X179319438Y-52571427D02*
X179319438Y-52723808D01*
X179662295Y-52228570D02*
X178862295Y-52228570D01*
X178862295Y-52228570D02*
X179662295Y-51771427D01*
X179662295Y-51771427D02*
X178862295Y-51771427D01*
X179662295Y-51390475D02*
X178862295Y-51390475D01*
X178862295Y-51390475D02*
X178862295Y-51199999D01*
X178862295Y-51199999D02*
X178900390Y-51085713D01*
X178900390Y-51085713D02*
X178976580Y-51009523D01*
X178976580Y-51009523D02*
X179052771Y-50971428D01*
X179052771Y-50971428D02*
X179205152Y-50933332D01*
X179205152Y-50933332D02*
X179319438Y-50933332D01*
X179319438Y-50933332D02*
X179471819Y-50971428D01*
X179471819Y-50971428D02*
X179548009Y-51009523D01*
X179548009Y-51009523D02*
X179624200Y-51085713D01*
X179624200Y-51085713D02*
X179662295Y-51199999D01*
X179662295Y-51199999D02*
X179662295Y-51390475D01*
X179413533Y-37704570D02*
X179413533Y-37095047D01*
X179718295Y-37399808D02*
X179108771Y-37399808D01*
X178918295Y-36333142D02*
X178918295Y-36714094D01*
X178918295Y-36714094D02*
X179299247Y-36752190D01*
X179299247Y-36752190D02*
X179261152Y-36714094D01*
X179261152Y-36714094D02*
X179223057Y-36637904D01*
X179223057Y-36637904D02*
X179223057Y-36447428D01*
X179223057Y-36447428D02*
X179261152Y-36371237D01*
X179261152Y-36371237D02*
X179299247Y-36333142D01*
X179299247Y-36333142D02*
X179375438Y-36295047D01*
X179375438Y-36295047D02*
X179565914Y-36295047D01*
X179565914Y-36295047D02*
X179642104Y-36333142D01*
X179642104Y-36333142D02*
X179680200Y-36371237D01*
X179680200Y-36371237D02*
X179718295Y-36447428D01*
X179718295Y-36447428D02*
X179718295Y-36637904D01*
X179718295Y-36637904D02*
X179680200Y-36714094D01*
X179680200Y-36714094D02*
X179642104Y-36752190D01*
X178918295Y-36066475D02*
X179718295Y-35799808D01*
X179718295Y-35799808D02*
X178918295Y-35533142D01*
X178956390Y-40333523D02*
X178918295Y-40409713D01*
X178918295Y-40409713D02*
X178918295Y-40523999D01*
X178918295Y-40523999D02*
X178956390Y-40638285D01*
X178956390Y-40638285D02*
X179032580Y-40714475D01*
X179032580Y-40714475D02*
X179108771Y-40752570D01*
X179108771Y-40752570D02*
X179261152Y-40790666D01*
X179261152Y-40790666D02*
X179375438Y-40790666D01*
X179375438Y-40790666D02*
X179527819Y-40752570D01*
X179527819Y-40752570D02*
X179604009Y-40714475D01*
X179604009Y-40714475D02*
X179680200Y-40638285D01*
X179680200Y-40638285D02*
X179718295Y-40523999D01*
X179718295Y-40523999D02*
X179718295Y-40447808D01*
X179718295Y-40447808D02*
X179680200Y-40333523D01*
X179680200Y-40333523D02*
X179642104Y-40295427D01*
X179642104Y-40295427D02*
X179375438Y-40295427D01*
X179375438Y-40295427D02*
X179375438Y-40447808D01*
X179718295Y-39952570D02*
X178918295Y-39952570D01*
X178918295Y-39952570D02*
X179718295Y-39495427D01*
X179718295Y-39495427D02*
X178918295Y-39495427D01*
X179718295Y-39114475D02*
X178918295Y-39114475D01*
X178918295Y-39114475D02*
X178918295Y-38923999D01*
X178918295Y-38923999D02*
X178956390Y-38809713D01*
X178956390Y-38809713D02*
X179032580Y-38733523D01*
X179032580Y-38733523D02*
X179108771Y-38695428D01*
X179108771Y-38695428D02*
X179261152Y-38657332D01*
X179261152Y-38657332D02*
X179375438Y-38657332D01*
X179375438Y-38657332D02*
X179527819Y-38695428D01*
X179527819Y-38695428D02*
X179604009Y-38733523D01*
X179604009Y-38733523D02*
X179680200Y-38809713D01*
X179680200Y-38809713D02*
X179718295Y-38923999D01*
X179718295Y-38923999D02*
X179718295Y-39114475D01*
X178937295Y-62341666D02*
X179737295Y-62074999D01*
X179737295Y-62074999D02*
X178937295Y-61808333D01*
X179661104Y-61084523D02*
X179699200Y-61122619D01*
X179699200Y-61122619D02*
X179737295Y-61236904D01*
X179737295Y-61236904D02*
X179737295Y-61313095D01*
X179737295Y-61313095D02*
X179699200Y-61427381D01*
X179699200Y-61427381D02*
X179623009Y-61503571D01*
X179623009Y-61503571D02*
X179546819Y-61541666D01*
X179546819Y-61541666D02*
X179394438Y-61579762D01*
X179394438Y-61579762D02*
X179280152Y-61579762D01*
X179280152Y-61579762D02*
X179127771Y-61541666D01*
X179127771Y-61541666D02*
X179051580Y-61503571D01*
X179051580Y-61503571D02*
X178975390Y-61427381D01*
X178975390Y-61427381D02*
X178937295Y-61313095D01*
X178937295Y-61313095D02*
X178937295Y-61236904D01*
X178937295Y-61236904D02*
X178975390Y-61122619D01*
X178975390Y-61122619D02*
X179013485Y-61084523D01*
X179661104Y-60284523D02*
X179699200Y-60322619D01*
X179699200Y-60322619D02*
X179737295Y-60436904D01*
X179737295Y-60436904D02*
X179737295Y-60513095D01*
X179737295Y-60513095D02*
X179699200Y-60627381D01*
X179699200Y-60627381D02*
X179623009Y-60703571D01*
X179623009Y-60703571D02*
X179546819Y-60741666D01*
X179546819Y-60741666D02*
X179394438Y-60779762D01*
X179394438Y-60779762D02*
X179280152Y-60779762D01*
X179280152Y-60779762D02*
X179127771Y-60741666D01*
X179127771Y-60741666D02*
X179051580Y-60703571D01*
X179051580Y-60703571D02*
X178975390Y-60627381D01*
X178975390Y-60627381D02*
X178937295Y-60513095D01*
X178937295Y-60513095D02*
X178937295Y-60436904D01*
X178937295Y-60436904D02*
X178975390Y-60322619D01*
X178975390Y-60322619D02*
X179013485Y-60284523D01*
X179000390Y-56709523D02*
X178962295Y-56785713D01*
X178962295Y-56785713D02*
X178962295Y-56899999D01*
X178962295Y-56899999D02*
X179000390Y-57014285D01*
X179000390Y-57014285D02*
X179076580Y-57090475D01*
X179076580Y-57090475D02*
X179152771Y-57128570D01*
X179152771Y-57128570D02*
X179305152Y-57166666D01*
X179305152Y-57166666D02*
X179419438Y-57166666D01*
X179419438Y-57166666D02*
X179571819Y-57128570D01*
X179571819Y-57128570D02*
X179648009Y-57090475D01*
X179648009Y-57090475D02*
X179724200Y-57014285D01*
X179724200Y-57014285D02*
X179762295Y-56899999D01*
X179762295Y-56899999D02*
X179762295Y-56823808D01*
X179762295Y-56823808D02*
X179724200Y-56709523D01*
X179724200Y-56709523D02*
X179686104Y-56671427D01*
X179686104Y-56671427D02*
X179419438Y-56671427D01*
X179419438Y-56671427D02*
X179419438Y-56823808D01*
X179762295Y-56328570D02*
X178962295Y-56328570D01*
X178962295Y-56328570D02*
X179762295Y-55871427D01*
X179762295Y-55871427D02*
X178962295Y-55871427D01*
X179762295Y-55490475D02*
X178962295Y-55490475D01*
X178962295Y-55490475D02*
X178962295Y-55299999D01*
X178962295Y-55299999D02*
X179000390Y-55185713D01*
X179000390Y-55185713D02*
X179076580Y-55109523D01*
X179076580Y-55109523D02*
X179152771Y-55071428D01*
X179152771Y-55071428D02*
X179305152Y-55033332D01*
X179305152Y-55033332D02*
X179419438Y-55033332D01*
X179419438Y-55033332D02*
X179571819Y-55071428D01*
X179571819Y-55071428D02*
X179648009Y-55109523D01*
X179648009Y-55109523D02*
X179724200Y-55185713D01*
X179724200Y-55185713D02*
X179762295Y-55299999D01*
X179762295Y-55299999D02*
X179762295Y-55490475D01*
X179686104Y-59138094D02*
X179724200Y-59176190D01*
X179724200Y-59176190D02*
X179762295Y-59290475D01*
X179762295Y-59290475D02*
X179762295Y-59366666D01*
X179762295Y-59366666D02*
X179724200Y-59480952D01*
X179724200Y-59480952D02*
X179648009Y-59557142D01*
X179648009Y-59557142D02*
X179571819Y-59595237D01*
X179571819Y-59595237D02*
X179419438Y-59633333D01*
X179419438Y-59633333D02*
X179305152Y-59633333D01*
X179305152Y-59633333D02*
X179152771Y-59595237D01*
X179152771Y-59595237D02*
X179076580Y-59557142D01*
X179076580Y-59557142D02*
X179000390Y-59480952D01*
X179000390Y-59480952D02*
X178962295Y-59366666D01*
X178962295Y-59366666D02*
X178962295Y-59290475D01*
X178962295Y-59290475D02*
X179000390Y-59176190D01*
X179000390Y-59176190D02*
X179038485Y-59138094D01*
X178962295Y-58909523D02*
X178962295Y-58452380D01*
X179762295Y-58680952D02*
X178962295Y-58680952D01*
X179724200Y-58223809D02*
X179762295Y-58109523D01*
X179762295Y-58109523D02*
X179762295Y-57919047D01*
X179762295Y-57919047D02*
X179724200Y-57842856D01*
X179724200Y-57842856D02*
X179686104Y-57804761D01*
X179686104Y-57804761D02*
X179609914Y-57766666D01*
X179609914Y-57766666D02*
X179533723Y-57766666D01*
X179533723Y-57766666D02*
X179457533Y-57804761D01*
X179457533Y-57804761D02*
X179419438Y-57842856D01*
X179419438Y-57842856D02*
X179381342Y-57919047D01*
X179381342Y-57919047D02*
X179343247Y-58071428D01*
X179343247Y-58071428D02*
X179305152Y-58147618D01*
X179305152Y-58147618D02*
X179267057Y-58185713D01*
X179267057Y-58185713D02*
X179190866Y-58223809D01*
X179190866Y-58223809D02*
X179114676Y-58223809D01*
X179114676Y-58223809D02*
X179038485Y-58185713D01*
X179038485Y-58185713D02*
X179000390Y-58147618D01*
X179000390Y-58147618D02*
X178962295Y-58071428D01*
X178962295Y-58071428D02*
X178962295Y-57880951D01*
X178962295Y-57880951D02*
X179000390Y-57766666D01*
X179762295Y-63908332D02*
X179381342Y-64174999D01*
X179762295Y-64365475D02*
X178962295Y-64365475D01*
X178962295Y-64365475D02*
X178962295Y-64060713D01*
X178962295Y-64060713D02*
X179000390Y-63984523D01*
X179000390Y-63984523D02*
X179038485Y-63946428D01*
X179038485Y-63946428D02*
X179114676Y-63908332D01*
X179114676Y-63908332D02*
X179228961Y-63908332D01*
X179228961Y-63908332D02*
X179305152Y-63946428D01*
X179305152Y-63946428D02*
X179343247Y-63984523D01*
X179343247Y-63984523D02*
X179381342Y-64060713D01*
X179381342Y-64060713D02*
X179381342Y-64365475D01*
X178962295Y-63641666D02*
X179762295Y-63108332D01*
X178962295Y-63108332D02*
X179762295Y-63641666D01*
X178962295Y-66909523D02*
X178962295Y-66452380D01*
X179762295Y-66680952D02*
X178962295Y-66680952D01*
X178962295Y-66261904D02*
X179762295Y-65728570D01*
X178962295Y-65728570D02*
X179762295Y-66261904D01*
X179837295Y-69138094D02*
X179456342Y-69404761D01*
X179837295Y-69595237D02*
X179037295Y-69595237D01*
X179037295Y-69595237D02*
X179037295Y-69290475D01*
X179037295Y-69290475D02*
X179075390Y-69214285D01*
X179075390Y-69214285D02*
X179113485Y-69176190D01*
X179113485Y-69176190D02*
X179189676Y-69138094D01*
X179189676Y-69138094D02*
X179303961Y-69138094D01*
X179303961Y-69138094D02*
X179380152Y-69176190D01*
X179380152Y-69176190D02*
X179418247Y-69214285D01*
X179418247Y-69214285D02*
X179456342Y-69290475D01*
X179456342Y-69290475D02*
X179456342Y-69595237D01*
X179037295Y-68909523D02*
X179037295Y-68452380D01*
X179837295Y-68680952D02*
X179037295Y-68680952D01*
X179799200Y-68223809D02*
X179837295Y-68109523D01*
X179837295Y-68109523D02*
X179837295Y-67919047D01*
X179837295Y-67919047D02*
X179799200Y-67842856D01*
X179799200Y-67842856D02*
X179761104Y-67804761D01*
X179761104Y-67804761D02*
X179684914Y-67766666D01*
X179684914Y-67766666D02*
X179608723Y-67766666D01*
X179608723Y-67766666D02*
X179532533Y-67804761D01*
X179532533Y-67804761D02*
X179494438Y-67842856D01*
X179494438Y-67842856D02*
X179456342Y-67919047D01*
X179456342Y-67919047D02*
X179418247Y-68071428D01*
X179418247Y-68071428D02*
X179380152Y-68147618D01*
X179380152Y-68147618D02*
X179342057Y-68185713D01*
X179342057Y-68185713D02*
X179265866Y-68223809D01*
X179265866Y-68223809D02*
X179189676Y-68223809D01*
X179189676Y-68223809D02*
X179113485Y-68185713D01*
X179113485Y-68185713D02*
X179075390Y-68147618D01*
X179075390Y-68147618D02*
X179037295Y-68071428D01*
X179037295Y-68071428D02*
X179037295Y-67880951D01*
X179037295Y-67880951D02*
X179075390Y-67766666D01*
X132269104Y-65719047D02*
X132269104Y-65242857D01*
X132554819Y-65814285D02*
X131554819Y-65480952D01*
X131554819Y-65480952D02*
X132554819Y-65147619D01*
X132554819Y-64814285D02*
X131554819Y-64814285D01*
X131554819Y-64814285D02*
X132554819Y-64242857D01*
X132554819Y-64242857D02*
X131554819Y-64242857D01*
X131554819Y-63909523D02*
X131554819Y-63338095D01*
X132554819Y-63623809D02*
X131554819Y-63623809D01*
X131650057Y-63052380D02*
X131602438Y-63004761D01*
X131602438Y-63004761D02*
X131554819Y-62909523D01*
X131554819Y-62909523D02*
X131554819Y-62671428D01*
X131554819Y-62671428D02*
X131602438Y-62576190D01*
X131602438Y-62576190D02*
X131650057Y-62528571D01*
X131650057Y-62528571D02*
X131745295Y-62480952D01*
X131745295Y-62480952D02*
X131840533Y-62480952D01*
X131840533Y-62480952D02*
X131983390Y-62528571D01*
X131983390Y-62528571D02*
X132554819Y-63099999D01*
X132554819Y-63099999D02*
X132554819Y-62480952D01*
X132319104Y-37919047D02*
X132319104Y-37442857D01*
X132604819Y-38014285D02*
X131604819Y-37680952D01*
X131604819Y-37680952D02*
X132604819Y-37347619D01*
X132604819Y-37014285D02*
X131604819Y-37014285D01*
X131604819Y-37014285D02*
X132604819Y-36442857D01*
X132604819Y-36442857D02*
X131604819Y-36442857D01*
X131604819Y-36109523D02*
X131604819Y-35538095D01*
X132604819Y-35823809D02*
X131604819Y-35823809D01*
X132604819Y-34680952D02*
X132604819Y-35252380D01*
X132604819Y-34966666D02*
X131604819Y-34966666D01*
X131604819Y-34966666D02*
X131747676Y-35061904D01*
X131747676Y-35061904D02*
X131842914Y-35157142D01*
X131842914Y-35157142D02*
X131890533Y-35252380D01*
X149219048Y-48454819D02*
X149219048Y-47454819D01*
X149219048Y-47454819D02*
X149552381Y-48169104D01*
X149552381Y-48169104D02*
X149885714Y-47454819D01*
X149885714Y-47454819D02*
X149885714Y-48454819D01*
X150504762Y-48454819D02*
X150409524Y-48407200D01*
X150409524Y-48407200D02*
X150361905Y-48359580D01*
X150361905Y-48359580D02*
X150314286Y-48264342D01*
X150314286Y-48264342D02*
X150314286Y-47978628D01*
X150314286Y-47978628D02*
X150361905Y-47883390D01*
X150361905Y-47883390D02*
X150409524Y-47835771D01*
X150409524Y-47835771D02*
X150504762Y-47788152D01*
X150504762Y-47788152D02*
X150647619Y-47788152D01*
X150647619Y-47788152D02*
X150742857Y-47835771D01*
X150742857Y-47835771D02*
X150790476Y-47883390D01*
X150790476Y-47883390D02*
X150838095Y-47978628D01*
X150838095Y-47978628D02*
X150838095Y-48264342D01*
X150838095Y-48264342D02*
X150790476Y-48359580D01*
X150790476Y-48359580D02*
X150742857Y-48407200D01*
X150742857Y-48407200D02*
X150647619Y-48454819D01*
X150647619Y-48454819D02*
X150504762Y-48454819D01*
X151219048Y-48407200D02*
X151314286Y-48454819D01*
X151314286Y-48454819D02*
X151504762Y-48454819D01*
X151504762Y-48454819D02*
X151600000Y-48407200D01*
X151600000Y-48407200D02*
X151647619Y-48311961D01*
X151647619Y-48311961D02*
X151647619Y-48264342D01*
X151647619Y-48264342D02*
X151600000Y-48169104D01*
X151600000Y-48169104D02*
X151504762Y-48121485D01*
X151504762Y-48121485D02*
X151361905Y-48121485D01*
X151361905Y-48121485D02*
X151266667Y-48073866D01*
X151266667Y-48073866D02*
X151219048Y-47978628D01*
X151219048Y-47978628D02*
X151219048Y-47931009D01*
X151219048Y-47931009D02*
X151266667Y-47835771D01*
X151266667Y-47835771D02*
X151361905Y-47788152D01*
X151361905Y-47788152D02*
X151504762Y-47788152D01*
X151504762Y-47788152D02*
X151600000Y-47835771D01*
X152504762Y-48454819D02*
X152504762Y-47931009D01*
X152504762Y-47931009D02*
X152457143Y-47835771D01*
X152457143Y-47835771D02*
X152361905Y-47788152D01*
X152361905Y-47788152D02*
X152171429Y-47788152D01*
X152171429Y-47788152D02*
X152076191Y-47835771D01*
X152504762Y-48407200D02*
X152409524Y-48454819D01*
X152409524Y-48454819D02*
X152171429Y-48454819D01*
X152171429Y-48454819D02*
X152076191Y-48407200D01*
X152076191Y-48407200D02*
X152028572Y-48311961D01*
X152028572Y-48311961D02*
X152028572Y-48216723D01*
X152028572Y-48216723D02*
X152076191Y-48121485D01*
X152076191Y-48121485D02*
X152171429Y-48073866D01*
X152171429Y-48073866D02*
X152409524Y-48073866D01*
X152409524Y-48073866D02*
X152504762Y-48026247D01*
X152980953Y-48454819D02*
X152980953Y-47788152D01*
X152980953Y-47454819D02*
X152933334Y-47502438D01*
X152933334Y-47502438D02*
X152980953Y-47550057D01*
X152980953Y-47550057D02*
X153028572Y-47502438D01*
X153028572Y-47502438D02*
X152980953Y-47454819D01*
X152980953Y-47454819D02*
X152980953Y-47550057D01*
X153885714Y-48407200D02*
X153790476Y-48454819D01*
X153790476Y-48454819D02*
X153600000Y-48454819D01*
X153600000Y-48454819D02*
X153504762Y-48407200D01*
X153504762Y-48407200D02*
X153457143Y-48359580D01*
X153457143Y-48359580D02*
X153409524Y-48264342D01*
X153409524Y-48264342D02*
X153409524Y-47978628D01*
X153409524Y-47978628D02*
X153457143Y-47883390D01*
X153457143Y-47883390D02*
X153504762Y-47835771D01*
X153504762Y-47835771D02*
X153600000Y-47788152D01*
X153600000Y-47788152D02*
X153790476Y-47788152D01*
X153790476Y-47788152D02*
X153885714Y-47835771D01*
X154314286Y-48073866D02*
X155076191Y-48073866D01*
X155457143Y-47454819D02*
X156123809Y-48454819D01*
X156123809Y-47454819D02*
X155457143Y-48454819D01*
X156980952Y-47454819D02*
X156504762Y-47454819D01*
X156504762Y-47454819D02*
X156457143Y-47931009D01*
X156457143Y-47931009D02*
X156504762Y-47883390D01*
X156504762Y-47883390D02*
X156600000Y-47835771D01*
X156600000Y-47835771D02*
X156838095Y-47835771D01*
X156838095Y-47835771D02*
X156933333Y-47883390D01*
X156933333Y-47883390D02*
X156980952Y-47931009D01*
X156980952Y-47931009D02*
X157028571Y-48026247D01*
X157028571Y-48026247D02*
X157028571Y-48264342D01*
X157028571Y-48264342D02*
X156980952Y-48359580D01*
X156980952Y-48359580D02*
X156933333Y-48407200D01*
X156933333Y-48407200D02*
X156838095Y-48454819D01*
X156838095Y-48454819D02*
X156600000Y-48454819D01*
X156600000Y-48454819D02*
X156504762Y-48407200D01*
X156504762Y-48407200D02*
X156457143Y-48359580D01*
D13*
%TO.C,G\u002A\u002A\u002A*%
G36*
X160089746Y-75782339D02*
G01*
X160110321Y-75785599D01*
X160122603Y-75791614D01*
X160125430Y-75794673D01*
X160134580Y-75814635D01*
X160135119Y-75835453D01*
X160127586Y-75854326D01*
X160112518Y-75868451D01*
X160111134Y-75869222D01*
X160097263Y-75873268D01*
X160078979Y-75874463D01*
X160074367Y-75874221D01*
X160050490Y-75872322D01*
X160053463Y-75890916D01*
X160054065Y-75895596D01*
X160053842Y-75900155D01*
X160052149Y-75905329D01*
X160048338Y-75911856D01*
X160041760Y-75920471D01*
X160031769Y-75931913D01*
X160017717Y-75946916D01*
X159998957Y-75966220D01*
X159974842Y-75990559D01*
X159944722Y-76020672D01*
X159907953Y-76057294D01*
X159902375Y-76062845D01*
X159748313Y-76216181D01*
X159747812Y-76328179D01*
X159747548Y-76367461D01*
X159746963Y-76397790D01*
X159745774Y-76420629D01*
X159743697Y-76437445D01*
X159740449Y-76449702D01*
X159735747Y-76458863D01*
X159729307Y-76466395D01*
X159720845Y-76473762D01*
X159719421Y-76474914D01*
X159710538Y-76482205D01*
X159695246Y-76494904D01*
X159675106Y-76511707D01*
X159651679Y-76531312D01*
X159626553Y-76552394D01*
X159601201Y-76573686D01*
X159577395Y-76593666D01*
X159556749Y-76610980D01*
X159540878Y-76624274D01*
X159531509Y-76632100D01*
X159520140Y-76640765D01*
X159513924Y-76642795D01*
X159510633Y-76638906D01*
X159510599Y-76638817D01*
X159509901Y-76631735D01*
X159509424Y-76615591D01*
X159509172Y-76591740D01*
X159509150Y-76561538D01*
X159509362Y-76526340D01*
X159509813Y-76487499D01*
X159510033Y-76472939D01*
X159512574Y-76315156D01*
X159548278Y-76285278D01*
X159564554Y-76271985D01*
X159577869Y-76261715D01*
X159586202Y-76256001D01*
X159587786Y-76255325D01*
X159588973Y-76260259D01*
X159590142Y-76274098D01*
X159591221Y-76295328D01*
X159592138Y-76322438D01*
X159592823Y-76353914D01*
X159592995Y-76365706D01*
X159594401Y-76476162D01*
X159628261Y-76447410D01*
X159662120Y-76418658D01*
X159664725Y-76305937D01*
X159667330Y-76193216D01*
X159688166Y-76171807D01*
X159704314Y-76155347D01*
X159725162Y-76134297D01*
X159749781Y-76109578D01*
X159777241Y-76082113D01*
X159806614Y-76052821D01*
X159836970Y-76022624D01*
X159867380Y-75992443D01*
X159896914Y-75963199D01*
X159924645Y-75935814D01*
X159949642Y-75911208D01*
X159970976Y-75890303D01*
X159987719Y-75874019D01*
X159998940Y-75863278D01*
X160003691Y-75859013D01*
X160014609Y-75855268D01*
X160024196Y-75854222D01*
X160032190Y-75853340D01*
X160035649Y-75848949D01*
X160035932Y-75838237D01*
X160035414Y-75830968D01*
X160035327Y-75814634D01*
X160039431Y-75803339D01*
X160047474Y-75793890D01*
X160056857Y-75785784D01*
X160066366Y-75782078D01*
X160080068Y-75781662D01*
X160089746Y-75782339D01*
G37*
G36*
X160943492Y-76226870D02*
G01*
X160961962Y-76227764D01*
X160976090Y-76229984D01*
X160988914Y-76234082D01*
X161003472Y-76240613D01*
X161009271Y-76243444D01*
X161044027Y-76265464D01*
X161075645Y-76294759D01*
X161101270Y-76328424D01*
X161111751Y-76347699D01*
X161122414Y-76379992D01*
X161127786Y-76417263D01*
X161127587Y-76455360D01*
X161121538Y-76490128D01*
X161121369Y-76490712D01*
X161104690Y-76530781D01*
X161079763Y-76567356D01*
X161048349Y-76598508D01*
X161012207Y-76622307D01*
X160993953Y-76630454D01*
X160973995Y-76636061D01*
X160948702Y-76640465D01*
X160922101Y-76643224D01*
X160898223Y-76643893D01*
X160883675Y-76642605D01*
X160836335Y-76629170D01*
X160795776Y-76607874D01*
X160761672Y-76578468D01*
X160733692Y-76540705D01*
X160723540Y-76521994D01*
X160714533Y-76503173D01*
X160708824Y-76488518D01*
X160705670Y-76474521D01*
X160704330Y-76457675D01*
X160704060Y-76434472D01*
X160704063Y-76432610D01*
X160816750Y-76432610D01*
X160821673Y-76460203D01*
X160834193Y-76485682D01*
X160853022Y-76506869D01*
X160876872Y-76521588D01*
X160892454Y-76526294D01*
X160913964Y-76529635D01*
X160929889Y-76529604D01*
X160944550Y-76526056D01*
X160948976Y-76524429D01*
X160971251Y-76513226D01*
X160987986Y-76497754D01*
X161000555Y-76478940D01*
X161011566Y-76450588D01*
X161013501Y-76421870D01*
X161006887Y-76394763D01*
X160992250Y-76371242D01*
X160970115Y-76353286D01*
X160966636Y-76351424D01*
X160937408Y-76341248D01*
X160907149Y-76338779D01*
X160880107Y-76344116D01*
X160862810Y-76354160D01*
X160844871Y-76370047D01*
X160829669Y-76388309D01*
X160820713Y-76405080D01*
X160816750Y-76432610D01*
X160704063Y-76432610D01*
X160704066Y-76430010D01*
X160704392Y-76405028D01*
X160705691Y-76387039D01*
X160708629Y-76372622D01*
X160713872Y-76358357D01*
X160720993Y-76343068D01*
X160741641Y-76309903D01*
X160768992Y-76279582D01*
X160800345Y-76254687D01*
X160830101Y-76238910D01*
X160846329Y-76233201D01*
X160862522Y-76229572D01*
X160881815Y-76227588D01*
X160907341Y-76226812D01*
X160917644Y-76226748D01*
X160943492Y-76226870D01*
G37*
G36*
X159890410Y-76156115D02*
G01*
X159891520Y-76170620D01*
X159892452Y-76193621D01*
X159893180Y-76224157D01*
X159893676Y-76261267D01*
X159893913Y-76303990D01*
X159893929Y-76319457D01*
X159893916Y-76365737D01*
X159893828Y-76402723D01*
X159893591Y-76431539D01*
X159893131Y-76453310D01*
X159892376Y-76469159D01*
X159891250Y-76480212D01*
X159889681Y-76487591D01*
X159887595Y-76492422D01*
X159884919Y-76495829D01*
X159882209Y-76498369D01*
X159874094Y-76504923D01*
X159859224Y-76516252D01*
X159839318Y-76531073D01*
X159816096Y-76548101D01*
X159800164Y-76559652D01*
X159775458Y-76577620D01*
X159752718Y-76594403D01*
X159733741Y-76608659D01*
X159720323Y-76619043D01*
X159715560Y-76622967D01*
X159704901Y-76631273D01*
X159697212Y-76635415D01*
X159696469Y-76635521D01*
X159693099Y-76630830D01*
X159688475Y-76618391D01*
X159683474Y-76600656D01*
X159682332Y-76595955D01*
X159677813Y-76575860D01*
X159675885Y-76563519D01*
X159676492Y-76556610D01*
X159679577Y-76552810D01*
X159681247Y-76551776D01*
X159689755Y-76546103D01*
X159704325Y-76535504D01*
X159722888Y-76521568D01*
X159743379Y-76505887D01*
X159763729Y-76490051D01*
X159781872Y-76475650D01*
X159795741Y-76464276D01*
X159801466Y-76459275D01*
X159815791Y-76446041D01*
X159815791Y-76328192D01*
X159815791Y-76210343D01*
X159850081Y-76180704D01*
X159866056Y-76167343D01*
X159879273Y-76157111D01*
X159887638Y-76151596D01*
X159889150Y-76151066D01*
X159890410Y-76156115D01*
G37*
G36*
X156850025Y-76446870D02*
G01*
X156875233Y-76457318D01*
X156882680Y-76462554D01*
X156904337Y-76485825D01*
X156916545Y-76513471D01*
X156919475Y-76538107D01*
X156914969Y-76568352D01*
X156901488Y-76593332D01*
X156879115Y-76612926D01*
X156860976Y-76622249D01*
X156832102Y-76629533D01*
X156803416Y-76626712D01*
X156786433Y-76620520D01*
X156765670Y-76607483D01*
X156748053Y-76589874D01*
X156736440Y-76570811D01*
X156734120Y-76563493D01*
X156731021Y-76550387D01*
X156728862Y-76542500D01*
X156728737Y-76530221D01*
X156728925Y-76529431D01*
X156785754Y-76529431D01*
X156785913Y-76543174D01*
X156793276Y-76555453D01*
X156809208Y-76569012D01*
X156826203Y-76572267D01*
X156843574Y-76565184D01*
X156851622Y-76558326D01*
X156861719Y-76545585D01*
X156864162Y-76533697D01*
X156863608Y-76529525D01*
X156856022Y-76513753D01*
X156842302Y-76503648D01*
X156825464Y-76499899D01*
X156808529Y-76503197D01*
X156794841Y-76513807D01*
X156785754Y-76529431D01*
X156728925Y-76529431D01*
X156732868Y-76512863D01*
X156740026Y-76494201D01*
X156748981Y-76478013D01*
X156750575Y-76475803D01*
X156769766Y-76458509D01*
X156794559Y-76447740D01*
X156822223Y-76443768D01*
X156850025Y-76446870D01*
G37*
G36*
X158838047Y-76447552D02*
G01*
X158863131Y-76459517D01*
X158884231Y-76479305D01*
X158885462Y-76480928D01*
X158893310Y-76498469D01*
X158896999Y-76521762D01*
X158896572Y-76547027D01*
X158892075Y-76570482D01*
X158884210Y-76587454D01*
X158864970Y-76606059D01*
X158839539Y-76618811D01*
X158810784Y-76625006D01*
X158781572Y-76623941D01*
X158760673Y-76617775D01*
X158739668Y-76603421D01*
X158722724Y-76582003D01*
X158711442Y-76556577D01*
X158708750Y-76538934D01*
X158763903Y-76538934D01*
X158770213Y-76552552D01*
X158786327Y-76566988D01*
X158804064Y-76571827D01*
X158821964Y-76566750D01*
X158825215Y-76564671D01*
X158838592Y-76550319D01*
X158843542Y-76533741D01*
X158840237Y-76517567D01*
X158828853Y-76504428D01*
X158820962Y-76500134D01*
X158802824Y-76496834D01*
X158786270Y-76500902D01*
X158773080Y-76510499D01*
X158765031Y-76523789D01*
X158763903Y-76538934D01*
X158708750Y-76538934D01*
X158707418Y-76530201D01*
X158708542Y-76518067D01*
X158718283Y-76491334D01*
X158735253Y-76470070D01*
X158757583Y-76454668D01*
X158783405Y-76445519D01*
X158810849Y-76443016D01*
X158838047Y-76447552D01*
G37*
G36*
X157905573Y-76468967D02*
G01*
X157927724Y-76478698D01*
X157945420Y-76494713D01*
X157956905Y-76515771D01*
X157960424Y-76540630D01*
X157959824Y-76547510D01*
X157955596Y-76564520D01*
X157946542Y-76578885D01*
X157935799Y-76589925D01*
X157922189Y-76601543D01*
X157910593Y-76607358D01*
X157896070Y-76609324D01*
X157886389Y-76609475D01*
X157867101Y-76608341D01*
X157853439Y-76603995D01*
X157841722Y-76595831D01*
X157822404Y-76574160D01*
X157812240Y-76550597D01*
X157811046Y-76526843D01*
X157818640Y-76504600D01*
X157834838Y-76485569D01*
X157854928Y-76473324D01*
X157880722Y-76466762D01*
X157905573Y-76468967D01*
G37*
G36*
X160102262Y-76019053D02*
G01*
X160112148Y-76020819D01*
X160119626Y-76024784D01*
X160127363Y-76031520D01*
X160129715Y-76033766D01*
X160136569Y-76040517D01*
X160149999Y-76053916D01*
X160169253Y-76073207D01*
X160193578Y-76097634D01*
X160222222Y-76126440D01*
X160254433Y-76158869D01*
X160289457Y-76194164D01*
X160326543Y-76231569D01*
X160341472Y-76246637D01*
X160536369Y-76443363D01*
X160589525Y-76439802D01*
X160642680Y-76436242D01*
X160656389Y-76466187D01*
X160665129Y-76486338D01*
X160669041Y-76499237D01*
X160668209Y-76506819D01*
X160662717Y-76511022D01*
X160658378Y-76512426D01*
X160648763Y-76513548D01*
X160631297Y-76514326D01*
X160608542Y-76514765D01*
X160583058Y-76514871D01*
X160557406Y-76514647D01*
X160534149Y-76514100D01*
X160515847Y-76513234D01*
X160505407Y-76512125D01*
X160500417Y-76508295D01*
X160488937Y-76497884D01*
X160471705Y-76481628D01*
X160449460Y-76460262D01*
X160422941Y-76434522D01*
X160392886Y-76405143D01*
X160360036Y-76372861D01*
X160325129Y-76338410D01*
X160288903Y-76302527D01*
X160252099Y-76265947D01*
X160215454Y-76229406D01*
X160179708Y-76193639D01*
X160145599Y-76159381D01*
X160113867Y-76127368D01*
X160085251Y-76098335D01*
X160060489Y-76073018D01*
X160040320Y-76052153D01*
X160025484Y-76036474D01*
X160016720Y-76026718D01*
X160014600Y-76023626D01*
X160020222Y-76022719D01*
X160033855Y-76021587D01*
X160053097Y-76020411D01*
X160064601Y-76019840D01*
X160087301Y-76018917D01*
X160102262Y-76019053D01*
G37*
G36*
X156809045Y-75437453D02*
G01*
X156819400Y-75447846D01*
X156832976Y-75462300D01*
X156839630Y-75469612D01*
X156871008Y-75504421D01*
X156874552Y-75894160D01*
X156875165Y-75957526D01*
X156875825Y-76018270D01*
X156876516Y-76075525D01*
X156877227Y-76128424D01*
X156877942Y-76176099D01*
X156878648Y-76217682D01*
X156879331Y-76252306D01*
X156879977Y-76279104D01*
X156880573Y-76297208D01*
X156881099Y-76305706D01*
X156882853Y-76314975D01*
X156886169Y-76322995D01*
X156892432Y-76331316D01*
X156903025Y-76341487D01*
X156919331Y-76355059D01*
X156939218Y-76370821D01*
X156964929Y-76390991D01*
X156984214Y-76405661D01*
X156998900Y-76415688D01*
X157010814Y-76421929D01*
X157021785Y-76425242D01*
X157033639Y-76426484D01*
X157048204Y-76426512D01*
X157057526Y-76426330D01*
X157099200Y-76425543D01*
X157099200Y-76464115D01*
X157099200Y-76502686D01*
X157033205Y-76504141D01*
X156967209Y-76505596D01*
X156943093Y-76474255D01*
X156923298Y-76452019D01*
X156898347Y-76430805D01*
X156871045Y-76411833D01*
X156850254Y-76398293D01*
X156831715Y-76386115D01*
X156817800Y-76376862D01*
X156811857Y-76372805D01*
X156800600Y-76364857D01*
X156799923Y-75898022D01*
X156799870Y-75827785D01*
X156799915Y-75761045D01*
X156800054Y-75698500D01*
X156800280Y-75640849D01*
X156800587Y-75588793D01*
X156800970Y-75543029D01*
X156801423Y-75504258D01*
X156801939Y-75473177D01*
X156802515Y-75450487D01*
X156803143Y-75436886D01*
X156803749Y-75432995D01*
X156809045Y-75437453D01*
G37*
G36*
X158140223Y-75412507D02*
G01*
X158203548Y-75413966D01*
X158207816Y-75887033D01*
X158208546Y-75970739D01*
X158209132Y-76044592D01*
X158209572Y-76109158D01*
X158209862Y-76165001D01*
X158209999Y-76212687D01*
X158209981Y-76252779D01*
X158209805Y-76285844D01*
X158209468Y-76312446D01*
X158208968Y-76333149D01*
X158208301Y-76348520D01*
X158207465Y-76359123D01*
X158206456Y-76365522D01*
X158205426Y-76368123D01*
X158203033Y-76370854D01*
X158199899Y-76373826D01*
X158195001Y-76377752D01*
X158187312Y-76383345D01*
X158175809Y-76391319D01*
X158159467Y-76402388D01*
X158137262Y-76417264D01*
X158108168Y-76436661D01*
X158081367Y-76454501D01*
X158050805Y-76474314D01*
X158027203Y-76488166D01*
X158009296Y-76496486D01*
X157995818Y-76499705D01*
X157985501Y-76498253D01*
X157977079Y-76492559D01*
X157975151Y-76490555D01*
X157968065Y-76475990D01*
X157967102Y-76457844D01*
X157971514Y-76443200D01*
X157977439Y-76437158D01*
X157990454Y-76426692D01*
X158008907Y-76413043D01*
X158031147Y-76397455D01*
X158043141Y-76389343D01*
X158067379Y-76372918D01*
X158089412Y-76357576D01*
X158107355Y-76344659D01*
X158119321Y-76335511D01*
X158122252Y-76332983D01*
X158134722Y-76321168D01*
X158131431Y-75950914D01*
X158130880Y-75888370D01*
X158130356Y-75827856D01*
X158129867Y-75770341D01*
X158129421Y-75716792D01*
X158129025Y-75668180D01*
X158128688Y-75625471D01*
X158128417Y-75589635D01*
X158128220Y-75561639D01*
X158128105Y-75542453D01*
X158128078Y-75535080D01*
X158127428Y-75511531D01*
X158125062Y-75496667D01*
X158120242Y-75490490D01*
X158112228Y-75493003D01*
X158100280Y-75504210D01*
X158083658Y-75524113D01*
X158074917Y-75535311D01*
X158059617Y-75555490D01*
X158050077Y-75569270D01*
X158045447Y-75578303D01*
X158044875Y-75584241D01*
X158047438Y-75588658D01*
X158048904Y-75591677D01*
X158050204Y-75597750D01*
X158051358Y-75607553D01*
X158052385Y-75621763D01*
X158053306Y-75641056D01*
X158054140Y-75666109D01*
X158054906Y-75697598D01*
X158055623Y-75736200D01*
X158056311Y-75782591D01*
X158056990Y-75837447D01*
X158057678Y-75901444D01*
X158058313Y-75966406D01*
X158061802Y-76335992D01*
X158026532Y-76358343D01*
X158010012Y-76368546D01*
X157997294Y-76375899D01*
X157990539Y-76379169D01*
X157990005Y-76379180D01*
X157989566Y-76373676D01*
X157989053Y-76358847D01*
X157988480Y-76335786D01*
X157987861Y-76305585D01*
X157987212Y-76269339D01*
X157986546Y-76228140D01*
X157985879Y-76183080D01*
X157985225Y-76135253D01*
X157984599Y-76085753D01*
X157984014Y-76035670D01*
X157983487Y-75986100D01*
X157983031Y-75938135D01*
X157982661Y-75892867D01*
X157982392Y-75851390D01*
X157982238Y-75814796D01*
X157982207Y-75795539D01*
X157982109Y-75751735D01*
X157981813Y-75717338D01*
X157981271Y-75691336D01*
X157980434Y-75672718D01*
X157979253Y-75660473D01*
X157977678Y-75653590D01*
X157975659Y-75651058D01*
X157975163Y-75650984D01*
X157968739Y-75654731D01*
X157957852Y-75664688D01*
X157944546Y-75678930D01*
X157940566Y-75683542D01*
X157912963Y-75716099D01*
X157916348Y-75901025D01*
X157917228Y-75953811D01*
X157918049Y-76011974D01*
X157918777Y-76072488D01*
X157919380Y-76132324D01*
X157919825Y-76188455D01*
X157920080Y-76237852D01*
X157920107Y-76247347D01*
X157920479Y-76408743D01*
X157906750Y-76420553D01*
X157891242Y-76430391D01*
X157877601Y-76430449D01*
X157863976Y-76420561D01*
X157860204Y-76416335D01*
X157846718Y-76400308D01*
X157846039Y-76201456D01*
X157845788Y-76151714D01*
X157845381Y-76100761D01*
X157844846Y-76050611D01*
X157844209Y-76003281D01*
X157843497Y-75960786D01*
X157842736Y-75925141D01*
X157842132Y-75903630D01*
X157838905Y-75804655D01*
X157825166Y-75820283D01*
X157815073Y-75832024D01*
X157801191Y-75848502D01*
X157786322Y-75866386D01*
X157784597Y-75868477D01*
X157770399Y-75884922D01*
X157757206Y-75898851D01*
X157747496Y-75907671D01*
X157746244Y-75908560D01*
X157736577Y-75911929D01*
X157720614Y-75914751D01*
X157701517Y-75916793D01*
X157682446Y-75917821D01*
X157666563Y-75917599D01*
X157657029Y-75915894D01*
X157656040Y-75915241D01*
X157657604Y-75909561D01*
X157665873Y-75896553D01*
X157680541Y-75876597D01*
X157701304Y-75850074D01*
X157727858Y-75817365D01*
X157759898Y-75778849D01*
X157797120Y-75734907D01*
X157839218Y-75685919D01*
X157844919Y-75679331D01*
X157862306Y-75659192D01*
X157884311Y-75633603D01*
X157908802Y-75605052D01*
X157933646Y-75576024D01*
X157949964Y-75556916D01*
X157972793Y-75530237D01*
X157995809Y-75503483D01*
X158017182Y-75478772D01*
X158035081Y-75458221D01*
X158045520Y-75446367D01*
X158076899Y-75411049D01*
X158140223Y-75412507D01*
G37*
G36*
X156678558Y-75363163D02*
G01*
X156696270Y-75364597D01*
X156709113Y-75365782D01*
X156714351Y-75366465D01*
X156714358Y-75366470D01*
X156714477Y-75371651D01*
X156714658Y-75386579D01*
X156714894Y-75410582D01*
X156715181Y-75442990D01*
X156715513Y-75483131D01*
X156715886Y-75530334D01*
X156716294Y-75583927D01*
X156716732Y-75643240D01*
X156717194Y-75707601D01*
X156717676Y-75776339D01*
X156718173Y-75848782D01*
X156718678Y-75924259D01*
X156718723Y-75930978D01*
X156719305Y-76021686D01*
X156719783Y-76102505D01*
X156720153Y-76173966D01*
X156720413Y-76236599D01*
X156720559Y-76290932D01*
X156720589Y-76337496D01*
X156720499Y-76376820D01*
X156720287Y-76409434D01*
X156719949Y-76435868D01*
X156719482Y-76456652D01*
X156718883Y-76472314D01*
X156718150Y-76483386D01*
X156717278Y-76490396D01*
X156716266Y-76493874D01*
X156715480Y-76494492D01*
X156706598Y-76491584D01*
X156694265Y-76485004D01*
X156692993Y-76484204D01*
X156679933Y-76473987D01*
X156665521Y-76460061D01*
X156660631Y-76454632D01*
X156643787Y-76434967D01*
X156643592Y-75897718D01*
X156643396Y-75360469D01*
X156678558Y-75363163D01*
G37*
G36*
X158275489Y-75270818D02*
G01*
X158557773Y-75270923D01*
X158587725Y-75299909D01*
X158617678Y-75328895D01*
X158617678Y-75906675D01*
X158617634Y-75999003D01*
X158617505Y-76084382D01*
X158617293Y-76162472D01*
X158617000Y-76232936D01*
X158616631Y-76295433D01*
X158616187Y-76349625D01*
X158615673Y-76395174D01*
X158615089Y-76431741D01*
X158614441Y-76458986D01*
X158613729Y-76476572D01*
X158612958Y-76484159D01*
X158612765Y-76484454D01*
X158606802Y-76481285D01*
X158595136Y-76472831D01*
X158579902Y-76460674D01*
X158573697Y-76455477D01*
X158539540Y-76426501D01*
X158539540Y-75888233D01*
X158539540Y-75349965D01*
X158342894Y-75348106D01*
X158295722Y-75347723D01*
X158249350Y-75347464D01*
X158205407Y-75347329D01*
X158165522Y-75347319D01*
X158131328Y-75347435D01*
X158104455Y-75347677D01*
X158087880Y-75348004D01*
X158029514Y-75349760D01*
X157977425Y-75415723D01*
X157925481Y-75481493D01*
X157879594Y-75539560D01*
X157839371Y-75590404D01*
X157804419Y-75634506D01*
X157774344Y-75672343D01*
X157748755Y-75704396D01*
X157727257Y-75731143D01*
X157709458Y-75753065D01*
X157694965Y-75770640D01*
X157683384Y-75784349D01*
X157674323Y-75794669D01*
X157667388Y-75802082D01*
X157662187Y-75807066D01*
X157658326Y-75810101D01*
X157655412Y-75811665D01*
X157653052Y-75812240D01*
X157652275Y-75812296D01*
X157646206Y-75809031D01*
X157636278Y-75800664D01*
X157632741Y-75797242D01*
X157621533Y-75782585D01*
X157617682Y-75766327D01*
X157617589Y-75762080D01*
X157618394Y-75753183D01*
X157621400Y-75743927D01*
X157627599Y-75732669D01*
X157637985Y-75717762D01*
X157653549Y-75697564D01*
X157665774Y-75682236D01*
X157692899Y-75648391D01*
X157717266Y-75617815D01*
X157741321Y-75587423D01*
X157767509Y-75554127D01*
X157789417Y-75526163D01*
X157800461Y-75512146D01*
X157816894Y-75491413D01*
X157837590Y-75465379D01*
X157861423Y-75435455D01*
X157887266Y-75403057D01*
X157913993Y-75369596D01*
X157940476Y-75336486D01*
X157965590Y-75305141D01*
X157967090Y-75303271D01*
X157993205Y-75270713D01*
X158275489Y-75270818D01*
G37*
G36*
X159223749Y-75261556D02*
G01*
X159535138Y-75262900D01*
X159537396Y-75298062D01*
X159539654Y-75333224D01*
X159240505Y-75333224D01*
X158941355Y-75333224D01*
X158943571Y-75446523D01*
X158944240Y-75485161D01*
X158944867Y-75529979D01*
X158945449Y-75580130D01*
X158945984Y-75634768D01*
X158946471Y-75693045D01*
X158946907Y-75754112D01*
X158947289Y-75817124D01*
X158947616Y-75881233D01*
X158947886Y-75945591D01*
X158948095Y-76009350D01*
X158948243Y-76071664D01*
X158948327Y-76131685D01*
X158948344Y-76188566D01*
X158948293Y-76241459D01*
X158948172Y-76289517D01*
X158947977Y-76331892D01*
X158947708Y-76367737D01*
X158947361Y-76396206D01*
X158946936Y-76416449D01*
X158946428Y-76427621D01*
X158946091Y-76429613D01*
X158940645Y-76427474D01*
X158929664Y-76419508D01*
X158915059Y-76407172D01*
X158906941Y-76399769D01*
X158872124Y-76367247D01*
X158869141Y-75837838D01*
X158866158Y-75308428D01*
X158889259Y-75284320D01*
X158912360Y-75260212D01*
X159223749Y-75261556D01*
G37*
G36*
X158777196Y-75355909D02*
G01*
X158777317Y-75361109D01*
X158777493Y-75376018D01*
X158777719Y-75399927D01*
X158777989Y-75432126D01*
X158778299Y-75471908D01*
X158778643Y-75518561D01*
X158779016Y-75571379D01*
X158779413Y-75629650D01*
X158779829Y-75692667D01*
X158780258Y-75759719D01*
X158780695Y-75830099D01*
X158780892Y-75862485D01*
X158783951Y-76368306D01*
X158769837Y-76380943D01*
X158751943Y-76396232D01*
X158735103Y-76409343D01*
X158721191Y-76418943D01*
X158712081Y-76423697D01*
X158709739Y-76423712D01*
X158709111Y-76418042D01*
X158708522Y-76403046D01*
X158707990Y-76379819D01*
X158707528Y-76349455D01*
X158707151Y-76313047D01*
X158706875Y-76271689D01*
X158706715Y-76226474D01*
X158706682Y-76201270D01*
X158706590Y-76152418D01*
X158706371Y-76095141D01*
X158706039Y-76031431D01*
X158705607Y-75963280D01*
X158705090Y-75892681D01*
X158704501Y-75821626D01*
X158703854Y-75752107D01*
X158703163Y-75686116D01*
X158702995Y-75671276D01*
X158699427Y-75360784D01*
X158737993Y-75357968D01*
X158756621Y-75356708D01*
X158770496Y-75355958D01*
X158777011Y-75355856D01*
X158777196Y-75355909D01*
G37*
G36*
X160492315Y-76179343D02*
G01*
X160531762Y-76218966D01*
X160567693Y-76255407D01*
X160599552Y-76288080D01*
X160626780Y-76316402D01*
X160648822Y-76339788D01*
X160665120Y-76357653D01*
X160675119Y-76369413D01*
X160678260Y-76374483D01*
X160678236Y-76374538D01*
X160671321Y-76377466D01*
X160656002Y-76379457D01*
X160634267Y-76380264D01*
X160631998Y-76380270D01*
X160589303Y-76380270D01*
X160397417Y-76188332D01*
X160205532Y-75996394D01*
X160254191Y-75993137D01*
X160302850Y-75989880D01*
X160492315Y-76179343D01*
G37*
G36*
X157005422Y-76144946D02*
G01*
X157016990Y-76155824D01*
X157019367Y-76163798D01*
X157021252Y-76179611D01*
X157022643Y-76201343D01*
X157023540Y-76227077D01*
X157023939Y-76254895D01*
X157023840Y-76282879D01*
X157023241Y-76309111D01*
X157022141Y-76331672D01*
X157020538Y-76348646D01*
X157018430Y-76358113D01*
X157017155Y-76359432D01*
X157009359Y-76357129D01*
X156995681Y-76351145D01*
X156981993Y-76344283D01*
X156953343Y-76329135D01*
X156951901Y-76249817D01*
X156951506Y-76217911D01*
X156951744Y-76194686D01*
X156952742Y-76178421D01*
X156954630Y-76167390D01*
X156957535Y-76159870D01*
X156958716Y-76157898D01*
X156972747Y-76144007D01*
X156989015Y-76139664D01*
X157005422Y-76144946D01*
G37*
G36*
X160790179Y-75303259D02*
G01*
X160802833Y-75316660D01*
X160812028Y-75326918D01*
X160815927Y-75331977D01*
X160815955Y-75332105D01*
X160812367Y-75336104D01*
X160802137Y-75346595D01*
X160786073Y-75362782D01*
X160764979Y-75383871D01*
X160739660Y-75409066D01*
X160710923Y-75437572D01*
X160679573Y-75468594D01*
X160646414Y-75501337D01*
X160612254Y-75535005D01*
X160577896Y-75568803D01*
X160544146Y-75601936D01*
X160511811Y-75633610D01*
X160481695Y-75663028D01*
X160454604Y-75689395D01*
X160431343Y-75711917D01*
X160426970Y-75716132D01*
X160401917Y-75740452D01*
X160383574Y-75758851D01*
X160370987Y-75772466D01*
X160363203Y-75782435D01*
X160359269Y-75789896D01*
X160358233Y-75795986D01*
X160358381Y-75798026D01*
X160360870Y-75803601D01*
X160367674Y-75813035D01*
X160379226Y-75826795D01*
X160395957Y-75845346D01*
X160418301Y-75869154D01*
X160446688Y-75898687D01*
X160481553Y-75934409D01*
X160523326Y-75976787D01*
X160537264Y-75990862D01*
X160573689Y-76027640D01*
X160608724Y-76063067D01*
X160641510Y-76096271D01*
X160671189Y-76126381D01*
X160696903Y-76152526D01*
X160717793Y-76173834D01*
X160733003Y-76189434D01*
X160741318Y-76198077D01*
X160768260Y-76226599D01*
X160743764Y-76254134D01*
X160719268Y-76281668D01*
X160490223Y-76052182D01*
X160449705Y-76011502D01*
X160411331Y-75972808D01*
X160375744Y-75936761D01*
X160343588Y-75904021D01*
X160315507Y-75875247D01*
X160292143Y-75851100D01*
X160274142Y-75832238D01*
X160262146Y-75819323D01*
X160256799Y-75813014D01*
X160256622Y-75812706D01*
X160254299Y-75799911D01*
X160255342Y-75789666D01*
X160259843Y-75782863D01*
X160271293Y-75769483D01*
X160289103Y-75750141D01*
X160312686Y-75725453D01*
X160341452Y-75696035D01*
X160374814Y-75662502D01*
X160412183Y-75625469D01*
X160413568Y-75624106D01*
X160451833Y-75586413D01*
X160492064Y-75546729D01*
X160532682Y-75506613D01*
X160572111Y-75467627D01*
X160608772Y-75431329D01*
X160641087Y-75399281D01*
X160666461Y-75374056D01*
X160764403Y-75276517D01*
X160790179Y-75303259D01*
G37*
G36*
X160741361Y-75125147D02*
G01*
X160753792Y-75126142D01*
X160758653Y-75128188D01*
X160758654Y-75128228D01*
X160756809Y-75136114D01*
X160752114Y-75150252D01*
X160745828Y-75167320D01*
X160739211Y-75183997D01*
X160733522Y-75196960D01*
X160730554Y-75202338D01*
X160726843Y-75204871D01*
X160719382Y-75206546D01*
X160706817Y-75207408D01*
X160687795Y-75207503D01*
X160660960Y-75206874D01*
X160628637Y-75205713D01*
X160532224Y-75201929D01*
X160026848Y-75710404D01*
X159966504Y-75771089D01*
X159908160Y-75829708D01*
X159852238Y-75885839D01*
X159799161Y-75939059D01*
X159749353Y-75988946D01*
X159703235Y-76035079D01*
X159661231Y-76077034D01*
X159623764Y-76114390D01*
X159591256Y-76146725D01*
X159564130Y-76173617D01*
X159542810Y-76194643D01*
X159527717Y-76209381D01*
X159519276Y-76217409D01*
X159517565Y-76218832D01*
X159516754Y-76213785D01*
X159515973Y-76199351D01*
X159515242Y-76176561D01*
X159514580Y-76146447D01*
X159514008Y-76110040D01*
X159513544Y-76068371D01*
X159513209Y-76022472D01*
X159513039Y-75980465D01*
X159512908Y-75931305D01*
X159512779Y-75885116D01*
X159512655Y-75842988D01*
X159512541Y-75806014D01*
X159512438Y-75775287D01*
X159512352Y-75751897D01*
X159512284Y-75736938D01*
X159512246Y-75731727D01*
X159512235Y-75723070D01*
X159512320Y-75706072D01*
X159512486Y-75682805D01*
X159512719Y-75655346D01*
X159512866Y-75639739D01*
X159513659Y-75558170D01*
X159547406Y-75531648D01*
X159563627Y-75519375D01*
X159577014Y-75510113D01*
X159585286Y-75505415D01*
X159586428Y-75505127D01*
X159587802Y-75510318D01*
X159589034Y-75525820D01*
X159590121Y-75551525D01*
X159591061Y-75587329D01*
X159591851Y-75633123D01*
X159592488Y-75688801D01*
X159592969Y-75754257D01*
X159593051Y-75769301D01*
X159594401Y-76033475D01*
X160042015Y-75584432D01*
X160098881Y-75527431D01*
X160153786Y-75472484D01*
X160206275Y-75420044D01*
X160255891Y-75370563D01*
X160302178Y-75324492D01*
X160344681Y-75282284D01*
X160382941Y-75244391D01*
X160416504Y-75211264D01*
X160444913Y-75183356D01*
X160467712Y-75161118D01*
X160484444Y-75145003D01*
X160494653Y-75135463D01*
X160497819Y-75132868D01*
X160508523Y-75131049D01*
X160526160Y-75129574D01*
X160548301Y-75128483D01*
X160572516Y-75127819D01*
X160596377Y-75127620D01*
X160617454Y-75127928D01*
X160633317Y-75128782D01*
X160641539Y-75130224D01*
X160641930Y-75130466D01*
X160652456Y-75132955D01*
X160670821Y-75130349D01*
X160686088Y-75127804D01*
X160704764Y-75126044D01*
X160724103Y-75125136D01*
X160741361Y-75125147D01*
G37*
G36*
X157011624Y-76033028D02*
G01*
X157012493Y-76033469D01*
X157028686Y-76046708D01*
X157037232Y-76063985D01*
X157038696Y-76082985D01*
X157033644Y-76101391D01*
X157022640Y-76116889D01*
X157006251Y-76127163D01*
X156988905Y-76130064D01*
X156973675Y-76128354D01*
X156962112Y-76124366D01*
X156960917Y-76123552D01*
X156947709Y-76109528D01*
X156938257Y-76092839D01*
X156935111Y-76079324D01*
X156939618Y-76057513D01*
X156951692Y-76040691D01*
X156969165Y-76030146D01*
X156989865Y-76027163D01*
X157011624Y-76033028D01*
G37*
G36*
X157527255Y-75759810D02*
G01*
X157561125Y-75773047D01*
X157589881Y-75793843D01*
X157612072Y-75821164D01*
X157625735Y-75852167D01*
X157631572Y-75888956D01*
X157628070Y-75924432D01*
X157615908Y-75957003D01*
X157595762Y-75985080D01*
X157568309Y-76007072D01*
X157557250Y-76012966D01*
X157521077Y-76025778D01*
X157486895Y-76028782D01*
X157460981Y-76024427D01*
X157424413Y-76009364D01*
X157394910Y-75986976D01*
X157373042Y-75957826D01*
X157359934Y-75924681D01*
X157355645Y-75889257D01*
X157355869Y-75887718D01*
X157438170Y-75887718D01*
X157439740Y-75906737D01*
X157448756Y-75924286D01*
X157465776Y-75938290D01*
X157468120Y-75939504D01*
X157487832Y-75946638D01*
X157504892Y-75945808D01*
X157522114Y-75937749D01*
X157539705Y-75923124D01*
X157547966Y-75905356D01*
X157548097Y-75883352D01*
X157540842Y-75861109D01*
X157526308Y-75846228D01*
X157504960Y-75839105D01*
X157495207Y-75838515D01*
X157472565Y-75842629D01*
X157455140Y-75853586D01*
X157443489Y-75869309D01*
X157438170Y-75887718D01*
X157355869Y-75887718D01*
X157360604Y-75855185D01*
X157373715Y-75823897D01*
X157393881Y-75796825D01*
X157420004Y-75775401D01*
X157450989Y-75761058D01*
X157485739Y-75755228D01*
X157489721Y-75755168D01*
X157527255Y-75759810D01*
G37*
G36*
X156961627Y-75628912D02*
G01*
X156962025Y-75629799D01*
X156966239Y-75635590D01*
X156975919Y-75646711D01*
X156989221Y-75661070D01*
X156993714Y-75665771D01*
X157023667Y-75696882D01*
X157023667Y-75842854D01*
X157023667Y-75988825D01*
X157009941Y-75999622D01*
X156997797Y-76007153D01*
X156987443Y-76010414D01*
X156987202Y-76010418D01*
X156977001Y-76007339D01*
X156964825Y-75999904D01*
X156964464Y-75999622D01*
X156950738Y-75988825D01*
X156950738Y-75806882D01*
X156950871Y-75760528D01*
X156951253Y-75719478D01*
X156951860Y-75684650D01*
X156952669Y-75656958D01*
X156953655Y-75637321D01*
X156954793Y-75626654D01*
X156955513Y-75624938D01*
X156961627Y-75628912D01*
G37*
G36*
X156870680Y-75295071D02*
G01*
X156881703Y-75309514D01*
X156897606Y-75329853D01*
X156917276Y-75354708D01*
X156939600Y-75382700D01*
X156963465Y-75412450D01*
X156987759Y-75442580D01*
X157011371Y-75471709D01*
X157033186Y-75498461D01*
X157052093Y-75521454D01*
X157066979Y-75539311D01*
X157076732Y-75550653D01*
X157077961Y-75552010D01*
X157093714Y-75569867D01*
X157109904Y-75589371D01*
X157117374Y-75598892D01*
X157125563Y-75609273D01*
X157139324Y-75626276D01*
X157157539Y-75648538D01*
X157179088Y-75674694D01*
X157202853Y-75703383D01*
X157223872Y-75728637D01*
X157312549Y-75834941D01*
X157315494Y-75865736D01*
X157316623Y-75882332D01*
X157316558Y-75894073D01*
X157315607Y-75897960D01*
X157309429Y-75897548D01*
X157296316Y-75895016D01*
X157282957Y-75891864D01*
X157271769Y-75888529D01*
X157261425Y-75883896D01*
X157250888Y-75876978D01*
X157239124Y-75866784D01*
X157225099Y-75852326D01*
X157207777Y-75832615D01*
X157186125Y-75806661D01*
X157159107Y-75773475D01*
X157159106Y-75773473D01*
X157133271Y-75741653D01*
X157101679Y-75702925D01*
X157065234Y-75658393D01*
X157024838Y-75609162D01*
X156994260Y-75571967D01*
X156970398Y-75542936D01*
X156944475Y-75511353D01*
X156917724Y-75478723D01*
X156891377Y-75446552D01*
X156866666Y-75416345D01*
X156844824Y-75389608D01*
X156827084Y-75367847D01*
X156814678Y-75352568D01*
X156814308Y-75352110D01*
X156797996Y-75331928D01*
X156810554Y-75322273D01*
X156820591Y-75315376D01*
X156826832Y-75312503D01*
X156831776Y-75308508D01*
X156839791Y-75298605D01*
X156843202Y-75293769D01*
X156855854Y-75275151D01*
X156870680Y-75295071D01*
G37*
G36*
X159701098Y-75291478D02*
G01*
X159716757Y-75302396D01*
X159732319Y-75310988D01*
X159737278Y-75313036D01*
X159753281Y-75318615D01*
X159753281Y-75530643D01*
X159753281Y-75742672D01*
X159717192Y-75772361D01*
X159700870Y-75785523D01*
X159687644Y-75795693D01*
X159679502Y-75801366D01*
X159678009Y-75802051D01*
X159677338Y-75797033D01*
X159676782Y-75782749D01*
X159676353Y-75760347D01*
X159676061Y-75730978D01*
X159675918Y-75695793D01*
X159675935Y-75655941D01*
X159676124Y-75612574D01*
X159676136Y-75610613D01*
X159676476Y-75563203D01*
X159676885Y-75515857D01*
X159677343Y-75470377D01*
X159677829Y-75428566D01*
X159678323Y-75392227D01*
X159678803Y-75363163D01*
X159679139Y-75347337D01*
X159680922Y-75275498D01*
X159701098Y-75291478D01*
G37*
G36*
X160296987Y-75580938D02*
G01*
X160304806Y-75590837D01*
X160310675Y-75602734D01*
X160316506Y-75618984D01*
X160319188Y-75632864D01*
X160318939Y-75637896D01*
X160314534Y-75644339D01*
X160303858Y-75656437D01*
X160288325Y-75672811D01*
X160269351Y-75692082D01*
X160248350Y-75712871D01*
X160226737Y-75733798D01*
X160205927Y-75753486D01*
X160187334Y-75770554D01*
X160172373Y-75783625D01*
X160162459Y-75791318D01*
X160160255Y-75792568D01*
X160150844Y-75795721D01*
X160142908Y-75794646D01*
X160138761Y-75793226D01*
X160125566Y-75783299D01*
X160118728Y-75765946D01*
X160117924Y-75755661D01*
X160118479Y-75749017D01*
X160120756Y-75742161D01*
X160125671Y-75733963D01*
X160134140Y-75723295D01*
X160147082Y-75709029D01*
X160165412Y-75690037D01*
X160190047Y-75665192D01*
X160197550Y-75657682D01*
X160229157Y-75626598D01*
X160254067Y-75603267D01*
X160272413Y-75587573D01*
X160284329Y-75579399D01*
X160288467Y-75578055D01*
X160296987Y-75580938D01*
G37*
G36*
X157050017Y-75324108D02*
G01*
X157064603Y-75342104D01*
X157084430Y-75366629D01*
X157108215Y-75396091D01*
X157134672Y-75428898D01*
X157162518Y-75463457D01*
X157190467Y-75498176D01*
X157196059Y-75505127D01*
X157223766Y-75539543D01*
X157251542Y-75573994D01*
X157278122Y-75606916D01*
X157302241Y-75636745D01*
X157322638Y-75661916D01*
X157338047Y-75680866D01*
X157340597Y-75683990D01*
X157358233Y-75705954D01*
X157369884Y-75721635D01*
X157376461Y-75732558D01*
X157378876Y-75740250D01*
X157378039Y-75746237D01*
X157377936Y-75746500D01*
X157373287Y-75760546D01*
X157370339Y-75772098D01*
X157365763Y-75782847D01*
X157356178Y-75786299D01*
X157353049Y-75786381D01*
X157346677Y-75785196D01*
X157339379Y-75780936D01*
X157330021Y-75772481D01*
X157317467Y-75758715D01*
X157300583Y-75738522D01*
X157285580Y-75719964D01*
X157255133Y-75682094D01*
X157219645Y-75638104D01*
X157180685Y-75589926D01*
X157139821Y-75539495D01*
X157098622Y-75488743D01*
X157058655Y-75439605D01*
X157021488Y-75394014D01*
X156991109Y-75356858D01*
X156970941Y-75332114D01*
X156953237Y-75310165D01*
X156938989Y-75292258D01*
X156929188Y-75279642D01*
X156924825Y-75273563D01*
X156924692Y-75273241D01*
X156929486Y-75272058D01*
X156942212Y-75271172D01*
X156960382Y-75270734D01*
X156965666Y-75270713D01*
X157006640Y-75270713D01*
X157050017Y-75324108D01*
G37*
G36*
X158311360Y-75130078D02*
G01*
X158366911Y-75130132D01*
X158413562Y-75130248D01*
X158452074Y-75130449D01*
X158483206Y-75130757D01*
X158507717Y-75131195D01*
X158526367Y-75131785D01*
X158539916Y-75132548D01*
X158549123Y-75133507D01*
X158554748Y-75134684D01*
X158557550Y-75136102D01*
X158558289Y-75137783D01*
X158557964Y-75139181D01*
X158554723Y-75149543D01*
X158550548Y-75165365D01*
X158548580Y-75173555D01*
X158542535Y-75191888D01*
X158534508Y-75201576D01*
X158531519Y-75203073D01*
X158524210Y-75203865D01*
X158507535Y-75204506D01*
X158482543Y-75204989D01*
X158450287Y-75205308D01*
X158411816Y-75205457D01*
X158368181Y-75205429D01*
X158320434Y-75205217D01*
X158269624Y-75204814D01*
X158263071Y-75204750D01*
X158211516Y-75204301D01*
X158162535Y-75204007D01*
X158117235Y-75203866D01*
X158076722Y-75203873D01*
X158042103Y-75204028D01*
X158014484Y-75204326D01*
X157994971Y-75204767D01*
X157984671Y-75205347D01*
X157984239Y-75205405D01*
X157975605Y-75207124D01*
X157968041Y-75210262D01*
X157960185Y-75216120D01*
X157950674Y-75225996D01*
X157938144Y-75241193D01*
X157921234Y-75263009D01*
X157914192Y-75272235D01*
X157891855Y-75301346D01*
X157866479Y-75334096D01*
X157841127Y-75366551D01*
X157818860Y-75394773D01*
X157818097Y-75395734D01*
X157788736Y-75432729D01*
X157762602Y-75465842D01*
X157737908Y-75497366D01*
X157712866Y-75529594D01*
X157685691Y-75564820D01*
X157654596Y-75605336D01*
X157643560Y-75619749D01*
X157615863Y-75655815D01*
X157593772Y-75684281D01*
X157576665Y-75705899D01*
X157563923Y-75721423D01*
X157554925Y-75731604D01*
X157549051Y-75737197D01*
X157545680Y-75738954D01*
X157545348Y-75738933D01*
X157538735Y-75736928D01*
X157526279Y-75732650D01*
X157521494Y-75730942D01*
X157503225Y-75726445D01*
X157487785Y-75728215D01*
X157485555Y-75728944D01*
X157472524Y-75732792D01*
X157463498Y-75734331D01*
X157460655Y-75733036D01*
X157455778Y-75728821D01*
X157448464Y-75721186D01*
X157438308Y-75709634D01*
X157424907Y-75693669D01*
X157407858Y-75672791D01*
X157386757Y-75646503D01*
X157361199Y-75614307D01*
X157330783Y-75575706D01*
X157295103Y-75530202D01*
X157253756Y-75477297D01*
X157220610Y-75434803D01*
X157204309Y-75413946D01*
X157183382Y-75387247D01*
X157159660Y-75357040D01*
X157134975Y-75325657D01*
X157111160Y-75295432D01*
X157110950Y-75295166D01*
X157041899Y-75207620D01*
X156988757Y-75210451D01*
X156963317Y-75211366D01*
X156939069Y-75211475D01*
X156919644Y-75210795D01*
X156912524Y-75210117D01*
X156898451Y-75207714D01*
X156891312Y-75203497D01*
X156888131Y-75194330D01*
X156886612Y-75182834D01*
X156884098Y-75165431D01*
X156881169Y-75150639D01*
X156880193Y-75146995D01*
X156876594Y-75135274D01*
X156978406Y-75135274D01*
X157080218Y-75135274D01*
X157139469Y-75209505D01*
X157159917Y-75235186D01*
X157179435Y-75259816D01*
X157196549Y-75281526D01*
X157209785Y-75298446D01*
X157216514Y-75307178D01*
X157228358Y-75322260D01*
X157244143Y-75341670D01*
X157260981Y-75361869D01*
X157265728Y-75367463D01*
X157280876Y-75385667D01*
X157300041Y-75409349D01*
X157320956Y-75435676D01*
X157341355Y-75461814D01*
X157344917Y-75466437D01*
X157366148Y-75493911D01*
X157391119Y-75526006D01*
X157417079Y-75559196D01*
X157441276Y-75589958D01*
X157447228Y-75597489D01*
X157501771Y-75666410D01*
X157521996Y-75644372D01*
X157536893Y-75627370D01*
X157551740Y-75609240D01*
X157557688Y-75601497D01*
X157568545Y-75587335D01*
X157583239Y-75568768D01*
X157598926Y-75549382D01*
X157601846Y-75545827D01*
X157616214Y-75528115D01*
X157634635Y-75505015D01*
X157654828Y-75479409D01*
X157674509Y-75454178D01*
X157676149Y-75452062D01*
X157724194Y-75390054D01*
X157767635Y-75334130D01*
X157806249Y-75284576D01*
X157839812Y-75241674D01*
X157868101Y-75205710D01*
X157890892Y-75176966D01*
X157907963Y-75155729D01*
X157919089Y-75142281D01*
X157923276Y-75137599D01*
X157926102Y-75136013D01*
X157931665Y-75134660D01*
X157940713Y-75133522D01*
X157953996Y-75132582D01*
X157972264Y-75131821D01*
X157996265Y-75131224D01*
X158026749Y-75130772D01*
X158064466Y-75130448D01*
X158110164Y-75130234D01*
X158164593Y-75130113D01*
X158228503Y-75130067D01*
X158246151Y-75130065D01*
X158311360Y-75130078D01*
G37*
G36*
X159892098Y-75291357D02*
G01*
X159892597Y-75305634D01*
X159893038Y-75328014D01*
X159893406Y-75357339D01*
X159893687Y-75392451D01*
X159893866Y-75432193D01*
X159893929Y-75475373D01*
X159893929Y-75664405D01*
X159869382Y-75685043D01*
X159849138Y-75701941D01*
X159835415Y-75712987D01*
X159826848Y-75719138D01*
X159822072Y-75721351D01*
X159819723Y-75720583D01*
X159819389Y-75720098D01*
X159818162Y-75712850D01*
X159817808Y-75699272D01*
X159817971Y-75692658D01*
X159818224Y-75681862D01*
X159818514Y-75662074D01*
X159818829Y-75634718D01*
X159819152Y-75601221D01*
X159819471Y-75563008D01*
X159819771Y-75521504D01*
X159819947Y-75493820D01*
X159821001Y-75318424D01*
X159836455Y-75315029D01*
X159850893Y-75309817D01*
X159867137Y-75301197D01*
X159870546Y-75298988D01*
X159882445Y-75291252D01*
X159890288Y-75286781D01*
X159891556Y-75286341D01*
X159892098Y-75291357D01*
G37*
G36*
X160629232Y-75281617D02*
G01*
X160645663Y-75282912D01*
X160655274Y-75284777D01*
X160656640Y-75285637D01*
X160653672Y-75290160D01*
X160644030Y-75301171D01*
X160628485Y-75317868D01*
X160607807Y-75339450D01*
X160582766Y-75365116D01*
X160554134Y-75394064D01*
X160522680Y-75425494D01*
X160511378Y-75436704D01*
X160472591Y-75475024D01*
X160440430Y-75506522D01*
X160414166Y-75531752D01*
X160393069Y-75551269D01*
X160376410Y-75565630D01*
X160363459Y-75575390D01*
X160353488Y-75581105D01*
X160345768Y-75583330D01*
X160339568Y-75582620D01*
X160334160Y-75579532D01*
X160329473Y-75575283D01*
X160323097Y-75564830D01*
X160318280Y-75550083D01*
X160317995Y-75548663D01*
X160314498Y-75530024D01*
X160438863Y-75405578D01*
X160563228Y-75281132D01*
X160608542Y-75281132D01*
X160629232Y-75281617D01*
G37*
G36*
X160987499Y-75035824D02*
G01*
X161020416Y-75051790D01*
X161048642Y-75074667D01*
X161070697Y-75103700D01*
X161085105Y-75138135D01*
X161086760Y-75144795D01*
X161090628Y-75183650D01*
X161085235Y-75220311D01*
X161071674Y-75253739D01*
X161051036Y-75282897D01*
X161024416Y-75306745D01*
X160992906Y-75324244D01*
X160957598Y-75334356D01*
X160919586Y-75336043D01*
X160890532Y-75331300D01*
X160857545Y-75317847D01*
X160827505Y-75295779D01*
X160802595Y-75266870D01*
X160794078Y-75252913D01*
X160785150Y-75235310D01*
X160779992Y-75220739D01*
X160777616Y-75204945D01*
X160777033Y-75183676D01*
X160777035Y-75182457D01*
X160865039Y-75182457D01*
X160867694Y-75196471D01*
X160878785Y-75220428D01*
X160896340Y-75236895D01*
X160918989Y-75245253D01*
X160945363Y-75244885D01*
X160963504Y-75239806D01*
X160982337Y-75227805D01*
X160994804Y-75210128D01*
X161000848Y-75189168D01*
X161000413Y-75167320D01*
X160993441Y-75146976D01*
X160979878Y-75130532D01*
X160966262Y-75122555D01*
X160937761Y-75115444D01*
X160912517Y-75117813D01*
X160891359Y-75129387D01*
X160875116Y-75149889D01*
X160873192Y-75153641D01*
X160866558Y-75169676D01*
X160865039Y-75182457D01*
X160777035Y-75182457D01*
X160777040Y-75179553D01*
X160777670Y-75156516D01*
X160779956Y-75139781D01*
X160784803Y-75125258D01*
X160792345Y-75110252D01*
X160815713Y-75076946D01*
X160844895Y-75052094D01*
X160875375Y-75036929D01*
X160913500Y-75027639D01*
X160951367Y-75027522D01*
X160987499Y-75035824D01*
G37*
G36*
X156716246Y-75030382D02*
G01*
X156757130Y-75040520D01*
X156791593Y-75058615D01*
X156819269Y-75084473D01*
X156820508Y-75086016D01*
X156839761Y-75118056D01*
X156850176Y-75152890D01*
X156852111Y-75188784D01*
X156845925Y-75224004D01*
X156831975Y-75256817D01*
X156810620Y-75285489D01*
X156782217Y-75308285D01*
X156773626Y-75313085D01*
X156757394Y-75320661D01*
X156742735Y-75325110D01*
X156725744Y-75327216D01*
X156702519Y-75327767D01*
X156700697Y-75327768D01*
X156676146Y-75327178D01*
X156658166Y-75324967D01*
X156642948Y-75320429D01*
X156630373Y-75314733D01*
X156597753Y-75293126D01*
X156572460Y-75265447D01*
X156554964Y-75233263D01*
X156545738Y-75198139D01*
X156545440Y-75175565D01*
X156632978Y-75175565D01*
X156637526Y-75200304D01*
X156649898Y-75220233D01*
X156668183Y-75234253D01*
X156690471Y-75241268D01*
X156714851Y-75240182D01*
X156733533Y-75233300D01*
X156745714Y-75222358D01*
X156756084Y-75205320D01*
X156762331Y-75186494D01*
X156763188Y-75177992D01*
X156758699Y-75152838D01*
X156745907Y-75133192D01*
X156725919Y-75120085D01*
X156699841Y-75114551D01*
X156695134Y-75114438D01*
X156680565Y-75115741D01*
X156668802Y-75121002D01*
X156655639Y-75132250D01*
X156653202Y-75134662D01*
X156640721Y-75148638D01*
X156634653Y-75160569D01*
X156632982Y-75174531D01*
X156632978Y-75175565D01*
X156545440Y-75175565D01*
X156545256Y-75161643D01*
X156553989Y-75125339D01*
X156565857Y-75100849D01*
X156590205Y-75069431D01*
X156620065Y-75046699D01*
X156654712Y-75032992D01*
X156693424Y-75028649D01*
X156716246Y-75030382D01*
G37*
G36*
X158774522Y-75035913D02*
G01*
X158808581Y-75050122D01*
X158837846Y-75073332D01*
X158861725Y-75105154D01*
X158868202Y-75117234D01*
X158877066Y-75136431D01*
X158881712Y-75151303D01*
X158883094Y-75166574D01*
X158882196Y-75186556D01*
X158874732Y-75224705D01*
X158858931Y-75257831D01*
X158836009Y-75285065D01*
X158807183Y-75305537D01*
X158773671Y-75318376D01*
X158736689Y-75322713D01*
X158698421Y-75317917D01*
X158670415Y-75307261D01*
X158643258Y-75290212D01*
X158619369Y-75268890D01*
X158601167Y-75245413D01*
X158591723Y-75224470D01*
X158588914Y-75208996D01*
X158587000Y-75188207D01*
X158586452Y-75171157D01*
X158586853Y-75168043D01*
X158671691Y-75168043D01*
X158672350Y-75188449D01*
X158680349Y-75206844D01*
X158694159Y-75221926D01*
X158712247Y-75232394D01*
X158733085Y-75236945D01*
X158755140Y-75234278D01*
X158772814Y-75225954D01*
X158787758Y-75210407D01*
X158796117Y-75189528D01*
X158796660Y-75166925D01*
X158795175Y-75160548D01*
X158784088Y-75139141D01*
X158767130Y-75124550D01*
X158746529Y-75117038D01*
X158724515Y-75116867D01*
X158703316Y-75124303D01*
X158685161Y-75139608D01*
X158679904Y-75146928D01*
X158671691Y-75168043D01*
X158586853Y-75168043D01*
X158591206Y-75134195D01*
X158604834Y-75101390D01*
X158626292Y-75073722D01*
X158654531Y-75052168D01*
X158688506Y-75037706D01*
X158727170Y-75031316D01*
X158736264Y-75031091D01*
X158774522Y-75035913D01*
G37*
G36*
X159815226Y-75053471D02*
G01*
X159844821Y-75062023D01*
X159871551Y-75078218D01*
X159893682Y-75102148D01*
X159899120Y-75110768D01*
X159911548Y-75141907D01*
X159914830Y-75174164D01*
X159909452Y-75205584D01*
X159895898Y-75234213D01*
X159874657Y-75258095D01*
X159859892Y-75268488D01*
X159834409Y-75279004D01*
X159804805Y-75284483D01*
X159775372Y-75284482D01*
X159752811Y-75279518D01*
X159722416Y-75263155D01*
X159698849Y-75240316D01*
X159682825Y-75212662D01*
X159675113Y-75182060D01*
X159749748Y-75182060D01*
X159757790Y-75198187D01*
X159770676Y-75208543D01*
X159783157Y-75215687D01*
X159792034Y-75217934D01*
X159802161Y-75215594D01*
X159812949Y-75211243D01*
X159832658Y-75198770D01*
X159843241Y-75182586D01*
X159844362Y-75164259D01*
X159835683Y-75145358D01*
X159828839Y-75137430D01*
X159812201Y-75127273D01*
X159793276Y-75125342D01*
X159774876Y-75130778D01*
X159759815Y-75142724D01*
X159750907Y-75160321D01*
X159750688Y-75161267D01*
X159749748Y-75182060D01*
X159675113Y-75182060D01*
X159675060Y-75181851D01*
X159676270Y-75149541D01*
X159684890Y-75122136D01*
X159702831Y-75093853D01*
X159726567Y-75072752D01*
X159754367Y-75058928D01*
X159784497Y-75052470D01*
X159815226Y-75053471D01*
G37*
G36*
X159529863Y-75163821D02*
G01*
X159528704Y-75181111D01*
X159527177Y-75194038D01*
X159525941Y-75198983D01*
X159520422Y-75199717D01*
X159505415Y-75200408D01*
X159481850Y-75201044D01*
X159450656Y-75201611D01*
X159412765Y-75202097D01*
X159369107Y-75202491D01*
X159320610Y-75202779D01*
X159268206Y-75202950D01*
X159224078Y-75202994D01*
X159157961Y-75202949D01*
X159101601Y-75202803D01*
X159054337Y-75202544D01*
X159015508Y-75202155D01*
X158984453Y-75201624D01*
X158960511Y-75200935D01*
X158943021Y-75200075D01*
X158931322Y-75199029D01*
X158924753Y-75197783D01*
X158922681Y-75196482D01*
X158920800Y-75187365D01*
X158918665Y-75172942D01*
X158918193Y-75169134D01*
X158916143Y-75153765D01*
X158914203Y-75142086D01*
X158913857Y-75140484D01*
X158914410Y-75138841D01*
X158917411Y-75137442D01*
X158923608Y-75136267D01*
X158933750Y-75135298D01*
X158948584Y-75134516D01*
X158968859Y-75133902D01*
X158995323Y-75133436D01*
X159028724Y-75133100D01*
X159069811Y-75132874D01*
X159119331Y-75132741D01*
X159178033Y-75132680D01*
X159221652Y-75132670D01*
X159531306Y-75132670D01*
X159529863Y-75163821D01*
G37*
%TO.C,D1*%
D14*
X160610000Y-68590000D02*
X160610000Y-72490000D01*
X162610000Y-68590000D02*
X160610000Y-68590000D01*
X162610000Y-68590000D02*
X162610000Y-72490000D01*
%TO.C,D2*%
X175420000Y-28930000D02*
X171520000Y-28930000D01*
X175420000Y-30930000D02*
X171520000Y-30930000D01*
X175420000Y-30930000D02*
X175420000Y-28930000D01*
%TO.C,C1*%
X172437221Y-31690000D02*
X172762779Y-31690000D01*
X172437221Y-32710000D02*
X172762779Y-32710000D01*
%TO.C,C2*%
X176730000Y-41547221D02*
X176730000Y-41872779D01*
X177750000Y-41547221D02*
X177750000Y-41872779D01*
%TO.C,L1*%
X133940000Y-32274721D02*
X133940000Y-32600279D01*
X134960000Y-32274721D02*
X134960000Y-32600279D01*
%TO.C,L2*%
X133960000Y-39429721D02*
X133960000Y-39755279D01*
X134980000Y-39429721D02*
X134980000Y-39755279D01*
%TO.C,C3*%
X135104721Y-36430000D02*
X135430279Y-36430000D01*
X135104721Y-37450000D02*
X135430279Y-37450000D01*
%TO.C,J3*%
X164300000Y-73500000D02*
X164750000Y-73500000D01*
X164300000Y-75350000D02*
X164300000Y-73500000D01*
X164300000Y-77900000D02*
X164300000Y-77650000D01*
X166500000Y-72950000D02*
X166500000Y-73400000D01*
X166500000Y-72950000D02*
X166950000Y-72950000D01*
X172100000Y-73500000D02*
X171650000Y-73500000D01*
X172100000Y-75350000D02*
X172100000Y-73500000D01*
X172100000Y-77900000D02*
X172100000Y-77650000D01*
%TO.C,FL1*%
X166790000Y-68950000D02*
X166790000Y-67550000D01*
X168610000Y-68950000D02*
X168610000Y-67360000D01*
%TO.C,R5*%
X145648000Y-70775279D02*
X145648000Y-70449721D01*
X146668000Y-70775279D02*
X146668000Y-70449721D01*
%TO.C,R2*%
X136630000Y-70575279D02*
X136630000Y-70249721D01*
X137650000Y-70575279D02*
X137650000Y-70249721D01*
%TO.C,R4*%
X142746000Y-70760279D02*
X142746000Y-70434721D01*
X143766000Y-70760279D02*
X143766000Y-70434721D01*
%TO.C,R3*%
X139490000Y-70790279D02*
X139490000Y-70464721D01*
X140510000Y-70790279D02*
X140510000Y-70464721D01*
%TO.C,JP1*%
X127540000Y-47715000D02*
X128600000Y-47715000D01*
X127540000Y-48775000D02*
X127540000Y-47715000D01*
X127540000Y-49775000D02*
X127540000Y-53835000D01*
X127540000Y-49775000D02*
X129660000Y-49775000D01*
X127540000Y-53835000D02*
X129660000Y-53835000D01*
X129660000Y-49775000D02*
X129660000Y-53835000D01*
%TO.C,JP2*%
X176540000Y-67700000D02*
X176540000Y-63640000D01*
X178660000Y-63640000D02*
X176540000Y-63640000D01*
X178660000Y-67700000D02*
X176540000Y-67700000D01*
X178660000Y-67700000D02*
X178660000Y-63640000D01*
X178660000Y-68700000D02*
X178660000Y-69760000D01*
X178660000Y-69760000D02*
X177600000Y-69760000D01*
%TO.C,J1*%
X122750000Y-31664000D02*
X131050000Y-31664000D01*
X122750000Y-39964000D02*
X122750000Y-31664000D01*
X122750000Y-39964000D02*
X131050000Y-39964000D01*
X131050000Y-39964000D02*
X131050000Y-31664000D01*
%TO.C,U4*%
X170558000Y-61040000D02*
X170558000Y-59740000D01*
X172358000Y-59490000D02*
X172358000Y-61040000D01*
%TO.C,C6*%
X143624721Y-63890000D02*
X143950279Y-63890000D01*
X143624721Y-64910000D02*
X143950279Y-64910000D01*
%TO.C,J6*%
X179970000Y-54770000D02*
X181300000Y-54770000D01*
X179970000Y-56100000D02*
X179970000Y-54770000D01*
X179970000Y-57370000D02*
X179970000Y-70130000D01*
X179970000Y-57370000D02*
X182630000Y-57370000D01*
X179970000Y-70130000D02*
X182630000Y-70130000D01*
X182630000Y-57370000D02*
X182630000Y-70130000D01*
%TO.C,U2*%
X170390000Y-36000000D02*
X170390000Y-39760000D01*
X170390000Y-39760000D02*
X171650000Y-39760000D01*
X177210000Y-33750000D02*
X177210000Y-39760000D01*
X177210000Y-39760000D02*
X175950000Y-39760000D01*
%TO.C,U3*%
X174500000Y-45765000D02*
X170900000Y-45765000D01*
X174500000Y-45765000D02*
X176700000Y-45765000D01*
X174500000Y-51235000D02*
X172300000Y-51235000D01*
X174500000Y-51235000D02*
X176700000Y-51235000D01*
%TO.C,C5*%
X176662779Y-44290000D02*
X176337221Y-44290000D01*
X176662779Y-45310000D02*
X176337221Y-45310000D01*
%TO.C,C4*%
X172224721Y-44290000D02*
X172550279Y-44290000D01*
X172224721Y-45310000D02*
X172550279Y-45310000D01*
%TO.C,D4*%
X133377000Y-73368000D02*
X133377000Y-75653000D01*
X133377000Y-75653000D02*
X134847000Y-75653000D01*
X134847000Y-75653000D02*
X134847000Y-73368000D01*
%TO.C,D5*%
X136425000Y-73393500D02*
X136425000Y-75678500D01*
X136425000Y-75678500D02*
X137895000Y-75678500D01*
X137895000Y-75678500D02*
X137895000Y-73393500D01*
%TO.C,D7*%
X142521000Y-73368000D02*
X142521000Y-75653000D01*
X142521000Y-75653000D02*
X143991000Y-75653000D01*
X143991000Y-75653000D02*
X143991000Y-73368000D01*
%TO.C,D6*%
X139469000Y-73393000D02*
X139469000Y-75678000D01*
X139469000Y-75678000D02*
X140939000Y-75678000D01*
X140939000Y-75678000D02*
X140939000Y-73393000D01*
%TO.C,J5*%
X179970000Y-43270000D02*
X181300000Y-43270000D01*
X179970000Y-44600000D02*
X179970000Y-43270000D01*
X179970000Y-45870000D02*
X179970000Y-53550000D01*
X179970000Y-45870000D02*
X182630000Y-45870000D01*
X179970000Y-53550000D02*
X182630000Y-53550000D01*
X182630000Y-45870000D02*
X182630000Y-53550000D01*
%TO.C,J7*%
X179970000Y-36230000D02*
X181300000Y-36230000D01*
X179970000Y-37560000D02*
X179970000Y-36230000D01*
X179970000Y-38830000D02*
X179970000Y-41430000D01*
X179970000Y-38830000D02*
X182630000Y-38830000D01*
X179970000Y-41430000D02*
X182630000Y-41430000D01*
X182630000Y-38830000D02*
X182630000Y-41430000D01*
%TO.C,D3*%
X180300000Y-30516000D02*
X180300000Y-34416000D01*
X182300000Y-30516000D02*
X180300000Y-30516000D01*
X182300000Y-30516000D02*
X182300000Y-34416000D01*
%TO.C,D8*%
X145423000Y-73368000D02*
X145423000Y-75653000D01*
X145423000Y-75653000D02*
X146893000Y-75653000D01*
X146893000Y-75653000D02*
X146893000Y-73368000D01*
%TO.C,J2*%
X122750000Y-60050000D02*
X131050000Y-60050000D01*
X122750000Y-68350000D02*
X122750000Y-60050000D01*
X122750000Y-68350000D02*
X131050000Y-68350000D01*
X131050000Y-68350000D02*
X131050000Y-60050000D01*
%TO.C,R1*%
X133620000Y-70632779D02*
X133620000Y-70307221D01*
X134640000Y-70632779D02*
X134640000Y-70307221D01*
%TO.C,U1*%
X136590000Y-31490000D02*
X136590000Y-64510000D01*
X136590000Y-64510000D02*
X169610000Y-64510000D01*
X137600000Y-63500000D02*
X137600000Y-32500000D01*
X144210000Y-39110000D02*
X161990000Y-39110000D01*
X144210000Y-56890000D02*
X144210000Y-39110000D01*
X161990000Y-39110000D02*
X161990000Y-56890000D01*
X161990000Y-56890000D02*
X144210000Y-56890000D01*
X168600000Y-32500000D02*
X137600000Y-32500000D01*
X168600000Y-63500000D02*
X137600000Y-63500000D01*
X168600000Y-63500000D02*
X168600000Y-32500000D01*
X169610000Y-31490000D02*
X136590000Y-31490000D01*
X169610000Y-64510000D02*
X169610000Y-31490000D01*
D15*
%TO.C,G\u002A\u002A\u002A*%
X126875066Y-70568150D02*
X126886859Y-70629092D01*
X126898065Y-70683298D01*
X126907960Y-70727545D01*
X126915820Y-70758611D01*
X126920920Y-70773272D01*
X126921303Y-70773767D01*
X126933984Y-70780994D01*
X126961285Y-70793658D01*
X126998835Y-70809971D01*
X127042261Y-70828147D01*
X127087190Y-70846399D01*
X127129251Y-70862940D01*
X127164071Y-70875984D01*
X127187278Y-70883744D01*
X127193780Y-70885120D01*
X127205307Y-70879608D01*
X127230686Y-70864279D01*
X127267098Y-70840937D01*
X127311728Y-70811389D01*
X127361758Y-70777439D01*
X127362108Y-70777199D01*
X127412440Y-70742857D01*
X127457582Y-70712452D01*
X127494647Y-70687895D01*
X127520751Y-70671098D01*
X127532973Y-70663986D01*
X127544142Y-70669166D01*
X127566473Y-70686585D01*
X127597291Y-70713601D01*
X127633920Y-70747570D01*
X127673688Y-70785850D01*
X127713918Y-70825799D01*
X127751937Y-70864774D01*
X127785070Y-70900131D01*
X127810643Y-70929228D01*
X127825981Y-70949423D01*
X127829200Y-70956692D01*
X127823685Y-70969827D01*
X127808355Y-70996684D01*
X127785028Y-71034327D01*
X127755522Y-71079819D01*
X127722520Y-71128959D01*
X127688790Y-71179033D01*
X127659447Y-71223842D01*
X127636301Y-71260519D01*
X127621163Y-71286199D01*
X127615840Y-71297947D01*
X127619750Y-71311713D01*
X127630270Y-71339729D01*
X127645584Y-71377751D01*
X127663876Y-71421538D01*
X127683329Y-71466848D01*
X127702128Y-71509440D01*
X127718455Y-71545071D01*
X127730496Y-71569499D01*
X127735778Y-71578082D01*
X127746864Y-71581554D01*
X127774169Y-71588016D01*
X127813943Y-71596716D01*
X127862432Y-71606900D01*
X127915885Y-71617815D01*
X127970549Y-71628708D01*
X128022673Y-71638825D01*
X128068504Y-71647413D01*
X128104290Y-71653719D01*
X128126279Y-71656989D01*
X128130249Y-71657280D01*
X128132377Y-71666826D01*
X128133802Y-71693040D01*
X128134581Y-71732284D01*
X128134767Y-71780918D01*
X128134415Y-71835305D01*
X128133581Y-71891807D01*
X128132319Y-71946784D01*
X128130684Y-71996600D01*
X128128732Y-72037615D01*
X128126517Y-72066191D01*
X128124094Y-72078690D01*
X128123881Y-72078894D01*
X128111033Y-72082712D01*
X128081604Y-72089458D01*
X128039003Y-72098412D01*
X127986640Y-72108855D01*
X127935166Y-72118711D01*
X127875846Y-72130492D01*
X127823591Y-72142073D01*
X127781788Y-72152610D01*
X127753824Y-72161263D01*
X127743560Y-72166397D01*
X127735246Y-72180708D01*
X127721692Y-72209661D01*
X127704639Y-72248936D01*
X127685829Y-72294213D01*
X127667001Y-72341172D01*
X127649899Y-72385493D01*
X127636262Y-72422857D01*
X127627832Y-72448942D01*
X127625962Y-72458157D01*
X127631511Y-72470561D01*
X127646880Y-72496605D01*
X127670188Y-72533317D01*
X127699555Y-72577722D01*
X127727600Y-72618893D01*
X127760668Y-72667762D01*
X127789235Y-72711777D01*
X127811412Y-72747878D01*
X127825309Y-72773006D01*
X127829200Y-72783351D01*
X127822350Y-72794756D01*
X127803587Y-72817500D01*
X127775588Y-72848830D01*
X127741028Y-72885994D01*
X127702586Y-72926239D01*
X127662938Y-72966811D01*
X127624762Y-73004960D01*
X127590733Y-73037931D01*
X127563530Y-73062972D01*
X127545830Y-73077330D01*
X127541020Y-73079680D01*
X127530207Y-73074196D01*
X127505649Y-73059014D01*
X127470284Y-73036032D01*
X127427049Y-73007153D01*
X127391389Y-72982878D01*
X127343449Y-72950275D01*
X127300484Y-72921587D01*
X127265651Y-72898879D01*
X127242101Y-72884213D01*
X127233928Y-72879804D01*
X127217188Y-72880962D01*
X127188231Y-72889937D01*
X127152735Y-72904926D01*
X127148480Y-72906960D01*
X127113347Y-72922424D01*
X127084165Y-72932497D01*
X127066542Y-72935290D01*
X127065270Y-72934974D01*
X127059174Y-72925097D01*
X127046440Y-72899051D01*
X127028184Y-72859449D01*
X127005526Y-72808902D01*
X126979583Y-72750023D01*
X126951475Y-72685423D01*
X126922319Y-72617715D01*
X126893235Y-72549512D01*
X126865339Y-72483424D01*
X126839751Y-72422065D01*
X126817589Y-72368046D01*
X126799972Y-72323979D01*
X126788018Y-72292477D01*
X126782844Y-72276152D01*
X126782720Y-72275044D01*
X126790331Y-72266594D01*
X126810654Y-72249375D01*
X126839926Y-72226509D01*
X126853447Y-72216371D01*
X126924254Y-72152776D01*
X126978154Y-72080954D01*
X127014981Y-72003199D01*
X127034570Y-71921801D01*
X127036757Y-71839053D01*
X127021375Y-71757247D01*
X126988259Y-71678676D01*
X126937245Y-71605632D01*
X126900226Y-71567469D01*
X126830158Y-71515355D01*
X126754891Y-71481140D01*
X126676692Y-71463822D01*
X126597827Y-71462402D01*
X126520564Y-71475880D01*
X126447169Y-71503254D01*
X126379910Y-71543525D01*
X126321053Y-71595693D01*
X126272865Y-71658757D01*
X126237614Y-71731716D01*
X126217565Y-71813571D01*
X126213760Y-71870386D01*
X126223364Y-71961394D01*
X126251982Y-72045513D01*
X126299318Y-72122185D01*
X126365078Y-72190854D01*
X126397032Y-72216371D01*
X126428854Y-72240632D01*
X126453249Y-72260511D01*
X126466454Y-72272883D01*
X126467760Y-72275044D01*
X126463894Y-72288493D01*
X126453044Y-72317569D01*
X126436328Y-72359662D01*
X126414866Y-72412158D01*
X126389777Y-72472446D01*
X126362181Y-72537913D01*
X126333197Y-72605947D01*
X126303944Y-72673936D01*
X126275542Y-72739268D01*
X126249109Y-72799331D01*
X126225766Y-72851512D01*
X126206631Y-72893199D01*
X126192824Y-72921781D01*
X126185464Y-72934644D01*
X126184929Y-72935082D01*
X126169522Y-72933421D01*
X126141615Y-72924054D01*
X126106619Y-72908873D01*
X126098170Y-72904775D01*
X126025800Y-72868946D01*
X125871789Y-72974313D01*
X125822407Y-73007789D01*
X125778632Y-73036878D01*
X125743269Y-73059764D01*
X125719119Y-73074633D01*
X125709093Y-73079680D01*
X125699549Y-73072806D01*
X125678089Y-73053657D01*
X125647053Y-73024439D01*
X125608780Y-72987356D01*
X125565607Y-72944616D01*
X125560843Y-72939848D01*
X125517581Y-72895665D01*
X125479776Y-72855454D01*
X125449651Y-72821713D01*
X125429430Y-72796939D01*
X125421337Y-72783629D01*
X125421280Y-72783084D01*
X125426836Y-72769520D01*
X125442244Y-72742427D01*
X125465616Y-72704856D01*
X125495061Y-72659862D01*
X125522880Y-72618893D01*
X125555890Y-72570315D01*
X125584425Y-72526928D01*
X125606604Y-72491704D01*
X125620546Y-72467617D01*
X125624517Y-72458157D01*
X125620746Y-72442486D01*
X125610555Y-72412527D01*
X125595684Y-72372599D01*
X125577875Y-72327023D01*
X125558869Y-72280117D01*
X125540407Y-72236203D01*
X125524230Y-72199599D01*
X125512080Y-72174627D01*
X125506919Y-72166397D01*
X125492973Y-72159943D01*
X125462384Y-72150906D01*
X125418539Y-72140129D01*
X125364826Y-72128454D01*
X125315313Y-72118711D01*
X125257177Y-72107552D01*
X125205802Y-72097249D01*
X125164596Y-72088521D01*
X125136971Y-72082087D01*
X125126598Y-72078894D01*
X125124161Y-72067930D01*
X125121926Y-72040579D01*
X125119949Y-72000481D01*
X125118285Y-71951272D01*
X125116990Y-71896592D01*
X125116117Y-71840078D01*
X125115722Y-71785370D01*
X125115860Y-71736105D01*
X125116586Y-71695921D01*
X125117954Y-71668458D01*
X125120021Y-71657353D01*
X125120230Y-71657280D01*
X125135963Y-71655367D01*
X125166925Y-71650131D01*
X125209364Y-71642325D01*
X125259528Y-71632703D01*
X125313665Y-71622017D01*
X125368023Y-71611022D01*
X125418850Y-71600470D01*
X125462394Y-71591114D01*
X125494902Y-71583709D01*
X125512622Y-71579006D01*
X125514701Y-71578082D01*
X125522080Y-71565480D01*
X125535179Y-71538330D01*
X125552180Y-71500874D01*
X125571268Y-71457355D01*
X125590627Y-71412013D01*
X125608441Y-71369091D01*
X125622893Y-71332830D01*
X125632168Y-71307473D01*
X125634640Y-71297947D01*
X125629142Y-71285882D01*
X125613858Y-71259999D01*
X125590596Y-71223165D01*
X125561167Y-71178246D01*
X125527960Y-71128959D01*
X125494178Y-71078640D01*
X125464802Y-71033304D01*
X125441648Y-70995889D01*
X125426535Y-70969332D01*
X125421279Y-70956692D01*
X125428192Y-70944005D01*
X125447145Y-70920631D01*
X125475465Y-70889211D01*
X125510478Y-70852390D01*
X125549508Y-70812810D01*
X125589881Y-70773113D01*
X125628923Y-70735942D01*
X125663959Y-70703940D01*
X125692315Y-70679750D01*
X125711316Y-70666015D01*
X125717506Y-70663986D01*
X125729892Y-70671200D01*
X125756099Y-70688070D01*
X125793243Y-70712683D01*
X125838439Y-70743129D01*
X125888371Y-70777199D01*
X125938428Y-70811172D01*
X125983104Y-70840756D01*
X126019581Y-70864146D01*
X126045043Y-70879536D01*
X126056674Y-70885119D01*
X126056699Y-70885119D01*
X126070926Y-70881350D01*
X126099366Y-70871234D01*
X126137647Y-70856558D01*
X126181397Y-70839108D01*
X126226244Y-70820671D01*
X126267815Y-70803035D01*
X126301739Y-70787985D01*
X126323642Y-70777310D01*
X126329176Y-70773767D01*
X126333905Y-70761237D01*
X126341479Y-70731925D01*
X126351174Y-70689055D01*
X126362264Y-70635848D01*
X126374025Y-70575529D01*
X126375413Y-70568150D01*
X126412143Y-70372040D01*
X126838336Y-70372040D01*
X126875066Y-70568150D01*
G36*
X126875066Y-70568150D02*
G01*
X126886859Y-70629092D01*
X126898065Y-70683298D01*
X126907960Y-70727545D01*
X126915820Y-70758611D01*
X126920920Y-70773272D01*
X126921303Y-70773767D01*
X126933984Y-70780994D01*
X126961285Y-70793658D01*
X126998835Y-70809971D01*
X127042261Y-70828147D01*
X127087190Y-70846399D01*
X127129251Y-70862940D01*
X127164071Y-70875984D01*
X127187278Y-70883744D01*
X127193780Y-70885120D01*
X127205307Y-70879608D01*
X127230686Y-70864279D01*
X127267098Y-70840937D01*
X127311728Y-70811389D01*
X127361758Y-70777439D01*
X127362108Y-70777199D01*
X127412440Y-70742857D01*
X127457582Y-70712452D01*
X127494647Y-70687895D01*
X127520751Y-70671098D01*
X127532973Y-70663986D01*
X127544142Y-70669166D01*
X127566473Y-70686585D01*
X127597291Y-70713601D01*
X127633920Y-70747570D01*
X127673688Y-70785850D01*
X127713918Y-70825799D01*
X127751937Y-70864774D01*
X127785070Y-70900131D01*
X127810643Y-70929228D01*
X127825981Y-70949423D01*
X127829200Y-70956692D01*
X127823685Y-70969827D01*
X127808355Y-70996684D01*
X127785028Y-71034327D01*
X127755522Y-71079819D01*
X127722520Y-71128959D01*
X127688790Y-71179033D01*
X127659447Y-71223842D01*
X127636301Y-71260519D01*
X127621163Y-71286199D01*
X127615840Y-71297947D01*
X127619750Y-71311713D01*
X127630270Y-71339729D01*
X127645584Y-71377751D01*
X127663876Y-71421538D01*
X127683329Y-71466848D01*
X127702128Y-71509440D01*
X127718455Y-71545071D01*
X127730496Y-71569499D01*
X127735778Y-71578082D01*
X127746864Y-71581554D01*
X127774169Y-71588016D01*
X127813943Y-71596716D01*
X127862432Y-71606900D01*
X127915885Y-71617815D01*
X127970549Y-71628708D01*
X128022673Y-71638825D01*
X128068504Y-71647413D01*
X128104290Y-71653719D01*
X128126279Y-71656989D01*
X128130249Y-71657280D01*
X128132377Y-71666826D01*
X128133802Y-71693040D01*
X128134581Y-71732284D01*
X128134767Y-71780918D01*
X128134415Y-71835305D01*
X128133581Y-71891807D01*
X128132319Y-71946784D01*
X128130684Y-71996600D01*
X128128732Y-72037615D01*
X128126517Y-72066191D01*
X128124094Y-72078690D01*
X128123881Y-72078894D01*
X128111033Y-72082712D01*
X128081604Y-72089458D01*
X128039003Y-72098412D01*
X127986640Y-72108855D01*
X127935166Y-72118711D01*
X127875846Y-72130492D01*
X127823591Y-72142073D01*
X127781788Y-72152610D01*
X127753824Y-72161263D01*
X127743560Y-72166397D01*
X127735246Y-72180708D01*
X127721692Y-72209661D01*
X127704639Y-72248936D01*
X127685829Y-72294213D01*
X127667001Y-72341172D01*
X127649899Y-72385493D01*
X127636262Y-72422857D01*
X127627832Y-72448942D01*
X127625962Y-72458157D01*
X127631511Y-72470561D01*
X127646880Y-72496605D01*
X127670188Y-72533317D01*
X127699555Y-72577722D01*
X127727600Y-72618893D01*
X127760668Y-72667762D01*
X127789235Y-72711777D01*
X127811412Y-72747878D01*
X127825309Y-72773006D01*
X127829200Y-72783351D01*
X127822350Y-72794756D01*
X127803587Y-72817500D01*
X127775588Y-72848830D01*
X127741028Y-72885994D01*
X127702586Y-72926239D01*
X127662938Y-72966811D01*
X127624762Y-73004960D01*
X127590733Y-73037931D01*
X127563530Y-73062972D01*
X127545830Y-73077330D01*
X127541020Y-73079680D01*
X127530207Y-73074196D01*
X127505649Y-73059014D01*
X127470284Y-73036032D01*
X127427049Y-73007153D01*
X127391389Y-72982878D01*
X127343449Y-72950275D01*
X127300484Y-72921587D01*
X127265651Y-72898879D01*
X127242101Y-72884213D01*
X127233928Y-72879804D01*
X127217188Y-72880962D01*
X127188231Y-72889937D01*
X127152735Y-72904926D01*
X127148480Y-72906960D01*
X127113347Y-72922424D01*
X127084165Y-72932497D01*
X127066542Y-72935290D01*
X127065270Y-72934974D01*
X127059174Y-72925097D01*
X127046440Y-72899051D01*
X127028184Y-72859449D01*
X127005526Y-72808902D01*
X126979583Y-72750023D01*
X126951475Y-72685423D01*
X126922319Y-72617715D01*
X126893235Y-72549512D01*
X126865339Y-72483424D01*
X126839751Y-72422065D01*
X126817589Y-72368046D01*
X126799972Y-72323979D01*
X126788018Y-72292477D01*
X126782844Y-72276152D01*
X126782720Y-72275044D01*
X126790331Y-72266594D01*
X126810654Y-72249375D01*
X126839926Y-72226509D01*
X126853447Y-72216371D01*
X126924254Y-72152776D01*
X126978154Y-72080954D01*
X127014981Y-72003199D01*
X127034570Y-71921801D01*
X127036757Y-71839053D01*
X127021375Y-71757247D01*
X126988259Y-71678676D01*
X126937245Y-71605632D01*
X126900226Y-71567469D01*
X126830158Y-71515355D01*
X126754891Y-71481140D01*
X126676692Y-71463822D01*
X126597827Y-71462402D01*
X126520564Y-71475880D01*
X126447169Y-71503254D01*
X126379910Y-71543525D01*
X126321053Y-71595693D01*
X126272865Y-71658757D01*
X126237614Y-71731716D01*
X126217565Y-71813571D01*
X126213760Y-71870386D01*
X126223364Y-71961394D01*
X126251982Y-72045513D01*
X126299318Y-72122185D01*
X126365078Y-72190854D01*
X126397032Y-72216371D01*
X126428854Y-72240632D01*
X126453249Y-72260511D01*
X126466454Y-72272883D01*
X126467760Y-72275044D01*
X126463894Y-72288493D01*
X126453044Y-72317569D01*
X126436328Y-72359662D01*
X126414866Y-72412158D01*
X126389777Y-72472446D01*
X126362181Y-72537913D01*
X126333197Y-72605947D01*
X126303944Y-72673936D01*
X126275542Y-72739268D01*
X126249109Y-72799331D01*
X126225766Y-72851512D01*
X126206631Y-72893199D01*
X126192824Y-72921781D01*
X126185464Y-72934644D01*
X126184929Y-72935082D01*
X126169522Y-72933421D01*
X126141615Y-72924054D01*
X126106619Y-72908873D01*
X126098170Y-72904775D01*
X126025800Y-72868946D01*
X125871789Y-72974313D01*
X125822407Y-73007789D01*
X125778632Y-73036878D01*
X125743269Y-73059764D01*
X125719119Y-73074633D01*
X125709093Y-73079680D01*
X125699549Y-73072806D01*
X125678089Y-73053657D01*
X125647053Y-73024439D01*
X125608780Y-72987356D01*
X125565607Y-72944616D01*
X125560843Y-72939848D01*
X125517581Y-72895665D01*
X125479776Y-72855454D01*
X125449651Y-72821713D01*
X125429430Y-72796939D01*
X125421337Y-72783629D01*
X125421280Y-72783084D01*
X125426836Y-72769520D01*
X125442244Y-72742427D01*
X125465616Y-72704856D01*
X125495061Y-72659862D01*
X125522880Y-72618893D01*
X125555890Y-72570315D01*
X125584425Y-72526928D01*
X125606604Y-72491704D01*
X125620546Y-72467617D01*
X125624517Y-72458157D01*
X125620746Y-72442486D01*
X125610555Y-72412527D01*
X125595684Y-72372599D01*
X125577875Y-72327023D01*
X125558869Y-72280117D01*
X125540407Y-72236203D01*
X125524230Y-72199599D01*
X125512080Y-72174627D01*
X125506919Y-72166397D01*
X125492973Y-72159943D01*
X125462384Y-72150906D01*
X125418539Y-72140129D01*
X125364826Y-72128454D01*
X125315313Y-72118711D01*
X125257177Y-72107552D01*
X125205802Y-72097249D01*
X125164596Y-72088521D01*
X125136971Y-72082087D01*
X125126598Y-72078894D01*
X125124161Y-72067930D01*
X125121926Y-72040579D01*
X125119949Y-72000481D01*
X125118285Y-71951272D01*
X125116990Y-71896592D01*
X125116117Y-71840078D01*
X125115722Y-71785370D01*
X125115860Y-71736105D01*
X125116586Y-71695921D01*
X125117954Y-71668458D01*
X125120021Y-71657353D01*
X125120230Y-71657280D01*
X125135963Y-71655367D01*
X125166925Y-71650131D01*
X125209364Y-71642325D01*
X125259528Y-71632703D01*
X125313665Y-71622017D01*
X125368023Y-71611022D01*
X125418850Y-71600470D01*
X125462394Y-71591114D01*
X125494902Y-71583709D01*
X125512622Y-71579006D01*
X125514701Y-71578082D01*
X125522080Y-71565480D01*
X125535179Y-71538330D01*
X125552180Y-71500874D01*
X125571268Y-71457355D01*
X125590627Y-71412013D01*
X125608441Y-71369091D01*
X125622893Y-71332830D01*
X125632168Y-71307473D01*
X125634640Y-71297947D01*
X125629142Y-71285882D01*
X125613858Y-71259999D01*
X125590596Y-71223165D01*
X125561167Y-71178246D01*
X125527960Y-71128959D01*
X125494178Y-71078640D01*
X125464802Y-71033304D01*
X125441648Y-70995889D01*
X125426535Y-70969332D01*
X125421279Y-70956692D01*
X125428192Y-70944005D01*
X125447145Y-70920631D01*
X125475465Y-70889211D01*
X125510478Y-70852390D01*
X125549508Y-70812810D01*
X125589881Y-70773113D01*
X125628923Y-70735942D01*
X125663959Y-70703940D01*
X125692315Y-70679750D01*
X125711316Y-70666015D01*
X125717506Y-70663986D01*
X125729892Y-70671200D01*
X125756099Y-70688070D01*
X125793243Y-70712683D01*
X125838439Y-70743129D01*
X125888371Y-70777199D01*
X125938428Y-70811172D01*
X125983104Y-70840756D01*
X126019581Y-70864146D01*
X126045043Y-70879536D01*
X126056674Y-70885119D01*
X126056699Y-70885119D01*
X126070926Y-70881350D01*
X126099366Y-70871234D01*
X126137647Y-70856558D01*
X126181397Y-70839108D01*
X126226244Y-70820671D01*
X126267815Y-70803035D01*
X126301739Y-70787985D01*
X126323642Y-70777310D01*
X126329176Y-70773767D01*
X126333905Y-70761237D01*
X126341479Y-70731925D01*
X126351174Y-70689055D01*
X126362264Y-70635848D01*
X126374025Y-70575529D01*
X126375413Y-70568150D01*
X126412143Y-70372040D01*
X126838336Y-70372040D01*
X126875066Y-70568150D01*
G37*
%TO.C,C7*%
D14*
X143587221Y-65320000D02*
X143912779Y-65320000D01*
X143587221Y-66340000D02*
X143912779Y-66340000D01*
%TD*%
M02*
