%TF.GenerationSoftware,KiCad,Pcbnew,10.0.3*%
%TF.CreationDate,2026-06-09T18:55:56+05:30*%
%TF.ProjectId,MosaicCore HAT,4d6f7361-6963-4436-9f72-65204841542e,rev?*%
%TF.SameCoordinates,Original*%
%TF.FileFunction,Copper,L2,Inr*%
%TF.FilePolarity,Positive*%
%FSLAX46Y46*%
G04 Gerber Fmt 4.6, Leading zero omitted, Abs format (unit mm)*
G04 Created by KiCad (PCBNEW 10.0.3) date 2026-06-09 18:55:56*
%MOMM*%
%LPD*%
G01*
G04 APERTURE LIST*
%TA.AperFunction,ComponentPad*%
%ADD10O,1.200000X1.900000*%
%TD*%
%TA.AperFunction,ComponentPad*%
%ADD11C,1.450000*%
%TD*%
%TA.AperFunction,ComponentPad*%
%ADD12R,1.350000X1.350000*%
%TD*%
%TA.AperFunction,ComponentPad*%
%ADD13O,1.350000X1.350000*%
%TD*%
%TA.AperFunction,ComponentPad*%
%ADD14C,2.250000*%
%TD*%
%TA.AperFunction,ComponentPad*%
%ADD15R,1.700000X1.700000*%
%TD*%
%TA.AperFunction,ComponentPad*%
%ADD16O,1.700000X1.700000*%
%TD*%
%TA.AperFunction,ViaPad*%
%ADD17C,0.800000*%
%TD*%
G04 APERTURE END LIST*
D10*
%TO.N,GND*%
%TO.C,J3*%
X164700000Y-76500000D03*
D11*
X165700000Y-73800000D03*
X170700000Y-73800000D03*
D10*
X171700000Y-76500000D03*
%TD*%
D12*
%TO.N,+3V3*%
%TO.C,JP1*%
X128600000Y-48775000D03*
D13*
%TO.N,/VANT*%
X128600000Y-50775000D03*
%TO.N,+5V*%
X128600000Y-52775000D03*
%TD*%
D12*
%TO.N,+3V3*%
%TO.C,JP2*%
X177600000Y-68700000D03*
D13*
%TO.N,/FTDI_PWR*%
X177600000Y-66700000D03*
%TO.N,+5V*%
X177600000Y-64700000D03*
%TD*%
D14*
%TO.N,/ANT1*%
%TO.C,J1*%
X126900000Y-35814000D03*
%TO.N,GND*%
X124360000Y-38354000D03*
X129440000Y-38354000D03*
X124360000Y-33274000D03*
X129440000Y-33274000D03*
%TD*%
D15*
%TO.N,GND*%
%TO.C,J6*%
X181300000Y-56100000D03*
D16*
%TO.N,/MosaicCTS2*%
X181300000Y-58640000D03*
%TO.N,/FTDI_PWR*%
X181300000Y-61180000D03*
%TO.N,/MosaicRX2*%
X181300000Y-63720000D03*
%TO.N,/MosaicTX2*%
X181300000Y-66260000D03*
%TO.N,/MosaicRTS2*%
X181300000Y-68800000D03*
%TD*%
D15*
%TO.N,/EVENTA_3V3*%
%TO.C,J5*%
X181300000Y-44600000D03*
D16*
%TO.N,/EVENTB_3V3*%
X181300000Y-47140000D03*
%TO.N,/PPSO_3V3*%
X181300000Y-49680000D03*
%TO.N,GND*%
X181300000Y-52220000D03*
%TD*%
D15*
%TO.N,/External_5V*%
%TO.C,J7*%
X181300000Y-37560000D03*
D16*
%TO.N,GND*%
X181300000Y-40100000D03*
%TD*%
D14*
%TO.N,/ANT2*%
%TO.C,J2*%
X126900000Y-64200000D03*
%TO.N,GND*%
X124360000Y-66740000D03*
X129440000Y-66740000D03*
X124360000Y-61660000D03*
X129440000Y-61660000D03*
%TD*%
D15*
%TO.N,Net-(J4-Pad1)*%
%TO.C,J4*%
X128980000Y-26570000D03*
D16*
%TO.N,/RPI_P5V*%
X128980000Y-24030000D03*
%TO.N,Net-(J4-Pad3)*%
X131520000Y-26570000D03*
%TO.N,/RPI_P5V*%
X131520000Y-24030000D03*
%TO.N,Net-(J4-Pad5)*%
X134060000Y-26570000D03*
%TO.N,GND*%
X134060000Y-24030000D03*
%TO.N,Net-(J4-Pad7)*%
X136600000Y-26570000D03*
%TO.N,/MosaicRX1*%
X136600000Y-24030000D03*
%TO.N,GND*%
X139140000Y-26570000D03*
%TO.N,/MosaicTX1*%
X139140000Y-24030000D03*
%TO.N,Net-(J4-Pad11)*%
X141680000Y-26570000D03*
%TO.N,Net-(J4-Pad12)*%
X141680000Y-24030000D03*
%TO.N,Net-(J4-Pad13)*%
X144220000Y-26570000D03*
%TO.N,GND*%
X144220000Y-24030000D03*
%TO.N,Net-(J4-Pad15)*%
X146760000Y-26570000D03*
%TO.N,Net-(J4-Pad16)*%
X146760000Y-24030000D03*
%TO.N,Net-(J4-Pad17)*%
X149300000Y-26570000D03*
%TO.N,Net-(J4-Pad18)*%
X149300000Y-24030000D03*
%TO.N,Net-(J4-Pad19)*%
X151840000Y-26570000D03*
%TO.N,GND*%
X151840000Y-24030000D03*
%TO.N,Net-(J4-Pad21)*%
X154380000Y-26570000D03*
%TO.N,Net-(J4-Pad22)*%
X154380000Y-24030000D03*
%TO.N,Net-(J4-Pad23)*%
X156920000Y-26570000D03*
%TO.N,Net-(J4-Pad24)*%
X156920000Y-24030000D03*
%TO.N,GND*%
X159460000Y-26570000D03*
%TO.N,Net-(J4-Pad26)*%
X159460000Y-24030000D03*
%TO.N,Net-(J4-Pad27)*%
X162000000Y-26570000D03*
%TO.N,Net-(J4-Pad28)*%
X162000000Y-24030000D03*
%TO.N,/nRST_IN*%
X164540000Y-26570000D03*
%TO.N,GND*%
X164540000Y-24030000D03*
%TO.N,/RPI_GP1*%
X167080000Y-26570000D03*
%TO.N,Net-(J4-Pad32)*%
X167080000Y-24030000D03*
%TO.N,Net-(J4-Pad33)*%
X169620000Y-26570000D03*
%TO.N,GND*%
X169620000Y-24030000D03*
%TO.N,Net-(J4-Pad35)*%
X172160000Y-26570000D03*
%TO.N,Net-(J4-Pad36)*%
X172160000Y-24030000D03*
%TO.N,/RPI_GP2*%
X174700000Y-26570000D03*
%TO.N,Net-(J4-Pad38)*%
X174700000Y-24030000D03*
%TO.N,GND*%
X177240000Y-26570000D03*
%TO.N,Net-(J4-Pad40)*%
X177240000Y-24030000D03*
%TD*%
D17*
%TO.N,GND*%
X173600000Y-75800000D03*
X144775000Y-75000000D03*
X135575000Y-75050000D03*
X133400000Y-30700000D03*
X170300000Y-45400000D03*
X174500000Y-44800000D03*
X181200000Y-42200000D03*
X141800000Y-75000000D03*
X138700000Y-75000000D03*
X178100000Y-33100000D03*
X181400000Y-54200000D03*
X140250000Y-65900000D03*
X153400000Y-48050000D03*
X178450000Y-58850000D03*
X141025000Y-32875000D03*
X139150000Y-30450000D03*
X141300000Y-30450000D03*
X143200000Y-31400000D03*
X136750000Y-30450000D03*
X137450000Y-32850000D03*
X132250000Y-32200000D03*
X159500000Y-58150000D03*
X163200000Y-58150000D03*
X163250000Y-56300000D03*
X163200000Y-53700000D03*
X163200000Y-52450000D03*
X178800000Y-42500000D03*
X168750000Y-50500000D03*
X151900000Y-58250000D03*
X151800000Y-64050000D03*
X148700000Y-63050000D03*
X147400000Y-63050000D03*
X138100000Y-58150000D03*
X138050000Y-56800000D03*
X137950000Y-55600000D03*
X138050000Y-54350000D03*
X138000000Y-53100000D03*
X138050000Y-51800000D03*
X138000000Y-50550000D03*
X138050000Y-49300000D03*
X138000000Y-42950000D03*
X137950000Y-41650000D03*
X138000000Y-39100000D03*
X138000000Y-37850000D03*
X138000000Y-36550000D03*
X138000000Y-35300000D03*
X141650000Y-63100000D03*
X140450000Y-63100000D03*
X139100000Y-63100000D03*
X137950000Y-59400000D03*
X164550000Y-32950000D03*
X165800000Y-32900000D03*
X168150000Y-35300000D03*
X160700000Y-63100000D03*
X121850000Y-33200000D03*
X121850000Y-40450000D03*
X121750000Y-35750000D03*
X121850000Y-38400000D03*
X121850000Y-30950000D03*
X123800000Y-35275000D03*
X124300000Y-30900000D03*
X127500000Y-38500000D03*
X127450000Y-33100000D03*
X131550000Y-30900000D03*
X126850000Y-30800000D03*
X129450000Y-40550000D03*
X131650000Y-38350000D03*
X126950000Y-40550000D03*
X131650000Y-40550000D03*
X126400000Y-38500000D03*
X129400000Y-30850000D03*
X126350000Y-33150000D03*
X124300000Y-40550000D03*
X123825000Y-36225000D03*
X134400000Y-49900000D03*
X163550000Y-72500000D03*
X156900000Y-37850000D03*
X157900000Y-39050000D03*
X158500000Y-41950000D03*
X159650000Y-41000000D03*
X163150000Y-45400000D03*
X162850000Y-44200000D03*
X169250000Y-72150000D03*
X169375000Y-71125000D03*
X166000000Y-72050000D03*
X163525000Y-64875000D03*
X166850000Y-63975000D03*
X167625000Y-64725000D03*
X170775000Y-71975000D03*
X132400000Y-35750000D03*
X165100000Y-65750000D03*
X166075000Y-63150000D03*
X161900000Y-64350000D03*
X174675000Y-54200000D03*
X171050000Y-69325000D03*
X143000000Y-37800000D03*
X148000000Y-37800000D03*
X178950000Y-34550000D03*
X135900000Y-39300000D03*
X121850000Y-64200000D03*
X131600000Y-52000000D03*
X158700000Y-53500000D03*
X131500000Y-45500000D03*
X126450000Y-61600000D03*
X144300000Y-37800000D03*
X135800000Y-41600000D03*
X143100000Y-42900000D03*
X165850000Y-67775000D03*
X124400000Y-69000000D03*
X143000000Y-50500000D03*
X131750000Y-66800000D03*
X134200000Y-44900000D03*
X143000000Y-55600000D03*
X124400000Y-59400000D03*
X159800000Y-54700000D03*
X143000000Y-49200000D03*
X145725000Y-64675000D03*
X162000000Y-37800000D03*
X135200000Y-59200000D03*
X126950000Y-59250000D03*
X131500000Y-53950000D03*
X131750000Y-69000000D03*
X139150000Y-32825000D03*
X134400000Y-51200000D03*
X143100000Y-39100000D03*
X133450000Y-34400000D03*
X143000000Y-48000000D03*
X131400000Y-57700000D03*
X147600000Y-41900000D03*
X129500000Y-59300000D03*
X146400000Y-54800000D03*
X127600000Y-66950000D03*
X170434000Y-58928000D03*
X121950000Y-66850000D03*
X136144000Y-35052000D03*
X161900000Y-30990000D03*
X143000000Y-56900000D03*
X148000000Y-58300000D03*
X151800000Y-32850000D03*
X134300000Y-55500000D03*
X147500000Y-53700000D03*
X143100000Y-41700000D03*
X129550000Y-69000000D03*
X153725000Y-38000000D03*
X170500000Y-32600000D03*
X146300000Y-41100000D03*
X163300000Y-37800000D03*
X126500000Y-66950000D03*
X146700000Y-58300000D03*
X143100000Y-45500000D03*
X144100000Y-32650000D03*
X143000000Y-54300000D03*
X130950000Y-56675000D03*
X121950000Y-61650000D03*
X147000000Y-38500000D03*
X143000000Y-53100000D03*
X169200000Y-66625000D03*
X134900000Y-57200000D03*
X121950000Y-68900000D03*
X143000000Y-58100000D03*
X131400000Y-43300000D03*
X131500000Y-47600000D03*
X143100000Y-44200000D03*
X143100000Y-40400000D03*
X134300000Y-43000000D03*
X127550000Y-61550000D03*
X135200000Y-60700000D03*
X121950000Y-59400000D03*
X172925000Y-73300000D03*
X143000000Y-46800000D03*
X138000000Y-34000000D03*
X134400000Y-52700000D03*
X131400000Y-59350000D03*
X136906000Y-38354000D03*
X124350000Y-63600000D03*
X149300000Y-58300000D03*
X124350000Y-64850000D03*
X127050000Y-69000000D03*
X135200000Y-62100000D03*
X132700000Y-39900000D03*
X134200000Y-46200000D03*
X134300000Y-54100000D03*
X145600000Y-37800000D03*
X162750000Y-75500000D03*
X143000000Y-51800000D03*
%TO.N,+3V3*%
X170700000Y-41200000D03*
X141650000Y-66500000D03*
X134100000Y-68350000D03*
X173482000Y-61976000D03*
X157480000Y-65024000D03*
X169750000Y-36950000D03*
%TO.N,/RPI_P5V*%
X165300000Y-29625000D03*
%TO.N,/VANT*%
X136700000Y-45500000D03*
%TO.N,+1V8*%
X163200000Y-31000000D03*
X171000000Y-43200000D03*
%TO.N,/MosaicTX2*%
X170250000Y-53075000D03*
%TO.N,+5V*%
X176100000Y-31500000D03*
X174700000Y-61500000D03*
X161610000Y-67710000D03*
X147825000Y-69025000D03*
%TO.N,/MosaicRTS2*%
X170250000Y-54400000D03*
%TO.N,/RPI_GP1*%
X139950000Y-68105000D03*
%TO.N,/RPI_GP2*%
X143225000Y-68125000D03*
%TO.N,/PPSO_3V3*%
X138700000Y-70300000D03*
%TO.N,/PPSO_1V8*%
X158140000Y-30980000D03*
X170200000Y-50100000D03*
%TO.N,/EVENTB_1V8*%
X170200000Y-48800000D03*
X159470000Y-30980000D03*
%TO.N,/EVENTA_1V8*%
X160690000Y-30990000D03*
X170200000Y-47300000D03*
%TO.N,/MosaicTX1*%
X170180000Y-56388000D03*
%TO.N,/MosaicRX1*%
X171450000Y-57940000D03*
%TO.N,/nRST_IN*%
X152800000Y-65100000D03*
%TD*%
%TA.AperFunction,Conductor*%
%TO.N,GND*%
G36*
X182506979Y-21550892D02*
G01*
X182533648Y-21552389D01*
X182816285Y-21568262D01*
X182844009Y-21571385D01*
X183142549Y-21622109D01*
X183169761Y-21628320D01*
X183238781Y-21648205D01*
X183460714Y-21712143D01*
X183487070Y-21721365D01*
X183624415Y-21778255D01*
X183766824Y-21837243D01*
X183791968Y-21849351D01*
X184056994Y-21995825D01*
X184080633Y-22010679D01*
X184327575Y-22185894D01*
X184349406Y-22203304D01*
X184575183Y-22405071D01*
X184594928Y-22424816D01*
X184796695Y-22650593D01*
X184814105Y-22672424D01*
X184989320Y-22919366D01*
X185004176Y-22943009D01*
X185150643Y-23208021D01*
X185162758Y-23233179D01*
X185278634Y-23512929D01*
X185287856Y-23539285D01*
X185371677Y-23830233D01*
X185377891Y-23857456D01*
X185428612Y-24155978D01*
X185431738Y-24183725D01*
X185449108Y-24493019D01*
X185449500Y-24506981D01*
X185449500Y-74993018D01*
X185449108Y-75006979D01*
X185449108Y-75006980D01*
X185431738Y-75316274D01*
X185428612Y-75344021D01*
X185377891Y-75642543D01*
X185371677Y-75669766D01*
X185287856Y-75960714D01*
X185278634Y-75987070D01*
X185162758Y-76266820D01*
X185150643Y-76291978D01*
X185004176Y-76556990D01*
X184989320Y-76580633D01*
X184814105Y-76827575D01*
X184796695Y-76849406D01*
X184594928Y-77075183D01*
X184575183Y-77094928D01*
X184349406Y-77296695D01*
X184327575Y-77314105D01*
X184080633Y-77489320D01*
X184056990Y-77504176D01*
X183791978Y-77650643D01*
X183766820Y-77662758D01*
X183487070Y-77778634D01*
X183460714Y-77787856D01*
X183169766Y-77871677D01*
X183142543Y-77877891D01*
X182844021Y-77928612D01*
X182816274Y-77931738D01*
X182506980Y-77949108D01*
X182493018Y-77949500D01*
X123506982Y-77949500D01*
X123493020Y-77949108D01*
X123183725Y-77931738D01*
X123155978Y-77928612D01*
X122857456Y-77877891D01*
X122830233Y-77871677D01*
X122539285Y-77787856D01*
X122512929Y-77778634D01*
X122233179Y-77662758D01*
X122208021Y-77650643D01*
X121943009Y-77504176D01*
X121919366Y-77489320D01*
X121672424Y-77314105D01*
X121650593Y-77296695D01*
X121424816Y-77094928D01*
X121405071Y-77075183D01*
X121203304Y-76849406D01*
X121185894Y-76827575D01*
X121010679Y-76580633D01*
X120995823Y-76556990D01*
X120849351Y-76291968D01*
X120837241Y-76266820D01*
X120721365Y-75987070D01*
X120712143Y-75960714D01*
X120663137Y-75790611D01*
X120628320Y-75669761D01*
X120622108Y-75642543D01*
X120601176Y-75519344D01*
X120571385Y-75344009D01*
X120568262Y-75316285D01*
X120550892Y-75006979D01*
X120550500Y-74993018D01*
X120550500Y-74344771D01*
X122604138Y-74344771D01*
X122604138Y-74564504D01*
X122638508Y-74781500D01*
X122693308Y-74950160D01*
X122706404Y-74990463D01*
X122778114Y-75131202D01*
X122806154Y-75186233D01*
X122900634Y-75316273D01*
X122935296Y-75363981D01*
X123090657Y-75519342D01*
X123090660Y-75519344D01*
X123268404Y-75648483D01*
X123268406Y-75648484D01*
X123268409Y-75648486D01*
X123464175Y-75748234D01*
X123673135Y-75816129D01*
X123749459Y-75828217D01*
X123890133Y-75850499D01*
X123890140Y-75850499D01*
X123890143Y-75850500D01*
X123890146Y-75850500D01*
X124109854Y-75850500D01*
X124109857Y-75850500D01*
X124109860Y-75850499D01*
X124109866Y-75850499D01*
X124212378Y-75834262D01*
X124326865Y-75816129D01*
X124535825Y-75748234D01*
X124731591Y-75648486D01*
X124909343Y-75519342D01*
X125064704Y-75363981D01*
X125193848Y-75186229D01*
X125293596Y-74990463D01*
X125361491Y-74781503D01*
X125388676Y-74609866D01*
X125395861Y-74564504D01*
X125395862Y-74564492D01*
X125395862Y-74390133D01*
X180649500Y-74390133D01*
X180649500Y-74609866D01*
X180683870Y-74826862D01*
X180742393Y-75006980D01*
X180751766Y-75035825D01*
X180800363Y-75131202D01*
X180851516Y-75231595D01*
X180980655Y-75409339D01*
X180980658Y-75409343D01*
X181136019Y-75564704D01*
X181136022Y-75564706D01*
X181313766Y-75693845D01*
X181313768Y-75693846D01*
X181313771Y-75693848D01*
X181509537Y-75793596D01*
X181718497Y-75861491D01*
X181794821Y-75873579D01*
X181935495Y-75895861D01*
X181935502Y-75895861D01*
X181935505Y-75895862D01*
X181935508Y-75895862D01*
X182155216Y-75895862D01*
X182155219Y-75895862D01*
X182155222Y-75895861D01*
X182155228Y-75895861D01*
X182257740Y-75879624D01*
X182372227Y-75861491D01*
X182581187Y-75793596D01*
X182776953Y-75693848D01*
X182954705Y-75564704D01*
X183110066Y-75409343D01*
X183239210Y-75231591D01*
X183338958Y-75035825D01*
X183406853Y-74826865D01*
X183441224Y-74609857D01*
X183441224Y-74390143D01*
X183441223Y-74390140D01*
X183441223Y-74390133D01*
X183406853Y-74173137D01*
X183406853Y-74173135D01*
X183338958Y-73964175D01*
X183239210Y-73768409D01*
X183239208Y-73768406D01*
X183239207Y-73768404D01*
X183110068Y-73590660D01*
X183110066Y-73590657D01*
X182954705Y-73435296D01*
X182954701Y-73435293D01*
X182776957Y-73306154D01*
X182687925Y-73260790D01*
X182581187Y-73206404D01*
X182581184Y-73206403D01*
X182581182Y-73206402D01*
X182372224Y-73138508D01*
X182155228Y-73104138D01*
X182155219Y-73104138D01*
X181935505Y-73104138D01*
X181935495Y-73104138D01*
X181718499Y-73138508D01*
X181509541Y-73206402D01*
X181313766Y-73306154D01*
X181136022Y-73435293D01*
X180980655Y-73590660D01*
X180851516Y-73768404D01*
X180751764Y-73964179D01*
X180683870Y-74173137D01*
X180649500Y-74390133D01*
X125395862Y-74390133D01*
X125395862Y-74344783D01*
X125395861Y-74344771D01*
X125361491Y-74127775D01*
X125361491Y-74127773D01*
X125293596Y-73918813D01*
X125193848Y-73723047D01*
X125193846Y-73723044D01*
X125193845Y-73723042D01*
X125064706Y-73545298D01*
X125064704Y-73545295D01*
X124909343Y-73389934D01*
X124909339Y-73389931D01*
X124731595Y-73260792D01*
X124692584Y-73240915D01*
X124535825Y-73161042D01*
X124535822Y-73161041D01*
X124535820Y-73161040D01*
X124326862Y-73093146D01*
X124109866Y-73058776D01*
X124109857Y-73058776D01*
X123890143Y-73058776D01*
X123890133Y-73058776D01*
X123673137Y-73093146D01*
X123464179Y-73161040D01*
X123268404Y-73260792D01*
X123090660Y-73389931D01*
X122935293Y-73545298D01*
X122806154Y-73723042D01*
X122706402Y-73918817D01*
X122638508Y-74127775D01*
X122604138Y-74344771D01*
X120550500Y-74344771D01*
X120550500Y-70211304D01*
X137799500Y-70211304D01*
X137799500Y-70388695D01*
X137834104Y-70562659D01*
X137834105Y-70562661D01*
X137834106Y-70562666D01*
X137901987Y-70726547D01*
X138000536Y-70874035D01*
X138125965Y-70999464D01*
X138273453Y-71098013D01*
X138437334Y-71165894D01*
X138611309Y-71200500D01*
X138788691Y-71200500D01*
X138962666Y-71165894D01*
X139126547Y-71098013D01*
X139274035Y-70999464D01*
X139399464Y-70874035D01*
X139498013Y-70726547D01*
X139565894Y-70562666D01*
X139600500Y-70388691D01*
X139600500Y-70211309D01*
X139565894Y-70037334D01*
X139498013Y-69873453D01*
X139399464Y-69725965D01*
X139274035Y-69600536D01*
X139271783Y-69599031D01*
X139126549Y-69501988D01*
X139126547Y-69501987D01*
X138962666Y-69434106D01*
X138962661Y-69434105D01*
X138962659Y-69434104D01*
X138788695Y-69399500D01*
X138788691Y-69399500D01*
X138611309Y-69399500D01*
X138611304Y-69399500D01*
X138437340Y-69434104D01*
X138437336Y-69434105D01*
X138437334Y-69434106D01*
X138328080Y-69479360D01*
X138273450Y-69501988D01*
X138125968Y-69600533D01*
X138000533Y-69725968D01*
X137901988Y-69873450D01*
X137834104Y-70037340D01*
X137799500Y-70211304D01*
X120550500Y-70211304D01*
X120550500Y-68261304D01*
X133199500Y-68261304D01*
X133199500Y-68438695D01*
X133234104Y-68612659D01*
X133234105Y-68612661D01*
X133234106Y-68612666D01*
X133301987Y-68776547D01*
X133301988Y-68776549D01*
X133399853Y-68923013D01*
X133400536Y-68924035D01*
X133525965Y-69049464D01*
X133673453Y-69148013D01*
X133837334Y-69215894D01*
X134011309Y-69250500D01*
X134188691Y-69250500D01*
X134362666Y-69215894D01*
X134526547Y-69148013D01*
X134674035Y-69049464D01*
X134799464Y-68924035D01*
X134898013Y-68776547D01*
X134965894Y-68612666D01*
X135000500Y-68438691D01*
X135000500Y-68261309D01*
X134965894Y-68087334D01*
X134936473Y-68016304D01*
X139049500Y-68016304D01*
X139049500Y-68193695D01*
X139084104Y-68367659D01*
X139084105Y-68367661D01*
X139084106Y-68367666D01*
X139132192Y-68483757D01*
X139151988Y-68531549D01*
X139206189Y-68612666D01*
X139250536Y-68679035D01*
X139375965Y-68804464D01*
X139523453Y-68903013D01*
X139687334Y-68970894D01*
X139861309Y-69005500D01*
X140038691Y-69005500D01*
X140212666Y-68970894D01*
X140376547Y-68903013D01*
X140524035Y-68804464D01*
X140649464Y-68679035D01*
X140748013Y-68531547D01*
X140815894Y-68367666D01*
X140850500Y-68193691D01*
X140850500Y-68036304D01*
X142324500Y-68036304D01*
X142324500Y-68213695D01*
X142359104Y-68387659D01*
X142359105Y-68387661D01*
X142359106Y-68387666D01*
X142398908Y-68483757D01*
X142426988Y-68551549D01*
X142512172Y-68679035D01*
X142525536Y-68699035D01*
X142650965Y-68824464D01*
X142798453Y-68923013D01*
X142962334Y-68990894D01*
X143136309Y-69025500D01*
X143313691Y-69025500D01*
X143487666Y-68990894D01*
X143619459Y-68936304D01*
X146924500Y-68936304D01*
X146924500Y-69113695D01*
X146959104Y-69287659D01*
X146959105Y-69287661D01*
X146959106Y-69287666D01*
X147019762Y-69434104D01*
X147026988Y-69451549D01*
X147125533Y-69599031D01*
X147125536Y-69599035D01*
X147250965Y-69724464D01*
X147398453Y-69823013D01*
X147562334Y-69890894D01*
X147736309Y-69925500D01*
X147913691Y-69925500D01*
X148087666Y-69890894D01*
X148251547Y-69823013D01*
X148399035Y-69724464D01*
X148524464Y-69599035D01*
X148623013Y-69451547D01*
X148690894Y-69287666D01*
X148725500Y-69113691D01*
X148725500Y-68936309D01*
X148690894Y-68762334D01*
X148623013Y-68598453D01*
X148524464Y-68450965D01*
X148399035Y-68325536D01*
X148333263Y-68281588D01*
X148251549Y-68226988D01*
X148251547Y-68226987D01*
X148087666Y-68159106D01*
X148087661Y-68159105D01*
X148087659Y-68159104D01*
X147913695Y-68124500D01*
X147913691Y-68124500D01*
X147736309Y-68124500D01*
X147736304Y-68124500D01*
X147562340Y-68159104D01*
X147562336Y-68159105D01*
X147562334Y-68159106D01*
X147478840Y-68193690D01*
X147398450Y-68226988D01*
X147250968Y-68325533D01*
X147125533Y-68450968D01*
X147026988Y-68598450D01*
X147026987Y-68598453D01*
X146987530Y-68693713D01*
X146959104Y-68762340D01*
X146924500Y-68936304D01*
X143619459Y-68936304D01*
X143651547Y-68923013D01*
X143799035Y-68824464D01*
X143924464Y-68699035D01*
X144023013Y-68551547D01*
X144090894Y-68387666D01*
X144125500Y-68213691D01*
X144125500Y-68036309D01*
X144113729Y-67977134D01*
X144090895Y-67862338D01*
X144090894Y-67862336D01*
X144090894Y-67862334D01*
X144023013Y-67698453D01*
X144009649Y-67678453D01*
X143971463Y-67621304D01*
X160709500Y-67621304D01*
X160709500Y-67798695D01*
X160744104Y-67972659D01*
X160744105Y-67972661D01*
X160744106Y-67972666D01*
X160806997Y-68124500D01*
X160811988Y-68136549D01*
X160910533Y-68284031D01*
X160910536Y-68284035D01*
X161035965Y-68409464D01*
X161183453Y-68508013D01*
X161347334Y-68575894D01*
X161521309Y-68610500D01*
X161698691Y-68610500D01*
X161872666Y-68575894D01*
X162036547Y-68508013D01*
X162184035Y-68409464D01*
X162309464Y-68284035D01*
X162408013Y-68136547D01*
X162475894Y-67972666D01*
X162510500Y-67798691D01*
X162510500Y-67621309D01*
X162475894Y-67447334D01*
X162408013Y-67283453D01*
X162309464Y-67135965D01*
X162184035Y-67010536D01*
X162184031Y-67010533D01*
X162036549Y-66911988D01*
X162036547Y-66911987D01*
X161872666Y-66844106D01*
X161872661Y-66844105D01*
X161872659Y-66844104D01*
X161698695Y-66809500D01*
X161698691Y-66809500D01*
X161521309Y-66809500D01*
X161521304Y-66809500D01*
X161347340Y-66844104D01*
X161347336Y-66844105D01*
X161347334Y-66844106D01*
X161238080Y-66889360D01*
X161183450Y-66911988D01*
X161035968Y-67010533D01*
X160910533Y-67135968D01*
X160811988Y-67283450D01*
X160798466Y-67316096D01*
X160753137Y-67425533D01*
X160744104Y-67447340D01*
X160709500Y-67621304D01*
X143971463Y-67621304D01*
X143924466Y-67550968D01*
X143924464Y-67550965D01*
X143799035Y-67425536D01*
X143785726Y-67416643D01*
X143651549Y-67326988D01*
X143625270Y-67316103D01*
X143487666Y-67259106D01*
X143487661Y-67259105D01*
X143487659Y-67259104D01*
X143313695Y-67224500D01*
X143313691Y-67224500D01*
X143136309Y-67224500D01*
X143136304Y-67224500D01*
X142962340Y-67259104D01*
X142962336Y-67259105D01*
X142962334Y-67259106D01*
X142798453Y-67326987D01*
X142798451Y-67326987D01*
X142798449Y-67326989D01*
X142798446Y-67326990D01*
X142741421Y-67365093D01*
X142741414Y-67365098D01*
X142650965Y-67425536D01*
X142525536Y-67550965D01*
X142482724Y-67615037D01*
X142482719Y-67615042D01*
X142426988Y-67698451D01*
X142426987Y-67698453D01*
X142359107Y-67862333D01*
X142359104Y-67862340D01*
X142324500Y-68036304D01*
X140850500Y-68036304D01*
X140850500Y-68016309D01*
X140815894Y-67842334D01*
X140748013Y-67678453D01*
X140649464Y-67530965D01*
X140524035Y-67405536D01*
X140524031Y-67405533D01*
X140376549Y-67306988D01*
X140376547Y-67306987D01*
X140212666Y-67239106D01*
X140212661Y-67239105D01*
X140212659Y-67239104D01*
X140038695Y-67204500D01*
X140038691Y-67204500D01*
X139861309Y-67204500D01*
X139861304Y-67204500D01*
X139687340Y-67239104D01*
X139687336Y-67239105D01*
X139687334Y-67239106D01*
X139580277Y-67283450D01*
X139523450Y-67306988D01*
X139375968Y-67405533D01*
X139250533Y-67530968D01*
X139151988Y-67678450D01*
X139143703Y-67698453D01*
X139102184Y-67798691D01*
X139084104Y-67842340D01*
X139049500Y-68016304D01*
X134936473Y-68016304D01*
X134898013Y-67923453D01*
X134799464Y-67775965D01*
X134674035Y-67650536D01*
X134620915Y-67615042D01*
X134526549Y-67551988D01*
X134526547Y-67551987D01*
X134362666Y-67484106D01*
X134362661Y-67484105D01*
X134362659Y-67484104D01*
X134188695Y-67449500D01*
X134188691Y-67449500D01*
X134011309Y-67449500D01*
X134011304Y-67449500D01*
X133837340Y-67484104D01*
X133837336Y-67484105D01*
X133837334Y-67484106D01*
X133757377Y-67517225D01*
X133673450Y-67551988D01*
X133525968Y-67650533D01*
X133400533Y-67775968D01*
X133301988Y-67923450D01*
X133234104Y-68087340D01*
X133199500Y-68261304D01*
X120550500Y-68261304D01*
X120550500Y-66411304D01*
X140749500Y-66411304D01*
X140749500Y-66588695D01*
X140784104Y-66762659D01*
X140784105Y-66762661D01*
X140784106Y-66762666D01*
X140845956Y-66911987D01*
X140851988Y-66926549D01*
X140884539Y-66975264D01*
X140950536Y-67074035D01*
X141075965Y-67199464D01*
X141223453Y-67298013D01*
X141387334Y-67365894D01*
X141561309Y-67400500D01*
X141738691Y-67400500D01*
X141912666Y-67365894D01*
X142076547Y-67298013D01*
X142224035Y-67199464D01*
X142349464Y-67074035D01*
X142448013Y-66926547D01*
X142515894Y-66762666D01*
X142550500Y-66588691D01*
X142550500Y-66411309D01*
X142515894Y-66237334D01*
X142448013Y-66073453D01*
X142349464Y-65925965D01*
X142224035Y-65800536D01*
X142135814Y-65741588D01*
X142076549Y-65701988D01*
X142076547Y-65701987D01*
X141912666Y-65634106D01*
X141912661Y-65634105D01*
X141912659Y-65634104D01*
X141738695Y-65599500D01*
X141738691Y-65599500D01*
X141561309Y-65599500D01*
X141561304Y-65599500D01*
X141387340Y-65634104D01*
X141387336Y-65634105D01*
X141387334Y-65634106D01*
X141290936Y-65674035D01*
X141223450Y-65701988D01*
X141075968Y-65800533D01*
X140950533Y-65925968D01*
X140851988Y-66073450D01*
X140851987Y-66073453D01*
X140792522Y-66217017D01*
X140784104Y-66237340D01*
X140749500Y-66411304D01*
X120550500Y-66411304D01*
X120550500Y-64060687D01*
X124774500Y-64060687D01*
X124774500Y-64339312D01*
X124809805Y-64607486D01*
X124810868Y-64615554D01*
X124882981Y-64884686D01*
X124882982Y-64884689D01*
X124882983Y-64884692D01*
X124989603Y-65142096D01*
X124989605Y-65142100D01*
X124989606Y-65142102D01*
X125128919Y-65383398D01*
X125298535Y-65604447D01*
X125495553Y-65801465D01*
X125716602Y-65971081D01*
X125957898Y-66110394D01*
X126215314Y-66217019D01*
X126484446Y-66289132D01*
X126760687Y-66325500D01*
X127039313Y-66325500D01*
X127315554Y-66289132D01*
X127584686Y-66217019D01*
X127646413Y-66191450D01*
X127700543Y-66169030D01*
X127768760Y-66140772D01*
X127842102Y-66110394D01*
X128083398Y-65971081D01*
X128304447Y-65801465D01*
X128501465Y-65604447D01*
X128671081Y-65383398D01*
X128810394Y-65142102D01*
X128864572Y-65011304D01*
X151899500Y-65011304D01*
X151899500Y-65188695D01*
X151934104Y-65362659D01*
X151934105Y-65362661D01*
X151934106Y-65362666D01*
X151970508Y-65450549D01*
X152001988Y-65526549D01*
X152073856Y-65634106D01*
X152100536Y-65674035D01*
X152225965Y-65799464D01*
X152373453Y-65898013D01*
X152537334Y-65965894D01*
X152711309Y-66000500D01*
X152888691Y-66000500D01*
X153062666Y-65965894D01*
X153226547Y-65898013D01*
X153374035Y-65799464D01*
X153499464Y-65674035D01*
X153598013Y-65526547D01*
X153665894Y-65362666D01*
X153700500Y-65188691D01*
X153700500Y-65011309D01*
X153685382Y-64935304D01*
X156579500Y-64935304D01*
X156579500Y-65112695D01*
X156614104Y-65286659D01*
X156614105Y-65286661D01*
X156614106Y-65286666D01*
X156681987Y-65450547D01*
X156681988Y-65450549D01*
X156749899Y-65552184D01*
X156780536Y-65598035D01*
X156905965Y-65723464D01*
X157053453Y-65822013D01*
X157217334Y-65889894D01*
X157391309Y-65924500D01*
X157568691Y-65924500D01*
X157742666Y-65889894D01*
X157906547Y-65822013D01*
X158054035Y-65723464D01*
X158179464Y-65598035D01*
X158278013Y-65450547D01*
X158345894Y-65286666D01*
X158380500Y-65112691D01*
X158380500Y-64935309D01*
X158361012Y-64837336D01*
X158345895Y-64761338D01*
X158345894Y-64761337D01*
X158345894Y-64761334D01*
X158282165Y-64607476D01*
X176424500Y-64607476D01*
X176424500Y-64792523D01*
X176453442Y-64975253D01*
X176453447Y-64975270D01*
X176507653Y-65142102D01*
X176510621Y-65151235D01*
X176594622Y-65316096D01*
X176703379Y-65465787D01*
X176761525Y-65523933D01*
X176815499Y-65604712D01*
X176834453Y-65700000D01*
X176815499Y-65795288D01*
X176761525Y-65876066D01*
X176713093Y-65924499D01*
X176703376Y-65934216D01*
X176594624Y-66083900D01*
X176510621Y-66248764D01*
X176510617Y-66248775D01*
X176453447Y-66424729D01*
X176453442Y-66424746D01*
X176424500Y-66607476D01*
X176424500Y-66792523D01*
X176453442Y-66975253D01*
X176453447Y-66975270D01*
X176505659Y-67135965D01*
X176510621Y-67151235D01*
X176589981Y-67306988D01*
X176594626Y-67316103D01*
X176606114Y-67331915D01*
X176646789Y-67420145D01*
X176650603Y-67517225D01*
X176616976Y-67608375D01*
X176577224Y-67652039D01*
X176580047Y-67654862D01*
X176567453Y-67667455D01*
X176481204Y-67782669D01*
X176430908Y-67917518D01*
X176424500Y-67977123D01*
X176424500Y-69422865D01*
X176424500Y-69422868D01*
X176424501Y-69422872D01*
X176425709Y-69434106D01*
X176430908Y-69482480D01*
X176430909Y-69482484D01*
X176474940Y-69600536D01*
X176481204Y-69617331D01*
X176567454Y-69732546D01*
X176682669Y-69818796D01*
X176817517Y-69869091D01*
X176877127Y-69875500D01*
X178322872Y-69875499D01*
X178382483Y-69869091D01*
X178517331Y-69818796D01*
X178632546Y-69732546D01*
X178718796Y-69617331D01*
X178769091Y-69482483D01*
X178775500Y-69422873D01*
X178775499Y-67977128D01*
X178769091Y-67917517D01*
X178718796Y-67782669D01*
X178632546Y-67667454D01*
X178632542Y-67667451D01*
X178619953Y-67654862D01*
X178622967Y-67651847D01*
X178581160Y-67605285D01*
X178548857Y-67513658D01*
X178554078Y-67416643D01*
X178593889Y-67331909D01*
X178605375Y-67316100D01*
X178605374Y-67316100D01*
X178605378Y-67316096D01*
X178689379Y-67151235D01*
X178746555Y-66975264D01*
X178746557Y-66975253D01*
X178775499Y-66792523D01*
X178775500Y-66792511D01*
X178775500Y-66607488D01*
X178775499Y-66607476D01*
X178746557Y-66424746D01*
X178746556Y-66424742D01*
X178746555Y-66424736D01*
X178689379Y-66248765D01*
X178605378Y-66083904D01*
X178496621Y-65934213D01*
X178438474Y-65876066D01*
X178384501Y-65795288D01*
X178365547Y-65700000D01*
X178384501Y-65604712D01*
X178438474Y-65523933D01*
X178496621Y-65465787D01*
X178605378Y-65316096D01*
X178689379Y-65151235D01*
X178746555Y-64975264D01*
X178746557Y-64975253D01*
X178775499Y-64792523D01*
X178775500Y-64792511D01*
X178775500Y-64607488D01*
X178775499Y-64607476D01*
X178746557Y-64424746D01*
X178746556Y-64424742D01*
X178746555Y-64424736D01*
X178689379Y-64248765D01*
X178605378Y-64083904D01*
X178496621Y-63934213D01*
X178365787Y-63803379D01*
X178365783Y-63803376D01*
X178216099Y-63694624D01*
X178216098Y-63694623D01*
X178216096Y-63694622D01*
X178051235Y-63610621D01*
X178051224Y-63610617D01*
X177875270Y-63553447D01*
X177875271Y-63553447D01*
X177875264Y-63553445D01*
X177875262Y-63553444D01*
X177875253Y-63553442D01*
X177692523Y-63524500D01*
X177692514Y-63524500D01*
X177507486Y-63524500D01*
X177507476Y-63524500D01*
X177324746Y-63553442D01*
X177324729Y-63553447D01*
X177148775Y-63610617D01*
X177148764Y-63610621D01*
X176983900Y-63694624D01*
X176834216Y-63803376D01*
X176703376Y-63934216D01*
X176594624Y-64083900D01*
X176510621Y-64248764D01*
X176510617Y-64248775D01*
X176453447Y-64424729D01*
X176453442Y-64424746D01*
X176424500Y-64607476D01*
X158282165Y-64607476D01*
X158278013Y-64597453D01*
X158179464Y-64449965D01*
X158054035Y-64324536D01*
X158020290Y-64301988D01*
X157906549Y-64225988D01*
X157906547Y-64225987D01*
X157742666Y-64158106D01*
X157742661Y-64158105D01*
X157742659Y-64158104D01*
X157568695Y-64123500D01*
X157568691Y-64123500D01*
X157391309Y-64123500D01*
X157391304Y-64123500D01*
X157217340Y-64158104D01*
X157217336Y-64158105D01*
X157217334Y-64158106D01*
X157117399Y-64199500D01*
X157053450Y-64225988D01*
X156905968Y-64324533D01*
X156780533Y-64449968D01*
X156681988Y-64597450D01*
X156681987Y-64597453D01*
X156618759Y-64750102D01*
X156614104Y-64761340D01*
X156579500Y-64935304D01*
X153685382Y-64935304D01*
X153665894Y-64837334D01*
X153598013Y-64673453D01*
X153499464Y-64525965D01*
X153374035Y-64400536D01*
X153282409Y-64339313D01*
X153226549Y-64301988D01*
X153226547Y-64301987D01*
X153062666Y-64234106D01*
X153062661Y-64234105D01*
X153062659Y-64234104D01*
X152888695Y-64199500D01*
X152888691Y-64199500D01*
X152711309Y-64199500D01*
X152711304Y-64199500D01*
X152537340Y-64234104D01*
X152537336Y-64234105D01*
X152537334Y-64234106D01*
X152501944Y-64248765D01*
X152373450Y-64301988D01*
X152225968Y-64400533D01*
X152100533Y-64525968D01*
X152001988Y-64673450D01*
X152001987Y-64673453D01*
X151965584Y-64761340D01*
X151934104Y-64837340D01*
X151899500Y-65011304D01*
X128864572Y-65011304D01*
X128896050Y-64935309D01*
X128909107Y-64903788D01*
X128909108Y-64903786D01*
X128917016Y-64884694D01*
X128917016Y-64884692D01*
X128917019Y-64884686D01*
X128989132Y-64615554D01*
X129025500Y-64339313D01*
X129025500Y-64060687D01*
X128989132Y-63784446D01*
X128917019Y-63515314D01*
X128810394Y-63257898D01*
X128671081Y-63016602D01*
X128501465Y-62795553D01*
X128304447Y-62598535D01*
X128083398Y-62428919D01*
X128052446Y-62411049D01*
X127842100Y-62289605D01*
X127842096Y-62289603D01*
X127584692Y-62182983D01*
X127584689Y-62182982D01*
X127584687Y-62182981D01*
X127584686Y-62182981D01*
X127333179Y-62115590D01*
X127333178Y-62115590D01*
X127315559Y-62110869D01*
X127315550Y-62110867D01*
X127039313Y-62074500D01*
X126760687Y-62074500D01*
X126484450Y-62110867D01*
X126484446Y-62110867D01*
X126484446Y-62110868D01*
X126466823Y-62115590D01*
X126215310Y-62182982D01*
X126215307Y-62182983D01*
X125957903Y-62289603D01*
X125957899Y-62289605D01*
X125716606Y-62428916D01*
X125495550Y-62598537D01*
X125298537Y-62795550D01*
X125128916Y-63016606D01*
X124989605Y-63257899D01*
X124989603Y-63257903D01*
X124882983Y-63515307D01*
X124882982Y-63515310D01*
X124882981Y-63515314D01*
X124834936Y-63694624D01*
X124810867Y-63784450D01*
X124774500Y-64060687D01*
X120550500Y-64060687D01*
X120550500Y-61887304D01*
X172581500Y-61887304D01*
X172581500Y-62064695D01*
X172616104Y-62238659D01*
X172616105Y-62238661D01*
X172616106Y-62238666D01*
X172672590Y-62375031D01*
X172683988Y-62402549D01*
X172736348Y-62480910D01*
X172782536Y-62550035D01*
X172907965Y-62675464D01*
X173055453Y-62774013D01*
X173219334Y-62841894D01*
X173393309Y-62876500D01*
X173570691Y-62876500D01*
X173744666Y-62841894D01*
X173908547Y-62774013D01*
X174056035Y-62675464D01*
X174181464Y-62550035D01*
X174227654Y-62480906D01*
X174296350Y-62412211D01*
X174386109Y-62375031D01*
X174483263Y-62375030D01*
X174483264Y-62375030D01*
X174483266Y-62375031D01*
X174567938Y-62391873D01*
X174611309Y-62400500D01*
X174788691Y-62400500D01*
X174962666Y-62365894D01*
X175126547Y-62298013D01*
X175274035Y-62199464D01*
X175399464Y-62074035D01*
X175498013Y-61926547D01*
X175565894Y-61762666D01*
X175600500Y-61588691D01*
X175600500Y-61411309D01*
X175565894Y-61237334D01*
X175498013Y-61073453D01*
X175399464Y-60925965D01*
X175274035Y-60800536D01*
X175274031Y-60800533D01*
X175126549Y-60701988D01*
X175126547Y-60701987D01*
X174962666Y-60634106D01*
X174962661Y-60634105D01*
X174962659Y-60634104D01*
X174788695Y-60599500D01*
X174788691Y-60599500D01*
X174611309Y-60599500D01*
X174611304Y-60599500D01*
X174437340Y-60634104D01*
X174437336Y-60634105D01*
X174437334Y-60634106D01*
X174328080Y-60679360D01*
X174273450Y-60701988D01*
X174125968Y-60800533D01*
X174000531Y-60925970D01*
X173954343Y-60995094D01*
X173885643Y-61063791D01*
X173795883Y-61100969D01*
X173698733Y-61100969D01*
X173643695Y-61090021D01*
X173570691Y-61075500D01*
X173393309Y-61075500D01*
X173393304Y-61075500D01*
X173219340Y-61110104D01*
X173219336Y-61110105D01*
X173219334Y-61110106D01*
X173110080Y-61155360D01*
X173055450Y-61177988D01*
X172907968Y-61276533D01*
X172782533Y-61401968D01*
X172683988Y-61549450D01*
X172616104Y-61713340D01*
X172581500Y-61887304D01*
X120550500Y-61887304D01*
X120550500Y-59510866D01*
X120551446Y-59489186D01*
X120563027Y-59356808D01*
X120570559Y-59314094D01*
X120602127Y-59196280D01*
X120616962Y-59155520D01*
X120668508Y-59044980D01*
X120690201Y-59007409D01*
X120760146Y-58907517D01*
X120788036Y-58874277D01*
X120874277Y-58788036D01*
X120907517Y-58760146D01*
X121007409Y-58690201D01*
X121044980Y-58668508D01*
X121155520Y-58616962D01*
X121196280Y-58602127D01*
X121314094Y-58570559D01*
X121356808Y-58563027D01*
X121489186Y-58551446D01*
X121510866Y-58550500D01*
X124591909Y-58550500D01*
X124772919Y-58518584D01*
X124772923Y-58518582D01*
X124772928Y-58518582D01*
X124772932Y-58518580D01*
X124772934Y-58518580D01*
X124822564Y-58500515D01*
X124945657Y-58455714D01*
X125104844Y-58363807D01*
X125245654Y-58245654D01*
X125363807Y-58104844D01*
X125455714Y-57945657D01*
X125518582Y-57772928D01*
X125520826Y-57760206D01*
X125550500Y-57591908D01*
X125550500Y-56299304D01*
X169279500Y-56299304D01*
X169279500Y-56476695D01*
X169314104Y-56650659D01*
X169314105Y-56650661D01*
X169314106Y-56650666D01*
X169381987Y-56814547D01*
X169480536Y-56962035D01*
X169605965Y-57087464D01*
X169753453Y-57186013D01*
X169917334Y-57253894D01*
X170091309Y-57288500D01*
X170268691Y-57288500D01*
X170331054Y-57276094D01*
X170428206Y-57276094D01*
X170517966Y-57313272D01*
X170586665Y-57381971D01*
X170623846Y-57471730D01*
X170623847Y-57568885D01*
X170609678Y-57615595D01*
X170584106Y-57677333D01*
X170584104Y-57677338D01*
X170549500Y-57851304D01*
X170549500Y-58028695D01*
X170584104Y-58202659D01*
X170584105Y-58202661D01*
X170584106Y-58202666D01*
X170633656Y-58322291D01*
X170651988Y-58366549D01*
X170750533Y-58514031D01*
X170750536Y-58514035D01*
X170875965Y-58639464D01*
X171023453Y-58738013D01*
X171187334Y-58805894D01*
X171361309Y-58840500D01*
X171538691Y-58840500D01*
X171712666Y-58805894D01*
X171876547Y-58738013D01*
X172024035Y-58639464D01*
X172129796Y-58533703D01*
X179949500Y-58533703D01*
X179949500Y-58746296D01*
X179982753Y-58956240D01*
X180047500Y-59155512D01*
X180048443Y-59158412D01*
X180144949Y-59347816D01*
X180255517Y-59500000D01*
X180269897Y-59519793D01*
X180420207Y-59670103D01*
X180473131Y-59708555D01*
X180539080Y-59779899D01*
X180572707Y-59871049D01*
X180568892Y-59968129D01*
X180528217Y-60056359D01*
X180473131Y-60111445D01*
X180420207Y-60149896D01*
X180269897Y-60300206D01*
X180144950Y-60472182D01*
X180048441Y-60661592D01*
X179982753Y-60863759D01*
X179949500Y-61073703D01*
X179949500Y-61286296D01*
X179982753Y-61496240D01*
X180012793Y-61588695D01*
X180048443Y-61698412D01*
X180144691Y-61887309D01*
X180144950Y-61887817D01*
X180269897Y-62059793D01*
X180420207Y-62210103D01*
X180473131Y-62248555D01*
X180539080Y-62319899D01*
X180572707Y-62411049D01*
X180568892Y-62508129D01*
X180528217Y-62596359D01*
X180473131Y-62651445D01*
X180420207Y-62689896D01*
X180269897Y-62840206D01*
X180144950Y-63012182D01*
X180048441Y-63201592D01*
X179982753Y-63403759D01*
X179949500Y-63613703D01*
X179949500Y-63826296D01*
X179982753Y-64036240D01*
X180044405Y-64225987D01*
X180048443Y-64238412D01*
X180144949Y-64427816D01*
X180268195Y-64597450D01*
X180269897Y-64599793D01*
X180420207Y-64750103D01*
X180473131Y-64788555D01*
X180539080Y-64859899D01*
X180572707Y-64951049D01*
X180568892Y-65048129D01*
X180528217Y-65136359D01*
X180473131Y-65191445D01*
X180420207Y-65229896D01*
X180269897Y-65380206D01*
X180144950Y-65552182D01*
X180048441Y-65741592D01*
X179982753Y-65943759D01*
X179949500Y-66153703D01*
X179949500Y-66366296D01*
X179982753Y-66576240D01*
X180043326Y-66762666D01*
X180048443Y-66778412D01*
X180144949Y-66967816D01*
X180175985Y-67010533D01*
X180269897Y-67139793D01*
X180420207Y-67290103D01*
X180473131Y-67328555D01*
X180539080Y-67399899D01*
X180572707Y-67491049D01*
X180568892Y-67588129D01*
X180528217Y-67676359D01*
X180473131Y-67731445D01*
X180420207Y-67769896D01*
X180269897Y-67920206D01*
X180144950Y-68092182D01*
X180048441Y-68281592D01*
X179982753Y-68483759D01*
X179949500Y-68693703D01*
X179949500Y-68906296D01*
X179982753Y-69116240D01*
X180038450Y-69287659D01*
X180048443Y-69318412D01*
X180144949Y-69507816D01*
X180269896Y-69679792D01*
X180420208Y-69830104D01*
X180592184Y-69955051D01*
X180781588Y-70051557D01*
X180983757Y-70117246D01*
X181057601Y-70128941D01*
X181193703Y-70150499D01*
X181193710Y-70150499D01*
X181193713Y-70150500D01*
X181193716Y-70150500D01*
X181406284Y-70150500D01*
X181406287Y-70150500D01*
X181406290Y-70150499D01*
X181406296Y-70150499D01*
X181505476Y-70134789D01*
X181616243Y-70117246D01*
X181818412Y-70051557D01*
X182007816Y-69955051D01*
X182179792Y-69830104D01*
X182330104Y-69679792D01*
X182455051Y-69507816D01*
X182551557Y-69318412D01*
X182617246Y-69116243D01*
X182637099Y-68990895D01*
X182650499Y-68906296D01*
X182650500Y-68906284D01*
X182650500Y-68693715D01*
X182650499Y-68693703D01*
X182627983Y-68551547D01*
X182617246Y-68483757D01*
X182551557Y-68281588D01*
X182455051Y-68092184D01*
X182330104Y-67920208D01*
X182179792Y-67769896D01*
X182126867Y-67731444D01*
X182060920Y-67660103D01*
X182027293Y-67568953D01*
X182031107Y-67471873D01*
X182071781Y-67383642D01*
X182126867Y-67328555D01*
X182179792Y-67290104D01*
X182330104Y-67139792D01*
X182455051Y-66967816D01*
X182551557Y-66778412D01*
X182617246Y-66576243D01*
X182650500Y-66366287D01*
X182650500Y-66153713D01*
X182650499Y-66153710D01*
X182650499Y-66153703D01*
X182617246Y-65943759D01*
X182617246Y-65943757D01*
X182551557Y-65741588D01*
X182455051Y-65552184D01*
X182330104Y-65380208D01*
X182179792Y-65229896D01*
X182126867Y-65191444D01*
X182060920Y-65120103D01*
X182027293Y-65028953D01*
X182031107Y-64931873D01*
X182071781Y-64843642D01*
X182126867Y-64788555D01*
X182179792Y-64750104D01*
X182330104Y-64599792D01*
X182455051Y-64427816D01*
X182551557Y-64238412D01*
X182617246Y-64036243D01*
X182650500Y-63826287D01*
X182650500Y-63613713D01*
X182650499Y-63613710D01*
X182650499Y-63613703D01*
X182617246Y-63403759D01*
X182617246Y-63403757D01*
X182551557Y-63201588D01*
X182455051Y-63012184D01*
X182330104Y-62840208D01*
X182179792Y-62689896D01*
X182126867Y-62651444D01*
X182060920Y-62580103D01*
X182027293Y-62488953D01*
X182031107Y-62391873D01*
X182071781Y-62303642D01*
X182126867Y-62248555D01*
X182179792Y-62210104D01*
X182330104Y-62059792D01*
X182455051Y-61887816D01*
X182551557Y-61698412D01*
X182617246Y-61496243D01*
X182650500Y-61286287D01*
X182650500Y-61073713D01*
X182650499Y-61073710D01*
X182650499Y-61073703D01*
X182617246Y-60863759D01*
X182617246Y-60863757D01*
X182551557Y-60661588D01*
X182455051Y-60472184D01*
X182330104Y-60300208D01*
X182179792Y-60149896D01*
X182126867Y-60111444D01*
X182060920Y-60040103D01*
X182027293Y-59948953D01*
X182031107Y-59851873D01*
X182071781Y-59763642D01*
X182126867Y-59708555D01*
X182179792Y-59670104D01*
X182330104Y-59519792D01*
X182455051Y-59347816D01*
X182551557Y-59158412D01*
X182617246Y-58956243D01*
X182646326Y-58772641D01*
X182650499Y-58746296D01*
X182650500Y-58746284D01*
X182650500Y-58533715D01*
X182650499Y-58533703D01*
X182617246Y-58323759D01*
X182617246Y-58323757D01*
X182551557Y-58121588D01*
X182455051Y-57932184D01*
X182330104Y-57760208D01*
X182179792Y-57609896D01*
X182007816Y-57484949D01*
X181818412Y-57388443D01*
X181818409Y-57388442D01*
X181818407Y-57388441D01*
X181616240Y-57322753D01*
X181406296Y-57289500D01*
X181406287Y-57289500D01*
X181193713Y-57289500D01*
X181193703Y-57289500D01*
X180983759Y-57322753D01*
X180781592Y-57388441D01*
X180592182Y-57484950D01*
X180420206Y-57609897D01*
X180269897Y-57760206D01*
X180203708Y-57851309D01*
X180144949Y-57932184D01*
X180056975Y-58104844D01*
X180048441Y-58121592D01*
X179982753Y-58323759D01*
X179949500Y-58533703D01*
X172129796Y-58533703D01*
X172149464Y-58514035D01*
X172248013Y-58366547D01*
X172315894Y-58202666D01*
X172350500Y-58028691D01*
X172350500Y-57851309D01*
X172315894Y-57677334D01*
X172248013Y-57513453D01*
X172149464Y-57365965D01*
X172024035Y-57240536D01*
X172024031Y-57240533D01*
X171876549Y-57141988D01*
X171876547Y-57141987D01*
X171712666Y-57074106D01*
X171712661Y-57074105D01*
X171712659Y-57074104D01*
X171538695Y-57039500D01*
X171538691Y-57039500D01*
X171361309Y-57039500D01*
X171333612Y-57045009D01*
X171298944Y-57051905D01*
X171201789Y-57051904D01*
X171112030Y-57014724D01*
X171043331Y-56946025D01*
X171006152Y-56856265D01*
X171006153Y-56759110D01*
X171020319Y-56712408D01*
X171045894Y-56650666D01*
X171080500Y-56476691D01*
X171080500Y-56299309D01*
X171045894Y-56125334D01*
X170978013Y-55961453D01*
X170879464Y-55813965D01*
X170754035Y-55688536D01*
X170754031Y-55688533D01*
X170754030Y-55688532D01*
X170754031Y-55688532D01*
X170657160Y-55623805D01*
X170588461Y-55555106D01*
X170551282Y-55465346D01*
X170551283Y-55368191D01*
X170588463Y-55278432D01*
X170657162Y-55209733D01*
X170675067Y-55199001D01*
X170676543Y-55198014D01*
X170676547Y-55198013D01*
X170824035Y-55099464D01*
X170949464Y-54974035D01*
X171048013Y-54826547D01*
X171115894Y-54662666D01*
X171150500Y-54488691D01*
X171150500Y-54311309D01*
X171115894Y-54137334D01*
X171048013Y-53973453D01*
X171048010Y-53973449D01*
X171048011Y-53973449D01*
X170982788Y-53875838D01*
X170945608Y-53786079D01*
X170945607Y-53688924D01*
X170982784Y-53599167D01*
X171048013Y-53501547D01*
X171115894Y-53337666D01*
X171150500Y-53163691D01*
X171150500Y-52986309D01*
X171115894Y-52812334D01*
X171048013Y-52648453D01*
X170949464Y-52500965D01*
X170824035Y-52375536D01*
X170746555Y-52323765D01*
X170676549Y-52276988D01*
X170676547Y-52276987D01*
X170512666Y-52209106D01*
X170512661Y-52209105D01*
X170512659Y-52209104D01*
X170338695Y-52174500D01*
X170338691Y-52174500D01*
X170161309Y-52174500D01*
X170161304Y-52174500D01*
X169987340Y-52209104D01*
X169987336Y-52209105D01*
X169987334Y-52209106D01*
X169878080Y-52254360D01*
X169823450Y-52276988D01*
X169675968Y-52375533D01*
X169550533Y-52500968D01*
X169451988Y-52648450D01*
X169384104Y-52812340D01*
X169349500Y-52986304D01*
X169349500Y-53163695D01*
X169384104Y-53337659D01*
X169384105Y-53337661D01*
X169384106Y-53337666D01*
X169451987Y-53501547D01*
X169451988Y-53501549D01*
X169517212Y-53599163D01*
X169554392Y-53688922D01*
X169554392Y-53786077D01*
X169517212Y-53875837D01*
X169451988Y-53973450D01*
X169384104Y-54137340D01*
X169349500Y-54311304D01*
X169349500Y-54488695D01*
X169384104Y-54662659D01*
X169384105Y-54662661D01*
X169384106Y-54662666D01*
X169451987Y-54826547D01*
X169550536Y-54974035D01*
X169675965Y-55099464D01*
X169675968Y-55099466D01*
X169675969Y-55099467D01*
X169772839Y-55164194D01*
X169841537Y-55232893D01*
X169878717Y-55322652D01*
X169878716Y-55419807D01*
X169841536Y-55509567D01*
X169772837Y-55578265D01*
X169754940Y-55588993D01*
X169605968Y-55688533D01*
X169480533Y-55813968D01*
X169381988Y-55961450D01*
X169314104Y-56125340D01*
X169279500Y-56299304D01*
X125550500Y-56299304D01*
X125550500Y-48052123D01*
X127424500Y-48052123D01*
X127424500Y-49497865D01*
X127424500Y-49497868D01*
X127424501Y-49497872D01*
X127424577Y-49498577D01*
X127430908Y-49557480D01*
X127430909Y-49557484D01*
X127474163Y-49673453D01*
X127481204Y-49692331D01*
X127567454Y-49807546D01*
X127567457Y-49807548D01*
X127580047Y-49820138D01*
X127577030Y-49823154D01*
X127618810Y-49869664D01*
X127651134Y-49961284D01*
X127645936Y-50058300D01*
X127606117Y-50143080D01*
X127594626Y-50158895D01*
X127510621Y-50323764D01*
X127510617Y-50323775D01*
X127453447Y-50499729D01*
X127453442Y-50499746D01*
X127424500Y-50682476D01*
X127424500Y-50867523D01*
X127453442Y-51050253D01*
X127453444Y-51050262D01*
X127453445Y-51050264D01*
X127510621Y-51226235D01*
X127594622Y-51391096D01*
X127703379Y-51540787D01*
X127761525Y-51598933D01*
X127815499Y-51679712D01*
X127834453Y-51775000D01*
X127815499Y-51870288D01*
X127761525Y-51951066D01*
X127703379Y-52009213D01*
X127703376Y-52009216D01*
X127594624Y-52158900D01*
X127510621Y-52323764D01*
X127510617Y-52323775D01*
X127453447Y-52499729D01*
X127453442Y-52499746D01*
X127424500Y-52682476D01*
X127424500Y-52867523D01*
X127453442Y-53050253D01*
X127453447Y-53050270D01*
X127490300Y-53163695D01*
X127510621Y-53226235D01*
X127594622Y-53391096D01*
X127703379Y-53540787D01*
X127834213Y-53671621D01*
X127983904Y-53780378D01*
X128148765Y-53864379D01*
X128324736Y-53921555D01*
X128324742Y-53921556D01*
X128324746Y-53921557D01*
X128507476Y-53950499D01*
X128507483Y-53950499D01*
X128507486Y-53950500D01*
X128507489Y-53950500D01*
X128692511Y-53950500D01*
X128692514Y-53950500D01*
X128692517Y-53950499D01*
X128692523Y-53950499D01*
X128875253Y-53921557D01*
X128875254Y-53921556D01*
X128875264Y-53921555D01*
X129051235Y-53864379D01*
X129216096Y-53780378D01*
X129365787Y-53671621D01*
X129496621Y-53540787D01*
X129605378Y-53391096D01*
X129689379Y-53226235D01*
X129746555Y-53050264D01*
X129756685Y-52986309D01*
X129775499Y-52867523D01*
X129775500Y-52867511D01*
X129775500Y-52682488D01*
X129775499Y-52682476D01*
X129746557Y-52499746D01*
X129746556Y-52499742D01*
X129746555Y-52499736D01*
X129689379Y-52323765D01*
X129605378Y-52158904D01*
X129496621Y-52009213D01*
X129438474Y-51951066D01*
X129384501Y-51870288D01*
X129365547Y-51775000D01*
X129384501Y-51679712D01*
X129438474Y-51598933D01*
X129496621Y-51540787D01*
X129605378Y-51391096D01*
X129689379Y-51226235D01*
X129746555Y-51050264D01*
X129746557Y-51050253D01*
X129775499Y-50867523D01*
X129775500Y-50867511D01*
X129775500Y-50682488D01*
X129775499Y-50682476D01*
X129746557Y-50499746D01*
X129746556Y-50499742D01*
X129746555Y-50499736D01*
X129689379Y-50323765D01*
X129605378Y-50158904D01*
X129605376Y-50158901D01*
X129605375Y-50158899D01*
X129593886Y-50143086D01*
X129553210Y-50054855D01*
X129549395Y-49957775D01*
X129583022Y-49866625D01*
X129622809Y-49822994D01*
X129619953Y-49820138D01*
X129632538Y-49807551D01*
X129632546Y-49807546D01*
X129718796Y-49692331D01*
X129769091Y-49557483D01*
X129775500Y-49497873D01*
X129775499Y-48052128D01*
X129769091Y-47992517D01*
X129718796Y-47857669D01*
X129632546Y-47742454D01*
X129517331Y-47656204D01*
X129437117Y-47626286D01*
X129382481Y-47605908D01*
X129322873Y-47599500D01*
X127877134Y-47599500D01*
X127877130Y-47599500D01*
X127877128Y-47599501D01*
X127864314Y-47600878D01*
X127817519Y-47605908D01*
X127817515Y-47605909D01*
X127682670Y-47656203D01*
X127567455Y-47742453D01*
X127567453Y-47742455D01*
X127481204Y-47857669D01*
X127430908Y-47992518D01*
X127424500Y-48052123D01*
X125550500Y-48052123D01*
X125550500Y-47211304D01*
X169299500Y-47211304D01*
X169299500Y-47388695D01*
X169334104Y-47562659D01*
X169334105Y-47562661D01*
X169334106Y-47562666D01*
X169373763Y-47658407D01*
X169401988Y-47726549D01*
X169500534Y-47874033D01*
X169508295Y-47883489D01*
X169507341Y-47884271D01*
X169554408Y-47954712D01*
X169573362Y-48050000D01*
X169554408Y-48145288D01*
X169507341Y-48215728D01*
X169508295Y-48216511D01*
X169500534Y-48225966D01*
X169401988Y-48373450D01*
X169401987Y-48373453D01*
X169362772Y-48468129D01*
X169334104Y-48537340D01*
X169299500Y-48711304D01*
X169299500Y-48888695D01*
X169334104Y-49062659D01*
X169334105Y-49062661D01*
X169334106Y-49062666D01*
X169401987Y-49226547D01*
X169401988Y-49226549D01*
X169458860Y-49311663D01*
X169496039Y-49401422D01*
X169496040Y-49498577D01*
X169458860Y-49588337D01*
X169401988Y-49673450D01*
X169379360Y-49728080D01*
X169339980Y-49823154D01*
X169334104Y-49837340D01*
X169299500Y-50011304D01*
X169299500Y-50188695D01*
X169334104Y-50362659D01*
X169334105Y-50362661D01*
X169334106Y-50362666D01*
X169390879Y-50499729D01*
X169401988Y-50526549D01*
X169424201Y-50559793D01*
X169500536Y-50674035D01*
X169625965Y-50799464D01*
X169773453Y-50898013D01*
X169937334Y-50965894D01*
X170111309Y-51000500D01*
X170288691Y-51000500D01*
X170462666Y-50965894D01*
X170626547Y-50898013D01*
X170774035Y-50799464D01*
X170899464Y-50674035D01*
X170998013Y-50526547D01*
X171065894Y-50362666D01*
X171100500Y-50188691D01*
X171100500Y-50011309D01*
X171065894Y-49837334D01*
X170998013Y-49673453D01*
X170941137Y-49588334D01*
X170903960Y-49498580D01*
X170903959Y-49401425D01*
X170941137Y-49311667D01*
X170998013Y-49226547D01*
X171065894Y-49062666D01*
X171100500Y-48888691D01*
X171100500Y-48711309D01*
X171065894Y-48537334D01*
X170998013Y-48373453D01*
X170899464Y-48225965D01*
X170891705Y-48216511D01*
X170892658Y-48215728D01*
X170845592Y-48145288D01*
X170826638Y-48050000D01*
X170845592Y-47954712D01*
X170892658Y-47884271D01*
X170891705Y-47883489D01*
X170899460Y-47874038D01*
X170899464Y-47874035D01*
X170998013Y-47726547D01*
X171065894Y-47562666D01*
X171100500Y-47388691D01*
X171100500Y-47211309D01*
X171065894Y-47037334D01*
X170998013Y-46873453D01*
X170899464Y-46725965D01*
X170774035Y-46600536D01*
X170774031Y-46600533D01*
X170626549Y-46501988D01*
X170626547Y-46501987D01*
X170462666Y-46434106D01*
X170462661Y-46434105D01*
X170462659Y-46434104D01*
X170288695Y-46399500D01*
X170288691Y-46399500D01*
X170111309Y-46399500D01*
X170111304Y-46399500D01*
X169937340Y-46434104D01*
X169937336Y-46434105D01*
X169937334Y-46434106D01*
X169828080Y-46479360D01*
X169773450Y-46501988D01*
X169625968Y-46600533D01*
X169500533Y-46725968D01*
X169401988Y-46873450D01*
X169334104Y-47037340D01*
X169299500Y-47211304D01*
X125550500Y-47211304D01*
X125550500Y-45411304D01*
X135799500Y-45411304D01*
X135799500Y-45588695D01*
X135834104Y-45762659D01*
X135834105Y-45762661D01*
X135834106Y-45762666D01*
X135892842Y-45904469D01*
X135901988Y-45926549D01*
X135974399Y-46034919D01*
X136000536Y-46074035D01*
X136125965Y-46199464D01*
X136273453Y-46298013D01*
X136437334Y-46365894D01*
X136611309Y-46400500D01*
X136788691Y-46400500D01*
X136962666Y-46365894D01*
X137126547Y-46298013D01*
X137274035Y-46199464D01*
X137399464Y-46074035D01*
X137498013Y-45926547D01*
X137565894Y-45762666D01*
X137600500Y-45588691D01*
X137600500Y-45411309D01*
X137565894Y-45237334D01*
X137498013Y-45073453D01*
X137399464Y-44925965D01*
X137274035Y-44800536D01*
X137274031Y-44800533D01*
X137126549Y-44701988D01*
X137126547Y-44701987D01*
X136962666Y-44634106D01*
X136962661Y-44634105D01*
X136962659Y-44634104D01*
X136788695Y-44599500D01*
X136788691Y-44599500D01*
X136611309Y-44599500D01*
X136611304Y-44599500D01*
X136437340Y-44634104D01*
X136437336Y-44634105D01*
X136437334Y-44634106D01*
X136328080Y-44679360D01*
X136273450Y-44701988D01*
X136125968Y-44800533D01*
X136000533Y-44925968D01*
X135901988Y-45073450D01*
X135834104Y-45237340D01*
X135799500Y-45411304D01*
X125550500Y-45411304D01*
X125550500Y-42408091D01*
X125518584Y-42227080D01*
X125518580Y-42227065D01*
X125455715Y-42054346D01*
X125455714Y-42054343D01*
X125363807Y-41895156D01*
X125359206Y-41889673D01*
X125245659Y-41754352D01*
X125245654Y-41754346D01*
X125245647Y-41754340D01*
X125104847Y-41636195D01*
X125088140Y-41626549D01*
X124945657Y-41544286D01*
X124945655Y-41544285D01*
X124945653Y-41544284D01*
X124772934Y-41481419D01*
X124772919Y-41481415D01*
X124591909Y-41449500D01*
X124591907Y-41449500D01*
X124520918Y-41449500D01*
X121510866Y-41449500D01*
X121489165Y-41448552D01*
X121464911Y-41446430D01*
X121356821Y-41436973D01*
X121314083Y-41429437D01*
X121196290Y-41397875D01*
X121155512Y-41383033D01*
X121044990Y-41331496D01*
X121007400Y-41309792D01*
X121002596Y-41306428D01*
X120997766Y-41303046D01*
X120997764Y-41303045D01*
X120907517Y-41239853D01*
X120874271Y-41211957D01*
X120788042Y-41125728D01*
X120775939Y-41111304D01*
X169799500Y-41111304D01*
X169799500Y-41288695D01*
X169834104Y-41462659D01*
X169834105Y-41462661D01*
X169834106Y-41462666D01*
X169867913Y-41544284D01*
X169901988Y-41626549D01*
X170000533Y-41774031D01*
X170000536Y-41774035D01*
X170125965Y-41899464D01*
X170273453Y-41998013D01*
X170401489Y-42051046D01*
X170482266Y-42105020D01*
X170536243Y-42185801D01*
X170555198Y-42281089D01*
X170536245Y-42376378D01*
X170482269Y-42457159D01*
X170444539Y-42488124D01*
X170425970Y-42500531D01*
X170300533Y-42625968D01*
X170201988Y-42773450D01*
X170134104Y-42937340D01*
X170099500Y-43111304D01*
X170099500Y-43288695D01*
X170134104Y-43462659D01*
X170134105Y-43462661D01*
X170134106Y-43462666D01*
X170191062Y-43600171D01*
X170201988Y-43626549D01*
X170252488Y-43702127D01*
X170300536Y-43774035D01*
X170425965Y-43899464D01*
X170573453Y-43998013D01*
X170737334Y-44065894D01*
X170911309Y-44100500D01*
X171088691Y-44100500D01*
X171262666Y-44065894D01*
X171426547Y-43998013D01*
X171574035Y-43899464D01*
X171699464Y-43774035D01*
X171747514Y-43702123D01*
X179949500Y-43702123D01*
X179949500Y-45497865D01*
X179949500Y-45497868D01*
X179949501Y-45497872D01*
X179951567Y-45517093D01*
X179955908Y-45557480D01*
X179955909Y-45557484D01*
X179967550Y-45588695D01*
X180006204Y-45692331D01*
X180092454Y-45807546D01*
X180207669Y-45893796D01*
X180207670Y-45893796D01*
X180221927Y-45904469D01*
X180219572Y-45907614D01*
X180268869Y-45948825D01*
X180313889Y-46034919D01*
X180322536Y-46131689D01*
X180293492Y-46224401D01*
X180274739Y-46251633D01*
X180275647Y-46252293D01*
X180144950Y-46432182D01*
X180048441Y-46621592D01*
X179982753Y-46823759D01*
X179949500Y-47033703D01*
X179949500Y-47246296D01*
X179982753Y-47456240D01*
X180047725Y-47656204D01*
X180048443Y-47658412D01*
X180144949Y-47847816D01*
X180250081Y-47992518D01*
X180269897Y-48019793D01*
X180420207Y-48170103D01*
X180473131Y-48208555D01*
X180539080Y-48279899D01*
X180572707Y-48371049D01*
X180568892Y-48468129D01*
X180528217Y-48556359D01*
X180473131Y-48611445D01*
X180420207Y-48649896D01*
X180269897Y-48800206D01*
X180144950Y-48972182D01*
X180048441Y-49161592D01*
X179982753Y-49363759D01*
X179949500Y-49573703D01*
X179949500Y-49786296D01*
X179982753Y-49996240D01*
X180045285Y-50188695D01*
X180048443Y-50198412D01*
X180144949Y-50387816D01*
X180269896Y-50559792D01*
X180420208Y-50710104D01*
X180592184Y-50835051D01*
X180781588Y-50931557D01*
X180983757Y-50997246D01*
X181057601Y-51008941D01*
X181193703Y-51030499D01*
X181193710Y-51030499D01*
X181193713Y-51030500D01*
X181193716Y-51030500D01*
X181406284Y-51030500D01*
X181406287Y-51030500D01*
X181406290Y-51030499D01*
X181406296Y-51030499D01*
X181505476Y-51014789D01*
X181616243Y-50997246D01*
X181818412Y-50931557D01*
X182007816Y-50835051D01*
X182179792Y-50710104D01*
X182330104Y-50559792D01*
X182455051Y-50387816D01*
X182551557Y-50198412D01*
X182617246Y-49996243D01*
X182644686Y-49822994D01*
X182650499Y-49786296D01*
X182650500Y-49786284D01*
X182650500Y-49573715D01*
X182650499Y-49573703D01*
X182623212Y-49401425D01*
X182617246Y-49363757D01*
X182551557Y-49161588D01*
X182455051Y-48972184D01*
X182330104Y-48800208D01*
X182179792Y-48649896D01*
X182126867Y-48611444D01*
X182060920Y-48540103D01*
X182027293Y-48448953D01*
X182031107Y-48351873D01*
X182071781Y-48263642D01*
X182126867Y-48208555D01*
X182179792Y-48170104D01*
X182330104Y-48019792D01*
X182455051Y-47847816D01*
X182551557Y-47658412D01*
X182617246Y-47456243D01*
X182650500Y-47246287D01*
X182650500Y-47033713D01*
X182650499Y-47033710D01*
X182650499Y-47033703D01*
X182617246Y-46823759D01*
X182617246Y-46823757D01*
X182551557Y-46621588D01*
X182455051Y-46432184D01*
X182330104Y-46260208D01*
X182330102Y-46260206D01*
X182324353Y-46252293D01*
X182326655Y-46250620D01*
X182288214Y-46181966D01*
X182276802Y-46085484D01*
X182303180Y-45991979D01*
X182363334Y-45915685D01*
X182378597Y-45905169D01*
X182378073Y-45904469D01*
X182392329Y-45893796D01*
X182392331Y-45893796D01*
X182507546Y-45807546D01*
X182593796Y-45692331D01*
X182644091Y-45557483D01*
X182650500Y-45497873D01*
X182650499Y-43702128D01*
X182644091Y-43642517D01*
X182593796Y-43507669D01*
X182507546Y-43392454D01*
X182392331Y-43306204D01*
X182312117Y-43276286D01*
X182257481Y-43255908D01*
X182197873Y-43249500D01*
X180402134Y-43249500D01*
X180402130Y-43249500D01*
X180402128Y-43249501D01*
X180389314Y-43250878D01*
X180342519Y-43255908D01*
X180342515Y-43255909D01*
X180207670Y-43306203D01*
X180092455Y-43392453D01*
X180092453Y-43392455D01*
X180006204Y-43507669D01*
X179955908Y-43642518D01*
X179949500Y-43702123D01*
X171747514Y-43702123D01*
X171798013Y-43626547D01*
X171865894Y-43462666D01*
X171900500Y-43288691D01*
X171900500Y-43111309D01*
X171865894Y-42937334D01*
X171798013Y-42773453D01*
X171699464Y-42625965D01*
X171574035Y-42500536D01*
X171573233Y-42500000D01*
X171426548Y-42401987D01*
X171426545Y-42401986D01*
X171298513Y-42348954D01*
X171217732Y-42294978D01*
X171163755Y-42214197D01*
X171144801Y-42118909D01*
X171163755Y-42023620D01*
X171217731Y-41942839D01*
X171255460Y-41911875D01*
X171274035Y-41899464D01*
X171399464Y-41774035D01*
X171498013Y-41626547D01*
X171565894Y-41462666D01*
X171600500Y-41288691D01*
X171600500Y-41111309D01*
X171565894Y-40937334D01*
X171498013Y-40773453D01*
X171399464Y-40625965D01*
X171274035Y-40500536D01*
X171273233Y-40500000D01*
X171126549Y-40401988D01*
X171126547Y-40401987D01*
X170962666Y-40334106D01*
X170962661Y-40334105D01*
X170962659Y-40334104D01*
X170788695Y-40299500D01*
X170788691Y-40299500D01*
X170611309Y-40299500D01*
X170611304Y-40299500D01*
X170437340Y-40334104D01*
X170437336Y-40334105D01*
X170437334Y-40334106D01*
X170328080Y-40379360D01*
X170273450Y-40401988D01*
X170125968Y-40500533D01*
X170000533Y-40625968D01*
X169901988Y-40773450D01*
X169834104Y-40937340D01*
X169799500Y-41111304D01*
X120775939Y-41111304D01*
X120760144Y-41092479D01*
X120690206Y-40992598D01*
X120668506Y-40955014D01*
X120616964Y-40844482D01*
X120602126Y-40803716D01*
X120570559Y-40685907D01*
X120563027Y-40643189D01*
X120551446Y-40510814D01*
X120550500Y-40489133D01*
X120550500Y-35674687D01*
X124774500Y-35674687D01*
X124774500Y-35953312D01*
X124809071Y-36215909D01*
X124810868Y-36229554D01*
X124882981Y-36498686D01*
X124882982Y-36498689D01*
X124882983Y-36498692D01*
X124989603Y-36756096D01*
X124989605Y-36756100D01*
X124989606Y-36756102D01*
X125128919Y-36997398D01*
X125298535Y-37218447D01*
X125495553Y-37415465D01*
X125716602Y-37585081D01*
X125957898Y-37724394D01*
X126215314Y-37831019D01*
X126484446Y-37903132D01*
X126760687Y-37939500D01*
X127039313Y-37939500D01*
X127315554Y-37903132D01*
X127584686Y-37831019D01*
X127842102Y-37724394D01*
X128083398Y-37585081D01*
X128304447Y-37415465D01*
X128501465Y-37218447D01*
X128671081Y-36997398D01*
X128749655Y-36861304D01*
X168849500Y-36861304D01*
X168849500Y-37038695D01*
X168884104Y-37212659D01*
X168884105Y-37212661D01*
X168884106Y-37212666D01*
X168951987Y-37376547D01*
X169050536Y-37524035D01*
X169175965Y-37649464D01*
X169323453Y-37748013D01*
X169487334Y-37815894D01*
X169661309Y-37850500D01*
X169838691Y-37850500D01*
X170012666Y-37815894D01*
X170176547Y-37748013D01*
X170324035Y-37649464D01*
X170449464Y-37524035D01*
X170548013Y-37376547D01*
X170615894Y-37212666D01*
X170650500Y-37038691D01*
X170650500Y-36861309D01*
X170615894Y-36687334D01*
X170605451Y-36662123D01*
X179949500Y-36662123D01*
X179949500Y-38457865D01*
X179949500Y-38457868D01*
X179949501Y-38457872D01*
X179951567Y-38477093D01*
X179955908Y-38517480D01*
X179955909Y-38517483D01*
X180006204Y-38652331D01*
X180092454Y-38767546D01*
X180207669Y-38853796D01*
X180342517Y-38904091D01*
X180402127Y-38910500D01*
X182197872Y-38910499D01*
X182257483Y-38904091D01*
X182392331Y-38853796D01*
X182507546Y-38767546D01*
X182593796Y-38652331D01*
X182644091Y-38517483D01*
X182650500Y-38457873D01*
X182650499Y-36662128D01*
X182644091Y-36602517D01*
X182593796Y-36467669D01*
X182507546Y-36352454D01*
X182392331Y-36266204D01*
X182294054Y-36229549D01*
X182257481Y-36215908D01*
X182197873Y-36209500D01*
X180402134Y-36209500D01*
X180402130Y-36209500D01*
X180402128Y-36209501D01*
X180389314Y-36210878D01*
X180342519Y-36215908D01*
X180342515Y-36215909D01*
X180207670Y-36266203D01*
X180092455Y-36352453D01*
X180092453Y-36352455D01*
X180006204Y-36467669D01*
X179955908Y-36602518D01*
X179949500Y-36662123D01*
X170605451Y-36662123D01*
X170548013Y-36523453D01*
X170449464Y-36375965D01*
X170324035Y-36250536D01*
X170324031Y-36250533D01*
X170176549Y-36151988D01*
X170176547Y-36151987D01*
X170012666Y-36084106D01*
X170012661Y-36084105D01*
X170012659Y-36084104D01*
X169838695Y-36049500D01*
X169838691Y-36049500D01*
X169661309Y-36049500D01*
X169661304Y-36049500D01*
X169487340Y-36084104D01*
X169487336Y-36084105D01*
X169487334Y-36084106D01*
X169378080Y-36129360D01*
X169323450Y-36151988D01*
X169175968Y-36250533D01*
X169050533Y-36375968D01*
X168951988Y-36523450D01*
X168884104Y-36687340D01*
X168849500Y-36861304D01*
X128749655Y-36861304D01*
X128810394Y-36756102D01*
X128810398Y-36756093D01*
X128811354Y-36753786D01*
X128917016Y-36498693D01*
X128917015Y-36498693D01*
X128917019Y-36498686D01*
X128989132Y-36229554D01*
X129025500Y-35953313D01*
X129025500Y-35674687D01*
X128989132Y-35398446D01*
X128917019Y-35129314D01*
X128810394Y-34871898D01*
X128671081Y-34630602D01*
X128501465Y-34409553D01*
X128304447Y-34212535D01*
X128083398Y-34042919D01*
X127842102Y-33903606D01*
X127842100Y-33903605D01*
X127842096Y-33903603D01*
X127584692Y-33796983D01*
X127584689Y-33796982D01*
X127584687Y-33796981D01*
X127584686Y-33796981D01*
X127315554Y-33724868D01*
X127315551Y-33724867D01*
X127315550Y-33724867D01*
X127039313Y-33688500D01*
X126760687Y-33688500D01*
X126484450Y-33724867D01*
X126215310Y-33796982D01*
X126215307Y-33796983D01*
X125957903Y-33903603D01*
X125957899Y-33903605D01*
X125716606Y-34042916D01*
X125495550Y-34212537D01*
X125298537Y-34409550D01*
X125128916Y-34630606D01*
X124989605Y-34871899D01*
X124989603Y-34871903D01*
X124882983Y-35129307D01*
X124882982Y-35129310D01*
X124810867Y-35398450D01*
X124774500Y-35674687D01*
X120550500Y-35674687D01*
X120550500Y-30891304D01*
X157239500Y-30891304D01*
X157239500Y-31068695D01*
X157274104Y-31242659D01*
X157274105Y-31242661D01*
X157274106Y-31242666D01*
X157299424Y-31303789D01*
X157341988Y-31406549D01*
X157355351Y-31426548D01*
X157440536Y-31554035D01*
X157565965Y-31679464D01*
X157713453Y-31778013D01*
X157877334Y-31845894D01*
X158051309Y-31880500D01*
X158228691Y-31880500D01*
X158402666Y-31845894D01*
X158566547Y-31778013D01*
X158666662Y-31711118D01*
X158756422Y-31673938D01*
X158853577Y-31673937D01*
X158943336Y-31711117D01*
X158943338Y-31711118D01*
X158976001Y-31732942D01*
X159043453Y-31778013D01*
X159207334Y-31845894D01*
X159381309Y-31880500D01*
X159558691Y-31880500D01*
X159732666Y-31845894D01*
X159896547Y-31778013D01*
X159934179Y-31752868D01*
X160023938Y-31715688D01*
X160121093Y-31715687D01*
X160210850Y-31752865D01*
X160263453Y-31788013D01*
X160427334Y-31855894D01*
X160601309Y-31890500D01*
X160778691Y-31890500D01*
X160952666Y-31855894D01*
X161116547Y-31788013D01*
X161264035Y-31689464D01*
X161389464Y-31564035D01*
X161488013Y-31416547D01*
X161555894Y-31252666D01*
X161590500Y-31078691D01*
X161590500Y-30911304D01*
X162299500Y-30911304D01*
X162299500Y-31088695D01*
X162334104Y-31262659D01*
X162334105Y-31262661D01*
X162334106Y-31262666D01*
X162397845Y-31416547D01*
X162401988Y-31426549D01*
X162487172Y-31554035D01*
X162500536Y-31574035D01*
X162625965Y-31699464D01*
X162773453Y-31798013D01*
X162937334Y-31865894D01*
X163111309Y-31900500D01*
X163288691Y-31900500D01*
X163462666Y-31865894D01*
X163626547Y-31798013D01*
X163774035Y-31699464D01*
X163899464Y-31574035D01*
X163998013Y-31426547D01*
X164004327Y-31411304D01*
X175199500Y-31411304D01*
X175199500Y-31588695D01*
X175234104Y-31762659D01*
X175234105Y-31762661D01*
X175234106Y-31762666D01*
X175301987Y-31926547D01*
X175400536Y-32074035D01*
X175525965Y-32199464D01*
X175673453Y-32298013D01*
X175837334Y-32365894D01*
X176011309Y-32400500D01*
X176188691Y-32400500D01*
X176362666Y-32365894D01*
X176526547Y-32298013D01*
X176674035Y-32199464D01*
X176799464Y-32074035D01*
X176898013Y-31926547D01*
X176965894Y-31762666D01*
X177000500Y-31588691D01*
X177000500Y-31411309D01*
X176965894Y-31237334D01*
X176898013Y-31073453D01*
X176799464Y-30925965D01*
X176674035Y-30800536D01*
X176674031Y-30800533D01*
X176526549Y-30701988D01*
X176526547Y-30701987D01*
X176362666Y-30634106D01*
X176362661Y-30634105D01*
X176362659Y-30634104D01*
X176188695Y-30599500D01*
X176188691Y-30599500D01*
X176011309Y-30599500D01*
X176011304Y-30599500D01*
X175837340Y-30634104D01*
X175837336Y-30634105D01*
X175837334Y-30634106D01*
X175728080Y-30679360D01*
X175673450Y-30701988D01*
X175525968Y-30800533D01*
X175400533Y-30925968D01*
X175301988Y-31073450D01*
X175234104Y-31237340D01*
X175199500Y-31411304D01*
X164004327Y-31411304D01*
X164022548Y-31367312D01*
X164048861Y-31303789D01*
X164054690Y-31289712D01*
X164065894Y-31262666D01*
X164100500Y-31088691D01*
X164100500Y-30911309D01*
X164065894Y-30737334D01*
X163998013Y-30573453D01*
X163899464Y-30425965D01*
X163774035Y-30300536D01*
X163774031Y-30300533D01*
X163626549Y-30201988D01*
X163619420Y-30199035D01*
X163462666Y-30134106D01*
X163462661Y-30134105D01*
X163462659Y-30134104D01*
X163288695Y-30099500D01*
X163288691Y-30099500D01*
X163111309Y-30099500D01*
X163111304Y-30099500D01*
X162937340Y-30134104D01*
X162937336Y-30134105D01*
X162937334Y-30134106D01*
X162828080Y-30179360D01*
X162773450Y-30201988D01*
X162625968Y-30300533D01*
X162500533Y-30425968D01*
X162401988Y-30573450D01*
X162401987Y-30573453D01*
X162338249Y-30727334D01*
X162334104Y-30737340D01*
X162299500Y-30911304D01*
X161590500Y-30911304D01*
X161590500Y-30901309D01*
X161555894Y-30727334D01*
X161488013Y-30563453D01*
X161389464Y-30415965D01*
X161264035Y-30290536D01*
X161264031Y-30290533D01*
X161116549Y-30191988D01*
X161116547Y-30191987D01*
X160952666Y-30124106D01*
X160952661Y-30124105D01*
X160952659Y-30124104D01*
X160778695Y-30089500D01*
X160778691Y-30089500D01*
X160601309Y-30089500D01*
X160601304Y-30089500D01*
X160427340Y-30124104D01*
X160427336Y-30124105D01*
X160427334Y-30124106D01*
X160263453Y-30191987D01*
X160263451Y-30191987D01*
X160263449Y-30191989D01*
X160263444Y-30191991D01*
X160225815Y-30217134D01*
X160136055Y-30254312D01*
X160038900Y-30254311D01*
X159949145Y-30217132D01*
X159896549Y-30181988D01*
X159896547Y-30181987D01*
X159732666Y-30114106D01*
X159732661Y-30114105D01*
X159732659Y-30114104D01*
X159558695Y-30079500D01*
X159558691Y-30079500D01*
X159381309Y-30079500D01*
X159381304Y-30079500D01*
X159207340Y-30114104D01*
X159207336Y-30114105D01*
X159207334Y-30114106D01*
X159043453Y-30181987D01*
X159043451Y-30181987D01*
X159043449Y-30181989D01*
X159043446Y-30181990D01*
X158943336Y-30248882D01*
X158853577Y-30286062D01*
X158756422Y-30286061D01*
X158666664Y-30248882D01*
X158566553Y-30181990D01*
X158566550Y-30181989D01*
X158566549Y-30181988D01*
X158566547Y-30181987D01*
X158402666Y-30114106D01*
X158402661Y-30114105D01*
X158402659Y-30114104D01*
X158228695Y-30079500D01*
X158228691Y-30079500D01*
X158051309Y-30079500D01*
X158051304Y-30079500D01*
X157877340Y-30114104D01*
X157877336Y-30114105D01*
X157877334Y-30114106D01*
X157768080Y-30159360D01*
X157713450Y-30181988D01*
X157565968Y-30280533D01*
X157440533Y-30405968D01*
X157341988Y-30553450D01*
X157341987Y-30553453D01*
X157280463Y-30701988D01*
X157274104Y-30717340D01*
X157239500Y-30891304D01*
X120550500Y-30891304D01*
X120550500Y-29536304D01*
X164399500Y-29536304D01*
X164399500Y-29713695D01*
X164434104Y-29887659D01*
X164434105Y-29887661D01*
X164434106Y-29887666D01*
X164501987Y-30051547D01*
X164501988Y-30051549D01*
X164595827Y-30191988D01*
X164600536Y-30199035D01*
X164725965Y-30324464D01*
X164873453Y-30423013D01*
X165037334Y-30490894D01*
X165211309Y-30525500D01*
X165388691Y-30525500D01*
X165562666Y-30490894D01*
X165726547Y-30423013D01*
X165874035Y-30324464D01*
X165999464Y-30199035D01*
X166098013Y-30051547D01*
X166165894Y-29887666D01*
X166200500Y-29713691D01*
X166200500Y-29536309D01*
X166165894Y-29362334D01*
X166098013Y-29198453D01*
X165999464Y-29050965D01*
X165874035Y-28925536D01*
X165874031Y-28925533D01*
X165726549Y-28826988D01*
X165726547Y-28826987D01*
X165562666Y-28759106D01*
X165562661Y-28759105D01*
X165562659Y-28759104D01*
X165388695Y-28724500D01*
X165388691Y-28724500D01*
X165211309Y-28724500D01*
X165211304Y-28724500D01*
X165037340Y-28759104D01*
X165037336Y-28759105D01*
X165037334Y-28759106D01*
X164928080Y-28804360D01*
X164873450Y-28826988D01*
X164725968Y-28925533D01*
X164600533Y-29050968D01*
X164501988Y-29198450D01*
X164434104Y-29362340D01*
X164399500Y-29536304D01*
X120550500Y-29536304D01*
X120550500Y-25390133D01*
X122604138Y-25390133D01*
X122604138Y-25609866D01*
X122638508Y-25826862D01*
X122693308Y-25995522D01*
X122706404Y-26035825D01*
X122714436Y-26051588D01*
X122806154Y-26231595D01*
X122935293Y-26409339D01*
X122935296Y-26409343D01*
X123090657Y-26564704D01*
X123090660Y-26564706D01*
X123268404Y-26693845D01*
X123268406Y-26693846D01*
X123268409Y-26693848D01*
X123464175Y-26793596D01*
X123673135Y-26861491D01*
X123749459Y-26873579D01*
X123890133Y-26895861D01*
X123890140Y-26895861D01*
X123890143Y-26895862D01*
X123890146Y-26895862D01*
X124109854Y-26895862D01*
X124109857Y-26895862D01*
X124109860Y-26895861D01*
X124109866Y-26895861D01*
X124212378Y-26879624D01*
X124326865Y-26861491D01*
X124535825Y-26793596D01*
X124731591Y-26693848D01*
X124909343Y-26564704D01*
X125064704Y-26409343D01*
X125193848Y-26231591D01*
X125293596Y-26035825D01*
X125361491Y-25826865D01*
X125395862Y-25609857D01*
X125395862Y-25390143D01*
X125395861Y-25390140D01*
X125395861Y-25390133D01*
X125368835Y-25219501D01*
X125361491Y-25173135D01*
X125293596Y-24964175D01*
X125193848Y-24768409D01*
X125193846Y-24768406D01*
X125193845Y-24768404D01*
X125064706Y-24590660D01*
X125064704Y-24590657D01*
X124909343Y-24435296D01*
X124909339Y-24435293D01*
X124731595Y-24306154D01*
X124603556Y-24240915D01*
X124535825Y-24206404D01*
X124535822Y-24206403D01*
X124535820Y-24206402D01*
X124364518Y-24150743D01*
X124364516Y-24150742D01*
X124326864Y-24138508D01*
X124109866Y-24104138D01*
X124109857Y-24104138D01*
X123890143Y-24104138D01*
X123890133Y-24104138D01*
X123673137Y-24138508D01*
X123464179Y-24206402D01*
X123268404Y-24306154D01*
X123090660Y-24435293D01*
X122935293Y-24590660D01*
X122806154Y-24768404D01*
X122706402Y-24964179D01*
X122638508Y-25173137D01*
X122604138Y-25390133D01*
X120550500Y-25390133D01*
X120550500Y-24506981D01*
X120550892Y-24493020D01*
X120561386Y-24306152D01*
X120568262Y-24183710D01*
X120571385Y-24155992D01*
X120610853Y-23923703D01*
X127629500Y-23923703D01*
X127629500Y-24136296D01*
X127662753Y-24346240D01*
X127710444Y-24493019D01*
X127728443Y-24548412D01*
X127824949Y-24737816D01*
X127911445Y-24856869D01*
X127955647Y-24917707D01*
X127953346Y-24919378D01*
X127991792Y-24988055D01*
X128003195Y-25084538D01*
X127976808Y-25178041D01*
X127916647Y-25254329D01*
X127901405Y-25264834D01*
X127901927Y-25265531D01*
X127887670Y-25276203D01*
X127887669Y-25276204D01*
X127855882Y-25300000D01*
X127772455Y-25362453D01*
X127772453Y-25362455D01*
X127686204Y-25477669D01*
X127635908Y-25612518D01*
X127629500Y-25672123D01*
X127629500Y-27467865D01*
X127629501Y-27467869D01*
X127635908Y-27527480D01*
X127635909Y-27527484D01*
X127660850Y-27594353D01*
X127686204Y-27662331D01*
X127772454Y-27777546D01*
X127887669Y-27863796D01*
X128022517Y-27914091D01*
X128082127Y-27920500D01*
X129877872Y-27920499D01*
X129937483Y-27914091D01*
X130072331Y-27863796D01*
X130187546Y-27777546D01*
X130273796Y-27662331D01*
X130273796Y-27662329D01*
X130284469Y-27648073D01*
X130287616Y-27650429D01*
X130328789Y-27601159D01*
X130414875Y-27556123D01*
X130511643Y-27547458D01*
X130604360Y-27576485D01*
X130631626Y-27595270D01*
X130632293Y-27594353D01*
X130640206Y-27600102D01*
X130640208Y-27600104D01*
X130812184Y-27725051D01*
X131001588Y-27821557D01*
X131203757Y-27887246D01*
X131277601Y-27898941D01*
X131413703Y-27920499D01*
X131413710Y-27920499D01*
X131413713Y-27920500D01*
X131413716Y-27920500D01*
X131626284Y-27920500D01*
X131626287Y-27920500D01*
X131626290Y-27920499D01*
X131626296Y-27920499D01*
X131725476Y-27904789D01*
X131836243Y-27887246D01*
X132038412Y-27821557D01*
X132227816Y-27725051D01*
X132399792Y-27600104D01*
X132550104Y-27449792D01*
X132588555Y-27396867D01*
X132659897Y-27330920D01*
X132751047Y-27297293D01*
X132848127Y-27301107D01*
X132936358Y-27341781D01*
X132991444Y-27396867D01*
X133029896Y-27449792D01*
X133180208Y-27600104D01*
X133352184Y-27725051D01*
X133541588Y-27821557D01*
X133743757Y-27887246D01*
X133817601Y-27898941D01*
X133953703Y-27920499D01*
X133953710Y-27920499D01*
X133953713Y-27920500D01*
X133953716Y-27920500D01*
X134166284Y-27920500D01*
X134166287Y-27920500D01*
X134166290Y-27920499D01*
X134166296Y-27920499D01*
X134265476Y-27904789D01*
X134376243Y-27887246D01*
X134578412Y-27821557D01*
X134767816Y-27725051D01*
X134939792Y-27600104D01*
X135090104Y-27449792D01*
X135128555Y-27396867D01*
X135199897Y-27330920D01*
X135291047Y-27297293D01*
X135388127Y-27301107D01*
X135476358Y-27341781D01*
X135531444Y-27396867D01*
X135569896Y-27449792D01*
X135720208Y-27600104D01*
X135892184Y-27725051D01*
X136081588Y-27821557D01*
X136283757Y-27887246D01*
X136357601Y-27898941D01*
X136493703Y-27920499D01*
X136493710Y-27920499D01*
X136493713Y-27920500D01*
X136493716Y-27920500D01*
X136706284Y-27920500D01*
X136706287Y-27920500D01*
X136706290Y-27920499D01*
X136706296Y-27920499D01*
X136805476Y-27904789D01*
X136916243Y-27887246D01*
X137118412Y-27821557D01*
X137307816Y-27725051D01*
X137479792Y-27600104D01*
X137630104Y-27449792D01*
X137755051Y-27277816D01*
X137851557Y-27088412D01*
X137917246Y-26886243D01*
X137950500Y-26676287D01*
X137950500Y-26463713D01*
X137950499Y-26463710D01*
X137950499Y-26463703D01*
X137917246Y-26253759D01*
X137917246Y-26253757D01*
X137851557Y-26051588D01*
X137755051Y-25862184D01*
X137630104Y-25690208D01*
X137479792Y-25539896D01*
X137426867Y-25501444D01*
X137360920Y-25430103D01*
X137327293Y-25338953D01*
X137331107Y-25241873D01*
X137371781Y-25153642D01*
X137397157Y-25123930D01*
X137411011Y-25110075D01*
X137479792Y-25060104D01*
X137630104Y-24909792D01*
X137680075Y-24841011D01*
X137693930Y-24827157D01*
X137718340Y-24810846D01*
X137739897Y-24790920D01*
X137758354Y-24784110D01*
X137774712Y-24773181D01*
X137803505Y-24767453D01*
X137831047Y-24757293D01*
X137850703Y-24758065D01*
X137870000Y-24754227D01*
X137898794Y-24759954D01*
X137928127Y-24761107D01*
X137945992Y-24769342D01*
X137965288Y-24773181D01*
X137989697Y-24789490D01*
X138016358Y-24801781D01*
X138033003Y-24818426D01*
X138046070Y-24827157D01*
X138054800Y-24840223D01*
X138071444Y-24856867D01*
X138109896Y-24909792D01*
X138260208Y-25060104D01*
X138432184Y-25185051D01*
X138621588Y-25281557D01*
X138823757Y-25347246D01*
X138892469Y-25358129D01*
X139033703Y-25380499D01*
X139033710Y-25380499D01*
X139033713Y-25380500D01*
X139033716Y-25380500D01*
X139246284Y-25380500D01*
X139246287Y-25380500D01*
X139246290Y-25380499D01*
X139246296Y-25380499D01*
X139345476Y-25364789D01*
X139456243Y-25347246D01*
X139658412Y-25281557D01*
X139847816Y-25185051D01*
X140019792Y-25060104D01*
X140170104Y-24909792D01*
X140208555Y-24856867D01*
X140279897Y-24790920D01*
X140371047Y-24757293D01*
X140468127Y-24761107D01*
X140556358Y-24801781D01*
X140586070Y-24827158D01*
X140599926Y-24841014D01*
X140649896Y-24909792D01*
X140800208Y-25060104D01*
X140868981Y-25110070D01*
X140882842Y-25123931D01*
X140899152Y-25148340D01*
X140919080Y-25169899D01*
X140925888Y-25188355D01*
X140936818Y-25204712D01*
X140942545Y-25233503D01*
X140952707Y-25261049D01*
X140951934Y-25280707D01*
X140955772Y-25300000D01*
X140950044Y-25328792D01*
X140948892Y-25358129D01*
X140940655Y-25375994D01*
X140936818Y-25395289D01*
X140920507Y-25419698D01*
X140908217Y-25446359D01*
X140891570Y-25463005D01*
X140882841Y-25476070D01*
X140869776Y-25484799D01*
X140853131Y-25501445D01*
X140800207Y-25539896D01*
X140649897Y-25690206D01*
X140524950Y-25862182D01*
X140428441Y-26051592D01*
X140362753Y-26253759D01*
X140329500Y-26463703D01*
X140329500Y-26676296D01*
X140362753Y-26886240D01*
X140362754Y-26886243D01*
X140428443Y-27088412D01*
X140524949Y-27277816D01*
X140649896Y-27449792D01*
X140800208Y-27600104D01*
X140972184Y-27725051D01*
X141161588Y-27821557D01*
X141363757Y-27887246D01*
X141437601Y-27898941D01*
X141573703Y-27920499D01*
X141573710Y-27920499D01*
X141573713Y-27920500D01*
X141573716Y-27920500D01*
X141786284Y-27920500D01*
X141786287Y-27920500D01*
X141786290Y-27920499D01*
X141786296Y-27920499D01*
X141885476Y-27904789D01*
X141996243Y-27887246D01*
X142198412Y-27821557D01*
X142387816Y-27725051D01*
X142559792Y-27600104D01*
X142710104Y-27449792D01*
X142748555Y-27396867D01*
X142819897Y-27330920D01*
X142911047Y-27297293D01*
X143008127Y-27301107D01*
X143096358Y-27341781D01*
X143151444Y-27396867D01*
X143189896Y-27449792D01*
X143340208Y-27600104D01*
X143512184Y-27725051D01*
X143701588Y-27821557D01*
X143903757Y-27887246D01*
X143977601Y-27898941D01*
X144113703Y-27920499D01*
X144113710Y-27920499D01*
X144113713Y-27920500D01*
X144113716Y-27920500D01*
X144326284Y-27920500D01*
X144326287Y-27920500D01*
X144326290Y-27920499D01*
X144326296Y-27920499D01*
X144425476Y-27904789D01*
X144536243Y-27887246D01*
X144738412Y-27821557D01*
X144927816Y-27725051D01*
X145099792Y-27600104D01*
X145250104Y-27449792D01*
X145288555Y-27396867D01*
X145359897Y-27330920D01*
X145451047Y-27297293D01*
X145548127Y-27301107D01*
X145636358Y-27341781D01*
X145691444Y-27396867D01*
X145729896Y-27449792D01*
X145880208Y-27600104D01*
X146052184Y-27725051D01*
X146241588Y-27821557D01*
X146443757Y-27887246D01*
X146517601Y-27898941D01*
X146653703Y-27920499D01*
X146653710Y-27920499D01*
X146653713Y-27920500D01*
X146653716Y-27920500D01*
X146866284Y-27920500D01*
X146866287Y-27920500D01*
X146866290Y-27920499D01*
X146866296Y-27920499D01*
X146965476Y-27904789D01*
X147076243Y-27887246D01*
X147278412Y-27821557D01*
X147467816Y-27725051D01*
X147639792Y-27600104D01*
X147790104Y-27449792D01*
X147828555Y-27396867D01*
X147899897Y-27330920D01*
X147991047Y-27297293D01*
X148088127Y-27301107D01*
X148176358Y-27341781D01*
X148231444Y-27396867D01*
X148269896Y-27449792D01*
X148420208Y-27600104D01*
X148592184Y-27725051D01*
X148781588Y-27821557D01*
X148983757Y-27887246D01*
X149057601Y-27898941D01*
X149193703Y-27920499D01*
X149193710Y-27920499D01*
X149193713Y-27920500D01*
X149193716Y-27920500D01*
X149406284Y-27920500D01*
X149406287Y-27920500D01*
X149406290Y-27920499D01*
X149406296Y-27920499D01*
X149505476Y-27904789D01*
X149616243Y-27887246D01*
X149818412Y-27821557D01*
X150007816Y-27725051D01*
X150179792Y-27600104D01*
X150330104Y-27449792D01*
X150368555Y-27396867D01*
X150439897Y-27330920D01*
X150531047Y-27297293D01*
X150628127Y-27301107D01*
X150716358Y-27341781D01*
X150771444Y-27396867D01*
X150809896Y-27449792D01*
X150960208Y-27600104D01*
X151132184Y-27725051D01*
X151321588Y-27821557D01*
X151523757Y-27887246D01*
X151597601Y-27898941D01*
X151733703Y-27920499D01*
X151733710Y-27920499D01*
X151733713Y-27920500D01*
X151733716Y-27920500D01*
X151946284Y-27920500D01*
X151946287Y-27920500D01*
X151946290Y-27920499D01*
X151946296Y-27920499D01*
X152045476Y-27904789D01*
X152156243Y-27887246D01*
X152358412Y-27821557D01*
X152547816Y-27725051D01*
X152719792Y-27600104D01*
X152870104Y-27449792D01*
X152908555Y-27396867D01*
X152979897Y-27330920D01*
X153071047Y-27297293D01*
X153168127Y-27301107D01*
X153256358Y-27341781D01*
X153311444Y-27396867D01*
X153349896Y-27449792D01*
X153500208Y-27600104D01*
X153672184Y-27725051D01*
X153861588Y-27821557D01*
X154063757Y-27887246D01*
X154137601Y-27898941D01*
X154273703Y-27920499D01*
X154273710Y-27920499D01*
X154273713Y-27920500D01*
X154273716Y-27920500D01*
X154486284Y-27920500D01*
X154486287Y-27920500D01*
X154486290Y-27920499D01*
X154486296Y-27920499D01*
X154585476Y-27904789D01*
X154696243Y-27887246D01*
X154898412Y-27821557D01*
X155087816Y-27725051D01*
X155259792Y-27600104D01*
X155410104Y-27449792D01*
X155448555Y-27396867D01*
X155519897Y-27330920D01*
X155611047Y-27297293D01*
X155708127Y-27301107D01*
X155796358Y-27341781D01*
X155851444Y-27396867D01*
X155889896Y-27449792D01*
X156040208Y-27600104D01*
X156212184Y-27725051D01*
X156401588Y-27821557D01*
X156603757Y-27887246D01*
X156677601Y-27898941D01*
X156813703Y-27920499D01*
X156813710Y-27920499D01*
X156813713Y-27920500D01*
X156813716Y-27920500D01*
X157026284Y-27920500D01*
X157026287Y-27920500D01*
X157026290Y-27920499D01*
X157026296Y-27920499D01*
X157125476Y-27904789D01*
X157236243Y-27887246D01*
X157438412Y-27821557D01*
X157627816Y-27725051D01*
X157799792Y-27600104D01*
X157950104Y-27449792D01*
X158075051Y-27277816D01*
X158171557Y-27088412D01*
X158237246Y-26886243D01*
X158270500Y-26676287D01*
X158270500Y-26463713D01*
X158270499Y-26463710D01*
X158270499Y-26463703D01*
X158237246Y-26253759D01*
X158237246Y-26253757D01*
X158171557Y-26051588D01*
X158075051Y-25862184D01*
X157950104Y-25690208D01*
X157799792Y-25539896D01*
X157746867Y-25501444D01*
X157680920Y-25430103D01*
X157647293Y-25338953D01*
X157651107Y-25241873D01*
X157691781Y-25153642D01*
X157717157Y-25123930D01*
X157731011Y-25110075D01*
X157799792Y-25060104D01*
X157950104Y-24909792D01*
X158000075Y-24841011D01*
X158013930Y-24827157D01*
X158038340Y-24810846D01*
X158059897Y-24790920D01*
X158078354Y-24784110D01*
X158094712Y-24773181D01*
X158123505Y-24767453D01*
X158151047Y-24757293D01*
X158170703Y-24758065D01*
X158190000Y-24754227D01*
X158218794Y-24759954D01*
X158248127Y-24761107D01*
X158265992Y-24769342D01*
X158285288Y-24773181D01*
X158309697Y-24789490D01*
X158336358Y-24801781D01*
X158353003Y-24818426D01*
X158366070Y-24827157D01*
X158374800Y-24840223D01*
X158391444Y-24856867D01*
X158429896Y-24909792D01*
X158580208Y-25060104D01*
X158752184Y-25185051D01*
X158941588Y-25281557D01*
X159143757Y-25347246D01*
X159212469Y-25358129D01*
X159353703Y-25380499D01*
X159353710Y-25380499D01*
X159353713Y-25380500D01*
X159353716Y-25380500D01*
X159566284Y-25380500D01*
X159566287Y-25380500D01*
X159566290Y-25380499D01*
X159566296Y-25380499D01*
X159665476Y-25364789D01*
X159776243Y-25347246D01*
X159978412Y-25281557D01*
X160167816Y-25185051D01*
X160339792Y-25060104D01*
X160490104Y-24909792D01*
X160528555Y-24856867D01*
X160599897Y-24790920D01*
X160691047Y-24757293D01*
X160788127Y-24761107D01*
X160876358Y-24801781D01*
X160906070Y-24827158D01*
X160919926Y-24841014D01*
X160969896Y-24909792D01*
X161120208Y-25060104D01*
X161188981Y-25110070D01*
X161202842Y-25123931D01*
X161219152Y-25148340D01*
X161239080Y-25169899D01*
X161245888Y-25188355D01*
X161256818Y-25204712D01*
X161262545Y-25233503D01*
X161272707Y-25261049D01*
X161271934Y-25280707D01*
X161275772Y-25300000D01*
X161270044Y-25328792D01*
X161268892Y-25358129D01*
X161260655Y-25375994D01*
X161256818Y-25395289D01*
X161240507Y-25419698D01*
X161228217Y-25446359D01*
X161211570Y-25463005D01*
X161202841Y-25476070D01*
X161189776Y-25484799D01*
X161173131Y-25501445D01*
X161120207Y-25539896D01*
X160969897Y-25690206D01*
X160844950Y-25862182D01*
X160748441Y-26051592D01*
X160682753Y-26253759D01*
X160649500Y-26463703D01*
X160649500Y-26676296D01*
X160682753Y-26886240D01*
X160682754Y-26886243D01*
X160748443Y-27088412D01*
X160844949Y-27277816D01*
X160969896Y-27449792D01*
X161120208Y-27600104D01*
X161292184Y-27725051D01*
X161481588Y-27821557D01*
X161683757Y-27887246D01*
X161757601Y-27898941D01*
X161893703Y-27920499D01*
X161893710Y-27920499D01*
X161893713Y-27920500D01*
X161893716Y-27920500D01*
X162106284Y-27920500D01*
X162106287Y-27920500D01*
X162106290Y-27920499D01*
X162106296Y-27920499D01*
X162205476Y-27904789D01*
X162316243Y-27887246D01*
X162518412Y-27821557D01*
X162707816Y-27725051D01*
X162879792Y-27600104D01*
X163030104Y-27449792D01*
X163068555Y-27396867D01*
X163139897Y-27330920D01*
X163231047Y-27297293D01*
X163328127Y-27301107D01*
X163416358Y-27341781D01*
X163471444Y-27396867D01*
X163509896Y-27449792D01*
X163660208Y-27600104D01*
X163832184Y-27725051D01*
X164021588Y-27821557D01*
X164223757Y-27887246D01*
X164297601Y-27898941D01*
X164433703Y-27920499D01*
X164433710Y-27920499D01*
X164433713Y-27920500D01*
X164433716Y-27920500D01*
X164646284Y-27920500D01*
X164646287Y-27920500D01*
X164646290Y-27920499D01*
X164646296Y-27920499D01*
X164745476Y-27904789D01*
X164856243Y-27887246D01*
X165058412Y-27821557D01*
X165247816Y-27725051D01*
X165419792Y-27600104D01*
X165570104Y-27449792D01*
X165608555Y-27396867D01*
X165679897Y-27330920D01*
X165771047Y-27297293D01*
X165868127Y-27301107D01*
X165956358Y-27341781D01*
X166011444Y-27396867D01*
X166049896Y-27449792D01*
X166200208Y-27600104D01*
X166372184Y-27725051D01*
X166561588Y-27821557D01*
X166763757Y-27887246D01*
X166837601Y-27898941D01*
X166973703Y-27920499D01*
X166973710Y-27920499D01*
X166973713Y-27920500D01*
X166973716Y-27920500D01*
X167186284Y-27920500D01*
X167186287Y-27920500D01*
X167186290Y-27920499D01*
X167186296Y-27920499D01*
X167285476Y-27904789D01*
X167396243Y-27887246D01*
X167598412Y-27821557D01*
X167787816Y-27725051D01*
X167959792Y-27600104D01*
X168110104Y-27449792D01*
X168148555Y-27396867D01*
X168219897Y-27330920D01*
X168311047Y-27297293D01*
X168408127Y-27301107D01*
X168496358Y-27341781D01*
X168551444Y-27396867D01*
X168589896Y-27449792D01*
X168740208Y-27600104D01*
X168912184Y-27725051D01*
X169101588Y-27821557D01*
X169303757Y-27887246D01*
X169377601Y-27898941D01*
X169513703Y-27920499D01*
X169513710Y-27920499D01*
X169513713Y-27920500D01*
X169513716Y-27920500D01*
X169726284Y-27920500D01*
X169726287Y-27920500D01*
X169726290Y-27920499D01*
X169726296Y-27920499D01*
X169825476Y-27904789D01*
X169936243Y-27887246D01*
X170138412Y-27821557D01*
X170327816Y-27725051D01*
X170499792Y-27600104D01*
X170650104Y-27449792D01*
X170688555Y-27396867D01*
X170759897Y-27330920D01*
X170851047Y-27297293D01*
X170948127Y-27301107D01*
X171036358Y-27341781D01*
X171091444Y-27396867D01*
X171129896Y-27449792D01*
X171280208Y-27600104D01*
X171452184Y-27725051D01*
X171641588Y-27821557D01*
X171843757Y-27887246D01*
X171917601Y-27898941D01*
X172053703Y-27920499D01*
X172053710Y-27920499D01*
X172053713Y-27920500D01*
X172053716Y-27920500D01*
X172266284Y-27920500D01*
X172266287Y-27920500D01*
X172266290Y-27920499D01*
X172266296Y-27920499D01*
X172365476Y-27904789D01*
X172476243Y-27887246D01*
X172678412Y-27821557D01*
X172867816Y-27725051D01*
X173039792Y-27600104D01*
X173190104Y-27449792D01*
X173228555Y-27396867D01*
X173299897Y-27330920D01*
X173391047Y-27297293D01*
X173488127Y-27301107D01*
X173576358Y-27341781D01*
X173631444Y-27396867D01*
X173669896Y-27449792D01*
X173820208Y-27600104D01*
X173992184Y-27725051D01*
X174181588Y-27821557D01*
X174383757Y-27887246D01*
X174457601Y-27898941D01*
X174593703Y-27920499D01*
X174593710Y-27920499D01*
X174593713Y-27920500D01*
X174593716Y-27920500D01*
X174806284Y-27920500D01*
X174806287Y-27920500D01*
X174806290Y-27920499D01*
X174806296Y-27920499D01*
X174905476Y-27904789D01*
X175016243Y-27887246D01*
X175218412Y-27821557D01*
X175407816Y-27725051D01*
X175579792Y-27600104D01*
X175730104Y-27449792D01*
X175855051Y-27277816D01*
X175951557Y-27088412D01*
X176017246Y-26886243D01*
X176050500Y-26676287D01*
X176050500Y-26463713D01*
X176050499Y-26463710D01*
X176050499Y-26463703D01*
X176017246Y-26253759D01*
X176017246Y-26253757D01*
X175951557Y-26051588D01*
X175855051Y-25862184D01*
X175730104Y-25690208D01*
X175579792Y-25539896D01*
X175526867Y-25501444D01*
X175460920Y-25430103D01*
X175446174Y-25390133D01*
X180604138Y-25390133D01*
X180604138Y-25609866D01*
X180638508Y-25826862D01*
X180693308Y-25995522D01*
X180706404Y-26035825D01*
X180714436Y-26051588D01*
X180806154Y-26231595D01*
X180935293Y-26409339D01*
X180935296Y-26409343D01*
X181090657Y-26564704D01*
X181090660Y-26564706D01*
X181268404Y-26693845D01*
X181268406Y-26693846D01*
X181268409Y-26693848D01*
X181464175Y-26793596D01*
X181673135Y-26861491D01*
X181749459Y-26873579D01*
X181890133Y-26895861D01*
X181890140Y-26895861D01*
X181890143Y-26895862D01*
X181890146Y-26895862D01*
X182109854Y-26895862D01*
X182109857Y-26895862D01*
X182109860Y-26895861D01*
X182109866Y-26895861D01*
X182212378Y-26879624D01*
X182326865Y-26861491D01*
X182535825Y-26793596D01*
X182731591Y-26693848D01*
X182909343Y-26564704D01*
X183064704Y-26409343D01*
X183193848Y-26231591D01*
X183293596Y-26035825D01*
X183361491Y-25826865D01*
X183395862Y-25609857D01*
X183395862Y-25390143D01*
X183395861Y-25390140D01*
X183395861Y-25390133D01*
X183368835Y-25219501D01*
X183361491Y-25173135D01*
X183293596Y-24964175D01*
X183193848Y-24768409D01*
X183193846Y-24768406D01*
X183193845Y-24768404D01*
X183064706Y-24590660D01*
X183064704Y-24590657D01*
X182909343Y-24435296D01*
X182909339Y-24435293D01*
X182731595Y-24306154D01*
X182603556Y-24240915D01*
X182535825Y-24206404D01*
X182535822Y-24206403D01*
X182535820Y-24206402D01*
X182326862Y-24138508D01*
X182109866Y-24104138D01*
X182109857Y-24104138D01*
X181890143Y-24104138D01*
X181890133Y-24104138D01*
X181673137Y-24138508D01*
X181464179Y-24206402D01*
X181268404Y-24306154D01*
X181090660Y-24435293D01*
X180935293Y-24590660D01*
X180806154Y-24768404D01*
X180706402Y-24964179D01*
X180638508Y-25173137D01*
X180604138Y-25390133D01*
X175446174Y-25390133D01*
X175427293Y-25338953D01*
X175431107Y-25241873D01*
X175471781Y-25153642D01*
X175497157Y-25123930D01*
X175511011Y-25110075D01*
X175579792Y-25060104D01*
X175730104Y-24909792D01*
X175780075Y-24841011D01*
X175793930Y-24827157D01*
X175818340Y-24810846D01*
X175839897Y-24790920D01*
X175858354Y-24784110D01*
X175874712Y-24773181D01*
X175903505Y-24767453D01*
X175931047Y-24757293D01*
X175950703Y-24758065D01*
X175970000Y-24754227D01*
X175998794Y-24759954D01*
X176028127Y-24761107D01*
X176045992Y-24769342D01*
X176065288Y-24773181D01*
X176089697Y-24789490D01*
X176116358Y-24801781D01*
X176133003Y-24818426D01*
X176146070Y-24827157D01*
X176154800Y-24840223D01*
X176171444Y-24856867D01*
X176209896Y-24909792D01*
X176360208Y-25060104D01*
X176532184Y-25185051D01*
X176721588Y-25281557D01*
X176923757Y-25347246D01*
X176992469Y-25358129D01*
X177133703Y-25380499D01*
X177133710Y-25380499D01*
X177133713Y-25380500D01*
X177133716Y-25380500D01*
X177346284Y-25380500D01*
X177346287Y-25380500D01*
X177346290Y-25380499D01*
X177346296Y-25380499D01*
X177445476Y-25364789D01*
X177556243Y-25347246D01*
X177758412Y-25281557D01*
X177947816Y-25185051D01*
X178119792Y-25060104D01*
X178270104Y-24909792D01*
X178395051Y-24737816D01*
X178491557Y-24548412D01*
X178557246Y-24346243D01*
X178578963Y-24209130D01*
X178590499Y-24136296D01*
X178590500Y-24136284D01*
X178590500Y-23923715D01*
X178590499Y-23923703D01*
X178557246Y-23713759D01*
X178557246Y-23713757D01*
X178491557Y-23511588D01*
X178395051Y-23322184D01*
X178270104Y-23150208D01*
X178119792Y-22999896D01*
X177947816Y-22874949D01*
X177758412Y-22778443D01*
X177758409Y-22778442D01*
X177758407Y-22778441D01*
X177556240Y-22712753D01*
X177346296Y-22679500D01*
X177346287Y-22679500D01*
X177133713Y-22679500D01*
X177133703Y-22679500D01*
X176923759Y-22712753D01*
X176721592Y-22778441D01*
X176532182Y-22874950D01*
X176360206Y-22999897D01*
X176209896Y-23150207D01*
X176171445Y-23203131D01*
X176100101Y-23269080D01*
X176008951Y-23302707D01*
X175911871Y-23298892D01*
X175823641Y-23258217D01*
X175768555Y-23203131D01*
X175730103Y-23150207D01*
X175579793Y-22999897D01*
X175407817Y-22874950D01*
X175407818Y-22874950D01*
X175407816Y-22874949D01*
X175218412Y-22778443D01*
X175218409Y-22778442D01*
X175218407Y-22778441D01*
X175016240Y-22712753D01*
X174806296Y-22679500D01*
X174806287Y-22679500D01*
X174593713Y-22679500D01*
X174593703Y-22679500D01*
X174383759Y-22712753D01*
X174181592Y-22778441D01*
X173992182Y-22874950D01*
X173820206Y-22999897D01*
X173669896Y-23150207D01*
X173631445Y-23203131D01*
X173560101Y-23269080D01*
X173468951Y-23302707D01*
X173371871Y-23298892D01*
X173283641Y-23258217D01*
X173228555Y-23203131D01*
X173190103Y-23150207D01*
X173039793Y-22999897D01*
X172867817Y-22874950D01*
X172867818Y-22874950D01*
X172867816Y-22874949D01*
X172678412Y-22778443D01*
X172678409Y-22778442D01*
X172678407Y-22778441D01*
X172476240Y-22712753D01*
X172266296Y-22679500D01*
X172266287Y-22679500D01*
X172053713Y-22679500D01*
X172053703Y-22679500D01*
X171843759Y-22712753D01*
X171641592Y-22778441D01*
X171452182Y-22874950D01*
X171280206Y-22999897D01*
X171129897Y-23150206D01*
X171004950Y-23322182D01*
X170908441Y-23511592D01*
X170842753Y-23713759D01*
X170809500Y-23923703D01*
X170809500Y-24136296D01*
X170842753Y-24346240D01*
X170890444Y-24493019D01*
X170908443Y-24548412D01*
X171004949Y-24737816D01*
X171091446Y-24856869D01*
X171129897Y-24909793D01*
X171280207Y-25060103D01*
X171333131Y-25098555D01*
X171399080Y-25169899D01*
X171432707Y-25261049D01*
X171428892Y-25358129D01*
X171388217Y-25446359D01*
X171362842Y-25476070D01*
X171348985Y-25489926D01*
X171280208Y-25539896D01*
X171129896Y-25690208D01*
X171079926Y-25758985D01*
X171066070Y-25772842D01*
X171041657Y-25789153D01*
X171020101Y-25809080D01*
X171001644Y-25815888D01*
X170985288Y-25826818D01*
X170956496Y-25832545D01*
X170928951Y-25842707D01*
X170909292Y-25841934D01*
X170890000Y-25845772D01*
X170861207Y-25840044D01*
X170831871Y-25838892D01*
X170814005Y-25830655D01*
X170794712Y-25826818D01*
X170770302Y-25810508D01*
X170743641Y-25798217D01*
X170726996Y-25781572D01*
X170713930Y-25772842D01*
X170705199Y-25759775D01*
X170688555Y-25743131D01*
X170650103Y-25690207D01*
X170499793Y-25539897D01*
X170446870Y-25501446D01*
X170327816Y-25414949D01*
X170138412Y-25318443D01*
X170138409Y-25318442D01*
X170138407Y-25318441D01*
X169936240Y-25252753D01*
X169726296Y-25219500D01*
X169726287Y-25219500D01*
X169513713Y-25219500D01*
X169513703Y-25219500D01*
X169303759Y-25252753D01*
X169101592Y-25318441D01*
X168912182Y-25414950D01*
X168740206Y-25539897D01*
X168589896Y-25690207D01*
X168551445Y-25743131D01*
X168480101Y-25809080D01*
X168388951Y-25842707D01*
X168291871Y-25838892D01*
X168203641Y-25798217D01*
X168173931Y-25772842D01*
X168160070Y-25758981D01*
X168110104Y-25690208D01*
X167959792Y-25539896D01*
X167891014Y-25489926D01*
X167877158Y-25476070D01*
X167860848Y-25451661D01*
X167840920Y-25430103D01*
X167834111Y-25411646D01*
X167823181Y-25395289D01*
X167817453Y-25366493D01*
X167807293Y-25338953D01*
X167808065Y-25319296D01*
X167804227Y-25300000D01*
X167809954Y-25271205D01*
X167811107Y-25241873D01*
X167819342Y-25224007D01*
X167823181Y-25204712D01*
X167839490Y-25180303D01*
X167851781Y-25153642D01*
X167868427Y-25136995D01*
X167877157Y-25123931D01*
X167890221Y-25115201D01*
X167906867Y-25098555D01*
X167959792Y-25060104D01*
X168110104Y-24909792D01*
X168235051Y-24737816D01*
X168331557Y-24548412D01*
X168397246Y-24346243D01*
X168418963Y-24209130D01*
X168430499Y-24136296D01*
X168430500Y-24136284D01*
X168430500Y-23923715D01*
X168430499Y-23923703D01*
X168397246Y-23713759D01*
X168397246Y-23713757D01*
X168331557Y-23511588D01*
X168235051Y-23322184D01*
X168110104Y-23150208D01*
X167959792Y-22999896D01*
X167787816Y-22874949D01*
X167598412Y-22778443D01*
X167598409Y-22778442D01*
X167598407Y-22778441D01*
X167396240Y-22712753D01*
X167186296Y-22679500D01*
X167186287Y-22679500D01*
X166973713Y-22679500D01*
X166973703Y-22679500D01*
X166763759Y-22712753D01*
X166561592Y-22778441D01*
X166372182Y-22874950D01*
X166200206Y-22999897D01*
X166049897Y-23150206D01*
X165924950Y-23322182D01*
X165828441Y-23511592D01*
X165762753Y-23713759D01*
X165729500Y-23923703D01*
X165729500Y-24136296D01*
X165762753Y-24346240D01*
X165810444Y-24493019D01*
X165828443Y-24548412D01*
X165924949Y-24737816D01*
X166011446Y-24856869D01*
X166049897Y-24909793D01*
X166200207Y-25060103D01*
X166253131Y-25098555D01*
X166319080Y-25169899D01*
X166352707Y-25261049D01*
X166348892Y-25358129D01*
X166308217Y-25446359D01*
X166282842Y-25476070D01*
X166268985Y-25489926D01*
X166200208Y-25539896D01*
X166049896Y-25690208D01*
X165999926Y-25758985D01*
X165986070Y-25772842D01*
X165961657Y-25789153D01*
X165940101Y-25809080D01*
X165921644Y-25815888D01*
X165905288Y-25826818D01*
X165876496Y-25832545D01*
X165848951Y-25842707D01*
X165829292Y-25841934D01*
X165810000Y-25845772D01*
X165781207Y-25840044D01*
X165751871Y-25838892D01*
X165734005Y-25830655D01*
X165714712Y-25826818D01*
X165690302Y-25810508D01*
X165663641Y-25798217D01*
X165646996Y-25781572D01*
X165633930Y-25772842D01*
X165625199Y-25759775D01*
X165608555Y-25743131D01*
X165570103Y-25690207D01*
X165419793Y-25539897D01*
X165366870Y-25501446D01*
X165247816Y-25414949D01*
X165058412Y-25318443D01*
X165058409Y-25318442D01*
X165058407Y-25318441D01*
X164856240Y-25252753D01*
X164646296Y-25219500D01*
X164646287Y-25219500D01*
X164433713Y-25219500D01*
X164433703Y-25219500D01*
X164223759Y-25252753D01*
X164021592Y-25318441D01*
X163832182Y-25414950D01*
X163660206Y-25539897D01*
X163509896Y-25690207D01*
X163471445Y-25743131D01*
X163400101Y-25809080D01*
X163308951Y-25842707D01*
X163211871Y-25838892D01*
X163123641Y-25798217D01*
X163093931Y-25772842D01*
X163080070Y-25758981D01*
X163030104Y-25690208D01*
X162879792Y-25539896D01*
X162811014Y-25489926D01*
X162797158Y-25476070D01*
X162780848Y-25451661D01*
X162760920Y-25430103D01*
X162754111Y-25411646D01*
X162743181Y-25395289D01*
X162737453Y-25366493D01*
X162727293Y-25338953D01*
X162728065Y-25319296D01*
X162724227Y-25300000D01*
X162729954Y-25271205D01*
X162731107Y-25241873D01*
X162739342Y-25224007D01*
X162743181Y-25204712D01*
X162759490Y-25180303D01*
X162771781Y-25153642D01*
X162788427Y-25136995D01*
X162797157Y-25123931D01*
X162810221Y-25115201D01*
X162826867Y-25098555D01*
X162879792Y-25060104D01*
X163030104Y-24909792D01*
X163155051Y-24737816D01*
X163251557Y-24548412D01*
X163317246Y-24346243D01*
X163338963Y-24209130D01*
X163350499Y-24136296D01*
X163350500Y-24136284D01*
X163350500Y-23923715D01*
X163350499Y-23923703D01*
X163317246Y-23713759D01*
X163317246Y-23713757D01*
X163251557Y-23511588D01*
X163155051Y-23322184D01*
X163030104Y-23150208D01*
X162879792Y-22999896D01*
X162707816Y-22874949D01*
X162518412Y-22778443D01*
X162518409Y-22778442D01*
X162518407Y-22778441D01*
X162316240Y-22712753D01*
X162106296Y-22679500D01*
X162106287Y-22679500D01*
X161893713Y-22679500D01*
X161893703Y-22679500D01*
X161683759Y-22712753D01*
X161481592Y-22778441D01*
X161292182Y-22874950D01*
X161120206Y-22999897D01*
X160969896Y-23150207D01*
X160931445Y-23203131D01*
X160860101Y-23269080D01*
X160768951Y-23302707D01*
X160671871Y-23298892D01*
X160583641Y-23258217D01*
X160528555Y-23203131D01*
X160490103Y-23150207D01*
X160339793Y-22999897D01*
X160167817Y-22874950D01*
X160167818Y-22874950D01*
X160167816Y-22874949D01*
X159978412Y-22778443D01*
X159978409Y-22778442D01*
X159978407Y-22778441D01*
X159776240Y-22712753D01*
X159566296Y-22679500D01*
X159566287Y-22679500D01*
X159353713Y-22679500D01*
X159353703Y-22679500D01*
X159143759Y-22712753D01*
X158941592Y-22778441D01*
X158752182Y-22874950D01*
X158580206Y-22999897D01*
X158429896Y-23150207D01*
X158391445Y-23203131D01*
X158320101Y-23269080D01*
X158228951Y-23302707D01*
X158131871Y-23298892D01*
X158043641Y-23258217D01*
X157988555Y-23203131D01*
X157950103Y-23150207D01*
X157799793Y-22999897D01*
X157627817Y-22874950D01*
X157627818Y-22874950D01*
X157627816Y-22874949D01*
X157438412Y-22778443D01*
X157438409Y-22778442D01*
X157438407Y-22778441D01*
X157236240Y-22712753D01*
X157026296Y-22679500D01*
X157026287Y-22679500D01*
X156813713Y-22679500D01*
X156813703Y-22679500D01*
X156603759Y-22712753D01*
X156401592Y-22778441D01*
X156212182Y-22874950D01*
X156040206Y-22999897D01*
X155889896Y-23150207D01*
X155851445Y-23203131D01*
X155780101Y-23269080D01*
X155688951Y-23302707D01*
X155591871Y-23298892D01*
X155503641Y-23258217D01*
X155448555Y-23203131D01*
X155410103Y-23150207D01*
X155259793Y-22999897D01*
X155087817Y-22874950D01*
X155087818Y-22874950D01*
X155087816Y-22874949D01*
X154898412Y-22778443D01*
X154898409Y-22778442D01*
X154898407Y-22778441D01*
X154696240Y-22712753D01*
X154486296Y-22679500D01*
X154486287Y-22679500D01*
X154273713Y-22679500D01*
X154273703Y-22679500D01*
X154063759Y-22712753D01*
X153861592Y-22778441D01*
X153672182Y-22874950D01*
X153500206Y-22999897D01*
X153349897Y-23150206D01*
X153224950Y-23322182D01*
X153128441Y-23511592D01*
X153062753Y-23713759D01*
X153029500Y-23923703D01*
X153029500Y-24136296D01*
X153062753Y-24346240D01*
X153110444Y-24493019D01*
X153128443Y-24548412D01*
X153224949Y-24737816D01*
X153311446Y-24856869D01*
X153349897Y-24909793D01*
X153500207Y-25060103D01*
X153553131Y-25098555D01*
X153619080Y-25169899D01*
X153652707Y-25261049D01*
X153648892Y-25358129D01*
X153608217Y-25446359D01*
X153582842Y-25476070D01*
X153568985Y-25489926D01*
X153500208Y-25539896D01*
X153349896Y-25690208D01*
X153299926Y-25758985D01*
X153286070Y-25772842D01*
X153261657Y-25789153D01*
X153240101Y-25809080D01*
X153221644Y-25815888D01*
X153205288Y-25826818D01*
X153176496Y-25832545D01*
X153148951Y-25842707D01*
X153129292Y-25841934D01*
X153110000Y-25845772D01*
X153081207Y-25840044D01*
X153051871Y-25838892D01*
X153034005Y-25830655D01*
X153014712Y-25826818D01*
X152990302Y-25810508D01*
X152963641Y-25798217D01*
X152946996Y-25781572D01*
X152933930Y-25772842D01*
X152925199Y-25759775D01*
X152908555Y-25743131D01*
X152870103Y-25690207D01*
X152719793Y-25539897D01*
X152666870Y-25501446D01*
X152547816Y-25414949D01*
X152358412Y-25318443D01*
X152358409Y-25318442D01*
X152358407Y-25318441D01*
X152156240Y-25252753D01*
X151946296Y-25219500D01*
X151946287Y-25219500D01*
X151733713Y-25219500D01*
X151733703Y-25219500D01*
X151523759Y-25252753D01*
X151321592Y-25318441D01*
X151132182Y-25414950D01*
X150960206Y-25539897D01*
X150809896Y-25690207D01*
X150771445Y-25743131D01*
X150700101Y-25809080D01*
X150608951Y-25842707D01*
X150511871Y-25838892D01*
X150423641Y-25798217D01*
X150393931Y-25772842D01*
X150380070Y-25758981D01*
X150330104Y-25690208D01*
X150179792Y-25539896D01*
X150111014Y-25489926D01*
X150097158Y-25476070D01*
X150080848Y-25451661D01*
X150060920Y-25430103D01*
X150054111Y-25411646D01*
X150043181Y-25395289D01*
X150037453Y-25366493D01*
X150027293Y-25338953D01*
X150028065Y-25319296D01*
X150024227Y-25300000D01*
X150029954Y-25271205D01*
X150031107Y-25241873D01*
X150039342Y-25224007D01*
X150043181Y-25204712D01*
X150059490Y-25180303D01*
X150071781Y-25153642D01*
X150088427Y-25136995D01*
X150097157Y-25123931D01*
X150110221Y-25115201D01*
X150126867Y-25098555D01*
X150179792Y-25060104D01*
X150330104Y-24909792D01*
X150455051Y-24737816D01*
X150551557Y-24548412D01*
X150617246Y-24346243D01*
X150638963Y-24209130D01*
X150650499Y-24136296D01*
X150650500Y-24136284D01*
X150650500Y-23923715D01*
X150650499Y-23923703D01*
X150617246Y-23713759D01*
X150617246Y-23713757D01*
X150551557Y-23511588D01*
X150455051Y-23322184D01*
X150330104Y-23150208D01*
X150179792Y-22999896D01*
X150007816Y-22874949D01*
X149818412Y-22778443D01*
X149818409Y-22778442D01*
X149818407Y-22778441D01*
X149616240Y-22712753D01*
X149406296Y-22679500D01*
X149406287Y-22679500D01*
X149193713Y-22679500D01*
X149193703Y-22679500D01*
X148983759Y-22712753D01*
X148781592Y-22778441D01*
X148592182Y-22874950D01*
X148420206Y-22999897D01*
X148269896Y-23150207D01*
X148231445Y-23203131D01*
X148160101Y-23269080D01*
X148068951Y-23302707D01*
X147971871Y-23298892D01*
X147883641Y-23258217D01*
X147828555Y-23203131D01*
X147790103Y-23150207D01*
X147639793Y-22999897D01*
X147467817Y-22874950D01*
X147467818Y-22874950D01*
X147467816Y-22874949D01*
X147278412Y-22778443D01*
X147278409Y-22778442D01*
X147278407Y-22778441D01*
X147076240Y-22712753D01*
X146866296Y-22679500D01*
X146866287Y-22679500D01*
X146653713Y-22679500D01*
X146653703Y-22679500D01*
X146443759Y-22712753D01*
X146241592Y-22778441D01*
X146052182Y-22874950D01*
X145880206Y-22999897D01*
X145729897Y-23150206D01*
X145604950Y-23322182D01*
X145508441Y-23511592D01*
X145442753Y-23713759D01*
X145409500Y-23923703D01*
X145409500Y-24136296D01*
X145442753Y-24346240D01*
X145490444Y-24493019D01*
X145508443Y-24548412D01*
X145604949Y-24737816D01*
X145691446Y-24856869D01*
X145729897Y-24909793D01*
X145880207Y-25060103D01*
X145933131Y-25098555D01*
X145999080Y-25169899D01*
X146032707Y-25261049D01*
X146028892Y-25358129D01*
X145988217Y-25446359D01*
X145962842Y-25476070D01*
X145948985Y-25489926D01*
X145880208Y-25539896D01*
X145729896Y-25690208D01*
X145679926Y-25758985D01*
X145666070Y-25772842D01*
X145641657Y-25789153D01*
X145620101Y-25809080D01*
X145601644Y-25815888D01*
X145585288Y-25826818D01*
X145556496Y-25832545D01*
X145528951Y-25842707D01*
X145509292Y-25841934D01*
X145490000Y-25845772D01*
X145461207Y-25840044D01*
X145431871Y-25838892D01*
X145414005Y-25830655D01*
X145394712Y-25826818D01*
X145370302Y-25810508D01*
X145343641Y-25798217D01*
X145326996Y-25781572D01*
X145313930Y-25772842D01*
X145305199Y-25759775D01*
X145288555Y-25743131D01*
X145250103Y-25690207D01*
X145099793Y-25539897D01*
X145046870Y-25501446D01*
X144927816Y-25414949D01*
X144738412Y-25318443D01*
X144738409Y-25318442D01*
X144738407Y-25318441D01*
X144536240Y-25252753D01*
X144326296Y-25219500D01*
X144326287Y-25219500D01*
X144113713Y-25219500D01*
X144113703Y-25219500D01*
X143903759Y-25252753D01*
X143701592Y-25318441D01*
X143512182Y-25414950D01*
X143340206Y-25539897D01*
X143189896Y-25690207D01*
X143151445Y-25743131D01*
X143080101Y-25809080D01*
X142988951Y-25842707D01*
X142891871Y-25838892D01*
X142803641Y-25798217D01*
X142773931Y-25772842D01*
X142760070Y-25758981D01*
X142710104Y-25690208D01*
X142559792Y-25539896D01*
X142491014Y-25489926D01*
X142477158Y-25476070D01*
X142460848Y-25451661D01*
X142440920Y-25430103D01*
X142434111Y-25411646D01*
X142423181Y-25395289D01*
X142417453Y-25366493D01*
X142407293Y-25338953D01*
X142408065Y-25319296D01*
X142404227Y-25300000D01*
X142409954Y-25271205D01*
X142411107Y-25241873D01*
X142419342Y-25224007D01*
X142423181Y-25204712D01*
X142439490Y-25180303D01*
X142451781Y-25153642D01*
X142468427Y-25136995D01*
X142477157Y-25123931D01*
X142490221Y-25115201D01*
X142506867Y-25098555D01*
X142559792Y-25060104D01*
X142710104Y-24909792D01*
X142835051Y-24737816D01*
X142931557Y-24548412D01*
X142997246Y-24346243D01*
X143018963Y-24209130D01*
X143030499Y-24136296D01*
X143030500Y-24136284D01*
X143030500Y-23923715D01*
X143030499Y-23923703D01*
X142997246Y-23713759D01*
X142997246Y-23713757D01*
X142931557Y-23511588D01*
X142835051Y-23322184D01*
X142710104Y-23150208D01*
X142559792Y-22999896D01*
X142387816Y-22874949D01*
X142198412Y-22778443D01*
X142198409Y-22778442D01*
X142198407Y-22778441D01*
X141996240Y-22712753D01*
X141786296Y-22679500D01*
X141786287Y-22679500D01*
X141573713Y-22679500D01*
X141573703Y-22679500D01*
X141363759Y-22712753D01*
X141161592Y-22778441D01*
X140972182Y-22874950D01*
X140800206Y-22999897D01*
X140649896Y-23150207D01*
X140611445Y-23203131D01*
X140540101Y-23269080D01*
X140448951Y-23302707D01*
X140351871Y-23298892D01*
X140263641Y-23258217D01*
X140208555Y-23203131D01*
X140170103Y-23150207D01*
X140019793Y-22999897D01*
X139847817Y-22874950D01*
X139847818Y-22874950D01*
X139847816Y-22874949D01*
X139658412Y-22778443D01*
X139658409Y-22778442D01*
X139658407Y-22778441D01*
X139456240Y-22712753D01*
X139246296Y-22679500D01*
X139246287Y-22679500D01*
X139033713Y-22679500D01*
X139033703Y-22679500D01*
X138823759Y-22712753D01*
X138621592Y-22778441D01*
X138432182Y-22874950D01*
X138260206Y-22999897D01*
X138109896Y-23150207D01*
X138071445Y-23203131D01*
X138000101Y-23269080D01*
X137908951Y-23302707D01*
X137811871Y-23298892D01*
X137723641Y-23258217D01*
X137668555Y-23203131D01*
X137630103Y-23150207D01*
X137479793Y-22999897D01*
X137307817Y-22874950D01*
X137307818Y-22874950D01*
X137307816Y-22874949D01*
X137118412Y-22778443D01*
X137118409Y-22778442D01*
X137118407Y-22778441D01*
X136916240Y-22712753D01*
X136706296Y-22679500D01*
X136706287Y-22679500D01*
X136493713Y-22679500D01*
X136493703Y-22679500D01*
X136283759Y-22712753D01*
X136081592Y-22778441D01*
X135892182Y-22874950D01*
X135720206Y-22999897D01*
X135569897Y-23150206D01*
X135444950Y-23322182D01*
X135348441Y-23511592D01*
X135282753Y-23713759D01*
X135249500Y-23923703D01*
X135249500Y-24136296D01*
X135282753Y-24346240D01*
X135330444Y-24493019D01*
X135348443Y-24548412D01*
X135444949Y-24737816D01*
X135531446Y-24856869D01*
X135569897Y-24909793D01*
X135720207Y-25060103D01*
X135773131Y-25098555D01*
X135839080Y-25169899D01*
X135872707Y-25261049D01*
X135868892Y-25358129D01*
X135828217Y-25446359D01*
X135802842Y-25476070D01*
X135788985Y-25489926D01*
X135720208Y-25539896D01*
X135569896Y-25690208D01*
X135519926Y-25758985D01*
X135506070Y-25772842D01*
X135481657Y-25789153D01*
X135460101Y-25809080D01*
X135441644Y-25815888D01*
X135425288Y-25826818D01*
X135396496Y-25832545D01*
X135368951Y-25842707D01*
X135349292Y-25841934D01*
X135330000Y-25845772D01*
X135301207Y-25840044D01*
X135271871Y-25838892D01*
X135254005Y-25830655D01*
X135234712Y-25826818D01*
X135210302Y-25810508D01*
X135183641Y-25798217D01*
X135166996Y-25781572D01*
X135153930Y-25772842D01*
X135145199Y-25759775D01*
X135128555Y-25743131D01*
X135090103Y-25690207D01*
X134939793Y-25539897D01*
X134886870Y-25501446D01*
X134767816Y-25414949D01*
X134578412Y-25318443D01*
X134578409Y-25318442D01*
X134578407Y-25318441D01*
X134376240Y-25252753D01*
X134166296Y-25219500D01*
X134166287Y-25219500D01*
X133953713Y-25219500D01*
X133953703Y-25219500D01*
X133743759Y-25252753D01*
X133541592Y-25318441D01*
X133352182Y-25414950D01*
X133180206Y-25539897D01*
X133029896Y-25690207D01*
X132991445Y-25743131D01*
X132920101Y-25809080D01*
X132828951Y-25842707D01*
X132731871Y-25838892D01*
X132643641Y-25798217D01*
X132613931Y-25772842D01*
X132600070Y-25758981D01*
X132550104Y-25690208D01*
X132399792Y-25539896D01*
X132331014Y-25489926D01*
X132317158Y-25476070D01*
X132300848Y-25451661D01*
X132280920Y-25430103D01*
X132274111Y-25411646D01*
X132263181Y-25395289D01*
X132257453Y-25366493D01*
X132247293Y-25338953D01*
X132248065Y-25319296D01*
X132244227Y-25300000D01*
X132249954Y-25271205D01*
X132251107Y-25241873D01*
X132259342Y-25224007D01*
X132263181Y-25204712D01*
X132279490Y-25180303D01*
X132291781Y-25153642D01*
X132308427Y-25136995D01*
X132317157Y-25123931D01*
X132330221Y-25115201D01*
X132346867Y-25098555D01*
X132399792Y-25060104D01*
X132550104Y-24909792D01*
X132675051Y-24737816D01*
X132771557Y-24548412D01*
X132837246Y-24346243D01*
X132858963Y-24209130D01*
X132870499Y-24136296D01*
X132870500Y-24136284D01*
X132870500Y-23923715D01*
X132870499Y-23923703D01*
X132837246Y-23713759D01*
X132837246Y-23713757D01*
X132771557Y-23511588D01*
X132675051Y-23322184D01*
X132550104Y-23150208D01*
X132399792Y-22999896D01*
X132227816Y-22874949D01*
X132038412Y-22778443D01*
X132038409Y-22778442D01*
X132038407Y-22778441D01*
X131836240Y-22712753D01*
X131626296Y-22679500D01*
X131626287Y-22679500D01*
X131413713Y-22679500D01*
X131413703Y-22679500D01*
X131203759Y-22712753D01*
X131001592Y-22778441D01*
X130812182Y-22874950D01*
X130640206Y-22999897D01*
X130489896Y-23150207D01*
X130451445Y-23203131D01*
X130380101Y-23269080D01*
X130288951Y-23302707D01*
X130191871Y-23298892D01*
X130103641Y-23258217D01*
X130048555Y-23203131D01*
X130010103Y-23150207D01*
X129859793Y-22999897D01*
X129687817Y-22874950D01*
X129687818Y-22874950D01*
X129687816Y-22874949D01*
X129498412Y-22778443D01*
X129498409Y-22778442D01*
X129498407Y-22778441D01*
X129296240Y-22712753D01*
X129086296Y-22679500D01*
X129086287Y-22679500D01*
X128873713Y-22679500D01*
X128873703Y-22679500D01*
X128663759Y-22712753D01*
X128461592Y-22778441D01*
X128272182Y-22874950D01*
X128100206Y-22999897D01*
X127949897Y-23150206D01*
X127824950Y-23322182D01*
X127728441Y-23511592D01*
X127662753Y-23713759D01*
X127629500Y-23923703D01*
X120610853Y-23923703D01*
X120622110Y-23857447D01*
X120628319Y-23830242D01*
X120712143Y-23539282D01*
X120721365Y-23512929D01*
X120810022Y-23298892D01*
X120837246Y-23233167D01*
X120849347Y-23208038D01*
X120995830Y-22942997D01*
X121010671Y-22919377D01*
X121185896Y-22672420D01*
X121203304Y-22650593D01*
X121405071Y-22424816D01*
X121424816Y-22405071D01*
X121650593Y-22203304D01*
X121672424Y-22185894D01*
X121919377Y-22010671D01*
X121942997Y-21995830D01*
X122208038Y-21849347D01*
X122233167Y-21837246D01*
X122447399Y-21748508D01*
X122512929Y-21721365D01*
X122539285Y-21712143D01*
X122830242Y-21628319D01*
X122857447Y-21622110D01*
X123155992Y-21571385D01*
X123183712Y-21568262D01*
X123468226Y-21552284D01*
X123493021Y-21550892D01*
X123506982Y-21550500D01*
X123516409Y-21550500D01*
X182483591Y-21550500D01*
X182493018Y-21550500D01*
X182506979Y-21550892D01*
G37*
%TD.AperFunction*%
%TD*%
M02*
