M48
; DRILL file KiCad 10.0.3 date 2026-06-09T18:56:00
; FORMAT={-:-/ absolute / metric / decimal}
; #@! TF.CreationDate,2026-06-09T18:56:00+05:30
; #@! TF.GenerationSoftware,Kicad,Pcbnew,10.0.3
; #@! TF.FileFunction,Plated,1,4,PTH
FMAT,2
METRIC
; #@! TA.AperFunction,Plated,PTH,ViaDrill
T1C0.400
; #@! TA.AperFunction,Plated,PTH,ComponentDrill
T2C0.600
; #@! TA.AperFunction,Plated,PTH,ComponentDrill
T3C0.800
; #@! TA.AperFunction,Plated,PTH,ComponentDrill
T4C0.850
; #@! TA.AperFunction,Plated,PTH,ComponentDrill
T5C1.000
; #@! TA.AperFunction,Plated,PTH,ComponentDrill
T6C1.100
; #@! TA.AperFunction,Plated,PTH,ComponentDrill
T7C1.500
; #@! TA.AperFunction,Plated,PTH,ComponentDrill
T8C1.700
%
G90
G05
T1
X121.75Y-35.75
X121.85Y-30.95
X121.85Y-33.2
X121.85Y-38.4
X121.85Y-40.45
X121.85Y-64.2
X121.95Y-59.4
X121.95Y-61.65
X121.95Y-66.85
X121.95Y-68.9
X123.8Y-35.275
X123.825Y-36.225
X124.3Y-30.9
X124.3Y-40.55
X124.35Y-63.6
X124.35Y-64.85
X124.4Y-59.4
X124.4Y-69.0
X126.35Y-33.15
X126.4Y-38.5
X126.45Y-61.6
X126.5Y-66.95
X126.85Y-30.8
X126.95Y-40.55
X126.95Y-59.25
X127.05Y-69.0
X127.45Y-33.1
X127.5Y-38.5
X127.55Y-61.55
X127.6Y-66.95
X129.4Y-30.85
X129.45Y-40.55
X129.5Y-59.3
X129.55Y-69.0
X130.95Y-56.675
X131.4Y-43.3
X131.4Y-57.7
X131.4Y-59.35
X131.5Y-45.5
X131.5Y-47.6
X131.5Y-53.95
X131.55Y-30.9
X131.6Y-52.0
X131.65Y-38.35
X131.65Y-40.55
X131.75Y-66.8
X131.75Y-69.0
X132.25Y-32.2
X132.4Y-35.75
X132.7Y-39.9
X133.4Y-30.7
X133.45Y-34.4
X134.1Y-68.35
X134.2Y-44.9
X134.2Y-46.2
X134.3Y-43.0
X134.3Y-54.1
X134.3Y-55.5
X134.4Y-49.9
X134.4Y-51.2
X134.4Y-52.7
X134.9Y-57.2
X135.2Y-59.2
X135.2Y-60.7
X135.2Y-62.1
X135.575Y-75.05
X135.8Y-41.6
X135.9Y-39.3
X136.144Y-35.052
X136.7Y-45.5
X136.75Y-30.45
X136.906Y-38.354
X137.45Y-32.85
X137.95Y-41.65
X137.95Y-55.6
X137.95Y-59.4
X138.0Y-34.0
X138.0Y-35.3
X138.0Y-36.55
X138.0Y-37.85
X138.0Y-39.1
X138.0Y-42.95
X138.0Y-50.55
X138.0Y-53.1
X138.05Y-49.3
X138.05Y-51.8
X138.05Y-54.35
X138.05Y-56.8
X138.1Y-58.15
X138.7Y-70.3
X138.7Y-75.0
X139.1Y-63.1
X139.15Y-30.45
X139.15Y-32.825
X139.95Y-68.105
X140.25Y-65.9
X140.45Y-63.1
X141.025Y-32.875
X141.3Y-30.45
X141.65Y-63.1
X141.65Y-66.5
X141.8Y-75.0
X143.0Y-37.8
X143.0Y-46.8
X143.0Y-48.0
X143.0Y-49.2
X143.0Y-50.5
X143.0Y-51.8
X143.0Y-53.1
X143.0Y-54.3
X143.0Y-55.6
X143.0Y-56.9
X143.0Y-58.1
X143.1Y-39.1
X143.1Y-40.4
X143.1Y-41.7
X143.1Y-42.9
X143.1Y-44.2
X143.1Y-45.5
X143.2Y-31.4
X143.225Y-68.125
X144.1Y-32.65
X144.3Y-37.8
X144.775Y-75.0
X145.6Y-37.8
X145.725Y-64.675
X146.3Y-41.1
X146.4Y-54.8
X146.7Y-58.3
X147.0Y-38.5
X147.4Y-63.05
X147.5Y-53.7
X147.6Y-41.9
X147.825Y-69.025
X148.0Y-37.8
X148.0Y-58.3
X148.7Y-63.05
X149.3Y-58.3
X151.8Y-32.85
X151.8Y-64.05
X151.9Y-58.25
X152.8Y-65.1
X153.4Y-48.05
X153.725Y-38.0
X156.9Y-37.85
X157.48Y-65.024
X157.9Y-39.05
X158.14Y-30.98
X158.5Y-41.95
X158.7Y-53.5
X159.47Y-30.98
X159.5Y-58.15
X159.65Y-41.0
X159.8Y-54.7
X160.69Y-30.99
X160.7Y-63.1
X161.61Y-67.71
X161.9Y-30.99
X161.9Y-64.35
X162.0Y-37.8
X162.75Y-75.5
X162.85Y-44.2
X163.15Y-45.4
X163.2Y-31.0
X163.2Y-52.45
X163.2Y-53.7
X163.2Y-58.15
X163.25Y-56.3
X163.3Y-37.8
X163.525Y-64.875
X163.55Y-72.5
X164.55Y-32.95
X165.1Y-65.75
X165.3Y-29.625
X165.8Y-32.9
X165.85Y-67.775
X166.0Y-72.05
X166.075Y-63.15
X166.85Y-63.975
X167.625Y-64.725
X168.15Y-35.3
X168.75Y-50.5
X169.2Y-66.625
X169.25Y-72.15
X169.375Y-71.125
X169.75Y-36.95
X170.18Y-56.388
X170.2Y-47.3
X170.2Y-48.8
X170.2Y-50.1
X170.25Y-53.075
X170.25Y-54.4
X170.3Y-45.4
X170.434Y-58.928
X170.5Y-32.6
X170.7Y-41.2
X170.775Y-71.975
X171.0Y-43.2
X171.05Y-69.325
X171.45Y-57.94
X172.925Y-73.3
X173.482Y-61.976
X173.6Y-75.8
X174.5Y-44.8
X174.675Y-54.2
X174.7Y-61.5
X176.1Y-31.5
X178.1Y-33.1
X178.45Y-58.85
X178.8Y-42.5
X178.95Y-34.55
X181.2Y-42.2
X181.4Y-54.2
T3
X128.6Y-48.775
X128.6Y-50.775
X128.6Y-52.775
X177.6Y-64.7
X177.6Y-66.7
X177.6Y-68.7
T4
X165.7Y-73.8
X170.7Y-73.8
T5
X128.98Y-24.03
X128.98Y-26.57
X131.52Y-24.03
X131.52Y-26.57
X134.06Y-24.03
X134.06Y-26.57
X136.6Y-24.03
X136.6Y-26.57
X139.14Y-24.03
X139.14Y-26.57
X141.68Y-24.03
X141.68Y-26.57
X144.22Y-24.03
X144.22Y-26.57
X146.76Y-24.03
X146.76Y-26.57
X149.3Y-24.03
X149.3Y-26.57
X151.84Y-24.03
X151.84Y-26.57
X154.38Y-24.03
X154.38Y-26.57
X156.92Y-24.03
X156.92Y-26.57
X159.46Y-24.03
X159.46Y-26.57
X162.0Y-24.03
X162.0Y-26.57
X164.54Y-24.03
X164.54Y-26.57
X167.08Y-24.03
X167.08Y-26.57
X169.62Y-24.03
X169.62Y-26.57
X172.16Y-24.03
X172.16Y-26.57
X174.7Y-24.03
X174.7Y-26.57
X177.24Y-24.03
X177.24Y-26.57
T6
X181.3Y-37.56
X181.3Y-40.1
X181.3Y-44.6
X181.3Y-47.14
X181.3Y-49.68
X181.3Y-52.22
X181.3Y-56.1
X181.3Y-58.64
X181.3Y-61.18
X181.3Y-63.72
X181.3Y-66.26
X181.3Y-68.8
T7
X126.9Y-35.814
X126.9Y-64.2
T8
X124.36Y-33.274
X124.36Y-38.354
X124.36Y-61.66
X124.36Y-66.74
X129.44Y-33.274
X129.44Y-38.354
X129.44Y-61.66
X129.44Y-66.74
T2
G00X164.7Y-76.85
M15
G01X164.7Y-76.15
M16
G05
G00X171.7Y-76.15
M15
G01X171.7Y-76.85
M16
G05
M30
