%TF.GenerationSoftware,KiCad,Pcbnew,10.0.3*%
%TF.CreationDate,2026-06-09T18:55:56+05:30*%
%TF.ProjectId,MosaicCore HAT,4d6f7361-6963-4436-9f72-65204841542e,rev?*%
%TF.SameCoordinates,Original*%
%TF.FileFunction,Copper,L4,Bot*%
%TF.FilePolarity,Positive*%
%FSLAX46Y46*%
G04 Gerber Fmt 4.6, Leading zero omitted, Abs format (unit mm)*
G04 Created by KiCad (PCBNEW 10.0.3) date 2026-06-09 18:55:56*
%MOMM*%
%LPD*%
G01*
G04 APERTURE LIST*
%TA.AperFunction,ComponentPad*%
%ADD10O,1.200000X1.900000*%
%TD*%
%TA.AperFunction,ComponentPad*%
%ADD11C,1.450000*%
%TD*%
%TA.AperFunction,ComponentPad*%
%ADD12R,1.350000X1.350000*%
%TD*%
%TA.AperFunction,ComponentPad*%
%ADD13O,1.350000X1.350000*%
%TD*%
%TA.AperFunction,ComponentPad*%
%ADD14C,2.250000*%
%TD*%
%TA.AperFunction,ComponentPad*%
%ADD15R,1.700000X1.700000*%
%TD*%
%TA.AperFunction,ComponentPad*%
%ADD16O,1.700000X1.700000*%
%TD*%
%TA.AperFunction,ViaPad*%
%ADD17C,0.800000*%
%TD*%
%TA.AperFunction,Conductor*%
%ADD18C,0.250000*%
%TD*%
%TA.AperFunction,Conductor*%
%ADD19C,0.500000*%
%TD*%
%TA.AperFunction,Conductor*%
%ADD20C,0.700000*%
%TD*%
G04 APERTURE END LIST*
D10*
%TO.P,J3,6*%
%TO.N,GND*%
X164700000Y-76500000D03*
D11*
X165700000Y-73800000D03*
X170700000Y-73800000D03*
D10*
X171700000Y-76500000D03*
%TD*%
D12*
%TO.P,JP1,1*%
%TO.N,+3V3*%
X128600000Y-48775000D03*
D13*
%TO.P,JP1,2*%
%TO.N,/VANT*%
X128600000Y-50775000D03*
%TO.P,JP1,3*%
%TO.N,+5V*%
X128600000Y-52775000D03*
%TD*%
D12*
%TO.P,JP2,1*%
%TO.N,+3V3*%
X177600000Y-68700000D03*
D13*
%TO.P,JP2,2*%
%TO.N,/FTDI_PWR*%
X177600000Y-66700000D03*
%TO.P,JP2,3*%
%TO.N,+5V*%
X177600000Y-64700000D03*
%TD*%
D14*
%TO.P,J1,1*%
%TO.N,/ANT1*%
X126900000Y-35814000D03*
%TO.P,J1,2*%
%TO.N,GND*%
X124360000Y-38354000D03*
X129440000Y-38354000D03*
X124360000Y-33274000D03*
X129440000Y-33274000D03*
%TD*%
D15*
%TO.P,J6,1*%
%TO.N,GND*%
X181300000Y-56100000D03*
D16*
%TO.P,J6,2*%
%TO.N,/MosaicCTS2*%
X181300000Y-58640000D03*
%TO.P,J6,3*%
%TO.N,/FTDI_PWR*%
X181300000Y-61180000D03*
%TO.P,J6,4*%
%TO.N,/MosaicRX2*%
X181300000Y-63720000D03*
%TO.P,J6,5*%
%TO.N,/MosaicTX2*%
X181300000Y-66260000D03*
%TO.P,J6,6*%
%TO.N,/MosaicRTS2*%
X181300000Y-68800000D03*
%TD*%
D15*
%TO.P,J5,1*%
%TO.N,/EVENTA_3V3*%
X181300000Y-44600000D03*
D16*
%TO.P,J5,2*%
%TO.N,/EVENTB_3V3*%
X181300000Y-47140000D03*
%TO.P,J5,3*%
%TO.N,/PPSO_3V3*%
X181300000Y-49680000D03*
%TO.P,J5,4*%
%TO.N,GND*%
X181300000Y-52220000D03*
%TD*%
D15*
%TO.P,J7,1*%
%TO.N,/External_5V*%
X181300000Y-37560000D03*
D16*
%TO.P,J7,2*%
%TO.N,GND*%
X181300000Y-40100000D03*
%TD*%
D14*
%TO.P,J2,1*%
%TO.N,/ANT2*%
X126900000Y-64200000D03*
%TO.P,J2,2*%
%TO.N,GND*%
X124360000Y-66740000D03*
X129440000Y-66740000D03*
X124360000Y-61660000D03*
X129440000Y-61660000D03*
%TD*%
D15*
%TO.P,J4,1*%
%TO.N,Net-(J4-Pad1)*%
X128980000Y-26570000D03*
D16*
%TO.P,J4,2*%
%TO.N,/RPI_P5V*%
X128980000Y-24030000D03*
%TO.P,J4,3*%
%TO.N,Net-(J4-Pad3)*%
X131520000Y-26570000D03*
%TO.P,J4,4*%
%TO.N,/RPI_P5V*%
X131520000Y-24030000D03*
%TO.P,J4,5*%
%TO.N,Net-(J4-Pad5)*%
X134060000Y-26570000D03*
%TO.P,J4,6*%
%TO.N,GND*%
X134060000Y-24030000D03*
%TO.P,J4,7*%
%TO.N,Net-(J4-Pad7)*%
X136600000Y-26570000D03*
%TO.P,J4,8*%
%TO.N,/MosaicRX1*%
X136600000Y-24030000D03*
%TO.P,J4,9*%
%TO.N,GND*%
X139140000Y-26570000D03*
%TO.P,J4,10*%
%TO.N,/MosaicTX1*%
X139140000Y-24030000D03*
%TO.P,J4,11*%
%TO.N,Net-(J4-Pad11)*%
X141680000Y-26570000D03*
%TO.P,J4,12*%
%TO.N,Net-(J4-Pad12)*%
X141680000Y-24030000D03*
%TO.P,J4,13*%
%TO.N,Net-(J4-Pad13)*%
X144220000Y-26570000D03*
%TO.P,J4,14*%
%TO.N,GND*%
X144220000Y-24030000D03*
%TO.P,J4,15*%
%TO.N,Net-(J4-Pad15)*%
X146760000Y-26570000D03*
%TO.P,J4,16*%
%TO.N,Net-(J4-Pad16)*%
X146760000Y-24030000D03*
%TO.P,J4,17*%
%TO.N,Net-(J4-Pad17)*%
X149300000Y-26570000D03*
%TO.P,J4,18*%
%TO.N,Net-(J4-Pad18)*%
X149300000Y-24030000D03*
%TO.P,J4,19*%
%TO.N,Net-(J4-Pad19)*%
X151840000Y-26570000D03*
%TO.P,J4,20*%
%TO.N,GND*%
X151840000Y-24030000D03*
%TO.P,J4,21*%
%TO.N,Net-(J4-Pad21)*%
X154380000Y-26570000D03*
%TO.P,J4,22*%
%TO.N,Net-(J4-Pad22)*%
X154380000Y-24030000D03*
%TO.P,J4,23*%
%TO.N,Net-(J4-Pad23)*%
X156920000Y-26570000D03*
%TO.P,J4,24*%
%TO.N,Net-(J4-Pad24)*%
X156920000Y-24030000D03*
%TO.P,J4,25*%
%TO.N,GND*%
X159460000Y-26570000D03*
%TO.P,J4,26*%
%TO.N,Net-(J4-Pad26)*%
X159460000Y-24030000D03*
%TO.P,J4,27*%
%TO.N,Net-(J4-Pad27)*%
X162000000Y-26570000D03*
%TO.P,J4,28*%
%TO.N,Net-(J4-Pad28)*%
X162000000Y-24030000D03*
%TO.P,J4,29*%
%TO.N,/nRST_IN*%
X164540000Y-26570000D03*
%TO.P,J4,30*%
%TO.N,GND*%
X164540000Y-24030000D03*
%TO.P,J4,31*%
%TO.N,/RPI_GP1*%
X167080000Y-26570000D03*
%TO.P,J4,32*%
%TO.N,Net-(J4-Pad32)*%
X167080000Y-24030000D03*
%TO.P,J4,33*%
%TO.N,Net-(J4-Pad33)*%
X169620000Y-26570000D03*
%TO.P,J4,34*%
%TO.N,GND*%
X169620000Y-24030000D03*
%TO.P,J4,35*%
%TO.N,Net-(J4-Pad35)*%
X172160000Y-26570000D03*
%TO.P,J4,36*%
%TO.N,Net-(J4-Pad36)*%
X172160000Y-24030000D03*
%TO.P,J4,37*%
%TO.N,/RPI_GP2*%
X174700000Y-26570000D03*
%TO.P,J4,38*%
%TO.N,Net-(J4-Pad38)*%
X174700000Y-24030000D03*
%TO.P,J4,39*%
%TO.N,GND*%
X177240000Y-26570000D03*
%TO.P,J4,40*%
%TO.N,Net-(J4-Pad40)*%
X177240000Y-24030000D03*
%TD*%
D17*
%TO.N,GND*%
X173600000Y-75800000D03*
X144775000Y-75000000D03*
X135575000Y-75050000D03*
X133400000Y-30700000D03*
X170300000Y-45400000D03*
X174500000Y-44800000D03*
X181200000Y-42200000D03*
X141800000Y-75000000D03*
X138700000Y-75000000D03*
X178100000Y-33100000D03*
X181400000Y-54200000D03*
X140250000Y-65900000D03*
X153400000Y-48050000D03*
X178450000Y-58850000D03*
X141025000Y-32875000D03*
X139150000Y-30450000D03*
X141300000Y-30450000D03*
X143200000Y-31400000D03*
X136750000Y-30450000D03*
X137450000Y-32850000D03*
X132250000Y-32200000D03*
X159500000Y-58150000D03*
X163200000Y-58150000D03*
X163250000Y-56300000D03*
X163200000Y-53700000D03*
X163200000Y-52450000D03*
X178800000Y-42500000D03*
X168750000Y-50500000D03*
X151900000Y-58250000D03*
X151800000Y-64050000D03*
X148700000Y-63050000D03*
X147400000Y-63050000D03*
X138100000Y-58150000D03*
X138050000Y-56800000D03*
X137950000Y-55600000D03*
X138050000Y-54350000D03*
X138000000Y-53100000D03*
X138050000Y-51800000D03*
X138000000Y-50550000D03*
X138050000Y-49300000D03*
X138000000Y-42950000D03*
X137950000Y-41650000D03*
X138000000Y-39100000D03*
X138000000Y-37850000D03*
X138000000Y-36550000D03*
X138000000Y-35300000D03*
X141650000Y-63100000D03*
X140450000Y-63100000D03*
X139100000Y-63100000D03*
X137950000Y-59400000D03*
X164550000Y-32950000D03*
X165800000Y-32900000D03*
X168150000Y-35300000D03*
X160700000Y-63100000D03*
X121850000Y-33200000D03*
X121850000Y-40450000D03*
X121750000Y-35750000D03*
X121850000Y-38400000D03*
X121850000Y-30950000D03*
X123800000Y-35275000D03*
X124300000Y-30900000D03*
X127500000Y-38500000D03*
X127450000Y-33100000D03*
X131550000Y-30900000D03*
X126850000Y-30800000D03*
X129450000Y-40550000D03*
X131650000Y-38350000D03*
X126950000Y-40550000D03*
X131650000Y-40550000D03*
X126400000Y-38500000D03*
X129400000Y-30850000D03*
X126350000Y-33150000D03*
X124300000Y-40550000D03*
X123825000Y-36225000D03*
X134400000Y-49900000D03*
X163550000Y-72500000D03*
X156900000Y-37850000D03*
X157900000Y-39050000D03*
X158500000Y-41950000D03*
X159650000Y-41000000D03*
X163150000Y-45400000D03*
X162850000Y-44200000D03*
X169250000Y-72150000D03*
X169375000Y-71125000D03*
X166000000Y-72050000D03*
X163525000Y-64875000D03*
X166850000Y-63975000D03*
X167625000Y-64725000D03*
X170775000Y-71975000D03*
X132400000Y-35750000D03*
X165100000Y-65750000D03*
X166075000Y-63150000D03*
X161900000Y-64350000D03*
X174675000Y-54200000D03*
X171050000Y-69325000D03*
X143000000Y-37800000D03*
X148000000Y-37800000D03*
X178950000Y-34550000D03*
X135900000Y-39300000D03*
X121850000Y-64200000D03*
X131600000Y-52000000D03*
X158700000Y-53500000D03*
X131500000Y-45500000D03*
X126450000Y-61600000D03*
X144300000Y-37800000D03*
X135800000Y-41600000D03*
X143100000Y-42900000D03*
X165850000Y-67775000D03*
X124400000Y-69000000D03*
X143000000Y-50500000D03*
X131750000Y-66800000D03*
X134200000Y-44900000D03*
X143000000Y-55600000D03*
X124400000Y-59400000D03*
X159800000Y-54700000D03*
X143000000Y-49200000D03*
X145725000Y-64675000D03*
X162000000Y-37800000D03*
X135200000Y-59200000D03*
X126950000Y-59250000D03*
X131500000Y-53950000D03*
X131750000Y-69000000D03*
X139150000Y-32825000D03*
X134400000Y-51200000D03*
X143100000Y-39100000D03*
X133450000Y-34400000D03*
X143000000Y-48000000D03*
X131400000Y-57700000D03*
X147600000Y-41900000D03*
X129500000Y-59300000D03*
X146400000Y-54800000D03*
X127600000Y-66950000D03*
X170434000Y-58928000D03*
X121950000Y-66850000D03*
X136144000Y-35052000D03*
X161900000Y-30990000D03*
X143000000Y-56900000D03*
X148000000Y-58300000D03*
X151800000Y-32850000D03*
X134300000Y-55500000D03*
X147500000Y-53700000D03*
X143100000Y-41700000D03*
X129550000Y-69000000D03*
X153725000Y-38000000D03*
X170500000Y-32600000D03*
X146300000Y-41100000D03*
X163300000Y-37800000D03*
X126500000Y-66950000D03*
X146700000Y-58300000D03*
X143100000Y-45500000D03*
X144100000Y-32650000D03*
X143000000Y-54300000D03*
X130950000Y-56675000D03*
X121950000Y-61650000D03*
X147000000Y-38500000D03*
X143000000Y-53100000D03*
X169200000Y-66625000D03*
X134900000Y-57200000D03*
X121950000Y-68900000D03*
X143000000Y-58100000D03*
X131400000Y-43300000D03*
X131500000Y-47600000D03*
X143100000Y-44200000D03*
X143100000Y-40400000D03*
X134300000Y-43000000D03*
X127550000Y-61550000D03*
X135200000Y-60700000D03*
X121950000Y-59400000D03*
X172925000Y-73300000D03*
X143000000Y-46800000D03*
X138000000Y-34000000D03*
X134400000Y-52700000D03*
X131400000Y-59350000D03*
X136906000Y-38354000D03*
X124350000Y-63600000D03*
X149300000Y-58300000D03*
X124350000Y-64850000D03*
X127050000Y-69000000D03*
X135200000Y-62100000D03*
X132700000Y-39900000D03*
X134200000Y-46200000D03*
X134300000Y-54100000D03*
X145600000Y-37800000D03*
X162750000Y-75500000D03*
X143000000Y-51800000D03*
%TO.N,+3V3*%
X170700000Y-41200000D03*
X141650000Y-66500000D03*
X134100000Y-68350000D03*
X173482000Y-61976000D03*
X157480000Y-65024000D03*
X169750000Y-36950000D03*
%TO.N,/RPI_P5V*%
X165300000Y-29625000D03*
%TO.N,/VANT*%
X136700000Y-45500000D03*
%TO.N,+1V8*%
X163200000Y-31000000D03*
X171000000Y-43200000D03*
%TO.N,/MosaicTX2*%
X170250000Y-53075000D03*
%TO.N,+5V*%
X176100000Y-31500000D03*
X174700000Y-61500000D03*
X161610000Y-67710000D03*
X147825000Y-69025000D03*
%TO.N,/MosaicRTS2*%
X170250000Y-54400000D03*
%TO.N,/RPI_GP1*%
X139950000Y-68105000D03*
%TO.N,/RPI_GP2*%
X143225000Y-68125000D03*
%TO.N,/PPSO_3V3*%
X138700000Y-70300000D03*
%TO.N,/PPSO_1V8*%
X158140000Y-30980000D03*
X170200000Y-50100000D03*
%TO.N,/EVENTB_1V8*%
X170200000Y-48800000D03*
X159470000Y-30980000D03*
%TO.N,/EVENTA_1V8*%
X160690000Y-30990000D03*
X170200000Y-47300000D03*
%TO.N,/MosaicTX1*%
X170180000Y-56388000D03*
%TO.N,/MosaicRX1*%
X171450000Y-57940000D03*
%TO.N,/nRST_IN*%
X152800000Y-65100000D03*
%TD*%
%TO.N,GND*%
D18*
X129680000Y-61600000D02*
X129540000Y-61460000D01*
%TO.N,/VANT*%
D19*
X128600000Y-50775000D02*
X131425000Y-50775000D01*
X131425000Y-50775000D02*
X136700000Y-45500000D01*
%TO.N,+1V8*%
D18*
X163200000Y-35400000D02*
X171000000Y-43200000D01*
X163200000Y-35400000D02*
X163200000Y-31000000D01*
%TO.N,+5V*%
D20*
X174700000Y-61500000D02*
X175893998Y-61500000D01*
X165969999Y-69030001D02*
X163730001Y-69030001D01*
X161610000Y-67710000D02*
X162410000Y-67710000D01*
X175893998Y-61500000D02*
X176100000Y-61706002D01*
X163730001Y-69030001D02*
X147830001Y-69030001D01*
X147830001Y-69030001D02*
X147825000Y-69025000D01*
X176100000Y-31500000D02*
X176100000Y-61706002D01*
X168776001Y-69030001D02*
X165969999Y-69030001D01*
X176100000Y-61706002D02*
X168776001Y-69030001D01*
X162410000Y-67710000D02*
X163730001Y-69030001D01*
%TO.N,/RPI_GP1*%
D18*
X147138589Y-66525001D02*
X167148001Y-66525001D01*
X173225001Y-29212999D02*
X172714002Y-28702000D01*
X169212000Y-28702000D02*
X167080000Y-26570000D01*
X172714002Y-28702000D02*
X169212000Y-28702000D01*
X146263591Y-67399999D02*
X147138589Y-66525001D01*
X167148001Y-66525001D02*
X173225001Y-60448001D01*
X140655001Y-67399999D02*
X146263591Y-67399999D01*
X173225001Y-60448001D02*
X173225001Y-29212999D01*
X139950000Y-68105000D02*
X140655001Y-67399999D01*
%TO.N,/RPI_GP2*%
X173720000Y-60589412D02*
X167334402Y-66975010D01*
X173720000Y-27550000D02*
X173720000Y-60589412D01*
X146175000Y-68125000D02*
X143225000Y-68125000D01*
X174700000Y-26570000D02*
X173720000Y-27550000D01*
X167334402Y-66975010D02*
X147324989Y-66975011D01*
X147324989Y-66975011D02*
X146175000Y-68125000D01*
%TO.N,/PPSO_3V3*%
X177200000Y-53780000D02*
X177200000Y-61900000D01*
X177200000Y-61900000D02*
X168800000Y-70300000D01*
X181300000Y-49680000D02*
X177200000Y-53780000D01*
X168800000Y-70300000D02*
X139400000Y-70300000D01*
X139400000Y-70300000D02*
X138900000Y-70300000D01*
%TO.N,/PPSO_1V8*%
X158100000Y-38000000D02*
X170200000Y-50100000D01*
X158100000Y-31020000D02*
X158100000Y-38000000D01*
X158140000Y-30980000D02*
X158100000Y-31020000D01*
%TO.N,/EVENTB_1V8*%
X159400000Y-31050000D02*
X159400000Y-38000000D01*
X159470000Y-30980000D02*
X159400000Y-31050000D01*
X159400000Y-38000000D02*
X170200000Y-48800000D01*
%TO.N,/EVENTA_1V8*%
X160690000Y-30990000D02*
X160700000Y-31000000D01*
X160700000Y-37800000D02*
X170200000Y-47300000D01*
X160700000Y-31000000D02*
X160700000Y-37800000D01*
%TO.N,/FTDI_PWR*%
D20*
X177600000Y-66700000D02*
X179500000Y-64800000D01*
X179500000Y-62980000D02*
X181300000Y-61180000D01*
X179500000Y-64800000D02*
X179500000Y-62980000D01*
%TO.N,/MosaicTX1*%
D18*
X146150000Y-29000000D02*
X146150000Y-32358000D01*
X140315001Y-25205001D02*
X140315001Y-26944003D01*
X146150000Y-32358000D02*
X170180000Y-56388000D01*
X145274990Y-28124990D02*
X146150000Y-29000000D01*
X141495988Y-28124990D02*
X145274990Y-28124990D01*
X139140000Y-24030000D02*
X140315001Y-25205001D01*
X170022000Y-56230000D02*
X170180000Y-56388000D01*
X140315001Y-26944003D02*
X141495988Y-28124990D01*
%TO.N,/MosaicRX1*%
X144125000Y-28575000D02*
X138625000Y-28575000D01*
X169903590Y-57940000D02*
X171450000Y-57940000D01*
X137775001Y-25205001D02*
X137775001Y-27725001D01*
X137775001Y-27725001D02*
X138625000Y-28575000D01*
X145200000Y-29650000D02*
X144125000Y-28575000D01*
X145200000Y-33236410D02*
X169903590Y-57940000D01*
X136600000Y-24030000D02*
X137775001Y-25205001D01*
X145200000Y-33236410D02*
X145200000Y-29650000D01*
%TO.N,/nRST_IN*%
X167434000Y-29464000D02*
X164540000Y-26570000D01*
X152800000Y-65100000D02*
X158210000Y-59690000D01*
X172212000Y-31496000D02*
X170180000Y-29464000D01*
X171160000Y-59690000D02*
X172212000Y-58638000D01*
X158210000Y-59690000D02*
X171160000Y-59690000D01*
X170180000Y-29464000D02*
X167434000Y-29464000D01*
X172212000Y-58638000D02*
X172212000Y-31496000D01*
%TD*%
%TA.AperFunction,Conductor*%
%TO.N,GND*%
G36*
X172808539Y-62461422D02*
G01*
X172889317Y-62515395D01*
X172971711Y-62597789D01*
X172971714Y-62597791D01*
X173102819Y-62685393D01*
X173102820Y-62685393D01*
X173102821Y-62685394D01*
X173248503Y-62745737D01*
X173248505Y-62745737D01*
X173248507Y-62745738D01*
X173415156Y-62778887D01*
X173414551Y-62781927D01*
X173486504Y-62803749D01*
X173561609Y-62865380D01*
X173607412Y-62951060D01*
X173616940Y-63047747D01*
X173588743Y-63140720D01*
X173545208Y-63199424D01*
X168538063Y-68206571D01*
X168457281Y-68260547D01*
X168361993Y-68279501D01*
X164144008Y-68279501D01*
X164048720Y-68260547D01*
X163967938Y-68206571D01*
X163686947Y-67925580D01*
X163632971Y-67844798D01*
X163614017Y-67749510D01*
X163632971Y-67654222D01*
X163686947Y-67573440D01*
X163767729Y-67519464D01*
X163863017Y-67500510D01*
X167249942Y-67500510D01*
X167249958Y-67500511D01*
X167265219Y-67500511D01*
X167403585Y-67500511D01*
X167520503Y-67469182D01*
X167537238Y-67464698D01*
X167657067Y-67395515D01*
X167754907Y-67297675D01*
X167754908Y-67297672D01*
X172537184Y-62515395D01*
X172617963Y-62461422D01*
X172713251Y-62442468D01*
X172808539Y-62461422D01*
G37*
%TD.AperFunction*%
%TA.AperFunction,Conductor*%
G36*
X172545790Y-59264761D02*
G01*
X172626571Y-59318738D01*
X172680547Y-59399519D01*
X172699501Y-59494807D01*
X172699501Y-60127191D01*
X172680547Y-60222479D01*
X172626571Y-60303261D01*
X167003262Y-65926571D01*
X166922480Y-65980547D01*
X166827192Y-65999501D01*
X158237716Y-65999501D01*
X158142428Y-65980547D01*
X158061646Y-65926571D01*
X158007670Y-65845789D01*
X157988716Y-65750501D01*
X158007670Y-65655213D01*
X158061643Y-65574434D01*
X158101789Y-65534289D01*
X158189394Y-65403179D01*
X158249737Y-65257497D01*
X158280500Y-65102842D01*
X158280500Y-64945158D01*
X158264855Y-64866507D01*
X158249738Y-64790507D01*
X158249737Y-64790505D01*
X158249737Y-64790503D01*
X158189394Y-64644821D01*
X158169838Y-64615554D01*
X158101791Y-64513714D01*
X158101789Y-64513711D01*
X157990289Y-64402211D01*
X157972921Y-64390606D01*
X157859180Y-64314606D01*
X157859173Y-64314603D01*
X157713497Y-64254263D01*
X157713492Y-64254261D01*
X157558846Y-64223500D01*
X157558842Y-64223500D01*
X157401158Y-64223500D01*
X157401153Y-64223500D01*
X157246507Y-64254261D01*
X157246502Y-64254263D01*
X157100826Y-64314603D01*
X157100819Y-64314606D01*
X156969714Y-64402208D01*
X156858208Y-64513714D01*
X156770606Y-64644819D01*
X156770603Y-64644826D01*
X156710263Y-64790502D01*
X156710261Y-64790507D01*
X156679500Y-64945153D01*
X156679500Y-65102846D01*
X156710261Y-65257492D01*
X156710263Y-65257497D01*
X156770603Y-65403173D01*
X156770606Y-65403180D01*
X156851289Y-65523930D01*
X156858211Y-65534289D01*
X156898356Y-65574434D01*
X156952330Y-65655213D01*
X156971284Y-65750501D01*
X156952330Y-65845789D01*
X156898354Y-65926571D01*
X156817572Y-65980547D01*
X156722284Y-65999501D01*
X153627572Y-65999501D01*
X153532284Y-65980547D01*
X153451502Y-65926571D01*
X153397526Y-65845789D01*
X153378572Y-65750501D01*
X153397526Y-65655213D01*
X153420536Y-65612164D01*
X153425515Y-65604712D01*
X153509394Y-65479179D01*
X153569737Y-65333497D01*
X153600500Y-65178842D01*
X153600500Y-65145809D01*
X153619454Y-65050521D01*
X153673430Y-64969739D01*
X158354739Y-60288430D01*
X158435521Y-60234454D01*
X158530809Y-60215500D01*
X171090813Y-60215500D01*
X171090817Y-60215501D01*
X171229183Y-60215501D01*
X171334591Y-60187256D01*
X171362836Y-60179688D01*
X171482665Y-60110505D01*
X171580505Y-60012665D01*
X171580505Y-60012663D01*
X171601005Y-59992164D01*
X171601006Y-59992161D01*
X172274432Y-59318736D01*
X172355213Y-59264761D01*
X172450501Y-59245807D01*
X172545790Y-59264761D01*
G37*
%TD.AperFunction*%
%TA.AperFunction,Conductor*%
G36*
X159715000Y-27904539D02*
G01*
X159777988Y-27894563D01*
X159778005Y-27894558D01*
X159981282Y-27828511D01*
X159981290Y-27828507D01*
X160171743Y-27731467D01*
X160171744Y-27731466D01*
X160344674Y-27605825D01*
X160495825Y-27454674D01*
X160594993Y-27318182D01*
X160666336Y-27252234D01*
X160757486Y-27218607D01*
X160854566Y-27222421D01*
X160942797Y-27263096D01*
X160997882Y-27318181D01*
X161046172Y-27384646D01*
X161185354Y-27523828D01*
X161185357Y-27523830D01*
X161338783Y-27635302D01*
X161344595Y-27639524D01*
X161519975Y-27728884D01*
X161707174Y-27789709D01*
X161901583Y-27820500D01*
X161901587Y-27820500D01*
X162098413Y-27820500D01*
X162098417Y-27820500D01*
X162292826Y-27789709D01*
X162480025Y-27728884D01*
X162655405Y-27639524D01*
X162814646Y-27523828D01*
X162953828Y-27384646D01*
X163068556Y-27226736D01*
X163139899Y-27160790D01*
X163231049Y-27127163D01*
X163328129Y-27130978D01*
X163416360Y-27171653D01*
X163471443Y-27226736D01*
X163586172Y-27384646D01*
X163725354Y-27523828D01*
X163725357Y-27523830D01*
X163878783Y-27635302D01*
X163884595Y-27639524D01*
X164059975Y-27728884D01*
X164247174Y-27789709D01*
X164441583Y-27820500D01*
X164441587Y-27820500D01*
X164638413Y-27820500D01*
X164638417Y-27820500D01*
X164832826Y-27789709D01*
X164832834Y-27789706D01*
X164842336Y-27787426D01*
X164842919Y-27789857D01*
X164922774Y-27780382D01*
X165016289Y-27806726D01*
X165079381Y-27852550D01*
X165637887Y-28411056D01*
X165691863Y-28491838D01*
X165710817Y-28587126D01*
X165691863Y-28682414D01*
X165637887Y-28763196D01*
X165557105Y-28817172D01*
X165461817Y-28836126D01*
X165413242Y-28831342D01*
X165378844Y-28824500D01*
X165378842Y-28824500D01*
X165221158Y-28824500D01*
X165221153Y-28824500D01*
X165066507Y-28855261D01*
X165066502Y-28855263D01*
X164920826Y-28915603D01*
X164920819Y-28915606D01*
X164789714Y-29003208D01*
X164678208Y-29114714D01*
X164590606Y-29245819D01*
X164590603Y-29245826D01*
X164530263Y-29391502D01*
X164530261Y-29391507D01*
X164499500Y-29546153D01*
X164499500Y-29703846D01*
X164530261Y-29858492D01*
X164530263Y-29858497D01*
X164590603Y-30004173D01*
X164590606Y-30004180D01*
X164593462Y-30008454D01*
X164678211Y-30135289D01*
X164789711Y-30246789D01*
X164789714Y-30246791D01*
X164920819Y-30334393D01*
X164920820Y-30334393D01*
X164920821Y-30334394D01*
X165066503Y-30394737D01*
X165066505Y-30394737D01*
X165066507Y-30394738D01*
X165099718Y-30401344D01*
X165221158Y-30425500D01*
X165378842Y-30425500D01*
X165533497Y-30394737D01*
X165679179Y-30334394D01*
X165810289Y-30246789D01*
X165921789Y-30135289D01*
X166009394Y-30004179D01*
X166069737Y-29858497D01*
X166100500Y-29703842D01*
X166100500Y-29546158D01*
X166093658Y-29511761D01*
X166093657Y-29414606D01*
X166130836Y-29324846D01*
X166199535Y-29256147D01*
X166289294Y-29218967D01*
X166386449Y-29218966D01*
X166476209Y-29256145D01*
X166513943Y-29287112D01*
X167013493Y-29786662D01*
X167013495Y-29786665D01*
X167111335Y-29884505D01*
X167111337Y-29884506D01*
X167111338Y-29884507D01*
X167231156Y-29953684D01*
X167231160Y-29953685D01*
X167231164Y-29953688D01*
X167259408Y-29961256D01*
X167364817Y-29989501D01*
X167503183Y-29989501D01*
X167503187Y-29989500D01*
X169859191Y-29989500D01*
X169954479Y-30008454D01*
X170035261Y-30062430D01*
X171613570Y-31640739D01*
X171667546Y-31721521D01*
X171686500Y-31816809D01*
X171686500Y-40453283D01*
X171667546Y-40548571D01*
X171613570Y-40629353D01*
X171532788Y-40683329D01*
X171437500Y-40702283D01*
X171342212Y-40683329D01*
X171261433Y-40629355D01*
X171210289Y-40578211D01*
X171165930Y-40548571D01*
X171079180Y-40490606D01*
X171079173Y-40490603D01*
X170933497Y-40430263D01*
X170933492Y-40430261D01*
X170778846Y-40399500D01*
X170778842Y-40399500D01*
X170621158Y-40399500D01*
X170621153Y-40399500D01*
X170466507Y-40430261D01*
X170466502Y-40430263D01*
X170320826Y-40490603D01*
X170320819Y-40490606D01*
X170189714Y-40578208D01*
X170078208Y-40689714D01*
X169990606Y-40820819D01*
X169990605Y-40820822D01*
X169949684Y-40919616D01*
X169895708Y-41000397D01*
X169814927Y-41054374D01*
X169719638Y-41073328D01*
X169624350Y-41054374D01*
X169543569Y-41000398D01*
X169543568Y-41000398D01*
X165414323Y-36871153D01*
X168949500Y-36871153D01*
X168949500Y-37028846D01*
X168980261Y-37183492D01*
X168980263Y-37183497D01*
X169040603Y-37329173D01*
X169040606Y-37329180D01*
X169128208Y-37460285D01*
X169128211Y-37460289D01*
X169239711Y-37571789D01*
X169239714Y-37571791D01*
X169370819Y-37659393D01*
X169370820Y-37659393D01*
X169370821Y-37659394D01*
X169516503Y-37719737D01*
X169516505Y-37719737D01*
X169516507Y-37719738D01*
X169667148Y-37749702D01*
X169671158Y-37750500D01*
X169828842Y-37750500D01*
X169983497Y-37719737D01*
X170129179Y-37659394D01*
X170260289Y-37571789D01*
X170371789Y-37460289D01*
X170459394Y-37329179D01*
X170519737Y-37183497D01*
X170550500Y-37028842D01*
X170550500Y-36871158D01*
X170527614Y-36756102D01*
X170519738Y-36716507D01*
X170519737Y-36716505D01*
X170519737Y-36716503D01*
X170459394Y-36570821D01*
X170371789Y-36439711D01*
X170260289Y-36328211D01*
X170254517Y-36324354D01*
X170129180Y-36240606D01*
X170129173Y-36240603D01*
X169983497Y-36180263D01*
X169983492Y-36180261D01*
X169828846Y-36149500D01*
X169828842Y-36149500D01*
X169671158Y-36149500D01*
X169671153Y-36149500D01*
X169516507Y-36180261D01*
X169516502Y-36180263D01*
X169370826Y-36240603D01*
X169370819Y-36240606D01*
X169239714Y-36328208D01*
X169128208Y-36439714D01*
X169040606Y-36570819D01*
X169040603Y-36570826D01*
X168980263Y-36716502D01*
X168980261Y-36716507D01*
X168949500Y-36871153D01*
X165414323Y-36871153D01*
X163798430Y-35255260D01*
X163744454Y-35174478D01*
X163725500Y-35079190D01*
X163725500Y-31709717D01*
X163744454Y-31614429D01*
X163798427Y-31533650D01*
X163821789Y-31510289D01*
X163909394Y-31379179D01*
X163969737Y-31233497D01*
X164000500Y-31078842D01*
X164000500Y-30921158D01*
X163979436Y-30815262D01*
X163969738Y-30766507D01*
X163969737Y-30766505D01*
X163969737Y-30766503D01*
X163909394Y-30620821D01*
X163902712Y-30610821D01*
X163821791Y-30489714D01*
X163821789Y-30489711D01*
X163710289Y-30378211D01*
X163710285Y-30378208D01*
X163579180Y-30290606D01*
X163579173Y-30290603D01*
X163433497Y-30230263D01*
X163433492Y-30230261D01*
X163278846Y-30199500D01*
X163278842Y-30199500D01*
X163121158Y-30199500D01*
X163121153Y-30199500D01*
X162966507Y-30230261D01*
X162966502Y-30230263D01*
X162820826Y-30290603D01*
X162820819Y-30290606D01*
X162689714Y-30378208D01*
X162578208Y-30489714D01*
X162490606Y-30620819D01*
X162490603Y-30620826D01*
X162430263Y-30766502D01*
X162430261Y-30766507D01*
X162399500Y-30921153D01*
X162399500Y-31078846D01*
X162430261Y-31233492D01*
X162430263Y-31233497D01*
X162490603Y-31379173D01*
X162490606Y-31379180D01*
X162571529Y-31500289D01*
X162578211Y-31510289D01*
X162601572Y-31533650D01*
X162655546Y-31614429D01*
X162674500Y-31709717D01*
X162674500Y-35315539D01*
X162674499Y-35315557D01*
X162674499Y-35469186D01*
X162702741Y-35574587D01*
X162702742Y-35574587D01*
X162710312Y-35602837D01*
X162779492Y-35722661D01*
X162779493Y-35722662D01*
X162779495Y-35722665D01*
X162877335Y-35820505D01*
X162877337Y-35820506D01*
X170126570Y-43069739D01*
X170180546Y-43150521D01*
X170199500Y-43245809D01*
X170199500Y-43278846D01*
X170230261Y-43433492D01*
X170230263Y-43433497D01*
X170290603Y-43579173D01*
X170290606Y-43579180D01*
X170321022Y-43624700D01*
X170378211Y-43710289D01*
X170489711Y-43821789D01*
X170489714Y-43821791D01*
X170620819Y-43909393D01*
X170620820Y-43909393D01*
X170620821Y-43909394D01*
X170766503Y-43969737D01*
X170766505Y-43969737D01*
X170766507Y-43969738D01*
X170917148Y-43999702D01*
X170921158Y-44000500D01*
X171078842Y-44000500D01*
X171233497Y-43969737D01*
X171342218Y-43924703D01*
X171437499Y-43905751D01*
X171532788Y-43924705D01*
X171613569Y-43978681D01*
X171667546Y-44059462D01*
X171686500Y-44154750D01*
X171686500Y-56890500D01*
X171667546Y-56985788D01*
X171613570Y-57066570D01*
X171532788Y-57120546D01*
X171486743Y-57134582D01*
X171462366Y-57139500D01*
X171371158Y-57139500D01*
X171216503Y-57170263D01*
X171127834Y-57206990D01*
X171104128Y-57211773D01*
X171079266Y-57211840D01*
X171054882Y-57216691D01*
X171031159Y-57211972D01*
X171006973Y-57212038D01*
X170983978Y-57202586D01*
X170959594Y-57197736D01*
X170939482Y-57184297D01*
X170917113Y-57175103D01*
X170899486Y-57157571D01*
X170878813Y-57143758D01*
X170865374Y-57123645D01*
X170848227Y-57106591D01*
X170838650Y-57083648D01*
X170824838Y-57062976D01*
X170820119Y-57039253D01*
X170810803Y-57016934D01*
X170810735Y-56992072D01*
X170805885Y-56967688D01*
X170810603Y-56943965D01*
X170810538Y-56919779D01*
X170819989Y-56896784D01*
X170824840Y-56872400D01*
X170847226Y-56830517D01*
X170847473Y-56829919D01*
X170847632Y-56829758D01*
X170847844Y-56829361D01*
X170889394Y-56767179D01*
X170949737Y-56621497D01*
X170980500Y-56466842D01*
X170980500Y-56309158D01*
X170949737Y-56154503D01*
X170889394Y-56008821D01*
X170801789Y-55877711D01*
X170690289Y-55766211D01*
X170684424Y-55762292D01*
X170559180Y-55678606D01*
X170559173Y-55678603D01*
X170460954Y-55637920D01*
X170380172Y-55583944D01*
X170326195Y-55503163D01*
X170307241Y-55407875D01*
X170326195Y-55312587D01*
X170380171Y-55231805D01*
X170460952Y-55177828D01*
X170483053Y-55169920D01*
X170483492Y-55169737D01*
X170483497Y-55169737D01*
X170629179Y-55109394D01*
X170760289Y-55021789D01*
X170871789Y-54910289D01*
X170959394Y-54779179D01*
X171019737Y-54633497D01*
X171050500Y-54478842D01*
X171050500Y-54321158D01*
X171019737Y-54166503D01*
X170959394Y-54020821D01*
X170943924Y-53997669D01*
X170864993Y-53879540D01*
X170867211Y-53878057D01*
X170830723Y-53809820D01*
X170821184Y-53713135D01*
X170849371Y-53620159D01*
X170865602Y-53595867D01*
X170864993Y-53595460D01*
X170877907Y-53576132D01*
X170959394Y-53454179D01*
X171019737Y-53308497D01*
X171050500Y-53153842D01*
X171050500Y-52996158D01*
X171037687Y-52931743D01*
X171019738Y-52841507D01*
X171019737Y-52841505D01*
X171019737Y-52841503D01*
X170959394Y-52695821D01*
X170955742Y-52690356D01*
X170871791Y-52564714D01*
X170871789Y-52564711D01*
X170760289Y-52453211D01*
X170728982Y-52432292D01*
X170629180Y-52365606D01*
X170629173Y-52365603D01*
X170483497Y-52305263D01*
X170483492Y-52305261D01*
X170328846Y-52274500D01*
X170328842Y-52274500D01*
X170171158Y-52274500D01*
X170171153Y-52274500D01*
X170016507Y-52305261D01*
X170016502Y-52305263D01*
X169870826Y-52365603D01*
X169870819Y-52365606D01*
X169739714Y-52453208D01*
X169628208Y-52564714D01*
X169540606Y-52695819D01*
X169540603Y-52695826D01*
X169480263Y-52841502D01*
X169480261Y-52841507D01*
X169449500Y-52996153D01*
X169449500Y-53153846D01*
X169480261Y-53308492D01*
X169480263Y-53308497D01*
X169540603Y-53454173D01*
X169540606Y-53454180D01*
X169635007Y-53595460D01*
X169632792Y-53596939D01*
X169669288Y-53665218D01*
X169678811Y-53761905D01*
X169650609Y-53854877D01*
X169634400Y-53879134D01*
X169635007Y-53879540D01*
X169540606Y-54020819D01*
X169540603Y-54020826D01*
X169480263Y-54166502D01*
X169480261Y-54166507D01*
X169449500Y-54321153D01*
X169448301Y-54333332D01*
X169445547Y-54333060D01*
X169430546Y-54408479D01*
X169376570Y-54489261D01*
X169295788Y-54543237D01*
X169200500Y-54562191D01*
X169105212Y-54543237D01*
X169024430Y-54489261D01*
X146748430Y-32213261D01*
X146694454Y-32132479D01*
X146675500Y-32037191D01*
X146675500Y-30901153D01*
X157339500Y-30901153D01*
X157339500Y-31058846D01*
X157370261Y-31213492D01*
X157370263Y-31213497D01*
X157430603Y-31359173D01*
X157430606Y-31359180D01*
X157525007Y-31500460D01*
X157523944Y-31501170D01*
X157563774Y-31575675D01*
X157574500Y-31647970D01*
X157574500Y-37915539D01*
X157574499Y-37915557D01*
X157574499Y-38069182D01*
X157588830Y-38122666D01*
X157610311Y-38202834D01*
X157610314Y-38202841D01*
X157679492Y-38322661D01*
X157679493Y-38322662D01*
X157679495Y-38322665D01*
X157777335Y-38420505D01*
X157777337Y-38420506D01*
X169326570Y-49969739D01*
X169380546Y-50050521D01*
X169399500Y-50145809D01*
X169399500Y-50178846D01*
X169430261Y-50333492D01*
X169430263Y-50333497D01*
X169490603Y-50479173D01*
X169490606Y-50479180D01*
X169578208Y-50610285D01*
X169578211Y-50610289D01*
X169689711Y-50721789D01*
X169689714Y-50721791D01*
X169820819Y-50809393D01*
X169820820Y-50809393D01*
X169820821Y-50809394D01*
X169966503Y-50869737D01*
X169966505Y-50869737D01*
X169966507Y-50869738D01*
X170117148Y-50899702D01*
X170121158Y-50900500D01*
X170278842Y-50900500D01*
X170433497Y-50869737D01*
X170579179Y-50809394D01*
X170710289Y-50721789D01*
X170821789Y-50610289D01*
X170909394Y-50479179D01*
X170969737Y-50333497D01*
X171000500Y-50178842D01*
X171000500Y-50021158D01*
X170990272Y-49969739D01*
X170969738Y-49866507D01*
X170969737Y-49866505D01*
X170969737Y-49866503D01*
X170909394Y-49720821D01*
X170821789Y-49589711D01*
X170821787Y-49589709D01*
X170820871Y-49588338D01*
X170783691Y-49498579D01*
X170783690Y-49401424D01*
X170820869Y-49311664D01*
X170820871Y-49311662D01*
X170821787Y-49310290D01*
X170821789Y-49310289D01*
X170909394Y-49179179D01*
X170969737Y-49033497D01*
X171000500Y-48878842D01*
X171000500Y-48721158D01*
X170978677Y-48611445D01*
X170969738Y-48566507D01*
X170969737Y-48566505D01*
X170969737Y-48566503D01*
X170909394Y-48420821D01*
X170821789Y-48289711D01*
X170758144Y-48226066D01*
X170704171Y-48145288D01*
X170685217Y-48050000D01*
X170704171Y-47954712D01*
X170758144Y-47873933D01*
X170821789Y-47810289D01*
X170909394Y-47679179D01*
X170969737Y-47533497D01*
X171000500Y-47378842D01*
X171000500Y-47221158D01*
X170969737Y-47066503D01*
X170909394Y-46920821D01*
X170821789Y-46789711D01*
X170710289Y-46678211D01*
X170710285Y-46678208D01*
X170579180Y-46590606D01*
X170579173Y-46590603D01*
X170433497Y-46530263D01*
X170433492Y-46530261D01*
X170278846Y-46499500D01*
X170278842Y-46499500D01*
X170245809Y-46499500D01*
X170150521Y-46480546D01*
X170069739Y-46426570D01*
X161298430Y-37655261D01*
X161244454Y-37574479D01*
X161225500Y-37479191D01*
X161225500Y-31689717D01*
X161244454Y-31594429D01*
X161298427Y-31513650D01*
X161311789Y-31500289D01*
X161399394Y-31369179D01*
X161459737Y-31223497D01*
X161490500Y-31068842D01*
X161490500Y-30911158D01*
X161459737Y-30756503D01*
X161399394Y-30610821D01*
X161392712Y-30600821D01*
X161311791Y-30479714D01*
X161311789Y-30479711D01*
X161200289Y-30368211D01*
X161194981Y-30364664D01*
X161069180Y-30280606D01*
X161069173Y-30280603D01*
X160923497Y-30220263D01*
X160923492Y-30220261D01*
X160768846Y-30189500D01*
X160768842Y-30189500D01*
X160611158Y-30189500D01*
X160611153Y-30189500D01*
X160456507Y-30220261D01*
X160456502Y-30220263D01*
X160310826Y-30280603D01*
X160310821Y-30280606D01*
X160225819Y-30337402D01*
X160136059Y-30374581D01*
X160038904Y-30374580D01*
X159949147Y-30337402D01*
X159849178Y-30270605D01*
X159849173Y-30270603D01*
X159703497Y-30210263D01*
X159703492Y-30210261D01*
X159548846Y-30179500D01*
X159548842Y-30179500D01*
X159391158Y-30179500D01*
X159391153Y-30179500D01*
X159236507Y-30210261D01*
X159236502Y-30210263D01*
X159090826Y-30270603D01*
X159090819Y-30270606D01*
X158949540Y-30365007D01*
X158948413Y-30363320D01*
X158877265Y-30401344D01*
X158780578Y-30410860D01*
X158687608Y-30382652D01*
X158660688Y-30364664D01*
X158660460Y-30365007D01*
X158519180Y-30270606D01*
X158519173Y-30270603D01*
X158373497Y-30210263D01*
X158373492Y-30210261D01*
X158218846Y-30179500D01*
X158218842Y-30179500D01*
X158061158Y-30179500D01*
X158061153Y-30179500D01*
X157906507Y-30210261D01*
X157906502Y-30210263D01*
X157760826Y-30270603D01*
X157760819Y-30270606D01*
X157629714Y-30358208D01*
X157518208Y-30469714D01*
X157430606Y-30600819D01*
X157430603Y-30600826D01*
X157370263Y-30746502D01*
X157370261Y-30746507D01*
X157339500Y-30901153D01*
X146675500Y-30901153D01*
X146675500Y-29104668D01*
X146675500Y-29069186D01*
X146675501Y-29069183D01*
X146675501Y-28930817D01*
X146639688Y-28797165D01*
X146639688Y-28797164D01*
X146570505Y-28677335D01*
X146472665Y-28579495D01*
X146472662Y-28579493D01*
X146038775Y-28145606D01*
X145984799Y-28064824D01*
X145965845Y-27969536D01*
X145984799Y-27874248D01*
X146038775Y-27793466D01*
X146119557Y-27739490D01*
X146214845Y-27720536D01*
X146291790Y-27732723D01*
X146467174Y-27789709D01*
X146661583Y-27820500D01*
X146661587Y-27820500D01*
X146858413Y-27820500D01*
X146858417Y-27820500D01*
X147052826Y-27789709D01*
X147240025Y-27728884D01*
X147415405Y-27639524D01*
X147574646Y-27523828D01*
X147713828Y-27384646D01*
X147828556Y-27226736D01*
X147899899Y-27160790D01*
X147991049Y-27127163D01*
X148088129Y-27130978D01*
X148176360Y-27171653D01*
X148231443Y-27226736D01*
X148346172Y-27384646D01*
X148485354Y-27523828D01*
X148485357Y-27523830D01*
X148638783Y-27635302D01*
X148644595Y-27639524D01*
X148819975Y-27728884D01*
X149007174Y-27789709D01*
X149201583Y-27820500D01*
X149201587Y-27820500D01*
X149398413Y-27820500D01*
X149398417Y-27820500D01*
X149592826Y-27789709D01*
X149780025Y-27728884D01*
X149955405Y-27639524D01*
X150114646Y-27523828D01*
X150253828Y-27384646D01*
X150368556Y-27226736D01*
X150439899Y-27160790D01*
X150531049Y-27127163D01*
X150628129Y-27130978D01*
X150716360Y-27171653D01*
X150771443Y-27226736D01*
X150886172Y-27384646D01*
X151025354Y-27523828D01*
X151025357Y-27523830D01*
X151178783Y-27635302D01*
X151184595Y-27639524D01*
X151359975Y-27728884D01*
X151547174Y-27789709D01*
X151741583Y-27820500D01*
X151741587Y-27820500D01*
X151938413Y-27820500D01*
X151938417Y-27820500D01*
X152132826Y-27789709D01*
X152320025Y-27728884D01*
X152495405Y-27639524D01*
X152654646Y-27523828D01*
X152793828Y-27384646D01*
X152908556Y-27226736D01*
X152979899Y-27160790D01*
X153071049Y-27127163D01*
X153168129Y-27130978D01*
X153256360Y-27171653D01*
X153311443Y-27226736D01*
X153426172Y-27384646D01*
X153565354Y-27523828D01*
X153565357Y-27523830D01*
X153718783Y-27635302D01*
X153724595Y-27639524D01*
X153899975Y-27728884D01*
X154087174Y-27789709D01*
X154281583Y-27820500D01*
X154281587Y-27820500D01*
X154478413Y-27820500D01*
X154478417Y-27820500D01*
X154672826Y-27789709D01*
X154860025Y-27728884D01*
X155035405Y-27639524D01*
X155194646Y-27523828D01*
X155333828Y-27384646D01*
X155448556Y-27226736D01*
X155519899Y-27160790D01*
X155611049Y-27127163D01*
X155708129Y-27130978D01*
X155796360Y-27171653D01*
X155851443Y-27226736D01*
X155966172Y-27384646D01*
X156105354Y-27523828D01*
X156105357Y-27523830D01*
X156258783Y-27635302D01*
X156264595Y-27639524D01*
X156439975Y-27728884D01*
X156627174Y-27789709D01*
X156821583Y-27820500D01*
X156821587Y-27820500D01*
X157018413Y-27820500D01*
X157018417Y-27820500D01*
X157212826Y-27789709D01*
X157400025Y-27728884D01*
X157575405Y-27639524D01*
X157734646Y-27523828D01*
X157873828Y-27384646D01*
X157922119Y-27318178D01*
X157993458Y-27252234D01*
X158084608Y-27218607D01*
X158181688Y-27222421D01*
X158269919Y-27263095D01*
X158325006Y-27318182D01*
X158424174Y-27454674D01*
X158575325Y-27605825D01*
X158748255Y-27731466D01*
X158748256Y-27731467D01*
X158938709Y-27828507D01*
X158938717Y-27828511D01*
X159141994Y-27894558D01*
X159142011Y-27894563D01*
X159205000Y-27904539D01*
X159205000Y-27000125D01*
X159267007Y-27035925D01*
X159394174Y-27070000D01*
X159525826Y-27070000D01*
X159652993Y-27035925D01*
X159715000Y-27000125D01*
X159715000Y-27904539D01*
G37*
%TD.AperFunction*%
%TA.AperFunction,Conductor*%
G36*
X182506979Y-21550892D02*
G01*
X182533648Y-21552389D01*
X182816285Y-21568262D01*
X182844009Y-21571385D01*
X183142549Y-21622109D01*
X183169761Y-21628320D01*
X183238781Y-21648205D01*
X183460714Y-21712143D01*
X183487070Y-21721365D01*
X183624415Y-21778255D01*
X183766824Y-21837243D01*
X183791968Y-21849351D01*
X184056994Y-21995825D01*
X184080633Y-22010679D01*
X184327575Y-22185894D01*
X184349406Y-22203304D01*
X184575183Y-22405071D01*
X184594928Y-22424816D01*
X184796695Y-22650593D01*
X184814105Y-22672424D01*
X184989320Y-22919366D01*
X185004176Y-22943009D01*
X185150643Y-23208021D01*
X185162758Y-23233179D01*
X185278634Y-23512929D01*
X185287856Y-23539285D01*
X185371677Y-23830233D01*
X185377891Y-23857456D01*
X185428612Y-24155978D01*
X185431738Y-24183725D01*
X185449108Y-24493019D01*
X185449500Y-24506981D01*
X185449500Y-74993018D01*
X185449108Y-75006979D01*
X185449108Y-75006980D01*
X185431738Y-75316274D01*
X185428612Y-75344021D01*
X185377891Y-75642543D01*
X185371677Y-75669766D01*
X185287856Y-75960714D01*
X185278634Y-75987070D01*
X185162758Y-76266820D01*
X185150643Y-76291978D01*
X185004176Y-76556990D01*
X184989320Y-76580633D01*
X184814105Y-76827575D01*
X184796695Y-76849406D01*
X184594928Y-77075183D01*
X184575183Y-77094928D01*
X184349406Y-77296695D01*
X184327575Y-77314105D01*
X184080633Y-77489320D01*
X184056990Y-77504176D01*
X183791978Y-77650643D01*
X183766820Y-77662758D01*
X183487070Y-77778634D01*
X183460714Y-77787856D01*
X183169766Y-77871677D01*
X183142543Y-77877891D01*
X182844021Y-77928612D01*
X182816274Y-77931738D01*
X182506980Y-77949108D01*
X182493018Y-77949500D01*
X172759419Y-77949500D01*
X172664131Y-77930546D01*
X172583349Y-77876570D01*
X172529373Y-77795788D01*
X172510419Y-77700500D01*
X172529373Y-77605212D01*
X172557974Y-77554141D01*
X172647646Y-77430717D01*
X172726819Y-77275334D01*
X172726827Y-77275313D01*
X172780714Y-77109463D01*
X172780719Y-77109445D01*
X172807999Y-76937210D01*
X172808000Y-76937198D01*
X172808000Y-76755001D01*
X172807999Y-76755000D01*
X172000000Y-76755000D01*
X172000000Y-76245000D01*
X172807999Y-76245000D01*
X172808000Y-76244999D01*
X172808000Y-76062801D01*
X172807999Y-76062789D01*
X172780719Y-75890554D01*
X172780714Y-75890536D01*
X172726827Y-75724686D01*
X172726819Y-75724665D01*
X172647646Y-75569282D01*
X172545137Y-75428190D01*
X172421809Y-75304862D01*
X172280717Y-75202353D01*
X172125334Y-75123180D01*
X172125317Y-75123173D01*
X171959460Y-75069284D01*
X171955000Y-75068577D01*
X171955000Y-75991671D01*
X171940060Y-75965795D01*
X171884205Y-75909940D01*
X171815796Y-75870444D01*
X171739496Y-75850000D01*
X171660504Y-75850000D01*
X171584204Y-75870444D01*
X171515795Y-75909940D01*
X171459940Y-75965795D01*
X171445000Y-75991671D01*
X171445000Y-75063374D01*
X171397404Y-75003000D01*
X171371032Y-74909492D01*
X171371031Y-74870423D01*
X171373858Y-74834483D01*
X170762595Y-74223220D01*
X170864044Y-74196037D01*
X170960956Y-74140084D01*
X171040084Y-74060956D01*
X171096037Y-73964044D01*
X171123220Y-73862595D01*
X171734483Y-74473858D01*
X171754551Y-74446239D01*
X171754561Y-74446222D01*
X171783140Y-74390133D01*
X180649500Y-74390133D01*
X180649500Y-74609866D01*
X180683870Y-74826862D01*
X180742393Y-75006980D01*
X180751766Y-75035825D01*
X180845026Y-75218858D01*
X180851516Y-75231595D01*
X180957369Y-75377288D01*
X180980658Y-75409343D01*
X181136019Y-75564704D01*
X181136022Y-75564706D01*
X181313766Y-75693845D01*
X181313768Y-75693846D01*
X181313771Y-75693848D01*
X181509537Y-75793596D01*
X181718497Y-75861491D01*
X181775024Y-75870444D01*
X181935495Y-75895861D01*
X181935502Y-75895861D01*
X181935505Y-75895862D01*
X181935508Y-75895862D01*
X182155216Y-75895862D01*
X182155219Y-75895862D01*
X182155222Y-75895861D01*
X182155228Y-75895861D01*
X182257740Y-75879624D01*
X182372227Y-75861491D01*
X182581187Y-75793596D01*
X182776953Y-75693848D01*
X182954705Y-75564704D01*
X183110066Y-75409343D01*
X183239210Y-75231591D01*
X183338958Y-75035825D01*
X183406853Y-74826865D01*
X183441224Y-74609857D01*
X183441224Y-74390143D01*
X183441223Y-74390140D01*
X183441223Y-74390133D01*
X183406853Y-74173137D01*
X183406853Y-74173135D01*
X183338958Y-73964175D01*
X183239210Y-73768409D01*
X183239208Y-73768406D01*
X183239207Y-73768404D01*
X183110068Y-73590660D01*
X183110066Y-73590657D01*
X182954705Y-73435296D01*
X182911579Y-73403963D01*
X182776957Y-73306154D01*
X182687925Y-73260790D01*
X182581187Y-73206404D01*
X182581184Y-73206403D01*
X182581182Y-73206402D01*
X182372224Y-73138508D01*
X182155228Y-73104138D01*
X182155219Y-73104138D01*
X181935505Y-73104138D01*
X181935495Y-73104138D01*
X181718499Y-73138508D01*
X181509541Y-73206402D01*
X181313766Y-73306154D01*
X181136022Y-73435293D01*
X180980655Y-73590660D01*
X180851516Y-73768404D01*
X180751764Y-73964179D01*
X180683870Y-74173137D01*
X180649500Y-74390133D01*
X171783140Y-74390133D01*
X171842661Y-74273317D01*
X171842667Y-74273303D01*
X171902640Y-74088725D01*
X171932998Y-73897050D01*
X171933000Y-73897034D01*
X171933000Y-73702965D01*
X171932998Y-73702949D01*
X171902640Y-73511274D01*
X171842667Y-73326696D01*
X171842663Y-73326687D01*
X171754558Y-73153771D01*
X171754555Y-73153766D01*
X171734482Y-73126140D01*
X171734481Y-73126140D01*
X171123219Y-73737403D01*
X171096037Y-73635956D01*
X171040084Y-73539044D01*
X170960956Y-73459916D01*
X170864044Y-73403963D01*
X170762594Y-73376779D01*
X171373858Y-72765516D01*
X171373858Y-72765515D01*
X171346235Y-72745445D01*
X171173303Y-72657332D01*
X170988725Y-72597359D01*
X170797050Y-72567001D01*
X170797035Y-72567000D01*
X170602965Y-72567000D01*
X170602949Y-72567001D01*
X170411274Y-72597359D01*
X170226696Y-72657332D01*
X170053765Y-72745445D01*
X170053762Y-72745447D01*
X170026140Y-72765515D01*
X170637404Y-73376779D01*
X170535956Y-73403963D01*
X170439044Y-73459916D01*
X170359916Y-73539044D01*
X170303963Y-73635956D01*
X170276779Y-73737404D01*
X169665515Y-73126140D01*
X169645447Y-73153762D01*
X169645445Y-73153765D01*
X169557332Y-73326696D01*
X169497359Y-73511274D01*
X169467001Y-73702949D01*
X169467000Y-73702965D01*
X169467000Y-73897034D01*
X169467001Y-73897050D01*
X169497359Y-74088725D01*
X169557332Y-74273303D01*
X169645445Y-74446235D01*
X169665515Y-74473858D01*
X169665516Y-74473858D01*
X170276779Y-73862594D01*
X170303963Y-73964044D01*
X170359916Y-74060956D01*
X170439044Y-74140084D01*
X170535956Y-74196037D01*
X170637403Y-74223219D01*
X170026140Y-74834481D01*
X170026140Y-74834482D01*
X170053766Y-74854555D01*
X170053771Y-74854558D01*
X170226687Y-74942663D01*
X170226696Y-74942667D01*
X170411274Y-75002640D01*
X170602949Y-75032998D01*
X170602965Y-75033000D01*
X170653295Y-75033000D01*
X170748583Y-75051954D01*
X170829365Y-75105930D01*
X170883341Y-75186712D01*
X170902295Y-75282000D01*
X170883341Y-75377288D01*
X170854740Y-75428358D01*
X170752356Y-75569277D01*
X170752353Y-75569281D01*
X170673180Y-75724665D01*
X170673172Y-75724686D01*
X170619285Y-75890536D01*
X170619280Y-75890554D01*
X170592000Y-76062789D01*
X170592000Y-76244999D01*
X170592001Y-76245000D01*
X171400000Y-76245000D01*
X171400000Y-76755000D01*
X170592001Y-76755000D01*
X170592000Y-76755001D01*
X170592000Y-76937210D01*
X170619280Y-77109445D01*
X170619285Y-77109463D01*
X170673172Y-77275313D01*
X170673180Y-77275334D01*
X170752353Y-77430717D01*
X170842026Y-77554141D01*
X170882701Y-77642372D01*
X170886515Y-77739452D01*
X170852889Y-77830602D01*
X170786940Y-77901945D01*
X170698709Y-77942620D01*
X170640581Y-77949500D01*
X165759419Y-77949500D01*
X165664131Y-77930546D01*
X165583349Y-77876570D01*
X165529373Y-77795788D01*
X165510419Y-77700500D01*
X165529373Y-77605212D01*
X165557974Y-77554141D01*
X165647646Y-77430717D01*
X165726819Y-77275334D01*
X165726827Y-77275313D01*
X165780714Y-77109463D01*
X165780719Y-77109445D01*
X165807999Y-76937210D01*
X165808000Y-76937198D01*
X165808000Y-76755001D01*
X165807999Y-76755000D01*
X165000000Y-76755000D01*
X165000000Y-76245000D01*
X165807999Y-76245000D01*
X165808000Y-76244999D01*
X165808000Y-76062801D01*
X165807999Y-76062789D01*
X165780719Y-75890554D01*
X165780714Y-75890536D01*
X165726827Y-75724686D01*
X165726819Y-75724665D01*
X165647646Y-75569281D01*
X165647643Y-75569277D01*
X165545260Y-75428358D01*
X165504585Y-75340128D01*
X165500771Y-75243048D01*
X165534398Y-75151898D01*
X165600347Y-75080555D01*
X165688577Y-75039880D01*
X165746705Y-75033000D01*
X165797035Y-75033000D01*
X165797050Y-75032998D01*
X165988725Y-75002640D01*
X166173303Y-74942667D01*
X166346232Y-74854555D01*
X166346239Y-74854551D01*
X166373858Y-74834483D01*
X165762595Y-74223220D01*
X165864044Y-74196037D01*
X165960956Y-74140084D01*
X166040084Y-74060956D01*
X166096037Y-73964044D01*
X166123220Y-73862595D01*
X166734483Y-74473858D01*
X166754551Y-74446239D01*
X166754555Y-74446232D01*
X166842667Y-74273303D01*
X166902640Y-74088725D01*
X166932998Y-73897050D01*
X166933000Y-73897034D01*
X166933000Y-73702965D01*
X166932998Y-73702949D01*
X166902640Y-73511274D01*
X166842667Y-73326696D01*
X166842663Y-73326687D01*
X166754558Y-73153771D01*
X166754555Y-73153766D01*
X166734482Y-73126140D01*
X166734481Y-73126140D01*
X166123219Y-73737403D01*
X166096037Y-73635956D01*
X166040084Y-73539044D01*
X165960956Y-73459916D01*
X165864044Y-73403963D01*
X165762594Y-73376779D01*
X166373858Y-72765516D01*
X166373858Y-72765515D01*
X166346235Y-72745445D01*
X166173303Y-72657332D01*
X165988725Y-72597359D01*
X165797050Y-72567001D01*
X165797035Y-72567000D01*
X165602965Y-72567000D01*
X165602949Y-72567001D01*
X165411274Y-72597359D01*
X165226696Y-72657332D01*
X165053765Y-72745445D01*
X165053762Y-72745447D01*
X165026140Y-72765515D01*
X165637404Y-73376779D01*
X165535956Y-73403963D01*
X165439044Y-73459916D01*
X165359916Y-73539044D01*
X165303963Y-73635956D01*
X165276779Y-73737404D01*
X164665515Y-73126140D01*
X164645447Y-73153762D01*
X164645445Y-73153765D01*
X164557332Y-73326696D01*
X164497359Y-73511274D01*
X164467001Y-73702949D01*
X164467000Y-73702965D01*
X164467000Y-73897034D01*
X164467001Y-73897050D01*
X164497359Y-74088725D01*
X164557332Y-74273303D01*
X164645445Y-74446235D01*
X164665515Y-74473858D01*
X164665516Y-74473858D01*
X165276779Y-73862594D01*
X165303963Y-73964044D01*
X165359916Y-74060956D01*
X165439044Y-74140084D01*
X165535956Y-74196037D01*
X165637403Y-74223219D01*
X165026139Y-74834482D01*
X165028968Y-74870421D01*
X165017547Y-74966903D01*
X164970074Y-75051670D01*
X164955000Y-75066744D01*
X164955000Y-75991671D01*
X164940060Y-75965795D01*
X164884205Y-75909940D01*
X164815796Y-75870444D01*
X164739496Y-75850000D01*
X164660504Y-75850000D01*
X164584204Y-75870444D01*
X164515795Y-75909940D01*
X164459940Y-75965795D01*
X164445000Y-75991671D01*
X164445000Y-75068577D01*
X164440539Y-75069284D01*
X164274682Y-75123173D01*
X164274665Y-75123180D01*
X164119282Y-75202353D01*
X163978190Y-75304862D01*
X163854862Y-75428190D01*
X163752353Y-75569282D01*
X163673180Y-75724665D01*
X163673172Y-75724686D01*
X163619285Y-75890536D01*
X163619280Y-75890554D01*
X163592000Y-76062789D01*
X163592000Y-76244999D01*
X163592001Y-76245000D01*
X164400000Y-76245000D01*
X164400000Y-76755000D01*
X163592001Y-76755000D01*
X163592000Y-76755001D01*
X163592000Y-76937210D01*
X163619280Y-77109445D01*
X163619285Y-77109463D01*
X163673172Y-77275313D01*
X163673180Y-77275334D01*
X163752353Y-77430717D01*
X163842026Y-77554141D01*
X163882701Y-77642372D01*
X163886515Y-77739452D01*
X163852889Y-77830602D01*
X163786940Y-77901945D01*
X163698709Y-77942620D01*
X163640581Y-77949500D01*
X123506982Y-77949500D01*
X123493020Y-77949108D01*
X123183725Y-77931738D01*
X123155978Y-77928612D01*
X122857456Y-77877891D01*
X122830233Y-77871677D01*
X122539285Y-77787856D01*
X122512929Y-77778634D01*
X122233179Y-77662758D01*
X122208021Y-77650643D01*
X121943009Y-77504176D01*
X121919366Y-77489320D01*
X121672424Y-77314105D01*
X121650593Y-77296695D01*
X121424816Y-77094928D01*
X121405071Y-77075183D01*
X121203304Y-76849406D01*
X121185894Y-76827575D01*
X121010679Y-76580633D01*
X120995823Y-76556990D01*
X120849351Y-76291968D01*
X120837241Y-76266820D01*
X120828202Y-76244999D01*
X120765947Y-76094701D01*
X120721365Y-75987070D01*
X120712143Y-75960714D01*
X120663137Y-75790611D01*
X120628320Y-75669761D01*
X120622108Y-75642543D01*
X120615568Y-75604051D01*
X120571385Y-75344009D01*
X120568262Y-75316285D01*
X120550892Y-75006979D01*
X120550500Y-74993018D01*
X120550500Y-74344771D01*
X122604138Y-74344771D01*
X122604138Y-74564504D01*
X122638508Y-74781500D01*
X122693308Y-74950160D01*
X122706404Y-74990463D01*
X122792721Y-75159870D01*
X122806154Y-75186233D01*
X122900634Y-75316273D01*
X122935296Y-75363981D01*
X123090657Y-75519342D01*
X123090660Y-75519344D01*
X123268404Y-75648483D01*
X123268406Y-75648484D01*
X123268409Y-75648486D01*
X123464175Y-75748234D01*
X123673135Y-75816129D01*
X123749459Y-75828217D01*
X123890133Y-75850499D01*
X123890140Y-75850499D01*
X123890143Y-75850500D01*
X123890146Y-75850500D01*
X124109854Y-75850500D01*
X124109857Y-75850500D01*
X124109860Y-75850499D01*
X124109866Y-75850499D01*
X124212378Y-75834262D01*
X124326865Y-75816129D01*
X124535825Y-75748234D01*
X124731591Y-75648486D01*
X124909343Y-75519342D01*
X125064704Y-75363981D01*
X125193848Y-75186229D01*
X125293596Y-74990463D01*
X125361491Y-74781503D01*
X125388676Y-74609866D01*
X125395861Y-74564504D01*
X125395862Y-74564492D01*
X125395862Y-74344783D01*
X125395861Y-74344771D01*
X125361491Y-74127775D01*
X125361491Y-74127773D01*
X125293596Y-73918813D01*
X125193848Y-73723047D01*
X125193844Y-73723042D01*
X125101368Y-73595759D01*
X125064704Y-73545295D01*
X124909343Y-73389934D01*
X124888788Y-73375000D01*
X124731595Y-73260792D01*
X124692584Y-73240915D01*
X124535825Y-73161042D01*
X124535822Y-73161041D01*
X124535820Y-73161040D01*
X124339428Y-73097229D01*
X124326862Y-73093146D01*
X124109866Y-73058776D01*
X124109857Y-73058776D01*
X123890143Y-73058776D01*
X123890133Y-73058776D01*
X123673137Y-73093146D01*
X123464179Y-73161040D01*
X123268404Y-73260792D01*
X123090660Y-73389931D01*
X122935293Y-73545298D01*
X122806154Y-73723042D01*
X122706402Y-73918817D01*
X122638508Y-74127775D01*
X122604138Y-74344771D01*
X120550500Y-74344771D01*
X120550500Y-61531484D01*
X122727000Y-61531484D01*
X122727000Y-61788515D01*
X122727001Y-61788531D01*
X122767207Y-62042390D01*
X122767209Y-62042395D01*
X122846637Y-62286850D01*
X122846641Y-62286860D01*
X122963332Y-62515878D01*
X123039146Y-62620227D01*
X123603813Y-62055559D01*
X123606740Y-62062626D01*
X123699762Y-62201844D01*
X123818156Y-62320238D01*
X123957374Y-62413260D01*
X123964437Y-62416185D01*
X123399770Y-62980852D01*
X123504116Y-63056663D01*
X123504129Y-63056672D01*
X123733139Y-63173358D01*
X123733149Y-63173362D01*
X123977604Y-63252790D01*
X123977609Y-63252792D01*
X124231468Y-63292998D01*
X124231484Y-63293000D01*
X124488516Y-63293000D01*
X124488528Y-63292998D01*
X124583966Y-63277883D01*
X124681046Y-63281697D01*
X124769277Y-63322371D01*
X124835226Y-63393714D01*
X124868853Y-63484864D01*
X124865039Y-63581944D01*
X124863438Y-63588250D01*
X124846629Y-63650982D01*
X124810867Y-63784450D01*
X124780801Y-64012826D01*
X124774500Y-64060687D01*
X124774500Y-64339313D01*
X124781253Y-64390606D01*
X124807465Y-64589711D01*
X124810868Y-64615554D01*
X124863434Y-64811736D01*
X124863435Y-64811737D01*
X124869789Y-64908684D01*
X124838559Y-65000683D01*
X124774500Y-65073727D01*
X124687364Y-65116698D01*
X124590417Y-65123052D01*
X124583969Y-65122117D01*
X124488523Y-65107000D01*
X124231484Y-65107000D01*
X124231468Y-65107001D01*
X123977609Y-65147207D01*
X123977604Y-65147209D01*
X123733149Y-65226637D01*
X123733139Y-65226641D01*
X123504129Y-65343328D01*
X123504116Y-65343336D01*
X123399771Y-65419146D01*
X123964438Y-65983813D01*
X123957374Y-65986740D01*
X123818156Y-66079762D01*
X123699762Y-66198156D01*
X123606740Y-66337374D01*
X123603813Y-66344438D01*
X123039146Y-65779771D01*
X122963336Y-65884116D01*
X122963328Y-65884129D01*
X122846641Y-66113139D01*
X122846637Y-66113149D01*
X122767209Y-66357604D01*
X122767207Y-66357609D01*
X122727001Y-66611468D01*
X122727000Y-66611484D01*
X122727000Y-66868515D01*
X122727001Y-66868531D01*
X122767207Y-67122390D01*
X122767209Y-67122395D01*
X122846637Y-67366850D01*
X122846641Y-67366860D01*
X122963332Y-67595878D01*
X123039146Y-67700227D01*
X123603813Y-67135559D01*
X123606740Y-67142626D01*
X123699762Y-67281844D01*
X123818156Y-67400238D01*
X123957374Y-67493260D01*
X123964436Y-67496185D01*
X123399770Y-68060851D01*
X123399770Y-68060852D01*
X123504116Y-68136663D01*
X123504129Y-68136672D01*
X123733139Y-68253358D01*
X123733149Y-68253362D01*
X123977604Y-68332790D01*
X123977609Y-68332792D01*
X124231468Y-68372998D01*
X124231484Y-68373000D01*
X124488516Y-68373000D01*
X124488531Y-68372998D01*
X124742390Y-68332792D01*
X124742395Y-68332790D01*
X124986850Y-68253362D01*
X124986860Y-68253358D01*
X125215878Y-68136667D01*
X125320227Y-68060852D01*
X124755561Y-67496186D01*
X124762626Y-67493260D01*
X124901844Y-67400238D01*
X125020238Y-67281844D01*
X125113260Y-67142626D01*
X125116186Y-67135561D01*
X125680852Y-67700227D01*
X125756667Y-67595878D01*
X125873358Y-67366860D01*
X125873362Y-67366850D01*
X125952790Y-67122395D01*
X125952792Y-67122390D01*
X125992998Y-66868531D01*
X125993000Y-66868515D01*
X125993000Y-66611484D01*
X125992998Y-66611469D01*
X125977883Y-66516032D01*
X125981697Y-66418952D01*
X126022372Y-66330722D01*
X126093715Y-66264773D01*
X126184865Y-66231146D01*
X126281945Y-66234960D01*
X126288160Y-66236538D01*
X126484446Y-66289132D01*
X126760687Y-66325500D01*
X127039313Y-66325500D01*
X127315554Y-66289132D01*
X127511739Y-66236564D01*
X127608683Y-66230210D01*
X127700682Y-66261439D01*
X127773727Y-66325498D01*
X127816697Y-66412634D01*
X127823052Y-66509581D01*
X127822117Y-66516030D01*
X127807000Y-66611476D01*
X127807000Y-66868515D01*
X127807001Y-66868531D01*
X127847207Y-67122390D01*
X127847209Y-67122395D01*
X127926637Y-67366850D01*
X127926641Y-67366860D01*
X128043332Y-67595878D01*
X128119146Y-67700227D01*
X128683813Y-67135560D01*
X128686740Y-67142626D01*
X128779762Y-67281844D01*
X128898156Y-67400238D01*
X129037374Y-67493260D01*
X129044436Y-67496185D01*
X128479770Y-68060851D01*
X128479770Y-68060852D01*
X128584116Y-68136663D01*
X128584129Y-68136672D01*
X128813139Y-68253358D01*
X128813149Y-68253362D01*
X129057604Y-68332790D01*
X129057609Y-68332792D01*
X129311468Y-68372998D01*
X129311484Y-68373000D01*
X129568516Y-68373000D01*
X129568531Y-68372998D01*
X129822390Y-68332792D01*
X129822395Y-68332790D01*
X130012095Y-68271153D01*
X133299500Y-68271153D01*
X133299500Y-68428846D01*
X133330261Y-68583492D01*
X133330263Y-68583497D01*
X133390603Y-68729173D01*
X133390606Y-68729180D01*
X133478208Y-68860285D01*
X133478211Y-68860289D01*
X133589711Y-68971789D01*
X133589714Y-68971791D01*
X133720819Y-69059393D01*
X133720820Y-69059393D01*
X133720821Y-69059394D01*
X133866503Y-69119737D01*
X133866505Y-69119737D01*
X133866507Y-69119738D01*
X134017148Y-69149702D01*
X134021158Y-69150500D01*
X134178842Y-69150500D01*
X134333497Y-69119737D01*
X134479179Y-69059394D01*
X134610289Y-68971789D01*
X134721789Y-68860289D01*
X134809394Y-68729179D01*
X134869737Y-68583497D01*
X134900500Y-68428842D01*
X134900500Y-68271158D01*
X134891219Y-68224500D01*
X134869738Y-68116507D01*
X134869737Y-68116505D01*
X134869737Y-68116503D01*
X134809394Y-67970821D01*
X134791775Y-67944453D01*
X134721791Y-67839714D01*
X134721789Y-67839711D01*
X134610289Y-67728211D01*
X134606720Y-67725826D01*
X134479180Y-67640606D01*
X134479173Y-67640603D01*
X134333497Y-67580263D01*
X134333492Y-67580261D01*
X134178846Y-67549500D01*
X134178842Y-67549500D01*
X134021158Y-67549500D01*
X134021153Y-67549500D01*
X133866507Y-67580261D01*
X133866502Y-67580263D01*
X133720826Y-67640603D01*
X133720819Y-67640606D01*
X133589714Y-67728208D01*
X133478208Y-67839714D01*
X133390606Y-67970819D01*
X133390603Y-67970826D01*
X133330263Y-68116502D01*
X133330261Y-68116507D01*
X133299500Y-68271153D01*
X130012095Y-68271153D01*
X130066850Y-68253362D01*
X130066860Y-68253358D01*
X130295878Y-68136668D01*
X130400227Y-68060852D01*
X129835561Y-67496186D01*
X129842626Y-67493260D01*
X129981844Y-67400238D01*
X130100238Y-67281844D01*
X130193260Y-67142626D01*
X130196186Y-67135561D01*
X130760852Y-67700227D01*
X130836667Y-67595878D01*
X130953358Y-67366860D01*
X130953362Y-67366850D01*
X131032790Y-67122395D01*
X131032792Y-67122390D01*
X131072998Y-66868531D01*
X131073000Y-66868515D01*
X131073000Y-66611484D01*
X131072998Y-66611468D01*
X131032792Y-66357609D01*
X131032790Y-66357604D01*
X130953362Y-66113149D01*
X130953358Y-66113139D01*
X130836672Y-65884129D01*
X130836663Y-65884116D01*
X130760851Y-65779770D01*
X130196185Y-66344436D01*
X130193260Y-66337374D01*
X130100238Y-66198156D01*
X129981844Y-66079762D01*
X129842626Y-65986740D01*
X129835561Y-65983813D01*
X130400228Y-65419147D01*
X130295878Y-65343332D01*
X130066860Y-65226641D01*
X130066850Y-65226637D01*
X129822395Y-65147209D01*
X129822390Y-65147207D01*
X129568531Y-65107001D01*
X129568516Y-65107000D01*
X129311476Y-65107000D01*
X129216030Y-65122117D01*
X129118950Y-65118302D01*
X129030720Y-65077626D01*
X128964771Y-65006282D01*
X128931145Y-64915132D01*
X128934960Y-64818052D01*
X128936565Y-64811737D01*
X128989132Y-64615554D01*
X129025500Y-64339313D01*
X129025500Y-64060687D01*
X128989132Y-63784446D01*
X128936563Y-63588255D01*
X128930210Y-63491316D01*
X128961440Y-63399317D01*
X129025498Y-63326272D01*
X129112634Y-63283301D01*
X129209581Y-63276947D01*
X129216032Y-63277883D01*
X129311469Y-63292998D01*
X129311484Y-63293000D01*
X129568516Y-63293000D01*
X129568531Y-63292998D01*
X129822390Y-63252792D01*
X129822395Y-63252790D01*
X130066850Y-63173362D01*
X130066860Y-63173358D01*
X130295878Y-63056667D01*
X130400227Y-62980852D01*
X129835561Y-62416186D01*
X129842626Y-62413260D01*
X129981844Y-62320238D01*
X130100238Y-62201844D01*
X130193260Y-62062626D01*
X130196186Y-62055561D01*
X130760852Y-62620227D01*
X130836667Y-62515878D01*
X130953358Y-62286860D01*
X130953362Y-62286850D01*
X131032790Y-62042395D01*
X131032792Y-62042390D01*
X131072998Y-61788531D01*
X131073000Y-61788515D01*
X131073000Y-61531484D01*
X131072998Y-61531468D01*
X131032792Y-61277609D01*
X131032790Y-61277604D01*
X130953362Y-61033149D01*
X130953358Y-61033139D01*
X130836672Y-60804129D01*
X130836663Y-60804116D01*
X130760851Y-60699770D01*
X130196185Y-61264436D01*
X130193260Y-61257374D01*
X130100238Y-61118156D01*
X129981844Y-60999762D01*
X129842626Y-60906740D01*
X129835559Y-60903813D01*
X130400227Y-60339146D01*
X130295878Y-60263332D01*
X130066860Y-60146641D01*
X130066850Y-60146637D01*
X129822395Y-60067209D01*
X129822390Y-60067207D01*
X129568531Y-60027001D01*
X129568516Y-60027000D01*
X129311484Y-60027000D01*
X129311468Y-60027001D01*
X129057609Y-60067207D01*
X129057604Y-60067209D01*
X128813149Y-60146637D01*
X128813139Y-60146641D01*
X128584129Y-60263328D01*
X128584116Y-60263336D01*
X128479771Y-60339146D01*
X129044438Y-60903813D01*
X129037374Y-60906740D01*
X128898156Y-60999762D01*
X128779762Y-61118156D01*
X128686740Y-61257374D01*
X128683813Y-61264438D01*
X128119146Y-60699771D01*
X128043336Y-60804116D01*
X128043328Y-60804129D01*
X127926641Y-61033139D01*
X127926637Y-61033149D01*
X127847209Y-61277604D01*
X127847207Y-61277609D01*
X127807001Y-61531468D01*
X127807000Y-61531484D01*
X127807000Y-61788523D01*
X127822117Y-61883969D01*
X127818302Y-61981049D01*
X127777626Y-62069279D01*
X127706283Y-62135227D01*
X127615132Y-62168854D01*
X127518052Y-62165039D01*
X127511768Y-62163442D01*
X127315554Y-62110868D01*
X127315549Y-62110867D01*
X127315550Y-62110867D01*
X127039313Y-62074500D01*
X126760687Y-62074500D01*
X126484450Y-62110867D01*
X126484446Y-62110867D01*
X126484446Y-62110868D01*
X126288261Y-62163435D01*
X126191315Y-62169789D01*
X126099316Y-62138559D01*
X126026271Y-62074500D01*
X125983301Y-61987364D01*
X125976947Y-61890417D01*
X125977883Y-61883966D01*
X125992998Y-61788528D01*
X125993000Y-61788515D01*
X125993000Y-61531484D01*
X125992998Y-61531468D01*
X125952792Y-61277609D01*
X125952790Y-61277604D01*
X125873362Y-61033149D01*
X125873358Y-61033139D01*
X125756672Y-60804129D01*
X125756663Y-60804116D01*
X125680852Y-60699770D01*
X125116185Y-61264437D01*
X125113260Y-61257374D01*
X125020238Y-61118156D01*
X124901844Y-60999762D01*
X124762626Y-60906740D01*
X124755559Y-60903813D01*
X125320227Y-60339146D01*
X125215878Y-60263332D01*
X124986860Y-60146641D01*
X124986850Y-60146637D01*
X124742395Y-60067209D01*
X124742390Y-60067207D01*
X124488531Y-60027001D01*
X124488516Y-60027000D01*
X124231484Y-60027000D01*
X124231468Y-60027001D01*
X123977609Y-60067207D01*
X123977604Y-60067209D01*
X123733149Y-60146637D01*
X123733139Y-60146641D01*
X123504129Y-60263328D01*
X123504116Y-60263336D01*
X123399771Y-60339146D01*
X123964438Y-60903813D01*
X123957374Y-60906740D01*
X123818156Y-60999762D01*
X123699762Y-61118156D01*
X123606740Y-61257374D01*
X123603813Y-61264438D01*
X123039146Y-60699771D01*
X122963336Y-60804116D01*
X122963328Y-60804129D01*
X122846641Y-61033139D01*
X122846637Y-61033149D01*
X122767209Y-61277604D01*
X122767207Y-61277609D01*
X122727001Y-61531468D01*
X122727000Y-61531484D01*
X120550500Y-61531484D01*
X120550500Y-59510866D01*
X120551446Y-59489186D01*
X120563027Y-59356808D01*
X120570559Y-59314094D01*
X120602127Y-59196280D01*
X120616962Y-59155520D01*
X120668508Y-59044980D01*
X120690201Y-59007409D01*
X120760146Y-58907517D01*
X120788036Y-58874277D01*
X120874277Y-58788036D01*
X120907517Y-58760146D01*
X121007409Y-58690201D01*
X121044980Y-58668508D01*
X121155520Y-58616962D01*
X121196280Y-58602127D01*
X121314094Y-58570559D01*
X121356808Y-58563027D01*
X121489186Y-58551446D01*
X121510866Y-58550500D01*
X124591909Y-58550500D01*
X124772919Y-58518584D01*
X124772923Y-58518582D01*
X124772928Y-58518582D01*
X124772932Y-58518580D01*
X124772934Y-58518580D01*
X124866694Y-58484454D01*
X124945657Y-58455714D01*
X125104844Y-58363807D01*
X125245654Y-58245654D01*
X125363807Y-58104844D01*
X125455714Y-57945657D01*
X125501094Y-57820975D01*
X125518580Y-57772934D01*
X125518584Y-57772919D01*
X125550500Y-57591908D01*
X125550500Y-48068485D01*
X127524500Y-48068485D01*
X127524500Y-49481515D01*
X127527203Y-49498579D01*
X127539354Y-49575304D01*
X127596950Y-49688342D01*
X127686658Y-49778050D01*
X127686661Y-49778051D01*
X127686985Y-49778287D01*
X127688072Y-49779463D01*
X127700515Y-49791906D01*
X127700025Y-49792395D01*
X127752933Y-49849631D01*
X127786559Y-49940781D01*
X127782743Y-50037862D01*
X127742069Y-50126089D01*
X127680154Y-50211307D01*
X127603293Y-50362155D01*
X127550981Y-50523155D01*
X127524501Y-50690344D01*
X127524500Y-50690360D01*
X127524500Y-50859639D01*
X127524501Y-50859655D01*
X127550981Y-51026844D01*
X127550982Y-51026847D01*
X127603295Y-51187849D01*
X127680150Y-51338685D01*
X127779654Y-51475641D01*
X127899359Y-51595346D01*
X127899362Y-51595348D01*
X127902944Y-51598930D01*
X127956920Y-51679712D01*
X127975874Y-51775000D01*
X127956920Y-51870288D01*
X127902944Y-51951070D01*
X127899362Y-51954651D01*
X127899359Y-51954654D01*
X127816083Y-52037930D01*
X127779651Y-52074362D01*
X127680152Y-52211311D01*
X127603293Y-52362155D01*
X127550981Y-52523155D01*
X127524501Y-52690344D01*
X127524500Y-52690360D01*
X127524500Y-52859639D01*
X127524501Y-52859655D01*
X127550981Y-53026844D01*
X127592246Y-53153846D01*
X127603295Y-53187849D01*
X127680150Y-53338685D01*
X127779654Y-53475641D01*
X127899359Y-53595346D01*
X128036315Y-53694850D01*
X128187151Y-53771705D01*
X128348153Y-53824018D01*
X128515356Y-53850500D01*
X128515360Y-53850500D01*
X128684640Y-53850500D01*
X128684644Y-53850500D01*
X128851847Y-53824018D01*
X129012849Y-53771705D01*
X129163685Y-53694850D01*
X129300641Y-53595346D01*
X129420346Y-53475641D01*
X129519850Y-53338685D01*
X129596705Y-53187849D01*
X129649018Y-53026847D01*
X129675500Y-52859644D01*
X129675500Y-52690356D01*
X129649018Y-52523153D01*
X129596705Y-52362151D01*
X129519850Y-52211315D01*
X129420346Y-52074359D01*
X129300641Y-51954654D01*
X129300637Y-51954651D01*
X129297056Y-51951070D01*
X129243080Y-51870288D01*
X129224126Y-51775000D01*
X129243080Y-51679712D01*
X129297056Y-51598930D01*
X129300637Y-51595348D01*
X129300641Y-51595346D01*
X129397559Y-51498427D01*
X129478338Y-51444454D01*
X129573626Y-51425500D01*
X131489070Y-51425500D01*
X131489070Y-51425499D01*
X131614744Y-51400501D01*
X131733127Y-51351465D01*
X131752254Y-51338685D01*
X131839669Y-51280277D01*
X136776121Y-46343823D01*
X136856900Y-46289850D01*
X136903601Y-46275683D01*
X136933497Y-46269737D01*
X137079179Y-46209394D01*
X137210289Y-46121789D01*
X137321789Y-46010289D01*
X137409394Y-45879179D01*
X137469737Y-45733497D01*
X137500500Y-45578842D01*
X137500500Y-45421158D01*
X137469737Y-45266503D01*
X137409394Y-45120821D01*
X137321789Y-44989711D01*
X137210289Y-44878211D01*
X137210285Y-44878208D01*
X137079180Y-44790606D01*
X137079173Y-44790603D01*
X136933497Y-44730263D01*
X136933492Y-44730261D01*
X136778846Y-44699500D01*
X136778842Y-44699500D01*
X136621158Y-44699500D01*
X136621153Y-44699500D01*
X136466507Y-44730261D01*
X136466502Y-44730263D01*
X136320826Y-44790603D01*
X136320819Y-44790606D01*
X136189714Y-44878208D01*
X136078208Y-44989714D01*
X135990606Y-45120819D01*
X135990605Y-45120822D01*
X135930262Y-45266505D01*
X135930261Y-45266508D01*
X135924316Y-45296393D01*
X135887135Y-45386152D01*
X135856172Y-45423880D01*
X131228484Y-50051570D01*
X131147702Y-50105546D01*
X131052414Y-50124500D01*
X129768031Y-50124500D01*
X129672743Y-50105546D01*
X129591961Y-50051570D01*
X129537985Y-49970788D01*
X129519031Y-49875500D01*
X129537985Y-49780212D01*
X129591958Y-49699433D01*
X129603050Y-49688342D01*
X129660646Y-49575304D01*
X129675500Y-49481519D01*
X129675499Y-48068482D01*
X129660646Y-47974696D01*
X129603050Y-47861658D01*
X129513342Y-47771950D01*
X129513339Y-47771948D01*
X129400303Y-47714353D01*
X129400299Y-47714352D01*
X129306530Y-47699501D01*
X129306522Y-47699500D01*
X129306519Y-47699500D01*
X129306514Y-47699500D01*
X127893484Y-47699500D01*
X127799695Y-47714354D01*
X127686659Y-47771949D01*
X127596948Y-47861660D01*
X127539353Y-47974696D01*
X127539352Y-47974700D01*
X127524501Y-48068469D01*
X127524500Y-48068485D01*
X125550500Y-48068485D01*
X125550500Y-42408091D01*
X125518584Y-42227080D01*
X125518580Y-42227065D01*
X125455715Y-42054346D01*
X125455714Y-42054343D01*
X125363807Y-41895156D01*
X125359206Y-41889673D01*
X125245659Y-41754352D01*
X125245654Y-41754346D01*
X125193149Y-41710289D01*
X125104847Y-41636195D01*
X125006093Y-41579179D01*
X124945657Y-41544286D01*
X124945655Y-41544285D01*
X124945653Y-41544284D01*
X124772934Y-41481419D01*
X124772919Y-41481415D01*
X124591909Y-41449500D01*
X124591907Y-41449500D01*
X124520918Y-41449500D01*
X121510866Y-41449500D01*
X121489165Y-41448552D01*
X121464911Y-41446430D01*
X121356821Y-41436973D01*
X121314083Y-41429437D01*
X121196290Y-41397875D01*
X121155512Y-41383033D01*
X121044990Y-41331496D01*
X121007401Y-41309793D01*
X120907520Y-41239855D01*
X120874271Y-41211957D01*
X120788042Y-41125728D01*
X120760144Y-41092479D01*
X120690206Y-40992598D01*
X120690203Y-40992592D01*
X120668506Y-40955014D01*
X120616964Y-40844482D01*
X120602126Y-40803716D01*
X120570559Y-40685907D01*
X120563027Y-40643189D01*
X120551446Y-40510814D01*
X120550500Y-40489133D01*
X120550500Y-33145484D01*
X122727000Y-33145484D01*
X122727000Y-33402515D01*
X122727001Y-33402531D01*
X122767207Y-33656390D01*
X122767209Y-33656395D01*
X122846637Y-33900850D01*
X122846641Y-33900860D01*
X122963332Y-34129878D01*
X123039146Y-34234227D01*
X123603813Y-33669559D01*
X123606740Y-33676626D01*
X123699762Y-33815844D01*
X123818156Y-33934238D01*
X123957374Y-34027260D01*
X123964437Y-34030185D01*
X123399770Y-34594852D01*
X123504116Y-34670663D01*
X123504129Y-34670672D01*
X123733139Y-34787358D01*
X123733149Y-34787362D01*
X123977604Y-34866790D01*
X123977609Y-34866792D01*
X124231468Y-34906998D01*
X124231484Y-34907000D01*
X124488516Y-34907000D01*
X124488528Y-34906998D01*
X124583966Y-34891883D01*
X124681046Y-34895697D01*
X124769277Y-34936371D01*
X124835226Y-35007714D01*
X124868853Y-35098864D01*
X124865039Y-35195944D01*
X124863435Y-35202262D01*
X124810867Y-35398450D01*
X124774500Y-35674687D01*
X124774500Y-35953312D01*
X124804378Y-36180263D01*
X124810868Y-36229554D01*
X124863434Y-36425736D01*
X124863435Y-36425737D01*
X124869789Y-36522684D01*
X124838559Y-36614683D01*
X124774500Y-36687727D01*
X124687364Y-36730698D01*
X124590417Y-36737052D01*
X124583969Y-36736117D01*
X124488523Y-36721000D01*
X124231484Y-36721000D01*
X124231468Y-36721001D01*
X123977609Y-36761207D01*
X123977604Y-36761209D01*
X123733149Y-36840637D01*
X123733139Y-36840641D01*
X123504129Y-36957328D01*
X123504116Y-36957336D01*
X123399771Y-37033146D01*
X123964438Y-37597813D01*
X123957374Y-37600740D01*
X123818156Y-37693762D01*
X123699762Y-37812156D01*
X123606740Y-37951374D01*
X123603813Y-37958438D01*
X123039146Y-37393771D01*
X122963336Y-37498116D01*
X122963328Y-37498129D01*
X122846641Y-37727139D01*
X122846637Y-37727149D01*
X122767209Y-37971604D01*
X122767207Y-37971609D01*
X122727001Y-38225468D01*
X122727000Y-38225484D01*
X122727000Y-38482515D01*
X122727001Y-38482531D01*
X122767207Y-38736390D01*
X122767209Y-38736395D01*
X122846637Y-38980850D01*
X122846641Y-38980860D01*
X122963332Y-39209878D01*
X123039146Y-39314227D01*
X123603813Y-38749559D01*
X123606740Y-38756626D01*
X123699762Y-38895844D01*
X123818156Y-39014238D01*
X123957374Y-39107260D01*
X123964436Y-39110185D01*
X123399770Y-39674851D01*
X123399770Y-39674852D01*
X123504116Y-39750663D01*
X123504129Y-39750672D01*
X123733139Y-39867358D01*
X123733149Y-39867362D01*
X123977604Y-39946790D01*
X123977609Y-39946792D01*
X124231468Y-39986998D01*
X124231484Y-39987000D01*
X124488516Y-39987000D01*
X124488531Y-39986998D01*
X124742390Y-39946792D01*
X124742395Y-39946790D01*
X124986850Y-39867362D01*
X124986860Y-39867358D01*
X125215878Y-39750667D01*
X125320227Y-39674852D01*
X124755561Y-39110186D01*
X124762626Y-39107260D01*
X124901844Y-39014238D01*
X125020238Y-38895844D01*
X125113260Y-38756626D01*
X125116186Y-38749561D01*
X125680852Y-39314227D01*
X125756667Y-39209878D01*
X125873358Y-38980860D01*
X125873362Y-38980850D01*
X125952790Y-38736395D01*
X125952792Y-38736390D01*
X125992998Y-38482531D01*
X125993000Y-38482515D01*
X125993000Y-38225484D01*
X125992998Y-38225469D01*
X125977883Y-38130032D01*
X125981697Y-38032952D01*
X126022372Y-37944722D01*
X126093715Y-37878773D01*
X126184865Y-37845146D01*
X126281945Y-37848960D01*
X126288160Y-37850538D01*
X126484446Y-37903132D01*
X126760687Y-37939500D01*
X127039313Y-37939500D01*
X127315554Y-37903132D01*
X127511739Y-37850564D01*
X127608683Y-37844210D01*
X127700682Y-37875439D01*
X127773727Y-37939498D01*
X127816697Y-38026634D01*
X127823052Y-38123581D01*
X127822117Y-38130030D01*
X127807000Y-38225476D01*
X127807000Y-38482515D01*
X127807001Y-38482531D01*
X127847207Y-38736390D01*
X127847209Y-38736395D01*
X127926637Y-38980850D01*
X127926641Y-38980860D01*
X128043332Y-39209878D01*
X128119146Y-39314227D01*
X128683813Y-38749560D01*
X128686740Y-38756626D01*
X128779762Y-38895844D01*
X128898156Y-39014238D01*
X129037374Y-39107260D01*
X129044436Y-39110185D01*
X128479770Y-39674851D01*
X128479770Y-39674852D01*
X128584116Y-39750663D01*
X128584129Y-39750672D01*
X128813139Y-39867358D01*
X128813149Y-39867362D01*
X129057604Y-39946790D01*
X129057609Y-39946792D01*
X129311468Y-39986998D01*
X129311484Y-39987000D01*
X129568516Y-39987000D01*
X129568531Y-39986998D01*
X129822390Y-39946792D01*
X129822395Y-39946790D01*
X130066850Y-39867362D01*
X130066860Y-39867358D01*
X130295878Y-39750667D01*
X130400227Y-39674852D01*
X129835561Y-39110186D01*
X129842626Y-39107260D01*
X129981844Y-39014238D01*
X130100238Y-38895844D01*
X130193260Y-38756626D01*
X130196186Y-38749561D01*
X130760852Y-39314227D01*
X130836667Y-39209878D01*
X130953358Y-38980860D01*
X130953362Y-38980850D01*
X131032790Y-38736395D01*
X131032792Y-38736390D01*
X131072998Y-38482531D01*
X131073000Y-38482515D01*
X131073000Y-38225484D01*
X131072998Y-38225468D01*
X131032792Y-37971609D01*
X131032790Y-37971604D01*
X130953362Y-37727149D01*
X130953358Y-37727139D01*
X130836672Y-37498129D01*
X130836663Y-37498116D01*
X130760851Y-37393770D01*
X130196185Y-37958436D01*
X130193260Y-37951374D01*
X130100238Y-37812156D01*
X129981844Y-37693762D01*
X129842626Y-37600740D01*
X129835561Y-37597813D01*
X130400228Y-37033147D01*
X130295878Y-36957332D01*
X130066860Y-36840641D01*
X130066850Y-36840637D01*
X129822395Y-36761209D01*
X129822390Y-36761207D01*
X129568531Y-36721001D01*
X129568516Y-36721000D01*
X129311476Y-36721000D01*
X129216030Y-36736117D01*
X129118950Y-36732302D01*
X129030720Y-36691626D01*
X128964771Y-36620282D01*
X128931145Y-36529132D01*
X128934960Y-36432052D01*
X128936565Y-36425737D01*
X128989132Y-36229554D01*
X129025500Y-35953313D01*
X129025500Y-35674687D01*
X128989132Y-35398446D01*
X128936563Y-35202255D01*
X128930210Y-35105316D01*
X128961440Y-35013317D01*
X129025498Y-34940272D01*
X129112634Y-34897301D01*
X129209581Y-34890947D01*
X129216032Y-34891883D01*
X129311469Y-34906998D01*
X129311484Y-34907000D01*
X129568516Y-34907000D01*
X129568531Y-34906998D01*
X129822390Y-34866792D01*
X129822395Y-34866790D01*
X130066850Y-34787362D01*
X130066860Y-34787358D01*
X130295878Y-34670667D01*
X130400227Y-34594852D01*
X129835561Y-34030186D01*
X129842626Y-34027260D01*
X129981844Y-33934238D01*
X130100238Y-33815844D01*
X130193260Y-33676626D01*
X130196186Y-33669561D01*
X130760852Y-34234227D01*
X130836667Y-34129878D01*
X130953358Y-33900860D01*
X130953362Y-33900850D01*
X131032790Y-33656395D01*
X131032792Y-33656390D01*
X131072998Y-33402531D01*
X131073000Y-33402515D01*
X131073000Y-33145484D01*
X131072998Y-33145468D01*
X131032792Y-32891609D01*
X131032790Y-32891604D01*
X130953362Y-32647149D01*
X130953358Y-32647139D01*
X130836672Y-32418129D01*
X130836663Y-32418116D01*
X130760851Y-32313770D01*
X130196185Y-32878436D01*
X130193260Y-32871374D01*
X130100238Y-32732156D01*
X129981844Y-32613762D01*
X129842626Y-32520740D01*
X129835559Y-32517813D01*
X130400227Y-31953146D01*
X130295878Y-31877332D01*
X130066860Y-31760641D01*
X130066850Y-31760637D01*
X129822395Y-31681209D01*
X129822390Y-31681207D01*
X129568531Y-31641001D01*
X129568516Y-31641000D01*
X129311484Y-31641000D01*
X129311468Y-31641001D01*
X129057609Y-31681207D01*
X129057604Y-31681209D01*
X128813149Y-31760637D01*
X128813139Y-31760641D01*
X128584129Y-31877328D01*
X128584116Y-31877336D01*
X128479771Y-31953146D01*
X129044438Y-32517813D01*
X129037374Y-32520740D01*
X128898156Y-32613762D01*
X128779762Y-32732156D01*
X128686740Y-32871374D01*
X128683813Y-32878438D01*
X128119146Y-32313771D01*
X128043336Y-32418116D01*
X128043328Y-32418129D01*
X127926641Y-32647139D01*
X127926637Y-32647149D01*
X127847209Y-32891604D01*
X127847207Y-32891609D01*
X127807001Y-33145468D01*
X127807000Y-33145484D01*
X127807000Y-33402523D01*
X127822117Y-33497969D01*
X127818302Y-33595049D01*
X127777626Y-33683279D01*
X127706283Y-33749227D01*
X127615132Y-33782854D01*
X127518052Y-33779039D01*
X127511768Y-33777442D01*
X127315554Y-33724868D01*
X127315549Y-33724867D01*
X127315550Y-33724867D01*
X127039313Y-33688500D01*
X126760687Y-33688500D01*
X126484450Y-33724867D01*
X126484446Y-33724867D01*
X126484446Y-33724868D01*
X126288261Y-33777435D01*
X126191315Y-33783789D01*
X126099316Y-33752559D01*
X126026271Y-33688500D01*
X125983301Y-33601364D01*
X125976947Y-33504417D01*
X125977883Y-33497966D01*
X125992998Y-33402528D01*
X125993000Y-33402515D01*
X125993000Y-33145484D01*
X125992998Y-33145468D01*
X125952792Y-32891609D01*
X125952790Y-32891604D01*
X125873362Y-32647149D01*
X125873358Y-32647139D01*
X125756672Y-32418129D01*
X125756663Y-32418116D01*
X125680852Y-32313770D01*
X125116185Y-32878437D01*
X125113260Y-32871374D01*
X125020238Y-32732156D01*
X124901844Y-32613762D01*
X124762626Y-32520740D01*
X124755559Y-32517813D01*
X125320227Y-31953146D01*
X125215878Y-31877332D01*
X124986860Y-31760641D01*
X124986850Y-31760637D01*
X124742395Y-31681209D01*
X124742390Y-31681207D01*
X124488531Y-31641001D01*
X124488516Y-31641000D01*
X124231484Y-31641000D01*
X124231468Y-31641001D01*
X123977609Y-31681207D01*
X123977604Y-31681209D01*
X123733149Y-31760637D01*
X123733139Y-31760641D01*
X123504129Y-31877328D01*
X123504116Y-31877336D01*
X123399771Y-31953146D01*
X123964438Y-32517813D01*
X123957374Y-32520740D01*
X123818156Y-32613762D01*
X123699762Y-32732156D01*
X123606740Y-32871374D01*
X123603813Y-32878438D01*
X123039146Y-32313771D01*
X122963336Y-32418116D01*
X122963328Y-32418129D01*
X122846641Y-32647139D01*
X122846637Y-32647149D01*
X122767209Y-32891604D01*
X122767207Y-32891609D01*
X122727001Y-33145468D01*
X122727000Y-33145484D01*
X120550500Y-33145484D01*
X120550500Y-25390133D01*
X122604138Y-25390133D01*
X122604138Y-25609866D01*
X122638508Y-25826862D01*
X122693308Y-25995522D01*
X122706404Y-26035825D01*
X122774719Y-26169901D01*
X122806154Y-26231595D01*
X122935293Y-26409339D01*
X122935296Y-26409343D01*
X123090657Y-26564704D01*
X123124034Y-26588954D01*
X123268404Y-26693845D01*
X123268406Y-26693846D01*
X123268409Y-26693848D01*
X123464175Y-26793596D01*
X123673135Y-26861491D01*
X123749459Y-26873579D01*
X123890133Y-26895861D01*
X123890140Y-26895861D01*
X123890143Y-26895862D01*
X123890146Y-26895862D01*
X124109854Y-26895862D01*
X124109857Y-26895862D01*
X124109860Y-26895861D01*
X124109866Y-26895861D01*
X124212378Y-26879624D01*
X124326865Y-26861491D01*
X124535825Y-26793596D01*
X124731591Y-26693848D01*
X124909343Y-26564704D01*
X125064704Y-26409343D01*
X125193848Y-26231591D01*
X125293596Y-26035825D01*
X125361491Y-25826865D01*
X125382662Y-25693198D01*
X125395861Y-25609866D01*
X125395862Y-25609854D01*
X125395862Y-25390145D01*
X125395861Y-25390133D01*
X125367765Y-25212746D01*
X125361491Y-25173135D01*
X125293596Y-24964175D01*
X125193848Y-24768409D01*
X125193846Y-24768406D01*
X125193845Y-24768404D01*
X125064706Y-24590660D01*
X125064704Y-24590657D01*
X124909343Y-24435296D01*
X124902190Y-24430099D01*
X124731595Y-24306154D01*
X124603556Y-24240915D01*
X124535825Y-24206404D01*
X124535822Y-24206403D01*
X124535820Y-24206402D01*
X124388739Y-24158613D01*
X124326862Y-24138508D01*
X124109866Y-24104138D01*
X124109857Y-24104138D01*
X123890143Y-24104138D01*
X123890133Y-24104138D01*
X123673137Y-24138508D01*
X123464179Y-24206402D01*
X123268404Y-24306154D01*
X123090660Y-24435293D01*
X122935293Y-24590660D01*
X122806154Y-24768404D01*
X122706402Y-24964179D01*
X122638508Y-25173137D01*
X122604138Y-25390133D01*
X120550500Y-25390133D01*
X120550500Y-24506981D01*
X120550892Y-24493020D01*
X120554134Y-24435293D01*
X120568262Y-24183710D01*
X120571385Y-24155992D01*
X120609513Y-23931587D01*
X127729500Y-23931587D01*
X127729500Y-24128412D01*
X127729501Y-24128428D01*
X127757262Y-24303704D01*
X127760291Y-24322826D01*
X127784050Y-24395949D01*
X127817858Y-24500000D01*
X127821116Y-24510025D01*
X127910476Y-24685405D01*
X127910479Y-24685409D01*
X127910479Y-24685410D01*
X127982470Y-24784496D01*
X128026172Y-24844646D01*
X128103201Y-24921675D01*
X128157175Y-25002454D01*
X128176129Y-25097742D01*
X128157175Y-25193030D01*
X128103199Y-25273812D01*
X128022417Y-25327788D01*
X128004896Y-25334251D01*
X127891659Y-25391949D01*
X127801948Y-25481660D01*
X127744353Y-25594696D01*
X127744352Y-25594700D01*
X127729501Y-25688469D01*
X127729500Y-25688485D01*
X127729500Y-27451515D01*
X127734141Y-27480817D01*
X127744354Y-27545304D01*
X127801950Y-27658342D01*
X127891658Y-27748050D01*
X127891660Y-27748051D01*
X128004696Y-27805646D01*
X128004700Y-27805647D01*
X128078462Y-27817329D01*
X128098481Y-27820500D01*
X129861518Y-27820499D01*
X129955304Y-27805646D01*
X130068342Y-27748050D01*
X130158050Y-27658342D01*
X130215646Y-27545304D01*
X130215646Y-27545302D01*
X130224542Y-27527844D01*
X130225341Y-27528251D01*
X130262915Y-27461158D01*
X130339212Y-27401010D01*
X130432720Y-27374638D01*
X130529201Y-27386057D01*
X130613969Y-27433528D01*
X130628313Y-27446787D01*
X130705354Y-27523828D01*
X130705357Y-27523830D01*
X130858783Y-27635302D01*
X130864595Y-27639524D01*
X131039975Y-27728884D01*
X131227174Y-27789709D01*
X131421583Y-27820500D01*
X131421587Y-27820500D01*
X131618413Y-27820500D01*
X131618417Y-27820500D01*
X131812826Y-27789709D01*
X132000025Y-27728884D01*
X132175405Y-27639524D01*
X132334646Y-27523828D01*
X132473828Y-27384646D01*
X132588556Y-27226736D01*
X132659899Y-27160790D01*
X132751049Y-27127163D01*
X132848129Y-27130978D01*
X132936360Y-27171653D01*
X132991443Y-27226736D01*
X133106172Y-27384646D01*
X133245354Y-27523828D01*
X133245357Y-27523830D01*
X133398783Y-27635302D01*
X133404595Y-27639524D01*
X133579975Y-27728884D01*
X133767174Y-27789709D01*
X133961583Y-27820500D01*
X133961587Y-27820500D01*
X134158413Y-27820500D01*
X134158417Y-27820500D01*
X134352826Y-27789709D01*
X134540025Y-27728884D01*
X134715405Y-27639524D01*
X134874646Y-27523828D01*
X135013828Y-27384646D01*
X135128556Y-27226736D01*
X135199899Y-27160790D01*
X135291049Y-27127163D01*
X135388129Y-27130978D01*
X135476360Y-27171653D01*
X135531443Y-27226736D01*
X135646172Y-27384646D01*
X135785354Y-27523828D01*
X135785357Y-27523830D01*
X135938783Y-27635302D01*
X135944595Y-27639524D01*
X136119975Y-27728884D01*
X136307174Y-27789709D01*
X136501583Y-27820500D01*
X136501587Y-27820500D01*
X136698413Y-27820500D01*
X136698417Y-27820500D01*
X136892826Y-27789709D01*
X136970286Y-27764540D01*
X137066763Y-27753121D01*
X137160270Y-27779493D01*
X137236568Y-27839640D01*
X137277812Y-27913286D01*
X137279071Y-27912765D01*
X137283472Y-27923391D01*
X137284041Y-27924407D01*
X137284413Y-27925662D01*
X137285316Y-27927844D01*
X137354493Y-28047662D01*
X137354494Y-28047663D01*
X137354496Y-28047666D01*
X137452336Y-28145506D01*
X137452338Y-28145507D01*
X138204493Y-28897662D01*
X138204495Y-28897665D01*
X138302335Y-28995505D01*
X138302337Y-28995506D01*
X138302338Y-28995507D01*
X138422162Y-29064687D01*
X138422163Y-29064687D01*
X138422164Y-29064688D01*
X138555817Y-29100500D01*
X138694183Y-29100500D01*
X143804191Y-29100500D01*
X143899479Y-29119454D01*
X143980261Y-29173430D01*
X144601570Y-29794739D01*
X144655546Y-29875521D01*
X144674500Y-29970809D01*
X144674500Y-33151949D01*
X144674499Y-33151967D01*
X144674499Y-33305596D01*
X144702741Y-33410997D01*
X144702742Y-33410997D01*
X144710312Y-33439247D01*
X144779492Y-33559071D01*
X144779493Y-33559072D01*
X144779495Y-33559075D01*
X144877335Y-33656915D01*
X144877337Y-33656916D01*
X169483083Y-58262662D01*
X169483085Y-58262665D01*
X169580925Y-58360505D01*
X169580927Y-58360506D01*
X169580928Y-58360507D01*
X169700750Y-58429686D01*
X169700751Y-58429686D01*
X169700754Y-58429688D01*
X169720859Y-58435075D01*
X169834407Y-58465501D01*
X169972773Y-58465501D01*
X169972777Y-58465500D01*
X170740283Y-58465500D01*
X170835571Y-58484454D01*
X170916349Y-58538427D01*
X170939711Y-58561789D01*
X171008514Y-58607762D01*
X171050306Y-58635686D01*
X171067646Y-58653026D01*
X171088037Y-58666651D01*
X171101662Y-58687042D01*
X171119005Y-58704385D01*
X171128389Y-58727042D01*
X171142014Y-58747432D01*
X171146798Y-58771486D01*
X171156184Y-58794144D01*
X171156184Y-58818666D01*
X171160969Y-58842720D01*
X171156184Y-58866773D01*
X171156185Y-58891299D01*
X171146800Y-58913955D01*
X171142016Y-58938009D01*
X171128389Y-58958401D01*
X171119005Y-58981059D01*
X171088040Y-59018790D01*
X171015263Y-59091568D01*
X170934482Y-59145545D01*
X170839194Y-59164500D01*
X158140812Y-59164500D01*
X158007167Y-59200310D01*
X158007162Y-59200312D01*
X157887338Y-59269492D01*
X157887332Y-59269496D01*
X157789494Y-59367334D01*
X157789495Y-59367335D01*
X157789493Y-59367337D01*
X155326014Y-61830817D01*
X152930261Y-64226570D01*
X152849479Y-64280546D01*
X152754191Y-64299500D01*
X152721153Y-64299500D01*
X152566507Y-64330261D01*
X152566502Y-64330263D01*
X152420826Y-64390603D01*
X152420819Y-64390606D01*
X152289714Y-64478208D01*
X152178208Y-64589714D01*
X152090606Y-64720819D01*
X152090603Y-64720826D01*
X152030263Y-64866502D01*
X152030261Y-64866507D01*
X151999500Y-65021153D01*
X151999500Y-65178846D01*
X152030261Y-65333492D01*
X152030263Y-65333497D01*
X152090603Y-65479173D01*
X152090606Y-65479180D01*
X152127429Y-65534289D01*
X152174406Y-65604595D01*
X152179464Y-65612164D01*
X152216643Y-65701923D01*
X152216644Y-65799078D01*
X152179464Y-65888838D01*
X152110765Y-65957537D01*
X152021006Y-65994716D01*
X151972428Y-65999501D01*
X147223049Y-65999501D01*
X147223033Y-65999500D01*
X147207772Y-65999500D01*
X147069406Y-65999500D01*
X147069404Y-65999500D01*
X146992239Y-66020176D01*
X146963997Y-66027744D01*
X146952062Y-66030942D01*
X146935752Y-66035313D01*
X146935747Y-66035315D01*
X146815927Y-66104493D01*
X146815921Y-66104497D01*
X146718083Y-66202335D01*
X146718084Y-66202336D01*
X146718082Y-66202338D01*
X146718081Y-66202337D01*
X146118853Y-66801568D01*
X146038072Y-66855545D01*
X145942783Y-66874499D01*
X142695098Y-66874499D01*
X142599810Y-66855545D01*
X142519028Y-66801569D01*
X142465052Y-66720787D01*
X142446098Y-66625499D01*
X142449491Y-66591033D01*
X142449301Y-66591015D01*
X142450500Y-66578841D01*
X142450500Y-66421158D01*
X142450499Y-66421153D01*
X142419738Y-66266507D01*
X142419737Y-66266505D01*
X142419737Y-66266503D01*
X142359394Y-66120821D01*
X142271789Y-65989711D01*
X142160289Y-65878211D01*
X142147607Y-65869737D01*
X142029180Y-65790606D01*
X142029173Y-65790603D01*
X141883497Y-65730263D01*
X141883492Y-65730261D01*
X141728846Y-65699500D01*
X141728842Y-65699500D01*
X141571158Y-65699500D01*
X141571153Y-65699500D01*
X141416507Y-65730261D01*
X141416502Y-65730263D01*
X141270826Y-65790603D01*
X141270819Y-65790606D01*
X141139714Y-65878208D01*
X141028208Y-65989714D01*
X140940606Y-66120819D01*
X140940603Y-66120826D01*
X140880263Y-66266502D01*
X140880261Y-66266507D01*
X140849500Y-66421153D01*
X140849500Y-66578841D01*
X140850699Y-66591015D01*
X140849118Y-66591170D01*
X140849116Y-66674081D01*
X140811935Y-66763840D01*
X140743234Y-66832537D01*
X140653474Y-66869715D01*
X140604902Y-66874498D01*
X140585816Y-66874498D01*
X140508651Y-66895174D01*
X140480409Y-66902742D01*
X140468474Y-66905940D01*
X140452164Y-66910311D01*
X140452159Y-66910313D01*
X140332339Y-66979491D01*
X140332333Y-66979495D01*
X140234498Y-67077330D01*
X140234494Y-67077336D01*
X140080262Y-67231569D01*
X139999481Y-67285546D01*
X139904193Y-67304500D01*
X139871153Y-67304500D01*
X139716507Y-67335261D01*
X139716502Y-67335263D01*
X139570826Y-67395603D01*
X139570819Y-67395606D01*
X139439714Y-67483208D01*
X139328208Y-67594714D01*
X139240606Y-67725819D01*
X139240603Y-67725826D01*
X139180263Y-67871502D01*
X139180261Y-67871507D01*
X139149500Y-68026153D01*
X139149500Y-68183846D01*
X139180261Y-68338492D01*
X139180263Y-68338497D01*
X139240603Y-68484173D01*
X139240606Y-68484180D01*
X139306968Y-68583497D01*
X139328211Y-68615289D01*
X139439711Y-68726789D01*
X139439714Y-68726791D01*
X139570819Y-68814393D01*
X139570820Y-68814393D01*
X139570821Y-68814394D01*
X139716503Y-68874737D01*
X139716505Y-68874737D01*
X139716507Y-68874738D01*
X139835605Y-68898428D01*
X139871158Y-68905500D01*
X140028842Y-68905500D01*
X140183497Y-68874737D01*
X140329179Y-68814394D01*
X140460289Y-68726789D01*
X140571789Y-68615289D01*
X140659394Y-68484179D01*
X140719737Y-68338497D01*
X140750500Y-68183842D01*
X140750500Y-68174499D01*
X140769454Y-68079211D01*
X140823430Y-67998429D01*
X140904212Y-67944453D01*
X140999500Y-67925499D01*
X142175500Y-67925499D01*
X142270788Y-67944453D01*
X142351570Y-67998429D01*
X142405546Y-68079211D01*
X142424500Y-68174499D01*
X142424500Y-68203846D01*
X142455261Y-68358492D01*
X142455263Y-68358497D01*
X142515603Y-68504173D01*
X142515606Y-68504180D01*
X142589847Y-68615289D01*
X142603211Y-68635289D01*
X142714711Y-68746789D01*
X142714714Y-68746791D01*
X142845819Y-68834393D01*
X142845820Y-68834393D01*
X142845821Y-68834394D01*
X142991503Y-68894737D01*
X142991505Y-68894737D01*
X142991507Y-68894738D01*
X143142148Y-68924702D01*
X143146158Y-68925500D01*
X143303842Y-68925500D01*
X143458497Y-68894737D01*
X143604179Y-68834394D01*
X143735289Y-68746789D01*
X143758650Y-68723427D01*
X143839429Y-68669454D01*
X143934717Y-68650500D01*
X146105813Y-68650500D01*
X146105817Y-68650501D01*
X146244183Y-68650501D01*
X146353689Y-68621158D01*
X146377836Y-68614688D01*
X146377839Y-68614686D01*
X146377840Y-68614686D01*
X146437750Y-68580096D01*
X146497665Y-68545505D01*
X146595505Y-68447665D01*
X146595506Y-68447662D01*
X146774278Y-68268889D01*
X146855057Y-68214916D01*
X146950345Y-68195962D01*
X147003936Y-68206621D01*
X147000746Y-68198920D01*
X147000747Y-68101765D01*
X147037927Y-68012006D01*
X147068893Y-67974275D01*
X147469729Y-67573440D01*
X147550510Y-67519464D01*
X147645798Y-67500510D01*
X160560500Y-67500510D01*
X160588546Y-67506088D01*
X160617131Y-67507035D01*
X160635745Y-67515477D01*
X160655788Y-67519464D01*
X160679565Y-67535351D01*
X160705611Y-67547164D01*
X160719575Y-67562084D01*
X160736570Y-67573440D01*
X160752459Y-67597219D01*
X160772000Y-67618099D01*
X160779192Y-67637229D01*
X160790546Y-67654222D01*
X160796125Y-67682269D01*
X160806189Y-67709039D01*
X160809500Y-67729139D01*
X160809500Y-67788842D01*
X160840263Y-67943497D01*
X160847811Y-67961722D01*
X160852475Y-67990030D01*
X160849261Y-68087132D01*
X160809132Y-68175612D01*
X160738197Y-68242001D01*
X160647257Y-68276190D01*
X160606786Y-68279501D01*
X148166542Y-68279501D01*
X148071257Y-68260548D01*
X148058497Y-68255263D01*
X148058496Y-68255262D01*
X148058492Y-68255261D01*
X148058493Y-68255261D01*
X147903846Y-68224500D01*
X147903842Y-68224500D01*
X147746158Y-68224500D01*
X147746153Y-68224500D01*
X147591507Y-68255261D01*
X147591502Y-68255263D01*
X147445826Y-68315603D01*
X147445816Y-68315608D01*
X147383297Y-68357382D01*
X147293537Y-68394561D01*
X147196382Y-68394560D01*
X147188685Y-68391371D01*
X147199345Y-68444962D01*
X147180391Y-68540250D01*
X147157382Y-68583297D01*
X147115608Y-68645816D01*
X147115603Y-68645826D01*
X147055263Y-68791502D01*
X147055261Y-68791507D01*
X147024500Y-68946153D01*
X147024500Y-69103846D01*
X147055261Y-69258492D01*
X147055263Y-69258497D01*
X147115604Y-69404176D01*
X147117716Y-69408127D01*
X147119015Y-69412411D01*
X147120287Y-69415481D01*
X147119984Y-69415606D01*
X147145917Y-69501099D01*
X147136392Y-69597786D01*
X147090591Y-69683468D01*
X147015488Y-69745101D01*
X146922516Y-69773302D01*
X146898115Y-69774500D01*
X139409717Y-69774500D01*
X139314429Y-69755546D01*
X139233650Y-69701572D01*
X139210289Y-69678211D01*
X139163263Y-69646789D01*
X139079180Y-69590606D01*
X139079173Y-69590603D01*
X138933497Y-69530263D01*
X138933492Y-69530261D01*
X138778846Y-69499500D01*
X138778842Y-69499500D01*
X138621158Y-69499500D01*
X138621153Y-69499500D01*
X138466507Y-69530261D01*
X138466502Y-69530263D01*
X138320826Y-69590603D01*
X138320819Y-69590606D01*
X138189714Y-69678208D01*
X138078208Y-69789714D01*
X137990606Y-69920819D01*
X137990603Y-69920826D01*
X137930263Y-70066502D01*
X137930261Y-70066507D01*
X137899500Y-70221153D01*
X137899500Y-70378846D01*
X137930261Y-70533492D01*
X137930263Y-70533497D01*
X137990603Y-70679173D01*
X137990606Y-70679180D01*
X138078208Y-70810285D01*
X138078211Y-70810289D01*
X138189711Y-70921789D01*
X138189714Y-70921791D01*
X138320819Y-71009393D01*
X138320820Y-71009393D01*
X138320821Y-71009394D01*
X138466503Y-71069737D01*
X138466505Y-71069737D01*
X138466507Y-71069738D01*
X138617148Y-71099702D01*
X138621158Y-71100500D01*
X138778842Y-71100500D01*
X138933497Y-71069737D01*
X139079179Y-71009394D01*
X139210289Y-70921789D01*
X139233650Y-70898427D01*
X139314429Y-70844454D01*
X139409717Y-70825500D01*
X168730813Y-70825500D01*
X168730817Y-70825501D01*
X168869183Y-70825501D01*
X168974591Y-70797256D01*
X169002836Y-70789688D01*
X169122665Y-70720505D01*
X169220505Y-70622665D01*
X169220506Y-70622662D01*
X175227808Y-64615360D01*
X176524500Y-64615360D01*
X176524500Y-64784639D01*
X176524501Y-64784655D01*
X176550981Y-64951844D01*
X176601394Y-65107001D01*
X176603295Y-65112849D01*
X176680150Y-65263685D01*
X176680152Y-65263688D01*
X176730871Y-65333497D01*
X176779654Y-65400641D01*
X176899359Y-65520346D01*
X176899362Y-65520348D01*
X176902944Y-65523930D01*
X176956920Y-65604712D01*
X176975874Y-65700000D01*
X176956920Y-65795288D01*
X176902944Y-65876070D01*
X176899362Y-65879651D01*
X176899359Y-65879654D01*
X176821476Y-65957537D01*
X176779651Y-65999362D01*
X176680152Y-66136311D01*
X176603293Y-66287155D01*
X176550981Y-66448155D01*
X176524501Y-66615344D01*
X176524500Y-66615360D01*
X176524500Y-66784639D01*
X176524501Y-66784655D01*
X176550981Y-66951844D01*
X176599322Y-67100624D01*
X176603295Y-67112849D01*
X176680150Y-67263685D01*
X176742067Y-67348907D01*
X176742069Y-67348909D01*
X176782744Y-67437139D01*
X176786559Y-67534219D01*
X176752932Y-67625369D01*
X176700026Y-67682605D01*
X176700515Y-67683094D01*
X176688092Y-67695516D01*
X176686993Y-67696706D01*
X176686663Y-67696945D01*
X176596948Y-67786660D01*
X176539353Y-67899696D01*
X176539352Y-67899700D01*
X176524501Y-67993469D01*
X176524500Y-67993485D01*
X176524500Y-69406515D01*
X176525434Y-69412411D01*
X176539354Y-69500304D01*
X176596950Y-69613342D01*
X176686658Y-69703050D01*
X176686660Y-69703051D01*
X176799696Y-69760646D01*
X176799700Y-69760647D01*
X176873462Y-69772329D01*
X176893481Y-69775500D01*
X178306518Y-69775499D01*
X178400304Y-69760646D01*
X178513342Y-69703050D01*
X178603050Y-69613342D01*
X178660646Y-69500304D01*
X178660774Y-69499500D01*
X178674061Y-69415606D01*
X178675500Y-69406519D01*
X178675499Y-67993482D01*
X178660646Y-67899696D01*
X178603050Y-67786658D01*
X178513342Y-67696950D01*
X178513339Y-67696948D01*
X178513337Y-67696946D01*
X178513012Y-67696710D01*
X178511924Y-67695533D01*
X178499485Y-67683094D01*
X178499974Y-67682604D01*
X178447065Y-67625365D01*
X178413440Y-67534215D01*
X178417256Y-67437135D01*
X178457927Y-67348913D01*
X178519850Y-67263685D01*
X178596705Y-67112849D01*
X178649018Y-66951847D01*
X178675500Y-66784644D01*
X178675500Y-66784629D01*
X178676267Y-66774893D01*
X178678276Y-66775051D01*
X178694454Y-66693720D01*
X178748430Y-66612939D01*
X179677129Y-65684239D01*
X179757911Y-65630262D01*
X179853199Y-65611308D01*
X179948487Y-65630262D01*
X180029268Y-65684238D01*
X180083245Y-65765020D01*
X180102199Y-65860308D01*
X180090014Y-65937248D01*
X180080289Y-65967177D01*
X180049501Y-66161571D01*
X180049500Y-66161587D01*
X180049500Y-66358412D01*
X180049501Y-66358428D01*
X180074463Y-66516030D01*
X180080291Y-66552826D01*
X180100608Y-66615356D01*
X180141107Y-66739999D01*
X180141116Y-66740025D01*
X180230476Y-66915405D01*
X180230479Y-66915409D01*
X180230479Y-66915410D01*
X180277040Y-66979495D01*
X180346172Y-67074646D01*
X180485354Y-67213828D01*
X180485357Y-67213830D01*
X180643261Y-67328556D01*
X180709209Y-67399900D01*
X180742836Y-67491050D01*
X180739021Y-67588130D01*
X180698345Y-67676360D01*
X180643261Y-67731444D01*
X180485357Y-67846169D01*
X180346169Y-67985357D01*
X180230479Y-68144589D01*
X180230479Y-68144590D01*
X180230477Y-68144592D01*
X180230476Y-68144595D01*
X180202796Y-68198920D01*
X180141115Y-68319976D01*
X180141113Y-68319982D01*
X180080290Y-68507177D01*
X180049501Y-68701571D01*
X180049500Y-68701587D01*
X180049500Y-68898412D01*
X180049501Y-68898428D01*
X180074996Y-69059394D01*
X180080291Y-69092826D01*
X180141116Y-69280025D01*
X180230476Y-69455405D01*
X180230479Y-69455409D01*
X180230479Y-69455410D01*
X180346169Y-69614642D01*
X180346172Y-69614646D01*
X180485354Y-69753828D01*
X180644595Y-69869524D01*
X180819975Y-69958884D01*
X181007174Y-70019709D01*
X181201583Y-70050500D01*
X181201587Y-70050500D01*
X181398413Y-70050500D01*
X181398417Y-70050500D01*
X181592826Y-70019709D01*
X181780025Y-69958884D01*
X181955405Y-69869524D01*
X182114646Y-69753828D01*
X182253828Y-69614646D01*
X182369524Y-69455405D01*
X182458884Y-69280025D01*
X182519709Y-69092826D01*
X182550500Y-68898417D01*
X182550500Y-68701583D01*
X182519709Y-68507174D01*
X182458884Y-68319975D01*
X182369524Y-68144595D01*
X182327774Y-68087132D01*
X182273192Y-68012006D01*
X182253828Y-67985354D01*
X182114646Y-67846172D01*
X181956736Y-67731443D01*
X181890790Y-67660101D01*
X181857163Y-67568951D01*
X181860978Y-67471871D01*
X181901653Y-67383640D01*
X181956736Y-67328556D01*
X182114646Y-67213828D01*
X182253828Y-67074646D01*
X182369524Y-66915405D01*
X182458884Y-66740025D01*
X182519709Y-66552826D01*
X182550500Y-66358417D01*
X182550500Y-66161583D01*
X182519709Y-65967174D01*
X182458884Y-65779975D01*
X182369524Y-65604595D01*
X182369416Y-65604447D01*
X182253830Y-65445357D01*
X182253828Y-65445354D01*
X182114646Y-65306172D01*
X181956736Y-65191443D01*
X181890790Y-65120101D01*
X181857163Y-65028951D01*
X181860978Y-64931871D01*
X181901653Y-64843640D01*
X181956736Y-64788556D01*
X182114646Y-64673828D01*
X182253828Y-64534646D01*
X182369524Y-64375405D01*
X182458884Y-64200025D01*
X182519709Y-64012826D01*
X182550500Y-63818417D01*
X182550500Y-63621583D01*
X182519709Y-63427174D01*
X182458884Y-63239975D01*
X182369524Y-63064595D01*
X182253828Y-62905354D01*
X182114646Y-62766172D01*
X181956736Y-62651443D01*
X181890790Y-62580101D01*
X181857163Y-62488951D01*
X181860978Y-62391871D01*
X181901653Y-62303640D01*
X181956736Y-62248556D01*
X182114646Y-62133828D01*
X182253828Y-61994646D01*
X182369524Y-61835405D01*
X182458884Y-61660025D01*
X182519709Y-61472826D01*
X182550500Y-61278417D01*
X182550500Y-61081583D01*
X182519709Y-60887174D01*
X182458884Y-60699975D01*
X182369524Y-60524595D01*
X182330450Y-60470815D01*
X182253830Y-60365357D01*
X182253828Y-60365354D01*
X182114646Y-60226172D01*
X181956736Y-60111443D01*
X181890790Y-60040101D01*
X181857163Y-59948951D01*
X181860978Y-59851871D01*
X181901653Y-59763640D01*
X181956736Y-59708556D01*
X182114646Y-59593828D01*
X182253828Y-59454646D01*
X182369524Y-59295405D01*
X182458884Y-59120025D01*
X182519709Y-58932826D01*
X182550500Y-58738417D01*
X182550500Y-58541583D01*
X182519709Y-58347174D01*
X182458884Y-58159975D01*
X182369524Y-57984595D01*
X182253828Y-57825354D01*
X182253827Y-57825353D01*
X182253825Y-57825350D01*
X182247474Y-57817914D01*
X182249009Y-57816602D01*
X182202954Y-57747675D01*
X182184000Y-57652387D01*
X182202954Y-57557099D01*
X182256930Y-57476317D01*
X182337712Y-57422341D01*
X182345986Y-57419086D01*
X182395961Y-57400446D01*
X182512900Y-57312906D01*
X182512906Y-57312900D01*
X182600445Y-57195962D01*
X182651495Y-57059092D01*
X182657999Y-56998593D01*
X182658000Y-56998588D01*
X182658000Y-56355001D01*
X182657999Y-56355000D01*
X181787861Y-56355000D01*
X181812518Y-56312292D01*
X181850000Y-56172409D01*
X181850000Y-56027591D01*
X181812518Y-55887708D01*
X181787861Y-55845000D01*
X182657999Y-55845000D01*
X182658000Y-55844999D01*
X182658000Y-55201412D01*
X182657999Y-55201406D01*
X182651495Y-55140907D01*
X182600445Y-55004037D01*
X182512906Y-54887099D01*
X182512900Y-54887093D01*
X182395962Y-54799554D01*
X182259092Y-54748504D01*
X182198593Y-54742000D01*
X181555001Y-54742000D01*
X181555000Y-54742001D01*
X181555000Y-55612139D01*
X181512292Y-55587482D01*
X181372409Y-55550000D01*
X181227591Y-55550000D01*
X181087708Y-55587482D01*
X181045000Y-55612139D01*
X181045000Y-54742001D01*
X181044999Y-54742000D01*
X180401406Y-54742000D01*
X180340907Y-54748504D01*
X180204037Y-54799554D01*
X180087099Y-54887093D01*
X180087093Y-54887099D01*
X179999554Y-55004037D01*
X179948504Y-55140907D01*
X179942000Y-55201406D01*
X179942000Y-55844999D01*
X179942001Y-55845000D01*
X180812139Y-55845000D01*
X180787482Y-55887708D01*
X180750000Y-56027591D01*
X180750000Y-56172409D01*
X180787482Y-56312292D01*
X180812139Y-56355000D01*
X179942001Y-56355000D01*
X179942000Y-56355001D01*
X179942000Y-56998593D01*
X179948504Y-57059092D01*
X179999554Y-57195962D01*
X180087093Y-57312900D01*
X180087099Y-57312906D01*
X180204037Y-57400446D01*
X180254014Y-57419086D01*
X180336671Y-57470144D01*
X180393497Y-57548948D01*
X180415840Y-57643498D01*
X180400300Y-57739402D01*
X180352052Y-57817509D01*
X180352526Y-57817914D01*
X180349911Y-57820975D01*
X180349242Y-57822059D01*
X180347008Y-57824374D01*
X180346174Y-57825350D01*
X180230479Y-57984589D01*
X180230479Y-57984590D01*
X180141115Y-58159976D01*
X180141113Y-58159982D01*
X180080290Y-58347177D01*
X180049501Y-58541571D01*
X180049500Y-58541587D01*
X180049500Y-58738412D01*
X180049501Y-58738428D01*
X180076283Y-58907520D01*
X180080291Y-58932826D01*
X180095963Y-58981059D01*
X180131869Y-59091568D01*
X180141116Y-59120025D01*
X180230476Y-59295405D01*
X180230479Y-59295409D01*
X180230479Y-59295410D01*
X180312349Y-59408093D01*
X180346172Y-59454646D01*
X180485354Y-59593828D01*
X180485357Y-59593830D01*
X180643261Y-59708556D01*
X180709209Y-59779900D01*
X180742836Y-59871050D01*
X180739021Y-59968130D01*
X180698345Y-60056360D01*
X180643261Y-60111444D01*
X180485357Y-60226169D01*
X180346169Y-60365357D01*
X180230479Y-60524589D01*
X180230479Y-60524590D01*
X180141115Y-60699976D01*
X180141113Y-60699982D01*
X180080290Y-60887177D01*
X180049501Y-61081571D01*
X180049500Y-61081587D01*
X180049500Y-61265992D01*
X180030546Y-61361280D01*
X179976570Y-61442062D01*
X178917046Y-62501586D01*
X178892156Y-62538839D01*
X178892154Y-62538842D01*
X178834917Y-62624503D01*
X178834915Y-62624507D01*
X178778341Y-62761088D01*
X178749500Y-62906079D01*
X178749500Y-63727374D01*
X178730546Y-63822662D01*
X178676570Y-63903444D01*
X178595788Y-63957420D01*
X178500500Y-63976374D01*
X178405212Y-63957420D01*
X178324433Y-63903446D01*
X178300641Y-63879654D01*
X178222198Y-63822662D01*
X178163688Y-63780152D01*
X178163687Y-63780151D01*
X178163685Y-63780150D01*
X178012849Y-63703295D01*
X178012846Y-63703294D01*
X178012844Y-63703293D01*
X177851844Y-63650981D01*
X177684655Y-63624501D01*
X177684646Y-63624500D01*
X177684644Y-63624500D01*
X177515356Y-63624500D01*
X177515353Y-63624500D01*
X177515344Y-63624501D01*
X177348155Y-63650981D01*
X177187155Y-63703293D01*
X177036311Y-63780152D01*
X176899362Y-63879651D01*
X176779651Y-63999362D01*
X176680152Y-64136311D01*
X176603293Y-64287155D01*
X176550981Y-64448155D01*
X176524501Y-64615344D01*
X176524500Y-64615360D01*
X175227808Y-64615360D01*
X177522662Y-62320506D01*
X177522665Y-62320505D01*
X177620505Y-62222665D01*
X177689688Y-62102836D01*
X177714486Y-62010289D01*
X177725501Y-61969183D01*
X177725501Y-61830817D01*
X177725500Y-61830813D01*
X177725500Y-54100808D01*
X177744454Y-54005520D01*
X177798427Y-53924741D01*
X179685241Y-52037927D01*
X179766020Y-51983954D01*
X179861308Y-51965000D01*
X180812139Y-51965000D01*
X180787482Y-52007708D01*
X180750000Y-52147591D01*
X180750000Y-52292409D01*
X180787482Y-52432292D01*
X180812139Y-52475000D01*
X179965461Y-52475000D01*
X179975436Y-52537988D01*
X179975441Y-52538005D01*
X180041488Y-52741282D01*
X180041492Y-52741290D01*
X180138532Y-52931743D01*
X180138533Y-52931744D01*
X180264174Y-53104674D01*
X180415325Y-53255825D01*
X180588255Y-53381466D01*
X180588256Y-53381467D01*
X180778709Y-53478507D01*
X180778717Y-53478511D01*
X180981994Y-53544558D01*
X180982011Y-53544563D01*
X181045000Y-53554539D01*
X181045000Y-52707860D01*
X181087708Y-52732518D01*
X181227591Y-52770000D01*
X181372409Y-52770000D01*
X181512292Y-52732518D01*
X181555000Y-52707860D01*
X181555000Y-53554538D01*
X181617988Y-53544563D01*
X181618005Y-53544558D01*
X181821282Y-53478511D01*
X181821290Y-53478507D01*
X182011743Y-53381467D01*
X182011744Y-53381466D01*
X182184674Y-53255825D01*
X182335825Y-53104674D01*
X182461466Y-52931744D01*
X182461467Y-52931743D01*
X182558507Y-52741290D01*
X182558511Y-52741282D01*
X182624558Y-52538005D01*
X182624563Y-52537988D01*
X182634539Y-52475000D01*
X181787861Y-52475000D01*
X181812518Y-52432292D01*
X181850000Y-52292409D01*
X181850000Y-52147591D01*
X181812518Y-52007708D01*
X181787861Y-51965000D01*
X182634539Y-51965000D01*
X182624563Y-51902011D01*
X182624558Y-51901994D01*
X182558511Y-51698717D01*
X182558507Y-51698709D01*
X182461467Y-51508256D01*
X182461466Y-51508255D01*
X182335825Y-51335325D01*
X182184674Y-51184174D01*
X182048182Y-51085006D01*
X181982233Y-51013662D01*
X181948606Y-50922512D01*
X181952421Y-50825432D01*
X181993096Y-50737202D01*
X182048177Y-50682120D01*
X182114646Y-50633828D01*
X182253828Y-50494646D01*
X182369524Y-50335405D01*
X182458884Y-50160025D01*
X182519709Y-49972826D01*
X182550500Y-49778417D01*
X182550500Y-49581583D01*
X182519709Y-49387174D01*
X182458884Y-49199975D01*
X182369524Y-49024595D01*
X182253828Y-48865354D01*
X182114646Y-48726172D01*
X181956736Y-48611443D01*
X181890790Y-48540101D01*
X181857163Y-48448951D01*
X181860978Y-48351871D01*
X181901653Y-48263640D01*
X181956736Y-48208556D01*
X182114646Y-48093828D01*
X182253828Y-47954646D01*
X182369524Y-47795405D01*
X182458884Y-47620025D01*
X182519709Y-47432826D01*
X182550500Y-47238417D01*
X182550500Y-47041583D01*
X182519709Y-46847174D01*
X182458884Y-46659975D01*
X182369524Y-46484595D01*
X182366582Y-46480546D01*
X182253830Y-46325357D01*
X182253828Y-46325354D01*
X182176797Y-46248323D01*
X182122824Y-46167545D01*
X182103870Y-46072257D01*
X182122824Y-45976969D01*
X182176800Y-45896187D01*
X182257582Y-45842211D01*
X182275106Y-45835746D01*
X182275301Y-45835646D01*
X182275304Y-45835646D01*
X182388342Y-45778050D01*
X182478050Y-45688342D01*
X182535646Y-45575304D01*
X182550500Y-45481519D01*
X182550499Y-43718482D01*
X182535646Y-43624696D01*
X182478050Y-43511658D01*
X182388342Y-43421950D01*
X182388339Y-43421948D01*
X182275303Y-43364353D01*
X182275299Y-43364352D01*
X182181530Y-43349501D01*
X182181522Y-43349500D01*
X182181519Y-43349500D01*
X182181514Y-43349500D01*
X180418484Y-43349500D01*
X180324695Y-43364354D01*
X180211659Y-43421949D01*
X180121948Y-43511660D01*
X180064353Y-43624696D01*
X180064352Y-43624700D01*
X180049501Y-43718469D01*
X180049500Y-43718485D01*
X180049500Y-45481515D01*
X180064353Y-45575299D01*
X180064354Y-45575304D01*
X180121950Y-45688342D01*
X180211658Y-45778050D01*
X180324696Y-45835646D01*
X180342156Y-45844542D01*
X180341748Y-45845341D01*
X180408844Y-45882918D01*
X180468991Y-45959216D01*
X180495362Y-46052724D01*
X180483941Y-46149205D01*
X180436468Y-46233972D01*
X180423200Y-46248326D01*
X180346169Y-46325357D01*
X180230479Y-46484589D01*
X180230479Y-46484590D01*
X180141115Y-46659976D01*
X180141113Y-46659982D01*
X180080290Y-46847177D01*
X180049501Y-47041571D01*
X180049500Y-47041587D01*
X180049500Y-47238412D01*
X180049501Y-47238428D01*
X180080290Y-47432822D01*
X180112999Y-47533492D01*
X180141116Y-47620025D01*
X180230476Y-47795405D01*
X180230479Y-47795409D01*
X180230479Y-47795410D01*
X180278613Y-47861660D01*
X180346172Y-47954646D01*
X180485354Y-48093828D01*
X180485357Y-48093830D01*
X180643261Y-48208556D01*
X180709209Y-48279900D01*
X180742836Y-48371050D01*
X180739021Y-48468130D01*
X180698345Y-48556360D01*
X180643261Y-48611444D01*
X180485357Y-48726169D01*
X180346169Y-48865357D01*
X180230479Y-49024589D01*
X180230479Y-49024590D01*
X180230477Y-49024592D01*
X180230476Y-49024595D01*
X180187602Y-49108740D01*
X180141115Y-49199976D01*
X180141113Y-49199982D01*
X180080290Y-49387177D01*
X180049501Y-49581571D01*
X180049500Y-49581587D01*
X180049500Y-49778412D01*
X180049501Y-49778428D01*
X180080290Y-49972823D01*
X180082574Y-49982336D01*
X180080157Y-49982916D01*
X180089606Y-50062905D01*
X180063212Y-50156406D01*
X180017448Y-50219380D01*
X177275570Y-52961259D01*
X177194788Y-53015235D01*
X177099500Y-53034189D01*
X177004212Y-53015235D01*
X176923430Y-52961259D01*
X176869454Y-52880477D01*
X176850500Y-52785189D01*
X176850500Y-39845000D01*
X179965461Y-39845000D01*
X180812139Y-39845000D01*
X180787482Y-39887708D01*
X180750000Y-40027591D01*
X180750000Y-40172409D01*
X180787482Y-40312292D01*
X180812139Y-40355000D01*
X179965461Y-40355000D01*
X179975436Y-40417988D01*
X179975441Y-40418005D01*
X180041488Y-40621282D01*
X180041492Y-40621290D01*
X180138532Y-40811743D01*
X180138533Y-40811744D01*
X180264174Y-40984674D01*
X180415325Y-41135825D01*
X180588255Y-41261466D01*
X180588256Y-41261467D01*
X180778709Y-41358507D01*
X180778717Y-41358511D01*
X180981994Y-41424558D01*
X180982011Y-41424563D01*
X181045000Y-41434539D01*
X181045000Y-40587860D01*
X181087708Y-40612518D01*
X181227591Y-40650000D01*
X181372409Y-40650000D01*
X181512292Y-40612518D01*
X181555000Y-40587860D01*
X181555000Y-41434538D01*
X181617988Y-41424563D01*
X181618005Y-41424558D01*
X181821282Y-41358511D01*
X181821290Y-41358507D01*
X182011743Y-41261467D01*
X182011744Y-41261466D01*
X182184674Y-41135825D01*
X182335825Y-40984674D01*
X182461466Y-40811744D01*
X182461467Y-40811743D01*
X182558507Y-40621290D01*
X182558511Y-40621282D01*
X182624558Y-40418005D01*
X182624563Y-40417988D01*
X182634539Y-40355000D01*
X181787861Y-40355000D01*
X181812518Y-40312292D01*
X181850000Y-40172409D01*
X181850000Y-40027591D01*
X181812518Y-39887708D01*
X181787861Y-39845000D01*
X182634539Y-39845000D01*
X182624563Y-39782011D01*
X182624558Y-39781994D01*
X182558511Y-39578717D01*
X182558507Y-39578709D01*
X182461467Y-39388256D01*
X182461466Y-39388255D01*
X182335825Y-39215325D01*
X182279715Y-39159215D01*
X182225739Y-39078433D01*
X182206785Y-38983145D01*
X182225739Y-38887857D01*
X182279715Y-38807075D01*
X182342738Y-38761286D01*
X182388342Y-38738050D01*
X182478050Y-38648342D01*
X182535646Y-38535304D01*
X182550500Y-38441519D01*
X182550499Y-36678482D01*
X182535646Y-36584696D01*
X182478050Y-36471658D01*
X182388342Y-36381950D01*
X182388339Y-36381948D01*
X182275303Y-36324353D01*
X182275299Y-36324352D01*
X182181530Y-36309501D01*
X182181522Y-36309500D01*
X182181519Y-36309500D01*
X182181514Y-36309500D01*
X180418484Y-36309500D01*
X180324695Y-36324354D01*
X180211659Y-36381949D01*
X180121948Y-36471660D01*
X180064353Y-36584696D01*
X180064352Y-36584700D01*
X180049501Y-36678469D01*
X180049500Y-36678485D01*
X180049500Y-38441515D01*
X180055996Y-38482531D01*
X180064354Y-38535304D01*
X180121950Y-38648342D01*
X180211658Y-38738050D01*
X180211660Y-38738051D01*
X180257257Y-38761284D01*
X180333555Y-38821432D01*
X180381027Y-38906199D01*
X180392446Y-39002681D01*
X180366075Y-39096188D01*
X180320285Y-39159213D01*
X180264177Y-39215321D01*
X180138533Y-39388255D01*
X180138532Y-39388256D01*
X180041492Y-39578709D01*
X180041488Y-39578717D01*
X179975441Y-39781994D01*
X179975436Y-39782011D01*
X179965461Y-39845000D01*
X176850500Y-39845000D01*
X176850500Y-31829468D01*
X176867200Y-31745510D01*
X176866186Y-31745203D01*
X176869309Y-31734905D01*
X176869454Y-31734180D01*
X176869737Y-31733497D01*
X176900500Y-31578842D01*
X176900500Y-31421158D01*
X176890161Y-31369179D01*
X176869738Y-31266507D01*
X176869737Y-31266505D01*
X176869737Y-31266503D01*
X176809394Y-31120821D01*
X176781344Y-31078842D01*
X176721791Y-30989714D01*
X176721789Y-30989711D01*
X176610289Y-30878211D01*
X176610285Y-30878208D01*
X176479180Y-30790606D01*
X176479173Y-30790603D01*
X176333497Y-30730263D01*
X176333492Y-30730261D01*
X176178846Y-30699500D01*
X176178842Y-30699500D01*
X176021158Y-30699500D01*
X176021153Y-30699500D01*
X175866507Y-30730261D01*
X175866502Y-30730263D01*
X175720826Y-30790603D01*
X175720819Y-30790606D01*
X175589714Y-30878208D01*
X175478208Y-30989714D01*
X175390606Y-31120819D01*
X175390603Y-31120826D01*
X175330263Y-31266502D01*
X175330261Y-31266507D01*
X175299500Y-31421153D01*
X175299500Y-31578846D01*
X175330261Y-31733492D01*
X175330262Y-31733496D01*
X175330263Y-31733497D01*
X175330546Y-31734180D01*
X175330690Y-31734907D01*
X175333814Y-31745203D01*
X175332799Y-31745510D01*
X175349500Y-31829467D01*
X175349500Y-60500500D01*
X175330546Y-60595788D01*
X175276570Y-60676570D01*
X175195788Y-60730546D01*
X175100500Y-60749500D01*
X175029470Y-60749500D01*
X174945515Y-60732800D01*
X174945208Y-60733815D01*
X174934907Y-60730690D01*
X174934185Y-60730547D01*
X174934183Y-60730546D01*
X174934182Y-60730546D01*
X174934181Y-60730545D01*
X174933504Y-60730265D01*
X174933495Y-60730262D01*
X174778846Y-60699500D01*
X174778842Y-60699500D01*
X174621158Y-60699500D01*
X174543076Y-60715031D01*
X174445921Y-60715030D01*
X174356162Y-60677850D01*
X174287463Y-60609151D01*
X174250284Y-60519391D01*
X174245500Y-60470815D01*
X174245500Y-28055643D01*
X174264454Y-27960355D01*
X174318430Y-27879573D01*
X174399212Y-27825597D01*
X174494500Y-27806643D01*
X174533447Y-27809708D01*
X174601583Y-27820500D01*
X174601587Y-27820500D01*
X174798413Y-27820500D01*
X174798417Y-27820500D01*
X174992826Y-27789709D01*
X175180025Y-27728884D01*
X175355405Y-27639524D01*
X175514646Y-27523828D01*
X175653828Y-27384646D01*
X175702119Y-27318178D01*
X175773458Y-27252234D01*
X175864608Y-27218607D01*
X175961688Y-27222421D01*
X176049919Y-27263095D01*
X176105006Y-27318182D01*
X176204174Y-27454674D01*
X176355325Y-27605825D01*
X176528255Y-27731466D01*
X176528256Y-27731467D01*
X176718709Y-27828507D01*
X176718717Y-27828511D01*
X176921994Y-27894558D01*
X176922011Y-27894563D01*
X176985000Y-27904539D01*
X176985000Y-27000125D01*
X177047007Y-27035925D01*
X177174174Y-27070000D01*
X177305826Y-27070000D01*
X177432993Y-27035925D01*
X177495000Y-27000125D01*
X177495000Y-27904538D01*
X177557988Y-27894563D01*
X177558005Y-27894558D01*
X177761282Y-27828511D01*
X177761290Y-27828507D01*
X177951743Y-27731467D01*
X177951744Y-27731466D01*
X178124674Y-27605825D01*
X178275825Y-27454674D01*
X178401466Y-27281744D01*
X178401467Y-27281743D01*
X178498507Y-27091290D01*
X178498511Y-27091282D01*
X178564558Y-26888005D01*
X178564563Y-26887988D01*
X178574539Y-26825000D01*
X177670125Y-26825000D01*
X177705925Y-26762993D01*
X177740000Y-26635826D01*
X177740000Y-26504174D01*
X177705925Y-26377007D01*
X177670125Y-26315000D01*
X178574539Y-26315000D01*
X178564563Y-26252011D01*
X178564558Y-26251994D01*
X178498511Y-26048717D01*
X178498507Y-26048709D01*
X178401467Y-25858256D01*
X178401466Y-25858255D01*
X178275825Y-25685325D01*
X178157826Y-25567326D01*
X177981527Y-25429999D01*
X177952427Y-25396326D01*
X177946702Y-25390133D01*
X180604138Y-25390133D01*
X180604138Y-25609866D01*
X180638508Y-25826862D01*
X180693308Y-25995522D01*
X180706404Y-26035825D01*
X180774719Y-26169901D01*
X180806154Y-26231595D01*
X180935293Y-26409339D01*
X180935296Y-26409343D01*
X181090657Y-26564704D01*
X181124034Y-26588954D01*
X181268404Y-26693845D01*
X181268406Y-26693846D01*
X181268409Y-26693848D01*
X181464175Y-26793596D01*
X181673135Y-26861491D01*
X181749459Y-26873579D01*
X181890133Y-26895861D01*
X181890140Y-26895861D01*
X181890143Y-26895862D01*
X181890146Y-26895862D01*
X182109854Y-26895862D01*
X182109857Y-26895862D01*
X182109860Y-26895861D01*
X182109866Y-26895861D01*
X182212378Y-26879624D01*
X182326865Y-26861491D01*
X182535825Y-26793596D01*
X182731591Y-26693848D01*
X182909343Y-26564704D01*
X183064704Y-26409343D01*
X183193848Y-26231591D01*
X183293596Y-26035825D01*
X183361491Y-25826865D01*
X183382662Y-25693198D01*
X183395861Y-25609866D01*
X183395862Y-25609854D01*
X183395862Y-25390145D01*
X183395861Y-25390133D01*
X183367765Y-25212746D01*
X183361491Y-25173135D01*
X183293596Y-24964175D01*
X183193848Y-24768409D01*
X183193846Y-24768406D01*
X183193845Y-24768404D01*
X183064706Y-24590660D01*
X183064704Y-24590657D01*
X182909343Y-24435296D01*
X182902190Y-24430099D01*
X182731595Y-24306154D01*
X182603556Y-24240915D01*
X182535825Y-24206404D01*
X182535822Y-24206403D01*
X182535820Y-24206402D01*
X182326862Y-24138508D01*
X182109866Y-24104138D01*
X182109857Y-24104138D01*
X181890143Y-24104138D01*
X181890133Y-24104138D01*
X181673137Y-24138508D01*
X181464179Y-24206402D01*
X181268404Y-24306154D01*
X181090660Y-24435293D01*
X180935293Y-24590660D01*
X180806154Y-24768404D01*
X180706402Y-24964179D01*
X180638508Y-25173137D01*
X180604138Y-25390133D01*
X177946702Y-25390133D01*
X177922233Y-25363662D01*
X177920768Y-25359692D01*
X177918001Y-25356490D01*
X177904004Y-25314252D01*
X177888606Y-25272512D01*
X177888772Y-25268283D01*
X177887441Y-25264266D01*
X177890674Y-25219886D01*
X177892421Y-25175432D01*
X177894192Y-25171589D01*
X177894500Y-25167368D01*
X177914471Y-25127602D01*
X177933096Y-25087202D01*
X177936440Y-25083857D01*
X177938103Y-25080547D01*
X177950237Y-25070060D01*
X177988177Y-25032120D01*
X178054646Y-24983828D01*
X178193828Y-24844646D01*
X178309524Y-24685405D01*
X178398884Y-24510025D01*
X178459709Y-24322826D01*
X178490500Y-24128417D01*
X178490500Y-23931583D01*
X178459709Y-23737174D01*
X178398884Y-23549975D01*
X178309524Y-23374595D01*
X178290031Y-23347766D01*
X178193830Y-23215357D01*
X178193829Y-23215356D01*
X178193828Y-23215354D01*
X178054646Y-23076172D01*
X178054642Y-23076169D01*
X177895410Y-22960479D01*
X177895407Y-22960477D01*
X177895405Y-22960476D01*
X177720025Y-22871116D01*
X177720024Y-22871115D01*
X177720023Y-22871115D01*
X177720017Y-22871113D01*
X177612870Y-22836299D01*
X177532826Y-22810291D01*
X177532824Y-22810290D01*
X177532822Y-22810290D01*
X177338428Y-22779501D01*
X177338419Y-22779500D01*
X177338417Y-22779500D01*
X177141583Y-22779500D01*
X177141580Y-22779500D01*
X177141571Y-22779501D01*
X176947177Y-22810290D01*
X176759982Y-22871113D01*
X176759976Y-22871115D01*
X176668740Y-22917602D01*
X176584595Y-22960476D01*
X176584592Y-22960477D01*
X176584590Y-22960479D01*
X176584589Y-22960479D01*
X176425357Y-23076169D01*
X176286169Y-23215357D01*
X176171444Y-23373261D01*
X176100100Y-23439209D01*
X176008950Y-23472836D01*
X175911870Y-23469021D01*
X175823640Y-23428345D01*
X175768556Y-23373261D01*
X175653830Y-23215357D01*
X175653829Y-23215356D01*
X175653828Y-23215354D01*
X175514646Y-23076172D01*
X175514642Y-23076169D01*
X175355410Y-22960479D01*
X175355407Y-22960477D01*
X175355405Y-22960476D01*
X175180025Y-22871116D01*
X175180024Y-22871115D01*
X175180023Y-22871115D01*
X175180017Y-22871113D01*
X175072870Y-22836299D01*
X174992826Y-22810291D01*
X174992824Y-22810290D01*
X174992822Y-22810290D01*
X174798428Y-22779501D01*
X174798419Y-22779500D01*
X174798417Y-22779500D01*
X174601583Y-22779500D01*
X174601580Y-22779500D01*
X174601571Y-22779501D01*
X174407177Y-22810290D01*
X174219982Y-22871113D01*
X174219976Y-22871115D01*
X174128740Y-22917602D01*
X174044595Y-22960476D01*
X174044592Y-22960477D01*
X174044590Y-22960479D01*
X174044589Y-22960479D01*
X173885357Y-23076169D01*
X173746169Y-23215357D01*
X173631444Y-23373261D01*
X173560100Y-23439209D01*
X173468950Y-23472836D01*
X173371870Y-23469021D01*
X173283640Y-23428345D01*
X173228556Y-23373261D01*
X173113830Y-23215357D01*
X173113829Y-23215356D01*
X173113828Y-23215354D01*
X172974646Y-23076172D01*
X172974642Y-23076169D01*
X172815410Y-22960479D01*
X172815407Y-22960477D01*
X172815405Y-22960476D01*
X172640025Y-22871116D01*
X172640024Y-22871115D01*
X172640023Y-22871115D01*
X172640017Y-22871113D01*
X172532870Y-22836299D01*
X172452826Y-22810291D01*
X172452824Y-22810290D01*
X172452822Y-22810290D01*
X172258428Y-22779501D01*
X172258419Y-22779500D01*
X172258417Y-22779500D01*
X172061583Y-22779500D01*
X172061580Y-22779500D01*
X172061571Y-22779501D01*
X171867177Y-22810290D01*
X171679982Y-22871113D01*
X171679976Y-22871115D01*
X171588740Y-22917602D01*
X171504595Y-22960476D01*
X171504592Y-22960477D01*
X171504590Y-22960479D01*
X171504589Y-22960479D01*
X171345357Y-23076169D01*
X171206172Y-23215354D01*
X171157882Y-23281819D01*
X171086538Y-23347767D01*
X170995388Y-23381393D01*
X170898308Y-23377577D01*
X170810077Y-23336902D01*
X170754993Y-23281817D01*
X170655825Y-23145325D01*
X170504674Y-22994174D01*
X170331744Y-22868533D01*
X170331743Y-22868532D01*
X170141290Y-22771492D01*
X170141285Y-22771490D01*
X169938003Y-22705440D01*
X169875000Y-22695460D01*
X169875000Y-23599874D01*
X169812993Y-23564075D01*
X169685826Y-23530000D01*
X169554174Y-23530000D01*
X169427007Y-23564075D01*
X169365000Y-23599874D01*
X169365000Y-22695460D01*
X169301997Y-22705440D01*
X169301994Y-22705440D01*
X169098714Y-22771490D01*
X169098709Y-22771492D01*
X168908256Y-22868532D01*
X168908255Y-22868533D01*
X168735325Y-22994174D01*
X168584173Y-23145326D01*
X168485005Y-23281818D01*
X168413661Y-23347766D01*
X168322511Y-23381393D01*
X168225431Y-23377578D01*
X168137201Y-23336902D01*
X168082116Y-23281817D01*
X168046778Y-23233179D01*
X168033828Y-23215354D01*
X167894646Y-23076172D01*
X167894642Y-23076169D01*
X167735410Y-22960479D01*
X167735407Y-22960477D01*
X167735405Y-22960476D01*
X167560025Y-22871116D01*
X167560024Y-22871115D01*
X167560023Y-22871115D01*
X167560017Y-22871113D01*
X167452870Y-22836299D01*
X167372826Y-22810291D01*
X167372824Y-22810290D01*
X167372822Y-22810290D01*
X167178428Y-22779501D01*
X167178419Y-22779500D01*
X167178417Y-22779500D01*
X166981583Y-22779500D01*
X166981580Y-22779500D01*
X166981571Y-22779501D01*
X166787177Y-22810290D01*
X166599982Y-22871113D01*
X166599976Y-22871115D01*
X166508740Y-22917602D01*
X166424595Y-22960476D01*
X166424592Y-22960477D01*
X166424590Y-22960479D01*
X166424589Y-22960479D01*
X166265357Y-23076169D01*
X166126172Y-23215354D01*
X166077882Y-23281819D01*
X166006538Y-23347767D01*
X165915388Y-23381393D01*
X165818308Y-23377577D01*
X165730077Y-23336902D01*
X165674993Y-23281817D01*
X165575825Y-23145325D01*
X165424674Y-22994174D01*
X165251744Y-22868533D01*
X165251743Y-22868532D01*
X165061290Y-22771492D01*
X165061285Y-22771490D01*
X164858003Y-22705440D01*
X164795000Y-22695460D01*
X164795000Y-23599874D01*
X164732993Y-23564075D01*
X164605826Y-23530000D01*
X164474174Y-23530000D01*
X164347007Y-23564075D01*
X164285000Y-23599874D01*
X164285000Y-22695460D01*
X164221997Y-22705440D01*
X164221994Y-22705440D01*
X164018714Y-22771490D01*
X164018709Y-22771492D01*
X163828256Y-22868532D01*
X163828255Y-22868533D01*
X163655325Y-22994174D01*
X163504173Y-23145326D01*
X163405005Y-23281818D01*
X163333661Y-23347766D01*
X163242511Y-23381393D01*
X163145431Y-23377578D01*
X163057201Y-23336902D01*
X163002116Y-23281817D01*
X162966778Y-23233179D01*
X162953828Y-23215354D01*
X162814646Y-23076172D01*
X162814642Y-23076169D01*
X162655410Y-22960479D01*
X162655407Y-22960477D01*
X162655405Y-22960476D01*
X162480025Y-22871116D01*
X162480024Y-22871115D01*
X162480023Y-22871115D01*
X162480017Y-22871113D01*
X162372870Y-22836299D01*
X162292826Y-22810291D01*
X162292824Y-22810290D01*
X162292822Y-22810290D01*
X162098428Y-22779501D01*
X162098419Y-22779500D01*
X162098417Y-22779500D01*
X161901583Y-22779500D01*
X161901580Y-22779500D01*
X161901571Y-22779501D01*
X161707177Y-22810290D01*
X161519982Y-22871113D01*
X161519976Y-22871115D01*
X161428740Y-22917602D01*
X161344595Y-22960476D01*
X161344592Y-22960477D01*
X161344590Y-22960479D01*
X161344589Y-22960479D01*
X161185357Y-23076169D01*
X161046169Y-23215357D01*
X160931444Y-23373261D01*
X160860100Y-23439209D01*
X160768950Y-23472836D01*
X160671870Y-23469021D01*
X160583640Y-23428345D01*
X160528556Y-23373261D01*
X160413830Y-23215357D01*
X160413829Y-23215356D01*
X160413828Y-23215354D01*
X160274646Y-23076172D01*
X160274642Y-23076169D01*
X160115410Y-22960479D01*
X160115407Y-22960477D01*
X160115405Y-22960476D01*
X159940025Y-22871116D01*
X159940024Y-22871115D01*
X159940023Y-22871115D01*
X159940017Y-22871113D01*
X159832870Y-22836299D01*
X159752826Y-22810291D01*
X159752824Y-22810290D01*
X159752822Y-22810290D01*
X159558428Y-22779501D01*
X159558419Y-22779500D01*
X159558417Y-22779500D01*
X159361583Y-22779500D01*
X159361580Y-22779500D01*
X159361571Y-22779501D01*
X159167177Y-22810290D01*
X158979982Y-22871113D01*
X158979976Y-22871115D01*
X158888740Y-22917602D01*
X158804595Y-22960476D01*
X158804592Y-22960477D01*
X158804590Y-22960479D01*
X158804589Y-22960479D01*
X158645357Y-23076169D01*
X158506169Y-23215357D01*
X158391444Y-23373261D01*
X158320100Y-23439209D01*
X158228950Y-23472836D01*
X158131870Y-23469021D01*
X158043640Y-23428345D01*
X157988556Y-23373261D01*
X157873830Y-23215357D01*
X157873829Y-23215356D01*
X157873828Y-23215354D01*
X157734646Y-23076172D01*
X157734642Y-23076169D01*
X157575410Y-22960479D01*
X157575407Y-22960477D01*
X157575405Y-22960476D01*
X157400025Y-22871116D01*
X157400024Y-22871115D01*
X157400023Y-22871115D01*
X157400017Y-22871113D01*
X157292870Y-22836299D01*
X157212826Y-22810291D01*
X157212824Y-22810290D01*
X157212822Y-22810290D01*
X157018428Y-22779501D01*
X157018419Y-22779500D01*
X157018417Y-22779500D01*
X156821583Y-22779500D01*
X156821580Y-22779500D01*
X156821571Y-22779501D01*
X156627177Y-22810290D01*
X156439982Y-22871113D01*
X156439976Y-22871115D01*
X156348740Y-22917602D01*
X156264595Y-22960476D01*
X156264592Y-22960477D01*
X156264590Y-22960479D01*
X156264589Y-22960479D01*
X156105357Y-23076169D01*
X155966169Y-23215357D01*
X155851444Y-23373261D01*
X155780100Y-23439209D01*
X155688950Y-23472836D01*
X155591870Y-23469021D01*
X155503640Y-23428345D01*
X155448556Y-23373261D01*
X155333830Y-23215357D01*
X155333829Y-23215356D01*
X155333828Y-23215354D01*
X155194646Y-23076172D01*
X155194642Y-23076169D01*
X155035410Y-22960479D01*
X155035407Y-22960477D01*
X155035405Y-22960476D01*
X154860025Y-22871116D01*
X154860024Y-22871115D01*
X154860023Y-22871115D01*
X154860017Y-22871113D01*
X154752870Y-22836299D01*
X154672826Y-22810291D01*
X154672824Y-22810290D01*
X154672822Y-22810290D01*
X154478428Y-22779501D01*
X154478419Y-22779500D01*
X154478417Y-22779500D01*
X154281583Y-22779500D01*
X154281580Y-22779500D01*
X154281571Y-22779501D01*
X154087177Y-22810290D01*
X153899982Y-22871113D01*
X153899976Y-22871115D01*
X153808740Y-22917602D01*
X153724595Y-22960476D01*
X153724592Y-22960477D01*
X153724590Y-22960479D01*
X153724589Y-22960479D01*
X153565357Y-23076169D01*
X153426172Y-23215354D01*
X153377882Y-23281819D01*
X153306538Y-23347767D01*
X153215388Y-23381393D01*
X153118308Y-23377577D01*
X153030077Y-23336902D01*
X152974993Y-23281817D01*
X152875825Y-23145325D01*
X152724674Y-22994174D01*
X152551744Y-22868533D01*
X152551743Y-22868532D01*
X152361290Y-22771492D01*
X152361285Y-22771490D01*
X152158003Y-22705440D01*
X152095000Y-22695460D01*
X152095000Y-23599874D01*
X152032993Y-23564075D01*
X151905826Y-23530000D01*
X151774174Y-23530000D01*
X151647007Y-23564075D01*
X151585000Y-23599874D01*
X151585000Y-22695460D01*
X151521997Y-22705440D01*
X151521994Y-22705440D01*
X151318714Y-22771490D01*
X151318709Y-22771492D01*
X151128256Y-22868532D01*
X151128255Y-22868533D01*
X150955325Y-22994174D01*
X150804173Y-23145326D01*
X150705005Y-23281818D01*
X150633661Y-23347766D01*
X150542511Y-23381393D01*
X150445431Y-23377578D01*
X150357201Y-23336902D01*
X150302116Y-23281817D01*
X150266778Y-23233179D01*
X150253828Y-23215354D01*
X150114646Y-23076172D01*
X150114642Y-23076169D01*
X149955410Y-22960479D01*
X149955407Y-22960477D01*
X149955405Y-22960476D01*
X149780025Y-22871116D01*
X149780024Y-22871115D01*
X149780023Y-22871115D01*
X149780017Y-22871113D01*
X149672870Y-22836299D01*
X149592826Y-22810291D01*
X149592824Y-22810290D01*
X149592822Y-22810290D01*
X149398428Y-22779501D01*
X149398419Y-22779500D01*
X149398417Y-22779500D01*
X149201583Y-22779500D01*
X149201580Y-22779500D01*
X149201571Y-22779501D01*
X149007177Y-22810290D01*
X148819982Y-22871113D01*
X148819976Y-22871115D01*
X148728740Y-22917602D01*
X148644595Y-22960476D01*
X148644592Y-22960477D01*
X148644590Y-22960479D01*
X148644589Y-22960479D01*
X148485357Y-23076169D01*
X148346169Y-23215357D01*
X148231444Y-23373261D01*
X148160100Y-23439209D01*
X148068950Y-23472836D01*
X147971870Y-23469021D01*
X147883640Y-23428345D01*
X147828556Y-23373261D01*
X147713830Y-23215357D01*
X147713829Y-23215356D01*
X147713828Y-23215354D01*
X147574646Y-23076172D01*
X147574642Y-23076169D01*
X147415410Y-22960479D01*
X147415407Y-22960477D01*
X147415405Y-22960476D01*
X147240025Y-22871116D01*
X147240024Y-22871115D01*
X147240023Y-22871115D01*
X147240017Y-22871113D01*
X147132870Y-22836299D01*
X147052826Y-22810291D01*
X147052824Y-22810290D01*
X147052822Y-22810290D01*
X146858428Y-22779501D01*
X146858419Y-22779500D01*
X146858417Y-22779500D01*
X146661583Y-22779500D01*
X146661580Y-22779500D01*
X146661571Y-22779501D01*
X146467177Y-22810290D01*
X146279982Y-22871113D01*
X146279976Y-22871115D01*
X146188740Y-22917602D01*
X146104595Y-22960476D01*
X146104592Y-22960477D01*
X146104590Y-22960479D01*
X146104589Y-22960479D01*
X145945357Y-23076169D01*
X145806172Y-23215354D01*
X145757882Y-23281819D01*
X145686538Y-23347767D01*
X145595388Y-23381393D01*
X145498308Y-23377577D01*
X145410077Y-23336902D01*
X145354993Y-23281817D01*
X145255825Y-23145325D01*
X145104674Y-22994174D01*
X144931744Y-22868533D01*
X144931743Y-22868532D01*
X144741290Y-22771492D01*
X144741285Y-22771490D01*
X144538003Y-22705440D01*
X144475000Y-22695460D01*
X144475000Y-23599874D01*
X144412993Y-23564075D01*
X144285826Y-23530000D01*
X144154174Y-23530000D01*
X144027007Y-23564075D01*
X143965000Y-23599874D01*
X143965000Y-22695460D01*
X143901997Y-22705440D01*
X143901994Y-22705440D01*
X143698714Y-22771490D01*
X143698709Y-22771492D01*
X143508256Y-22868532D01*
X143508255Y-22868533D01*
X143335325Y-22994174D01*
X143184173Y-23145326D01*
X143085005Y-23281818D01*
X143013661Y-23347766D01*
X142922511Y-23381393D01*
X142825431Y-23377578D01*
X142737201Y-23336902D01*
X142682116Y-23281817D01*
X142646778Y-23233179D01*
X142633828Y-23215354D01*
X142494646Y-23076172D01*
X142494642Y-23076169D01*
X142335410Y-22960479D01*
X142335407Y-22960477D01*
X142335405Y-22960476D01*
X142160025Y-22871116D01*
X142160024Y-22871115D01*
X142160023Y-22871115D01*
X142160017Y-22871113D01*
X142052870Y-22836299D01*
X141972826Y-22810291D01*
X141972824Y-22810290D01*
X141972822Y-22810290D01*
X141778428Y-22779501D01*
X141778419Y-22779500D01*
X141778417Y-22779500D01*
X141581583Y-22779500D01*
X141581580Y-22779500D01*
X141581571Y-22779501D01*
X141387177Y-22810290D01*
X141199982Y-22871113D01*
X141199976Y-22871115D01*
X141108740Y-22917602D01*
X141024595Y-22960476D01*
X141024592Y-22960477D01*
X141024590Y-22960479D01*
X141024589Y-22960479D01*
X140865357Y-23076169D01*
X140726169Y-23215357D01*
X140611444Y-23373261D01*
X140540100Y-23439209D01*
X140448950Y-23472836D01*
X140351870Y-23469021D01*
X140263640Y-23428345D01*
X140208556Y-23373261D01*
X140093830Y-23215357D01*
X140093829Y-23215356D01*
X140093828Y-23215354D01*
X139954646Y-23076172D01*
X139954642Y-23076169D01*
X139795410Y-22960479D01*
X139795407Y-22960477D01*
X139795405Y-22960476D01*
X139620025Y-22871116D01*
X139620024Y-22871115D01*
X139620023Y-22871115D01*
X139620017Y-22871113D01*
X139512870Y-22836299D01*
X139432826Y-22810291D01*
X139432824Y-22810290D01*
X139432822Y-22810290D01*
X139238428Y-22779501D01*
X139238419Y-22779500D01*
X139238417Y-22779500D01*
X139041583Y-22779500D01*
X139041580Y-22779500D01*
X139041571Y-22779501D01*
X138847177Y-22810290D01*
X138659982Y-22871113D01*
X138659976Y-22871115D01*
X138568740Y-22917602D01*
X138484595Y-22960476D01*
X138484592Y-22960477D01*
X138484590Y-22960479D01*
X138484589Y-22960479D01*
X138325357Y-23076169D01*
X138186169Y-23215357D01*
X138071444Y-23373261D01*
X138000100Y-23439209D01*
X137908950Y-23472836D01*
X137811870Y-23469021D01*
X137723640Y-23428345D01*
X137668556Y-23373261D01*
X137553830Y-23215357D01*
X137553829Y-23215356D01*
X137553828Y-23215354D01*
X137414646Y-23076172D01*
X137414642Y-23076169D01*
X137255410Y-22960479D01*
X137255407Y-22960477D01*
X137255405Y-22960476D01*
X137080025Y-22871116D01*
X137080024Y-22871115D01*
X137080023Y-22871115D01*
X137080017Y-22871113D01*
X136972870Y-22836299D01*
X136892826Y-22810291D01*
X136892824Y-22810290D01*
X136892822Y-22810290D01*
X136698428Y-22779501D01*
X136698419Y-22779500D01*
X136698417Y-22779500D01*
X136501583Y-22779500D01*
X136501580Y-22779500D01*
X136501571Y-22779501D01*
X136307177Y-22810290D01*
X136119982Y-22871113D01*
X136119976Y-22871115D01*
X136028740Y-22917602D01*
X135944595Y-22960476D01*
X135944592Y-22960477D01*
X135944590Y-22960479D01*
X135944589Y-22960479D01*
X135785357Y-23076169D01*
X135646172Y-23215354D01*
X135597882Y-23281819D01*
X135526538Y-23347767D01*
X135435388Y-23381393D01*
X135338308Y-23377577D01*
X135250077Y-23336902D01*
X135194993Y-23281817D01*
X135095825Y-23145325D01*
X134944674Y-22994174D01*
X134771744Y-22868533D01*
X134771743Y-22868532D01*
X134581290Y-22771492D01*
X134581285Y-22771490D01*
X134378003Y-22705440D01*
X134315000Y-22695460D01*
X134315000Y-23599874D01*
X134252993Y-23564075D01*
X134125826Y-23530000D01*
X133994174Y-23530000D01*
X133867007Y-23564075D01*
X133805000Y-23599874D01*
X133805000Y-22695460D01*
X133741997Y-22705440D01*
X133741994Y-22705440D01*
X133538714Y-22771490D01*
X133538709Y-22771492D01*
X133348256Y-22868532D01*
X133348255Y-22868533D01*
X133175325Y-22994174D01*
X133024173Y-23145326D01*
X132925005Y-23281818D01*
X132853661Y-23347766D01*
X132762511Y-23381393D01*
X132665431Y-23377578D01*
X132577201Y-23336902D01*
X132522116Y-23281817D01*
X132486778Y-23233179D01*
X132473828Y-23215354D01*
X132334646Y-23076172D01*
X132334642Y-23076169D01*
X132175410Y-22960479D01*
X132175407Y-22960477D01*
X132175405Y-22960476D01*
X132000025Y-22871116D01*
X132000024Y-22871115D01*
X132000023Y-22871115D01*
X132000017Y-22871113D01*
X131892870Y-22836299D01*
X131812826Y-22810291D01*
X131812824Y-22810290D01*
X131812822Y-22810290D01*
X131618428Y-22779501D01*
X131618419Y-22779500D01*
X131618417Y-22779500D01*
X131421583Y-22779500D01*
X131421580Y-22779500D01*
X131421571Y-22779501D01*
X131227177Y-22810290D01*
X131039982Y-22871113D01*
X131039976Y-22871115D01*
X130948740Y-22917602D01*
X130864595Y-22960476D01*
X130864592Y-22960477D01*
X130864590Y-22960479D01*
X130864589Y-22960479D01*
X130705357Y-23076169D01*
X130566169Y-23215357D01*
X130451444Y-23373261D01*
X130380100Y-23439209D01*
X130288950Y-23472836D01*
X130191870Y-23469021D01*
X130103640Y-23428345D01*
X130048556Y-23373261D01*
X129933830Y-23215357D01*
X129933829Y-23215356D01*
X129933828Y-23215354D01*
X129794646Y-23076172D01*
X129794642Y-23076169D01*
X129635410Y-22960479D01*
X129635407Y-22960477D01*
X129635405Y-22960476D01*
X129460025Y-22871116D01*
X129460024Y-22871115D01*
X129460023Y-22871115D01*
X129460017Y-22871113D01*
X129352870Y-22836299D01*
X129272826Y-22810291D01*
X129272824Y-22810290D01*
X129272822Y-22810290D01*
X129078428Y-22779501D01*
X129078419Y-22779500D01*
X129078417Y-22779500D01*
X128881583Y-22779500D01*
X128881580Y-22779500D01*
X128881571Y-22779501D01*
X128687177Y-22810290D01*
X128499982Y-22871113D01*
X128499976Y-22871115D01*
X128408740Y-22917602D01*
X128324595Y-22960476D01*
X128324592Y-22960477D01*
X128324590Y-22960479D01*
X128324589Y-22960479D01*
X128165357Y-23076169D01*
X128026169Y-23215357D01*
X127910479Y-23374589D01*
X127910479Y-23374590D01*
X127910477Y-23374592D01*
X127910476Y-23374595D01*
X127894832Y-23405299D01*
X127821115Y-23549976D01*
X127821113Y-23549982D01*
X127760290Y-23737177D01*
X127729501Y-23931571D01*
X127729500Y-23931587D01*
X120609513Y-23931587D01*
X120622110Y-23857447D01*
X120628319Y-23830242D01*
X120712143Y-23539282D01*
X120721365Y-23512929D01*
X120778667Y-23374589D01*
X120837246Y-23233167D01*
X120849347Y-23208038D01*
X120995830Y-22942997D01*
X121010671Y-22919377D01*
X121185896Y-22672420D01*
X121203304Y-22650593D01*
X121405071Y-22424816D01*
X121424816Y-22405071D01*
X121650593Y-22203304D01*
X121672424Y-22185894D01*
X121919377Y-22010671D01*
X121942997Y-21995830D01*
X122208038Y-21849347D01*
X122233167Y-21837246D01*
X122447399Y-21748508D01*
X122512929Y-21721365D01*
X122539285Y-21712143D01*
X122830242Y-21628319D01*
X122857447Y-21622110D01*
X123155992Y-21571385D01*
X123183712Y-21568262D01*
X123468226Y-21552284D01*
X123493021Y-21550892D01*
X123506982Y-21550500D01*
X123516409Y-21550500D01*
X182483591Y-21550500D01*
X182493018Y-21550500D01*
X182506979Y-21550892D01*
G37*
%TD.AperFunction*%
%TD*%
M02*
