M48
; DRILL file KiCad 10.0.3 date 2026-06-12T20:09:12
; FORMAT={-:-/ absolute / metric / decimal}
; #@! TF.CreationDate,2026-06-12T20:09:12+05:30
; #@! TF.GenerationSoftware,Kicad,Pcbnew,10.0.3
; #@! TF.FileFunction,Plated,1,2,PTH
FMAT,2
METRIC
; #@! TA.AperFunction,Plated,PTH,ViaDrill
T1C0.300
; #@! TA.AperFunction,Plated,PTH,ViaDrill
T2C0.500
; #@! TA.AperFunction,Plated,PTH,ComponentDrill
T3C0.800
; #@! TA.AperFunction,Plated,PTH,ComponentDrill
T4C1.000
; #@! TA.AperFunction,Plated,PTH,ComponentDrill
T5C1.100
%
G90
G05
T1
X39.751Y-47.371
X39.751Y-68.58
X49.784Y-59.944
X49.784Y-62.484
X49.784Y-65.024
X49.784Y-67.564
X53.975Y-81.28
X54.737Y-80.518
X55.372Y-45.466
X55.499Y-79.248
X56.007Y-44.704
X56.261Y-78.486
X61.717Y-41.28
X62.484Y-54.864
X62.733Y-41.28
X63.114Y-43.312
X63.5Y-45.974
X64.257Y-43.312
X68.199Y-54.864
X68.834Y-47.244
X69.596Y-42.164
X69.596Y-44.704
X71.12Y-63.246
X75.311Y-40.259
X81.153Y-68.961
X84.074Y-42.545
X84.709Y-62.611
X85.598Y-68.961
T2
X66.675Y-38.481
X70.739Y-38.481
T3
X31.872Y-40.899
X31.872Y-43.439
X31.872Y-45.979
X31.872Y-48.519
X31.872Y-51.059
X31.872Y-53.599
X31.872Y-56.139
X31.872Y-58.679
X31.872Y-61.219
X31.872Y-63.759
X31.872Y-66.299
X31.872Y-68.839
X31.872Y-71.379
X31.872Y-73.919
X31.872Y-76.459
X31.872Y-78.999
X31.872Y-81.539
X31.872Y-84.079
X31.872Y-86.619
X31.872Y-89.159
X47.112Y-40.899
X47.112Y-43.439
X47.112Y-45.979
X47.112Y-48.519
X47.112Y-51.059
X47.112Y-53.599
X47.112Y-56.139
X47.112Y-58.679
X47.112Y-61.219
X47.112Y-63.759
X47.112Y-66.299
X47.112Y-68.839
X47.112Y-71.379
X47.112Y-73.919
X47.112Y-76.459
X47.112Y-78.999
X47.112Y-81.539
X47.112Y-84.079
X47.112Y-86.619
X47.112Y-89.159
X52.324Y-91.567
X59.065Y-40.899
X59.065Y-43.439
X59.065Y-45.979
X59.065Y-48.519
X59.065Y-51.059
X59.065Y-53.599
X59.065Y-56.139
X59.065Y-58.679
X59.065Y-61.991
X59.065Y-64.531
X59.065Y-67.071
X59.065Y-69.611
X59.065Y-72.151
X59.065Y-74.691
X59.065Y-77.231
X59.065Y-79.771
X59.944Y-91.567
X66.685Y-40.899
X66.685Y-43.439
X66.685Y-45.979
X66.685Y-48.519
X66.685Y-51.059
X66.685Y-53.599
X66.685Y-56.139
X66.685Y-58.679
X66.685Y-61.991
X66.685Y-64.531
X66.685Y-67.071
X66.685Y-69.611
X66.685Y-72.151
X66.685Y-74.691
X66.685Y-77.231
X66.685Y-79.771
T4
X77.724Y-40.949
X77.724Y-43.489
X77.724Y-46.029
X77.724Y-48.569
X77.724Y-51.109
X77.724Y-53.649
X77.724Y-56.189
X77.724Y-58.729
X77.724Y-61.269
X77.724Y-63.809
X77.724Y-66.349
X77.724Y-68.889
X77.724Y-71.429
X77.724Y-73.969
X77.724Y-76.509
X77.724Y-79.049
X77.724Y-81.589
X77.724Y-84.129
X77.724Y-86.669
X77.724Y-89.209
X95.504Y-40.949
X95.504Y-43.489
X95.504Y-46.029
X95.504Y-48.569
X95.504Y-51.109
X95.504Y-53.649
X95.504Y-56.189
X95.504Y-58.729
X95.504Y-61.269
X95.504Y-63.809
X95.504Y-66.349
X95.504Y-68.889
X95.504Y-71.429
X95.504Y-73.969
X95.504Y-76.509
X95.504Y-79.049
X95.504Y-81.589
X95.504Y-84.129
X95.504Y-86.669
X95.504Y-89.209
T5
X64.06Y-87.031
X64.06Y-91.531
X70.56Y-87.031
X70.56Y-91.531
M30
