%TF.GenerationSoftware,KiCad,Pcbnew,10.0.3*%
%TF.CreationDate,2026-06-12T20:09:03+05:30*%
%TF.ProjectId,PicoCore One,5069636f-436f-4726-9520-4f6e652e6b69,rev?*%
%TF.SameCoordinates,Original*%
%TF.FileFunction,Legend,Top*%
%TF.FilePolarity,Positive*%
%FSLAX46Y46*%
G04 Gerber Fmt 4.6, Leading zero omitted, Abs format (unit mm)*
G04 Created by KiCad (PCBNEW 10.0.3) date 2026-06-12 20:09:03*
%MOMM*%
%LPD*%
G01*
G04 APERTURE LIST*
%ADD10C,0.190000*%
%ADD11C,0.150000*%
%ADD12C,0.000000*%
%ADD13C,0.120000*%
%ADD14C,0.314000*%
G04 APERTURE END LIST*
D10*
X98495858Y-93197809D02*
X97545858Y-93197809D01*
X97545858Y-93197809D02*
X97545858Y-92971619D01*
X97545858Y-92971619D02*
X97591096Y-92835904D01*
X97591096Y-92835904D02*
X97681572Y-92745428D01*
X97681572Y-92745428D02*
X97772048Y-92700190D01*
X97772048Y-92700190D02*
X97953000Y-92654952D01*
X97953000Y-92654952D02*
X98088715Y-92654952D01*
X98088715Y-92654952D02*
X98269667Y-92700190D01*
X98269667Y-92700190D02*
X98360143Y-92745428D01*
X98360143Y-92745428D02*
X98450620Y-92835904D01*
X98450620Y-92835904D02*
X98495858Y-92971619D01*
X98495858Y-92971619D02*
X98495858Y-93197809D01*
X97998239Y-92247809D02*
X97998239Y-91931142D01*
X98495858Y-91795428D02*
X98495858Y-92247809D01*
X98495858Y-92247809D02*
X97545858Y-92247809D01*
X97545858Y-92247809D02*
X97545858Y-91795428D01*
X98450620Y-91433523D02*
X98495858Y-91297809D01*
X98495858Y-91297809D02*
X98495858Y-91071618D01*
X98495858Y-91071618D02*
X98450620Y-90981142D01*
X98450620Y-90981142D02*
X98405381Y-90935904D01*
X98405381Y-90935904D02*
X98314905Y-90890666D01*
X98314905Y-90890666D02*
X98224429Y-90890666D01*
X98224429Y-90890666D02*
X98133953Y-90935904D01*
X98133953Y-90935904D02*
X98088715Y-90981142D01*
X98088715Y-90981142D02*
X98043477Y-91071618D01*
X98043477Y-91071618D02*
X97998239Y-91252571D01*
X97998239Y-91252571D02*
X97953000Y-91343047D01*
X97953000Y-91343047D02*
X97907762Y-91388285D01*
X97907762Y-91388285D02*
X97817286Y-91433523D01*
X97817286Y-91433523D02*
X97726810Y-91433523D01*
X97726810Y-91433523D02*
X97636334Y-91388285D01*
X97636334Y-91388285D02*
X97591096Y-91343047D01*
X97591096Y-91343047D02*
X97545858Y-91252571D01*
X97545858Y-91252571D02*
X97545858Y-91026380D01*
X97545858Y-91026380D02*
X97591096Y-90890666D01*
X98495858Y-90483523D02*
X97545858Y-90483523D01*
X98495858Y-90031142D02*
X97545858Y-90031142D01*
X97545858Y-90031142D02*
X98495858Y-89488285D01*
X98495858Y-89488285D02*
X97545858Y-89488285D01*
X97591096Y-88538285D02*
X97545858Y-88628761D01*
X97545858Y-88628761D02*
X97545858Y-88764475D01*
X97545858Y-88764475D02*
X97591096Y-88900190D01*
X97591096Y-88900190D02*
X97681572Y-88990666D01*
X97681572Y-88990666D02*
X97772048Y-89035904D01*
X97772048Y-89035904D02*
X97953000Y-89081142D01*
X97953000Y-89081142D02*
X98088715Y-89081142D01*
X98088715Y-89081142D02*
X98269667Y-89035904D01*
X98269667Y-89035904D02*
X98360143Y-88990666D01*
X98360143Y-88990666D02*
X98450620Y-88900190D01*
X98450620Y-88900190D02*
X98495858Y-88764475D01*
X98495858Y-88764475D02*
X98495858Y-88673999D01*
X98495858Y-88673999D02*
X98450620Y-88538285D01*
X98450620Y-88538285D02*
X98405381Y-88493047D01*
X98405381Y-88493047D02*
X98088715Y-88493047D01*
X98088715Y-88493047D02*
X98088715Y-88673999D01*
X97998239Y-88085904D02*
X97998239Y-87769237D01*
X98495858Y-87633523D02*
X98495858Y-88085904D01*
X98495858Y-88085904D02*
X97545858Y-88085904D01*
X97545858Y-88085904D02*
X97545858Y-87633523D01*
X98495858Y-87226380D02*
X97545858Y-87226380D01*
X97545858Y-87226380D02*
X97545858Y-87000190D01*
X97545858Y-87000190D02*
X97591096Y-86864475D01*
X97591096Y-86864475D02*
X97681572Y-86773999D01*
X97681572Y-86773999D02*
X97772048Y-86728761D01*
X97772048Y-86728761D02*
X97953000Y-86683523D01*
X97953000Y-86683523D02*
X98088715Y-86683523D01*
X98088715Y-86683523D02*
X98269667Y-86728761D01*
X98269667Y-86728761D02*
X98360143Y-86773999D01*
X98360143Y-86773999D02*
X98450620Y-86864475D01*
X98450620Y-86864475D02*
X98495858Y-87000190D01*
X98495858Y-87000190D02*
X98495858Y-87226380D01*
X97998239Y-85235903D02*
X98043477Y-85100189D01*
X98043477Y-85100189D02*
X98088715Y-85054951D01*
X98088715Y-85054951D02*
X98179191Y-85009713D01*
X98179191Y-85009713D02*
X98314905Y-85009713D01*
X98314905Y-85009713D02*
X98405381Y-85054951D01*
X98405381Y-85054951D02*
X98450620Y-85100189D01*
X98450620Y-85100189D02*
X98495858Y-85190665D01*
X98495858Y-85190665D02*
X98495858Y-85552570D01*
X98495858Y-85552570D02*
X97545858Y-85552570D01*
X97545858Y-85552570D02*
X97545858Y-85235903D01*
X97545858Y-85235903D02*
X97591096Y-85145427D01*
X97591096Y-85145427D02*
X97636334Y-85100189D01*
X97636334Y-85100189D02*
X97726810Y-85054951D01*
X97726810Y-85054951D02*
X97817286Y-85054951D01*
X97817286Y-85054951D02*
X97907762Y-85100189D01*
X97907762Y-85100189D02*
X97953000Y-85145427D01*
X97953000Y-85145427D02*
X97998239Y-85235903D01*
X97998239Y-85235903D02*
X97998239Y-85552570D01*
X98043477Y-84421618D02*
X98495858Y-84421618D01*
X97545858Y-84738284D02*
X98043477Y-84421618D01*
X98043477Y-84421618D02*
X97545858Y-84104951D01*
D11*
X37885904Y-64478819D02*
X37695428Y-64478819D01*
X37695428Y-64478819D02*
X37600190Y-64526438D01*
X37600190Y-64526438D02*
X37552571Y-64574057D01*
X37552571Y-64574057D02*
X37457333Y-64716914D01*
X37457333Y-64716914D02*
X37409714Y-64907390D01*
X37409714Y-64907390D02*
X37409714Y-65288342D01*
X37409714Y-65288342D02*
X37457333Y-65383580D01*
X37457333Y-65383580D02*
X37504952Y-65431200D01*
X37504952Y-65431200D02*
X37600190Y-65478819D01*
X37600190Y-65478819D02*
X37790666Y-65478819D01*
X37790666Y-65478819D02*
X37885904Y-65431200D01*
X37885904Y-65431200D02*
X37933523Y-65383580D01*
X37933523Y-65383580D02*
X37981142Y-65288342D01*
X37981142Y-65288342D02*
X37981142Y-65050247D01*
X37981142Y-65050247D02*
X37933523Y-64955009D01*
X37933523Y-64955009D02*
X37885904Y-64907390D01*
X37885904Y-64907390D02*
X37790666Y-64859771D01*
X37790666Y-64859771D02*
X37600190Y-64859771D01*
X37600190Y-64859771D02*
X37504952Y-64907390D01*
X37504952Y-64907390D02*
X37457333Y-64955009D01*
X37457333Y-64955009D02*
X37409714Y-65050247D01*
X38885904Y-64478819D02*
X38409714Y-64478819D01*
X38409714Y-64478819D02*
X38362095Y-64955009D01*
X38362095Y-64955009D02*
X38409714Y-64907390D01*
X38409714Y-64907390D02*
X38504952Y-64859771D01*
X38504952Y-64859771D02*
X38743047Y-64859771D01*
X38743047Y-64859771D02*
X38838285Y-64907390D01*
X38838285Y-64907390D02*
X38885904Y-64955009D01*
X38885904Y-64955009D02*
X38933523Y-65050247D01*
X38933523Y-65050247D02*
X38933523Y-65288342D01*
X38933523Y-65288342D02*
X38885904Y-65383580D01*
X38885904Y-65383580D02*
X38838285Y-65431200D01*
X38838285Y-65431200D02*
X38743047Y-65478819D01*
X38743047Y-65478819D02*
X38504952Y-65478819D01*
X38504952Y-65478819D02*
X38409714Y-65431200D01*
X38409714Y-65431200D02*
X38362095Y-65383580D01*
X39933523Y-65383580D02*
X39885904Y-65431200D01*
X39885904Y-65431200D02*
X39743047Y-65478819D01*
X39743047Y-65478819D02*
X39647809Y-65478819D01*
X39647809Y-65478819D02*
X39504952Y-65431200D01*
X39504952Y-65431200D02*
X39409714Y-65335961D01*
X39409714Y-65335961D02*
X39362095Y-65240723D01*
X39362095Y-65240723D02*
X39314476Y-65050247D01*
X39314476Y-65050247D02*
X39314476Y-64907390D01*
X39314476Y-64907390D02*
X39362095Y-64716914D01*
X39362095Y-64716914D02*
X39409714Y-64621676D01*
X39409714Y-64621676D02*
X39504952Y-64526438D01*
X39504952Y-64526438D02*
X39647809Y-64478819D01*
X39647809Y-64478819D02*
X39743047Y-64478819D01*
X39743047Y-64478819D02*
X39885904Y-64526438D01*
X39885904Y-64526438D02*
X39933523Y-64574057D01*
X40552571Y-64478819D02*
X40647809Y-64478819D01*
X40647809Y-64478819D02*
X40743047Y-64526438D01*
X40743047Y-64526438D02*
X40790666Y-64574057D01*
X40790666Y-64574057D02*
X40838285Y-64669295D01*
X40838285Y-64669295D02*
X40885904Y-64859771D01*
X40885904Y-64859771D02*
X40885904Y-65097866D01*
X40885904Y-65097866D02*
X40838285Y-65288342D01*
X40838285Y-65288342D02*
X40790666Y-65383580D01*
X40790666Y-65383580D02*
X40743047Y-65431200D01*
X40743047Y-65431200D02*
X40647809Y-65478819D01*
X40647809Y-65478819D02*
X40552571Y-65478819D01*
X40552571Y-65478819D02*
X40457333Y-65431200D01*
X40457333Y-65431200D02*
X40409714Y-65383580D01*
X40409714Y-65383580D02*
X40362095Y-65288342D01*
X40362095Y-65288342D02*
X40314476Y-65097866D01*
X40314476Y-65097866D02*
X40314476Y-64859771D01*
X40314476Y-64859771D02*
X40362095Y-64669295D01*
X40362095Y-64669295D02*
X40409714Y-64574057D01*
X40409714Y-64574057D02*
X40457333Y-64526438D01*
X40457333Y-64526438D02*
X40552571Y-64478819D01*
X41266857Y-64574057D02*
X41314476Y-64526438D01*
X41314476Y-64526438D02*
X41409714Y-64478819D01*
X41409714Y-64478819D02*
X41647809Y-64478819D01*
X41647809Y-64478819D02*
X41743047Y-64526438D01*
X41743047Y-64526438D02*
X41790666Y-64574057D01*
X41790666Y-64574057D02*
X41838285Y-64669295D01*
X41838285Y-64669295D02*
X41838285Y-64764533D01*
X41838285Y-64764533D02*
X41790666Y-64907390D01*
X41790666Y-64907390D02*
X41219238Y-65478819D01*
X41219238Y-65478819D02*
X41838285Y-65478819D01*
X55443523Y-89481819D02*
X54872095Y-89481819D01*
X55157809Y-89481819D02*
X55157809Y-88481819D01*
X55157809Y-88481819D02*
X55062571Y-88624676D01*
X55062571Y-88624676D02*
X54967333Y-88719914D01*
X54967333Y-88719914D02*
X54872095Y-88767533D01*
X56062571Y-88481819D02*
X56157809Y-88481819D01*
X56157809Y-88481819D02*
X56253047Y-88529438D01*
X56253047Y-88529438D02*
X56300666Y-88577057D01*
X56300666Y-88577057D02*
X56348285Y-88672295D01*
X56348285Y-88672295D02*
X56395904Y-88862771D01*
X56395904Y-88862771D02*
X56395904Y-89100866D01*
X56395904Y-89100866D02*
X56348285Y-89291342D01*
X56348285Y-89291342D02*
X56300666Y-89386580D01*
X56300666Y-89386580D02*
X56253047Y-89434200D01*
X56253047Y-89434200D02*
X56157809Y-89481819D01*
X56157809Y-89481819D02*
X56062571Y-89481819D01*
X56062571Y-89481819D02*
X55967333Y-89434200D01*
X55967333Y-89434200D02*
X55919714Y-89386580D01*
X55919714Y-89386580D02*
X55872095Y-89291342D01*
X55872095Y-89291342D02*
X55824476Y-89100866D01*
X55824476Y-89100866D02*
X55824476Y-88862771D01*
X55824476Y-88862771D02*
X55872095Y-88672295D01*
X55872095Y-88672295D02*
X55919714Y-88577057D01*
X55919714Y-88577057D02*
X55967333Y-88529438D01*
X55967333Y-88529438D02*
X56062571Y-88481819D01*
X56824476Y-89481819D02*
X56824476Y-88481819D01*
X57395904Y-89481819D02*
X56967333Y-88910390D01*
X57395904Y-88481819D02*
X56824476Y-89053247D01*
X65984618Y-84782819D02*
X65651285Y-84306628D01*
X65413190Y-84782819D02*
X65413190Y-83782819D01*
X65413190Y-83782819D02*
X65794142Y-83782819D01*
X65794142Y-83782819D02*
X65889380Y-83830438D01*
X65889380Y-83830438D02*
X65936999Y-83878057D01*
X65936999Y-83878057D02*
X65984618Y-83973295D01*
X65984618Y-83973295D02*
X65984618Y-84116152D01*
X65984618Y-84116152D02*
X65936999Y-84211390D01*
X65936999Y-84211390D02*
X65889380Y-84259009D01*
X65889380Y-84259009D02*
X65794142Y-84306628D01*
X65794142Y-84306628D02*
X65413190Y-84306628D01*
X66413190Y-84259009D02*
X66746523Y-84259009D01*
X66889380Y-84782819D02*
X66413190Y-84782819D01*
X66413190Y-84782819D02*
X66413190Y-83782819D01*
X66413190Y-83782819D02*
X66889380Y-83782819D01*
X67270333Y-84735200D02*
X67413190Y-84782819D01*
X67413190Y-84782819D02*
X67651285Y-84782819D01*
X67651285Y-84782819D02*
X67746523Y-84735200D01*
X67746523Y-84735200D02*
X67794142Y-84687580D01*
X67794142Y-84687580D02*
X67841761Y-84592342D01*
X67841761Y-84592342D02*
X67841761Y-84497104D01*
X67841761Y-84497104D02*
X67794142Y-84401866D01*
X67794142Y-84401866D02*
X67746523Y-84354247D01*
X67746523Y-84354247D02*
X67651285Y-84306628D01*
X67651285Y-84306628D02*
X67460809Y-84259009D01*
X67460809Y-84259009D02*
X67365571Y-84211390D01*
X67365571Y-84211390D02*
X67317952Y-84163771D01*
X67317952Y-84163771D02*
X67270333Y-84068533D01*
X67270333Y-84068533D02*
X67270333Y-83973295D01*
X67270333Y-83973295D02*
X67317952Y-83878057D01*
X67317952Y-83878057D02*
X67365571Y-83830438D01*
X67365571Y-83830438D02*
X67460809Y-83782819D01*
X67460809Y-83782819D02*
X67698904Y-83782819D01*
X67698904Y-83782819D02*
X67841761Y-83830438D01*
X68270333Y-84259009D02*
X68603666Y-84259009D01*
X68746523Y-84782819D02*
X68270333Y-84782819D01*
X68270333Y-84782819D02*
X68270333Y-83782819D01*
X68270333Y-83782819D02*
X68746523Y-83782819D01*
X69032238Y-83782819D02*
X69603666Y-83782819D01*
X69317952Y-84782819D02*
X69317952Y-83782819D01*
X84296571Y-65478819D02*
X83963238Y-65002628D01*
X83725143Y-65478819D02*
X83725143Y-64478819D01*
X83725143Y-64478819D02*
X84106095Y-64478819D01*
X84106095Y-64478819D02*
X84201333Y-64526438D01*
X84201333Y-64526438D02*
X84248952Y-64574057D01*
X84248952Y-64574057D02*
X84296571Y-64669295D01*
X84296571Y-64669295D02*
X84296571Y-64812152D01*
X84296571Y-64812152D02*
X84248952Y-64907390D01*
X84248952Y-64907390D02*
X84201333Y-64955009D01*
X84201333Y-64955009D02*
X84106095Y-65002628D01*
X84106095Y-65002628D02*
X83725143Y-65002628D01*
X84725143Y-65478819D02*
X84725143Y-64478819D01*
X84725143Y-64478819D02*
X85106095Y-64478819D01*
X85106095Y-64478819D02*
X85201333Y-64526438D01*
X85201333Y-64526438D02*
X85248952Y-64574057D01*
X85248952Y-64574057D02*
X85296571Y-64669295D01*
X85296571Y-64669295D02*
X85296571Y-64812152D01*
X85296571Y-64812152D02*
X85248952Y-64907390D01*
X85248952Y-64907390D02*
X85201333Y-64955009D01*
X85201333Y-64955009D02*
X85106095Y-65002628D01*
X85106095Y-65002628D02*
X84725143Y-65002628D01*
X85725143Y-65478819D02*
X85725143Y-64478819D01*
X86963238Y-65478819D02*
X86963238Y-64478819D01*
X86963238Y-64478819D02*
X87344190Y-64478819D01*
X87344190Y-64478819D02*
X87439428Y-64526438D01*
X87439428Y-64526438D02*
X87487047Y-64574057D01*
X87487047Y-64574057D02*
X87534666Y-64669295D01*
X87534666Y-64669295D02*
X87534666Y-64812152D01*
X87534666Y-64812152D02*
X87487047Y-64907390D01*
X87487047Y-64907390D02*
X87439428Y-64955009D01*
X87439428Y-64955009D02*
X87344190Y-65002628D01*
X87344190Y-65002628D02*
X86963238Y-65002628D01*
X87963238Y-65478819D02*
X87963238Y-64478819D01*
X89010856Y-65383580D02*
X88963237Y-65431200D01*
X88963237Y-65431200D02*
X88820380Y-65478819D01*
X88820380Y-65478819D02*
X88725142Y-65478819D01*
X88725142Y-65478819D02*
X88582285Y-65431200D01*
X88582285Y-65431200D02*
X88487047Y-65335961D01*
X88487047Y-65335961D02*
X88439428Y-65240723D01*
X88439428Y-65240723D02*
X88391809Y-65050247D01*
X88391809Y-65050247D02*
X88391809Y-64907390D01*
X88391809Y-64907390D02*
X88439428Y-64716914D01*
X88439428Y-64716914D02*
X88487047Y-64621676D01*
X88487047Y-64621676D02*
X88582285Y-64526438D01*
X88582285Y-64526438D02*
X88725142Y-64478819D01*
X88725142Y-64478819D02*
X88820380Y-64478819D01*
X88820380Y-64478819D02*
X88963237Y-64526438D01*
X88963237Y-64526438D02*
X89010856Y-64574057D01*
X89629904Y-64478819D02*
X89820380Y-64478819D01*
X89820380Y-64478819D02*
X89915618Y-64526438D01*
X89915618Y-64526438D02*
X90010856Y-64621676D01*
X90010856Y-64621676D02*
X90058475Y-64812152D01*
X90058475Y-64812152D02*
X90058475Y-65145485D01*
X90058475Y-65145485D02*
X90010856Y-65335961D01*
X90010856Y-65335961D02*
X89915618Y-65431200D01*
X89915618Y-65431200D02*
X89820380Y-65478819D01*
X89820380Y-65478819D02*
X89629904Y-65478819D01*
X89629904Y-65478819D02*
X89534666Y-65431200D01*
X89534666Y-65431200D02*
X89439428Y-65335961D01*
X89439428Y-65335961D02*
X89391809Y-65145485D01*
X89391809Y-65145485D02*
X89391809Y-64812152D01*
X89391809Y-64812152D02*
X89439428Y-64621676D01*
X89439428Y-64621676D02*
X89534666Y-64526438D01*
X89534666Y-64526438D02*
X89629904Y-64478819D01*
X62446819Y-74127904D02*
X62446819Y-73461238D01*
X62446819Y-73461238D02*
X63446819Y-73889809D01*
X62780152Y-72651714D02*
X63446819Y-72651714D01*
X62399200Y-72889809D02*
X63113485Y-73127904D01*
X63113485Y-73127904D02*
X63113485Y-72508857D01*
X63446819Y-72127904D02*
X62446819Y-72127904D01*
X62923009Y-72127904D02*
X62923009Y-71556476D01*
X63446819Y-71556476D02*
X62446819Y-71556476D01*
X63351580Y-70508857D02*
X63399200Y-70556476D01*
X63399200Y-70556476D02*
X63446819Y-70699333D01*
X63446819Y-70699333D02*
X63446819Y-70794571D01*
X63446819Y-70794571D02*
X63399200Y-70937428D01*
X63399200Y-70937428D02*
X63303961Y-71032666D01*
X63303961Y-71032666D02*
X63208723Y-71080285D01*
X63208723Y-71080285D02*
X63018247Y-71127904D01*
X63018247Y-71127904D02*
X62875390Y-71127904D01*
X62875390Y-71127904D02*
X62684914Y-71080285D01*
X62684914Y-71080285D02*
X62589676Y-71032666D01*
X62589676Y-71032666D02*
X62494438Y-70937428D01*
X62494438Y-70937428D02*
X62446819Y-70794571D01*
X62446819Y-70794571D02*
X62446819Y-70699333D01*
X62446819Y-70699333D02*
X62494438Y-70556476D01*
X62494438Y-70556476D02*
X62542057Y-70508857D01*
X63446819Y-69556476D02*
X63446819Y-70127904D01*
X63446819Y-69842190D02*
X62446819Y-69842190D01*
X62446819Y-69842190D02*
X62589676Y-69937428D01*
X62589676Y-69937428D02*
X62684914Y-70032666D01*
X62684914Y-70032666D02*
X62732533Y-70127904D01*
X62446819Y-68651714D02*
X62446819Y-69127904D01*
X62446819Y-69127904D02*
X62923009Y-69175523D01*
X62923009Y-69175523D02*
X62875390Y-69127904D01*
X62875390Y-69127904D02*
X62827771Y-69032666D01*
X62827771Y-69032666D02*
X62827771Y-68794571D01*
X62827771Y-68794571D02*
X62875390Y-68699333D01*
X62875390Y-68699333D02*
X62923009Y-68651714D01*
X62923009Y-68651714D02*
X63018247Y-68604095D01*
X63018247Y-68604095D02*
X63256342Y-68604095D01*
X63256342Y-68604095D02*
X63351580Y-68651714D01*
X63351580Y-68651714D02*
X63399200Y-68699333D01*
X63399200Y-68699333D02*
X63446819Y-68794571D01*
X63446819Y-68794571D02*
X63446819Y-69032666D01*
X63446819Y-69032666D02*
X63399200Y-69127904D01*
X63399200Y-69127904D02*
X63351580Y-69175523D01*
X62446819Y-68270761D02*
X62446819Y-67604095D01*
X62446819Y-67604095D02*
X63446819Y-68032666D01*
X62573819Y-53172904D02*
X62573819Y-52506238D01*
X62573819Y-52506238D02*
X63573819Y-52934809D01*
X62907152Y-51696714D02*
X63573819Y-51696714D01*
X62526200Y-51934809D02*
X63240485Y-52172904D01*
X63240485Y-52172904D02*
X63240485Y-51553857D01*
X63573819Y-51172904D02*
X62573819Y-51172904D01*
X63050009Y-51172904D02*
X63050009Y-50601476D01*
X63573819Y-50601476D02*
X62573819Y-50601476D01*
X63478580Y-49553857D02*
X63526200Y-49601476D01*
X63526200Y-49601476D02*
X63573819Y-49744333D01*
X63573819Y-49744333D02*
X63573819Y-49839571D01*
X63573819Y-49839571D02*
X63526200Y-49982428D01*
X63526200Y-49982428D02*
X63430961Y-50077666D01*
X63430961Y-50077666D02*
X63335723Y-50125285D01*
X63335723Y-50125285D02*
X63145247Y-50172904D01*
X63145247Y-50172904D02*
X63002390Y-50172904D01*
X63002390Y-50172904D02*
X62811914Y-50125285D01*
X62811914Y-50125285D02*
X62716676Y-50077666D01*
X62716676Y-50077666D02*
X62621438Y-49982428D01*
X62621438Y-49982428D02*
X62573819Y-49839571D01*
X62573819Y-49839571D02*
X62573819Y-49744333D01*
X62573819Y-49744333D02*
X62621438Y-49601476D01*
X62621438Y-49601476D02*
X62669057Y-49553857D01*
X63573819Y-48601476D02*
X63573819Y-49172904D01*
X63573819Y-48887190D02*
X62573819Y-48887190D01*
X62573819Y-48887190D02*
X62716676Y-48982428D01*
X62716676Y-48982428D02*
X62811914Y-49077666D01*
X62811914Y-49077666D02*
X62859533Y-49172904D01*
X62573819Y-47696714D02*
X62573819Y-48172904D01*
X62573819Y-48172904D02*
X63050009Y-48220523D01*
X63050009Y-48220523D02*
X63002390Y-48172904D01*
X63002390Y-48172904D02*
X62954771Y-48077666D01*
X62954771Y-48077666D02*
X62954771Y-47839571D01*
X62954771Y-47839571D02*
X63002390Y-47744333D01*
X63002390Y-47744333D02*
X63050009Y-47696714D01*
X63050009Y-47696714D02*
X63145247Y-47649095D01*
X63145247Y-47649095D02*
X63383342Y-47649095D01*
X63383342Y-47649095D02*
X63478580Y-47696714D01*
X63478580Y-47696714D02*
X63526200Y-47744333D01*
X63526200Y-47744333D02*
X63573819Y-47839571D01*
X63573819Y-47839571D02*
X63573819Y-48077666D01*
X63573819Y-48077666D02*
X63526200Y-48172904D01*
X63526200Y-48172904D02*
X63478580Y-48220523D01*
X62573819Y-47315761D02*
X62573819Y-46649095D01*
X62573819Y-46649095D02*
X63573819Y-47077666D01*
X55967333Y-92021819D02*
X55634000Y-91545628D01*
X55395905Y-92021819D02*
X55395905Y-91021819D01*
X55395905Y-91021819D02*
X55776857Y-91021819D01*
X55776857Y-91021819D02*
X55872095Y-91069438D01*
X55872095Y-91069438D02*
X55919714Y-91117057D01*
X55919714Y-91117057D02*
X55967333Y-91212295D01*
X55967333Y-91212295D02*
X55967333Y-91355152D01*
X55967333Y-91355152D02*
X55919714Y-91450390D01*
X55919714Y-91450390D02*
X55872095Y-91498009D01*
X55872095Y-91498009D02*
X55776857Y-91545628D01*
X55776857Y-91545628D02*
X55395905Y-91545628D01*
X56919714Y-92021819D02*
X56348286Y-92021819D01*
X56634000Y-92021819D02*
X56634000Y-91021819D01*
X56634000Y-91021819D02*
X56538762Y-91164676D01*
X56538762Y-91164676D02*
X56443524Y-91259914D01*
X56443524Y-91259914D02*
X56348286Y-91307533D01*
X62113095Y-62065819D02*
X62113095Y-62875342D01*
X62113095Y-62875342D02*
X62160714Y-62970580D01*
X62160714Y-62970580D02*
X62208333Y-63018200D01*
X62208333Y-63018200D02*
X62303571Y-63065819D01*
X62303571Y-63065819D02*
X62494047Y-63065819D01*
X62494047Y-63065819D02*
X62589285Y-63018200D01*
X62589285Y-63018200D02*
X62636904Y-62970580D01*
X62636904Y-62970580D02*
X62684523Y-62875342D01*
X62684523Y-62875342D02*
X62684523Y-62065819D01*
X63065476Y-62065819D02*
X63684523Y-62065819D01*
X63684523Y-62065819D02*
X63351190Y-62446771D01*
X63351190Y-62446771D02*
X63494047Y-62446771D01*
X63494047Y-62446771D02*
X63589285Y-62494390D01*
X63589285Y-62494390D02*
X63636904Y-62542009D01*
X63636904Y-62542009D02*
X63684523Y-62637247D01*
X63684523Y-62637247D02*
X63684523Y-62875342D01*
X63684523Y-62875342D02*
X63636904Y-62970580D01*
X63636904Y-62970580D02*
X63589285Y-63018200D01*
X63589285Y-63018200D02*
X63494047Y-63065819D01*
X63494047Y-63065819D02*
X63208333Y-63065819D01*
X63208333Y-63065819D02*
X63113095Y-63018200D01*
X63113095Y-63018200D02*
X63065476Y-62970580D01*
X34798095Y-40475819D02*
X34798095Y-41285342D01*
X34798095Y-41285342D02*
X34845714Y-41380580D01*
X34845714Y-41380580D02*
X34893333Y-41428200D01*
X34893333Y-41428200D02*
X34988571Y-41475819D01*
X34988571Y-41475819D02*
X35179047Y-41475819D01*
X35179047Y-41475819D02*
X35274285Y-41428200D01*
X35274285Y-41428200D02*
X35321904Y-41380580D01*
X35321904Y-41380580D02*
X35369523Y-41285342D01*
X35369523Y-41285342D02*
X35369523Y-40475819D01*
X36369523Y-41475819D02*
X35798095Y-41475819D01*
X36083809Y-41475819D02*
X36083809Y-40475819D01*
X36083809Y-40475819D02*
X35988571Y-40618676D01*
X35988571Y-40618676D02*
X35893333Y-40713914D01*
X35893333Y-40713914D02*
X35798095Y-40761533D01*
X62113095Y-40988819D02*
X62113095Y-41798342D01*
X62113095Y-41798342D02*
X62160714Y-41893580D01*
X62160714Y-41893580D02*
X62208333Y-41941200D01*
X62208333Y-41941200D02*
X62303571Y-41988819D01*
X62303571Y-41988819D02*
X62494047Y-41988819D01*
X62494047Y-41988819D02*
X62589285Y-41941200D01*
X62589285Y-41941200D02*
X62636904Y-41893580D01*
X62636904Y-41893580D02*
X62684523Y-41798342D01*
X62684523Y-41798342D02*
X62684523Y-40988819D01*
X63113095Y-41084057D02*
X63160714Y-41036438D01*
X63160714Y-41036438D02*
X63255952Y-40988819D01*
X63255952Y-40988819D02*
X63494047Y-40988819D01*
X63494047Y-40988819D02*
X63589285Y-41036438D01*
X63589285Y-41036438D02*
X63636904Y-41084057D01*
X63636904Y-41084057D02*
X63684523Y-41179295D01*
X63684523Y-41179295D02*
X63684523Y-41274533D01*
X63684523Y-41274533D02*
X63636904Y-41417390D01*
X63636904Y-41417390D02*
X63065476Y-41988819D01*
X63065476Y-41988819D02*
X63684523Y-41988819D01*
X65976667Y-89688200D02*
X66119524Y-89735819D01*
X66119524Y-89735819D02*
X66357619Y-89735819D01*
X66357619Y-89735819D02*
X66452857Y-89688200D01*
X66452857Y-89688200D02*
X66500476Y-89640580D01*
X66500476Y-89640580D02*
X66548095Y-89545342D01*
X66548095Y-89545342D02*
X66548095Y-89450104D01*
X66548095Y-89450104D02*
X66500476Y-89354866D01*
X66500476Y-89354866D02*
X66452857Y-89307247D01*
X66452857Y-89307247D02*
X66357619Y-89259628D01*
X66357619Y-89259628D02*
X66167143Y-89212009D01*
X66167143Y-89212009D02*
X66071905Y-89164390D01*
X66071905Y-89164390D02*
X66024286Y-89116771D01*
X66024286Y-89116771D02*
X65976667Y-89021533D01*
X65976667Y-89021533D02*
X65976667Y-88926295D01*
X65976667Y-88926295D02*
X66024286Y-88831057D01*
X66024286Y-88831057D02*
X66071905Y-88783438D01*
X66071905Y-88783438D02*
X66167143Y-88735819D01*
X66167143Y-88735819D02*
X66405238Y-88735819D01*
X66405238Y-88735819D02*
X66548095Y-88783438D01*
X66881429Y-88735819D02*
X67119524Y-89735819D01*
X67119524Y-89735819D02*
X67310000Y-89021533D01*
X67310000Y-89021533D02*
X67500476Y-89735819D01*
X67500476Y-89735819D02*
X67738572Y-88735819D01*
X68643333Y-89735819D02*
X68071905Y-89735819D01*
X68357619Y-89735819D02*
X68357619Y-88735819D01*
X68357619Y-88735819D02*
X68262381Y-88878676D01*
X68262381Y-88878676D02*
X68167143Y-88973914D01*
X68167143Y-88973914D02*
X68071905Y-89021533D01*
X82804095Y-40657819D02*
X82804095Y-41467342D01*
X82804095Y-41467342D02*
X82851714Y-41562580D01*
X82851714Y-41562580D02*
X82899333Y-41610200D01*
X82899333Y-41610200D02*
X82994571Y-41657819D01*
X82994571Y-41657819D02*
X83185047Y-41657819D01*
X83185047Y-41657819D02*
X83280285Y-41610200D01*
X83280285Y-41610200D02*
X83327904Y-41562580D01*
X83327904Y-41562580D02*
X83375523Y-41467342D01*
X83375523Y-41467342D02*
X83375523Y-40657819D01*
X84280285Y-40991152D02*
X84280285Y-41657819D01*
X84042190Y-40610200D02*
X83804095Y-41324485D01*
X83804095Y-41324485D02*
X84423142Y-41324485D01*
D12*
%TO.C,G\u002A\u002A\u002A*%
G36*
X98180727Y-81976746D02*
G01*
X98187348Y-81983809D01*
X98187710Y-81984457D01*
X98189606Y-81990959D01*
X98190166Y-81999529D01*
X98190053Y-82001690D01*
X98189163Y-82012882D01*
X98197878Y-82011488D01*
X98200071Y-82011206D01*
X98202208Y-82011310D01*
X98204633Y-82012104D01*
X98207692Y-82013891D01*
X98211731Y-82016973D01*
X98217093Y-82021656D01*
X98224126Y-82028243D01*
X98233173Y-82037036D01*
X98244582Y-82048339D01*
X98258696Y-82062456D01*
X98275861Y-82079690D01*
X98278463Y-82082305D01*
X98350333Y-82154515D01*
X98402827Y-82154750D01*
X98421239Y-82154874D01*
X98435455Y-82155148D01*
X98446160Y-82155705D01*
X98454042Y-82156679D01*
X98459787Y-82158201D01*
X98464081Y-82160405D01*
X98467611Y-82163424D01*
X98471064Y-82167390D01*
X98471604Y-82168057D01*
X98475021Y-82172221D01*
X98480973Y-82179388D01*
X98488849Y-82188828D01*
X98498038Y-82199809D01*
X98507920Y-82211585D01*
X98517899Y-82223468D01*
X98527264Y-82234627D01*
X98535380Y-82244304D01*
X98541611Y-82251742D01*
X98545279Y-82256134D01*
X98549340Y-82261463D01*
X98550291Y-82264376D01*
X98548469Y-82265919D01*
X98548427Y-82265935D01*
X98545107Y-82266261D01*
X98537541Y-82266485D01*
X98526362Y-82266603D01*
X98512206Y-82266614D01*
X98495708Y-82266514D01*
X98477503Y-82266303D01*
X98470678Y-82266200D01*
X98396723Y-82265009D01*
X98382719Y-82248274D01*
X98376489Y-82240645D01*
X98371675Y-82234404D01*
X98368997Y-82230499D01*
X98368680Y-82229756D01*
X98370993Y-82229200D01*
X98377479Y-82228652D01*
X98387430Y-82228146D01*
X98400137Y-82227716D01*
X98414890Y-82227395D01*
X98420417Y-82227315D01*
X98472189Y-82226656D01*
X98458713Y-82210785D01*
X98445236Y-82194915D01*
X98392402Y-82193694D01*
X98339569Y-82192473D01*
X98329534Y-82182707D01*
X98321819Y-82175138D01*
X98311953Y-82165366D01*
X98300367Y-82153827D01*
X98287494Y-82140956D01*
X98273764Y-82127189D01*
X98259611Y-82112961D01*
X98245465Y-82098708D01*
X98231758Y-82084864D01*
X98218922Y-82071867D01*
X98207389Y-82060150D01*
X98197590Y-82050151D01*
X98189958Y-82042303D01*
X98184923Y-82037043D01*
X98182925Y-82034817D01*
X98181169Y-82029699D01*
X98180679Y-82025206D01*
X98180265Y-82021459D01*
X98178207Y-82019838D01*
X98173186Y-82019705D01*
X98169779Y-82019948D01*
X98162123Y-82019989D01*
X98156829Y-82018065D01*
X98152400Y-82014295D01*
X98148601Y-82009897D01*
X98146864Y-82005440D01*
X98146669Y-81999018D01*
X98146986Y-81994482D01*
X98148514Y-81984838D01*
X98151334Y-81979082D01*
X98152768Y-81977756D01*
X98162124Y-81973468D01*
X98171882Y-81973215D01*
X98180727Y-81976746D01*
G37*
G36*
X98462439Y-81508035D02*
G01*
X98478735Y-81510870D01*
X98479009Y-81510949D01*
X98497789Y-81518767D01*
X98514933Y-81530450D01*
X98529534Y-81545174D01*
X98540689Y-81562114D01*
X98544507Y-81570670D01*
X98547135Y-81580025D01*
X98549200Y-81591880D01*
X98550493Y-81604348D01*
X98550806Y-81615540D01*
X98550202Y-81622359D01*
X98543906Y-81644548D01*
X98533924Y-81663558D01*
X98520141Y-81679543D01*
X98502441Y-81692657D01*
X98493671Y-81697416D01*
X98484849Y-81701637D01*
X98477980Y-81704313D01*
X98471420Y-81705792D01*
X98463524Y-81706420D01*
X98452649Y-81706546D01*
X98451776Y-81706545D01*
X98450557Y-81706543D01*
X98438847Y-81706391D01*
X98430416Y-81705782D01*
X98423659Y-81704405D01*
X98416972Y-81701947D01*
X98409806Y-81698610D01*
X98394261Y-81688932D01*
X98380050Y-81676112D01*
X98368381Y-81661417D01*
X98360986Y-81647470D01*
X98358311Y-81639863D01*
X98356610Y-81632273D01*
X98355680Y-81623230D01*
X98355319Y-81611356D01*
X98407796Y-81611356D01*
X98410298Y-81624031D01*
X98415005Y-81632138D01*
X98422452Y-81640547D01*
X98431011Y-81647672D01*
X98438872Y-81651870D01*
X98451776Y-81653727D01*
X98464709Y-81651420D01*
X98476651Y-81645551D01*
X98486582Y-81636726D01*
X98493480Y-81625547D01*
X98495686Y-81618244D01*
X98497253Y-81608162D01*
X98497238Y-81600698D01*
X98495575Y-81593826D01*
X98494812Y-81591752D01*
X98489561Y-81581311D01*
X98482309Y-81573467D01*
X98473491Y-81567576D01*
X98460202Y-81562415D01*
X98446742Y-81561508D01*
X98434036Y-81564608D01*
X98423012Y-81571469D01*
X98414596Y-81581844D01*
X98413723Y-81583474D01*
X98408953Y-81597173D01*
X98407796Y-81611356D01*
X98355319Y-81611356D01*
X98355316Y-81611266D01*
X98355286Y-81606437D01*
X98355343Y-81594322D01*
X98355762Y-81585665D01*
X98356803Y-81579043D01*
X98358724Y-81573032D01*
X98361785Y-81566209D01*
X98363111Y-81563491D01*
X98373432Y-81547200D01*
X98387164Y-81532380D01*
X98402943Y-81520369D01*
X98411977Y-81515457D01*
X98427113Y-81510459D01*
X98444582Y-81507941D01*
X98462439Y-81508035D01*
G37*
G36*
X98420431Y-82086270D02*
G01*
X98437767Y-82086311D01*
X98451274Y-82086422D01*
X98461478Y-82086637D01*
X98468907Y-82086992D01*
X98474087Y-82087519D01*
X98477546Y-82088254D01*
X98479810Y-82089232D01*
X98481407Y-82090487D01*
X98482598Y-82091757D01*
X98485670Y-82095560D01*
X98490980Y-82102530D01*
X98497926Y-82111860D01*
X98505907Y-82122745D01*
X98511322Y-82130212D01*
X98519743Y-82141792D01*
X98527610Y-82152451D01*
X98534292Y-82161345D01*
X98539159Y-82167635D01*
X98540998Y-82169867D01*
X98544891Y-82174863D01*
X98546833Y-82178467D01*
X98546882Y-82178815D01*
X98544683Y-82180395D01*
X98538853Y-82182562D01*
X98530541Y-82184906D01*
X98528337Y-82185441D01*
X98518918Y-82187560D01*
X98513134Y-82188463D01*
X98509896Y-82188178D01*
X98508115Y-82186733D01*
X98507630Y-82185950D01*
X98504971Y-82181962D01*
X98500003Y-82175133D01*
X98493471Y-82166432D01*
X98486121Y-82156828D01*
X98478699Y-82147290D01*
X98471949Y-82138786D01*
X98466618Y-82132285D01*
X98464274Y-82129602D01*
X98458071Y-82122887D01*
X98402834Y-82122887D01*
X98347596Y-82122887D01*
X98333705Y-82106815D01*
X98327442Y-82099328D01*
X98322646Y-82093133D01*
X98320061Y-82089212D01*
X98319813Y-82088503D01*
X98322179Y-82087913D01*
X98328978Y-82087393D01*
X98339759Y-82086956D01*
X98354072Y-82086614D01*
X98371465Y-82086382D01*
X98391490Y-82086271D01*
X98398739Y-82086263D01*
X98420431Y-82086270D01*
G37*
G36*
X98515399Y-83482535D02*
G01*
X98527108Y-83488854D01*
X98536292Y-83499340D01*
X98540662Y-83507842D01*
X98544075Y-83521375D01*
X98542754Y-83534821D01*
X98539851Y-83542781D01*
X98533740Y-83552513D01*
X98525487Y-83560770D01*
X98516552Y-83566213D01*
X98513122Y-83567300D01*
X98506979Y-83568753D01*
X98503282Y-83569765D01*
X98497527Y-83569824D01*
X98497157Y-83569736D01*
X98489391Y-83567887D01*
X98480644Y-83564532D01*
X98473056Y-83560335D01*
X98472021Y-83559588D01*
X98463915Y-83550593D01*
X98458867Y-83538972D01*
X98457006Y-83526006D01*
X98457175Y-83524486D01*
X98483315Y-83524486D01*
X98484860Y-83532424D01*
X98489834Y-83538840D01*
X98497157Y-83543099D01*
X98503598Y-83543025D01*
X98509354Y-83539574D01*
X98515709Y-83532106D01*
X98517235Y-83524140D01*
X98513915Y-83515998D01*
X98510700Y-83512226D01*
X98504728Y-83507493D01*
X98499156Y-83506348D01*
X98497201Y-83506608D01*
X98489808Y-83510164D01*
X98485072Y-83516595D01*
X98483315Y-83524486D01*
X98457175Y-83524486D01*
X98458459Y-83512974D01*
X98463356Y-83501159D01*
X98465811Y-83497669D01*
X98476718Y-83487518D01*
X98489676Y-83481796D01*
X98501223Y-83480423D01*
X98515399Y-83482535D01*
G37*
G36*
X98505404Y-82553735D02*
G01*
X98516398Y-82555844D01*
X98524352Y-82559530D01*
X98533073Y-82568548D01*
X98539050Y-82580468D01*
X98541954Y-82593945D01*
X98541455Y-82607637D01*
X98538564Y-82617433D01*
X98531837Y-82627278D01*
X98521798Y-82635220D01*
X98509880Y-82640508D01*
X98501611Y-82641770D01*
X98497518Y-82642394D01*
X98491830Y-82641868D01*
X98479300Y-82637302D01*
X98469334Y-82629348D01*
X98462115Y-82618881D01*
X98457826Y-82606778D01*
X98456996Y-82597676D01*
X98481878Y-82597676D01*
X98483785Y-82605435D01*
X98488283Y-82611618D01*
X98494512Y-82615390D01*
X98501611Y-82615919D01*
X98507994Y-82612962D01*
X98514760Y-82605409D01*
X98517028Y-82597095D01*
X98514648Y-82588705D01*
X98513674Y-82587181D01*
X98506947Y-82580911D01*
X98499177Y-82578592D01*
X98491596Y-82580140D01*
X98485438Y-82585476D01*
X98483425Y-82589175D01*
X98481878Y-82597676D01*
X98456996Y-82597676D01*
X98456653Y-82593915D01*
X98458779Y-82581167D01*
X98464387Y-82569410D01*
X98473662Y-82559520D01*
X98474423Y-82558943D01*
X98482644Y-82555264D01*
X98493562Y-82553535D01*
X98505404Y-82553735D01*
G37*
G36*
X98505631Y-82992800D02*
G01*
X98513603Y-82994781D01*
X98520336Y-82999025D01*
X98525511Y-83004060D01*
X98530956Y-83010440D01*
X98533682Y-83015875D01*
X98534603Y-83022682D01*
X98534674Y-83027220D01*
X98534143Y-83036260D01*
X98532106Y-83042663D01*
X98528279Y-83048155D01*
X98518122Y-83057210D01*
X98507077Y-83061974D01*
X98495944Y-83062533D01*
X98485518Y-83058974D01*
X98476598Y-83051382D01*
X98470859Y-83041966D01*
X98467783Y-83029875D01*
X98468816Y-83018228D01*
X98473378Y-83007845D01*
X98480884Y-82999551D01*
X98490754Y-82994168D01*
X98502406Y-82992519D01*
X98505631Y-82992800D01*
G37*
G36*
X98486558Y-81723350D02*
G01*
X98488528Y-81725924D01*
X98489186Y-81727958D01*
X98489712Y-81732465D01*
X98490077Y-81740651D01*
X98490283Y-81751317D01*
X98490332Y-81763261D01*
X98490227Y-81775284D01*
X98489971Y-81786185D01*
X98489565Y-81794764D01*
X98489045Y-81799657D01*
X98487250Y-81801996D01*
X98482370Y-81807377D01*
X98474751Y-81815454D01*
X98464737Y-81825880D01*
X98452672Y-81838310D01*
X98438902Y-81852397D01*
X98423770Y-81867794D01*
X98407623Y-81884155D01*
X98390804Y-81901135D01*
X98373659Y-81918385D01*
X98356532Y-81935561D01*
X98339767Y-81952316D01*
X98323710Y-81968303D01*
X98308705Y-81983176D01*
X98295097Y-81996589D01*
X98283231Y-82008195D01*
X98273451Y-82017648D01*
X98266103Y-82024602D01*
X98261530Y-82028710D01*
X98260081Y-82029704D01*
X98259655Y-82027068D01*
X98259124Y-82020679D01*
X98258574Y-82011660D01*
X98258306Y-82006268D01*
X98257873Y-81995628D01*
X98257937Y-81988616D01*
X98258765Y-81983982D01*
X98260623Y-81980477D01*
X98263780Y-81976850D01*
X98264833Y-81975748D01*
X98267997Y-81972535D01*
X98274277Y-81966241D01*
X98283320Y-81957216D01*
X98294769Y-81945815D01*
X98308270Y-81932389D01*
X98323470Y-81917292D01*
X98340014Y-81900875D01*
X98357546Y-81883493D01*
X98364608Y-81876495D01*
X98456816Y-81785145D01*
X98455147Y-81760230D01*
X98453478Y-81735316D01*
X98467513Y-81728890D01*
X98476958Y-81724794D01*
X98483004Y-81722960D01*
X98486558Y-81723350D01*
G37*
G36*
X98485303Y-83427116D02*
G01*
X98485985Y-83458049D01*
X98471295Y-83469353D01*
X98460873Y-83478631D01*
X98450929Y-83490325D01*
X98442037Y-83503122D01*
X98435691Y-83512867D01*
X98429983Y-83521557D01*
X98425646Y-83528079D01*
X98423744Y-83530865D01*
X98420019Y-83536140D01*
X98201209Y-83536458D01*
X98168288Y-83536483D01*
X98137006Y-83536462D01*
X98107690Y-83536397D01*
X98080669Y-83536291D01*
X98056269Y-83536147D01*
X98034819Y-83535967D01*
X98016647Y-83535755D01*
X98002079Y-83535513D01*
X97991444Y-83535243D01*
X97985069Y-83534949D01*
X97983245Y-83534665D01*
X97985334Y-83532182D01*
X97990206Y-83527329D01*
X97996981Y-83520966D01*
X98000408Y-83517847D01*
X98016723Y-83503140D01*
X98199398Y-83501478D01*
X98229099Y-83501191D01*
X98257570Y-83500882D01*
X98284406Y-83500558D01*
X98309200Y-83500225D01*
X98331546Y-83499890D01*
X98351036Y-83499559D01*
X98367265Y-83499239D01*
X98379826Y-83498936D01*
X98388311Y-83498656D01*
X98392294Y-83498410D01*
X98396639Y-83497588D01*
X98400398Y-83496033D01*
X98404298Y-83493098D01*
X98409065Y-83488133D01*
X98415427Y-83480490D01*
X98422814Y-83471169D01*
X98432269Y-83459118D01*
X98439145Y-83450079D01*
X98443844Y-83443195D01*
X98446769Y-83437611D01*
X98448322Y-83432469D01*
X98448904Y-83426913D01*
X98448917Y-83420086D01*
X98448832Y-83415716D01*
X98448463Y-83396184D01*
X98466542Y-83396184D01*
X98484621Y-83396184D01*
X98485303Y-83427116D01*
G37*
G36*
X98367487Y-82875548D02*
G01*
X98382985Y-82875631D01*
X98395453Y-82875789D01*
X98405157Y-82876023D01*
X98412362Y-82876336D01*
X98417331Y-82876728D01*
X98420331Y-82877200D01*
X98421550Y-82877684D01*
X98422830Y-82878805D01*
X98424223Y-82880274D01*
X98426063Y-82882570D01*
X98428685Y-82886174D01*
X98432422Y-82891565D01*
X98437610Y-82899225D01*
X98444583Y-82909633D01*
X98453674Y-82923269D01*
X98462036Y-82935831D01*
X98471323Y-82950156D01*
X98477815Y-82961218D01*
X98481715Y-82969611D01*
X98483224Y-82975929D01*
X98482543Y-82980765D01*
X98479874Y-82984712D01*
X98478935Y-82985616D01*
X98472108Y-82988937D01*
X98463603Y-82989388D01*
X98456739Y-82987320D01*
X98453907Y-82984544D01*
X98449002Y-82978443D01*
X98442605Y-82969794D01*
X98435298Y-82959370D01*
X98431496Y-82953748D01*
X98423797Y-82942388D01*
X98416606Y-82932060D01*
X98410552Y-82923650D01*
X98406264Y-82918042D01*
X98405080Y-82916668D01*
X98399541Y-82910823D01*
X98225999Y-82912366D01*
X98196684Y-82912624D01*
X98168321Y-82912869D01*
X98141363Y-82913099D01*
X98116264Y-82913308D01*
X98093479Y-82913493D01*
X98073461Y-82913651D01*
X98056664Y-82913778D01*
X98043542Y-82913871D01*
X98034549Y-82913925D01*
X98031093Y-82913937D01*
X98020056Y-82914242D01*
X98013089Y-82915351D01*
X98010194Y-82917610D01*
X98011371Y-82921366D01*
X98016624Y-82926967D01*
X98025953Y-82934757D01*
X98031202Y-82938854D01*
X98040660Y-82946026D01*
X98047119Y-82950497D01*
X98051352Y-82952667D01*
X98054136Y-82952935D01*
X98056206Y-82951734D01*
X98057621Y-82951047D01*
X98060467Y-82950438D01*
X98065062Y-82949897D01*
X98071723Y-82949415D01*
X98080766Y-82948983D01*
X98092508Y-82948593D01*
X98107268Y-82948234D01*
X98125361Y-82947898D01*
X98147104Y-82947575D01*
X98172816Y-82947257D01*
X98202812Y-82946934D01*
X98233261Y-82946637D01*
X98406490Y-82945002D01*
X98416966Y-82961533D01*
X98421748Y-82969276D01*
X98425195Y-82975237D01*
X98426727Y-82978403D01*
X98426732Y-82978654D01*
X98424153Y-82978859D01*
X98417202Y-82979100D01*
X98406393Y-82979368D01*
X98392238Y-82979658D01*
X98375249Y-82979963D01*
X98355938Y-82980275D01*
X98334818Y-82980587D01*
X98312401Y-82980894D01*
X98289200Y-82981188D01*
X98265726Y-82981461D01*
X98242492Y-82981709D01*
X98220010Y-82981922D01*
X98198792Y-82982096D01*
X98179351Y-82982222D01*
X98162199Y-82982294D01*
X98153173Y-82982308D01*
X98132642Y-82982355D01*
X98116520Y-82982493D01*
X98104332Y-82982747D01*
X98095606Y-82983139D01*
X98089867Y-82983693D01*
X98086640Y-82984432D01*
X98085454Y-82985378D01*
X98085419Y-82985610D01*
X98087175Y-82988621D01*
X98091842Y-82993724D01*
X98098518Y-82999960D01*
X98100679Y-83001826D01*
X98115939Y-83014764D01*
X98202616Y-83013177D01*
X98227357Y-83012765D01*
X98254619Y-83012380D01*
X98282983Y-83012039D01*
X98311028Y-83011756D01*
X98337338Y-83011547D01*
X98360490Y-83011428D01*
X98364941Y-83011416D01*
X98440589Y-83011241D01*
X98446124Y-83017676D01*
X98450735Y-83024945D01*
X98450763Y-83031339D01*
X98446128Y-83037725D01*
X98444147Y-83039492D01*
X98436635Y-83045814D01*
X98343431Y-83046132D01*
X98320117Y-83046250D01*
X98296234Y-83046440D01*
X98272729Y-83046691D01*
X98250544Y-83046990D01*
X98230626Y-83047323D01*
X98213919Y-83047680D01*
X98203837Y-83047963D01*
X98157446Y-83049476D01*
X98164771Y-83055915D01*
X98170274Y-83060646D01*
X98177998Y-83067153D01*
X98186380Y-83074122D01*
X98187360Y-83074930D01*
X98195068Y-83081585D01*
X98201597Y-83087769D01*
X98205731Y-83092320D01*
X98206147Y-83092907D01*
X98207727Y-83097438D01*
X98209050Y-83104920D01*
X98210007Y-83113871D01*
X98210488Y-83122810D01*
X98210384Y-83130254D01*
X98209585Y-83134723D01*
X98209279Y-83135187D01*
X98206617Y-83134453D01*
X98200520Y-83130578D01*
X98191166Y-83123703D01*
X98178735Y-83113971D01*
X98163403Y-83101525D01*
X98145350Y-83086507D01*
X98124754Y-83069061D01*
X98101794Y-83049329D01*
X98098706Y-83046657D01*
X98089266Y-83038507D01*
X98077272Y-83028193D01*
X98063890Y-83016714D01*
X98050284Y-83005070D01*
X98041328Y-82997421D01*
X98028823Y-82986721D01*
X98016284Y-82975933D01*
X98004701Y-82965915D01*
X97995069Y-82957526D01*
X97989513Y-82952633D01*
X97972959Y-82937926D01*
X97973642Y-82908245D01*
X97974326Y-82878564D01*
X98196058Y-82876563D01*
X98235292Y-82876221D01*
X98269907Y-82875946D01*
X98300170Y-82875740D01*
X98326344Y-82875604D01*
X98348695Y-82875540D01*
X98367487Y-82875548D01*
G37*
G36*
X98425626Y-83573685D02*
G01*
X98440913Y-83573784D01*
X98453303Y-83573943D01*
X98463044Y-83574162D01*
X98470386Y-83574442D01*
X98475575Y-83574786D01*
X98478860Y-83575194D01*
X98480491Y-83575669D01*
X98480780Y-83576037D01*
X98479417Y-83580200D01*
X98476333Y-83585981D01*
X98475958Y-83586577D01*
X98471169Y-83592699D01*
X98464642Y-83599454D01*
X98462098Y-83601746D01*
X98452880Y-83609641D01*
X98201066Y-83609732D01*
X97949252Y-83609824D01*
X97950514Y-83593343D01*
X97951186Y-83585041D01*
X97951741Y-83579021D01*
X97952062Y-83576567D01*
X97952064Y-83576563D01*
X97954493Y-83576507D01*
X97961489Y-83576423D01*
X97972740Y-83576312D01*
X97987930Y-83576177D01*
X98006745Y-83576022D01*
X98028869Y-83575847D01*
X98053989Y-83575656D01*
X98081789Y-83575451D01*
X98111956Y-83575234D01*
X98144174Y-83575008D01*
X98178129Y-83574775D01*
X98213506Y-83574538D01*
X98216655Y-83574517D01*
X98259171Y-83574245D01*
X98297052Y-83574021D01*
X98330547Y-83573847D01*
X98359903Y-83573725D01*
X98385370Y-83573657D01*
X98407195Y-83573643D01*
X98425626Y-83573685D01*
G37*
G36*
X98248539Y-82684477D02*
G01*
X98288557Y-82684537D01*
X98325159Y-82684637D01*
X98358186Y-82684774D01*
X98387479Y-82684947D01*
X98412880Y-82685155D01*
X98434229Y-82685396D01*
X98451368Y-82685670D01*
X98464138Y-82685974D01*
X98472381Y-82686307D01*
X98475937Y-82686669D01*
X98476076Y-82686759D01*
X98474590Y-82689554D01*
X98470627Y-82695022D01*
X98464930Y-82702162D01*
X98462494Y-82705071D01*
X98448912Y-82721080D01*
X98196620Y-82721080D01*
X97944328Y-82721080D01*
X97943457Y-82813251D01*
X97943277Y-82835360D01*
X97943156Y-82857096D01*
X97943092Y-82877692D01*
X97943088Y-82896387D01*
X97943142Y-82912414D01*
X97943256Y-82925010D01*
X97943409Y-82932778D01*
X97944232Y-82960135D01*
X97975150Y-82984550D01*
X98005976Y-83008897D01*
X98033193Y-83030404D01*
X98057025Y-83049257D01*
X98077695Y-83065640D01*
X98095430Y-83079736D01*
X98110454Y-83091730D01*
X98122990Y-83101806D01*
X98133265Y-83110149D01*
X98141503Y-83116942D01*
X98147928Y-83122370D01*
X98152766Y-83126617D01*
X98156240Y-83129867D01*
X98158576Y-83132305D01*
X98159999Y-83134115D01*
X98160732Y-83135481D01*
X98161001Y-83136587D01*
X98161027Y-83136951D01*
X98159497Y-83139796D01*
X98155576Y-83144449D01*
X98153972Y-83146107D01*
X98147102Y-83151360D01*
X98139481Y-83153165D01*
X98137491Y-83153209D01*
X98133321Y-83152832D01*
X98128983Y-83151423D01*
X98123705Y-83148517D01*
X98116719Y-83143649D01*
X98107252Y-83136354D01*
X98100067Y-83130624D01*
X98084203Y-83117910D01*
X98069872Y-83106489D01*
X98055627Y-83095214D01*
X98040021Y-83082940D01*
X98026914Y-83072671D01*
X98020344Y-83067495D01*
X98010626Y-83059793D01*
X97998424Y-83050092D01*
X97984398Y-83038921D01*
X97969213Y-83026808D01*
X97953529Y-83014281D01*
X97938010Y-83001868D01*
X97923319Y-82990097D01*
X97922442Y-82989394D01*
X97907182Y-82977154D01*
X97907231Y-82844844D01*
X97907280Y-82712535D01*
X97920866Y-82698495D01*
X97934452Y-82684456D01*
X98205264Y-82684456D01*
X98248539Y-82684477D01*
G37*
G36*
X97936481Y-82392531D02*
G01*
X97936481Y-82532745D01*
X97989586Y-82531707D01*
X98007696Y-82531393D01*
X98028702Y-82531099D01*
X98052209Y-82530827D01*
X98077818Y-82530575D01*
X98105133Y-82530347D01*
X98133756Y-82530143D01*
X98163291Y-82529964D01*
X98193339Y-82529811D01*
X98223504Y-82529684D01*
X98253389Y-82529586D01*
X98282596Y-82529517D01*
X98310729Y-82529478D01*
X98337389Y-82529469D01*
X98362181Y-82529493D01*
X98384706Y-82529550D01*
X98404568Y-82529641D01*
X98421369Y-82529768D01*
X98434713Y-82529930D01*
X98444201Y-82530130D01*
X98449437Y-82530367D01*
X98450371Y-82530526D01*
X98449369Y-82533078D01*
X98445635Y-82538225D01*
X98439852Y-82545070D01*
X98436383Y-82548875D01*
X98421139Y-82565194D01*
X98172999Y-82566593D01*
X97924859Y-82567991D01*
X97913560Y-82557163D01*
X97902260Y-82546336D01*
X97902890Y-82400384D01*
X97903520Y-82254433D01*
X97920000Y-82253374D01*
X97936481Y-82252316D01*
X97936481Y-82392531D01*
G37*
G36*
X98427559Y-82613138D02*
G01*
X98434725Y-82621525D01*
X98440870Y-82629418D01*
X98445370Y-82635939D01*
X98447598Y-82640209D01*
X98447605Y-82641306D01*
X98444947Y-82641601D01*
X98437919Y-82641877D01*
X98427032Y-82642126D01*
X98412800Y-82642343D01*
X98395735Y-82642519D01*
X98376350Y-82642649D01*
X98355158Y-82642724D01*
X98343344Y-82642739D01*
X98320447Y-82642782D01*
X98293600Y-82642885D01*
X98263739Y-82643041D01*
X98231796Y-82643243D01*
X98198705Y-82643485D01*
X98165401Y-82643761D01*
X98132816Y-82644065D01*
X98101886Y-82644388D01*
X98094930Y-82644467D01*
X97949399Y-82646140D01*
X97948079Y-82628064D01*
X97947488Y-82619332D01*
X97947137Y-82612829D01*
X97947089Y-82609775D01*
X97947114Y-82609688D01*
X97949551Y-82609632D01*
X97956539Y-82609549D01*
X97967746Y-82609443D01*
X97982838Y-82609317D01*
X98001484Y-82609172D01*
X98023351Y-82609010D01*
X98048107Y-82608835D01*
X98075420Y-82608649D01*
X98104956Y-82608455D01*
X98136384Y-82608253D01*
X98169372Y-82608048D01*
X98184552Y-82607956D01*
X98421636Y-82606522D01*
X98427559Y-82613138D01*
G37*
G36*
X98424557Y-81718650D02*
G01*
X98425929Y-81721891D01*
X98426862Y-81729072D01*
X98427241Y-81739259D01*
X98427243Y-81740323D01*
X98427243Y-81760334D01*
X98337280Y-81850273D01*
X98247316Y-81940212D01*
X98245790Y-81917405D01*
X98244263Y-81894598D01*
X98333066Y-81805794D01*
X98351638Y-81787304D01*
X98368718Y-81770463D01*
X98384033Y-81755530D01*
X98397308Y-81742768D01*
X98408269Y-81732437D01*
X98416642Y-81724798D01*
X98422154Y-81720111D01*
X98424531Y-81718639D01*
X98424557Y-81718650D01*
G37*
G36*
X98381595Y-83431506D02*
G01*
X98393890Y-83431786D01*
X98404465Y-83432302D01*
X98412421Y-83433053D01*
X98416858Y-83434041D01*
X98417477Y-83434639D01*
X98416397Y-83438293D01*
X98413592Y-83444704D01*
X98410376Y-83451120D01*
X98403276Y-83464549D01*
X98366099Y-83465224D01*
X98351144Y-83465410D01*
X98340258Y-83465298D01*
X98332634Y-83464830D01*
X98327464Y-83463945D01*
X98323939Y-83462584D01*
X98323015Y-83462030D01*
X98316504Y-83455453D01*
X98314469Y-83447829D01*
X98316944Y-83440139D01*
X98322043Y-83434717D01*
X98325781Y-83433602D01*
X98333192Y-83432719D01*
X98343378Y-83432066D01*
X98355440Y-83431646D01*
X98368479Y-83431459D01*
X98381595Y-83431506D01*
G37*
G36*
X97937831Y-81655782D02*
G01*
X97942748Y-81660576D01*
X97950336Y-81668106D01*
X97960220Y-81677993D01*
X97972029Y-81689860D01*
X97985391Y-81703329D01*
X97999931Y-81718024D01*
X98015278Y-81733565D01*
X98031058Y-81749577D01*
X98046900Y-81765681D01*
X98062430Y-81781499D01*
X98077275Y-81796655D01*
X98091064Y-81810771D01*
X98103423Y-81823469D01*
X98113979Y-81834372D01*
X98115954Y-81836421D01*
X98127354Y-81848164D01*
X98135977Y-81856762D01*
X98142359Y-81862661D01*
X98147031Y-81866310D01*
X98150528Y-81868154D01*
X98153383Y-81868639D01*
X98154339Y-81868570D01*
X98156952Y-81867403D01*
X98161374Y-81864214D01*
X98167823Y-81858799D01*
X98176518Y-81850957D01*
X98187678Y-81840485D01*
X98201520Y-81827179D01*
X98218263Y-81810838D01*
X98238126Y-81791258D01*
X98244723Y-81784725D01*
X98261962Y-81767652D01*
X98278567Y-81751231D01*
X98294130Y-81735864D01*
X98308243Y-81721953D01*
X98320497Y-81709901D01*
X98330484Y-81700109D01*
X98337796Y-81692980D01*
X98341847Y-81689083D01*
X98355216Y-81676455D01*
X98368122Y-81687936D01*
X98381027Y-81699418D01*
X98273465Y-81806774D01*
X98254398Y-81825765D01*
X98236262Y-81843751D01*
X98219366Y-81860431D01*
X98204020Y-81875503D01*
X98190533Y-81888665D01*
X98179215Y-81899616D01*
X98170375Y-81908054D01*
X98164321Y-81913676D01*
X98161364Y-81916182D01*
X98161220Y-81916265D01*
X98155223Y-81917354D01*
X98150421Y-81916865D01*
X98147232Y-81914755D01*
X98140961Y-81909389D01*
X98131895Y-81901041D01*
X98120323Y-81889988D01*
X98106535Y-81876504D01*
X98090817Y-81860867D01*
X98073460Y-81843352D01*
X98072821Y-81842703D01*
X98055154Y-81824768D01*
X98036553Y-81805911D01*
X98017751Y-81786873D01*
X97999477Y-81768392D01*
X97982464Y-81751209D01*
X97967443Y-81736062D01*
X97955620Y-81724169D01*
X97909902Y-81678263D01*
X97922437Y-81666181D01*
X97928718Y-81660250D01*
X97933526Y-81655940D01*
X97935897Y-81654113D01*
X97935957Y-81654100D01*
X97937831Y-81655782D01*
G37*
G36*
X97844094Y-81681822D02*
G01*
X97850720Y-81684023D01*
X97858721Y-81686969D01*
X97866537Y-81690070D01*
X97872613Y-81692737D01*
X97875134Y-81694128D01*
X97876321Y-81695868D01*
X97877106Y-81699365D01*
X97877510Y-81705254D01*
X97877554Y-81714170D01*
X97877260Y-81726748D01*
X97876716Y-81741898D01*
X97874942Y-81787088D01*
X98113270Y-82023963D01*
X98141714Y-82052247D01*
X98169189Y-82079593D01*
X98195498Y-82105804D01*
X98220443Y-82130682D01*
X98243826Y-82154028D01*
X98265448Y-82175644D01*
X98285113Y-82195332D01*
X98302623Y-82212893D01*
X98317778Y-82228130D01*
X98330383Y-82240844D01*
X98340238Y-82250837D01*
X98347146Y-82257911D01*
X98350909Y-82261867D01*
X98351576Y-82262669D01*
X98349210Y-82263050D01*
X98342445Y-82263416D01*
X98331763Y-82263758D01*
X98317648Y-82264068D01*
X98300584Y-82264337D01*
X98281053Y-82264554D01*
X98259540Y-82264711D01*
X98239850Y-82264791D01*
X98216809Y-82264852D01*
X98195159Y-82264913D01*
X98175413Y-82264971D01*
X98158083Y-82265024D01*
X98143681Y-82265072D01*
X98132718Y-82265113D01*
X98125707Y-82265145D01*
X98123264Y-82265162D01*
X98119207Y-82265168D01*
X98111239Y-82265128D01*
X98100334Y-82265050D01*
X98087464Y-82264941D01*
X98080148Y-82264872D01*
X98041916Y-82264500D01*
X98029485Y-82248682D01*
X98023732Y-82241080D01*
X98019391Y-82234805D01*
X98017189Y-82230928D01*
X98017054Y-82230393D01*
X98019487Y-82229749D01*
X98026753Y-82229171D01*
X98038802Y-82228662D01*
X98055583Y-82228221D01*
X98077047Y-82227851D01*
X98103144Y-82227552D01*
X98133824Y-82227327D01*
X98140875Y-82227288D01*
X98264697Y-82226656D01*
X98054225Y-82016854D01*
X98027508Y-81990200D01*
X98001754Y-81964466D01*
X97977175Y-81939863D01*
X97953983Y-81916608D01*
X97932389Y-81894912D01*
X97912605Y-81874991D01*
X97894844Y-81857058D01*
X97879317Y-81841327D01*
X97866236Y-81828011D01*
X97855813Y-81817325D01*
X97848260Y-81809483D01*
X97843789Y-81804697D01*
X97842572Y-81803213D01*
X97841720Y-81798196D01*
X97841028Y-81789930D01*
X97840517Y-81779552D01*
X97840206Y-81768202D01*
X97840113Y-81757019D01*
X97840257Y-81747140D01*
X97840657Y-81739704D01*
X97841333Y-81735851D01*
X97841446Y-81735667D01*
X97842613Y-81730734D01*
X97841392Y-81722126D01*
X97840199Y-81714970D01*
X97839374Y-81706216D01*
X97838948Y-81697152D01*
X97838953Y-81689063D01*
X97839420Y-81683236D01*
X97840379Y-81680958D01*
X97840398Y-81680957D01*
X97844094Y-81681822D01*
G37*
G36*
X98296530Y-83426911D02*
G01*
X98303794Y-83432068D01*
X98308609Y-83439750D01*
X98309969Y-83447880D01*
X98309167Y-83455019D01*
X98307298Y-83460438D01*
X98306917Y-83460998D01*
X98300344Y-83467189D01*
X98292521Y-83471620D01*
X98286187Y-83473094D01*
X98275963Y-83470982D01*
X98268079Y-83465322D01*
X98263136Y-83457132D01*
X98261738Y-83447430D01*
X98264487Y-83437231D01*
X98264694Y-83436824D01*
X98270899Y-83429234D01*
X98278997Y-83425229D01*
X98287902Y-83424542D01*
X98296530Y-83426911D01*
G37*
G36*
X98213587Y-83148296D02*
G01*
X98228854Y-83153997D01*
X98242014Y-83163440D01*
X98252321Y-83176307D01*
X98255084Y-83181490D01*
X98261089Y-83198445D01*
X98262497Y-83214467D01*
X98260456Y-83226613D01*
X98253396Y-83243753D01*
X98242902Y-83257581D01*
X98229239Y-83267831D01*
X98213704Y-83273975D01*
X98197100Y-83275985D01*
X98196379Y-83275880D01*
X98181130Y-83273660D01*
X98166465Y-83267515D01*
X98153776Y-83258064D01*
X98143735Y-83245819D01*
X98137012Y-83231296D01*
X98134279Y-83215008D01*
X98134251Y-83213142D01*
X98134569Y-83210571D01*
X98173317Y-83210571D01*
X98175245Y-83221183D01*
X98180381Y-83229351D01*
X98187750Y-83234811D01*
X98196379Y-83237305D01*
X98205293Y-83236569D01*
X98213519Y-83232343D01*
X98220082Y-83224365D01*
X98220651Y-83223267D01*
X98223995Y-83214028D01*
X98223606Y-83206031D01*
X98219829Y-83197959D01*
X98212974Y-83189714D01*
X98204646Y-83185842D01*
X98194333Y-83185780D01*
X98183907Y-83189181D01*
X98176932Y-83195993D01*
X98173593Y-83205999D01*
X98173317Y-83210571D01*
X98134569Y-83210571D01*
X98136427Y-83195550D01*
X98142631Y-83179674D01*
X98152378Y-83166196D01*
X98165184Y-83155795D01*
X98179716Y-83149391D01*
X98196959Y-83146655D01*
X98213587Y-83148296D01*
G37*
G36*
X98248829Y-83438020D02*
G01*
X98252359Y-83443712D01*
X98253888Y-83448566D01*
X98253890Y-83448678D01*
X98252447Y-83453460D01*
X98248961Y-83459167D01*
X98248829Y-83459336D01*
X98243769Y-83465769D01*
X98158490Y-83465769D01*
X98136763Y-83465707D01*
X98117523Y-83465528D01*
X98101198Y-83465243D01*
X98088219Y-83464864D01*
X98079015Y-83464402D01*
X98074015Y-83463869D01*
X98073211Y-83463531D01*
X98075073Y-83460665D01*
X98075489Y-83460479D01*
X98078203Y-83458504D01*
X98083416Y-83453967D01*
X98090147Y-83447732D01*
X98092350Y-83445626D01*
X98106932Y-83431587D01*
X98175350Y-83431587D01*
X98243769Y-83431587D01*
X98248829Y-83438020D01*
G37*
G36*
X98199357Y-83294305D02*
G01*
X98201179Y-83294751D01*
X98200986Y-83297647D01*
X98199800Y-83303793D01*
X98198322Y-83310055D01*
X98196759Y-83315298D01*
X98194588Y-83320147D01*
X98191345Y-83325086D01*
X98186567Y-83330600D01*
X98179790Y-83337173D01*
X98170551Y-83345292D01*
X98158386Y-83355441D01*
X98142832Y-83368104D01*
X98142831Y-83368105D01*
X98127916Y-83380214D01*
X98109764Y-83395022D01*
X98088892Y-83412104D01*
X98065816Y-83431038D01*
X98048383Y-83445370D01*
X98034776Y-83456554D01*
X98019972Y-83468705D01*
X98004678Y-83481243D01*
X97989599Y-83493593D01*
X97975441Y-83505175D01*
X97962909Y-83515412D01*
X97952710Y-83523727D01*
X97945548Y-83529542D01*
X97945334Y-83529716D01*
X97935874Y-83537361D01*
X97931349Y-83531475D01*
X97928116Y-83526771D01*
X97926769Y-83523845D01*
X97924897Y-83521528D01*
X97920255Y-83517771D01*
X97917988Y-83516172D01*
X97909262Y-83510243D01*
X97918599Y-83503294D01*
X97925368Y-83498127D01*
X97934901Y-83490673D01*
X97946551Y-83481453D01*
X97959671Y-83470990D01*
X97973615Y-83459804D01*
X97987737Y-83448417D01*
X98001391Y-83437350D01*
X98013930Y-83427125D01*
X98024707Y-83418263D01*
X98033077Y-83411286D01*
X98038393Y-83406714D01*
X98039029Y-83406138D01*
X98047398Y-83398755D01*
X98056540Y-83391167D01*
X98061003Y-83387665D01*
X98065869Y-83383827D01*
X98073838Y-83377377D01*
X98084272Y-83368839D01*
X98096532Y-83358739D01*
X98109979Y-83347601D01*
X98121816Y-83337748D01*
X98171642Y-83296184D01*
X98186076Y-83294804D01*
X98193854Y-83294275D01*
X98199357Y-83294305D01*
G37*
G36*
X98142310Y-82169102D02*
G01*
X98148479Y-82176752D01*
X98153246Y-82182951D01*
X98155904Y-82186768D01*
X98156226Y-82187468D01*
X98153874Y-82187782D01*
X98147178Y-82188043D01*
X98136678Y-82188244D01*
X98122913Y-82188381D01*
X98106421Y-82188448D01*
X98087743Y-82188440D01*
X98067416Y-82188351D01*
X98066497Y-82188345D01*
X98044275Y-82188186D01*
X98022083Y-82187994D01*
X98000766Y-82187780D01*
X97981169Y-82187552D01*
X97964137Y-82187321D01*
X97950514Y-82187096D01*
X97943096Y-82186938D01*
X97909425Y-82186102D01*
X97916914Y-82176646D01*
X97922032Y-82169306D01*
X97926059Y-82162012D01*
X97927019Y-82159688D01*
X97929634Y-82152187D01*
X98029014Y-82152187D01*
X98128394Y-82152187D01*
X98142310Y-82169102D01*
G37*
G36*
X98079284Y-81887056D02*
G01*
X98082304Y-81889121D01*
X98087975Y-81894125D01*
X98095650Y-81901406D01*
X98104682Y-81910299D01*
X98114426Y-81920142D01*
X98124235Y-81930273D01*
X98133463Y-81940027D01*
X98141463Y-81948741D01*
X98147589Y-81955754D01*
X98151195Y-81960400D01*
X98151781Y-81961434D01*
X98153259Y-81965845D01*
X98152755Y-81969564D01*
X98152089Y-81971508D01*
X98147436Y-81977693D01*
X98139303Y-81980898D01*
X98134482Y-81981274D01*
X98131368Y-81981014D01*
X98128155Y-81979947D01*
X98124312Y-81977644D01*
X98119312Y-81973674D01*
X98112625Y-81967608D01*
X98103724Y-81959016D01*
X98092078Y-81947470D01*
X98088558Y-81943953D01*
X98073989Y-81929139D01*
X98063054Y-81917463D01*
X98055697Y-81908864D01*
X98051866Y-81903279D01*
X98051237Y-81901339D01*
X98052587Y-81897346D01*
X98057227Y-81893681D01*
X98062804Y-81890930D01*
X98070420Y-81888197D01*
X98076926Y-81886940D01*
X98079284Y-81887056D01*
G37*
G36*
X98130065Y-83265488D02*
G01*
X98130188Y-83265537D01*
X98136772Y-83267716D01*
X98142186Y-83269098D01*
X98147225Y-83271243D01*
X98148843Y-83275735D01*
X98148881Y-83277202D01*
X98148326Y-83280189D01*
X98146329Y-83283609D01*
X98142366Y-83287995D01*
X98135914Y-83293879D01*
X98126449Y-83301793D01*
X98117750Y-83308825D01*
X98100001Y-83323096D01*
X98079382Y-83339730D01*
X98056801Y-83357991D01*
X98033163Y-83377144D01*
X98009375Y-83396455D01*
X97986343Y-83415188D01*
X97964974Y-83432608D01*
X97947559Y-83446847D01*
X97935961Y-83456300D01*
X97925673Y-83464598D01*
X97917280Y-83471276D01*
X97911367Y-83475870D01*
X97908518Y-83477915D01*
X97908367Y-83477977D01*
X97907812Y-83475730D01*
X97907397Y-83469766D01*
X97907192Y-83461249D01*
X97907182Y-83458772D01*
X97907182Y-83439567D01*
X97932208Y-83419236D01*
X97940643Y-83412400D01*
X97952139Y-83403106D01*
X97965948Y-83391958D01*
X97981325Y-83379557D01*
X97997523Y-83366506D01*
X98013796Y-83353406D01*
X98017054Y-83350785D01*
X98033185Y-83337798D01*
X98049333Y-83324779D01*
X98064764Y-83312321D01*
X98078745Y-83301016D01*
X98090543Y-83291456D01*
X98099425Y-83284233D01*
X98100889Y-83283038D01*
X98111184Y-83274772D01*
X98118534Y-83269311D01*
X98123654Y-83266228D01*
X98127259Y-83265097D01*
X98130065Y-83265488D01*
G37*
G36*
X97845531Y-82712445D02*
G01*
X97850388Y-82713964D01*
X97857804Y-82715921D01*
X97861643Y-82716843D01*
X97870235Y-82719677D01*
X97874777Y-82723439D01*
X97875478Y-82724840D01*
X97875849Y-82728266D01*
X97876150Y-82736082D01*
X97876376Y-82747795D01*
X97876526Y-82762914D01*
X97876596Y-82780946D01*
X97876582Y-82801398D01*
X97876483Y-82823778D01*
X97876294Y-82847593D01*
X97876264Y-82850664D01*
X97876054Y-82874829D01*
X97875916Y-82897787D01*
X97875850Y-82919020D01*
X97875853Y-82938008D01*
X97875926Y-82954235D01*
X97876066Y-82967180D01*
X97876272Y-82976326D01*
X97876544Y-82981153D01*
X97876571Y-82981356D01*
X97877377Y-82985403D01*
X97878848Y-82988948D01*
X97881593Y-82992630D01*
X97886223Y-82997089D01*
X97893345Y-83002961D01*
X97903571Y-83010887D01*
X97907895Y-83014188D01*
X97921540Y-83024658D01*
X97936890Y-83036551D01*
X97952102Y-83048434D01*
X97965330Y-83058871D01*
X97965780Y-83059229D01*
X97983120Y-83072990D01*
X97998641Y-83085240D01*
X98013416Y-83096814D01*
X98028522Y-83108551D01*
X98045033Y-83121289D01*
X98064023Y-83135863D01*
X98070779Y-83141036D01*
X98087683Y-83154018D01*
X98101026Y-83164372D01*
X98111158Y-83172390D01*
X98118434Y-83178363D01*
X98123207Y-83182580D01*
X98125828Y-83185333D01*
X98126652Y-83186914D01*
X98126642Y-83187069D01*
X98125702Y-83190169D01*
X98123697Y-83196007D01*
X98122896Y-83198250D01*
X98120788Y-83206813D01*
X98121618Y-83214049D01*
X98121960Y-83215095D01*
X98123763Y-83221203D01*
X98124485Y-83225433D01*
X98123878Y-83226766D01*
X98121902Y-83229051D01*
X98118323Y-83232480D01*
X98112909Y-83237240D01*
X98105426Y-83243521D01*
X98095640Y-83251512D01*
X98083319Y-83261403D01*
X98068228Y-83273382D01*
X98050135Y-83287638D01*
X98028807Y-83304362D01*
X98004010Y-83323741D01*
X97984092Y-83339278D01*
X97974317Y-83346918D01*
X97961803Y-83356727D01*
X97947644Y-83367845D01*
X97932935Y-83379415D01*
X97918768Y-83390578D01*
X97918643Y-83390676D01*
X97877610Y-83423041D01*
X97878936Y-83447949D01*
X97879365Y-83459873D01*
X97879416Y-83471239D01*
X97879098Y-83480343D01*
X97878780Y-83483680D01*
X97877654Y-83490277D01*
X97875677Y-83493623D01*
X97871380Y-83495114D01*
X97865992Y-83495826D01*
X97857835Y-83497004D01*
X97850902Y-83498377D01*
X97849194Y-83498835D01*
X97843700Y-83500521D01*
X97843700Y-83452801D01*
X97843700Y-83405081D01*
X97878493Y-83377309D01*
X97890530Y-83367725D01*
X97902074Y-83358576D01*
X97912250Y-83350555D01*
X97920181Y-83344351D01*
X97924273Y-83341197D01*
X97931342Y-83335646D01*
X97940440Y-83328247D01*
X97949908Y-83320355D01*
X97952529Y-83318130D01*
X97961062Y-83311030D01*
X97972162Y-83302047D01*
X97984502Y-83292244D01*
X97996753Y-83282683D01*
X97998920Y-83281013D01*
X98011797Y-83271062D01*
X98026840Y-83259358D01*
X98042397Y-83247190D01*
X98056815Y-83235849D01*
X98060345Y-83233059D01*
X98092649Y-83207494D01*
X98082320Y-83198014D01*
X98074351Y-83191032D01*
X98065853Y-83184073D01*
X98062224Y-83181285D01*
X98055586Y-83176196D01*
X98046883Y-83169309D01*
X98037797Y-83161956D01*
X98036131Y-83160588D01*
X98027829Y-83153854D01*
X98017002Y-83145219D01*
X98005000Y-83135754D01*
X97993174Y-83126530D01*
X97992182Y-83125761D01*
X97963118Y-83103242D01*
X97936906Y-83082881D01*
X97913679Y-83064782D01*
X97893571Y-83049051D01*
X97876714Y-83035791D01*
X97863242Y-83025109D01*
X97853287Y-83017108D01*
X97846984Y-83011893D01*
X97844790Y-83009930D01*
X97844046Y-83008605D01*
X97843412Y-83005998D01*
X97842879Y-83001757D01*
X97842438Y-82995531D01*
X97842082Y-82986969D01*
X97841802Y-82975719D01*
X97841590Y-82961431D01*
X97841438Y-82943753D01*
X97841338Y-82922334D01*
X97841281Y-82896822D01*
X97841259Y-82866867D01*
X97841259Y-82858595D01*
X97841265Y-82828031D01*
X97841290Y-82801994D01*
X97841344Y-82780128D01*
X97841439Y-82762077D01*
X97841583Y-82747485D01*
X97841788Y-82735996D01*
X97842065Y-82727255D01*
X97842422Y-82720904D01*
X97842872Y-82716589D01*
X97843424Y-82713952D01*
X97844088Y-82712639D01*
X97844876Y-82712293D01*
X97845531Y-82712445D01*
G37*
G36*
X98101383Y-82097769D02*
G01*
X98109303Y-82107257D01*
X98114481Y-82113690D01*
X98117364Y-82117705D01*
X98118401Y-82119944D01*
X98118041Y-82121045D01*
X98117813Y-82121201D01*
X98114416Y-82121777D01*
X98108052Y-82121942D01*
X98104952Y-82121866D01*
X98099892Y-82121747D01*
X98090617Y-82121611D01*
X98077795Y-82121464D01*
X98062095Y-82121312D01*
X98044184Y-82121163D01*
X98024730Y-82121022D01*
X98011755Y-82120940D01*
X97929544Y-82120446D01*
X97927953Y-82113202D01*
X97925510Y-82106435D01*
X97921470Y-82098821D01*
X97920435Y-82097223D01*
X97916809Y-82091646D01*
X97914713Y-82087970D01*
X97914507Y-82087376D01*
X97916858Y-82087121D01*
X97923550Y-82086888D01*
X97934039Y-82086681D01*
X97947784Y-82086508D01*
X97964242Y-82086377D01*
X97982869Y-82086293D01*
X98003108Y-82086263D01*
X98091710Y-82086263D01*
X98101383Y-82097769D01*
G37*
G36*
X97916297Y-81730164D02*
G01*
X97921458Y-81734683D01*
X97929284Y-81741969D01*
X97939400Y-81751661D01*
X97951429Y-81763398D01*
X97964998Y-81776818D01*
X97979729Y-81791561D01*
X97984983Y-81796858D01*
X98002945Y-81815038D01*
X98017708Y-81830112D01*
X98029533Y-81842423D01*
X98038682Y-81852311D01*
X98045413Y-81860119D01*
X98049987Y-81866189D01*
X98052666Y-81870863D01*
X98053709Y-81874482D01*
X98053376Y-81877388D01*
X98051929Y-81879922D01*
X98049937Y-81882119D01*
X98045038Y-81885108D01*
X98038125Y-81887366D01*
X98037460Y-81887499D01*
X98028724Y-81889138D01*
X97970394Y-81830847D01*
X97912065Y-81772556D01*
X97912065Y-81751316D01*
X97912292Y-81741619D01*
X97912899Y-81733917D01*
X97913774Y-81729413D01*
X97914177Y-81728772D01*
X97916297Y-81730164D01*
G37*
G36*
X97883558Y-81527885D02*
G01*
X97899226Y-81534242D01*
X97912892Y-81543915D01*
X97924070Y-81556392D01*
X97932272Y-81571161D01*
X97937012Y-81587710D01*
X97937803Y-81605527D01*
X97935580Y-81619145D01*
X97929274Y-81634606D01*
X97918930Y-81648686D01*
X97905381Y-81660362D01*
X97898839Y-81664354D01*
X97890588Y-81668538D01*
X97883758Y-81670956D01*
X97876356Y-81672070D01*
X97866386Y-81672343D01*
X97865815Y-81672342D01*
X97864454Y-81672339D01*
X97853656Y-81672045D01*
X97845813Y-81670973D01*
X97839005Y-81668701D01*
X97831972Y-81665166D01*
X97816361Y-81654213D01*
X97804713Y-81640535D01*
X97797605Y-81626249D01*
X97793250Y-81608379D01*
X97793215Y-81597008D01*
X97834405Y-81597008D01*
X97835516Y-81608840D01*
X97840941Y-81618757D01*
X97850550Y-81626370D01*
X97852309Y-81627272D01*
X97859825Y-81630381D01*
X97865815Y-81631094D01*
X97872384Y-81629849D01*
X97883612Y-81624651D01*
X97891331Y-81616422D01*
X97895249Y-81605807D01*
X97895076Y-81593445D01*
X97892695Y-81584942D01*
X97887071Y-81576115D01*
X97878785Y-81570271D01*
X97868961Y-81567438D01*
X97858720Y-81567642D01*
X97849185Y-81570910D01*
X97841477Y-81577267D01*
X97837739Y-81583649D01*
X97834405Y-81597008D01*
X97793215Y-81597008D01*
X97793195Y-81590631D01*
X97797087Y-81573695D01*
X97804570Y-81558267D01*
X97815293Y-81545037D01*
X97828901Y-81534699D01*
X97845041Y-81527946D01*
X97848163Y-81527171D01*
X97866374Y-81525357D01*
X97883558Y-81527885D01*
G37*
G36*
X97885289Y-83514896D02*
G01*
X97900669Y-83521435D01*
X97914107Y-83531444D01*
X97924792Y-83544757D01*
X97927042Y-83548784D01*
X97930593Y-83556392D01*
X97932678Y-83563263D01*
X97933666Y-83571226D01*
X97933924Y-83582112D01*
X97933924Y-83582966D01*
X97933648Y-83594473D01*
X97932611Y-83602901D01*
X97930484Y-83610034D01*
X97927814Y-83615928D01*
X97917687Y-83631217D01*
X97904714Y-83643073D01*
X97889628Y-83651273D01*
X97873166Y-83655597D01*
X97862585Y-83655737D01*
X97856059Y-83655823D01*
X97839043Y-83651730D01*
X97827564Y-83646167D01*
X97812839Y-83634755D01*
X97802184Y-83620760D01*
X97795759Y-83604520D01*
X97793724Y-83586375D01*
X97793785Y-83585574D01*
X97833934Y-83585574D01*
X97834545Y-83592402D01*
X97837011Y-83597916D01*
X97842283Y-83604085D01*
X97843413Y-83605228D01*
X97849964Y-83611078D01*
X97855556Y-83613922D01*
X97862100Y-83614705D01*
X97862585Y-83614707D01*
X97874180Y-83612575D01*
X97883521Y-83606776D01*
X97890093Y-83598206D01*
X97893381Y-83587759D01*
X97892872Y-83576332D01*
X97889646Y-83567576D01*
X97884517Y-83561866D01*
X97876531Y-83557006D01*
X97867707Y-83554078D01*
X97863722Y-83553676D01*
X97851933Y-83555780D01*
X97842724Y-83561776D01*
X97836581Y-83571144D01*
X97833987Y-83583368D01*
X97833934Y-83585574D01*
X97793785Y-83585574D01*
X97794536Y-83575678D01*
X97799288Y-83556516D01*
X97807769Y-83540362D01*
X97819889Y-83527390D01*
X97820612Y-83526809D01*
X97835630Y-83517786D01*
X97851957Y-83512904D01*
X97868781Y-83511997D01*
X97885289Y-83514896D01*
G37*
G36*
X97867736Y-82560474D02*
G01*
X97885617Y-82563972D01*
X97901144Y-82571378D01*
X97913909Y-82582122D01*
X97923504Y-82595633D01*
X97929522Y-82611341D01*
X97931555Y-82628675D01*
X97929307Y-82646611D01*
X97924312Y-82659738D01*
X97916321Y-82672467D01*
X97906327Y-82683664D01*
X97895323Y-82692195D01*
X97885507Y-82696622D01*
X97878254Y-82697938D01*
X97868510Y-82698835D01*
X97860519Y-82699092D01*
X97859059Y-82698904D01*
X97843194Y-82696864D01*
X97827818Y-82690476D01*
X97814850Y-82680419D01*
X97804747Y-82667183D01*
X97797969Y-82651259D01*
X97795180Y-82634381D01*
X97835073Y-82634381D01*
X97838558Y-82644317D01*
X97845731Y-82652826D01*
X97849162Y-82655290D01*
X97859059Y-82659140D01*
X97868624Y-82658831D01*
X97877246Y-82655082D01*
X97884315Y-82648609D01*
X97889221Y-82640131D01*
X97891354Y-82630364D01*
X97890104Y-82620026D01*
X97886203Y-82611742D01*
X97878916Y-82604738D01*
X97869129Y-82600820D01*
X97858535Y-82600565D01*
X97855546Y-82601262D01*
X97845513Y-82606458D01*
X97838674Y-82614407D01*
X97835152Y-82624062D01*
X97835073Y-82634381D01*
X97795180Y-82634381D01*
X97794974Y-82633136D01*
X97794868Y-82628874D01*
X97797129Y-82610942D01*
X97803789Y-82594978D01*
X97814667Y-82581261D01*
X97829582Y-82570069D01*
X97835245Y-82567033D01*
X97844242Y-82562879D01*
X97851213Y-82560701D01*
X97858371Y-82560053D01*
X97867736Y-82560474D01*
G37*
G36*
X97876655Y-82078988D02*
G01*
X97890074Y-82085340D01*
X97901268Y-82095297D01*
X97906139Y-82102217D01*
X97911068Y-82114161D01*
X97913636Y-82128037D01*
X97913636Y-82141832D01*
X97911309Y-82152407D01*
X97903639Y-82166653D01*
X97892934Y-82177700D01*
X97879973Y-82185210D01*
X97865629Y-82188825D01*
X97865531Y-82188850D01*
X97850387Y-82188283D01*
X97837542Y-82184242D01*
X97824285Y-82175833D01*
X97814395Y-82164708D01*
X97807916Y-82151678D01*
X97804889Y-82137556D01*
X97805023Y-82133441D01*
X97839045Y-82133441D01*
X97841593Y-82142065D01*
X97847192Y-82149124D01*
X97855440Y-82153299D01*
X97855883Y-82153402D01*
X97865629Y-82153843D01*
X97873188Y-82150073D01*
X97878042Y-82144033D01*
X97881391Y-82138183D01*
X97882444Y-82134023D01*
X97881347Y-82129276D01*
X97879307Y-82124220D01*
X97873461Y-82114982D01*
X97865876Y-82110021D01*
X97857286Y-82109496D01*
X97848427Y-82113564D01*
X97844711Y-82116772D01*
X97839950Y-82124570D01*
X97839045Y-82133441D01*
X97805023Y-82133441D01*
X97805358Y-82123153D01*
X97809367Y-82109281D01*
X97816957Y-82096752D01*
X97828174Y-82086379D01*
X97832214Y-82083831D01*
X97846809Y-82078005D01*
X97861928Y-82076467D01*
X97876655Y-82078988D01*
G37*
G36*
X97857080Y-82256905D02*
G01*
X97865184Y-82257449D01*
X97871243Y-82258164D01*
X97873561Y-82258744D01*
X97873905Y-82261330D01*
X97874229Y-82268364D01*
X97874527Y-82279410D01*
X97874793Y-82294030D01*
X97875021Y-82311790D01*
X97875205Y-82332254D01*
X97875341Y-82354984D01*
X97875421Y-82379547D01*
X97875441Y-82400230D01*
X97875420Y-82431220D01*
X97875352Y-82457636D01*
X97875230Y-82479789D01*
X97875048Y-82497989D01*
X97874799Y-82512545D01*
X97874476Y-82523767D01*
X97874073Y-82531964D01*
X97873583Y-82537448D01*
X97872999Y-82540527D01*
X97872389Y-82541498D01*
X97868115Y-82542380D01*
X97861355Y-82543380D01*
X97859571Y-82543602D01*
X97852367Y-82544562D01*
X97846893Y-82545472D01*
X97846142Y-82545634D01*
X97845372Y-82545375D01*
X97844716Y-82543968D01*
X97844166Y-82541063D01*
X97843711Y-82536310D01*
X97843345Y-82529357D01*
X97843057Y-82519854D01*
X97842839Y-82507450D01*
X97842681Y-82491794D01*
X97842575Y-82472537D01*
X97842513Y-82449326D01*
X97842484Y-82421812D01*
X97842479Y-82401367D01*
X97842479Y-82256229D01*
X97857080Y-82256905D01*
G37*
%TO.C,R1*%
D13*
X52864000Y-90197000D02*
X59404000Y-90197000D01*
X52864000Y-90527000D02*
X52864000Y-90197000D01*
X52864000Y-92607000D02*
X52864000Y-92937000D01*
X52864000Y-92937000D02*
X59404000Y-92937000D01*
X59404000Y-90197000D02*
X59404000Y-90527000D01*
X59404000Y-92937000D02*
X59404000Y-92607000D01*
%TO.C,U3*%
X60225000Y-60661000D02*
X60225000Y-81101000D01*
X60225000Y-81101000D02*
X65525000Y-81101000D01*
X61875000Y-60661000D02*
X60225000Y-60661000D01*
X65525000Y-60661000D02*
X63875000Y-60661000D01*
X65525000Y-81101000D02*
X65525000Y-60661000D01*
X63875000Y-60661000D02*
G75*
G02*
X61875000Y-60661000I-1000000J0D01*
G01*
%TO.C,U1*%
X30542000Y-39509000D02*
X30542000Y-90549000D01*
X30542000Y-90549000D02*
X48442000Y-90549000D01*
X33032000Y-39569000D02*
X33032000Y-90489000D01*
X33032000Y-90489000D02*
X45952000Y-90489000D01*
X38492000Y-39569000D02*
X33032000Y-39569000D01*
X45952000Y-39569000D02*
X40492000Y-39569000D01*
X45952000Y-90489000D02*
X45952000Y-39569000D01*
X48442000Y-39509000D02*
X30542000Y-39509000D01*
X48442000Y-90549000D02*
X48442000Y-39509000D01*
X40492000Y-39569000D02*
G75*
G02*
X38492000Y-39569000I-1000000J0D01*
G01*
%TO.C,U2*%
X60225000Y-39569000D02*
X60225000Y-60009000D01*
X60225000Y-60009000D02*
X65525000Y-60009000D01*
X61875000Y-39569000D02*
X60225000Y-39569000D01*
X65525000Y-39569000D02*
X63875000Y-39569000D01*
X65525000Y-60009000D02*
X65525000Y-39569000D01*
X63875000Y-39569000D02*
G75*
G02*
X61875000Y-39569000I-1000000J0D01*
G01*
%TO.C,SW1*%
X63810000Y-88531000D02*
X63810000Y-90031000D01*
X65060000Y-92531000D02*
X69560000Y-92531000D01*
X69560000Y-86031000D02*
X65060000Y-86031000D01*
X70810000Y-90031000D02*
X70810000Y-88531000D01*
%TO.C,U4*%
X76114000Y-39579000D02*
X76114000Y-90579000D01*
X76114000Y-90579000D02*
X97114000Y-90579000D01*
X97114000Y-39579000D02*
X76114000Y-39579000D01*
X97114000Y-90579000D02*
X97114000Y-39579000D01*
D14*
X79659000Y-40949000D02*
G75*
G02*
X79345000Y-40949000I-157000J0D01*
G01*
X79345000Y-40949000D02*
G75*
G02*
X79659000Y-40949000I157000J0D01*
G01*
%TD*%
M02*
