G04 #@! TF.GenerationSoftware,KiCad,Pcbnew,10.0.3*
G04 #@! TF.CreationDate,2026-06-12T20:24:29+05:30*
G04 #@! TF.ProjectId,AirLink STM8,4169724c-696e-46b2-9053-544d382e6b69,rev?*
G04 #@! TF.SameCoordinates,Original*
G04 #@! TF.FileFunction,Legend,Bot*
G04 #@! TF.FilePolarity,Positive*
%FSLAX46Y46*%
G04 Gerber Fmt 4.6, Leading zero omitted, Abs format (unit mm)*
G04 Created by KiCad (PCBNEW 10.0.3) date 2026-06-12 20:24:29*
%MOMM*%
%LPD*%
G01*
G04 APERTURE LIST*
%ADD10C,0.300000*%
%ADD11C,0.150000*%
%ADD12C,0.000000*%
%ADD13C,0.120000*%
G04 APERTURE END LIST*
D10*
X150499171Y-94093989D02*
X151999171Y-94093989D01*
X151999171Y-94093989D02*
X151999171Y-93736846D01*
X151999171Y-93736846D02*
X151927742Y-93522560D01*
X151927742Y-93522560D02*
X151784885Y-93379703D01*
X151784885Y-93379703D02*
X151642028Y-93308274D01*
X151642028Y-93308274D02*
X151356314Y-93236846D01*
X151356314Y-93236846D02*
X151142028Y-93236846D01*
X151142028Y-93236846D02*
X150856314Y-93308274D01*
X150856314Y-93308274D02*
X150713457Y-93379703D01*
X150713457Y-93379703D02*
X150570600Y-93522560D01*
X150570600Y-93522560D02*
X150499171Y-93736846D01*
X150499171Y-93736846D02*
X150499171Y-94093989D01*
X151284885Y-92593989D02*
X151284885Y-92093989D01*
X150499171Y-91879703D02*
X150499171Y-92593989D01*
X150499171Y-92593989D02*
X151999171Y-92593989D01*
X151999171Y-92593989D02*
X151999171Y-91879703D01*
X150570600Y-91308274D02*
X150499171Y-91093989D01*
X150499171Y-91093989D02*
X150499171Y-90736846D01*
X150499171Y-90736846D02*
X150570600Y-90593989D01*
X150570600Y-90593989D02*
X150642028Y-90522560D01*
X150642028Y-90522560D02*
X150784885Y-90451131D01*
X150784885Y-90451131D02*
X150927742Y-90451131D01*
X150927742Y-90451131D02*
X151070600Y-90522560D01*
X151070600Y-90522560D02*
X151142028Y-90593989D01*
X151142028Y-90593989D02*
X151213457Y-90736846D01*
X151213457Y-90736846D02*
X151284885Y-91022560D01*
X151284885Y-91022560D02*
X151356314Y-91165417D01*
X151356314Y-91165417D02*
X151427742Y-91236846D01*
X151427742Y-91236846D02*
X151570600Y-91308274D01*
X151570600Y-91308274D02*
X151713457Y-91308274D01*
X151713457Y-91308274D02*
X151856314Y-91236846D01*
X151856314Y-91236846D02*
X151927742Y-91165417D01*
X151927742Y-91165417D02*
X151999171Y-91022560D01*
X151999171Y-91022560D02*
X151999171Y-90665417D01*
X151999171Y-90665417D02*
X151927742Y-90451131D01*
X150499171Y-89808275D02*
X151999171Y-89808275D01*
X150499171Y-89093989D02*
X151999171Y-89093989D01*
X151999171Y-89093989D02*
X150499171Y-88236846D01*
X150499171Y-88236846D02*
X151999171Y-88236846D01*
X151927742Y-86736845D02*
X151999171Y-86879703D01*
X151999171Y-86879703D02*
X151999171Y-87093988D01*
X151999171Y-87093988D02*
X151927742Y-87308274D01*
X151927742Y-87308274D02*
X151784885Y-87451131D01*
X151784885Y-87451131D02*
X151642028Y-87522560D01*
X151642028Y-87522560D02*
X151356314Y-87593988D01*
X151356314Y-87593988D02*
X151142028Y-87593988D01*
X151142028Y-87593988D02*
X150856314Y-87522560D01*
X150856314Y-87522560D02*
X150713457Y-87451131D01*
X150713457Y-87451131D02*
X150570600Y-87308274D01*
X150570600Y-87308274D02*
X150499171Y-87093988D01*
X150499171Y-87093988D02*
X150499171Y-86951131D01*
X150499171Y-86951131D02*
X150570600Y-86736845D01*
X150570600Y-86736845D02*
X150642028Y-86665417D01*
X150642028Y-86665417D02*
X151142028Y-86665417D01*
X151142028Y-86665417D02*
X151142028Y-86951131D01*
X151284885Y-86022560D02*
X151284885Y-85522560D01*
X150499171Y-85308274D02*
X150499171Y-86022560D01*
X150499171Y-86022560D02*
X151999171Y-86022560D01*
X151999171Y-86022560D02*
X151999171Y-85308274D01*
X150499171Y-84665417D02*
X151999171Y-84665417D01*
X151999171Y-84665417D02*
X151999171Y-84308274D01*
X151999171Y-84308274D02*
X151927742Y-84093988D01*
X151927742Y-84093988D02*
X151784885Y-83951131D01*
X151784885Y-83951131D02*
X151642028Y-83879702D01*
X151642028Y-83879702D02*
X151356314Y-83808274D01*
X151356314Y-83808274D02*
X151142028Y-83808274D01*
X151142028Y-83808274D02*
X150856314Y-83879702D01*
X150856314Y-83879702D02*
X150713457Y-83951131D01*
X150713457Y-83951131D02*
X150570600Y-84093988D01*
X150570600Y-84093988D02*
X150499171Y-84308274D01*
X150499171Y-84308274D02*
X150499171Y-84665417D01*
X151284885Y-81522560D02*
X151213457Y-81308274D01*
X151213457Y-81308274D02*
X151142028Y-81236845D01*
X151142028Y-81236845D02*
X150999171Y-81165417D01*
X150999171Y-81165417D02*
X150784885Y-81165417D01*
X150784885Y-81165417D02*
X150642028Y-81236845D01*
X150642028Y-81236845D02*
X150570600Y-81308274D01*
X150570600Y-81308274D02*
X150499171Y-81451131D01*
X150499171Y-81451131D02*
X150499171Y-82022560D01*
X150499171Y-82022560D02*
X151999171Y-82022560D01*
X151999171Y-82022560D02*
X151999171Y-81522560D01*
X151999171Y-81522560D02*
X151927742Y-81379703D01*
X151927742Y-81379703D02*
X151856314Y-81308274D01*
X151856314Y-81308274D02*
X151713457Y-81236845D01*
X151713457Y-81236845D02*
X151570600Y-81236845D01*
X151570600Y-81236845D02*
X151427742Y-81308274D01*
X151427742Y-81308274D02*
X151356314Y-81379703D01*
X151356314Y-81379703D02*
X151284885Y-81522560D01*
X151284885Y-81522560D02*
X151284885Y-82022560D01*
X151213457Y-80236845D02*
X150499171Y-80236845D01*
X151999171Y-80736845D02*
X151213457Y-80236845D01*
X151213457Y-80236845D02*
X151999171Y-79736845D01*
D11*
X143609580Y-86633333D02*
X143657200Y-86585714D01*
X143657200Y-86585714D02*
X143704819Y-86442857D01*
X143704819Y-86442857D02*
X143704819Y-86347619D01*
X143704819Y-86347619D02*
X143657200Y-86204762D01*
X143657200Y-86204762D02*
X143561961Y-86109524D01*
X143561961Y-86109524D02*
X143466723Y-86061905D01*
X143466723Y-86061905D02*
X143276247Y-86014286D01*
X143276247Y-86014286D02*
X143133390Y-86014286D01*
X143133390Y-86014286D02*
X142942914Y-86061905D01*
X142942914Y-86061905D02*
X142847676Y-86109524D01*
X142847676Y-86109524D02*
X142752438Y-86204762D01*
X142752438Y-86204762D02*
X142704819Y-86347619D01*
X142704819Y-86347619D02*
X142704819Y-86442857D01*
X142704819Y-86442857D02*
X142752438Y-86585714D01*
X142752438Y-86585714D02*
X142800057Y-86633333D01*
X142704819Y-87538095D02*
X142704819Y-87061905D01*
X142704819Y-87061905D02*
X143181009Y-87014286D01*
X143181009Y-87014286D02*
X143133390Y-87061905D01*
X143133390Y-87061905D02*
X143085771Y-87157143D01*
X143085771Y-87157143D02*
X143085771Y-87395238D01*
X143085771Y-87395238D02*
X143133390Y-87490476D01*
X143133390Y-87490476D02*
X143181009Y-87538095D01*
X143181009Y-87538095D02*
X143276247Y-87585714D01*
X143276247Y-87585714D02*
X143514342Y-87585714D01*
X143514342Y-87585714D02*
X143609580Y-87538095D01*
X143609580Y-87538095D02*
X143657200Y-87490476D01*
X143657200Y-87490476D02*
X143704819Y-87395238D01*
X143704819Y-87395238D02*
X143704819Y-87157143D01*
X143704819Y-87157143D02*
X143657200Y-87061905D01*
X143657200Y-87061905D02*
X143609580Y-87014286D01*
X148509580Y-87983333D02*
X148557200Y-87935714D01*
X148557200Y-87935714D02*
X148604819Y-87792857D01*
X148604819Y-87792857D02*
X148604819Y-87697619D01*
X148604819Y-87697619D02*
X148557200Y-87554762D01*
X148557200Y-87554762D02*
X148461961Y-87459524D01*
X148461961Y-87459524D02*
X148366723Y-87411905D01*
X148366723Y-87411905D02*
X148176247Y-87364286D01*
X148176247Y-87364286D02*
X148033390Y-87364286D01*
X148033390Y-87364286D02*
X147842914Y-87411905D01*
X147842914Y-87411905D02*
X147747676Y-87459524D01*
X147747676Y-87459524D02*
X147652438Y-87554762D01*
X147652438Y-87554762D02*
X147604819Y-87697619D01*
X147604819Y-87697619D02*
X147604819Y-87792857D01*
X147604819Y-87792857D02*
X147652438Y-87935714D01*
X147652438Y-87935714D02*
X147700057Y-87983333D01*
X147604819Y-88840476D02*
X147604819Y-88650000D01*
X147604819Y-88650000D02*
X147652438Y-88554762D01*
X147652438Y-88554762D02*
X147700057Y-88507143D01*
X147700057Y-88507143D02*
X147842914Y-88411905D01*
X147842914Y-88411905D02*
X148033390Y-88364286D01*
X148033390Y-88364286D02*
X148414342Y-88364286D01*
X148414342Y-88364286D02*
X148509580Y-88411905D01*
X148509580Y-88411905D02*
X148557200Y-88459524D01*
X148557200Y-88459524D02*
X148604819Y-88554762D01*
X148604819Y-88554762D02*
X148604819Y-88745238D01*
X148604819Y-88745238D02*
X148557200Y-88840476D01*
X148557200Y-88840476D02*
X148509580Y-88888095D01*
X148509580Y-88888095D02*
X148414342Y-88935714D01*
X148414342Y-88935714D02*
X148176247Y-88935714D01*
X148176247Y-88935714D02*
X148081009Y-88888095D01*
X148081009Y-88888095D02*
X148033390Y-88840476D01*
X148033390Y-88840476D02*
X147985771Y-88745238D01*
X147985771Y-88745238D02*
X147985771Y-88554762D01*
X147985771Y-88554762D02*
X148033390Y-88459524D01*
X148033390Y-88459524D02*
X148081009Y-88411905D01*
X148081009Y-88411905D02*
X148176247Y-88364286D01*
X139049580Y-98213333D02*
X139097200Y-98165714D01*
X139097200Y-98165714D02*
X139144819Y-98022857D01*
X139144819Y-98022857D02*
X139144819Y-97927619D01*
X139144819Y-97927619D02*
X139097200Y-97784762D01*
X139097200Y-97784762D02*
X139001961Y-97689524D01*
X139001961Y-97689524D02*
X138906723Y-97641905D01*
X138906723Y-97641905D02*
X138716247Y-97594286D01*
X138716247Y-97594286D02*
X138573390Y-97594286D01*
X138573390Y-97594286D02*
X138382914Y-97641905D01*
X138382914Y-97641905D02*
X138287676Y-97689524D01*
X138287676Y-97689524D02*
X138192438Y-97784762D01*
X138192438Y-97784762D02*
X138144819Y-97927619D01*
X138144819Y-97927619D02*
X138144819Y-98022857D01*
X138144819Y-98022857D02*
X138192438Y-98165714D01*
X138192438Y-98165714D02*
X138240057Y-98213333D01*
X139144819Y-99165714D02*
X139144819Y-98594286D01*
X139144819Y-98880000D02*
X138144819Y-98880000D01*
X138144819Y-98880000D02*
X138287676Y-98784762D01*
X138287676Y-98784762D02*
X138382914Y-98689524D01*
X138382914Y-98689524D02*
X138430533Y-98594286D01*
X143391666Y-79284580D02*
X143439285Y-79332200D01*
X143439285Y-79332200D02*
X143582142Y-79379819D01*
X143582142Y-79379819D02*
X143677380Y-79379819D01*
X143677380Y-79379819D02*
X143820237Y-79332200D01*
X143820237Y-79332200D02*
X143915475Y-79236961D01*
X143915475Y-79236961D02*
X143963094Y-79141723D01*
X143963094Y-79141723D02*
X144010713Y-78951247D01*
X144010713Y-78951247D02*
X144010713Y-78808390D01*
X144010713Y-78808390D02*
X143963094Y-78617914D01*
X143963094Y-78617914D02*
X143915475Y-78522676D01*
X143915475Y-78522676D02*
X143820237Y-78427438D01*
X143820237Y-78427438D02*
X143677380Y-78379819D01*
X143677380Y-78379819D02*
X143582142Y-78379819D01*
X143582142Y-78379819D02*
X143439285Y-78427438D01*
X143439285Y-78427438D02*
X143391666Y-78475057D01*
X143010713Y-78475057D02*
X142963094Y-78427438D01*
X142963094Y-78427438D02*
X142867856Y-78379819D01*
X142867856Y-78379819D02*
X142629761Y-78379819D01*
X142629761Y-78379819D02*
X142534523Y-78427438D01*
X142534523Y-78427438D02*
X142486904Y-78475057D01*
X142486904Y-78475057D02*
X142439285Y-78570295D01*
X142439285Y-78570295D02*
X142439285Y-78665533D01*
X142439285Y-78665533D02*
X142486904Y-78808390D01*
X142486904Y-78808390D02*
X143058332Y-79379819D01*
X143058332Y-79379819D02*
X142439285Y-79379819D01*
X143391666Y-74034580D02*
X143439285Y-74082200D01*
X143439285Y-74082200D02*
X143582142Y-74129819D01*
X143582142Y-74129819D02*
X143677380Y-74129819D01*
X143677380Y-74129819D02*
X143820237Y-74082200D01*
X143820237Y-74082200D02*
X143915475Y-73986961D01*
X143915475Y-73986961D02*
X143963094Y-73891723D01*
X143963094Y-73891723D02*
X144010713Y-73701247D01*
X144010713Y-73701247D02*
X144010713Y-73558390D01*
X144010713Y-73558390D02*
X143963094Y-73367914D01*
X143963094Y-73367914D02*
X143915475Y-73272676D01*
X143915475Y-73272676D02*
X143820237Y-73177438D01*
X143820237Y-73177438D02*
X143677380Y-73129819D01*
X143677380Y-73129819D02*
X143582142Y-73129819D01*
X143582142Y-73129819D02*
X143439285Y-73177438D01*
X143439285Y-73177438D02*
X143391666Y-73225057D01*
X143058332Y-73129819D02*
X142439285Y-73129819D01*
X142439285Y-73129819D02*
X142772618Y-73510771D01*
X142772618Y-73510771D02*
X142629761Y-73510771D01*
X142629761Y-73510771D02*
X142534523Y-73558390D01*
X142534523Y-73558390D02*
X142486904Y-73606009D01*
X142486904Y-73606009D02*
X142439285Y-73701247D01*
X142439285Y-73701247D02*
X142439285Y-73939342D01*
X142439285Y-73939342D02*
X142486904Y-74034580D01*
X142486904Y-74034580D02*
X142534523Y-74082200D01*
X142534523Y-74082200D02*
X142629761Y-74129819D01*
X142629761Y-74129819D02*
X142915475Y-74129819D01*
X142915475Y-74129819D02*
X143010713Y-74082200D01*
X143010713Y-74082200D02*
X143058332Y-74034580D01*
D12*
G36*
X151228019Y-74048336D02*
G01*
X151257959Y-74062058D01*
X151262547Y-74066299D01*
X151271569Y-74084720D01*
X151276458Y-74115580D01*
X151277473Y-74130095D01*
X151276849Y-74150645D01*
X151271292Y-74164907D01*
X151259134Y-74178981D01*
X151244961Y-74191044D01*
X151228021Y-74197200D01*
X151203523Y-74197069D01*
X151192620Y-74196291D01*
X151176554Y-74196716D01*
X151169968Y-74201905D01*
X151168644Y-74213894D01*
X151167075Y-74228273D01*
X151161458Y-74244649D01*
X151155063Y-74251774D01*
X151138953Y-74268605D01*
X151114529Y-74293716D01*
X151083174Y-74325714D01*
X151046269Y-74363206D01*
X151005195Y-74404797D01*
X150961334Y-74449095D01*
X150916068Y-74494705D01*
X150870777Y-74540234D01*
X150826844Y-74584288D01*
X150785649Y-74625474D01*
X150748576Y-74662399D01*
X150717004Y-74693667D01*
X150692316Y-74717887D01*
X150660206Y-74749139D01*
X150491142Y-74753046D01*
X150322077Y-74756952D01*
X150278954Y-74807736D01*
X150235830Y-74858521D01*
X150401497Y-74860629D01*
X150419184Y-74860887D01*
X150466392Y-74861914D01*
X150507053Y-74863290D01*
X150538896Y-74864909D01*
X150559652Y-74866662D01*
X150567052Y-74868442D01*
X150566038Y-74870818D01*
X150557468Y-74883316D01*
X150542065Y-74903287D01*
X150522127Y-74927697D01*
X150477315Y-74981248D01*
X150240664Y-74985059D01*
X150218826Y-74985390D01*
X150160571Y-74986066D01*
X150107779Y-74986384D01*
X150062481Y-74986351D01*
X150026709Y-74985973D01*
X150002495Y-74985257D01*
X149991872Y-74984211D01*
X149991740Y-74984160D01*
X149985907Y-74979224D01*
X149988951Y-74969901D01*
X150001947Y-74952849D01*
X150013685Y-74938796D01*
X150033623Y-74914993D01*
X150059592Y-74884027D01*
X150089559Y-74848321D01*
X150121494Y-74810297D01*
X150153114Y-74772613D01*
X150182518Y-74737476D01*
X150207720Y-74707269D01*
X150226766Y-74684333D01*
X150237703Y-74671009D01*
X150239430Y-74668874D01*
X150250479Y-74656183D01*
X150261775Y-74646523D01*
X150275517Y-74639471D01*
X150293899Y-74634599D01*
X150319120Y-74631484D01*
X150353377Y-74629701D01*
X150398865Y-74628824D01*
X150457783Y-74628428D01*
X150625762Y-74627676D01*
X150855742Y-74396607D01*
X150864068Y-74388241D01*
X150918996Y-74333092D01*
X150964160Y-74287918D01*
X151000665Y-74251748D01*
X151029617Y-74223611D01*
X151052121Y-74202536D01*
X151069281Y-74187551D01*
X151082203Y-74177686D01*
X151091992Y-74171969D01*
X151099752Y-74169429D01*
X151106590Y-74169096D01*
X151113609Y-74169998D01*
X151141497Y-74174458D01*
X151138649Y-74138645D01*
X151138287Y-74131729D01*
X151140079Y-74104305D01*
X151146146Y-74083501D01*
X151147303Y-74081425D01*
X151168489Y-74058825D01*
X151196795Y-74047527D01*
X151228019Y-74048336D01*
G37*
G36*
X150380071Y-72566736D02*
G01*
X150428505Y-72582729D01*
X150457414Y-72598448D01*
X150507906Y-72636882D01*
X150551845Y-72684305D01*
X150584871Y-72736433D01*
X150589117Y-72745131D01*
X150598912Y-72766965D01*
X150605059Y-72786200D01*
X150608388Y-72807390D01*
X150609730Y-72835091D01*
X150609913Y-72873859D01*
X150609816Y-72889312D01*
X150608653Y-72927598D01*
X150605677Y-72956534D01*
X150600234Y-72980822D01*
X150591672Y-73005161D01*
X150568009Y-73049791D01*
X150530669Y-73096815D01*
X150485194Y-73137837D01*
X150435451Y-73168806D01*
X150412520Y-73179486D01*
X150391124Y-73187350D01*
X150369502Y-73191757D01*
X150342521Y-73193705D01*
X150305052Y-73194194D01*
X150301151Y-73194200D01*
X150298358Y-73194204D01*
X150263558Y-73193799D01*
X150238292Y-73191788D01*
X150217299Y-73187058D01*
X150195318Y-73178495D01*
X150167090Y-73164986D01*
X150139025Y-73149759D01*
X150082387Y-73107794D01*
X150038283Y-73056642D01*
X150006342Y-72995811D01*
X149986192Y-72924808D01*
X149984259Y-72902988D01*
X149984921Y-72879380D01*
X150155628Y-72879380D01*
X150160640Y-72911642D01*
X150167699Y-72935011D01*
X150189774Y-72970782D01*
X150221552Y-72999023D01*
X150259766Y-73017802D01*
X150301151Y-73025186D01*
X150342442Y-73019241D01*
X150367596Y-73005808D01*
X150394986Y-72983008D01*
X150418815Y-72956103D01*
X150433879Y-72930159D01*
X150441883Y-72889600D01*
X150438180Y-72844216D01*
X150422918Y-72800380D01*
X150420125Y-72795162D01*
X150393194Y-72761963D01*
X150357917Y-72740009D01*
X150317259Y-72730089D01*
X150274187Y-72732992D01*
X150231664Y-72749507D01*
X150203445Y-72768358D01*
X150180241Y-72793458D01*
X150163437Y-72826867D01*
X150160997Y-72833505D01*
X150155676Y-72855494D01*
X150155628Y-72879380D01*
X149984921Y-72879380D01*
X149985263Y-72867175D01*
X149989401Y-72827278D01*
X149996007Y-72789341D01*
X150004415Y-72759408D01*
X150016635Y-72732030D01*
X150052330Y-72677822D01*
X150099053Y-72630706D01*
X150153911Y-72593319D01*
X150214007Y-72568303D01*
X150214883Y-72568051D01*
X150267030Y-72558978D01*
X150324169Y-72558679D01*
X150380071Y-72566736D01*
G37*
G36*
X150494062Y-74409299D02*
G01*
X150558140Y-74409654D01*
X150613799Y-74410398D01*
X150659598Y-74411489D01*
X150694096Y-74412888D01*
X150715852Y-74414552D01*
X150723424Y-74416442D01*
X150722629Y-74418710D01*
X150714357Y-74431257D01*
X150699011Y-74451080D01*
X150678971Y-74475039D01*
X150634518Y-74526469D01*
X150457763Y-74526469D01*
X150281008Y-74526469D01*
X150261158Y-74547955D01*
X150253658Y-74556542D01*
X150236598Y-74577343D01*
X150214999Y-74604555D01*
X150191248Y-74635077D01*
X150167728Y-74665810D01*
X150146827Y-74693652D01*
X150130929Y-74715504D01*
X150122420Y-74728265D01*
X150120870Y-74730770D01*
X150115171Y-74735396D01*
X150104808Y-74736307D01*
X150086299Y-74733416D01*
X150056159Y-74726638D01*
X150049108Y-74724925D01*
X150022508Y-74717424D01*
X150003852Y-74710489D01*
X149996817Y-74705434D01*
X149996975Y-74704320D01*
X150003188Y-74692788D01*
X150015645Y-74676801D01*
X150021531Y-74669657D01*
X150037105Y-74649532D01*
X150058487Y-74621070D01*
X150083659Y-74586964D01*
X150110607Y-74549908D01*
X150127933Y-74526013D01*
X150153472Y-74491182D01*
X150175701Y-74461326D01*
X150192693Y-74439024D01*
X150202523Y-74426854D01*
X150206332Y-74422789D01*
X150211442Y-74418774D01*
X150218688Y-74415646D01*
X150229756Y-74413293D01*
X150246333Y-74411605D01*
X150270105Y-74410471D01*
X150302758Y-74409782D01*
X150345977Y-74409426D01*
X150401451Y-74409294D01*
X150470864Y-74409274D01*
X150494062Y-74409299D01*
G37*
G36*
X150179872Y-78874893D02*
G01*
X150221337Y-78893204D01*
X150256240Y-78925686D01*
X150264094Y-78936854D01*
X150279764Y-78974662D01*
X150284416Y-79016361D01*
X150278459Y-79057853D01*
X150262307Y-79095039D01*
X150236368Y-79123822D01*
X150233054Y-79126213D01*
X150208775Y-79139644D01*
X150180785Y-79150380D01*
X150155935Y-79156294D01*
X150154749Y-79156576D01*
X150136334Y-79156389D01*
X150124504Y-79153151D01*
X150104847Y-79148502D01*
X150093872Y-79145023D01*
X150065280Y-79127605D01*
X150038869Y-79101182D01*
X150019316Y-79070041D01*
X150010028Y-79044569D01*
X150006668Y-79010392D01*
X150091687Y-79010392D01*
X150096569Y-79035882D01*
X150116906Y-79059777D01*
X150135322Y-79070821D01*
X150155935Y-79071059D01*
X150179368Y-79057431D01*
X150195282Y-79036901D01*
X150200228Y-79011500D01*
X150194605Y-78986246D01*
X150179449Y-78965667D01*
X150155794Y-78954290D01*
X150149536Y-78953459D01*
X150131706Y-78957123D01*
X150112597Y-78972267D01*
X150102311Y-78984338D01*
X150091687Y-79010392D01*
X150006668Y-79010392D01*
X150005798Y-79001544D01*
X150016722Y-78958238D01*
X150030705Y-78931033D01*
X150060094Y-78897477D01*
X150097560Y-78877256D01*
X150142922Y-78870499D01*
X150179872Y-78874893D01*
G37*
G36*
X150202373Y-75910049D02*
G01*
X150228682Y-75921821D01*
X150231115Y-75923666D01*
X150260795Y-75955313D01*
X150278741Y-75992935D01*
X150285543Y-76033728D01*
X150281789Y-76074891D01*
X150268068Y-76113619D01*
X150244967Y-76147111D01*
X150213074Y-76172564D01*
X150172980Y-76187173D01*
X150154780Y-76188858D01*
X150141681Y-76186860D01*
X150115221Y-76182824D01*
X150077085Y-76165902D01*
X150044961Y-76140489D01*
X150023432Y-76108985D01*
X150014184Y-76077639D01*
X150012954Y-76043905D01*
X150092347Y-76043905D01*
X150099606Y-76070508D01*
X150121257Y-76094677D01*
X150141681Y-76104140D01*
X150164396Y-76102448D01*
X150184329Y-76090376D01*
X150198724Y-76070592D01*
X150204825Y-76045765D01*
X150199877Y-76018561D01*
X150193435Y-76006725D01*
X150173730Y-75989650D01*
X150149471Y-75984694D01*
X150124606Y-75992118D01*
X150103080Y-76012181D01*
X150099963Y-76017057D01*
X150092347Y-76043905D01*
X150012954Y-76043905D01*
X150012587Y-76033826D01*
X150021879Y-75990698D01*
X150041005Y-75952556D01*
X150068910Y-75923697D01*
X150094364Y-75911902D01*
X150129544Y-75905156D01*
X150167437Y-75904516D01*
X150202373Y-75910049D01*
G37*
G36*
X150176423Y-77314513D02*
G01*
X150208006Y-77331739D01*
X150232027Y-77358280D01*
X150246622Y-77391503D01*
X150249929Y-77428775D01*
X150240087Y-77467462D01*
X150221721Y-77497595D01*
X150193177Y-77521889D01*
X150159816Y-77533278D01*
X150124189Y-77531489D01*
X150088848Y-77516244D01*
X150056345Y-77487270D01*
X150044100Y-77469696D01*
X150037582Y-77449206D01*
X150035882Y-77420276D01*
X150036108Y-77405756D01*
X150039057Y-77383974D01*
X150047778Y-77366582D01*
X150065203Y-77346168D01*
X150081762Y-77330055D01*
X150103307Y-77316476D01*
X150128819Y-77310134D01*
X150139138Y-77309235D01*
X150176423Y-77314513D01*
G37*
G36*
X150220568Y-73252594D02*
G01*
X150250792Y-73265702D01*
X150295705Y-73286264D01*
X150290364Y-73365988D01*
X150285024Y-73445713D01*
X150580083Y-73738029D01*
X150602681Y-73760421D01*
X150658783Y-73816044D01*
X150711721Y-73868575D01*
X150760359Y-73916885D01*
X150803564Y-73959847D01*
X150840201Y-73996331D01*
X150869135Y-74025209D01*
X150889231Y-74045352D01*
X150899357Y-74055631D01*
X150902725Y-74059160D01*
X150912827Y-74070764D01*
X150918775Y-74081980D01*
X150921423Y-74096808D01*
X150921628Y-74119246D01*
X150920244Y-74153294D01*
X150919386Y-74170548D01*
X150917623Y-74199408D01*
X150915925Y-74219854D01*
X150914564Y-74228287D01*
X150909927Y-74225108D01*
X150895294Y-74211962D01*
X150871779Y-74189710D01*
X150840484Y-74159461D01*
X150802513Y-74122322D01*
X150758968Y-74079402D01*
X150710954Y-74031808D01*
X150659572Y-73980651D01*
X150605926Y-73927037D01*
X150551120Y-73872075D01*
X150496256Y-73816874D01*
X150442437Y-73762541D01*
X150390767Y-73710186D01*
X150342348Y-73660915D01*
X150298284Y-73615839D01*
X150259677Y-73576064D01*
X150227632Y-73542700D01*
X150203250Y-73516854D01*
X150187636Y-73499635D01*
X150181892Y-73492152D01*
X150180229Y-73476493D01*
X150178929Y-73449043D01*
X150178108Y-73414161D01*
X150177773Y-73375688D01*
X150177931Y-73337466D01*
X150178590Y-73303336D01*
X150179757Y-73277140D01*
X150181440Y-73262720D01*
X150183546Y-73256211D01*
X150189849Y-73247973D01*
X150201222Y-73246726D01*
X150220568Y-73252594D01*
G37*
G36*
X150310570Y-78663442D02*
G01*
X150310298Y-78677425D01*
X150310340Y-78699270D01*
X150312202Y-78717049D01*
X150317171Y-78733503D01*
X150326532Y-78751374D01*
X150341570Y-78773400D01*
X150363573Y-78802325D01*
X150393826Y-78840887D01*
X150417466Y-78870715D01*
X150437822Y-78895171D01*
X150453077Y-78911059D01*
X150465557Y-78920452D01*
X150477585Y-78925426D01*
X150491488Y-78928057D01*
X150504234Y-78928845D01*
X150531387Y-78929739D01*
X150571580Y-78930709D01*
X150623511Y-78931733D01*
X150685879Y-78932792D01*
X150757384Y-78933864D01*
X150836723Y-78934930D01*
X150922597Y-78935967D01*
X151013704Y-78936956D01*
X151108743Y-78937876D01*
X151693293Y-78943191D01*
X151745501Y-78990253D01*
X151756467Y-79000233D01*
X151778146Y-79020596D01*
X151793734Y-79036127D01*
X151800420Y-79044070D01*
X151794584Y-79044979D01*
X151774185Y-79045921D01*
X151740153Y-79046784D01*
X151693537Y-79047559D01*
X151635386Y-79048238D01*
X151566747Y-79048812D01*
X151488671Y-79049273D01*
X151402204Y-79049611D01*
X151308396Y-79049819D01*
X151208295Y-79049888D01*
X151102951Y-79049809D01*
X150402771Y-79048792D01*
X150390850Y-79031909D01*
X150384765Y-79022995D01*
X150370886Y-79002124D01*
X150352621Y-78974320D01*
X150332313Y-78943136D01*
X150303859Y-78902187D01*
X150272041Y-78864764D01*
X150238690Y-78835075D01*
X150191684Y-78798904D01*
X150193866Y-78699921D01*
X150196048Y-78600939D01*
X150253899Y-78600939D01*
X150311751Y-78600939D01*
X150310570Y-78663442D01*
G37*
G36*
X150702524Y-76935117D02*
G01*
X150786280Y-76935551D01*
X150883118Y-76936210D01*
X150993887Y-76937090D01*
X151119433Y-76938185D01*
X151828961Y-76944587D01*
X151831149Y-77039564D01*
X151833336Y-77134541D01*
X151780364Y-77181604D01*
X151762585Y-77197260D01*
X151731762Y-77224107D01*
X151694699Y-77256163D01*
X151654573Y-77290683D01*
X151614558Y-77324923D01*
X151585899Y-77349398D01*
X151542361Y-77386659D01*
X151499539Y-77423392D01*
X151461160Y-77456397D01*
X151430953Y-77482474D01*
X151421073Y-77491025D01*
X151347599Y-77554166D01*
X151281693Y-77609993D01*
X151223925Y-77658048D01*
X151174866Y-77697875D01*
X151135085Y-77729017D01*
X151105155Y-77751017D01*
X151085644Y-77763418D01*
X151077125Y-77765764D01*
X151076145Y-77764280D01*
X151073589Y-77749981D01*
X151073256Y-77726159D01*
X151074797Y-77697556D01*
X151077860Y-77668913D01*
X151082093Y-77644971D01*
X151087147Y-77630472D01*
X151088479Y-77628594D01*
X151101709Y-77614031D01*
X151122599Y-77594243D01*
X151147264Y-77572948D01*
X151150401Y-77570361D01*
X151177224Y-77548061D01*
X151201938Y-77527239D01*
X151219548Y-77512100D01*
X151242987Y-77491495D01*
X151094541Y-77486654D01*
X151062277Y-77485750D01*
X151008815Y-77484608D01*
X150945079Y-77483539D01*
X150874091Y-77482584D01*
X150798874Y-77481782D01*
X150722452Y-77481172D01*
X150647847Y-77480794D01*
X150349600Y-77479776D01*
X150325561Y-77459549D01*
X150319224Y-77453892D01*
X150304393Y-77433457D01*
X150304480Y-77412997D01*
X150319236Y-77389738D01*
X150336948Y-77369146D01*
X150579017Y-77369705D01*
X150593258Y-77369745D01*
X150667346Y-77370127D01*
X150751534Y-77370794D01*
X150841279Y-77371699D01*
X150932041Y-77372791D01*
X151019277Y-77374022D01*
X151098447Y-77375341D01*
X151375808Y-77380419D01*
X151424639Y-77339019D01*
X151431556Y-77333049D01*
X151452917Y-77313093D01*
X151467851Y-77296763D01*
X151473470Y-77287128D01*
X151473360Y-77286384D01*
X151469562Y-77283357D01*
X151459238Y-77280994D01*
X151440873Y-77279222D01*
X151412948Y-77277967D01*
X151373949Y-77277155D01*
X151322359Y-77276711D01*
X151256660Y-77276563D01*
X151227777Y-77276517D01*
X151172893Y-77276286D01*
X151110683Y-77275882D01*
X151042789Y-77275328D01*
X150970848Y-77274644D01*
X150896500Y-77273853D01*
X150821384Y-77272977D01*
X150747141Y-77272037D01*
X150675408Y-77271056D01*
X150607825Y-77270056D01*
X150546033Y-77269058D01*
X150491669Y-77268084D01*
X150446373Y-77267156D01*
X150411785Y-77266296D01*
X150389544Y-77265526D01*
X150381288Y-77264868D01*
X150381305Y-77264067D01*
X150386209Y-77253935D01*
X150397237Y-77234861D01*
X150412540Y-77210083D01*
X150446063Y-77157184D01*
X151000386Y-77162416D01*
X151097818Y-77163368D01*
X151193805Y-77164401D01*
X151276081Y-77165419D01*
X151345659Y-77166451D01*
X151403556Y-77167527D01*
X151450785Y-77168675D01*
X151488360Y-77169926D01*
X151517297Y-77171307D01*
X151538610Y-77172848D01*
X151553314Y-77174579D01*
X151562422Y-77176529D01*
X151566950Y-77178727D01*
X151573574Y-77182571D01*
X151582481Y-77181713D01*
X151596029Y-77174769D01*
X151616696Y-77160461D01*
X151646961Y-77137513D01*
X151663757Y-77124403D01*
X151693609Y-77099473D01*
X151710418Y-77081553D01*
X151714187Y-77069532D01*
X151704922Y-77062303D01*
X151682628Y-77058755D01*
X151647309Y-77057780D01*
X151636250Y-77057739D01*
X151607474Y-77057566D01*
X151565485Y-77057271D01*
X151511736Y-77056864D01*
X151447680Y-77056359D01*
X151374768Y-77055765D01*
X151294454Y-77055096D01*
X151208189Y-77054363D01*
X151117428Y-77053577D01*
X151023621Y-77052750D01*
X150468298Y-77047815D01*
X150450576Y-77066518D01*
X150446786Y-77070913D01*
X150433065Y-77088861D01*
X150413692Y-77115772D01*
X150390680Y-77148819D01*
X150366046Y-77185173D01*
X150353878Y-77203161D01*
X150330499Y-77236518D01*
X150310028Y-77264195D01*
X150294330Y-77283716D01*
X150285268Y-77292601D01*
X150263305Y-77299219D01*
X150236089Y-77297775D01*
X150214242Y-77287147D01*
X150211238Y-77284255D01*
X150202698Y-77271623D01*
X150200519Y-77256150D01*
X150205347Y-77235934D01*
X150217827Y-77209076D01*
X150238602Y-77173678D01*
X150268318Y-77127838D01*
X150295075Y-77087641D01*
X150324168Y-77044005D01*
X150346480Y-77010701D01*
X150363081Y-76986190D01*
X150375042Y-76968938D01*
X150383431Y-76957406D01*
X150389319Y-76950059D01*
X150393776Y-76945359D01*
X150397872Y-76941770D01*
X150401774Y-76940224D01*
X150411371Y-76938712D01*
X150427273Y-76937458D01*
X150450327Y-76936457D01*
X150481380Y-76935707D01*
X150521278Y-76935202D01*
X150570870Y-76934938D01*
X150631003Y-76934911D01*
X150702524Y-76935117D01*
G37*
G36*
X150513647Y-79168841D02*
G01*
X150595138Y-79169061D01*
X150689077Y-79169451D01*
X150796258Y-79170006D01*
X150917475Y-79170723D01*
X151053522Y-79171596D01*
X151063599Y-79171663D01*
X151176804Y-79172421D01*
X151285457Y-79173165D01*
X151388553Y-79173888D01*
X151485085Y-79174582D01*
X151574045Y-79175238D01*
X151654427Y-79175850D01*
X151725224Y-79176409D01*
X151785429Y-79176908D01*
X151834036Y-79177338D01*
X151870037Y-79177693D01*
X151892426Y-79177963D01*
X151900197Y-79178142D01*
X151900205Y-79178153D01*
X151901230Y-79186008D01*
X151903007Y-79205272D01*
X151905157Y-79231837D01*
X151909198Y-79284574D01*
X151103407Y-79284281D01*
X150297617Y-79283988D01*
X150268121Y-79258725D01*
X150259979Y-79251391D01*
X150239093Y-79229775D01*
X150223768Y-79210187D01*
X150222569Y-79208278D01*
X150212700Y-79189781D01*
X150208338Y-79176459D01*
X150209265Y-79175280D01*
X150214482Y-79173762D01*
X150224996Y-79172455D01*
X150241601Y-79171355D01*
X150265093Y-79170457D01*
X150296265Y-79169757D01*
X150335911Y-79169250D01*
X150384828Y-79168931D01*
X150443808Y-79168797D01*
X150513647Y-79168841D01*
G37*
G36*
X152000029Y-76368379D02*
G01*
X152043503Y-76413304D01*
X152043660Y-76836686D01*
X152043818Y-77260069D01*
X151994987Y-77299237D01*
X151992182Y-77301487D01*
X151945169Y-77339153D01*
X151895509Y-77378874D01*
X151845323Y-77418960D01*
X151796730Y-77457721D01*
X151751850Y-77493467D01*
X151712802Y-77524508D01*
X151681706Y-77549156D01*
X151660683Y-77565719D01*
X151618741Y-77598578D01*
X151568803Y-77637856D01*
X151523218Y-77673934D01*
X151477360Y-77710481D01*
X151426597Y-77751164D01*
X151403607Y-77769500D01*
X151373313Y-77792844D01*
X151350956Y-77808421D01*
X151334070Y-77817719D01*
X151320188Y-77822227D01*
X151306843Y-77823434D01*
X151300474Y-77823296D01*
X151276090Y-77817519D01*
X151254106Y-77800709D01*
X151248973Y-77795404D01*
X151236424Y-77780513D01*
X151231528Y-77771410D01*
X151231612Y-77770245D01*
X151232473Y-77766706D01*
X151234820Y-77762336D01*
X151239371Y-77756545D01*
X151246846Y-77748743D01*
X151257964Y-77738342D01*
X151273444Y-77724752D01*
X151294004Y-77707382D01*
X151320365Y-77685645D01*
X151353244Y-77658949D01*
X151393361Y-77626706D01*
X151441435Y-77588326D01*
X151498185Y-77543219D01*
X151564330Y-77490796D01*
X151640589Y-77430468D01*
X151727681Y-77361644D01*
X151826326Y-77283736D01*
X151925259Y-77205611D01*
X151927894Y-77118070D01*
X151928384Y-77093211D01*
X151928747Y-77052905D01*
X151928921Y-77001619D01*
X151928906Y-76941799D01*
X151928704Y-76875890D01*
X151928315Y-76806339D01*
X151927741Y-76735589D01*
X151924952Y-76440649D01*
X151117633Y-76440649D01*
X150310315Y-76440649D01*
X150266854Y-76389420D01*
X150259059Y-76380113D01*
X150240827Y-76357264D01*
X150228147Y-76339767D01*
X150223393Y-76330823D01*
X150223836Y-76330534D01*
X150235216Y-76329378D01*
X150261591Y-76328311D01*
X150302455Y-76327338D01*
X150357299Y-76326463D01*
X150425616Y-76325691D01*
X150506896Y-76325025D01*
X150600632Y-76324472D01*
X150706316Y-76324033D01*
X150823440Y-76323715D01*
X150951495Y-76323520D01*
X151089974Y-76323455D01*
X151956554Y-76323455D01*
X152000029Y-76368379D01*
G37*
G36*
X152002800Y-74944019D02*
G01*
X152055537Y-74947405D01*
X152057553Y-75414441D01*
X152059568Y-75881477D01*
X152023410Y-75916125D01*
X151987252Y-75950773D01*
X151193218Y-75946299D01*
X150399185Y-75941824D01*
X150350408Y-75889604D01*
X150339305Y-75877428D01*
X150320802Y-75855524D01*
X150308854Y-75839054D01*
X150305646Y-75830886D01*
X150308634Y-75830380D01*
X150325390Y-75829619D01*
X150355752Y-75828981D01*
X150398450Y-75828461D01*
X150452213Y-75828057D01*
X150515770Y-75827766D01*
X150587849Y-75827583D01*
X150667180Y-75827507D01*
X150752493Y-75827533D01*
X150842515Y-75827658D01*
X150935976Y-75827880D01*
X151031606Y-75828194D01*
X151128132Y-75828599D01*
X151224285Y-75829089D01*
X151318793Y-75829663D01*
X151410386Y-75830316D01*
X151497792Y-75831046D01*
X151579740Y-75831849D01*
X151654960Y-75832722D01*
X151722180Y-75833662D01*
X151780130Y-75834666D01*
X151950062Y-75837989D01*
X151950062Y-75389311D01*
X151950062Y-74940633D01*
X152002800Y-74944019D01*
G37*
G36*
X151156251Y-76078658D02*
G01*
X151204826Y-76078954D01*
X151310384Y-76079610D01*
X151410952Y-76080254D01*
X151505468Y-76080877D01*
X151592866Y-76081473D01*
X151672084Y-76082032D01*
X151742057Y-76082548D01*
X151801723Y-76083013D01*
X151850018Y-76083418D01*
X151885878Y-76083757D01*
X151908239Y-76084021D01*
X151916038Y-76084203D01*
X151916117Y-76084480D01*
X151915964Y-76094251D01*
X151914839Y-76115062D01*
X151912949Y-76143002D01*
X151908726Y-76200844D01*
X151443036Y-76195492D01*
X151420777Y-76195240D01*
X151321801Y-76194204D01*
X151217533Y-76193234D01*
X151110961Y-76192351D01*
X151005074Y-76191575D01*
X150902858Y-76190927D01*
X150807303Y-76190429D01*
X150721396Y-76190100D01*
X150648125Y-76189963D01*
X150610323Y-76189913D01*
X150542508Y-76189673D01*
X150480477Y-76189259D01*
X150425871Y-76188694D01*
X150380329Y-76188001D01*
X150345493Y-76187202D01*
X150323002Y-76186320D01*
X150314496Y-76185377D01*
X150314519Y-76181865D01*
X150321650Y-76168201D01*
X150336048Y-76147335D01*
X150355713Y-76122078D01*
X150378643Y-76095241D01*
X150397598Y-76074070D01*
X151156251Y-76078658D01*
G37*
G36*
X150395938Y-73237611D02*
G01*
X150413576Y-73252607D01*
X150440370Y-73277052D01*
X150475445Y-73310111D01*
X150517924Y-73350950D01*
X150566929Y-73398732D01*
X150621585Y-73452623D01*
X150681013Y-73511789D01*
X150965178Y-73795955D01*
X150960293Y-73868937D01*
X150955408Y-73941918D01*
X150667531Y-73654120D01*
X150379653Y-73366321D01*
X150379653Y-73302285D01*
X150379662Y-73298882D01*
X150380873Y-73266283D01*
X150383860Y-73243306D01*
X150388251Y-73232936D01*
X150388333Y-73232899D01*
X150395938Y-73237611D01*
G37*
G36*
X150609419Y-78714417D02*
G01*
X150648016Y-78715762D01*
X150680612Y-78717849D01*
X150704328Y-78720676D01*
X150716288Y-78724241D01*
X150732604Y-78741592D01*
X150740525Y-78766199D01*
X150734012Y-78790598D01*
X150713177Y-78811643D01*
X150710220Y-78813415D01*
X150698941Y-78817771D01*
X150682396Y-78820602D01*
X150658000Y-78822100D01*
X150623167Y-78822457D01*
X150575312Y-78821864D01*
X150456348Y-78819702D01*
X150433628Y-78776731D01*
X150423337Y-78756201D01*
X150414362Y-78735687D01*
X150410907Y-78723993D01*
X150412886Y-78722081D01*
X150427085Y-78718920D01*
X150452542Y-78716515D01*
X150486381Y-78714865D01*
X150525725Y-78713967D01*
X150567696Y-78713818D01*
X150609419Y-78714417D01*
G37*
G36*
X151951932Y-73026419D02*
G01*
X151959520Y-73032267D01*
X151974905Y-73046058D01*
X151995004Y-73065037D01*
X152035113Y-73103697D01*
X151888820Y-73250595D01*
X151850986Y-73288652D01*
X151802919Y-73337120D01*
X151748478Y-73392106D01*
X151690004Y-73451243D01*
X151629837Y-73512165D01*
X151570316Y-73572505D01*
X151513783Y-73629896D01*
X151511739Y-73631973D01*
X151456196Y-73688021D01*
X151405901Y-73738059D01*
X151361778Y-73781204D01*
X151324750Y-73816574D01*
X151295741Y-73843287D01*
X151275673Y-73860460D01*
X151265469Y-73867211D01*
X151250103Y-73868775D01*
X151230913Y-73865291D01*
X151230450Y-73865026D01*
X151220988Y-73857006D01*
X151201617Y-73839014D01*
X151173328Y-73812015D01*
X151137110Y-73776973D01*
X151093954Y-73734855D01*
X151044848Y-73686626D01*
X150990783Y-73633251D01*
X150932749Y-73575696D01*
X150871734Y-73514926D01*
X150527541Y-73171393D01*
X150568839Y-73134653D01*
X150610136Y-73097913D01*
X150652915Y-73138321D01*
X150665878Y-73150793D01*
X150689276Y-73173605D01*
X150721234Y-73204938D01*
X150760448Y-73243505D01*
X150805608Y-73288019D01*
X150855410Y-73337192D01*
X150908545Y-73389739D01*
X150963706Y-73444371D01*
X150984817Y-73465276D01*
X151048377Y-73527930D01*
X151101954Y-73580221D01*
X151146248Y-73622798D01*
X151181958Y-73656309D01*
X151209782Y-73681404D01*
X151230419Y-73698730D01*
X151244569Y-73708935D01*
X151252930Y-73712669D01*
X151255989Y-73712891D01*
X151265124Y-73711337D01*
X151276315Y-73705437D01*
X151291267Y-73693762D01*
X151311687Y-73674883D01*
X151339282Y-73647370D01*
X151375759Y-73609795D01*
X151382080Y-73603237D01*
X151415859Y-73568349D01*
X151455407Y-73527716D01*
X151499529Y-73482547D01*
X151547034Y-73434049D01*
X151596729Y-73383430D01*
X151647422Y-73331898D01*
X151697918Y-73280663D01*
X151747027Y-73230930D01*
X151793555Y-73183909D01*
X151836310Y-73140808D01*
X151874098Y-73102834D01*
X151905728Y-73071196D01*
X151930007Y-73047102D01*
X151945742Y-73031759D01*
X151951740Y-73026377D01*
X151951932Y-73026419D01*
G37*
G36*
X152257584Y-73112322D02*
G01*
X152260653Y-73119612D01*
X152262146Y-73138258D01*
X152262161Y-73164142D01*
X152260800Y-73193147D01*
X152258160Y-73221158D01*
X152254342Y-73244057D01*
X152250435Y-73271602D01*
X152254167Y-73287388D01*
X152254530Y-73287975D01*
X152256693Y-73300306D01*
X152257974Y-73324099D01*
X152258436Y-73355711D01*
X152258138Y-73391498D01*
X152257141Y-73427818D01*
X152255506Y-73461025D01*
X152253293Y-73487478D01*
X152250565Y-73503532D01*
X152246672Y-73508281D01*
X152232364Y-73523593D01*
X152208194Y-73548689D01*
X152174841Y-73582884D01*
X152132983Y-73625493D01*
X152083298Y-73675832D01*
X152026463Y-73733217D01*
X151963158Y-73796963D01*
X151894059Y-73866387D01*
X151819844Y-73940804D01*
X151741193Y-74019529D01*
X151658781Y-74101879D01*
X151573289Y-74187168D01*
X150899793Y-74858521D01*
X151296013Y-74860546D01*
X151318576Y-74860668D01*
X151416750Y-74861390D01*
X151500259Y-74862346D01*
X151568943Y-74863531D01*
X151622643Y-74864940D01*
X151661198Y-74866571D01*
X151684448Y-74868419D01*
X151692234Y-74870480D01*
X151691802Y-74872192D01*
X151684755Y-74884599D01*
X151670864Y-74904677D01*
X151652455Y-74929005D01*
X151612677Y-74979622D01*
X151490336Y-74980811D01*
X151466927Y-74981031D01*
X151425743Y-74981381D01*
X151390847Y-74981630D01*
X151365352Y-74981757D01*
X151352369Y-74981741D01*
X151344552Y-74981683D01*
X151322116Y-74981582D01*
X151287035Y-74981452D01*
X151240949Y-74981299D01*
X151185494Y-74981127D01*
X151122309Y-74980941D01*
X151053031Y-74980748D01*
X150979299Y-74980551D01*
X150916295Y-74980296D01*
X150847453Y-74979793D01*
X150784957Y-74979098D01*
X150730352Y-74978240D01*
X150685185Y-74977248D01*
X150651004Y-74976151D01*
X150629355Y-74974980D01*
X150621786Y-74973762D01*
X150623919Y-74971197D01*
X150635961Y-74958536D01*
X150658066Y-74935900D01*
X150689601Y-74903922D01*
X150729934Y-74863238D01*
X150778432Y-74814481D01*
X150834461Y-74758286D01*
X150897387Y-74695286D01*
X150966579Y-74626117D01*
X151041402Y-74551412D01*
X151121224Y-74471805D01*
X151205411Y-74387930D01*
X151293331Y-74300423D01*
X151384350Y-74209917D01*
X152146983Y-73451931D01*
X152141308Y-73307326D01*
X152139567Y-73258847D01*
X152138624Y-73218598D01*
X152138765Y-73190067D01*
X152140059Y-73171223D01*
X152142571Y-73160033D01*
X152146370Y-73154466D01*
X152154436Y-73150014D01*
X152173879Y-73141481D01*
X152198891Y-73131557D01*
X152224491Y-73122129D01*
X152245696Y-73115087D01*
X152257524Y-73112320D01*
X152257584Y-73112322D01*
G37*
G36*
X150854032Y-78693881D02*
G01*
X150879945Y-78706698D01*
X150899802Y-78730986D01*
X150900463Y-78732289D01*
X150909259Y-78764924D01*
X150904785Y-78795971D01*
X150888969Y-78822177D01*
X150863740Y-78840288D01*
X150831026Y-78847047D01*
X150810756Y-78842329D01*
X150785725Y-78828152D01*
X150764691Y-78808341D01*
X150763470Y-78806550D01*
X150757489Y-78789207D01*
X150754924Y-78766363D01*
X150759275Y-78740348D01*
X150774685Y-78715767D01*
X150797929Y-78699263D01*
X150825536Y-78691685D01*
X150854032Y-78693881D01*
G37*
G36*
X151171727Y-77811217D02*
G01*
X151218226Y-77831710D01*
X151259204Y-77864993D01*
X151290395Y-77908122D01*
X151310248Y-77958922D01*
X151317211Y-78015217D01*
X151317120Y-78021189D01*
X151308376Y-78073309D01*
X151286864Y-78119782D01*
X151254732Y-78158963D01*
X151214128Y-78189208D01*
X151167200Y-78208872D01*
X151118406Y-78215974D01*
X151116097Y-78216310D01*
X151062967Y-78209877D01*
X151013255Y-78190218D01*
X150969533Y-78157419D01*
X150935956Y-78113169D01*
X150913363Y-78058323D01*
X150906831Y-78019455D01*
X150906954Y-78018050D01*
X151030035Y-78018050D01*
X151040735Y-78047616D01*
X151042556Y-78051130D01*
X151063559Y-78076658D01*
X151089881Y-78090181D01*
X151118406Y-78092535D01*
X151146017Y-78084557D01*
X151169598Y-78067083D01*
X151186032Y-78040948D01*
X151192203Y-78006988D01*
X151191318Y-77992361D01*
X151180634Y-77960342D01*
X151158315Y-77938543D01*
X151124953Y-77927661D01*
X151091951Y-77927858D01*
X151065302Y-77940249D01*
X151043367Y-77966633D01*
X151031280Y-77992463D01*
X151030035Y-78018050D01*
X150906954Y-78018050D01*
X150911336Y-77968188D01*
X150930552Y-77913934D01*
X150939393Y-77897347D01*
X150972377Y-77856172D01*
X151014488Y-77825956D01*
X151063340Y-77807714D01*
X151116548Y-77802463D01*
X151171727Y-77811217D01*
G37*
G36*
X151451291Y-78759151D02*
G01*
X151458342Y-78765890D01*
X151479879Y-78785841D01*
X151496560Y-78800360D01*
X151505244Y-78806680D01*
X151506575Y-78807276D01*
X151512535Y-78816447D01*
X151509962Y-78817526D01*
X151493963Y-78819234D01*
X151464510Y-78820713D01*
X151422977Y-78821926D01*
X151370739Y-78822836D01*
X151309171Y-78823409D01*
X151239648Y-78823609D01*
X150966761Y-78823609D01*
X150950567Y-78803022D01*
X150950144Y-78802480D01*
X150938992Y-78784218D01*
X150934374Y-78768918D01*
X150934380Y-78768557D01*
X150939272Y-78753028D01*
X150950567Y-78734813D01*
X150966761Y-78714227D01*
X151185695Y-78714227D01*
X151404630Y-78714227D01*
X151451291Y-78759151D01*
G37*
G36*
X151151375Y-78276531D02*
G01*
X151197563Y-78280947D01*
X151357002Y-78413949D01*
X151394880Y-78445476D01*
X151437909Y-78481119D01*
X151477140Y-78513439D01*
X151510528Y-78540758D01*
X151536030Y-78561398D01*
X151551600Y-78573680D01*
X151565881Y-78584885D01*
X151595134Y-78609167D01*
X151621917Y-78632793D01*
X151623952Y-78634637D01*
X151640962Y-78649265D01*
X151667745Y-78671592D01*
X151702232Y-78699949D01*
X151742354Y-78732669D01*
X151786045Y-78768082D01*
X151831235Y-78804520D01*
X151875856Y-78840314D01*
X151917839Y-78873796D01*
X151955118Y-78903298D01*
X151985622Y-78927150D01*
X152007285Y-78943684D01*
X152037162Y-78965920D01*
X152009238Y-78984895D01*
X152001985Y-78990012D01*
X151987132Y-79002034D01*
X151981140Y-79009448D01*
X151976831Y-79018809D01*
X151966486Y-79033863D01*
X151952005Y-79052699D01*
X151921735Y-79028233D01*
X151921048Y-79027678D01*
X151898132Y-79009070D01*
X151865494Y-78982463D01*
X151825393Y-78949704D01*
X151780087Y-78912642D01*
X151731835Y-78873125D01*
X151682895Y-78833002D01*
X151635525Y-78794122D01*
X151591984Y-78758332D01*
X151536197Y-78712470D01*
X151462358Y-78651883D01*
X151395567Y-78597220D01*
X151337481Y-78549838D01*
X151289756Y-78511089D01*
X151289752Y-78511087D01*
X151239979Y-78470564D01*
X151201052Y-78438089D01*
X151171488Y-78412110D01*
X151149803Y-78391074D01*
X151134514Y-78373430D01*
X151124137Y-78357627D01*
X151117190Y-78342111D01*
X151112188Y-78325332D01*
X151107459Y-78305294D01*
X151103663Y-78285627D01*
X151103045Y-78276361D01*
X151108875Y-78274934D01*
X151126483Y-78274837D01*
X151151375Y-78276531D01*
G37*
G36*
X151980340Y-74644228D02*
G01*
X151983413Y-74651665D01*
X151996299Y-74675005D01*
X152012674Y-74698492D01*
X152036642Y-74728753D01*
X151928895Y-74731426D01*
X151905157Y-74731931D01*
X151861566Y-74732651D01*
X151807063Y-74733391D01*
X151744353Y-74734120D01*
X151676140Y-74734807D01*
X151605128Y-74735421D01*
X151534021Y-74735931D01*
X151531079Y-74735949D01*
X151466035Y-74736232D01*
X151406264Y-74736258D01*
X151353492Y-74736043D01*
X151309443Y-74735606D01*
X151275844Y-74734961D01*
X151254419Y-74734128D01*
X151246894Y-74733122D01*
X151247921Y-74730883D01*
X151256429Y-74718670D01*
X151271682Y-74698834D01*
X151291423Y-74674353D01*
X151335953Y-74620225D01*
X151653963Y-74620225D01*
X151971972Y-74620225D01*
X151980340Y-74644228D01*
G37*
G36*
X151521466Y-73775475D02*
G01*
X151545838Y-73784220D01*
X151563681Y-73793022D01*
X151578529Y-73804750D01*
X151582852Y-73817528D01*
X151580837Y-73823735D01*
X151568578Y-73841606D01*
X151545038Y-73869124D01*
X151510045Y-73906485D01*
X151463425Y-73953889D01*
X151452161Y-73965143D01*
X151414896Y-74002092D01*
X151386412Y-74029584D01*
X151365015Y-74048995D01*
X151349015Y-74061698D01*
X151336719Y-74069069D01*
X151326435Y-74072484D01*
X151316472Y-74073316D01*
X151301045Y-74072111D01*
X151275018Y-74061855D01*
X151260129Y-74042064D01*
X151258000Y-74035844D01*
X151256387Y-74023942D01*
X151261116Y-74009827D01*
X151262991Y-74006520D01*
X151274530Y-73991651D01*
X151294133Y-73969212D01*
X151319733Y-73941326D01*
X151349262Y-73910114D01*
X151380650Y-73877698D01*
X151411829Y-73846200D01*
X151440733Y-73817741D01*
X151465291Y-73794445D01*
X151483436Y-73778432D01*
X151493101Y-73771824D01*
X151500647Y-73771451D01*
X151521466Y-73775475D01*
G37*
G36*
X151351121Y-78185090D02*
G01*
X151367505Y-78194955D01*
X151391024Y-78212429D01*
X151423967Y-78238880D01*
X151428652Y-78242705D01*
X151457074Y-78265816D01*
X151494827Y-78296408D01*
X151539565Y-78332584D01*
X151588943Y-78372449D01*
X151640614Y-78414108D01*
X151692234Y-78455665D01*
X151702658Y-78464052D01*
X151754732Y-78505972D01*
X151806566Y-78547736D01*
X151855771Y-78587418D01*
X151899959Y-78623091D01*
X151936743Y-78652829D01*
X151963735Y-78674706D01*
X152043818Y-78739763D01*
X152043818Y-78801218D01*
X152043786Y-78809144D01*
X152043131Y-78836397D01*
X152041801Y-78855483D01*
X152040027Y-78862673D01*
X152039543Y-78862474D01*
X152030427Y-78855931D01*
X152011504Y-78841231D01*
X151984646Y-78819860D01*
X151951726Y-78793307D01*
X151914614Y-78763058D01*
X151858886Y-78717495D01*
X151790506Y-78661750D01*
X151716806Y-78601805D01*
X151640687Y-78540012D01*
X151565048Y-78478723D01*
X151492789Y-78420290D01*
X151426810Y-78367064D01*
X151370012Y-78321397D01*
X151342177Y-78298895D01*
X151311890Y-78273571D01*
X151291243Y-78254742D01*
X151278563Y-78240707D01*
X151272172Y-78229762D01*
X151270396Y-78220205D01*
X151270518Y-78215511D01*
X151275696Y-78201135D01*
X151291818Y-78194272D01*
X151309144Y-78189851D01*
X151330211Y-78182877D01*
X151330606Y-78182722D01*
X151339585Y-78181468D01*
X151351121Y-78185090D01*
G37*
G36*
X152245714Y-76413638D02*
G01*
X152247840Y-76417841D01*
X152249606Y-76426277D01*
X152251045Y-76440086D01*
X152252189Y-76460407D01*
X152253073Y-76488379D01*
X152253730Y-76525142D01*
X152254193Y-76571835D01*
X152254494Y-76629597D01*
X152254669Y-76699567D01*
X152254749Y-76782885D01*
X152254768Y-76880689D01*
X152254766Y-76907157D01*
X152254697Y-77003012D01*
X152254515Y-77084648D01*
X152254194Y-77153189D01*
X152253708Y-77209758D01*
X152253030Y-77255479D01*
X152252134Y-77291477D01*
X152250994Y-77318875D01*
X152249584Y-77338798D01*
X152247877Y-77352369D01*
X152245848Y-77360712D01*
X152243469Y-77364951D01*
X152236447Y-77371231D01*
X152216277Y-77387919D01*
X152184424Y-77413522D01*
X152141313Y-77447705D01*
X152087372Y-77490134D01*
X152023026Y-77540474D01*
X151948702Y-77598388D01*
X151864826Y-77663544D01*
X151771823Y-77735604D01*
X151768649Y-77738063D01*
X151730806Y-77767581D01*
X151692401Y-77797868D01*
X151657755Y-77825498D01*
X151631190Y-77847047D01*
X151625857Y-77851426D01*
X151596782Y-77874954D01*
X151568934Y-77896993D01*
X151547693Y-77913277D01*
X151536080Y-77922197D01*
X151508888Y-77944466D01*
X151483388Y-77966809D01*
X151450334Y-77997144D01*
X151553704Y-78078949D01*
X151565000Y-78087877D01*
X151611138Y-78124168D01*
X151660919Y-78163105D01*
X151709056Y-78200558D01*
X151750262Y-78232400D01*
X151757196Y-78237744D01*
X151796400Y-78268339D01*
X151835886Y-78299708D01*
X151871405Y-78328452D01*
X151898709Y-78351172D01*
X151907098Y-78358292D01*
X151937394Y-78383546D01*
X151966506Y-78407222D01*
X151989127Y-78424985D01*
X152002222Y-78435078D01*
X152027600Y-78454929D01*
X152060161Y-78480598D01*
X152097103Y-78509872D01*
X152135620Y-78540541D01*
X152246955Y-78629409D01*
X152246955Y-78782111D01*
X152246955Y-78934813D01*
X152229376Y-78929416D01*
X152223910Y-78927951D01*
X152201726Y-78923558D01*
X152175623Y-78919788D01*
X152158381Y-78917509D01*
X152144632Y-78912738D01*
X152138306Y-78902031D01*
X152134703Y-78880923D01*
X152133686Y-78870245D01*
X152132666Y-78841111D01*
X152132830Y-78804742D01*
X152134202Y-78766586D01*
X152138448Y-78686881D01*
X152007143Y-78583315D01*
X152006744Y-78583001D01*
X151961411Y-78547281D01*
X151914341Y-78510258D01*
X151869035Y-78474678D01*
X151828991Y-78443291D01*
X151797709Y-78418843D01*
X151733974Y-78369128D01*
X151654625Y-78307114D01*
X151586375Y-78253600D01*
X151528480Y-78207980D01*
X151480191Y-78169648D01*
X151440764Y-78137999D01*
X151409450Y-78112427D01*
X151385504Y-78092328D01*
X151368178Y-78077096D01*
X151356727Y-78066126D01*
X151350404Y-78058811D01*
X151348462Y-78054548D01*
X151350771Y-78041010D01*
X151356542Y-78021466D01*
X151357636Y-78018121D01*
X151360290Y-77994964D01*
X151353546Y-77967562D01*
X151350983Y-77960386D01*
X151344568Y-77941704D01*
X151341560Y-77931785D01*
X151341528Y-77931287D01*
X151344163Y-77926231D01*
X151352552Y-77917421D01*
X151367823Y-77903925D01*
X151391106Y-77884814D01*
X151423530Y-77859157D01*
X151466224Y-77826023D01*
X151520318Y-77784482D01*
X151541935Y-77767930D01*
X151602703Y-77721292D01*
X151655536Y-77680533D01*
X151703874Y-77642975D01*
X151751155Y-77605937D01*
X151800820Y-77566740D01*
X151856306Y-77522704D01*
X151857747Y-77521558D01*
X151900076Y-77488162D01*
X151948753Y-77450138D01*
X151997874Y-77412078D01*
X152041535Y-77378576D01*
X152055374Y-77368013D01*
X152088094Y-77342651D01*
X152110886Y-77323859D01*
X152125700Y-77309593D01*
X152134485Y-77297810D01*
X152139192Y-77286466D01*
X152141771Y-77273516D01*
X152141858Y-77272868D01*
X152142727Y-77257420D01*
X152143388Y-77228154D01*
X152143836Y-77186729D01*
X152144068Y-77134806D01*
X152144079Y-77074043D01*
X152143866Y-77006100D01*
X152143426Y-76932636D01*
X152142753Y-76855311D01*
X152142656Y-76845483D01*
X152142053Y-76769276D01*
X152141734Y-76697662D01*
X152141692Y-76632216D01*
X152141915Y-76574516D01*
X152142394Y-76526136D01*
X152143119Y-76488653D01*
X152144080Y-76463643D01*
X152145268Y-76452681D01*
X152147513Y-76448197D01*
X152162044Y-76436158D01*
X152189540Y-76427092D01*
X152201823Y-76424140D01*
X152225554Y-76417878D01*
X152241095Y-76413016D01*
X152243193Y-76412530D01*
X152245714Y-76413638D01*
G37*
G36*
X151801623Y-74409369D02*
G01*
X151861230Y-74409637D01*
X151913893Y-74410059D01*
X151957876Y-74410611D01*
X151991442Y-74411272D01*
X152012855Y-74412020D01*
X152020379Y-74412834D01*
X152019719Y-74414736D01*
X152013013Y-74426499D01*
X152001410Y-74444345D01*
X151998097Y-74449458D01*
X151985168Y-74473822D01*
X151977350Y-74495477D01*
X151972259Y-74518656D01*
X151709192Y-74520237D01*
X151667670Y-74520501D01*
X151605421Y-74520951D01*
X151548107Y-74521429D01*
X151497866Y-74521914D01*
X151456837Y-74522385D01*
X151427158Y-74522821D01*
X151410966Y-74523199D01*
X151401046Y-74523444D01*
X151380680Y-74522914D01*
X151369811Y-74521073D01*
X151369083Y-74520573D01*
X151367930Y-74517049D01*
X151371249Y-74509886D01*
X151380475Y-74497036D01*
X151397042Y-74476454D01*
X151422387Y-74446091D01*
X151453340Y-74409274D01*
X151736859Y-74409274D01*
X151801623Y-74409369D01*
G37*
G36*
X152022725Y-73267374D02*
G01*
X152025522Y-73281789D01*
X152027464Y-73306433D01*
X152028192Y-73337465D01*
X152028192Y-73405429D01*
X151841542Y-73591957D01*
X151654892Y-73778485D01*
X151626936Y-73773241D01*
X151624806Y-73772814D01*
X151602688Y-73765588D01*
X151587009Y-73756026D01*
X151580638Y-73748996D01*
X151576006Y-73740885D01*
X151574941Y-73731586D01*
X151578278Y-73720006D01*
X151586849Y-73705051D01*
X151601488Y-73685628D01*
X151623027Y-73660642D01*
X151652301Y-73628999D01*
X151690141Y-73589607D01*
X151737383Y-73541370D01*
X151794858Y-73483197D01*
X151811671Y-73466246D01*
X151858810Y-73419069D01*
X151902228Y-73376125D01*
X151940723Y-73338567D01*
X151973093Y-73307553D01*
X151998136Y-73284238D01*
X152014650Y-73269777D01*
X152021434Y-73265325D01*
X152022725Y-73267374D01*
G37*
G36*
X152232675Y-72620212D02*
G01*
X152242664Y-72622694D01*
X152294311Y-72644303D01*
X152337857Y-72677383D01*
X152372169Y-72719717D01*
X152396116Y-72769089D01*
X152408567Y-72823280D01*
X152408392Y-72880075D01*
X152394458Y-72937257D01*
X152371713Y-72982973D01*
X152334439Y-73026741D01*
X152284485Y-73061788D01*
X152261979Y-73073100D01*
X152240196Y-73080370D01*
X152215096Y-73083800D01*
X152180545Y-73084743D01*
X152176189Y-73084751D01*
X152174361Y-73084754D01*
X152142460Y-73083880D01*
X152118772Y-73080316D01*
X152096917Y-73072580D01*
X152070516Y-73059190D01*
X152049582Y-73046415D01*
X152006224Y-73009054D01*
X151973124Y-72963998D01*
X151952947Y-72914524D01*
X151945979Y-72871842D01*
X152082004Y-72871842D01*
X152094541Y-72905812D01*
X152119239Y-72932142D01*
X152155169Y-72948777D01*
X152176189Y-72952759D01*
X152195358Y-72950480D01*
X152219409Y-72940531D01*
X152225036Y-72937645D01*
X152255785Y-72913283D01*
X152273144Y-72881549D01*
X152276698Y-72843687D01*
X152266032Y-72800940D01*
X152254068Y-72780518D01*
X152229405Y-72760175D01*
X152198893Y-72749719D01*
X152166123Y-72749066D01*
X152134686Y-72758131D01*
X152108173Y-72776830D01*
X152090174Y-72805078D01*
X152082557Y-72832286D01*
X152082004Y-72871842D01*
X151945979Y-72871842D01*
X151945833Y-72870947D01*
X151948363Y-72813935D01*
X151963530Y-72760979D01*
X151989777Y-72713718D01*
X152025544Y-72673792D01*
X152069276Y-72642839D01*
X152119414Y-72622499D01*
X152174399Y-72614410D01*
X152232675Y-72620212D01*
G37*
G36*
X152220535Y-78974436D02*
G01*
X152272780Y-78990057D01*
X152320835Y-79018933D01*
X152323150Y-79020792D01*
X152361933Y-79062302D01*
X152389073Y-79113991D01*
X152404278Y-79175311D01*
X152406878Y-79209539D01*
X152400364Y-79267602D01*
X152379805Y-79319568D01*
X152345711Y-79364352D01*
X152298589Y-79400871D01*
X152261857Y-79418671D01*
X152207407Y-79431770D01*
X152186526Y-79431494D01*
X152152668Y-79431046D01*
X152099988Y-79417209D01*
X152051716Y-79390968D01*
X152010202Y-79353031D01*
X151977795Y-79304107D01*
X151969252Y-79285246D01*
X151962445Y-79262422D01*
X151959129Y-79235454D01*
X151958613Y-79213969D01*
X152087981Y-79213969D01*
X152098503Y-79247398D01*
X152119531Y-79274822D01*
X152149420Y-79293378D01*
X152186526Y-79300200D01*
X152188076Y-79300194D01*
X152209017Y-79297687D01*
X152226912Y-79288586D01*
X152247874Y-79269868D01*
X152251491Y-79266212D01*
X152268361Y-79246469D01*
X152276253Y-79228826D01*
X152278207Y-79206976D01*
X152278037Y-79199916D01*
X152269737Y-79160802D01*
X152250079Y-79130823D01*
X152220612Y-79111638D01*
X152182886Y-79104905D01*
X152170134Y-79106190D01*
X152141898Y-79115560D01*
X152116343Y-79131113D01*
X152099932Y-79149382D01*
X152089610Y-79177403D01*
X152087981Y-79213969D01*
X151958613Y-79213969D01*
X151958245Y-79198632D01*
X151958246Y-79195899D01*
X151959072Y-79161064D01*
X151962231Y-79135582D01*
X151968903Y-79113596D01*
X151980267Y-79089250D01*
X151987466Y-79076364D01*
X152021657Y-79033764D01*
X152064660Y-79001734D01*
X152113874Y-78980812D01*
X152166699Y-78971533D01*
X152220535Y-78974436D01*
G37*
G36*
X152222914Y-75927445D02*
G01*
X152245221Y-75934414D01*
X152274013Y-75947707D01*
X152292132Y-75957421D01*
X152339860Y-75993237D01*
X152374670Y-76037131D01*
X152395982Y-76088213D01*
X152403215Y-76145595D01*
X152402877Y-76159234D01*
X152393292Y-76217224D01*
X152371603Y-76268181D01*
X152339275Y-76310536D01*
X152297776Y-76342718D01*
X152248574Y-76363159D01*
X152197808Y-76369688D01*
X152193136Y-76370289D01*
X152167564Y-76369467D01*
X152136384Y-76366596D01*
X152113176Y-76362383D01*
X152081764Y-76348219D01*
X152046553Y-76320918D01*
X152014573Y-76285088D01*
X151989003Y-76244357D01*
X151973019Y-76202354D01*
X151966503Y-76150363D01*
X152094465Y-76150363D01*
X152101292Y-76181616D01*
X152116991Y-76208746D01*
X152139612Y-76229458D01*
X152167202Y-76241455D01*
X152197808Y-76242443D01*
X152229477Y-76230126D01*
X152240456Y-76222240D01*
X152263411Y-76195011D01*
X152274563Y-76163216D01*
X152274308Y-76130198D01*
X152263040Y-76099301D01*
X152241156Y-76073866D01*
X152209049Y-76057237D01*
X152199484Y-76055009D01*
X152165583Y-76055823D01*
X152134268Y-76068362D01*
X152110949Y-76090774D01*
X152098465Y-76117283D01*
X152094465Y-76150363D01*
X151966503Y-76150363D01*
X151965826Y-76144957D01*
X151972331Y-76089490D01*
X151991588Y-76039226D01*
X152022293Y-75995992D01*
X152063139Y-75961612D01*
X152112824Y-75937913D01*
X152170041Y-75926719D01*
X152200010Y-75925371D01*
X152222914Y-75927445D01*
G37*
G36*
X152237008Y-74382848D02*
G01*
X152283711Y-74401490D01*
X152296640Y-74409645D01*
X152332531Y-74442839D01*
X152356821Y-74482929D01*
X152369648Y-74527318D01*
X152371150Y-74573406D01*
X152361464Y-74618597D01*
X152340729Y-74660292D01*
X152309082Y-74695892D01*
X152266661Y-74722801D01*
X152225558Y-74735730D01*
X152177098Y-74737545D01*
X152176784Y-74737466D01*
X152130886Y-74725899D01*
X152089409Y-74701865D01*
X152055155Y-74666517D01*
X152030612Y-74620930D01*
X152023167Y-74587092D01*
X152023166Y-74562101D01*
X152122979Y-74562101D01*
X152126349Y-74575415D01*
X152137064Y-74594135D01*
X152152596Y-74613462D01*
X152176784Y-74625525D01*
X152207971Y-74624114D01*
X152209389Y-74623786D01*
X152235782Y-74610425D01*
X152253699Y-74587836D01*
X152261852Y-74560239D01*
X152258956Y-74531854D01*
X152243722Y-74506899D01*
X152231831Y-74496635D01*
X152203483Y-74483617D01*
X152175995Y-74485298D01*
X152151722Y-74501172D01*
X152133014Y-74530732D01*
X152126489Y-74546913D01*
X152122979Y-74562101D01*
X152023166Y-74562101D01*
X152023165Y-74542948D01*
X152031383Y-74498545D01*
X152047155Y-74460325D01*
X152062743Y-74438180D01*
X152098563Y-74406321D01*
X152141502Y-74385993D01*
X152188627Y-74377926D01*
X152237008Y-74382848D01*
G37*
G36*
X152250862Y-75417588D02*
G01*
X152250847Y-75483008D01*
X152250756Y-75571052D01*
X152250555Y-75645325D01*
X152250217Y-75706949D01*
X152249713Y-75757045D01*
X152249014Y-75796737D01*
X152248093Y-75827146D01*
X152246919Y-75849396D01*
X152245466Y-75864606D01*
X152243705Y-75873901D01*
X152241606Y-75878402D01*
X152239142Y-75879232D01*
X152236739Y-75878713D01*
X152219222Y-75875803D01*
X152196171Y-75872729D01*
X152190460Y-75872021D01*
X152168828Y-75868818D01*
X152155153Y-75865997D01*
X152153202Y-75862890D01*
X152151333Y-75853037D01*
X152149764Y-75835490D01*
X152148474Y-75809258D01*
X152147442Y-75773348D01*
X152146645Y-75726771D01*
X152146062Y-75668533D01*
X152145672Y-75597645D01*
X152145454Y-75513114D01*
X152145386Y-75413949D01*
X152145452Y-75347763D01*
X152145708Y-75269165D01*
X152146141Y-75196428D01*
X152146731Y-75130946D01*
X152147461Y-75074116D01*
X152148312Y-75027331D01*
X152149264Y-74991986D01*
X152150301Y-74969478D01*
X152151402Y-74961200D01*
X152158819Y-74959347D01*
X152178208Y-74957056D01*
X152204140Y-74955318D01*
X152250862Y-74953154D01*
X152250862Y-75417588D01*
G37*
D13*
X141400000Y-86450000D02*
X141400000Y-87150000D01*
X142600000Y-87150000D02*
X142600000Y-86450000D01*
X144420000Y-89150000D02*
X144420000Y-87150000D01*
X147380000Y-87150000D02*
X147380000Y-89150000D01*
X139340000Y-98030000D02*
X139340000Y-98730000D01*
X140540000Y-98730000D02*
X140540000Y-98030000D01*
X142725000Y-79575000D02*
X143725000Y-79575000D01*
X143725000Y-81275000D02*
X142725000Y-81275000D01*
X142725000Y-74325000D02*
X143725000Y-74325000D01*
X143725000Y-76025000D02*
X142725000Y-76025000D01*
M02*
