G04 #@! TF.GenerationSoftware,KiCad,Pcbnew,10.0.3*
G04 #@! TF.CreationDate,2026-06-12T20:24:29+05:30*
G04 #@! TF.ProjectId,AirLink STM8,4169724c-696e-46b2-9053-544d382e6b69,rev?*
G04 #@! TF.SameCoordinates,Original*
G04 #@! TF.FileFunction,Legend,Top*
G04 #@! TF.FilePolarity,Positive*
%FSLAX46Y46*%
G04 Gerber Fmt 4.6, Leading zero omitted, Abs format (unit mm)*
G04 Created by KiCad (PCBNEW 10.0.3) date 2026-06-12 20:24:29*
%MOMM*%
%LPD*%
G01*
G04 APERTURE LIST*
%ADD10C,0.150000*%
%ADD11C,0.120000*%
G04 APERTURE END LIST*
D10*
X147188095Y-80498819D02*
X147188095Y-81308342D01*
X147188095Y-81308342D02*
X147235714Y-81403580D01*
X147235714Y-81403580D02*
X147283333Y-81451200D01*
X147283333Y-81451200D02*
X147378571Y-81498819D01*
X147378571Y-81498819D02*
X147569047Y-81498819D01*
X147569047Y-81498819D02*
X147664285Y-81451200D01*
X147664285Y-81451200D02*
X147711904Y-81403580D01*
X147711904Y-81403580D02*
X147759523Y-81308342D01*
X147759523Y-81308342D02*
X147759523Y-80498819D01*
X148759523Y-81498819D02*
X148188095Y-81498819D01*
X148473809Y-81498819D02*
X148473809Y-80498819D01*
X148473809Y-80498819D02*
X148378571Y-80641676D01*
X148378571Y-80641676D02*
X148283333Y-80736914D01*
X148283333Y-80736914D02*
X148188095Y-80784533D01*
X144323809Y-80788628D02*
X144323809Y-81264819D01*
X143990476Y-80264819D02*
X144323809Y-80788628D01*
X144323809Y-80788628D02*
X144657142Y-80264819D01*
X145514285Y-81264819D02*
X144942857Y-81264819D01*
X145228571Y-81264819D02*
X145228571Y-80264819D01*
X145228571Y-80264819D02*
X145133333Y-80407676D01*
X145133333Y-80407676D02*
X145038095Y-80502914D01*
X145038095Y-80502914D02*
X144942857Y-80550533D01*
X146986666Y-73324819D02*
X146986666Y-74039104D01*
X146986666Y-74039104D02*
X146939047Y-74181961D01*
X146939047Y-74181961D02*
X146843809Y-74277200D01*
X146843809Y-74277200D02*
X146700952Y-74324819D01*
X146700952Y-74324819D02*
X146605714Y-74324819D01*
X147986666Y-74324819D02*
X147415238Y-74324819D01*
X147700952Y-74324819D02*
X147700952Y-73324819D01*
X147700952Y-73324819D02*
X147605714Y-73467676D01*
X147605714Y-73467676D02*
X147510476Y-73562914D01*
X147510476Y-73562914D02*
X147415238Y-73610533D01*
X142887509Y-96234214D02*
X142935128Y-96091357D01*
X142935128Y-96091357D02*
X142982747Y-96043738D01*
X142982747Y-96043738D02*
X143077985Y-95996119D01*
X143077985Y-95996119D02*
X143220842Y-95996119D01*
X143220842Y-95996119D02*
X143316080Y-96043738D01*
X143316080Y-96043738D02*
X143363700Y-96091357D01*
X143363700Y-96091357D02*
X143411319Y-96186595D01*
X143411319Y-96186595D02*
X143411319Y-96567547D01*
X143411319Y-96567547D02*
X142411319Y-96567547D01*
X142411319Y-96567547D02*
X142411319Y-96234214D01*
X142411319Y-96234214D02*
X142458938Y-96138976D01*
X142458938Y-96138976D02*
X142506557Y-96091357D01*
X142506557Y-96091357D02*
X142601795Y-96043738D01*
X142601795Y-96043738D02*
X142697033Y-96043738D01*
X142697033Y-96043738D02*
X142792271Y-96091357D01*
X142792271Y-96091357D02*
X142839890Y-96138976D01*
X142839890Y-96138976D02*
X142887509Y-96234214D01*
X142887509Y-96234214D02*
X142887509Y-96567547D01*
X142411319Y-95710404D02*
X142411319Y-95138976D01*
X143411319Y-95424690D02*
X142411319Y-95424690D01*
X143411319Y-94281833D02*
X143411319Y-94853261D01*
X143411319Y-94567547D02*
X142411319Y-94567547D01*
X142411319Y-94567547D02*
X142554176Y-94662785D01*
X142554176Y-94662785D02*
X142649414Y-94758023D01*
X142649414Y-94758023D02*
X142697033Y-94853261D01*
X147371200Y-93269928D02*
X147371200Y-92127071D01*
X147942628Y-92698499D02*
X146799771Y-92698499D01*
X138186819Y-100456904D02*
X138996342Y-100456904D01*
X138996342Y-100456904D02*
X139091580Y-100409285D01*
X139091580Y-100409285D02*
X139139200Y-100361666D01*
X139139200Y-100361666D02*
X139186819Y-100266428D01*
X139186819Y-100266428D02*
X139186819Y-100075952D01*
X139186819Y-100075952D02*
X139139200Y-99980714D01*
X139139200Y-99980714D02*
X139091580Y-99933095D01*
X139091580Y-99933095D02*
X138996342Y-99885476D01*
X138996342Y-99885476D02*
X138186819Y-99885476D01*
X138282057Y-99456904D02*
X138234438Y-99409285D01*
X138234438Y-99409285D02*
X138186819Y-99314047D01*
X138186819Y-99314047D02*
X138186819Y-99075952D01*
X138186819Y-99075952D02*
X138234438Y-98980714D01*
X138234438Y-98980714D02*
X138282057Y-98933095D01*
X138282057Y-98933095D02*
X138377295Y-98885476D01*
X138377295Y-98885476D02*
X138472533Y-98885476D01*
X138472533Y-98885476D02*
X138615390Y-98933095D01*
X138615390Y-98933095D02*
X139186819Y-99504523D01*
X139186819Y-99504523D02*
X139186819Y-98885476D01*
X155475517Y-96002994D02*
X155408173Y-96002994D01*
X155408173Y-96002994D02*
X155273486Y-95935650D01*
X155273486Y-95935650D02*
X155206143Y-95868307D01*
X155206143Y-95868307D02*
X155138799Y-95733620D01*
X155138799Y-95733620D02*
X155138799Y-95598933D01*
X155138799Y-95598933D02*
X155172471Y-95497918D01*
X155172471Y-95497918D02*
X155273486Y-95329559D01*
X155273486Y-95329559D02*
X155374501Y-95228544D01*
X155374501Y-95228544D02*
X155542860Y-95127528D01*
X155542860Y-95127528D02*
X155643875Y-95093857D01*
X155643875Y-95093857D02*
X155778562Y-95093857D01*
X155778562Y-95093857D02*
X155913249Y-95161200D01*
X155913249Y-95161200D02*
X155980593Y-95228544D01*
X155980593Y-95228544D02*
X156047936Y-95363231D01*
X156047936Y-95363231D02*
X156047936Y-95430574D01*
X156485669Y-96205024D02*
X156014265Y-96676429D01*
X156586684Y-95767292D02*
X155913249Y-96104009D01*
X155913249Y-96104009D02*
X156350982Y-96541742D01*
X144200000Y-81894000D02*
X150175000Y-81894000D01*
X145725000Y-88794000D02*
X150175000Y-88794000D01*
D11*
X143700000Y-76840000D02*
X143250000Y-76840000D01*
X143700000Y-78740000D02*
X143250000Y-78740000D01*
X144850000Y-76090000D02*
X144850000Y-79490000D01*
X144850000Y-77245000D02*
X143700000Y-76840000D01*
X144850000Y-78335000D02*
X143700000Y-78740000D01*
X144850000Y-79490000D02*
X153250000Y-79490000D01*
X153250000Y-76090000D02*
X144850000Y-76090000D01*
X153250000Y-79490000D02*
X153250000Y-76090000D01*
X138370000Y-74870000D02*
X139700000Y-74870000D01*
X138370000Y-76200000D02*
X138370000Y-74870000D01*
X138370000Y-77470000D02*
X138370000Y-95310000D01*
X138370000Y-77470000D02*
X140970000Y-77470000D01*
X138370000Y-95310000D02*
X140970000Y-95250000D01*
D10*
X139700000Y-74930000D02*
X140970000Y-74930000D01*
D11*
X140970000Y-77470000D02*
X140970000Y-74870000D01*
D10*
X140970000Y-95250000D02*
X140970000Y-77470000D01*
X153670000Y-74930000D02*
X156210000Y-74930000D01*
X153670000Y-95250000D02*
X153670000Y-74930000D01*
X156210000Y-95250000D02*
X153670000Y-95250000D01*
D11*
X156270000Y-74870000D02*
X156270000Y-95310000D01*
X144256500Y-95448500D02*
X144256500Y-91448500D01*
X150256500Y-95448500D02*
X144256500Y-95448500D01*
X150256500Y-95448500D02*
X150256500Y-91948500D01*
X143730116Y-91196746D02*
G75*
G02*
X144256500Y-91948500I-273616J-751754D01*
G01*
X143756500Y-91198500D02*
G75*
G02*
X147301781Y-68752829I3500000J10950000D01*
G01*
X147211219Y-68752829D02*
G75*
G02*
X150756500Y-91198500I45281J-11495671D01*
G01*
X150256500Y-91948500D02*
G75*
G02*
X150782884Y-91196746I800000J0D01*
G01*
X139632000Y-72095000D02*
X155082000Y-72095000D01*
X139632000Y-101295000D02*
X139632000Y-72095000D01*
X139632000Y-101295000D02*
X139632000Y-101295000D01*
X140208000Y-95631000D02*
X150876000Y-95631000D01*
X140208000Y-100965000D02*
X140208000Y-95631000D01*
X140208000Y-100965000D02*
X140208000Y-100965000D01*
X140716000Y-98425000D02*
X143002000Y-98425000D01*
X143002000Y-98425000D02*
X143002000Y-100711000D01*
X143002000Y-100711000D02*
X143002000Y-100711000D01*
X150876000Y-95631000D02*
X150876000Y-100965000D01*
X150876000Y-100965000D02*
X140208000Y-100965000D01*
X150876000Y-100965000D02*
X150876000Y-100965000D01*
X155082000Y-72095000D02*
X155082000Y-101295000D01*
X155082000Y-101295000D02*
X139632000Y-101295000D01*
X151597918Y-96297918D02*
X152234315Y-96934315D01*
X152234315Y-96297918D02*
X151597918Y-96934315D01*
X153125269Y-98928356D02*
X152236436Y-99817189D01*
X153153553Y-98956640D02*
X152268256Y-99841938D01*
X153181838Y-98984924D02*
X152300783Y-99865979D01*
X153210122Y-99013209D02*
X152334017Y-99889314D01*
X153238406Y-99041493D02*
X152367251Y-99912648D01*
X153266690Y-99069777D02*
X152401192Y-99935276D01*
X153294975Y-99098061D02*
X152435840Y-99957196D01*
X153323259Y-99126346D02*
X152471195Y-99978409D01*
X153351543Y-99154630D02*
X152507258Y-99998915D01*
X153379828Y-99182914D02*
X152543320Y-100019421D01*
X153408112Y-99211198D02*
X152580797Y-100038513D01*
X153436396Y-99239483D02*
X152618274Y-100057605D01*
X153465387Y-99268474D02*
X152657164Y-100076697D01*
X153493672Y-99296758D02*
X152696762Y-100093668D01*
X153521956Y-99325043D02*
X152736360Y-100110638D01*
X153550240Y-99353327D02*
X152776665Y-100126902D01*
X153578525Y-99381611D02*
X152817678Y-100142458D01*
X153606809Y-99409895D02*
X152859397Y-100157307D01*
X153635093Y-99438180D02*
X152901823Y-100171449D01*
X153663377Y-99466464D02*
X152944957Y-100184884D01*
X153691662Y-99494748D02*
X152989505Y-100196905D01*
X153719946Y-99523033D02*
X153034052Y-100208926D01*
X153748230Y-99551317D02*
X153080014Y-100219533D01*
X153776514Y-99579601D02*
X153126683Y-100229432D01*
X153804799Y-99607885D02*
X153174059Y-100238625D01*
X153833083Y-99636170D02*
X153222850Y-100246403D01*
X153861367Y-99664454D02*
X153272347Y-100253474D01*
X153889652Y-99692738D02*
X153323259Y-100259131D01*
X153917936Y-99721022D02*
X153375585Y-100263373D01*
X153946220Y-99749307D02*
X153428618Y-100266909D01*
X153974504Y-99777591D02*
X153483065Y-100269030D01*
X154002789Y-99805875D02*
X153538927Y-100269737D01*
X154031073Y-99834159D02*
X153596202Y-100269030D01*
X154059357Y-99862444D02*
X153655599Y-100266202D01*
X154087641Y-99890728D02*
X153716410Y-100261959D01*
X154115926Y-99919012D02*
X153779343Y-100255595D01*
X154144210Y-99947297D02*
X153844397Y-100247110D01*
X154172494Y-99975581D02*
X153912279Y-100235796D01*
X154200779Y-100003865D02*
X153982990Y-100221654D01*
X154956676Y-96757538D02*
X152057538Y-99656676D01*
X154984960Y-96785822D02*
X152085822Y-99684960D01*
X155012537Y-96814814D02*
X152114814Y-99712537D01*
X155039407Y-96844512D02*
X152144512Y-99739407D01*
X155065570Y-96874918D02*
X152174918Y-99765570D01*
X155091733Y-96905323D02*
X152205323Y-99791733D01*
X155095269Y-99561923D02*
X154861923Y-99795269D01*
X155117189Y-96936436D02*
X154228356Y-97825269D01*
X155141938Y-96968256D02*
X154256640Y-97853553D01*
X155165979Y-97000783D02*
X154284924Y-97881838D01*
X155189314Y-97034017D02*
X154313209Y-97910122D01*
X155212648Y-97067251D02*
X154341493Y-97938406D01*
X155235276Y-97101192D02*
X154369777Y-97966690D01*
X155243761Y-99356862D02*
X154656862Y-99943761D01*
X155257196Y-97135840D02*
X154398061Y-97994975D01*
X155278409Y-97171195D02*
X154426346Y-98023259D01*
X155298915Y-97207258D02*
X154454630Y-98051543D01*
X155319421Y-97243320D02*
X154482914Y-98079828D01*
X155322957Y-99221098D02*
X154521098Y-100022957D01*
X155338513Y-97280797D02*
X154511198Y-98108112D01*
X155357605Y-97318274D02*
X154539483Y-98136396D01*
X155376697Y-97357164D02*
X154568474Y-98165387D01*
X155378818Y-99108668D02*
X154408668Y-100078818D01*
X155393668Y-97396762D02*
X154596758Y-98193672D01*
X155410638Y-97436360D02*
X154625043Y-98221956D01*
X155421245Y-99009673D02*
X154309673Y-100121245D01*
X155426902Y-97476665D02*
X154653327Y-98250240D01*
X155442458Y-97517678D02*
X154681611Y-98278525D01*
X155455186Y-98919163D02*
X154219163Y-100155186D01*
X155457307Y-97559397D02*
X154709895Y-98306809D01*
X155471449Y-97601823D02*
X154738180Y-98335093D01*
X155482056Y-98835725D02*
X154135725Y-100182056D01*
X155484884Y-97644957D02*
X154766464Y-98363377D01*
X155496905Y-97689505D02*
X154794748Y-98391662D01*
X155503976Y-98757236D02*
X154057236Y-100203976D01*
X155508926Y-97734052D02*
X154823033Y-98419946D01*
X155519533Y-97780014D02*
X154851317Y-98448230D01*
X155521654Y-98682990D02*
X155303865Y-98900779D01*
X155529432Y-97826683D02*
X154879601Y-98476514D01*
X155535796Y-98612279D02*
X155275581Y-98872494D01*
X155538625Y-97874059D02*
X154907885Y-98504799D01*
X155546403Y-97922850D02*
X154936170Y-98533083D01*
X155547110Y-98544397D02*
X155247297Y-98844210D01*
X155553474Y-97972347D02*
X154964454Y-98561367D01*
X155555595Y-98479343D02*
X155219012Y-98815926D01*
X155559131Y-98023259D02*
X154992738Y-98589652D01*
X155561959Y-98416410D02*
X155190728Y-98787641D01*
X155563373Y-98075585D02*
X155021022Y-98617936D01*
X155566202Y-98355599D02*
X155162444Y-98759357D01*
X155566909Y-98128618D02*
X155049307Y-98646220D01*
X155569030Y-98183065D02*
X155077591Y-98674504D01*
X155569030Y-98296202D02*
X155134159Y-98731073D01*
X155569737Y-98238927D02*
X155105875Y-98702789D01*
X152894755Y-96208826D02*
G75*
G02*
X155505113Y-98820356I612352J-1998281D01*
G01*
X154120356Y-100205112D02*
G75*
G02*
X151508827Y-97594755I-613249J1998005D01*
G01*
X155505388Y-98819458D02*
G75*
G02*
X154120356Y-100205113I-1998281J612351D01*
G01*
M02*
