G04 #@! TF.GenerationSoftware,KiCad,Pcbnew,10.0.3*
G04 #@! TF.CreationDate,2026-06-12T20:24:29+05:30*
G04 #@! TF.ProjectId,AirLink STM8,4169724c-696e-46b2-9053-544d382e6b69,rev?*
G04 #@! TF.SameCoordinates,Original*
G04 #@! TF.FileFunction,Copper,L1,Top*
G04 #@! TF.FilePolarity,Positive*
%FSLAX46Y46*%
G04 Gerber Fmt 4.6, Leading zero omitted, Abs format (unit mm)*
G04 Created by KiCad (PCBNEW 10.0.3) date 2026-06-12 20:24:29*
%MOMM*%
%LPD*%
G01*
G04 APERTURE LIST*
G04 Aperture macros list*
%AMRotRect*
0 Rectangle, with rotation*
0 The origin of the aperture is its center*
0 $1 length*
0 $2 width*
0 $3 Rotation angle, in degrees counterclockwise*
0 Add horizontal line*
21,1,$1,$2,0,0,$3*%
G04 Aperture macros list end*
G04 #@! TA.AperFunction,SMDPad,CuDef*
%ADD10R,1.450000X0.450000*%
G04 #@! TD*
G04 #@! TA.AperFunction,ComponentPad*
%ADD11C,1.000000*%
G04 #@! TD*
G04 #@! TA.AperFunction,ComponentPad*
%ADD12R,1.700000X1.700000*%
G04 #@! TD*
G04 #@! TA.AperFunction,ComponentPad*
%ADD13O,1.700000X1.700000*%
G04 #@! TD*
G04 #@! TA.AperFunction,ComponentPad*
%ADD14R,3.000000X2.400000*%
G04 #@! TD*
G04 #@! TA.AperFunction,ComponentPad*
%ADD15R,2.400000X2.400000*%
G04 #@! TD*
G04 #@! TA.AperFunction,ComponentPad*
%ADD16R,1.524000X1.524000*%
G04 #@! TD*
G04 #@! TA.AperFunction,ComponentPad*
%ADD17C,1.524000*%
G04 #@! TD*
G04 #@! TA.AperFunction,ComponentPad*
%ADD18RotRect,1.200000X1.200000X315.000000*%
G04 #@! TD*
G04 #@! TA.AperFunction,ComponentPad*
%ADD19C,1.200000*%
G04 #@! TD*
G04 #@! TA.AperFunction,ViaPad*
%ADD20C,0.800000*%
G04 #@! TD*
G04 #@! TA.AperFunction,Conductor*
%ADD21C,0.250000*%
G04 #@! TD*
G04 APERTURE END LIST*
D10*
X145000000Y-82419000D03*
X145000000Y-83069000D03*
X145000000Y-83719000D03*
X145000000Y-84369000D03*
X145000000Y-85019000D03*
X145000000Y-85669000D03*
X145000000Y-86319000D03*
X145000000Y-86969000D03*
X145000000Y-87619000D03*
X145000000Y-88269000D03*
X150900000Y-88269000D03*
X150900000Y-87619000D03*
X150900000Y-86969000D03*
X150900000Y-86319000D03*
X150900000Y-85669000D03*
X150900000Y-85019000D03*
X150900000Y-84369000D03*
X150900000Y-83719000D03*
X150900000Y-83069000D03*
X150900000Y-82419000D03*
D11*
X142550000Y-78740000D03*
X142550000Y-76840000D03*
D12*
X139700000Y-76200000D03*
D13*
X139700000Y-78740000D03*
X139700000Y-81280000D03*
X139700000Y-83820000D03*
X139700000Y-86360000D03*
X139700000Y-88900000D03*
X139700000Y-91440000D03*
X139700000Y-93980000D03*
X154940000Y-93980000D03*
X154940000Y-91440000D03*
X154940000Y-88900000D03*
X154940000Y-86360000D03*
X154940000Y-83820000D03*
X154940000Y-81280000D03*
X154940000Y-78740000D03*
X154940000Y-76200000D03*
D14*
X147256500Y-93448500D03*
D15*
X147256500Y-73088500D03*
D16*
X141732000Y-99695000D03*
D17*
X141732000Y-97155000D03*
X144272000Y-99695000D03*
X144272000Y-97155000D03*
X146812000Y-99695000D03*
X146812000Y-97155000D03*
X149352000Y-99695000D03*
X149352000Y-97155000D03*
D18*
X152800000Y-97500000D03*
D19*
X154214214Y-98914214D03*
D20*
X143000000Y-87750000D03*
X148200000Y-85400000D03*
X143000000Y-85850000D03*
X152589978Y-89314597D03*
X152589978Y-91600699D03*
D21*
X144025000Y-86969000D02*
X145000000Y-86969000D01*
X143215315Y-86969000D02*
X144025000Y-86969000D01*
X139700000Y-88900000D02*
X141850000Y-88900000D01*
X143000000Y-87184315D02*
X143215315Y-86969000D01*
X143000000Y-87750000D02*
X143000000Y-87184315D01*
X141850000Y-88900000D02*
X143000000Y-87750000D01*
X143000000Y-85850000D02*
X143469000Y-86319000D01*
X147281000Y-86319000D02*
X148200000Y-85400000D01*
X145000000Y-86319000D02*
X147281000Y-86319000D01*
X143469000Y-86319000D02*
X145000000Y-86319000D01*
X145000000Y-82419000D02*
X145000000Y-81190000D01*
X145000000Y-81190000D02*
X142550000Y-78740000D01*
X145000000Y-83069000D02*
X144025000Y-83069000D01*
X144025000Y-83069000D02*
X141950000Y-80994000D01*
X142050001Y-77339999D02*
X142550000Y-76840000D01*
X141724999Y-79136001D02*
X141724999Y-77665001D01*
X141724999Y-77665001D02*
X142050001Y-77339999D01*
X141950000Y-80994000D02*
X141950000Y-79361002D01*
X141950000Y-79361002D02*
X141724999Y-79136001D01*
X152589978Y-90549988D02*
X152589978Y-89880282D01*
X153314988Y-95435012D02*
X153314988Y-91274998D01*
X149352000Y-99695000D02*
X150113999Y-98933001D01*
X154391000Y-84369000D02*
X154940000Y-83820000D01*
X150113999Y-98933001D02*
X150113999Y-98636001D01*
X153314988Y-91274998D02*
X152589978Y-90549988D01*
X150900000Y-84369000D02*
X154391000Y-84369000D01*
X152589978Y-89880282D02*
X152589978Y-89314597D01*
X150113999Y-98636001D02*
X153314988Y-95435012D01*
X143184999Y-97676761D02*
X143184999Y-91759001D01*
X149925000Y-85019000D02*
X150900000Y-85019000D01*
X153599000Y-85019000D02*
X154940000Y-86360000D01*
X143750239Y-98242001D02*
X143184999Y-97676761D01*
X146812000Y-97155000D02*
X146708590Y-97155000D01*
X145621589Y-98242001D02*
X143750239Y-98242001D01*
X146708590Y-97155000D02*
X145621589Y-98242001D01*
X150900000Y-85019000D02*
X153599000Y-85019000D01*
X143184999Y-91759001D02*
X149925000Y-85019000D01*
X150900000Y-82419000D02*
X150900000Y-80240000D01*
X150900000Y-80240000D02*
X154940000Y-76200000D01*
X154940000Y-88734000D02*
X154940000Y-88900000D01*
X151875000Y-85669000D02*
X154940000Y-88734000D01*
X149663988Y-98449601D02*
X152589978Y-95523611D01*
X150900000Y-85669000D02*
X151875000Y-85669000D01*
X152589978Y-92166384D02*
X152589978Y-91600699D01*
X148057399Y-98449601D02*
X149663988Y-98449601D01*
X152589978Y-95523611D02*
X152589978Y-92166384D01*
X146812000Y-99695000D02*
X148057399Y-98449601D01*
X151875000Y-83069000D02*
X153764999Y-81179001D01*
X150900000Y-83069000D02*
X151875000Y-83069000D01*
X153764999Y-79915001D02*
X154090001Y-79589999D01*
X154090001Y-79589999D02*
X154940000Y-78740000D01*
X153764999Y-81179001D02*
X153764999Y-79915001D01*
X145033999Y-98933001D02*
X145566999Y-98933001D01*
X147333761Y-98242001D02*
X148264999Y-97310763D01*
X149081501Y-95018499D02*
X149081501Y-87432088D01*
X148264999Y-95835001D02*
X149081501Y-95018499D01*
X153764999Y-88779380D02*
X153764999Y-90264999D01*
X145566999Y-98933001D02*
X146257999Y-98242001D01*
X149925000Y-86969000D02*
X150900000Y-86969000D01*
X153764999Y-90264999D02*
X154090001Y-90590001D01*
X154090001Y-90590001D02*
X154940000Y-91440000D01*
X150900000Y-86969000D02*
X151954619Y-86969000D01*
X151954619Y-86969000D02*
X153764999Y-88779380D01*
X146257999Y-98242001D02*
X147333761Y-98242001D01*
X148264999Y-97310763D02*
X148264999Y-95835001D01*
X149544589Y-86969000D02*
X149925000Y-86969000D01*
X149081501Y-87432088D02*
X149544589Y-86969000D01*
X144272000Y-99695000D02*
X145033999Y-98933001D01*
X152501000Y-83719000D02*
X154940000Y-81280000D01*
X150900000Y-83719000D02*
X152501000Y-83719000D01*
X149352000Y-97155000D02*
X149352000Y-96077370D01*
X149925000Y-87619000D02*
X150900000Y-87619000D01*
X149352000Y-96077370D02*
X149849999Y-95579371D01*
X149849999Y-95579371D02*
X149849999Y-87694001D01*
X149849999Y-87694001D02*
X149925000Y-87619000D01*
X140902081Y-83820000D02*
X139700000Y-83820000D01*
X144025000Y-85669000D02*
X142176000Y-83820000D01*
X142176000Y-83820000D02*
X140902081Y-83820000D01*
X145000000Y-85669000D02*
X144025000Y-85669000D01*
X153314988Y-90574987D02*
X153764999Y-91024998D01*
X153764999Y-91024998D02*
X153764999Y-92804999D01*
X153764999Y-92804999D02*
X154090001Y-93130001D01*
X150900000Y-88269000D02*
X152618208Y-88269000D01*
X154090001Y-93130001D02*
X154940000Y-93980000D01*
X152618208Y-88269000D02*
X153314988Y-88965780D01*
X153314988Y-88965780D02*
X153314988Y-90574987D01*
X141135999Y-82129999D02*
X140549999Y-82129999D01*
X144025000Y-85019000D02*
X141135999Y-82129999D01*
X140549999Y-82129999D02*
X139700000Y-81280000D01*
X145000000Y-85019000D02*
X144025000Y-85019000D01*
X139700000Y-93980000D02*
X145000000Y-88680000D01*
X145000000Y-88680000D02*
X145000000Y-88269000D01*
X145000000Y-84369000D02*
X144025000Y-84369000D01*
X140875001Y-81219001D02*
X140875001Y-80715999D01*
X139700000Y-79540998D02*
X139700000Y-78740000D01*
X140875001Y-80715999D02*
X139700000Y-79540998D01*
X144025000Y-84369000D02*
X140875001Y-81219001D01*
X144025000Y-83719000D02*
X141325012Y-81019012D01*
X141274988Y-79322401D02*
X141274988Y-76674988D01*
X140800000Y-76200000D02*
X139700000Y-76200000D01*
X141274988Y-76674988D02*
X140800000Y-76200000D01*
X145000000Y-83719000D02*
X144025000Y-83719000D01*
X141325012Y-79372425D02*
X141274988Y-79322401D01*
X141325012Y-81019012D02*
X141325012Y-79372425D01*
X144272000Y-97155000D02*
X144272000Y-91605178D01*
X144272000Y-91605178D02*
X149558178Y-86319000D01*
X149558178Y-86319000D02*
X149925000Y-86319000D01*
X149925000Y-86319000D02*
X150900000Y-86319000D01*
X143949999Y-87694001D02*
X144025000Y-87619000D01*
X143949999Y-87950001D02*
X143949999Y-87694001D01*
X140549999Y-90590001D02*
X141309999Y-90590001D01*
X139700000Y-91440000D02*
X140549999Y-90590001D01*
X141309999Y-90590001D02*
X143949999Y-87950001D01*
X144025000Y-87619000D02*
X145000000Y-87619000D01*
G04 #@! TA.AperFunction,Conductor*
G36*
X145490621Y-72020002D02*
G01*
X145537114Y-72073658D01*
X145548500Y-72126000D01*
X145548500Y-72834500D01*
X146710327Y-72834500D01*
X146697389Y-72856909D01*
X146656500Y-73009509D01*
X146656500Y-73167491D01*
X146697389Y-73320091D01*
X146710327Y-73342500D01*
X145548500Y-73342500D01*
X145548500Y-74337097D01*
X145555005Y-74397593D01*
X145606055Y-74534464D01*
X145606055Y-74534465D01*
X145693595Y-74651404D01*
X145810534Y-74738944D01*
X145947406Y-74789994D01*
X146007902Y-74796499D01*
X146007915Y-74796500D01*
X147002500Y-74796500D01*
X147002500Y-73634673D01*
X147024909Y-73647611D01*
X147177509Y-73688500D01*
X147335491Y-73688500D01*
X147488091Y-73647611D01*
X147510500Y-73634673D01*
X147510500Y-74796500D01*
X148505085Y-74796500D01*
X148505097Y-74796499D01*
X148565593Y-74789994D01*
X148702464Y-74738944D01*
X148702465Y-74738944D01*
X148819404Y-74651404D01*
X148906944Y-74534465D01*
X148906944Y-74534464D01*
X148957994Y-74397593D01*
X148964499Y-74337097D01*
X148964500Y-74337085D01*
X148964500Y-73342500D01*
X147802673Y-73342500D01*
X147815611Y-73320091D01*
X147856500Y-73167491D01*
X147856500Y-73009509D01*
X147815611Y-72856909D01*
X147802673Y-72834500D01*
X148964500Y-72834500D01*
X148964500Y-72126000D01*
X148984502Y-72057879D01*
X149038158Y-72011386D01*
X149090500Y-72000000D01*
X155124000Y-72000000D01*
X155192121Y-72020002D01*
X155238614Y-72073658D01*
X155250000Y-72126000D01*
X155250000Y-74726138D01*
X155229998Y-74794259D01*
X155176342Y-74840752D01*
X155106068Y-74850856D01*
X155104290Y-74850587D01*
X155081754Y-74847017D01*
X155046916Y-74841500D01*
X154833084Y-74841500D01*
X154621884Y-74874951D01*
X154621878Y-74874952D01*
X154418521Y-74941026D01*
X154418515Y-74941029D01*
X154329731Y-74986267D01*
X154272528Y-75000000D01*
X153750000Y-75000000D01*
X153750000Y-75512901D01*
X153736267Y-75570103D01*
X153681031Y-75678509D01*
X153681026Y-75678521D01*
X153614952Y-75881878D01*
X153614951Y-75881883D01*
X153614951Y-75881884D01*
X153581500Y-76093084D01*
X153581500Y-76306916D01*
X153614951Y-76518116D01*
X153614952Y-76518119D01*
X153618321Y-76528490D01*
X153620343Y-76599458D01*
X153587580Y-76656513D01*
X150496167Y-79747929D01*
X150407931Y-79836164D01*
X150407926Y-79836171D01*
X150338601Y-79939923D01*
X150290846Y-80055212D01*
X150266500Y-80177603D01*
X150266500Y-80279272D01*
X150246498Y-80347393D01*
X150233690Y-80364075D01*
X149200000Y-81499999D01*
X149200000Y-84795905D01*
X149179998Y-84864026D01*
X149163095Y-84885000D01*
X146829061Y-87219033D01*
X146766749Y-87253059D01*
X146742388Y-87255915D01*
X146361922Y-87263231D01*
X146293430Y-87244542D01*
X146245914Y-87191790D01*
X146233500Y-87137254D01*
X146233500Y-86695366D01*
X146233499Y-86695356D01*
X146226989Y-86634799D01*
X146175889Y-86497796D01*
X146161441Y-86478496D01*
X146161441Y-86478495D01*
X146098569Y-86394509D01*
X146073758Y-86327989D01*
X146088849Y-86258615D01*
X146098569Y-86243491D01*
X146172680Y-86144491D01*
X146211779Y-86115221D01*
X146233000Y-86094001D01*
X146233000Y-86045413D01*
X146232999Y-86045406D01*
X146229173Y-86009821D01*
X146229173Y-85982886D01*
X146233500Y-85942638D01*
X146233500Y-85395362D01*
X146229426Y-85357468D01*
X146229426Y-85330530D01*
X146233499Y-85292645D01*
X146233500Y-85292633D01*
X146233500Y-84745366D01*
X146233499Y-84745354D01*
X146229426Y-84707470D01*
X146229426Y-84680530D01*
X146233499Y-84642645D01*
X146233500Y-84642633D01*
X146233500Y-84095366D01*
X146233499Y-84095354D01*
X146229426Y-84057470D01*
X146229426Y-84030530D01*
X146233499Y-83992645D01*
X146233500Y-83992633D01*
X146233500Y-83445366D01*
X146233499Y-83445354D01*
X146229426Y-83407470D01*
X146229426Y-83380530D01*
X146233499Y-83342645D01*
X146233500Y-83342633D01*
X146233500Y-82795366D01*
X146233499Y-82795354D01*
X146229426Y-82757470D01*
X146229426Y-82730530D01*
X146233499Y-82692645D01*
X146233500Y-82692633D01*
X146233500Y-82145367D01*
X146233499Y-82145350D01*
X146226990Y-82084803D01*
X146226988Y-82084795D01*
X146175889Y-81947797D01*
X146175887Y-81947792D01*
X146088261Y-81830738D01*
X145971207Y-81743112D01*
X145971202Y-81743110D01*
X145834204Y-81692011D01*
X145834196Y-81692009D01*
X145773649Y-81685500D01*
X145773638Y-81685500D01*
X145759500Y-81685500D01*
X145691379Y-81665498D01*
X145644886Y-81611842D01*
X145633500Y-81559500D01*
X145633500Y-81127607D01*
X145633499Y-81127603D01*
X145609155Y-81005215D01*
X145561400Y-80889925D01*
X145492071Y-80786167D01*
X145403833Y-80697929D01*
X143595405Y-78889501D01*
X143561379Y-78827189D01*
X143558500Y-78800406D01*
X143558500Y-78640672D01*
X143558499Y-78640668D01*
X143519744Y-78445831D01*
X143443721Y-78262296D01*
X143333353Y-78097119D01*
X143286905Y-78050671D01*
X143252879Y-77988359D01*
X143250000Y-77961576D01*
X143250000Y-77618424D01*
X143270002Y-77550303D01*
X143286905Y-77529329D01*
X143291450Y-77524784D01*
X143333353Y-77482881D01*
X143443721Y-77317704D01*
X143519744Y-77134169D01*
X143558500Y-76939329D01*
X143558500Y-76740671D01*
X143519744Y-76545831D01*
X143443721Y-76362296D01*
X143333353Y-76197119D01*
X143286905Y-76150671D01*
X143252879Y-76088359D01*
X143250000Y-76061576D01*
X143250000Y-72126000D01*
X143270002Y-72057879D01*
X143323658Y-72011386D01*
X143376000Y-72000000D01*
X145422500Y-72000000D01*
X145490621Y-72020002D01*
G37*
G04 #@! TD.AperFunction*
M02*
