G04 #@! TF.GenerationSoftware,KiCad,Pcbnew,10.0.3*
G04 #@! TF.CreationDate,2026-06-12T20:24:29+05:30*
G04 #@! TF.ProjectId,AirLink STM8,4169724c-696e-46b2-9053-544d382e6b69,rev?*
G04 #@! TF.SameCoordinates,Original*
G04 #@! TF.FileFunction,Copper,L2,Bot*
G04 #@! TF.FilePolarity,Positive*
%FSLAX46Y46*%
G04 Gerber Fmt 4.6, Leading zero omitted, Abs format (unit mm)*
G04 Created by KiCad (PCBNEW 10.0.3) date 2026-06-12 20:24:29*
%MOMM*%
%LPD*%
G01*
G04 APERTURE LIST*
G04 Aperture macros list*
%AMRotRect*
0 Rectangle, with rotation*
0 The origin of the aperture is its center*
0 $1 length*
0 $2 width*
0 $3 Rotation angle, in degrees counterclockwise*
0 Add horizontal line*
21,1,$1,$2,0,0,$3*%
G04 Aperture macros list end*
G04 #@! TA.AperFunction,ComponentPad*
%ADD10C,1.000000*%
G04 #@! TD*
G04 #@! TA.AperFunction,ComponentPad*
%ADD11R,1.700000X1.700000*%
G04 #@! TD*
G04 #@! TA.AperFunction,ComponentPad*
%ADD12O,1.700000X1.700000*%
G04 #@! TD*
G04 #@! TA.AperFunction,ComponentPad*
%ADD13R,3.000000X2.400000*%
G04 #@! TD*
G04 #@! TA.AperFunction,ComponentPad*
%ADD14R,2.400000X2.400000*%
G04 #@! TD*
G04 #@! TA.AperFunction,ComponentPad*
%ADD15R,1.524000X1.524000*%
G04 #@! TD*
G04 #@! TA.AperFunction,ComponentPad*
%ADD16C,1.524000*%
G04 #@! TD*
G04 #@! TA.AperFunction,ComponentPad*
%ADD17RotRect,1.200000X1.200000X315.000000*%
G04 #@! TD*
G04 #@! TA.AperFunction,ComponentPad*
%ADD18C,1.200000*%
G04 #@! TD*
G04 #@! TA.AperFunction,SMDPad,CuDef*
%ADD19R,0.750000X1.200000*%
G04 #@! TD*
G04 #@! TA.AperFunction,SMDPad,CuDef*
%ADD20R,2.500000X2.000000*%
G04 #@! TD*
G04 #@! TA.AperFunction,SMDPad,CuDef*
%ADD21R,1.000000X1.250000*%
G04 #@! TD*
G04 #@! TA.AperFunction,ViaPad*
%ADD22C,0.800000*%
G04 #@! TD*
G04 #@! TA.AperFunction,Conductor*
%ADD23C,0.600000*%
G04 #@! TD*
G04 #@! TA.AperFunction,Conductor*
%ADD24C,0.250000*%
G04 #@! TD*
G04 APERTURE END LIST*
D10*
X142550000Y-78740000D03*
X142550000Y-76840000D03*
D11*
X139700000Y-76200000D03*
D12*
X139700000Y-78740000D03*
X139700000Y-81280000D03*
X139700000Y-83820000D03*
X139700000Y-86360000D03*
X139700000Y-88900000D03*
X139700000Y-91440000D03*
X139700000Y-93980000D03*
X154940000Y-93980000D03*
X154940000Y-91440000D03*
X154940000Y-88900000D03*
X154940000Y-86360000D03*
X154940000Y-83820000D03*
X154940000Y-81280000D03*
X154940000Y-78740000D03*
X154940000Y-76200000D03*
D13*
X147256500Y-93448500D03*
D14*
X147256500Y-73088500D03*
D15*
X141732000Y-99695000D03*
D16*
X141732000Y-97155000D03*
X144272000Y-99695000D03*
X144272000Y-97155000D03*
X146812000Y-99695000D03*
X146812000Y-97155000D03*
X149352000Y-99695000D03*
X149352000Y-97155000D03*
D17*
X152800000Y-97500000D03*
D18*
X154214214Y-98914214D03*
D19*
X142000000Y-87750000D03*
X142000000Y-85850000D03*
D20*
X145900000Y-90150000D03*
X145900000Y-86150000D03*
D19*
X139940000Y-97430000D03*
X139940000Y-99330000D03*
D21*
X144225000Y-80425000D03*
X142225000Y-80425000D03*
X144225000Y-75175000D03*
X142225000Y-75175000D03*
D22*
X143000000Y-87750000D03*
X148200000Y-85400000D03*
X143000000Y-85850000D03*
X152589978Y-89314597D03*
X152589978Y-91600699D03*
D23*
X141732000Y-97155000D02*
X140401000Y-97155000D01*
X145900000Y-90150000D02*
X145400000Y-90150000D01*
X141732000Y-97155000D02*
X142493999Y-96393001D01*
X142493999Y-96393001D02*
X142493999Y-96111001D01*
X145156500Y-93448500D02*
X147256500Y-93448500D01*
X147256500Y-91506500D02*
X145900000Y-90150000D01*
X145400000Y-90150000D02*
X143000000Y-87750000D01*
D24*
X147698500Y-93448500D02*
X147256500Y-93448500D01*
D23*
X148748500Y-93448500D02*
X147256500Y-93448500D01*
X142000000Y-87750000D02*
X143000000Y-87750000D01*
X152800000Y-97500000D02*
X148748500Y-93448500D01*
X147256500Y-93448500D02*
X147256500Y-91506500D01*
X140401000Y-97155000D02*
X140081000Y-97475000D01*
X142493999Y-96111001D02*
X145156500Y-93448500D01*
D24*
X141732000Y-98683000D02*
X141732000Y-99695000D01*
D23*
X147450000Y-86150000D02*
X148200000Y-85400000D01*
D24*
X141412000Y-99375000D02*
X141732000Y-99695000D01*
X149873761Y-98607999D02*
X141807001Y-98607999D01*
D23*
X140401000Y-99695000D02*
X140081000Y-99375000D01*
D24*
X143981000Y-80264000D02*
X144206000Y-80264000D01*
D23*
X141490000Y-86360000D02*
X142000000Y-85850000D01*
D24*
X150179976Y-98914214D02*
X149873761Y-98607999D01*
D23*
X141732000Y-99695000D02*
X140401000Y-99695000D01*
D24*
X154214214Y-98914214D02*
X150179976Y-98914214D01*
D23*
X145900000Y-86150000D02*
X147450000Y-86150000D01*
D24*
X141807001Y-98607999D02*
X141732000Y-98683000D01*
D23*
X142000000Y-85850000D02*
X143000000Y-85850000D01*
X139700000Y-86360000D02*
X141490000Y-86360000D01*
D24*
X142240000Y-80198000D02*
X142306000Y-80264000D01*
X142240000Y-78740000D02*
X142240000Y-80198000D01*
X142240000Y-75504000D02*
X142306000Y-75438000D01*
X142240000Y-76840000D02*
X142240000Y-75504000D01*
X152589978Y-88748912D02*
X152589978Y-89314597D01*
X152589978Y-86170022D02*
X152589978Y-88748912D01*
X154940000Y-83820000D02*
X152589978Y-86170022D01*
X152589978Y-91250022D02*
X152589978Y-91600699D01*
X154940000Y-88900000D02*
X152589978Y-91250022D01*
G04 #@! TA.AperFunction,Conductor*
G36*
X141240909Y-87754843D02*
G01*
X141253598Y-87758966D01*
X141271392Y-87771894D01*
X141300944Y-87793364D01*
X141303097Y-87794928D01*
X141306092Y-87799050D01*
X141325001Y-87857240D01*
X141325001Y-88394791D01*
X141327909Y-88419872D01*
X141327909Y-88419873D01*
X141327909Y-88419876D01*
X141373212Y-88522475D01*
X141373213Y-88522477D01*
X141452522Y-88601786D01*
X141523698Y-88633213D01*
X141555126Y-88647090D01*
X141564694Y-88648199D01*
X141580203Y-88649999D01*
X141745999Y-88649999D01*
X141746000Y-88649999D01*
X141746000Y-87864680D01*
X141750843Y-87834094D01*
X141754965Y-87821405D01*
X141790923Y-87771906D01*
X141791522Y-87771471D01*
X141795063Y-87768900D01*
X141853243Y-87750000D01*
X142139320Y-87750000D01*
X142169908Y-87754843D01*
X142182597Y-87758966D01*
X142200391Y-87771894D01*
X142229943Y-87793364D01*
X142232096Y-87794928D01*
X142235091Y-87799050D01*
X142254000Y-87857240D01*
X142254000Y-88649998D01*
X142254001Y-88649999D01*
X142254002Y-88649999D01*
X142419790Y-88649999D01*
X142427384Y-88649999D01*
X142433514Y-88648407D01*
X142444874Y-88647090D01*
X142547477Y-88601786D01*
X142626786Y-88522477D01*
X142672090Y-88419872D01*
X142674999Y-88394797D01*
X142674999Y-87864680D01*
X142679842Y-87834094D01*
X142683964Y-87821405D01*
X142719922Y-87771906D01*
X142720521Y-87771471D01*
X142724062Y-87768900D01*
X142782242Y-87750000D01*
X149635320Y-87750000D01*
X149665908Y-87754843D01*
X149678597Y-87758966D01*
X149696391Y-87771894D01*
X149725943Y-87793364D01*
X149728096Y-87794928D01*
X149731091Y-87799050D01*
X149750000Y-87857240D01*
X149750000Y-94000000D01*
X152285664Y-96324359D01*
X152415546Y-96443417D01*
X152434822Y-96467659D01*
X152441389Y-96479271D01*
X152453575Y-96539230D01*
X152453109Y-96543313D01*
X152436078Y-96588536D01*
X152435259Y-96589716D01*
X152423933Y-96603270D01*
X152343208Y-96683996D01*
X152343208Y-96683997D01*
X152717640Y-97058430D01*
X152745417Y-97112946D01*
X152735846Y-97173378D01*
X152692581Y-97216643D01*
X152685531Y-97219893D01*
X152684209Y-97220440D01*
X152615796Y-97259939D01*
X152559938Y-97315797D01*
X152520446Y-97384199D01*
X152519899Y-97385521D01*
X152519233Y-97386300D01*
X152517199Y-97389824D01*
X152516546Y-97389447D01*
X152480163Y-97432048D01*
X152420668Y-97446332D01*
X152364140Y-97422918D01*
X152358431Y-97417641D01*
X151983997Y-97043208D01*
X151983996Y-97043208D01*
X151707679Y-97319528D01*
X151707659Y-97319549D01*
X151691989Y-97339331D01*
X151691986Y-97339336D01*
X151691983Y-97339343D01*
X151654001Y-97437386D01*
X151651472Y-97443915D01*
X151651471Y-97443921D01*
X151651471Y-97556082D01*
X151655710Y-97567023D01*
X151659949Y-97577965D01*
X151666482Y-97608245D01*
X151667113Y-97619621D01*
X151651458Y-97678770D01*
X151604038Y-97717415D01*
X151596294Y-97720416D01*
X151558617Y-97727087D01*
X150328686Y-97703434D01*
X150298191Y-97698000D01*
X150287429Y-97694273D01*
X150287428Y-97694272D01*
X150287427Y-97694272D01*
X150274918Y-97684810D01*
X150238630Y-97657365D01*
X150238629Y-97657363D01*
X150238628Y-97657362D01*
X150220844Y-97598823D01*
X150221014Y-97589974D01*
X150228530Y-97554000D01*
X150277512Y-97435751D01*
X150314500Y-97249798D01*
X150314500Y-97060202D01*
X150277512Y-96874249D01*
X150204956Y-96699085D01*
X150099622Y-96541442D01*
X149965558Y-96407378D01*
X149865054Y-96340223D01*
X149852548Y-96324359D01*
X149807921Y-96302046D01*
X149807914Y-96302043D01*
X149632754Y-96229489D01*
X149632748Y-96229487D01*
X149539774Y-96210993D01*
X149446802Y-96192500D01*
X149446800Y-96192500D01*
X149446798Y-96192500D01*
X149257202Y-96192500D01*
X149257199Y-96192500D01*
X149257196Y-96192500D01*
X149117738Y-96220240D01*
X149071251Y-96229487D01*
X149071245Y-96229489D01*
X149071242Y-96229490D01*
X148896085Y-96302042D01*
X148738440Y-96407379D01*
X148604379Y-96541440D01*
X148499042Y-96699085D01*
X148426490Y-96874242D01*
X148426487Y-96874252D01*
X148389500Y-97060196D01*
X148389500Y-97249802D01*
X148391517Y-97259940D01*
X148426487Y-97435748D01*
X148426488Y-97435750D01*
X148426489Y-97435754D01*
X148426489Y-97435757D01*
X148426490Y-97435758D01*
X148459084Y-97514448D01*
X148466315Y-97544563D01*
X148467209Y-97555919D01*
X148452927Y-97615414D01*
X148406402Y-97655152D01*
X148406400Y-97655153D01*
X148399406Y-97658050D01*
X148359616Y-97665568D01*
X147808759Y-97654974D01*
X147778264Y-97649540D01*
X147767502Y-97645813D01*
X147767501Y-97645812D01*
X147767500Y-97645812D01*
X147754991Y-97636350D01*
X147718703Y-97608905D01*
X147718702Y-97608903D01*
X147718701Y-97608902D01*
X147700917Y-97550363D01*
X147701087Y-97541514D01*
X147708606Y-97505534D01*
X147710577Y-97500777D01*
X147723597Y-97469344D01*
X147737509Y-97435759D01*
X147737509Y-97435756D01*
X147737512Y-97435751D01*
X147774500Y-97249798D01*
X147774500Y-97060202D01*
X147737512Y-96874249D01*
X147664956Y-96699085D01*
X147559622Y-96541442D01*
X147425558Y-96407378D01*
X147325054Y-96340223D01*
X147312548Y-96324359D01*
X147267921Y-96302046D01*
X147267914Y-96302043D01*
X147092754Y-96229489D01*
X147092748Y-96229487D01*
X146999774Y-96210993D01*
X146906802Y-96192500D01*
X146906800Y-96192500D01*
X146906798Y-96192500D01*
X146717202Y-96192500D01*
X146717199Y-96192500D01*
X146717196Y-96192500D01*
X146577738Y-96220240D01*
X146531251Y-96229487D01*
X146531245Y-96229489D01*
X146531242Y-96229490D01*
X146356085Y-96302042D01*
X146198440Y-96407379D01*
X146064379Y-96541440D01*
X145959042Y-96699085D01*
X145886490Y-96874242D01*
X145886487Y-96874252D01*
X145849500Y-97060196D01*
X145849500Y-97249802D01*
X145867309Y-97339331D01*
X145886487Y-97435748D01*
X145886488Y-97435750D01*
X145886491Y-97435761D01*
X145898689Y-97465207D01*
X145905920Y-97495324D01*
X145906814Y-97506681D01*
X145892531Y-97566176D01*
X145846009Y-97605912D01*
X145839016Y-97608809D01*
X145799223Y-97616329D01*
X145288834Y-97606514D01*
X145258340Y-97601081D01*
X145247575Y-97597353D01*
X145198776Y-97560445D01*
X145180990Y-97501903D01*
X145181160Y-97493055D01*
X145188679Y-97457074D01*
X145195116Y-97441535D01*
X145196096Y-97439536D01*
X145196900Y-97437386D01*
X145198171Y-97434159D01*
X145205342Y-97416846D01*
X145203684Y-97410965D01*
X145205510Y-97395540D01*
X145207766Y-97384199D01*
X145234500Y-97249798D01*
X145234500Y-97060202D01*
X145197512Y-96874249D01*
X145124956Y-96699085D01*
X145019622Y-96541442D01*
X144885558Y-96407378D01*
X144785054Y-96340223D01*
X144772548Y-96324359D01*
X144727921Y-96302046D01*
X144727914Y-96302043D01*
X144552754Y-96229489D01*
X144552748Y-96229487D01*
X144459774Y-96210993D01*
X144366802Y-96192500D01*
X144366800Y-96192500D01*
X144366798Y-96192500D01*
X144177202Y-96192500D01*
X144177199Y-96192500D01*
X144177196Y-96192500D01*
X144037738Y-96220240D01*
X143991251Y-96229487D01*
X143991245Y-96229489D01*
X143991242Y-96229490D01*
X143816085Y-96302042D01*
X143658440Y-96407379D01*
X143524379Y-96541440D01*
X143419042Y-96699085D01*
X143346490Y-96874242D01*
X143346487Y-96874252D01*
X143309500Y-97060196D01*
X143309500Y-97249802D01*
X143322627Y-97315795D01*
X143345527Y-97430921D01*
X143347410Y-97452176D01*
X143347125Y-97466680D01*
X143327078Y-97524488D01*
X143276900Y-97559467D01*
X143266009Y-97562773D01*
X143235350Y-97567023D01*
X142868713Y-97559973D01*
X142838218Y-97554540D01*
X142825614Y-97550175D01*
X142776825Y-97513280D01*
X142776504Y-97512820D01*
X142758811Y-97461041D01*
X142758615Y-97457074D01*
X142758443Y-97453576D01*
X142760225Y-97429388D01*
X142761512Y-97422918D01*
X142793665Y-97261276D01*
X142794000Y-97259737D01*
X142794000Y-97050408D01*
X142794000Y-97050403D01*
X142793999Y-97050399D01*
X142793998Y-97050397D01*
X142793926Y-97049809D01*
X142793531Y-97048048D01*
X142792568Y-97043208D01*
X142753187Y-96845226D01*
X142753187Y-96845224D01*
X142753186Y-96845222D01*
X142753186Y-96845220D01*
X142753185Y-96845219D01*
X142734440Y-96799964D01*
X142673134Y-96651956D01*
X142673133Y-96651954D01*
X142673131Y-96651950D01*
X142641538Y-96604671D01*
X142641537Y-96604671D01*
X142233621Y-97012586D01*
X142179105Y-97040363D01*
X142118673Y-97030792D01*
X142077882Y-96992083D01*
X142036877Y-96921062D01*
X142036876Y-96921060D01*
X141965940Y-96850124D01*
X141965937Y-96850122D01*
X141894912Y-96809115D01*
X141853972Y-96763645D01*
X141847577Y-96702795D01*
X141874408Y-96653377D01*
X142282327Y-96245459D01*
X142258423Y-96229487D01*
X142235046Y-96213867D01*
X142235036Y-96213862D01*
X142041775Y-96133812D01*
X142041774Y-96133812D01*
X141973382Y-96120208D01*
X141836602Y-96093000D01*
X141836600Y-96093000D01*
X141627399Y-96093000D01*
X141627396Y-96093000D01*
X141431788Y-96131910D01*
X141431782Y-96131910D01*
X141422222Y-96133811D01*
X141228961Y-96213862D01*
X141228951Y-96213867D01*
X141181671Y-96245459D01*
X141589588Y-96653377D01*
X141617365Y-96707893D01*
X141607794Y-96768325D01*
X141569085Y-96809116D01*
X141498062Y-96850122D01*
X141427122Y-96921062D01*
X141386117Y-96992084D01*
X141340647Y-97033024D01*
X141279797Y-97039419D01*
X141230378Y-97012587D01*
X140822459Y-96604670D01*
X140790867Y-96651952D01*
X140790864Y-96651958D01*
X140775771Y-96688396D01*
X140759590Y-96714802D01*
X140752272Y-96723371D01*
X140700104Y-96755343D01*
X140639107Y-96750545D01*
X140597578Y-96718196D01*
X140594397Y-96713923D01*
X140592583Y-96710813D01*
X140592580Y-96710810D01*
X140592578Y-96710804D01*
X140583245Y-96694798D01*
X140566786Y-96657522D01*
X140487477Y-96578213D01*
X140384872Y-96532909D01*
X140384869Y-96532908D01*
X140384871Y-96532908D01*
X140359801Y-96530000D01*
X140359797Y-96530000D01*
X140194001Y-96530000D01*
X140194000Y-96530001D01*
X140194000Y-96530002D01*
X140194000Y-97315319D01*
X140189154Y-97345912D01*
X140185032Y-97358598D01*
X140149080Y-97408089D01*
X140144959Y-97411084D01*
X140086771Y-97430000D01*
X139849000Y-97430000D01*
X139790809Y-97411093D01*
X139754845Y-97361593D01*
X139750000Y-97331000D01*
X139750000Y-95138058D01*
X139751485Y-95120974D01*
X139752646Y-95114347D01*
X139755016Y-95109877D01*
X139754846Y-95107464D01*
X139755788Y-95104565D01*
X139756543Y-95104810D01*
X139760257Y-95089980D01*
X139761169Y-95088003D01*
X139761171Y-95087994D01*
X139762395Y-95085342D01*
X139763539Y-95085869D01*
X139775446Y-95071351D01*
X139781311Y-95060292D01*
X139786663Y-95057674D01*
X139796512Y-95045665D01*
X139795784Y-95044663D01*
X139798145Y-95042946D01*
X139798149Y-95042945D01*
X139802156Y-95040033D01*
X139841033Y-95023026D01*
X139942491Y-95002846D01*
X139952069Y-95001426D01*
X139961721Y-95000475D01*
X139971410Y-95000000D01*
X140749999Y-95000000D01*
X140750000Y-95000000D01*
X140750000Y-94095839D01*
X140750118Y-94091000D01*
X140750360Y-94086074D01*
X140750391Y-94085662D01*
X140750500Y-94083451D01*
X140750500Y-93876539D01*
X140750389Y-93874297D01*
X140750356Y-93873846D01*
X140750119Y-93869011D01*
X140750000Y-93864164D01*
X140750000Y-92203697D01*
X145456500Y-92203697D01*
X145456500Y-92203702D01*
X145456500Y-93194499D01*
X145456501Y-93194500D01*
X146574374Y-93194500D01*
X146632565Y-93213407D01*
X146668529Y-93262907D01*
X146670001Y-93319122D01*
X146656500Y-93369509D01*
X146656500Y-93527490D01*
X146670001Y-93577878D01*
X146666798Y-93638979D01*
X146628293Y-93686529D01*
X146574374Y-93702500D01*
X145456502Y-93702500D01*
X145456501Y-93702501D01*
X145456501Y-94693291D01*
X145457167Y-94699034D01*
X145459409Y-94718373D01*
X145459409Y-94718376D01*
X145504712Y-94820975D01*
X145504713Y-94820977D01*
X145584022Y-94900286D01*
X145655198Y-94931713D01*
X145686626Y-94945590D01*
X145696194Y-94946699D01*
X145711703Y-94948499D01*
X147002497Y-94948499D01*
X147002498Y-94948499D01*
X147002500Y-94948498D01*
X147002500Y-94130625D01*
X147021407Y-94072434D01*
X147070907Y-94036470D01*
X147127122Y-94034999D01*
X147177509Y-94048500D01*
X147335490Y-94048500D01*
X147335491Y-94048500D01*
X147385877Y-94034999D01*
X147446978Y-94038200D01*
X147494528Y-94076705D01*
X147510500Y-94130625D01*
X147510500Y-94948498D01*
X147510501Y-94948499D01*
X147510502Y-94948499D01*
X148801290Y-94948499D01*
X148808884Y-94948499D01*
X148815014Y-94946907D01*
X148826374Y-94945590D01*
X148928977Y-94900286D01*
X149008286Y-94820977D01*
X149053590Y-94718372D01*
X149055836Y-94699009D01*
X149056500Y-94695227D01*
X149056500Y-93702502D01*
X149056500Y-93702501D01*
X149056499Y-93702500D01*
X149056498Y-93702500D01*
X147938626Y-93702500D01*
X147880435Y-93683593D01*
X147844471Y-93634093D01*
X147842999Y-93577878D01*
X147844345Y-93572850D01*
X147856500Y-93527491D01*
X147856500Y-93369509D01*
X147842999Y-93319122D01*
X147846202Y-93258021D01*
X147884707Y-93210471D01*
X147938626Y-93194500D01*
X149056497Y-93194500D01*
X149056498Y-93194500D01*
X149056499Y-93194499D01*
X149056499Y-92203710D01*
X149056499Y-92201771D01*
X149055833Y-92197979D01*
X149053590Y-92178625D01*
X149008286Y-92076022D01*
X148928977Y-91996713D01*
X148826372Y-91951409D01*
X148826369Y-91951408D01*
X148826371Y-91951408D01*
X148801301Y-91948500D01*
X148801297Y-91948500D01*
X147510501Y-91948500D01*
X147510500Y-91948501D01*
X147510500Y-91948502D01*
X147510500Y-92766374D01*
X147491593Y-92824565D01*
X147442093Y-92860529D01*
X147385878Y-92862001D01*
X147368543Y-92857356D01*
X147335491Y-92848500D01*
X147335490Y-92848500D01*
X147177510Y-92848500D01*
X147177509Y-92848500D01*
X147144456Y-92857356D01*
X147127122Y-92862001D01*
X147066021Y-92858798D01*
X147018471Y-92820293D01*
X147002500Y-92766374D01*
X147002500Y-91948502D01*
X147002500Y-91948501D01*
X147002499Y-91948500D01*
X147002498Y-91948500D01*
X145709767Y-91948500D01*
X145705973Y-91949165D01*
X145686630Y-91951407D01*
X145686622Y-91951409D01*
X145584023Y-91996712D01*
X145504713Y-92076022D01*
X145459408Y-92178629D01*
X145456500Y-92203697D01*
X140750000Y-92203697D01*
X140750000Y-91555839D01*
X140750118Y-91551000D01*
X140750360Y-91546074D01*
X140750391Y-91545662D01*
X140750500Y-91543451D01*
X140750500Y-91336539D01*
X140750389Y-91334297D01*
X140750356Y-91333846D01*
X140750119Y-91329011D01*
X140750000Y-91324164D01*
X140750000Y-90500001D01*
X140750000Y-90500000D01*
X140749999Y-90500000D01*
X140205172Y-90500000D01*
X140185858Y-90498098D01*
X140167096Y-90494366D01*
X140148524Y-90488732D01*
X140117239Y-90475773D01*
X140009660Y-90431212D01*
X140007622Y-90430281D01*
X140006418Y-90429869D01*
X139876371Y-90404001D01*
X144350001Y-90404001D01*
X144350001Y-91194791D01*
X144350667Y-91200534D01*
X144352909Y-91219873D01*
X144352909Y-91219876D01*
X144398212Y-91322475D01*
X144398213Y-91322477D01*
X144477522Y-91401786D01*
X144548698Y-91433213D01*
X144580126Y-91447090D01*
X144589694Y-91448199D01*
X144605203Y-91449999D01*
X145645997Y-91449999D01*
X145645998Y-91449999D01*
X145646000Y-91449998D01*
X145646000Y-90404001D01*
X146154000Y-90404001D01*
X146154000Y-91449998D01*
X146154001Y-91449999D01*
X146154002Y-91449999D01*
X147194790Y-91449999D01*
X147202384Y-91449999D01*
X147208514Y-91448407D01*
X147219874Y-91447090D01*
X147322477Y-91401786D01*
X147401786Y-91322477D01*
X147447090Y-91219872D01*
X147449336Y-91200509D01*
X147450000Y-91196727D01*
X147450000Y-90404002D01*
X147450000Y-90404001D01*
X147449999Y-90404000D01*
X147449998Y-90404000D01*
X146154002Y-90404000D01*
X146154001Y-90404000D01*
X146154000Y-90404001D01*
X145646000Y-90404001D01*
X145645999Y-90404000D01*
X145645998Y-90404000D01*
X144350003Y-90404000D01*
X144350002Y-90404000D01*
X144350001Y-90404001D01*
X139876371Y-90404001D01*
X139803469Y-90389500D01*
X139803467Y-90389500D01*
X139803465Y-90389500D01*
X139596535Y-90389500D01*
X139596532Y-90389500D01*
X139596529Y-90389500D01*
X139471898Y-90414290D01*
X139393581Y-90429869D01*
X139393579Y-90429869D01*
X139388812Y-90430818D01*
X139388796Y-90430741D01*
X139372872Y-90433746D01*
X139359893Y-90434767D01*
X139300399Y-90420482D01*
X139260664Y-90373954D01*
X139257533Y-90366396D01*
X139250000Y-90328517D01*
X139250000Y-90114909D01*
X139254847Y-90084312D01*
X139258366Y-90073483D01*
X139258366Y-90073481D01*
X139258368Y-90073477D01*
X139271267Y-90055725D01*
X139294330Y-90023981D01*
X139294333Y-90023979D01*
X139294334Y-90023979D01*
X139352521Y-90005074D01*
X139363910Y-90005074D01*
X139394501Y-90009918D01*
X139430708Y-90021683D01*
X139430709Y-90021683D01*
X139430712Y-90021684D01*
X139446000Y-90024105D01*
X139446000Y-89478597D01*
X139464907Y-89420406D01*
X139514407Y-89384442D01*
X139570622Y-89382971D01*
X139634174Y-89400000D01*
X139765826Y-89400000D01*
X139829377Y-89382971D01*
X139890477Y-89386172D01*
X139938027Y-89424676D01*
X139954000Y-89478597D01*
X139954000Y-90024103D01*
X139954000Y-90024104D01*
X139969289Y-90021683D01*
X140141440Y-89965749D01*
X140302730Y-89883568D01*
X140302734Y-89883566D01*
X140449169Y-89777175D01*
X140577175Y-89649169D01*
X140683566Y-89502734D01*
X140683568Y-89502730D01*
X140765749Y-89341440D01*
X140821683Y-89169289D01*
X140824105Y-89154000D01*
X140278598Y-89154000D01*
X140220407Y-89135093D01*
X140198686Y-89105197D01*
X144350000Y-89105197D01*
X144350000Y-89105202D01*
X144350000Y-89895999D01*
X144350001Y-89896000D01*
X145645998Y-89896000D01*
X145645999Y-89896000D01*
X145646000Y-89895999D01*
X145646000Y-88850001D01*
X146154000Y-88850001D01*
X146154000Y-89895999D01*
X146154001Y-89896000D01*
X147449997Y-89896000D01*
X147449998Y-89896000D01*
X147449999Y-89895999D01*
X147449999Y-89105210D01*
X147449999Y-89103271D01*
X147449333Y-89099479D01*
X147447090Y-89080125D01*
X147401786Y-88977522D01*
X147322477Y-88898213D01*
X147219872Y-88852909D01*
X147219869Y-88852908D01*
X147219871Y-88852908D01*
X147194801Y-88850000D01*
X147194797Y-88850000D01*
X146154001Y-88850000D01*
X146154000Y-88850001D01*
X145646000Y-88850001D01*
X145645999Y-88850000D01*
X145645998Y-88850000D01*
X144603267Y-88850000D01*
X144599473Y-88850665D01*
X144580130Y-88852907D01*
X144580122Y-88852909D01*
X144477523Y-88898212D01*
X144398213Y-88977522D01*
X144352908Y-89080129D01*
X144350000Y-89105197D01*
X140198686Y-89105197D01*
X140184443Y-89085593D01*
X140182971Y-89029377D01*
X140200000Y-88965826D01*
X140200000Y-88834174D01*
X140182971Y-88770622D01*
X140186173Y-88709522D01*
X140224678Y-88661972D01*
X140278598Y-88646000D01*
X140824104Y-88646000D01*
X140824105Y-88646000D01*
X140821683Y-88630710D01*
X140765749Y-88458559D01*
X140683698Y-88297524D01*
X140683572Y-88297274D01*
X140683568Y-88297268D01*
X140683566Y-88297265D01*
X140577175Y-88150830D01*
X140449169Y-88022824D01*
X140449165Y-88022821D01*
X140449163Y-88022819D01*
X140332845Y-87938310D01*
X140310948Y-87916415D01*
X140306101Y-87909745D01*
X140287188Y-87851556D01*
X140306090Y-87793364D01*
X140355583Y-87757396D01*
X140363441Y-87754843D01*
X140394028Y-87750000D01*
X141210321Y-87750000D01*
X141240909Y-87754843D01*
G37*
G04 #@! TD.AperFunction*
G04 #@! TA.AperFunction,Conductor*
G36*
X145715691Y-72018907D02*
G01*
X145751655Y-72068407D01*
X145756500Y-72099000D01*
X145756500Y-72834499D01*
X145756501Y-72834500D01*
X146710327Y-72834500D01*
X146697389Y-72856909D01*
X146656500Y-73009509D01*
X146656500Y-73167491D01*
X146697389Y-73320091D01*
X146710327Y-73342500D01*
X145756502Y-73342500D01*
X145756501Y-73342501D01*
X145756501Y-74333291D01*
X145759409Y-74358374D01*
X145804713Y-74460977D01*
X145884022Y-74540286D01*
X145986627Y-74585590D01*
X146011703Y-74588499D01*
X147002498Y-74588499D01*
X147002500Y-74588498D01*
X147002500Y-73634673D01*
X147024909Y-73647611D01*
X147177509Y-73688500D01*
X147335491Y-73688500D01*
X147488091Y-73647611D01*
X147510500Y-73634673D01*
X147510500Y-74588498D01*
X147510501Y-74588499D01*
X148501290Y-74588499D01*
X148501291Y-74588498D01*
X148526374Y-74585590D01*
X148628977Y-74540286D01*
X148708286Y-74460977D01*
X148753590Y-74358372D01*
X148756499Y-74333297D01*
X148756500Y-74333295D01*
X148756500Y-73342501D01*
X148756499Y-73342500D01*
X147802673Y-73342500D01*
X147815611Y-73320091D01*
X147856500Y-73167491D01*
X147856500Y-73009509D01*
X147815611Y-72856909D01*
X147802673Y-72834500D01*
X148756498Y-72834500D01*
X148756499Y-72834499D01*
X148756499Y-72099000D01*
X148775406Y-72040809D01*
X148824906Y-72004845D01*
X148855499Y-72000000D01*
X154901000Y-72000000D01*
X154959191Y-72018907D01*
X154995155Y-72068407D01*
X155000000Y-72099000D01*
X155000000Y-74897645D01*
X154981093Y-74955836D01*
X154931593Y-74991800D01*
X154897702Y-74996590D01*
X153500000Y-74950000D01*
X153500000Y-76708992D01*
X153481093Y-76767183D01*
X153471004Y-76778996D01*
X152000000Y-78250000D01*
X152000000Y-89183236D01*
X151996627Y-89208857D01*
X151989478Y-89235537D01*
X151989478Y-89393653D01*
X151996627Y-89420333D01*
X152000000Y-89445956D01*
X152000000Y-91250000D01*
X152000001Y-91250000D01*
X152009551Y-91259550D01*
X152037328Y-91314067D01*
X152031596Y-91362517D01*
X152032081Y-91362647D01*
X152031186Y-91365985D01*
X152031016Y-91367427D01*
X152030404Y-91368903D01*
X152012166Y-91436967D01*
X151989478Y-91521642D01*
X151989478Y-91679756D01*
X152030401Y-91832483D01*
X152109458Y-91969415D01*
X152221262Y-92081219D01*
X152358194Y-92160276D01*
X152510921Y-92201199D01*
X152510923Y-92201199D01*
X152669033Y-92201199D01*
X152669035Y-92201199D01*
X152821762Y-92160276D01*
X152958694Y-92081219D01*
X153070498Y-91969415D01*
X153149555Y-91832483D01*
X153190478Y-91679756D01*
X153190478Y-91521642D01*
X153151084Y-91374621D01*
X153154287Y-91313522D01*
X153192792Y-91265972D01*
X153246711Y-91250000D01*
X153401000Y-91250000D01*
X153459191Y-91268907D01*
X153495155Y-91318407D01*
X153500000Y-91349000D01*
X153500000Y-95250000D01*
X155401000Y-95250000D01*
X155459191Y-95268907D01*
X155495155Y-95318407D01*
X155500000Y-95349000D01*
X155500000Y-100651000D01*
X155481093Y-100709191D01*
X155431593Y-100745155D01*
X155401000Y-100750000D01*
X149817845Y-100750000D01*
X149759654Y-100731093D01*
X149723690Y-100681593D01*
X149723690Y-100620407D01*
X149759654Y-100570907D01*
X149779959Y-100559536D01*
X149786816Y-100556695D01*
X149807915Y-100547956D01*
X149965558Y-100442622D01*
X150099622Y-100308558D01*
X150204956Y-100150915D01*
X150277512Y-99975751D01*
X150314500Y-99789798D01*
X150314500Y-99600202D01*
X150277512Y-99414249D01*
X150204956Y-99239085D01*
X150157601Y-99168214D01*
X153347105Y-99168214D01*
X153348800Y-99176733D01*
X153348801Y-99176737D01*
X153416644Y-99340524D01*
X153515137Y-99487929D01*
X153640498Y-99613290D01*
X153787905Y-99711784D01*
X153951697Y-99779629D01*
X153960213Y-99781322D01*
X153960214Y-99781322D01*
X153960214Y-99168215D01*
X153960213Y-99168214D01*
X153347105Y-99168214D01*
X150157601Y-99168214D01*
X150099622Y-99081442D01*
X149965558Y-98947378D01*
X149856815Y-98874718D01*
X153914214Y-98874718D01*
X153914214Y-98953710D01*
X153934658Y-99030010D01*
X153974154Y-99098419D01*
X154030009Y-99154274D01*
X154098418Y-99193770D01*
X154174718Y-99214214D01*
X154253710Y-99214214D01*
X154330010Y-99193770D01*
X154374273Y-99168215D01*
X154468214Y-99168215D01*
X154468214Y-99781322D01*
X154476730Y-99779629D01*
X154640522Y-99711784D01*
X154787929Y-99613290D01*
X154913290Y-99487929D01*
X155011783Y-99340524D01*
X155079626Y-99176737D01*
X155079627Y-99176733D01*
X155081323Y-99168214D01*
X154468215Y-99168214D01*
X154468214Y-99168215D01*
X154374273Y-99168215D01*
X154398419Y-99154274D01*
X154454274Y-99098419D01*
X154493770Y-99030010D01*
X154514214Y-98953710D01*
X154514214Y-98874718D01*
X154493770Y-98798418D01*
X154454274Y-98730009D01*
X154398419Y-98674154D01*
X154374273Y-98660213D01*
X154468214Y-98660213D01*
X154468215Y-98660214D01*
X155081322Y-98660214D01*
X155079627Y-98651694D01*
X155079626Y-98651690D01*
X155011783Y-98487903D01*
X154913290Y-98340498D01*
X154787929Y-98215137D01*
X154640524Y-98116644D01*
X154476737Y-98048801D01*
X154476733Y-98048800D01*
X154468214Y-98047105D01*
X154468214Y-98660213D01*
X154374273Y-98660213D01*
X154330010Y-98634658D01*
X154253710Y-98614214D01*
X154174718Y-98614214D01*
X154098418Y-98634658D01*
X154030009Y-98674154D01*
X153974154Y-98730009D01*
X153934658Y-98798418D01*
X153914214Y-98874718D01*
X149856815Y-98874718D01*
X149807915Y-98842044D01*
X149807916Y-98842044D01*
X149807914Y-98842043D01*
X149632754Y-98769489D01*
X149632748Y-98769487D01*
X149446800Y-98732500D01*
X149446798Y-98732500D01*
X149257202Y-98732500D01*
X149257199Y-98732500D01*
X149071251Y-98769487D01*
X149071245Y-98769489D01*
X148896085Y-98842043D01*
X148738442Y-98947378D01*
X148738438Y-98947381D01*
X148604381Y-99081438D01*
X148604378Y-99081442D01*
X148499043Y-99239085D01*
X148426489Y-99414245D01*
X148426487Y-99414251D01*
X148389500Y-99600199D01*
X148389500Y-99789800D01*
X148426487Y-99975748D01*
X148426489Y-99975754D01*
X148499043Y-100150914D01*
X148499044Y-100150915D01*
X148604378Y-100308558D01*
X148738442Y-100442622D01*
X148864531Y-100526872D01*
X148896085Y-100547956D01*
X148924041Y-100559536D01*
X148970567Y-100599273D01*
X148984850Y-100658768D01*
X148961435Y-100715296D01*
X148909266Y-100747265D01*
X148886155Y-100750000D01*
X147277845Y-100750000D01*
X147219654Y-100731093D01*
X147183690Y-100681593D01*
X147183690Y-100620407D01*
X147219654Y-100570907D01*
X147239959Y-100559536D01*
X147246816Y-100556695D01*
X147267915Y-100547956D01*
X147425558Y-100442622D01*
X147559622Y-100308558D01*
X147664956Y-100150915D01*
X147737512Y-99975751D01*
X147774500Y-99789798D01*
X147774500Y-99600202D01*
X147737512Y-99414249D01*
X147664956Y-99239085D01*
X147559622Y-99081442D01*
X147425558Y-98947378D01*
X147267915Y-98842044D01*
X147267916Y-98842044D01*
X147267914Y-98842043D01*
X147092754Y-98769489D01*
X147092748Y-98769487D01*
X146906800Y-98732500D01*
X146906798Y-98732500D01*
X146717202Y-98732500D01*
X146717199Y-98732500D01*
X146531251Y-98769487D01*
X146531245Y-98769489D01*
X146356085Y-98842043D01*
X146198442Y-98947378D01*
X146198438Y-98947381D01*
X146064381Y-99081438D01*
X146064378Y-99081442D01*
X145959043Y-99239085D01*
X145886489Y-99414245D01*
X145886487Y-99414251D01*
X145849500Y-99600199D01*
X145849500Y-99789800D01*
X145886487Y-99975748D01*
X145886489Y-99975754D01*
X145959043Y-100150914D01*
X145959044Y-100150915D01*
X146064378Y-100308558D01*
X146198442Y-100442622D01*
X146324531Y-100526872D01*
X146356085Y-100547956D01*
X146384041Y-100559536D01*
X146430567Y-100599273D01*
X146444850Y-100658768D01*
X146421435Y-100715296D01*
X146369266Y-100747265D01*
X146346155Y-100750000D01*
X144737845Y-100750000D01*
X144679654Y-100731093D01*
X144643690Y-100681593D01*
X144643690Y-100620407D01*
X144679654Y-100570907D01*
X144699959Y-100559536D01*
X144706816Y-100556695D01*
X144727915Y-100547956D01*
X144885558Y-100442622D01*
X145019622Y-100308558D01*
X145124956Y-100150915D01*
X145197512Y-99975751D01*
X145234500Y-99789798D01*
X145234500Y-99600202D01*
X145197512Y-99414249D01*
X145124956Y-99239085D01*
X145019622Y-99081442D01*
X144885558Y-98947378D01*
X144727915Y-98842044D01*
X144727916Y-98842044D01*
X144727914Y-98842043D01*
X144552754Y-98769489D01*
X144552748Y-98769487D01*
X144366800Y-98732500D01*
X144366798Y-98732500D01*
X144177202Y-98732500D01*
X144177199Y-98732500D01*
X143991251Y-98769487D01*
X143991245Y-98769489D01*
X143816085Y-98842043D01*
X143658442Y-98947378D01*
X143658438Y-98947381D01*
X143524381Y-99081438D01*
X143524378Y-99081442D01*
X143419043Y-99239085D01*
X143346489Y-99414245D01*
X143346487Y-99414251D01*
X143309500Y-99600199D01*
X143309500Y-99789800D01*
X143346487Y-99975748D01*
X143346489Y-99975754D01*
X143419043Y-100150914D01*
X143419044Y-100150915D01*
X143524378Y-100308558D01*
X143658442Y-100442622D01*
X143784531Y-100526872D01*
X143816085Y-100547956D01*
X143844041Y-100559536D01*
X143890567Y-100599273D01*
X143904850Y-100658768D01*
X143881435Y-100715296D01*
X143829266Y-100747265D01*
X143806155Y-100750000D01*
X142844505Y-100750000D01*
X142786314Y-100731093D01*
X142750350Y-100681593D01*
X142750350Y-100620407D01*
X142753940Y-100611013D01*
X142791089Y-100526874D01*
X142791090Y-100526872D01*
X142793999Y-100501797D01*
X142794000Y-100501795D01*
X142794000Y-99949001D01*
X142793999Y-99949000D01*
X142016816Y-99949000D01*
X142036876Y-99928940D01*
X142087036Y-99842061D01*
X142113000Y-99745160D01*
X142113000Y-99644840D01*
X142087036Y-99547939D01*
X142036876Y-99461060D01*
X142016816Y-99441000D01*
X142793998Y-99441000D01*
X142793999Y-99440999D01*
X142793999Y-98888210D01*
X142793998Y-98888208D01*
X142791090Y-98863125D01*
X142745786Y-98760522D01*
X142666477Y-98681213D01*
X142563872Y-98635909D01*
X142538797Y-98633000D01*
X141986001Y-98633000D01*
X141986000Y-98633001D01*
X141986000Y-99410184D01*
X141965940Y-99390124D01*
X141879061Y-99339964D01*
X141782160Y-99314000D01*
X141681840Y-99314000D01*
X141584939Y-99339964D01*
X141498060Y-99390124D01*
X141478000Y-99410184D01*
X141478000Y-98633001D01*
X141477999Y-98633000D01*
X140925210Y-98633000D01*
X140925207Y-98633001D01*
X140900125Y-98635909D01*
X140900122Y-98635910D01*
X140888985Y-98640828D01*
X140828115Y-98647034D01*
X140775223Y-98616277D01*
X140750511Y-98560304D01*
X140750000Y-98550262D01*
X140750000Y-98099000D01*
X140768907Y-98040809D01*
X140818407Y-98004845D01*
X140849000Y-98000000D01*
X141237185Y-98000000D01*
X141275071Y-98007536D01*
X141276085Y-98007956D01*
X141451249Y-98080512D01*
X141637202Y-98117500D01*
X141637203Y-98117500D01*
X141826797Y-98117500D01*
X141826798Y-98117500D01*
X142012751Y-98080512D01*
X142187915Y-98007956D01*
X142187914Y-98007956D01*
X142188929Y-98007536D01*
X142226815Y-98000000D01*
X143777185Y-98000000D01*
X143815071Y-98007536D01*
X143816085Y-98007956D01*
X143991249Y-98080512D01*
X144177202Y-98117500D01*
X144177203Y-98117500D01*
X144366797Y-98117500D01*
X144366798Y-98117500D01*
X144552751Y-98080512D01*
X144727915Y-98007956D01*
X144727914Y-98007956D01*
X144728929Y-98007536D01*
X144766815Y-98000000D01*
X146317185Y-98000000D01*
X146355071Y-98007536D01*
X146356085Y-98007956D01*
X146531249Y-98080512D01*
X146717202Y-98117500D01*
X146717203Y-98117500D01*
X146906797Y-98117500D01*
X146906798Y-98117500D01*
X147092751Y-98080512D01*
X147267915Y-98007956D01*
X147267914Y-98007956D01*
X147268929Y-98007536D01*
X147306815Y-98000000D01*
X148857185Y-98000000D01*
X148895071Y-98007536D01*
X148896085Y-98007956D01*
X149071249Y-98080512D01*
X149257202Y-98117500D01*
X149257203Y-98117500D01*
X149446797Y-98117500D01*
X149446798Y-98117500D01*
X149632751Y-98080512D01*
X149807915Y-98007956D01*
X149807914Y-98007956D01*
X149808929Y-98007536D01*
X149846815Y-98000000D01*
X152126914Y-98000000D01*
X152185105Y-98018907D01*
X152196917Y-98028996D01*
X152508420Y-98340498D01*
X152672189Y-98504267D01*
X152721769Y-98537395D01*
X152800000Y-98552956D01*
X152878231Y-98537395D01*
X152927811Y-98504267D01*
X153257526Y-98174552D01*
X153403083Y-98028996D01*
X153457599Y-98001219D01*
X153473086Y-98000000D01*
X153636115Y-98000000D01*
X153694306Y-98018907D01*
X153730270Y-98068407D01*
X153730270Y-98129593D01*
X153694306Y-98179093D01*
X153691117Y-98181315D01*
X153640498Y-98215137D01*
X153515137Y-98340498D01*
X153416644Y-98487903D01*
X153348801Y-98651690D01*
X153348800Y-98651694D01*
X153347105Y-98660214D01*
X153960213Y-98660214D01*
X153960214Y-98660213D01*
X153960214Y-98047105D01*
X153951694Y-98048800D01*
X153951686Y-98048802D01*
X153886885Y-98075644D01*
X153825888Y-98080445D01*
X153773719Y-98048475D01*
X153750305Y-97991947D01*
X153750000Y-97984180D01*
X153750000Y-97723085D01*
X153768907Y-97664894D01*
X153778990Y-97653087D01*
X153804267Y-97627811D01*
X153837395Y-97578231D01*
X153852956Y-97500000D01*
X153837395Y-97421769D01*
X153804267Y-97372188D01*
X153778995Y-97346916D01*
X153751219Y-97292399D01*
X153750000Y-97276914D01*
X153750000Y-97000000D01*
X150281635Y-93779375D01*
X150251859Y-93725923D01*
X150250000Y-93706828D01*
X150250000Y-86500001D01*
X150250000Y-86500000D01*
X150249999Y-86500000D01*
X147549000Y-86500000D01*
X147490809Y-86481093D01*
X147454845Y-86431593D01*
X147450564Y-86404565D01*
X147449999Y-86404000D01*
X144350002Y-86404000D01*
X144348556Y-86405445D01*
X144331094Y-86459191D01*
X144281594Y-86495155D01*
X144251001Y-86500000D01*
X142774000Y-86500000D01*
X142715809Y-86481093D01*
X142679845Y-86431593D01*
X142675000Y-86401000D01*
X142675000Y-86104001D01*
X142674999Y-86104000D01*
X141325002Y-86104000D01*
X141325001Y-86104001D01*
X141325001Y-86401000D01*
X141306094Y-86459191D01*
X141256594Y-86495155D01*
X141226001Y-86500000D01*
X140955001Y-86500000D01*
X140180125Y-86500000D01*
X140200000Y-86425826D01*
X140200000Y-86294174D01*
X140165925Y-86167007D01*
X140130703Y-86106000D01*
X140824105Y-86106000D01*
X140821683Y-86090710D01*
X140765749Y-85918559D01*
X140683568Y-85757269D01*
X140683566Y-85757265D01*
X140577175Y-85610830D01*
X140449169Y-85482824D01*
X140302734Y-85376433D01*
X140302730Y-85376431D01*
X140141440Y-85294250D01*
X139969288Y-85238315D01*
X139954000Y-85235893D01*
X139954000Y-85929297D01*
X139892993Y-85894075D01*
X139765826Y-85860000D01*
X139634174Y-85860000D01*
X139507007Y-85894075D01*
X139446000Y-85929297D01*
X139446000Y-85275474D01*
X139334274Y-85258669D01*
X139326780Y-85254924D01*
X139318406Y-85254924D01*
X139299951Y-85241515D01*
X139279543Y-85231316D01*
X139275682Y-85223882D01*
X139268907Y-85218960D01*
X139264437Y-85205202D01*
X141325000Y-85205202D01*
X141325000Y-85595999D01*
X141325001Y-85596000D01*
X141745999Y-85596000D01*
X141746000Y-85595999D01*
X141746000Y-84950001D01*
X142254000Y-84950001D01*
X142254000Y-85595999D01*
X142254001Y-85596000D01*
X142674998Y-85596000D01*
X142674999Y-85595999D01*
X142674999Y-85205210D01*
X142674998Y-85205208D01*
X142672090Y-85180125D01*
X142672089Y-85180123D01*
X142655405Y-85142337D01*
X142655404Y-85142336D01*
X142639008Y-85105202D01*
X144350000Y-85105202D01*
X144350000Y-85895998D01*
X144350002Y-85896000D01*
X145645999Y-85896000D01*
X145646000Y-85895999D01*
X145646000Y-84850001D01*
X146154000Y-84850001D01*
X146154000Y-85895999D01*
X146154001Y-85896000D01*
X147449999Y-85896000D01*
X147449999Y-85105210D01*
X147449998Y-85105207D01*
X147447090Y-85080125D01*
X147401786Y-84977522D01*
X147322477Y-84898213D01*
X147219872Y-84852909D01*
X147194797Y-84850000D01*
X146154001Y-84850000D01*
X146154000Y-84850001D01*
X145646000Y-84850001D01*
X145645999Y-84850000D01*
X144605210Y-84850000D01*
X144605208Y-84850001D01*
X144580125Y-84852909D01*
X144477522Y-84898213D01*
X144398213Y-84977522D01*
X144352909Y-85080127D01*
X144350000Y-85105202D01*
X142639008Y-85105202D01*
X142626786Y-85077522D01*
X142547477Y-84998213D01*
X142444872Y-84952909D01*
X142419797Y-84950000D01*
X142254001Y-84950000D01*
X142254000Y-84950001D01*
X141746000Y-84950001D01*
X141745999Y-84950000D01*
X141580210Y-84950000D01*
X141580207Y-84950001D01*
X141555125Y-84952909D01*
X141452522Y-84998213D01*
X141373213Y-85077522D01*
X141327909Y-85180127D01*
X141325000Y-85205202D01*
X139264437Y-85205202D01*
X139261857Y-85197263D01*
X139251342Y-85177017D01*
X139252587Y-85168734D01*
X139250000Y-85160770D01*
X139250000Y-84918821D01*
X139268907Y-84860630D01*
X139318407Y-84824666D01*
X139379593Y-84824666D01*
X139386872Y-84827351D01*
X139393580Y-84830130D01*
X139596535Y-84870500D01*
X139596536Y-84870500D01*
X139803464Y-84870500D01*
X139803465Y-84870500D01*
X140006420Y-84830130D01*
X140197598Y-84750941D01*
X140369655Y-84635977D01*
X140515977Y-84489655D01*
X140630941Y-84317598D01*
X140710130Y-84126420D01*
X140750500Y-83923465D01*
X140750500Y-83716535D01*
X140710130Y-83513580D01*
X140630941Y-83322402D01*
X140515977Y-83150345D01*
X140369655Y-83004023D01*
X140197598Y-82889059D01*
X140197599Y-82889059D01*
X140197597Y-82889058D01*
X140006418Y-82809869D01*
X139803467Y-82769500D01*
X139803465Y-82769500D01*
X139596535Y-82769500D01*
X139596532Y-82769500D01*
X139393581Y-82809869D01*
X139389638Y-82811502D01*
X139386882Y-82812644D01*
X139325887Y-82817443D01*
X139273719Y-82785473D01*
X139250305Y-82728945D01*
X139250000Y-82721179D01*
X139250000Y-82599000D01*
X139268907Y-82540809D01*
X139318407Y-82504845D01*
X139349000Y-82500000D01*
X143249999Y-82500000D01*
X143250000Y-82500000D01*
X143250000Y-81186258D01*
X143268907Y-81128067D01*
X143318407Y-81092103D01*
X143379593Y-81092103D01*
X143429093Y-81128067D01*
X143439565Y-81146270D01*
X143473213Y-81222477D01*
X143552522Y-81301786D01*
X143655127Y-81347090D01*
X143680203Y-81349999D01*
X143970998Y-81349999D01*
X143971000Y-81349998D01*
X143971000Y-80679001D01*
X144479000Y-80679001D01*
X144479000Y-81349998D01*
X144479001Y-81349999D01*
X144769790Y-81349999D01*
X144769791Y-81349998D01*
X144794874Y-81347090D01*
X144897477Y-81301786D01*
X144976786Y-81222477D01*
X145022090Y-81119872D01*
X145024999Y-81094797D01*
X145025000Y-81094795D01*
X145025000Y-80679001D01*
X145024999Y-80679000D01*
X144479001Y-80679000D01*
X144479000Y-80679001D01*
X143971000Y-80679001D01*
X143971000Y-79500001D01*
X144479000Y-79500001D01*
X144479000Y-80170999D01*
X144479001Y-80171000D01*
X145024998Y-80171000D01*
X145024999Y-80170999D01*
X145024999Y-79755210D01*
X145024998Y-79755208D01*
X145022090Y-79730125D01*
X144976786Y-79627522D01*
X144897477Y-79548213D01*
X144794872Y-79502909D01*
X144769797Y-79500000D01*
X144479001Y-79500000D01*
X144479000Y-79500001D01*
X143971000Y-79500001D01*
X143970999Y-79500000D01*
X143680210Y-79500000D01*
X143680207Y-79500001D01*
X143655125Y-79502909D01*
X143552522Y-79548213D01*
X143473213Y-79627522D01*
X143439565Y-79703730D01*
X143398764Y-79749325D01*
X143338956Y-79762231D01*
X143282983Y-79737517D01*
X143252227Y-79684624D01*
X143250000Y-79663742D01*
X143250000Y-78811506D01*
X143250500Y-78808993D01*
X143250500Y-78671007D01*
X143250000Y-78668493D01*
X143250000Y-76918932D01*
X143250477Y-76909223D01*
X143250500Y-76908989D01*
X143250500Y-76771007D01*
X143250476Y-76770764D01*
X143250000Y-76761065D01*
X143250000Y-75936258D01*
X143268907Y-75878067D01*
X143318407Y-75842103D01*
X143379593Y-75842103D01*
X143429093Y-75878067D01*
X143439565Y-75896270D01*
X143473213Y-75972477D01*
X143552522Y-76051786D01*
X143655127Y-76097090D01*
X143680203Y-76099999D01*
X143970998Y-76099999D01*
X143971000Y-76099998D01*
X143971000Y-75429001D01*
X144479000Y-75429001D01*
X144479000Y-76099998D01*
X144479001Y-76099999D01*
X144769790Y-76099999D01*
X144769791Y-76099998D01*
X144794874Y-76097090D01*
X144897477Y-76051786D01*
X144976786Y-75972477D01*
X145022090Y-75869872D01*
X145024999Y-75844797D01*
X145025000Y-75844795D01*
X145025000Y-75429001D01*
X145024999Y-75429000D01*
X144479001Y-75429000D01*
X144479000Y-75429001D01*
X143971000Y-75429001D01*
X143971000Y-74250001D01*
X144479000Y-74250001D01*
X144479000Y-74920999D01*
X144479001Y-74921000D01*
X145024998Y-74921000D01*
X145024999Y-74920999D01*
X145024999Y-74505210D01*
X145024998Y-74505208D01*
X145022090Y-74480125D01*
X144976786Y-74377522D01*
X144897477Y-74298213D01*
X144794872Y-74252909D01*
X144769797Y-74250000D01*
X144479001Y-74250000D01*
X144479000Y-74250001D01*
X143971000Y-74250001D01*
X143970999Y-74250000D01*
X143680210Y-74250000D01*
X143680207Y-74250001D01*
X143655125Y-74252909D01*
X143552522Y-74298213D01*
X143473213Y-74377522D01*
X143439565Y-74453730D01*
X143398764Y-74499325D01*
X143338956Y-74512231D01*
X143282983Y-74487517D01*
X143252227Y-74434624D01*
X143250000Y-74413742D01*
X143250000Y-72099000D01*
X143268907Y-72040809D01*
X143318407Y-72004845D01*
X143349000Y-72000000D01*
X145657500Y-72000000D01*
X145715691Y-72018907D01*
G37*
G04 #@! TD.AperFunction*
M02*
