%TF.GenerationSoftware,KiCad,Pcbnew,10.0.3*%
%TF.CreationDate,2026-05-26T11:38:25+05:30*%
%TF.ProjectId,BluePulse VectorX,426c7565-5075-46c7-9365-20566563746f,1*%
%TF.SameCoordinates,Original*%
%TF.FileFunction,Legend,Top*%
%TF.FilePolarity,Positive*%
%FSLAX46Y46*%
G04 Gerber Fmt 4.6, Leading zero omitted, Abs format (unit mm)*
G04 Created by KiCad (PCBNEW 10.0.3) date 2026-05-26 11:38:25*
%MOMM*%
%LPD*%
G01*
G04 APERTURE LIST*
%ADD10C,0.150000*%
%ADD11C,0.120000*%
%ADD12C,0.100000*%
G04 APERTURE END LIST*
D10*
X126793826Y-75675247D02*
X126908112Y-75713342D01*
X126908112Y-75713342D02*
X126946207Y-75751438D01*
X126946207Y-75751438D02*
X126984303Y-75827628D01*
X126984303Y-75827628D02*
X126984303Y-75941914D01*
X126984303Y-75941914D02*
X126946207Y-76018104D01*
X126946207Y-76018104D02*
X126908112Y-76056200D01*
X126908112Y-76056200D02*
X126831922Y-76094295D01*
X126831922Y-76094295D02*
X126527160Y-76094295D01*
X126527160Y-76094295D02*
X126527160Y-75294295D01*
X126527160Y-75294295D02*
X126793826Y-75294295D01*
X126793826Y-75294295D02*
X126870017Y-75332390D01*
X126870017Y-75332390D02*
X126908112Y-75370485D01*
X126908112Y-75370485D02*
X126946207Y-75446676D01*
X126946207Y-75446676D02*
X126946207Y-75522866D01*
X126946207Y-75522866D02*
X126908112Y-75599057D01*
X126908112Y-75599057D02*
X126870017Y-75637152D01*
X126870017Y-75637152D02*
X126793826Y-75675247D01*
X126793826Y-75675247D02*
X126527160Y-75675247D01*
X127746207Y-76094295D02*
X127289064Y-76094295D01*
X127517636Y-76094295D02*
X127517636Y-75294295D01*
X127517636Y-75294295D02*
X127441445Y-75408580D01*
X127441445Y-75408580D02*
X127365255Y-75484771D01*
X127365255Y-75484771D02*
X127289064Y-75522866D01*
X128050969Y-75370485D02*
X128089065Y-75332390D01*
X128089065Y-75332390D02*
X128165255Y-75294295D01*
X128165255Y-75294295D02*
X128355731Y-75294295D01*
X128355731Y-75294295D02*
X128431922Y-75332390D01*
X128431922Y-75332390D02*
X128470017Y-75370485D01*
X128470017Y-75370485D02*
X128508112Y-75446676D01*
X128508112Y-75446676D02*
X128508112Y-75522866D01*
X128508112Y-75522866D02*
X128470017Y-75637152D01*
X128470017Y-75637152D02*
X128012874Y-76094295D01*
X128012874Y-76094295D02*
X128508112Y-76094295D01*
X126793826Y-78215247D02*
X126908112Y-78253342D01*
X126908112Y-78253342D02*
X126946207Y-78291438D01*
X126946207Y-78291438D02*
X126984303Y-78367628D01*
X126984303Y-78367628D02*
X126984303Y-78481914D01*
X126984303Y-78481914D02*
X126946207Y-78558104D01*
X126946207Y-78558104D02*
X126908112Y-78596200D01*
X126908112Y-78596200D02*
X126831922Y-78634295D01*
X126831922Y-78634295D02*
X126527160Y-78634295D01*
X126527160Y-78634295D02*
X126527160Y-77834295D01*
X126527160Y-77834295D02*
X126793826Y-77834295D01*
X126793826Y-77834295D02*
X126870017Y-77872390D01*
X126870017Y-77872390D02*
X126908112Y-77910485D01*
X126908112Y-77910485D02*
X126946207Y-77986676D01*
X126946207Y-77986676D02*
X126946207Y-78062866D01*
X126946207Y-78062866D02*
X126908112Y-78139057D01*
X126908112Y-78139057D02*
X126870017Y-78177152D01*
X126870017Y-78177152D02*
X126793826Y-78215247D01*
X126793826Y-78215247D02*
X126527160Y-78215247D01*
X127746207Y-78634295D02*
X127289064Y-78634295D01*
X127517636Y-78634295D02*
X127517636Y-77834295D01*
X127517636Y-77834295D02*
X127441445Y-77948580D01*
X127441445Y-77948580D02*
X127365255Y-78024771D01*
X127365255Y-78024771D02*
X127289064Y-78062866D01*
X128012874Y-77834295D02*
X128508112Y-77834295D01*
X128508112Y-77834295D02*
X128241446Y-78139057D01*
X128241446Y-78139057D02*
X128355731Y-78139057D01*
X128355731Y-78139057D02*
X128431922Y-78177152D01*
X128431922Y-78177152D02*
X128470017Y-78215247D01*
X128470017Y-78215247D02*
X128508112Y-78291438D01*
X128508112Y-78291438D02*
X128508112Y-78481914D01*
X128508112Y-78481914D02*
X128470017Y-78558104D01*
X128470017Y-78558104D02*
X128431922Y-78596200D01*
X128431922Y-78596200D02*
X128355731Y-78634295D01*
X128355731Y-78634295D02*
X128127160Y-78634295D01*
X128127160Y-78634295D02*
X128050969Y-78596200D01*
X128050969Y-78596200D02*
X128012874Y-78558104D01*
X126793826Y-80755247D02*
X126908112Y-80793342D01*
X126908112Y-80793342D02*
X126946207Y-80831438D01*
X126946207Y-80831438D02*
X126984303Y-80907628D01*
X126984303Y-80907628D02*
X126984303Y-81021914D01*
X126984303Y-81021914D02*
X126946207Y-81098104D01*
X126946207Y-81098104D02*
X126908112Y-81136200D01*
X126908112Y-81136200D02*
X126831922Y-81174295D01*
X126831922Y-81174295D02*
X126527160Y-81174295D01*
X126527160Y-81174295D02*
X126527160Y-80374295D01*
X126527160Y-80374295D02*
X126793826Y-80374295D01*
X126793826Y-80374295D02*
X126870017Y-80412390D01*
X126870017Y-80412390D02*
X126908112Y-80450485D01*
X126908112Y-80450485D02*
X126946207Y-80526676D01*
X126946207Y-80526676D02*
X126946207Y-80602866D01*
X126946207Y-80602866D02*
X126908112Y-80679057D01*
X126908112Y-80679057D02*
X126870017Y-80717152D01*
X126870017Y-80717152D02*
X126793826Y-80755247D01*
X126793826Y-80755247D02*
X126527160Y-80755247D01*
X127746207Y-81174295D02*
X127289064Y-81174295D01*
X127517636Y-81174295D02*
X127517636Y-80374295D01*
X127517636Y-80374295D02*
X127441445Y-80488580D01*
X127441445Y-80488580D02*
X127365255Y-80564771D01*
X127365255Y-80564771D02*
X127289064Y-80602866D01*
X128431922Y-80640961D02*
X128431922Y-81174295D01*
X128241446Y-80336200D02*
X128050969Y-80907628D01*
X128050969Y-80907628D02*
X128546208Y-80907628D01*
X126793826Y-83295247D02*
X126908112Y-83333342D01*
X126908112Y-83333342D02*
X126946207Y-83371438D01*
X126946207Y-83371438D02*
X126984303Y-83447628D01*
X126984303Y-83447628D02*
X126984303Y-83561914D01*
X126984303Y-83561914D02*
X126946207Y-83638104D01*
X126946207Y-83638104D02*
X126908112Y-83676200D01*
X126908112Y-83676200D02*
X126831922Y-83714295D01*
X126831922Y-83714295D02*
X126527160Y-83714295D01*
X126527160Y-83714295D02*
X126527160Y-82914295D01*
X126527160Y-82914295D02*
X126793826Y-82914295D01*
X126793826Y-82914295D02*
X126870017Y-82952390D01*
X126870017Y-82952390D02*
X126908112Y-82990485D01*
X126908112Y-82990485D02*
X126946207Y-83066676D01*
X126946207Y-83066676D02*
X126946207Y-83142866D01*
X126946207Y-83142866D02*
X126908112Y-83219057D01*
X126908112Y-83219057D02*
X126870017Y-83257152D01*
X126870017Y-83257152D02*
X126793826Y-83295247D01*
X126793826Y-83295247D02*
X126527160Y-83295247D01*
X127746207Y-83714295D02*
X127289064Y-83714295D01*
X127517636Y-83714295D02*
X127517636Y-82914295D01*
X127517636Y-82914295D02*
X127441445Y-83028580D01*
X127441445Y-83028580D02*
X127365255Y-83104771D01*
X127365255Y-83104771D02*
X127289064Y-83142866D01*
X128470017Y-82914295D02*
X128089065Y-82914295D01*
X128089065Y-82914295D02*
X128050969Y-83295247D01*
X128050969Y-83295247D02*
X128089065Y-83257152D01*
X128089065Y-83257152D02*
X128165255Y-83219057D01*
X128165255Y-83219057D02*
X128355731Y-83219057D01*
X128355731Y-83219057D02*
X128431922Y-83257152D01*
X128431922Y-83257152D02*
X128470017Y-83295247D01*
X128470017Y-83295247D02*
X128508112Y-83371438D01*
X128508112Y-83371438D02*
X128508112Y-83561914D01*
X128508112Y-83561914D02*
X128470017Y-83638104D01*
X128470017Y-83638104D02*
X128431922Y-83676200D01*
X128431922Y-83676200D02*
X128355731Y-83714295D01*
X128355731Y-83714295D02*
X128165255Y-83714295D01*
X128165255Y-83714295D02*
X128089065Y-83676200D01*
X128089065Y-83676200D02*
X128050969Y-83638104D01*
X126489064Y-86025723D02*
X126870017Y-86025723D01*
X126412874Y-86254295D02*
X126679541Y-85454295D01*
X126679541Y-85454295D02*
X126946207Y-86254295D01*
X127327159Y-85797152D02*
X127250969Y-85759057D01*
X127250969Y-85759057D02*
X127212874Y-85720961D01*
X127212874Y-85720961D02*
X127174778Y-85644771D01*
X127174778Y-85644771D02*
X127174778Y-85606676D01*
X127174778Y-85606676D02*
X127212874Y-85530485D01*
X127212874Y-85530485D02*
X127250969Y-85492390D01*
X127250969Y-85492390D02*
X127327159Y-85454295D01*
X127327159Y-85454295D02*
X127479540Y-85454295D01*
X127479540Y-85454295D02*
X127555731Y-85492390D01*
X127555731Y-85492390D02*
X127593826Y-85530485D01*
X127593826Y-85530485D02*
X127631921Y-85606676D01*
X127631921Y-85606676D02*
X127631921Y-85644771D01*
X127631921Y-85644771D02*
X127593826Y-85720961D01*
X127593826Y-85720961D02*
X127555731Y-85759057D01*
X127555731Y-85759057D02*
X127479540Y-85797152D01*
X127479540Y-85797152D02*
X127327159Y-85797152D01*
X127327159Y-85797152D02*
X127250969Y-85835247D01*
X127250969Y-85835247D02*
X127212874Y-85873342D01*
X127212874Y-85873342D02*
X127174778Y-85949533D01*
X127174778Y-85949533D02*
X127174778Y-86101914D01*
X127174778Y-86101914D02*
X127212874Y-86178104D01*
X127212874Y-86178104D02*
X127250969Y-86216200D01*
X127250969Y-86216200D02*
X127327159Y-86254295D01*
X127327159Y-86254295D02*
X127479540Y-86254295D01*
X127479540Y-86254295D02*
X127555731Y-86216200D01*
X127555731Y-86216200D02*
X127593826Y-86178104D01*
X127593826Y-86178104D02*
X127631921Y-86101914D01*
X127631921Y-86101914D02*
X127631921Y-85949533D01*
X127631921Y-85949533D02*
X127593826Y-85873342D01*
X127593826Y-85873342D02*
X127555731Y-85835247D01*
X127555731Y-85835247D02*
X127479540Y-85797152D01*
X126489064Y-88565723D02*
X126870017Y-88565723D01*
X126412874Y-88794295D02*
X126679541Y-87994295D01*
X126679541Y-87994295D02*
X126946207Y-88794295D01*
X127250969Y-88794295D02*
X127403350Y-88794295D01*
X127403350Y-88794295D02*
X127479540Y-88756200D01*
X127479540Y-88756200D02*
X127517636Y-88718104D01*
X127517636Y-88718104D02*
X127593826Y-88603819D01*
X127593826Y-88603819D02*
X127631921Y-88451438D01*
X127631921Y-88451438D02*
X127631921Y-88146676D01*
X127631921Y-88146676D02*
X127593826Y-88070485D01*
X127593826Y-88070485D02*
X127555731Y-88032390D01*
X127555731Y-88032390D02*
X127479540Y-87994295D01*
X127479540Y-87994295D02*
X127327159Y-87994295D01*
X127327159Y-87994295D02*
X127250969Y-88032390D01*
X127250969Y-88032390D02*
X127212874Y-88070485D01*
X127212874Y-88070485D02*
X127174778Y-88146676D01*
X127174778Y-88146676D02*
X127174778Y-88337152D01*
X127174778Y-88337152D02*
X127212874Y-88413342D01*
X127212874Y-88413342D02*
X127250969Y-88451438D01*
X127250969Y-88451438D02*
X127327159Y-88489533D01*
X127327159Y-88489533D02*
X127479540Y-88489533D01*
X127479540Y-88489533D02*
X127555731Y-88451438D01*
X127555731Y-88451438D02*
X127593826Y-88413342D01*
X127593826Y-88413342D02*
X127631921Y-88337152D01*
X126489064Y-91105723D02*
X126870017Y-91105723D01*
X126412874Y-91334295D02*
X126679541Y-90534295D01*
X126679541Y-90534295D02*
X126946207Y-91334295D01*
X127631921Y-91334295D02*
X127174778Y-91334295D01*
X127403350Y-91334295D02*
X127403350Y-90534295D01*
X127403350Y-90534295D02*
X127327159Y-90648580D01*
X127327159Y-90648580D02*
X127250969Y-90724771D01*
X127250969Y-90724771D02*
X127174778Y-90762866D01*
X128127160Y-90534295D02*
X128203350Y-90534295D01*
X128203350Y-90534295D02*
X128279541Y-90572390D01*
X128279541Y-90572390D02*
X128317636Y-90610485D01*
X128317636Y-90610485D02*
X128355731Y-90686676D01*
X128355731Y-90686676D02*
X128393826Y-90839057D01*
X128393826Y-90839057D02*
X128393826Y-91029533D01*
X128393826Y-91029533D02*
X128355731Y-91181914D01*
X128355731Y-91181914D02*
X128317636Y-91258104D01*
X128317636Y-91258104D02*
X128279541Y-91296200D01*
X128279541Y-91296200D02*
X128203350Y-91334295D01*
X128203350Y-91334295D02*
X128127160Y-91334295D01*
X128127160Y-91334295D02*
X128050969Y-91296200D01*
X128050969Y-91296200D02*
X128012874Y-91258104D01*
X128012874Y-91258104D02*
X127974779Y-91181914D01*
X127974779Y-91181914D02*
X127936683Y-91029533D01*
X127936683Y-91029533D02*
X127936683Y-90839057D01*
X127936683Y-90839057D02*
X127974779Y-90686676D01*
X127974779Y-90686676D02*
X128012874Y-90610485D01*
X128012874Y-90610485D02*
X128050969Y-90572390D01*
X128050969Y-90572390D02*
X128127160Y-90534295D01*
X126489064Y-93645723D02*
X126870017Y-93645723D01*
X126412874Y-93874295D02*
X126679541Y-93074295D01*
X126679541Y-93074295D02*
X126946207Y-93874295D01*
X127631921Y-93874295D02*
X127174778Y-93874295D01*
X127403350Y-93874295D02*
X127403350Y-93074295D01*
X127403350Y-93074295D02*
X127327159Y-93188580D01*
X127327159Y-93188580D02*
X127250969Y-93264771D01*
X127250969Y-93264771D02*
X127174778Y-93302866D01*
X128393826Y-93874295D02*
X127936683Y-93874295D01*
X128165255Y-93874295D02*
X128165255Y-93074295D01*
X128165255Y-93074295D02*
X128089064Y-93188580D01*
X128089064Y-93188580D02*
X128012874Y-93264771D01*
X128012874Y-93264771D02*
X127936683Y-93302866D01*
X126489064Y-96185723D02*
X126870017Y-96185723D01*
X126412874Y-96414295D02*
X126679541Y-95614295D01*
X126679541Y-95614295D02*
X126946207Y-96414295D01*
X127631921Y-96414295D02*
X127174778Y-96414295D01*
X127403350Y-96414295D02*
X127403350Y-95614295D01*
X127403350Y-95614295D02*
X127327159Y-95728580D01*
X127327159Y-95728580D02*
X127250969Y-95804771D01*
X127250969Y-95804771D02*
X127174778Y-95842866D01*
X127936683Y-95690485D02*
X127974779Y-95652390D01*
X127974779Y-95652390D02*
X128050969Y-95614295D01*
X128050969Y-95614295D02*
X128241445Y-95614295D01*
X128241445Y-95614295D02*
X128317636Y-95652390D01*
X128317636Y-95652390D02*
X128355731Y-95690485D01*
X128355731Y-95690485D02*
X128393826Y-95766676D01*
X128393826Y-95766676D02*
X128393826Y-95842866D01*
X128393826Y-95842866D02*
X128355731Y-95957152D01*
X128355731Y-95957152D02*
X127898588Y-96414295D01*
X127898588Y-96414295D02*
X128393826Y-96414295D01*
X126489064Y-98725723D02*
X126870017Y-98725723D01*
X126412874Y-98954295D02*
X126679541Y-98154295D01*
X126679541Y-98154295D02*
X126946207Y-98954295D01*
X127631921Y-98954295D02*
X127174778Y-98954295D01*
X127403350Y-98954295D02*
X127403350Y-98154295D01*
X127403350Y-98154295D02*
X127327159Y-98268580D01*
X127327159Y-98268580D02*
X127250969Y-98344771D01*
X127250969Y-98344771D02*
X127174778Y-98382866D01*
X128355731Y-98154295D02*
X127974779Y-98154295D01*
X127974779Y-98154295D02*
X127936683Y-98535247D01*
X127936683Y-98535247D02*
X127974779Y-98497152D01*
X127974779Y-98497152D02*
X128050969Y-98459057D01*
X128050969Y-98459057D02*
X128241445Y-98459057D01*
X128241445Y-98459057D02*
X128317636Y-98497152D01*
X128317636Y-98497152D02*
X128355731Y-98535247D01*
X128355731Y-98535247D02*
X128393826Y-98611438D01*
X128393826Y-98611438D02*
X128393826Y-98801914D01*
X128393826Y-98801914D02*
X128355731Y-98878104D01*
X128355731Y-98878104D02*
X128317636Y-98916200D01*
X128317636Y-98916200D02*
X128241445Y-98954295D01*
X128241445Y-98954295D02*
X128050969Y-98954295D01*
X128050969Y-98954295D02*
X127974779Y-98916200D01*
X127974779Y-98916200D02*
X127936683Y-98878104D01*
X126793826Y-101075247D02*
X126908112Y-101113342D01*
X126908112Y-101113342D02*
X126946207Y-101151438D01*
X126946207Y-101151438D02*
X126984303Y-101227628D01*
X126984303Y-101227628D02*
X126984303Y-101341914D01*
X126984303Y-101341914D02*
X126946207Y-101418104D01*
X126946207Y-101418104D02*
X126908112Y-101456200D01*
X126908112Y-101456200D02*
X126831922Y-101494295D01*
X126831922Y-101494295D02*
X126527160Y-101494295D01*
X126527160Y-101494295D02*
X126527160Y-100694295D01*
X126527160Y-100694295D02*
X126793826Y-100694295D01*
X126793826Y-100694295D02*
X126870017Y-100732390D01*
X126870017Y-100732390D02*
X126908112Y-100770485D01*
X126908112Y-100770485D02*
X126946207Y-100846676D01*
X126946207Y-100846676D02*
X126946207Y-100922866D01*
X126946207Y-100922866D02*
X126908112Y-100999057D01*
X126908112Y-100999057D02*
X126870017Y-101037152D01*
X126870017Y-101037152D02*
X126793826Y-101075247D01*
X126793826Y-101075247D02*
X126527160Y-101075247D01*
X127250969Y-100694295D02*
X127746207Y-100694295D01*
X127746207Y-100694295D02*
X127479541Y-100999057D01*
X127479541Y-100999057D02*
X127593826Y-100999057D01*
X127593826Y-100999057D02*
X127670017Y-101037152D01*
X127670017Y-101037152D02*
X127708112Y-101075247D01*
X127708112Y-101075247D02*
X127746207Y-101151438D01*
X127746207Y-101151438D02*
X127746207Y-101341914D01*
X127746207Y-101341914D02*
X127708112Y-101418104D01*
X127708112Y-101418104D02*
X127670017Y-101456200D01*
X127670017Y-101456200D02*
X127593826Y-101494295D01*
X127593826Y-101494295D02*
X127365255Y-101494295D01*
X127365255Y-101494295D02*
X127289064Y-101456200D01*
X127289064Y-101456200D02*
X127250969Y-101418104D01*
X126793826Y-103615247D02*
X126908112Y-103653342D01*
X126908112Y-103653342D02*
X126946207Y-103691438D01*
X126946207Y-103691438D02*
X126984303Y-103767628D01*
X126984303Y-103767628D02*
X126984303Y-103881914D01*
X126984303Y-103881914D02*
X126946207Y-103958104D01*
X126946207Y-103958104D02*
X126908112Y-103996200D01*
X126908112Y-103996200D02*
X126831922Y-104034295D01*
X126831922Y-104034295D02*
X126527160Y-104034295D01*
X126527160Y-104034295D02*
X126527160Y-103234295D01*
X126527160Y-103234295D02*
X126793826Y-103234295D01*
X126793826Y-103234295D02*
X126870017Y-103272390D01*
X126870017Y-103272390D02*
X126908112Y-103310485D01*
X126908112Y-103310485D02*
X126946207Y-103386676D01*
X126946207Y-103386676D02*
X126946207Y-103462866D01*
X126946207Y-103462866D02*
X126908112Y-103539057D01*
X126908112Y-103539057D02*
X126870017Y-103577152D01*
X126870017Y-103577152D02*
X126793826Y-103615247D01*
X126793826Y-103615247D02*
X126527160Y-103615247D01*
X127670017Y-103500961D02*
X127670017Y-104034295D01*
X127479541Y-103196200D02*
X127289064Y-103767628D01*
X127289064Y-103767628D02*
X127784303Y-103767628D01*
X126793826Y-106155247D02*
X126908112Y-106193342D01*
X126908112Y-106193342D02*
X126946207Y-106231438D01*
X126946207Y-106231438D02*
X126984303Y-106307628D01*
X126984303Y-106307628D02*
X126984303Y-106421914D01*
X126984303Y-106421914D02*
X126946207Y-106498104D01*
X126946207Y-106498104D02*
X126908112Y-106536200D01*
X126908112Y-106536200D02*
X126831922Y-106574295D01*
X126831922Y-106574295D02*
X126527160Y-106574295D01*
X126527160Y-106574295D02*
X126527160Y-105774295D01*
X126527160Y-105774295D02*
X126793826Y-105774295D01*
X126793826Y-105774295D02*
X126870017Y-105812390D01*
X126870017Y-105812390D02*
X126908112Y-105850485D01*
X126908112Y-105850485D02*
X126946207Y-105926676D01*
X126946207Y-105926676D02*
X126946207Y-106002866D01*
X126946207Y-106002866D02*
X126908112Y-106079057D01*
X126908112Y-106079057D02*
X126870017Y-106117152D01*
X126870017Y-106117152D02*
X126793826Y-106155247D01*
X126793826Y-106155247D02*
X126527160Y-106155247D01*
X127708112Y-105774295D02*
X127327160Y-105774295D01*
X127327160Y-105774295D02*
X127289064Y-106155247D01*
X127289064Y-106155247D02*
X127327160Y-106117152D01*
X127327160Y-106117152D02*
X127403350Y-106079057D01*
X127403350Y-106079057D02*
X127593826Y-106079057D01*
X127593826Y-106079057D02*
X127670017Y-106117152D01*
X127670017Y-106117152D02*
X127708112Y-106155247D01*
X127708112Y-106155247D02*
X127746207Y-106231438D01*
X127746207Y-106231438D02*
X127746207Y-106421914D01*
X127746207Y-106421914D02*
X127708112Y-106498104D01*
X127708112Y-106498104D02*
X127670017Y-106536200D01*
X127670017Y-106536200D02*
X127593826Y-106574295D01*
X127593826Y-106574295D02*
X127403350Y-106574295D01*
X127403350Y-106574295D02*
X127327160Y-106536200D01*
X127327160Y-106536200D02*
X127289064Y-106498104D01*
X126793826Y-108695247D02*
X126908112Y-108733342D01*
X126908112Y-108733342D02*
X126946207Y-108771438D01*
X126946207Y-108771438D02*
X126984303Y-108847628D01*
X126984303Y-108847628D02*
X126984303Y-108961914D01*
X126984303Y-108961914D02*
X126946207Y-109038104D01*
X126946207Y-109038104D02*
X126908112Y-109076200D01*
X126908112Y-109076200D02*
X126831922Y-109114295D01*
X126831922Y-109114295D02*
X126527160Y-109114295D01*
X126527160Y-109114295D02*
X126527160Y-108314295D01*
X126527160Y-108314295D02*
X126793826Y-108314295D01*
X126793826Y-108314295D02*
X126870017Y-108352390D01*
X126870017Y-108352390D02*
X126908112Y-108390485D01*
X126908112Y-108390485D02*
X126946207Y-108466676D01*
X126946207Y-108466676D02*
X126946207Y-108542866D01*
X126946207Y-108542866D02*
X126908112Y-108619057D01*
X126908112Y-108619057D02*
X126870017Y-108657152D01*
X126870017Y-108657152D02*
X126793826Y-108695247D01*
X126793826Y-108695247D02*
X126527160Y-108695247D01*
X127670017Y-108314295D02*
X127517636Y-108314295D01*
X127517636Y-108314295D02*
X127441445Y-108352390D01*
X127441445Y-108352390D02*
X127403350Y-108390485D01*
X127403350Y-108390485D02*
X127327160Y-108504771D01*
X127327160Y-108504771D02*
X127289064Y-108657152D01*
X127289064Y-108657152D02*
X127289064Y-108961914D01*
X127289064Y-108961914D02*
X127327160Y-109038104D01*
X127327160Y-109038104D02*
X127365255Y-109076200D01*
X127365255Y-109076200D02*
X127441445Y-109114295D01*
X127441445Y-109114295D02*
X127593826Y-109114295D01*
X127593826Y-109114295D02*
X127670017Y-109076200D01*
X127670017Y-109076200D02*
X127708112Y-109038104D01*
X127708112Y-109038104D02*
X127746207Y-108961914D01*
X127746207Y-108961914D02*
X127746207Y-108771438D01*
X127746207Y-108771438D02*
X127708112Y-108695247D01*
X127708112Y-108695247D02*
X127670017Y-108657152D01*
X127670017Y-108657152D02*
X127593826Y-108619057D01*
X127593826Y-108619057D02*
X127441445Y-108619057D01*
X127441445Y-108619057D02*
X127365255Y-108657152D01*
X127365255Y-108657152D02*
X127327160Y-108695247D01*
X127327160Y-108695247D02*
X127289064Y-108771438D01*
X126793826Y-111235247D02*
X126908112Y-111273342D01*
X126908112Y-111273342D02*
X126946207Y-111311438D01*
X126946207Y-111311438D02*
X126984303Y-111387628D01*
X126984303Y-111387628D02*
X126984303Y-111501914D01*
X126984303Y-111501914D02*
X126946207Y-111578104D01*
X126946207Y-111578104D02*
X126908112Y-111616200D01*
X126908112Y-111616200D02*
X126831922Y-111654295D01*
X126831922Y-111654295D02*
X126527160Y-111654295D01*
X126527160Y-111654295D02*
X126527160Y-110854295D01*
X126527160Y-110854295D02*
X126793826Y-110854295D01*
X126793826Y-110854295D02*
X126870017Y-110892390D01*
X126870017Y-110892390D02*
X126908112Y-110930485D01*
X126908112Y-110930485D02*
X126946207Y-111006676D01*
X126946207Y-111006676D02*
X126946207Y-111082866D01*
X126946207Y-111082866D02*
X126908112Y-111159057D01*
X126908112Y-111159057D02*
X126870017Y-111197152D01*
X126870017Y-111197152D02*
X126793826Y-111235247D01*
X126793826Y-111235247D02*
X126527160Y-111235247D01*
X127746207Y-111654295D02*
X127289064Y-111654295D01*
X127517636Y-111654295D02*
X127517636Y-110854295D01*
X127517636Y-110854295D02*
X127441445Y-110968580D01*
X127441445Y-110968580D02*
X127365255Y-111044771D01*
X127365255Y-111044771D02*
X127289064Y-111082866D01*
X128050969Y-110930485D02*
X128089065Y-110892390D01*
X128089065Y-110892390D02*
X128165255Y-110854295D01*
X128165255Y-110854295D02*
X128355731Y-110854295D01*
X128355731Y-110854295D02*
X128431922Y-110892390D01*
X128431922Y-110892390D02*
X128470017Y-110930485D01*
X128470017Y-110930485D02*
X128508112Y-111006676D01*
X128508112Y-111006676D02*
X128508112Y-111082866D01*
X128508112Y-111082866D02*
X128470017Y-111197152D01*
X128470017Y-111197152D02*
X128012874Y-111654295D01*
X128012874Y-111654295D02*
X128508112Y-111654295D01*
X126793826Y-113775247D02*
X126908112Y-113813342D01*
X126908112Y-113813342D02*
X126946207Y-113851438D01*
X126946207Y-113851438D02*
X126984303Y-113927628D01*
X126984303Y-113927628D02*
X126984303Y-114041914D01*
X126984303Y-114041914D02*
X126946207Y-114118104D01*
X126946207Y-114118104D02*
X126908112Y-114156200D01*
X126908112Y-114156200D02*
X126831922Y-114194295D01*
X126831922Y-114194295D02*
X126527160Y-114194295D01*
X126527160Y-114194295D02*
X126527160Y-113394295D01*
X126527160Y-113394295D02*
X126793826Y-113394295D01*
X126793826Y-113394295D02*
X126870017Y-113432390D01*
X126870017Y-113432390D02*
X126908112Y-113470485D01*
X126908112Y-113470485D02*
X126946207Y-113546676D01*
X126946207Y-113546676D02*
X126946207Y-113622866D01*
X126946207Y-113622866D02*
X126908112Y-113699057D01*
X126908112Y-113699057D02*
X126870017Y-113737152D01*
X126870017Y-113737152D02*
X126793826Y-113775247D01*
X126793826Y-113775247D02*
X126527160Y-113775247D01*
X127441445Y-113737152D02*
X127365255Y-113699057D01*
X127365255Y-113699057D02*
X127327160Y-113660961D01*
X127327160Y-113660961D02*
X127289064Y-113584771D01*
X127289064Y-113584771D02*
X127289064Y-113546676D01*
X127289064Y-113546676D02*
X127327160Y-113470485D01*
X127327160Y-113470485D02*
X127365255Y-113432390D01*
X127365255Y-113432390D02*
X127441445Y-113394295D01*
X127441445Y-113394295D02*
X127593826Y-113394295D01*
X127593826Y-113394295D02*
X127670017Y-113432390D01*
X127670017Y-113432390D02*
X127708112Y-113470485D01*
X127708112Y-113470485D02*
X127746207Y-113546676D01*
X127746207Y-113546676D02*
X127746207Y-113584771D01*
X127746207Y-113584771D02*
X127708112Y-113660961D01*
X127708112Y-113660961D02*
X127670017Y-113699057D01*
X127670017Y-113699057D02*
X127593826Y-113737152D01*
X127593826Y-113737152D02*
X127441445Y-113737152D01*
X127441445Y-113737152D02*
X127365255Y-113775247D01*
X127365255Y-113775247D02*
X127327160Y-113813342D01*
X127327160Y-113813342D02*
X127289064Y-113889533D01*
X127289064Y-113889533D02*
X127289064Y-114041914D01*
X127289064Y-114041914D02*
X127327160Y-114118104D01*
X127327160Y-114118104D02*
X127365255Y-114156200D01*
X127365255Y-114156200D02*
X127441445Y-114194295D01*
X127441445Y-114194295D02*
X127593826Y-114194295D01*
X127593826Y-114194295D02*
X127670017Y-114156200D01*
X127670017Y-114156200D02*
X127708112Y-114118104D01*
X127708112Y-114118104D02*
X127746207Y-114041914D01*
X127746207Y-114041914D02*
X127746207Y-113889533D01*
X127746207Y-113889533D02*
X127708112Y-113813342D01*
X127708112Y-113813342D02*
X127670017Y-113775247D01*
X127670017Y-113775247D02*
X127593826Y-113737152D01*
X126793826Y-116315247D02*
X126908112Y-116353342D01*
X126908112Y-116353342D02*
X126946207Y-116391438D01*
X126946207Y-116391438D02*
X126984303Y-116467628D01*
X126984303Y-116467628D02*
X126984303Y-116581914D01*
X126984303Y-116581914D02*
X126946207Y-116658104D01*
X126946207Y-116658104D02*
X126908112Y-116696200D01*
X126908112Y-116696200D02*
X126831922Y-116734295D01*
X126831922Y-116734295D02*
X126527160Y-116734295D01*
X126527160Y-116734295D02*
X126527160Y-115934295D01*
X126527160Y-115934295D02*
X126793826Y-115934295D01*
X126793826Y-115934295D02*
X126870017Y-115972390D01*
X126870017Y-115972390D02*
X126908112Y-116010485D01*
X126908112Y-116010485D02*
X126946207Y-116086676D01*
X126946207Y-116086676D02*
X126946207Y-116162866D01*
X126946207Y-116162866D02*
X126908112Y-116239057D01*
X126908112Y-116239057D02*
X126870017Y-116277152D01*
X126870017Y-116277152D02*
X126793826Y-116315247D01*
X126793826Y-116315247D02*
X126527160Y-116315247D01*
X127365255Y-116734295D02*
X127517636Y-116734295D01*
X127517636Y-116734295D02*
X127593826Y-116696200D01*
X127593826Y-116696200D02*
X127631922Y-116658104D01*
X127631922Y-116658104D02*
X127708112Y-116543819D01*
X127708112Y-116543819D02*
X127746207Y-116391438D01*
X127746207Y-116391438D02*
X127746207Y-116086676D01*
X127746207Y-116086676D02*
X127708112Y-116010485D01*
X127708112Y-116010485D02*
X127670017Y-115972390D01*
X127670017Y-115972390D02*
X127593826Y-115934295D01*
X127593826Y-115934295D02*
X127441445Y-115934295D01*
X127441445Y-115934295D02*
X127365255Y-115972390D01*
X127365255Y-115972390D02*
X127327160Y-116010485D01*
X127327160Y-116010485D02*
X127289064Y-116086676D01*
X127289064Y-116086676D02*
X127289064Y-116277152D01*
X127289064Y-116277152D02*
X127327160Y-116353342D01*
X127327160Y-116353342D02*
X127365255Y-116391438D01*
X127365255Y-116391438D02*
X127441445Y-116429533D01*
X127441445Y-116429533D02*
X127593826Y-116429533D01*
X127593826Y-116429533D02*
X127670017Y-116391438D01*
X127670017Y-116391438D02*
X127708112Y-116353342D01*
X127708112Y-116353342D02*
X127746207Y-116277152D01*
X126908112Y-118474295D02*
X126527160Y-118474295D01*
X126527160Y-118474295D02*
X126489064Y-118855247D01*
X126489064Y-118855247D02*
X126527160Y-118817152D01*
X126527160Y-118817152D02*
X126603350Y-118779057D01*
X126603350Y-118779057D02*
X126793826Y-118779057D01*
X126793826Y-118779057D02*
X126870017Y-118817152D01*
X126870017Y-118817152D02*
X126908112Y-118855247D01*
X126908112Y-118855247D02*
X126946207Y-118931438D01*
X126946207Y-118931438D02*
X126946207Y-119121914D01*
X126946207Y-119121914D02*
X126908112Y-119198104D01*
X126908112Y-119198104D02*
X126870017Y-119236200D01*
X126870017Y-119236200D02*
X126793826Y-119274295D01*
X126793826Y-119274295D02*
X126603350Y-119274295D01*
X126603350Y-119274295D02*
X126527160Y-119236200D01*
X126527160Y-119236200D02*
X126489064Y-119198104D01*
X127174779Y-118474295D02*
X127441446Y-119274295D01*
X127441446Y-119274295D02*
X127708112Y-118474295D01*
X126946207Y-121052390D02*
X126870017Y-121014295D01*
X126870017Y-121014295D02*
X126755731Y-121014295D01*
X126755731Y-121014295D02*
X126641445Y-121052390D01*
X126641445Y-121052390D02*
X126565255Y-121128580D01*
X126565255Y-121128580D02*
X126527160Y-121204771D01*
X126527160Y-121204771D02*
X126489064Y-121357152D01*
X126489064Y-121357152D02*
X126489064Y-121471438D01*
X126489064Y-121471438D02*
X126527160Y-121623819D01*
X126527160Y-121623819D02*
X126565255Y-121700009D01*
X126565255Y-121700009D02*
X126641445Y-121776200D01*
X126641445Y-121776200D02*
X126755731Y-121814295D01*
X126755731Y-121814295D02*
X126831922Y-121814295D01*
X126831922Y-121814295D02*
X126946207Y-121776200D01*
X126946207Y-121776200D02*
X126984303Y-121738104D01*
X126984303Y-121738104D02*
X126984303Y-121471438D01*
X126984303Y-121471438D02*
X126831922Y-121471438D01*
X127327160Y-121814295D02*
X127327160Y-121014295D01*
X127327160Y-121014295D02*
X127784303Y-121814295D01*
X127784303Y-121814295D02*
X127784303Y-121014295D01*
X128165255Y-121814295D02*
X128165255Y-121014295D01*
X128165255Y-121014295D02*
X128355731Y-121014295D01*
X128355731Y-121014295D02*
X128470017Y-121052390D01*
X128470017Y-121052390D02*
X128546207Y-121128580D01*
X128546207Y-121128580D02*
X128584302Y-121204771D01*
X128584302Y-121204771D02*
X128622398Y-121357152D01*
X128622398Y-121357152D02*
X128622398Y-121471438D01*
X128622398Y-121471438D02*
X128584302Y-121623819D01*
X128584302Y-121623819D02*
X128546207Y-121700009D01*
X128546207Y-121700009D02*
X128470017Y-121776200D01*
X128470017Y-121776200D02*
X128355731Y-121814295D01*
X128355731Y-121814295D02*
X128165255Y-121814295D01*
X126450969Y-123554295D02*
X126946207Y-123554295D01*
X126946207Y-123554295D02*
X126679541Y-123859057D01*
X126679541Y-123859057D02*
X126793826Y-123859057D01*
X126793826Y-123859057D02*
X126870017Y-123897152D01*
X126870017Y-123897152D02*
X126908112Y-123935247D01*
X126908112Y-123935247D02*
X126946207Y-124011438D01*
X126946207Y-124011438D02*
X126946207Y-124201914D01*
X126946207Y-124201914D02*
X126908112Y-124278104D01*
X126908112Y-124278104D02*
X126870017Y-124316200D01*
X126870017Y-124316200D02*
X126793826Y-124354295D01*
X126793826Y-124354295D02*
X126565255Y-124354295D01*
X126565255Y-124354295D02*
X126489064Y-124316200D01*
X126489064Y-124316200D02*
X126450969Y-124278104D01*
X127289065Y-124278104D02*
X127327160Y-124316200D01*
X127327160Y-124316200D02*
X127289065Y-124354295D01*
X127289065Y-124354295D02*
X127250969Y-124316200D01*
X127250969Y-124316200D02*
X127289065Y-124278104D01*
X127289065Y-124278104D02*
X127289065Y-124354295D01*
X127593826Y-123554295D02*
X128089064Y-123554295D01*
X128089064Y-123554295D02*
X127822398Y-123859057D01*
X127822398Y-123859057D02*
X127936683Y-123859057D01*
X127936683Y-123859057D02*
X128012874Y-123897152D01*
X128012874Y-123897152D02*
X128050969Y-123935247D01*
X128050969Y-123935247D02*
X128089064Y-124011438D01*
X128089064Y-124011438D02*
X128089064Y-124201914D01*
X128089064Y-124201914D02*
X128050969Y-124278104D01*
X128050969Y-124278104D02*
X128012874Y-124316200D01*
X128012874Y-124316200D02*
X127936683Y-124354295D01*
X127936683Y-124354295D02*
X127708112Y-124354295D01*
X127708112Y-124354295D02*
X127631921Y-124316200D01*
X127631921Y-124316200D02*
X127593826Y-124278104D01*
X128317636Y-123554295D02*
X128584303Y-124354295D01*
X128584303Y-124354295D02*
X128850969Y-123554295D01*
X133055826Y-114275247D02*
X133170112Y-114313342D01*
X133170112Y-114313342D02*
X133208207Y-114351438D01*
X133208207Y-114351438D02*
X133246303Y-114427628D01*
X133246303Y-114427628D02*
X133246303Y-114541914D01*
X133246303Y-114541914D02*
X133208207Y-114618104D01*
X133208207Y-114618104D02*
X133170112Y-114656200D01*
X133170112Y-114656200D02*
X133093922Y-114694295D01*
X133093922Y-114694295D02*
X132789160Y-114694295D01*
X132789160Y-114694295D02*
X132789160Y-113894295D01*
X132789160Y-113894295D02*
X133055826Y-113894295D01*
X133055826Y-113894295D02*
X133132017Y-113932390D01*
X133132017Y-113932390D02*
X133170112Y-113970485D01*
X133170112Y-113970485D02*
X133208207Y-114046676D01*
X133208207Y-114046676D02*
X133208207Y-114122866D01*
X133208207Y-114122866D02*
X133170112Y-114199057D01*
X133170112Y-114199057D02*
X133132017Y-114237152D01*
X133132017Y-114237152D02*
X133055826Y-114275247D01*
X133055826Y-114275247D02*
X132789160Y-114275247D01*
X133741541Y-113894295D02*
X133893922Y-113894295D01*
X133893922Y-113894295D02*
X133970112Y-113932390D01*
X133970112Y-113932390D02*
X134046303Y-114008580D01*
X134046303Y-114008580D02*
X134084398Y-114160961D01*
X134084398Y-114160961D02*
X134084398Y-114427628D01*
X134084398Y-114427628D02*
X134046303Y-114580009D01*
X134046303Y-114580009D02*
X133970112Y-114656200D01*
X133970112Y-114656200D02*
X133893922Y-114694295D01*
X133893922Y-114694295D02*
X133741541Y-114694295D01*
X133741541Y-114694295D02*
X133665350Y-114656200D01*
X133665350Y-114656200D02*
X133589160Y-114580009D01*
X133589160Y-114580009D02*
X133551064Y-114427628D01*
X133551064Y-114427628D02*
X133551064Y-114160961D01*
X133551064Y-114160961D02*
X133589160Y-114008580D01*
X133589160Y-114008580D02*
X133665350Y-113932390D01*
X133665350Y-113932390D02*
X133741541Y-113894295D01*
X134579636Y-113894295D02*
X134732017Y-113894295D01*
X134732017Y-113894295D02*
X134808207Y-113932390D01*
X134808207Y-113932390D02*
X134884398Y-114008580D01*
X134884398Y-114008580D02*
X134922493Y-114160961D01*
X134922493Y-114160961D02*
X134922493Y-114427628D01*
X134922493Y-114427628D02*
X134884398Y-114580009D01*
X134884398Y-114580009D02*
X134808207Y-114656200D01*
X134808207Y-114656200D02*
X134732017Y-114694295D01*
X134732017Y-114694295D02*
X134579636Y-114694295D01*
X134579636Y-114694295D02*
X134503445Y-114656200D01*
X134503445Y-114656200D02*
X134427255Y-114580009D01*
X134427255Y-114580009D02*
X134389159Y-114427628D01*
X134389159Y-114427628D02*
X134389159Y-114160961D01*
X134389159Y-114160961D02*
X134427255Y-114008580D01*
X134427255Y-114008580D02*
X134503445Y-113932390D01*
X134503445Y-113932390D02*
X134579636Y-113894295D01*
X135151064Y-113894295D02*
X135608207Y-113894295D01*
X135379635Y-114694295D02*
X135379635Y-113894295D01*
X136027255Y-113894295D02*
X136103445Y-113894295D01*
X136103445Y-113894295D02*
X136179636Y-113932390D01*
X136179636Y-113932390D02*
X136217731Y-113970485D01*
X136217731Y-113970485D02*
X136255826Y-114046676D01*
X136255826Y-114046676D02*
X136293921Y-114199057D01*
X136293921Y-114199057D02*
X136293921Y-114389533D01*
X136293921Y-114389533D02*
X136255826Y-114541914D01*
X136255826Y-114541914D02*
X136217731Y-114618104D01*
X136217731Y-114618104D02*
X136179636Y-114656200D01*
X136179636Y-114656200D02*
X136103445Y-114694295D01*
X136103445Y-114694295D02*
X136027255Y-114694295D01*
X136027255Y-114694295D02*
X135951064Y-114656200D01*
X135951064Y-114656200D02*
X135912969Y-114618104D01*
X135912969Y-114618104D02*
X135874874Y-114541914D01*
X135874874Y-114541914D02*
X135836778Y-114389533D01*
X135836778Y-114389533D02*
X135836778Y-114199057D01*
X135836778Y-114199057D02*
X135874874Y-114046676D01*
X135874874Y-114046676D02*
X135912969Y-113970485D01*
X135912969Y-113970485D02*
X135951064Y-113932390D01*
X135951064Y-113932390D02*
X136027255Y-113894295D01*
X133392303Y-86138295D02*
X133125636Y-85757342D01*
X132935160Y-86138295D02*
X132935160Y-85338295D01*
X132935160Y-85338295D02*
X133239922Y-85338295D01*
X133239922Y-85338295D02*
X133316112Y-85376390D01*
X133316112Y-85376390D02*
X133354207Y-85414485D01*
X133354207Y-85414485D02*
X133392303Y-85490676D01*
X133392303Y-85490676D02*
X133392303Y-85604961D01*
X133392303Y-85604961D02*
X133354207Y-85681152D01*
X133354207Y-85681152D02*
X133316112Y-85719247D01*
X133316112Y-85719247D02*
X133239922Y-85757342D01*
X133239922Y-85757342D02*
X132935160Y-85757342D01*
X133735160Y-85719247D02*
X134001826Y-85719247D01*
X134116112Y-86138295D02*
X133735160Y-86138295D01*
X133735160Y-86138295D02*
X133735160Y-85338295D01*
X133735160Y-85338295D02*
X134116112Y-85338295D01*
X134420874Y-86100200D02*
X134535160Y-86138295D01*
X134535160Y-86138295D02*
X134725636Y-86138295D01*
X134725636Y-86138295D02*
X134801827Y-86100200D01*
X134801827Y-86100200D02*
X134839922Y-86062104D01*
X134839922Y-86062104D02*
X134878017Y-85985914D01*
X134878017Y-85985914D02*
X134878017Y-85909723D01*
X134878017Y-85909723D02*
X134839922Y-85833533D01*
X134839922Y-85833533D02*
X134801827Y-85795438D01*
X134801827Y-85795438D02*
X134725636Y-85757342D01*
X134725636Y-85757342D02*
X134573255Y-85719247D01*
X134573255Y-85719247D02*
X134497065Y-85681152D01*
X134497065Y-85681152D02*
X134458970Y-85643057D01*
X134458970Y-85643057D02*
X134420874Y-85566866D01*
X134420874Y-85566866D02*
X134420874Y-85490676D01*
X134420874Y-85490676D02*
X134458970Y-85414485D01*
X134458970Y-85414485D02*
X134497065Y-85376390D01*
X134497065Y-85376390D02*
X134573255Y-85338295D01*
X134573255Y-85338295D02*
X134763732Y-85338295D01*
X134763732Y-85338295D02*
X134878017Y-85376390D01*
X135220875Y-85719247D02*
X135487541Y-85719247D01*
X135601827Y-86138295D02*
X135220875Y-86138295D01*
X135220875Y-86138295D02*
X135220875Y-85338295D01*
X135220875Y-85338295D02*
X135601827Y-85338295D01*
X135830399Y-85338295D02*
X136287542Y-85338295D01*
X136058970Y-86138295D02*
X136058970Y-85338295D01*
X140497160Y-114954295D02*
X140497160Y-114154295D01*
X140497160Y-114154295D02*
X140801922Y-114154295D01*
X140801922Y-114154295D02*
X140878112Y-114192390D01*
X140878112Y-114192390D02*
X140916207Y-114230485D01*
X140916207Y-114230485D02*
X140954303Y-114306676D01*
X140954303Y-114306676D02*
X140954303Y-114420961D01*
X140954303Y-114420961D02*
X140916207Y-114497152D01*
X140916207Y-114497152D02*
X140878112Y-114535247D01*
X140878112Y-114535247D02*
X140801922Y-114573342D01*
X140801922Y-114573342D02*
X140497160Y-114573342D01*
X141220969Y-114154295D02*
X141411445Y-114954295D01*
X141411445Y-114954295D02*
X141563826Y-114382866D01*
X141563826Y-114382866D02*
X141716207Y-114954295D01*
X141716207Y-114954295D02*
X141906684Y-114154295D01*
X142668589Y-114954295D02*
X142401922Y-114573342D01*
X142211446Y-114954295D02*
X142211446Y-114154295D01*
X142211446Y-114154295D02*
X142516208Y-114154295D01*
X142516208Y-114154295D02*
X142592398Y-114192390D01*
X142592398Y-114192390D02*
X142630493Y-114230485D01*
X142630493Y-114230485D02*
X142668589Y-114306676D01*
X142668589Y-114306676D02*
X142668589Y-114420961D01*
X142668589Y-114420961D02*
X142630493Y-114497152D01*
X142630493Y-114497152D02*
X142592398Y-114535247D01*
X142592398Y-114535247D02*
X142516208Y-114573342D01*
X142516208Y-114573342D02*
X142211446Y-114573342D01*
X140954303Y-118944104D02*
X140916207Y-118982200D01*
X140916207Y-118982200D02*
X140801922Y-119020295D01*
X140801922Y-119020295D02*
X140725731Y-119020295D01*
X140725731Y-119020295D02*
X140611445Y-118982200D01*
X140611445Y-118982200D02*
X140535255Y-118906009D01*
X140535255Y-118906009D02*
X140497160Y-118829819D01*
X140497160Y-118829819D02*
X140459064Y-118677438D01*
X140459064Y-118677438D02*
X140459064Y-118563152D01*
X140459064Y-118563152D02*
X140497160Y-118410771D01*
X140497160Y-118410771D02*
X140535255Y-118334580D01*
X140535255Y-118334580D02*
X140611445Y-118258390D01*
X140611445Y-118258390D02*
X140725731Y-118220295D01*
X140725731Y-118220295D02*
X140801922Y-118220295D01*
X140801922Y-118220295D02*
X140916207Y-118258390D01*
X140916207Y-118258390D02*
X140954303Y-118296485D01*
X141716207Y-119020295D02*
X141259064Y-119020295D01*
X141487636Y-119020295D02*
X141487636Y-118220295D01*
X141487636Y-118220295D02*
X141411445Y-118334580D01*
X141411445Y-118334580D02*
X141335255Y-118410771D01*
X141335255Y-118410771D02*
X141259064Y-118448866D01*
X141982874Y-118220295D02*
X142478112Y-118220295D01*
X142478112Y-118220295D02*
X142211446Y-118525057D01*
X142211446Y-118525057D02*
X142325731Y-118525057D01*
X142325731Y-118525057D02*
X142401922Y-118563152D01*
X142401922Y-118563152D02*
X142440017Y-118601247D01*
X142440017Y-118601247D02*
X142478112Y-118677438D01*
X142478112Y-118677438D02*
X142478112Y-118867914D01*
X142478112Y-118867914D02*
X142440017Y-118944104D01*
X142440017Y-118944104D02*
X142401922Y-118982200D01*
X142401922Y-118982200D02*
X142325731Y-119020295D01*
X142325731Y-119020295D02*
X142097160Y-119020295D01*
X142097160Y-119020295D02*
X142020969Y-118982200D01*
X142020969Y-118982200D02*
X141982874Y-118944104D01*
X148084935Y-83714295D02*
X147818268Y-83333342D01*
X147627792Y-83714295D02*
X147627792Y-82914295D01*
X147627792Y-82914295D02*
X147932554Y-82914295D01*
X147932554Y-82914295D02*
X148008744Y-82952390D01*
X148008744Y-82952390D02*
X148046839Y-82990485D01*
X148046839Y-82990485D02*
X148084935Y-83066676D01*
X148084935Y-83066676D02*
X148084935Y-83180961D01*
X148084935Y-83180961D02*
X148046839Y-83257152D01*
X148046839Y-83257152D02*
X148008744Y-83295247D01*
X148008744Y-83295247D02*
X147932554Y-83333342D01*
X147932554Y-83333342D02*
X147627792Y-83333342D01*
X146916744Y-75332390D02*
X146840554Y-75294295D01*
X146840554Y-75294295D02*
X146726268Y-75294295D01*
X146726268Y-75294295D02*
X146611982Y-75332390D01*
X146611982Y-75332390D02*
X146535792Y-75408580D01*
X146535792Y-75408580D02*
X146497697Y-75484771D01*
X146497697Y-75484771D02*
X146459601Y-75637152D01*
X146459601Y-75637152D02*
X146459601Y-75751438D01*
X146459601Y-75751438D02*
X146497697Y-75903819D01*
X146497697Y-75903819D02*
X146535792Y-75980009D01*
X146535792Y-75980009D02*
X146611982Y-76056200D01*
X146611982Y-76056200D02*
X146726268Y-76094295D01*
X146726268Y-76094295D02*
X146802459Y-76094295D01*
X146802459Y-76094295D02*
X146916744Y-76056200D01*
X146916744Y-76056200D02*
X146954840Y-76018104D01*
X146954840Y-76018104D02*
X146954840Y-75751438D01*
X146954840Y-75751438D02*
X146802459Y-75751438D01*
X147297697Y-76094295D02*
X147297697Y-75294295D01*
X147297697Y-75294295D02*
X147754840Y-76094295D01*
X147754840Y-76094295D02*
X147754840Y-75294295D01*
X148135792Y-76094295D02*
X148135792Y-75294295D01*
X148135792Y-75294295D02*
X148326268Y-75294295D01*
X148326268Y-75294295D02*
X148440554Y-75332390D01*
X148440554Y-75332390D02*
X148516744Y-75408580D01*
X148516744Y-75408580D02*
X148554839Y-75484771D01*
X148554839Y-75484771D02*
X148592935Y-75637152D01*
X148592935Y-75637152D02*
X148592935Y-75751438D01*
X148592935Y-75751438D02*
X148554839Y-75903819D01*
X148554839Y-75903819D02*
X148516744Y-75980009D01*
X148516744Y-75980009D02*
X148440554Y-76056200D01*
X148440554Y-76056200D02*
X148326268Y-76094295D01*
X148326268Y-76094295D02*
X148135792Y-76094295D01*
X146916744Y-77872390D02*
X146840554Y-77834295D01*
X146840554Y-77834295D02*
X146726268Y-77834295D01*
X146726268Y-77834295D02*
X146611982Y-77872390D01*
X146611982Y-77872390D02*
X146535792Y-77948580D01*
X146535792Y-77948580D02*
X146497697Y-78024771D01*
X146497697Y-78024771D02*
X146459601Y-78177152D01*
X146459601Y-78177152D02*
X146459601Y-78291438D01*
X146459601Y-78291438D02*
X146497697Y-78443819D01*
X146497697Y-78443819D02*
X146535792Y-78520009D01*
X146535792Y-78520009D02*
X146611982Y-78596200D01*
X146611982Y-78596200D02*
X146726268Y-78634295D01*
X146726268Y-78634295D02*
X146802459Y-78634295D01*
X146802459Y-78634295D02*
X146916744Y-78596200D01*
X146916744Y-78596200D02*
X146954840Y-78558104D01*
X146954840Y-78558104D02*
X146954840Y-78291438D01*
X146954840Y-78291438D02*
X146802459Y-78291438D01*
X147297697Y-78634295D02*
X147297697Y-77834295D01*
X147297697Y-77834295D02*
X147754840Y-78634295D01*
X147754840Y-78634295D02*
X147754840Y-77834295D01*
X148135792Y-78634295D02*
X148135792Y-77834295D01*
X148135792Y-77834295D02*
X148326268Y-77834295D01*
X148326268Y-77834295D02*
X148440554Y-77872390D01*
X148440554Y-77872390D02*
X148516744Y-77948580D01*
X148516744Y-77948580D02*
X148554839Y-78024771D01*
X148554839Y-78024771D02*
X148592935Y-78177152D01*
X148592935Y-78177152D02*
X148592935Y-78291438D01*
X148592935Y-78291438D02*
X148554839Y-78443819D01*
X148554839Y-78443819D02*
X148516744Y-78520009D01*
X148516744Y-78520009D02*
X148440554Y-78596200D01*
X148440554Y-78596200D02*
X148326268Y-78634295D01*
X148326268Y-78634295D02*
X148135792Y-78634295D01*
X146269125Y-80374295D02*
X146764363Y-80374295D01*
X146764363Y-80374295D02*
X146497697Y-80679057D01*
X146497697Y-80679057D02*
X146611982Y-80679057D01*
X146611982Y-80679057D02*
X146688173Y-80717152D01*
X146688173Y-80717152D02*
X146726268Y-80755247D01*
X146726268Y-80755247D02*
X146764363Y-80831438D01*
X146764363Y-80831438D02*
X146764363Y-81021914D01*
X146764363Y-81021914D02*
X146726268Y-81098104D01*
X146726268Y-81098104D02*
X146688173Y-81136200D01*
X146688173Y-81136200D02*
X146611982Y-81174295D01*
X146611982Y-81174295D02*
X146383411Y-81174295D01*
X146383411Y-81174295D02*
X146307220Y-81136200D01*
X146307220Y-81136200D02*
X146269125Y-81098104D01*
X147107221Y-81098104D02*
X147145316Y-81136200D01*
X147145316Y-81136200D02*
X147107221Y-81174295D01*
X147107221Y-81174295D02*
X147069125Y-81136200D01*
X147069125Y-81136200D02*
X147107221Y-81098104D01*
X147107221Y-81098104D02*
X147107221Y-81174295D01*
X147411982Y-80374295D02*
X147907220Y-80374295D01*
X147907220Y-80374295D02*
X147640554Y-80679057D01*
X147640554Y-80679057D02*
X147754839Y-80679057D01*
X147754839Y-80679057D02*
X147831030Y-80717152D01*
X147831030Y-80717152D02*
X147869125Y-80755247D01*
X147869125Y-80755247D02*
X147907220Y-80831438D01*
X147907220Y-80831438D02*
X147907220Y-81021914D01*
X147907220Y-81021914D02*
X147869125Y-81098104D01*
X147869125Y-81098104D02*
X147831030Y-81136200D01*
X147831030Y-81136200D02*
X147754839Y-81174295D01*
X147754839Y-81174295D02*
X147526268Y-81174295D01*
X147526268Y-81174295D02*
X147450077Y-81136200D01*
X147450077Y-81136200D02*
X147411982Y-81098104D01*
X148135792Y-80374295D02*
X148402459Y-81174295D01*
X148402459Y-81174295D02*
X148669125Y-80374295D01*
X146878648Y-85835247D02*
X146992934Y-85873342D01*
X146992934Y-85873342D02*
X147031029Y-85911438D01*
X147031029Y-85911438D02*
X147069125Y-85987628D01*
X147069125Y-85987628D02*
X147069125Y-86101914D01*
X147069125Y-86101914D02*
X147031029Y-86178104D01*
X147031029Y-86178104D02*
X146992934Y-86216200D01*
X146992934Y-86216200D02*
X146916744Y-86254295D01*
X146916744Y-86254295D02*
X146611982Y-86254295D01*
X146611982Y-86254295D02*
X146611982Y-85454295D01*
X146611982Y-85454295D02*
X146878648Y-85454295D01*
X146878648Y-85454295D02*
X146954839Y-85492390D01*
X146954839Y-85492390D02*
X146992934Y-85530485D01*
X146992934Y-85530485D02*
X147031029Y-85606676D01*
X147031029Y-85606676D02*
X147031029Y-85682866D01*
X147031029Y-85682866D02*
X146992934Y-85759057D01*
X146992934Y-85759057D02*
X146954839Y-85797152D01*
X146954839Y-85797152D02*
X146878648Y-85835247D01*
X146878648Y-85835247D02*
X146611982Y-85835247D01*
X147831029Y-86254295D02*
X147373886Y-86254295D01*
X147602458Y-86254295D02*
X147602458Y-85454295D01*
X147602458Y-85454295D02*
X147526267Y-85568580D01*
X147526267Y-85568580D02*
X147450077Y-85644771D01*
X147450077Y-85644771D02*
X147373886Y-85682866D01*
X148592934Y-86254295D02*
X148135791Y-86254295D01*
X148364363Y-86254295D02*
X148364363Y-85454295D01*
X148364363Y-85454295D02*
X148288172Y-85568580D01*
X148288172Y-85568580D02*
X148211982Y-85644771D01*
X148211982Y-85644771D02*
X148135791Y-85682866D01*
X146878648Y-88343247D02*
X146992934Y-88381342D01*
X146992934Y-88381342D02*
X147031029Y-88419438D01*
X147031029Y-88419438D02*
X147069125Y-88495628D01*
X147069125Y-88495628D02*
X147069125Y-88609914D01*
X147069125Y-88609914D02*
X147031029Y-88686104D01*
X147031029Y-88686104D02*
X146992934Y-88724200D01*
X146992934Y-88724200D02*
X146916744Y-88762295D01*
X146916744Y-88762295D02*
X146611982Y-88762295D01*
X146611982Y-88762295D02*
X146611982Y-87962295D01*
X146611982Y-87962295D02*
X146878648Y-87962295D01*
X146878648Y-87962295D02*
X146954839Y-88000390D01*
X146954839Y-88000390D02*
X146992934Y-88038485D01*
X146992934Y-88038485D02*
X147031029Y-88114676D01*
X147031029Y-88114676D02*
X147031029Y-88190866D01*
X147031029Y-88190866D02*
X146992934Y-88267057D01*
X146992934Y-88267057D02*
X146954839Y-88305152D01*
X146954839Y-88305152D02*
X146878648Y-88343247D01*
X146878648Y-88343247D02*
X146611982Y-88343247D01*
X147831029Y-88762295D02*
X147373886Y-88762295D01*
X147602458Y-88762295D02*
X147602458Y-87962295D01*
X147602458Y-87962295D02*
X147526267Y-88076580D01*
X147526267Y-88076580D02*
X147450077Y-88152771D01*
X147450077Y-88152771D02*
X147373886Y-88190866D01*
X148326268Y-87962295D02*
X148402458Y-87962295D01*
X148402458Y-87962295D02*
X148478649Y-88000390D01*
X148478649Y-88000390D02*
X148516744Y-88038485D01*
X148516744Y-88038485D02*
X148554839Y-88114676D01*
X148554839Y-88114676D02*
X148592934Y-88267057D01*
X148592934Y-88267057D02*
X148592934Y-88457533D01*
X148592934Y-88457533D02*
X148554839Y-88609914D01*
X148554839Y-88609914D02*
X148516744Y-88686104D01*
X148516744Y-88686104D02*
X148478649Y-88724200D01*
X148478649Y-88724200D02*
X148402458Y-88762295D01*
X148402458Y-88762295D02*
X148326268Y-88762295D01*
X148326268Y-88762295D02*
X148250077Y-88724200D01*
X148250077Y-88724200D02*
X148211982Y-88686104D01*
X148211982Y-88686104D02*
X148173887Y-88609914D01*
X148173887Y-88609914D02*
X148135791Y-88457533D01*
X148135791Y-88457533D02*
X148135791Y-88267057D01*
X148135791Y-88267057D02*
X148173887Y-88114676D01*
X148173887Y-88114676D02*
X148211982Y-88038485D01*
X148211982Y-88038485D02*
X148250077Y-88000390D01*
X148250077Y-88000390D02*
X148326268Y-87962295D01*
X147640553Y-90883247D02*
X147754839Y-90921342D01*
X147754839Y-90921342D02*
X147792934Y-90959438D01*
X147792934Y-90959438D02*
X147831030Y-91035628D01*
X147831030Y-91035628D02*
X147831030Y-91149914D01*
X147831030Y-91149914D02*
X147792934Y-91226104D01*
X147792934Y-91226104D02*
X147754839Y-91264200D01*
X147754839Y-91264200D02*
X147678649Y-91302295D01*
X147678649Y-91302295D02*
X147373887Y-91302295D01*
X147373887Y-91302295D02*
X147373887Y-90502295D01*
X147373887Y-90502295D02*
X147640553Y-90502295D01*
X147640553Y-90502295D02*
X147716744Y-90540390D01*
X147716744Y-90540390D02*
X147754839Y-90578485D01*
X147754839Y-90578485D02*
X147792934Y-90654676D01*
X147792934Y-90654676D02*
X147792934Y-90730866D01*
X147792934Y-90730866D02*
X147754839Y-90807057D01*
X147754839Y-90807057D02*
X147716744Y-90845152D01*
X147716744Y-90845152D02*
X147640553Y-90883247D01*
X147640553Y-90883247D02*
X147373887Y-90883247D01*
X148592934Y-91302295D02*
X148135791Y-91302295D01*
X148364363Y-91302295D02*
X148364363Y-90502295D01*
X148364363Y-90502295D02*
X148288172Y-90616580D01*
X148288172Y-90616580D02*
X148211982Y-90692771D01*
X148211982Y-90692771D02*
X148135791Y-90730866D01*
X147640553Y-93423247D02*
X147754839Y-93461342D01*
X147754839Y-93461342D02*
X147792934Y-93499438D01*
X147792934Y-93499438D02*
X147831030Y-93575628D01*
X147831030Y-93575628D02*
X147831030Y-93689914D01*
X147831030Y-93689914D02*
X147792934Y-93766104D01*
X147792934Y-93766104D02*
X147754839Y-93804200D01*
X147754839Y-93804200D02*
X147678649Y-93842295D01*
X147678649Y-93842295D02*
X147373887Y-93842295D01*
X147373887Y-93842295D02*
X147373887Y-93042295D01*
X147373887Y-93042295D02*
X147640553Y-93042295D01*
X147640553Y-93042295D02*
X147716744Y-93080390D01*
X147716744Y-93080390D02*
X147754839Y-93118485D01*
X147754839Y-93118485D02*
X147792934Y-93194676D01*
X147792934Y-93194676D02*
X147792934Y-93270866D01*
X147792934Y-93270866D02*
X147754839Y-93347057D01*
X147754839Y-93347057D02*
X147716744Y-93385152D01*
X147716744Y-93385152D02*
X147640553Y-93423247D01*
X147640553Y-93423247D02*
X147373887Y-93423247D01*
X148326268Y-93042295D02*
X148402458Y-93042295D01*
X148402458Y-93042295D02*
X148478649Y-93080390D01*
X148478649Y-93080390D02*
X148516744Y-93118485D01*
X148516744Y-93118485D02*
X148554839Y-93194676D01*
X148554839Y-93194676D02*
X148592934Y-93347057D01*
X148592934Y-93347057D02*
X148592934Y-93537533D01*
X148592934Y-93537533D02*
X148554839Y-93689914D01*
X148554839Y-93689914D02*
X148516744Y-93766104D01*
X148516744Y-93766104D02*
X148478649Y-93804200D01*
X148478649Y-93804200D02*
X148402458Y-93842295D01*
X148402458Y-93842295D02*
X148326268Y-93842295D01*
X148326268Y-93842295D02*
X148250077Y-93804200D01*
X148250077Y-93804200D02*
X148211982Y-93766104D01*
X148211982Y-93766104D02*
X148173887Y-93689914D01*
X148173887Y-93689914D02*
X148135791Y-93537533D01*
X148135791Y-93537533D02*
X148135791Y-93347057D01*
X148135791Y-93347057D02*
X148173887Y-93194676D01*
X148173887Y-93194676D02*
X148211982Y-93118485D01*
X148211982Y-93118485D02*
X148250077Y-93080390D01*
X148250077Y-93080390D02*
X148326268Y-93042295D01*
X147450077Y-96185723D02*
X147831030Y-96185723D01*
X147373887Y-96414295D02*
X147640554Y-95614295D01*
X147640554Y-95614295D02*
X147907220Y-96414295D01*
X148097696Y-95614295D02*
X148631030Y-95614295D01*
X148631030Y-95614295D02*
X148288172Y-96414295D01*
X147450077Y-98725723D02*
X147831030Y-98725723D01*
X147373887Y-98954295D02*
X147640554Y-98154295D01*
X147640554Y-98154295D02*
X147907220Y-98954295D01*
X148326268Y-98154295D02*
X148402458Y-98154295D01*
X148402458Y-98154295D02*
X148478649Y-98192390D01*
X148478649Y-98192390D02*
X148516744Y-98230485D01*
X148516744Y-98230485D02*
X148554839Y-98306676D01*
X148554839Y-98306676D02*
X148592934Y-98459057D01*
X148592934Y-98459057D02*
X148592934Y-98649533D01*
X148592934Y-98649533D02*
X148554839Y-98801914D01*
X148554839Y-98801914D02*
X148516744Y-98878104D01*
X148516744Y-98878104D02*
X148478649Y-98916200D01*
X148478649Y-98916200D02*
X148402458Y-98954295D01*
X148402458Y-98954295D02*
X148326268Y-98954295D01*
X148326268Y-98954295D02*
X148250077Y-98916200D01*
X148250077Y-98916200D02*
X148211982Y-98878104D01*
X148211982Y-98878104D02*
X148173887Y-98801914D01*
X148173887Y-98801914D02*
X148135791Y-98649533D01*
X148135791Y-98649533D02*
X148135791Y-98459057D01*
X148135791Y-98459057D02*
X148173887Y-98306676D01*
X148173887Y-98306676D02*
X148211982Y-98230485D01*
X148211982Y-98230485D02*
X148250077Y-98192390D01*
X148250077Y-98192390D02*
X148326268Y-98154295D01*
X147450077Y-101265723D02*
X147831030Y-101265723D01*
X147373887Y-101494295D02*
X147640554Y-100694295D01*
X147640554Y-100694295D02*
X147907220Y-101494295D01*
X148554839Y-100694295D02*
X148173887Y-100694295D01*
X148173887Y-100694295D02*
X148135791Y-101075247D01*
X148135791Y-101075247D02*
X148173887Y-101037152D01*
X148173887Y-101037152D02*
X148250077Y-100999057D01*
X148250077Y-100999057D02*
X148440553Y-100999057D01*
X148440553Y-100999057D02*
X148516744Y-101037152D01*
X148516744Y-101037152D02*
X148554839Y-101075247D01*
X148554839Y-101075247D02*
X148592934Y-101151438D01*
X148592934Y-101151438D02*
X148592934Y-101341914D01*
X148592934Y-101341914D02*
X148554839Y-101418104D01*
X148554839Y-101418104D02*
X148516744Y-101456200D01*
X148516744Y-101456200D02*
X148440553Y-101494295D01*
X148440553Y-101494295D02*
X148250077Y-101494295D01*
X148250077Y-101494295D02*
X148173887Y-101456200D01*
X148173887Y-101456200D02*
X148135791Y-101418104D01*
X147450077Y-103773723D02*
X147831030Y-103773723D01*
X147373887Y-104002295D02*
X147640554Y-103202295D01*
X147640554Y-103202295D02*
X147907220Y-104002295D01*
X148516744Y-103468961D02*
X148516744Y-104002295D01*
X148326268Y-103164200D02*
X148135791Y-103735628D01*
X148135791Y-103735628D02*
X148631030Y-103735628D01*
X147450077Y-106313723D02*
X147831030Y-106313723D01*
X147373887Y-106542295D02*
X147640554Y-105742295D01*
X147640554Y-105742295D02*
X147907220Y-106542295D01*
X148097696Y-105742295D02*
X148592934Y-105742295D01*
X148592934Y-105742295D02*
X148326268Y-106047057D01*
X148326268Y-106047057D02*
X148440553Y-106047057D01*
X148440553Y-106047057D02*
X148516744Y-106085152D01*
X148516744Y-106085152D02*
X148554839Y-106123247D01*
X148554839Y-106123247D02*
X148592934Y-106199438D01*
X148592934Y-106199438D02*
X148592934Y-106389914D01*
X148592934Y-106389914D02*
X148554839Y-106466104D01*
X148554839Y-106466104D02*
X148516744Y-106504200D01*
X148516744Y-106504200D02*
X148440553Y-106542295D01*
X148440553Y-106542295D02*
X148211982Y-106542295D01*
X148211982Y-106542295D02*
X148135791Y-106504200D01*
X148135791Y-106504200D02*
X148097696Y-106466104D01*
X147450077Y-108853723D02*
X147831030Y-108853723D01*
X147373887Y-109082295D02*
X147640554Y-108282295D01*
X147640554Y-108282295D02*
X147907220Y-109082295D01*
X148135791Y-108358485D02*
X148173887Y-108320390D01*
X148173887Y-108320390D02*
X148250077Y-108282295D01*
X148250077Y-108282295D02*
X148440553Y-108282295D01*
X148440553Y-108282295D02*
X148516744Y-108320390D01*
X148516744Y-108320390D02*
X148554839Y-108358485D01*
X148554839Y-108358485D02*
X148592934Y-108434676D01*
X148592934Y-108434676D02*
X148592934Y-108510866D01*
X148592934Y-108510866D02*
X148554839Y-108625152D01*
X148554839Y-108625152D02*
X148097696Y-109082295D01*
X148097696Y-109082295D02*
X148592934Y-109082295D01*
X147450077Y-111425723D02*
X147831030Y-111425723D01*
X147373887Y-111654295D02*
X147640554Y-110854295D01*
X147640554Y-110854295D02*
X147907220Y-111654295D01*
X148592934Y-111654295D02*
X148135791Y-111654295D01*
X148364363Y-111654295D02*
X148364363Y-110854295D01*
X148364363Y-110854295D02*
X148288172Y-110968580D01*
X148288172Y-110968580D02*
X148211982Y-111044771D01*
X148211982Y-111044771D02*
X148135791Y-111082866D01*
X147450077Y-113965723D02*
X147831030Y-113965723D01*
X147373887Y-114194295D02*
X147640554Y-113394295D01*
X147640554Y-113394295D02*
X147907220Y-114194295D01*
X148326268Y-113394295D02*
X148402458Y-113394295D01*
X148402458Y-113394295D02*
X148478649Y-113432390D01*
X148478649Y-113432390D02*
X148516744Y-113470485D01*
X148516744Y-113470485D02*
X148554839Y-113546676D01*
X148554839Y-113546676D02*
X148592934Y-113699057D01*
X148592934Y-113699057D02*
X148592934Y-113889533D01*
X148592934Y-113889533D02*
X148554839Y-114041914D01*
X148554839Y-114041914D02*
X148516744Y-114118104D01*
X148516744Y-114118104D02*
X148478649Y-114156200D01*
X148478649Y-114156200D02*
X148402458Y-114194295D01*
X148402458Y-114194295D02*
X148326268Y-114194295D01*
X148326268Y-114194295D02*
X148250077Y-114156200D01*
X148250077Y-114156200D02*
X148211982Y-114118104D01*
X148211982Y-114118104D02*
X148173887Y-114041914D01*
X148173887Y-114041914D02*
X148135791Y-113889533D01*
X148135791Y-113889533D02*
X148135791Y-113699057D01*
X148135791Y-113699057D02*
X148173887Y-113546676D01*
X148173887Y-113546676D02*
X148211982Y-113470485D01*
X148211982Y-113470485D02*
X148250077Y-113432390D01*
X148250077Y-113432390D02*
X148326268Y-113394295D01*
X147069125Y-116658104D02*
X147031029Y-116696200D01*
X147031029Y-116696200D02*
X146916744Y-116734295D01*
X146916744Y-116734295D02*
X146840553Y-116734295D01*
X146840553Y-116734295D02*
X146726267Y-116696200D01*
X146726267Y-116696200D02*
X146650077Y-116620009D01*
X146650077Y-116620009D02*
X146611982Y-116543819D01*
X146611982Y-116543819D02*
X146573886Y-116391438D01*
X146573886Y-116391438D02*
X146573886Y-116277152D01*
X146573886Y-116277152D02*
X146611982Y-116124771D01*
X146611982Y-116124771D02*
X146650077Y-116048580D01*
X146650077Y-116048580D02*
X146726267Y-115972390D01*
X146726267Y-115972390D02*
X146840553Y-115934295D01*
X146840553Y-115934295D02*
X146916744Y-115934295D01*
X146916744Y-115934295D02*
X147031029Y-115972390D01*
X147031029Y-115972390D02*
X147069125Y-116010485D01*
X147831029Y-116734295D02*
X147373886Y-116734295D01*
X147602458Y-116734295D02*
X147602458Y-115934295D01*
X147602458Y-115934295D02*
X147526267Y-116048580D01*
X147526267Y-116048580D02*
X147450077Y-116124771D01*
X147450077Y-116124771D02*
X147373886Y-116162866D01*
X148554839Y-115934295D02*
X148173887Y-115934295D01*
X148173887Y-115934295D02*
X148135791Y-116315247D01*
X148135791Y-116315247D02*
X148173887Y-116277152D01*
X148173887Y-116277152D02*
X148250077Y-116239057D01*
X148250077Y-116239057D02*
X148440553Y-116239057D01*
X148440553Y-116239057D02*
X148516744Y-116277152D01*
X148516744Y-116277152D02*
X148554839Y-116315247D01*
X148554839Y-116315247D02*
X148592934Y-116391438D01*
X148592934Y-116391438D02*
X148592934Y-116581914D01*
X148592934Y-116581914D02*
X148554839Y-116658104D01*
X148554839Y-116658104D02*
X148516744Y-116696200D01*
X148516744Y-116696200D02*
X148440553Y-116734295D01*
X148440553Y-116734295D02*
X148250077Y-116734295D01*
X148250077Y-116734295D02*
X148173887Y-116696200D01*
X148173887Y-116696200D02*
X148135791Y-116658104D01*
X147069125Y-119166104D02*
X147031029Y-119204200D01*
X147031029Y-119204200D02*
X146916744Y-119242295D01*
X146916744Y-119242295D02*
X146840553Y-119242295D01*
X146840553Y-119242295D02*
X146726267Y-119204200D01*
X146726267Y-119204200D02*
X146650077Y-119128009D01*
X146650077Y-119128009D02*
X146611982Y-119051819D01*
X146611982Y-119051819D02*
X146573886Y-118899438D01*
X146573886Y-118899438D02*
X146573886Y-118785152D01*
X146573886Y-118785152D02*
X146611982Y-118632771D01*
X146611982Y-118632771D02*
X146650077Y-118556580D01*
X146650077Y-118556580D02*
X146726267Y-118480390D01*
X146726267Y-118480390D02*
X146840553Y-118442295D01*
X146840553Y-118442295D02*
X146916744Y-118442295D01*
X146916744Y-118442295D02*
X147031029Y-118480390D01*
X147031029Y-118480390D02*
X147069125Y-118518485D01*
X147831029Y-119242295D02*
X147373886Y-119242295D01*
X147602458Y-119242295D02*
X147602458Y-118442295D01*
X147602458Y-118442295D02*
X147526267Y-118556580D01*
X147526267Y-118556580D02*
X147450077Y-118632771D01*
X147450077Y-118632771D02*
X147373886Y-118670866D01*
X148516744Y-118708961D02*
X148516744Y-119242295D01*
X148326268Y-118404200D02*
X148135791Y-118975628D01*
X148135791Y-118975628D02*
X148631030Y-118975628D01*
X147069125Y-121706104D02*
X147031029Y-121744200D01*
X147031029Y-121744200D02*
X146916744Y-121782295D01*
X146916744Y-121782295D02*
X146840553Y-121782295D01*
X146840553Y-121782295D02*
X146726267Y-121744200D01*
X146726267Y-121744200D02*
X146650077Y-121668009D01*
X146650077Y-121668009D02*
X146611982Y-121591819D01*
X146611982Y-121591819D02*
X146573886Y-121439438D01*
X146573886Y-121439438D02*
X146573886Y-121325152D01*
X146573886Y-121325152D02*
X146611982Y-121172771D01*
X146611982Y-121172771D02*
X146650077Y-121096580D01*
X146650077Y-121096580D02*
X146726267Y-121020390D01*
X146726267Y-121020390D02*
X146840553Y-120982295D01*
X146840553Y-120982295D02*
X146916744Y-120982295D01*
X146916744Y-120982295D02*
X147031029Y-121020390D01*
X147031029Y-121020390D02*
X147069125Y-121058485D01*
X147831029Y-121782295D02*
X147373886Y-121782295D01*
X147602458Y-121782295D02*
X147602458Y-120982295D01*
X147602458Y-120982295D02*
X147526267Y-121096580D01*
X147526267Y-121096580D02*
X147450077Y-121172771D01*
X147450077Y-121172771D02*
X147373886Y-121210866D01*
X148097696Y-120982295D02*
X148592934Y-120982295D01*
X148592934Y-120982295D02*
X148326268Y-121287057D01*
X148326268Y-121287057D02*
X148440553Y-121287057D01*
X148440553Y-121287057D02*
X148516744Y-121325152D01*
X148516744Y-121325152D02*
X148554839Y-121363247D01*
X148554839Y-121363247D02*
X148592934Y-121439438D01*
X148592934Y-121439438D02*
X148592934Y-121629914D01*
X148592934Y-121629914D02*
X148554839Y-121706104D01*
X148554839Y-121706104D02*
X148516744Y-121744200D01*
X148516744Y-121744200D02*
X148440553Y-121782295D01*
X148440553Y-121782295D02*
X148211982Y-121782295D01*
X148211982Y-121782295D02*
X148135791Y-121744200D01*
X148135791Y-121744200D02*
X148097696Y-121706104D01*
X147335792Y-123522295D02*
X147602459Y-124322295D01*
X147602459Y-124322295D02*
X147869125Y-123522295D01*
X148402458Y-123903247D02*
X148516744Y-123941342D01*
X148516744Y-123941342D02*
X148554839Y-123979438D01*
X148554839Y-123979438D02*
X148592935Y-124055628D01*
X148592935Y-124055628D02*
X148592935Y-124169914D01*
X148592935Y-124169914D02*
X148554839Y-124246104D01*
X148554839Y-124246104D02*
X148516744Y-124284200D01*
X148516744Y-124284200D02*
X148440554Y-124322295D01*
X148440554Y-124322295D02*
X148135792Y-124322295D01*
X148135792Y-124322295D02*
X148135792Y-123522295D01*
X148135792Y-123522295D02*
X148402458Y-123522295D01*
X148402458Y-123522295D02*
X148478649Y-123560390D01*
X148478649Y-123560390D02*
X148516744Y-123598485D01*
X148516744Y-123598485D02*
X148554839Y-123674676D01*
X148554839Y-123674676D02*
X148554839Y-123750866D01*
X148554839Y-123750866D02*
X148516744Y-123827057D01*
X148516744Y-123827057D02*
X148478649Y-123865152D01*
X148478649Y-123865152D02*
X148402458Y-123903247D01*
X148402458Y-123903247D02*
X148135792Y-123903247D01*
%TO.C,Y1*%
D11*
X136800000Y-109646000D02*
X136800000Y-113366000D01*
X136800000Y-113366000D02*
X142670000Y-113366000D01*
X142670000Y-109646000D02*
X136800000Y-109646000D01*
%TO.C,R5*%
X135853641Y-84020000D02*
X135546359Y-84020000D01*
X135853641Y-84780000D02*
X135546359Y-84780000D01*
%TO.C,U2*%
X132500584Y-100570769D02*
X132818782Y-100252571D01*
X132818782Y-100888967D02*
X132500584Y-100570769D01*
X137287697Y-95783656D02*
X137605895Y-95465458D01*
X137605895Y-95465458D02*
X137924093Y-95783656D01*
X137605895Y-105676080D02*
X137287697Y-105357882D01*
X137924093Y-105357882D02*
X137605895Y-105676080D01*
X142393008Y-100252571D02*
X142711206Y-100570769D01*
X142711206Y-100570769D02*
X142393008Y-100888967D01*
%TO.C,C3*%
X135121693Y-106730810D02*
X134969190Y-106578307D01*
X135630810Y-106221693D02*
X135478307Y-106069190D01*
%TO.C,D1*%
D12*
X142036000Y-117166000D02*
G75*
G02*
X141936000Y-117166000I-50000J0D01*
G01*
X141936000Y-117166000D02*
G75*
G02*
X142036000Y-117166000I50000J0D01*
G01*
%TO.C,R6*%
D11*
X140336000Y-116231641D02*
X140336000Y-115924359D01*
X141096000Y-116231641D02*
X141096000Y-115924359D01*
%TO.C,R7*%
X140336000Y-120293641D02*
X140336000Y-119986359D01*
X141096000Y-120293641D02*
X141096000Y-119986359D01*
%TO.C,C9*%
X134307836Y-92240000D02*
X134092164Y-92240000D01*
X134307836Y-92960000D02*
X134092164Y-92960000D01*
%TO.C,C5*%
X141192164Y-82698000D02*
X141407836Y-82698000D01*
X141192164Y-83418000D02*
X141407836Y-83418000D01*
%TO.C,R4*%
X142122659Y-94339940D02*
X142339940Y-94122659D01*
X142660060Y-94877341D02*
X142877341Y-94660060D01*
%TO.C,C8*%
X141088164Y-108352000D02*
X141303836Y-108352000D01*
X141088164Y-109072000D02*
X141303836Y-109072000D01*
%TO.C,C11*%
X135692164Y-108340000D02*
X135907836Y-108340000D01*
X135692164Y-109060000D02*
X135907836Y-109060000D01*
%TO.C,R2*%
X135653641Y-82678000D02*
X135346359Y-82678000D01*
X135653641Y-83438000D02*
X135346359Y-83438000D01*
%TO.C,C1*%
X139269190Y-94478307D02*
X139421693Y-94630810D01*
X139778307Y-93969190D02*
X139930810Y-94121693D01*
%TO.C,D2*%
D12*
X142036000Y-121207000D02*
G75*
G02*
X141936000Y-121207000I-50000J0D01*
G01*
X141936000Y-121207000D02*
G75*
G02*
X142036000Y-121207000I50000J0D01*
G01*
%TO.C,C4*%
D11*
X131369190Y-97621693D02*
X131521693Y-97469190D01*
X131878307Y-98130810D02*
X132030810Y-97978307D01*
%TO.C,C6*%
X141107836Y-88340000D02*
X140892164Y-88340000D01*
X141107836Y-89060000D02*
X140892164Y-89060000D01*
%TO.C,C2*%
X141621693Y-103808601D02*
X141469190Y-103961104D01*
X142130810Y-104317718D02*
X141978307Y-104470221D01*
%TO.C,C7*%
X139407836Y-108352000D02*
X139192164Y-108352000D01*
X139407836Y-109072000D02*
X139192164Y-109072000D01*
%TO.C,R3*%
X136420000Y-116253641D02*
X136420000Y-115946359D01*
X137180000Y-116253641D02*
X137180000Y-115946359D01*
%TO.C,Y2*%
X135021000Y-110631000D02*
X133671000Y-110631000D01*
X135021000Y-112381000D02*
X133671000Y-112381000D01*
%TO.C,U1*%
X138940000Y-84890000D02*
X139940000Y-84890000D01*
X138940000Y-86710000D02*
X138940000Y-84890000D01*
X138990000Y-86710000D02*
X138940000Y-86710000D01*
X140890000Y-86710000D02*
X140110000Y-86710000D01*
X141060000Y-84890000D02*
X142060000Y-84890000D01*
X142060000Y-84890000D02*
X142060000Y-86710000D01*
X142060000Y-86710000D02*
X142010000Y-86710000D01*
%TO.C,R1*%
X138346359Y-82678000D02*
X138653641Y-82678000D01*
X138346359Y-83438000D02*
X138653641Y-83438000D01*
%TO.C,C10*%
X134007836Y-108340000D02*
X133792164Y-108340000D01*
X134007836Y-109060000D02*
X133792164Y-109060000D01*
%TD*%
M02*
