%TF.GenerationSoftware,KiCad,Pcbnew,9.0.6*%
%TF.CreationDate,2026-05-21T00:54:00+05:30*%
%TF.ProjectId,MATRIX PROJECT,4d415452-4958-4205-9052-4f4a4543542e,1*%
%TF.SameCoordinates,Original*%
%TF.FileFunction,Soldermask,Bot*%
%TF.FilePolarity,Negative*%
%FSLAX46Y46*%
G04 Gerber Fmt 4.6, Leading zero omitted, Abs format (unit mm)*
G04 Created by KiCad (PCBNEW 9.0.6) date 2026-05-21 00:54:00*
%MOMM*%
%LPD*%
G01*
G04 APERTURE LIST*
G04 Aperture macros list*
%AMRoundRect*
0 Rectangle with rounded corners*
0 $1 Rounding radius*
0 $2 $3 $4 $5 $6 $7 $8 $9 X,Y pos of 4 corners*
0 Add a 4 corners polygon primitive as box body*
4,1,4,$2,$3,$4,$5,$6,$7,$8,$9,$2,$3,0*
0 Add four circle primitives for the rounded corners*
1,1,$1+$1,$2,$3*
1,1,$1+$1,$4,$5*
1,1,$1+$1,$6,$7*
1,1,$1+$1,$8,$9*
0 Add four rect primitives between the rounded corners*
20,1,$1+$1,$2,$3,$4,$5,0*
20,1,$1+$1,$4,$5,$6,$7,0*
20,1,$1+$1,$6,$7,$8,$9,0*
20,1,$1+$1,$8,$9,$2,$3,0*%
G04 Aperture macros list end*
%ADD10C,4.500000*%
%ADD11C,0.800000*%
%ADD12O,1.750000X1.300000*%
%ADD13RoundRect,0.270833X-0.604167X0.379167X-0.604167X-0.379167X0.604167X-0.379167X0.604167X0.379167X0*%
%ADD14O,1.800000X2.050000*%
%ADD15RoundRect,0.264706X-0.635294X-0.760294X0.635294X-0.760294X0.635294X0.760294X-0.635294X0.760294X0*%
%ADD16RoundRect,0.264706X0.635294X0.760294X-0.635294X0.760294X-0.635294X-0.760294X0.635294X-0.760294X0*%
%ADD17RoundRect,0.264706X0.760294X-0.635294X0.760294X0.635294X-0.760294X0.635294X-0.760294X-0.635294X0*%
%ADD18O,2.050000X1.800000*%
%ADD19O,1.700000X1.700000*%
%ADD20RoundRect,0.050000X0.800000X-0.800000X0.800000X0.800000X-0.800000X0.800000X-0.800000X-0.800000X0*%
%ADD21RoundRect,0.050000X-0.800000X0.800000X-0.800000X-0.800000X0.800000X-0.800000X0.800000X0.800000X0*%
%ADD22RoundRect,0.050000X0.800000X0.800000X-0.800000X0.800000X-0.800000X-0.800000X0.800000X-0.800000X0*%
%ADD23C,1.600000*%
%ADD24RoundRect,0.050000X1.000000X-2.000000X1.000000X2.000000X-1.000000X2.000000X-1.000000X-2.000000X0*%
%ADD25O,2.100000X3.400000*%
%ADD26O,3.600000X2.100000*%
%ADD27C,1.700000*%
G04 APERTURE END LIST*
D10*
%TO.C,REF\u002A\u002A*%
X178944000Y-92456000D03*
D11*
X180594000Y-92456000D03*
X180110726Y-93622726D03*
X178944000Y-94106000D03*
X177777274Y-93622726D03*
X177294000Y-92456000D03*
X177777274Y-91289274D03*
X178944000Y-90806000D03*
X180110726Y-91289274D03*
%TD*%
D10*
%TO.C,REF\u002A\u002A*%
X178944000Y-123698000D03*
D11*
X180594000Y-123698000D03*
X180110726Y-124864726D03*
X178944000Y-125348000D03*
X177777274Y-124864726D03*
X177294000Y-123698000D03*
X177777274Y-122531274D03*
X178944000Y-122048000D03*
X180110726Y-122531274D03*
%TD*%
D10*
%TO.C,REF\u002A\u002A*%
X110744000Y-138684000D03*
D11*
X112394000Y-138684000D03*
X111910726Y-139850726D03*
X110744000Y-140334000D03*
X109577274Y-139850726D03*
X109094000Y-138684000D03*
X109577274Y-137517274D03*
X110744000Y-137034000D03*
X111910726Y-137517274D03*
%TD*%
D10*
%TO.C,REF\u002A\u002A*%
X111760000Y-73406000D03*
D11*
X113410000Y-73406000D03*
X112926726Y-74572726D03*
X111760000Y-75056000D03*
X110593274Y-74572726D03*
X110110000Y-73406000D03*
X110593274Y-72239274D03*
X111760000Y-71756000D03*
X112926726Y-72239274D03*
%TD*%
D10*
%TO.C,REF\u002A\u002A*%
X225806000Y-71120000D03*
D11*
X227456000Y-71120000D03*
X226972726Y-72286726D03*
X225806000Y-72770000D03*
X224639274Y-72286726D03*
X224156000Y-71120000D03*
X224639274Y-69953274D03*
X225806000Y-69470000D03*
X226972726Y-69953274D03*
%TD*%
%TO.C,REF\u002A\u002A*%
X225830726Y-141327274D03*
X224664000Y-140844000D03*
X223497274Y-141327274D03*
X223014000Y-142494000D03*
X223497274Y-143660726D03*
X224664000Y-144144000D03*
X225830726Y-143660726D03*
X226314000Y-142494000D03*
D10*
X224664000Y-142494000D03*
%TD*%
D12*
%TO.C,J10*%
X147098000Y-107886000D03*
X147098000Y-105886000D03*
X147098000Y-103886000D03*
X149098000Y-107886000D03*
X149098000Y-105886000D03*
D13*
X149098000Y-103886000D03*
%TD*%
D14*
%TO.C,J1*%
X167132000Y-144780000D03*
X164632000Y-144780000D03*
X162132000Y-144780000D03*
X159632000Y-144780000D03*
X157132000Y-144780000D03*
X154632000Y-144780000D03*
X152132000Y-144780000D03*
D15*
X149632000Y-144780000D03*
%TD*%
D14*
%TO.C,J2*%
X204698000Y-144780000D03*
X202198000Y-144780000D03*
X199698000Y-144780000D03*
X197198000Y-144780000D03*
X194698000Y-144780000D03*
X192198000Y-144780000D03*
X189698000Y-144780000D03*
D15*
X187198000Y-144780000D03*
%TD*%
D14*
%TO.C,J3*%
X187732000Y-69596000D03*
X190232000Y-69596000D03*
X192732000Y-69596000D03*
X195232000Y-69596000D03*
X197732000Y-69596000D03*
X200232000Y-69596000D03*
X202732000Y-69596000D03*
D16*
X205232000Y-69596000D03*
%TD*%
%TO.C,J4*%
X167132000Y-69850000D03*
D14*
X164632000Y-69850000D03*
X162132000Y-69850000D03*
X159632000Y-69850000D03*
X157132000Y-69850000D03*
X154632000Y-69850000D03*
X152132000Y-69850000D03*
X149632000Y-69850000D03*
%TD*%
D17*
%TO.C,J5*%
X109220000Y-112522000D03*
D18*
X109220000Y-110022000D03*
X109220000Y-107522000D03*
X109220000Y-105022000D03*
X109220000Y-102522000D03*
X109220000Y-100022000D03*
X109220000Y-97522000D03*
X109220000Y-95022000D03*
%TD*%
D16*
%TO.C,J6*%
X138684000Y-144526000D03*
D14*
X136184000Y-144526000D03*
X133684000Y-144526000D03*
X131184000Y-144526000D03*
X128684000Y-144526000D03*
X126184000Y-144526000D03*
%TD*%
D19*
%TO.C,U1*%
X144810000Y-119380000D03*
X162590000Y-127000000D03*
X147350000Y-119380000D03*
X160050000Y-127000000D03*
X149890000Y-119380000D03*
X157510000Y-127000000D03*
X152430000Y-119380000D03*
X154970000Y-127000000D03*
X154970000Y-119380000D03*
X152430000Y-127000000D03*
X157510000Y-119380000D03*
X149890000Y-127000000D03*
X160050000Y-119380000D03*
X147350000Y-127000000D03*
X162590000Y-119380000D03*
D20*
X144810000Y-127000000D03*
%TD*%
%TO.C,U2*%
X187482000Y-127000000D03*
D19*
X205262000Y-119380000D03*
X190022000Y-127000000D03*
X202722000Y-119380000D03*
X192562000Y-127000000D03*
X200182000Y-119380000D03*
X195102000Y-127000000D03*
X197642000Y-119380000D03*
X197642000Y-127000000D03*
X195102000Y-119380000D03*
X200182000Y-127000000D03*
X192562000Y-119380000D03*
X202722000Y-127000000D03*
X190022000Y-119380000D03*
X205262000Y-127000000D03*
X187482000Y-119380000D03*
%TD*%
D21*
%TO.C,U3*%
X205232000Y-85852000D03*
D19*
X187452000Y-93472000D03*
X202692000Y-85852000D03*
X189992000Y-93472000D03*
X200152000Y-85852000D03*
X192532000Y-93472000D03*
X197612000Y-85852000D03*
X195072000Y-93472000D03*
X195072000Y-85852000D03*
X197612000Y-93472000D03*
X192532000Y-85852000D03*
X200152000Y-93472000D03*
X189992000Y-85852000D03*
X202692000Y-93472000D03*
X187452000Y-85852000D03*
X205232000Y-93472000D03*
%TD*%
%TO.C,U4*%
X162560000Y-93472000D03*
X144780000Y-85852000D03*
X160020000Y-93472000D03*
X147320000Y-85852000D03*
X157480000Y-93472000D03*
X149860000Y-85852000D03*
X154940000Y-93472000D03*
X152400000Y-85852000D03*
X152400000Y-93472000D03*
X154940000Y-85852000D03*
X149860000Y-93472000D03*
X157480000Y-85852000D03*
X147320000Y-93472000D03*
X160020000Y-85852000D03*
X144780000Y-93472000D03*
D21*
X162560000Y-85852000D03*
%TD*%
D22*
%TO.C,U5*%
X131826000Y-116586000D03*
D19*
X124206000Y-98806000D03*
X131826000Y-114046000D03*
X124206000Y-101346000D03*
X131826000Y-111506000D03*
X124206000Y-103886000D03*
X131826000Y-108966000D03*
X124206000Y-106426000D03*
X131826000Y-106426000D03*
X124206000Y-108966000D03*
X131826000Y-103886000D03*
X124206000Y-111506000D03*
X131826000Y-101346000D03*
X124206000Y-114046000D03*
X131826000Y-98806000D03*
X124206000Y-116586000D03*
%TD*%
D23*
%TO.C,Y1*%
X178816000Y-108712000D03*
X178816000Y-103832000D03*
%TD*%
D24*
%TO.C,J7*%
X222504000Y-123952000D03*
D25*
X228504000Y-123952000D03*
D26*
X229504000Y-128452000D03*
X229504000Y-119452000D03*
D27*
X231504000Y-123952000D03*
%TD*%
D21*
%TO.C,SW1*%
X231394000Y-102870000D03*
D19*
X228854000Y-110490000D03*
X228854000Y-102870000D03*
X231394000Y-110490000D03*
%TD*%
M02*
