%TF.GenerationSoftware,KiCad,Pcbnew,9.0.6*%
%TF.CreationDate,2026-05-08T20:49:16+05:30*%
%TF.ProjectId,low voltage indicator,6c6f7720-766f-46c7-9461-676520696e64,vNOV 2025*%
%TF.SameCoordinates,Original*%
%TF.FileFunction,Copper,L2,Bot*%
%TF.FilePolarity,Positive*%
%FSLAX46Y46*%
G04 Gerber Fmt 4.6, Leading zero omitted, Abs format (unit mm)*
G04 Created by KiCad (PCBNEW 9.0.6) date 2026-05-08 20:49:16*
%MOMM*%
%LPD*%
G01*
G04 APERTURE LIST*
G04 Aperture macros list*
%AMRoundRect*
0 Rectangle with rounded corners*
0 $1 Rounding radius*
0 $2 $3 $4 $5 $6 $7 $8 $9 X,Y pos of 4 corners*
0 Add a 4 corners polygon primitive as box body*
4,1,4,$2,$3,$4,$5,$6,$7,$8,$9,$2,$3,0*
0 Add four circle primitives for the rounded corners*
1,1,$1+$1,$2,$3*
1,1,$1+$1,$4,$5*
1,1,$1+$1,$6,$7*
1,1,$1+$1,$8,$9*
0 Add four rect primitives between the rounded corners*
20,1,$1+$1,$2,$3,$4,$5,0*
20,1,$1+$1,$4,$5,$6,$7,0*
20,1,$1+$1,$6,$7,$8,$9,0*
20,1,$1+$1,$8,$9,$2,$3,0*%
G04 Aperture macros list end*
%TA.AperFunction,ComponentPad*%
%ADD10R,1.050000X1.500000*%
%TD*%
%TA.AperFunction,ComponentPad*%
%ADD11O,1.050000X1.500000*%
%TD*%
%TA.AperFunction,ComponentPad*%
%ADD12C,0.700000*%
%TD*%
%TA.AperFunction,ComponentPad*%
%ADD13C,4.400000*%
%TD*%
%TA.AperFunction,ComponentPad*%
%ADD14RoundRect,0.250000X-0.750000X0.750000X-0.750000X-0.750000X0.750000X-0.750000X0.750000X0.750000X0*%
%TD*%
%TA.AperFunction,ComponentPad*%
%ADD15C,2.000000*%
%TD*%
%TA.AperFunction,ComponentPad*%
%ADD16RoundRect,0.250000X-0.675000X-0.675000X0.675000X-0.675000X0.675000X0.675000X-0.675000X0.675000X0*%
%TD*%
%TA.AperFunction,ComponentPad*%
%ADD17C,1.850000*%
%TD*%
%TA.AperFunction,ComponentPad*%
%ADD18R,2.000000X4.600000*%
%TD*%
%TA.AperFunction,ComponentPad*%
%ADD19O,2.000000X4.200000*%
%TD*%
%TA.AperFunction,ComponentPad*%
%ADD20C,1.400000*%
%TD*%
%TA.AperFunction,ComponentPad*%
%ADD21R,2.000000X2.000000*%
%TD*%
%TA.AperFunction,Conductor*%
%ADD22C,0.200000*%
%TD*%
G04 APERTURE END LIST*
D10*
%TO.P,Q1,1,C*%
%TO.N,Net-(BZ1-+)*%
X125390000Y-78870000D03*
D11*
%TO.P,Q1,2,B*%
%TO.N,Net-(Q1-B)*%
X126660000Y-78870000D03*
%TO.P,Q1,3,E*%
%TO.N,GND*%
X127930000Y-78870000D03*
%TD*%
D12*
%TO.P,REF\u002A\u002A,1*%
%TO.N,N/C*%
X154520000Y-57100000D03*
X155003274Y-55933274D03*
X155003274Y-58266726D03*
X156170000Y-55450000D03*
D13*
X156170000Y-57100000D03*
D12*
X156170000Y-58750000D03*
X157336726Y-55933274D03*
X157336726Y-58266726D03*
X157820000Y-57100000D03*
%TD*%
%TO.P,REF\u002A\u002A,1*%
%TO.N,N/C*%
X104250000Y-92120000D03*
X104733274Y-90953274D03*
X104733274Y-93286726D03*
X105900000Y-90470000D03*
D13*
X105900000Y-92120000D03*
D12*
X105900000Y-93770000D03*
X107066726Y-90953274D03*
X107066726Y-93286726D03*
X107550000Y-92120000D03*
%TD*%
D14*
%TO.P,C1,1*%
%TO.N,Net-(D1-A1)*%
X148190000Y-67012323D03*
D15*
%TO.P,C1,2*%
%TO.N,GND*%
X148190000Y-72012323D03*
%TD*%
D16*
%TO.P,PS1,1,-Vin*%
%TO.N,GND*%
X132490000Y-61010000D03*
D17*
%TO.P,PS1,2,NC*%
%TO.N,unconnected-(PS1-NC-Pad2)*%
X132490000Y-76250000D03*
%TO.P,PS1,3,+Vin*%
%TO.N,Net-(D1-A1)*%
X140110000Y-61010000D03*
%TO.P,PS1,4,-Vout*%
%TO.N,unconnected-(PS1--Vout-Pad4)*%
X140110000Y-68630000D03*
%TO.P,PS1,5,+Vout*%
%TO.N,Net-(PS1-+Vout)*%
X140110000Y-73710000D03*
%TO.P,PS1,6,0V*%
%TO.N,GND*%
X140110000Y-76250000D03*
%TD*%
D18*
%TO.P,J1,1*%
%TO.N,VCC*%
X148290000Y-83320000D03*
D19*
%TO.P,J1,2*%
%TO.N,GND*%
X154590000Y-83320000D03*
%TD*%
D20*
%TO.P,R1,1*%
%TO.N,Net-(D1-A1)*%
X131220000Y-85520000D03*
%TO.P,R1,2*%
%TO.N,Net-(Q1-B)*%
X136300000Y-85520000D03*
%TD*%
%TO.P,R3,1*%
%TO.N,Net-(PS1-+Vout)*%
X131220000Y-80660000D03*
%TO.P,R3,2*%
%TO.N,Net-(BZ1-+)*%
X136300000Y-80660000D03*
%TD*%
%TO.P,R2,1*%
%TO.N,Net-(Q1-B)*%
X131220000Y-83050000D03*
%TO.P,R2,2*%
%TO.N,GND*%
X136300000Y-83050000D03*
%TD*%
D21*
%TO.P,BZ1,1,+*%
%TO.N,Net-(BZ1-+)*%
X106210000Y-63700000D03*
D15*
%TO.P,BZ1,2,-*%
%TO.N,GND*%
X121210000Y-63700000D03*
%TD*%
D22*
%TO.N,GND*%
X127930000Y-75160000D02*
X127930000Y-78870000D01*
X123900000Y-61010000D02*
X121210000Y-63700000D01*
X143952323Y-76250000D02*
X140110000Y-76250000D01*
X136300000Y-83050000D02*
X132120000Y-78870000D01*
X140110000Y-76250000D02*
X132490000Y-68630000D01*
X148190000Y-72012323D02*
X143952323Y-76250000D01*
X154590000Y-78412323D02*
X148190000Y-72012323D01*
X132490000Y-61010000D02*
X132490000Y-70600000D01*
X132490000Y-61010000D02*
X123900000Y-61010000D01*
X132490000Y-70600000D02*
X127930000Y-75160000D01*
X132120000Y-78870000D02*
X127930000Y-78870000D01*
X132490000Y-68630000D02*
X132490000Y-61010000D01*
X154590000Y-83320000D02*
X154590000Y-78412323D01*
%TD*%
M02*
