%TF.GenerationSoftware,KiCad,Pcbnew,9.0.6*%
%TF.CreationDate,2026-05-08T20:49:19+05:30*%
%TF.ProjectId,low voltage indicator,6c6f7720-766f-46c7-9461-676520696e64,vNOV 2025*%
%TF.SameCoordinates,Original*%
%TF.FileFunction,Drillmap*%
%TF.FilePolarity,Positive*%
%FSLAX45Y45*%
G04 Gerber Fmt 4.5, Leading zero omitted, Abs format (unit mm)*
G04 Created by KiCad (PCBNEW 9.0.6) date 2026-05-08 20:49:19*
%MOMM*%
%LPD*%
G01*
G04 APERTURE LIST*
%ADD10C,0.050000*%
%ADD11C,0.200000*%
G04 APERTURE END LIST*
D10*
X15617000Y-5410000D02*
G75*
G02*
X15917000Y-5710000I0J-300000D01*
G01*
X15617000Y-9512000D02*
X10590000Y-9512000D01*
X10290000Y-5710000D02*
G75*
G02*
X10590000Y-5410000I300000J0D01*
G01*
X10590000Y-9512000D02*
G75*
G02*
X10290000Y-9212000I0J300000D01*
G01*
X10290000Y-9212000D02*
X10290000Y-5710000D01*
X15917000Y-9212000D02*
G75*
G02*
X15617000Y-9512000I-300000J0D01*
G01*
X10590000Y-5410000D02*
X15617000Y-5410000D01*
X15917000Y-5710000D02*
X15917000Y-9212000D01*
D11*
X10548277Y-9825984D02*
X10548277Y-9625984D01*
X10548277Y-9625984D02*
X10595896Y-9625984D01*
X10595896Y-9625984D02*
X10624467Y-9635508D01*
X10624467Y-9635508D02*
X10643515Y-9654555D01*
X10643515Y-9654555D02*
X10653039Y-9673603D01*
X10653039Y-9673603D02*
X10662563Y-9711698D01*
X10662563Y-9711698D02*
X10662563Y-9740270D01*
X10662563Y-9740270D02*
X10653039Y-9778365D01*
X10653039Y-9778365D02*
X10643515Y-9797412D01*
X10643515Y-9797412D02*
X10624467Y-9816460D01*
X10624467Y-9816460D02*
X10595896Y-9825984D01*
X10595896Y-9825984D02*
X10548277Y-9825984D01*
X10748277Y-9825984D02*
X10748277Y-9692650D01*
X10748277Y-9730746D02*
X10757801Y-9711698D01*
X10757801Y-9711698D02*
X10767324Y-9702174D01*
X10767324Y-9702174D02*
X10786372Y-9692650D01*
X10786372Y-9692650D02*
X10805420Y-9692650D01*
X10872086Y-9825984D02*
X10872086Y-9692650D01*
X10872086Y-9625984D02*
X10862563Y-9635508D01*
X10862563Y-9635508D02*
X10872086Y-9645031D01*
X10872086Y-9645031D02*
X10881610Y-9635508D01*
X10881610Y-9635508D02*
X10872086Y-9625984D01*
X10872086Y-9625984D02*
X10872086Y-9645031D01*
X10995896Y-9825984D02*
X10976848Y-9816460D01*
X10976848Y-9816460D02*
X10967324Y-9797412D01*
X10967324Y-9797412D02*
X10967324Y-9625984D01*
X11100658Y-9825984D02*
X11081610Y-9816460D01*
X11081610Y-9816460D02*
X11072086Y-9797412D01*
X11072086Y-9797412D02*
X11072086Y-9625984D01*
X11329229Y-9825984D02*
X11329229Y-9625984D01*
X11329229Y-9625984D02*
X11395896Y-9768841D01*
X11395896Y-9768841D02*
X11462562Y-9625984D01*
X11462562Y-9625984D02*
X11462562Y-9825984D01*
X11643515Y-9825984D02*
X11643515Y-9721222D01*
X11643515Y-9721222D02*
X11633991Y-9702174D01*
X11633991Y-9702174D02*
X11614943Y-9692650D01*
X11614943Y-9692650D02*
X11576848Y-9692650D01*
X11576848Y-9692650D02*
X11557801Y-9702174D01*
X11643515Y-9816460D02*
X11624467Y-9825984D01*
X11624467Y-9825984D02*
X11576848Y-9825984D01*
X11576848Y-9825984D02*
X11557801Y-9816460D01*
X11557801Y-9816460D02*
X11548277Y-9797412D01*
X11548277Y-9797412D02*
X11548277Y-9778365D01*
X11548277Y-9778365D02*
X11557801Y-9759317D01*
X11557801Y-9759317D02*
X11576848Y-9749793D01*
X11576848Y-9749793D02*
X11624467Y-9749793D01*
X11624467Y-9749793D02*
X11643515Y-9740270D01*
X11738753Y-9692650D02*
X11738753Y-9892650D01*
X11738753Y-9702174D02*
X11757801Y-9692650D01*
X11757801Y-9692650D02*
X11795896Y-9692650D01*
X11795896Y-9692650D02*
X11814943Y-9702174D01*
X11814943Y-9702174D02*
X11824467Y-9711698D01*
X11824467Y-9711698D02*
X11833991Y-9730746D01*
X11833991Y-9730746D02*
X11833991Y-9787889D01*
X11833991Y-9787889D02*
X11824467Y-9806936D01*
X11824467Y-9806936D02*
X11814943Y-9816460D01*
X11814943Y-9816460D02*
X11795896Y-9825984D01*
X11795896Y-9825984D02*
X11757801Y-9825984D01*
X11757801Y-9825984D02*
X11738753Y-9816460D01*
X11919705Y-9806936D02*
X11929229Y-9816460D01*
X11929229Y-9816460D02*
X11919705Y-9825984D01*
X11919705Y-9825984D02*
X11910182Y-9816460D01*
X11910182Y-9816460D02*
X11919705Y-9806936D01*
X11919705Y-9806936D02*
X11919705Y-9825984D01*
X11919705Y-9702174D02*
X11929229Y-9711698D01*
X11929229Y-9711698D02*
X11919705Y-9721222D01*
X11919705Y-9721222D02*
X11910182Y-9711698D01*
X11910182Y-9711698D02*
X11919705Y-9702174D01*
X11919705Y-9702174D02*
X11919705Y-9721222D01*
M02*
