%TF.GenerationSoftware,KiCad,Pcbnew,9.0.6*%
%TF.CreationDate,2026-05-08T20:49:19+05:30*%
%TF.ProjectId,low voltage indicator,6c6f7720-766f-46c7-9461-676520696e64,vNOV 2025*%
%TF.SameCoordinates,Original*%
%TF.FileFunction,Plated,1,2,PTH,Mixed*%
%TF.FilePolarity,Positive*%
%FSLAX46Y46*%
G04 Gerber Fmt 4.6, Leading zero omitted, Abs format (unit mm)*
G04 Created by KiCad (PCBNEW 9.0.6) date 2026-05-08 20:49:19*
%MOMM*%
%LPD*%
G01*
G04 APERTURE LIST*
%TA.AperFunction,ComponentDrill*%
%ADD10C,0.400000*%
%TD*%
%TA.AperFunction,ComponentDrill*%
%ADD11C,0.700000*%
%TD*%
%TA.AperFunction,ComponentDrill*%
%ADD12C,0.750000*%
%TD*%
%TA.AperFunction,ComponentDrill*%
%ADD13C,0.850000*%
%TD*%
%TA.AperFunction,ComponentDrill*%
%ADD14C,1.000000*%
%TD*%
G04 aperture for slot hole*
%TA.AperFunction,ComponentDrill*%
%ADD15C,1.000000*%
%TD*%
%TA.AperFunction,ComponentDrill*%
%ADD16C,2.200000*%
%TD*%
G04 APERTURE END LIST*
D10*
%TO.C,REF\u002A\u002A*%
X104250000Y-92120000D03*
X104733274Y-90953274D03*
X104733274Y-93286726D03*
X105900000Y-90470000D03*
X105900000Y-93770000D03*
X107066726Y-90953274D03*
X107066726Y-93286726D03*
X107550000Y-92120000D03*
X154520000Y-57100000D03*
X155003274Y-55933274D03*
X155003274Y-58266726D03*
X156170000Y-55450000D03*
X156170000Y-58750000D03*
X157336726Y-55933274D03*
X157336726Y-58266726D03*
X157820000Y-57100000D03*
D11*
%TO.C,R3*%
X131220000Y-80660000D03*
%TO.C,R2*%
X131220000Y-83050000D03*
%TO.C,R1*%
X131220000Y-85520000D03*
%TO.C,R3*%
X136300000Y-80660000D03*
%TO.C,R2*%
X136300000Y-83050000D03*
%TO.C,R1*%
X136300000Y-85520000D03*
D12*
%TO.C,Q1*%
X125390000Y-78870000D03*
X126660000Y-78870000D03*
X127930000Y-78870000D03*
D13*
%TO.C,PS1*%
X132490000Y-61010000D03*
X132490000Y-76250000D03*
X140110000Y-61010000D03*
X140110000Y-68630000D03*
X140110000Y-73710000D03*
X140110000Y-76250000D03*
D14*
%TO.C,BZ1*%
X106210000Y-63700000D03*
X121210000Y-63700000D03*
%TO.C,C1*%
X148190000Y-67012323D03*
X148190000Y-72012323D03*
D15*
%TO.C,J1*%
X148290000Y-82020000D02*
X148290000Y-84620000D01*
X154590000Y-82220000D02*
X154590000Y-84420000D01*
D16*
%TO.C,REF\u002A\u002A*%
X105900000Y-92120000D03*
X156170000Y-57100000D03*
M02*
