%TF.GenerationSoftware,KiCad,Pcbnew,9.0.6*%
%TF.CreationDate,2026-05-08T20:49:16+05:30*%
%TF.ProjectId,low voltage indicator,6c6f7720-766f-46c7-9461-676520696e64,vNOV 2025*%
%TF.SameCoordinates,Original*%
%TF.FileFunction,Legend,Bot*%
%TF.FilePolarity,Positive*%
%FSLAX46Y46*%
G04 Gerber Fmt 4.6, Leading zero omitted, Abs format (unit mm)*
G04 Created by KiCad (PCBNEW 9.0.6) date 2026-05-08 20:49:16*
%MOMM*%
%LPD*%
G01*
G04 APERTURE LIST*
%ADD10C,0.300000*%
%ADD11C,0.000000*%
%ADD12C,0.010000*%
G04 APERTURE END LIST*
D10*
X139005489Y-93480828D02*
X139005489Y-91980828D01*
X139005489Y-91980828D02*
X138648346Y-91980828D01*
X138648346Y-91980828D02*
X138434060Y-92052257D01*
X138434060Y-92052257D02*
X138291203Y-92195114D01*
X138291203Y-92195114D02*
X138219774Y-92337971D01*
X138219774Y-92337971D02*
X138148346Y-92623685D01*
X138148346Y-92623685D02*
X138148346Y-92837971D01*
X138148346Y-92837971D02*
X138219774Y-93123685D01*
X138219774Y-93123685D02*
X138291203Y-93266542D01*
X138291203Y-93266542D02*
X138434060Y-93409400D01*
X138434060Y-93409400D02*
X138648346Y-93480828D01*
X138648346Y-93480828D02*
X139005489Y-93480828D01*
X137505489Y-92695114D02*
X137005489Y-92695114D01*
X136791203Y-93480828D02*
X137505489Y-93480828D01*
X137505489Y-93480828D02*
X137505489Y-91980828D01*
X137505489Y-91980828D02*
X136791203Y-91980828D01*
X136219774Y-93409400D02*
X136005489Y-93480828D01*
X136005489Y-93480828D02*
X135648346Y-93480828D01*
X135648346Y-93480828D02*
X135505489Y-93409400D01*
X135505489Y-93409400D02*
X135434060Y-93337971D01*
X135434060Y-93337971D02*
X135362631Y-93195114D01*
X135362631Y-93195114D02*
X135362631Y-93052257D01*
X135362631Y-93052257D02*
X135434060Y-92909400D01*
X135434060Y-92909400D02*
X135505489Y-92837971D01*
X135505489Y-92837971D02*
X135648346Y-92766542D01*
X135648346Y-92766542D02*
X135934060Y-92695114D01*
X135934060Y-92695114D02*
X136076917Y-92623685D01*
X136076917Y-92623685D02*
X136148346Y-92552257D01*
X136148346Y-92552257D02*
X136219774Y-92409400D01*
X136219774Y-92409400D02*
X136219774Y-92266542D01*
X136219774Y-92266542D02*
X136148346Y-92123685D01*
X136148346Y-92123685D02*
X136076917Y-92052257D01*
X136076917Y-92052257D02*
X135934060Y-91980828D01*
X135934060Y-91980828D02*
X135576917Y-91980828D01*
X135576917Y-91980828D02*
X135362631Y-92052257D01*
X134719775Y-93480828D02*
X134719775Y-91980828D01*
X134005489Y-93480828D02*
X134005489Y-91980828D01*
X134005489Y-91980828D02*
X133148346Y-93480828D01*
X133148346Y-93480828D02*
X133148346Y-91980828D01*
X131648345Y-92052257D02*
X131791203Y-91980828D01*
X131791203Y-91980828D02*
X132005488Y-91980828D01*
X132005488Y-91980828D02*
X132219774Y-92052257D01*
X132219774Y-92052257D02*
X132362631Y-92195114D01*
X132362631Y-92195114D02*
X132434060Y-92337971D01*
X132434060Y-92337971D02*
X132505488Y-92623685D01*
X132505488Y-92623685D02*
X132505488Y-92837971D01*
X132505488Y-92837971D02*
X132434060Y-93123685D01*
X132434060Y-93123685D02*
X132362631Y-93266542D01*
X132362631Y-93266542D02*
X132219774Y-93409400D01*
X132219774Y-93409400D02*
X132005488Y-93480828D01*
X132005488Y-93480828D02*
X131862631Y-93480828D01*
X131862631Y-93480828D02*
X131648345Y-93409400D01*
X131648345Y-93409400D02*
X131576917Y-93337971D01*
X131576917Y-93337971D02*
X131576917Y-92837971D01*
X131576917Y-92837971D02*
X131862631Y-92837971D01*
X130934060Y-92695114D02*
X130434060Y-92695114D01*
X130219774Y-93480828D02*
X130934060Y-93480828D01*
X130934060Y-93480828D02*
X130934060Y-91980828D01*
X130934060Y-91980828D02*
X130219774Y-91980828D01*
X129576917Y-93480828D02*
X129576917Y-91980828D01*
X129576917Y-91980828D02*
X129219774Y-91980828D01*
X129219774Y-91980828D02*
X129005488Y-92052257D01*
X129005488Y-92052257D02*
X128862631Y-92195114D01*
X128862631Y-92195114D02*
X128791202Y-92337971D01*
X128791202Y-92337971D02*
X128719774Y-92623685D01*
X128719774Y-92623685D02*
X128719774Y-92837971D01*
X128719774Y-92837971D02*
X128791202Y-93123685D01*
X128791202Y-93123685D02*
X128862631Y-93266542D01*
X128862631Y-93266542D02*
X129005488Y-93409400D01*
X129005488Y-93409400D02*
X129219774Y-93480828D01*
X129219774Y-93480828D02*
X129576917Y-93480828D01*
X126434060Y-92695114D02*
X126219774Y-92766542D01*
X126219774Y-92766542D02*
X126148345Y-92837971D01*
X126148345Y-92837971D02*
X126076917Y-92980828D01*
X126076917Y-92980828D02*
X126076917Y-93195114D01*
X126076917Y-93195114D02*
X126148345Y-93337971D01*
X126148345Y-93337971D02*
X126219774Y-93409400D01*
X126219774Y-93409400D02*
X126362631Y-93480828D01*
X126362631Y-93480828D02*
X126934060Y-93480828D01*
X126934060Y-93480828D02*
X126934060Y-91980828D01*
X126934060Y-91980828D02*
X126434060Y-91980828D01*
X126434060Y-91980828D02*
X126291203Y-92052257D01*
X126291203Y-92052257D02*
X126219774Y-92123685D01*
X126219774Y-92123685D02*
X126148345Y-92266542D01*
X126148345Y-92266542D02*
X126148345Y-92409400D01*
X126148345Y-92409400D02*
X126219774Y-92552257D01*
X126219774Y-92552257D02*
X126291203Y-92623685D01*
X126291203Y-92623685D02*
X126434060Y-92695114D01*
X126434060Y-92695114D02*
X126934060Y-92695114D01*
X125148345Y-92766542D02*
X125148345Y-93480828D01*
X125648345Y-91980828D02*
X125148345Y-92766542D01*
X125148345Y-92766542D02*
X124648345Y-91980828D01*
D11*
%TO.C,G\u002A\u002A\u002A*%
G36*
X112354720Y-91958550D02*
G01*
X112506811Y-91968730D01*
X111907046Y-92568660D01*
X111307281Y-93168590D01*
X111173832Y-93168590D01*
X111166740Y-93168570D01*
X111098804Y-93166046D01*
X111050921Y-93159822D01*
X111029309Y-93150671D01*
X111029232Y-93150499D01*
X111039052Y-93134652D01*
X111070303Y-93097895D01*
X111121246Y-93042056D01*
X111190141Y-92968960D01*
X111275247Y-92880436D01*
X111374825Y-92778310D01*
X111487133Y-92664410D01*
X111610432Y-92540562D01*
X112202628Y-91948371D01*
X112354720Y-91958550D01*
G37*
G36*
X122622533Y-92074227D02*
G01*
X122677146Y-92107187D01*
X122714887Y-92159764D01*
X122728974Y-92227940D01*
X122719141Y-92270182D01*
X122689597Y-92322347D01*
X122648311Y-92366181D01*
X122644578Y-92368724D01*
X122608437Y-92381188D01*
X122560831Y-92386533D01*
X122506616Y-92377466D01*
X122455389Y-92345354D01*
X122420995Y-92296913D01*
X122405203Y-92239381D01*
X122409779Y-92179995D01*
X122436491Y-92125993D01*
X122487105Y-92084612D01*
X122489821Y-92083235D01*
X122557831Y-92064903D01*
X122622533Y-92074227D01*
G37*
G36*
X119853955Y-93459442D02*
G01*
X119916750Y-93497716D01*
X119967378Y-93557200D01*
X119991114Y-93626724D01*
X119987383Y-93700970D01*
X119955614Y-93774619D01*
X119895233Y-93842355D01*
X119858609Y-93867873D01*
X119815908Y-93881456D01*
X119755620Y-93885000D01*
X119725359Y-93884529D01*
X119679967Y-93878383D01*
X119643721Y-93860208D01*
X119601180Y-93823895D01*
X119567602Y-93789387D01*
X119539303Y-93744487D01*
X119526087Y-93691321D01*
X119524213Y-93669816D01*
X119535212Y-93592116D01*
X119571110Y-93526296D01*
X119626421Y-93476238D01*
X119695657Y-93445823D01*
X119773331Y-93438930D01*
X119853955Y-93459442D01*
G37*
G36*
X122667453Y-90813054D02*
G01*
X122671012Y-90846395D01*
X122674094Y-90907775D01*
X122676621Y-90994329D01*
X122678519Y-91103191D01*
X122679714Y-91231497D01*
X122680128Y-91376382D01*
X122680128Y-91945072D01*
X122637227Y-91978818D01*
X122636097Y-91979700D01*
X122598040Y-92002941D01*
X122566154Y-92012564D01*
X122565403Y-92012552D01*
X122533040Y-92002358D01*
X122495081Y-91978818D01*
X122452180Y-91945072D01*
X122452180Y-91488818D01*
X122452180Y-91032564D01*
X122545801Y-90935322D01*
X122559845Y-90920628D01*
X122601422Y-90875746D01*
X122631678Y-90840984D01*
X122644851Y-90822886D01*
X122646093Y-90820112D01*
X122665203Y-90807692D01*
X122667453Y-90813054D01*
G37*
G36*
X122611335Y-92430114D02*
G01*
X122655192Y-92473534D01*
X122658884Y-92479696D01*
X122667963Y-92503201D01*
X122673863Y-92537680D01*
X122676986Y-92588521D01*
X122677729Y-92661111D01*
X122676494Y-92760840D01*
X122671987Y-93008758D01*
X122582436Y-93056106D01*
X122539652Y-93077553D01*
X122496901Y-93096257D01*
X122472532Y-93103458D01*
X122468548Y-93099332D01*
X122461959Y-93069742D01*
X122456948Y-93016689D01*
X122453509Y-92946170D01*
X122451637Y-92864179D01*
X122451328Y-92776712D01*
X122452577Y-92689763D01*
X122455378Y-92609327D01*
X122459727Y-92541399D01*
X122465620Y-92491975D01*
X122473050Y-92467050D01*
X122509207Y-92433049D01*
X122560489Y-92416541D01*
X122611335Y-92430114D01*
G37*
G36*
X114152126Y-89940009D02*
G01*
X114153177Y-89989477D01*
X114154678Y-90080321D01*
X114156221Y-90193903D01*
X114157739Y-90324589D01*
X114159170Y-90466743D01*
X114160450Y-90614731D01*
X114161513Y-90762916D01*
X114161551Y-90769047D01*
X114162140Y-90904597D01*
X114162194Y-91029158D01*
X114161747Y-91139135D01*
X114160835Y-91230931D01*
X114159493Y-91300951D01*
X114157755Y-91345600D01*
X114155658Y-91361282D01*
X114150993Y-91359141D01*
X114125542Y-91341411D01*
X114084204Y-91309624D01*
X114033187Y-91268483D01*
X113920385Y-91175685D01*
X113920385Y-90512961D01*
X113920385Y-89850237D01*
X113970406Y-89832799D01*
X113985905Y-89826395D01*
X114034546Y-89799541D01*
X114083491Y-89765414D01*
X114146554Y-89715467D01*
X114152126Y-89940009D01*
G37*
G36*
X111777501Y-90122050D02*
G01*
X112166221Y-90511024D01*
X112155291Y-90569283D01*
X112154402Y-90573721D01*
X112139344Y-90619816D01*
X112119415Y-90652489D01*
X112104765Y-90665768D01*
X112087862Y-90675421D01*
X112068484Y-90677639D01*
X112044352Y-90670685D01*
X112013187Y-90652824D01*
X111972709Y-90622317D01*
X111920638Y-90577429D01*
X111854696Y-90516424D01*
X111772603Y-90437565D01*
X111672080Y-90339115D01*
X111550847Y-90219338D01*
X111515521Y-90184301D01*
X111417207Y-90086063D01*
X111327711Y-89995581D01*
X111249443Y-89915359D01*
X111184811Y-89847901D01*
X111136222Y-89795712D01*
X111106085Y-89761297D01*
X111096808Y-89747159D01*
X111101078Y-89744470D01*
X111131118Y-89738640D01*
X111182476Y-89734593D01*
X111247146Y-89733077D01*
X111388780Y-89733077D01*
X111777501Y-90122050D01*
G37*
G36*
X113492151Y-89750734D02*
G01*
X113516666Y-89764709D01*
X113553856Y-89788889D01*
X113564511Y-89795794D01*
X113615285Y-89822738D01*
X113660413Y-89839029D01*
X113708718Y-89849638D01*
X113712012Y-90397864D01*
X113712562Y-90484395D01*
X113713499Y-90614121D01*
X113714496Y-90733562D01*
X113715507Y-90838262D01*
X113716489Y-90923765D01*
X113717397Y-90985616D01*
X113718186Y-91019359D01*
X113718696Y-91040032D01*
X113717592Y-91082474D01*
X113713754Y-91105126D01*
X113712712Y-91106643D01*
X113705369Y-91109044D01*
X113690441Y-91102128D01*
X113663663Y-91082902D01*
X113620770Y-91048376D01*
X113557495Y-90995558D01*
X113480769Y-90931053D01*
X113480769Y-90340206D01*
X113480966Y-90205240D01*
X113481526Y-90081021D01*
X113482404Y-89971272D01*
X113483554Y-89879613D01*
X113484932Y-89809662D01*
X113486492Y-89765038D01*
X113488187Y-89749359D01*
X113492151Y-89750734D01*
G37*
G36*
X112260520Y-90665351D02*
G01*
X112297764Y-90690901D01*
X112355109Y-90739956D01*
X112432969Y-90812881D01*
X112531758Y-90910036D01*
X112555211Y-90933510D01*
X112632212Y-91011168D01*
X112689505Y-91070529D01*
X112729956Y-91115119D01*
X112756429Y-91148463D01*
X112771790Y-91174088D01*
X112778906Y-91195519D01*
X112780641Y-91216283D01*
X112778129Y-91248432D01*
X112756755Y-91302671D01*
X112715513Y-91333700D01*
X112702550Y-91338137D01*
X112677746Y-91341498D01*
X112648331Y-91331644D01*
X112641440Y-91327736D01*
X112610453Y-91303689D01*
X112563691Y-91262835D01*
X112505577Y-91209486D01*
X112440531Y-91147950D01*
X112372977Y-91082538D01*
X112307336Y-91017560D01*
X112248030Y-90957327D01*
X112199480Y-90906147D01*
X112166110Y-90868333D01*
X112152340Y-90848193D01*
X112151562Y-90832467D01*
X112159947Y-90789080D01*
X112178172Y-90738289D01*
X112196515Y-90701104D01*
X112220957Y-90670162D01*
X112247584Y-90661154D01*
X112260520Y-90665351D01*
G37*
G36*
X116621008Y-89743042D02*
G01*
X116693213Y-89818395D01*
X116683889Y-91473140D01*
X116674564Y-93127884D01*
X116565739Y-93229536D01*
X116540365Y-93252673D01*
X116494716Y-93291233D01*
X116460393Y-93316133D01*
X116443371Y-93322817D01*
X116442317Y-93316590D01*
X116440731Y-93281672D01*
X116439401Y-93218397D01*
X116438318Y-93129416D01*
X116437476Y-93017376D01*
X116436868Y-92884926D01*
X116436488Y-92734714D01*
X116436329Y-92569390D01*
X116436383Y-92391601D01*
X116436645Y-92203997D01*
X116437107Y-92009226D01*
X116437762Y-91809936D01*
X116438604Y-91608777D01*
X116439626Y-91408397D01*
X116440822Y-91211445D01*
X116442183Y-91020568D01*
X116443704Y-90838417D01*
X116445378Y-90667639D01*
X116447198Y-90510883D01*
X116449157Y-90370798D01*
X116451249Y-90250032D01*
X116458174Y-89895897D01*
X115523140Y-89895897D01*
X114588107Y-89895897D01*
X114595163Y-89785993D01*
X114602220Y-89676090D01*
X115575511Y-89671889D01*
X116548803Y-89667689D01*
X116621008Y-89743042D01*
G37*
G36*
X115718403Y-89269068D02*
G01*
X115901885Y-89269259D01*
X116056667Y-89269677D01*
X116185089Y-89270382D01*
X116289489Y-89271432D01*
X116372206Y-89272888D01*
X116435578Y-89274809D01*
X116481945Y-89277254D01*
X116513644Y-89280282D01*
X116533014Y-89283953D01*
X116542395Y-89288326D01*
X116544123Y-89293461D01*
X116543041Y-89298470D01*
X116536977Y-89334975D01*
X116530571Y-89383013D01*
X116529095Y-89394914D01*
X116522421Y-89439994D01*
X116516542Y-89468493D01*
X116510067Y-89472559D01*
X116489534Y-89476454D01*
X116452966Y-89479723D01*
X116398299Y-89482411D01*
X116323464Y-89484563D01*
X116226398Y-89486224D01*
X116105033Y-89487438D01*
X115957303Y-89488250D01*
X115781142Y-89488704D01*
X115574485Y-89488846D01*
X115436555Y-89488709D01*
X115272759Y-89488175D01*
X115121177Y-89487274D01*
X114984715Y-89486043D01*
X114866281Y-89484522D01*
X114768782Y-89482750D01*
X114695126Y-89480765D01*
X114648219Y-89478605D01*
X114630969Y-89476309D01*
X114627106Y-89460852D01*
X114622333Y-89420446D01*
X114618711Y-89366406D01*
X114614200Y-89269038D01*
X115582068Y-89269038D01*
X115718403Y-89269068D01*
G37*
G36*
X117176801Y-93719659D02*
G01*
X117141535Y-93799132D01*
X117088577Y-93866080D01*
X117022923Y-93910944D01*
X116957598Y-93930216D01*
X116866293Y-93933545D01*
X116776416Y-93914180D01*
X116696928Y-93874322D01*
X116636788Y-93816170D01*
X116612207Y-93763124D01*
X116598149Y-93689810D01*
X116597447Y-93648283D01*
X116763904Y-93648283D01*
X116779374Y-93700101D01*
X116821185Y-93744959D01*
X116831347Y-93751457D01*
X116887297Y-93767328D01*
X116942737Y-93752201D01*
X116993104Y-93707079D01*
X117012825Y-93664516D01*
X117009299Y-93617178D01*
X116984142Y-93575639D01*
X116942913Y-93545640D01*
X116891173Y-93532926D01*
X116834481Y-93543239D01*
X116809816Y-93556663D01*
X116774232Y-93597728D01*
X116763904Y-93648283D01*
X116597447Y-93648283D01*
X116596815Y-93610841D01*
X116608345Y-93538035D01*
X116632877Y-93483208D01*
X116636723Y-93478138D01*
X116702674Y-93416286D01*
X116781077Y-93378886D01*
X116866089Y-93364711D01*
X116951871Y-93372534D01*
X117032580Y-93401130D01*
X117102376Y-93449272D01*
X117155419Y-93515735D01*
X117185865Y-93599291D01*
X117189376Y-93637219D01*
X117185212Y-93664516D01*
X117176801Y-93719659D01*
G37*
G36*
X116992218Y-89966957D02*
G01*
X117035588Y-89969300D01*
X117093812Y-89973240D01*
X117214355Y-89982040D01*
X117203201Y-90952527D01*
X117202676Y-90998913D01*
X117200517Y-91205176D01*
X117198495Y-91422468D01*
X117196654Y-91644561D01*
X117195037Y-91865228D01*
X117193688Y-92078243D01*
X117192649Y-92277378D01*
X117191965Y-92456406D01*
X117191678Y-92609100D01*
X117191575Y-92687878D01*
X117191074Y-92829204D01*
X117190212Y-92958474D01*
X117189035Y-93072272D01*
X117187590Y-93167180D01*
X117185925Y-93239778D01*
X117184087Y-93286649D01*
X117182122Y-93304374D01*
X117174803Y-93304327D01*
X117146328Y-93289466D01*
X117102843Y-93259460D01*
X117050207Y-93218479D01*
X116994280Y-93170693D01*
X116950162Y-93131193D01*
X116959723Y-91550180D01*
X116960339Y-91448951D01*
X116961707Y-91228970D01*
X116963048Y-91019388D01*
X116964347Y-90822420D01*
X116965588Y-90640285D01*
X116966754Y-90475197D01*
X116967829Y-90329373D01*
X116968797Y-90205031D01*
X116969642Y-90104387D01*
X116970348Y-90029656D01*
X116970898Y-89983056D01*
X116971277Y-89966803D01*
X116971855Y-89966637D01*
X116992218Y-89966957D01*
G37*
G36*
X123640158Y-91660304D02*
G01*
X123639547Y-93339551D01*
X123586900Y-93401018D01*
X123571615Y-93417986D01*
X123526569Y-93461513D01*
X123485748Y-93493450D01*
X123481770Y-93495948D01*
X123443223Y-93516515D01*
X123415460Y-93525604D01*
X123413003Y-93523674D01*
X123409839Y-93512802D01*
X123407116Y-93490891D01*
X123404823Y-93456286D01*
X123402952Y-93407330D01*
X123401493Y-93342369D01*
X123400436Y-93259745D01*
X123399772Y-93157805D01*
X123399491Y-93034892D01*
X123399585Y-92889350D01*
X123400042Y-92719523D01*
X123400855Y-92523757D01*
X123402012Y-92300395D01*
X123403506Y-92047782D01*
X123405325Y-91764263D01*
X123405464Y-91743263D01*
X123407044Y-91507347D01*
X123408596Y-91280916D01*
X123410102Y-91066067D01*
X123411548Y-90864898D01*
X123412916Y-90679507D01*
X123414191Y-90511994D01*
X123415356Y-90364455D01*
X123416395Y-90238988D01*
X123417292Y-90137693D01*
X123418031Y-90062667D01*
X123418594Y-90016008D01*
X123418967Y-89999815D01*
X123418990Y-89999797D01*
X123435360Y-89997662D01*
X123475505Y-89993959D01*
X123530865Y-89989478D01*
X123640769Y-89981057D01*
X123640158Y-91660304D01*
G37*
G36*
X123374024Y-93637282D02*
G01*
X123373633Y-93675660D01*
X123366886Y-93700312D01*
X123357198Y-93741277D01*
X123349947Y-93764150D01*
X123313649Y-93823735D01*
X123258583Y-93878773D01*
X123193687Y-93919523D01*
X123140605Y-93938879D01*
X123050942Y-93947694D01*
X122960693Y-93924928D01*
X122903998Y-93895787D01*
X122834067Y-93834543D01*
X122791929Y-93756464D01*
X122777846Y-93661930D01*
X122779485Y-93648146D01*
X122950734Y-93648146D01*
X122958369Y-93685304D01*
X122989929Y-93725126D01*
X123015084Y-93746564D01*
X123069380Y-93768703D01*
X123122500Y-93758529D01*
X123172298Y-93716148D01*
X123195312Y-93677768D01*
X123195808Y-93634812D01*
X123167408Y-93585978D01*
X123124624Y-93552813D01*
X123071689Y-93542507D01*
X123019062Y-93554224D01*
X122976176Y-93585809D01*
X122952464Y-93635106D01*
X122950734Y-93648146D01*
X122779485Y-93648146D01*
X122787004Y-93584927D01*
X122825163Y-93498517D01*
X122892855Y-93425779D01*
X122916130Y-93409412D01*
X122994920Y-93376755D01*
X123081819Y-93367062D01*
X123168287Y-93379474D01*
X123245783Y-93413136D01*
X123305767Y-93467191D01*
X123310749Y-93474097D01*
X123338738Y-93524695D01*
X123361111Y-93583026D01*
X123373436Y-93634812D01*
X123374024Y-93637282D01*
G37*
G36*
X114140606Y-89519065D02*
G01*
X114090520Y-89605502D01*
X114016857Y-89676886D01*
X113921853Y-89728033D01*
X113851337Y-89743549D01*
X113759341Y-89743551D01*
X113666807Y-89726427D01*
X113587157Y-89693557D01*
X113541008Y-89661073D01*
X113474614Y-89586425D01*
X113432252Y-89496942D01*
X113415440Y-89398734D01*
X113418590Y-89367775D01*
X113635697Y-89367775D01*
X113639201Y-89425058D01*
X113672282Y-89475644D01*
X113733885Y-89514629D01*
X113767605Y-89528228D01*
X113799256Y-89535543D01*
X113827003Y-89528520D01*
X113866014Y-89506191D01*
X113906292Y-89473821D01*
X113931430Y-89423415D01*
X113928489Y-89358422D01*
X113927805Y-89355466D01*
X113899962Y-89300464D01*
X113852888Y-89263126D01*
X113795376Y-89246134D01*
X113736221Y-89252171D01*
X113684217Y-89283918D01*
X113662826Y-89308697D01*
X113635697Y-89367775D01*
X113418590Y-89367775D01*
X113425698Y-89297910D01*
X113464546Y-89200581D01*
X113481541Y-89173638D01*
X113550717Y-89098842D01*
X113634264Y-89048222D01*
X113726768Y-89021491D01*
X113822816Y-89018361D01*
X113916992Y-89038546D01*
X114003883Y-89081758D01*
X114078074Y-89147709D01*
X114134151Y-89236113D01*
X114161095Y-89321770D01*
X114164877Y-89422759D01*
X114164712Y-89423415D01*
X114140606Y-89519065D01*
G37*
G36*
X121414534Y-91633859D02*
G01*
X121401129Y-91744580D01*
X121360158Y-91848180D01*
X121291806Y-91939293D01*
X121199592Y-92009269D01*
X121085292Y-92056351D01*
X121004294Y-92069964D01*
X120897453Y-92060575D01*
X120784389Y-92020529D01*
X120749823Y-92002106D01*
X120664016Y-91933367D01*
X120601047Y-91845609D01*
X120563031Y-91743802D01*
X120552087Y-91632918D01*
X120554866Y-91615402D01*
X120812998Y-91615402D01*
X120813407Y-91684177D01*
X120839230Y-91739714D01*
X120894212Y-91785426D01*
X120948042Y-91810615D01*
X121001366Y-91813209D01*
X121062979Y-91790912D01*
X121070303Y-91787116D01*
X121123502Y-91743347D01*
X121151684Y-91688493D01*
X121156590Y-91629047D01*
X121139965Y-91571506D01*
X121103548Y-91522364D01*
X121049084Y-91488116D01*
X120978313Y-91475256D01*
X120947829Y-91477101D01*
X120881104Y-91499365D01*
X120835674Y-91545877D01*
X120812998Y-91615402D01*
X120554866Y-91615402D01*
X120570331Y-91517928D01*
X120613037Y-91421024D01*
X120682397Y-91335627D01*
X120772278Y-91270626D01*
X120878145Y-91229253D01*
X120995462Y-91214743D01*
X121007907Y-91214931D01*
X121116523Y-91233154D01*
X121213371Y-91277985D01*
X121295024Y-91344948D01*
X121358054Y-91429566D01*
X121399033Y-91527361D01*
X121413834Y-91629047D01*
X121414534Y-91633859D01*
G37*
G36*
X122649985Y-89700578D02*
G01*
X122706778Y-89701945D01*
X122746553Y-89704716D01*
X122761539Y-89708413D01*
X122761124Y-89709420D01*
X122747487Y-89728419D01*
X122716852Y-89767854D01*
X122672317Y-89823824D01*
X122616981Y-89892430D01*
X122553942Y-89969769D01*
X122458990Y-90085907D01*
X122342820Y-90228408D01*
X122217896Y-90381996D01*
X122089122Y-90540627D01*
X121961396Y-90698257D01*
X121839622Y-90848843D01*
X121728700Y-90986341D01*
X121633532Y-91104707D01*
X121586639Y-91162713D01*
X121533864Y-91225832D01*
X121494626Y-91268858D01*
X121465376Y-91295284D01*
X121442567Y-91308601D01*
X121422650Y-91312304D01*
X121412870Y-91312049D01*
X121382910Y-91301259D01*
X121368607Y-91267660D01*
X121359394Y-91231553D01*
X121344860Y-91187650D01*
X121344538Y-91186828D01*
X121341924Y-91168117D01*
X121349472Y-91144074D01*
X121370030Y-91109931D01*
X121406446Y-91060918D01*
X121461570Y-90992266D01*
X121469540Y-90982503D01*
X121517703Y-90923271D01*
X121581455Y-90844595D01*
X121656845Y-90751361D01*
X121739924Y-90648460D01*
X121826740Y-90540778D01*
X121913344Y-90433205D01*
X121930822Y-90411480D01*
X122018182Y-90302959D01*
X122105217Y-90194940D01*
X122187913Y-90092398D01*
X122262255Y-90000311D01*
X122324229Y-89923654D01*
X122369819Y-89867404D01*
X122505397Y-89700513D01*
X122633468Y-89700513D01*
X122649985Y-89700578D01*
G37*
G36*
X117567473Y-89389336D02*
G01*
X117565759Y-89442628D01*
X117559777Y-89507606D01*
X117550998Y-89555971D01*
X117521479Y-89621433D01*
X117464586Y-89694813D01*
X117389917Y-89761458D01*
X117305035Y-89814746D01*
X117217500Y-89848055D01*
X117097887Y-89863046D01*
X116982295Y-89849490D01*
X116877547Y-89809358D01*
X116787448Y-89745370D01*
X116715801Y-89660247D01*
X116666413Y-89556705D01*
X116643085Y-89437467D01*
X116640325Y-89376107D01*
X116910439Y-89376107D01*
X116912135Y-89446756D01*
X116938264Y-89512017D01*
X116984972Y-89560612D01*
X117040215Y-89586628D01*
X117109153Y-89594964D01*
X117174284Y-89580739D01*
X117230822Y-89548021D01*
X117273984Y-89500879D01*
X117298987Y-89443383D01*
X117301046Y-89379602D01*
X117275377Y-89313604D01*
X117258944Y-89290723D01*
X117202199Y-89242886D01*
X117135939Y-89219645D01*
X117067130Y-89220177D01*
X117002741Y-89243658D01*
X116949736Y-89289265D01*
X116915082Y-89356175D01*
X116910439Y-89376107D01*
X116640325Y-89376107D01*
X116640276Y-89375011D01*
X116644597Y-89327280D01*
X116659120Y-89280793D01*
X116686823Y-89220791D01*
X116707068Y-89183033D01*
X116781707Y-89083568D01*
X116873180Y-89011024D01*
X116979634Y-88966611D01*
X117099216Y-88951538D01*
X117127639Y-88952243D01*
X117248490Y-88972216D01*
X117354684Y-89017417D01*
X117442950Y-89084788D01*
X117510017Y-89171270D01*
X117552615Y-89273805D01*
X117566221Y-89379602D01*
X117567473Y-89389336D01*
G37*
G36*
X113500432Y-92453835D02*
G01*
X113526580Y-92471074D01*
X113567891Y-92503056D01*
X113617822Y-92544818D01*
X113725000Y-92637456D01*
X113725000Y-93005810D01*
X113725000Y-93374164D01*
X113769776Y-93415531D01*
X113787671Y-93431160D01*
X113831019Y-93466712D01*
X113887728Y-93511723D01*
X113951336Y-93561221D01*
X114015382Y-93610235D01*
X114073405Y-93653793D01*
X114118943Y-93686923D01*
X114145536Y-93704656D01*
X114150758Y-93707887D01*
X114160399Y-93719763D01*
X114162297Y-93741358D01*
X114156272Y-93779932D01*
X114142147Y-93842742D01*
X114138577Y-93857436D01*
X114122945Y-93912870D01*
X114108493Y-93951748D01*
X114097958Y-93966410D01*
X114095637Y-93966080D01*
X114071604Y-93953132D01*
X114038289Y-93927172D01*
X114023401Y-93914906D01*
X113981461Y-93882450D01*
X113922145Y-93837892D01*
X113851069Y-93785432D01*
X113773846Y-93729273D01*
X113724050Y-93693168D01*
X113651463Y-93639944D01*
X113589244Y-93593620D01*
X113542766Y-93558209D01*
X113517404Y-93537724D01*
X113508933Y-93529786D01*
X113500567Y-93519137D01*
X113494047Y-93504036D01*
X113489143Y-93480970D01*
X113485625Y-93446424D01*
X113483263Y-93396885D01*
X113481827Y-93328837D01*
X113481086Y-93238768D01*
X113480810Y-93123163D01*
X113480769Y-92978508D01*
X113480821Y-92930164D01*
X113481561Y-92796628D01*
X113483110Y-92680636D01*
X113485385Y-92585191D01*
X113488299Y-92513298D01*
X113491768Y-92467960D01*
X113495706Y-92452179D01*
X113500432Y-92453835D01*
G37*
G36*
X110720502Y-89428464D02*
G01*
X110718682Y-89494944D01*
X110711254Y-89544310D01*
X110695132Y-89589855D01*
X110667227Y-89644874D01*
X110640605Y-89688500D01*
X110562746Y-89778857D01*
X110468851Y-89847836D01*
X110365747Y-89889886D01*
X110274935Y-89904710D01*
X110156122Y-89899438D01*
X110045763Y-89867830D01*
X109947273Y-89813133D01*
X109864068Y-89738593D01*
X109799563Y-89647458D01*
X109757174Y-89542972D01*
X109742855Y-89445632D01*
X110020938Y-89445632D01*
X110039829Y-89511145D01*
X110078797Y-89566398D01*
X110137664Y-89603906D01*
X110194365Y-89619781D01*
X110276800Y-89620934D01*
X110347593Y-89594807D01*
X110402463Y-89543337D01*
X110437131Y-89468459D01*
X110445429Y-89424654D01*
X110440680Y-89384706D01*
X110419946Y-89334585D01*
X110413932Y-89322859D01*
X110363162Y-89258778D01*
X110297029Y-89222602D01*
X110218125Y-89215195D01*
X110129041Y-89237424D01*
X110086483Y-89262356D01*
X110044089Y-89313754D01*
X110022299Y-89377340D01*
X110020938Y-89445632D01*
X109742855Y-89445632D01*
X109740318Y-89428384D01*
X109752409Y-89306938D01*
X109757582Y-89286122D01*
X109802614Y-89178490D01*
X109871552Y-89087743D01*
X109959776Y-89016238D01*
X110062664Y-88966332D01*
X110175598Y-88940383D01*
X110293957Y-88940749D01*
X110413122Y-88969787D01*
X110508393Y-89017186D01*
X110599605Y-89094866D01*
X110672643Y-89198968D01*
X110696217Y-89245871D01*
X110711367Y-89291265D01*
X110718514Y-89343573D01*
X110720481Y-89415577D01*
X110720496Y-89424654D01*
X110720502Y-89428464D01*
G37*
G36*
X112947312Y-92042012D02*
G01*
X112983269Y-92043799D01*
X113043412Y-92047473D01*
X113086022Y-92051012D01*
X113103596Y-92053849D01*
X113096970Y-92063512D01*
X113069575Y-92094007D01*
X113023203Y-92143012D01*
X112960164Y-92208230D01*
X112882767Y-92287361D01*
X112793323Y-92378106D01*
X112694140Y-92478167D01*
X112587529Y-92585245D01*
X112475799Y-92697041D01*
X112361260Y-92811257D01*
X112246222Y-92925592D01*
X112132994Y-93037749D01*
X112023886Y-93145429D01*
X111921208Y-93246332D01*
X111827270Y-93338161D01*
X111744381Y-93418616D01*
X111674850Y-93485397D01*
X111620988Y-93536208D01*
X111585105Y-93568748D01*
X111569509Y-93580719D01*
X111536877Y-93584185D01*
X111479672Y-93586892D01*
X111406978Y-93588603D01*
X111326801Y-93589302D01*
X111247147Y-93588973D01*
X111176021Y-93587600D01*
X111121430Y-93585168D01*
X111091378Y-93581660D01*
X111077815Y-93577271D01*
X111060647Y-93564136D01*
X111058048Y-93540435D01*
X111070277Y-93500118D01*
X111097594Y-93437133D01*
X111140444Y-93343535D01*
X111306588Y-93354665D01*
X111472732Y-93365794D01*
X112081911Y-92750898D01*
X112128575Y-92703804D01*
X112244492Y-92586889D01*
X112353965Y-92476568D01*
X112454643Y-92375207D01*
X112544174Y-92285169D01*
X112620206Y-92208820D01*
X112680386Y-92148522D01*
X112722364Y-92106641D01*
X112743786Y-92085540D01*
X112751139Y-92078520D01*
X112775322Y-92057467D01*
X112798696Y-92045073D01*
X112829597Y-92039553D01*
X112876357Y-92039128D01*
X112947312Y-92042012D01*
G37*
G36*
X123141459Y-90219910D02*
G01*
X123143421Y-90262421D01*
X123145219Y-90333342D01*
X123146835Y-90430488D01*
X123148250Y-90551674D01*
X123149447Y-90694715D01*
X123150407Y-90857425D01*
X123151113Y-91037619D01*
X123151546Y-91233112D01*
X123151689Y-91441720D01*
X123151524Y-91661255D01*
X123149405Y-93120413D01*
X123114222Y-93145254D01*
X123095644Y-93157936D01*
X123052150Y-93186858D01*
X122994207Y-93224922D01*
X122929221Y-93267244D01*
X122843883Y-93326542D01*
X122765896Y-93392849D01*
X122704024Y-93462352D01*
X122628645Y-93560312D01*
X122422368Y-93555765D01*
X122216090Y-93551218D01*
X122216090Y-93430657D01*
X122216090Y-93310095D01*
X122346346Y-93312556D01*
X122375486Y-93313124D01*
X122421010Y-93313036D01*
X122458061Y-93309155D01*
X122492351Y-93298800D01*
X122529592Y-93279293D01*
X122575496Y-93247953D01*
X122635773Y-93202100D01*
X122716136Y-93139054D01*
X122778297Y-93089788D01*
X122829263Y-93047367D01*
X122862372Y-93015575D01*
X122881947Y-92989568D01*
X122892314Y-92964501D01*
X122897796Y-92935528D01*
X122899439Y-92908965D01*
X122901302Y-92852379D01*
X122903322Y-92768619D01*
X122905457Y-92660396D01*
X122907664Y-92530422D01*
X122909899Y-92381408D01*
X122912119Y-92216066D01*
X122914281Y-92037107D01*
X122916342Y-91847243D01*
X122918258Y-91649184D01*
X122929335Y-90430997D01*
X123027411Y-90322197D01*
X123048210Y-90299344D01*
X123090645Y-90254165D01*
X123123011Y-90221680D01*
X123139565Y-90207747D01*
X123141459Y-90219910D01*
G37*
G36*
X123946012Y-89473672D02*
G01*
X123917177Y-89583456D01*
X123862491Y-89684052D01*
X123783432Y-89770566D01*
X123681474Y-89838102D01*
X123642169Y-89855906D01*
X123594603Y-89870091D01*
X123538403Y-89877002D01*
X123461667Y-89878844D01*
X123455971Y-89878842D01*
X123383378Y-89877121D01*
X123330273Y-89870536D01*
X123284454Y-89856632D01*
X123233718Y-89832951D01*
X123206865Y-89817947D01*
X123118087Y-89746695D01*
X123051338Y-89657078D01*
X123007736Y-89554517D01*
X122988400Y-89444431D01*
X122990219Y-89410698D01*
X123266343Y-89410698D01*
X123269020Y-89437272D01*
X123288548Y-89496115D01*
X123320959Y-89549372D01*
X123359033Y-89583573D01*
X123417427Y-89605083D01*
X123493630Y-89608478D01*
X123563294Y-89586550D01*
X123620446Y-89542728D01*
X123659116Y-89480439D01*
X123673333Y-89403112D01*
X123673319Y-89399882D01*
X123668096Y-89356241D01*
X123649130Y-89318950D01*
X123610121Y-89275264D01*
X123602502Y-89267727D01*
X123561359Y-89232569D01*
X123524591Y-89216124D01*
X123479056Y-89212051D01*
X123464344Y-89212406D01*
X123382832Y-89229703D01*
X123320356Y-89270670D01*
X123280374Y-89332078D01*
X123266343Y-89410698D01*
X122990219Y-89410698D01*
X122994449Y-89332239D01*
X123027003Y-89223361D01*
X123087180Y-89123216D01*
X123091053Y-89118391D01*
X123177559Y-89037568D01*
X123285278Y-88981009D01*
X123413068Y-88949323D01*
X123484398Y-88943905D01*
X123605399Y-88957480D01*
X123713695Y-89000323D01*
X123807025Y-89071375D01*
X123883129Y-89169576D01*
X123920224Y-89246125D01*
X123947520Y-89359597D01*
X123946945Y-89403112D01*
X123946012Y-89473672D01*
G37*
G36*
X123016246Y-89772576D02*
G01*
X123026909Y-89787691D01*
X123051962Y-89818644D01*
X123067414Y-89831131D01*
X123086922Y-89840112D01*
X123118292Y-89861670D01*
X123157546Y-89891848D01*
X123106561Y-89954930D01*
X123105404Y-89956362D01*
X123066626Y-90004118D01*
X123011177Y-90072135D01*
X122942908Y-90155704D01*
X122865671Y-90250120D01*
X122783319Y-90350676D01*
X122699704Y-90452666D01*
X122618679Y-90551384D01*
X122544094Y-90642123D01*
X122448518Y-90758381D01*
X122322256Y-90912260D01*
X122208341Y-91051450D01*
X122109597Y-91172500D01*
X122028846Y-91271959D01*
X122028841Y-91271966D01*
X121944393Y-91375692D01*
X121876716Y-91456814D01*
X121822576Y-91518425D01*
X121778738Y-91563616D01*
X121741969Y-91595478D01*
X121709034Y-91617103D01*
X121676700Y-91631581D01*
X121641732Y-91642005D01*
X121599975Y-91651860D01*
X121558990Y-91659771D01*
X121539678Y-91661059D01*
X121536705Y-91648910D01*
X121536504Y-91612214D01*
X121540033Y-91560341D01*
X121549236Y-91464087D01*
X121826409Y-91131819D01*
X121892109Y-91052882D01*
X121966388Y-90963212D01*
X122033743Y-90881455D01*
X122090676Y-90811874D01*
X122133688Y-90758729D01*
X122159283Y-90726282D01*
X122182634Y-90696521D01*
X122233238Y-90635558D01*
X122282474Y-90579743D01*
X122286316Y-90575503D01*
X122316800Y-90540053D01*
X122363329Y-90484239D01*
X122422426Y-90412369D01*
X122490613Y-90328754D01*
X122564413Y-90237704D01*
X122640349Y-90143530D01*
X122714943Y-90050541D01*
X122784719Y-89963048D01*
X122846199Y-89885361D01*
X122895906Y-89821790D01*
X122930362Y-89776646D01*
X122976703Y-89714382D01*
X123016246Y-89772576D01*
G37*
G36*
X111066112Y-90023525D02*
G01*
X111145421Y-90102369D01*
X111246427Y-90202540D01*
X111361016Y-90315993D01*
X111484256Y-90437851D01*
X111611216Y-90563238D01*
X111736963Y-90687277D01*
X111856565Y-90805091D01*
X111860893Y-90809352D01*
X111977696Y-90925102D01*
X112081973Y-91029915D01*
X112171886Y-91121865D01*
X112245597Y-91199031D01*
X112301266Y-91259486D01*
X112337054Y-91301307D01*
X112351122Y-91322571D01*
X112354382Y-91354593D01*
X112347122Y-91394585D01*
X112346569Y-91395549D01*
X112329857Y-91415269D01*
X112292362Y-91455638D01*
X112236095Y-91514591D01*
X112163069Y-91590068D01*
X112075296Y-91680005D01*
X111974788Y-91782339D01*
X111863556Y-91895009D01*
X111743613Y-92015952D01*
X111616970Y-92143104D01*
X110901055Y-92860394D01*
X110824490Y-92774331D01*
X110747925Y-92688269D01*
X110832136Y-92599118D01*
X110858126Y-92572103D01*
X110905666Y-92523343D01*
X110970963Y-92456742D01*
X111051336Y-92375023D01*
X111144101Y-92280909D01*
X111246578Y-92177125D01*
X111356084Y-92066393D01*
X111469936Y-91951437D01*
X111513501Y-91907444D01*
X111644069Y-91774986D01*
X111753043Y-91663332D01*
X111841772Y-91571025D01*
X111911610Y-91496607D01*
X111963906Y-91438623D01*
X112000012Y-91395615D01*
X112021280Y-91366127D01*
X112029061Y-91348703D01*
X112029524Y-91342327D01*
X112026285Y-91323290D01*
X112013989Y-91299969D01*
X111989659Y-91268810D01*
X111950316Y-91226254D01*
X111892981Y-91168747D01*
X111814675Y-91092730D01*
X111801008Y-91079557D01*
X111728302Y-91009162D01*
X111643625Y-90926746D01*
X111549493Y-90834796D01*
X111448424Y-90735796D01*
X111342936Y-90632233D01*
X111235545Y-90526592D01*
X111128771Y-90421358D01*
X111025130Y-90319017D01*
X110927140Y-90222053D01*
X110837317Y-90132954D01*
X110758181Y-90054203D01*
X110692249Y-89988287D01*
X110642037Y-89937691D01*
X110610063Y-89904900D01*
X110598846Y-89892400D01*
X110598935Y-89891999D01*
X110611122Y-89876187D01*
X110639862Y-89844125D01*
X110679413Y-89802239D01*
X110759980Y-89718653D01*
X111066112Y-90023525D01*
G37*
G36*
X119503377Y-89802275D02*
G01*
X119508065Y-89808121D01*
X119586562Y-89906095D01*
X119669340Y-90009583D01*
X119752877Y-90114170D01*
X119833654Y-90215437D01*
X119908148Y-90308967D01*
X119972837Y-90390341D01*
X120024201Y-90455143D01*
X120058718Y-90498955D01*
X120127197Y-90586361D01*
X120209050Y-90690432D01*
X120284237Y-90785428D01*
X120360400Y-90880997D01*
X120445182Y-90986785D01*
X120483393Y-91034695D01*
X120532041Y-91097827D01*
X120564503Y-91144419D01*
X120583880Y-91179609D01*
X120593276Y-91208539D01*
X120595791Y-91236348D01*
X120595502Y-91249622D01*
X120583463Y-91300438D01*
X120548432Y-91346252D01*
X120537376Y-91356948D01*
X120506344Y-91383101D01*
X120487374Y-91393304D01*
X120484947Y-91393129D01*
X120477571Y-91391334D01*
X120468463Y-91386444D01*
X120456395Y-91376959D01*
X120440137Y-91361381D01*
X120418461Y-91338211D01*
X120390139Y-91305952D01*
X120353942Y-91263104D01*
X120308641Y-91208170D01*
X120253008Y-91139650D01*
X120185814Y-91056047D01*
X120105830Y-90955862D01*
X120011829Y-90837597D01*
X119902582Y-90699752D01*
X119776859Y-90540830D01*
X119633433Y-90359332D01*
X119471074Y-90153760D01*
X119308263Y-89947585D01*
X119125830Y-89942094D01*
X119074024Y-89941073D01*
X118990027Y-89940316D01*
X118883148Y-89939954D01*
X118758485Y-89939985D01*
X118621134Y-89940407D01*
X118476190Y-89941217D01*
X118328750Y-89942414D01*
X117714103Y-89948226D01*
X117714103Y-91630657D01*
X117714103Y-93313089D01*
X117607343Y-93403660D01*
X117587947Y-93419903D01*
X117540330Y-93457899D01*
X117503867Y-93484323D01*
X117485227Y-93494231D01*
X117484626Y-93493307D01*
X117482215Y-93469593D01*
X117479992Y-93414627D01*
X117477964Y-93329468D01*
X117476141Y-93215174D01*
X117474532Y-93072804D01*
X117473145Y-92903418D01*
X117471991Y-92708074D01*
X117471077Y-92487831D01*
X117470414Y-92243749D01*
X117470009Y-91976885D01*
X117469872Y-91688299D01*
X117469872Y-89882367D01*
X117563494Y-89791768D01*
X117657115Y-89701169D01*
X118539434Y-89700841D01*
X119421752Y-89700513D01*
X119503377Y-89802275D01*
G37*
G36*
X110948593Y-93338005D02*
G01*
X110947749Y-93410528D01*
X110943559Y-93463182D01*
X110933702Y-93506931D01*
X110915857Y-93552738D01*
X110887703Y-93611566D01*
X110855971Y-93670051D01*
X110768517Y-93788084D01*
X110661919Y-93879996D01*
X110535148Y-93946561D01*
X110387180Y-93988552D01*
X110341706Y-93992581D01*
X110267074Y-93990488D01*
X110183929Y-93981865D01*
X110104870Y-93968098D01*
X110042491Y-93950575D01*
X109985434Y-93925108D01*
X109872467Y-93850722D01*
X109774278Y-93753352D01*
X109696366Y-93639030D01*
X109644232Y-93513791D01*
X109643706Y-93511966D01*
X109624798Y-93403293D01*
X109624251Y-93298616D01*
X109981390Y-93298616D01*
X109987439Y-93388379D01*
X110021856Y-93476994D01*
X110061142Y-93535802D01*
X110113449Y-93584159D01*
X110183073Y-93619178D01*
X110196907Y-93624263D01*
X110242731Y-93635352D01*
X110292508Y-93635451D01*
X110359741Y-93625006D01*
X110408442Y-93610296D01*
X110482988Y-93564292D01*
X110541842Y-93498068D01*
X110580977Y-93418431D01*
X110596364Y-93332185D01*
X110583976Y-93246136D01*
X110555982Y-93193716D01*
X110508468Y-93136635D01*
X110452396Y-93086977D01*
X110398331Y-93055585D01*
X110313807Y-93038903D01*
X110219228Y-93046620D01*
X110127874Y-93078426D01*
X110117000Y-93084247D01*
X110047814Y-93140371D01*
X110002062Y-93213887D01*
X109981390Y-93298616D01*
X109624251Y-93298616D01*
X109624176Y-93284216D01*
X109640966Y-93167718D01*
X109674295Y-93066784D01*
X109707054Y-93006536D01*
X109787149Y-92901313D01*
X109885978Y-92809746D01*
X109994611Y-92740919D01*
X110012737Y-92732071D01*
X110058239Y-92711658D01*
X110098323Y-92698848D01*
X110142483Y-92691911D01*
X110200212Y-92689115D01*
X110281004Y-92688732D01*
X110313207Y-92688935D01*
X110392993Y-92691359D01*
X110453295Y-92697562D01*
X110503910Y-92708904D01*
X110554634Y-92726747D01*
X110647640Y-92776060D01*
X110745637Y-92853875D01*
X110831127Y-92948645D01*
X110895666Y-93052307D01*
X110917922Y-93100096D01*
X110934311Y-93144683D01*
X110943494Y-93189744D01*
X110947555Y-93245971D01*
X110948573Y-93324056D01*
X110948585Y-93332185D01*
X110948593Y-93338005D01*
G37*
G36*
X110946392Y-89248327D02*
G01*
X111004765Y-89253828D01*
X111052486Y-89261785D01*
X111109888Y-89269928D01*
X111142786Y-89262149D01*
X111144011Y-89261394D01*
X111169708Y-89256887D01*
X111219292Y-89254216D01*
X111285170Y-89253254D01*
X111359750Y-89253875D01*
X111435438Y-89255953D01*
X111504642Y-89259360D01*
X111559769Y-89263970D01*
X111593226Y-89269657D01*
X111603122Y-89277769D01*
X111635033Y-89307588D01*
X111687332Y-89357957D01*
X111758592Y-89427463D01*
X111847388Y-89514694D01*
X111952294Y-89618237D01*
X112071883Y-89736678D01*
X112204729Y-89868606D01*
X112349406Y-90012606D01*
X112504489Y-90167267D01*
X112668550Y-90331175D01*
X112840164Y-90502918D01*
X113017905Y-90681083D01*
X114416987Y-92084631D01*
X114421207Y-91258918D01*
X114421462Y-91211898D01*
X114422967Y-91007306D01*
X114424959Y-90833275D01*
X114427428Y-90690139D01*
X114430365Y-90578230D01*
X114433764Y-90497883D01*
X114437614Y-90449430D01*
X114441909Y-90433205D01*
X114445478Y-90434105D01*
X114471333Y-90448791D01*
X114513176Y-90477738D01*
X114563875Y-90516101D01*
X114669359Y-90598998D01*
X114671837Y-90853954D01*
X114672296Y-90902737D01*
X114673025Y-90988564D01*
X114673544Y-91061287D01*
X114673808Y-91114418D01*
X114673774Y-91141474D01*
X114673654Y-91157763D01*
X114673444Y-91204521D01*
X114673173Y-91277628D01*
X114672853Y-91373671D01*
X114672495Y-91489238D01*
X114672108Y-91620914D01*
X114671705Y-91765286D01*
X114671296Y-91918942D01*
X114670763Y-92050242D01*
X114669716Y-92193705D01*
X114668267Y-92323947D01*
X114666478Y-92437742D01*
X114664411Y-92531868D01*
X114662126Y-92603100D01*
X114659684Y-92648216D01*
X114657148Y-92663991D01*
X114651801Y-92659544D01*
X114625416Y-92634451D01*
X114578243Y-92588384D01*
X114511603Y-92522665D01*
X114426818Y-92438612D01*
X114325210Y-92337544D01*
X114208100Y-92220782D01*
X114076811Y-92089644D01*
X113932663Y-91945451D01*
X113776979Y-91789521D01*
X113611081Y-91623174D01*
X113436289Y-91447730D01*
X113253926Y-91264508D01*
X113065313Y-91074827D01*
X111485690Y-89485518D01*
X111184337Y-89497344D01*
X111083308Y-89500974D01*
X110999431Y-89502939D01*
X110939973Y-89502644D01*
X110900701Y-89499948D01*
X110877381Y-89494713D01*
X110865780Y-89486797D01*
X110856503Y-89469987D01*
X110838721Y-89429468D01*
X110818038Y-89377343D01*
X110798391Y-89323994D01*
X110783715Y-89279804D01*
X110777949Y-89255155D01*
X110777953Y-89255029D01*
X110793146Y-89248633D01*
X110832003Y-89245523D01*
X110885945Y-89245490D01*
X110946392Y-89248327D01*
G37*
G36*
X112941793Y-91298856D02*
G01*
X112971514Y-91310437D01*
X113000844Y-91335773D01*
X113025983Y-91365309D01*
X113038811Y-91400612D01*
X113038539Y-91451666D01*
X113036918Y-91474387D01*
X113037803Y-91507868D01*
X113048617Y-91521594D01*
X113073601Y-91524352D01*
X113103568Y-91527621D01*
X113137694Y-91539328D01*
X113152542Y-91552656D01*
X113187617Y-91586228D01*
X113239949Y-91637126D01*
X113306632Y-91702469D01*
X113384764Y-91779378D01*
X113471439Y-91864975D01*
X113563754Y-91956380D01*
X113658804Y-92050715D01*
X113753686Y-92145099D01*
X113845494Y-92236655D01*
X113931324Y-92322503D01*
X114008274Y-92399764D01*
X114073437Y-92465558D01*
X114123910Y-92517008D01*
X114189039Y-92583923D01*
X114197180Y-92936249D01*
X114205321Y-93288575D01*
X114311154Y-93378444D01*
X114416987Y-93468313D01*
X114421382Y-93123067D01*
X114421919Y-93086208D01*
X114424059Y-92987827D01*
X114426927Y-92903092D01*
X114430299Y-92836731D01*
X114433952Y-92793476D01*
X114437664Y-92778055D01*
X114442614Y-92780168D01*
X114468661Y-92798027D01*
X114510279Y-92830127D01*
X114561150Y-92871677D01*
X114672748Y-92965064D01*
X114680690Y-93458238D01*
X114681380Y-93503749D01*
X114682789Y-93625150D01*
X114683451Y-93735168D01*
X114683381Y-93829568D01*
X114682594Y-93904116D01*
X114681103Y-93954576D01*
X114678923Y-93976714D01*
X114678816Y-93976990D01*
X114668529Y-93989146D01*
X114649102Y-93982802D01*
X114613565Y-93955719D01*
X114584280Y-93931257D01*
X114534674Y-93889706D01*
X114470142Y-93835589D01*
X114395732Y-93773137D01*
X114316491Y-93706585D01*
X114237957Y-93640691D01*
X114164733Y-93579413D01*
X114101782Y-93526893D01*
X114053984Y-93487201D01*
X114026218Y-93464410D01*
X114021767Y-93460811D01*
X113995320Y-93437785D01*
X113975190Y-93414243D01*
X113960492Y-93385607D01*
X113950340Y-93347298D01*
X113943849Y-93294737D01*
X113940132Y-93223348D01*
X113938304Y-93128551D01*
X113937479Y-93005769D01*
X113935913Y-92655705D01*
X113454372Y-92176433D01*
X113436937Y-92159080D01*
X113322008Y-92044613D01*
X113227867Y-91950492D01*
X113152489Y-91874416D01*
X113093852Y-91814081D01*
X113049931Y-91767184D01*
X113018703Y-91731422D01*
X112998144Y-91704493D01*
X112986231Y-91684093D01*
X112980938Y-91667920D01*
X112980244Y-91653671D01*
X112982124Y-91639043D01*
X112991417Y-91580926D01*
X112916784Y-91586861D01*
X112902371Y-91587616D01*
X112845220Y-91583881D01*
X112801866Y-91571237D01*
X112797540Y-91568826D01*
X112750443Y-91524675D01*
X112726897Y-91465686D01*
X112728583Y-91400616D01*
X112757180Y-91338223D01*
X112766018Y-91328660D01*
X112804406Y-91309860D01*
X112868717Y-91299670D01*
X112898967Y-91297555D01*
X112941793Y-91298856D01*
G37*
G36*
X118686293Y-89260903D02*
G01*
X118886053Y-89261046D01*
X119056179Y-89261424D01*
X119199016Y-89262093D01*
X119316904Y-89263107D01*
X119412187Y-89264520D01*
X119487206Y-89266386D01*
X119544303Y-89268762D01*
X119585821Y-89271701D01*
X119614103Y-89275258D01*
X119631489Y-89279487D01*
X119640323Y-89284444D01*
X119653411Y-89299078D01*
X119688188Y-89341112D01*
X119741544Y-89407493D01*
X119812781Y-89497334D01*
X119901202Y-89609746D01*
X120006108Y-89743841D01*
X120126801Y-89898731D01*
X120262583Y-90073528D01*
X120412756Y-90267342D01*
X120417879Y-90273957D01*
X120479395Y-90352820D01*
X120542511Y-90432856D01*
X120600091Y-90505057D01*
X120644998Y-90560419D01*
X120654125Y-90571531D01*
X120703156Y-90632123D01*
X120749086Y-90690158D01*
X120783020Y-90734423D01*
X120801611Y-90758624D01*
X120848018Y-90815293D01*
X120894581Y-90868435D01*
X120957797Y-90937318D01*
X121128278Y-90721896D01*
X121146884Y-90698355D01*
X121222513Y-90602207D01*
X121303655Y-90498464D01*
X121381707Y-90398147D01*
X121448065Y-90312275D01*
X121459201Y-90297825D01*
X121522960Y-90216125D01*
X121588333Y-90133838D01*
X121648235Y-90059817D01*
X121695583Y-90002916D01*
X121710420Y-89985433D01*
X121763050Y-89922297D01*
X121812389Y-89861628D01*
X121849408Y-89814487D01*
X121870441Y-89787196D01*
X121911811Y-89734310D01*
X121965303Y-89666453D01*
X122026310Y-89589468D01*
X122090222Y-89509198D01*
X122275422Y-89277179D01*
X122593648Y-89277179D01*
X122911875Y-89277179D01*
X122900628Y-89313814D01*
X122897576Y-89325205D01*
X122888421Y-89371436D01*
X122880563Y-89425833D01*
X122875814Y-89461766D01*
X122865872Y-89490418D01*
X122843559Y-89503600D01*
X122799571Y-89511111D01*
X122777317Y-89513230D01*
X122716603Y-89515355D01*
X122640810Y-89515013D01*
X122561294Y-89512155D01*
X122395192Y-89503306D01*
X122179363Y-89776942D01*
X122178707Y-89777773D01*
X122104269Y-89872247D01*
X122027113Y-89970338D01*
X121952967Y-90064755D01*
X121887556Y-90148205D01*
X121836607Y-90213397D01*
X121733002Y-90346218D01*
X121603768Y-90511581D01*
X121492245Y-90653811D01*
X121397174Y-90774463D01*
X121317291Y-90875095D01*
X121251335Y-90957262D01*
X121198045Y-91022519D01*
X121156159Y-91072422D01*
X121124416Y-91108528D01*
X121101554Y-91132391D01*
X121086311Y-91145568D01*
X121077425Y-91149615D01*
X121049214Y-91144804D01*
X121008484Y-91132778D01*
X121001512Y-91130498D01*
X120953254Y-91124966D01*
X120896150Y-91139021D01*
X120881194Y-91144361D01*
X120842262Y-91157732D01*
X120821591Y-91163999D01*
X120820554Y-91164066D01*
X120810017Y-91158574D01*
X120791656Y-91141093D01*
X120763532Y-91109268D01*
X120723705Y-91060747D01*
X120670236Y-90993176D01*
X120601186Y-90904202D01*
X120514615Y-90791472D01*
X120480121Y-90746423D01*
X120382928Y-90619784D01*
X120297989Y-90509681D01*
X120219718Y-90408947D01*
X120142533Y-90310414D01*
X120060847Y-90206915D01*
X119969077Y-90091282D01*
X119966689Y-90088278D01*
X119897093Y-90000066D01*
X119817851Y-89898625D01*
X119738535Y-89796259D01*
X119668718Y-89705269D01*
X119646705Y-89676430D01*
X119593851Y-89608241D01*
X119554689Y-89560743D01*
X119524960Y-89529872D01*
X119500404Y-89511564D01*
X119476762Y-89501755D01*
X119449775Y-89496381D01*
X119448424Y-89496199D01*
X119416231Y-89494388D01*
X119355241Y-89493011D01*
X119268914Y-89492077D01*
X119160707Y-89491594D01*
X119034079Y-89491570D01*
X118892487Y-89492014D01*
X118739390Y-89492932D01*
X118578246Y-89494335D01*
X118557765Y-89494536D01*
X118398952Y-89495794D01*
X118249710Y-89496457D01*
X118113324Y-89496545D01*
X117993077Y-89496080D01*
X117892255Y-89495082D01*
X117814142Y-89493571D01*
X117762020Y-89491568D01*
X117739176Y-89489093D01*
X117729832Y-89484415D01*
X117704743Y-89454131D01*
X117685848Y-89396831D01*
X117679698Y-89371233D01*
X117666647Y-89321779D01*
X117656516Y-89289391D01*
X117655502Y-89285019D01*
X117657811Y-89279767D01*
X117666570Y-89275335D01*
X117684150Y-89271655D01*
X117712928Y-89268657D01*
X117755277Y-89266271D01*
X117813571Y-89264429D01*
X117890184Y-89263061D01*
X117987490Y-89262097D01*
X118107865Y-89261468D01*
X118253680Y-89261105D01*
X118427312Y-89260937D01*
X118631134Y-89260897D01*
X118686293Y-89260903D01*
G37*
G36*
X119258233Y-90249543D02*
G01*
X119290861Y-90286594D01*
X119346808Y-90350829D01*
X119413611Y-90428067D01*
X119485551Y-90511689D01*
X119556906Y-90595078D01*
X119607911Y-90654804D01*
X119685563Y-90745535D01*
X119762114Y-90834776D01*
X119830894Y-90914756D01*
X119885239Y-90977706D01*
X119903059Y-90998297D01*
X120034644Y-91151414D01*
X120150985Y-91288761D01*
X120251130Y-91409148D01*
X120334129Y-91511386D01*
X120399027Y-91594288D01*
X120444875Y-91656662D01*
X120470719Y-91697321D01*
X120475608Y-91715076D01*
X120472516Y-91717117D01*
X120442717Y-91722445D01*
X120393072Y-91723138D01*
X120333464Y-91719927D01*
X120273772Y-91713544D01*
X120223878Y-91704721D01*
X120193663Y-91694191D01*
X120189749Y-91691414D01*
X120159399Y-91663844D01*
X120118161Y-91620309D01*
X120073783Y-91568908D01*
X120068392Y-91562370D01*
X120021919Y-91506473D01*
X119978527Y-91454969D01*
X119946979Y-91418269D01*
X119904039Y-91369423D01*
X119893950Y-91678782D01*
X119892065Y-91746019D01*
X119889685Y-91857431D01*
X119887458Y-91990256D01*
X119885468Y-92138193D01*
X119883796Y-92294943D01*
X119882525Y-92454205D01*
X119881738Y-92609680D01*
X119879615Y-93231219D01*
X119837463Y-93281315D01*
X119825674Y-93294522D01*
X119783088Y-93325430D01*
X119740450Y-93325247D01*
X119691979Y-93294497D01*
X119649066Y-93257585D01*
X119650231Y-92753119D01*
X119650314Y-92723441D01*
X119651109Y-92569044D01*
X119652501Y-92393599D01*
X119654386Y-92206573D01*
X119656662Y-92017428D01*
X119659227Y-91835629D01*
X119661977Y-91670641D01*
X119672559Y-91092628D01*
X119586281Y-90990865D01*
X119573840Y-90976451D01*
X119532252Y-90931935D01*
X119498222Y-90900813D01*
X119478143Y-90889102D01*
X119476593Y-90889333D01*
X119470284Y-90897247D01*
X119465360Y-90918761D01*
X119461667Y-90957035D01*
X119459052Y-91015228D01*
X119457359Y-91096501D01*
X119456435Y-91204015D01*
X119456125Y-91340929D01*
X119456029Y-91401120D01*
X119455548Y-91515498D01*
X119454706Y-91645141D01*
X119453550Y-91786632D01*
X119452126Y-91936555D01*
X119450477Y-92091494D01*
X119448652Y-92248033D01*
X119446694Y-92402755D01*
X119444649Y-92552244D01*
X119442564Y-92693084D01*
X119440484Y-92821858D01*
X119438454Y-92935151D01*
X119436521Y-93029546D01*
X119434729Y-93101627D01*
X119433125Y-93147977D01*
X119431754Y-93165181D01*
X119430084Y-93165147D01*
X119408969Y-93154926D01*
X119369219Y-93131945D01*
X119317582Y-93100053D01*
X119207343Y-93030192D01*
X119218246Y-91874998D01*
X119220230Y-91671951D01*
X119222383Y-91471917D01*
X119224504Y-91300457D01*
X119226656Y-91155456D01*
X119228897Y-91034802D01*
X119231290Y-90936378D01*
X119233896Y-90858071D01*
X119236774Y-90797767D01*
X119239987Y-90753352D01*
X119243594Y-90722710D01*
X119247657Y-90703728D01*
X119252237Y-90694292D01*
X119260248Y-90680488D01*
X119258461Y-90661926D01*
X119243989Y-90633693D01*
X119214172Y-90590623D01*
X119166348Y-90527551D01*
X119139027Y-90492549D01*
X119087074Y-90430338D01*
X119049729Y-90395310D01*
X119024678Y-90387454D01*
X119009612Y-90406762D01*
X119002219Y-90453223D01*
X119000188Y-90526827D01*
X119000102Y-90549874D01*
X118999742Y-90609842D01*
X118999126Y-90697346D01*
X118998279Y-90809357D01*
X118997225Y-90942849D01*
X118995988Y-91094795D01*
X118994594Y-91262168D01*
X118993065Y-91441940D01*
X118991428Y-91631085D01*
X118989706Y-91826575D01*
X118979420Y-92983856D01*
X119018396Y-93020787D01*
X119027557Y-93028687D01*
X119064959Y-93057280D01*
X119121041Y-93097654D01*
X119189910Y-93145609D01*
X119265670Y-93196946D01*
X119303156Y-93222303D01*
X119372672Y-93271026D01*
X119430351Y-93313686D01*
X119471031Y-93346400D01*
X119489548Y-93365285D01*
X119503339Y-93411056D01*
X119500331Y-93467774D01*
X119478182Y-93513301D01*
X119472154Y-93519563D01*
X119445831Y-93537360D01*
X119413584Y-93541899D01*
X119371455Y-93531838D01*
X119315485Y-93505831D01*
X119241715Y-93462536D01*
X119146187Y-93400609D01*
X119062417Y-93344847D01*
X118971481Y-93284218D01*
X118902075Y-93237720D01*
X118850996Y-93203124D01*
X118815042Y-93178199D01*
X118791010Y-93160716D01*
X118775698Y-93148446D01*
X118765904Y-93139157D01*
X118758426Y-93130621D01*
X118755204Y-93122491D01*
X118752053Y-93102489D01*
X118749439Y-93069349D01*
X118747354Y-93021306D01*
X118745789Y-92956594D01*
X118744737Y-92873446D01*
X118744187Y-92770098D01*
X118744131Y-92644783D01*
X118744560Y-92495735D01*
X118745466Y-92321190D01*
X118746839Y-92119380D01*
X118748672Y-91888541D01*
X118750954Y-91626907D01*
X118764295Y-90148269D01*
X118962225Y-90143710D01*
X119160155Y-90139150D01*
X119258233Y-90249543D01*
G37*
D12*
%TO.C,REF\u002A\u002A*%
X129735406Y-79194949D02*
X129761127Y-79210647D01*
X129787778Y-79232227D01*
X129787778Y-79879684D01*
X129761127Y-79901264D01*
X129729767Y-79918739D01*
X129693966Y-79919575D01*
X129662528Y-79899082D01*
X129658652Y-79894416D01*
X129653186Y-79884949D01*
X129648979Y-79871267D01*
X129645867Y-79850748D01*
X129643687Y-79820768D01*
X129642276Y-79778704D01*
X129641471Y-79721932D01*
X129641107Y-79647830D01*
X129641022Y-79553773D01*
X129641022Y-79232227D01*
X129667673Y-79210647D01*
X129691386Y-79195877D01*
X129714400Y-79189067D01*
X129735406Y-79194949D01*
G36*
X129735406Y-79194949D02*
G01*
X129761127Y-79210647D01*
X129787778Y-79232227D01*
X129787778Y-79879684D01*
X129761127Y-79901264D01*
X129729767Y-79918739D01*
X129693966Y-79919575D01*
X129662528Y-79899082D01*
X129658652Y-79894416D01*
X129653186Y-79884949D01*
X129648979Y-79871267D01*
X129645867Y-79850748D01*
X129643687Y-79820768D01*
X129642276Y-79778704D01*
X129641471Y-79721932D01*
X129641107Y-79647830D01*
X129641022Y-79553773D01*
X129641022Y-79232227D01*
X129667673Y-79210647D01*
X129691386Y-79195877D01*
X129714400Y-79189067D01*
X129735406Y-79194949D01*
G37*
X136866137Y-79193463D02*
X136900291Y-79216776D01*
X136928000Y-79244485D01*
X136928000Y-79557537D01*
X136927959Y-79641567D01*
X136927701Y-79715789D01*
X136927030Y-79772541D01*
X136925752Y-79814512D01*
X136923673Y-79844389D01*
X136920599Y-79864861D01*
X136916334Y-79878614D01*
X136910684Y-79888337D01*
X136903455Y-79896717D01*
X136871991Y-79918181D01*
X136836826Y-79919947D01*
X136803822Y-79900267D01*
X136798516Y-79894398D01*
X136793066Y-79885314D01*
X136788900Y-79871973D01*
X136785846Y-79851757D01*
X136783732Y-79822049D01*
X136782386Y-79780232D01*
X136781638Y-79723689D01*
X136781314Y-79649802D01*
X136781245Y-79555956D01*
X136781284Y-79480294D01*
X136781539Y-79402385D01*
X136782183Y-79342375D01*
X136783387Y-79297648D01*
X136785324Y-79265585D01*
X136788164Y-79243571D01*
X136792079Y-79228987D01*
X136797242Y-79219218D01*
X136803822Y-79211645D01*
X136833006Y-79192623D01*
X136866137Y-79193463D01*
G36*
X136866137Y-79193463D02*
G01*
X136900291Y-79216776D01*
X136928000Y-79244485D01*
X136928000Y-79557537D01*
X136927959Y-79641567D01*
X136927701Y-79715789D01*
X136927030Y-79772541D01*
X136925752Y-79814512D01*
X136923673Y-79844389D01*
X136920599Y-79864861D01*
X136916334Y-79878614D01*
X136910684Y-79888337D01*
X136903455Y-79896717D01*
X136871991Y-79918181D01*
X136836826Y-79919947D01*
X136803822Y-79900267D01*
X136798516Y-79894398D01*
X136793066Y-79885314D01*
X136788900Y-79871973D01*
X136785846Y-79851757D01*
X136783732Y-79822049D01*
X136782386Y-79780232D01*
X136781638Y-79723689D01*
X136781314Y-79649802D01*
X136781245Y-79555956D01*
X136781284Y-79480294D01*
X136781539Y-79402385D01*
X136782183Y-79342375D01*
X136783387Y-79297648D01*
X136785324Y-79265585D01*
X136788164Y-79243571D01*
X136792079Y-79228987D01*
X136797242Y-79219218D01*
X136803822Y-79211645D01*
X136833006Y-79192623D01*
X136866137Y-79193463D01*
G37*
X136334562Y-73952850D02*
X136417313Y-73980053D01*
X136492406Y-74025484D01*
X136564298Y-74091302D01*
X136602846Y-74135567D01*
X136642256Y-74193961D01*
X136667446Y-74254586D01*
X136680861Y-74323865D01*
X136684948Y-74408222D01*
X136684669Y-74454307D01*
X136682460Y-74495450D01*
X136676894Y-74527582D01*
X136666586Y-74558122D01*
X136650148Y-74594489D01*
X136636200Y-74621728D01*
X136577665Y-74707429D01*
X136505619Y-74776617D01*
X136421947Y-74827741D01*
X136328531Y-74859250D01*
X136295434Y-74866225D01*
X136254960Y-74873094D01*
X136221999Y-74874919D01*
X136187698Y-74871947D01*
X136143200Y-74864426D01*
X136091934Y-74852002D01*
X136001434Y-74814112D01*
X135922345Y-74759836D01*
X135856528Y-74691770D01*
X135805840Y-74612511D01*
X135772140Y-74524654D01*
X135757286Y-74430795D01*
X135763136Y-74333530D01*
X135789399Y-74237220D01*
X135834418Y-74148494D01*
X135895373Y-74073419D01*
X135970184Y-74013641D01*
X136056768Y-73970809D01*
X136153043Y-73946571D01*
X136256928Y-73942576D01*
X136334562Y-73952850D01*
G36*
X136334562Y-73952850D02*
G01*
X136417313Y-73980053D01*
X136492406Y-74025484D01*
X136564298Y-74091302D01*
X136602846Y-74135567D01*
X136642256Y-74193961D01*
X136667446Y-74254586D01*
X136680861Y-74323865D01*
X136684948Y-74408222D01*
X136684669Y-74454307D01*
X136682460Y-74495450D01*
X136676894Y-74527582D01*
X136666586Y-74558122D01*
X136650148Y-74594489D01*
X136636200Y-74621728D01*
X136577665Y-74707429D01*
X136505619Y-74776617D01*
X136421947Y-74827741D01*
X136328531Y-74859250D01*
X136295434Y-74866225D01*
X136254960Y-74873094D01*
X136221999Y-74874919D01*
X136187698Y-74871947D01*
X136143200Y-74864426D01*
X136091934Y-74852002D01*
X136001434Y-74814112D01*
X135922345Y-74759836D01*
X135856528Y-74691770D01*
X135805840Y-74612511D01*
X135772140Y-74524654D01*
X135757286Y-74430795D01*
X135763136Y-74333530D01*
X135789399Y-74237220D01*
X135834418Y-74148494D01*
X135895373Y-74073419D01*
X135970184Y-74013641D01*
X136056768Y-73970809D01*
X136153043Y-73946571D01*
X136256928Y-73942576D01*
X136334562Y-73952850D01*
G37*
X129035767Y-79189068D02*
X129129890Y-79189158D01*
X129204405Y-79189498D01*
X129261811Y-79190239D01*
X129304611Y-79191535D01*
X129335304Y-79193537D01*
X129356391Y-79196396D01*
X129370373Y-79200266D01*
X129379750Y-79205298D01*
X129387022Y-79211645D01*
X129405828Y-79244362D01*
X129407275Y-79281939D01*
X129390917Y-79315178D01*
X129389557Y-79316631D01*
X129378354Y-79324992D01*
X129361252Y-79330547D01*
X129334082Y-79333840D01*
X129292678Y-79335418D01*
X129232873Y-79335822D01*
X129093511Y-79335822D01*
X129093511Y-79599589D01*
X129093436Y-79675417D01*
X129093028Y-79742083D01*
X129092046Y-79791867D01*
X129090250Y-79827784D01*
X129087399Y-79852850D01*
X129083253Y-79870081D01*
X129077571Y-79882492D01*
X129070114Y-79893100D01*
X129067824Y-79895906D01*
X129036646Y-79918548D01*
X129002266Y-79920112D01*
X128969334Y-79900267D01*
X128962355Y-79892191D01*
X128956883Y-79881593D01*
X128952863Y-79865749D01*
X128950072Y-79841773D01*
X128948288Y-79806774D01*
X128947289Y-79757864D01*
X128946852Y-79692154D01*
X128946756Y-79606756D01*
X128946756Y-79335822D01*
X128800820Y-79335822D01*
X128789720Y-79335821D01*
X128733202Y-79335596D01*
X128694358Y-79334457D01*
X128668965Y-79331657D01*
X128652804Y-79326450D01*
X128641652Y-79318089D01*
X128631289Y-79305826D01*
X128615441Y-79275138D01*
X128618543Y-79241358D01*
X128644187Y-79208822D01*
X128649129Y-79205105D01*
X128659338Y-79200269D01*
X128674764Y-79196506D01*
X128697886Y-79193683D01*
X128731183Y-79191670D01*
X128777137Y-79190333D01*
X128838228Y-79189542D01*
X128916935Y-79189163D01*
X129015740Y-79189067D01*
X129035767Y-79189068D01*
G36*
X129035767Y-79189068D02*
G01*
X129129890Y-79189158D01*
X129204405Y-79189498D01*
X129261811Y-79190239D01*
X129304611Y-79191535D01*
X129335304Y-79193537D01*
X129356391Y-79196396D01*
X129370373Y-79200266D01*
X129379750Y-79205298D01*
X129387022Y-79211645D01*
X129405828Y-79244362D01*
X129407275Y-79281939D01*
X129390917Y-79315178D01*
X129389557Y-79316631D01*
X129378354Y-79324992D01*
X129361252Y-79330547D01*
X129334082Y-79333840D01*
X129292678Y-79335418D01*
X129232873Y-79335822D01*
X129093511Y-79335822D01*
X129093511Y-79599589D01*
X129093436Y-79675417D01*
X129093028Y-79742083D01*
X129092046Y-79791867D01*
X129090250Y-79827784D01*
X129087399Y-79852850D01*
X129083253Y-79870081D01*
X129077571Y-79882492D01*
X129070114Y-79893100D01*
X129067824Y-79895906D01*
X129036646Y-79918548D01*
X129002266Y-79920112D01*
X128969334Y-79900267D01*
X128962355Y-79892191D01*
X128956883Y-79881593D01*
X128952863Y-79865749D01*
X128950072Y-79841773D01*
X128948288Y-79806774D01*
X128947289Y-79757864D01*
X128946852Y-79692154D01*
X128946756Y-79606756D01*
X128946756Y-79335822D01*
X128800820Y-79335822D01*
X128789720Y-79335821D01*
X128733202Y-79335596D01*
X128694358Y-79334457D01*
X128668965Y-79331657D01*
X128652804Y-79326450D01*
X128641652Y-79318089D01*
X128631289Y-79305826D01*
X128615441Y-79275138D01*
X128618543Y-79241358D01*
X128644187Y-79208822D01*
X128649129Y-79205105D01*
X128659338Y-79200269D01*
X128674764Y-79196506D01*
X128697886Y-79193683D01*
X128731183Y-79191670D01*
X128777137Y-79190333D01*
X128838228Y-79189542D01*
X128916935Y-79189163D01*
X129015740Y-79189067D01*
X129035767Y-79189068D01*
G37*
X128359734Y-79211645D02*
X128365366Y-79217835D01*
X128370456Y-79226041D01*
X128374543Y-79237817D01*
X128377721Y-79255276D01*
X128380087Y-79280530D01*
X128381738Y-79315690D01*
X128382769Y-79362869D01*
X128383277Y-79424177D01*
X128383359Y-79501727D01*
X128383109Y-79597631D01*
X128382625Y-79714000D01*
X128382557Y-79728175D01*
X128381971Y-79789937D01*
X128380648Y-79833620D01*
X128378103Y-79863001D01*
X128373848Y-79881855D01*
X128367396Y-79893959D01*
X128358262Y-79903089D01*
X128324804Y-79920506D01*
X128289856Y-79917604D01*
X128258953Y-79893100D01*
X128249944Y-79879897D01*
X128242492Y-79861361D01*
X128238124Y-79835333D01*
X128236069Y-79796787D01*
X128235556Y-79740700D01*
X128235556Y-79618045D01*
X127738845Y-79618045D01*
X127738845Y-79752871D01*
X127738772Y-79788662D01*
X127738009Y-79834992D01*
X127735833Y-79865526D01*
X127731536Y-79884557D01*
X127724412Y-79896374D01*
X127713755Y-79905271D01*
X127681504Y-79920341D01*
X127646217Y-79917673D01*
X127615486Y-79893100D01*
X127610831Y-79886845D01*
X127604895Y-79876321D01*
X127600364Y-79862391D01*
X127597048Y-79842317D01*
X127594759Y-79813360D01*
X127593308Y-79772780D01*
X127592505Y-79717840D01*
X127592162Y-79645799D01*
X127592089Y-79553920D01*
X127592089Y-79244485D01*
X127619798Y-79216776D01*
X127651177Y-79194533D01*
X127684406Y-79191844D01*
X127716267Y-79211645D01*
X127724553Y-79221415D01*
X127731965Y-79237307D01*
X127736302Y-79261275D01*
X127738338Y-79298148D01*
X127738845Y-79352756D01*
X127738845Y-79471289D01*
X128235556Y-79471289D01*
X128235556Y-79355776D01*
X128235994Y-79304078D01*
X128237958Y-79269554D01*
X128242474Y-79246978D01*
X128250567Y-79231126D01*
X128263265Y-79216776D01*
X128294643Y-79194533D01*
X128327872Y-79191844D01*
X128359734Y-79211645D01*
G36*
X128359734Y-79211645D02*
G01*
X128365366Y-79217835D01*
X128370456Y-79226041D01*
X128374543Y-79237817D01*
X128377721Y-79255276D01*
X128380087Y-79280530D01*
X128381738Y-79315690D01*
X128382769Y-79362869D01*
X128383277Y-79424177D01*
X128383359Y-79501727D01*
X128383109Y-79597631D01*
X128382625Y-79714000D01*
X128382557Y-79728175D01*
X128381971Y-79789937D01*
X128380648Y-79833620D01*
X128378103Y-79863001D01*
X128373848Y-79881855D01*
X128367396Y-79893959D01*
X128358262Y-79903089D01*
X128324804Y-79920506D01*
X128289856Y-79917604D01*
X128258953Y-79893100D01*
X128249944Y-79879897D01*
X128242492Y-79861361D01*
X128238124Y-79835333D01*
X128236069Y-79796787D01*
X128235556Y-79740700D01*
X128235556Y-79618045D01*
X127738845Y-79618045D01*
X127738845Y-79752871D01*
X127738772Y-79788662D01*
X127738009Y-79834992D01*
X127735833Y-79865526D01*
X127731536Y-79884557D01*
X127724412Y-79896374D01*
X127713755Y-79905271D01*
X127681504Y-79920341D01*
X127646217Y-79917673D01*
X127615486Y-79893100D01*
X127610831Y-79886845D01*
X127604895Y-79876321D01*
X127600364Y-79862391D01*
X127597048Y-79842317D01*
X127594759Y-79813360D01*
X127593308Y-79772780D01*
X127592505Y-79717840D01*
X127592162Y-79645799D01*
X127592089Y-79553920D01*
X127592089Y-79244485D01*
X127619798Y-79216776D01*
X127651177Y-79194533D01*
X127684406Y-79191844D01*
X127716267Y-79211645D01*
X127724553Y-79221415D01*
X127731965Y-79237307D01*
X127736302Y-79261275D01*
X127738338Y-79298148D01*
X127738845Y-79352756D01*
X127738845Y-79471289D01*
X128235556Y-79471289D01*
X128235556Y-79355776D01*
X128235994Y-79304078D01*
X128237958Y-79269554D01*
X128242474Y-79246978D01*
X128250567Y-79231126D01*
X128263265Y-79216776D01*
X128294643Y-79194533D01*
X128327872Y-79191844D01*
X128359734Y-79211645D01*
G37*
X133065133Y-79800396D02*
X133063163Y-79833175D01*
X133060235Y-79856095D01*
X133056158Y-79871897D01*
X133050743Y-79883319D01*
X133043803Y-79893100D01*
X133020406Y-79922845D01*
X132854714Y-79922251D01*
X132819918Y-79921953D01*
X132721435Y-79918522D01*
X132640473Y-79910839D01*
X132573379Y-79898282D01*
X132516496Y-79880227D01*
X132466169Y-79856052D01*
X132462810Y-79854135D01*
X132404998Y-79817417D01*
X132362644Y-79780451D01*
X132329828Y-79736966D01*
X132300628Y-79680689D01*
X132296346Y-79671073D01*
X132273769Y-79607887D01*
X132268034Y-79562333D01*
X132417279Y-79562333D01*
X132422892Y-79587061D01*
X132428618Y-79602939D01*
X132461548Y-79662847D01*
X132508886Y-79708600D01*
X132572652Y-79741736D01*
X132654861Y-79763790D01*
X132657655Y-79764292D01*
X132703940Y-79770255D01*
X132760336Y-79774483D01*
X132815274Y-79776089D01*
X132909156Y-79776089D01*
X132909156Y-79335822D01*
X132821667Y-79336270D01*
X132754747Y-79338746D01*
X132662349Y-79349998D01*
X132583034Y-79369537D01*
X132521060Y-79396511D01*
X132490120Y-79417240D01*
X132462000Y-79447006D01*
X132438660Y-79489434D01*
X132431533Y-79505400D01*
X132419709Y-79537902D01*
X132417279Y-79562333D01*
X132268034Y-79562333D01*
X132266797Y-79552509D01*
X132275399Y-79497483D01*
X132299541Y-79435351D01*
X132300337Y-79433658D01*
X132340788Y-79364236D01*
X132391473Y-79307638D01*
X132454198Y-79263070D01*
X132530774Y-79229741D01*
X132623009Y-79206861D01*
X132732712Y-79193636D01*
X132861691Y-79189275D01*
X132865263Y-79189270D01*
X132925283Y-79189410D01*
X132967214Y-79190446D01*
X132995328Y-79193040D01*
X133013897Y-79197853D01*
X133027194Y-79205544D01*
X133039491Y-79216776D01*
X133067200Y-79244485D01*
X133067200Y-79553920D01*
X133067175Y-79615526D01*
X133066950Y-79694311D01*
X133066332Y-79755021D01*
X133065775Y-79776089D01*
X133065133Y-79800396D01*
G36*
X133065133Y-79800396D02*
G01*
X133063163Y-79833175D01*
X133060235Y-79856095D01*
X133056158Y-79871897D01*
X133050743Y-79883319D01*
X133043803Y-79893100D01*
X133020406Y-79922845D01*
X132854714Y-79922251D01*
X132819918Y-79921953D01*
X132721435Y-79918522D01*
X132640473Y-79910839D01*
X132573379Y-79898282D01*
X132516496Y-79880227D01*
X132466169Y-79856052D01*
X132462810Y-79854135D01*
X132404998Y-79817417D01*
X132362644Y-79780451D01*
X132329828Y-79736966D01*
X132300628Y-79680689D01*
X132296346Y-79671073D01*
X132273769Y-79607887D01*
X132268034Y-79562333D01*
X132417279Y-79562333D01*
X132422892Y-79587061D01*
X132428618Y-79602939D01*
X132461548Y-79662847D01*
X132508886Y-79708600D01*
X132572652Y-79741736D01*
X132654861Y-79763790D01*
X132657655Y-79764292D01*
X132703940Y-79770255D01*
X132760336Y-79774483D01*
X132815274Y-79776089D01*
X132909156Y-79776089D01*
X132909156Y-79335822D01*
X132821667Y-79336270D01*
X132754747Y-79338746D01*
X132662349Y-79349998D01*
X132583034Y-79369537D01*
X132521060Y-79396511D01*
X132490120Y-79417240D01*
X132462000Y-79447006D01*
X132438660Y-79489434D01*
X132431533Y-79505400D01*
X132419709Y-79537902D01*
X132417279Y-79562333D01*
X132268034Y-79562333D01*
X132266797Y-79552509D01*
X132275399Y-79497483D01*
X132299541Y-79435351D01*
X132300337Y-79433658D01*
X132340788Y-79364236D01*
X132391473Y-79307638D01*
X132454198Y-79263070D01*
X132530774Y-79229741D01*
X132623009Y-79206861D01*
X132732712Y-79193636D01*
X132861691Y-79189275D01*
X132865263Y-79189270D01*
X132925283Y-79189410D01*
X132967214Y-79190446D01*
X132995328Y-79193040D01*
X133013897Y-79197853D01*
X133027194Y-79205544D01*
X133039491Y-79216776D01*
X133067200Y-79244485D01*
X133067200Y-79553920D01*
X133067175Y-79615526D01*
X133066950Y-79694311D01*
X133066332Y-79755021D01*
X133065775Y-79776089D01*
X133065133Y-79800396D01*
G37*
X140156817Y-79374427D02*
X140156870Y-79455041D01*
X140156622Y-79555956D01*
X140156583Y-79631617D01*
X140156328Y-79709526D01*
X140155684Y-79769536D01*
X140154480Y-79814264D01*
X140152543Y-79846326D01*
X140149703Y-79868340D01*
X140145788Y-79882924D01*
X140140626Y-79892694D01*
X140134045Y-79900267D01*
X140127077Y-79906501D01*
X140114079Y-79913801D01*
X140094931Y-79918554D01*
X140065528Y-79921292D01*
X140021762Y-79922545D01*
X139959528Y-79922845D01*
X139910582Y-79922469D01*
X139803722Y-79918041D01*
X139714494Y-79907953D01*
X139639696Y-79891365D01*
X139576125Y-79867435D01*
X139520579Y-79835321D01*
X139469854Y-79794182D01*
X139463866Y-79788330D01*
X139426999Y-79739821D01*
X139395899Y-79679013D01*
X139374417Y-79614769D01*
X139369136Y-79576026D01*
X139516353Y-79576026D01*
X139534635Y-79626961D01*
X139564305Y-79672878D01*
X139611002Y-79715287D01*
X139672392Y-79745090D01*
X139751538Y-79764226D01*
X139753028Y-79764464D01*
X139801999Y-79770256D01*
X139860693Y-79774396D01*
X139916734Y-79776004D01*
X140009867Y-79776089D01*
X140009867Y-79335822D01*
X139933667Y-79335808D01*
X139930639Y-79335817D01*
X139879519Y-79337782D01*
X139819416Y-79342507D01*
X139762708Y-79349035D01*
X139712750Y-79358331D01*
X139637998Y-79384600D01*
X139580489Y-79423899D01*
X139538988Y-79476933D01*
X139517771Y-79528200D01*
X139516353Y-79576026D01*
X139369136Y-79576026D01*
X139366400Y-79555956D01*
X139367679Y-79534739D01*
X139379991Y-79477323D01*
X139402520Y-79417413D01*
X139431750Y-79363363D01*
X139464167Y-79323532D01*
X139483708Y-79306510D01*
X139538420Y-79267322D01*
X139598723Y-79237193D01*
X139667919Y-79215232D01*
X139749311Y-79200550D01*
X139846200Y-79192259D01*
X139961889Y-79189467D01*
X140001371Y-79189066D01*
X140047082Y-79188653D01*
X140082883Y-79190457D01*
X140109974Y-79196739D01*
X140129556Y-79209759D01*
X140142830Y-79231778D01*
X140150998Y-79265055D01*
X140155260Y-79311851D01*
X140155857Y-79335822D01*
X140156817Y-79374427D01*
G36*
X140156817Y-79374427D02*
G01*
X140156870Y-79455041D01*
X140156622Y-79555956D01*
X140156583Y-79631617D01*
X140156328Y-79709526D01*
X140155684Y-79769536D01*
X140154480Y-79814264D01*
X140152543Y-79846326D01*
X140149703Y-79868340D01*
X140145788Y-79882924D01*
X140140626Y-79892694D01*
X140134045Y-79900267D01*
X140127077Y-79906501D01*
X140114079Y-79913801D01*
X140094931Y-79918554D01*
X140065528Y-79921292D01*
X140021762Y-79922545D01*
X139959528Y-79922845D01*
X139910582Y-79922469D01*
X139803722Y-79918041D01*
X139714494Y-79907953D01*
X139639696Y-79891365D01*
X139576125Y-79867435D01*
X139520579Y-79835321D01*
X139469854Y-79794182D01*
X139463866Y-79788330D01*
X139426999Y-79739821D01*
X139395899Y-79679013D01*
X139374417Y-79614769D01*
X139369136Y-79576026D01*
X139516353Y-79576026D01*
X139534635Y-79626961D01*
X139564305Y-79672878D01*
X139611002Y-79715287D01*
X139672392Y-79745090D01*
X139751538Y-79764226D01*
X139753028Y-79764464D01*
X139801999Y-79770256D01*
X139860693Y-79774396D01*
X139916734Y-79776004D01*
X140009867Y-79776089D01*
X140009867Y-79335822D01*
X139933667Y-79335808D01*
X139930639Y-79335817D01*
X139879519Y-79337782D01*
X139819416Y-79342507D01*
X139762708Y-79349035D01*
X139712750Y-79358331D01*
X139637998Y-79384600D01*
X139580489Y-79423899D01*
X139538988Y-79476933D01*
X139517771Y-79528200D01*
X139516353Y-79576026D01*
X139369136Y-79576026D01*
X139366400Y-79555956D01*
X139367679Y-79534739D01*
X139379991Y-79477323D01*
X139402520Y-79417413D01*
X139431750Y-79363363D01*
X139464167Y-79323532D01*
X139483708Y-79306510D01*
X139538420Y-79267322D01*
X139598723Y-79237193D01*
X139667919Y-79215232D01*
X139749311Y-79200550D01*
X139846200Y-79192259D01*
X139961889Y-79189467D01*
X140001371Y-79189066D01*
X140047082Y-79188653D01*
X140082883Y-79190457D01*
X140109974Y-79196739D01*
X140129556Y-79209759D01*
X140142830Y-79231778D01*
X140150998Y-79265055D01*
X140155260Y-79311851D01*
X140155857Y-79335822D01*
X140156817Y-79374427D01*
G37*
X135211893Y-79187892D02*
X135223301Y-79194029D01*
X135233850Y-79204691D01*
X135245136Y-79218811D01*
X135249589Y-79224772D01*
X135255588Y-79235268D01*
X135260167Y-79249093D01*
X135263519Y-79268998D01*
X135265833Y-79297732D01*
X135267301Y-79338045D01*
X135268113Y-79392687D01*
X135268460Y-79464407D01*
X135268534Y-79555956D01*
X135268511Y-79614486D01*
X135268292Y-79693573D01*
X135267683Y-79754516D01*
X135266492Y-79800062D01*
X135264529Y-79832963D01*
X135261603Y-79855968D01*
X135257523Y-79871826D01*
X135252097Y-79883286D01*
X135245136Y-79893100D01*
X135214708Y-79917493D01*
X135179765Y-79920372D01*
X135142784Y-79901282D01*
X135138600Y-79897807D01*
X135130424Y-79889279D01*
X135124364Y-79877728D01*
X135119981Y-79859896D01*
X135116839Y-79832524D01*
X135114502Y-79792354D01*
X135112531Y-79736128D01*
X135110489Y-79660589D01*
X135104845Y-79441458D01*
X134839556Y-79682099D01*
X134765722Y-79748875D01*
X134700542Y-79806991D01*
X134648348Y-79851949D01*
X134607273Y-79884871D01*
X134575455Y-79906879D01*
X134551026Y-79919094D01*
X134532124Y-79922639D01*
X134516883Y-79918636D01*
X134503439Y-79908207D01*
X134489927Y-79892474D01*
X134483682Y-79883991D01*
X134478050Y-79873413D01*
X134473839Y-79859255D01*
X134470887Y-79838803D01*
X134469032Y-79809342D01*
X134468113Y-79768161D01*
X134467968Y-79712544D01*
X134468435Y-79639779D01*
X134469352Y-79547151D01*
X134472667Y-79232199D01*
X134499318Y-79210633D01*
X134525383Y-79194441D01*
X134558241Y-79191670D01*
X134592772Y-79210623D01*
X134597084Y-79214208D01*
X134605216Y-79222737D01*
X134611245Y-79234329D01*
X134615606Y-79252235D01*
X134618734Y-79279706D01*
X134621063Y-79319994D01*
X134623029Y-79376351D01*
X134625067Y-79452029D01*
X134630711Y-79671878D01*
X134811334Y-79508084D01*
X134898072Y-79429451D01*
X134973843Y-79361058D01*
X135035980Y-79305708D01*
X135086078Y-79262338D01*
X135125735Y-79229881D01*
X135156548Y-79207273D01*
X135180114Y-79193448D01*
X135198030Y-79187343D01*
X135211893Y-79187892D01*
G36*
X135211893Y-79187892D02*
G01*
X135223301Y-79194029D01*
X135233850Y-79204691D01*
X135245136Y-79218811D01*
X135249589Y-79224772D01*
X135255588Y-79235268D01*
X135260167Y-79249093D01*
X135263519Y-79268998D01*
X135265833Y-79297732D01*
X135267301Y-79338045D01*
X135268113Y-79392687D01*
X135268460Y-79464407D01*
X135268534Y-79555956D01*
X135268511Y-79614486D01*
X135268292Y-79693573D01*
X135267683Y-79754516D01*
X135266492Y-79800062D01*
X135264529Y-79832963D01*
X135261603Y-79855968D01*
X135257523Y-79871826D01*
X135252097Y-79883286D01*
X135245136Y-79893100D01*
X135214708Y-79917493D01*
X135179765Y-79920372D01*
X135142784Y-79901282D01*
X135138600Y-79897807D01*
X135130424Y-79889279D01*
X135124364Y-79877728D01*
X135119981Y-79859896D01*
X135116839Y-79832524D01*
X135114502Y-79792354D01*
X135112531Y-79736128D01*
X135110489Y-79660589D01*
X135104845Y-79441458D01*
X134839556Y-79682099D01*
X134765722Y-79748875D01*
X134700542Y-79806991D01*
X134648348Y-79851949D01*
X134607273Y-79884871D01*
X134575455Y-79906879D01*
X134551026Y-79919094D01*
X134532124Y-79922639D01*
X134516883Y-79918636D01*
X134503439Y-79908207D01*
X134489927Y-79892474D01*
X134483682Y-79883991D01*
X134478050Y-79873413D01*
X134473839Y-79859255D01*
X134470887Y-79838803D01*
X134469032Y-79809342D01*
X134468113Y-79768161D01*
X134467968Y-79712544D01*
X134468435Y-79639779D01*
X134469352Y-79547151D01*
X134472667Y-79232199D01*
X134499318Y-79210633D01*
X134525383Y-79194441D01*
X134558241Y-79191670D01*
X134592772Y-79210623D01*
X134597084Y-79214208D01*
X134605216Y-79222737D01*
X134611245Y-79234329D01*
X134615606Y-79252235D01*
X134618734Y-79279706D01*
X134621063Y-79319994D01*
X134623029Y-79376351D01*
X134625067Y-79452029D01*
X134630711Y-79671878D01*
X134811334Y-79508084D01*
X134898072Y-79429451D01*
X134973843Y-79361058D01*
X135035980Y-79305708D01*
X135086078Y-79262338D01*
X135125735Y-79229881D01*
X135156548Y-79207273D01*
X135180114Y-79193448D01*
X135198030Y-79187343D01*
X135211893Y-79187892D01*
G37*
X136009150Y-79194179D02*
X136115157Y-79210494D01*
X136208969Y-79238545D01*
X136287765Y-79277452D01*
X136348719Y-79326334D01*
X136374789Y-79359195D01*
X136404297Y-79408394D01*
X136429568Y-79462252D01*
X136447218Y-79513419D01*
X136453858Y-79554544D01*
X136452298Y-79574259D01*
X136439357Y-79625592D01*
X136416194Y-79682118D01*
X136386302Y-79736035D01*
X136353173Y-79779539D01*
X136342977Y-79789887D01*
X136275892Y-79841662D01*
X136195766Y-79881554D01*
X136109556Y-79905956D01*
X136054592Y-79914068D01*
X135961139Y-79920673D01*
X135871358Y-79918586D01*
X135788869Y-79908340D01*
X135717286Y-79890470D01*
X135660228Y-79865508D01*
X135621311Y-79833988D01*
X135619936Y-79832012D01*
X135612848Y-79806786D01*
X135608609Y-79759535D01*
X135607200Y-79690071D01*
X135608060Y-79627838D01*
X135612780Y-79580456D01*
X135624470Y-79548353D01*
X135646239Y-79528800D01*
X135681198Y-79519070D01*
X135732456Y-79516433D01*
X135803123Y-79518161D01*
X135851743Y-79521173D01*
X135901939Y-79529366D01*
X135934433Y-79543419D01*
X135951892Y-79564654D01*
X135956983Y-79594394D01*
X135956877Y-79598936D01*
X135948175Y-79633730D01*
X135924165Y-79657147D01*
X135882900Y-79670347D01*
X135822431Y-79674489D01*
X135753956Y-79674489D01*
X135753956Y-79712841D01*
X135754006Y-79721976D01*
X135756227Y-79739227D01*
X135765494Y-79749521D01*
X135786875Y-79756459D01*
X135825436Y-79763641D01*
X135830910Y-79764575D01*
X135927860Y-79774478D01*
X136017852Y-79771559D01*
X136098760Y-79756829D01*
X136168459Y-79731299D01*
X136224824Y-79695978D01*
X136265729Y-79651879D01*
X136289051Y-79600012D01*
X136292663Y-79541388D01*
X136287145Y-79512494D01*
X136260461Y-79456604D01*
X136214273Y-79410945D01*
X136149291Y-79376108D01*
X136066229Y-79352690D01*
X136041555Y-79348241D01*
X135952226Y-79337742D01*
X135872419Y-79338971D01*
X135794326Y-79351906D01*
X135759183Y-79358696D01*
X135713745Y-79359713D01*
X135682430Y-79347182D01*
X135662277Y-79320395D01*
X135655893Y-79292148D01*
X135665379Y-79260924D01*
X135674708Y-79247499D01*
X135708943Y-79223967D01*
X135761565Y-79206095D01*
X135830081Y-79194599D01*
X135912000Y-79190192D01*
X136009150Y-79194179D01*
G36*
X136009150Y-79194179D02*
G01*
X136115157Y-79210494D01*
X136208969Y-79238545D01*
X136287765Y-79277452D01*
X136348719Y-79326334D01*
X136374789Y-79359195D01*
X136404297Y-79408394D01*
X136429568Y-79462252D01*
X136447218Y-79513419D01*
X136453858Y-79554544D01*
X136452298Y-79574259D01*
X136439357Y-79625592D01*
X136416194Y-79682118D01*
X136386302Y-79736035D01*
X136353173Y-79779539D01*
X136342977Y-79789887D01*
X136275892Y-79841662D01*
X136195766Y-79881554D01*
X136109556Y-79905956D01*
X136054592Y-79914068D01*
X135961139Y-79920673D01*
X135871358Y-79918586D01*
X135788869Y-79908340D01*
X135717286Y-79890470D01*
X135660228Y-79865508D01*
X135621311Y-79833988D01*
X135619936Y-79832012D01*
X135612848Y-79806786D01*
X135608609Y-79759535D01*
X135607200Y-79690071D01*
X135608060Y-79627838D01*
X135612780Y-79580456D01*
X135624470Y-79548353D01*
X135646239Y-79528800D01*
X135681198Y-79519070D01*
X135732456Y-79516433D01*
X135803123Y-79518161D01*
X135851743Y-79521173D01*
X135901939Y-79529366D01*
X135934433Y-79543419D01*
X135951892Y-79564654D01*
X135956983Y-79594394D01*
X135956877Y-79598936D01*
X135948175Y-79633730D01*
X135924165Y-79657147D01*
X135882900Y-79670347D01*
X135822431Y-79674489D01*
X135753956Y-79674489D01*
X135753956Y-79712841D01*
X135754006Y-79721976D01*
X135756227Y-79739227D01*
X135765494Y-79749521D01*
X135786875Y-79756459D01*
X135825436Y-79763641D01*
X135830910Y-79764575D01*
X135927860Y-79774478D01*
X136017852Y-79771559D01*
X136098760Y-79756829D01*
X136168459Y-79731299D01*
X136224824Y-79695978D01*
X136265729Y-79651879D01*
X136289051Y-79600012D01*
X136292663Y-79541388D01*
X136287145Y-79512494D01*
X136260461Y-79456604D01*
X136214273Y-79410945D01*
X136149291Y-79376108D01*
X136066229Y-79352690D01*
X136041555Y-79348241D01*
X135952226Y-79337742D01*
X135872419Y-79338971D01*
X135794326Y-79351906D01*
X135759183Y-79358696D01*
X135713745Y-79359713D01*
X135682430Y-79347182D01*
X135662277Y-79320395D01*
X135655893Y-79292148D01*
X135665379Y-79260924D01*
X135674708Y-79247499D01*
X135708943Y-79223967D01*
X135761565Y-79206095D01*
X135830081Y-79194599D01*
X135912000Y-79190192D01*
X136009150Y-79194179D01*
G37*
X134059803Y-79218811D02*
X134064752Y-79225495D01*
X134070596Y-79236066D01*
X134075057Y-79250153D01*
X134078321Y-79270478D01*
X134080574Y-79299765D01*
X134082002Y-79340737D01*
X134082792Y-79396117D01*
X134083129Y-79468628D01*
X134083200Y-79560994D01*
X134083171Y-79626911D01*
X134082939Y-79705228D01*
X134082319Y-79765496D01*
X134081126Y-79810393D01*
X134079179Y-79842602D01*
X134076294Y-79864800D01*
X134072288Y-79879669D01*
X134066979Y-79889889D01*
X134060183Y-79898138D01*
X134055668Y-79902795D01*
X134047438Y-79909282D01*
X134036078Y-79914194D01*
X134018810Y-79917749D01*
X133992855Y-79920167D01*
X133955436Y-79921667D01*
X133903773Y-79922467D01*
X133835089Y-79922787D01*
X133746606Y-79922845D01*
X133726931Y-79922838D01*
X133639906Y-79922572D01*
X133572254Y-79921806D01*
X133521299Y-79920392D01*
X133484367Y-79918180D01*
X133458783Y-79915022D01*
X133441871Y-79910769D01*
X133430957Y-79905271D01*
X133420464Y-79895285D01*
X133407203Y-79864168D01*
X133408386Y-79828280D01*
X133424550Y-79796733D01*
X133426739Y-79794457D01*
X133435427Y-79788189D01*
X133448769Y-79783523D01*
X133469752Y-79780227D01*
X133501363Y-79778068D01*
X133546590Y-79776814D01*
X133608420Y-79776231D01*
X133689839Y-79776089D01*
X133936445Y-79776089D01*
X133936445Y-79618045D01*
X133774006Y-79618045D01*
X133738338Y-79617964D01*
X133682568Y-79617167D01*
X133643430Y-79615162D01*
X133616976Y-79611521D01*
X133599259Y-79605812D01*
X133586329Y-79597607D01*
X133582686Y-79594423D01*
X133564278Y-79563448D01*
X133563644Y-79527112D01*
X133581183Y-79493493D01*
X133581245Y-79493424D01*
X133590916Y-79484798D01*
X133604209Y-79478742D01*
X133624917Y-79474811D01*
X133656828Y-79472556D01*
X133703734Y-79471531D01*
X133769424Y-79471289D01*
X133937571Y-79471289D01*
X133934186Y-79406378D01*
X133930800Y-79341467D01*
X133688723Y-79338414D01*
X133663707Y-79338086D01*
X133582087Y-79336606D01*
X133519768Y-79334222D01*
X133474154Y-79330227D01*
X133442652Y-79323913D01*
X133422667Y-79314574D01*
X133411604Y-79301503D01*
X133406869Y-79283992D01*
X133405867Y-79261335D01*
X133405873Y-79258970D01*
X133407027Y-79238939D01*
X133411824Y-79223146D01*
X133422632Y-79211090D01*
X133441817Y-79202267D01*
X133471745Y-79196175D01*
X133514783Y-79192311D01*
X133573299Y-79190174D01*
X133649657Y-79189260D01*
X133746226Y-79189067D01*
X134036406Y-79189067D01*
X134059803Y-79218811D01*
G36*
X134059803Y-79218811D02*
G01*
X134064752Y-79225495D01*
X134070596Y-79236066D01*
X134075057Y-79250153D01*
X134078321Y-79270478D01*
X134080574Y-79299765D01*
X134082002Y-79340737D01*
X134082792Y-79396117D01*
X134083129Y-79468628D01*
X134083200Y-79560994D01*
X134083171Y-79626911D01*
X134082939Y-79705228D01*
X134082319Y-79765496D01*
X134081126Y-79810393D01*
X134079179Y-79842602D01*
X134076294Y-79864800D01*
X134072288Y-79879669D01*
X134066979Y-79889889D01*
X134060183Y-79898138D01*
X134055668Y-79902795D01*
X134047438Y-79909282D01*
X134036078Y-79914194D01*
X134018810Y-79917749D01*
X133992855Y-79920167D01*
X133955436Y-79921667D01*
X133903773Y-79922467D01*
X133835089Y-79922787D01*
X133746606Y-79922845D01*
X133726931Y-79922838D01*
X133639906Y-79922572D01*
X133572254Y-79921806D01*
X133521299Y-79920392D01*
X133484367Y-79918180D01*
X133458783Y-79915022D01*
X133441871Y-79910769D01*
X133430957Y-79905271D01*
X133420464Y-79895285D01*
X133407203Y-79864168D01*
X133408386Y-79828280D01*
X133424550Y-79796733D01*
X133426739Y-79794457D01*
X133435427Y-79788189D01*
X133448769Y-79783523D01*
X133469752Y-79780227D01*
X133501363Y-79778068D01*
X133546590Y-79776814D01*
X133608420Y-79776231D01*
X133689839Y-79776089D01*
X133936445Y-79776089D01*
X133936445Y-79618045D01*
X133774006Y-79618045D01*
X133738338Y-79617964D01*
X133682568Y-79617167D01*
X133643430Y-79615162D01*
X133616976Y-79611521D01*
X133599259Y-79605812D01*
X133586329Y-79597607D01*
X133582686Y-79594423D01*
X133564278Y-79563448D01*
X133563644Y-79527112D01*
X133581183Y-79493493D01*
X133581245Y-79493424D01*
X133590916Y-79484798D01*
X133604209Y-79478742D01*
X133624917Y-79474811D01*
X133656828Y-79472556D01*
X133703734Y-79471531D01*
X133769424Y-79471289D01*
X133937571Y-79471289D01*
X133934186Y-79406378D01*
X133930800Y-79341467D01*
X133688723Y-79338414D01*
X133663707Y-79338086D01*
X133582087Y-79336606D01*
X133519768Y-79334222D01*
X133474154Y-79330227D01*
X133442652Y-79323913D01*
X133422667Y-79314574D01*
X133411604Y-79301503D01*
X133406869Y-79283992D01*
X133405867Y-79261335D01*
X133405873Y-79258970D01*
X133407027Y-79238939D01*
X133411824Y-79223146D01*
X133422632Y-79211090D01*
X133441817Y-79202267D01*
X133471745Y-79196175D01*
X133514783Y-79192311D01*
X133573299Y-79190174D01*
X133649657Y-79189260D01*
X133746226Y-79189067D01*
X134036406Y-79189067D01*
X134059803Y-79218811D01*
G37*
X138736734Y-79189083D02*
X138813831Y-79189275D01*
X138872777Y-79189860D01*
X138916364Y-79191051D01*
X138947383Y-79193064D01*
X138968625Y-79196112D01*
X138982882Y-79200409D01*
X138992945Y-79206172D01*
X139001606Y-79213612D01*
X139003391Y-79215293D01*
X139010635Y-79222832D01*
X139016277Y-79231850D01*
X139020517Y-79244984D01*
X139023556Y-79264872D01*
X139025594Y-79294151D01*
X139026830Y-79335458D01*
X139027465Y-79391431D01*
X139027700Y-79464707D01*
X139027734Y-79557923D01*
X139027697Y-79630713D01*
X139027448Y-79708889D01*
X139026812Y-79769103D01*
X139025615Y-79813982D01*
X139023684Y-79846152D01*
X139020846Y-79868239D01*
X139016927Y-79882870D01*
X139011755Y-79892670D01*
X139005156Y-79900267D01*
X139001822Y-79903444D01*
X138993300Y-79909554D01*
X138981298Y-79914229D01*
X138963087Y-79917659D01*
X138935940Y-79920036D01*
X138897129Y-79921552D01*
X138843924Y-79922398D01*
X138773598Y-79922765D01*
X138683422Y-79922845D01*
X138641314Y-79922833D01*
X138560167Y-79922651D01*
X138497675Y-79922098D01*
X138451109Y-79920982D01*
X138417741Y-79919113D01*
X138394844Y-79916298D01*
X138379688Y-79912346D01*
X138369546Y-79907066D01*
X138361689Y-79900267D01*
X138346963Y-79878667D01*
X138339111Y-79849467D01*
X138344610Y-79825560D01*
X138361689Y-79798667D01*
X138366668Y-79794059D01*
X138376443Y-79787772D01*
X138390559Y-79783146D01*
X138412054Y-79779930D01*
X138443968Y-79777870D01*
X138489342Y-79776712D01*
X138551213Y-79776202D01*
X138632622Y-79776089D01*
X138880978Y-79776089D01*
X138880978Y-79618045D01*
X138719801Y-79618045D01*
X138683983Y-79617899D01*
X138618359Y-79616176D01*
X138571118Y-79611741D01*
X138539383Y-79603637D01*
X138520277Y-79590906D01*
X138510923Y-79572592D01*
X138508445Y-79547738D01*
X138509242Y-79527482D01*
X138514494Y-79505656D01*
X138527288Y-79490304D01*
X138550628Y-79480309D01*
X138587517Y-79474553D01*
X138640959Y-79471919D01*
X138713958Y-79471289D01*
X138882105Y-79471289D01*
X138878719Y-79406378D01*
X138875334Y-79341467D01*
X138627617Y-79338418D01*
X138565026Y-79337539D01*
X138496565Y-79336095D01*
X138445661Y-79334164D01*
X138409408Y-79331514D01*
X138384901Y-79327910D01*
X138369235Y-79323121D01*
X138359506Y-79316913D01*
X138353491Y-79310510D01*
X138340482Y-79278828D01*
X138344043Y-79243142D01*
X138363818Y-79212084D01*
X138367069Y-79209161D01*
X138376049Y-79202810D01*
X138388153Y-79197957D01*
X138406159Y-79194403D01*
X138432847Y-79191946D01*
X138470997Y-79190385D01*
X138523386Y-79189518D01*
X138592794Y-79189146D01*
X138682001Y-79189067D01*
X138736734Y-79189083D01*
G36*
X138736734Y-79189083D02*
G01*
X138813831Y-79189275D01*
X138872777Y-79189860D01*
X138916364Y-79191051D01*
X138947383Y-79193064D01*
X138968625Y-79196112D01*
X138982882Y-79200409D01*
X138992945Y-79206172D01*
X139001606Y-79213612D01*
X139003391Y-79215293D01*
X139010635Y-79222832D01*
X139016277Y-79231850D01*
X139020517Y-79244984D01*
X139023556Y-79264872D01*
X139025594Y-79294151D01*
X139026830Y-79335458D01*
X139027465Y-79391431D01*
X139027700Y-79464707D01*
X139027734Y-79557923D01*
X139027697Y-79630713D01*
X139027448Y-79708889D01*
X139026812Y-79769103D01*
X139025615Y-79813982D01*
X139023684Y-79846152D01*
X139020846Y-79868239D01*
X139016927Y-79882870D01*
X139011755Y-79892670D01*
X139005156Y-79900267D01*
X139001822Y-79903444D01*
X138993300Y-79909554D01*
X138981298Y-79914229D01*
X138963087Y-79917659D01*
X138935940Y-79920036D01*
X138897129Y-79921552D01*
X138843924Y-79922398D01*
X138773598Y-79922765D01*
X138683422Y-79922845D01*
X138641314Y-79922833D01*
X138560167Y-79922651D01*
X138497675Y-79922098D01*
X138451109Y-79920982D01*
X138417741Y-79919113D01*
X138394844Y-79916298D01*
X138379688Y-79912346D01*
X138369546Y-79907066D01*
X138361689Y-79900267D01*
X138346963Y-79878667D01*
X138339111Y-79849467D01*
X138344610Y-79825560D01*
X138361689Y-79798667D01*
X138366668Y-79794059D01*
X138376443Y-79787772D01*
X138390559Y-79783146D01*
X138412054Y-79779930D01*
X138443968Y-79777870D01*
X138489342Y-79776712D01*
X138551213Y-79776202D01*
X138632622Y-79776089D01*
X138880978Y-79776089D01*
X138880978Y-79618045D01*
X138719801Y-79618045D01*
X138683983Y-79617899D01*
X138618359Y-79616176D01*
X138571118Y-79611741D01*
X138539383Y-79603637D01*
X138520277Y-79590906D01*
X138510923Y-79572592D01*
X138508445Y-79547738D01*
X138509242Y-79527482D01*
X138514494Y-79505656D01*
X138527288Y-79490304D01*
X138550628Y-79480309D01*
X138587517Y-79474553D01*
X138640959Y-79471919D01*
X138713958Y-79471289D01*
X138882105Y-79471289D01*
X138878719Y-79406378D01*
X138875334Y-79341467D01*
X138627617Y-79338418D01*
X138565026Y-79337539D01*
X138496565Y-79336095D01*
X138445661Y-79334164D01*
X138409408Y-79331514D01*
X138384901Y-79327910D01*
X138369235Y-79323121D01*
X138359506Y-79316913D01*
X138353491Y-79310510D01*
X138340482Y-79278828D01*
X138344043Y-79243142D01*
X138363818Y-79212084D01*
X138367069Y-79209161D01*
X138376049Y-79202810D01*
X138388153Y-79197957D01*
X138406159Y-79194403D01*
X138432847Y-79191946D01*
X138470997Y-79190385D01*
X138523386Y-79189518D01*
X138592794Y-79189146D01*
X138682001Y-79189067D01*
X138736734Y-79189083D01*
G37*
X130169702Y-79198478D02*
X130187663Y-79216989D01*
X130208263Y-79248071D01*
X130233095Y-79293756D01*
X130263750Y-79356078D01*
X130301820Y-79437071D01*
X130316454Y-79468454D01*
X130346203Y-79531638D01*
X130372297Y-79586244D01*
X130393292Y-79629290D01*
X130407739Y-79657793D01*
X130414191Y-79668770D01*
X130415550Y-79668189D01*
X130425542Y-79654242D01*
X130442833Y-79624704D01*
X130465430Y-79583087D01*
X130491338Y-79532903D01*
X130507311Y-79501414D01*
X130536261Y-79446061D01*
X130558749Y-79407044D01*
X130576965Y-79381566D01*
X130593096Y-79366831D01*
X130609330Y-79360042D01*
X130627857Y-79358400D01*
X130638360Y-79358875D01*
X130654476Y-79363082D01*
X130669790Y-79373946D01*
X130686388Y-79394219D01*
X130706357Y-79426654D01*
X130731783Y-79474004D01*
X130764752Y-79539022D01*
X130774485Y-79558277D01*
X130798943Y-79604946D01*
X130819178Y-79641109D01*
X130833311Y-79663497D01*
X130839460Y-79668845D01*
X130840827Y-79665573D01*
X130850202Y-79644664D01*
X130867062Y-79607725D01*
X130889979Y-79557874D01*
X130917520Y-79498226D01*
X130948255Y-79431898D01*
X130974970Y-79374677D01*
X131004593Y-79312688D01*
X131027664Y-79266949D01*
X131045643Y-79234908D01*
X131059990Y-79214014D01*
X131072166Y-79201718D01*
X131083632Y-79195466D01*
X131093042Y-79192574D01*
X131118147Y-79192425D01*
X131145290Y-79207768D01*
X131146590Y-79208753D01*
X131168674Y-79231388D01*
X131179723Y-79253613D01*
X131179769Y-79254253D01*
X131175228Y-79271915D01*
X131162364Y-79306481D01*
X131142605Y-79354826D01*
X131117381Y-79413825D01*
X131088119Y-79480355D01*
X131056250Y-79551291D01*
X131023201Y-79623507D01*
X130990401Y-79693880D01*
X130959280Y-79759285D01*
X130931265Y-79816597D01*
X130907786Y-79862692D01*
X130890272Y-79894446D01*
X130880151Y-79908733D01*
X130845743Y-79922102D01*
X130804046Y-79915741D01*
X130798681Y-79911044D01*
X130782852Y-79888893D01*
X130760650Y-79852132D01*
X130734233Y-79804415D01*
X130705760Y-79749393D01*
X130625986Y-79590150D01*
X130552799Y-79736742D01*
X130543103Y-79756032D01*
X130516125Y-79808380D01*
X130492096Y-79853170D01*
X130473332Y-79886154D01*
X130462146Y-79903089D01*
X130461000Y-79904332D01*
X130432879Y-79919619D01*
X130397817Y-79921302D01*
X130366776Y-79908733D01*
X130364350Y-79905884D01*
X130352090Y-79885259D01*
X130332352Y-79847708D01*
X130306448Y-79795880D01*
X130275685Y-79732423D01*
X130241375Y-79659985D01*
X130204825Y-79581216D01*
X130184585Y-79537093D01*
X130147812Y-79456365D01*
X130119355Y-79392687D01*
X130098331Y-79343752D01*
X130083854Y-79307257D01*
X130075039Y-79280895D01*
X130071004Y-79262361D01*
X130070862Y-79249352D01*
X130073730Y-79239561D01*
X130088387Y-79218678D01*
X130114990Y-79198377D01*
X130115745Y-79198035D01*
X130135335Y-79191034D01*
X130152790Y-79190504D01*
X130169702Y-79198478D01*
G36*
X130169702Y-79198478D02*
G01*
X130187663Y-79216989D01*
X130208263Y-79248071D01*
X130233095Y-79293756D01*
X130263750Y-79356078D01*
X130301820Y-79437071D01*
X130316454Y-79468454D01*
X130346203Y-79531638D01*
X130372297Y-79586244D01*
X130393292Y-79629290D01*
X130407739Y-79657793D01*
X130414191Y-79668770D01*
X130415550Y-79668189D01*
X130425542Y-79654242D01*
X130442833Y-79624704D01*
X130465430Y-79583087D01*
X130491338Y-79532903D01*
X130507311Y-79501414D01*
X130536261Y-79446061D01*
X130558749Y-79407044D01*
X130576965Y-79381566D01*
X130593096Y-79366831D01*
X130609330Y-79360042D01*
X130627857Y-79358400D01*
X130638360Y-79358875D01*
X130654476Y-79363082D01*
X130669790Y-79373946D01*
X130686388Y-79394219D01*
X130706357Y-79426654D01*
X130731783Y-79474004D01*
X130764752Y-79539022D01*
X130774485Y-79558277D01*
X130798943Y-79604946D01*
X130819178Y-79641109D01*
X130833311Y-79663497D01*
X130839460Y-79668845D01*
X130840827Y-79665573D01*
X130850202Y-79644664D01*
X130867062Y-79607725D01*
X130889979Y-79557874D01*
X130917520Y-79498226D01*
X130948255Y-79431898D01*
X130974970Y-79374677D01*
X131004593Y-79312688D01*
X131027664Y-79266949D01*
X131045643Y-79234908D01*
X131059990Y-79214014D01*
X131072166Y-79201718D01*
X131083632Y-79195466D01*
X131093042Y-79192574D01*
X131118147Y-79192425D01*
X131145290Y-79207768D01*
X131146590Y-79208753D01*
X131168674Y-79231388D01*
X131179723Y-79253613D01*
X131179769Y-79254253D01*
X131175228Y-79271915D01*
X131162364Y-79306481D01*
X131142605Y-79354826D01*
X131117381Y-79413825D01*
X131088119Y-79480355D01*
X131056250Y-79551291D01*
X131023201Y-79623507D01*
X130990401Y-79693880D01*
X130959280Y-79759285D01*
X130931265Y-79816597D01*
X130907786Y-79862692D01*
X130890272Y-79894446D01*
X130880151Y-79908733D01*
X130845743Y-79922102D01*
X130804046Y-79915741D01*
X130798681Y-79911044D01*
X130782852Y-79888893D01*
X130760650Y-79852132D01*
X130734233Y-79804415D01*
X130705760Y-79749393D01*
X130625986Y-79590150D01*
X130552799Y-79736742D01*
X130543103Y-79756032D01*
X130516125Y-79808380D01*
X130492096Y-79853170D01*
X130473332Y-79886154D01*
X130462146Y-79903089D01*
X130461000Y-79904332D01*
X130432879Y-79919619D01*
X130397817Y-79921302D01*
X130366776Y-79908733D01*
X130364350Y-79905884D01*
X130352090Y-79885259D01*
X130332352Y-79847708D01*
X130306448Y-79795880D01*
X130275685Y-79732423D01*
X130241375Y-79659985D01*
X130204825Y-79581216D01*
X130184585Y-79537093D01*
X130147812Y-79456365D01*
X130119355Y-79392687D01*
X130098331Y-79343752D01*
X130083854Y-79307257D01*
X130075039Y-79280895D01*
X130071004Y-79262361D01*
X130070862Y-79249352D01*
X130073730Y-79239561D01*
X130088387Y-79218678D01*
X130114990Y-79198377D01*
X130115745Y-79198035D01*
X130135335Y-79191034D01*
X130152790Y-79190504D01*
X130169702Y-79198478D01*
G37*
X137720853Y-79189936D02*
X137787100Y-79195366D01*
X137842400Y-79204964D01*
X137893283Y-79219825D01*
X137964595Y-79252958D01*
X138015752Y-79295640D01*
X138046575Y-79347705D01*
X138056889Y-79408983D01*
X138055952Y-79440232D01*
X138050160Y-79465029D01*
X138035353Y-79486699D01*
X138007380Y-79514049D01*
X137999402Y-79521378D01*
X137975692Y-79542281D01*
X137953298Y-79559251D01*
X137929265Y-79573205D01*
X137900637Y-79585056D01*
X137864460Y-79595720D01*
X137817780Y-79606111D01*
X137757641Y-79617146D01*
X137681090Y-79629738D01*
X137585171Y-79644804D01*
X137566808Y-79647838D01*
X137504478Y-79661458D01*
X137459260Y-79677192D01*
X137432976Y-79694263D01*
X137427447Y-79711897D01*
X137430068Y-79716168D01*
X137448000Y-79731233D01*
X137476126Y-79747867D01*
X137488926Y-79753857D01*
X137510224Y-79761050D01*
X137536610Y-79765827D01*
X137572454Y-79768646D01*
X137622128Y-79769964D01*
X137690000Y-79770237D01*
X137707785Y-79770164D01*
X137775406Y-79769053D01*
X137840345Y-79766828D01*
X137895970Y-79763762D01*
X137935651Y-79760127D01*
X137971162Y-79756059D01*
X138000415Y-79755276D01*
X138019315Y-79759876D01*
X138034429Y-79770551D01*
X138038085Y-79774144D01*
X138054427Y-79805918D01*
X138053107Y-79841572D01*
X138034150Y-79872190D01*
X138013780Y-79883796D01*
X137977796Y-79896491D01*
X137935372Y-79906541D01*
X137931922Y-79907140D01*
X137889252Y-79912356D01*
X137831866Y-79916730D01*
X137766849Y-79919818D01*
X137701289Y-79921177D01*
X137685057Y-79921218D01*
X137586744Y-79918741D01*
X137506692Y-79910735D01*
X137441513Y-79896203D01*
X137387817Y-79874149D01*
X137342216Y-79843576D01*
X137301323Y-79803486D01*
X137281202Y-79777259D01*
X137269576Y-79747712D01*
X137266667Y-79707995D01*
X137266808Y-79696026D01*
X137270681Y-79663345D01*
X137283065Y-79636819D01*
X137308230Y-79605971D01*
X137329442Y-79583831D01*
X137355838Y-79561285D01*
X137385555Y-79542917D01*
X137421785Y-79527661D01*
X137467717Y-79514449D01*
X137526544Y-79502214D01*
X137601456Y-79489889D01*
X137695645Y-79476406D01*
X137740957Y-79469396D01*
X137808911Y-79454837D01*
X137858047Y-79438337D01*
X137887614Y-79420439D01*
X137896864Y-79401685D01*
X137885048Y-79382615D01*
X137851416Y-79363771D01*
X137848370Y-79362557D01*
X137802011Y-79350479D01*
X137739361Y-79342279D01*
X137665927Y-79338119D01*
X137587217Y-79338161D01*
X137508739Y-79342569D01*
X137436000Y-79351505D01*
X137432073Y-79352154D01*
X137383257Y-79359861D01*
X137351005Y-79363473D01*
X137330008Y-79362876D01*
X137314954Y-79357954D01*
X137300534Y-79348596D01*
X137299364Y-79347725D01*
X137274847Y-79317351D01*
X137270054Y-79281850D01*
X137285860Y-79247269D01*
X137290406Y-79242813D01*
X137320020Y-79227673D01*
X137367002Y-79214550D01*
X137427306Y-79203750D01*
X137496888Y-79195581D01*
X137571703Y-79190351D01*
X137647706Y-79188367D01*
X137720853Y-79189936D01*
G36*
X137720853Y-79189936D02*
G01*
X137787100Y-79195366D01*
X137842400Y-79204964D01*
X137893283Y-79219825D01*
X137964595Y-79252958D01*
X138015752Y-79295640D01*
X138046575Y-79347705D01*
X138056889Y-79408983D01*
X138055952Y-79440232D01*
X138050160Y-79465029D01*
X138035353Y-79486699D01*
X138007380Y-79514049D01*
X137999402Y-79521378D01*
X137975692Y-79542281D01*
X137953298Y-79559251D01*
X137929265Y-79573205D01*
X137900637Y-79585056D01*
X137864460Y-79595720D01*
X137817780Y-79606111D01*
X137757641Y-79617146D01*
X137681090Y-79629738D01*
X137585171Y-79644804D01*
X137566808Y-79647838D01*
X137504478Y-79661458D01*
X137459260Y-79677192D01*
X137432976Y-79694263D01*
X137427447Y-79711897D01*
X137430068Y-79716168D01*
X137448000Y-79731233D01*
X137476126Y-79747867D01*
X137488926Y-79753857D01*
X137510224Y-79761050D01*
X137536610Y-79765827D01*
X137572454Y-79768646D01*
X137622128Y-79769964D01*
X137690000Y-79770237D01*
X137707785Y-79770164D01*
X137775406Y-79769053D01*
X137840345Y-79766828D01*
X137895970Y-79763762D01*
X137935651Y-79760127D01*
X137971162Y-79756059D01*
X138000415Y-79755276D01*
X138019315Y-79759876D01*
X138034429Y-79770551D01*
X138038085Y-79774144D01*
X138054427Y-79805918D01*
X138053107Y-79841572D01*
X138034150Y-79872190D01*
X138013780Y-79883796D01*
X137977796Y-79896491D01*
X137935372Y-79906541D01*
X137931922Y-79907140D01*
X137889252Y-79912356D01*
X137831866Y-79916730D01*
X137766849Y-79919818D01*
X137701289Y-79921177D01*
X137685057Y-79921218D01*
X137586744Y-79918741D01*
X137506692Y-79910735D01*
X137441513Y-79896203D01*
X137387817Y-79874149D01*
X137342216Y-79843576D01*
X137301323Y-79803486D01*
X137281202Y-79777259D01*
X137269576Y-79747712D01*
X137266667Y-79707995D01*
X137266808Y-79696026D01*
X137270681Y-79663345D01*
X137283065Y-79636819D01*
X137308230Y-79605971D01*
X137329442Y-79583831D01*
X137355838Y-79561285D01*
X137385555Y-79542917D01*
X137421785Y-79527661D01*
X137467717Y-79514449D01*
X137526544Y-79502214D01*
X137601456Y-79489889D01*
X137695645Y-79476406D01*
X137740957Y-79469396D01*
X137808911Y-79454837D01*
X137858047Y-79438337D01*
X137887614Y-79420439D01*
X137896864Y-79401685D01*
X137885048Y-79382615D01*
X137851416Y-79363771D01*
X137848370Y-79362557D01*
X137802011Y-79350479D01*
X137739361Y-79342279D01*
X137665927Y-79338119D01*
X137587217Y-79338161D01*
X137508739Y-79342569D01*
X137436000Y-79351505D01*
X137432073Y-79352154D01*
X137383257Y-79359861D01*
X137351005Y-79363473D01*
X137330008Y-79362876D01*
X137314954Y-79357954D01*
X137300534Y-79348596D01*
X137299364Y-79347725D01*
X137274847Y-79317351D01*
X137270054Y-79281850D01*
X137285860Y-79247269D01*
X137290406Y-79242813D01*
X137320020Y-79227673D01*
X137367002Y-79214550D01*
X137427306Y-79203750D01*
X137496888Y-79195581D01*
X137571703Y-79190351D01*
X137647706Y-79188367D01*
X137720853Y-79189936D01*
G37*
X133868711Y-74882033D02*
X133964268Y-74899523D01*
X134128558Y-74944564D01*
X134282589Y-75007656D01*
X134428509Y-75089915D01*
X134568466Y-75192457D01*
X134704608Y-75316399D01*
X134748473Y-75361661D01*
X134860758Y-75493865D01*
X134953972Y-75631832D01*
X135030719Y-75779750D01*
X135093603Y-75941803D01*
X135097420Y-75953391D01*
X135147507Y-76139392D01*
X135180899Y-76335521D01*
X135197584Y-76537568D01*
X135197551Y-76741325D01*
X135180791Y-76942581D01*
X135147292Y-77137128D01*
X135097044Y-77320756D01*
X135053190Y-77438053D01*
X134975348Y-77600951D01*
X134881828Y-77754866D01*
X134774822Y-77896671D01*
X134656519Y-78023239D01*
X134529111Y-78131441D01*
X134451606Y-78184120D01*
X134324725Y-78253750D01*
X134187243Y-78312468D01*
X134045716Y-78357587D01*
X133906702Y-78386422D01*
X133892597Y-78388106D01*
X133849153Y-78391434D01*
X133791723Y-78394275D01*
X133726122Y-78396373D01*
X133658167Y-78397468D01*
X133531378Y-78395140D01*
X133383673Y-78382136D01*
X133245779Y-78357133D01*
X133112014Y-78319318D01*
X133088562Y-78310889D01*
X133040612Y-78291408D01*
X132984140Y-78266473D01*
X132922379Y-78237722D01*
X132858563Y-78206790D01*
X132795926Y-78175315D01*
X132737703Y-78144934D01*
X132687127Y-78117283D01*
X132647433Y-78093999D01*
X132621854Y-78076718D01*
X132613625Y-78067079D01*
X132615076Y-78063984D01*
X132626250Y-78044079D01*
X132647134Y-78008420D01*
X132676265Y-77959459D01*
X132712181Y-77899646D01*
X132753420Y-77831433D01*
X132798517Y-77757271D01*
X132979785Y-77460008D01*
X133026315Y-77504539D01*
X133117723Y-77582865D01*
X133231334Y-77657439D01*
X133349122Y-77711474D01*
X133469559Y-77744290D01*
X133591117Y-77755211D01*
X133632585Y-77753868D01*
X133750080Y-77735612D01*
X133860089Y-77696617D01*
X133961430Y-77637670D01*
X134052921Y-77559557D01*
X134133380Y-77463064D01*
X134201627Y-77348978D01*
X134217908Y-77314724D01*
X134263982Y-77191240D01*
X134299106Y-77052918D01*
X134323197Y-76903561D01*
X134336173Y-76746973D01*
X134337949Y-76586956D01*
X134328443Y-76427314D01*
X134307572Y-76271850D01*
X134275252Y-76124366D01*
X134231399Y-75988667D01*
X134193982Y-75902076D01*
X134129185Y-75788688D01*
X134053772Y-75695070D01*
X133967418Y-75620959D01*
X133869795Y-75566094D01*
X133760577Y-75530212D01*
X133639439Y-75513051D01*
X133570038Y-75511880D01*
X133447168Y-75526141D01*
X133331664Y-75561241D01*
X133224953Y-75616682D01*
X133128464Y-75691964D01*
X133112720Y-75706440D01*
X133082150Y-75732962D01*
X133059809Y-75750138D01*
X133049691Y-75754787D01*
X133047706Y-75752597D01*
X133033241Y-75733721D01*
X133009400Y-75700397D01*
X132978029Y-75655380D01*
X132940974Y-75601425D01*
X132900083Y-75541285D01*
X132857202Y-75477718D01*
X132814178Y-75413476D01*
X132772857Y-75351315D01*
X132735086Y-75293991D01*
X132702712Y-75244257D01*
X132677582Y-75204868D01*
X132661542Y-75178580D01*
X132656439Y-75168147D01*
X132661050Y-75163941D01*
X132680267Y-75158933D01*
X132689838Y-75156386D01*
X132717809Y-75145249D01*
X132759448Y-75126802D01*
X132810995Y-75102725D01*
X132868690Y-75074699D01*
X132879957Y-75069154D01*
X133057687Y-74989889D01*
X133227490Y-74930385D01*
X133391430Y-74890245D01*
X133551571Y-74869071D01*
X133709977Y-74866466D01*
X133868711Y-74882033D01*
G36*
X133868711Y-74882033D02*
G01*
X133964268Y-74899523D01*
X134128558Y-74944564D01*
X134282589Y-75007656D01*
X134428509Y-75089915D01*
X134568466Y-75192457D01*
X134704608Y-75316399D01*
X134748473Y-75361661D01*
X134860758Y-75493865D01*
X134953972Y-75631832D01*
X135030719Y-75779750D01*
X135093603Y-75941803D01*
X135097420Y-75953391D01*
X135147507Y-76139392D01*
X135180899Y-76335521D01*
X135197584Y-76537568D01*
X135197551Y-76741325D01*
X135180791Y-76942581D01*
X135147292Y-77137128D01*
X135097044Y-77320756D01*
X135053190Y-77438053D01*
X134975348Y-77600951D01*
X134881828Y-77754866D01*
X134774822Y-77896671D01*
X134656519Y-78023239D01*
X134529111Y-78131441D01*
X134451606Y-78184120D01*
X134324725Y-78253750D01*
X134187243Y-78312468D01*
X134045716Y-78357587D01*
X133906702Y-78386422D01*
X133892597Y-78388106D01*
X133849153Y-78391434D01*
X133791723Y-78394275D01*
X133726122Y-78396373D01*
X133658167Y-78397468D01*
X133531378Y-78395140D01*
X133383673Y-78382136D01*
X133245779Y-78357133D01*
X133112014Y-78319318D01*
X133088562Y-78310889D01*
X133040612Y-78291408D01*
X132984140Y-78266473D01*
X132922379Y-78237722D01*
X132858563Y-78206790D01*
X132795926Y-78175315D01*
X132737703Y-78144934D01*
X132687127Y-78117283D01*
X132647433Y-78093999D01*
X132621854Y-78076718D01*
X132613625Y-78067079D01*
X132615076Y-78063984D01*
X132626250Y-78044079D01*
X132647134Y-78008420D01*
X132676265Y-77959459D01*
X132712181Y-77899646D01*
X132753420Y-77831433D01*
X132798517Y-77757271D01*
X132979785Y-77460008D01*
X133026315Y-77504539D01*
X133117723Y-77582865D01*
X133231334Y-77657439D01*
X133349122Y-77711474D01*
X133469559Y-77744290D01*
X133591117Y-77755211D01*
X133632585Y-77753868D01*
X133750080Y-77735612D01*
X133860089Y-77696617D01*
X133961430Y-77637670D01*
X134052921Y-77559557D01*
X134133380Y-77463064D01*
X134201627Y-77348978D01*
X134217908Y-77314724D01*
X134263982Y-77191240D01*
X134299106Y-77052918D01*
X134323197Y-76903561D01*
X134336173Y-76746973D01*
X134337949Y-76586956D01*
X134328443Y-76427314D01*
X134307572Y-76271850D01*
X134275252Y-76124366D01*
X134231399Y-75988667D01*
X134193982Y-75902076D01*
X134129185Y-75788688D01*
X134053772Y-75695070D01*
X133967418Y-75620959D01*
X133869795Y-75566094D01*
X133760577Y-75530212D01*
X133639439Y-75513051D01*
X133570038Y-75511880D01*
X133447168Y-75526141D01*
X133331664Y-75561241D01*
X133224953Y-75616682D01*
X133128464Y-75691964D01*
X133112720Y-75706440D01*
X133082150Y-75732962D01*
X133059809Y-75750138D01*
X133049691Y-75754787D01*
X133047706Y-75752597D01*
X133033241Y-75733721D01*
X133009400Y-75700397D01*
X132978029Y-75655380D01*
X132940974Y-75601425D01*
X132900083Y-75541285D01*
X132857202Y-75477718D01*
X132814178Y-75413476D01*
X132772857Y-75351315D01*
X132735086Y-75293991D01*
X132702712Y-75244257D01*
X132677582Y-75204868D01*
X132661542Y-75178580D01*
X132656439Y-75168147D01*
X132661050Y-75163941D01*
X132680267Y-75158933D01*
X132689838Y-75156386D01*
X132717809Y-75145249D01*
X132759448Y-75126802D01*
X132810995Y-75102725D01*
X132868690Y-75074699D01*
X132879957Y-75069154D01*
X133057687Y-74989889D01*
X133227490Y-74930385D01*
X133391430Y-74890245D01*
X133551571Y-74869071D01*
X133709977Y-74866466D01*
X133868711Y-74882033D01*
G37*
X130065994Y-77162711D02*
X130065268Y-77240158D01*
X130056689Y-77391594D01*
X130037833Y-77528283D01*
X130007837Y-77654276D01*
X129965836Y-77773625D01*
X129910969Y-77890381D01*
X129844167Y-78001179D01*
X129753363Y-78114739D01*
X129649708Y-78210211D01*
X129533887Y-78287073D01*
X129406586Y-78344797D01*
X129268489Y-78382858D01*
X129230793Y-78388666D01*
X129151752Y-78394396D01*
X129063629Y-78394583D01*
X128974236Y-78389539D01*
X128891384Y-78379578D01*
X128822887Y-78365012D01*
X128792035Y-78355364D01*
X128714730Y-78325123D01*
X128637679Y-78287617D01*
X128568200Y-78246614D01*
X128513615Y-78205879D01*
X128490916Y-78186505D01*
X128468201Y-78168662D01*
X128456779Y-78161778D01*
X128455537Y-78163424D01*
X128452728Y-78181205D01*
X128450776Y-78214370D01*
X128450045Y-78257733D01*
X128450045Y-78353689D01*
X127591896Y-78353689D01*
X127626161Y-78292974D01*
X127631355Y-78283868D01*
X127639715Y-78269249D01*
X127647288Y-78255173D01*
X127654112Y-78240540D01*
X127660227Y-78224249D01*
X127665673Y-78205198D01*
X127670487Y-78182286D01*
X127674708Y-78154413D01*
X127678377Y-78120478D01*
X127681531Y-78079379D01*
X127684211Y-78030015D01*
X127686454Y-77971286D01*
X127688299Y-77902090D01*
X127689787Y-77821326D01*
X127690955Y-77727894D01*
X127691844Y-77620692D01*
X127692491Y-77498620D01*
X127692936Y-77360576D01*
X127693218Y-77205459D01*
X127693375Y-77032168D01*
X127693448Y-76839603D01*
X127693474Y-76626662D01*
X127693485Y-76490530D01*
X128495200Y-76490530D01*
X128495200Y-77640721D01*
X128565756Y-77687089D01*
X128606417Y-77710791D01*
X128660546Y-77736639D01*
X128709689Y-77754829D01*
X128773165Y-77770551D01*
X128869331Y-77781541D01*
X128953900Y-77773365D01*
X129027219Y-77745805D01*
X129089637Y-77698642D01*
X129141502Y-77631658D01*
X129183160Y-77544633D01*
X129214962Y-77437350D01*
X129217545Y-77425009D01*
X129226000Y-77363772D01*
X129231663Y-77286692D01*
X129234576Y-77199002D01*
X129234783Y-77105934D01*
X129232330Y-77012720D01*
X129227261Y-76924594D01*
X129219619Y-76846788D01*
X129209448Y-76784533D01*
X129208167Y-76778666D01*
X129179126Y-76668121D01*
X129144610Y-76577575D01*
X129103456Y-76504953D01*
X129054499Y-76448181D01*
X128996574Y-76405184D01*
X128964620Y-76389615D01*
X128891784Y-76370722D01*
X128810443Y-76367465D01*
X128725319Y-76379389D01*
X128641133Y-76406040D01*
X128562608Y-76446962D01*
X128495200Y-76490530D01*
X127693485Y-76490530D01*
X127693493Y-76392245D01*
X127693689Y-74707378D01*
X128599017Y-74707378D01*
X128574585Y-74744067D01*
X128568318Y-74753647D01*
X128542208Y-74799981D01*
X128524469Y-74847102D01*
X128512908Y-74902251D01*
X128505331Y-74972667D01*
X128504839Y-74979650D01*
X128503062Y-75017641D01*
X128501444Y-75071576D01*
X128499999Y-75138703D01*
X128498740Y-75216271D01*
X128497680Y-75301528D01*
X128496829Y-75391724D01*
X128496203Y-75484107D01*
X128495812Y-75575925D01*
X128495670Y-75664427D01*
X128495790Y-75746862D01*
X128496183Y-75820479D01*
X128496862Y-75882526D01*
X128497841Y-75930251D01*
X128499132Y-75960904D01*
X128500747Y-75971733D01*
X128508957Y-75967333D01*
X128530647Y-75952362D01*
X128560014Y-75930448D01*
X128608879Y-75896236D01*
X128697125Y-75849714D01*
X128795916Y-75816046D01*
X128908510Y-75794231D01*
X129038164Y-75783265D01*
X129130670Y-75782219D01*
X129252011Y-75792014D01*
X129362099Y-75816174D01*
X129465389Y-75855785D01*
X129566338Y-75911932D01*
X129611503Y-75942883D01*
X129716911Y-76034115D01*
X129808538Y-76143106D01*
X129886332Y-76269726D01*
X129950241Y-76413845D01*
X130000214Y-76575332D01*
X130036198Y-76754059D01*
X130058143Y-76949895D01*
X130063900Y-77105934D01*
X130065994Y-77162711D01*
G36*
X130065994Y-77162711D02*
G01*
X130065268Y-77240158D01*
X130056689Y-77391594D01*
X130037833Y-77528283D01*
X130007837Y-77654276D01*
X129965836Y-77773625D01*
X129910969Y-77890381D01*
X129844167Y-78001179D01*
X129753363Y-78114739D01*
X129649708Y-78210211D01*
X129533887Y-78287073D01*
X129406586Y-78344797D01*
X129268489Y-78382858D01*
X129230793Y-78388666D01*
X129151752Y-78394396D01*
X129063629Y-78394583D01*
X128974236Y-78389539D01*
X128891384Y-78379578D01*
X128822887Y-78365012D01*
X128792035Y-78355364D01*
X128714730Y-78325123D01*
X128637679Y-78287617D01*
X128568200Y-78246614D01*
X128513615Y-78205879D01*
X128490916Y-78186505D01*
X128468201Y-78168662D01*
X128456779Y-78161778D01*
X128455537Y-78163424D01*
X128452728Y-78181205D01*
X128450776Y-78214370D01*
X128450045Y-78257733D01*
X128450045Y-78353689D01*
X127591896Y-78353689D01*
X127626161Y-78292974D01*
X127631355Y-78283868D01*
X127639715Y-78269249D01*
X127647288Y-78255173D01*
X127654112Y-78240540D01*
X127660227Y-78224249D01*
X127665673Y-78205198D01*
X127670487Y-78182286D01*
X127674708Y-78154413D01*
X127678377Y-78120478D01*
X127681531Y-78079379D01*
X127684211Y-78030015D01*
X127686454Y-77971286D01*
X127688299Y-77902090D01*
X127689787Y-77821326D01*
X127690955Y-77727894D01*
X127691844Y-77620692D01*
X127692491Y-77498620D01*
X127692936Y-77360576D01*
X127693218Y-77205459D01*
X127693375Y-77032168D01*
X127693448Y-76839603D01*
X127693474Y-76626662D01*
X127693485Y-76490530D01*
X128495200Y-76490530D01*
X128495200Y-77640721D01*
X128565756Y-77687089D01*
X128606417Y-77710791D01*
X128660546Y-77736639D01*
X128709689Y-77754829D01*
X128773165Y-77770551D01*
X128869331Y-77781541D01*
X128953900Y-77773365D01*
X129027219Y-77745805D01*
X129089637Y-77698642D01*
X129141502Y-77631658D01*
X129183160Y-77544633D01*
X129214962Y-77437350D01*
X129217545Y-77425009D01*
X129226000Y-77363772D01*
X129231663Y-77286692D01*
X129234576Y-77199002D01*
X129234783Y-77105934D01*
X129232330Y-77012720D01*
X129227261Y-76924594D01*
X129219619Y-76846788D01*
X129209448Y-76784533D01*
X129208167Y-76778666D01*
X129179126Y-76668121D01*
X129144610Y-76577575D01*
X129103456Y-76504953D01*
X129054499Y-76448181D01*
X128996574Y-76405184D01*
X128964620Y-76389615D01*
X128891784Y-76370722D01*
X128810443Y-76367465D01*
X128725319Y-76379389D01*
X128641133Y-76406040D01*
X128562608Y-76446962D01*
X128495200Y-76490530D01*
X127693485Y-76490530D01*
X127693493Y-76392245D01*
X127693689Y-74707378D01*
X128599017Y-74707378D01*
X128574585Y-74744067D01*
X128568318Y-74753647D01*
X128542208Y-74799981D01*
X128524469Y-74847102D01*
X128512908Y-74902251D01*
X128505331Y-74972667D01*
X128504839Y-74979650D01*
X128503062Y-75017641D01*
X128501444Y-75071576D01*
X128499999Y-75138703D01*
X128498740Y-75216271D01*
X128497680Y-75301528D01*
X128496829Y-75391724D01*
X128496203Y-75484107D01*
X128495812Y-75575925D01*
X128495670Y-75664427D01*
X128495790Y-75746862D01*
X128496183Y-75820479D01*
X128496862Y-75882526D01*
X128497841Y-75930251D01*
X128499132Y-75960904D01*
X128500747Y-75971733D01*
X128508957Y-75967333D01*
X128530647Y-75952362D01*
X128560014Y-75930448D01*
X128608879Y-75896236D01*
X128697125Y-75849714D01*
X128795916Y-75816046D01*
X128908510Y-75794231D01*
X129038164Y-75783265D01*
X129130670Y-75782219D01*
X129252011Y-75792014D01*
X129362099Y-75816174D01*
X129465389Y-75855785D01*
X129566338Y-75911932D01*
X129611503Y-75942883D01*
X129716911Y-76034115D01*
X129808538Y-76143106D01*
X129886332Y-76269726D01*
X129950241Y-76413845D01*
X130000214Y-76575332D01*
X130036198Y-76754059D01*
X130058143Y-76949895D01*
X130063900Y-77105934D01*
X130065994Y-77162711D01*
G37*
X132607755Y-77563467D02*
X132607261Y-77597363D01*
X132603632Y-77672202D01*
X132596022Y-77734401D01*
X132583688Y-77790984D01*
X132539313Y-77917076D01*
X132476400Y-78031679D01*
X132396238Y-78132568D01*
X132299740Y-78218924D01*
X132187822Y-78289932D01*
X132061397Y-78344776D01*
X131921378Y-78382638D01*
X131885149Y-78388351D01*
X131806155Y-78394313D01*
X131717841Y-78394646D01*
X131628075Y-78389659D01*
X131544722Y-78379666D01*
X131475651Y-78364978D01*
X131389187Y-78334749D01*
X131279286Y-78280057D01*
X131181956Y-78212543D01*
X131119867Y-78161556D01*
X131116605Y-78257622D01*
X131113343Y-78353689D01*
X130690450Y-78353689D01*
X130679543Y-78353686D01*
X130585056Y-78353380D01*
X130498331Y-78352616D01*
X130421837Y-78351451D01*
X130358043Y-78349942D01*
X130309418Y-78348147D01*
X130278433Y-78346121D01*
X130267556Y-78343922D01*
X130267578Y-78343463D01*
X130274614Y-78327910D01*
X130290434Y-78305071D01*
X130294734Y-78299638D01*
X130305777Y-78285606D01*
X130315311Y-78272186D01*
X130323461Y-78257722D01*
X130330352Y-78240556D01*
X130336111Y-78219034D01*
X130340862Y-78191498D01*
X130344731Y-78156292D01*
X130347844Y-78111760D01*
X130350325Y-78056246D01*
X130352300Y-77988093D01*
X130353894Y-77905645D01*
X130355234Y-77807246D01*
X130356444Y-77691239D01*
X130357649Y-77555968D01*
X130358595Y-77444586D01*
X131159378Y-77444586D01*
X131159378Y-77640462D01*
X131204048Y-77696973D01*
X131216785Y-77712212D01*
X131263604Y-77754844D01*
X131324255Y-77790672D01*
X131334897Y-77795850D01*
X131373676Y-77812745D01*
X131408692Y-77822909D01*
X131448722Y-77828325D01*
X131502541Y-77830978D01*
X131520648Y-77831383D01*
X131596011Y-77828540D01*
X131656743Y-77816620D01*
X131708452Y-77794037D01*
X131756746Y-77759211D01*
X131761803Y-77754798D01*
X131810272Y-77699160D01*
X131838459Y-77635333D01*
X131847752Y-77560282D01*
X131840520Y-77488693D01*
X131815796Y-77425645D01*
X131771249Y-77367758D01*
X131716319Y-77320808D01*
X131643894Y-77280961D01*
X131557340Y-77253263D01*
X131454670Y-77237096D01*
X131333894Y-77231842D01*
X131325007Y-77231857D01*
X131269660Y-77232655D01*
X131222736Y-77234488D01*
X131188953Y-77237111D01*
X131173028Y-77240274D01*
X131168943Y-77246741D01*
X131164572Y-77268875D01*
X131161604Y-77307988D01*
X131159914Y-77365939D01*
X131159378Y-77444586D01*
X130358595Y-77444586D01*
X130358975Y-77399778D01*
X130360228Y-77257012D01*
X130361651Y-77111942D01*
X130363176Y-76986027D01*
X130364933Y-76877436D01*
X130367051Y-76784334D01*
X130369660Y-76704891D01*
X130372890Y-76637273D01*
X130376869Y-76579649D01*
X130381728Y-76530185D01*
X130387597Y-76487050D01*
X130394604Y-76448410D01*
X130402880Y-76412434D01*
X130412554Y-76377289D01*
X130423756Y-76341142D01*
X130436616Y-76302161D01*
X130452090Y-76259091D01*
X130494994Y-76166871D01*
X130548735Y-76087099D01*
X130617576Y-76012965D01*
X130695185Y-75949405D01*
X130799761Y-75887725D01*
X130919244Y-75840202D01*
X131054508Y-75806567D01*
X131206426Y-75786552D01*
X131375872Y-75779889D01*
X131433890Y-75780287D01*
X131499398Y-75782335D01*
X131560693Y-75786704D01*
X131622097Y-75794035D01*
X131687932Y-75804969D01*
X131762520Y-75820147D01*
X131850184Y-75840209D01*
X131955245Y-75865797D01*
X131983806Y-75872820D01*
X132059054Y-75890776D01*
X132129388Y-75906820D01*
X132190567Y-75920028D01*
X132238354Y-75929474D01*
X132268511Y-75934231D01*
X132296783Y-75937910D01*
X132323060Y-75943187D01*
X132333059Y-75947942D01*
X132329952Y-75956781D01*
X132319194Y-75984072D01*
X132301864Y-76026906D01*
X132279126Y-76082425D01*
X132252147Y-76147772D01*
X132222090Y-76220089D01*
X132215493Y-76235879D01*
X132176907Y-76326484D01*
X132145768Y-76396217D01*
X132121917Y-76445405D01*
X132105198Y-76474374D01*
X132095454Y-76483452D01*
X132087766Y-76481405D01*
X132061415Y-76471760D01*
X132022982Y-76456190D01*
X131977822Y-76436815D01*
X131883293Y-76398814D01*
X131746480Y-76357780D01*
X131605289Y-76332612D01*
X131567314Y-76328611D01*
X131464059Y-76326447D01*
X131376952Y-76339622D01*
X131305129Y-76368756D01*
X131247731Y-76414466D01*
X131203896Y-76477372D01*
X131172762Y-76558092D01*
X131153470Y-76657245D01*
X131146050Y-76716224D01*
X131307936Y-76709445D01*
X131434495Y-76707813D01*
X131585951Y-76714194D01*
X131734396Y-76728777D01*
X131870578Y-76750882D01*
X131935245Y-76765821D01*
X132067490Y-76808741D01*
X132189762Y-76865340D01*
X132299685Y-76934017D01*
X132394883Y-77013170D01*
X132472980Y-77101196D01*
X132531599Y-77196493D01*
X132555595Y-77248864D01*
X132581232Y-77319590D01*
X132597478Y-77390812D01*
X132605822Y-77469712D01*
X132607690Y-77560282D01*
X132607755Y-77563467D01*
G36*
X132607755Y-77563467D02*
G01*
X132607261Y-77597363D01*
X132603632Y-77672202D01*
X132596022Y-77734401D01*
X132583688Y-77790984D01*
X132539313Y-77917076D01*
X132476400Y-78031679D01*
X132396238Y-78132568D01*
X132299740Y-78218924D01*
X132187822Y-78289932D01*
X132061397Y-78344776D01*
X131921378Y-78382638D01*
X131885149Y-78388351D01*
X131806155Y-78394313D01*
X131717841Y-78394646D01*
X131628075Y-78389659D01*
X131544722Y-78379666D01*
X131475651Y-78364978D01*
X131389187Y-78334749D01*
X131279286Y-78280057D01*
X131181956Y-78212543D01*
X131119867Y-78161556D01*
X131116605Y-78257622D01*
X131113343Y-78353689D01*
X130690450Y-78353689D01*
X130679543Y-78353686D01*
X130585056Y-78353380D01*
X130498331Y-78352616D01*
X130421837Y-78351451D01*
X130358043Y-78349942D01*
X130309418Y-78348147D01*
X130278433Y-78346121D01*
X130267556Y-78343922D01*
X130267578Y-78343463D01*
X130274614Y-78327910D01*
X130290434Y-78305071D01*
X130294734Y-78299638D01*
X130305777Y-78285606D01*
X130315311Y-78272186D01*
X130323461Y-78257722D01*
X130330352Y-78240556D01*
X130336111Y-78219034D01*
X130340862Y-78191498D01*
X130344731Y-78156292D01*
X130347844Y-78111760D01*
X130350325Y-78056246D01*
X130352300Y-77988093D01*
X130353894Y-77905645D01*
X130355234Y-77807246D01*
X130356444Y-77691239D01*
X130357649Y-77555968D01*
X130358595Y-77444586D01*
X131159378Y-77444586D01*
X131159378Y-77640462D01*
X131204048Y-77696973D01*
X131216785Y-77712212D01*
X131263604Y-77754844D01*
X131324255Y-77790672D01*
X131334897Y-77795850D01*
X131373676Y-77812745D01*
X131408692Y-77822909D01*
X131448722Y-77828325D01*
X131502541Y-77830978D01*
X131520648Y-77831383D01*
X131596011Y-77828540D01*
X131656743Y-77816620D01*
X131708452Y-77794037D01*
X131756746Y-77759211D01*
X131761803Y-77754798D01*
X131810272Y-77699160D01*
X131838459Y-77635333D01*
X131847752Y-77560282D01*
X131840520Y-77488693D01*
X131815796Y-77425645D01*
X131771249Y-77367758D01*
X131716319Y-77320808D01*
X131643894Y-77280961D01*
X131557340Y-77253263D01*
X131454670Y-77237096D01*
X131333894Y-77231842D01*
X131325007Y-77231857D01*
X131269660Y-77232655D01*
X131222736Y-77234488D01*
X131188953Y-77237111D01*
X131173028Y-77240274D01*
X131168943Y-77246741D01*
X131164572Y-77268875D01*
X131161604Y-77307988D01*
X131159914Y-77365939D01*
X131159378Y-77444586D01*
X130358595Y-77444586D01*
X130358975Y-77399778D01*
X130360228Y-77257012D01*
X130361651Y-77111942D01*
X130363176Y-76986027D01*
X130364933Y-76877436D01*
X130367051Y-76784334D01*
X130369660Y-76704891D01*
X130372890Y-76637273D01*
X130376869Y-76579649D01*
X130381728Y-76530185D01*
X130387597Y-76487050D01*
X130394604Y-76448410D01*
X130402880Y-76412434D01*
X130412554Y-76377289D01*
X130423756Y-76341142D01*
X130436616Y-76302161D01*
X130452090Y-76259091D01*
X130494994Y-76166871D01*
X130548735Y-76087099D01*
X130617576Y-76012965D01*
X130695185Y-75949405D01*
X130799761Y-75887725D01*
X130919244Y-75840202D01*
X131054508Y-75806567D01*
X131206426Y-75786552D01*
X131375872Y-75779889D01*
X131433890Y-75780287D01*
X131499398Y-75782335D01*
X131560693Y-75786704D01*
X131622097Y-75794035D01*
X131687932Y-75804969D01*
X131762520Y-75820147D01*
X131850184Y-75840209D01*
X131955245Y-75865797D01*
X131983806Y-75872820D01*
X132059054Y-75890776D01*
X132129388Y-75906820D01*
X132190567Y-75920028D01*
X132238354Y-75929474D01*
X132268511Y-75934231D01*
X132296783Y-75937910D01*
X132323060Y-75943187D01*
X132333059Y-75947942D01*
X132329952Y-75956781D01*
X132319194Y-75984072D01*
X132301864Y-76026906D01*
X132279126Y-76082425D01*
X132252147Y-76147772D01*
X132222090Y-76220089D01*
X132215493Y-76235879D01*
X132176907Y-76326484D01*
X132145768Y-76396217D01*
X132121917Y-76445405D01*
X132105198Y-76474374D01*
X132095454Y-76483452D01*
X132087766Y-76481405D01*
X132061415Y-76471760D01*
X132022982Y-76456190D01*
X131977822Y-76436815D01*
X131883293Y-76398814D01*
X131746480Y-76357780D01*
X131605289Y-76332612D01*
X131567314Y-76328611D01*
X131464059Y-76326447D01*
X131376952Y-76339622D01*
X131305129Y-76368756D01*
X131247731Y-76414466D01*
X131203896Y-76477372D01*
X131172762Y-76558092D01*
X131153470Y-76657245D01*
X131146050Y-76716224D01*
X131307936Y-76709445D01*
X131434495Y-76707813D01*
X131585951Y-76714194D01*
X131734396Y-76728777D01*
X131870578Y-76750882D01*
X131935245Y-76765821D01*
X132067490Y-76808741D01*
X132189762Y-76865340D01*
X132299685Y-76934017D01*
X132394883Y-77013170D01*
X132472980Y-77101196D01*
X132531599Y-77196493D01*
X132555595Y-77248864D01*
X132581232Y-77319590D01*
X132597478Y-77390812D01*
X132605822Y-77469712D01*
X132607690Y-77560282D01*
X132607755Y-77563467D01*
G37*
X140155614Y-75031792D02*
X140156059Y-75163011D01*
X140156362Y-75310216D01*
X140156548Y-75474349D01*
X140156642Y-75656352D01*
X140156671Y-75857165D01*
X140156661Y-76077732D01*
X140156636Y-76318992D01*
X140156622Y-76581889D01*
X140156622Y-76624040D01*
X140156646Y-76884668D01*
X140156685Y-77123796D01*
X140156708Y-77342360D01*
X140156687Y-77541295D01*
X140156593Y-77721535D01*
X140156395Y-77884015D01*
X140156063Y-78029670D01*
X140155569Y-78159434D01*
X140154883Y-78274243D01*
X140153976Y-78375030D01*
X140152817Y-78462730D01*
X140151378Y-78538279D01*
X140149629Y-78602611D01*
X140147540Y-78656661D01*
X140145083Y-78701363D01*
X140142227Y-78737652D01*
X140138943Y-78766463D01*
X140135202Y-78788731D01*
X140130974Y-78805390D01*
X140126229Y-78817375D01*
X140120939Y-78825621D01*
X140115073Y-78831062D01*
X140108602Y-78834634D01*
X140101497Y-78837270D01*
X140093728Y-78839906D01*
X140085266Y-78843477D01*
X140080908Y-78845145D01*
X140072395Y-78847111D01*
X140059694Y-78848911D01*
X140041885Y-78850555D01*
X140018049Y-78852047D01*
X139987266Y-78853397D01*
X139948617Y-78854611D01*
X139901182Y-78855697D01*
X139844043Y-78856661D01*
X139776279Y-78857511D01*
X139696971Y-78858253D01*
X139605199Y-78858897D01*
X139500044Y-78859447D01*
X139380587Y-78859913D01*
X139245908Y-78860300D01*
X139095088Y-78860616D01*
X138927206Y-78860869D01*
X138741345Y-78861066D01*
X138536583Y-78861213D01*
X138312002Y-78861318D01*
X138066682Y-78861389D01*
X137799704Y-78861432D01*
X137761321Y-78861437D01*
X137495922Y-78861480D01*
X137252050Y-78861525D01*
X137028783Y-78861548D01*
X136825196Y-78861524D01*
X136640367Y-78861430D01*
X136473373Y-78861243D01*
X136323290Y-78860939D01*
X136189196Y-78860494D01*
X136070166Y-78859885D01*
X135965279Y-78859089D01*
X135873610Y-78858080D01*
X135794237Y-78856837D01*
X135726237Y-78855335D01*
X135668686Y-78853551D01*
X135620662Y-78851461D01*
X135581240Y-78849042D01*
X135549499Y-78846270D01*
X135524514Y-78843121D01*
X135505364Y-78839572D01*
X135491123Y-78835598D01*
X135480871Y-78831178D01*
X135473682Y-78826286D01*
X135468635Y-78820900D01*
X135464805Y-78814996D01*
X135461271Y-78808549D01*
X135457108Y-78801537D01*
X135456025Y-78799687D01*
X135453813Y-78794180D01*
X135451786Y-78785868D01*
X135449938Y-78773809D01*
X135448261Y-78757063D01*
X135446745Y-78734687D01*
X135445383Y-78705740D01*
X135444167Y-78669280D01*
X135443089Y-78624367D01*
X135442140Y-78570057D01*
X135441312Y-78505410D01*
X135440597Y-78429484D01*
X135439987Y-78341338D01*
X135439942Y-78332493D01*
X135731378Y-78332493D01*
X135735260Y-78333765D01*
X135758520Y-78335791D01*
X135800874Y-78337626D01*
X135860132Y-78339227D01*
X135934107Y-78340549D01*
X136020610Y-78341548D01*
X136117452Y-78342180D01*
X136222445Y-78342400D01*
X136920651Y-78342400D01*
X138075090Y-78342400D01*
X138074456Y-78266200D01*
X138075574Y-78224160D01*
X138081304Y-78188334D01*
X138093890Y-78150772D01*
X138115568Y-78102577D01*
X138118789Y-78095897D01*
X138144188Y-78046359D01*
X138170996Y-77998369D01*
X138193917Y-77961466D01*
X138198485Y-77954834D01*
X138220516Y-77923593D01*
X138252693Y-77878654D01*
X138293457Y-77822147D01*
X138341245Y-77756204D01*
X138394498Y-77682957D01*
X138451655Y-77604536D01*
X138511155Y-77523072D01*
X138571437Y-77440698D01*
X138630940Y-77359544D01*
X138688105Y-77281742D01*
X138741370Y-77209423D01*
X138789174Y-77144718D01*
X138829957Y-77089759D01*
X138862158Y-77046676D01*
X138884216Y-77017602D01*
X138894571Y-77004667D01*
X138899044Y-77000351D01*
X138903236Y-76998312D01*
X138906643Y-77000926D01*
X138909325Y-77009986D01*
X138911341Y-77027285D01*
X138912748Y-77054614D01*
X138913605Y-77093765D01*
X138913970Y-77146533D01*
X138913903Y-77214707D01*
X138913460Y-77300082D01*
X138912702Y-77404449D01*
X138911685Y-77529600D01*
X138911308Y-77574300D01*
X138910169Y-77695395D01*
X138908972Y-77796688D01*
X138907636Y-77880262D01*
X138906077Y-77948204D01*
X138904215Y-78002599D01*
X138901966Y-78045532D01*
X138899248Y-78079089D01*
X138895979Y-78105355D01*
X138892078Y-78126416D01*
X138887461Y-78144357D01*
X138879192Y-78170770D01*
X138855583Y-78232772D01*
X138829685Y-78285573D01*
X138804535Y-78322645D01*
X138803339Y-78324075D01*
X138801168Y-78328424D01*
X138803328Y-78332026D01*
X138811644Y-78334951D01*
X138827940Y-78337269D01*
X138854041Y-78339051D01*
X138891771Y-78340367D01*
X138942956Y-78341286D01*
X139009420Y-78341878D01*
X139092987Y-78342215D01*
X139195483Y-78342365D01*
X139318732Y-78342400D01*
X139850296Y-78342400D01*
X139811523Y-78284783D01*
X139805432Y-78275893D01*
X139794976Y-78261069D01*
X139785579Y-78247422D01*
X139777183Y-78233765D01*
X139769733Y-78218911D01*
X139763173Y-78201670D01*
X139757446Y-78180855D01*
X139752495Y-78155280D01*
X139748266Y-78123755D01*
X139744701Y-78085093D01*
X139741744Y-78038107D01*
X139739340Y-77981608D01*
X139737431Y-77914409D01*
X139735962Y-77835322D01*
X139734876Y-77743160D01*
X139734118Y-77636734D01*
X139733630Y-77514857D01*
X139733358Y-77376341D01*
X139733243Y-77219999D01*
X139733231Y-77044642D01*
X139733265Y-76849082D01*
X139733289Y-76632133D01*
X139733280Y-76509513D01*
X139733243Y-76304447D01*
X139733227Y-76120116D01*
X139733288Y-75955334D01*
X139733484Y-75808916D01*
X139733870Y-75679674D01*
X139734505Y-75566422D01*
X139735444Y-75467975D01*
X139736745Y-75383144D01*
X139738464Y-75310744D01*
X139740659Y-75249589D01*
X139743385Y-75198492D01*
X139746701Y-75156267D01*
X139750662Y-75121727D01*
X139755325Y-75093686D01*
X139760747Y-75070958D01*
X139766986Y-75052356D01*
X139774097Y-75036693D01*
X139782138Y-75022784D01*
X139791166Y-75009441D01*
X139801236Y-74995479D01*
X139812407Y-74979711D01*
X139852197Y-74921867D01*
X138792314Y-74921867D01*
X138830311Y-74984966D01*
X138844993Y-75010005D01*
X138859531Y-75037586D01*
X138871627Y-75065700D01*
X138881532Y-75096551D01*
X138889494Y-75132344D01*
X138895761Y-75175283D01*
X138900582Y-75227574D01*
X138904206Y-75291419D01*
X138906881Y-75369025D01*
X138908857Y-75462594D01*
X138910382Y-75574333D01*
X138911704Y-75706445D01*
X138912613Y-75826434D01*
X138913020Y-75943063D01*
X138912767Y-76038531D01*
X138911857Y-76112556D01*
X138910293Y-76164855D01*
X138908079Y-76195149D01*
X138905220Y-76203156D01*
X138902161Y-76199858D01*
X138884006Y-76178408D01*
X138854275Y-76141889D01*
X138814639Y-76092442D01*
X138766771Y-76032207D01*
X138712343Y-75963327D01*
X138653027Y-75887943D01*
X138590495Y-75808196D01*
X138526421Y-75726228D01*
X138462475Y-75644180D01*
X138400331Y-75564194D01*
X138341661Y-75488411D01*
X138288137Y-75418973D01*
X138241430Y-75358021D01*
X138203214Y-75307696D01*
X138175161Y-75270140D01*
X138158943Y-75247495D01*
X138113635Y-75175212D01*
X138073661Y-75095463D01*
X138052130Y-75027188D01*
X138048827Y-74969844D01*
X138054116Y-74921867D01*
X136922356Y-74922117D01*
X136961867Y-74952722D01*
X136971248Y-74960089D01*
X137034183Y-75014438D01*
X137102997Y-75082259D01*
X137179596Y-75165516D01*
X137265888Y-75266178D01*
X137283052Y-75286847D01*
X137323833Y-75336409D01*
X137373588Y-75397326D01*
X137430955Y-75467898D01*
X137494569Y-75546424D01*
X137563069Y-75631204D01*
X137635090Y-75720537D01*
X137709270Y-75812722D01*
X137724517Y-75831702D01*
X137784246Y-75906060D01*
X137858653Y-75998848D01*
X137931131Y-76089388D01*
X138000314Y-76175978D01*
X138064841Y-76256918D01*
X138123347Y-76330506D01*
X138174470Y-76395044D01*
X138216847Y-76448829D01*
X138249115Y-76490162D01*
X138269910Y-76517342D01*
X138277869Y-76528668D01*
X138276111Y-76532771D01*
X138263230Y-76553334D01*
X138238885Y-76589561D01*
X138204247Y-76639824D01*
X138160486Y-76702492D01*
X138108775Y-76775936D01*
X138050284Y-76858527D01*
X137986184Y-76948636D01*
X137917646Y-77044631D01*
X137845843Y-77144885D01*
X137771944Y-77247768D01*
X137697121Y-77351650D01*
X137622545Y-77454901D01*
X137549387Y-77555892D01*
X137478819Y-77652994D01*
X137412011Y-77744577D01*
X137350135Y-77829011D01*
X137294361Y-77904667D01*
X137245862Y-77969916D01*
X137205807Y-78023128D01*
X137175369Y-78062673D01*
X137154944Y-78088026D01*
X137108899Y-78142295D01*
X137058612Y-78198775D01*
X137011815Y-78248669D01*
X136920651Y-78342400D01*
X136222445Y-78342400D01*
X136291356Y-78342349D01*
X136389607Y-78342091D01*
X136479030Y-78341637D01*
X136557333Y-78341010D01*
X136622223Y-78340235D01*
X136671411Y-78339335D01*
X136702604Y-78338334D01*
X136713511Y-78337257D01*
X136712322Y-78334037D01*
X136702176Y-78316452D01*
X136685040Y-78290158D01*
X136676540Y-78277691D01*
X136667329Y-78263622D01*
X136659233Y-78249351D01*
X136652185Y-78233479D01*
X136646117Y-78214609D01*
X136640961Y-78191341D01*
X136636651Y-78162278D01*
X136633119Y-78126021D01*
X136630297Y-78081170D01*
X136628118Y-78026328D01*
X136626514Y-77960097D01*
X136625419Y-77881077D01*
X136624765Y-77787871D01*
X136624484Y-77679079D01*
X136624509Y-77553303D01*
X136624772Y-77409145D01*
X136625206Y-77245207D01*
X136625745Y-77060089D01*
X136626279Y-76881232D01*
X136626805Y-76722374D01*
X136627350Y-76583316D01*
X136627945Y-76462665D01*
X136628619Y-76359028D01*
X136629403Y-76271011D01*
X136630326Y-76197223D01*
X136631419Y-76136269D01*
X136632712Y-76086757D01*
X136634235Y-76047293D01*
X136636019Y-76016484D01*
X136638092Y-75992938D01*
X136640486Y-75975260D01*
X136643230Y-75962059D01*
X136646356Y-75951940D01*
X136649892Y-75943511D01*
X136653791Y-75935375D01*
X136673438Y-75898544D01*
X136692225Y-75868391D01*
X136693272Y-75866908D01*
X136707602Y-75844659D01*
X136713511Y-75831702D01*
X136712504Y-75831249D01*
X136695305Y-75829803D01*
X136658656Y-75828480D01*
X136604962Y-75827316D01*
X136536630Y-75826347D01*
X136456064Y-75825611D01*
X136365670Y-75825142D01*
X136267853Y-75824978D01*
X135822195Y-75824978D01*
X135819120Y-77001845D01*
X135816045Y-78178711D01*
X135789407Y-78237622D01*
X135777485Y-78262183D01*
X135760246Y-78292434D01*
X135747074Y-78309560D01*
X135739076Y-78317591D01*
X135731378Y-78332493D01*
X135439942Y-78332493D01*
X135439474Y-78240029D01*
X135439050Y-78124617D01*
X135438706Y-77994160D01*
X135438434Y-77847716D01*
X135438227Y-77684344D01*
X135438076Y-77503101D01*
X135437972Y-77303048D01*
X135437908Y-77083241D01*
X135437876Y-76842739D01*
X135437867Y-76580602D01*
X135437867Y-74389031D01*
X135476249Y-74350649D01*
X135503355Y-74326911D01*
X135530253Y-74315111D01*
X135566560Y-74312267D01*
X135618489Y-74312267D01*
X135618489Y-74400206D01*
X135620427Y-74450102D01*
X135639199Y-74560523D01*
X135676217Y-74661987D01*
X135729369Y-74753152D01*
X135796546Y-74832673D01*
X135875638Y-74899205D01*
X135964534Y-74951406D01*
X136061125Y-74987930D01*
X136163300Y-75007434D01*
X136268950Y-75008573D01*
X136375964Y-74990005D01*
X136482232Y-74950384D01*
X136579219Y-74892516D01*
X136664293Y-74817684D01*
X136733015Y-74729615D01*
X136783918Y-74630616D01*
X136815535Y-74522993D01*
X136826400Y-74409054D01*
X136826400Y-74312267D01*
X138446753Y-74312267D01*
X138657897Y-74312280D01*
X138862020Y-74312330D01*
X139045686Y-74312430D01*
X139209991Y-74312592D01*
X139356029Y-74312829D01*
X139484894Y-74313153D01*
X139597683Y-74313575D01*
X139695488Y-74314109D01*
X139779404Y-74314767D01*
X139850527Y-74315561D01*
X139909950Y-74316504D01*
X139958768Y-74317608D01*
X139998077Y-74318884D01*
X140028969Y-74320347D01*
X140052541Y-74322007D01*
X140069886Y-74323878D01*
X140082099Y-74325972D01*
X140090275Y-74328300D01*
X140095508Y-74330876D01*
X140101504Y-74334445D01*
X140108279Y-74337978D01*
X140114478Y-74341488D01*
X140120126Y-74345918D01*
X140125247Y-74352208D01*
X140129869Y-74361301D01*
X140134015Y-74374139D01*
X140137713Y-74391662D01*
X140140987Y-74414813D01*
X140143863Y-74444534D01*
X140146367Y-74481765D01*
X140148524Y-74527449D01*
X140150360Y-74582527D01*
X140151900Y-74647941D01*
X140153170Y-74724633D01*
X140154195Y-74813544D01*
X140155001Y-74915617D01*
X140155034Y-74921867D01*
X140155614Y-75031792D01*
G36*
X140155614Y-75031792D02*
G01*
X140156059Y-75163011D01*
X140156362Y-75310216D01*
X140156548Y-75474349D01*
X140156642Y-75656352D01*
X140156671Y-75857165D01*
X140156661Y-76077732D01*
X140156636Y-76318992D01*
X140156622Y-76581889D01*
X140156622Y-76624040D01*
X140156646Y-76884668D01*
X140156685Y-77123796D01*
X140156708Y-77342360D01*
X140156687Y-77541295D01*
X140156593Y-77721535D01*
X140156395Y-77884015D01*
X140156063Y-78029670D01*
X140155569Y-78159434D01*
X140154883Y-78274243D01*
X140153976Y-78375030D01*
X140152817Y-78462730D01*
X140151378Y-78538279D01*
X140149629Y-78602611D01*
X140147540Y-78656661D01*
X140145083Y-78701363D01*
X140142227Y-78737652D01*
X140138943Y-78766463D01*
X140135202Y-78788731D01*
X140130974Y-78805390D01*
X140126229Y-78817375D01*
X140120939Y-78825621D01*
X140115073Y-78831062D01*
X140108602Y-78834634D01*
X140101497Y-78837270D01*
X140093728Y-78839906D01*
X140085266Y-78843477D01*
X140080908Y-78845145D01*
X140072395Y-78847111D01*
X140059694Y-78848911D01*
X140041885Y-78850555D01*
X140018049Y-78852047D01*
X139987266Y-78853397D01*
X139948617Y-78854611D01*
X139901182Y-78855697D01*
X139844043Y-78856661D01*
X139776279Y-78857511D01*
X139696971Y-78858253D01*
X139605199Y-78858897D01*
X139500044Y-78859447D01*
X139380587Y-78859913D01*
X139245908Y-78860300D01*
X139095088Y-78860616D01*
X138927206Y-78860869D01*
X138741345Y-78861066D01*
X138536583Y-78861213D01*
X138312002Y-78861318D01*
X138066682Y-78861389D01*
X137799704Y-78861432D01*
X137761321Y-78861437D01*
X137495922Y-78861480D01*
X137252050Y-78861525D01*
X137028783Y-78861548D01*
X136825196Y-78861524D01*
X136640367Y-78861430D01*
X136473373Y-78861243D01*
X136323290Y-78860939D01*
X136189196Y-78860494D01*
X136070166Y-78859885D01*
X135965279Y-78859089D01*
X135873610Y-78858080D01*
X135794237Y-78856837D01*
X135726237Y-78855335D01*
X135668686Y-78853551D01*
X135620662Y-78851461D01*
X135581240Y-78849042D01*
X135549499Y-78846270D01*
X135524514Y-78843121D01*
X135505364Y-78839572D01*
X135491123Y-78835598D01*
X135480871Y-78831178D01*
X135473682Y-78826286D01*
X135468635Y-78820900D01*
X135464805Y-78814996D01*
X135461271Y-78808549D01*
X135457108Y-78801537D01*
X135456025Y-78799687D01*
X135453813Y-78794180D01*
X135451786Y-78785868D01*
X135449938Y-78773809D01*
X135448261Y-78757063D01*
X135446745Y-78734687D01*
X135445383Y-78705740D01*
X135444167Y-78669280D01*
X135443089Y-78624367D01*
X135442140Y-78570057D01*
X135441312Y-78505410D01*
X135440597Y-78429484D01*
X135439987Y-78341338D01*
X135439942Y-78332493D01*
X135731378Y-78332493D01*
X135735260Y-78333765D01*
X135758520Y-78335791D01*
X135800874Y-78337626D01*
X135860132Y-78339227D01*
X135934107Y-78340549D01*
X136020610Y-78341548D01*
X136117452Y-78342180D01*
X136222445Y-78342400D01*
X136920651Y-78342400D01*
X138075090Y-78342400D01*
X138074456Y-78266200D01*
X138075574Y-78224160D01*
X138081304Y-78188334D01*
X138093890Y-78150772D01*
X138115568Y-78102577D01*
X138118789Y-78095897D01*
X138144188Y-78046359D01*
X138170996Y-77998369D01*
X138193917Y-77961466D01*
X138198485Y-77954834D01*
X138220516Y-77923593D01*
X138252693Y-77878654D01*
X138293457Y-77822147D01*
X138341245Y-77756204D01*
X138394498Y-77682957D01*
X138451655Y-77604536D01*
X138511155Y-77523072D01*
X138571437Y-77440698D01*
X138630940Y-77359544D01*
X138688105Y-77281742D01*
X138741370Y-77209423D01*
X138789174Y-77144718D01*
X138829957Y-77089759D01*
X138862158Y-77046676D01*
X138884216Y-77017602D01*
X138894571Y-77004667D01*
X138899044Y-77000351D01*
X138903236Y-76998312D01*
X138906643Y-77000926D01*
X138909325Y-77009986D01*
X138911341Y-77027285D01*
X138912748Y-77054614D01*
X138913605Y-77093765D01*
X138913970Y-77146533D01*
X138913903Y-77214707D01*
X138913460Y-77300082D01*
X138912702Y-77404449D01*
X138911685Y-77529600D01*
X138911308Y-77574300D01*
X138910169Y-77695395D01*
X138908972Y-77796688D01*
X138907636Y-77880262D01*
X138906077Y-77948204D01*
X138904215Y-78002599D01*
X138901966Y-78045532D01*
X138899248Y-78079089D01*
X138895979Y-78105355D01*
X138892078Y-78126416D01*
X138887461Y-78144357D01*
X138879192Y-78170770D01*
X138855583Y-78232772D01*
X138829685Y-78285573D01*
X138804535Y-78322645D01*
X138803339Y-78324075D01*
X138801168Y-78328424D01*
X138803328Y-78332026D01*
X138811644Y-78334951D01*
X138827940Y-78337269D01*
X138854041Y-78339051D01*
X138891771Y-78340367D01*
X138942956Y-78341286D01*
X139009420Y-78341878D01*
X139092987Y-78342215D01*
X139195483Y-78342365D01*
X139318732Y-78342400D01*
X139850296Y-78342400D01*
X139811523Y-78284783D01*
X139805432Y-78275893D01*
X139794976Y-78261069D01*
X139785579Y-78247422D01*
X139777183Y-78233765D01*
X139769733Y-78218911D01*
X139763173Y-78201670D01*
X139757446Y-78180855D01*
X139752495Y-78155280D01*
X139748266Y-78123755D01*
X139744701Y-78085093D01*
X139741744Y-78038107D01*
X139739340Y-77981608D01*
X139737431Y-77914409D01*
X139735962Y-77835322D01*
X139734876Y-77743160D01*
X139734118Y-77636734D01*
X139733630Y-77514857D01*
X139733358Y-77376341D01*
X139733243Y-77219999D01*
X139733231Y-77044642D01*
X139733265Y-76849082D01*
X139733289Y-76632133D01*
X139733280Y-76509513D01*
X139733243Y-76304447D01*
X139733227Y-76120116D01*
X139733288Y-75955334D01*
X139733484Y-75808916D01*
X139733870Y-75679674D01*
X139734505Y-75566422D01*
X139735444Y-75467975D01*
X139736745Y-75383144D01*
X139738464Y-75310744D01*
X139740659Y-75249589D01*
X139743385Y-75198492D01*
X139746701Y-75156267D01*
X139750662Y-75121727D01*
X139755325Y-75093686D01*
X139760747Y-75070958D01*
X139766986Y-75052356D01*
X139774097Y-75036693D01*
X139782138Y-75022784D01*
X139791166Y-75009441D01*
X139801236Y-74995479D01*
X139812407Y-74979711D01*
X139852197Y-74921867D01*
X138792314Y-74921867D01*
X138830311Y-74984966D01*
X138844993Y-75010005D01*
X138859531Y-75037586D01*
X138871627Y-75065700D01*
X138881532Y-75096551D01*
X138889494Y-75132344D01*
X138895761Y-75175283D01*
X138900582Y-75227574D01*
X138904206Y-75291419D01*
X138906881Y-75369025D01*
X138908857Y-75462594D01*
X138910382Y-75574333D01*
X138911704Y-75706445D01*
X138912613Y-75826434D01*
X138913020Y-75943063D01*
X138912767Y-76038531D01*
X138911857Y-76112556D01*
X138910293Y-76164855D01*
X138908079Y-76195149D01*
X138905220Y-76203156D01*
X138902161Y-76199858D01*
X138884006Y-76178408D01*
X138854275Y-76141889D01*
X138814639Y-76092442D01*
X138766771Y-76032207D01*
X138712343Y-75963327D01*
X138653027Y-75887943D01*
X138590495Y-75808196D01*
X138526421Y-75726228D01*
X138462475Y-75644180D01*
X138400331Y-75564194D01*
X138341661Y-75488411D01*
X138288137Y-75418973D01*
X138241430Y-75358021D01*
X138203214Y-75307696D01*
X138175161Y-75270140D01*
X138158943Y-75247495D01*
X138113635Y-75175212D01*
X138073661Y-75095463D01*
X138052130Y-75027188D01*
X138048827Y-74969844D01*
X138054116Y-74921867D01*
X136922356Y-74922117D01*
X136961867Y-74952722D01*
X136971248Y-74960089D01*
X137034183Y-75014438D01*
X137102997Y-75082259D01*
X137179596Y-75165516D01*
X137265888Y-75266178D01*
X137283052Y-75286847D01*
X137323833Y-75336409D01*
X137373588Y-75397326D01*
X137430955Y-75467898D01*
X137494569Y-75546424D01*
X137563069Y-75631204D01*
X137635090Y-75720537D01*
X137709270Y-75812722D01*
X137724517Y-75831702D01*
X137784246Y-75906060D01*
X137858653Y-75998848D01*
X137931131Y-76089388D01*
X138000314Y-76175978D01*
X138064841Y-76256918D01*
X138123347Y-76330506D01*
X138174470Y-76395044D01*
X138216847Y-76448829D01*
X138249115Y-76490162D01*
X138269910Y-76517342D01*
X138277869Y-76528668D01*
X138276111Y-76532771D01*
X138263230Y-76553334D01*
X138238885Y-76589561D01*
X138204247Y-76639824D01*
X138160486Y-76702492D01*
X138108775Y-76775936D01*
X138050284Y-76858527D01*
X137986184Y-76948636D01*
X137917646Y-77044631D01*
X137845843Y-77144885D01*
X137771944Y-77247768D01*
X137697121Y-77351650D01*
X137622545Y-77454901D01*
X137549387Y-77555892D01*
X137478819Y-77652994D01*
X137412011Y-77744577D01*
X137350135Y-77829011D01*
X137294361Y-77904667D01*
X137245862Y-77969916D01*
X137205807Y-78023128D01*
X137175369Y-78062673D01*
X137154944Y-78088026D01*
X137108899Y-78142295D01*
X137058612Y-78198775D01*
X137011815Y-78248669D01*
X136920651Y-78342400D01*
X136222445Y-78342400D01*
X136291356Y-78342349D01*
X136389607Y-78342091D01*
X136479030Y-78341637D01*
X136557333Y-78341010D01*
X136622223Y-78340235D01*
X136671411Y-78339335D01*
X136702604Y-78338334D01*
X136713511Y-78337257D01*
X136712322Y-78334037D01*
X136702176Y-78316452D01*
X136685040Y-78290158D01*
X136676540Y-78277691D01*
X136667329Y-78263622D01*
X136659233Y-78249351D01*
X136652185Y-78233479D01*
X136646117Y-78214609D01*
X136640961Y-78191341D01*
X136636651Y-78162278D01*
X136633119Y-78126021D01*
X136630297Y-78081170D01*
X136628118Y-78026328D01*
X136626514Y-77960097D01*
X136625419Y-77881077D01*
X136624765Y-77787871D01*
X136624484Y-77679079D01*
X136624509Y-77553303D01*
X136624772Y-77409145D01*
X136625206Y-77245207D01*
X136625745Y-77060089D01*
X136626279Y-76881232D01*
X136626805Y-76722374D01*
X136627350Y-76583316D01*
X136627945Y-76462665D01*
X136628619Y-76359028D01*
X136629403Y-76271011D01*
X136630326Y-76197223D01*
X136631419Y-76136269D01*
X136632712Y-76086757D01*
X136634235Y-76047293D01*
X136636019Y-76016484D01*
X136638092Y-75992938D01*
X136640486Y-75975260D01*
X136643230Y-75962059D01*
X136646356Y-75951940D01*
X136649892Y-75943511D01*
X136653791Y-75935375D01*
X136673438Y-75898544D01*
X136692225Y-75868391D01*
X136693272Y-75866908D01*
X136707602Y-75844659D01*
X136713511Y-75831702D01*
X136712504Y-75831249D01*
X136695305Y-75829803D01*
X136658656Y-75828480D01*
X136604962Y-75827316D01*
X136536630Y-75826347D01*
X136456064Y-75825611D01*
X136365670Y-75825142D01*
X136267853Y-75824978D01*
X135822195Y-75824978D01*
X135819120Y-77001845D01*
X135816045Y-78178711D01*
X135789407Y-78237622D01*
X135777485Y-78262183D01*
X135760246Y-78292434D01*
X135747074Y-78309560D01*
X135739076Y-78317591D01*
X135731378Y-78332493D01*
X135439942Y-78332493D01*
X135439474Y-78240029D01*
X135439050Y-78124617D01*
X135438706Y-77994160D01*
X135438434Y-77847716D01*
X135438227Y-77684344D01*
X135438076Y-77503101D01*
X135437972Y-77303048D01*
X135437908Y-77083241D01*
X135437876Y-76842739D01*
X135437867Y-76580602D01*
X135437867Y-74389031D01*
X135476249Y-74350649D01*
X135503355Y-74326911D01*
X135530253Y-74315111D01*
X135566560Y-74312267D01*
X135618489Y-74312267D01*
X135618489Y-74400206D01*
X135620427Y-74450102D01*
X135639199Y-74560523D01*
X135676217Y-74661987D01*
X135729369Y-74753152D01*
X135796546Y-74832673D01*
X135875638Y-74899205D01*
X135964534Y-74951406D01*
X136061125Y-74987930D01*
X136163300Y-75007434D01*
X136268950Y-75008573D01*
X136375964Y-74990005D01*
X136482232Y-74950384D01*
X136579219Y-74892516D01*
X136664293Y-74817684D01*
X136733015Y-74729615D01*
X136783918Y-74630616D01*
X136815535Y-74522993D01*
X136826400Y-74409054D01*
X136826400Y-74312267D01*
X138446753Y-74312267D01*
X138657897Y-74312280D01*
X138862020Y-74312330D01*
X139045686Y-74312430D01*
X139209991Y-74312592D01*
X139356029Y-74312829D01*
X139484894Y-74313153D01*
X139597683Y-74313575D01*
X139695488Y-74314109D01*
X139779404Y-74314767D01*
X139850527Y-74315561D01*
X139909950Y-74316504D01*
X139958768Y-74317608D01*
X139998077Y-74318884D01*
X140028969Y-74320347D01*
X140052541Y-74322007D01*
X140069886Y-74323878D01*
X140082099Y-74325972D01*
X140090275Y-74328300D01*
X140095508Y-74330876D01*
X140101504Y-74334445D01*
X140108279Y-74337978D01*
X140114478Y-74341488D01*
X140120126Y-74345918D01*
X140125247Y-74352208D01*
X140129869Y-74361301D01*
X140134015Y-74374139D01*
X140137713Y-74391662D01*
X140140987Y-74414813D01*
X140143863Y-74444534D01*
X140146367Y-74481765D01*
X140148524Y-74527449D01*
X140150360Y-74582527D01*
X140151900Y-74647941D01*
X140153170Y-74724633D01*
X140154195Y-74813544D01*
X140155001Y-74915617D01*
X140155034Y-74921867D01*
X140155614Y-75031792D01*
G37*
%TD*%
M02*
