%TF.GenerationSoftware,KiCad,Pcbnew,9.0.6*%
%TF.CreationDate,2026-05-08T20:49:19+05:30*%
%TF.ProjectId,low voltage indicator,6c6f7720-766f-46c7-9461-676520696e64,vNOV 2025*%
%TF.SameCoordinates,Original*%
%TF.FileFunction,Drillmap*%
%TF.FilePolarity,Positive*%
%FSLAX45Y45*%
G04 Gerber Fmt 4.5, Leading zero omitted, Abs format (unit mm)*
G04 Created by KiCad (PCBNEW 9.0.6) date 2026-05-08 20:49:19*
%MOMM*%
%LPD*%
G01*
G04 APERTURE LIST*
%ADD10C,0.050000*%
%ADD11C,0.200000*%
%ADD12C,0.100000*%
%ADD13C,0.220000*%
G04 APERTURE END LIST*
D10*
X15617000Y-5410000D02*
G75*
G02*
X15917000Y-5710000I0J-300000D01*
G01*
X15617000Y-9512000D02*
X10590000Y-9512000D01*
X10290000Y-5710000D02*
G75*
G02*
X10590000Y-5410000I300000J0D01*
G01*
X10590000Y-9512000D02*
G75*
G02*
X10290000Y-9212000I0J300000D01*
G01*
X10290000Y-9212000D02*
X10290000Y-5710000D01*
X15917000Y-9212000D02*
G75*
G02*
X15617000Y-9512000I-300000J0D01*
G01*
X10590000Y-5410000D02*
X15617000Y-5410000D01*
X15917000Y-5710000D02*
X15917000Y-9212000D01*
D11*
D12*
X10405000Y-9192000D02*
X10445000Y-9232000D01*
X10445000Y-9192000D02*
X10405000Y-9232000D01*
X10453327Y-9075327D02*
X10493327Y-9115327D01*
X10493327Y-9075327D02*
X10453327Y-9115327D01*
X10453327Y-9308673D02*
X10493327Y-9348673D01*
X10493327Y-9308673D02*
X10453327Y-9348673D01*
X10570000Y-9027000D02*
X10610000Y-9067000D01*
X10610000Y-9027000D02*
X10570000Y-9067000D01*
X10570000Y-9357000D02*
X10610000Y-9397000D01*
X10610000Y-9357000D02*
X10570000Y-9397000D01*
X10686673Y-9075327D02*
X10726673Y-9115327D01*
X10726673Y-9075327D02*
X10686673Y-9115327D01*
X10686673Y-9308673D02*
X10726673Y-9348673D01*
X10726673Y-9308673D02*
X10686673Y-9348673D01*
X10735000Y-9192000D02*
X10775000Y-9232000D01*
X10775000Y-9192000D02*
X10735000Y-9232000D01*
X15432000Y-5690000D02*
X15472000Y-5730000D01*
X15472000Y-5690000D02*
X15432000Y-5730000D01*
X15480327Y-5573327D02*
X15520327Y-5613327D01*
X15520327Y-5573327D02*
X15480327Y-5613327D01*
X15480327Y-5806673D02*
X15520327Y-5846673D01*
X15520327Y-5806673D02*
X15480327Y-5846673D01*
X15597000Y-5525000D02*
X15637000Y-5565000D01*
X15637000Y-5525000D02*
X15597000Y-5565000D01*
X15597000Y-5855000D02*
X15637000Y-5895000D01*
X15637000Y-5855000D02*
X15597000Y-5895000D01*
X15713673Y-5573327D02*
X15753673Y-5613327D01*
X15753673Y-5573327D02*
X15713673Y-5613327D01*
X15713673Y-5806673D02*
X15753673Y-5846673D01*
X15753673Y-5806673D02*
X15713673Y-5846673D01*
X15762000Y-5690000D02*
X15802000Y-5730000D01*
X15802000Y-5690000D02*
X15762000Y-5730000D01*
X13157000Y-8066000D02*
G75*
G02*
X13087000Y-8066000I-35000J0D01*
G01*
X13087000Y-8066000D02*
G75*
G02*
X13157000Y-8066000I35000J0D01*
G01*
X13157000Y-8305000D02*
G75*
G02*
X13087000Y-8305000I-35000J0D01*
G01*
X13087000Y-8305000D02*
G75*
G02*
X13157000Y-8305000I35000J0D01*
G01*
X13157000Y-8552000D02*
G75*
G02*
X13087000Y-8552000I-35000J0D01*
G01*
X13087000Y-8552000D02*
G75*
G02*
X13157000Y-8552000I35000J0D01*
G01*
X13665000Y-8066000D02*
G75*
G02*
X13595000Y-8066000I-35000J0D01*
G01*
X13595000Y-8066000D02*
G75*
G02*
X13665000Y-8066000I35000J0D01*
G01*
X13665000Y-8305000D02*
G75*
G02*
X13595000Y-8305000I-35000J0D01*
G01*
X13595000Y-8305000D02*
G75*
G02*
X13665000Y-8305000I35000J0D01*
G01*
X13665000Y-8552000D02*
G75*
G02*
X13595000Y-8552000I-35000J0D01*
G01*
X13595000Y-8552000D02*
G75*
G02*
X13665000Y-8552000I35000J0D01*
G01*
X12539000Y-7849500D02*
X12539000Y-7924500D01*
X12501500Y-7887000D02*
X12576500Y-7887000D01*
X12666000Y-7849500D02*
X12666000Y-7924500D01*
X12628500Y-7887000D02*
X12703500Y-7887000D01*
X12793000Y-7849500D02*
X12793000Y-7924500D01*
X12755500Y-7887000D02*
X12830500Y-7887000D01*
X13279052Y-6131052D02*
X13279052Y-6070948D01*
X13218948Y-6070948D01*
X13218948Y-6131052D01*
X13279052Y-6131052D01*
X13279052Y-7655052D02*
X13279052Y-7594948D01*
X13218948Y-7594948D01*
X13218948Y-7655052D01*
X13279052Y-7655052D01*
X14041052Y-6131052D02*
X14041052Y-6070948D01*
X13980948Y-6070948D01*
X13980948Y-6131052D01*
X14041052Y-6131052D01*
X14041052Y-6893052D02*
X14041052Y-6832948D01*
X13980948Y-6832948D01*
X13980948Y-6893052D01*
X14041052Y-6893052D01*
X14041052Y-7401052D02*
X14041052Y-7340948D01*
X13980948Y-7340948D01*
X13980948Y-7401052D01*
X14041052Y-7401052D01*
X14041052Y-7655052D02*
X14041052Y-7594948D01*
X13980948Y-7594948D01*
X13980948Y-7655052D01*
X14041052Y-7655052D01*
X10621000Y-6420000D02*
X10671000Y-6370000D01*
X10621000Y-6320000D01*
X10571000Y-6370000D01*
X10621000Y-6420000D01*
X12121000Y-6420000D02*
X12171000Y-6370000D01*
X12121000Y-6320000D01*
X12071000Y-6370000D01*
X12121000Y-6420000D01*
X14819000Y-6751232D02*
X14869000Y-6701232D01*
X14819000Y-6651232D01*
X14769000Y-6701232D01*
X14819000Y-6751232D01*
X14819000Y-7251232D02*
X14869000Y-7201232D01*
X14819000Y-7151232D01*
X14769000Y-7201232D01*
X14819000Y-7251232D01*
X14829000Y-8382000D02*
X14879000Y-8332000D01*
X14829000Y-8282000D01*
X14779000Y-8332000D01*
X14829000Y-8382000D01*
X14879000Y-8462000D02*
X14879000Y-8202000D01*
X14779000Y-8202000D02*
G75*
G02*
X14879000Y-8202000I50000J0D01*
G01*
X14779000Y-8202000D02*
X14779000Y-8462000D01*
X14779000Y-8462000D02*
G75*
G03*
X14879000Y-8462000I50000J0D01*
G01*
X15459000Y-8382000D02*
X15509000Y-8332000D01*
X15459000Y-8282000D01*
X15409000Y-8332000D01*
X15459000Y-8382000D01*
X15509000Y-8442000D02*
X15509000Y-8222000D01*
X15409000Y-8222000D02*
G75*
G02*
X15509000Y-8222000I50000J0D01*
G01*
X15409000Y-8222000D02*
X15409000Y-8442000D01*
X15409000Y-8442000D02*
G75*
G03*
X15509000Y-8442000I50000J0D01*
G01*
D13*
X10480000Y-9102000D02*
X10700000Y-9322000D01*
X10700000Y-9102000D02*
X10480000Y-9322000D01*
X10700000Y-9212000D02*
G75*
G02*
X10480000Y-9212000I-110000J0D01*
G01*
X10480000Y-9212000D02*
G75*
G02*
X10700000Y-9212000I110000J0D01*
G01*
X15507000Y-5600000D02*
X15727000Y-5820000D01*
X15727000Y-5600000D02*
X15507000Y-5820000D01*
X15727000Y-5710000D02*
G75*
G02*
X15507000Y-5710000I-110000J0D01*
G01*
X15507000Y-5710000D02*
G75*
G02*
X15727000Y-5710000I110000J0D01*
G01*
D11*
X10548277Y-9825984D02*
X10548277Y-9625984D01*
X10548277Y-9625984D02*
X10595896Y-9625984D01*
X10595896Y-9625984D02*
X10624467Y-9635508D01*
X10624467Y-9635508D02*
X10643515Y-9654555D01*
X10643515Y-9654555D02*
X10653039Y-9673603D01*
X10653039Y-9673603D02*
X10662563Y-9711698D01*
X10662563Y-9711698D02*
X10662563Y-9740270D01*
X10662563Y-9740270D02*
X10653039Y-9778365D01*
X10653039Y-9778365D02*
X10643515Y-9797412D01*
X10643515Y-9797412D02*
X10624467Y-9816460D01*
X10624467Y-9816460D02*
X10595896Y-9825984D01*
X10595896Y-9825984D02*
X10548277Y-9825984D01*
X10748277Y-9825984D02*
X10748277Y-9692650D01*
X10748277Y-9730746D02*
X10757801Y-9711698D01*
X10757801Y-9711698D02*
X10767324Y-9702174D01*
X10767324Y-9702174D02*
X10786372Y-9692650D01*
X10786372Y-9692650D02*
X10805420Y-9692650D01*
X10872086Y-9825984D02*
X10872086Y-9692650D01*
X10872086Y-9625984D02*
X10862563Y-9635508D01*
X10862563Y-9635508D02*
X10872086Y-9645031D01*
X10872086Y-9645031D02*
X10881610Y-9635508D01*
X10881610Y-9635508D02*
X10872086Y-9625984D01*
X10872086Y-9625984D02*
X10872086Y-9645031D01*
X10995896Y-9825984D02*
X10976848Y-9816460D01*
X10976848Y-9816460D02*
X10967324Y-9797412D01*
X10967324Y-9797412D02*
X10967324Y-9625984D01*
X11100658Y-9825984D02*
X11081610Y-9816460D01*
X11081610Y-9816460D02*
X11072086Y-9797412D01*
X11072086Y-9797412D02*
X11072086Y-9625984D01*
X11329229Y-9825984D02*
X11329229Y-9625984D01*
X11329229Y-9625984D02*
X11395896Y-9768841D01*
X11395896Y-9768841D02*
X11462562Y-9625984D01*
X11462562Y-9625984D02*
X11462562Y-9825984D01*
X11643515Y-9825984D02*
X11643515Y-9721222D01*
X11643515Y-9721222D02*
X11633991Y-9702174D01*
X11633991Y-9702174D02*
X11614943Y-9692650D01*
X11614943Y-9692650D02*
X11576848Y-9692650D01*
X11576848Y-9692650D02*
X11557801Y-9702174D01*
X11643515Y-9816460D02*
X11624467Y-9825984D01*
X11624467Y-9825984D02*
X11576848Y-9825984D01*
X11576848Y-9825984D02*
X11557801Y-9816460D01*
X11557801Y-9816460D02*
X11548277Y-9797412D01*
X11548277Y-9797412D02*
X11548277Y-9778365D01*
X11548277Y-9778365D02*
X11557801Y-9759317D01*
X11557801Y-9759317D02*
X11576848Y-9749793D01*
X11576848Y-9749793D02*
X11624467Y-9749793D01*
X11624467Y-9749793D02*
X11643515Y-9740270D01*
X11738753Y-9692650D02*
X11738753Y-9892650D01*
X11738753Y-9702174D02*
X11757801Y-9692650D01*
X11757801Y-9692650D02*
X11795896Y-9692650D01*
X11795896Y-9692650D02*
X11814943Y-9702174D01*
X11814943Y-9702174D02*
X11824467Y-9711698D01*
X11824467Y-9711698D02*
X11833991Y-9730746D01*
X11833991Y-9730746D02*
X11833991Y-9787889D01*
X11833991Y-9787889D02*
X11824467Y-9806936D01*
X11824467Y-9806936D02*
X11814943Y-9816460D01*
X11814943Y-9816460D02*
X11795896Y-9825984D01*
X11795896Y-9825984D02*
X11757801Y-9825984D01*
X11757801Y-9825984D02*
X11738753Y-9816460D01*
X11919705Y-9806936D02*
X11929229Y-9816460D01*
X11929229Y-9816460D02*
X11919705Y-9825984D01*
X11919705Y-9825984D02*
X11910182Y-9816460D01*
X11910182Y-9816460D02*
X11919705Y-9806936D01*
X11919705Y-9806936D02*
X11919705Y-9825984D01*
X11919705Y-9702174D02*
X11929229Y-9711698D01*
X11929229Y-9711698D02*
X11919705Y-9721222D01*
X11919705Y-9721222D02*
X11910182Y-9711698D01*
X11910182Y-9711698D02*
X11919705Y-9702174D01*
X11919705Y-9702174D02*
X11919705Y-9721222D01*
D12*
X10247500Y-10134500D02*
X10287500Y-10174500D01*
X10287500Y-10134500D02*
X10247500Y-10174500D01*
D11*
X10586372Y-10045984D02*
X10605420Y-10045984D01*
X10605420Y-10045984D02*
X10624467Y-10055508D01*
X10624467Y-10055508D02*
X10633991Y-10065031D01*
X10633991Y-10065031D02*
X10643515Y-10084079D01*
X10643515Y-10084079D02*
X10653039Y-10122174D01*
X10653039Y-10122174D02*
X10653039Y-10169793D01*
X10653039Y-10169793D02*
X10643515Y-10207889D01*
X10643515Y-10207889D02*
X10633991Y-10226936D01*
X10633991Y-10226936D02*
X10624467Y-10236460D01*
X10624467Y-10236460D02*
X10605420Y-10245984D01*
X10605420Y-10245984D02*
X10586372Y-10245984D01*
X10586372Y-10245984D02*
X10567324Y-10236460D01*
X10567324Y-10236460D02*
X10557801Y-10226936D01*
X10557801Y-10226936D02*
X10548277Y-10207889D01*
X10548277Y-10207889D02*
X10538753Y-10169793D01*
X10538753Y-10169793D02*
X10538753Y-10122174D01*
X10538753Y-10122174D02*
X10548277Y-10084079D01*
X10548277Y-10084079D02*
X10557801Y-10065031D01*
X10557801Y-10065031D02*
X10567324Y-10055508D01*
X10567324Y-10055508D02*
X10586372Y-10045984D01*
X10738753Y-10226936D02*
X10748277Y-10236460D01*
X10748277Y-10236460D02*
X10738753Y-10245984D01*
X10738753Y-10245984D02*
X10729229Y-10236460D01*
X10729229Y-10236460D02*
X10738753Y-10226936D01*
X10738753Y-10226936D02*
X10738753Y-10245984D01*
X10919705Y-10112650D02*
X10919705Y-10245984D01*
X10872086Y-10036460D02*
X10824467Y-10179317D01*
X10824467Y-10179317D02*
X10948277Y-10179317D01*
X11062563Y-10045984D02*
X11081610Y-10045984D01*
X11081610Y-10045984D02*
X11100658Y-10055508D01*
X11100658Y-10055508D02*
X11110182Y-10065031D01*
X11110182Y-10065031D02*
X11119705Y-10084079D01*
X11119705Y-10084079D02*
X11129229Y-10122174D01*
X11129229Y-10122174D02*
X11129229Y-10169793D01*
X11129229Y-10169793D02*
X11119705Y-10207889D01*
X11119705Y-10207889D02*
X11110182Y-10226936D01*
X11110182Y-10226936D02*
X11100658Y-10236460D01*
X11100658Y-10236460D02*
X11081610Y-10245984D01*
X11081610Y-10245984D02*
X11062563Y-10245984D01*
X11062563Y-10245984D02*
X11043515Y-10236460D01*
X11043515Y-10236460D02*
X11033991Y-10226936D01*
X11033991Y-10226936D02*
X11024467Y-10207889D01*
X11024467Y-10207889D02*
X11014944Y-10169793D01*
X11014944Y-10169793D02*
X11014944Y-10122174D01*
X11014944Y-10122174D02*
X11024467Y-10084079D01*
X11024467Y-10084079D02*
X11033991Y-10065031D01*
X11033991Y-10065031D02*
X11043515Y-10055508D01*
X11043515Y-10055508D02*
X11062563Y-10045984D01*
X11253039Y-10045984D02*
X11272086Y-10045984D01*
X11272086Y-10045984D02*
X11291134Y-10055508D01*
X11291134Y-10055508D02*
X11300658Y-10065031D01*
X11300658Y-10065031D02*
X11310182Y-10084079D01*
X11310182Y-10084079D02*
X11319705Y-10122174D01*
X11319705Y-10122174D02*
X11319705Y-10169793D01*
X11319705Y-10169793D02*
X11310182Y-10207889D01*
X11310182Y-10207889D02*
X11300658Y-10226936D01*
X11300658Y-10226936D02*
X11291134Y-10236460D01*
X11291134Y-10236460D02*
X11272086Y-10245984D01*
X11272086Y-10245984D02*
X11253039Y-10245984D01*
X11253039Y-10245984D02*
X11233991Y-10236460D01*
X11233991Y-10236460D02*
X11224467Y-10226936D01*
X11224467Y-10226936D02*
X11214943Y-10207889D01*
X11214943Y-10207889D02*
X11205420Y-10169793D01*
X11205420Y-10169793D02*
X11205420Y-10122174D01*
X11205420Y-10122174D02*
X11214943Y-10084079D01*
X11214943Y-10084079D02*
X11224467Y-10065031D01*
X11224467Y-10065031D02*
X11233991Y-10055508D01*
X11233991Y-10055508D02*
X11253039Y-10045984D01*
X11405420Y-10245984D02*
X11405420Y-10112650D01*
X11405420Y-10131698D02*
X11414943Y-10122174D01*
X11414943Y-10122174D02*
X11433991Y-10112650D01*
X11433991Y-10112650D02*
X11462563Y-10112650D01*
X11462563Y-10112650D02*
X11481610Y-10122174D01*
X11481610Y-10122174D02*
X11491134Y-10141222D01*
X11491134Y-10141222D02*
X11491134Y-10245984D01*
X11491134Y-10141222D02*
X11500658Y-10122174D01*
X11500658Y-10122174D02*
X11519705Y-10112650D01*
X11519705Y-10112650D02*
X11548277Y-10112650D01*
X11548277Y-10112650D02*
X11567324Y-10122174D01*
X11567324Y-10122174D02*
X11576848Y-10141222D01*
X11576848Y-10141222D02*
X11576848Y-10245984D01*
X11672086Y-10245984D02*
X11672086Y-10112650D01*
X11672086Y-10131698D02*
X11681610Y-10122174D01*
X11681610Y-10122174D02*
X11700658Y-10112650D01*
X11700658Y-10112650D02*
X11729229Y-10112650D01*
X11729229Y-10112650D02*
X11748277Y-10122174D01*
X11748277Y-10122174D02*
X11757801Y-10141222D01*
X11757801Y-10141222D02*
X11757801Y-10245984D01*
X11757801Y-10141222D02*
X11767324Y-10122174D01*
X11767324Y-10122174D02*
X11786372Y-10112650D01*
X11786372Y-10112650D02*
X11814943Y-10112650D01*
X11814943Y-10112650D02*
X11833991Y-10122174D01*
X11833991Y-10122174D02*
X11843515Y-10141222D01*
X11843515Y-10141222D02*
X11843515Y-10245984D01*
X12233991Y-10036460D02*
X12062563Y-10293603D01*
X12491134Y-10045984D02*
X12510182Y-10045984D01*
X12510182Y-10045984D02*
X12529229Y-10055508D01*
X12529229Y-10055508D02*
X12538753Y-10065031D01*
X12538753Y-10065031D02*
X12548277Y-10084079D01*
X12548277Y-10084079D02*
X12557801Y-10122174D01*
X12557801Y-10122174D02*
X12557801Y-10169793D01*
X12557801Y-10169793D02*
X12548277Y-10207889D01*
X12548277Y-10207889D02*
X12538753Y-10226936D01*
X12538753Y-10226936D02*
X12529229Y-10236460D01*
X12529229Y-10236460D02*
X12510182Y-10245984D01*
X12510182Y-10245984D02*
X12491134Y-10245984D01*
X12491134Y-10245984D02*
X12472086Y-10236460D01*
X12472086Y-10236460D02*
X12462563Y-10226936D01*
X12462563Y-10226936D02*
X12453039Y-10207889D01*
X12453039Y-10207889D02*
X12443515Y-10169793D01*
X12443515Y-10169793D02*
X12443515Y-10122174D01*
X12443515Y-10122174D02*
X12453039Y-10084079D01*
X12453039Y-10084079D02*
X12462563Y-10065031D01*
X12462563Y-10065031D02*
X12472086Y-10055508D01*
X12472086Y-10055508D02*
X12491134Y-10045984D01*
X12643515Y-10226936D02*
X12653039Y-10236460D01*
X12653039Y-10236460D02*
X12643515Y-10245984D01*
X12643515Y-10245984D02*
X12633991Y-10236460D01*
X12633991Y-10236460D02*
X12643515Y-10226936D01*
X12643515Y-10226936D02*
X12643515Y-10245984D01*
X12776848Y-10045984D02*
X12795896Y-10045984D01*
X12795896Y-10045984D02*
X12814944Y-10055508D01*
X12814944Y-10055508D02*
X12824467Y-10065031D01*
X12824467Y-10065031D02*
X12833991Y-10084079D01*
X12833991Y-10084079D02*
X12843515Y-10122174D01*
X12843515Y-10122174D02*
X12843515Y-10169793D01*
X12843515Y-10169793D02*
X12833991Y-10207889D01*
X12833991Y-10207889D02*
X12824467Y-10226936D01*
X12824467Y-10226936D02*
X12814944Y-10236460D01*
X12814944Y-10236460D02*
X12795896Y-10245984D01*
X12795896Y-10245984D02*
X12776848Y-10245984D01*
X12776848Y-10245984D02*
X12757801Y-10236460D01*
X12757801Y-10236460D02*
X12748277Y-10226936D01*
X12748277Y-10226936D02*
X12738753Y-10207889D01*
X12738753Y-10207889D02*
X12729229Y-10169793D01*
X12729229Y-10169793D02*
X12729229Y-10122174D01*
X12729229Y-10122174D02*
X12738753Y-10084079D01*
X12738753Y-10084079D02*
X12748277Y-10065031D01*
X12748277Y-10065031D02*
X12757801Y-10055508D01*
X12757801Y-10055508D02*
X12776848Y-10045984D01*
X13033991Y-10245984D02*
X12919706Y-10245984D01*
X12976848Y-10245984D02*
X12976848Y-10045984D01*
X12976848Y-10045984D02*
X12957801Y-10074555D01*
X12957801Y-10074555D02*
X12938753Y-10093603D01*
X12938753Y-10093603D02*
X12919706Y-10103127D01*
X13214944Y-10045984D02*
X13119706Y-10045984D01*
X13119706Y-10045984D02*
X13110182Y-10141222D01*
X13110182Y-10141222D02*
X13119706Y-10131698D01*
X13119706Y-10131698D02*
X13138753Y-10122174D01*
X13138753Y-10122174D02*
X13186372Y-10122174D01*
X13186372Y-10122174D02*
X13205420Y-10131698D01*
X13205420Y-10131698D02*
X13214944Y-10141222D01*
X13214944Y-10141222D02*
X13224467Y-10160270D01*
X13224467Y-10160270D02*
X13224467Y-10207889D01*
X13224467Y-10207889D02*
X13214944Y-10226936D01*
X13214944Y-10226936D02*
X13205420Y-10236460D01*
X13205420Y-10236460D02*
X13186372Y-10245984D01*
X13186372Y-10245984D02*
X13138753Y-10245984D01*
X13138753Y-10245984D02*
X13119706Y-10236460D01*
X13119706Y-10236460D02*
X13110182Y-10226936D01*
X13291134Y-10045984D02*
X13424467Y-10045984D01*
X13424467Y-10045984D02*
X13338753Y-10245984D01*
X13491134Y-10045984D02*
X13491134Y-10084079D01*
X13567325Y-10045984D02*
X13567325Y-10084079D01*
X13862563Y-10322174D02*
X13853039Y-10312650D01*
X13853039Y-10312650D02*
X13833991Y-10284079D01*
X13833991Y-10284079D02*
X13824468Y-10265031D01*
X13824468Y-10265031D02*
X13814944Y-10236460D01*
X13814944Y-10236460D02*
X13805420Y-10188841D01*
X13805420Y-10188841D02*
X13805420Y-10150746D01*
X13805420Y-10150746D02*
X13814944Y-10103127D01*
X13814944Y-10103127D02*
X13824468Y-10074555D01*
X13824468Y-10074555D02*
X13833991Y-10055508D01*
X13833991Y-10055508D02*
X13853039Y-10026936D01*
X13853039Y-10026936D02*
X13862563Y-10017412D01*
X14043515Y-10245984D02*
X13929229Y-10245984D01*
X13986372Y-10245984D02*
X13986372Y-10045984D01*
X13986372Y-10045984D02*
X13967325Y-10074555D01*
X13967325Y-10074555D02*
X13948277Y-10093603D01*
X13948277Y-10093603D02*
X13929229Y-10103127D01*
X14214944Y-10045984D02*
X14176848Y-10045984D01*
X14176848Y-10045984D02*
X14157801Y-10055508D01*
X14157801Y-10055508D02*
X14148277Y-10065031D01*
X14148277Y-10065031D02*
X14129229Y-10093603D01*
X14129229Y-10093603D02*
X14119706Y-10131698D01*
X14119706Y-10131698D02*
X14119706Y-10207889D01*
X14119706Y-10207889D02*
X14129229Y-10226936D01*
X14129229Y-10226936D02*
X14138753Y-10236460D01*
X14138753Y-10236460D02*
X14157801Y-10245984D01*
X14157801Y-10245984D02*
X14195896Y-10245984D01*
X14195896Y-10245984D02*
X14214944Y-10236460D01*
X14214944Y-10236460D02*
X14224468Y-10226936D01*
X14224468Y-10226936D02*
X14233991Y-10207889D01*
X14233991Y-10207889D02*
X14233991Y-10160270D01*
X14233991Y-10160270D02*
X14224468Y-10141222D01*
X14224468Y-10141222D02*
X14214944Y-10131698D01*
X14214944Y-10131698D02*
X14195896Y-10122174D01*
X14195896Y-10122174D02*
X14157801Y-10122174D01*
X14157801Y-10122174D02*
X14138753Y-10131698D01*
X14138753Y-10131698D02*
X14129229Y-10141222D01*
X14129229Y-10141222D02*
X14119706Y-10160270D01*
X14472087Y-10245984D02*
X14472087Y-10045984D01*
X14557801Y-10245984D02*
X14557801Y-10141222D01*
X14557801Y-10141222D02*
X14548277Y-10122174D01*
X14548277Y-10122174D02*
X14529230Y-10112650D01*
X14529230Y-10112650D02*
X14500658Y-10112650D01*
X14500658Y-10112650D02*
X14481610Y-10122174D01*
X14481610Y-10122174D02*
X14472087Y-10131698D01*
X14681610Y-10245984D02*
X14662563Y-10236460D01*
X14662563Y-10236460D02*
X14653039Y-10226936D01*
X14653039Y-10226936D02*
X14643515Y-10207889D01*
X14643515Y-10207889D02*
X14643515Y-10150746D01*
X14643515Y-10150746D02*
X14653039Y-10131698D01*
X14653039Y-10131698D02*
X14662563Y-10122174D01*
X14662563Y-10122174D02*
X14681610Y-10112650D01*
X14681610Y-10112650D02*
X14710182Y-10112650D01*
X14710182Y-10112650D02*
X14729230Y-10122174D01*
X14729230Y-10122174D02*
X14738753Y-10131698D01*
X14738753Y-10131698D02*
X14748277Y-10150746D01*
X14748277Y-10150746D02*
X14748277Y-10207889D01*
X14748277Y-10207889D02*
X14738753Y-10226936D01*
X14738753Y-10226936D02*
X14729230Y-10236460D01*
X14729230Y-10236460D02*
X14710182Y-10245984D01*
X14710182Y-10245984D02*
X14681610Y-10245984D01*
X14862563Y-10245984D02*
X14843515Y-10236460D01*
X14843515Y-10236460D02*
X14833991Y-10217412D01*
X14833991Y-10217412D02*
X14833991Y-10045984D01*
X15014944Y-10236460D02*
X14995896Y-10245984D01*
X14995896Y-10245984D02*
X14957801Y-10245984D01*
X14957801Y-10245984D02*
X14938753Y-10236460D01*
X14938753Y-10236460D02*
X14929230Y-10217412D01*
X14929230Y-10217412D02*
X14929230Y-10141222D01*
X14929230Y-10141222D02*
X14938753Y-10122174D01*
X14938753Y-10122174D02*
X14957801Y-10112650D01*
X14957801Y-10112650D02*
X14995896Y-10112650D01*
X14995896Y-10112650D02*
X15014944Y-10122174D01*
X15014944Y-10122174D02*
X15024468Y-10141222D01*
X15024468Y-10141222D02*
X15024468Y-10160270D01*
X15024468Y-10160270D02*
X14929230Y-10179317D01*
X15100658Y-10236460D02*
X15119706Y-10245984D01*
X15119706Y-10245984D02*
X15157801Y-10245984D01*
X15157801Y-10245984D02*
X15176849Y-10236460D01*
X15176849Y-10236460D02*
X15186372Y-10217412D01*
X15186372Y-10217412D02*
X15186372Y-10207889D01*
X15186372Y-10207889D02*
X15176849Y-10188841D01*
X15176849Y-10188841D02*
X15157801Y-10179317D01*
X15157801Y-10179317D02*
X15129230Y-10179317D01*
X15129230Y-10179317D02*
X15110182Y-10169793D01*
X15110182Y-10169793D02*
X15100658Y-10150746D01*
X15100658Y-10150746D02*
X15100658Y-10141222D01*
X15100658Y-10141222D02*
X15110182Y-10122174D01*
X15110182Y-10122174D02*
X15129230Y-10112650D01*
X15129230Y-10112650D02*
X15157801Y-10112650D01*
X15157801Y-10112650D02*
X15176849Y-10122174D01*
X15253039Y-10322174D02*
X15262563Y-10312650D01*
X15262563Y-10312650D02*
X15281611Y-10284079D01*
X15281611Y-10284079D02*
X15291134Y-10265031D01*
X15291134Y-10265031D02*
X15300658Y-10236460D01*
X15300658Y-10236460D02*
X15310182Y-10188841D01*
X15310182Y-10188841D02*
X15310182Y-10150746D01*
X15310182Y-10150746D02*
X15300658Y-10103127D01*
X15300658Y-10103127D02*
X15291134Y-10074555D01*
X15291134Y-10074555D02*
X15281611Y-10055508D01*
X15281611Y-10055508D02*
X15262563Y-10026936D01*
X15262563Y-10026936D02*
X15253039Y-10017412D01*
D12*
X10287500Y-10418500D02*
G75*
G02*
X10217500Y-10418500I-35000J0D01*
G01*
X10217500Y-10418500D02*
G75*
G02*
X10287500Y-10418500I35000J0D01*
G01*
D11*
X10586372Y-10309984D02*
X10605420Y-10309984D01*
X10605420Y-10309984D02*
X10624467Y-10319508D01*
X10624467Y-10319508D02*
X10633991Y-10329031D01*
X10633991Y-10329031D02*
X10643515Y-10348079D01*
X10643515Y-10348079D02*
X10653039Y-10386174D01*
X10653039Y-10386174D02*
X10653039Y-10433793D01*
X10653039Y-10433793D02*
X10643515Y-10471889D01*
X10643515Y-10471889D02*
X10633991Y-10490936D01*
X10633991Y-10490936D02*
X10624467Y-10500460D01*
X10624467Y-10500460D02*
X10605420Y-10509984D01*
X10605420Y-10509984D02*
X10586372Y-10509984D01*
X10586372Y-10509984D02*
X10567324Y-10500460D01*
X10567324Y-10500460D02*
X10557801Y-10490936D01*
X10557801Y-10490936D02*
X10548277Y-10471889D01*
X10548277Y-10471889D02*
X10538753Y-10433793D01*
X10538753Y-10433793D02*
X10538753Y-10386174D01*
X10538753Y-10386174D02*
X10548277Y-10348079D01*
X10548277Y-10348079D02*
X10557801Y-10329031D01*
X10557801Y-10329031D02*
X10567324Y-10319508D01*
X10567324Y-10319508D02*
X10586372Y-10309984D01*
X10738753Y-10490936D02*
X10748277Y-10500460D01*
X10748277Y-10500460D02*
X10738753Y-10509984D01*
X10738753Y-10509984D02*
X10729229Y-10500460D01*
X10729229Y-10500460D02*
X10738753Y-10490936D01*
X10738753Y-10490936D02*
X10738753Y-10509984D01*
X10814944Y-10309984D02*
X10948277Y-10309984D01*
X10948277Y-10309984D02*
X10862563Y-10509984D01*
X11062563Y-10309984D02*
X11081610Y-10309984D01*
X11081610Y-10309984D02*
X11100658Y-10319508D01*
X11100658Y-10319508D02*
X11110182Y-10329031D01*
X11110182Y-10329031D02*
X11119705Y-10348079D01*
X11119705Y-10348079D02*
X11129229Y-10386174D01*
X11129229Y-10386174D02*
X11129229Y-10433793D01*
X11129229Y-10433793D02*
X11119705Y-10471889D01*
X11119705Y-10471889D02*
X11110182Y-10490936D01*
X11110182Y-10490936D02*
X11100658Y-10500460D01*
X11100658Y-10500460D02*
X11081610Y-10509984D01*
X11081610Y-10509984D02*
X11062563Y-10509984D01*
X11062563Y-10509984D02*
X11043515Y-10500460D01*
X11043515Y-10500460D02*
X11033991Y-10490936D01*
X11033991Y-10490936D02*
X11024467Y-10471889D01*
X11024467Y-10471889D02*
X11014944Y-10433793D01*
X11014944Y-10433793D02*
X11014944Y-10386174D01*
X11014944Y-10386174D02*
X11024467Y-10348079D01*
X11024467Y-10348079D02*
X11033991Y-10329031D01*
X11033991Y-10329031D02*
X11043515Y-10319508D01*
X11043515Y-10319508D02*
X11062563Y-10309984D01*
X11253039Y-10309984D02*
X11272086Y-10309984D01*
X11272086Y-10309984D02*
X11291134Y-10319508D01*
X11291134Y-10319508D02*
X11300658Y-10329031D01*
X11300658Y-10329031D02*
X11310182Y-10348079D01*
X11310182Y-10348079D02*
X11319705Y-10386174D01*
X11319705Y-10386174D02*
X11319705Y-10433793D01*
X11319705Y-10433793D02*
X11310182Y-10471889D01*
X11310182Y-10471889D02*
X11300658Y-10490936D01*
X11300658Y-10490936D02*
X11291134Y-10500460D01*
X11291134Y-10500460D02*
X11272086Y-10509984D01*
X11272086Y-10509984D02*
X11253039Y-10509984D01*
X11253039Y-10509984D02*
X11233991Y-10500460D01*
X11233991Y-10500460D02*
X11224467Y-10490936D01*
X11224467Y-10490936D02*
X11214943Y-10471889D01*
X11214943Y-10471889D02*
X11205420Y-10433793D01*
X11205420Y-10433793D02*
X11205420Y-10386174D01*
X11205420Y-10386174D02*
X11214943Y-10348079D01*
X11214943Y-10348079D02*
X11224467Y-10329031D01*
X11224467Y-10329031D02*
X11233991Y-10319508D01*
X11233991Y-10319508D02*
X11253039Y-10309984D01*
X11405420Y-10509984D02*
X11405420Y-10376650D01*
X11405420Y-10395698D02*
X11414943Y-10386174D01*
X11414943Y-10386174D02*
X11433991Y-10376650D01*
X11433991Y-10376650D02*
X11462563Y-10376650D01*
X11462563Y-10376650D02*
X11481610Y-10386174D01*
X11481610Y-10386174D02*
X11491134Y-10405222D01*
X11491134Y-10405222D02*
X11491134Y-10509984D01*
X11491134Y-10405222D02*
X11500658Y-10386174D01*
X11500658Y-10386174D02*
X11519705Y-10376650D01*
X11519705Y-10376650D02*
X11548277Y-10376650D01*
X11548277Y-10376650D02*
X11567324Y-10386174D01*
X11567324Y-10386174D02*
X11576848Y-10405222D01*
X11576848Y-10405222D02*
X11576848Y-10509984D01*
X11672086Y-10509984D02*
X11672086Y-10376650D01*
X11672086Y-10395698D02*
X11681610Y-10386174D01*
X11681610Y-10386174D02*
X11700658Y-10376650D01*
X11700658Y-10376650D02*
X11729229Y-10376650D01*
X11729229Y-10376650D02*
X11748277Y-10386174D01*
X11748277Y-10386174D02*
X11757801Y-10405222D01*
X11757801Y-10405222D02*
X11757801Y-10509984D01*
X11757801Y-10405222D02*
X11767324Y-10386174D01*
X11767324Y-10386174D02*
X11786372Y-10376650D01*
X11786372Y-10376650D02*
X11814943Y-10376650D01*
X11814943Y-10376650D02*
X11833991Y-10386174D01*
X11833991Y-10386174D02*
X11843515Y-10405222D01*
X11843515Y-10405222D02*
X11843515Y-10509984D01*
X12233991Y-10300460D02*
X12062563Y-10557603D01*
X12491134Y-10309984D02*
X12510182Y-10309984D01*
X12510182Y-10309984D02*
X12529229Y-10319508D01*
X12529229Y-10319508D02*
X12538753Y-10329031D01*
X12538753Y-10329031D02*
X12548277Y-10348079D01*
X12548277Y-10348079D02*
X12557801Y-10386174D01*
X12557801Y-10386174D02*
X12557801Y-10433793D01*
X12557801Y-10433793D02*
X12548277Y-10471889D01*
X12548277Y-10471889D02*
X12538753Y-10490936D01*
X12538753Y-10490936D02*
X12529229Y-10500460D01*
X12529229Y-10500460D02*
X12510182Y-10509984D01*
X12510182Y-10509984D02*
X12491134Y-10509984D01*
X12491134Y-10509984D02*
X12472086Y-10500460D01*
X12472086Y-10500460D02*
X12462563Y-10490936D01*
X12462563Y-10490936D02*
X12453039Y-10471889D01*
X12453039Y-10471889D02*
X12443515Y-10433793D01*
X12443515Y-10433793D02*
X12443515Y-10386174D01*
X12443515Y-10386174D02*
X12453039Y-10348079D01*
X12453039Y-10348079D02*
X12462563Y-10329031D01*
X12462563Y-10329031D02*
X12472086Y-10319508D01*
X12472086Y-10319508D02*
X12491134Y-10309984D01*
X12643515Y-10490936D02*
X12653039Y-10500460D01*
X12653039Y-10500460D02*
X12643515Y-10509984D01*
X12643515Y-10509984D02*
X12633991Y-10500460D01*
X12633991Y-10500460D02*
X12643515Y-10490936D01*
X12643515Y-10490936D02*
X12643515Y-10509984D01*
X12776848Y-10309984D02*
X12795896Y-10309984D01*
X12795896Y-10309984D02*
X12814944Y-10319508D01*
X12814944Y-10319508D02*
X12824467Y-10329031D01*
X12824467Y-10329031D02*
X12833991Y-10348079D01*
X12833991Y-10348079D02*
X12843515Y-10386174D01*
X12843515Y-10386174D02*
X12843515Y-10433793D01*
X12843515Y-10433793D02*
X12833991Y-10471889D01*
X12833991Y-10471889D02*
X12824467Y-10490936D01*
X12824467Y-10490936D02*
X12814944Y-10500460D01*
X12814944Y-10500460D02*
X12795896Y-10509984D01*
X12795896Y-10509984D02*
X12776848Y-10509984D01*
X12776848Y-10509984D02*
X12757801Y-10500460D01*
X12757801Y-10500460D02*
X12748277Y-10490936D01*
X12748277Y-10490936D02*
X12738753Y-10471889D01*
X12738753Y-10471889D02*
X12729229Y-10433793D01*
X12729229Y-10433793D02*
X12729229Y-10386174D01*
X12729229Y-10386174D02*
X12738753Y-10348079D01*
X12738753Y-10348079D02*
X12748277Y-10329031D01*
X12748277Y-10329031D02*
X12757801Y-10319508D01*
X12757801Y-10319508D02*
X12776848Y-10309984D01*
X12919706Y-10329031D02*
X12929229Y-10319508D01*
X12929229Y-10319508D02*
X12948277Y-10309984D01*
X12948277Y-10309984D02*
X12995896Y-10309984D01*
X12995896Y-10309984D02*
X13014944Y-10319508D01*
X13014944Y-10319508D02*
X13024467Y-10329031D01*
X13024467Y-10329031D02*
X13033991Y-10348079D01*
X13033991Y-10348079D02*
X13033991Y-10367127D01*
X13033991Y-10367127D02*
X13024467Y-10395698D01*
X13024467Y-10395698D02*
X12910182Y-10509984D01*
X12910182Y-10509984D02*
X13033991Y-10509984D01*
X13100658Y-10309984D02*
X13233991Y-10309984D01*
X13233991Y-10309984D02*
X13148277Y-10509984D01*
X13395896Y-10309984D02*
X13357801Y-10309984D01*
X13357801Y-10309984D02*
X13338753Y-10319508D01*
X13338753Y-10319508D02*
X13329229Y-10329031D01*
X13329229Y-10329031D02*
X13310182Y-10357603D01*
X13310182Y-10357603D02*
X13300658Y-10395698D01*
X13300658Y-10395698D02*
X13300658Y-10471889D01*
X13300658Y-10471889D02*
X13310182Y-10490936D01*
X13310182Y-10490936D02*
X13319706Y-10500460D01*
X13319706Y-10500460D02*
X13338753Y-10509984D01*
X13338753Y-10509984D02*
X13376848Y-10509984D01*
X13376848Y-10509984D02*
X13395896Y-10500460D01*
X13395896Y-10500460D02*
X13405420Y-10490936D01*
X13405420Y-10490936D02*
X13414944Y-10471889D01*
X13414944Y-10471889D02*
X13414944Y-10424270D01*
X13414944Y-10424270D02*
X13405420Y-10405222D01*
X13405420Y-10405222D02*
X13395896Y-10395698D01*
X13395896Y-10395698D02*
X13376848Y-10386174D01*
X13376848Y-10386174D02*
X13338753Y-10386174D01*
X13338753Y-10386174D02*
X13319706Y-10395698D01*
X13319706Y-10395698D02*
X13310182Y-10405222D01*
X13310182Y-10405222D02*
X13300658Y-10424270D01*
X13491134Y-10309984D02*
X13491134Y-10348079D01*
X13567325Y-10309984D02*
X13567325Y-10348079D01*
X13862563Y-10586174D02*
X13853039Y-10576650D01*
X13853039Y-10576650D02*
X13833991Y-10548079D01*
X13833991Y-10548079D02*
X13824468Y-10529031D01*
X13824468Y-10529031D02*
X13814944Y-10500460D01*
X13814944Y-10500460D02*
X13805420Y-10452841D01*
X13805420Y-10452841D02*
X13805420Y-10414746D01*
X13805420Y-10414746D02*
X13814944Y-10367127D01*
X13814944Y-10367127D02*
X13824468Y-10338555D01*
X13824468Y-10338555D02*
X13833991Y-10319508D01*
X13833991Y-10319508D02*
X13853039Y-10290936D01*
X13853039Y-10290936D02*
X13862563Y-10281412D01*
X14024468Y-10309984D02*
X13986372Y-10309984D01*
X13986372Y-10309984D02*
X13967325Y-10319508D01*
X13967325Y-10319508D02*
X13957801Y-10329031D01*
X13957801Y-10329031D02*
X13938753Y-10357603D01*
X13938753Y-10357603D02*
X13929229Y-10395698D01*
X13929229Y-10395698D02*
X13929229Y-10471889D01*
X13929229Y-10471889D02*
X13938753Y-10490936D01*
X13938753Y-10490936D02*
X13948277Y-10500460D01*
X13948277Y-10500460D02*
X13967325Y-10509984D01*
X13967325Y-10509984D02*
X14005420Y-10509984D01*
X14005420Y-10509984D02*
X14024468Y-10500460D01*
X14024468Y-10500460D02*
X14033991Y-10490936D01*
X14033991Y-10490936D02*
X14043515Y-10471889D01*
X14043515Y-10471889D02*
X14043515Y-10424270D01*
X14043515Y-10424270D02*
X14033991Y-10405222D01*
X14033991Y-10405222D02*
X14024468Y-10395698D01*
X14024468Y-10395698D02*
X14005420Y-10386174D01*
X14005420Y-10386174D02*
X13967325Y-10386174D01*
X13967325Y-10386174D02*
X13948277Y-10395698D01*
X13948277Y-10395698D02*
X13938753Y-10405222D01*
X13938753Y-10405222D02*
X13929229Y-10424270D01*
X14281610Y-10509984D02*
X14281610Y-10309984D01*
X14367325Y-10509984D02*
X14367325Y-10405222D01*
X14367325Y-10405222D02*
X14357801Y-10386174D01*
X14357801Y-10386174D02*
X14338753Y-10376650D01*
X14338753Y-10376650D02*
X14310182Y-10376650D01*
X14310182Y-10376650D02*
X14291134Y-10386174D01*
X14291134Y-10386174D02*
X14281610Y-10395698D01*
X14491134Y-10509984D02*
X14472087Y-10500460D01*
X14472087Y-10500460D02*
X14462563Y-10490936D01*
X14462563Y-10490936D02*
X14453039Y-10471889D01*
X14453039Y-10471889D02*
X14453039Y-10414746D01*
X14453039Y-10414746D02*
X14462563Y-10395698D01*
X14462563Y-10395698D02*
X14472087Y-10386174D01*
X14472087Y-10386174D02*
X14491134Y-10376650D01*
X14491134Y-10376650D02*
X14519706Y-10376650D01*
X14519706Y-10376650D02*
X14538753Y-10386174D01*
X14538753Y-10386174D02*
X14548277Y-10395698D01*
X14548277Y-10395698D02*
X14557801Y-10414746D01*
X14557801Y-10414746D02*
X14557801Y-10471889D01*
X14557801Y-10471889D02*
X14548277Y-10490936D01*
X14548277Y-10490936D02*
X14538753Y-10500460D01*
X14538753Y-10500460D02*
X14519706Y-10509984D01*
X14519706Y-10509984D02*
X14491134Y-10509984D01*
X14672087Y-10509984D02*
X14653039Y-10500460D01*
X14653039Y-10500460D02*
X14643515Y-10481412D01*
X14643515Y-10481412D02*
X14643515Y-10309984D01*
X14824468Y-10500460D02*
X14805420Y-10509984D01*
X14805420Y-10509984D02*
X14767325Y-10509984D01*
X14767325Y-10509984D02*
X14748277Y-10500460D01*
X14748277Y-10500460D02*
X14738753Y-10481412D01*
X14738753Y-10481412D02*
X14738753Y-10405222D01*
X14738753Y-10405222D02*
X14748277Y-10386174D01*
X14748277Y-10386174D02*
X14767325Y-10376650D01*
X14767325Y-10376650D02*
X14805420Y-10376650D01*
X14805420Y-10376650D02*
X14824468Y-10386174D01*
X14824468Y-10386174D02*
X14833991Y-10405222D01*
X14833991Y-10405222D02*
X14833991Y-10424270D01*
X14833991Y-10424270D02*
X14738753Y-10443317D01*
X14910182Y-10500460D02*
X14929230Y-10509984D01*
X14929230Y-10509984D02*
X14967325Y-10509984D01*
X14967325Y-10509984D02*
X14986372Y-10500460D01*
X14986372Y-10500460D02*
X14995896Y-10481412D01*
X14995896Y-10481412D02*
X14995896Y-10471889D01*
X14995896Y-10471889D02*
X14986372Y-10452841D01*
X14986372Y-10452841D02*
X14967325Y-10443317D01*
X14967325Y-10443317D02*
X14938753Y-10443317D01*
X14938753Y-10443317D02*
X14919706Y-10433793D01*
X14919706Y-10433793D02*
X14910182Y-10414746D01*
X14910182Y-10414746D02*
X14910182Y-10405222D01*
X14910182Y-10405222D02*
X14919706Y-10386174D01*
X14919706Y-10386174D02*
X14938753Y-10376650D01*
X14938753Y-10376650D02*
X14967325Y-10376650D01*
X14967325Y-10376650D02*
X14986372Y-10386174D01*
X15062563Y-10586174D02*
X15072087Y-10576650D01*
X15072087Y-10576650D02*
X15091134Y-10548079D01*
X15091134Y-10548079D02*
X15100658Y-10529031D01*
X15100658Y-10529031D02*
X15110182Y-10500460D01*
X15110182Y-10500460D02*
X15119706Y-10452841D01*
X15119706Y-10452841D02*
X15119706Y-10414746D01*
X15119706Y-10414746D02*
X15110182Y-10367127D01*
X15110182Y-10367127D02*
X15100658Y-10338555D01*
X15100658Y-10338555D02*
X15091134Y-10319508D01*
X15091134Y-10319508D02*
X15072087Y-10290936D01*
X15072087Y-10290936D02*
X15062563Y-10281412D01*
D12*
X10250000Y-10645000D02*
X10250000Y-10720000D01*
X10212500Y-10682500D02*
X10287500Y-10682500D01*
D11*
X10586372Y-10573984D02*
X10605420Y-10573984D01*
X10605420Y-10573984D02*
X10624467Y-10583508D01*
X10624467Y-10583508D02*
X10633991Y-10593031D01*
X10633991Y-10593031D02*
X10643515Y-10612079D01*
X10643515Y-10612079D02*
X10653039Y-10650174D01*
X10653039Y-10650174D02*
X10653039Y-10697793D01*
X10653039Y-10697793D02*
X10643515Y-10735889D01*
X10643515Y-10735889D02*
X10633991Y-10754936D01*
X10633991Y-10754936D02*
X10624467Y-10764460D01*
X10624467Y-10764460D02*
X10605420Y-10773984D01*
X10605420Y-10773984D02*
X10586372Y-10773984D01*
X10586372Y-10773984D02*
X10567324Y-10764460D01*
X10567324Y-10764460D02*
X10557801Y-10754936D01*
X10557801Y-10754936D02*
X10548277Y-10735889D01*
X10548277Y-10735889D02*
X10538753Y-10697793D01*
X10538753Y-10697793D02*
X10538753Y-10650174D01*
X10538753Y-10650174D02*
X10548277Y-10612079D01*
X10548277Y-10612079D02*
X10557801Y-10593031D01*
X10557801Y-10593031D02*
X10567324Y-10583508D01*
X10567324Y-10583508D02*
X10586372Y-10573984D01*
X10738753Y-10754936D02*
X10748277Y-10764460D01*
X10748277Y-10764460D02*
X10738753Y-10773984D01*
X10738753Y-10773984D02*
X10729229Y-10764460D01*
X10729229Y-10764460D02*
X10738753Y-10754936D01*
X10738753Y-10754936D02*
X10738753Y-10773984D01*
X10814944Y-10573984D02*
X10948277Y-10573984D01*
X10948277Y-10573984D02*
X10862563Y-10773984D01*
X11119705Y-10573984D02*
X11024467Y-10573984D01*
X11024467Y-10573984D02*
X11014944Y-10669222D01*
X11014944Y-10669222D02*
X11024467Y-10659698D01*
X11024467Y-10659698D02*
X11043515Y-10650174D01*
X11043515Y-10650174D02*
X11091134Y-10650174D01*
X11091134Y-10650174D02*
X11110182Y-10659698D01*
X11110182Y-10659698D02*
X11119705Y-10669222D01*
X11119705Y-10669222D02*
X11129229Y-10688270D01*
X11129229Y-10688270D02*
X11129229Y-10735889D01*
X11129229Y-10735889D02*
X11119705Y-10754936D01*
X11119705Y-10754936D02*
X11110182Y-10764460D01*
X11110182Y-10764460D02*
X11091134Y-10773984D01*
X11091134Y-10773984D02*
X11043515Y-10773984D01*
X11043515Y-10773984D02*
X11024467Y-10764460D01*
X11024467Y-10764460D02*
X11014944Y-10754936D01*
X11253039Y-10573984D02*
X11272086Y-10573984D01*
X11272086Y-10573984D02*
X11291134Y-10583508D01*
X11291134Y-10583508D02*
X11300658Y-10593031D01*
X11300658Y-10593031D02*
X11310182Y-10612079D01*
X11310182Y-10612079D02*
X11319705Y-10650174D01*
X11319705Y-10650174D02*
X11319705Y-10697793D01*
X11319705Y-10697793D02*
X11310182Y-10735889D01*
X11310182Y-10735889D02*
X11300658Y-10754936D01*
X11300658Y-10754936D02*
X11291134Y-10764460D01*
X11291134Y-10764460D02*
X11272086Y-10773984D01*
X11272086Y-10773984D02*
X11253039Y-10773984D01*
X11253039Y-10773984D02*
X11233991Y-10764460D01*
X11233991Y-10764460D02*
X11224467Y-10754936D01*
X11224467Y-10754936D02*
X11214943Y-10735889D01*
X11214943Y-10735889D02*
X11205420Y-10697793D01*
X11205420Y-10697793D02*
X11205420Y-10650174D01*
X11205420Y-10650174D02*
X11214943Y-10612079D01*
X11214943Y-10612079D02*
X11224467Y-10593031D01*
X11224467Y-10593031D02*
X11233991Y-10583508D01*
X11233991Y-10583508D02*
X11253039Y-10573984D01*
X11405420Y-10773984D02*
X11405420Y-10640650D01*
X11405420Y-10659698D02*
X11414943Y-10650174D01*
X11414943Y-10650174D02*
X11433991Y-10640650D01*
X11433991Y-10640650D02*
X11462563Y-10640650D01*
X11462563Y-10640650D02*
X11481610Y-10650174D01*
X11481610Y-10650174D02*
X11491134Y-10669222D01*
X11491134Y-10669222D02*
X11491134Y-10773984D01*
X11491134Y-10669222D02*
X11500658Y-10650174D01*
X11500658Y-10650174D02*
X11519705Y-10640650D01*
X11519705Y-10640650D02*
X11548277Y-10640650D01*
X11548277Y-10640650D02*
X11567324Y-10650174D01*
X11567324Y-10650174D02*
X11576848Y-10669222D01*
X11576848Y-10669222D02*
X11576848Y-10773984D01*
X11672086Y-10773984D02*
X11672086Y-10640650D01*
X11672086Y-10659698D02*
X11681610Y-10650174D01*
X11681610Y-10650174D02*
X11700658Y-10640650D01*
X11700658Y-10640650D02*
X11729229Y-10640650D01*
X11729229Y-10640650D02*
X11748277Y-10650174D01*
X11748277Y-10650174D02*
X11757801Y-10669222D01*
X11757801Y-10669222D02*
X11757801Y-10773984D01*
X11757801Y-10669222D02*
X11767324Y-10650174D01*
X11767324Y-10650174D02*
X11786372Y-10640650D01*
X11786372Y-10640650D02*
X11814943Y-10640650D01*
X11814943Y-10640650D02*
X11833991Y-10650174D01*
X11833991Y-10650174D02*
X11843515Y-10669222D01*
X11843515Y-10669222D02*
X11843515Y-10773984D01*
X12233991Y-10564460D02*
X12062563Y-10821603D01*
X12491134Y-10573984D02*
X12510182Y-10573984D01*
X12510182Y-10573984D02*
X12529229Y-10583508D01*
X12529229Y-10583508D02*
X12538753Y-10593031D01*
X12538753Y-10593031D02*
X12548277Y-10612079D01*
X12548277Y-10612079D02*
X12557801Y-10650174D01*
X12557801Y-10650174D02*
X12557801Y-10697793D01*
X12557801Y-10697793D02*
X12548277Y-10735889D01*
X12548277Y-10735889D02*
X12538753Y-10754936D01*
X12538753Y-10754936D02*
X12529229Y-10764460D01*
X12529229Y-10764460D02*
X12510182Y-10773984D01*
X12510182Y-10773984D02*
X12491134Y-10773984D01*
X12491134Y-10773984D02*
X12472086Y-10764460D01*
X12472086Y-10764460D02*
X12462563Y-10754936D01*
X12462563Y-10754936D02*
X12453039Y-10735889D01*
X12453039Y-10735889D02*
X12443515Y-10697793D01*
X12443515Y-10697793D02*
X12443515Y-10650174D01*
X12443515Y-10650174D02*
X12453039Y-10612079D01*
X12453039Y-10612079D02*
X12462563Y-10593031D01*
X12462563Y-10593031D02*
X12472086Y-10583508D01*
X12472086Y-10583508D02*
X12491134Y-10573984D01*
X12643515Y-10754936D02*
X12653039Y-10764460D01*
X12653039Y-10764460D02*
X12643515Y-10773984D01*
X12643515Y-10773984D02*
X12633991Y-10764460D01*
X12633991Y-10764460D02*
X12643515Y-10754936D01*
X12643515Y-10754936D02*
X12643515Y-10773984D01*
X12776848Y-10573984D02*
X12795896Y-10573984D01*
X12795896Y-10573984D02*
X12814944Y-10583508D01*
X12814944Y-10583508D02*
X12824467Y-10593031D01*
X12824467Y-10593031D02*
X12833991Y-10612079D01*
X12833991Y-10612079D02*
X12843515Y-10650174D01*
X12843515Y-10650174D02*
X12843515Y-10697793D01*
X12843515Y-10697793D02*
X12833991Y-10735889D01*
X12833991Y-10735889D02*
X12824467Y-10754936D01*
X12824467Y-10754936D02*
X12814944Y-10764460D01*
X12814944Y-10764460D02*
X12795896Y-10773984D01*
X12795896Y-10773984D02*
X12776848Y-10773984D01*
X12776848Y-10773984D02*
X12757801Y-10764460D01*
X12757801Y-10764460D02*
X12748277Y-10754936D01*
X12748277Y-10754936D02*
X12738753Y-10735889D01*
X12738753Y-10735889D02*
X12729229Y-10697793D01*
X12729229Y-10697793D02*
X12729229Y-10650174D01*
X12729229Y-10650174D02*
X12738753Y-10612079D01*
X12738753Y-10612079D02*
X12748277Y-10593031D01*
X12748277Y-10593031D02*
X12757801Y-10583508D01*
X12757801Y-10583508D02*
X12776848Y-10573984D01*
X12919706Y-10593031D02*
X12929229Y-10583508D01*
X12929229Y-10583508D02*
X12948277Y-10573984D01*
X12948277Y-10573984D02*
X12995896Y-10573984D01*
X12995896Y-10573984D02*
X13014944Y-10583508D01*
X13014944Y-10583508D02*
X13024467Y-10593031D01*
X13024467Y-10593031D02*
X13033991Y-10612079D01*
X13033991Y-10612079D02*
X13033991Y-10631127D01*
X13033991Y-10631127D02*
X13024467Y-10659698D01*
X13024467Y-10659698D02*
X12910182Y-10773984D01*
X12910182Y-10773984D02*
X13033991Y-10773984D01*
X13129229Y-10773984D02*
X13167325Y-10773984D01*
X13167325Y-10773984D02*
X13186372Y-10764460D01*
X13186372Y-10764460D02*
X13195896Y-10754936D01*
X13195896Y-10754936D02*
X13214944Y-10726365D01*
X13214944Y-10726365D02*
X13224467Y-10688270D01*
X13224467Y-10688270D02*
X13224467Y-10612079D01*
X13224467Y-10612079D02*
X13214944Y-10593031D01*
X13214944Y-10593031D02*
X13205420Y-10583508D01*
X13205420Y-10583508D02*
X13186372Y-10573984D01*
X13186372Y-10573984D02*
X13148277Y-10573984D01*
X13148277Y-10573984D02*
X13129229Y-10583508D01*
X13129229Y-10583508D02*
X13119706Y-10593031D01*
X13119706Y-10593031D02*
X13110182Y-10612079D01*
X13110182Y-10612079D02*
X13110182Y-10659698D01*
X13110182Y-10659698D02*
X13119706Y-10678746D01*
X13119706Y-10678746D02*
X13129229Y-10688270D01*
X13129229Y-10688270D02*
X13148277Y-10697793D01*
X13148277Y-10697793D02*
X13186372Y-10697793D01*
X13186372Y-10697793D02*
X13205420Y-10688270D01*
X13205420Y-10688270D02*
X13214944Y-10678746D01*
X13214944Y-10678746D02*
X13224467Y-10659698D01*
X13405420Y-10573984D02*
X13310182Y-10573984D01*
X13310182Y-10573984D02*
X13300658Y-10669222D01*
X13300658Y-10669222D02*
X13310182Y-10659698D01*
X13310182Y-10659698D02*
X13329229Y-10650174D01*
X13329229Y-10650174D02*
X13376848Y-10650174D01*
X13376848Y-10650174D02*
X13395896Y-10659698D01*
X13395896Y-10659698D02*
X13405420Y-10669222D01*
X13405420Y-10669222D02*
X13414944Y-10688270D01*
X13414944Y-10688270D02*
X13414944Y-10735889D01*
X13414944Y-10735889D02*
X13405420Y-10754936D01*
X13405420Y-10754936D02*
X13395896Y-10764460D01*
X13395896Y-10764460D02*
X13376848Y-10773984D01*
X13376848Y-10773984D02*
X13329229Y-10773984D01*
X13329229Y-10773984D02*
X13310182Y-10764460D01*
X13310182Y-10764460D02*
X13300658Y-10754936D01*
X13491134Y-10573984D02*
X13491134Y-10612079D01*
X13567325Y-10573984D02*
X13567325Y-10612079D01*
X13862563Y-10850174D02*
X13853039Y-10840650D01*
X13853039Y-10840650D02*
X13833991Y-10812079D01*
X13833991Y-10812079D02*
X13824468Y-10793031D01*
X13824468Y-10793031D02*
X13814944Y-10764460D01*
X13814944Y-10764460D02*
X13805420Y-10716841D01*
X13805420Y-10716841D02*
X13805420Y-10678746D01*
X13805420Y-10678746D02*
X13814944Y-10631127D01*
X13814944Y-10631127D02*
X13824468Y-10602555D01*
X13824468Y-10602555D02*
X13833991Y-10583508D01*
X13833991Y-10583508D02*
X13853039Y-10554936D01*
X13853039Y-10554936D02*
X13862563Y-10545412D01*
X13919706Y-10573984D02*
X14043515Y-10573984D01*
X14043515Y-10573984D02*
X13976848Y-10650174D01*
X13976848Y-10650174D02*
X14005420Y-10650174D01*
X14005420Y-10650174D02*
X14024468Y-10659698D01*
X14024468Y-10659698D02*
X14033991Y-10669222D01*
X14033991Y-10669222D02*
X14043515Y-10688270D01*
X14043515Y-10688270D02*
X14043515Y-10735889D01*
X14043515Y-10735889D02*
X14033991Y-10754936D01*
X14033991Y-10754936D02*
X14024468Y-10764460D01*
X14024468Y-10764460D02*
X14005420Y-10773984D01*
X14005420Y-10773984D02*
X13948277Y-10773984D01*
X13948277Y-10773984D02*
X13929229Y-10764460D01*
X13929229Y-10764460D02*
X13919706Y-10754936D01*
X14281610Y-10773984D02*
X14281610Y-10573984D01*
X14367325Y-10773984D02*
X14367325Y-10669222D01*
X14367325Y-10669222D02*
X14357801Y-10650174D01*
X14357801Y-10650174D02*
X14338753Y-10640650D01*
X14338753Y-10640650D02*
X14310182Y-10640650D01*
X14310182Y-10640650D02*
X14291134Y-10650174D01*
X14291134Y-10650174D02*
X14281610Y-10659698D01*
X14491134Y-10773984D02*
X14472087Y-10764460D01*
X14472087Y-10764460D02*
X14462563Y-10754936D01*
X14462563Y-10754936D02*
X14453039Y-10735889D01*
X14453039Y-10735889D02*
X14453039Y-10678746D01*
X14453039Y-10678746D02*
X14462563Y-10659698D01*
X14462563Y-10659698D02*
X14472087Y-10650174D01*
X14472087Y-10650174D02*
X14491134Y-10640650D01*
X14491134Y-10640650D02*
X14519706Y-10640650D01*
X14519706Y-10640650D02*
X14538753Y-10650174D01*
X14538753Y-10650174D02*
X14548277Y-10659698D01*
X14548277Y-10659698D02*
X14557801Y-10678746D01*
X14557801Y-10678746D02*
X14557801Y-10735889D01*
X14557801Y-10735889D02*
X14548277Y-10754936D01*
X14548277Y-10754936D02*
X14538753Y-10764460D01*
X14538753Y-10764460D02*
X14519706Y-10773984D01*
X14519706Y-10773984D02*
X14491134Y-10773984D01*
X14672087Y-10773984D02*
X14653039Y-10764460D01*
X14653039Y-10764460D02*
X14643515Y-10745412D01*
X14643515Y-10745412D02*
X14643515Y-10573984D01*
X14824468Y-10764460D02*
X14805420Y-10773984D01*
X14805420Y-10773984D02*
X14767325Y-10773984D01*
X14767325Y-10773984D02*
X14748277Y-10764460D01*
X14748277Y-10764460D02*
X14738753Y-10745412D01*
X14738753Y-10745412D02*
X14738753Y-10669222D01*
X14738753Y-10669222D02*
X14748277Y-10650174D01*
X14748277Y-10650174D02*
X14767325Y-10640650D01*
X14767325Y-10640650D02*
X14805420Y-10640650D01*
X14805420Y-10640650D02*
X14824468Y-10650174D01*
X14824468Y-10650174D02*
X14833991Y-10669222D01*
X14833991Y-10669222D02*
X14833991Y-10688270D01*
X14833991Y-10688270D02*
X14738753Y-10707317D01*
X14910182Y-10764460D02*
X14929230Y-10773984D01*
X14929230Y-10773984D02*
X14967325Y-10773984D01*
X14967325Y-10773984D02*
X14986372Y-10764460D01*
X14986372Y-10764460D02*
X14995896Y-10745412D01*
X14995896Y-10745412D02*
X14995896Y-10735889D01*
X14995896Y-10735889D02*
X14986372Y-10716841D01*
X14986372Y-10716841D02*
X14967325Y-10707317D01*
X14967325Y-10707317D02*
X14938753Y-10707317D01*
X14938753Y-10707317D02*
X14919706Y-10697793D01*
X14919706Y-10697793D02*
X14910182Y-10678746D01*
X14910182Y-10678746D02*
X14910182Y-10669222D01*
X14910182Y-10669222D02*
X14919706Y-10650174D01*
X14919706Y-10650174D02*
X14938753Y-10640650D01*
X14938753Y-10640650D02*
X14967325Y-10640650D01*
X14967325Y-10640650D02*
X14986372Y-10650174D01*
X15062563Y-10850174D02*
X15072087Y-10840650D01*
X15072087Y-10840650D02*
X15091134Y-10812079D01*
X15091134Y-10812079D02*
X15100658Y-10793031D01*
X15100658Y-10793031D02*
X15110182Y-10764460D01*
X15110182Y-10764460D02*
X15119706Y-10716841D01*
X15119706Y-10716841D02*
X15119706Y-10678746D01*
X15119706Y-10678746D02*
X15110182Y-10631127D01*
X15110182Y-10631127D02*
X15100658Y-10602555D01*
X15100658Y-10602555D02*
X15091134Y-10583508D01*
X15091134Y-10583508D02*
X15072087Y-10554936D01*
X15072087Y-10554936D02*
X15062563Y-10545412D01*
D12*
X10275052Y-10976552D02*
X10275052Y-10916448D01*
X10214948Y-10916448D01*
X10214948Y-10976552D01*
X10275052Y-10976552D01*
D11*
X10586372Y-10837984D02*
X10605420Y-10837984D01*
X10605420Y-10837984D02*
X10624467Y-10847508D01*
X10624467Y-10847508D02*
X10633991Y-10857031D01*
X10633991Y-10857031D02*
X10643515Y-10876079D01*
X10643515Y-10876079D02*
X10653039Y-10914174D01*
X10653039Y-10914174D02*
X10653039Y-10961793D01*
X10653039Y-10961793D02*
X10643515Y-10999889D01*
X10643515Y-10999889D02*
X10633991Y-11018936D01*
X10633991Y-11018936D02*
X10624467Y-11028460D01*
X10624467Y-11028460D02*
X10605420Y-11037984D01*
X10605420Y-11037984D02*
X10586372Y-11037984D01*
X10586372Y-11037984D02*
X10567324Y-11028460D01*
X10567324Y-11028460D02*
X10557801Y-11018936D01*
X10557801Y-11018936D02*
X10548277Y-10999889D01*
X10548277Y-10999889D02*
X10538753Y-10961793D01*
X10538753Y-10961793D02*
X10538753Y-10914174D01*
X10538753Y-10914174D02*
X10548277Y-10876079D01*
X10548277Y-10876079D02*
X10557801Y-10857031D01*
X10557801Y-10857031D02*
X10567324Y-10847508D01*
X10567324Y-10847508D02*
X10586372Y-10837984D01*
X10738753Y-11018936D02*
X10748277Y-11028460D01*
X10748277Y-11028460D02*
X10738753Y-11037984D01*
X10738753Y-11037984D02*
X10729229Y-11028460D01*
X10729229Y-11028460D02*
X10738753Y-11018936D01*
X10738753Y-11018936D02*
X10738753Y-11037984D01*
X10862563Y-10923698D02*
X10843515Y-10914174D01*
X10843515Y-10914174D02*
X10833991Y-10904650D01*
X10833991Y-10904650D02*
X10824467Y-10885603D01*
X10824467Y-10885603D02*
X10824467Y-10876079D01*
X10824467Y-10876079D02*
X10833991Y-10857031D01*
X10833991Y-10857031D02*
X10843515Y-10847508D01*
X10843515Y-10847508D02*
X10862563Y-10837984D01*
X10862563Y-10837984D02*
X10900658Y-10837984D01*
X10900658Y-10837984D02*
X10919705Y-10847508D01*
X10919705Y-10847508D02*
X10929229Y-10857031D01*
X10929229Y-10857031D02*
X10938753Y-10876079D01*
X10938753Y-10876079D02*
X10938753Y-10885603D01*
X10938753Y-10885603D02*
X10929229Y-10904650D01*
X10929229Y-10904650D02*
X10919705Y-10914174D01*
X10919705Y-10914174D02*
X10900658Y-10923698D01*
X10900658Y-10923698D02*
X10862563Y-10923698D01*
X10862563Y-10923698D02*
X10843515Y-10933222D01*
X10843515Y-10933222D02*
X10833991Y-10942746D01*
X10833991Y-10942746D02*
X10824467Y-10961793D01*
X10824467Y-10961793D02*
X10824467Y-10999889D01*
X10824467Y-10999889D02*
X10833991Y-11018936D01*
X10833991Y-11018936D02*
X10843515Y-11028460D01*
X10843515Y-11028460D02*
X10862563Y-11037984D01*
X10862563Y-11037984D02*
X10900658Y-11037984D01*
X10900658Y-11037984D02*
X10919705Y-11028460D01*
X10919705Y-11028460D02*
X10929229Y-11018936D01*
X10929229Y-11018936D02*
X10938753Y-10999889D01*
X10938753Y-10999889D02*
X10938753Y-10961793D01*
X10938753Y-10961793D02*
X10929229Y-10942746D01*
X10929229Y-10942746D02*
X10919705Y-10933222D01*
X10919705Y-10933222D02*
X10900658Y-10923698D01*
X11119705Y-10837984D02*
X11024467Y-10837984D01*
X11024467Y-10837984D02*
X11014944Y-10933222D01*
X11014944Y-10933222D02*
X11024467Y-10923698D01*
X11024467Y-10923698D02*
X11043515Y-10914174D01*
X11043515Y-10914174D02*
X11091134Y-10914174D01*
X11091134Y-10914174D02*
X11110182Y-10923698D01*
X11110182Y-10923698D02*
X11119705Y-10933222D01*
X11119705Y-10933222D02*
X11129229Y-10952270D01*
X11129229Y-10952270D02*
X11129229Y-10999889D01*
X11129229Y-10999889D02*
X11119705Y-11018936D01*
X11119705Y-11018936D02*
X11110182Y-11028460D01*
X11110182Y-11028460D02*
X11091134Y-11037984D01*
X11091134Y-11037984D02*
X11043515Y-11037984D01*
X11043515Y-11037984D02*
X11024467Y-11028460D01*
X11024467Y-11028460D02*
X11014944Y-11018936D01*
X11253039Y-10837984D02*
X11272086Y-10837984D01*
X11272086Y-10837984D02*
X11291134Y-10847508D01*
X11291134Y-10847508D02*
X11300658Y-10857031D01*
X11300658Y-10857031D02*
X11310182Y-10876079D01*
X11310182Y-10876079D02*
X11319705Y-10914174D01*
X11319705Y-10914174D02*
X11319705Y-10961793D01*
X11319705Y-10961793D02*
X11310182Y-10999889D01*
X11310182Y-10999889D02*
X11300658Y-11018936D01*
X11300658Y-11018936D02*
X11291134Y-11028460D01*
X11291134Y-11028460D02*
X11272086Y-11037984D01*
X11272086Y-11037984D02*
X11253039Y-11037984D01*
X11253039Y-11037984D02*
X11233991Y-11028460D01*
X11233991Y-11028460D02*
X11224467Y-11018936D01*
X11224467Y-11018936D02*
X11214943Y-10999889D01*
X11214943Y-10999889D02*
X11205420Y-10961793D01*
X11205420Y-10961793D02*
X11205420Y-10914174D01*
X11205420Y-10914174D02*
X11214943Y-10876079D01*
X11214943Y-10876079D02*
X11224467Y-10857031D01*
X11224467Y-10857031D02*
X11233991Y-10847508D01*
X11233991Y-10847508D02*
X11253039Y-10837984D01*
X11405420Y-11037984D02*
X11405420Y-10904650D01*
X11405420Y-10923698D02*
X11414943Y-10914174D01*
X11414943Y-10914174D02*
X11433991Y-10904650D01*
X11433991Y-10904650D02*
X11462563Y-10904650D01*
X11462563Y-10904650D02*
X11481610Y-10914174D01*
X11481610Y-10914174D02*
X11491134Y-10933222D01*
X11491134Y-10933222D02*
X11491134Y-11037984D01*
X11491134Y-10933222D02*
X11500658Y-10914174D01*
X11500658Y-10914174D02*
X11519705Y-10904650D01*
X11519705Y-10904650D02*
X11548277Y-10904650D01*
X11548277Y-10904650D02*
X11567324Y-10914174D01*
X11567324Y-10914174D02*
X11576848Y-10933222D01*
X11576848Y-10933222D02*
X11576848Y-11037984D01*
X11672086Y-11037984D02*
X11672086Y-10904650D01*
X11672086Y-10923698D02*
X11681610Y-10914174D01*
X11681610Y-10914174D02*
X11700658Y-10904650D01*
X11700658Y-10904650D02*
X11729229Y-10904650D01*
X11729229Y-10904650D02*
X11748277Y-10914174D01*
X11748277Y-10914174D02*
X11757801Y-10933222D01*
X11757801Y-10933222D02*
X11757801Y-11037984D01*
X11757801Y-10933222D02*
X11767324Y-10914174D01*
X11767324Y-10914174D02*
X11786372Y-10904650D01*
X11786372Y-10904650D02*
X11814943Y-10904650D01*
X11814943Y-10904650D02*
X11833991Y-10914174D01*
X11833991Y-10914174D02*
X11843515Y-10933222D01*
X11843515Y-10933222D02*
X11843515Y-11037984D01*
X12233991Y-10828460D02*
X12062563Y-11085603D01*
X12491134Y-10837984D02*
X12510182Y-10837984D01*
X12510182Y-10837984D02*
X12529229Y-10847508D01*
X12529229Y-10847508D02*
X12538753Y-10857031D01*
X12538753Y-10857031D02*
X12548277Y-10876079D01*
X12548277Y-10876079D02*
X12557801Y-10914174D01*
X12557801Y-10914174D02*
X12557801Y-10961793D01*
X12557801Y-10961793D02*
X12548277Y-10999889D01*
X12548277Y-10999889D02*
X12538753Y-11018936D01*
X12538753Y-11018936D02*
X12529229Y-11028460D01*
X12529229Y-11028460D02*
X12510182Y-11037984D01*
X12510182Y-11037984D02*
X12491134Y-11037984D01*
X12491134Y-11037984D02*
X12472086Y-11028460D01*
X12472086Y-11028460D02*
X12462563Y-11018936D01*
X12462563Y-11018936D02*
X12453039Y-10999889D01*
X12453039Y-10999889D02*
X12443515Y-10961793D01*
X12443515Y-10961793D02*
X12443515Y-10914174D01*
X12443515Y-10914174D02*
X12453039Y-10876079D01*
X12453039Y-10876079D02*
X12462563Y-10857031D01*
X12462563Y-10857031D02*
X12472086Y-10847508D01*
X12472086Y-10847508D02*
X12491134Y-10837984D01*
X12643515Y-11018936D02*
X12653039Y-11028460D01*
X12653039Y-11028460D02*
X12643515Y-11037984D01*
X12643515Y-11037984D02*
X12633991Y-11028460D01*
X12633991Y-11028460D02*
X12643515Y-11018936D01*
X12643515Y-11018936D02*
X12643515Y-11037984D01*
X12776848Y-10837984D02*
X12795896Y-10837984D01*
X12795896Y-10837984D02*
X12814944Y-10847508D01*
X12814944Y-10847508D02*
X12824467Y-10857031D01*
X12824467Y-10857031D02*
X12833991Y-10876079D01*
X12833991Y-10876079D02*
X12843515Y-10914174D01*
X12843515Y-10914174D02*
X12843515Y-10961793D01*
X12843515Y-10961793D02*
X12833991Y-10999889D01*
X12833991Y-10999889D02*
X12824467Y-11018936D01*
X12824467Y-11018936D02*
X12814944Y-11028460D01*
X12814944Y-11028460D02*
X12795896Y-11037984D01*
X12795896Y-11037984D02*
X12776848Y-11037984D01*
X12776848Y-11037984D02*
X12757801Y-11028460D01*
X12757801Y-11028460D02*
X12748277Y-11018936D01*
X12748277Y-11018936D02*
X12738753Y-10999889D01*
X12738753Y-10999889D02*
X12729229Y-10961793D01*
X12729229Y-10961793D02*
X12729229Y-10914174D01*
X12729229Y-10914174D02*
X12738753Y-10876079D01*
X12738753Y-10876079D02*
X12748277Y-10857031D01*
X12748277Y-10857031D02*
X12757801Y-10847508D01*
X12757801Y-10847508D02*
X12776848Y-10837984D01*
X12910182Y-10837984D02*
X13033991Y-10837984D01*
X13033991Y-10837984D02*
X12967325Y-10914174D01*
X12967325Y-10914174D02*
X12995896Y-10914174D01*
X12995896Y-10914174D02*
X13014944Y-10923698D01*
X13014944Y-10923698D02*
X13024467Y-10933222D01*
X13024467Y-10933222D02*
X13033991Y-10952270D01*
X13033991Y-10952270D02*
X13033991Y-10999889D01*
X13033991Y-10999889D02*
X13024467Y-11018936D01*
X13024467Y-11018936D02*
X13014944Y-11028460D01*
X13014944Y-11028460D02*
X12995896Y-11037984D01*
X12995896Y-11037984D02*
X12938753Y-11037984D01*
X12938753Y-11037984D02*
X12919706Y-11028460D01*
X12919706Y-11028460D02*
X12910182Y-11018936D01*
X13100658Y-10837984D02*
X13224467Y-10837984D01*
X13224467Y-10837984D02*
X13157801Y-10914174D01*
X13157801Y-10914174D02*
X13186372Y-10914174D01*
X13186372Y-10914174D02*
X13205420Y-10923698D01*
X13205420Y-10923698D02*
X13214944Y-10933222D01*
X13214944Y-10933222D02*
X13224467Y-10952270D01*
X13224467Y-10952270D02*
X13224467Y-10999889D01*
X13224467Y-10999889D02*
X13214944Y-11018936D01*
X13214944Y-11018936D02*
X13205420Y-11028460D01*
X13205420Y-11028460D02*
X13186372Y-11037984D01*
X13186372Y-11037984D02*
X13129229Y-11037984D01*
X13129229Y-11037984D02*
X13110182Y-11028460D01*
X13110182Y-11028460D02*
X13100658Y-11018936D01*
X13405420Y-10837984D02*
X13310182Y-10837984D01*
X13310182Y-10837984D02*
X13300658Y-10933222D01*
X13300658Y-10933222D02*
X13310182Y-10923698D01*
X13310182Y-10923698D02*
X13329229Y-10914174D01*
X13329229Y-10914174D02*
X13376848Y-10914174D01*
X13376848Y-10914174D02*
X13395896Y-10923698D01*
X13395896Y-10923698D02*
X13405420Y-10933222D01*
X13405420Y-10933222D02*
X13414944Y-10952270D01*
X13414944Y-10952270D02*
X13414944Y-10999889D01*
X13414944Y-10999889D02*
X13405420Y-11018936D01*
X13405420Y-11018936D02*
X13395896Y-11028460D01*
X13395896Y-11028460D02*
X13376848Y-11037984D01*
X13376848Y-11037984D02*
X13329229Y-11037984D01*
X13329229Y-11037984D02*
X13310182Y-11028460D01*
X13310182Y-11028460D02*
X13300658Y-11018936D01*
X13491134Y-10837984D02*
X13491134Y-10876079D01*
X13567325Y-10837984D02*
X13567325Y-10876079D01*
X13862563Y-11114174D02*
X13853039Y-11104650D01*
X13853039Y-11104650D02*
X13833991Y-11076079D01*
X13833991Y-11076079D02*
X13824468Y-11057031D01*
X13824468Y-11057031D02*
X13814944Y-11028460D01*
X13814944Y-11028460D02*
X13805420Y-10980841D01*
X13805420Y-10980841D02*
X13805420Y-10942746D01*
X13805420Y-10942746D02*
X13814944Y-10895127D01*
X13814944Y-10895127D02*
X13824468Y-10866555D01*
X13824468Y-10866555D02*
X13833991Y-10847508D01*
X13833991Y-10847508D02*
X13853039Y-10818936D01*
X13853039Y-10818936D02*
X13862563Y-10809412D01*
X14024468Y-10837984D02*
X13986372Y-10837984D01*
X13986372Y-10837984D02*
X13967325Y-10847508D01*
X13967325Y-10847508D02*
X13957801Y-10857031D01*
X13957801Y-10857031D02*
X13938753Y-10885603D01*
X13938753Y-10885603D02*
X13929229Y-10923698D01*
X13929229Y-10923698D02*
X13929229Y-10999889D01*
X13929229Y-10999889D02*
X13938753Y-11018936D01*
X13938753Y-11018936D02*
X13948277Y-11028460D01*
X13948277Y-11028460D02*
X13967325Y-11037984D01*
X13967325Y-11037984D02*
X14005420Y-11037984D01*
X14005420Y-11037984D02*
X14024468Y-11028460D01*
X14024468Y-11028460D02*
X14033991Y-11018936D01*
X14033991Y-11018936D02*
X14043515Y-10999889D01*
X14043515Y-10999889D02*
X14043515Y-10952270D01*
X14043515Y-10952270D02*
X14033991Y-10933222D01*
X14033991Y-10933222D02*
X14024468Y-10923698D01*
X14024468Y-10923698D02*
X14005420Y-10914174D01*
X14005420Y-10914174D02*
X13967325Y-10914174D01*
X13967325Y-10914174D02*
X13948277Y-10923698D01*
X13948277Y-10923698D02*
X13938753Y-10933222D01*
X13938753Y-10933222D02*
X13929229Y-10952270D01*
X14281610Y-11037984D02*
X14281610Y-10837984D01*
X14367325Y-11037984D02*
X14367325Y-10933222D01*
X14367325Y-10933222D02*
X14357801Y-10914174D01*
X14357801Y-10914174D02*
X14338753Y-10904650D01*
X14338753Y-10904650D02*
X14310182Y-10904650D01*
X14310182Y-10904650D02*
X14291134Y-10914174D01*
X14291134Y-10914174D02*
X14281610Y-10923698D01*
X14491134Y-11037984D02*
X14472087Y-11028460D01*
X14472087Y-11028460D02*
X14462563Y-11018936D01*
X14462563Y-11018936D02*
X14453039Y-10999889D01*
X14453039Y-10999889D02*
X14453039Y-10942746D01*
X14453039Y-10942746D02*
X14462563Y-10923698D01*
X14462563Y-10923698D02*
X14472087Y-10914174D01*
X14472087Y-10914174D02*
X14491134Y-10904650D01*
X14491134Y-10904650D02*
X14519706Y-10904650D01*
X14519706Y-10904650D02*
X14538753Y-10914174D01*
X14538753Y-10914174D02*
X14548277Y-10923698D01*
X14548277Y-10923698D02*
X14557801Y-10942746D01*
X14557801Y-10942746D02*
X14557801Y-10999889D01*
X14557801Y-10999889D02*
X14548277Y-11018936D01*
X14548277Y-11018936D02*
X14538753Y-11028460D01*
X14538753Y-11028460D02*
X14519706Y-11037984D01*
X14519706Y-11037984D02*
X14491134Y-11037984D01*
X14672087Y-11037984D02*
X14653039Y-11028460D01*
X14653039Y-11028460D02*
X14643515Y-11009412D01*
X14643515Y-11009412D02*
X14643515Y-10837984D01*
X14824468Y-11028460D02*
X14805420Y-11037984D01*
X14805420Y-11037984D02*
X14767325Y-11037984D01*
X14767325Y-11037984D02*
X14748277Y-11028460D01*
X14748277Y-11028460D02*
X14738753Y-11009412D01*
X14738753Y-11009412D02*
X14738753Y-10933222D01*
X14738753Y-10933222D02*
X14748277Y-10914174D01*
X14748277Y-10914174D02*
X14767325Y-10904650D01*
X14767325Y-10904650D02*
X14805420Y-10904650D01*
X14805420Y-10904650D02*
X14824468Y-10914174D01*
X14824468Y-10914174D02*
X14833991Y-10933222D01*
X14833991Y-10933222D02*
X14833991Y-10952270D01*
X14833991Y-10952270D02*
X14738753Y-10971317D01*
X14910182Y-11028460D02*
X14929230Y-11037984D01*
X14929230Y-11037984D02*
X14967325Y-11037984D01*
X14967325Y-11037984D02*
X14986372Y-11028460D01*
X14986372Y-11028460D02*
X14995896Y-11009412D01*
X14995896Y-11009412D02*
X14995896Y-10999889D01*
X14995896Y-10999889D02*
X14986372Y-10980841D01*
X14986372Y-10980841D02*
X14967325Y-10971317D01*
X14967325Y-10971317D02*
X14938753Y-10971317D01*
X14938753Y-10971317D02*
X14919706Y-10961793D01*
X14919706Y-10961793D02*
X14910182Y-10942746D01*
X14910182Y-10942746D02*
X14910182Y-10933222D01*
X14910182Y-10933222D02*
X14919706Y-10914174D01*
X14919706Y-10914174D02*
X14938753Y-10904650D01*
X14938753Y-10904650D02*
X14967325Y-10904650D01*
X14967325Y-10904650D02*
X14986372Y-10914174D01*
X15062563Y-11114174D02*
X15072087Y-11104650D01*
X15072087Y-11104650D02*
X15091134Y-11076079D01*
X15091134Y-11076079D02*
X15100658Y-11057031D01*
X15100658Y-11057031D02*
X15110182Y-11028460D01*
X15110182Y-11028460D02*
X15119706Y-10980841D01*
X15119706Y-10980841D02*
X15119706Y-10942746D01*
X15119706Y-10942746D02*
X15110182Y-10895127D01*
X15110182Y-10895127D02*
X15100658Y-10866555D01*
X15100658Y-10866555D02*
X15091134Y-10847508D01*
X15091134Y-10847508D02*
X15072087Y-10818936D01*
X15072087Y-10818936D02*
X15062563Y-10809412D01*
D12*
X10237500Y-11260500D02*
X10287500Y-11210500D01*
X10237500Y-11160500D01*
X10187500Y-11210500D01*
X10237500Y-11260500D01*
D11*
X10653039Y-11301984D02*
X10538753Y-11301984D01*
X10595896Y-11301984D02*
X10595896Y-11101984D01*
X10595896Y-11101984D02*
X10576848Y-11130555D01*
X10576848Y-11130555D02*
X10557801Y-11149603D01*
X10557801Y-11149603D02*
X10538753Y-11159127D01*
X10738753Y-11282936D02*
X10748277Y-11292460D01*
X10748277Y-11292460D02*
X10738753Y-11301984D01*
X10738753Y-11301984D02*
X10729229Y-11292460D01*
X10729229Y-11292460D02*
X10738753Y-11282936D01*
X10738753Y-11282936D02*
X10738753Y-11301984D01*
X10872086Y-11101984D02*
X10891134Y-11101984D01*
X10891134Y-11101984D02*
X10910182Y-11111508D01*
X10910182Y-11111508D02*
X10919705Y-11121031D01*
X10919705Y-11121031D02*
X10929229Y-11140079D01*
X10929229Y-11140079D02*
X10938753Y-11178174D01*
X10938753Y-11178174D02*
X10938753Y-11225793D01*
X10938753Y-11225793D02*
X10929229Y-11263888D01*
X10929229Y-11263888D02*
X10919705Y-11282936D01*
X10919705Y-11282936D02*
X10910182Y-11292460D01*
X10910182Y-11292460D02*
X10891134Y-11301984D01*
X10891134Y-11301984D02*
X10872086Y-11301984D01*
X10872086Y-11301984D02*
X10853039Y-11292460D01*
X10853039Y-11292460D02*
X10843515Y-11282936D01*
X10843515Y-11282936D02*
X10833991Y-11263888D01*
X10833991Y-11263888D02*
X10824467Y-11225793D01*
X10824467Y-11225793D02*
X10824467Y-11178174D01*
X10824467Y-11178174D02*
X10833991Y-11140079D01*
X10833991Y-11140079D02*
X10843515Y-11121031D01*
X10843515Y-11121031D02*
X10853039Y-11111508D01*
X10853039Y-11111508D02*
X10872086Y-11101984D01*
X11062563Y-11101984D02*
X11081610Y-11101984D01*
X11081610Y-11101984D02*
X11100658Y-11111508D01*
X11100658Y-11111508D02*
X11110182Y-11121031D01*
X11110182Y-11121031D02*
X11119705Y-11140079D01*
X11119705Y-11140079D02*
X11129229Y-11178174D01*
X11129229Y-11178174D02*
X11129229Y-11225793D01*
X11129229Y-11225793D02*
X11119705Y-11263888D01*
X11119705Y-11263888D02*
X11110182Y-11282936D01*
X11110182Y-11282936D02*
X11100658Y-11292460D01*
X11100658Y-11292460D02*
X11081610Y-11301984D01*
X11081610Y-11301984D02*
X11062563Y-11301984D01*
X11062563Y-11301984D02*
X11043515Y-11292460D01*
X11043515Y-11292460D02*
X11033991Y-11282936D01*
X11033991Y-11282936D02*
X11024467Y-11263888D01*
X11024467Y-11263888D02*
X11014944Y-11225793D01*
X11014944Y-11225793D02*
X11014944Y-11178174D01*
X11014944Y-11178174D02*
X11024467Y-11140079D01*
X11024467Y-11140079D02*
X11033991Y-11121031D01*
X11033991Y-11121031D02*
X11043515Y-11111508D01*
X11043515Y-11111508D02*
X11062563Y-11101984D01*
X11253039Y-11101984D02*
X11272086Y-11101984D01*
X11272086Y-11101984D02*
X11291134Y-11111508D01*
X11291134Y-11111508D02*
X11300658Y-11121031D01*
X11300658Y-11121031D02*
X11310182Y-11140079D01*
X11310182Y-11140079D02*
X11319705Y-11178174D01*
X11319705Y-11178174D02*
X11319705Y-11225793D01*
X11319705Y-11225793D02*
X11310182Y-11263888D01*
X11310182Y-11263888D02*
X11300658Y-11282936D01*
X11300658Y-11282936D02*
X11291134Y-11292460D01*
X11291134Y-11292460D02*
X11272086Y-11301984D01*
X11272086Y-11301984D02*
X11253039Y-11301984D01*
X11253039Y-11301984D02*
X11233991Y-11292460D01*
X11233991Y-11292460D02*
X11224467Y-11282936D01*
X11224467Y-11282936D02*
X11214943Y-11263888D01*
X11214943Y-11263888D02*
X11205420Y-11225793D01*
X11205420Y-11225793D02*
X11205420Y-11178174D01*
X11205420Y-11178174D02*
X11214943Y-11140079D01*
X11214943Y-11140079D02*
X11224467Y-11121031D01*
X11224467Y-11121031D02*
X11233991Y-11111508D01*
X11233991Y-11111508D02*
X11253039Y-11101984D01*
X11405420Y-11301984D02*
X11405420Y-11168650D01*
X11405420Y-11187698D02*
X11414943Y-11178174D01*
X11414943Y-11178174D02*
X11433991Y-11168650D01*
X11433991Y-11168650D02*
X11462563Y-11168650D01*
X11462563Y-11168650D02*
X11481610Y-11178174D01*
X11481610Y-11178174D02*
X11491134Y-11197222D01*
X11491134Y-11197222D02*
X11491134Y-11301984D01*
X11491134Y-11197222D02*
X11500658Y-11178174D01*
X11500658Y-11178174D02*
X11519705Y-11168650D01*
X11519705Y-11168650D02*
X11548277Y-11168650D01*
X11548277Y-11168650D02*
X11567324Y-11178174D01*
X11567324Y-11178174D02*
X11576848Y-11197222D01*
X11576848Y-11197222D02*
X11576848Y-11301984D01*
X11672086Y-11301984D02*
X11672086Y-11168650D01*
X11672086Y-11187698D02*
X11681610Y-11178174D01*
X11681610Y-11178174D02*
X11700658Y-11168650D01*
X11700658Y-11168650D02*
X11729229Y-11168650D01*
X11729229Y-11168650D02*
X11748277Y-11178174D01*
X11748277Y-11178174D02*
X11757801Y-11197222D01*
X11757801Y-11197222D02*
X11757801Y-11301984D01*
X11757801Y-11197222D02*
X11767324Y-11178174D01*
X11767324Y-11178174D02*
X11786372Y-11168650D01*
X11786372Y-11168650D02*
X11814943Y-11168650D01*
X11814943Y-11168650D02*
X11833991Y-11178174D01*
X11833991Y-11178174D02*
X11843515Y-11197222D01*
X11843515Y-11197222D02*
X11843515Y-11301984D01*
X12233991Y-11092460D02*
X12062563Y-11349603D01*
X12491134Y-11101984D02*
X12510182Y-11101984D01*
X12510182Y-11101984D02*
X12529229Y-11111508D01*
X12529229Y-11111508D02*
X12538753Y-11121031D01*
X12538753Y-11121031D02*
X12548277Y-11140079D01*
X12548277Y-11140079D02*
X12557801Y-11178174D01*
X12557801Y-11178174D02*
X12557801Y-11225793D01*
X12557801Y-11225793D02*
X12548277Y-11263888D01*
X12548277Y-11263888D02*
X12538753Y-11282936D01*
X12538753Y-11282936D02*
X12529229Y-11292460D01*
X12529229Y-11292460D02*
X12510182Y-11301984D01*
X12510182Y-11301984D02*
X12491134Y-11301984D01*
X12491134Y-11301984D02*
X12472086Y-11292460D01*
X12472086Y-11292460D02*
X12462563Y-11282936D01*
X12462563Y-11282936D02*
X12453039Y-11263888D01*
X12453039Y-11263888D02*
X12443515Y-11225793D01*
X12443515Y-11225793D02*
X12443515Y-11178174D01*
X12443515Y-11178174D02*
X12453039Y-11140079D01*
X12453039Y-11140079D02*
X12462563Y-11121031D01*
X12462563Y-11121031D02*
X12472086Y-11111508D01*
X12472086Y-11111508D02*
X12491134Y-11101984D01*
X12643515Y-11282936D02*
X12653039Y-11292460D01*
X12653039Y-11292460D02*
X12643515Y-11301984D01*
X12643515Y-11301984D02*
X12633991Y-11292460D01*
X12633991Y-11292460D02*
X12643515Y-11282936D01*
X12643515Y-11282936D02*
X12643515Y-11301984D01*
X12776848Y-11101984D02*
X12795896Y-11101984D01*
X12795896Y-11101984D02*
X12814944Y-11111508D01*
X12814944Y-11111508D02*
X12824467Y-11121031D01*
X12824467Y-11121031D02*
X12833991Y-11140079D01*
X12833991Y-11140079D02*
X12843515Y-11178174D01*
X12843515Y-11178174D02*
X12843515Y-11225793D01*
X12843515Y-11225793D02*
X12833991Y-11263888D01*
X12833991Y-11263888D02*
X12824467Y-11282936D01*
X12824467Y-11282936D02*
X12814944Y-11292460D01*
X12814944Y-11292460D02*
X12795896Y-11301984D01*
X12795896Y-11301984D02*
X12776848Y-11301984D01*
X12776848Y-11301984D02*
X12757801Y-11292460D01*
X12757801Y-11292460D02*
X12748277Y-11282936D01*
X12748277Y-11282936D02*
X12738753Y-11263888D01*
X12738753Y-11263888D02*
X12729229Y-11225793D01*
X12729229Y-11225793D02*
X12729229Y-11178174D01*
X12729229Y-11178174D02*
X12738753Y-11140079D01*
X12738753Y-11140079D02*
X12748277Y-11121031D01*
X12748277Y-11121031D02*
X12757801Y-11111508D01*
X12757801Y-11111508D02*
X12776848Y-11101984D01*
X12910182Y-11101984D02*
X13033991Y-11101984D01*
X13033991Y-11101984D02*
X12967325Y-11178174D01*
X12967325Y-11178174D02*
X12995896Y-11178174D01*
X12995896Y-11178174D02*
X13014944Y-11187698D01*
X13014944Y-11187698D02*
X13024467Y-11197222D01*
X13024467Y-11197222D02*
X13033991Y-11216269D01*
X13033991Y-11216269D02*
X13033991Y-11263888D01*
X13033991Y-11263888D02*
X13024467Y-11282936D01*
X13024467Y-11282936D02*
X13014944Y-11292460D01*
X13014944Y-11292460D02*
X12995896Y-11301984D01*
X12995896Y-11301984D02*
X12938753Y-11301984D01*
X12938753Y-11301984D02*
X12919706Y-11292460D01*
X12919706Y-11292460D02*
X12910182Y-11282936D01*
X13129229Y-11301984D02*
X13167325Y-11301984D01*
X13167325Y-11301984D02*
X13186372Y-11292460D01*
X13186372Y-11292460D02*
X13195896Y-11282936D01*
X13195896Y-11282936D02*
X13214944Y-11254365D01*
X13214944Y-11254365D02*
X13224467Y-11216269D01*
X13224467Y-11216269D02*
X13224467Y-11140079D01*
X13224467Y-11140079D02*
X13214944Y-11121031D01*
X13214944Y-11121031D02*
X13205420Y-11111508D01*
X13205420Y-11111508D02*
X13186372Y-11101984D01*
X13186372Y-11101984D02*
X13148277Y-11101984D01*
X13148277Y-11101984D02*
X13129229Y-11111508D01*
X13129229Y-11111508D02*
X13119706Y-11121031D01*
X13119706Y-11121031D02*
X13110182Y-11140079D01*
X13110182Y-11140079D02*
X13110182Y-11187698D01*
X13110182Y-11187698D02*
X13119706Y-11206746D01*
X13119706Y-11206746D02*
X13129229Y-11216269D01*
X13129229Y-11216269D02*
X13148277Y-11225793D01*
X13148277Y-11225793D02*
X13186372Y-11225793D01*
X13186372Y-11225793D02*
X13205420Y-11216269D01*
X13205420Y-11216269D02*
X13214944Y-11206746D01*
X13214944Y-11206746D02*
X13224467Y-11187698D01*
X13395896Y-11168650D02*
X13395896Y-11301984D01*
X13348277Y-11092460D02*
X13300658Y-11235317D01*
X13300658Y-11235317D02*
X13424467Y-11235317D01*
X13491134Y-11101984D02*
X13491134Y-11140079D01*
X13567325Y-11101984D02*
X13567325Y-11140079D01*
X13862563Y-11378174D02*
X13853039Y-11368650D01*
X13853039Y-11368650D02*
X13833991Y-11340079D01*
X13833991Y-11340079D02*
X13824468Y-11321031D01*
X13824468Y-11321031D02*
X13814944Y-11292460D01*
X13814944Y-11292460D02*
X13805420Y-11244841D01*
X13805420Y-11244841D02*
X13805420Y-11206746D01*
X13805420Y-11206746D02*
X13814944Y-11159127D01*
X13814944Y-11159127D02*
X13824468Y-11130555D01*
X13824468Y-11130555D02*
X13833991Y-11111508D01*
X13833991Y-11111508D02*
X13853039Y-11082936D01*
X13853039Y-11082936D02*
X13862563Y-11073412D01*
X14024468Y-11168650D02*
X14024468Y-11301984D01*
X13976848Y-11092460D02*
X13929229Y-11235317D01*
X13929229Y-11235317D02*
X14053039Y-11235317D01*
X14281610Y-11301984D02*
X14281610Y-11101984D01*
X14367325Y-11301984D02*
X14367325Y-11197222D01*
X14367325Y-11197222D02*
X14357801Y-11178174D01*
X14357801Y-11178174D02*
X14338753Y-11168650D01*
X14338753Y-11168650D02*
X14310182Y-11168650D01*
X14310182Y-11168650D02*
X14291134Y-11178174D01*
X14291134Y-11178174D02*
X14281610Y-11187698D01*
X14491134Y-11301984D02*
X14472087Y-11292460D01*
X14472087Y-11292460D02*
X14462563Y-11282936D01*
X14462563Y-11282936D02*
X14453039Y-11263888D01*
X14453039Y-11263888D02*
X14453039Y-11206746D01*
X14453039Y-11206746D02*
X14462563Y-11187698D01*
X14462563Y-11187698D02*
X14472087Y-11178174D01*
X14472087Y-11178174D02*
X14491134Y-11168650D01*
X14491134Y-11168650D02*
X14519706Y-11168650D01*
X14519706Y-11168650D02*
X14538753Y-11178174D01*
X14538753Y-11178174D02*
X14548277Y-11187698D01*
X14548277Y-11187698D02*
X14557801Y-11206746D01*
X14557801Y-11206746D02*
X14557801Y-11263888D01*
X14557801Y-11263888D02*
X14548277Y-11282936D01*
X14548277Y-11282936D02*
X14538753Y-11292460D01*
X14538753Y-11292460D02*
X14519706Y-11301984D01*
X14519706Y-11301984D02*
X14491134Y-11301984D01*
X14672087Y-11301984D02*
X14653039Y-11292460D01*
X14653039Y-11292460D02*
X14643515Y-11273412D01*
X14643515Y-11273412D02*
X14643515Y-11101984D01*
X14824468Y-11292460D02*
X14805420Y-11301984D01*
X14805420Y-11301984D02*
X14767325Y-11301984D01*
X14767325Y-11301984D02*
X14748277Y-11292460D01*
X14748277Y-11292460D02*
X14738753Y-11273412D01*
X14738753Y-11273412D02*
X14738753Y-11197222D01*
X14738753Y-11197222D02*
X14748277Y-11178174D01*
X14748277Y-11178174D02*
X14767325Y-11168650D01*
X14767325Y-11168650D02*
X14805420Y-11168650D01*
X14805420Y-11168650D02*
X14824468Y-11178174D01*
X14824468Y-11178174D02*
X14833991Y-11197222D01*
X14833991Y-11197222D02*
X14833991Y-11216269D01*
X14833991Y-11216269D02*
X14738753Y-11235317D01*
X14910182Y-11292460D02*
X14929230Y-11301984D01*
X14929230Y-11301984D02*
X14967325Y-11301984D01*
X14967325Y-11301984D02*
X14986372Y-11292460D01*
X14986372Y-11292460D02*
X14995896Y-11273412D01*
X14995896Y-11273412D02*
X14995896Y-11263888D01*
X14995896Y-11263888D02*
X14986372Y-11244841D01*
X14986372Y-11244841D02*
X14967325Y-11235317D01*
X14967325Y-11235317D02*
X14938753Y-11235317D01*
X14938753Y-11235317D02*
X14919706Y-11225793D01*
X14919706Y-11225793D02*
X14910182Y-11206746D01*
X14910182Y-11206746D02*
X14910182Y-11197222D01*
X14910182Y-11197222D02*
X14919706Y-11178174D01*
X14919706Y-11178174D02*
X14938753Y-11168650D01*
X14938753Y-11168650D02*
X14967325Y-11168650D01*
X14967325Y-11168650D02*
X14986372Y-11178174D01*
X15233992Y-11225793D02*
X15386373Y-11225793D01*
X15310182Y-11301984D02*
X15310182Y-11149603D01*
X15624468Y-11121031D02*
X15633992Y-11111508D01*
X15633992Y-11111508D02*
X15653039Y-11101984D01*
X15653039Y-11101984D02*
X15700658Y-11101984D01*
X15700658Y-11101984D02*
X15719706Y-11111508D01*
X15719706Y-11111508D02*
X15729230Y-11121031D01*
X15729230Y-11121031D02*
X15738753Y-11140079D01*
X15738753Y-11140079D02*
X15738753Y-11159127D01*
X15738753Y-11159127D02*
X15729230Y-11187698D01*
X15729230Y-11187698D02*
X15614944Y-11301984D01*
X15614944Y-11301984D02*
X15738753Y-11301984D01*
X15967325Y-11292460D02*
X15986373Y-11301984D01*
X15986373Y-11301984D02*
X16024468Y-11301984D01*
X16024468Y-11301984D02*
X16043515Y-11292460D01*
X16043515Y-11292460D02*
X16053039Y-11273412D01*
X16053039Y-11273412D02*
X16053039Y-11263888D01*
X16053039Y-11263888D02*
X16043515Y-11244841D01*
X16043515Y-11244841D02*
X16024468Y-11235317D01*
X16024468Y-11235317D02*
X15995896Y-11235317D01*
X15995896Y-11235317D02*
X15976849Y-11225793D01*
X15976849Y-11225793D02*
X15967325Y-11206746D01*
X15967325Y-11206746D02*
X15967325Y-11197222D01*
X15967325Y-11197222D02*
X15976849Y-11178174D01*
X15976849Y-11178174D02*
X15995896Y-11168650D01*
X15995896Y-11168650D02*
X16024468Y-11168650D01*
X16024468Y-11168650D02*
X16043515Y-11178174D01*
X16167325Y-11301984D02*
X16148277Y-11292460D01*
X16148277Y-11292460D02*
X16138754Y-11273412D01*
X16138754Y-11273412D02*
X16138754Y-11101984D01*
X16272087Y-11301984D02*
X16253039Y-11292460D01*
X16253039Y-11292460D02*
X16243515Y-11282936D01*
X16243515Y-11282936D02*
X16233992Y-11263888D01*
X16233992Y-11263888D02*
X16233992Y-11206746D01*
X16233992Y-11206746D02*
X16243515Y-11187698D01*
X16243515Y-11187698D02*
X16253039Y-11178174D01*
X16253039Y-11178174D02*
X16272087Y-11168650D01*
X16272087Y-11168650D02*
X16300658Y-11168650D01*
X16300658Y-11168650D02*
X16319706Y-11178174D01*
X16319706Y-11178174D02*
X16329230Y-11187698D01*
X16329230Y-11187698D02*
X16338754Y-11206746D01*
X16338754Y-11206746D02*
X16338754Y-11263888D01*
X16338754Y-11263888D02*
X16329230Y-11282936D01*
X16329230Y-11282936D02*
X16319706Y-11292460D01*
X16319706Y-11292460D02*
X16300658Y-11301984D01*
X16300658Y-11301984D02*
X16272087Y-11301984D01*
X16395896Y-11168650D02*
X16472087Y-11168650D01*
X16424468Y-11101984D02*
X16424468Y-11273412D01*
X16424468Y-11273412D02*
X16433992Y-11292460D01*
X16433992Y-11292460D02*
X16453039Y-11301984D01*
X16453039Y-11301984D02*
X16472087Y-11301984D01*
X16529230Y-11292460D02*
X16548277Y-11301984D01*
X16548277Y-11301984D02*
X16586373Y-11301984D01*
X16586373Y-11301984D02*
X16605420Y-11292460D01*
X16605420Y-11292460D02*
X16614944Y-11273412D01*
X16614944Y-11273412D02*
X16614944Y-11263888D01*
X16614944Y-11263888D02*
X16605420Y-11244841D01*
X16605420Y-11244841D02*
X16586373Y-11235317D01*
X16586373Y-11235317D02*
X16557801Y-11235317D01*
X16557801Y-11235317D02*
X16538754Y-11225793D01*
X16538754Y-11225793D02*
X16529230Y-11206746D01*
X16529230Y-11206746D02*
X16529230Y-11197222D01*
X16529230Y-11197222D02*
X16538754Y-11178174D01*
X16538754Y-11178174D02*
X16557801Y-11168650D01*
X16557801Y-11168650D02*
X16586373Y-11168650D01*
X16586373Y-11168650D02*
X16605420Y-11178174D01*
X16681611Y-11378174D02*
X16691135Y-11368650D01*
X16691135Y-11368650D02*
X16710182Y-11340079D01*
X16710182Y-11340079D02*
X16719706Y-11321031D01*
X16719706Y-11321031D02*
X16729230Y-11292460D01*
X16729230Y-11292460D02*
X16738754Y-11244841D01*
X16738754Y-11244841D02*
X16738754Y-11206746D01*
X16738754Y-11206746D02*
X16729230Y-11159127D01*
X16729230Y-11159127D02*
X16719706Y-11130555D01*
X16719706Y-11130555D02*
X16710182Y-11111508D01*
X16710182Y-11111508D02*
X16691135Y-11082936D01*
X16691135Y-11082936D02*
X16681611Y-11073412D01*
X10087500Y-11374500D02*
X10287500Y-11574500D01*
X10287500Y-11374500D02*
X10087500Y-11574500D01*
X10287500Y-11474500D02*
G75*
G02*
X10087500Y-11474500I-100000J0D01*
G01*
X10087500Y-11474500D02*
G75*
G02*
X10287500Y-11474500I100000J0D01*
G01*
X10538753Y-11385031D02*
X10548277Y-11375508D01*
X10548277Y-11375508D02*
X10567324Y-11365984D01*
X10567324Y-11365984D02*
X10614944Y-11365984D01*
X10614944Y-11365984D02*
X10633991Y-11375508D01*
X10633991Y-11375508D02*
X10643515Y-11385031D01*
X10643515Y-11385031D02*
X10653039Y-11404079D01*
X10653039Y-11404079D02*
X10653039Y-11423127D01*
X10653039Y-11423127D02*
X10643515Y-11451698D01*
X10643515Y-11451698D02*
X10529229Y-11565984D01*
X10529229Y-11565984D02*
X10653039Y-11565984D01*
X10738753Y-11546936D02*
X10748277Y-11556460D01*
X10748277Y-11556460D02*
X10738753Y-11565984D01*
X10738753Y-11565984D02*
X10729229Y-11556460D01*
X10729229Y-11556460D02*
X10738753Y-11546936D01*
X10738753Y-11546936D02*
X10738753Y-11565984D01*
X10824467Y-11385031D02*
X10833991Y-11375508D01*
X10833991Y-11375508D02*
X10853039Y-11365984D01*
X10853039Y-11365984D02*
X10900658Y-11365984D01*
X10900658Y-11365984D02*
X10919705Y-11375508D01*
X10919705Y-11375508D02*
X10929229Y-11385031D01*
X10929229Y-11385031D02*
X10938753Y-11404079D01*
X10938753Y-11404079D02*
X10938753Y-11423127D01*
X10938753Y-11423127D02*
X10929229Y-11451698D01*
X10929229Y-11451698D02*
X10814944Y-11565984D01*
X10814944Y-11565984D02*
X10938753Y-11565984D01*
X11062563Y-11365984D02*
X11081610Y-11365984D01*
X11081610Y-11365984D02*
X11100658Y-11375508D01*
X11100658Y-11375508D02*
X11110182Y-11385031D01*
X11110182Y-11385031D02*
X11119705Y-11404079D01*
X11119705Y-11404079D02*
X11129229Y-11442174D01*
X11129229Y-11442174D02*
X11129229Y-11489793D01*
X11129229Y-11489793D02*
X11119705Y-11527888D01*
X11119705Y-11527888D02*
X11110182Y-11546936D01*
X11110182Y-11546936D02*
X11100658Y-11556460D01*
X11100658Y-11556460D02*
X11081610Y-11565984D01*
X11081610Y-11565984D02*
X11062563Y-11565984D01*
X11062563Y-11565984D02*
X11043515Y-11556460D01*
X11043515Y-11556460D02*
X11033991Y-11546936D01*
X11033991Y-11546936D02*
X11024467Y-11527888D01*
X11024467Y-11527888D02*
X11014944Y-11489793D01*
X11014944Y-11489793D02*
X11014944Y-11442174D01*
X11014944Y-11442174D02*
X11024467Y-11404079D01*
X11024467Y-11404079D02*
X11033991Y-11385031D01*
X11033991Y-11385031D02*
X11043515Y-11375508D01*
X11043515Y-11375508D02*
X11062563Y-11365984D01*
X11253039Y-11365984D02*
X11272086Y-11365984D01*
X11272086Y-11365984D02*
X11291134Y-11375508D01*
X11291134Y-11375508D02*
X11300658Y-11385031D01*
X11300658Y-11385031D02*
X11310182Y-11404079D01*
X11310182Y-11404079D02*
X11319705Y-11442174D01*
X11319705Y-11442174D02*
X11319705Y-11489793D01*
X11319705Y-11489793D02*
X11310182Y-11527888D01*
X11310182Y-11527888D02*
X11300658Y-11546936D01*
X11300658Y-11546936D02*
X11291134Y-11556460D01*
X11291134Y-11556460D02*
X11272086Y-11565984D01*
X11272086Y-11565984D02*
X11253039Y-11565984D01*
X11253039Y-11565984D02*
X11233991Y-11556460D01*
X11233991Y-11556460D02*
X11224467Y-11546936D01*
X11224467Y-11546936D02*
X11214943Y-11527888D01*
X11214943Y-11527888D02*
X11205420Y-11489793D01*
X11205420Y-11489793D02*
X11205420Y-11442174D01*
X11205420Y-11442174D02*
X11214943Y-11404079D01*
X11214943Y-11404079D02*
X11224467Y-11385031D01*
X11224467Y-11385031D02*
X11233991Y-11375508D01*
X11233991Y-11375508D02*
X11253039Y-11365984D01*
X11405420Y-11565984D02*
X11405420Y-11432650D01*
X11405420Y-11451698D02*
X11414943Y-11442174D01*
X11414943Y-11442174D02*
X11433991Y-11432650D01*
X11433991Y-11432650D02*
X11462563Y-11432650D01*
X11462563Y-11432650D02*
X11481610Y-11442174D01*
X11481610Y-11442174D02*
X11491134Y-11461222D01*
X11491134Y-11461222D02*
X11491134Y-11565984D01*
X11491134Y-11461222D02*
X11500658Y-11442174D01*
X11500658Y-11442174D02*
X11519705Y-11432650D01*
X11519705Y-11432650D02*
X11548277Y-11432650D01*
X11548277Y-11432650D02*
X11567324Y-11442174D01*
X11567324Y-11442174D02*
X11576848Y-11461222D01*
X11576848Y-11461222D02*
X11576848Y-11565984D01*
X11672086Y-11565984D02*
X11672086Y-11432650D01*
X11672086Y-11451698D02*
X11681610Y-11442174D01*
X11681610Y-11442174D02*
X11700658Y-11432650D01*
X11700658Y-11432650D02*
X11729229Y-11432650D01*
X11729229Y-11432650D02*
X11748277Y-11442174D01*
X11748277Y-11442174D02*
X11757801Y-11461222D01*
X11757801Y-11461222D02*
X11757801Y-11565984D01*
X11757801Y-11461222D02*
X11767324Y-11442174D01*
X11767324Y-11442174D02*
X11786372Y-11432650D01*
X11786372Y-11432650D02*
X11814943Y-11432650D01*
X11814943Y-11432650D02*
X11833991Y-11442174D01*
X11833991Y-11442174D02*
X11843515Y-11461222D01*
X11843515Y-11461222D02*
X11843515Y-11565984D01*
X12233991Y-11356460D02*
X12062563Y-11613603D01*
X12491134Y-11365984D02*
X12510182Y-11365984D01*
X12510182Y-11365984D02*
X12529229Y-11375508D01*
X12529229Y-11375508D02*
X12538753Y-11385031D01*
X12538753Y-11385031D02*
X12548277Y-11404079D01*
X12548277Y-11404079D02*
X12557801Y-11442174D01*
X12557801Y-11442174D02*
X12557801Y-11489793D01*
X12557801Y-11489793D02*
X12548277Y-11527888D01*
X12548277Y-11527888D02*
X12538753Y-11546936D01*
X12538753Y-11546936D02*
X12529229Y-11556460D01*
X12529229Y-11556460D02*
X12510182Y-11565984D01*
X12510182Y-11565984D02*
X12491134Y-11565984D01*
X12491134Y-11565984D02*
X12472086Y-11556460D01*
X12472086Y-11556460D02*
X12462563Y-11546936D01*
X12462563Y-11546936D02*
X12453039Y-11527888D01*
X12453039Y-11527888D02*
X12443515Y-11489793D01*
X12443515Y-11489793D02*
X12443515Y-11442174D01*
X12443515Y-11442174D02*
X12453039Y-11404079D01*
X12453039Y-11404079D02*
X12462563Y-11385031D01*
X12462563Y-11385031D02*
X12472086Y-11375508D01*
X12472086Y-11375508D02*
X12491134Y-11365984D01*
X12643515Y-11546936D02*
X12653039Y-11556460D01*
X12653039Y-11556460D02*
X12643515Y-11565984D01*
X12643515Y-11565984D02*
X12633991Y-11556460D01*
X12633991Y-11556460D02*
X12643515Y-11546936D01*
X12643515Y-11546936D02*
X12643515Y-11565984D01*
X12776848Y-11365984D02*
X12795896Y-11365984D01*
X12795896Y-11365984D02*
X12814944Y-11375508D01*
X12814944Y-11375508D02*
X12824467Y-11385031D01*
X12824467Y-11385031D02*
X12833991Y-11404079D01*
X12833991Y-11404079D02*
X12843515Y-11442174D01*
X12843515Y-11442174D02*
X12843515Y-11489793D01*
X12843515Y-11489793D02*
X12833991Y-11527888D01*
X12833991Y-11527888D02*
X12824467Y-11546936D01*
X12824467Y-11546936D02*
X12814944Y-11556460D01*
X12814944Y-11556460D02*
X12795896Y-11565984D01*
X12795896Y-11565984D02*
X12776848Y-11565984D01*
X12776848Y-11565984D02*
X12757801Y-11556460D01*
X12757801Y-11556460D02*
X12748277Y-11546936D01*
X12748277Y-11546936D02*
X12738753Y-11527888D01*
X12738753Y-11527888D02*
X12729229Y-11489793D01*
X12729229Y-11489793D02*
X12729229Y-11442174D01*
X12729229Y-11442174D02*
X12738753Y-11404079D01*
X12738753Y-11404079D02*
X12748277Y-11385031D01*
X12748277Y-11385031D02*
X12757801Y-11375508D01*
X12757801Y-11375508D02*
X12776848Y-11365984D01*
X12957801Y-11451698D02*
X12938753Y-11442174D01*
X12938753Y-11442174D02*
X12929229Y-11432650D01*
X12929229Y-11432650D02*
X12919706Y-11413603D01*
X12919706Y-11413603D02*
X12919706Y-11404079D01*
X12919706Y-11404079D02*
X12929229Y-11385031D01*
X12929229Y-11385031D02*
X12938753Y-11375508D01*
X12938753Y-11375508D02*
X12957801Y-11365984D01*
X12957801Y-11365984D02*
X12995896Y-11365984D01*
X12995896Y-11365984D02*
X13014944Y-11375508D01*
X13014944Y-11375508D02*
X13024467Y-11385031D01*
X13024467Y-11385031D02*
X13033991Y-11404079D01*
X13033991Y-11404079D02*
X13033991Y-11413603D01*
X13033991Y-11413603D02*
X13024467Y-11432650D01*
X13024467Y-11432650D02*
X13014944Y-11442174D01*
X13014944Y-11442174D02*
X12995896Y-11451698D01*
X12995896Y-11451698D02*
X12957801Y-11451698D01*
X12957801Y-11451698D02*
X12938753Y-11461222D01*
X12938753Y-11461222D02*
X12929229Y-11470746D01*
X12929229Y-11470746D02*
X12919706Y-11489793D01*
X12919706Y-11489793D02*
X12919706Y-11527888D01*
X12919706Y-11527888D02*
X12929229Y-11546936D01*
X12929229Y-11546936D02*
X12938753Y-11556460D01*
X12938753Y-11556460D02*
X12957801Y-11565984D01*
X12957801Y-11565984D02*
X12995896Y-11565984D01*
X12995896Y-11565984D02*
X13014944Y-11556460D01*
X13014944Y-11556460D02*
X13024467Y-11546936D01*
X13024467Y-11546936D02*
X13033991Y-11527888D01*
X13033991Y-11527888D02*
X13033991Y-11489793D01*
X13033991Y-11489793D02*
X13024467Y-11470746D01*
X13024467Y-11470746D02*
X13014944Y-11461222D01*
X13014944Y-11461222D02*
X12995896Y-11451698D01*
X13205420Y-11365984D02*
X13167325Y-11365984D01*
X13167325Y-11365984D02*
X13148277Y-11375508D01*
X13148277Y-11375508D02*
X13138753Y-11385031D01*
X13138753Y-11385031D02*
X13119706Y-11413603D01*
X13119706Y-11413603D02*
X13110182Y-11451698D01*
X13110182Y-11451698D02*
X13110182Y-11527888D01*
X13110182Y-11527888D02*
X13119706Y-11546936D01*
X13119706Y-11546936D02*
X13129229Y-11556460D01*
X13129229Y-11556460D02*
X13148277Y-11565984D01*
X13148277Y-11565984D02*
X13186372Y-11565984D01*
X13186372Y-11565984D02*
X13205420Y-11556460D01*
X13205420Y-11556460D02*
X13214944Y-11546936D01*
X13214944Y-11546936D02*
X13224467Y-11527888D01*
X13224467Y-11527888D02*
X13224467Y-11480269D01*
X13224467Y-11480269D02*
X13214944Y-11461222D01*
X13214944Y-11461222D02*
X13205420Y-11451698D01*
X13205420Y-11451698D02*
X13186372Y-11442174D01*
X13186372Y-11442174D02*
X13148277Y-11442174D01*
X13148277Y-11442174D02*
X13129229Y-11451698D01*
X13129229Y-11451698D02*
X13119706Y-11461222D01*
X13119706Y-11461222D02*
X13110182Y-11480269D01*
X13395896Y-11365984D02*
X13357801Y-11365984D01*
X13357801Y-11365984D02*
X13338753Y-11375508D01*
X13338753Y-11375508D02*
X13329229Y-11385031D01*
X13329229Y-11385031D02*
X13310182Y-11413603D01*
X13310182Y-11413603D02*
X13300658Y-11451698D01*
X13300658Y-11451698D02*
X13300658Y-11527888D01*
X13300658Y-11527888D02*
X13310182Y-11546936D01*
X13310182Y-11546936D02*
X13319706Y-11556460D01*
X13319706Y-11556460D02*
X13338753Y-11565984D01*
X13338753Y-11565984D02*
X13376848Y-11565984D01*
X13376848Y-11565984D02*
X13395896Y-11556460D01*
X13395896Y-11556460D02*
X13405420Y-11546936D01*
X13405420Y-11546936D02*
X13414944Y-11527888D01*
X13414944Y-11527888D02*
X13414944Y-11480269D01*
X13414944Y-11480269D02*
X13405420Y-11461222D01*
X13405420Y-11461222D02*
X13395896Y-11451698D01*
X13395896Y-11451698D02*
X13376848Y-11442174D01*
X13376848Y-11442174D02*
X13338753Y-11442174D01*
X13338753Y-11442174D02*
X13319706Y-11451698D01*
X13319706Y-11451698D02*
X13310182Y-11461222D01*
X13310182Y-11461222D02*
X13300658Y-11480269D01*
X13491134Y-11365984D02*
X13491134Y-11404079D01*
X13567325Y-11365984D02*
X13567325Y-11404079D01*
X13862563Y-11642174D02*
X13853039Y-11632650D01*
X13853039Y-11632650D02*
X13833991Y-11604079D01*
X13833991Y-11604079D02*
X13824468Y-11585031D01*
X13824468Y-11585031D02*
X13814944Y-11556460D01*
X13814944Y-11556460D02*
X13805420Y-11508841D01*
X13805420Y-11508841D02*
X13805420Y-11470746D01*
X13805420Y-11470746D02*
X13814944Y-11423127D01*
X13814944Y-11423127D02*
X13824468Y-11394555D01*
X13824468Y-11394555D02*
X13833991Y-11375508D01*
X13833991Y-11375508D02*
X13853039Y-11346936D01*
X13853039Y-11346936D02*
X13862563Y-11337412D01*
X13929229Y-11385031D02*
X13938753Y-11375508D01*
X13938753Y-11375508D02*
X13957801Y-11365984D01*
X13957801Y-11365984D02*
X14005420Y-11365984D01*
X14005420Y-11365984D02*
X14024468Y-11375508D01*
X14024468Y-11375508D02*
X14033991Y-11385031D01*
X14033991Y-11385031D02*
X14043515Y-11404079D01*
X14043515Y-11404079D02*
X14043515Y-11423127D01*
X14043515Y-11423127D02*
X14033991Y-11451698D01*
X14033991Y-11451698D02*
X13919706Y-11565984D01*
X13919706Y-11565984D02*
X14043515Y-11565984D01*
X14281610Y-11565984D02*
X14281610Y-11365984D01*
X14367325Y-11565984D02*
X14367325Y-11461222D01*
X14367325Y-11461222D02*
X14357801Y-11442174D01*
X14357801Y-11442174D02*
X14338753Y-11432650D01*
X14338753Y-11432650D02*
X14310182Y-11432650D01*
X14310182Y-11432650D02*
X14291134Y-11442174D01*
X14291134Y-11442174D02*
X14281610Y-11451698D01*
X14491134Y-11565984D02*
X14472087Y-11556460D01*
X14472087Y-11556460D02*
X14462563Y-11546936D01*
X14462563Y-11546936D02*
X14453039Y-11527888D01*
X14453039Y-11527888D02*
X14453039Y-11470746D01*
X14453039Y-11470746D02*
X14462563Y-11451698D01*
X14462563Y-11451698D02*
X14472087Y-11442174D01*
X14472087Y-11442174D02*
X14491134Y-11432650D01*
X14491134Y-11432650D02*
X14519706Y-11432650D01*
X14519706Y-11432650D02*
X14538753Y-11442174D01*
X14538753Y-11442174D02*
X14548277Y-11451698D01*
X14548277Y-11451698D02*
X14557801Y-11470746D01*
X14557801Y-11470746D02*
X14557801Y-11527888D01*
X14557801Y-11527888D02*
X14548277Y-11546936D01*
X14548277Y-11546936D02*
X14538753Y-11556460D01*
X14538753Y-11556460D02*
X14519706Y-11565984D01*
X14519706Y-11565984D02*
X14491134Y-11565984D01*
X14672087Y-11565984D02*
X14653039Y-11556460D01*
X14653039Y-11556460D02*
X14643515Y-11537412D01*
X14643515Y-11537412D02*
X14643515Y-11365984D01*
X14824468Y-11556460D02*
X14805420Y-11565984D01*
X14805420Y-11565984D02*
X14767325Y-11565984D01*
X14767325Y-11565984D02*
X14748277Y-11556460D01*
X14748277Y-11556460D02*
X14738753Y-11537412D01*
X14738753Y-11537412D02*
X14738753Y-11461222D01*
X14738753Y-11461222D02*
X14748277Y-11442174D01*
X14748277Y-11442174D02*
X14767325Y-11432650D01*
X14767325Y-11432650D02*
X14805420Y-11432650D01*
X14805420Y-11432650D02*
X14824468Y-11442174D01*
X14824468Y-11442174D02*
X14833991Y-11461222D01*
X14833991Y-11461222D02*
X14833991Y-11480269D01*
X14833991Y-11480269D02*
X14738753Y-11499317D01*
X14910182Y-11556460D02*
X14929230Y-11565984D01*
X14929230Y-11565984D02*
X14967325Y-11565984D01*
X14967325Y-11565984D02*
X14986372Y-11556460D01*
X14986372Y-11556460D02*
X14995896Y-11537412D01*
X14995896Y-11537412D02*
X14995896Y-11527888D01*
X14995896Y-11527888D02*
X14986372Y-11508841D01*
X14986372Y-11508841D02*
X14967325Y-11499317D01*
X14967325Y-11499317D02*
X14938753Y-11499317D01*
X14938753Y-11499317D02*
X14919706Y-11489793D01*
X14919706Y-11489793D02*
X14910182Y-11470746D01*
X14910182Y-11470746D02*
X14910182Y-11461222D01*
X14910182Y-11461222D02*
X14919706Y-11442174D01*
X14919706Y-11442174D02*
X14938753Y-11432650D01*
X14938753Y-11432650D02*
X14967325Y-11432650D01*
X14967325Y-11432650D02*
X14986372Y-11442174D01*
X15062563Y-11642174D02*
X15072087Y-11632650D01*
X15072087Y-11632650D02*
X15091134Y-11604079D01*
X15091134Y-11604079D02*
X15100658Y-11585031D01*
X15100658Y-11585031D02*
X15110182Y-11556460D01*
X15110182Y-11556460D02*
X15119706Y-11508841D01*
X15119706Y-11508841D02*
X15119706Y-11470746D01*
X15119706Y-11470746D02*
X15110182Y-11423127D01*
X15110182Y-11423127D02*
X15100658Y-11394555D01*
X15100658Y-11394555D02*
X15091134Y-11375508D01*
X15091134Y-11375508D02*
X15072087Y-11346936D01*
X15072087Y-11346936D02*
X15062563Y-11337412D01*
M02*
