%TF.GenerationSoftware,KiCad,Pcbnew,10.0.3*%
%TF.CreationDate,2026-06-12T15:31:09+05:30*%
%TF.ProjectId,ForceSync H7,466f7263-6553-4796-9e63-2048372e6b69,rev?*%
%TF.SameCoordinates,Original*%
%TF.FileFunction,Legend,Top*%
%TF.FilePolarity,Positive*%
%FSLAX46Y46*%
G04 Gerber Fmt 4.6, Leading zero omitted, Abs format (unit mm)*
G04 Created by KiCad (PCBNEW 10.0.3) date 2026-06-12 15:31:09*
%MOMM*%
%LPD*%
G01*
G04 APERTURE LIST*
%ADD10C,0.150000*%
%ADD11C,0.010000*%
%ADD12C,0.120000*%
%ADD13C,0.152400*%
G04 APERTURE END LIST*
D10*
X166180951Y-93274819D02*
X166180951Y-93989104D01*
X166180951Y-93989104D02*
X166133332Y-94131961D01*
X166133332Y-94131961D02*
X166038094Y-94227200D01*
X166038094Y-94227200D02*
X165895237Y-94274819D01*
X165895237Y-94274819D02*
X165799999Y-94274819D01*
X167133332Y-94274819D02*
X166657142Y-94274819D01*
X166657142Y-94274819D02*
X166657142Y-93274819D01*
X168038094Y-94179580D02*
X167990475Y-94227200D01*
X167990475Y-94227200D02*
X167847618Y-94274819D01*
X167847618Y-94274819D02*
X167752380Y-94274819D01*
X167752380Y-94274819D02*
X167609523Y-94227200D01*
X167609523Y-94227200D02*
X167514285Y-94131961D01*
X167514285Y-94131961D02*
X167466666Y-94036723D01*
X167466666Y-94036723D02*
X167419047Y-93846247D01*
X167419047Y-93846247D02*
X167419047Y-93703390D01*
X167419047Y-93703390D02*
X167466666Y-93512914D01*
X167466666Y-93512914D02*
X167514285Y-93417676D01*
X167514285Y-93417676D02*
X167609523Y-93322438D01*
X167609523Y-93322438D02*
X167752380Y-93274819D01*
X167752380Y-93274819D02*
X167847618Y-93274819D01*
X167847618Y-93274819D02*
X167990475Y-93322438D01*
X167990475Y-93322438D02*
X168038094Y-93370057D01*
X168752380Y-93274819D02*
X168752380Y-93989104D01*
X168752380Y-93989104D02*
X168704761Y-94131961D01*
X168704761Y-94131961D02*
X168609523Y-94227200D01*
X168609523Y-94227200D02*
X168466666Y-94274819D01*
X168466666Y-94274819D02*
X168371428Y-94274819D01*
X169704761Y-94274819D02*
X169228571Y-94274819D01*
X169228571Y-94274819D02*
X169228571Y-93274819D01*
X170609523Y-94179580D02*
X170561904Y-94227200D01*
X170561904Y-94227200D02*
X170419047Y-94274819D01*
X170419047Y-94274819D02*
X170323809Y-94274819D01*
X170323809Y-94274819D02*
X170180952Y-94227200D01*
X170180952Y-94227200D02*
X170085714Y-94131961D01*
X170085714Y-94131961D02*
X170038095Y-94036723D01*
X170038095Y-94036723D02*
X169990476Y-93846247D01*
X169990476Y-93846247D02*
X169990476Y-93703390D01*
X169990476Y-93703390D02*
X170038095Y-93512914D01*
X170038095Y-93512914D02*
X170085714Y-93417676D01*
X170085714Y-93417676D02*
X170180952Y-93322438D01*
X170180952Y-93322438D02*
X170323809Y-93274819D01*
X170323809Y-93274819D02*
X170419047Y-93274819D01*
X170419047Y-93274819D02*
X170561904Y-93322438D01*
X170561904Y-93322438D02*
X170609523Y-93370057D01*
X171323809Y-93274819D02*
X171323809Y-93989104D01*
X171323809Y-93989104D02*
X171276190Y-94131961D01*
X171276190Y-94131961D02*
X171180952Y-94227200D01*
X171180952Y-94227200D02*
X171038095Y-94274819D01*
X171038095Y-94274819D02*
X170942857Y-94274819D01*
X172276190Y-94274819D02*
X171800000Y-94274819D01*
X171800000Y-94274819D02*
X171800000Y-93274819D01*
X173180952Y-94179580D02*
X173133333Y-94227200D01*
X173133333Y-94227200D02*
X172990476Y-94274819D01*
X172990476Y-94274819D02*
X172895238Y-94274819D01*
X172895238Y-94274819D02*
X172752381Y-94227200D01*
X172752381Y-94227200D02*
X172657143Y-94131961D01*
X172657143Y-94131961D02*
X172609524Y-94036723D01*
X172609524Y-94036723D02*
X172561905Y-93846247D01*
X172561905Y-93846247D02*
X172561905Y-93703390D01*
X172561905Y-93703390D02*
X172609524Y-93512914D01*
X172609524Y-93512914D02*
X172657143Y-93417676D01*
X172657143Y-93417676D02*
X172752381Y-93322438D01*
X172752381Y-93322438D02*
X172895238Y-93274819D01*
X172895238Y-93274819D02*
X172990476Y-93274819D01*
X172990476Y-93274819D02*
X173133333Y-93322438D01*
X173133333Y-93322438D02*
X173180952Y-93370057D01*
X173895238Y-93274819D02*
X173895238Y-93989104D01*
X173895238Y-93989104D02*
X173847619Y-94131961D01*
X173847619Y-94131961D02*
X173752381Y-94227200D01*
X173752381Y-94227200D02*
X173609524Y-94274819D01*
X173609524Y-94274819D02*
X173514286Y-94274819D01*
X174847619Y-94274819D02*
X174371429Y-94274819D01*
X174371429Y-94274819D02*
X174371429Y-93274819D01*
X175752381Y-94179580D02*
X175704762Y-94227200D01*
X175704762Y-94227200D02*
X175561905Y-94274819D01*
X175561905Y-94274819D02*
X175466667Y-94274819D01*
X175466667Y-94274819D02*
X175323810Y-94227200D01*
X175323810Y-94227200D02*
X175228572Y-94131961D01*
X175228572Y-94131961D02*
X175180953Y-94036723D01*
X175180953Y-94036723D02*
X175133334Y-93846247D01*
X175133334Y-93846247D02*
X175133334Y-93703390D01*
X175133334Y-93703390D02*
X175180953Y-93512914D01*
X175180953Y-93512914D02*
X175228572Y-93417676D01*
X175228572Y-93417676D02*
X175323810Y-93322438D01*
X175323810Y-93322438D02*
X175466667Y-93274819D01*
X175466667Y-93274819D02*
X175561905Y-93274819D01*
X175561905Y-93274819D02*
X175704762Y-93322438D01*
X175704762Y-93322438D02*
X175752381Y-93370057D01*
X108104315Y-88536899D02*
X108342410Y-88536899D01*
X108247172Y-88774994D02*
X108342410Y-88536899D01*
X108342410Y-88536899D02*
X108247172Y-88298804D01*
X108532886Y-88679756D02*
X108342410Y-88536899D01*
X108342410Y-88536899D02*
X108532886Y-88394042D01*
X108104315Y-88536899D02*
X108342410Y-88536899D01*
X108247172Y-88774994D02*
X108342410Y-88536899D01*
X108342410Y-88536899D02*
X108247172Y-88298804D01*
X108532886Y-88679756D02*
X108342410Y-88536899D01*
X108342410Y-88536899D02*
X108532886Y-88394042D01*
D11*
%TO.C,REF\u002A\u002A*%
X130188614Y-89775877D02*
X130212327Y-89790647D01*
X130238978Y-89812227D01*
X130238978Y-90133773D01*
X130238893Y-90227830D01*
X130238529Y-90301932D01*
X130237724Y-90358704D01*
X130236313Y-90400768D01*
X130234133Y-90430748D01*
X130231021Y-90451267D01*
X130226814Y-90464949D01*
X130221348Y-90474416D01*
X130217472Y-90479082D01*
X130186034Y-90499575D01*
X130150233Y-90498739D01*
X130118873Y-90481264D01*
X130092222Y-90459684D01*
X130092222Y-89812227D01*
X130118873Y-89790647D01*
X130144594Y-89774949D01*
X130165600Y-89769067D01*
X130188614Y-89775877D01*
G36*
X130188614Y-89775877D02*
G01*
X130212327Y-89790647D01*
X130238978Y-89812227D01*
X130238978Y-90133773D01*
X130238893Y-90227830D01*
X130238529Y-90301932D01*
X130237724Y-90358704D01*
X130236313Y-90400768D01*
X130234133Y-90430748D01*
X130231021Y-90451267D01*
X130226814Y-90464949D01*
X130221348Y-90474416D01*
X130217472Y-90479082D01*
X130186034Y-90499575D01*
X130150233Y-90498739D01*
X130118873Y-90481264D01*
X130092222Y-90459684D01*
X130092222Y-89812227D01*
X130118873Y-89790647D01*
X130144594Y-89774949D01*
X130165600Y-89769067D01*
X130188614Y-89775877D01*
G37*
X123076178Y-89791645D02*
X123082758Y-89799218D01*
X123087921Y-89808987D01*
X123091836Y-89823571D01*
X123094676Y-89845585D01*
X123096613Y-89877648D01*
X123097817Y-89922375D01*
X123098461Y-89982385D01*
X123098716Y-90060294D01*
X123098755Y-90135956D01*
X123098686Y-90229802D01*
X123098362Y-90303689D01*
X123097614Y-90360232D01*
X123096268Y-90402049D01*
X123094154Y-90431757D01*
X123091100Y-90451973D01*
X123086934Y-90465314D01*
X123081484Y-90474398D01*
X123076178Y-90480267D01*
X123043174Y-90499947D01*
X123008009Y-90498181D01*
X122976545Y-90476717D01*
X122969316Y-90468337D01*
X122963666Y-90458614D01*
X122959401Y-90444861D01*
X122956327Y-90424389D01*
X122954248Y-90394512D01*
X122952970Y-90352541D01*
X122952299Y-90295789D01*
X122952041Y-90221567D01*
X122952000Y-90137537D01*
X122952000Y-89824485D01*
X122979709Y-89796776D01*
X123013863Y-89773463D01*
X123046994Y-89772623D01*
X123076178Y-89791645D01*
G36*
X123076178Y-89791645D02*
G01*
X123082758Y-89799218D01*
X123087921Y-89808987D01*
X123091836Y-89823571D01*
X123094676Y-89845585D01*
X123096613Y-89877648D01*
X123097817Y-89922375D01*
X123098461Y-89982385D01*
X123098716Y-90060294D01*
X123098755Y-90135956D01*
X123098686Y-90229802D01*
X123098362Y-90303689D01*
X123097614Y-90360232D01*
X123096268Y-90402049D01*
X123094154Y-90431757D01*
X123091100Y-90451973D01*
X123086934Y-90465314D01*
X123081484Y-90474398D01*
X123076178Y-90480267D01*
X123043174Y-90499947D01*
X123008009Y-90498181D01*
X122976545Y-90476717D01*
X122969316Y-90468337D01*
X122963666Y-90458614D01*
X122959401Y-90444861D01*
X122956327Y-90424389D01*
X122954248Y-90394512D01*
X122952970Y-90352541D01*
X122952299Y-90295789D01*
X122952041Y-90221567D01*
X122952000Y-90137537D01*
X122952000Y-89824485D01*
X122979709Y-89796776D01*
X123013863Y-89773463D01*
X123046994Y-89772623D01*
X123076178Y-89791645D01*
G37*
X123726957Y-84526571D02*
X123823232Y-84550809D01*
X123909816Y-84593641D01*
X123984627Y-84653419D01*
X124045582Y-84728494D01*
X124090601Y-84817220D01*
X124116864Y-84913530D01*
X124122714Y-85010795D01*
X124107860Y-85104654D01*
X124074160Y-85192511D01*
X124023472Y-85271770D01*
X123957655Y-85339836D01*
X123878566Y-85394112D01*
X123788066Y-85432002D01*
X123736800Y-85444426D01*
X123692302Y-85451947D01*
X123658001Y-85454919D01*
X123625040Y-85453094D01*
X123584566Y-85446225D01*
X123551469Y-85439250D01*
X123458053Y-85407741D01*
X123374381Y-85356617D01*
X123302335Y-85287429D01*
X123243800Y-85201728D01*
X123229852Y-85174489D01*
X123213414Y-85138122D01*
X123203106Y-85107582D01*
X123197540Y-85075450D01*
X123195331Y-85034307D01*
X123195052Y-84988222D01*
X123199139Y-84903865D01*
X123212554Y-84834586D01*
X123237744Y-84773961D01*
X123277154Y-84715567D01*
X123315702Y-84671302D01*
X123387594Y-84605484D01*
X123462687Y-84560053D01*
X123545438Y-84532850D01*
X123623072Y-84522576D01*
X123726957Y-84526571D01*
G36*
X123726957Y-84526571D02*
G01*
X123823232Y-84550809D01*
X123909816Y-84593641D01*
X123984627Y-84653419D01*
X124045582Y-84728494D01*
X124090601Y-84817220D01*
X124116864Y-84913530D01*
X124122714Y-85010795D01*
X124107860Y-85104654D01*
X124074160Y-85192511D01*
X124023472Y-85271770D01*
X123957655Y-85339836D01*
X123878566Y-85394112D01*
X123788066Y-85432002D01*
X123736800Y-85444426D01*
X123692302Y-85451947D01*
X123658001Y-85454919D01*
X123625040Y-85453094D01*
X123584566Y-85446225D01*
X123551469Y-85439250D01*
X123458053Y-85407741D01*
X123374381Y-85356617D01*
X123302335Y-85287429D01*
X123243800Y-85201728D01*
X123229852Y-85174489D01*
X123213414Y-85138122D01*
X123203106Y-85107582D01*
X123197540Y-85075450D01*
X123195331Y-85034307D01*
X123195052Y-84988222D01*
X123199139Y-84903865D01*
X123212554Y-84834586D01*
X123237744Y-84773961D01*
X123277154Y-84715567D01*
X123315702Y-84671302D01*
X123387594Y-84605484D01*
X123462687Y-84560053D01*
X123545438Y-84532850D01*
X123623072Y-84522576D01*
X123726957Y-84526571D01*
G37*
X130963065Y-89769163D02*
X131041772Y-89769542D01*
X131102863Y-89770333D01*
X131148817Y-89771670D01*
X131182114Y-89773683D01*
X131205236Y-89776506D01*
X131220662Y-89780269D01*
X131230871Y-89785105D01*
X131235813Y-89788822D01*
X131261457Y-89821358D01*
X131264559Y-89855138D01*
X131248711Y-89885826D01*
X131238348Y-89898089D01*
X131227196Y-89906450D01*
X131211035Y-89911657D01*
X131185642Y-89914457D01*
X131146798Y-89915596D01*
X131090280Y-89915821D01*
X131079180Y-89915822D01*
X130933244Y-89915822D01*
X130933244Y-90186756D01*
X130933148Y-90272154D01*
X130932711Y-90337864D01*
X130931712Y-90386774D01*
X130929928Y-90421773D01*
X130927137Y-90445749D01*
X130923117Y-90461593D01*
X130917645Y-90472191D01*
X130910666Y-90480267D01*
X130877734Y-90500112D01*
X130843354Y-90498548D01*
X130812176Y-90475906D01*
X130809886Y-90473100D01*
X130802429Y-90462492D01*
X130796747Y-90450081D01*
X130792601Y-90432850D01*
X130789750Y-90407784D01*
X130787954Y-90371867D01*
X130786972Y-90322083D01*
X130786564Y-90255417D01*
X130786489Y-90179589D01*
X130786489Y-89915822D01*
X130647127Y-89915822D01*
X130587322Y-89915418D01*
X130545918Y-89913840D01*
X130518748Y-89910547D01*
X130501646Y-89904992D01*
X130490443Y-89896631D01*
X130489083Y-89895178D01*
X130472725Y-89861939D01*
X130474172Y-89824362D01*
X130492978Y-89791645D01*
X130500250Y-89785298D01*
X130509627Y-89780266D01*
X130523609Y-89776396D01*
X130544696Y-89773537D01*
X130575389Y-89771535D01*
X130618189Y-89770239D01*
X130675595Y-89769498D01*
X130750110Y-89769158D01*
X130844233Y-89769068D01*
X130864260Y-89769067D01*
X130963065Y-89769163D01*
G36*
X130963065Y-89769163D02*
G01*
X131041772Y-89769542D01*
X131102863Y-89770333D01*
X131148817Y-89771670D01*
X131182114Y-89773683D01*
X131205236Y-89776506D01*
X131220662Y-89780269D01*
X131230871Y-89785105D01*
X131235813Y-89788822D01*
X131261457Y-89821358D01*
X131264559Y-89855138D01*
X131248711Y-89885826D01*
X131238348Y-89898089D01*
X131227196Y-89906450D01*
X131211035Y-89911657D01*
X131185642Y-89914457D01*
X131146798Y-89915596D01*
X131090280Y-89915821D01*
X131079180Y-89915822D01*
X130933244Y-89915822D01*
X130933244Y-90186756D01*
X130933148Y-90272154D01*
X130932711Y-90337864D01*
X130931712Y-90386774D01*
X130929928Y-90421773D01*
X130927137Y-90445749D01*
X130923117Y-90461593D01*
X130917645Y-90472191D01*
X130910666Y-90480267D01*
X130877734Y-90500112D01*
X130843354Y-90498548D01*
X130812176Y-90475906D01*
X130809886Y-90473100D01*
X130802429Y-90462492D01*
X130796747Y-90450081D01*
X130792601Y-90432850D01*
X130789750Y-90407784D01*
X130787954Y-90371867D01*
X130786972Y-90322083D01*
X130786564Y-90255417D01*
X130786489Y-90179589D01*
X130786489Y-89915822D01*
X130647127Y-89915822D01*
X130587322Y-89915418D01*
X130545918Y-89913840D01*
X130518748Y-89910547D01*
X130501646Y-89904992D01*
X130490443Y-89896631D01*
X130489083Y-89895178D01*
X130472725Y-89861939D01*
X130474172Y-89824362D01*
X130492978Y-89791645D01*
X130500250Y-89785298D01*
X130509627Y-89780266D01*
X130523609Y-89776396D01*
X130544696Y-89773537D01*
X130575389Y-89771535D01*
X130618189Y-89770239D01*
X130675595Y-89769498D01*
X130750110Y-89769158D01*
X130844233Y-89769068D01*
X130864260Y-89769067D01*
X130963065Y-89769163D01*
G37*
X132228823Y-89774533D02*
X132260202Y-89796776D01*
X132287911Y-89824485D01*
X132287911Y-90133920D01*
X132287838Y-90225799D01*
X132287495Y-90297840D01*
X132286692Y-90352780D01*
X132285241Y-90393360D01*
X132282952Y-90422317D01*
X132279636Y-90442391D01*
X132275105Y-90456321D01*
X132269169Y-90466845D01*
X132264514Y-90473100D01*
X132233783Y-90497673D01*
X132198496Y-90500341D01*
X132166245Y-90485271D01*
X132155588Y-90476374D01*
X132148464Y-90464557D01*
X132144167Y-90445526D01*
X132141991Y-90414992D01*
X132141228Y-90368662D01*
X132141155Y-90332871D01*
X132141155Y-90198045D01*
X131644444Y-90198045D01*
X131644444Y-90320700D01*
X131643931Y-90376787D01*
X131641876Y-90415333D01*
X131637508Y-90441361D01*
X131630056Y-90459897D01*
X131621047Y-90473100D01*
X131590144Y-90497604D01*
X131555196Y-90500506D01*
X131521738Y-90483089D01*
X131512604Y-90473959D01*
X131506152Y-90461855D01*
X131501897Y-90443001D01*
X131499352Y-90413620D01*
X131498029Y-90369937D01*
X131497443Y-90308175D01*
X131497375Y-90294000D01*
X131496891Y-90177631D01*
X131496641Y-90081727D01*
X131496723Y-90004177D01*
X131497231Y-89942869D01*
X131498262Y-89895690D01*
X131499913Y-89860530D01*
X131502279Y-89835276D01*
X131505457Y-89817817D01*
X131509544Y-89806041D01*
X131514634Y-89797835D01*
X131520266Y-89791645D01*
X131552128Y-89771844D01*
X131585357Y-89774533D01*
X131616735Y-89796776D01*
X131629433Y-89811126D01*
X131637526Y-89826978D01*
X131642042Y-89849554D01*
X131644006Y-89884078D01*
X131644444Y-89935776D01*
X131644444Y-90051289D01*
X132141155Y-90051289D01*
X132141155Y-89932756D01*
X132141662Y-89878148D01*
X132143698Y-89841275D01*
X132148035Y-89817307D01*
X132155447Y-89801415D01*
X132163733Y-89791645D01*
X132195594Y-89771844D01*
X132228823Y-89774533D01*
G36*
X132228823Y-89774533D02*
G01*
X132260202Y-89796776D01*
X132287911Y-89824485D01*
X132287911Y-90133920D01*
X132287838Y-90225799D01*
X132287495Y-90297840D01*
X132286692Y-90352780D01*
X132285241Y-90393360D01*
X132282952Y-90422317D01*
X132279636Y-90442391D01*
X132275105Y-90456321D01*
X132269169Y-90466845D01*
X132264514Y-90473100D01*
X132233783Y-90497673D01*
X132198496Y-90500341D01*
X132166245Y-90485271D01*
X132155588Y-90476374D01*
X132148464Y-90464557D01*
X132144167Y-90445526D01*
X132141991Y-90414992D01*
X132141228Y-90368662D01*
X132141155Y-90332871D01*
X132141155Y-90198045D01*
X131644444Y-90198045D01*
X131644444Y-90320700D01*
X131643931Y-90376787D01*
X131641876Y-90415333D01*
X131637508Y-90441361D01*
X131630056Y-90459897D01*
X131621047Y-90473100D01*
X131590144Y-90497604D01*
X131555196Y-90500506D01*
X131521738Y-90483089D01*
X131512604Y-90473959D01*
X131506152Y-90461855D01*
X131501897Y-90443001D01*
X131499352Y-90413620D01*
X131498029Y-90369937D01*
X131497443Y-90308175D01*
X131497375Y-90294000D01*
X131496891Y-90177631D01*
X131496641Y-90081727D01*
X131496723Y-90004177D01*
X131497231Y-89942869D01*
X131498262Y-89895690D01*
X131499913Y-89860530D01*
X131502279Y-89835276D01*
X131505457Y-89817817D01*
X131509544Y-89806041D01*
X131514634Y-89797835D01*
X131520266Y-89791645D01*
X131552128Y-89771844D01*
X131585357Y-89774533D01*
X131616735Y-89796776D01*
X131629433Y-89811126D01*
X131637526Y-89826978D01*
X131642042Y-89849554D01*
X131644006Y-89884078D01*
X131644444Y-89935776D01*
X131644444Y-90051289D01*
X132141155Y-90051289D01*
X132141155Y-89932756D01*
X132141662Y-89878148D01*
X132143698Y-89841275D01*
X132148035Y-89817307D01*
X132155447Y-89801415D01*
X132163733Y-89791645D01*
X132195594Y-89771844D01*
X132228823Y-89774533D01*
G37*
X127018309Y-89769275D02*
X127147288Y-89773636D01*
X127256991Y-89786861D01*
X127349226Y-89809741D01*
X127425802Y-89843070D01*
X127488527Y-89887638D01*
X127539212Y-89944236D01*
X127579663Y-90013658D01*
X127580459Y-90015351D01*
X127604601Y-90077483D01*
X127613203Y-90132509D01*
X127606231Y-90187887D01*
X127583654Y-90251073D01*
X127579372Y-90260689D01*
X127550172Y-90316966D01*
X127517356Y-90360451D01*
X127475002Y-90397417D01*
X127417190Y-90434135D01*
X127413831Y-90436052D01*
X127363504Y-90460227D01*
X127306621Y-90478282D01*
X127239527Y-90490839D01*
X127158565Y-90498522D01*
X127060082Y-90501953D01*
X127025286Y-90502251D01*
X126859594Y-90502845D01*
X126836197Y-90473100D01*
X126829257Y-90463319D01*
X126823842Y-90451897D01*
X126819765Y-90436095D01*
X126816837Y-90413175D01*
X126814867Y-90380396D01*
X126814225Y-90356089D01*
X126970844Y-90356089D01*
X127064726Y-90356089D01*
X127119664Y-90354483D01*
X127176060Y-90350255D01*
X127222345Y-90344292D01*
X127225139Y-90343790D01*
X127307348Y-90321736D01*
X127371114Y-90288600D01*
X127418452Y-90242847D01*
X127451382Y-90182939D01*
X127457108Y-90167061D01*
X127462721Y-90142333D01*
X127460291Y-90117902D01*
X127448467Y-90085400D01*
X127441340Y-90069434D01*
X127418000Y-90027006D01*
X127389880Y-89997240D01*
X127358940Y-89976511D01*
X127296966Y-89949537D01*
X127217651Y-89929998D01*
X127125253Y-89918746D01*
X127058333Y-89916270D01*
X126970844Y-89915822D01*
X126970844Y-90356089D01*
X126814225Y-90356089D01*
X126813668Y-90335021D01*
X126813050Y-90274311D01*
X126812825Y-90195526D01*
X126812800Y-90133920D01*
X126812800Y-89824485D01*
X126840509Y-89796776D01*
X126852806Y-89785544D01*
X126866103Y-89777853D01*
X126884672Y-89773040D01*
X126912786Y-89770446D01*
X126954717Y-89769410D01*
X127014737Y-89769270D01*
X127018309Y-89769275D01*
G36*
X127018309Y-89769275D02*
G01*
X127147288Y-89773636D01*
X127256991Y-89786861D01*
X127349226Y-89809741D01*
X127425802Y-89843070D01*
X127488527Y-89887638D01*
X127539212Y-89944236D01*
X127579663Y-90013658D01*
X127580459Y-90015351D01*
X127604601Y-90077483D01*
X127613203Y-90132509D01*
X127606231Y-90187887D01*
X127583654Y-90251073D01*
X127579372Y-90260689D01*
X127550172Y-90316966D01*
X127517356Y-90360451D01*
X127475002Y-90397417D01*
X127417190Y-90434135D01*
X127413831Y-90436052D01*
X127363504Y-90460227D01*
X127306621Y-90478282D01*
X127239527Y-90490839D01*
X127158565Y-90498522D01*
X127060082Y-90501953D01*
X127025286Y-90502251D01*
X126859594Y-90502845D01*
X126836197Y-90473100D01*
X126829257Y-90463319D01*
X126823842Y-90451897D01*
X126819765Y-90436095D01*
X126816837Y-90413175D01*
X126814867Y-90380396D01*
X126814225Y-90356089D01*
X126813668Y-90335021D01*
X126813050Y-90274311D01*
X126812825Y-90195526D01*
X126812800Y-90133920D01*
X126812800Y-89915822D01*
X126970844Y-89915822D01*
X126970844Y-90356089D01*
X127064726Y-90356089D01*
X127119664Y-90354483D01*
X127176060Y-90350255D01*
X127222345Y-90344292D01*
X127225139Y-90343790D01*
X127307348Y-90321736D01*
X127371114Y-90288600D01*
X127418452Y-90242847D01*
X127451382Y-90182939D01*
X127457108Y-90167061D01*
X127462721Y-90142333D01*
X127460291Y-90117902D01*
X127448467Y-90085400D01*
X127441340Y-90069434D01*
X127418000Y-90027006D01*
X127389880Y-89997240D01*
X127358940Y-89976511D01*
X127296966Y-89949537D01*
X127217651Y-89929998D01*
X127125253Y-89918746D01*
X127058333Y-89916270D01*
X126970844Y-89915822D01*
X126812800Y-89915822D01*
X126812800Y-89824485D01*
X126840509Y-89796776D01*
X126852806Y-89785544D01*
X126866103Y-89777853D01*
X126884672Y-89773040D01*
X126912786Y-89770446D01*
X126954717Y-89769410D01*
X127014737Y-89769270D01*
X127018309Y-89769275D01*
G37*
X119878629Y-89769066D02*
X119918111Y-89769467D01*
X120033800Y-89772259D01*
X120130689Y-89780550D01*
X120212081Y-89795232D01*
X120281277Y-89817193D01*
X120341580Y-89847322D01*
X120396292Y-89886510D01*
X120415833Y-89903532D01*
X120448250Y-89943363D01*
X120477480Y-89997413D01*
X120500009Y-90057323D01*
X120512321Y-90114739D01*
X120513600Y-90135956D01*
X120505583Y-90194769D01*
X120484101Y-90259013D01*
X120453001Y-90319821D01*
X120416134Y-90368330D01*
X120410146Y-90374182D01*
X120359421Y-90415321D01*
X120303875Y-90447435D01*
X120240304Y-90471365D01*
X120165506Y-90487953D01*
X120076278Y-90498041D01*
X119969418Y-90502469D01*
X119920472Y-90502845D01*
X119858238Y-90502545D01*
X119814472Y-90501292D01*
X119785069Y-90498554D01*
X119765921Y-90493801D01*
X119752923Y-90486501D01*
X119745955Y-90480267D01*
X119739374Y-90472694D01*
X119734212Y-90462924D01*
X119730297Y-90448340D01*
X119727457Y-90426326D01*
X119725520Y-90394264D01*
X119724316Y-90349536D01*
X119723672Y-90289526D01*
X119723417Y-90211617D01*
X119723378Y-90135956D01*
X119723130Y-90035041D01*
X119723183Y-89954427D01*
X119724143Y-89915822D01*
X119870133Y-89915822D01*
X119870133Y-90356089D01*
X119963266Y-90356004D01*
X120019307Y-90354396D01*
X120078001Y-90350256D01*
X120126972Y-90344464D01*
X120128462Y-90344226D01*
X120207608Y-90325090D01*
X120268998Y-90295287D01*
X120315695Y-90252878D01*
X120345365Y-90206961D01*
X120363647Y-90156026D01*
X120362229Y-90108200D01*
X120341012Y-90056933D01*
X120299511Y-90003899D01*
X120242002Y-89964600D01*
X120167250Y-89938331D01*
X120117292Y-89929035D01*
X120060584Y-89922507D01*
X120000481Y-89917782D01*
X119949361Y-89915817D01*
X119946333Y-89915808D01*
X119870133Y-89915822D01*
X119724143Y-89915822D01*
X119724740Y-89891851D01*
X119729002Y-89845055D01*
X119737170Y-89811778D01*
X119750444Y-89789759D01*
X119770026Y-89776739D01*
X119797117Y-89770457D01*
X119832918Y-89768653D01*
X119878629Y-89769066D01*
G36*
X119878629Y-89769066D02*
G01*
X119918111Y-89769467D01*
X120033800Y-89772259D01*
X120130689Y-89780550D01*
X120212081Y-89795232D01*
X120281277Y-89817193D01*
X120341580Y-89847322D01*
X120396292Y-89886510D01*
X120415833Y-89903532D01*
X120448250Y-89943363D01*
X120477480Y-89997413D01*
X120500009Y-90057323D01*
X120512321Y-90114739D01*
X120513600Y-90135956D01*
X120505583Y-90194769D01*
X120484101Y-90259013D01*
X120453001Y-90319821D01*
X120416134Y-90368330D01*
X120410146Y-90374182D01*
X120359421Y-90415321D01*
X120303875Y-90447435D01*
X120240304Y-90471365D01*
X120165506Y-90487953D01*
X120076278Y-90498041D01*
X119969418Y-90502469D01*
X119920472Y-90502845D01*
X119858238Y-90502545D01*
X119814472Y-90501292D01*
X119785069Y-90498554D01*
X119765921Y-90493801D01*
X119752923Y-90486501D01*
X119745955Y-90480267D01*
X119739374Y-90472694D01*
X119734212Y-90462924D01*
X119730297Y-90448340D01*
X119727457Y-90426326D01*
X119725520Y-90394264D01*
X119724492Y-90356089D01*
X119870133Y-90356089D01*
X119963266Y-90356004D01*
X120019307Y-90354396D01*
X120078001Y-90350256D01*
X120126972Y-90344464D01*
X120128462Y-90344226D01*
X120207608Y-90325090D01*
X120268998Y-90295287D01*
X120315695Y-90252878D01*
X120345365Y-90206961D01*
X120363647Y-90156026D01*
X120362229Y-90108200D01*
X120341012Y-90056933D01*
X120299511Y-90003899D01*
X120242002Y-89964600D01*
X120167250Y-89938331D01*
X120117292Y-89929035D01*
X120060584Y-89922507D01*
X120000481Y-89917782D01*
X119949361Y-89915817D01*
X119946333Y-89915808D01*
X119870133Y-89915822D01*
X119870133Y-90356089D01*
X119724492Y-90356089D01*
X119724316Y-90349536D01*
X119723672Y-90289526D01*
X119723417Y-90211617D01*
X119723378Y-90135956D01*
X119723130Y-90035041D01*
X119723183Y-89954427D01*
X119724143Y-89915822D01*
X119724740Y-89891851D01*
X119729002Y-89845055D01*
X119737170Y-89811778D01*
X119750444Y-89789759D01*
X119770026Y-89776739D01*
X119797117Y-89770457D01*
X119832918Y-89768653D01*
X119878629Y-89769066D01*
G37*
X124699886Y-89773448D02*
X124723452Y-89787273D01*
X124754265Y-89809881D01*
X124793922Y-89842338D01*
X124844020Y-89885708D01*
X124906157Y-89941058D01*
X124981928Y-90009451D01*
X125068666Y-90088084D01*
X125249289Y-90251878D01*
X125254933Y-90032029D01*
X125256971Y-89956351D01*
X125258937Y-89899994D01*
X125261266Y-89859706D01*
X125264394Y-89832235D01*
X125268755Y-89814329D01*
X125274784Y-89802737D01*
X125282916Y-89794208D01*
X125287228Y-89790623D01*
X125321759Y-89771670D01*
X125354617Y-89774441D01*
X125380682Y-89790633D01*
X125407333Y-89812199D01*
X125410648Y-90127151D01*
X125411565Y-90219779D01*
X125412032Y-90292544D01*
X125411887Y-90348161D01*
X125410968Y-90389342D01*
X125409113Y-90418803D01*
X125406161Y-90439255D01*
X125401950Y-90453413D01*
X125396318Y-90463991D01*
X125390073Y-90472474D01*
X125376561Y-90488207D01*
X125363117Y-90498636D01*
X125347876Y-90502639D01*
X125328974Y-90499094D01*
X125304545Y-90486879D01*
X125272727Y-90464871D01*
X125231652Y-90431949D01*
X125179458Y-90386991D01*
X125114278Y-90328875D01*
X125040444Y-90262099D01*
X124775155Y-90021458D01*
X124769511Y-90240589D01*
X124767469Y-90316128D01*
X124765498Y-90372354D01*
X124763161Y-90412524D01*
X124760019Y-90439896D01*
X124755636Y-90457728D01*
X124749576Y-90469279D01*
X124741400Y-90477807D01*
X124737216Y-90481282D01*
X124700235Y-90500372D01*
X124665292Y-90497493D01*
X124634864Y-90473100D01*
X124627903Y-90463286D01*
X124622477Y-90451826D01*
X124618397Y-90435968D01*
X124615471Y-90412963D01*
X124613508Y-90380062D01*
X124612317Y-90334516D01*
X124611708Y-90273573D01*
X124611489Y-90194486D01*
X124611466Y-90135956D01*
X124611540Y-90044407D01*
X124611887Y-89972687D01*
X124612699Y-89918045D01*
X124614167Y-89877732D01*
X124616481Y-89848998D01*
X124619833Y-89829093D01*
X124624412Y-89815268D01*
X124630411Y-89804772D01*
X124634864Y-89798811D01*
X124646150Y-89784691D01*
X124656699Y-89774029D01*
X124668107Y-89767892D01*
X124681970Y-89767343D01*
X124699886Y-89773448D01*
G36*
X124699886Y-89773448D02*
G01*
X124723452Y-89787273D01*
X124754265Y-89809881D01*
X124793922Y-89842338D01*
X124844020Y-89885708D01*
X124906157Y-89941058D01*
X124981928Y-90009451D01*
X125068666Y-90088084D01*
X125249289Y-90251878D01*
X125254933Y-90032029D01*
X125256971Y-89956351D01*
X125258937Y-89899994D01*
X125261266Y-89859706D01*
X125264394Y-89832235D01*
X125268755Y-89814329D01*
X125274784Y-89802737D01*
X125282916Y-89794208D01*
X125287228Y-89790623D01*
X125321759Y-89771670D01*
X125354617Y-89774441D01*
X125380682Y-89790633D01*
X125407333Y-89812199D01*
X125410648Y-90127151D01*
X125411565Y-90219779D01*
X125412032Y-90292544D01*
X125411887Y-90348161D01*
X125410968Y-90389342D01*
X125409113Y-90418803D01*
X125406161Y-90439255D01*
X125401950Y-90453413D01*
X125396318Y-90463991D01*
X125390073Y-90472474D01*
X125376561Y-90488207D01*
X125363117Y-90498636D01*
X125347876Y-90502639D01*
X125328974Y-90499094D01*
X125304545Y-90486879D01*
X125272727Y-90464871D01*
X125231652Y-90431949D01*
X125179458Y-90386991D01*
X125114278Y-90328875D01*
X125040444Y-90262099D01*
X124775155Y-90021458D01*
X124769511Y-90240589D01*
X124767469Y-90316128D01*
X124765498Y-90372354D01*
X124763161Y-90412524D01*
X124760019Y-90439896D01*
X124755636Y-90457728D01*
X124749576Y-90469279D01*
X124741400Y-90477807D01*
X124737216Y-90481282D01*
X124700235Y-90500372D01*
X124665292Y-90497493D01*
X124634864Y-90473100D01*
X124627903Y-90463286D01*
X124622477Y-90451826D01*
X124618397Y-90435968D01*
X124615471Y-90412963D01*
X124613508Y-90380062D01*
X124612317Y-90334516D01*
X124611708Y-90273573D01*
X124611489Y-90194486D01*
X124611466Y-90135956D01*
X124611540Y-90044407D01*
X124611887Y-89972687D01*
X124612699Y-89918045D01*
X124614167Y-89877732D01*
X124616481Y-89848998D01*
X124619833Y-89829093D01*
X124624412Y-89815268D01*
X124630411Y-89804772D01*
X124634864Y-89798811D01*
X124646150Y-89784691D01*
X124656699Y-89774029D01*
X124668107Y-89767892D01*
X124681970Y-89767343D01*
X124699886Y-89773448D01*
G37*
X124049919Y-89774599D02*
X124118435Y-89786095D01*
X124171057Y-89803967D01*
X124205292Y-89827499D01*
X124214621Y-89840924D01*
X124224107Y-89872148D01*
X124217723Y-89900395D01*
X124197570Y-89927182D01*
X124166255Y-89939713D01*
X124120817Y-89938696D01*
X124085674Y-89931906D01*
X124007581Y-89918971D01*
X123927774Y-89917742D01*
X123838445Y-89928241D01*
X123813771Y-89932690D01*
X123730709Y-89956108D01*
X123665727Y-89990945D01*
X123619539Y-90036604D01*
X123592855Y-90092494D01*
X123587337Y-90121388D01*
X123590949Y-90180012D01*
X123614271Y-90231879D01*
X123655176Y-90275978D01*
X123711541Y-90311299D01*
X123781240Y-90336829D01*
X123862148Y-90351559D01*
X123952140Y-90354478D01*
X124049090Y-90344575D01*
X124054564Y-90343641D01*
X124093125Y-90336459D01*
X124114506Y-90329521D01*
X124123773Y-90319227D01*
X124125994Y-90301976D01*
X124126044Y-90292841D01*
X124126044Y-90254489D01*
X124057569Y-90254489D01*
X123997100Y-90250347D01*
X123955835Y-90237147D01*
X123931825Y-90213730D01*
X123923123Y-90178936D01*
X123923017Y-90174394D01*
X123928108Y-90144654D01*
X123945567Y-90123419D01*
X123978061Y-90109366D01*
X124028257Y-90101173D01*
X124076877Y-90098161D01*
X124147544Y-90096433D01*
X124198802Y-90099070D01*
X124233761Y-90108800D01*
X124255530Y-90128353D01*
X124267220Y-90160456D01*
X124271940Y-90207838D01*
X124272800Y-90270071D01*
X124271391Y-90339535D01*
X124267152Y-90386786D01*
X124260064Y-90412012D01*
X124258689Y-90413988D01*
X124219772Y-90445508D01*
X124162714Y-90470470D01*
X124091131Y-90488340D01*
X124008642Y-90498586D01*
X123918861Y-90500673D01*
X123825408Y-90494068D01*
X123770444Y-90485956D01*
X123684234Y-90461554D01*
X123604108Y-90421662D01*
X123537023Y-90369887D01*
X123526827Y-90359539D01*
X123493698Y-90316035D01*
X123463806Y-90262118D01*
X123440643Y-90205592D01*
X123427702Y-90154259D01*
X123426142Y-90134544D01*
X123432782Y-90093419D01*
X123450432Y-90042252D01*
X123475703Y-89988394D01*
X123505211Y-89939195D01*
X123531281Y-89906334D01*
X123592235Y-89857452D01*
X123671031Y-89818545D01*
X123764843Y-89790494D01*
X123870850Y-89774179D01*
X123968000Y-89770192D01*
X124049919Y-89774599D01*
G36*
X124049919Y-89774599D02*
G01*
X124118435Y-89786095D01*
X124171057Y-89803967D01*
X124205292Y-89827499D01*
X124214621Y-89840924D01*
X124224107Y-89872148D01*
X124217723Y-89900395D01*
X124197570Y-89927182D01*
X124166255Y-89939713D01*
X124120817Y-89938696D01*
X124085674Y-89931906D01*
X124007581Y-89918971D01*
X123927774Y-89917742D01*
X123838445Y-89928241D01*
X123813771Y-89932690D01*
X123730709Y-89956108D01*
X123665727Y-89990945D01*
X123619539Y-90036604D01*
X123592855Y-90092494D01*
X123587337Y-90121388D01*
X123590949Y-90180012D01*
X123614271Y-90231879D01*
X123655176Y-90275978D01*
X123711541Y-90311299D01*
X123781240Y-90336829D01*
X123862148Y-90351559D01*
X123952140Y-90354478D01*
X124049090Y-90344575D01*
X124054564Y-90343641D01*
X124093125Y-90336459D01*
X124114506Y-90329521D01*
X124123773Y-90319227D01*
X124125994Y-90301976D01*
X124126044Y-90292841D01*
X124126044Y-90254489D01*
X124057569Y-90254489D01*
X123997100Y-90250347D01*
X123955835Y-90237147D01*
X123931825Y-90213730D01*
X123923123Y-90178936D01*
X123923017Y-90174394D01*
X123928108Y-90144654D01*
X123945567Y-90123419D01*
X123978061Y-90109366D01*
X124028257Y-90101173D01*
X124076877Y-90098161D01*
X124147544Y-90096433D01*
X124198802Y-90099070D01*
X124233761Y-90108800D01*
X124255530Y-90128353D01*
X124267220Y-90160456D01*
X124271940Y-90207838D01*
X124272800Y-90270071D01*
X124271391Y-90339535D01*
X124267152Y-90386786D01*
X124260064Y-90412012D01*
X124258689Y-90413988D01*
X124219772Y-90445508D01*
X124162714Y-90470470D01*
X124091131Y-90488340D01*
X124008642Y-90498586D01*
X123918861Y-90500673D01*
X123825408Y-90494068D01*
X123770444Y-90485956D01*
X123684234Y-90461554D01*
X123604108Y-90421662D01*
X123537023Y-90369887D01*
X123526827Y-90359539D01*
X123493698Y-90316035D01*
X123463806Y-90262118D01*
X123440643Y-90205592D01*
X123427702Y-90154259D01*
X123426142Y-90134544D01*
X123432782Y-90093419D01*
X123450432Y-90042252D01*
X123475703Y-89988394D01*
X123505211Y-89939195D01*
X123531281Y-89906334D01*
X123592235Y-89857452D01*
X123671031Y-89818545D01*
X123764843Y-89790494D01*
X123870850Y-89774179D01*
X123968000Y-89770192D01*
X124049919Y-89774599D01*
G37*
X126230343Y-89769260D02*
X126306701Y-89770174D01*
X126365217Y-89772311D01*
X126408255Y-89776175D01*
X126438183Y-89782267D01*
X126457368Y-89791090D01*
X126468176Y-89803146D01*
X126472973Y-89818939D01*
X126474127Y-89838970D01*
X126474133Y-89841335D01*
X126473131Y-89863992D01*
X126468396Y-89881503D01*
X126457333Y-89894574D01*
X126437348Y-89903913D01*
X126405846Y-89910227D01*
X126360232Y-89914222D01*
X126297913Y-89916606D01*
X126216293Y-89918086D01*
X126191277Y-89918414D01*
X125949200Y-89921467D01*
X125945814Y-89986378D01*
X125942429Y-90051289D01*
X126110576Y-90051289D01*
X126176266Y-90051531D01*
X126223172Y-90052556D01*
X126255083Y-90054811D01*
X126275791Y-90058742D01*
X126289084Y-90064798D01*
X126298755Y-90073424D01*
X126298817Y-90073493D01*
X126316356Y-90107112D01*
X126315722Y-90143448D01*
X126297314Y-90174423D01*
X126293671Y-90177607D01*
X126280741Y-90185812D01*
X126263024Y-90191521D01*
X126236570Y-90195162D01*
X126197432Y-90197167D01*
X126141662Y-90197964D01*
X126105994Y-90198045D01*
X125943555Y-90198045D01*
X125943555Y-90356089D01*
X126190161Y-90356089D01*
X126271580Y-90356231D01*
X126333410Y-90356814D01*
X126378637Y-90358068D01*
X126410248Y-90360227D01*
X126431231Y-90363523D01*
X126444573Y-90368189D01*
X126453261Y-90374457D01*
X126455450Y-90376733D01*
X126471614Y-90408280D01*
X126472797Y-90444168D01*
X126459536Y-90475285D01*
X126449043Y-90485271D01*
X126438129Y-90490769D01*
X126421217Y-90495022D01*
X126395633Y-90498180D01*
X126358701Y-90500392D01*
X126307746Y-90501806D01*
X126240094Y-90502572D01*
X126153069Y-90502838D01*
X126133394Y-90502845D01*
X126044911Y-90502787D01*
X125976227Y-90502467D01*
X125924564Y-90501667D01*
X125887145Y-90500167D01*
X125861190Y-90497749D01*
X125843922Y-90494194D01*
X125832562Y-90489282D01*
X125824332Y-90482795D01*
X125819817Y-90478138D01*
X125813021Y-90469889D01*
X125807712Y-90459669D01*
X125803706Y-90444800D01*
X125800821Y-90422602D01*
X125798874Y-90390393D01*
X125797681Y-90345496D01*
X125797061Y-90285228D01*
X125796829Y-90206911D01*
X125796800Y-90140994D01*
X125796871Y-90048628D01*
X125797208Y-89976117D01*
X125797998Y-89920737D01*
X125799426Y-89879765D01*
X125801679Y-89850478D01*
X125804943Y-89830153D01*
X125809404Y-89816066D01*
X125815248Y-89805495D01*
X125820197Y-89798811D01*
X125843594Y-89769067D01*
X126133774Y-89769067D01*
X126230343Y-89769260D01*
G36*
X126230343Y-89769260D02*
G01*
X126306701Y-89770174D01*
X126365217Y-89772311D01*
X126408255Y-89776175D01*
X126438183Y-89782267D01*
X126457368Y-89791090D01*
X126468176Y-89803146D01*
X126472973Y-89818939D01*
X126474127Y-89838970D01*
X126474133Y-89841335D01*
X126473131Y-89863992D01*
X126468396Y-89881503D01*
X126457333Y-89894574D01*
X126437348Y-89903913D01*
X126405846Y-89910227D01*
X126360232Y-89914222D01*
X126297913Y-89916606D01*
X126216293Y-89918086D01*
X126191277Y-89918414D01*
X125949200Y-89921467D01*
X125945814Y-89986378D01*
X125942429Y-90051289D01*
X126110576Y-90051289D01*
X126176266Y-90051531D01*
X126223172Y-90052556D01*
X126255083Y-90054811D01*
X126275791Y-90058742D01*
X126289084Y-90064798D01*
X126298755Y-90073424D01*
X126298817Y-90073493D01*
X126316356Y-90107112D01*
X126315722Y-90143448D01*
X126297314Y-90174423D01*
X126293671Y-90177607D01*
X126280741Y-90185812D01*
X126263024Y-90191521D01*
X126236570Y-90195162D01*
X126197432Y-90197167D01*
X126141662Y-90197964D01*
X126105994Y-90198045D01*
X125943555Y-90198045D01*
X125943555Y-90356089D01*
X126190161Y-90356089D01*
X126271580Y-90356231D01*
X126333410Y-90356814D01*
X126378637Y-90358068D01*
X126410248Y-90360227D01*
X126431231Y-90363523D01*
X126444573Y-90368189D01*
X126453261Y-90374457D01*
X126455450Y-90376733D01*
X126471614Y-90408280D01*
X126472797Y-90444168D01*
X126459536Y-90475285D01*
X126449043Y-90485271D01*
X126438129Y-90490769D01*
X126421217Y-90495022D01*
X126395633Y-90498180D01*
X126358701Y-90500392D01*
X126307746Y-90501806D01*
X126240094Y-90502572D01*
X126153069Y-90502838D01*
X126133394Y-90502845D01*
X126044911Y-90502787D01*
X125976227Y-90502467D01*
X125924564Y-90501667D01*
X125887145Y-90500167D01*
X125861190Y-90497749D01*
X125843922Y-90494194D01*
X125832562Y-90489282D01*
X125824332Y-90482795D01*
X125819817Y-90478138D01*
X125813021Y-90469889D01*
X125807712Y-90459669D01*
X125803706Y-90444800D01*
X125800821Y-90422602D01*
X125798874Y-90390393D01*
X125797681Y-90345496D01*
X125797061Y-90285228D01*
X125796829Y-90206911D01*
X125796800Y-90140994D01*
X125796871Y-90048628D01*
X125797208Y-89976117D01*
X125797998Y-89920737D01*
X125799426Y-89879765D01*
X125801679Y-89850478D01*
X125804943Y-89830153D01*
X125809404Y-89816066D01*
X125815248Y-89805495D01*
X125820197Y-89798811D01*
X125843594Y-89769067D01*
X126133774Y-89769067D01*
X126230343Y-89769260D01*
G37*
X121287206Y-89769146D02*
X121356614Y-89769518D01*
X121409003Y-89770385D01*
X121447153Y-89771946D01*
X121473841Y-89774403D01*
X121491847Y-89777957D01*
X121503951Y-89782810D01*
X121512931Y-89789161D01*
X121516182Y-89792084D01*
X121535957Y-89823142D01*
X121539518Y-89858828D01*
X121526509Y-89890510D01*
X121520494Y-89896913D01*
X121510765Y-89903121D01*
X121495099Y-89907910D01*
X121470592Y-89911514D01*
X121434339Y-89914164D01*
X121383435Y-89916095D01*
X121314974Y-89917539D01*
X121252383Y-89918418D01*
X121004666Y-89921467D01*
X121001281Y-89986378D01*
X120997895Y-90051289D01*
X121166042Y-90051289D01*
X121239041Y-90051919D01*
X121292483Y-90054553D01*
X121329372Y-90060309D01*
X121352712Y-90070304D01*
X121365506Y-90085656D01*
X121370758Y-90107482D01*
X121371555Y-90127738D01*
X121369077Y-90152592D01*
X121359723Y-90170906D01*
X121340617Y-90183637D01*
X121308882Y-90191741D01*
X121261641Y-90196176D01*
X121196017Y-90197899D01*
X121160199Y-90198045D01*
X120999022Y-90198045D01*
X120999022Y-90356089D01*
X121247378Y-90356089D01*
X121328787Y-90356202D01*
X121390658Y-90356712D01*
X121436032Y-90357870D01*
X121467946Y-90359930D01*
X121489441Y-90363146D01*
X121503557Y-90367772D01*
X121513332Y-90374059D01*
X121518311Y-90378667D01*
X121535390Y-90405560D01*
X121540889Y-90429467D01*
X121533037Y-90458667D01*
X121518311Y-90480267D01*
X121510454Y-90487066D01*
X121500312Y-90492346D01*
X121485156Y-90496298D01*
X121462259Y-90499113D01*
X121428891Y-90500982D01*
X121382325Y-90502098D01*
X121319833Y-90502651D01*
X121238686Y-90502833D01*
X121196578Y-90502845D01*
X121106402Y-90502765D01*
X121036076Y-90502398D01*
X120982871Y-90501552D01*
X120944060Y-90500036D01*
X120916913Y-90497659D01*
X120898702Y-90494229D01*
X120886700Y-90489554D01*
X120878178Y-90483444D01*
X120874844Y-90480267D01*
X120868245Y-90472670D01*
X120863073Y-90462870D01*
X120859154Y-90448239D01*
X120856316Y-90426152D01*
X120854385Y-90393982D01*
X120853188Y-90349103D01*
X120852552Y-90288889D01*
X120852303Y-90210713D01*
X120852266Y-90137923D01*
X120852300Y-90044707D01*
X120852535Y-89971431D01*
X120853170Y-89915458D01*
X120854406Y-89874151D01*
X120856444Y-89844872D01*
X120859483Y-89824984D01*
X120863723Y-89811850D01*
X120869365Y-89802832D01*
X120876609Y-89795293D01*
X120878394Y-89793612D01*
X120887055Y-89786172D01*
X120897118Y-89780409D01*
X120911375Y-89776112D01*
X120932617Y-89773064D01*
X120963636Y-89771051D01*
X121007223Y-89769860D01*
X121066169Y-89769275D01*
X121143266Y-89769083D01*
X121197999Y-89769067D01*
X121287206Y-89769146D01*
G36*
X121287206Y-89769146D02*
G01*
X121356614Y-89769518D01*
X121409003Y-89770385D01*
X121447153Y-89771946D01*
X121473841Y-89774403D01*
X121491847Y-89777957D01*
X121503951Y-89782810D01*
X121512931Y-89789161D01*
X121516182Y-89792084D01*
X121535957Y-89823142D01*
X121539518Y-89858828D01*
X121526509Y-89890510D01*
X121520494Y-89896913D01*
X121510765Y-89903121D01*
X121495099Y-89907910D01*
X121470592Y-89911514D01*
X121434339Y-89914164D01*
X121383435Y-89916095D01*
X121314974Y-89917539D01*
X121252383Y-89918418D01*
X121004666Y-89921467D01*
X121001281Y-89986378D01*
X120997895Y-90051289D01*
X121166042Y-90051289D01*
X121239041Y-90051919D01*
X121292483Y-90054553D01*
X121329372Y-90060309D01*
X121352712Y-90070304D01*
X121365506Y-90085656D01*
X121370758Y-90107482D01*
X121371555Y-90127738D01*
X121369077Y-90152592D01*
X121359723Y-90170906D01*
X121340617Y-90183637D01*
X121308882Y-90191741D01*
X121261641Y-90196176D01*
X121196017Y-90197899D01*
X121160199Y-90198045D01*
X120999022Y-90198045D01*
X120999022Y-90356089D01*
X121247378Y-90356089D01*
X121328787Y-90356202D01*
X121390658Y-90356712D01*
X121436032Y-90357870D01*
X121467946Y-90359930D01*
X121489441Y-90363146D01*
X121503557Y-90367772D01*
X121513332Y-90374059D01*
X121518311Y-90378667D01*
X121535390Y-90405560D01*
X121540889Y-90429467D01*
X121533037Y-90458667D01*
X121518311Y-90480267D01*
X121510454Y-90487066D01*
X121500312Y-90492346D01*
X121485156Y-90496298D01*
X121462259Y-90499113D01*
X121428891Y-90500982D01*
X121382325Y-90502098D01*
X121319833Y-90502651D01*
X121238686Y-90502833D01*
X121196578Y-90502845D01*
X121106402Y-90502765D01*
X121036076Y-90502398D01*
X120982871Y-90501552D01*
X120944060Y-90500036D01*
X120916913Y-90497659D01*
X120898702Y-90494229D01*
X120886700Y-90489554D01*
X120878178Y-90483444D01*
X120874844Y-90480267D01*
X120868245Y-90472670D01*
X120863073Y-90462870D01*
X120859154Y-90448239D01*
X120856316Y-90426152D01*
X120854385Y-90393982D01*
X120853188Y-90349103D01*
X120852552Y-90288889D01*
X120852303Y-90210713D01*
X120852266Y-90137923D01*
X120852300Y-90044707D01*
X120852535Y-89971431D01*
X120853170Y-89915458D01*
X120854406Y-89874151D01*
X120856444Y-89844872D01*
X120859483Y-89824984D01*
X120863723Y-89811850D01*
X120869365Y-89802832D01*
X120876609Y-89795293D01*
X120878394Y-89793612D01*
X120887055Y-89786172D01*
X120897118Y-89780409D01*
X120911375Y-89776112D01*
X120932617Y-89773064D01*
X120963636Y-89771051D01*
X121007223Y-89769860D01*
X121066169Y-89769275D01*
X121143266Y-89769083D01*
X121197999Y-89769067D01*
X121287206Y-89769146D01*
G37*
X129744665Y-89771034D02*
X129764255Y-89778035D01*
X129765010Y-89778377D01*
X129791613Y-89798678D01*
X129806270Y-89819561D01*
X129809138Y-89829352D01*
X129808996Y-89842361D01*
X129804961Y-89860895D01*
X129796146Y-89887257D01*
X129781669Y-89923752D01*
X129760645Y-89972687D01*
X129732188Y-90036365D01*
X129695415Y-90117093D01*
X129675175Y-90161216D01*
X129638625Y-90239985D01*
X129604315Y-90312423D01*
X129573552Y-90375880D01*
X129547648Y-90427708D01*
X129527910Y-90465259D01*
X129515650Y-90485884D01*
X129513224Y-90488733D01*
X129482183Y-90501302D01*
X129447121Y-90499619D01*
X129419000Y-90484332D01*
X129417854Y-90483089D01*
X129406668Y-90466154D01*
X129387904Y-90433170D01*
X129363875Y-90388380D01*
X129336897Y-90336032D01*
X129327201Y-90316742D01*
X129254014Y-90170150D01*
X129174240Y-90329393D01*
X129145767Y-90384415D01*
X129119350Y-90432132D01*
X129097148Y-90468893D01*
X129081319Y-90491044D01*
X129075954Y-90495741D01*
X129034257Y-90502102D01*
X128999849Y-90488733D01*
X128989728Y-90474446D01*
X128972214Y-90442692D01*
X128948735Y-90396597D01*
X128920720Y-90339285D01*
X128889599Y-90273880D01*
X128856799Y-90203507D01*
X128823750Y-90131291D01*
X128791881Y-90060355D01*
X128762619Y-89993825D01*
X128737395Y-89934826D01*
X128717636Y-89886481D01*
X128704772Y-89851915D01*
X128700231Y-89834253D01*
X128700277Y-89833613D01*
X128711326Y-89811388D01*
X128733410Y-89788753D01*
X128734710Y-89787768D01*
X128761853Y-89772425D01*
X128786958Y-89772574D01*
X128796368Y-89775466D01*
X128807834Y-89781718D01*
X128820010Y-89794014D01*
X128834357Y-89814908D01*
X128852336Y-89846949D01*
X128875407Y-89892688D01*
X128905030Y-89954677D01*
X128931745Y-90011898D01*
X128962480Y-90078226D01*
X128990021Y-90137874D01*
X129012938Y-90187725D01*
X129029798Y-90224664D01*
X129039173Y-90245573D01*
X129040540Y-90248845D01*
X129046689Y-90243497D01*
X129060822Y-90221109D01*
X129081057Y-90184946D01*
X129105515Y-90138277D01*
X129115248Y-90119022D01*
X129148217Y-90054004D01*
X129173643Y-90006654D01*
X129193612Y-89974219D01*
X129210210Y-89953946D01*
X129225524Y-89943082D01*
X129241640Y-89938875D01*
X129252143Y-89938400D01*
X129270670Y-89940042D01*
X129286904Y-89946831D01*
X129303035Y-89961566D01*
X129321251Y-89987044D01*
X129343739Y-90026061D01*
X129372689Y-90081414D01*
X129388662Y-90112903D01*
X129414570Y-90163087D01*
X129437167Y-90204704D01*
X129454458Y-90234242D01*
X129464450Y-90248189D01*
X129465809Y-90248770D01*
X129472261Y-90237793D01*
X129486708Y-90209290D01*
X129507703Y-90166244D01*
X129533797Y-90111638D01*
X129563546Y-90048454D01*
X129578180Y-90017071D01*
X129616250Y-89936078D01*
X129646905Y-89873756D01*
X129671737Y-89828071D01*
X129692337Y-89796989D01*
X129710298Y-89778478D01*
X129727210Y-89770504D01*
X129744665Y-89771034D01*
G36*
X129744665Y-89771034D02*
G01*
X129764255Y-89778035D01*
X129765010Y-89778377D01*
X129791613Y-89798678D01*
X129806270Y-89819561D01*
X129809138Y-89829352D01*
X129808996Y-89842361D01*
X129804961Y-89860895D01*
X129796146Y-89887257D01*
X129781669Y-89923752D01*
X129760645Y-89972687D01*
X129732188Y-90036365D01*
X129695415Y-90117093D01*
X129675175Y-90161216D01*
X129638625Y-90239985D01*
X129604315Y-90312423D01*
X129573552Y-90375880D01*
X129547648Y-90427708D01*
X129527910Y-90465259D01*
X129515650Y-90485884D01*
X129513224Y-90488733D01*
X129482183Y-90501302D01*
X129447121Y-90499619D01*
X129419000Y-90484332D01*
X129417854Y-90483089D01*
X129406668Y-90466154D01*
X129387904Y-90433170D01*
X129363875Y-90388380D01*
X129336897Y-90336032D01*
X129327201Y-90316742D01*
X129254014Y-90170150D01*
X129174240Y-90329393D01*
X129145767Y-90384415D01*
X129119350Y-90432132D01*
X129097148Y-90468893D01*
X129081319Y-90491044D01*
X129075954Y-90495741D01*
X129034257Y-90502102D01*
X128999849Y-90488733D01*
X128989728Y-90474446D01*
X128972214Y-90442692D01*
X128948735Y-90396597D01*
X128920720Y-90339285D01*
X128889599Y-90273880D01*
X128856799Y-90203507D01*
X128823750Y-90131291D01*
X128791881Y-90060355D01*
X128762619Y-89993825D01*
X128737395Y-89934826D01*
X128717636Y-89886481D01*
X128704772Y-89851915D01*
X128700231Y-89834253D01*
X128700277Y-89833613D01*
X128711326Y-89811388D01*
X128733410Y-89788753D01*
X128734710Y-89787768D01*
X128761853Y-89772425D01*
X128786958Y-89772574D01*
X128796368Y-89775466D01*
X128807834Y-89781718D01*
X128820010Y-89794014D01*
X128834357Y-89814908D01*
X128852336Y-89846949D01*
X128875407Y-89892688D01*
X128905030Y-89954677D01*
X128931745Y-90011898D01*
X128962480Y-90078226D01*
X128990021Y-90137874D01*
X129012938Y-90187725D01*
X129029798Y-90224664D01*
X129039173Y-90245573D01*
X129040540Y-90248845D01*
X129046689Y-90243497D01*
X129060822Y-90221109D01*
X129081057Y-90184946D01*
X129105515Y-90138277D01*
X129115248Y-90119022D01*
X129148217Y-90054004D01*
X129173643Y-90006654D01*
X129193612Y-89974219D01*
X129210210Y-89953946D01*
X129225524Y-89943082D01*
X129241640Y-89938875D01*
X129252143Y-89938400D01*
X129270670Y-89940042D01*
X129286904Y-89946831D01*
X129303035Y-89961566D01*
X129321251Y-89987044D01*
X129343739Y-90026061D01*
X129372689Y-90081414D01*
X129388662Y-90112903D01*
X129414570Y-90163087D01*
X129437167Y-90204704D01*
X129454458Y-90234242D01*
X129464450Y-90248189D01*
X129465809Y-90248770D01*
X129472261Y-90237793D01*
X129486708Y-90209290D01*
X129507703Y-90166244D01*
X129533797Y-90111638D01*
X129563546Y-90048454D01*
X129578180Y-90017071D01*
X129616250Y-89936078D01*
X129646905Y-89873756D01*
X129671737Y-89828071D01*
X129692337Y-89796989D01*
X129710298Y-89778478D01*
X129727210Y-89770504D01*
X129744665Y-89771034D01*
G37*
X122308297Y-89770351D02*
X122383112Y-89775581D01*
X122452694Y-89783750D01*
X122512998Y-89794550D01*
X122559980Y-89807673D01*
X122589594Y-89822813D01*
X122594140Y-89827269D01*
X122609946Y-89861850D01*
X122605153Y-89897351D01*
X122580636Y-89927725D01*
X122579466Y-89928596D01*
X122565046Y-89937954D01*
X122549992Y-89942876D01*
X122528995Y-89943473D01*
X122496743Y-89939861D01*
X122447927Y-89932154D01*
X122444000Y-89931505D01*
X122371261Y-89922569D01*
X122292783Y-89918161D01*
X122214073Y-89918119D01*
X122140639Y-89922279D01*
X122077989Y-89930479D01*
X122031630Y-89942557D01*
X122028584Y-89943771D01*
X121994952Y-89962615D01*
X121983136Y-89981685D01*
X121992386Y-90000439D01*
X122021953Y-90018337D01*
X122071089Y-90034837D01*
X122139043Y-90049396D01*
X122184355Y-90056406D01*
X122278544Y-90069889D01*
X122353456Y-90082214D01*
X122412283Y-90094449D01*
X122458215Y-90107661D01*
X122494445Y-90122917D01*
X122524162Y-90141285D01*
X122550558Y-90163831D01*
X122571770Y-90185971D01*
X122596935Y-90216819D01*
X122609319Y-90243345D01*
X122613192Y-90276026D01*
X122613333Y-90287995D01*
X122610424Y-90327712D01*
X122598798Y-90357259D01*
X122578677Y-90383486D01*
X122537784Y-90423576D01*
X122492183Y-90454149D01*
X122438487Y-90476203D01*
X122373308Y-90490735D01*
X122293256Y-90498741D01*
X122194943Y-90501218D01*
X122178711Y-90501177D01*
X122113151Y-90499818D01*
X122048134Y-90496730D01*
X121990748Y-90492356D01*
X121948078Y-90487140D01*
X121944628Y-90486541D01*
X121902204Y-90476491D01*
X121866220Y-90463796D01*
X121845850Y-90452190D01*
X121826893Y-90421572D01*
X121825573Y-90385918D01*
X121841915Y-90354144D01*
X121845571Y-90350551D01*
X121860685Y-90339876D01*
X121879585Y-90335276D01*
X121908838Y-90336059D01*
X121944349Y-90340127D01*
X121984030Y-90343762D01*
X122039655Y-90346828D01*
X122104594Y-90349053D01*
X122172215Y-90350164D01*
X122190000Y-90350237D01*
X122257872Y-90349964D01*
X122307546Y-90348646D01*
X122343390Y-90345827D01*
X122369776Y-90341050D01*
X122391074Y-90333857D01*
X122403874Y-90327867D01*
X122432000Y-90311233D01*
X122449932Y-90296168D01*
X122452553Y-90291897D01*
X122447024Y-90274263D01*
X122420740Y-90257192D01*
X122375522Y-90241458D01*
X122313192Y-90227838D01*
X122294829Y-90224804D01*
X122198910Y-90209738D01*
X122122359Y-90197146D01*
X122062220Y-90186111D01*
X122015540Y-90175720D01*
X121979363Y-90165056D01*
X121950735Y-90153205D01*
X121926702Y-90139251D01*
X121904308Y-90122281D01*
X121880598Y-90101378D01*
X121872620Y-90094049D01*
X121844647Y-90066699D01*
X121829840Y-90045029D01*
X121824048Y-90020232D01*
X121823111Y-89988983D01*
X121833425Y-89927705D01*
X121864248Y-89875640D01*
X121915405Y-89832958D01*
X121986717Y-89799825D01*
X122037600Y-89784964D01*
X122092900Y-89775366D01*
X122159147Y-89769936D01*
X122232294Y-89768367D01*
X122308297Y-89770351D01*
G36*
X122308297Y-89770351D02*
G01*
X122383112Y-89775581D01*
X122452694Y-89783750D01*
X122512998Y-89794550D01*
X122559980Y-89807673D01*
X122589594Y-89822813D01*
X122594140Y-89827269D01*
X122609946Y-89861850D01*
X122605153Y-89897351D01*
X122580636Y-89927725D01*
X122579466Y-89928596D01*
X122565046Y-89937954D01*
X122549992Y-89942876D01*
X122528995Y-89943473D01*
X122496743Y-89939861D01*
X122447927Y-89932154D01*
X122444000Y-89931505D01*
X122371261Y-89922569D01*
X122292783Y-89918161D01*
X122214073Y-89918119D01*
X122140639Y-89922279D01*
X122077989Y-89930479D01*
X122031630Y-89942557D01*
X122028584Y-89943771D01*
X121994952Y-89962615D01*
X121983136Y-89981685D01*
X121992386Y-90000439D01*
X122021953Y-90018337D01*
X122071089Y-90034837D01*
X122139043Y-90049396D01*
X122184355Y-90056406D01*
X122278544Y-90069889D01*
X122353456Y-90082214D01*
X122412283Y-90094449D01*
X122458215Y-90107661D01*
X122494445Y-90122917D01*
X122524162Y-90141285D01*
X122550558Y-90163831D01*
X122571770Y-90185971D01*
X122596935Y-90216819D01*
X122609319Y-90243345D01*
X122613192Y-90276026D01*
X122613333Y-90287995D01*
X122610424Y-90327712D01*
X122598798Y-90357259D01*
X122578677Y-90383486D01*
X122537784Y-90423576D01*
X122492183Y-90454149D01*
X122438487Y-90476203D01*
X122373308Y-90490735D01*
X122293256Y-90498741D01*
X122194943Y-90501218D01*
X122178711Y-90501177D01*
X122113151Y-90499818D01*
X122048134Y-90496730D01*
X121990748Y-90492356D01*
X121948078Y-90487140D01*
X121944628Y-90486541D01*
X121902204Y-90476491D01*
X121866220Y-90463796D01*
X121845850Y-90452190D01*
X121826893Y-90421572D01*
X121825573Y-90385918D01*
X121841915Y-90354144D01*
X121845571Y-90350551D01*
X121860685Y-90339876D01*
X121879585Y-90335276D01*
X121908838Y-90336059D01*
X121944349Y-90340127D01*
X121984030Y-90343762D01*
X122039655Y-90346828D01*
X122104594Y-90349053D01*
X122172215Y-90350164D01*
X122190000Y-90350237D01*
X122257872Y-90349964D01*
X122307546Y-90348646D01*
X122343390Y-90345827D01*
X122369776Y-90341050D01*
X122391074Y-90333857D01*
X122403874Y-90327867D01*
X122432000Y-90311233D01*
X122449932Y-90296168D01*
X122452553Y-90291897D01*
X122447024Y-90274263D01*
X122420740Y-90257192D01*
X122375522Y-90241458D01*
X122313192Y-90227838D01*
X122294829Y-90224804D01*
X122198910Y-90209738D01*
X122122359Y-90197146D01*
X122062220Y-90186111D01*
X122015540Y-90175720D01*
X121979363Y-90165056D01*
X121950735Y-90153205D01*
X121926702Y-90139251D01*
X121904308Y-90122281D01*
X121880598Y-90101378D01*
X121872620Y-90094049D01*
X121844647Y-90066699D01*
X121829840Y-90045029D01*
X121824048Y-90020232D01*
X121823111Y-89988983D01*
X121833425Y-89927705D01*
X121864248Y-89875640D01*
X121915405Y-89832958D01*
X121986717Y-89799825D01*
X122037600Y-89784964D01*
X122092900Y-89775366D01*
X122159147Y-89769936D01*
X122232294Y-89768367D01*
X122308297Y-89770351D01*
G37*
X126328429Y-85449071D02*
X126488570Y-85470245D01*
X126652510Y-85510385D01*
X126822313Y-85569889D01*
X127000043Y-85649154D01*
X127011310Y-85654699D01*
X127069005Y-85682725D01*
X127120552Y-85706802D01*
X127162191Y-85725249D01*
X127190162Y-85736386D01*
X127199733Y-85738933D01*
X127218950Y-85743941D01*
X127223561Y-85748147D01*
X127218458Y-85758580D01*
X127202418Y-85784868D01*
X127177288Y-85824257D01*
X127144914Y-85873991D01*
X127107143Y-85931315D01*
X127065822Y-85993476D01*
X127022798Y-86057718D01*
X126979917Y-86121285D01*
X126939026Y-86181425D01*
X126901971Y-86235380D01*
X126870600Y-86280397D01*
X126846759Y-86313721D01*
X126832294Y-86332597D01*
X126830309Y-86334787D01*
X126820191Y-86330138D01*
X126797850Y-86312962D01*
X126767280Y-86286440D01*
X126751536Y-86271964D01*
X126655047Y-86196682D01*
X126548336Y-86141241D01*
X126432832Y-86106141D01*
X126309962Y-86091880D01*
X126240561Y-86093051D01*
X126119423Y-86110212D01*
X126010205Y-86146094D01*
X125912582Y-86200959D01*
X125826228Y-86275070D01*
X125750815Y-86368688D01*
X125686018Y-86482076D01*
X125648601Y-86568667D01*
X125604748Y-86704366D01*
X125572428Y-86851850D01*
X125551557Y-87007314D01*
X125542051Y-87166956D01*
X125543827Y-87326973D01*
X125556803Y-87483561D01*
X125580894Y-87632918D01*
X125616018Y-87771240D01*
X125662092Y-87894724D01*
X125678373Y-87928978D01*
X125746620Y-88043064D01*
X125827079Y-88139557D01*
X125918570Y-88217670D01*
X126019911Y-88276617D01*
X126129920Y-88315612D01*
X126247415Y-88333868D01*
X126288883Y-88335211D01*
X126410441Y-88324290D01*
X126530878Y-88291474D01*
X126648666Y-88237439D01*
X126762277Y-88162865D01*
X126853685Y-88084539D01*
X126900215Y-88040008D01*
X127081483Y-88337271D01*
X127126580Y-88411433D01*
X127167819Y-88479646D01*
X127203735Y-88539459D01*
X127232866Y-88588420D01*
X127253750Y-88624079D01*
X127264924Y-88643984D01*
X127266375Y-88647079D01*
X127258146Y-88656718D01*
X127232567Y-88673999D01*
X127192873Y-88697283D01*
X127142297Y-88724934D01*
X127084074Y-88755315D01*
X127021437Y-88786790D01*
X126957621Y-88817722D01*
X126895860Y-88846473D01*
X126839388Y-88871408D01*
X126791438Y-88890889D01*
X126767986Y-88899318D01*
X126634221Y-88937133D01*
X126496327Y-88962136D01*
X126348622Y-88975140D01*
X126221833Y-88977468D01*
X126153878Y-88976373D01*
X126088277Y-88974275D01*
X126030847Y-88971434D01*
X125987403Y-88968106D01*
X125973298Y-88966422D01*
X125834284Y-88937587D01*
X125692757Y-88892468D01*
X125555275Y-88833750D01*
X125428394Y-88764120D01*
X125350889Y-88711441D01*
X125223481Y-88603239D01*
X125105178Y-88476671D01*
X124998172Y-88334866D01*
X124904652Y-88180951D01*
X124826810Y-88018053D01*
X124782956Y-87900756D01*
X124732708Y-87717128D01*
X124699209Y-87522581D01*
X124682449Y-87321325D01*
X124682416Y-87117568D01*
X124699101Y-86915521D01*
X124732493Y-86719392D01*
X124782580Y-86533391D01*
X124786397Y-86521803D01*
X124849281Y-86359750D01*
X124926028Y-86211832D01*
X125019242Y-86073865D01*
X125131527Y-85941661D01*
X125175392Y-85896399D01*
X125311534Y-85772457D01*
X125451491Y-85669915D01*
X125597411Y-85587656D01*
X125751442Y-85524564D01*
X125915732Y-85479523D01*
X126011289Y-85462033D01*
X126170023Y-85446466D01*
X126328429Y-85449071D01*
G36*
X126328429Y-85449071D02*
G01*
X126488570Y-85470245D01*
X126652510Y-85510385D01*
X126822313Y-85569889D01*
X127000043Y-85649154D01*
X127011310Y-85654699D01*
X127069005Y-85682725D01*
X127120552Y-85706802D01*
X127162191Y-85725249D01*
X127190162Y-85736386D01*
X127199733Y-85738933D01*
X127218950Y-85743941D01*
X127223561Y-85748147D01*
X127218458Y-85758580D01*
X127202418Y-85784868D01*
X127177288Y-85824257D01*
X127144914Y-85873991D01*
X127107143Y-85931315D01*
X127065822Y-85993476D01*
X127022798Y-86057718D01*
X126979917Y-86121285D01*
X126939026Y-86181425D01*
X126901971Y-86235380D01*
X126870600Y-86280397D01*
X126846759Y-86313721D01*
X126832294Y-86332597D01*
X126830309Y-86334787D01*
X126820191Y-86330138D01*
X126797850Y-86312962D01*
X126767280Y-86286440D01*
X126751536Y-86271964D01*
X126655047Y-86196682D01*
X126548336Y-86141241D01*
X126432832Y-86106141D01*
X126309962Y-86091880D01*
X126240561Y-86093051D01*
X126119423Y-86110212D01*
X126010205Y-86146094D01*
X125912582Y-86200959D01*
X125826228Y-86275070D01*
X125750815Y-86368688D01*
X125686018Y-86482076D01*
X125648601Y-86568667D01*
X125604748Y-86704366D01*
X125572428Y-86851850D01*
X125551557Y-87007314D01*
X125542051Y-87166956D01*
X125543827Y-87326973D01*
X125556803Y-87483561D01*
X125580894Y-87632918D01*
X125616018Y-87771240D01*
X125662092Y-87894724D01*
X125678373Y-87928978D01*
X125746620Y-88043064D01*
X125827079Y-88139557D01*
X125918570Y-88217670D01*
X126019911Y-88276617D01*
X126129920Y-88315612D01*
X126247415Y-88333868D01*
X126288883Y-88335211D01*
X126410441Y-88324290D01*
X126530878Y-88291474D01*
X126648666Y-88237439D01*
X126762277Y-88162865D01*
X126853685Y-88084539D01*
X126900215Y-88040008D01*
X127081483Y-88337271D01*
X127126580Y-88411433D01*
X127167819Y-88479646D01*
X127203735Y-88539459D01*
X127232866Y-88588420D01*
X127253750Y-88624079D01*
X127264924Y-88643984D01*
X127266375Y-88647079D01*
X127258146Y-88656718D01*
X127232567Y-88673999D01*
X127192873Y-88697283D01*
X127142297Y-88724934D01*
X127084074Y-88755315D01*
X127021437Y-88786790D01*
X126957621Y-88817722D01*
X126895860Y-88846473D01*
X126839388Y-88871408D01*
X126791438Y-88890889D01*
X126767986Y-88899318D01*
X126634221Y-88937133D01*
X126496327Y-88962136D01*
X126348622Y-88975140D01*
X126221833Y-88977468D01*
X126153878Y-88976373D01*
X126088277Y-88974275D01*
X126030847Y-88971434D01*
X125987403Y-88968106D01*
X125973298Y-88966422D01*
X125834284Y-88937587D01*
X125692757Y-88892468D01*
X125555275Y-88833750D01*
X125428394Y-88764120D01*
X125350889Y-88711441D01*
X125223481Y-88603239D01*
X125105178Y-88476671D01*
X124998172Y-88334866D01*
X124904652Y-88180951D01*
X124826810Y-88018053D01*
X124782956Y-87900756D01*
X124732708Y-87717128D01*
X124699209Y-87522581D01*
X124682449Y-87321325D01*
X124682416Y-87117568D01*
X124699101Y-86915521D01*
X124732493Y-86719392D01*
X124782580Y-86533391D01*
X124786397Y-86521803D01*
X124849281Y-86359750D01*
X124926028Y-86211832D01*
X125019242Y-86073865D01*
X125131527Y-85941661D01*
X125175392Y-85896399D01*
X125311534Y-85772457D01*
X125451491Y-85669915D01*
X125597411Y-85587656D01*
X125751442Y-85524564D01*
X125915732Y-85479523D01*
X126011289Y-85462033D01*
X126170023Y-85446466D01*
X126328429Y-85449071D01*
G37*
X132186507Y-86972245D02*
X132186526Y-87206662D01*
X132186552Y-87419603D01*
X132186625Y-87612168D01*
X132186782Y-87785459D01*
X132187064Y-87940576D01*
X132187509Y-88078620D01*
X132188156Y-88200692D01*
X132189045Y-88307894D01*
X132190213Y-88401326D01*
X132191701Y-88482090D01*
X132193546Y-88551286D01*
X132195789Y-88610015D01*
X132198469Y-88659379D01*
X132201623Y-88700478D01*
X132205292Y-88734413D01*
X132209513Y-88762286D01*
X132214327Y-88785198D01*
X132219773Y-88804249D01*
X132225888Y-88820540D01*
X132232712Y-88835173D01*
X132240285Y-88849249D01*
X132248645Y-88863868D01*
X132253839Y-88872974D01*
X132288104Y-88933689D01*
X131429955Y-88933689D01*
X131429955Y-88837733D01*
X131429224Y-88794370D01*
X131427272Y-88761205D01*
X131424463Y-88743424D01*
X131423221Y-88741778D01*
X131411799Y-88748662D01*
X131389084Y-88766505D01*
X131366385Y-88785879D01*
X131311800Y-88826614D01*
X131242321Y-88867617D01*
X131165270Y-88905123D01*
X131087965Y-88935364D01*
X131057113Y-88945012D01*
X130988616Y-88959578D01*
X130905764Y-88969539D01*
X130816371Y-88974583D01*
X130728248Y-88974396D01*
X130649207Y-88968666D01*
X130611511Y-88962858D01*
X130473414Y-88924797D01*
X130346113Y-88867073D01*
X130230292Y-88790211D01*
X130126637Y-88694739D01*
X130035833Y-88581179D01*
X129969031Y-88470381D01*
X129914164Y-88353625D01*
X129872163Y-88234276D01*
X129842167Y-88108283D01*
X129823311Y-87971594D01*
X129814732Y-87820158D01*
X129814006Y-87742711D01*
X129816100Y-87685934D01*
X130645217Y-87685934D01*
X130645424Y-87779002D01*
X130648337Y-87866692D01*
X130654000Y-87943772D01*
X130662455Y-88005009D01*
X130665038Y-88017350D01*
X130696840Y-88124633D01*
X130738498Y-88211658D01*
X130790363Y-88278642D01*
X130852781Y-88325805D01*
X130926100Y-88353365D01*
X131010669Y-88361541D01*
X131106835Y-88350551D01*
X131170311Y-88334829D01*
X131219454Y-88316639D01*
X131273583Y-88290791D01*
X131314244Y-88267089D01*
X131384800Y-88220721D01*
X131384800Y-87070530D01*
X131317392Y-87026962D01*
X131238867Y-86986040D01*
X131154681Y-86959389D01*
X131069557Y-86947465D01*
X130988216Y-86950722D01*
X130915380Y-86969615D01*
X130883426Y-86985184D01*
X130825501Y-87028181D01*
X130776544Y-87084953D01*
X130735390Y-87157575D01*
X130700874Y-87248121D01*
X130671833Y-87358666D01*
X130670552Y-87364533D01*
X130660381Y-87426788D01*
X130652739Y-87504594D01*
X130647670Y-87592720D01*
X130645217Y-87685934D01*
X129816100Y-87685934D01*
X129821857Y-87529895D01*
X129843802Y-87334059D01*
X129879786Y-87155332D01*
X129929759Y-86993845D01*
X129993668Y-86849726D01*
X130071462Y-86723106D01*
X130163089Y-86614115D01*
X130268497Y-86522883D01*
X130313662Y-86491932D01*
X130414611Y-86435785D01*
X130517901Y-86396174D01*
X130627989Y-86372014D01*
X130749330Y-86362219D01*
X130841836Y-86363265D01*
X130971490Y-86374231D01*
X131084084Y-86396046D01*
X131182875Y-86429714D01*
X131271121Y-86476236D01*
X131319986Y-86510448D01*
X131349353Y-86532362D01*
X131371043Y-86547333D01*
X131379253Y-86551733D01*
X131380868Y-86540904D01*
X131382159Y-86510251D01*
X131383138Y-86462526D01*
X131383817Y-86400479D01*
X131384210Y-86326862D01*
X131384330Y-86244427D01*
X131384188Y-86155925D01*
X131383797Y-86064107D01*
X131383171Y-85971724D01*
X131382320Y-85881528D01*
X131381260Y-85796271D01*
X131380001Y-85718703D01*
X131378556Y-85651576D01*
X131376938Y-85597641D01*
X131375161Y-85559650D01*
X131374669Y-85552667D01*
X131367092Y-85482251D01*
X131355531Y-85427102D01*
X131337792Y-85379981D01*
X131311682Y-85333647D01*
X131305415Y-85324067D01*
X131280983Y-85287378D01*
X132186311Y-85287378D01*
X132186507Y-86972245D01*
G36*
X132186507Y-86972245D02*
G01*
X132186526Y-87206662D01*
X132186552Y-87419603D01*
X132186625Y-87612168D01*
X132186782Y-87785459D01*
X132187064Y-87940576D01*
X132187509Y-88078620D01*
X132188156Y-88200692D01*
X132189045Y-88307894D01*
X132190213Y-88401326D01*
X132191701Y-88482090D01*
X132193546Y-88551286D01*
X132195789Y-88610015D01*
X132198469Y-88659379D01*
X132201623Y-88700478D01*
X132205292Y-88734413D01*
X132209513Y-88762286D01*
X132214327Y-88785198D01*
X132219773Y-88804249D01*
X132225888Y-88820540D01*
X132232712Y-88835173D01*
X132240285Y-88849249D01*
X132248645Y-88863868D01*
X132253839Y-88872974D01*
X132288104Y-88933689D01*
X131429955Y-88933689D01*
X131429955Y-88837733D01*
X131429224Y-88794370D01*
X131427272Y-88761205D01*
X131424463Y-88743424D01*
X131423221Y-88741778D01*
X131411799Y-88748662D01*
X131389084Y-88766505D01*
X131366385Y-88785879D01*
X131311800Y-88826614D01*
X131242321Y-88867617D01*
X131165270Y-88905123D01*
X131087965Y-88935364D01*
X131057113Y-88945012D01*
X130988616Y-88959578D01*
X130905764Y-88969539D01*
X130816371Y-88974583D01*
X130728248Y-88974396D01*
X130649207Y-88968666D01*
X130611511Y-88962858D01*
X130473414Y-88924797D01*
X130346113Y-88867073D01*
X130230292Y-88790211D01*
X130126637Y-88694739D01*
X130035833Y-88581179D01*
X129969031Y-88470381D01*
X129914164Y-88353625D01*
X129872163Y-88234276D01*
X129842167Y-88108283D01*
X129823311Y-87971594D01*
X129814732Y-87820158D01*
X129814006Y-87742711D01*
X129816100Y-87685934D01*
X130645217Y-87685934D01*
X130645424Y-87779002D01*
X130648337Y-87866692D01*
X130654000Y-87943772D01*
X130662455Y-88005009D01*
X130665038Y-88017350D01*
X130696840Y-88124633D01*
X130738498Y-88211658D01*
X130790363Y-88278642D01*
X130852781Y-88325805D01*
X130926100Y-88353365D01*
X131010669Y-88361541D01*
X131106835Y-88350551D01*
X131170311Y-88334829D01*
X131219454Y-88316639D01*
X131273583Y-88290791D01*
X131314244Y-88267089D01*
X131384800Y-88220721D01*
X131384800Y-87070530D01*
X131317392Y-87026962D01*
X131238867Y-86986040D01*
X131154681Y-86959389D01*
X131069557Y-86947465D01*
X130988216Y-86950722D01*
X130915380Y-86969615D01*
X130883426Y-86985184D01*
X130825501Y-87028181D01*
X130776544Y-87084953D01*
X130735390Y-87157575D01*
X130700874Y-87248121D01*
X130671833Y-87358666D01*
X130670552Y-87364533D01*
X130660381Y-87426788D01*
X130652739Y-87504594D01*
X130647670Y-87592720D01*
X130645217Y-87685934D01*
X129816100Y-87685934D01*
X129821857Y-87529895D01*
X129843802Y-87334059D01*
X129879786Y-87155332D01*
X129929759Y-86993845D01*
X129993668Y-86849726D01*
X130071462Y-86723106D01*
X130163089Y-86614115D01*
X130268497Y-86522883D01*
X130313662Y-86491932D01*
X130414611Y-86435785D01*
X130517901Y-86396174D01*
X130627989Y-86372014D01*
X130749330Y-86362219D01*
X130841836Y-86363265D01*
X130971490Y-86374231D01*
X131084084Y-86396046D01*
X131182875Y-86429714D01*
X131271121Y-86476236D01*
X131319986Y-86510448D01*
X131349353Y-86532362D01*
X131371043Y-86547333D01*
X131379253Y-86551733D01*
X131380868Y-86540904D01*
X131382159Y-86510251D01*
X131383138Y-86462526D01*
X131383817Y-86400479D01*
X131384210Y-86326862D01*
X131384330Y-86244427D01*
X131384188Y-86155925D01*
X131383797Y-86064107D01*
X131383171Y-85971724D01*
X131382320Y-85881528D01*
X131381260Y-85796271D01*
X131380001Y-85718703D01*
X131378556Y-85651576D01*
X131376938Y-85597641D01*
X131375161Y-85559650D01*
X131374669Y-85552667D01*
X131367092Y-85482251D01*
X131355531Y-85427102D01*
X131337792Y-85379981D01*
X131311682Y-85333647D01*
X131305415Y-85324067D01*
X131280983Y-85287378D01*
X132186311Y-85287378D01*
X132186507Y-86972245D01*
G37*
X128673574Y-86366552D02*
X128825492Y-86386567D01*
X128960756Y-86420202D01*
X129080239Y-86467725D01*
X129184815Y-86529405D01*
X129262424Y-86592965D01*
X129331265Y-86667099D01*
X129385006Y-86746871D01*
X129427910Y-86839091D01*
X129443384Y-86882161D01*
X129456244Y-86921142D01*
X129467446Y-86957289D01*
X129477120Y-86992434D01*
X129485396Y-87028410D01*
X129492403Y-87067050D01*
X129498272Y-87110185D01*
X129503131Y-87159649D01*
X129507110Y-87217273D01*
X129510340Y-87284891D01*
X129512949Y-87364334D01*
X129515067Y-87457436D01*
X129516824Y-87566027D01*
X129518349Y-87691942D01*
X129519772Y-87837012D01*
X129521025Y-87979778D01*
X129522351Y-88135968D01*
X129523556Y-88271239D01*
X129524766Y-88387246D01*
X129526106Y-88485645D01*
X129527700Y-88568093D01*
X129529675Y-88636246D01*
X129532156Y-88691760D01*
X129535269Y-88736292D01*
X129539138Y-88771498D01*
X129543889Y-88799034D01*
X129549648Y-88820556D01*
X129556539Y-88837722D01*
X129564689Y-88852186D01*
X129574223Y-88865606D01*
X129585266Y-88879638D01*
X129589566Y-88885071D01*
X129605386Y-88907910D01*
X129612422Y-88923463D01*
X129612444Y-88923922D01*
X129601567Y-88926121D01*
X129570582Y-88928147D01*
X129521957Y-88929942D01*
X129458163Y-88931451D01*
X129381669Y-88932616D01*
X129294944Y-88933380D01*
X129200457Y-88933686D01*
X129189550Y-88933689D01*
X128766657Y-88933689D01*
X128763395Y-88837622D01*
X128760133Y-88741556D01*
X128698044Y-88792543D01*
X128600714Y-88860057D01*
X128490813Y-88914749D01*
X128404349Y-88944978D01*
X128335278Y-88959666D01*
X128251925Y-88969659D01*
X128162159Y-88974646D01*
X128073845Y-88974313D01*
X127994851Y-88968351D01*
X127958622Y-88962638D01*
X127818603Y-88924776D01*
X127692178Y-88869932D01*
X127580260Y-88798924D01*
X127483762Y-88712568D01*
X127403600Y-88611679D01*
X127340687Y-88497076D01*
X127296312Y-88370984D01*
X127283978Y-88314401D01*
X127276368Y-88252202D01*
X127272739Y-88177363D01*
X127272245Y-88143467D01*
X127272310Y-88140282D01*
X128032248Y-88140282D01*
X128041541Y-88215333D01*
X128069728Y-88279160D01*
X128118197Y-88334798D01*
X128123254Y-88339211D01*
X128171548Y-88374037D01*
X128223257Y-88396620D01*
X128283989Y-88408540D01*
X128359352Y-88411383D01*
X128377459Y-88410978D01*
X128431278Y-88408325D01*
X128471308Y-88402909D01*
X128506324Y-88392745D01*
X128545103Y-88375850D01*
X128555745Y-88370672D01*
X128616396Y-88334844D01*
X128663215Y-88292212D01*
X128675952Y-88276973D01*
X128720622Y-88220462D01*
X128720622Y-88024586D01*
X128720086Y-87945939D01*
X128718396Y-87887988D01*
X128715428Y-87848875D01*
X128711057Y-87826741D01*
X128706972Y-87820274D01*
X128691047Y-87817111D01*
X128657264Y-87814488D01*
X128610340Y-87812655D01*
X128554993Y-87811857D01*
X128546106Y-87811842D01*
X128425330Y-87817096D01*
X128322660Y-87833263D01*
X128236106Y-87860961D01*
X128163681Y-87900808D01*
X128108751Y-87947758D01*
X128064204Y-88005645D01*
X128039480Y-88068693D01*
X128032248Y-88140282D01*
X127272310Y-88140282D01*
X127274178Y-88049712D01*
X127282522Y-87970812D01*
X127298768Y-87899590D01*
X127324405Y-87828864D01*
X127348401Y-87776493D01*
X127407020Y-87681196D01*
X127485117Y-87593170D01*
X127580315Y-87514017D01*
X127690238Y-87445340D01*
X127812510Y-87388741D01*
X127944755Y-87345821D01*
X128009422Y-87330882D01*
X128145604Y-87308777D01*
X128294049Y-87294194D01*
X128445505Y-87287813D01*
X128572064Y-87289445D01*
X128733950Y-87296224D01*
X128726530Y-87237245D01*
X128707238Y-87138092D01*
X128676104Y-87057372D01*
X128632269Y-86994466D01*
X128574871Y-86948756D01*
X128503048Y-86919622D01*
X128415941Y-86906447D01*
X128312686Y-86908611D01*
X128274711Y-86912612D01*
X128133520Y-86937780D01*
X127996707Y-86978814D01*
X127902178Y-87016815D01*
X127857018Y-87036190D01*
X127818585Y-87051760D01*
X127792234Y-87061405D01*
X127784546Y-87063452D01*
X127774802Y-87054374D01*
X127758083Y-87025405D01*
X127734232Y-86976217D01*
X127703093Y-86906484D01*
X127664507Y-86815879D01*
X127657910Y-86800089D01*
X127627853Y-86727772D01*
X127600874Y-86662425D01*
X127578136Y-86606906D01*
X127560806Y-86564072D01*
X127550048Y-86536781D01*
X127546941Y-86527942D01*
X127556940Y-86523187D01*
X127583217Y-86517910D01*
X127611489Y-86514231D01*
X127641646Y-86509474D01*
X127689433Y-86500028D01*
X127750612Y-86486820D01*
X127820946Y-86470776D01*
X127896194Y-86452820D01*
X127924755Y-86445797D01*
X128029816Y-86420209D01*
X128117480Y-86400147D01*
X128192068Y-86384969D01*
X128257903Y-86374035D01*
X128319307Y-86366704D01*
X128380602Y-86362335D01*
X128446110Y-86360287D01*
X128504128Y-86359889D01*
X128673574Y-86366552D01*
G36*
X128673574Y-86366552D02*
G01*
X128825492Y-86386567D01*
X128960756Y-86420202D01*
X129080239Y-86467725D01*
X129184815Y-86529405D01*
X129262424Y-86592965D01*
X129331265Y-86667099D01*
X129385006Y-86746871D01*
X129427910Y-86839091D01*
X129443384Y-86882161D01*
X129456244Y-86921142D01*
X129467446Y-86957289D01*
X129477120Y-86992434D01*
X129485396Y-87028410D01*
X129492403Y-87067050D01*
X129498272Y-87110185D01*
X129503131Y-87159649D01*
X129507110Y-87217273D01*
X129510340Y-87284891D01*
X129512949Y-87364334D01*
X129515067Y-87457436D01*
X129516824Y-87566027D01*
X129518349Y-87691942D01*
X129519772Y-87837012D01*
X129521025Y-87979778D01*
X129522351Y-88135968D01*
X129523556Y-88271239D01*
X129524766Y-88387246D01*
X129526106Y-88485645D01*
X129527700Y-88568093D01*
X129529675Y-88636246D01*
X129532156Y-88691760D01*
X129535269Y-88736292D01*
X129539138Y-88771498D01*
X129543889Y-88799034D01*
X129549648Y-88820556D01*
X129556539Y-88837722D01*
X129564689Y-88852186D01*
X129574223Y-88865606D01*
X129585266Y-88879638D01*
X129589566Y-88885071D01*
X129605386Y-88907910D01*
X129612422Y-88923463D01*
X129612444Y-88923922D01*
X129601567Y-88926121D01*
X129570582Y-88928147D01*
X129521957Y-88929942D01*
X129458163Y-88931451D01*
X129381669Y-88932616D01*
X129294944Y-88933380D01*
X129200457Y-88933686D01*
X129189550Y-88933689D01*
X128766657Y-88933689D01*
X128763395Y-88837622D01*
X128760133Y-88741556D01*
X128698044Y-88792543D01*
X128600714Y-88860057D01*
X128490813Y-88914749D01*
X128404349Y-88944978D01*
X128335278Y-88959666D01*
X128251925Y-88969659D01*
X128162159Y-88974646D01*
X128073845Y-88974313D01*
X127994851Y-88968351D01*
X127958622Y-88962638D01*
X127818603Y-88924776D01*
X127692178Y-88869932D01*
X127580260Y-88798924D01*
X127483762Y-88712568D01*
X127403600Y-88611679D01*
X127340687Y-88497076D01*
X127296312Y-88370984D01*
X127283978Y-88314401D01*
X127276368Y-88252202D01*
X127272739Y-88177363D01*
X127272245Y-88143467D01*
X127272310Y-88140282D01*
X128032248Y-88140282D01*
X128041541Y-88215333D01*
X128069728Y-88279160D01*
X128118197Y-88334798D01*
X128123254Y-88339211D01*
X128171548Y-88374037D01*
X128223257Y-88396620D01*
X128283989Y-88408540D01*
X128359352Y-88411383D01*
X128377459Y-88410978D01*
X128431278Y-88408325D01*
X128471308Y-88402909D01*
X128506324Y-88392745D01*
X128545103Y-88375850D01*
X128555745Y-88370672D01*
X128616396Y-88334844D01*
X128663215Y-88292212D01*
X128675952Y-88276973D01*
X128720622Y-88220462D01*
X128720622Y-88024586D01*
X128720086Y-87945939D01*
X128718396Y-87887988D01*
X128715428Y-87848875D01*
X128711057Y-87826741D01*
X128706972Y-87820274D01*
X128691047Y-87817111D01*
X128657264Y-87814488D01*
X128610340Y-87812655D01*
X128554993Y-87811857D01*
X128546106Y-87811842D01*
X128425330Y-87817096D01*
X128322660Y-87833263D01*
X128236106Y-87860961D01*
X128163681Y-87900808D01*
X128108751Y-87947758D01*
X128064204Y-88005645D01*
X128039480Y-88068693D01*
X128032248Y-88140282D01*
X127272310Y-88140282D01*
X127274178Y-88049712D01*
X127282522Y-87970812D01*
X127298768Y-87899590D01*
X127324405Y-87828864D01*
X127348401Y-87776493D01*
X127407020Y-87681196D01*
X127485117Y-87593170D01*
X127580315Y-87514017D01*
X127690238Y-87445340D01*
X127812510Y-87388741D01*
X127944755Y-87345821D01*
X128009422Y-87330882D01*
X128145604Y-87308777D01*
X128294049Y-87294194D01*
X128445505Y-87287813D01*
X128572064Y-87289445D01*
X128733950Y-87296224D01*
X128726530Y-87237245D01*
X128707238Y-87138092D01*
X128676104Y-87057372D01*
X128632269Y-86994466D01*
X128574871Y-86948756D01*
X128503048Y-86919622D01*
X128415941Y-86906447D01*
X128312686Y-86908611D01*
X128274711Y-86912612D01*
X128133520Y-86937780D01*
X127996707Y-86978814D01*
X127902178Y-87016815D01*
X127857018Y-87036190D01*
X127818585Y-87051760D01*
X127792234Y-87061405D01*
X127784546Y-87063452D01*
X127774802Y-87054374D01*
X127758083Y-87025405D01*
X127734232Y-86976217D01*
X127703093Y-86906484D01*
X127664507Y-86815879D01*
X127657910Y-86800089D01*
X127627853Y-86727772D01*
X127600874Y-86662425D01*
X127578136Y-86606906D01*
X127560806Y-86564072D01*
X127550048Y-86536781D01*
X127546941Y-86527942D01*
X127556940Y-86523187D01*
X127583217Y-86517910D01*
X127611489Y-86514231D01*
X127641646Y-86509474D01*
X127689433Y-86500028D01*
X127750612Y-86486820D01*
X127820946Y-86470776D01*
X127896194Y-86452820D01*
X127924755Y-86445797D01*
X128029816Y-86420209D01*
X128117480Y-86400147D01*
X128192068Y-86384969D01*
X128257903Y-86374035D01*
X128319307Y-86366704D01*
X128380602Y-86362335D01*
X128446110Y-86360287D01*
X128504128Y-86359889D01*
X128673574Y-86366552D01*
G37*
X123053600Y-84989054D02*
X123064465Y-85102993D01*
X123096082Y-85210616D01*
X123146985Y-85309615D01*
X123215707Y-85397684D01*
X123300781Y-85472516D01*
X123397768Y-85530384D01*
X123504036Y-85570005D01*
X123611050Y-85588573D01*
X123716700Y-85587434D01*
X123818875Y-85567930D01*
X123915466Y-85531406D01*
X124004362Y-85479205D01*
X124083454Y-85412673D01*
X124150631Y-85333152D01*
X124203783Y-85241987D01*
X124240801Y-85140523D01*
X124259573Y-85030102D01*
X124261511Y-84980206D01*
X124261511Y-84892267D01*
X124313440Y-84892267D01*
X124349747Y-84895111D01*
X124376645Y-84906911D01*
X124403751Y-84930649D01*
X124442133Y-84969031D01*
X124442133Y-87160602D01*
X124442124Y-87422739D01*
X124442092Y-87663241D01*
X124442028Y-87883048D01*
X124441924Y-88083101D01*
X124441773Y-88264344D01*
X124441566Y-88427716D01*
X124441294Y-88574160D01*
X124440950Y-88704617D01*
X124440526Y-88820029D01*
X124440013Y-88921338D01*
X124439403Y-89009484D01*
X124438688Y-89085410D01*
X124437860Y-89150057D01*
X124436911Y-89204367D01*
X124435833Y-89249280D01*
X124434617Y-89285740D01*
X124433255Y-89314687D01*
X124431739Y-89337063D01*
X124430062Y-89353809D01*
X124428214Y-89365868D01*
X124426187Y-89374180D01*
X124423975Y-89379687D01*
X124422892Y-89381537D01*
X124418729Y-89388549D01*
X124415195Y-89394996D01*
X124411365Y-89400900D01*
X124406318Y-89406286D01*
X124399129Y-89411178D01*
X124388877Y-89415598D01*
X124374636Y-89419572D01*
X124355486Y-89423121D01*
X124330501Y-89426270D01*
X124298760Y-89429042D01*
X124259338Y-89431461D01*
X124211314Y-89433551D01*
X124153763Y-89435335D01*
X124085763Y-89436837D01*
X124006390Y-89438080D01*
X123914721Y-89439089D01*
X123809834Y-89439885D01*
X123690804Y-89440494D01*
X123556710Y-89440939D01*
X123406627Y-89441243D01*
X123239633Y-89441430D01*
X123054804Y-89441524D01*
X122851217Y-89441548D01*
X122627950Y-89441525D01*
X122384078Y-89441480D01*
X122118679Y-89441437D01*
X122080296Y-89441432D01*
X121813318Y-89441389D01*
X121567998Y-89441318D01*
X121343417Y-89441213D01*
X121138655Y-89441066D01*
X120952794Y-89440869D01*
X120784912Y-89440616D01*
X120634092Y-89440300D01*
X120499413Y-89439913D01*
X120379956Y-89439447D01*
X120274801Y-89438897D01*
X120183029Y-89438253D01*
X120103721Y-89437511D01*
X120035957Y-89436661D01*
X119978818Y-89435697D01*
X119931383Y-89434611D01*
X119892734Y-89433397D01*
X119861951Y-89432047D01*
X119838115Y-89430555D01*
X119820306Y-89428911D01*
X119807605Y-89427111D01*
X119799092Y-89425145D01*
X119794734Y-89423477D01*
X119786272Y-89419906D01*
X119778503Y-89417270D01*
X119771398Y-89414634D01*
X119764927Y-89411062D01*
X119759061Y-89405621D01*
X119753771Y-89397375D01*
X119749026Y-89385390D01*
X119744798Y-89368731D01*
X119741057Y-89346463D01*
X119737773Y-89317652D01*
X119734917Y-89281363D01*
X119732460Y-89236661D01*
X119730371Y-89182611D01*
X119728622Y-89118279D01*
X119727183Y-89042730D01*
X119726024Y-88955030D01*
X119725117Y-88854243D01*
X119724431Y-88739434D01*
X119723937Y-88609670D01*
X119723605Y-88464015D01*
X119723407Y-88301535D01*
X119723313Y-88121295D01*
X119723292Y-87922360D01*
X119723315Y-87703796D01*
X119723354Y-87464668D01*
X119723378Y-87204040D01*
X119723378Y-87161889D01*
X119723364Y-86898992D01*
X119723339Y-86657732D01*
X119723329Y-86437165D01*
X119723358Y-86236352D01*
X119723452Y-86054349D01*
X119723638Y-85890216D01*
X119723941Y-85743011D01*
X119724386Y-85611792D01*
X119724966Y-85501867D01*
X120027803Y-85501867D01*
X120067593Y-85559711D01*
X120078764Y-85575479D01*
X120088834Y-85589441D01*
X120097862Y-85602784D01*
X120105903Y-85616693D01*
X120113014Y-85632356D01*
X120119253Y-85650958D01*
X120124675Y-85673686D01*
X120129338Y-85701727D01*
X120133299Y-85736267D01*
X120136615Y-85778492D01*
X120139341Y-85829589D01*
X120141536Y-85890744D01*
X120143255Y-85963144D01*
X120144556Y-86047975D01*
X120145495Y-86146422D01*
X120146130Y-86259674D01*
X120146516Y-86388916D01*
X120146712Y-86535334D01*
X120146773Y-86700116D01*
X120146757Y-86884447D01*
X120146720Y-87089513D01*
X120146711Y-87212133D01*
X120146735Y-87429082D01*
X120146769Y-87624642D01*
X120146757Y-87799999D01*
X120146642Y-87956341D01*
X120146370Y-88094857D01*
X120145882Y-88216734D01*
X120145124Y-88323160D01*
X120144038Y-88415322D01*
X120142569Y-88494409D01*
X120140660Y-88561608D01*
X120138256Y-88618107D01*
X120135299Y-88665093D01*
X120131734Y-88703755D01*
X120127505Y-88735280D01*
X120122554Y-88760855D01*
X120116827Y-88781670D01*
X120110267Y-88798911D01*
X120102817Y-88813765D01*
X120094421Y-88827422D01*
X120085024Y-88841069D01*
X120074568Y-88855893D01*
X120068477Y-88864783D01*
X120029704Y-88922400D01*
X120561268Y-88922400D01*
X120684517Y-88922365D01*
X120787013Y-88922215D01*
X120870580Y-88921878D01*
X120937044Y-88921286D01*
X120988229Y-88920367D01*
X121025959Y-88919051D01*
X121052060Y-88917269D01*
X121068356Y-88914951D01*
X121076672Y-88912026D01*
X121078832Y-88908424D01*
X121076661Y-88904075D01*
X121075465Y-88902645D01*
X121050315Y-88865573D01*
X121024417Y-88812772D01*
X121000808Y-88750770D01*
X120992539Y-88724357D01*
X120987922Y-88706416D01*
X120984021Y-88685355D01*
X120980752Y-88659089D01*
X120978034Y-88625532D01*
X120975785Y-88582599D01*
X120973923Y-88528204D01*
X120972364Y-88460262D01*
X120971028Y-88376688D01*
X120969831Y-88275395D01*
X120968692Y-88154300D01*
X120968315Y-88109600D01*
X120967298Y-87984449D01*
X120966540Y-87880082D01*
X120966097Y-87794707D01*
X120966030Y-87726533D01*
X120966395Y-87673765D01*
X120967252Y-87634614D01*
X120968659Y-87607285D01*
X120970675Y-87589986D01*
X120973357Y-87580926D01*
X120976764Y-87578312D01*
X120980956Y-87580351D01*
X120985429Y-87584667D01*
X120995784Y-87597602D01*
X121017842Y-87626676D01*
X121050043Y-87669759D01*
X121090826Y-87724718D01*
X121138630Y-87789423D01*
X121191895Y-87861742D01*
X121249060Y-87939544D01*
X121308563Y-88020698D01*
X121368845Y-88103072D01*
X121428345Y-88184536D01*
X121485502Y-88262957D01*
X121538755Y-88336204D01*
X121586543Y-88402147D01*
X121627307Y-88458654D01*
X121659484Y-88503593D01*
X121681515Y-88534834D01*
X121686083Y-88541466D01*
X121709004Y-88578369D01*
X121735812Y-88626359D01*
X121761211Y-88675897D01*
X121764432Y-88682577D01*
X121786110Y-88730772D01*
X121798696Y-88768334D01*
X121804426Y-88804160D01*
X121805544Y-88846200D01*
X121804910Y-88922400D01*
X122959349Y-88922400D01*
X122868185Y-88828669D01*
X122821388Y-88778775D01*
X122771101Y-88722295D01*
X122725056Y-88668026D01*
X122704631Y-88642673D01*
X122674193Y-88603128D01*
X122634138Y-88549916D01*
X122585639Y-88484667D01*
X122529865Y-88409011D01*
X122467989Y-88324577D01*
X122401181Y-88232994D01*
X122330613Y-88135892D01*
X122257455Y-88034901D01*
X122182879Y-87931650D01*
X122108056Y-87827768D01*
X122034157Y-87724885D01*
X121962354Y-87624631D01*
X121893816Y-87528636D01*
X121829716Y-87438527D01*
X121771225Y-87355936D01*
X121719514Y-87282492D01*
X121675753Y-87219824D01*
X121641115Y-87169561D01*
X121616770Y-87133334D01*
X121603889Y-87112771D01*
X121602131Y-87108668D01*
X121610090Y-87097342D01*
X121630885Y-87070162D01*
X121663153Y-87028829D01*
X121705530Y-86975044D01*
X121756653Y-86910506D01*
X121815159Y-86836918D01*
X121879686Y-86755978D01*
X121948869Y-86669388D01*
X122021347Y-86578848D01*
X122095754Y-86486060D01*
X122155483Y-86411702D01*
X123166489Y-86411702D01*
X123172398Y-86424659D01*
X123186728Y-86446908D01*
X123187775Y-86448391D01*
X123206562Y-86478544D01*
X123226209Y-86515375D01*
X123230108Y-86523511D01*
X123233644Y-86531940D01*
X123236770Y-86542059D01*
X123239514Y-86555260D01*
X123241908Y-86572938D01*
X123243981Y-86596484D01*
X123245765Y-86627293D01*
X123247288Y-86666757D01*
X123248581Y-86716269D01*
X123249674Y-86777223D01*
X123250597Y-86851011D01*
X123251381Y-86939028D01*
X123252055Y-87042665D01*
X123252650Y-87163316D01*
X123253195Y-87302374D01*
X123253721Y-87461232D01*
X123254255Y-87640089D01*
X123254794Y-87825207D01*
X123255228Y-87989145D01*
X123255491Y-88133303D01*
X123255516Y-88259079D01*
X123255235Y-88367871D01*
X123254581Y-88461077D01*
X123253486Y-88540097D01*
X123251882Y-88606328D01*
X123249703Y-88661170D01*
X123246881Y-88706021D01*
X123243349Y-88742278D01*
X123239039Y-88771341D01*
X123233883Y-88794609D01*
X123227815Y-88813479D01*
X123220767Y-88829351D01*
X123212671Y-88843622D01*
X123203460Y-88857691D01*
X123194960Y-88870158D01*
X123177824Y-88896452D01*
X123167678Y-88914037D01*
X123166489Y-88917257D01*
X123177396Y-88918334D01*
X123208589Y-88919335D01*
X123257777Y-88920235D01*
X123322667Y-88921010D01*
X123400970Y-88921637D01*
X123490393Y-88922091D01*
X123588644Y-88922349D01*
X123657555Y-88922400D01*
X123762548Y-88922180D01*
X123859390Y-88921548D01*
X123945893Y-88920549D01*
X124019868Y-88919227D01*
X124079126Y-88917626D01*
X124121480Y-88915791D01*
X124144740Y-88913765D01*
X124148622Y-88912493D01*
X124140924Y-88897591D01*
X124132926Y-88889560D01*
X124119754Y-88872434D01*
X124102515Y-88842183D01*
X124090593Y-88817622D01*
X124063955Y-88758711D01*
X124060880Y-87581845D01*
X124057805Y-86404978D01*
X123612147Y-86404978D01*
X123514330Y-86405142D01*
X123423936Y-86405611D01*
X123343370Y-86406347D01*
X123275038Y-86407316D01*
X123221344Y-86408480D01*
X123184695Y-86409803D01*
X123167496Y-86411249D01*
X123166489Y-86411702D01*
X122155483Y-86411702D01*
X122170730Y-86392722D01*
X122244910Y-86300537D01*
X122316931Y-86211204D01*
X122385431Y-86126424D01*
X122449045Y-86047898D01*
X122506412Y-85977326D01*
X122556167Y-85916409D01*
X122596948Y-85866847D01*
X122614112Y-85846178D01*
X122700404Y-85745516D01*
X122777003Y-85662259D01*
X122845817Y-85594438D01*
X122908752Y-85540089D01*
X122918133Y-85532722D01*
X122957644Y-85502117D01*
X121825884Y-85501867D01*
X121831173Y-85549844D01*
X121827870Y-85607188D01*
X121806339Y-85675463D01*
X121766365Y-85755212D01*
X121721057Y-85827495D01*
X121704839Y-85850140D01*
X121676786Y-85887696D01*
X121638570Y-85938021D01*
X121591863Y-85998973D01*
X121538339Y-86068411D01*
X121479669Y-86144194D01*
X121417525Y-86224180D01*
X121353579Y-86306228D01*
X121289505Y-86388196D01*
X121226973Y-86467943D01*
X121167657Y-86543327D01*
X121113229Y-86612207D01*
X121065361Y-86672442D01*
X121025725Y-86721889D01*
X120995994Y-86758408D01*
X120977839Y-86779858D01*
X120974780Y-86783156D01*
X120971921Y-86775149D01*
X120969707Y-86744855D01*
X120968143Y-86692556D01*
X120967233Y-86618531D01*
X120966980Y-86523063D01*
X120967387Y-86406434D01*
X120968296Y-86286445D01*
X120969618Y-86154333D01*
X120971143Y-86042594D01*
X120973119Y-85949025D01*
X120975794Y-85871419D01*
X120979418Y-85807574D01*
X120984239Y-85755283D01*
X120990506Y-85712344D01*
X120998468Y-85676551D01*
X121008373Y-85645700D01*
X121020469Y-85617586D01*
X121035007Y-85590005D01*
X121049689Y-85564966D01*
X121087686Y-85501867D01*
X120027803Y-85501867D01*
X119724966Y-85501867D01*
X119724999Y-85495617D01*
X119725805Y-85393544D01*
X119726830Y-85304633D01*
X119728100Y-85227941D01*
X119729640Y-85162527D01*
X119731476Y-85107449D01*
X119733633Y-85061765D01*
X119736137Y-85024534D01*
X119739013Y-84994813D01*
X119742287Y-84971662D01*
X119745985Y-84954139D01*
X119750131Y-84941301D01*
X119754753Y-84932208D01*
X119759874Y-84925918D01*
X119765522Y-84921488D01*
X119771721Y-84917978D01*
X119778496Y-84914445D01*
X119784492Y-84910876D01*
X119789725Y-84908300D01*
X119797901Y-84905972D01*
X119810114Y-84903878D01*
X119827459Y-84902007D01*
X119851031Y-84900347D01*
X119881923Y-84898884D01*
X119921232Y-84897608D01*
X119970050Y-84896504D01*
X120029473Y-84895561D01*
X120100596Y-84894767D01*
X120184512Y-84894109D01*
X120282317Y-84893575D01*
X120395106Y-84893153D01*
X120523971Y-84892829D01*
X120670009Y-84892592D01*
X120834314Y-84892430D01*
X121017980Y-84892330D01*
X121222103Y-84892280D01*
X121433247Y-84892267D01*
X123053600Y-84892267D01*
X123053600Y-84989054D01*
G36*
X123053600Y-84989054D02*
G01*
X123064465Y-85102993D01*
X123096082Y-85210616D01*
X123146985Y-85309615D01*
X123215707Y-85397684D01*
X123300781Y-85472516D01*
X123397768Y-85530384D01*
X123504036Y-85570005D01*
X123611050Y-85588573D01*
X123716700Y-85587434D01*
X123818875Y-85567930D01*
X123915466Y-85531406D01*
X124004362Y-85479205D01*
X124083454Y-85412673D01*
X124150631Y-85333152D01*
X124203783Y-85241987D01*
X124240801Y-85140523D01*
X124259573Y-85030102D01*
X124261511Y-84980206D01*
X124261511Y-84892267D01*
X124313440Y-84892267D01*
X124349747Y-84895111D01*
X124376645Y-84906911D01*
X124403751Y-84930649D01*
X124442133Y-84969031D01*
X124442133Y-87160602D01*
X124442124Y-87422739D01*
X124442092Y-87663241D01*
X124442028Y-87883048D01*
X124441924Y-88083101D01*
X124441773Y-88264344D01*
X124441566Y-88427716D01*
X124441294Y-88574160D01*
X124440950Y-88704617D01*
X124440526Y-88820029D01*
X124440013Y-88921338D01*
X124439403Y-89009484D01*
X124438688Y-89085410D01*
X124437860Y-89150057D01*
X124436911Y-89204367D01*
X124435833Y-89249280D01*
X124434617Y-89285740D01*
X124433255Y-89314687D01*
X124431739Y-89337063D01*
X124430062Y-89353809D01*
X124428214Y-89365868D01*
X124426187Y-89374180D01*
X124423975Y-89379687D01*
X124422892Y-89381537D01*
X124418729Y-89388549D01*
X124415195Y-89394996D01*
X124411365Y-89400900D01*
X124406318Y-89406286D01*
X124399129Y-89411178D01*
X124388877Y-89415598D01*
X124374636Y-89419572D01*
X124355486Y-89423121D01*
X124330501Y-89426270D01*
X124298760Y-89429042D01*
X124259338Y-89431461D01*
X124211314Y-89433551D01*
X124153763Y-89435335D01*
X124085763Y-89436837D01*
X124006390Y-89438080D01*
X123914721Y-89439089D01*
X123809834Y-89439885D01*
X123690804Y-89440494D01*
X123556710Y-89440939D01*
X123406627Y-89441243D01*
X123239633Y-89441430D01*
X123054804Y-89441524D01*
X122851217Y-89441548D01*
X122627950Y-89441525D01*
X122384078Y-89441480D01*
X122118679Y-89441437D01*
X122080296Y-89441432D01*
X121813318Y-89441389D01*
X121567998Y-89441318D01*
X121343417Y-89441213D01*
X121138655Y-89441066D01*
X120952794Y-89440869D01*
X120784912Y-89440616D01*
X120634092Y-89440300D01*
X120499413Y-89439913D01*
X120379956Y-89439447D01*
X120274801Y-89438897D01*
X120183029Y-89438253D01*
X120103721Y-89437511D01*
X120035957Y-89436661D01*
X119978818Y-89435697D01*
X119931383Y-89434611D01*
X119892734Y-89433397D01*
X119861951Y-89432047D01*
X119838115Y-89430555D01*
X119820306Y-89428911D01*
X119807605Y-89427111D01*
X119799092Y-89425145D01*
X119794734Y-89423477D01*
X119786272Y-89419906D01*
X119778503Y-89417270D01*
X119771398Y-89414634D01*
X119764927Y-89411062D01*
X119759061Y-89405621D01*
X119753771Y-89397375D01*
X119749026Y-89385390D01*
X119744798Y-89368731D01*
X119741057Y-89346463D01*
X119737773Y-89317652D01*
X119734917Y-89281363D01*
X119732460Y-89236661D01*
X119730371Y-89182611D01*
X119728622Y-89118279D01*
X119727183Y-89042730D01*
X119726024Y-88955030D01*
X119725117Y-88854243D01*
X119724431Y-88739434D01*
X119723937Y-88609670D01*
X119723605Y-88464015D01*
X119723407Y-88301535D01*
X119723313Y-88121295D01*
X119723292Y-87922360D01*
X119723315Y-87703796D01*
X119723354Y-87464668D01*
X119723378Y-87204040D01*
X119723378Y-87161889D01*
X119723364Y-86898992D01*
X119723339Y-86657732D01*
X119723329Y-86437165D01*
X119723358Y-86236352D01*
X119723452Y-86054349D01*
X119723638Y-85890216D01*
X119723941Y-85743011D01*
X119724386Y-85611792D01*
X119724966Y-85501867D01*
X120027803Y-85501867D01*
X120067593Y-85559711D01*
X120078764Y-85575479D01*
X120088834Y-85589441D01*
X120097862Y-85602784D01*
X120105903Y-85616693D01*
X120113014Y-85632356D01*
X120119253Y-85650958D01*
X120124675Y-85673686D01*
X120129338Y-85701727D01*
X120133299Y-85736267D01*
X120136615Y-85778492D01*
X120139341Y-85829589D01*
X120141536Y-85890744D01*
X120143255Y-85963144D01*
X120144556Y-86047975D01*
X120145495Y-86146422D01*
X120146130Y-86259674D01*
X120146516Y-86388916D01*
X120146712Y-86535334D01*
X120146773Y-86700116D01*
X120146757Y-86884447D01*
X120146720Y-87089513D01*
X120146711Y-87212133D01*
X120146735Y-87429082D01*
X120146769Y-87624642D01*
X120146757Y-87799999D01*
X120146642Y-87956341D01*
X120146370Y-88094857D01*
X120145882Y-88216734D01*
X120145124Y-88323160D01*
X120144038Y-88415322D01*
X120142569Y-88494409D01*
X120140660Y-88561608D01*
X120138256Y-88618107D01*
X120135299Y-88665093D01*
X120131734Y-88703755D01*
X120127505Y-88735280D01*
X120122554Y-88760855D01*
X120116827Y-88781670D01*
X120110267Y-88798911D01*
X120102817Y-88813765D01*
X120094421Y-88827422D01*
X120085024Y-88841069D01*
X120074568Y-88855893D01*
X120068477Y-88864783D01*
X120029704Y-88922400D01*
X120561268Y-88922400D01*
X120684517Y-88922365D01*
X120787013Y-88922215D01*
X120870580Y-88921878D01*
X120937044Y-88921286D01*
X120988229Y-88920367D01*
X121025959Y-88919051D01*
X121052060Y-88917269D01*
X121068356Y-88914951D01*
X121076672Y-88912026D01*
X121078832Y-88908424D01*
X121076661Y-88904075D01*
X121075465Y-88902645D01*
X121050315Y-88865573D01*
X121024417Y-88812772D01*
X121000808Y-88750770D01*
X120992539Y-88724357D01*
X120987922Y-88706416D01*
X120984021Y-88685355D01*
X120980752Y-88659089D01*
X120978034Y-88625532D01*
X120975785Y-88582599D01*
X120973923Y-88528204D01*
X120972364Y-88460262D01*
X120971028Y-88376688D01*
X120969831Y-88275395D01*
X120968692Y-88154300D01*
X120968315Y-88109600D01*
X120967298Y-87984449D01*
X120966540Y-87880082D01*
X120966097Y-87794707D01*
X120966030Y-87726533D01*
X120966395Y-87673765D01*
X120967252Y-87634614D01*
X120968659Y-87607285D01*
X120970675Y-87589986D01*
X120973357Y-87580926D01*
X120976764Y-87578312D01*
X120980956Y-87580351D01*
X120985429Y-87584667D01*
X120995784Y-87597602D01*
X121017842Y-87626676D01*
X121050043Y-87669759D01*
X121090826Y-87724718D01*
X121138630Y-87789423D01*
X121191895Y-87861742D01*
X121249060Y-87939544D01*
X121308563Y-88020698D01*
X121368845Y-88103072D01*
X121428345Y-88184536D01*
X121485502Y-88262957D01*
X121538755Y-88336204D01*
X121586543Y-88402147D01*
X121627307Y-88458654D01*
X121659484Y-88503593D01*
X121681515Y-88534834D01*
X121686083Y-88541466D01*
X121709004Y-88578369D01*
X121735812Y-88626359D01*
X121761211Y-88675897D01*
X121764432Y-88682577D01*
X121786110Y-88730772D01*
X121798696Y-88768334D01*
X121804426Y-88804160D01*
X121805544Y-88846200D01*
X121804910Y-88922400D01*
X122959349Y-88922400D01*
X122954347Y-88917257D01*
X123166489Y-88917257D01*
X123177396Y-88918334D01*
X123208589Y-88919335D01*
X123257777Y-88920235D01*
X123322667Y-88921010D01*
X123400970Y-88921637D01*
X123490393Y-88922091D01*
X123588644Y-88922349D01*
X123657555Y-88922400D01*
X123762548Y-88922180D01*
X123859390Y-88921548D01*
X123945893Y-88920549D01*
X124019868Y-88919227D01*
X124079126Y-88917626D01*
X124121480Y-88915791D01*
X124144740Y-88913765D01*
X124148622Y-88912493D01*
X124140924Y-88897591D01*
X124132926Y-88889560D01*
X124119754Y-88872434D01*
X124102515Y-88842183D01*
X124090593Y-88817622D01*
X124063955Y-88758711D01*
X124060880Y-87581845D01*
X124057805Y-86404978D01*
X123612147Y-86404978D01*
X123514330Y-86405142D01*
X123423936Y-86405611D01*
X123343370Y-86406347D01*
X123275038Y-86407316D01*
X123221344Y-86408480D01*
X123184695Y-86409803D01*
X123167496Y-86411249D01*
X123166489Y-86411702D01*
X123172398Y-86424659D01*
X123186728Y-86446908D01*
X123187775Y-86448391D01*
X123206562Y-86478544D01*
X123226209Y-86515375D01*
X123230108Y-86523511D01*
X123233644Y-86531940D01*
X123236770Y-86542059D01*
X123239514Y-86555260D01*
X123241908Y-86572938D01*
X123243981Y-86596484D01*
X123245765Y-86627293D01*
X123247288Y-86666757D01*
X123248581Y-86716269D01*
X123249674Y-86777223D01*
X123250597Y-86851011D01*
X123251381Y-86939028D01*
X123252055Y-87042665D01*
X123252650Y-87163316D01*
X123253195Y-87302374D01*
X123253721Y-87461232D01*
X123254255Y-87640089D01*
X123254794Y-87825207D01*
X123255228Y-87989145D01*
X123255491Y-88133303D01*
X123255516Y-88259079D01*
X123255235Y-88367871D01*
X123254581Y-88461077D01*
X123253486Y-88540097D01*
X123251882Y-88606328D01*
X123249703Y-88661170D01*
X123246881Y-88706021D01*
X123243349Y-88742278D01*
X123239039Y-88771341D01*
X123233883Y-88794609D01*
X123227815Y-88813479D01*
X123220767Y-88829351D01*
X123212671Y-88843622D01*
X123203460Y-88857691D01*
X123194960Y-88870158D01*
X123177824Y-88896452D01*
X123167678Y-88914037D01*
X123166489Y-88917257D01*
X122954347Y-88917257D01*
X122868185Y-88828669D01*
X122821388Y-88778775D01*
X122771101Y-88722295D01*
X122725056Y-88668026D01*
X122704631Y-88642673D01*
X122674193Y-88603128D01*
X122634138Y-88549916D01*
X122585639Y-88484667D01*
X122529865Y-88409011D01*
X122467989Y-88324577D01*
X122401181Y-88232994D01*
X122330613Y-88135892D01*
X122257455Y-88034901D01*
X122182879Y-87931650D01*
X122108056Y-87827768D01*
X122034157Y-87724885D01*
X121962354Y-87624631D01*
X121893816Y-87528636D01*
X121829716Y-87438527D01*
X121771225Y-87355936D01*
X121719514Y-87282492D01*
X121675753Y-87219824D01*
X121641115Y-87169561D01*
X121616770Y-87133334D01*
X121603889Y-87112771D01*
X121602131Y-87108668D01*
X121610090Y-87097342D01*
X121630885Y-87070162D01*
X121663153Y-87028829D01*
X121705530Y-86975044D01*
X121756653Y-86910506D01*
X121815159Y-86836918D01*
X121879686Y-86755978D01*
X121948869Y-86669388D01*
X122021347Y-86578848D01*
X122095754Y-86486060D01*
X122155483Y-86411702D01*
X122170730Y-86392722D01*
X122244910Y-86300537D01*
X122316931Y-86211204D01*
X122385431Y-86126424D01*
X122449045Y-86047898D01*
X122506412Y-85977326D01*
X122556167Y-85916409D01*
X122596948Y-85866847D01*
X122614112Y-85846178D01*
X122700404Y-85745516D01*
X122777003Y-85662259D01*
X122845817Y-85594438D01*
X122908752Y-85540089D01*
X122918133Y-85532722D01*
X122957644Y-85502117D01*
X121825884Y-85501867D01*
X121831173Y-85549844D01*
X121827870Y-85607188D01*
X121806339Y-85675463D01*
X121766365Y-85755212D01*
X121721057Y-85827495D01*
X121704839Y-85850140D01*
X121676786Y-85887696D01*
X121638570Y-85938021D01*
X121591863Y-85998973D01*
X121538339Y-86068411D01*
X121479669Y-86144194D01*
X121417525Y-86224180D01*
X121353579Y-86306228D01*
X121289505Y-86388196D01*
X121226973Y-86467943D01*
X121167657Y-86543327D01*
X121113229Y-86612207D01*
X121065361Y-86672442D01*
X121025725Y-86721889D01*
X120995994Y-86758408D01*
X120977839Y-86779858D01*
X120974780Y-86783156D01*
X120971921Y-86775149D01*
X120969707Y-86744855D01*
X120968143Y-86692556D01*
X120967233Y-86618531D01*
X120966980Y-86523063D01*
X120967387Y-86406434D01*
X120968296Y-86286445D01*
X120969618Y-86154333D01*
X120971143Y-86042594D01*
X120973119Y-85949025D01*
X120975794Y-85871419D01*
X120979418Y-85807574D01*
X120984239Y-85755283D01*
X120990506Y-85712344D01*
X120998468Y-85676551D01*
X121008373Y-85645700D01*
X121020469Y-85617586D01*
X121035007Y-85590005D01*
X121049689Y-85564966D01*
X121087686Y-85501867D01*
X120027803Y-85501867D01*
X119724966Y-85501867D01*
X119724999Y-85495617D01*
X119725805Y-85393544D01*
X119726830Y-85304633D01*
X119728100Y-85227941D01*
X119729640Y-85162527D01*
X119731476Y-85107449D01*
X119733633Y-85061765D01*
X119736137Y-85024534D01*
X119739013Y-84994813D01*
X119742287Y-84971662D01*
X119745985Y-84954139D01*
X119750131Y-84941301D01*
X119754753Y-84932208D01*
X119759874Y-84925918D01*
X119765522Y-84921488D01*
X119771721Y-84917978D01*
X119778496Y-84914445D01*
X119784492Y-84910876D01*
X119789725Y-84908300D01*
X119797901Y-84905972D01*
X119810114Y-84903878D01*
X119827459Y-84902007D01*
X119851031Y-84900347D01*
X119881923Y-84898884D01*
X119921232Y-84897608D01*
X119970050Y-84896504D01*
X120029473Y-84895561D01*
X120100596Y-84894767D01*
X120184512Y-84894109D01*
X120282317Y-84893575D01*
X120395106Y-84893153D01*
X120523971Y-84892829D01*
X120670009Y-84892592D01*
X120834314Y-84892430D01*
X121017980Y-84892330D01*
X121222103Y-84892280D01*
X121433247Y-84892267D01*
X123053600Y-84892267D01*
X123053600Y-84989054D01*
G37*
%TO.C,C1*%
D12*
X141188748Y-84665000D02*
X141711252Y-84665000D01*
X141188748Y-86135000D02*
X141711252Y-86135000D01*
%TO.C,C2*%
X137819000Y-79321252D02*
X137819000Y-78798748D01*
X139289000Y-79321252D02*
X139289000Y-78798748D01*
%TO.C,C17*%
X160472754Y-79084574D02*
X160472754Y-79300246D01*
X161192754Y-79084574D02*
X161192754Y-79300246D01*
%TO.C,C18*%
X154472754Y-79300246D02*
X154472754Y-79084574D01*
X155192754Y-79300246D02*
X155192754Y-79084574D01*
%TO.C,FB1*%
X138044000Y-82999622D02*
X138044000Y-82200378D01*
X139164000Y-82999622D02*
X139164000Y-82200378D01*
%TO.C,HSE1*%
X159882754Y-77542410D02*
X155882754Y-77542410D01*
X159882754Y-80842410D02*
X159882754Y-77542410D01*
%TO.C,R1*%
X179430510Y-77040036D02*
X179647791Y-76822755D01*
X179967911Y-77577437D02*
X180185192Y-77360156D01*
%TO.C,R2*%
X157002182Y-82123455D02*
X157002182Y-81816173D01*
X157762182Y-82123455D02*
X157762182Y-81816173D01*
%TO.C,U1*%
X139964000Y-77110000D02*
X145974000Y-77110000D01*
X142214000Y-83930000D02*
X145974000Y-83930000D01*
X145974000Y-77110000D02*
X145974000Y-78370000D01*
X145974000Y-83930000D02*
X145974000Y-82670000D01*
%TO.C,C15*%
X163539970Y-107238781D02*
X163738781Y-107039970D01*
X164261219Y-107960030D02*
X164460030Y-107761219D01*
%TO.C,D2*%
X133600000Y-81580000D02*
X133600000Y-77680000D01*
X133600000Y-81580000D02*
X135600000Y-81580000D01*
X135600000Y-81580000D02*
X135600000Y-77680000D01*
%TO.C,U3*%
X128090000Y-79600000D02*
X128090000Y-82050000D01*
X131310000Y-81400000D02*
X131310000Y-79600000D01*
%TO.C,R10*%
X87347064Y-90825000D02*
X86892936Y-90825000D01*
X87347064Y-92295000D02*
X86892936Y-92295000D01*
%TO.C,FB3*%
X103439878Y-81228000D02*
X104239122Y-81228000D01*
X103439878Y-82348000D02*
X104239122Y-82348000D01*
%TO.C,FB4*%
X96665622Y-82498000D02*
X95866378Y-82498000D01*
X96665622Y-83618000D02*
X95866378Y-83618000D01*
%TO.C,C25*%
X94890000Y-78886164D02*
X94890000Y-79101836D01*
X95610000Y-78886164D02*
X95610000Y-79101836D01*
%TO.C,C26*%
X86992164Y-92700000D02*
X87207836Y-92700000D01*
X86992164Y-93420000D02*
X87207836Y-93420000D01*
%TO.C,R7*%
X94715064Y-80291000D02*
X94260936Y-80291000D01*
X94715064Y-81761000D02*
X94260936Y-81761000D01*
%TO.C,R8*%
X104621064Y-79021000D02*
X104166936Y-79021000D01*
X104621064Y-80491000D02*
X104166936Y-80491000D01*
%TO.C,R9*%
X90792936Y-90825000D02*
X91247064Y-90825000D01*
X90792936Y-92295000D02*
X91247064Y-92295000D01*
%TO.C,FB6*%
X91419622Y-89000000D02*
X90620378Y-89000000D01*
X91419622Y-90120000D02*
X90620378Y-90120000D01*
%TO.C,C27*%
X91127836Y-92700000D02*
X90912164Y-92700000D01*
X91127836Y-93420000D02*
X90912164Y-93420000D01*
%TO.C,C24*%
X105291836Y-77872000D02*
X105076164Y-77872000D01*
X105291836Y-78592000D02*
X105076164Y-78592000D01*
%TO.C,FB5*%
X86720378Y-89000000D02*
X87519622Y-89000000D01*
X86720378Y-90120000D02*
X87519622Y-90120000D01*
%TO.C,R11*%
X43420000Y-102063641D02*
X43420000Y-101756359D01*
X44180000Y-102063641D02*
X44180000Y-101756359D01*
%TO.C,C22*%
X106083836Y-86250000D02*
X105868164Y-86250000D01*
X106083836Y-86970000D02*
X105868164Y-86970000D01*
%TO.C,C30*%
X106030000Y-81907836D02*
X106030000Y-81692164D01*
X106750000Y-81907836D02*
X106750000Y-81692164D01*
%TO.C,C33*%
X105682164Y-83540000D02*
X105897836Y-83540000D01*
X105682164Y-84260000D02*
X105897836Y-84260000D01*
%TO.C,C29*%
X115970000Y-84247836D02*
X115970000Y-84032164D01*
X116690000Y-84247836D02*
X116690000Y-84032164D01*
%TO.C,C31*%
X115960000Y-86042164D02*
X115960000Y-86257836D01*
X116680000Y-86042164D02*
X116680000Y-86257836D01*
%TO.C,F1*%
X136334000Y-82645279D02*
X136334000Y-82319721D01*
X137354000Y-82645279D02*
X137354000Y-82319721D01*
%TO.C,R14*%
X82777064Y-81815000D02*
X82322936Y-81815000D01*
X82777064Y-83285000D02*
X82322936Y-83285000D01*
%TO.C,C20*%
X81708164Y-87270000D02*
X81923836Y-87270000D01*
X81708164Y-87990000D02*
X81923836Y-87990000D01*
%TO.C,C23*%
X177702164Y-75040000D02*
X177917836Y-75040000D01*
X177702164Y-75760000D02*
X177917836Y-75760000D01*
%TO.C,R3*%
X148637258Y-85777500D02*
X148162742Y-85777500D01*
X148637258Y-86822500D02*
X148162742Y-86822500D01*
%TO.C,R4*%
X192277500Y-89387742D02*
X192277500Y-89862258D01*
X193322500Y-89387742D02*
X193322500Y-89862258D01*
%TO.C,R15*%
X191227500Y-102662258D02*
X191227500Y-102187742D01*
X192272500Y-102662258D02*
X192272500Y-102187742D01*
%TO.C,C34*%
X64882164Y-104310000D02*
X65097836Y-104310000D01*
X64882164Y-105030000D02*
X65097836Y-105030000D01*
%TO.C,C35*%
X73937836Y-107240000D02*
X73722164Y-107240000D01*
X73937836Y-107960000D02*
X73722164Y-107960000D01*
%TO.C,R17*%
X66165641Y-103164000D02*
X65858359Y-103164000D01*
X66165641Y-103924000D02*
X65858359Y-103924000D01*
%TO.C,R18*%
X73993641Y-108220000D02*
X73686359Y-108220000D01*
X73993641Y-108980000D02*
X73686359Y-108980000D01*
%TO.C,C37*%
X129862164Y-104600000D02*
X130077836Y-104600000D01*
X129862164Y-105320000D02*
X130077836Y-105320000D01*
%TO.C,C38*%
X138582836Y-106965000D02*
X138367164Y-106965000D01*
X138582836Y-107685000D02*
X138367164Y-107685000D01*
%TO.C,R19*%
X131193641Y-103495000D02*
X130886359Y-103495000D01*
X131193641Y-104255000D02*
X130886359Y-104255000D01*
%TO.C,R20*%
X138628641Y-107970000D02*
X138321359Y-107970000D01*
X138628641Y-108730000D02*
X138321359Y-108730000D01*
%TO.C,D1*%
X213600000Y-103050000D02*
X213600000Y-99150000D01*
X213600000Y-103050000D02*
X215600000Y-103050000D01*
X215600000Y-103050000D02*
X215600000Y-99150000D01*
%TO.C,R33*%
X124891641Y-80422000D02*
X124584359Y-80422000D01*
X124891641Y-81182000D02*
X124584359Y-81182000D01*
%TO.C,C41*%
X86522164Y-104760000D02*
X86737836Y-104760000D01*
X86522164Y-105480000D02*
X86737836Y-105480000D01*
%TO.C,R21*%
X87713641Y-103430000D02*
X87406359Y-103430000D01*
X87713641Y-104190000D02*
X87406359Y-104190000D01*
%TO.C,R23*%
X95743641Y-108150000D02*
X95436359Y-108150000D01*
X95743641Y-108910000D02*
X95436359Y-108910000D01*
%TO.C,R24*%
X117203641Y-108205000D02*
X116896359Y-108205000D01*
X117203641Y-108965000D02*
X116896359Y-108965000D01*
%TO.C,C43*%
X95697836Y-107170000D02*
X95482164Y-107170000D01*
X95697836Y-107890000D02*
X95482164Y-107890000D01*
%TO.C,R22*%
X109283641Y-103315000D02*
X108976359Y-103315000D01*
X109283641Y-104075000D02*
X108976359Y-104075000D01*
%TO.C,C44*%
X117157836Y-107175000D02*
X116942164Y-107175000D01*
X117157836Y-107895000D02*
X116942164Y-107895000D01*
%TO.C,C42*%
X107972164Y-104530000D02*
X108187836Y-104530000D01*
X107972164Y-105250000D02*
X108187836Y-105250000D01*
%TO.C,C46*%
X54758000Y-81161836D02*
X54758000Y-80946164D01*
X55478000Y-81161836D02*
X55478000Y-80946164D01*
%TO.C,R25*%
X55754000Y-81177641D02*
X55754000Y-80870359D01*
X56514000Y-81177641D02*
X56514000Y-80870359D01*
%TO.C,R26*%
X54230000Y-102208359D02*
X54230000Y-102515641D01*
X54990000Y-102208359D02*
X54990000Y-102515641D01*
%TO.C,U10*%
X57804000Y-99712000D02*
X59204000Y-99712000D01*
X59204000Y-97392000D02*
X57304000Y-97392000D01*
%TO.C,C45*%
X57539836Y-95652000D02*
X57324164Y-95652000D01*
X57539836Y-96372000D02*
X57324164Y-96372000D01*
%TO.C,C47*%
X53262000Y-102254164D02*
X53262000Y-102469836D01*
X53982000Y-102254164D02*
X53982000Y-102469836D01*
%TO.C,C48*%
X194204000Y-86721836D02*
X194204000Y-86506164D01*
X194924000Y-86721836D02*
X194924000Y-86506164D01*
%TO.C,C49*%
X202432836Y-89390000D02*
X202217164Y-89390000D01*
X202432836Y-90110000D02*
X202217164Y-90110000D01*
%TO.C,R27*%
X200146359Y-89395000D02*
X200453641Y-89395000D01*
X200146359Y-90155000D02*
X200453641Y-90155000D01*
%TO.C,U11*%
X196404000Y-89044000D02*
X198304000Y-89044000D01*
X197804000Y-86724000D02*
X196404000Y-86724000D01*
%TO.C,C52*%
X202192000Y-104521836D02*
X202192000Y-104306164D01*
X202912000Y-104521836D02*
X202912000Y-104306164D01*
%TO.C,R30*%
X201156000Y-104578641D02*
X201156000Y-104271359D01*
X201916000Y-104578641D02*
X201916000Y-104271359D01*
%TO.C,C19*%
X75065836Y-88794000D02*
X74850164Y-88794000D01*
X75065836Y-89514000D02*
X74850164Y-89514000D01*
%TO.C,C32*%
X67964164Y-83460000D02*
X68179836Y-83460000D01*
X67964164Y-84180000D02*
X68179836Y-84180000D01*
%TO.C,C56*%
X68179836Y-82444000D02*
X67964164Y-82444000D01*
X68179836Y-83164000D02*
X67964164Y-83164000D01*
%TO.C,R12*%
X69926564Y-86641000D02*
X69472436Y-86641000D01*
X69926564Y-88111000D02*
X69472436Y-88111000D01*
%TO.C,R31*%
X72821436Y-82831000D02*
X73275564Y-82831000D01*
X72821436Y-84301000D02*
X73275564Y-84301000D01*
%TO.C,R32*%
X71147000Y-89942936D02*
X71147000Y-90397064D01*
X72617000Y-89942936D02*
X72617000Y-90397064D01*
%TO.C,U7*%
D13*
X107340101Y-85659689D02*
X107594101Y-85659689D01*
X107340101Y-86040689D02*
X107340101Y-85659689D01*
X107594101Y-85659689D02*
X107594101Y-86040689D01*
X107594101Y-86040689D02*
X107340101Y-86040689D01*
X108021100Y-82471100D02*
X108021100Y-82914819D01*
X108021100Y-87285181D02*
X108021100Y-87728900D01*
X108021100Y-87728900D02*
X108464819Y-87728900D01*
X108464819Y-82471100D02*
X108021100Y-82471100D01*
X110709563Y-81790101D02*
X111090563Y-81790101D01*
X110709563Y-82044101D02*
X110709563Y-81790101D01*
X111090563Y-81790101D02*
X111090563Y-82044101D01*
X111090563Y-82044101D02*
X110709563Y-82044101D01*
X112835181Y-87728900D02*
X113278900Y-87728900D01*
X113278900Y-82471100D02*
X112835181Y-82471100D01*
X113278900Y-82914819D02*
X113278900Y-82471100D01*
X113278900Y-87728900D02*
X113278900Y-87285181D01*
X113705899Y-86159815D02*
X113705899Y-86540815D01*
X113705899Y-86540815D02*
X113959899Y-86540815D01*
X113959899Y-86159815D02*
X113705899Y-86159815D01*
X113959899Y-86540815D02*
X113959899Y-86159815D01*
%TO.C,C54*%
D12*
X105305836Y-90670000D02*
X105090164Y-90670000D01*
X105305836Y-91390000D02*
X105090164Y-91390000D01*
%TO.C,C55*%
X105305836Y-91686000D02*
X105090164Y-91686000D01*
X105305836Y-92406000D02*
X105090164Y-92406000D01*
%TO.C,FB7*%
X104807122Y-89090000D02*
X104007878Y-89090000D01*
X104807122Y-90210000D02*
X104007878Y-90210000D01*
%TO.C,R13*%
X70384936Y-80291000D02*
X70839064Y-80291000D01*
X70384936Y-81761000D02*
X70839064Y-81761000D01*
%TO.C,C57*%
X73046000Y-89462164D02*
X73046000Y-89677836D01*
X73766000Y-89462164D02*
X73766000Y-89677836D01*
%TO.C,C5*%
X162608601Y-105117718D02*
X162761104Y-105270221D01*
X163117718Y-104608601D02*
X163270221Y-104761104D01*
%TO.C,C6*%
X154519190Y-96728307D02*
X154671693Y-96880810D01*
X155028307Y-96219190D02*
X155180810Y-96371693D01*
%TO.C,C8*%
X161171693Y-82519190D02*
X161019190Y-82671693D01*
X161680810Y-83028307D02*
X161528307Y-83180810D01*
%TO.C,U13*%
X154473874Y-93000000D02*
X155145625Y-92328249D01*
X155145625Y-93671751D02*
X154473874Y-93000000D01*
X170928249Y-76545625D02*
X169998403Y-75615780D01*
X170928249Y-109454375D02*
X171600000Y-110126126D01*
X171600000Y-75873874D02*
X170928249Y-76545625D01*
X171600000Y-110126126D02*
X172271751Y-109454375D01*
X172271751Y-76545625D02*
X171600000Y-75873874D01*
X188054375Y-92328249D02*
X188726126Y-93000000D01*
X188726126Y-93000000D02*
X188054375Y-93671751D01*
%TO.C,C64*%
X180321693Y-81780810D02*
X180169190Y-81628307D01*
X180830810Y-81271693D02*
X180678307Y-81119190D01*
%TO.C,C66*%
X188421693Y-89930810D02*
X188269190Y-89778307D01*
X188930810Y-89421693D02*
X188778307Y-89269190D01*
%TO.C,C67*%
X183871693Y-85280810D02*
X183719190Y-85128307D01*
X184380810Y-84771693D02*
X184228307Y-84619190D01*
%TO.C,C61*%
X175008601Y-76517718D02*
X175161104Y-76670221D01*
X175517718Y-76008601D02*
X175670221Y-76161104D01*
%TO.C,C7*%
X163911104Y-79429779D02*
X163758601Y-79582282D01*
X164420221Y-79938896D02*
X164267718Y-80091399D01*
%TO.C,C4*%
X166129779Y-77211104D02*
X166282282Y-77058601D01*
X166638896Y-77720221D02*
X166791399Y-77567718D01*
%TO.C,C3*%
X159129779Y-101588896D02*
X159282282Y-101741399D01*
X159638896Y-101079779D02*
X159791399Y-101232282D01*
%TO.C,C13*%
X154663051Y-88319721D02*
X154510548Y-88472224D01*
X155172168Y-88828838D02*
X155019665Y-88981341D01*
%TO.C,FB2*%
X153340000Y-84599622D02*
X153340000Y-83800378D01*
X154460000Y-84599622D02*
X154460000Y-83800378D01*
%TO.C,C14*%
X153955944Y-87612616D02*
X153803441Y-87765119D01*
X154465061Y-88121733D02*
X154312558Y-88274236D01*
%TO.C,C58*%
X181288781Y-80860030D02*
X181089970Y-80661219D01*
X182010030Y-80138781D02*
X181811219Y-79939970D01*
%TO.C,C59*%
X187546295Y-97205440D02*
X187698798Y-97052937D01*
X188055412Y-97714557D02*
X188207915Y-97562054D01*
%TO.C,C60*%
X166219190Y-108721693D02*
X166371693Y-108569190D01*
X166728307Y-109230810D02*
X166880810Y-109078307D01*
%TO.C,C62*%
X182607772Y-102121398D02*
X182760275Y-101968895D01*
X183116889Y-102630515D02*
X183269392Y-102478012D01*
%TO.C,C63*%
X175532552Y-109752555D02*
X175685055Y-109600052D01*
X176041669Y-110261672D02*
X176194172Y-110109169D01*
%TO.C,C65*%
X178525014Y-105895017D02*
X178677517Y-105742514D01*
X179034131Y-106404134D02*
X179186634Y-106251631D01*
%TO.C,C12*%
X156641190Y-86689693D02*
X156793693Y-86537190D01*
X157150307Y-87198810D02*
X157302810Y-87046307D01*
%TO.C,C21*%
X165307836Y-75640000D02*
X165092164Y-75640000D01*
X165307836Y-76360000D02*
X165092164Y-76360000D01*
%TO.C,R16*%
X148637258Y-99877500D02*
X148162742Y-99877500D01*
X148637258Y-100922500D02*
X148162742Y-100922500D01*
%TO.C,C16*%
X185639970Y-99138781D02*
X185838781Y-98939970D01*
X186361219Y-99860030D02*
X186560030Y-99661219D01*
%TO.C,R5*%
X205796359Y-89570000D02*
X206103641Y-89570000D01*
X205796359Y-90330000D02*
X206103641Y-90330000D01*
%TO.C,R34*%
X41768641Y-80120000D02*
X41461359Y-80120000D01*
X41768641Y-80880000D02*
X41461359Y-80880000D01*
%TO.C,R35*%
X48953641Y-103470000D02*
X48646359Y-103470000D01*
X48953641Y-104230000D02*
X48646359Y-104230000D01*
%TO.C,C9*%
X199792000Y-81895836D02*
X199792000Y-81680164D01*
X200512000Y-81895836D02*
X200512000Y-81680164D01*
%TO.C,U2*%
X193965000Y-79750000D02*
X193965000Y-77800000D01*
X193965000Y-79750000D02*
X193965000Y-81700000D01*
X199085000Y-79750000D02*
X199085000Y-76300000D01*
X199085000Y-79750000D02*
X199085000Y-81700000D01*
%TO.C,C51*%
X207367000Y-104485836D02*
X207367000Y-104270164D01*
X208087000Y-104485836D02*
X208087000Y-104270164D01*
%TO.C,R29*%
X206320000Y-104553641D02*
X206320000Y-104246359D01*
X207080000Y-104553641D02*
X207080000Y-104246359D01*
%TO.C,R6*%
X203012258Y-82281500D02*
X202537742Y-82281500D01*
X203012258Y-83326500D02*
X202537742Y-83326500D01*
%TO.C,R36*%
X155324659Y-85691940D02*
X155541940Y-85474659D01*
X155862060Y-86229341D02*
X156079341Y-86012060D01*
%TO.C,R37*%
X183356359Y-76390000D02*
X183663641Y-76390000D01*
X183356359Y-77150000D02*
X183663641Y-77150000D01*
%TD*%
M02*
