%TF.GenerationSoftware,KiCad,Pcbnew,10.0.3*%
%TF.CreationDate,2026-06-12T15:31:09+05:30*%
%TF.ProjectId,ForceSync H7,466f7263-6553-4796-9e63-2048372e6b69,rev?*%
%TF.SameCoordinates,Original*%
%TF.FileFunction,Legend,Bot*%
%TF.FilePolarity,Positive*%
%FSLAX46Y46*%
G04 Gerber Fmt 4.6, Leading zero omitted, Abs format (unit mm)*
G04 Created by KiCad (PCBNEW 10.0.3) date 2026-06-12 15:31:09*
%MOMM*%
%LPD*%
G01*
G04 APERTURE LIST*
%ADD10C,0.300000*%
%ADD11C,0.150000*%
%ADD12C,0.000000*%
%ADD13C,0.120000*%
%ADD14C,0.100000*%
%ADD15C,1.500000*%
%ADD16O,2.000000X4.500000*%
G04 APERTURE END LIST*
D10*
G36*
X111510547Y-87815814D02*
G01*
X111559121Y-87843723D01*
X111606208Y-87894731D01*
X111652170Y-87976614D01*
X111695895Y-88099849D01*
X111524895Y-88101864D01*
X111422181Y-88096418D01*
X111382745Y-88085561D01*
X111359519Y-88062705D01*
X111343270Y-88019158D01*
X111337356Y-87963852D01*
X111343085Y-87915072D01*
X111359665Y-87871147D01*
X111386570Y-87834469D01*
X111418881Y-87813790D01*
X111458491Y-87806758D01*
X111510547Y-87815814D01*
G37*
G36*
X114427756Y-87816602D02*
G01*
X114480178Y-87847072D01*
X114531555Y-87902929D01*
X114571228Y-87970003D01*
X114606670Y-88058370D01*
X114636701Y-88172664D01*
X114655949Y-88299909D01*
X114657712Y-88401728D01*
X114645586Y-88482883D01*
X114624116Y-88539694D01*
X114595989Y-88575932D01*
X114561331Y-88596769D01*
X114517908Y-88603967D01*
X114459135Y-88593865D01*
X114405373Y-88563045D01*
X114354418Y-88507338D01*
X114314822Y-88440090D01*
X114280810Y-88356201D01*
X114253301Y-88252623D01*
X114236128Y-88138570D01*
X114233493Y-88036440D01*
X114243867Y-87944511D01*
X114264047Y-87878945D01*
X114292095Y-87837951D01*
X114327345Y-87814743D01*
X114372186Y-87806758D01*
X114427756Y-87816602D01*
G37*
G36*
X116445871Y-89368540D02*
G01*
X103285300Y-89368540D01*
X103285300Y-87540228D01*
X103451967Y-87540228D01*
X103518278Y-87646840D01*
X103683499Y-87891354D01*
X103778489Y-88064037D01*
X103848532Y-88237237D01*
X103911662Y-88449361D01*
X103953435Y-88581264D01*
X103990705Y-88648755D01*
X104022829Y-88678871D01*
X104062738Y-88697144D01*
X104112888Y-88703618D01*
X104164468Y-88693965D01*
X104200907Y-88666707D01*
X104220820Y-88625896D01*
X104219866Y-88572276D01*
X104201351Y-88514478D01*
X104158408Y-88425639D01*
X104094010Y-88322344D01*
X103962770Y-88140424D01*
X103673159Y-87759863D01*
X104024960Y-87759863D01*
X104152304Y-87765188D01*
X104206769Y-87776258D01*
X104249188Y-87801613D01*
X104310358Y-87860064D01*
X104356100Y-87903933D01*
X104373373Y-87912271D01*
X104392645Y-87904895D01*
X104395080Y-87881588D01*
X104379867Y-87835294D01*
X104320708Y-87690071D01*
X104255785Y-87546621D01*
X104227743Y-87498554D01*
X104202177Y-87472935D01*
X104185611Y-87466772D01*
X104170092Y-87473223D01*
X104157676Y-87496814D01*
X104147894Y-87513740D01*
X104129282Y-87526764D01*
X104095062Y-87533694D01*
X103985942Y-87538671D01*
X103850937Y-87540228D01*
X103451967Y-87540228D01*
X103285300Y-87540228D01*
X103285300Y-87311342D01*
X104462124Y-87311342D01*
X104476709Y-87334329D01*
X104511950Y-87343674D01*
X104577142Y-87349923D01*
X104615723Y-87363366D01*
X104645271Y-87386629D01*
X104668754Y-87420885D01*
X104690250Y-87483343D01*
X104744225Y-87694467D01*
X104818322Y-88017143D01*
X104906616Y-88463741D01*
X104909064Y-88538611D01*
X104894251Y-88577772D01*
X104874873Y-88594017D01*
X104843007Y-88605335D01*
X104793135Y-88609829D01*
X104764545Y-88613816D01*
X104753050Y-88622729D01*
X104751552Y-88636390D01*
X104762954Y-88653147D01*
X104792493Y-88659746D01*
X104843968Y-88656723D01*
X105119107Y-88645000D01*
X105216102Y-88648572D01*
X105394247Y-88656723D01*
X105420060Y-88648630D01*
X105423922Y-88625857D01*
X105412228Y-88605173D01*
X105388019Y-88598105D01*
X105321102Y-88591055D01*
X105277651Y-88573009D01*
X105244036Y-88537110D01*
X105205478Y-88457329D01*
X105171667Y-88343922D01*
X105115443Y-88096369D01*
X105099781Y-88011922D01*
X105408077Y-88000198D01*
X105555531Y-88003512D01*
X105656106Y-88011922D01*
X105745407Y-88383690D01*
X105760248Y-88493605D01*
X105754016Y-88548096D01*
X105738199Y-88572265D01*
X105708349Y-88589333D01*
X105657754Y-88598105D01*
X105629282Y-88607402D01*
X105624781Y-88627964D01*
X105638413Y-88648779D01*
X105671951Y-88656723D01*
X105715457Y-88654250D01*
X105963027Y-88645000D01*
X106127891Y-88651411D01*
X106222138Y-88656723D01*
X106253715Y-88652274D01*
X106266419Y-88642306D01*
X106268025Y-88626956D01*
X106255639Y-88608997D01*
X106220948Y-88598105D01*
X106148866Y-88584023D01*
X106109207Y-88564216D01*
X106079897Y-88530924D01*
X106047932Y-88467038D01*
X106017057Y-88363144D01*
X105947090Y-88059183D01*
X105913122Y-87901020D01*
X106828828Y-87901020D01*
X106829570Y-87954861D01*
X106846891Y-88001307D01*
X106875915Y-88035461D01*
X106914029Y-88057411D01*
X106956699Y-88064678D01*
X106993285Y-88057497D01*
X107020816Y-88036611D01*
X107041350Y-87998902D01*
X107053327Y-87936726D01*
X107063031Y-87872060D01*
X107076683Y-87836708D01*
X107101261Y-87814851D01*
X107142629Y-87806758D01*
X107193231Y-87815592D01*
X107239763Y-87842641D01*
X107284137Y-87891755D01*
X107317900Y-87951157D01*
X107349817Y-88034126D01*
X107378750Y-88146653D01*
X107396992Y-88277419D01*
X107394301Y-88379128D01*
X107375270Y-88458062D01*
X107347612Y-88511447D01*
X107313678Y-88546682D01*
X107272921Y-88567445D01*
X107223046Y-88574658D01*
X107157303Y-88564625D01*
X107096552Y-88534233D01*
X107038581Y-88480299D01*
X106982619Y-88396421D01*
X106949420Y-88350900D01*
X106925741Y-88340184D01*
X106906548Y-88347566D01*
X106904125Y-88370959D01*
X106923907Y-88426664D01*
X106964711Y-88490335D01*
X107032994Y-88564308D01*
X107091043Y-88609092D01*
X107157077Y-88641394D01*
X107232616Y-88661435D01*
X107319674Y-88668447D01*
X107414643Y-88659509D01*
X107492100Y-88634487D01*
X107555637Y-88594651D01*
X107607636Y-88539303D01*
X107645286Y-88472977D01*
X107667265Y-88397907D01*
X107673115Y-88311724D01*
X107660759Y-88211499D01*
X107633456Y-88118673D01*
X107591844Y-88033197D01*
X107535324Y-87953952D01*
X107521415Y-87939858D01*
X107860086Y-87939858D01*
X107873709Y-88036835D01*
X107968414Y-88449269D01*
X107979771Y-88527383D01*
X107976840Y-88561926D01*
X107960115Y-88583720D01*
X107921244Y-88598105D01*
X107892378Y-88610862D01*
X107887722Y-88630437D01*
X107900371Y-88649377D01*
X107932327Y-88656723D01*
X108075667Y-88647381D01*
X108138315Y-88645000D01*
X108273137Y-88656723D01*
X108322230Y-88656723D01*
X108352638Y-88648736D01*
X108357401Y-88628422D01*
X108345752Y-88610496D01*
X108314078Y-88598105D01*
X108280602Y-88588195D01*
X108255002Y-88574383D01*
X108234294Y-88541106D01*
X108194827Y-88412633D01*
X108128240Y-88124030D01*
X108105475Y-87976885D01*
X108107632Y-87906592D01*
X108121953Y-87874153D01*
X108147690Y-87854964D01*
X108189057Y-87847791D01*
X108240873Y-87859080D01*
X108301021Y-87897796D01*
X108373613Y-87975927D01*
X108429826Y-88066366D01*
X108482036Y-88194416D01*
X108528218Y-88370135D01*
X108545214Y-88466540D01*
X108549284Y-88519703D01*
X108545113Y-88561322D01*
X108536919Y-88578046D01*
X108520155Y-88587626D01*
X108479400Y-88598105D01*
X108460266Y-88608345D01*
X108457510Y-88627964D01*
X108471141Y-88648779D01*
X108504679Y-88656723D01*
X108548277Y-88654617D01*
X108650492Y-88645000D01*
X108788530Y-88647713D01*
X108889087Y-88654800D01*
X108913542Y-88656723D01*
X108940403Y-88648826D01*
X108944500Y-88627414D01*
X108932901Y-88608056D01*
X108905390Y-88598105D01*
X108857939Y-88586918D01*
X108830286Y-88569528D01*
X108809640Y-88534408D01*
X108774598Y-88429211D01*
X108707554Y-88148118D01*
X108673336Y-87958391D01*
X108669085Y-87890472D01*
X108677366Y-87860820D01*
X108695731Y-87837216D01*
X108726238Y-87818482D01*
X108755755Y-87799412D01*
X108756338Y-87797691D01*
X108821035Y-87797691D01*
X108830541Y-87812250D01*
X108857671Y-87824344D01*
X108908997Y-87843278D01*
X108952580Y-87871411D01*
X108989562Y-87909248D01*
X109054018Y-88008270D01*
X109231180Y-88319576D01*
X109464305Y-88731075D01*
X109581241Y-88921055D01*
X109653666Y-89018908D01*
X109719860Y-89089257D01*
X109780635Y-89137301D01*
X109848214Y-89174224D01*
X109912542Y-89195130D01*
X109974899Y-89201873D01*
X110030776Y-89196339D01*
X110071490Y-89181530D01*
X110100837Y-89158825D01*
X110120987Y-89128105D01*
X110129712Y-89091938D01*
X110126391Y-89047909D01*
X110109787Y-89006924D01*
X110074642Y-88965385D01*
X110028408Y-88936048D01*
X109975815Y-88926367D01*
X109936309Y-88933179D01*
X109909303Y-88951965D01*
X109891607Y-88984099D01*
X109884224Y-89035452D01*
X109879091Y-89070108D01*
X109869202Y-89085811D01*
X109855556Y-89090498D01*
X109814725Y-89079517D01*
X109758379Y-89038094D01*
X109679060Y-88947342D01*
X109609045Y-88847535D01*
X109571711Y-88780110D01*
X109556420Y-88736224D01*
X109556861Y-88687663D01*
X109579867Y-88547821D01*
X109665505Y-88149950D01*
X109719760Y-87930663D01*
X109742075Y-87869590D01*
X109767706Y-87839889D01*
X109799777Y-87824344D01*
X109828190Y-87811607D01*
X109832841Y-87795584D01*
X109817578Y-87774410D01*
X109775505Y-87765725D01*
X109695821Y-87772595D01*
X109588568Y-87777449D01*
X109395586Y-87769664D01*
X109351530Y-87765725D01*
X109321592Y-87773117D01*
X109316817Y-87791279D01*
X109330435Y-87810091D01*
X109371772Y-87824344D01*
X109402783Y-87835159D01*
X109428192Y-87854294D01*
X109447174Y-87878386D01*
X109455578Y-87899357D01*
X109455175Y-87936777D01*
X109438084Y-88073105D01*
X109411123Y-88230406D01*
X109369299Y-88428936D01*
X109236584Y-88185853D01*
X109144594Y-88006484D01*
X109114493Y-87922254D01*
X109112691Y-87883267D01*
X109123764Y-87856018D01*
X109147361Y-87836502D01*
X109188407Y-87824344D01*
X109219326Y-87811800D01*
X109224310Y-87794485D01*
X109210749Y-87773672D01*
X109177233Y-87765725D01*
X109120263Y-87771587D01*
X109017406Y-87777449D01*
X108918763Y-87771587D01*
X108862526Y-87765725D01*
X108834074Y-87770235D01*
X108822280Y-87780697D01*
X108821035Y-87797691D01*
X108756338Y-87797691D01*
X108760493Y-87785417D01*
X108745505Y-87767933D01*
X108696013Y-87759863D01*
X108537068Y-87754970D01*
X108422797Y-87742278D01*
X108412373Y-87833909D01*
X108420141Y-87941397D01*
X108327909Y-87851788D01*
X108241172Y-87792103D01*
X108179675Y-87763932D01*
X108119534Y-87747621D01*
X108059913Y-87742278D01*
X107988208Y-87752641D01*
X107929030Y-87782578D01*
X107884478Y-87827877D01*
X107863359Y-87878749D01*
X107860086Y-87939858D01*
X107521415Y-87939858D01*
X107462556Y-87880214D01*
X107379422Y-87818758D01*
X107293620Y-87776141D01*
X107204036Y-87750805D01*
X107109198Y-87742278D01*
X107025717Y-87749829D01*
X106955634Y-87771194D01*
X106896340Y-87805476D01*
X106849763Y-87852330D01*
X106828828Y-87901020D01*
X105913122Y-87901020D01*
X105868230Y-87691994D01*
X105841849Y-87549925D01*
X105832876Y-87471443D01*
X105836120Y-87409410D01*
X105849363Y-87379394D01*
X105874775Y-87361088D01*
X105920254Y-87349535D01*
X105968065Y-87338178D01*
X105973579Y-87330522D01*
X105973285Y-87314822D01*
X105968541Y-87306671D01*
X109964366Y-87306671D01*
X109987722Y-87587123D01*
X109990653Y-87620828D01*
X110001847Y-87641667D01*
X110023442Y-87648489D01*
X110041191Y-87645706D01*
X110050553Y-87638780D01*
X110071436Y-87575491D01*
X110093413Y-87517857D01*
X110128836Y-87463249D01*
X110179514Y-87410901D01*
X110238716Y-87369561D01*
X110299623Y-87345719D01*
X110363795Y-87337812D01*
X110426668Y-87344281D01*
X110484165Y-87363338D01*
X110537635Y-87395331D01*
X110582843Y-87437742D01*
X110613913Y-87485536D01*
X110632248Y-87539862D01*
X110634903Y-87584610D01*
X110623866Y-87625726D01*
X110598268Y-87665158D01*
X110561368Y-87696792D01*
X110495628Y-87732604D01*
X110389074Y-87772778D01*
X110259886Y-87822144D01*
X110168111Y-87871520D01*
X110105644Y-87920258D01*
X110065849Y-87968416D01*
X110030062Y-88046792D01*
X110016152Y-88130278D01*
X110024358Y-88221757D01*
X110051396Y-88313261D01*
X110091032Y-88392384D01*
X110143244Y-88460901D01*
X110238077Y-88548001D01*
X110340256Y-88613034D01*
X110414021Y-88642969D01*
X110499311Y-88661806D01*
X110598268Y-88668447D01*
X110683272Y-88662517D01*
X110769726Y-88644450D01*
X110855019Y-88614929D01*
X110943108Y-88572459D01*
X110966514Y-88598241D01*
X110989820Y-88633001D01*
X111016689Y-88665893D01*
X111038546Y-88674309D01*
X111050254Y-88669793D01*
X111057224Y-88654352D01*
X111057048Y-88618438D01*
X111007955Y-88242915D01*
X111003467Y-88211957D01*
X110991242Y-88189371D01*
X110967288Y-88181915D01*
X110950558Y-88191695D01*
X110935964Y-88233939D01*
X110909764Y-88335082D01*
X110872155Y-88421058D01*
X110823674Y-88494057D01*
X110778693Y-88539710D01*
X110727643Y-88571758D01*
X110669300Y-88591306D01*
X110601748Y-88598105D01*
X110525527Y-88589879D01*
X110457509Y-88565838D01*
X110395760Y-88525656D01*
X110343259Y-88473173D01*
X110308396Y-88418580D01*
X110288782Y-88360884D01*
X110284253Y-88301030D01*
X110296022Y-88250210D01*
X110323586Y-88205546D01*
X110364296Y-88169225D01*
X110433002Y-88129065D01*
X110540108Y-88084920D01*
X110646834Y-88041257D01*
X111122594Y-88041257D01*
X111128397Y-88118076D01*
X111140494Y-88149542D01*
X111156699Y-88162589D01*
X111187135Y-88167274D01*
X111281446Y-88169825D01*
X111717786Y-88176053D01*
X111727861Y-88220017D01*
X111739833Y-88318746D01*
X111733244Y-88401447D01*
X111710550Y-88471618D01*
X111681602Y-88517213D01*
X111645238Y-88548618D01*
X111600263Y-88567833D01*
X111544037Y-88574658D01*
X111466545Y-88563737D01*
X111380305Y-88528325D01*
X111282087Y-88462275D01*
X111243344Y-88439836D01*
X111225499Y-88446739D01*
X111223285Y-88468687D01*
X111238527Y-88493324D01*
X111300405Y-88550020D01*
X111377500Y-88601246D01*
X111466093Y-88638588D01*
X111559962Y-88661072D01*
X111652664Y-88668447D01*
X111753755Y-88659251D01*
X111833617Y-88633891D01*
X111896754Y-88594180D01*
X111946214Y-88539761D01*
X111982461Y-88473597D01*
X112003457Y-88402167D01*
X112009353Y-88323788D01*
X111998970Y-88236412D01*
X111969522Y-88135224D01*
X111925714Y-88043643D01*
X111867226Y-87960342D01*
X111809210Y-87901020D01*
X112141109Y-87901020D01*
X112141852Y-87954861D01*
X112159173Y-88001307D01*
X112188197Y-88035461D01*
X112226311Y-88057411D01*
X112268981Y-88064678D01*
X112305566Y-88057497D01*
X112333098Y-88036611D01*
X112353632Y-87998902D01*
X112365609Y-87936726D01*
X112375313Y-87872060D01*
X112388965Y-87836708D01*
X112413543Y-87814851D01*
X112454911Y-87806758D01*
X112505513Y-87815592D01*
X112552045Y-87842641D01*
X112596419Y-87891755D01*
X112630182Y-87951157D01*
X112662099Y-88034126D01*
X112691032Y-88146653D01*
X112709274Y-88277419D01*
X112706583Y-88379128D01*
X112687552Y-88458062D01*
X112659894Y-88511447D01*
X112625960Y-88546682D01*
X112585203Y-88567445D01*
X112535327Y-88574658D01*
X112469585Y-88564625D01*
X112408834Y-88534233D01*
X112350863Y-88480299D01*
X112294901Y-88396421D01*
X112261702Y-88350900D01*
X112238023Y-88340184D01*
X112218830Y-88347566D01*
X112216407Y-88370959D01*
X112236189Y-88426664D01*
X112276993Y-88490335D01*
X112345276Y-88564308D01*
X112403325Y-88609092D01*
X112469359Y-88641394D01*
X112544898Y-88661435D01*
X112631956Y-88668447D01*
X112726925Y-88659509D01*
X112804382Y-88634487D01*
X112867919Y-88594651D01*
X112919918Y-88539303D01*
X112957568Y-88472977D01*
X112979547Y-88397907D01*
X112985397Y-88311724D01*
X112973041Y-88211499D01*
X112945738Y-88118673D01*
X112904125Y-88033197D01*
X112847606Y-87953952D01*
X112774838Y-87880214D01*
X112739671Y-87854217D01*
X113023476Y-87854217D01*
X113027080Y-87897616D01*
X113045196Y-87946001D01*
X113078188Y-87986826D01*
X113120951Y-88014781D01*
X113165566Y-88023646D01*
X113197732Y-88018860D01*
X113219971Y-88005877D01*
X113237146Y-87983632D01*
X113255874Y-87942496D01*
X113282949Y-87889270D01*
X113305425Y-87877100D01*
X113327870Y-87882979D01*
X113359791Y-87905330D01*
X113405717Y-87954403D01*
X113440423Y-88010425D01*
X113477261Y-88105255D01*
X113515077Y-88254089D01*
X113560623Y-88508138D01*
X113561514Y-88566689D01*
X113549839Y-88582611D01*
X113526871Y-88593601D01*
X113486409Y-88598105D01*
X113452779Y-88602700D01*
X113439312Y-88612914D01*
X113437500Y-88628422D01*
X113452743Y-88648234D01*
X113497583Y-88656723D01*
X113583404Y-88650312D01*
X113680582Y-88645000D01*
X113878694Y-88653243D01*
X113927512Y-88656723D01*
X113952033Y-88652584D01*
X113962372Y-88642783D01*
X113963324Y-88626407D01*
X113949261Y-88607489D01*
X113908369Y-88598105D01*
X113863994Y-88590530D01*
X113836287Y-88574749D01*
X113817149Y-88545858D01*
X113797910Y-88481601D01*
X113739842Y-88221666D01*
X113715540Y-88084425D01*
X113950915Y-88084425D01*
X113962042Y-88181549D01*
X113989178Y-88272388D01*
X114031965Y-88358530D01*
X114091524Y-88440971D01*
X114169770Y-88520344D01*
X114258225Y-88586195D01*
X114350086Y-88631962D01*
X114446578Y-88659242D01*
X114549323Y-88668447D01*
X114644984Y-88659951D01*
X114725183Y-88635943D01*
X114792892Y-88597507D01*
X114850200Y-88544158D01*
X114892753Y-88479517D01*
X114918101Y-88404768D01*
X114925858Y-88317030D01*
X114913490Y-88212598D01*
X114883554Y-88111460D01*
X114838817Y-88022048D01*
X114779034Y-87942696D01*
X114703013Y-87872337D01*
X114616037Y-87814617D01*
X114526562Y-87774356D01*
X114433558Y-87750353D01*
X114335733Y-87742278D01*
X114235061Y-87750858D01*
X114152186Y-87774879D01*
X114083678Y-87812905D01*
X114027071Y-87865102D01*
X113984430Y-87929042D01*
X113959053Y-88001324D01*
X113955614Y-88036440D01*
X113950915Y-88084425D01*
X113715540Y-88084425D01*
X113705037Y-88025111D01*
X113686902Y-87885160D01*
X113691293Y-87864207D01*
X113704121Y-87845135D01*
X113724219Y-87831585D01*
X113755504Y-87824344D01*
X113799101Y-87815093D01*
X113804344Y-87807722D01*
X113804047Y-87793111D01*
X113789888Y-87774425D01*
X113748268Y-87765725D01*
X113639284Y-87760567D01*
X113429714Y-87742278D01*
X113465710Y-87949091D01*
X113389863Y-87855040D01*
X113318156Y-87793752D01*
X113265793Y-87764575D01*
X113214089Y-87747782D01*
X113162085Y-87742278D01*
X113113358Y-87747799D01*
X113076870Y-87762870D01*
X113049611Y-87786700D01*
X113031202Y-87817956D01*
X113023476Y-87854217D01*
X112739671Y-87854217D01*
X112691704Y-87818758D01*
X112605902Y-87776141D01*
X112516318Y-87750805D01*
X112421480Y-87742278D01*
X112337999Y-87749829D01*
X112267916Y-87771194D01*
X112208622Y-87805476D01*
X112162045Y-87852330D01*
X112141109Y-87901020D01*
X111809210Y-87901020D01*
X111792982Y-87884427D01*
X111707473Y-87820963D01*
X111619640Y-87777060D01*
X111528351Y-87751023D01*
X111432113Y-87742278D01*
X111340888Y-87751489D01*
X111270466Y-87776773D01*
X111216100Y-87816500D01*
X111174925Y-87871696D01*
X111137199Y-87960004D01*
X111136507Y-87963852D01*
X111122594Y-88041257D01*
X110646834Y-88041257D01*
X110685738Y-88025341D01*
X110769818Y-87977209D01*
X110812931Y-87939104D01*
X110847113Y-87892547D01*
X110872766Y-87836250D01*
X110887874Y-87775900D01*
X110891779Y-87715520D01*
X110884582Y-87654167D01*
X110861254Y-87577671D01*
X110824411Y-87507143D01*
X110773188Y-87441552D01*
X110705887Y-87380310D01*
X110630676Y-87331697D01*
X110547874Y-87296779D01*
X114853039Y-87296779D01*
X114866870Y-87609746D01*
X114867969Y-87624309D01*
X114878701Y-87647676D01*
X114895263Y-87654351D01*
X114907057Y-87649526D01*
X114918527Y-87631361D01*
X114957781Y-87551184D01*
X115002481Y-87487040D01*
X115052433Y-87436639D01*
X115094691Y-87409726D01*
X115154919Y-87387908D01*
X115238462Y-87372844D01*
X115351661Y-87367121D01*
X115453759Y-87372593D01*
X115504628Y-87384768D01*
X115525684Y-87399178D01*
X115553105Y-87479591D01*
X115647958Y-87900547D01*
X115542808Y-87896036D01*
X115473935Y-87884794D01*
X115415689Y-87862612D01*
X115370163Y-87829381D01*
X115331451Y-87779651D01*
X115280037Y-87682835D01*
X115264946Y-87660168D01*
X115251094Y-87654351D01*
X115235583Y-87658449D01*
X115228290Y-87669965D01*
X115229112Y-87693368D01*
X115304217Y-88020990D01*
X115341074Y-88173921D01*
X115351386Y-88204263D01*
X115361863Y-88213851D01*
X115376116Y-88217086D01*
X115393117Y-88208467D01*
X115397732Y-88176053D01*
X115397730Y-88113478D01*
X115409037Y-88064426D01*
X115430063Y-88025752D01*
X115463858Y-87999836D01*
X115534025Y-87979591D01*
X115662613Y-87970889D01*
X115742572Y-88350626D01*
X115759417Y-88454782D01*
X115760066Y-88509353D01*
X115747989Y-88550543D01*
X115726818Y-88573375D01*
X115694036Y-88585592D01*
X115633487Y-88592243D01*
X115573770Y-88598929D01*
X115566106Y-88607212D01*
X115565893Y-88623934D01*
X115581158Y-88647769D01*
X115617825Y-88656723D01*
X115772889Y-88650403D01*
X115918060Y-88645000D01*
X116237255Y-88656723D01*
X116266074Y-88652449D01*
X116277818Y-88642731D01*
X116279204Y-88627414D01*
X116271427Y-88613745D01*
X116252220Y-88603506D01*
X116214083Y-88598105D01*
X116151212Y-88585386D01*
X116105285Y-88554847D01*
X116072300Y-88504774D01*
X116029328Y-88359652D01*
X115917511Y-87856767D01*
X115869291Y-87603037D01*
X115852906Y-87476110D01*
X115853122Y-87424091D01*
X115869020Y-87386883D01*
X115902926Y-87363600D01*
X115963398Y-87354390D01*
X115990692Y-87355397D01*
X116016575Y-87347399D01*
X116020459Y-87325081D01*
X116012542Y-87310926D01*
X115993599Y-87301002D01*
X115956529Y-87296779D01*
X114853039Y-87296779D01*
X110547874Y-87296779D01*
X110547490Y-87296617D01*
X110454910Y-87274972D01*
X110351155Y-87267470D01*
X110276525Y-87273619D01*
X110182025Y-87294394D01*
X110063285Y-87333873D01*
X110028938Y-87293756D01*
X110005806Y-87268129D01*
X109988088Y-87261608D01*
X109969726Y-87271017D01*
X109964366Y-87306671D01*
X105968541Y-87306671D01*
X105960442Y-87292757D01*
X105932985Y-87285055D01*
X105789187Y-87292841D01*
X105660777Y-87296779D01*
X105375654Y-87285055D01*
X105346697Y-87289669D01*
X105334680Y-87300390D01*
X105333430Y-87317845D01*
X105347582Y-87341085D01*
X105380050Y-87349535D01*
X105441095Y-87354434D01*
X105474664Y-87365930D01*
X105499937Y-87388170D01*
X105525222Y-87430319D01*
X105545854Y-87489944D01*
X105575872Y-87616249D01*
X105634124Y-87906409D01*
X105506551Y-87915076D01*
X105361915Y-87918133D01*
X105216760Y-87915160D01*
X105077891Y-87906409D01*
X105004069Y-87594633D01*
X104986687Y-87472194D01*
X104991429Y-87408062D01*
X105007343Y-87378327D01*
X105037531Y-87358670D01*
X105088333Y-87349535D01*
X105130873Y-87342699D01*
X105147318Y-87331475D01*
X105149790Y-87316746D01*
X105135569Y-87293504D01*
X105103079Y-87285055D01*
X104963860Y-87290368D01*
X104829954Y-87296779D01*
X104664429Y-87293649D01*
X104528803Y-87285055D01*
X104494273Y-87282949D01*
X104466431Y-87290752D01*
X104462124Y-87311342D01*
X103285300Y-87311342D01*
X103285300Y-87094941D01*
X116445871Y-87094941D01*
X116445871Y-89368540D01*
G37*
G36*
X50270673Y-110471901D02*
G01*
X50188632Y-110464235D01*
X50149040Y-110446988D01*
X50125724Y-110413623D01*
X50112037Y-110346605D01*
X50106450Y-110090333D01*
X50109564Y-109922538D01*
X50115238Y-109804306D01*
X50121563Y-109765734D01*
X50133928Y-109742432D01*
X50152887Y-109724793D01*
X50178437Y-109714107D01*
X50219290Y-109709863D01*
X50270673Y-109709863D01*
X50270673Y-110471901D01*
G37*
G36*
X50270673Y-109586765D02*
G01*
X50219290Y-109586765D01*
X50173598Y-109579208D01*
X50140980Y-109558189D01*
X50119726Y-109523038D01*
X50108007Y-109461560D01*
X50103428Y-109288911D01*
X50107733Y-109190015D01*
X50117961Y-109132083D01*
X50130905Y-109101424D01*
X50152304Y-109078433D01*
X50180950Y-109064313D01*
X50219290Y-109059200D01*
X50270673Y-109059200D01*
X50270673Y-109586765D01*
G37*
G36*
X51920778Y-110477763D02*
G01*
X51869395Y-110477763D01*
X51835049Y-110472398D01*
X51808495Y-110457152D01*
X51787787Y-110431235D01*
X51769703Y-110374923D01*
X51761684Y-110263531D01*
X51761684Y-109216829D01*
X51770216Y-109153817D01*
X51793741Y-109107103D01*
X51817795Y-109083959D01*
X51847539Y-109069993D01*
X51884782Y-109065062D01*
X51920778Y-109065062D01*
X51920778Y-110477763D01*
G37*
G36*
X58304309Y-110477763D02*
G01*
X58252926Y-110477763D01*
X58218580Y-110472398D01*
X58192026Y-110457152D01*
X58171318Y-110431235D01*
X58153234Y-110374923D01*
X58145215Y-110263531D01*
X58145215Y-109216829D01*
X58153747Y-109153817D01*
X58177272Y-109107103D01*
X58201326Y-109083959D01*
X58231070Y-109069993D01*
X58268313Y-109065062D01*
X58304309Y-109065062D01*
X58304309Y-110477763D01*
G37*
G36*
X58948257Y-110785114D02*
G01*
X48471945Y-110785114D01*
X48471945Y-108973196D01*
X48638612Y-108973196D01*
X48638612Y-109038409D01*
X48643856Y-109055979D01*
X48662334Y-109074954D01*
X48694301Y-109107366D01*
X48715548Y-109152440D01*
X48923460Y-109855310D01*
X48923460Y-110392950D01*
X48918364Y-110415580D01*
X48902752Y-110434205D01*
X48873085Y-110449736D01*
X48840662Y-110466864D01*
X48834633Y-110482644D01*
X48831228Y-110538579D01*
X48834230Y-110573402D01*
X48840295Y-110586298D01*
X48851887Y-110592378D01*
X48875191Y-110595000D01*
X49360807Y-110595000D01*
X49390388Y-110586193D01*
X49399642Y-110561386D01*
X49399642Y-110502859D01*
X49394598Y-110480431D01*
X49379330Y-110462672D01*
X49350457Y-110448637D01*
X49329555Y-110439114D01*
X49319225Y-110429678D01*
X49313926Y-110415859D01*
X49311531Y-110386721D01*
X49311531Y-110078975D01*
X49673316Y-110078975D01*
X49674145Y-110090333D01*
X49682870Y-110209877D01*
X49709214Y-110315158D01*
X49749974Y-110399658D01*
X49804383Y-110467138D01*
X49873013Y-110519687D01*
X49960316Y-110559517D01*
X50070565Y-110585511D01*
X50209124Y-110595000D01*
X50710127Y-110595000D01*
X50735369Y-110586496D01*
X50743832Y-110560836D01*
X50743832Y-110500386D01*
X50736830Y-110477327D01*
X50714432Y-110460452D01*
X50681697Y-110438602D01*
X50663732Y-110412932D01*
X50657737Y-110382050D01*
X50657737Y-109775809D01*
X51325436Y-109775809D01*
X51332121Y-109949007D01*
X51350645Y-110093290D01*
X51378993Y-110212664D01*
X51415586Y-110310753D01*
X51459342Y-110390751D01*
X51518919Y-110467001D01*
X51583281Y-110523562D01*
X51652995Y-110563050D01*
X51729316Y-110586849D01*
X51814074Y-110595000D01*
X52355194Y-110595000D01*
X52376523Y-110591670D01*
X52388625Y-110583184D01*
X52395078Y-110567763D01*
X52398059Y-110533084D01*
X52394761Y-110476114D01*
X52387178Y-110464832D01*
X52363712Y-110448820D01*
X52331910Y-110425703D01*
X52313958Y-110397745D01*
X52307841Y-110363274D01*
X52307841Y-110234497D01*
X52435611Y-110234497D01*
X52439733Y-110270767D01*
X52477651Y-110503408D01*
X52495237Y-110581169D01*
X52507190Y-110590652D01*
X52538926Y-110595000D01*
X53222378Y-110595000D01*
X53246147Y-110591196D01*
X53257458Y-110581994D01*
X53262581Y-110563312D01*
X53265243Y-110510553D01*
X53255846Y-110477717D01*
X53226591Y-110454590D01*
X53194045Y-110435874D01*
X53177296Y-110415621D01*
X53172003Y-110392950D01*
X53172003Y-109686599D01*
X53309481Y-109686599D01*
X53316534Y-109743844D01*
X53327312Y-109756576D01*
X53350331Y-109768299D01*
X53376241Y-109787661D01*
X53385227Y-109822062D01*
X53385227Y-110520994D01*
X53388142Y-110578618D01*
X53394020Y-110601411D01*
X53407679Y-110613360D01*
X53439449Y-110618447D01*
X53486069Y-110613592D01*
X53525453Y-110584741D01*
X53595959Y-110528577D01*
X53659634Y-110499653D01*
X53710017Y-110553037D01*
X53764145Y-110589484D01*
X53823002Y-110611099D01*
X53888245Y-110618447D01*
X53967260Y-110609229D01*
X54039984Y-110581845D01*
X54108383Y-110535124D01*
X54173613Y-110465925D01*
X54235925Y-110369411D01*
X54293339Y-110243311D01*
X54335454Y-110104195D01*
X54361655Y-109950244D01*
X54370747Y-109779381D01*
X54363779Y-109620902D01*
X54343932Y-109481070D01*
X54312529Y-109357729D01*
X54270516Y-109248933D01*
X54218431Y-109152990D01*
X54149446Y-109059737D01*
X54094943Y-109007452D01*
X54443379Y-109007452D01*
X54448416Y-109057643D01*
X54470765Y-109076603D01*
X54501770Y-109091786D01*
X54514545Y-109103164D01*
X54523246Y-109138335D01*
X54523246Y-110595000D01*
X54702307Y-110595000D01*
X55099171Y-109668739D01*
X55099171Y-110383241D01*
X55093977Y-110409177D01*
X55078369Y-110430617D01*
X55049712Y-110448729D01*
X55015197Y-110473564D01*
X55004924Y-110504508D01*
X55009045Y-110586024D01*
X55016879Y-110592023D01*
X55041652Y-110595000D01*
X55314135Y-110595000D01*
X55332966Y-110590426D01*
X55342345Y-110577872D01*
X55347841Y-110497363D01*
X55340565Y-110471437D01*
X55318440Y-110454590D01*
X55277266Y-110427952D01*
X55266874Y-110404032D01*
X55266874Y-109193839D01*
X55269224Y-109153181D01*
X55274842Y-109129176D01*
X55286948Y-109110501D01*
X55310380Y-109094097D01*
X55333635Y-109079924D01*
X55345917Y-109066436D01*
X55352252Y-109047941D01*
X55355076Y-109010657D01*
X55352313Y-108989500D01*
X55397117Y-108989500D01*
X55403162Y-109059017D01*
X55412397Y-109070255D01*
X55430364Y-109076786D01*
X55464407Y-109090356D01*
X55484149Y-109115150D01*
X55491455Y-109155005D01*
X55491455Y-110389744D01*
X55481212Y-110421880D01*
X55446942Y-110448729D01*
X55420185Y-110463890D01*
X55409848Y-110474649D01*
X55403253Y-110513758D01*
X55403253Y-110552410D01*
X55405785Y-110581745D01*
X55410489Y-110590328D01*
X55444103Y-110595000D01*
X55944190Y-110595000D01*
X55968403Y-110588108D01*
X55975789Y-110569171D01*
X55970385Y-110476023D01*
X55959784Y-110461481D01*
X55932650Y-110448545D01*
X55901295Y-110434655D01*
X55884859Y-110416496D01*
X55879435Y-110393133D01*
X55879435Y-110206104D01*
X56025248Y-110206104D01*
X56032035Y-110306402D01*
X56050890Y-110388811D01*
X56080202Y-110456450D01*
X56119312Y-110511835D01*
X56187372Y-110572904D01*
X56257315Y-110607199D01*
X56331529Y-110618447D01*
X56404059Y-110608220D01*
X56475510Y-110576681D01*
X56500540Y-110564207D01*
X56515993Y-110561019D01*
X56525687Y-110564751D01*
X56534861Y-110578422D01*
X56550253Y-110599506D01*
X56576201Y-110613153D01*
X56617384Y-110618447D01*
X56640713Y-110615919D01*
X56652647Y-110610020D01*
X56659929Y-110598015D01*
X56666477Y-110567980D01*
X56716752Y-110234497D01*
X56808535Y-110234497D01*
X56812657Y-110270767D01*
X56850575Y-110503408D01*
X56868161Y-110581169D01*
X56880114Y-110590652D01*
X56911850Y-110595000D01*
X57595302Y-110595000D01*
X57619071Y-110591196D01*
X57630382Y-110581994D01*
X57635505Y-110563312D01*
X57638167Y-110510553D01*
X57628770Y-110477717D01*
X57599515Y-110454590D01*
X57566969Y-110435874D01*
X57550220Y-110415621D01*
X57544927Y-110392950D01*
X57544927Y-109775809D01*
X57708967Y-109775809D01*
X57715652Y-109949007D01*
X57734176Y-110093290D01*
X57762524Y-110212664D01*
X57799118Y-110310753D01*
X57842873Y-110390751D01*
X57902450Y-110467001D01*
X57966812Y-110523562D01*
X58036526Y-110563050D01*
X58112847Y-110586849D01*
X58197605Y-110595000D01*
X58738725Y-110595000D01*
X58760054Y-110591670D01*
X58772156Y-110583184D01*
X58778609Y-110567763D01*
X58781590Y-110533084D01*
X58778292Y-110476114D01*
X58770709Y-110464832D01*
X58747243Y-110448820D01*
X58715441Y-110425703D01*
X58697489Y-110397745D01*
X58691372Y-110363274D01*
X58691372Y-109122398D01*
X58700091Y-109107353D01*
X58726177Y-109094280D01*
X58750440Y-109083144D01*
X58763638Y-109069367D01*
X58770240Y-109048287D01*
X58773346Y-109000582D01*
X58769086Y-108965957D01*
X58759150Y-108949016D01*
X58739182Y-108940323D01*
X58688442Y-108936102D01*
X58197605Y-108936102D01*
X58116492Y-108943776D01*
X58042264Y-108966320D01*
X57973346Y-109003912D01*
X57908626Y-109057907D01*
X57847544Y-109130733D01*
X57803372Y-109206482D01*
X57799377Y-109216829D01*
X57765727Y-109303982D01*
X57735996Y-109427791D01*
X57716214Y-109583130D01*
X57708967Y-109775809D01*
X57544927Y-109775809D01*
X57544927Y-109120841D01*
X57553618Y-109105235D01*
X57589349Y-109083930D01*
X57616833Y-109068599D01*
X57627176Y-109056819D01*
X57633129Y-108995087D01*
X57630776Y-108957751D01*
X57626260Y-108944895D01*
X57615865Y-108938964D01*
X57588158Y-108936102D01*
X56934381Y-108936102D01*
X56910940Y-108938644D01*
X56896737Y-108944986D01*
X56887007Y-108957582D01*
X56878236Y-108985928D01*
X56826029Y-109252091D01*
X56821816Y-109280484D01*
X56826651Y-109296378D01*
X56841861Y-109306820D01*
X56873931Y-109311259D01*
X56925202Y-109307117D01*
X56949402Y-109297978D01*
X56966137Y-109278547D01*
X56986313Y-109232582D01*
X57018547Y-109148552D01*
X57040535Y-109105912D01*
X57065612Y-109078667D01*
X57090086Y-109070924D01*
X57156856Y-109070924D01*
X57156856Y-109651245D01*
X57090086Y-109651245D01*
X57064994Y-109648020D01*
X57050061Y-109639888D01*
X57040053Y-109624356D01*
X57030552Y-109589146D01*
X57009944Y-109502226D01*
X56999323Y-109490947D01*
X56983565Y-109487114D01*
X56910016Y-109489784D01*
X56889959Y-109494350D01*
X56882159Y-109507157D01*
X56878144Y-109547747D01*
X56878144Y-109884894D01*
X56881547Y-109914206D01*
X56889318Y-109928033D01*
X56906061Y-109934916D01*
X56954897Y-109938475D01*
X56987272Y-109934438D01*
X57003532Y-109924919D01*
X57013935Y-109905015D01*
X57027438Y-109850914D01*
X57040040Y-109802949D01*
X57048687Y-109785884D01*
X57060864Y-109777483D01*
X57079919Y-109774344D01*
X57156856Y-109774344D01*
X57156856Y-110471901D01*
X57105473Y-110471901D01*
X57062637Y-110464323D01*
X57038520Y-110444607D01*
X57019292Y-110403851D01*
X56978253Y-110283590D01*
X56958211Y-110232403D01*
X56941434Y-110208577D01*
X56917844Y-110195786D01*
X56875030Y-110190533D01*
X56834764Y-110196616D01*
X56815037Y-110211300D01*
X56808535Y-110234497D01*
X56716752Y-110234497D01*
X56717677Y-110228360D01*
X56727935Y-110158568D01*
X56722719Y-110141902D01*
X56706106Y-110130810D01*
X56670690Y-110126053D01*
X56604258Y-110132795D01*
X56581572Y-110146295D01*
X56542921Y-110236604D01*
X56486942Y-110367109D01*
X56439653Y-110439624D01*
X56399724Y-110473901D01*
X56364318Y-110483625D01*
X56334806Y-110477633D01*
X56311653Y-110459903D01*
X56296653Y-110433684D01*
X56291412Y-110400368D01*
X56301692Y-110334793D01*
X56337848Y-110248053D01*
X56451788Y-110050949D01*
X56598453Y-109801233D01*
X56681132Y-109634392D01*
X56718728Y-109528827D01*
X56740969Y-109422917D01*
X56748360Y-109315747D01*
X56738385Y-109195744D01*
X56710812Y-109099582D01*
X56667759Y-109022472D01*
X56623142Y-108972623D01*
X56575931Y-108939012D01*
X56525312Y-108919303D01*
X56469831Y-108912655D01*
X56417556Y-108919163D01*
X56354093Y-108940962D01*
X56276391Y-108982539D01*
X56243693Y-108939125D01*
X56221057Y-108918449D01*
X56192127Y-108911647D01*
X56133417Y-108919066D01*
X56124216Y-108934071D01*
X56116473Y-108964587D01*
X56061152Y-109313366D01*
X56057030Y-109346796D01*
X56060363Y-109365286D01*
X56068845Y-109374823D01*
X56085029Y-109379332D01*
X56127555Y-109381601D01*
X56175751Y-109377151D01*
X56196981Y-109367496D01*
X56214284Y-109342412D01*
X56256332Y-109254289D01*
X56311463Y-109144157D01*
X56354762Y-109083443D01*
X56388759Y-109055244D01*
X56416617Y-109047477D01*
X56442362Y-109054394D01*
X56458354Y-109075000D01*
X56464885Y-109116353D01*
X56454100Y-109175171D01*
X56409999Y-109283182D01*
X56310463Y-109465865D01*
X56152032Y-109748836D01*
X56079195Y-109903029D01*
X56049757Y-109994681D01*
X56031543Y-110095265D01*
X56025248Y-110206104D01*
X55879435Y-110206104D01*
X55879435Y-109180833D01*
X55882313Y-109141414D01*
X55889327Y-109117452D01*
X55903912Y-109099158D01*
X55933016Y-109082373D01*
X55965622Y-109061124D01*
X55971667Y-109025953D01*
X55971667Y-108971090D01*
X55962631Y-108944989D01*
X55934939Y-108936102D01*
X55444103Y-108936102D01*
X55418130Y-108938614D01*
X55406276Y-108944162D01*
X55400155Y-108956207D01*
X55397117Y-108989500D01*
X55352313Y-108989500D01*
X55349023Y-108964306D01*
X55335019Y-108942780D01*
X55314227Y-108936102D01*
X55027455Y-108936102D01*
X54688019Y-109728456D01*
X54688019Y-109149967D01*
X54693358Y-109121395D01*
X54708867Y-109099385D01*
X54736470Y-109082373D01*
X54763062Y-109066551D01*
X54776221Y-109050957D01*
X54782446Y-109029073D01*
X54785288Y-108983180D01*
X54782986Y-108954548D01*
X54778327Y-108943704D01*
X54752682Y-108936102D01*
X54469665Y-108936102D01*
X54457132Y-108942957D01*
X54447656Y-108963175D01*
X54443379Y-109007452D01*
X54094943Y-109007452D01*
X54079644Y-108992775D01*
X54008569Y-108947666D01*
X53935109Y-108921406D01*
X53857562Y-108912655D01*
X53792224Y-108918585D01*
X53733372Y-108935866D01*
X53679692Y-108964404D01*
X53643331Y-108979241D01*
X53629526Y-108972737D01*
X53614388Y-108946269D01*
X53596065Y-108920822D01*
X53568592Y-108912655D01*
X53556136Y-108912655D01*
X53523163Y-108914670D01*
X53495456Y-108928764D01*
X53479658Y-108962938D01*
X53414078Y-109286896D01*
X53403729Y-109354765D01*
X53409374Y-109375181D01*
X53426403Y-109388028D01*
X53460973Y-109393325D01*
X53509945Y-109388405D01*
X53531407Y-109377663D01*
X53549556Y-109352118D01*
X53593780Y-109270593D01*
X53656202Y-109158963D01*
X53701033Y-109100691D01*
X53750118Y-109064441D01*
X53799036Y-109053339D01*
X53845866Y-109061114D01*
X53881804Y-109083322D01*
X53909599Y-109121725D01*
X53928930Y-109182133D01*
X53936514Y-109273340D01*
X53936514Y-110371700D01*
X53930347Y-110429916D01*
X53915116Y-110464351D01*
X53893102Y-110483057D01*
X53862600Y-110489487D01*
X53828507Y-110482732D01*
X53804398Y-110463439D01*
X53788071Y-110428744D01*
X53781542Y-110371059D01*
X53781542Y-109833420D01*
X53790832Y-109790408D01*
X53815614Y-109768207D01*
X53837980Y-109753362D01*
X53851445Y-109731407D01*
X53856372Y-109699788D01*
X53852621Y-109650648D01*
X53845289Y-109633476D01*
X53830609Y-109625472D01*
X53799127Y-109621936D01*
X53365718Y-109621936D01*
X53335998Y-109625522D01*
X53321113Y-109633934D01*
X53313132Y-109650031D01*
X53309481Y-109686599D01*
X53172003Y-109686599D01*
X53172003Y-109120841D01*
X53180694Y-109105235D01*
X53216425Y-109083930D01*
X53243909Y-109068599D01*
X53254252Y-109056819D01*
X53260205Y-108995087D01*
X53257852Y-108957751D01*
X53253336Y-108944895D01*
X53242941Y-108938964D01*
X53215234Y-108936102D01*
X52561457Y-108936102D01*
X52538016Y-108938644D01*
X52523813Y-108944986D01*
X52514083Y-108957582D01*
X52505312Y-108985928D01*
X52453105Y-109252091D01*
X52448892Y-109280484D01*
X52453727Y-109296378D01*
X52468937Y-109306820D01*
X52501007Y-109311259D01*
X52552278Y-109307117D01*
X52576478Y-109297978D01*
X52593213Y-109278547D01*
X52613389Y-109232582D01*
X52645623Y-109148552D01*
X52667611Y-109105912D01*
X52692688Y-109078667D01*
X52717162Y-109070924D01*
X52783932Y-109070924D01*
X52783932Y-109651245D01*
X52717162Y-109651245D01*
X52692070Y-109648020D01*
X52677137Y-109639888D01*
X52667129Y-109624356D01*
X52657628Y-109589146D01*
X52637020Y-109502226D01*
X52626399Y-109490947D01*
X52610642Y-109487114D01*
X52537092Y-109489784D01*
X52517035Y-109494350D01*
X52509235Y-109507157D01*
X52505220Y-109547747D01*
X52505220Y-109884894D01*
X52508623Y-109914206D01*
X52516394Y-109928033D01*
X52533137Y-109934916D01*
X52581974Y-109938475D01*
X52614348Y-109934438D01*
X52630608Y-109924919D01*
X52641011Y-109905015D01*
X52654514Y-109850914D01*
X52667116Y-109802949D01*
X52675763Y-109785884D01*
X52687940Y-109777483D01*
X52706995Y-109774344D01*
X52783932Y-109774344D01*
X52783932Y-110471901D01*
X52732549Y-110471901D01*
X52689713Y-110464323D01*
X52665596Y-110444607D01*
X52646368Y-110403851D01*
X52605329Y-110283590D01*
X52585287Y-110232403D01*
X52568510Y-110208577D01*
X52544920Y-110195786D01*
X52502106Y-110190533D01*
X52461840Y-110196616D01*
X52442113Y-110211300D01*
X52435611Y-110234497D01*
X52307841Y-110234497D01*
X52307841Y-109122398D01*
X52316560Y-109107353D01*
X52342646Y-109094280D01*
X52366909Y-109083144D01*
X52380107Y-109069367D01*
X52386709Y-109048287D01*
X52389815Y-109000582D01*
X52385555Y-108965957D01*
X52375619Y-108949016D01*
X52355651Y-108940323D01*
X52304911Y-108936102D01*
X51814074Y-108936102D01*
X51732961Y-108943776D01*
X51658733Y-108966320D01*
X51589815Y-109003912D01*
X51525095Y-109057907D01*
X51464013Y-109130733D01*
X51419841Y-109206482D01*
X51415846Y-109216829D01*
X51382196Y-109303982D01*
X51352464Y-109427791D01*
X51332683Y-109583130D01*
X51325436Y-109775809D01*
X50657737Y-109775809D01*
X50657737Y-109143373D01*
X50660073Y-109121160D01*
X50665430Y-109110217D01*
X50713424Y-109082373D01*
X50731740Y-109071147D01*
X50738978Y-109060666D01*
X50742825Y-109004246D01*
X50739305Y-108968134D01*
X50731284Y-108950299D01*
X50716752Y-108940073D01*
X50691717Y-108936102D01*
X50130172Y-108936102D01*
X50027942Y-108943540D01*
X49943627Y-108964276D01*
X49874033Y-108996725D01*
X49816656Y-109040424D01*
X49768805Y-109095982D01*
X49734948Y-109157770D01*
X49714271Y-109227063D01*
X49708639Y-109288911D01*
X49707113Y-109305672D01*
X49717034Y-109391795D01*
X49745712Y-109465950D01*
X49793392Y-109530894D01*
X49854888Y-109585091D01*
X49921717Y-109624515D01*
X49994892Y-109650238D01*
X49879651Y-109700022D01*
X49798708Y-109753642D01*
X49744574Y-109810430D01*
X49706799Y-109879056D01*
X49682283Y-109966896D01*
X49673316Y-110078975D01*
X49311531Y-110078975D01*
X49311531Y-109881963D01*
X49517428Y-109152440D01*
X49539696Y-109107372D01*
X49573115Y-109082373D01*
X49591381Y-109067533D01*
X49597387Y-109045553D01*
X49597387Y-108966968D01*
X49589381Y-108943958D01*
X49564781Y-108936102D01*
X49130364Y-108936102D01*
X49112790Y-108939305D01*
X49103436Y-108947551D01*
X49098927Y-108963144D01*
X49096659Y-109004154D01*
X49100505Y-109061765D01*
X49107071Y-109073019D01*
X49121571Y-109084205D01*
X49138483Y-109100753D01*
X49143736Y-109120109D01*
X49138699Y-109149509D01*
X49007357Y-109598763D01*
X48871803Y-109150150D01*
X48870887Y-109131466D01*
X48879349Y-109101885D01*
X48909904Y-109066528D01*
X48925194Y-109048470D01*
X48929322Y-109034288D01*
X48929322Y-108973196D01*
X48920822Y-108944987D01*
X48896715Y-108936102D01*
X48672317Y-108936102D01*
X48647305Y-108945086D01*
X48638612Y-108973196D01*
X48471945Y-108973196D01*
X48471945Y-108744980D01*
X58948257Y-108744980D01*
X58948257Y-110785114D01*
G37*
D11*
X76146819Y-78946953D02*
X75146819Y-78946953D01*
X75146819Y-78946953D02*
X75861104Y-79280286D01*
X75861104Y-79280286D02*
X75146819Y-79613619D01*
X75146819Y-79613619D02*
X76146819Y-79613619D01*
X76146819Y-80089810D02*
X75146819Y-80089810D01*
X76051580Y-81137428D02*
X76099200Y-81089809D01*
X76099200Y-81089809D02*
X76146819Y-80946952D01*
X76146819Y-80946952D02*
X76146819Y-80851714D01*
X76146819Y-80851714D02*
X76099200Y-80708857D01*
X76099200Y-80708857D02*
X76003961Y-80613619D01*
X76003961Y-80613619D02*
X75908723Y-80566000D01*
X75908723Y-80566000D02*
X75718247Y-80518381D01*
X75718247Y-80518381D02*
X75575390Y-80518381D01*
X75575390Y-80518381D02*
X75384914Y-80566000D01*
X75384914Y-80566000D02*
X75289676Y-80613619D01*
X75289676Y-80613619D02*
X75194438Y-80708857D01*
X75194438Y-80708857D02*
X75146819Y-80851714D01*
X75146819Y-80851714D02*
X75146819Y-80946952D01*
X75146819Y-80946952D02*
X75194438Y-81089809D01*
X75194438Y-81089809D02*
X75242057Y-81137428D01*
X76146819Y-82137428D02*
X75670628Y-81804095D01*
X76146819Y-81566000D02*
X75146819Y-81566000D01*
X75146819Y-81566000D02*
X75146819Y-81946952D01*
X75146819Y-81946952D02*
X75194438Y-82042190D01*
X75194438Y-82042190D02*
X75242057Y-82089809D01*
X75242057Y-82089809D02*
X75337295Y-82137428D01*
X75337295Y-82137428D02*
X75480152Y-82137428D01*
X75480152Y-82137428D02*
X75575390Y-82089809D01*
X75575390Y-82089809D02*
X75623009Y-82042190D01*
X75623009Y-82042190D02*
X75670628Y-81946952D01*
X75670628Y-81946952D02*
X75670628Y-81566000D01*
X75146819Y-82756476D02*
X75146819Y-82946952D01*
X75146819Y-82946952D02*
X75194438Y-83042190D01*
X75194438Y-83042190D02*
X75289676Y-83137428D01*
X75289676Y-83137428D02*
X75480152Y-83185047D01*
X75480152Y-83185047D02*
X75813485Y-83185047D01*
X75813485Y-83185047D02*
X76003961Y-83137428D01*
X76003961Y-83137428D02*
X76099200Y-83042190D01*
X76099200Y-83042190D02*
X76146819Y-82946952D01*
X76146819Y-82946952D02*
X76146819Y-82756476D01*
X76146819Y-82756476D02*
X76099200Y-82661238D01*
X76099200Y-82661238D02*
X76003961Y-82566000D01*
X76003961Y-82566000D02*
X75813485Y-82518381D01*
X75813485Y-82518381D02*
X75480152Y-82518381D01*
X75480152Y-82518381D02*
X75289676Y-82566000D01*
X75289676Y-82566000D02*
X75194438Y-82661238D01*
X75194438Y-82661238D02*
X75146819Y-82756476D01*
X76146819Y-83613619D02*
X75146819Y-83613619D01*
X75146819Y-83613619D02*
X75146819Y-83994571D01*
X75146819Y-83994571D02*
X75194438Y-84089809D01*
X75194438Y-84089809D02*
X75242057Y-84137428D01*
X75242057Y-84137428D02*
X75337295Y-84185047D01*
X75337295Y-84185047D02*
X75480152Y-84185047D01*
X75480152Y-84185047D02*
X75575390Y-84137428D01*
X75575390Y-84137428D02*
X75623009Y-84089809D01*
X75623009Y-84089809D02*
X75670628Y-83994571D01*
X75670628Y-83994571D02*
X75670628Y-83613619D01*
X76146819Y-84613619D02*
X75146819Y-84613619D01*
X75623009Y-84613619D02*
X75623009Y-85185047D01*
X76146819Y-85185047D02*
X75146819Y-85185047D01*
X75146819Y-85851714D02*
X75146819Y-86042190D01*
X75146819Y-86042190D02*
X75194438Y-86137428D01*
X75194438Y-86137428D02*
X75289676Y-86232666D01*
X75289676Y-86232666D02*
X75480152Y-86280285D01*
X75480152Y-86280285D02*
X75813485Y-86280285D01*
X75813485Y-86280285D02*
X76003961Y-86232666D01*
X76003961Y-86232666D02*
X76099200Y-86137428D01*
X76099200Y-86137428D02*
X76146819Y-86042190D01*
X76146819Y-86042190D02*
X76146819Y-85851714D01*
X76146819Y-85851714D02*
X76099200Y-85756476D01*
X76099200Y-85756476D02*
X76003961Y-85661238D01*
X76003961Y-85661238D02*
X75813485Y-85613619D01*
X75813485Y-85613619D02*
X75480152Y-85613619D01*
X75480152Y-85613619D02*
X75289676Y-85661238D01*
X75289676Y-85661238D02*
X75194438Y-85756476D01*
X75194438Y-85756476D02*
X75146819Y-85851714D01*
X76146819Y-86708857D02*
X75146819Y-86708857D01*
X75146819Y-86708857D02*
X76146819Y-87280285D01*
X76146819Y-87280285D02*
X75146819Y-87280285D01*
X75623009Y-87756476D02*
X75623009Y-88089809D01*
X76146819Y-88232666D02*
X76146819Y-87756476D01*
X76146819Y-87756476D02*
X75146819Y-87756476D01*
X75146819Y-87756476D02*
X75146819Y-88232666D01*
X95704819Y-78899333D02*
X94704819Y-78899333D01*
X95181009Y-78899333D02*
X95181009Y-79470761D01*
X95704819Y-79470761D02*
X94704819Y-79470761D01*
X95181009Y-79946952D02*
X95181009Y-80280285D01*
X95704819Y-80423142D02*
X95704819Y-79946952D01*
X95704819Y-79946952D02*
X94704819Y-79946952D01*
X94704819Y-79946952D02*
X94704819Y-80423142D01*
X95419104Y-80804095D02*
X95419104Y-81280285D01*
X95704819Y-80708857D02*
X94704819Y-81042190D01*
X94704819Y-81042190D02*
X95704819Y-81375523D01*
X95704819Y-81708857D02*
X94704819Y-81708857D01*
X94704819Y-81708857D02*
X94704819Y-81946952D01*
X94704819Y-81946952D02*
X94752438Y-82089809D01*
X94752438Y-82089809D02*
X94847676Y-82185047D01*
X94847676Y-82185047D02*
X94942914Y-82232666D01*
X94942914Y-82232666D02*
X95133390Y-82280285D01*
X95133390Y-82280285D02*
X95276247Y-82280285D01*
X95276247Y-82280285D02*
X95466723Y-82232666D01*
X95466723Y-82232666D02*
X95561961Y-82185047D01*
X95561961Y-82185047D02*
X95657200Y-82089809D01*
X95657200Y-82089809D02*
X95704819Y-81946952D01*
X95704819Y-81946952D02*
X95704819Y-81708857D01*
X95704819Y-82708857D02*
X94704819Y-82708857D01*
X94704819Y-82708857D02*
X94704819Y-83089809D01*
X94704819Y-83089809D02*
X94752438Y-83185047D01*
X94752438Y-83185047D02*
X94800057Y-83232666D01*
X94800057Y-83232666D02*
X94895295Y-83280285D01*
X94895295Y-83280285D02*
X95038152Y-83280285D01*
X95038152Y-83280285D02*
X95133390Y-83232666D01*
X95133390Y-83232666D02*
X95181009Y-83185047D01*
X95181009Y-83185047D02*
X95228628Y-83089809D01*
X95228628Y-83089809D02*
X95228628Y-82708857D01*
X95704819Y-83708857D02*
X94704819Y-83708857D01*
X95181009Y-83708857D02*
X95181009Y-84280285D01*
X95704819Y-84280285D02*
X94704819Y-84280285D01*
X94704819Y-84946952D02*
X94704819Y-85137428D01*
X94704819Y-85137428D02*
X94752438Y-85232666D01*
X94752438Y-85232666D02*
X94847676Y-85327904D01*
X94847676Y-85327904D02*
X95038152Y-85375523D01*
X95038152Y-85375523D02*
X95371485Y-85375523D01*
X95371485Y-85375523D02*
X95561961Y-85327904D01*
X95561961Y-85327904D02*
X95657200Y-85232666D01*
X95657200Y-85232666D02*
X95704819Y-85137428D01*
X95704819Y-85137428D02*
X95704819Y-84946952D01*
X95704819Y-84946952D02*
X95657200Y-84851714D01*
X95657200Y-84851714D02*
X95561961Y-84756476D01*
X95561961Y-84756476D02*
X95371485Y-84708857D01*
X95371485Y-84708857D02*
X95038152Y-84708857D01*
X95038152Y-84708857D02*
X94847676Y-84756476D01*
X94847676Y-84756476D02*
X94752438Y-84851714D01*
X94752438Y-84851714D02*
X94704819Y-84946952D01*
X95704819Y-85804095D02*
X94704819Y-85804095D01*
X94704819Y-85804095D02*
X95704819Y-86375523D01*
X95704819Y-86375523D02*
X94704819Y-86375523D01*
X95181009Y-86851714D02*
X95181009Y-87185047D01*
X95704819Y-87327904D02*
X95704819Y-86851714D01*
X95704819Y-86851714D02*
X94704819Y-86851714D01*
X94704819Y-86851714D02*
X94704819Y-87327904D01*
X95657200Y-87708857D02*
X95704819Y-87851714D01*
X95704819Y-87851714D02*
X95704819Y-88089809D01*
X95704819Y-88089809D02*
X95657200Y-88185047D01*
X95657200Y-88185047D02*
X95609580Y-88232666D01*
X95609580Y-88232666D02*
X95514342Y-88280285D01*
X95514342Y-88280285D02*
X95419104Y-88280285D01*
X95419104Y-88280285D02*
X95323866Y-88232666D01*
X95323866Y-88232666D02*
X95276247Y-88185047D01*
X95276247Y-88185047D02*
X95228628Y-88089809D01*
X95228628Y-88089809D02*
X95181009Y-87899333D01*
X95181009Y-87899333D02*
X95133390Y-87804095D01*
X95133390Y-87804095D02*
X95085771Y-87756476D01*
X95085771Y-87756476D02*
X94990533Y-87708857D01*
X94990533Y-87708857D02*
X94895295Y-87708857D01*
X94895295Y-87708857D02*
X94800057Y-87756476D01*
X94800057Y-87756476D02*
X94752438Y-87804095D01*
X94752438Y-87804095D02*
X94704819Y-87899333D01*
X94704819Y-87899333D02*
X94704819Y-88137428D01*
X94704819Y-88137428D02*
X94752438Y-88280285D01*
X86052819Y-82121714D02*
X86052819Y-81645524D01*
X86052819Y-81645524D02*
X85052819Y-81645524D01*
X86052819Y-82455048D02*
X85052819Y-82455048D01*
X86052819Y-82931238D02*
X85052819Y-82931238D01*
X85052819Y-82931238D02*
X86052819Y-83502666D01*
X86052819Y-83502666D02*
X85052819Y-83502666D01*
X85529009Y-83978857D02*
X85529009Y-84312190D01*
X86052819Y-84455047D02*
X86052819Y-83978857D01*
X86052819Y-83978857D02*
X85052819Y-83978857D01*
X85052819Y-83978857D02*
X85052819Y-84455047D01*
X85052819Y-85836000D02*
X85052819Y-86026476D01*
X85052819Y-86026476D02*
X85100438Y-86121714D01*
X85100438Y-86121714D02*
X85195676Y-86216952D01*
X85195676Y-86216952D02*
X85386152Y-86264571D01*
X85386152Y-86264571D02*
X85719485Y-86264571D01*
X85719485Y-86264571D02*
X85909961Y-86216952D01*
X85909961Y-86216952D02*
X86005200Y-86121714D01*
X86005200Y-86121714D02*
X86052819Y-86026476D01*
X86052819Y-86026476D02*
X86052819Y-85836000D01*
X86052819Y-85836000D02*
X86005200Y-85740762D01*
X86005200Y-85740762D02*
X85909961Y-85645524D01*
X85909961Y-85645524D02*
X85719485Y-85597905D01*
X85719485Y-85597905D02*
X85386152Y-85597905D01*
X85386152Y-85597905D02*
X85195676Y-85645524D01*
X85195676Y-85645524D02*
X85100438Y-85740762D01*
X85100438Y-85740762D02*
X85052819Y-85836000D01*
X85052819Y-86693143D02*
X85862342Y-86693143D01*
X85862342Y-86693143D02*
X85957580Y-86740762D01*
X85957580Y-86740762D02*
X86005200Y-86788381D01*
X86005200Y-86788381D02*
X86052819Y-86883619D01*
X86052819Y-86883619D02*
X86052819Y-87074095D01*
X86052819Y-87074095D02*
X86005200Y-87169333D01*
X86005200Y-87169333D02*
X85957580Y-87216952D01*
X85957580Y-87216952D02*
X85862342Y-87264571D01*
X85862342Y-87264571D02*
X85052819Y-87264571D01*
X85052819Y-87597905D02*
X85052819Y-88169333D01*
X86052819Y-87883619D02*
X85052819Y-87883619D01*
X136827904Y-74766412D02*
X136727904Y-74799745D01*
X136727904Y-74799745D02*
X136561238Y-74799745D01*
X136561238Y-74799745D02*
X136494571Y-74766412D01*
X136494571Y-74766412D02*
X136461238Y-74733078D01*
X136461238Y-74733078D02*
X136427904Y-74666412D01*
X136427904Y-74666412D02*
X136427904Y-74599745D01*
X136427904Y-74599745D02*
X136461238Y-74533078D01*
X136461238Y-74533078D02*
X136494571Y-74499745D01*
X136494571Y-74499745D02*
X136561238Y-74466412D01*
X136561238Y-74466412D02*
X136694571Y-74433078D01*
X136694571Y-74433078D02*
X136761238Y-74399745D01*
X136761238Y-74399745D02*
X136794571Y-74366412D01*
X136794571Y-74366412D02*
X136827904Y-74299745D01*
X136827904Y-74299745D02*
X136827904Y-74233078D01*
X136827904Y-74233078D02*
X136794571Y-74166412D01*
X136794571Y-74166412D02*
X136761238Y-74133078D01*
X136761238Y-74133078D02*
X136694571Y-74099745D01*
X136694571Y-74099745D02*
X136527904Y-74099745D01*
X136527904Y-74099745D02*
X136427904Y-74133078D01*
X136194571Y-74099745D02*
X136027904Y-74799745D01*
X136027904Y-74799745D02*
X135894571Y-74299745D01*
X135894571Y-74299745D02*
X135761237Y-74799745D01*
X135761237Y-74799745D02*
X135594571Y-74099745D01*
X135294571Y-74799745D02*
X135161237Y-74799745D01*
X135161237Y-74799745D02*
X135094571Y-74766412D01*
X135094571Y-74766412D02*
X135061237Y-74733078D01*
X135061237Y-74733078D02*
X134994571Y-74633078D01*
X134994571Y-74633078D02*
X134961237Y-74499745D01*
X134961237Y-74499745D02*
X134961237Y-74233078D01*
X134961237Y-74233078D02*
X134994571Y-74166412D01*
X134994571Y-74166412D02*
X135027904Y-74133078D01*
X135027904Y-74133078D02*
X135094571Y-74099745D01*
X135094571Y-74099745D02*
X135227904Y-74099745D01*
X135227904Y-74099745D02*
X135294571Y-74133078D01*
X135294571Y-74133078D02*
X135327904Y-74166412D01*
X135327904Y-74166412D02*
X135361237Y-74233078D01*
X135361237Y-74233078D02*
X135361237Y-74399745D01*
X135361237Y-74399745D02*
X135327904Y-74466412D01*
X135327904Y-74466412D02*
X135294571Y-74499745D01*
X135294571Y-74499745D02*
X135227904Y-74533078D01*
X135227904Y-74533078D02*
X135094571Y-74533078D01*
X135094571Y-74533078D02*
X135027904Y-74499745D01*
X135027904Y-74499745D02*
X134994571Y-74466412D01*
X134994571Y-74466412D02*
X134961237Y-74399745D01*
X66494819Y-83550381D02*
X66494819Y-83074191D01*
X66494819Y-83074191D02*
X65494819Y-83074191D01*
X66494819Y-83883715D02*
X65494819Y-83883715D01*
X66494819Y-84359905D02*
X65494819Y-84359905D01*
X65494819Y-84359905D02*
X66494819Y-84931333D01*
X66494819Y-84931333D02*
X65494819Y-84931333D01*
X65971009Y-85407524D02*
X65971009Y-85740857D01*
X66494819Y-85883714D02*
X66494819Y-85407524D01*
X66494819Y-85407524D02*
X65494819Y-85407524D01*
X65494819Y-85407524D02*
X65494819Y-85883714D01*
X66494819Y-87074191D02*
X65494819Y-87074191D01*
X66494819Y-87550381D02*
X65494819Y-87550381D01*
X65494819Y-87550381D02*
X66494819Y-88121809D01*
X66494819Y-88121809D02*
X65494819Y-88121809D01*
D12*
%TO.C,G\u002A\u002A\u002A*%
G36*
X41575076Y-109641313D02*
G01*
X41592909Y-109648262D01*
X41610506Y-109663464D01*
X41625590Y-109681185D01*
X41633287Y-109702367D01*
X41633124Y-109733000D01*
X41632151Y-109746632D01*
X41632682Y-109766721D01*
X41639171Y-109774956D01*
X41654161Y-109776611D01*
X41672141Y-109778573D01*
X41692616Y-109785596D01*
X41701525Y-109793593D01*
X41722570Y-109813737D01*
X41753969Y-109844275D01*
X41793980Y-109883481D01*
X41840859Y-109929627D01*
X41892864Y-109980985D01*
X41948253Y-110035828D01*
X42005283Y-110092429D01*
X42062212Y-110149059D01*
X42117296Y-110203993D01*
X42168795Y-110255502D01*
X42214964Y-110301858D01*
X42254062Y-110341335D01*
X42284346Y-110372204D01*
X42323423Y-110412354D01*
X42328308Y-110623749D01*
X42333193Y-110835145D01*
X42396693Y-110889066D01*
X42460193Y-110942988D01*
X42462829Y-110735840D01*
X42463151Y-110713724D01*
X42464436Y-110654696D01*
X42466156Y-110603855D01*
X42468180Y-110564039D01*
X42470372Y-110538085D01*
X42472598Y-110528833D01*
X42475569Y-110530101D01*
X42491197Y-110540816D01*
X42516168Y-110560076D01*
X42546690Y-110585006D01*
X42613649Y-110641038D01*
X42618414Y-110936943D01*
X42618828Y-110964249D01*
X42619674Y-111037090D01*
X42620071Y-111103100D01*
X42620029Y-111159741D01*
X42619556Y-111204469D01*
X42618662Y-111234746D01*
X42617354Y-111248028D01*
X42617290Y-111248194D01*
X42611118Y-111255487D01*
X42599461Y-111251681D01*
X42578139Y-111235431D01*
X42560568Y-111220754D01*
X42530805Y-111195823D01*
X42492086Y-111163353D01*
X42447439Y-111125882D01*
X42399895Y-111085951D01*
X42352775Y-111046415D01*
X42308840Y-111009648D01*
X42271069Y-110978135D01*
X42242390Y-110954321D01*
X42225731Y-110940646D01*
X42223061Y-110938486D01*
X42207192Y-110924671D01*
X42195114Y-110910546D01*
X42186295Y-110893364D01*
X42180204Y-110870378D01*
X42176310Y-110838842D01*
X42174080Y-110796009D01*
X42172983Y-110739131D01*
X42172488Y-110665461D01*
X42171548Y-110455423D01*
X41882623Y-110167859D01*
X41872162Y-110157448D01*
X41803205Y-110088767D01*
X41746720Y-110032295D01*
X41701494Y-109986649D01*
X41666311Y-109950448D01*
X41639959Y-109922310D01*
X41621222Y-109900853D01*
X41608887Y-109884695D01*
X41601739Y-109872456D01*
X41598563Y-109862752D01*
X41598147Y-109854203D01*
X41599274Y-109845426D01*
X41604850Y-109810555D01*
X41560071Y-109814117D01*
X41551423Y-109814569D01*
X41517132Y-109812328D01*
X41491120Y-109804742D01*
X41488524Y-109803296D01*
X41460266Y-109776805D01*
X41446138Y-109741412D01*
X41447150Y-109702370D01*
X41464308Y-109664934D01*
X41469611Y-109659196D01*
X41492644Y-109647916D01*
X41531231Y-109641802D01*
X41549380Y-109640533D01*
X41575076Y-109641313D01*
G37*
G36*
X40379156Y-110864803D02*
G01*
X40378649Y-110908317D01*
X40376135Y-110939909D01*
X40370221Y-110966159D01*
X40359514Y-110993643D01*
X40342622Y-111028939D01*
X40323583Y-111064030D01*
X40271111Y-111134850D01*
X40207151Y-111189997D01*
X40131089Y-111229936D01*
X40042308Y-111255131D01*
X40015024Y-111257548D01*
X39970244Y-111256293D01*
X39920358Y-111251119D01*
X39872922Y-111242858D01*
X39835495Y-111232345D01*
X39801261Y-111217065D01*
X39733481Y-111172433D01*
X39674567Y-111114011D01*
X39627820Y-111045418D01*
X39596540Y-110970274D01*
X39596224Y-110969179D01*
X39584879Y-110903976D01*
X39584551Y-110841170D01*
X39798834Y-110841170D01*
X39802464Y-110895027D01*
X39823114Y-110948196D01*
X39846685Y-110983481D01*
X39878069Y-111012495D01*
X39919844Y-111033506D01*
X39928144Y-111036558D01*
X39955639Y-111043211D01*
X39985505Y-111043270D01*
X40025845Y-111037004D01*
X40055066Y-111028178D01*
X40099793Y-111000575D01*
X40135106Y-110960841D01*
X40158586Y-110913059D01*
X40167818Y-110861311D01*
X40160386Y-110809681D01*
X40143590Y-110778230D01*
X40115081Y-110743981D01*
X40081438Y-110714186D01*
X40048999Y-110695351D01*
X39998284Y-110685341D01*
X39941537Y-110689972D01*
X39886725Y-110709056D01*
X39880200Y-110712548D01*
X39838688Y-110746222D01*
X39811238Y-110790332D01*
X39798834Y-110841170D01*
X39584551Y-110841170D01*
X39584506Y-110832529D01*
X39594580Y-110762631D01*
X39614577Y-110702070D01*
X39634233Y-110665922D01*
X39682290Y-110602787D01*
X39741587Y-110547847D01*
X39806767Y-110506551D01*
X39817642Y-110501242D01*
X39844944Y-110488995D01*
X39868994Y-110481309D01*
X39895490Y-110477146D01*
X39930127Y-110475469D01*
X39978603Y-110475239D01*
X39997925Y-110475361D01*
X40045796Y-110476815D01*
X40081977Y-110480537D01*
X40112346Y-110487342D01*
X40142780Y-110498048D01*
X40198584Y-110527636D01*
X40257382Y-110574325D01*
X40308676Y-110631187D01*
X40347400Y-110693384D01*
X40360753Y-110722057D01*
X40370587Y-110748810D01*
X40376097Y-110775846D01*
X40378533Y-110809583D01*
X40379144Y-110856434D01*
X40379151Y-110861311D01*
X40379156Y-110864803D01*
G37*
G36*
X41910260Y-110334301D02*
G01*
X41925948Y-110344644D01*
X41950735Y-110363833D01*
X41980693Y-110388890D01*
X42045000Y-110444473D01*
X42045000Y-110665486D01*
X42045000Y-110886498D01*
X42071866Y-110911318D01*
X42082603Y-110920696D01*
X42108612Y-110942027D01*
X42142637Y-110969034D01*
X42180802Y-110998732D01*
X42219230Y-111028141D01*
X42254043Y-111054275D01*
X42281366Y-111074154D01*
X42297322Y-111084793D01*
X42300455Y-111086732D01*
X42306240Y-111093857D01*
X42307378Y-111106815D01*
X42303763Y-111129959D01*
X42295288Y-111167645D01*
X42293146Y-111176461D01*
X42283767Y-111209722D01*
X42275096Y-111233049D01*
X42268775Y-111241846D01*
X42267382Y-111241648D01*
X42252963Y-111233879D01*
X42232973Y-111218303D01*
X42224041Y-111210943D01*
X42198877Y-111191470D01*
X42163287Y-111164735D01*
X42120642Y-111133259D01*
X42074308Y-111099564D01*
X42044430Y-111077900D01*
X42000878Y-111045966D01*
X41963547Y-111018172D01*
X41935660Y-110996925D01*
X41920443Y-110984634D01*
X41915360Y-110979871D01*
X41910340Y-110973482D01*
X41906428Y-110964421D01*
X41903486Y-110950582D01*
X41901375Y-110929854D01*
X41899958Y-110900131D01*
X41899096Y-110859302D01*
X41898652Y-110805261D01*
X41898486Y-110735898D01*
X41898462Y-110649104D01*
X41898493Y-110620098D01*
X41898937Y-110539976D01*
X41899866Y-110470381D01*
X41901231Y-110413115D01*
X41902980Y-110369979D01*
X41905061Y-110342776D01*
X41907424Y-110333307D01*
X41910260Y-110334301D01*
G37*
G36*
X47834415Y-111044369D02*
G01*
X47834180Y-111067396D01*
X47830132Y-111082187D01*
X47824319Y-111106766D01*
X47819968Y-111120490D01*
X47798190Y-111156241D01*
X47765150Y-111189264D01*
X47726212Y-111213714D01*
X47694363Y-111225327D01*
X47640566Y-111230616D01*
X47586416Y-111216956D01*
X47552399Y-111199472D01*
X47510441Y-111162726D01*
X47485157Y-111115878D01*
X47476708Y-111059158D01*
X47477692Y-111050888D01*
X47580441Y-111050888D01*
X47585022Y-111073182D01*
X47603958Y-111097076D01*
X47619051Y-111109938D01*
X47651628Y-111123222D01*
X47683500Y-111117117D01*
X47713379Y-111091688D01*
X47727187Y-111068661D01*
X47727485Y-111042887D01*
X47710445Y-111013586D01*
X47684774Y-110993688D01*
X47653014Y-110987504D01*
X47621437Y-110994534D01*
X47595706Y-111013485D01*
X47581479Y-111043063D01*
X47580441Y-111050888D01*
X47477692Y-111050888D01*
X47482203Y-111012956D01*
X47505098Y-110961110D01*
X47545713Y-110917467D01*
X47559678Y-110907647D01*
X47606952Y-110888053D01*
X47659092Y-110882237D01*
X47710972Y-110889684D01*
X47757470Y-110909881D01*
X47793460Y-110942314D01*
X47796449Y-110946458D01*
X47813243Y-110976817D01*
X47826667Y-111011815D01*
X47834062Y-111042887D01*
X47834415Y-111044369D01*
G37*
G36*
X44116081Y-111093795D02*
G01*
X44094921Y-111141479D01*
X44063146Y-111181648D01*
X44023754Y-111208566D01*
X43984559Y-111220129D01*
X43929776Y-111222127D01*
X43875850Y-111210508D01*
X43828157Y-111186593D01*
X43792073Y-111151702D01*
X43777324Y-111119874D01*
X43768889Y-111075886D01*
X43768468Y-111050969D01*
X43868343Y-111050969D01*
X43877625Y-111082060D01*
X43902711Y-111108975D01*
X43908808Y-111112874D01*
X43942378Y-111122397D01*
X43975642Y-111113320D01*
X44005863Y-111086247D01*
X44017695Y-111060710D01*
X44015580Y-111032307D01*
X44000485Y-111007383D01*
X43975748Y-110989384D01*
X43944704Y-110981755D01*
X43910689Y-110987943D01*
X43895890Y-110995998D01*
X43874539Y-111020637D01*
X43868343Y-111050969D01*
X43768468Y-111050969D01*
X43768089Y-111028505D01*
X43775007Y-110984821D01*
X43789726Y-110951925D01*
X43792034Y-110948882D01*
X43831605Y-110911772D01*
X43878646Y-110889332D01*
X43929654Y-110880826D01*
X43981123Y-110885520D01*
X44029548Y-110902678D01*
X44071426Y-110931563D01*
X44103251Y-110971441D01*
X44121519Y-111021574D01*
X44123626Y-111044331D01*
X44121128Y-111060710D01*
X44116081Y-111093795D01*
G37*
G36*
X45722373Y-110937665D02*
G01*
X45760050Y-110960630D01*
X45790427Y-110996320D01*
X45804668Y-111038034D01*
X45802430Y-111082582D01*
X45783369Y-111126771D01*
X45747140Y-111167413D01*
X45725165Y-111182724D01*
X45699545Y-111190873D01*
X45663372Y-111193000D01*
X45645216Y-111192717D01*
X45617981Y-111189030D01*
X45596233Y-111178125D01*
X45570708Y-111156337D01*
X45550561Y-111135632D01*
X45533582Y-111108692D01*
X45525652Y-111076793D01*
X45524528Y-111063889D01*
X45531127Y-111017269D01*
X45552666Y-110977778D01*
X45585853Y-110947743D01*
X45627395Y-110929493D01*
X45673999Y-110925358D01*
X45722373Y-110937665D01*
G37*
G36*
X41578387Y-110087207D02*
G01*
X41599962Y-110088279D01*
X41636048Y-110090483D01*
X41661614Y-110092607D01*
X41672158Y-110094309D01*
X41668182Y-110100107D01*
X41651745Y-110118404D01*
X41623922Y-110147807D01*
X41586099Y-110186938D01*
X41539661Y-110234416D01*
X41485994Y-110288864D01*
X41426484Y-110348900D01*
X41362517Y-110413147D01*
X41295480Y-110480225D01*
X41226756Y-110548754D01*
X41157733Y-110617355D01*
X41089797Y-110684649D01*
X41024332Y-110749257D01*
X40962725Y-110809799D01*
X40906362Y-110864896D01*
X40856629Y-110913169D01*
X40814910Y-110953238D01*
X40782593Y-110983725D01*
X40761063Y-111003249D01*
X40751706Y-111010431D01*
X40732127Y-111012511D01*
X40697804Y-111014135D01*
X40654187Y-111015161D01*
X40606081Y-111015581D01*
X40558288Y-111015383D01*
X40515613Y-111014560D01*
X40482858Y-111013100D01*
X40464827Y-111010996D01*
X40456689Y-111008362D01*
X40446389Y-111000481D01*
X40444829Y-110986261D01*
X40452166Y-110962071D01*
X40468557Y-110924279D01*
X40494267Y-110868121D01*
X40593953Y-110874799D01*
X40693639Y-110881476D01*
X41059147Y-110512539D01*
X41087145Y-110484282D01*
X41156695Y-110414133D01*
X41222379Y-110347941D01*
X41282786Y-110287124D01*
X41336505Y-110233101D01*
X41382124Y-110187292D01*
X41418232Y-110151113D01*
X41443418Y-110125984D01*
X41456272Y-110113324D01*
X41460684Y-110109112D01*
X41475193Y-110096480D01*
X41489218Y-110089043D01*
X41507758Y-110085732D01*
X41535815Y-110085476D01*
X41578387Y-110087207D01*
G37*
G36*
X47694875Y-108993946D02*
G01*
X47696053Y-109019452D01*
X47697132Y-109062005D01*
X47698101Y-109120293D01*
X47698950Y-109193004D01*
X47699668Y-109278829D01*
X47700244Y-109376455D01*
X47700668Y-109484571D01*
X47700928Y-109601867D01*
X47701014Y-109727032D01*
X47700914Y-109858753D01*
X47699643Y-110734247D01*
X47678533Y-110749152D01*
X47667387Y-110756761D01*
X47641290Y-110774115D01*
X47606524Y-110796953D01*
X47567533Y-110822346D01*
X47516330Y-110857925D01*
X47469538Y-110897709D01*
X47432415Y-110939411D01*
X47387187Y-110998187D01*
X47263421Y-110995459D01*
X47139654Y-110992730D01*
X47139654Y-110920394D01*
X47139654Y-110848057D01*
X47217808Y-110849533D01*
X47235292Y-110849874D01*
X47262606Y-110849821D01*
X47284837Y-110847493D01*
X47305411Y-110841280D01*
X47327756Y-110829575D01*
X47355298Y-110810771D01*
X47391464Y-110783260D01*
X47439682Y-110745432D01*
X47476978Y-110715872D01*
X47507558Y-110690420D01*
X47527423Y-110671345D01*
X47539169Y-110655741D01*
X47545388Y-110640700D01*
X47548678Y-110623317D01*
X47549663Y-110607379D01*
X47550781Y-110573427D01*
X47551994Y-110523171D01*
X47553275Y-110458238D01*
X47554599Y-110380253D01*
X47555940Y-110290845D01*
X47557272Y-110191640D01*
X47558569Y-110084264D01*
X47559805Y-109970346D01*
X47560955Y-109851510D01*
X47567601Y-109120598D01*
X47626447Y-109055318D01*
X47638926Y-109041606D01*
X47664387Y-109014499D01*
X47683807Y-108995008D01*
X47693739Y-108986648D01*
X47694875Y-108993946D01*
G37*
G36*
X45364940Y-109011726D02*
G01*
X45384517Y-109033956D01*
X45418085Y-109072497D01*
X45458167Y-109118840D01*
X45501331Y-109169013D01*
X45544144Y-109219047D01*
X45574747Y-109254882D01*
X45621338Y-109309321D01*
X45667268Y-109362865D01*
X45708537Y-109410853D01*
X45741143Y-109448623D01*
X45751836Y-109460978D01*
X45830786Y-109552848D01*
X45900591Y-109635256D01*
X45960678Y-109707489D01*
X46010477Y-109768832D01*
X46049417Y-109818572D01*
X46076925Y-109855997D01*
X46092431Y-109880393D01*
X46095365Y-109891045D01*
X46093510Y-109892270D01*
X46075630Y-109895467D01*
X46045844Y-109895883D01*
X46010078Y-109893956D01*
X45974263Y-109890126D01*
X45944327Y-109884833D01*
X45926198Y-109878514D01*
X45923850Y-109876848D01*
X45905640Y-109860306D01*
X45880897Y-109834185D01*
X45854270Y-109803344D01*
X45851035Y-109799422D01*
X45823152Y-109765883D01*
X45797116Y-109734981D01*
X45778188Y-109712961D01*
X45752423Y-109683654D01*
X45746370Y-109869269D01*
X45745239Y-109909611D01*
X45743811Y-109976458D01*
X45742475Y-110056153D01*
X45741281Y-110144915D01*
X45740278Y-110238965D01*
X45739515Y-110334523D01*
X45739043Y-110427808D01*
X45737769Y-110800731D01*
X45712478Y-110830789D01*
X45705405Y-110838713D01*
X45679853Y-110857258D01*
X45654270Y-110857148D01*
X45625188Y-110838698D01*
X45599440Y-110816551D01*
X45600139Y-110513871D01*
X45600189Y-110496065D01*
X45600666Y-110403426D01*
X45601501Y-110298159D01*
X45602632Y-110185943D01*
X45603997Y-110072456D01*
X45605536Y-109963377D01*
X45607186Y-109864384D01*
X45613535Y-109517577D01*
X45561769Y-109456519D01*
X45554304Y-109447871D01*
X45529352Y-109421161D01*
X45508933Y-109402488D01*
X45496886Y-109395461D01*
X45495956Y-109395599D01*
X45492171Y-109400348D01*
X45489216Y-109413257D01*
X45487001Y-109436221D01*
X45485431Y-109471137D01*
X45484415Y-109519901D01*
X45483861Y-109584409D01*
X45483675Y-109666557D01*
X45483617Y-109702672D01*
X45483329Y-109771298D01*
X45482824Y-109849084D01*
X45482130Y-109933979D01*
X45481276Y-110023933D01*
X45480287Y-110116896D01*
X45479191Y-110210819D01*
X45478016Y-110303653D01*
X45476790Y-110393346D01*
X45475539Y-110477850D01*
X45474291Y-110555115D01*
X45473073Y-110623090D01*
X45471913Y-110679727D01*
X45470838Y-110722976D01*
X45469875Y-110750786D01*
X45469052Y-110761108D01*
X45468051Y-110761088D01*
X45455382Y-110754955D01*
X45431531Y-110741167D01*
X45400549Y-110722031D01*
X45334406Y-110680115D01*
X45340948Y-109986999D01*
X45342138Y-109865170D01*
X45343430Y-109745150D01*
X45344703Y-109642274D01*
X45345994Y-109555274D01*
X45347339Y-109482881D01*
X45348774Y-109423827D01*
X45350338Y-109376843D01*
X45352065Y-109340660D01*
X45353992Y-109314011D01*
X45356157Y-109295626D01*
X45358594Y-109284237D01*
X45361342Y-109278575D01*
X45366149Y-109270292D01*
X45365077Y-109259155D01*
X45356394Y-109242215D01*
X45338503Y-109216373D01*
X45309809Y-109178531D01*
X45293416Y-109157529D01*
X45262245Y-109120203D01*
X45239837Y-109099186D01*
X45224807Y-109094472D01*
X45215767Y-109106057D01*
X45211332Y-109133934D01*
X45210113Y-109178096D01*
X45210061Y-109191924D01*
X45209845Y-109227905D01*
X45209476Y-109280407D01*
X45208968Y-109347614D01*
X45208335Y-109427709D01*
X45207593Y-109518877D01*
X45206756Y-109619301D01*
X45205839Y-109727164D01*
X45204857Y-109840651D01*
X45203824Y-109957945D01*
X45197652Y-110652313D01*
X45221038Y-110674472D01*
X45226534Y-110679212D01*
X45248976Y-110696368D01*
X45282625Y-110720592D01*
X45323946Y-110749365D01*
X45369402Y-110780167D01*
X45391894Y-110795382D01*
X45433603Y-110824615D01*
X45468211Y-110850211D01*
X45492619Y-110869840D01*
X45503729Y-110881171D01*
X45512004Y-110908633D01*
X45510199Y-110942664D01*
X45496909Y-110969980D01*
X45493293Y-110973737D01*
X45477499Y-110984416D01*
X45458151Y-110987139D01*
X45432873Y-110981102D01*
X45399291Y-110965499D01*
X45355029Y-110939522D01*
X45297712Y-110902365D01*
X45247450Y-110868908D01*
X45192889Y-110832531D01*
X45151245Y-110804632D01*
X45120598Y-110783874D01*
X45099025Y-110768919D01*
X45084606Y-110758430D01*
X45075419Y-110751067D01*
X45069543Y-110745494D01*
X45065056Y-110740373D01*
X45063123Y-110735494D01*
X45061232Y-110723493D01*
X45059663Y-110703609D01*
X45058413Y-110674784D01*
X45057474Y-110635956D01*
X45056842Y-110586067D01*
X45056512Y-110524058D01*
X45056479Y-110448869D01*
X45056736Y-110359441D01*
X45057280Y-110254714D01*
X45058104Y-110133628D01*
X45059203Y-109995125D01*
X45060573Y-109838144D01*
X45068577Y-108950961D01*
X45187335Y-108948226D01*
X45306093Y-108945490D01*
X45364940Y-109011726D01*
G37*
G36*
X47994095Y-109858182D02*
G01*
X47993728Y-110865730D01*
X47962140Y-110902611D01*
X47952969Y-110912791D01*
X47925942Y-110938908D01*
X47901449Y-110958070D01*
X47899062Y-110959569D01*
X47875934Y-110971909D01*
X47859276Y-110977362D01*
X47857802Y-110976204D01*
X47855904Y-110969681D01*
X47854270Y-110956535D01*
X47852894Y-110935771D01*
X47851771Y-110906398D01*
X47850896Y-110867421D01*
X47850262Y-110817847D01*
X47849863Y-110756683D01*
X47849695Y-110682935D01*
X47849751Y-110595610D01*
X47850026Y-110493714D01*
X47850513Y-110376254D01*
X47851208Y-110242237D01*
X47852104Y-110090669D01*
X47853195Y-109920557D01*
X47853279Y-109907958D01*
X47854227Y-109766408D01*
X47855158Y-109630549D01*
X47856062Y-109501640D01*
X47856929Y-109380938D01*
X47857750Y-109269704D01*
X47858515Y-109169196D01*
X47859214Y-109080673D01*
X47859837Y-109005393D01*
X47860375Y-108944616D01*
X47860819Y-108899600D01*
X47861157Y-108871605D01*
X47861381Y-108861889D01*
X47861394Y-108861878D01*
X47871216Y-108860597D01*
X47895303Y-108858375D01*
X47928519Y-108855687D01*
X47994462Y-108850634D01*
X47994095Y-109858182D01*
G37*
G36*
X45512026Y-108743365D02*
G01*
X45514839Y-108746872D01*
X45561937Y-108805657D01*
X45611604Y-108867750D01*
X45661727Y-108930502D01*
X45710193Y-108991262D01*
X45754889Y-109047380D01*
X45793702Y-109096205D01*
X45824521Y-109135086D01*
X45845231Y-109161373D01*
X45886318Y-109213816D01*
X45935430Y-109276259D01*
X45980542Y-109333257D01*
X46026240Y-109390598D01*
X46077109Y-109454071D01*
X46100036Y-109482817D01*
X46129225Y-109520696D01*
X46148702Y-109548651D01*
X46160328Y-109569765D01*
X46165966Y-109587123D01*
X46167475Y-109603809D01*
X46167301Y-109611773D01*
X46160078Y-109642263D01*
X46139059Y-109669751D01*
X46132426Y-109676169D01*
X46113806Y-109691860D01*
X46102425Y-109697982D01*
X46100968Y-109697877D01*
X46096543Y-109696800D01*
X46091078Y-109693866D01*
X46083837Y-109688175D01*
X46074082Y-109678828D01*
X46061077Y-109664926D01*
X46044084Y-109645571D01*
X46022365Y-109619862D01*
X45995185Y-109586902D01*
X45961805Y-109545790D01*
X45921488Y-109495628D01*
X45873498Y-109435517D01*
X45817098Y-109364558D01*
X45751549Y-109281851D01*
X45676116Y-109186498D01*
X45590060Y-109077599D01*
X45492645Y-108954256D01*
X45394958Y-108830551D01*
X45285498Y-108827256D01*
X45254415Y-108826644D01*
X45204016Y-108826190D01*
X45139889Y-108825972D01*
X45065091Y-108825991D01*
X44982680Y-108826244D01*
X44895714Y-108826730D01*
X44807250Y-108827448D01*
X44438462Y-108830935D01*
X44438462Y-109840394D01*
X44438462Y-110849853D01*
X44374406Y-110904196D01*
X44362768Y-110913942D01*
X44334198Y-110936739D01*
X44312321Y-110952594D01*
X44301137Y-110958538D01*
X44300776Y-110957984D01*
X44299329Y-110943756D01*
X44297995Y-110910776D01*
X44296779Y-110859680D01*
X44295685Y-110791104D01*
X44294719Y-110705682D01*
X44293887Y-110604051D01*
X44293195Y-110486844D01*
X44292647Y-110354699D01*
X44292248Y-110208249D01*
X44292006Y-110048131D01*
X44291923Y-109874979D01*
X44291923Y-108791420D01*
X44348096Y-108737061D01*
X44404269Y-108682701D01*
X44933660Y-108682504D01*
X45463051Y-108682307D01*
X45512026Y-108743365D01*
G37*
G36*
X43782605Y-108707825D02*
G01*
X43825928Y-108753037D01*
X43820333Y-109745884D01*
X43814739Y-110738730D01*
X43749444Y-110799721D01*
X43734219Y-110813604D01*
X43706830Y-110836739D01*
X43686236Y-110851679D01*
X43676023Y-110855690D01*
X43675390Y-110851954D01*
X43674439Y-110831003D01*
X43673641Y-110793038D01*
X43672991Y-110739649D01*
X43672486Y-110672425D01*
X43672121Y-110592955D01*
X43671893Y-110502828D01*
X43671798Y-110403634D01*
X43671830Y-110296960D01*
X43671987Y-110184398D01*
X43672264Y-110067535D01*
X43672658Y-109947962D01*
X43673163Y-109827266D01*
X43673776Y-109707038D01*
X43674493Y-109588867D01*
X43675310Y-109474341D01*
X43676223Y-109365050D01*
X43677227Y-109262583D01*
X43678319Y-109168530D01*
X43679495Y-109084478D01*
X43680750Y-109012019D01*
X43684905Y-108799538D01*
X43123884Y-108799538D01*
X42562864Y-108799538D01*
X42567098Y-108733596D01*
X42571332Y-108667654D01*
X43155307Y-108665133D01*
X43739282Y-108662613D01*
X43782605Y-108707825D01*
G37*
G36*
X44005331Y-108842174D02*
G01*
X44031353Y-108843580D01*
X44066287Y-108845944D01*
X44138613Y-108851224D01*
X44131921Y-109433516D01*
X44131606Y-109461348D01*
X44130310Y-109585106D01*
X44129097Y-109715481D01*
X44127993Y-109848736D01*
X44127023Y-109981137D01*
X44126213Y-110108946D01*
X44125590Y-110228427D01*
X44125179Y-110335843D01*
X44125007Y-110427460D01*
X44124945Y-110474727D01*
X44124645Y-110559522D01*
X44124127Y-110637084D01*
X44123421Y-110705363D01*
X44122554Y-110762308D01*
X44121555Y-110805867D01*
X44120452Y-110833989D01*
X44119273Y-110844624D01*
X44114882Y-110844596D01*
X44097797Y-110835679D01*
X44071706Y-110817676D01*
X44040125Y-110793087D01*
X44006568Y-110764416D01*
X43980097Y-110740716D01*
X43985834Y-109792108D01*
X43986204Y-109731370D01*
X43987024Y-109599382D01*
X43987829Y-109473632D01*
X43988609Y-109355452D01*
X43989353Y-109246171D01*
X43990053Y-109147118D01*
X43990698Y-109059624D01*
X43991279Y-108985019D01*
X43991786Y-108924632D01*
X43992209Y-108879793D01*
X43992539Y-108851833D01*
X43992766Y-108842081D01*
X43993113Y-108841982D01*
X44005331Y-108842174D01*
G37*
G36*
X41222832Y-110037130D02*
G01*
X41314087Y-110043238D01*
X40954228Y-110403196D01*
X40594369Y-110763154D01*
X40514299Y-110763154D01*
X40510044Y-110763142D01*
X40469283Y-110761627D01*
X40440553Y-110757893D01*
X40427586Y-110752402D01*
X40427540Y-110752299D01*
X40433431Y-110742791D01*
X40452182Y-110720737D01*
X40482748Y-110687233D01*
X40524085Y-110643376D01*
X40575149Y-110590262D01*
X40634895Y-110528986D01*
X40702280Y-110460646D01*
X40776259Y-110386337D01*
X41131577Y-110031022D01*
X41222832Y-110037130D01*
G37*
G36*
X47376801Y-110320068D02*
G01*
X47403115Y-110346120D01*
X47405331Y-110349817D01*
X47410778Y-110363920D01*
X47414318Y-110384608D01*
X47416192Y-110415112D01*
X47416638Y-110458667D01*
X47415896Y-110518504D01*
X47413193Y-110667255D01*
X47359462Y-110695663D01*
X47333791Y-110708531D01*
X47308141Y-110719754D01*
X47293519Y-110724074D01*
X47291129Y-110721599D01*
X47287176Y-110703845D01*
X47284169Y-110672013D01*
X47282106Y-110629702D01*
X47280983Y-110580507D01*
X47280797Y-110528027D01*
X47281546Y-110475857D01*
X47283227Y-110427596D01*
X47285837Y-110386839D01*
X47289372Y-110357185D01*
X47293830Y-110342230D01*
X47315525Y-110321829D01*
X47346294Y-110311924D01*
X47376801Y-110320068D01*
G37*
G36*
X40449667Y-108876115D02*
G01*
X40497253Y-108923421D01*
X40557856Y-108983524D01*
X40626610Y-109051596D01*
X40700554Y-109124711D01*
X40776730Y-109199943D01*
X40852178Y-109274366D01*
X40923939Y-109345055D01*
X40926536Y-109347611D01*
X40996618Y-109417061D01*
X41059184Y-109479949D01*
X41113132Y-109535119D01*
X41157358Y-109581418D01*
X41190760Y-109617691D01*
X41212232Y-109642784D01*
X41220674Y-109655542D01*
X41222630Y-109674756D01*
X41218273Y-109698751D01*
X41217942Y-109699329D01*
X41207914Y-109711161D01*
X41185417Y-109735382D01*
X41151657Y-109770755D01*
X41107842Y-109816040D01*
X41055178Y-109870003D01*
X40994873Y-109931403D01*
X40928134Y-109999005D01*
X40856168Y-110071571D01*
X40780182Y-110147862D01*
X40350633Y-110578236D01*
X40304694Y-110526599D01*
X40258755Y-110474961D01*
X40309282Y-110421471D01*
X40324876Y-110405261D01*
X40353400Y-110376006D01*
X40392578Y-110336045D01*
X40440802Y-110287014D01*
X40496461Y-110230545D01*
X40557947Y-110168275D01*
X40623650Y-110101835D01*
X40691962Y-110032862D01*
X40718101Y-110006466D01*
X40796442Y-109926992D01*
X40861826Y-109859999D01*
X40915064Y-109804615D01*
X40956966Y-109759964D01*
X40988344Y-109725173D01*
X41010008Y-109699369D01*
X41022768Y-109681676D01*
X41027437Y-109671222D01*
X41027714Y-109667396D01*
X41025771Y-109655974D01*
X41018394Y-109641981D01*
X41003796Y-109623286D01*
X40980190Y-109597752D01*
X40945789Y-109563248D01*
X40898805Y-109517638D01*
X40890605Y-109509734D01*
X40846981Y-109467497D01*
X40796175Y-109418047D01*
X40739696Y-109362877D01*
X40679055Y-109303478D01*
X40615762Y-109241340D01*
X40551327Y-109177955D01*
X40487263Y-109114815D01*
X40425078Y-109053410D01*
X40366284Y-108995232D01*
X40312391Y-108941772D01*
X40264909Y-108894522D01*
X40225349Y-108854972D01*
X40195222Y-108824614D01*
X40176038Y-108804940D01*
X40169308Y-108797440D01*
X40169361Y-108797199D01*
X40176673Y-108787712D01*
X40193917Y-108768475D01*
X40217648Y-108743343D01*
X40265988Y-108693191D01*
X40449667Y-108876115D01*
G37*
G36*
X40377835Y-108410996D02*
G01*
X40412859Y-108414297D01*
X40441492Y-108419071D01*
X40475933Y-108423957D01*
X40495672Y-108419289D01*
X40496407Y-108418836D01*
X40511825Y-108416132D01*
X40541575Y-108414529D01*
X40581102Y-108413952D01*
X40625850Y-108414325D01*
X40671263Y-108415571D01*
X40712786Y-108417616D01*
X40745862Y-108420382D01*
X40765936Y-108423794D01*
X40771873Y-108428661D01*
X40791020Y-108446552D01*
X40822399Y-108476774D01*
X40865155Y-108518478D01*
X40918433Y-108570816D01*
X40981376Y-108632942D01*
X41053130Y-108704007D01*
X41132837Y-108783163D01*
X41219644Y-108869564D01*
X41312693Y-108962360D01*
X41411130Y-109060705D01*
X41514099Y-109163751D01*
X41620743Y-109270650D01*
X42460193Y-110112778D01*
X42462724Y-109617351D01*
X42462877Y-109589138D01*
X42463781Y-109466383D01*
X42464975Y-109361965D01*
X42466457Y-109276083D01*
X42468219Y-109208938D01*
X42470258Y-109160729D01*
X42472569Y-109131658D01*
X42475146Y-109121923D01*
X42477287Y-109122463D01*
X42492800Y-109131274D01*
X42517906Y-109148643D01*
X42548325Y-109171661D01*
X42611616Y-109221399D01*
X42613103Y-109374372D01*
X42613378Y-109403642D01*
X42613815Y-109455138D01*
X42614126Y-109498772D01*
X42614285Y-109530651D01*
X42614265Y-109546884D01*
X42614193Y-109556658D01*
X42614067Y-109584712D01*
X42613904Y-109628577D01*
X42613712Y-109686203D01*
X42613497Y-109755542D01*
X42613265Y-109834548D01*
X42613023Y-109921172D01*
X42612778Y-110013365D01*
X42612458Y-110092145D01*
X42611830Y-110178223D01*
X42610960Y-110256368D01*
X42609887Y-110324645D01*
X42608647Y-110381120D01*
X42607276Y-110423860D01*
X42605811Y-110450929D01*
X42604289Y-110460395D01*
X42601081Y-110457726D01*
X42585250Y-110442670D01*
X42556946Y-110415030D01*
X42516962Y-110375599D01*
X42466091Y-110325167D01*
X42405126Y-110264526D01*
X42334860Y-110194469D01*
X42256087Y-110115786D01*
X42169598Y-110029270D01*
X42076188Y-109935712D01*
X41976649Y-109835904D01*
X41871774Y-109730638D01*
X41762356Y-109620705D01*
X41649188Y-109506896D01*
X40701414Y-108553311D01*
X40520602Y-108560406D01*
X40459985Y-108562584D01*
X40409659Y-108563763D01*
X40373984Y-108563586D01*
X40350421Y-108561969D01*
X40336429Y-108558827D01*
X40329468Y-108554078D01*
X40323902Y-108543992D01*
X40313233Y-108519681D01*
X40300823Y-108488406D01*
X40289035Y-108456396D01*
X40280229Y-108429882D01*
X40276769Y-108415093D01*
X40276772Y-108415017D01*
X40285888Y-108411180D01*
X40309202Y-108409314D01*
X40341567Y-108409294D01*
X40377835Y-108410996D01*
G37*
G36*
X47383520Y-110106536D02*
G01*
X47416288Y-110126312D01*
X47438932Y-110157858D01*
X47447385Y-110198764D01*
X47441485Y-110224109D01*
X47423759Y-110255408D01*
X47398987Y-110281708D01*
X47396747Y-110283234D01*
X47375062Y-110290713D01*
X47346499Y-110293920D01*
X47313970Y-110288480D01*
X47283233Y-110269212D01*
X47262597Y-110240147D01*
X47253122Y-110205628D01*
X47255868Y-110169997D01*
X47271895Y-110137596D01*
X47302263Y-110112767D01*
X47303893Y-110111941D01*
X47344699Y-110100942D01*
X47383520Y-110106536D01*
G37*
G36*
X46658721Y-109842315D02*
G01*
X46650677Y-109908748D01*
X46626095Y-109970908D01*
X46585084Y-110025576D01*
X46529755Y-110067561D01*
X46461176Y-110095811D01*
X46412576Y-110103978D01*
X46348472Y-110098345D01*
X46280634Y-110074317D01*
X46259894Y-110063263D01*
X46208410Y-110022020D01*
X46170628Y-109969365D01*
X46147819Y-109908281D01*
X46141252Y-109841751D01*
X46142920Y-109831241D01*
X46297799Y-109831241D01*
X46298045Y-109872506D01*
X46313538Y-109905828D01*
X46346528Y-109933255D01*
X46378825Y-109948369D01*
X46410820Y-109949925D01*
X46447788Y-109936547D01*
X46452182Y-109934270D01*
X46484101Y-109908008D01*
X46501010Y-109875095D01*
X46503954Y-109839428D01*
X46493979Y-109804903D01*
X46472129Y-109775418D01*
X46439450Y-109754869D01*
X46396988Y-109747154D01*
X46378698Y-109748260D01*
X46338663Y-109761619D01*
X46311405Y-109789526D01*
X46297799Y-109831241D01*
X46142920Y-109831241D01*
X46152199Y-109772756D01*
X46177822Y-109714614D01*
X46219439Y-109663376D01*
X46273367Y-109624375D01*
X46336887Y-109599552D01*
X46407277Y-109590846D01*
X46414744Y-109590958D01*
X46479914Y-109601892D01*
X46538023Y-109628791D01*
X46587015Y-109668968D01*
X46624833Y-109719739D01*
X46649420Y-109778417D01*
X46658301Y-109839428D01*
X46658721Y-109842315D01*
G37*
G36*
X47410472Y-109349832D02*
G01*
X47412608Y-109369837D01*
X47414456Y-109406665D01*
X47415973Y-109458597D01*
X47417112Y-109523914D01*
X47417828Y-109600898D01*
X47418077Y-109687829D01*
X47418077Y-110029043D01*
X47392337Y-110049291D01*
X47391658Y-110049820D01*
X47368824Y-110063764D01*
X47349693Y-110069538D01*
X47349242Y-110069531D01*
X47329824Y-110063415D01*
X47307049Y-110049291D01*
X47281308Y-110029043D01*
X47281308Y-109755291D01*
X47281308Y-109481538D01*
X47337481Y-109423193D01*
X47345907Y-109414377D01*
X47370853Y-109387447D01*
X47389007Y-109366590D01*
X47396911Y-109355732D01*
X47397656Y-109354067D01*
X47409122Y-109346615D01*
X47410472Y-109349832D01*
G37*
G36*
X47619748Y-108725545D02*
G01*
X47626145Y-108734615D01*
X47641177Y-108753186D01*
X47650449Y-108760678D01*
X47662153Y-108766067D01*
X47680976Y-108779002D01*
X47704528Y-108797108D01*
X47673937Y-108834958D01*
X47673242Y-108835817D01*
X47649976Y-108864471D01*
X47616706Y-108905281D01*
X47575745Y-108955422D01*
X47529403Y-109012072D01*
X47479992Y-109072406D01*
X47429823Y-109133600D01*
X47381207Y-109192830D01*
X47336457Y-109247273D01*
X47279111Y-109317028D01*
X47203354Y-109409356D01*
X47135005Y-109492870D01*
X47075758Y-109565500D01*
X47027308Y-109625175D01*
X47027305Y-109625179D01*
X46976636Y-109687415D01*
X46936030Y-109736088D01*
X46903546Y-109773055D01*
X46877243Y-109800170D01*
X46855181Y-109819287D01*
X46835421Y-109832261D01*
X46816020Y-109840949D01*
X46795040Y-109847203D01*
X46769985Y-109853116D01*
X46745394Y-109857862D01*
X46733807Y-109858635D01*
X46732023Y-109851346D01*
X46731902Y-109829328D01*
X46734020Y-109798204D01*
X46739542Y-109740452D01*
X46905845Y-109541091D01*
X46945266Y-109493729D01*
X46989833Y-109439927D01*
X47030246Y-109390873D01*
X47064406Y-109349124D01*
X47090213Y-109317237D01*
X47105570Y-109297769D01*
X47119580Y-109279912D01*
X47149943Y-109243335D01*
X47179485Y-109209846D01*
X47181790Y-109207301D01*
X47200080Y-109186032D01*
X47227998Y-109152543D01*
X47263456Y-109109421D01*
X47304368Y-109059252D01*
X47348648Y-109004622D01*
X47394209Y-108948118D01*
X47438966Y-108892325D01*
X47480831Y-108839829D01*
X47517719Y-108793217D01*
X47547544Y-108755074D01*
X47568218Y-108727987D01*
X47596022Y-108690629D01*
X47619748Y-108725545D01*
G37*
G36*
X42301276Y-108826005D02*
G01*
X42301907Y-108855686D01*
X42302807Y-108910192D01*
X42303733Y-108978342D01*
X42304644Y-109056753D01*
X42305502Y-109142046D01*
X42306270Y-109230838D01*
X42306908Y-109319750D01*
X42306931Y-109323428D01*
X42307284Y-109404758D01*
X42307317Y-109479495D01*
X42307048Y-109545481D01*
X42306501Y-109600558D01*
X42305696Y-109642570D01*
X42304653Y-109669360D01*
X42303395Y-109678769D01*
X42300596Y-109677484D01*
X42285325Y-109666846D01*
X42260522Y-109647774D01*
X42229912Y-109623090D01*
X42162231Y-109567411D01*
X42162231Y-109169776D01*
X42162231Y-108772142D01*
X42192244Y-108761679D01*
X42201543Y-108757837D01*
X42230728Y-108741724D01*
X42260095Y-108721248D01*
X42297933Y-108691280D01*
X42301276Y-108826005D01*
G37*
G36*
X41166312Y-109261211D02*
G01*
X41188658Y-109276540D01*
X41223065Y-109305974D01*
X41269781Y-109349728D01*
X41329055Y-109408022D01*
X41343127Y-109422106D01*
X41389327Y-109468701D01*
X41423703Y-109504317D01*
X41447974Y-109531071D01*
X41463858Y-109551078D01*
X41473074Y-109566453D01*
X41477344Y-109579311D01*
X41478385Y-109591770D01*
X41476877Y-109611059D01*
X41464053Y-109643603D01*
X41439308Y-109662220D01*
X41431530Y-109664882D01*
X41416648Y-109666899D01*
X41398999Y-109660986D01*
X41394864Y-109658641D01*
X41376272Y-109644213D01*
X41348215Y-109619701D01*
X41313346Y-109587691D01*
X41274319Y-109550770D01*
X41233786Y-109511522D01*
X41194402Y-109472536D01*
X41158818Y-109436396D01*
X41129688Y-109405688D01*
X41109666Y-109383000D01*
X41101404Y-109370916D01*
X41100938Y-109361480D01*
X41105968Y-109335448D01*
X41116904Y-109304973D01*
X41127909Y-109282662D01*
X41142574Y-109264097D01*
X41158551Y-109258692D01*
X41166312Y-109261211D01*
G37*
G36*
X47399991Y-108682347D02*
G01*
X47434067Y-108683167D01*
X47457932Y-108684829D01*
X47466923Y-108687048D01*
X47466674Y-108687652D01*
X47458492Y-108699051D01*
X47440112Y-108722712D01*
X47413391Y-108756294D01*
X47380189Y-108797458D01*
X47342366Y-108843861D01*
X47285394Y-108913544D01*
X47215692Y-108999045D01*
X47140738Y-109091197D01*
X47063473Y-109186376D01*
X46986838Y-109280954D01*
X46913774Y-109371306D01*
X46847220Y-109453804D01*
X46790119Y-109524824D01*
X46761983Y-109559628D01*
X46730319Y-109597499D01*
X46706776Y-109623315D01*
X46689226Y-109639170D01*
X46675540Y-109647161D01*
X46663590Y-109649382D01*
X46657722Y-109649229D01*
X46639746Y-109642755D01*
X46631164Y-109622596D01*
X46625636Y-109600932D01*
X46616916Y-109574590D01*
X46616723Y-109574096D01*
X46615155Y-109562870D01*
X46619683Y-109548444D01*
X46632018Y-109527958D01*
X46653868Y-109498550D01*
X46686942Y-109457359D01*
X46691724Y-109451501D01*
X46720622Y-109415963D01*
X46758873Y-109368757D01*
X46804107Y-109312817D01*
X46853954Y-109251076D01*
X46906044Y-109186467D01*
X46958006Y-109121923D01*
X46968493Y-109108888D01*
X47020909Y-109043775D01*
X47073130Y-108978964D01*
X47122748Y-108917439D01*
X47167353Y-108862186D01*
X47204537Y-108816192D01*
X47231891Y-108782442D01*
X47313239Y-108682307D01*
X47390081Y-108682307D01*
X47399991Y-108682347D01*
G37*
G36*
X45021776Y-108418541D02*
G01*
X45141632Y-108418627D01*
X45243708Y-108418854D01*
X45329410Y-108419256D01*
X45400143Y-108419864D01*
X45457312Y-108420712D01*
X45502324Y-108421832D01*
X45536582Y-108423257D01*
X45561493Y-108425020D01*
X45578462Y-108427154D01*
X45588894Y-108429692D01*
X45594194Y-108432666D01*
X45602047Y-108441447D01*
X45622913Y-108466667D01*
X45654927Y-108506496D01*
X45697669Y-108560400D01*
X45750721Y-108627848D01*
X45813665Y-108708305D01*
X45886081Y-108801239D01*
X45967550Y-108906116D01*
X46057654Y-109022405D01*
X46060728Y-109026374D01*
X46097637Y-109073692D01*
X46135507Y-109121713D01*
X46170055Y-109165034D01*
X46196999Y-109198251D01*
X46202475Y-109204919D01*
X46231894Y-109241274D01*
X46259452Y-109276095D01*
X46279812Y-109302654D01*
X46290967Y-109317174D01*
X46318811Y-109351175D01*
X46346749Y-109383061D01*
X46384678Y-109424391D01*
X46486967Y-109295137D01*
X46498130Y-109281013D01*
X46543508Y-109223324D01*
X46592193Y-109161078D01*
X46639024Y-109100888D01*
X46678839Y-109049365D01*
X46685521Y-109040695D01*
X46723776Y-108991675D01*
X46763000Y-108942302D01*
X46798941Y-108897890D01*
X46827350Y-108863750D01*
X46836252Y-108853260D01*
X46867830Y-108815378D01*
X46897434Y-108778976D01*
X46919645Y-108750692D01*
X46932265Y-108734317D01*
X46957087Y-108702586D01*
X46989182Y-108661871D01*
X47025786Y-108615681D01*
X47064133Y-108567519D01*
X47175253Y-108428307D01*
X47366189Y-108428307D01*
X47557125Y-108428307D01*
X47550377Y-108450288D01*
X47548546Y-108457123D01*
X47543053Y-108484862D01*
X47538338Y-108517500D01*
X47535489Y-108539059D01*
X47529523Y-108556251D01*
X47516135Y-108564160D01*
X47489743Y-108568666D01*
X47476390Y-108569938D01*
X47439962Y-108571213D01*
X47394486Y-108571008D01*
X47346777Y-108569293D01*
X47247116Y-108563984D01*
X47117618Y-108728165D01*
X47117225Y-108728664D01*
X47072562Y-108785348D01*
X47026268Y-108844203D01*
X46981780Y-108900853D01*
X46942534Y-108950923D01*
X46911964Y-108990038D01*
X46849802Y-109069731D01*
X46772261Y-109168948D01*
X46705347Y-109254286D01*
X46648304Y-109326678D01*
X46600375Y-109387057D01*
X46560801Y-109436357D01*
X46528827Y-109475511D01*
X46503696Y-109505453D01*
X46484650Y-109527117D01*
X46470932Y-109541435D01*
X46461787Y-109549341D01*
X46456455Y-109551769D01*
X46439528Y-109548882D01*
X46415090Y-109541667D01*
X46410907Y-109540299D01*
X46381953Y-109536980D01*
X46347690Y-109545413D01*
X46338716Y-109548617D01*
X46315358Y-109556639D01*
X46302955Y-109560399D01*
X46302332Y-109560440D01*
X46296010Y-109557144D01*
X46284994Y-109546655D01*
X46268119Y-109527561D01*
X46244223Y-109498448D01*
X46212142Y-109457906D01*
X46170712Y-109404521D01*
X46118769Y-109336883D01*
X46098073Y-109309854D01*
X46039757Y-109233870D01*
X45988793Y-109167808D01*
X45941831Y-109107368D01*
X45895520Y-109048248D01*
X45846508Y-108986149D01*
X45791446Y-108916769D01*
X45790014Y-108914967D01*
X45748256Y-108862039D01*
X45700711Y-108801175D01*
X45653121Y-108739755D01*
X45611231Y-108685161D01*
X45598023Y-108667858D01*
X45566311Y-108626945D01*
X45542813Y-108598446D01*
X45524976Y-108579923D01*
X45510243Y-108568938D01*
X45496057Y-108563053D01*
X45479865Y-108559828D01*
X45479055Y-108559719D01*
X45459739Y-108558632D01*
X45423145Y-108557806D01*
X45371349Y-108557246D01*
X45306424Y-108556956D01*
X45230447Y-108556942D01*
X45145492Y-108557208D01*
X45053634Y-108557759D01*
X44956948Y-108558601D01*
X44944659Y-108558721D01*
X44849371Y-108559476D01*
X44759826Y-108559874D01*
X44677994Y-108559927D01*
X44605847Y-108559648D01*
X44545353Y-108559049D01*
X44498485Y-108558142D01*
X44467212Y-108556941D01*
X44453506Y-108555456D01*
X44447900Y-108552649D01*
X44432846Y-108534479D01*
X44421509Y-108500099D01*
X44417819Y-108484739D01*
X44409988Y-108455067D01*
X44403910Y-108435634D01*
X44403301Y-108433011D01*
X44404687Y-108429860D01*
X44409942Y-108427201D01*
X44420490Y-108424993D01*
X44437757Y-108423194D01*
X44463166Y-108421762D01*
X44498143Y-108420657D01*
X44544111Y-108419836D01*
X44602494Y-108419258D01*
X44674719Y-108418880D01*
X44762208Y-108418663D01*
X44866387Y-108418562D01*
X44988680Y-108418538D01*
X45021776Y-108418541D01*
G37*
G36*
X41905291Y-108712440D02*
G01*
X41920000Y-108720825D01*
X41942314Y-108735333D01*
X41948707Y-108739476D01*
X41979171Y-108755642D01*
X42006248Y-108765417D01*
X42035231Y-108771783D01*
X42037207Y-109100718D01*
X42037537Y-109152637D01*
X42038100Y-109230472D01*
X42038698Y-109302137D01*
X42039305Y-109364957D01*
X42039894Y-109416259D01*
X42040438Y-109453369D01*
X42040912Y-109473615D01*
X42041218Y-109486019D01*
X42040555Y-109511484D01*
X42038253Y-109525075D01*
X42037627Y-109525986D01*
X42033221Y-109527426D01*
X42024265Y-109523276D01*
X42008198Y-109511741D01*
X41982462Y-109491025D01*
X41944497Y-109459335D01*
X41898462Y-109420631D01*
X41898462Y-109066123D01*
X41898580Y-108985144D01*
X41898916Y-108910612D01*
X41899443Y-108844763D01*
X41900133Y-108789768D01*
X41900959Y-108747797D01*
X41901895Y-108721022D01*
X41902913Y-108711615D01*
X41905291Y-108712440D01*
G37*
G36*
X40876501Y-108935230D02*
G01*
X41109733Y-109168614D01*
X41103175Y-109203570D01*
X41102641Y-109206233D01*
X41093607Y-109233890D01*
X41081649Y-109253493D01*
X41072859Y-109261461D01*
X41062717Y-109267253D01*
X41051091Y-109268583D01*
X41036612Y-109264411D01*
X41017912Y-109253694D01*
X40993625Y-109235390D01*
X40962383Y-109208457D01*
X40922818Y-109171854D01*
X40873562Y-109124539D01*
X40813248Y-109065469D01*
X40740508Y-108993603D01*
X40719313Y-108972581D01*
X40660324Y-108913638D01*
X40606627Y-108859348D01*
X40559666Y-108811215D01*
X40520887Y-108770740D01*
X40491734Y-108739427D01*
X40473651Y-108718778D01*
X40468085Y-108710295D01*
X40470647Y-108708682D01*
X40488671Y-108705184D01*
X40519486Y-108702755D01*
X40558288Y-108701846D01*
X40643268Y-108701846D01*
X40876501Y-108935230D01*
G37*
G36*
X40242302Y-108519078D02*
G01*
X40241209Y-108558966D01*
X40236753Y-108588586D01*
X40227079Y-108615913D01*
X40210337Y-108648924D01*
X40194363Y-108675100D01*
X40147648Y-108729314D01*
X40091311Y-108770701D01*
X40029449Y-108795931D01*
X39974961Y-108804826D01*
X39903674Y-108801662D01*
X39837458Y-108782698D01*
X39778364Y-108749880D01*
X39728441Y-108705156D01*
X39689738Y-108650474D01*
X39664305Y-108587783D01*
X39655713Y-108529379D01*
X39822563Y-108529379D01*
X39833898Y-108568687D01*
X39857278Y-108601838D01*
X39892599Y-108624344D01*
X39926619Y-108633869D01*
X39976080Y-108634560D01*
X40018556Y-108618884D01*
X40051478Y-108588002D01*
X40072279Y-108543075D01*
X40077258Y-108516792D01*
X40074408Y-108492823D01*
X40061968Y-108462751D01*
X40058359Y-108455715D01*
X40027897Y-108417267D01*
X39988217Y-108395561D01*
X39940875Y-108391117D01*
X39887425Y-108404454D01*
X39861890Y-108419413D01*
X39836454Y-108450252D01*
X39823380Y-108488404D01*
X39822563Y-108529379D01*
X39655713Y-108529379D01*
X39654191Y-108519030D01*
X39661445Y-108446163D01*
X39664549Y-108433673D01*
X39691569Y-108369094D01*
X39732932Y-108314646D01*
X39785866Y-108271743D01*
X39847599Y-108241799D01*
X39915359Y-108226230D01*
X39986375Y-108226449D01*
X40057873Y-108243872D01*
X40115036Y-108272312D01*
X40169763Y-108318919D01*
X40213586Y-108381380D01*
X40227730Y-108409522D01*
X40236820Y-108436759D01*
X40241108Y-108468144D01*
X40242289Y-108511346D01*
X40242298Y-108516792D01*
X40242302Y-108519078D01*
G37*
G36*
X48177608Y-108546203D02*
G01*
X48160307Y-108612073D01*
X48127495Y-108672431D01*
X48080059Y-108724339D01*
X48018885Y-108764861D01*
X47995302Y-108775543D01*
X47966762Y-108784054D01*
X47933042Y-108788201D01*
X47887000Y-108789306D01*
X47883583Y-108789305D01*
X47840027Y-108788272D01*
X47808164Y-108784322D01*
X47780673Y-108775979D01*
X47750231Y-108761770D01*
X47734119Y-108752768D01*
X47680853Y-108710017D01*
X47640803Y-108656246D01*
X47614642Y-108594710D01*
X47603040Y-108528658D01*
X47604131Y-108508418D01*
X47769806Y-108508418D01*
X47771412Y-108524363D01*
X47783129Y-108559669D01*
X47802576Y-108591623D01*
X47825420Y-108612143D01*
X47860456Y-108625050D01*
X47906178Y-108627087D01*
X47947977Y-108613930D01*
X47982268Y-108587637D01*
X48005470Y-108550263D01*
X48014000Y-108503867D01*
X48013992Y-108501929D01*
X48010858Y-108475744D01*
X47999478Y-108453370D01*
X47976073Y-108427158D01*
X47971501Y-108422636D01*
X47946815Y-108401541D01*
X47924755Y-108391674D01*
X47897434Y-108389230D01*
X47888606Y-108389444D01*
X47839699Y-108399821D01*
X47802214Y-108424402D01*
X47778224Y-108461246D01*
X47769806Y-108508418D01*
X47604131Y-108508418D01*
X47606670Y-108461343D01*
X47626202Y-108396016D01*
X47662308Y-108335929D01*
X47664632Y-108333034D01*
X47716535Y-108284541D01*
X47781167Y-108250605D01*
X47857841Y-108231594D01*
X47900639Y-108228343D01*
X47973240Y-108236488D01*
X48038217Y-108262194D01*
X48094215Y-108304825D01*
X48139877Y-108363745D01*
X48162135Y-108409675D01*
X48178512Y-108477758D01*
X48178167Y-108503867D01*
X48177608Y-108546203D01*
G37*
G36*
X44350484Y-108495601D02*
G01*
X44349456Y-108527576D01*
X44345867Y-108566564D01*
X44340599Y-108595583D01*
X44322888Y-108634859D01*
X44288752Y-108678887D01*
X44243951Y-108718874D01*
X44193021Y-108750847D01*
X44140500Y-108770833D01*
X44068732Y-108779828D01*
X43999377Y-108771694D01*
X43936528Y-108747615D01*
X43882469Y-108709222D01*
X43839481Y-108658148D01*
X43809848Y-108596023D01*
X43795851Y-108524480D01*
X43794196Y-108487664D01*
X43956264Y-108487664D01*
X43957281Y-108530053D01*
X43972959Y-108569210D01*
X44000983Y-108598367D01*
X44034129Y-108613977D01*
X44075492Y-108618978D01*
X44114570Y-108610443D01*
X44148493Y-108590812D01*
X44174391Y-108562527D01*
X44189392Y-108528030D01*
X44190628Y-108489761D01*
X44175227Y-108450162D01*
X44165367Y-108436433D01*
X44131319Y-108407732D01*
X44091563Y-108393787D01*
X44050278Y-108394106D01*
X44011645Y-108408195D01*
X43979842Y-108435559D01*
X43959049Y-108475705D01*
X43956264Y-108487664D01*
X43794196Y-108487664D01*
X43794166Y-108487007D01*
X43796759Y-108458368D01*
X43805472Y-108430475D01*
X43822094Y-108394475D01*
X43834241Y-108371819D01*
X43879024Y-108312141D01*
X43933908Y-108268614D01*
X43997780Y-108241967D01*
X44069530Y-108232923D01*
X44086584Y-108233346D01*
X44159094Y-108245330D01*
X44222811Y-108272450D01*
X44275770Y-108312872D01*
X44316010Y-108364762D01*
X44341569Y-108426283D01*
X44349733Y-108489761D01*
X44350484Y-108495601D01*
G37*
G36*
X42294364Y-108573439D02*
G01*
X42264312Y-108625301D01*
X42220114Y-108668132D01*
X42163112Y-108698820D01*
X42120802Y-108708129D01*
X42065605Y-108708131D01*
X42010084Y-108697856D01*
X41962294Y-108678134D01*
X41934605Y-108658644D01*
X41894769Y-108613855D01*
X41869351Y-108560165D01*
X41859264Y-108501240D01*
X41861154Y-108482665D01*
X41991419Y-108482665D01*
X41993521Y-108517034D01*
X42013370Y-108547386D01*
X42050331Y-108570777D01*
X42070563Y-108578937D01*
X42089554Y-108583326D01*
X42106202Y-108579112D01*
X42129609Y-108565714D01*
X42153775Y-108546292D01*
X42168858Y-108516049D01*
X42167094Y-108477053D01*
X42166683Y-108475279D01*
X42149978Y-108442278D01*
X42121733Y-108419875D01*
X42087226Y-108409680D01*
X42051733Y-108413302D01*
X42020530Y-108432351D01*
X42007696Y-108447218D01*
X41991419Y-108482665D01*
X41861154Y-108482665D01*
X41865419Y-108440746D01*
X41888728Y-108382348D01*
X41898925Y-108366183D01*
X41940430Y-108321305D01*
X41990559Y-108290933D01*
X42046061Y-108274894D01*
X42103690Y-108273017D01*
X42160195Y-108285127D01*
X42212330Y-108311054D01*
X42256844Y-108350625D01*
X42290491Y-108403667D01*
X42306657Y-108455062D01*
X42308926Y-108515655D01*
X42308827Y-108516049D01*
X42294364Y-108573439D01*
G37*
G36*
X43241042Y-108423441D02*
G01*
X43351131Y-108423555D01*
X43444000Y-108423806D01*
X43521053Y-108424229D01*
X43583694Y-108424859D01*
X43633324Y-108425733D01*
X43671347Y-108426885D01*
X43699167Y-108428352D01*
X43718187Y-108430169D01*
X43729809Y-108432372D01*
X43735437Y-108434996D01*
X43736474Y-108438077D01*
X43735825Y-108441082D01*
X43732186Y-108462985D01*
X43728343Y-108491807D01*
X43727457Y-108498948D01*
X43723453Y-108525996D01*
X43719926Y-108543096D01*
X43716040Y-108545535D01*
X43703720Y-108547872D01*
X43681780Y-108549833D01*
X43648979Y-108551446D01*
X43604079Y-108552738D01*
X43545839Y-108553734D01*
X43473020Y-108554463D01*
X43384382Y-108554950D01*
X43278686Y-108555222D01*
X43154691Y-108555307D01*
X43071933Y-108555225D01*
X42973656Y-108554905D01*
X42882706Y-108554364D01*
X42800829Y-108553626D01*
X42729769Y-108552713D01*
X42671270Y-108551650D01*
X42627076Y-108550459D01*
X42598932Y-108549163D01*
X42588582Y-108547785D01*
X42586264Y-108538511D01*
X42583400Y-108514268D01*
X42581227Y-108481843D01*
X42578520Y-108423423D01*
X43159241Y-108423423D01*
X43241042Y-108423441D01*
G37*
%TO.C,SW3*%
D13*
X117470280Y-97935000D02*
G75*
G02*
X111470280Y-97935000I-3000000J0D01*
G01*
X111470280Y-97935000D02*
G75*
G02*
X117470280Y-97935000I3000000J0D01*
G01*
X120770280Y-104635000D02*
X118270280Y-104635000D01*
X120770280Y-99835000D02*
X120770280Y-104635000D01*
X120770280Y-96135000D02*
X120770280Y-91235000D01*
X120770280Y-91235000D02*
X108170280Y-91235000D01*
X118570280Y-105735000D02*
X118570280Y-105135000D01*
X118570280Y-105135000D02*
X118270280Y-105435000D01*
X118270280Y-105435000D02*
X118570280Y-105735000D01*
X114970280Y-97935000D02*
X113970280Y-97935000D01*
X114470280Y-98435000D02*
X114470280Y-97435000D01*
X108170280Y-104635000D02*
X110970280Y-104635000D01*
X108170280Y-99735000D02*
X108170280Y-104635000D01*
X108170280Y-91235000D02*
X108170280Y-96135000D01*
%TO.C,SW2*%
X129672640Y-91235000D02*
X129672640Y-96135000D01*
X129672640Y-99735000D02*
X129672640Y-104635000D01*
X129672640Y-104635000D02*
X132472640Y-104635000D01*
X135972640Y-98435000D02*
X135972640Y-97435000D01*
X136472640Y-97935000D02*
X135472640Y-97935000D01*
X139772640Y-105435000D02*
X140072640Y-105735000D01*
X140072640Y-105135000D02*
X139772640Y-105435000D01*
X140072640Y-105735000D02*
X140072640Y-105135000D01*
X142272640Y-91235000D02*
X129672640Y-91235000D01*
X142272640Y-96135000D02*
X142272640Y-91235000D01*
X142272640Y-99835000D02*
X142272640Y-104635000D01*
X142272640Y-104635000D02*
X139772640Y-104635000D01*
X138972640Y-97935000D02*
G75*
G02*
X132972640Y-97935000I-3000000J0D01*
G01*
X132972640Y-97935000D02*
G75*
G02*
X138972640Y-97935000I3000000J0D01*
G01*
%TO.C,D3*%
X43097000Y-97402000D02*
X44567000Y-97402000D01*
X43097000Y-99687000D02*
X43097000Y-97402000D01*
X44567000Y-97402000D02*
X44567000Y-99687000D01*
%TO.C,SW4*%
X86517920Y-91235000D02*
X86517920Y-96135000D01*
X86517920Y-99735000D02*
X86517920Y-104635000D01*
X86517920Y-104635000D02*
X89317920Y-104635000D01*
X92817920Y-98435000D02*
X92817920Y-97435000D01*
X93317920Y-97935000D02*
X92317920Y-97935000D01*
X96617920Y-105435000D02*
X96917920Y-105735000D01*
X96917920Y-105135000D02*
X96617920Y-105435000D01*
X96917920Y-105735000D02*
X96917920Y-105135000D01*
X99117920Y-91235000D02*
X86517920Y-91235000D01*
X99117920Y-96135000D02*
X99117920Y-91235000D01*
X99117920Y-99835000D02*
X99117920Y-104635000D01*
X99117920Y-104635000D02*
X96617920Y-104635000D01*
X95817920Y-97935000D02*
G75*
G02*
X89817920Y-97935000I-3000000J0D01*
G01*
X89817920Y-97935000D02*
G75*
G02*
X95817920Y-97935000I3000000J0D01*
G01*
%TO.C,J1*%
X118560000Y-74202500D02*
X118560000Y-74452500D01*
X118560000Y-76752500D02*
X118560000Y-78602500D01*
X118560000Y-78602500D02*
X119010000Y-78602500D01*
X120760000Y-79152500D02*
X120760000Y-78702500D01*
X120760000Y-79152500D02*
X121210000Y-79152500D01*
X126360000Y-74202500D02*
X126360000Y-74452500D01*
X126360000Y-76752500D02*
X126360000Y-78602500D01*
X126360000Y-78602500D02*
X125910000Y-78602500D01*
%TO.C,J6*%
X213270000Y-84140000D02*
X215930000Y-84140000D01*
X213270000Y-94360000D02*
X213270000Y-84140000D01*
X213270000Y-94360000D02*
X215930000Y-94360000D01*
X213270000Y-95630000D02*
X213270000Y-96960000D01*
X213270000Y-96960000D02*
X214600000Y-96960000D01*
X215930000Y-94360000D02*
X215930000Y-84140000D01*
%TO.C,D4*%
X151840000Y-90247500D02*
X151840000Y-87562500D01*
X153760000Y-87562500D02*
X153760000Y-90247500D01*
X153760000Y-90247500D02*
X151840000Y-90247500D01*
%TO.C,D5*%
X189240000Y-86815000D02*
X191160000Y-86815000D01*
X189240000Y-89500000D02*
X189240000Y-86815000D01*
X191160000Y-86815000D02*
X191160000Y-89500000D01*
%TO.C,D7*%
X151740000Y-103385000D02*
X151740000Y-100700000D01*
X153660000Y-100700000D02*
X153660000Y-103385000D01*
X153660000Y-103385000D02*
X151740000Y-103385000D01*
%TO.C,D6*%
X189140000Y-100015000D02*
X191060000Y-100015000D01*
X189140000Y-102700000D02*
X189140000Y-100015000D01*
X191060000Y-100015000D02*
X191060000Y-102700000D01*
%TO.C,U5*%
D11*
X151450000Y-75600000D02*
X151450000Y-110350000D01*
X151450000Y-86600000D02*
X153950000Y-86600000D01*
X151450000Y-99600000D02*
X153950000Y-99600000D01*
X151450000Y-110350000D02*
X191450000Y-110350000D01*
X153950000Y-86600000D02*
X153950000Y-90600000D01*
X153950000Y-90600000D02*
X151450000Y-90600000D01*
X153950000Y-99600000D02*
X153950000Y-103600000D01*
X153950000Y-103600000D02*
X151450000Y-103600000D01*
X188950000Y-86600000D02*
X188950000Y-90600000D01*
X188950000Y-90600000D02*
X191450000Y-90600000D01*
X188950000Y-99600000D02*
X188950000Y-103600000D01*
X188950000Y-103600000D02*
X191450000Y-103600000D01*
X191450000Y-75600000D02*
X151450000Y-75600000D01*
X191450000Y-75600000D02*
X191450000Y-110350000D01*
X191450000Y-86600000D02*
X188950000Y-86600000D01*
X191450000Y-99600000D02*
X188950000Y-99600000D01*
%TO.C,SW8*%
D13*
X64865560Y-91235000D02*
X64865560Y-96135000D01*
X64865560Y-99735000D02*
X64865560Y-104635000D01*
X64865560Y-104635000D02*
X67665560Y-104635000D01*
X71165560Y-98435000D02*
X71165560Y-97435000D01*
X71665560Y-97935000D02*
X70665560Y-97935000D01*
X74965560Y-105435000D02*
X75265560Y-105735000D01*
X75265560Y-105135000D02*
X74965560Y-105435000D01*
X75265560Y-105735000D02*
X75265560Y-105135000D01*
X77465560Y-91235000D02*
X64865560Y-91235000D01*
X77465560Y-96135000D02*
X77465560Y-91235000D01*
X77465560Y-99835000D02*
X77465560Y-104635000D01*
X77465560Y-104635000D02*
X74965560Y-104635000D01*
X74165560Y-97935000D02*
G75*
G02*
X68165560Y-97935000I-3000000J0D01*
G01*
X68165560Y-97935000D02*
G75*
G02*
X74165560Y-97935000I3000000J0D01*
G01*
%TO.C,SW7*%
X44750000Y-83500000D02*
X44750000Y-82000000D01*
X46000000Y-79500000D02*
X50500000Y-79500000D01*
X50500000Y-86000000D02*
X46000000Y-86000000D01*
X51750000Y-82000000D02*
X51750000Y-83500000D01*
%TO.C,SW9*%
D14*
X132134999Y-74105000D02*
X132135000Y-74480000D01*
X132134999Y-77155000D02*
X132485000Y-77155000D01*
X132135000Y-76780000D02*
X132134999Y-77155000D01*
X132535000Y-74105000D02*
X132134999Y-74105000D01*
X138260000Y-77230000D02*
X138260000Y-77830000D01*
X138709999Y-74105000D02*
X139185001Y-74105000D01*
X138860000Y-77230000D02*
X138260000Y-77230000D01*
X139185001Y-74105000D02*
X139185000Y-74504999D01*
X139210000Y-76855000D02*
X138860000Y-77230000D01*
%TO.C,SW1*%
D13*
X198825000Y-88025000D02*
X198825000Y-92125000D01*
X198825000Y-96125000D02*
X198825000Y-100225000D01*
X201225000Y-88025000D02*
X198825000Y-88025000D01*
X204725000Y-94625000D02*
X204725000Y-93625000D01*
X205225000Y-94125000D02*
X204225000Y-94125000D01*
X206025000Y-88025000D02*
X203425000Y-88025000D01*
X208525000Y-101625000D02*
X208825000Y-101925000D01*
X208825000Y-101325000D02*
X208525000Y-101625000D01*
X208825000Y-101925000D02*
X208825000Y-101325000D01*
X210625000Y-88025000D02*
X208225000Y-88025000D01*
X210625000Y-92125000D02*
X210625000Y-88025000D01*
X210625000Y-96125000D02*
X210625000Y-100225000D01*
X210625000Y-100225000D02*
X198825000Y-100225000D01*
X207725000Y-94125000D02*
G75*
G02*
X201725000Y-94125000I-3000000J0D01*
G01*
X201725000Y-94125000D02*
G75*
G02*
X207725000Y-94125000I3000000J0D01*
G01*
%TO.C,D8*%
X203700000Y-79415000D02*
X206385000Y-79415000D01*
X206385000Y-79415000D02*
X206385000Y-81335000D01*
X206385000Y-81335000D02*
X203700000Y-81335000D01*
%TD*%
D15*
%TO.C,U5*%
X191700000Y-99350000D03*
X191700000Y-98850000D03*
D16*
X191700000Y-98100000D03*
D15*
X191700000Y-97600000D03*
X191700000Y-96850000D03*
X191700000Y-79350000D03*
X191700000Y-78850000D03*
D16*
X191700000Y-78100000D03*
D15*
X191700000Y-77350000D03*
X191700000Y-76850000D03*
X151200000Y-99350000D03*
X151200000Y-98600000D03*
D16*
X151200000Y-98100000D03*
D15*
X151200000Y-97350000D03*
X151200000Y-96850000D03*
X151200000Y-79350000D03*
X151200000Y-78600000D03*
D16*
X151200000Y-78100000D03*
D15*
X151200000Y-77350000D03*
X151200000Y-76850000D03*
%TD*%
M02*
