M48
; DRILL file KiCad 10.0.3 date 2026-06-12T15:31:12
; FORMAT={-:-/ absolute / metric / decimal}
; #@! TF.CreationDate,2026-06-12T15:31:12+05:30
; #@! TF.GenerationSoftware,Kicad,Pcbnew,10.0.3
; #@! TF.FileFunction,Plated,1,4,PTH
FMAT,2
METRIC
; #@! TA.AperFunction,Plated,PTH,ViaDrill
T1C0.300
; #@! TA.AperFunction,Plated,PTH,ViaDrill
T2C0.400
; #@! TA.AperFunction,Plated,PTH,ComponentDrill
T3C0.400
; #@! TA.AperFunction,Plated,PTH,ComponentDrill
T4C0.600
; #@! TA.AperFunction,Plated,PTH,ComponentDrill
T5C0.850
; #@! TA.AperFunction,Plated,PTH,ComponentDrill
T6C1.000
; #@! TA.AperFunction,Plated,PTH,ComponentDrill
T7C1.100
; #@! TA.AperFunction,Plated,PTH,ComponentDrill
T8C1.200
; #@! TA.AperFunction,Plated,PTH,ComponentDrill
T9C1.500
; #@! TA.AperFunction,Plated,PTH,ComponentDrill
T10C2.000
; #@! TA.AperFunction,Plated,PTH,ComponentDrill
T11C2.200
%
G90
G05
T1
X35.875Y-101.5
X38.1Y-104.648
X42.57Y-99.7
X43.75Y-96.81
X47.5Y-103.85
X53.6Y-100.88
X56.23Y-98.54
X56.91Y-94.92
X58.55Y-95.02
X60.91Y-97.55
X64.01Y-105.72
X66.4Y-102.3
X66.45Y-82.53
X72.23Y-92.4
X73.45Y-91.03
X73.93Y-82.15
X75.4Y-107.6
X79.25Y-107.225
X81.125Y-103.575
X83.566Y-85.598
X83.61Y-88.1
X84.91Y-91.61
X85.04Y-105.07
X93.19Y-91.61
X93.55Y-79.64
X97.15Y-107.53
X101.77Y-81.81
X102.13Y-89.77
X102.6Y-108.525
X102.85Y-106.64
X103.48Y-78.33
X103.67Y-91.08
X103.78Y-92.19
X104.24Y-83.93
X104.62Y-87.28
X105.38Y-82.99
X106.55Y-80.19
X106.8Y-104.89
X107.188Y-87.884
X107.395Y-88.853
X107.997Y-89.455
X108.35Y-81.46
X110.744Y-85.09
X112.522Y-81.026
X117.41Y-83.65
X117.42Y-84.63
X117.43Y-86.61
X117.44Y-85.65
X117.5Y-107.535
X122.716Y-82.784
X123.19Y-80.772
X123.284Y-82.216
X126.31Y-80.79
X128.5Y-104.95
X129.534Y-77.734
X129.7Y-82.7
X131.616Y-78.552
X132.184Y-79.12
X135.0Y-83.0
X135.0Y-84.1
X136.4Y-78.7
X137.09Y-79.96
X138.97Y-85.11
X140.2Y-103.1
X140.35Y-107.325
X140.859Y-76.45
X146.4Y-99.6
X146.8Y-86.4
X147.574Y-101.6
X149.1Y-88.9
X149.1Y-90.3
X149.9Y-94.5
X150.01Y-86.3
X150.3Y-102.3
X150.4Y-100.8
X153.8Y-90.25
X154.2Y-98.3
X154.224Y-95.792
X154.271Y-93.925
X154.309Y-97.241
X154.6Y-101.6
X154.65Y-78.0
X154.85Y-89.4
X155.4Y-82.7
X156.0Y-101.4
X157.31Y-85.25
X157.91Y-85.88
X158.6Y-100.8
X158.868Y-82.679
X159.35Y-102.25
X159.9Y-82.6
X160.175Y-83.8
X160.8Y-108.2
X161.2Y-88.6
X161.6Y-79.7
X161.95Y-104.6
X162.15Y-82.6
X162.5Y-108.3
X162.8Y-105.85
X163.05Y-80.15
X164.2Y-76.0
X164.95Y-78.9
X165.3Y-108.845
X165.487Y-76.926
X165.75Y-77.9
X166.2Y-108.1
X166.216Y-84.984
X166.6Y-76.0
X166.784Y-84.416
X168.5Y-76.0
X169.5Y-80.1
X170.45Y-80.15
X170.5Y-107.4
X171.4Y-80.15
X171.5Y-108.3
X172.895Y-80.995
X173.0Y-106.1
X174.65Y-75.6
X176.2Y-75.475
X176.65Y-109.2
X176.95Y-76.2
X177.6Y-94.9
X177.8Y-88.2
X177.86Y-76.31
X178.05Y-85.3
X178.2Y-106.95
X178.25Y-109.7
X179.464Y-87.529
X179.6Y-105.35
X179.7Y-80.6
X180.43Y-79.28
X180.45Y-96.9
X181.16Y-75.95
X181.729Y-82.925
X182.15Y-103.1
X182.734Y-79.732
X183.25Y-84.595
X183.95Y-102.05
X184.833Y-85.1
X184.89Y-76.76
X185.3Y-93.3
X185.763Y-91.953
X186.05Y-100.6
X187.8Y-88.8
X188.0Y-98.35
X188.468Y-99.822
X188.85Y-96.5
X189.4Y-90.5
X190.1Y-87.5
X190.5Y-103.8
X192.8Y-88.0
X193.294Y-75.946
X193.802Y-86.614
X194.564Y-85.598
X199.644Y-87.884
X200.152Y-80.518
X200.152Y-82.985
X202.525Y-105.85
X203.575Y-89.675
X203.6Y-81.725
X206.775Y-80.375
X207.35Y-89.95
X207.725Y-105.85
X214.3Y-105.6
T2
X147.214Y-80.52
T3
X34.725Y-76.625
X34.725Y-76.625
X34.725Y-108.95
X35.208Y-75.458
X35.208Y-75.458
X35.208Y-77.792
X35.208Y-77.792
X35.208Y-107.783
X35.208Y-110.117
X36.375Y-74.975
X36.375Y-74.975
X36.375Y-78.275
X36.375Y-78.275
X36.375Y-107.3
X36.375Y-110.6
X37.542Y-75.458
X37.542Y-75.458
X37.542Y-77.792
X37.542Y-77.792
X37.542Y-107.783
X37.542Y-110.117
X38.025Y-76.625
X38.025Y-76.625
X38.025Y-108.95
X213.325Y-76.65
X213.325Y-108.95
X213.808Y-75.483
X213.808Y-77.817
X213.808Y-107.783
X213.808Y-110.117
X214.975Y-75.0
X214.975Y-78.3
X214.975Y-107.3
X214.975Y-110.6
X216.142Y-75.483
X216.142Y-77.817
X216.142Y-107.783
X216.142Y-110.117
X216.625Y-76.65
X216.625Y-108.95
T5
X119.96Y-78.302
X124.96Y-78.302
T6
X68.666Y-105.435
X71.166Y-105.435
X73.666Y-105.435
X90.318Y-105.435
X92.818Y-105.435
X95.318Y-105.435
X111.97Y-105.435
X114.47Y-105.435
X116.97Y-105.435
X133.473Y-105.435
X135.973Y-105.435
X138.473Y-105.435
X202.225Y-87.125
X202.225Y-101.625
X204.725Y-101.625
X207.225Y-87.125
X207.225Y-101.625
X214.6Y-85.47
X214.6Y-88.01
X214.6Y-90.55
X214.6Y-93.09
X214.6Y-95.63
T7
X45.0Y-80.5
X45.0Y-85.0
X51.5Y-80.5
X51.5Y-85.0
T8
X51.512Y-103.052
X54.262Y-98.922
X70.03Y-78.87
X70.03Y-84.97
X79.806Y-78.87
X79.806Y-84.97
X89.582Y-78.87
X89.582Y-84.97
X99.358Y-78.87
X99.358Y-84.97
T10
X154.2Y-108.1
X188.7Y-81.6
T11
X36.375Y-76.625
X36.375Y-76.625
X36.375Y-108.95
X65.566Y-97.935
X76.766Y-97.935
X214.975Y-76.65
X214.975Y-108.95
T4
G00X67.633Y-81.147
M15
G01X67.633Y-80.547
M16
G05
G00X72.43Y-79.214
M15
G01X72.43Y-78.614
M16
G05
G00X72.43Y-86.27
M15
G01X72.43Y-85.67
M16
G05
G00X77.409Y-81.147
M15
G01X77.409Y-80.547
M16
G05
G00X82.206Y-79.214
M15
G01X82.206Y-78.614
M16
G05
G00X82.206Y-86.27
M15
G01X82.206Y-85.67
M16
G05
G00X87.185Y-81.147
M15
G01X87.185Y-80.547
M16
G05
G00X91.982Y-79.214
M15
G01X91.982Y-78.614
M16
G05
G00X91.982Y-86.27
M15
G01X91.982Y-85.67
M16
G05
G00X96.96Y-81.147
M15
G01X96.96Y-80.547
M16
G05
G00X101.757Y-79.214
M15
G01X101.757Y-78.614
M16
G05
G00X101.757Y-86.27
M15
G01X101.757Y-85.67
M16
G05
G00X118.96Y-75.953
M15
G01X118.96Y-75.252
M16
G05
G00X125.96Y-75.252
M15
G01X125.96Y-75.953
M16
G05
T9
G00X199.125Y-94.775
M15
G01X199.125Y-93.475
M16
G05
G00X210.325Y-94.775
M15
G01X210.325Y-93.475
M16
G05
T10
G00X87.218Y-98.185
M15
G01X87.218Y-97.685
M16
G05
G00X98.418Y-98.185
M15
G01X98.418Y-97.685
M16
G05
G00X108.87Y-98.185
M15
G01X108.87Y-97.685
M16
G05
G00X120.07Y-98.185
M15
G01X120.07Y-97.685
M16
G05
G00X130.373Y-98.185
M15
G01X130.373Y-97.685
M16
G05
G00X141.573Y-98.185
M15
G01X141.573Y-97.685
M16
G05
M30
