%TF.GenerationSoftware,KiCad,Pcbnew,10.0.3*%
%TF.CreationDate,2026-06-12T15:31:09+05:30*%
%TF.ProjectId,ForceSync H7,466f7263-6553-4796-9e63-2048372e6b69,rev?*%
%TF.SameCoordinates,Original*%
%TF.FileFunction,Soldermask,Bot*%
%TF.FilePolarity,Negative*%
%FSLAX46Y46*%
G04 Gerber Fmt 4.6, Leading zero omitted, Abs format (unit mm)*
G04 Created by KiCad (PCBNEW 10.0.3) date 2026-06-12 15:31:09*
%MOMM*%
%LPD*%
G01*
G04 APERTURE LIST*
G04 Aperture macros list*
%AMRoundRect*
0 Rectangle with rounded corners*
0 $1 Rounding radius*
0 $2 $3 $4 $5 $6 $7 $8 $9 X,Y pos of 4 corners*
0 Add a 4 corners polygon primitive as box body*
4,1,4,$2,$3,$4,$5,$6,$7,$8,$9,$2,$3,0*
0 Add four circle primitives for the rounded corners*
1,1,$1+$1,$2,$3*
1,1,$1+$1,$4,$5*
1,1,$1+$1,$6,$7*
1,1,$1+$1,$8,$9*
0 Add four rect primitives between the rounded corners*
20,1,$1+$1,$2,$3,$4,$5,0*
20,1,$1+$1,$4,$5,$6,$7,0*
20,1,$1+$1,$6,$7,$8,$9,0*
20,1,$1+$1,$8,$9,$2,$3,0*%
G04 Aperture macros list end*
%ADD10C,0.700000*%
%ADD11C,4.400000*%
%ADD12R,2.500000X3.000000*%
%ADD13C,2.000000*%
%ADD14R,2.000000X2.000000*%
%ADD15C,2.300000*%
%ADD16C,6.250000*%
%ADD17RoundRect,0.218750X-0.256250X0.218750X-0.256250X-0.218750X0.256250X-0.218750X0.256250X0.218750X0*%
%ADD18C,1.800000*%
%ADD19O,0.900000X1.800000*%
%ADD20R,0.400000X1.350000*%
%ADD21O,1.200000X1.900000*%
%ADD22R,1.200000X1.900000*%
%ADD23C,1.450000*%
%ADD24R,1.500000X1.900000*%
%ADD25R,1.700000X1.700000*%
%ADD26O,1.700000X1.700000*%
%ADD27RoundRect,0.243750X0.456250X-0.243750X0.456250X0.243750X-0.456250X0.243750X-0.456250X-0.243750X0*%
%ADD28RoundRect,0.243750X-0.456250X0.243750X-0.456250X-0.243750X0.456250X-0.243750X0.456250X0.243750X0*%
%ADD29C,1.500000*%
%ADD30O,2.000000X4.500000*%
%ADD31R,0.600000X3.000000*%
%ADD32C,2.800000*%
%ADD33C,0.900000*%
%ADD34R,1.200000X1.000000*%
%ADD35R,0.800000X1.200000*%
%ADD36R,2.000000X3.200000*%
%ADD37RoundRect,0.243750X0.243750X0.456250X-0.243750X0.456250X-0.243750X-0.456250X0.243750X-0.456250X0*%
G04 APERTURE END LIST*
D10*
%TO.C,H4*%
X34725000Y-108950000D03*
X35208274Y-107783274D03*
X35208274Y-110116726D03*
X36375000Y-107300000D03*
D11*
X36375000Y-108950000D03*
D10*
X36375000Y-110600000D03*
X37541726Y-107783274D03*
X37541726Y-110116726D03*
X38025000Y-108950000D03*
%TD*%
%TO.C,H1*%
X213325000Y-108950000D03*
X213808274Y-107783274D03*
X213808274Y-110116726D03*
X214975000Y-107300000D03*
D11*
X214975000Y-108950000D03*
D10*
X214975000Y-110600000D03*
X216141726Y-107783274D03*
X216141726Y-110116726D03*
X216625000Y-108950000D03*
%TD*%
%TO.C,H3*%
X213325000Y-76650000D03*
X213808274Y-75483274D03*
X213808274Y-77816726D03*
X214975000Y-75000000D03*
D11*
X214975000Y-76650000D03*
D10*
X214975000Y-78300000D03*
X216141726Y-75483274D03*
X216141726Y-77816726D03*
X216625000Y-76650000D03*
%TD*%
%TO.C,H2*%
X34725000Y-76625000D03*
X35208274Y-75458274D03*
X35208274Y-77791726D03*
X36375000Y-74975000D03*
D11*
X36375000Y-76625000D03*
D10*
X36375000Y-78275000D03*
X37541726Y-75458274D03*
X37541726Y-77791726D03*
X38025000Y-76625000D03*
%TD*%
%TO.C,H2*%
X34725000Y-76625000D03*
X35208274Y-75458274D03*
X35208274Y-77791726D03*
X36375000Y-74975000D03*
D11*
X36375000Y-76625000D03*
D10*
X36375000Y-78275000D03*
X37541726Y-75458274D03*
X37541726Y-77791726D03*
X38025000Y-76625000D03*
%TD*%
D12*
%TO.C,SW3*%
X120070280Y-97935000D03*
X108870280Y-97935000D03*
D13*
X114470280Y-105435000D03*
X111970280Y-105435000D03*
D14*
X116970280Y-105435000D03*
%TD*%
%TO.C,SW2*%
X138472640Y-105435000D03*
D13*
X133472640Y-105435000D03*
X135972640Y-105435000D03*
D12*
X130372640Y-97935000D03*
X141572640Y-97935000D03*
%TD*%
D15*
%TO.C,SW5*%
X51912000Y-98922000D03*
D16*
X48212000Y-98922000D03*
D13*
X54262000Y-98922000D03*
X51512000Y-103052000D03*
%TD*%
D17*
%TO.C,D3*%
X43832000Y-98099500D03*
X43832000Y-99674500D03*
%TD*%
D14*
%TO.C,SW4*%
X95317920Y-105435000D03*
D13*
X90317920Y-105435000D03*
X92817920Y-105435000D03*
D12*
X87217920Y-97935000D03*
X98417920Y-97935000D03*
%TD*%
D18*
%TO.C,J3*%
X79805834Y-84970000D03*
X79805834Y-78870000D03*
D19*
X77408834Y-80847000D03*
X82205834Y-78914000D03*
X82205834Y-85970000D03*
%TD*%
D18*
%TO.C,J5*%
X99357500Y-84970000D03*
X99357500Y-78870000D03*
D19*
X96960500Y-80847000D03*
X101757500Y-78914000D03*
X101757500Y-85970000D03*
%TD*%
D18*
%TO.C,J2*%
X89581667Y-84970000D03*
X89581667Y-78870000D03*
D19*
X87184667Y-80847000D03*
X91981667Y-78914000D03*
X91981667Y-85970000D03*
%TD*%
D20*
%TO.C,J1*%
X121160000Y-78302500D03*
X121810000Y-78302500D03*
X122460000Y-78302500D03*
X123110000Y-78302500D03*
X123760000Y-78302500D03*
D21*
X118960000Y-75602500D03*
D22*
X119560000Y-75602500D03*
D23*
X119960000Y-78302500D03*
D24*
X121460000Y-75602500D03*
X123460000Y-75602500D03*
D23*
X124960000Y-78302500D03*
D22*
X125360000Y-75602500D03*
D21*
X125960000Y-75602500D03*
%TD*%
D25*
%TO.C,J6*%
X214600000Y-95630000D03*
D26*
X214600000Y-93090000D03*
X214600000Y-90550000D03*
X214600000Y-88010000D03*
X214600000Y-85470000D03*
%TD*%
D27*
%TO.C,D4*%
X152800000Y-89500000D03*
X152800000Y-87625000D03*
%TD*%
D28*
%TO.C,D5*%
X190200000Y-87562500D03*
X190200000Y-89437500D03*
%TD*%
D27*
%TO.C,D7*%
X152700000Y-102637500D03*
X152700000Y-100762500D03*
%TD*%
D28*
%TO.C,D6*%
X190100000Y-100762500D03*
X190100000Y-102637500D03*
%TD*%
D29*
%TO.C,U5*%
X191700000Y-99350000D03*
X191700000Y-98850000D03*
D30*
X191700000Y-98100000D03*
D29*
X191700000Y-97600000D03*
X191700000Y-96850000D03*
X191700000Y-79350000D03*
X191700000Y-78850000D03*
D30*
X191700000Y-78100000D03*
D29*
X191700000Y-77350000D03*
X191700000Y-76850000D03*
X151200000Y-99350000D03*
X151200000Y-98600000D03*
D30*
X151200000Y-98100000D03*
D29*
X151200000Y-97350000D03*
X151200000Y-96850000D03*
X151200000Y-79350000D03*
X151200000Y-78600000D03*
D30*
X151200000Y-78100000D03*
D29*
X151200000Y-77350000D03*
X151200000Y-76850000D03*
D31*
X175450000Y-78100000D03*
X174450000Y-78100000D03*
X173450000Y-78100000D03*
X172450000Y-78100000D03*
X171450000Y-78100000D03*
X170450000Y-78100000D03*
X169450000Y-78100000D03*
X168450000Y-78100000D03*
X167450000Y-78100000D03*
%TD*%
D14*
%TO.C,SW8*%
X73665560Y-105435000D03*
D13*
X68665560Y-105435000D03*
X71165560Y-105435000D03*
D32*
X65565560Y-97935000D03*
X76765560Y-97935000D03*
%TD*%
D13*
%TO.C,SW7*%
X45000000Y-85000000D03*
X51500000Y-85000000D03*
X45000000Y-80500000D03*
X51500000Y-80500000D03*
%TD*%
D33*
%TO.C,SW9*%
X137110000Y-75630000D03*
X134210000Y-75630000D03*
D34*
X139360000Y-76780000D03*
X139360000Y-74480000D03*
X131960000Y-76780000D03*
X131960000Y-74480000D03*
D35*
X137860000Y-77480000D03*
X136360000Y-77480000D03*
X133460000Y-77480000D03*
%TD*%
D18*
%TO.C,J4*%
X70030000Y-84970000D03*
X70030000Y-78870000D03*
D19*
X67633000Y-80847000D03*
X72430000Y-78914000D03*
X72430000Y-85970000D03*
%TD*%
D14*
%TO.C,SW1*%
X207225000Y-101625000D03*
D13*
X202225000Y-101625000D03*
X204725000Y-101625000D03*
D36*
X199125000Y-94125000D03*
X210325000Y-94125000D03*
D13*
X202225000Y-87125000D03*
X207225000Y-87125000D03*
%TD*%
D37*
%TO.C,D8*%
X205637500Y-80375000D03*
X203762500Y-80375000D03*
%TD*%
M02*
